Project Version="4.2.1" TempoMode="FamiTracker" Name="Famidash music" Author="Famidash team" Copyright="NO TOUCH"
	DPCMSample Name="OrchHitF.dmc" Color="a9887d" Folder="Orchestra hits" Data="ab391a1c6e9ef3dc11302106f2cdeefb7e0c0b853ec1c08fc617ff6518ec0188486e7400f0effdffffd30368423e7d6af8030f081e0000fcb3cfed0070f9fbc2070018fdf71c24370ff8ff1070b8ffffbe12cd1d7fc31f0000808863ff2230f31ee67f065fc401f8ef07e00623600f6160f0f3f9f3377cd0eb30c31b00f07ff0dffb4ad9d8f88273103060f832f63d0820f88c7f389c153cb6bd089f32bc6d7b34e4095ef73f480330dff3fb9e25008eff790012008bfe87013cc050fc771c9ee06cfc31bfff1e7fce000a36301f7b14c73800307ecf031ec097ffc7df2f000cff51827318fe6100e730c6f70ea3311ce7799fc3be0df8bc7f008020b8f879f071007ee03fec611c7ef007ff3e806d3c073c60033ffe60210e000cff7fdd8384ff7f8f631a85831f870984e381cfb106e2f887e3008f718cef79847f38ce373cc63f10e03f3ee01e14e00f0f800f3cf8c70f8d0f3ef4f39bc5c300f4f9fb021800623dfce71d0e82df78039f7e9d071c02c39eff6f8701058c800cee851ec777fec3035f7fb0c13098c331ce67f8e7231c80789ce31dc8f10ff2f118dff80e40f28d7efcc04b3e8030cc9318ff87273c808ff7cc0ff80107f8f307fd888770c0037cece37ee3813ee97883e0b8f36098f2799c5b0cf87d10e43808ee3b88f31f62fb0bf07847789ce471dcc30d5e490c863006f778df6f19907d98e3970ec4748cffc1036c2f74687251c2037e3f7098a1bf1f889c8fe3908f27ff32608cc621cee8216cfd372f02b8cff0883f78304f3ef03f00e01f78a11e4f983fff140700d0df7f80e13fe8733fc83107704206fcf0a778e6537d1002efddc2465e28e67fec871ab0c907e198c774318b78e304bbf09b333116d7f98f6b2e88419d8e308cc5159ef029d7ed80ebcb60d1d6e0df76a48b3a80d71a79229ff0588196e80db5fb711cd0ebaef2d12c718442be5c4c305eb59a8a5d1f25935d190cc32fbfa50eb75a0d707c8b91b8c732d80357bc072ebd288b967b0bc72a5da6410bbf428a78e619b387fd93c2a25da0d43cdc4d7d40bf1ca886bf80274b370ee541fe89924dddc1d2354bb3bce2e82cc2119634aa639337b75abd36ead0824baaa872bdd5a18e792192e4701f21553f78ca9bbaf564d5c81594695db5402e5b8a8632d32395a9bf6e55a5e96129ed4a89b870f3da48de588c625c8d4c2e7569a7938c8fdba8e7b04467acdc6a28e1182c721a5ed98d6efb0eae580b57aa854caad3aab7c98a6a289256551657b6d4b7aa5513adaa4d95944bb2955dda84224ba9aa66555a6b6d2d5729cd5696c929257595d6f214c5a84a6bcad46aa9576a5357b8a46dd42255ba329dba958aa52a4bab94aa354d6bb68db22a4b6baa8a5655494db5254b59a996b19aba6a9555da4a555965b3b44a55aad44e6d310d35694dda2a275769935aaaa5555323ad6a5955aad52a4d1955d552d656554bd5aaa8a5a9aa524bd56a55a556ab94b4aab232555575d552adac545ad552aa4a5576a5aace6a2555a9aa6aa9a65aa5aaaaaaaaaaaaaaaaaaaaaaaa"
	DPCMSample Name="OrchHitF#.dmc" Color="fffc69" Folder="Orchestra hits" Data="d51c0dc3cd73cf1cc00919c89ffcfb368745826f10f8c13cf93fe3b0070050767000f87bffff7f3fc002f2ada9e10f4e100e0000fefcb91d0097df171e0060faef8db09907fe1f0286fbffffd96037fc871f000040c2d95f0466fd60ff335c0907f0ef0770c211d8210c0c3fcf9fd7f425d761871b00f81ffcf37e998d8e278c4142c0f826f61e0600bcb38fe013faaeeb07f035fcff3f015b86f742d3c006f02875780a107cd28e87bb81a3f945784afcda7a3cf400affb4f6800e6bddf7796001cff79001280a1ff2180078ce5be637882d9fc31bfffcf9f3300c102fbd1a318e300607ccf030fe0e5fff8ff0640f84f18ce21dc6380e710e3fd8338c671def31cf31ee0f9ff0000105c7e1e380ec407ffa18773f8e007ff1ec017cf81072cf0eb0749340038fe7fdcc1c2ffdff3484338f8312c10c613cfe70307fce3100078e47fdf398e438ce779e33b8060c07f3c0718c7fdcff10770dcf308f340831e1e000f1cfcd747e3c147be3f2d1e03c0f7f7070000b10eff79c343f8861ff8f4751e3804439fffbb6380801848702ff81cdffc83479f7bd8300c7238c67cc73d8f7100e238e317e4f807791dc71fef00826ff4f183573c4018e609c6fff8c00378fc673fe0030ef8f9073ee6011c78c0473ef78f0778daf11670887f0cf2b01ff439417ed800b44a98bfff100770ffe183f997003ee0b81f10fe008e7796f33f21b8433c6f3684e398ffc401b6073b1c3c461cf0fbc10313f71f489e8f71f0e1e55f06d4480e714387d8fea71703cc733ce00f0ff1d283ff00c03fb8a01f27ece79fc50000faff038c7f50ef3ed4a10338d0011e7f4537bdea0314bcbbc50c2f14f33ffd41039ebc00c79ee2718cf0ce011afed2871ae069f77f9a011c771cc81ee0ce871ca7279cf8f0533dc0903ffec6071ce48743bcc0d36638931b2eb8c3b78ee118eef9e6b18632c4a20d9711e6726a55ec7a4a26db320cc397bfd2e2967380e35b8cd01767c8032fdd03471f63d4ba733856e95483167e05159cf34af6b0bf141ced02b1e5b19bfc806f0e54d11ff064b972280ffc16431bfd60e39555b8cf8cae012b7042b1beaa1e9fb42f6bd4410ea458877dea9ad3d8908bde48ce23b8e4b1e6b586358e64ba72f8c3238735150e2c5aaab1cacd5babde461d165c5245957bab438fb910491cfa23c4eac353ded4ebd2b4910b6aaacb96c8c42934b22a9e5c4777dfc1156bb8522da452a755ef64453524d1aacab8b2a5be55ad265935a74aca25d5b24b1b9254495555abb495db565b52ada5a33452499d7acc650d552acb54c732e63655e32ae5f4e294ae14d515ad75896254a52d995a4bed4a9bbaa8295b69492a5d994bbd52b154655aa5346799d66c476595a55555a9aa54dad49632a9d19ab49a8eadb4514dd5b46aaaa455cbaa52a7559a2aac6aa96aab6a695625354d55a596aad5aa52ab5592565556a6aaaaab956a59a5b46a2955a9aab654d556ad948a959aa55675294bd3d2a55ab2a82adb52a56aaaab155a55932d5965d5aaaaaaaaaaaaaaaaaaaaaaaaaa"
	DPCMSample Name="OrchHitG.dmc" Color="3ca598" Folder="Orchestra hits" Data="2b47c3383bf7cc084cc0247fb3f73ec702c313063e8a37ff1b863d0020d97000fcbdffff5f4f4820cf5e8e3f3820180000fef6dc0ec0f5dbc30100e3fe37482e07fe3f01c3feffbf1a76e32ffc000080c0b17f04337fc8df862f70007f3fc00923b0230c849fe7f735bef41c33dc00e07ff8e7fe88cdc60b6348080c5f31ff1000f0e61fe00bebd7b901bdc5ffff1ac813de0be5810d70941a9c02825f7c78b80f8ce687f09af85a3b0f7c607dff810630effccf790138ff39000460e87f04784028f79de105f3f831ffffe3e7062848b01f3de2980280f88f038ff0f23ffebf00847f54708770c700e718e3fe218e31ce7bcfb0f780e7ff0100105c3e0f9d03f8e01f7698e3871ffc3dc035cfc1001e7cfa21810380f1ff738785ffdf73ac011e3c8e01433cf1bc0f1cf0c7310038f4def78673cc78ce3bcf018200ff3c0718e3bf73fc21c63dcf90030d7c78000e1cfcfba1f8f0e1f7cbf21000dfdf0f0000b18e7fde7009feb881a7bf79e0008ebcfbbf3120600218ce45cff1ee1f0e7dfed0210c331c31dff1ee110710c7985fc0f10f791ee38f3780f00f1f3f78f20160cc83ccff58c1013efee9073e70c0c71ffa8c231838c0b3cffbe3006f396f8403fd31a4b11ff859a01f3600c701fbfb8738c0fdc70df997001e72c607c23fe078a796ff83e042383f0ec3d167bc73045f8b20c118e6bcef3b039ad39c2f2d603af30f1ed0bce830394a38f0fde1c0c4df07e1798c238f97ff0c88498e38d121b6ffe523c01ee3811f1fe4ca83ff00c01f2ef8e1c27efe190300f4ff038c7fd0bb0f395a80031df0f01bdd3ceb0314dc7b61c30b69fed38f32d0f2029c3da2730cf8678086dfeca8018fbbff690318e71c280f38f721e778c2c587cff400837efcc70786f8e1101f70ad434d6db8b016df4e618cbbbe79ca21438cea5845c8cb6655ec7a4ac9ae0c61f4f94b1d5bcd018e6f8c708f15ecc08b3f70f49146ebcee158e55283265f210567be641efb4b61b20bc4e6b1ab7c609f0335fc014f961b873cf00f251bfde0e84d15ee8be91ab08825c4faaa3abeb4cf167590038c75d8abae36e34287de48ce09ba78aa79ab58e388e9d2e10f278d3505078b965aacdcb9b57a1d7558703145957beb50670e86c2853f50aa1f4e79d5edca9ce18232edaa095c3645435c7aa44cbfdd29533d2c65570a71b2791da9cb6294b24a26a72e6d9d149f75d13396b864d5d590700c46cee2ca1bdd7d87166bb8522d98d469d53759544322ab2ae3ca96be55ab4656cda9925c52ad2e6d4852295555abb4e5b6d595d46a3aca282575eacc650d55ca32d5b1c4794b2da794d38b539e14d5256b75a214555a93a975b42b6deac2293b69914a57e6d4ab144b966595529da9d66c4759a5695595ac4aa54d5bcaa4469bd29a96ab7452532dada64a56adaa4aad569a4aac6acabaaa9aaa55d25455955aaad6aa526b95a2559569aaaab65aaa65a5b4aa2555a9ca2d559dd54aa95869965ab5a92cd3d4a99a2aaaca2e55aaa6ae5968558d2d5959aaaaaaaaaaaaaaaaaaaaaaaa"
	DPCMSample Name="OrchHitG#.dmc" Color="b5c2ff" Folder="Orchestra hits" Data="35c741dcdc3d1bc1400cf8cbdffb8c05c313061fe6e57f62d00340688703f073ffffff0734c0b3abf18703c00100f0f9bb07c0f3eff00040f87fa32479f0ff048cfdffbf0bb3f10f3f0000009cfd26c8fcb0ff848f3880ff0f704104394221ec9edf6f7cf41c1b2e00f80fffde9b78345f8c2110185db1770800dcf903bcb1b76e0ff01affff13681bef4279a0014ea9e114102eb5f1b80f8cf2233d16deabe3d403eefd070a60ef7def9c00cc3f0f900082fe33600151ee9de18579fce8f77f7e6e0042837e748c9902c078e7c0235cffe7ef0d20fc11e30c71cf007788f8774831c7bcf38edd07defd0300002edf03e3001ffca9c71c1f7ef07b8035efe080051f3f1630008cffcf1d0affff73c610079f21218817e77d70c01f438030fadfbbe31c31cef9f31c0006fc730e10e7fe397e9071cf1573c0a0e3013838f8dba378f8f4f9b61c06e0fd5f8000c01afffce1086f7ce0e9770f0e40ecfcffc680400418ee8277bcfdc3d1e7870d23cc3066bcf1f711038871e30f18ffd0f3983bfe00c14b9f1f9c7900887388fdc7030ff0fcd30f3c70c0e7873ef18003033e79fe8f039e3a6f8411df1c70fc039f05fae1001c13fafb8718c4fef151fe11e081335f00ff80f18f96ff617010cee7601c3de759137c1e40851876dcffce007bccf97480e3cc3f38e01d3cb48c120e7c3f1c0cf71f88e731071f97bf06649a21a61866fbb7ab007bccb9ab80e9e43f3cc03c3c348e1207fc1f0e0cf71f88e731078f977f06648a31361c62fb9f97007dc6111f1f72f2c13f00f8e1821f07e7fb570400f8ff03c21ff6ee5147063868c0c33fdcf2ea0304f73e58f282e63ffdd040cb031c7be23126fc1ce0f0cb8e1670fcfe670e60ec1ca807cc7dc89c279c3c7c95070cfafcc707067e38c403e76cd4e485835bde9ae1887bbe9d6ac810a38d65443c9b55f17a4acab6c2107dfed2e2ce1c50bd25c23d66e8c1d23d587ca4d1da1dce94cd0c9a7c210567bea4c7fe121cbd406a8e6ff2812f0735fc8195e5c6a883fc51727487a59755ec8be91aa8c089b0bdaae3cbbe6ad441062c75d8ab6bceb8e0e28de49ce0c2abb5ad38e588e9ecf0e3c8615338305caab172bbb57a1d35169c5451b9b70e1dbb1012877b42aa0f4fdef47aaa1a2ea8b2ab2670b944436a3a29d35f772ad5c3525e29c4e17a6da4c752c4b4926969d3d691f1dc45d758d864d535941843c934bcbad17b1f5aacb1520d19d559f58d253524b2b22c2b5bfa55ad464e75aa2497d8b2cb8644a65455cdb4e5b6b325b59aa6345252abc79c35542963d531636e53cb2955bd38e54a5297ac75a21855da646a4dbdd2a62e9ab463452a3de6d42b9592655929cd9969cd1d6595694d55ac4aa5d3962a6ab426ab5ab5d2514d2dada69156adaad269a5a9a8aa25ebaa5aaa55d23455a5966ab52ab55649565596a9aaba5a6a6529ad5a4a95aabc52b5564ba658699659752ad32c9daac9a42adb54a9a6b6596855634d3656ab545553b5aab452ad32abcacaac2ab52ad3aaaa4aaaaaaaaaaaaaaaaaaaaaaaaa"
	DPCMSample Name="OrchHitA.dmc" Color="ff8f8c" Folder="Orchestra hits" Data="cd318ccdddd9092630e0b6bdff8c85e085c1c7bcfc27861e00a00d07e077ffffff03057a7a153f1c800600e0f3b30fc0f95f3c00087f6f2ac983ff1318fbff7f0dddf847070000c0d91f61f243fe0d3f38c0fd074c9820071443f37ebff1d21d133e00fc87bf7f914df3620c8460bc60ff08004efe802ff4d7ee80d7f8ff2fd032eec23d50801339dc00e1ca8dc33f18e54bb816afd579f4c0bc7fa40073f7bf5b01cc3f070880a0ff041c10e5fe0c17a6f9d1ff7f7e378090a08f8f982900e21f034778fee7ff03087f4a98317708b823e6fe9022e6dc3b67efc0f37f0000607d0e8d411efca3c38e0f1f7e0f78730e0e347c7c48700088ff7787c6ff77ce0a71788c84100fce7f70e08711200efebd3fce8879e6ce392104fc7903c4d07fe78739f367c20163f40c1870eedc21678cb873e28f333f8efe01e0cf033b0cf8e1000b07bf1fc5e3c3f7ad3902e0fd3f0000a8e3df0b0ff8e383c76f0e0e60f4fef71108882061179ef3f68fa3e7878d11628c9937fe9c31008e991f64fe907bcc8f3740f8d1f3c3c90360cc21f38f170e38fee5830f0c7c7ee493030e0c7879fecf012fdc0f70e0cf81631f7c16e4e301980afaff2107d83f37e49f000f4e7c10fec078c7e37f1806e17c0ee2f88d7323f81e0273087d43e61fe93fc0bc83e3c2997b2c7c3041840c3bf7ff1aa0c7ac4f0b8c93ff70c01d3c4c8bc481efc3c170ff209d678c1e977f039264cc4447b4ff7904e81b077e3ce4f2e01f007eb8e073e09fbf3100c0ff07c61f7cfbd0e100830c3c7ec5cdab8710fc5e2cf890f9e71f1ab03cc0ec89c70cf81be0f8b1a3069cdbff6a8071e3a01eb07bc89c272c1edff480a0cf7f3c18f8e1c007e63cccb4e1a18b9f13c6b8f3efcc1003de8418c7c28917df1e585f70e806ff3b7474806bc3133e380b34f121f7671cf0efe4292723841e4f81bc5a357c9e52f22a0cf1f18f8b9b73c0bc25c48f193ab8f403c747466b773855ce0c197e41c1d98bf6e82f61b403691ebbf4811f07157fe0647a8c39f017c9d10f8e9755ec4dba068a9810fbaa1e2ffdac3143062c5df4eaea340e1dde9075828ba7e6ad3163a2ba3a7c9c1c568583a2a9c6cae7b67a471d062715957bebd09943241cfe40aa0f573ebdae6a92832abb6ac0e51245593a29d5df9d4af530e595421cdb75c19b52c4ac6172daf4b414cf1d3d638593d555941861e40caf6edcfd61c5864b35a4d459f593451d88ac2ce3b2a55fb51a39d5a92497d8eab221514955d54c5bedce96d45a8e3452d2e9316745953256cd12bb4d8d2b65bd387992d4256b9b8851658ba939f5d2aa2e96ec6891ca555abd524c9565a5549b6acd1d5565595345ab4a9aba64ca5233d6b4b5aaca96aaac9c69a54a959e36a568b1269b39aeb45153cb6a1a69b5ac4aa79526c3aaa5daaa966a154d53556aaad5aab45a49565569aaaaad955a96d2aa2955aaea52b5564b295a9a65559732cdb2a926932adb54a9a6ae165ad5d862632ddb54aaaa951a2bb5544ba656ab542ab5b255abaaaaaaaaaaaaaaaaaaaaaaaaaa"
	DPCMSample Name="fdbass A#" Color="5ac4ff" Folder="famidash bass" Data="fffff2f701ec03308024014362b49b3cd8803f07d79f82e6c98cb813113f71c0dd7bf8ffff3fbd6f02f60f008018021c50e09f3d60c0df02fa3724f707c0dc01068f78c0cf3ffcffffbf7ff701ef07008090010e08e8ef1c70e08f0f197732f203e0d881800779e0e7fffcffff9fffb703fb0700408c000f60f8870738e0c707d73c067b0360e48081077c70e6fffcfffffffff700ff0300c003800f60f8870f38e08787273e06bf0038e00180833ef8f17fffffffefff7b00ff0300c003807320fc07071cf0c707673c037f0070f00080613cf0ff9fffffffbfff7c80ff0300c003c03c80fc83070cf0e7071fab00ff0070f000001c1ff8ff1fffffffefff7c80ff0100c083c03808efa3020ef8cf81beac02bf00e07000801c1ff0ff1fffffffffff79c0ff0300c003801d88fec1030cf8ef00bfaac09f00c03a00002f1df8fe9fffffffffff0be0ff0000c029001f48edf5000cfc5781af2ad49b00003f0000be0afcff87ffffffffff0fe0ff03008025005788def60100fc7f017d29f89a0000fe0000ec82fefea7bfffffffff1fc0f70500c005005d22adfd4200fc3f01ef22e82f00007e0080da827dffabd5ffffffff7fa0fd0200d00500ada4aade5501f05f427b05f8960000be0090aa44dffe6ea5ffffffffff607b0500d01300aaa4aafab600f8b7a0de04f42d00007c014855c15eff6e21ffffffffff53bb0900d0154024a5aa7a6f00f8afa46e01ba2b0200b80289aa90bbfd3741ffffffffffa9760500b813109152a5766f00bc5f51bb01b437080070424855a1b6fbaf80feffffffff55dd4400e825844452a56eaf00ba5fa9de0268af00007011a49a48dbfe5d02fdffffff5f6bbb22006a4b4244aa926d3701ba5fa9bd09d05e0100d084905649d5fdaf80fcfffffd5fdbb61280b4952442ac94ad3b20b66faa7b0364bb0000a81222ada4aaf76f04fdff7bdfb7edae0904694b4942b252ad9b20b5b7aabd85d0b60400a84488aa5255bf6f42faffedfbaedb5d8920aaaa5211a9526baba06a57b56e93a45a09005249482a95aa7d5f49f6f7eebe6bdb6e49445255a922a9aa5a2b91aa5b55bb2aa96a118094929054a9d4ee5ba5da77b7f7b6b65d2591542a5525a9d26a5591aaad5a6d9532ad2204a914494aa5b2ba5b55ed6eb7bd6d6d5b9524a554aa4a4a556b5589aab5aab62a55554542524a4952a5cadab6aab66dbb6edbdab64a4929952a955255ad9652a955ad5a55a9aa9212a554524a95aa5a5b556bdbb6dab6b6b62a954aa554a954a5d5aa54555555abaaaaca94925229a554aaaa5aad56b5b6b65a6badb5aa52552a552a55aa5a5555a9aa5655555555a54aa9542a95aaaaaa55ab6aadd56ab55aab95a6aa52a55295aaaaa5a5aaaaaa55555555a92a952a95aa2a55ab6a55b56ab5aa56ab56555555952a5595aaaaaaaaaaaaaa6a95aaaaaaaa5295aa54555955b5b2aa55adaa5ad5aaaaaaaa2a5595a9aaaaaaaaaaaaaaaaaaaaaaaaaa4a55a5aaaaaaaaaa5a5555abaaaa56555555555595aaaaaaaaaaaaaaaaaaaaaaaaaaaaaaaa52555595aa55555555abaaaaaaaa6a55555656aaaaaaaaaaaaaaaaaaaa55"
	DPCMSample Name="fdbass B" Color="5ac4ff" Folder="famidash bass" Data="ff7ffb0f037b0400091878e0842afbf1807f187a0f987d180a3d1d7860cbaf3ff0ffff3fe55f86fc000018083ce081993778c0efc4b8079eae81c10f0c3c20d2fb3ff0ffffffef7f043e000887046cd080831f7ce0368ce703cee700c407072e80f0fddff8ffffffff67825f00000702781ce091073ef81e84e503677700c083070e00f8fddffcffffffff6f811f008403023c1ee0c0071ff80fc4e1c1f43700c083030600fcff4fffffffffff4fc10f008303001e0ff0e0831ff807e2f001e63f00e081010600fdff8fffffffffff37c20700870300ae07f0e0830ff81771f100fa1f00e001000708fdff8fffffffffff37e00700c30100ef03f8e0810ffc47f0e000f71f00e000010740fbff8fffffffffff4fea0700e00000f70378f0810ffc0fe07800ff16007820800340fbff9fffffffffff07ff03001cc000ec032cbbc083ff0fc02a50f80f00f001800542faffdffffffff7ff47ff03001c1000fc06d4aacac0ff0fc02a80fe0500f802c01201fdffaffffffffbffd3fe0700a80800784555d5aa80ff1f405500ff0200f802505a00feffa7fdffffffffd5fb030068050070a552ab1dc0ff1f805600df04007c05902d00f7ff55fdfffffffff4ef0200d80400a8aa52ad2f80ff1f202b005f0900bc01922d00b7ff2bfdffffff7ff5fb0500d81200a0aaa4b62fc0ff1f805600b70400f600491740dbff2afeffffff9ffafd0500b60900a0aaa4ba0fc8ff1f901680ad0200be00c91640ebff4afaffffff9fbaff0580da120090aa92ba17e4ff0f420ba05509006e01a40b90f5df45faffffff8fec7f0b406d150044aa92f626e4ff0f910aa8aa0200bb20d01690da7f23faffffff4bdafb0b20db4a0082aa4aee8ae8ff8f4805644d09005d01a20d21f5ef22feffff7f15b5f72590b61a4140aa4ab625b9ff4fa422d0aa04803609d04a44dabf92faffffdf4ad5de15225b558420a94aad25b9ff97a482a8550220ab04512589eabb49feff7f77956abb25a2d62a4990a4aaaa29b5ff2ba584685542405522a85292b46fa5feffdbddaaaa6d95a46a554a8894aaaa2ab57f5b2989a4552290aa8848a524b5db4afdff6d7753d5d692545555254952aaaa2aabefd65212a99624445512514a29b5adaafeefb6db965a6b2995aaaa4a494aa5aaaaaadbb6aa24a9aa28922a4552524ab5d6caf6f7da6dad6a55534a5555a59252a9aaaa6adb5a5549aa4c2949a99292524ad55655bb776bdb5ab56aa95455aa4aa552a5aaaaaaadd5aa942a552a29552aa5542ad56a556d77adadb56ad554a5aa52952a5595aaaaaab56a55a552952aa552a552a94ad5aaaab6adadd66ab5aaaa2a4b55aa4a95aaaaaaaa5aadaa2a55a5aa54aa54a94a555555d55a6bad6ab55a55555555aaaa54a9aaaaaaaaaa55b55455a9aa52a5aa5495aaaaaa5ab55aabaa55abaaaaaaaa525595a9aaaaaaaaaaaa5555a5aaaa4a55a9aa525555adb4aa55abaa5a55ad2c55555555a5aaaaaaaaaaaaaaaaaaaaaaaaaa525595a5aaaaaa5a55adaaaaaa56555555955aa9aaaaaaaaaaaa55"
	DPCMSample Name="fdbass C" Color="5ac4ff" Folder="famidash bass" Data="ff3fffd7605a00000489072cbaf465003f1fb92e619f8121a7910f1afeede5e7ff3ffd7c807f00010380031ab8fc81037f09fc65c47f011097810f38feede1ffff7ffe7d067f00800380011a38cf43037f08fe6cc43f012007810f38fce7e3fffffffffd0c7f00800300031994ef41069f07fc61883f010007090f38fcffe3fffffffffb1cff00800300071898fbc100ff01fe3180ff00000f000f38fcffe3ffffffffff80ff008003008638c8de8103bf09f66180ef01000f000e78fcfff1ffffffff7f41ff000007000e3888ff8103de03f31183f300001f080c78f2fff9ffffffff7f83fb00200c00361884ff0103fe07f123816b05001e0014f8f1ffe3ffffffffff81ff01400400760881ff0107fe07f04780bb01003e0030f0abffe3ffffffffff81ff01c00000f40481ff0306fc0ff00f80e701003e0020f8abffc7ffffffffffa1ff01800200d815a0fe0302fe1fc07f00ea01003e0200dadbfecffdffffffffc1ff00800500600f90ef8300ff1fc07f00d40200fe080054edfeaff5ffffffff87ff010056008016c17e4b02fc3f807f006a0500fc050058d9fedfd2ffffffff4fff01005a00001b48dfab00fe3f00ff00540500f8470028a9fffba1ffffffff9ffe0300ba00002c487bb701fc7f00fd00540300f80f0094547fffc2ffffffff4fff0100bd01002441bd7d01fcff00fe00a80500f04f002891fd7f43ffffffff9ffe0300be01000991daed02faff00fe00d21200e037005492f67f43ffffffff4fff0200fe02081284da7503f5ff017e00a50500e03b01a848f6bf23fdffffff4fff0100fd05824820d97545f4ff017e01521500c06f024889ba7f0bfdffffff4bfb0300fd0d412490d4b645f8ff03fa08485500c05e1148116dff46faffffff13fb0700fa2b424890d4d64a78ff07f54290260180bb04a4446af72bfaffffff25fd0b00ec9b442444b2da4a74ff8bda22221501c0b6244889d4be97f4fffffe95fa4b007437252241a95653d4ff956c2591920048ad129114557b57d9ffeff74ded2b04d4ad4a9210a5554bb2fdab6a25499204905a492425a976576bffb7dfabda9b08d25aa59288545555aabd5bb54a49494420b5944449a9b6addafbdb7e5bb55b2252ad4aa544545555a9f6366b554a291242a94a4952aa6a5badf75df7b66a5b495455552a254a5555a5d5add6aa5449514852959254caaaaddaee6dbdadd5d694a4aaaa542929555595d55aad55aa4a4912952aa59452b556addd6d6d5badad4a29b554954a2955555555ad56ab2a554a494a554aa95255ab56dbadb5ad56aba55255aaaa542953555555b5aa5655a54aa5944a952a5559d5aab6b5d55aabd54aa5aa2a5595aa5455555555b5aaaaaa52954aa5aa54aaaaaa556bad55abd5aaaa2a355595aa52555555555555adaa525555aa5255aacad4d2aa5aab55b55a55ad5455a5aaaa545555555555555555555555a5aa5455a956a956d5aa55d5aa6a5569aaaaaa4a55555555555555555555555555a9aaca5255d554abaa555555abaaaaaaaa52555555555555555555555555555555aaaaaaaaaaaaaa56555555d54aab5455555555555555"
	DPCMSample Name="fdbass C#" Color="5ac4ff" Folder="famidash bass" Data="ff7ffe27d0070090088c7830f24f00fe39796e94dd00a61378c1f5f507ffff7ffa3f683b00800070e0c1e23e047e067e5b843e01d807e081a7ef1ffefffffcffc977002000c0c100873f1cf859389709f901209b84070efe3ffcfffffbff87f7010006000702cefc30f063e1cc19f0078066100e38fcfff0ffffffff5ffc06000c001c1078f2c1e0cf813b66e01f00982038e0f8ffe1fffffffffff03500300070c0e0f007079f03af19037f00c1806080e7f3d7ffffffffffe37300c000c080c16b0f067e07bc710cfc0104020301ceff0fffffffffffd7d7018005000304f97f40f047e0c310bc0f180e04003c1f7ffcffffffffffbd070016002024ccff40e03f413703e01e40311800f09ffef1ffffffffbffb0e002c000011b8ff03c0ff01fa05807f00a04300c07ff8cffffffffffffa3f00b000000c60f70f04ff0fe01f007c00a08f0040b7f33fefffffffffd77f00c001003001fe9f00ff0f807f00f00300fe000066f7ffb4ffffffffdfff018005004005f85f13f87f00fc03c00300fc03002cf5ff5dfeffffffbffd030007000013d0bf1df0fe03f007800f00e00f023051ffffe8ffffffffff0f003c000010a0fb7ba0fb1f801f001f00007f04a042feffa3fffffffff71f007881008000fded21fe3f007e00fa0000fc208005faff8ffeffffffebff00e02500000274df15faff01f801f00200f083000de1ff7ff8ffffff67ff05c09d080000d0fd9ae4ff07e007e02600c00b012c82ffffd1ffffff97fe1700df24008080ddaba2ff1fc017405b00009f00a882faffc7feffff57fa1f00bdab000280ecae8afe7f005f80ba0000de08a084f8ff17ffffdfb7d47f01f0ae0a080069bb4afaff017a01ba090078094025c8ff5ffcff7fefa47f05c0dd9a2000a4dda6e8ff0bd805d21500f02a002a88defff2ffffdd95fa2700dd5a91008876aba2ff0f6227a49608c056022841daffaaffffbbabec5780d4d6940408d5ad4afd5f442b915a4480b6044811d2fdcdfeffb7d7d4bd0251abaa2420aab6aaeabf92aa446a2201b54a208948fbaef6ffbbbbaabd254455552581a4daaab47f53aa24a98a02aa9510492475afb5ffdbbd55db55a254552905496aadd2faabaa92a42a0a9295124992d46e6bf7afddaddaad2455aa2a25a254b552eb5b555552aa28224d25494a52db5afbdeba6db56d2aa5aa4aa5884aad2aad5dab9652a99444a94a4a5252b5d5b677ab5bab6d552a5555aa24a9aa2ab5da5aad52a9524a52a9945252556bb5ddadb6566bad5455a5aa9494aaaaaaaab5aa55aa4aa9a454a9945255556bedb66aabd65aa5aa2a55a552aaaaaaaa6ab5aa4a55a952a952a994aaaa556b5babd56a55cb5455a5aa52a9aaaaaaaa56555555a9aa54a954a94a55b55a6bad6ad56a55a9aaaaaa54a5aaaaaaaaaa659556a5aa5255aa4a55956a556bb5aa56d5aaaaaa2a5555aaaaaaaaaaaaaaaaaaaaaaaa4c55a62a5555ad6ab5aa6a56d54a55555555aaaaaaaaaaaaaaaaaaaaaaaaaa545555a9aaaa56d5aaaa6a56555555a9a9aaaaaaaaaaaaaaaaaaaaaaaaaaaab45455555555b5aaaaaaaaaaaaaaaaaaaaaaaaaaaaaaaa55"
	DPCMSample Name="fdbass D" Color="5ac4ff" Folder="famidash bass" Data="ff7fff01f6000068c1c082d73a00fe33d873f83230d902d3daf23bfcfbfff9d7c19f8000002c08e8ed06c03f039f0f7f00922d30382ebfd3ffff3ffe3fde020804802601f96e00fc32f879f007a0d00102d9f577ffffffcbefe35b804000700cb0cf81a15f061f077e02263c00309cfdefffff7ffe3e7f1c0000808d00ff1830fc87f0e3c037c0c00300c5f9fffcffffe7dfe7c7010100e00870df01c2ff103e0e7c060c3c00209cfcfffffffffcfff91c008000ca80f21d10fc8fc1e3808f80c10300e3c0ffffffffffff8fc7010204800d187f03c1ff207c02f809187800309cfcf7ffffffffff783900c000e001f23f20f81fe007007f00c11700c6817fffffffffffdfc303000c000730fe0706ff037c00f01700fc00c038f8ffffffffff7f7d78008000e000e6ff00f07f401f00fe00c00f009887fffffbffffffcf87070008000ea0df0705ff07f001f00d00f8018075f8ff2fffffffff7ff20000006002f2d715f07f803c00f700801f00a4cbf5fff1ffffffffaf0b000000055077f702fe0fc007601f00f00120d9aaff1ffeffffffff7b0080004000b6de37e0ff017800f503001e004aadf6ffe1ffffffffbd0f000c0000d0bcdd05fe1f4007585f00800340d5d4ff1ffcffffffdfff0050010000b4ae37e0ff076801db030038009855dbffc3ffffff7fdd1f102d000080ba6d13fc7f400d6877000003006b55ff3ff8ffffffd7fe03e802000068d72ec1ff0f7001ee0d006000a055edff83ffffff5fed3f803e00020075ed05faff801660f700000b00d854fb7ff8ffff7fd5fe07d00b4000d0ae5de0ff075401ed2b00600200ab6aff87ffffff36ebbf00bd000980ecda46fc7f0855a07d01004b006055fd7ff0ffffbba6fd87a027200142b7b644ff2fd002d52f005009002c55ff0fffffbfabea6f81dc0824106a6b4decff412a50fd02004b00a02af5fff0ffff5b2bf72b901b420221bbb6a4fe1fa212543f0068110052a9fd2ffeffdf56d56f056a432410a96b4bd9ff112a41f50601550820a5b4ffd1ffffb555ed2b419b444244bab692fd2fa21254dd10a812209452fd8ffcff5fadaaf71254954844a26d4dd57f152911d516419a08444a69ff52ff7f6b4ded5d4255922414d55655f5af921249ad12512942a494fa5bdaff6bad56bb95942a292249ad5569df4d2989d22a8952919054aa7d55f76f6badeab692aaa41451d25a55d6b7aa94a4ac52a4522452a96aafda7d5b6b55edaa5295528954aa5555ed56554a2a2ba5949244a954db56bbd756ab665d95aa4a292955555555dbaa2aa5b254299592a45255d76abbb5d6aa6aab5455a95252555555d55a5595d22a552a959452a9da6ab55bad56d56a55aaaa542955555555b55a55aa5455952a9552aad45ad5b655ad5ad5aaaa4a55a55255555555adaa2a55555555aa542a5555b36a6b55ad6a55555555a52a555555555555ad52555555a5aa52a9aaaa6ab55655b5aa5a5595aa2a55555555555555555555555595aa2a555555d56a555535abaaaaaaaa5255555555555555555555555595aaaaaaaaaaaa5655555555ab55"
	DPCMSample Name="this" Color="8d69e4" Folder="This is a time machine" Data="9555555555555555535555555555555555555555555555555555555555555555555555555555554b55d952cd5453ce545355655555955595c69559534d9555d155d554b5388e55351557a696595a711cc775548d71dc31463e87c339cc53e6180fe33cccd3617887b1271c3e0bf519359645ceb5347cc1355c39b5081fc7e11ccee31c638e71468cf363cc39e38c31e69c7138c6cd713c8ee1e33863ce391e77e018c7708e33184fe3380f7b0ee761189f618e98713c77c7183963618cf3e338c7e3781847fc0c8fe318cff09883f11872c7f8311cde313e4e8073e6ccc93123dec53db8731c9c01334fcf7923970f7f800338c00ff887f17c8effe00ff8c01ff0031ec00740000ef07ffeffffffff0f008001100497f631fee37f088f218e203800c3203cc3ff7cfe7ffedfffe1037c000a30801ff8030c000170d813fffbffffff7ffe07ff001c000000000080f3f3fffdfffff30ffc001e80010ee3311c101118800df8c7ffffffffffeffc70001880834000003006eff9ffbfffcf791c0770000ec0201cc7e37f381ec7e3701c8fc3791eff71cee37138128e83e140388ec3e1388ec7fff1cfc3e701e7c018c7c1188e610c73061cc7e3f1789ee3738cf3611cc7710e9c731ce7e01c1c8fe3e70c8ec3e1381c0fc7713c1cc7e3f8301e8ec7718c87e3719cc771388ee39c8fe11cc363e0380e8f719ce7f0380ee3781c8ee3381ce7708ef1381cc7f1701c8fe3388ec3731c8ee3e038cff1e3c0cce17118c71c87c7717c1c8f316e8e877386f1e1380ee31cc7c3713c1c1fc7c8713c0e8fe318c7f1388ec7318ee3383c8e73381c0e7f1cc7e0781ccec3311e8fe3e338388ee3701c67f0380e1cc7390e8fc371ce39731c1cc7d9718cc7e1310ec7b139ce717c1cc73c0ec7711c87e171709c39761c1f721ce3388ec7e3381ec7e1381e8763cce138e678381e8fe3701c67ce713c783c3c8c711c8ec70c87e3781cc7f1709c717c3c8ee3713c8ee3781cc77138e43838ce9ce3711c1c679ce3e0e3703cc671380ee73c1c072f8ec7f038c7e3381e07730e87733c8ec3713c8ee3f1380ec3f170cc73e0f8e1701c1cc7783c8ee3388ff1701cff001e8ec3338ec3731cc7f3380e87e3181e0fc70fe0713cc7c36388e3e3f1383c0ec7c73167f03c8cc781f182e7e083e7e0b83f780e9e191ec7c33dc00fe6e164fc00505555555555555555555555555555555555555555555555555555d5b2aaaaaaaaaa5a555555abaa4a5b55d5aa2a6d555a2bad2aadaaaaaa5555"
	DPCMSample Name="is a" Color="997c73" Folder="This is a time machine" Data="ee81c3381e8fe3618cf1c03dc31f0f3e0f1ec7710c8f07cdc1003c301ffee79fffc11f030108c001fee7fffc81ffe00d60d0073c030e831087c1f1fce7f9fffc3f3e080ee4c17ff28f7300000000000000ffffffffffffff0f000200c400008161c08ef3fffffffb7efb0e3e8307e6811fe0033c00010000000000dcffffffffffffff031c08010e0004008371381ccfe37f3fdf47cf7f86ffe003e7e00438c023c0004000089ce3ffffffffffffffe11010c4000c80010080c3f0fcfff7f87e3cff781c8ff3718fe3010c40100fc041380c1f8ec7f37dbefff7f1b98fe3313c8ec361000cc1000008c7f13cffe3791c8fe7fff879738ce3e1301c8661380cc230388ec3f1389fcfe77b9e1fcfe161188e6370188c1b033f80738c719e718ee3f1381ecfddf33ee38371701ce3e0300c03c70cc70de78cf3c7711c8ee7381e9f778e8339388e711806cc713c0e8f8373ce8f73dc1c67671c0e87c7611c07c7711cc7c1318ec7f1e318c7f1713c1ce7f038cec1e338731c73600e8383e3788e8fe3391e8ec3716676cc386ece70708cf1383cce7d1c8787608fe1713cc479381e8ffb1e8ee7017980c17308fb00fc0fff7c40ff6087c370060c8707c7e387ffc1fbfce07918c2e7f0100ec00078fc03ff87e77c900f36e00ffcd10ffe811ffc021edc0153a0000f88633efc77fc9fff7e00ff00c3ffe01f008003e0c003ff813f7e803fc0f11ffcff7bfc01fce198738031002000401e82ffffff4f7df938fec0ffc4a0ff803f00000600ea03f807cefc00fea0fdfffcff1dff0ffc318c9c010000000100a41cfe1fdf7ffcbfdfc7e3793c87e3f1181c2110040018c2e0701cbefbfffdfbe7fbda6bf584c1104218824150445294e638f7ba7dbeb39f7ba6368ae3145a47715c244a89802aa1f258eaf5d4f5d5d5b5d97a553527a95a62a528a9944869982c4d555b2dcf5b559dd6b2967166aaccd4a82c952a55aa346555d56cb55ad5b2eab4aa2a4b9563b1d254555559aa4a555535d5ca725a562d551d2bcba6292b4d555555555556695999a9aaaaaaaa9c66955555cdaacc4ab54c4b4d555555555555555595a5a56aaa522dab6a55956555a6a59966d5346d9a55a5b1aaca2c55556a1a2bb56879aaaab265a95665559a59564d55d594a956d5aad39aa45295542d464b9bae8c2769353d5c5636ad15c7d41c47952fc5964c5555555555555555555555555555555555555555555555555555555555555535005000c45555"
	DPCMSample Name="time" Color="ffe461" Folder="This is a time machine" Data="c70c3ea877f840fc303c1c0f3f1c0fc7730e87c3300eff701e0f83c3f8f3f83080e308f860cce7c3f3e3e161c0e361f887e3f1711c83c1e3f1fb07c303800fc0ff1efff7783c0c30107e78781ec3ef03cc0f86ff039e0180ff01ff83c13f00ff0f00ff0fe0ff00f80780fe03f87798cf00f0ffe3ff008c3f806700802feef10380ff07ff0f00fe81ff3ff07f00fe07007e00c001006cf8fffffffff71f180b0004007e00003eceffffff3f108007e08101803fe7c7ff11feff0ff00300f00f807f00ec3f00ff7ffeff01fe02008011807fc0817cfcff7ffeff03e01f00601b00500000ff1ffcff03ffffc0ff0300f003fe1f00c0ff43ff0700fc3f007c0000ffff01fee3fdff7f40fe03700000800100c00ff0ffffffff3fe37986070000feff03fc0380fd0f000e00fc1f8060d73fc0ff3f00ffffe1ff0300ff1f00380000f803807f00fcfffffdffc0ff0f00400cfe3fc00703c07f00f91f00d0ff612290ffff799c0ff9ff1fc00ff83f00000300003f0080ffc3ffffc7ffff03f80d6230c0ffc03f800310e207300077f8ff07c0ffe7e7fa0fc0ff83def800fe3f00000000f80000ffc7feff7ffeffe7e200b80700f807e0ff0f00f501005b00c0dff6fc3fdcc7bf01f01ff0ff0fe087ff470680010000017004fbffffffffffff8303000c0078e53b7d02f0ff00c00000f807c0fffffdff715bf80ff80f0fc00ff07f00e00300fc03007f00f8ff2fff1ff8ff1f807f00f003e0fc8f410f00000020c0ff00fcffffffbfff3f00fe00c0ff80fe07e07f00e00300fc0080ff00fcffffff3ffc7f00e001003e00f07fe0ff0f801f003c00c03fc0ff3ffcffc1ff2f803f00f03ff01f7e00ff01100000e00080ffc7ffffffff1fff0f000000c00f80ff01ffff630600e00180ffc1fffffdff018f013e00ff007efc03fe07fe01f80f000000008006fcffffffffffffff000000000000e03fff81ff53fdff01f80300fe83ff3f807fe02f08802300fffff3ff00780800f8010040b0fcffffffffffff0f76000000000000f0e1ffdc1fff0ffc8f19dce708ff07781c83601c82701c86efd25ff13ec7e33c044739104c601ce37feff13fff04ff011d80412006b01af087e79d1fdfad0fcf0738a70bf8037dd007c43104f906f91c545555555555555555555555555555555555555555555555adaaaaaaaaaaaaca55555555b6aaaa5a5555abaa5a5ad5caaaaa565555555555555555555555"
	DPCMSample Name="machine" Color="89f2e8" Folder="This is a time machine" Data="1c73b5ce310beb03ed5095c0352c8ef371dc73de96b643ad823682954825aa8bf2a2be51dfd13c7c8778477198aba2d41c25d54a0ce75978575c4b5f622f9a5256918671d078d80bfec57de83ea6191bc648a5486545b3e233ee157e8bbaacaa94ae247551d55455a5c9a81ce5ca78877517cfd3398e720c692432680ccda3f539afcbef45af8506a50a15e510f4945ee95e6a2dcb8de346b44ad6c435e534565355698916eba85e669baeaa1e2b539aa80847984479895ff5577dcf1ecd2925c805e41258459f4cdfac55f5156dc689b2548dacb15ae459c6c5a94a53d5b1b51cbb93ce159f30b24128810fc04ff017ff67fd7a9d66e803f0800bd01f988eda03fec37ee016e9239935136d354de935948a8d515c57abec4bfc477bc50af003801e04206f51fdcfbeffe47f3a016e015015a8862fc03f1bf13f700f55690f696d24f54557de85d04ae4117c059f39fa0ffec107f8034cf001f0010efe87ffffe0ffc1152d002a01f8027ea16fea1ff53a515a4a4d665559d525b7c6253c91d8027ccc1ff8d53abfb49ec0f400700006fd01fff81ffff01fff800b384015e0035cf503fff1427fe0294de896b2e616f5431fd5036ec00bf0013fbc05fff0977ee0075ca005fc001ff057edd3f28b67ce051e013f080f0ff107786b07fc037ff00ff8803ff8c17fe007f8010ff0003fe0837fe0877ff0077fe0073e78181ec4077fc007fec00f7fe00ffcc003fc61031f847f380f3ff8077ce08739fc03c7f0f070e0f1e043f0e1f0e00ffc011ff8c37ff0033ef8017fe0071ec5137ee0071e73e4f0e07cf0301efc817ff0613e820fff011ffc013ff0017ce00fe3813fe0871ff00f7ce01ff8187ce01f7ec01ff0817ff0013ff0021ee00f788c1ffe8007fce0ef217fc89167dc01cf78f830783807eff007cee1013fc6e3033ee007fcc00ffc031ff8031ff0c13ff8838fe3c3313c868f31478e717c38e2477c08e7f0390fce033fd8037fe01dfec079f00c7fc007ce8307e00ffe801ffc013fd8077ec00ff8e00f7ec01ff8830fd8033ff0051f87fe011ef0e18fe03fe00387e7e118c7f1c1f9c178e003fe803ff8867bf8801ff8801ffc011ff0033ff007fec107f8037ff0087ce00ffe701c1fe0811fc3073ef803fec0073ec41ffce01dfe8107fc831ff0013ff0077ec007fce187f3c01fe0073ef8077ec01ff8033ff0017fc007fc811ff0817ff007fcc007f3810ff8000ffc07fe813ff0017fe011fec13ff007f1e0f007fc61787c901ff8e11cf0e111cec303fec01fe00f7c78713cf2f0013ee6033ff007fec00f7ce00ff8813ff0381ef8037ef0077ee003fec00ff8c03ff8019f7844fc838f037fc00ff0831f7ec017f0c11ff8033fe0837fe007fc803ff0811ff8013fe0077ee00f7ee00ff8c03ff083cfe007fce0c3f8e007fc811ff8017fe003fec00ffc811ff003faf064c738f001fe817ff003fec01fe0073f061e7a0d3ee007fec03ff4834fd0811fdc801ff801fee0ed1cf801fee00ff8c11ff0073ec10fc51de8013fe09ff8037fc07ff0033ee007f8017e000fc37fe03ff00ffcc1ffc01ff8013ee0035ce0033ce007fef873fc07fec12ff0013e50037e801ff031dda3fff007fc001ff0077ec007f8007fe00ffee10f7cc01ff8077fc00f7880077dc003fc5067f8f8c53ff08ffee01ee086980f7441bca09d4bf7803fc01ff8035ec0b7823d197e517fc887dfc00ff002fec09fd00b357c037e800ff017f00bfee01ffea31f9c034f70080698835ef027fef93ffc03fe80055178800ff003ffb01ffec11ff8033e30c5037fe00ff8837fc00ff003e421dc0c8d27ff15ffd80bf9d6b005f0023c600f7be7d479f007f4013ff0000ff001ffc5ffe03ff809bff0015470555656a40ff8817e3017073fc03ff817df8de307fc003f402724da800ff887fe38f293fe817f800ff299280f8a0ff01fe007fc803ff8f0117fe00ffd810feac151553107675c5fd811fe003fe113ec40da1df00ffcc37ff8d30a3ec00f5804035fe81f7c49833fe00ffc42ac15fc837ff0135ff08a72110f619738ceb13df01bf4c11ee892137cc027f8833df2d2c5fce10fbcb007fe409770c6619ae011d6d8c327ec236fc76be18a3af415b4451b7155692596277aa95912e73857d6185795673847972827ce55e91bd4523d6b0b63435591c31ec58871ded17dcc5a54afc50f93524e96d21ca5153c0bbd8de09d3bc0f79650f70408ff27c401fe293fe01fe0c9fcf70080ff0f803fd005fc017f88e94f71c13fd4f40f78503f0275dc06673502fe8dea500ff1950f1f104bff8f01705ec5f81e049eaf05dd311ed703dc07d1f055687c8603ffe340e47d1cef0910f3573c42555555555555555555555555555555adaaaaaaaaaaaaaaaaaaaaaaaaaaaaaaaaaaaaaaaaaaaaaaaaaa555555a555555555555555555555555555555555"
	DPCMSample Name="fdkick" Color="3ce8fd" Data="d5ffffff8b000000000000ffffffffff3f000000000040ffffffffffff23000000000000bdffffffffffff9500010000000080da7dffffffffffbf554910000000000012a5b5bdffeffffffff7b6552511020400000210244a556d77dffffdfb7f7f77b75695120921200021804088484a55b5b6bbf77e7ff7f7fbeeedda5a55292512218420902008212492a45455b5b66d7b7befbd77efbdbbbb6d5bab55954a49892422428448448810892452924a5555b5d6dab6dbeef6ee6ebbbbbbdd6edbd656ab5555a9524a4992449288442489482412499224a5942a555555abd6dadada6edb76dbddd66ebbedb66ddbda5a6bb56a5555a52a95524a4992922492244954249124499292a494544aa54a555555d5aad55aadadad6d6ddbb66ddb56b7b66ddbb6b6b5b5d65aad56ab6a555555aa4a954a29a5949292929424294952495292a42425252595544aa554a92a55555555d5aa5aad56adb5d65a6b6b6d6b6b5bdb566d6b6b5b5b5b5b6badb556abd56a55adaa6a5555aaaa4a95aa522a954a299594524a4929292925554a4a4a2929a594524aa5542a55aa54a5aa4c5555555555d3aa56b56ad55ab5566bb5d65a6badadb5d656adb5d6da5a6bb5d65aad56ad55ab5a55adaaaaaaaaaaaaaa5455aa52a552a552a994522995524a29955295544aa99452a9544a954a95aa54a5aa5455555555555555d5aa5a55ab5ab56aad5aad56abb55aadd66a55add56ab556ab56ad56ad5ad5aa6a5555abaaaaaaaaaaaa525555aa4a55a952a54a952a554a954a954a55a952a952a54aa94a55aa5255aa4a5555a5aaaaaaaaaaaa5a5555abaa55d5aa5ad5aa56ab56b56ad5aa5555ab56b5aa55ab66d5aa5a55b5aaaa5a555555555555555555aaaaaa5455a9aa54992a55a52a55a94a5555a94a55a94a55a5aa5295aaaa5255555555aaaaaaaaaa55555555b5aaaa5655b5aa55d5aa6a55b555"
	DPCMSample Name="snare" Color="6c7bdb" Data="190000d0ccffc7fff8f1ffc30f63008701000054555555e5f8ffffffffff55555599030c00040000405565cd0ffffff3ffe7ff9e29dc19028ce1c3380000180718301f3e3ef0e33ff7fef3ff1f1ec618814038fc3000c4633c3c381c90e731fff3cfffff873b03308ec320000c00201e779ce7f18ffffb6f38ff39fc0301077e870130008079f03c38389e879fffff3fcf71dce10e306008c3812138c0110f8f0fe71fffcff1e31fe73c0c87038ec303c281e3388e380e3cc7e1797e7cbec3317e1ce3383c86e3f0c0e10160c01c0acf71fc3d8fcf9fc7f3f9ff0cc3210c7018063886c108e388f1e7fff3ff710eff0f870f863138803184031838c7c1391e6f9ef3cfe3fdfdc33b0ce0e0c0606030180ecef118cfcfe7e3e1f173f823dce1707878e087e318630e8207c2f1c0e338c6f9bce73cfff8ffe00c630c43e0707018008671789ec71f9f77fe9f638e71f486037c00e17038c681235c7c1ce7c773cf792e9e671e8f210e231cc3f0e1f0183be0896387cff063cef10fffe38e633c8c310c018e106398791c0f0fefc0e3ff1cfff87c1e0e70c001e31886371cf8e1e1f1f8cf718c3978381e8f618e71ccd3e111f6187b301cc711f84defc3c7879be30e397080318c79bc0f4fc107f718fe60559017fc399ec3710fe7387c18e7807d8c230e81c7f1709ef8e1e570fec4e7c2410e150f3e816f88c38bc7c73316d5c339cec381671ef87c8cc3f1301ce2110f87f1f8f89e0f1fc6d9610e0ec361388c790fefc893e7e138c778b0e2f0549ee1380c0fc771c33d06ef38e31e1e9ff19072c48615c6c32b34548cc7cf3b7d8c198fcde3c6710e78180dc3397c181e8ee3e19ee3d983ce18ce918ff3621d8c437cd01e3c1c1c9ac1eb613fdc51f3303de7b34ec1c110d3303c9e54c70e0f8ef38ee75a7818c7e1d1311d0f65a538e17157554b8d93564c5debf0628c69556745cfe150a5e1181e87c7715c793cd3adc12b47391e9ca7f8101d9562598c33f83c8e8dc375d5571f8d332c144e258ee22cac351c6f69795577791c96d12c965235ca618763d4b0a52f5e475955ab9ce5c5e270e21866d4f1acc38dc5156b4dcbe568d4d21a730e67340d0d8f7168d58d875b78b55c9bb36a8c835216574597aa12ab4a5f9c35553556d5589dc35345d561699c269ec5a56565956a55d6547561956a95cb741a3bd471549515875be2c1a6f16ca5654d735117572a75b47296a52a4d85c7521ca76ae9b456d93c5a8bab1c1d8d4555318c2baa6d797835554bf5d05a555665c94655a5b2d84a5b543956aea655c7b4aa52d554d5ccd2165565599655d55456b115d529279d56553555cdb46a2c4b535555556555d5549aa69955a9662aab695556552dcb96aa524b5555d594aa548bad745559d3545555554dad2a4d555559a55555555555aa9555595a55555555555555d352d3545555556555a9aa55"
	Instrument Name="02 but tri" Color="3ec4ff"
		Envelope Type="Volume" Length="19" Values="4,4,4,5,5,5,6,6,6,0,5,5,5,5,4,4,4,4,0"
	Instrument Name="blank" Color="ffafaf"
		Envelope Type="Volume" Length="6" Loop="0" Release="1" Values="15,10,6,4,2,0"
	Instrument Name="blank instant decay" Color="ffff8b"
		Envelope Type="Volume" Length="9" Values="15,15,11,8,5,3,2,1,0"
	Instrument Name="blank slower string" Color="d1b1ff"
		Envelope Type="Volume" Length="29" Loop="11" Release="12" Values="2,3,4,5,6,6,7,7,7,7,7,6,6,6,5,5,5,4,4,4,3,3,3,2,2,2,1,1,0"
	Instrument Name="blank string" Color="6471cf"
		Envelope Type="Volume" Length="29" Loop="11" Release="12" Values="5,6,7,7,7,7,7,7,7,7,7,6,6,6,5,5,5,4,4,4,3,3,3,2,2,2,1,1,0"
	Instrument Name="clap" Color="ffc6a1"
		Envelope Type="Volume" Length="12" Values="15,10,12,10,9,8,6,5,4,2,1,0"
		Envelope Type="Arpeggio" Length="3" Values="-4,1,0"
	Instrument Name="clutterfunk sax" Color="ff579c"
		Envelope Type="Volume" Length="7" Loop="1" Release="2" Values="14,15,12,8,5,2,0"
	Instrument Name="cymbal" Color="a2f7a6"
		Envelope Type="Volume" Length="32" Loop="24" Release="25" Values="15,14,13,12,11,10,9,8,8,7,7,6,6,6,5,5,4,4,4,3,3,3,3,2,2,2,2,1,1,1,1,0"
		Envelope Type="Arpeggio" Length="2" Values="-3,0"
		Envelope Type="DutyCycle" Length="2" Values="1,0"
	Instrument Name="death moon lead" Color="5dd2ff"
		Envelope Type="Volume" Length="9" Values="15,10,9,8,7,6,6,5,5"
		Envelope Type="DutyCycle" Length="1" Values="1"
	Instrument Name="death moon lead 2" Color="e783f8"
		Envelope Type="Volume" Length="3" Values="15,10,8"
		Envelope Type="Pitch" Length="8" Values="0,4,1,-1,-2,-3,-2,-1"
	Instrument Name="DMC: drums + bass" Color="98a7fc"
		DPCMMapping Note="F2" Sample="fdbass C" Pitch="3" Loop="False"
		DPCMMapping Note="G2" Sample="fdbass C" Pitch="4" Loop="False"
		DPCMMapping Note="A2" Sample="fdbass C" Pitch="5" Loop="False"
		DPCMMapping Note="A#2" Sample="fdbass C#" Pitch="5" Loop="False"
		DPCMMapping Note="B2" Sample="fdbass C" Pitch="6" Loop="False"
		DPCMMapping Note="C3" Sample="fdbass C" Pitch="7" Loop="False"
		DPCMMapping Note="C#3" Sample="fdbass C#" Pitch="7" Loop="False"
		DPCMMapping Note="D3" Sample="fdbass D" Pitch="7" Loop="False"
		DPCMMapping Note="D#3" Sample="fdbass C#" Pitch="8" Loop="False"
		DPCMMapping Note="E3" Sample="fdbass D" Pitch="8" Loop="False"
		DPCMMapping Note="F3" Sample="fdbass C" Pitch="9" Loop="False"
		DPCMMapping Note="F#3" Sample="fdbass C#" Pitch="9" Loop="False"
		DPCMMapping Note="G3" Sample="fdbass C" Pitch="10" Loop="False"
		DPCMMapping Note="G#3" Sample="fdbass C#" Pitch="10" Loop="False"
		DPCMMapping Note="A3" Sample="fdbass D" Pitch="10" Loop="False"
		DPCMMapping Note="A#3" Sample="fdbass C#" Pitch="11" Loop="False"
		DPCMMapping Note="B3" Sample="fdbass D" Pitch="11" Loop="False"
		DPCMMapping Note="C4" Sample="fdbass C" Pitch="12" Loop="False"
		DPCMMapping Note="C#4" Sample="fdbass C#" Pitch="12" Loop="False"
		DPCMMapping Note="D4" Sample="fdbass D" Pitch="12" Loop="False"
		DPCMMapping Note="D#4" Sample="fdbass B" Pitch="13" Loop="False"
		DPCMMapping Note="E4" Sample="fdbass C" Pitch="13" Loop="False"
		DPCMMapping Note="F4" Sample="fdbass C#" Pitch="13" Loop="False"
		DPCMMapping Note="F#4" Sample="fdbass D" Pitch="13" Loop="False"
		DPCMMapping Note="G4" Sample="fdbass C" Pitch="14" Loop="False"
		DPCMMapping Note="G#4" Sample="fdbass C#" Pitch="14" Loop="False"
		DPCMMapping Note="A4" Sample="fdbass D" Pitch="14" Loop="False"
		DPCMMapping Note="A#4" Sample="fdbass A#" Pitch="15" Loop="False"
		DPCMMapping Note="B4" Sample="fdbass B" Pitch="15" Loop="False"
		DPCMMapping Note="C5" Sample="fdbass C" Pitch="15" Loop="False"
		DPCMMapping Note="C#5" Sample="fdbass C#" Pitch="15" Loop="False"
		DPCMMapping Note="D5" Sample="fdbass D" Pitch="15" Loop="False"
		DPCMMapping Note="E5" Sample="fdkick" Pitch="14" Loop="False"
		DPCMMapping Note="F5" Sample="snare" Pitch="15" Loop="False"
		DPCMMapping Note="F#5" Sample="this" Pitch="15" Loop="False"
		DPCMMapping Note="G5" Sample="is a" Pitch="15" Loop="False"
		DPCMMapping Note="G#5" Sample="time" Pitch="15" Loop="False"
		DPCMMapping Note="A5" Sample="machine" Pitch="15" Loop="False"
		DPCMMapping Note="C6" Sample="OrchHitF.dmc" Pitch="0" Loop="False"
		DPCMMapping Note="D6" Sample="OrchHitF.dmc" Pitch="1" Loop="False"
		DPCMMapping Note="E6" Sample="OrchHitF.dmc" Pitch="2" Loop="False"
		DPCMMapping Note="F6" Sample="OrchHitF.dmc" Pitch="3" Loop="False"
		DPCMMapping Note="G6" Sample="OrchHitF.dmc" Pitch="4" Loop="False"
		DPCMMapping Note="A6" Sample="OrchHitF.dmc" Pitch="5" Loop="False"
		DPCMMapping Note="B6" Sample="OrchHitF.dmc" Pitch="6" Loop="False"
		DPCMMapping Note="C7" Sample="OrchHitF.dmc" Pitch="7" Loop="False"
		DPCMMapping Note="D7" Sample="OrchHitF.dmc" Pitch="8" Loop="False"
		DPCMMapping Note="A7" Sample="OrchHitF.dmc" Pitch="11" Loop="False"
		DPCMMapping Note="G7" Sample="OrchHitF.dmc" Pitch="10" Loop="False"
		DPCMMapping Note="F7" Sample="OrchHitF.dmc" Pitch="9" Loop="False"
		DPCMMapping Note="E7" Sample="OrchHitF#.dmc" Pitch="13" Loop="False"
	Instrument Name="DMC: orchestra hits" Color="fcff6f"
		DPCMMapping Note="E3" Sample="OrchHitG.dmc" Pitch="11" Loop="False"
		DPCMMapping Note="F3" Sample="OrchHitG#.dmc" Pitch="11" Loop="False"
		DPCMMapping Note="F#3" Sample="OrchHitA.dmc" Pitch="11" Loop="False"
		DPCMMapping Note="G3" Sample="OrchHitG.dmc" Pitch="12" Loop="False"
		DPCMMapping Note="G#3" Sample="OrchHitG#.dmc" Pitch="12" Loop="False"
		DPCMMapping Note="A3" Sample="OrchHitA.dmc" Pitch="12" Loop="False"
		DPCMMapping Note="A#3" Sample="OrchHitF#.dmc" Pitch="13" Loop="False"
		DPCMMapping Note="B3" Sample="OrchHitG.dmc" Pitch="13" Loop="False"
		DPCMMapping Note="C4" Sample="OrchHitG#.dmc" Pitch="13" Loop="False"
		DPCMMapping Note="C#4" Sample="OrchHitA.dmc" Pitch="13" Loop="False"
		DPCMMapping Note="D4" Sample="OrchHitG.dmc" Pitch="14" Loop="False"
		DPCMMapping Note="D#4" Sample="OrchHitG#.dmc" Pitch="14" Loop="False"
		DPCMMapping Note="E4" Sample="OrchHitA.dmc" Pitch="14" Loop="False"
		DPCMMapping Note="F4" Sample="OrchHitF.dmc" Pitch="15" Loop="False"
		DPCMMapping Note="F#4" Sample="OrchHitF#.dmc" Pitch="15" Loop="False"
		DPCMMapping Note="G4" Sample="OrchHitG.dmc" Pitch="15" Loop="False"
		DPCMMapping Note="G#4" Sample="OrchHitG#.dmc" Pitch="15" Loop="False"
		DPCMMapping Note="A4" Sample="OrchHitA.dmc" Pitch="15" Loop="False"
		DPCMMapping Note="G2" Sample="OrchHitG.dmc" Pitch="7" Loop="False"
		DPCMMapping Note="G#2" Sample="OrchHitG#.dmc" Pitch="7" Loop="False"
		DPCMMapping Note="A2" Sample="OrchHitG.dmc" Pitch="8" Loop="False"
		DPCMMapping Note="A#2" Sample="OrchHitG#.dmc" Pitch="8" Loop="False"
		DPCMMapping Note="B2" Sample="OrchHitA.dmc" Pitch="8" Loop="False"
		DPCMMapping Note="C3" Sample="OrchHitG.dmc" Pitch="9" Loop="False"
		DPCMMapping Note="D3" Sample="OrchHitG.dmc" Pitch="10" Loop="False"
		DPCMMapping Note="C#3" Sample="OrchHitG#.dmc" Pitch="9" Loop="False"
		DPCMMapping Note="D#3" Sample="OrchHitG#.dmc" Pitch="10" Loop="False"
	Instrument Name="echo" Color="3cb5a7"
		Envelope Type="Volume" Length="19" Values="11,7,5,4,3,2,2,1,1,0,5,4,3,3,2,2,1,1,0"
	Instrument Name="electroman lead" Color="3cd3e3"
		Envelope Type="Volume" Length="6" Loop="0" Release="1" Values="15,10,6,4,2,0"
		Envelope Type="DutyCycle" Length="9" Loop="1" Values="2,1,1,1,1,0,0,0,0"
	Instrument Name="endgame lead" Color="ca60e6"
		Envelope Type="Volume" Length="6" Values="15,13,11,7,7,10"
		Envelope Type="DutyCycle" Length="3" Loop="0" Values="2,2,0"
	Instrument Name="hat" Color="ffffb1"
		Envelope Type="Volume" Length="4" Values="8,4,2,0"
		Envelope Type="Arpeggio" Length="2" Values="-3,0"
		Envelope Type="DutyCycle" Length="2" Loop="0" Values="0,1"
	Instrument Name="hex guitar 1" Color="fff389"
		Envelope Type="DutyCycle" Length="6" Loop="2" Values="3,2,1,2,2,1"
	Instrument Name="hex guitar 2" Color="d8ffa1"
		Envelope Type="DutyCycle" Length="4" Loop="3" Values="3,2,1,3"
	Instrument Name="Instrument 1" Color="ff5a9f"
		Envelope Type="Volume" Length="16" Values="3,6,5,5,4,4,3,3,3,2,2,2,1,1,1,0"
	Instrument Name="Instrument 2" Color="ffd43c"
		Envelope Type="Volume" Length="16" Values="8,6,5,5,4,4,3,3,3,2,2,2,1,1,1,0"
	Instrument Name="Instrument 3" Color="ca60e6"
		Envelope Type="Volume" Length="11" Values="10,15,15,15,14,13,12,10,8,6,3"
		Envelope Type="Arpeggio" Length="2" Values="-12,0"
		Envelope Type="DutyCycle" Length="4" Loop="2" Values="2,1,0,1"
	Instrument Name="jaezu lead" Color="ff8d5a"
		Envelope Type="Volume" Length="35" Loop="15" Release="16" Values="6,8,10,12,12,12,12,11,11,11,11,10,10,10,10,9,8,7,7,6,6,5,5,4,4,3,3,3,2,2,2,1,1,1,0"
		Envelope Type="Pitch" Length="20" Loop="8" Values="0,0,0,0,0,0,0,0,0,1,2,3,2,1,0,-1,-2,-3,-2,-1"
	Instrument Name="kick" Color="a657d6"
		Envelope Type="Volume" Length="6" Values="13,9,5,2,1,0"
		Envelope Type="Arpeggio" Length="2" Values="9,15"
	Instrument Name="lots of clap" Color="f6a4ff"
		Envelope Type="Volume" Length="3" Loop="0" Values="15,13,11"
		Envelope Type="Arpeggio" Length="3" Loop="0" Values="-4,1,0"
	Instrument Name="loud blank string" Color="ff9ece"
		Envelope Type="Volume" Length="29" Loop="11" Release="12" Values="6,8,10,11,12,12,12,12,12,12,11,11,10,10,9,9,8,8,7,7,6,6,5,5,4,3,2,1,0"
	Instrument Name="menu acc" Color="5dd2ff"
		Envelope Type="Volume" Length="28" Values="8,8,7,6,6,5,5,4,4,3,3,3,2,2,2,2,2,2,2,1,1,1,1,1,1,1,1,0"
	Instrument Name="octave arp" Color="b59184"
		Envelope Type="Volume" Length="3" Values="9,7,5"
		Envelope Type="Arpeggio" Length="4" Loop="0" Values="0,0,12,12"
		Envelope Type="DutyCycle" Length="1" Values="2"
	Instrument Name="octave arp [ no duty ]" Color="b59184"
		Envelope Type="Volume" Length="3" Values="9,7,5"
		Envelope Type="Arpeggio" Length="4" Loop="0" Values="0,0,12,12"
	Instrument Name="octave jumping echo" Color="74ca78"
		Envelope Type="Volume" Length="19" Values="11,7,5,4,3,2,2,1,1,0,2,2,1,1,1,1,1,1,0"
		Envelope Type="Arpeggio" Length="4" Loop="0" Values="-12,0,12,24"
	Instrument Name="polargeist bass" Color="7b8df1"
		Envelope Type="Volume" Length="6" Values="15,13,11,7,7,10"
		Envelope Type="DutyCycle" Length="4" Values="3,2,2,1"
	Instrument Name="polargeist tri pluck" Color="ffa83c"
		Envelope Type="Volume" Length="6" Values="15,0,0,0,15,0"
	Instrument Name="quiet bass" Color="b8ef7e"
		Envelope Type="Volume" Length="3" Values="9,7,5"
	Instrument Name="rel hats" Color="62ffff"
		Envelope Type="Volume" Length="16" Values="8,6,5,5,4,4,3,3,3,2,2,2,1,1,1,0"
		Envelope Type="Arpeggio" Length="2" Values="-3,0"
	Instrument Name="sample" Color="bdffc0"
		Envelope Type="Volume" Length="8" Values="9,8,7,6,6,5,5,4"
		Envelope Type="DutyCycle" Length="1" Values="2"
	Instrument Name="shift string" Color="a4db74"
		Envelope Type="Volume" Length="38" Loop="11" Release="12" Values="4,5,6,6,6,6,6,6,6,6,6,5,5,5,5,5,5,4,4,4,4,4,4,4,4,3,3,3,3,3,3,2,2,2,1,1,1,0"
		Envelope Type="DutyCycle" Length="4" Loop="0" Values="1,2,1,0"
	Instrument Name="shift string lite" Color="3eb3f9"
		Envelope Type="Volume" Length="41" Loop="11" Release="12" Values="5,6,7,7,7,7,7,7,7,7,7,6,6,6,6,6,6,5,5,5,5,5,5,5,5,4,4,4,4,4,4,3,3,3,2,2,2,1,1,1,0"
		Envelope Type="DutyCycle" Length="5" Loop="0" Values="1,0,0,1,0"
	Instrument Name="snare" Color="ff7f51"
		Envelope Type="Volume" Length="11" Values="13,11,8,6,5,4,3,2,1,1,0"
		Envelope Type="Arpeggio" Length="2" Values="6,12"
		Envelope Type="DutyCycle" Length="2" Values="1,0"
	Instrument Name="stepdown" Color="3fe5ff"
		Envelope Type="Arpeggio" Length="3" Values="24,12,0"
	Instrument Name="tight noise kick layer" Color="62e2d6"
		Envelope Type="Volume" Length="4" Values="15,0,1,0"
	Instrument Name="tight triangle kick" Color="8163dc"
		Envelope Type="Volume" Length="5" Values="15,15,15,15,0"
		Envelope Type="Arpeggio" Length="4" Values="26,16,14,4"
	Instrument Name="tight triangle snare" Color="8a706a"
		Envelope Type="Volume" Length="5" Values="15,15,15,15,0"
		Envelope Type="Arpeggio" Length="4" Values="35,34,33,32"
	Instrument Name="tom" Color="51a1fc"
		Envelope Type="Pitch" Length="2" Loop="1" Relative="True" Values="0,21"
	Instrument Name="triangle drums" Color="a376f3"
		Envelope Type="Volume" Length="8" Values="9,8,7,6,6,5,5,4"
		Envelope Type="Pitch" Length="2" Loop="1" Relative="True" Values="-1,49"
	Instrument Name="triangle pluck" Color="ffff71"
		Envelope Type="Volume" Length="2" Values="15,0"
	Instrument Name="triangle pluck 2" Color="6ab96e"
		Envelope Type="Volume" Length="3" Values="15,15,0"
	Instrument Name="triangle pluck 3" Color="ffa83c"
		Envelope Type="Volume" Length="4" Values="15,15,15,0"
	Instrument Name="triangle pluck 4" Color="3cb5a7"
		Envelope Type="Volume" Length="5" Values="15,15,15,15,0"
	Instrument Name="xstep wub" Color="ffffb2"
		Envelope Type="Volume" Length="7" Values="3,7,8,8,10,8,0"
		Envelope Type="DutyCycle" Length="3" Values="1,2,3"
	Arpeggio Name="Arp 0C" Color="3cb5a7" Length="3" Loop="0" Values="0,0,12"
	Arpeggio Name="Arp 03" Color="88eb8c" Length="3" Loop="0" Values="0,0,3"
	Arpeggio Name="Arp 3C" Color="a657d6" Length="3" Loop="0" Values="0,3,12"
	Arpeggio Name="Arp 4C" Color="ffff94" Length="3" Loop="0" Values="0,4,12"
	Arpeggio Name="Arp 5F" Color="ddc4bb" Length="3" Loop="0" Values="0,5,15"
	Arpeggio Name="Arp 05" Color="ff8f8c" Length="3" Loop="0" Values="0,0,5"
	Arpeggio Name="Arp 5A" Color="d1b1ff" Length="3" Loop="0" Values="0,5,10"
	Arpeggio Name="Arp 5C" Color="3cd2c4" Length="3" Loop="0" Values="0,5,12"
	Arpeggio Name="Arp 06" Color="ffdc3c" Length="3" Loop="0" Values="0,0,6"
	Arpeggio Name="Arp 07" Color="b5c2ff" Length="3" Loop="0" Values="0,0,7"
	Arpeggio Name="Arp 7A" Color="3cbfcb" Length="3" Loop="0" Values="0,7,10"
	Arpeggio Name="Arp 7C" Color="ebf067" Length="3" Loop="0" Values="0,7,12"
	Arpeggio Name="Arp 8C" Color="ff935e" Length="3" Loop="0" Values="0,8,12"
	Arpeggio Name="Arp 11" Color="ff6b6b" Length="3" Loop="0" Values="0,1,1"
	Arpeggio Name="Arp 30" Color="ffcb3c" Length="3" Loop="0" Values="0,3,0"
	Arpeggio Name="Arp 33" Color="fffc69" Length="3" Loop="0" Values="0,3,3"
	Arpeggio Name="Arp 37" Color="ffafaf" Length="3" Loop="0" Values="0,3,7"
	Arpeggio Name="Arp 38" Color="ffff8b" Length="3" Loop="0" Values="0,3,8"
	Arpeggio Name="Arp 39" Color="65f2ff" Length="3" Loop="0" Values="0,3,9"
	Arpeggio Name="Arp 40" Color="ffa83c" Length="3" Loop="0" Values="0,4,0"
	Arpeggio Name="Arp 44" Color="7585e7" Length="3" Loop="0" Values="0,4,4"
	Arpeggio Name="Arp 47" Color="a2f7a6" Length="3" Loop="0" Values="0,4,7"
	Arpeggio Name="Arp 49" Color="d863ec" Length="3" Loop="0" Values="0,4,9"
	Arpeggio Name="Arp 50" Color="65f2ff" Length="3" Loop="0" Values="0,5,0"
	Arpeggio Name="Arp 53" Color="3ca598" Length="3" Loop="0" Values="0,5,3"
	Arpeggio Name="Arp 55" Color="ff6464" Length="3" Loop="0" Values="0,5,5"
	Arpeggio Name="Arp 58" Color="eaffbd" Length="3" Loop="0" Values="0,5,8"
	Arpeggio Name="Arp 59" Color="5dd2ff" Length="3" Loop="0" Values="0,5,9"
	Arpeggio Name="Arp 70" Color="e95093" Length="3" Loop="0" Values="0,7,0"
	Arpeggio Name="Arp C0" Color="a9887d" Length="3" Loop="0" Values="0,12,0"
	Arpeggio Name="Arp CC" Color="6471cf" Length="3" Loop="0" Values="0,12,12"
	Song Name="custom.death_moon" Color="9a71ed" Folder="Crafty's Songs" Length="128" LoopPoint="0" PatternLength="16" BeatLength="4" FamiTrackerTempo="160" FamiTrackerSpeed="6"
		PatternCustomSettings Time="37" Length="22"
		Channel Type="Square1"
			Pattern Name="1" Color="ff579c"
				Note Time="0" Value="A#3" Duration="2" Instrument="death moon lead"
				Note Time="2" Value="C#4" Duration="2" Instrument="death moon lead"
				Note Time="4" Value="F4" Duration="2" Instrument="death moon lead"
				Note Time="6" Value="E4" Duration="10" Instrument="death moon lead"
			Pattern Name="2" Color="ffc83c"
				Note Time="0" Value="F4" Duration="4" Instrument="death moon lead"
				Note Time="4" Value="C#4" Duration="4" Instrument="death moon lead"
				Note Time="8" Value="C4" Duration="4" Instrument="death moon lead"
				Note Time="12" Value="C#4" Duration="4" Instrument="death moon lead"
			Pattern Name="3" Color="5dd2ff"
				Note Time="0" Value="F4" Duration="4" Instrument="death moon lead"
				Note Time="4" Value="C#4" Duration="4" Instrument="death moon lead"
				Note Time="8" Value="C4" Duration="4" Instrument="death moon lead"
				Note Time="12" Value="A#3" Duration="4" Instrument="death moon lead"
			Pattern Name="4" Color="5dd2ff"
				Note Time="0" Value="F4" Duration="4" Instrument="death moon lead"
				Note Time="4" Value="C#4" Duration="4" Instrument="death moon lead"
				Note Time="8" Value="C4" Duration="4" Instrument="death moon lead"
				Note Time="12" Value="F4" Duration="4" Instrument="death moon lead"
			Pattern Name="5" Color="9a71ed"
				Note Time="0" Value="C#4" Duration="6" Instrument="death moon lead"
				Note Time="6" Value="C#4" Duration="2" Instrument="death moon lead"
				Note Time="8" Value="G#4" Duration="6" Instrument="death moon lead"
				Note Time="14" Value="G#4" Duration="2" Instrument="death moon lead"
			Pattern Name="6" Color="a9887d"
				Note Time="0" Value="F#4" Duration="6" Instrument="death moon lead"
				Note Time="6" Value="F#4" Duration="2" Instrument="death moon lead"
				Note Time="8" Value="B4" Duration="6" Instrument="death moon lead"
				Note Time="14" Value="B4" Duration="2" Instrument="death moon lead"
			Pattern Name="7" Color="8d69e4"
				Note Time="0" Value="A4" Duration="6" Instrument="death moon lead"
				Note Time="6" Value="A4" Duration="2" Instrument="death moon lead"
				Note Time="8" Value="G#4" Duration="6" Instrument="death moon lead"
				Note Time="14" Value="D#4" Duration="2" Instrument="death moon lead"
			Pattern Name="8" Color="997c73"
				Note Time="0" Value="G#4" Duration="6" Instrument="death moon lead"
				Note Time="6" Value="G#4" Duration="2" Instrument="death moon lead"
				Note Time="8" Value="G#4" Duration="8" Instrument="death moon lead"
			Pattern Name="9" Color="ffa83c"
				Note Time="0" Value="C#4" Duration="4" Instrument="death moon lead"
				Note Time="2" Value="C4" Duration="2" Instrument="death moon lead"
				Note Time="4" Value="C#4" Duration="2" Instrument="death moon lead"
				Note Time="6" Value="G#4" Duration="2" Instrument="death moon lead"
				Note Time="10" Value="C#4" Duration="2" Instrument="death moon lead"
				Note Time="12" Value="E4" Duration="2" Instrument="death moon lead"
				Note Time="14" Value="G#4" Duration="2" Instrument="death moon lead"
			Pattern Name="10" Color="5dd2ff"
				Note Time="0" Value="C#4" Duration="2" Instrument="death moon lead"
				Note Time="2" Value="B3" Duration="2" Instrument="death moon lead"
				Note Time="4" Value="C#4" Duration="2" Instrument="death moon lead"
				Note Time="6" Value="B4" Duration="2" Instrument="death moon lead"
				Note Time="10" Value="D#4" Duration="2" Instrument="death moon lead"
				Note Time="12" Value="G#4" Duration="2" Instrument="death moon lead"
				Note Time="14" Value="B4" Duration="2" Instrument="death moon lead"
			Pattern Name="11" Color="ffff64"
				Note Time="0" Value="E4" Duration="2" Instrument="death moon lead"
				Note Time="2" Value="C#4" Duration="2" Instrument="death moon lead"
				Note Time="4" Value="E4" Duration="2" Instrument="death moon lead"
				Note Time="6" Value="A4" Duration="2" Instrument="death moon lead"
				Note Time="10" Value="D4" Duration="2" Instrument="death moon lead"
				Note Time="12" Value="F#4" Duration="2" Instrument="death moon lead"
				Note Time="14" Value="A4" Duration="2" Instrument="death moon lead"
			Pattern Name="12" Color="997c73"
				Note Time="0" Value="G#4" Duration="2" Instrument="death moon lead"
				Note Time="2" Value="D#4" Duration="2" Instrument="death moon lead"
				Note Time="4" Value="C#4" Duration="2" Instrument="death moon lead"
				Note Time="6" Value="G#4" Duration="2" Instrument="death moon lead"
				Note Time="8" Value="D#4" Duration="2" Instrument="death moon lead"
				Note Time="10" Value="C#4" Duration="2" Instrument="death moon lead"
				Note Time="12" Value="D#4" Duration="2" Instrument="death moon lead"
				Note Time="14" Value="G#4" Duration="2" Instrument="death moon lead"
			Pattern Name="13" Color="3ca598"
				Note Time="0" FinePitch="0"
				Note Time="2" Value="C#5" Duration="4" Instrument="death moon lead 2"
				Note Time="6" Value="G#4" Duration="4" Instrument="death moon lead 2"
				Note Time="10" Value="F#4" Duration="4" Instrument="death moon lead 2"
				Note Time="14" Value="E4" Duration="4" Instrument="death moon lead 2"
			Pattern Name="14" Color="91c76b"
				Note Time="2" Value="B4" Duration="4" Instrument="death moon lead 2"
				Note Time="6" Value="A4" Duration="4" Instrument="death moon lead 2"
				Note Time="10" Value="G#4" Duration="4" Instrument="death moon lead 2"
				Note Time="14" Value="F#4" Duration="4" Instrument="death moon lead 2"
			Pattern Name="15" Color="8d69e4"
				Note Time="2" Value="A4" Duration="4" Instrument="death moon lead 2"
				Note Time="6" Value="G#4" Duration="4" Instrument="death moon lead 2"
				Note Time="10" Value="F4" Duration="4" Instrument="death moon lead 2"
				Note Time="14" Value="F#4" Duration="4" Instrument="death moon lead 2"
			Pattern Name="16" Color="98a7fc"
				Note Time="0" Value="G#4" Duration="2" Instrument="death moon lead 2"
				Note Time="2" Value="D#4" Duration="2" Instrument="death moon lead 2"
				Note Time="4" Value="C#5" Duration="2" Instrument="death moon lead 2"
				Note Time="6" Value="G#4" Duration="2" Instrument="death moon lead 2"
				Note Time="8" Value="E5" Duration="2" Instrument="death moon lead 2"
				Note Time="10" Value="C#5" Duration="2" Instrument="death moon lead 2"
				Note Time="12" Value="F#5" Duration="2" Instrument="death moon lead 2"
				Note Time="14" Value="E5" Duration="2" Instrument="death moon lead 2"
			Pattern Name="17" Color="5dd2ff"
				Note Time="0" Value="C4" Duration="2" Instrument="echo"
				Note Time="2" Value="C#4" Duration="2" Instrument="echo"
				Note Time="4" Value="D#4" Duration="2" Instrument="echo"
				Note Time="6" Value="C4" Duration="2" Instrument="echo"
				Note Time="8" Value="C#4" Duration="2" Instrument="echo"
				Note Time="10" Value="D#4" Duration="2" Instrument="echo"
				Note Time="12" Value="E4" Duration="2" Instrument="echo"
				Note Time="14" Value="C#4" Duration="2" Instrument="echo"
			Pattern Name="18" Color="3eb3f9"
				Note Time="0" Value="D#4" Duration="2" Instrument="echo"
				Note Time="2" Value="E4" Duration="2" Instrument="echo"
				Note Time="4" Value="F#4" Duration="2" Instrument="echo"
				Note Time="6" Value="D#4" Duration="2" Instrument="echo"
				Note Time="8" Value="F#4" Duration="2" Instrument="echo"
				Note Time="10" Value="G#4" Duration="2" Instrument="echo"
				Note Time="12" Value="F#4" Duration="2" Instrument="echo"
				Note Time="14" Value="F#4" Duration="2" Instrument="echo"
			Pattern Name="19" Color="f6a4ff"
				Note Time="0" Value="F#4" Duration="2" Instrument="echo"
				Note Time="2" Value="G#4" Duration="2" Instrument="echo"
				Note Time="4" Value="A4" Duration="2" Instrument="echo"
				Note Time="6" Value="F#4" Duration="2" Instrument="echo"
				Note Time="8" Value="G#4" Duration="2" Instrument="echo"
				Note Time="10" Value="A4" Duration="2" Instrument="echo"
				Note Time="12" Value="B4" Duration="2" Instrument="echo"
				Note Time="14" Value="F#4" Duration="2" Instrument="echo"
			Pattern Name="20" Color="ffc6a1"
				Note Time="0" Value="G#4" Duration="2" Instrument="echo"
				Note Time="2" Value="A4" Duration="2" Instrument="echo"
				Note Time="4" Value="B4" Duration="4" Instrument="echo"
				Note Time="6" Value="C5" Duration="2" Instrument="echo"
				Note Time="8" Value="A4" Duration="2" Instrument="echo"
				Note Time="10" Value="C5" Duration="4" Instrument="echo"
				Note Time="13" Value="D#5" Duration="3" Instrument="echo"
			Pattern Name="21" Color="ffff93"
				Note Time="0" Value="F#5" Duration="3" Instrument="echo"
				Note Time="3" Value="A5" Duration="3" Instrument="echo"
			Pattern Name="22" Color="9a71ed"
				Note Time="0" Value="G#4" Duration="32" Instrument="death moon lead"
			Pattern Name="23" Color="5dd2ff"
				Note Time="0" Value="G#4" Duration="6" Instrument="cymbal"
				Note Time="6" Value="D#5" Duration="2" Instrument="cymbal"
				Note Time="8" Value="C#5" Duration="4" Instrument="cymbal"
				Note Time="12" Value="B4" Duration="4" Instrument="cymbal"
			Pattern Name="24" Color="ff579c"
				Note Time="0" Value="A4" Duration="12" Instrument="cymbal"
				Note Time="8" Value="C#5" Duration="8" Instrument="cymbal"
			Pattern Name="25" Color="a4db74"
				Note Time="0" Value="E5" Duration="16" Instrument="cymbal"
			Pattern Name="26" Color="3ca598"
				Note Time="0" Value="D#5" Duration="12" Instrument="cymbal"
				Note Time="12" Value="G#4" Duration="4" Instrument="cymbal"
			Pattern Name="27" Color="9a71ed"
				Note Time="0" Value="C#4" Duration="8" Instrument="death moon lead 2"
				Note Time="8" Value="C#4" Duration="8" Instrument="death moon lead 2" SlideTarget="C#5" Attack="False"
			Pattern Name="28" Color="ffb83c"
				Note Time="0" Value="G#4" Duration="2" Instrument="echo"
				Note Time="2" Value="A4" Duration="2" Instrument="echo"
				Note Time="4" Value="B4" Duration="2" Instrument="echo"
				Note Time="6" Value="C5" Duration="2" Instrument="echo"
				Note Time="8" Value="A4" Duration="2" Instrument="echo"
				Note Time="10" Value="C5" Duration="2" Instrument="echo"
				Note Time="12" Value="D#5" Duration="2" Instrument="echo"
				Note Time="14" Value="F#5" Duration="2" Instrument="echo"
			Pattern Name="29" Color="8d69e4"
				Note Time="0" Value="A5" Duration="4" Instrument="echo"
			Pattern Name="30" Color="74ca78"
				Note Time="0" Value="F#5" Duration="8" Instrument="cymbal"
				Note Time="8" Value="C#5" Duration="8" Instrument="cymbal"
			Pattern Name="31" Color="51a1fc"
				Note Time="0" Value="E5" Duration="6" Instrument="cymbal"
				Note Time="6" Value="D#5" Duration="6" Instrument="cymbal"
				Note Time="12" Value="C#5" Duration="4" Instrument="cymbal"
			Pattern Name="32" Color="ff9ece"
				Note Time="0" Value="D#5" Duration="6" Instrument="cymbal"
				Note Time="6" Value="A#4" Duration="10" Instrument="cymbal"
			Pattern Name="33" Color="ffcb3c"
				Note Time="0" Value="G#4" Duration="64" Instrument="death moon lead"
			PatternInstance Time="0" Pattern="1"
			PatternInstance Time="1" Pattern="2"
			PatternInstance Time="2" Pattern="1"
			PatternInstance Time="3" Pattern="3"
			PatternInstance Time="4" Pattern="1"
			PatternInstance Time="5" Pattern="4"
			PatternInstance Time="6" Pattern="1"
			PatternInstance Time="7" Pattern="3"
			PatternInstance Time="9" Pattern="5"
			PatternInstance Time="10" Pattern="6"
			PatternInstance Time="11" Pattern="7"
			PatternInstance Time="12" Pattern="8"
			PatternInstance Time="13" Pattern="5"
			PatternInstance Time="14" Pattern="6"
			PatternInstance Time="15" Pattern="7"
			PatternInstance Time="16" Pattern="8"
			PatternInstance Time="17" Pattern="9"
			PatternInstance Time="18" Pattern="10"
			PatternInstance Time="19" Pattern="11"
			PatternInstance Time="20" Pattern="12"
			PatternInstance Time="21" Pattern="9"
			PatternInstance Time="22" Pattern="10"
			PatternInstance Time="23" Pattern="11"
			PatternInstance Time="24" Pattern="12"
			PatternInstance Time="25" Pattern="9"
			PatternInstance Time="26" Pattern="10"
			PatternInstance Time="27" Pattern="11"
			PatternInstance Time="28" Pattern="12"
			PatternInstance Time="29" Pattern="13"
			PatternInstance Time="30" Pattern="14"
			PatternInstance Time="31" Pattern="15"
			PatternInstance Time="32" Pattern="16"
			PatternInstance Time="33" Pattern="17"
			PatternInstance Time="34" Pattern="18"
			PatternInstance Time="35" Pattern="19"
			PatternInstance Time="36" Pattern="20"
			PatternInstance Time="37" Pattern="21"
			PatternInstance Time="38" Pattern="22"
			PatternInstance Time="41" Pattern="23"
			PatternInstance Time="42" Pattern="24"
			PatternInstance Time="43" Pattern="25"
			PatternInstance Time="44" Pattern="26"
			PatternInstance Time="45" Pattern="23"
			PatternInstance Time="46" Pattern="24"
			PatternInstance Time="47" Pattern="25"
			PatternInstance Time="48" Pattern="26"
			PatternInstance Time="49" Pattern="23"
			PatternInstance Time="50" Pattern="24"
			PatternInstance Time="51" Pattern="25"
			PatternInstance Time="52" Pattern="26"
			PatternInstance Time="53" Pattern="23"
			PatternInstance Time="54" Pattern="24"
			PatternInstance Time="55" Pattern="25"
			PatternInstance Time="56" Pattern="26"
			PatternInstance Time="58" Pattern="13"
			PatternInstance Time="59" Pattern="14"
			PatternInstance Time="60" Pattern="15"
			PatternInstance Time="61" Pattern="27"
			PatternInstance Time="62" Pattern="13"
			PatternInstance Time="63" Pattern="14"
			PatternInstance Time="64" Pattern="15"
			PatternInstance Time="65" Pattern="27"
			PatternInstance Time="66" Pattern="17"
			PatternInstance Time="67" Pattern="18"
			PatternInstance Time="68" Pattern="19"
			PatternInstance Time="69" Pattern="28"
			PatternInstance Time="70" Pattern="29"
			PatternInstance Time="71" Pattern="22"
			PatternInstance Time="74" Pattern="23"
			PatternInstance Time="75" Pattern="30"
			PatternInstance Time="76" Pattern="31"
			PatternInstance Time="77" Pattern="32"
			PatternInstance Time="78" Pattern="23"
			PatternInstance Time="79" Pattern="30"
			PatternInstance Time="80" Pattern="31"
			PatternInstance Time="81" Pattern="32"
			PatternInstance Time="82" Pattern="23"
			PatternInstance Time="83" Pattern="30"
			PatternInstance Time="84" Pattern="31"
			PatternInstance Time="85" Pattern="32"
			PatternInstance Time="86" Pattern="23"
			PatternInstance Time="87" Pattern="30"
			PatternInstance Time="88" Pattern="31"
			PatternInstance Time="89" Pattern="32"
			PatternInstance Time="90" Pattern="23"
			PatternInstance Time="91" Pattern="30"
			PatternInstance Time="92" Pattern="31"
			PatternInstance Time="93" Pattern="32"
			PatternInstance Time="94" Pattern="23"
			PatternInstance Time="95" Pattern="30"
			PatternInstance Time="96" Pattern="31"
			PatternInstance Time="97" Pattern="32"
			PatternInstance Time="100" Pattern="33"
		Channel Type="Square2"
			Pattern Name="1" Color="ffff93"
				Note Time="0" Value="A#4" Duration="2" Instrument="death moon lead" FinePitch="-1"
				Note Time="2" Value="C#5" Duration="2" Instrument="death moon lead"
				Note Time="4" Value="F5" Duration="2" Instrument="death moon lead"
				Note Time="6" Value="E5" Duration="10" Instrument="death moon lead"
			Pattern Name="2" Color="3cf8ff"
				Note Time="0" Value="F5" Duration="4" Instrument="death moon lead"
				Note Time="4" Value="C#5" Duration="4" Instrument="death moon lead"
				Note Time="8" Value="C5" Duration="4" Instrument="death moon lead"
				Note Time="12" Value="C#5" Duration="4" Instrument="death moon lead"
			Pattern Name="3" Color="ff579c"
				Note Time="0" Value="F5" Duration="4" Instrument="death moon lead"
				Note Time="4" Value="C#5" Duration="4" Instrument="death moon lead"
				Note Time="8" Value="C5" Duration="4" Instrument="death moon lead"
				Note Time="12" Value="A#4" Duration="4" Instrument="death moon lead"
			Pattern Name="4" Color="ff579c"
				Note Time="0" Value="F5" Duration="4" Instrument="death moon lead"
				Note Time="4" Value="C#5" Duration="4" Instrument="death moon lead"
				Note Time="8" Value="C5" Duration="4" Instrument="death moon lead"
				Note Time="12" Value="F5" Duration="4" Instrument="death moon lead"
			Pattern Name="5" Color="8bffff"
				Note Time="0" Value="C#4" Duration="6" Instrument="death moon lead 2" FinePitch="0"
				Note Time="6" Value="C#4" Duration="2" Instrument="death moon lead 2"
				Note Time="8" Value="G#4" Duration="6" Instrument="death moon lead 2"
				Note Time="14" Value="G#4" Duration="2" Instrument="death moon lead 2"
			Pattern Name="6" Color="ffac7f"
				Note Time="0" Value="F#4" Duration="6" Instrument="death moon lead 2"
				Note Time="6" Value="F#4" Duration="2" Instrument="death moon lead 2"
				Note Time="8" Value="B4" Duration="6" Instrument="death moon lead 2"
				Note Time="14" Value="B4" Duration="2" Instrument="death moon lead 2"
			Pattern Name="7" Color="3ce8fd"
				Note Time="0" Value="A4" Duration="6" Instrument="death moon lead 2"
				Note Time="6" Value="A4" Duration="2" Instrument="death moon lead 2"
				Note Time="8" Value="G#4" Duration="6" Instrument="death moon lead 2"
				Note Time="14" Value="D#4" Duration="2" Instrument="death moon lead 2"
			Pattern Name="8" Color="ffe461"
				Note Time="0" Value="G#4" Duration="6" Instrument="death moon lead 2"
				Note Time="6" Value="G#4" Duration="2" Instrument="death moon lead 2"
				Note Time="8" Value="G#4" Duration="8" Instrument="death moon lead 2"
			Pattern Name="9" Color="ffa83c"
				Note Time="0" Value="C#4" Duration="2" Instrument="death moon lead" FinePitch="-2"
				Note Time="2" Value="C4" Duration="2" Instrument="death moon lead"
				Note Time="4" Value="C#4" Duration="2" Instrument="death moon lead"
				Note Time="6" Value="G#4" Duration="2" Instrument="death moon lead"
				Note Time="10" Value="C#4" Duration="2" Instrument="death moon lead"
				Note Time="12" Value="E4" Duration="2" Instrument="death moon lead"
				Note Time="14" Value="G#4" Duration="2" Instrument="death moon lead"
			Pattern Name="10" Color="eaffbd"
				Note Time="0" Value="C#4" Duration="2" Instrument="death moon lead"
				Note Time="2" Value="B3" Duration="2" Instrument="death moon lead"
				Note Time="4" Value="C#4" Duration="2" Instrument="death moon lead"
				Note Time="6" Value="B4" Duration="2" Instrument="death moon lead"
				Note Time="10" Value="D#4" Duration="2" Instrument="death moon lead"
				Note Time="12" Value="G#4" Duration="2" Instrument="death moon lead"
				Note Time="14" Value="B4" Duration="2" Instrument="death moon lead"
			Pattern Name="11" Color="65f2ff"
				Note Time="0" Value="E4" Duration="2" Instrument="death moon lead"
				Note Time="2" Value="C#4" Duration="2" Instrument="death moon lead"
				Note Time="4" Value="E4" Duration="2" Instrument="death moon lead"
				Note Time="6" Value="A4" Duration="2" Instrument="death moon lead"
				Note Time="10" Value="D4" Duration="2" Instrument="death moon lead"
				Note Time="12" Value="F#4" Duration="2" Instrument="death moon lead"
				Note Time="14" Value="A4" Duration="2" Instrument="death moon lead"
			Pattern Name="12" Color="d863ec"
				Note Time="0" Value="G#4" Duration="2" Instrument="death moon lead"
				Note Time="2" Value="D#4" Duration="2" Instrument="death moon lead"
				Note Time="4" Value="C#4" Duration="2" Instrument="death moon lead"
				Note Time="6" Value="G#4" Duration="2" Instrument="death moon lead"
				Note Time="8" Value="D#4" Duration="2" Instrument="death moon lead"
				Note Time="10" Value="C#4" Duration="2" Instrument="death moon lead"
				Note Time="12" Value="D#4" Duration="2" Instrument="death moon lead"
				Note Time="14" Value="G#4" Duration="2" Instrument="death moon lead"
			Pattern Name="13" Color="ff8f8c"
				Note Time="0" Value="C#5" Duration="4" Instrument="death moon lead" FinePitch="0"
				Note Time="4" Value="G#4" Duration="4" Instrument="death moon lead"
				Note Time="8" Value="F#4" Duration="4" Instrument="death moon lead"
				Note Time="12" Value="E4" Duration="4" Instrument="death moon lead"
			Pattern Name="14" Color="fe5497"
				Note Time="0" Value="B4" Duration="4" Instrument="death moon lead"
				Note Time="4" Value="A4" Duration="4" Instrument="death moon lead"
				Note Time="8" Value="G#4" Duration="4" Instrument="death moon lead"
				Note Time="12" Value="F#4" Duration="4" Instrument="death moon lead"
			Pattern Name="15" Color="ffff75"
				Note Time="0" Value="A4" Duration="4" Instrument="death moon lead"
				Note Time="4" Value="G#4" Duration="4" Instrument="death moon lead"
				Note Time="8" Value="F4" Duration="4" Instrument="death moon lead"
				Note Time="12" Value="F#4" Duration="4" Instrument="death moon lead"
			Pattern Name="16" Color="fffd43"
				Note Time="0" Value="G#4" Duration="4" Instrument="death moon lead"
				Note Time="2" Value="D#4" Duration="2" Instrument="death moon lead"
				Note Time="4" Value="C#5" Duration="2" Instrument="death moon lead"
				Note Time="6" Value="G#4" Duration="2" Instrument="death moon lead"
				Note Time="8" Value="E5" Duration="2" Instrument="death moon lead"
				Note Time="10" Value="C#5" Duration="2" Instrument="death moon lead"
				Note Time="12" Value="F#5" Duration="2" Instrument="death moon lead"
				Note Time="14" Value="E5" Duration="2" Instrument="death moon lead"
			Pattern Name="18" Color="5dd2ff"
				Note Time="0" Value="F#4" Duration="2" Instrument="blank slower string"
				Note Time="2" Value="G#4" Duration="2" Instrument="blank slower string"
				Note Time="4" Value="A4" Duration="2" Instrument="blank slower string"
				Note Time="6" Value="F#4" Duration="2" Instrument="blank slower string"
				Note Time="8" Value="G#4" Duration="2" Instrument="blank slower string"
				Note Time="10" Value="A4" Duration="2" Instrument="blank slower string"
				Note Time="12" Value="B4" Duration="2" Instrument="blank slower string"
				Note Time="14" Value="F#4" Duration="2" Instrument="blank slower string"
			Pattern Name="19" Color="ff579c"
				Note Time="0" Value="G#4" Duration="2" Instrument="blank slower string"
				Note Time="2" Value="A4" Duration="2" Instrument="blank slower string"
				Note Time="4" Value="B4" Duration="2" Instrument="blank slower string"
				Note Time="6" Value="C5" Duration="2" Instrument="blank slower string"
				Note Time="8" Value="A4" Duration="2" Instrument="blank slower string"
				Note Time="10" Value="C5" Duration="3" Instrument="blank slower string"
				Note Time="13" Value="D#5" Duration="4" Instrument="blank slower string"
			Pattern Name="20" Color="ffc83c"
				Note Time="0" Value="F#5" Duration="3" Instrument="blank slower string"
				Note Time="3" Value="A5" Duration="3" Instrument="blank slower string"
			Pattern Name="17" Color="a9887d"
				Note Time="0" Value="G#3" Duration="32" Instrument="death moon lead"
			Pattern Name="24" Color="fcff6f"
				Note Time="0" Value="C3" Duration="4" Instrument="triangle drums"
				Note Time="8" Value="C3" Duration="4" Instrument="triangle drums"
			Pattern Name="21" Color="a9887d"
				Note Time="0" Value="C#4" Duration="8" Instrument="death moon lead"
				Note Time="8" Value="C#4" Duration="8" Instrument="death moon lead" SlideTarget="C#5" Attack="False"
			Pattern Name="22" Color="91c76b"
				Note Time="0" Value="G#4" Duration="2" Instrument="blank slower string"
				Note Time="2" Value="A4" Duration="2" Instrument="blank slower string"
				Note Time="4" Value="B4" Duration="2" Instrument="blank slower string"
				Note Time="6" Value="C5" Duration="2" Instrument="blank slower string"
				Note Time="8" Value="A4" Duration="2" Instrument="blank slower string"
				Note Time="10" Value="C5" Duration="2" Instrument="blank slower string"
				Note Time="12" Value="D#5" Duration="2" Instrument="blank slower string"
				Note Time="14" Value="F#5" Duration="2" Instrument="blank slower string"
			Pattern Name="23" Color="3ce8fd"
				Note Time="0" Value="A5" Duration="2" Instrument="blank slower string"
			Pattern Name="25" Color="bdffc0"
				Note Time="0" Value="G#5" Duration="64" Instrument="death moon lead"
			PatternInstance Time="0" Pattern="1"
			PatternInstance Time="1" Pattern="2"
			PatternInstance Time="2" Pattern="1"
			PatternInstance Time="3" Pattern="3"
			PatternInstance Time="4" Pattern="1"
			PatternInstance Time="5" Pattern="4"
			PatternInstance Time="6" Pattern="1"
			PatternInstance Time="7" Pattern="3"
			PatternInstance Time="9" Pattern="5"
			PatternInstance Time="10" Pattern="6"
			PatternInstance Time="11" Pattern="7"
			PatternInstance Time="12" Pattern="8"
			PatternInstance Time="13" Pattern="5"
			PatternInstance Time="14" Pattern="6"
			PatternInstance Time="15" Pattern="7"
			PatternInstance Time="16" Pattern="8"
			PatternInstance Time="17" Pattern="9"
			PatternInstance Time="18" Pattern="10"
			PatternInstance Time="19" Pattern="11"
			PatternInstance Time="20" Pattern="12"
			PatternInstance Time="21" Pattern="9"
			PatternInstance Time="22" Pattern="10"
			PatternInstance Time="23" Pattern="11"
			PatternInstance Time="24" Pattern="12"
			PatternInstance Time="25" Pattern="13"
			PatternInstance Time="26" Pattern="14"
			PatternInstance Time="27" Pattern="15"
			PatternInstance Time="28" Pattern="16"
			PatternInstance Time="29" Pattern="13"
			PatternInstance Time="30" Pattern="14"
			PatternInstance Time="31" Pattern="15"
			PatternInstance Time="32" Pattern="16"
			PatternInstance Time="35" Pattern="18"
			PatternInstance Time="36" Pattern="19"
			PatternInstance Time="37" Pattern="20"
			PatternInstance Time="38" Pattern="17"
			PatternInstance Time="53" Pattern="24"
			PatternInstance Time="54" Pattern="24"
			PatternInstance Time="55" Pattern="24"
			PatternInstance Time="56" Pattern="24"
			PatternInstance Time="58" Pattern="13"
			PatternInstance Time="59" Pattern="14"
			PatternInstance Time="60" Pattern="15"
			PatternInstance Time="61" Pattern="21"
			PatternInstance Time="62" Pattern="13"
			PatternInstance Time="63" Pattern="14"
			PatternInstance Time="64" Pattern="15"
			PatternInstance Time="65" Pattern="21"
			PatternInstance Time="68" Pattern="18"
			PatternInstance Time="69" Pattern="22"
			PatternInstance Time="70" Pattern="23"
			PatternInstance Time="71" Pattern="17"
			PatternInstance Time="100" Pattern="25"
		Channel Type="Triangle"
			Pattern Name="1" Color="a9887d"
				Note Time="0" Value="A#2" Duration="4" Instrument="death moon lead"
				Note Time="6" Value="E3" Duration="10" Instrument="death moon lead"
			Pattern Name="2" Color="fffc69"
				Note Time="0" Value="F3" Duration="4" Instrument="death moon lead"
				Note Time="4" Value="C#3" Duration="4" Instrument="death moon lead"
				Note Time="8" Value="C3" Duration="4" Instrument="death moon lead"
				Note Time="12" Value="C#3" Duration="4" Instrument="death moon lead"
			Pattern Name="3" Color="ffc83c"
				Note Time="0" Value="F3" Duration="4" Instrument="death moon lead"
				Note Time="4" Value="C#3" Duration="4" Instrument="death moon lead"
				Note Time="8" Value="C3" Duration="4" Instrument="death moon lead"
				Note Time="12" Value="A#2" Duration="4" Instrument="death moon lead"
			Pattern Name="4" Color="ffc83c"
				Note Time="0" Value="F3" Duration="4" Instrument="death moon lead"
				Note Time="4" Value="C#3" Duration="4" Instrument="death moon lead"
				Note Time="8" Value="C3" Duration="4" Instrument="death moon lead"
				Note Time="12" Value="F3" Duration="4" Instrument="death moon lead"
			Pattern Name="5" Color="55b2ff"
				Note Time="0" Value="B1" Duration="16" Instrument="blank" SlideTarget="B4"
			Pattern Name="6" Color="ffe461"
				Note Time="0" Value="C4" Duration="4" Instrument="triangle drums"
				Note Time="4" Value="C4" Duration="4" Instrument="triangle drums"
				Note Time="8" Value="C4" Duration="4" Instrument="triangle drums"
				Note Time="12" Value="C4" Duration="4" Instrument="triangle drums"
			Pattern Name="Pattern 1" Color="5dd2ff"
			Pattern Name="7" Color="fffc69"
				Note Time="0" Value="G#4" Duration="32" Instrument="jaezu lead"
			Pattern Name="8" Color="ffffb2"
				Note Time="0" Value="C4" Duration="4" Instrument="triangle drums"
				Note Time="8" Value="C4" Duration="4" Instrument="triangle drums"
			Pattern Name="9" Color="3cbfcb"
				Note Time="2" Value="G#4" Duration="2" Instrument="blank instant decay"
				Note Time="8" Value="D#5" Duration="2" Instrument="blank instant decay"
				Note Time="10" Value="C#5" Duration="2" Instrument="blank instant decay"
				Note Time="14" Value="B4" Duration="2" Instrument="blank instant decay"
			Pattern Name="10" Color="d1b1ff"
				Note Time="2" Value="F#5" Duration="2" Instrument="blank instant decay"
				Note Time="10" Value="C#5" Duration="2" Instrument="blank instant decay"
			Pattern Name="11" Color="ddc4bb"
				Note Time="2" Value="E5" Duration="2" Instrument="blank instant decay"
				Note Time="8" Value="D#5" Duration="2" Instrument="blank instant decay"
				Note Time="14" Value="C#5" Duration="2" Instrument="blank instant decay"
			Pattern Name="12" Color="ffff94"
				Note Time="2" Value="D#5" Duration="2" Instrument="blank instant decay"
				Note Time="8" Value="A#4" Duration="2" Instrument="blank instant decay"
			Pattern Name="13" Color="ffff77"
				Note Time="0" Value="B4" Duration="16" Instrument="blank"
			Pattern Name="14" Color="ff6464"
				Note Time="0" Value="G#3" Duration="64" Instrument="blank"
			PatternInstance Time="0" Pattern="1"
			PatternInstance Time="1" Pattern="2"
			PatternInstance Time="2" Pattern="1"
			PatternInstance Time="3" Pattern="3"
			PatternInstance Time="4" Pattern="1"
			PatternInstance Time="5" Pattern="4"
			PatternInstance Time="6" Pattern="1"
			PatternInstance Time="7" Pattern="3"
			PatternInstance Time="8" Pattern="5"
			PatternInstance Time="17" Pattern="6"
			PatternInstance Time="18" Pattern="6"
			PatternInstance Time="19" Pattern="6"
			PatternInstance Time="20" Pattern="6"
			PatternInstance Time="21" Pattern="6"
			PatternInstance Time="22" Pattern="6"
			PatternInstance Time="23" Pattern="6"
			PatternInstance Time="24" Pattern="6"
			PatternInstance Time="25" Pattern="6"
			PatternInstance Time="26" Pattern="6"
			PatternInstance Time="27" Pattern="6"
			PatternInstance Time="28" Pattern="6"
			PatternInstance Time="35" Pattern="Pattern 1"
			PatternInstance Time="38" Pattern="7"
			PatternInstance Time="40" Pattern="5"
			PatternInstance Time="53" Pattern="8"
			PatternInstance Time="54" Pattern="8"
			PatternInstance Time="55" Pattern="8"
			PatternInstance Time="56" Pattern="8"
			PatternInstance Time="57" Pattern="5"
			PatternInstance Time="71" Pattern="7"
			PatternInstance Time="73" Pattern="5"
			PatternInstance Time="74" Pattern="9"
			PatternInstance Time="75" Pattern="10"
			PatternInstance Time="76" Pattern="11"
			PatternInstance Time="77" Pattern="12"
			PatternInstance Time="78" Pattern="9"
			PatternInstance Time="79" Pattern="10"
			PatternInstance Time="80" Pattern="11"
			PatternInstance Time="81" Pattern="12"
			PatternInstance Time="82" Pattern="9"
			PatternInstance Time="83" Pattern="10"
			PatternInstance Time="84" Pattern="11"
			PatternInstance Time="85" Pattern="12"
			PatternInstance Time="86" Pattern="9"
			PatternInstance Time="87" Pattern="10"
			PatternInstance Time="88" Pattern="11"
			PatternInstance Time="89" Pattern="12"
			PatternInstance Time="90" Pattern="9"
			PatternInstance Time="91" Pattern="10"
			PatternInstance Time="92" Pattern="11"
			PatternInstance Time="93" Pattern="12"
			PatternInstance Time="94" Pattern="9"
			PatternInstance Time="95" Pattern="10"
			PatternInstance Time="96" Pattern="11"
			PatternInstance Time="97" Pattern="12"
			PatternInstance Time="98" Pattern="5"
			PatternInstance Time="99" Pattern="13"
			PatternInstance Time="100" Pattern="14"
		Channel Type="Noise"
			Pattern Name="1" Color="3ca598"
				Note Time="0" Value="A0" Duration="8" Instrument="cymbal"
			Pattern Name="2" Color="ff8f8c"
				Note Time="0" Value="D1" Duration="2" Instrument="snare"
				Note Time="4" Value="D1" Duration="2" Instrument="snare"
				Note Time="8" Value="D1" Duration="2" Instrument="snare"
				Note Time="12" Value="D1" Duration="2" Instrument="snare"
			Pattern Name="3" Color="997c73"
				Note Time="0" Value="A0" Duration="4" Instrument="cymbal"
				Note Time="4" Value="D1" Duration="2" Instrument="snare"
				Note Time="8" Value="D1" Duration="2" Instrument="snare"
				Note Time="12" Value="D1" Duration="2" Instrument="snare"
			Pattern Name="5" Color="ffef3c"
				Note Time="0" Value="A0" Duration="2" Instrument="cymbal"
				Note Time="2" Value="C0" Duration="2" Instrument="kick"
				Note Time="4" Value="C1" Duration="2" Instrument="02 but tri"
				Note Time="6" Value="C0" Duration="2" Instrument="kick"
				Note Time="8" Value="C1" Duration="2" Instrument="02 but tri"
				Note Time="10" Value="C0" Duration="2" Instrument="kick"
				Note Time="12" Value="C1" Duration="2" Instrument="02 but tri"
				Note Time="14" Value="C0" Duration="2" Instrument="kick"
			Pattern Name="4" Color="eaffbd"
				Note Time="0" Value="C1" Duration="2" Instrument="02 but tri"
				Note Time="2" Value="C0" Duration="2" Instrument="kick"
				Note Time="4" Value="C1" Duration="2" Instrument="02 but tri"
				Note Time="6" Value="C0" Duration="2" Instrument="kick"
				Note Time="8" Value="C1" Duration="2" Instrument="02 but tri"
				Note Time="10" Value="C0" Duration="2" Instrument="kick"
				Note Time="12" Value="C1" Duration="2" Instrument="02 but tri"
				Note Time="14" Value="C0" Duration="2" Instrument="kick"
			Pattern Name="6" Color="ff579c"
				Note Time="0" Value="A0" Duration="4" Instrument="cymbal" Volume="15"
				Note Time="4" Value="D1" Duration="2" Instrument="snare"
				Note Time="6" Value="C0" Duration="2" Instrument="kick"
				Note Time="8" Value="C1" Duration="2" Instrument="02 but tri"
				Note Time="10" Value="C0" Duration="2" Instrument="kick"
				Note Time="12" Value="D1" Duration="2" Instrument="snare"
				Note Time="14" Value="C0" Duration="2" Instrument="kick"
			Pattern Name="11" Color="ffc83c"
				Note Time="0" Value="C1" Duration="2" Instrument="02 but tri"
				Note Time="2" Value="C0" Duration="2" Instrument="kick"
				Note Time="4" Value="D1" Duration="2" Instrument="snare"
				Note Time="6" Value="C0" Duration="2" Instrument="kick"
				Note Time="8" Value="C1" Duration="2" Instrument="02 but tri"
				Note Time="10" Value="C0" Duration="2" Instrument="kick"
				Note Time="12" Value="D1" Duration="2" Instrument="snare"
				Note Time="14" Value="C0" Duration="2" Instrument="kick"
			Pattern Name="7" Color="3fe5ff"
				Note Time="0" Value="A0" Duration="8" Release="7" Instrument="cymbal"
			Pattern Name="8" Color="ca60e6"
				Note Time="4" Value="C#1" Duration="1" Instrument="snare" Volume="1"
				Note Time="5" Value="D1" Duration="1" Instrument="snare"
				Note Time="6" Value="D1" Duration="1" Instrument="snare"
				Note Time="7" Value="D1" Duration="1" Instrument="snare"
				Note Time="8" Value="C#1" Duration="1" Instrument="snare" Volume="2"
				Note Time="9" Value="D1" Duration="1" Instrument="snare"
				Note Time="10" Value="D1" Duration="1" Instrument="snare"
				Note Time="11" Value="D1" Duration="1" Instrument="snare"
				Note Time="12" Value="C#1" Duration="1" Instrument="snare" Volume="3"
				Note Time="13" Value="D1" Duration="1" Instrument="snare"
				Note Time="14" Value="D1" Duration="1" Instrument="snare"
				Note Time="15" Value="D1" Duration="1" Instrument="snare"
			Pattern Name="9" Color="ff8d5a"
				Note Time="0" Value="C#1" Duration="1" Instrument="snare" Volume="4"
				Note Time="1" Value="D1" Duration="1" Instrument="snare"
				Note Time="2" Value="D1" Duration="1" Instrument="snare"
				Note Time="3" Value="D1" Duration="1" Instrument="snare"
				Note Time="4" Value="C#1" Duration="1" Instrument="snare" Volume="5"
				Note Time="5" Value="D1" Duration="1" Instrument="snare"
				Note Time="6" Value="D1" Duration="1" Instrument="snare"
				Note Time="7" Value="D1" Duration="1" Instrument="snare"
				Note Time="8" Value="C#1" Duration="1" Instrument="snare" Volume="6"
				Note Time="9" Value="D1" Duration="1" Instrument="snare"
				Note Time="10" Value="D1" Duration="1" Instrument="snare"
				Note Time="11" Value="D1" Duration="1" Instrument="snare"
				Note Time="12" Value="C#1" Duration="1" Instrument="snare" Volume="7"
				Note Time="13" Value="D1" Duration="1" Instrument="snare"
				Note Time="14" Value="D1" Duration="1" Instrument="snare"
				Note Time="15" Value="D1" Duration="1" Instrument="snare"
			Pattern Name="10" Color="ebf067"
				Note Time="0" Value="C#1" Duration="1" Instrument="snare" Volume="8"
				Note Time="1" Value="D1" Duration="1" Instrument="snare"
				Note Time="2" Value="D1" Duration="1" Instrument="snare"
				Note Time="3" Value="D1" Duration="1" Instrument="snare"
				Note Time="4" Value="C#1" Duration="1" Instrument="snare" Volume="9"
				Note Time="5" Value="D1" Duration="1" Instrument="snare"
				Note Time="6" Value="D1" Duration="1" Instrument="snare"
				Note Time="7" Value="D1" Duration="1" Instrument="snare"
				Note Time="8" Value="C#1" Duration="1" Instrument="snare" Volume="10"
				Note Time="9" Value="D1" Duration="1" Instrument="snare"
				Note Time="10" Value="D1" Duration="1" Instrument="snare"
				Note Time="11" Value="D1" Duration="1" Instrument="snare"
				Note Time="12" Value="C#1" Duration="1" Instrument="snare" Volume="11"
				Note Time="13" Value="D1" Duration="1" Instrument="snare"
				Note Time="14" Value="D1" Duration="1" Instrument="snare"
				Note Time="15" Value="D1" Duration="1" Instrument="snare"
			Pattern Name="12" Color="ffe461"
				Note Time="8" Value="A0" Duration="6" Instrument="cymbal"
			Pattern Name="13" Color="7585e7"
				Note Time="0" Value="D1" Duration="4" Instrument="snare" Volume="15"
				Note Time="8" Value="D1" Duration="1" Instrument="snare"
				Note Time="9" Value="D1" Duration="1" Instrument="snare"
				Note Time="10" Value="D1" Duration="1" Instrument="snare"
				Note Time="11" Value="D1" Duration="1" Instrument="snare"
				Note Time="12" Value="D1" Duration="1" Instrument="snare"
				Note Time="13" Value="D1" Duration="1" Instrument="snare"
				Note Time="14" Value="D1" Duration="1" Instrument="snare"
				Note Time="15" Value="D1" Duration="1" Instrument="snare"
			Pattern Name="14" Color="3cc5b7"
				Note Time="0" Value="C#1" Duration="1" Instrument="snare" Volume="12"
				Note Time="1" Value="D1" Duration="1" Instrument="snare"
				Note Time="2" Value="D1" Duration="1" Instrument="snare"
				Note Time="3" Value="D1" Duration="1" Instrument="snare"
				Note Time="4" Value="C#1" Duration="1" Instrument="snare" Volume="13"
				Note Time="5" Value="D1" Duration="1" Instrument="snare"
				Note Time="6" Value="D1" Duration="1" Instrument="snare"
				Note Time="7" Value="D1" Duration="1" Instrument="snare"
				Note Time="8" Value="C#1" Duration="1" Instrument="snare" Volume="14"
				Note Time="9" Value="D1" Duration="1" Instrument="snare"
				Note Time="10" Value="D1" Duration="1" Instrument="snare"
				Note Time="11" Value="D1" Duration="1" Instrument="snare"
				Note Time="12" Value="C#1" Duration="1" Instrument="snare" Volume="15"
				Note Time="13" Value="D1" Duration="1" Instrument="snare"
				Note Time="14" Value="D1" Duration="1" Instrument="snare"
				Note Time="15" Value="D1" Duration="1" Instrument="snare"
			Pattern Name="15" Color="3ec4ff"
				Note Time="0" Value="A0" Duration="8" Release="3" Instrument="cymbal"
			PatternInstance Time="0" Pattern="1"
			PatternInstance Time="1" Pattern="2"
			PatternInstance Time="2" Pattern="1"
			PatternInstance Time="3" Pattern="2"
			PatternInstance Time="4" Pattern="3"
			PatternInstance Time="5" Pattern="2"
			PatternInstance Time="6" Pattern="2"
			PatternInstance Time="7" Pattern="2"
			PatternInstance Time="8" Pattern="2"
			PatternInstance Time="9" Pattern="5"
			PatternInstance Time="10" Pattern="4"
			PatternInstance Time="11" Pattern="4"
			PatternInstance Time="12" Pattern="4"
			PatternInstance Time="13" Pattern="4"
			PatternInstance Time="14" Pattern="4"
			PatternInstance Time="15" Pattern="4"
			PatternInstance Time="16" Pattern="4"
			PatternInstance Time="17" Pattern="5"
			PatternInstance Time="18" Pattern="4"
			PatternInstance Time="19" Pattern="4"
			PatternInstance Time="20" Pattern="4"
			PatternInstance Time="21" Pattern="6"
			PatternInstance Time="22" Pattern="11"
			PatternInstance Time="23" Pattern="11"
			PatternInstance Time="24" Pattern="11"
			PatternInstance Time="25" Pattern="6"
			PatternInstance Time="26" Pattern="11"
			PatternInstance Time="27" Pattern="11"
			PatternInstance Time="28" Pattern="11"
			PatternInstance Time="29" Pattern="6"
			PatternInstance Time="30" Pattern="11"
			PatternInstance Time="31" Pattern="11"
			PatternInstance Time="32" Pattern="11"
			PatternInstance Time="33" Pattern="7"
			PatternInstance Time="38" Pattern="8"
			PatternInstance Time="39" Pattern="9"
			PatternInstance Time="40" Pattern="10"
			PatternInstance Time="41" Pattern="6"
			PatternInstance Time="42" Pattern="11"
			PatternInstance Time="43" Pattern="11"
			PatternInstance Time="44" Pattern="11"
			PatternInstance Time="45" Pattern="6"
			PatternInstance Time="46" Pattern="11"
			PatternInstance Time="47" Pattern="11"
			PatternInstance Time="48" Pattern="11"
			PatternInstance Time="49" Pattern="6"
			PatternInstance Time="50" Pattern="6"
			PatternInstance Time="51" Pattern="6"
			PatternInstance Time="52" Pattern="6"
			PatternInstance Time="53" Pattern="6"
			PatternInstance Time="54" Pattern="6"
			PatternInstance Time="55" Pattern="6"
			PatternInstance Time="56" Pattern="6"
			PatternInstance Time="57" Pattern="10"
			PatternInstance Time="58" Pattern="6"
			PatternInstance Time="59" Pattern="11"
			PatternInstance Time="60" Pattern="11"
			PatternInstance Time="61" Pattern="11"
			PatternInstance Time="62" Pattern="6"
			PatternInstance Time="63" Pattern="11"
			PatternInstance Time="64" Pattern="11"
			PatternInstance Time="65" Pattern="11"
			PatternInstance Time="66" Pattern="6"
			PatternInstance Time="67" Pattern="11"
			PatternInstance Time="68" Pattern="11"
			PatternInstance Time="69" Pattern="11"
			PatternInstance Time="70" Pattern="12"
			PatternInstance Time="71" Pattern="8"
			PatternInstance Time="72" Pattern="9"
			PatternInstance Time="73" Pattern="10"
			PatternInstance Time="74" Pattern="7"
			PatternInstance Time="78" Pattern="7"
			PatternInstance Time="81" Pattern="13"
			PatternInstance Time="82" Pattern="6"
			PatternInstance Time="83" Pattern="11"
			PatternInstance Time="84" Pattern="11"
			PatternInstance Time="85" Pattern="11"
			PatternInstance Time="86" Pattern="6"
			PatternInstance Time="87" Pattern="11"
			PatternInstance Time="88" Pattern="11"
			PatternInstance Time="89" Pattern="11"
			PatternInstance Time="90" Pattern="6"
			PatternInstance Time="91" Pattern="11"
			PatternInstance Time="92" Pattern="11"
			PatternInstance Time="93" Pattern="11"
			PatternInstance Time="94" Pattern="6"
			PatternInstance Time="95" Pattern="11"
			PatternInstance Time="96" Pattern="11"
			PatternInstance Time="97" Pattern="11"
			PatternInstance Time="98" Pattern="10"
			PatternInstance Time="99" Pattern="14"
			PatternInstance Time="102" Pattern="10"
			PatternInstance Time="103" Pattern="14"
			PatternInstance Time="104" Pattern="15"
		Channel Type="DPCM"
			Pattern Name="1" Color="fffc69"
				Note Time="0" Value="E5" Duration="4" Instrument="DMC: drums + bass"
			Pattern Name="2" Color="b5c2ff"
				Note Time="0" Value="E5" Duration="2" Instrument="DMC: drums + bass"
				Note Time="2" Value="F4" Duration="2" Instrument="DMC: drums + bass"
				Note Time="4" Value="E5" Duration="2" Instrument="DMC: drums + bass"
				Note Time="6" Value="C#4" Duration="2" Instrument="DMC: drums + bass"
				Note Time="8" Value="E5" Duration="2" Instrument="DMC: drums + bass"
				Note Time="10" Value="C4" Duration="2" Instrument="DMC: drums + bass"
				Note Time="12" Value="E5" Duration="2" Instrument="DMC: drums + bass"
				Note Time="14" Value="C#4" Duration="2" Instrument="DMC: drums + bass"
			Pattern Name="3" Color="fe5497"
				Note Time="0" Value="E5" Duration="2" Instrument="DMC: drums + bass"
				Note Time="2" Value="F4" Duration="2" Instrument="DMC: drums + bass"
				Note Time="4" Value="E5" Duration="2" Instrument="DMC: drums + bass"
				Note Time="6" Value="C#4" Duration="2" Instrument="DMC: drums + bass"
				Note Time="8" Value="E5" Duration="2" Instrument="DMC: drums + bass"
				Note Time="10" Value="C4" Duration="2" Instrument="DMC: drums + bass"
				Note Time="12" Value="E5" Duration="2" Instrument="DMC: drums + bass"
				Note Time="14" Value="A#3" Duration="2" Instrument="DMC: drums + bass"
			Pattern Name="4" Color="ffe461"
				Note Time="0" Value="E5" Duration="2" Instrument="DMC: drums + bass"
				Note Time="2" Value="C#4" Duration="2" Instrument="DMC: drums + bass"
				Note Time="4" Value="E5" Duration="2" Instrument="DMC: drums + bass"
				Note Time="6" Value="E4" Duration="2" Instrument="DMC: drums + bass"
				Note Time="8" Value="E5" Duration="2" Instrument="DMC: drums + bass"
				Note Time="10" Value="E4" Duration="2" Instrument="DMC: drums + bass"
				Note Time="12" Value="E5" Duration="2" Instrument="DMC: drums + bass"
				Note Time="14" Value="E4" Duration="2" Instrument="DMC: drums + bass"
			Pattern Name="5" Color="89f2e8"
				Note Time="0" Value="E5" Duration="2" Instrument="DMC: drums + bass"
				Note Time="2" Value="F4" Duration="2" Instrument="DMC: drums + bass"
				Note Time="4" Value="E5" Duration="2" Instrument="DMC: drums + bass"
				Note Time="6" Value="C#4" Duration="2" Instrument="DMC: drums + bass"
				Note Time="8" Value="E5" Duration="2" Instrument="DMC: drums + bass"
				Note Time="10" Value="C4" Duration="2" Instrument="DMC: drums + bass"
				Note Time="12" Value="E5" Duration="2" Instrument="DMC: drums + bass"
				Note Time="14" Value="F4" Duration="2" Instrument="DMC: drums + bass"
			Pattern Name="6" Color="fffd43"
				Note Time="0" Value="E5" Duration="2" Instrument="DMC: drums + bass"
				Note Time="4" Value="E5" Duration="2" Instrument="DMC: drums + bass"
				Note Time="8" Value="E5" Duration="2" Instrument="DMC: drums + bass"
				Note Time="12" Value="E5" Duration="2" Instrument="DMC: drums + bass"
			Pattern Name="7" Color="7fdc83"
				Note Time="0" Value="E5" Duration="2" Instrument="DMC: drums + bass"
				Note Time="2" Value="C#4" Duration="2" Instrument="DMC: drums + bass"
				Note Time="4" Value="E5" Duration="2" Instrument="DMC: drums + bass"
				Note Time="6" Value="C#4" Duration="2" Instrument="DMC: drums + bass"
				Note Time="8" Value="E5" Duration="2" Instrument="DMC: drums + bass"
				Note Time="10" Value="C#4" Duration="2" Instrument="DMC: drums + bass"
				Note Time="12" Value="E5" Duration="2" Instrument="DMC: drums + bass"
				Note Time="14" Value="C#4" Duration="2" Instrument="DMC: drums + bass"
			Pattern Name="8" Color="55b2ff"
				Note Time="0" Value="E5" Duration="2" Instrument="DMC: drums + bass"
				Note Time="2" Value="D#4" Duration="2" Instrument="DMC: drums + bass"
				Note Time="4" Value="E5" Duration="2" Instrument="DMC: drums + bass"
				Note Time="6" Value="D#4" Duration="2" Instrument="DMC: drums + bass"
				Note Time="8" Value="E5" Duration="2" Instrument="DMC: drums + bass"
				Note Time="10" Value="D#4" Duration="2" Instrument="DMC: drums + bass"
				Note Time="12" Value="E5" Duration="2" Instrument="DMC: drums + bass"
				Note Time="14" Value="D#4" Duration="2" Instrument="DMC: drums + bass"
			Pattern Name="9" Color="e95093"
				Note Time="0" Value="E5" Duration="2" Instrument="DMC: drums + bass"
				Note Time="2" Value="E4" Duration="2" Instrument="DMC: drums + bass"
				Note Time="4" Value="E5" Duration="2" Instrument="DMC: drums + bass"
				Note Time="6" Value="E4" Duration="2" Instrument="DMC: drums + bass"
				Note Time="8" Value="E5" Duration="2" Instrument="DMC: drums + bass"
				Note Time="10" Value="E4" Duration="2" Instrument="DMC: drums + bass"
				Note Time="12" Value="E5" Duration="2" Instrument="DMC: drums + bass"
				Note Time="14" Value="E4" Duration="2" Instrument="DMC: drums + bass"
			Pattern Name="10" Color="ffa83c"
				Note Time="0" Value="E5" Duration="2" Instrument="DMC: drums + bass"
				Note Time="2" Value="G#4" Duration="2" Instrument="DMC: drums + bass"
				Note Time="4" Value="E5" Duration="2" Instrument="DMC: drums + bass"
				Note Time="6" Value="G#4" Duration="2" Instrument="DMC: drums + bass"
				Note Time="8" Value="E5" Duration="2" Instrument="DMC: drums + bass"
				Note Time="10" Value="G#4" Duration="2" Instrument="DMC: drums + bass"
				Note Time="12" Value="E5" Duration="2" Instrument="DMC: drums + bass"
				Note Time="14" Value="G#4" Duration="2" Instrument="DMC: drums + bass"
			Pattern Name="11" Color="ff9ece"
				Note Time="0" Value="E5" Duration="2" Instrument="DMC: drums + bass"
				Note Time="2" Value="E4" Duration="2" Instrument="DMC: drums + bass"
				Note Time="4" Value="E5" Duration="2" Instrument="DMC: drums + bass"
				Note Time="6" Value="E4" Duration="2" Instrument="DMC: drums + bass"
				Note Time="8" Value="E5" Duration="2" Instrument="DMC: drums + bass"
				Note Time="10" Value="F#4" Duration="2" Instrument="DMC: drums + bass"
				Note Time="12" Value="E5" Duration="2" Instrument="DMC: drums + bass"
				Note Time="14" Value="F#4" Duration="2" Instrument="DMC: drums + bass"
			Pattern Name="12" Color="a4db74"
				Note Time="0" Value="E5" Duration="2" Instrument="DMC: drums + bass"
				Note Time="2" Value="C#4" Duration="2" Instrument="DMC: drums + bass"
				Note Time="4" Value="F5" Duration="2" Instrument="DMC: drums + bass"
				Note Time="6" Value="C#4" Duration="2" Instrument="DMC: drums + bass"
				Note Time="8" Value="E5" Duration="2" Instrument="DMC: drums + bass"
				Note Time="10" Value="C#4" Duration="2" Instrument="DMC: drums + bass"
				Note Time="12" Value="F5" Duration="2" Instrument="DMC: drums + bass"
				Note Time="14" Value="C#4" Duration="2" Instrument="DMC: drums + bass"
			Pattern Name="13" Color="3eb3f9"
				Note Time="0" Value="E5" Duration="2" Instrument="DMC: drums + bass"
				Note Time="2" Value="G#4" Duration="2" Instrument="DMC: drums + bass"
				Note Time="4" Value="F5" Duration="2" Instrument="DMC: drums + bass"
				Note Time="6" Value="G#4" Duration="2" Instrument="DMC: drums + bass"
				Note Time="8" Value="E5" Duration="2" Instrument="DMC: drums + bass"
				Note Time="10" Value="G#4" Duration="2" Instrument="DMC: drums + bass"
				Note Time="12" Value="F5" Duration="2" Instrument="DMC: drums + bass"
				Note Time="14" Value="G#4" Duration="2" Instrument="DMC: drums + bass"
			Pattern Name="16" Color="f6a4ff"
				Note Time="0" Value="E5" Duration="2" Instrument="DMC: drums + bass"
				Note Time="2" Value="E4" Duration="2" Instrument="DMC: drums + bass"
				Note Time="4" Value="F5" Duration="2" Instrument="DMC: drums + bass"
				Note Time="6" Value="E4" Duration="2" Instrument="DMC: drums + bass"
				Note Time="8" Value="E5" Duration="2" Instrument="DMC: drums + bass"
				Note Time="10" Value="F#4" Duration="2" Instrument="DMC: drums + bass"
				Note Time="12" Value="F5" Duration="2" Instrument="DMC: drums + bass"
				Note Time="14" Value="F#4" Duration="2" Instrument="DMC: drums + bass"
			Pattern Name="17" Color="65f2ff"
				Note Time="0" Value="E5" Duration="2" Instrument="DMC: drums + bass"
				Note Time="2" Value="C#4" Duration="2" Instrument="DMC: drums + bass"
				Note Time="4" Value="F5" Duration="2" Instrument="DMC: drums + bass"
				Note Time="6" Value="C#4" Duration="2" Instrument="DMC: drums + bass"
				Note Time="8" Value="E5" Duration="2" Instrument="DMC: drums + bass"
				Note Time="10" Value="C#4" Duration="2" Instrument="DMC: drums + bass"
				Note Time="12" Value="F5" Duration="2" Instrument="DMC: drums + bass"
				Note Time="14" Value="E4" Duration="2" Instrument="DMC: drums + bass"
			Pattern Name="18" Color="d863ec"
				Note Time="0" Value="E5" Duration="2" Instrument="DMC: drums + bass"
				Note Time="2" Value="D#4" Duration="2" Instrument="DMC: drums + bass"
				Note Time="4" Value="F5" Duration="2" Instrument="DMC: drums + bass"
				Note Time="6" Value="D#4" Duration="2" Instrument="DMC: drums + bass"
				Note Time="8" Value="E5" Duration="2" Instrument="DMC: drums + bass"
				Note Time="10" Value="D#4" Duration="2" Instrument="DMC: drums + bass"
				Note Time="12" Value="F5" Duration="2" Instrument="DMC: drums + bass"
				Note Time="14" Value="F#4" Duration="2" Instrument="DMC: drums + bass"
			Pattern Name="14" Color="3cbfcb"
				Note Time="0" Value="F5" Duration="4" Instrument="DMC: drums + bass"
				Note Time="4" Value="F5" Duration="4" Instrument="DMC: drums + bass"
				Note Time="8" Value="F5" Duration="4" Instrument="DMC: drums + bass"
				Note Time="12" Value="F5" Duration="4" Instrument="DMC: drums + bass"
			Pattern Name="19" Color="e783f8"
				Note Time="0" Value="E5" Duration="2" Instrument="DMC: drums + bass"
				Note Time="2" Value="F#4" Duration="2" Instrument="DMC: drums + bass"
				Note Time="4" Value="F5" Duration="2" Instrument="DMC: drums + bass"
				Note Time="6" Value="F#4" Duration="2" Instrument="DMC: drums + bass"
				Note Time="8" Value="E5" Duration="2" Instrument="DMC: drums + bass"
				Note Time="10" Value="F#4" Duration="2" Instrument="DMC: drums + bass"
				Note Time="12" Value="F5" Duration="2" Instrument="DMC: drums + bass"
				Note Time="14" Value="F#4" Duration="2" Instrument="DMC: drums + bass"
			Pattern Name="20" Color="ffac7f"
				Note Time="0" Value="E5" Duration="2" Instrument="DMC: drums + bass"
				Note Time="2" Value="E4" Duration="2" Instrument="DMC: drums + bass"
				Note Time="4" Value="F5" Duration="2" Instrument="DMC: drums + bass"
				Note Time="6" Value="E4" Duration="2" Instrument="DMC: drums + bass"
				Note Time="8" Value="E5" Duration="2" Instrument="DMC: drums + bass"
				Note Time="10" Value="E4" Duration="2" Instrument="DMC: drums + bass"
				Note Time="12" Value="F5" Duration="2" Instrument="DMC: drums + bass"
				Note Time="14" Value="E4" Duration="2" Instrument="DMC: drums + bass"
			Pattern Name="21" Color="ffff75"
				Note Time="0" Value="E5" Duration="2" Instrument="DMC: drums + bass"
				Note Time="2" Value="D#4" Duration="2" Instrument="DMC: drums + bass"
				Note Time="4" Value="F5" Duration="2" Instrument="DMC: drums + bass"
				Note Time="6" Value="D#4" Duration="2" Instrument="DMC: drums + bass"
				Note Time="8" Value="E5" Duration="2" Instrument="DMC: drums + bass"
				Note Time="10" Value="D#4" Duration="2" Instrument="DMC: drums + bass"
				Note Time="12" Value="F5" Duration="2" Instrument="DMC: drums + bass"
				Note Time="14" Value="D#4" Duration="2" Instrument="DMC: drums + bass"
			Pattern Name="15" Color="8bffff"
				Note Time="0" Value="E5" Duration="2" Instrument="DMC: drums + bass"
				Note Time="4" Value="F5" Duration="2" Instrument="DMC: drums + bass"
				Note Time="8" Value="E5" Duration="2" Instrument="DMC: drums + bass"
				Note Time="12" Value="F5" Duration="2" Instrument="DMC: drums + bass"
			Pattern Name="22" Color="ff6b6b"
				Note Time="0" Value="F5" Duration="4" Instrument="DMC: drums + bass"
				Note Time="8" Value="F5" Duration="1" Instrument="DMC: drums + bass"
				Note Time="9" Value="F5" Duration="1" Instrument="DMC: drums + bass"
				Note Time="10" Value="F5" Duration="1" Instrument="DMC: drums + bass"
				Note Time="11" Value="F5" Duration="1" Instrument="DMC: drums + bass"
				Note Time="12" Value="F5" Duration="1" Instrument="DMC: drums + bass"
				Note Time="13" Value="F5" Duration="1" Instrument="DMC: drums + bass"
				Note Time="14" Value="F5" Duration="1" Instrument="DMC: drums + bass"
				Note Time="15" Value="F5" Duration="1" Instrument="DMC: drums + bass"
			Pattern Name="23" Color="b75bde"
				Note Time="0" Value="E5" Duration="2" Instrument="DMC: drums + bass"
				Note Time="2" Value="B3" Duration="2" Instrument="DMC: drums + bass"
				Note Time="4" Value="F5" Duration="2" Instrument="DMC: drums + bass"
				Note Time="6" Value="B3" Duration="2" Instrument="DMC: drums + bass"
				Note Time="8" Value="E5" Duration="2" Instrument="DMC: drums + bass"
				Note Time="10" Value="B3" Duration="2" Instrument="DMC: drums + bass"
				Note Time="12" Value="F5" Duration="2" Instrument="DMC: drums + bass"
				Note Time="14" Value="B3" Duration="2" Instrument="DMC: drums + bass"
			PatternInstance Time="0" Pattern="1"
			PatternInstance Time="1" Pattern="2"
			PatternInstance Time="2" Pattern="1"
			PatternInstance Time="3" Pattern="3"
			PatternInstance Time="4" Pattern="4"
			PatternInstance Time="5" Pattern="5"
			PatternInstance Time="6" Pattern="4"
			PatternInstance Time="7" Pattern="3"
			PatternInstance Time="8" Pattern="6"
			PatternInstance Time="9" Pattern="7"
			PatternInstance Time="10" Pattern="8"
			PatternInstance Time="11" Pattern="9"
			PatternInstance Time="12" Pattern="10"
			PatternInstance Time="13" Pattern="7"
			PatternInstance Time="14" Pattern="8"
			PatternInstance Time="15" Pattern="9"
			PatternInstance Time="16" Pattern="10"
			PatternInstance Time="17" Pattern="7"
			PatternInstance Time="18" Pattern="8"
			PatternInstance Time="19" Pattern="11"
			PatternInstance Time="20" Pattern="10"
			PatternInstance Time="21" Pattern="12"
			PatternInstance Time="22" Pattern="13"
			PatternInstance Time="23" Pattern="16"
			PatternInstance Time="24" Pattern="13"
			PatternInstance Time="25" Pattern="17"
			PatternInstance Time="26" Pattern="18"
			PatternInstance Time="27" Pattern="16"
			PatternInstance Time="28" Pattern="13"
			PatternInstance Time="29" Pattern="17"
			PatternInstance Time="30" Pattern="18"
			PatternInstance Time="31" Pattern="16"
			PatternInstance Time="32" Pattern="13"
			PatternInstance Time="40" Pattern="14"
			PatternInstance Time="41" Pattern="13"
			PatternInstance Time="42" Pattern="19"
			PatternInstance Time="43" Pattern="20"
			PatternInstance Time="44" Pattern="21"
			PatternInstance Time="45" Pattern="13"
			PatternInstance Time="46" Pattern="19"
			PatternInstance Time="47" Pattern="20"
			PatternInstance Time="48" Pattern="21"
			PatternInstance Time="49" Pattern="13"
			PatternInstance Time="50" Pattern="19"
			PatternInstance Time="51" Pattern="20"
			PatternInstance Time="52" Pattern="21"
			PatternInstance Time="53" Pattern="13"
			PatternInstance Time="54" Pattern="19"
			PatternInstance Time="55" Pattern="20"
			PatternInstance Time="56" Pattern="21"
			PatternInstance Time="57" Pattern="14"
			PatternInstance Time="58" Pattern="17"
			PatternInstance Time="59" Pattern="18"
			PatternInstance Time="60" Pattern="16"
			PatternInstance Time="61" Pattern="13"
			PatternInstance Time="62" Pattern="17"
			PatternInstance Time="63" Pattern="18"
			PatternInstance Time="64" Pattern="16"
			PatternInstance Time="65" Pattern="13"
			PatternInstance Time="66" Pattern="15"
			PatternInstance Time="67" Pattern="15"
			PatternInstance Time="68" Pattern="15"
			PatternInstance Time="69" Pattern="15"
			PatternInstance Time="73" Pattern="14"
			PatternInstance Time="81" Pattern="22"
			PatternInstance Time="82" Pattern="13"
			PatternInstance Time="83" Pattern="19"
			PatternInstance Time="84" Pattern="20"
			PatternInstance Time="85" Pattern="23"
			PatternInstance Time="86" Pattern="13"
			PatternInstance Time="87" Pattern="19"
			PatternInstance Time="88" Pattern="20"
			PatternInstance Time="89" Pattern="23"
			PatternInstance Time="90" Pattern="13"
			PatternInstance Time="91" Pattern="19"
			PatternInstance Time="92" Pattern="20"
			PatternInstance Time="93" Pattern="23"
			PatternInstance Time="94" Pattern="13"
			PatternInstance Time="95" Pattern="19"
			PatternInstance Time="96" Pattern="20"
			PatternInstance Time="97" Pattern="23"
			PatternInstance Time="98" Pattern="14"
			PatternInstance Time="99" Pattern="14"
			PatternInstance Time="102" Pattern="14"
			PatternInstance Time="103" Pattern="14"
