Project Version="4.3.0" TempoMode="FamiTracker" Name="Famidash music" Author="Famidash team" Copyright="NO TOUCH"
	DPCMSample Name="OrchHitF.dmc" Color="a9887d" Folder="Orchestra hits" Data="ab391a1c6e9ef3dc11302106f2cdeefb7e0c0b853ec1c08fc617ff6518ec0188486e7400f0effdffffd30368423e7d6af8030f081e0000fcb3cfed0070f9fbc2070018fdf71c24370ff8ff1070b8ffffbe12cd1d7fc31f0000808863ff2230f31ee67f065fc401f8ef07e00623600f6160f0f3f9f3377cd0eb30c31b00f07ff0dffb4ad9d8f88273103060f832f63d0820f88c7f389c153cb6bd089f32bc6d7b34e4095ef73f480330dff3fb9e25008eff790012008bfe87013cc050fc771c9ee06cfc31bfff1e7fce000a36301f7b14c73800307ecf031ec097ffc7df2f000cff51827318fe6100e730c6f70ea3311ce7799fc3be0df8bc7f008020b8f879f071007ee03fec611c7ef007ff3e806d3c073c60033ffe60210e000cff7fdd8384ff7f8f631a85831f870984e381cfb106e2f887e3008f718cef79847f38ce373cc63f10e03f3ee01e14e00f0f800f3cf8c70f8d0f3ef4f39bc5c300f4f9fb021800623dfce71d0e82df78039f7e9d071c02c39eff6f8701058c800cee851ec777fec3035f7fb0c13098c331ce67f8e7231c80789ce31dc8f10ff2f118dff80e40f28d7efcc04b3e8030cc9318ff87273c808ff7cc0ff80107f8f307fd888770c0037cece37ee3813ee97883e0b8f36098f2799c5b0cf87d10e43808ee3b88f31f62fb0bf07847789ce471dcc30d5e490c863006f778df6f19907d98e3970ec4748cffc1036c2f74687251c2037e3f7098a1bf1f889c8fe3908f27ff32608cc621cee8216cfd372f02b8cff0883f78304f3ef03f00e01f78a11e4f983fff140700d0df7f80e13fe8733fc83107704206fcf0a778e6537d1002efddc2465e28e67fec871ab0c907e198c774318b78e304bbf09b333116d7f98f6b2e88419d8e308cc5159ef029d7ed80ebcb60d1d6e0df76a48b3a80d71a79229ff0588196e80db5fb711cd0ebaef2d12c718442be5c4c305eb59a8a5d1f25935d190cc32fbfa50eb75a0d707c8b91b8c732d80357bc072ebd288b967b0bc72a5da6410bbf428a78e619b387fd93c2a25da0d43cdc4d7d40bf1ca886bf80274b370ee541fe89924dddc1d2354bb3bce2e82cc2119634aa639337b75abd36ead0824baaa872bdd5a18e792192e4701f21553f78ca9bbaf564d5c81594695db5402e5b8a8632d32395a9bf6e55a5e96129ed4a89b870f3da48de588c625c8d4c2e7569a7938c8fdba8e7b04467acdc6a28e1182c721a5ed98d6efb0eae580b57aa854caad3aab7c98a6a289256551657b6d4b7aa5513adaa4d95944bb2955dda84224ba9aa66555a6b6d2d5729cd5696c929257595d6f214c5a84a6bcad46aa9576a5357b8a46dd42255ba329dba958aa52a4bab94aa354d6bb68db22a4b6baa8a5655494db5254b59a996b19aba6a9555da4a555965b3b44a55aad44e6d310d35694dda2a275769935aaaa5555323ad6a5955aad52a4d1955d552d656554bd5aaa8a5a9aa524bd56a55a556ab94b4aab232555575d552adac545ad552aa4a5576a5aace6a2555a9aa6aa9a65aa5aaaaaaaaaaaaaaaaaaaaaaaa"
	DPCMSample Name="OrchHitF#.dmc" Color="fffc69" Folder="Orchestra hits" Data="d51c0dc3cd73cf1cc00919c89ffcfb368745826f10f8c13cf93fe3b0070050767000f87bffff7f3fc002f2ada9e10f4e100e0000fefcb91d0097df171e0060faef8db09907fe1f0286fbffffd96037fc871f000040c2d95f0466fd60ff335c0907f0ef0770c211d8210c0c3fcf9fd7f425d761871b00f81ffcf37e998d8e278c4142c0f826f61e0600bcb38fe013faaeeb07f035fcff3f015b86f742d3c006f02875780a107cd28e87bb81a3f945784afcda7a3cf400affb4f6800e6bddf7796001cff79001280a1ff2180078ce5be637882d9fc31bfffcf9f3300c102fbd1a318e300607ccf030fe0e5fff8ff0640f84f18ce21dc6380e710e3fd8338c671def31cf31ee0f9ff0000105c7e1e380ec407ffa18773f8e007ff1ec017cf81072cf0eb0749340038fe7fdcc1c2ffdff3484338f8312c10c613cfe70307fce3100078e47fdf398e438ce779e33b8060c07f3c0718c7fdcff10770dcf308f340831e1e000f1cfcd747e3c147be3f2d1e03c0f7f7070000b10eff79c343f8861ff8f4751e3804439fffbb6380801848702ff81cdffc83479f7bd8300c7238c67cc73d8f7100e238e317e4f807791dc71fef00826ff4f183573c4018e609c6fff8c00378fc673fe0030ef8f9073ee6011c78c0473ef78f0778daf11670887f0cf2b01ff439417ed800b44a98bfff100770ffe183f997003ee0b81f10fe008e7796f33f21b8433c6f3684e398ffc401b6073b1c3c461cf0fbc10313f71f489e8f71f0e1e55f06d4480e714387d8fea71703cc733ce00f0ff1d283ff00c03fb8a01f27ece79fc50000faff038c7f50ef3ed4a10338d0011e7f4537bdea0314bcbbc50c2f14f33ffd41039ebc00c79ee2718cf0ce011afed2871ae069f77f9a011c771cc81ee0ce871ca7279cf8f0533dc0903ffec6071ce48743bcc0d36638931b2eb8c3b78ee118eef9e6b18632c4a20d9711e6726a55ec7a4a26db320cc397bfd2e2967380e35b8cd01767c8032fdd03471f63d4ba733856e95483167e05159cf34af6b0bf141ced02b1e5b19bfc806f0e54d11ff064b972280ffc16431bfd60e39555b8cf8cae012b7042b1beaa1e9fb42f6bd4410ea458877dea9ad3d8908bde48ce23b8e4b1e6b586358e64ba72f8c3238735150e2c5aaab1cacd5babde461d165c5245957bab438fb910491cfa23c4eac353ded4ebd2b4910b6aaacb96c8c42934b22a9e5c4777dfc1156bb8522da452a755ef64453524d1aacab8b2a5be55ad265935a74aca25d5b24b1b9254495555abb495db565b52ada5a33452499d7acc650d552acb54c732e63655e32ae5f4e294ae14d515ad75896254a52d995a4bed4a9bbaa8295b69492a5d994bbd52b154655aa5346799d66c476595a55555a9aa54dad49632a9d19ab49a8eadb4514dd5b46aaaa455cbaa52a7559a2aac6aa96aab6a695625354d55a596aad5aa52ab5592565556a6aaaaab956a59a5b46a2955a9aab654d556ad948a959aa55675294bd3d2a55ab2a82adb52a56aaaab155a55932d5965d5aaaaaaaaaaaaaaaaaaaaaaaaaa"
	DPCMSample Name="OrchHitG.dmc" Color="3ca598" Folder="Orchestra hits" Data="2b47c3383bf7cc084cc0247fb3f73ec702c313063e8a37ff1b863d0020d97000fcbdffff5f4f4820cf5e8e3f3820180000fef6dc0ec0f5dbc30100e3fe37482e07fe3f01c3feffbf1a76e32ffc000080c0b17f04337fc8df862f70007f3fc00923b0230c849fe7f735bef41c33dc00e07ff8e7fe88cdc60b6348080c5f31ff1000f0e61fe00bebd7b901bdc5ffff1ac813de0be5810d70941a9c02825f7c78b80f8ce687f09af85a3b0f7c607dff810630effccf790138ff39000460e87f04784028f79de105f3f831ffffe3e7062848b01f3de2980280f88f038ff0f23ffebf00847f54708770c700e718e3fe218e31ce7bcfb0f780e7ff0100105c3e0f9d03f8e01f7698e3871ffc3dc035cfc1001e7cfa21810380f1ff738785ffdf73ac011e3c8e01433cf1bc0f1cf0c7310038f4def78673cc78ce3bcf018200ff3c0718e3bf73fc21c63dcf90030d7c78000e1cfcfba1f8f0e1f7cbf21000dfdf0f0000b18e7fde7009feb881a7bf79e0008ebcfbbf3120600218ce45cff1ee1f0e7dfed0210c331c31dff1ee110710c7985fc0f10f791ee38f3780f00f1f3f78f20160cc83ccff58c1013efee9073e70c0c71ffa8c231838c0b3cffbe3006f396f8403fd31a4b11ff859a01f3600c701fbfb8738c0fdc70df997001e72c607c23fe078a796ff83e042383f0ec3d167bc73045f8b20c118e6bcef3b039ad39c2f2d603af30f1ed0bce830394a38f0fde1c0c4df07e1798c238f97ff0c88498e38d121b6ffe523c01ee3811f1fe4ca83ff00c01f2ef8e1c27efe190300f4ff038c7fd0bb0f395a80031df0f01bdd3ceb0314dc7b61c30b69fed38f32d0f2029c3da2730cf8678086dfeca8018fbbff690318e71c280f38f721e778c2c587cff400837efcc70786f8e1101f70ad434d6db8b016df4e618cbbbe79ca21438cea5845c8cb6655ec7a4ac9ae0c61f4f94b1d5bcd018e6f8c708f15ecc08b3f70f49146ebcee158e55283265f210567be641efb4b61b20bc4e6b1ab7c609f0335fc014f961b873cf00f251bfde0e84d15ee8be91ab08825c4faaa3abeb4cf167590038c75d8abae36e34287de48ce09ba78aa79ab58e388e9d2e10f278d3505078b965aacdcb9b57a1d7558703145957beb50670e86c2853f50aa1f4e79d5edca9ce18232edaa095c3645435c7aa44cbfdd29533d2c65570a71b2791da9cb6294b24a26a72e6d9d149f75d13396b864d5d590700c46cee2ca1bdd7d87166bb8522d98d469d53759544322ab2ae3ca96be55ab4656cda9925c52ad2e6d4852295555abb4e5b6d595d46a3aca282575eacc650d55ca32d5b1c4794b2da794d38b539e14d5256b75a214555a93a975b42b6deac2293b69914a57e6d4ab144b966595529da9d66c4759a5695595ac4aa54d5bcaa4469bd29a96ab7452532dada64a56adaa4aad569a4aac6acabaaa9aaa55d25455955aaad6aa526b95a2559569aaaab65aaa65a5b4aa2555a9ca2d559dd54aa95869965ab5a92cd3d4a99a2aaaca2e55aaa6ae5968558d2d5959aaaaaaaaaaaaaaaaaaaaaaaa"
	DPCMSample Name="OrchHitG#.dmc" Color="b5c2ff" Folder="Orchestra hits" Data="35c741dcdc3d1bc1400cf8cbdffb8c05c313061fe6e57f62d00340688703f073ffffff0734c0b3abf18703c00100f0f9bb07c0f3eff00040f87fa32479f0ff048cfdffbf0bb3f10f3f0000009cfd26c8fcb0ff848f3880ff0f704104394221ec9edf6f7cf41c1b2e00f80fffde9b78345f8c2110185db1770800dcf903bcb1b76e0ff01affff13681bef4279a0014ea9e114102eb5f1b80f8cf2233d16deabe3d403eefd070a60ef7def9c00cc3f0f900082fe33600151ee9de18579fce8f77f7e6e0042837e748c9902c078e7c0235cffe7ef0d20fc11e30c71cf007788f8774831c7bcf38edd07defd0300002edf03e3001ffca9c71c1f7ef07b8035efe080051f3f1630008cffcf1d0affff73c610079f21218817e77d70c01f438030fadfbbe31c31cef9f31c0006fc730e10e7fe397e9071cf1573c0a0e3013838f8dba378f8f4f9b61c06e0fd5f8000c01afffce1086f7ce0e9770f0e40ecfcffc680400418ee8277bcfdc3d1e7870d23cc3066bcf1f711038871e30f18ffd0f3983bfe00c14b9f1f9c7900887388fdc7030ff0fcd30f3c70c0e7873ef18003033e79fe8f039e3a6f8411df1c70fc039f05fae1001c13fafb8718c4fef151fe11e081335f00ff80f18f96ff617010cee7601c3de759137c1e40851876dcffce007bccf97480e3cc3f38e01d3cb48c120e7c3f1c0cf71f88e731071f97bf06649a21a61866fbb7ab007bccb9ab80e9e43f3cc03c3c348e1207fc1f0e0cf71f88e731078f977f06648a31361c62fb9f97007dc6111f1f72f2c13f00f8e1821f07e7fb570400f8ff03c21ff6ee5147063868c0c33fdcf2ea0304f73e58f282e63ffdd040cb031c7be23126fc1ce0f0cb8e1670fcfe670e60ec1ca807cc7dc89c279c3c7c95070cfafcc707067e38c403e76cd4e485835bde9ae1887bbe9d6ac810a38d65443c9b55f17a4acab6c2107dfed2e2ce1c50bd25c23d66e8c1d23d587ca4d1da1dce94cd0c9a7c210567bea4c7fe121cbd406a8e6ff2812f0735fc8195e5c6a883fc51727487a59755ec8be91aa8c089b0bdaae3cbbe6ad441062c75d8ab6bceb8e0e28de49ce0c2abb5ad38e588e9ecf0e3c8615338305caab172bbb57a1d35169c5451b9b70e1dbb1012877b42aa0f4fdef47aaa1a2ea8b2ab2670b944436a3a29d35f772ad5c3525e29c4e17a6da4c752c4b4926969d3d691f1dc45d758d864d535941843c934bcbad17b1f5aacb1520d19d559f58d253524b2b22c2b5bfa55ad464e75aa2497d8b2cb8644a65455cdb4e5b6b325b59aa6345252abc79c35542963d531636e53cb2955bd38e54a5297ac75a21855da646a4dbdd2a62e9ab463452a3de6d42b9592655929cd9969cd1d6595694d55ac4aa5d3962a6ab426ab5ab5d2514d2dada69156adaad269a5a9a8aa25ebaa5aaa55d23455a5966ab52ab55649565596a9aaba5a6a6529ad5a4a95aabc52b5564ba658699659752ad32c9daac9a42adb54a9a6b6596855634d3656ab545553b5aab452ad32abcacaac2ab52ad3aaaa4aaaaaaaaaaaaaaaaaaaaaaaaa"
	DPCMSample Name="OrchHitA.dmc" Color="ff8f8c" Folder="Orchestra hits" Data="cd318ccdddd9092630e0b6bdff8c85e085c1c7bcfc27861e00a00d07e077ffffff03057a7a153f1c800600e0f3b30fc0f95f3c00087f6f2ac983ff1318fbff7f0dddf847070000c0d91f61f243fe0d3f38c0fd074c9820071443f37ebff1d21d133e00fc87bf7f914df3620c8460bc60ff08004efe802ff4d7ee80d7f8ff2fd032eec23d50801339dc00e1ca8dc33f18e54bb816afd579f4c0bc7fa40073f7bf5b01cc3f070880a0ff041c10e5fe0c17a6f9d1ff7f7e378090a08f8f982900e21f034778fee7ff03087f4a98317708b823e6fe9022e6dc3b67efc0f37f0000607d0e8d411efca3c38e0f1f7e0f78730e0e347c7c48700088ff7787c6ff77ce0a71788c84100fce7f70e08711200efebd3fce8879e6ce392104fc7903c4d07fe78739f367c20163f40c1870eedc21678cb873e28f333f8efe01e0cf033b0cf8e1000b07bf1fc5e3c3f7ad3902e0fd3f0000a8e3df0b0ff8e383c76f0e0e60f4fef71108882061179ef3f68fa3e7878d11628c9937fe9c31008e991f64fe907bcc8f3740f8d1f3c3c90360cc21f38f170e38fee5830f0c7c7ee493030e0c7879fecf012fdc0f70e0cf81631f7c16e4e301980afaff2107d83f37e49f000f4e7c10fec078c7e37f1806e17c0ee2f88d7323f81e0273087d43e61fe93fc0bc83e3c2997b2c7c3041840c3bf7ff1aa0c7ac4f0b8c93ff70c01d3c4c8bc481efc3c170ff209d678c1e977f039264cc4447b4ff7904e81b077e3ce4f2e01f007eb8e073e09fbf3100c0ff07c61f7cfbd0e100830c3c7ec5cdab8710fc5e2cf890f9e71f1ab03cc0ec89c70cf81be0f8b1a3069cdbff6a8071e3a01eb07bc89c272c1edff480a0cf7f3c18f8e1c007e63cccb4e1a18b9f13c6b8f3efcc1003de8418c7c28917df1e585f70e806ff3b7474806bc3133e380b34f121f7671cf0efe4292723841e4f81bc5a357c9e52f22a0cf1f18f8b9b73c0bc25c48f193ab8f403c747466b773855ce0c197e41c1d98bf6e82f61b403691ebbf4811f07157fe0647a8c39f017c9d10f8e9755ec4dba068a9810fbaa1e2ffdac3143062c5df4eaea340e1dde9075828ba7e6ad3163a2ba3a7c9c1c568583a2a9c6cae7b67a471d062715957bebd09943241cfe40aa0f573ebdae6a92832abb6ac0e51245593a29d5df9d4af530e595421cdb75c19b52c4ac6172daf4b414cf1d3d638593d555941861e40caf6edcfd61c5864b35a4d459f593451d88ac2ce3b2a55fb51a39d5a92497d8eab221514955d54c5bedce96d45a8e3452d2e9316745953256cd12bb4d8d2b65bd387992d4256b9b8851658ba939f5d2aa2e96ec6891ca555abd524c9565a5549b6acd1d5565595345ab4a9aba64ca5233d6b4b5aaca96aaac9c69a54a959e36a568b1269b39aeb45153cb6a1a69b5ac4aa79526c3aaa5daaa966a154d53556aaad5aab45a49565569aaaaad955a96d2aa2955aaea52b5564b295a9a65559732cdb2a926932adb54a9a6ae165ad5d862632ddb54aaaa951a2bb5544ba656ab542ab5b255abaaaaaaaaaaaaaaaaaaaaaaaaaa"
	DPCMSample Name="fdbass A#" Color="91c76b" Folder="famidash bass" Data="fffff2f701ec03308024014362b49b3cd8803f07d79f82e6c98cb813113f71c0dd7bf8ffff3fbd6f02f60f008018021c50e09f3d60c0df02fa3724f707c0dc01068f78c0cf3ffcffffbf7ff701ef07008090010e08e8ef1c70e08f0f197732f203e0d881800779e0e7fffcffff9fffb703fb0700408c000f60f8870738e0c707d73c067b0360e48081077c70e6fffcfffffffff700ff0300c003800f60f8870f38e08787273e06bf0038e00180833ef8f17fffffffefff7b00ff0300c003807320fc07071cf0c707673c037f0070f00080613cf0ff9fffffffbfff7c80ff0300c003c03c80fc83070cf0e7071fab00ff0070f000001c1ff8ff1fffffffefff7c80ff0100c083c03808efa3020ef8cf81beac02bf00e07000801c1ff0ff1fffffffffff79c0ff0300c003801d88fec1030cf8ef00bfaac09f00c03a00002f1df8fe9fffffffffff0be0ff0000c029001f48edf5000cfc5781af2ad49b00003f0000be0afcff87ffffffffff0fe0ff03008025005788def60100fc7f017d29f89a0000fe0000ec82fefea7bfffffffff1fc0f70500c005005d22adfd4200fc3f01ef22e82f00007e0080da827dffabd5ffffffff7fa0fd0200d00500ada4aade5501f05f427b05f8960000be0090aa44dffe6ea5ffffffffff607b0500d01300aaa4aafab600f8b7a0de04f42d00007c014855c15eff6e21ffffffffff53bb0900d0154024a5aa7a6f00f8afa46e01ba2b0200b80289aa90bbfd3741ffffffffffa9760500b813109152a5766f00bc5f51bb01b437080070424855a1b6fbaf80feffffffff55dd4400e825844452a56eaf00ba5fa9de0268af00007011a49a48dbfe5d02fdffffff5f6bbb22006a4b4244aa926d3701ba5fa9bd09d05e0100d084905649d5fdaf80fcfffffd5fdbb61280b4952442ac94ad3b20b66faa7b0364bb0000a81222ada4aaf76f04fdff7bdfb7edae0904694b4942b252ad9b20b5b7aabd85d0b60400a84488aa5255bf6f42faffedfbaedb5d8920aaaa5211a9526baba06a57b56e93a45a09005249482a95aa7d5f49f6f7eebe6bdb6e49445255a922a9aa5a2b91aa5b55bb2aa96a118094929054a9d4ee5ba5da77b7f7b6b65d2591542a5525a9d26a5591aaad5a6d9532ad2204a914494aa5b2ba5b55ed6eb7bd6d6d5b9524a554aa4a4a556b5589aab5aab62a55554542524a4952a5cadab6aab66dbb6edbdab64a4929952a955255ad9652a955ad5a55a9aa9212a554524a95aa5a5b556bdbb6dab6b6b62a954aa554a954a5d5aa54555555abaaaaca94925229a554aaaa5aad56b5b6b65a6badb5aa52552a552a55aa5a5555a9aa5655555555a54aa9542a95aaaaaa55ab6aadd56ab55aab95a6aa52a55295aaaaa5a5aaaaaa55555555a92a952a95aa2a55ab6a55b56ab5aa56ab56555555952a5595aaaaaaaaaaaaaa6a95aaaaaaaa5295aa54555955b5b2aa55adaa5ad5aaaaaaaa2a5595a9aaaaaaaaaaaaaaaaaaaaaaaaaa4a55a5aaaaaaaaaa5a5555abaaaa56555555555595aaaaaaaaaaaaaaaaaaaaaaaaaaaaaaaa52555595aa55555555abaaaaaaaa6a55555656aaaaaaaaaaaaaaaaaaaa55"
	DPCMSample Name="fdbass B" Color="8bffff" Folder="famidash bass" Data="ff7ffb0f037b0400091878e0842afbf1807f187a0f987d180a3d1d7860cbaf3ff0ffff3fe55f86fc000018083ce081993778c0efc4b8079eae81c10f0c3c20d2fb3ff0ffffffef7f043e000887046cd080831f7ce0368ce703cee700c407072e80f0fddff8ffffffff67825f00000702781ce091073ef81e84e503677700c083070e00f8fddffcffffffff6f811f008403023c1ee0c0071ff80fc4e1c1f43700c083030600fcff4fffffffffff4fc10f008303001e0ff0e0831ff807e2f001e63f00e081010600fdff8fffffffffff37c20700870300ae07f0e0830ff81771f100fa1f00e001000708fdff8fffffffffff37e00700c30100ef03f8e0810ffc47f0e000f71f00e000010740fbff8fffffffffff4fea0700e00000f70378f0810ffc0fe07800ff16007820800340fbff9fffffffffff07ff03001cc000ec032cbbc083ff0fc02a50f80f00f001800542faffdffffffff7ff47ff03001c1000fc06d4aacac0ff0fc02a80fe0500f802c01201fdffaffffffffbffd3fe0700a80800784555d5aa80ff1f405500ff0200f802505a00feffa7fdffffffffd5fb030068050070a552ab1dc0ff1f805600df04007c05902d00f7ff55fdfffffffff4ef0200d80400a8aa52ad2f80ff1f202b005f0900bc01922d00b7ff2bfdffffff7ff5fb0500d81200a0aaa4b62fc0ff1f805600b70400f600491740dbff2afeffffff9ffafd0500b60900a0aaa4ba0fc8ff1f901680ad0200be00c91640ebff4afaffffff9fbaff0580da120090aa92ba17e4ff0f420ba05509006e01a40b90f5df45faffffff8fec7f0b406d150044aa92f626e4ff0f910aa8aa0200bb20d01690da7f23faffffff4bdafb0b20db4a0082aa4aee8ae8ff8f4805644d09005d01a20d21f5ef22feffff7f15b5f72590b61a4140aa4ab625b9ff4fa422d0aa04803609d04a44dabf92faffffdf4ad5de15225b558420a94aad25b9ff97a482a8550220ab04512589eabb49feff7f77956abb25a2d62a4990a4aaaa29b5ff2ba584685542405522a85292b46fa5feffdbddaaaa6d95a46a554a8894aaaa2ab57f5b2989a4552290aa8848a524b5db4afdff6d7753d5d692545555254952aaaa2aabefd65212a99624445512514a29b5adaafeefb6db965a6b2995aaaa4a494aa5aaaaaadbb6aa24a9aa28922a4552524ab5d6caf6f7da6dad6a55534a5555a59252a9aaaa6adb5a5549aa4c2949a99292524ad55655bb776bdb5ab56aa95455aa4aa552a5aaaaaaadd5aa942a552a29552aa5542ad56a556d77adadb56ad554a5aa52952a5595aaaaaab56a55a552952aa552a552a94ad5aaaab6adadd66ab5aaaa2a4b55aa4a95aaaaaaaa5aadaa2a55a5aa54aa54a94a555555d55a6bad6ab55a55555555aaaa54a9aaaaaaaaaa55b55455a9aa52a5aa5495aaaaaa5ab55aabaa55abaaaaaaaa525595a9aaaaaaaaaaaa5555a5aaaa4a55a9aa525555adb4aa55abaa5a55ad2c55555555a5aaaaaaaaaaaaaaaaaaaaaaaaaa525595a5aaaaaa5a55adaaaaaa56555555955aa9aaaaaaaaaaaa55"
	DPCMSample Name="fdbass C" Color="e783f8" Folder="famidash bass" Data="ff3fffd7605a00000489072cbaf465003f1fb92e619f8121a7910f1afeede5e7ff3ffd7c807f00010380031ab8fc81037f09fc65c47f011097810f38feede1ffff7ffe7d067f00800380011a38cf43037f08fe6cc43f012007810f38fce7e3fffffffffd0c7f00800300031994ef41069f07fc61883f010007090f38fcffe3fffffffffb1cff00800300071898fbc100ff01fe3180ff00000f000f38fcffe3ffffffffff80ff008003008638c8de8103bf09f66180ef01000f000e78fcfff1ffffffff7f41ff000007000e3888ff8103de03f31183f300001f080c78f2fff9ffffffff7f83fb00200c00361884ff0103fe07f123816b05001e0014f8f1ffe3ffffffffff81ff01400400760881ff0107fe07f04780bb01003e0030f0abffe3ffffffffff81ff01c00000f40481ff0306fc0ff00f80e701003e0020f8abffc7ffffffffffa1ff01800200d815a0fe0302fe1fc07f00ea01003e0200dadbfecffdffffffffc1ff00800500600f90ef8300ff1fc07f00d40200fe080054edfeaff5ffffffff87ff010056008016c17e4b02fc3f807f006a0500fc050058d9fedfd2ffffffff4fff01005a00001b48dfab00fe3f00ff00540500f8470028a9fffba1ffffffff9ffe0300ba00002c487bb701fc7f00fd00540300f80f0094547fffc2ffffffff4fff0100bd01002441bd7d01fcff00fe00a80500f04f002891fd7f43ffffffff9ffe0300be01000991daed02faff00fe00d21200e037005492f67f43ffffffff4fff0200fe02081284da7503f5ff017e00a50500e03b01a848f6bf23fdffffff4fff0100fd05824820d97545f4ff017e01521500c06f024889ba7f0bfdffffff4bfb0300fd0d412490d4b645f8ff03fa08485500c05e1148116dff46faffffff13fb0700fa2b424890d4d64a78ff07f54290260180bb04a4446af72bfaffffff25fd0b00ec9b442444b2da4a74ff8bda22221501c0b6244889d4be97f4fffffe95fa4b007437252241a95653d4ff956c2591920048ad129114557b57d9ffeff74ded2b04d4ad4a9210a5554bb2fdab6a25499204905a492425a976576bffb7dfabda9b08d25aa59288545555aabd5bb54a49494420b5944449a9b6addafbdb7e5bb55b2252ad4aa544545555a9f6366b554a291242a94a4952aa6a5badf75df7b66a5b495455552a254a5555a5d5add6aa5449514852959254caaaaddaee6dbdadd5d694a4aaaa542929555595d55aad55aa4a4912952aa59452b556addd6d6d5badad4a29b554954a2955555555ad56ab2a554a494a554aa95255ab56dbadb5ad56aba55255aaaa542953555555b5aa5655a54aa5944a952a5559d5aab6b5d55aabd54aa5aa2a5595aa5455555555b5aaaaaa52954aa5aa54aaaaaa556bad55abd5aaaa2a355595aa52555555555555adaa525555aa5255aacad4d2aa5aab55b55a55ad5455a5aaaa545555555555555555555555a5aa5455a956a956d5aa55d5aa6a5569aaaaaa4a55555555555555555555555555a9aaca5255d554abaa555555abaaaaaaaa52555555555555555555555555555555aaaaaaaaaaaaaa56555555d54aab5455555555555555"
	DPCMSample Name="fdbass C#" Color="ffac7f" Folder="famidash bass" Data="ff7ffe27d0070090088c7830f24f00fe39796e94dd00a61378c1f5f507ffff7ffa3f683b00800070e0c1e23e047e067e5b843e01d807e081a7ef1ffefffffcffc977002000c0c100873f1cf859389709f901209b84070efe3ffcfffffbff87f7010006000702cefc30f063e1cc19f0078066100e38fcfff0ffffffff5ffc06000c001c1078f2c1e0cf813b66e01f00982038e0f8ffe1fffffffffff03500300070c0e0f007079f03af19037f00c1806080e7f3d7ffffffffffe37300c000c080c16b0f067e07bc710cfc0104020301ceff0fffffffffffd7d7018005000304f97f40f047e0c310bc0f180e04003c1f7ffcffffffffffbd070016002024ccff40e03f413703e01e40311800f09ffef1ffffffffbffb0e002c000011b8ff03c0ff01fa05807f00a04300c07ff8cffffffffffffa3f00b000000c60f70f04ff0fe01f007c00a08f0040b7f33fefffffffffd77f00c001003001fe9f00ff0f807f00f00300fe000066f7ffb4ffffffffdfff018005004005f85f13f87f00fc03c00300fc03002cf5ff5dfeffffffbffd030007000013d0bf1df0fe03f007800f00e00f023051ffffe8ffffffffff0f003c000010a0fb7ba0fb1f801f001f00007f04a042feffa3fffffffff71f007881008000fded21fe3f007e00fa0000fc208005faff8ffeffffffebff00e02500000274df15faff01f801f00200f083000de1ff7ff8ffffff67ff05c09d080000d0fd9ae4ff07e007e02600c00b012c82ffffd1ffffff97fe1700df24008080ddaba2ff1fc017405b00009f00a882faffc7feffff57fa1f00bdab000280ecae8afe7f005f80ba0000de08a084f8ff17ffffdfb7d47f01f0ae0a080069bb4afaff017a01ba090078094025c8ff5ffcff7fefa47f05c0dd9a2000a4dda6e8ff0bd805d21500f02a002a88defff2ffffdd95fa2700dd5a91008876aba2ff0f6227a49608c056022841daffaaffffbbabec5780d4d6940408d5ad4afd5f442b915a4480b6044811d2fdcdfeffb7d7d4bd0251abaa2420aab6aaeabf92aa446a2201b54a208948fbaef6ffbbbbaabd254455552581a4daaab47f53aa24a98a02aa9510492475afb5ffdbbd55db55a254552905496aadd2faabaa92a42a0a9295124992d46e6bf7afddaddaad2455aa2a25a254b552eb5b555552aa28224d25494a52db5afbdeba6db56d2aa5aa4aa5884aad2aad5dab9652a99444a94a4a5252b5d5b677ab5bab6d552a5555aa24a9aa2ab5da5aad52a9524a52a9945252556bb5ddadb6566bad5455a5aa9494aaaaaaaab5aa55aa4aa9a454a9945255556bedb66aabd65aa5aa2a55a552aaaaaaaa6ab5aa4a55a952a952a994aaaa556b5babd56a55cb5455a5aa52a9aaaaaaaa56555555a9aa54a954a94a55b55a6bad6ad56a55a9aaaaaa54a5aaaaaaaaaa659556a5aa5255aa4a55956a556bb5aa56d5aaaaaa2a5555aaaaaaaaaaaaaaaaaaaaaaaa4c55a62a5555ad6ab5aa6a56d54a55555555aaaaaaaaaaaaaaaaaaaaaaaaaa545555a9aaaa56d5aaaa6a56555555a9a9aaaaaaaaaaaaaaaaaaaaaaaaaaaab45455555555b5aaaaaaaaaaaaaaaaaaaaaaaaaaaaaaaa55"
	DPCMSample Name="fdbass D" Color="ffff75" Folder="famidash bass" Data="ff7fff01f6000068c1c082d73a00fe33d873f83230d902d3daf23bfcfbfff9d7c19f8000002c08e8ed06c03f039f0f7f00922d30382ebfd3ffff3ffe3fde020804802601f96e00fc32f879f007a0d00102d9f577ffffffcbefe35b804000700cb0cf81a15f061f077e02263c00309cfdefffff7ffe3e7f1c0000808d00ff1830fc87f0e3c037c0c00300c5f9fffcffffe7dfe7c7010100e00870df01c2ff103e0e7c060c3c00209cfcfffffffffcfff91c008000ca80f21d10fc8fc1e3808f80c10300e3c0ffffffffffff8fc7010204800d187f03c1ff207c02f809187800309cfcf7ffffffffff783900c000e001f23f20f81fe007007f00c11700c6817fffffffffffdfc303000c000730fe0706ff037c00f01700fc00c038f8ffffffffff7f7d78008000e000e6ff00f07f401f00fe00c00f009887fffffbffffffcf87070008000ea0df0705ff07f001f00d00f8018075f8ff2fffffffff7ff20000006002f2d715f07f803c00f700801f00a4cbf5fff1ffffffffaf0b000000055077f702fe0fc007601f00f00120d9aaff1ffeffffffff7b0080004000b6de37e0ff017800f503001e004aadf6ffe1ffffffffbd0f000c0000d0bcdd05fe1f4007585f00800340d5d4ff1ffcffffffdfff0050010000b4ae37e0ff076801db030038009855dbffc3ffffff7fdd1f102d000080ba6d13fc7f400d6877000003006b55ff3ff8ffffffd7fe03e802000068d72ec1ff0f7001ee0d006000a055edff83ffffff5fed3f803e00020075ed05faff801660f700000b00d854fb7ff8ffff7fd5fe07d00b4000d0ae5de0ff075401ed2b00600200ab6aff87ffffff36ebbf00bd000980ecda46fc7f0855a07d01004b006055fd7ff0ffffbba6fd87a027200142b7b644ff2fd002d52f005009002c55ff0fffffbfabea6f81dc0824106a6b4decff412a50fd02004b00a02af5fff0ffff5b2bf72b901b420221bbb6a4fe1fa212543f0068110052a9fd2ffeffdf56d56f056a432410a96b4bd9ff112a41f50601550820a5b4ffd1ffffb555ed2b419b444244bab692fd2fa21254dd10a812209452fd8ffcff5fadaaf71254954844a26d4dd57f152911d516419a08444a69ff52ff7f6b4ded5d4255922414d55655f5af921249ad12512942a494fa5bdaff6bad56bb95942a292249ad5569df4d2989d22a8952919054aa7d55f76f6badeab692aaa41451d25a55d6b7aa94a4ac52a4522452a96aafda7d5b6b55edaa5295528954aa5555ed56554a2a2ba5949244a954db56bbd756ab665d95aa4a292955555555dbaa2aa5b254299592a45255d76abbb5d6aa6aab5455a95252555555d55a5595d22a552a959452a9da6ab55bad56d56a55aaaa542955555555b55a55aa5455952a9552aad45ad5b655ad5ad5aaaa4a55a55255555555adaa2a55555555aa542a5555b36a6b55ad6a55555555a52a555555555555ad52555555a5aa52a9aaaa6ab55655b5aa5a5595aa2a55555555555555555555555595aa2a555555d56a555535abaaaaaaaa5255555555555555555555555595aaaaaaaaaaaa5655555555ab55"
	DPCMSample Name="this" Color="8d69e4" Folder="This is a time machine" Data="9555555555555555535555555555555555555555555555555555555555555555555555555555554b55d952cd5453ce545355655555955595c69559534d9555d155d554b5388e55351557a696595a711cc775548d71dc31463e87c339cc53e6180fe33cccd3617887b1271c3e0bf519359645ceb5347cc1355c39b5081fc7e11ccee31c638e71468cf363cc39e38c31e69c7138c6cd713c8ee1e33863ce391e77e018c7708e33184fe3380f7b0ee761189f618e98713c77c7183963618cf3e338c7e3781847fc0c8fe318cff09883f11872c7f8311cde313e4e8073e6ccc93123dec53db8731c9c01334fcf7923970f7f800338c00ff887f17c8effe00ff8c01ff0031ec00740000ef07ffeffffffff0f008001100497f631fee37f088f218e203800c3203cc3ff7cfe7ffedfffe1037c000a30801ff8030c000170d813fffbffffff7ffe07ff001c000000000080f3f3fffdfffff30ffc001e80010ee3311c101118800df8c7ffffffffffeffc70001880834000003006eff9ffbfffcf791c0770000ec0201cc7e37f381ec7e3701c8fc3791eff71cee37138128e83e140388ec3e1388ec7fff1cfc3e701e7c018c7c1188e610c73061cc7e3f1789ee3738cf3611cc7710e9c731ce7e01c1c8fe3e70c8ec3e1381c0fc7713c1cc7e3f8301e8ec7718c87e3719cc771388ee39c8fe11cc363e0380e8f719ce7f0380ee3781c8ee3381ce7708ef1381cc7f1701c8fe3388ec3731c8ee3e038cff1e3c0cce17118c71c87c7717c1c8f316e8e877386f1e1380ee31cc7c3713c1c1fc7c8713c0e8fe318c7f1388ec7318ee3383c8e73381c0e7f1cc7e0781ccec3311e8fe3e338388ee3701c67f0380e1cc7390e8fc371ce39731c1cc7d9718cc7e1310ec7b139ce717c1cc73c0ec7711c87e171709c39761c1f721ce3388ec7e3381ec7e1381e8763cce138e678381e8fe3701c67ce713c783c3c8c711c8ec70c87e3781cc7f1709c717c3c8ee3713c8ee3781cc77138e43838ce9ce3711c1c679ce3e0e3703cc671380ee73c1c072f8ec7f038c7e3381e07730e87733c8ec3713c8ee3f1380ec3f170cc73e0f8e1701c1cc7783c8ee3388ff1701cff001e8ec3338ec3731cc7f3380e87e3181e0fc70fe0713cc7c36388e3e3f1383c0ec7c73167f03c8cc781f182e7e083e7e0b83f780e9e191ec7c33dc00fe6e164fc00505555555555555555555555555555555555555555555555555555d5b2aaaaaaaaaa5a555555abaa4a5b55d5aa2a6d555a2bad2aadaaaaaa5555"
	DPCMSample Name="is a" Color="997c73" Folder="This is a time machine" Data="ee81c3381e8fe3618cf1c03dc31f0f3e0f1ec7710c8f07cdc1003c301ffee79fffc11f030108c001fee7fffc81ffe00d60d0073c030e831087c1f1fce7f9fffc3f3e080ee4c17ff28f7300000000000000ffffffffffffff0f000200c400008161c08ef3fffffffb7efb0e3e8307e6811fe0033c00010000000000dcffffffffffffff031c08010e0004008371381ccfe37f3fdf47cf7f86ffe003e7e00438c023c0004000089ce3ffffffffffffffe11010c4000c80010080c3f0fcfff7f87e3cff781c8ff3718fe3010c40100fc041380c1f8ec7f37dbefff7f1b98fe3313c8ec361000cc1000008c7f13cffe3791c8fe7fff879738ce3e1301c8661380cc230388ec3f1389fcfe77b9e1fcfe161188e6370188c1b033f80738c719e718ee3f1381ecfddf33ee38371701ce3e0300c03c70cc70de78cf3c7711c8ee7381e9f778e8339388e711806cc713c0e8f8373ce8f73dc1c67671c0e87c7611c07c7711cc7c1318ec7f1e318c7f1713c1ce7f038cec1e338731c73600e8383e3788e8fe3391e8ec3716676cc386ece70708cf1383cce7d1c8787608fe1713cc479381e8ffb1e8ee7017980c17308fb00fc0fff7c40ff6087c370060c8707c7e387ffc1fbfce07918c2e7f0100ec00078fc03ff87e77c900f36e00ffcd10ffe811ffc021edc0153a0000f88633efc77fc9fff7e00ff00c3ffe01f008003e0c003ff813f7e803fc0f11ffcff7bfc01fce198738031002000401e82ffffff4f7df938fec0ffc4a0ff803f00000600ea03f807cefc00fea0fdfffcff1dff0ffc318c9c010000000100a41cfe1fdf7ffcbfdfc7e3793c87e3f1181c2110040018c2e0701cbefbfffdfbe7fbda6bf584c1104218824150445294e638f7ba7dbeb39f7ba6368ae3145a47715c244a89802aa1f258eaf5d4f5d5d5b5d97a553527a95a62a528a9944869982c4d555b2dcf5b559dd6b2967166aaccd4a82c952a55aa346555d56cb55ad5b2eab4aa2a4b9563b1d254555559aa4a555535d5ca725a562d551d2bcba6292b4d555555555556695999a9aaaaaaaa9c66955555cdaacc4ab54c4b4d555555555555555595a5a56aaa522dab6a55956555a6a59966d5346d9a55a5b1aaca2c55556a1a2bb56879aaaab265a95665559a59564d55d594a956d5aad39aa45295542d464b9bae8c2769353d5c5636ad15c7d41c47952fc5964c5555555555555555555555555555555555555555555555555555555555555535005000c45555"
	DPCMSample Name="time" Color="ffe461" Folder="This is a time machine" Data="c70c3ea877f840fc303c1c0f3f1c0fc7730e87c3300eff701e0f83c3f8f3f83080e308f860cce7c3f3e3e161c0e361f887e3f1711c83c1e3f1fb07c303800fc0ff1efff7783c0c30107e78781ec3ef03cc0f86ff039e0180ff01ff83c13f00ff0f00ff0fe0ff00f80780fe03f87798cf00f0ffe3ff008c3f806700802feef10380ff07ff0f00fe81ff3ff07f00fe07007e00c001006cf8fffffffff71f180b0004007e00003eceffffff3f108007e08101803fe7c7ff11feff0ff00300f00f807f00ec3f00ff7ffeff01fe02008011807fc0817cfcff7ffeff03e01f00601b00500000ff1ffcff03ffffc0ff0300f003fe1f00c0ff43ff0700fc3f007c0000ffff01fee3fdff7f40fe03700000800100c00ff0ffffffff3fe37986070000feff03fc0380fd0f000e00fc1f8060d73fc0ff3f00ffffe1ff0300ff1f00380000f803807f00fcfffffdffc0ff0f00400cfe3fc00703c07f00f91f00d0ff612290ffff799c0ff9ff1fc00ff83f00000300003f0080ffc3ffffc7ffff03f80d6230c0ffc03f800310e207300077f8ff07c0ffe7e7fa0fc0ff83def800fe3f00000000f80000ffc7feff7ffeffe7e200b80700f807e0ff0f00f501005b00c0dff6fc3fdcc7bf01f01ff0ff0fe087ff470680010000017004fbffffffffffff8303000c0078e53b7d02f0ff00c00000f807c0fffffdff715bf80ff80f0fc00ff07f00e00300fc03007f00f8ff2fff1ff8ff1f807f00f003e0fc8f410f00000020c0ff00fcffffffbfff3f00fe00c0ff80fe07e07f00e00300fc0080ff00fcffffff3ffc7f00e001003e00f07fe0ff0f801f003c00c03fc0ff3ffcffc1ff2f803f00f03ff01f7e00ff01100000e00080ffc7ffffffff1fff0f000000c00f80ff01ffff630600e00180ffc1fffffdff018f013e00ff007efc03fe07fe01f80f000000008006fcffffffffffffff000000000000e03fff81ff53fdff01f80300fe83ff3f807fe02f08802300fffff3ff00780800f8010040b0fcffffffffffff0f76000000000000f0e1ffdc1fff0ffc8f19dce708ff07781c83601c82701c86efd25ff13ec7e33c044739104c601ce37feff13fff04ff011d80412006b01af087e79d1fdfad0fcf0738a70bf8037dd007c43104f906f91c545555555555555555555555555555555555555555555555adaaaaaaaaaaaaca55555555b6aaaa5a5555abaa5a5ad5caaaaa565555555555555555555555"
	DPCMSample Name="machine" Color="89f2e8" Folder="This is a time machine" Data="1c73b5ce310beb03ed5095c0352c8ef371dc73de96b643ad823682954825aa8bf2a2be51dfd13c7c8778477198aba2d41c25d54a0ce75978575c4b5f622f9a5256918671d078d80bfec57de83ea6191bc648a5486545b3e233ee157e8bbaacaa94ae247551d55455a5c9a81ce5ca78877517cfd3398e720c692432680ccda3f539afcbef45af8506a50a15e510f4945ee95e6a2dcb8de346b44ad6c435e534565355698916eba85e669baeaa1e2b539aa80847984479895ff5577dcf1ecd2925c805e41258459f4cdfac55f5156dc689b2548dacb15ae459c6c5a94a53d5b1b51cbb93ce159f30b24128810fc04ff017ff67fd7a9d66e803f0800bd01f988eda03fec37ee016e9239935136d354de935948a8d515c57abec4bfc477bc50af003801e04206f51fdcfbeffe47f3a016e015015a8862fc03f1bf13f700f55690f696d24f54557de85d04ae4117c059f39fa0ffec107f8034cf001f0010efe87ffffe0ffc1152d002a01f8027ea16fea1ff53a515a4a4d665559d525b7c6253c91d8027ccc1ff8d53abfb49ec0f400700006fd01fff81ffff01fff800b384015e0035cf503fff1427fe0294de896b2e616f5431fd5036ec00bf0013fbc05fff0977ee0075ca005fc001ff057edd3f28b67ce051e013f080f0ff107786b07fc037ff00ff8803ff8c17fe007f8010ff0003fe0837fe0877ff0077fe0073e78181ec4077fc007fec00f7fe00ffcc003fc61031f847f380f3ff8077ce08739fc03c7f0f070e0f1e043f0e1f0e00ffc011ff8c37ff0033ef8017fe0071ec5137ee0071e73e4f0e07cf0301efc817ff0613e820fff011ffc013ff0017ce00fe3813fe0871ff00f7ce01ff8187ce01f7ec01ff0817ff0013ff0021ee00f788c1ffe8007fce0ef217fc89167dc01cf78f830783807eff007cee1013fc6e3033ee007fcc00ffc031ff8031ff0c13ff8838fe3c3313c868f31478e717c38e2477c08e7f0390fce033fd8037fe01dfec079f00c7fc007ce8307e00ffe801ffc013fd8077ec00ff8e00f7ec01ff8830fd8033ff0051f87fe011ef0e18fe03fe00387e7e118c7f1c1f9c178e003fe803ff8867bf8801ff8801ffc011ff0033ff007fec107f8037ff0087ce00ffe701c1fe0811fc3073ef803fec0073ec41ffce01dfe8107fc831ff0013ff0077ec007fce187f3c01fe0073ef8077ec01ff8033ff0017fc007fc811ff0817ff007fcc007f3810ff8000ffc07fe813ff0017fe011fec13ff007f1e0f007fc61787c901ff8e11cf0e111cec303fec01fe00f7c78713cf2f0013ee6033ff007fec00f7ce00ff8813ff0381ef8037ef0077ee003fec00ff8c03ff8019f7844fc838f037fc00ff0831f7ec017f0c11ff8033fe0837fe007fc803ff0811ff8013fe0077ee00f7ee00ff8c03ff083cfe007fce0c3f8e007fc811ff8017fe003fec00ffc811ff003faf064c738f001fe817ff003fec01fe0073f061e7a0d3ee007fec03ff4834fd0811fdc801ff801fee0ed1cf801fee00ff8c11ff0073ec10fc51de8013fe09ff8037fc07ff0033ee007f8017e000fc37fe03ff00ffcc1ffc01ff8013ee0035ce0033ce007fef873fc07fec12ff0013e50037e801ff031dda3fff007fc001ff0077ec007f8007fe00ffee10f7cc01ff8077fc00f7880077dc003fc5067f8f8c53ff08ffee01ee086980f7441bca09d4bf7803fc01ff8035ec0b7823d197e517fc887dfc00ff002fec09fd00b357c037e800ff017f00bfee01ffea31f9c034f70080698835ef027fef93ffc03fe80055178800ff003ffb01ffec11ff8033e30c5037fe00ff8837fc00ff003e421dc0c8d27ff15ffd80bf9d6b005f0023c600f7be7d479f007f4013ff0000ff001ffc5ffe03ff809bff0015470555656a40ff8817e3017073fc03ff817df8de307fc003f402724da800ff887fe38f293fe817f800ff299280f8a0ff01fe007fc803ff8f0117fe00ffd810feac151553107675c5fd811fe003fe113ec40da1df00ffcc37ff8d30a3ec00f5804035fe81f7c49833fe00ffc42ac15fc837ff0135ff08a72110f619738ceb13df01bf4c11ee892137cc027f8833df2d2c5fce10fbcb007fe409770c6619ae011d6d8c327ec236fc76be18a3af415b4451b7155692596277aa95912e73857d6185795673847972827ce55e91bd4523d6b0b63435591c31ec58871ded17dcc5a54afc50f93524e96d21ca5153c0bbd8de09d3bc0f79650f70408ff27c401fe293fe01fe0c9fcf70080ff0f803fd005fc017f88e94f71c13fd4f40f78503f0275dc06673502fe8dea500ff1950f1f104bff8f01705ec5f81e049eaf05dd311ed703dc07d1f055687c8603ffe340e47d1cef0910f3573c42555555555555555555555555555555adaaaaaaaaaaaaaaaaaaaaaaaaaaaaaaaaaaaaaaaaaaaaaaaaaa555555a555555555555555555555555555555555"
	DPCMSample Name="fdkick" Color="3ce8fd" Data="d5ffffff8b000000000000ffffffffff3f000000000040ffffffffffff23000000000000bdffffffffffff9500010000000080da7dffffffffffbf554910000000000012a5b5bdffeffffffff7b6552511020400000210244a556d77dffffdfb7f7f77b75695120921200021804088484a55b5b6bbf77e7ff7f7fbeeedda5a55292512218420902008212492a45455b5b66d7b7befbd77efbdbbbb6d5bab55954a49892422428448448810892452924a5555b5d6dab6dbeef6ee6ebbbbbbdd6edbd656ab5555a9524a4992449288442489482412499224a5942a555555abd6dadada6edb76dbddd66ebbedb66ddbda5a6bb56a5555a52a95524a4992922492244954249124499292a494544aa54a555555d5aad55aadadad6d6ddbb66ddb56b7b66ddbb6b6b5b5d65aad56ab6a555555aa4a954a29a5949292929424294952495292a42425252595544aa554a92a55555555d5aa5aad56adb5d65a6b6b6d6b6b5bdb566d6b6b5b5b5b5b6badb556abd56a55adaa6a5555aaaa4a95aa522a954a299594524a4929292925554a4a4a2929a594524aa5542a55aa54a5aa4c5555555555d3aa56b56ad55ab5566bb5d65a6badadb5d656adb5d6da5a6bb5d65aad56ad55ab5a55adaaaaaaaaaaaaaa5455aa52a552a552a994522995524a29955295544aa99452a9544a954a95aa54a5aa5455555555555555d5aa5a55ab5ab56aad5aad56abb55aadd66a55add56ab556ab56ad56ad5ad5aa6a5555abaaaaaaaaaaaa525555aa4a55a952a54a952a554a954a954a55a952a952a54aa94a55aa5255aa4a5555a5aaaaaaaaaaaa5a5555abaa55d5aa5ad5aa56ab56b56ad5aa5555ab56b5aa55ab66d5aa5a55b5aaaa5a555555555555555555aaaaaa5455a9aa54992a55a52a55a94a5555a94a55a94a55a5aa5295aaaa5255555555aaaaaaaaaa55555555b5aaaa5655b5aa55d5aa6a55b555"
	DPCMSample Name="snare" Color="6c7bdb" Data="190000d0ccffc7fff8f1ffc30f63008701000054555555e5f8ffffffffff55555599030c00040000405565cd0ffffff3ffe7ff9e29dc19028ce1c3380000180718301f3e3ef0e33ff7fef3ff1f1ec618814038fc3000c4633c3c381c90e731fff3cfffff873b03308ec320000c00201e779ce7f18ffffb6f38ff39fc0301077e870130008079f03c38389e879fffff3fcf71dce10e306008c3812138c0110f8f0fe71fffcff1e31fe73c0c87038ec303c281e3388e380e3cc7e1797e7cbec3317e1ce3383c86e3f0c0e10160c01c0acf71fc3d8fcf9fc7f3f9ff0cc3210c7018063886c108e388f1e7fff3ff710eff0f870f863138803184031838c7c1391e6f9ef3cfe3fdfdc33b0ce0e0c0606030180ecef118cfcfe7e3e1f173f823dce1707878e087e318630e8207c2f1c0e338c6f9bce73cfff8ffe00c630c43e0707018008671789ec71f9f77fe9f638e71f486037c00e17038c681235c7c1ce7c773cf792e9e671e8f210e231cc3f0e1f0183be0896387cff063cef10fffe38e633c8c310c018e106398791c0f0fefc0e3ff1cfff87c1e0e70c001e31886371cf8e1e1f1f8cf718c3978381e8f618e71ccd3e111f6187b301cc711f84defc3c7879be30e397080318c79bc0f4fc107f718fe60559017fc399ec3710fe7387c18e7807d8c230e81c7f1709ef8e1e570fec4e7c2410e150f3e816f88c38bc7c73316d5c339cec381671ef87c8cc3f1301ce2110f87f1f8f89e0f1fc6d9610e0ec361388c790fefc893e7e138c778b0e2f0549ee1380c0fc771c33d06ef38e31e1e9ff19072c48615c6c32b34548cc7cf3b7d8c198fcde3c6710e78180dc3397c181e8ee3e19ee3d983ce18ce918ff3621d8c437cd01e3c1c1c9ac1eb613fdc51f3303de7b34ec1c110d3303c9e54c70e0f8ef38ee75a7818c7e1d1311d0f65a538e17157554b8d93564c5debf0628c69556745cfe150a5e1181e87c7715c793cd3adc12b47391e9ca7f8101d9562598c33f83c8e8dc375d5571f8d332c144e258ee22cac351c6f69795577791c96d12c965235ca618763d4b0a52f5e475955ab9ce5c5e270e21866d4f1acc38dc5156b4dcbe568d4d21a730e67340d0d8f7168d58d875b78b55c9bb36a8c835216574597aa12ab4a5f9c35553556d5589dc35345d561699c269ec5a56565956a55d6547561956a95cb741a3bd471549515875be2c1a6f16ca5654d735117572a75b47296a52a4d85c7521ca76ae9b456d93c5a8bab1c1d8d4555318c2baa6d797835554bf5d05a555665c94655a5b2d84a5b543956aea655c7b4aa52d554d5ccd2165565599655d55456b115d529279d56553555cdb46a2c4b535555556555d5549aa69955a9662aab695556552dcb96aa524b5555d594aa548bad745559d3545555554dad2a4d555559a55555555555aa9555595a55555555555555d352d3545555556555a9aa55"
	DPCMSample Name="BSV" Color="f6a4ff" Data="c0999bf8e9a19e27bc7556b0a119b86a989187e5831be6c1271f3ff0c183275ef830706678fc18261ffaf288073ef970031efff800cfb8f8c1818f0ef0cf67c41fb8f8e0e08703f0f0e1c71e7fe0831f3ee0c183073cf0c1830f1ff8e00ffcf07ff0c30f7ef0c18f0f3ef8f0c3071e30f0c0c303cc031ffc90f1c386073ce1830ffc87ffc1871f7ef8f0031f7ef8f081077c0038f0003c381c3861cfe08f370e7e9ca31f3f7efec18f0f1e7ecc91073e70e0e0e0c001073e78f8b0715ec41f7386e71d7ffcf0c1073ffcf0c8037ef0c0871f3e700418023c80070ffcf1c0671ef61fe39ee1032f7cf0c1871f7ef8e1073ec081071ef801f0433ffce09ee30377c21ff8210fcc13e7079f117ff0873ffcc083071e78e00f1cf81372424ef8c33dc0079eb02ff88f3be0e3c63ff3841ff8077fcc0178812ffc831f66001ef0034ee809f961078707fff0077e0c78c33ff8811ff8c06ff8839103def81372c68c3f017ec0030ff0863fcc073cf20c7c04ffc3fff8e30c7c6c0ffcb0030e1e7c83e78047c08f0127c71ec339e36ecc3970679c3bf40e9e39ff60c79c0f1fce90631ce68863000e70c7f9871f0078e3dc1d7f0c1e1c3e1e7e34ce3877e833ce1fbf31ce1878e0f1803900fc616e031e003ce11f8f1f8327ce233ff0ee896f37e498f9e3fe618e39fc303e0c0e0039f0f0011e300e8e7fc61b8437fec3030f3efe8387873fef1ffe21467c78e30e009103fe00f107f07c80279c7b07c719e37dd8039c3ffc41810ff0e78f3be0879ff8037ee0838c03ec09f007c81fa03f40ff003f03f807fe1ef81ff81f803fff03007ff0ff07fc010007fcff0000c0ff1f0000f0ff07e81fff03f87f001ef87fc09f07fce1013ff8c31ff0c10f3e40e0811f3ee0033ee003ffc0ff00fc07f00fbc3980e77f3f10c0ff1f18f03ff080f3fc000080ff03f8fec07f3fe00706e0ff017e00e0bff70100feff1f00fe7f7c00fe0cff0704fe71003f470c787e0080ffc300ff07e0c13f7ee0077ce00ffc811ffc7f89bb09fe014ff03800fe078097e30703fff900fe333000f80f30fc003f3afe1f00c7ffff0140ff7caf0102fdcd30068cf90f00ff09c31f01f8390007bd7130fc7f0c98ff376ef803e33f7cf007f8e303ff3800e003c00700fcf8e01b9cff3f66fe00ff1fc080ff81ff857fc03f043c60000000c71f1efcfcffcff11ffce100e003fc27f8f13fe09f003f00e00780ff00fe3fe0fff03f073c0000fe1f869d7f60f00dff63f871c0d083001fe0f381e0ffe0e1cff91fc09e13c69e813fc03f803f70e29107c28f01bf21ef8923c70c438e033ef4f08373e70cfc31f3c7319f117edc30f638e1983b33fec01943ce0943cf00fe01f8803e21fc07b0e784f3cfcffc3f73cc19e1c0e307873fcf21e70f2387070ef80160e700d81f003e27cefdc7f8e30eff0de3c70dfb03e06702fe178e3927fc61c013e49c10f20061c709ce13863f3efc670cff01fc73c681c7c0fe7f98f00378cef83f187f6cde38031360c001831f003f0e881f0e3f7ef04fccc79837f83fcef8c31f4ffc73007378c01f00e800700f1861c0018e1d1fc63ef27fc67fc3bc317fcef8e33bf638117306fc0ef80f803c00b903cc13e21fc0ff00fe09fe39e33f317ec09cb33f668e217fc27d02fe01ec07204f8c9d11e709e01f40ee007b61ec19f037ee0f3c7fd833e09f719f61be01ff00e609630fb07700f700fe07608fe03f21fe07dc0bf8e1e75cf833c04fc03fc33ec3ff06fb07e20f807f00760e001e00e7e0c023cc33dc3b7cfc0c7b437ff883bfb037fcc03fec0d3df007fc80277c8811e0010f78800fc003ffc01ff0e3fe393fee8ff9616ff8037fe0813de00ff4861cf0037e8007f8c01ff8421ef8030fe063fc183fc74ff8c13ff80f3be10778604fc8097fe00f3ce10ffe801f7ac00ff8831f78e00e98030f0ff9e18e3d737ff8013fc00ff1213e3807fee0037ef0077ef0833ef0037ff8011fe0013fe0e1037ff881fde00bbea107f0001ff80dbce0077ee31ffca11ff6801ff8e30ff8801ff8e08103f0c35ec80dbdd003bc8007f2c01ff8037ff803fff00ffff01ffec01f78c10f4ee0011fc087bcc00ffd8017fc800ff28007f8c01ffe007ff8877be0dffce30ffce0034ef0013ec0077ee0077f810f3c000738c073dee00fe49f0bffcfffff3f7fe0010f800370c000ffe00f7ef8037ec0000e00003ce0c13ff87f10fe83ffffffffff833fe00306f8811fe08f01fd033e000001000000c0007efc1fbcf8fdffffff9ff9c1ff819f7fe0c70ff007800310700003000000000086dff8f303df8afffcffff9dbc7fc0ff47ef3f73e0031032801540000860068811e35fc08f0ffde2cf9d73fff8df7fe03f1ffc1ff08878e003067cc0a003e0071c067cf0e007c07f0cde98ffc30f3ffcf8270ffef8610ef88c7ce0038e7c71c207070ef00366f881017e0effcc007cec0f1f7efcf0c1cf3c630f00fc3df1e0e709073de01fbc0170f8c41f70c00b3f7c1cf8f083f89f137077fce1c3071f3823e0c709377cdcfcf1c7e0071c78e040c83ff0c0c3fce3c63f00c61e3ff8b0e3bce1e08f31ecc01327ec78e1b1479ef8f073c090c7091f7ecc1b073e0e187a38e3638f1b1e72cc190f3f273ce470c33187f9c661e7c4d8e10367cc39e3c843fe706377c291c3893ffce809071e378c389cf090e78c0f3de6c4a1e7031f729c71ccc1fb63f80f083b70e087dd03873e367f86df011370f8c098e3c34ff83f30e4e0890f3e271c78387f0cff0137e470c2d833f06fd83961c083cf1b37f48831f6cc8d1b3f7c80394eb81870e68da18f178e39bce1c2cf196347ceb871470e80ef8177e498338e3dde38e6c01b33e60e883ff3c68d397a007c079c2147de38f678e3218f3f9c21f387f89b376ecc9803431e30810ff786e1c70d873efc70c2f081e167deb861471e3e78e010e21c7f3cfef8c301871f3cf8e001fecc891b76f4c091079861c7deb961c70fbcf1030f0cfcff007f3ce1410e3c30e00133fce88d1f7efc990f1ff0c100fefc03ff3f6080190e183f9c618c3d77e08ffbec11031fc0a1c7fcf0f307dc9003078c9817eef8e18f7dfe870f30f041087adc13ff7d601823cc81117f788c336ffefd1f3e00c00d20f8f1ef3fff80013070c01878e2f8ff38787e1c0e3c70387c3cf87f9eff001c300c8007f8f7fe1f7fc0e01980c107fd0f1e760c6f883f348e192786bfdd078f078611e00edc3f76ec98b9036e9871766698f1078e3d27cc1f1c7b8c136efc98037e80630f071efc31c31ffc21665e18fce10377dc3873e0c4871f7060e007ccf971e0111f30fec113e39e71fce085871fbe30620e9c1f078ee39d63c791c3073f60f8cc111f7efcc08c07b807ff0f211ee0e1c31fc33863fc83033e78e08f9d33c60e1c3c70f085238e1f0effccd983071e7e7ee01f78dc3107bc38bc238e3b7e0cf088718f1f18f307e03f40f86386c31f6fc0cf197ef0c6398c718e981f79e6f0e1438e39037f62e807073fc67890630e3c70e0c78973c69d21cf0f7ce0ec3963fc1b90e78f31c781f323c27f0cfc0c393e30c61cf9f1c10f8c77c2c1c109f0f843c6dc39f07e7c3820f8e3c0cf39e0fb00fe0e983f801f3f70c01fe0f3810ffc8303bf61c0f31c7e78c0873f70de0370e2c18739407edfb8e384f1df80ff017b4ef80f3070e30f3e30e45de03370eef0638f71c833e27fc0d83306fed8811ff8910fc03933e69c30e704fe07983b23fe1dd039317e07987303ee1ef0ef00f81f20e707fc7fc4fc19e00e84fd01e68c18fb03c4b9217f60d87b63ec2742ef09fc27c6fc0172cc18fb0b730ecc39e30f0ef8e0033bf00738631c3f0cc0dc39fed0c313dc33ce1c1e67cef8b1c3c60b02370c3fe0c41f3ec41f33e29f31f69831e7c43107ee8f030e7f1c71de78e4c1d87306ee19871cce70ff708ce10ccf1902ff838e038e3c98710e7ef8c379c71d7f4e18733cc03c618e3d60ce1c003fee01f3f7007f8cf137660e38fcb8e10307c41ffcf00ff087bd710e7f803fe48003f0870f0e1d3c7038f0c1e78303ff011f3f1e7efcf0f061fc41e0c31bfcc1017fc0c703dc07070f9e193f7c807ff003f9e0033ff0033ffc803ff800fef0873ce03f5e80375c803ff2851ff80137fc00fff0e03fe0079ce007fac7181e260fe6f97078cc1df1e18f801f07c64f98331f3cf8000f7ee0237ee00f7ee00f78f1073c9f07dc3106fc037cf0071e7efc0cf8078f0fcc638c3d70427f04f803fe31c70fe01fe027467ee09c318c3d73033ff8e04774ec6dc0879bc3ecc0333ff8e0803fc608fe11f833e68cf01be38e811b734ef8e301e619439c3f809f43ee5ce08fe0898fe79c31fc19e0ff81813dc03ce30cf1ff0373c6fc31c607dc3be01c630e7780cf18f6813d23fe08f863c837809f10f3e01163fe807f4ef843fc033f3ef080ff0cf831c639e4738e03de03e06f843f603e10ff807780f3807be0ff80bb071e3fc033c69fc13ffc307670b301de19987307fc3980f807e05ec01f9e47dc73e0c031c71fe68fb9c3e701677cf8303f30fc07603e30f803f08b1b6f60f803ff07e0c7c90b3907fc879c73c381873ff003c41f3f00ff0c80bf01fe61e68d3bf08371e6f039c21f3ce00f1c039e13c69f993967cc1c390f1c7be29cb981fc7063fe38e183e3811ff861e047187f801f3c73c8030fbc73863d07760c79ce38e7c49c71e6cc306f9cf89831e7806767dc31714e3873007347dc71c3cf19731ec00f00f784f8e73c7fcc9c33669e3947ce98079c387004c01f10e30ffcffe1ff833f7f02fc8c031f62786008f000327e38f71c7f9e7fdc1f3c1e18c2718631e038e0fc7070787cfc79709e3870fc713860183838f6380e3c9e3f2fde9c431ee79d3167609c333cf0c0193b7ee68cfdb8638e39f0300738f870ce18771c7b78e38c3d1c397e0e39460e1c37cc9083278e397ee0c30f3c70ec39e3e0c779c7dc9163bce1d873638c39670c39bc70c438f05e98430ebc7063ce9d31e78f3fe4c09933e4187f38438e3d71861c478e1f377ce4f0801b1f78cc130f7fe4880b3b6698b3273efcc81137cc38e81bc79083330efc9c614fce7ce831076e78e0f19eb8b023078c3937e68e3b7ecc99130e7e00fe38e1430e2f8cb933c61e4e78d8e38c317300ff9cf1b1c707c69c1363cf191f7afc60e438813f4e38e63861ec3931e6e08c0f3f66ccfd8131e7c49893138e9c1f3c76e481033f62fc39f071e298e3838e1d1c3f3c63c6ce0b07ce08ff0f60ee1923e30f01ce1d0e3f66dc3963e6e1c7070e1f18f2c6c0c787070e9ed8bf23fef0c4431e478c9d31f69c70e7c039f3e0830e7be2e1c7097f44f0e303e78d63e78c31c73c20070f8f1747ecc023fe82638e0f80cf19e7cc917be2e14f9873c0f81fc09e13c7bee1c1830762cf01e60fc49d13f83b23e6e091f1f700f813f09f80ff03f07306fe70823cf8e0dff0d8331cfc0c879c07f0e78c2307047f181f9f076ece883b37ec3d3876ec861f30f1e3c0ffc1986360fec300e70cff19c69d13724e706e3ef488c033e3cf0163ce08fc2362cf19770ec1e303f431637f0cf91963ce0d3f0ee0df01ff01e31f80df83f173007c0e986f0cf780e31e70fc0cf01f00fc0f30de01ff03e047f8ff00703c7c7e011e3ef00307fcdf037e3fc0ff09e0030ffce181f9fc3800fe1cfe0f00ec7f00f003f0ff0300f8ffe71f00f0ff3f00c0ff7b00cf1f03c0ff01b0"
	DPCMSample Name="BSV_1" Color="ffc6a1" Data="ff81037078f88c0f1fcff0e103fc3e1c000f878ffffdc063fc200c7803e3f0f1833f803ff007c607fec0e1c10f3f3cf8070f3efc8003817ff8fec1071e7878f0c3070c70f8ff83000ffe1fe703030e3ffce1831f107e00e6ff1f0080f3c37ff03fc0011f3efe010780fff00f0f1cf8c1e303fee001e00ffc01fc017fe07fe00fe003ff817f800fc07fe01ff80ff081ef833ff000c31f7e30fec0811ffe03f0037f807ff01f001efc80f1f037001ffe07f0073f00fee30f063ffcf9e003ff03c001ff027838fe81071f1ee0077e8eff80871f3e7087c707fcc13fc01ff803f801fe007f801ff0c7e103fc01fe03ff011ff00fe007f8c1f8f107787c7c00fce38707fc073880ff017fe01fe00ffc01ffc01ff00f1c07f6837e3078808f7f38e0f8050ff07f3e003efe073ef007f01c1f0e0ffc03f003ff107ee007df07fc813fc03ff003f007fe80ff801fc00ffe40fc801f3c20f87f10fce10f06fdfb8103fe8178c0f31f207cf01ff807fe013fc03fe007f800ff803ff8031e1efc03f701f883c707c3c1f0e100fe7f70e07c1d1cf8f481071ffce0e1c107fc073e3cfc001f1c0ffc830f803ff007f803ff81ffe01fc00ffce0f8c00f303ef00fb007f01f1eeaffc3033cf8f1800f7e20f0e11fe00bfe03f0c13f003ff0838f07ffc03ff8e11f0f3ce0c70707be7800ef0378f01ff0c0c17f3c0ec087831ffcf187c1f1f8017cf03e041ff80ff803cf803fe01ff003fe1efec11f000ffe00f8f00f00fc8783f37f003ffbf0e0419e01f8171f9f877900f0ff0700ffff0038fc7f0060f81f00eeef0380ef07f0f807c0f9ff0100ff1190cf07e0ff6f00ff7904c3ff0330dc7f0083ff0108ff17b8c71380ff01203e0f81f31718fcc730fc3f00fc0f20f807fcf101f0ff0cc33c0e01fc9f01fc0741f87ff03f38f09f017cfe03f33380ff6130fe0984fb0080bf4fe03ff807ffe08f23701f417804c773f0fe03c0fc0c04ff23f03f87e13c0ce73f00cf4700fe3fc03f0387fb00ff391cf01f1c0fc0c7ffe07c06e37804e73100fe3800ff0c07b80fc3e77038fec1ff303cf80fe01f3f803f86c36f00ff00fee001ee07f8e361f03f301e1ec03e8683f101fcff019eef01f819f8031cccc7f0ff81017c07e7633cc09fe001ff03f8dfc010fec07d0efee30ec647203e43301f81fbff00ff191c0f03f31f80c720b83fc07f0f07f3017cc04ff01ce703fcef30bc8fc1f9190cee23389f07609fc760fe0100fe23f01f60301fc0ff1f84f7311c9f83603f00f303fcff1fc067e03f66e07f04fe0f00fc1fc0ff03e07e04e67f00ce4700f043e0fe09f8ff00d87f00fc1fc0f80ff00f7efc0fc0fd07f0bf0fc03f0060fc07f81fe0c31ff0ff01fc0800fe01c03000f0fff0ffff00e6ff07c0f30180ff0700f80700fc3f30f8ff7fe0ff03e0ff0700fe0720fe07c07f001ff0c3fc003ff008ec0730180f70fee300dfe7fc783ee1df1f86e32180ff07e07e0ee13f0cf31fc03f00ff0700f00d403c1ec07d8ee1ff19ccc7e1fc03e03c06c07f0ccee730fe7330fe0eee0f01e66360fc0ee0ff01bc8fe17888ff00ff188ccf01f80fe0df07f07f00f80730bf03f11f80f9009cff00fe03789ec7f03f80fb1f80f90ff007e30c1fe07f803f8e83ff00e23310ff03f01f86f3019c7f00f80fe07e80ff818ff938dc6300fe073cc67f00ff031eff03f80770fe03003f83fb0ff8c007f0393886e703c6073cfcf1101e0f9ee3f000ff017c0ffcf007e13f80ff003fc007f80ff1b18f07fc00f071189fc37ff8c7e1389e833f00ef017c18efc3f3381cc7019c0ff01c7c80f31f603ff8e11f03f807803fe4c3fc1e3ecfe0f3831f0e41e001cec73cfec3f80fe70f808fc1f81cce03781cc0e36108fc11fc07f03ff07f847f1cfcc18103fc18fec3f300fc19f803c707381e837f70fcc17f3c0c4f00bfc1ff80fb007c06e309e433f80f603e803f80ffe343fcffc13fc07c00c603f80fe01fb09f07f803f803fe20f8e1011f1c7e83ff077f00fb013e1ff0ffc01f067e00f7010e783c3ff080871fff7bc003803ffcf181c7c01f7ef0f90306f0f9e11cf038e03e3f0f018167f07ff8c507f8ff81e0833ff07f10007e00fe0730f81fc0ff00f87f00fe0f84ef07f03d00c7e7e1f8001c1ec7e339fc731cccc301fc1e008e7f003cff03efe3707c0fcee701707c00dc0fe371381e1f87e3711ccfe1703e04efc363781c8fc3f1301e1c0e0fc7e1393c0c1fc7f3700effe131bc0fe6017cc0330e8f83e37178381ec7731cc3e37078f41f1ec7e1180fe301c6e7f1381c0f8ec7f1383c0ecf613c8ec7709c8363f8303c1e8fc7078fc371383ee01fc6c37118c6781cc7e3389c87ffe088c7e13ffc301c8e0781c7c373703c3c1e8fc7e3c1e171781c1e071fc6e37098f13c0e6f3887c3f1387c301c8fc379b88773383f601c9ec37378701c1e0f87c3e3f078381e1e87c7e1f1701cc671388f8fe1417c383cc7731c8fe37bf0703c1c8f87c7e170380ccfc379c081f711f8381c8fc7e178380ecfe10fc7617c18e4033c8fe3e1f0380c1fc7f370803f1c0fc7e379181e8fc3e3703cc8c31ff01f8ec7f1701ec207e3217c803ff00f9e83e3f178383c1e8fe383e7e1f1f0381c8fe3011f60fee1701c8ec7f1701cfe001e8ec7f170783c1c8e87c3e3f038383c0ec7e33d788ef11cc771f8077f001cf0387c0ec7713c8e07f318c3f11c7a1ce7f00c7c0eff001e9ec171ff0378781c0ec7e1cfe138fc07f0701ec7e1388fc7008fe177301ff8603e3c1ee3011ee771980fce837fc0c7f0703cdc43780e8fe3c1e118ee71781c1fcee11cc770380eff87e17818071f1c87c7e318c7701cc3bcc31ff0c1f9703c1c8733f01dc3311ec7710efc001ef10f3e878787c3e37178381ecf018fcfe0c1713ce6711e0e87e3f1007c1e710ec7e3707c1e9e87708c87e3301ef618c7e31fc670dce3781c8ec3e178f0381c873fc2e3f88773388ff10ec7e17138061e8e0fe1f0e3383c067f00c7f301ee713c860fe0c773703e031f9e8f219cff00dce379007f1ec3f01fe3211cee2300f771180ef30fc1f8ff0884ff1f80f17c0ceef300c27f1e83f97fe0701c1e86c17f8007ff010fe0f11fdc413c9ec3c37f78000ff80fc2f03f0e02ffe7817c7c04fe0307e36308f2390cc3f90f00ff7d0cc7fb4710fcc7311cc6e3603c3e80611ccf7038cf6318c67b84c13f8e01fce701e03f1e639cef03e07f1ee3781e9e03ffe1030ee3f9c720f81f0088e70186fb1f20fce31886f31c03fc7f0cc13f8f00f23f00eef300783fe01fc147f883f9380eff3c06e34370183f04e73fc0f0ff80e1ff3b08fe87c1f13c0ceecf81e1393e70c01ff88fe03c0ee03f800338e7e11cc0f80e8efc07f04ff01f1e1fe0037ec03f06f37900ff07f01fc0790ce77f1ee1791cc62f00fc07fe03fcc1991f02f803f81ff0e7809fe07c0ce21fc003f803cc1fe01f801f73e00f9c67b08f613fc0ff00ff3fd8ff01fc07f801de07f01f80fd00fe03fc47f03fc03fc0ff00f801fc3fc01f807f00ff019e01f8e01ec07804ff01fee13fc0ff009fe31ffec01f987f00fe01f8077000fa00fc00c7039fe331fe63ff3fe01fec0f780ff003fc1fc03fc07ff01f07bc43f03f007f000fe07f80130c6f3886f7300ff823780ff018ee030e603ce0017e18fe837f4afd877f781ef316c60ff8077d0ff883e7e1f81ce7583e180e07f30070101e013e8447f017be06ff23fc87ffc3f97d1c4e837f8581f701fc037c003f8007f0017c04e3807c03f03ff807f80ffe07fff01f381fc7c3c33838cb011dbe0fe0e30f389fe17d088eef00fe3c06ff431cfe03ff703e86ff03fc03f0037c000e00070804fc03f1107e0af9231f3fffe0ffe04ff8113e06cf70000ee743f81ffff17ff11f0eff2b188c0f800fc003e0000680ffc0f3193ef723b01fe03fdce17ffc9fefff7af83f07f301300000081c8201e03fc01f84ff7bf80106c600d0001c0cf0fffffffffffff367fc001c0cc00100000e03fcf93ffcffdfe33c0001fe013000ff7f008cffff010efbc11fe000fe0360001fff80c3f97c0ec33e8fe1311ccfe0017e3e01fecf07e07f3e808777003c801fe787f7f10cc2f90780f81e02fcdf43f8ff0030ff03c0ffcf80ffc321201ee0180cff0ec6e701f87f00f07f60fc0f80ff0f80ff0380ff0700ff0f00ff03e0ff01f03f008eef80f33ffc8fe338ff03701f0780ff0310fe0740fe0f00ff4320fe01703f03e00f00fe3cc0ff47f03fc07f3e80ff0f00ff0780f81f0ceec7e1f91e80ff0f00ff0300fb07e0f91fc0ff0300ff0180ff01f0ff00fecf61fc0fe07f03f87f00f0ff00f8ff00d80f00f00700fc0700ff0fe0ff03f8ff00f87f00fc9f00f81f00fc1f10fef371787e00b0df0f00ff0300fe0f80ff0fe0f30730fe07c0ff03f8b8ff00f0ff0700ff01c03f1fc0ff01c0ff18007f0380e783e3d83f180e7ee0c0ff03f83e078cbfe3e0791c067f8ec7c763b80f70fc3fc0f01b00793887e3e1380873f887e73ec7e1784338fe078e870fe3bd7108cf311c07c661f8c3300f0f0ecee18367187cf0070f3ecef8e07b708c87c70778f81d871f1ee0e1e183cf787ce0f33f06fe1906e37138c47138fe818787e1f0f0ff301e1c1e87c17f8803780f071f0f40f018cfc70fc087d9e37ce0f1000ff8811ffc83fff80ff0038ec3711ccfe100df07fcf070c01f7c1e0f10ff80ff8707f07c3cc01e7e78c0c10f7f18f07f8203f81f1ec07f80117e1cf0c33f040f1f1ff0e0f1c1c31c1e78fcc0033fe007fef00ffe07f8171c1fc3e11cc0773cf0388e87e3313c7c00ce6f701c8f87e3f1300e7c0ee7e0f8077f0cf0393c87e30378fe0e0fe3381e8ee370180ef08fc7e3703c0c8fc30378f8000fe3f1f8f1380ffc7838cf808fc3f17fc0f170783e0c9f0784cf83e3e3f0381c0f8fc7c3f01f0ec3f170781c1e87e3f1f0383c0eff001e1ec687e3f170f8f0383c07be0fc6e3e1e06310fc7000ffe18ff3e073781c1e0e1f86ff80e7e178e03e701c0ecf037ec07f003f40f03c1c878fc3e3f07f703c86c3f900fe1f80ff0080ff01fc7300ff61f0bf83f19c83f803783e061ffe01f803f8e023f07f30fc1fc0793c0ec7c3e03c0e87f311f8ff00e0ff60fc0ce07f00ee1f80f32380ff07c00fe0ff71381fc0fb01f03f07e7c7e1311e87e3703c0e0ffdc0f800fc7800fc0f7c1e0cdf0fe07f00c0ff80f13f303e87c73f0cfe03e0f318f80fc0fd18d8ff01f01fc08f87e0ff00f8c1c0fc03f81f86c77f803f80e77f10fc07dcc770781e00ff03e0f807e073e01c1c0f07473e1c1e1fe0ff0efc0fc0ff01e0ff01e00f80ff07e0ff30f80fc01f18ff01e03f80cffb01f0ff00007efe0f80ff0384c7ffe01c380f7c80bf830ff0cf0333f801f467cec03f803ff00ffa0fe003df03f03f001ffef0c04587cf83e33f003f9e07bc76607a3c61dc341c9fc059071fe02f073df8781df0c387c3839786c3f30c1c7f14ad8747fa71e093f8b0521f1c0b77c0788f0ee0c7417d380e8f83fa71a88f87c7c179fc0fc0bbe0c35bf8100eff07565555555555555555555555555555a5aaaaaaaaaa545595aa4a55a5aa525555555595aaaaaaaaaaaaaaaaaaaaaaaaaaaaaaaaaaaaaaaaaaaaaaaaaaaaaaaaaaaaaaaaaaaaaaaaaaaaaaaaaaaaaaaaaaaaaaaa"
	DPCMSample Name="Choir Ahh A" Color="ff8f8c" Folder="famidash choir" Data="aaaa5555aaaa5a5595aaaa5655a9aaaa5555aaaa6a55a5aaaa5a55a9aaaad652aaa5d4ae926a49b557a45a92ee8ba896d0fd09aa45d87f816c42fa3f209b40ff1fc08ae0ff07d002f4ff075002feff0114c0ff7f0022b0ff3f0001f5ff1f0040ffff0300d0ffff0000ecff3f0080feff0700a0ffff030070ffff0000fcff1f0000ffff0700e0feff010078ff3f00007fff0f00c0dfff0300b8f7ff0000defd5f00805fff270070d7ff0100def5bf00406ffb2f0070dbfa2700bcaefe11805eabbf00e4adea5700f52afd26c0764abf02aa57d25741ba13f59690de42ed4a645f50bd22f51594574afb14e4aad2bd04d92af517905a55ef05a4a6d5fb20a8b2dd37084ab5df0b42a2f6df8210d1feaf1002d9ff474880faff111240ff7f8402d0ff1fa100f8ff472800feff110a80ff7f8200d4ff5f2000f5ff0f0840ffff020268ff7f0100b6ff3f0080d7fd3f00e0aafd1f0078a9ff07009fd0ff03c017f8ff00f003fe3f00fc00ff0f807fc0ff03e00fe0ff00f807fc1f00ff00ff07c03fc0ff01f007f87f00fc01fe0f807f80ff03e01fe0ff00fc01fe0f807f40ff05f02ed07f02f622f42f41bb20fb16690dd1b74aad02f555b58d80f7a4dd01f037f23e00fc13fd2700fe88ff05805fe8ff00f025fc3f007c09ff0f00afc2ff01e02dfa7e00b84bfd17006ed3fe0a805d6df704a0b7d63d01e8ae6b9700eabbda4a80faaed60a40bfa7b510d07fa53a04f43fa51601fd2fb44340ff0bf500f87f425d00fe9f601780ff27e805e0ff417a01f47fa05e00fd1fa827c0ff03ea01f8ff807a00fe3fa02d80ff0f7013e0ff03dc04f4ff005704fb3fc015e0ff037205b4ff015d05ec7f405701fb1fd055c0ff03b40df0ff00ed00fe3f403780ff0fd04bc0ff03f401f87f407b00fe1fd01780ff07f405e0ff017d01f83f485f00ff07d20fc0ff017d03f0bf20df00fc4fd02f80fe43ec0ba07f21f702e877a8bb00792fea2e02ee8b7a4b80fea2ee0ac0bfa87b01d03fea5e04f04fd54f00fc53f60b00fe93fd0180ff647f01c0bfe83f00f01ffa0f00fc87fe0300ffc1ff01c03ff07f00f00ffc1f00fc03ff0700ffc0ff01c03ff03f00f01ffc0f00fc07ff0380ffe07f00e03ff81f00f80ffe0700fe43ff00c0fff02f00f03ffa0500fc5fbb0080ffaf5500f0ff550a00feff0a2120ff7f0291c0ff5f0015a8ff1f800df0ff07e002fcff017801fe7f003e80ff1f800fe0ff03f007f0ff00fc01fc3f007f00ff0fc00fe0ff03f003f8ff00fc00fe1f803fc0ff07e005f8ff00f800ff3f002fe0ff07c005faff01b084ff3f0054e8ff074045fcff015044ff7f0014d4ff0f2009faff034890ff7f0042e8ff1f0041f9ff070092ffff0000d5ff7f0000fdff0f00c0feff0300f0ffbf0000fcff1f0000ffff1700c0bff70700f0afff0100fee97f00807fec3f00e01ffd0f00f847fd0700fea1ff01807fe87f00e01ffc1f00f807ff0300ff03ff01c07fe07f00f01ff81f00fc0ffc0700ff03ff01c0ffc07f00f03fe03f00fc0ff80f00ff03fe03c0ff80ff00f03fe07f00f80ff81f00fe03fc0f80ff80ff01e03fe07f00f80ff81f00fe03fe0780ff80ff01e01ff07f00f00ffc1f00fc03ff0700ffc0ff01c03ff87f00f007fe1f00fc41ff07007fc1ff01c03fe83f00f01ffe0f00fc43ff0100ffc97f00c07fea1f00f03ffe0100fe4f7f0080ffcb2f00e0fff11300f87f7a0100ff9fae00c0ff572b00f0ff530500feff540280ff3fa900e0ff4f0c00fcff432500feff500980ff3fa802e0ff879a00f8ff411700fe7fd00580ff0ff900f0ff813e00fc7fa00f00ff1fe807c0ff817e01f07fc05f00fc1ff00780ff03fd01e0ff407f00fc0ff40f00ff03fd03c07f48ff00782fb23f00de25fd0b407752ff04b02ed53f80aa55ee0fa0aaa9ff0294b4eabf8024cdf62f9048d5ff1212a2f6bf4404b1fe2f9280b4ff0b2540edff220950fb3f4902e8fe8f0a01f6ffa22280fe3fa90860ff4f2a02e8ffa39200f67fd12480ff9b2c09e0ff4a4d01f8bf525500fe2f691540ff8b5a01f8bfc43a00fe2fd11640ff0dd505a87f457a017a5fa15e40fd56c81ba8de16b22ba4db05f946627b81f629583f407f13e80fe07f01f407f0ff00fc03f87f00fe00fc1fc03f00ff07f00fc0ff03f803f0ff00fe00fc3f801f00ff0ff007c0ff03fc01f87f007f00fe1fc01f80ff07f007e0ff01fc01f87f003f00ff1fc00fc0ff07f001f8ff017c00fe7f001fc0ff0fc003f8ff03f000feff002ec0ff1f8083f0ff076001fdff015840ff7f0006d1ff0fa081fcff015840ff7f0015d0ff1fc004f8ff032a01feff801680ff3fa003e0ff0fd800f8ff012f00fe7fc00780ff1ff001e0ff077c01f0ff015f00fc3fe00f00ff0ff803e0ff01fe00f87f803f00fe1fe00f80ff07f803e0ff01fe00f83fe03700ff07f80bc0ff02fe02f81f483f80fe25a917c4de52ea45f05a55b90a39ad4ead128dae47ab91507f515d11f03f642f01f81fea0f00fe07fd0b00ff41ff01c07fe0ff00e01ff83f00fc03fe0700ff81ff01c07ff07f00f00ffc0f00fe81ff03807ff07f00e01ffc1f00f887fe0700fee4ff00803ff51f00f04fff0100fe6b7f00807fdb0f00f0bfdd0500fadfb60880fe6f5508a0ff574a02f0ff255500fc7f915a00fe9fd01680ff07f902e0ff82be02f03fc29f00fc0ff41700ff05fd05e03f44ff00f817d23f00fe91f41740bf24ef05b04fc57b00ee55e92ec07656da13a8ab557511d96a552d292d5b9395a6c9b6a46c55721b92be8adc06d23f11b701fcafc05b00fd1ff01680ff07bc03e0ff01ef00f87fc03b00fe1ff00580ff0f7c01f0ff032e00fcffc00d00ff3fa805e0ff0fb000fcff035400ffff0026c0ff3f800af0ff0fc004feff034082ffff0090e0ff3f0044ecff0f0011ffff0180c4ff7f0020e9ff1f0028f6ff07004affff0080d2ff3f00a0f2ff0700acfaff0100abf77f00c0e6ff0f00b0f5ff03006cfb7f0100d7fd9f00c0edfe070074bbff0200dbdebf00c075f7570070dbfd05005df7af0140dbfdad00b0757f2d00aadd5f2580eaeeab1150b5fbaa4450f53e5509547b4faa8154bfa56c04b55f519d40ed97a81741ef43f413d07d817e03723f40ff02da0fe0bf80ee03e8bf40fb00fc1fd05e00ff27b01780ff07ec05e0ff057a01f8ff806e00faff801b00ff3f600bc0ff0fd402d0ff075901f8ff031a02feff808a80ff3fc044d0ff1f4012fcff031085feff0090a2ff3f01c0f4ff270050fdff0a0058ffdf0200f6f7bb0080fe7b3700c0fff60e00f07fed0500fc5f7b0100ffb76e00c0ffad2b00f07fdb0200fedfb500c0fef72a00f0fd7d090075bf3f01a0dafe1f00a8d6ff070056f5ff01402bfe7f00d086ff1f006ce1ff07003bf8ff01408ffc7f00e00bff1f00f8a1ff07007ed4ff01805fec7f00e08ffe0f00f84bff0300fea97f00c07ff90f00f05ffd0500fcaf3f0080ffdb0f00e0ffdd0100fcff5e0000ffff1500e0ff6f0100fcff4f0000ffff1300c0ffff0400f0ff3f0000feff0f0080ffff0300f0ffbf0000fcff2f0000ffff1300c0ffff0000f8ff3f0000feff0f0080ffff0300e0ffff0000fcff2f0000ffff0b00c0ffff0200f0ffdf0000feef370080fffb0d00e0fffe0200f8bfbf0000fef71f00c0fffc0b00f05ffb0300fcd7fe0000ffd53f00c07ffa0700f89ffe0100ffc57f00c07ff21f00f01ffd0700fc87ff0100ffe17f00e01ffc1f00f807ff07545555555555555555"
	DPCMSample Name="Choir Ahh B" Color="3cf8ff" Folder="famidash choir" Data="a45e2db52a41db5784ec6dd12a89da5d22b2af152d23d2fe1250fb2d922a25f74b08f6cf82aa947a6f40e8fe46a84acafb0540f75f485452ef4f00f4ff02894add7f0480ff2f1052b5f74700f8ff024265f73f0280ff2f00a5f6ff0200fe7f101073ff1f00e0ff070192ff7f0400fe3f0244f5ff2700e0ff4300e5ff3f0080ff2f0220fbff0700f8ff0408eaff5f0080ff4f0048ffff0500fc6f2240f4ff1f00d0ff2a04d0feff01007fb70402fdff1700f0b72511b0ff7f00c0dfaa2281feff0500f6554d09e8fe7f00e0d7942a42fdff01806f95aa0ab2ff1f00f855d2aa20ff7f01c05d89d605e9ff07007d8d681b91fe7f00d0afa0da09b9ff0b007e0b652b51ff1f00d83791b522f5ff0180b723ad2a54ff1f00f89ea8cc90edff0180f7924a45b5ff07007c37552aa8fd7f00c07fa54442f7ff0500fcae1522b4ff3f00c07f2b81d0feff0000feb70a80baff1f00e0ff150268ffff0000febf0200fdff0f00e0ff0b00f2ff3f0000ffbf0040ffff0300f8ff0900eaff3f0080ff5f00c0ffff0000fcff0200fdff0f00c0ff1f0070ffff0000febf00a0fdff0300f0ff0b00daff3f0000ff3f0054ffff0000fcff0140eeff0f00c0ff0f80f4fe3f0000ff3f02a4f6ff0300f0ff0310dbff0f0080ff1f1069ff7f0000fc7f08d2faff0200e0ff07a26cff0f0080ff1f486afd5f0100fc7f0855f3fe0600e0ff2352adfb270080ff4f48b5eebe0000fe5f41b5b57e1500f07f49d4dab65700c0ff2a92ebd6ae0480fa57495d6d7d2900f0bf42f4eda9530290bf95a25bdb5e0280fe53447d77ba1200b55f92ec6dab2b0290ff24a2bf5b2e09c07c4b297dbd798900f45b447cdfd54602c8be91e2bd5d5b0840fb4692be7df32000ed6e3079efd60d04d0bd09a9bf5db700407b1794eebdbd0200f66b50faf5e62d00e0de8592af6f7700806f2b547ded7a0b00f87ac2b4b7eb2e00e0ab8baaad76ff04007c17527ddbda4d00b0755355adfe5d00c05b257a6fa9bd03006e5ed566a5fe1700f06951bb6bb4fb040097ad7a2d69ef13007632d96f8afa3e01a04b63ef25e9fe02809d8cfcbb04f78f00d852e96f25ecbf00a09742fbafa0ed07049e94ec7f12dc5f00d899c8fe2764fd22809b92fcaf02ef1700f694d0ff1658fd10e0a692fe2da1fb0600bf1274ff035abf00f0d550fb5ab47d01c0af81ec7f05ed4e007cab50df96ec6e00e06f81f6b7427d0b007e1ba9db2a7b1b00f85b21dd37a9db0280df15d5daaabe0600fc37a17697eab600a0bf15adce547f0300fc9fd0f4caea9b00c0ff49a69ababf0400fc5f3075d3fa1600e0ff651295fb5f0000ff4f245dd5fa2500f0ff9250e5de2f0080ff2f124dddfd0200f8ff1151e9dd2f0080ff9f80c6be7f0000feff80687aff0500e0ff0f8452ff3f0000feff004c7bff0100f0ff0f20d9ff0f0080ff7f00a8f77f0100f8ff0700fbff0300e0ff3f00d0ff3f0000feff0140dfff0100e8ff1f00f8ff170040ff7f00a0ff7f0000feff0300feff0500b0ff3f00e0ff2f0080ffff0080fdff0200fcff1300f8ff0b00d0ff3f0060ff5f0080ffff0100fcff0300fcff0700f0ff170070ff3f00c0feff0000ffff0200fcff0d00f8ff0700d0ff5f00a0ffbf0000ffff0200feff0200f4ff0f00f8ff0b00e0ff3f0060ff3f0100fdff0500fdbf0500f8ff0f00f4f71b00e0ff3f00c8fe770200feff0300fdf70a00f8ff2f00f0f72700c0ff7f00c8feaf0000ffff0300fbfb1400f8ff1f00f0f78b00a0ffff00c0fd2f0280fbff0300fbfd2200f8ff0f00f4fb950060ffff00c0fe370900feff0300fd6f0900f6ff0f00ecfe590060ffff00c0db5f0500feff0700bc7f1500b8ff3f0070fb570180ffff00a0ed6f0500feff0700dafd0b00d8ff3f0068fbdd0080ffff0280f6fd8200f8ff0f00d9be4f00e0ff3f0092bebf0800feff034079f71300f8ff0f00a5f72f0180ffff0030eefe1200f8ff0740d5fb4b00e0ff3f0094bbbf0200feff2120dafd2700f0ff0f8062f7af0080ffff00486dff0200fcff07a0d8f62f00e0ff3f0092edbf0200feff0148b5fd0b00f8ff0f8054fbb70080ffff00906dff0200fcff0720b5fd1500f0ff3f0052fb370100ffff0920f9fe0200fcff170162ff2e00e0ff3f0224f67f0000ffff4940e2ff0a00f8ff974240fe5f0080ff7f8980e4ff0100fcffab2280fd0f00f0ffb72a00f57f0000ff7f970250ff0300f8ff772a01fc1f00c0ffaf5705a0ff0000feff5e1580fa1700f0ffdbd500687f0080ffbfb702a0fb0300fc7fbb2b00d91f00d0ffef6d08d07e00c0fadfbf0540de13006cffff3900d45700a8fdfdaf0142b70920d5feff0d40f4aa00a4fdff5701c82e0522daffff0490bc521062f6ff9f00a94d0511eaffff00a45a952028ffff47806a4b0a84ecff7f00aaba540052ffff4320b3652140fdff1f00552f0d40d8ffff0054f3d200a0ffff0740d5ad0a00faffbf0098bd1a00f0ffff01907a6b0100ffff2f006aaf0300fcff7f00d0be2e00e0ffff0500dd7d0000ffff1f00e8f70500f0ffff0180fe5e0080ffff0700fcfb0000feff1f00b0ff1300e0ffff0100fd3f0080ffff0700f4ff0200fcff3f0040ff0f00e0ffff0100fd3f0080ffff0f00e0ff0300fcff3f0080ff0f00e0ffff0100f6ff0000ffff0f00e0ff0500fcff3f0080fd1f00d0ffff0300f8ff0000ffff0f00e0ff0300fcff3f0080fe1f00b0ffff0300f8ff0000ffff0f00a0ff0700fcff3f0200fe1f00f0ffff0800f87f00c0feff2700e0ff0900fcff5f0200ff4b00e8ffff0800f8bf00c0ffff1300e07f0380feff8f0040fd1700faff5f2100f45f00e8ff7f4500b0fe2180ff7f170980fa4700fcffaf4400ea2f02f0ff5f930850fd08a0ff7f2d1180fa0b00fbffd75080d45e20f8ff8f130550dd21a0ff7f561210ad1740feff29531250bd20f4ff972991c0aa03e1fd7f521509525708fdff159524a86a41f8ff17692981d426c4fe7f894a15245b10fdff85aa3290b491d0ff3f915241c51644fdff112e2b207689d0ff3f286941b18544ff7f4153038a3b09f4ff0f291a94f444d0ff5fc8d480c4af04fcff0b450a4abe12f0ff27992a01f45701f6ff934202955f0978ff35ad0880fa5f00f6ff55810075bf04b4ffb55600c0fe0f80feefb30400fcbf00b8ff7a2d00c0ff0700ffef6b0100fc7f00f8dfbe1a00c0ff0700ffff550000ff1f00fc7f6f0900f0ff01c0ffef4b0080ff0f00fcff5e0400fcff00c0ffff0200e0ff0700ffbf9d0000ff3f00f0fff70400f8ff0100ff7f4d00e0ff0700ecffbb0000ff7f0040ffff0400b9ff0380fa7f170124ff2f00a8ff3f9040d5bf0540f6bf13121a7f6d00e47f2f48e8e46b0312efbb22254bbd2e20f1dd53a4d9a4d50589be5b925c555a1d91f47a61d2ab8ae6a4549725ce3e2a6a5549ad6a64ed9389961a7555225dbf0ca9aaa94b49d47b534a0d4d7b1a40ef3f12d1b4b9a940ea7b8b4585d9bd1280fd5f1429d57a5500f5ef458594766f08a0ff5b8c4872df0580fdbd4a0985fb3d00e8feab4a90f8fb0280fd3bb388a0df2f00d87f9b0a44fabf00e0fe66ab04d0ff0700f66f5d1240ef7f00d0fdda2901f4ff0180f7972d05d0ff1700dcbdec5200fd7f00d0f7a94b02f8ff8280de1bbb2840ff1f00fa6ed2a504dcff00b0bf253d24f0fe0700ff36d45180ff1f00f47f818d0afc7f01c0ff136834f0fe0700fb3fc05203ff1f00f8ff011417fc7f0280ff1f8074e1fd0700feff00d045fb9f00e0ff07805df2fb0480ff3f00e8a3fb0b00fcff038057f55d00b0ff1f007a2bdf0680feff00e09eba2b00f4ff0700dfa5b708c0ff3f00b8376e1580feff0180fbd45508e8ff0f00fa471b13a0ff7f00a07f6a5280feff0100fba74501eaff1f00f03f162990ff7f0080ffcda040feff0300f8bf4212e4ff1f00c0ff1b4890ffff0000fc7f88a0ecff0f00e0ff4380e2ff3f0000ff1f2148fbff0300f0ff0910faff4f0080ff970062ffff0000fc7f0a80eeff0f00e0ff1380b8ff3f0000ff5f01a0fbff0500f87f4a00f6ff1700c0ff5780e0ff9f0080fb2f1308f77f0300fafe5220eaff9500e0fb4d8264ffab0884ae5f9250fb57492874fa5282f5ef88a461d32b09ba7f45b0562add28e8fe55c0da92d22689fd8f40de2e28ba24f57d08f2f700d1a39adf82d0ff05009f5a7d1528ff3700b0ebeb42c0fd7f0200fef70400ffff0300e0ff0f00f8ff9f0000ff7f0080ffff0100f8ff0700fcff0f00c0ff3f00c0ff7f0000ffff0000ffff0100f8ff0f00f0ff0f00e0ff3f00c0ff3f0080ffff0000feff0100ffff0200f8ff0700fe772b02a0ff1f00f877b52300edbf00eabeaa3e11607d15d2dd456b4f10a86b536d1b5af71280d46eeb6a89f59d04007ebf5caad8de0500f0ffa9a945eb3d0000ff5faa3ab1ee0300f0ff49578b6c3f0000ff9ff46ac2db0300f0bfc95f0b5c3700a07fabbe5ba0e50500ddadeedf08aa2b0072edf2f713896612282babfe7f48b05241a552ddff8b028b4a2a19eaff5f2828d1a285c2feff8a8144562d24f4ffb72482a8b612a0ff7f952488749b20f4ff574982507705e0febf2a15047a3701ecffa7d220a07d13c0febf541502ea9f00f4ff65ea0440ff05c0fe5f6a2700f85f00f4ff497b1100fd0f80ff2bda5700e0ff00f8bfc2fe0400fe0f80ff0bed2f00e0ff04f07e52ff1200fc2f80ee8be9bf0080ff03e837aaff0900f83f80bda9f47f0080ff13d053cd7f0700f83f815a6afe5f0080ff0ba454dbff0200fe5f0292baff3600e0fd2b01d4feef8000ed7f0580f6ff2a08a8fa5f01a0ffaf9020aaff0b00fcff220a11fd7f0180ff4f4889a8ff1700f8ff10a942f67f00c0ff0fa12ae4fe0700fcff082a25fd3f00e0ff0b50ab98ff0900febf009953ed2f01e0ff0740bb6a6f0580fe3f00f54e755d00f0ff03a0bfa9ea0281ff4f00f6572a2f04f4ff0070ff24db0450ff1700ff2b525b40fa9f00ec7fa2ca0265ff12c0ff15542ea8fc9500df5f28d544b16f04eaff04a58d4a5d25917f27925c69cc2549fd5e24b1a5559548d97f8544b5ae2a41acff8d50d4746b1190fd7f0862d56d1501eaff4740aabe2b01b0ff9f10c8ecbb1180fcff2a4064df9700c8ff6f0848de7b0a80fcff1500e9fd4a80d2f7bb0284be5f0288fbef32007adf2448dabb6d21c1fa4e04a5fbae8a44d65e1262debb3258b4b94584d9f7250553571b89a8fe3e0a58f55a21c2fcfd12a0da5b1502d5ff4f00d47ead0051feff4400d9bf0580f4ff4f00947f5b00a2feff0420e97f0300f5ff8f008aef1d0150ffff0890f8f61100f5ff278222af2f02d0fe7f041969bd2380faff894889d61b0594ff4f542a34dd3220f57f525509a55b05a5df8db62c20bb0b91fa6bd1ab01ca3e49b457953f0d40fa5342bbaafa6b01c03f159a55d5ff0a00fcb3603969fd5f00c0bf438c92feff0400fc2f4491f4ff0f00e0ff0502c9ffff0000fe9f2020feff0f00f0ff2200d0ffff0080ff1f0100feff0f00f8ff0100f8ff7f00c0ff170080feff0700fe7f0100f8ff3f00e0ff170080ffff0180ff3f0100fcff0f00f8ff0300e0ff7f00c0ff3f0000feff0700feff0000f8ff3f00e0ff0f0080ffff0180ff3f0000feff0f00fc7f0300e0ff7f00e0ff170080ffff0300fb7f0100fcff1f00f0ff090070ffff00c0fe9f0000ffff0700fc7f0480f4ff1f00e0ff4700d0ffff0000ff9f00a0feff0300f4ff0220d9ff3f00c0ff0740"
	DPCMSample Name="Choir Ahh C" Color="ffc6a1" Folder="famidash choir" Data="aaaaaa6aa5aa5a55aa5a5556a5aa56a5aa565555a5aa56a5aa5655a9aaaa55a5aa5595aaaa5a55a9aa5595aaaa6a55a96a5555aaaa5a4b496dad94aaaad62a5275ab94cab4b629a4ee56a454b5dd1448ef4d2295b6bb1250bf2b422abbdf08c0fe1782927d7f04c0ff1582a8fd3f0180ff0f40d4fe7f0080ff8f00c8ff7f0080ff1740e8fe7f00c0ff1300d2ff7f00c0ff2500d1ffbf00c0ff4a00b1ff7f00e0df1201f1ff1f00f0b71581f0ff1f00f8b54a42e8ff1f00f8554d22d8ff0f007e4da942f4ff07007d95aa12f4ff07007d25b50af2ff07005f85d605e9ff07003f85da11d9ff0340bf82da0ab9ff0380df42d612f5ff0140df44b60af5ff0140ef48ab22f5ff0140dfa23283f5ff0140dfa45251fb7f00c0bf52a9a0f5ff00c07f1991b0fd7f00c0bf9a44d0fe7f00c0ff4a08b4ff3f00c0ff2a04e8fe7f00c0ff1300daff1f00e0ff2b00f0ff3f00c0ff1300bcff1f00e0ff0b00f4ff1f00e0ff0b00faff0f00e0ff0700fcff0f00f0ff0200fdff0f00f0ff0100ffff0300f8ff0280fdff0300f8ff00a0fdff0300f8ff0050ffff0000fcff0060ffff0000fe3f00b4ff3f0000ff3f00b1ff3f0000ff3f006cff3f0080ff0f40daff0f00c0ff0744edff0300e0ff0724ebff0300f0ff81a8f57f0900f0ff1069bdbf0200fc3f22d5f6be0000ff4f48b5ee2f0200ff17525bbb5700c0ff85d4daf61500f0bf22d96eed2a00f05f45756d7d4600f82f21fbae3a4500f557926edd5e0280fe1351bfad2e01507f2ab1b7ab2701d07e89e8efd58a00ccb794f4f5e68500f45788fc77b52180ec1b4abebb6d2100fb46a27edf3c0840f70693ef5e2f1040bf09a9bf573700d0bd41e9de772b0070af44faf5e60b00b877a4d8fbf60a00bc9d50ededfa0600bc1e347dbbee0200be2e9ab676ff0000df8654bfb5de0040d74d55b3ee5f00c06745ee6bdade00c0e5559ba57e5f00e06951df1add370070b9ea56a5bd0f007632d9afa2fe0d00ba34f65ba2fd13005e8cfc2fa1fd03802e4dfe56d0fb03809b0afdafa0fd01412745ff27d0fd01609742ff2768fd02e0a6c4fb2bf07e00e89560ff0f58bf00e8a968ff0aba1f00fc4ad0ff15583f00ec36d4be15dd1700fc2ab0ff056d4f007c2bd4b725770700fe25e8df22dd0b00fe166ab7cade0900bf15d4efa4ee0280fe15d5b6aa6f01807f135a5fa6dd0280bf15ad4dd6df0000ff0b4dafaaaf02807f4ba69ababf0080ff035337736f0080ff571195fb1f00c0ff43d256ad5f00c0ff4b42d5be4f00c0ff0bd1cadd4f00c0ff4750e5de2f00c0ff27a0f2fd0700e0ff0764d9fb0700e0ff07a1f4fe0700e0ff0730ddff0900e0ff0f40eeff0100f8ff0390deff0100f8ff0320ffff0000fcff0140ff7f0000feff0140ff7f0000feff01c0ff5f0000ff7f00e0fb3f0080ff7f00e0ff1f00c0ff3f00e0ff1f00c0ff3f00f0ff0b00f0ff0f00f8ff0700f0ff1700f8ff0500fcff1300f8ff0300feff0200fe7f0100ffff0000ffff0080ff7f0000ffff0080ff3f00c0ff5f00a0ff3f00c0ff3f00e0ff0f00d0ff1f00d8ff0f00f0ff0f00f8ff0300f8ff0700fdbf0500fcff0300f7bf0100feff0140ff7e0200ffff00c0feaf0080ffff00c0ff4b00e0ff3f00b0ff4b00e0ff1f00eaef1300f0ff1f00fcfd2200f8ff0f00fcbf1000feff0300fbbf0800feff0380fe570280ffff00c0f74f0280ffff00c0ff9500d0ff3f00e8fe5500e0ff3f00d8fd1500f4ff0f00bc7f1500f8ff0f00b67f0500f6ff0780ee6f0500feff0380f6df0080ffff0060bddf0080ffff00a0fb3d0280ff7f0064f73704c0ff3f00a4ef2f00e0ff1f00e5de4f00e0ff1f00e9fe4b00e0ff8f00d9fb1300f8ff0740b9fb1300f8ff0720b9f70b00f8ff07207aff0600fcff01286eff0200feff01486dff0200ffff0048edfe0200ff7f0092ed7f0080ff7f0092edbf0080ff7f0052fbb700c0ff3f0064fb2f00e0ff1f80d4fe1600f0ff1f80d4fe0b00f8ff2780e4df0300fcff2780d8ff0200fcff2780e8ff0100feff8980f47f0000ffff4980e8ff0100ff7f8980f87f0080ffbf4a80f87f0080ffdf2a00f57f00c0ff772900fd1f00e0ffd72901fa1f00e0ff7b5500fa0f00f0fffb5400fa0700f8fff79400f60700fcffbe1280fd0300fcffee0a80fd0100fbffb70150bf00c0fefb6f0150df00c0f6ffef00d05b01a0fdfb6f02d0ad0052ddffbf00d0ab00a2feff5700b14b0191bdff5f00724d8188f6ff1f4072534190faff1f40725382a0faff4f806a9302a1feff07a06a530148ffff072073630150ffff0350f5b20060ffff0350db3400e8ffff0054dd2a00f0ffff0098bd1600e8ffff00a8bb1600f8ff3f00b2b70300fcff3f0074ef0200feff1f00f4ed0100feff1f00f87b0100ffff0700f65f0080ffff0300ff3700c0ffff0100ff0f00e0ffff0100ff0f00f0ff7f00c0ff0b00f0ff7f00c0ff0300fcff1f0070ff0500fcff1f00f0ff0400feff0700f87f0100ffff0700f47f0180ffff0100fe5f00c0ffff0100fd1f00f0ffff0000fe1f00f0ff7f0080ff0700fcff1f00e0ff0900feff0f00e0ff0100ffff4700f0ff0080ffff0300f87f00c0ffff0900fc1f00f0ff7f0200fe2f00f0ff7f0080ff0b00faff9f0080ff0300ffff1700e0ff00a0ffff8500f05f04e0ff7f0900f49f00e8ff7f8200ea2f00faff6f0880fa0700ffff2b1180fa2380ff7f4d0260fd04a0ff7f4b04a0fb00f0ff5f2301545f08f8ff674501545f00faff674501b41e10feff295504542f10fdff991201ab0e84ff7f521501d316c2fe7f514982ca05e1ff2f692981d485b0ff5fa854507121f4ff17aa32907821f4ff0f2a55505c08f5ff07592d207621f4ff0f4a16145b88fcff054d0b883e11fcff438a06452f04fdff054b03a2af04fcff439182e22b01ffbf51aa00d25f01f6ffa38840e59780fb3fd31202f85f00f6ff530140dd2f01fb5f6b1100fc3f00eeffb30000ff0f80feafd70200fe1f00faff670100fe1f00feefab0100fe1f00faff570000ff0f00ffdf570000ff1f00feff4b0080ff0700ffbf1700c0ff0700ffff0b00c0ff0700ff7f0700f0ff0300ffff0300f0ff0300ff7f0300fcff00c0ffef0200fcff00c0ffdf2000fe3f01a0ff5f2180fcbf00a0ff3f2050fd5d0064ff1f2868fa750062ff2f5038f9ba80d0bf2b52acf4ba80d0df53a459697541e4eb25a955a97544b4bb61d2ab923529d6e9d0eca3a23525b56a61f563a1a5265d95c8f9cba026972e45d2bb534a454b9f82d0ff13114b97a702697f4b4585d5af04e0ff2589526d5701d4ff268394f62b01e8ff258324df9b00f4f72a8544fb2f00e8ffa68284bf0f00faef2c8388df2f00f8dfa602a2ff0b00de5fad02c4ff0700ee5f9704d0ff0700fbaba702d0ff1300f7a72b01f4ff01c0ddd32701f4ff02c0fba94b02fc7f00f0bdb18b00febf00e86fd2a300fb3f00fa5dd25180ff1f007e37d451c0fb0f00ff1bd828e0ff0700ff0f7034f0ff0180ff0f3035f0ff01c0ff075016fc7f00e0ff07c016de7f00e0ff074017fd1f00f0ff036097ee4f00f8ff01a097fd4b00f8ff01e0d3fc1500faff00e8adfc0a80fe7f00d827bf0a00ff7f007897be02c0ff3f00748f5b09e0ff1f00ec8b5701e8ff0f00f6c7c604f8ff0700faa74301faff0300f76b5101feff0100ff65a140feff0100ff2d2210ffff0100ff2b2890ff7f0080ff2b08c2ff7f0080ff8708e2ff3f0080ff4780e8ff1f00e0ff9180f8ff4f00c0ff2300faff0f00e0ff0920f6ff1700f0ff0820eeff0f00f07f0580fdff0500f87f0580fdff0100fe9f1280f7ff0100fe5f0142ffbf0080f74f05a2fb3f01c0ee4f8168ff5700e0fb9304d9ff4a40e8fa4541ed5f252874de5260fd5b42aa38bd24e2fc17a15a26dd28e8fe15b0ada86c92787f0a78b720d924f55f08fa3d2074a9f94d40ff17007a5a7d15c8fd0f006cdf2e04baff0b00f87f0500ffff0900f8ff0100ffff0100fcff0100ffff0000feff0080ffff0000ff7f00c0ff7f0000ff7f00c0ff3f00c0ff1f00f0ff0f00f0ff0f00f0ff0700f8ff0700fcff0100ffff0000feff00e0ffb60280fe7f00f077750301fb2f80faabda2340f555c8ee456b1701e9dad4b589f54b0250bb6dab89d59f0080df2fa78aed5e0080efafa616ad3f0000ff9faa0e6b3f0000ff2f5d27b23f0000ff1fbd1aec5e0000ff0f7f2df07c00407fabfb16585e00d0ddeaf723a8ae00b0edeaef43a2a940aab2faff21c14a41a552fdffa1c0a2a28aa1feffa1c044a38542ffff921091551341f7ff930891da0a81fbff0d8908dd2680fbff150512dd1540ffbf2a1510f64d00fbff2a15807a4f00fbff4c1500fb2e00fd7fa54e00ec9f00fa7f592700f85f00fc7fb81e01f05f00fe9fd85e00e07f01ec3f693f00e07f01f43fb43f01c0ff00ec9fd4bf00c0ff02e82fa6ff0080ff03d88fea7f0080ff03d8a7d2ff0100ff03d453f3df0100ff13a8a5fabf0100ff07a4d4fabf0080ff27206afbdf0080ef2f01d4fd5f0140f75f0160ff6f20a0eaff00a0ff2f2444eaff0280ff2f2842f4ff0100ff9f4812eaff0180ff0f924ad8ff0180ff0fa291d8ff0180ff8fa05274ff0180ff0f502b59ff0280ff0f9035b5bf0480ff0f40b7596f01a0ff0f40ef54b70580ff0f80f7a9ea01e0ff03607f29eb04e0ff03c0ff24db04d0ff0960ff22b505a8ff0270ff12cb02e5bf04f07f21e582d25f027c7f21d544f1ab80fa3f42e9a8d45542fe9d50dc686c1951df17316c5a5989a8ff0d1255bb2a81aaff231455bb9600d9ff2388d5761501eaff13846adf0600fbff0920b3df0580fcff0a01d9bf4500fcff860079df4900fcff25007abf1220ddbf2b00ba7f0920eeff3200f63d0994eddd16826c5f1194bebb8a44b55b8298f72b13459b1b09667f9704534f1b11aaff9304666f1582b2ff4b80da5b1508e5ff1700edd78220e5ff1701e4df0580f2ff1700e5df0540eaff1700e5df0300f5ff1780e2f70600f5ff1740e2fd0602f4ff47a0c8bb0702ecff0b6164f52501faff9250a2f54601f9ff48a9487553a0f47f525541e95644fadd68ab80f22e84fa6dd16b01d24f12edd5f8d300e44f09ebaaf96b00f04f8566d9fcaf00c0df8265a9fd5f00c0bf09a3a8ff5f00c0ff0845d2ff3f00c0ff1140f2ff1f00e0ff1180f8ff1f00e0ff0300f4ff3f00f0ff0100f8ff1f00f8ff0100f8ff1f00f8ff0100f8ff1f00f8ff0100f8ff0f00fcff0100f8ff0f00feff0000fcff0700fe7f0000feff0700fe7f0000feff0380ff3f0000ffff0180ff3f0000ffff0180ff1f0080ffff00e0ff0f00c0ff7f00e0ff0700e0ff7f00f0ff0500f0ff3f00f0ff1100f8ff0f00dcff0200fcff0f00fc7f1000fdff0700fc7f0040f7ff0300febf00a0feff0100ff2f0064fbff0100ff0f01b4ff7b0080ff0f00b5ff370060ff0f00f57f5700d0ff4500bd7f1700d4ff0540f76f2b00d4ff05407fdf0a01b2ff0148ffaf2408f1f702c8ff2e4610f2fb02e0ff1b1211eafb00f2ff1a120ada7d08f4ff864409ba5f08f4ff458282b61f22fcff82c082ab0f49eeff90a082731709ffbf20a4d0e98a92fd3f115074d54465ff3d84506a5552b5ef5e0244bd49c8f6b79702c87611d17eefaa01d0ee20e8febbaa00e87d00f2fdaf2a08f85e00f4ff2d2d04783f00f4ff8b4d00f60f00faff472501f60f00feff512580f50f00fcff4b5440fd0300ffff111548fd1100ffff1145507f01c0"
	DPCMSample Name="Choir Ahh C#" Color="ffff93" Folder="famidash choir" Data="aaaaaa555555a9aaaaaa56555595aaaaaa6a555555aaaaaaaa565555a5aaaaaaaa555595aaaaaaaa5aad54a9aaaa4ab5b6aa94aa5a2a656d5725a9aaa5946a6f2b89aa5a4a52fb5d4528ad2589dabf2b41545b1251ff6f0542b52582ecff9f00545b8450ffff1300d58a80ecffff00502d81a0ffff1f00644580ecffff0700a510a8ffff3f00a01242faffff03004a4464ffff3f00a08848f5ffff03001249d2fdff3f040021a9baffff130020946af7ff3f010082aadeffff120000a9dafdfdbf080080aabbdfff550000a876f7fe5f050080daeef6ff560000a8edeefe7b090080dadbf5f79b000068bd5ddfbf0a0040b5bbf5fe2d0100546f5bf777230020ed76b5ef570200ca5e5b7bbf450090da6db5fdad040065d756ebf78a0024756badde571140c9aeb6eabe260494ba55abf6ae044265b7acaa77552054edaa4abd5b0922ad6daad4dd2a21aab6554aedd644a2dab624d56e9524aadb2a5175ab4aa4766b0955dd2a49d96e5550d556a554db2d0595b5aa4ab5bd4a48a92babd4b69782a85a5555eb6e2544aa9656b5eb4d21a4aab45a77dd1222aa54adf6762b21918aaaeddeae149124516defdb4a9144126afb7b97144a1222db7fef48a11241d4fedf8b24291188f5ffbd28920a8268ffbf4714a98088faff6f24910a88a8bfff2712a98088f9fd7f9290228854dfffab84242049dbfbbf2a4140945abdff6d050290aaabbbff2e0100aa6db5bdff260000bdab6affbf0000d05f95eaff2f0000fc9748fdff0300c0ff44e8ff7f0000f82f01fdff0f0080ff09e0ffff0000f83f00feff0f0080ff03c0ffff0000fc3f00fcff0f00e0ff01c0ffff0000fe1f00faff0f00e0ff01e0fe7f0000ff1f00fdff0500f8bf02d0ff1f0280ff4b80fa7f0500ed5f1168ff2b01a4fb2642f56f23106daf24d4be9b44a8ed8a48eddb5224adad88d4dd564969b52251bbb52a35ab4a4875d754d56a9310e97653aa5d570844df2e49ddbd0201f5db22d5fd1600547f4da2bd5f0140ed5749daf70b00d47b95c8febe0040dd5b8aecef0b00d4bd2ac9f7bd0020ddad9276ef1308d06d2b55775f4280dada54ebee2a04a8d54dad6db72480aaeeaad5ba5502a4eab6da6a6b2510aa7aababd6aa84a0aab76e6ab52a08497deb9566b54490d4b75da9aa4d04497d774ba95a4520d5efae24b5360292fdde29526d2340eabf5b22d95602a4fdb72594752540da7f5742aa5b02a4fb6f45a47a2540b6ff3688aa5704a8ffdd82a87a0581f6bf2d88aa971068ffbb0229770990ee7f2b906a2b01e9feb70229bb1284eeff2688744b41e8fd6f4244b71490edff1684b45581d8fe5f42485b1588edff1588b45541e8fe5f0251570d90f6ff2510b5d52068ff5f02526b8d80faff2520b5b608a8ff5f0252db4a80faff2520b5ad04a8ff5f0452db2580faff0622b55b02b0ff9f4052772500fbff122475570268ff2f41546f2580faff4424ed5602e8fe5744546f1380f67f4548ed2d01d4feae48d2dd0a20edf78a28db2d21b0bd3791b4bb1281eabd15c9b6ab10a4ed6e92acbb8a2069772ba9b6ab4490babb926abb2a02a9dd2da9b6ab12816cef8a6add960450bdafa4da5d2500d57e4b65dd2d0980fabb52d6de4a00d0fb2ba5ed5b0200f5bf4a6abf1500a0ff5792f6b70400e8ff15a9ff160000ffbfa0fadf0000f0ff07b2ff2b0000fe7f20ddff0100c0ff0fd2fd1f0000fcff01edff0100c0ff1f50ff1f0000fcff01f5ff0100c0ff1fc8fe1f0000fcff01edff0100c0ff1fc8fd1f0000fcff41fabf0200c0ff1fa1ff0d0000feff09f66f0100e0ff5fc87e2b0000feff45da5d0100d8ff5f52db4a0040ffdf956a550108ea7fdf54958a2088beffad2a512222d2fedf9522129588ecdfbf14905425a2faff9700a4da04c9ffff0400b52b81ecff3f00c07b0550ffff0b00d82f02f8ff7f0000ff0a80ffff0700f05f00f8ff7f0000ff0580ffff0700f05f00f8ff7f0000ff0580ffff0700f05f00f8ff7f0000ff0940ffff0700f02f00f5ff3f00807f05d0ffff0100ec1781faff1f00c0bd04e9ffff0000dc15a1fdff0700b0ad84faff3f00805a2569ffff0100559524f7ff1f005055a2f4ff7f0180524552ffff1700a89448faff7f00824a12a9ffff0720284592faff7f00811249e9ffff0304482295fdff3f10808854b5ffff45000892d6feef5f0200826abbbfff250100d0f6defbaf0a0000eebebb7f5b000060ff6d7bdf450000f87faddd5f010080ffaf6aff150000f8ffa5ba7f090000ff3fb1fe570000f0ff0bb5ff050000ff7f50fd5f0000f0ff87e8ff050000ff7f84fa7f0000f0ff47d0ff070000ff7f01fd7f0000f0ff0f50ff0f0000ffff00faff0000f0ff0fa0ff170000ffff00daff0100f0ff0f90fe2f0000ffff04f0ff0a00e0ff2f00fbbf0000fcff03d0ff0b00c0ff3f00edff0200f8ff4340ff2f0080ffbf00f8ff0100f8ff0b80ff9f0000ffbf00e8ff0700e0ff0f80fe7f0000feff00e8ff1700c0ff1780feff0000fc7f01e8ff0f0080ff1f80fdff0000f8ff01d4ff0f0080ff1f40fdff0200e0ff83d0ff2f0000fe3f82faff0200e0ff13a8ff1f0000fe3f41f6ff0200c0ff0f61ff1f0000fcff08fdbf0200c0ff4fa4ff2d0000fcff22fadf0200c0ff2f91ff2d0000fcff91f4df0200c0ff9fa8fe4d0000fcff29ea6f0100e0ff5f52fd160000fcff97d2af0200e0ff5f257b4b0000feff2da9570900a0ffff4aba2a0000fbff9f54ab0200b0ffff2555550080f6ff5f51550a0068ffff93942a0180eeffbf48ca240068ffff8b48550240eeffbf8864250450ffff8790aa1200f5ffbf20aa960050ffff0b24750900f5ffbf8054570050ffff1390f61200f4ff3f4069af00c0feff03a4f60a00fcff5780ea5e00c0ff7f01a9de0500fcff17a0ec3700a0ffbf04ca7e0300eeff1542dd2f00d07f5f82d4ef0200fdf78a50fb2d0068bf3711b5bf0480eebb4552f74b00d4ddad48edbb08a0ba6da5d47e4b00695b9752ddaf0448adb652d5fb8a10aaaa5565fbae08a1aa6aaa76df8a0895d2aa6af72b894829d5b4f6be92484a5255eb7d2b915424aad6deb792244524adedfb2a514a4454eb7eaf24a54444b5eeef2a2a494864ebf7aea4924288bafede4a2a4508a9ebefaea84a4290dafe6d93aa2404a9ddef56a94a4290dafd5da52a2502aadddf95d24a02a2babf6d492d2540a9fbdb2ad54a1190babfad524d9500a9efd74a6a550990f66faba4669500e5feba92acb60890dd5f2b516d5580d4fbb524555b05247b6f5591da55206af7d614aa6e05516daf55a16c5784aa766b1552bb2652aadb5641d96e494adab615a476572aa2d5db20d2be5505a9be0b827abf9580b4bf1048ff6f0190fe2b00baff2f00f07f0140ffff0300fc1f00e8ff7f00c0ff0100ffff0f00f81f00f0ffff0080ff0100feff1f00f03f00e0ffff0100ff0700fcff1f00f03f00e0ffff0100ff0300feff1f00f03f00e0ffff0100ff0300feff1f00f03f00e0ffff0300fe0500feff3f00e01f01e0ffff0300fe0280ffff1f00e04f00f4ffff01007e0940ffff1f00e02702daffff0080be42a0ffff0700d88b08faff7f0080dd1051ffff0700b41512edff7f00405b44d2ffff0120b48524fdff1f00a25a50d4ffff022059094afdff0f01519520f5ffdf4090b408a4ffff0b08ca4a40daff7f01a45a0248ffff27806a1580f4ff7f80a8b60050ffff0710ed0a00f6ff7f00d25e0880ffff0780ee2500f4ff7f00685f0140ffff0700f79500f0ff7f0070df0400ffff0700fb4b00f0ff7f00d0df0200ffff0700fd2d00e8ffbf00d0df0280feff0340fd2d00d4ff3f00b4df0240fbff0920f72e00e9ff1701eade0288fddf8490ee2e08d47f9710d5ed44a0eedd24a5da5644d46dab54a96d2922bb6a5555599b92644badda92b5aa242da9ad5d54b396a442b5bd45555d9544d0de2f52daad2480fafd22a97e950060ff9f20ed6f0200faff0554ff4b0080ff5f40f67f0100f0ff0768ff0f0000ff7f80fe7f0000f0ff07f0ff170000fe7f00ffff0000e0ff0be8ff0f0000fe3f82fe7f0100e0ff03f9ff030000ff3f50ff3f0000f8ff84ecff050080ff57a4fd1f0000fcbf49f5df0200a0ffabb4fe0d0000fbefaab66f020068bfd75a778b00806e7f6deb5a8200d4fadbb5b58a0890aaefbb56559210a47abf5b954a4910d2fdb79552552210ddff5689aa9640d0fd6f25525b4500ebff5544da2d01c8fd6f89a8dd8a00dcff2522dd5b02a0fbaf22d2bd1500baff4a44ed5b01a0f73749d4bd1500ed7d2549dd3b01d0de5b94d4bb1580dcdd5229bd5b01a8ed4d55b2dd2540b65d55a5d6ad08d2daa655aaed92a06aab5a55555712a5b5aa5555b54aaab44a5bb5a455a9a929b5d54aaaac56554adb9a44a5edaa92b4ad8528f5de9448bb5610b2fba782b46b0548ee7f1544bb5500b2ffaf02b4db0440fdff1340db4d00e8ff7f00b4db0040fdff0f40db1500e8ffff00d25d0180feff1f00db0a00eaffff01d0b600a0feff1f80aa1500daffff0148ab04a0fbff3f00549500f9ffff01805a0950ffff1f00a8aa40f4ffff0100d514c4feff1f00a05621daffff0300a81591fdff3f00006b11b5ffff0300d02649f7ff3f0000ad52ecfeff030050aba4deff3f0000b52adaffff020060ad52fdff2f0000d62ab5ffff0200a0d54af7ff4f000056adecfe7f090090d5aadeff9b00005a6dd9fdbf120090d666dbff2e0100696db5fb6f2500a0bad5b67f5702006a5b6bfbbe250090b6b5b6efab040069dbda76df4a0090b6b56def55098068575bf76e15014475b56def6a2220d25a5bf7b62a04216db5b66fb54408a9666bf756954484aab66db76a91225455db76ab2a252155d56db754658a4855db7653a95a2292d6dd4ea9b4169164dd6da5545d4944b5dd4d926a571252dbdd44527b9508b5be4d84eabb1444dbdd4450f7ad08aaed4b04da772b44dade44a0f6b70952ed4d04d4df5784d46e2540edbf95206d5702a4efdf84c8761540daff2d416a5b01a4eeff4aa0d61510b2ff6f81a86d0121edff2f405a2b0451ffff1260d52208f5ff5f0095568290feff4740a94544e4ff7f0192aa4444feff0f81489324d2ffff0481544a22fdff5704444a25a9ff7f250228a992f6fb5f094022add4bdff960440544d7dfbb72a00446ab56fdfad022048dbbeed6e2b0100d9edaf76db0a00a0f6fd66dbb60000b4df5fd5b60d0100fdfe55ad5b0900d0f73fb5da960000bdff53ab6d1200d0f75fb5d5260480baff565bad040152f7bd75ab0a42886cef6d77958088546dbbfbae0820a9aad6bebf450094aa5aedfe370180aa5555fbff0a00d0b62ad9ff5f00006d6b92deff0700a0b795e8fe7f0200d8bb44eeff170000bf2bd2fd7f0100f0bd11dbff170000fb97a8fbff0000e07f25b5ff170000fe57c9f67f0100e0ff4a6aff170000fabf4afd6f0200c0ff97aaff060000fe7f95f6af0000e0ff4fd5fd120000feffaaba4f0000f0ffafeaee040080feff6adb150000fc7f6f6d5b0200c0ffefb66d250000fcffeeb6550000b0ffefed4e090000bfffbebd120100f0fbef7b2b010040fffe7daf120000ecbfbfef2a0100c0feeff7ad220000ecfffdbe290000d0febfdfab020000ddfff7bd4a0000d0fdffbead040000dbffefdb4a0000d0fbffddad040000fd7fdfdd4a0000d0ffdfddae040000fdffddee4a0000d0ffbf6db7020000fdff5b7b2b0000"
	DPCMSample Name="Choir Ahh D" Color="ff579c" Folder="famidash choir" Data="aaaaaa555595aaaaaa6a555555aaaaaa6a555595aaaaaaaa555595aaaaaaaa555595aaaaaaaa565555aaaaaad4daaa54aa5a2a55db564aaa5a29a9ed3625a96a4949fb6e0a296b4992eddf22486d4522fbbf0921b52542eeff0b10b54504fdff1780d44a10f9ff3f00544b40ecffff00509500d9ffff03801902eaffff07002a02e9ffff0f004884e4feff1f004884d4feff1f004848d2feff3f004050b2fdff3f040050aafdff3f010090aaf7ffbf080080aaf7f7ff0400806af7fd7f1500006af7deff1500006aeff6ff1500006a6ff7bf970000686fb7ff9b0000586fd7dfaf0000546fdbfeb70400506f5bdfdf0400506f57f7770500a8765b7bbf090014775bebef4a00906e5beb7e8b0028ed6aabf7950094ec5aab7d9b0052da55abeead4050b9adaafa561150b5ab4add5b11446b9b2aedae12a2da5629b5571392da3645b55d2591baad22d5ae2a91da9b0955db4a4ab65b85546d554a75b71494b6aa4a6db70a52daaa4a6d6f89906a554ded6e2588aaa655dd761342aaca6add6d1311aa54addddd8a88a4a4dadedb4a44a2486ddfbb4a249188d6fd77492445846afff744a11204b5fff722911202d9feff22894a8068ffff09452a40a8ffff89442a20a4fbff47222a2062fdff2709291052fdffab422420d17affaf0a2240a9b5f7bf151040aaabfbf74d00806a57dbfb9f0000f49daafbff0000f057a5feff0200e06f22fdff0700c0df08faff0f0080ff22f0ff3f0000ff09e0ff7f0000ff03e0ff7f0000fe0f80ffff0000fe0f80ffff0000fe1f00feff0100fc3f00feff0300f83f00feff0300f83f00fdff0100fa3f80fcff0100f63f02daff0500fd5e02daff8a00ba5f02d5bf958074b744d4fb2621dab644d4be2d89b4b648d4de564a6ab548d45dab52b52a11d5dd54d56a9320dadd94eab68580ecdb24f5ee2200f5db4475bf0500f9d744dabf0500f95b45dabf1300f45b49ecef0b00b46f49f4fb0b00d4af2af2fb0b02d0db2ada7d9700d06d2bd5ed9700c8ae4db5edad08a0d636ad6daf0490aab76aad5b2580aaddeaaa6d2510aaeeeaaab52a04aaf6eaaad6aa80287ddb9565ad1024bddb95aab60822f5dd4ba95a4540f5bb2b496d2320767f1749751320da7f9748b61501d97f5748da9500d97f57426a9700e9bf37426a970069ffb740aa571068ffb740aa5b0868ffb720aa5d04a8ffb708ca5e0268ffb702a9ae02a4ffbb0149b784a0fbbf4124bb24a0fdbf0924db1490bdff05215d1581ddff85106d9580edff25206d5540b6ff17206d5504daff1704b55501d9ff1781b4d680e8fe9f80d4b604a8ff5f80d4b602a8ff5f4054bb12a0fd7f2052bb09a0febf0252bb0540ff7f02527b4500ffbf0449bb2580eeff0449bd1580faff0449bd9500fa7f4548dd4d00faef4548dd2d04b4ff4a24dd2d02b4df2b24ed2e21b0fb4e22edae08a8be5b22ebae4460ee6ea26aaf225076b7926ab79240dade926abb4a046a774b6abd2a81a8de2baaed560450fb2da9f6561140edb794b5b70480fabd52d6bb1200f4bf52da7e4900d0ff2a697f1500e0ff95a8f72b0080ff57a4fd1b0000ff3fa4fe570000febf20fbbf0000f8ff20fd7f0000f8ff01ddff0200e0ff03f5ff0100e0ff07f4ff0100c0ff0fb4ff070080ff0fd2ff070080ff1fd0ff070000ff3fc8ff070000ff7fa0fd2f0000fe7f88fd4f0000fcff82fd570000fcff11fb2d0000feff857a570000feff2575ad0000fdff956a550280bcff3755a90804d9ffb7aa482222d2fd7fa5904849c4feff4a02529590faff9700a83641eaff5f00d0ae04f2ffbf00807709d0ffff0000ff0260ffff0300fe0a80ffff0300fc2700ffff0700f81700feff0f00f81700feff0f00f09f00fcff0f00f05f00f4ff1f00e0bf00f4ff3f00c0bf00f4ff3f00c05f01ecff3f00c05f04ecff3f00c0b740faff1f00c05b81faff1f00a0ad84faff1f00a05589f6ff1f00505512fdff1f00505528fdff1f00289548fdff1f00a89488f6ff3f00a41291faff3f80a02491faff7f00a04452faff7f00908854f6ff7f10801055edff7f02802059dbff7f0900806a7bff7f4900006cef7bff290000b8bfdb7f570000d07fd7fd5d0000e0ffadee5f0100c0ffabba7f050000ff5f6aff050000ff5fb2fd170000febf50ff170000fcff44fd5f0000f8ff81fa7f0000f8ff21fa7f0100e0ff07f4ff0100e0ff07d4ff0300c0ff1fe0ff0300c0ff1fa0ff270080ff5f80ff170000ff7f80fe1f0000ff7f01fabf0000feff00fcbf0000fcff03f0ff0200f8ff03d0ff0b00e0ff0f40ff0f00e0ff0f40ff2f0080ff3f00febf0000ff3f00fe7f0000fe7f00faff0100fcff00f8ff0100f8ff01e8ff0700f0ff01e8ff0700e0ff07e0ff0f00c0ff0760ff5f0000ff4f40ff3f0000ff1f40ffbf0000fc3f20ff7f0000f8ff80faff0000f8ff10faff0100e0ff05f9ff0100e0ff23d8ff0b0080ff0fd2ff0b0080ff4fa8ff0b0000ff3fa2ff0b0000ff3f91ff2d0000fe7f44fb2f0000fcffa2fa370000fcff49fa570000f8ff27b55f0000f8ff97b4af0000f8ff57b2b70800e0ff3fa95b0900e0ffbf926d0a00e0ff7f52ad1200a0ffff49551500a0ffff25552500a0ffff93942a00a0fbff4f924c0480feff2f24550180feff2f22590a00edffbf40aa0a00f5ffbf40aa2500f4ffbf80d21600b4ffff80545700d0ffff00652f02c0ffff00a9b700c0ffff00a9bb00c0fdff01aa7d0100ffff01aa7d0180feff01ca7e0500feff02ca7e0300fe7f05d27e0300fdbf05517f1300fcef0a527f0b00fa7e13527f0b007adf25d27e0b0274ef4a52ef8b00eab69554f74b0069dba554ef2b08d46a4b55ef2b02aaaa5569ef2b02a9aa9a6af72b21544aabaaf72b11494955adfb2b89284955adf72d495444aab6f7ad444922d2dafbad44292152ebfead242921526dffaea4940891adffaea49204a1ae7fb7a45204a1b6bfbba44a2290baf7dba42a1190dafd5da52a0990eafedda42a4980eafe6d292d2540eafeae292d2540eafeb64ab5940069ffb64a355500a9ffb68a5a5580a4bfb792aa5502a4efbb92ac360162efb792d4561150f7d712555d05a8f66b55a46d05a2766f55a8ba154875af5524dd15a2aab75622759b48a95d5b21d96d9292b65d05aa77a984566f0351df5505aa7d83a0fe5b0948bf0b20fdbf0980fe2b00faff0b00fc1f00f4ff1f00f81f00f8ff3f00e07f00e0ff7f00c0ff00c0ffff0180ff0100ffff0380ff0100ffff0300ff0300feff0f00fe0700fcff0f00fc0f00fcff1f00f80f00f8ff3f00f80f00f8ff3f00f09f00f0ff7f00e09f00f0ff7f00e09f00f0ffff00803f01f0ffff00803f01f0ffff01005f02f0ffff01007704e8ffff0100be0464ffff0300de0461ffff0300de9050ffff03006d0951ffff03006d0949ffff03806c0949ffff03106a0949ffff4300590952ffff4380540552ffff2340d20292feff1740aa8290feff0f806a0520ffff0f806a0508fdff1f806c0b00fdff1f806c0701f4ff7f00741700f8ff7f00d89700d0ffff00e85700d0ffff00f03e01c0ffff01c0df0800ffff03c0df0200ffff03c0fe1200feff0340ff0a00faff07407f0b00faff1700df2b00f4ff1700fb2d00f4ff27007b2f00eaff47807a2f10d8ff8d40ba3b01d2ff1621b53b41a8ef5552aa5d11516fab54a96d49a4ae5a5595b629912eb56a4bb5aa222daa6d17d5aa492a54b797546d9524d0de2f94b62b11a0fb2fa4fa360180ff5f20ed6f0200fe7f20f5bf0000fcff02f97f0100f8ff01faff0400e0ff03eaff0300e0ff0be8ff0700c0ff07f0ff070080ff0fe8ff070080ff0fe8ff0f0000ff0fe4ff0f0000ff8fd0ff0f0000fe5fc8ff170000fe5fa8ff170000fe9f54ff4b0000feafd4fe0e0080febdaabd170080ee5f6ddd4d0080ee7e6bdb964000addfdd562b2140aafedd56551201a97edf56a9940424fbdf5552552220fbbf55a46a0501bdff55486d1500edff9590764b00ecff9690ba2b0168ff2711bd970068ff2b11ed5b0260ff2b11f55d0160ff2d12f5dd0050bf579474ef0440ef5ba4b46f05c0f6ae94d27b05a0763755b2dd85806e5b55a9ed8a206dab56a97593906aab5a55d5954856ab5a55d52aa9b24a5b3569556a6a4a5dada4ca5a55255d6b24a5edaa246d6b4252f74d89746b81c8fda782745b4190ff5709b45b11c0febf02d46d0340fdff03d0ee0200ffff03d06e0300fdff0f40770500feff0f40bb0500faff3f80da0a00fcff7f006c0b00fcff7f00aa1600faffff00d02a08d8ffff01505502d8ffff03805602d4ffff0380aa42d0ffff0700d414d0ffff0700a815a2fbff1f00a09590fdff1f00c09648fbff3f00009b24fbff3f0000ad12fbffbf0000ac52baffff0000d44abaffff0000d82ab5ffff000058abb4ffff020060adb2efff050050b5b2f7ff050090b5aaf7ff0500a0d5a6fbff4a0080da66bbff2b0080da56bbff550080ea56bbfb570200ead6bafd6b02006ad7dafead020069dbdadeb70280685bdbf6572500645b5bf76b2500515b6bfbae2620486b6dbbb72a04225b6ddd572d84a0aab5ed5b552282aab5edae5a242155b56dafaa948454d5aeb754951252d66e3795aa8528597737a9b42611597b5b49d5964454bb5b49aa5b1151dbbb88d45e2548eb5b89a8f792206ddf4450bf2d816aef22a0fdae04a97b1310fbb709547d1302edbf4548ed550075ff9520ed5620e8fb3781745701a4efbf04b25d01a4febf0aa86d0920fbff15a0b60910edff4f80568b80d4ffbf00564b20d4ff7f8094560491ffff01925a8488ffff0548aa2442feff1720b22421fdff0f01512989dcff5f08904949dcff5f2280922adadf7f8900222db5f7bf250022d5d4efdfaa00406ab56fbfad0400d2b5dfeeb602006477bfbadd1200a0bdbfd5760b0040ef7f55db4d0000fb7f55eb560000bdff536b5b0200f4ff536b6d0200f4ff555bad0400eafe575dad0402d47e55"
	DPCMSample Name="Choir Ahh E" Color="ffc83c" Folder="famidash choir" Data="aaaa6a5555a9aaaa6a5555a5aaaaaa555595aaaaaa565555aaaaaa6a5555a9aaaaaa5555a5aaaaaa5a2b95aaa6526dab4aaa5a4ad96e25a96a29a9bd2d91aaa5487b6f22aa9624b67f15246b11a9ff2b82b44948ff5f01d22a41faff0b20ad08b2ff7f005485a0ffff03402508fbff3f002481f4ffff00201164ffff0f008448fdff3f001022edffff010090eafeff070040aafbff1f0000aadeff7f0100a07affff030080dafdff57000068eff77f010060bdf7ff050080eedeff170000ba77fb7f020050eff5ff0a00407bdbff2d0000ed5df75f0100b477f5bf0500c8ddb6fd1b0180765bfbaf0400b96dedfe2200d2adb5fe960024b7b67a6f0250bad5aadf1240e5adcaee550055af2aed5d81d0b6a5d4bd0aa1da564a7b4d84ea3645f5561269b70ad5ae4aa4dd1952ed4a91f65641d55549b53705a59baad4bd0a52baaa52f7264169554dbb5702a99a56ddde8490aaac75770b412a55dbdd2b44a4a8b6dfae844822ad7fb712910869f7bf492411c4f6ff13891210edff2f224a40d8ffbf48a80091fbff23910a80faff2f422a00e9ff7f442801a2ffff51a00448bdffaf200222edfebf0a04486afbff5600406aebfedf0400685bbbff270080bbaafd7f0000be95eaff0700e09f50ff7f00007f81feff0100fc0bf0ff0f00f01f80ff7f00c07f01fcff0100fe07e0ff0f00f81f80ff7f00c0ff00fcff0100ff03f0ff0700fc0fc0ff1f00f03f00fdff00c0ff00fcff0800ff0368ff0700fd17a0fd2f00ba5f08f55f09d0bd22d4bf4990ee8a50df2d11ad2d447d5b496a2d12edb54acdaa10b53755b53582e8dd94ba5d04c86f93f4de0240bf8dd4fd0500fd35a2fd9700f05b89f6bf00c07e25eaff0200fda5c8ff0b00f4ab22ff3d00d0db8af67e1100b72dd5fb4500dcb6d4eead00a875d3dabd2280daae56bb5300aaddda6a5b01a2baebaaad0a826aafab56ab0049df5e59b504247d77a56a0b8174df4ba9560254ffae48ed0488fd7b22d50d01fadf45643b02e87f97906d09a0ff5d41ea2580fe7705a99700d9ff0da46e0168ff3790da05a0fddf40aa2740faff0aa89e00d9ff2da0bc42a0ffaf40724b80febf01c92d017aff07113b05e8fe9f806c1581fd7f01d15501f6ff05485b05e4fe1f206d1590fd7f08b45601faff09505b03e8fe1f406d0ba0fe7f80b42d01faff0152b702e8ff0748ed05a0ff2f10b51701faff40d25d02e8ff83487709a0ff0f22dd1580fe3f84b45704f87f0952df04e0ff25487b0b40fbaf90ec2e08ecdf42b2bb08b0ef15c9ee12a0ee5b24bb2b04dabd89ecae0494bb2baabd8a40baafa4762b0169f792daae1220fb2d6abd2501b4bfa4765702507f4b59df2400fa2f55bd2b00f0bf52b65f0200ff27697f0500f87f92fe2b00c0ff45da7f0000fe9fa8ff0500f0ff20ff0f0080ff87ecff0000fc3fd0ff0300f0ff40ff1f0080ff03f5ff0000fc3fd0ff0300f0ff40ff0f00c0ff03fdbf0000fe1ff0ff0200f0ffa0ff0b00c0ff23fe4f0000ff1ff85f0000fcffc8f70200f0ff87de1500c0ff1fb52d0100ff7fa9550180faff53951210e4ffaf2a121142fbff95205122eaff2f015215a1feff1180da20faff1700ec0ac8ff7f00e05700fdff0700df00f8ff1f00f80bc0ff7f00e01f00feff03807f01f0ff1f00f807c0ff7f00e01f00ffff01807f00fcff0700fe01f0ff3f00f00bc0ffff00805f00ffff03007e01fcff0f00f822e8ff3f00e01668ff7f00a02ba1ffff00805689feff03005589fcff0f005485f4ff3f00482552ffff01a09490feff07804a84faff3f004822e9ffff002021a5ffff03808894fdff0f004254edff3f0100a4f5ff7f110080b6ffff250000dcf7fb6f0200a07ff7bf050000ffdbfd170000fcdf7a7f0100e0ff6aff050000ff9ffa5f0000f87fb2ff0100e0ff45fb1f0000ff0ff97f0000fc3fa1ff0700e0ff81fe1f0000ff0ff4ff0000fc3fd0ff0300f0ff01fe1f0080ff0ff87f0000fe7f80ff0b00f0ff01fe1f00c0ff07e8ff0000fe7f80fe0f00f0ff01fc3f00c0ff0fc0ff0300fc7f00ff0f00f0ff01f4ff0080ff0fc0ff0300fc7f00fe3f00e0ff01f8ff0000ff1fc0ff0700f87f00fe3f00c0ff03f8ff0100fe0fe0ff0700f8bf00ff1f00c0ff03f4ff0100fe0fd0ff0700f07f40ff3f0080ff03faff0000fc1fe8ff0300f07f82ff2f0080ff03f5ff0000fc9fd0ff0300f0ffa0fe0f0080ff17fabf0000fc3fe4ff0200f0ff44ff0b00c0ff8bfc370000febfe85f0100f8ff4afd0500e0ff97ec4b0000ff7fa92f0100fcff935e0500f0ff2fd92a0080ffff52ab0000feff4b550500f8ff9f542500e0ff7f49aa0080ffff23c90400f6ff5f489500d0ffff20550240ffff83a84a00fcff0fa49a00d0ff7f20750140ffff81d41500fcff07a43700f0ff1f90de0280ff7f40ea0b00feff016a1f00f8ff07a87e0140ff3f20fb0300ffbf80ec0f00fc7f05b43f0070ff4750ff0280fd2f44fd0b00eedf10f52f0078bf89b4bf00d0bd2bd2fe42806e5752fd4b00ba754aed2f01d4da52b5bf02a8aa55d9fe0a82aa6a6afb2b04a5b4aaeeaf084952d5babf12a24455edfd4a4489a8b6fb2b9114426befaf444988b4eebf12a51054dbff4a4a1250aeff2b294920dafeb7a4120169fbf7924a02a2eedf4daa4480da7f57a992006affdda84a02a8debf252d0990faef9ab4a400eabfad544b01a8fbb7524d0590dedf4a5a1540797f2ba93501e4fd2dc9da0450f7b724b51540ed5f13555702f2be55927605a4fd5685ea1648ed6d15d25d82aabd5648dd46947a6d09d99ba464db15a4bda584d53710edd704a9ef02e8df1520fd0b40ff6f00e8bf00f8ff0380ff01c0ff3f00f80f00feff01e07f00f0ff0f00fe0380ff7f00f80f00feff03c07f00f0ff0f00fe0380ff7f00f80f00feff01e03f00f0ff0f00ff01c0ff7f00f80700ffff01e01f00fcff07807f00f0ff3f00fc01c0ffff00e00f00ffff07003f00fcff1f007c01f0ff7f00f009a0ffff01802f80feff0700bd00f9ff3f00f084e0ffff00c02644ffff03009b10fdff0f006c44f4ff3f00a821d1ffff00a02548ffff41209520fdff27803401e9ff7f00aa02a4ffff01a84500ffff07a05600f4ff3f00db00d0ffff00ec0a00ffff03d01b00f4ff1f807701c0ff7f00f60500ffff03e04f00f0ff1f80df00c0ff7f00f61300feff01f02f00f8ff07c0bf04c0ff1f00ff0a00ff7f00fc2e00fcff0170bf00f0ff07c07e03a0ff2f80fa0d40fe3f81d8bd00f4bf0951f704a4df8da4da1642bdad546a5b22ea6a5595b64aa24bab36d9aa224deaba51ad262952f726555b4920fb2f94ed4a00fabf90da3704c0ff07d27f0200fe3f50ff1300f0ff40fe9f0000ff0ff8ff0000fc3fa0ff0700f0ff80fe3f0080ff03fcff0000fe0fe8ff0300f07fa0ff1f00c0ff80fe7f0000fe27f4ff0100f85fb0ff0300f07fa1fd0f00c0ff49ed3f0000fd2fed5f0100f4bf6aef0100d87fadbd0b0060efb76d5b0040ebdf6ead8400aaefb7552501a2fadf562a2540f47f57525502c8fd5f89aa8500fb7f45d45600ecff15a2bb04c0ff9790fa0a00f7bf82f49b00d8ff12d26f0160ff4b48df1500fd2f22bd5700ec5f91b4df00d0df4552bf03c0de2b257d1701b63755ea5e04d86e55a9dd21d0ba69a5b68ba0daaa5555574255ab5655b5924a2b5d35699596a674b5a2ca5a55d2b68994eeaa24dd1622f53745745b08ea7f8ad06d4150ff5740bb1500ffbf02f43600f4ff07d0dd00e0ff3f00770300ffff01ec1600fcff07d05b00e0ff7f00bb0280ffff016c0b00feff0fa09600f8ff3f00ad04e0ffff01501580ffff07809600fdff1f00aa82f0ffff004093c0fdff07005a81f6ff3f006085d8ffff008016d1feff07006822fbff1f00c04aecff7f00002ba5ffff0300b092fdff0f00c02af5ff3f0000add2fbff0100d44aefff070050adbcff1f0080b5eafe7f0000d69afbff0200686bddff4b00807675f75f0100dad5ed7f050068d7b6ff1600a06debfead0400ba6dbbdf1200e8b66e7f5500a0dbdafd5602406d6dfbad0980b4b6eddd2a20c856db7bb540909a6df7554504aab6edab160952d5b6b7aa244155ddde52a5125475bb53a9162259ef4e2a6b2264bd5b49b54542756f25aa5742d4be1351fb2448fb4e84fa4d826cdf08d4df22a8fd22a0f72b88ba4f80fa7b02d5be20d0ff1548bd1540fb5f81b45700f9fe13c86e01a4ff2f81da1580faff0a685b00b2ff9f80b60142ffff005a2b80f4ff0f60b58050ffff00698540feff03941621f4ff1f40aa4490ffff01c81211fdff07029524f2ff5f00a494c4ff7f1180a28abeff1701902cf5fd5f024054d3f7df2a00a056bffbad00806cfbeddd0a00e0eeafdd2d0080de7fb6dd0200e8ff55db0d00c0ff576d5b0200f67fb5b60900f0ffd3da2600c0ff575b1d0180fe6f75ad100075ffd6ab8280a87d6f5f05085175f77e0b80a4aa75ff9b0090aa56ffdf00806a55edff0b0068abe8ff1f00c0ad91fdff0100bc15faff0700f02ee4fe3f0080df42fdff0000de47ecff0700e05fa8ff1f00807f49fd7f0000fc97eaff0100f0bfa4fd1f0000ff2bed7f0000fc9f6aff0200f07fa5fb130080ff57fd4d0000febfea3b0000fcff6aef0000f0ff6bbb0500c0ff5fdb150000ffbfed560000fcffee560200f0ffbd370900c0fffbbd440000fffbf78a0000f4ffbf2b0200e0ffffae040080ffffbd120000feffef4a0000f8ffdfab0000e0ff7faf020080fdffdf0a0000faff7f2b0000e8ffffae040080ffffdd120000feffb72b0000f8ff6faf0000e0ffdfde120000ff7fdd2d0000f8ffd7b70400c0ff5f6f0b0000ffbfee2d0000fcffea7b0000f0ffabfb0a0080ff2ffb1b0000febff4bd0000f8ffd2fe0200e0ff4bfd0b0000ff3fb9bf0000f8ffa4ff0200e0ff93fe0b0080ff4fec3f0000fe3fd2ff0000f8ff48ff1300c0ff23f63f0000ff4fe8ff0000fc3fc4ff0300f0ff04fd3f0055"
	DPCMSample Name="Choir Ahh G" Color="a4db74" Folder="famidash choir" Data="aaaa5a55a9aaaa5655a5aaaa5a5595aaaaaa5555aaaaaa5655a9aaaa6a5595aaaaaa5555aaa6cada4aa99a4a6daba46a49d56d49aa25697b15a996a4f62da26a12ed6f42aa49d4bf25a82aa2fd2fa0aa10fd7f01aa44d4ff074415a2ff3f009590feff019084ecff1f0042d4ff7f002092f7ff070090faff3f0000eaffff000068ffff0b0080f7ff1f0000deff7f0000f4feff0100d0fbfe1f0000effd7f0000bcf7ff0100f0deff0b00c0bbfd3f0000eff5ff0000bcd7ff2500e06dfb9f0080b7edbf0200deb6fe1300f4dafa9700c86b6b7f02905eadfe0a40f5aa7a5700b5abb26f01b25d4adf0aa86e25ed5590b693d45722daad50bb8a68af42754b927b05555749dd5390ad2a75af40e9aad47b02a955d5ee25a09a56b74f40aaacddbd4028d57aef8290a4f6f70a1112eddf2b212268ff9f8444c0fe7f118a00edff272401d8ff9f880290ffff100a40feff232880e8ff5fa004a0ff7f090242fdff0b0408edffaf00406affbf0900e8baff0f0060d7eeff0000bb6aff0f0078a5fe7f00c027f4ff03003fa0ff1f00f803fcff00e02fe0ff03807f00ff1f00fe01fc7f00f80fe0ff01c07f00ff0f00ff01fc3f00fc07f0ff01e01fc0ff07807f00ff1f00fe01fabf00f807d8ff00b81f50ff23c0bd08fd1b81ee22f4bb84ac0bd1b725694d485f2bcd2a417d53b55620f655ea6d00f237d2f704c0df50ff06007f83ee1f00fc15daff00e057a8ff03806f22ff0f00fc4afc3f00f0add87f01c0db52ef070077537b2f015857ebbe04a0ed6adb1380ea6d6b5b00a9b7adb612a0f6ae5a2b80f47b69b500d1ef956a4340df2fa95600f5bf44dd00d4ff09b52380ff17649700fe5f885d01f87f09ea05e0ff15a81780fd3fa05e00f6ff807a01d8ff036a07a0ff0fa81d80fe3f90ba00faff02f212e0ff07c84b80ff1f103701eeff406c05d8ff13b09540ff1f405701eeff005d05d8ff03b45580ff0fd0d600febf00ed02e8ff03b40ba0ff0fd0ae00fe3f40bd02f8ff00f505a0ff07d21701fd1f485f02f87f207d05e0ff81f41580ff07d13d01fc1f44ef02f0bf84bc0bc0fe13b22f00fb8fc8be08e86f21f70aa0fb8aec2b04f62e6ab704e8bea4ee8a80de8bdaab00ec2f696f09c0fea2ee1500fd4bd53701e0bf64ef0280ff52f52700f82fe95f00c0ffa2ff0200fe87fa1f00f01fea7f0080ffc1ff0300fc07fd1f00f01ff27f00c0ffc0ff0300fe03fd1f00f01ff47f00c0ffc0ff0100ff03ff0f00f80ffc3f00c0ffe0ff0000ff83ff0300fc0ffe1700e0fff02f00c0ffa3770100ff1fdd0a00fc7f6a1500e8ff57a50050ffbf0a2102fdff251085f0ff4f005588feff006803eaff0f802ec0ff3f007c01fcff01f003f0ff07c02f00ff3f00fe00fcff00f807e0ff07c01f80ff1f007f00fe7f00f803f8ff03c00fe0ff0f003f80ff3f007c01feff00f009f8ff03c00be8ff0f005da0ff3f00b884feff006045feff014025f4ff0f0015d2ff3f005448ffff004842feff032009faff0f8044e8ff7f002092ffff010051feff070050f5ff5f0000b6ffff0000d8fbff0b0040fff71f0000fef77f0100f0dfff0500c0fffa5f0000fe6bff0100f89ffe0700e07fec7f0000ff45ff0300fc0ffd1f00e03fe8ff0000ff83ff0300fc0ffc1f00f03fd0ff0080ff03ff0300fe0ffc0f00f83fe0ff00c0ff01ff0300fe0ff81f00f83fe0ff00c0ff01fe0700fe0ff83f00f03fc0ff01c0ff01fe0700fe0ff07f00f03fc0ff01c0ff01fc1f00fc0ff07f00f03fc0ff0380ff00ff0f00fc07f87f00f03fc0ff0380ff00ff0f00fc07fc7f00e01ff0ff0100ff81ff0700fc07fa3f00e03fe8ff0100ff81ff0700fc07fd1f00f03fe8ff0080ff90ff0300fc17fd0f00f03ff23f0080ffc3ff0000fe4ffe0500f8bfb41f00c0ffcbbe0000ff9ffa0200fc7fe91500e0ff97ab0080ff3fad0200feff541500f0ff4f9500c0ffbfa40200ffff911200fcff875400f0ff1f640900ffff902a00fcff836a02e0ff0fd20580ff3f501700fcff41be00e0ff07da0380ff1fa80f00fe7fa07e00f0ff81fa01c0ff07f21700fe1fc83f00f87f40ff00e0ff01fd0380ff43f40f00fe0fd23f00f45f48ff02a0df22fd0b80dd15f52f00769bd4bf00b4b654ff82c06a95fd8b80aaa6f62f0125adeabf0452d4b4ff122151d5fe4b4421aafbaf9084d0fabf228940edff8a2401b5fb2f4a0264fbbf280990eeffa21240baff8b4a04e8fe57aa08a0fd5fa52280fa7fa54a00eaff962c09a0ff6db22480feb7525300baff4a4d05e0fe2b5a1580f72fa95500debfc4da00b8ff12751540ff4d545780fa57916e01ea6f85ea0552bf55c85ba07a6b21bd21a9b705d91749b657a0772958df00fd5581fa03e87f01f22f00ff2f00ff00f8ff00f807e0ff07c03f00fe3f00ff00f8ff01f803c0ff0fc03f00fe3f00ff00f8ff01f803c0ff07e01f00ff3f007f00f8ff01fc03e0ff07e00f00ff1f807f00fcff00fc01f0ff03f00bc0ff1f800f00ff7f007e00fcff03f001f0ff0fc007e0ff3f002e80ffff00d800feff03c003f4ff0f0017c4ff7f005810fdff017041f4ff07a005d2ff1f801548ff7f805420fdff01d200f9ff0fa002e4ff3f801600ffff015a00fcff07e802e0ff1fa00700ffff001f00fcff037c01e0ff0fd02700ff3f803f00f8ff01fe04c0ff07f80b00ff3f803f00fcff00fe02e0ff03f80b80ff0fe02f00fc7f80ef00f8ff00fa03e0ff03e80f80ff1760bf00fc1f41bd03e8df486a1744ef4aa55d82ba5655b64ae4b4dad4aa44a3ae47ad460a759f545712b0ff90ee1280ff43ea8f00f83fd07f00c0ff41ff0300fe07fe2f00f03fe0ff00c0ff80ff0300fe07fe1f00f80ff87f00c07fe0ff0100ff81ff0700fc07fe3f00e01ff4ff00807fc8ff0300fc8bfd0700f82fed1f00e0bff43f0080ff6abf0100fab7bd1300e8dfee1600b07fb7ad2080fabf558500eaff564a11c0fe5f521500fd7f896a01f0ff85b42580ff17642f00f6bf90be02e0ff82fc0580ff0bf45b00fc4f507f01f03f22fd05c07f91f41700ff46d25f01782f25bf05e03e95bc17807b5569af00ed6aa5ed046aab55d525a4ad56552d29ad5c4d5a699ab4b5a8ac5549b72169af12dd46487f15725b00ff27c86d01f87f01bd05a0ff0ff00e00ff3fc03d00f8ff01fb00e0ff0fe80500ff7fc01b00fcff01bb00f0ff0f6803c0ff3fa01600ffff01ac00f4ff0f5005e0ff3f801640ffff01a800fdff074013f0ff3f0054a0ffff006041feff070046f4ff1f0098c8ffff008092feff03004afaff0f00a8e8ff3f00c04affff00002bfdff0700b0f2ff1f0040cbff7f0000addeff0300b479ff0f00d0d6fd3f00805bf77f01006eddff2500b06df79f0040d7eebf0200eeb67f0b0078edfe5500e0b5fd5b0140dbf6be0600addb7d2b00b2b5fbb540a0d6f65745806abbaf16115475efaa2448d5ed4ba50265774fa98688f53d295b08d57745750952df15699740dd4f505f09b45f81fa0bc87e83b0bf80da8f80ff0a683f01fa9f40fd02b0ff41b41740ff17c85e01f8ff00bd05e0fe0fb01780febf806e01e8ff07d806c0fe3f602d00fdff01d500d2ff1fa02580ff7f409a00f9ff07a842e0ff1f201341ffff009444fcff039094e8ff1f00a2a2ff7f02802cfdff0500d4f4fbaf0080d6dfdf02005c7fbf2d00c0fddbbb0000fd5fbb0b00f07fb5570040ffd76e0100fe5fdb0600f87fad1b00e0ffb5b50080ffd7d60200ed7fbd0a0071fff6150051bdef2f00a46afb7f0180aa75ff07005a55ff3f00e02aeeff01806be8ff07007689ff3f00e00df6ff0180bbd0ff0700fcc1fe3f00e027faff00007fd4ff0300fca5fe0f00e05ffa3f0080ffd2ff0200fca7fe0300f07ffa0f00c0ffd53f0000ffaffe0000fcbff60300f0ff76170080ffbf5b0000feff5d0100f8ff6f0500e0ff7f250080ffff8b0000feff2f0100f8ffbf0400e0ffff120080ffff2b0000fcffbf0000f0ffff0200c0ffff0b0000ffff2f0000fcffbf0000f0ffff0a0080ffff2b0000fcffbf0000f0ffff120080ffff2d0000feffbd0000f8ff7d1300c0fffb2d0000ffefbd0000fcbf7e0300f0ff7a2f0080ffb37f0000fe4fff0200f07fed0f00c0ffd53f0000ff97ff0200f85ffa0f00e07fe93f0080ffc5ff0000fe0ffd0700f83ff41f00c0ffe1ff0000ff83fe0700fc17fc1f00e07fd0ff0080ff41ff0700fc07fe1f00f01fe8ff00c07fa0ff0300ff01fb3f00f80bf4ff00e02fd0ff03803f41ff0f00fe02fa7f00f813e8ff03c057a0ff0f007741fe3f00f485e8ff01d02be1fe0740b782fd3f00ec0af67f01b04dd4ff05c03ac9fe17806aa5fa1f01aa96dabf08a4acd6be2550aa5afb1644a5aadd572053d2f65e022d25edef08d84ad4ff0ac05d48fb1f007b85f47f00780fd1ff09807f20f71f00fe05ea7f00f03fa0ff0500ff21fe0f00fc0ff83f00e0ff40ff0180ff07fa0700fc7fd02f00f0ff896e0180ff5fe82200feff441500fcff17a420a0ffff808880feff038202daff3f001454ffff014041f5ff0f004ad4ff7f00a044ffff03000afdff0f0028d2ff7f00a042ffff03008afcff0f002872ff7f00a044ffff018012fdff0f0048f4ff3f002051ffff018082feff070011faff1f8010d0ffff800840ffff030900fdff0f5400d0ff7fd00080ffffc10a00f8ff0f2b02c0ff3fb40200ffffd04a00f0ff475b00c0ff9f740100ff7f521700f0ff475d00c0ff1fd90100ff7fa40b00fcff833601e0ff0fea0480ff3fc41500feff045b00f8ff0baa02e0ff2fc84a00ffbf102d01ecff13520568ff2f489540fdbf105942f4ff226449a4fe4f84aa48fa5f05aa92e8fe15a84a91fd5790aa42daff20aa4aa8ff13a8aa20ff2fa05a81f4ff805a05e4ff036915a0ff0fa22d00fd7f82ae00f4ff83b401e0ff0fd10680ff3f421700fcff855c00f0ff97680580ff3f911300feff442d00f8ff4baa00c0ffbf640100ffff520500fcffab0a00f0ffaa"
	DPCMSample Name="EON_AH" Color="ff7f72" Data="aaaaaaaaaaaaaaaaaaaaaaaaaaaaaaaaaaaaaaaaaaaaaaaaaa95aa5a55a9d619207f3ccef903c00f00c83f1ee7fdff3b6f000060dc00fefff0ff0100580f307f1fdbff0000f093effb01f0ff0300d027047c3fccff0700f77798f30f60df030040f738fe3fe0f70080f96f71f0dd63e30100c0fcc7fcfffbcf010000a0c29cfff3ff0f008c609c11fcff737c0000c3a7c7ffe3f077000018df0dfc7fc8ff0300f8fa383c3c3c3f00008ee9ff1fff1fc60000f0b158e1ff73cf07001418ffbeefe3c071000004fcff3f5fe9ff070000f05c00fcffff67003091f703c2df7f07100038fe1ff8ffe71010cc00e8fb8c7b377c1e307c60fcff0101e29f0000c7ffff3f85f87f020000fe7786c4ff4f002082f8ff01ff1ff31f0000c0f703cfff9fe7840000fe38e071f8ff3f0018fb6f0838e0f7ff0000e0ff0de1f0ff1f00c0e78f030cfcff1b0000ffff0df1c3bc07000000f3ff9ffcff038e0700f807c8ff31f1750041fcffe8f0f0f3190000fe9f01e39cffbf0300c0ff038cc7f75f0000bcff0df8f3f8fe0040c0e983c785e7df3b0400ee31e37c78de10c330fe7be0f9ccbd210060f6e810dbff9e730060fcef8863dc7f000000fff39e9d7f5e100020ff390e70feff0600c0ff8f631e1e370200e63fcebce3ff0f0000c3c79373feff0100d0f87976cef9770000781fe3ccf9ff0100fc7f18603ebb0500c0f9c780ffff4f8090c71f06dccf1f030072fe38ff1e1c00c0dff9c3c0fb4f200078ff8fb1ff0100731ccc1f06ff07e167e3383f00f8ff0c02c0bc7f18fb7f0000663a7e30ff1f007d1d06fc71ee7f00e004cb7983f0ff0780d9e6f987b1ff0100f30cc31d02fe7f88cf11c701c6ff0f00fe13803f8cff1f00be23c07c38ff3f0038ce00fe38ff3f00f0df00fe20fc7b00f0ff41b860ec7f00f09f613cc3f8ff00e0ff00f080f1ff0180ff0ce10ef7ff0700ef0b800ec6ff0f00de3fc2178eff0f00d83f004f18ff1f00f8ff08de30fe1f00f05f009c60fcff00febf0098e1f8ff00e0ff01f083f1ff0300f045f19fe3ff0200e78dd2378cfb0700de0785ef30ec3d80ff7f0238c2f0ff00c07986f087fbff01c0e308f03fc67f0700c49bea7f18ff07003cef10cf8720ef01e679ce391fc0bd0710e719e0fd18e739e23c0404cf8f77df31c6288c78fe38e61d40b0cc71fd0f61ef00f4cfa543cf438073e0e710e6716e18f7bf3908408ced8f63de038423dcf3fec3b06700f179e4709cc310e739ff386680bc87e1ef3112705c30fec7b84f0073699ee3bcc3184784ff8784a11e43b0ffb9e700c2d0f81fe3ff890380f020ce3f8e3b877e07b2c9e83c0639cef903620c71ef60fcffde00401ca6ff0f60ef00c2719ee3ff73006e06f11de31820afc2f0ff390700d3cefb1e84fd073086390f36ff00e43fe07dc701c0f30fc2ffc7190218209cff21fc7f9e43a073c0af0fc0ef831c870b80f8ff60fc7f06c60c21c4ff7120fc3f8031ce3fe29c0fc0ff078ce31c007c7f10fe1fc871c471e8ed1b069f0772c6780838fc03f0ff1fc6384600fe7f30fe3f0000ce31f27fce10ee3fc073870028fb2e00ffff0110df41f0ff1f80fd0730ef180300fb1c0cffff7f0c0300a0ff8f60fc5f066280c7a5ee3e83f8e739471c0440e37c3e8ebf83e0fd087216278f81e3ef397c0f00009abdff63f89f44e61140f58e236618febe82f84781c1e9bb9dc781a252fabd00c05c19e6f7f5d6ef01c01304df2e8d521603fdef707d03c0d9264f9b4785d23988793728add1b4f37aade254421aa754ceba0a8469f57e2d5b4705a352d479ddb21094cb8cd755c3acd2725c75af2986a2d4b4aa94c952655dadde5d2548384e6b5749959148ca6afbbe5659a4aa6ab5544aa528a95ab375abaa54d6aaad2991a6945a55ad69552249d5f6bead8a4a452995d6b5ad2221a9dab6526bb5aa3255b5d6a69288aa9656a5ac5aaa6aaded36a71445b49635cd544a92aaaaed6db7528a526955ad2a2525a9aaaadd6e5529655a6b5ba5544a2955aa5a6ba92455edeeb652494952a95a6b5d958848d5baadad55a954aa69dbb54a422455b5aaaa5ab36a55556d6da548546a6dad5252925456dbeedd564a8a5455adaa542a51aad4badd6da5522aabaaa954952a55a56ab55655a5aa55adaa5495aaaaaaaa6a555595aaaaaaaaaaaaaaaaaaaa555595aaaaaaaaaaaa6a555555555555a5aaaaaa5655555555555555555555555555555555aaaaaaaaaaaaaaaaaaaaaaaaaaaaaaaaaaaaaaaaaaaaaaaaaaaaaaaaaaaaaaaaaaaaaaaaaaaaaaaaaaaaaaaaaaaaaaaaaaaaaaaaaaaaaaaaaaaaaaaaaaaaaaaaaaaaaaaaaaaaaaaaaaaaaaaaaaaaaaaaaaaaaaaaaaaaaaaaaaaaaaaaaaaaaaaaaaaaaaaaaaaaaaaaaaaaaaaaaaaaaaaaaaaaaaaaaaaaaaaaaaaaaaaaaaaaaaaaaaaaaaaaaaaaaaaaaaaaaaaaaaaaaaaaaaaaaaaaaaaaaaaaaaaaaaaaaaaaaaaaaaaaaaaaaaaaaaaaaaaaaaaaaaaaaaaaaaaaaaaaaaaaaaaaaaaaaaaaaaaaaaaaaaaaaaaaaaaaaaaaaaaaaaaaaaaaaaaaaaaaaaaaaaaaaaaaaaaaaaaaaaaaaaaaaaaaaaaaaaaaaaaaaaaaaaaaaaaaaaaaaaaaaaaaaaaaaaaaaaaaaaaaaaaaaaaaaaaaaaaaaaaaaaaaaaaaaaaaaaaaaaaaaaaaaaaaaaaaaaaaaaaaaaaaaaaaaaaaaaaaaaaaaaaaaaaaaaaaaaaaaaaaaaaaaaaaaaaaaaaaaaaaaaaaaaaaaaaaaaaaaaaaaaaaaaaaaaaaaaaaaaaaaaaaaaaaaaaaaaaaaaaaaaaaaaaaaaaaaaaaaaaaaaaaaaaaaaaaaaaaaaaaaaaaaaaaaaaaaaaaaaaaaaaaaaaaaaaaaaaaaaaaaaaaaaaaaaaaaaaaaaaaaaaaaaaaaaaaaaaaaaaaaaaaaaaaaaaaaaaaaaaaaaaaaaaaaaaaaaaaaaaaaaaaaaaaaaaaaaaaaaaaaaaaaaaaaaaaaaaaaaaaaaaaaaaaaaaaaaaaaaaaaaaaaaaaaaaaaaaaaaaaaaaaaaaaaaaaaaaaaaaaaaaaaaaaaaaaaaaaaaaaaaaaaaaaaaaaaaaaaaaaaaaaaaaaaaaaaaaaaaaaaaaaaaaaaaaaaaaaaaaaaaaaaaaaaaaaaaaaaaaaaaaaaaaaaaaaaaaaaaaaaaaaaaaaaaaaaaaaaaaaaaaaaaaaaaaaaaaaaaaaaaaaaaaaaaaaaaaaaaaaaaaaaaaaaaaaaaaaaaaaaaaaaaaaaaaaaaaaaaaaaaaaaaaaaaaaaaaaaaaaaaaaaaaaaaaaaaaaaaaaaaaaaaaaaaaaaaaaaaaaaaaaaaaaaaaaaaaaaaaaaaaaaaaaaaaaaaaaaaaaaaaaaaaaaaaaaaaaaaaaaaaaaaaaaaaaaaaaaaaaaaaaaaaaaaaaaaaaaaaaaaaaaaaaaaaaaaaaaaaaaaaaaaaaaaaaaaaaaaaaaaaaaaaaaaaaaaaaaaaaaaaaaaaaaaaaaaaaaaaaaaaaaaaaaaaaaaaaaaaaaaaaaaaaaaaaaaaaaaaaaaaaaaaaaaaaaaaaaaaaaaaaaaaaaaaaaaaaaaaaaaaaaaaaaaaaaaaaaaaaaaaaaaaaaaaaaaaaaaaaaaaaaaaaaaaaaaaaaaaaaaaaaaaaaaaaaaaaaaaaaaaaaaaaaaaaaaaaaaaaaaaaaaaaaaaaaaaaaaaaaaaaaaaaaaaaaaaaaaaaaaaaaaaaaaaaaaaaaaaaaaaaaaaaaaaaaaaaaaaaaaaaaaaaaaaaaaaaaaaaaaaaaaaaaaaaaaaaaaaaaaaaaaaaaaaaaaaaaaaaaaaaaaaaaaaaaaaaaaaaaaaaaaaaaaaaaaaaaaaaaaaaaaaaaaaaaaaaaaaaaaaaaaaaaaaaaaaaaaaaaaaaaaaaaaaaaaaaaaaaaaaaaaaaaaaaaaaaaaaaaaaaaaaaaaaaaaaaaaaaaaaaaaaaaaaaaaaaaaaaaaaaaaaaaaaaaaaaaaaaaaaaaaaaaaaaaaaaaaaaaaaaaaaaaaaaaaaaaaaaaaaaaaaaaaaaaaaaaaaaaaaaaaaaaaaaaaaaaaaaaaaaaaaaaaaaaaaaaaaaaaaaaaaaaaaaaaaaaaaaaaaaaaaaaaaaaaaaaaaaaaaaaaaaaaaaaaaaaaaaaaaaaaaaaaaaaaaaaaaaaaaaaaaaaaaaaaaaaaaaaaaaaaaaaaaaaaaaaaaaaaaaaaaaaaaaaaaaaaaaaaaaaaaaaaaaaaaaaaaaaaaaaaaaaaaaaaaaaaaaaaaaaaaaaaaaaaaaaaaaaaaaaaaaaaaaaaaaaaaaaaaaaaaaaaaaaaaaaaaaaaaaaaaaaaaaaaaaaaaaaaaaaaaaaaaaaaaaaaaaaaaaaaaaaaaaaaaaaaaaaaaaaaaaaaaaaaaaaaaaaaaaaaaaaaaaaaaaaaaaaaaaaaaaaaaaaaaaaaaaaaaaaaaaaaaaaaaaaaaaaaaaaaaaaaaaaaaaaaaaaaaaaaaaaaaaaaaaaaaaaaaaaaaaaaaaaaaaaaaaaaaaaaaaaaaaaaaaaaaaaaaaaaaaaaaaaaaaaaaaaaaaaaaaaaaaaaaaaaaaaaaaaaaaaaaaaaaaaaaaaaaaaaaaaaaaaaaaaaaaaaaaaaaaaaaaaaaaaaaaaaaaaaaaaaaaaaaaaaaaaaaaaaaaaaaaaaaaaaaaaaaaaaaaaaaaaaaaaaaaaaaaaaaaaaaaaaaaaaaaaaaaaaaaaaaaaaaaaaaaaaaaaaaaaaaaaaaaaaaaaaaaaaaaaaaaaaaaaaaaaaaaaaaaaaaaaaaaaaaaaaaaaaaaaaaaaaaaaaaaaaaaaaaaaaaaaaaaaaaaaaaaaaaaaaaaaaaaaaaaaaaaaaaaaaaaaaaaaaaaaaaaaaaaaaaaaaaaaaaaaaaaaaaaaaaaaaaaaaaaaaaaaaaaaaaaaaaaaaaaaaaaaaaaaaaaaaaaaaaaaaaaaaaaaaaaaaaaaaaaaaaaaaaaaaaaaaaaaaaaaaaaaaaaaaaaaaaaaaaaaaaaaaaaaaaaaaaaaaaaaaaaaaaaaaaaaaaaaaaaaaaaaaaaaaaaaaaaaaaaaaaaaaaaaaaaaaaaaaaaaaaaaaaaaaaaaaaaaaaaaaaaaaaaaaaaaaaaaaaaaaaaaaaaaaaaaaaaaaaaaaaaaaaaaaaaaaaaaaaaaaaaaaaaaaaaaaaaaaaaaaaaaaaaaaaaaaaaaaaaaaaaaaaaaaaaaaaaaaaaaaaaaaaaaaaaaaaaaaaaaaaaaaaaaaaaaaaaaaaaaaaaaaaaaaaaaaaaaaaaaaaaaaaaaaaaaaaaaaaaaaaaaaaaaaaaaaaaaaaaaaaaaaaaaaaaaaaaaaaaaaaaaaaaaaaaaaaaaaaaaaaaaaaaaaaaaaaaaaaaaaaaaaaaaaaaaaaaaaaaaaaaaaaaaaaaaaaaaaaaaaaaaaaaaaaaaaaaaaaaaaaaaaaaaaaaaaaaaaaaaaaaaaaaaaaaaaaaaaaaaaaaaaaaaaaaaaaaaaaaaaaaaaaaaaaaaaaaaaaaaaaaaaaaaaaaaaaaaaaaaaaaaaaaaaaaaaaaaaaaaaaaaaaaaaaaaaaaaaaaaaaaaaaaaaaaaaaaaaaaaaaaaaaaaaaaaaaaaaaaaaaaaaaaaaaaaaaaaaaaaaaaaaaaaaaaaaaaaaaaaaaaaaaaaaaaaaaaaaaaaaaaaaaaaaaaaaaaaaaaaaaaaaaaaaaaaaaaaaaaaaaaaaaaaaaaaaaaaaaaaaaaaaaaaaaaaaaaaaaaaaaaaaaaaaaaaaaaaaaaaaaaaaaaaaaaaaaaaaaaaaaaaaaaaaaaaaaaaaaaaaaaaaaaaaaaaaaaaaaaaaaaaaaaaaaaaaaaaaaaaaaaaaaaaaaaaaaaaaaaaaaaaaaaaaaaaaaaaaaaaaaaaaaaaaaaaaaaaaaaaaaaaaaaaaaaaaaaaaaaaaaaaaaaaaaaaaaaaaaaaaaaaaaaaaaaaaaaaaaaaaaaaaaaaaaaaaaaaaaaaaaaaaaaaaaaaaaaaaaaaaaaaaaaaaaaaaaaaaaaaaaaaaaaaaaaaaaaaaaaaaaaaaaaaaaaaaaaaaaaaaaaaaaaaaaaaaaaaaaaaaaaaaaaaaaaaaaaaaaaaaaaaaaaaaaaaaaaaaaaaaaaaaaaaaaaaaaaaaaaaaaaaaaaaaaaaaaaaaaaaaaaaaaaaaaaaaaaaaaaaaaaaaaaaaaaaaaaaaaaaaaaaaaaaaaaaaaaaaaaaaaaaaaaaaaaaaaaaaaaaaaaaaaaaaaaaaaaaaaaaaaaaaaaaaaaaaaaaaaaaaaaaaaaaaaaaaaaaaaaaaaaaaaaaaaaaaaaaaaaaaaaaaaaaaaaaaaaaaaaaaaaaaaaaaaaaaaaaaaaaaaaaaaaaaaaaaaaaaaaaaaaaaaaaaaaaaaaaaaaaaaaaaaaaaaaaaaaaaaaaaaaaaaaaaaaaaaaaaaaaaaaaaaaaaaaaaaaaaaaaaaaaaaaaaaaaaaaaaaaaaaaaaaaaaaaaaaaaaaaaaaaaaaaaaaaaaaaaaaaaaaaaaaaaaaaaaaaaaaaaaaaaaaaaaaaaaaaaaaaaaaaaaaaaaaaaaaaaaaaaaaaaaaaaaaaaaaaaaaaaaaaaaaaaaaaaaaaaaaaaaaaaaaaaaaaaaaaaaaaaaaaaaaaaaaaaaaaaaaaaaaaaaaaaaaaaaaaaaaaaaaaaaaaaaaaaaaaaaaaaaaaaaaaaaaaaaaaaaaaaaaaaaaaaaaaaaaaaaaaaaaaaaaaaaaaaaaaaaaaaaaaaaaaaaaaaaaaaaaaaaaaaaaaaaaaaaaaaaaaaaaaaaaaaaaaaaaaaaaaaaaaaaaaaaaaaaaaaaaaaaaaaaaaaaaaaaaaaaaaaaaaaaaaaaaaaaaaaaaaaaaaaaaaaaaaaaaaaaaaaaaaaaaaaaaaaaaaaaaaaaaaaaaaaaaaaaaaaaaaaaaaaaaaaaaaaaaaaaaaaaaaaaaaaaaaaaaaaaaaaaaaaaaaaaaaaaaaaaaaaaaaaaaaaaaaaaaa"
	Instrument Name="02 but tri" Color="3ec4ff"
		Envelope Type="Volume" Length="19" Values="4,4,4,5,5,5,6,6,6,0,5,5,5,5,4,4,4,4,0"
	Instrument Name="blank" Color="ffafaf"
		Envelope Type="Volume" Length="6" Loop="0" Release="1" Values="15,10,6,4,2,0"
	Instrument Name="blank instant decay" Color="ffff8b"
		Envelope Type="Volume" Length="9" Values="15,15,11,8,5,3,2,1,0"
	Instrument Name="blank slower string" Color="d1b1ff"
		Envelope Type="Volume" Length="29" Loop="11" Release="12" Values="2,3,4,5,6,6,7,7,7,7,7,6,6,6,5,5,5,4,4,4,3,3,3,2,2,2,1,1,0"
	Instrument Name="blank string" Color="6471cf"
		Envelope Type="Volume" Length="29" Loop="11" Release="12" Values="5,6,7,7,7,7,7,7,7,7,7,6,6,6,5,5,5,4,4,4,3,3,3,2,2,2,1,1,0"
	Instrument Name="clap" Color="ffc6a1"
		Envelope Type="Volume" Length="12" Values="15,10,12,10,9,8,6,5,4,2,1,0"
		Envelope Type="Arpeggio" Length="3" Values="-4,1,0"
	Instrument Name="clutterfunk sax" Color="ff579c"
		Envelope Type="Volume" Length="7" Loop="1" Release="2" Values="14,15,12,8,5,2,0"
	Instrument Name="cymbal" Color="a2f7a6"
		Envelope Type="Volume" Length="32" Loop="24" Release="25" Values="15,14,13,12,11,10,9,8,8,7,7,6,6,6,5,5,4,4,4,3,3,3,3,2,2,2,2,1,1,1,1,0"
		Envelope Type="Arpeggio" Length="2" Values="-3,0"
		Envelope Type="DutyCycle" Length="2" Values="1,0"
	Instrument Name="death moon lead" Color="5dd2ff"
		Envelope Type="Volume" Length="9" Values="15,10,9,8,7,6,6,5,5"
		Envelope Type="DutyCycle" Length="1" Values="1"
	Instrument Name="death moon lead 2" Color="e783f8"
		Envelope Type="Volume" Length="3" Values="15,10,8"
		Envelope Type="Pitch" Length="8" Values="0,4,1,-1,-2,-3,-2,-1"
	Instrument Name="DMC: choir" Color="f6a4ff"
		DPCMMapping Note="D4" Sample="Choir Ahh D" Pitch="12" Loop="True"
		DPCMMapping Note="F4" Sample="Choir Ahh C#" Pitch="13" Loop="True"
		DPCMMapping Note="A4" Sample="Choir Ahh D" Pitch="14" Loop="True"
		DPCMMapping Note="D5" Sample="Choir Ahh D" Pitch="15" Loop="True"
		DPCMMapping Note="C5" Sample="Choir Ahh C" Pitch="15" Loop="True"
		DPCMMapping Note="B4" Sample="Choir Ahh B" Pitch="15" Loop="True"
		DPCMMapping Note="E5" Sample="Choir Ahh E" Pitch="15" Loop="True"
		DPCMMapping Note="G5" Sample="Choir Ahh G" Pitch="15" Loop="True"
		DPCMMapping Note="A5" Sample="Choir Ahh A" Pitch="15" Loop="True"
		DPCMMapping Note="C6" Sample="EON_AH" Pitch="15" Loop="False"
	Instrument Name="DMC: drums + bass" Color="98a7fc"
		DPCMMapping Note="F2" Sample="fdbass C" Pitch="3" Loop="False"
		DPCMMapping Note="G2" Sample="fdbass C" Pitch="4" Loop="False"
		DPCMMapping Note="A2" Sample="fdbass C" Pitch="5" Loop="False"
		DPCMMapping Note="A#2" Sample="fdbass C#" Pitch="5" Loop="False"
		DPCMMapping Note="B2" Sample="fdbass C" Pitch="6" Loop="False"
		DPCMMapping Note="C3" Sample="fdbass C" Pitch="7" Loop="False"
		DPCMMapping Note="C#3" Sample="fdbass C#" Pitch="7" Loop="False"
		DPCMMapping Note="D3" Sample="fdbass D" Pitch="7" Loop="False"
		DPCMMapping Note="D#3" Sample="fdbass C#" Pitch="8" Loop="False"
		DPCMMapping Note="E3" Sample="fdbass D" Pitch="8" Loop="False"
		DPCMMapping Note="F3" Sample="fdbass C" Pitch="9" Loop="False"
		DPCMMapping Note="F#3" Sample="fdbass C#" Pitch="9" Loop="False"
		DPCMMapping Note="G3" Sample="fdbass C" Pitch="10" Loop="False"
		DPCMMapping Note="G#3" Sample="fdbass C#" Pitch="10" Loop="False"
		DPCMMapping Note="A3" Sample="fdbass D" Pitch="10" Loop="False"
		DPCMMapping Note="A#3" Sample="fdbass C#" Pitch="11" Loop="False"
		DPCMMapping Note="B3" Sample="fdbass D" Pitch="11" Loop="False"
		DPCMMapping Note="C4" Sample="fdbass C" Pitch="12" Loop="False"
		DPCMMapping Note="C#4" Sample="fdbass C#" Pitch="12" Loop="False"
		DPCMMapping Note="D4" Sample="fdbass D" Pitch="12" Loop="False"
		DPCMMapping Note="D#4" Sample="fdbass B" Pitch="13" Loop="False"
		DPCMMapping Note="E4" Sample="fdbass C" Pitch="13" Loop="False"
		DPCMMapping Note="F4" Sample="fdbass C#" Pitch="13" Loop="False"
		DPCMMapping Note="F#4" Sample="fdbass D" Pitch="13" Loop="False"
		DPCMMapping Note="G4" Sample="fdbass C" Pitch="14" Loop="False"
		DPCMMapping Note="G#4" Sample="fdbass C#" Pitch="14" Loop="False"
		DPCMMapping Note="A4" Sample="fdbass D" Pitch="14" Loop="False"
		DPCMMapping Note="A#4" Sample="fdbass A#" Pitch="15" Loop="False"
		DPCMMapping Note="B4" Sample="fdbass B" Pitch="15" Loop="False"
		DPCMMapping Note="C5" Sample="fdbass C" Pitch="15" Loop="False"
		DPCMMapping Note="C#5" Sample="fdbass C#" Pitch="15" Loop="False"
		DPCMMapping Note="D5" Sample="fdbass D" Pitch="15" Loop="False"
		DPCMMapping Note="E5" Sample="fdkick" Pitch="14" Loop="False"
		DPCMMapping Note="F5" Sample="snare" Pitch="15" Loop="False"
		DPCMMapping Note="F#5" Sample="this" Pitch="15" Loop="False"
		DPCMMapping Note="G5" Sample="is a" Pitch="15" Loop="False"
		DPCMMapping Note="G#5" Sample="time" Pitch="15" Loop="False"
		DPCMMapping Note="A5" Sample="machine" Pitch="15" Loop="False"
		DPCMMapping Note="C6" Sample="OrchHitF.dmc" Pitch="0" Loop="False"
		DPCMMapping Note="D6" Sample="OrchHitF.dmc" Pitch="1" Loop="False"
		DPCMMapping Note="E6" Sample="OrchHitF.dmc" Pitch="2" Loop="False"
		DPCMMapping Note="F6" Sample="OrchHitF.dmc" Pitch="3" Loop="False"
		DPCMMapping Note="G6" Sample="OrchHitF.dmc" Pitch="4" Loop="False"
		DPCMMapping Note="A6" Sample="OrchHitF.dmc" Pitch="5" Loop="False"
		DPCMMapping Note="B6" Sample="OrchHitF.dmc" Pitch="6" Loop="False"
		DPCMMapping Note="C7" Sample="OrchHitF.dmc" Pitch="7" Loop="False"
		DPCMMapping Note="D7" Sample="OrchHitF.dmc" Pitch="8" Loop="False"
		DPCMMapping Note="A7" Sample="OrchHitF.dmc" Pitch="11" Loop="False"
		DPCMMapping Note="G7" Sample="OrchHitF.dmc" Pitch="10" Loop="False"
		DPCMMapping Note="F7" Sample="OrchHitF.dmc" Pitch="9" Loop="False"
		DPCMMapping Note="E7" Sample="OrchHitF#.dmc" Pitch="13" Loop="False"
		DPCMMapping Note="D#2" Sample="BSV_1" Pitch="15" Loop="False"
		DPCMMapping Note="E2" Sample="BSV" Pitch="14" Loop="False"
	Instrument Name="DMC: orchestra hits" Color="fcff6f"
		DPCMMapping Note="E3" Sample="OrchHitG.dmc" Pitch="11" Loop="False"
		DPCMMapping Note="F3" Sample="OrchHitG#.dmc" Pitch="11" Loop="False"
		DPCMMapping Note="F#3" Sample="OrchHitA.dmc" Pitch="11" Loop="False"
		DPCMMapping Note="G3" Sample="OrchHitG.dmc" Pitch="12" Loop="False"
		DPCMMapping Note="G#3" Sample="OrchHitG#.dmc" Pitch="12" Loop="False"
		DPCMMapping Note="A3" Sample="OrchHitA.dmc" Pitch="12" Loop="False"
		DPCMMapping Note="A#3" Sample="OrchHitF#.dmc" Pitch="13" Loop="False"
		DPCMMapping Note="B3" Sample="OrchHitG.dmc" Pitch="13" Loop="False"
		DPCMMapping Note="C4" Sample="OrchHitG#.dmc" Pitch="13" Loop="False"
		DPCMMapping Note="C#4" Sample="OrchHitA.dmc" Pitch="13" Loop="False"
		DPCMMapping Note="D4" Sample="OrchHitG.dmc" Pitch="14" Loop="False"
		DPCMMapping Note="D#4" Sample="OrchHitG#.dmc" Pitch="14" Loop="False"
		DPCMMapping Note="E4" Sample="OrchHitA.dmc" Pitch="14" Loop="False"
		DPCMMapping Note="F4" Sample="OrchHitF.dmc" Pitch="15" Loop="False"
		DPCMMapping Note="F#4" Sample="OrchHitF#.dmc" Pitch="15" Loop="False"
		DPCMMapping Note="G4" Sample="OrchHitG.dmc" Pitch="15" Loop="False"
		DPCMMapping Note="G#4" Sample="OrchHitG#.dmc" Pitch="15" Loop="False"
		DPCMMapping Note="A4" Sample="OrchHitA.dmc" Pitch="15" Loop="False"
		DPCMMapping Note="G2" Sample="OrchHitG.dmc" Pitch="7" Loop="False"
		DPCMMapping Note="G#2" Sample="OrchHitG#.dmc" Pitch="7" Loop="False"
		DPCMMapping Note="A2" Sample="OrchHitG.dmc" Pitch="8" Loop="False"
		DPCMMapping Note="A#2" Sample="OrchHitG#.dmc" Pitch="8" Loop="False"
		DPCMMapping Note="B2" Sample="OrchHitA.dmc" Pitch="8" Loop="False"
		DPCMMapping Note="C3" Sample="OrchHitG.dmc" Pitch="9" Loop="False"
		DPCMMapping Note="D3" Sample="OrchHitG.dmc" Pitch="10" Loop="False"
		DPCMMapping Note="C#3" Sample="OrchHitG#.dmc" Pitch="9" Loop="False"
		DPCMMapping Note="D#3" Sample="OrchHitG#.dmc" Pitch="10" Loop="False"
	Instrument Name="echo" Color="3cb5a7"
		Envelope Type="Volume" Length="19" Values="11,7,5,4,3,2,2,1,1,0,5,4,3,3,2,2,1,1,0"
	Instrument Name="electroman lead" Color="3cd3e3"
		Envelope Type="Volume" Length="6" Loop="0" Release="1" Values="15,10,6,4,2,0"
		Envelope Type="DutyCycle" Length="9" Loop="1" Values="2,1,1,1,1,0,0,0,0"
	Instrument Name="endgame lead" Color="ca60e6"
		Envelope Type="Volume" Length="6" Values="15,13,11,7,7,10"
		Envelope Type="DutyCycle" Length="3" Loop="0" Values="2,2,0"
	Instrument Name="hat" Color="ffffb1"
		Envelope Type="Volume" Length="4" Values="8,4,2,0"
		Envelope Type="Arpeggio" Length="2" Values="-3,0"
		Envelope Type="DutyCycle" Length="2" Loop="0" Values="0,1"
	Instrument Name="hex guitar 1" Color="fff389"
		Envelope Type="DutyCycle" Length="6" Loop="2" Values="3,2,1,2,2,1"
	Instrument Name="hex guitar 2" Color="d8ffa1"
		Envelope Type="DutyCycle" Length="4" Loop="3" Values="3,2,1,3"
	Instrument Name="I don't know what to name this" Color="a657d6"
		Envelope Type="Pitch" Length="29" Values="3,11,15,21,0,3,10,13,20,0,4,8,15,22,29,35,38,39,40,42,43,45,46,48,50,54,58,61,63"
	Instrument Name="infernoplex_piano" Color="ffdc3c"
		Envelope Type="Volume" Length="17" Values="14,14,14,13,13,12,12,11,11,10,9,9,8,7,6,5,3"
	Instrument Name="Instrument 1" Color="ff5a9f"
		Envelope Type="Volume" Length="16" Values="3,6,5,5,4,4,3,3,3,2,2,2,1,1,1,0"
	Instrument Name="Instrument 2" Color="ffd43c"
		Envelope Type="Volume" Length="16" Values="8,6,5,5,4,4,3,3,3,2,2,2,1,1,1,0"
	Instrument Name="Instrument 3" Color="ca60e6"
		Envelope Type="Volume" Length="11" Values="10,15,15,15,14,13,12,10,8,6,3"
		Envelope Type="Arpeggio" Length="2" Values="-12,0"
		Envelope Type="DutyCycle" Length="4" Loop="2" Values="2,1,0,1"
	Instrument Name="Instrument 4" Color="f6a4ff"
		Envelope Type="Volume" Length="16" Loop="9" Release="10" Values="15,10,10,9,9,9,8,8,8,7,7,5,3,2,1,0"
		Envelope Type="DutyCycle" Length="1" Values="1"
	Instrument Name="Instrument 5" Color="ffc83c"
		Envelope Type="Volume" Length="9" Loop="2" Release="3" Values="12,12,12,11,8,6,4,2,0"
	Instrument Name="jaezu lead" Color="ff8d5a"
		Envelope Type="Volume" Length="35" Loop="15" Release="16" Values="6,8,10,12,12,12,12,11,11,11,11,10,10,10,10,9,8,7,7,6,6,5,5,4,4,3,3,3,2,2,2,1,1,1,0"
		Envelope Type="Pitch" Length="20" Loop="8" Values="0,0,0,0,0,0,0,0,0,1,2,3,2,1,0,-1,-2,-3,-2,-1"
	Instrument Name="Kap lead" Color="f6a4ff"
		Envelope Type="Volume" Length="1" Values="10"
		Envelope Type="Pitch" Length="14" Loop="4" Values="0,0,0,0,0,0,1,0,0,0,-1,0,0,0"
		Envelope Type="DutyCycle" Length="3" Values="0,1,2"
	Instrument Name="kick" Color="a657d6"
		Envelope Type="Volume" Length="6" Values="13,9,5,2,1,0"
		Envelope Type="Arpeggio" Length="2" Values="9,15"
	Instrument Name="lots of clap" Color="f6a4ff"
		Envelope Type="Volume" Length="3" Loop="0" Values="15,13,11"
		Envelope Type="Arpeggio" Length="3" Loop="0" Values="-4,1,0"
	Instrument Name="loud blank string" Color="ff9ece"
		Envelope Type="Volume" Length="29" Loop="11" Release="12" Values="6,8,10,11,12,12,12,12,12,12,11,11,10,10,9,9,8,8,7,7,6,6,5,5,4,3,2,1,0"
	Instrument Name="menu acc" Color="5dd2ff"
		Envelope Type="Volume" Length="28" Values="8,8,7,6,6,5,5,4,4,3,3,3,2,2,2,2,2,2,2,1,1,1,1,1,1,1,1,0"
	Instrument Name="nc_click" Color="ff6b6b"
		Envelope Type="Volume" Length="3" Values="15,7,0"
		Envelope Type="Arpeggio" Length="2" Values="0,9"
	Instrument Name="octave arp" Color="b59184"
		Envelope Type="Volume" Length="3" Values="9,7,5"
		Envelope Type="Arpeggio" Length="4" Loop="0" Values="0,0,12,12"
		Envelope Type="DutyCycle" Length="1" Values="2"
	Instrument Name="octave arp [ no duty ]" Color="b59184"
		Envelope Type="Volume" Length="3" Values="9,7,5"
		Envelope Type="Arpeggio" Length="4" Loop="0" Values="0,0,12,12"
	Instrument Name="octave jumping echo" Color="74ca78"
		Envelope Type="Volume" Length="19" Values="11,7,5,4,3,2,2,1,1,0,2,2,1,1,1,1,1,1,0"
		Envelope Type="Arpeggio" Length="4" Loop="0" Values="-12,0,12,24"
	Instrument Name="polargeist bass" Color="7b8df1"
		Envelope Type="Volume" Length="6" Values="15,13,11,7,7,10"
		Envelope Type="DutyCycle" Length="4" Values="3,2,2,1"
	Instrument Name="polargeist tri pluck" Color="ffa83c"
		Envelope Type="Volume" Length="6" Values="15,0,0,0,15,0"
	Instrument Name="quiet bass" Color="b8ef7e"
		Envelope Type="Volume" Length="3" Values="9,7,5"
	Instrument Name="rel hats" Color="62ffff"
		Envelope Type="Volume" Length="16" Values="8,6,5,5,4,4,3,3,3,2,2,2,1,1,1,0"
		Envelope Type="Arpeggio" Length="2" Values="-3,0"
	Instrument Name="sample" Color="bdffc0"
		Envelope Type="Volume" Length="8" Values="9,8,7,6,6,5,5,4"
		Envelope Type="DutyCycle" Length="1" Values="2"
	Instrument Name="shift string" Color="a4db74"
		Envelope Type="Volume" Length="38" Loop="11" Release="12" Values="4,5,6,6,6,6,6,6,6,6,6,5,5,5,5,5,5,4,4,4,4,4,4,4,4,3,3,3,3,3,3,2,2,2,1,1,1,0"
		Envelope Type="DutyCycle" Length="4" Loop="0" Values="1,2,1,0"
	Instrument Name="shift string lite" Color="3eb3f9"
		Envelope Type="Volume" Length="41" Loop="11" Release="12" Values="5,6,7,7,7,7,7,7,7,7,7,6,6,6,6,6,6,5,5,5,5,5,5,5,5,4,4,4,4,4,4,3,3,3,2,2,2,1,1,1,0"
		Envelope Type="DutyCycle" Length="5" Loop="0" Values="1,0,0,1,0"
	Instrument Name="snare" Color="ff7f51"
		Envelope Type="Volume" Length="11" Values="13,11,8,6,5,4,3,2,1,1,0"
		Envelope Type="Arpeggio" Length="2" Values="6,12"
		Envelope Type="DutyCycle" Length="2" Values="1,0"
	Instrument Name="stepdown" Color="3fe5ff"
		Envelope Type="Arpeggio" Length="3" Values="24,12,0"
	Instrument Name="tight noise kick layer" Color="62e2d6"
		Envelope Type="Volume" Length="4" Values="15,0,1,0"
	Instrument Name="tight triangle kick" Color="8163dc"
		Envelope Type="Volume" Length="5" Values="15,15,15,15,0"
		Envelope Type="Arpeggio" Length="4" Values="26,16,14,4"
	Instrument Name="tight triangle snare" Color="8a706a"
		Envelope Type="Volume" Length="5" Values="15,15,15,15,0"
		Envelope Type="Arpeggio" Length="4" Values="35,34,33,32"
	Instrument Name="tom" Color="51a1fc"
		Envelope Type="Pitch" Length="2" Loop="1" Relative="True" Values="0,21"
	Instrument Name="triangle drums" Color="a376f3"
		Envelope Type="Volume" Length="8" Values="9,8,7,6,6,5,5,4"
		Envelope Type="Pitch" Length="2" Loop="1" Relative="True" Values="-1,49"
	Instrument Name="triangle pluck" Color="ffff71"
		Envelope Type="Volume" Length="2" Values="15,0"
	Instrument Name="triangle pluck 2" Color="6ab96e"
		Envelope Type="Volume" Length="3" Values="15,15,0"
	Instrument Name="triangle pluck 3" Color="ffa83c"
		Envelope Type="Volume" Length="4" Values="15,15,15,0"
	Instrument Name="triangle pluck 4" Color="3cb5a7"
		Envelope Type="Volume" Length="5" Values="15,15,15,15,0"
	Instrument Name="xstep wub" Color="ffffb2"
		Envelope Type="Volume" Length="7" Values="3,7,8,8,10,8,0"
		Envelope Type="DutyCycle" Length="3" Values="1,2,3"
	Arpeggio Name="Arp 0C" Color="3cb5a7" Length="3" Loop="0" Values="0,0,12"
	Arpeggio Name="Arp 03" Color="88eb8c" Length="3" Loop="0" Values="0,0,3"
	Arpeggio Name="Arp 3C" Color="a657d6" Length="3" Loop="0" Values="0,3,12"
	Arpeggio Name="Arp 4C" Color="ffff94" Length="3" Loop="0" Values="0,4,12"
	Arpeggio Name="Arp 5F" Color="ddc4bb" Length="3" Loop="0" Values="0,5,15"
	Arpeggio Name="Arp 05" Color="ff8f8c" Length="3" Loop="0" Values="0,0,5"
	Arpeggio Name="Arp 5A" Color="d1b1ff" Length="3" Loop="0" Values="0,5,10"
	Arpeggio Name="Arp 5C" Color="3cd2c4" Length="3" Loop="0" Values="0,5,12"
	Arpeggio Name="Arp 06" Color="ffdc3c" Length="3" Loop="0" Values="0,0,6"
	Arpeggio Name="Arp 7A" Color="3cbfcb" Length="3" Loop="0" Values="0,7,10"
	Arpeggio Name="Arp 07" Color="b5c2ff" Length="3" Loop="0" Values="0,0,7"
	Arpeggio Name="Arp 7C" Color="ebf067" Length="3" Loop="0" Values="0,7,12"
	Arpeggio Name="Arp 8C" Color="ff935e" Length="3" Loop="0" Values="0,8,12"
	Arpeggio Name="Arp 11" Color="ff6b6b" Length="3" Loop="0" Values="0,1,1"
	Arpeggio Name="Arp 30" Color="ffcb3c" Length="3" Loop="0" Values="0,3,0"
	Arpeggio Name="Arp 33" Color="fffc69" Length="3" Loop="0" Values="0,3,3"
	Arpeggio Name="Arp 35" Color="eaffbd" Length="3" Loop="0" Values="0,3,5"
	Arpeggio Name="Arp 37" Color="ffafaf" Length="3" Loop="0" Values="0,3,7"
	Arpeggio Name="Arp 38" Color="ffff8b" Length="3" Loop="0" Values="0,3,8"
	Arpeggio Name="Arp 39" Color="65f2ff" Length="3" Loop="0" Values="0,3,9"
	Arpeggio Name="Arp 40" Color="ffa83c" Length="3" Loop="0" Values="0,4,0"
	Arpeggio Name="Arp 44" Color="7585e7" Length="3" Loop="0" Values="0,4,4"
	Arpeggio Name="Arp 47" Color="a2f7a6" Length="3" Loop="0" Values="0,4,7"
	Arpeggio Name="Arp 49" Color="d863ec" Length="3" Loop="0" Values="0,4,9"
	Arpeggio Name="Arp 50" Color="65f2ff" Length="3" Loop="0" Values="0,5,0"
	Arpeggio Name="Arp 53" Color="3ca598" Length="3" Loop="0" Values="0,5,3"
	Arpeggio Name="Arp 55" Color="ff6464" Length="3" Loop="0" Values="0,5,5"
	Arpeggio Name="Arp 58" Color="eaffbd" Length="3" Loop="0" Values="0,5,8"
	Arpeggio Name="Arp 59" Color="5dd2ff" Length="3" Loop="0" Values="0,5,9"
	Arpeggio Name="Arp 70" Color="e95093" Length="3" Loop="0" Values="0,7,0"
	Arpeggio Name="Arp 77" Color="a4db74" Length="3" Loop="0" Values="0,7,7"
	Arpeggio Name="Arp C0" Color="a9887d" Length="3" Loop="0" Values="0,12,0"
	Arpeggio Name="Arp CC" Color="6471cf" Length="3" Loop="0" Values="0,12,12"
	Arpeggio Name="Arp CE" Color="ffc83c" Length="4" Loop="0" Values="0,5,8,12"
	Arpeggio Name="Arp CF" Color="ffc6a1" Length="4" Loop="0" Values="0,3,8,12"
	Arpeggio Name="Arp D0" Color="3cf8ff" Length="4" Loop="0" Values="0,4,9,12"
	Arpeggio Name="Arp D1" Color="f6a4ff" Length="3" Loop="0" Values="0,5,9"
	Arpeggio Name="Arp D2" Color="3cf8ff" Length="3" Loop="0" Values="0,5,9"
	Arpeggio Name="Arp D3" Color="3cf8ff" Length="3" Loop="0" Values="0,6,9"
	Arpeggio Name="Arpeggio 1" Color="3cf8ff" Length="3" Loop="0" Values="0,4,9"
	Arpeggio Name="Arpeggio 2" Color="7fdc83" Length="2" Loop="0" Values="0,4"
	Arpeggio Name="Arpeggio 3" Color="3cf8ff" Length="3" Loop="0" Values="0,3,9"
	Arpeggio Name="Arpeggio 4" Color="3cf8ff" Length="3" Loop="0" Values="0,3,8"
	Arpeggio Name="Arpeggio 5" Color="ffc83c" Length="3" Loop="0" Values="0,5,8"
	Arpeggio Name="Arpeggio 6" Color="3cf8ff" Length="3" Loop="0" Values="0,3,12"
	Arpeggio Name="Arpeggio 7" Color="3cf8ff" Length="3" Loop="0" Values="0,4,12"
	Song Name="Blast processing" Color="5dd2ff" Length="57" LoopPoint="-1" PatternLength="16" BeatLength="4" FamiTrackerTempo="135" FamiTrackerSpeed="6"
		PatternCustomSettings Time="56" Length="8"
		Channel Type="Square1"
			Pattern Name="Pattern 1" Color="ff579c"
				Note Time="0" Value="F#1" Duration="2" Instrument="electroman lead" Volume="7"
				Note Time="10" Value="F#1" Duration="2" Instrument="electroman lead"
			Pattern Name="Pattern 2" Color="ffc83c"
				Note Time="0" Value="F#1" Duration="2" Instrument="electroman lead"
				Note Time="10" Value="F#1" Duration="2" Instrument="electroman lead"
				Note Time="14" Value="F#1" Duration="1" Instrument="electroman lead"
				Note Time="15" Value="F#1" Duration="1" Instrument="electroman lead"
			Pattern Name="Pattern 3" Color="a4db74"
				Note Time="0" Value="D1" Duration="2" Instrument="electroman lead"
				Note Time="3" Value="D1" Duration="2" Instrument="electroman lead"
				Note Time="6" Value="D1" Duration="2" Instrument="electroman lead"
				Note Time="12" Value="D1" Duration="2" Instrument="electroman lead"
			Pattern Name="Pattern 4" Color="3eb3f9"
				Note Time="0" Value="E1" Duration="2" Instrument="electroman lead"
				Note Time="3" Value="E1" Duration="2" Instrument="electroman lead"
				Note Time="6" Value="E1" Duration="2" Instrument="electroman lead"
				Note Time="12" Value="E1" Duration="2" Instrument="electroman lead"
				Note Time="14" Value="E1" Duration="1" Instrument="electroman lead"
				Note Time="15" Value="E1" Duration="1" Instrument="electroman lead"
			Pattern Name="Pattern 5" Color="91c76b"
				Note Time="0" Value="E1" Duration="2" Instrument="electroman lead"
				Note Time="3" Value="E1" Duration="2" Instrument="electroman lead"
				Note Time="6" Value="E1" Duration="2" Instrument="electroman lead"
				Note Time="10" Value="A1" Duration="2" Instrument="electroman lead"
				Note Time="12" Value="G#1" Duration="2" Instrument="electroman lead"
				Note Time="14" Value="F#1" Duration="2" Instrument="electroman lead"
			Pattern Name="Pattern 6" Color="65f2ff"
				Note Time="0" Value="F#1" Duration="2" Instrument="electroman lead" Volume="10"
				Note Time="10" Value="F#1" Duration="2" Instrument="electroman lead"
			Pattern Name="Pattern 7" Color="d863ec"
				Note Time="0" Value="F#1" Duration="2" Instrument="electroman lead"
				Note Time="10" Value="F#1" Duration="2" Instrument="electroman lead"
				Note Time="14" Value="F#1" Duration="1" Instrument="electroman lead"
				Note Time="15" Value="F#1" Duration="1" Instrument="electroman lead"
			Pattern Name="Pattern 8" Color="ff935e"
				Note Time="0" Value="A2" Duration="2" Instrument="octave arp [ no duty ]" Volume="15"
				Note Time="2" Volume="10"
				Note Time="3" Value="D1" Duration="2" Instrument="electroman lead"
				Note Time="6" Value="A2" Duration="2" Instrument="octave arp [ no duty ]" Volume="15"
				Note Time="8" Volume="10"
				Note Time="12" Value="D1" Duration="2" Instrument="electroman lead"
			Pattern Name="Pattern 9" Color="fcff6f"
				Note Time="0" Value="B2" Duration="2" Instrument="octave arp [ no duty ]" Volume="15"
				Note Time="2" Volume="10"
				Note Time="3" Value="E1" Duration="2" Instrument="electroman lead"
				Note Time="6" Value="B2" Duration="2" Instrument="octave arp [ no duty ]" Volume="15"
				Note Time="8" Volume="10"
				Note Time="12" Value="D3" Duration="2" Instrument="octave arp [ no duty ]" Volume="15"
				Note Time="14" Value="E1" Duration="1" Instrument="electroman lead" Volume="10"
				Note Time="15" Value="E1" Duration="1" Instrument="electroman lead"
			Pattern Name="Pattern 10" Color="ff7571"
				Note Time="0" Value="C#3" Duration="2" Instrument="octave arp [ no duty ]" Volume="15"
				Note Time="2" Volume="10"
				Note Time="10" Value="F#1" Duration="3" Instrument="electroman lead"
			Pattern Name="Pattern 11" Color="ffef3c"
				Note Time="0" Value="F#1" Duration="3" Instrument="electroman lead"
				Note Time="10" Value="F#1" Duration="3" Instrument="electroman lead"
				Note Time="14" Value="F#1" Duration="2" Instrument="electroman lead"
				Note Time="15" Value="F#1" Duration="2" Instrument="electroman lead"
			Pattern Name="Pattern 12" Color="74ca78"
				Note Time="0" Value="A2" Duration="3" Instrument="octave arp [ no duty ]"
				Note Time="3" Value="D1" Duration="3" Instrument="electroman lead"
				Note Time="6" Value="A2" Duration="3" Instrument="octave arp [ no duty ]"
				Note Time="12" Value="D1" Duration="3" Instrument="electroman lead"
			Pattern Name="Pattern 13" Color="51a1fc"
				Note Time="0" Value="B2" Duration="3" Instrument="octave arp [ no duty ]"
				Note Time="3" Value="E1" Duration="3" Instrument="electroman lead"
				Note Time="6" Value="B2" Duration="3" Instrument="octave arp [ no duty ]"
				Note Time="12" Value="E3" Duration="2" Instrument="octave arp [ no duty ]"
				Note Time="14" Value="E1" Duration="2" Instrument="electroman lead"
				Note Time="15" Value="E1" Duration="2" Instrument="electroman lead"
			Pattern Name="Pattern 14" Color="ffff64"
				Note Time="0" Value="F#3" Duration="1" Instrument="blank" Volume="4" FinePitch="2" DutyCycle="1"
				Note Time="2" Value="F#3" Duration="2" Instrument="blank"
				Note Time="5" Value="A3" Duration="2" Instrument="blank"
				Note Time="8" Value="C#4" Duration="2" Instrument="blank"
				Note Time="11" Value="E4" Duration="2" Instrument="blank"
				Note Time="14" Value="C#4" Duration="1" Instrument="blank"
				Note Time="15" Value="C#4" Duration="1" Instrument="blank"
			Pattern Name="Pattern 15" Color="5ac4ff"
				Note Time="0" Value="F#3" Duration="1" Instrument="blank"
				Note Time="2" Value="F#3" Duration="2" Instrument="blank"
				Note Time="5" Value="A3" Duration="2" Instrument="blank"
				Note Time="8" Value="B3" Duration="2" Instrument="blank"
				Note Time="11" Value="C#4" Duration="2" Instrument="blank"
				Note Time="14" Value="A3" Duration="2" Instrument="blank"
			Pattern Name="Pattern 16" Color="5dd2ff"
				Note Time="0" Value="F#3" Duration="1" Instrument="blank"
				Note Time="2" Value="F#3" Duration="2" Instrument="blank"
				Note Time="5" Value="A3" Duration="1" Instrument="blank"
				Note Time="6" Value="G#3" Duration="1" Instrument="blank"
				Note Time="7" Value="A3" Duration="1" Instrument="blank"
				Note Time="8" Value="B3" Duration="2" Instrument="blank"
				Note Time="12" Value="F#4" Duration="1" Instrument="blank"
				Note Time="13" Value="F#4" Duration="2" Instrument="blank" SlideTarget="A3"
				Note Time="15" FinePitch="0"
			Pattern Name="Pattern 17" Color="3cf8ff"
				Note Time="12" Value="F#3" Duration="4" Instrument="jaezu lead" Volume="9"
			Pattern Name="Pattern 18" Color="9a71ed"
				Note Time="0" Value="E3" Duration="2" Instrument="jaezu lead"
				Note Time="2" Value="E3" Duration="2" Instrument="jaezu lead" SlideTarget="F#3"
				Note Time="4" Value="F#3" Duration="2" Instrument="jaezu lead"
			Pattern Name="Pattern 19" Color="ffac7f"
				Note Time="12" Value="F#3" Duration="4" Instrument="jaezu lead"
			Pattern Name="Pattern 20" Color="ffff75"
				Note Time="0" Value="A3" Duration="3" Instrument="jaezu lead"
				Note Time="3" Value="F#3" Duration="4" Instrument="jaezu lead"
				Note Time="6" Value="F#3" Duration="1" Instrument="jaezu lead" SlideTarget="C#4"
				Note Time="7" Value="C#4" Duration="5" Instrument="jaezu lead"
				Note Time="12" Value="B3" Duration="1" Instrument="jaezu lead"
				Note Time="14" Value="A3" Duration="1" Instrument="jaezu lead"
			Pattern Name="Pattern 21" Color="3ce8fd"
				Note Time="0" Value="B3" Duration="1" Instrument="jaezu lead"
				Note Time="2" Value="A3" Duration="1" Instrument="jaezu lead"
				Note Time="4" Value="F#3" Duration="1" Instrument="jaezu lead"
				Note Time="5" Value="E3" Duration="1" Instrument="jaezu lead"
				Note Time="7" Value="F#3" Duration="5" Instrument="jaezu lead"
				Note Time="14" Value="F#2" Duration="2" Instrument="octave arp [ no duty ]" Volume="15"
			Pattern Name="Pattern 22" Color="997c73"
				Note Time="0" Value="C#3" Duration="2" Instrument="octave arp [ no duty ]"
				Note Time="2" Value="C3" Duration="2" Instrument="octave arp [ no duty ]"
				Note Time="4" Value="B2" Duration="1" Instrument="octave arp [ no duty ]"
				Note Time="5" Value="A2" Duration="1" Instrument="octave arp [ no duty ]"
				Note Time="7" Value="F#2" Duration="2" Instrument="octave arp [ no duty ]"
				Note Time="12" Value="F#4" Duration="1" Instrument="blank" Volume="7" FinePitch="2"
				Note Time="13" Value="F#4" Duration="1" Instrument="blank" SlideTarget="A#3"
				Note Time="14" Value="F#2" Duration="2" Instrument="octave arp [ no duty ]" Volume="15" FinePitch="0"
			Pattern Name="Pattern 23" Color="89f2e8"
				Note Time="0" Value="C#3" Duration="2" Instrument="octave arp [ no duty ]"
				Note Time="2" Value="C3" Duration="2" Instrument="octave arp [ no duty ]"
				Note Time="4" Value="B2" Duration="1" Instrument="octave arp [ no duty ]"
				Note Time="5" Value="A2" Duration="1" Instrument="octave arp [ no duty ]"
				Note Time="7" Value="F#2" Duration="2" Instrument="octave arp [ no duty ]"
				Note Time="14" Value="F#2" Duration="2" Instrument="octave arp [ no duty ]"
			Pattern Name="Pattern 24" Color="98a7fc"
				Note Time="0" Value="C#2" Duration="1" Instrument="octave arp [ no duty ]"
				Note Time="2" Value="C#2" Duration="1" Instrument="octave arp [ no duty ]"
				Note Time="4" Value="E2" Duration="1" Instrument="octave arp [ no duty ]"
				Note Time="5" Value="E2" Duration="1" Instrument="octave arp [ no duty ]"
				Note Time="6" Value="E2" Duration="1" Instrument="octave arp [ no duty ]"
				Note Time="7" Value="F#2" Duration="2" Instrument="octave arp [ no duty ]"
				Note Time="14" Value="F#2" Duration="2" Instrument="octave arp [ no duty ]"
			Pattern Name="Pattern 25" Color="ff7f72"
				Note Time="0" Value="C#3" Duration="2" Instrument="octave arp [ no duty ]"
				Note Time="2" Value="C3" Duration="2" Instrument="octave arp [ no duty ]"
				Note Time="4" Value="B2" Duration="1" Instrument="octave arp [ no duty ]"
				Note Time="5" Value="A2" Duration="1" Instrument="octave arp [ no duty ]"
				Note Time="7" Value="B2" Duration="2" Instrument="octave arp [ no duty ]"
				Note Time="12" Value="A2" Duration="2" Instrument="octave arp [ no duty ]"
				Note Time="14" Value="F#2" Duration="2" Instrument="octave arp [ no duty ]"
			Pattern Name="Pattern 26" Color="fffd43"
				Note Time="0" Value="E2" Duration="2" Instrument="octave arp [ no duty ]"
				Note Time="1" Value="F#2" Duration="3" Instrument="octave arp [ no duty ]"
				Note Time="3" Value="F#2" Duration="2" Instrument="octave arp [ no duty ]"
				Note Time="5" Value="F#2" Duration="1" Instrument="octave arp [ no duty ]"
				Note Time="6" Value="E2" Duration="2" Instrument="octave arp [ no duty ]"
				Note Time="8" Value="F#2" Duration="2" Instrument="octave arp [ no duty ]"
				Note Time="14" Value="F#2" Duration="2" Instrument="octave arp [ no duty ]"
			Pattern Name="Pattern 27" Color="ff579c"
				Note Time="0" Value="E2" Duration="2" Instrument="octave arp [ no duty ]"
				Note Time="1" Value="F#2" Duration="3" Instrument="octave arp [ no duty ]"
				Note Time="3" Value="F#2" Duration="2" Instrument="octave arp [ no duty ]"
				Note Time="5" Value="F#2" Duration="1" Instrument="octave arp [ no duty ]"
				Note Time="6" Value="E2" Duration="2" Instrument="octave arp [ no duty ]"
				Note Time="8" Value="F#2" Duration="2" Instrument="octave arp [ no duty ]"
				Note Time="12" Value="F#3" Duration="1" Instrument="jaezu lead" Volume="7" DutyCycle="0"
				Note Time="13" Value="A3" Duration="1" Instrument="jaezu lead"
				Note Time="14" Value="B3" Duration="1" Instrument="jaezu lead"
			Pattern Name="Pattern 28" Color="a4db74"
				Note Time="0" Value="C4" Duration="5" Instrument="jaezu lead"
				Note Time="4" Value="B3" Duration="1" Instrument="jaezu lead"
				Note Time="5" Value="A3" Duration="1" Instrument="jaezu lead"
				Note Time="7" Value="F#3" Duration="4" Instrument="jaezu lead"
				Note Time="12" Value="F#3" Duration="1" Instrument="jaezu lead"
				Note Time="13" Value="A3" Duration="1" Instrument="jaezu lead"
				Note Time="14" Value="C4" Duration="1" Instrument="jaezu lead"
			Pattern Name="Pattern 29" Color="f6a4ff"
				Note Time="0" Value="E3" Duration="1" Instrument="jaezu lead"
				Note Time="2" Value="E3" Duration="1" Instrument="jaezu lead"
				Note Time="4" Value="E3" Duration="1" Instrument="jaezu lead"
				Note Time="5" Value="C#3" Duration="1" Instrument="jaezu lead"
				Note Time="6" Value="E3" Duration="1" Instrument="jaezu lead"
				Note Time="7" Value="F#3" Duration="4" Instrument="jaezu lead"
				Note Time="12" Value="F#3" Duration="1" Instrument="jaezu lead"
				Note Time="13" Value="A3" Duration="1" Instrument="jaezu lead"
				Note Time="14" Value="B3" Duration="1" Instrument="jaezu lead"
			Pattern Name="Pattern 30" Color="ffc6a1"
				Note Time="0" Value="E4" Duration="1" Instrument="jaezu lead" SlideTarget="F#4"
				Note Time="1" Value="F#4" Duration="3" Instrument="jaezu lead"
				Note Time="4" Value="B3" Duration="1" Instrument="jaezu lead"
				Note Time="5" Value="A3" Duration="1" Instrument="jaezu lead"
				Note Time="7" Value="F#3" Duration="4" Instrument="jaezu lead"
				Note Time="12" Value="F#3" Duration="1" Instrument="jaezu lead"
				Note Time="13" Value="A3" Duration="1" Instrument="jaezu lead"
				Note Time="14" Value="C4" Duration="1" Instrument="jaezu lead"
			Pattern Name="Pattern 31" Color="ffe461"
				Note Time="0" Value="A#3" Duration="1" Instrument="jaezu lead" SlideTarget="C4"
				Note Time="1" Value="C4" Duration="3" Instrument="jaezu lead"
				Note Time="4" Value="B3" Duration="2" Instrument="jaezu lead"
				Note Time="7" Value="A3" Duration="1" Instrument="jaezu lead"
				Note Time="9" Value="F#3" Duration="3" Instrument="jaezu lead"
				Note Time="14" Value="F#3" Duration="1" Instrument="jaezu lead"
				Note Time="15" Value="A3" Duration="1" Instrument="jaezu lead"
			Pattern Name="Pattern 32" Color="8a706a"
				Note Time="0" Value="C4" Duration="1" Instrument="jaezu lead"
				Note Time="1" Value="B3" Duration="1" Instrument="jaezu lead"
				Note Time="2" Value="E3" Duration="1" Instrument="jaezu lead"
				Note Time="4" Value="E3" Duration="1" Instrument="jaezu lead"
				Note Time="6" Value="E3" Duration="1" Instrument="jaezu lead"
				Note Time="7" Value="C#3" Duration="1" Instrument="jaezu lead"
				Note Time="8" Value="E3" Duration="1" Instrument="jaezu lead"
				Note Time="9" Value="C#3" Duration="1" Instrument="jaezu lead"
				Note Time="10" Value="E3" Duration="1" Instrument="jaezu lead"
				Note Time="11" Value="F#3" Duration="2" Instrument="jaezu lead"
				Note Time="14" Value="F#3" Duration="1" Instrument="jaezu lead"
				Note Time="15" Value="A3" Duration="1" Instrument="jaezu lead"
			Pattern Name="Pattern 33" Color="7fdc83"
				Note Time="0" Value="A#3" Duration="1" Instrument="jaezu lead" SlideTarget="C4"
				Note Time="1" Value="C4" Duration="5" Instrument="jaezu lead"
				Note Time="6" Value="B3" Duration="1" Instrument="jaezu lead"
				Note Time="7" Value="A3" Duration="1" Instrument="jaezu lead"
				Note Time="9" Value="F#3" Duration="3" Instrument="jaezu lead"
				Note Time="14" Value="F#3" Duration="1" Instrument="jaezu lead"
				Note Time="15" Value="A3" Duration="1" Instrument="jaezu lead"
			Pattern Name="Pattern 34" Color="55b2ff"
				Note Time="0" Value="C4" Duration="1" Instrument="jaezu lead"
				Note Time="1" Value="B3" Duration="1" Instrument="jaezu lead"
				Note Time="2" Value="E3" Duration="1" Instrument="jaezu lead"
				Note Time="4" Value="E3" Duration="1" Instrument="jaezu lead"
				Note Time="6" Value="E3" Duration="1" Instrument="jaezu lead"
				Note Time="7" Value="C#3" Duration="1" Instrument="jaezu lead"
				Note Time="8" Value="E3" Duration="1" Instrument="jaezu lead"
				Note Time="9" Value="C#3" Duration="1" Instrument="jaezu lead"
				Note Time="11" Value="D#3" Duration="1" Instrument="jaezu lead" SlideTarget="F#3"
				Note Time="12" Value="F#3" Duration="4" Instrument="jaezu lead"
			Pattern Name="Pattern 35" Color="62e2d6"
				Note Time="0" Value="F#3" Duration="2" Instrument="octave arp" Volume="15"
				Note Time="2" Value="F#3" Duration="2" Instrument="octave arp"
			PatternInstance Time="0" Pattern="Pattern 1"
			PatternInstance Time="1" Pattern="Pattern 2"
			PatternInstance Time="2" Pattern="Pattern 3"
			PatternInstance Time="3" Pattern="Pattern 4"
			PatternInstance Time="4" Pattern="Pattern 1"
			PatternInstance Time="5" Pattern="Pattern 2"
			PatternInstance Time="6" Pattern="Pattern 3"
			PatternInstance Time="7" Pattern="Pattern 5"
			PatternInstance Time="8" Pattern="Pattern 6"
			PatternInstance Time="9" Pattern="Pattern 7"
			PatternInstance Time="10" Pattern="Pattern 8"
			PatternInstance Time="11" Pattern="Pattern 9"
			PatternInstance Time="12" Pattern="Pattern 10"
			PatternInstance Time="13" Pattern="Pattern 11"
			PatternInstance Time="14" Pattern="Pattern 12"
			PatternInstance Time="15" Pattern="Pattern 13"
			PatternInstance Time="16" Pattern="Pattern 14"
			PatternInstance Time="17" Pattern="Pattern 15"
			PatternInstance Time="18" Pattern="Pattern 14"
			PatternInstance Time="19" Pattern="Pattern 15"
			PatternInstance Time="20" Pattern="Pattern 14"
			PatternInstance Time="21" Pattern="Pattern 15"
			PatternInstance Time="22" Pattern="Pattern 14"
			PatternInstance Time="23" Pattern="Pattern 16"
			PatternInstance Time="27" Pattern="Pattern 17"
			PatternInstance Time="28" Pattern="Pattern 18"
			PatternInstance Time="29" Pattern="Pattern 19"
			PatternInstance Time="30" Pattern="Pattern 20"
			PatternInstance Time="31" Pattern="Pattern 21"
			PatternInstance Time="32" Pattern="Pattern 22"
			PatternInstance Time="33" Pattern="Pattern 23"
			PatternInstance Time="34" Pattern="Pattern 24"
			PatternInstance Time="35" Pattern="Pattern 25"
			PatternInstance Time="36" Pattern="Pattern 26"
			PatternInstance Time="37" Pattern="Pattern 23"
			PatternInstance Time="38" Pattern="Pattern 24"
			PatternInstance Time="39" Pattern="Pattern 25"
			PatternInstance Time="40" Pattern="Pattern 27"
			PatternInstance Time="41" Pattern="Pattern 28"
			PatternInstance Time="42" Pattern="Pattern 29"
			PatternInstance Time="43" Pattern="Pattern 30"
			PatternInstance Time="44" Pattern="Pattern 29"
			PatternInstance Time="45" Pattern="Pattern 31"
			PatternInstance Time="46" Pattern="Pattern 32"
			PatternInstance Time="47" Pattern="Pattern 33"
			PatternInstance Time="48" Pattern="Pattern 34"
			PatternInstance Time="49" Pattern="Pattern 35"
			PatternInstance Time="51" Pattern="Pattern 35"
			PatternInstance Time="53" Pattern="Pattern 35"
		Channel Type="Square2"
			Pattern Name="Pattern 1" Color="e783f8"
				Note Time="0" Value="F#2" Duration="2" Instrument="endgame lead" Volume="7"
				Note Time="10" Value="F#2" Duration="2" Instrument="endgame lead"
			Pattern Name="Pattern 2" Color="ffac7f"
				Note Time="0" Value="F#2" Duration="2" Instrument="endgame lead"
				Note Time="10" Value="F#2" Duration="2" Instrument="endgame lead"
				Note Time="14" Value="F#2" Duration="1" Instrument="endgame lead"
				Note Time="15" Value="F#2" Duration="1" Instrument="endgame lead"
			Pattern Name="Pattern 3" Color="ffff75"
				Note Time="0" Value="D2" Duration="2" Instrument="endgame lead"
				Note Time="3" Value="D2" Duration="2" Instrument="endgame lead"
				Note Time="6" Value="D2" Duration="2" Instrument="endgame lead"
				Note Time="12" Value="D2" Duration="2" Instrument="endgame lead"
			Pattern Name="Pattern 4" Color="3ce8fd"
				Note Time="0" Value="E2" Duration="2" Instrument="endgame lead"
				Note Time="3" Value="E2" Duration="2" Instrument="endgame lead"
				Note Time="6" Value="E2" Duration="2" Instrument="endgame lead"
				Note Time="12" Value="E2" Duration="2" Instrument="endgame lead"
				Note Time="14" Value="E2" Duration="1" Instrument="endgame lead"
				Note Time="15" Value="E2" Duration="1" Instrument="endgame lead"
			Pattern Name="Pattern 5" Color="997c73"
				Note Time="0" Value="E2" Duration="2" Instrument="endgame lead"
				Note Time="3" Value="E2" Duration="2" Instrument="endgame lead"
				Note Time="6" Value="E2" Duration="2" Instrument="endgame lead"
				Note Time="10" Value="A2" Duration="2" Instrument="endgame lead"
				Note Time="12" Value="G#2" Duration="2" Instrument="endgame lead"
				Note Time="14" Value="F#2" Duration="2" Instrument="endgame lead"
			Pattern Name="Pattern 6" Color="55b2ff"
				Note Time="0" Value="A3" Duration="1" Instrument="hex guitar 2" Volume="8" DutyCycle="1"
				Note Time="1" Value="A2" Duration="1" Instrument="hex guitar 2"
				Note Time="3" Value="F#3" Duration="1" Instrument="hex guitar 2"
				Note Time="4" Value="F#2" Duration="1" Instrument="hex guitar 2"
				Note Time="6" Value="F#2" Duration="2" Instrument="hex guitar 2"
				Note Time="7" CutDelay="3"
				Note Time="8" Value="F#2" Duration="1" Instrument="hex guitar 2"
				Note Time="10" Value="F#2" Duration="1" Instrument="hex guitar 2"
				Note Time="12" Value="F#2" Duration="2" Instrument="hex guitar 2"
			Pattern Name="Pattern 7" Color="ffa83c"
				Note Time="0" Value="F#3" Duration="1" Instrument="hex guitar 2"
				Note Time="1" Value="F#2" Duration="1" Instrument="hex guitar 2"
				Note Time="3" Value="F#3" Duration="3" Instrument="hex guitar 2"
				Note Time="4" CutDelay="3"
				Note Time="6" Value="F#2" Duration="2" Instrument="hex guitar 2"
				Note Time="7" CutDelay="3"
				Note Time="8" Value="F#2" Duration="1" Instrument="hex guitar 2"
				Note Time="10" Value="F#2" Duration="1" Instrument="hex guitar 2"
				Note Time="12" Value="F#2" Duration="2" Instrument="hex guitar 2"
			Pattern Name="Pattern 25" Color="5dd2ff"
				Note Time="0" Value="A3" Duration="1" Instrument="hex guitar 2"
				Note Time="1" Value="F#2" Duration="1" Instrument="hex guitar 2"
				Note Time="3" Value="F#3" Duration="1" Instrument="hex guitar 2"
				Note Time="4" Value="D2" Duration="1" Instrument="hex guitar 2"
				Note Time="6" Value="D2" Duration="2" Instrument="hex guitar 2"
				Note Time="7" CutDelay="3"
				Note Time="8" Value="D2" Duration="1" Instrument="hex guitar 2"
				Note Time="10" Value="D2" Duration="1" Instrument="hex guitar 2"
				Note Time="12" Value="D2" Duration="2" Instrument="hex guitar 2"
				Note Time="15" Value="D2" Duration="1" Instrument="hex guitar 2"
			Pattern Name="Pattern 28" Color="ff579c"
				Note Time="0" Value="E2" Duration="2" Instrument="hex guitar 2"
				Note Time="3" Value="E2" Duration="1" Instrument="hex guitar 2"
				Note Time="6" Value="E2" Duration="2" Instrument="hex guitar 2"
				Note Time="7" CutDelay="3"
				Note Time="8" Value="E2" Duration="1" Instrument="hex guitar 2"
				Note Time="10" Value="E2" Duration="1" Instrument="hex guitar 2"
				Note Time="12" Value="E2" Duration="2" Instrument="hex guitar 2"
			Pattern Name="Pattern 29" Color="ffc83c"
				Note Time="0" Value="A3" Duration="1" Instrument="hex guitar 2"
				Note Time="1" Value="F#3" Duration="1" Instrument="hex guitar 2"
				Note Time="2" Value="E3" Duration="1" Instrument="hex guitar 2"
				Note Time="3" Value="F#3" Duration="1" Instrument="hex guitar 2"
				Note Time="4" Value="F#2" Duration="1" Instrument="hex guitar 2"
				Note Time="5" Value="F#3" Duration="1" Instrument="hex guitar 2"
				Note Time="6" Value="F#2" Duration="1" Instrument="hex guitar 2"
				Note Time="7" Value="F#2" Duration="1" Instrument="hex guitar 2" CutDelay="3"
				Note Time="8" Value="F#2" Duration="1" Instrument="hex guitar 2"
				Note Time="10" Value="F#2" Duration="1" Instrument="hex guitar 2"
				Note Time="12" Value="F#2" Duration="2" Instrument="hex guitar 2"
			Pattern Name="Pattern 30" Color="a4db74"
				Note Time="0" Value="F#3" Duration="1" Instrument="hex guitar 2"
				Note Time="1" Value="F#2" Duration="1" Instrument="hex guitar 2"
				Note Time="3" Value="F#3" Duration="1" Instrument="hex guitar 2"
				Note Time="5" Value="A2" Duration="1" Instrument="hex guitar 2"
				Note Time="6" Value="F#2" Duration="1" Instrument="hex guitar 2"
				Note Time="7" Value="E2" Duration="1" Instrument="hex guitar 2"
				Note Time="8" Value="F#2" Duration="1" Instrument="hex guitar 2"
				Note Time="10" Value="F#2" Duration="1" Instrument="hex guitar 2"
				Note Time="12" Value="F#2" Duration="2" Instrument="hex guitar 2"
			Pattern Name="Pattern 31" Color="3eb3f9"
				Note Time="0" Value="A3" Duration="1" Instrument="hex guitar 2"
				Note Time="1" Value="F#3" Duration="1" Instrument="hex guitar 2"
				Note Time="2" Value="E3" Duration="1" Instrument="hex guitar 2"
				Note Time="3" Value="F#3" Duration="1" Instrument="hex guitar 2"
				Note Time="4" Value="F#2" Duration="1" Instrument="hex guitar 2"
				Note Time="5" Value="F#3" Duration="1" Instrument="hex guitar 2"
				Note Time="6" Value="D2" Duration="1" Instrument="hex guitar 2"
				Note Time="7" Value="D2" Duration="1" Instrument="hex guitar 2" CutDelay="3"
				Note Time="8" Value="D2" Duration="1" Instrument="hex guitar 2"
				Note Time="10" Value="D2" Duration="1" Instrument="hex guitar 2"
				Note Time="12" Value="D2" Duration="2" Instrument="hex guitar 2"
				Note Time="13" CutDelay="3"
				Note Time="14" Value="E2" Duration="1" Instrument="hex guitar 2"
				Note Time="15" Value="D2" Duration="1" Instrument="hex guitar 2"
			Pattern Name="Pattern 32" Color="f6a4ff"
				Note Time="0" Value="E2" Duration="2" Instrument="hex guitar 2"
				Note Time="3" Value="E2" Duration="1" Instrument="hex guitar 2"
				Note Time="5" Value="E3" Duration="1" Instrument="hex guitar 2"
				Note Time="6" Value="E2" Duration="1" Instrument="hex guitar 2"
				Note Time="7" Value="E3" Duration="1" Instrument="hex guitar 2" CutDelay="3"
				Note Time="8" Value="E3" Duration="1" Instrument="hex guitar 2"
				Note Time="9" Value="F#3" Duration="1" Instrument="hex guitar 2"
				Note Time="10" Value="E2" Duration="1" Instrument="hex guitar 2"
				Note Time="11" Value="A3" Duration="1" Instrument="hex guitar 2"
				Note Time="12" Value="E2" Duration="1" Instrument="hex guitar 2"
				Note Time="13" Value="A3" Duration="1" Instrument="hex guitar 2"
				Note Time="14" Value="G#3" Duration="1" Instrument="hex guitar 2"
				Note Time="15" Value="E3" Duration="1" Instrument="hex guitar 2"
			Pattern Name="Pattern 14" Color="9a71ed"
				Note Time="0" Value="F#3" Duration="1" Instrument="blank" Volume="4" VibratoSpeed="0" VibratoDepth="0" DutyCycle="2"
				Note Time="2" Value="F#3" Duration="2" Instrument="blank"
				Note Time="5" Value="A3" Duration="2" Instrument="blank"
				Note Time="8" Value="C#4" Duration="2" Instrument="blank"
				Note Time="11" Value="E4" Duration="2" Instrument="blank"
				Note Time="14" Value="C#4" Duration="1" Instrument="blank"
				Note Time="15" Value="C#4" Duration="1" Instrument="blank"
			Pattern Name="Pattern 9" Color="ffff94"
				Note Time="0" Value="F#3" Duration="1" Instrument="blank"
				Note Time="2" Value="F#3" Duration="2" Instrument="blank"
				Note Time="5" Value="A3" Duration="2" Instrument="blank"
				Note Time="8" Value="B3" Duration="2" Instrument="blank"
				Note Time="11" Value="C#4" Duration="2" Instrument="blank"
				Note Time="14" Value="A3" Duration="2" Instrument="blank"
			Pattern Name="Pattern 10" Color="ff579c"
				Note Time="0" Value="F#3" Duration="1" Instrument="blank"
				Note Time="2" Value="F#3" Duration="2" Instrument="blank"
				Note Time="5" Value="A3" Duration="1" Instrument="blank"
				Note Time="6" Value="G#3" Duration="1" Instrument="blank"
				Note Time="7" Value="A3" Duration="1" Instrument="blank"
				Note Time="8" Value="B3" Duration="2" Instrument="blank"
				Note Time="12" Value="F#4" Duration="1" Instrument="blank"
				Note Time="13" Value="F#4" Duration="1" Instrument="blank" SlideTarget="D#3"
			Pattern Name="Pattern 8" Color="5dd2ff"
				Note Time="0" Value="A3" Duration="1" Instrument="hex guitar 2"
				Note Time="1" Value="F#3" Duration="1" Instrument="hex guitar 2"
				Note Time="2" Value="E3" Duration="1" Instrument="hex guitar 2"
				Note Time="3" Value="F#3" Duration="2" Instrument="hex guitar 2"
				Note Time="5" Value="A3" Duration="1" Instrument="hex guitar 2"
				Note Time="6" Value="E3" Duration="1" Instrument="hex guitar 2"
				Note Time="7" Value="C#3" Duration="1" Instrument="hex guitar 2"
				Note Time="8" Value="E3" Duration="1" Instrument="hex guitar 2"
				Note Time="10" Value="C#3" Duration="1" Instrument="hex guitar 2"
				Note Time="12" Value="C#3" Duration="1" Instrument="hex guitar 2"
				Note Time="13" Value="C#3" Duration="1" Instrument="hex guitar 2"
			Pattern Name="Pattern 11" Color="ffe461"
				Note Time="12" Value="F#4" Duration="1" Instrument="blank" Volume="6"
				Note Time="13" Value="F#4" Duration="1" Instrument="blank" SlideTarget="F#3"
			Pattern Name="Pattern 12" Color="ff6b6b"
				Note Time="2" Value="F#1" Duration="2" Instrument="DMC: drums + bass" Arpeggio="Arp 0C"
				Note Time="6" Value="F#1" Duration="2" Instrument="DMC: drums + bass" Arpeggio="Arp 0C"
				Note Time="10" Value="F#1" Duration="2" Instrument="DMC: drums + bass" Arpeggio="Arp 0C"
				Note Time="14" Value="F#1" Duration="2" Instrument="DMC: drums + bass" Arpeggio="Arp 0C"
			Pattern Name="Pattern 13" Color="6ab96e"
				Note Time="2" Value="E1" Duration="2" Instrument="DMC: drums + bass" Arpeggio="Arp 0C"
				Note Time="6" Value="E1" Duration="2" Instrument="DMC: drums + bass" Arpeggio="Arp 0C"
				Note Time="10" Value="F#1" Duration="2" Instrument="DMC: drums + bass" Arpeggio="Arp 0C"
				Note Time="14" Value="F#1" Duration="2" Instrument="DMC: drums + bass" Arpeggio="Arp 0C"
			Pattern Name="Pattern 15" Color="a0f1ff"
				Note Time="2" Value="A1" Duration="2" Instrument="DMC: drums + bass" Arpeggio="Arp 0C"
				Note Time="6" Value="A1" Duration="2" Instrument="DMC: drums + bass" Arpeggio="Arp 0C"
				Note Time="10" Value="A1" Duration="2" Instrument="DMC: drums + bass" Arpeggio="Arp 0C"
				Note Time="14" Value="A1" Duration="2" Instrument="DMC: drums + bass" Arpeggio="Arp 0C"
			Pattern Name="Pattern 16" Color="ffc83c"
				Note Time="2" Value="E1" Duration="2" Instrument="DMC: drums + bass" Arpeggio="Arp 0C"
				Note Time="6" Value="E1" Duration="2" Instrument="DMC: drums + bass" Arpeggio="Arp 0C"
				Note Time="10" Value="F#1" Duration="2" Instrument="DMC: drums + bass" Arpeggio="Arp 0C"
				Note Time="12" Value="F#3" Duration="1" Instrument="jaezu lead" FinePitch="2"
				Note Time="13" Value="A3" Duration="1" Instrument="jaezu lead"
				Note Time="14" Value="B3" Duration="1" Instrument="jaezu lead"
			Pattern Name="Pattern 17" Color="3eb3f9"
				Note Time="0" Value="C4" Duration="4" Instrument="jaezu lead"
				Note Time="4" Value="B3" Duration="1" Instrument="jaezu lead"
				Note Time="5" Value="A3" Duration="1" Instrument="jaezu lead"
				Note Time="7" Value="F#3" Duration="4" Instrument="jaezu lead"
				Note Time="12" Value="F#3" Duration="1" Instrument="jaezu lead"
				Note Time="13" Value="A3" Duration="1" Instrument="jaezu lead"
				Note Time="14" Value="C4" Duration="1" Instrument="jaezu lead"
			Pattern Name="Pattern 18" Color="9a71ed"
				Note Time="0" Value="E3" Duration="1" Instrument="jaezu lead"
				Note Time="2" Value="E3" Duration="1" Instrument="jaezu lead"
				Note Time="4" Value="E3" Duration="1" Instrument="jaezu lead"
				Note Time="5" Value="C#3" Duration="1" Instrument="jaezu lead"
				Note Time="6" Value="E3" Duration="1" Instrument="jaezu lead"
				Note Time="7" Value="F#3" Duration="4" Instrument="jaezu lead"
				Note Time="12" Value="F#3" Duration="1" Instrument="jaezu lead"
				Note Time="13" Value="A3" Duration="1" Instrument="jaezu lead"
				Note Time="14" Value="B3" Duration="1" Instrument="jaezu lead"
			Pattern Name="Pattern 19" Color="a9887d"
				Note Time="0" Value="E4" Duration="1" Instrument="jaezu lead" SlideTarget="F#4"
				Note Time="1" Value="F#4" Duration="3" Instrument="jaezu lead"
				Note Time="4" Value="B3" Duration="1" Instrument="jaezu lead"
				Note Time="5" Value="A3" Duration="1" Instrument="jaezu lead"
				Note Time="7" Value="F#3" Duration="4" Instrument="jaezu lead"
				Note Time="12" Value="F#3" Duration="1" Instrument="jaezu lead"
				Note Time="13" Value="A3" Duration="1" Instrument="jaezu lead"
				Note Time="14" Value="C4" Duration="1" Instrument="jaezu lead"
			Pattern Name="Pattern 20" Color="98a7fc"
				Note Time="0" Value="A#3" Duration="1" Instrument="jaezu lead" SlideTarget="C4"
				Note Time="1" Value="C4" Duration="3" Instrument="jaezu lead"
				Note Time="4" Value="B3" Duration="2" Instrument="jaezu lead"
				Note Time="7" Value="A3" Duration="1" Instrument="jaezu lead"
				Note Time="9" Value="F#3" Duration="3" Instrument="jaezu lead"
				Note Time="14" Value="F#3" Duration="1" Instrument="jaezu lead"
				Note Time="15" Value="A3" Duration="1" Instrument="jaezu lead"
			Pattern Name="Pattern 21" Color="ff7f72"
				Note Time="0" Value="C4" Duration="1" Instrument="jaezu lead"
				Note Time="1" Value="B3" Duration="1" Instrument="jaezu lead"
				Note Time="2" Value="A3" Duration="1" Instrument="jaezu lead"
				Note Time="4" Value="E3" Duration="1" Instrument="jaezu lead"
				Note Time="6" Value="E3" Duration="1" Instrument="jaezu lead"
				Note Time="8" Value="E3" Duration="1" Instrument="jaezu lead"
				Note Time="9" Value="C#3" Duration="1" Instrument="jaezu lead"
				Note Time="10" Value="E3" Duration="1" Instrument="jaezu lead"
				Note Time="11" Value="F#3" Duration="2" Instrument="jaezu lead"
				Note Time="13" Value="C#3" Duration="1" Instrument="jaezu lead"
				Note Time="14" Value="F#3" Duration="1" Instrument="jaezu lead"
				Note Time="15" Value="A3" Duration="1" Instrument="jaezu lead"
			Pattern Name="Pattern 22" Color="e95093"
				Note Time="0" Value="A#3" Duration="1" Instrument="jaezu lead" SlideTarget="C4"
				Note Time="1" Value="C4" Duration="5" Instrument="jaezu lead"
				Note Time="6" Value="B3" Duration="1" Instrument="jaezu lead"
				Note Time="7" Value="A3" Duration="1" Instrument="jaezu lead"
				Note Time="9" Value="F#3" Duration="3" Instrument="jaezu lead"
				Note Time="14" Value="F#3" Duration="1" Instrument="jaezu lead"
				Note Time="15" Value="A3" Duration="1" Instrument="jaezu lead"
			Pattern Name="Pattern 23" Color="ffa83c"
				Note Time="0" Value="C4" Duration="1" Instrument="jaezu lead"
				Note Time="1" Value="B3" Duration="1" Instrument="jaezu lead"
				Note Time="2" Value="E3" Duration="1" Instrument="jaezu lead"
				Note Time="4" Value="E3" Duration="1" Instrument="jaezu lead"
				Note Time="6" Value="E3" Duration="1" Instrument="jaezu lead"
				Note Time="7" Value="C#3" Duration="1" Instrument="jaezu lead"
				Note Time="8" Value="E3" Duration="1" Instrument="jaezu lead"
				Note Time="9" Value="C#3" Duration="1" Instrument="jaezu lead"
				Note Time="11" Value="D#3" Duration="1" Instrument="jaezu lead" SlideTarget="F#3"
				Note Time="12" Value="F#3" Duration="4" Instrument="jaezu lead"
			Pattern Name="Pattern 24" Color="ebf067"
				Note Time="0" Volume="15" FinePitch="0"
				Note Time="11" Value="E3" Duration="1" Instrument="death moon lead 2" Arpeggio="Arp 0C"
				Note Time="13" Value="C#3" Duration="1" Instrument="death moon lead 2" Arpeggio="Arp 0C"
				Note Time="14" Value="E3" Duration="1" Instrument="death moon lead 2" Arpeggio="Arp 0C"
			Pattern Name="Pattern 26" Color="d1b1ff"
				Note Time="0" Value="F#3" Duration="1" Instrument="death moon lead 2" Arpeggio="Arp 0C"
				Note Time="2" Value="F#3" Duration="1" Instrument="death moon lead 2" Arpeggio="Arp 0C"
			Pattern Name="Pattern 27" Color="a9887d"
				Note Time="0" Value="F#3" Duration="1" Instrument="blank instant decay"
				Note Time="1" Value="F#3" Duration="1" Instrument="echo"
				Note Time="4" Value="F#3" Duration="1" Instrument="blank instant decay"
				Note Time="5" Value="F#3" Duration="1" Instrument="echo"
				Note Time="8" Value="F#3" Duration="1" Instrument="blank instant decay"
				Note Time="9" Value="F#3" Duration="1" Instrument="echo"
				Note Time="12" Value="F#3" Duration="1" Instrument="blank instant decay"
				Note Time="13" Value="F#3" Duration="1" Instrument="echo"
			Pattern Name="Pattern 33" Color="fffc69"
				Note Time="0" Value="F#3" Duration="1" Instrument="blank instant decay"
				Note Time="1" Value="F#3" Duration="1" Instrument="echo"
				Note Time="4" Value="F#3" Duration="1" Instrument="blank instant decay"
				Note Time="5" Value="F#3" Duration="1" Instrument="echo"
				Note Time="8" Value="E3" Duration="1" Instrument="blank instant decay"
				Note Time="9" Value="E3" Duration="1" Instrument="blank instant decay"
				Note Time="10" Value="E3" Duration="1" Instrument="echo"
				Note Time="12" Value="F3" Duration="1" Instrument="blank instant decay"
				Note Time="13" Value="F3" Duration="1" Instrument="echo"
			Pattern Name="Pattern 34" Color="3ca598"
				Note Time="0" Value="F#3" Duration="1" Instrument="blank instant decay"
				Note Time="1" Value="F#3" Duration="1" Instrument="echo"
				Note Time="12" Value="E3" Duration="1" Instrument="blank instant decay"
				Note Time="13" Value="E3" Duration="1" Instrument="echo"
			Pattern Name="Pattern 35" Color="9a71ed"
				Note Time="0" Value="F#3" Duration="1" Instrument="blank instant decay"
				Note Time="1" Value="F#3" Duration="1" Instrument="echo"
			PatternInstance Time="0" Pattern="Pattern 1"
			PatternInstance Time="1" Pattern="Pattern 2"
			PatternInstance Time="2" Pattern="Pattern 3"
			PatternInstance Time="3" Pattern="Pattern 4"
			PatternInstance Time="4" Pattern="Pattern 1"
			PatternInstance Time="5" Pattern="Pattern 2"
			PatternInstance Time="6" Pattern="Pattern 3"
			PatternInstance Time="7" Pattern="Pattern 5"
			PatternInstance Time="8" Pattern="Pattern 6"
			PatternInstance Time="9" Pattern="Pattern 7"
			PatternInstance Time="10" Pattern="Pattern 25"
			PatternInstance Time="11" Pattern="Pattern 28"
			PatternInstance Time="12" Pattern="Pattern 29"
			PatternInstance Time="13" Pattern="Pattern 30"
			PatternInstance Time="14" Pattern="Pattern 31"
			PatternInstance Time="15" Pattern="Pattern 32"
			PatternInstance Time="16" Pattern="Pattern 14"
			PatternInstance Time="17" Pattern="Pattern 9"
			PatternInstance Time="18" Pattern="Pattern 14"
			PatternInstance Time="19" Pattern="Pattern 9"
			PatternInstance Time="20" Pattern="Pattern 14"
			PatternInstance Time="21" Pattern="Pattern 9"
			PatternInstance Time="22" Pattern="Pattern 14"
			PatternInstance Time="23" Pattern="Pattern 10"
			PatternInstance Time="24" Pattern="Pattern 6"
			PatternInstance Time="25" Pattern="Pattern 7"
			PatternInstance Time="26" Pattern="Pattern 6"
			PatternInstance Time="27" Pattern="Pattern 7"
			PatternInstance Time="28" Pattern="Pattern 8"
			PatternInstance Time="29" Pattern="Pattern 30"
			PatternInstance Time="30" Pattern="Pattern 31"
			PatternInstance Time="31" Pattern="Pattern 7"
			PatternInstance Time="32" Pattern="Pattern 11"
			PatternInstance Time="33" Pattern="Pattern 12"
			PatternInstance Time="34" Pattern="Pattern 13"
			PatternInstance Time="35" Pattern="Pattern 15"
			PatternInstance Time="36" Pattern="Pattern 13"
			PatternInstance Time="37" Pattern="Pattern 12"
			PatternInstance Time="38" Pattern="Pattern 13"
			PatternInstance Time="39" Pattern="Pattern 15"
			PatternInstance Time="40" Pattern="Pattern 16"
			PatternInstance Time="41" Pattern="Pattern 17"
			PatternInstance Time="42" Pattern="Pattern 18"
			PatternInstance Time="43" Pattern="Pattern 19"
			PatternInstance Time="44" Pattern="Pattern 18"
			PatternInstance Time="45" Pattern="Pattern 20"
			PatternInstance Time="46" Pattern="Pattern 21"
			PatternInstance Time="47" Pattern="Pattern 22"
			PatternInstance Time="48" Pattern="Pattern 23"
			PatternInstance Time="50" Pattern="Pattern 24"
			PatternInstance Time="51" Pattern="Pattern 26"
			PatternInstance Time="52" Pattern="Pattern 24"
			PatternInstance Time="53" Pattern="Pattern 27"
			PatternInstance Time="54" Pattern="Pattern 33"
			PatternInstance Time="55" Pattern="Pattern 34"
			PatternInstance Time="56" Pattern="Pattern 35"
		Channel Type="Triangle"
			Pattern Name="Pattern 1" Color="ffff77"
				Note Time="0" Value="A3" Duration="3" Instrument="octave arp"
				Note Time="6" Value="A3" Duration="3" Instrument="octave arp"
			Pattern Name="Pattern 4" Color="3ca598"
				Note Time="0" Value="B3" Duration="3" Instrument="octave arp"
				Note Time="6" Value="B3" Duration="3" Instrument="octave arp"
				Note Time="12" Value="D4" Duration="3" Instrument="octave arp"
			Pattern Name="Pattern 3" Color="6c7bdb"
				Note Time="0" Value="C#4" Duration="2" Instrument="octave arp"
			Pattern Name="Pattern 2" Color="3cc5b7"
				Note Time="0" Value="B3" Duration="3" Instrument="octave arp"
				Note Time="6" Value="B3" Duration="3" Instrument="octave arp"
				Note Time="12" Value="E4" Duration="3" Instrument="octave arp"
			Pattern Name="Pattern 6" Color="8d69e4"
				Note Time="0" Value="F#4" Duration="3" Instrument="octave arp"
				Note Time="3" Value="F#3" Duration="1" Instrument="triangle pluck 4"
				Note Time="5" Value="G#3" Duration="1" Instrument="triangle pluck 4"
				Note Time="6" Value="F#3" Duration="1" Instrument="triangle pluck 4"
				Note Time="7" Value="G#3" Duration="1" Instrument="triangle pluck 4"
				Note Time="8" Value="A3" Duration="1" Instrument="triangle pluck 4"
				Note Time="10" Value="F#3" Duration="1" Instrument="triangle pluck 4"
				Note Time="12" Value="F#3" Duration="1" Instrument="triangle pluck 4"
				Note Time="13" Value="F#3" Duration="1" Instrument="triangle pluck 4"
			Pattern Name="Pattern 5" Color="5dd2ff"
				Note Time="0" Value="F#3" Duration="1" Instrument="triangle pluck 4"
				Note Time="1" Value="F#3" Duration="1" Instrument="triangle pluck 4"
				Note Time="3" Value="F#3" Duration="1" Instrument="triangle pluck 4"
				Note Time="5" Value="G#3" Duration="1" Instrument="triangle pluck 4"
				Note Time="6" Value="F#3" Duration="1" Instrument="triangle pluck 4"
				Note Time="7" Value="G#3" Duration="1" Instrument="triangle pluck 4"
				Note Time="8" Value="A3" Duration="1" Instrument="triangle pluck 4"
				Note Time="10" Value="F#3" Duration="1" Instrument="triangle pluck 4"
				Note Time="12" Value="F#3" Duration="1" Instrument="triangle pluck 4"
				Note Time="13" Value="F#3" Duration="1" Instrument="triangle pluck 4"
			Pattern Name="Pattern 7" Color="ffe362"
				Note Time="0" Value="C3" Duration="1" Instrument="triangle drums"
				Note Time="7" Value="C3" Duration="1" Instrument="triangle drums"
				Note Time="9" Value="C3" Duration="1" Instrument="triangle drums"
			Pattern Name="Pattern 8" Color="ffac7f"
				Note Time="0" Value="C4" Duration="5" Instrument="jaezu lead"
				Note Time="4" Value="B3" Duration="1" Instrument="endgame lead"
				Note Time="5" Value="A3" Duration="1" Instrument="endgame lead"
				Note Time="7" Value="F#3" Duration="1" Instrument="endgame lead"
				Note Time="12" Value="F#3" Duration="1" Instrument="endgame lead"
				Note Time="13" Value="A3" Duration="1" Instrument="endgame lead"
				Note Time="14" Value="C4" Duration="1" Instrument="endgame lead"
			Pattern Name="Pattern 9" Color="ffff75"
				Note Time="0" Value="E3" Duration="1" Instrument="endgame lead"
				Note Time="2" Value="E3" Duration="1" Instrument="endgame lead"
				Note Time="4" Value="E3" Duration="1" Instrument="endgame lead"
				Note Time="5" Value="C#3" Duration="1" Instrument="endgame lead"
				Note Time="6" Value="E3" Duration="1" Instrument="endgame lead"
				Note Time="7" Value="F#3" Duration="1" Instrument="endgame lead"
				Note Time="12" Value="F#3" Duration="1" Instrument="endgame lead"
				Note Time="13" Value="A3" Duration="1" Instrument="endgame lead"
			Pattern Name="Pattern 10" Color="3ce8fd"
				Note Time="0" Value="F#4" Duration="4" Instrument="jaezu lead"
				Note Time="4" Value="B3" Duration="1" Instrument="endgame lead"
				Note Time="5" Value="A3" Duration="1" Instrument="endgame lead"
				Note Time="7" Value="F#3" Duration="1" Instrument="endgame lead"
				Note Time="12" Value="F#3" Duration="1" Instrument="endgame lead"
				Note Time="13" Value="A3" Duration="1" Instrument="endgame lead"
				Note Time="14" Value="C4" Duration="1" Instrument="endgame lead"
			Pattern Name="Pattern 11" Color="ff935e"
				Note Time="0" Value="C4" Duration="4" Instrument="jaezu lead"
				Note Time="4" Value="B3" Duration="1" Instrument="endgame lead"
				Note Time="7" Value="A3" Duration="1" Instrument="endgame lead"
				Note Time="9" Value="F#3" Duration="1" Instrument="endgame lead"
				Note Time="14" Value="F#3" Duration="1" Instrument="endgame lead"
				Note Time="15" Value="A3" Duration="1" Instrument="endgame lead"
			Pattern Name="Pattern 12" Color="fcff6f"
				Note Time="0" Value="C4" Duration="1" Instrument="endgame lead"
				Note Time="1" Value="B3" Duration="1" Instrument="endgame lead"
				Note Time="2" Value="A3" Duration="1" Instrument="endgame lead"
				Note Time="4" Value="E3" Duration="1" Instrument="endgame lead"
				Note Time="6" Value="E3" Duration="1" Instrument="endgame lead"
				Note Time="8" Value="E3" Duration="1" Instrument="endgame lead"
				Note Time="9" Value="C#3" Duration="1" Instrument="endgame lead"
				Note Time="11" Value="E3" Duration="1" Instrument="endgame lead"
				Note Time="12" Value="F#3" Duration="1" Instrument="endgame lead"
				Note Time="14" Value="F#3" Duration="1" Instrument="endgame lead"
				Note Time="15" Value="A3" Duration="1" Instrument="endgame lead"
			Pattern Name="Pattern 13" Color="3cd3e3"
				Note Time="0" Value="C4" Duration="6" Instrument="jaezu lead"
				Note Time="6" Value="B3" Duration="1" Instrument="endgame lead"
				Note Time="7" Value="A3" Duration="1" Instrument="endgame lead"
				Note Time="9" Value="F#3" Duration="1" Instrument="endgame lead"
				Note Time="14" Value="F#3" Duration="1" Instrument="endgame lead"
				Note Time="15" Value="A3" Duration="1" Instrument="endgame lead"
			Pattern Name="Pattern 14" Color="8163dc"
				Note Time="0" Value="C4" Duration="1" Instrument="endgame lead"
				Note Time="1" Value="B3" Duration="1" Instrument="endgame lead"
				Note Time="2" Value="E3" Duration="1" Instrument="endgame lead"
				Note Time="4" Value="E3" Duration="1" Instrument="endgame lead"
				Note Time="6" Value="E3" Duration="1" Instrument="endgame lead"
				Note Time="7" Value="C#3" Duration="1" Instrument="endgame lead"
				Note Time="8" Value="E3" Duration="1" Instrument="endgame lead"
				Note Time="9" Value="C#3" Duration="1" Instrument="endgame lead"
				Note Time="11" Value="F#3" Duration="4" Instrument="jaezu lead"
			PatternInstance Time="10" Pattern="Pattern 1"
			PatternInstance Time="11" Pattern="Pattern 4"
			PatternInstance Time="12" Pattern="Pattern 3"
			PatternInstance Time="14" Pattern="Pattern 1"
			PatternInstance Time="15" Pattern="Pattern 2"
			PatternInstance Time="16" Pattern="Pattern 6"
			PatternInstance Time="17" Pattern="Pattern 5"
			PatternInstance Time="18" Pattern="Pattern 5"
			PatternInstance Time="19" Pattern="Pattern 5"
			PatternInstance Time="20" Pattern="Pattern 5"
			PatternInstance Time="21" Pattern="Pattern 5"
			PatternInstance Time="22" Pattern="Pattern 5"
			PatternInstance Time="23" Pattern="Pattern 5"
			PatternInstance Time="24" Pattern="Pattern 5"
			PatternInstance Time="25" Pattern="Pattern 5"
			PatternInstance Time="26" Pattern="Pattern 5"
			PatternInstance Time="27" Pattern="Pattern 5"
			PatternInstance Time="28" Pattern="Pattern 5"
			PatternInstance Time="29" Pattern="Pattern 5"
			PatternInstance Time="30" Pattern="Pattern 5"
			PatternInstance Time="31" Pattern="Pattern 5"
			PatternInstance Time="33" Pattern="Pattern 7"
			PatternInstance Time="34" Pattern="Pattern 7"
			PatternInstance Time="35" Pattern="Pattern 7"
			PatternInstance Time="36" Pattern="Pattern 7"
			PatternInstance Time="37" Pattern="Pattern 7"
			PatternInstance Time="38" Pattern="Pattern 7"
			PatternInstance Time="39" Pattern="Pattern 7"
			PatternInstance Time="40" Pattern="Pattern 7"
			PatternInstance Time="41" Pattern="Pattern 8"
			PatternInstance Time="42" Pattern="Pattern 9"
			PatternInstance Time="43" Pattern="Pattern 10"
			PatternInstance Time="44" Pattern="Pattern 9"
			PatternInstance Time="45" Pattern="Pattern 11"
			PatternInstance Time="46" Pattern="Pattern 12"
			PatternInstance Time="47" Pattern="Pattern 13"
			PatternInstance Time="48" Pattern="Pattern 14"
			PatternInstance Time="49" Pattern="Pattern 5"
			PatternInstance Time="50" Pattern="Pattern 5"
			PatternInstance Time="51" Pattern="Pattern 5"
			PatternInstance Time="52" Pattern="Pattern 5"
			PatternInstance Time="53" Pattern="Pattern 5"
			PatternInstance Time="54" Pattern="Pattern 5"
			PatternInstance Time="55" Pattern="Pattern 5"
		Channel Type="Noise"
			Pattern Name="Pattern 1" Color="b5c2ff"
				Note Time="0" Value="F#3" Duration="2" Instrument="hat"
				Note Time="2" Value="F#3" Duration="2" Instrument="hat"
				Note Time="4" Value="B4" Duration="2" Instrument="snare"
				Note Time="6" Value="F#3" Duration="2" Instrument="hat"
				Note Time="8" Value="F#3" Duration="2" Instrument="hat"
				Note Time="10" Value="F#3" Duration="2" Instrument="hat"
				Note Time="12" Value="B4" Duration="2" Instrument="snare"
				Note Time="14" Value="F#3" Duration="2" Instrument="hat"
			Pattern Name="Pattern 3" Color="ff579c"
				Note Time="0" Value="F#3" Duration="3" Instrument="hat"
				Note Time="2" Value="F#3" Duration="3" Instrument="hat"
				Note Time="4" Value="B4" Duration="2" Instrument="snare"
				Note Time="6" Value="F#3" Duration="3" Instrument="hat"
				Note Time="8" Value="F#3" Duration="3" Instrument="hat"
				Note Time="10" Value="F#3" Duration="3" Instrument="hat"
				Note Time="12" Value="B4" Duration="2" Instrument="snare"
				Note Time="14" Value="F#3" Duration="1" Instrument="hat"
				Note Time="15" Value="B4" Duration="1" Instrument="snare"
			Pattern Name="Pattern 4" Color="9a71ed"
				Note Time="0" Value="F#3" Duration="4" Instrument="cymbal"
				Note Time="4" Value="B2" Duration="2" Instrument="clap"
				Note Time="6" Value="E3" Duration="2" Instrument="hat"
				Note Time="7" Value="B2" Duration="2" Instrument="clap"
				Note Time="9" Value="B2" Duration="1" Instrument="clap"
				Note Time="10" Value="F#3" Duration="1" Instrument="kick"
				Note Time="12" Value="B2" Duration="2" Instrument="clap"
				Note Time="14" Value="E3" Duration="2" Instrument="hat"
			Pattern Name="Pattern 2" Color="bdffc0"
				Note Time="0" Value="F#3" Duration="1" Instrument="kick"
				Note Time="2" Value="F#3" Duration="1" Instrument="kick"
				Note Time="4" Value="B2" Duration="2" Instrument="clap"
				Note Time="6" Value="E3" Duration="2" Instrument="hat"
				Note Time="7" Value="B2" Duration="2" Instrument="clap"
				Note Time="9" Value="B2" Duration="1" Instrument="clap"
				Note Time="10" Value="F#3" Duration="1" Instrument="kick"
				Note Time="12" Value="B2" Duration="2" Instrument="clap"
				Note Time="14" Value="E3" Duration="2" Instrument="hat"
			Pattern Name="Pattern 5" Color="ffc83c"
				Note Time="0" Value="F#3" Duration="1" Instrument="kick"
				Note Time="2" Value="F#3" Duration="1" Instrument="kick"
				Note Time="4" Value="B2" Duration="2" Instrument="clap"
				Note Time="6" Value="E3" Duration="2" Instrument="hat"
				Note Time="7" Value="B2" Duration="2" Instrument="clap"
				Note Time="9" Value="B2" Duration="1" Instrument="clap"
			Pattern Name="Pattern 6" Color="ffff64"
				Note Time="0" Value="G#3" Duration="3" Instrument="cymbal" Volume="15"
				Note Time="4" Value="G3" Duration="1" Instrument="snare"
				Note Time="6" Value="G3" Duration="1" Instrument="hat"
				Note Time="7" Value="C4" Duration="1" Instrument="tom" CutDelay="3"
				Note Time="9" Value="C4" Duration="1" Instrument="tom" CutDelay="3"
				Note Time="10" Value="G3" Duration="1" Instrument="hat"
				Note Time="12" Value="G3" Duration="1" Instrument="snare"
				Note Time="14" Value="G3" Duration="1" Instrument="hat"
			Pattern Name="Pattern 7" Color="88eb8c"
				Note Time="0" Value="C4" Duration="1" Instrument="tom" CutDelay="3"
				Note Time="2" Value="G3" Duration="1" Instrument="hat"
				Note Time="4" Value="G3" Duration="1" Instrument="snare"
				Note Time="6" Value="G3" Duration="1" Instrument="hat"
				Note Time="7" Value="C4" Duration="1" Instrument="tom" CutDelay="3"
				Note Time="9" Value="C4" Duration="1" Instrument="tom" CutDelay="3"
				Note Time="10" Value="G3" Duration="1" Instrument="hat"
				Note Time="12" Value="G3" Duration="1" Instrument="snare"
				Note Time="14" Value="G3" Duration="1" Instrument="hat"
			Pattern Name="Pattern 12" Color="5dd2ff"
				Note Time="0" Value="G#3" Duration="16" Instrument="cymbal"
				Note Time="8" Volume="5"
				Note Time="11" Volume="1"
			Pattern Name="Pattern 10" Color="997c73"
				Note Time="0" Value="C4" Duration="1" Instrument="tom" CutDelay="3"
				Note Time="2" Value="G3" Duration="1" Instrument="hat"
				Note Time="4" Value="G3" Duration="1" Instrument="snare"
				Note Time="6" Value="G3" Duration="1" Instrument="hat"
				Note Time="7" Value="C4" Duration="1" Instrument="tom" CutDelay="3"
				Note Time="9" Value="C4" Duration="1" Instrument="tom" CutDelay="3"
				Note Time="10" Value="G3" Duration="1" Instrument="hat"
				Note Time="12" Value="G3" Duration="1" Instrument="snare"
				Note Time="14" Value="G3" Duration="2" Instrument="cymbal"
			Pattern Name="Pattern 9" Color="ffb83c"
				Note Time="0" Value="F#3" Duration="4" Instrument="cymbal"
				Note Time="4" Value="G3" Duration="1" Instrument="snare"
				Note Time="6" Value="D#3" Duration="1" Instrument="hat"
				Note Time="7" Value="D#3" Duration="1" Instrument="hat"
				Note Time="9" Value="D#3" Duration="1" Instrument="hat"
				Note Time="10" Value="C4" Duration="1" Instrument="tom" CutDelay="3"
				Note Time="12" Value="G3" Duration="1" Instrument="snare"
				Note Time="14" Value="D#3" Duration="1" Instrument="hat"
			Pattern Name="Pattern 8" Color="ffff64"
				Note Time="0" Value="C4" Duration="1" Instrument="tom" CutDelay="3"
				Note Time="2" Value="D#3" Duration="1" Instrument="hat"
				Note Time="4" Value="G3" Duration="1" Instrument="snare"
				Note Time="6" Value="D#3" Duration="1" Instrument="hat"
				Note Time="7" Value="D#3" Duration="1" Instrument="hat"
				Note Time="9" Value="D#3" Duration="1" Instrument="hat"
				Note Time="10" Value="C4" Duration="1" Instrument="tom" CutDelay="3"
				Note Time="12" Value="G3" Duration="1" Instrument="snare"
				Note Time="14" Value="D#3" Duration="1" Instrument="hat"
			Pattern Name="Pattern 11" Color="b75bde"
				Note Time="0" Value="F#3" Duration="8" Instrument="cymbal"
			PatternInstance Time="0" Pattern="Pattern 1"
			PatternInstance Time="1" Pattern="Pattern 3"
			PatternInstance Time="2" Pattern="Pattern 1"
			PatternInstance Time="3" Pattern="Pattern 3"
			PatternInstance Time="4" Pattern="Pattern 1"
			PatternInstance Time="5" Pattern="Pattern 3"
			PatternInstance Time="6" Pattern="Pattern 1"
			PatternInstance Time="7" Pattern="Pattern 3"
			PatternInstance Time="8" Pattern="Pattern 1"
			PatternInstance Time="9" Pattern="Pattern 3"
			PatternInstance Time="10" Pattern="Pattern 1"
			PatternInstance Time="11" Pattern="Pattern 3"
			PatternInstance Time="12" Pattern="Pattern 1"
			PatternInstance Time="13" Pattern="Pattern 3"
			PatternInstance Time="14" Pattern="Pattern 1"
			PatternInstance Time="15" Pattern="Pattern 3"
			PatternInstance Time="16" Pattern="Pattern 4"
			PatternInstance Time="17" Pattern="Pattern 2"
			PatternInstance Time="18" Pattern="Pattern 2"
			PatternInstance Time="19" Pattern="Pattern 2"
			PatternInstance Time="20" Pattern="Pattern 2"
			PatternInstance Time="21" Pattern="Pattern 2"
			PatternInstance Time="22" Pattern="Pattern 2"
			PatternInstance Time="23" Pattern="Pattern 5"
			PatternInstance Time="24" Pattern="Pattern 6"
			PatternInstance Time="25" Pattern="Pattern 7"
			PatternInstance Time="26" Pattern="Pattern 7"
			PatternInstance Time="27" Pattern="Pattern 7"
			PatternInstance Time="28" Pattern="Pattern 7"
			PatternInstance Time="29" Pattern="Pattern 7"
			PatternInstance Time="30" Pattern="Pattern 7"
			PatternInstance Time="31" Pattern="Pattern 7"
			PatternInstance Time="32" Pattern="Pattern 12"
			PatternInstance Time="33" Pattern="Pattern 6"
			PatternInstance Time="34" Pattern="Pattern 7"
			PatternInstance Time="35" Pattern="Pattern 7"
			PatternInstance Time="36" Pattern="Pattern 7"
			PatternInstance Time="37" Pattern="Pattern 7"
			PatternInstance Time="38" Pattern="Pattern 7"
			PatternInstance Time="39" Pattern="Pattern 7"
			PatternInstance Time="40" Pattern="Pattern 10"
			PatternInstance Time="41" Pattern="Pattern 9"
			PatternInstance Time="42" Pattern="Pattern 8"
			PatternInstance Time="43" Pattern="Pattern 8"
			PatternInstance Time="44" Pattern="Pattern 8"
			PatternInstance Time="45" Pattern="Pattern 8"
			PatternInstance Time="46" Pattern="Pattern 8"
			PatternInstance Time="47" Pattern="Pattern 8"
			PatternInstance Time="48" Pattern="Pattern 8"
			PatternInstance Time="49" Pattern="Pattern 4"
			PatternInstance Time="50" Pattern="Pattern 2"
			PatternInstance Time="51" Pattern="Pattern 4"
			PatternInstance Time="52" Pattern="Pattern 2"
			PatternInstance Time="53" Pattern="Pattern 4"
			PatternInstance Time="54" Pattern="Pattern 2"
			PatternInstance Time="55" Pattern="Pattern 4"
			PatternInstance Time="56" Pattern="Pattern 11"
		Channel Type="DPCM"
			Pattern Name="Pattern 2" Color="f6a4ff"
				Note Time="6" Value="E2" Duration="14" Instrument="DMC: drums + bass"
			Pattern Name="Pattern 3" Color="ffc6a1"
				Note Time="4" Value="D#2" Duration="9" Instrument="DMC: drums + bass"
			Pattern Name="Pattern 4" Color="ff8f8c"
				Note Time="0" Value="F#4" Duration="2" Instrument="DMC: drums + bass"
				Note Time="10" Value="F#4" Duration="2" Instrument="DMC: drums + bass"
			Pattern Name="Pattern 7" Color="88eb8c"
				Note Time="0" Value="F#4" Duration="2" Instrument="DMC: drums + bass"
				Note Time="10" Value="F#4" Duration="2" Instrument="DMC: drums + bass"
				Note Time="14" Value="F#4" Duration="1" Instrument="DMC: drums + bass"
				Note Time="15" Value="F#4" Duration="1" Instrument="DMC: drums + bass"
			Pattern Name="Pattern 8" Color="fe5497"
				Note Time="0" Value="D4" Duration="2" Instrument="DMC: drums + bass"
				Note Time="3" Value="D4" Duration="2" Instrument="DMC: drums + bass"
				Note Time="6" Value="D4" Duration="2" Instrument="DMC: drums + bass"
				Note Time="12" Value="D4" Duration="2" Instrument="DMC: drums + bass"
			Pattern Name="Pattern 9" Color="91c76b"
				Note Time="0" Value="E4" Duration="2" Instrument="DMC: drums + bass"
				Note Time="3" Value="E4" Duration="2" Instrument="DMC: drums + bass"
				Note Time="6" Value="E4" Duration="2" Instrument="DMC: drums + bass"
				Note Time="12" Value="E4" Duration="2" Instrument="DMC: drums + bass"
				Note Time="14" Value="E4" Duration="1" Instrument="DMC: drums + bass"
				Note Time="15" Value="E4" Duration="1" Instrument="DMC: drums + bass"
			Pattern Name="Pattern 10" Color="e783f8"
				Note Time="0" Value="E4" Duration="2" Instrument="DMC: drums + bass"
				Note Time="3" Value="E4" Duration="2" Instrument="DMC: drums + bass"
				Note Time="6" Value="E4" Duration="2" Instrument="DMC: drums + bass"
				Note Time="10" Value="A4" Duration="2" Instrument="DMC: drums + bass"
				Note Time="12" Value="G#4" Duration="2" Instrument="DMC: drums + bass"
			Pattern Name="Pattern 1" Color="ffc83c"
				Note Time="0" Value="F#4" Duration="1" Instrument="DMC: drums + bass"
				Note Time="1" Value="F#4" Duration="1" Instrument="DMC: drums + bass"
				Note Time="3" Value="F#4" Duration="1" Instrument="DMC: drums + bass"
				Note Time="4" Value="F5" Duration="1" Instrument="DMC: drums + bass"
				Note Time="5" Value="F#4" Duration="1" Instrument="DMC: drums + bass"
				Note Time="6" Value="F#4" Duration="1" Instrument="DMC: drums + bass"
				Note Time="9" Value="F#4" Duration="1" Instrument="DMC: drums + bass"
				Note Time="10" Value="F#4" Duration="1" Instrument="DMC: drums + bass"
				Note Time="12" Value="F5" Duration="1" Instrument="DMC: drums + bass"
				Note Time="14" Value="F#4" Duration="1" Instrument="DMC: drums + bass"
				Note Time="15" Value="F#4" Duration="1" Instrument="DMC: drums + bass"
			Pattern Name="Pattern 5" Color="3eb3f9"
				Note Time="0" Value="D4" Duration="1" Instrument="DMC: drums + bass"
				Note Time="1" Value="D4" Duration="1" Instrument="DMC: drums + bass"
				Note Time="3" Value="D4" Duration="1" Instrument="DMC: drums + bass"
				Note Time="4" Value="F5" Duration="1" Instrument="DMC: drums + bass"
				Note Time="5" Value="D4" Duration="1" Instrument="DMC: drums + bass"
				Note Time="6" Value="D4" Duration="1" Instrument="DMC: drums + bass"
				Note Time="9" Value="D4" Duration="1" Instrument="DMC: drums + bass"
				Note Time="10" Value="D4" Duration="1" Instrument="DMC: drums + bass"
				Note Time="12" Value="F5" Duration="1" Instrument="DMC: drums + bass"
				Note Time="14" Value="D4" Duration="1" Instrument="DMC: drums + bass"
				Note Time="15" Value="D4" Duration="1" Instrument="DMC: drums + bass"
			Pattern Name="Pattern 6" Color="f6a4ff"
				Note Time="0" Value="E4" Duration="1" Instrument="DMC: drums + bass"
				Note Time="1" Value="E4" Duration="1" Instrument="DMC: drums + bass"
				Note Time="3" Value="E4" Duration="1" Instrument="DMC: drums + bass"
				Note Time="4" Value="F5" Duration="1" Instrument="DMC: drums + bass"
				Note Time="5" Value="E4" Duration="1" Instrument="DMC: drums + bass"
				Note Time="6" Value="E4" Duration="1" Instrument="DMC: drums + bass"
				Note Time="9" Value="E4" Duration="1" Instrument="DMC: drums + bass"
				Note Time="10" Value="E4" Duration="1" Instrument="DMC: drums + bass"
				Note Time="12" Value="F5" Duration="1" Instrument="DMC: drums + bass"
				Note Time="13" Value="A4" Duration="1" Instrument="DMC: drums + bass"
				Note Time="14" Value="G#4" Duration="1" Instrument="DMC: drums + bass"
				Note Time="15" Value="F#4" Duration="1" Instrument="DMC: drums + bass"
			Pattern Name="Pattern 11" Color="a4db74"
				Note Time="0" Value="E4" Duration="1" Instrument="DMC: drums + bass"
				Note Time="1" Value="E4" Duration="1" Instrument="DMC: drums + bass"
				Note Time="3" Value="E4" Duration="1" Instrument="DMC: drums + bass"
				Note Time="4" Value="F5" Duration="1" Instrument="DMC: drums + bass"
				Note Time="5" Value="E4" Duration="1" Instrument="DMC: drums + bass"
				Note Time="6" Value="E4" Duration="1" Instrument="DMC: drums + bass"
				Note Time="9" Value="E4" Duration="1" Instrument="DMC: drums + bass"
			Pattern Name="Pattern 12" Color="8163dc"
				Note Time="0" Value="C#4" Duration="2" Instrument="DMC: drums + bass"
				Note Time="2" Value="C4" Duration="2" Instrument="DMC: drums + bass"
				Note Time="4" Value="B3" Duration="1" Instrument="DMC: drums + bass"
				Note Time="5" Value="A3" Duration="1" Instrument="DMC: drums + bass"
				Note Time="7" Value="F#3" Duration="2" Instrument="DMC: drums + bass"
				Note Time="14" Value="F#3" Duration="2" Instrument="DMC: drums + bass"
			Pattern Name="Pattern 23" Color="ffef3c"
				Note Time="0" Value="C#4" Duration="2" Instrument="DMC: drums + bass"
				Note Time="2" Value="C4" Duration="2" Instrument="DMC: drums + bass"
				Note Time="4" Value="B3" Duration="1" Instrument="DMC: drums + bass"
				Note Time="5" Value="A3" Duration="1" Instrument="DMC: drums + bass"
				Note Time="7" Value="F#3" Duration="2" Instrument="DMC: drums + bass"
				Note Time="14" Value="F#3" Duration="2" Instrument="DMC: drums + bass"
			Pattern Name="Pattern 24" Color="51a1fc"
				Note Time="0" Value="C#3" Duration="1" Instrument="DMC: drums + bass"
				Note Time="2" Value="C#3" Duration="1" Instrument="DMC: drums + bass"
				Note Time="4" Value="E3" Duration="1" Instrument="DMC: drums + bass"
				Note Time="5" Value="E3" Duration="1" Instrument="DMC: drums + bass"
				Note Time="6" Value="E3" Duration="1" Instrument="DMC: drums + bass"
				Note Time="7" Value="F#3" Duration="2" Instrument="DMC: drums + bass"
				Note Time="14" Value="F#3" Duration="2" Instrument="DMC: drums + bass"
			Pattern Name="Pattern 25" Color="fff389"
				Note Time="0" Value="C#4" Duration="2" Instrument="DMC: drums + bass"
				Note Time="2" Value="C4" Duration="2" Instrument="DMC: drums + bass"
				Note Time="4" Value="B3" Duration="1" Instrument="DMC: drums + bass"
				Note Time="5" Value="A3" Duration="1" Instrument="DMC: drums + bass"
				Note Time="7" Value="B3" Duration="2" Instrument="DMC: drums + bass"
				Note Time="12" Value="A3" Duration="2" Instrument="DMC: drums + bass"
				Note Time="14" Value="F#3" Duration="2" Instrument="DMC: drums + bass"
			Pattern Name="Pattern 26" Color="ff8d5a"
				Note Time="0" Value="E3" Duration="2" Instrument="DMC: drums + bass"
				Note Time="1" Value="F#3" Duration="3" Instrument="DMC: drums + bass"
				Note Time="3" Value="F#3" Duration="2" Instrument="DMC: drums + bass"
				Note Time="5" Value="F#3" Duration="1" Instrument="DMC: drums + bass"
				Note Time="6" Value="E3" Duration="2" Instrument="DMC: drums + bass"
				Note Time="8" Value="F#3" Duration="2" Instrument="DMC: drums + bass"
				Note Time="14" Value="F#3" Duration="2" Instrument="DMC: drums + bass"
			Pattern Name="Pattern 13" Color="91c76b"
				Note Time="0" Value="E5" Duration="2" Instrument="DMC: drums + bass"
				Note Time="2" Value="F#4" Duration="2" Instrument="DMC: drums + bass"
				Note Time="4" Value="F5" Duration="2" Instrument="DMC: drums + bass"
				Note Time="6" Value="F#4" Duration="2" Instrument="DMC: drums + bass"
				Note Time="8" Value="E5" Duration="2" Instrument="DMC: drums + bass"
				Note Time="10" Value="F#4" Duration="2" Instrument="DMC: drums + bass"
				Note Time="12" Value="F5" Duration="2" Instrument="DMC: drums + bass"
				Note Time="14" Value="F#4" Duration="2" Instrument="DMC: drums + bass"
			Pattern Name="Pattern 14" Color="8bffff"
				Note Time="0" Value="E5" Duration="2" Instrument="DMC: drums + bass"
				Note Time="2" Value="D4" Duration="2" Instrument="DMC: drums + bass"
				Note Time="4" Value="F5" Duration="2" Instrument="DMC: drums + bass"
				Note Time="6" Value="D4" Duration="2" Instrument="DMC: drums + bass"
				Note Time="8" Value="E5" Duration="2" Instrument="DMC: drums + bass"
				Note Time="10" Value="F#4" Duration="2" Instrument="DMC: drums + bass"
				Note Time="12" Value="F5" Duration="2" Instrument="DMC: drums + bass"
				Note Time="14" Value="F#4" Duration="2" Instrument="DMC: drums + bass"
			Pattern Name="Pattern 15" Color="7b8df1"
				Note Time="0" Value="F#4" Duration="2" Instrument="DMC: drums + bass"
				Note Time="2" Value="F#4" Duration="5" Instrument="DMC: drums + bass"
				Note Time="6" Value="E2" Duration="14" Instrument="DMC: drums + bass"
			Pattern Name="Pattern 17" Color="ff9ece"
				Note Time="11" Value="E4" Duration="2" Instrument="DMC: drums + bass"
				Note Time="13" Value="C#4" Duration="1" Instrument="DMC: drums + bass"
				Note Time="14" Value="E4" Duration="2" Instrument="DMC: drums + bass"
			Pattern Name="Pattern 16" Color="ffef3c"
				Note Time="4" Value="D#2" Duration="12" Instrument="DMC: drums + bass"
			Pattern Name="Pattern 18" Color="89ffff"
				Note Time="0" Value="F#4" Duration="2" Instrument="DMC: drums + bass"
				Note Time="2" Value="F#4" Duration="2" Instrument="DMC: drums + bass"
			Pattern Name="Pattern 19" Color="ba93fe"
				Note Time="0" Value="F#4" Duration="1" Instrument="DMC: drums + bass"
				Note Time="2" Value="G#4" Duration="1" Instrument="DMC: drums + bass"
				Note Time="3" Value="F#4" Duration="1" Instrument="DMC: drums + bass"
				Note Time="5" Value="G#4" Duration="1" Instrument="DMC: drums + bass"
				Note Time="6" Value="F#4" Duration="1" Instrument="DMC: drums + bass"
				Note Time="7" Value="A4" Duration="1" Instrument="DMC: drums + bass"
				Note Time="8" Value="C#5" Duration="1" Instrument="DMC: drums + bass"
				Note Time="10" Value="G#4" Duration="1" Instrument="DMC: drums + bass"
				Note Time="12" Value="F#4" Duration="1" Instrument="DMC: drums + bass"
				Note Time="13" Value="F#4" Duration="1" Instrument="DMC: drums + bass"
			Pattern Name="Pattern 20" Color="c9aa9f"
				Note Time="0" Value="F#4" Duration="4" Instrument="DMC: drums + bass"
			PatternInstance Time="6" Pattern="Pattern 2"
			PatternInstance Time="7" Pattern="Pattern 3"
			PatternInstance Time="8" Pattern="Pattern 4"
			PatternInstance Time="9" Pattern="Pattern 7"
			PatternInstance Time="10" Pattern="Pattern 8"
			PatternInstance Time="11" Pattern="Pattern 9"
			PatternInstance Time="12" Pattern="Pattern 4"
			PatternInstance Time="13" Pattern="Pattern 7"
			PatternInstance Time="14" Pattern="Pattern 8"
			PatternInstance Time="15" Pattern="Pattern 10"
			PatternInstance Time="16" Pattern="Pattern 1"
			PatternInstance Time="17" Pattern="Pattern 1"
			PatternInstance Time="18" Pattern="Pattern 5"
			PatternInstance Time="19" Pattern="Pattern 6"
			PatternInstance Time="20" Pattern="Pattern 1"
			PatternInstance Time="21" Pattern="Pattern 1"
			PatternInstance Time="22" Pattern="Pattern 5"
			PatternInstance Time="23" Pattern="Pattern 11"
			PatternInstance Time="24" Pattern="Pattern 4"
			PatternInstance Time="25" Pattern="Pattern 7"
			PatternInstance Time="26" Pattern="Pattern 8"
			PatternInstance Time="27" Pattern="Pattern 9"
			PatternInstance Time="28" Pattern="Pattern 4"
			PatternInstance Time="29" Pattern="Pattern 7"
			PatternInstance Time="30" Pattern="Pattern 8"
			PatternInstance Time="31" Pattern="Pattern 9"
			PatternInstance Time="32" Pattern="Pattern 12"
			PatternInstance Time="33" Pattern="Pattern 23"
			PatternInstance Time="34" Pattern="Pattern 24"
			PatternInstance Time="35" Pattern="Pattern 25"
			PatternInstance Time="36" Pattern="Pattern 26"
			PatternInstance Time="37" Pattern="Pattern 23"
			PatternInstance Time="38" Pattern="Pattern 24"
			PatternInstance Time="39" Pattern="Pattern 25"
			PatternInstance Time="40" Pattern="Pattern 26"
			PatternInstance Time="41" Pattern="Pattern 13"
			PatternInstance Time="42" Pattern="Pattern 14"
			PatternInstance Time="43" Pattern="Pattern 13"
			PatternInstance Time="44" Pattern="Pattern 14"
			PatternInstance Time="45" Pattern="Pattern 13"
			PatternInstance Time="46" Pattern="Pattern 14"
			PatternInstance Time="47" Pattern="Pattern 13"
			PatternInstance Time="48" Pattern="Pattern 14"
			PatternInstance Time="49" Pattern="Pattern 15"
			PatternInstance Time="50" Pattern="Pattern 17"
			PatternInstance Time="51" Pattern="Pattern 15"
			PatternInstance Time="52" Pattern="Pattern 16"
			PatternInstance Time="53" Pattern="Pattern 18"
			PatternInstance Time="55" Pattern="Pattern 19"
			PatternInstance Time="56" Pattern="Pattern 20"
