# Dn-FamiTracker text export 0.5.0.2
# Module version 0450

# INFO block
TITLE           ""
AUTHOR          ""
COPYRIGHT       ""

# COMMENTS block
COMMENT ""

# PARAMS block
MACHINE         0
FRAMERATE       0
EXPANSION       0
VIBRATO         1
SPLIT           32
PLAYBACKRATE    0 16639

# SEQUENCES block
MACRO       0   1  -1  -1   0 : 13 13 9 4 0
MACRO       0   2  -1  -1   0 : 13 13 13 9 3 0 0
MACRO       0   3  -1  -1   0 : 11 7 4 1 0
MACRO       0   5  -1  -1   0 : 13 13 13 12 12 10 8 6 5 4 3 2 0
MACRO       0   6  -1  -1   0 : 13 13 11 10 8 6 3 1 0
MACRO       0   8  -1  -1   0 : 11 10 10 8 8 7 6 5 4 3 3 2 2 1 0
MACRO       0   9  -1  -1   0 : 15 15 15 15 15 15 15 0
MACRO       0  10  -1  -1   0 : 15 15 15 15 0
MACRO       0  11  -1  -1   0 : 15 12 15
MACRO       0  12  -1  -1   0 : 15 12 12 15
MACRO       0  14  -1  -1   0 : 12 12 15
MACRO       1   1   3  -1   1 : 13 6 3 2
MACRO       1   2   2  -1   1 : 12 3 7
MACRO       1   3   0  -1   1 : 12
MACRO       1   4   0  -1   0 : 0 0 -8 -8
MACRO       1   5   0  -1   0 : 0 0 -5 -5
MACRO       1   6   0  -1   0 : 0 0 -4 -4
MACRO       1   7   0  -1   0 : 0 0 -3 -3
MACRO       1   8   0  -1   0 : 0 0 -4 -4
MACRO       1   9  -1  -1   0 : 0 12 0
MACRO       1  10   2  -1   0 : 0 12 -4 -4 0 0
MACRO       1  11  -1  -1   1 : 37 34 32 29 27 24 22
MACRO       1  12  -1  -1   1 : 56 46 45 44
MACRO       1  13   2  -1   0 : 0 12 -3 -3 0 0
MACRO       1  14   2  -1   0 : 0 12 0 -3 -7 -7 -3 0
MACRO       1  15  -1  -1   0 : 0 12 0
MACRO       1  16  -1  -1   0 : 0 12 12 0
MACRO       1  20   0  -1   0 : 0 0 -12 -12
MACRO       1  21   0  -1   0 : 0 0 -4 -4
MACRO       1  22   0  -1   0 : 0 0 -5 -10
MACRO       1  23   0  -1   0 : 0 0 -4 -9
MACRO       1  24   0  -1   0 : 0 0 -5 -5 -12 -12
MACRO       1  25  -1  -1   0 : -12 12 0
MACRO       1  26   0  -1   0 : 0 0 -7 -7
MACRO       1  27   0  -1   0 : 0 0 -8 -8
MACRO       1  28   0  -1   0 : 0 0 -5 -5
MACRO       1  29   0  -1   0 : 0 0 -3 -7
MACRO       1  30   2  -1   0 : -12 12 0 0 -5 -5
MACRO       1  31   2  -1   0 : -12 12 0 0 -7 -7
MACRO       1  32   2  -1   0 : -12 12 0 0 -3 -8
MACRO       4   0   1  -1   0 : 2 1 1 1 1 0 0 0 0
MACRO       4   1  -1  -1   0 : 1 1 2
MACRO       4   2  -1  -1   0 : 0
MACRO       4   3  -1  -1   0 : 2 1
MACRO       4   4   1  -1   0 : 0 1 1 2 2 1 1
MACRO       4   6  -1  -1   0 : 2 1 0 0 0 1
MACRO       4   7  -1  -1   0 : 1

# DPCM SAMPLES block
DPCMDEF   0   593 "yamaha kick.dmc"
DPCM : 65 95 C3 71 F8 C0 E3 E0 18 E7 F1 07 7F 3E 7C FE 19 18 C0 0C 0E F0 0F 70 00 0F 3E F0 0F FC F8 9F
DPCM : C7 CF 1B FF 2D 2D 0E 4F 2D 08 1F 06 18 0E C0 00 50 55 55 55 55 55 55 55 55 D5 FE 3F EE F5 BF C7
DPCM : 9B A7 AA AA AA AA AA AA AA AA AA 2A 83 30 60 2C 04 D8 00 C8 34 55 55 55 55 55 55 55 55 55 B5 34
DPCM : F3 78 FF F1 1F BE AF E7 AF AA AA AA AA AA AA AA AA AA AA AA AA AA AA AA 0A C7 10 00 AA 81 00 68
DPCM : 6A 31 55 55 55 55 55 55 55 55 55 55 55 AD 32 B3 EC 71 EE FF 35 EF BE F3 CE 99 AA AA AA AA AA AA
DPCM : AA AA AA AA AA AA AA AA AA AA 08 C3 80 71 00 43 21 A0 23 55 55 55 55 55 55 55 55 55 55 55 55 55
DPCM : 55 55 55 55 55 55 35 B3 AA BF DE 7D ED ED 5E 7F AA AA AA AA AA AA AA AA AA AA AA AA AA AA AA AA
DPCM : AA AA AA AA 2A 15 4A 4A 20 49 05 95 81 13 28 2D C6 52 55 55 55 55 55 55 55 55 55 55 55 55 55 55
DPCM : 55 75 5D ED 97 6D DD D5 EC 69 D5 8E EE 5A 93 CB E6 A5 72 B5 AA 32 16 2D 55 1B EA A4 15 9A 96 E2
DPCM : 91 B8 A2 52 46 15 93 A2 AA B0 5A C4 58 56 AA 6A B4 E6 E2 55 55 DA 52 5D 76 31 CD 9A 95 76 6C 5D
DPCM : 96 B6 2A AD 4D 5B 55 A5 52 AD 45 AC 64 53 4C 6A 9A 92 CA D3 84 2A 55 AA 95 AA 55 B9 4A 4B B5 55
DPCM : A9 6D 6A 53 AB 4A D7 D2 D2 56 AD 2A AB 5A A5 5A 69 AA 52 5A 53 99 54 4D 55 56 59 6A 95 26 27 97
DPCM : AC D2 6C A9 55 35 55 AD 72 D3 AA AA 95 59 AB B2 B4 B4 4C 59 95 1A D5 54 C9 C9 D2 4C 69 A5 AA D2
DPCM : 52 45 95 55 D5 AA AC AC A6 74 2A 95 65 95 36 96 56 5A A9 B6 4C 55 55 AD 36 B5 56 55 55 DB D4 9A
DPCM : 54 B5 D2 A8 2D AD 52 AB AA 55 4D B5 25 55 AB 4A 29 AB 54 55 65 A9 AA 54 55 AD AA A6 4A 53 55 6A
DPCM : 51 95 5A AA A6 AC AA 6A 6A D5 AA 6A 55 A5 55 55 55 55 55 55 55 55 55 55 55 55 D5 4A B5 AA A6 56
DPCM : 6A 6A A9 AA 16 AB AA 54 55 55 55 55 AA 4A D5 AA 54 55 53 AE 54 D5 2A D5 6A 49 AB AC 54 59 A9 55
DPCM : 55 55 AD B2 55 56 55 6B 5A AA 55 55 D5 AA AA AA 2A B5 AA 2A AD 2A 55 69 29 AB 54 2B 55 55 55 55
DPCM : 55 55 A9 AA AA A9 AA A6 6A 55 55 A5 95 56 95 6A 55
DPCMDEF   1  1041 "yamaha snare.dmc"
DPCM : 19 00 00 D0 CC FF C7 FF F8 F1 FF C3 0F 63 00 87 01 00 00 54 55 55 55 E5 F8 FF FF FF FF FF 55 55
DPCM : 55 99 03 0C 00 04 00 00 40 55 65 CD 0F FF FF F3 FF E7 FF 9E 29 DC 19 02 8C E1 C3 38 00 00 18 07
DPCM : 18 30 1F 3E 3E F0 E3 3F F7 FE F3 FF 1F 1E C6 18 81 40 38 FC 30 00 C4 63 3C 3C 38 1C 90 E7 31 FF
DPCM : F3 CF FF FF 87 3B 03 30 8E C3 20 00 0C 00 20 1E 77 9C E7 F1 8F FF FB 6F 38 FF 39 FC 03 01 07 7E
DPCM : 87 01 30 00 80 79 F0 3C 38 38 9E 87 9F FF FF 3F CF 71 DC E1 0E 30 60 08 C3 81 21 38 C0 11 0F 8F
DPCM : 0F E7 1F FF CF F1 E3 1F E7 3C 0C 87 03 8E C3 03 C2 81 E3 38 8E 38 0E 3C C7 E1 79 7E 7C BE C3 31
DPCM : 7E 1C E3 38 3C 86 E3 F0 C0 E1 01 60 C0 1C 0A CF 71 FC 3D 8F CF 9F C7 F3 F9 FF 0C C3 21 0C 70 18
DPCM : 06 38 86 C1 08 E3 88 F1 E7 FF F3 FF 71 0E FF 0F 87 0F 86 31 38 80 31 84 03 18 38 C7 C1 39 1E 6F
DPCM : 9E F3 CF E3 FD FD C3 3B 0C E0 E0 C0 60 60 30 18 0E CE F1 18 CF CF E7 E3 E1 F1 73 F8 23 DC E1 70
DPCM : 78 78 E0 87 E3 18 63 0E 82 07 C2 F1 C0 E3 38 C6 F9 BC E7 3C FF F8 FF E0 0C 63 0C 43 E0 70 70 18
DPCM : 00 86 71 78 9E C7 1F 9F 77 FE 9F 63 8E 71 F4 86 03 7C 00 E1 70 38 C6 81 23 5C 7C 1C E7 C7 73 CF
DPCM : 79 2E 9E 67 1E 8F 21 0E 23 1C C3 F0 E1 F0 18 3B E0 89 63 87 CF F0 63 CE F1 0F FF E3 8E 63 3C 8C
DPCM : 31 0C 01 8E 10 63 98 79 1C 0F 0F EF C0 E3 FF 1C FF F8 7C 1E 0E 70 C0 01 E3 18 86 37 1C F8 E1 E1
DPCM : F1 F8 CF 71 8C 39 78 38 1E 8F 61 8E 71 CC D3 E1 11 F6 18 7B 30 1C C7 11 F8 4D EF C3 C7 87 9B E3
DPCM : 0E 39 70 80 31 8C 79 BC 0F 4F C1 07 F7 18 FE 60 55 90 17 FC 39 9E C3 71 0F E7 38 7C 18 E7 80 7D
DPCM : 8C 23 0E 81 C7 F1 70 9E F8 E1 E5 70 FE C4 E7 C2 41 0E 15 0F 3E 81 6F 88 C3 8B C7 C7 33 16 D5 C3
DPCM : 39 CE C3 81 67 1E F8 7C 8C C3 F1 30 1C E2 11 0F 87 F1 F8 F8 9E 0F 1F C6 D9 61 0E 0E C3 61 38 8C
DPCM : 79 0F EF C8 93 E7 E1 38 C7 78 B0 E2 F0 54 9E E1 38 0C 0F C7 71 C3 3D 06 EF 38 E3 1E 1E 9F F1 90
DPCM : 72 C4 86 15 C6 C3 2B 34 54 8C C7 CF 3B 7D 8C 19 8F CD E3 C6 71 0E 78 18 0D C3 39 7C 18 1E 8E E3
DPCM : E1 9E E3 D9 83 CE 18 CE 91 8F F3 62 1D 8C 43 7C D0 1E 3C 1C 1C 9A C1 EB 61 3F DC 51 F3 30 3D E7
DPCM : B3 4E C1 C1 10 D3 30 3C 9E 54 C7 0E 0F 8E F3 8E E7 5A 78 18 C7 E1 D1 31 1D 0F 65 A5 38 E1 71 57
DPCM : 55 4B 8D 93 56 4C 5D EB F0 62 8C 69 55 67 45 CF E1 50 A5 E1 18 1E 87 C7 71 5C 79 3C D3 AD C1 2B
DPCM : 47 39 1E 9C A7 F8 10 1D 95 62 59 8C 33 F8 3C 8E 8D C3 75 D5 57 1F 8D 33 2C 14 4E 25 8E E2 2C AC
DPCM : 35 1C 6F 69 79 55 77 79 1C 96 D1 2C 96 52 35 CA 61 87 63 D4 B0 A5 2F 5E 47 59 55 AB 9C E5 C5 E2
DPCM : 70 E2 18 66 D4 F1 AC C3 8D C5 15 6B 4D CB E5 68 D4 D2 1A 73 0E 67 34 0D 0D 8F 71 68 D5 8D 87 5B
DPCM : 78 B5 5C 9B B3 6A 8C 83 52 16 57 45 97 AA 12 AB 4A 5F 9C 35 55 35 56 D5 58 9D C3 53 45 D5 61 69
DPCM : 9C 26 9E C5 A5 65 65 95 6A 55 D6 54 75 61 95 6A 95 CB 74 1A 3B D4 71 54 95 15 87 5B E2 C1 A6 F1
DPCM : 6C A5 65 4D 73 51 17 57 2A 75 B4 72 96 A5 2A 4D 85 C7 52 1C A7 6A E9 B4 56 D9 3C 5A 8B AB 1C 1D
DPCM : 8D 45 55 31 8C 2B AA 6D 79 78 35 55 4B F5 D0 5A 55 56 65 C9 46 55 A5 B2 D8 4A 5B 54 39 56 AE A6
DPCM : 55 C7 B4 AA 52 D5 54 D5 CC D2 16 55 65 59 96 55 D5 54 56 B1 15 D5 29 27 9D 56 55 35 55 CD B4 6A
DPCM : 2C 4B 53 55 55 55 65 55 D5 54 9A A6 99 55 A9 66 2A AB 69 55 56 55 2D CB 96 AA 52 4B 55 55 D5 94
DPCM : AA 54 8B AD 74 55 59 D3 54 55 55 55 4D AD 2A 4D 55 55 59 A5 55 55 55 55 55 AA 95 55 59 5A 55 55
DPCM : 55 55 55 55 55 D3 52 D3 54 55 55 55 65 55 A9 AA 55
DPCMDEF   2   993 "ripped02.dmc"
DPCM : BB 0A 50 7A 0A FF 00 FF FF 04 FF 40 00 00 00 F0 FF FF 0B 07 F0 F5 FF F4 00 F0 5F 08 F5 BA 78 0F
DPCM : 00 F0 FF FF FF 00 80 70 F0 0F 00 F8 8F FA 07 48 00 00 00 FF FF FF 50 0A F4 FF 4F 0F 08 F7 57 00
DPCM : FF 5A F0 0F 00 FA 7F FF 8F 00 A8 A4 F0 0F 00 F5 5F B0 4F 00 00 0A 00 FF FF AF 70 00 FF FF 4F 0F
DPCM : 00 FF 85 B0 AF 85 5F 04 80 FF BF FF 0F 00 48 05 5F 04 A0 FF 0F F0 0F 00 00 04 F0 FF FF 85 45 50
DPCM : FF FF 5B 05 A0 7F 0A F8 AB 0A FF 00 40 FF FF FF 0F 00 40 04 FF 00 B0 FF 05 FB 04 00 80 00 F0 FF
DPCM : FF 8B 0A 74 FF FF 55 08 F0 5F 08 7B 5B 88 FF 04 40 FF FF FF 05 00 50 80 FF 08 70 FF 40 BF 08 00
DPCM : 00 00 F8 FF FF A5 84 BA FF 7F A5 00 7A AF A0 75 4B 74 BF 00 70 FF FF FF 00 00 48 58 5F 00 F5 5F
DPCM : 54 A7 08 00 00 00 FF FF 7F 8A A0 F5 FF BF 84 40 F5 A5 54 5B 8B 75 A7 00 BA FF FF AF 00 00 44 7A
DPCM : 47 88 F5 AB AA 4A 08 00 00 48 FF FF 5F 0A 54 FB FF 57 0A 44 BB AA B4 5A A5 BB 8A 40 75 FF FF 8F
DPCM : 00 80 48 5B A5 50 77 55 AB 8A 00 00 80 B8 FF FF 4B 44 B4 FB 7F 57 44 A4 B5 AA AA 55 55 B7 44 A4
DPCM : B5 FF 7F 8B 00 88 48 5B 8A AA B5 55 AB 84 00 00 88 F4 FF 7F 4B 44 5A 7F 7F AB 88 54 55 55 AB A5
DPCM : B5 55 4A 54 BB F7 BF 4A 08 88 A8 AA A4 5A AB 55 4B 0A 08 00 88 F5 FF 77 A5 A4 74 F7 BB 55 A4 AA
DPCM : 54 B5 AA 5A B5 A5 A4 AA 75 7F 5F 45 44 88 A4 4A AA 5A B5 55 A5 88 00 08 A8 F5 F7 BB AA A4 B5 BB
DPCM : BB AA 54 AA 4A AB AA 5A AB AA A4 AA BB 77 B7 A4 88 88 54 4A AA 55 B5 55 45 44 08 08 54 77 BF 5B
DPCM : 4B 55 5B 77 5B 4B 55 AA AA AA AA 5A AB 4A A5 5A 77 77 57 4A 8A 48 4A 4A AA 55 B5 5A 8A 88 80 40
DPCM : 5A BB BB 5B 55 B5 B5 5B 5B 55 55 AA AA AA AA 55 AB 4A A5 B5 75 5F AB 8A 44 4A 4A 54 AA 55 B5 AA
DPCM : 44 44 88 A0 B4 75 B7 B5 55 5B 5B 5B AB 55 A5 AA AA AA AA B5 AA 54 55 75 BB 5B 55 A5 48 4A 8A 54
DPCM : 55 55 B5 4A 8A 84 08 4A 5A BB B5 B5 55 5B B7 B5 AA AA AA AA AA AA 5A B5 4A 55 55 5B B7 AB 55 4A
DPCM : 4A 4A A4 4A 55 55 B5 54 A4 08 44 4A B5 B5 B5 B5 B5 B5 B5 B5 AA AA AA AA AA AA 55 55 55 55 B5 B5
DPCM : 75 AB AA A4 54 8A A4 4A 55 55 55 A5 48 44 44 AA 5A 5B B5 B5 B5 B5 AB B5 AA AA AA AA AA AA 55 55
DPCM : 55 55 B5 B5 5B B5 4A A5 A4 A4 A4 4A 55 55 55 4A A4 88 44 55 B5 5A AB B5 75 5B 5B B5 AA AA AA AA
DPCM : AA 5A 55 55 55 55 AB 75 5B 55 55 AA A4 A4 A4 4A 55 55 A5 A4 44 A4 A4 54 AB 55 5B 5B 5B 5B 5B B5
DPCM : AA AA AA AA AA 5A 55 55 55 55 5B 5B 5B 55 A5 4A AA A4 A4 4A 55 55 AA 44 8A A4 A4 AA 5A B5 5A 5B
DPCM : 5B 5B 5B B5 AA AA AA AA AA 55 55 55 55 B5 5A 5B AB 55 AA 54 4A A5 A4 4A 55 A5 4A 4A A4 48 A5 AA
DPCM : 55 AB 55 BB B5 B5 5A B5 AA AA AA AA AA 55 55 55 55 AB B5 5A AB AA 4A A5 4A AA A4 4A 55 A5 A4 A4
DPCM : 48 4A 55 55 55 AB B5 B5 B5 B5 5A B5 AA AA AA AA 5A 55 55 55 55 AB B5 55 AB AA 4A A5 54 4A A5 4A
DPCM : 55 AA A4 48 4A 4A 55 55 B5 5A AB 5B AB B5 55 B5 AA AA AA AA 55 55 55 55 B5 5A B5 55 AB 4A 55 AA
DPCM : A4 4A A5 4A A5 4A 4A 4A 54 4A 55 B5 AA 55 5B 5B 5B AB 55 B5 AA AA AA AA 55 55 55 55 AB 5A AB 55
DPCM : B5 54 A5 4A A5 54 AA 4A A5 54 8A A4 A4 AA AA AA AA B5 B5 55 5B AB 55 B5 AA AA AA 5A 55 55 55 55
DPCM : AB 55 AB 55 55 55 AA 54 AA 54 AA 54 AA A4 A4 A4 A4 AA AA AA 5A B5 B5 B5 55 AB 55 B5 AA AA AA 5A
DPCM : 55 55 55 B5 AA B5 5A 55 55 A5 AA 54 AA 54 AA 54 4A 4A 4A AA A4 AA AA AA 55 5B 5B B5 B5 5A 55 B5
DPCM : AA
DPCMDEF   3  1009 "ripped03.dmc"
DPCM : BB 0A 50 FA F0 FF 00 F4 FF F0 0F 00 00 00 F0 FF FF 0A 0A F0 FF 8F 0B 08 FB 4B A0 AF 8B 7F 00 40
DPCM : FF F7 FF 80 50 B8 F0 0F 00 F4 4F AF 0F 00 00 00 F0 FF FF 40 0B F0 FF 5F 0F 80 FF 05 F0 4F 07 FF
DPCM : 00 B0 FF FF FF 00 00 4A F0 0F 00 FF 40 FF 05 00 80 00 F0 FF FF B0 00 FF FF 57 0F 80 7F 0A F4 AB
DPCM : F4 05 05 F0 FF FF 0F 0A A0 0A 5F 80 50 FF 05 FF 00 00 00 00 FF FF 4F B4 00 FF FF 77 0A 50 7F 08
DPCM : 7B AB F0 0F 00 FA FF FF 0F 00 A8 04 FF 00 70 FF 40 7F 00 00 00 00 FF FF AF 8A 50 FF FF 5B 00 F4
DPCM : AF 40 77 4B F8 4F 00 FA FF FF 0F 00 A0 00 FF 08 F0 7F 50 4F 00 00 00 40 FF FF AF 84 B4 FF FF 45
DPCM : 80 7A 4F A8 5B 8B FA 0B 00 F7 FF FF 07 00 A0 50 BF 00 FA 4F 74 A5 00 00 00 B0 FF FF 8B 88 F4 FF
DPCM : 7F 8A 80 F5 A5 54 5B A5 7B 0A A0 FB FF FF 08 00 44 74 A7 80 FB A5 5A 8A 00 00 00 F4 FF FF 8A 88
DPCM : FA FF 77 0A 48 BB 4A B5 5A 5A B7 84 50 F7 FF 7F 04 80 88 BA 4A A8 75 AB 55 0A 00 00 40 F5 FF FF
DPCM : 88 48 7B FF B7 84 A8 55 55 B5 A5 B5 55 8A A8 FB FF AF 80 80 A0 B5 A4 58 5B B5 A5 04 00 08 A0 FB
DPCM : FF 57 8A A8 F5 7F 57 8A 54 55 55 AB AA B5 55 A4 54 7F FF AB 08 84 48 55 4A 55 5B B5 4A 84 00 80
DPCM : 50 F7 FF 5B 8A 54 77 7F AB A4 54 55 55 AB 5A 5B A5 A4 B4 7B FF 55 44 88 48 A5 54 B5 AA B5 4A 88
DPCM : 00 80 58 F7 F7 B5 A4 AA BB BB 55 A5 4A 55 55 AB 5A AB 4A AA 5A F7 77 AB 88 88 A4 A4 54 B5 5A B5
DPCM : A4 40 08 80 B4 7B 77 57 A5 BA 75 B7 55 AA AA 54 B5 AA 5A AB 4A AA B5 7B 77 55 A4 88 A4 A4 54 55
DPCM : AB 55 4A 84 80 40 55 77 77 5B 55 B5 5B B7 AA AA AA 54 AB AA 55 AB 54 5A 75 77 B7 AA 44 8A A4 A4
DPCM : 54 55 AB A5 8A 08 88 A0 5A BB 75 AB 5A 5B B7 B5 AA AA AA AA AA AA 55 AB 54 55 5B 77 57 55 4A A4
DPCM : A4 A4 54 B5 AA AA 44 44 08 4A B5 B5 B5 B5 B5 B5 B5 55 AB AA AA AA AA 5A 55 4B 55 55 BB 5B 5B A5
DPCM : A4 A4 A4 A4 4A B5 AA 4A 8A 88 40 4A AB B5 B5 B5 B5 B5 B5 55 B5 AA AA AA AA 5A 55 55 55 B5 B5 5B
DPCM : 5B AA A4 A4 A4 A4 4A B5 AA 54 44 44 A4 A4 55 5B AB B5 B5 5B AB 55 B5 AA AA AA AA 5A 55 55 55 B5
DPCM : 75 5B AB 4A A5 A4 A4 A4 AA AA 4A A5 48 44 A4 54 B5 5A AB B5 75 5B AB 55 B5 AA AA AA AA 55 55 55
DPCM : 55 5B 5B 5B B5 54 4A A5 A4 A4 AA AA 54 4A 8A 88 A4 AA AA 55 5B 5B 5B 5B AB 55 B5 AA AA AA AA 55
DPCM : 55 55 55 5B 5B 5B 55 A5 4A 4A A5 A4 AA 4A A5 8A 44 8A A4 AA 5A B5 5A 5B 5B 5B AB 55 B5 AA AA AA
DPCM : AA 55 55 55 B5 5A 5B 5B 55 AA 54 4A AA A4 AA 4A A5 A4 48 A4 54 AA 55 B5 5A 5B B7 55 AB 55 B5 AA
DPCM : AA AA 5A 55 55 55 B5 B5 55 AB AA AA A4 4A AA A4 AA 54 4A 4A 8A A4 54 55 55 AB B5 B5 B5 B5 5A 55
DPCM : B5 AA AA AA 5A 55 55 55 AB B5 B5 AA AA 4A A5 54 4A A5 AA 54 4A 8A A4 A4 54 55 B5 AA B5 B5 B5 B5
DPCM : 5A 55 B5 AA AA AA 55 55 55 B5 5A B5 B5 AA AA 54 AA A4 4A A5 AA A4 A4 A4 44 A5 4A 55 AB 5A 5B 5B
DPCM : AB B5 5A 55 B5 AA AA AA 55 55 55 B5 5A AB 55 AB 4A 55 4A A5 4A A5 4A A5 A4 44 4A A5 AA AA AA 55
DPCM : 5B 5B 5B B5 5A 55 B5 AA AA 5A 55 55 55 AB 55 AB 55 55 55 A5 4A A5 4A A5 4A 4A 4A 4A 4A AA AA AA
DPCM : AA B5 B5 55 5B AB 5A 55 B5 AA AA 5A 55 55 55 AB 55 5B 55 55 55 AA 54 AA 54 AA 54 4A 4A 4A 4A A5
DPCM : AA AA 5A B5 B5 B5 5A AB 5A 55 B5 AA AA 55 55 55 B5 AA B5 5A 55 55 55 AA 54 AA 54 AA A4 8A A4 A4
DPCM : 54 A5 AA AA 55 5B AB B5 55 AB 55 55 AB AA AA 55 55 55 B5 5A B5 5A 55 55 A5 4A A5 4A 55 4A A5 A4
DPCM : A4 A4 54 A5 AA 5A B5 5A 5B AB B5 AA 55 5A A5 A5 55
DPCMDEF   4  1009 "ripped00.dmc"
DPCM : BB 04 58 5B FB 0F 40 FF 7F F5 00 00 00 00 FF FF 0A 05 F0 FF 4F 0F A0 BF 04 F5 BA F0 0F 00 F7 F7
DPCM : FF 00 58 04 FF 00 50 FF F4 57 00 00 00 00 FF FF A5 0A FA FF 77 00 F8 7F 00 FF 4A BF 00 A0 FF FF
DPCM : FF 00 40 05 FF 00 F0 0F F8 8F 00 00 00 F0 FF BF 50 00 FF FF F7 00 F8 AF 80 BF 0A FF 00 B0 FF FF
DPCM : 0F 04 54 0A FF 00 F0 5F 70 0F 00 00 00 F0 FF BF A8 40 FF FF 7B 00 F4 8F B0 B7 04 FF 00 F0 FF FF
DPCM : 0F 00 55 08 FF 00 F0 5F F0 0F 00 00 00 FF FF 85 44 B0 FF FF 55 00 FB 0B 74 B7 88 FF 00 F0 FF FF
DPCM : 8F 00 A0 40 FF 00 F4 8F F4 0A 00 00 00 FF FF 0B 8A 58 FF FF 0B 40 F7 85 5A B7 70 BF 00 F0 FF FF
DPCM : 0F 00 48 58 AF 00 F7 8B B5 04 00 00 00 FF FF 8F 08 7A FF FF 84 A0 BB 8A BA 55 BA A7 00 F5 FF FF
DPCM : 0B 00 40 7A 8B 40 7F 55 4B 04 00 00 A0 FF FF 8B 40 F5 FF BF 08 54 BB 54 B5 A5 75 4B 40 7B FF FF
DPCM : 05 00 44 75 45 54 B7 55 4B 08 00 00 B0 FF FF 8A A0 FA FF 57 0A 54 5B 55 B5 AA 5B A5 A0 75 FF FF
DPCM : 84 00 44 B5 8A B4 B5 5A A5 00 00 00 F4 FF BF 8A 88 F5 FF AB 44 AA 5A 55 AB 5A 5B 4A 4A BB FF 5F
DPCM : 0A 08 44 AB A4 AA 55 5B 45 08 00 00 75 FF BF A4 A8 F5 77 57 45 55 55 55 AB 5A 5B 4A AA 75 FF B7
DPCM : 44 08 A4 4A 4A AB 55 5B 8A 80 00 80 7A 7F 77 A5 54 7B 77 57 4A 55 55 55 AB 5A AB A4 AA F5 F7 5B
DPCM : 8A 08 4A 4A AA AA 55 AB 44 04 08 40 BB 7B B7 AA B4 75 77 AB AA 54 55 55 AB 55 AB A4 5A BB F7 B5
DPCM : 44 8A 48 4A AA AA 55 AB 88 08 80 A0 75 77 BB AA 5A BB 5B B5 AA 54 55 55 AB B5 AA A4 55 77 F7 55
DPCM : 4A A4 44 4A AA AA 55 55 8A 80 80 48 5B 77 5B B5 BA B5 5B 55 55 55 55 B5 AA 55 4B 55 B5 75 5F AB
DPCM : A4 A4 44 4A AA AA 55 A5 44 84 80 A4 B5 75 5B B5 B5 75 AB 55 55 55 55 B5 AA 55 55 55 B5 BB 75 55
DPCM : A5 A4 44 4A AA AA 55 A5 88 08 44 54 5B 5B AB B5 75 5B AB 55 55 55 55 B5 5A 55 55 55 5B BB 5B 55
DPCM : 4A AA 48 4A A5 AA AA 4A A4 40 44 AA 5A 5B AB B5 5B 5B AB 55 55 55 55 B5 5A 55 55 55 5B B7 B5 A5
DPCM : 4A 4A 4A 4A A5 AA AA A4 44 84 44 55 B5 5A AB 75 5B 5B AB 55 55 55 55 AB 5A 55 55 55 5B B7 B5 AA
DPCM : 54 4A 4A 4A A5 AA AA A4 88 88 A4 54 AB 5A 5B 5B 5B 5B AB 55 55 55 B5 AA 5A 55 55 B5 B5 B5 B5 4A
DPCM : A5 4A 4A 4A 55 AA 4A 4A A4 88 A4 AA AA 55 5B 5B B7 55 AB 55 55 55 B5 AA 55 55 55 B5 B5 B5 55 55
DPCM : A5 54 4A 4A 55 AA 4A 8A 44 A4 A4 AA 5A 55 5B BB B5 55 AB 55 55 55 AB AA 55 55 55 AB B5 B5 55 55
DPCM : AA A4 4A 4A 55 AA A4 A4 48 A4 54 55 55 B5 B5 B5 B5 55 AB 55 55 55 AB AA 55 55 55 5B 5B B5 55 A5
DPCM : 4A A5 54 4A 55 AA A4 44 8A A4 54 55 55 AB B5 B5 B5 55 AB 55 55 B5 AA 5A 55 55 B5 5A 5B B5 AA AA
DPCM : 4A A5 54 4A 55 4A 45 4A A4 A4 54 55 55 5B B5 5B B5 B5 AA 55 55 B5 AA 5A 55 55 B5 5A 5B B5 AA AA
DPCM : 54 AA A4 4A A5 4A 4A 8A A4 A4 4A 55 B5 5A 5B 5B AB B5 AA 55 55 B5 AA 5A 55 55 AB 55 5B B5 AA AA
DPCM : 54 4A A5 4A A5 4A 8A A4 48 A5 AA 54 AB 55 5B 5B 5B B5 AA 55 55 AB AA 5A 55 55 AB B5 5A B5 AA 4A
DPCM : A5 4A A5 4A A5 A4 A4 44 4A A5 AA AA AA B5 B5 55 5B B5 AA 55 55 AB AA 55 55 55 AB B5 5A B5 AA 54
DPCM : A5 4A AA 54 AA A4 44 4A 4A A5 AA AA 5A B5 B5 B5 5A B5 5A 55 55 AB AA 55 55 B5 5A B5 5A 55 55 55
DPCM : AA 54 AA 54 4A 4A 4A 4A 4A A5 AA AA 5A 5B AB B5 55 AB 5A 55 B5 AA 5A 55 55 B5 5A B5 55 55 55 A5
DPCM : AA 54 AA 54 4A 4A 4A A4 4A A5 AA AA 55 5B 5B B5 55 AB 5A 55 B5 AA 5A 55 55 AB 5A AB 55 55 55 A5
DPCM : 4A A5 4A A5 54 8A A4 A4 4A 5A A5 5A AA 5A AA 55 A5
DPCMDEF   5   993 "ripped01.dmc"
DPCM : 75 0B 50 5B FF 00 F0 FF F4 4F 00 80 00 F0 FF 8F 88 B0 FF 8F 0F A0 BF 00 7F 45 FF 00 B0 FF FF 0F
DPCM : 00 A5 F0 0F 00 FF F4 4B 00 00 00 F0 FF 8F 48 50 FF FF 0F 80 FF 08 FB 54 BF 00 B0 FF FF 0F 00 AB
DPCM : F0 0F 00 FF 0A 7F 00 00 00 F0 FF 4B A8 80 FF FF 0B 40 FF 05 F5 55 F0 0F 40 FF FF 0F 0A AA F0 0A
DPCM : 00 FF 0F F5 00 00 00 F0 FF 4F A8 80 FF FF 5B 00 F7 05 FA 55 F0 0F 00 FF FF FF 00 B0 00 FF 00 FA
DPCM : 0F F4 0A 00 00 70 FF AF A0 80 F7 FF 5F 00 F5 87 78 57 B8 BF 00 F4 FF FF 0A 00 0A F5 0A F0 4F 7A
DPCM : 05 00 00 00 FF FF 8A 08 FB FF 5F 00 F5 47 B4 5B AA BF 00 F8 FF FF 0B 00 08 F5 05 F0 AF B4 8A 00
DPCM : 00 00 FF FF 0A 84 FA FF 5F 08 74 4F AA 5B AA 77 08 78 FF FF 0F 00 08 F5 05 B8 B7 B4 8A 00 00 00
DPCM : F4 FF 5F 08 7A FF 7F 84 58 5B A5 B5 AA BB 04 B4 F7 FF 4F 00 88 74 8B B0 5B B5 4A 00 00 00 FA FF
DPCM : AF 40 B4 FF BF 8A 50 AB 5A B5 AA 5B 85 A8 FB FF 4F 08 40 AA A5 A8 B5 55 4B 08 00 00 78 FF BF 84
DPCM : A8 F7 7F 8B 48 AB AA B5 AA 75 4A 54 7B FF 5F 84 80 A8 A5 A8 B5 5A 4B 04 00 00 74 FF 5F 45 4A F7
DPCM : 77 A7 A4 AA AA 55 AB B5 4A 4A BB F7 BF 44 84 48 AA A4 55 AB 55 84 00 00 54 7F BF A5 A4 75 BF AB
DPCM : 54 A5 AA 55 B5 B5 4A AA 5A 7F BF 4A 44 A4 A4 A4 55 B5 55 44 08 00 A8 F5 BB AB 54 5B 77 57 55 55
DPCM : AA 55 55 5B 4B A5 5A F7 77 4B 8A 48 8A 54 55 B5 AA 8A 80 00 48 75 77 57 55 5B B7 5B 55 55 55 55
DPCM : 55 5B 55 A5 5A 77 F7 55 8A A4 48 4A 55 55 AB A4 08 08 88 5A B7 5B 55 5B BB B5 5A 55 55 55 55 5B
DPCM : 55 55 5A BB BB AB 4A A4 A4 44 55 55 B5 A4 88 80 40 55 BB B5 5A 5B BB B5 AA 55 55 55 55 AB 55 55
DPCM : 55 BB 5B 57 55 4A 8A A4 54 55 55 A5 84 08 48 AA 5A 5B 5B 5B 5B 5B AB 5A 55 55 55 AB 55 55 55 5B
DPCM : 77 5B A5 4A 4A 4A 4A 55 55 A5 44 84 88 54 55 5B AB B5 5B 5B AB AA 55 55 55 AB 5A 55 55 5B BB B5
DPCM : AA 4A 4A 4A AA 54 55 A5 44 44 44 4A B5 5A B5 B5 75 5B B5 AA 55 55 55 B5 5A 55 55 B5 5B 57 AB 4A
DPCM : AA A4 A4 54 55 A5 44 0A A4 A8 AA 5A B5 B5 B5 B5 B5 AA 55 55 55 B5 5A 55 55 B5 75 5B B5 54 A5 A4
DPCM : A4 4A 55 A5 A4 88 88 A4 AA 5A B5 5A B7 B5 55 AB 5A 55 55 B5 AA 55 55 B5 B5 B5 55 55 AA A4 4A AA
DPCM : 54 A5 A4 88 44 4A A5 55 55 5B BB B5 5A AB AA 55 55 B5 AA 55 55 B5 B5 B5 55 55 AA 54 4A AA 54 A5
DPCM : A4 44 A4 48 55 55 55 5B 5B 5B 5B B5 AA 55 55 B5 AA 55 55 B5 B5 B5 5A 55 AA 54 4A A5 4A A5 A4 44
DPCM : A4 A4 54 55 55 5B 5B 5B 5B B5 AA 55 55 B5 AA 5A 55 B5 5A 5B AB AA AA 54 4A A5 4A A5 A4 44 8A A4
DPCM : 4A 55 B5 5A 5B 5B AB 55 AB 5A 55 B5 AA 5A 55 B5 5A 5B AB AA AA 54 AA A4 4A A5 8A A4 48 4A AA 4A
DPCM : B5 5A 5B 5B B5 55 AB 5A 55 55 AB 5A 55 B5 5A AB B5 AA AA 54 AA 54 AA A4 4A A4 44 4A AA AA AA 5A
DPCM : 5B AB B5 55 AB 5A 55 55 AB 5A 55 55 5B B5 55 AB AA 54 AA 54 AA 54 4A 8A 44 4A A5 AA AA 5A B5 B5
DPCM : B5 5A B5 AA 55 55 AB 5A 55 55 5B B5 55 B5 AA 54 AA 54 AA 54 4A 8A A4 A4 54 AA AA 5A B5 B5 B5 5A
DPCM : B5 AA 55 55 AB 5A 55 55 AB B5 5A 55 55 55 AA 54 AA 54 4A 4A A4 A4 54 AA AA 5A B5 B5 B5 5A B5 AA
DPCM : 55 55 AB AA 55 55 AB B5 5A 55 55 55 AA 54 AA 54 4A 4A 8A A4 4A A5 AA 5A AB B5 55 5B B5 AA 5A 55
DPCM : AB AA 55 55 AB 55 AB 55 55 55 AA 54 A5 4A 4A 4A 4A 54 4A 55 AA 55 AB B5 55 5B 55 AB 5A 55 AB AA
DPCM : 55 55 AB 55 AB 55 55 55 AA 54 A5 4A 4A 4A 4A 4A 4A 55 55 55 AB B5 55 AB 55 AB 5A 55 AB AA 55 55
DPCM : AB
DPCMDEF   6  1009 "ripped04.dmc"
DPCM : B5 0B 50 5B FF 00 F8 4F FF 0F 00 00 00 FF BF A0 00 FF FF 0B 40 FF 00 BF 05 FF 00 FA FF FF 00 A8
DPCM : 08 FF 00 FB 0A 5F 00 00 00 F0 FF 45 0A F4 FF FF 00 FB 05 FA A5 BF 00 F0 FF FF 0F 00 05 FF 00 AF
DPCM : 0F AF 00 00 00 F0 FF 0A 0A 70 FF FF 07 F0 A7 B0 57 F4 0F 00 FF FF 0F 0A A5 F0 0F F0 05 74 8F 00
DPCM : 00 00 FF 5F A8 00 FF FF B7 00 7F 08 7F 85 FF 00 F0 FF FF 80 B0 04 F7 00 F5 0F FB 00 00 00 F0 FF
DPCM : 85 04 FA FF BF 00 FA 07 7A A7 F8 0F 00 FF FF 0F 08 8B F0 0F 50 BF 70 0B 00 00 B0 FF 0F 88 50 FF
DPCM : FF 0B 50 BF 50 77 4A FF 00 F8 FF FF 04 40 44 BF 00 FF A4 55 00 00 00 BF FF 84 40 FB FF 4F 80 7B
DPCM : 45 5B 4B FB 0A 50 FF FF 8F 00 88 FA 04 F4 A7 55 0A 00 00 40 FF 7F 08 74 FF FF 08 B4 AB AA B5 5A
DPCM : 4F 40 FB FF FF 00 80 58 47 A8 B7 5A 45 00 00 00 F7 FF 45 A0 FB FF 8B A0 B5 AA 55 AB 5B 0A 5A FF
DPCM : FF 0B 80 A0 B5 48 75 B5 A5 08 00 00 F0 FF 57 84 74 FF 5F 8A 54 B5 5A 55 BB 4A 54 7B FF 5F 84 80
DPCM : 54 A5 B4 5A AB 44 00 00 A0 F7 7F 45 A4 F7 77 4B 4A 55 AB 55 5B AB A4 B4 F7 FF 8A 08 A8 A4 54 AB
DPCM : B5 4A 08 00 00 F5 F7 AB A4 BA 7B 57 A5 AA AA 5A B5 B5 A4 AA F5 7F 57 44 44 4A 4A B5 5A 55 0A 08
DPCM : 00 A8 77 5F 55 5A 77 B7 55 AA AA AA 55 5B 4B AA BA FB BB 4A 44 A4 A4 54 AB 55 45 04 08 40 75 77
DPCM : 5B 55 5B 77 AB AA AA AA 55 B5 55 A5 5A 7B BF 55 4A A4 44 4A B5 5A A5 88 00 08 AA 5B B7 AA B5 5B
DPCM : 57 AB AA AA 5A 55 5B 55 AA 75 F7 B5 4A 4A 4A A4 4A AB AA 8A 80 80 48 B5 75 B5 B5 B5 5B B5 AA AA
DPCM : AA 55 AB 55 A5 B5 75 5F AB A4 A4 44 AA AA AA 4A 44 08 88 AA B5 55 5B 5B B7 55 AB AA AA 55 B5 5A
DPCM : 55 5A BB 5B 57 55 4A 4A 54 AA AA 4A 8A 08 84 A4 55 AB B5 B5 5B 5B 55 AB AA 5A 55 AB 55 55 B5 BB
DPCM : B5 55 4A A5 A4 A4 AA 4A A5 88 80 A4 54 AB 5A 5B BB B5 55 B5 AA 5A 55 B5 5A 55 55 B7 5B AB AA 54
DPCM : 4A 4A AA AA A4 44 44 48 AA AA 5A B5 75 5B 5B 55 AB AA 55 B5 AA 55 55 5B BB B5 AA 4A 4A AA A4 AA
DPCM : 54 8A 84 88 A4 AA AA 55 BB B5 B5 55 B5 AA 5A 55 AB 5A 55 B5 75 5B AB 4A A5 A4 4A AA 4A 4A 8A 88
DPCM : 48 A5 AA 55 5B 5B 5B 5B 55 AB AA 55 B5 AA 55 55 BB B5 55 55 A5 4A AA A4 AA A4 44 A4 88 54 55 55
DPCM : B5 B5 B5 B5 55 AB AA 5A 55 AB 5A 55 5B 5B 5B 55 55 AA A4 54 AA 54 8A 44 A4 A8 54 55 B5 5A B7 55
DPCM : 5B B5 AA 5A 55 AB AA 55 B5 B5 B5 55 55 AA 54 4A A5 4A 4A 8A 44 8A 4A 55 55 5B 5B 5B AB 55 AB AA
DPCM : 55 B5 AA 5A 55 5B 5B AB 55 AA 4A AA 54 AA A4 44 8A 44 A5 4A 55 AB B5 B5 B5 5A B5 AA 5A 55 AB 5A
DPCM : 55 AB B5 B5 AA AA 4A A5 4A A5 54 8A 44 8A 54 AA 54 B5 55 5B 5B AB 55 AB 5A 55 B5 AA 55 B5 B5 5A
DPCM : AB AA AA 54 AA A4 4A 4A 8A 44 4A A5 AA B4 5A 5B 5B B5 5A B5 AA 55 B5 AA 5A 55 5B 5B B5 AA AA 54
DPCM : AA 54 AA A4 A4 48 A4 54 AA AA AA B5 B5 55 5B 55 AB 5A 55 AB 5A 55 AB B5 55 AB AA 4A A5 4A A5 4A
DPCM : 8A A4 48 4A A5 AA AA B5 55 5B AB 55 AB AA 55 AB AA 55 B5 5A 5B 55 AB 4A 55 AA 54 4A 4A 4A A4 A4
DPCM : 54 AA AA 55 5B AB B5 5A B5 AA 55 B5 AA 5A 55 5B B5 55 B5 4A 55 AA 54 AA A4 A4 48 4A 4A A5 AA 5A
DPCM : AB B5 55 AB 55 AB 5A 55 AB 5A 55 AB B5 5A 55 55 55 AA 4A A5 54 8A A4 44 AA 54 AA 5A B5 B5 5A AB
DPCM : 55 B5 5A 55 AB AA 55 B5 5A AB 55 55 55 A5 4A A5 4A 4A 4A A4 A4 4A A5 5A B5 5A 5B B5 5A B5 AA 55
DPCM : B5 AA 55 55 5B B5 5A 55 55 A5 AA 54 AA A4 44 4A 4A AA 54 55 55 5B B5 55 AB 55 AB 5A 55 AB 5A 55
DPCM : AB 55 AB 55 55 A5 AA 54 A5 A4 A4 A4 A4 5A AA A5 55

# DETUNETABLES block

# GROOVES block

# Tracks using default groove:

# INSTRUMENTS block
INST2A03   0    -1  -1  -1  -1   0 "lead2"
INST2A03   1     1   1  -1  -1  -1 "kicknoise"
INST2A03   2     2   2  -1  -1  -1 "snarenoise"
INST2A03   3    -1  -1  -1  -1  -1 "dpcm drums"
KEYDPCM   3   3   0     0  15   0     0  -1
KEYDPCM   3   3   1     1  15   0     0  -1
INST2A03   4     3   3  -1  -1  -1 "hat"
INST2A03   5    -1  -1  -1  -1   1 "lead"
INST2A03   6    -1  -1  -1  -1  -1 "dpcm bass"
KEYDPCM   6   2   3     5   8   0     0  -1
KEYDPCM   6   2   6     5   9   0     0  -1
KEYDPCM   6   2   7     4  10   0     0  -1
KEYDPCM   6   2   8     5  10   0     0  -1
KEYDPCM   6   2  11     6  11   0     0  -1
KEYDPCM   6   3   1     5  12   0     0  -1
KEYDPCM   6   3   3     3  13   0     0  -1
KEYDPCM   6   3   4     4  13   0     0  -1
KEYDPCM   6   3   6     6  13   0     0  -1
INST2A03   7    -1  -1  -1  -1  -1 "New instrument"
INST2A03   8    -1  -1  -1  -1   2 "New instrument"
INST2A03   9    -1   4  -1  -1   3 "leadarp1"
INST2A03  10    -1   5  -1  -1   3 "leadarp2"
INST2A03  11    -1   6  -1  -1   3 "leadarp3"
INST2A03  12    -1   7  -1  -1   3 "leadarp4"
INST2A03  13    -1  -1  -1  -1  -1 "New instrument"
INST2A03  14    -1   8  -1  -1   0 "lead2arp1"
INST2A03  15     5   2  -1  -1  -1 "snarenoise"
INST2A03  16    -1  -1  -1  -1  -1 "dpcm bass2"
KEYDPCM  16   2   8     5   4   0     0  -1
KEYDPCM  16   2  11     4   6   0     0  -1
KEYDPCM  16   3   1     5   7   0     0  -1
KEYDPCM  16   3   4     6   8   0     0  -1
KEYDPCM  16   3   6     5   9   0     0  -1
INST2A03  17     6   1  -1  -1  -1 "kicknoise"
INST2A03  18     8   3  -1  -1  -1 "hat"
INST2A03  19    -1   9  -1  -1   0 "lead2.1"
INST2A03  20    -1  10  -1  -1   0 "lead2.1 arp1"
INST2A03  21     9  11  -1  -1  -1 "kicktri"
INST2A03  22    10  12  -1  -1  -1 "snatrisus"
INST2A03  23    -1  13  -1  -1   0 "lead2.1 arp2"
INST2A03  24    11  14  -1  -1   0 "lead2.1 arp3"
INST2A03  25    -1  -1  -1  -1  -1 "New instrument"
INST2A03  26    12  16  -1  -1   4 "lead3"
INST2A03  27    -1  20  -1  -1   1 "lead1arp1"
INST2A03  28    -1  21  -1  -1   1 "lead1arp2"
INST2A03  29    -1  22  -1  -1   1 "lead1arp3"
INST2A03  30    -1  23  -1  -1   1 "lead1arp4"
INST2A03  31    -1  24  -1  -1   1 "lead1arp5"
INST2A03  32    -1  25  -1  -1   6 "elec guitar"
INST2A03  33    -1  26  -1  -1   1 "lead1arp6"
INST2A03  34    -1  27  -1  -1   1 "lead1arp7"
INST2A03  35    -1  15  -1  -1   6 "elec guitar2"
INST2A03  36    -1  28  -1  -1   1 "lead1arp8"
INST2A03  37    -1  29  -1  -1   1 "lead1arp9"
INST2A03  38    14  30  -1  -1   6 "elec guitar arp1"
INST2A03  39    14  31  -1  -1   6 "elec guitar arp2"
INST2A03  40    14  32  -1  -1   6 "elec guitar arp3"
INST2A03  44    -1  -1  -1  -1   7 "New instrument"

# track HEADER block
TRACK  64   3 170 "New song"
COLUMNS : 1 1 1 1 1

# track FRAMES block
ORDER 00 : 00 00 00 00 00
ORDER 01 : 01 01 01 00 01
ORDER 02 : 02 02 02 00 00
ORDER 03 : 01 01 01 00 01
ORDER 04 : 03 03 00 00 00
ORDER 05 : 04 04 01 00 01
ORDER 06 : 05 05 02 00 00
ORDER 07 : 06 04 01 00 01
ORDER 08 : 07 06 03 01 02
ORDER 09 : 08 07 04 00 03
ORDER 0A : 09 08 05 00 04
ORDER 0B : 0A 09 06 00 05
ORDER 0C : 0B 08 05 00 04
ORDER 0D : 0C 0A 06 02 06
ORDER 0E : 0D 0B 07 03 07
ORDER 0F : 0E 0C 08 04 08
ORDER 10 : 0F 0B 07 04 07
ORDER 11 : 10 0C 08 04 08
ORDER 12 : 11 0D 09 03 07
ORDER 13 : 12 0E 0A 04 08
ORDER 14 : 13 0D 09 04 07
ORDER 15 : 14 0E 0A 04 08
ORDER 16 : 15 0F 0B 03 07
ORDER 17 : 16 10 0C 04 08
ORDER 18 : 1A 11 0B 04 07
ORDER 19 : 17 12 0C 04 08
ORDER 1A : 18 13 0B 03 07
ORDER 1B : 19 14 0C 04 08
ORDER 1C : 1B 15 0B 04 07
ORDER 1D : 1C 14 0D 05 09
ORDER 1E : 1D 16 0E 01 0A
ORDER 1F : 1E 17 0E 06 0B
ORDER 20 : 1F 18 0F 07 0C
ORDER 21 : 20 19 10 08 0D
ORDER 22 : 21 1A 11 09 0E

# track PATTERNS block
PATTERN 00
ROW 00 : G#3 00 8 400 : G#2 05 7 400 : D#3 05 . ... : 7-# 01 B ... : C-3 03 . Y00
ROW 01 : ... .. . ... : ... .. . ... : ... .. . ... : ... .. . ... : ... .. . ...
ROW 02 : ... .. . ... : ... .. . ... : G#2 05 . ... : ... .. . ... : ... .. . ...
ROW 03 : ... .. . ... : ... .. . ... : ... .. . ... : ... .. . ... : ... .. . ...
ROW 04 : ... .. . ... : --- .. . ... : --- .. . ... : 4-# 04 . ... : G#2 06 . ...
ROW 05 : ... .. . ... : ... .. . ... : ... .. . ... : ... .. . ... : ... .. . ...
ROW 06 : ... .. . ... : ... .. . ... : ... .. . ... : ... .. . ... : ... .. . ...
ROW 07 : ... .. . ... : ... .. . ... : ... .. . ... : ... .. . ... : ... .. . ...
ROW 08 : ... .. 5 RCC : G#2 05 . ... : D#3 05 . ... : 7-# 02 . ... : C#3 03 . ...
ROW 09 : ... .. . ... : ... .. . ... : ... .. . ... : ... .. . ... : ... .. . ...
ROW 0A : ... .. 4 ... : ... .. . ... : G#2 05 . ... : ... .. . ... : ... .. . ...
ROW 0B : ... .. . ... : ... .. . ... : ... .. . ... : ... .. . ... : ... .. . ...
ROW 0C : ... .. 3 ... : --- .. . ... : --- .. . ... : 4-# 04 . ... : G#2 06 . ...
ROW 0D : ... .. . ... : ... .. . ... : ... .. . ... : ... .. . ... : ... .. . ...
ROW 0E : ... .. 2 ... : ... .. . ... : ... .. . ... : ... .. . ... : ... .. . ...
ROW 0F : ... .. . ... : ... .. . ... : ... .. . ... : ... .. . ... : ... .. . ...
ROW 10 : D#2 05 7 ... : B-2 05 . ... : B-2 05 . ... : 7-# 01 . ... : C-3 03 . ...
ROW 11 : ... .. . ... : ... .. . ... : ... .. . ... : ... .. . ... : ... .. . ...
ROW 12 : ... .. . ... : ... .. . ... : ... .. . ... : ... .. . ... : ... .. . ...
ROW 13 : ... .. . ... : ... .. . ... : ... .. . ... : ... .. . ... : ... .. . ...
ROW 14 : --- .. . ... : --- .. . ... : --- .. . ... : 4-# 04 . ... : B-2 06 . ...
ROW 15 : ... .. . ... : ... .. . ... : ... .. . ... : ... .. . ... : ... .. . ...
ROW 16 : ... .. . ... : ... .. . ... : ... .. . ... : ... .. . ... : ... .. . ...
ROW 17 : ... .. . ... : ... .. . ... : ... .. . ... : ... .. . ... : ... .. . ...
ROW 18 : D#2 05 . ... : B-2 05 . ... : B-2 05 . ... : 7-# 02 . ... : C#3 03 . ...
ROW 19 : ... .. . ... : ... .. . ... : ... .. . ... : ... .. . ... : ... .. . ...
ROW 1A : ... .. . ... : ... .. . ... : ... .. . ... : ... .. . ... : ... .. . ...
ROW 1B : ... .. . S02 : ... .. . S02 : ... .. . S02 : ... .. . ... : ... .. . ...
ROW 1C : D#2 05 . ... : G#2 05 . ... : G#2 05 . ... : 4-# 04 . ... : G#2 06 . ...
ROW 1D : ... .. . ... : ... .. . ... : ... .. . ... : ... .. . ... : ... .. . ...
ROW 1E : ... .. . ... : ... .. . ... : ... .. . ... : ... .. . ... : ... .. . ...
ROW 1F : ... .. . ... : ... .. . ... : ... .. . ... : ... .. . ... : ... .. . ...
ROW 20 : --- .. . ... : --- .. . ... : --- .. . ... : 7-# 01 . ... : C-3 03 . ...
ROW 21 : ... .. . ... : ... .. . ... : ... .. . ... : ... .. . ... : ... .. . ...
ROW 22 : ... .. . ... : ... .. . ... : ... .. . ... : ... .. . ... : ... .. . ...
ROW 23 : ... .. . ... : ... .. . ... : ... .. . ... : ... .. . ... : ... .. . ...
ROW 24 : ... .. . ... : G#2 05 . ... : ... .. . ... : 4-# 04 . ... : G#2 06 . ...
ROW 25 : ... .. . ... : ... .. . ... : ... .. . ... : ... .. . ... : ... .. . ...
ROW 26 : ... .. . ... : ... .. . ... : ... .. . ... : ... .. . ... : ... .. . ...
ROW 27 : ... .. . ... : ... .. . S02 : ... .. . ... : ... .. . ... : ... .. . ...
ROW 28 : B-1 05 . ... : D#2 05 . ... : B-2 05 . ... : 7-# 02 . ... : C#3 03 . ...
ROW 29 : ... .. . ... : ... .. . ... : ... .. . ... : ... .. . ... : ... .. . ...
ROW 2A : ... .. . ... : ... .. . ... : ... .. . ... : ... .. . ... : ... .. . ...
ROW 2B : ... .. . ... : ... .. . ... : ... .. . ... : ... .. . ... : ... .. . ...
ROW 2C : --- .. . ... : --- .. . ... : --- .. . ... : 4-# 04 . ... : D#2 06 . ...
ROW 2D : ... .. . ... : ... .. . ... : ... .. . ... : ... .. . ... : ... .. . ...
ROW 2E : ... .. . ... : ... .. . ... : ... .. . ... : ... .. . ... : ... .. . ...
ROW 2F : ... .. . ... : ... .. . ... : ... .. . ... : ... .. . ... : ... .. . ...
ROW 30 : D#2 05 . ... : F#2 05 . ... : A#2 05 . ... : 7-# 01 . ... : C-3 03 . ...
ROW 31 : ... .. . ... : ... .. . ... : ... .. . ... : ... .. . ... : ... .. . ...
ROW 32 : ... .. . ... : ... .. . ... : ... .. . ... : ... .. . ... : ... .. . ...
ROW 33 : ... .. . ... : ... .. . ... : ... .. . ... : ... .. . ... : ... .. . ...
ROW 34 : --- .. . ... : --- .. . ... : --- .. . ... : 4-# 04 . ... : F#2 06 . ...
ROW 35 : ... .. . ... : ... .. . ... : ... .. . ... : ... .. . ... : ... .. . ...
ROW 36 : ... .. . ... : ... .. . ... : ... .. . ... : ... .. . ... : ... .. . ...
ROW 37 : ... .. . ... : ... .. . ... : ... .. . ... : ... .. . ... : ... .. . ...
ROW 38 : D#2 05 . ... : F#2 05 . ... : A#2 05 . ... : 7-# 02 . ... : C#3 03 . ...
ROW 39 : ... .. . ... : ... .. . ... : ... .. . ... : ... .. . ... : ... .. . ...
ROW 3A : ... .. . ... : ... .. . ... : ... .. . ... : ... .. . ... : ... .. . ...
ROW 3B : ... .. . ... : ... .. . ... : ... .. . ... : ... .. . ... : ... .. . ...
ROW 3C : --- .. . ... : --- .. . ... : --- .. . ... : 4-# 04 . ... : F#2 06 . ...
ROW 3D : ... .. . ... : ... .. . ... : ... .. . ... : ... .. . ... : ... .. . ...
ROW 3E : ... .. . ... : ... .. . ... : ... .. . ... : ... .. . ... : ... .. . ...
ROW 3F : ... .. . ... : ... .. . ... : ... .. . ... : ... .. . ... : ... .. . ...
PATTERN 01
ROW 00 : D#2 05 7 ... : G#2 05 7 ... : G#2 05 . ... : B-# 0D A ... : C-3 03 . ...
ROW 01 : ... .. . ... : ... .. . ... : ... .. . ... : ... .. 8 ... : ... .. . ...
ROW 02 : ... .. . ... : ... .. . ... : ... .. . ... : ... .. 6 ... : ... .. . ...
ROW 03 : ... .. . ... : ... .. . ... : ... .. . ... : ... .. 4 ... : ... .. . ...
ROW 04 : --- .. . ... : --- .. . ... : --- .. . ... : B-# 04 B ... : G#2 06 . ...
ROW 05 : ... .. . ... : ... .. . ... : ... .. . ... : ... .. . ... : ... .. . ...
ROW 06 : ... .. . ... : ... .. . ... : ... .. . ... : ... .. . ... : ... .. . ...
ROW 07 : ... .. . ... : ... .. . ... : ... .. . ... : ... .. . ... : ... .. . ...
ROW 08 : D#2 05 . ... : G#2 05 . ... : G#2 05 . ... : 7-# 02 . ... : C#3 03 . ...
ROW 09 : ... .. . ... : ... .. . ... : ... .. . ... : ... .. . ... : ... .. . ...
ROW 0A : ... .. . ... : ... .. . ... : ... .. . ... : ... .. . ... : ... .. . ...
ROW 0B : ... .. . ... : ... .. . ... : ... .. . ... : ... .. . ... : ... .. . ...
ROW 0C : --- .. . ... : --- .. . ... : --- .. . ... : 4-# 04 . ... : G#2 06 . ...
ROW 0D : ... .. . ... : ... .. . ... : ... .. . ... : ... .. . ... : ... .. . ...
ROW 0E : ... .. . ... : ... .. . ... : ... .. . ... : ... .. . ... : ... .. . ...
ROW 0F : ... .. . ... : ... .. . ... : ... .. . ... : ... .. . ... : ... .. . ...
ROW 10 : D#2 05 . ... : B-2 05 . ... : B-2 05 . ... : 7-# 01 . ... : C-3 03 . ...
ROW 11 : ... .. . ... : ... .. . ... : ... .. . ... : ... .. . ... : ... .. . ...
ROW 12 : ... .. . ... : ... .. . ... : ... .. . ... : ... .. . ... : ... .. . ...
ROW 13 : ... .. . ... : ... .. . ... : ... .. . ... : ... .. . ... : ... .. . ...
ROW 14 : --- .. . ... : --- .. . ... : --- .. . ... : 4-# 04 . ... : B-2 06 . ...
ROW 15 : ... .. . ... : ... .. . ... : ... .. . ... : ... .. . ... : ... .. . ...
ROW 16 : ... .. . ... : ... .. . ... : ... .. . ... : ... .. . ... : ... .. . ...
ROW 17 : ... .. . ... : ... .. . ... : ... .. . ... : ... .. . ... : ... .. . ...
ROW 18 : D#2 05 . ... : B-2 05 . ... : B-2 05 . ... : 7-# 02 . ... : C#3 03 . ...
ROW 19 : ... .. . ... : ... .. . ... : ... .. . ... : ... .. . ... : ... .. . ...
ROW 1A : ... .. . ... : ... .. . ... : ... .. . ... : ... .. . ... : ... .. . ...
ROW 1B : ... .. . S02 : ... .. . S02 : ... .. . S02 : ... .. . ... : ... .. . ...
ROW 1C : D#2 05 . ... : G#2 05 . ... : G#2 05 . ... : 4-# 04 . ... : G#2 06 . ...
ROW 1D : ... .. . ... : ... .. . ... : ... .. . ... : ... .. . ... : ... .. . ...
ROW 1E : ... .. . ... : ... .. . ... : ... .. . ... : ... .. . ... : ... .. . ...
ROW 1F : ... .. . ... : ... .. . ... : ... .. . ... : ... .. . ... : ... .. . ...
ROW 20 : --- .. . ... : --- .. . ... : --- .. . ... : 7-# 01 . ... : C-3 03 . ...
ROW 21 : ... .. . ... : ... .. . ... : ... .. . ... : ... .. . ... : ... .. . ...
ROW 22 : ... .. . ... : ... .. . ... : ... .. . ... : ... .. . ... : ... .. . ...
ROW 23 : ... .. . ... : ... .. . ... : ... .. . ... : ... .. . ... : ... .. . ...
ROW 24 : G#1 05 . ... : ... .. . ... : ... .. . ... : 4-# 04 . ... : G#2 06 . ...
ROW 25 : ... .. . ... : ... .. . ... : ... .. . ... : ... .. . ... : ... .. . ...
ROW 26 : ... .. . ... : ... .. . ... : ... .. . ... : ... .. . ... : ... .. . ...
ROW 27 : ... .. . ... : ... .. . ... : ... .. . ... : ... .. . ... : ... .. . ...
ROW 28 : D#2 05 . ... : G#2 05 . ... : B-2 05 . ... : 7-# 02 . ... : C#3 03 . ...
ROW 29 : ... .. . ... : ... .. . ... : ... .. . ... : ... .. . ... : ... .. . ...
ROW 2A : ... .. . ... : ... .. . ... : ... .. . ... : ... .. . ... : ... .. . ...
ROW 2B : ... .. . ... : ... .. . ... : ... .. . ... : ... .. . ... : ... .. . ...
ROW 2C : --- .. . ... : --- .. . ... : --- .. . ... : 4-# 04 . ... : D#2 06 . ...
ROW 2D : ... .. . ... : ... .. . ... : ... .. . ... : ... .. . ... : ... .. . ...
ROW 2E : ... .. . ... : ... .. . ... : ... .. . ... : ... .. . ... : ... .. . ...
ROW 2F : ... .. . ... : ... .. . ... : ... .. . ... : ... .. . ... : ... .. . ...
ROW 30 : D#2 05 . ... : F#2 05 . ... : A#2 05 . ... : 7-# 01 . ... : C-3 03 . ...
ROW 31 : ... .. . ... : ... .. . ... : ... .. . ... : ... .. . ... : ... .. . ...
ROW 32 : ... .. . ... : ... .. . ... : ... .. . ... : ... .. . ... : ... .. . ...
ROW 33 : ... .. . ... : ... .. . ... : ... .. . ... : ... .. . ... : ... .. . ...
ROW 34 : --- .. . ... : --- .. . ... : --- .. . ... : 4-# 04 . ... : F#2 06 . ...
ROW 35 : ... .. . ... : ... .. . ... : ... .. . ... : ... .. . ... : ... .. . ...
ROW 36 : ... .. . ... : ... .. . ... : ... .. . ... : ... .. . ... : ... .. . ...
ROW 37 : ... .. . ... : ... .. . ... : ... .. . ... : ... .. . ... : ... .. . ...
ROW 38 : E-2 05 . ... : G-2 05 . ... : C#3 05 . ... : 7-# 02 . ... : C#3 03 . ...
ROW 39 : ... .. . ... : ... .. . ... : ... .. . ... : ... .. . ... : ... .. . ...
ROW 3A : ... .. . ... : ... .. . ... : ... .. . ... : ... .. . ... : ... .. . ...
ROW 3B : ... .. . ... : ... .. . ... : ... .. . ... : ... .. . ... : ... .. . ...
ROW 3C : --- .. . ... : --- .. . ... : --- .. . ... : 4-# 04 . ... : G-2 06 . ...
ROW 3D : ... .. . ... : ... .. . ... : ... .. . ... : ... .. . ... : ... .. . ...
ROW 3E : ... .. . ... : ... .. . ... : ... .. . ... : ... .. . ... : ... .. . ...
ROW 3F : ... .. . ... : ... .. . ... : ... .. . ... : ... .. . ... : ... .. . ...
PATTERN 02
ROW 00 : D#2 05 7 ... : G#2 05 7 ... : G#2 05 . ... : 7-# 01 B ... : C-3 03 . ...
ROW 01 : ... .. . ... : ... .. . ... : ... .. . ... : ... .. . ... : ... .. . ...
ROW 02 : ... .. . ... : ... .. . ... : ... .. . ... : ... .. . ... : ... .. . ...
ROW 03 : ... .. . ... : ... .. . ... : ... .. . ... : ... .. . ... : ... .. . ...
ROW 04 : --- .. . ... : --- .. . ... : --- .. . ... : 4-# 04 . ... : G#2 06 . ...
ROW 05 : ... .. . ... : ... .. . ... : ... .. . ... : ... .. . ... : ... .. . ...
ROW 06 : ... .. . ... : ... .. . ... : ... .. . ... : ... .. . ... : G#2 06 . ...
ROW 07 : ... .. . ... : ... .. . ... : ... .. . ... : ... .. . ... : ... .. . ...
ROW 08 : D#2 05 . ... : G#2 05 . ... : G#2 05 . ... : 7-# 02 . ... : C#3 03 . ...
ROW 09 : ... .. . ... : ... .. . ... : ... .. . ... : ... .. . ... : ... .. . ...
ROW 0A : ... .. . ... : ... .. . ... : ... .. . ... : ... .. . ... : ... .. . ...
ROW 0B : ... .. . ... : ... .. . ... : ... .. . ... : ... .. . ... : ... .. . ...
ROW 0C : --- .. . ... : --- .. . ... : --- .. . ... : 4-# 04 . ... : G#2 06 . ...
ROW 0D : ... .. . ... : ... .. . ... : ... .. . ... : ... .. . ... : ... .. . ...
ROW 0E : ... .. . ... : ... .. . ... : ... .. . ... : ... .. . ... : G#2 06 . ...
ROW 0F : ... .. . ... : ... .. . ... : ... .. . ... : ... .. . ... : ... .. . ...
ROW 10 : D#2 05 . ... : B-2 05 . ... : B-2 05 . ... : 7-# 01 . ... : C-3 03 . ...
ROW 11 : ... .. . ... : ... .. . ... : ... .. . ... : ... .. . ... : ... .. . ...
ROW 12 : ... .. . ... : ... .. . ... : ... .. . ... : ... .. . ... : ... .. . ...
ROW 13 : ... .. . ... : ... .. . ... : ... .. . ... : ... .. . ... : ... .. . ...
ROW 14 : --- .. . ... : --- .. . ... : --- .. . ... : 4-# 04 . ... : G#2 06 . ...
ROW 15 : ... .. . ... : ... .. . ... : ... .. . ... : ... .. . ... : ... .. . ...
ROW 16 : ... .. . ... : ... .. . ... : ... .. . ... : ... .. . ... : G#2 06 . ...
ROW 17 : ... .. . ... : ... .. . ... : ... .. . ... : ... .. . ... : ... .. . ...
ROW 18 : D#2 05 . ... : B-2 05 . ... : B-2 05 . ... : 7-# 02 . ... : C#3 03 . ...
ROW 19 : ... .. . ... : ... .. . ... : ... .. . ... : ... .. . ... : ... .. . ...
ROW 1A : ... .. . ... : ... .. . ... : ... .. . ... : ... .. . ... : ... .. . ...
ROW 1B : ... .. . S02 : ... .. . S02 : ... .. . S02 : ... .. . ... : ... .. . ...
ROW 1C : D#2 05 . ... : G#2 05 . ... : G#2 05 . ... : 4-# 04 . ... : G#2 06 . ...
ROW 1D : ... .. . ... : ... .. . ... : ... .. . ... : ... .. . ... : ... .. . ...
ROW 1E : ... .. . ... : ... .. . ... : ... .. . ... : ... .. . ... : G#2 06 . ...
ROW 1F : ... .. . ... : ... .. . ... : ... .. . ... : ... .. . ... : ... .. . ...
ROW 20 : --- .. . ... : --- .. . ... : --- .. . ... : B-# 04 . ... : C-3 03 . ...
ROW 21 : ... .. . ... : ... .. . ... : ... .. . ... : ... .. . ... : ... .. . ...
ROW 22 : ... .. . ... : ... .. . ... : ... .. . ... : ... .. . ... : ... .. . ...
ROW 23 : ... .. . ... : ... .. . ... : ... .. . ... : ... .. . ... : ... .. . ...
ROW 24 : ... .. . ... : G#2 05 . ... : ... .. . ... : 4-# 04 . ... : B-2 06 . ...
ROW 25 : ... .. . ... : ... .. . ... : ... .. . ... : ... .. . ... : ... .. . ...
ROW 26 : ... .. . ... : ... .. . ... : ... .. . ... : ... .. . ... : B-2 06 . ...
ROW 27 : ... .. . ... : ... .. . ... : ... .. . ... : ... .. . ... : ... .. . ...
ROW 28 : B-1 05 . ... : D#2 05 . ... : B-2 05 . ... : 7-# 02 . ... : C#3 03 . ...
ROW 29 : ... .. . ... : ... .. . ... : ... .. . ... : ... .. . ... : ... .. . ...
ROW 2A : ... .. . ... : ... .. . ... : ... .. . ... : ... .. . ... : ... .. . ...
ROW 2B : ... .. . ... : ... .. . ... : ... .. . ... : ... .. . ... : ... .. . ...
ROW 2C : --- .. . ... : --- .. . ... : --- .. . ... : 4-# 04 . ... : B-2 06 . ...
ROW 2D : ... .. . ... : ... .. . ... : ... .. . ... : ... .. . ... : ... .. . ...
ROW 2E : ... .. . ... : ... .. . ... : ... .. . ... : ... .. . ... : B-2 06 . ...
ROW 2F : ... .. . ... : ... .. . ... : ... .. . ... : ... .. . ... : ... .. . ...
ROW 30 : F#2 05 . ... : A#2 05 . ... : A#2 05 . ... : B-# 04 . ... : C-3 03 . ...
ROW 31 : ... .. . ... : ... .. . ... : ... .. . ... : ... .. . ... : ... .. . ...
ROW 32 : ... .. . ... : ... .. . ... : ... .. . ... : ... .. . ... : ... .. . ...
ROW 33 : ... .. . ... : ... .. . ... : ... .. . ... : ... .. . ... : ... .. . ...
ROW 34 : --- .. . ... : --- .. . ... : --- .. . ... : 4-# 04 . ... : B-2 06 . ...
ROW 35 : ... .. . ... : ... .. . ... : ... .. . ... : ... .. . ... : ... .. . ...
ROW 36 : ... .. . ... : ... .. . ... : ... .. . ... : ... .. . ... : B-2 06 . ...
ROW 37 : ... .. . ... : ... .. . ... : ... .. . ... : ... .. . ... : ... .. . ...
ROW 38 : F#2 05 . ... : A#2 05 . ... : A#2 05 . ... : E-# 04 . ... : C#3 03 . ...
ROW 39 : ... .. . ... : ... .. . ... : ... .. . ... : ... .. . ... : ... .. . ...
ROW 3A : ... .. . ... : ... .. . ... : ... .. . ... : ... .. . ... : ... .. . ...
ROW 3B : ... .. . ... : ... .. . ... : ... .. . ... : ... .. . ... : ... .. . ...
ROW 3C : --- .. . ... : --- .. . ... : --- .. . ... : 4-# 04 . ... : B-2 06 . ...
ROW 3D : ... .. . ... : ... .. . ... : ... .. . ... : ... .. . ... : ... .. . ...
ROW 3E : ... .. . ... : ... .. . ... : ... .. . ... : ... .. . ... : B-2 06 . ...
ROW 3F : ... .. . ... : ... .. . ... : ... .. . ... : ... .. . ... : ... .. . ...
PATTERN 03
ROW 00 : G#3 00 8 ... : G#2 0A 9 ... : --- 00 . ... : B-# 0D A ... : C-3 03 . ...
ROW 01 : ... .. . ... : ... .. . ... : ... .. . ... : ... .. 8 ... : ... .. . ...
ROW 02 : ... .. . ... : ... .. . ... : ... .. . ... : ... .. 6 ... : ... .. . ...
ROW 03 : ... .. . ... : ... .. . ... : ... .. . ... : ... .. 4 ... : ... .. . ...
ROW 04 : ... .. . ... : --- .. . ... : D#3 00 . ... : B-# 12 D ... : C#3 06 . ...
ROW 05 : ... .. . ... : ... .. . ... : ... .. . ... : ... .. . ... : ... .. . ...
ROW 06 : ... .. . ... : ... .. . ... : ... .. . ... : ... .. . ... : C#3 06 . ...
ROW 07 : ... .. . ... : ... .. . ... : ... .. . ... : ... .. . ... : ... .. . ...
ROW 08 : ... .. 5 RCC : G#2 0A . ... : --- .. . ... : E-# 0F . ... : C#3 03 . ...
ROW 09 : ... .. . ... : ... .. . ... : ... .. . ... : ... .. . ... : ... .. . ...
ROW 0A : ... .. 4 ... : ... .. . ... : ... .. . ... : ... .. . ... : ... .. . ...
ROW 0B : ... .. . ... : ... .. . ... : ... .. . ... : ... .. . ... : ... .. . ...
ROW 0C : G#3 08 8 ... : --- .. . ... : D#3 00 . ... : B-# 12 . ... : C#3 06 . ...
ROW 0D : ... .. . ... : ... .. . ... : ... .. . ... : ... .. . ... : ... .. . ...
ROW 0E : G#2 00 2 ... : ... .. . ... : ... .. . ... : ... .. . ... : C#3 06 . ...
ROW 0F : ... .. . ... : ... .. . ... : ... .. . ... : ... .. . ... : ... .. . ...
ROW 10 : B-3 08 8 ... : B-2 09 . ... : --- .. . ... : B-# 11 . ... : C-3 03 . ...
ROW 11 : ... .. . ... : ... .. . ... : ... .. . ... : ... .. . ... : ... .. . ...
ROW 12 : ... .. . ... : ... .. . ... : ... .. . ... : ... .. . ... : ... .. . ...
ROW 13 : ... .. . S02 : ... .. . ... : ... .. . ... : ... .. . ... : ... .. . ...
ROW 14 : G#3 08 . ... : --- .. . ... : D#3 00 . ... : B-# 12 . ... : C#3 06 . ...
ROW 15 : ... .. . ... : ... .. . ... : ... .. . ... : ... .. . ... : ... .. . ...
ROW 16 : ... .. . ... : ... .. . ... : ... .. . ... : ... .. . ... : C#3 06 . ...
ROW 17 : ... .. . S02 : ... .. . ... : ... .. . ... : ... .. . ... : ... .. . ...
ROW 18 : F#3 08 . ... : B-2 09 . ... : --- .. . ... : E-# 0F . ... : C#3 03 . ...
ROW 19 : ... .. . ... : ... .. . ... : ... .. . ... : ... .. . ... : ... .. . ...
ROW 1A : --- .. . ... : ... .. . ... : ... .. . ... : ... .. . ... : ... .. . ...
ROW 1B : ... .. . ... : ... .. . S02 : ... .. . ... : ... .. . ... : ... .. . ...
ROW 1C : G#3 08 . ... : G#2 0A . ... : D#3 00 . ... : B-# 12 . ... : C#3 06 . ...
ROW 1D : ... .. . ... : ... .. . ... : ... .. . ... : ... .. . ... : ... .. . ...
ROW 1E : ... .. . ... : ... .. . ... : ... .. . ... : ... .. . ... : C#3 06 . ...
ROW 1F : ... .. . ... : ... .. . ... : ... .. . ... : ... .. . ... : ... .. . ...
ROW 20 : --- .. . ... : --- .. . ... : --- .. . ... : B-# 11 . ... : C-3 03 . ...
ROW 21 : ... .. . ... : ... .. . ... : ... .. . ... : ... .. . ... : ... .. . ...
ROW 22 : ... .. . ... : ... .. . ... : ... .. . ... : ... .. . ... : ... .. . ...
ROW 23 : ... .. . ... : ... .. . ... : ... .. . ... : ... .. . ... : ... .. . ...
ROW 24 : ... .. . ... : G#2 05 6 ... : F#3 00 . ... : B-# 12 . ... : D#3 06 . ...
ROW 25 : ... .. . ... : ... .. . ... : ... .. . ... : ... .. . ... : ... .. . ...
ROW 26 : ... .. . ... : ... .. . ... : ... .. . ... : ... .. . ... : D#3 06 . ...
ROW 27 : ... .. . ... : ... .. . S02 : ... .. . ... : ... .. . ... : ... .. . ...
ROW 28 : A#3 08 . ... : D#2 0B 9 ... : --- .. . ... : E-# 0F . ... : C#3 03 . ...
ROW 29 : B-3 08 . ... : ... .. . ... : ... .. . ... : ... .. . ... : ... .. . ...
ROW 2A : ... .. . ... : ... .. . ... : ... .. . ... : ... .. . ... : ... .. . ...
ROW 2B : ... .. . ... : ... .. . ... : ... .. . ... : ... .. . ... : ... .. . ...
ROW 2C : --- .. . ... : --- .. . ... : F#3 00 . ... : B-# 12 . ... : D#3 06 . ...
ROW 2D : ... .. . ... : ... .. . ... : ... .. . ... : ... .. . ... : ... .. . ...
ROW 2E : ... .. . ... : ... .. . ... : ... .. . ... : ... .. . ... : D#3 06 . ...
ROW 2F : ... .. . ... : ... .. . ... : ... .. . ... : ... .. . ... : ... .. . ...
ROW 30 : F#3 08 . ... : F#2 0C . ... : --- .. . ... : B-# 11 . ... : C-3 03 . ...
ROW 31 : ... .. . ... : ... .. . ... : ... .. . ... : ... .. . ... : ... .. . ...
ROW 32 : ... .. . ... : ... .. . ... : ... .. . ... : ... .. . ... : ... .. . ...
ROW 33 : ... .. . ... : ... .. . ... : ... .. . ... : ... .. . ... : ... .. . ...
ROW 34 : --- .. . ... : --- .. . ... : F#3 00 . ... : B-# 12 . ... : D#3 06 . ...
ROW 35 : ... .. . ... : ... .. . ... : ... .. . ... : ... .. . ... : ... .. . ...
ROW 36 : ... .. . ... : ... .. . ... : ... .. . ... : ... .. . ... : D#3 06 . ...
ROW 37 : ... .. . ... : ... .. . ... : ... .. . ... : ... .. . ... : ... .. . ...
ROW 38 : B-3 08 . ... : F#2 0C . ... : --- .. . ... : E-# 0F . ... : C#3 03 . ...
ROW 39 : ... .. . ... : ... .. . ... : ... .. . ... : ... .. . ... : ... .. . ...
ROW 3A : ... .. . ... : ... .. . ... : ... .. . ... : ... .. . ... : ... .. . ...
ROW 3B : ... .. . ... : ... .. . ... : ... .. . ... : ... .. . ... : ... .. . ...
ROW 3C : --- .. . ... : --- .. . ... : F#3 00 . ... : B-# 12 . ... : D#3 06 . ...
ROW 3D : ... .. . ... : ... .. . ... : ... .. . ... : ... .. . ... : ... .. . ...
ROW 3E : ... .. . ... : ... .. . ... : ... .. . ... : ... .. . ... : D#3 06 . ...
ROW 3F : ... .. . ... : ... .. . ... : ... .. . ... : ... .. . ... : ... .. . ...
PATTERN 04
ROW 00 : G#3 07 8 ... : G#2 0A 9 ... : --- 00 . ... : A-# 11 D ... : C-3 03 . ...
ROW 01 : ... .. . ... : ... .. . ... : ... .. . ... : ... .. . ... : ... .. . ...
ROW 02 : ... .. . ... : ... .. . ... : ... .. . ... : ... .. . ... : ... .. . ...
ROW 03 : ... .. . ... : ... .. . ... : ... .. . ... : ... .. . ... : ... .. . ...
ROW 04 : --- .. . ... : --- .. . ... : G#3 00 . ... : B-# 12 . ... : G#2 06 . ...
ROW 05 : ... .. . ... : ... .. . ... : ... .. . ... : ... .. . ... : ... .. . ...
ROW 06 : ... .. . ... : ... .. . ... : ... .. . ... : ... .. . ... : G#2 06 . ...
ROW 07 : ... .. . ... : ... .. . ... : ... .. . ... : ... .. . ... : ... .. . ...
ROW 08 : ... .. . ... : G#2 0A . ... : --- .. . ... : E-# 0F . ... : C#3 03 . ...
ROW 09 : ... .. . ... : ... .. . ... : ... .. . ... : ... .. . ... : ... .. . ...
ROW 0A : ... .. . ... : ... .. . ... : ... .. . ... : ... .. . ... : ... .. . ...
ROW 0B : ... .. . ... : ... .. . ... : ... .. . ... : ... .. . ... : ... .. . ...
ROW 0C : G#3 07 . ... : --- .. . ... : G#3 00 . ... : B-# 12 . ... : G#2 06 . ...
ROW 0D : ... .. . ... : ... .. . ... : ... .. . ... : ... .. . ... : ... .. . ...
ROW 0E : --- .. . ... : ... .. . ... : ... .. . ... : ... .. . ... : G#2 06 . ...
ROW 0F : ... .. . ... : ... .. . ... : ... .. . ... : ... .. . ... : ... .. . ...
ROW 10 : B-3 08 . ... : B-2 09 . ... : --- .. . ... : B-# 11 . ... : C-3 03 . ...
ROW 11 : ... .. . ... : ... .. . ... : ... .. . ... : ... .. . ... : ... .. . ...
ROW 12 : ... .. . ... : ... .. . ... : ... .. . ... : ... .. . ... : ... .. . ...
ROW 13 : ... .. . S02 : ... .. . ... : ... .. . ... : ... .. . ... : ... .. . ...
ROW 14 : G#3 08 . ... : --- .. . ... : G#3 00 . ... : B-# 12 . ... : G#2 06 . ...
ROW 15 : ... .. . ... : ... .. . ... : ... .. . ... : ... .. . ... : ... .. . ...
ROW 16 : ... .. . ... : ... .. . ... : ... .. . ... : ... .. . ... : G#2 06 . ...
ROW 17 : ... .. . S02 : ... .. . ... : ... .. . ... : ... .. . ... : ... .. . ...
ROW 18 : F#3 08 . ... : B-2 09 . ... : --- .. . ... : E-# 0F . ... : C#3 03 . ...
ROW 19 : ... .. . ... : ... .. . ... : ... .. . ... : ... .. . ... : ... .. . ...
ROW 1A : --- .. . ... : ... .. . ... : ... .. . ... : ... .. . ... : ... .. . ...
ROW 1B : ... .. . ... : ... .. . S02 : ... .. . ... : ... .. . ... : ... .. . ...
ROW 1C : G#3 08 . ... : G#2 0A . ... : G#3 00 . ... : B-# 12 . ... : G#2 06 . ...
ROW 1D : ... .. . ... : ... .. . ... : ... .. . ... : ... .. . ... : ... .. . ...
ROW 1E : ... .. . ... : ... .. . ... : ... .. . ... : ... .. . ... : G#2 06 . ...
ROW 1F : ... .. . ... : ... .. . ... : ... .. . ... : ... .. . ... : ... .. . ...
ROW 20 : --- .. . ... : --- .. . ... : --- .. . ... : B-# 11 . ... : C-3 03 . ...
ROW 21 : ... .. . ... : ... .. . ... : ... .. . ... : ... .. . ... : ... .. . ...
ROW 22 : ... .. . ... : ... .. . ... : ... .. . ... : ... .. . ... : ... .. . ...
ROW 23 : ... .. . ... : ... .. . ... : ... .. . ... : ... .. . ... : ... .. . ...
ROW 24 : G#3 07 . ... : G#1 05 6 ... : A#3 00 . ... : B-# 12 . ... : E-3 06 . ...
ROW 25 : ... .. . ... : ... .. . ... : ... .. . ... : ... .. . ... : ... .. . ...
ROW 26 : --- .. . ... : ... .. . ... : ... .. . ... : ... .. . ... : E-3 06 . ...
ROW 27 : ... .. . ... : ... .. . S02 : ... .. . ... : ... .. . ... : ... .. . ...
ROW 28 : B-3 07 . ... : G#2 0A 9 ... : --- .. . ... : E-# 0F . ... : C#3 03 . ...
ROW 29 : ... .. . ... : ... .. . ... : ... .. . ... : ... .. . ... : ... .. . ...
ROW 2A : --- .. . ... : ... .. . ... : ... .. . ... : ... .. . ... : ... .. . ...
ROW 2B : ... .. . ... : ... .. . ... : ... .. . ... : ... .. . ... : ... .. . ...
ROW 2C : G#3 07 . ... : --- .. . ... : A#3 00 . ... : B-# 12 . ... : E-3 06 . ...
ROW 2D : ... .. . ... : ... .. . ... : ... .. . ... : ... .. . ... : ... .. . ...
ROW 2E : --- .. . ... : ... .. . ... : ... .. . ... : ... .. . ... : E-3 06 . ...
ROW 2F : ... .. . ... : ... .. . ... : ... .. . ... : ... .. . ... : ... .. . ...
ROW 30 : D#3 07 . ... : F#2 0C . ... : --- .. . ... : B-# 11 . ... : C-3 03 . ...
ROW 31 : ... .. . ... : ... .. . ... : ... .. . ... : ... .. . ... : ... .. . ...
ROW 32 : --- .. . ... : ... .. . ... : ... .. . ... : ... .. . ... : ... .. . ...
ROW 33 : ... .. . ... : ... .. . ... : ... .. . ... : ... .. . ... : ... .. . ...
ROW 34 : A-3 07 . ... : --- .. . ... : A#3 00 . ... : B-# 12 . ... : E-3 06 . ...
ROW 35 : ... .. . ... : ... .. . ... : ... .. . ... : ... .. . ... : ... .. . ...
ROW 36 : ... .. . ... : ... .. . ... : ... .. . ... : ... .. . ... : E-3 06 . ...
ROW 37 : ... .. . ... : ... .. . ... : ... .. . ... : ... .. . ... : ... .. . ...
ROW 38 : --- .. . ... : G-2 0C . ... : --- .. . ... : E-# 0F . ... : C#3 03 . ...
ROW 39 : ... .. . ... : ... .. . ... : ... .. . ... : ... .. . ... : ... .. . ...
ROW 3A : ... .. . ... : ... .. . ... : ... .. . ... : ... .. . ... : ... .. . ...
ROW 3B : ... .. . ... : ... .. . ... : ... .. . ... : ... .. . ... : ... .. . ...
ROW 3C : F#3 07 . ... : --- .. . ... : A#3 00 . ... : B-# 12 . ... : B-2 06 . ...
ROW 3D : ... .. . ... : ... .. . ... : ... .. . ... : ... .. . ... : ... .. . ...
ROW 3E : ... .. . ... : ... .. . ... : ... .. . ... : ... .. . ... : B-2 06 . ...
ROW 3F : ... .. . S02 : ... .. . ... : ... .. . ... : ... .. . ... : ... .. . ...
PATTERN 05
ROW 00 : G#3 07 8 ... : G#2 0A 9 ... : --- 00 . ... : A-# 11 D ... : C-3 03 . ...
ROW 01 : ... .. . ... : ... .. . ... : ... .. . ... : ... .. . ... : ... .. . ...
ROW 02 : ... .. . ... : ... .. . ... : ... .. . ... : ... .. . ... : ... .. . ...
ROW 03 : ... .. . ... : ... .. . ... : ... .. . ... : ... .. . ... : ... .. . ...
ROW 04 : --- .. . ... : --- .. . ... : D#3 00 . ... : B-# 12 . ... : B-2 06 . ...
ROW 05 : ... .. . ... : ... .. . ... : ... .. . ... : ... .. . ... : ... .. . ...
ROW 06 : ... .. . ... : ... .. . ... : ... .. . ... : ... .. . ... : B-2 06 . ...
ROW 07 : ... .. . ... : ... .. . ... : ... .. . ... : ... .. . ... : ... .. . ...
ROW 08 : ... .. . ... : G#2 0A . ... : --- .. . ... : E-# 0F . ... : C#3 03 . ...
ROW 09 : ... .. . ... : ... .. . ... : ... .. . ... : ... .. . ... : ... .. . ...
ROW 0A : ... .. . ... : ... .. . ... : ... .. . ... : ... .. . ... : ... .. . ...
ROW 0B : ... .. . ... : ... .. . ... : ... .. . ... : ... .. . ... : ... .. . ...
ROW 0C : G#3 07 . ... : --- .. . ... : D#3 00 . ... : B-# 12 . ... : B-2 06 . ...
ROW 0D : ... .. . ... : ... .. . ... : ... .. . ... : ... .. . ... : ... .. . ...
ROW 0E : --- .. . ... : ... .. . ... : ... .. . ... : ... .. . ... : B-2 06 . ...
ROW 0F : ... .. . ... : ... .. . ... : ... .. . ... : ... .. . ... : ... .. . ...
ROW 10 : B-3 08 . ... : B-2 09 . ... : --- .. . ... : B-# 11 . ... : C-3 03 . ...
ROW 11 : ... .. . ... : ... .. . ... : ... .. . ... : ... .. . ... : ... .. . ...
ROW 12 : ... .. . ... : ... .. . ... : ... .. . ... : ... .. . ... : ... .. . ...
ROW 13 : ... .. . S02 : ... .. . ... : ... .. . ... : ... .. . ... : ... .. . ...
ROW 14 : G#3 08 . ... : --- .. . ... : D#3 00 . ... : B-# 12 . ... : B-2 06 . ...
ROW 15 : ... .. . ... : ... .. . ... : ... .. . ... : ... .. . ... : ... .. . ...
ROW 16 : ... .. . ... : ... .. . ... : ... .. . ... : ... .. . ... : B-2 06 . ...
ROW 17 : ... .. . S02 : ... .. . ... : ... .. . ... : ... .. . ... : ... .. . ...
ROW 18 : F#3 08 . ... : B-2 09 . ... : --- .. . ... : E-# 0F . ... : C#3 03 . ...
ROW 19 : ... .. . ... : ... .. . ... : ... .. . ... : ... .. . ... : ... .. . ...
ROW 1A : --- .. . ... : ... .. . ... : ... .. . ... : ... .. . ... : ... .. . ...
ROW 1B : ... .. . ... : ... .. . S02 : ... .. . ... : ... .. . ... : ... .. . ...
ROW 1C : G#3 08 . ... : G#2 0A . ... : D#3 00 . ... : B-# 12 . ... : F#3 06 . ...
ROW 1D : ... .. . ... : ... .. . ... : ... .. . ... : ... .. . ... : ... .. . ...
ROW 1E : ... .. . ... : ... .. . ... : ... .. . ... : ... .. . ... : F#3 06 . ...
ROW 1F : ... .. . ... : ... .. . ... : ... .. . ... : ... .. . ... : ... .. . ...
ROW 20 : --- .. . ... : --- .. . ... : --- .. . ... : 5-# 0D C ... : C-3 03 . ...
ROW 21 : ... .. . ... : ... .. . ... : ... .. . ... : ... .. . ... : ... .. . ...
ROW 22 : ... .. . ... : ... .. . ... : ... .. . ... : ... .. B ... : ... .. . ...
ROW 23 : ... .. . ... : ... .. . ... : ... .. . ... : ... .. . ... : ... .. . ...
ROW 24 : ... .. . ... : G#2 05 6 ... : B-3 00 . ... : ... .. A ... : F#3 06 . ...
ROW 25 : ... .. . ... : ... .. . ... : ... .. . ... : ... .. . ... : ... .. . ...
ROW 26 : ... .. . ... : ... .. . ... : ... .. . ... : ... .. 9 ... : F#3 06 . ...
ROW 27 : ... .. . ... : ... .. . S02 : ... .. . ... : ... .. . ... : ... .. . ...
ROW 28 : D#3 07 . ... : D#2 0B 9 ... : --- .. . ... : ... .. 8 ... : C#3 03 . ...
ROW 29 : ... .. . ... : ... .. . ... : ... .. . ... : ... .. . ... : ... .. . ...
ROW 2A : --- .. . ... : ... .. . ... : ... .. . ... : ... .. 7 ... : ... .. . ...
ROW 2B : ... .. . ... : ... .. . ... : ... .. . ... : ... .. . ... : ... .. . ...
ROW 2C : D#3 07 . ... : --- .. . ... : B-3 00 . ... : ... .. 6 ... : F#3 06 . ...
ROW 2D : ... .. . ... : ... .. . ... : ... .. . ... : ... .. . ... : ... .. . ...
ROW 2E : --- .. . ... : ... .. . ... : ... .. . ... : ... .. 5 ... : F#3 06 . ...
ROW 2F : ... .. . ... : ... .. . ... : ... .. . ... : ... .. . ... : ... .. . ...
ROW 30 : D#3 07 . ... : A#2 0B . ... : --- .. . ... : ... .. 4 ... : C-3 03 . ...
ROW 31 : ... .. . ... : ... .. . ... : ... .. . ... : ... .. . ... : ... .. . ...
ROW 32 : --- .. . ... : ... .. . ... : ... .. . ... : ... .. 3 ... : ... .. . ...
ROW 33 : ... .. . ... : ... .. . ... : ... .. . ... : ... .. . ... : ... .. . ...
ROW 34 : F#3 07 . ... : --- .. . ... : B-3 00 . ... : ... .. 2 ... : C#3 06 . ...
ROW 35 : ... .. . ... : ... .. . ... : ... .. . ... : ... .. . ... : ... .. . ...
ROW 36 : --- .. . ... : ... .. . ... : ... .. . ... : ... .. 1 ... : C#3 06 . ...
ROW 37 : ... .. . ... : ... .. . ... : ... .. . ... : ... .. . ... : ... .. . ...
ROW 38 : F#3 07 . ... : A#2 0B . ... : --- .. . ... : ... .. 0 ... : C#3 03 . ...
ROW 39 : ... .. . ... : ... .. . ... : ... .. . ... : ... .. . ... : ... .. . ...
ROW 3A : --- .. . ... : ... .. . ... : ... .. . ... : ... .. . ... : ... .. . ...
ROW 3B : ... .. . ... : ... .. . ... : ... .. . ... : ... .. . ... : ... .. . ...
ROW 3C : F#3 07 . ... : --- .. . ... : F#3 00 . ... : ... .. . ... : C#3 06 . ...
ROW 3D : ... .. . ... : ... .. . ... : ... .. . ... : ... .. . ... : ... .. . ...
ROW 3E : --- .. . ... : ... .. . ... : ... .. . ... : ... .. . ... : C#3 06 . ...
ROW 3F : ... .. . ... : ... .. . ... : ... .. . ... : ... .. . ... : ... .. . ...
PATTERN 06
ROW 00 : G#3 07 8 ... : G#1 00 A ... : --- 00 . ... : 7-# 01 B ... : C-3 03 . ...
ROW 01 : ... .. . ... : ... .. . ... : ... .. . ... : ... .. . ... : ... .. . ...
ROW 02 : ... .. . ... : ... .. . ... : ... .. . ... : ... .. . ... : ... .. . ...
ROW 03 : ... .. . ... : --- .. . ... : ... .. . ... : ... .. . ... : ... .. . ...
ROW 04 : --- .. . ... : G#2 0A 7 ... : F#3 00 . ... : 4-# 04 . ... : B-2 06 . ...
ROW 05 : ... .. . ... : ... .. . ... : ... .. . ... : ... .. . ... : ... .. . ...
ROW 06 : ... .. . ... : --- .. . ... : ... .. . ... : ... .. . ... : B-2 06 . ...
ROW 07 : ... .. . ... : ... .. . ... : ... .. . ... : ... .. . ... : ... .. . ...
ROW 08 : ... .. . ... : G#2 0A . ... : --- .. . ... : 7-# 02 . ... : C#3 03 . ...
ROW 09 : ... .. . ... : ... .. . ... : ... .. . ... : ... .. . ... : ... .. . ...
ROW 0A : ... .. . ... : --- .. . ... : ... .. . ... : ... .. . ... : ... .. . ...
ROW 0B : ... .. . ... : ... .. . ... : ... .. . ... : ... .. . ... : ... .. . ...
ROW 0C : G#3 07 . ... : G#2 0A . ... : F#3 00 . ... : 4-# 04 . ... : B-2 06 . ...
ROW 0D : ... .. . ... : ... .. . ... : ... .. . ... : ... .. . ... : ... .. . ...
ROW 0E : --- .. . ... : --- .. . ... : ... .. . ... : ... .. . ... : B-2 06 . ...
ROW 0F : ... .. . ... : ... .. . ... : ... .. . ... : ... .. . ... : ... .. . ...
ROW 10 : B-3 08 . ... : G#2 0A . ... : --- .. . ... : 7-# 01 . ... : C-3 03 . ...
ROW 11 : ... .. . ... : ... .. . ... : ... .. . ... : ... .. . ... : ... .. . ...
ROW 12 : ... .. . ... : --- .. . ... : ... .. . ... : ... .. . ... : ... .. . ...
ROW 13 : ... .. . S02 : ... .. . ... : ... .. . ... : ... .. . ... : ... .. . ...
ROW 14 : G#3 08 . ... : G#2 0A . ... : F#3 00 . ... : 4-# 04 . ... : B-2 06 . ...
ROW 15 : ... .. . ... : ... .. . ... : ... .. . ... : ... .. . ... : ... .. . ...
ROW 16 : ... .. . ... : --- .. . ... : ... .. . ... : ... .. . ... : B-2 06 . ...
ROW 17 : ... .. . S02 : ... .. . ... : ... .. . ... : ... .. . ... : ... .. . ...
ROW 18 : F#3 08 . ... : G#2 0A . ... : --- .. . ... : 7-# 02 . ... : C#3 03 . ...
ROW 19 : ... .. . ... : ... .. . ... : ... .. . ... : ... .. . ... : ... .. . ...
ROW 1A : --- .. . ... : --- .. . ... : ... .. . ... : ... .. . ... : ... .. . ...
ROW 1B : ... .. . ... : ... .. . ... : ... .. . ... : ... .. . ... : ... .. . ...
ROW 1C : G#3 08 . ... : G#2 0A . ... : C#4 00 . ... : 4-# 04 . ... : F#3 06 . ...
ROW 1D : ... .. . ... : ... .. . ... : ... .. . ... : ... .. . ... : ... .. . ...
ROW 1E : ... .. . ... : --- .. . ... : ... .. . ... : ... .. . ... : F#3 06 . ...
ROW 1F : ... .. . ... : ... .. . ... : ... .. . ... : ... .. . ... : ... .. . ...
ROW 20 : --- .. . ... : B-0 00 A ... : --- .. . ... : 7-# 01 . ... : F#3 06 . ...
ROW 21 : ... .. . ... : ... .. . ... : ... .. . ... : ... .. . ... : === .. . ...
ROW 22 : ... .. . ... : ... .. . ... : ... .. . ... : ... .. . ... : ... .. . ...
ROW 23 : ... .. . ... : --- .. . ... : ... .. . ... : ... .. . ... : ... .. . ...
ROW 24 : G#3 08 . ... : B-2 0A 7 ... : C#4 00 . ... : 4-# 04 A ... : F#3 06 . ...
ROW 25 : ... .. . ... : ... .. . ... : ... .. . ... : ... .. . ... : ... .. . ...
ROW 26 : --- .. . ... : --- 05 . ... : ... .. . ... : ... .. . ... : F#3 06 . ...
ROW 27 : ... .. . ... : ... .. . ... : ... .. . ... : ... .. . ... : ... .. . ...
ROW 28 : B-3 08 . ... : B-2 0A . ... : --- .. . ... : 7-# 02 . ... : C#3 03 . ...
ROW 29 : ... .. . ... : ... .. . ... : ... .. . ... : ... .. . ... : ... .. . ...
ROW 2A : --- .. . ... : --- .. . ... : ... .. . ... : ... .. . ... : ... .. . ...
ROW 2B : ... .. . ... : ... .. . ... : ... .. . ... : ... .. . ... : ... .. . ...
ROW 2C : G#3 08 . ... : B-2 0A . ... : C#4 00 . ... : 4-# 04 . ... : F#3 06 . ...
ROW 2D : ... .. . ... : ... .. . ... : ... .. . ... : ... .. . ... : ... .. . ...
ROW 2E : --- .. . ... : --- .. . ... : ... .. . ... : ... .. . ... : F#3 06 . ...
ROW 2F : ... .. . ... : ... .. . ... : ... .. . ... : ... .. . ... : ... .. . ...
ROW 30 : B-3 08 . ... : B-2 0A . ... : --- .. . ... : 7-# 01 . ... : C#3 06 . ...
ROW 31 : ... .. . ... : ... .. . ... : ... .. . ... : ... .. . ... : === .. . ...
ROW 32 : --- .. . ... : --- .. . ... : ... .. . ... : ... .. . ... : ... .. . ...
ROW 33 : ... .. . ... : ... .. . ... : ... .. . ... : ... .. . ... : ... .. . ...
ROW 34 : C#4 08 . ... : B-2 0A . ... : G#3 00 . ... : 4-# 04 . ... : C#3 06 . ...
ROW 35 : ... .. . ... : ... .. . ... : ... .. . ... : ... .. . ... : ... .. . ...
ROW 36 : --- .. . ... : --- .. . ... : ... .. . ... : ... .. . ... : C#3 06 . ...
ROW 37 : ... .. . ... : ... .. . ... : ... .. . ... : ... .. . ... : ... .. . ...
ROW 38 : G#3 08 . ... : B-2 0A . ... : --- .. . ... : 7-# 02 . ... : C#3 06 . ...
ROW 39 : ... .. . ... : ... .. . ... : ... .. . ... : ... .. . ... : === .. . ...
ROW 3A : --- .. . ... : --- .. . ... : ... .. . ... : ... .. . ... : ... .. . ...
ROW 3B : ... .. . ... : ... .. . ... : ... .. . ... : ... .. . ... : ... .. . ...
ROW 3C : F#3 08 . ... : B-2 0A . ... : G#3 00 . ... : 4-# 04 9 ... : C#3 06 . ...
ROW 3D : ... .. . ... : ... .. . ... : ... .. . ... : ... .. . ... : ... .. . ...
ROW 3E : ... .. . ... : --- .. . ... : ... .. . ... : ... .. . ... : C#3 06 . ...
ROW 3F : ... .. . S02 : ... .. . ... : ... .. . ... : ... .. . ... : ... .. . ...
PATTERN 07
ROW 00 : D#3 05 7 ... : C#1 00 A ... : E-4 15 . ... : 7-# 01 9 ... : C-3 03 . ...
ROW 01 : ... .. . ... : ... .. . ... : ... .. . ... : ... .. . ... : G#2 10 . ...
ROW 02 : --- .. . ... : ... .. . ... : ... .. . ... : ... .. . ... : ... .. . ...
ROW 03 : ... .. . ... : --- .. . ... : ... .. . ... : ... .. . ... : ... .. . ...
ROW 04 : D#3 05 . ... : C#3 0A 7 ... : D#3 00 . ... : 4-# 04 . ... : G#2 06 . ...
ROW 05 : ... .. . ... : ... .. . ... : ... .. . ... : ... .. . ... : ... .. . ...
ROW 06 : --- .. . ... : --- .. . ... : ... .. . ... : ... .. . ... : G#2 06 . ...
ROW 07 : ... .. . ... : ... .. . ... : ... .. . ... : ... .. . ... : ... .. . ...
ROW 08 : A#3 00 8 ... : C#3 0A . ... : E-4 16 . ... : 7-# 02 . ... : C#3 03 . ...
ROW 09 : ... .. . ... : ... .. . ... : ... .. . ... : ... .. . ... : G#2 10 . ...
ROW 0A : ... .. . ... : --- .. . ... : ... .. . ... : ... .. . ... : ... .. . ...
ROW 0B : ... .. . S02 : ... .. . ... : ... .. . ... : ... .. . ... : ... .. . ...
ROW 0C : B-3 00 . ... : C#3 0A . ... : D#3 00 . ... : 4-# 04 . ... : G#2 06 . ...
ROW 0D : ... .. . ... : ... .. . ... : ... .. . ... : ... .. . ... : ... .. . ...
ROW 0E : ... .. . ... : --- .. . ... : ... .. . ... : ... .. . ... : G#2 06 . ...
ROW 0F : ... .. . S02 : ... .. . ... : ... .. . ... : ... .. . ... : ... .. . ...
ROW 10 : B-3 00 . ... : C#3 0A . ... : E-4 15 . ... : 7-# 01 8 ... : C-3 03 . ...
ROW 11 : ... .. . ... : ... .. . ... : ... .. . ... : ... .. . ... : G#2 10 . ...
ROW 12 : ... .. . ... : --- .. . ... : ... .. . ... : ... .. . ... : ... .. . ...
ROW 13 : ... .. . S02 : ... .. . ... : ... .. . ... : ... .. . ... : ... .. . ...
ROW 14 : A#3 00 . ... : C#3 0A . ... : D#3 00 . ... : 4-# 04 . ... : G#2 06 . ...
ROW 15 : ... .. . ... : ... .. . ... : ... .. . ... : ... .. . ... : ... .. . ...
ROW 16 : ... .. . ... : --- .. . ... : ... .. . ... : ... .. . ... : G#2 06 . ...
ROW 17 : ... .. . S02 : ... .. . ... : ... .. . ... : ... .. . ... : ... .. . ...
ROW 18 : G#3 00 . ... : C#3 0A . ... : E-4 16 . ... : 7-# 02 . ... : C#3 03 . ...
ROW 19 : ... .. . ... : ... .. . ... : ... .. . ... : ... .. . ... : G#2 10 . ...
ROW 1A : ... .. . ... : --- .. . ... : ... .. . ... : ... .. . ... : ... .. . ...
ROW 1B : ... .. . S02 : ... .. . ... : ... .. . ... : ... .. . ... : ... .. . ...
ROW 1C : D#3 00 . ... : C#3 0A . ... : D#3 00 . ... : 4-# 04 . ... : G#2 06 . ...
ROW 1D : ... .. . ... : ... .. . ... : ... .. . ... : ... .. . ... : ... .. . ...
ROW 1E : ... .. . ... : --- .. . ... : ... .. . ... : ... .. . ... : G#2 06 . ...
ROW 1F : ... .. . ... : ... .. . ... : ... .. . ... : ... .. . ... : ... .. . ...
ROW 20 : --- .. . ... : D#1 00 A ... : E-4 15 . ... : 7-# 01 7 ... : C-3 03 . ...
ROW 21 : ... .. . ... : ... .. . ... : ... .. . ... : ... .. . ... : E-3 10 . ...
ROW 22 : ... .. . ... : ... .. . ... : ... .. . ... : ... .. . ... : ... .. . ...
ROW 23 : ... .. . ... : --- .. . ... : ... .. . ... : ... .. . ... : ... .. . ...
ROW 24 : D#3 00 . ... : D#3 0A 7 ... : B-3 00 . ... : 4-# 04 . ... : E-3 06 . ...
ROW 25 : ... .. . ... : ... .. . ... : ... .. . ... : ... .. . ... : ... .. . ...
ROW 26 : ... .. . ... : --- 05 . ... : ... .. . ... : ... .. . ... : E-3 06 . ...
ROW 27 : ... .. . S02 : ... .. . ... : ... .. . ... : ... .. . ... : ... .. . ...
ROW 28 : B-3 00 . ... : D#3 0A . ... : E-4 16 . ... : 7-# 02 3 ... : C#3 03 . ...
ROW 29 : ... .. . ... : ... .. . ... : ... .. . ... : ... .. . ... : E-3 10 . ...
ROW 2A : ... .. . ... : --- .. . ... : ... .. . ... : ... .. . ... : ... .. . ...
ROW 2B : ... .. . S02 : ... .. . ... : ... .. . ... : ... .. . ... : ... .. . ...
ROW 2C : G#3 00 . ... : D#3 0A . ... : B-3 00 . ... : 4-# 04 6 ... : E-3 06 . ...
ROW 2D : ... .. . ... : ... .. . ... : ... .. . ... : ... .. . ... : ... .. . ...
ROW 2E : ... .. . ... : --- .. . ... : ... .. . ... : ... .. . ... : E-3 06 . ...
ROW 2F : ... .. . S02 : ... .. . ... : ... .. . ... : ... .. . ... : ... .. . ...
ROW 30 : G#3 00 . ... : D#3 0A . ... : E-4 15 . ... : 7-# 01 . ... : C-3 03 . ...
ROW 31 : ... .. . Q22 : ... .. . ... : ... .. . ... : ... .. . ... : E-3 10 . ...
ROW 32 : ... .. . ... : --- .. . ... : ... .. . ... : ... .. . ... : ... .. . ...
ROW 33 : ... .. . ... : ... .. . ... : ... .. . ... : ... .. . ... : ... .. . ...
ROW 34 : ... .. . ... : D#3 0A . ... : B-3 00 . ... : 4-# 04 . ... : E-3 06 . ...
ROW 35 : ... .. . ... : ... .. . ... : ... .. . ... : ... .. . ... : ... .. . ...
ROW 36 : ... .. . 485 : --- .. . ... : ... .. . ... : ... .. . ... : E-3 06 . ...
ROW 37 : ... .. . ... : ... .. . ... : ... .. . ... : ... .. . ... : ... .. . ...
ROW 38 : ... .. . ... : D#3 0A . ... : E-4 16 . ... : 7-# 02 3 ... : C#3 03 . ...
ROW 39 : ... .. . ... : ... .. . ... : ... .. . ... : ... .. . ... : E-3 10 . ...
ROW 3A : ... .. . ... : --- .. . ... : ... .. . ... : ... .. . ... : ... .. . ...
ROW 3B : ... .. . S02 : ... .. . ... : ... .. . ... : ... .. . ... : ... .. . ...
ROW 3C : G#3 00 . 400 : D#3 0A . ... : F#3 00 . ... : 4-# 04 5 ... : B-2 06 . ...
ROW 3D : ... .. . S02 : ... .. . ... : ... .. . ... : ... .. . ... : ... .. . ...
ROW 3E : A#3 00 . ... : --- .. . ... : ... .. . ... : ... .. . ... : B-2 06 . ...
ROW 3F : ... .. . S02 : ... .. . ... : ... .. . ... : ... .. . ... : ... .. . ...
PATTERN 08
ROW 00 : B-3 00 8 ... : G#1 00 A ... : E-4 15 . ... : 7-# 01 4 ... : C-3 03 . ...
ROW 01 : ... .. . ... : ... .. . ... : ... .. . ... : ... .. . ... : B-2 10 . ...
ROW 02 : ... .. . ... : ... .. . ... : ... .. . ... : ... .. . ... : ... .. . ...
ROW 03 : ... .. . S02 : --- .. . ... : ... .. . ... : ... .. . ... : ... .. . ...
ROW 04 : G#3 00 . ... : G#2 0A 7 ... : F#3 00 . ... : 4-# 04 . ... : B-2 06 . ...
ROW 05 : ... .. . S02 : ... .. . ... : ... .. . ... : ... .. . ... : ... .. . ...
ROW 06 : A#3 00 . ... : --- .. . ... : ... .. . ... : ... .. . ... : B-2 06 . ...
ROW 07 : ... .. . S02 : ... .. . ... : ... .. . ... : ... .. . ... : ... .. . ...
ROW 08 : B-3 00 . ... : G#2 0A . ... : E-4 16 . ... : 7-# 02 2 ... : C#3 03 . ...
ROW 09 : ... .. . ... : ... .. . ... : ... .. . ... : ... .. . ... : B-2 10 . ...
ROW 0A : ... .. . ... : --- .. . ... : ... .. . ... : ... .. 3 ... : ... .. . ...
ROW 0B : ... .. . S02 : ... .. . ... : ... .. . ... : ... .. . ... : ... .. . ...
ROW 0C : G#3 00 . ... : G#2 0A . ... : F#3 00 . ... : 4-# 04 . ... : B-2 06 . ...
ROW 0D : ... .. . S02 : ... .. . ... : ... .. . ... : ... .. . ... : ... .. . ...
ROW 0E : A#3 00 . ... : --- .. . ... : ... .. . ... : ... .. . ... : B-2 06 . ...
ROW 0F : ... .. . S02 : ... .. . ... : ... .. . ... : ... .. . ... : ... .. . ...
ROW 10 : C#4 00 . ... : G#2 0A . ... : E-4 15 . ... : 7-# 01 . ... : C-3 03 . ...
ROW 11 : ... .. . ... : ... .. . ... : ... .. . ... : ... .. . ... : B-2 10 . ...
ROW 12 : ... .. . ... : --- .. . ... : ... .. . ... : ... .. 2 ... : ... .. . ...
ROW 13 : ... .. . S02 : ... .. . ... : ... .. . ... : ... .. . ... : ... .. . ...
ROW 14 : A#3 00 . ... : G#2 0A . ... : F#3 00 . ... : 4-# 04 . ... : B-2 06 . ...
ROW 15 : ... .. . S02 : ... .. . ... : ... .. . ... : ... .. . ... : ... .. . ...
ROW 16 : B-3 00 . ... : --- .. . ... : ... .. . ... : ... .. . ... : B-2 06 . ...
ROW 17 : ... .. . S02 : ... .. . ... : ... .. . ... : ... .. . ... : ... .. . ...
ROW 18 : C#4 00 . ... : G#2 0A . ... : E-4 16 . ... : 7-# 02 1 ... : C#3 03 . ...
ROW 19 : ... .. . ... : ... .. . ... : ... .. . ... : ... .. . ... : B-2 10 . ...
ROW 1A : ... .. . ... : --- .. . ... : ... .. . ... : ... .. . ... : ... .. . ...
ROW 1B : ... .. . S02 : ... .. . ... : ... .. . ... : ... .. . ... : ... .. . ...
ROW 1C : A#3 00 . ... : E-3 00 8 ... : C#4 00 . ... : 4-# 04 . ... : F#3 06 . ...
ROW 1D : ... .. . S02 : ... .. . ... : ... .. . ... : ... .. . ... : ... .. . ...
ROW 1E : B-3 00 . ... : ... .. . ... : ... .. . ... : ... .. 1 ... : F#3 06 . ...
ROW 1F : ... .. . S02 : ... .. . ... : ... .. . ... : ... .. . ... : ... .. . ...
ROW 20 : D#4 00 . ... : ... .. . ... : E-4 15 . ... : A-# 0D . ... : C-3 03 . ...
ROW 21 : ... .. . ... : ... .. . ... : ... .. . ... : ... .. . ... : F#3 10 . ...
ROW 22 : ... .. . ... : ... .. . 484 : ... .. . ... : ... .. . ... : ... .. . ...
ROW 23 : ... .. . S02 : ... .. . ... : ... .. . ... : C-# 0D . ... : ... .. . ...
ROW 24 : B-3 00 . ... : G#2 0B 7 400 : C#4 00 . ... : ... .. . ... : F#3 06 . ...
ROW 25 : ... .. . S02 : ... .. . ... : ... .. . ... : ... .. . ... : ... .. . ...
ROW 26 : A#3 00 . ... : --- 05 . ... : ... .. . ... : F-# 0D . ... : F#3 06 . ...
ROW 27 : ... .. . S02 : ... .. . ... : ... .. . ... : ... .. . ... : ... .. . ...
ROW 28 : B-3 00 . ... : G#2 0B . ... : E-4 16 . ... : --- .. . ... : C#3 03 . ...
ROW 29 : ... .. . ... : ... .. . ... : ... .. . ... : ... .. . ... : F#3 10 . ...
ROW 2A : --- .. . ... : --- .. . ... : ... .. . ... : ... .. . ... : ... .. . ...
ROW 2B : ... .. . ... : ... .. . ... : ... .. . ... : ... .. . ... : ... .. . ...
ROW 2C : B-3 00 . ... : G#2 0B . ... : C#4 00 . ... : ... .. . ... : F#3 06 . ...
ROW 2D : ... .. . S02 : ... .. . ... : ... .. . ... : ... .. . ... : ... .. . ...
ROW 2E : G#3 00 . ... : --- .. . ... : ... .. . ... : ... .. . ... : F#3 06 . ...
ROW 2F : ... .. . S02 : ... .. . ... : ... .. . ... : ... .. . ... : ... .. . ...
ROW 30 : A#3 00 . ... : G#2 0B . ... : E-4 15 . ... : ... .. . ... : C-3 03 . ...
ROW 31 : ... .. . ... : ... .. . ... : ... .. . ... : ... .. . ... : C#3 10 . ...
ROW 32 : ... .. . ... : --- .. . ... : ... .. . ... : ... .. . ... : ... .. . ...
ROW 33 : ... .. . S02 : ... .. . ... : ... .. . ... : ... .. . ... : ... .. . ...
ROW 34 : B-3 00 . ... : G#2 0B . ... : G#3 00 . ... : ... .. . ... : C#3 06 . ...
ROW 35 : ... .. . S02 : ... .. . ... : ... .. . ... : ... .. . ... : ... .. . ...
ROW 36 : A#3 00 . ... : --- .. . ... : ... .. . ... : ... .. . ... : C#3 06 . ...
ROW 37 : ... .. . S02 : ... .. . ... : ... .. . ... : ... .. . ... : ... .. . ...
ROW 38 : B-3 00 . ... : G#2 0B . ... : E-4 16 . ... : ... .. . ... : C#3 03 . ...
ROW 39 : ... .. . ... : ... .. . ... : ... .. . ... : ... .. . ... : C#3 10 . ...
ROW 3A : --- .. . ... : --- .. . ... : ... .. . ... : ... .. . ... : ... .. . ...
ROW 3B : ... .. . ... : ... .. . ... : ... .. . ... : ... .. . ... : ... .. . ...
ROW 3C : A#3 00 . ... : D#3 00 8 ... : G#3 00 . ... : ... .. . ... : C#3 06 . ...
ROW 3D : ... .. . ... : ... .. . ... : ... .. . ... : ... .. . ... : ... .. . ...
ROW 3E : ... .. . ... : ... .. . ... : ... .. . ... : ... .. . ... : C#3 06 . ...
ROW 3F : ... .. . S02 : ... .. . ... : ... .. . ... : ... .. . ... : ... .. . ...
PATTERN 09
ROW 00 : G#3 00 8 ... : ... .. 8 ... : G#3 19 . ... : ... .. . ... : C-3 03 . ...
ROW 01 : ... .. . ... : ... .. . ... : ... .. . ... : ... .. . ... : B-2 10 . ...
ROW 02 : ... .. . ... : ... .. . 484 : B-3 19 . ... : ... .. . ... : ... .. . ...
ROW 03 : ... .. . ... : ... .. . ... : ... .. . ... : ... .. . ... : ... .. . ...
ROW 04 : --- .. . ... : B-2 0A 7 400 : D#4 19 . ... : ... .. . ... : B-2 06 . ...
ROW 05 : ... .. . ... : ... .. . ... : ... .. . ... : ... .. . ... : ... .. . ...
ROW 06 : ... .. . ... : --- .. . ... : G#4 19 . ... : ... .. . ... : B-2 06 . ...
ROW 07 : ... .. . ... : ... .. . ... : ... .. . ... : ... .. . ... : ... .. . ...
ROW 08 : A#3 00 . ... : B-2 0A . ... : B-3 19 . ... : ... .. . ... : C#3 03 . ...
ROW 09 : ... .. . ... : ... .. . ... : ... .. . ... : ... .. . ... : B-2 10 . ...
ROW 0A : ... .. . ... : --- .. . ... : D#4 19 . ... : ... .. . ... : ... .. . ...
ROW 0B : ... .. . S02 : ... .. . ... : ... .. . ... : ... .. . ... : ... .. . ...
ROW 0C : B-3 00 . ... : B-2 0A . ... : G#4 19 . ... : ... .. . ... : B-2 06 . ...
ROW 0D : ... .. . ... : ... .. . ... : ... .. . ... : ... .. . ... : ... .. . ...
ROW 0E : ... .. . ... : --- .. . ... : B-4 19 . ... : ... .. . ... : B-2 06 . ...
ROW 0F : ... .. . S02 : ... .. . ... : ... .. . ... : ... .. . ... : ... .. . ...
ROW 10 : B-3 00 . ... : B-2 0A . ... : D#4 19 . ... : ... .. . ... : C-3 03 . ...
ROW 11 : ... .. . ... : ... .. . ... : ... .. . ... : ... .. . ... : B-2 10 . ...
ROW 12 : ... .. . ... : --- .. . ... : G#4 19 . ... : ... .. . ... : ... .. . ...
ROW 13 : ... .. . S02 : ... .. . ... : ... .. . ... : ... .. . ... : ... .. . ...
ROW 14 : A#3 00 . ... : B-2 0A . ... : B-4 19 . ... : ... .. . ... : B-2 06 . ...
ROW 15 : ... .. . ... : ... .. . ... : ... .. . ... : ... .. . ... : ... .. . ...
ROW 16 : ... .. . ... : --- .. . ... : D#5 19 . ... : ... .. . ... : B-2 06 . ...
ROW 17 : ... .. . S02 : ... .. . ... : ... .. . ... : ... .. . ... : ... .. . ...
ROW 18 : G#3 00 . ... : B-2 0A . ... : G#4 19 . ... : ... .. . ... : C#3 03 . ...
ROW 19 : ... .. . ... : ... .. . ... : ... .. . ... : ... .. . ... : B-2 10 . ...
ROW 1A : ... .. . ... : --- .. . ... : B-4 19 . ... : ... .. . ... : ... .. . ...
ROW 1B : ... .. . S02 : ... .. . ... : ... .. . ... : ... .. . ... : ... .. . ...
ROW 1C : G#3 00 . ... : A#3 0E 9 ... : D#5 19 . ... : ... .. . ... : F#3 06 . ...
ROW 1D : ... .. . ... : ... .. . ... : ... .. . ... : ... .. . ... : ... .. . ...
ROW 1E : ... .. . ... : ... .. . ... : G#5 19 . ... : ... .. . ... : F#3 06 . ...
ROW 1F : ... .. . ... : ... .. . ... : ... .. . ... : ... .. . ... : ... .. . ...
ROW 20 : ... .. . ... : ... .. . ... : G#3 19 . ... : ... .. . ... : C-3 03 . ...
ROW 21 : ... .. . ... : ... .. . ... : ... .. . ... : ... .. . ... : F#3 10 . ...
ROW 22 : ... .. . 484 : ... .. . 484 : B-3 19 . ... : ... .. . ... : ... .. . ...
ROW 23 : ... .. . ... : ... .. . S02 : ... .. . ... : ... .. . ... : ... .. . ...
ROW 24 : --- .. . 400 : F#3 0A 7 400 : E-4 19 . ... : ... .. . ... : F#3 06 . ...
ROW 25 : ... .. . ... : ... .. . ... : ... .. . ... : ... .. . ... : ... .. . ...
ROW 26 : ... .. . ... : --- .. . ... : G#4 19 . ... : ... .. . ... : F#3 06 . ...
ROW 27 : ... .. . ... : ... .. . ... : ... .. . ... : ... .. . ... : ... .. . ...
ROW 28 : A#3 00 . ... : F#3 0A . ... : B-3 19 . ... : ... .. . ... : F#3 10 . ...
ROW 29 : ... .. . ... : ... .. . ... : ... .. . ... : ... .. . ... : ... .. . ...
ROW 2A : ... .. . ... : --- .. . ... : E-4 19 . ... : ... .. . ... : ... .. . ...
ROW 2B : ... .. . S02 : ... .. . ... : ... .. . ... : ... .. . ... : ... .. . ...
ROW 2C : B-3 00 . ... : F#3 0A . ... : G#4 19 . ... : ... .. . ... : F#3 06 . ...
ROW 2D : ... .. . ... : ... .. . ... : ... .. . ... : ... .. . ... : ... .. . ...
ROW 2E : ... .. . ... : --- .. . ... : B-4 19 . ... : ... .. . ... : F#3 06 . ...
ROW 2F : ... .. . S02 : ... .. . ... : ... .. . ... : ... .. . ... : ... .. . ...
ROW 30 : B-3 00 . ... : C#3 0A . ... : E-4 19 . ... : ... .. . ... : C#3 10 . ...
ROW 31 : ... .. . ... : ... .. . ... : ... .. . ... : ... .. . ... : ... .. . ...
ROW 32 : ... .. . ... : --- .. . ... : G#4 19 . ... : ... .. . ... : ... .. . ...
ROW 33 : ... .. . S02 : ... .. . ... : ... .. . ... : ... .. . ... : ... .. . ...
ROW 34 : A#3 00 . ... : C#3 0A . ... : B-4 19 . ... : ... .. . ... : C#3 06 . ...
ROW 35 : ... .. . ... : ... .. . ... : ... .. . ... : ... .. . ... : ... .. . ...
ROW 36 : ... .. . ... : --- .. . ... : E-5 19 . ... : ... .. . ... : C#3 06 . ...
ROW 37 : ... .. . S02 : ... .. . ... : ... .. . ... : ... .. . ... : ... .. . ...
ROW 38 : G#3 00 . ... : C#3 0A . ... : G#4 19 . ... : ... .. . ... : C#3 10 . ...
ROW 39 : ... .. . ... : ... .. . ... : ... .. . ... : ... .. . ... : ... .. . ...
ROW 3A : ... .. . ... : --- .. . ... : B-4 19 . ... : ... .. . ... : ... .. . ...
ROW 3B : ... .. . S02 : ... .. . ... : ... .. . ... : ... .. . ... : ... .. . ...
ROW 3C : F#3 00 . ... : C#3 0A . ... : E-5 19 . ... : ... .. . ... : C#3 06 . ...
ROW 3D : ... .. . ... : ... .. . ... : ... .. . ... : ... .. . ... : ... .. . ...
ROW 3E : ... .. . ... : --- .. . ... : F#5 19 . ... : ... .. . ... : C#3 06 . ...
ROW 3F : ... .. . ... : ... .. . ... : ... .. . ... : ... .. . ... : ... .. . ...
PATTERN 0A
ROW 00 : ... .. 8 ... : ... .. 8 ... : F#3 19 . ... : ... .. . ... : C-3 03 . ...
ROW 01 : ... .. . ... : ... .. . ... : ... .. . ... : ... .. . ... : === .. . ...
ROW 02 : ... .. . 484 : ... .. . 484 : B-3 19 . ... : ... .. . ... : ... .. . ...
ROW 03 : ... .. . ... : ... .. . ... : ... .. . ... : ... .. . ... : ... .. . ...
ROW 04 : --- .. . 400 : B-2 0A 7 400 : D#4 19 . ... : ... .. . ... : G#2 06 . ...
ROW 05 : ... .. . ... : ... .. . ... : ... .. . ... : ... .. . ... : ... .. . ...
ROW 06 : ... .. . ... : --- .. . ... : F#4 19 . ... : ... .. . ... : ... .. . ...
ROW 07 : ... .. . ... : ... .. . ... : ... .. . ... : ... .. . ... : ... .. . ...
ROW 08 : A#3 00 . ... : B-2 0A . ... : B-3 19 . ... : ... .. . ... : C#3 03 . ...
ROW 09 : ... .. . ... : ... .. . ... : ... .. . ... : ... .. . ... : === .. . ...
ROW 0A : ... .. . ... : --- .. . ... : D#4 19 . ... : ... .. . ... : ... .. . ...
ROW 0B : ... .. . S02 : ... .. . ... : ... .. . ... : ... .. . ... : ... .. . ...
ROW 0C : B-3 00 . ... : B-2 0A . ... : F#4 19 . ... : ... .. . ... : G#2 06 . ...
ROW 0D : ... .. . ... : ... .. . ... : ... .. . ... : ... .. . ... : ... .. . ...
ROW 0E : ... .. . ... : --- .. . ... : B-4 19 . ... : ... .. . ... : ... .. . ...
ROW 0F : ... .. . S02 : ... .. . ... : ... .. . ... : ... .. . ... : ... .. . ...
ROW 10 : B-3 00 . ... : B-2 0A . ... : D#4 19 . ... : ... .. . ... : C-3 03 . ...
ROW 11 : ... .. . ... : ... .. . ... : ... .. . ... : ... .. . ... : === .. . ...
ROW 12 : ... .. . ... : --- .. . ... : F#4 19 . ... : ... .. . ... : ... .. . ...
ROW 13 : ... .. . S02 : ... .. . ... : ... .. . ... : ... .. . ... : ... .. . ...
ROW 14 : A#3 00 . ... : B-2 0A . ... : B-4 19 . ... : ... .. . ... : G#2 06 . ...
ROW 15 : ... .. . ... : ... .. . ... : ... .. . ... : ... .. . ... : ... .. . ...
ROW 16 : ... .. . ... : --- .. . ... : D#5 19 . ... : ... .. . ... : ... .. . ...
ROW 17 : ... .. . S02 : ... .. . ... : ... .. . ... : ... .. . ... : ... .. . ...
ROW 18 : G#3 00 . ... : B-2 0A . ... : F#4 19 . ... : ... .. . ... : C#3 03 . ...
ROW 19 : ... .. . ... : ... .. . ... : ... .. . ... : ... .. . ... : === .. . ...
ROW 1A : ... .. . ... : --- .. . ... : B-4 19 . ... : ... .. . ... : ... .. . ...
ROW 1B : ... .. . S02 : ... .. . ... : ... .. . ... : ... .. . ... : ... .. . ...
ROW 1C : C#4 00 . ... : A#3 0E 9 ... : F#3 19 . ... : ... .. . ... : G#2 06 . ...
ROW 1D : ... .. . ... : ... .. . ... : ... .. . ... : ... .. . ... : ... .. . ...
ROW 1E : ... .. . ... : ... .. . ... : A#3 19 . ... : ... .. . ... : ... .. . ...
ROW 1F : ... .. . ... : ... .. . ... : ... .. . ... : ... .. . ... : ... .. . ...
ROW 20 : ... .. . ... : ... .. . ... : C#4 19 . ... : ... .. . ... : C-3 03 . ...
ROW 21 : ... .. . ... : ... .. . ... : ... .. . ... : ... .. . ... : === .. . ...
ROW 22 : ... .. . 484 : ... .. . 484 : F#4 19 . ... : ... .. . ... : ... .. . ...
ROW 23 : ... .. . S02 : ... .. . S02 : ... .. . ... : ... .. . ... : ... .. . ...
ROW 24 : B-3 00 . 400 : F#3 0A 7 400 : A#3 19 . ... : ... .. . ... : G#2 06 . ...
ROW 25 : ... .. . ... : ... .. . ... : ... .. . ... : ... .. . ... : ... .. . ...
ROW 26 : ... .. . ... : --- .. . ... : C#4 19 . ... : ... .. . ... : ... .. . ...
ROW 27 : ... .. . S02 : ... .. . ... : ... .. . ... : ... .. . ... : ... .. . ...
ROW 28 : A#3 00 . ... : F#3 0A . ... : F#4 19 . ... : ... .. . ... : C#3 03 . ...
ROW 29 : ... .. . ... : ... .. . ... : ... .. . ... : ... .. . ... : === .. . ...
ROW 2A : ... .. . ... : --- .. . ... : A#4 19 . ... : ... .. . ... : ... .. . ...
ROW 2B : ... .. . S02 : ... .. . ... : ... .. . ... : ... .. . ... : ... .. . ...
ROW 2C : B-3 00 . ... : F#3 0A . ... : C#4 19 . ... : ... .. . ... : G#2 06 . ...
ROW 2D : ... .. . ... : ... .. . ... : ... .. . ... : ... .. . ... : ... .. . ...
ROW 2E : ... .. . ... : --- .. . ... : F#4 19 . ... : ... .. . ... : ... .. . ...
ROW 2F : ... .. . S02 : ... .. . ... : ... .. . ... : ... .. . ... : ... .. . ...
ROW 30 : B-3 00 . ... : C#3 0A . ... : F#3 19 . ... : ... .. . ... : C-3 03 . ...
ROW 31 : ... .. . ... : ... .. . ... : ... .. . ... : ... .. . ... : === .. . ...
ROW 32 : ... .. . ... : --- .. . ... : G#3 19 . ... : ... .. . ... : ... .. . ...
ROW 33 : ... .. . S02 : ... .. . ... : ... .. . ... : ... .. . ... : ... .. . ...
ROW 34 : A#3 00 . ... : C#3 0A . ... : C#4 19 . ... : ... .. . ... : G#2 06 . ...
ROW 35 : ... .. . ... : ... .. . ... : ... .. . ... : ... .. . ... : ... .. . ...
ROW 36 : ... .. . ... : --- .. . ... : F#4 19 . ... : ... .. . ... : ... .. . ...
ROW 37 : ... .. . S02 : ... .. . ... : ... .. . ... : ... .. . ... : ... .. . ...
ROW 38 : F#3 00 . ... : ... .. . ... : G#3 19 . ... : ... .. . ... : C#3 03 . ...
ROW 39 : ... .. . ... : ... .. . ... : ... .. . ... : ... .. . ... : === .. . ...
ROW 3A : ... .. . ... : ... .. . ... : C#4 19 . ... : ... .. . ... : ... .. . ...
ROW 3B : ... .. . S02 : ... .. . ... : ... .. . ... : ... .. . ... : ... .. . ...
ROW 3C : G#3 00 . ... : ... .. . ... : F#4 19 . ... : ... .. . ... : G#2 06 . ...
ROW 3D : ... .. . ... : ... .. . ... : ... .. . ... : ... .. . ... : ... .. . ...
ROW 3E : ... .. . ... : ... .. . ... : G#4 19 . ... : ... .. . ... : ... .. . ...
ROW 3F : ... .. . ... : ... .. . ... : ... .. . ... : ... .. . ... : ... .. . ...
PATTERN 0B
ROW 00 : ... .. 8 ... : G#2 0A 7 ... : G#3 1A . ... : ... .. . ... : C-3 03 . ...
ROW 01 : ... .. . ... : ... .. . ... : ... .. . ... : ... .. . ... : === .. . ...
ROW 02 : ... .. . 484 : --- .. . ... : ... .. . ... : ... .. . ... : ... .. . ...
ROW 03 : ... .. . ... : ... .. . ... : ... .. . ... : ... .. . ... : ... .. . ...
ROW 04 : --- .. . 400 : G#3 0A . ... : B-3 19 . ... : ... .. . ... : G#2 06 . ...
ROW 05 : ... .. . ... : ... .. . ... : ... .. . ... : ... .. . ... : ... .. . ...
ROW 06 : ... .. . ... : ... .. . ... : D#4 19 . ... : ... .. . ... : ... .. . ...
ROW 07 : ... .. . ... : ... .. . ... : ... .. . ... : ... .. . ... : ... .. . ...
ROW 08 : A#3 00 . ... : G#2 0A . ... : G#3 1A . ... : ... .. . ... : C#3 03 . ...
ROW 09 : ... .. . ... : ... .. . ... : ... .. . ... : ... .. . ... : === .. . ...
ROW 0A : ... .. . ... : --- .. . ... : ... .. . ... : ... .. . ... : ... .. . ...
ROW 0B : ... .. . S02 : ... .. . ... : ... .. . ... : ... .. . ... : ... .. . ...
ROW 0C : B-3 00 . ... : G#3 0A . ... : D#4 19 . ... : ... .. . ... : G#2 06 . ...
ROW 0D : ... .. . ... : ... .. . ... : ... .. . ... : ... .. . ... : ... .. . ...
ROW 0E : ... .. . ... : ... .. . ... : G#4 19 . ... : ... .. . ... : ... .. . ...
ROW 0F : ... .. . S02 : ... .. . ... : ... .. . ... : ... .. . ... : ... .. . ...
ROW 10 : B-3 00 . ... : G#2 0A . ... : G#3 1A . ... : ... .. . ... : C-3 03 . ...
ROW 11 : ... .. . ... : ... .. . ... : ... .. . ... : ... .. . ... : === .. . ...
ROW 12 : ... .. . ... : --- .. . ... : ... .. . ... : ... .. . ... : ... .. . ...
ROW 13 : ... .. . S02 : ... .. . ... : ... .. . ... : ... .. . ... : ... .. . ...
ROW 14 : A#3 00 . ... : G#3 0A . ... : G#4 19 . ... : ... .. . ... : G#2 06 . ...
ROW 15 : ... .. . ... : ... .. . ... : ... .. . ... : ... .. . ... : ... .. . ...
ROW 16 : ... .. . ... : ... .. . ... : B-4 19 . ... : ... .. . ... : ... .. . ...
ROW 17 : ... .. . S02 : ... .. . ... : ... .. . ... : ... .. . ... : ... .. . ...
ROW 18 : G#3 00 . ... : G#2 0A . ... : G#3 1A . ... : ... .. . ... : C#3 03 . ...
ROW 19 : ... .. . ... : ... .. . ... : ... .. . ... : ... .. . ... : === .. . ...
ROW 1A : ... .. . ... : --- .. . ... : ... .. . ... : ... .. . ... : ... .. . ...
ROW 1B : ... .. . S02 : ... .. . ... : ... .. . ... : ... .. . ... : ... .. . ...
ROW 1C : G#3 00 . ... : E-3 13 A ... : B-4 19 . ... : ... .. . ... : G#2 06 . ...
ROW 1D : ... .. . ... : ... .. . ... : ... .. . ... : ... .. . ... : ... .. . ...
ROW 1E : ... .. . ... : ... .. . ... : D#5 19 . ... : ... .. . ... : ... .. . ...
ROW 1F : ... .. . ... : ... .. . ... : ... .. . ... : ... .. . ... : ... .. . ...
ROW 20 : ... .. . ... : ... .. . ... : G#3 19 . ... : ... .. . ... : C-3 03 . Y01
ROW 21 : ... .. . ... : ... .. . ... : ... .. . ... : ... .. . ... : === .. . ...
ROW 22 : ... .. . 484 : ... .. . 484 : ... .. . ... : ... .. . ... : ... .. . ...
ROW 23 : ... .. . ... : ... .. . ... : ... .. . ... : ... .. . ... : ... .. . ...
ROW 24 : --- .. . 400 : G#3 0B 7 400 : B-3 19 . ... : ... .. . ... : G#2 06 . ...
ROW 25 : ... .. . ... : ... .. . ... : ... .. . ... : ... .. . ... : ... .. . ...
ROW 26 : ... .. . ... : ... .. . ... : E-4 19 . ... : ... .. . ... : ... .. . ...
ROW 27 : ... .. . ... : ... .. . ... : ... .. . ... : ... .. . ... : ... .. . ...
ROW 28 : A#3 00 . ... : G#2 0B . ... : G#3 19 . ... : ... .. . ... : C#3 03 . ...
ROW 29 : ... .. . ... : ... .. . ... : ... .. . ... : ... .. . ... : === .. . ...
ROW 2A : ... .. . ... : --- .. . ... : ... .. . ... : ... .. . ... : ... .. . ...
ROW 2B : ... .. . S02 : ... .. . ... : ... .. . ... : ... .. . ... : ... .. . ...
ROW 2C : B-3 00 . ... : G#3 0B . ... : E-4 19 . ... : ... .. . ... : G#2 06 . ...
ROW 2D : ... .. . ... : ... .. . ... : ... .. . ... : ... .. . ... : ... .. . ...
ROW 2E : ... .. . ... : ... .. . ... : G#4 19 . ... : ... .. . ... : ... .. . ...
ROW 2F : ... .. . S02 : ... .. . ... : ... .. . ... : ... .. . ... : ... .. . ...
ROW 30 : B-3 00 . ... : G#2 0B . ... : G#3 19 . ... : ... .. . ... : C-3 03 . ...
ROW 31 : ... .. . ... : ... .. . ... : ... .. . ... : ... .. . ... : === .. . ...
ROW 32 : ... .. . ... : --- .. . ... : ... .. . ... : ... .. . ... : ... .. . ...
ROW 33 : ... .. . S02 : ... .. . ... : ... .. . ... : ... .. . ... : ... .. . ...
ROW 34 : A#3 00 . ... : G#3 0B . ... : G#4 19 . ... : ... .. . ... : G#2 06 . ...
ROW 35 : ... .. . ... : ... .. . ... : ... .. . ... : ... .. . ... : ... .. . ...
ROW 36 : ... .. . ... : ... .. . ... : B-4 19 . ... : ... .. . ... : ... .. . ...
ROW 37 : ... .. . S02 : ... .. . ... : ... .. . ... : ... .. . ... : ... .. . ...
ROW 38 : G#3 00 . ... : G#2 0B . ... : G#3 19 . ... : ... .. . ... : C#3 03 . ...
ROW 39 : ... .. . ... : ... .. . ... : ... .. . ... : ... .. . ... : === .. . ...
ROW 3A : ... .. . ... : --- .. . ... : ... .. . ... : ... .. . ... : ... .. . ...
ROW 3B : ... .. . S02 : ... .. . ... : ... .. . ... : ... .. . ... : ... .. . ...
ROW 3C : F#3 00 . ... : D#3 00 A ... : B-4 19 . ... : ... .. . ... : G#2 06 . ...
ROW 3D : ... .. . ... : ... .. . ... : ... .. . ... : ... .. . ... : ... .. . ...
ROW 3E : ... .. . ... : ... .. . ... : D#5 19 . ... : ... .. . ... : ... .. . ...
ROW 3F : ... .. . ... : ... .. . ... : ... .. . ... : ... .. . ... : ... .. . ...
PATTERN 0C
ROW 00 : ... .. 8 ... : ... .. A ... : B-3 1A . ... : ... .. . ... : C-3 03 . Y02
ROW 01 : ... .. . ... : ... .. . ... : ... .. . ... : ... .. . ... : === .. . ...
ROW 02 : ... .. . 484 : ... .. . 484 : ... .. . ... : ... .. . ... : ... .. . ...
ROW 03 : ... .. . ... : ... .. . ... : ... .. . ... : ... .. . ... : ... .. . ...
ROW 04 : --- .. . 400 : B-3 0A 7 400 : B-3 19 . ... : ... .. . ... : G#2 06 . ...
ROW 05 : ... .. . ... : ... .. . ... : ... .. . ... : ... .. . ... : ... .. . ...
ROW 06 : ... .. . ... : ... .. . ... : D#4 19 . ... : ... .. . ... : ... .. . ...
ROW 07 : ... .. . ... : ... .. . ... : ... .. . ... : ... .. . ... : ... .. . ...
ROW 08 : A#3 00 . ... : B-2 0A . ... : B-3 1A . ... : ... .. . ... : C#3 03 . ...
ROW 09 : ... .. . ... : ... .. . ... : ... .. . ... : ... .. . ... : === .. . ...
ROW 0A : ... .. . ... : --- .. . ... : ... .. . ... : ... .. . ... : ... .. . ...
ROW 0B : ... .. . S02 : ... .. . ... : ... .. . ... : ... .. . ... : ... .. . ...
ROW 0C : B-3 00 . ... : B-3 0A . ... : D#4 19 . ... : ... .. . ... : G#2 06 . ...
ROW 0D : ... .. . ... : ... .. . ... : ... .. . ... : ... .. . ... : ... .. . ...
ROW 0E : ... .. . ... : ... .. . ... : F#4 19 . ... : ... .. . ... : ... .. . ...
ROW 0F : ... .. . S02 : ... .. . ... : ... .. . ... : ... .. . ... : ... .. . ...
ROW 10 : B-3 00 . ... : B-2 0A . ... : B-3 1A . ... : ... .. . ... : C-3 03 . ...
ROW 11 : ... .. . ... : ... .. . ... : ... .. . ... : ... .. . ... : === .. . ...
ROW 12 : ... .. . ... : --- .. . ... : ... .. . ... : ... .. . ... : ... .. . ...
ROW 13 : ... .. . S02 : ... .. . ... : ... .. . ... : ... .. . ... : ... .. . ...
ROW 14 : A#3 00 . ... : B-3 0A . ... : F#4 19 . ... : ... .. . ... : G#2 06 . ...
ROW 15 : ... .. . ... : ... .. . ... : ... .. . ... : ... .. . ... : ... .. . ...
ROW 16 : ... .. . ... : ... .. . ... : B-4 19 . ... : ... .. . ... : ... .. . ...
ROW 17 : ... .. . S02 : ... .. . ... : ... .. . ... : ... .. . ... : ... .. . ...
ROW 18 : G#3 00 . ... : B-2 0A . ... : B-3 1A . ... : ... .. . ... : C#3 03 . ...
ROW 19 : ... .. . ... : ... .. . ... : ... .. . ... : ... .. . ... : === .. . ...
ROW 1A : ... .. . ... : --- .. . ... : ... .. . ... : ... .. . ... : ... .. . ...
ROW 1B : ... .. . S02 : ... .. . ... : ... .. . ... : ... .. . ... : ... .. . ...
ROW 1C : C#4 00 . ... : A#3 0E B ... : F#4 1A . ... : ... .. . ... : G#2 06 . ...
ROW 1D : ... .. . ... : ... .. . ... : ... .. . ... : ... .. . ... : ... .. . ...
ROW 1E : ... .. . ... : ... .. . ... : ... .. . ... : ... .. . ... : ... .. . ...
ROW 1F : ... .. . ... : ... .. . ... : ... .. . ... : ... .. . ... : ... .. . ...
ROW 20 : ... .. . ... : ... .. . ... : F#3 1A . ... : ... .. . ... : C-3 03 . Y03
ROW 21 : ... .. . ... : ... .. . ... : ... .. . ... : ... .. . ... : === .. . ...
ROW 22 : ... .. . 484 : ... .. . 484 : ... .. . ... : ... .. . ... : ... .. . ...
ROW 23 : ... .. . S02 : ... .. . S02 : ... .. . ... : ... .. . ... : ... .. . ...
ROW 24 : B-3 00 . 400 : F#4 0A 7 400 : C#4 19 . ... : ... .. . ... : G#2 06 . ...
ROW 25 : ... .. . ... : ... .. . ... : ... .. . ... : ... .. . ... : ... .. . ...
ROW 26 : ... .. . ... : ... .. . ... : F#4 19 . ... : ... .. . ... : ... .. . ...
ROW 27 : ... .. . S02 : ... .. . ... : ... .. . ... : ... .. . ... : ... .. . ...
ROW 28 : A#3 00 . ... : F#3 0A . ... : F#3 1A . ... : ... .. . ... : C#3 03 . ...
ROW 29 : ... .. . ... : ... .. . ... : ... .. . ... : ... .. . ... : === .. . ...
ROW 2A : ... .. . ... : --- .. . ... : ... .. . ... : ... .. . ... : ... .. . ...
ROW 2B : ... .. . S02 : ... .. . ... : ... .. . ... : ... .. . ... : ... .. . ...
ROW 2C : B-3 00 . ... : F#4 0A . ... : F#4 19 . ... : ... .. . ... : G#2 06 . ...
ROW 2D : ... .. . ... : ... .. . ... : ... .. . ... : ... .. . ... : ... .. . ...
ROW 2E : ... .. . ... : ... .. . ... : A#4 19 . ... : ... .. . ... : ... .. . ...
ROW 2F : ... .. . S02 : ... .. . ... : ... .. . ... : ... .. . ... : ... .. . ...
ROW 30 : B-3 00 . ... : C#3 0A . ... : F#3 1A . ... : ... .. . ... : C-3 03 . ...
ROW 31 : ... .. . ... : ... .. . ... : ... .. . ... : ... .. . ... : === .. . ...
ROW 32 : ... .. . ... : --- .. . ... : ... .. . ... : ... .. . ... : ... .. . ...
ROW 33 : ... .. . S02 : ... .. . ... : ... .. . ... : ... .. . ... : ... .. . ...
ROW 34 : A#3 00 . ... : C#4 0A . ... : A#4 19 . ... : ... .. . ... : G#2 06 . Y04
ROW 35 : ... .. . ... : ... .. . ... : ... .. . ... : ... .. . ... : ... .. . ...
ROW 36 : ... .. . ... : ... .. . ... : C#5 19 . ... : ... .. . ... : ... .. . ...
ROW 37 : ... .. . S02 : ... .. . ... : ... .. . ... : ... .. . ... : ... .. . ...
ROW 38 : F#3 00 . ... : C#3 0A . ... : F#3 1A . ... : ... .. . ... : C#3 03 . ...
ROW 39 : ... .. . ... : ... .. . ... : ... .. . ... : ... .. . ... : === .. . ...
ROW 3A : ... .. . ... : --- .. . ... : ... .. . ... : ... .. . ... : ... .. . ...
ROW 3B : ... .. . ... : ... .. . ... : ... .. . ... : ... .. . ... : ... .. . ...
ROW 3C : ... .. 6 RBF : C#4 0A . ... : C#5 19 . ... : ... .. . ... : G#2 06 . ...
ROW 3D : ... .. . ... : ... .. . ... : ... .. . ... : ... .. . ... : ... .. . ...
ROW 3E : ... .. . ... : ... .. . ... : F#5 19 . ... : ... .. . ... : ... .. . ...
ROW 3F : ... .. . ... : ... .. . ... : ... .. . ... : ... .. . ... : ... .. . ...
PATTERN 0D
ROW 00 : G#3 13 A ... : G#3 0A 9 ... : B-3 1A . ... : ... .. . ... : C-3 03 . Y05
ROW 01 : ... .. . ... : ... .. . ... : ... .. . ... : ... .. . ... : === .. . ...
ROW 02 : ... .. . ... : ... .. . ... : ... .. . ... : ... .. . ... : ... .. . ...
ROW 03 : ... .. . ... : ... .. . S01 : ... .. . ... : ... .. . ... : ... .. . ...
ROW 04 : --- .. . ... : G#2 0A . ... : B-3 19 . ... : ... .. . ... : G#2 06 . ...
ROW 05 : ... .. . ... : ... .. . ... : ... .. . ... : ... .. . ... : ... .. . ...
ROW 06 : ... .. . ... : ... .. . ... : D#4 19 . ... : ... .. . ... : ... .. . ...
ROW 07 : ... .. . ... : ... .. . S01 : ... .. . ... : ... .. . ... : ... .. . ...
ROW 08 : A#3 13 . ... : G#3 0A . ... : B-3 1A . ... : ... .. . ... : C#3 03 . ...
ROW 09 : ... .. . ... : ... .. . ... : ... .. . ... : ... .. . ... : === .. . ...
ROW 0A : ... .. . ... : ... .. . ... : ... .. . ... : ... .. . ... : ... .. . ...
ROW 0B : ... .. . S02 : ... .. . S01 : ... .. . ... : ... .. . ... : ... .. . ...
ROW 0C : B-3 13 . ... : B-3 09 . ... : D#4 19 . ... : ... .. . ... : G#2 06 . Y06
ROW 0D : ... .. . ... : ... .. . ... : ... .. . ... : ... .. . ... : ... .. . ...
ROW 0E : ... .. . ... : ... .. . ... : F#4 19 . ... : ... .. . ... : ... .. . ...
ROW 0F : ... .. . S02 : ... .. . S01 : ... .. . ... : ... .. . ... : ... .. . ...
ROW 10 : B-3 13 . ... : B-3 09 . ... : B-3 1A . ... : ... .. . ... : C-3 03 . ...
ROW 11 : ... .. . ... : ... .. . ... : ... .. . ... : ... .. . ... : === .. . ...
ROW 12 : ... .. . ... : ... .. . ... : ... .. . ... : ... .. . ... : ... .. . ...
ROW 13 : ... .. . S02 : ... .. . S01 : ... .. . ... : ... .. . ... : ... .. . ...
ROW 14 : A#3 13 . ... : G#3 0A . ... : F#4 19 . ... : ... .. . ... : G#2 06 . ...
ROW 15 : ... .. . ... : ... .. . ... : ... .. . ... : ... .. . ... : ... .. . ...
ROW 16 : ... .. . ... : ... .. . ... : B-4 19 . ... : ... .. . ... : ... .. . ...
ROW 17 : ... .. . S02 : ... .. . S01 : ... .. . ... : ... .. . ... : ... .. . ...
ROW 18 : G#3 13 . ... : D#3 0B . ... : B-3 1A . ... : ... .. . ... : C#3 03 . Y07
ROW 19 : ... .. . ... : ... .. . ... : ... .. . ... : ... .. . ... : === .. . ...
ROW 1A : ... .. . ... : ... .. . ... : ... .. . ... : ... .. . ... : ... .. . ...
ROW 1B : ... .. . S02 : ... .. . S01 : ... .. . ... : ... .. . ... : ... .. . ...
ROW 1C : G#3 13 . ... : E-3 0A . ... : F#4 1A . ... : ... .. . ... : G#2 06 . ...
ROW 1D : ... .. . ... : ... .. . ... : ... .. . ... : ... .. . ... : ... .. . ...
ROW 1E : ... .. . ... : ... .. . ... : ... .. . ... : ... .. . ... : ... .. . ...
ROW 1F : ... .. . ... : ... .. . S01 : ... .. . ... : ... .. . ... : ... .. . ...
ROW 20 : ... .. . ... : G#3 0B . ... : F#3 1A . ... : ... .. . ... : C-3 03 . ...
ROW 21 : ... .. . ... : ... .. . ... : ... .. . ... : ... .. . ... : === .. . ...
ROW 22 : ... .. . 484 : ... .. . ... : ... .. . ... : ... .. . ... : ... .. . ...
ROW 23 : ... .. . ... : ... .. . S01 : ... .. . ... : ... .. . ... : ... .. . ...
ROW 24 : --- .. . 400 : G#2 0B . ... : --- 19 . ... : ... .. . ... : ... .. . ...
ROW 25 : ... .. . ... : ... .. . ... : ... .. . ... : ... .. . ... : ... .. . ...
ROW 26 : ... .. . ... : ... .. . ... : ... .. . ... : ... .. . ... : ... .. . ...
ROW 27 : ... .. . ... : ... .. . S01 : ... .. . ... : ... .. . ... : ... .. . ...
ROW 28 : A#3 13 . ... : G#3 0B . ... : F#3 1A . ... : ... .. . ... : ... .. . ...
ROW 29 : ... .. . ... : ... .. . ... : ... .. . ... : ... .. . ... : ... .. . ...
ROW 2A : ... .. . ... : ... .. . ... : ... .. . ... : ... .. . ... : ... .. . ...
ROW 2B : ... .. . S02 : ... .. . S01 : ... .. . ... : ... .. . ... : ... .. . ...
ROW 2C : B-3 13 . ... : B-3 0C . ... : --- 19 . ... : ... .. . ... : ... .. . ...
ROW 2D : ... .. . ... : ... .. . ... : ... .. . ... : ... .. . ... : ... .. . ...
ROW 2E : ... .. . ... : ... .. . ... : ... .. . ... : ... .. . ... : ... .. . ...
ROW 2F : ... .. . S02 : ... .. . S01 : ... .. . ... : ... .. . ... : ... .. . ...
ROW 30 : B-3 13 . ... : B-3 0C . ... : F#3 1A . ... : ... .. . ... : ... .. . ...
ROW 31 : ... .. . ... : ... .. . ... : ... .. . ... : ... .. . ... : ... .. . ...
ROW 32 : ... .. . ... : ... .. . ... : ... .. . ... : ... .. . ... : ... .. . ...
ROW 33 : ... .. . S02 : ... .. . S01 : ... .. . ... : ... .. . ... : ... .. . ...
ROW 34 : A#3 13 . ... : G#3 0B . ... : --- 19 . ... : ... .. . ... : ... .. . ...
ROW 35 : ... .. . ... : ... .. . ... : ... .. . ... : ... .. . ... : ... .. . ...
ROW 36 : ... .. . ... : ... .. . ... : ... .. . ... : ... .. . ... : ... .. . ...
ROW 37 : ... .. . S02 : ... .. . S01 : ... .. . ... : ... .. . ... : ... .. . ...
ROW 38 : G#3 13 . ... : G#3 0B . ... : F#3 1A . ... : ... .. . ... : ... .. . ...
ROW 39 : ... .. . ... : ... .. . ... : ... .. . ... : ... .. . ... : ... .. . ...
ROW 3A : ... .. . ... : ... .. . ... : ... .. . ... : ... .. . ... : ... .. . ...
ROW 3B : ... .. . S02 : ... .. . S01 : ... .. . ... : ... .. . ... : ... .. . ...
ROW 3C : F#3 13 . ... : D#3 0B . ... : --- 19 . ... : ... .. . ... : ... .. . ...
ROW 3D : ... .. . ... : ... .. . ... : ... .. . ... : ... .. . ... : ... .. . ...
ROW 3E : ... .. . ... : ... .. . ... : ... .. . ... : ... .. . ... : ... .. . ...
ROW 3F : ... .. . ... : ... .. . S01 : ... .. . ... : ... .. . ... : ... .. . ...
PATTERN 0E
ROW 00 : ... .. A ... : F#3 0C 9 ... : G#3 1A . ... : ... .. . ... : ... .. . ...
ROW 01 : ... .. . ... : ... .. . ... : ... .. . ... : ... .. . ... : ... .. . ...
ROW 02 : ... .. . 484 : ... .. . ... : ... .. . ... : ... .. . ... : ... .. . ...
ROW 03 : ... .. . ... : ... .. . S01 : ... .. . ... : ... .. . ... : ... .. . ...
ROW 04 : --- .. . 400 : F#2 0C . ... : G#2 1A . ... : ... .. . ... : ... .. . ...
ROW 05 : ... .. . ... : ... .. . ... : ... .. . ... : ... .. . ... : ... .. . ...
ROW 06 : ... .. . ... : ... .. . ... : ... .. . ... : ... .. . ... : ... .. . ...
ROW 07 : ... .. . ... : ... .. . S01 : ... .. . ... : ... .. . ... : ... .. . ...
ROW 08 : A#3 13 . ... : F#2 0C . ... : G#3 1A . ... : ... .. . ... : ... .. . ...
ROW 09 : ... .. . ... : ... .. . ... : ... .. . ... : ... .. . ... : ... .. . ...
ROW 0A : ... .. . ... : ... .. . ... : ... .. . ... : ... .. . ... : ... .. . ...
ROW 0B : ... .. . S02 : ... .. . S01 : ... .. . ... : ... .. . ... : ... .. . ...
ROW 0C : B-3 13 . ... : B-3 0A . ... : G#2 1A . ... : ... .. . ... : ... .. . ...
ROW 0D : ... .. . ... : ... .. . ... : ... .. . ... : ... .. . ... : ... .. . ...
ROW 0E : ... .. . ... : ... .. . ... : ... .. . ... : ... .. . ... : ... .. . ...
ROW 0F : ... .. . S02 : ... .. . S01 : ... .. . ... : ... .. . ... : ... .. . ...
ROW 10 : B-3 13 . ... : B-3 0A . ... : G#3 1A . ... : ... .. . ... : ... .. . ...
ROW 11 : ... .. . ... : ... .. . ... : ... .. . ... : ... .. . ... : ... .. . ...
ROW 12 : ... .. . ... : ... .. . ... : ... .. . ... : ... .. . ... : ... .. . ...
ROW 13 : ... .. . S02 : ... .. . S01 : ... .. . ... : ... .. . ... : ... .. . ...
ROW 14 : A#3 13 . ... : F#3 0C . ... : G#2 1A . ... : ... .. . ... : ... .. . ...
ROW 15 : ... .. . ... : ... .. . ... : ... .. . ... : ... .. . ... : ... .. . ...
ROW 16 : ... .. . ... : ... .. . ... : ... .. . ... : ... .. . ... : ... .. . ...
ROW 17 : ... .. . S02 : ... .. . S01 : ... .. . ... : ... .. . ... : ... .. . ...
ROW 18 : G#3 13 . ... : F#3 0C . ... : G#3 1A . ... : ... .. . ... : ... .. . ...
ROW 19 : ... .. . ... : ... .. . ... : ... .. . ... : ... .. . ... : ... .. . ...
ROW 1A : ... .. . ... : ... .. . ... : ... .. . ... : ... .. . ... : ... .. . ...
ROW 1B : ... .. . S02 : ... .. . S01 : ... .. . ... : ... .. . ... : ... .. . ...
ROW 1C : C#4 13 . ... : F#3 0A . ... : G#2 1A . ... : ... .. . ... : ... .. . ...
ROW 1D : ... .. . ... : ... .. . ... : ... .. . ... : ... .. . ... : ... .. . ...
ROW 1E : ... .. . ... : ... .. . ... : ... .. . ... : ... .. . ... : ... .. . ...
ROW 1F : ... .. . ... : ... .. . S01 : ... .. . ... : ... .. . ... : ... .. . ...
ROW 20 : ... .. . ... : F#3 0A . ... : G#3 1A . ... : ... .. . ... : ... .. . ...
ROW 21 : ... .. . ... : ... .. . ... : ... .. . ... : ... .. . ... : ... .. . ...
ROW 22 : ... .. . 484 : ... .. . ... : ... .. . ... : ... .. . ... : ... .. . ...
ROW 23 : ... .. . S02 : ... .. . S01 : ... .. . ... : ... .. . ... : ... .. . ...
ROW 24 : B-3 13 . 400 : F#2 0A . ... : G#2 1A . ... : ... .. . ... : ... .. . ...
ROW 25 : ... .. . ... : ... .. . ... : ... .. . ... : ... .. . ... : ... .. . ...
ROW 26 : ... .. . ... : ... .. . ... : ... .. . ... : ... .. . ... : ... .. . ...
ROW 27 : ... .. . S02 : ... .. . S01 : ... .. . ... : ... .. . ... : ... .. . ...
ROW 28 : A#3 13 . ... : F#2 0A . ... : G#3 1A . ... : ... .. . ... : ... .. . ...
ROW 29 : ... .. . ... : ... .. . ... : ... .. . ... : ... .. . ... : ... .. . ...
ROW 2A : ... .. . ... : ... .. . ... : ... .. . ... : ... .. . ... : ... .. . ...
ROW 2B : ... .. . S02 : ... .. . S01 : ... .. . ... : ... .. . ... : ... .. . ...
ROW 2C : B-3 13 . ... : B-3 0A . ... : G#2 1A . ... : ... .. . ... : ... .. . ...
ROW 2D : ... .. . ... : ... .. . ... : ... .. . ... : ... .. . ... : ... .. . ...
ROW 2E : ... .. . ... : ... .. . ... : ... .. . ... : ... .. . ... : ... .. . ...
ROW 2F : ... .. . S02 : ... .. . S01 : ... .. . ... : ... .. . ... : ... .. . ...
ROW 30 : B-3 13 . ... : B-3 0A . ... : G#3 1A . ... : ... .. . ... : ... .. . ...
ROW 31 : ... .. . ... : ... .. . ... : ... .. . ... : ... .. . ... : ... .. . ...
ROW 32 : ... .. . ... : ... .. . ... : ... .. . ... : ... .. . ... : ... .. . ...
ROW 33 : ... .. . S02 : ... .. . S01 : ... .. . ... : ... .. . ... : ... .. . ...
ROW 34 : A#3 13 . ... : F#3 0A . ... : G#2 1A . ... : ... .. . ... : ... .. . ...
ROW 35 : ... .. . ... : ... .. . ... : ... .. . ... : ... .. . ... : ... .. . ...
ROW 36 : ... .. . ... : ... .. . ... : ... .. . ... : ... .. . ... : ... .. . ...
ROW 37 : ... .. . S02 : ... .. . S01 : ... .. . ... : ... .. . ... : ... .. . ...
ROW 38 : F#3 13 . ... : F#3 0A . ... : G#3 1A . ... : ... .. . ... : ... .. . ...
ROW 39 : ... .. . ... : ... .. . ... : ... .. . ... : ... .. . ... : ... .. . ...
ROW 3A : ... .. . ... : ... .. . ... : ... .. . ... : ... .. . ... : ... .. . ...
ROW 3B : ... .. . S02 : ... .. . S01 : ... .. . ... : ... .. . ... : ... .. . ...
ROW 3C : G#3 13 . ... : G#3 0A . ... : G#2 1A . ... : ... .. . ... : ... .. . ...
ROW 3D : ... .. . ... : ... .. . ... : ... .. . ... : ... .. . ... : ... .. . ...
ROW 3E : ... .. . ... : ... .. . ... : ... .. . ... : ... .. . ... : ... .. . ...
ROW 3F : ... .. . ... : ... .. . S01 : ... .. . ... : ... .. . ... : ... .. . ...
PATTERN 0F
ROW 00 : ... .. . ... : G#3 0A A 400 : G#3 1A . ... : ... .. . ... : ... .. . ...
ROW 01 : ... .. . ... : ... .. . ... : ... .. . ... : ... .. . ... : ... .. . ...
ROW 02 : ... .. . 484 : ... .. . ... : ... .. . ... : ... .. . ... : ... .. . ...
ROW 03 : ... .. . ... : ... .. . ... : ... .. . ... : ... .. . ... : ... .. . ...
ROW 04 : --- .. . 400 : D#4 1A 9 ... : G#2 1A . ... : ... .. . ... : ... .. . ...
ROW 05 : ... .. . ... : ... .. 8 ... : ... .. . ... : ... .. . ... : ... .. . ...
ROW 06 : ... .. . ... : ... .. 7 ... : ... .. . ... : ... .. . ... : ... .. . ...
ROW 07 : ... .. . ... : ... .. 6 ... : ... .. . ... : ... .. . ... : ... .. . ...
ROW 08 : A#3 13 . ... : A#3 05 9 ... : G#3 1A . ... : ... .. . ... : ... .. . ...
ROW 09 : ... .. . ... : ... .. . ... : ... .. . ... : ... .. . ... : ... .. . ...
ROW 0A : ... .. . ... : ... .. . ... : ... .. . ... : ... .. . ... : ... .. . ...
ROW 0B : ... .. . S02 : ... .. . ... : ... .. . ... : ... .. . ... : ... .. . ...
ROW 0C : B-3 13 . ... : D#4 1A 9 ... : G#2 1A . ... : ... .. . ... : ... .. . ...
ROW 0D : ... .. . ... : ... .. 8 ... : ... .. . ... : ... .. . ... : ... .. . ...
ROW 0E : ... .. . ... : ... .. 7 ... : ... .. . ... : ... .. . ... : ... .. . ...
ROW 0F : ... .. . S02 : ... .. 6 ... : ... .. . ... : ... .. . ... : ... .. . ...
ROW 10 : B-3 13 . ... : B-3 05 9 ... : G#3 0D . ... : ... .. . ... : ... .. . ...
ROW 11 : ... .. . ... : ... .. . ... : ... .. . ... : ... .. . ... : ... .. . ...
ROW 12 : ... .. . ... : ... .. . ... : ... .. . ... : ... .. . ... : ... .. . ...
ROW 13 : ... .. . S02 : ... .. . ... : ... .. . ... : ... .. . ... : ... .. . ...
ROW 14 : A#3 13 . ... : D#4 1A 9 ... : G#2 0D . ... : ... .. . ... : ... .. . ...
ROW 15 : ... .. . ... : ... .. 8 ... : ... .. . ... : ... .. . ... : ... .. . ...
ROW 16 : ... .. . ... : ... .. 7 ... : ... .. . ... : ... .. . ... : ... .. . ...
ROW 17 : ... .. . S02 : ... .. 6 ... : ... .. . ... : ... .. . ... : ... .. . ...
ROW 18 : G#3 13 . ... : G#3 05 9 ... : G#3 0D . ... : ... .. . ... : ... .. . ...
ROW 19 : ... .. . ... : ... .. . ... : ... .. . ... : ... .. . ... : ... .. . ...
ROW 1A : ... .. . ... : ... .. . ... : ... .. . ... : ... .. . ... : ... .. . ...
ROW 1B : ... .. . S02 : ... .. . S02 : ... .. . ... : ... .. . ... : ... .. . ...
ROW 1C : G#3 13 . ... : E-3 05 . ... : G#2 0D . ... : ... .. . ... : ... .. . ...
ROW 1D : ... .. . ... : ... .. . ... : ... .. . ... : ... .. . ... : ... .. . ...
ROW 1E : ... .. . ... : ... .. . ... : ... .. . ... : ... .. . ... : ... .. . ...
ROW 1F : ... .. . ... : ... .. . ... : ... .. . ... : ... .. . ... : ... .. . ...
ROW 20 : ... .. . ... : E-3 1A 9 ... : G#3 0D . ... : ... .. . ... : ... .. . ...
ROW 21 : ... .. . ... : ... .. 8 ... : ... .. . ... : ... .. . ... : ... .. . ...
ROW 22 : ... .. . 484 : ... .. 7 ... : ... .. . ... : ... .. . ... : ... .. . ...
ROW 23 : ... .. . ... : ... .. 6 ... : --- .. . ... : ... .. . ... : ... .. . ...
ROW 24 : --- .. . 400 : B-3 1A 9 ... : G#2 0D . ... : ... .. . ... : ... .. . ...
ROW 25 : ... .. . ... : ... .. 8 ... : ... .. . ... : ... .. . ... : ... .. . ...
ROW 26 : ... .. . ... : ... .. 7 ... : ... .. . ... : ... .. . ... : ... .. . ...
ROW 27 : ... .. . ... : ... .. 6 ... : --- .. . ... : ... .. . ... : ... .. . ...
ROW 28 : A#3 13 . ... : E-4 1A 9 ... : G#3 0D . ... : ... .. . ... : ... .. . ...
ROW 29 : ... .. . ... : ... .. 8 ... : ... .. . ... : ... .. . ... : ... .. . ...
ROW 2A : ... .. . ... : ... .. 7 ... : ... .. . ... : ... .. . ... : ... .. . ...
ROW 2B : ... .. . S02 : ... .. 6 ... : --- .. . ... : ... .. . ... : ... .. . ...
ROW 2C : B-3 13 . ... : B-3 1A 9 ... : G#2 0D . ... : ... .. . ... : ... .. . ...
ROW 2D : ... .. . ... : ... .. 8 ... : ... .. . ... : ... .. . ... : ... .. . ...
ROW 2E : ... .. . ... : ... .. 7 ... : --- .. . ... : ... .. . ... : ... .. . ...
ROW 2F : ... .. . S02 : ... .. 6 ... : --- .. . ... : ... .. . ... : ... .. . ...
ROW 30 : B-3 13 . ... : E-3 1A 9 ... : G#3 0D . ... : ... .. . ... : ... .. . ...
ROW 31 : ... .. . ... : ... .. 8 ... : ... .. . ... : ... .. . ... : ... .. . ...
ROW 32 : ... .. . ... : ... .. 7 ... : --- .. . ... : ... .. . ... : ... .. . ...
ROW 33 : ... .. . S02 : ... .. 6 ... : --- .. . ... : ... .. . ... : ... .. . ...
ROW 34 : A#3 13 . ... : B-3 1A 9 ... : G#2 0D . ... : ... .. . ... : ... .. . ...
ROW 35 : ... .. . ... : ... .. 8 ... : ... .. . ... : ... .. . ... : ... .. . ...
ROW 36 : ... .. . ... : ... .. 7 ... : --- .. . ... : ... .. . ... : ... .. . ...
ROW 37 : ... .. . S02 : ... .. 6 ... : --- .. . ... : ... .. . ... : ... .. . ...
ROW 38 : G#3 13 . ... : E-4 1A 9 ... : G#3 0D . ... : ... .. . ... : ... .. . ...
ROW 39 : ... .. . ... : ... .. 8 ... : ... .. . ... : ... .. . ... : ... .. . ...
ROW 3A : ... .. . ... : ... .. 7 ... : --- .. . ... : ... .. . ... : ... .. . ...
ROW 3B : ... .. . S02 : ... .. 6 ... : --- .. . ... : ... .. . ... : ... .. . ...
ROW 3C : F#3 13 . ... : B-3 1A 9 ... : G#2 0D . ... : ... .. . ... : ... .. . ...
ROW 3D : ... .. . ... : ... .. 8 ... : ... .. . ... : ... .. . ... : ... .. . ...
ROW 3E : ... .. . ... : ... .. 7 ... : --- .. . ... : ... .. . ... : ... .. . ...
ROW 3F : ... .. . ... : ... .. 6 ... : --- .. . ... : ... .. . ... : ... .. . ...
PATTERN 10
ROW 00 : ... .. A ... : B-3 05 9 400 : G#1 0D . ... : ... .. . ... : ... .. . ...
ROW 01 : ... .. . ... : ... .. . ... : ... .. . ... : ... .. . ... : ... .. . ...
ROW 02 : ... .. . 484 : ... .. . ... : --- .. . ... : ... .. . ... : ... .. . ...
ROW 03 : ... .. . ... : ... .. . ... : ... .. . ... : ... .. . ... : ... .. . ...
ROW 04 : --- .. . 400 : F#4 1A 9 ... : G#1 0D . ... : ... .. . ... : ... .. . ...
ROW 05 : ... .. . ... : ... .. 8 ... : ... .. . ... : ... .. . ... : ... .. . ...
ROW 06 : ... .. . ... : ... .. 7 ... : --- .. . ... : ... .. . ... : ... .. . ...
ROW 07 : ... .. . ... : ... .. 6 ... : ... .. . ... : ... .. . ... : ... .. . ...
ROW 08 : A#3 13 . ... : A#3 05 9 ... : G#1 0D . ... : ... .. . ... : ... .. . ...
ROW 09 : ... .. . ... : ... .. . ... : ... .. . ... : ... .. . ... : ... .. . ...
ROW 0A : ... .. . ... : ... .. . ... : --- .. . ... : ... .. . ... : ... .. . ...
ROW 0B : ... .. . S02 : ... .. . ... : ... .. . ... : ... .. . ... : ... .. . ...
ROW 0C : B-3 13 . ... : F#4 1A 9 ... : G#1 0D . ... : ... .. . ... : ... .. . ...
ROW 0D : ... .. . ... : ... .. 8 ... : ... .. . ... : ... .. . ... : ... .. . ...
ROW 0E : ... .. . ... : ... .. 7 ... : --- .. . ... : ... .. . ... : ... .. . ...
ROW 0F : ... .. . S02 : ... .. 6 ... : ... .. . ... : ... .. . ... : ... .. . ...
ROW 10 : B-3 13 . ... : B-3 05 9 ... : G#1 0D . ... : ... .. . ... : ... .. . ...
ROW 11 : ... .. . ... : ... .. . ... : ... .. . ... : ... .. . ... : ... .. . ...
ROW 12 : ... .. . ... : ... .. . ... : --- .. . ... : ... .. . ... : ... .. . ...
ROW 13 : ... .. . S02 : ... .. . ... : ... .. . ... : ... .. . ... : ... .. . ...
ROW 14 : A#3 13 . ... : F#4 1A 9 ... : G#1 0D . ... : ... .. . ... : ... .. . ...
ROW 15 : ... .. . ... : ... .. 8 ... : --- .. . ... : ... .. . ... : ... .. . ...
ROW 16 : ... .. . ... : ... .. 7 ... : ... .. . ... : ... .. . ... : ... .. . ...
ROW 17 : ... .. . S02 : ... .. 6 ... : ... .. . ... : ... .. . ... : ... .. . ...
ROW 18 : G#3 13 . ... : F#3 05 9 ... : G#0 0D . ... : ... .. . ... : ... .. . ...
ROW 19 : ... .. . ... : ... .. . ... : --- .. . ... : ... .. . ... : ... .. . ...
ROW 1A : ... .. . ... : ... .. . ... : ... .. . ... : ... .. . ... : ... .. . ...
ROW 1B : ... .. . S02 : ... .. . S02 : ... .. . ... : ... .. . ... : ... .. . ...
ROW 1C : C#4 13 . ... : C#4 05 . ... : G#0 0D . ... : ... .. . ... : ... .. . ...
ROW 1D : ... .. . ... : ... .. . ... : --- .. . ... : ... .. . ... : ... .. . ...
ROW 1E : ... .. . ... : ... .. . ... : ... .. . ... : ... .. . ... : ... .. . ...
ROW 1F : ... .. . ... : ... .. . ... : ... .. . ... : ... .. . ... : ... .. . ...
ROW 20 : ... .. . ... : F#3 1A 9 ... : ... .. . ... : ... .. . ... : ... .. . ...
ROW 21 : ... .. . ... : ... .. 8 ... : ... .. . ... : ... .. . ... : ... .. . ...
ROW 22 : ... .. . 484 : ... .. 7 ... : ... .. . ... : ... .. . ... : ... .. . ...
ROW 23 : ... .. . S02 : ... .. 6 ... : ... .. . ... : ... .. . ... : ... .. . ...
ROW 24 : B-3 13 . 400 : C#4 1A 9 ... : ... .. . ... : ... .. . ... : ... .. . ...
ROW 25 : ... .. . ... : ... .. 8 ... : ... .. . ... : ... .. . ... : ... .. . ...
ROW 26 : ... .. . ... : ... .. 7 ... : ... .. . ... : ... .. . ... : ... .. . ...
ROW 27 : ... .. . S02 : ... .. 6 ... : ... .. . ... : ... .. . ... : ... .. . ...
ROW 28 : A#3 13 . ... : F#4 1A 9 ... : ... .. . ... : ... .. . ... : ... .. . ...
ROW 29 : ... .. . ... : ... .. 8 ... : ... .. . ... : ... .. . ... : ... .. . ...
ROW 2A : ... .. . ... : ... .. 7 ... : ... .. . ... : ... .. . ... : ... .. . ...
ROW 2B : ... .. . S02 : ... .. 6 ... : ... .. . ... : ... .. . ... : ... .. . ...
ROW 2C : B-3 13 . ... : C#4 1A 9 ... : ... .. . ... : ... .. . ... : ... .. . ...
ROW 2D : ... .. . ... : ... .. 8 ... : ... .. . ... : ... .. . ... : ... .. . ...
ROW 2E : ... .. . ... : ... .. 7 ... : ... .. . ... : ... .. . ... : ... .. . ...
ROW 2F : ... .. . S02 : ... .. 6 ... : ... .. . ... : ... .. . ... : ... .. . ...
ROW 30 : B-3 13 . ... : G#3 1A 9 ... : ... .. . ... : ... .. . ... : ... .. . ...
ROW 31 : ... .. . ... : ... .. 8 ... : ... .. . ... : ... .. . ... : ... .. . ...
ROW 32 : ... .. . ... : ... .. 7 ... : ... .. . ... : ... .. . ... : ... .. . ...
ROW 33 : ... .. . S02 : ... .. 6 ... : ... .. . ... : ... .. . ... : ... .. . ...
ROW 34 : A#3 13 . ... : C#4 1A 9 ... : ... .. . ... : ... .. . ... : ... .. . ...
ROW 35 : ... .. . ... : ... .. 8 ... : ... .. . ... : ... .. . ... : ... .. . ...
ROW 36 : ... .. . ... : ... .. 7 ... : ... .. . ... : ... .. . ... : ... .. . ...
ROW 37 : ... .. . S02 : ... .. 6 ... : ... .. . ... : ... .. . ... : ... .. . ...
ROW 38 : F#3 13 . ... : F#4 1A 9 ... : ... .. . ... : ... .. . ... : ... .. . ...
ROW 39 : ... .. . ... : ... .. 8 ... : ... .. . ... : ... .. . ... : ... .. . ...
ROW 3A : ... .. . ... : ... .. 7 ... : ... .. . ... : ... .. . ... : ... .. . ...
ROW 3B : ... .. . ... : ... .. 6 ... : ... .. . ... : ... .. . ... : ... .. . ...
ROW 3C : ... .. . ... : D#4 1A 9 ... : ... .. . ... : ... .. . ... : ... .. . ...
ROW 3D : ... .. . ... : ... .. 8 ... : ... .. . ... : ... .. . ... : ... .. . ...
ROW 3E : ... .. . 484 : ... .. 7 ... : ... .. . ... : ... .. . ... : ... .. . ...
ROW 3F : ... .. . S02 : ... .. 6 ... : ... .. . ... : ... .. . ... : ... .. . ...
PATTERN 11
ROW 00 : G#3 13 A 400 : G#3 05 9 400 : ... .. . ... : ... .. . ... : ... .. . ...
ROW 01 : ... .. . ... : ... .. . ... : ... .. . ... : ... .. . ... : ... .. . ...
ROW 02 : ... .. . ... : ... .. . ... : ... .. . ... : ... .. . ... : ... .. . ...
ROW 03 : ... .. . ... : ... .. . ... : ... .. . ... : ... .. . ... : ... .. . ...
ROW 04 : --- .. . ... : D#4 1A 9 ... : ... .. . ... : ... .. . ... : ... .. . ...
ROW 05 : ... .. . ... : ... .. 8 ... : ... .. . ... : ... .. . ... : ... .. . ...
ROW 06 : ... .. . ... : ... .. 7 ... : ... .. . ... : ... .. . ... : ... .. . ...
ROW 07 : ... .. . ... : ... .. 6 ... : ... .. . ... : ... .. . ... : ... .. . ...
ROW 08 : A#3 13 . ... : A#3 05 9 ... : ... .. . ... : ... .. . ... : ... .. . ...
ROW 09 : ... .. . ... : ... .. . ... : ... .. . ... : ... .. . ... : ... .. . ...
ROW 0A : ... .. . ... : ... .. . ... : ... .. . ... : ... .. . ... : ... .. . ...
ROW 0B : ... .. . S02 : ... .. . ... : ... .. . ... : ... .. . ... : ... .. . ...
ROW 0C : B-3 13 . ... : D#4 1A 9 ... : ... .. . ... : ... .. . ... : ... .. . ...
ROW 0D : ... .. . ... : ... .. 8 ... : ... .. . ... : ... .. . ... : ... .. . ...
ROW 0E : ... .. . ... : ... .. 7 ... : ... .. . ... : ... .. . ... : ... .. . ...
ROW 0F : ... .. . S02 : ... .. 6 ... : ... .. . ... : ... .. . ... : ... .. . ...
ROW 10 : B-3 13 . ... : B-3 05 9 ... : ... .. . ... : ... .. . ... : ... .. . ...
ROW 11 : ... .. . ... : ... .. . ... : ... .. . ... : ... .. . ... : ... .. . ...
ROW 12 : ... .. . ... : ... .. . ... : ... .. . ... : ... .. . ... : ... .. . ...
ROW 13 : ... .. . S02 : ... .. . ... : ... .. . ... : ... .. . ... : ... .. . ...
ROW 14 : A#3 13 . ... : D#4 1A 9 ... : ... .. . ... : ... .. . ... : ... .. . ...
ROW 15 : ... .. . ... : ... .. 8 ... : ... .. . ... : ... .. . ... : ... .. . ...
ROW 16 : ... .. . ... : ... .. 7 ... : ... .. . ... : ... .. . ... : ... .. . ...
ROW 17 : ... .. . S02 : ... .. 6 ... : ... .. . ... : ... .. . ... : ... .. . ...
ROW 18 : G#3 13 . ... : G#3 05 9 ... : ... .. . ... : ... .. . ... : ... .. . ...
ROW 19 : ... .. . ... : ... .. . ... : ... .. . ... : ... .. . ... : ... .. . ...
ROW 1A : ... .. . ... : ... .. . ... : ... .. . ... : ... .. . ... : ... .. . ...
ROW 1B : ... .. . S02 : ... .. . S02 : ... .. . ... : ... .. . ... : ... .. . ...
ROW 1C : G#3 14 D ... : B-3 05 . ... : ... .. . ... : ... .. . ... : ... .. . ...
ROW 1D : ... .. . ... : ... .. . ... : ... .. . ... : ... .. . ... : ... .. . ...
ROW 1E : ... .. . ... : ... .. . ... : ... .. . ... : ... .. . ... : ... .. . ...
ROW 1F : ... .. . ... : ... .. . ... : ... .. . ... : ... .. . ... : ... .. . ...
ROW 20 : ... .. . ... : E-3 1A 9 ... : ... .. . ... : ... .. . ... : ... .. . ...
ROW 21 : ... .. . ... : ... .. 8 ... : ... .. . ... : ... .. . ... : ... .. . ...
ROW 22 : ... .. . 484 : ... .. 7 ... : ... .. . ... : ... .. . ... : ... .. . ...
ROW 23 : ... .. . ... : ... .. 6 ... : ... .. . ... : ... .. . ... : ... .. . ...
ROW 24 : --- .. A 400 : B-3 1A 9 ... : ... .. . ... : ... .. . ... : ... .. . ...
ROW 25 : ... .. . ... : ... .. 8 ... : ... .. . ... : ... .. . ... : ... .. . ...
ROW 26 : ... .. . ... : ... .. 7 ... : ... .. . ... : ... .. . ... : ... .. . ...
ROW 27 : ... .. . ... : ... .. 6 ... : ... .. . ... : ... .. . ... : ... .. . ...
ROW 28 : A#3 13 . ... : E-4 1A 9 ... : ... .. . ... : ... .. . ... : ... .. . ...
ROW 29 : ... .. . ... : ... .. 8 ... : ... .. . ... : ... .. . ... : ... .. . ...
ROW 2A : ... .. . ... : ... .. 7 ... : ... .. . ... : ... .. . ... : ... .. . ...
ROW 2B : ... .. . S02 : ... .. 6 ... : ... .. . ... : ... .. . ... : ... .. . ...
ROW 2C : B-3 13 . ... : B-3 1A 9 ... : ... .. . ... : ... .. . ... : ... .. . ...
ROW 2D : ... .. . ... : ... .. 8 ... : ... .. . ... : ... .. . ... : ... .. . ...
ROW 2E : ... .. . ... : ... .. 7 ... : ... .. . ... : ... .. . ... : ... .. . ...
ROW 2F : ... .. . S02 : ... .. 6 ... : ... .. . ... : ... .. . ... : ... .. . ...
ROW 30 : B-3 13 . ... : E-3 1A 9 ... : ... .. . ... : ... .. . ... : ... .. . ...
ROW 31 : ... .. . ... : ... .. 8 ... : ... .. . ... : ... .. . ... : ... .. . ...
ROW 32 : ... .. . ... : ... .. 7 ... : ... .. . ... : ... .. . ... : ... .. . ...
ROW 33 : ... .. . S02 : ... .. 6 ... : ... .. . ... : ... .. . ... : ... .. . ...
ROW 34 : A#3 13 . ... : B-3 1A 9 ... : ... .. . ... : ... .. . ... : ... .. . ...
ROW 35 : ... .. . ... : ... .. 8 ... : ... .. . ... : ... .. . ... : ... .. . ...
ROW 36 : ... .. . ... : ... .. 7 ... : ... .. . ... : ... .. . ... : ... .. . ...
ROW 37 : ... .. . S02 : ... .. 6 ... : ... .. . ... : ... .. . ... : ... .. . ...
ROW 38 : G#3 13 . ... : E-4 1A 9 ... : ... .. . ... : ... .. . ... : ... .. . ...
ROW 39 : ... .. . ... : ... .. 8 ... : ... .. . ... : ... .. . ... : ... .. . ...
ROW 3A : ... .. . ... : ... .. 7 ... : ... .. . ... : ... .. . ... : ... .. . ...
ROW 3B : ... .. . S02 : ... .. 6 ... : ... .. . ... : ... .. . ... : ... .. . ...
ROW 3C : F#3 17 D ... : B-3 1A 9 ... : ... .. . ... : ... .. . ... : ... .. . ...
ROW 3D : ... .. . ... : ... .. 8 ... : ... .. . ... : ... .. . ... : ... .. . ...
ROW 3E : ... .. . ... : ... .. 7 ... : ... .. . ... : ... .. . ... : ... .. . ...
ROW 3F : ... .. . ... : ... .. 6 ... : ... .. . ... : ... .. . ... : ... .. . ...
PATTERN 12
ROW 00 : ... .. . ... : B-3 05 9 400 : ... .. . ... : ... .. . ... : ... .. . ...
ROW 01 : ... .. . ... : ... .. . ... : ... .. . ... : ... .. . ... : ... .. . ...
ROW 02 : ... .. . 484 : ... .. . ... : ... .. . ... : ... .. . ... : ... .. . ...
ROW 03 : ... .. . ... : ... .. . ... : ... .. . ... : ... .. . ... : ... .. . ...
ROW 04 : --- .. A 400 : F#4 1A 9 ... : ... .. . ... : ... .. . ... : ... .. . ...
ROW 05 : ... .. . ... : ... .. 8 ... : ... .. . ... : ... .. . ... : ... .. . ...
ROW 06 : ... .. . ... : ... .. 7 ... : ... .. . ... : ... .. . ... : ... .. . ...
ROW 07 : ... .. . ... : ... .. 6 ... : ... .. . ... : ... .. . ... : ... .. . ...
ROW 08 : A#3 13 . ... : A#3 05 9 ... : ... .. . ... : ... .. . ... : ... .. . ...
ROW 09 : ... .. . ... : ... .. . ... : ... .. . ... : ... .. . ... : ... .. . ...
ROW 0A : ... .. . ... : ... .. . ... : ... .. . ... : ... .. . ... : ... .. . ...
ROW 0B : ... .. . S02 : ... .. . ... : ... .. . ... : ... .. . ... : ... .. . ...
ROW 0C : B-3 13 . ... : F#4 1A 9 ... : ... .. . ... : ... .. . ... : ... .. . ...
ROW 0D : ... .. . ... : ... .. 8 ... : ... .. . ... : ... .. . ... : ... .. . ...
ROW 0E : ... .. . ... : ... .. 7 ... : ... .. . ... : ... .. . ... : ... .. . ...
ROW 0F : ... .. . S02 : ... .. 6 ... : ... .. . ... : ... .. . ... : ... .. . ...
ROW 10 : B-3 13 . ... : B-3 05 9 ... : ... .. . ... : ... .. . ... : ... .. . ...
ROW 11 : ... .. . ... : ... .. . ... : ... .. . ... : ... .. . ... : ... .. . ...
ROW 12 : ... .. . ... : ... .. . ... : ... .. . ... : ... .. . ... : ... .. . ...
ROW 13 : ... .. . S02 : ... .. . ... : ... .. . ... : ... .. . ... : ... .. . ...
ROW 14 : A#3 13 . ... : F#4 1A 9 ... : ... .. . ... : ... .. . ... : ... .. . ...
ROW 15 : ... .. . ... : ... .. 8 ... : ... .. . ... : ... .. . ... : ... .. . ...
ROW 16 : ... .. . ... : ... .. 7 ... : ... .. . ... : ... .. . ... : ... .. . ...
ROW 17 : ... .. . S02 : ... .. 6 ... : ... .. . ... : ... .. . ... : ... .. . ...
ROW 18 : G#3 13 . ... : F#3 05 9 ... : ... .. . ... : ... .. . ... : ... .. . ...
ROW 19 : ... .. . ... : ... .. . ... : ... .. . ... : ... .. . ... : ... .. . ...
ROW 1A : ... .. . ... : ... .. . ... : ... .. . ... : ... .. . ... : ... .. . ...
ROW 1B : ... .. . S02 : ... .. . S02 : ... .. . ... : ... .. . ... : ... .. . ...
ROW 1C : C#4 18 D ... : C#4 05 . ... : ... .. . ... : ... .. . ... : ... .. . ...
ROW 1D : ... .. . ... : ... .. . ... : ... .. . ... : ... .. . ... : ... .. . ...
ROW 1E : ... .. . ... : ... .. . ... : ... .. . ... : ... .. . ... : ... .. . ...
ROW 1F : ... .. . ... : ... .. . ... : ... .. . ... : ... .. . ... : ... .. . ...
ROW 20 : ... .. . ... : F#3 1A 9 ... : ... .. . ... : ... .. . ... : ... .. . ...
ROW 21 : ... .. . ... : ... .. 8 ... : ... .. . ... : ... .. . ... : ... .. . ...
ROW 22 : ... .. . 484 : ... .. 7 ... : ... .. . ... : ... .. . ... : ... .. . ...
ROW 23 : ... .. . S02 : ... .. 6 ... : ... .. . ... : ... .. . ... : ... .. . ...
ROW 24 : B-3 13 A 400 : C#4 1A 9 ... : ... .. . ... : ... .. . ... : ... .. . ...
ROW 25 : ... .. . ... : ... .. 8 ... : ... .. . ... : ... .. . ... : ... .. . ...
ROW 26 : ... .. . ... : ... .. 7 ... : ... .. . ... : ... .. . ... : ... .. . ...
ROW 27 : ... .. . S02 : ... .. 6 ... : ... .. . ... : ... .. . ... : ... .. . ...
ROW 28 : A#3 13 . ... : F#4 1A 9 ... : ... .. . ... : ... .. . ... : ... .. . ...
ROW 29 : ... .. . ... : ... .. 8 ... : ... .. . ... : ... .. . ... : ... .. . ...
ROW 2A : ... .. . ... : ... .. 7 ... : ... .. . ... : ... .. . ... : ... .. . ...
ROW 2B : ... .. . S02 : ... .. 6 ... : ... .. . ... : ... .. . ... : ... .. . ...
ROW 2C : B-3 13 . ... : C#4 1A 9 ... : ... .. . ... : ... .. . ... : ... .. . ...
ROW 2D : ... .. . ... : ... .. 8 ... : ... .. . ... : ... .. . ... : ... .. . ...
ROW 2E : ... .. . ... : ... .. 7 ... : ... .. . ... : ... .. . ... : ... .. . ...
ROW 2F : ... .. . S02 : ... .. 6 ... : ... .. . ... : ... .. . ... : ... .. . ...
ROW 30 : B-3 13 . ... : B-3 1D A ... : ... .. . ... : ... .. . ... : ... .. . ...
ROW 31 : ... .. . ... : ... .. . ... : ... .. . ... : ... .. . ... : ... .. . ...
ROW 32 : ... .. . ... : ... .. . ... : ... .. . ... : ... .. . ... : ... .. . ...
ROW 33 : ... .. . S02 : ... .. . ... : ... .. . ... : ... .. . ... : ... .. . ...
ROW 34 : A#3 13 . ... : C#4 1A 9 ... : ... .. . ... : ... .. . ... : ... .. . ...
ROW 35 : ... .. . ... : ... .. 8 ... : ... .. . ... : ... .. . ... : ... .. . ...
ROW 36 : ... .. . ... : ... .. 7 ... : ... .. . ... : ... .. . ... : ... .. . ...
ROW 37 : ... .. . S02 : ... .. 6 ... : ... .. . ... : ... .. . ... : ... .. . ...
ROW 38 : F#3 13 . ... : A#3 1E A ... : ... .. . ... : ... .. . ... : ... .. . ...
ROW 39 : ... .. . ... : ... .. . ... : ... .. . ... : ... .. . ... : ... .. . ...
ROW 3A : ... .. . ... : ... .. . ... : ... .. . ... : ... .. . ... : ... .. . ...
ROW 3B : ... .. . S02 : ... .. . ... : ... .. . ... : ... .. . ... : ... .. . ...
ROW 3C : G#3 13 . ... : D#4 1A 9 ... : ... .. . ... : ... .. . ... : ... .. . ...
ROW 3D : ... .. . ... : ... .. 8 ... : ... .. . ... : ... .. . ... : ... .. . ...
ROW 3E : ... .. . ... : ... .. 7 ... : ... .. . ... : ... .. . ... : ... .. . ...
ROW 3F : ... .. . ... : ... .. 6 ... : ... .. . ... : ... .. . ... : ... .. . ...
PATTERN 13
ROW 00 : ... .. A ... : G#3 0A A 400 : ... .. . ... : ... .. . ... : ... .. . ...
ROW 01 : ... .. . ... : ... .. . ... : ... .. . ... : ... .. . ... : ... .. . ...
ROW 02 : ... .. . 484 : ... .. . ... : ... .. . ... : ... .. . ... : ... .. . ...
ROW 03 : ... .. . ... : ... .. . ... : ... .. . ... : ... .. . ... : ... .. . ...
ROW 04 : --- .. . 400 : D#4 1A 9 ... : ... .. . ... : ... .. . ... : ... .. . ...
ROW 05 : ... .. . ... : ... .. 8 ... : ... .. . ... : ... .. . ... : ... .. . ...
ROW 06 : ... .. . ... : ... .. 7 ... : ... .. . ... : ... .. . ... : ... .. . ...
ROW 07 : ... .. . ... : ... .. 6 ... : ... .. . ... : ... .. . ... : ... .. . ...
ROW 08 : A#3 13 . ... : A#3 21 A ... : ... .. . ... : ... .. . ... : ... .. . ...
ROW 09 : ... .. . ... : ... .. . ... : ... .. . ... : ... .. . ... : ... .. . ...
ROW 0A : ... .. . ... : ... .. . ... : ... .. . ... : ... .. . ... : ... .. . ...
ROW 0B : ... .. . S02 : ... .. . ... : ... .. . ... : ... .. . ... : ... .. . ...
ROW 0C : B-3 13 . ... : D#4 1A 9 ... : ... .. . ... : ... .. . ... : ... .. . ...
ROW 0D : ... .. . ... : ... .. 8 ... : ... .. . ... : ... .. . ... : ... .. . ...
ROW 0E : ... .. . ... : ... .. 7 ... : ... .. . ... : ... .. . ... : ... .. . ...
ROW 0F : ... .. . S02 : ... .. 6 ... : ... .. . ... : ... .. . ... : ... .. . ...
ROW 10 : B-3 13 . ... : B-3 22 A ... : ... .. . ... : ... .. . ... : ... .. . ...
ROW 11 : ... .. . ... : ... .. . ... : ... .. . ... : ... .. . ... : ... .. . ...
ROW 12 : ... .. . ... : ... .. . ... : ... .. . ... : ... .. . ... : ... .. . ...
ROW 13 : ... .. . S02 : ... .. . ... : ... .. . ... : ... .. . ... : ... .. . ...
ROW 14 : A#3 13 . ... : D#4 1A 9 ... : ... .. . ... : ... .. . ... : ... .. . ...
ROW 15 : ... .. . ... : ... .. 8 ... : ... .. . ... : ... .. . ... : ... .. . ...
ROW 16 : ... .. . ... : ... .. 7 ... : ... .. . ... : ... .. . ... : ... .. . ...
ROW 17 : ... .. . S02 : ... .. 6 ... : ... .. . ... : ... .. . ... : ... .. . ...
ROW 18 : G#3 13 . ... : G#3 0A A ... : ... .. . ... : ... .. . ... : ... .. . ...
ROW 19 : ... .. . ... : ... .. . ... : ... .. . ... : ... .. . ... : ... .. . ...
ROW 1A : ... .. . ... : ... .. . ... : ... .. . ... : ... .. . ... : ... .. . ...
ROW 1B : ... .. . S02 : ... .. . S02 : ... .. . ... : ... .. . ... : ... .. . ...
ROW 1C : G#3 14 D ... : E-3 05 . ... : ... .. . ... : ... .. . ... : ... .. . ...
ROW 1D : ... .. . ... : ... .. . ... : ... .. . ... : ... .. . ... : ... .. . ...
ROW 1E : ... .. . ... : ... .. . ... : ... .. . ... : ... .. . ... : ... .. . ...
ROW 1F : ... .. . ... : ... .. . ... : ... .. . ... : ... .. . ... : ... .. . ...
ROW 20 : ... .. . ... : E-3 1F A ... : ... .. . ... : ... .. . ... : ... .. . ...
ROW 21 : ... .. . ... : ... .. . ... : ... .. . ... : ... .. . ... : ... .. . ...
ROW 22 : ... .. . 484 : ... .. . ... : ... .. . ... : ... .. . ... : ... .. . ...
ROW 23 : ... .. . ... : ... .. . ... : ... .. . ... : ... .. . ... : ... .. . ...
ROW 24 : --- .. A 400 : B-3 1A 9 ... : ... .. . ... : ... .. . ... : ... .. . ...
ROW 25 : ... .. . ... : ... .. 8 ... : ... .. . ... : ... .. . ... : ... .. . ...
ROW 26 : ... .. . ... : ... .. 7 ... : ... .. . ... : ... .. . ... : ... .. . ...
ROW 27 : ... .. . ... : ... .. 6 ... : ... .. . ... : ... .. . ... : ... .. . ...
ROW 28 : A#3 13 . ... : E-3 1F A ... : ... .. . ... : ... .. . ... : ... .. . ...
ROW 29 : ... .. . ... : ... .. . ... : ... .. . ... : ... .. . ... : ... .. . ...
ROW 2A : ... .. . ... : ... .. . ... : ... .. . ... : ... .. . ... : ... .. . ...
ROW 2B : ... .. . S02 : ... .. . ... : ... .. . ... : ... .. . ... : ... .. . ...
ROW 2C : B-3 13 . ... : B-3 1A 9 ... : ... .. . ... : ... .. . ... : ... .. . ...
ROW 2D : ... .. . ... : ... .. 8 ... : ... .. . ... : ... .. . ... : ... .. . ...
ROW 2E : ... .. . ... : ... .. 7 ... : ... .. . ... : ... .. . ... : ... .. . ...
ROW 2F : ... .. . S02 : ... .. 6 ... : ... .. . ... : ... .. . ... : ... .. . ...
ROW 30 : B-3 13 . ... : E-3 1F A ... : ... .. . ... : ... .. . ... : ... .. . ...
ROW 31 : ... .. . ... : ... .. . ... : ... .. . ... : ... .. . ... : ... .. . ...
ROW 32 : ... .. . ... : ... .. . ... : ... .. . ... : ... .. . ... : ... .. . ...
ROW 33 : ... .. . S02 : ... .. . ... : ... .. . ... : ... .. . ... : ... .. . ...
ROW 34 : A#3 13 . ... : B-3 1A 9 ... : ... .. . ... : ... .. . ... : ... .. . ...
ROW 35 : ... .. . ... : ... .. 8 ... : ... .. . ... : ... .. . ... : ... .. . ...
ROW 36 : ... .. . ... : ... .. 7 ... : ... .. . ... : ... .. . ... : ... .. . ...
ROW 37 : ... .. . S02 : ... .. 6 ... : ... .. . ... : ... .. . ... : ... .. . ...
ROW 38 : G#3 13 . ... : E-3 1F A ... : ... .. . ... : ... .. . ... : ... .. . ...
ROW 39 : ... .. . ... : ... .. . ... : ... .. . ... : ... .. . ... : ... .. . ...
ROW 3A : ... .. . ... : ... .. . ... : ... .. . ... : ... .. . ... : ... .. . ...
ROW 3B : ... .. . S02 : ... .. . ... : ... .. . ... : ... .. . ... : ... .. . ...
ROW 3C : F#3 17 D ... : B-3 1A 9 ... : ... .. . ... : ... .. . ... : ... .. . ...
ROW 3D : ... .. . ... : ... .. 8 ... : ... .. . ... : ... .. . ... : ... .. . ...
ROW 3E : ... .. . ... : ... .. 7 ... : ... .. . ... : ... .. . ... : ... .. . ...
ROW 3F : ... .. . ... : ... .. 6 ... : ... .. . ... : ... .. . ... : ... .. . ...
PATTERN 14
ROW 00 : ... .. . ... : B-3 24 A 400 : ... .. . ... : ... .. . ... : ... .. . ...
ROW 01 : ... .. . ... : ... .. . ... : ... .. . ... : ... .. . ... : ... .. . ...
ROW 02 : ... .. . 484 : ... .. . ... : ... .. . ... : ... .. . ... : ... .. . ...
ROW 03 : ... .. . ... : ... .. . ... : ... .. . ... : ... .. . ... : ... .. . ...
ROW 04 : --- .. A 400 : F#4 1A 9 ... : ... .. . ... : ... .. . ... : ... .. . ...
ROW 05 : ... .. . ... : ... .. 8 ... : ... .. . ... : ... .. . ... : ... .. . ...
ROW 06 : ... .. . ... : ... .. 7 ... : ... .. . ... : ... .. . ... : ... .. . ...
ROW 07 : ... .. . ... : ... .. 6 ... : ... .. . ... : ... .. . ... : ... .. . ...
ROW 08 : A#3 13 . ... : A#3 1C A ... : ... .. . ... : ... .. . ... : ... .. . ...
ROW 09 : ... .. . ... : ... .. . ... : ... .. . ... : ... .. . ... : ... .. . ...
ROW 0A : ... .. . ... : ... .. . ... : ... .. . ... : ... .. . ... : ... .. . ...
ROW 0B : ... .. . S02 : ... .. . ... : ... .. . ... : ... .. . ... : ... .. . ...
ROW 0C : B-3 13 . ... : F#4 1A 9 ... : ... .. . ... : ... .. . ... : ... .. . ...
ROW 0D : ... .. . ... : ... .. 8 ... : ... .. . ... : ... .. . ... : ... .. . ...
ROW 0E : ... .. . ... : ... .. 7 ... : ... .. . ... : ... .. . ... : ... .. . ...
ROW 0F : ... .. . S02 : ... .. 6 ... : ... .. . ... : ... .. . ... : ... .. . ...
ROW 10 : B-3 13 . ... : B-3 24 A ... : ... .. . ... : ... .. . ... : ... .. . ...
ROW 11 : ... .. . ... : ... .. . ... : ... .. . ... : ... .. . ... : ... .. . ...
ROW 12 : ... .. . ... : ... .. . ... : ... .. . ... : ... .. . ... : ... .. . ...
ROW 13 : ... .. . S02 : ... .. . ... : ... .. . ... : ... .. . ... : ... .. . ...
ROW 14 : A#3 13 . ... : A#3 05 9 ... : ... .. . ... : ... .. . ... : ... .. . ...
ROW 15 : ... .. . ... : ... .. . ... : ... .. . ... : ... .. . ... : ... .. . ...
ROW 16 : ... .. . ... : ... .. . ... : ... .. . ... : ... .. . ... : ... .. . ...
ROW 17 : ... .. . S02 : ... .. . ... : ... .. . ... : ... .. . ... : ... .. . ...
ROW 18 : G#3 13 . ... : F#3 05 9 ... : ... .. . ... : ... .. . ... : ... .. . ...
ROW 19 : ... .. . ... : ... .. . ... : ... .. . ... : ... .. . ... : ... .. . ...
ROW 1A : ... .. . ... : ... .. . ... : ... .. . ... : ... .. . ... : ... .. . ...
ROW 1B : ... .. . S02 : ... .. . S02 : ... .. . ... : ... .. . ... : ... .. . ...
ROW 1C : C#4 18 D ... : C#4 25 A ... : ... .. . ... : ... .. . ... : ... .. . ...
ROW 1D : ... .. . ... : ... .. . ... : ... .. . ... : ... .. . ... : ... .. . ...
ROW 1E : ... .. . ... : ... .. . ... : ... .. . ... : ... .. . ... : ... .. . ...
ROW 1F : ... .. . ... : ... .. . ... : ... .. . ... : ... .. . ... : ... .. . ...
ROW 20 : ... .. . ... : F#3 1B A ... : ... .. . ... : ... .. . ... : ... .. . ...
ROW 21 : ... .. . ... : ... .. . ... : ... .. . ... : ... .. . ... : ... .. . ...
ROW 22 : ... .. . 484 : ... .. . ... : ... .. . ... : ... .. . ... : ... .. . ...
ROW 23 : ... .. . S02 : ... .. . ... : ... .. . ... : ... .. . ... : ... .. . ...
ROW 24 : B-3 13 A 400 : C#4 1A 9 ... : ... .. . ... : ... .. . ... : ... .. . ...
ROW 25 : ... .. . ... : ... .. 8 ... : ... .. . ... : ... .. . ... : ... .. . ...
ROW 26 : ... .. . ... : ... .. 7 ... : ... .. . ... : ... .. . ... : ... .. . ...
ROW 27 : ... .. . S02 : ... .. 6 ... : ... .. . ... : ... .. . ... : ... .. . ...
ROW 28 : A#3 13 . ... : A#3 1C A ... : ... .. . ... : ... .. . ... : ... .. . ...
ROW 29 : ... .. . ... : ... .. . ... : ... .. . ... : ... .. . ... : ... .. . ...
ROW 2A : ... .. . ... : ... .. . ... : ... .. . ... : ... .. . ... : ... .. . ...
ROW 2B : ... .. . S02 : ... .. . ... : ... .. . ... : ... .. . ... : ... .. . ...
ROW 2C : B-3 13 . ... : C#4 1A 9 ... : ... .. . ... : ... .. . ... : ... .. . ...
ROW 2D : ... .. . ... : ... .. 8 ... : ... .. . ... : ... .. . ... : ... .. . ...
ROW 2E : ... .. . ... : ... .. 7 ... : ... .. . ... : ... .. . ... : ... .. . ...
ROW 2F : ... .. . S02 : ... .. 6 ... : ... .. . ... : ... .. . ... : ... .. . ...
ROW 30 : B-3 13 . ... : B-3 1D A ... : ... .. . ... : ... .. . ... : ... .. . ...
ROW 31 : ... .. . ... : ... .. . ... : ... .. . ... : ... .. . ... : ... .. . ...
ROW 32 : ... .. . ... : ... .. . ... : ... .. . ... : ... .. . ... : ... .. . ...
ROW 33 : ... .. . S02 : ... .. . ... : ... .. . ... : ... .. . ... : ... .. . ...
ROW 34 : A#3 13 . ... : C#4 1A 9 ... : ... .. . ... : ... .. . ... : ... .. . ...
ROW 35 : ... .. . ... : ... .. 8 ... : ... .. . ... : ... .. . ... : ... .. . ...
ROW 36 : ... .. . ... : ... .. 7 ... : ... .. . ... : ... .. . ... : ... .. . ...
ROW 37 : ... .. . S02 : ... .. 6 ... : ... .. . ... : ... .. . ... : ... .. . ...
ROW 38 : F#3 13 . ... : A#3 1E A ... : ... .. . ... : ... .. . ... : ... .. . ...
ROW 39 : ... .. . ... : ... .. . ... : ... .. . ... : ... .. . ... : ... .. . ...
ROW 3A : ... .. . ... : ... .. . ... : ... .. . ... : ... .. . ... : ... .. . ...
ROW 3B : ... .. . ... : ... .. . ... : ... .. . ... : ... .. . ... : ... .. . ...
ROW 3C : ... .. . ... : D#4 1A 9 ... : ... .. . ... : ... .. . ... : ... .. . ...
ROW 3D : ... .. . ... : ... .. 8 ... : ... .. . ... : ... .. . ... : ... .. . ...
ROW 3E : ... .. . 484 : ... .. 7 ... : ... .. . ... : ... .. . ... : ... .. . ...
ROW 3F : ... .. . S02 : ... .. 6 ... : ... .. . ... : ... .. . ... : ... .. . ...
PATTERN 15
ROW 00 : G#3 00 A 400 : G#3 0A A 400 : ... .. . ... : ... .. . ... : ... .. . ...
ROW 01 : ... .. . ... : ... .. . ... : ... .. . ... : ... .. . ... : ... .. . ...
ROW 02 : ... .. . ... : ... .. . ... : ... .. . ... : ... .. . ... : ... .. . ...
ROW 03 : ... .. . ... : ... .. . ... : ... .. . ... : ... .. . ... : ... .. . ...
ROW 04 : ... .. . ... : D#4 1A 9 ... : ... .. . ... : ... .. . ... : ... .. . ...
ROW 05 : ... .. . ... : ... .. 8 ... : ... .. . ... : ... .. . ... : ... .. . ...
ROW 06 : ... .. . RCC : ... .. 7 ... : ... .. . ... : ... .. . ... : ... .. . ...
ROW 07 : ... .. . ... : ... .. 6 ... : ... .. . ... : ... .. . ... : ... .. . ...
ROW 08 : D#3 05 9 ... : A#3 21 A ... : ... .. . ... : ... .. . ... : ... .. . ...
ROW 09 : ... .. . ... : ... .. . ... : ... .. . ... : ... .. . ... : ... .. . ...
ROW 0A : ... .. . ... : ... .. . ... : ... .. . ... : ... .. . ... : ... .. . ...
ROW 0B : ... .. . ... : ... .. . ... : ... .. . ... : ... .. . ... : ... .. . ...
ROW 0C : G#2 00 7 ... : D#4 1A 9 ... : ... .. . ... : ... .. . ... : ... .. . ...
ROW 0D : ... .. . ... : ... .. 8 ... : ... .. . ... : ... .. . ... : ... .. . ...
ROW 0E : ... .. . ... : ... .. 7 ... : ... .. . ... : ... .. . ... : ... .. . ...
ROW 0F : ... .. . ... : ... .. 6 ... : ... .. . ... : ... .. . ... : ... .. . ...
ROW 10 : D#3 05 9 ... : B-3 22 A ... : ... .. . ... : ... .. . ... : ... .. . ...
ROW 11 : ... .. . ... : ... .. . ... : ... .. . ... : ... .. . ... : ... .. . ...
ROW 12 : ... .. . ... : ... .. . ... : ... .. . ... : ... .. . ... : ... .. . ...
ROW 13 : ... .. . ... : ... .. . ... : ... .. . ... : ... .. . ... : ... .. . ...
ROW 14 : G#3 0A 7 ... : D#4 1A 9 ... : ... .. . ... : ... .. . ... : ... .. . ...
ROW 15 : ... .. . ... : ... .. 8 ... : ... .. . ... : ... .. . ... : ... .. . ...
ROW 16 : ... .. . ... : ... .. 7 ... : ... .. . ... : ... .. . ... : ... .. . ...
ROW 17 : ... .. . ... : ... .. 6 ... : ... .. . ... : ... .. . ... : ... .. . ...
ROW 18 : D#3 05 9 ... : G#3 0A A ... : ... .. . ... : ... .. . ... : ... .. . ...
ROW 19 : ... .. . ... : ... .. . ... : ... .. . ... : ... .. . ... : ... .. . ...
ROW 1A : ... .. . ... : ... .. . ... : ... .. . ... : ... .. . ... : ... .. . ...
ROW 1B : ... .. . ... : ... .. . S02 : ... .. . ... : ... .. . ... : ... .. . ...
ROW 1C : E-4 1A 9 ... : B-3 05 . ... : ... .. . ... : ... .. . ... : ... .. . ...
ROW 1D : ... .. 8 ... : ... .. . ... : ... .. . ... : ... .. . ... : ... .. . ...
ROW 1E : ... .. 7 ... : ... .. . ... : ... .. . ... : ... .. . ... : ... .. . ...
ROW 1F : ... .. 6 ... : ... .. . ... : ... .. . ... : ... .. . ... : ... .. . ...
ROW 20 : E-3 1F A ... : E-3 1F A ... : ... .. . ... : ... .. . ... : ... .. . ...
ROW 21 : ... .. . ... : ... .. . ... : ... .. . ... : ... .. . ... : ... .. . ...
ROW 22 : ... .. . ... : ... .. . ... : ... .. . ... : ... .. . ... : ... .. . ...
ROW 23 : ... .. . ... : ... .. . ... : ... .. . ... : ... .. . ... : ... .. . ...
ROW 24 : G#3 0B 7 ... : B-3 1A 9 ... : ... .. . ... : ... .. . ... : ... .. . ...
ROW 25 : ... .. . ... : ... .. 8 ... : ... .. . ... : ... .. . ... : ... .. . ...
ROW 26 : ... .. . ... : ... .. 7 ... : ... .. . ... : ... .. . ... : ... .. . ...
ROW 27 : ... .. . ... : ... .. 6 ... : ... .. . ... : ... .. . ... : ... .. . ...
ROW 28 : E-3 1F A ... : E-3 1F A ... : ... .. . ... : ... .. . ... : ... .. . ...
ROW 29 : ... .. . ... : ... .. . ... : ... .. . ... : ... .. . ... : ... .. . ...
ROW 2A : ... .. . ... : ... .. . ... : ... .. . ... : ... .. . ... : ... .. . ...
ROW 2B : ... .. . ... : ... .. . ... : ... .. . ... : ... .. . ... : ... .. . ...
ROW 2C : G#3 0B 7 ... : B-3 1A 9 ... : ... .. . ... : ... .. . ... : ... .. . ...
ROW 2D : ... .. . ... : ... .. 8 ... : ... .. . ... : ... .. . ... : ... .. . ...
ROW 2E : ... .. . ... : ... .. 7 ... : ... .. . ... : ... .. . ... : ... .. . ...
ROW 2F : ... .. . ... : ... .. 6 ... : ... .. . ... : ... .. . ... : ... .. . ...
ROW 30 : E-3 1F A ... : E-3 1F A ... : ... .. . ... : ... .. . ... : ... .. . ...
ROW 31 : ... .. . ... : ... .. . ... : ... .. . ... : ... .. . ... : ... .. . ...
ROW 32 : ... .. . ... : ... .. . ... : ... .. . ... : ... .. . ... : ... .. . ...
ROW 33 : ... .. . ... : ... .. . ... : ... .. . ... : ... .. . ... : ... .. . ...
ROW 34 : G#3 0B 7 ... : B-3 1A 9 ... : ... .. . ... : ... .. . ... : ... .. . ...
ROW 35 : ... .. . ... : ... .. 8 ... : ... .. . ... : ... .. . ... : ... .. . ...
ROW 36 : ... .. . ... : ... .. 7 ... : ... .. . ... : ... .. . ... : ... .. . ...
ROW 37 : ... .. . ... : ... .. 6 ... : ... .. . ... : ... .. . ... : ... .. . ...
ROW 38 : E-3 1F A ... : E-3 1F A ... : ... .. . ... : ... .. . ... : ... .. . ...
ROW 39 : ... .. . ... : ... .. . ... : ... .. . ... : ... .. . ... : ... .. . ...
ROW 3A : ... .. . ... : ... .. . ... : ... .. . ... : ... .. . ... : ... .. . ...
ROW 3B : ... .. . ... : ... .. . ... : ... .. . ... : ... .. . ... : ... .. . ...
ROW 3C : F#3 0C 7 ... : B-3 1A 9 ... : ... .. . ... : ... .. . ... : ... .. . ...
ROW 3D : ... .. . ... : ... .. 8 ... : ... .. . ... : ... .. . ... : ... .. . ...
ROW 3E : ... .. . ... : ... .. 7 ... : ... .. . ... : ... .. . ... : ... .. . ...
ROW 3F : ... .. . ... : ... .. 6 ... : ... .. . ... : ... .. . ... : ... .. . ...
PATTERN 16
ROW 00 : F#3 05 9 400 : G#3 05 9 ... : ... .. . ... : ... .. . ... : ... .. . ...
ROW 01 : ... .. . ... : ... .. . ... : ... .. . ... : ... .. . ... : ... .. . ...
ROW 02 : ... .. . ... : ... .. . ... : ... .. . ... : ... .. . ... : ... .. . ...
ROW 03 : ... .. . ... : --- .. . ... : ... .. . ... : ... .. . ... : ... .. . ...
ROW 04 : F#3 0C 7 ... : D#1 20 8 ... : ... .. . ... : ... .. . ... : ... .. . ...
ROW 05 : ... .. . ... : ... .. . ... : ... .. . ... : ... .. . ... : ... .. . ...
ROW 06 : ... .. . ... : --- .. . ... : ... .. . ... : ... .. . ... : ... .. . ...
ROW 07 : ... .. . ... : ... .. . ... : ... .. . ... : ... .. . ... : ... .. . ...
ROW 08 : F#3 05 9 ... : D#1 20 . ... : ... .. . ... : ... .. . ... : ... .. . ...
ROW 09 : ... .. . ... : ... .. . ... : ... .. . ... : ... .. . ... : ... .. . ...
ROW 0A : ... .. . ... : ... .. . ... : ... .. . ... : ... .. . ... : ... .. . ...
ROW 0B : ... .. . ... : ... .. . ... : ... .. . ... : ... .. . ... : ... .. . ...
ROW 0C : F#3 0C 7 ... : G#3 05 9 ... : ... .. . ... : ... .. . ... : ... .. . ...
ROW 0D : ... .. . ... : ... .. . ... : ... .. . ... : ... .. . ... : ... .. . ...
ROW 0E : ... .. . ... : ... .. . ... : ... .. . ... : ... .. . ... : ... .. . ...
ROW 0F : ... .. . ... : --- .. . ... : ... .. . ... : ... .. . ... : ... .. . ...
ROW 10 : F#3 05 9 ... : D#1 20 8 ... : ... .. . ... : ... .. . ... : ... .. . ...
ROW 11 : ... .. . ... : ... .. . ... : ... .. . ... : ... .. . ... : ... .. . ...
ROW 12 : ... .. . ... : ... .. . ... : ... .. . ... : ... .. . ... : ... .. . ...
ROW 13 : ... .. . S02 : ... .. . ... : ... .. . ... : ... .. . ... : ... .. . ...
ROW 14 : A#3 05 . ... : D#1 20 . ... : ... .. . ... : ... .. . ... : ... .. . ...
ROW 15 : ... .. . ... : ... .. . ... : ... .. . ... : ... .. . ... : ... .. . ...
ROW 16 : ... .. . ... : --- .. . ... : ... .. . ... : ... .. . ... : ... .. . ...
ROW 17 : ... .. . S02 : ... .. . ... : ... .. . ... : ... .. . ... : ... .. . ...
ROW 18 : D#3 05 . ... : D#1 20 . ... : ... .. . ... : ... .. . ... : ... .. . ...
ROW 19 : ... .. . ... : ... .. . ... : ... .. . ... : ... .. . ... : ... .. . ...
ROW 1A : ... .. . ... : ... .. . ... : ... .. . ... : ... .. . ... : ... .. . ...
ROW 1B : ... .. . S02 : ... .. . ... : ... .. . ... : ... .. . ... : ... .. . ...
ROW 1C : A#3 05 . ... : D#1 20 . ... : ... .. . ... : ... .. . ... : ... .. . ...
ROW 1D : ... .. . ... : ... .. . ... : ... .. . ... : ... .. . ... : ... .. . ...
ROW 1E : ... .. . ... : --- .. . ... : ... .. . ... : ... .. . ... : ... .. . ...
ROW 1F : ... .. . S02 : ... .. . ... : ... .. . ... : ... .. . ... : ... .. . ...
ROW 20 : F#3 1B A ... : G#3 05 9 ... : ... .. . ... : ... .. . ... : ... .. . ...
ROW 21 : ... .. . ... : ... .. . ... : ... .. . ... : ... .. . ... : ... .. . ...
ROW 22 : ... .. . ... : ... .. . ... : ... .. . ... : ... .. . ... : ... .. . ...
ROW 23 : ... .. . ... : --- .. . ... : ... .. . ... : ... .. . ... : ... .. . ...
ROW 24 : F#3 0A 7 ... : D#1 20 8 ... : ... .. . ... : ... .. . ... : ... .. . ...
ROW 25 : ... .. . ... : ... .. . ... : ... .. . ... : ... .. . ... : ... .. . ...
ROW 26 : ... .. . ... : --- .. . ... : ... .. . ... : ... .. . ... : ... .. . ...
ROW 27 : ... .. . ... : ... .. . ... : ... .. . ... : ... .. . ... : ... .. . ...
ROW 28 : A#3 1C A ... : D#1 20 . ... : ... .. . ... : ... .. . ... : ... .. . ...
ROW 29 : ... .. . ... : ... .. . ... : ... .. . ... : ... .. . ... : ... .. . ...
ROW 2A : ... .. . ... : ... .. . ... : ... .. . ... : ... .. . ... : ... .. . ...
ROW 2B : ... .. . ... : ... .. . ... : ... .. . ... : ... .. . ... : ... .. . ...
ROW 2C : F#3 0A 7 ... : G#3 05 9 ... : ... .. . ... : ... .. . ... : ... .. . ...
ROW 2D : ... .. . ... : ... .. . ... : ... .. . ... : ... .. . ... : ... .. . ...
ROW 2E : ... .. . ... : ... .. . ... : ... .. . ... : ... .. . ... : ... .. . ...
ROW 2F : ... .. . ... : --- .. . ... : ... .. . ... : ... .. . ... : ... .. . ...
ROW 30 : B-3 1D A ... : D#1 20 8 ... : ... .. . ... : ... .. . ... : ... .. . ...
ROW 31 : ... .. . ... : ... .. . ... : ... .. . ... : ... .. . ... : ... .. . ...
ROW 32 : ... .. . ... : ... .. . ... : ... .. . ... : ... .. . ... : ... .. . ...
ROW 33 : ... .. . ... : ... .. . ... : ... .. . ... : ... .. . ... : ... .. . ...
ROW 34 : F#3 0A 7 ... : D#1 20 . ... : ... .. . ... : ... .. . ... : ... .. . ...
ROW 35 : ... .. . ... : ... .. . ... : ... .. . ... : ... .. . ... : ... .. . ...
ROW 36 : ... .. . ... : --- .. . ... : ... .. . ... : ... .. . ... : ... .. . ...
ROW 37 : ... .. . ... : ... .. . ... : ... .. . ... : ... .. . ... : ... .. . ...
ROW 38 : A#3 1E A ... : D#1 20 . ... : ... .. . ... : ... .. . ... : ... .. . ...
ROW 39 : ... .. . ... : ... .. . ... : ... .. . ... : ... .. . ... : ... .. . ...
ROW 3A : ... .. . ... : ... .. . ... : ... .. . ... : ... .. . ... : ... .. . ...
ROW 3B : ... .. . ... : ... .. . ... : ... .. . ... : ... .. . ... : ... .. . ...
ROW 3C : F#3 0A 7 ... : D#1 20 . ... : ... .. . ... : ... .. . ... : ... .. . ...
ROW 3D : ... .. . ... : ... .. . ... : ... .. . ... : ... .. . ... : ... .. . ...
ROW 3E : ... .. . ... : --- .. . ... : ... .. . ... : ... .. . ... : ... .. . ...
ROW 3F : ... .. . ... : ... .. . ... : ... .. . ... : ... .. . ... : ... .. . ...
PATTERN 17
ROW 00 : F#3 05 9 400 : G#3 05 9 ... : ... .. . ... : ... .. . ... : ... .. . ...
ROW 01 : ... .. . ... : ... .. . ... : ... .. . ... : ... .. . ... : ... .. . ...
ROW 02 : ... .. . ... : ... .. . ... : ... .. . ... : ... .. . ... : ... .. . ...
ROW 03 : ... .. . ... : --- .. . ... : ... .. . ... : ... .. . ... : ... .. . ...
ROW 04 : F#3 0C 7 ... : D#1 20 8 ... : ... .. . ... : ... .. . ... : ... .. . ...
ROW 05 : ... .. . ... : ... .. . ... : ... .. . ... : ... .. . ... : ... .. . ...
ROW 06 : ... .. . ... : --- .. . ... : ... .. . ... : ... .. . ... : ... .. . ...
ROW 07 : ... .. . ... : ... .. . ... : ... .. . ... : ... .. . ... : ... .. . ...
ROW 08 : F#3 05 9 ... : D#1 20 . ... : ... .. . ... : ... .. . ... : ... .. . ...
ROW 09 : ... .. . ... : ... .. . ... : ... .. . ... : ... .. . ... : ... .. . ...
ROW 0A : ... .. . ... : ... .. . ... : ... .. . ... : ... .. . ... : ... .. . ...
ROW 0B : ... .. . ... : ... .. . ... : ... .. . ... : ... .. . ... : ... .. . ...
ROW 0C : F#3 0C 7 ... : G#3 05 9 ... : ... .. . ... : ... .. . ... : ... .. . ...
ROW 0D : ... .. . ... : ... .. . ... : ... .. . ... : ... .. . ... : ... .. . ...
ROW 0E : ... .. . ... : ... .. . ... : ... .. . ... : ... .. . ... : ... .. . ...
ROW 0F : ... .. . ... : --- .. . ... : ... .. . ... : ... .. . ... : ... .. . ...
ROW 10 : F#3 05 9 ... : D#1 20 8 ... : ... .. . ... : ... .. . ... : ... .. . ...
ROW 11 : ... .. . ... : ... .. . ... : ... .. . ... : ... .. . ... : ... .. . ...
ROW 12 : ... .. . ... : ... .. . ... : ... .. . ... : ... .. . ... : ... .. . ...
ROW 13 : ... .. . S02 : ... .. . ... : ... .. . ... : ... .. . ... : ... .. . ...
ROW 14 : A#3 05 . ... : D#1 20 . ... : ... .. . ... : ... .. . ... : ... .. . ...
ROW 15 : ... .. . ... : ... .. . ... : ... .. . ... : ... .. . ... : ... .. . ...
ROW 16 : ... .. . ... : --- .. . ... : ... .. . ... : ... .. . ... : ... .. . ...
ROW 17 : ... .. . S02 : ... .. . ... : ... .. . ... : ... .. . ... : ... .. . ...
ROW 18 : D#3 05 . ... : D#1 20 . ... : ... .. . ... : ... .. . ... : ... .. . ...
ROW 19 : ... .. . ... : ... .. . ... : ... .. . ... : ... .. . ... : ... .. . ...
ROW 1A : ... .. . ... : ... .. . ... : ... .. . ... : ... .. . ... : ... .. . ...
ROW 1B : ... .. . S02 : ... .. . ... : ... .. . ... : ... .. . ... : ... .. . ...
ROW 1C : A#3 05 . ... : D#1 20 . ... : ... .. . ... : ... .. . ... : ... .. . ...
ROW 1D : ... .. . ... : ... .. . ... : ... .. . ... : ... .. . ... : ... .. . ...
ROW 1E : ... .. . ... : --- .. . ... : ... .. . ... : ... .. . ... : ... .. . ...
ROW 1F : ... .. . S02 : ... .. . ... : ... .. . ... : ... .. . ... : ... .. . ...
ROW 20 : F#3 1B A ... : G#3 05 9 ... : ... .. . ... : ... .. . ... : ... .. . ...
ROW 21 : ... .. . ... : ... .. . ... : ... .. . ... : ... .. . ... : ... .. . ...
ROW 22 : ... .. . ... : ... .. . ... : ... .. . ... : ... .. . ... : ... .. . ...
ROW 23 : ... .. . ... : --- .. . ... : ... .. . ... : ... .. . ... : ... .. . ...
ROW 24 : F#3 0A 7 ... : D#1 20 8 ... : ... .. . ... : ... .. . ... : ... .. . ...
ROW 25 : ... .. . ... : ... .. . ... : ... .. . ... : ... .. . ... : ... .. . ...
ROW 26 : ... .. . ... : --- .. . ... : ... .. . ... : ... .. . ... : ... .. . ...
ROW 27 : ... .. . ... : ... .. . ... : ... .. . ... : ... .. . ... : ... .. . ...
ROW 28 : A#3 1C A ... : D#1 20 . ... : ... .. . ... : ... .. . ... : ... .. . ...
ROW 29 : ... .. . ... : ... .. . ... : ... .. . ... : ... .. . ... : ... .. . ...
ROW 2A : ... .. . ... : ... .. . ... : ... .. . ... : ... .. . ... : ... .. . ...
ROW 2B : ... .. . ... : ... .. . ... : ... .. . ... : ... .. . ... : ... .. . ...
ROW 2C : F#3 0A 7 ... : D#1 20 7 ... : ... .. . ... : ... .. . ... : ... .. . ...
ROW 2D : ... .. . ... : ... .. . ... : ... .. . ... : ... .. . ... : ... .. . ...
ROW 2E : ... .. . ... : --- .. . ... : ... .. . ... : ... .. . ... : ... .. . ...
ROW 2F : ... .. . ... : ... .. . ... : ... .. . ... : ... .. . ... : ... .. . ...
ROW 30 : F#2 20 B ... : B-3 05 7 ... : ... .. . ... : ... .. . ... : ... .. . ...
ROW 31 : ... .. . ... : ... .. . ... : ... .. . ... : ... .. . ... : ... .. . ...
ROW 32 : ... .. . ... : ... .. . ... : ... .. . ... : ... .. . ... : ... .. . ...
ROW 33 : ... .. . ... : ... .. . S02 : ... .. . ... : ... .. . ... : ... .. . ...
ROW 34 : ... .. . ... : G#3 05 . ... : ... .. . ... : ... .. . ... : ... .. . ...
ROW 35 : ... .. . ... : ... .. . ... : ... .. . ... : ... .. . ... : ... .. . ...
ROW 36 : ... .. . ... : ... .. . ... : ... .. . ... : ... .. . ... : ... .. . ...
ROW 37 : ... .. . ... : ... .. . S02 : ... .. . ... : ... .. . ... : ... .. . ...
ROW 38 : ... .. . ... : B-3 05 . ... : ... .. . ... : ... .. . ... : ... .. . ...
ROW 39 : ... .. . ... : ... .. . ... : ... .. . ... : ... .. . ... : ... .. . ...
ROW 3A : ... .. . Q22 : ... .. . ... : ... .. . ... : ... .. . ... : ... .. . ...
ROW 3B : ... .. . ... : ... .. . S02 : ... .. . ... : ... .. . ... : ... .. . ...
ROW 3C : ... .. . ... : G#3 05 . ... : ... .. . ... : ... .. . ... : ... .. . ...
ROW 3D : ... .. . ... : ... .. . ... : ... .. . ... : ... .. . ... : ... .. . ...
ROW 3E : ... .. . ... : ... .. . ... : ... .. . ... : ... .. . ... : ... .. . ...
ROW 3F : ... .. . ... : ... .. . S02 : ... .. . ... : ... .. . ... : ... .. . ...
PATTERN 18
ROW 00 : G#2 20 B ... : G#3 05 7 ... : ... .. . ... : ... .. . ... : ... .. . ...
ROW 01 : ... .. . ... : ... .. . ... : ... .. . ... : ... .. . ... : ... .. . ...
ROW 02 : ... .. . ... : ... .. . ... : ... .. . ... : ... .. . ... : ... .. . ...
ROW 03 : ... .. . ... : --- .. . ... : ... .. . ... : ... .. . ... : ... .. . ...
ROW 04 : B-2 20 . ... : D#1 20 6 ... : ... .. . ... : ... .. . ... : ... .. . ...
ROW 05 : ... .. . ... : ... .. . ... : ... .. . ... : ... .. . ... : ... .. . ...
ROW 06 : ... .. . ... : --- .. . ... : ... .. . ... : ... .. . ... : ... .. . ...
ROW 07 : ... .. . ... : ... .. . ... : ... .. . ... : ... .. . ... : ... .. . ...
ROW 08 : G#2 20 . ... : D#1 20 . ... : ... .. . ... : ... .. . ... : ... .. . ...
ROW 09 : ... .. . ... : ... .. . ... : ... .. . ... : ... .. . ... : ... .. . ...
ROW 0A : ... .. . ... : ... .. . ... : ... .. . ... : ... .. . ... : ... .. . ...
ROW 0B : ... .. . ... : ... .. . ... : ... .. . ... : ... .. . ... : ... .. . ...
ROW 0C : A#2 20 . ... : G#3 05 6 ... : ... .. . ... : ... .. . ... : ... .. . ...
ROW 0D : ... .. . ... : ... .. . ... : ... .. . ... : ... .. . ... : ... .. . ...
ROW 0E : ... .. . ... : ... .. . ... : ... .. . ... : ... .. . ... : ... .. . ...
ROW 0F : ... .. . ... : --- .. . ... : ... .. . ... : ... .. . ... : ... .. . ...
ROW 10 : B-2 20 . ... : D#1 20 5 ... : ... .. . ... : ... .. . ... : ... .. . ...
ROW 11 : ... .. . ... : ... .. . ... : ... .. . ... : ... .. . ... : ... .. . ...
ROW 12 : ... .. . ... : ... .. . ... : ... .. . ... : ... .. . ... : ... .. . ...
ROW 13 : ... .. . ... : ... .. . ... : ... .. . ... : ... .. . ... : ... .. . ...
ROW 14 : G#2 20 . ... : D#1 20 . ... : ... .. . ... : ... .. . ... : ... .. . ...
ROW 15 : ... .. . ... : ... .. . ... : ... .. . ... : ... .. . ... : ... .. . ...
ROW 16 : ... .. . ... : --- .. . ... : ... .. . ... : ... .. . ... : ... .. . ...
ROW 17 : ... .. . ... : ... .. . ... : ... .. . ... : ... .. . ... : ... .. . ...
ROW 18 : A#2 20 . ... : D#1 20 . ... : ... .. . ... : ... .. . ... : ... .. . ...
ROW 19 : ... .. . ... : ... .. . ... : ... .. . ... : ... .. . ... : ... .. . ...
ROW 1A : ... .. . ... : ... .. . ... : ... .. . ... : ... .. . ... : ... .. . ...
ROW 1B : ... .. . ... : ... .. . ... : ... .. . ... : ... .. . ... : ... .. . ...
ROW 1C : D#3 20 . ... : D#1 20 . ... : ... .. . ... : ... .. . ... : ... .. . ...
ROW 1D : ... .. . ... : ... .. . ... : ... .. . ... : ... .. . ... : ... .. . ...
ROW 1E : ... .. . ... : --- .. . ... : ... .. . ... : ... .. . ... : ... .. . ...
ROW 1F : ... .. . ... : ... .. . ... : ... .. . ... : ... .. . ... : ... .. . ...
ROW 20 : ... .. . ... : G#3 05 5 ... : ... .. . ... : ... .. . ... : ... .. . ...
ROW 21 : ... .. . ... : ... .. . ... : ... .. . ... : ... .. . ... : ... .. . ...
ROW 22 : ... .. . 488 : ... .. . ... : ... .. . ... : ... .. . ... : ... .. . ...
ROW 23 : ... .. . ... : --- .. . ... : ... .. . ... : ... .. . ... : ... .. . ...
ROW 24 : ... .. . ... : D#1 20 5 ... : ... .. . ... : ... .. . ... : ... .. . ...
ROW 25 : ... .. . ... : ... .. . ... : ... .. . ... : ... .. . ... : ... .. . ...
ROW 26 : ... .. . ... : --- .. . ... : ... .. . ... : ... .. . ... : ... .. . ...
ROW 27 : ... .. . ... : ... .. . ... : ... .. . ... : ... .. . ... : ... .. . ...
ROW 28 : G#2 20 . 400 : D#1 20 . ... : ... .. . ... : ... .. . ... : ... .. . ...
ROW 29 : ... .. . ... : ... .. . ... : ... .. . ... : ... .. . ... : ... .. . ...
ROW 2A : ... .. . ... : ... .. . ... : ... .. . ... : ... .. . ... : ... .. . ...
ROW 2B : ... .. . ... : ... .. . ... : ... .. . ... : ... .. . ... : ... .. . ...
ROW 2C : D#3 20 . ... : G#3 05 4 ... : ... .. . ... : ... .. . ... : ... .. . ...
ROW 2D : ... .. . ... : ... .. . ... : ... .. . ... : ... .. . ... : ... .. . ...
ROW 2E : ... .. . ... : ... .. . ... : ... .. . ... : ... .. . ... : ... .. . ...
ROW 2F : ... .. . ... : --- .. . ... : ... .. . ... : ... .. . ... : ... .. . ...
ROW 30 : E-3 20 . ... : D#1 20 4 ... : ... .. . ... : ... .. . ... : ... .. . ...
ROW 31 : ... .. . ... : ... .. . ... : ... .. . ... : ... .. . ... : ... .. . ...
ROW 32 : ... .. . ... : ... .. . ... : ... .. . ... : ... .. . ... : ... .. . ...
ROW 33 : ... .. . ... : ... .. . ... : ... .. . ... : ... .. . ... : ... .. . ...
ROW 34 : B-3 23 A ... : D#1 20 . ... : ... .. . ... : ... .. . ... : ... .. . ...
ROW 35 : ... .. . ... : ... .. . ... : ... .. . ... : ... .. . ... : ... .. . ...
ROW 36 : ... .. . ... : --- .. . ... : ... .. . ... : ... .. . ... : ... .. . ...
ROW 37 : ... .. . ... : ... .. . ... : ... .. . ... : ... .. . ... : ... .. . ...
ROW 38 : C#4 23 . ... : D#1 20 3 ... : ... .. . ... : ... .. . ... : ... .. . ...
ROW 39 : ... .. . ... : ... .. . ... : ... .. . ... : ... .. . ... : ... .. . ...
ROW 3A : ... .. . ... : ... .. . ... : ... .. . ... : ... .. . ... : ... .. . ...
ROW 3B : ... .. . ... : ... .. . ... : ... .. . ... : ... .. . ... : ... .. . ...
ROW 3C : E-2 20 D ... : D#1 20 . ... : ... .. . ... : ... .. . ... : ... .. . ...
ROW 3D : ... .. . ... : ... .. . ... : ... .. . ... : ... .. . ... : ... .. . ...
ROW 3E : ... .. . ... : --- .. . ... : ... .. . ... : ... .. . ... : ... .. . ...
ROW 3F : ... .. . ... : ... .. . ... : ... .. . ... : ... .. . ... : ... .. . ...
PATTERN 19
ROW 00 : G#3 20 B ... : G#3 05 3 ... : ... .. . ... : ... .. . ... : ... .. . ...
ROW 01 : ... .. . ... : ... .. . ... : ... .. . ... : ... .. . ... : ... .. . ...
ROW 02 : ... .. . ... : ... .. . ... : ... .. . ... : ... .. . ... : ... .. . ...
ROW 03 : ... .. . ... : --- .. . ... : ... .. . ... : ... .. . ... : ... .. . ...
ROW 04 : D#3 20 . ... : D#1 20 3 ... : ... .. . ... : ... .. . ... : ... .. . ...
ROW 05 : ... .. . ... : ... .. . ... : ... .. . ... : ... .. . ... : ... .. . ...
ROW 06 : ... .. . ... : --- .. . ... : ... .. . ... : ... .. . ... : ... .. . ...
ROW 07 : ... .. . ... : ... .. . ... : ... .. . ... : ... .. . ... : ... .. . ...
ROW 08 : B-2 20 . ... : D#1 20 2 ... : ... .. . ... : ... .. . ... : ... .. . ...
ROW 09 : ... .. . ... : ... .. . ... : ... .. . ... : ... .. . ... : ... .. . ...
ROW 0A : ... .. . ... : ... .. . ... : ... .. . ... : ... .. . ... : ... .. . ...
ROW 0B : ... .. . ... : ... .. . ... : ... .. . ... : ... .. . ... : ... .. . ...
ROW 0C : G#3 20 . ... : G#3 05 2 ... : ... .. . ... : ... .. . ... : ... .. . ...
ROW 0D : ... .. . ... : ... .. . ... : ... .. . ... : ... .. . ... : ... .. . ...
ROW 0E : ... .. . ... : ... .. . ... : ... .. . ... : ... .. . ... : ... .. . ...
ROW 0F : ... .. . ... : --- .. . ... : ... .. . ... : ... .. . ... : ... .. . ...
ROW 10 : D#3 20 . ... : D#1 20 2 ... : ... .. . ... : ... .. . ... : ... .. . ...
ROW 11 : ... .. . ... : ... .. . ... : ... .. . ... : ... .. . ... : ... .. . ...
ROW 12 : ... .. . ... : ... .. . ... : ... .. . ... : ... .. . ... : ... .. . ...
ROW 13 : ... .. . ... : ... .. . ... : ... .. . ... : ... .. . ... : ... .. . ...
ROW 14 : C#3 20 . ... : D#1 20 . ... : ... .. . ... : ... .. . ... : ... .. . ...
ROW 15 : ... .. . ... : ... .. . ... : ... .. . ... : ... .. . ... : ... .. . ...
ROW 16 : ... .. . ... : --- .. . ... : ... .. . ... : ... .. . ... : ... .. . ...
ROW 17 : ... .. . ... : ... .. . ... : ... .. . ... : ... .. . ... : ... .. . ...
ROW 18 : D#3 20 . ... : D#1 20 1 ... : ... .. . ... : ... .. . ... : ... .. . ...
ROW 19 : ... .. . ... : ... .. . ... : ... .. . ... : ... .. . ... : ... .. . ...
ROW 1A : ... .. . ... : ... .. . ... : ... .. . ... : ... .. . ... : ... .. . ...
ROW 1B : ... .. . ... : ... .. . ... : ... .. . ... : ... .. . ... : ... .. . ...
ROW 1C : G#3 20 . ... : D#1 20 . ... : ... .. . ... : ... .. . ... : ... .. . ...
ROW 1D : ... .. . ... : ... .. . ... : ... .. . ... : ... .. . ... : ... .. . ...
ROW 1E : ... .. . ... : --- .. . ... : ... .. . ... : ... .. . ... : ... .. . ...
ROW 1F : ... .. . ... : ... .. . ... : ... .. . ... : ... .. . ... : ... .. . ...
ROW 20 : ... .. . 486 : G#3 05 1 ... : ... .. . ... : ... .. . ... : ... .. . ...
ROW 21 : ... .. . ... : ... .. . ... : ... .. . ... : ... .. . ... : ... .. . ...
ROW 22 : ... .. . ... : ... .. . ... : ... .. . ... : ... .. . ... : ... .. . ...
ROW 23 : ... .. . ... : --- .. . ... : ... .. . ... : ... .. . ... : ... .. . ...
ROW 24 : ... .. . R95 : D#1 20 1 ... : ... .. . ... : ... .. . ... : ... .. . ...
ROW 25 : ... .. . ... : ... .. . ... : ... .. . ... : ... .. . ... : ... .. . ...
ROW 26 : ... .. . 400 : --- .. . ... : ... .. . ... : ... .. . ... : ... .. . ...
ROW 27 : ... .. . ... : ... .. . ... : ... .. . ... : ... .. . ... : ... .. . ...
ROW 28 : G#3 20 . ... : ... .. . ... : ... .. . ... : ... .. . ... : ... .. . ...
ROW 29 : ... .. . ... : ... .. . ... : ... .. . ... : ... .. . ... : ... .. . ...
ROW 2A : ... .. . ... : ... .. . ... : ... .. . ... : ... .. . ... : ... .. . ...
ROW 2B : ... .. . ... : ... .. . ... : ... .. . ... : ... .. . ... : ... .. . ...
ROW 2C : F#3 20 . ... : ... .. . ... : ... .. . ... : ... .. . ... : ... .. . ...
ROW 2D : ... .. . ... : ... .. . ... : ... .. . ... : ... .. . ... : ... .. . ...
ROW 2E : ... .. . ... : ... .. . ... : ... .. . ... : ... .. . ... : ... .. . ...
ROW 2F : ... .. . ... : ... .. . ... : ... .. . ... : ... .. . ... : ... .. . ...
ROW 30 : B-3 20 . ... : ... .. . ... : ... .. . ... : ... .. . ... : ... .. . ...
ROW 31 : ... .. . ... : ... .. . ... : ... .. . ... : ... .. . ... : ... .. . ...
ROW 32 : ... .. . ... : ... .. . ... : ... .. . ... : ... .. . ... : ... .. . ...
ROW 33 : ... .. . ... : ... .. . ... : ... .. . ... : ... .. . ... : ... .. . ...
ROW 34 : A#3 20 . ... : ... .. . ... : ... .. . ... : ... .. . ... : ... .. . ...
ROW 35 : ... .. . ... : ... .. . ... : ... .. . ... : ... .. . ... : ... .. . ...
ROW 36 : ... .. . ... : ... .. . ... : ... .. . ... : ... .. . ... : ... .. . ...
ROW 37 : ... .. . ... : ... .. . ... : ... .. . ... : ... .. . ... : ... .. . ...
ROW 38 : G#3 20 . ... : ... .. . ... : ... .. . ... : ... .. . ... : ... .. . ...
ROW 39 : ... .. . ... : ... .. . ... : ... .. . ... : ... .. . ... : ... .. . ...
ROW 3A : ... .. . ... : ... .. . ... : ... .. . ... : ... .. . ... : ... .. . ...
ROW 3B : ... .. . ... : ... .. . ... : ... .. . ... : ... .. . ... : ... .. . ...
ROW 3C : F#3 20 . ... : ... .. . ... : ... .. . ... : ... .. . ... : ... .. . ...
ROW 3D : ... .. . ... : ... .. . ... : ... .. . ... : ... .. . ... : ... .. . ...
ROW 3E : ... .. . ... : ... .. . ... : ... .. . ... : ... .. . ... : ... .. . ...
ROW 3F : ... .. . ... : ... .. . ... : ... .. . ... : ... .. . ... : ... .. . ...
PATTERN 1A
ROW 00 : D#3 05 9 400 : ... .. . ... : ... .. . ... : ... .. . ... : ... .. . ...
ROW 01 : ... .. . ... : ... .. . ... : ... .. . ... : ... .. . ... : ... .. . ...
ROW 02 : ... .. . ... : ... .. . ... : ... .. . ... : ... .. . ... : ... .. . ...
ROW 03 : ... .. . ... : ... .. . ... : ... .. . ... : ... .. . ... : ... .. . ...
ROW 04 : G#3 0A 7 ... : ... .. . ... : ... .. . ... : ... .. . ... : ... .. . ...
ROW 05 : ... .. . ... : ... .. . ... : ... .. . ... : ... .. . ... : ... .. . ...
ROW 06 : ... .. . ... : ... .. . ... : ... .. . ... : ... .. . ... : ... .. . ...
ROW 07 : ... .. . ... : ... .. . ... : ... .. . ... : ... .. . ... : ... .. . ...
ROW 08 : D#3 05 9 ... : ... .. . ... : ... .. . ... : ... .. . ... : ... .. . ...
ROW 09 : ... .. . ... : ... .. . ... : ... .. . ... : ... .. . ... : ... .. . ...
ROW 0A : ... .. . ... : ... .. . ... : ... .. . ... : ... .. . ... : ... .. . ...
ROW 0B : ... .. . ... : ... .. . ... : ... .. . ... : ... .. . ... : ... .. . ...
ROW 0C : G#2 00 5 ... : ... .. . ... : ... .. . ... : ... .. . ... : ... .. . ...
ROW 0D : ... .. . ... : ... .. . ... : ... .. . ... : ... .. . ... : ... .. . ...
ROW 0E : ... .. . ... : ... .. . ... : ... .. . ... : ... .. . ... : ... .. . ...
ROW 0F : ... .. . ... : ... .. . ... : ... .. . ... : ... .. . ... : ... .. . ...
ROW 10 : D#3 05 9 ... : ... .. . ... : ... .. . ... : ... .. . ... : ... .. . ...
ROW 11 : ... .. . ... : ... .. . ... : ... .. . ... : ... .. . ... : ... .. . ...
ROW 12 : ... .. . ... : ... .. . ... : ... .. . ... : ... .. . ... : ... .. . ...
ROW 13 : ... .. . ... : ... .. . ... : ... .. . ... : ... .. . ... : ... .. . ...
ROW 14 : G#3 0A 7 ... : ... .. . ... : ... .. . ... : ... .. . ... : ... .. . ...
ROW 15 : ... .. . ... : ... .. . ... : ... .. . ... : ... .. . ... : ... .. . ...
ROW 16 : ... .. . ... : ... .. . ... : ... .. . ... : ... .. . ... : ... .. . ...
ROW 17 : ... .. . ... : ... .. . ... : ... .. . ... : ... .. . ... : ... .. . ...
ROW 18 : D#3 05 9 ... : ... .. . ... : ... .. . ... : ... .. . ... : ... .. . ...
ROW 19 : ... .. . ... : ... .. . ... : ... .. . ... : ... .. . ... : ... .. . ...
ROW 1A : ... .. . ... : ... .. . ... : ... .. . ... : ... .. . ... : ... .. . ...
ROW 1B : ... .. . ... : ... .. . ... : ... .. . ... : ... .. . ... : ... .. . ...
ROW 1C : E-4 1A 9 ... : ... .. . ... : ... .. . ... : ... .. . ... : ... .. . ...
ROW 1D : ... .. 8 ... : ... .. . ... : ... .. . ... : ... .. . ... : ... .. . ...
ROW 1E : ... .. 7 ... : ... .. . ... : ... .. . ... : ... .. . ... : ... .. . ...
ROW 1F : ... .. 6 ... : ... .. . ... : ... .. . ... : ... .. . ... : ... .. . ...
ROW 20 : E-3 1F A ... : ... .. . ... : ... .. . ... : ... .. . ... : ... .. . ...
ROW 21 : ... .. . ... : ... .. . ... : ... .. . ... : ... .. . ... : ... .. . ...
ROW 22 : ... .. . ... : ... .. . ... : ... .. . ... : ... .. . ... : ... .. . ...
ROW 23 : ... .. . ... : ... .. . ... : ... .. . ... : ... .. . ... : ... .. . ...
ROW 24 : G#3 0B 7 ... : ... .. . ... : ... .. . ... : ... .. . ... : ... .. . ...
ROW 25 : ... .. . ... : ... .. . ... : ... .. . ... : ... .. . ... : ... .. . ...
ROW 26 : ... .. . ... : ... .. . ... : ... .. . ... : ... .. . ... : ... .. . ...
ROW 27 : ... .. . ... : ... .. . ... : ... .. . ... : ... .. . ... : ... .. . ...
ROW 28 : E-3 1F A ... : ... .. . ... : ... .. . ... : ... .. . ... : ... .. . ...
ROW 29 : ... .. . ... : ... .. . ... : ... .. . ... : ... .. . ... : ... .. . ...
ROW 2A : ... .. . ... : ... .. . ... : ... .. . ... : ... .. . ... : ... .. . ...
ROW 2B : ... .. . ... : ... .. . ... : ... .. . ... : ... .. . ... : ... .. . ...
ROW 2C : G#3 0B 7 ... : ... .. . ... : ... .. . ... : ... .. . ... : ... .. . ...
ROW 2D : ... .. . ... : ... .. . ... : ... .. . ... : ... .. . ... : ... .. . ...
ROW 2E : ... .. . ... : ... .. . ... : ... .. . ... : ... .. . ... : ... .. . ...
ROW 2F : ... .. . ... : ... .. . ... : ... .. . ... : ... .. . ... : ... .. . ...
ROW 30 : E-3 1F A ... : ... .. . ... : ... .. . ... : ... .. . ... : ... .. . ...
ROW 31 : ... .. . ... : ... .. . ... : ... .. . ... : ... .. . ... : ... .. . ...
ROW 32 : ... .. . ... : ... .. . ... : ... .. . ... : ... .. . ... : ... .. . ...
ROW 33 : ... .. . ... : ... .. . ... : ... .. . ... : ... .. . ... : ... .. . ...
ROW 34 : G#3 0B 7 ... : ... .. . ... : ... .. . ... : ... .. . ... : ... .. . ...
ROW 35 : ... .. . ... : ... .. . ... : ... .. . ... : ... .. . ... : ... .. . ...
ROW 36 : ... .. . ... : ... .. . ... : ... .. . ... : ... .. . ... : ... .. . ...
ROW 37 : ... .. . ... : ... .. . ... : ... .. . ... : ... .. . ... : ... .. . ...
ROW 38 : E-3 1F A ... : ... .. . ... : ... .. . ... : ... .. . ... : ... .. . ...
ROW 39 : ... .. . ... : ... .. . ... : ... .. . ... : ... .. . ... : ... .. . ...
ROW 3A : ... .. . ... : ... .. . ... : ... .. . ... : ... .. . ... : ... .. . ...
ROW 3B : ... .. . ... : ... .. . ... : ... .. . ... : ... .. . ... : ... .. . ...
ROW 3C : F#3 0C 7 ... : ... .. . ... : ... .. . ... : ... .. . ... : ... .. . ...
ROW 3D : ... .. . ... : ... .. . ... : ... .. . ... : ... .. . ... : ... .. . ...
ROW 3E : ... .. . ... : ... .. . ... : ... .. . ... : ... .. . ... : ... .. . ...
ROW 3F : ... .. . ... : ... .. . ... : ... .. . ... : ... .. . ... : ... .. . ...
PATTERN 1B
ROW 00 : G#3 26 C ... : ... .. . ... : ... .. . ... : ... .. . ... : ... .. . ...
ROW 01 : ... .. . ... : ... .. . ... : ... .. . ... : ... .. . ... : ... .. . ...
ROW 02 : ... .. . ... : ... .. . ... : ... .. . ... : ... .. . ... : ... .. . ...
ROW 03 : ... .. . ... : ... .. . ... : ... .. . ... : ... .. . ... : ... .. . ...
ROW 04 : B-2 20 9 ... : ... .. . ... : ... .. . ... : ... .. . ... : ... .. . ...
ROW 05 : ... .. . ... : ... .. . ... : ... .. . ... : ... .. . ... : ... .. . ...
ROW 06 : ... .. . ... : ... .. . ... : ... .. . ... : ... .. . ... : ... .. . ...
ROW 07 : ... .. . ... : ... .. . ... : ... .. . ... : ... .. . ... : ... .. . ...
ROW 08 : A#3 27 C ... : ... .. . ... : ... .. . ... : ... .. . ... : ... .. . ...
ROW 09 : ... .. . ... : ... .. . ... : ... .. . ... : ... .. . ... : ... .. . ...
ROW 0A : ... .. . ... : ... .. . ... : ... .. . ... : ... .. . ... : ... .. . ...
ROW 0B : ... .. . ... : ... .. . ... : ... .. . ... : ... .. . ... : ... .. . ...
ROW 0C : B-2 20 9 ... : ... .. . ... : ... .. . ... : ... .. . ... : ... .. . ...
ROW 0D : ... .. . ... : ... .. . ... : ... .. . ... : ... .. . ... : ... .. . ...
ROW 0E : ... .. . ... : ... .. . ... : ... .. . ... : ... .. . ... : ... .. . ...
ROW 0F : ... .. . ... : ... .. . ... : ... .. . ... : ... .. . ... : ... .. . ...
ROW 10 : B-3 28 C ... : ... .. . ... : ... .. . ... : ... .. . ... : ... .. . ...
ROW 11 : ... .. . ... : ... .. . ... : ... .. . ... : ... .. . ... : ... .. . ...
ROW 12 : ... .. . ... : ... .. . ... : ... .. . ... : ... .. . ... : ... .. . ...
ROW 13 : ... .. . ... : ... .. . ... : ... .. . ... : ... .. . ... : ... .. . ...
ROW 14 : A#3 05 A ... : ... .. . ... : ... .. . ... : ... .. . ... : ... .. . ...
ROW 15 : ... .. . ... : ... .. . ... : ... .. . ... : ... .. . ... : ... .. . ...
ROW 16 : ... .. . ... : ... .. . ... : ... .. . ... : ... .. . ... : ... .. . ...
ROW 17 : ... .. . ... : ... .. . ... : ... .. . ... : ... .. . ... : ... .. . ...
ROW 18 : G#3 26 C ... : ... .. . ... : ... .. . ... : ... .. . ... : ... .. . ...
ROW 19 : ... .. . ... : ... .. . ... : ... .. . ... : ... .. . ... : ... .. . ...
ROW 1A : --- .. . ... : ... .. . ... : ... .. . ... : ... .. . ... : ... .. . ...
ROW 1B : ... .. . ... : ... .. . ... : ... .. . ... : ... .. . ... : ... .. . ...
ROW 1C : C#4 20 A ... : ... .. . ... : ... .. . ... : ... .. . ... : ... .. . ...
ROW 1D : ... .. . ... : ... .. . ... : ... .. . ... : ... .. . ... : ... .. . ...
ROW 1E : ... .. . ... : ... .. . ... : ... .. . ... : ... .. . ... : ... .. . ...
ROW 1F : ... .. . ... : ... .. . ... : ... .. . ... : ... .. . ... : ... .. . ...
ROW 20 : ... .. . ... : ... .. . ... : ... .. . ... : ... .. . ... : ... .. . ...
ROW 21 : ... .. . ... : ... .. . ... : ... .. . ... : ... .. . ... : ... .. . ...
ROW 22 : ... .. . 486 : ... .. . ... : ... .. . ... : ... .. . ... : ... .. . ...
ROW 23 : ... .. . ... : ... .. . ... : ... .. . ... : ... .. . ... : ... .. . ...
ROW 24 : ... .. . ... : ... .. . ... : ... .. . ... : ... .. . ... : ... .. . ...
ROW 25 : ... .. . ... : ... .. . ... : ... .. . ... : ... .. . ... : ... .. . ...
ROW 26 : ... .. . ... : ... .. . ... : ... .. . ... : ... .. . ... : ... .. . ...
ROW 27 : ... .. . ... : ... .. . ... : ... .. . ... : ... .. . ... : ... .. . ...
ROW 28 : A#3 20 A 400 : ... .. . ... : ... .. . ... : ... .. . ... : ... .. . ...
ROW 29 : ... .. . ... : ... .. . ... : ... .. . ... : ... .. . ... : ... .. . ...
ROW 2A : ... .. . ... : ... .. . ... : ... .. . ... : ... .. . ... : ... .. . ...
ROW 2B : ... .. . ... : ... .. . ... : ... .. . ... : ... .. . ... : ... .. . ...
ROW 2C : B-3 20 . ... : ... .. . ... : ... .. . ... : ... .. . ... : ... .. . ...
ROW 2D : ... .. . ... : ... .. . ... : ... .. . ... : ... .. . ... : ... .. . ...
ROW 2E : ... .. . ... : ... .. . ... : ... .. . ... : ... .. . ... : ... .. . ...
ROW 2F : ... .. . ... : ... .. . ... : ... .. . ... : ... .. . ... : ... .. . ...
ROW 30 : C#4 20 . ... : ... .. . ... : ... .. . ... : ... .. . ... : ... .. . ...
ROW 31 : ... .. . ... : ... .. . ... : ... .. . ... : ... .. . ... : ... .. . ...
ROW 32 : ... .. . ... : ... .. . ... : ... .. . ... : ... .. . ... : ... .. . ...
ROW 33 : ... .. . ... : ... .. . ... : ... .. . ... : ... .. . ... : ... .. . ...
ROW 34 : B-3 20 . ... : ... .. . ... : ... .. . ... : ... .. . ... : ... .. . ...
ROW 35 : ... .. . ... : ... .. . ... : ... .. . ... : ... .. . ... : ... .. . ...
ROW 36 : ... .. . ... : ... .. . ... : ... .. . ... : ... .. . ... : ... .. . ...
ROW 37 : ... .. . ... : ... .. . ... : ... .. . ... : ... .. . ... : ... .. . ...
ROW 38 : C#4 20 . ... : ... .. . ... : ... .. . ... : ... .. . ... : ... .. . ...
ROW 39 : ... .. . ... : ... .. . ... : ... .. . ... : ... .. . ... : ... .. . ...
ROW 3A : ... .. . ... : ... .. . ... : ... .. . ... : ... .. . ... : ... .. . ...
ROW 3B : ... .. . ... : ... .. . ... : ... .. . ... : ... .. . ... : ... .. . ...
ROW 3C : D#4 20 A ... : ... .. . ... : ... .. . ... : ... .. . ... : ... .. . ...
ROW 3D : ... .. . ... : ... .. . ... : ... .. . ... : ... .. . ... : ... .. . ...
ROW 3E : ... .. . ... : ... .. . ... : ... .. . ... : ... .. . ... : ... .. . ...
ROW 3F : ... .. . ... : ... .. . ... : ... .. . ... : ... .. . ... : ... .. . ...
PATTERN 1C
ROW 00 : G#4 20 9 ... : ... .. . ... : ... .. . ... : ... .. . ... : ... .. . ...
ROW 01 : ... .. . ... : ... .. . ... : ... .. . ... : ... .. . ... : ... .. . ...
ROW 02 : ... .. . ... : ... .. . ... : ... .. . ... : ... .. . ... : ... .. . ...
ROW 03 : ... .. . ... : ... .. . ... : ... .. . ... : ... .. . ... : ... .. . ...
ROW 04 : ... .. . ... : ... .. . ... : ... .. . ... : ... .. . ... : ... .. . ...
ROW 05 : ... .. . ... : ... .. . ... : ... .. . ... : ... .. . ... : ... .. . ...
ROW 06 : ... .. . 485 : ... .. . ... : ... .. . ... : ... .. . ... : ... .. . ...
ROW 07 : ... .. . ... : ... .. . ... : ... .. . ... : ... .. . ... : ... .. . ...
ROW 08 : ... .. . ... : ... .. . ... : ... .. . ... : ... .. . ... : ... .. . ...
ROW 09 : ... .. . ... : ... .. . ... : ... .. . ... : ... .. . ... : ... .. . ...
ROW 0A : ... .. . ... : ... .. . ... : ... .. . ... : ... .. . ... : ... .. . ...
ROW 0B : ... .. . ... : ... .. . ... : ... .. . ... : ... .. . ... : ... .. . ...
ROW 0C : F#4 2C . 400 : ... .. . ... : ... .. . ... : ... .. . ... : ... .. . ...
ROW 0D : ... .. . ... : ... .. . ... : ... .. . ... : ... .. . ... : ... .. . ...
ROW 0E : ... .. . ... : ... .. . ... : ... .. . ... : ... .. . ... : ... .. . ...
ROW 0F : ... .. . ... : ... .. . ... : ... .. . ... : ... .. . ... : ... .. . ...
ROW 10 : G#4 20 . ... : ... .. . ... : ... .. . ... : ... .. . ... : ... .. . ...
ROW 11 : ... .. . ... : ... .. . ... : ... .. . ... : ... .. . ... : ... .. . ...
ROW 12 : ... .. . ... : ... .. . ... : ... .. . ... : ... .. . ... : ... .. . ...
ROW 13 : ... .. . ... : ... .. . ... : ... .. . ... : ... .. . ... : ... .. . ...
ROW 14 : ... .. . ... : ... .. . ... : ... .. . ... : ... .. . ... : ... .. . ...
ROW 15 : ... .. . ... : ... .. . ... : ... .. . ... : ... .. . ... : ... .. . ...
ROW 16 : ... .. . 485 : ... .. . ... : ... .. . ... : ... .. . ... : ... .. . ...
ROW 17 : ... .. . ... : ... .. . ... : ... .. . ... : ... .. . ... : ... .. . ...
ROW 18 : ... .. . ... : ... .. . ... : ... .. . ... : ... .. . ... : ... .. . ...
ROW 19 : ... .. . ... : ... .. . ... : ... .. . ... : ... .. . ... : ... .. . ...
ROW 1A : ... .. . ... : ... .. . ... : ... .. . ... : ... .. . ... : ... .. . ...
ROW 1B : ... .. . ... : ... .. . ... : ... .. . ... : ... .. . ... : ... .. . ...
ROW 1C : F#4 2C . 400 : ... .. . ... : ... .. . ... : ... .. . ... : ... .. . ...
ROW 1D : ... .. . ... : ... .. . ... : ... .. . ... : ... .. . ... : ... .. . ...
ROW 1E : ... .. . ... : ... .. . ... : ... .. . ... : ... .. . ... : ... .. . ...
ROW 1F : ... .. . ... : ... .. . ... : ... .. . ... : ... .. . ... : ... .. . ...
ROW 20 : G#4 20 9 ... : ... .. . ... : ... .. . ... : ... .. . ... : ... .. . ...
ROW 21 : ... .. . ... : ... .. . ... : ... .. . ... : ... .. . ... : ... .. . ...
ROW 22 : ... .. . ... : ... .. . ... : ... .. . ... : ... .. . ... : ... .. . ...
ROW 23 : ... .. 8 ... : ... .. . ... : ... .. . ... : ... .. . ... : ... .. . ...
ROW 24 : F#4 2C . ... : ... .. . ... : ... .. . ... : ... .. . ... : ... .. . ...
ROW 25 : ... .. . ... : ... .. . ... : ... .. . ... : ... .. . ... : ... .. . ...
ROW 26 : ... .. 7 ... : ... .. . ... : ... .. . ... : ... .. . ... : ... .. . ...
ROW 27 : ... .. . ... : ... .. . ... : ... .. . ... : ... .. . ... : ... .. . ...
ROW 28 : G#4 2C . ... : ... .. . ... : ... .. . ... : ... .. . ... : ... .. . ...
ROW 29 : ... .. . ... : ... .. . ... : ... .. . ... : ... .. . ... : ... .. . ...
ROW 2A : ... .. . ... : ... .. . ... : ... .. . ... : ... .. . ... : ... .. . ...
ROW 2B : ... .. 6 ... : ... .. . ... : ... .. . ... : ... .. . ... : ... .. . ...
ROW 2C : F#4 2C . ... : ... .. . ... : ... .. . ... : ... .. . ... : ... .. . ...
ROW 2D : ... .. . ... : ... .. . ... : ... .. . ... : ... .. . ... : ... .. . ...
ROW 2E : ... .. . ... : ... .. . ... : ... .. . ... : ... .. . ... : ... .. . ...
ROW 2F : ... .. . ... : ... .. . ... : ... .. . ... : ... .. . ... : ... .. . ...
ROW 30 : G#4 2C . ... : ... .. . ... : ... .. . ... : ... .. . ... : ... .. . ...
ROW 31 : ... .. 5 ... : ... .. . ... : ... .. . ... : ... .. . ... : ... .. . ...
ROW 32 : ... .. . ... : ... .. . ... : ... .. . ... : ... .. . ... : ... .. . ...
ROW 33 : ... .. . ... : ... .. . ... : ... .. . ... : ... .. . ... : ... .. . ...
ROW 34 : ... .. . ... : ... .. . ... : ... .. . ... : ... .. . ... : ... .. . ...
ROW 35 : ... .. . ... : ... .. . ... : ... .. . ... : ... .. . ... : ... .. . ...
ROW 36 : ... .. . 485 : ... .. . ... : ... .. . ... : ... .. . ... : ... .. . ...
ROW 37 : ... .. . ... : ... .. . ... : ... .. . ... : ... .. . ... : ... .. . ...
ROW 38 : ... .. 4 ... : ... .. . ... : ... .. . ... : ... .. . ... : ... .. . ...
ROW 39 : ... .. . ... : ... .. . ... : ... .. . ... : ... .. . ... : ... .. . ...
ROW 3A : ... .. . ... : ... .. . ... : ... .. . ... : ... .. . ... : ... .. . ...
ROW 3B : ... .. . ... : ... .. . ... : ... .. . ... : ... .. . ... : ... .. . ...
ROW 3C : ... .. . ... : ... .. . ... : ... .. . ... : ... .. . ... : ... .. . ...
ROW 3D : ... .. . ... : ... .. . ... : ... .. . ... : ... .. . ... : ... .. . ...
ROW 3E : ... .. 3 ... : ... .. . ... : ... .. . ... : ... .. . ... : ... .. . ...
ROW 3F : ... .. . ... : ... .. . ... : ... .. . ... : ... .. . ... : ... .. . ...
PATTERN 1D
ROW 00 : D#3 05 9 400 : ... .. . ... : ... .. . ... : ... .. . ... : ... .. . ...
ROW 01 : ... .. . ... : ... .. . ... : ... .. . ... : ... .. . ... : ... .. . ...
ROW 02 : ... .. . ... : ... .. . ... : ... .. . ... : ... .. . ... : ... .. . ...
ROW 03 : --- .. . ... : ... .. . ... : ... .. . ... : ... .. . ... : ... .. . ...
ROW 04 : G#1 20 . ... : ... .. . ... : ... .. . ... : ... .. . ... : ... .. . ...
ROW 05 : ... .. . ... : ... .. . ... : ... .. . ... : ... .. . ... : ... .. . ...
ROW 06 : --- .. . ... : ... .. . ... : ... .. . ... : ... .. . ... : ... .. . ...
ROW 07 : ... .. . ... : ... .. . ... : ... .. . ... : ... .. . ... : ... .. . ...
ROW 08 : G#1 20 . ... : ... .. . ... : ... .. . ... : ... .. . ... : ... .. . ...
ROW 09 : ... .. . ... : ... .. . ... : ... .. . ... : ... .. . ... : ... .. . ...
ROW 0A : ... .. . ... : ... .. . ... : ... .. . ... : ... .. . ... : ... .. . ...
ROW 0B : ... .. . ... : ... .. . ... : ... .. . ... : ... .. . ... : ... .. . ...
ROW 0C : D#3 05 9 ... : ... .. . ... : ... .. . ... : ... .. . ... : ... .. . ...
ROW 0D : ... .. . ... : ... .. . ... : ... .. . ... : ... .. . ... : ... .. . ...
ROW 0E : ... .. . ... : ... .. . ... : ... .. . ... : ... .. . ... : ... .. . ...
ROW 0F : --- .. . ... : ... .. . ... : ... .. . ... : ... .. . ... : ... .. . ...
ROW 10 : G#1 20 8 ... : ... .. . ... : ... .. . ... : ... .. . ... : ... .. . ...
ROW 11 : ... .. . ... : ... .. . ... : ... .. . ... : ... .. . ... : ... .. . ...
ROW 12 : ... .. . ... : ... .. . ... : ... .. . ... : ... .. . ... : ... .. . ...
ROW 13 : ... .. . ... : ... .. . ... : ... .. . ... : ... .. . ... : ... .. . ...
ROW 14 : G#1 20 . ... : ... .. . ... : ... .. . ... : ... .. . ... : ... .. . ...
ROW 15 : ... .. . ... : ... .. . ... : ... .. . ... : ... .. . ... : ... .. . ...
ROW 16 : --- .. . ... : ... .. . ... : ... .. . ... : ... .. . ... : ... .. . ...
ROW 17 : ... .. . ... : ... .. . ... : ... .. . ... : ... .. . ... : ... .. . ...
ROW 18 : G#1 20 . ... : ... .. . ... : ... .. . ... : ... .. . ... : ... .. . ...
ROW 19 : ... .. . ... : ... .. . ... : ... .. . ... : ... .. . ... : ... .. . ...
ROW 1A : ... .. . ... : ... .. . ... : ... .. . ... : ... .. . ... : ... .. . ...
ROW 1B : ... .. . ... : ... .. . ... : ... .. . ... : ... .. . ... : ... .. . ...
ROW 1C : G#1 20 . ... : ... .. . ... : ... .. . ... : ... .. . ... : ... .. . ...
ROW 1D : ... .. . ... : ... .. . ... : ... .. . ... : ... .. . ... : ... .. . ...
ROW 1E : --- .. . ... : ... .. . ... : ... .. . ... : ... .. . ... : ... .. . ...
ROW 1F : ... .. . ... : ... .. . ... : ... .. . ... : ... .. . ... : ... .. . ...
ROW 20 : D#3 05 9 ... : ... .. . ... : ... .. . ... : ... .. . ... : ... .. . ...
ROW 21 : ... .. . ... : ... .. . ... : ... .. . ... : ... .. . ... : ... .. . ...
ROW 22 : ... .. . ... : ... .. . ... : ... .. . ... : ... .. . ... : ... .. . ...
ROW 23 : --- .. . ... : ... .. . ... : ... .. . ... : ... .. . ... : ... .. . ...
ROW 24 : G#1 20 . ... : ... .. . ... : ... .. . ... : ... .. . ... : ... .. . ...
ROW 25 : ... .. . ... : ... .. . ... : ... .. . ... : ... .. . ... : ... .. . ...
ROW 26 : --- .. . ... : ... .. . ... : ... .. . ... : ... .. . ... : ... .. . ...
ROW 27 : ... .. . ... : ... .. . ... : ... .. . ... : ... .. . ... : ... .. . ...
ROW 28 : G#1 20 . ... : ... .. . ... : ... .. . ... : ... .. . ... : ... .. . ...
ROW 29 : ... .. . ... : ... .. . ... : ... .. . ... : ... .. . ... : ... .. . ...
ROW 2A : ... .. . ... : ... .. . ... : ... .. . ... : ... .. . ... : ... .. . ...
ROW 2B : ... .. . ... : ... .. . ... : ... .. . ... : ... .. . ... : ... .. . ...
ROW 2C : D#3 05 9 ... : ... .. . ... : ... .. . ... : ... .. . ... : ... .. . ...
ROW 2D : ... .. . ... : ... .. . ... : ... .. . ... : ... .. . ... : ... .. . ...
ROW 2E : ... .. . ... : ... .. . ... : ... .. . ... : ... .. . ... : ... .. . ...
ROW 2F : --- .. . ... : ... .. . ... : ... .. . ... : ... .. . ... : ... .. . ...
ROW 30 : G#1 20 8 ... : ... .. . ... : ... .. . ... : ... .. . ... : ... .. . ...
ROW 31 : ... .. . ... : ... .. . ... : ... .. . ... : ... .. . ... : ... .. . ...
ROW 32 : ... .. . ... : ... .. . ... : ... .. . ... : ... .. . ... : ... .. . ...
ROW 33 : ... .. . ... : ... .. . ... : ... .. . ... : ... .. . ... : ... .. . ...
ROW 34 : G#1 20 . ... : ... .. . ... : ... .. . ... : ... .. . ... : ... .. . ...
ROW 35 : ... .. . ... : ... .. . ... : ... .. . ... : ... .. . ... : ... .. . ...
ROW 36 : --- .. . ... : ... .. . ... : ... .. . ... : ... .. . ... : ... .. . ...
ROW 37 : ... .. . ... : ... .. . ... : ... .. . ... : ... .. . ... : ... .. . ...
ROW 38 : G#1 20 . ... : ... .. . ... : ... .. . ... : ... .. . ... : ... .. . ...
ROW 39 : ... .. . ... : ... .. . ... : ... .. . ... : ... .. . ... : ... .. . ...
ROW 3A : ... .. . ... : ... .. . ... : ... .. . ... : ... .. . ... : ... .. . ...
ROW 3B : ... .. . ... : ... .. . ... : ... .. . ... : ... .. . ... : ... .. . ...
ROW 3C : G#1 20 . ... : ... .. . ... : ... .. . ... : ... .. . ... : ... .. . ...
ROW 3D : ... .. . ... : ... .. . ... : ... .. . ... : ... .. . ... : ... .. . ...
ROW 3E : --- .. . ... : ... .. . ... : ... .. . ... : ... .. . ... : ... .. . ...
ROW 3F : ... .. . ... : ... .. . ... : ... .. . ... : ... .. . ... : ... .. . ...
PATTERN 1E
ROW 00 : D#3 05 9 ... : ... .. . ... : ... .. . ... : ... .. . ... : ... .. . ...
ROW 01 : ... .. . ... : ... .. . ... : ... .. . ... : ... .. . ... : ... .. . ...
ROW 02 : ... .. . ... : ... .. . ... : ... .. . ... : ... .. . ... : ... .. . ...
ROW 03 : --- .. . ... : ... .. . ... : ... .. . ... : ... .. . ... : ... .. . ...
ROW 04 : G#1 20 . ... : ... .. . ... : ... .. . ... : ... .. . ... : ... .. . ...
ROW 05 : ... .. . ... : ... .. . ... : ... .. . ... : ... .. . ... : ... .. . ...
ROW 06 : --- .. . ... : ... .. . ... : ... .. . ... : ... .. . ... : ... .. . ...
ROW 07 : ... .. . ... : ... .. . ... : ... .. . ... : ... .. . ... : ... .. . ...
ROW 08 : G#1 20 . ... : ... .. . ... : ... .. . ... : ... .. . ... : ... .. . ...
ROW 09 : ... .. . ... : ... .. . ... : ... .. . ... : ... .. . ... : ... .. . ...
ROW 0A : ... .. . ... : ... .. . ... : ... .. . ... : ... .. . ... : ... .. . ...
ROW 0B : ... .. . ... : ... .. . ... : ... .. . ... : ... .. . ... : ... .. . ...
ROW 0C : D#3 05 9 ... : ... .. . ... : ... .. . ... : ... .. . ... : ... .. . ...
ROW 0D : ... .. . ... : ... .. . ... : ... .. . ... : ... .. . ... : ... .. . ...
ROW 0E : ... .. . ... : ... .. . ... : ... .. . ... : ... .. . ... : ... .. . ...
ROW 0F : --- .. . ... : ... .. . ... : ... .. . ... : ... .. . ... : ... .. . ...
ROW 10 : G#1 20 8 ... : ... .. . ... : ... .. . ... : ... .. . ... : ... .. . ...
ROW 11 : ... .. . ... : ... .. . ... : ... .. . ... : ... .. . ... : ... .. . ...
ROW 12 : ... .. . ... : ... .. . ... : ... .. . ... : ... .. . ... : ... .. . ...
ROW 13 : ... .. . ... : ... .. . ... : ... .. . ... : ... .. . ... : ... .. . ...
ROW 14 : G#1 20 . ... : ... .. . ... : ... .. . ... : ... .. . ... : ... .. . ...
ROW 15 : ... .. . ... : ... .. . ... : ... .. . ... : ... .. . ... : ... .. . ...
ROW 16 : --- .. . ... : ... .. . ... : ... .. . ... : ... .. . ... : ... .. . ...
ROW 17 : ... .. . ... : ... .. . ... : ... .. . ... : ... .. . ... : ... .. . ...
ROW 18 : G#1 20 . ... : ... .. . ... : ... .. . ... : ... .. . ... : ... .. . ...
ROW 19 : ... .. . ... : ... .. . ... : ... .. . ... : ... .. . ... : ... .. . ...
ROW 1A : ... .. . ... : ... .. . ... : ... .. . ... : ... .. . ... : ... .. . ...
ROW 1B : ... .. . ... : ... .. . ... : ... .. . ... : ... .. . ... : ... .. . ...
ROW 1C : G#1 20 . ... : ... .. . ... : ... .. . ... : ... .. . ... : ... .. . ...
ROW 1D : ... .. . ... : ... .. . ... : ... .. . ... : ... .. . ... : ... .. . ...
ROW 1E : --- .. . ... : ... .. . ... : ... .. . ... : ... .. . ... : ... .. . ...
ROW 1F : ... .. . ... : ... .. . ... : ... .. . ... : ... .. . ... : ... .. . ...
ROW 20 : D#3 05 9 ... : ... .. . ... : ... .. . ... : ... .. . ... : ... .. . ...
ROW 21 : ... .. . ... : ... .. . ... : ... .. . ... : ... .. . ... : ... .. . ...
ROW 22 : ... .. . ... : ... .. . ... : ... .. . ... : ... .. . ... : ... .. . ...
ROW 23 : --- .. . ... : ... .. . ... : ... .. . ... : ... .. . ... : ... .. . ...
ROW 24 : G#1 20 8 ... : ... .. . ... : ... .. . ... : ... .. . ... : ... .. . ...
ROW 25 : ... .. . ... : ... .. . ... : ... .. . ... : ... .. . ... : ... .. . ...
ROW 26 : --- .. . ... : ... .. . ... : ... .. . ... : ... .. . ... : ... .. . ...
ROW 27 : ... .. . ... : ... .. . ... : ... .. . ... : ... .. . ... : ... .. . ...
ROW 28 : G#1 20 . ... : ... .. . ... : ... .. . ... : ... .. . ... : ... .. . ...
ROW 29 : ... .. . ... : ... .. . ... : ... .. . ... : ... .. . ... : ... .. . ...
ROW 2A : ... .. . ... : ... .. . ... : ... .. . ... : ... .. . ... : ... .. . ...
ROW 2B : ... .. . ... : ... .. . ... : ... .. . ... : ... .. . ... : ... .. . ...
ROW 2C : G#1 20 7 ... : ... .. . ... : ... .. . ... : ... .. . ... : ... .. . ...
ROW 2D : ... .. . ... : ... .. . ... : ... .. . ... : ... .. . ... : ... .. . ...
ROW 2E : --- .. . ... : ... .. . ... : ... .. . ... : ... .. . ... : ... .. . ...
ROW 2F : ... .. . ... : ... .. . ... : ... .. . ... : ... .. . ... : ... .. . ...
ROW 30 : B-2 05 7 ... : ... .. . ... : ... .. . ... : ... .. . ... : ... .. . ...
ROW 31 : ... .. . ... : ... .. . ... : ... .. . ... : ... .. . ... : ... .. . ...
ROW 32 : ... .. . ... : ... .. . ... : ... .. . ... : ... .. . ... : ... .. . ...
ROW 33 : ... .. . S02 : ... .. . ... : ... .. . ... : ... .. . ... : ... .. . ...
ROW 34 : D#3 05 . ... : ... .. . ... : ... .. . ... : ... .. . ... : ... .. . ...
ROW 35 : ... .. . ... : ... .. . ... : ... .. . ... : ... .. . ... : ... .. . ...
ROW 36 : ... .. . ... : ... .. . ... : ... .. . ... : ... .. . ... : ... .. . ...
ROW 37 : ... .. . S02 : ... .. . ... : ... .. . ... : ... .. . ... : ... .. . ...
ROW 38 : B-2 05 . ... : ... .. . ... : ... .. . ... : ... .. . ... : ... .. . ...
ROW 39 : ... .. . ... : ... .. . ... : ... .. . ... : ... .. . ... : ... .. . ...
ROW 3A : ... .. . ... : ... .. . ... : ... .. . ... : ... .. . ... : ... .. . ...
ROW 3B : ... .. . S02 : ... .. . ... : ... .. . ... : ... .. . ... : ... .. . ...
ROW 3C : D#3 05 . ... : ... .. . ... : ... .. . ... : ... .. . ... : ... .. . ...
ROW 3D : ... .. . ... : ... .. . ... : ... .. . ... : ... .. . ... : ... .. . ...
ROW 3E : ... .. . ... : ... .. . ... : ... .. . ... : ... .. . ... : ... .. . ...
ROW 3F : ... .. . S02 : ... .. . ... : ... .. . ... : ... .. . ... : ... .. . ...
PATTERN 1F
ROW 00 : D#3 05 7 ... : ... .. . ... : ... .. . ... : ... .. . ... : ... .. . ...
ROW 01 : ... .. . ... : ... .. . ... : ... .. . ... : ... .. . ... : ... .. . ...
ROW 02 : ... .. . ... : ... .. . ... : ... .. . ... : ... .. . ... : ... .. . ...
ROW 03 : --- .. . ... : ... .. . ... : ... .. . ... : ... .. . ... : ... .. . ...
ROW 04 : G#1 20 6 ... : ... .. . ... : ... .. . ... : ... .. . ... : ... .. . ...
ROW 05 : ... .. . ... : ... .. . ... : ... .. . ... : ... .. . ... : ... .. . ...
ROW 06 : --- .. . ... : ... .. . ... : ... .. . ... : ... .. . ... : ... .. . ...
ROW 07 : ... .. . ... : ... .. . ... : ... .. . ... : ... .. . ... : ... .. . ...
ROW 08 : G#1 20 . ... : ... .. . ... : ... .. . ... : ... .. . ... : ... .. . ...
ROW 09 : ... .. . ... : ... .. . ... : ... .. . ... : ... .. . ... : ... .. . ...
ROW 0A : ... .. . ... : ... .. . ... : ... .. . ... : ... .. . ... : ... .. . ...
ROW 0B : ... .. . ... : ... .. . ... : ... .. . ... : ... .. . ... : ... .. . ...
ROW 0C : D#3 05 7 ... : ... .. . ... : ... .. . ... : ... .. . ... : ... .. . ...
ROW 0D : ... .. . ... : ... .. . ... : ... .. . ... : ... .. . ... : ... .. . ...
ROW 0E : ... .. . ... : ... .. . ... : ... .. . ... : ... .. . ... : ... .. . ...
ROW 0F : --- .. . ... : ... .. . ... : ... .. . ... : ... .. . ... : ... .. . ...
ROW 10 : G#1 20 5 ... : ... .. . ... : ... .. . ... : ... .. . ... : ... .. . ...
ROW 11 : ... .. . ... : ... .. . ... : ... .. . ... : ... .. . ... : ... .. . ...
ROW 12 : ... .. . ... : ... .. . ... : ... .. . ... : ... .. . ... : ... .. . ...
ROW 13 : ... .. . ... : ... .. . ... : ... .. . ... : ... .. . ... : ... .. . ...
ROW 14 : G#1 20 . ... : ... .. . ... : ... .. . ... : ... .. . ... : ... .. . ...
ROW 15 : ... .. . ... : ... .. . ... : ... .. . ... : ... .. . ... : ... .. . ...
ROW 16 : --- .. . ... : ... .. . ... : ... .. . ... : ... .. . ... : ... .. . ...
ROW 17 : ... .. . ... : ... .. . ... : ... .. . ... : ... .. . ... : ... .. . ...
ROW 18 : G#1 20 . ... : ... .. . ... : ... .. . ... : ... .. . ... : ... .. . ...
ROW 19 : ... .. . ... : ... .. . ... : ... .. . ... : ... .. . ... : ... .. . ...
ROW 1A : ... .. . ... : ... .. . ... : ... .. . ... : ... .. . ... : ... .. . ...
ROW 1B : ... .. . ... : ... .. . ... : ... .. . ... : ... .. . ... : ... .. . ...
ROW 1C : G#1 20 . ... : ... .. . ... : ... .. . ... : ... .. . ... : ... .. . ...
ROW 1D : ... .. . ... : ... .. . ... : ... .. . ... : ... .. . ... : ... .. . ...
ROW 1E : --- .. . ... : ... .. . ... : ... .. . ... : ... .. . ... : ... .. . ...
ROW 1F : ... .. . ... : ... .. . ... : ... .. . ... : ... .. . ... : ... .. . ...
ROW 20 : D#3 05 5 ... : ... .. . ... : ... .. . ... : ... .. . ... : ... .. . ...
ROW 21 : ... .. . ... : ... .. . ... : ... .. . ... : ... .. . ... : ... .. . ...
ROW 22 : ... .. . ... : ... .. . ... : ... .. . ... : ... .. . ... : ... .. . ...
ROW 23 : --- .. . ... : ... .. . ... : ... .. . ... : ... .. . ... : ... .. . ...
ROW 24 : G#1 20 5 ... : ... .. . ... : ... .. . ... : ... .. . ... : ... .. . ...
ROW 25 : ... .. . ... : ... .. . ... : ... .. . ... : ... .. . ... : ... .. . ...
ROW 26 : --- .. . ... : ... .. . ... : ... .. . ... : ... .. . ... : ... .. . ...
ROW 27 : ... .. . ... : ... .. . ... : ... .. . ... : ... .. . ... : ... .. . ...
ROW 28 : G#1 20 . ... : ... .. . ... : ... .. . ... : ... .. . ... : ... .. . ...
ROW 29 : ... .. . ... : ... .. . ... : ... .. . ... : ... .. . ... : ... .. . ...
ROW 2A : ... .. . ... : ... .. . ... : ... .. . ... : ... .. . ... : ... .. . ...
ROW 2B : ... .. . ... : ... .. . ... : ... .. . ... : ... .. . ... : ... .. . ...
ROW 2C : D#3 05 4 ... : ... .. . ... : ... .. . ... : ... .. . ... : ... .. . ...
ROW 2D : ... .. . ... : ... .. . ... : ... .. . ... : ... .. . ... : ... .. . ...
ROW 2E : ... .. . ... : ... .. . ... : ... .. . ... : ... .. . ... : ... .. . ...
ROW 2F : --- .. . ... : ... .. . ... : ... .. . ... : ... .. . ... : ... .. . ...
ROW 30 : G#1 20 4 ... : ... .. . ... : ... .. . ... : ... .. . ... : ... .. . ...
ROW 31 : ... .. . ... : ... .. . ... : ... .. . ... : ... .. . ... : ... .. . ...
ROW 32 : ... .. . ... : ... .. . ... : ... .. . ... : ... .. . ... : ... .. . ...
ROW 33 : ... .. . ... : ... .. . ... : ... .. . ... : ... .. . ... : ... .. . ...
ROW 34 : G#1 20 . ... : ... .. . ... : ... .. . ... : ... .. . ... : ... .. . ...
ROW 35 : ... .. . ... : ... .. . ... : ... .. . ... : ... .. . ... : ... .. . ...
ROW 36 : --- .. . ... : ... .. . ... : ... .. . ... : ... .. . ... : ... .. . ...
ROW 37 : ... .. . ... : ... .. . ... : ... .. . ... : ... .. . ... : ... .. . ...
ROW 38 : G#1 20 3 ... : ... .. . ... : ... .. . ... : ... .. . ... : ... .. . ...
ROW 39 : ... .. . ... : ... .. . ... : ... .. . ... : ... .. . ... : ... .. . ...
ROW 3A : ... .. . ... : ... .. . ... : ... .. . ... : ... .. . ... : ... .. . ...
ROW 3B : ... .. . ... : ... .. . ... : ... .. . ... : ... .. . ... : ... .. . ...
ROW 3C : G#1 20 . ... : ... .. . ... : ... .. . ... : ... .. . ... : ... .. . ...
ROW 3D : ... .. . ... : ... .. . ... : ... .. . ... : ... .. . ... : ... .. . ...
ROW 3E : --- .. . ... : ... .. . ... : ... .. . ... : ... .. . ... : ... .. . ...
ROW 3F : ... .. . ... : ... .. . ... : ... .. . ... : ... .. . ... : ... .. . ...
PATTERN 20
ROW 00 : D#3 05 4 ... : ... .. . ... : ... .. . ... : ... .. . ... : ... .. . ...
ROW 01 : ... .. . ... : ... .. . ... : ... .. . ... : ... .. . ... : ... .. . ...
ROW 02 : ... .. . ... : ... .. . ... : ... .. . ... : ... .. . ... : ... .. . ...
ROW 03 : --- .. . ... : ... .. . ... : ... .. . ... : ... .. . ... : ... .. . ...
ROW 04 : G#1 20 2 ... : ... .. . ... : ... .. . ... : ... .. . ... : ... .. . ...
ROW 05 : ... .. . ... : ... .. . ... : ... .. . ... : ... .. . ... : ... .. . ...
ROW 06 : --- .. . ... : ... .. . ... : ... .. . ... : ... .. . ... : ... .. . ...
ROW 07 : ... .. . ... : ... .. . ... : ... .. . ... : ... .. . ... : ... .. . ...
ROW 08 : G#1 20 . ... : ... .. . ... : ... .. . ... : ... .. . ... : ... .. . ...
ROW 09 : ... .. . ... : ... .. . ... : ... .. . ... : ... .. . ... : ... .. . ...
ROW 0A : ... .. . ... : ... .. . ... : ... .. . ... : ... .. . ... : ... .. . ...
ROW 0B : ... .. . ... : ... .. . ... : ... .. . ... : ... .. . ... : ... .. . ...
ROW 0C : D#3 05 2 ... : ... .. . ... : ... .. . ... : ... .. . ... : ... .. . ...
ROW 0D : ... .. . ... : ... .. . ... : ... .. . ... : ... .. . ... : ... .. . ...
ROW 0E : ... .. . ... : ... .. . ... : ... .. . ... : ... .. . ... : ... .. . ...
ROW 0F : --- .. . ... : ... .. . ... : ... .. . ... : ... .. . ... : ... .. . ...
ROW 10 : G#1 20 1 ... : ... .. . ... : ... .. . ... : ... .. . ... : ... .. . ...
ROW 11 : ... .. . ... : ... .. . ... : ... .. . ... : ... .. . ... : ... .. . ...
ROW 12 : ... .. . ... : ... .. . ... : ... .. . ... : ... .. . ... : ... .. . ...
ROW 13 : ... .. . ... : ... .. . ... : ... .. . ... : ... .. . ... : ... .. . ...
ROW 14 : G#1 20 . ... : ... .. . ... : ... .. . ... : ... .. . ... : ... .. . ...
ROW 15 : ... .. . ... : ... .. . ... : ... .. . ... : ... .. . ... : ... .. . ...
ROW 16 : --- .. . ... : ... .. . ... : ... .. . ... : ... .. . ... : ... .. . ...
ROW 17 : ... .. . ... : ... .. . ... : ... .. . ... : ... .. . ... : ... .. . ...
ROW 18 : G#1 20 . ... : ... .. . ... : ... .. . ... : ... .. . ... : ... .. . ...
ROW 19 : ... .. . ... : ... .. . ... : ... .. . ... : ... .. . ... : ... .. . ...
ROW 1A : ... .. . ... : ... .. . ... : ... .. . ... : ... .. . ... : ... .. . ...
ROW 1B : ... .. . ... : ... .. . ... : ... .. . ... : ... .. . ... : ... .. . ...
ROW 1C : G#1 20 . ... : ... .. . ... : ... .. . ... : ... .. . ... : ... .. . ...
ROW 1D : ... .. . ... : ... .. . ... : ... .. . ... : ... .. . ... : ... .. . ...
ROW 1E : --- .. . ... : ... .. . ... : ... .. . ... : ... .. . ... : ... .. . ...
ROW 1F : ... .. . ... : ... .. . ... : ... .. . ... : ... .. . ... : ... .. . ...
ROW 20 : D#3 05 . ... : ... .. . ... : ... .. . ... : ... .. . ... : ... .. . ...
ROW 21 : ... .. . ... : ... .. . ... : ... .. . ... : ... .. . ... : ... .. . ...
ROW 22 : ... .. . ... : ... .. . ... : ... .. . ... : ... .. . ... : ... .. . ...
ROW 23 : --- .. . ... : ... .. . ... : ... .. . ... : ... .. . ... : ... .. . ...
ROW 24 : ... .. . ... : ... .. . ... : ... .. . ... : ... .. . ... : ... .. . ...
ROW 25 : ... .. . ... : ... .. . ... : ... .. . ... : ... .. . ... : ... .. . ...
ROW 26 : ... .. . ... : ... .. . ... : ... .. . ... : ... .. . ... : ... .. . ...
ROW 27 : ... .. . ... : ... .. . ... : ... .. . ... : ... .. . ... : ... .. . ...
ROW 28 : ... .. . ... : ... .. . ... : ... .. . ... : ... .. . ... : ... .. . ...
ROW 29 : ... .. . ... : ... .. . ... : ... .. . ... : ... .. . ... : ... .. . ...
ROW 2A : ... .. . ... : ... .. . ... : ... .. . ... : ... .. . ... : ... .. . ...
ROW 2B : ... .. . ... : ... .. . ... : ... .. . ... : ... .. . ... : ... .. . ...
ROW 2C : ... .. . ... : ... .. . ... : ... .. . ... : ... .. . ... : ... .. . ...
ROW 2D : ... .. . ... : ... .. . ... : ... .. . ... : ... .. . ... : ... .. . ...
ROW 2E : ... .. . ... : ... .. . ... : ... .. . ... : ... .. . ... : ... .. . ...
ROW 2F : ... .. . ... : ... .. . ... : ... .. . ... : ... .. . ... : ... .. . ...
ROW 30 : ... .. . ... : ... .. . ... : ... .. . ... : ... .. . ... : ... .. . ...
ROW 31 : ... .. . ... : ... .. . ... : ... .. . ... : ... .. . ... : ... .. . ...
ROW 32 : ... .. . ... : ... .. . ... : ... .. . ... : ... .. . ... : ... .. . ...
ROW 33 : ... .. . ... : ... .. . ... : ... .. . ... : ... .. . ... : ... .. . ...
ROW 34 : ... .. . ... : ... .. . ... : ... .. . ... : ... .. . ... : ... .. . ...
ROW 35 : ... .. . ... : ... .. . ... : ... .. . ... : ... .. . ... : ... .. . ...
ROW 36 : ... .. . ... : ... .. . ... : ... .. . ... : ... .. . ... : ... .. . ...
ROW 37 : ... .. . ... : ... .. . ... : ... .. . ... : ... .. . ... : ... .. . ...
ROW 38 : ... .. . ... : ... .. . ... : ... .. . ... : ... .. . ... : ... .. . ...
ROW 39 : ... .. . ... : ... .. . ... : ... .. . ... : ... .. . ... : ... .. . ...
ROW 3A : ... .. . ... : ... .. . ... : ... .. . ... : ... .. . ... : ... .. . ...
ROW 3B : ... .. . ... : ... .. . ... : ... .. . ... : ... .. . ... : ... .. . ...
ROW 3C : ... .. . ... : ... .. . ... : ... .. . ... : ... .. . ... : ... .. . ...
ROW 3D : ... .. . ... : ... .. . ... : ... .. . ... : ... .. . ... : ... .. . ...
ROW 3E : ... .. . ... : ... .. . ... : ... .. . ... : ... .. . ... : ... .. . ...
ROW 3F : ... .. . ... : ... .. . ... : ... .. . ... : ... .. . ... : ... .. . ...
PATTERN 21
ROW 00 : ... .. . ... : ... .. . ... : ... .. . ... : ... .. . ... : ... .. . ...
ROW 01 : ... .. . ... : ... .. . ... : ... .. . ... : ... .. . ... : ... .. . ...
ROW 02 : ... .. . ... : ... .. . ... : ... .. . ... : ... .. . ... : ... .. . ...
ROW 03 : ... .. . ... : ... .. . ... : ... .. . ... : ... .. . ... : ... .. . ...
ROW 04 : ... .. . ... : ... .. . ... : ... .. . ... : ... .. . ... : ... .. . ...
ROW 05 : ... .. . ... : ... .. . ... : ... .. . ... : ... .. . ... : ... .. . ...
ROW 06 : ... .. . ... : ... .. . ... : ... .. . ... : ... .. . ... : ... .. . ...
ROW 07 : ... .. . ... : ... .. . ... : ... .. . ... : ... .. . ... : ... .. . ...
ROW 08 : ... .. . ... : ... .. . ... : ... .. . ... : ... .. . ... : ... .. . ...
ROW 09 : ... .. . ... : ... .. . ... : ... .. . ... : ... .. . ... : ... .. . ...
ROW 0A : ... .. . ... : ... .. . ... : ... .. . ... : ... .. . ... : ... .. . ...
ROW 0B : ... .. . ... : ... .. . ... : ... .. . ... : ... .. . ... : ... .. . ...
ROW 0C : ... .. . ... : ... .. . ... : ... .. . ... : ... .. . ... : ... .. . ...
ROW 0D : ... .. . ... : ... .. . ... : ... .. . ... : ... .. . ... : ... .. . ...
ROW 0E : ... .. . ... : ... .. . ... : ... .. . ... : ... .. . ... : ... .. . ...
ROW 0F : ... .. . ... : ... .. . ... : ... .. . ... : ... .. . ... : ... .. . ...
ROW 10 : ... .. . ... : ... .. . ... : ... .. . ... : ... .. . ... : ... .. . ...
ROW 11 : ... .. . ... : ... .. . ... : ... .. . ... : ... .. . ... : ... .. . ...
ROW 12 : ... .. . ... : ... .. . ... : ... .. . ... : ... .. . ... : ... .. . ...
ROW 13 : ... .. . ... : ... .. . ... : ... .. . ... : ... .. . ... : ... .. . ...
ROW 14 : ... .. . ... : ... .. . ... : ... .. . ... : ... .. . ... : ... .. . ...
ROW 15 : ... .. . ... : ... .. . ... : ... .. . ... : ... .. . ... : ... .. . ...
ROW 16 : ... .. . ... : ... .. . ... : ... .. . ... : ... .. . ... : ... .. . ...
ROW 17 : ... .. . ... : ... .. . ... : ... .. . ... : ... .. . ... : ... .. . ...
ROW 18 : ... .. . ... : ... .. . ... : ... .. . ... : ... .. . ... : ... .. . ...
ROW 19 : ... .. . ... : ... .. . ... : ... .. . ... : ... .. . ... : ... .. . ...
ROW 1A : ... .. . ... : ... .. . ... : ... .. . ... : ... .. . ... : ... .. . ...
ROW 1B : ... .. . ... : ... .. . ... : ... .. . ... : ... .. . ... : ... .. . ...
ROW 1C : ... .. . ... : ... .. . ... : ... .. . ... : ... .. . ... : ... .. . ...
ROW 1D : ... .. . ... : ... .. . ... : ... .. . ... : ... .. . ... : ... .. . ...
ROW 1E : ... .. . ... : ... .. . ... : ... .. . ... : ... .. . ... : ... .. . ...
ROW 1F : ... .. . ... : ... .. . ... : ... .. . ... : ... .. . ... : ... .. . ...
ROW 20 : ... .. . ... : ... .. . ... : ... .. . ... : ... .. . ... : ... .. . ...
ROW 21 : ... .. . ... : ... .. . ... : ... .. . ... : ... .. . ... : ... .. . ...
ROW 22 : ... .. . ... : ... .. . ... : ... .. . ... : ... .. . ... : ... .. . ...
ROW 23 : ... .. . ... : ... .. . ... : ... .. . ... : ... .. . ... : ... .. . ...
ROW 24 : ... .. . ... : ... .. . ... : ... .. . ... : ... .. . ... : ... .. . ...
ROW 25 : ... .. . ... : ... .. . ... : ... .. . ... : ... .. . ... : ... .. . ...
ROW 26 : ... .. . ... : ... .. . ... : ... .. . ... : ... .. . ... : ... .. . ...
ROW 27 : ... .. . ... : ... .. . ... : ... .. . ... : ... .. . ... : ... .. . ...
ROW 28 : ... .. . ... : ... .. . ... : ... .. . ... : ... .. . ... : ... .. . ...
ROW 29 : ... .. . ... : ... .. . ... : ... .. . ... : ... .. . ... : ... .. . ...
ROW 2A : ... .. . ... : ... .. . ... : ... .. . ... : ... .. . ... : ... .. . ...
ROW 2B : ... .. . ... : ... .. . ... : ... .. . ... : ... .. . ... : ... .. . ...
ROW 2C : ... .. . ... : ... .. . ... : ... .. . ... : ... .. . ... : ... .. . ...
ROW 2D : ... .. . ... : ... .. . ... : ... .. . ... : ... .. . ... : ... .. . ...
ROW 2E : ... .. . ... : ... .. . ... : ... .. . ... : ... .. . ... : ... .. . ...
ROW 2F : ... .. . ... : ... .. . ... : ... .. . ... : ... .. . ... : ... .. . ...
ROW 30 : ... .. . ... : ... .. . ... : ... .. . ... : ... .. . ... : ... .. . ...
ROW 31 : ... .. . ... : ... .. . ... : ... .. . ... : ... .. . ... : ... .. . ...
ROW 32 : ... .. . ... : ... .. . ... : ... .. . ... : ... .. . ... : ... .. . ...
ROW 33 : ... .. . ... : ... .. . ... : ... .. . ... : ... .. . ... : ... .. . ...
ROW 34 : ... .. . ... : ... .. . ... : ... .. . ... : ... .. . ... : ... .. . ...
ROW 35 : ... .. . ... : ... .. . ... : ... .. . ... : ... .. . ... : ... .. . ...
ROW 36 : ... .. . ... : ... .. . ... : ... .. . ... : ... .. . ... : ... .. . ...
ROW 37 : ... .. . ... : ... .. . ... : ... .. . ... : ... .. . ... : ... .. . ...
ROW 38 : ... .. . ... : ... .. . ... : ... .. . ... : ... .. . ... : ... .. . ...
ROW 39 : ... .. . ... : ... .. . ... : ... .. . ... : ... .. . ... : ... .. . ...
ROW 3A : ... .. . ... : ... .. . ... : ... .. . ... : ... .. . ... : ... .. . ...
ROW 3B : ... .. . ... : ... .. . ... : ... .. . ... : ... .. . ... : ... .. . ...
ROW 3C : ... .. . ... : ... .. . ... : ... .. . ... : ... .. . ... : ... .. . ...
ROW 3D : ... .. . ... : ... .. . ... : ... .. . ... : ... .. . ... : ... .. . ...
ROW 3E : ... .. . ... : ... .. . ... : ... .. . ... : ... .. . ... : ... .. . ...
ROW 3F : ... .. . B22 : ... .. . ... : ... .. . ... : ... .. . ... : ... .. . ...

# track BOOKMARKS block

# JSON block

# PARAMS_EMU block

# End of export
