# FamiTracker text export 0.4.2
# Module version 0450

# INFO block
TITLE           "Famidash music"
AUTHOR          "Famidash team"
COPYRIGHT       "NO TOUCH"

# COMMENTS block
COMMENT "CREDITS:"
COMMENT ""
COMMENT "infiltration: cloud54"

# PARAMS block
MACHINE         0
FRAMERATE       0
EXPANSION       0
VIBRATO         1
SPLIT           32
PLAYBACKRATE    0 16639

# SEQUENCES block
MACRO       0   0  -1  -1   0 : 3 6 5 5 4 4 3 3 3 2 2 2 1 1 1 0
MACRO       0   1  -1  -1   0 : 1 1 1 0 1 1 0
MACRO       0   2  -1  -1   0 : 11 7 5 4 3 2 2 1 1 0 4 3 3 2 2 1 1 0
MACRO       0   3  -1  -1   0 : 13 9 5 2 1 0
MACRO       0   4  -1  -1   0 : 13 11 8 6 5 4 3 2 1 1 0
MACRO       0   5  -1  -1   0 : 8 4 2 0
MACRO       0   6  -1  24   0 : 15 14 13 12 11 10 9 8 8 7 7 6 6 6 5 5 4 4 4 3 3 3 3 2 2 2 2 1 1 1 1 0
MACRO       0   7  -1  -1   0 : 9 8 7 6 6 5 5 4
MACRO       0   8  -1  -1   0 : 15
MACRO       0   9  -1  -1   0 : 4 4 4 5 5 5 6 6 6 0 5 5 5 5 4 4 4 4 0
MACRO       0  10  -1  -1   0 : 8 6 5 5 4 4 3 3 3 2 2 2 1 1 1 0
MACRO       0  11  -1  -1   0 : 9 7 5
MACRO       0  12  -1  -1   0 : 15 0
MACRO       0  13  -1   5   0 : 0 0 4 8 6 5 4 3 2 2 1 1 0 0
MACRO       0  14  -1  -1   0 : 15 15 15 15 0
MACRO       0  15  -1  11   0 : 5 6 7 7 7 7 7 7 7 7 7 6 6 6 5 5 5 4 4 4 3 3 3 2 2 2 1 1 0
MACRO       0  16  -1  -1   0 : 1 1 1 0 1 1 0
MACRO       0  17  -1  -1   0 : 9 7 5 3 2 1 1 0 4 3 3 2 2 2 1 1 1 1 1 0
MACRO       0  18  -1  -1   0 : 10 7 4 2 0
MACRO       0  19  -1  -1   0 : 13 9 7 5 4 3 2 2 1 1 0
MACRO       0  20  -1  -1   0 : 8 4 2 0
MACRO       0  21  -1  -1   0 : 9 7 5 4 3 3 2 2 1 1 0
MACRO       0  22  -1  -1   0 : 9 8 7 6 6 5 5 4
MACRO       0  23  -1  -1   0 : 15
MACRO       0  24  -1  -1   0 : 4 4 4 5 5 5 6 0 6 5 5 5 4 4 4 4 3 3 3 0
MACRO       0  25  -1  -1   0 : 7 6 5 5 4 4 3 3 3 2 2 2 1 1 1 0
MACRO       0  26  -1  -1   0 : 9 7 5
MACRO       0  27  -1  -1   0 : 15 0
MACRO       0  28  -1   5   0 : 0 0 4 8 6 5 4 3 2 2 1 1 0 0
MACRO       0  29  -1  -1   0 : 7 7 7 7 0
MACRO       0  30  -1   1   0 : 14 15 12 8 5 2 0
MACRO       0  31  -1  -1   0 : 15 0 0 0 15 0
MACRO       0  32  -1  11   0 : 4 5 6 6 6 6 6 6 6 6 6 5 5 5 5 5 5 4 4 4 4 4 4 4 4 3 3 3 3 3 3 2 2 2 1 1 1 0
MACRO       0  33  -1  -1   0 : 8 8 7 6 6 5 5 4 4 3 3 3 2 2 2 2 2 2 2 1 1 1 1 1 1 1 1 0
MACRO       0  34  -1   0   0 : 15 10 6 4 2 0
MACRO       0  35  -1  -1   0 : 15 15 11 8 5 3 2 1 0
MACRO       0  36  -1  11   0 : 5 6 7 7 7 7 7 7 7 7 7 6 6 6 6 6 6 5 5 5 5 5 5 5 5 4 4 4 4 4 4 3 3 3 2 2 2 1 1 1 0
MACRO       0  37   0  -1   0 : 15 13 11
MACRO       0  38  -1  -1   0 : 15 10 12 10 9 8 6 5 4 2 1 0
MACRO       0  39  -1  -1   0 : 3 7 8 8 10 8 0
MACRO       0  40  -1  -1   0 : 15 0 1 0
MACRO       0  41  -1  -1   0 : 15 13 11 7 7 10
MACRO       0  42  -1  11   0 : 6 8 10 11 12 12 12 12 12 12 11 11 10 10 9 9 8 8 7 7 6 6 5 5 4 3 2 1 0
MACRO       0  43  -1  -1   0 : 15 15 15 15 0
MACRO       0  44  -1  -1   0 : 10 15 15 15 14 13 12 10 8 6 3
MACRO       0  45  -1  15   0 : 6 8 10 12 12 12 12 11 11 11 11 10 10 10 10 9 8 7 7 6 6 5 5 4 4 3 3 3 2 2 2 1 1 1 0
MACRO       0  46  -1  -1   0 : 15 15 0
MACRO       0  47  -1  -1   0 : 15 15 15 0
MACRO       0  48  -1  11   0 : 2 3 4 5 6 6 7 7 7 7 7 6 6 6 5 5 5 4 4 4 3 3 3 2 2 2 1 1 0
MACRO       0  49  -1  -1   0 : 14 14 14 14 14 13 13 12 12 11 11 10 9 8 7 6 5 3 1
MACRO       0  50  -1  -1   0 : 15 15 13 13 11 11 9 9 7 7 4 4 1 1 0
MACRO       0  51  -1  -1   0 : 15 7 0
MACRO       0  52  -1  -1   0 : 14 14 14 13 13 12 12 11 11 10 9 9 8 7 6 5 3
MACRO       0  53  -1  -1   0 : 15
MACRO       1   0  -1  -1   0 : 9 15
MACRO       1   1  -1  -1   0 : 6 12
MACRO       1   2   0  -1   0 : 0 0 12 12
MACRO       1   3  -1  -1   0 : 0 -1 -2 -3 -4 -5 -6 -7 -8 -9 -10 -11 -12 -13 -14 -15
MACRO       1   4  -1  -1   0 : -3 0
MACRO       1   5  -1  -1   0 : 12 0
MACRO       1   6  -1  -1   0 : 6 15
MACRO       1   7  -1  -1   0 : 6 9
MACRO       1   8   0  -1   0 : 0 0 12 12
MACRO       1   9  -1  -1   0 : 0 -1 -2 -3 -4 -5 -6 -7 -8 -9 -10 -11 -12 -13 -14 -15
MACRO       1  10  -1  -1   0 : -2 0
MACRO       1  11  -1  -1   0 : 12 0
MACRO       1  12   0  -1   0 : -4 1 0
MACRO       1  13  -1  -1   0 : -4 1 0
MACRO       1  14  -1  -1   0 : 26 16 14 4
MACRO       1  15  -1  -1   0 : 35 34 33 32
MACRO       1  16   0  -1   0 : -12 0 12 24
MACRO       1  17  -1  -1   0 : 24 12 0
MACRO       1  18   0  -1   0 : 12 0
MACRO       1  19  -1  -1   0 : -12 0
MACRO       1  20   0  -1   0 : 0 12
MACRO       1  21  -1  -1   0 : 0 9
MACRO       1  22  -1  -1   0 : -12
MACRO       2   0   1  -1   0 : -1 49
MACRO       2   1   1  -1   0 : 0 63
MACRO       2   2   1  -1   0 : 0 21
MACRO       2   3   8  -1   1 : 0 0 0 0 0 0 0 0 0 1 2 3 2 1 0 -1 -2 -3 -2 -1
MACRO       2   4  -1  -1   0 : 28 104 87 59 31 -62 0 0
MACRO       4   0  -1  -1   0 : 1 0
MACRO       4   1  -1  -1   0 : 3
MACRO       4   2  -1  -1   0 : 2
MACRO       4   3   0  -1   0 : 0 1
MACRO       4   4  -1  -1   0 : 1
MACRO       4   5  -1  -1   0 : 1
MACRO       4   6  -1  -1   0 : 0
MACRO       4   7  -1  -1   0 : 2
MACRO       4   8  -1  -1   0 : 0
MACRO       4   9  -1  -1   0 : 1
MACRO       4  10  -1  -1   0 : 3
MACRO       4  11   0  -1   0 : 1 2 1 0
MACRO       4  12   0  -1   0 : 1 0 0 1 0
MACRO       4  13   1  -1   0 : 2 2 2 1 1 1 0 0 0 1 1 1
MACRO       4  14  -1  -1   0 : 1 2 3
MACRO       4  15  -1  -1   0 : 3 2 2 1
MACRO       4  16   2  -1   0 : 3 2 1 2 2 1
MACRO       4  17   3  -1   0 : 3 2 1 3
MACRO       4  18   0  -1   0 : 2 2 0
MACRO       4  19   2  -1   0 : 2 1 0 1
MACRO       4  20   0  -1   0 : 0 0 2
MACRO       4  21  -1  -1   0 : 2 1 1

# DPCM SAMPLES block
DPCMDEF   0  1137 "fdbass A#"
DPCM : FF FF F2 F7 01 EC 03 30 80 24 01 43 62 B4 9B 3C D8 80 3F 07 D7 9F 82 E6 C9 8C B8 13 11 3F 71 C0
DPCM : DD 7B F8 FF FF 3F BD 6F 02 F6 0F 00 80 18 02 1C 50 E0 9F 3D 60 C0 DF 02 FA 37 24 F7 07 C0 DC 01
DPCM : 06 8F 78 C0 CF 3F FC FF FF BF 7F F7 01 EF 07 00 80 90 01 0E 08 E8 EF 1C 70 E0 8F 0F 19 77 32 F2
DPCM : 03 E0 D8 81 80 07 79 E0 E7 FF FC FF FF 9F FF B7 03 FB 07 00 40 8C 00 0F 60 F8 87 07 38 E0 C7 07
DPCM : D7 3C 06 7B 03 60 E4 80 81 07 7C 70 E6 FF FC FF FF FF FF F7 00 FF 03 00 C0 03 80 0F 60 F8 87 0F
DPCM : 38 E0 87 87 27 3E 06 BF 00 38 E0 01 80 83 3E F8 F1 7F FF FF FF EF FF 7B 00 FF 03 00 C0 03 80 73
DPCM : 20 FC 07 07 1C F0 C7 07 67 3C 03 7F 00 70 F0 00 80 61 3C F0 FF 9F FF FF FF BF FF 7C 80 FF 03 00
DPCM : C0 03 C0 3C 80 FC 83 07 0C F0 E7 07 1F AB 00 FF 00 70 F0 00 00 1C 1F F8 FF 1F FF FF FF EF FF 7C
DPCM : 80 FF 01 00 C0 83 C0 38 08 EF A3 02 0E F8 CF 81 BE AC 02 BF 00 E0 70 00 80 1C 1F F0 FF 1F FF FF
DPCM : FF FF FF 79 C0 FF 03 00 C0 03 80 1D 88 FE C1 03 0C F8 EF 00 BF AA C0 9F 00 C0 3A 00 00 2F 1D F8
DPCM : FE 9F FF FF FF FF FF 0B E0 FF 00 00 C0 29 00 1F 48 ED F5 00 0C FC 57 81 AF 2A D4 9B 00 00 3F 00
DPCM : 00 BE 0A FC FF 87 FF FF FF FF FF 0F E0 FF 03 00 80 25 00 57 88 DE F6 01 00 FC 7F 01 7D 29 F8 9A
DPCM : 00 00 FE 00 00 EC 82 FE FE A7 BF FF FF FF FF 1F C0 F7 05 00 C0 05 00 5D 22 AD FD 42 00 FC 3F 01
DPCM : EF 22 E8 2F 00 00 7E 00 80 DA 82 7D FF AB D5 FF FF FF FF 7F A0 FD 02 00 D0 05 00 AD A4 AA DE 55
DPCM : 01 F0 5F 42 7B 05 F8 96 00 00 BE 00 90 AA 44 DF FE 6E A5 FF FF FF FF FF 60 7B 05 00 D0 13 00 AA
DPCM : A4 AA FA B6 00 F8 B7 A0 DE 04 F4 2D 00 00 7C 01 48 55 C1 5E FF 6E 21 FF FF FF FF FF 53 BB 09 00
DPCM : D0 15 40 24 A5 AA 7A 6F 00 F8 AF A4 6E 01 BA 2B 02 00 B8 02 89 AA 90 BB FD 37 41 FF FF FF FF FF
DPCM : A9 76 05 00 B8 13 10 91 52 A5 76 6F 00 BC 5F 51 BB 01 B4 37 08 00 70 42 48 55 A1 B6 FB AF 80 FE
DPCM : FF FF FF FF 55 DD 44 00 E8 25 84 44 52 A5 6E AF 00 BA 5F A9 DE 02 68 AF 00 00 70 11 A4 9A 48 DB
DPCM : FE 5D 02 FD FF FF FF 5F 6B BB 22 00 6A 4B 42 44 AA 92 6D 37 01 BA 5F A9 BD 09 D0 5E 01 00 D0 84
DPCM : 90 56 49 D5 FD AF 80 FC FF FF FD 5F DB B6 12 80 B4 95 24 42 AC 94 AD 3B 20 B6 6F AA 7B 03 64 BB
DPCM : 00 00 A8 12 22 AD A4 AA F7 6F 04 FD FF 7B DF B7 ED AE 09 04 69 4B 49 42 B2 52 AD 9B 20 B5 B7 AA
DPCM : BD 85 D0 B6 04 00 A8 44 88 AA 52 55 BF 6F 42 FA FF ED FB AE DB 5D 89 20 AA AA 52 11 A9 52 6B AB
DPCM : A0 6A 57 B5 6E 93 A4 5A 09 00 52 49 48 2A 95 AA 7D 5F 49 F6 F7 EE BE 6B DB 6E 49 44 52 55 A9 22
DPCM : A9 AA 5A 2B 91 AA 5B 55 BB 2A A9 6A 11 80 94 92 90 54 A9 D4 EE 5B A5 DA 77 B7 F7 B6 B6 5D 25 91
DPCM : 54 2A 55 25 A9 D2 6A 55 91 AA AD 5A 6D 95 32 AD 22 04 A9 14 49 4A A5 B2 BA 5B 55 ED 6E B7 BD 6D
DPCM : 6D 5B 95 24 A5 54 AA 4A 4A 55 6B 55 89 AA B5 AA B6 2A 55 55 45 42 52 4A 49 52 A5 CA DA B6 AA B6
DPCM : 6D BB 6E DB DA B6 4A 49 29 95 2A 95 52 55 AD 96 52 A9 55 AD 5A 55 A9 AA 92 12 A5 54 52 4A 95 AA
DPCM : 5A 5B 55 6B DB B6 DA B6 B6 B6 2A 95 4A A5 54 A9 54 A5 D5 AA 54 55 55 55 AB AA AA CA 94 92 52 29
DPCM : A5 54 AA AA 5A AD 56 B5 B6 B6 5A 6B AD B5 AA 52 55 2A 55 2A 55 AA 5A 55 55 A9 AA 56 55 55 55 55
DPCM : A5 4A A9 54 2A 95 AA AA AA 55 AB 6A AD D5 6A B5 5A AB 95 A6 AA 52 A5 52 95 AA AA A5 A5 AA AA AA
DPCM : 55 55 55 55 A9 2A 95 2A 95 AA 2A 55 AB 6A 55 B5 6A B5 AA 56 AB 56 55 55 55 95 2A 55 95 AA AA AA
DPCM : AA AA AA AA 6A 95 AA AA AA AA 52 95 AA 54 55 59 55 B5 B2 AA 55 AD AA 5A D5 AA AA AA AA 2A 55 95
DPCM : A9 AA AA AA AA AA AA AA AA AA AA AA AA AA 4A 55 A5 AA AA AA AA AA 5A 55 55 AB AA AA 56 55 55 55
DPCM : 55 55 95 AA AA AA AA AA AA AA AA AA AA AA AA AA AA AA AA 52 55 55 95 AA 55 55 55 55 AB AA AA AA
DPCM : AA 6A 55 55 56 56 AA AA AA AA AA AA AA AA AA AA 55
DPCMDEF   1  1105 "fdbass B"
DPCM : FF 7F FB 0F 03 7B 04 00 09 18 78 E0 84 2A FB F1 80 7F 18 7A 0F 98 7D 18 0A 3D 1D 78 60 CB AF 3F
DPCM : F0 FF FF 3F E5 5F 86 FC 00 00 18 08 3C E0 81 99 37 78 C0 EF C4 B8 07 9E AE 81 C1 0F 0C 3C 20 D2
DPCM : FB 3F F0 FF FF FF EF 7F 04 3E 00 08 87 04 6C D0 80 83 1F 7C E0 36 8C E7 03 CE E7 00 C4 07 07 2E
DPCM : 80 F0 FD DF F8 FF FF FF FF 67 82 5F 00 00 07 02 78 1C E0 91 07 3E F8 1E 84 E5 03 67 77 00 C0 83
DPCM : 07 0E 00 F8 FD DF FC FF FF FF FF 6F 81 1F 00 84 03 02 3C 1E E0 C0 07 1F F8 0F C4 E1 C1 F4 37 00
DPCM : C0 83 03 06 00 FC FF 4F FF FF FF FF FF 4F C1 0F 00 83 03 00 1E 0F F0 E0 83 1F F8 07 E2 F0 01 E6
DPCM : 3F 00 E0 81 01 06 00 FD FF 8F FF FF FF FF FF 37 C2 07 00 87 03 00 AE 07 F0 E0 83 0F F8 17 71 F1
DPCM : 00 FA 1F 00 E0 01 00 07 08 FD FF 8F FF FF FF FF FF 37 E0 07 00 C3 01 00 EF 03 F8 E0 81 0F FC 47
DPCM : F0 E0 00 F7 1F 00 E0 00 01 07 40 FB FF 8F FF FF FF FF FF 4F EA 07 00 E0 00 00 F7 03 78 F0 81 0F
DPCM : FC 0F E0 78 00 FF 16 00 78 20 80 03 40 FB FF 9F FF FF FF FF FF 07 FF 03 00 1C C0 00 EC 03 2C BB
DPCM : C0 83 FF 0F C0 2A 50 F8 0F 00 F0 01 80 05 42 FA FF DF FF FF FF F7 FF 47 FF 03 00 1C 10 00 FC 06
DPCM : D4 AA CA C0 FF 0F C0 2A 80 FE 05 00 F8 02 C0 12 01 FD FF AF FF FF FF FB FF D3 FE 07 00 A8 08 00
DPCM : 78 45 55 D5 AA 80 FF 1F 40 55 00 FF 02 00 F8 02 50 5A 00 FE FF A7 FD FF FF FF FF D5 FB 03 00 68
DPCM : 05 00 70 A5 52 AB 1D C0 FF 1F 80 56 00 DF 04 00 7C 05 90 2D 00 F7 FF 55 FD FF FF FF FF F4 EF 02
DPCM : 00 D8 04 00 A8 AA 52 AD 2F 80 FF 1F 20 2B 00 5F 09 00 BC 01 92 2D 00 B7 FF 2B FD FF FF FF 7F F5
DPCM : FB 05 00 D8 12 00 A0 AA A4 B6 2F C0 FF 1F 80 56 00 B7 04 00 F6 00 49 17 40 DB FF 2A FE FF FF FF
DPCM : 9F FA FD 05 00 B6 09 00 A0 AA A4 BA 0F C8 FF 1F 90 16 80 AD 02 00 BE 00 C9 16 40 EB FF 4A FA FF
DPCM : FF FF 9F BA FF 05 80 DA 12 00 90 AA 92 BA 17 E4 FF 0F 42 0B A0 55 09 00 6E 01 A4 0B 90 F5 DF 45
DPCM : FA FF FF FF 8F EC 7F 0B 40 6D 15 00 44 AA 92 F6 26 E4 FF 0F 91 0A A8 AA 02 00 BB 20 D0 16 90 DA
DPCM : 7F 23 FA FF FF FF 4B DA FB 0B 20 DB 4A 00 82 AA 4A EE 8A E8 FF 8F 48 05 64 4D 09 00 5D 01 A2 0D
DPCM : 21 F5 EF 22 FE FF FF 7F 15 B5 F7 25 90 B6 1A 41 40 AA 4A B6 25 B9 FF 4F A4 22 D0 AA 04 80 36 09
DPCM : D0 4A 44 DA BF 92 FA FF FF DF 4A D5 DE 15 22 5B 55 84 20 A9 4A AD 25 B9 FF 97 A4 82 A8 55 02 20
DPCM : AB 04 51 25 89 EA BB 49 FE FF 7F 77 95 6A BB 25 A2 D6 2A 49 90 A4 AA AA 29 B5 FF 2B A5 84 68 55
DPCM : 42 40 55 22 A8 52 92 B4 6F A5 FE FF DB DD AA AA 6D 95 A4 6A 55 4A 88 94 AA AA 2A B5 7F 5B 29 89
DPCM : A4 55 22 90 AA 88 48 A5 24 B5 DB 4A FD FF 6D 77 53 D5 D6 92 54 55 55 25 49 52 AA AA 2A AB EF D6
DPCM : 52 12 A9 96 24 44 55 12 51 4A 29 B5 AD AA FE EF B6 DB 96 5A 6B 29 95 AA AA 4A 49 4A A5 AA AA AA
DPCM : DB B6 AA 24 A9 AA 28 92 2A 45 52 52 4A B5 D6 CA F6 F7 DA 6D AD 6A 55 53 4A 55 55 A5 92 52 A9 AA
DPCM : AA 6A DB 5A 55 49 AA 4C 29 49 A9 92 92 52 4A D5 56 55 BB 77 6B DB 5A B5 6A A9 54 55 AA 4A A5 52
DPCM : A5 AA AA AA AD D5 AA 94 2A 55 2A 29 55 2A A5 54 2A D5 6A 55 6D 77 AD AD B5 6A D5 54 A5 AA 52 95
DPCM : 2A 55 95 AA AA AA B5 6A 55 A5 52 95 2A A5 52 A5 52 A9 4A D5 AA AA B6 AD AD D6 6A B5 AA AA 2A 4B
DPCM : 55 AA 4A 95 AA AA AA AA 5A AD AA 2A 55 A5 AA 54 AA 54 A9 4A 55 55 55 D5 5A 6B AD 6A B5 5A 55 55
DPCM : 55 55 AA AA 54 A9 AA AA AA AA AA 55 B5 54 55 A9 AA 52 A5 AA 54 95 AA AA AA 5A B5 5A AB AA 55 AB
DPCM : AA AA AA AA 52 55 95 A9 AA AA AA AA AA AA 55 55 A5 AA AA 4A 55 A9 AA 52 55 55 AD B4 AA 55 AB AA
DPCM : 5A 55 AD 2C 55 55 55 55 A5 AA AA AA AA AA AA AA AA AA AA AA AA AA 52 55 95 A5 AA AA AA 5A 55 AD
DPCM : AA AA AA 56 55 55 55 95 5A A9 AA AA AA AA AA AA 55
DPCMDEF   2  1137 "fdbass C"
DPCM : FF 3F FF D7 60 5A 00 00 04 89 07 2C BA F4 65 00 3F 1F B9 2E 61 9F 81 21 A7 91 0F 1A FE ED E5 E7
DPCM : FF 3F FD 7C 80 7F 00 01 03 80 03 1A B8 FC 81 03 7F 09 FC 65 C4 7F 01 10 97 81 0F 38 FE ED E1 FF
DPCM : FF 7F FE 7D 06 7F 00 80 03 80 01 1A 38 CF 43 03 7F 08 FE 6C C4 3F 01 20 07 81 0F 38 FC E7 E3 FF
DPCM : FF FF FF FD 0C 7F 00 80 03 00 03 19 94 EF 41 06 9F 07 FC 61 88 3F 01 00 07 09 0F 38 FC FF E3 FF
DPCM : FF FF FF FB 1C FF 00 80 03 00 07 18 98 FB C1 00 FF 01 FE 31 80 FF 00 00 0F 00 0F 38 FC FF E3 FF
DPCM : FF FF FF FF 80 FF 00 80 03 00 86 38 C8 DE 81 03 BF 09 F6 61 80 EF 01 00 0F 00 0E 78 FC FF F1 FF
DPCM : FF FF FF 7F 41 FF 00 00 07 00 0E 38 88 FF 81 03 DE 03 F3 11 83 F3 00 00 1F 08 0C 78 F2 FF F9 FF
DPCM : FF FF FF 7F 83 FB 00 20 0C 00 36 18 84 FF 01 03 FE 07 F1 23 81 6B 05 00 1E 00 14 F8 F1 FF E3 FF
DPCM : FF FF FF FF 81 FF 01 40 04 00 76 08 81 FF 01 07 FE 07 F0 47 80 BB 01 00 3E 00 30 F0 AB FF E3 FF
DPCM : FF FF FF FF 81 FF 01 C0 00 00 F4 04 81 FF 03 06 FC 0F F0 0F 80 E7 01 00 3E 00 20 F8 AB FF C7 FF
DPCM : FF FF FF FF A1 FF 01 80 02 00 D8 15 A0 FE 03 02 FE 1F C0 7F 00 EA 01 00 3E 02 00 DA DB FE CF FD
DPCM : FF FF FF FF C1 FF 00 80 05 00 60 0F 90 EF 83 00 FF 1F C0 7F 00 D4 02 00 FE 08 00 54 ED FE AF F5
DPCM : FF FF FF FF 87 FF 01 00 56 00 80 16 C1 7E 4B 02 FC 3F 80 7F 00 6A 05 00 FC 05 00 58 D9 FE DF D2
DPCM : FF FF FF FF 4F FF 01 00 5A 00 00 1B 48 DF AB 00 FE 3F 00 FF 00 54 05 00 F8 47 00 28 A9 FF FB A1
DPCM : FF FF FF FF 9F FE 03 00 BA 00 00 2C 48 7B B7 01 FC 7F 00 FD 00 54 03 00 F8 0F 00 94 54 7F FF C2
DPCM : FF FF FF FF 4F FF 01 00 BD 01 00 24 41 BD 7D 01 FC FF 00 FE 00 A8 05 00 F0 4F 00 28 91 FD 7F 43
DPCM : FF FF FF FF 9F FE 03 00 BE 01 00 09 91 DA ED 02 FA FF 00 FE 00 D2 12 00 E0 37 00 54 92 F6 7F 43
DPCM : FF FF FF FF 4F FF 02 00 FE 02 08 12 84 DA 75 03 F5 FF 01 7E 00 A5 05 00 E0 3B 01 A8 48 F6 BF 23
DPCM : FD FF FF FF 4F FF 01 00 FD 05 82 48 20 D9 75 45 F4 FF 01 7E 01 52 15 00 C0 6F 02 48 89 BA 7F 0B
DPCM : FD FF FF FF 4B FB 03 00 FD 0D 41 24 90 D4 B6 45 F8 FF 03 FA 08 48 55 00 C0 5E 11 48 11 6D FF 46
DPCM : FA FF FF FF 13 FB 07 00 FA 2B 42 48 90 D4 D6 4A 78 FF 07 F5 42 90 26 01 80 BB 04 A4 44 6A F7 2B
DPCM : FA FF FF FF 25 FD 0B 00 EC 9B 44 24 44 B2 DA 4A 74 FF 8B DA 22 22 15 01 C0 B6 24 48 89 D4 BE 97
DPCM : F4 FF FF FE 95 FA 4B 00 74 37 25 22 41 A9 56 53 D4 FF 95 6C 25 91 92 00 48 AD 12 91 14 55 7B 57
DPCM : D9 FF EF F7 4D ED 2B 04 D4 AD 4A 92 10 A5 55 4B B2 FD AB 6A 25 49 92 04 90 5A 49 24 25 A9 76 57
DPCM : 6B FF B7 DF AB DA 9B 08 D2 5A A5 92 88 54 55 55 AA BD 5B B5 4A 49 49 44 20 B5 94 44 49 A9 B6 AD
DPCM : DA FB DB 7E 5B B5 5B 22 52 AD 4A A5 44 54 55 55 A9 F6 36 6B 55 4A 29 12 42 A9 4A 49 52 AA 6A 5B
DPCM : AD F7 5D F7 B6 6A 5B 49 54 55 55 2A 25 4A 55 55 A5 D5 AD D6 AA 54 49 51 48 52 95 92 54 CA AA AD
DPCM : DA EE 6D BD AD D5 D6 94 A4 AA AA 54 29 29 55 55 95 D5 5A AD 55 AA 4A 49 12 95 2A A5 94 52 B5 56
DPCM : AD DD 6D 6D 5B AD AD 4A 29 B5 54 95 4A 29 55 55 55 55 AD 56 AB 2A 55 4A 49 4A 55 4A A9 52 55 AB
DPCM : 56 DB AD B5 AD 56 AB A5 52 55 AA AA 54 29 53 55 55 55 B5 AA 56 55 A5 4A A5 94 4A 95 2A 55 59 D5
DPCM : AA B6 B5 D5 5A AB D5 4A A5 AA 2A 55 95 AA 54 55 55 55 55 B5 AA AA AA 52 95 4A A5 AA 54 AA AA AA
DPCM : 55 6B AD 55 AB D5 AA AA 2A 35 55 95 AA 52 55 55 55 55 55 55 AD AA 52 55 55 AA 52 55 AA CA D4 D2
DPCM : AA 5A AB 55 B5 5A 55 AD 54 55 A5 AA AA 54 55 55 55 55 55 55 55 55 55 55 55 A5 AA 54 55 A9 56 A9
DPCM : 56 D5 AA 55 D5 AA 6A 55 69 AA AA AA 4A 55 55 55 55 55 55 55 55 55 55 55 55 55 A9 AA CA 52 55 D5
DPCM : 54 AB AA 55 55 55 AB AA AA AA AA 52 55 55 55 55 55 55 55 55 55 55 55 55 55 55 55 AA AA AA AA AA
DPCM : AA AA 56 55 55 55 D5 4A AB 54 55 55 55 55 55 55 55
DPCMDEF   3  1137 "fdbass C#"
DPCM : FF 7F FE 27 D0 07 00 90 08 8C 78 30 F2 4F 00 FE 39 79 6E 94 DD 00 A6 13 78 C1 F5 F5 07 FF FF 7F
DPCM : FA 3F 68 3B 00 80 00 70 E0 C1 E2 3E 04 7E 06 7E 5B 84 3E 01 D8 07 E0 81 A7 EF 1F FE FF FF FC FF
DPCM : C9 77 00 20 00 C0 C1 00 87 3F 1C F8 59 38 97 09 F9 01 20 9B 84 07 0E FE 3F FC FF FF FB FF 87 F7
DPCM : 01 00 06 00 07 02 CE FC 30 F0 63 E1 CC 19 F0 07 80 66 10 0E 38 FC FF F0 FF FF FF FF 5F FC 06 00
DPCM : 0C 00 1C 10 78 F2 C1 E0 CF 81 3B 66 E0 1F 00 98 20 38 E0 F8 FF E1 FF FF FF FF FF F0 35 00 30 00
DPCM : 70 C0 E0 F0 07 07 9F 03 AF 19 03 7F 00 C1 80 60 80 E7 F3 D7 FF FF FF FF FF E3 73 00 C0 00 C0 80
DPCM : C1 6B 0F 06 7E 07 BC 71 0C FC 01 04 02 03 01 CE FF 0F FF FF FF FF FF D7 D7 01 80 05 00 03 04 F9
DPCM : 7F 40 F0 47 E0 C3 10 BC 0F 18 0E 04 00 3C 1F 7F FC FF FF FF FF FF BD 07 00 16 00 20 24 CC FF 40
DPCM : E0 3F 41 37 03 E0 1E 40 31 18 00 F0 9F FE F1 FF FF FF FF BF FB 0E 00 2C 00 00 11 B8 FF 03 C0 FF
DPCM : 01 FA 05 80 7F 00 A0 43 00 C0 7F F8 CF FF FF FF FF FF FA 3F 00 B0 00 00 0C 60 F7 0F 04 FF 0F E0
DPCM : 1F 00 7C 00 A0 8F 00 40 B7 F3 3F EF FF FF FF FF D7 7F 00 C0 01 00 30 01 FE 9F 00 FF 0F 80 7F 00
DPCM : F0 03 00 FE 00 00 66 F7 FF B4 FF FF FF FF DF FF 01 80 05 00 40 05 F8 5F 13 F8 7F 00 FC 03 C0 03
DPCM : 00 FC 03 00 2C F5 FF 5D FE FF FF FF BF FD 03 00 07 00 00 13 D0 BF 1D F0 FE 03 F0 07 80 0F 00 E0
DPCM : 0F 02 30 51 FF FF E8 FF FF FF FF FF 0F 00 3C 00 00 10 A0 FB 7B A0 FB 1F 80 1F 00 1F 00 00 7F 04
DPCM : A0 42 FE FF A3 FF FF FF FF F7 1F 00 78 81 00 80 00 FD ED 21 FE 3F 00 7E 00 FA 00 00 FC 20 80 05
DPCM : FA FF 8F FE FF FF FF EB FF 00 E0 25 00 00 02 74 DF 15 FA FF 01 F8 01 F0 02 00 F0 83 00 0D E1 FF
DPCM : 7F F8 FF FF FF 67 FF 05 C0 9D 08 00 00 D0 FD 9A E4 FF 07 E0 07 E0 26 00 C0 0B 01 2C 82 FF FF D1
DPCM : FF FF FF 97 FE 17 00 DF 24 00 80 80 DD AB A2 FF 1F C0 17 40 5B 00 00 9F 00 A8 82 FA FF C7 FE FF
DPCM : FF 57 FA 1F 00 BD AB 00 02 80 EC AE 8A FE 7F 00 5F 80 BA 00 00 DE 08 A0 84 F8 FF 17 FF FF DF B7
DPCM : D4 7F 01 F0 AE 0A 08 00 69 BB 4A FA FF 01 7A 01 BA 09 00 78 09 40 25 C8 FF 5F FC FF 7F EF A4 7F
DPCM : 05 C0 DD 9A 20 00 A4 DD A6 E8 FF 0B D8 05 D2 15 00 F0 2A 00 2A 88 DE FF F2 FF FF DD 95 FA 27 00
DPCM : DD 5A 91 00 88 76 AB A2 FF 0F 62 27 A4 96 08 C0 56 02 28 41 DA FF AA FF FF BB AB EC 57 80 D4 D6
DPCM : 94 04 08 D5 AD 4A FD 5F 44 2B 91 5A 44 80 B6 04 48 11 D2 FD CD FE FF B7 D7 D4 BD 02 51 AB AA 24
DPCM : 20 AA B6 AA EA BF 92 AA 44 6A 22 01 B5 4A 20 89 48 FB AE F6 FF BB BB AA BD 25 44 55 55 25 81 A4
DPCM : DA AA B4 7F 53 AA 24 A9 8A 02 AA 95 10 49 24 75 AF B5 FF DB BD 55 DB 55 A2 54 55 29 05 49 6A AD
DPCM : D2 FA AB AA 92 A4 2A 0A 92 95 12 49 92 D4 6E 6B F7 AF DD AD DA AD 24 55 AA 2A 25 A2 54 B5 52 EB
DPCM : 5B 55 55 52 AA 28 22 4D 25 49 4A 52 DB 5A FB DE BA 6D B5 6D 2A A5 AA 4A A5 88 4A AD 2A AD 5D AB
DPCM : 96 52 A9 94 44 A9 4A 4A 52 52 B5 D5 B6 77 AB 5B AB 6D 55 2A 55 55 AA 24 A9 AA 2A B5 DA 5A AD 52
DPCM : A9 52 4A 52 A9 94 52 52 55 6B B5 DD AD B6 56 6B AD 54 55 A5 AA 94 94 AA AA AA AA B5 AA 55 AA 4A
DPCM : A9 A4 54 A9 94 52 55 55 6B ED B6 6A AB D6 5A A5 AA 2A 55 A5 52 AA AA AA AA 6A B5 AA 4A 55 A9 52
DPCM : A9 52 A9 94 AA AA 55 6B 5B AB D5 6A 55 CB 54 55 A5 AA 52 A9 AA AA AA AA 56 55 55 55 A9 AA 54 A9
DPCM : 54 A9 4A 55 B5 5A 6B AD 6A D5 6A 55 A9 AA AA AA 54 A5 AA AA AA AA AA 65 95 56 A5 AA 52 55 AA 4A
DPCM : 55 95 6A 55 6B B5 AA 56 D5 AA AA AA 2A 55 55 AA AA AA AA AA AA AA AA AA AA AA AA 4C 55 A6 2A 55
DPCM : 55 AD 6A B5 AA 6A 56 D5 4A 55 55 55 55 AA AA AA AA AA AA AA AA AA AA AA AA AA 54 55 55 A9 AA AA
DPCM : 56 D5 AA AA 6A 56 55 55 55 A9 A9 AA AA AA AA AA AA AA AA AA AA AA AA AA AA B4 54 55 55 55 55 B5
DPCM : AA AA AA AA AA AA AA AA AA AA AA AA AA AA AA AA 55
DPCMDEF   4   913 "this"
DPCM : 95 55 55 55 55 55 55 55 53 55 55 55 55 55 55 55 55 55 55 55 55 55 55 55 55 55 55 55 55 55 55 55
DPCM : 55 55 55 55 55 55 55 4B 55 D9 52 CD 54 53 CE 54 53 55 65 55 55 95 55 95 C6 95 59 53 4D 95 55 D1
DPCM : 55 D5 54 B5 38 8E 55 35 15 57 A6 96 59 5A 71 1C C7 75 54 8D 71 DC 31 46 3E 87 C3 39 CC 53 E6 18
DPCM : 0F E3 3C CC D3 61 78 87 B1 27 1C 3E 0B F5 19 35 96 45 CE B5 34 7C C1 35 5C 39 B5 08 1F C7 E1 1C
DPCM : CE E3 1C 63 8E 71 46 8C F3 63 CC 39 E3 8C 31 E6 9C 71 38 C6 CD 71 3C 8E E1 E3 38 63 CE 39 1E 77
DPCM : E0 18 C7 70 8E 33 18 4F E3 38 0F 7B 0E E7 61 18 9F 61 8E 98 71 3C 77 C7 18 39 63 61 8C F3 E3 38
DPCM : C7 E3 78 18 47 FC 0C 8F E3 18 CF F0 98 83 F1 18 72 C7 F8 31 1C DE 31 3E 4E 80 73 E6 CC C9 31 23
DPCM : DE C5 3D B8 73 1C 9C 01 33 4F CF 79 23 97 0F 7F 80 03 38 C0 0F F8 87 F1 7C 8E FF E0 0F F8 C0 1F
DPCM : F0 03 1E C0 07 40 00 0E F0 7F FE FF FF FF FF 0F 00 80 01 10 04 97 F6 31 FE E3 7F 08 8F 21 8E 20
DPCM : 38 00 C3 20 3C C3 FF 7C FE 7F FE DF FF E1 03 7C 00 0A 30 80 1F F8 03 0C 00 01 70 D8 13 FF FB FF
DPCM : FF FF 7F FE 07 FF 00 1C 00 00 00 00 00 80 F3 F3 FF FD FF FF F3 0F FC 00 1E 80 01 0E E3 31 1C 10
DPCM : 11 18 80 0D F8 C7 FF FF FF FF FF EF FC 70 00 18 80 83 40 00 00 30 06 EF F9 FF BF FF CF 79 1C 07
DPCM : 70 00 0E C0 20 1C C7 E3 7F 38 1E C7 E3 70 1C 8F C3 79 1E FF 71 CE E3 71 38 12 8E 83 E1 40 38 8E
DPCM : C3 E1 38 8E C7 FF F1 CF C3 E7 01 E7 C0 18 C7 C1 18 8E 61 0C 73 06 1C C7 E3 F1 78 9E E3 73 8C F3
DPCM : 61 1C C7 71 0E 9C 73 1C E7 E0 1C 1C 8F E3 E7 0C 8E C3 E1 38 1C 0F C7 71 3C 1C C7 E3 F8 30 1E 8E
DPCM : C7 71 8C 87 E3 71 9C C7 71 38 8E E3 9C 8F E1 1C C3 63 E0 38 0E 8F 71 9C E7 F0 38 0E E3 78 1C 8E
DPCM : E3 38 1C E7 70 8E F1 38 1C C7 F1 70 1C 8F E3 38 8E C3 73 1C 8E E3 E0 38 CF F1 E3 C0 CC E1 71 18
DPCM : C7 1C 87 C7 71 7C 1C 8F 31 6E 8E 87 73 86 F1 E1 38 0E E3 1C C7 C3 71 3C 1C 1F C7 C8 71 3C 0E 8F
DPCM : E3 18 C7 F1 38 8E C7 31 8E E3 38 3C 8E 73 38 1C 0E 7F 1C C7 E0 78 1C CE C3 31 1E 8F E3 E3 38 38
DPCM : 8E E3 70 1C 67 F0 38 0E 1C C7 39 0E 8F C3 71 CE 39 73 1C 1C C7 D9 71 8C C7 E1 31 0E C7 B1 39 CE
DPCM : 71 7C 1C C7 3C 0E C7 71 1C 87 E1 71 70 9C 39 76 1C 1F 72 1C E3 38 8E C7 E3 38 1E C7 E1 38 1E 87
DPCM : 63 CC E1 38 E6 78 38 1E 8F E3 70 1C 67 CE 71 3C 78 3C 3C 8C 71 1C 8E C7 0C 87 E3 78 1C C7 F1 70
DPCM : 9C 71 7C 3C 8E E3 71 3C 8E E3 78 1C C7 71 38 E4 38 38 CE 9C E3 71 1C 1C 67 9C E3 E0 E3 70 3C C6
DPCM : 71 38 0E E7 3C 1C 07 2F 8E C7 F0 38 C7 E3 38 1E 07 73 0E 87 73 3C 8E C3 71 3C 8E E3 F1 38 0E C3
DPCM : F1 70 CC 73 E0 F8 E1 70 1C 1C C7 78 3C 8E E3 38 8F F1 70 1C FF 00 1E 8E C3 33 8E C3 73 1C C7 F3
DPCM : 38 0E 87 E3 18 1E 0F C7 0F E0 71 3C C7 C3 63 88 E3 E3 F1 38 3C 0E C7 C7 31 67 F0 3C 8C C7 81 F1
DPCM : 82 E7 E0 83 E7 E0 B8 3F 78 0E 9E 19 1E C7 C3 3D C0 0F E6 E1 64 FC 00 50 55 55 55 55 55 55 55 55
DPCM : 55 55 55 55 55 55 55 55 55 55 55 55 55 55 55 55 55 55 D5 B2 AA AA AA AA AA 5A 55 55 55 AB AA 4A
DPCM : 5B 55 D5 AA 2A 6D 55 5A 2B AD 2A AD AA AA AA 55 55
DPCMDEF   5  1121 "fdbass D"
DPCM : FF 7F FF 01 F6 00 00 68 C1 C0 82 D7 3A 00 FE 33 D8 73 F8 32 30 D9 02 D3 DA F2 3B FC FB FF F9 D7
DPCM : C1 9F 80 00 00 2C 08 E8 ED 06 C0 3F 03 9F 0F 7F 00 92 2D 30 38 2E BF D3 FF FF 3F FE 3F DE 02 08
DPCM : 04 80 26 01 F9 6E 00 FC 32 F8 79 F0 07 A0 D0 01 02 D9 F5 77 FF FF FF CB EF E3 5B 80 40 00 70 0C
DPCM : B0 CF 81 A1 5F 06 1F 07 7E 02 26 3C 00 30 9C FD EF FF FF 7F FE 3E 7F 1C 00 00 80 8D 00 FF 18 30
DPCM : FC 87 F0 E3 C0 37 C0 C0 03 00 C5 F9 FF FC FF FF E7 DF E7 C7 01 01 00 E0 08 70 DF 01 C2 FF 10 3E
DPCM : 0E 7C 06 0C 3C 00 20 9C FC FF FF FF FF FC FF F9 1C 00 80 00 CA 80 F2 1D 10 FC 8F C1 E3 80 8F 80
DPCM : C1 03 00 E3 C0 FF FF FF FF FF FF 8F C7 01 02 04 80 0D 18 7F 03 C1 FF 20 7C 02 F8 09 18 78 00 30
DPCM : 9C FC F7 FF FF FF FF FF 78 39 00 C0 00 E0 01 F2 3F 20 F8 1F E0 07 00 7F 00 C1 17 00 C6 81 7F FF
DPCM : FF FF FF FF DF C3 03 00 0C 00 07 30 FE 07 06 FF 03 7C 00 F0 17 00 FC 00 C0 38 F8 FF FF FF FF FF
DPCM : 7F 7D 78 00 80 00 E0 00 E6 FF 00 F0 7F 40 1F 00 FE 00 C0 0F 00 98 87 FF FF FB FF FF FF CF 87 07
DPCM : 00 08 00 0E A0 DF 07 05 FF 07 F0 01 F0 0D 00 F8 01 80 75 F8 FF 2F FF FF FF FF 7F F2 00 00 00 60
DPCM : 02 F2 D7 15 F0 7F 80 3C 00 F7 00 80 1F 00 A4 CB F5 FF F1 FF FF FF FF AF 0B 00 00 00 05 50 77 F7
DPCM : 02 FE 0F C0 07 60 1F 00 F0 01 20 D9 AA FF 1F FE FF FF FF FF 7B 00 80 00 40 00 B6 DE 37 E0 FF 01
DPCM : 78 00 F5 03 00 1E 00 4A AD F6 FF E1 FF FF FF FF BD 0F 00 0C 00 00 D0 BC DD 05 FE 1F 40 07 58 5F
DPCM : 00 80 03 40 D5 D4 FF 1F FC FF FF FF DF FF 00 50 01 00 00 B4 AE 37 E0 FF 07 68 01 DB 03 00 38 00
DPCM : 98 55 DB FF C3 FF FF FF 7F DD 1F 10 2D 00 00 80 BA 6D 13 FC 7F 40 0D 68 77 00 00 03 00 6B 55 FF
DPCM : 3F F8 FF FF FF D7 FE 03 E8 02 00 00 68 D7 2E C1 FF 0F 70 01 EE 0D 00 60 00 A0 55 ED FF 83 FF FF
DPCM : FF 5F ED 3F 80 3E 00 02 00 75 ED 05 FA FF 80 16 60 F7 00 00 0B 00 D8 54 FB 7F F8 FF FF 7F D5 FE
DPCM : 07 D0 0B 40 00 D0 AE 5D E0 FF 07 54 01 ED 2B 00 60 02 00 AB 6A FF 87 FF FF FF 36 EB BF 00 BD 00
DPCM : 09 80 EC DA 46 FC 7F 08 55 A0 7D 01 00 4B 00 60 55 FD 7F F0 FF FF BB A6 FD 87 A0 27 20 01 42 B7
DPCM : B6 44 FF 2F D0 02 D5 2F 00 50 09 00 2C 55 FF 0F FF FF BF AB EA 6F 81 DC 08 24 10 6A 6B 4D EC FF
DPCM : 41 2A 50 FD 02 00 4B 00 A0 2A F5 FF F0 FF FF 5B 2B F7 2B 90 1B 42 02 21 BB B6 A4 FE 1F A2 12 54
DPCM : 3F 00 68 11 00 52 A9 FD 2F FE FF DF 56 D5 6F 05 6A 43 24 10 A9 6B 4B D9 FF 11 2A 41 F5 06 01 55
DPCM : 08 20 A5 B4 FF D1 FF FF B5 55 ED 2B 41 9B 44 42 44 BA B6 92 FD 2F A2 12 54 DD 10 A8 12 20 94 52
DPCM : FD 8F FC FF 5F AD AA F7 12 54 95 48 44 A2 6D 4D D5 7F 15 29 11 D5 16 41 9A 08 44 4A 69 FF 52 FF
DPCM : 7F 6B 4D ED 5D 42 55 92 24 14 D5 56 55 F5 AF 92 12 49 AD 12 51 29 42 A4 94 FA 5B DA FF 6B AD 56
DPCM : BB 95 94 2A 29 22 49 AD 55 69 DF 4D 29 89 D2 2A 89 52 91 90 54 AA 7D 55 F7 6F 6B AD EA B6 92 AA
DPCM : A4 14 51 D2 5A 55 D6 B7 AA 94 A4 AC 52 A4 52 24 52 A9 6A AF DA 7D 5B 6B 55 ED AA 52 95 52 89 54
DPCM : AA 55 55 ED 56 55 4A 2A 2B A5 94 92 44 A9 54 DB 56 BB D7 56 AB 66 5D 95 AA 4A 29 29 55 55 55 55
DPCM : DB AA 2A A5 B2 54 29 95 92 A4 52 55 D7 6A BB B5 D6 AA 6A AB 54 55 A9 52 52 55 55 55 D5 5A 55 95
DPCM : D2 2A 55 2A 95 94 52 A9 DA 6A B5 5B AD 56 D5 6A 55 AA AA 54 29 55 55 55 55 B5 5A 55 AA 54 55 95
DPCM : 2A 95 52 AA D4 5A D5 B6 55 AD 5A D5 AA AA 4A 55 A5 52 55 55 55 55 AD AA 2A 55 55 55 55 AA 54 2A
DPCM : 55 55 B3 6A 6B 55 AD 6A 55 55 55 55 A5 2A 55 55 55 55 55 55 AD 52 55 55 55 A5 AA 52 A9 AA AA 6A
DPCM : B5 56 55 B5 AA 5A 55 95 AA 2A 55 55 55 55 55 55 55 55 55 55 55 55 95 AA 2A 55 55 55 D5 6A 55 55
DPCM : 35 AB AA AA AA AA 52 55 55 55 55 55 55 55 55 55 55 55 55 95 AA AA AA AA AA AA 56 55 55 55 55 AB
DPCM : 55
DPCMDEF   6  1041 "snare"
DPCM : 19 00 00 D0 CC FF C7 FF F8 F1 FF C3 0F 63 00 87 01 00 00 54 55 55 55 E5 F8 FF FF FF FF FF 55 55
DPCM : 55 99 03 0C 00 04 00 00 40 55 65 CD 0F FF FF F3 FF E7 FF 9E 29 DC 19 02 8C E1 C3 38 00 00 18 07
DPCM : 18 30 1F 3E 3E F0 E3 3F F7 FE F3 FF 1F 1E C6 18 81 40 38 FC 30 00 C4 63 3C 3C 38 1C 90 E7 31 FF
DPCM : F3 CF FF FF 87 3B 03 30 8E C3 20 00 0C 00 20 1E 77 9C E7 F1 8F FF FB 6F 38 FF 39 FC 03 01 07 7E
DPCM : 87 01 30 00 80 79 F0 3C 38 38 9E 87 9F FF FF 3F CF 71 DC E1 0E 30 60 08 C3 81 21 38 C0 11 0F 8F
DPCM : 0F E7 1F FF CF F1 E3 1F E7 3C 0C 87 03 8E C3 03 C2 81 E3 38 8E 38 0E 3C C7 E1 79 7E 7C BE C3 31
DPCM : 7E 1C E3 38 3C 86 E3 F0 C0 E1 01 60 C0 1C 0A CF 71 FC 3D 8F CF 9F C7 F3 F9 FF 0C C3 21 0C 70 18
DPCM : 06 38 86 C1 08 E3 88 F1 E7 FF F3 FF 71 0E FF 0F 87 0F 86 31 38 80 31 84 03 18 38 C7 C1 39 1E 6F
DPCM : 9E F3 CF E3 FD FD C3 3B 0C E0 E0 C0 60 60 30 18 0E CE F1 18 CF CF E7 E3 E1 F1 73 F8 23 DC E1 70
DPCM : 78 78 E0 87 E3 18 63 0E 82 07 C2 F1 C0 E3 38 C6 F9 BC E7 3C FF F8 FF E0 0C 63 0C 43 E0 70 70 18
DPCM : 00 86 71 78 9E C7 1F 9F 77 FE 9F 63 8E 71 F4 86 03 7C 00 E1 70 38 C6 81 23 5C 7C 1C E7 C7 73 CF
DPCM : 79 2E 9E 67 1E 8F 21 0E 23 1C C3 F0 E1 F0 18 3B E0 89 63 87 CF F0 63 CE F1 0F FF E3 8E 63 3C 8C
DPCM : 31 0C 01 8E 10 63 98 79 1C 0F 0F EF C0 E3 FF 1C FF F8 7C 1E 0E 70 C0 01 E3 18 86 37 1C F8 E1 E1
DPCM : F1 F8 CF 71 8C 39 78 38 1E 8F 61 8E 71 CC D3 E1 11 F6 18 7B 30 1C C7 11 F8 4D EF C3 C7 87 9B E3
DPCM : 0E 39 70 80 31 8C 79 BC 0F 4F C1 07 F7 18 FE 60 55 90 17 FC 39 9E C3 71 0F E7 38 7C 18 E7 80 7D
DPCM : 8C 23 0E 81 C7 F1 70 9E F8 E1 E5 70 FE C4 E7 C2 41 0E 15 0F 3E 81 6F 88 C3 8B C7 C7 33 16 D5 C3
DPCM : 39 CE C3 81 67 1E F8 7C 8C C3 F1 30 1C E2 11 0F 87 F1 F8 F8 9E 0F 1F C6 D9 61 0E 0E C3 61 38 8C
DPCM : 79 0F EF C8 93 E7 E1 38 C7 78 B0 E2 F0 54 9E E1 38 0C 0F C7 71 C3 3D 06 EF 38 E3 1E 1E 9F F1 90
DPCM : 72 C4 86 15 C6 C3 2B 34 54 8C C7 CF 3B 7D 8C 19 8F CD E3 C6 71 0E 78 18 0D C3 39 7C 18 1E 8E E3
DPCM : E1 9E E3 D9 83 CE 18 CE 91 8F F3 62 1D 8C 43 7C D0 1E 3C 1C 1C 9A C1 EB 61 3F DC 51 F3 30 3D E7
DPCM : B3 4E C1 C1 10 D3 30 3C 9E 54 C7 0E 0F 8E F3 8E E7 5A 78 18 C7 E1 D1 31 1D 0F 65 A5 38 E1 71 57
DPCM : 55 4B 8D 93 56 4C 5D EB F0 62 8C 69 55 67 45 CF E1 50 A5 E1 18 1E 87 C7 71 5C 79 3C D3 AD C1 2B
DPCM : 47 39 1E 9C A7 F8 10 1D 95 62 59 8C 33 F8 3C 8E 8D C3 75 D5 57 1F 8D 33 2C 14 4E 25 8E E2 2C AC
DPCM : 35 1C 6F 69 79 55 77 79 1C 96 D1 2C 96 52 35 CA 61 87 63 D4 B0 A5 2F 5E 47 59 55 AB 9C E5 C5 E2
DPCM : 70 E2 18 66 D4 F1 AC C3 8D C5 15 6B 4D CB E5 68 D4 D2 1A 73 0E 67 34 0D 0D 8F 71 68 D5 8D 87 5B
DPCM : 78 B5 5C 9B B3 6A 8C 83 52 16 57 45 97 AA 12 AB 4A 5F 9C 35 55 35 56 D5 58 9D C3 53 45 D5 61 69
DPCM : 9C 26 9E C5 A5 65 65 95 6A 55 D6 54 75 61 95 6A 95 CB 74 1A 3B D4 71 54 95 15 87 5B E2 C1 A6 F1
DPCM : 6C A5 65 4D 73 51 17 57 2A 75 B4 72 96 A5 2A 4D 85 C7 52 1C A7 6A E9 B4 56 D9 3C 5A 8B AB 1C 1D
DPCM : 8D 45 55 31 8C 2B AA 6D 79 78 35 55 4B F5 D0 5A 55 56 65 C9 46 55 A5 B2 D8 4A 5B 54 39 56 AE A6
DPCM : 55 C7 B4 AA 52 D5 54 D5 CC D2 16 55 65 59 96 55 D5 54 56 B1 15 D5 29 27 9D 56 55 35 55 CD B4 6A
DPCM : 2C 4B 53 55 55 55 65 55 D5 54 9A A6 99 55 A9 66 2A AB 69 55 56 55 2D CB 96 AA 52 4B 55 55 D5 94
DPCM : AA 54 8B AD 74 55 59 D3 54 55 55 55 4D AD 2A 4D 55 55 59 A5 55 55 55 55 55 AA 95 55 59 5A 55 55
DPCM : 55 55 55 55 55 D3 52 D3 54 55 55 55 65 55 A9 AA 55
DPCMDEF   7   897 "is a"
DPCM : EE 81 C3 38 1E 8F E3 61 8C F1 C0 3D C3 1F 0F 3E 0F 1E C7 71 0C 8F 07 CD C1 00 3C 30 1F FE E7 9F
DPCM : FF C1 1F 03 01 08 C0 01 FE E7 FF FC 81 FF E0 0D 60 D0 07 3C 03 0E 83 10 87 C1 F1 FC E7 F9 FF FC
DPCM : 3F 3E 08 0E E4 C1 7F F2 8F 73 00 00 00 00 00 00 00 FF FF FF FF FF FF FF 0F 00 02 00 C4 00 00 81
DPCM : 61 C0 8E F3 FF FF FF FB 7E FB 0E 3E 83 07 E6 81 1F E0 03 3C 00 01 00 00 00 00 00 DC FF FF FF FF
DPCM : FF FF FF 03 1C 08 01 0E 00 04 00 83 71 38 1C CF E3 7F 3F DF 47 CF 7F 86 FF E0 03 E7 E0 04 38 C0
DPCM : 23 C0 00 40 00 08 9C E3 FF FF FF FF FF FF FF E1 10 10 C4 00 0C 80 01 00 80 C3 F0 FC FF F7 F8 7E
DPCM : 3C FF 78 1C 8F F3 71 8F E3 01 0C 40 10 0F C0 41 38 0C 1F 8E C7 F3 7D BE FF F7 F1 B9 8F E3 31 3C
DPCM : 8E C3 61 00 0C C1 00 00 08 C7 F1 3C FF E3 79 1C 8F E7 FF F8 79 73 8C E3 E1 30 1C 86 61 38 0C C2
DPCM : 30 38 8E C3 F1 38 9F CF E7 7B 9E 1F CF E1 61 18 8E 63 70 18 8C 1B 03 3F 80 73 8C 71 9E 71 8E E3
DPCM : F1 38 1E CF DD F3 3E E3 83 71 70 1C E3 E0 30 0C 03 C7 0C C7 0D E7 8C F3 C7 71 1C 8E E7 38 1E 9F
DPCM : 77 8E 83 39 38 8E 71 18 06 CC 71 3C 0E 8F 83 73 CE 8F 73 DC 1C 67 67 1C 0E 87 C7 61 1C 07 C7 71
DPCM : 1C C7 C1 31 8E C7 F1 E3 18 C7 F1 71 3C 1C E7 F0 38 CE C1 E3 38 73 1C 73 60 0E 83 83 E3 78 8E 8F
DPCM : E3 39 1E 8E C3 71 66 76 CC 38 6E CE 70 70 8C F1 38 3C CE 7D 1C 87 87 60 8F E1 71 3C C4 79 38 1E
DPCM : 8F FB 1E 8E E7 01 79 80 C1 73 08 FB 00 FC 0F FF 7C 40 FF 60 87 C3 70 06 0C 87 07 C7 E3 87 FF C1
DPCM : FB FC E0 79 18 C2 E7 F0 10 0E C0 00 78 FC 03 FF 87 E7 7C 90 0F 36 E0 0F FC D1 0F FE 81 1F FC 02
DPCM : 1E DC 01 53 A0 00 0F 88 63 3E FC 77 FC 9F FF 7E 00 FF 00 C3 FF E0 1F 00 80 03 E0 C0 03 FF 81 3F
DPCM : 7E 80 3F C0 F1 1F FC FF 7B FC 01 FC E1 98 73 80 31 00 20 00 40 1E 82 FF FF FF 4F 7D F9 38 FE C0
DPCM : FF C4 A0 FF 80 3F 00 00 06 00 EA 03 F8 07 CE FC 00 FE A0 FD FF FC FF 1D FF 0F FC 31 8C 9C 01 00
DPCM : 00 00 01 00 A4 1C FE 1F DF 7F FC BF DF C7 E3 79 3C 87 E3 F1 18 1C 21 10 04 00 18 C2 E0 70 1C BE
DPCM : FB FF FD FB E7 FB DA 6B F5 84 C1 10 42 18 82 41 50 44 52 94 E6 38 F7 BA 7D BE B3 9F 7B A6 36 8A
DPCM : E3 14 5A 47 71 5C 24 4A 89 80 2A A1 F2 58 EA F5 D4 F5 D5 D5 B5 D9 7A 55 35 27 A9 5A 62 A5 28 A9
DPCM : 94 48 69 98 2C 4D 55 5B 2D CF 5B 55 9D D6 B2 96 71 66 AA CC D4 A8 2C 95 2A 55 AA 34 65 55 D5 6C
DPCM : B5 5A D5 B2 EA B4 AA 2A 4B 95 63 B1 D2 54 55 55 59 AA 4A 55 55 35 D5 CA 72 5A 56 2D 55 1D 2B CB
DPCM : A6 29 2B 4D 55 55 55 55 55 56 69 59 99 A9 AA AA AA AA 9C 66 95 55 55 CD AA CC 4A B5 4C 4B 4D 55
DPCM : 55 55 55 55 55 55 55 95 A5 A5 6A AA 52 2D AB 6A 55 95 65 55 A6 A5 99 66 D5 34 6D 9A 55 A5 B1 AA
DPCM : CA 2C 55 55 6A 1A 2B B5 68 79 AA AA B2 65 A9 56 65 55 9A 59 56 4D 55 D5 94 A9 56 D5 AA D3 9A A4
DPCM : 52 95 54 2D 46 4B 9B AE 8C 27 69 35 3D 5C 56 36 AD 15 C7 D4 1C 47 95 2F C5 96 4C 55 55 55 55 55
DPCM : 55 55 55 55 55 55 55 55 55 55 55 55 55 55 55 55 55 55 55 55 55 55 55 55 55 55 35 00 50 00 C4 55
DPCM : 55
DPCMDEF   8  1105 "OrchHitF.dmc"
DPCM : AB 39 1A 1C 6E 9E F3 DC 11 30 21 06 F2 CD EE FB 7E 0C 0B 85 3E C1 C0 8F C6 17 FF 65 18 EC 01 88
DPCM : 48 6E 74 00 F0 EF FD FF FF D3 03 68 42 3E 7D 6A F8 03 0F 08 1E 00 00 FC B3 CF ED 00 70 F9 FB C2
DPCM : 07 00 18 FD F7 1C 24 37 0F F8 FF 10 70 B8 FF FF BE 12 CD 1D 7F C3 1F 00 00 80 88 63 FF 22 30 F3
DPCM : 1E E6 7F 06 5F C4 01 F8 EF 07 E0 06 23 60 0F 61 60 F0 F3 F9 F3 37 7C D0 EB 30 C3 1B 00 F0 7F F0
DPCM : DF FB 4A D9 D8 F8 82 73 10 30 60 F8 32 F6 3D 08 20 F8 8C 7F 38 9C 15 3C B6 BD 08 9F 32 BC 6D 7B
DPCM : 34 E4 09 5E F7 3F 48 03 30 DF F3 FB 9E 25 00 8E FF 79 00 12 00 8B FE 87 01 3C C0 50 FC 77 1C 9E
DPCM : E0 6C FC 31 BF FF 1E 7F CE 00 0A 36 30 1F 7B 14 C7 38 00 30 7E CF 03 1E C0 97 FF C7 DF 2F 00 0C
DPCM : FF 51 82 73 18 FE 61 00 E7 30 C6 F7 0E A3 31 1C E7 79 9F C3 BE 0D F8 BC 7F 00 80 20 B8 F8 79 F0
DPCM : 71 00 7E E0 3F EC 61 1C 7E F0 07 FF 3E 80 6D 3C 07 3C 60 03 3F FE 60 21 0E 00 0C FF 7F DD 83 84
DPCM : FF 7F 8F 63 1A 85 83 1F 87 09 84 E3 81 CF B1 06 E2 F8 87 E3 00 8F 71 8C EF 79 84 7F 38 CE 37 3C
DPCM : C6 3F 10 E0 3F 3E E0 1E 14 E0 0F 0F 80 0F 3C F8 C7 0F 8D 0F 3E F4 F3 9B C5 C3 00 F4 F9 FB 02 18
DPCM : 00 62 3D FC E7 1D 0E 82 DF 78 03 9F 7E 9D 07 1C 02 C3 9E FF 6F 87 01 05 8C 80 0C EE 85 1E C7 77
DPCM : FE C3 03 5F 7F B0 C1 30 98 C3 31 CE 67 F8 E7 23 1C 80 78 9C E3 1D C8 F1 0F F2 F1 18 DF F8 0E 40
DPCM : F2 8D 7E FC C0 4B 3E 80 30 CC 93 18 FF 87 27 3C 80 8F F7 CC 0F F8 01 07 F8 F3 07 FD 88 87 70 C0
DPCM : 03 7C EC E3 7E E3 81 3E E9 78 83 E0 B8 F3 60 98 F2 79 9C 5B 0C F8 7D 10 E4 38 08 EE 3B 88 F3 1F
DPCM : 62 FB 0B F0 78 47 78 9C E4 71 DC C3 0D 5E 49 0C 86 30 06 F7 78 DF 6F 19 90 7D 98 E3 97 0E C4 74
DPCM : 8C FF C1 03 6C 2F 74 68 72 51 C2 03 7E 3F 70 98 A1 BF 1F 88 9C 8F E3 90 8F 27 FF 32 60 8C C6 21
DPCM : CE E8 21 6C FD 37 2F 02 B8 CF F0 88 3F 78 30 4F 3E F0 3F 00 E0 1F 78 A1 1E 4F 98 3F FF 14 07 00
DPCM : D0 DF 7F 80 E1 3F E8 73 3F C8 31 07 70 42 06 FC F0 A7 78 E6 53 7D 10 02 EF DD C2 46 5E 28 E6 7F
DPCM : EC 87 1A B0 C9 07 E1 98 C7 74 31 8B 78 E3 04 BB F0 9B 33 31 16 D7 F9 8F 6B 2E 88 41 9D 8E 30 8C
DPCM : C5 15 9E F0 29 D7 ED 80 EB CB 60 D1 D6 E0 DF 76 A4 8B 3A 80 D7 1A 79 22 9F F0 58 81 96 E8 0D B5
DPCM : FB 71 1C D0 EB AE F2 D1 2C 71 84 42 BE 5C 4C 30 5E B5 9A 8A 5D 1F 25 93 5D 19 0C C3 2F BF A5 0E
DPCM : B7 5A 0D 70 7C 8B 91 B8 C7 32 D8 03 57 BC 07 2E BD 28 8B 96 7B 0B C7 2A 5D A6 41 0B BF 42 8A 78
DPCM : E6 19 B3 87 FD 93 C2 A2 5D A0 D4 3C DC 4D 7D 40 BF 1C A8 86 BF 80 27 4B 37 0E E5 41 FE 89 92 4D
DPCM : DD C1 D2 35 4B B3 BC E2 E8 2C C2 11 96 34 AA 63 93 37 B7 5A BD 36 EA D0 82 4B AA A8 72 BD D5 A1
DPCM : 8E 79 21 92 E4 70 1F 21 55 3F 78 CA 9B BA F5 64 D5 C8 15 94 69 5D B5 40 2E 5B 8A 86 32 D3 23 95
DPCM : A9 BF 6E 55 A5 E9 61 29 ED 4A 89 B8 70 F3 DA 48 DE 58 8C 62 5C 8D 4C 2E 75 69 A7 93 8C 8F DB A8
DPCM : E7 B0 44 67 AC DC 6A 28 E1 18 2C 72 1A 5E D9 8D 6E FB 0E AE 58 0B 57 AA 85 4C AA D3 AA B7 C9 8A
DPCM : 6A 28 92 56 55 16 57 B6 D4 B7 AA 55 13 AD AA 4D 95 94 4B B2 95 5D DA 84 22 4B A9 AA 66 55 5A 6B
DPCM : 6D 2D 57 29 CD 56 96 C9 29 25 75 95 D6 F2 14 C5 A8 4A 6B CA D4 6A A9 57 6A 53 57 B8 A4 6D D4 22
DPCM : 55 BA 32 9D BA 95 8A A5 2A 4B AB 94 AA 35 4D 6B B6 8D B2 2A 4B 6B AA 8A 56 55 49 4D B5 25 4B 59
DPCM : A9 96 B1 9A BA 6A 95 55 DA 4A 55 59 65 B3 B4 4A 55 AA D4 4E 6D 31 0D 35 69 4D DA 2A 27 57 69 93
DPCM : 5A AA A5 55 53 23 AD 6A 59 55 AA D5 2A 4D 19 55 D5 52 D6 56 55 4B D5 AA A8 A5 A9 AA 52 4B D5 6A
DPCM : 55 A5 56 AB 94 B4 AA B2 32 55 55 75 D5 52 AD AC 54 5A D5 52 AA 4A 55 76 A5 AA CE 6A 25 55 A9 AA
DPCM : 6A A9 A6 5A A5 AA AA AA AA AA AA AA AA AA AA AA AA
DPCMDEF   9  1105 "OrchHitF#.dmc"
DPCM : D5 1C 0D C3 CD 73 CF 1C C0 09 19 C8 9F FC FB 36 87 45 82 6F 10 F8 C1 3C F9 3F E3 B0 07 00 50 76
DPCM : 70 00 F8 7B FF FF 7F 3F C0 02 F2 AD A9 E1 0F 4E 10 0E 00 00 FE FC B9 1D 00 97 DF 17 1E 00 60 FA
DPCM : EF 8D B0 99 07 FE 1F 02 86 FB FF FF D9 60 37 FC 87 1F 00 00 40 C2 D9 5F 04 66 FD 60 FF 33 5C 09
DPCM : 07 F0 EF 07 70 C2 11 D8 21 0C 0C 3F CF 9F D7 F4 25 D7 61 87 1B 00 F8 1F FC F3 7E 99 8D 8E 27 8C
DPCM : 41 42 C0 F8 26 F6 1E 06 00 BC B3 8F E0 13 FA AE EB 07 F0 35 FC FF 3F 01 5B 86 F7 42 D3 C0 06 F0
DPCM : 28 75 78 0A 10 7C D2 8E 87 BB 81 A3 F9 45 78 4A FC DA 7A 3C F4 00 AF FB 4F 68 00 E6 BD DF 77 96
DPCM : 00 1C FF 79 00 12 80 A1 FF 21 80 07 8C E5 BE 63 78 82 D9 FC 31 BF FF CF 9F 33 00 C1 02 FB D1 A3
DPCM : 18 E3 00 60 7C CF 03 0F E0 E5 FF F8 FF 06 40 F8 4F 18 CE 21 DC 63 80 E7 10 E3 FD 83 38 C6 71 DE
DPCM : F3 1C F3 1E E0 F9 FF 00 00 10 5C 7E 1E 38 0E C4 07 FF A1 87 73 F8 E0 07 FF 1E C0 17 CF 81 07 2C
DPCM : F0 EB 07 49 34 00 38 FE 7F DC C1 C2 FF DF F3 48 43 38 F8 31 2C 10 C6 13 CF E7 03 07 FC E3 10 00
DPCM : 78 E4 7F DF 39 8E 43 8C E7 79 E3 3B 80 60 C0 7F 3C 07 18 C7 FD CF F1 07 70 DC F3 08 F3 40 83 1E
DPCM : 1E 00 0F 1C FC D7 47 E3 C1 47 BE 3F 2D 1E 03 C0 F7 F7 07 00 00 B1 0E FF 79 C3 43 F8 86 1F F8 F4
DPCM : 75 1E 38 04 43 9F FF BB 63 80 80 18 48 70 2F F8 1C DF FC 83 47 9F 7B D8 30 0C 72 38 C6 7C C7 3D
DPCM : 8F 71 00 E2 38 E3 17 E4 F8 07 79 1D C7 1F EF 00 82 6F F4 F1 83 57 3C 40 18 E6 09 C6 FF F8 C0 03
DPCM : 78 FC 67 3F E0 03 0E F8 F9 07 3E E6 01 1C 78 C0 47 3E F7 8F 07 78 DA F1 16 70 88 7F 0C F2 B0 1F
DPCM : F4 39 41 7E D8 00 B4 4A 98 BF FF 10 07 70 FF E1 83 F9 97 00 3E E0 B8 1F 10 FE 00 8E 77 96 F3 3F
DPCM : 21 B8 43 3C 6F 36 84 E3 98 FF C4 01 B6 07 3B 1C 3C 46 1C F0 FB C1 03 13 F7 1F 48 9E 8F 71 F0 E1
DPCM : E5 5F 06 D4 48 0E 71 43 87 D8 FE A7 17 03 CC 73 3C E0 0F 0F F1 D2 83 FF 00 C0 3F B8 A0 1F 27 EC
DPCM : E7 9F C5 00 00 FA FF 03 8C 7F 50 EF 3E D4 A1 03 38 D0 01 1E 7F 45 37 BD EA 03 14 BC BB C5 0C 2F
DPCM : 14 F3 3F FD 41 03 9E BC 00 C7 9E E2 71 8C F0 CE 01 1A FE D2 87 1A E0 69 F7 7F 9A 01 1C 77 1C C8
DPCM : 1E E0 CE 87 1C A7 27 9C F8 F0 53 3D C0 90 3F FE C6 07 1C E4 87 43 BC C0 D3 66 38 93 1B 2E B8 C3
DPCM : B7 8E E1 18 EE F9 E6 B1 86 32 C4 A2 0D 97 11 E6 72 6A 55 EC 7A 4A 26 DB 32 0C C3 97 BF D2 E2 96
DPCM : 73 80 E3 5B 8C D0 17 67 C8 03 2F DD 03 47 1F 63 D4 BA 73 38 56 E9 54 83 16 7E 05 15 9C F3 4A F6
DPCM : B0 BF 14 1C ED 02 B1 E5 B1 9B FC 80 6F 0E 54 D1 1F F0 64 B9 72 28 0F FC 16 43 1B FD 60 E3 95 55
DPCM : B8 CF 8C AE 01 2B 70 42 B1 BE AA 1E 9F B4 2F 6B D4 41 0E A4 58 87 7D EA 9A D3 D8 90 8B DE 48 CE
DPCM : 23 B8 E4 B1 E6 B5 86 35 8E 64 BA 72 F8 C3 23 87 35 15 0E 2C 5A AA B1 CA CD 5B AB DE 46 1D 16 5C
DPCM : 52 45 95 7B AB 43 8F B9 10 49 1C FA 23 C4 EA C3 53 DE D4 EB D2 B4 91 0B 6A AA CB 96 C8 C4 29 34
DPCM : B2 2A 9E 5C 47 77 DF C1 15 6B B8 52 2D A4 52 A7 55 EF 64 45 35 24 D1 AA CA B8 B2 A5 BE 55 AD 26
DPCM : 59 35 A7 4A CA 25 D5 B2 4B 1B 92 54 49 55 55 AB B4 95 DB 56 5B 52 AD A5 A3 34 52 49 9D 7A CC 65
DPCM : 0D 55 2A CB 54 C7 32 E6 36 55 E3 2A E5 F4 E2 94 AE 14 D5 15 AD 75 89 62 54 A5 2D 99 5A 4B ED 4A
DPCM : 9B BA A8 29 5B 69 49 2A 5D 99 4B BD 52 B1 54 65 5A A5 34 67 99 D6 6C 47 65 95 A5 55 55 A9 AA 54
DPCM : DA D4 96 32 A9 D1 9A B4 9A 8E AD B4 51 4D D5 B4 6A AA A4 55 CB AA 52 A7 55 9A 2A AC 6A A9 6A AB
DPCM : 6A 69 56 25 35 4D 55 A5 96 AA D5 AA 52 AB 55 92 56 55 56 A6 AA AA AB 95 6A 59 A5 B4 6A 29 55 A9
DPCM : AA B6 54 D5 56 AD 94 8A 95 9A A5 56 75 29 4B D3 D2 A5 5A B2 A8 2A DB 52 A5 6A AA AB 15 5A 55 93
DPCM : 2D 59 65 D5 AA AA AA AA AA AA AA AA AA AA AA AA AA
DPCMDEF  10  1105 "OrchHitG.dmc"
DPCM : 2B 47 C3 38 3B F7 CC 08 4C C0 24 7F B3 F7 3E C7 02 C3 13 06 3E 8A 37 FF 1B 86 3D 00 20 D9 70 00
DPCM : FC BD FF FF 5F 4F 48 20 CF 5E 8E 3F 38 20 18 00 00 FE F6 DC 0E C0 F5 DB C3 01 00 E3 FE 37 48 2E
DPCM : 07 FE 3F 01 C3 FE FF BF 1A 76 E3 2F FC 00 00 80 C0 B1 7F 04 33 7F C8 DF 86 2F 70 00 7F 3F C0 09
DPCM : 23 B0 23 0C 84 9F E7 F7 35 BE F4 1C 33 DC 00 E0 7F F8 E7 FE 88 CD C6 0B 63 48 08 0C 5F 31 FF 10
DPCM : 00 F0 E6 1F E0 0B EB D7 B9 01 BD C5 FF FF 1A C8 13 DE 0B E5 81 0D 70 94 1A 9C 02 82 5F 7C 78 B8
DPCM : 0F 8C E6 87 F0 9A F8 5A 3B 0F 7C 60 7D FF 81 06 30 EF FC CF 79 01 38 FF 39 00 04 60 E8 7F 04 78
DPCM : 40 28 F7 9D E1 05 F3 F8 31 FF FF E3 E7 06 28 48 B0 1F 3D E2 98 02 80 F8 8F 03 8F F0 F2 3F FE BF
DPCM : 00 84 7F 54 70 87 70 C7 00 E7 18 E3 FE 21 8E 31 CE 7B CF B0 F7 80 E7 FF 01 00 10 5C 3E 0F 9D 03
DPCM : F8 E0 1F 76 98 E3 87 1F FC 3D C0 35 CF C1 00 1E 7C FA 21 81 03 80 F1 FF 73 87 85 FF DF 73 AC 01
DPCM : 1E 3C 8E 01 43 3C F1 BC 0F 1C F0 C7 31 00 38 F4 DE F7 86 73 CC 78 CE 3B CF 01 82 00 FF 3C 07 18
DPCM : E3 BF 73 FC 21 C6 3D CF 90 03 0D 7C 78 00 0E 1C FC FB A1 F8 F0 E1 F7 CB F2 10 00 DF DF 0F 00 00
DPCM : B1 8E 7F DE 70 09 FE B8 81 A7 BF 79 E0 00 8E BC FB BF 31 20 60 02 18 CE 45 CF F1 EE 1F 0E 7D FE
DPCM : D0 21 0C 33 1C 31 DF F1 EE 11 07 10 C7 98 5F C0 F1 0F 79 1E E3 8F 37 80 F0 0F 1F 3F 78 F2 01 60
DPCM : CC 83 CC FF 58 C1 01 3E FE E9 07 3E 70 C0 C7 1F FA 8C 23 18 38 C0 B3 CF FB E3 00 6F 39 6F 84 03
DPCM : FD 31 A4 B1 1F F8 59 A0 1F 36 00 C7 01 FB FB 87 38 C0 FD C7 0D F9 97 00 1E 72 C6 07 C2 3F E0 78
DPCM : A7 96 FF 83 E0 42 38 3F 0E C3 D1 67 BC 73 04 5F 8B 20 C1 18 E6 BC EF 3B 03 9A D3 9C 2F 2D 60 3A
DPCM : F3 0F 1E D0 BC E8 30 39 4A 38 F0 FD E1 C0 C4 DF 07 E1 79 8C 23 8F 97 FF 0C 88 49 8E 38 D1 21 B6
DPCM : FF E5 23 C0 1E E3 81 1F 1F E4 CA 83 FF 00 C0 1F 2E F8 E1 C2 7E FE 19 03 00 F4 FF 03 8C 7F D0 BB
DPCM : 0F 39 5A 80 03 1D F0 F0 1B DD 3C EB 03 14 DC 7B 61 C3 0B 69 FE D3 8F 32 D0 F2 02 9C 3D A2 73 0C
DPCM : F8 67 80 86 DF EC A8 01 8F BB FF 69 03 18 E7 1C 28 0F 38 F7 21 E7 78 C2 C5 87 CF F4 00 83 7E FC
DPCM : C7 07 86 F8 E1 10 1F 70 AD 43 4D 6D B8 B0 16 DF 4E 61 8C BB BE 79 CA 21 43 8C EA 58 45 C8 CB 66
DPCM : 55 EC 7A 4A C9 AE 0C 61 F4 F9 4B 1D 5B CD 01 8E 6F 8C 70 8F 15 EC C0 8B 3F 70 F4 91 46 EB CE E1
DPCM : 58 E5 52 83 26 5F 21 05 67 BE 64 1E FB 4B 61 B2 0B C4 E6 B1 AB 7C 60 9F 03 35 FC 01 4F 96 1B 87
DPCM : 3C F0 0F 25 1B FD E0 E8 4D 15 EE 8B E9 1A B0 88 25 C4 FA AA 3A BE B4 CF 16 75 90 03 8C 75 D8 AB
DPCM : AE 36 E3 42 87 DE 48 CE 09 BA 78 AA 79 AB 58 E3 88 E9 D2 E1 0F 27 8D 35 05 07 8B 96 5A AC DC B9
DPCM : B5 7A 1D 75 58 70 31 45 95 7B EB 50 67 0E 86 C2 85 3F 50 AA 1F 4E 79 D5 ED CA 9C E1 82 32 ED AA
DPCM : 09 5C 36 45 43 5C 7A A4 4C BF DD 29 53 3D 2C 65 57 0A 71 B2 79 1D A9 CB 62 94 B2 4A 26 A7 2E 6D
DPCM : 9D 14 9F 75 D1 33 96 B8 64 D5 D5 90 70 0C 46 CE E2 CA 1B DD 7D 87 16 6B B8 52 2D 98 D4 69 D5 37
DPCM : 59 54 43 22 AB 2A E3 CA 96 BE 55 AB 46 56 CD A9 92 5C 52 AD 2E 6D 48 52 29 55 55 AB B4 E5 B6 D5
DPCM : 95 D4 6A 3A CA 28 25 75 EA CC 65 0D 55 CA 32 D5 B1 C4 79 4B 2D A7 94 D3 8B 53 9E 14 D5 25 6B 75
DPCM : A2 14 55 5A 93 A9 75 B4 2B 6D EA C2 29 3B 69 91 4A 57 E6 D4 AB 14 4B 96 65 95 52 9D A9 D6 6C 47
DPCM : 59 A5 69 55 95 AC 4A A5 4D 5B CA A4 46 9B D2 9A 96 AB 74 52 53 2D AD A6 4A 56 AD AA 4A AD 56 9A
DPCM : 4A AC 6A CA BA AA 9A AA 55 D2 54 55 95 5A AA D6 AA 52 6B 95 A2 55 95 69 AA AA B6 5A AA 65 A5 B4
DPCM : AA 25 55 A9 CA 2D 55 9D D5 4A A9 58 69 96 5A B5 A9 2C D3 D4 A9 9A 2A AA CA 2E 55 AA A6 AE 59 68
DPCM : 55 8D 2D 59 59 AA AA AA AA AA AA AA AA AA AA AA AA
DPCMDEF  11  1105 "OrchHitG#.dmc"
DPCM : 35 C7 41 DC DC 3D 1B C1 40 0C F8 CB DF FB 8C 05 C3 13 06 1F E6 E5 7F 62 D0 03 40 68 87 03 F0 73
DPCM : FF FF FF 07 34 C0 B3 AB F1 87 03 C0 01 00 F0 F9 BB 07 C0 F3 EF F0 00 40 F8 7F A3 24 79 F0 FF 04
DPCM : 8C FD FF BF 0B B3 F1 0F 3F 00 00 00 9C FD 26 C8 FC B0 FF 84 8F 38 80 FF 0F 70 41 04 39 42 21 EC
DPCM : 9E DF 6F 7C F4 1C 1B 2E 00 F8 0F FF DE 9B 78 34 5F 8C 21 10 18 5D B1 77 08 00 DC F9 03 BC B1 B7
DPCM : 6E 0F F0 1A FF FF 13 68 1B EF 42 79 A0 01 4E A9 E1 14 10 2E B5 F1 B8 0F 8C F2 23 3D 16 DE AB E3
DPCM : D4 03 EE FD 07 0A 60 EF 7D EF 9C 00 CC 3F 0F 90 00 82 FE 33 60 01 51 EE 9D E1 85 79 FC E8 F7 7F
DPCM : 7E 6E 00 42 83 7E 74 8C 99 02 C0 78 E7 C0 23 5C FF E7 EF 0D 20 FC 11 E3 0C 71 CF 00 77 88 F8 77
DPCM : 48 31 C7 BC F3 8E DD 07 DE FD 03 00 00 2E DF 03 E3 00 1F FC A9 C7 1C 1F 7E F0 7B 80 35 EF E0 80
DPCM : 05 1F 3F 16 30 00 8C FF CF 1D 0A FF FF 73 C6 10 07 9F 21 21 88 17 E7 7D 70 C0 1F 43 80 30 FA DF
DPCM : BB E3 1C 31 CE F9 F3 1C 00 06 FC 73 0E 10 E7 FE 39 7E 90 71 CF 15 73 C0 A0 E3 01 38 38 F8 DB A3
DPCM : 78 F8 F4 F9 B6 1C 06 E0 FD 5F 80 00 C0 1A FF FC E1 08 6F 7C E0 E9 77 0F 0E 40 EC FC FF C6 80 40
DPCM : 04 18 EE 82 77 BC FD C3 D1 E7 87 0D 23 CC 30 66 BC F1 F7 11 03 88 71 E3 0F 18 FF D0 F3 98 3B FE
DPCM : 00 C1 4B 9F 1F 9C 79 00 88 73 88 FD C7 03 0F F0 FC D3 0F 3C 70 C0 E7 87 3E F1 80 03 03 3E 79 FE
DPCM : 8F 03 9E 3A 6F 84 11 DF 1C 70 FC 03 9F 05 FA E1 00 1C 13 FA FB 87 18 C4 FE F1 51 FE 11 E0 81 33
DPCM : 5F 00 FF 80 F1 8F 96 FF 61 70 10 CE E7 60 1C 3D E7 59 13 7C 1E 40 85 18 76 DC FF CE 00 7B CC F9
DPCM : 74 80 E3 CC 3F 38 E0 1D 3C B4 8C 12 0E 7C 3F 1C 0C F7 1F 88 E7 31 07 1F 97 BF 06 64 9A 21 A6 18
DPCM : 66 FB B7 AB 00 7B CC B9 AB 80 E9 E4 3F 3C C0 3C 3C 34 8E 12 07 FC 1F 0E 0C F7 1F 88 E7 31 07 8F
DPCM : 97 7F 06 64 8A 31 36 1C 62 FB 9F 97 00 7D C6 11 1F 1F 72 F2 C1 3F 00 F8 E1 82 1F 07 E7 FB 57 04
DPCM : 00 F8 FF 03 C2 1F F6 EE 51 47 06 38 68 C0 C3 3F DC F2 EA 03 04 F7 3E 58 F2 82 E6 3F FD D0 40 CB
DPCM : 03 1C 7B E2 31 26 FC 1C E0 F0 CB 8E 16 70 FC FE 67 0E 60 EC 1C A8 07 CC 7D C8 9C 27 9C 3C 7C 95
DPCM : 07 0C FA FC C7 07 06 7E 38 C4 03 E7 6C D4 E4 85 83 5B DE 9A E1 88 7B BE 9D 6A C8 10 A3 8D 65 44
DPCM : 3C 9B 55 F1 7A 4A CA B6 C2 10 7D FE D2 E2 CE 1C 50 BD 25 C2 3D 66 E8 C1 D2 3D 58 7C A4 D1 DA 1D
DPCM : CE 94 CD 0C 9A 7C 21 05 67 BE A4 C7 FE 12 1C BD 40 6A 8E 6F F2 81 2F 07 35 FC 81 95 E5 C6 A8 83
DPCM : FC 51 72 74 87 A5 97 55 EC 8B E9 1A A8 C0 89 B0 BD AA E3 CB BE 6A D4 41 06 2C 75 D8 AB 6B CE B8
DPCM : E0 E2 8D E4 9C E0 C2 AB B5 AD 38 E5 88 E9 EC F0 E3 C8 61 53 38 30 5C AA B1 72 BB B5 7A 1D 35 16
DPCM : 9C 54 51 B9 B7 0E 1D BB 10 12 87 7B 42 AA 0F 4F DE F4 7A AA 1A 2E A8 B2 AB 26 70 B9 44 43 6A 3A
DPCM : 29 D3 5F 77 2A D5 C3 52 5E 29 C4 E1 7A 6D A4 C7 52 C4 B4 92 69 69 D3 D6 91 F1 DC 45 D7 58 D8 64
DPCM : D5 35 94 18 43 C9 34 BC BA D1 7B 1F 5A AC B1 52 0D 19 D5 59 F5 8D 25 35 24 B2 B2 2C 2B 5B FA 55
DPCM : AD 46 4E 75 AA 24 97 D8 B2 CB 86 44 A6 54 55 CD B4 E5 B6 B3 25 B5 9A A6 34 52 52 AB C7 9C 35 54
DPCM : 29 63 D5 31 63 6E 53 CB 29 55 BD 38 E5 4A 52 97 AC 75 A2 18 55 DA 64 6A 4D BD D2 A6 2E 9A B4 63
DPCM : 45 2A 3D E6 D4 2B 95 92 65 59 29 CD 99 69 CD 1D 65 95 69 4D 55 AC 4A A5 D3 96 2A 6A B4 26 AB 5A
DPCM : B5 D2 51 4D 2D AD A6 91 56 AD AA D2 69 A5 A9 A8 AA 25 EB AA 5A AA 55 D2 34 55 A5 96 6A B5 2A B5
DPCM : 56 49 56 55 96 A9 AA BA 5A 6A 65 29 AD 5A 4A 95 AA BC 52 B5 56 4B A6 58 69 96 59 75 2A D3 2C 9D
DPCM : AA C9 A4 2A DB 54 A9 A6 B6 59 68 55 63 4D 36 56 AB 54 55 53 B5 AA B4 52 AD 32 AB CA CA AC 2A B5
DPCM : 2A D3 AA AA 4A AA AA AA AA AA AA AA AA AA AA AA AA
DPCMDEF  12  1105 "OrchHitA.dmc"
DPCM : CD 31 8C CD DD D9 09 26 30 E0 B6 BD FF 8C 85 E0 85 C1 C7 BC FC 27 86 1E 00 A0 0D 07 E0 77 FF FF
DPCM : FF 03 05 7A 7A 15 3F 1C 80 06 00 E0 F3 B3 0F C0 F9 5F 3C 00 08 7F 6F 2A C9 83 FF 13 18 FB FF 7F
DPCM : 0D DD F8 47 07 00 00 C0 D9 1F 61 F2 43 FE 0D 3F 38 C0 FD 07 4C 98 20 07 14 43 F3 7E BF F1 D2 1D
DPCM : 13 3E 00 FC 87 BF 7F 91 4D F3 62 0C 84 60 BC 60 FF 08 00 4E FE 80 2F F4 D7 EE 80 D7 F8 FF 2F D0
DPCM : 32 EE C2 3D 50 80 13 39 DC 00 E1 CA 8D C3 3F 18 E5 4B B8 16 AF D5 79 F4 C0 BC 7F A4 00 73 F7 BF
DPCM : 5B 01 CC 3F 07 08 80 A0 FF 04 1C 10 E5 FE 0C 17 A6 F9 D1 FF 7F 7E 37 80 90 A0 8F 8F 98 29 00 E2
DPCM : 1F 03 47 78 FE E7 FF 03 08 7F 4A 98 31 77 08 B8 23 E6 FE 90 22 E6 DC 3B 67 EF C0 F3 7F 00 00 60
DPCM : 7D 0E 8D 41 1E FC A3 C3 8E 0F 1F 7E 0F 78 73 0E 0E 34 7C 7C 48 70 00 88 FF 77 87 C6 FF 77 CE 0A
DPCM : 71 78 8C 84 10 0F CE 7F 70 E0 87 11 20 0E FE BD 3F CE 88 79 E6 CE 39 21 04 FC 79 03 C4 D0 7F E7
DPCM : 87 39 F3 67 C2 01 63 F4 0C 18 70 EE DC 21 67 8C B8 73 E2 8F 33 3F 8E FE 01 E0 CF 03 3B 0C F8 E1
DPCM : 00 0B 07 BF 1F C5 E3 C3 F7 AD 39 02 E0 FD 3F 00 00 A8 E3 DF 0B 0F F8 E3 83 C7 6F 0E 0E 60 F4 FE
DPCM : F7 11 08 88 20 61 17 9E F3 F6 8F A3 E7 87 8D 11 62 8C 99 37 FE 9C 31 00 8E 99 1F 64 FE 90 7B CC
DPCM : 8F 37 40 F8 D1 F3 C3 C9 03 60 CC 21 F3 8F 17 0E 38 FE E5 83 0F 0C 7C 7E E4 93 03 0E 0C 78 79 FE
DPCM : CF 01 2F DC 0F 70 E0 CF 81 63 1F 7C 16 E4 E3 01 98 0A FA FF 21 07 D8 3F 37 E4 9F 00 0F 4E 7C 10
DPCM : FE C0 78 C7 E3 7F 18 06 E1 7C 0E E2 F8 8D 73 23 F8 1E 02 73 08 7D 43 E6 1F E9 3F C0 BC 83 E3 C2
DPCM : 99 7B 2C 7C 30 41 84 0C 3B F7 FF 1A A0 C7 AC 4F 0B 8C 93 FF 70 C0 1D 3C 4C 8B C4 81 EF C3 C1 70
DPCM : FF 20 9D 67 8C 1E 97 7F 03 92 64 CC 44 47 B4 FF 79 04 E8 1B 07 7E 3C E4 F2 E0 1F 00 7E B8 E0 73
DPCM : E0 9F BF 31 00 C0 FF 07 C6 1F 7C FB D0 E1 00 83 0C 3C 7E C5 CD AB 87 10 FC 5E 2C F8 90 F9 E7 1F
DPCM : 1A B0 3C C0 EC 89 C7 0C F8 1B E0 F8 B1 A3 06 9C DB FF 6A 80 71 E3 A0 1E B0 7B C8 9C 27 2C 1E DF
DPCM : F4 80 A0 CF 7F 3C 18 F8 E1 C0 07 E6 3C CC B4 E1 A1 8B 9F 13 C6 B8 F3 EF CC 10 03 DE 84 18 C7 C2
DPCM : 89 17 DF 1E 58 5F 70 E8 06 FF 3B 74 74 80 6B C3 13 3E 38 0B 34 F1 21 F7 67 1C F0 EF E4 29 27 23
DPCM : 84 1E 4F 81 BC 5A 35 7C 9E 52 F2 2A 0C F1 F1 8F 8B 9B 73 C0 BC 25 C4 8F 19 3A B8 F4 03 C7 47 46
DPCM : 6B 77 38 55 CE 0C 19 7E 41 C1 D9 8B F6 E8 2F 61 B4 03 69 1E BB F4 81 1F 07 15 7F E0 64 7A 8C 39
DPCM : F0 17 C9 D1 0F 8E 97 55 EC 4D BA 06 8A 98 10 FB AA 1E 2F FD AC 31 43 06 2C 5D F4 EA EA 34 0E 1D
DPCM : DE 90 75 82 8B A7 E6 AD 31 63 A2 BA 3A 7C 9C 1C 56 85 83 A2 A9 C6 CA E7 B6 7A 47 1D 06 27 15 95
DPCM : 7B EB D0 99 43 24 1C FE 40 AA 0F 57 3E BD AE 6A 92 83 2A BB 6A C0 E5 12 45 59 3A 29 D5 DF 9D 4A
DPCM : F5 30 E5 95 42 1C DB 75 C1 9B 52 C4 AC 61 72 DA F4 B4 14 CF 1D 3D 63 85 93 D5 55 94 18 61 E4 0C
DPCM : AF 6E DC FD 61 C5 86 4B 35 A4 D4 59 F5 93 45 1D 88 AC 2C E3 B2 A5 5F B5 1A 39 D5 A9 24 97 D8 EA
DPCM : B2 21 51 49 55 D5 4C 5B ED CE 96 D4 5A 8E 34 52 D2 E9 31 67 45 95 32 56 CD 12 BB 4D 8D 2B 65 BD
DPCM : 38 79 92 D4 25 6B 9B 88 51 65 8B A9 39 F5 D2 AA 2E 96 EC 68 91 CA 55 5A BD 52 4C 95 65 A5 54 9B
DPCM : 6A CD 1D 55 65 59 53 45 AB 4A 9A BA 64 CA 52 33 D6 B4 B5 AA CA 96 AA AC 9C 69 A5 4A 95 9E 36 A5
DPCM : 68 B1 26 9B 39 AE B4 51 53 CB 6A 1A 69 B5 AC 4A A7 95 26 C3 AA A5 DA AA 96 6A 15 4D 53 55 6A AA
DPCM : D5 AA B4 5A 49 56 55 69 AA AA AD 95 5A 96 D2 AA 29 55 AA EA 52 B5 56 4B 29 5A 9A 65 55 97 32 CD
DPCM : B2 A9 26 93 2A DB 54 A9 A6 AE 16 5A D5 D8 62 63 2D DB 54 AA AA 95 1A 2B B5 54 4B A6 56 AB 54 2A
DPCM : B5 B2 55 AB AA AA AA AA AA AA AA AA AA AA AA AA AA
DPCMDEF  13   689 "fdkick"
DPCM : D5 FF FF FF 8B 00 00 00 00 00 00 FF FF FF FF FF 3F 00 00 00 00 00 40 FF FF FF FF FF FF 23 00 00
DPCM : 00 00 00 00 BD FF FF FF FF FF FF 95 00 01 00 00 00 00 80 DA 7D FF FF FF FF FF BF 55 49 10 00 00
DPCM : 00 00 00 12 A5 B5 BD FF EF FF FF FF F7 B6 55 25 11 02 04 00 00 02 10 24 4A 55 6D 77 DF FF FD FB
DPCM : 7F 7F 77 B7 56 95 12 09 21 20 00 21 80 40 88 48 4A 55 B5 B6 BB F7 7E 7F F7 F7 FB EE ED DA 5A 55
DPCM : 29 25 12 21 84 20 90 20 08 21 24 92 A4 54 55 B5 B6 6D 7B 7B EF BD 77 EF BD BB BB 6D 5B AB 55 95
DPCM : 4A 49 89 24 22 42 84 48 44 88 10 89 24 52 92 4A 55 55 B5 D6 DA B6 DB EE F6 EE 6E BB BB BB DD 6E
DPCM : DB D6 56 AB 55 55 A9 52 4A 49 92 44 92 88 44 24 89 48 24 12 49 92 24 A5 94 2A 55 55 55 AB D6 DA
DPCM : DA DA 6E DB 76 DB DD D6 6E BB ED B6 6D DB DA 5A 6B B5 6A 55 55 A5 2A 95 52 4A 49 92 92 24 92 24
DPCM : 49 54 24 91 24 49 92 92 A4 94 54 4A A5 4A 55 55 55 D5 AA D5 5A AD AD AD 6D 6D DB B6 6D DB 56 B7
DPCM : B6 6D DB B6 B6 B5 B5 D6 5A AD 56 AB 6A 55 55 55 AA 4A 95 4A 29 A5 94 92 92 92 94 24 29 49 52 49
DPCM : 52 92 A4 24 25 25 25 95 54 4A A5 54 A9 2A 55 55 55 55 D5 AA 5A AD 56 AD B5 D6 5A 6B 6B 6D 6B 6B
DPCM : 5B DB 56 6D 6B 6B 5B 5B 5B 5B 6B AD B5 56 AB D5 6A 55 AD AA 6A 55 55 AA AA 4A 95 AA 52 2A 95 4A
DPCM : 29 95 94 52 4A 49 29 29 29 25 55 4A 4A 4A 29 29 A5 94 52 4A A5 54 2A 55 AA 54 A5 AA 4C 55 55 55
DPCM : 55 55 D3 AA 56 B5 6A D5 5A B5 56 6B B5 D6 5A 6B AD AD B5 D6 56 AD B5 D6 DA 5A 6B B5 D6 5A AD 56
DPCM : AD 55 AB 5A 55 AD AA AA AA AA AA AA AA 54 55 AA 52 A5 52 A5 52 A9 94 52 29 95 52 4A 29 95 52 95
DPCM : 54 4A A9 94 52 A9 54 4A 95 4A 95 AA 54 A5 AA 54 55 55 55 55 55 55 55 D5 AA 5A 55 AB 5A B5 6A AD
DPCM : 5A AD 56 AB B5 5A AD D6 6A 55 AD D5 6A B5 56 AB 56 AD 56 AD 5A D5 AA 6A 55 55 AB AA AA AA AA AA
DPCM : AA 52 55 55 AA 4A 55 A9 52 A5 4A 95 2A 55 4A 95 4A 95 4A 55 A9 52 A9 52 A5 4A A9 4A 55 AA 52 55
DPCM : AA 4A 55 55 A5 AA AA AA AA AA AA 5A 55 55 AB AA 55 D5 AA 5A D5 AA 56 AB 56 B5 6A D5 AA 55 55 AB
DPCM : 56 B5 AA 55 AB 66 D5 AA 5A 55 B5 AA AA 5A 55 55 55 55 55 55 55 55 55 AA AA AA 54 55 A9 AA 54 99
DPCM : 2A 55 A5 2A 55 A9 4A 55 55 A9 4A 55 A9 4A 55 A5 AA 52 95 AA AA 52 55 55 55 55 AA AA AA AA AA 55
DPCM : 55 55 55 B5 AA AA 56 55 B5 AA 55 D5 AA 6A 55 B5 55
DPCMDEF  14   881 "time"
DPCM : C7 0C 3E A8 77 F8 40 FC 30 3C 1C 0F 3F 1C 0F C7 73 0E 87 C3 30 0E FF 70 1E 0F 83 C3 F8 F3 F8 30
DPCM : 80 E3 08 F8 60 CC E7 C3 F3 E3 E1 61 C0 E3 61 F8 87 E3 F1 71 1C 83 C1 E3 F1 FB 07 C3 03 80 0F C0
DPCM : FF 1E FF F7 78 3C 0C 30 10 7E 78 78 1E C3 EF 03 CC 0F 86 FF 03 9E 01 80 FF 01 FF 83 C1 3F 00 FF
DPCM : 0F 00 FF 0F E0 FF 00 F8 07 80 FE 03 F8 77 98 CF 00 F0 FF E3 FF 00 8C 3F 80 67 00 80 2F EE F1 03
DPCM : 80 FF 07 FF 0F 00 FE 81 FF 3F F0 7F 00 FE 07 00 7E 00 C0 01 00 6C F8 FF FF FF FF F7 1F 18 0B 00
DPCM : 04 00 7E 00 00 3E CE FF FF FF 3F 10 80 07 E0 81 01 80 3F E7 C7 FF 11 FE FF 0F F0 03 00 F0 0F 80
DPCM : 7F 00 EC 3F 00 FF 7F FE FF 01 FE 02 00 80 11 80 7F C0 81 7C FC FF 7F FE FF 03 E0 1F 00 60 1B 00
DPCM : 50 00 00 FF 1F FC FF 03 FF FF C0 FF 03 00 F0 03 FE 1F 00 C0 FF 43 FF 07 00 FC 3F 00 7C 00 00 FF
DPCM : FF 01 FE E3 FD FF 7F 40 FE 03 70 00 00 80 01 00 C0 0F F0 FF FF FF FF 3F E3 79 86 07 00 00 FE FF
DPCM : 03 FC 03 80 FD 0F 00 0E 00 FC 1F 80 60 D7 3F C0 FF 3F 00 FF FF E1 FF 03 00 FF 1F 00 38 00 00 F8
DPCM : 03 80 7F 00 FC FF FF FD FF C0 FF 0F 00 40 0C FE 3F C0 07 03 C0 7F 00 F9 1F 00 D0 FF 61 22 90 FF
DPCM : FF 79 9C 0F F9 FF 1F C0 0F F8 3F 00 00 03 00 00 3F 00 80 FF C3 FF FF C7 FF FF 03 F8 0D 62 30 C0
DPCM : FF C0 3F 80 03 10 E2 07 30 00 77 F8 FF 07 C0 FF E7 E7 FA 0F C0 FF 83 DE F8 00 FE 3F 00 00 00 00
DPCM : F8 00 00 FF C7 FE FF 7F FE FF E7 E2 00 B8 07 00 F8 07 E0 FF 0F 00 F5 01 00 5B 00 C0 DF F6 FC 3F
DPCM : DC C7 BF 01 F0 1F F0 FF 0F E0 87 FF 47 06 80 01 00 00 01 70 04 FB FF FF FF FF FF FF 83 03 00 0C
DPCM : 00 78 E5 3B 7D 02 F0 FF 00 C0 00 00 F8 07 C0 FF FF FD FF 71 5B F8 0F F8 0F 0F C0 0F F0 7F 00 E0
DPCM : 03 00 FC 03 00 7F 00 F8 FF 2F FF 1F F8 FF 1F 80 7F 00 F0 03 E0 FC 8F 41 0F 00 00 00 20 C0 FF 00
DPCM : FC FF FF FF BF FF 3F 00 FE 00 C0 FF 80 FE 07 E0 7F 00 E0 03 00 FC 00 80 FF 00 FC FF FF FF 3F FC
DPCM : 7F 00 E0 01 00 3E 00 F0 7F E0 FF 0F 80 1F 00 3C 00 C0 3F C0 FF 3F FC FF C1 FF 2F 80 3F 00 F0 3F
DPCM : F0 1F 7E 00 FF 01 10 00 00 E0 00 80 FF C7 FF FF FF FF 1F FF 0F 00 00 00 C0 0F 80 FF 01 FF FF 63
DPCM : 06 00 E0 01 80 FF C1 FF FF FD FF 01 8F 01 3E 00 FF 00 7E FC 03 FE 07 FE 01 F8 0F 00 00 00 00 80
DPCM : 06 FC FF FF FF FF FF FF FF 00 00 00 00 00 00 E0 3F FF 81 FF 53 FD FF 01 F8 03 00 FE 83 FF 3F 80
DPCM : 7F E0 2F 08 80 23 00 FF FF F3 FF 00 78 08 00 F8 01 00 40 B0 FC FF FF FF FF FF FF 0F 76 00 00 00
DPCM : 00 00 00 F0 E1 FF DC 1F FF 0F FC 8F 19 DC E7 08 FF 07 78 1C 83 60 1C 82 70 1C 86 EF D2 5F F1 3E
DPCM : C7 E3 3C 04 47 39 10 4C 60 1C E3 7F EF F1 3F FF 04 FF 01 1D 80 41 20 06 B0 1A F0 87 E7 9D 1F DF
DPCM : AD 0F CF 07 38 A7 0B F8 03 7D D0 07 C4 31 04 F9 06 F9 1C 54 55 55 55 55 55 55 55 55 55 55 55 55
DPCM : 55 55 55 55 55 55 55 55 55 55 55 AD AA AA AA AA AA AA CA 55 55 55 55 B6 AA AA 5A 55 55 AB AA 5A
DPCM : 5A D5 CA AA AA 56 55 55 55 55 55 55 55 55 55 55 55
DPCMDEF  15  1745 "machine"
DPCM : 1C 73 B5 CE 31 0B EB 03 ED 50 95 C0 35 2C 8E F3 71 DC 73 DE 96 B6 43 AD 82 36 82 95 48 25 AA 8B
DPCM : F2 A2 BE 51 DF D1 3C 7C 87 78 47 71 98 AB A2 D4 1C 25 D5 4A 0C E7 59 78 57 5C 4B 5F 62 2F 9A 52
DPCM : 56 91 86 71 D0 78 D8 0B FE C5 7D E8 3E A6 19 1B C6 48 A5 48 65 45 B3 E2 33 EE 15 7E 8B BA AC AA
DPCM : 94 AE 24 75 51 D5 54 55 A5 C9 A8 1C E5 CA 78 87 75 17 CF D3 39 8E 72 0C 69 24 32 68 0C CD A3 F5
DPCM : 39 AF CB EF 45 AF 85 06 A5 0A 15 E5 10 F4 94 5E E9 5E 6A 2D CB 8D E3 46 B4 4A D6 C4 35 E5 34 56
DPCM : 53 55 69 89 16 EB A8 5E 66 9B AE AA 1E 2B 53 9A A8 08 47 98 44 79 89 5F F5 57 7D CF 1E CD 29 25
DPCM : C8 05 E4 12 58 45 9F 4C DF AC 55 F5 15 6D C6 89 B2 54 8D AC B1 5A E4 59 C6 C5 A9 4A 53 D5 B1 B5
DPCM : 1C BB 93 CE 15 9F 30 B2 41 28 81 0F C0 4F F0 17 FF 67 FD 7A 9D 66 E8 03 F0 80 0B D0 1F 98 8E DA
DPCM : 03 FE C3 7E E0 16 E9 23 99 35 13 6D 35 4D E9 35 94 8A 8D 51 5C 57 AB EC 4B FC 47 7B C5 0A F0 03
DPCM : 80 1E 04 20 6F 51 FD CF BE FF E4 7F 3A 01 6E 01 50 15 A8 86 2F C0 3F 1B F1 3F 70 0F 55 69 0F 69
DPCM : 6D 24 F5 45 57 DE 85 D0 4A E4 11 7C 05 9F 39 FA 0F FE C1 07 F8 03 4C F0 01 F0 01 0E FE 87 FF FF
DPCM : E0 FF C1 15 2D 00 2A 01 F8 02 7E A1 6F EA 1F F5 3A 51 5A 4A 4D 66 55 59 D5 25 B7 C6 25 3C 91 D8
DPCM : 02 7C CC 1F F8 D5 3A BF B4 9E C0 F4 00 70 00 06 FD 01 FF F8 1F FF F0 1F FF 80 0B 38 40 15 E0 03
DPCM : 5C F5 03 FF F1 42 7F E0 29 4D E8 96 B2 E6 16 F5 43 1F D5 03 6E C0 0B F0 01 3F BC 05 FF F0 97 7E
DPCM : E0 07 5C A0 05 FC 00 1F F0 57 ED D3 F2 8B 67 CE 05 1E 01 3F 08 0F 0F F1 07 78 6B 07 FC 03 7F F0
DPCM : 0F F8 80 3F F8 C1 7F E0 07 F8 01 0F F0 00 3F E0 83 7F E0 87 7F F0 07 7F E0 07 3E 78 18 1E C4 07
DPCM : 7F C0 07 FE C0 0F 7F E0 0F FC C0 03 FC 61 03 1F 84 7F 38 0F 3F F8 07 7C E0 87 39 FC 03 C7 F0 F0
DPCM : 70 E0 F1 E0 43 F0 E1 F0 E0 0F FC 01 1F F8 C3 7F F0 03 3E F8 01 7F E0 07 1E C5 13 7E E0 07 1E 73
DPCM : E4 F0 E0 7C F0 30 1E FC 81 7F F0 61 3E 82 0F FF 01 1F FC 01 3F F0 01 7C E0 0F E3 81 3F E0 87 1F
DPCM : F0 0F 7C E0 1F F8 18 7C E0 1F 7E C0 1F F0 81 7F F0 01 3F F0 02 1E E0 0F 78 8C 1F FE 80 07 FC E0
DPCM : EF 21 7F C8 91 67 DC 01 CF 78 F8 30 78 38 07 EF F0 07 CE E1 01 3F C6 E3 03 3E E0 07 FC C0 0F FC
DPCM : 03 1F F8 03 1F F0 C1 3F F8 83 8F E3 C3 31 3C 86 8F 31 47 8E 71 7C 38 E2 47 7C 08 E7 F0 39 0F CE
DPCM : 03 3F D8 03 7F E0 1D FE C0 79 F0 0C 7F C0 07 CE 83 07 E0 0F FE 80 1F FC 01 3F D8 07 7E C0 0F F8
DPCM : E0 0F 7E C0 1F F8 83 0F D8 03 3F F0 05 1F 87 FE 01 1E F0 E1 8F E0 3F E0 03 87 E7 E1 18 C7 F1 C1
DPCM : F9 C1 78 E0 03 FE 80 3F F8 86 7B F8 80 1F F8 80 1F FC 01 1F F0 03 3F F0 07 FE C1 07 F8 03 7F F0
DPCM : 08 7C E0 0F FE 70 1C 1F E0 81 1F C3 07 3E F8 03 FE C0 07 3E C4 1F FC E0 1D FE 81 07 FC 83 1F F0
DPCM : 01 3F F0 07 7E C0 07 FC E1 87 F3 C0 1F E0 07 3E F8 07 7E C0 1F F8 03 3F F0 01 7F C0 07 FC 81 1F
DPCM : F0 81 7F F0 07 FC C0 07 F3 81 0F F8 00 0F FC 07 FE 81 3F F0 01 7F E0 11 FE C1 3F F0 07 F1 E0 F0
DPCM : 07 FC 61 78 7C 90 1F F8 E1 1C F0 E1 11 CE C3 03 FE C0 1F E0 0F 7C 78 71 3C F2 F0 01 3E E6 03 3F
DPCM : F0 07 FE C0 0F 7C E0 0F F8 81 3F F0 38 1E F8 03 7E F0 07 7E E0 03 FE C0 0F F8 C0 3F F8 01 9F 78
DPCM : 44 FC 83 8F 03 7F C0 0F F0 83 1F 7E C0 17 F0 C1 1F F8 03 3F E0 83 7F E0 07 FC 80 3F F0 81 1F F8
DPCM : 01 3F E0 07 7E E0 0F 7E E0 0F F8 C0 3F F0 83 CF E0 07 FC E0 C3 F8 E0 07 FC 81 1F F8 01 7F E0 03
DPCM : FE C0 0F FC 81 1F F0 03 FA F0 64 C7 38 F0 01 FE 81 7F F0 03 FE C0 1F E0 07 3F 06 1E 7A 0D 3E E0
DPCM : 07 FE C0 3F F4 83 4F D0 81 1F DC 80 1F F8 01 FE E0 ED 1C F8 01 FE E0 0F F8 C1 1F F0 07 3E C1 0F
DPCM : C5 1D E8 01 3F E0 9F F8 03 7F C0 7F F0 03 3E E0 07 F8 01 7E 00 0F C3 7F E0 3F F0 0F FC C1 FF C0
DPCM : 1F F8 01 3E E0 03 5C E0 03 3C E0 07 FE F8 73 FC 07 FE C1 2F F0 01 3E 50 03 7E 80 1F F0 31 DD A3
DPCM : FF F0 07 FC 00 1F F0 07 7E C0 07 F8 00 7F E0 0F FE E1 0F 7C C0 1F F8 07 7F C0 0F 78 80 07 7D C0
DPCM : 03 FC 50 67 F8 F8 C5 3F F0 8F FE E0 1E E0 86 98 0F 74 41 BC A0 9D 4B F7 80 3F C0 1F F8 03 5E C0
DPCM : B7 82 3D 19 7E 51 7F C8 87 DF C0 0F F0 02 FE C0 9F D0 0B 35 7C 03 7E 80 0F F0 17 F0 0B FE E0 1F
DPCM : FE A3 1F 9C 03 4F 70 08 06 98 83 5E F0 27 FE F9 3F FC 03 FE 80 05 51 78 80 0F F0 03 FF B0 1F FE
DPCM : C1 1F F8 03 3E 30 C5 03 7F E0 0F F8 83 7F C0 0F F0 03 E4 21 DC 0C 8D 27 FF 15 FF D8 0B F9 D6 B0
DPCM : 05 F0 02 3C 60 0F 7B E7 D4 79 F0 07 F4 01 3F F0 00 0F F0 01 FF C5 FF E0 3F F8 09 BF F0 01 54 70
DPCM : 55 56 56 A4 0F F8 81 7E 30 17 07 3F C0 3F F8 17 DF 8D E3 07 FC 00 3F 40 27 24 DA 80 0F F8 87 FE
DPCM : 38 F2 93 FE 81 7F 80 0F F2 99 28 0F 8A 0F F0 1F E0 07 FC 80 3F F8 F0 11 7F E0 0F FD 81 0F EA C1
DPCM : 51 55 31 07 67 5C 5F D8 11 FE 00 3F E1 13 EC 40 DA 1D F0 0F FC C3 7F F8 D3 0A 3E C0 0F 58 04 03
DPCM : 5F E8 1F 7C 49 83 3F E0 0F FC 42 AC 15 FC 83 7F F0 13 5F F0 8A 72 11 0F 61 97 38 CE B1 3D F0 1B
DPCM : F4 C1 1E E8 92 13 7C C0 27 F8 83 3D F2 D2 C5 FC E1 0F BC B0 07 FE 40 97 70 C6 61 9A E0 11 D6 D8
DPCM : C3 27 EC 23 6F C7 6B E1 8A 3A F4 15 B4 45 1B 71 55 69 25 96 27 7A A9 59 12 E7 38 57 D6 18 57 95
DPCM : 67 38 47 97 28 27 CE 55 E9 1B D4 52 3D 6B 0B 63 43 55 91 C3 1E C5 88 71 DE D1 7D CC 5A 54 AF C5
DPCM : 0F 93 52 4E 96 D2 1C A5 15 3C 0B BD 8D E0 9D 3B C0 F7 96 50 F7 04 08 FF 27 C4 01 FE 29 3F E0 1F
DPCM : E0 C9 FC F7 00 80 FF 0F 80 3F D0 05 FC 01 7F 88 E9 4F 71 C1 3F D4 F4 0F 78 50 3F 02 75 DC 06 67
DPCM : 35 02 FE 8D EA 50 0F F1 95 0F 1F 10 4B FF 8F 01 70 5E C5 F8 1E 04 9E AF 05 DD 31 1E D7 03 DC 07
DPCM : D1 F0 55 68 7C 86 03 FF E3 40 E4 7D 1C EF 09 10 F3 57 3C 42 55 55 55 55 55 55 55 55 55 55 55 55
DPCM : 55 55 55 AD AA AA AA AA AA AA AA AA AA AA AA AA AA AA AA AA AA AA AA AA AA AA AA AA AA 55 55 55
DPCM : A5 55 55 55 55 55 55 55 55 55 55 55 55 55 55 55 55
DPCMDEF  16  4081 "FREEZE"
DPCM : 53 33 71 36 53 95 59 59 D9 94 99 95 99 D5 4C 95 4D 55 47 E5 1C 55 95 B5 68 E5 14 37 66 15 77 CC
DPCM : 51 35 4D 35 C5 DC 4C 4D 53 A3 56 59 B5 64 87 75 52 33 53 65 CD CC C8 9C E9 C6 4C D5 19 2B 95 D1
DPCM : 5C 65 66 6C B5 19 D9 64 26 66 B7 B4 C6 E2 CC 99 99 11 99 73 33 46 3B 63 4F 99 4D C4 B8 9D 54 76
DPCM : C6 CC 54 44 EE 74 CF 22 63 3B BB 01 60 E6 6F 06 38 33 FF 9D 04 66 66 67 23 E4 CC A6 33 19 C4 FB
DPCM : B9 6F 22 20 B3 95 99 31 E6 66 60 EE 4D 73 77 60 67 40 76 00 FD 3F 73 04 E0 6F C4 FF 01 BB C0 0F
DPCM : 00 FE E7 FE 00 C0 9B FC FF 00 6C C0 6F 00 FC EF BB 00 00 F2 FF FF 03 00 F0 17 00 FE FF 7F 04 00
DPCM : C0 FF FF 03 00 E0 5F 00 FE BF FF 07 00 00 FE FF 0F 00 C0 BF 00 F8 DD FF 0F 00 48 FF FF 01 00 B0
DPCM : 1F 00 FC FF FF 07 00 34 FE FF 03 00 B0 1F 00 F0 FF FF 0F 00 80 FF FF 07 00 F0 3F 00 C0 FF FF 0F
DPCM : 00 00 FF FF 0F 00 C0 7F 00 00 FF FF FF 01 00 FE FF 0F 00 C0 1F 00 30 F8 FF FF 07 00 FE FF 0F 00
DPCM : C0 1F 00 18 F8 FF FF 07 00 FE FF 0F 00 C0 0F 00 80 FE FF FF 0F 00 FF FF 03 00 80 03 E0 07 FF FF
DPCM : FF 03 00 FE FF 00 00 F0 0F E0 0F FC FF FF 01 00 FC FF 03 00 E0 01 F8 03 FE FF FF 03 00 FE FF 00
DPCM : 00 40 80 FF 87 FF FF FF 01 00 F0 7F 00 00 1E F0 FF C3 FF FF 1F 00 00 F0 7F 00 00 0A F0 FF 83 FF
DPCM : FF 7F 00 00 F8 3F 00 00 00 FF FF D3 FF FF 3F 00 00 E0 1F 00 00 80 FF FF F3 FF FF 0F 00 00 E0 3F
DPCM : 00 06 00 FF FF 33 FE FF 07 00 00 F8 1F 70 00 80 FF FF F1 FD FF 07 00 00 F0 0F 3C 00 C0 FF 7F F4
DPCM : FF FF 03 00 00 F0 AF 0D 00 C0 FF 3F E0 FF FF 03 00 00 FC 47 1F 00 C0 FF 07 FE FF FF 01 00 00 FF
DPCM : E0 3F 00 E0 FF 03 F0 FF FF 00 00 80 3F FC 1F 00 F0 FF 03 F0 FF FF 00 00 C0 0F FE 0F 00 FE FF 01
DPCM : F0 FF 3F 00 00 80 EE FF 07 00 FC 7F 00 FE FF 1F 00 00 C0 F3 FF 0F 00 FE 1F 00 F8 FF 0F 00 00 BE
DPCM : F0 FF 03 80 FF 1F 00 FF FF 07 00 00 80 FF FF 01 E0 FF 01 C0 FF FF 01 00 28 80 FF FF 03 F0 FF 00
DPCM : E0 FF 7F 00 0E 00 00 FE FF 01 F0 FF 01 F0 FF FF F0 03 00 00 FE 7F 00 FC 7F 00 F0 FF FF FA 00 00
DPCM : 00 FF 3F 00 FC 3F 00 F0 FF C7 FF 03 00 80 FF 1F 00 FE 0F 00 FC FF 01 FF 1F 00 C0 FF 0F 00 FE 07
DPCM : 00 FF 1F F0 FF 0F 00 F0 FF 01 00 FF 03 80 FF 07 F0 FF 07 00 F8 3F 00 E0 FF 01 E0 FF 01 F8 FF 07
DPCM : 00 FE 07 C0 FF 05 00 F0 FF 00 FC FF 03 00 FF 01 F8 FF 00 F8 E8 3F 00 F8 FF 03 80 5F 00 FC FF 01
DPCM : E0 FF 01 00 FE FF 01 F8 0F 00 FC FF 00 F0 FF 00 80 FF 7F 00 FF 07 00 FE 7F 00 F0 3F 00 FC FF 1F
DPCM : 80 FF 03 00 FE 1F 00 FC 1F 00 FC 0F E0 FF FF 01 00 FE 07 00 FE 1F 00 FE 0F 80 FF 1F 00 80 FF 07
DPCM : F0 FF 01 80 FF 07 C0 FF 03 FE 00 F0 1F F0 1F 33 00 FC 1F 00 FF 3F F0 07 00 FF C1 2F D8 07 E0 67
DPCM : 01 FF 3F F0 1F 00 F8 1F 00 FF 3F 00 F8 3F 00 FC FF 08 00 F8 1F 80 FF 1F 00 FC 1F 00 FC 7F C0 0F
DPCM : 00 FF 03 FE 7F 02 C0 3F 01 E0 FF F7 07 00 FC 07 E0 FF 07 80 FF 01 80 FF 07 FC 03 C0 3F F0 4F 1F
DPCM : 00 FE 03 00 FE 7F FE 07 00 7F 00 FC FF 00 F0 3F 00 F0 FF C0 FF 00 F8 03 F0 FF 07 00 FF 07 00 FF
DPCM : 03 FE 07 C0 3F 00 FF 3F 00 FC 1F 00 F8 1F E0 FF 00 FC 01 F8 FF 03 E0 FF 01 80 FF 00 FF 03 F8 07
DPCM : 80 FF 3F 00 FF 07 00 FE 07 F0 1F E0 3F 00 FC FF 01 F0 1F 00 FC 1F 80 FF 01 FE 03 C0 FA 1F C0 FF
DPCM : 00 F8 FF 00 F8 07 F0 3F 00 FC 7F 00 FE 0F 00 FF 0F C0 3F 00 FF 03 E0 FF 00 F0 7F 00 FE 3F 00 FE
DPCM : 03 F0 3F 00 FF 0F 00 FF 03 E0 FF 01 F0 3F 00 FF 03 F0 FF 00 F0 7F 00 F8 1F 80 FF 01 F8 1F 80 FF
DPCM : 0F 00 FF 07 C0 FF 01 F8 0F C0 7F 00 F8 FF 00 F8 3F 00 F8 3F 80 FF 01 F8 0F 00 FF 1F 80 FF 01 E0
DPCM : FF 03 F0 1F 80 FF 01 F0 FF 01 F8 0F 00 FE 3F 80 FF 00 F8 1F 00 FF 1F 80 FF 01 E0 FF 01 F8 0F 80
DPCM : FF 01 F0 FF 00 FC 0F C0 FF 00 F0 FF 01 F8 1F 00 FF 03 E0 FF 00 FC 01 F8 FF 03 C0 FF 03 E0 3F 00
DPCM : FE 0F C0 FF 00 FC 3F 00 FE 07 E0 3F 00 F0 FF 01 FC 1F 00 FF 03 F8 3F 80 FF 01 E0 01 FF 0F FA 07
DPCM : C0 7F 00 FE 01 F8 1F 80 FF 00 F8 7F 00 FF 03 F0 3F 00 E0 FF 07 F0 1F 00 FE 0F E0 FF 01 F8 1F 80
DPCM : FF 00 FC 1F 00 7F C0 3F C0 FF 01 F8 0F E0 1F 00 FF 01 FC 0F E0 7F 00 FE 07 F0 3F E0 0F 00 FF 01
DPCM : FC 0F E0 7F 00 FC 0F E0 FF 01 FC 03 C0 1F F0 7F E0 3F 00 FC 0F C0 FF 00 FF 01 F8 03 E0 FF 00 FF
DPCM : 03 F0 1F 80 FF 01 FE 07 E0 1F 00 FF 01 FE 07 E0 7F 00 FE 0F F0 3F 80 7F 00 FC 03 F8 1F 80 FF 00
DPCM : FE 07 F0 7F 00 FF 00 F8 07 F0 7F 00 FF 03 F8 07 C0 FF 00 FE 03 F8 0F C0 FF 01 FC 07 F0 1F 00 FF
DPCM : 03 F8 0F E0 3F 00 FF 03 F8 1F C0 7F 00 FE 07 E0 7F 00 FF 00 FE 0F C0 7F 00 FF 01 FC 0F C0 FF 00
DPCM : FE 03 F8 0F 80 FF 00 FE 07 F0 3F 00 FF 03 F8 07 F0 1F 00 FF 01 FC 1F E0 7F 00 F8 0F E0 3F C0 7F
DPCM : 00 FC 03 F0 7F 9A FF 00 E0 1F C0 FF 00 FE 03 F0 07 C0 FF C0 FF 07 C0 3F 80 FF 00 FC 03 F0 1F 80
DPCM : FF 80 FF 3F 00 FE 01 FC 03 F0 1F C0 7F 00 FC 03 FC FF 00 F8 07 E0 3F C0 FF 00 FE 03 F0 0F E0 FF
DPCM : 01 F0 0F C0 7F 80 FF 01 FC 0F C0 3F 00 FF 07 C0 7F 00 FE 03 F8 0F F0 3F 00 FF 01 F8 1F E0 FF 03
DPCM : E0 3F C0 FF 00 FE 03 F0 1F 80 FF 00 FE 07 00 FF 03 FC 07 F0 3F 00 FF 01 FC 0F F0 4F 01 F0 3F C0
DPCM : 7F 00 FF 01 F8 0F E0 7F 80 7F E0 03 F8 0F F0 1F C0 7F 00 FF 01 FC 07 F8 03 FE 01 FE 01 FC 07 F0
DPCM : 1F C0 7F 80 FF 00 7E C0 3F C0 7F 80 FF 01 FC 01 F8 1F E0 3F 80 1F F8 07 F0 0F F0 1F C0 7F 00 FF
DPCM : 03 F8 0F E0 03 FE 07 FC 03 F0 1F E0 1F C0 7F 80 FF 00 F8 83 FF 01 FC 07 F0 0F C0 1F E0 FF 00 FE
DPCM : 03 F0 09 FF 03 FC 03 F0 0F E0 3F C0 FF 01 FC 03 E0 B3 FF 00 FE 00 FC 03 F0 1F E0 7F 80 FF 00 F8
DPCM : E3 3F 80 FF 00 FE 01 FC 03 F8 1F E0 3F 00 F8 F8 3F 80 3F 00 FF 00 FE 01 FC 1F F0 1D C0 17 F8 1F
DPCM : C0 3F 80 7F 00 FF 01 FF 01 FE 04 FC 00 FC 1F E0 3F 80 FF 00 FF 00 FE 07 FC 03 F0 07 F8 1F E0 1F
DPCM : C0 7F 80 7F 00 FF 00 FE 03 F8 05 FE 0F E0 1F C0 7F 80 3F 80 FF 00 FF 01 F8 03 FE 0F E0 1F C0 3F
DPCM : 80 7F 00 FF 03 FC 07 F0 0F F0 1F C0 3F 80 7F 80 FF 00 FE 03 FC 07 F0 25 FE 0F E0 0F E0 3F C0 1F
DPCM : 80 FF 00 FF 01 FC 03 F8 0F E0 1F E0 3F C0 7F 00 FF 00 FE 03 F8 07 F0 3F E0 1F C0 3F C0 3F C0 DD
DPCM : 44 FE 01 F8 17 F8 0F E0 1F C0 3F C0 7F 00 FF 00 FE 07 F8 07 F0 1F C0 3F 80 7F 00 FF 01 FC 07 F0
DPCM : 1F E0 3F C0 7F 80 FF 00 FE 00 F7 0F 80 7F 80 FF 00 FF 00 FE 03 FE 01 FC 01 FF 00 FF 00 FF 01 27
DPCM : 77 C0 FF 00 FE 00 FE 01 FE 07 F4 07 E0 7F 80 7F 00 FE 01 FC 07 F0 0F F0 1F E0 1F E0 3F C0 8F 72
DPCM : E6 4E C0 7F 80 BF 80 FF 00 7F 00 7F 80 FF 00 FF 01 FE 01 FC 03 FC 81 7F 00 7F C0 1F E0 3F C0 3F
DPCM : C0 7F 80 7F 80 1F F8 0F E0 1F E0 3F C0 3F C0 7F 80 3F 80 3F C0 3F E0 1F E0 1F E0 1F C0 3F C0 3F
DPCM : C0 1F E0 3F C0 3F C0 3F 80 7F 80 3F C0 7F 80 7F C0 3F C0 3F C0 3F C0 3F C0 3F C0 3F C0 3F C0 7F
DPCM : C0 1F C0 3F C0 3F C0 3F C0 7F C0 3F C0 3F C0 1F C0 3F C0 3F C0 7F 80 FF 00 FF 00 FF 00 FE 00 FF
DPCM : 00 FF 00 FF 00 FF 80 7F 00 FF 80 7F 00 7F C0 7F 80 FF 00 FF 00 FF 00 FF 00 FE 01 FE 00 FE 01 FE
DPCM : 03 FE 03 FC 03 FC 03 F8 07 F8 07 FC 01 FE 03 F8 07 F8 07 F8 0F F0 07 F0 0F F0 07 F8 07 F8 0F F8
DPCM : 07 F8 07 F0 07 F8 0F F0 0F F0 1F F0 0F F0 1F E0 0F E0 1F E0 1F E0 0F F0 0F F0 1F E0 1F C0 3F 80
DPCM : 7F 00 7F C0 FF 80 7F 80 3F 80 7F 80 7F C0 3F E0 3F C0 3F C0 7F 00 FE 01 FC 01 FE 01 FF 01 FE 01
DPCM : FE 01 FE 50 07 F0 07 FC 0F FC 03 F8 07 F8 07 F0 0F F8 07 F8 03 77 D4 04 7F 01 FF 01 FC 03 FE 00
DPCM : FF 80 7F C0 1F 80 FF 01 7F 00 FE 03 FC 07 F8 07 F0 0F F0 0F F0 0F F0 1F E0 07 D8 3F 90 7F 00 FE
DPCM : 81 FF 01 F8 07 FC 01 F8 A3 9D 94 1D C0 FF 81 0F E0 3F C0 1F C0 3F E0 3F C0 1F E0 3F C0 3F E0 1F
DPCM : E0 07 F8 0F FC 03 F8 07 FF 00 FC 03 3E 80 1F E0 FF E0 06 F0 3F FC 00 FC 07 FC 01 F0 07 FE 0F E0
DPCM : 03 FF 07 F0 07 F8 07 D0 05 FD 5F 05 C0 5F F5 0F C0 7F 00 FF 00 FC 00 FF 03 1E E0 FF 60 17 B5 91
DPCM : 3F 00 7C C0 FF 01 7F 80 FF 01 FE 01 FE 01 1F 00 FF F1 3F 00 FF C0 1F C0 0F F0 0F E0 07 F0 3F F0
DPCM : 07 F8 1F F0 0F F0 03 FE 00 F8 C7 FF 01 F0 C5 0F E0 1F C0 7F 80 1F 80 FF F8 07 E0 3F E0 07 F8 03
DPCM : FC 07 70 80 FF 0F 56 E0 FF 00 FF 00 FE 80 7F 00 7E F8 3F 80 1F F0 07 F8 0F E0 1F F0 01 F0 3F F6
DPCM : 01 FC 07 F8 03 1F E0 7F 00 0E F8 FF C0 0F F8 0F E0 3F 00 7F 7A 01 C0 FF 7F 00 FC 01 77 E0 7F 00
DPCM : FE 01 1F 00 FF E3 1F C0 3F 80 5F 55 00 FE 0F D0 00 FF 0F FE 01 FE 01 FE 03 F8 81 7F 00 FC C1 FF
DPCM : 80 1F F0 0F F0 0F C0 3F F0 01 F0 3F FC 03 F8 07 F8 07 FC 00 FF 03 38 C0 FF C0 7F C0 3F C0 3F 80
DPCM : 1F FC 07 C0 0F F8 1F F8 01 57 E0 FF 00 FE 81 1F 00 FF C0 7F C0 3F 00 FF 60 0F C0 FF 00 0B FE 07
DPCM : FC 07 FE 00 FC 07 F0 81 FF 01 F8 81 7F C0 FF 00 A4 FF 07 C0 0F FF 03 E0 0F E0 3F FC 03 C0 FF 05
DPCM : 00 FE 0F 38 E0 7F 00 FF 67 03 C0 FF 01 1C FD 1F 80 3F 60 01 FF 1F E0 E0 FF 01 E0 FF 03 80 FF 00
DPCM : F8 FF 0F 00 FE A2 05 F0 FF 00 5E F4 03 C0 FF 07 C0 FF 03 B4 E0 FF 01 F0 0F 00 F8 FF 03 AE FC 0F
DPCM : 80 D7 7F 00 F8 0F 80 F0 FF 03 FC 03 AC B4 AD DA 09 F0 3F 00 FC 6B 27 B0 3F 00 DE 7F 00 F8 17 5B
DPCM : 00 FC 1F F0 FD 0F 00 FC 0F 80 FE 1F 10 00 FF 0F E0 FF 03 40 FF 1F 00 FE 0F 40 4D DF 02 F8 FF 03
DPCM : C0 FF 03 80 FF 03 F0 0F 90 AB F6 7F 00 B0 FF 01 C0 FF 03 F0 FD 01 C0 FF BB 00 F8 0F 00 FD FF 00
DPCM : F0 7F 00 F0 1F F0 7F 00 7E 81 76 ED 41 F0 1F A0 6D 55 C0 FF 07 E0 17 35 E0 FF 00 D9 BA 11 55 E8
DPCM : FF 07 00 FF 03 80 FF 0F 00 FF 0F 00 FB FD 03 00 FF 07 E0 FF 03 80 FF 07 80 3F E0 FF 03 F0 03 7E
DPCM : 01 FF 01 F8 DF 04 E0 2F F9 0F 80 9F 08 F9 3F 00 F6 FF 00 F0 07 F8 3F 80 2F 25 6B E9 8D 80 FE 07
DPCM : D0 2F B0 FF 00 F8 0F 52 F8 3F 00 FE 07 42 FE 03 F8 1F C0 1F D8 05 FE 07 F8 67 60 B8 0D F8 3F 00
DPCM : FE 07 C0 FF 07 C0 FD 07 C0 BF 00 FE 0F E0 1F 00 7F F5 01 E4 7F A0 F6 03 F0 1F C0 7F 00 D5 FE 07
DPCM : E0 F5 0A E0 7F 00 FF 00 FE 03 26 FD 1F 80 7F 82 95 F6 03 F0 1F C0 7F 00 DB FE 01 F0 3F 80 FC 07
DPCM : E0 7F 00 7F 92 88 FE 0F E0 77 13 80 FF 00 FE 03 FC 83 16 F0 FF 00 FE 03 85 FE 03 E0 3F 80 7F 22
DPCM : 99 FD 03 E0 7F 20 F9 1B 80 FF 01 F8 0F 11 FA 3F 00 FF 13 C0 FE 03 F8 07 F0 47 72 41 FF 03 F0 5F
DPCM : 08 F6 0D C0 FF 01 FC 03 D8 EE 17 80 FF 03 64 37 03 F8 3F A0 9F 89 60 FF 01 F0 3F 88 FE 06 80 FF
DPCM : 01 F9 0F 21 F6 1F 40 FF 80 FC 4F 00 FC 0F 70 37 69 0C F7 03 F8 9F 00 FF 03 C0 FF 00 FD 1D 80 FE
DPCM : 27 80 FF 06 F0 4F 00 F7 3F 00 FE 03 E8 7F 02 F1 4F 30 FB 10 F1 E7 06 F0 67 12 B9 4F 00 FF 03 FC
DPCM : 0F C0 FE 21 B0 9F 49 6C B2 0F E0 3F 01 FE 0F C0 7F 00 FF 05 B8 65 36 D3 64 66 26 B7 03 DD 27 C0
DPCM : FF 01 F8 03 F0 3F 80 7F 01 7F 03 CF 98 D9 16 31 3F 81 FC 2F 00 FF 01 F8 0F E8 4F 84 FD 03 D8 4D
DPCM : E4 CF 48 3B 40 F6 0F E0 7F 80 FF 01 F8 03 F0 FF 00 F9 09 F2 2F C0 5F 80 FF 03 F0 07 E0 FF 00 DF
DPCM : 07 E0 7F 00 FD 03 FC 07 6C 0F 22 7F 22 F1 1F C0 7F 01 FC 03 F0 3F C0 3F 60 1F C9 EA 36 81 FE 03
DPCM : F8 03 F0 3F C0 FF 00 FC 07 F0 1F 90 5F 03 F2 37 80 FF 01 FC 03 FC 0F 80 FF 01 FC 07 E0 5F 80 FF
DPCM : 01 FC 0F E0 3F 00 FE 07 F0 1F 00 FF 03 FC 07 F0 3F 80 FF 01 F0 0F E0 7F 00 FF 01 F8 1F 80 FF 00
DPCM : FE 07 E0 3F 00 FF 03 F8 0F E0 7F 00 FF 03 F0 1F C0 FF 00 FC 03 F8 3F 00 FF 01 FC 0F E0 3F 00 FF
DPCM : 01 F8 0F E0 FF 00 FC 07 F0 3F 80 FF 00 FE 01 FC 07 B0 7F 00 FE 0F 80 FF 00 FE 03 F8 0F E0 3F B0
DPCM : B6 52 72 0F C0 FF 01 FE 02 FC 16 C9 AD 44 DD 45 C8 7F 00 FE 07 F0 0F E0 3F C0 3F 90 7E 45 A8 FF
DPCM : 01 F0 1F C0 3F C0 77 42 DE 03 7A 0F B1 55 17 D0 7F 00 FF 00 FF 02 7C 0F D0 FF 00 FC 07 E0 FF 00
DPCM : FC 03 FC 07 E0 7F 00 FF 07 C0 7F 00 FE 07 F0 1F C0 7F 00 FF 01 F8 0F 22 FF 01 F8 3F 00 FF 01 FC
DPCM : 07 F0 1F 80 FF 01 FA 17 C0 FF 01 E0 3F C0 7F 00 FF 01 F8 0F F0 5F 00 BF 53 C0 FF 00 FC 07 F0 0F
DPCM : E0 7F 40 5F 09 76 D5 07 E0 7F 00 FF 00 7F 41 FA 07 78 37 C2 1D F8 07 E0 1F E0 3F C0 5F A0 DE 25
DPCM : D5 0D EC 03 FC 03 FC 07 F8 07 F0 4B D4 5D 51 F5 01 BD C0 7F 00 FF 00 FF 00 FE 03 FC 8B A4 75 D0
DPCM : 0F E0 3F C0 7F 00 FF 00 FF 10 5B 55 55 3D C4 1D E4 0F C0 FF 00 FF 01 EE 92 D4 3B E0 1F C8 55 E2
DPCM : 0F E0 7F 00 FF 00 FF 00 F6 1F E0 1F 70 4D F4 43 E8 0F E0 3F 80 7F 01 F7 25 F8 0F E0 27 F4 02 FE
DPCM : 07 F0 0F 71 27 A8 F7 00 FE 0F F0 03 FE 00 FE 03 FC 03 FC 13 B0 DF 40 FD 02 7D 01 FF 00 FE 01 FE
DPCM : 03 FC 03 7A 27 E4 3D 84 6F 50 3F 80 FF 00 FF 01 FE 01 FC 05 EA 0F 74 0F F0 1F C0 BF 80 F7 10 7E
DPCM : 11 FA 03 F8 0F F0 1F C0 7F 00 FF 00 FF 01 FE 01 FC 03 FC 07 78 0F F0 1F 80 FF 00 FF 01 FC 03 FC
DPCM : 0B F8 07 F0 1F E0 2F A0 7F 00 FF 01 FC 03 FC 0F E0 1F C0 3F E0 2F A0 3F 81 7E 09 ED 0B F0 1F C0
DPCM : 3F C0 7F 00 FF 00 FF 01 FE 01 FC 43 D8 2B E1 9F 00 FF 00 FF 01 FE 01 FC 03 FC 03 FA 07 E8 0F E8
DPCM : 2E A5 76 11 DD 05 7A 17 D4 2F C0 3F C0 5F C4 6E 44 B7 12 5B 55 69 2B D1 3D A0 5F 81 77 81 FE 10
DPCM : 76 4B 6C 4B 5A 4B AA 55 95 55 55 55 53 6C 55 69 55 65 4D A9 4D 65 35 59 27 6A 4D A9 35 65 4D 95
DPCM : 56 55 55 55 59 2B 65 55 95 59 55 56 8D 74 55 65 4D DA 25 B2 5D C4 CE 94 9D 24 57 69 2D A9 35 65
DPCM : 4D 59 4B 5C 93 7A 11 BD 52 DA 4A EC 46 EC 09 DD 12 DB 8A BC 22 D7 12 7D 41 7D 85 DC 92 59 65 AD
DPCM : 14 AF 42 BD 03 7E 91 DC 11 D7 81 BB 22 77 92 B9 62 CE 94 35 23 B7 12 7D 11 DE 05 DE 89 DC 03 FE
DPCM : 80 BE 11 7E 21 FE 10 7D 21 FE 80 FE 01 FE 04 FC 03 FA 03 FE 02 7E 01 FF 02 FE 01 FE 01 FA 03 FE
DPCM : 10 FB 08 7D 81 FE 10 77 42 AF 81 FD 80 7D 03 BD 03 F6 0D F8 43 F4 15 78 47 6A 8D DA 8A DC 11 F9
DPCM : 09 DD 45 DC 4A AC 4B 74 4B DC 8A F4 89 F4 89 F8 03 7A 47 6C 8D 59 47 72 47 6A 8D 59 53 69 55 5A
DPCM : 4B 6C 27 6A 4D 72 47 D2 1D A9 2D 71 2D C9 35 A9 35 A5 9E 28 3B 29 6F 44 6F 22 B7 44 B7 44 B7 22
DPCM : B7 A4 AE 24 37 63 B6 C4 AE 11 77 C4 AE 48 37 95 36 95 55 95 55 65 56 65 35 95 55 55 E6 54 E6 54
DPCM : EC 4C 6A 53 6A 4B E6 4C 59 53 6A 55 DA 94 59 53 5C
DPCMDEF  17  2545 "getready"
DPCM : 55 55 55 55 55 55 55 55 55 55 55 55 55 55 55 55 55 55 55 55 55 55 55 55 55 55 55 55 4B 56 55 95
DPCM : 35 55 D5 54 55 55 55 55 4D 59 36 55 55 55 55 4D 71 8D 75 94 D5 52 D5 32 91 3F 14 9F 64 07 2F CD
DPCM : 54 E3 83 35 0F 39 56 F1 F0 61 3C F4 29 07 3E 87 B3 0A F9 19 C3 E3 E1 8C 5B 9C C0 1F F8 E0 07 1F
DPCM : F8 E0 07 FE 81 03 FF C1 87 61 F8 61 3C 1E 0E 8F E3 30 D7 0F 70 07 3F F0 01 0F 7D F8 03 5E E1 83
DPCM : 7C FC 81 1F F8 81 27 F6 C1 C8 07 FC C0 9F E0 1C 0F EC 0F F8 07 1F E0 C3 07 CF 51 C0 5F 70 7E 0C
DPCM : 0F F0 83 FF C0 03 FF 41 1E E2 A0 BF 1F 70 82 C7 83 EF C1 73 D0 07 FC 21 7C B8 07 3E F8 81 1F 8C
DPCM : 87 89 E7 98 83 3F E4 31 E2 3C F8 43 7A 1C 1E 8F 47 F0 C1 5F E0 07 C7 E1 17 0E FE 00 FC 43 3C FE
DPCM : 60 3C 0E 1D F6 13 3C 7C 80 0F CB 03 CF F9 81 47 1F FC E0 03 7E 80 4F 1D C7 61 1E C3 87 1F F8 02
DPCM : DE C7 50 F3 78 88 E3 13 E1 07 BE C0 3F 78 0E 8E 0F F8 F0 83 0F 0F CE 01 3F C1 37 0F F8 81 8F F3
DPCM : E0 1C 63 1F 86 7B E0 0F 1E 70 0F CE 38 9C C7 E0 1F F0 85 07 F8 C1 07 7C F8 F8 C0 1F F8 85 E1 CF
DPCM : 83 0F 66 F0 E1 A1 0F F1 70 3C F1 C1 0F 3E C0 07 CF E3 C1 F3 30 FC 82 0F E0 1F C7 E0 83 F3 38 FC
DPCM : 08 F8 0F 3C 9C 0F 03 7F 78 E0 8D 3C 62 3E 1E 7C C0 77 38 83 3F 78 C2 23 0F 7F 18 F8 18 3E C3 E1
DPCM : F1 D0 E3 0B 78 E6 41 7D E0 07 7C 80 1F 5F 3C 98 FD 1E E0 07 79 F0 0F 3C D8 71 C0 2F C3 43 FF 80
DPCM : 1F F8 01 3E 61 9E 07 7C C0 8F FF 40 3F E0 41 DE 03 7C E0 0F FC 81 3F C0 7F C0 3F F0 C3 1C F8 01
DPCM : 3F F0 1F F0 07 FC C1 07 F8 03 7F F0 0F FC 01 7F C0 07 7E 80 07 7C 80 DF 2F E0 1F FC 01 06 BE 07
DPCM : 1F F0 03 7C D0 7F 80 1F F0 C7 81 FF 00 7E E0 0F 78 87 1F E0 3F F8 01 7E E0 0F FC 81 9F C0 1F 06
DPCM : FA 01 FC 00 FF 07 1F 7C E0 03 FC 87 07 FE E0 03 7C E0 0F FC 81 3F C0 0F FC C0 3F C0 3F F8 01 3F
DPCM : C0 87 F3 60 1F E0 0F 7E 30 0F FD E0 01 FE C0 0F FC 01 0F F8 83 F3 18 9F 01 F0 C7 79 78 F0 7F 18
DPCM : 3C 07 3F C0 07 FC C1 79 38 07 3E 8C 07 F0 1F E0 07 FC E1 3F F8 03 3C 0E F9 38 0C 7F 01 FF 00 DF
DPCM : C1 7B F0 80 1F E1 0F C3 3F E0 F0 3C E0 3F E0 0F FC 03 3E C0 1F 8E 83 7F C0 0F F0 33 F8 07 F8 03
DPCM : 1F D8 0F 8C E3 03 FE 01 FE C1 3C C0 7F 18 EE 03 F8 0F F0 07 F0 47 38 7F 70 78 C0 A3 1F E0 3F 38
DPCM : 1F 80 7F 02 FE C1 7F F0 0F F0 01 1F E0 07 FC 0F F2 07 FE 31 88 47 F0 0F C0 1F F8 78 84 FF 30 1E
DPCM : C3 F0 3C 84 0F F8 8F 43 1E C3 21 FE E0 1F C0 3F C0 3F C0 FF 60 3C 00 FF 0C FF 03 F2 01 F8 87 3D
DPCM : 74 F8 0F E2 07 FC 21 8C 0F F0 0F E1 FF 00 7C 00 FE 1F E2 39 0C EF 01 FC 0F C6 3F C0 03 F8 01 FF
DPCM : 03 DE 07 F8 03 3C FC 03 FC 1C CE E3 90 07 7C 3C 8E E3 07 FC 03 7C 70 1E C6 C7 E0 8F E0 F8 C0 7F
DPCM : C0 67 C0 F1 39 C0 7F 30 3E 07 EF 60 3C 80 1F E3 3F 84 C7 E1 07 F0 0F C7 C3 73 70 1E 07 F0 1D CE
DPCM : 0F 78 E0 1C 0F E3 E7 E1 FC 01 3C C2 F1 1C 9E 73 EE 0C 06 3F E0 07 38 3F C6 0F E3 01 1F C7 F0 03
DPCM : 7E 8E E3 70 0F E0 CF C1 7B C0 83 71 7C 0C BF C3 47 3C C0 3F CC 01 3F F0 E3 1E 86 73 18 E7 C3 78
DPCM : 88 C7 71 F0 1C FC 03 3C 8F 03 F9 8C 07 7F C0 7F 86 70 78 1E C6 33 FC C0 07 F8 07 0F F8 07 FE 90
DPCM : 07 FC 83 F0 F8 0F 7C 04 79 18 0F E7 7F C0 6F 00 7C 82 3D C7 7F E0 18 0E F0 0F 39 E7 03 FE 71 C0
DPCM : 3C 76 38 7E 80 1F 87 E1 3E E0 CF 79 04 7F 00 86 FF 20 8F 3F C0 33 1F C0 77 C4 C3 7F 90 43 F8 01
DPCM : 3F FC 0F E3 81 07 C6 81 F7 E1 7C C0 E3 33 18 CF 18 FB 9E 60 1C 0E F0 07 1F E6 F3 38 86 7F 00 EE
DPCM : 11 1F E0 77 98 1D C7 C1 3C 0F 8F C3 07 8C F1 E3 70 F8 01 FE C0 1F E0 0F CF F1 01 FC 87 23 F8 07
DPCM : E1 1F C3 03 F0 07 7C 06 E7 79 00 FF C3 31 FC 07 F0 FF 61 10 3E 00 13 FF 03 FE CF 80 C3 F8 00 FF
DPCM : 88 47 F8 07 C6 FF 00 CE FB 01 3C FF 01 F0 01 3C E7 77 10 3E 07 87 E1 3B E0 F7 21 F0 F8 01 1E 3E
DPCM : 1E C0 FF 31 06 C3 DF F0 E1 3C 80 FF 03 3C 9C 87 13 FC 07 F0 C3 07 F0 0F FE 81 7D 10 0F EE C1 7C
DPCM : 38 E4 23 7E 0C FE 10 7E 82 77 1C E3 E1 F0 07 DC 3B 18 07 FE 81 F1 85 E1 F1 1E F0 7C 10 1E DF 03
DPCM : FE 01 F8 21 FE 03 FC E0 18 8F C3 0F EE 81 07 7C 87 1B 87 C7 E1 38 47 78 DC 03 7C F8 07 F1 91 07
DPCM : 1F F8 03 1F C5 1F F0 C1 3F F0 00 3F B8 87 36 C1 2F F8 70 9A 93 1E 3E E0 A3 3E E0 FC 81 1F F8 03
DPCM : 1E CE 07 F8 F0 02 9E E7 E1 F0 1D 8C F1 0C E7 E1 0F CC C3 F0 78 03 FC 87 71 F0 07 F8 70 FC 00 3F
DPCM : 3C F0 83 0F 1E FA 81 87 3F F0 C1 03 F3 71 F8 07 36 F8 F0 03 E6 E3 78 58 C1 07 7F 78 14 8E BF E0
DPCM : F0 83 23 FC 81 67 1D F0 F9 10 F8 3E E0 E3 C1 E1 73 F0 0C 0F CF 83 FC E0 E0 DC 07 7C 70 C3 1B 1E
DPCM : 78 C3 C3 55 96 F1 F0 C4 3B E0 E1 07 7C F8 F0 83 19 BE C3 E0 E3 21 BE 07 F0 F1 11 FC 78 C0 0F 3F
DPCM : 18 C7 0F F0 FC 03 B0 BF 07 C0 EF 03 78 FC C0 7D 40 97 D6 E0 95 35 78 4E 78 0F C3 C3 83 3E 1E F0
DPCM : 3E 07 83 FF C0 71 70 D8 E7 01 1E 5F 30 DE F1 50 BC E3 10 1E 5E C3 0F E3 F1 00 1F 7F 60 F9 03 02
DPCM : FF 03 FC 07 02 FF 38 C3 1F E0 F8 E3 01 C7 7C 38 EE 01 87 F7 05 16 FC 07 37 70 7C 3A 78 0E 56 1F
DPCM : 1C 7C 7A 80 E3 1F 00 CF 7F 08 F2 73 E0 F0 3D 82 F4 F3 10 E7 03 F1 8F 30 CE E7 00 7E 3F 80 E1 3E
DPCM : 7F 00 7C 47 07 F8 1F C4 E1 7C 3C E0 81 3F CE 01 3F 01 3F FF 01 0C FE 1F 00 7F 81 87 EF 18 86 C3
DPCM : F7 70 80 8F F1 38 9E C7 61 F8 E3 10 9C C7 3F C0 C3 7D 08 C7 F9 38 80 7F 80 F3 79 0C 0E FF 71 0C
DPCM : 1E E0 C3 0F F0 C9 7F E0 03 3C 9C C7 03 8C FF E1 80 EF F1 60 FF 18 86 F3 F8 00 0F F3 99 03 78 98
DPCM : CF 03 8C FF 41 1C E3 E1 38 1E 87 C3 FC 0E 86 F7 C1 18 1F 80 FF 1B 18 FE 0F 00 FE C3 03 3C CE 87
DPCM : 77 80 E7 79 00 C7 3F 3C 82 0F C7 87 C7 F0 30 3E F8 03 7C 86 0F 70 FC 87 0F E0 C3 FF 31 00 FC E7
DPCM : 01 1C FF 3F 00 F0 CF 43 30 FC E7 C0 C1 7F 40 08 FE 7F 00 F0 7F 0E C3 F1 07 20 FE 47 1C E0 E3 3B
DPCM : 78 D8 87 E7 60 1C FE 01 3F E0 3D 1C 83 79 FC 00 86 FF 71 00 F8 3F 04 0F FF C3 01 F8 1F 83 C1 BF
DPCM : 47 00 FE F1 10 3C DE 83 87 F0 3D 0F 30 1E 3E 0E CE E3 21 7C FC 03 C6 F3 00 C7 F3 70 78 3C 0E F7
DPCM : 01 9E C3 C1 FF 40 8C E7 79 10 FC 0F 38 18 8F 1F C0 FF 18 8E C3 0F E0 37 C1 F9 09 FC C3 3F 20 0F
DPCM : 3E C0 7F 90 C7 E0 1F F0 03 FE 05 07 F0 3F C0 E3 7C 07 87 E1 11 3E 9C 8F E1 F8 0E 87 FB 00 7F 78
DPCM : 00 FC 1F 82 F3 11 1C FF 39 00 FF E1 C8 83 71 7C 06 F1 1E 07 F0 EF 03 78 7E 03 E0 7F 08 78 FF 03
DPCM : F0 3F 00 71 FF 10 E0 FF 00 E0 FD 1C B8 1F 87 C1 F1 11 0C FF 01 9E E3 F0 1F C0 78 1F 83 F1 1F 80
DPCM : F3 67 00 F3 77 80 F9 3F 00 F7 31 8C 7F 1C 00 EF 0F F0 F0 FF 00 EE 77 00 E0 0F 38 F8 73 08 FF 03
DPCM : 78 9E 83 3E 3F 06 E3 71 00 FF 47 60 FC 07 78 3E 06 F8 7B 0C F8 1F 82 E1 7F 00 FE E3 00 F8 7F 00
DPCM : F8 EF 01 F0 7E 00 FC 7F 06 E0 3F 07 F0 7C 00 FC 87 1F 78 1E E1 3D 0C F0 3F 80 F8 3F 00 FE 0F 81
DPCM : F9 0F 80 FF 07 E0 3C 0F 30 7E 1F 80 E7 E3 01 CC FF 10 CC EF 80 1F FA 21 E0 7C 0E 9C CF C0 1F F4
DPCM : 73 30 1F 83 7D 80 FF 00 FC 07 E2 27 F0 1F E0 77 10 7F E0 3E 80 E7 F0 3C C2 79 04 FF 01 FC 03 E7
DPCM : 03 FC 03 FC 01 FE 83 F0 07 F0 3F 00 FF C1 FC C0 CE 0F 86 67 70 CE E1 3C 07 E7 00 FC 03 F8 0F E6
DPCM : 07 B8 0F E1 3F C0 7F 00 FF 00 FE 1C FC 0D E4 07 F8 07 F0 3B C8 67 98 1F F0 4F C0 1F 00 3F 0E FE
DPCM : E1 70 8E 87 1F 06 FF C0 3C 82 7F 0C E6 11 F8 0F E6 39 1C EF 60 3E 80 3F 80 FF 00 FF 02 FC 03 FC
DPCM : 03 7D 84 F9 04 FE 01 FC 01 FF 03 FC 01 EF 03 3C 0F F1 81 8F E3 0F 7C 06 FC 21 E4 E7 F0 1F C0 1F
DPCM : 00 7F C3 F8 84 E3 07 F8 0F F0 1F E0 0F F0 0F F0 07 F0 17 CC 0F FC 07 F8 03 E0 3F F0 0F F8 0F D8
DPCM : 37 F0 07 F8 81 3F C0 3F C0 3F 80 3F 80 FF 00 7F 86 F9 02 FC 07 F8 07 F0 1F E0 0F E0 1F E0 9F C1
DPCM : 1F C0 F7 20 7E E0 3F 80 3F C0 1F E0 3F C0 3F 80 3F E0 03 FC 03 FE 07 F3 18 C6 3B C8 3F C0 3F C0
DPCM : 1F C0 3F 80 FF C0 3F 80 7F 80 F8 03 FE 03 FE 01 FE 07 F8 03 F0 07 FC 07 F8 0F F0 1F F8 03 F8 03
DPCM : FC 07 FC 00 FE 03 FE 07 E2 03 FC 0F F4 13 F0 03 F0 1F E0 1F F8 0F E0 07 FC 0F E0 17 F8 39 80 FF
DPCM : C0 3F C0 7D 00 FF 81 7C 03 FF 00 3E 82 3F 80 FF 81 3F C0 7F 80 7F 80 7F 00 7F 80 7F 84 7F 40 3F
DPCM : C0 79 C8 7F 20 7E 01 BF 03 7F 00 7F 70 9C C3 1F 81 F7 41 1C 0F F7 28 F8 03 FC 03 F0 1F C2 1F 9C
DPCM : 47 F0 1F E0 1F C0 0F FC 07 F0 0F F2 03 FC 03 F8 09 5F 0F E2 C3 FC 00 F8 0F D1 0F FC 03 F8 03 FE
DPCM : 03 FA 06 F7 00 FE 07 5C 09 FF 00 F3 13 FC 03 FE 41 1C 55 55 55 55 55 55 55 55 55 55 55 55 55 55
DPCM : 55 55 55 55 55 AB AA AA AA AA AA 56 55 55 55 55 55 55 55 55 55 55 55 55 55 55 55 55 55 55 55 55
DPCM : 55 55 55 55 55 55 55 55 55 55 55 55 55 55 55 55 55 55 55 55 55 55 55 55 55 55 55 55 55 55 55 55
DPCM : 55 65 D5 55 55 55 55 55 55 55 55 55 55 55 55 55 55
DPCMDEF  18  3457 "foralotoffun"
DPCM : 0F F5 11 F8 0F E1 0D F6 41 69 1D 86 4F F0 C7 70 1C DE E8 A8 5A E1 E1 79 8C C3 3F C0 07 FD 80 79
DPCM : 8E C3 7C E4 43 B1 0F F8 01 7F F0 1C F0 73 E6 90 DF 20 3E D0 C7 78 C0 C7 73 02 1F F7 43 78 86 F3
DPCM : 80 C7 E1 63 3D CC 0F D8 FB 00 71 F8 1F 04 67 1F 4C 4B FD 01 F8 C3 3B 80 3E E3 27 F0 0E 9F C0 67
DPCM : 7C 60 3B 3C 87 71 7C 01 37 7C 0F 86 D3 74 34 0F 75 0E 8F E1 37 C0 79 FC 03 C0 F7 78 00 3F CF 83
DPCM : 39 3C 04 FF E0 0F F8 03 3F E0 83 FF C0 50 1D F2 11 3E 84 FF F0 03 FC C0 F4 3C 0C 1F F8 0C DF C1
DPCM : 70 1F F4 03 FC 80 3F C0 0F 7E C1 67 F0 61 3D F0 11 FC C0 7F E0 0F EC 03 F8 80 3F F0 07 FC 01 FF
DPCM : 03 F6 01 3F E0 0F F8 43 53 78 1E CE 07 F8 11 3E C2 0F E0 8F FF 40 38 1F E3 38 1E E1 07 FC 01 FC
DPCM : 1F F0 80 7F F0 03 FE 80 3F 88 1F E0 97 1D D8 63 DC 07 C3 C1 7F C0 0F F0 0F 7C E1 21 7C CE 05 0F
DPCM : F8 07 7E 38 0E E7 83 1F F8 01 1F E6 03 7C C8 0F 7E C0 67 78 1C 8E E7 98 07 F0 51 3F F8 07 FC 20
DPCM : 1F F0 83 0F E6 7B 80 0F FE C1 C3 E1 18 8E C3 3F F0 03 F1 F1 1F C0 07 F8 D0 7F 80 1F F8 0F 1C 87
DPCM : F3 10 1F E0 0F FC C3 17 F0 41 7E 8C 0F F0 83 7F 1C C3 03 FC E0 33 7C 00 3F C7 0F E0 C3 F3 38 86
DPCM : 87 F3 E1 43 F8 81 3F 78 0E 7E 90 0F E3 11 FC E0 1F 1E E0 83 7B F0 18 3C 9C 0F 9E 0F E0 C1 3F 4E
DPCM : 70 B8 0F F8 C0 E7 E0 3E 1E C1 63 FC 01 3E E2 73 78 C7 03 78 FC 87 87 70 1E DC 03 3C 86 0F FE F1
DPCM : 10 1E E7 81 8F E1 03 FE F0 0C 7C 38 1F C1 07 7C F0 0F 0F F0 0F CE E3 31 78 3C 07 1D 1F C6 61 FE
DPCM : 01 1C FC 43 7C 8E 13 F8 C7 1B 1C E0 0F 67 3C 87 E1 1D 0F F0 1C FC 81 1F F0 F0 1F 0E F0 07 E0 BD
DPCM : 1F C0 71 1F F0 3D 1C C0 9F 47 E0 F1 1F 38 FC 0E 03 9E 0F E1 1D C6 81 8F F1 38 9E C3 71 9E C1 3D
DPCM : 1E C1 F1 3F C0 0D 5F C0 0F E3 63 28 0F F7 31 1C C2 3F 8C 47 7E 00 9E C7 63 78 FE 01 7C 8C C7 78
DPCM : C8 0F 3E E0 87 F7 E0 39 78 82 73 78 84 E3 3C C2 77 38 0E E7 81 1F 81 F1 F1 1C BE 03 FF 00 9F C1
DPCM : 83 7F 78 18 1E CE 83 3C C6 67 70 DE 03 18 FE 63 70 0E E7 70 0F F0 01 C7 BF 0F E0 39 F8 07 F0 18
DPCM : 1F C6 C3 7F 30 E0 7F E0 11 7C 0E E3 FB 00 F8 1F 80 E7 78 06 F3 39 1F E0 39 3E C2 73 C0 4F 9D 0F
DPCM : C0 F1 1F 9C C3 07 EC 43 8F E0 71 3C 7F 00 0F FE 41 1E C3 33 38 87 F7 00 1F F0 23 1F 0E CF C7 E1
DPCM : 18 3C FC 07 3F 80 0F F3 C1 0F F0 01 7F B8 87 81 7F 84 6F 70 0E E7 31 1E E1 61 7E E0 73 C0 3F F0
DPCM : C7 70 0E E7 21 3E E0 39 7E 80 3F 84 1F 96 E7 F0 80 77 E0 33 FC 81 7F 80 1F E0 61 3E C3 FB 00 0F
DPCM : F9 38 9E C1 3F D0 47 38 C1 77 E8 0F E0 3B D8 87 F0 03 DF F0 0F E0 21 FC 07 0F C7 F0 07 7C 0C 8F
DPCM : E3 39 84 3F F0 0F D8 07 C7 C1 7D F0 0F 8C 07 F9 60 7C 80 3F DC 07 F0 1C 9E C3 3D C2 73 18 1F E1
DPCM : 3B F8 07 8E C3 79 70 3E E0 0F F0 03 BE C1 73 E0 1F CC 07 E1 1F F8 80 E7 07 E7 70 3C E1 38 9E 07
DPCM : 3D 88 0F F3 58 D2 C3 75 C4 1F F0 03 F8 0F FC 03 3F F0 01 8F 0F E1 63 78 0E F0 83 8F F8 78 C4 47
DPCM : 7C C6 F1 05 1F F0 F8 07 0F 1F F0 C1 1E 4E F0 03 3F 78 E2 83 0F F9 03 57 07 F7 E0 0C E3 1D C6 33
DPCM : 78 C6 F3 50 3E B8 03 1E E3 F0 03 FE E1 18 1F 70 0F E7 61 F8 81 1E FC C1 0F 0E C7 F0 01 1F FE E1
DPCM : C0 0F 7C F8 01 0F EF C1 78 9E C3 71 18 FF 60 1E C6 E3 18 C6 71 78 0F E1 0F C7 C1 1F 38 C7 78 18
DPCM : 8F E3 70 F8 C3 38 9C 07 F0 67 F8 0C 7F 18 0F E6 03 7C 1E EE 81 07 F8 C1 FE 30 1C DE 07 FC 07 83
DPCM : 3B 1F C1 81 CF E1 61 78 1C 3E 87 73 7C C1 23 FC C1 78 1C 07 78 FC 0F 80 EF 78 84 9F C3 31 F8 1C
DPCM : 1E 8E 63 1F C1 E3 FC 00 3C FE 07 18 EE 0F E0 87 7F 80 78 FF 01 1C 8F E3 30 1E 3E 88 8F F1 E1 78
DPCM : 78 0E 03 FE 0F E0 38 9F 61 30 FE 21 3C 3E 1E 90 CF 0F 18 E7 F1 07 78 78 FE 60 1C 1E C6 C3 E7 30
DPCM : 98 FF 18 00 FF 19 0E F1 87 71 78 3E C2 31 7E 87 41 7C F8 80 07 FF C0 07 FF 41 39 F0 1E 8E 08 DF
DPCM : E1 38 9E 73 18 DE F0 07 E3 F8 42 60 7C C7 0F F8 00 9F E7 38 C6 43 FC C0 1F C6 71 3C 0E 87 C3 F3
DPCM : C0 E3 F8 30 1E CE 03 8E 7F 80 C7 F1 38 1E 1F E2 07 87 E3 FC 07 70 3C 0F C0 CF E3 80 FB 70 1C 9C
DPCM : E7 03 F8 F8 0F E0 7C 87 20 FC CF 60 38 FE 20 0E E7 43 7C F0 0F C7 60 1F E1 03 FF E0 0F D8 87 0F
DPCM : E0 F1 9C 07 F0 78 0E CF E1 3C F0 03 F8 07 FF 00 78 FC 0F 02 F8 87 17 F0 3F 8F 03 70 3E 87 E0 FE
DPCM : 1F 00 F0 3F C8 03 FC 23 7C 07 E7 80 FF C1 38 FC 03 38 CC F7 18 E0 F3 3E 00 E3 7F D0 80 FF 61 1C
DPCM : F8 81 3F 0E 03 FC C3 03 7C E0 0F FC 07 F3 0C E6 E1 1F F8 90 07 F1 F1 1F E0 0F F0 18 3C 87 7F 10
DPCM : 0E FE 83 70 F8 0F 3C C0 7F 1E 03 C3 7F 18 80 7F FD C0 01 FE C1 13 BC E1 E1 1F F8 03 7E 00 F9 81
DPCM : 3F 40 F1 DF 63 60 F8 1F C0 E1 7F C0 01 FF 0C 38 FC 1F 02 9F E1 39 1C 8F E0 07 FC 31 3C FC 0F 02
DPCM : FC F3 10 1C FF 61 0C C7 E3 18 C3 F9 18 82 FF 07 E0 F8 1F 40 F0 FF 61 30 CE 3F C0 30 9F E7 C0 3F
DPCM : 1E E0 70 1F 4F 60 3E 0F 00 FF 2F 00 F8 7F 08 C2 FB 19 84 7F 1E C0 F8 E3 31 78 1E C7 41 FF 38 00
DPCM : FC 0F 03 98 FF 11 0C FF 71 00 F0 FF 11 0E FF 3F 00 F7 79 00 E3 39 0E C1 F8 1E 83 F1 FC 03 70 3E
DPCM : 1E C3 F8 8F 71 18 8F C7 30 9C 3F 40 9C 8F E3 81 FF 47 60 98 F3 19 1C C7 63 38 EE 73 00 FF 78 03
DPCM : E1 3D 1C C6 E3 30 1F 0E F1 3D 04 F7 01 1F C0 F1 39 1E FC 07 0F C1 F3 31 0E FF 83 79 C0 23 F8 7C
DPCM : 0C 0F FF 80 07 FC 71 00 FF 07 38 EC C3 0F F0 F1 00 1F DE C3 78 1E C0 F9 1F 06 F7 F1 08 86 F3 3D
DPCM : 08 C3 1F 1E 98 C7 7F 30 84 0F 0F E0 FD 0F C0 E3 77 38 C0 87 2F E0 F0 3F 00 FC 1F 07 F0 8F 87 E3
DPCM : 61 78 FC 00 3C FF 07 07 C7 C3 71 C0 F9 31 3C 1C FE 01 FC 7C 04 9C E7 07 84 F7 31 1E 80 FF 18 0C
DPCM : F8 C7 F1 E1 90 DF C1 70 9E 7F 20 F8 0F F0 E0 03 07 FF 07 F8 0F 80 FF C0 7F C0 9E 03 78 18 7E 0E
DPCM : CE E3 01 83 3F 1F E0 07 7E F8 80 77 E0 1F 30 FC C7 70 80 FF 01 E0 7F 88 4F F8 0F C0 3F 04 FD 83
DPCM : F3 A0 0F 61 FC 07 66 F0 63 95 F0 0F 5C F5 80 1F F0 91 8F 7D 80 1F 0E F8 83 3F E0 F1 0F 78 E0 07
DPCM : 7F 60 59 5E 82 37 96 1E C3 C3 1F 90 6F 68 7C 20 FD 81 1F 3C D8 0F 7C E0 C7 11 FC C1 3F C0 7D 06
DPCM : EE 40 FC 0F F0 81 EF 10 7C 17 4E E1 3D 84 EF 80 FF 00 F8 07 FC 03 F6 43 78 47 F8 0C 5E A5 3E 06
DPCM : 57 73 38 1E C1 3F 58 0F E1 55 C2 8F E1 47 C1 2F F8 74 A0 3F C0 5F 83 7C C8 E7 60 BC 82 3F 70 F1
DPCM : 03 3E E1 71 85 F3 01 3F C6 E3 83 E9 71 98 C7 F0 1C 8E F1 0C C7 39 1E C1 4F B8 C7 31 78 D6 83 79
DPCM : 38 8E F1 18 0F 4F 3C 8E C7 F0 82 CF 31 DC 71 78 18 1E 8F 63 1C 1F 8E C3 3D 18 8F E1 1D 1E 78 8E
DPCM : 87 F1 07 F8 C3 43 78 1E 78 1C C7 E3 38 C6 3D 86 33 78 87 E3 D1 61 3C DC C3 88 E7 21 3C 37 3C C6
DPCM : 23 EB 21 7C 8C 0F F4 63 0F 01 FF 98 73 E0 7C 86 1D 9C C7 38 E0 17 8E E3 79 C4 63 FC 0C C7 30 0F
DPCM : FC 01 FE C3 71 70 F1 3C C0 F8 83 C7 78 1C C7 79 0C C7 8D 1B F4 31 9C C7 33 1C C3 E7 01 DE C3 E3
DPCM : 60 7C 1C C1 F3 38 0E EE 43 FC 10 CE F1 84 0F FE 80 E7 F0 58 07 FE 87 E0 F0 38 0E 7F E0 0F 0C BE
DPCM : 07 E1 77 60 F0 F8 3C 60 3E 1E C3 33 78 0E 1F C2 E7 E3 60 3E 1C E3 C1 47 7E 80 7F E0 03 FE 0F 90
DPCM : CF 03 F8 1F 60 F8 83 03 FE 83 71 FC 03 78 8E 8F F0 09 1E C7 1F C0 FF 81 03 FC 83 E3 F1 18 FC E0
DPCM : 0F F0 03 F8 7D 18 86 3F 1C 0E CF 03 FF C1 E0 7C 00 9F 8F 01 FC 8F E1 F0 3C 38 FC 07 C0 F1 0F F0
DPCM : 3C 0E 1E 1F C0 FF 00 F3 1F 30 9E F7 00 1E 7F 00 F6 E3 1D 38 C3 73 18 87 7F 70 F8 01 3C 7F 06 C3
DPCM : E3 38 C2 71 9E 0F F0 1C 1F 86 C7 FD 00 F3 71 0C EE 21 0F FE 70 0C C7 C3 3C E8 07 F0 97 0F 78 FC
DPCM : C1 39 06 FC 79 00 1E CF 0B FE C0 A3 C7 38 F0 DF 00 DC E7 01 1E F3 0D 82 FF 01 FE E0 33 18 F0 7F
DPCM : 80 3F 0F 30 9F 83 E3 78 84 73 3C 86 E3 07 F3 70 78 0F 0F F1 C0 7F 80 3F 88 07 FF C1 3F 40 FC 03
DPCM : C3 A1 EF 71 10 FE 01 3C E7 1B 9C 07 F8 11 07 EF E1 30 C7 0F E0 7F 80 C7 F1 3C E0 C7 01 7E 3E C0
DPCM : E3 3E E0 71 1C CE C3 38 8F E1 71 0C 0F F7 31 0E CF 71 0E E0 3F E0 31 9E 07 F1 0F FE 30 C0 1F F8
DPCM : C3 F0 0C CF 70 1E C3 E1 39 8C FF 00 1F E3 E1 F8 80 3F F0 79 78 1C CE E3 18 CE C3 60 3C 9E 83 73
DPCM : F8 04 C7 73 38 8E C3 3D 38 1E C3 33 3C F9 80 E3 7D 80 F3 E3 61 70 8E 47 70 7C 80 CF 7B 38 1C CF
DPCM : 03 78 1E 8F E1 3F 06 C3 79 7C 00 FE 0F 80 F9 1F 84 F1 3E 0C 8F 8F C1 3C 0E C7 71 0C 8F E3 71 98
DPCM : 67 FC 71 00 9F F1 10 9F 0F B8 E3 13 1C 86 FF 00 FE F0 03 73 F8 1E 0E C0 FF 03 70 BE 87 07 FC C1
DPCM : 39 F0 38 1E C6 C3 1F C0 3F F8 83 C3 79 30 FC 07 07 FC C1 39 0E FC F0 03 1C 8F 07 8E C3 F3 60 1E
DPCM : 3E 88 C7 37 7C E0 81 0F 7F F0 88 07 3E 7E C0 07 7C FC 81 0F 3E E0 E3 07 1E E1 F1 1F 1E FC C0 03
DPCM : 8F 73 F0 84 C7 38 3C C6 07 8F EF 41 3C F6 18 0F 8E E3 C0 07 F8 38 DF E1 1E E4 31 BC C3 79 04 F7
DPCM : E0 1C 8E 87 F1 E1 3C 00 3E FE 09 C6 C7 78 78 0F 0F F9 80 8F E1 39 9C 07 1F E2 F0 87 0F E3 70 C0
DPCM : E7 38 7C 87 C7 E1 06 F0 31 3C EC 87 7F 00 1F FC 07 FC 00 0F E3 F3 38 3E D8 0F 84 CF E0 1D 87 F1
DPCM : 78 78 06 1E FC C3 19 9C 87 F1 78 0C 8F E3 F0 07 F0 38 8E C7 78 3E 83 F3 E0 3C C4 63 78 83 7C 3C
DPCM : 8F C3 7C 1C 87 E3 60 1E E6 13 3C 86 F3 30 FC 06 1F 0E 3D 03 9F C3 73 38 0F 8F F3 E0 1F 0E C1 81
DPCM : 7B E0 07 F8 0D FE 60 1F C6 23 DC C1 3D 98 87 F1 06 F7 70 1C C6 3B 3C 82 3F 9C 07 F9 00 CF F1 18
DPCM : 8E 39 1F E0 57 E0 1E F1 39 3C E0 3F 8E C3 F8 C0 63 F8 C1 7D 30 0F F0 07 FE C0 1D 87 C7 70 0E E7
DPCM : 61 1F E1 31 1E 8F 70 9C 87 67 F0 0E FC 00 9F C1 87 FE 03 C0 FF F0 0C EE 60 1E FE 00 87 7F 1C C3
DPCM : E1 3C F4 01 7E 70 0F 3E C2 C3 1D 8F C0 FF C3 21 3C E0 3F F8 01 0E E7 71 0C C7 7F F0 04 7C E0 0F
DPCM : FE C0 31 1E 8E 03 9E C7 63 F0 F0 1F 1E C1 C3 3F 1C C3 71 1E E2 19 FC C1 1E 8E C3 38 CE 03 1C EE
DPCM : 71 1C 87 F3 88 E7 F0 11 FC 0E FC 00 3F 8E 3F E0 01 FF 18 FC E1 0D 00 7F 78 0C CF 63 F0 1F F0 E0
DPCM : 1F 3C 8C 87 81 CF F1 38 C3 33 3C 8E C7 01 FE 01 FE C2 03 FC F0 0F 3C C2 87 87 F8 F8 83 1F 3C C4
DPCM : 33 1C C7 7F 00 C4 FF 0F C0 0F E3 80 0F F8 F0 1F C7 61 3F 78 0C 0F F8 83 83 C3 F8 00 3F FC 38 7C
DPCM : 07 0F E3 E3 71 18 FE 63 18 EC C3 13 78 9C C7 E0 0F FC 01 EE E3 18 CC E7 70 80 7F 38 0E C7 C7 18
DPCM : CE C7 07 C0 FB 31 1C FE 71 1C 0E E3 21 3E 07 7F E0 79 80 F3 3C CC C1 1F FC 03 7C 8E 81 87 F7 E0
DPCM : 0D C2 FB 78 08 87 67 F0 08 E7 1B 8E E1 3F 84 E3 78 0C 8F F1 0F 1C E6 F1 00 8E FF 03 F8 07 3F F0
DPCM : 11 86 FF 38 00 FE 7F 00 C2 7F 1E 00 FC F3 18 C6 7F 80 1F E8 01 FE 73 00 FF 07 00 FF 1F 00 FE 3D
DPCM : 80 71 3E 8E E1 C5 13 9E C1 F3 70 1F F8 3D 04 1E 9C 0F F0 81 FF 18 7C 30 FF 03 0C FE F1 00 3C FE
DPCM : 03 8E E3 03 3E 06 FC 77 18 CE F1 09 C2 79 3C 06 E7 1F C0 C3 FD 80 47 F0 1F E0 0F EF 71 04 E7 7F
DPCM : C0 E0 1F 8C 01 FE 21 FE 10 1E 8F E0 FF 01 F0 38 CF 23 F0 C7 07 80 FF F0 08 FC 07 78 F8 FF 08 8C
DPCM : C7 33 38 8E E3 11 CC FF 31 80 FF 38 0C C6 0F F0 F0 FF 00 80 FF 43 38 FE E3 10 9C 7F 04 C3 7F 38
DPCM : 04 E3 E3 01 F0 3F 8F C1 FF 03 18 CE 0F 00 EF F9 04 E0 3F 0F C0 FF F0 0C 9C CF 81 F0 9F 03 1C BE
DPCM : 07 C1 F1 EF 01 70 3F 07 1C 1E 8F 07 F8 ED 01 F8 7F 80 83 F7 23 E0 E3 3F 00 7E F8 01 7E 1E 58 07
DPCM : BF 03 B8 3F 0E 83 F3 F0 E1 00 FE 67 70 C0 F7 0F A0 F0 0F 87 47 74 3D 1D C4 F1 0F 58 2D 5C 3F E0
DPCM : 83 F9 11 63 31 FE 83 29 78 FC 09 0E E3 0F E2 87 2D E1 3D 84 E7 61 1D 56 F8 D4 D1 32 BC 39 54 AA
DPCM : 47 55 07 3E 8E F6 C0 45 77 B8 94 D2 2B D5 54 55 55 1E 65 7C E0 63 55 95 1E 15 5D D5 0A FA 45 B6
DPCM : 54 D9 51 2E 95 47 65 8B 36 D9 64 A9 53 35 71 D5 E4 4A 55 55 55 55 56 55 55 A5 55 55 55 59 55 55
DPCM : 55 55 2D 55 55 55 55 55 55 55 55 55 55 55 55 55 55 55 55 55 55 55 55 55 55 55 55 55 55 55 55 55
DPCM : 55 55 55 55 55 55 55 55 55 55 55 55 55 55 55 55 55 55 55 55 55 55 55 55 55 55 55 55 55 55 55 55
DPCM : 55 55 55 55 55 55 55 55 55 55 55 55 55 55 55 55 55 55 55 55 55 D5 96 55 55 55 55 55 55 55 55 55
DPCM : 55
DPCMDEF  19  3521 "andexcitement"
DPCM : FF C0 0F F8 03 F0 1F F0 01 3F F0 85 6B 3C C4 07 FC C0 3F E0 95 0F F8 3C 06 3F F0 07 FC 01 DE 03
DPCM : FF 00 2F 7C 07 74 8F C1 63 0F DC C3 F0 38 0F C5 E5 07 7E 80 CF 31 71 1E 1E C6 E3 51 7A 14 CF 83
DPCM : F5 38 18 E7 E1 3C 18 87 1F C3 3B E0 1F 80 FF FE 00 8C FF 01 80 FF 0F 40 F8 7F 00 87 FB 87 60 F0
DPCM : 3F 04 E0 FF 00 FF F9 01 78 3E 02 E0 E7 71 30 7F 06 83 FF 01 84 FF 07 C0 FF 10 0E FF 00 3F FC 03
DPCM : 3C 8F 41 F8 CF 23 90 FF 01 80 FF 00 DE 7F 00 FE 07 03 FF 31 80 CF 63 70 7E 06 E0 7F 06 F2 3F 83
DPCM : E1 3F 00 FC E3 01 FC 03 7C CE 07 E4 73 0C E6 73 18 9E E3 78 0C BC 8F 03 98 CF C1 F0 7F 00 FC C7
DPCM : 20 FC 8F C1 F8 1F C0 F9 1C 80 FF 03 E0 7F C0 F0 1F 70 1E 87 C3 7F C0 E3 01 F8 F9 30 9C 8F E0 3E
DPCM : 87 E1 7C 0E E0 9F 07 E0 8F E1 90 FF 41 F8 3C 0C C3 3F 10 7F 04 07 FF 01 DC C7 03 F4 E3 70 1F 18
DPCM : CE EF C0 1F 8C 83 F9 00 FE B8 03 FC 07 C7 F3 01 DC C7 60 F8 1F 80 3F 0F C0 FF 30 38 3E 83 7F 18
DPCM : 83 FF 00 CE 37 30 86 EF E0 78 1C 07 F8 3D 00 F8 3F 08 DF 33 30 CF 03 F8 9F C1 7D 9C C0 FC 18 8E
DPCM : E7 00 FC 0F E0 7F 0E E0 1F 86 E3 61 E0 FB 01 F8 1C 0E F1 0F DC E7 61 70 3E 80 CF F1 18 8E E7 78
DPCM : 80 FF 30 0C EF 23 38 3F 03 C3 7F 00 E7 73 18 CE F3 10 9C 7F 00 EC 7F 00 FE 01 0F FE 03 F8 DF 03
DPCM : F0 3E 06 E3 63 30 FC 07 70 7C 07 F3 1F 02 FF 00 FC 1F 06 FC 0F 80 FF 03 81 FF 01 F8 3F 00 FE 0F
DPCM : C0 FC 07 C0 FD 08 C0 FF 0C DC 3F 00 FF 1F 80 FB 03 E0 FF 01 90 FF 00 BE C3 B0 FF 00 FC 3F 00 FE
DPCM : E3 00 F8 47 70 8C FF 00 FE 41 79 DC 81 FE 3E 00 3F 42 78 1F E0 71 55 44 FE 07 F0 F5 1F 80 FC CF
DPCM : 00 F8 7F 00 F8 7F 00 90 FF 00 DE FD 01 9C F3 75 08 FC 3F 00 F8 7F 00 C2 FF 00 FC FB 00 F0 1F F8
DPCM : 03 7E 80 1F E0 0F 1F 83 F9 0C 07 F3 01 9E 7F 18 F0 77 18 3F 8E 07 F8 39 07 F1 7C 00 F8 1F 08 FE
DPCM : 8F 60 FC 07 E1 FC 03 F8 07 E0 FF 00 1C FE 01 FE C7 03 B8 CF 20 FC 3F 02 F3 39 8C F7 00 9C 8F 81
DPCM : F1 0F C1 F9 18 C6 7C 0C CE 9F 81 FB 11 E0 F9 18 1C CF 01 F7 3D 80 F7 70 1C 8F F1 3C C0 3F 86 F1
DPCM : 39 0C FF 01 9C E7 C0 7F 1C 80 FF 00 C7 E3 70 9E 07 70 1F C3 39 9E C1 7F 0C CC E3 18 EE 33 88 E7
DPCM : 01 F8 1F 01 FF 70 1C E3 21 BC 0F E4 67 F0 F0 1F 60 7C 06 9D 5F 00 FE C7 01 FE 81 EF 07 18 DE 61
DPCM : D8 0F 38 1F F0 38 1E C7 79 1C C6 73 8C C3 78 0F F0 3F 82 E3 3D 80 FB 00 CE F3 18 F8 07 70 3F C0
DPCM : FF 0E 80 FF 01 1E F8 7C 80 FF 08 C6 33 1E C3 F1 C1 F1 3C 1C E1 1F C0 F7 80 1F FE 00 FC 07 F8 1F
DPCM : E0 43 FC 00 FF 60 3C E0 F3 80 1F 83 7E 1C E7 E1 78 0F E6 30 1C C7 63 F0 0F E0 77 70 1F E0 3D 38
DPCM : 9E 07 C7 39 C0 F3 01 BE F1 1D F0 3F 40 F0 0F 43 7C C3 F1 E0 1F C0 6F 78 88 8F C3 F7 00 78 7F 90
DPCM : C7 83 0F 3C C2 E3 1D C2 7F 30 3E C0 FF 01 F3 39 18 1F C1 79 80 CF 3B 1C B7 C0 81 3F C0 FB 20 FE
DPCM : 03 FE 03 F8 07 F0 07 5F 18 3C 8F C1 7F 18 9E E1 3C 80 3F E0 7D 0C E6 03 FC 1F 84 77 30 1F 83 F3
DPCM : 31 F8 07 F8 0F C0 5F E0 3F 20 BE 03 7C 06 FF 01 FE 03 FC 01 F0 3F 98 07 FC 21 F8 07 FC 0F E0 F9
DPCM : 00 FF 01 7C 0C FE 03 F0 1F F0 4F 70 1E C1 FB 08 E6 07 FC 07 F0 0F D0 1F E0 3F 80 FF 02 EE 03 3A
DPCM : 6F E0 0F F0 2F 70 1D FC 50 5C 8F A4 7B C0 2F 08 7F C0 57 41 5F C5 5C 4B EC D1 1C CD 43 B9 51 AB
DPCM : 54 79 4C 78 8D E4 73 30 5E 96 CA 25 B7 70 BC 0F 80 FF 03 30 FC 7F 00 FC 3F 00 F7 07 E0 FE 03 C0
DPCM : FF 00 FC 1F C0 FD 0E C0 DF 81 F0 3F 00 FC 8F E0 78 38 1C 1F 86 C7 E1 F0 3C 86 3F 1E C3 F1 38 08
DPCM : 9F 07 C6 E3 1F 84 C7 C3 E0 7F 18 8E 7F 80 F3 7C 00 8E 8F C1 F3 61 3C 1E C3 E3 E1 F0 38 8E E3 79
DPCM : 1C C6 43 F0 7B 70 0E 8F E3 71 38 1E 86 E3 0F C3 E1 71 38 87 73 C0 F3 38 3C 8E C7 71 3C CE 61 70
DPCM : 3C 8E C3 79 F8 F0 C0 71 3C 1E 0E C7 E3 F1 F0 70 38 0E 0F CF C1 C3 E1 38 1E C7 71 3C 4E 78 7C 1C
DPCM : 8F E3 C1 F1 78 1C 0F 87 F0 3C 8C C7 71 88 C7 F3 70 1E 0F C0 C7 E3 78 C6 E1 F0 38 0E CF 33 C0 C7
DPCM : 39 78 9E C1 38 1E C3 F1 1C 8F F7 E0 21 8E 63 3C 1C 87 3F 8E C3 F1 60 F8 71 38 1E 1E 87 C7 C3 E1
DPCM : F0 38 3C 3C 8E 87 87 E3 F0 C3 31 3C 1E 3C 0E C7 E1 03 CF F0 78 1C 87 1F 8E E1 71 1C 8F F1 38 0F
DPCM : 67 78 0C C7 27 F8 78 0F 8E C7 C1 E1 71 78 3C 1C 0E 8F 87 E3 61 78 3C 3C 9C C3 F1 0F 7E F0 18 1E
DPCM : C3 F0 82 E7 78 00 FF 01 FC 0F 1C BC 87 E3 F1 F0 38 3C 1C 8F E1 71 00 FF 3C C0 3F 02 FF 07 C1 F3
DPCM : 30 BC 0F 8E C3 31 1E C0 79 9E 07 EF F0 00 FF 21 7C 1C 1C 8F E1 E3 38 9C 87 11 CF C3 E1 78 08 8F
DPCM : E3 F9 70 F0 38 0E 8F 1F E0 43 7F E0 F3 70 1C 8E C3 F1 70 3C 86 67 F8 07 FC C1 1E F0 F0 18 1E 8F
DPCM : C7 E3 61 38 FC 03 F8 1F 0E CF C3 61 7C C0 63 E4 39 3C 0E C7 E1 38 0E BF C1 0F CE 83 F1 70 1C 1E
DPCM : 8E 87 83 F3 F0 F0 38 3C 0F 8F 87 E3 78 18 F8 CA 03 9C 77 18 0F FE C1 07 8C 63 BC 85 8F E3 78 1E
DPCM : E3 71 C0 DC E3 38 8E 43 1E E1 38 3E C0 1F F0 1F E2 83 67 3C C6 79 38 8E 0F E3 E1 3C C6 31 3C 0F
DPCM : 0F E1 1F 8E C3 7D 30 C4 F1 18 DE 63 F0 18 1E E3 0F E6 83 87 73 38 8E E3 38 0E E7 C3 1E F0 07 F8
DPCM : 38 1E 8E 07 7F 18 8F C3 71 78 38 1E E3 3C 0C 8F E1 C3 3C 1C E7 38 0E 9F E1 CF 70 18 8E E3 C0 C7
DPCM : F1 E0 71 1C C7 39 9E 63 88 7F 70 07 3E B8 0F 1C 87 E3 71 3C 14 67 78 F0 0F 0F 7C C6 0F C0 C7 F1
DPCM : 80 9F F1 71 F0 1C 3C 0E 0F C7 E3 71 E0 71 1C 1E 78 1E C7 71 9C E3 C1 F1 38 3C 1C 0F C7 D9 E3 78
DPCM : 38 0E 1F C7 E3 38 86 F1 1C 1C C7 E1 38 C6 71 3C 8E 67 1C 67 18 1F C3 F1 38 0E 77 1C 87 E3 F0 71
DPCM : 78 0C E7 70 1E C7 71 3C E2 38 7C 0C 67 CC 83 F1 01 DF 78 1C 8E C7 E3 71 E0 79 1C 86 3F 8C C7 F0
DPCM : 83 E3 71 1C 8C C7 C3 C1 FF 30 0C 7E 1C 86 E3 3C 07 F0 DF 07 18 EE 71 78 0C C7 FB 00 C0 3F 1F C1
DPCM : 71 FC 1C 08 FF 67 40 F8 EF 00 78 1E 8F C0 7F C6 E0 38 8F 63 F0 DF 00 1E DC 87 C3 E1 F9 18 9C C3
DPCM : 79 F8 01 7E 3C 03 27 9C C7 73 78 80 0F DF C1 E1 3C 87 C0 F9 0F E0 E1 FF 00 F8 1F 07 C1 FF C0 E0
DPCM : 7D 00 C3 3F 87 F1 38 CF 01 71 3E 8E E1 70 FF 20 06 FF 38 82 C7 F8 06 F8 8F 07 70 FC F1 18 0E E3
DPCM : 79 0C C3 3D 8F 60 BC C7 63 18 EF 79 00 FC 8F 03 80 F3 3C 86 79 CF 63 18 DE 87 03 E0 3F 7C E0 71
DPCM : 3C CE 03 1C CF 27 80 F3 3F C0 F8 CF 31 0C E7 3D C0 71 1E 67 80 FF 1C 03 F8 C7 11 8E E7 0F 81 78
DPCM : 3C 07 EE 1F 80 CF F0 E0 7D 00 3E C7 61 1F C7 E1 F9 10 1C FF 07 E0 FC 0F 20 78 9E 03 F8 7F 00 C7
DPCM : FF 41 E0 3F 0E 81 FF 03 70 F8 C7 08 FC F1 00 EE 63 38 CF 43 F0 1F E8 01 FF 71 38 07 F0 3F 80 C7
DPCM : F1 01 FE 3B 78 86 C3 03 F8 81 3F 78 0F C1 7F 00 FC 8F 0F E0 67 30 3C 87 F1 9E 63 70 1E 07 F8 1F
DPCM : 80 FF 00 FD 80 7F 70 C8 8F 01 FF 00 E7 03 FE 07 F0 37 38 9F C3 F8 04 F8 81 3F 90 F3 01 FE 4F E0
DPCM : 1F 1C F8 07 E3 39 CC 43 F8 0F 90 3F C0 FF 07 F8 38 C0 C7 00 FE 01 FF 03 F8 47 70 3E C0 7F 84 FF
DPCM : 30 C0 1F E0 0F F0 1F 83 7C 06 EF 07 F8 07 F0 3F C0 F3 01 FC 83 15 FE 01 7C 0F E2 79 C0 3F D8 C3
DPCM : 30 3E C2 27 FC 81 3F F0 07 E4 0F F8 5C 01 FF 10 BC 87 71 7C 02 7F 05 F8 17 B8 87 33 3C C5 47 DC
DPCM : 03 FC 81 7F A0 1F E0 23 3F E0 07 DD E8 34 1C CF F0 0C 4F 53 F0 0F F0 07 7C 47 A5 DC 03 5D 47 F8
DPCM : 0A 77 70 1D 1E D6 C1 F3 C0 7E 50 1D 4E 83 6F 88 8F E3 58 4E 65 55 79 1C C6 47 71 2D DA A2 76 84
DPCM : CF D4 C2 3D 54 6D 94 CD 05 FE 01 BE 03 F3 61 76 B0 3E D0 4B DC C2 75 58 47 65 B5 42 3F 84 DF A0
DPCM : 7A 14 77 A1 9E C2 35 4D E5 54 9E C2 6D B0 9D 64 B5 54 4D D5 46 D5 52 35 55 55 55 55 4D E3 54 55
DPCM : 65 79 0C 57 53 53 65 73 58 4D 55 55 55 55 55 55 55 55 59 55 65 55 65 59 55 A5 55 55 59 55 55 55
DPCM : 55 55 65 55 59 55 55 55 55 55 55 35 55 55 55 96 55 65 5C 55 55 55 55 55 AA 55 95 55 35 A5 55 55
DPCM : 59 55 55 35 A5 55 55 65 55 55 55 69 55 36 25 5D 53 59 A9 55 25 57 A5 55 71 55 56 55 A9 4B 5A 65
DPCM : 53 69 35 69 A9 1B 1C 57 53 55 65 55 55 55 99 56 13 5B 53 69 D9 54 5C 56 13 67 55 35 59 96 AD 82
DPCM : 67 B9 52 E1 D5 31 AC 55 3D 84 F7 10 97 D5 51 16 97 D3 18 C7 E3 38 F4 43 3C 3C 16 8F 47 E4 63 1E
DPCM : F1 18 0F E7 63 B0 3C 1E 45 A7 0F C3 F1 8E 30 F6 3E 80 E7 C1 7C 78 0E EC 07 3E C4 83 7F F0 01 3E
DPCM : CC F3 01 3C DE 87 07 F0 30 1F 8F E1 38 CF 63 38 8C E7 31 3C E0 8F C7 00 FE E1 31 38 9F 87 E0 F9
DPCM : 1F 80 0F F8 13 FC E0 3D 3C C2 C0 FF 01 38 9F 07 80 FF 63 10 FE 1F 00 FE 3F 00 FC F3 10 F8 1F 78
DPCM : 08 DE 07 8E C3 FB 0D C1 79 3C 00 FE 47 00 FE 07 F0 FF 0D 80 FF 00 B8 FF 01 F0 FF 01 F0 1F 00 F6
DPCM : 7F 00 FC 1F 00 FF 07 C0 FF 00 6C 7E 06 F7 70 1C 87 E3 38 8E E3 03 F0 FC 07 C1 FB 31 18 FF 01 F0
DPCM : 7F 00 FC 0F 00 FE 07 C0 FF 11 CC FF 01 FC 38 10 FF 03 F0 1F 83 E0 7F C0 30 FF 03 F0 1E 06 C7 F3
DPCM : 30 9C EF 01 F0 BF 00 F8 9F 03 F8 FE 00 F8 7E 01 F0 FF 00 F8 1F 0F E0 3F 04 EE 43 E0 FB 10 9E 7F
DPCM : 00 FE 07 C0 FE 07 80 FE 0F E0 1F 0F 80 FF 21 78 3F 00 9F E3 31 FC 0F 00 FF 1F 00 FF 1C 00 FF 07
DPCM : 80 FF 13 C0 FF 01 C0 FF 01 CE 7F 08 CE F3 18 8E C3 F1 09 E0 FF 01 F0 FF 01 F0 3F 00 FC 3F 00 FE
DPCM : 0F 00 FF 43 F8 2E C0 3F 06 E0 FF 01 F0 7F 06 F0 7B 01 FC 0F 60 F9 17 84 DB 36 E0 B5 34 A5 55 BA
DPCM : 1A 45 E7 63 58 6C 1F 88 D7 1B 80 FF 13 80 FF 07 20 FD 1F 80 5D BD 50 56 55 4B 55 D5 2A 55 55 4B
DPCM : 71 35 1D 85 D7 74 14 BE A5 54 9C C7 54 95 D5 58 CD A2 55 B5 92 EA 72 1C 15 B7 C5 A2 DC 96 44 5B
DPCM : E7 10 5E D3 2C 56 53 B5 54 35 2E 93 63 B9 12 77 38 8E E5 38 1E 63 35 4D C5 D5 2A 65 39 4D 87 E5
DPCM : 54 35 A9 0D 4F 63 71 59 47 69 1E 4E C3 79 94 D3 38 0E E7 31 5C 33 1C 8F D3 70 55 55 35 4E 63 39
DPCM : 96 8D 73 14 D7 51 B1 1E C5 35 95 53 71 39 0E 57 55 A5 56 4B 72 4D 71 1C 8F E3 51 AE C1 5E E1 70
DPCM : 3C 87 63 99 C3 E3 38 8E 63 39 8E 65 4D 65 39 0D 8F E3 31 9C E3 38 C6 73 18 8F 65 D5 70 39 2E 55
DPCM : 95 55 95 55 F1 38 4D C5 59 1D C5 59 56 63 3C 1E 47 71 53 55 4B E5 51 1D 59 8B D6 64 B5 D4 34 4E
DPCM : 55 63 D5 34 8E 47 E1 13 1F 7C 09 C7 C7 01 E7 63 78 3C 87 F8 07 9C 0F C7 E1 71 38 1E 8C C7 E1 3F
DPCM : 30 8F E1 E1 78 78 3C 8C 05 9F E0 7F 00 9F E1 1C F3 38 0F E7 71 38 0E 07 FB C3 61 3C 8E C3 71 38
DPCM : 1E C7 63 B8 E1 78 1C 9E 87 E3 71 78 18 0E 8F C3 F3 70 1C 7C 0C 8F F9 07 88 C7 11 F1 73 38 FE 1D
DPCM : 70 1E 07 8E 87 C3 E3 E1 E1 F0 70 78 3C 1C 8F C7 E1 E1 70 38 0F E0 F3 3C 78 1E 0F C3 E3 70 78 1C
DPCM : 1E 8F 83 E7 01 FF 83 C3 F1 70 3C 1C 87 1F 0C 8E C7 81 FB C1 F8 78 20 3C 8E 3F 8E 0F E3 38 1C 5F
DPCM : 18 7C 0E 9F 07 87 E3 E1 61 7F 30 7E 38 0C 8E 0F 8C C7 E1 79 18 0F F8 07 FE 00 9E 8F 07 F7 E1 39
DPCM : 38 1C F8 0F 8C CF 80 1F 0F C0 F7 03 F0 FF C0 F0 3F 00 FF 01 F0 1F 1C CC 47 F0 1E 47 38 BF 03 CE
DPCM : 87 E1 E1 F8 00 FE 00 FE 7B 18 F8 0F F4 81 33 38 1E 87 E3 F1 38 1C CF C3 70 3E 82 FF 31 C0 F7 18
DPCM : 8C 1F 01 FE 07 C0 FF 18 F0 3F 04 F7 0F 80 FF 00 FC 3F 08 CE C3 70 3E 04 DF C3 E1 79 08 3E C5 C7
DPCM : F0 39 8C 87 E1 F1 23 38 1F E0 87 6F 60 FE 00 FE C3 C1 F1 31 B8 1F 60 9E 0F 70 FC 07 C6 C7 61 F8
DPCM : 0E C1 FF 60 78 3C 84 F7 21 78 1E 07 F3 37 00 FF 01 7E F2 21 F8 0F E0 8F 31 F8 0F 80 FF 03 F0 79
DPCM : 0E C6 47 71 F8 0E C4 6F E0 7C 0C 1E DF C1 F0 35 88 1F E3 F0 16 3C 1E 87 E3 F4 20 3E 0F C6 67 30
DPCM : BE 07 C2 F7 30 78 1F 10 3F 53 E1 F5 10 7C 0F E1 DA 07 C6 F5 41 F8 4A C5 D9 86 78 2D 5A 55 4D B1
DPCM : 1D 96 95 E5 C1 F1 38 5A 2E A6 55 55 15 4F C5 65 D9 58 5A 55 95 56 55 65 55 55 55 55 5A 4D 69 5A
DPCM : 8D 07 5D 8B E5 70 8E 55 55 5C 65 19 9E 87 71 59 4D 59 5C 55 55 56 55 55 A5 65 55 9A 56 95 55 56
DPCM : 65 55 55 96 56 55 69 55 55 65 55 55 55 95 55 95 65 55 55 55 55 55 55 55 55 55 A9 55 C5 59 55 55
DPCM : 59 55 13 57 55 95 65 55 55 55 71 59 55 96 56 D3 70 59 55 55 4E C7 61 36 4B 55 56 53 65 D9 34 95
DPCM : CD 62 55 55 55 55 55 55 55 55 55 55 55 55 55 55 55 55 55 55 55 55 55 55 55 55 55 55 55 55 55 55
DPCM : 55 55 55 55 55 55 55 55 55 55 55 55 55 55 55 55 55 55 55 55 55 55 55 55 55 55 55 55 55 55 55 55
DPCM : 55 55 55 55 55 55 55 55 55 55 55 55 55 55 55 55 55 B5 25 55 55 55 55 55 55 55 55 55 55 55 55 55
DPCM : 55
DPCMDEF  20  4081 "12"
DPCM : 2D D6 54 4D 55 55 D3 54 D5 16 55 B5 CA 32 D5 52 AB 54 27 55 55 53 55 53 D5 52 6B 68 73 54 35 4D
DPCM : 33 D6 49 D5 54 53 35 55 55 55 2D 56 93 35 55 4B D5 51 D5 54 35 55 75 54 56 47 55 C5 55 55 71 4D
DPCM : D5 64 36 55 0F F4 D4 94 E6 F0 0C 7E C4 3D C0 3F C0 0F 77 84 57 78 47 71 C6 3D C4 E9 54 19 E7 43
DPCM : F8 51 4D F8 C1 7C 18 3E 83 8F 79 84 4F E1 0F 61 BE 01 F7 01 DE 77 30 BC 01 3F 0E E3 F9 00 FE C1
DPCM : 3F F8 07 03 F0 3F F0 07 60 7E 04 EF 01 7E C6 03 FC 0F E0 E3 81 FF C0 71 1E DC 3F 00 3F C0 07 8E
DPCM : FF 81 F8 0C FC 07 F8 11 1E 87 F1 0F E0 1F FC 30 0F FC 78 06 FE 07 F8 03 C1 F9 01 BC FD 80 FF 00
DPCM : 9E 87 F3 80 3F F0 00 FE 71 1C 86 F7 01 FC E0 3D 1E 80 EF 83 E1 71 7C 1F C0 F1 1F F0 01 7E E1 0F
DPCM : C6 C3 78 38 07 F8 07 7F E0 3F 70 80 0F FE C1 0F F0 11 9E 73 1C C7 E1 78 8C 63 F8 C8 27 78 0F E7
DPCM : 70 0E C7 F1 18 FC 03 3E 0C 8F 87 E3 71 1C 87 E1 63 78 B8 0F FC 00 EF 09 0F F0 23 FE C1 3D C4 63
DPCM : 3C 86 C7 F0 01 3F F8 F0 F8 0D 3C C6 73 38 07 FE 01 1F F8 07 CF E0 39 3C 84 3F C0 0F FC 87 73 70
DPCM : 07 BE E0 07 E7 C1 1F F0 01 1E C6 07 FE C1 73 F8 41 3E E0 71 7C 80 3F BC 01 3E E4 07 9F 87 77 C0
DPCM : 0F 78 86 0F E3 F0 07 7F E0 83 7C C0 3F 3C 06 7F F0 F0 0C FE 03 07 E1 C1 7F A0 83 7F F0 30 3C 86
DPCM : C7 81 FF 01 F8 8F 07 F8 41 3E 8C 83 FF E0 38 3C C6 1F 8C E3 07 F9 C0 23 F8 70 3E E0 83 7D F0 07
DPCM : 7C 1C 7F 00 8F C7 79 C0 3B 7C 38 1E C1 C3 3F F0 0C 3E 87 1F 84 F3 61 7C 70 0C 1F FC 07 F1 E0 1F
DPCM : 7C 03 1F E0 07 F0 81 E7 3D 3C C2 07 F3 61 3E DC 03 9E C1 0F FC 03 FC 21 8E 87 0F F8 C1 7F E0 00
DPCM : FE 83 07 7E 3C 8E 61 1E C6 E3 F1 01 7C B8 8F E3 A0 1F F0 20 FE 07 1F F8 87 03 F8 F0 01 1E FE 07
DPCM : 38 F8 CF 10 8F FB 00 0E EF E1 70 3E 3E 80 87 FF 01 0F 7C 1E 87 C3 7F 60 30 FF 01 F0 3F 0E 40 E4
DPCM : 3F 83 E3 FC 06 F0 E0 1F 78 90 FF 80 C3 7E 0F E0 F0 1F E0 F0 1F 03 7C E0 47 78 18 3F C4 7C CF 83
DPCM : 41 FC 8F 00 F0 FF 01 FE F0 0C BE E0 3F 80 83 BF C3 03 7C CF 41 F8 1E 06 F3 F0 1F 1E 00 FF 38 00
DPCM : FF 07 E0 E7 71 10 3F E0 19 9E F1 1C FE 01 E7 F1 80 1F 9C 83 FC 08 8E FF 00 87 E7 E3 38 DC 87 61
DPCM : F8 07 E0 F3 11 F8 07 78 FC 07 7C F8 07 7C FC 03 70 CF 07 10 FE 63 10 9E 77 60 0F 7E 00 1F E0 F1
DPCM : 1F 00 FF 0F 83 FF 20 0C FF 03 06 FE E3 00 FC E3 31 F8 30 0F EE 71 38 0F C7 E0 9F C3 E0 3E 0C 86
DPCM : FF C0 87 71 70 7C 1E 80 7F 3E 00 FE 07 00 FF 07 86 FF 03 70 FE 11 0C FF 07 C0 F3 3C 82 F7 18 8E
DPCM : F9 00 DE E3 01 FC 3F 00 F8 1F 82 C3 7F 90 87 F9 3C 84 F7 18 C6 7F 00 9E 3F 02 FC C3 38 80 FF F0
DPCM : 07 FE 01 3C FC 07 E6 83 39 F0 07 03 FF C1 80 FF 83 F1 F8 40 F8 0E 07 F8 0E CE F3 01 FE 07 80 E7
DPCM : 71 0C 7E 80 FF 1F E0 3F 86 41 3E 04 FF 98 83 FB 18 8C FF 01 FC C3 11 F0 0F 00 CE FF C0 FF 61 30
DPCM : 3E 07 C0 9F 03 F0 F3 20 FC E3 70 78 1F 00 FC 1F C0 FF 1C C0 3F 0C C6 3F C2 C1 1F E0 F1 8F E0 1E
DPCM : DE 03 40 FF 07 E4 F9 08 DC 8F 84 61 7E E0 E7 37 00 3F 07 F2 3B 00 FF C3 41 FC 19 6E C0 6F 18 F8
DPCM : 27 90 F1 3F 80 DF 07 80 FF 11 F0 3E 0F F2 1C 0F 75 C0 0F DE C3 F0 70 1C 0F E3 53 78 3C 1F C0 3F
DPCM : E0 1F 84 F7 21 1C DE 43 78 1E 07 E3 03 FC 1F 9C 07 C7 C1 C7 E0 3D 98 0F F0 0F CE C1 1F DC 07 F0
DPCM : C1 3C 3C 8E 07 FC C3 E3 60 FC 00 FF 80 CF E0 07 FE 01 FC 82 77 F0 01 FE 03 1E FE 03 F8 07 F8 80
DPCM : 3F F0 0F E0 0F F8 07 7E C0 1F C0 1F FC 03 FF 00 3F 80 3F F0 0F F8 03 FE 01 3E E0 07 F8 07 FE 03
DPCM : 3F E0 0F E0 0F FC 03 FE E0 0F 80 FF 60 3E E0 C3 F8 30 F8 1D DC 83 0F 78 1C 1E E3 61 FC 80 1F FE
DPCM : 00 FE 80 FF 03 7E C0 3F E0 07 78 0F FC 01 7E 80 3F E0 0F F8 07 FC 07 FC 01 FC 80 3F E0 0F FC 07
DPCM : F8 11 FE 01 3F 94 0F F1 01 9F 87 7F E0 70 78 03 EF 81 0F FC 03 FC 80 3F E0 1F F8 07 FC 03 F0 0F
DPCM : FC 00 7F 80 7F 80 7F E0 0F FC 07 FC 01 7E C0 3F E0 07 FC 06 FC 81 F9 01 FE 60 9C F0 0F 8E 03 FE
DPCM : E0 C1 3F 80 7F 70 7A C0 1F F8 07 F8 03 FC 80 FF 01 3F E0 7B C0 07 3E 1E F8 41 F5 C1 0F F0 3F C0
DPCM : 0F 7C D0 E1 07 7E 30 F8 01 FF 02 FC 0B F8 03 1F 0F 7E C0 F3 01 3F C0 3F F0 71 C0 1F F8 83 E1 0F
DPCM : F0 E3 81 0F 7E F0 E0 03 7F 04 7E F0 D3 80 3F F8 0F C0 0F FE 03 FC 03 F8 03 FF 00 FE 01 FE 80 FB
DPCM : 80 3F 18 7E 80 3F C0 3F 18 7F E0 0F E8 1F F0 07 85 0F DE 03 FE C0 E1 03 1F BC 7D C0 FB 80 1F 80
DPCM : 7F E0 43 F0 3F E0 3F E0 03 F0 1F F8 07 F0 07 F0 0F FC 09 F8 03 FF 03 FC 01 F8 03 FF 03 7E 00 FF
DPCM : 01 3F 00 FF 80 7F E0 1F C0 3F 80 3F E0 0F FC 0F F8 C0 E1 07 3F C0 3F E0 1F C0 4F F8 1E E0 07 FC
DPCM : 39 F0 03 F8 07 FC C1 F8 07 FC 18 7C 04 9F 07 BE 07 FC 01 F7 03 FC 01 FC 03 7E E0 7D 00 FF 60 1F
DPCM : 84 5F 98 0F E6 0D F8 C1 55 15 FE 00 BF 81 4F 4D B5 E0 47 36 1E F8 51 5A 07 4F 55 D9 03 37 35 5D
DPCM : D0 AB 92 76 94 47 B5 1C 5A 47 65 1B 55 4B BA 51 55 2B BA 54 D5 92 2D 53 B5 52 D5 52 2D 55 B5 54
DPCM : 35 55 1D B5 4A 6D 49 AB 16 2D 47 AB D1 CA AA AA 54 6D 4A 4B B3 AA 4C 97 34 2D D5 D2 52 AB 54 D3
DPCM : D2 2A B5 AC AC 2C 2D 4D 27 2B CB CA AA 4C AB B2 AA AA AA CA AA AC AA AA AA A6 AA AA A6 AA C5 A9
DPCM : AA 56 A9 6A 99 9A 96 66 71 9C 96 4A 4F 15 B5 4B D1 71 5A AA 5A 25 73 59 AC 96 6A 9A AA A5 AA AA
DPCM : AA AA A9 A9 9A AA AA 59 9A A5 65 69 AA A9 AA A6 AA AA 6A AA 9A AA AA CA 6A AC 9A CA 9A AA AA AA
DPCM : AA B2 AA B2 AA B2 2C AD 2A B5 AA AA 4C AD 4A D5 4A D5 2A 55 2D B5 52 AD D2 2A 53 B5 52 55 D5 54
DPCM : 55 2D 55 55 55 55 55 55 55 55 55 55 55 55 55 55 55 55 55 55 55 55 55 55 55 55 55 55 55 55 55 55
DPCM : 55 55 55 55 55 55 55 55 55 55 55 55 69 55 55 56 56 95 56 55 69 65 55 55 6A 59 A5 16 57 A9 A5 95
DPCM : A5 5A 69 6A 95 95 9C 55 A5 56 65 65 65 59 74 55 AA A5 96 9A AA 96 95 56 D1 55 49 57 56 A5 AC 55
DPCM : A9 C5 AA 56 74 59 95 95 65 55 AA 9A 55 69 95 AC 55 85 D5 AD 04 6F 55 15 DD 12 57 A5 CA 36 95 C5
DPCM : 55 35 69 55 6C 55 45 76 E9 52 2E 51 57 4B 51 57 0F FC 81 3F 70 80 FF 01 3C FC 3D 00 FE 1F E0 EB
DPCM : 03 F0 81 FF 00 FC F1 07 C0 F7 07 E0 3F 00 FC 3F 80 7F 40 FE 0C F8 03 8C FF 00 3F D6 03 1F F0 07
DPCM : F8 87 07 F8 EF 80 7B 1E 70 EC 07 1C E6 07 F0 0F 1F 08 FE 03 CC 0F C7 F0 A3 F0 3B 78 70 0F 7C 5C
DPCM : F0 07 FE 00 FC 83 07 7E F0 C1 87 3E F8 F0 00 FC 1F 84 FC 83 F3 C1 05 F8 53 85 3F 1F C0 7F 00 DE
DPCM : 0F E0 47 F8 07 FC 07 80 FF 07 E0 FF 00 F0 1F F0 81 FF 80 83 7F C0 5B 45 1C FC 07 7C F4 80 7F 00
DPCM : FF 50 0F BC C2 0F F0 0F F8 61 1F E0 0F 9C AF 03 F8 07 78 FF 00 7C 82 73 B6 01 FF C0 8F 3A E0 07
DPCM : 8E 7D DC 00 3F F8 81 B7 44 57 F0 1F A0 DF 03 E0 3F 18 E6 0F 4E D9 13 D8 47 7C A0 CF F0 1C E6 83
DPCM : 7C 94 83 E7 71 F0 31 F1 19 E4 1D 07 DD 71 82 7F 18 C3 F1 18 7C 1D 0F E2 37 1C C3 3B 38 8C 8F 47
DPCM : F8 07 C7 F1 C0 71 78 0E 1F EC 83 7E 18 8E C3 79 F8 E0 3C 3C 86 31 1F 43 FC 87 C3 70 3C 86 E9 27
DPCM : 1E C1 F3 3C 86 E1 33 3C 7C C2 07 7E E0 C3 3C FC C1 61 3C 1F C0 87 CF 70 F8 0E 03 EF C3 23 78 CE
DPCM : 07 70 FE 81 80 FF 63 00 BF 0F 60 DF 0F 30 BC 1F 07 E3 E1 18 3E 3E 84 8F 0F 80 FF 73 00 FE 3D 00
DPCM : FC CF 01 F8 7F 00 F8 FF 00 F8 FF 00 98 FF 01 38 C7 03 F0 3F 03 C0 FF 01 FC FF 01 D0 7F 00 C0 FF
DPCM : 03 E0 FF 03 80 FF 03 08 FF 47 E0 FC 1F C0 8F 0F C0 7F C0 18 FE 07 18 FE 07 C0 FF 41 70 1E 0F F0
DPCM : FF 01 F8 98 1F 00 FE C7 60 FC 0F 60 FF 00 E0 3F C7 31 FC 07 F0 1C 47 78 C7 31 F0 0D FF 80 7D 8C
DPCM : 81 7F 00 3F FC 07 F0 91 0F F0 0F 0E F3 03 F1 1F 30 9F 03 F0 9F 03 FC 01 7F F0 07 F8 43 F8 80 7F
DPCM : F0 06 FF 03 C0 7F 80 87 FF 00 FF 80 31 FC 07 F0 FF 00 37 F8 07 F8 10 3F 82 7F B0 0F F0 F1 80 3F
DPCM : F8 00 3F C0 C7 87 FF E0 0F 78 00 FF 18 CE C3 31 F8 07 1C 3E BF 03 7F C0 07 F8 0E C2 1F F8 81 1F
DPCM : 38 CE C1 3F F0 03 3E E0 77 1C C6 F1 01 FC 11 F0 1D DE C3 7F C0 03 1C 3E F0 0F E7 E0 3C 1C 12 FF
DPCM : 1F C0 03 3F E0 7F 00 3F E0 03 FC D0 57 0F F6 03 7F E0 03 7C 3E 80 0F FF C0 11 3C FC 81 3F C0 73
DPCM : FE 01 F8 1F 83 E1 3F E0 00 3F 7E A0 1F 83 F1 F8 03 F8 F1 1E 04 FF 01 80 FF 71 00 FE 03 BC 8F 47
DPCM : F0 8F C7 30 FC 03 18 DE C7 01 FE 67 C0 7D 3C 00 FF 7C 04 C3 7C 80 C3 3F 1E C1 FF 08 E0 1F 0F E0
DPCM : 9F C7 70 38 8F 30 BC C7 23 F8 9F 00 FC C7 01 98 CF 73 38 C6 03 1C FE E3 00 FF F1 00 FE C3 03 F0
DPCM : FF 21 18 E6 23 1C CE F3 00 FE F1 18 BC 0F C7 E0 9F 50 78 9C 07 E0 F0 FF 01 FC FC 00 B8 1F 1F 80
DPCM : FF F8 20 B8 0F F0 80 FF 03 F0 E1 77 60 7C 78 1C DE 83 0F 81 FB 83 1C FC 87 E1 70 7E 80 38 9F 87
DPCM : E0 3F E3 01 FC 07 F0 80 FF 70 80 DF 4F 00 FF E3 10 FC 07 1F 80 FF 03 78 F0 0F 03 C8 FF 31 0C FF
DPCM : 71 00 FE 87 07 C0 FB 00 1F EE E3 18 DC F7 10 8C FF 78 00 FE E3 00 C4 FF 60 1C FC 83 07 F0 FF 00
DPCM : 0F F9 38 0C CF E3 07 F8 E1 61 1C FC C3 03 E1 F1 1D C4 FB 78 00 FE C3 03 C8 7F 80 0F EE E3 71 38
DPCM : F8 0C C7 73 3C 82 7F F0 07 F0 7C 80 05 FE C3 E1 C7 FC 80 E1 1F 3C 80 7F CC 07 78 3C 0E 03 C7 DF
DPCM : E1 CC F1 61 18 1F F8 01 7F F0 78 0E 1E E1 0D 0E F8 87 CF F0 3C 07 71 F0 0F 78 CE 87 4F E0 01 EF
DPCM : E0 60 3E FC C9 87 77 10 0E F7 C0 39 7C FC 01 1E F0 0F 0C E3 F3 1E F8 3F 00 C1 F9 0C 1C FE 8F 07
DPCM : F0 C1 07 F0 30 3F FE C0 8F 7F 00 82 7F 58 C0 FF F0 03 FC 20 3C 06 F8 8F 1F FC 87 7F 00 0E C3 0B
DPCM : FC C3 F1 33 38 C0 3F 00 0E FF 0F FC 07 7F 20 0C E6 07 78 C7 F3 71 38 86 27 70 04 FC 1F DF 81 FF
DPCM : 00 CD C1 1F 20 CF 35 1F F0 03 DF C0 60 F0 3F B8 2F F8 0D C6 07 F8 00 3F 0F FF 00 1F F0 8B E0 03
DPCM : FE C1 3F 1E BF 80 79 B0 0F C0 79 87 CF F0 81 07 7C 40 F0 3F C6 E7 79 3E C0 07 F0 41 3C FE F8 0D
DPCM : 8E E0 63 F0 18 F8 1F 78 8F 87 7F 00 0E FF 00 87 F7 B0 1F 78 A0 07 07 F8 E1 1F FC F8 0C FE 01 3C
DPCM : 82 7F E0 1C CE 7C 3C C0 47 80 FF 00 7F F9 42 BF 70 1C 87 C1 F0 1E C6 F1 1C 0F FA 81 05 F3 78 A0
DPCM : 3F CE 87 B3 E0 74 00 3F 86 E7 70 1E D7 C3 63 78 0E 07 F8 03 9F F1 79 0C 07 F8 C7 38 C0 BF 07 F0
DPCM : 63 7C 0C C7 70 1E 87 F3 B0 CF 81 7D 00 3F 83 F3 18 CE C3 7C C0 E3 3D 3C 82 C7 F0 39 8C F7 01 3F
DPCM : C4 61 3F 01 F9 0F F0 19 9E C1 7B 0E E0 F8 0F F8 E0 3F 0C 0E F9 47 C0 7C 8C 67 FC 13 18 E7 33 00
DPCM : FF 61 3C 96 E3 3C F0 00 7F E0 37 0F FA 40 3F 87 61 98 7F 00 07 FF 79 80 D7 F0 1E C2 C0 7F C0 67
DPCM : E0 7F C0 0F F0 7F 00 FC C3 7C 00 FE 0F C1 21 FE 43 00 FE F3 07 1C FE C3 08 FC 07 78 05 7F 3C C0
DPCM : 1F 55 F9 07 44 F1 3F C1 20 FE 07 C1 F9 3D 00 9E EF 03 F0 3E 3E C0 33 7D 80 C3 FD A1 20 7F F8 0F
DPCM : 8C F0 D1 03 7F D0 92 07 F5 51 17 E2 D5 3D 0C E5 37 F0 02 D7 29 1C C3 4F D5 51 2D 35 A7 07 74 D3
DPCM : E3 10 3E D6 2B 84 97 7C 45 D9 C1 7D 28 55 1B 35 C5 F6 05 78 56 35 2B CB 52 F6 50 0F C9 75 54 17
DPCM : 69 55 8F 52 55 CB 07 F0 D5 A5 34 E1 AD 2D D0 74 3F C0 55 5B 52 55 F1 4A 2D 92 DE A5 A9 54 D9 4A
DPCM : 7E A0 55 95 E6 51 35 B8 55 2D 97 54 43 7F 41 2D AE C4 8B 1D E8 D5 0A DD 52 2F 45 AA 55 5F 60 25
DPCM : A7 56 D5 05 6D DA 52 5B 54 56 B5 45 D5 45 5A D9 0A 6D 2D 55 F0 4D 8F D2 54 B5 6C 1B 92 59 DC 83
DPCM : 56 D1 15 5D A5 67 B4 8A EA AA 4A 95 56 55 55 95 59 55 55 4D 2D D5 52 AD 51 55 4D 55 AA 65 53 55
DPCM : 69 95 2D D5 A4 55 55 55 69 55 B5 54 AB 54 B5 52 55 55 55 55 4B 55 55 55 55 55 55 35 2D 55 55 55
DPCM : 53 55 72 55 53 A5 5A 55 2D 53 B1 35 55 95 56 55 55 55 55 59 55 35 55 55 55 4B 55 55 55 55 A5 55
DPCM : 55 A5 5A 55 53 55 55 55 55 55 55 55 55 55 53 55 55 15 AB AA AA AA AA AA AA AA AA AA AA AA AA AA
DPCM : AA AA AA AA AA 6A 55 55 55 55 55 55 55 55 55 55 55 55 55 55 55 55 55 55 55 55 55 55 55 55 55 55
DPCM : 55 55 55 55 55 55 55 55 55 55 55 55 55 55 55 55 55 55 55 55 55 55 55 55 55 55 55 55 55 55 55 55
DPCM : 55 55 55 55 55 55 55 55 55 55 55 55 55 55 55 55 55 55 55 55 55 55 55 55 55 55 55 55 55 55 55 55
DPCM : 55 55 55 55 55 55 55 55 55 55 55 55 55 55 55 55 55 55 55 55 55 55 55 55 55 55 55 55 55 55 55 55
DPCM : 55 55 55 55 55 55 55 55 55 55 55 55 55 55 55 55 55 55 55 55 55 55 55 55 55 55 55 55 55 55 55 55
DPCM : 55 55 55 55 55 55 55 55 55 55 55 55 55 55 55 55 55 55 55 55 55 55 55 55 55 55 55 55 55 55 55 55
DPCM : 55 55 55 55 55 55 55 55 55 55 55 55 55 55 55 55 55 55 55 55 55 55 55 55 55 55 55 55 55 55 55 55
DPCM : 55 55 55 55 55 55 55 55 55 55 55 55 55 55 55 55 55 55 55 55 55 55 55 55 55 55 55 55 55 55 55 55
DPCM : 55 55 55 55 55 55 55 55 55 55 55 55 55 55 55 55 55 55 55 55 55 55 55 55 55 55 55 55 55 55 55 55
DPCM : 55 55 55 55 55 55 55 55 55 55 55 55 55 55 55 55 55 55 55 55 55 55 55 55 55 55 55 55 55 55 55 55
DPCM : 55 55 55 55 55 55 55 55 55 55 55 55 55 55 55 55 55 55 55 55 55 55 55 55 55 55 55 55 55 55 55 55
DPCM : 55 55 55 55 55 55 55 55 55 55 55 55 55 55 55 55 55 55 55 55 55 55 55 55 55 55 55 55 55 55 55 55
DPCM : 55 55 55 55 55 55 55 55 55 55 55 55 55 55 55 55 55 55 55 55 55 55 55 55 55 55 55 55 55 55 55 55
DPCM : 55 55 55 55 55 55 55 55 55 55 55 55 55 55 55 55 55 55 55 55 55 55 55 55 55 55 55 55 55 55 55 55
DPCM : 55 55 55 55 55 55 55 55 55 55 55 55 55 55 55 55 55 55 55 55 55 55 55 55 55 55 55 55 55 55 55 55
DPCM : 55 55 55 55 55 55 55 55 55 55 55 55 55 55 55 55 55 55 55 55 55 55 55 55 55 55 55 55 55 55 55 55
DPCM : 55 55 55 55 55 55 55 55 55 55 55 55 55 55 55 55 55 55 55 55 55 55 55 55 55 55 55 55 55 55 55 55
DPCM : 55 55 55 55 55 55 55 55 55 55 55 55 55 55 55 55 55 55 55 55 55 55 55 55 55 55 55 55 55 55 55 55
DPCM : 55 55 55 55 55 55 55 55 55 55 55 55 55 55 55 55 55 55 55 55 55 55 55 55 55 55 55 55 55 55 55 55
DPCM : 55 55 55 55 55 55 55 55 55 55 55 55 55 55 55 55 55 55 55 55 55 55 55 55 55 55 55 55 55 55 55 55
DPCM : 55 55 55 55 55 55 55 55 55 55 55 55 55 55 55 55 55 55 55 55 55 55 55 55 55 55 55 55 55 55 55 55
DPCM : 55 55 55 55 55 55 55 55 55 55 55 55 55 55 55 55 55 55 55 55 55 55 55 55 55 55 55 55 55 55 55 55
DPCM : 55 55 55 55 55 55 55 55 55 55 55 55 55 55 55 55 55
DPCMDEF  21  4081 "34"
DPCM : E5 B4 2A C9 CB D2 71 98 E3 B1 68 EB 60 5C 75 74 14 5E 65 65 55 55 93 E3 98 63 3C 47 95 13 CF E1
DPCM : 94 C3 71 4D C5 59 9C 63 EC 31 56 55 3A 0D E7 F0 3C 68 79 1C 6E 18 1F 1E 8E 63 1D F1 F8 10 C7 53
DPCM : 1E 65 E2 63 3C 1E DC 39 0C 9E 27 38 FE 07 E0 FC 00 6F 1F 28 F4 33 8E D3 30 3E BE 03 CA C7 E0 FD
DPCM : 00 F4 BE C1 78 07 C8 F3 1C 81 7F 18 F0 C7 53 1E DC A3 80 3F 1E 47 C1 E7 03 F9 83 D1 3E E1 B0 3D
DPCM : C4 7D 00 F9 47 5A FD 80 C3 0F E1 F1 03 3E FE 00 CF 1F C0 FD 00 FC 1F 80 FF 40 F0 1F F0 F4 03 9E
DPCM : 14 FC 03 8E 8F 07 7F C0 C3 3F 38 38 07 E7 D1 81 F7 E0 61 3E 58 D6 07 36 78 DC 87 01 FE 0F C0 FF
DPCM : 00 FC 0B E0 F3 04 FE E1 61 1C 7E 48 D1 1F 61 FC 3F 00 FE 0F 80 EF 03 F8 63 80 FF 00 FE F3 40 1E
DPCM : 22 FE 11 DC 0F E1 39 0E 3E 3C 84 7F 04 C7 DF 61 0C 57 F0 D3 18 5E B8 C7 F0 F0 1C 25 7C 3E 0E F8
DPCM : 07 8E E3 E1 C1 CA 7E 18 FC 03 38 BF 00 FB 0F 00 FF 21 E0 7F 20 FC 87 E1 55 0E BC 9F 01 C3 FF 20
DPCM : B0 FF 00 3C FE 70 1C 1E 43 1E 1F 07 3E 2E 83 F3 8C 65 C1 1F 0E F9 13 82 7F 1C 82 FF 05 02 FF 0B
DPCM : 82 FF 41 C0 FF 11 18 FF 05 04 FF 17 C0 F7 0B 80 DF 0F E0 D9 34 3C 35 05 3F 17 05 FB 43 54 3E 2D
DPCM : 05 DF D1 03 F7 50 C9 F4 C1 63 71 F5 80 9D 3E 05 5E F1 07 69 F8 51 5D D0 1E 5A 4D D4 87 D6 B0 71
DPCM : B5 78 24 3E 17 0F 96 55 53 74 35 95 4B 95 87 C5 55 F9 50 5C 5C 0F D9 42 D7 52 35 55 D5 52 D5 D2
DPCM : 54 AA D5 54 69 55 8B D6 92 2D 55 55 55 4B 55 55 55 2D 55 55 56 53 55 59 55 35 55 55 55 55 55 D5
DPCM : 54 55 55 55 55 1B 56 65 2D 55 65 55 4D 71 FC 08 CF C1 3D D8 81 1F E0 67 1E F4 C3 14 AE E5 23 7C
DPCM : E0 1F 16 A8 BE 3E 80 0F E7 E1 34 C0 FF 30 3C 3C 1E 0F C2 C7 C7 83 F0 1F E8 38 F8 0F 81 F8 C1 7F
DPCM : 70 80 FF 03 E0 CF D2 03 E0 E7 17 F0 B9 82 7F 10 8E C7 0F C1 C3 FB 70 20 FE 3C 00 7F 1D 03 FA 7B
DPCM : 00 FE 3F 00 0F F7 C1 1C F8 F1 10 3C FC 79 00 FE C3 03 C0 FF F0 01 FE 38 3E 06 FE 41 C0 FF 03 F8
DPCM : 0E 1F 80 CF 9F 00 FC B9 0F C0 E3 FC 00 BC FF 01 18 FC 1F C0 5B FF 01 E0 3F 06 00 FF 7F 00 CE EF
DPCM : 03 C0 F7 38 00 FE FF 00 3C F0 3F 00 F8 7F 50 C3 77 39 10 BE 4B 80 3F E0 3F 3E 80 8F EF 03 18 F8
DPCM : 0F 70 F0 7F 1E 00 FF 07 81 F0 7E E3 01 71 FE 1F 00 FE 0F 00 FF 59 00 DF F6 13 20 8E 7F C0 03 FE
DPCM : 63 07 78 8F 1B 94 02 FF 03 D8 E7 EB 21 28 E0 7F 3E 00 7F FC 03 38 F0 3F 00 FA 3F C4 03 F0 FF 07
DPCM : 00 FE CF 01 80 FF 7F 00 E0 3F 0F C0 FF 07 01 78 F8 EF 01 F0 3F 1C 80 E3 FF 01 80 FF E7 00 F1 7D
DPCM : 0C C8 8F E1 0F 00 FF 77 10 78 1F 9C C3 F7 00 7C 8F 81 F7 07 60 FC C7 70 04 FE 7F 00 F8 3F 00 C7
DPCM : 70 9E 1F 60 F0 1F 0F 80 FF 73 70 20 3F 78 80 3F FE 03 E3 33 18 C6 73 38 CF 31 F8 C7 31 B8 1F 81
DPCM : C1 FF 00 38 FE 79 06 FC 0F 00 F8 0F F0 FF 00 FC 9F 81 F9 39 00 FF 01 00 FF 07 3F 30 7F 06 C1 7F
DPCM : C0 7F 18 C4 FF 00 CE 47 10 F3 03 78 FF 31 0E 8E 0F 00 F3 07 F0 7F 0E CE 9F 81 F1 19 E0 7C 0C C2
DPCM : 7F 1E C1 FF 11 C0 7F 00 EE 63 70 FF 0C CC 0F 00 FE 07 80 FF 3F 80 FF 21 F0 1F 00 E7 03 DC FF 01
DPCM : F6 23 38 FC 07 80 FF 09 E0 7F 0C FE 03 80 FF 80 F9 27 F0 7F 04 F0 1F 00 F8 1F C0 FF 07 E0 C7 70
DPCM : 78 1F CC C7 81 FE 03 10 FF C1 70 3F 40 9F 07 F0 3F 40 F8 1B 8C DF 00 FF 03 E0 7F 00 FC 27 70 7F
DPCM : 00 BF 0F C0 FF 00 FC 33 C0 FF 0C CC 07 70 3E 07 FA 47 E0 7E 0C E2 87 E1 39 9C E3 0F F0 07 C0 FC
DPCM : 07 E7 71 C0 FD 04 EF E0 1F E0 1C FE 00 1F C2 C3 77 70 1E 07 F7 03 3C 0E FF 00 FE 98 07 F0 39 78
DPCM : 1E 03 FE 30 1E 8F E3 38 DC 07 F8 83 1F C0 67 F8 0E 0E F8 03 FC CF 83 78 08 1F E0 3B 3E C4 8F E1
DPCM : 7D 00 C6 1F F0 CF F0 0F 70 3E 00 87 3F E0 77 F8 3C 0C F6 03 F8 47 F8 0F 9C 0F F0 03 8F E1 3D F8
DPCM : 83 70 1E C3 F9 00 FE 0F E0 07 38 CF C3 78 0C FF 21 9C 0F C0 FF 01 3F C0 FF 20 1C 1F E0 8F E0 7F
DPCM : 00 FE 01 F8 1F F0 0F FC 03 78 3C 03 FF 00 FE 0F 80 3F C0 7F 07 CF E1 3C 80 F3 3C C4 47 70 1F 03
DPCM : FC 03 7F E3 F0 1C FC 03 E4 F9 01 7C 80 DF 71 C0 1F F0 0F C6 E3 61 7C 00 7F 1F C6 63 F8 0F 83 F8
DPCM : 00 FF 00 3E 0E E3 3B 38 9F 41 3E 83 7F 18 C4 0F CC 07 F4 7F 20 BE C1 F9 0E E0 19 FC 83 20 FF C0
DPCM : 3E 80 7F 07 E3 03 FC 71 18 1F C0 3F C0 FF 00 FF 01 FC 0D 38 1F E0 8F 7C F8 0E FF 80 C1 33 F0 07
DPCM : FC 03 1E E6 03 FC E1 1F 7E C0 0F F0 01 3C 1F C0 7F CC 03 FF 80 7F F0 E0 0F FC 03 3F 40 BC 03 F8
DPCM : 1F 7C 80 1F E0 0F FC F1 02 FE 81 3F C0 3C 20 FF 31 3E F0 1F F8 03 7A 38 80 FF 01 FF 40 3E E0 39
DPCM : 8C 77 F0 0F F8 07 67 F0 00 DF C1 0F F0 0F 3E C7 C3 1F E0 1F C0 03 7E 78 07 7E C1 0F F0 07 0F F0
DPCM : 01 FE C1 7F B0 0F CC E1 19 FC 03 FF 80 1F F0 F0 07 7C 80 FD 00 FF E0 83 3F E0 1F F8 03 7E 30 84
DPCM : 8F F1 63 F0 0F F8 1F 04 FE 01 3E E0 0F E3 E1 70 3E 8C 0F 0E F3 83 FB E0 80 3F F0 0F F8 0C 8E 0F
DPCM : E6 C3 79 F0 C1 79 10 3F 80 3F B0 8F 83 8F 07 FE C1 73 00 7F 18 CE C3 C3 79 70 0F 3F E0 39 3C 81
DPCM : CF F0 03 7C 84 8F C7 F1 03 FC C1 79 38 87 37 F8 07 FC 81 1F 78 84 E3 78 90 1F F0 1F C0 C7 C8 FF
DPCM : 80 3F C0 0F F8 1C F0 0F E0 0F FC 01 3F C0 E7 E1 F0 1E BC 03 BC C3 E3 60 3E E0 7F 80 1F F8 07 9C
DPCM : E3 C0 DF C0 7B F0 0F 78 80 87 FB 80 1F F0 03 FE 81 F9 01 FA 11 FC 07 FE 01 7E 80 FF 00 FE 03 FE
DPCM : 81 7C 80 DF 01 FE 01 FC 03 FF 60 1F C0 7F 00 FF 01 FE 00 7F E0 0F E0 3F 80 7F 80 1F E0 1F F8 1F
DPCM : B0 0F 0E FC 83 7F E0 07 E0 7C 00 FF C0 1F E0 3F D8 07 F8 1C 8E C3 0F FC E1 38 1C 0E 7F E0 0F F0
DPCM : 01 FF C1 78 38 C5 C7 78 F0 01 3E C4 3F 86 F7 00 FF 01 7F F0 01 3C 1E 0F 7C F8 07 3E E0 07 F8 67
DPCM : F0 07 E2 3D C8 0F 3E F0 83 E9 83 0F F9 C0 1F F8 03 3F 0C 71 1E C1 E7 F0 0E FE 01 3F C0 E3 01 7E
DPCM : E0 0F F8 E3 21 3E E8 07 F8 07 FE 80 8F C3 F9 C0 3E C0 3F C0 7F 80 7F C0 0F E0 E7 E0 3D 84 77 F0
DPCM : 07 D6 03 7C 83 7F 00 FF 03 7E C0 F3 20 3E 83 3F 80 EF E0 0F 7C 07 78 8D DA 07 C1 3F F0 0F 70 3E
DPCM : C0 0F F0 1F F0 1B FC 01 FF 00 3E 83 7F 80 0F F8 03 7F F0 83 07 1F 0E FC 03 FC C1 1B 3C 5E E0 1F
DPCM : E0 87 E1 0F F8 80 1F 1E BF 80 8F 83 F7 60 3F F0 01 1E 1F 85 1F E0 7B 81 0F F0 03 FC C0 FF 18 3E
DPCM : 3C CA 87 FF 00 3F F0 01 FC 0C F8 C3 7C B8 07 FC 01 3F E0 A3 0F 7E C0 8F C0 7F 80 1F F8 07 F8 83
DPCM : F3 00 9F 17 F8 07 FC 01 3E E0 FB 05 1E E1 1F E0 7D C0 0F FC 38 D8 73 C0 0F F0 1F AC F0 08 FF 81
DPCM : 3F F0 61 A0 1F 1C 77 C0 3F F0 07 D6 34 3C 65 F8 61 D9 0C FC 03 F7 08 F6 03 7F E0 F1 00 3F F0 17
DPCM : F0 8F C0 3F F0 31 3C E6 E1 61 1E E6 F1 00 7E F6 01 FC 03 3F E0 C7 70 7C 70 4B 1C 3F C0 0F FC 03
DPCM : 37 F6 80 1F F8 0F E0 07 FC C0 F7 C0 C3 3F F0 07 F8 01 FE 03 3C 07 F8 1D FC 01 0F 0F FB 00 FE C0
DPCM : F7 00 FF 41 3D D0 47 A9 55 49 3F 84 3F 70 1D C4 1F F0 F3 A0 1E E0 0F F8 07 F3 03 FE 03 FC 02 FA
DPCM : 11 DE 03 3F 90 77 E0 76 84 0F F8 C1 1F F8 30 0F 8F 87 5A B5 78 E0 07 1F 5C BC 82 57 C5 55 59 36
DPCM : EC E2 14 1F F4 29 74 4B BC 0C 3E 55 F8 07 FE 80 0F 69 F8 04 FF C0 0F 86 AF F0 45 F8 83 4E 56 9A
DPCM : 1E C4 A7 78 95 F4 94 4E E9 51 2D F1 43 2B 35 A5 0F F8 81 3F 70 7C C0 1F 91 1F E1 73 E0 4B 55 3E
DPCM : 54 37 F0 07 EA 49 BC 12 FD 20 57 D1 5A B4 15 A7 55 65 53 75 51 0F CB 2A D5 07 FC 01 3F F0 54 96
DPCM : 6A 13 FC C0 7F E0 4A 4D 1D 55 6B B4 A6 52 3B D8 07 79 94 55 65 59 A9 55 A5 D6 68 35 55 53 B5 B4
DPCM : 54 5D D4 D2 19 FC 03 FE 80 1F F0 91 95 F5 40 3F A4 55 55 55 55 55 55 2B 55 AB AC 4A 2B B5 4A 35
DPCM : B5 52 AD 54 AB AC AA 6A 6A 95 56 69 4D EA 54 55 55 A5 56 AA AA 4A 55 55 55 55 55 55 55 55 55 55
DPCM : 55 55 55 55 35 55 55 55 55 55 55 55 55 55 55 55 55 55 55 55 55 55 55 55 55 55 55 55 55 55 55 55
DPCM : 55 55 55 55 55 55 55 55 55 55 55 55 55 55 55 55 55 55 1B B8 55 B5 0C D5 87 9E D0 69 55 5A 55 55
DPCM : 56 55 55 55 65 55 55 55 55 55 55 55 55 55 55 55 55 69 55 55 69 55 55 55 B5 52 55 B5 B2 14 5D D5
DPCM : 49 55 A5 55 71 2D 4D 85 6B 37 54 E4 D6 B2 92 55 5C A9 AD 43 25 5D AF 42 06 CF 57 54 C5 75 54 55
DPCM : 37 A8 58 F7 13 10 E7 F5 09 B8 1C 1F E5 D1 4A 4A 77 39 06 C3 77 1E 51 71 4D D5 CA 71 30 5D 37 1E
DPCM : C0 2F AF 05 A6 D5 B4 54 27 35 9A CF 83 30 F8 3D 3C 14 EE 71 51 2B 59 15 BE 87 43 D4 F9 3C 84 C5
DPCM : 3C A7 23 B5 52 3A 9E 07 E1 71 9F 32 30 CE D3 23 D6 0E B6 D4 C5 83 F0 4E 9F 60 E1 EB 30 55 B9 0E
DPCM : 9C C7 79 80 C3 7F 18 85 7B 86 47 55 F5 C0 71 3D 1E 14 F8 1B 0F 83 F9 7C E0 07 9F 80 1F FC 01 9E
DPCM : F5 05 69 55 F5 10 1F C7 61 3C EE C0 83 C7 F3 10 1E E4 4F 78 F0 23 8F E3 71 38 8E C3 33 F0 59 E2
DPCM : 0F 1E 3C B1 5E C1 E3 78 1C C3 63 3C C6 F1 78 06 C7 F0 09 1F FE C1 E0 63 78 0E CF E1 11 9E C3 3F
DPCM : E0 87 E0 07 7F E0 01 3E C7 E7 F0 18 9E C1 3F E0 03 7C 8C 1F F0 87 E1 13 FC 81 7F 70 1E DE 83 31
DPCM : 1C 1C 8F E3 03 3E F0 0F FC 03 76 E0 1F F0 03 F8 90 1F F0 71 38 9E FF 20 1C BE 8F C3 30 00 FF 87
DPCM : E3 70 1E EC E3 78 00 E7 F1 3F 38 90 0F 79 00 DF F1 0F 06 F0 3F 84 0F F0 0F FE 41 3E C0 63 FC E1
DPCM : 3D 58 20 7E E6 21 7C 0E FF 80 3F E0 07 7C 81 C7 79 1E 70 F0 38 9F C1 11 FE C3 73 18 0F F7 C0 0F
DPCM : E0 11 FE E1 70 18 CF 07 78 F8 C7 F1 18 DE C1 3B 1C 07 F8 F0 0F C0 A1 BF 0F C0 07 FF 83 2F F0 00
DPCM : 3F 1C 1F E3 F0 3C 84 31 7C BE 01 0F FE 83 0F F0 07 BE E1 F1 70 C0 3F 1C E0 1F DC 03 7C F0 C7 3F
DPCM : 18 0F F2 60 3F E0 00 FF 0C F0 07 F1 0F F8 87 F9 03 FE 02 F3 30 1F F0 80 3F F0 10 9E E7 03 F8 0F
DPCM : E7 23 7C 83 73 F0 0F 70 F0 3F 80 03 DF C3 21 F8 8F F1 31 3E 83 7B F0 0F C0 F8 1F 80 E3 F0 0F C0
DPCM : E3 7F 78 0E E7 01 3E E0 47 C0 7F 0F C0 7D D0 0F C0 FF 18 BE C3 63 10 1F F9 03 B8 CF 07 70 0F FE
DPCM : 01 3C 8F E3 39 FC 07 E0 87 79 00 F8 7B 00 DF 83 3F 80 FF 01 FC 0E CF 41 F8 86 47 F0 1E FE 00 3F
DPCM : E0 0F F0 2F 98 CF E1 38 18 8F F7 00 DC C7 03 F8 07 FF 00 DE 73 F0 1F C0 07 E2 73 3C 80 FF F0 06
DPCM : F8 81 7B 20 9F 07 3F C3 E3 30 8E FB 00 FC C0 3F C0 1F F8 07 E6 70 CE C7 70 1C C6 E3 39 C0 2F F0
DPCM : 1F E0 03 1E C3 E3 3D FC 18 1E C7 F0 1C 87 F0 3C 9C 07 F0 F0 0F 8E E0 1F FE 03 F0 3C 06 FF 01 CE
DPCM : 83 F9 00 5F E0 3D 04 FF E3 F8 0E 8C 83 FC 70 0E F0 87 F9 00 0F E1 3F 80 9F 1F 3E C3 71 82 F3 70
DPCM : 3C C0 2F 7E 04 77 F0 1F 00 FC 8F F1 11 3E 83 F3 18 0F F0 79 1E C1 1F E0 07 70 FE 47 F8 1C 8E C1
DPCM : 79 9C 0F F8 C1 1F E0 1E E8 07 30 FE 63 F8 0C CF E1 3C 8C 07 FC C1 47 F0 07 F2 21 1C FE 31 7C 0E
DPCM : 6F 70 1E C6 03 9E E3 33 F8 07 F0 31 1C FE 21 7C 8E 67 30 1E C7 03 FE C1 1F C0 07 F3 11 1C FF 21
DPCM : FE 18 8E E1 39 FC 03 DC C1 07 F0 07 E7 31 1C DE 47 F8 1C 8E C3 79 C4 47 70 3C 8F E0 1C DC 87 71
DPCM : F8 0F E3 03 3C 87 F3 30 8F F0 38 7F 00 3F 98 1F C1 F0 1F C1 7F F0 06 F6 21 3C C0 8F FF 00 3E E0
DPCM : 7F 00 87 FF C0 9F C1 39 8C 87 78 0C 87 FB 07 E0 83 3F 0F E0 F0 1F F1 19 9E C3 78 C0 67 38 FC 3F
DPCM : 00 1F F8 E3 19 84 F7 90 8F E1 19 DC 43 3C 0C C7 E7 03 F8 01 7F 1E C1 F1 1F E4 1B 9C C3 79 38 07
DPCM : C1 F9 78 04 7E B8 C7 63 38 BC 07 7E 81 77 30 0F 7F 40 98 1F 0F E3 03 F0 F3 18 0E FF E1 0F F0 00
DPCM : FE F1 10 1E E7 F0 07 FE C0 1F 7C 80 07 F8 8D 1F F0 18 1E CF 01 8C FF F0 01 E7 F0 87 9F E0 38 1E
DPCM : E3 19 3C 80 FF 3C E0 1D BE 39 86 63 F8 83 67 70 E0 1F FC 00 1F E0 9B E7 00 FC 87 37 FC 81 79 F0
DPCM : 03 78 F0 1F F0 07 7C 00 9F CF 00 FE A3 0F F0 03 FC F0 1C CF 81 7E C0 67 78 80 FF 3C 00 FE 0F 8F
DPCM : E1 03 FC C1 39 BC 03 FC 08 DF 71 00 FF 21 06 FC 1F 8E C3 C1 73 F8 00 FF 1F C0 87 E7 61 30 3E 1E
DPCM : 38 0E DF 87 C1 78 3C 8C 33 3A 3E 83 E3 78 8E C3 1B F8 03 38 FC FF 00 3C 8C CF 70 0C DF 61 10 1F
DPCM : C7 73 78 03 FF 80 07 FB 3D 80 87 7F E0 43 78 F0 23 38 8F F1 11 7E 60 1F F1 01 FF 0F C0 71 3E FC
DPCM : 03 86 E7 11 D8 C7 78 0C 1F F0 1F CE C1 FB 07 E0 38 0F 8F F0 E0 FF 00 C0 7F 78 0E 0F E0 CF C0 C3
DPCM : 3E 87 71 F8 8F 63 38 9C E7 01 C0 3F F1 30 1E F8 1F C3 E1 3E 8E C1 70 9E 47 70 9C C7 11 0E EF C3
DPCM : 47 E0 F1 3F 00 F0 3F 3C 80 C7 FB 0F 00 FC F3 10 7C 1C 0F FC 00 CF 7F 00 E1 3F E6 23 3C E4 2F 10
DPCM : FC 87 07 F0 1D C7 F1 3C 86 C7 38 03 F8 79 3C C7 23 7C 07 C7 F8 1C C0 F7 08 F8 A7 78 0E C7 70 38
DPCM : 0E C7 FF 81 38 BC 07 E0 F9 1F 18 E4 1F 10 C6 0F 1F E1 E1 FF 61 30 1E CF 80 07 F1 71 1E E7 70 E0
DPCM : 7D 0C 0E FF E1 18 1C E7 03 C0 FA F3 38 1C 8E E7 80 FF F0 01 0E EF 33 40 F8 CF 03 F0 F8 3F 00 F0
DPCM : 9F 47 F0 18 3F 00 DC EF 03 78 FC C7 31 38 9C C7 33 1C EE 27 00 FE C1 0F F0 F1 1F 30 B8 FF 03 18
DPCM : FE 03 F0 F9 0C FC 83 0F E0 E1 1F E0 71 EF 04 3C C3 47 00 FE E3 07 7C 8C 87 E1 19 7E E0 3F 1C 3C
DPCM : 1C 1F C1 E3 23 3C 86 FB 30 1A FE C3 03 3C FC 0F 01 F8 FF 07 C0 F7 78 00 8C FF 38 80 0F FF 00 FE
DPCM : 87 F1 38 9C 47 38 0F E6 03 C7 21 FE 0F E0 39 CC 0F CC 55 E1 37 38 06 FF 01 78 0F F8 07 78 3E C0
DPCM : F9 07 FE 03 3C 0F B8 CF 03 FC F0 03 C0 FF 01 38 FC 1F 80 FF 3B 30 06 FF 06 00 FF 78 04 FE F7 00
DPCM : 82 FF 3C C0 E3 7C 00 FF 78 1C 00 FE 1F 80 C3 FF 21 F0 3F 80 E7 60 7F 01 F0 3F 0E E6 C0 3F 00 3F
DPCM : CF 3F 00 FF E0 03 E0 7F E0 30 7C F1 03 38 FF 41 85 83 7F D4 61 D8 CF E1 10 FC FF 00 02 FF 0D 01
DPCM : FC FC 0F 00 FF F1 00 7C F8 0F 70 96 2B 1F C0 FF 80 F1 78 3C 06 7C 7F 02 E3 07 F0 E1 7D 40 F0 3F
DPCM : 1E 20 FC 1F 00 FC 8F 3E C0 FF 03 00 FF E3 00 FE 7D 00 FC 52 F9 0C 76 1C EC 1F 00 FF 83 51 81 FF
DPCM : 63 00 FE FB 00 80 FF D1 81 F1 FF 00 18 FC CF 01 FC E7 30 0C FE 83 63 E0 FD 70 10 8F 67 F8 0E C6
DPCM : 38 DC C3 03 7C FF 00 1C FF C0 07 F8 3B 80 E3 3D 70 1F D0 F9 3C 00 FF A0 0F E3 70 15 FD 08 C0 7F
DPCM : 0F E0 3F 8E 30 F8 8F 07 F0 E7 41 1C FC 87 07 F8 C3 3F 00 FE 53 00 FF 98 C2 A2 F7 48 68 1F A7 91
DPCM : 78 1F 64 79 04 FF 1F 00 FF 01 68 F8 0F 1F 80 FF 05 F0 78 1D 1D C1 5F 54 93 B8 CD 94 56 A9 7D 01
DPCM : F4 B7 90 6A D1 7F 00 F0 FF 00 EC BB 70 06 F8 F7 00 F8 1F 30 8D F6 33 00 FF 0F A0 76 55 9D 84 DD
DPCM : 55 48 57 55 55 A5 5A 55 55 45 5B 1B C5 55 55 B5 44
DPCMDEF  22  4081 "56"
DPCM : 55 55 55 55 55 B5 D4 4A 4D 55 4D 55 4B 55 55 4B 55 55 4B B5 94 55 D5 4A 55 D5 B2 34 55 5B B8 92
DPCM : 1D D3 52 D5 52 2B 55 55 AF A0 5C 5D 43 B5 D4 16 B5 D4 2E A4 6B 74 92 27 B5 52 DB 60 0F FC 50 1F
DPCM : 94 17 D5 43 75 96 51 F6 82 37 64 37 F8 06 55 95 FA 23 54 96 DA 7B 10 07 FA E1 3F C0 05 FC C7 0B
DPCM : 70 AB 5B B0 07 F8 83 7F 80 0F DA 03 7F 44 35 F9 03 EE A0 7D 38 04 FE C3 47 F0 0E FF 00 1F F8 01
DPCM : 3F E2 51 E8 C7 2F 30 85 E7 F1 10 1F C9 0F F8 83 1F 04 FD 07 FF 00 3E F8 0F FC 00 7E F1 00 1E F9
DPCM : 0F 9E C0 D5 0F E2 22 FC C3 05 FC 1D EC 03 1F E0 03 FC 63 FC 60 FC 03 FE E0 1E 0C C2 E3 FB 0C 70
DPCM : 9C E3 33 38 1C FC C1 0F F0 C0 FF 18 78 1C BE 61 07 FC E1 07 E0 7F B0 07 F8 07 3E C3 01 3F F8 02
DPCM : 7F 30 0F FE 01 DF C1 01 FE 07 F0 19 FF 00 7A 1E 0F 4F 00 DE C7 07 F8 E0 0F 7F 00 8F FF C1 20 FC
DPCM : 06 FE C0 07 FE 83 C7 E0 C3 F1 E0 3D 38 84 E7 3F E0 00 3E 3E 87 E1 3F 8E 01 FC 87 C3 70 FC 01 FF
DPCM : E0 80 3F 1C 3F 00 E7 E3 01 7E F0 3F 00 1F F8 03 7E F0 0F EF 81 F0 7C 03 9C E3 7C 78 04 1F 9E 07
DPCM : E1 87 3F E0 71 3C 1E C1 C1 7C 7C 0E 1F CC 83 0F C0 E3 F3 21 FC 71 24 1C CF E1 E3 F0 70 1F 7C C2
DPCM : 30 3F 3C 80 0F E7 07 F0 E3 1F 10 DF E1 1D 38 F8 C7 43 38 F8 0F 1F 10 FC C7 01 F8 1F 83 C1 F7 F0
DPCM : 1C 7C C0 1F 1E C3 30 3F 8E 61 F0 E7 21 38 FE 03 38 FE E0 23 30 BC 9F 0F 60 BC 0F C7 71 18 9F C1
DPCM : 38 FC 82 03 FF 3C 03 C3 FF C0 63 70 1E F7 18 1C 8E 0F C0 E7 77 10 FE C0 67 3C E0 1F 78 58 70 3F
DPCM : 3C 86 07 E7 43 70 FE 31 38 1E 7F 10 0E E7 F1 06 C3 79 78 86 79 3C C7 01 7C 9E 81 7C F7 43 38 DC
DPCM : C3 31 3C E0 03 9F C3 F1 F8 03 FC F8 03 E0 F3 38 80 F3 3C 8F E1 F0 1F 1C C7 83 E3 03 F0 FE 03 30
DPCM : FE 67 00 8E FF 01 86 E3 79 3C 82 E7 71 1C 8C E7 03 38 CF E3 31 8C C7 73 90 87 F3 F1 00 F8 FE 0F
DPCM : 80 E7 3B 08 C7 F7 01 0E EE E3 0F 00 E7 F3 00 7E FC 07 78 F8 0F 0C E3 79 1C 87 7F 00 F0 61 1E FC
DPCM : 00 9F E3 39 BC E3 01 FC 7D 38 86 F1 7C 0C F0 3C 0F FC 80 1F 7C 00 7F FE 01 C0 7F 1C E0 78 BF 03
DPCM : 78 3C 0F 0F E0 1F 1E 81 FF 1C C1 F0 1E 8F 21 BC CF 01 1E C7 C3 03 F0 7F 0E F0 8F 87 60 9C C7 71
DPCM : 1C E7 3D 00 87 FB F1 00 7C FF 01 9C C7 31 1C EF F1 18 C0 FF 1C C0 71 3E 1E 80 CF 1F 81 FC 79 0C
DPCM : C3 3F 1E C3 31 DE 03 38 CE E3 21 F8 E1 19 20 FE 0F E0 F8 C7 31 18 E6 7F 00 C7 79 3C 82 77 FC 00
DPCM : EC E7 21 0C FF 78 04 E3 7C 0F 30 FC C7 03 F0 C7 07 C0 7F 1E C3 F0 0F 4F 70 9C C7 01 86 7F 7C 01
DPCM : 79 FE 40 F0 FF 21 18 CE E3 01 8E F9 1E 01 FC C7 31 38 C7 1F 00 FF 1F 00 E3 3F 1E E0 70 FF 11 84
DPCM : FF 78 04 71 FE 01 70 FE 03 30 9E E3 01 8E F3 3D 20 FC CF 63 18 F7 0F 80 F7 0F 80 E1 3D 0F 70 9C
DPCM : FF 01 80 3F 9E E1 71 7E 00 B8 FF 40 1C FF 71 08 C3 FD 1C C2 F8 3C 0E C3 F1 19 C0 FF 07 60 BC C7
DPCM : 31 9C C7 E3 18 C6 F3 38 8E C3 63 80 E7 3F 80 F9 1F 07 10 FE 8F 01 9C E7 61 3C 9E 8F 01 EE 3F 80
DPCM : E1 3C 0F 71 F8 1F 06 88 CF 47 F0 98 3F 00 9C FF 03 C1 7F 1E C0 F1 7E 04 F0 1F 87 E1 78 7F 00 38
DPCM : FF 07 86 F3 3C 82 F1 FE 08 C0 7F 3C 86 C3 79 0C E0 FE 03 18 DE F3 80 C3 FF 10 C0 FF 78 0C 87 F1
DPCM : 23 70 BC 0F 70 BC C7 01 CE 7B 1E C0 E5 F3 03 78 3C 8F C1 71 7E C0 F8 3F 00 1E E7 71 06 F1 38 8E
DPCM : F1 39 1F 40 E7 F3 30 8C FF 10 C6 E1 47 1B 78 9E 0F E0 F3 78 08 E7 39 8E E3 70 1C C7 78 34 1E C3
DPCM : F1 1C C6 79 0E 86 37 0F C3 E3 71 0C 77 38 8E C3 F8 E1 71 18 CF 71 38 8E C7 C1 F8 FC 04 C2 7F 1E
DPCM : C0 71 1F C2 F1 47 30 E7 78 1C 86 3B 1E F0 03 CF 7F 18 E0 63 1F E0 3C 0F E0 8F 1F F0 E1 0F F0 83
DPCM : 07 F0 F9 0F 70 3C 7E 00 9E 3F 83 C3 79 8E C3 71 38 86 F7 30 1E EF 40 1E C7 61 F2 3C E3 60 3C 0F
DPCM : 41 FE 87 00 FE 1F C2 F1 0F 04 FA 3B 0C F8 8F C3 70 9E 0F 80 FF 03 80 FF 0F 00 FF 1F 80 F7 1B 08
DPCM : E6 F3 10 98 FF 31 60 FF 01 C0 FF 07 00 FF 87 E0 FE 38 00 FF 0F 04 C7 FB 03 E1 F0 1C C2 79 1E 86
DPCM : F3 39 80 F9 3F 10 9E 0F C1 7F 80 8F 79 0C CF 31 84 C7 E3 F0 EF 10 DC 3F 00 C7 3F 00 FB 0F C0 E7
DPCM : 31 F0 3F 00 F8 7F 00 FF 0F C0 3C 87 18 FE 03 B8 1F 87 E3 3F 00 E7 63 60 BC 0F E0 FD 10 18 FF 18
DPCM : 9C 7F 00 FE 07 C0 FB 0F 80 FF 00 B8 FF 01 F0 3F 03 FC 1F 03 E3 23 C0 FF 21 E0 FD 18 38 3F 06 9C
DPCM : 7F 00 EE E7 00 FC 0F E0 FB 08 30 FF 01 F0 FF 08 FC 8F 00 FE 1F C0 FC 1D 80 FB 03 38 9F C3 30 3E
DPCM : 87 E1 FF 00 FC 0F 60 FC 1F 80 FF 31 00 FF 01 CC 3F 00 E3 7F 80 E1 FF 01 F8 C7 20 BC 1F C0 EF 1F
DPCM : 80 FF 01 F0 39 04 E3 FF 00 0E FE 0F E0 3F 06 E3 79 00 BE 3F 00 FE 03 38 FF 01 F8 F8 03 9E E1 79
DPCM : 0C FE 43 18 DE 07 F0 7F 00 FC 0F E0 FC 03 F0 1F 86 F8 1C 86 EF 20 3E 87 70 9E C3 CF 71 C0 7F 30
DPCM : 8C 0F C0 7F 02 F0 1F C1 FD 00 FE E3 18 F2 11 FE 87 03 F8 07 E0 7F 00 FE 73 F0 1F 00 FE 8F C1 79
DPCM : 0C C1 7F 40 F7 19 98 CF 21 FC 07 F0 0F 83 F7 E0 81 F8 04 FF 38 02 7F 0C CE E3 20 FE 83 F0 3B 18
DPCM : 9F 07 F0 73 1C 9C 47 70 3F 83 F1 1E C0 7F 04 E7 0F E0 7F 00 F3 38 C0 FF 18 0E F3 19 CC E3 38 FC
DPCM : 21 1C 5F 00 FF 07 F8 61 1C FF 00 F8 8F 43 0C FF 11 86 E7 30 DE 07 D8 07 38 FF 07 F8 41 70 7F 00
DPCM : FC 3C CE 0B DC 23 18 8F E3 F8 07 F0 7F 00 FE 0F F0 07 80 FF 20 FC 1D E8 13 70 9F C1 7C 18 8F 47
DPCM : E0 BE C3 F0 3D A0 1F C0 3F C0 E1 3F F0 3F 04 FA 0F E0 47 78 0E 07 F1 0F EC 63 80 FF 00 FE 07 F8
DPCM : 03 FE 88 E3 00 BF C1 1F C3 C1 7F 80 7F 60 1F 64 E0 3F C0 4F F0 0F F0 07 FC 00 3E 5F 80 FF E0 1F
DPCM : C4 C1 6F 70 1F 00 FF 11 EE 0F E0 1F F0 83 F1 3C 80 3F A0 9F E1 C3 67 60 1F E0 7F 10 FE 0F D0 83
DPCM : FC 00 FE 03 3C FE 01 FF 40 3E 80 E7 3F 80 3F 80 7F 30 8E CF F0 1E E8 03 DE 49 E0 1F C1 E3 0F F0
DPCM : 39 FC 81 03 FC 04 F3 1F C0 FF 30 9E 07 F0 0F F8 07 F8 C3 60 3C 87 FB 00 3F FC 81 7F 60 1E 04 FF
DPCM : 01 FC 07 F0 E1 0F F8 07 FE 00 3C 7E 03 7F 80 0F 7F 80 7F C0 0F 3C C0 3F E0 0F F8 E0 0F F8 83 7F
DPCM : E0 07 FC 01 FC 00 3F F0 87 3F F0 0F F8 08 7E 8C 77 F0 07 FC 80 63 7C 80 7F F0 3F 80 0F E0 73 1E
DPCM : F8 03 FE 40 FC 83 3F F0 07 FC C0 0F FC 03 F3 00 3F C0 3F F0 07 FC F0 03 F4 83 CF C0 3F F0 03 7C
DPCM : EC 03 7F C0 F3 08 7C E0 1F F0 1F 00 3F F0 03 3F F0 0F FC 81 1F E0 3F 80 C7 F3 E0 0F F0 18 C7 3F
DPCM : E0 03 FC 03 FC 03 FC F8 00 FE 81 7F E0 07 F8 31 F8 1F 00 FE 01 FC 3C 85 3F E0 07 FE 03 FE 01 FE
DPCM : 01 07 FE 01 3F E0 07 FC C1 07 F1 03 FC 03 FE C1 03 7E C0 3F E0 0F F0 0F F8 07 7F F0 03 FC 70 E0
DPCM : 3F E0 0F F8 07 F0 03 FF 00 3F 7C E0 0F 02 FF 01 FE 81 7F C0 1F E0 0C 7F 04 7F C0 7F 00 FF 01 FC
DPCM : E0 D8 07 9E 03 FC 03 F0 0F BC 0F F0 3F E0 C3 03 7F 80 3F C8 07 FF 80 0F F0 3F C0 0F 80 FF E0 FE
DPCM : C0 07 FC 00 3F F0 0F FC 81 F1 07 DC F2 80 E7 78 84 7F 80 1F F0 A3 07 FC 3B F0 03 3E 18 3F F0 07
DPCM : F0 03 FC 1F F0 1F C0 3D CE 83 1F F0 07 F0 03 3F 70 1F E4 E1 03 87 1F F8 E0 3F 80 1F F0 1E F8 03
DPCM : BF 03 F8 03 7C 63 F8 C1 0F 7C 0E F8 45 F0 03 9F 67 70 F8 07 F0 1F E0 7B B0 07 76 14 3E 0F F8 83
DPCM : F1 03 8E 7F E0 07 E0 07 FE 03 FC 07 F0 81 3F 88 7F E0 87 07 3F 07 F8 F0 07 07 7F 00 FF 03 F8 E1
DPCM : 07 F0 3F E0 C3 07 C3 FD 00 FC 07 81 7F 38 F0 7F 80 3F 06 E0 7F 60 C0 3F C0 FF 03 70 FF 00 FF 07
DPCM : 00 FE 01 C0 7F 00 FF C7 F1 18 0F F0 7F 00 FC 04 FE 0F E0 F9 70 00 7F 00 FF 3F 80 FF 03 E0 7F 30
DPCM : F8 0F 70 FE 01 FC 00 E7 87 0F F0 67 70 7C 02 7F 3C 07 F8 07 0E F8 03 FC 0F F0 3B 88 CF 21 F8 8F
DPCM : 61 FC 1E 10 FF 01 FC 83 C1 7F 00 1F CC 1F C0 3F 86 81 7F 00 E7 07 F0 7D 1C FE 03 00 FF 83 E1 3F
DPCM : B0 83 7F 00 FF 07 80 FF 18 E0 7F C0 F1 1D C0 FC 04 FE F9 02 E0 3F C0 FF 10 8C 0F C0 FF 01 7C C7
DPCM : 83 F8 39 3C BE 83 7F 20 C0 1F C1 F3 1F E0 1F 03 F8 0C 8C FF C0 FF 07 E0 33 40 F8 11 3C 3F 06 E7
DPCM : 1F E0 DF C0 78 0C CE 0F C2 E3 01 FA 73 38 FF 00 3C 87 C7 7D 80 FF 60 3C 87 F1 38 0C FF 21 98 CF
DPCM : C1 F8 1C 1C E7 30 1F C6 83 C3 77 70 EC 03 F0 3C 38 7F 02 CF E1 01 DF C1 F9 70 F8 1C 8C E7 18 CE
DPCM : 07 30 DF C1 7F C0 63 78 1E 0C 1F 87 1F C6 03 FB 07 E3 21 F3 31 FC 00 FE 07 30 3F 81 7F 00 DF 07
DPCM : F0 3F 80 7F 0C 0F 87 E3 01 FF 03 F8 8F 80 FF 08 9C 0F C3 BF 03 F0 3E 84 F7 00 FC 73 10 9E 83 F9
DPCM : 0C EE 1F 04 CF C3 F0 0F C0 FF 01 F6 0F C0 CF 41 3E 84 E7 E1 7C 00 3E 87 7F 3C 00 FE 07 F6 03 F0
DPCM : 3F 80 C3 7F 00 FF 30 FC 07 83 F9 18 C4 67 70 FF 01 C0 CF 70 BE C3 78 0C F7 38 18 7F 00 DF 01 FF
DPCM : C1 78 80 FF 08 FE 01 9C 8F 81 FF 03 F8 01 FC 03 FE 0D CE 03 E8 C7 F0 7F 00 FE 03 CE 33 1C 87 F3
DPCM : 01 FC 0C FC 03 7C 0E 0E FF 83 7F 80 78 1C E6 07 F8 C7 70 1F E0 33 D8 E1 1E E0 07 F8 C7 61 7C 86
DPCM : F1 01 FE 03 FE 01 FC C3 07 E0 07 F8 3F 88 7F 00 9F C1 7C 80 FF C0 73 3C C0 FF 00 FE 0F CC 63 F0
DPCM : 8F E0 7C 00 FF 60 1C CF 83 77 E0 07 F0 1E 03 FF 00 FF 01 FE 01 FC C1 3D C0 3F 80 FF 03 F8 1F C0
DPCM : 4F 60 C7 F1 3C 80 7F F0 87 61 38 BF 00 F8 3F C4 C1 3F 80 FF 00 FE 03 B8 FF 03 E0 3F 80 17 DF 01
DPCM : 7F 20 83 FF 02 F4 7B 48 D4 07 7E D4 33 28 1E E7 73 80 17 F5 0D 7C 09 C3 FF 00 FC 0F C0 6F 19 C0
DPCM : FF 20 F8 3F 00 7F 0F C0 0F F6 21 9F 03 7E D4 03 F8 8B 0F C1 FB 10 67 3B C0 2F F1 90 1F F0 D3 07
DPCM : E1 7C E4 0F 60 DE 07 F0 F6 03 F8 83 BA 14 8F F5 2C 80 FF 41 51 F7 90 5A 7C 78 05 FC 03 7E 82 47
DPCM : FC 03 7C FC 03 4E F0 1F C8 85 F7 81 0E FC 07 F8 82 C7 FD 01 FC 50 05 3F F0 0F E8 7F 00 5E 0F 43
DPCM : 57 09 7F 4B 00 FE 07 1F E0 3F 58 A5 A5 3E C8 3D 14 7C 1F 48 3E F4 0F 70 C5 2F 70 07 FC C3 61 7C
DPCM : 80 7F 70 0F 33 C0 5F F8 84 C7 F8 0C EE F0 3C E8 03 FC C3 19 F0 CD 07 F0 61 7C C4 0F F8 0F C3 F1
DPCM : C8 1F C0 3F F0 1C E4 F9 0C D6 41 FC 83 F0 0F 3E 84 C7 F1 1C 86 F3 21 FE 00 FA 1F C0 17 FE 81 3E
DPCM : C0 EF 50 8E C1 7F 18 0E F3 0F C8 E1 3D 8C 83 F7 10 F4 EF 00 7C 87 1F C0 F1 3F 80 0F FC 83 71 78
DPCM : 0F C5 F0 07 FC 1C 86 6F C0 3F 18 8F E5 51 9C C7 70 1D F8 07 62 DD D4 4C 88 DF D1 02 E3 7F 10 97
DPCM : AA BE 20 7C 0F 63 55 D6 2A D8 3D 14 6D 1D 87 E1 5E 51 74 95 56 A5 55 55 A9 56 27 95 E8 5B 4A 62
DPCM : B7 9A 82 75 3D 92 45 D7 52 53 74 5D 4A A5 55 2D 53 B2 B5 AA 54 59 B5 49 55 5A B5 46 59 55 D5 D2
DPCM : 54 56 D5 52 55 55 4D 55 55 55 55 55 55 4D 55 55 55 B3 54 55 CB 52 55 55 6B 4A 55 D5 AA 52 55 55
DPCM : AB 54 65 AD AA 52 55 AD 52 55 D5 2A 95 D6 AA 25 55 D5 56 54 A5 AD A9 52 56 AD 25 69 D5 96 54 6A
DPCM : AB AA 94 D6 B6 48 5A B5 15 55 6A AD 5A 94 5A 5B 29 95 55 6B 49 55 55 AB 54 55 55 55 55 55 2D 55
DPCM : D5 2A 53 55 D5 AA 54 55 55 AD 54 55 B5 4A 55 55 55 2B 55 55 55 4B 55 55 55 4D 95 5A D5 54 55 55
DPCM : 55 55 55 35 55 55 D5 2A A5 56 AD 52 95 56 2B 55 69 55 AB 94 56 D5 52 55 6A 55 55 A9 56 AD 54 5A
DPCM : 55 2D 55 5A 55 55 55 55 55 55 55 55 55 55 55 55 55 55 55 55 55 55 55 55 55 55 55 55 55 55 55 55
DPCM : 55 55 55 55 55 55 55 55 55 55 55 55 55 55 55 55 55 55 55 55 55 55 55 55 55 55 55 55 55 55 55 55
DPCM : 55 55 55 55 55 55 55 55 55 55 55 55 55 55 55 55 55 55 55 55 55 55 55 55 55 55 55 55 55 55 55 55
DPCM : 55 55 55 55 55 55 55 55 55 55 55 55 55 55 55 55 55 55 55 55 55 55 55 55 55 55 55 55 55 55 55 55
DPCM : 55 55 55 55 55 55 55 55 55 55 55 55 55 55 55 55 55 55 55 55 55 55 55 55 55 55 55 55 55 55 55 55
DPCM : 55 55 55 55 55 55 55 55 55 55 55 55 55 55 55 55 55 55 55 55 55 55 55 55 55 55 55 55 55 55 55 55
DPCM : 55 55 55 55 55 55 55 55 55 55 55 55 55 55 55 55 55 55 55 55 55 55 55 55 55 55 55 55 55 55 55 55
DPCM : 55 55 55 55 55 55 55 55 55 55 55 55 55 55 55 55 55 55 55 55 55 55 55 55 55 55 55 55 55 55 55 55
DPCM : 55 55 55 55 55 55 55 55 55 55 55 55 55 55 55 55 55 55 55 55 55 55 55 55 55 55 55 55 55 55 55 55
DPCM : 55 55 55 55 55 55 55 55 55 55 55 55 55 55 55 55 55 55 55 55 55 55 55 55 55 55 55 55 55 55 55 55
DPCM : 55 55 55 55 55 55 55 55 55 55 55 55 55 55 55 55 55 55 55 55 55 55 55 55 55 55 55 55 55 55 55 55
DPCM : 55 55 55 55 55 55 55 55 55 55 55 55 55 55 55 55 55 55 55 55 55 55 55 55 55 55 55 55 55 55 55 55
DPCM : 55 55 55 55 55 55 55 55 55 55 55 55 55 55 55 55 55 55 55 55 55 55 55 55 55 55 55 55 55 55 55 55
DPCM : 55 55 55 55 55 55 55 55 55 55 55 55 55 55 55 55 55 55 55 55 55 55 55 55 55 55 55 55 55 55 55 55
DPCM : 55 55 55 55 55 55 55 55 55 55 55 55 55 55 55 55 55 55 55 55 55 55 55 55 55 55 55 55 55 55 55 55
DPCM : 55 55 55 55 55 55 55 55 55 55 55 55 55 55 55 55 55 55 55 55 55 55 55 55 55 55 55 55 55 55 55 55
DPCM : 55 55 55 55 55 55 55 55 55 55 55 55 55 55 55 55 55 55 55 55 55 55 55 55 55 55 55 55 55 55 55 55
DPCM : 55 55 55 55 55 55 55 55 55 55 55 55 55 55 55 55 55 55 55 55 55 55 55 55 55 55 55 55 55 55 55 55
DPCM : 55 55 55 55 55 55 55 55 55 55 55 55 55 55 55 55 55 55 55 55 55 55 55 55 55 55 55 55 55 55 55 55
DPCM : 55 55 55 55 55 55 55 55 55 55 55 55 55 55 55 55 55 55 55 55 55 55 55 55 55 55 55 55 55 55 55 55
DPCM : 55 55 55 55 55 55 55 55 55 55 55 55 55 55 55 55 55 55 55 55 55 55 55 55 55 55 55 55 55 55 55 55
DPCM : 55 55 55 55 55 55 55 55 55 55 55 55 55 55 55 55 55 55 55 55 55 55 55 55 55 55 55 55 55 55 55 55
DPCM : 55 55 55 55 55 55 55 55 55 55 55 55 55 55 55 55 55 55 55 55 55 55 55 55 55 55 55 55 55 55 55 55
DPCM : 55 55 55 55 55 55 55 55 55 55 55 55 55 55 55 55 55 55 55 55 55 55 55 55 55 55 55 55 55 55 55 55
DPCM : 55 55 55 55 55 55 55 55 55 55 55 55 55 55 55 55 55 55 55 55 55 55 55 55 55 55 55 55 55 55 55 55
DPCM : 55 55 55 55 55 55 55 55 55 55 55 55 55 55 55 55 55 55 55 55 55 55 55 55 55 55 55 55 55 55 55 55
DPCM : 55 55 55 55 55 55 55 55 55 55 55 55 55 55 55 55 55 55 55 55 55 55 55 55 55 55 55 55 55 55 55 55
DPCM : 55 55 55 55 55 55 55 55 55 55 55 55 55 55 55 55 55 55 55 55 55 55 55 55 55 55 55 55 55 55 55 55
DPCM : 55 55 55 55 55 55 55 55 55 55 55 55 55 55 55 55 55 55 55 55 55 55 55 55 55 55 55 55 55 55 55 55
DPCM : 55 55 55 55 55 55 55 55 55 55 55 55 55 55 55 55 55
DPCMDEF  23  4081 "789"
DPCM : 55 55 55 55 55 55 55 55 55 55 55 55 55 55 55 55 55 55 55 55 55 55 55 55 55 55 55 55 55 55 55 55
DPCM : 55 55 55 55 55 55 55 55 55 55 55 55 55 55 55 55 55 55 55 55 55 55 55 55 55 55 55 55 55 55 55 55
DPCM : 55 55 55 55 55 55 55 55 55 55 55 55 55 55 55 55 55 55 55 55 55 55 55 55 55 55 55 55 55 55 55 55
DPCM : 55 95 D1 55 75 54 56 55 D5 54 35 55 55 55 53 A5 2E D9 54 55 55 D5 64 69 93 2E 59 A5 07 B7 70 55
DPCM : 55 36 5C 55 95 4E 65 E9 A1 93 1E DA C4 8B 35 79 94 2E 8D 76 C4 2D 3E A8 07 9F F0 F0 A4 D5 81 3F
DPCM : F0 F0 83 1B 3C D6 B2 01 7F F4 C0 2E 1F 70 F1 03 4F FC C0 83 1F 4E F1 4A 43 F7 01 F5 16 E1 F5 81
DPCM : A3 3D 78 E0 0F 0E F9 D1 03 7E F0 C1 0F 1E FC A0 53 0F 78 F5 90 07 D7 85 C3 1D 3C 7C 85 C5 C7 43
DPCM : F8 C1 85 3F 84 D7 07 7C F0 03 3E 3E C0 CF 07 F0 CF 01 EE 07 C1 FF 00 DD 0F F0 C1 07 FC 61 78 3E
DPCM : F4 80 0F FE E0 83 0F F8 F0 83 87 E1 C3 F9 41 38 3F 0C DE 0F 3C F8 01 BF C0 47 7D C0 C7 1F 38 3C
DPCM : 08 FF 03 AE FC 80 6F E0 E0 47 1D 3C 5C 1F 82 87 3F E0 F9 21 F0 7F 00 7E 1E 80 3F 5C C5 1F F0 C3
DPCM : 07 F8 03 7E F8 80 1F 1D 5C 3E E0 0F 0F 5C 0F FA E0 E0 F8 71 78 78 38 3E 0C 1F 0F C3 E3 74 D4 91
DPCM : 15 FE C0 D3 07 85 7F E0 E0 0F 78 F8 0C DC 1F 0C FC 43 C1 9F C1 F0 6B E0 1F 3C F0 45 55 A5 47 F2
DPCM : 54 4D E5 E1 68 FA 60 1D 96 63 79 F0 51 55 87 C3 E5 51 55 55 D5 E0 B3 A4 56 B6 4A 3C 1D 0D EB 61
DPCM : 55 7C 0C 0F D7 68 2D 56 0B 1F F1 51 95 6A 47 36 69 4B F9 E0 32 BC 84 1F EA C1 17 78 4D D5 E0 1B
DPCM : 3A D1 4D 65 A9 1E 55 55 56 55 55 55 D5 54 55 7C 64 07 7D 38 1D 3C 55 4B 36 15 4F 55 A5 D5 74 14
DPCM : 8F D6 61 1D 3C 95 4D 53 C3 4D D5 61 55 65 35 55 95 35 A5 47 F1 54 55 1E C3 47 F1 E4 71 F0 54 7C
DPCM : 2C 0D EB 83 35 59 55 55 55 55 56 4B 69 35 55 55 35 95 55 4B A5 35 55 55 75 58 55 55 55 35 B9 54
DPCM : AD 62 55 55 55 55 4D 55 D5 34 F8 03 D7 E1 39 1C 87 F3 30 06 7E 82 EF 78 C0 8F 79 F0 07 C7 F0 03
DPCM : 7B 7C 00 FE F3 00 3C 9E 83 7F 00 EF E3 20 FC 10 5F 38 8E 3F 06 F4 1F C4 F3 30 9E 03 F8 C7 19 F0
DPCM : 31 1E CF C1 7D 0C 03 FF C0 1D 8E C1 F7 98 E1 3C 06 3F C3 81 7F C0 19 FC 87 23 F8 8C 0F F8 E3 01
DPCM : F0 03 FF E1 00 FF 39 04 FF 81 0F 3D C0 FF 60 E0 3F 18 C0 7F 78 0F 04 FC 07 10 FC 37 38 8F 1B F8
DPCM : 03 8E FF 01 FC F2 00 3F 80 E3 3F F0 1F 0C FE 07 00 F8 1F 1C FE 07 EF 41 80 FF 00 F0 3F 06 FE C3
DPCM : 70 78 78 0F 18 FF 01 DC C7 03 F9 01 3C 7F 02 F7 7B 00 FF 00 EF 38 80 7F 80 E7 3F E0 EF 08 EC 01
DPCM : 1E FC 80 CF 30 CE 77 E0 3E 0E C2 67 38 1E E3 F1 33 10 7F 08 C7 FF 20 B8 0F 87 E1 17 70 FE 09 E0
DPCM : 3F 00 FE 07 E0 FF 10 FE 07 01 FF C1 31 9E 00 FF 00 F8 1F 80 FF 43 70 3E 0E E3 0F 04 FB 1F C0 7F
DPCM : 70 88 9F F0 1D 9C 8F 01 F6 03 F0 FC 1D 98 1F 07 E6 47 C0 FE 07 F0 3F 01 F8 1F 00 FE C7 11 FC 07
DPCM : 60 FE 37 F0 1F 03 F0 1F E0 3D 0F E0 3C 0C F3 3E 00 FE 73 00 FF 01 98 7F 07 F6 03 80 F7 11 FC FF
DPCM : 00 EC 13 38 9F 03 FE 39 81 F9 18 C0 FF 07 E8 47 30 FC 0F F0 1F C3 E0 0F F0 E3 60 9E 67 30 1F 00
DPCM : DE CF E0 7E 07 60 3E 80 EF 1F 60 FC 07 87 E0 3D 8F E0 1F 00 FE 9F C3 79 1C 82 79 18 9C 7F 00 F8
DPCM : 3F 41 F0 1F 4F E0 1F 00 FE 1F C0 7F 0E 41 3E 0E E6 0F 10 EE 3F 80 F8 7F 80 7B 1C C2 7B 0C E2 3F
DPCM : 08 FE 33 30 1F 83 C3 7F 00 F7 F1 00 FF 01 06 FE 03 FF 3E 00 F8 0F E0 FF 07 E0 1F 00 7E 1F 60 1E
DPCM : C7 E1 1E C0 F3 1F C0 F7 03 F0 7F 07 E6 00 E6 FF 00 FC 07 80 FD 01 FF 3C 00 FE 67 60 FF 00 EE 81
DPCM : 7C 7C 00 FF 00 E1 3F E0 8F 0F C0 FF 01 9C FF 01 9E 83 79 1E E0 3F 02 E0 1F C0 FF C7 00 FE 00 E7
DPCM : FF 01 3E F0 0F 87 F0 1F 00 F8 0F E0 FB 18 E8 3F 00 FE 1F E0 0F F6 39 80 E7 3B 80 FF 00 CC 7F 10
DPCM : FE 03 80 FF 71 88 E1 FF 01 F0 3F 0C E4 0F 84 FF E1 C0 3F 18 80 FF 1C 06 F3 0F 60 BE 8F C1 F9 08
DPCM : F0 1F 1E E0 3F 86 E3 F1 1C 80 EF 13 CC F3 30 9C 1F 01 E7 E7 00 FF 47 20 FC 8F 01 FC 3D 00 7C 1F
DPCM : C1 FD 07 E0 7C 1E C0 F7 07 8C E7 23 00 FF 07 C0 FF 31 38 FE 00 E3 CD 03 1F FE C0 71 3E 00 F8 7F
DPCM : C0 78 3F 06 E1 9F C0 F0 3C 7E E0 0F 4E F0 07 C0 FF 07 00 FF 47 30 FC 03 1C EF C3 03 FD F0 04 FF
DPCM : 00 F0 FF 00 F0 7F 04 C1 3F C3 E0 3F 3C E0 0F 0F E0 1F 70 FC 0F 80 FF 43 08 FE 01 1E FE 83 A1 7F
DPCM : E0 70 3F 80 F3 3E 02 FF 1F 00 F0 0F 42 F0 9F 61 F8 83 87 FB 01 1C FF 09 F8 7D 00 C3 7F 80 63 3F
DPCM : 80 CF 0F 70 FE 07 80 FF 07 C0 FF 01 9C F9 00 8E FF 01 7C FF 00 70 3F 02 EC 7F 06 FF 0F 40 F8 07
DPCM : 00 FF 0F E0 FB 0C 86 F9 00 E6 CF 23 F8 7B 04 E4 3F 00 FE 3F 00 FF 07 10 FE 07 00 FF 1D 80 FF 03
DPCM : 80 FF 01 F0 FF 03 F8 3C 06 E3 3F 00 F8 F7 00 FE 3E 02 C6 67 E0 78 1F E0 FF 11 C0 FF 00 C3 7D 1C
DPCM : C0 EF 11 38 7E 07 E6 F3 01 FE 07 C0 F9 07 38 DC 73 06 FE 0F 00 E3 73 70 9E 0F F0 1F 03 F0 3F 80
DPCM : C3 7F 38 E0 FF 10 18 3F 03 E7 FF 80 FB 10 C0 FD 00 3C FC 8F 03 FC CF 00 FB 11 98 FF 07 E0 C7 01
DPCM : FC 0F E0 C1 7D 0E F0 FF 01 B8 0F C1 F9 C7 E0 7C 0C E0 3F 80 1F 9C E3 03 7E 8F C1 F1 31 98 7F 0C
DPCM : CE 63 80 FF 03 F0 03 7C C7 F0 FC 01 3C 8F C1 78 0F E0 3F 04 FC 4F F0 07 F0 7F 00 FF 1F 80 7F 0C
DPCM : C2 7F 00 FF 43 40 FF 00 FC 00 FF 37 C0 F7 10 9C C7 60 FC 03 B8 1F 00 FF 07 F8 0F F0 7D 00 FE 0F
DPCM : C0 7D 0C C6 8F 81 FF 01 F0 FF 00 7C 06 EF 23 F8 F3 08 FE 03 30 7C 0F CC 47 80 FF 03 F8 0F F0 3D
DPCM : 80 FF 43 E0 3F 00 FB 03 E0 7F 08 CE 67 C0 7F 80 FF 18 F0 1F 06 EF 03 98 0F 00 FF 83 F0 7D 84 FB
DPCM : 08 DE CF C0 FF 30 18 1F C1 F8 01 F0 1F 06 FF 03 F8 47 70 FE 06 F8 8F 81 F8 0C C6 1F 00 FF 21 F0
DPCM : 3F C0 3F 07 E3 3F C0 FB 08 C6 C7 60 7C 06 F0 8F C0 FB 0C C6 67 38 FE 00 9E CF 60 3E 07 E3 73 40
DPCM : FC 18 CC 7F 00 FF 03 F1 0F F0 79 0C E7 63 30 3E 07 C6 C7 C0 FD 06 E6 63 30 FE 00 DF EF 60 3C 06
DPCM : E3 73 60 7C 0C CE 0F E1 7C 06 E7 3B E0 7B 0E C6 63 30 7E 0F C6 C7 40 FC 07 C4 E7 70 7C 07 F7 8F
DPCM : 60 3C 06 C3 77 C0 7C 0C F8 CF 40 7E 0E C7 67 30 FE 11 8C 8F E1 F8 09 98 8F 40 FE 07 F8 8F C0 FB
DPCM : 03 F8 3F 00 FF 00 8C 3F 03 E7 63 F0 7F 00 FE 03 F0 7F 01 FF 43 20 1F 83 F1 67 60 7C 0C F0 1F 60
DPCM : FE 0E C6 F7 40 FF 18 8C 8F C1 F8 0D 88 1F 81 FD 03 B8 3F 81 F3 3F C0 7F 00 F4 07 70 7E 0E C6 4F
DPCM : 00 FF 01 FC 8F C0 F9 1F D8 1F 82 F1 31 98 CF 80 F8 1B 98 1F 81 F3 39 60 7F 0F F0 1F 83 FB 10 8C
DPCM : C7 C1 F1 1C F0 1F C0 FC 03 E0 3E 0E E7 3F 83 F9 08 8C 9F 81 FB 31 B0 1F C0 F9 1C C0 3F 0E F0 9F
DPCM : 83 FB 18 84 CF C1 F8 38 C0 7F 00 FF 71 C0 7F 1C E0 3F 00 FF 11 88 BF 03 F8 19 84 FF 00 FE 07 0C
DPCM : FE 1C 8E E7 00 FE C3 E0 7C 04 E7 E7 30 7E 00 FE 3B 08 FC 73 18 DE 03 F8 0F C1 F3 30 F8 1F 88 F3
DPCM : 10 CC 9F E1 F0 8F 01 FC 05 E6 7F 10 BE C3 31 3C 07 F8 0F 01 FF 0C 87 8F C1 E3 C7 71 78 78 00 3F
DPCM : 0F E0 7F C0 7F 18 E6 1F 18 9E C3 31 9E 07 E0 1F 83 FC 38 C0 7F 00 FF 01 CE 67 F0 41 7C 1E C0 7F
DPCM : 03 FD 07 C8 C7 01 F8 07 FE 63 08 7F F0 0F F0 C3 03 FC 07 E0 3F 83 F1 38 8C 9F 38 3C 8F E1 73 1C
DPCM : 07 FF 70 00 7F 00 9E FF E0 1F 07 E0 7B C0 8F 03 F8 05 FF E0 0F 07 F0 1F C0 F3 19 F8 3B 00 FE 0F
DPCM : F8 31 0C CF E1 39 38 C7 03 FC 0F 30 7E 07 FE 01 80 DF 07 3E E3 C1 0F E1 07 DE E1 21 7E 07 8E F7
DPCM : 80 DF 20 F8 7B 80 1F 3C 78 03 3F 07 CF 39 80 CF 41 D8 3F E0 0F 07 F0 1F C0 E3 1D FC 07 C7 E1 39
DPCM : 1E F0 0F C0 E3 3B F8 1E 0C FC 0F F0 81 07 FF 01 FE 60 0E 8F F1 1C 60 F8 0F FC C3 C1 FC 03 78 9C
DPCM : C3 71 F0 78 38 8F 07 F8 0F 70 78 0F FE 03 80 8F 0F FC C3 C1 39 8E 67 F0 C3 43 3C 0F E1 F8 04 FF
DPCM : 78 80 E7 01 7C 9E F0 1C 0F 3F 98 C7 43 78 1F 10 FE 07 F3 61 E0 CF 03 FC F8 E0 70 04 7F 38 C7 01
DPCM : 3E 4F 70 BE 07 79 1E C0 9F 07 F9 F8 C0 E1 1C FC 60 FE 03 78 1E C0 F8 0E CE 3F 80 0F 0F BC E7 C1
DPCM : A1 87 F8 C1 F3 3C C0 7D 80 E3 3F C0 7B 00 7F 3C 18 CF 07 86 E7 E0 31 9C C7 03 FC 03 63 FE 00 FF
DPCM : 07 E0 7F 80 C7 3F 08 BE 83 C7 E0 1E 1E E0 1F C0 F3 0F 78 7E 00 DF 0F 30 DF 03 F1 07 F0 1C 8E E7
DPCM : 01 FE 31 38 FE 03 C7 07 F0 F3 81 E3 3B 30 E7 20 BE 83 73 1E C0 7F 00 C7 7F E0 FC 01 F8 1F C0 7D
DPCM : 03 E1 79 04 7F E0 1F 07 F8 1F C0 F1 0D F0 7D 00 FF 03 C0 FF 41 3C 0F E0 39 0C EF 01 FC 47 78 FC
DPCM : 07 F2 1F C0 FF 01 0E F3 30 9E 83 F1 03 5E FE 01 F8 0F 01 FC 03 9C FF 80 FF 01 F8 0F C0 FF 00 E7
DPCM : 03 F0 FF 00 F8 0F 00 FE 07 E6 3F 90 F7 03 7C 6B C0 3F 00 FE 0F 00 FF 07 E0 FF 00 FC 01 C6 7F 80
DPCM : FF 01 F8 3F 00 FF 07 E0 1F 81 F8 0F C0 7F 00 EF 07 0E FE 01 DE 5F 00 FE 07 F0 0F C0 FF 01 FC 07
DPCM : 81 7F 00 DF C7 C0 7F 00 F9 1D 82 7F 00 FF 03 F9 19 D8 C7 80 FF 00 F8 0F 38 3F 03 FF 01 77 3C E0
DPCM : 1F 07 E3 03 F0 F3 0C FC 03 F8 0F 60 FE 07 F0 33 C1 6F 78 10 DF 03 FC E1 01 FC 0F B8 EF 01 FC 01
DPCM : F8 0F C0 FF 01 F8 0F E0 7F 00 FE 07 E0 7F 00 FF 00 E3 3F 00 FF 00 BF 1F 00 7F 81 FF 03 F0 C7 00
DPCM : FE 01 FD 07 F4 1F E0 79 80 FF 31 80 7F C0 E3 1F E0 0F 38 FF 00 FC 07 E0 1F F0 78 CE 03 7D E0 03
DPCM : FE 01 FC 0F 30 FF 03 FC 00 CF 3F C0 0F 63 CC 8F E0 F8 05 FE 78 80 9F E0 F9 18 F0 1F 80 FF 00 FC
DPCM : 1F F0 CF 00 FF 08 C4 3F 98 C7 03 F8 0F E0 3F 80 FF 03 F0 0F E0 3F E0 7B 18 1E 83 F3 03 FE 71 C0
DPCM : 3F 00 E7 1F D8 C7 03 F8 01 FD 78 04 9F 3E 03 FB 01 FC F4 01 7F 00 F8 03 FE 7F 00 FE 01 FF F0 80
DPCM : 3F 03 F8 1F C0 DF 00 F8 1F 78 1E E0 9C 0F F0 39 E0 7F 00 FE 07 9C 3F 80 7F 07 F6 21 98 5F C0 07
DPCM : 1E FE 00 FE 07 30 3F 83 F3 07 F4 73 30 1F 00 FC 87 F7 19 88 4F E0 7F 00 FC 83 E3 1F F0 CF 00 3E
DPCM : 04 FF 03 FC 0F 80 DF 83 C7 70 FC 83 79 18 86 1F F0 1F E0 7F 00 FC 03 FC 03 F8 38 0F 0F E7 83 78
DPCM : FE 80 7D 00 FE 03 F7 18 C2 3F F0 1E E0 3F 88 C7 61 F8 01 7F 30 FC 07 F1 38 9C C7 E0 F8 0C 1E 9E
DPCM : 87 33 F8 41 3E C2 77 18 F0 1F 70 F8 07 FE E0 83 FC 00 FF 19 F8 01 DE 07 70 9F C3 78 1C FE 01 1C
DPCM : C7 03 3C DF 21 F0 07 7F C0 07 FF 01 E7 F1 18 9C 83 3F F0 38 1C C7 C3 78 3C F0 DC 0F 38 F8 07 E0
DPCM : F3 38 98 C7 63 F8 07 7E 90 0F 81 CF 33 86 47 3C BE 83 7F 00 FC 0F C0 37 38 C6 E3 1D D0 3F 0E E2
DPCM : 19 8E 67 80 CF E1 3F C0 1F 1E F8 03 FC 1C CE 03 9C CF E0 1F 83 FF 00 3F 10 FE 01 FC 0F E0 07 38
DPCM : 3E 82 FF C1 1F 00 FF 01 F8 07 F8 1B DC 07 F8 7F 40 1E 82 FF 00 FE 81 F1 03 F8 1E FC 07 C3 73 38
DPCM : 0F E0 3F C0 F3 00 7F 18 FC 07 F3 01 FC 3F 80 C7 F0 1F F0 3C 80 F3 0F 8F 03 FF E0 38 0E E1 33 78
DPCM : 1C FE C1 70 1E E0 3B F8 0F 8C 87 07 F9 00 FF C1 37 30 7E 1C CE 83 7C 80 FF 30 F0 63 F8 07 F8 31
DPCM : 98 0F E3 39 FC 07 E0 0F C0 7F E0 1F C0 C7 61 7C 07 EF C0 1F C0 3F 1C 3C 86 FF 00 FE 03 F0 19 9E
DPCM : 07 FE 80 F1 A1 DE 07 F8 01 FC 87 81 9F E1 79 98 07 F8 1F C4 79 8C 87 E1 3E C0 FF 00 8F C3 7F 40
DPCM : 1E C2 7B 04 FF 00 FE 81 7F 04 7E 0E FE 03 F8 10 9E 07 FE 70 F8 07 E1 1D F8 31 98 87 F0 0F F0 39
DPCM : F0 1F C0 3F F8 03 F9 70 0E EF C0 7C 80 CF 03 7C 83 F3 E1 1C 3C 1E C7 E1 1C CC 63 78 1E C0 1F C3
DPCM : 3F F0 39 8C E3 3C FC 03 F8 01 3F 0C 7F C0 F1 0F 1E E0 73 38 07 EF 60 3E 98 0F 03 7F 30 FC C1 0F
DPCM : 3E 0E CF C1 73 98 0F E1 39 86 F3 08 4F FC 81 8F C1 E7 F0 39 9C 87 38 FC C1 3C C0 1F F8 01 EF E1
DPCM : 39 F8 07 E6 01 3F 3C C0 0F F0 1F 7C A0 07 8F 07 F8 07 FC 81 2F 7E E0 2F D0 0F FC 81 F0 11 3F C0
DPCM : 1F F0 0B EE F1 80 4F F0 1F FC 01 E3 03 7F 80 1F E0 E3 E1 F8 80 3F C0 7F F0 87 E1 3C DC 03 F8 31
DPCM : 1E 0F E7 81 7B 78 04 8F 0F 87 F1 70 3E 83 3F 30 1E C3 73 F0 03 3C 87 E3 0F F8 07 F0 67 F0 0F F0
DPCM : 1C 8F 87 F1 10 CF 03 F8 0E FE 03 7F 00 FF C1 78 C0 3F 84 F3 60 7C C0 1F C1 3F E0 9F 01 FF 60 3E
DPCM : 80 7F 80 3F F0 0F F8 07 F0 61 1F E0 07 FC 18 EE 21 3E C0 77 C0 7F F0 1E C0 3F F0 F0 07 FC 81 3F
DPCM : C0 1F F0 83 0D 1F F8 47 E0 0F F0 F8 07 FC 03 7E C0 79 18 FE 80 1F E0 F1 09 7E 81 7F F0 C0 0F F8
DPCM : 1F C0 0F E3 13 F8 07 F0 1F 0E 87 57 36 78 C3 0F FE 01 7C 08 FF 00 3F 01 FF C0 0F FC 81 F9 1C 7C
DPCM : 00 BF C1 3F 98 E3 81 0F F0 38 CE 07 7E E0 E3 07 7E C0 87 F1 1F C0 C7 E1 F9 70 0C CF 03 7C C6 71
DPCM : 38 1F E0 0F F8 0F E0 97 07 77 F0 07 EE 02 FC 61 3E 80 7F C0 0F F0 0F F0 1F C8 37 F8 C1 F8 07 3E
DPCM : 60 F8 03 FF C1 7C 80 0F F8 CD C0 47 BC 0F F2 01 7E 38 FF 80 79 1C FC C1 F9 00 7E E0 7C 80 E7 F0
DPCM : 0F F8 11 0F F7 03 3E C0 4F 18 0F F1 1D FC 03 FC 0F E0 01 7F 80 FF 70 0F 3F F0 07 E0 07 7F 00 FE
DPCM : 01 FC 07 FF C0 0F F8 0F F0 C1 1F C8 83 79 04 7F F0 1C E0 1F 8E 73 E0 0F 87 C3 F5 C1 3C 88 E7 F0
DPCM : 07 FC 81 F1 39 18 8F E7 C0 3E 82 1F 3E 3C F0 07 3E F0 F0 C1 7F 00 7F 80 0F F8 3C F8 03 FE C0 87
DPCM : 83 FF E0 07 C4 07 F8 03 FE 81 3F 0C E7 E1 3C 0C 1F F0 1F 00 3F E0 67 F8 0F FC 00 FF 80 3F 80 CF
DPCM : C1 3F F8 E0 F8 E0 03 7E 88 0F F8 0F F8 81 3F C0 3F 04 FF 81 1F F0 1F E0 C1 3D F0 07 7E 80 3F C0
DPCM : 07 FC 0F 0F 35 78 07 DF E0 83 C1 1F F8 0F FE 81 3F E0 07 F8 01 7E E0 0F 80 3F F0 0F F8 E1 F8 81
DPCM : 1F 83 7F C0 0F F0 01 FF 00 FF E0 1F C0 71 FC 01 FF 00 FF 03 80 3F F0 83 7F C0 3F F0 07 DE 21 C0
DPCM : 0F FF 01 7E C0 0F C6 0F F3 C3 40 FC 03 3E E0 0F FC 03 FF C0 E1 1F F0 07 F8 07 F8 C1 3F E0 05 7F
DPCM : 00 3F C0 0F F9 01 FE 03 7F F0 05 FC C1 07 CC 5F E0 54 1F 78 84 1F 7C 0A D7 41 7F C0 1F E8 23 F8
DPCM : 4A D5 A1 7C 54 5C F1 61 3C 2E A5 75 54 55 69 1D 5C C5 5B 90 1F 71 69 19 87 67 B1 56 AA 5A 16 AB
DPCM : 95 65 C5 55 95 56 A9 95 56 E1 15 5E 91 97 A5 72 D1 25 97 6A 5A 69 95 96 5A 96 C5 63 5A 5C 69 15
DPCM : C7 95 C6 65 A9 5C B1 69 19 9D C5 A5 71 69 9A A6 A9 56 25 27 57 6A 71 95 96 5A 1C 97 C5 69 5A 96
DPCM : 74 15 1D C7 65 C9 55 5A A5 59 55 5A 96 95 C5 65 6C 55 AA 95 96 96 65 A9 55 59 56 65 55 55 55 95
DPCM : A5 55 A5 55 A5 69 59 99 56 59 56 A5 55 55 55 55 55 55 55 55 55 65 55 55 55 55 65 55 55 55 35 55
DPCM : 55 55 55 55 55 55 55 55 55 55 55 55 55 55 55 55 55 55 55 55 55 55 55 55 55 55 55 55 55 55 55 55
DPCM : 55 55 55 55 55 55 55 55 55 55 55 55 4D 55 55 55 55
DPCMDEF  24  4081 "9"
DPCM : 55 55 55 95 55 55 55 55 56 55 55 55 55 55 55 55 55 55 55 55 55 55 55 55 55 55 55 55 55 55 55 55
DPCM : 55 55 55 55 55 55 55 55 59 55 55 55 55 55 55 55 55 55 55 55 55 55 55 55 55 55 55 55 A5 55 55 55
DPCM : 6A 55 55 56 55 95 66 55 95 5A 55 55 96 56 55 55 95 55 5A 55 6A 55 55 A9 55 59 55 55 95 55 65 55
DPCM : 55 55 6A 55 59 95 56 A5 56 A9 56 A5 56 A9 65 55 A9 55 5A 95 5A 55 A5 59 55 69 55 65 51 7D 4A D8
DPCM : D6 0E 80 FF 03 B8 EF 07 C0 CF 03 F8 7D 02 F8 3F 00 FC 0F C0 FF 07 80 FF 01 78 BF 07 E0 BF 03 E0
DPCM : 7F 00 FC 3F 00 FE 07 00 FE 0F 80 FF 07 E0 FF 00 D8 FF 00 38 FE 03 78 7F 00 FC 1F 00 FF 07 C0 FF
DPCM : 03 E0 3D 5E 30 9E 83 F3 1B 70 7C 0E E0 3F 00 FF C3 80 F3 3F 60 FC 04 9C FF 02 84 7F 00 FE 1F 80
DPCM : FF 3C 80 E3 39 98 E7 1F 00 FE 07 38 9E C7 01 F3 F9 0E E0 3F 0C E0 E3 38 FC 07 30 FE C3 10 FE 87
DPCM : 30 9F C3 F0 1F 08 FC 3F 00 EE 7F 00 FC 7B 00 DE 03 80 FF 03 C0 FF 07 00 FE 67 E0 F8 1F C0 73 3C
DPCM : EF 01 78 3E 00 E7 FF 01 F0 7F 00 F8 1F 02 FF 23 00 FF 03 38 FE 87 32 F0 E7 01 F8 FF 00 0C FF 03
DPCM : C4 F7 C0 C1 7F 18 0E FE 01 F9 0F 06 F8 8F 43 78 1F 00 FC 1F 01 FE E3 31 1C E7 91 C3 15 4F F0 F8
DPCM : C7 00 FC 1F 10 EC FF 00 E0 FF 03 80 FF 0F C0 FF 07 80 FF 38 84 73 38 84 E7 78 86 F7 78 00 C7 7B
DPCM : 0E C0 FF 07 00 FF 0F 60 FC 33 1C CE 43 30 FF 03 F0 7C 02 E1 FF 03 C0 FF 03 30 FC 0F CE F8 00 8F
DPCM : F3 E1 38 1E E2 F8 0F 83 F9 1D 80 FF 01 E0 3F 0E F0 1F 81 87 FF 00 CF E1 3D 0E 61 9C 8F 00 FE 7F
DPCM : 00 F8 8F 03 F0 FF 41 10 7F F8 05 C3 F1 1C C0 FF 39 84 F3 21 1C FF 01 C0 FB 0F C0 FF 1F 00 C7 67
DPCM : 60 78 7F 00 77 7C 00 E7 3E 07 1E DA 0F 81 FF C1 38 3C 83 E1 3F 07 88 FF 01 80 FF 1F 00 FE E3 01
DPCM : 7C 1C 07 EF 71 8C 87 43 1C F3 71 00 FF 1F 04 F8 FF 60 70 DE 03 30 9E E7 00 FF 0F 18 E7 F9 00 EE
DPCM : 3F 80 FF 01 C0 79 3C C3 71 3E 0C E0 7F 02 F0 3F 86 E1 1F 07 38 CF E3 0C FC 3F 0C E1 EF 01 E0 FC
DPCM : 1C 06 FF 83 30 1C CF 03 8E F3 07 E0 FF 07 60 3E 0F C0 FC 87 71 3C 07 F0 1F C3 E0 3F 86 E1 7C 04
DPCM : E1 7F 38 1C 66 7C 0C 8C F3 0D C3 F3 31 C0 FB 1C 86 F9 63 18 EE 3B 00 DC FF 00 C4 FF 01 C6 F8 1F
DPCM : 80 F3 1F E0 47 3C C6 80 FF 03 E0 FC 71 08 CF 03 FC 3F 06 38 CF F1 43 F8 F3 06 70 BF 03 20 FF 03
DPCM : 00 FF 03 E0 7F 8E 41 F8 0E C3 E7 1F 01 E8 FF 00 CC F7 00 FC BF 63 00 F3 6F 00 F8 1F 00 FF 1F 00
DPCM : FE 7F C0 E0 DF 43 00 FF 63 00 FF 3B 00 E7 3F 08 E6 79 00 0D DF 67 80 F7 C3 00 FF 07 D8 E7 03 18
DPCM : FF 1D 00 FE C7 31 88 EF 71 00 FF 3F 00 F2 1F 00 FF 3F 80 F0 C7 3B 00 EF E3 00 EF 03 C0 FF 1F 00
DPCM : FE FC 80 21 FE 03 80 FF E3 01 FE 47 80 F3 07 C0 FF 79 00 F1 9E 07 90 DF 67 00 FE 0F 02 FF 1F 00
DPCM : F0 7F 00 E3 3E C7 30 FC 0F 00 FC 7F 00 FE 0F 00 FE F7 10 86 3F 1E 60 F8 8F 03 F8 7F 00 FC 1F 01
DPCM : DC E7 01 C0 FF 1C E1 F0 1F 06 F8 3F 10 F8 1F 0F 98 EF 01 88 E7 79 8C F1 3E 1C E0 FE 21 30 FF 00
DPCM : F0 8F 27 18 FC F3 10 C6 FD 18 C0 FF 03 E0 FF 00 E0 7E 0F 70 BC E3 31 84 FF 30 80 FF C3 E0 FF 03
DPCM : 60 3C 1F 60 38 CF 21 8E EF 31 80 FF 0F 80 FF 03 C0 3F 1E 40 3E CF 33 80 FF 71 00 FF 3F 80 F3 3F
DPCM : 80 F8 3E C0 F0 0F E3 00 DF 47 00 FE 3F 80 FF 03 00 FF 7C 80 E1 3E 0F 03 9F C7 01 FC 7F 00 EF 1F
DPCM : 00 E7 73 00 C3 3F CE 41 F8 5F 00 CF 7F 00 DE 3F 00 EE F3 00 07 7F 9E 03 F8 8F 01 F8 FF 00 FE 7F
DPCM : 00 8E E7 01 C2 FB 3C 00 3E 9E 03 F8 E7 01 BC FF 00 9C E7 01 C6 7F 9C 03 F8 BF 03 F0 7F 00 FC FF
DPCM : 00 CC E3 01 84 7F 1C 03 FC 1F 42 F8 E7 00 BC FF 01 F8 C7 21 8C E3 BC 07 F0 1F 07 F0 CF 03 38 FF
DPCM : 03 78 CE 03 18 FF 38 08 E6 1F C6 70 FF 00 FC 8F 03 F8 0F 0E 80 EF FC 03 F0 3F 18 E0 FF 01 F0 FD
DPCM : 03 60 FF 07 00 FE 79 00 BC 8F 21 18 FF 23 C8 FF 01 38 7F 00 7C 8E E7 03 1E FA 1D C0 FF 00 86 FF
DPCM : 01 C6 F9 3F C0 31 DE 43 F0 F8 07 18 7E 1C 07 FF 0F 80 C7 67 60 F8 39 8C 07 7C 0F E1 F8 87 C1 F8
DPCM : 39 38 CC 7F 00 86 1F 7F 70 98 C7 30 9C F7 10 FC 67 10 8E 7F C0 1D E6 71 18 FE 70 38 F8 07 87 10
DPCM : 7F 00 FE C7 03 1E EF F1 18 DC 23 1C C0 7F 0E C3 F1 1D F0 3C 8C 27 F8 3F 30 78 B8 0F F0 0D 7E 81
DPCM : 7F 0E E0 C3 1F F0 B8 C7 41 38 8F F1 60 7C F8 03 3F 1F C0 3F 98 83 E1 9F 83 60 F8 0F E0 78 BE 03
DPCM : FC 07 06 FE F3 01 C6 E1 1F C0 79 1E E0 F0 1F 18 FC 9F 01 F0 8F C7 00 FF F0 00 8F FF 00 1E FF 43
DPCM : 20 7F 30 18 FF 07 38 8E E7 03 F8 E3 21 00 FF 0F E0 F3 7F 80 7F 1C 78 10 9F 07 1C CE E7 00 FF 1F
DPCM : 00 E7 73 00 FF F1 00 77 78 8E 83 38 1F 13 F0 FF 00 9E 1F 0E F0 E7 00 1E E3 79 F8 01 FC 0F E0 3F
DPCM : F0 01 FE 07 F0 1F FE 01 3C 87 E7 00 FE 01 86 DF 1F 00 FF 01 C7 F1 3C 80 E7 70 1E C3 BC 0F 0F E0
DPCM : 3F 00 8E FF 00 CE CF 3C 1C 9E E3 19 C0 FF 40 78 FC 03 F0 3E C3 61 FC 07 FC 30 1C 0F F0 FF 1D 00
DPCM : FF 07 80 E7 39 00 FF 03 FC 07 F2 F1 1C E0 7F 00 FC 9F 03 98 CF 61 30 9F C1 7F 30 0E 0F E0 E3 37
DPCM : 80 FF 39 80 F9 1C 86 FF 00 7E 06 F3 F1 10 7C 3F 04 FC 0F 20 9C CF 70 BC 0F F0 0F C2 79 0F 81 FF
DPCM : 03 E0 FF 08 C6 F9 10 C4 7F 80 FF 38 0C E7 31 98 7F 00 BC 8F 41 FC 0F C1 F8 0F 30 3F 01 FB 0F 83
DPCM : F3 31 C0 F9 18 8E 7F 0C 8E 1F 80 FF 23 38 EF 21 38 1F 03 DC CF E1 78 0F E0 3F 04 9C 1F 83 F3 3D
DPCM : 82 F3 31 80 FF 1C 8E F3 00 FE 63 20 FF 21 38 9E 03 78 1F 03 F9 8F E0 3F 0E E0 1F 06 E3 7F 00 DE
DPCM : 67 00 F7 03 F0 FF 30 FC 03 03 FE 18 1C CF C3 80 FF 8C C0 FD 18 CE FF 00 F8 30 1C FF 00 FC E8 87
DPCM : E1 3C 1E E0 1F 06 E3 8F E0 7D 10 F0 3B 86 3F F8 81 71 1E 0F E0 CF E0 FC 03 F0 1F C0 79 1E E0 1F
DPCM : 78 66 18 8F 0F F0 33 38 9F 03 FC 07 F8 3F 00 FE 0F CC E3 70 3C 07 F0 63 18 9F 81 F9 0D 9C 8F 71
DPCM : F8 0F CE E3 20 7C 07 E3 31 1C CF 01 FC 09 BE 0F E0 7C 07 DF 87 C1 78 00 FF 71 98 9F 00 FE 03 F8
DPCM : 3F 80 1F 07 F1 33 06 F3 01 FC CF 80 FF 00 EF 1F 20 BE 01 9F 71 E0 7F 18 9C 07 F0 3D 07 FB 20 F8
DPCM : EF 00 FE 03 F8 38 C1 3F 1C C3 79 00 9F E3 F0 1F C0 87 7E C0 3F C8 07 3F C7 E1 3C C0 07 F8 1C E0
DPCM : BF C1 F7 70 0F E0 83 07 F8 C1 E7 F1 04 FC 00 3F 07 CF 73 F8 0F EE 00 C7 78 01 7F 38 1F 8F 83 7F
DPCM : E0 0F E0 F1 0D FC 00 1F E0 7C 18 CF 03 7F 18 3E 80 1F F8 C3 79 FC 03 FF E0 11 70 10 1F F8 C1 7F
DPCM : E0 7B F0 0F 9C 03 C1 FF C0 0F F0 08 0E 0F 8F 3F E0 0F E3 33 F0 0F FC 00 9E 77 F0 1F F0 0C CC 03
DPCM : 3E 1E E3 23 DC 63 F0 0F FC 20 8E 3F F0 07 78 0E F8 07 7E 1C E2 C3 8F 03 F0 0F FC 30 8F 1F F8 03
DPCM : 78 0E F8 03 FE 38 F8 01 9F 63 E0 1F F8 01 1F 1F E1 77 30 0F FC 03 7C 80 FF 01 3F 86 C0 3F F0 03
DPCM : 3E 8F C3 7B E0 07 F8 07 FC 80 CF 05 3E 8E 03 7F E0 07 7C 7C 0E FF 00 1F E0 07 F8 61 9F 31 3C 0E
DPCM : 07 FC 80 3F F8 F1 03 7C 07 DE 80 3F C0 0F 7E 0E F9 06 33 F0 07 FE C0 E3 0F F0 0F 78 03 FF 00 1F
DPCM : F8 1E 2A C7 0C C1 1F F8 07 3F 9E E0 3B E0 07 CC 07 FC 80 FF D0 39 C4 01 7E C0 1F FC F3 04 FF 80
DPCM : 1F 70 3C C4 C7 F8 0F 07 C1 0F F0 03 7F E0 B7 87 78 02 7C C2 E7 81 5F F0 1F 3C C0 0F C3 33 F8 83
DPCM : 7B 3C F0 39 F8 03 9C 07 7E A0 7F F0 03 7D 00 3E F0 1F C6 F7 C0 E3 00 3E E0 1F FC 01 FF 83 07 FC
DPCM : 01 F0 0D FE 02 FF 07 3E 20 FC 01 FE E0 07 F7 38 8E E0 13 88 3F F0 2F E0 3F F8 21 C8 0F F0 0F 7E
DPCM : E0 E3 31 0F 65 03 F8 07 7D 8C DF 83 0E 63 FC 00 3F E0 07 FE C3 07 96 79 C0 3F F0 07 F8 0F 7C A8
DPCM : C0 3F E0 07 7E C0 27 7E E0 07 0F F8 03 7F C0 DF 63 D8 11 FC 01 3E E0 07 FC C3 1F 7C F0 01 7E E0
DPCM : 0F F8 A9 0F FC 80 0F E0 0F FC 80 7F F8 C0 3B 1C C0 1F F8 03 FE F1 C1 1F F0 01 FC 01 3F 84 7F F8
DPCM : C0 8F 07 E0 07 FE 80 7F 7C E0 0F 7C 80 5F C0 0F E3 1F 7C 70 8D 07 F0 03 7F E0 CF C2 F0 0F 3E C0
DPCM : 2B E0 0F FC C3 1F F0 E1 19 F8 03 3F C0 3F D8 F0 07 FC 00 3F C0 0F CE E3 1F F0 E1 0F F0 01 3F C0
DPCM : FF 60 F4 0F F8 00 3F F0 03 1F FE C1 3C F0 0D F0 07 7E 80 1F F5 81 1F F8 03 7E E0 07 1E FE 05 F8
DPCM : C3 1F C0 1F 3C 80 3F CE 41 7F C0 07 FC C0 0F 3C E0 7F 03 3E 7D 00 7F E0 07 3E F0 07 FC 81 1F E0
DPCM : 07 0E FC 0B F7 19 FE 81 07 F8 01 1F F8 E1 0F F8 0F 98 03 1F F0 C1 0F F8 3F C0 7F 40 C0 3F 78 E0
DPCM : 0F FE 21 3F C0 7F C0 03 07 FC 81 FF 07 E0 3F 10 FC C0 07 FC E3 07 F8 07 F0 0F 30 FC C0 1F 79 F5
DPCM : 19 3C 3E 00 3F F0 C1 0F FC 0F F8 03 0D 72 07 1F F0 C7 07 FE 03 0F F5 C0 07 7C F8 01 FE 07 FC C1
DPCM : 78 80 F3 1C 8E 3B 8F C3 F0 C3 11 F0 33 0E 9F 47 F8 03 3F F0 00 FE 09 FC 87 0D FF C0 E0 6F 00 FC
DPCM : 3E 80 F7 0F E0 87 1A F6 01 FC 05 FC 17 0D FC 07 9C FB 00 1E FE C0 D4 1F E0 87 75 70 0B C3 3F E0
DPCM : 53 2E DA 07 F8 3C 06 F4 1D CC 63 55 7C 05 BE C3 64 1E CE 61 39 0F B5 78 0E 65 B5 03 FB 70 1C D6
DPCM : E1 38 3C 0E 8F F1 58 BC 64 0B 6F 51 87 E7 61 1C 96 87 C3 C3 E3 78 94 F3 70 1C 8E E3 34 D5 E1 39
DPCM : 38 1D 47 F1 54 39 9C 0F C3 73 3C 94 87 47 E1 7D 30 C6 8F 70 39 1D C5 E5 70 5A 75 78 1C 8E E3 51
DPCM : 5A 35 0D E7 63 70 1E 0F C5 75 8A 74 6D 4C 6A D3 51 C5 E3 71 38 3C 87 F1 2C 95 D3 E1 70 35 35 78
DPCM : 5D 34 F8 16 05 DF 43 61 77 0A E9 73 06 DE D1 70 78 35 2C 2F 0D 57 87 87 E5 61 69 E9 64 7A 34 16
DPCM : CF 52 D1 55 45 C7 E5 58 5A 55 55 5A 95 96 56 55 55 55 55 55 55 55 65 65 65 65 59 55 55 55 55 55
DPCM : 95 55 65 55 55 55 55 55 55 55 55 55 55 55 55 55 55 55 56 55 55 55 55 55 55 59 55 55 56 55 55 55
DPCM : 55 55 55 55 55 55 55 55 55 55 55 55 55 55 55 55 55 55 55 55 55 55 55 55 55 55 55 55 55 55 55 55
DPCM : 55 55 55 55 55 65 55 55 55 55 55 55 55 55 55 55 55 55 55 55 55 55 55 55 55 55 55 55 55 55 55 55
DPCM : 55 55 55 55 55 55 55 55 55 55 55 55 55 55 55 55 55 55 55 55 55 55 55 55 55 55 55 55 55 55 55 55
DPCM : 55 55 55 55 55 55 55 55 55 55 55 55 55 55 55 55 55 55 55 55 55 55 55 55 55 55 55 55 55 55 55 55
DPCM : 55 55 55 55 55 55 55 55 55 55 55 55 55 55 55 55 55 55 55 55 55 55 55 55 55 55 55 55 55 55 55 55
DPCM : 55 55 55 55 55 55 55 55 55 55 55 55 55 55 55 55 55 55 55 55 55 55 55 55 55 55 55 55 55 55 55 55
DPCM : 55 55 55 55 55 55 55 55 55 55 55 55 55 55 55 55 55 55 55 55 55 55 55 55 55 55 55 55 55 55 55 55
DPCM : 55 55 55 55 55 55 55 55 55 55 55 55 55 55 55 55 55 55 55 55 55 55 55 55 55 55 55 55 55 55 55 55
DPCM : 55 55 55 55 55 55 55 55 55 55 55 55 55 55 55 55 55 55 55 55 55 55 55 55 55 55 55 55 55 55 55 55
DPCM : 55 55 55 55 55 55 55 55 55 55 55 55 55 55 55 55 55 55 55 55 55 55 55 55 55 55 55 55 55 55 55 55
DPCM : 55 55 55 55 55 55 55 55 55 55 55 55 55 55 55 55 55 55 55 55 55 55 55 55 55 55 55 55 55 55 55 55
DPCM : 55 55 55 55 55 55 55 55 55 55 55 55 55 55 55 55 55 55 55 55 55 55 55 55 55 55 55 55 55 55 55 55
DPCM : 55 55 55 55 55 55 55 55 55 55 55 55 55 55 55 55 55 55 55 55 55 55 55 55 55 55 55 55 55 55 55 55
DPCM : 55 55 55 55 55 55 55 55 55 55 55 55 55 55 55 55 55 55 55 55 55 55 55 55 55 55 55 55 55 55 55 55
DPCM : 55 55 55 55 55 55 55 55 55 55 55 55 55 55 55 55 55 55 55 55 55 55 55 55 55 55 55 55 55 55 55 55
DPCM : 55 55 55 55 55 55 55 55 55 55 55 55 55 55 55 55 55 55 55 55 55 55 55 55 55 55 55 55 55 55 55 55
DPCM : 55 55 55 55 55 55 55 55 55 55 55 55 55 55 55 55 55 55 55 55 55 55 55 55 55 55 55 55 55 55 55 55
DPCM : 55 55 55 55 55 55 55 55 55 55 55 55 55 55 55 55 55 55 55 55 55 55 55 55 55 55 55 55 55 55 55 55
DPCM : 55 55 55 55 55 55 55 55 55 55 55 55 55 55 55 55 55 55 55 55 55 55 55 55 55 55 55 55 55 55 55 55
DPCM : 55 55 55 55 55 55 55 55 55 55 55 55 55 55 55 55 55 55 55 55 55 55 55 55 55 55 55 55 55 55 55 55
DPCM : 55 55 55 55 55 55 55 55 55 55 55 55 55 55 55 55 55 55 55 55 55 55 55 55 55 55 55 55 55 55 55 55
DPCM : 55 55 55 55 55 55 55 55 55 55 55 55 55 55 55 55 55 55 55 55 55 55 55 55 55 55 55 55 55 55 55 55
DPCM : 55 55 55 55 55 55 55 55 55 55 55 55 55 55 55 55 55 55 55 55 55 55 55 55 55 55 55 55 55 55 55 55
DPCM : 55 55 55 55 55 55 55 55 55 55 55 55 55 55 55 55 55 55 55 55 55 55 55 55 55 55 55 55 55 55 55 55
DPCM : 55 55 55 55 55 55 55 55 55 55 55 55 55 55 55 55 55 55 55 55 55 55 55 55 55 55 55 55 55 55 55 55
DPCM : 55 55 55 55 55 55 55 55 55 55 55 55 55 55 55 55 55 55 55 55 55 55 55 55 55 55 55 55 55 55 55 55
DPCM : 55 55 55 55 55 55 55 55 55 55 55 55 55 55 55 55 55 55 55 55 55 55 55 55 55 55 55 55 55 55 55 55
DPCM : 55 55 55 55 55 55 55 55 55 55 55 55 55 55 55 55 55 55 55 55 55 55 55 55 55 55 55 55 55 55 55 55
DPCM : 55 55 55 55 55 55 55 55 55 55 55 55 55 55 55 55 55 55 55 55 55 55 55 55 55 55 55 55 55 55 55 55
DPCM : 55 55 55 55 55 55 55 55 55 55 55 55 55 55 55 55 55 55 55 55 55 55 55 55 55 55 55 55 55 55 55 55
DPCM : 55 55 55 55 55 55 55 55 55 55 55 55 55 55 55 55 55 55 55 55 55 55 55 55 55 55 55 55 55 55 55 55
DPCM : 55 55 55 55 55 55 55 55 55 55 55 55 55 55 55 55 55 55 55 55 55 55 55 55 55 55 55 55 55 55 55 55
DPCM : 55 55 55 55 55 55 55 55 55 55 55 55 55 55 55 55 55 55 55 55 55 55 55 55 55 55 55 55 55 55 55 55
DPCM : 55 55 55 55 55 55 55 55 55 55 55 55 55 55 55 55 55 55 55 55 55 55 55 55 55 55 55 55 55 55 55 55
DPCM : 55 55 55 55 55 55 55 55 55 55 55 55 55 55 55 55 55 55 55 55 55 55 55 55 55 55 55 55 55 55 55 55
DPCM : 55 55 55 55 55 55 55 55 55 55 55 55 55 55 55 55 55 55 55 55 55 55 55 55 55 55 55 55 55 55 55 55
DPCM : 55 55 55 55 55 55 55 55 55 55 55 55 55 55 55 55 55 55 55 55 55 55 55 55 55 55 55 55 55 55 55 55
DPCM : 55 55 55 55 55 55 55 55 55 55 55 55 55 55 55 55 55 55 55 55 55 55 55 55 55 55 55 55 55 55 55 55
DPCM : 55 55 55 55 55 55 55 55 55 55 55 55 55 55 55 55 55 55 55 55 55 55 55 55 55 55 55 55 55 55 55 55
DPCM : 55 55 55 55 55 55 55 55 55 55 55 55 55 55 55 55 55 55 55 55 55 55 55 55 55 55 55 55 55 55 55 55
DPCM : 55 55 55 55 55 55 55 55 55 55 55 55 55 55 55 55 55 55 55 55 55 55 55 55 55 55 55 55 55 55 55 55
DPCM : 55 55 55 55 55 55 55 55 55 55 55 55 55 55 55 55 55 55 55 55 55 55 55 55 55 55 55 55 55 55 55 55
DPCM : 55 55 55 55 55 55 55 55 55 55 55 55 55 55 55 55 55
DPCMDEF  25  1969 "go"
DPCM : 0F 00 FE 0F 00 00 FE 80 FF FF 01 00 00 00 F0 FC FF FF FF 07 00 3E 00 00 00 00 80 FF FF FF FF FF
DPCM : FF 7F 00 00 00 00 70 C6 FF CB FB FF E7 FF 05 80 00 12 18 00 00 00 00 00 FC FF FF FF FF FF FF FF
DPCM : FF FF FF FF FF FF 17 04 00 00 00 00 00 00 00 B8 FF FF FF FF FF FF FF 84 FF 7F FE FC FF 07 00 00
DPCM : 00 02 80 07 01 00 FE 3F 70 50 E0 FD FF FF 01 70 FF F3 FF 00 14 03 FD FF 02 E0 7D 86 E7 7D 00 61
DPCM : 06 7C 1C 00 00 00 E0 FE 07 DC 7F C8 42 EF FB 00 F0 FF F3 78 FF E3 1F F2 FE 0F 8E EF 07 3D 0E 02
DPCM : 04 C6 20 86 C0 FB 79 0C E7 8D 9E FF 3F 02 02 1E 0F E1 10 03 16 F0 1F 3E 78 30 0F 73 30 8F 9F C5
DPCM : C7 FF BF DF E1 C7 79 DC 03 00 00 C2 03 0E F0 82 83 7E F8 BF 7F 60 1E FF FF 71 18 F6 61 80 87 18
DPCM : 00 C2 87 71 FB C9 01 80 E3 A1 EF 30 8C E3 7F FF 3F 0B C2 3B 3C F9 01 D0 04 03 40 F4 BE 30 70 7C
DPCM : FF FB F7 C0 01 BE 3F 16 C0 1C 4C 06 30 0C C2 F9 3F 3F 1E 7C 0E 30 DE E7 31 1C E0 EB FB 12 EF 01
DPCM : C1 80 EF F3 3F 38 E0 C1 FE FF 04 81 FE C7 C7 00 C7 01 D0 00 E0 01 00 0D E0 F3 07 C1 FF 7F 78 FF
DPCM : DD 9F FF E9 79 F6 87 71 60 0F F8 01 F9 00 80 E7 7F 00 08 D0 20 0E FF 1C 01 38 F8 FE DF 07 00 31
DPCM : 7F FF B0 3B 26 C0 F1 7F FE E0 1C 98 FB FF 7F 0E 06 40 FC 0F 30 00 03 00 E0 FF 6F 00 00 40 FF 7F
DPCM : 1A E6 4C FC FF FF 07 00 7C 38 FE FF 01 00 00 F1 77 E0 13 00 00 76 FF FF EF 21 18 FC FF FF 3F 01
DPCM : 00 DF FC 7F 00 00 00 3F E4 FF 03 00 00 EC C7 FF A1 03 38 FF E3 FF 8F 73 00 00 FC FE 07 00 C0 00
DPCM : B8 F3 7F 58 08 C2 9F FF FF 83 F1 0C FE FC 38 FF F0 2F 00 F8 01 0E 00 E6 0E 40 60 FE C1 0F C0 01
DPCM : FE 01 FF 7F 08 BC E7 7F FF FF 07 00 FC A3 3F E0 FF 01 00 10 C0 FF 35 00 00 00 1C 1F F0 E3 FF E1
DPCM : C1 E3 07 FF 8F FF 43 F0 C1 37 C1 FF 1F 1E 20 C0 F9 F8 FD 00 00 00 00 C0 FF FF 03 00 D8 FC FF 5F
DPCM : F2 83 71 3C 00 FE FE 3D 3B 02 F8 FF 1F BC FF 00 00 EC 00 03 3E 80 08 00 E0 E3 7F F0 FB 03 04 3C
DPCM : FF FF EF C1 FF F8 01 7F F8 C1 9F B0 01 00 00 3F FC 00 3E F0 F1 3F 1E F0 FE FF 31 06 00 00 10 FB
DPCM : 7F 00 08 8F F7 7F 1C 8E FF F3 7F 9E 8F 00 00 1E 06 F0 F0 3F E0 00 3C 00 F8 E7 FF FF 39 06 02 00
DPCM : C8 FF FF E1 80 01 C0 07 FE FF FF 3F 1E 73 60 07 38 F0 0F 97 E6 63 00 02 10 27 7C 7E 7C E2 0E 00
DPCM : 00 9F FF FF FF 1E 02 04 E0 F3 23 F8 FD F1 61 F0 FB 9E CF 1F 3E 04 86 63 01 00 C0 38 C0 01 C4 FE
DPCM : 7B 00 EF FF FF 7D FE FF 8F E7 E1 03 03 08 06 40 00 10 0C 1C FC 38 FE FF FD 01 00 BF E7 0F 01 00
DPCM : 38 FE FC F8 E2 F0 70 F8 7F CE 1F 3E FF 8F 03 08 78 C0 FB DB 61 00 00 00 F0 7F 24 C8 03 FC C7 8F
DPCM : 7F FF CF DF F1 38 40 00 00 00 08 1C 82 03 9F 3F 3F FF FF FF FF FF FF 1F 18 E0 81 03 00 0E 00 00
DPCM : E6 41 00 38 FF FF 8F 63 FA 9F C3 F1 3F CF 07 30 00 DE CB 03 02 F8 3F FF 81 01 00 F6 DF 9F 43 E0
DPCM : D0 CC 37 F3 70 A0 F0 7F 7F C0 30 3C 4E CF D2 B7 61 00 00 C3 FC 73 E0 C1 83 9B FF 67 00 30 E2 FF
DPCM : 1F 3C FC C7 79 10 10 CC BD E1 E3 18 9C 87 61 CB 7F 1E 83 87 C9 8B 87 87 CC 21 12 86 CE 7D 3B 40
DPCM : 20 F3 F1 F3 86 0B AC DD 7D CE 0C 36 7C FE 87 11 71 CD 8A 60 85 87 0D 1B 12 BE 61 18 82 CF FE B0
DPCM : 61 F0 7E FC 05 77 3C 8E 97 61 F9 E1 F1 70 FC 80 D0 C1 DD 78 32 07 1C 39 3F 0E C6 41 87 E3 87 2D
DPCM : 7A E1 E3 68 CF A1 F3 74 54 10 33 9D 9A 4D D6 28 95 F2 C8 21 4D 3E CE AD D5 D4 34 39 55 B2 E5 7C
DPCM : 4C 66 B6 E4 66 36 B4 E1 89 CD 9C 4C D2 A4 A6 6C 6A 2A CE 64 2B C7 0C 97 71 AD 65 55 56 5A 36 D5
DPCM : D2 1C 27 4D 55 39 33 DB 8C 59 51 95 E6 D1 C3 52 E4 6C 55 35 33 63 14 79 BA 9A 2D 4D A5 D2 D9 DA
DPCM : A9 B1 52 C5 AC AA 56 25 93 2A 73 AC 9A 95 49 C3 56 B3 66 A9 CA 99 C6 99 95 56 C6 66 55 A7 56 72
DPCM : B4 A9 39 66 95 99 54 55 4D 2D 55 65 55 55 73 C6 66 B2 1C 2D 53 4B 55 35 55 55 55 55 65 AC 31 35
DPCM : 55 19 AB 72 66 55 AB AA AA 55 CB 9A B4 B2 69 4E 95 66 66 A6 A9 99 6A A6 A9 34 AB B2 4C 55 55 55
DPCM : 55 55 26 AB B4 AA 6A 95 95 99 99 55 99 55 9A 59 65 65 55 55 35 55 2B 9B 9A A9 A9 A9 32 55 55 95
DPCM : 55 65 AA 4A 35 53 AD AC 99 59 55 35 CD 2A 2B 2B AD AC AA AA AA AA AA 2A 55 55 55 55 55 55 6A A9
DPCM : 6A 55 55 55 D5 B2 AA 2A AB 2A 2B 53 55 AA 4A 95 A5 CA AA AA 55 AB 5A 55 55 AB 6A 55 CD AA AA 6A
DPCM : 9A AA 4A 55 A5 4A 55 55 AA 4C 55 55 55 55 AB 6A 55 B5 AA 6A A6 95 AA 52 55 55 69 AA 52 A5 5A 6A
DPCM : 56 D5 CA 5A 55 55 55 AD AA 66 AA A5 55 59 99 A9 2A AB 54 55 55 55 55 55 55 59 55 55 55 55 55 55
DPCM : 55 55 55 55 55 55 55 55 59 A9 99 AA 9A AA AA A6 AA A9 69 69 5A 99 5A 55 55 55 55 35 55 33 AD AA
DPCM : AA AA AA B2 AA CA AA AA AA AA AA AA AA AA AA D2 4C 55 55 55 55 A5 A5 AA AA B2 B2 CC AA AA AA AA
DPCM : 6A 55 55 55 55 55 55 55 55 55 55 55 55 55 55 55 55 55 55 55 55 55 55 55 55 55 55 55 35 53 55 55
DPCM : 55 55 55 55 55 55 55 55 55 55 55 55 55 55 55 55 55 55 55 B5 AC AA AA AA AA AA 32 55 55 55 95 A5
DPCM : AA 54 55 55 99 55 56 55 CD CA AC AA 9A 5A 59 55 55 55 AD AA 55 55 55 55 55 55 55 99 AA 2A 55 55
DPCM : 55 55 55 55 55 55 55 55 55 55 55 55 55 55 55 55 55 55 55 55 55 55 55 55 55 55 55 69 AA AA AA AA
DPCM : AA 99 55 55 55 55 55 55 55 55 D5 AA AA 55 D5 AA 5A 59 59 A6 2A 55 A5 52 55 95 2A 55 AA AA AA 4A
DPCM : 2B B3 AA AA AA AA 56 55 D5 AA 59 55 55 B3 5A 56 55 55 55 55 55 65 65 AA AA AC 4A 55 2B B3 AA AA
DPCM : AA AA AA AA AA 54 4D 55 55 55 55 55 55 AA AA AA 54 55 A9 AA AA AA A6 66 55 B5 AA 66 55 55 55 55
DPCM : 55 55 55 55 35 B5 AC AA AA AA 56 55 55 55 A6 AA AA 4A 55 55 55 55 55 55 55 55 55 55 55 55 55 55
DPCM : 55 55 55 55 55 55 55 55 55 55 55 55 55 A5 AA 4A 55 55 65 A5 59 55 CD AA 55 55 55 B5 AA 5A 55 55
DPCM : 55 55 AD CC 4A 55 55 99 A9 4A 55 55 55 55 A9 65 55 6A 55 55 55 55 55 55 55 55 95 2A 55 A5 AA AA
DPCM : CC D4 AA 56 D5 AA 55 55 AD AA 55 35 AB AA AA 5A 56 55 AA AA 2A A5 2A 53 55 A5 2A 4B 55 B5 54 AB
DPCM : 56 55 55 55 4B 55 4B 55 95 AA AC 62 A6 A9 AA AC A5 E5 AA 56 56 35 2D CB 6A A5 55 59 55 B5 4A 2D
DPCM : 8D 2B 71 56 B2 54 95 56 96 96 C6 A6 A5 55 55 55 53 55 55 55 65 AA A9 D2 64 39 65 7A 49 5D 65 6A
DPCM : 15 CF 32 55 56 65 55 95 D6 91 D6 35 CA 93 78 0F D8 1D 4C 53 D6 3A 4C E5 1C C7 43 B9 A3 18 57 55
DPCM : 55 55 55 55 55 55 55 55 55 55 55 55 55 55 55 55 55 55 55 55 55 55 55 55 55 55 55 55 55 55 55 55
DPCM : 55 55 55 55 55 55 55 55 55 55 55 55 55 55 55 55 55 55 55 55 55 55 55 55 55 55 55 55 55 55 55 55
DPCM : 55 55 55 55 55 55 55 55 55 55 55 55 55 55 55 55 55 55 55 55 55 55 55 55 55 55 55 55 55 55 55 55
DPCM : 55 55 55 55 55 55 55 55 55 55 55 55 55 55 55 55 55 55 55 55 55 55 55 55 55 55 55 55 55 55 55 55
DPCM : 55 55 55 D5 DA F0 55 55 55 55 55 55 55 55 55 55 55
DPCMDEF  26  3521 "youwin"
DPCM : 4D 55 E5 61 7A F0 01 7E F0 07 1F F0 C3 3D 78 F0 07 3E F0 C1 0F F0 73 58 3C F4 83 65 F0 13 3E 5C
DPCM : 0F D6 E0 D3 74 F0 03 D7 F0 00 7F F8 07 1F E0 C3 78 7C E0 0F 0E F5 03 7F E0 A1 0F F8 03 3E CE E0
DPCM : 07 FE E0 0A 7E F0 61 07 7E D4 03 FE 80 1F 78 C0 0F FC C1 07 7F F0 0F 8C CF C0 87 39 FE 80 1F B8
DPCM : C1 07 FE C1 11 7E E0 0F FC E0 0F F8 01 1F F0 01 3F F8 07 1F F0 E3 51 F4 3A F0 0F BC 81 83 7F C0
DPCM : A3 1E 3E 80 7F E0 83 FF 80 3F E0 0F 9E C1 07 F8 80 3F 3C E0 0F F0 0F FC C1 71 FC 80 1F 1E E1 83
DPCM : 7F E0 0F FC 00 7E 00 3F E0 C3 3F F8 03 7F E0 83 1F C0 1F F0 0F 7C F8 03 3F C0 F9 01 FC 03 C3 FF
DPCM : 00 3F E0 87 0F F0 07 FE C0 7D 78 00 3F E0 8F E1 B9 0F FC 01 7C 38 01 FE C0 3F F8 81 0F F0 03 FE
DPCM : 15 9C 1F 81 FF 01 3F F0 07 C1 E7 79 78 07 FE C0 0F 78 C0 1F F0 07 FE 80 07 FC 01 7E C0 0F FB E1
DPCM : 1F E0 73 00 DF E0 1E CE C3 0F F0 03 F8 23 3C 8C 87 FF 00 FF 07 F8 01 DF C1 3F 00 1F E0 C3 1F F0
DPCM : 07 F8 0F 0F F0 03 FC 80 7F 3E 18 1F 83 FF E0 3C 1C 86 3F B0 0F E1 7D 10 F0 1F C0 C7 E0 3F 70 0F
DPCM : FF 03 F8 00 9F 77 00 FF 01 F8 07 80 1F C0 E7 0F F0 3F 30 1F E0 1F 0F E0 67 78 9E 83 FF 00 E2 37
DPCM : F8 F9 00 FF C1 79 38 1E 0C E0 7F 00 FC 07 FE 03 88 CF 03 F8 3F 60 7C 0E E6 27 D0 FF 08 C4 67 30
DPCM : 9E C3 3D 3F 80 1F C1 F1 1C C0 FF 08 FF 38 CC 0F C0 F9 01 FE 3F 80 0F F4 03 7C 83 7F 18 8F E1 3F
DPCM : C0 C1 7D 00 FF 21 3C CC 03 FC E7 03 FC 1F 80 FB 00 E8 CF 07 E0 77 1C E4 07 FC F9 00 F8 3E 84 CF
DPCM : 3F 80 CF 07 F0 63 80 FC 1C C1 7F 1C C4 67 78 F8 0F 03 FB 01 3E 0C E7 33 1C EE 63 00 FF E1 20 3F
DPCM : 70 8C 0F FE 41 B8 9F C3 70 7F 00 FC 0E 07 FE C3 01 7C 3E 02 9C 9F C1 C5 9F 01 F3 73 38 DC 0F 40
DPCM : 3E 3F 41 B8 8F 63 F0 7F 00 FA 11 1F CC 0F C0 FB 3E 00 FC FF 00 F8 9F 01 F3 1F 00 F0 3F 00 FE FF
DPCM : 00 F2 79 00 FE 7F 00 F8 1F 00 FE 87 31 9C 87 E0 F1 3E 00 FF 0F 47 F0 07 70 9C E7 01 FE 83 73 D8
DPCM : 07 FC C7 E0 0E 1E C0 FF 20 38 FC 07 FC 07 3F C0 7F 08 0E E6 03 F0 3E E3 01 3E 87 E7 F0 03 FC 0F
DPCM : F8 81 3F C0 F1 0E 1E F0 0F EE 21 1E E0 7B 0C 0F F8 03 F7 78 E0 09 FF C0 1F F8 01 FF 39 1C C3 3F
DPCM : 70 00 0F 47 F8 0E DE C1 0F F8 8F E1 1D FC 01 1F F0 F0 90 0F E0 0F F8 80 FF 38 9C C3 07 F8 C1 8F
DPCM : 23 7C 0E CF C1 0F F8 77 70 0E FE 81 03 F8 F1 F0 1C 98 07 7E C0 FF 08 3E F0 07 78 B0 8F 43 7C 07
DPCM : FF E0 07 F8 67 70 0E 3F C0 07 F9 50 F0 39 9C 07 3E C0 FF 01 7E F0 0F 7C 60 8F 03 3E 0E 8F E3 03
DPCM : FC 77 70 0E DE C1 03 FC E1 70 3C D8 07 7C 80 FF 30 8E E1 1F FC C1 3C 1C 3C 0E CE C1 0F F0 CF 78
DPCM : 1C 9E 83 73 30 87 F1 07 82 F3 F1 19 BC 07 1E 87 E7 F0 04 FE 30 FE 80 E0 3E 1E 83 FB 88 C7 E0 11
DPCM : 7E 40 BF 0F 3E C2 F0 1F 8F C1 79 F0 01 78 1C 1F 80 FF 87 C7 30 FC 87 C7 E0 7C 78 08 1E C7 07 C0
DPCM : FF E1 23 1C FE E1 31 38 0F 3E 80 C7 F3 11 C0 FF F0 11 1E EE E3 18 9C 0F 0F E0 E1 FD 10 86 FF F0
DPCM : 08 0E F7 F1 08 F8 1F 0F E0 E1 FF 00 06 FF F1 08 0E E7 E1 11 F0 3F 1E C0 F1 7E 00 0E FF E1 11 3C
DPCM : CE C7 23 C0 FF 78 08 0F E7 03 18 FE 83 4F F0 38 8F C7 20 FF C3 31 78 30 1F C0 E1 3F 3E 81 C3 F9
DPCM : 78 84 E3 3F 1E C1 83 FB 70 08 FE C1 07 70 F8 CF 63 18 EE E3 10 3C 9C 87 47 E0 3F 78 00 0F F7 3D
DPCM : C2 E1 1F 8E E1 61 7C 3C 84 F1 8F 87 F0 30 9F 47 30 FE E3 11 3C 98 C7 07 08 FF 79 00 1F FE F1 00
DPCM : C3 7F 1E C1 03 FC F8 00 F0 3F 1E C3 E1 3C 9E 20 FC 8F C7 F0 80 7F 38 00 F8 DF 03 F8 F0 1E 7C 04
DPCM : DF FB 00 E2 83 F7 E0 08 F8 FF 08 6E F0 0F 3E 30 8E 8F C7 E0 03 FB E0 01 FC 3F 82 73 70 0F 73 1C
DPCM : DC 87 67 E0 03 7F F0 00 BC 9F C1 11 FE C1 3D 1E F4 C3 07 F0 01 7F 78 04 C7 FF E0 0C FE 01 7C 0E
DPCM : FE E0 07 78 C0 3F 1C C6 C1 7F F0 0E FE 00 1F C2 7F F0 03 3C 80 3F 7C 01 F8 3F 38 87 F7 70 83 E1
DPCM : 3C F8 03 3C C0 3F CC 73 98 0F F0 83 7F E0 3F 00 3E C7 07 79 80 FB 78 0C DC 8F E0 1D DC C3 3D 04
DPCM : FF C0 07 F0 01 FF 70 0F E0 7F 0C C6 F0 07 FF 01 2E FE 0F C0 81 C3 F1 3E C0 FF 07 E0 E0 1F F8 03
DPCM : 0C FF F9 00 1E 0C CE 77 40 7E 3F C0 07 FE 41 3F 80 FB C3 03 F8 10 F5 1C 85 EF F9 01 3C F8 07 FA
DPCM : 01 FC A7 1F C0 03 0F F0 73 19 FE 07 70 0E FE 80 3F E0 C7 F3 01 3C E4 20 3F C7 71 7F 00 FF 01 3D
DPCM : F8 01 7E 0E 3F C0 03 0F FC 43 9D 72 7F 80 03 FF C0 3F 38 C0 3F 1F C0 A3 01 FB 71 0F F8 1F C0 0F
DPCM : FC 83 3C 3C D4 8E 0F E0 21 F0 1F 3B F0 7D 0F E0 07 F6 C1 23 78 7E CC 03 36 01 F8 1F 57 F0 EF 07
DPCM : F0 03 F6 E0 53 C0 7F F8 00 1F 30 F0 9F 26 F8 FD 0F E0 01 F7 E0 63 60 7F F8 02 0F E0 81 7F 38 B2
DPCM : FF 07 F0 01 FF E0 50 35 3D 7C 05 0F F0 01 7F 78 34 0F FF C0 01 FF E0 1C 1F EC C1 0F 78 70 80 7E
DPCM : 7C C8 C7 FF 00 27 F0 0F 56 BD 50 EB 2E D0 42 0E E8 AF C1 77 F8 0F F0 00 FF 60 57 69 1C FE 03 07
DPCM : 78 40 DE 0F BC D5 3F C0 29 F0 0F 7C 0B D7 C1 3F E0 04 0E C1 7F F0 15 FF 81 16 05 FF C0 3D 4A 1F
DPCM : F0 0F 3C 01 F3 C0 3F F8 81 7F A1 C3 00 FF E0 17 DE 1A F8 07 3E 80 0D F8 17 7C 83 FF 10 4E C1 0F
DPCM : FC D1 63 51 FC 80 1F D0 07 6F E0 3F A0 FF 10 56 E0 3F 70 F3 2B 80 7F F0 01 3E C0 B6 8F D5 E0 FF
DPCM : 00 7E C0 0F 7E 41 E7 83 77 E0 01 3E 80 DF C3 F3 E0 3F 01 78 81 3F 78 87 27 F5 6C 31 14 2B 2A D8
DPCM : 1F D7 F4 C3 37 20 15 F8 07 CE 07 FD E1 1D 14 9C C2 03 FC E7 51 FD 1C 06 53 01 FF 70 38 FC 0F FC
DPCM : 06 61 45 95 E0 7D 1E B6 8F 0F E0 01 7E 2C 8A CF F5 E8 87 78 18 89 2A 81 FF 71 FD 83 5B 40 15 7C
DPCM : 80 BF 2E 55 EB C7 41 70 55 C0 1F EE 03 FE E1 0F 70 06 DC 83 E2 D7 F4 11 F8 0F 03 65 E0 1F 5B 75
DPCM : EA 03 FE 00 0F C2 7F C0 4F F6 41 FC 07 68 29 05 FE B1 1E DD 03 FF 01 D8 04 F8 97 72 D9 1F 70 AE
DPCM : 03 D4 4A 81 7F D9 54 3F 1C 1F 82 63 C0 3D BC 3E B8 0F 1E F8 03 B8 04 FE E1 1D FE 22 CB 07 70 09
DPCM : FC C1 57 0F CF C1 07 7E C0 1C C0 7F E8 53 7F E0 69 16 94 05 FC C3 D9 EA 39 F0 07 0E E8 8A C2 7B
DPCM : 5C 55 BF 88 E3 23 B0 12 9C CF 65 8F 47 F8 F0 0A 38 A5 06 7F F2 D2 3D 78 D0 0F 54 34 F0 0F 5E F5
DPCM : 87 60 7D 14 A1 4D 44 F7 65 7A 79 45 1E EA 03 38 81 7F 78 CD 0F F8 F0 41 36 38 44 5F 65 6B 57 35
DPCM : 79 A8 07 4D C4 C1 FE 54 F3 23 3C 74 45 16 4B D1 E1 5B BC 54 2F 2E 74 07 27 F0 05 7D 5A DB 05 37
DPCM : D4 51 35 59 F0 16 3C D3 55 4B 57 E4 34 FD 00 7E 00 FF D4 3A AC 07 BF 00 FF F0 01 F0 7F 00 03 FF
DPCM : 07 C0 7F FC 00 8F 7F 40 E0 3F 1E C0 FF 03 E0 3F 0E C0 FF 01 C0 3F 0E C1 FF 0F 80 FE 07 02 FF 03
DPCM : C0 FF 1F 82 FB 30 00 FF 00 61 3E 00 F1 DF 07 F8 7F E0 78 1F C0 3F 3E 82 FF 63 70 7E 04 06 FE 01
DPCM : E3 1B 80 F3 33 C0 7F 70 80 7F 80 E1 FF 01 FE 1F 30 EE 03 E0 3E 20 7F 7E 82 CF 30 9C 83 3F C0 FF
DPCM : 0C FE 31 38 0F 0B C8 07 E1 FF E1 30 1C 66 61 90 1F F0 3F C6 C7 0F F0 63 83 7B 30 0E 4F F0 1F F8
DPCM : 05 04 EF E1 3C 8C 07 FC F1 07 C6 7F 40 3C 0E F8 1F 86 67 10 1F F8 3F 80 8F 6F 7C 07 E3 31 00 7F
DPCM : 00 3E 87 5F C5 E1 1D CC C7 78 F8 0F 3E 80 7F 00 E3 19 C2 47 F8 09 1F FF 40 7C 80 9F 7F F8 0E CE
DPCM : 01 C8 E3 21 7C 84 CF F0 C7 70 3E 80 9F 1F F1 0B FE 83 01 3C E0 1F C4 CF F0 1C CE 87 78 D8 07 FC
DPCM : 81 F7 F0 0E 0C E0 47 F8 07 BF E0 3F C0 07 7C E0 0F FC 83 77 F0 00 7E C0 1F 7F 04 FF 01 3E FC 80
DPCM : 1F F0 03 FC 83 03 F8 00 3F F1 1F FC 03 3E F8 83 FF E0 0F C0 30 1C FC 07 BE E3 01 FE 80 0F FE C0
DPCM : 1F FC 83 07 78 C0 3F C0 7F 38 0C FE 81 07 F0 30 1F FC 03 1F F8 07 FE C0 1F F4 43 F0 1F F8 81 0F
DPCM : F8 01 FF C0 01 7E F0 0F 7C E0 07 FE 0C F6 01 7C 78 8C 4F F0 0F CE C0 07 FC 20 BF 8F C1 7F C0 03
DPCM : 1F F0 07 FE 81 79 14 E0 3F F0 0F 9E 01 FF 80 0F FF 81 1F F0 01 F8 E1 10 FE 81 7F F8 05 FC 03 78
DPCM : 18 0F FF C1 3F 70 06 0E E0 03 FE F8 3F 0C FE 03 7C F0 00 3F F0 07 9E F0 C0 1F 1E FE 03 C7 F8 01
DPCM : 7E 80 0F FF E0 0F 7C 80 0F F0 03 3F FC C3 33 F0 0F 78 C0 07 FC C0 1F F8 81 3F F0 03 1F FE 03 7F
DPCM : 80 1F E0 C3 0F F0 07 FF E0 18 3C 82 0F FF E1 01 7E 83 FF 80 0F 3C C4 07 FC C1 27 E0 03 FC F8 13
DPCM : 3F E4 63 70 0F F8 C0 47 F8 84 1F F8 03 7E E0 0F 7F E0 1F F0 0C FC 01 3F 7C 00 7F C0 0F CF C1 17
DPCM : F0 81 3F F8 03 3E 87 FB 80 0F 7C 80 DF F0 09 6F E0 07 7C F0 0F FE 01 1F 06 FF C0 0F 7C C0 0F F0
DPCM : 07 3F F0 07 FC E0 03 FE 81 3F 04 F7 C0 0F FC 00 BF E0 13 3E E0 0F F8 E1 0B FC 03 3F 0C E6 03 7C
DPCM : F8 01 FE C1 0F 7C 81 3F E0 C3 3F F8 07 F8 07 C1 7C 80 8F 1F C0 DF E0 C1 37 F0 05 7E D4 87 FC 80
DPCM : BF E2 80 1F E0 F1 1F E0 33 78 F8 0D F8 03 63 FD 03 FF 80 33 0E 07 F3 21 1E FE 00 FF 80 07 FF 80
DPCM : 3F F0 88 3F E0 1F 78 87 E3 60 3E C0 87 3F C0 7F 88 C1 7F 80 1F 0E F8 3F C0 0F 15 FC 07 80 FF 03
DPCM : F8 3F C0 F7 01 E8 07 F0 4B 2B FA 03 FD 03 15 FE 01 6D E0 3F E8 47 FC 00 FF C0 02 FC 01 7F E0 07
DPCM : FE D8 03 F4 13 3F E0 55 1F E0 3F 14 E6 1F C0 0A 3F C0 1F B9 F0 0D BC A5 55 DC 0F 4A E1 3F D0 0F
DPCM : E9 60 3F 80 07 FD 00 3F F0 83 FE E0 0F F8 83 7F 30 03 FE 03 FC 83 03 FD 03 3C E0 0F F0 03 1F F4
DPCM : 07 FF 80 3F F4 29 3E 02 FF 01 1E FE 01 FC 41 15 FC 03 78 E8 07 F8 C7 55 F8 0F F4 55 83 14 FE 07
DPCM : E0 BF 00 FC 1F C0 F0 0D E0 97 7A 80 FF 54 C1 FF C0 17 3F C0 05 FE 07 E0 67 14 FC 07 D4 E0 1F C0
DPCM : 0F 7B 80 FF D4 C0 FF 40 9F F6 00 3F C0 1F E0 0F 1E C1 3F E0 11 7E 01 3F F8 02 FF E1 23 FE 41 17
DPCM : F4 83 6C 39 80 FF 80 1F 1D C1 1F E1 01 FE 01 7F F0 0D DE E4 17 F8 07 EE C0 2F A8 45 F5 00 7F C0
DPCM : 0F FB 00 3F E1 01 FE 01 3F F4 07 FC 83 9F E0 0F 3C E4 1F D0 0B 5D 54 03 FF 00 1F FA 01 BF A4 15
DPCM : F4 13 7C D4 0B 7A A7 2A D5 0F F2 4A 9B A4 93 B4 92 5A 15 F0 0F 7C E8 4D 72 55 36 05 3F E1 15 7C
DPCM : 85 77 F4 16 FC C1 2E F8 02 FE 80 55 F8 04 BE 0A EA 4F F0 56 4D 71 57 A8 95 56 A1 2F 6A 93 7D 50
DPCM : 1F B6 C2 3D D0 8E D4 54 55 B4 26 D5 A8 AE 54 D8 1F F0 9D 54 55 2F 68 4B D6 C4 35 71 8B F6 50 2F
DPCM : EC 03 F5 91 1A D5 43 74 45 2D A9 45 6D B2 0D AF E0 3F 70 0F ED C1 2F D0 45 75 24 2F 69 53 76 49
DPCM : AD B2 0B F5 88 57 70 4B 5C C1 97 F0 22 5F C4 AB 5A A5 6E 52 F5 86 F4 52 25 75 45 5A A5 2A E9 95
DPCM : B4 55 AD D2 2D DA 8A 56 B1 4A B6 A2 56 B4 45 AE A4 93 BC 92 AE 6A 55 75 A9 56 2A B7 42 5B B4 4A
DPCM : B5 94 56 69 15 75 55 55 D5 25 75 A5 56 B2 45 D5 54 15 75 85 BA 52 95 DA 52 AD AA 55 55 AD AC 6A
DPCM : 95 56 29 AB D2 5A 54 47 B5 54 4D 6A A5 5A D1 56 6A 53 B5 52 97 D4 25 B5 54 4D 72 25 5D 91 AB 72
DPCM : 49 5D D2 95 5A A5 56 D5 4A 75 A9 AA 6A A5 AA AA 4A ED 50 2D 55 95 55 A5 56 6A 25 5D A9 56 65 53
DPCM : 75 54 27 D5 52 55 A5 95 74 85 5E 51 AB 6A 25 5B 55 55 B5 52 AB AA A5 5A A5 56 AA AA D4 52 55 D5
DPCM : 50 1F D2 95 56 A9 56 69 95 5A 95 55 D9 4A B5 54 2B 55 53 55 A5 55 69 25 5B C9 5A AA A5 56 65 55
DPCM : 55 55 AB B2 95 5A A5 96 AA 2A 35 55 55 55 55 55 55 55 49 57 A9 56 55 A5 55 55 55 55 55 55 55 55
DPCM : 55 55 35 55 55 55 95 55 65 55 59 95 55 6A 55 55 55 55 55 55 AD AA AA AA AA AA 4A 55 55 55 55 55
DPCM : 55 55 55 55 55 55 55 55 55 55 55 55 55 55 55 55 55 55 55 55 55 55 55 55 55 55 55 55 55 55 55 55
DPCM : 55 55 55 55 55 55 55 55 55 55 55 55 55 55 55 55 55 55 55 55 55 55 55 55 55 55 55 55 55 55 55 55
DPCM : 55 55 55 55 55 55 55 55 55 55 55 55 55 55 55 55 55 55 55 55 55 55 55 55 55 55 55 55 55 55 55 55
DPCM : 55 55 55 55 55 55 55 55 55 55 55 55 55 55 55 55 55 55 55 55 55 55 55 55 55 55 55 55 55 55 55 55
DPCM : 55 55 55 55 55 55 55 55 55 55 55 55 55 55 55 55 55 55 55 55 55 55 55 55 55 55 55 55 55 55 55 55
DPCM : 55 55 55 55 55 55 55 55 55 55 55 55 55 55 55 55 55 55 55 55 55 55 55 55 55 55 55 55 55 55 55 55
DPCM : 55 55 55 55 55 55 55 55 55 55 55 55 55 55 55 55 55 55 55 55 55 55 55 55 55 55 55 55 55 55 55 55
DPCM : 55 55 55 55 55 55 55 55 55 55 55 55 55 55 55 55 55 55 55 55 55 55 55 55 55 55 55 55 55 55 55 55
DPCM : 55 55 55 55 55 55 55 55 55 55 55 55 55 55 55 55 55 55 55 55 55 55 55 55 55 55 55 55 55 55 55 55
DPCM : 55 55 55 55 55 55 55 55 55 55 55 55 55 55 55 55 55 55 55 55 D5 52 5B F2 55 55 55 55 55 55 55 55
DPCM : 55

# DETUNETABLES block

# GROOVES block

# Tracks using default groove:

# INSTRUMENTS block
INST2A03   0     7  -1  -1  -1   2 "sample"
INST2A03   1     8  -1  -1  -1  -1 "DMC: drums + bass"
KEYDPCM   1   0   0    17  15   0     0  -1
KEYDPCM   1   0   1    18  15   0     0  -1
KEYDPCM   1   0   2    19  15   0     0  -1
KEYDPCM   1   0   3    20  15   0     0  -1
KEYDPCM   1   0   4    21  15   0     0  -1
KEYDPCM   1   0   5    22  15   0     0  -1
KEYDPCM   1   0   6    23  15   0     0  -1
KEYDPCM   1   0   7    24  15   0     0  -1
KEYDPCM   1   0   8    25  15   0     0  -1
KEYDPCM   1   0   9    26  15   0     0  -1
KEYDPCM   1   2   5     2   3   0     0  63
KEYDPCM   1   2   7     2   4   0     0  63
KEYDPCM   1   2   9     2   5   0     0  63
KEYDPCM   1   2  10     3   5   0     0  63
KEYDPCM   1   2  11     2   6   0     0  63
KEYDPCM   1   3   0     2   7   0     0  63
KEYDPCM   1   3   1     3   7   0     0  63
KEYDPCM   1   3   2     5   7   0     0  63
KEYDPCM   1   3   3     3   8   0     0  63
KEYDPCM   1   3   4     5   8   0     0  63
KEYDPCM   1   3   5     2   9   0     0  63
KEYDPCM   1   3   6     3   9   0     0  63
KEYDPCM   1   3   7     2  10   0     0  63
KEYDPCM   1   3   8     3  10   0     0  63
KEYDPCM   1   3   9     5  10   0     0  63
KEYDPCM   1   3  10     3  11   0     0  63
KEYDPCM   1   3  11     5  11   0     0  63
KEYDPCM   1   4   0     2  12   0     0  63
KEYDPCM   1   4   1     3  12   0     0  63
KEYDPCM   1   4   2     5  12   0     0  63
KEYDPCM   1   4   3     1  13   0     0  63
KEYDPCM   1   4   4     2  13   0     0  63
KEYDPCM   1   4   5     3  13   0     0  63
KEYDPCM   1   4   6     5  13   0     0  63
KEYDPCM   1   4   7     2  14   0     0  63
KEYDPCM   1   4   8     3  14   0     0  63
KEYDPCM   1   4   9     5  14   0     0  63
KEYDPCM   1   4  10     0  15   0     0  63
KEYDPCM   1   4  11     1  15   0     0  63
KEYDPCM   1   5   0     2  15   0     0  63
KEYDPCM   1   5   1     3  15   0     0  63
KEYDPCM   1   5   2     5  15   0     0  63
KEYDPCM   1   5   4    13  14   0     0  63
KEYDPCM   1   5   5     6  15   0     0  41
KEYDPCM   1   5   6     4  15   0     0 127
KEYDPCM   1   5   7     7  15   0     0 127
KEYDPCM   1   5   8    14  15   0     0 127
KEYDPCM   1   5   9    15  15   0     0 127
KEYDPCM   1   5  10    16  15   0     0  -1
KEYDPCM   1   6   0     8   0   1     0  -1
KEYDPCM   1   6   2     8   1   1     0  -1
KEYDPCM   1   6   4     8   2   1     0  -1
KEYDPCM   1   6   5     8   3   1     0  -1
KEYDPCM   1   6   7     8   4   1     0  -1
KEYDPCM   1   6   9     8   5   1     0  -1
KEYDPCM   1   6  11     8   6   1     0  -1
KEYDPCM   1   7   0     8   7   1     0  -1
KEYDPCM   1   7   2     8   8   1     0  -1
KEYDPCM   1   7   4     9  13   1     0  -1
KEYDPCM   1   7   5     8   9   1     0  -1
KEYDPCM   1   7   7     8  10   1     0  -1
KEYDPCM   1   7   9     8  11   1     0  -1
INST2A03   2     2  -1  -1  -1  -1 "echo"
INST2A03   3     0  -1  -1  -1  -1 ""
INST2A03   4    10  -1  -1  -1  -1 ""
INST2A03   5    11  -1  -1  -1  -1 "quiet bass"
INST2A03   6     9  -1  -1  -1  -1 "02 but tri"
INST2A03   7     3   0  -1  -1  -1 "kick"
INST2A03   8     4   1  -1  -1   0 "snare"
INST2A03   9     5   4  -1  -1   3 "hat"
INST2A03  10    10   4  -1  -1  -1 "rel hats"
INST2A03  11     7  -1   0  -1  -1 "triangle drums"
INST2A03  12    11   2  -1  -1   2 "octave arp"
INST2A03  13    12  -1  -1  -1  -1 "triangle pluck"
INST2A03  14    14  -1  -1  -1  -1 "triangle pluck 4"
INST2A03  15    15  -1  -1  -1  -1 "blank string"
INST2A03  16    34  -1  -1  -1  -1 "blank"
INST2A03  17    35  -1  -1  -1  -1 "blank instant decay"
INST2A03  18     6   4  -1  -1   0 "cymbal"
INST2A03  19    33  -1  -1  -1  -1 "menu acc"
INST2A03  20    30  -1  -1  -1  -1 "clutterfunk sax"
INST2A03  21    31  -1  -1  -1  -1 "polargeist tri pluck"
INST2A03  22    32  -1  -1  -1  11 "shift string"
INST2A03  23    36  -1  -1  -1  12 "shift string lite"
INST2A03  24    37  12  -1  -1  -1 "lots of clap"
INST2A03  25    38  13  -1  -1  -1 "clap"
INST2A03  26    -1  -1  -1  -1  -1 "DMC: orchestra hits"
KEYDPCM  26   2   7    10   7   0     0  -1
KEYDPCM  26   2   8    11   7   0     0  -1
KEYDPCM  26   2   9    10   8   0     0  -1
KEYDPCM  26   2  10    11   8   0     0  -1
KEYDPCM  26   2  11    12   8   0     0  -1
KEYDPCM  26   3   0    10   9   0     0  -1
KEYDPCM  26   3   1    11   9   0     0  -1
KEYDPCM  26   3   2    10  10   0     0  -1
KEYDPCM  26   3   3    11  10   0     0  -1
KEYDPCM  26   3   4    10  11   0     0  63
KEYDPCM  26   3   5    11  11   0     0  63
KEYDPCM  26   3   6    12  11   0     0  63
KEYDPCM  26   3   7    10  12   0     0  63
KEYDPCM  26   3   8    11  12   0     0  63
KEYDPCM  26   3   9    12  12   0     0  63
KEYDPCM  26   3  10     9  13   0     0  63
KEYDPCM  26   3  11    10  13   0     0  63
KEYDPCM  26   4   0    11  13   0     0  63
KEYDPCM  26   4   1    12  13   0     0  63
KEYDPCM  26   4   2    10  14   0     0  63
KEYDPCM  26   4   3    11  14   0     0  63
KEYDPCM  26   4   4    12  14   0     0  63
KEYDPCM  26   4   5     8  15   0     0  63
KEYDPCM  26   4   6     9  15   0     0  63
KEYDPCM  26   4   7    10  15   0     0  63
KEYDPCM  26   4   8    11  15   0     0  63
KEYDPCM  26   4   9    12  15   0     0  63
INST2A03  27    34  -1  -1  -1  13 "electroman lead"
INST2A03  28    43  14  -1  -1  -1 "tight triangle kick"
INST2A03  29    43  15  -1  -1  -1 "tight triangle snare"
INST2A03  30    39  -1  -1  -1  14 "xstep wub"
INST2A03  31    40  -1  -1  -1  -1 "tight noise kick layer"
INST2A03  32    41  -1  -1  -1  15 "polargeist bass"
INST2A03  33     2  16  -1  -1  -1 "octave jumping echo"
INST2A03  34    -1  -1   2  -1  -1 "tom"
INST2A03  35    42  -1  -1  -1  -1 "loud blank string"
INST2A03  36    -1  -1  -1  -1  16 "hex guitar 1"
INST2A03  37    -1  -1  -1  -1  17 "hex guitar 2"
INST2A03  38    -1  17  -1  -1  -1 "stepdown"
INST2A03  39    41  -1  -1  -1  18 "endgame lead"
INST2A03  40    44  19  -1  -1  19 ""
INST2A03  41    45  -1   3  -1  -1 "jaezu lead"
INST2A03  42    46  -1  -1  -1  -1 "triangle pluck 2"
INST2A03  43    47  -1  -1  -1  -1 "triangle pluck 3"
INST2A03  44    48  -1  -1  -1  -1 "blank slower string"
INST2A03  45    50  -1  -1  -1  -1 "tiny piano"
INST2A03  46    -1  20  -1  -1  21 "nc wub1"
INST2A03  47    -1  -1   5  -1  20 "nc wub2"
INST2A03  48    51  21  -1  -1  -1 "nc_click"
INST2A03  49    52  -1  -1  -1  -1 "long piano"

# track HEADER block
TRACK  64   6 150 "custom_infiltration"
COLUMNS : 2 2 1 1 1

# track FRAMES block
ORDER 00 : 00 00 00 00 00
ORDER 01 : 01 01 01 01 02
ORDER 02 : 02 02 02 02 01
ORDER 03 : 02 02 03 03 03
ORDER 04 : 00 00 02 02 01
ORDER 05 : 04 04 03 03 03
ORDER 06 : 05 05 02 02 01
ORDER 07 : 05 05 03 05 03
ORDER 08 : 03 03 02 04 01
ORDER 09 : 06 06 04 06 03
ORDER 0A : 07 07 02 02 04
ORDER 0B : 08 08 05 07 05

# track PATTERNS block
PATTERN 00
ROW 00 : G#1 10 9 V01 P90 : G#2 10 9 ... P87 : --- .. . ... : A-# 12 F ... : --- .. . ...
ROW 01 : ... .. 2 ... ... : ... .. 2 ... ... : ... .. . ... : ... .. . ... : ... .. . ...
ROW 02 : G#1 10 9 S04 ... : G#2 10 9 S04 ... : ... .. . ... : ... .. . ... : ... .. . ...
ROW 03 : G#2 10 . ... ... : G#3 10 . ... ... : ... .. . ... : ... .. . ... : ... .. . ...
ROW 04 : ... .. 2 ... ... : ... .. 2 ... ... : ... .. . ... : ... .. . ... : ... .. . ...
ROW 05 : ... .. 1 ... ... : ... .. 1 ... ... : ... .. . ... : ... .. . ... : ... .. . ...
ROW 06 : G#1 10 9 S04 ... : G#2 10 9 S04 ... : ... .. . ... : ... .. . ... : ... .. . ...
ROW 07 : G#2 10 . ... ... : G#3 10 . ... ... : ... .. . ... : ... .. . ... : ... .. . ...
ROW 08 : ... .. 1 ... ... : ... .. 1 ... ... : ... .. . ... : ... .. . ... : ... .. . ...
ROW 09 : G#1 10 9 ... ... : G#2 10 9 ... ... : ... .. . ... : ... .. . ... : ... .. . ...
ROW 0A : A-1 10 . ... ... : A-2 10 . ... ... : ... .. . ... : ... .. . ... : ... .. . ...
ROW 0B : ... .. 2 ... ... : ... .. 2 ... ... : ... .. . ... : ... .. . ... : ... .. . ...
ROW 0C : B-1 10 9 S04 ... : B-2 10 9 S04 ... : ... .. . ... : ... .. 6 ... : ... .. . ...
ROW 0D : B-1 10 . ... ... : B-2 10 . ... ... : ... .. . ... : ... .. . ... : ... .. . ...
ROW 0E : F#1 10 . ... ... : F#3 10 . ... ... : ... .. . ... : ... .. . ... : ... .. . ...
ROW 0F : ... .. 2 ... ... : F#2 10 6 ... ... : ... .. . ... : ... .. . ... : ... .. . ...
ROW 10 : G#1 10 9 V01 ... : G#2 10 9 ... ... : ... .. . ... : ... .. 5 ... : ... .. . ...
ROW 11 : ... .. 2 ... ... : ... .. 2 ... ... : ... .. . ... : ... .. . ... : ... .. . ...
ROW 12 : G#1 10 9 S04 ... : G#2 10 9 S04 ... : ... .. . ... : ... .. . ... : ... .. . ...
ROW 13 : G#2 10 . ... ... : G#3 10 . ... ... : ... .. . ... : ... .. . ... : ... .. . ...
ROW 14 : ... .. 2 ... ... : ... .. 2 ... ... : ... .. . ... : ... .. 4 ... : ... .. . ...
ROW 15 : ... .. 1 ... ... : ... .. 1 ... ... : ... .. . ... : ... .. . ... : ... .. . ...
ROW 16 : G#1 10 9 S04 ... : G#2 10 9 S04 ... : ... .. . ... : ... .. . ... : ... .. . ...
ROW 17 : G#2 10 . ... ... : G#3 10 . ... ... : ... .. . ... : ... .. . ... : ... .. . ...
ROW 18 : ... .. 1 ... ... : ... .. 1 ... ... : ... .. . ... : ... .. 3 ... : ... .. . ...
ROW 19 : G#1 10 9 ... ... : G#2 10 9 ... ... : ... .. . ... : ... .. . ... : ... .. . ...
ROW 1A : A-2 10 . ... ... : A-3 10 . ... ... : ... .. . ... : ... .. . ... : ... .. . ...
ROW 1B : ... .. 2 ... ... : ... .. 2 ... ... : ... .. . ... : ... .. . ... : ... .. . ...
ROW 1C : B-2 10 9 S04 ... : B-3 10 9 S04 ... : ... .. . ... : --- .. . ... : ... .. . ...
ROW 1D : B-1 10 . ... ... : B-2 10 . ... ... : ... .. . ... : ... .. . ... : ... .. . ...
ROW 1E : F#1 10 . ... ... : F#2 10 . ... ... : ... .. . ... : ... .. . ... : ... .. . ...
ROW 1F : F#2 10 2 ... ... : F#3 10 6 ... ... : ... .. . ... : ... .. . ... : ... .. . ...
ROW 20 : G#1 10 9 V01 ... : G#2 10 9 ... ... : ... .. . ... : ... .. . ... : ... .. . ...
ROW 21 : ... .. 2 ... ... : ... .. 2 ... ... : ... .. . ... : ... .. . ... : ... .. . ...
ROW 22 : G#1 10 9 S04 ... : G#2 10 9 S04 ... : ... .. . ... : ... .. . ... : ... .. . ...
ROW 23 : G#2 10 . ... ... : G#3 10 . ... ... : ... .. . ... : ... .. . ... : ... .. . ...
ROW 24 : ... .. 2 ... ... : ... .. 2 ... ... : ... .. . ... : ... .. . ... : ... .. . ...
ROW 25 : ... .. 1 ... ... : ... .. 1 ... ... : ... .. . ... : ... .. . ... : ... .. . ...
ROW 26 : G#1 10 9 S04 ... : G#2 10 9 S04 ... : ... .. . ... : ... .. . ... : ... .. . ...
ROW 27 : G#2 10 . ... ... : G#3 10 . ... ... : ... .. . ... : ... .. . ... : ... .. . ...
ROW 28 : ... .. 1 ... ... : ... .. 1 ... ... : ... .. . ... : ... .. . ... : ... .. . ...
ROW 29 : G#1 10 9 ... ... : G#2 10 9 ... ... : ... .. . ... : ... .. . ... : ... .. . ...
ROW 2A : A-1 10 . ... ... : A-2 10 . ... ... : ... .. . ... : ... .. . ... : ... .. . ...
ROW 2B : ... .. 2 ... ... : ... .. 2 ... ... : ... .. . ... : ... .. . ... : ... .. . ...
ROW 2C : B-1 10 9 S04 ... : B-2 10 9 S04 ... : ... .. . ... : ... .. . ... : ... .. . ...
ROW 2D : B-1 10 . ... ... : B-2 10 . ... ... : ... .. . ... : ... .. . ... : ... .. . ...
ROW 2E : F#1 10 . ... ... : F-3 10 . Q21 ... : ... .. . ... : ... .. . ... : ... .. . ...
ROW 2F : ... .. 2 ... ... : F#2 10 6 ... ... : ... .. . ... : ... .. . ... : ... .. . ...
ROW 30 : G#1 10 9 V01 ... : G#2 10 9 ... ... : ... .. . ... : ... .. . ... : ... .. . ...
ROW 31 : ... .. 2 ... ... : ... .. 2 ... ... : ... .. . ... : ... .. . ... : ... .. . ...
ROW 32 : G#1 10 9 S04 ... : G#2 10 9 S04 ... : ... .. . ... : ... .. . ... : ... .. . ...
ROW 33 : G#2 10 . ... ... : G#3 10 . ... ... : ... .. . ... : ... .. . ... : ... .. . ...
ROW 34 : ... .. 2 ... ... : ... .. 2 ... ... : ... .. . ... : ... .. . ... : ... .. . ...
ROW 35 : ... .. 1 ... ... : ... .. 1 ... ... : ... .. . ... : ... .. . ... : ... .. . ...
ROW 36 : G#1 10 9 S04 ... : G#2 10 9 S04 ... : ... .. . ... : ... .. . ... : ... .. . ...
ROW 37 : G#2 10 . ... ... : G#3 10 . ... ... : ... .. . ... : ... .. . ... : ... .. . ...
ROW 38 : ... .. 1 ... ... : ... .. 1 ... ... : ... .. . ... : ... .. . ... : ... .. . ...
ROW 39 : G#1 10 9 ... ... : G#2 10 9 ... ... : ... .. . ... : ... .. . ... : ... .. . ...
ROW 3A : A-2 10 . ... ... : A-3 10 . ... ... : ... .. . ... : ... .. . ... : ... .. . ...
ROW 3B : ... .. 2 ... ... : ... .. 2 ... ... : ... .. . ... : ... .. . ... : ... .. . ...
ROW 3C : B-2 10 9 S04 ... : B-3 10 9 S04 ... : ... .. . ... : ... .. . ... : ... .. . ...
ROW 3D : B-1 10 . ... ... : B-2 10 . ... ... : ... .. . ... : ... .. . ... : ... .. . ...
ROW 3E : F#1 10 . ... ... : F#2 10 . ... ... : ... .. . ... : ... .. . ... : ... .. . ...
ROW 3F : F#2 10 2 ... ... : F#3 10 6 ... ... : ... .. . ... : ... .. . ... : ... .. . ...
PATTERN 01
ROW 00 : G#1 10 9 V01 P90 : G#2 10 9 ... P87 : G-3 0B . ... : 0-# 12 8 ... : E-5 01 . ...
ROW 01 : ... .. 2 ... ... : ... .. 2 ... ... : ... .. . ... : E-# 10 . ... : ... .. . ...
ROW 02 : G#1 10 9 S04 ... : G#2 10 9 S04 ... : --- .. . ... : ... .. . ... : ... .. . ...
ROW 03 : G#2 10 . ... ... : G#3 10 . ... ... : ... .. . ... : D-# 10 . ... : ... .. . ...
ROW 04 : ... .. 2 ... ... : ... .. 2 ... ... : G-3 0B . ... : ... .. 7 ... : F-5 01 . ...
ROW 05 : ... .. 1 ... ... : ... .. 1 ... ... : ... .. . ... : ... .. . ... : ... .. . ...
ROW 06 : G#1 10 9 S04 ... : G#2 10 9 S04 ... : --- .. . ... : C-# 10 . ... : ... .. . ...
ROW 07 : G#2 10 . ... ... : G#3 10 . ... ... : ... .. . ... : ... .. . ... : ... .. . ...
ROW 08 : ... .. 1 ... ... : ... .. 1 ... ... : G-3 0B . ... : ... .. 6 ... : E-5 01 . ...
ROW 09 : G#1 10 9 ... ... : G#2 10 9 ... ... : ... .. . ... : B-# 10 . ... : ... .. . ...
ROW 0A : A-1 10 . ... ... : A-2 10 . ... ... : --- .. . ... : ... .. . ... : ... .. . ...
ROW 0B : ... .. 2 ... ... : ... .. 2 ... ... : ... .. . ... : ... .. . ... : ... .. . ...
ROW 0C : B-1 10 9 S04 ... : B-2 10 9 S04 ... : G-3 0B . ... : 9-# 10 5 ... : F-5 01 . ...
ROW 0D : B-1 10 . ... ... : B-2 10 . ... ... : ... .. . ... : ... .. . ... : ... .. . ...
ROW 0E : F#1 10 . ... ... : F#3 10 . ... ... : --- .. . ... : ... .. . ... : ... .. . ...
ROW 0F : ... .. 2 ... ... : F#2 10 6 ... ... : ... .. . ... : 8-# 10 . ... : ... .. . ...
ROW 10 : G#1 10 9 V01 ... : G#2 10 9 ... ... : G-3 0B . ... : ... .. 4 ... : E-5 01 . ...
ROW 11 : ... .. 2 ... ... : ... .. 2 ... ... : ... .. . ... : ... .. . ... : ... .. . ...
ROW 12 : G#1 10 9 S04 ... : G#2 10 9 S04 ... : --- .. . ... : ... .. . ... : ... .. . ...
ROW 13 : G#2 10 . ... ... : G#3 10 . ... ... : ... .. . ... : 7-# 10 . ... : ... .. . ...
ROW 14 : ... .. 2 ... ... : ... .. 2 ... ... : G-3 0B . ... : ... .. 3 ... : F-5 01 . ...
ROW 15 : ... .. 1 ... ... : ... .. 1 ... ... : ... .. . ... : ... .. . ... : ... .. . ...
ROW 16 : G#1 10 9 S04 ... : G#2 10 9 S04 ... : --- .. . ... : ... .. . ... : ... .. . ...
ROW 17 : G#2 10 . ... ... : G#3 10 . ... ... : ... .. . ... : 6-# 10 . ... : ... .. . ...
ROW 18 : ... .. 1 ... ... : ... .. 1 ... ... : G-3 0B . ... : ... .. 2 ... : E-5 01 . ...
ROW 19 : G#1 10 9 ... ... : G#2 10 9 ... ... : ... .. . ... : ... .. . ... : ... .. . ...
ROW 1A : A-2 10 . ... ... : A-3 10 . ... ... : --- .. . ... : ... .. . ... : ... .. . ...
ROW 1B : ... .. 2 ... ... : ... .. 2 ... ... : ... .. . ... : ... .. . ... : ... .. . ...
ROW 1C : B-2 10 9 S04 ... : B-3 10 9 S04 ... : G-3 0B . ... : 5-# 10 . ... : F-5 01 . ...
ROW 1D : B-1 10 . ... ... : B-2 10 . ... ... : ... .. . ... : ... .. . ... : ... .. . ...
ROW 1E : F#1 10 . ... ... : F#2 10 . ... ... : --- .. . ... : ... .. . ... : ... .. . ...
ROW 1F : F#2 10 2 ... ... : F#3 10 6 ... ... : ... .. . ... : ... .. . ... : ... .. . ...
ROW 20 : G#1 10 9 V01 ... : G#2 10 9 ... ... : G-3 0B . ... : 4-# 10 1 ... : E-5 01 . ...
ROW 21 : ... .. 2 ... ... : ... .. 2 ... ... : ... .. . ... : ... .. . ... : ... .. . ...
ROW 22 : G#1 10 9 S04 ... : G#2 10 9 S04 ... : --- .. . ... : ... .. . ... : ... .. . ...
ROW 23 : G#2 10 . ... ... : G#3 10 . ... ... : ... .. . ... : ... .. . ... : ... .. . ...
ROW 24 : ... .. 2 ... ... : ... .. 2 ... ... : G-3 0B . ... : 3-# 10 . ... : F-5 01 . ...
ROW 25 : ... .. 1 ... ... : ... .. 1 ... ... : ... .. . ... : ... .. . ... : ... .. . ...
ROW 26 : G#1 10 9 S04 ... : G#2 10 9 S04 ... : --- .. . ... : ... .. . ... : ... .. . ...
ROW 27 : G#2 10 . ... ... : G#3 10 . ... ... : ... .. . ... : ... .. . ... : ... .. . ...
ROW 28 : ... .. 1 ... ... : ... .. 1 ... ... : G-3 0B . ... : 2-# 10 . ... : E-5 01 . ...
ROW 29 : G#1 10 9 ... ... : G#2 10 9 ... ... : ... .. . ... : ... .. . ... : ... .. . ...
ROW 2A : A-1 10 . ... ... : A-2 10 . ... ... : --- .. . ... : ... .. . ... : ... .. . ...
ROW 2B : ... .. 2 ... ... : ... .. 2 ... ... : ... .. . ... : ... .. . ... : ... .. . ...
ROW 2C : --- .. . ... ... : --- .. . ... ... : G-3 0B . ... : E-# 12 F ... : F-5 01 . ...
ROW 2D : ... .. . ... ... : ... .. . ... ... : ... .. . ... : ... .. . ... : ... .. . ...
ROW 2E : ... .. . ... ... : ... .. . ... ... : --- .. . ... : ... .. . ... : ... .. . ...
ROW 2F : ... .. . ... ... : ... .. . ... ... : ... .. . ... : ... .. . ... : ... .. . ...
ROW 30 : G#1 10 9 S04 00C : G#1 10 9 S04 ... : G-3 0B . ... : D-# 10 0 ... : E-5 01 . ...
ROW 31 : G#1 10 . ... ... : G#1 10 . ... ... : ... .. . ... : ... .. . ... : ... .. . ...
ROW 32 : ... .. 2 ... ... : ... .. 2 ... ... : --- .. . ... : ... .. 1 ... : ... .. . ...
ROW 33 : G#1 10 9 ... ... : G#1 10 9 ... ... : ... .. . ... : ... .. 2 ... : ... .. . ...
ROW 34 : ... .. 2 ... ... : ... .. 2 ... ... : ... .. . ... : ... .. . ... : F-5 01 . ...
ROW 35 : G#1 10 9 S04 ... : G#1 10 9 S04 ... : ... .. . ... : ... .. 3 ... : ... .. . ...
ROW 36 : G#1 10 . ... ... : G#1 10 . ... ... : ... .. . ... : ... .. 4 ... : ... .. . ...
ROW 37 : ... .. 2 ... ... : ... .. 2 ... ... : ... .. . ... : ... .. . ... : ... .. . ...
ROW 38 : G#1 10 9 S04 ... : G#1 10 9 S04 ... : ... .. . ... : ... .. 5 ... : E-5 01 . ...
ROW 39 : G#1 10 . S04 ... : G#1 10 . S04 ... : ... .. . ... : ... .. 6 ... : ... .. . ...
ROW 3A : A-1 10 . ... ... : A-1 10 . ... ... : ... .. . ... : ... .. . ... : ... .. . ...
ROW 3B : ... .. 2 ... ... : ... .. 2 ... ... : ... .. . ... : ... .. 7 ... : ... .. . ...
ROW 3C : B-1 10 9 V02 ... : B-1 10 9 ... ... : G-3 0B . ... : B-# 19 F ... : F-5 01 . ...
ROW 3D : ... .. 2 ... ... : ... .. 2 ... ... : ... .. . ... : ... .. . ... : ... .. . ...
ROW 3E : F#1 10 9 ... ... : F#1 10 9 ... ... : G-3 0B . ... : 0-# 19 . ... : ... .. . ...
ROW 3F : ... .. 2 ... ... : ... .. 2 ... ... : ... .. . ... : ... .. . ... : ... .. . ...
PATTERN 02
ROW 00 : G#1 10 9 S04 00C : G#1 10 9 S04 V02 : G#1 10 . P90 : C-# 12 . ... : E-5 01 . ...
ROW 01 : G#1 10 . ... ... : G#1 10 . ... ... : ... .. . ... : ... .. . ... : ... .. . ...
ROW 02 : ... .. 2 ... ... : ... .. 2 ... ... : --- .. . ... : ... .. . ... : ... .. . ...
ROW 03 : G#1 10 9 ... ... : G#1 10 9 ... ... : G#1 10 . ... : ... .. . ... : ... .. . ...
ROW 04 : ... .. 2 ... V00 : ... .. 2 ... ... : ... .. . ... : B-# 19 . ... : E-5 01 . ...
ROW 05 : G#1 10 9 S04 ... : G#1 10 9 S04 ... : --- .. . ... : ... .. . ... : ... .. . ...
ROW 06 : G#1 10 . ... ... : G#1 10 . ... ... : G#1 10 . ... : C-# 0A . ... : ... .. . ...
ROW 07 : ... .. 2 ... ... : ... .. 2 ... ... : ... .. . S04 : ... .. . ... : ... .. . ...
ROW 08 : G#1 10 9 S04 ... : G#1 10 9 S04 V01 : G#1 10 . ... : 1-# 07 . ... : E-5 01 . ...
ROW 09 : G#1 10 . S04 ... : G#1 10 . S04 ... : ... .. . ... : C-# 09 . ... : ... .. . ...
ROW 0A : A-1 10 . ... ... : A-1 10 . ... ... : A-1 10 . ... : C-# 0A . ... : ... .. . ...
ROW 0B : ... .. 2 ... ... : ... .. 2 ... ... : ... .. . ... : ... .. . ... : ... .. . ...
ROW 0C : B-1 10 9 V02 V01 : B-1 10 9 ... ... : B-1 10 . ... : B-# 19 . ... : E-5 01 . ...
ROW 0D : ... .. 2 ... ... : ... .. 2 ... ... : ... .. . ... : ... .. . ... : ... .. . ...
ROW 0E : F#1 10 9 ... ... : F#1 10 9 ... ... : F#1 10 . ... : C-# 0A . ... : ... .. . ...
ROW 0F : ... .. 2 ... ... : ... .. 2 ... ... : ... .. . ... : ... .. . ... : ... .. . ...
ROW 10 : G#1 10 9 S04 ... : G#1 10 9 S04 V00 : G#1 10 . ... : 1-# 07 . ... : E-5 01 . ...
ROW 11 : G#1 10 . ... ... : G#1 10 . ... ... : ... .. . ... : C-# 09 . ... : ... .. . ...
ROW 12 : ... .. 2 ... ... : ... .. 2 ... ... : --- .. . ... : C-# 0A . ... : ... .. . ...
ROW 13 : G#1 10 9 ... ... : G#1 10 9 ... ... : G#1 10 . ... : ... .. . ... : ... .. . ...
ROW 14 : ... .. 2 ... V02 : ... .. 2 ... ... : ... .. . ... : B-# 19 . ... : E-5 01 . ...
ROW 15 : G#1 10 9 S04 ... : G#1 10 9 S04 ... : --- .. . ... : ... .. . ... : ... .. . ...
ROW 16 : G#1 10 . ... ... : G#1 10 . ... ... : G#1 10 . ... : C-# 0A . ... : ... .. . ...
ROW 17 : ... .. 2 ... ... : ... .. 2 ... ... : ... .. . S04 : ... .. . ... : ... .. . ...
ROW 18 : G#1 10 9 S04 ... : G#1 10 9 S04 V01 : G#1 10 . ... : 1-# 07 . ... : E-5 01 . ...
ROW 19 : G#1 10 . S04 ... : G#1 10 . S04 ... : ... .. . ... : C-# 09 . ... : ... .. . ...
ROW 1A : A-1 10 . ... ... : A-1 10 . ... ... : A-1 10 . ... : C-# 0A . ... : ... .. . ...
ROW 1B : ... .. 2 ... ... : ... .. 2 ... ... : ... .. . ... : ... .. . ... : ... .. . ...
ROW 1C : B-1 10 9 V02 V01 : B-1 10 9 ... ... : B-1 10 . ... : B-# 19 . ... : E-5 01 . ...
ROW 1D : ... .. 2 ... ... : ... .. 2 ... ... : ... .. . ... : ... .. . ... : ... .. . ...
ROW 1E : F#1 10 9 ... ... : F#1 10 9 ... ... : F#1 10 . ... : C-# 0A . ... : ... .. . ...
ROW 1F : ... .. 2 ... ... : ... .. 2 ... ... : ... .. . ... : ... .. . ... : ... .. . ...
ROW 20 : G#1 10 9 S04 ... : G#1 10 9 S04 V02 : G#1 10 . ... : 1-# 07 . ... : E-5 01 . ...
ROW 21 : G#1 10 . ... ... : G#1 10 . ... ... : ... .. . ... : C-# 09 . ... : ... .. . ...
ROW 22 : ... .. 2 ... ... : ... .. 2 ... ... : --- .. . ... : C-# 0A . ... : ... .. . ...
ROW 23 : G#1 10 9 ... ... : G#1 10 9 ... ... : G#1 10 . ... : ... .. . ... : ... .. . ...
ROW 24 : ... .. 2 ... V00 : ... .. 2 ... ... : ... .. . ... : B-# 19 . ... : E-5 01 . ...
ROW 25 : G#1 10 9 S04 ... : G#1 10 9 S04 ... : --- .. . ... : ... .. . ... : ... .. . ...
ROW 26 : G#1 10 . ... ... : G#1 10 . ... ... : G#1 10 . ... : C-# 0A . ... : ... .. . ...
ROW 27 : ... .. 2 ... ... : ... .. 2 ... ... : ... .. . S04 : ... .. . ... : ... .. . ...
ROW 28 : G#1 10 9 S04 ... : G#1 10 9 S04 V01 : G#1 10 . ... : 1-# 07 . ... : E-5 01 . ...
ROW 29 : G#1 10 . S04 ... : G#1 10 . S04 ... : ... .. . ... : C-# 09 . ... : ... .. . ...
ROW 2A : A-1 10 . ... ... : A-1 10 . ... ... : A-1 10 . ... : C-# 0A . ... : ... .. . ...
ROW 2B : ... .. 2 ... ... : ... .. 2 ... ... : ... .. . ... : ... .. . ... : ... .. . ...
ROW 2C : B-1 10 9 V02 V01 : B-1 10 9 ... ... : B-1 10 . ... : B-# 19 . ... : E-5 01 . ...
ROW 2D : ... .. 2 ... ... : ... .. 2 ... ... : ... .. . ... : ... .. . ... : ... .. . ...
ROW 2E : F#1 10 9 ... ... : F#1 10 9 ... ... : F#1 10 . ... : C-# 0A . ... : ... .. . ...
ROW 2F : ... .. 2 ... ... : ... .. 2 ... ... : ... .. . ... : ... .. . ... : ... .. . ...
ROW 30 : G#1 10 9 S04 ... : G#1 10 9 S04 V00 : G#1 10 . ... : 1-# 07 . ... : E-5 01 . ...
ROW 31 : G#1 10 . ... ... : G#1 10 . ... ... : ... .. . ... : C-# 09 . ... : ... .. . ...
ROW 32 : ... .. 2 ... ... : ... .. 2 ... ... : --- .. . ... : C-# 0A . ... : ... .. . ...
ROW 33 : G#1 10 9 ... ... : G#1 10 9 ... ... : G#1 10 . ... : ... .. . ... : ... .. . ...
ROW 34 : ... .. 2 ... V02 : ... .. 2 ... ... : ... .. . ... : B-# 19 . ... : ... .. . ...
ROW 35 : G#1 10 9 S04 ... : G#1 10 9 S04 ... : --- .. . ... : ... .. . ... : ... .. . ...
ROW 36 : G#1 10 . ... ... : G#1 10 . ... ... : G#1 10 . ... : C-# 0A . ... : ... .. . ...
ROW 37 : ... .. 2 ... ... : ... .. 2 ... ... : ... .. . S04 : ... .. . ... : ... .. . ...
ROW 38 : G#1 10 9 S04 ... : G#1 10 9 S04 V01 : G#1 10 . ... : 1-# 07 . ... : ... .. . ...
ROW 39 : G#1 10 . S04 ... : G#1 10 . S04 ... : ... .. . ... : C-# 09 . ... : ... .. . ...
ROW 3A : A-1 10 . ... ... : A-1 10 . ... ... : A-1 10 . ... : C-# 0A . ... : ... .. . ...
ROW 3B : ... .. 2 ... ... : ... .. 2 ... ... : ... .. . ... : ... .. . ... : ... .. . ...
ROW 3C : B-1 10 9 V02 V01 : B-1 10 9 ... ... : B-1 10 . ... : B-# 19 . ... : F-5 01 . ...
ROW 3D : ... .. 2 ... ... : ... .. 2 ... ... : ... .. . ... : ... .. . ... : ... .. . ...
ROW 3E : F#1 10 9 ... ... : F#1 10 9 ... ... : F#1 10 . ... : C-# 0A . ... : E-5 01 . ...
ROW 3F : ... .. 2 ... 000 : ... .. 2 ... ... : ... .. . ... : ... .. . ... : ... .. . ...
PATTERN 03
ROW 00 : G#1 10 . 00C ... : G#1 10 6 ... ... : G#1 10 . P90 : 1-# 07 . ... : E-5 01 . ...
ROW 01 : ... .. . ... ... : ... .. . ... ... : ... .. . ... : C-# 09 . ... : ... .. . ...
ROW 02 : --- .. . ... ... : --- .. . ... ... : --- .. . ... : C-# 0A . ... : ... .. . ...
ROW 03 : G#1 10 . ... ... : G#1 10 . ... ... : G#1 10 . ... : ... .. . ... : ... .. . ...
ROW 04 : ... .. . ... ... : ... .. . ... ... : ... .. . ... : B-# 19 . ... : F-5 01 . ...
ROW 05 : --- .. . ... ... : --- .. . ... ... : --- .. . ... : ... .. . ... : ... .. . ...
ROW 06 : G#1 10 . ... ... : G#1 10 . ... ... : G#1 10 . ... : C-# 0A . ... : ... .. . ...
ROW 07 : ... .. . ... ... : ... .. . ... ... : ... .. . S04 : ... .. . ... : ... .. . ...
ROW 08 : G#1 10 . ... ... : G#1 10 . ... ... : G#1 10 . ... : 1-# 07 . ... : E-5 01 . ...
ROW 09 : ... .. . ... ... : ... .. . ... ... : ... .. . ... : C-# 09 . ... : ... .. . ...
ROW 0A : A-1 10 . ... ... : A-1 10 . ... ... : A-1 10 . ... : C-# 0A . ... : ... .. . ...
ROW 0B : ... .. . ... ... : ... .. . ... ... : ... .. . ... : ... .. . ... : ... .. . ...
ROW 0C : B-1 10 . ... ... : B-1 10 . ... ... : B-1 10 . ... : B-# 19 . ... : F-5 01 . ...
ROW 0D : ... .. . ... ... : ... .. . ... ... : ... .. . ... : ... .. . ... : ... .. . ...
ROW 0E : F#1 10 . ... ... : F#1 10 . ... ... : F#1 10 . ... : C-# 0A . ... : ... .. . ...
ROW 0F : ... .. . ... ... : ... .. . ... ... : ... .. . ... : ... .. . ... : ... .. . ...
ROW 10 : G#1 10 . ... ... : G#1 10 . ... ... : G#1 10 . ... : 1-# 07 . ... : E-5 01 . ...
ROW 11 : ... .. . ... ... : ... .. . ... ... : ... .. . ... : C-# 09 . ... : ... .. . ...
ROW 12 : --- .. . ... ... : --- .. . ... ... : --- .. . ... : C-# 0A . ... : ... .. . ...
ROW 13 : G#1 10 . ... ... : G#1 10 . ... ... : G#1 10 . ... : ... .. . ... : ... .. . ...
ROW 14 : ... .. . ... ... : ... .. . ... ... : ... .. . ... : B-# 19 . ... : F-5 01 . ...
ROW 15 : --- .. . ... ... : --- .. . ... ... : --- .. . ... : ... .. . ... : ... .. . ...
ROW 16 : G#1 10 . ... ... : G#1 10 . ... ... : G#1 10 . ... : C-# 0A . ... : ... .. . ...
ROW 17 : ... .. . ... ... : ... .. . ... ... : ... .. . S04 : ... .. . ... : ... .. . ...
ROW 18 : G#1 10 . ... ... : G#1 10 . ... ... : G#1 10 . ... : 1-# 07 . ... : E-5 01 . ...
ROW 19 : ... .. . ... ... : ... .. . ... ... : ... .. . ... : C-# 09 . ... : ... .. . ...
ROW 1A : A-1 10 . ... ... : A-1 10 . ... ... : A-1 10 . ... : C-# 0A . ... : ... .. . ...
ROW 1B : ... .. . ... ... : ... .. . ... ... : ... .. . ... : ... .. . ... : ... .. . ...
ROW 1C : B-1 10 . ... ... : B-1 10 . ... ... : B-1 10 . ... : B-# 19 . ... : F-5 01 . ...
ROW 1D : ... .. . ... ... : ... .. . ... ... : ... .. . ... : ... .. . ... : ... .. . ...
ROW 1E : F#1 10 . ... ... : F#1 10 . ... ... : F#1 10 . ... : C-# 0A . ... : ... .. . ...
ROW 1F : ... .. . ... ... : ... .. . ... ... : ... .. . ... : ... .. . ... : ... .. . ...
ROW 20 : G#1 10 . ... ... : G#1 10 . ... ... : G#1 10 . ... : 1-# 07 . ... : E-5 01 . ...
ROW 21 : ... .. . ... ... : ... .. . ... ... : ... .. . ... : C-# 09 . ... : ... .. . ...
ROW 22 : --- .. . ... ... : --- .. . ... ... : --- .. . ... : C-# 0A . ... : ... .. . ...
ROW 23 : G#1 10 . ... ... : G#1 10 . ... ... : G#1 10 . ... : ... .. . ... : ... .. . ...
ROW 24 : ... .. . ... ... : ... .. . ... ... : ... .. . ... : B-# 19 . ... : F-5 01 . ...
ROW 25 : --- .. . ... ... : --- .. . ... ... : --- .. . ... : ... .. . ... : ... .. . ...
ROW 26 : G#1 10 . ... ... : G#1 10 . ... ... : G#1 10 . ... : C-# 0A . ... : ... .. . ...
ROW 27 : ... .. . ... ... : ... .. . ... ... : ... .. . S04 : ... .. . ... : ... .. . ...
ROW 28 : G#1 10 . ... ... : G#1 10 . ... ... : G#1 10 . ... : 1-# 07 . ... : E-5 01 . ...
ROW 29 : ... .. . ... ... : ... .. . ... ... : ... .. . ... : C-# 09 . ... : ... .. . ...
ROW 2A : A-1 10 . ... ... : A-1 10 . ... ... : A-1 10 . ... : C-# 0A . ... : ... .. . ...
ROW 2B : ... .. . ... ... : ... .. . ... ... : ... .. . ... : ... .. . ... : ... .. . ...
ROW 2C : B-1 10 . ... ... : B-1 10 . ... ... : B-1 10 . ... : B-# 19 . ... : F-5 01 . ...
ROW 2D : ... .. . ... ... : ... .. . ... ... : ... .. . ... : ... .. . ... : ... .. . ...
ROW 2E : F#1 10 . ... ... : F#1 10 . ... ... : F#1 10 . ... : C-# 0A . ... : ... .. . ...
ROW 2F : ... .. . ... ... : ... .. . ... ... : ... .. . ... : ... .. . ... : ... .. . ...
ROW 30 : G#1 10 . ... ... : G#1 10 . ... ... : G-3 0B . ... : --- .. . ... : E-5 01 . ...
ROW 31 : ... .. . ... ... : ... .. . ... ... : ... .. . ... : ... .. . ... : ... .. . ...
ROW 32 : --- .. . ... ... : --- .. . ... ... : --- .. . ... : ... .. . ... : ... .. . ...
ROW 33 : G#1 10 . ... ... : G#1 10 . ... ... : ... .. . ... : ... .. . ... : ... .. . ...
ROW 34 : ... .. . ... ... : ... .. . ... ... : ... .. . ... : ... .. . ... : ... .. . ...
ROW 35 : --- .. . ... ... : --- .. . ... ... : ... .. . ... : ... .. . ... : ... .. . ...
ROW 36 : G#1 10 . ... ... : G#1 10 . ... ... : ... .. . ... : ... .. . ... : ... .. . ...
ROW 37 : ... .. . ... ... : ... .. . ... ... : ... .. . ... : ... .. . ... : ... .. . ...
ROW 38 : G#1 10 . ... ... : G#1 10 . ... ... : ... .. . ... : ... .. . ... : ... .. . ...
ROW 39 : ... .. . ... ... : ... .. . ... ... : ... .. . ... : ... .. . ... : ... .. . ...
ROW 3A : A-1 10 . ... ... : A-1 10 . ... ... : ... .. . ... : ... .. . ... : E-5 01 . ...
ROW 3B : ... .. . ... ... : ... .. . ... ... : ... .. . ... : ... .. . ... : ... .. . ...
ROW 3C : B-1 10 . ... ... : B-1 10 . ... ... : ... .. . ... : 8-# 12 . ... : ... .. . ...
ROW 3D : ... .. . ... ... : ... .. . ... ... : ... .. . ... : ... .. . ... : ... .. . ...
ROW 3E : F#1 10 . ... ... : F#1 10 . ... ... : G-3 0B . ... : 1-# 07 . ... : E-5 01 . ...
ROW 3F : ... .. . ... ... : ... .. . ... ... : ... .. . ... : ... .. . ... : ... .. . ...
PATTERN 04
ROW 00 : G#1 10 9 V01 ... : G#2 10 9 ... ... : G#1 10 . P90 : C-# 12 . ... : E-5 01 . ...
ROW 01 : ... .. 2 ... ... : ... .. 2 ... ... : ... .. . ... : C-# 09 . ... : G#3 01 . ...
ROW 02 : G#1 10 9 S04 ... : G#2 10 9 S04 ... : --- .. . ... : 3-# 19 . ... : ... .. . ...
ROW 03 : G#2 10 . ... ... : G#3 10 . ... ... : G#1 10 . ... : ... .. . ... : G#3 01 . ...
ROW 04 : ... .. 2 ... ... : ... .. 2 ... ... : ... .. . ... : B-# 19 . ... : F-5 01 . ...
ROW 05 : ... .. 1 ... ... : ... .. 1 ... ... : --- .. . ... : C-# 09 . ... : ... .. . ...
ROW 06 : G#1 10 9 S04 ... : G#2 10 9 S04 ... : G#1 10 . ... : 3-# 19 . ... : ... .. . ...
ROW 07 : G#2 10 . ... ... : G#3 10 . ... ... : ... .. . S04 : ... .. . ... : ... .. . ...
ROW 08 : ... .. 1 ... ... : ... .. 1 ... ... : G#1 10 . ... : 1-# 07 . ... : E-5 01 . ...
ROW 09 : G#1 10 9 ... ... : G#2 10 9 ... ... : ... .. . ... : C-# 09 . ... : ... .. . ...
ROW 0A : A-1 10 . ... ... : A-2 10 . ... ... : A-1 10 . ... : 3-# 19 . ... : ... .. . ...
ROW 0B : ... .. 2 ... ... : ... .. 2 ... ... : ... .. . ... : ... .. . ... : ... .. . ...
ROW 0C : B-1 10 9 S04 ... : B-2 10 9 S04 ... : B-1 10 . ... : B-# 19 . ... : F-5 01 . ...
ROW 0D : B-1 10 . ... ... : B-2 10 . ... ... : ... .. . ... : C-# 09 . ... : ... .. . ...
ROW 0E : F#1 10 . ... ... : F#3 10 . ... ... : F#1 10 . ... : 3-# 19 . ... : ... .. . ...
ROW 0F : ... .. 2 ... ... : F#2 10 6 ... ... : ... .. . ... : ... .. . ... : ... .. . ...
ROW 10 : G#1 10 9 V01 ... : G#2 10 9 ... ... : G#1 10 . ... : 1-# 07 . ... : E-5 01 . ...
ROW 11 : ... .. 2 ... ... : ... .. 2 ... ... : ... .. . ... : C-# 09 . ... : G#3 01 . ...
ROW 12 : G#1 10 9 S04 ... : G#2 10 9 S04 ... : --- .. . ... : 3-# 19 . ... : ... .. . ...
ROW 13 : G#2 10 . ... ... : G#3 10 . ... ... : G#1 10 . ... : ... .. . ... : G#3 01 . ...
ROW 14 : ... .. 2 ... ... : ... .. 2 ... ... : ... .. . ... : B-# 19 . ... : F-5 01 . ...
ROW 15 : ... .. 1 ... ... : ... .. 1 ... ... : --- .. . ... : C-# 09 . ... : ... .. . ...
ROW 16 : G#1 10 9 S04 ... : G#2 10 9 S04 ... : G#1 10 . ... : 3-# 19 . ... : ... .. . ...
ROW 17 : G#2 10 . ... ... : G#3 10 . ... ... : ... .. . S04 : ... .. . ... : ... .. . ...
ROW 18 : ... .. 1 ... ... : ... .. 1 ... ... : G#1 10 . ... : 1-# 07 . ... : E-5 01 . ...
ROW 19 : G#1 10 9 ... ... : G#2 10 9 ... ... : ... .. . ... : C-# 09 . ... : ... .. . ...
ROW 1A : A-2 10 . ... ... : A-3 10 . ... ... : A-1 10 . ... : 3-# 19 . ... : ... .. . ...
ROW 1B : ... .. 2 ... ... : ... .. 2 ... ... : ... .. . ... : ... .. . ... : ... .. . ...
ROW 1C : B-2 10 9 S04 ... : B-3 10 9 S04 ... : B-1 10 . ... : B-# 19 . ... : F-5 01 . ...
ROW 1D : B-1 10 . ... ... : B-2 10 . ... ... : ... .. . ... : C-# 09 . ... : ... .. . ...
ROW 1E : F#1 10 . ... ... : F#2 10 . ... ... : F#1 10 . ... : 3-# 19 . ... : ... .. . ...
ROW 1F : F#2 10 2 ... ... : F#3 10 6 ... ... : ... .. . ... : ... .. . ... : ... .. . ...
ROW 20 : G#1 10 9 V01 ... : G#2 10 9 ... ... : G#1 10 . ... : 1-# 07 . ... : E-5 01 . ...
ROW 21 : ... .. 2 ... ... : ... .. 2 ... ... : ... .. . ... : C-# 09 . ... : G#3 01 . ...
ROW 22 : G#1 10 9 S04 ... : G#2 10 9 S04 ... : --- .. . ... : 3-# 19 . ... : ... .. . ...
ROW 23 : G#2 10 . ... ... : G#3 10 . ... ... : G#1 10 . ... : ... .. . ... : G#3 01 . ...
ROW 24 : ... .. 2 ... ... : ... .. 2 ... ... : ... .. . ... : B-# 19 . ... : F-5 01 . ...
ROW 25 : ... .. 1 ... ... : ... .. 1 ... ... : --- .. . ... : C-# 09 . ... : ... .. . ...
ROW 26 : G#1 10 9 S04 ... : G#2 10 9 S04 ... : G#1 10 . ... : 3-# 19 . ... : ... .. . ...
ROW 27 : G#2 10 . ... ... : G#3 10 . ... ... : ... .. . S04 : ... .. . ... : ... .. . ...
ROW 28 : ... .. 1 ... ... : ... .. 1 ... ... : G#1 10 . ... : 1-# 07 . ... : E-5 01 . ...
ROW 29 : G#1 10 9 ... ... : G#2 10 9 ... ... : ... .. . ... : C-# 09 . ... : ... .. . ...
ROW 2A : A-1 10 . ... ... : A-2 10 . ... ... : A-1 10 . ... : 3-# 19 . ... : ... .. . ...
ROW 2B : ... .. 2 ... ... : ... .. 2 ... ... : ... .. . ... : ... .. . ... : ... .. . ...
ROW 2C : --- .. . ... ... : --- .. . ... ... : B-1 10 . ... : B-# 19 . ... : F-5 01 . ...
ROW 2D : ... .. . ... ... : ... .. . ... ... : ... .. . ... : C-# 09 . ... : ... .. . ...
ROW 2E : ... .. . ... ... : ... .. . ... ... : F#1 10 . ... : 3-# 19 . ... : ... .. . ...
ROW 2F : ... .. . ... ... : ... .. . ... ... : ... .. . ... : ... .. . ... : ... .. . ...
ROW 30 : G#1 10 9 ... 00C : G#1 10 9 ... ... : G-3 0B . ... : 1-# 07 . ... : E-5 01 . ...
ROW 31 : ... .. 6 ... ... : ... .. 6 ... ... : ... .. . ... : C-# 09 . ... : G#3 01 . ...
ROW 32 : ... .. 5 S04 ... : ... .. 5 S04 ... : --- .. . ... : 3-# 19 . ... : ... .. . ...
ROW 33 : G#1 10 9 V00 ... : G#1 10 9 ... ... : ... .. . ... : ... .. . ... : G#3 01 . ...
ROW 34 : ... .. 6 ... ... : ... .. 6 ... ... : ... .. . ... : B-# 19 . ... : F-5 01 . ...
ROW 35 : ... .. 4 ... ... : ... .. 4 ... ... : ... .. . ... : C-# 09 . ... : ... .. . ...
ROW 36 : G#1 10 9 ... ... : G#1 10 9 ... ... : ... .. . ... : 3-# 19 . ... : ... .. . ...
ROW 37 : ... .. 4 ... ... : ... .. 4 ... ... : ... .. . ... : ... .. . ... : ... .. . ...
ROW 38 : G#1 10 9 S04 ... : G#1 10 9 S04 ... : ... .. . ... : 1-# 07 . ... : E-5 01 . ...
ROW 39 : G#1 10 . S04 ... : G#1 10 . S04 ... : ... .. . ... : C-# 09 . ... : ... .. . ...
ROW 3A : A-1 10 . ... ... : A-1 10 . ... ... : G-3 0B . ... : 3-# 19 . ... : ... .. . ...
ROW 3B : ... .. 2 ... ... : ... .. 2 ... ... : ... .. . ... : ... .. . ... : ... .. . ...
ROW 3C : B-1 10 9 V02 ... : B-1 10 9 ... ... : --- .. . ... : B-# 19 . ... : F-5 01 . ...
ROW 3D : ... .. 4 ... ... : ... .. 4 ... ... : ... .. . ... : C-# 09 . ... : ... .. . ...
ROW 3E : F#1 10 9 ... ... : F#1 10 9 ... ... : G-3 0B . ... : 3-# 19 . ... : ... .. . ...
ROW 3F : ... .. 4 ... ... : ... .. 4 ... ... : ... .. . ... : ... .. . ... : ... .. . ...
PATTERN 05
ROW 00 : G#1 10 9 ... ... : G#1 10 9 ... ... : C#2 10 . ... : 1-# 07 . ... : E-5 01 . ...
ROW 01 : ... .. 6 ... ... : ... .. 6 ... ... : ... .. . ... : C-# 09 . ... : C#4 01 . ...
ROW 02 : ... .. 5 S04 ... : ... .. 5 S04 ... : --- .. . ... : C-# 0A . ... : ... .. . ...
ROW 03 : G#1 10 9 V00 ... : G#1 10 9 ... ... : C#2 10 . ... : ... .. . ... : C#4 01 . ...
ROW 04 : ... .. 6 ... ... : ... .. 6 ... ... : ... .. . ... : B-# 19 . ... : F-5 01 . ...
ROW 05 : ... .. 5 S04 ... : ... .. 5 S04 ... : --- .. . ... : ... .. . ... : ... .. . ...
ROW 06 : G#1 10 9 ... ... : G#1 10 9 ... ... : C#2 10 . ... : C-# 0A . ... : ... .. . ...
ROW 07 : ... .. 4 ... ... : ... .. 4 ... ... : ... .. . S04 : ... .. . ... : ... .. . ...
ROW 08 : G#1 10 9 S04 ... : G#1 10 9 S04 ... : C#2 10 . ... : 1-# 07 . ... : E-5 01 . ...
ROW 09 : G#1 10 . S04 ... : G#1 10 . S04 ... : ... .. . S04 : C-# 09 . ... : ... .. . ...
ROW 0A : A-1 10 . ... ... : A-1 10 . ... ... : C#2 10 . ... : C-# 0A . ... : ... .. . ...
ROW 0B : ... .. 2 ... ... : ... .. 2 ... ... : ... .. . S04 : ... .. . ... : ... .. . ...
ROW 0C : B-1 10 9 V02 ... : B-1 10 9 ... ... : C#2 10 . ... : B-# 19 . ... : F-5 01 . ...
ROW 0D : ... .. 4 ... ... : ... .. 4 ... ... : ... .. . S04 : ... .. . ... : ... .. . ...
ROW 0E : F#1 10 9 ... ... : F#1 10 9 ... ... : C#2 10 . ... : C-# 0A . ... : ... .. . ...
ROW 0F : ... .. 4 ... ... : ... .. 4 ... ... : ... .. . S04 : ... .. . ... : ... .. . ...
ROW 10 : G#1 10 9 S04 ... : G#1 10 9 S04 ... : B-1 10 . ... : 1-# 07 . ... : E-5 01 . ...
ROW 11 : G#1 10 . S04 ... : G#1 10 . S04 ... : ... .. . ... : C-# 09 . ... : B-3 01 . ...
ROW 12 : G#1 10 . S04 ... : G#1 10 . S04 ... : --- .. . ... : C-# 0A . ... : ... .. . ...
ROW 13 : G#1 10 . V00 ... : G#1 10 . V00 ... : B-1 10 . ... : ... .. . ... : B-3 01 . ...
ROW 14 : ... .. 6 ... ... : ... .. 6 ... ... : ... .. . ... : B-# 19 . ... : F-5 01 . ...
ROW 15 : G#1 10 9 S04 ... : G#1 10 9 S04 ... : --- .. . ... : ... .. . ... : ... .. . ...
ROW 16 : G#1 10 . ... ... : G#1 10 . ... ... : B-1 10 . ... : C-# 0A . ... : ... .. . ...
ROW 17 : ... .. 4 ... ... : ... .. 4 ... ... : ... .. . S04 : ... .. . ... : ... .. . ...
ROW 18 : G#1 10 9 S04 ... : G#1 10 9 S04 ... : B-1 10 . ... : 1-# 07 . ... : E-5 01 . ...
ROW 19 : G#1 10 . S04 ... : G#1 10 . S04 ... : ... .. . S04 : C-# 09 . ... : ... .. . ...
ROW 1A : A-1 10 . ... ... : A-1 10 . ... ... : B-1 10 . ... : C-# 0A . ... : ... .. . ...
ROW 1B : ... .. 2 ... ... : ... .. 2 ... ... : ... .. . S04 : ... .. . ... : ... .. . ...
ROW 1C : B-1 10 9 V02 ... : B-1 10 9 ... ... : B-1 10 . ... : B-# 19 . ... : F-5 01 . ...
ROW 1D : ... .. 4 ... ... : ... .. 4 ... ... : ... .. . S04 : ... .. . ... : ... .. . ...
ROW 1E : F#1 10 9 ... ... : F#1 10 9 ... ... : A-1 10 . ... : C-# 0A . ... : ... .. . ...
ROW 1F : ... .. 4 ... ... : ... .. 4 ... ... : ... .. . S04 : ... .. . ... : ... .. . ...
ROW 20 : G#1 10 9 ... ... : G#1 10 9 ... ... : G#1 10 . ... : 1-# 07 . ... : E-5 01 . ...
ROW 21 : ... .. 6 ... ... : ... .. 6 ... ... : ... .. . ... : C-# 09 . ... : G#3 01 . ...
ROW 22 : ... .. 5 S04 ... : ... .. 5 S04 ... : --- .. . ... : C-# 0A . ... : ... .. . ...
ROW 23 : G#1 10 9 V00 ... : G#1 10 9 ... ... : G#1 10 . ... : ... .. . ... : G#3 01 . ...
ROW 24 : ... .. 6 ... ... : ... .. 6 ... ... : ... .. . ... : B-# 19 . ... : F-5 01 . ...
ROW 25 : ... .. 5 S04 ... : ... .. 5 S04 ... : --- .. . ... : ... .. . ... : ... .. . ...
ROW 26 : G#1 10 9 ... ... : G#1 10 9 ... ... : G#1 10 . ... : C-# 0A . ... : ... .. . ...
ROW 27 : ... .. 4 ... ... : ... .. 4 ... ... : ... .. . S04 : ... .. . ... : ... .. . ...
ROW 28 : G#1 10 9 S04 ... : G#1 10 9 S04 ... : G#1 10 . ... : 1-# 07 . ... : E-5 01 . ...
ROW 29 : G#1 10 . S04 ... : G#1 10 . S04 ... : ... .. . ... : C-# 09 . ... : ... .. . ...
ROW 2A : A-1 10 . ... ... : A-1 10 . ... ... : A-1 10 . ... : C-# 0A . ... : ... .. . ...
ROW 2B : ... .. 2 ... ... : ... .. 2 ... ... : ... .. . ... : ... .. . ... : ... .. . ...
ROW 2C : B-1 10 9 V02 ... : B-1 10 9 ... ... : B-1 10 . ... : B-# 19 . ... : F-5 01 . ...
ROW 2D : ... .. 4 ... ... : ... .. 4 ... ... : ... .. . ... : ... .. . ... : ... .. . ...
ROW 2E : F#1 10 9 ... ... : F#1 10 9 ... ... : F#1 10 . ... : C-# 0A . ... : ... .. . ...
ROW 2F : ... .. 4 ... ... : ... .. 4 ... ... : ... .. . ... : ... .. . ... : ... .. . ...
ROW 30 : G#1 10 9 S04 ... : G#1 10 9 S04 ... : G-3 0B . ... : --- .. . ... : E-5 01 . ...
ROW 31 : G#1 10 . S04 ... : G#1 10 . S04 ... : ... .. . ... : ... .. . ... : G#3 01 . ...
ROW 32 : G#1 10 . S04 ... : G#1 10 . S04 ... : --- .. . ... : ... .. . ... : ... .. . ...
ROW 33 : G#1 10 . V00 ... : G#1 10 . V00 ... : ... .. . ... : ... .. . ... : G#3 01 . ...
ROW 34 : ... .. 6 ... ... : ... .. 6 ... ... : G-3 0B . ... : ... .. . ... : E-5 01 . ...
ROW 35 : G#1 10 9 S04 ... : G#1 10 9 S04 ... : ... .. . ... : ... .. . ... : ... .. . ...
ROW 36 : G#1 10 . ... ... : G#1 10 . ... ... : --- .. . ... : ... .. . ... : ... .. . ...
ROW 37 : ... .. 4 ... ... : ... .. 4 ... ... : ... .. . ... : ... .. . ... : ... .. . ...
ROW 38 : G#1 10 9 S04 ... : G#1 10 9 S04 ... : G-3 0B . ... : ... .. . ... : E-5 01 . ...
ROW 39 : G#1 10 . S04 ... : G#1 10 . S04 ... : ... .. . ... : ... .. . ... : ... .. . ...
ROW 3A : A-1 10 . ... ... : A-1 10 . ... ... : --- .. . ... : ... .. . ... : ... .. . ...
ROW 3B : ... .. 2 ... ... : ... .. 2 ... ... : ... .. . ... : ... .. . ... : ... .. . ...
ROW 3C : B-1 10 9 V02 ... : B-1 10 9 ... ... : ... .. . ... : 8-# 12 . ... : ... .. . ...
ROW 3D : ... .. 4 ... ... : ... .. 4 ... ... : ... .. . ... : ... .. . ... : ... .. . ...
ROW 3E : F#1 10 9 ... ... : F#1 10 9 ... ... : G-3 0B . ... : 3-# 19 . ... : E-5 01 . ...
ROW 3F : ... .. 4 ... ... : ... .. 4 ... ... : ... .. . ... : ... .. . ... : ... .. . C00
PATTERN 06
ROW 00 : G#1 10 . 00C ... : G#1 10 6 ... ... : ... .. . ... : 1-# 07 . ... : --- .. . ...
ROW 01 : ... .. . ... ... : ... .. . ... ... : ... .. . ... : C-# 09 . ... : ... .. . ...
ROW 02 : --- .. . ... ... : --- .. . ... ... : ... .. . ... : 3-# 19 . ... : ... .. . ...
ROW 03 : G#1 10 . ... ... : G#1 10 . ... ... : ... .. . ... : ... .. . ... : ... .. . ...
ROW 04 : ... .. . ... ... : ... .. . ... ... : ... .. . ... : B-# 19 . ... : ... .. . ...
ROW 05 : --- .. . ... ... : --- .. . ... ... : ... .. . ... : ... .. . ... : ... .. . ...
ROW 06 : G#1 10 . ... ... : G#1 10 . ... ... : ... .. . ... : 3-# 19 . ... : ... .. . ...
ROW 07 : ... .. . ... ... : ... .. . ... ... : ... .. . ... : ... .. . ... : ... .. . ...
ROW 08 : G#1 10 . ... ... : G#1 10 . ... ... : ... .. . ... : 1-# 07 . ... : ... .. . ...
ROW 09 : ... .. . ... ... : ... .. . ... ... : ... .. . ... : C-# 09 . ... : ... .. . ...
ROW 0A : A-1 10 . ... ... : A-1 10 . ... ... : ... .. . ... : 3-# 19 . ... : ... .. . ...
ROW 0B : ... .. . ... ... : ... .. . ... ... : ... .. . ... : ... .. . ... : ... .. . ...
ROW 0C : B-1 10 . ... ... : B-1 10 . ... ... : ... .. . ... : B-# 19 . ... : ... .. . ...
ROW 0D : ... .. . ... ... : ... .. . ... ... : ... .. . ... : ... .. . ... : ... .. . ...
ROW 0E : F#1 10 . ... ... : F#1 10 . ... ... : ... .. . ... : 3-# 19 . ... : ... .. . ...
ROW 0F : ... .. . ... ... : ... .. . ... ... : ... .. . ... : ... .. . ... : ... .. . ...
ROW 10 : G#1 10 . ... ... : G#1 10 . ... ... : ... .. . ... : 1-# 07 . ... : ... .. . ...
ROW 11 : ... .. . ... ... : ... .. . ... ... : ... .. . ... : C-# 09 . ... : ... .. . ...
ROW 12 : --- .. . ... ... : --- .. . ... ... : ... .. . ... : 3-# 19 . ... : ... .. . ...
ROW 13 : G#1 10 . ... ... : G#1 10 . ... ... : ... .. . ... : ... .. . ... : ... .. . ...
ROW 14 : ... .. . ... ... : ... .. . ... ... : ... .. . ... : B-# 19 . ... : ... .. . ...
ROW 15 : --- .. . ... ... : --- .. . ... ... : ... .. . ... : ... .. . ... : ... .. . ...
ROW 16 : G#1 10 . ... ... : G#1 10 . ... ... : ... .. . ... : 3-# 19 . ... : ... .. . ...
ROW 17 : ... .. . ... ... : ... .. . ... ... : ... .. . ... : ... .. . ... : ... .. . ...
ROW 18 : G#1 10 . ... ... : G#1 10 . ... ... : ... .. . ... : 1-# 07 . ... : ... .. . ...
ROW 19 : ... .. . ... ... : ... .. . ... ... : ... .. . ... : C-# 09 . ... : ... .. . ...
ROW 1A : A-1 10 . ... ... : A-1 10 . ... ... : ... .. . ... : 3-# 19 . ... : ... .. . ...
ROW 1B : ... .. . ... ... : ... .. . ... ... : ... .. . ... : ... .. . ... : ... .. . ...
ROW 1C : B-1 10 . ... ... : B-1 10 . ... ... : ... .. . ... : B-# 19 . ... : ... .. . ...
ROW 1D : ... .. . ... ... : ... .. . ... ... : ... .. . ... : ... .. . ... : ... .. . ...
ROW 1E : F#1 10 . ... ... : F#1 10 . ... ... : ... .. . ... : 3-# 19 . ... : ... .. . ...
ROW 1F : ... .. . ... ... : ... .. . ... ... : ... .. . ... : ... .. . ... : ... .. . ...
ROW 20 : G#1 10 . ... ... : G#1 10 . ... ... : ... .. . ... : 1-# 07 . ... : ... .. . ...
ROW 21 : ... .. . ... ... : ... .. . ... ... : ... .. . ... : C-# 09 . ... : ... .. . ...
ROW 22 : --- .. . ... ... : --- .. . ... ... : ... .. . ... : 3-# 19 . ... : ... .. . ...
ROW 23 : G#1 10 . ... ... : G#1 10 . ... ... : ... .. . ... : ... .. . ... : ... .. . ...
ROW 24 : ... .. . ... ... : ... .. . ... ... : ... .. . ... : B-# 19 . ... : ... .. . ...
ROW 25 : --- .. . ... ... : --- .. . ... ... : ... .. . ... : ... .. . ... : ... .. . ...
ROW 26 : G#1 10 . ... ... : G#1 10 . ... ... : ... .. . ... : 3-# 19 . ... : ... .. . ...
ROW 27 : ... .. . ... ... : ... .. . ... ... : ... .. . ... : ... .. . ... : ... .. . ...
ROW 28 : G#1 10 . ... ... : G#1 10 . ... ... : ... .. . ... : 1-# 07 . ... : ... .. . ...
ROW 29 : ... .. . ... ... : ... .. . ... ... : ... .. . ... : C-# 09 . ... : ... .. . ...
ROW 2A : A-1 10 . ... ... : A-1 10 . ... ... : ... .. . ... : 3-# 19 . ... : ... .. . ...
ROW 2B : ... .. . ... ... : ... .. . ... ... : ... .. . ... : ... .. . ... : ... .. . ...
ROW 2C : B-1 10 . ... ... : B-1 10 . ... ... : ... .. . ... : B-# 19 . ... : ... .. . ...
ROW 2D : ... .. . ... ... : ... .. . ... ... : ... .. . ... : ... .. . ... : ... .. . ...
ROW 2E : F#1 10 . ... ... : F#1 10 . ... ... : ... .. . ... : 3-# 19 . ... : ... .. . ...
ROW 2F : ... .. . ... ... : ... .. . ... ... : ... .. . ... : ... .. . ... : ... .. . ...
ROW 30 : --- .. . ... ... : --- .. . ... ... : ... .. . ... : C-# 12 . ... : ... .. . ...
ROW 31 : ... .. . ... ... : ... .. . ... ... : ... .. . ... : ... .. . ... : ... .. . ...
ROW 32 : ... .. . ... ... : ... .. . ... ... : ... .. . ... : ... .. . ... : ... .. . ...
ROW 33 : ... .. . ... ... : ... .. . ... ... : ... .. . ... : ... .. . ... : ... .. . ...
ROW 34 : ... .. . ... ... : ... .. . ... ... : ... .. . ... : ... .. . ... : ... .. . ...
ROW 35 : ... .. . ... ... : ... .. . ... ... : ... .. . ... : ... .. . ... : ... .. . ...
ROW 36 : ... .. . ... ... : ... .. . ... ... : ... .. . ... : ... .. . ... : ... .. . ...
ROW 37 : ... .. . ... ... : ... .. . ... ... : ... .. . ... : ... .. . ... : ... .. . ...
ROW 38 : ... .. . ... ... : ... .. . ... ... : ... .. . ... : 0-# 08 . ... : ... .. . ...
ROW 39 : ... .. . ... ... : ... .. . ... ... : ... .. . ... : 0-# 08 . ... : ... .. . ...
ROW 3A : ... .. . ... ... : ... .. . ... ... : ... .. . ... : 1-# 07 . ... : ... .. . ...
ROW 3B : ... .. . ... ... : ... .. . ... ... : ... .. . ... : ... .. . ... : ... .. . ...
ROW 3C : ... .. . ... ... : ... .. . ... ... : ... .. . ... : 8-# 12 . ... : ... .. . ...
ROW 3D : ... .. . ... ... : ... .. . ... ... : ... .. . ... : ... .. . ... : ... .. . ...
ROW 3E : ... .. . ... ... : ... .. . ... ... : ... .. . ... : 1-# 07 . ... : ... .. . ...
ROW 3F : ... .. . 000 ... : ... .. . ... ... : ... .. . ... : ... .. . ... : ... .. . ...
PATTERN 07
ROW 00 : G#1 10 9 V00 S04 : G#2 16 . 037 ... : ... .. . ... : C-# 12 . ... : ... .. . ...
ROW 01 : G#1 10 . ... ... : ... .. . ... ... : ... .. . ... : ... .. . ... : ... .. . ...
ROW 02 : ... .. 5 ... ... : ... .. . ... ... : ... .. . ... : ... .. . ... : ... .. . ...
ROW 03 : G#1 10 8 ... ... : ... .. . ... ... : ... .. . ... : ... .. . ... : ... .. . ...
ROW 04 : ... .. 5 ... ... : ... .. . ... ... : ... .. . ... : B-# 19 . ... : ... .. . ...
ROW 05 : ... .. 2 ... ... : ... .. . ... ... : ... .. . ... : ... .. . ... : ... .. . ...
ROW 06 : --- .. . ... ... : ... .. . ... ... : ... .. . ... : C-# 0A . ... : ... .. . ...
ROW 07 : ... .. . ... ... : ... .. . ... ... : ... .. . ... : ... .. . ... : ... .. . ...
ROW 08 : ... .. . ... ... : ... .. . ... ... : ... .. . ... : 1-# 07 . ... : ... .. . ...
ROW 09 : G#1 10 9 V01 ... : ... .. . ... ... : ... .. . ... : C-# 09 . ... : ... .. . ...
ROW 0A : ... .. 2 ... ... : ... .. . ... ... : ... .. . ... : C-# 0A . ... : ... .. . ...
ROW 0B : G#1 10 9 S06 ... : ... .. . ... ... : ... .. . ... : ... .. . ... : ... .. . ...
ROW 0C : G#1 10 . ... ... : ... .. . ... ... : ... .. . ... : B-# 19 . ... : ... .. . ...
ROW 0D : ... .. 2 ... ... : ... .. . ... ... : ... .. . ... : ... .. . ... : ... .. . ...
ROW 0E : ... .. . ... ... : ... .. . ... ... : ... .. . ... : C-# 0A . ... : ... .. . ...
ROW 0F : ... .. . ... ... : ... .. . ... ... : ... .. . ... : ... .. . ... : ... .. . ...
ROW 10 : G#1 10 9 V00 S04 : ... .. . ... ... : ... .. . ... : 1-# 07 . ... : ... .. . ...
ROW 11 : G#1 10 . ... ... : ... .. . ... ... : ... .. . ... : C-# 09 . ... : ... .. . ...
ROW 12 : ... .. 5 ... ... : ... .. . ... ... : ... .. . ... : C-# 0A . ... : ... .. . ...
ROW 13 : G#1 10 8 ... ... : ... .. . ... ... : ... .. . ... : ... .. . ... : ... .. . ...
ROW 14 : ... .. 5 ... ... : ... .. . ... ... : ... .. . ... : B-# 19 . ... : ... .. . ...
ROW 15 : ... .. 2 ... ... : ... .. . ... ... : ... .. . ... : ... .. . ... : ... .. . ...
ROW 16 : --- .. . ... ... : ... .. . ... ... : ... .. . ... : C-# 0A . ... : ... .. . ...
ROW 17 : ... .. . ... ... : ... .. . ... ... : ... .. . ... : ... .. . ... : ... .. . ...
ROW 18 : ... .. . ... ... : ... .. . ... ... : ... .. . ... : 1-# 07 . ... : ... .. . ...
ROW 19 : G#1 10 9 V01 ... : ... .. . ... ... : ... .. . ... : C-# 09 . ... : ... .. . ...
ROW 1A : ... .. 2 ... ... : ... .. . ... ... : ... .. . ... : C-# 0A . ... : ... .. . ...
ROW 1B : G#1 10 9 S06 ... : ... .. . ... ... : ... .. . ... : ... .. . ... : ... .. . ...
ROW 1C : G#1 10 . ... ... : ... .. . ... ... : ... .. . ... : B-# 19 . ... : ... .. . ...
ROW 1D : ... .. 2 ... ... : ... .. . ... ... : ... .. . ... : ... .. . ... : ... .. . ...
ROW 1E : ... .. . ... ... : ... .. . ... ... : ... .. . ... : C-# 0A . ... : ... .. . ...
ROW 1F : ... .. . ... ... : ... .. . ... ... : ... .. . ... : ... .. . ... : ... .. . ...
ROW 20 : G#1 10 9 V00 S04 : ... .. . 038 ... : ... .. . ... : 1-# 07 . ... : ... .. . ...
ROW 21 : G#1 10 . ... ... : ... .. . ... ... : ... .. . ... : C-# 09 . ... : ... .. . ...
ROW 22 : ... .. 5 ... ... : ... .. . ... ... : ... .. . ... : C-# 0A . ... : ... .. . ...
ROW 23 : G#1 10 8 ... ... : ... .. . ... ... : ... .. . ... : ... .. . ... : ... .. . ...
ROW 24 : ... .. 5 ... ... : ... .. . ... ... : ... .. . ... : B-# 19 . ... : ... .. . ...
ROW 25 : ... .. 2 ... ... : ... .. . ... ... : ... .. . ... : ... .. . ... : ... .. . ...
ROW 26 : --- .. . ... ... : ... .. . ... ... : ... .. . ... : C-# 0A . ... : ... .. . ...
ROW 27 : ... .. . ... ... : ... .. . ... ... : ... .. . ... : ... .. . ... : ... .. . ...
ROW 28 : ... .. . ... ... : ... .. . ... ... : ... .. . ... : 1-# 07 . ... : ... .. . ...
ROW 29 : G#1 10 9 V01 ... : ... .. . ... ... : ... .. . ... : C-# 09 . ... : ... .. . ...
ROW 2A : ... .. 2 ... ... : ... .. . ... ... : ... .. . ... : C-# 0A . ... : ... .. . ...
ROW 2B : G#1 10 9 S06 ... : ... .. . ... ... : ... .. . ... : ... .. . ... : ... .. . ...
ROW 2C : G#1 10 . ... ... : ... .. . ... ... : ... .. . ... : B-# 19 . ... : ... .. . ...
ROW 2D : ... .. 2 ... ... : ... .. . ... ... : ... .. . ... : ... .. . ... : ... .. . ...
ROW 2E : ... .. . ... ... : ... .. . ... ... : ... .. . ... : C-# 0A . ... : ... .. . ...
ROW 2F : ... .. . ... ... : ... .. . ... ... : ... .. . ... : ... .. . ... : ... .. . ...
ROW 30 : G#1 10 9 V00 S04 : ... .. . ... ... : ... .. . ... : D-# 01 8 S04 : ... .. . ...
ROW 31 : G#1 10 . ... ... : ... .. . ... ... : ... .. . ... : D-# 01 . S04 : ... .. . ...
ROW 32 : ... .. 5 ... ... : ... .. . ... ... : ... .. . ... : ... .. . ... : ... .. . ...
ROW 33 : G#1 10 8 ... ... : ... .. . ... ... : ... .. . ... : D-# 01 . S04 : ... .. . ...
ROW 34 : ... .. 5 ... ... : ... .. . ... ... : ... .. . ... : ... .. . ... : ... .. . ...
ROW 35 : ... .. 2 ... ... : ... .. . ... ... : ... .. . ... : ... .. . ... : ... .. . ...
ROW 36 : --- .. . ... ... : ... .. . ... ... : ... .. . ... : ... .. . ... : ... .. . ...
ROW 37 : ... .. . ... ... : ... .. . ... ... : ... .. . ... : D-# 01 . S04 : ... .. . ...
ROW 38 : ... .. . ... ... : ... .. . ... ... : ... .. . ... : ... .. . ... : ... .. . ...
ROW 39 : G#1 10 9 V01 ... : ... .. . ... ... : ... .. . ... : D-# 01 . S04 : ... .. . ...
ROW 3A : ... .. 2 ... ... : ... .. . ... ... : ... .. . ... : ... .. . ... : ... .. . ...
ROW 3B : G#1 10 9 S06 ... : ... .. . ... ... : ... .. . ... : D-# 01 . S04 : ... .. . ...
ROW 3C : G#1 10 . ... ... : ... .. . ... ... : ... .. . ... : B-# 01 C ... : ... .. . ...
ROW 3D : ... .. 2 ... ... : ... .. . ... ... : ... .. . ... : ... .. . ... : ... .. . ...
ROW 3E : ... .. . ... ... : ... .. . ... ... : ... .. . ... : 1-# 07 F ... : ... .. . ...
ROW 3F : ... .. . ... ... : ... .. . ... ... : ... .. . ... : ... .. . ... : ... .. . ...
PATTERN 08
ROW 00 : C#2 10 9 V00 S04 : C#3 16 . 037 ... : ... .. . ... : ... .. . ... : ... .. . ...
ROW 01 : C#2 10 . ... ... : ... .. . ... ... : ... .. . ... : ... .. . ... : ... .. . ...
ROW 02 : ... .. 5 ... ... : ... .. . ... ... : ... .. . ... : ... .. . ... : ... .. . ...
ROW 03 : C#2 10 8 ... ... : ... .. . ... ... : ... .. . ... : ... .. . ... : ... .. . ...
ROW 04 : ... .. 5 ... ... : ... .. . ... ... : ... .. . ... : ... .. . ... : ... .. . ...
ROW 05 : ... .. 2 ... ... : ... .. . ... ... : ... .. . ... : ... .. . ... : ... .. . ...
ROW 06 : --- .. . ... ... : ... .. . ... ... : ... .. . ... : ... .. . ... : ... .. . ...
ROW 07 : ... .. . ... ... : ... .. . ... ... : ... .. . ... : ... .. . ... : ... .. . ...
ROW 08 : ... .. . ... ... : ... .. . ... ... : ... .. . ... : ... .. . ... : ... .. . ...
ROW 09 : C#2 10 9 V01 ... : ... .. . ... ... : ... .. . ... : ... .. . ... : ... .. . ...
ROW 0A : ... .. 2 ... ... : ... .. . ... ... : ... .. . ... : ... .. . ... : ... .. . ...
ROW 0B : C#2 10 9 S06 ... : ... .. . ... ... : ... .. . ... : ... .. . ... : ... .. . ...
ROW 0C : C#2 10 . ... ... : ... .. . ... ... : ... .. . ... : ... .. . ... : ... .. . ...
ROW 0D : ... .. 2 ... ... : ... .. . ... ... : ... .. . ... : ... .. . ... : ... .. . ...
ROW 0E : ... .. . ... ... : ... .. . ... ... : ... .. . ... : ... .. . ... : ... .. . ...
ROW 0F : ... .. . ... ... : ... .. . ... ... : ... .. . ... : ... .. . ... : ... .. . ...
ROW 10 : B-1 10 9 V00 S04 : B-2 16 . 049 ... : ... .. . ... : ... .. . ... : ... .. . ...
ROW 11 : B-1 10 . ... ... : ... .. . ... ... : ... .. . ... : ... .. . ... : ... .. . ...
ROW 12 : ... .. 5 ... ... : ... .. . ... ... : ... .. . ... : ... .. . ... : ... .. . ...
ROW 13 : B-1 10 8 ... ... : ... .. . ... ... : ... .. . ... : ... .. . ... : ... .. . ...
ROW 14 : ... .. 5 ... ... : ... .. . ... ... : ... .. . ... : ... .. . ... : ... .. . ...
ROW 15 : ... .. 2 ... ... : ... .. . ... ... : ... .. . ... : ... .. . ... : ... .. . ...
ROW 16 : --- .. . ... ... : ... .. . ... ... : ... .. . ... : ... .. . ... : ... .. . ...
ROW 17 : ... .. . ... ... : ... .. . ... ... : ... .. . ... : ... .. . ... : ... .. . ...
ROW 18 : ... .. . ... ... : ... .. . ... ... : ... .. . ... : ... .. . ... : ... .. . ...
ROW 19 : B-1 10 9 V01 ... : ... .. . ... ... : ... .. . ... : ... .. . ... : ... .. . ...
ROW 1A : ... .. 2 ... ... : ... .. . ... ... : ... .. . ... : ... .. . ... : ... .. . ...
ROW 1B : B-1 10 9 S06 ... : ... .. . ... ... : ... .. . ... : ... .. . ... : ... .. . ...
ROW 1C : B-1 10 . ... ... : ... .. . ... ... : ... .. . ... : ... .. . ... : ... .. . ...
ROW 1D : ... .. 2 ... ... : ... .. . ... ... : ... .. . ... : ... .. . ... : ... .. . ...
ROW 1E : ... .. . ... ... : ... .. . ... ... : ... .. . ... : ... .. . ... : ... .. . ...
ROW 1F : ... .. . ... ... : ... .. . ... ... : ... .. . ... : ... .. . ... : ... .. . ...
ROW 20 : G#1 10 9 V00 S04 : G#2 16 . 037 ... : ... .. . ... : ... .. . ... : ... .. . ...
ROW 21 : G#1 10 . ... ... : ... .. . ... ... : ... .. . ... : ... .. . ... : ... .. . ...
ROW 22 : ... .. 5 ... ... : ... .. . ... ... : ... .. . ... : ... .. . ... : ... .. . ...
ROW 23 : G#1 10 8 ... ... : ... .. . ... ... : ... .. . ... : ... .. . ... : ... .. . ...
ROW 24 : ... .. 5 ... ... : ... .. . ... ... : ... .. . ... : ... .. . ... : ... .. . ...
ROW 25 : ... .. 2 ... ... : ... .. . ... ... : ... .. . ... : ... .. . ... : ... .. . ...
ROW 26 : --- .. . ... ... : ... .. . ... ... : ... .. . ... : ... .. . ... : ... .. . ...
ROW 27 : ... .. . ... ... : ... .. . ... ... : ... .. . ... : ... .. . ... : ... .. . ...
ROW 28 : ... .. . ... ... : ... .. . ... ... : ... .. . ... : ... .. . ... : ... .. . ...
ROW 29 : G#1 10 9 V01 ... : ... .. . ... ... : ... .. . ... : ... .. . ... : ... .. . ...
ROW 2A : ... .. 2 ... ... : ... .. . ... ... : ... .. . ... : ... .. . ... : ... .. . ...
ROW 2B : G#1 10 9 S06 ... : ... .. . ... ... : ... .. . ... : ... .. . ... : ... .. . ...
ROW 2C : G#1 10 . ... ... : ... .. . ... ... : ... .. . ... : ... .. . ... : ... .. . ...
ROW 2D : ... .. 2 ... ... : ... .. . ... ... : ... .. . ... : ... .. . ... : ... .. . ...
ROW 2E : ... .. . ... ... : ... .. . ... ... : ... .. . ... : ... .. . ... : ... .. . ...
ROW 2F : ... .. . ... ... : ... .. . ... ... : ... .. . ... : ... .. . ... : ... .. . ...
ROW 30 : G#1 10 9 V00 S04 : --- .. . ... ... : ... .. . ... : ... .. . ... : ... .. . ...
ROW 31 : G#1 10 . ... ... : ... .. . ... ... : ... .. . ... : ... .. . ... : ... .. . ...
ROW 32 : ... .. 5 ... ... : ... .. . ... ... : ... .. . ... : ... .. . ... : ... .. . ...
ROW 33 : G#1 10 8 ... ... : ... .. . ... ... : ... .. . ... : ... .. . ... : ... .. . ...
ROW 34 : ... .. 5 ... ... : ... .. . ... ... : ... .. . ... : ... .. . ... : ... .. . ...
ROW 35 : ... .. 2 ... ... : ... .. . ... ... : ... .. . ... : ... .. . ... : ... .. . ...
ROW 36 : --- .. . ... ... : ... .. . ... ... : ... .. . ... : ... .. . ... : ... .. . ...
ROW 37 : ... .. . ... ... : ... .. . ... ... : ... .. . ... : ... .. . ... : ... .. . ...
ROW 38 : ... .. . ... ... : ... .. . ... ... : ... .. . ... : ... .. . ... : ... .. . ...
ROW 39 : G#1 10 9 V01 ... : ... .. . ... ... : ... .. . ... : ... .. . ... : ... .. . ...
ROW 3A : ... .. 2 ... ... : ... .. . ... ... : ... .. . ... : ... .. . ... : ... .. . ...
ROW 3B : G#1 10 9 S06 ... : ... .. . ... ... : ... .. . ... : ... .. . ... : ... .. . ...
ROW 3C : G#1 10 . ... ... : ... .. . ... ... : ... .. . ... : ... .. . ... : ... .. . ...
ROW 3D : ... .. 2 ... ... : ... .. . ... ... : ... .. . ... : ... .. . ... : ... .. . ...
ROW 3E : ... .. . ... ... : ... .. . ... ... : ... .. . ... : ... .. . ... : ... .. . ...
ROW 3F : ... .. . ... ... : ... .. . ... 000 : ... .. . ... : ... .. . ... : ... .. . ...

# track BOOKMARKS block

# JSON block

# PARAMS_EMU block

# End of export
