# FamiTracker text export 0.4.2

# Song information
TITLE           ""
AUTHOR          ""
COPYRIGHT       ""

# Song comment
COMMENT ""

# Global settings
MACHINE         0
FRAMERATE       0
EXPANSION       0
VIBRATO         1
SPLIT           32

# Macros
MACRO       0   0  -1  -1   0 : 3 6 5 5 4 4 3 3 2 2 2 1 1 1 1 0
MACRO       0   1  -1  -1   0 : 3 6 5 5 4 4 3 3 2 2 2 1 1 1 1 0
MACRO       0   2  -1  -1   0 : 9 7 5 3 2 1 1 0 4 3 3 2 2 2 1 1 1 1 1 0
MACRO       0   3  -1  -1   0 : 10 7 4 2 1 0
MACRO       0   4  -1  -1   0 : 13 9 7 5 4 3 2 2 1 1 0
MACRO       0   5  -1  -1   0 : 8 4 2 0
MACRO       0   6  -1  -1   0 : 9 7 5 4 3 3 2 2 1 1 0
MACRO       0   7  -1  -1   0 : 9 8 7 6 6 5 5 4
MACRO       0   8  -1  -1   0 : 15
MACRO       0   9  -1  -1   0 : 1 1 1 0 1 1 0
MACRO       0  10  -1  -1   0 : 7 6 5 5 4 4 3 3 3 2 2 2 1 1 1 0
MACRO       0  11  -1  -1   0 : 9 7 5
MACRO       0  12  -1  -1   0 : 10 7 5 3 2 1 1 0 4 3 3 2 2 2 1 1 1 1 1 0
MACRO       0  13  -1  -1   0 : 10 7 4 2 1 0
MACRO       0  14  -1  -1   0 : 7 7 7 7 0
MACRO       0  15  -1  -1   0 : 13 9 7 5 4 3 2 2 1 1 0
MACRO       0  16  -1  -1   0 : 8 4 2 0
MACRO       0  17  -1  -1   0 : 9 7 5 4 3 3 2 2 1 1 0
MACRO       0  18  -1  -1   0 : 9 8 7 6 6 5 5 4
MACRO       0  19  -1  -1   0 : 15
MACRO       0  20  -1  -1   0 : 4 4 4 5 5 5 6 0 6 5 5 5 4 4 4 4 3 3 3 0
MACRO       0  21  -1  -1   0 : 7 6 5 5 4 4 3 3 3 2 2 2 1 1 1 0
MACRO       0  22  -1  -1   0 : 9 7 5
MACRO       0  23  -1  -1   0 : 15 0
MACRO       0  24  -1   5   0 : 0 0 4 8 6 5 4 3 2 2 1 1 0 0
MACRO       0  25  -1  -1   0 : 15 15 15 15 0
MACRO       0  26  -1  -1   0 : 3 6 5 5 4 4 3 3 2 2 2 1 1 1 1 0
MACRO       0  27  -1  -1   0 : 1 1 1 0 1 1 0
MACRO       0  28  -1  -1   0 : 9 7 5 3 2 1 1 0 4 3 3 2 2 2 1 1 1 1 1 0
MACRO       0  29  -1  -1   0 : 10 7 4 2 0
MACRO       0  30  -1  -1   0 : 13 9 7 5 4 3 2 2 1 1 0
MACRO       0  31  -1  -1   0 : 8 4 2 0
MACRO       0  32  -1  -1   0 : 9 7 5 4 3 3 2 2 1 1 0
MACRO       0  33  -1  -1   0 : 9 8 7 6 6 5 5 4
MACRO       0  34  -1  -1   0 : 15
MACRO       0  35  -1  -1   0 : 4 4 4 5 5 5 6 0 6 5 5 5 4 4 4 4 3 3 3 0
MACRO       0  36  -1  -1   0 : 7 6 5 5 4 4 3 3 3 2 2 2 1 1 1 0
MACRO       0  37  -1  -1   0 : 9 7 5
MACRO       0  38  -1  -1   0 : 15 0
MACRO       0  39  -1   5   0 : 0 0 4 8 6 5 4 3 2 2 1 1 0 0
MACRO       0  40  -1  -1   0 : 7 7 7 7 0
MACRO       1   0  -1  -1   0 : 6 15
MACRO       1   1  -1  -1   0 : 6 9
MACRO       1   2   0  -1   0 : 0 0 12 12
MACRO       1   3  -1  -1   0 : 6 15
MACRO       1   4  -1  -1   0 : -2 0
MACRO       1   5  -1  -1   0 : 6 9
MACRO       1   6   0  -1   0 : 0 0 12 12
MACRO       1   7  -1  -1   0 : 0 -1 -2 -3 -4 -5 -6 -7 -8 -9 -10 -11 -12 -13 -14 -15
MACRO       1   8  -1  -1   0 : -2 0
MACRO       1   9  -1  -1   0 : 12 0
MACRO       1  10  -1  -1   0 : 6 15
MACRO       1  11  -1  -1   0 : 6 9
MACRO       1  12   0  -1   0 : 0 0 12 12
MACRO       1  13  -1  -1   0 : 0 -1 -2 -3 -4 -5 -6 -7 -8 -9 -10 -11 -12 -13 -14 -15
MACRO       1  14  -1  -1   0 : -2 0
MACRO       1  15  -1  -1   0 : 12 0
MACRO       2   0   1  -1   0 : 0 63
MACRO       2   1   1  -1   0 : 0 63
MACRO       2   2   1  -1   0 : 0 63
MACRO       4   0  -1  -1   0 : 1
MACRO       4   1  -1  -1   0 : 3
MACRO       4   2  -1  -1   0 : 2
MACRO       4   3  -1  -1   0 : 0
MACRO       4   4  -1  -1   0 : 1
MACRO       4   5  -1  -1   0 : 3
MACRO       4   6  -1  -1   0 : 2
MACRO       4   7  -1  -1   0 : 0
MACRO       4   8  -1  -1   0 : 1
MACRO       4   9  -1  -1   0 : 1
MACRO       4  10  -1  -1   0 : 3
MACRO       4  11  -1  -1   0 : 2
MACRO       4  12  -1  -1   0 : 0
MACRO       4  13  -1  -1   0 : 1

# DPCM samples
DPCMDEF   0   993 "ripped02.dmc"
DPCM : BB 0A 50 7A 0A FF 00 FF FF 04 FF 40 00 00 00 F0 FF FF 0B 07 F0 F5 FF F4 00 F0 5F 08 F5 BA 78 0F
DPCM : 00 F0 FF FF FF 00 80 70 F0 0F 00 F8 8F FA 07 48 00 00 00 FF FF FF 50 0A F4 FF 4F 0F 08 F7 57 00
DPCM : FF 5A F0 0F 00 FA 7F FF 8F 00 A8 A4 F0 0F 00 F5 5F B0 4F 00 00 0A 00 FF FF AF 70 00 FF FF 4F 0F
DPCM : 00 FF 85 B0 AF 85 5F 04 80 FF BF FF 0F 00 48 05 5F 04 A0 FF 0F F0 0F 00 00 04 F0 FF FF 85 45 50
DPCM : FF FF 5B 05 A0 7F 0A F8 AB 0A FF 00 40 FF FF FF 0F 00 40 04 FF 00 B0 FF 05 FB 04 00 80 00 F0 FF
DPCM : FF 8B 0A 74 FF FF 55 08 F0 5F 08 7B 5B 88 FF 04 40 FF FF FF 05 00 50 80 FF 08 70 FF 40 BF 08 00
DPCM : 00 00 F8 FF FF A5 84 BA FF 7F A5 00 7A AF A0 75 4B 74 BF 00 70 FF FF FF 00 00 48 58 5F 00 F5 5F
DPCM : 54 A7 08 00 00 00 FF FF 7F 8A A0 F5 FF BF 84 40 F5 A5 54 5B 8B 75 A7 00 BA FF FF AF 00 00 44 7A
DPCM : 47 88 F5 AB AA 4A 08 00 00 48 FF FF 5F 0A 54 FB FF 57 0A 44 BB AA B4 5A A5 BB 8A 40 75 FF FF 8F
DPCM : 00 80 48 5B A5 50 77 55 AB 8A 00 00 80 B8 FF FF 4B 44 B4 FB 7F 57 44 A4 B5 AA AA 55 55 B7 44 A4
DPCM : B5 FF 7F 8B 00 88 48 5B 8A AA B5 55 AB 84 00 00 88 F4 FF 7F 4B 44 5A 7F 7F AB 88 54 55 55 AB A5
DPCM : B5 55 4A 54 BB F7 BF 4A 08 88 A8 AA A4 5A AB 55 4B 0A 08 00 88 F5 FF 77 A5 A4 74 F7 BB 55 A4 AA
DPCM : 54 B5 AA 5A B5 A5 A4 AA 75 7F 5F 45 44 88 A4 4A AA 5A B5 55 A5 88 00 08 A8 F5 F7 BB AA A4 B5 BB
DPCM : BB AA 54 AA 4A AB AA 5A AB AA A4 AA BB 77 B7 A4 88 88 54 4A AA 55 B5 55 45 44 08 08 54 77 BF 5B
DPCM : 4B 55 5B 77 5B 4B 55 AA AA AA AA 5A AB 4A A5 5A 77 77 57 4A 8A 48 4A 4A AA 55 B5 5A 8A 88 80 40
DPCM : 5A BB BB 5B 55 B5 B5 5B 5B 55 55 AA AA AA AA 55 AB 4A A5 B5 75 5F AB 8A 44 4A 4A 54 AA 55 B5 AA
DPCM : 44 44 88 A0 B4 75 B7 B5 55 5B 5B 5B AB 55 A5 AA AA AA AA B5 AA 54 55 75 BB 5B 55 A5 48 4A 8A 54
DPCM : 55 55 B5 4A 8A 84 08 4A 5A BB B5 B5 55 5B B7 B5 AA AA AA AA AA AA 5A B5 4A 55 55 5B B7 AB 55 4A
DPCM : 4A 4A A4 4A 55 55 B5 54 A4 08 44 4A B5 B5 B5 B5 B5 B5 B5 B5 AA AA AA AA AA AA 55 55 55 55 B5 B5
DPCM : 75 AB AA A4 54 8A A4 4A 55 55 55 A5 48 44 44 AA 5A 5B B5 B5 B5 B5 AB B5 AA AA AA AA AA AA 55 55
DPCM : 55 55 B5 B5 5B B5 4A A5 A4 A4 A4 4A 55 55 55 4A A4 88 44 55 B5 5A AB B5 75 5B 5B B5 AA AA AA AA
DPCM : AA 5A 55 55 55 55 AB 75 5B 55 55 AA A4 A4 A4 4A 55 55 A5 A4 44 A4 A4 54 AB 55 5B 5B 5B 5B 5B B5
DPCM : AA AA AA AA AA 5A 55 55 55 55 5B 5B 5B 55 A5 4A AA A4 A4 4A 55 55 AA 44 8A A4 A4 AA 5A B5 5A 5B
DPCM : 5B 5B 5B B5 AA AA AA AA AA 55 55 55 55 B5 5A 5B AB 55 AA 54 4A A5 A4 4A 55 A5 4A 4A A4 48 A5 AA
DPCM : 55 AB 55 BB B5 B5 5A B5 AA AA AA AA AA 55 55 55 55 AB B5 5A AB AA 4A A5 4A AA A4 4A 55 A5 A4 A4
DPCM : 48 4A 55 55 55 AB B5 B5 B5 B5 5A B5 AA AA AA AA 5A 55 55 55 55 AB B5 55 AB AA 4A A5 54 4A A5 4A
DPCM : 55 AA A4 48 4A 4A 55 55 B5 5A AB 5B AB B5 55 B5 AA AA AA AA 55 55 55 55 B5 5A B5 55 AB 4A 55 AA
DPCM : A4 4A A5 4A A5 4A 4A 4A 54 4A 55 B5 AA 55 5B 5B 5B AB 55 B5 AA AA AA AA 55 55 55 55 AB 5A AB 55
DPCM : B5 54 A5 4A A5 54 AA 4A A5 54 8A A4 A4 AA AA AA AA B5 B5 55 5B AB 55 B5 AA AA AA 5A 55 55 55 55
DPCM : AB 55 AB 55 55 55 AA 54 AA 54 AA 54 AA A4 A4 A4 A4 AA AA AA 5A B5 B5 B5 55 AB 55 B5 AA AA AA 5A
DPCM : 55 55 55 B5 AA B5 5A 55 55 A5 AA 54 AA 54 AA 54 4A 4A 4A AA A4 AA AA AA 55 5B 5B B5 B5 5A 55 B5
DPCM : AA
DPCMDEF   1  1009 "ripped03.dmc"
DPCM : BB 0A 50 FA F0 FF 00 F4 FF F0 0F 00 00 00 F0 FF FF 0A 0A F0 FF 8F 0B 08 FB 4B A0 AF 8B 7F 00 40
DPCM : FF F7 FF 80 50 B8 F0 0F 00 F4 4F AF 0F 00 00 00 F0 FF FF 40 0B F0 FF 5F 0F 80 FF 05 F0 4F 07 FF
DPCM : 00 B0 FF FF FF 00 00 4A F0 0F 00 FF 40 FF 05 00 80 00 F0 FF FF B0 00 FF FF 57 0F 80 7F 0A F4 AB
DPCM : F4 05 05 F0 FF FF 0F 0A A0 0A 5F 80 50 FF 05 FF 00 00 00 00 FF FF 4F B4 00 FF FF 77 0A 50 7F 08
DPCM : 7B AB F0 0F 00 FA FF FF 0F 00 A8 04 FF 00 70 FF 40 7F 00 00 00 00 FF FF AF 8A 50 FF FF 5B 00 F4
DPCM : AF 40 77 4B F8 4F 00 FA FF FF 0F 00 A0 00 FF 08 F0 7F 50 4F 00 00 00 40 FF FF AF 84 B4 FF FF 45
DPCM : 80 7A 4F A8 5B 8B FA 0B 00 F7 FF FF 07 00 A0 50 BF 00 FA 4F 74 A5 00 00 00 B0 FF FF 8B 88 F4 FF
DPCM : 7F 8A 80 F5 A5 54 5B A5 7B 0A A0 FB FF FF 08 00 44 74 A7 80 FB A5 5A 8A 00 00 00 F4 FF FF 8A 88
DPCM : FA FF 77 0A 48 BB 4A B5 5A 5A B7 84 50 F7 FF 7F 04 80 88 BA 4A A8 75 AB 55 0A 00 00 40 F5 FF FF
DPCM : 88 48 7B FF B7 84 A8 55 55 B5 A5 B5 55 8A A8 FB FF AF 80 80 A0 B5 A4 58 5B B5 A5 04 00 08 A0 FB
DPCM : FF 57 8A A8 F5 7F 57 8A 54 55 55 AB AA B5 55 A4 54 7F FF AB 08 84 48 55 4A 55 5B B5 4A 84 00 80
DPCM : 50 F7 FF 5B 8A 54 77 7F AB A4 54 55 55 AB 5A 5B A5 A4 B4 7B FF 55 44 88 48 A5 54 B5 AA B5 4A 88
DPCM : 00 80 58 F7 F7 B5 A4 AA BB BB 55 A5 4A 55 55 AB 5A AB 4A AA 5A F7 77 AB 88 88 A4 A4 54 B5 5A B5
DPCM : A4 40 08 80 B4 7B 77 57 A5 BA 75 B7 55 AA AA 54 B5 AA 5A AB 4A AA B5 7B 77 55 A4 88 A4 A4 54 55
DPCM : AB 55 4A 84 80 40 55 77 77 5B 55 B5 5B B7 AA AA AA 54 AB AA 55 AB 54 5A 75 77 B7 AA 44 8A A4 A4
DPCM : 54 55 AB A5 8A 08 88 A0 5A BB 75 AB 5A 5B B7 B5 AA AA AA AA AA AA 55 AB 54 55 5B 77 57 55 4A A4
DPCM : A4 A4 54 B5 AA AA 44 44 08 4A B5 B5 B5 B5 B5 B5 B5 55 AB AA AA AA AA 5A 55 4B 55 55 BB 5B 5B A5
DPCM : A4 A4 A4 A4 4A B5 AA 4A 8A 88 40 4A AB B5 B5 B5 B5 B5 B5 55 B5 AA AA AA AA 5A 55 55 55 B5 B5 5B
DPCM : 5B AA A4 A4 A4 A4 4A B5 AA 54 44 44 A4 A4 55 5B AB B5 B5 5B AB 55 B5 AA AA AA AA 5A 55 55 55 B5
DPCM : 75 5B AB 4A A5 A4 A4 A4 AA AA 4A A5 48 44 A4 54 B5 5A AB B5 75 5B AB 55 B5 AA AA AA AA 55 55 55
DPCM : 55 5B 5B 5B B5 54 4A A5 A4 A4 AA AA 54 4A 8A 88 A4 AA AA 55 5B 5B 5B 5B AB 55 B5 AA AA AA AA 55
DPCM : 55 55 55 5B 5B 5B 55 A5 4A 4A A5 A4 AA 4A A5 8A 44 8A A4 AA 5A B5 5A 5B 5B 5B AB 55 B5 AA AA AA
DPCM : AA 55 55 55 B5 5A 5B 5B 55 AA 54 4A AA A4 AA 4A A5 A4 48 A4 54 AA 55 B5 5A 5B B7 55 AB 55 B5 AA
DPCM : AA AA 5A 55 55 55 B5 B5 55 AB AA AA A4 4A AA A4 AA 54 4A 4A 8A A4 54 55 55 AB B5 B5 B5 B5 5A 55
DPCM : B5 AA AA AA 5A 55 55 55 AB B5 B5 AA AA 4A A5 54 4A A5 AA 54 4A 8A A4 A4 54 55 B5 AA B5 B5 B5 B5
DPCM : 5A 55 B5 AA AA AA 55 55 55 B5 5A B5 B5 AA AA 54 AA A4 4A A5 AA A4 A4 A4 44 A5 4A 55 AB 5A 5B 5B
DPCM : AB B5 5A 55 B5 AA AA AA 55 55 55 B5 5A AB 55 AB 4A 55 4A A5 4A A5 4A A5 A4 44 4A A5 AA AA AA 55
DPCM : 5B 5B 5B B5 5A 55 B5 AA AA 5A 55 55 55 AB 55 AB 55 55 55 A5 4A A5 4A A5 4A 4A 4A 4A 4A AA AA AA
DPCM : AA B5 B5 55 5B AB 5A 55 B5 AA AA 5A 55 55 55 AB 55 5B 55 55 55 AA 54 AA 54 AA 54 4A 4A 4A 4A A5
DPCM : AA AA 5A B5 B5 B5 5A AB 5A 55 B5 AA AA 55 55 55 B5 AA B5 5A 55 55 55 AA 54 AA 54 AA A4 8A A4 A4
DPCM : 54 A5 AA AA 55 5B AB B5 55 AB 55 55 AB AA AA 55 55 55 B5 5A B5 5A 55 55 A5 4A A5 4A 55 4A A5 A4
DPCM : A4 A4 54 A5 AA 5A B5 5A 5B AB B5 AA 55 5A A5 A5 55
DPCMDEF   2  1009 "ripped00.dmc"
DPCM : BB 04 58 5B FB 0F 40 FF 7F F5 00 00 00 00 FF FF 0A 05 F0 FF 4F 0F A0 BF 04 F5 BA F0 0F 00 F7 F7
DPCM : FF 00 58 04 FF 00 50 FF F4 57 00 00 00 00 FF FF A5 0A FA FF 77 00 F8 7F 00 FF 4A BF 00 A0 FF FF
DPCM : FF 00 40 05 FF 00 F0 0F F8 8F 00 00 00 F0 FF BF 50 00 FF FF F7 00 F8 AF 80 BF 0A FF 00 B0 FF FF
DPCM : 0F 04 54 0A FF 00 F0 5F 70 0F 00 00 00 F0 FF BF A8 40 FF FF 7B 00 F4 8F B0 B7 04 FF 00 F0 FF FF
DPCM : 0F 00 55 08 FF 00 F0 5F F0 0F 00 00 00 FF FF 85 44 B0 FF FF 55 00 FB 0B 74 B7 88 FF 00 F0 FF FF
DPCM : 8F 00 A0 40 FF 00 F4 8F F4 0A 00 00 00 FF FF 0B 8A 58 FF FF 0B 40 F7 85 5A B7 70 BF 00 F0 FF FF
DPCM : 0F 00 48 58 AF 00 F7 8B B5 04 00 00 00 FF FF 8F 08 7A FF FF 84 A0 BB 8A BA 55 BA A7 00 F5 FF FF
DPCM : 0B 00 40 7A 8B 40 7F 55 4B 04 00 00 A0 FF FF 8B 40 F5 FF BF 08 54 BB 54 B5 A5 75 4B 40 7B FF FF
DPCM : 05 00 44 75 45 54 B7 55 4B 08 00 00 B0 FF FF 8A A0 FA FF 57 0A 54 5B 55 B5 AA 5B A5 A0 75 FF FF
DPCM : 84 00 44 B5 8A B4 B5 5A A5 00 00 00 F4 FF BF 8A 88 F5 FF AB 44 AA 5A 55 AB 5A 5B 4A 4A BB FF 5F
DPCM : 0A 08 44 AB A4 AA 55 5B 45 08 00 00 75 FF BF A4 A8 F5 77 57 45 55 55 55 AB 5A 5B 4A AA 75 FF B7
DPCM : 44 08 A4 4A 4A AB 55 5B 8A 80 00 80 7A 7F 77 A5 54 7B 77 57 4A 55 55 55 AB 5A AB A4 AA F5 F7 5B
DPCM : 8A 08 4A 4A AA AA 55 AB 44 04 08 40 BB 7B B7 AA B4 75 77 AB AA 54 55 55 AB 55 AB A4 5A BB F7 B5
DPCM : 44 8A 48 4A AA AA 55 AB 88 08 80 A0 75 77 BB AA 5A BB 5B B5 AA 54 55 55 AB B5 AA A4 55 77 F7 55
DPCM : 4A A4 44 4A AA AA 55 55 8A 80 80 48 5B 77 5B B5 BA B5 5B 55 55 55 55 B5 AA 55 4B 55 B5 75 5F AB
DPCM : A4 A4 44 4A AA AA 55 A5 44 84 80 A4 B5 75 5B B5 B5 75 AB 55 55 55 55 B5 AA 55 55 55 B5 BB 75 55
DPCM : A5 A4 44 4A AA AA 55 A5 88 08 44 54 5B 5B AB B5 75 5B AB 55 55 55 55 B5 5A 55 55 55 5B BB 5B 55
DPCM : 4A AA 48 4A A5 AA AA 4A A4 40 44 AA 5A 5B AB B5 5B 5B AB 55 55 55 55 B5 5A 55 55 55 5B B7 B5 A5
DPCM : 4A 4A 4A 4A A5 AA AA A4 44 84 44 55 B5 5A AB 75 5B 5B AB 55 55 55 55 AB 5A 55 55 55 5B B7 B5 AA
DPCM : 54 4A 4A 4A A5 AA AA A4 88 88 A4 54 AB 5A 5B 5B 5B 5B AB 55 55 55 B5 AA 5A 55 55 B5 B5 B5 B5 4A
DPCM : A5 4A 4A 4A 55 AA 4A 4A A4 88 A4 AA AA 55 5B 5B B7 55 AB 55 55 55 B5 AA 55 55 55 B5 B5 B5 55 55
DPCM : A5 54 4A 4A 55 AA 4A 8A 44 A4 A4 AA 5A 55 5B BB B5 55 AB 55 55 55 AB AA 55 55 55 AB B5 B5 55 55
DPCM : AA A4 4A 4A 55 AA A4 A4 48 A4 54 55 55 B5 B5 B5 B5 55 AB 55 55 55 AB AA 55 55 55 5B 5B B5 55 A5
DPCM : 4A A5 54 4A 55 AA A4 44 8A A4 54 55 55 AB B5 B5 B5 55 AB 55 55 B5 AA 5A 55 55 B5 5A 5B B5 AA AA
DPCM : 4A A5 54 4A 55 4A 45 4A A4 A4 54 55 55 5B B5 5B B5 B5 AA 55 55 B5 AA 5A 55 55 B5 5A 5B B5 AA AA
DPCM : 54 AA A4 4A A5 4A 4A 8A A4 A4 4A 55 B5 5A 5B 5B AB B5 AA 55 55 B5 AA 5A 55 55 AB 55 5B B5 AA AA
DPCM : 54 4A A5 4A A5 4A 8A A4 48 A5 AA 54 AB 55 5B 5B 5B B5 AA 55 55 AB AA 5A 55 55 AB B5 5A B5 AA 4A
DPCM : A5 4A A5 4A A5 A4 A4 44 4A A5 AA AA AA B5 B5 55 5B B5 AA 55 55 AB AA 55 55 55 AB B5 5A B5 AA 54
DPCM : A5 4A AA 54 AA A4 44 4A 4A A5 AA AA 5A B5 B5 B5 5A B5 5A 55 55 AB AA 55 55 B5 5A B5 5A 55 55 55
DPCM : AA 54 AA 54 4A 4A 4A 4A 4A A5 AA AA 5A 5B AB B5 55 AB 5A 55 B5 AA 5A 55 55 B5 5A B5 55 55 55 A5
DPCM : AA 54 AA 54 4A 4A 4A A4 4A A5 AA AA 55 5B 5B B5 55 AB 5A 55 B5 AA 5A 55 55 AB 5A AB 55 55 55 A5
DPCM : 4A A5 4A A5 54 8A A4 A4 4A 5A A5 5A AA 5A AA 55 A5
DPCMDEF   3   993 "ripped01.dmc"
DPCM : 75 0B 50 5B FF 00 F0 FF F4 4F 00 80 00 F0 FF 8F 88 B0 FF 8F 0F A0 BF 00 7F 45 FF 00 B0 FF FF 0F
DPCM : 00 A5 F0 0F 00 FF F4 4B 00 00 00 F0 FF 8F 48 50 FF FF 0F 80 FF 08 FB 54 BF 00 B0 FF FF 0F 00 AB
DPCM : F0 0F 00 FF 0A 7F 00 00 00 F0 FF 4B A8 80 FF FF 0B 40 FF 05 F5 55 F0 0F 40 FF FF 0F 0A AA F0 0A
DPCM : 00 FF 0F F5 00 00 00 F0 FF 4F A8 80 FF FF 5B 00 F7 05 FA 55 F0 0F 00 FF FF FF 00 B0 00 FF 00 FA
DPCM : 0F F4 0A 00 00 70 FF AF A0 80 F7 FF 5F 00 F5 87 78 57 B8 BF 00 F4 FF FF 0A 00 0A F5 0A F0 4F 7A
DPCM : 05 00 00 00 FF FF 8A 08 FB FF 5F 00 F5 47 B4 5B AA BF 00 F8 FF FF 0B 00 08 F5 05 F0 AF B4 8A 00
DPCM : 00 00 FF FF 0A 84 FA FF 5F 08 74 4F AA 5B AA 77 08 78 FF FF 0F 00 08 F5 05 B8 B7 B4 8A 00 00 00
DPCM : F4 FF 5F 08 7A FF 7F 84 58 5B A5 B5 AA BB 04 B4 F7 FF 4F 00 88 74 8B B0 5B B5 4A 00 00 00 FA FF
DPCM : AF 40 B4 FF BF 8A 50 AB 5A B5 AA 5B 85 A8 FB FF 4F 08 40 AA A5 A8 B5 55 4B 08 00 00 78 FF BF 84
DPCM : A8 F7 7F 8B 48 AB AA B5 AA 75 4A 54 7B FF 5F 84 80 A8 A5 A8 B5 5A 4B 04 00 00 74 FF 5F 45 4A F7
DPCM : 77 A7 A4 AA AA 55 AB B5 4A 4A BB F7 BF 44 84 48 AA A4 55 AB 55 84 00 00 54 7F BF A5 A4 75 BF AB
DPCM : 54 A5 AA 55 B5 B5 4A AA 5A 7F BF 4A 44 A4 A4 A4 55 B5 55 44 08 00 A8 F5 BB AB 54 5B 77 57 55 55
DPCM : AA 55 55 5B 4B A5 5A F7 77 4B 8A 48 8A 54 55 B5 AA 8A 80 00 48 75 77 57 55 5B B7 5B 55 55 55 55
DPCM : 55 5B 55 A5 5A 77 F7 55 8A A4 48 4A 55 55 AB A4 08 08 88 5A B7 5B 55 5B BB B5 5A 55 55 55 55 5B
DPCM : 55 55 5A BB BB AB 4A A4 A4 44 55 55 B5 A4 88 80 40 55 BB B5 5A 5B BB B5 AA 55 55 55 55 AB 55 55
DPCM : 55 BB 5B 57 55 4A 8A A4 54 55 55 A5 84 08 48 AA 5A 5B 5B 5B 5B 5B AB 5A 55 55 55 AB 55 55 55 5B
DPCM : 77 5B A5 4A 4A 4A 4A 55 55 A5 44 84 88 54 55 5B AB B5 5B 5B AB AA 55 55 55 AB 5A 55 55 5B BB B5
DPCM : AA 4A 4A 4A AA 54 55 A5 44 44 44 4A B5 5A B5 B5 75 5B B5 AA 55 55 55 B5 5A 55 55 B5 5B 57 AB 4A
DPCM : AA A4 A4 54 55 A5 44 0A A4 A8 AA 5A B5 B5 B5 B5 B5 AA 55 55 55 B5 5A 55 55 B5 75 5B B5 54 A5 A4
DPCM : A4 4A 55 A5 A4 88 88 A4 AA 5A B5 5A B7 B5 55 AB 5A 55 55 B5 AA 55 55 B5 B5 B5 55 55 AA A4 4A AA
DPCM : 54 A5 A4 88 44 4A A5 55 55 5B BB B5 5A AB AA 55 55 B5 AA 55 55 B5 B5 B5 55 55 AA 54 4A AA 54 A5
DPCM : A4 44 A4 48 55 55 55 5B 5B 5B 5B B5 AA 55 55 B5 AA 55 55 B5 B5 B5 5A 55 AA 54 4A A5 4A A5 A4 44
DPCM : A4 A4 54 55 55 5B 5B 5B 5B B5 AA 55 55 B5 AA 5A 55 B5 5A 5B AB AA AA 54 4A A5 4A A5 A4 44 8A A4
DPCM : 4A 55 B5 5A 5B 5B AB 55 AB 5A 55 B5 AA 5A 55 B5 5A 5B AB AA AA 54 AA A4 4A A5 8A A4 48 4A AA 4A
DPCM : B5 5A 5B 5B B5 55 AB 5A 55 55 AB 5A 55 B5 5A AB B5 AA AA 54 AA 54 AA A4 4A A4 44 4A AA AA AA 5A
DPCM : 5B AB B5 55 AB 5A 55 55 AB 5A 55 55 5B B5 55 AB AA 54 AA 54 AA 54 4A 8A 44 4A A5 AA AA 5A B5 B5
DPCM : B5 5A B5 AA 55 55 AB 5A 55 55 5B B5 55 B5 AA 54 AA 54 AA 54 4A 8A A4 A4 54 AA AA 5A B5 B5 B5 5A
DPCM : B5 AA 55 55 AB 5A 55 55 AB B5 5A 55 55 55 AA 54 AA 54 4A 4A A4 A4 54 AA AA 5A B5 B5 B5 5A B5 AA
DPCM : 55 55 AB AA 55 55 AB B5 5A 55 55 55 AA 54 AA 54 4A 4A 8A A4 4A A5 AA 5A AB B5 55 5B B5 AA 5A 55
DPCM : AB AA 55 55 AB 55 AB 55 55 55 AA 54 A5 4A 4A 4A 4A 54 4A 55 AA 55 AB B5 55 5B 55 AB 5A 55 AB AA
DPCM : 55 55 AB 55 AB 55 55 55 AA 54 A5 4A 4A 4A 4A 4A 4A 55 55 55 AB B5 55 AB 55 AB 5A 55 AB AA 55 55
DPCM : AB
DPCMDEF   4  1009 "ripped04.dmc"
DPCM : B5 0B 50 5B FF 00 F8 4F FF 0F 00 00 00 FF BF A0 00 FF FF 0B 40 FF 00 BF 05 FF 00 FA FF FF 00 A8
DPCM : 08 FF 00 FB 0A 5F 00 00 00 F0 FF 45 0A F4 FF FF 00 FB 05 FA A5 BF 00 F0 FF FF 0F 00 05 FF 00 AF
DPCM : 0F AF 00 00 00 F0 FF 0A 0A 70 FF FF 07 F0 A7 B0 57 F4 0F 00 FF FF 0F 0A A5 F0 0F F0 05 74 8F 00
DPCM : 00 00 FF 5F A8 00 FF FF B7 00 7F 08 7F 85 FF 00 F0 FF FF 80 B0 04 F7 00 F5 0F FB 00 00 00 F0 FF
DPCM : 85 04 FA FF BF 00 FA 07 7A A7 F8 0F 00 FF FF 0F 08 8B F0 0F 50 BF 70 0B 00 00 B0 FF 0F 88 50 FF
DPCM : FF 0B 50 BF 50 77 4A FF 00 F8 FF FF 04 40 44 BF 00 FF A4 55 00 00 00 BF FF 84 40 FB FF 4F 80 7B
DPCM : 45 5B 4B FB 0A 50 FF FF 8F 00 88 FA 04 F4 A7 55 0A 00 00 40 FF 7F 08 74 FF FF 08 B4 AB AA B5 5A
DPCM : 4F 40 FB FF FF 00 80 58 47 A8 B7 5A 45 00 00 00 F7 FF 45 A0 FB FF 8B A0 B5 AA 55 AB 5B 0A 5A FF
DPCM : FF 0B 80 A0 B5 48 75 B5 A5 08 00 00 F0 FF 57 84 74 FF 5F 8A 54 B5 5A 55 BB 4A 54 7B FF 5F 84 80
DPCM : 54 A5 B4 5A AB 44 00 00 A0 F7 7F 45 A4 F7 77 4B 4A 55 AB 55 5B AB A4 B4 F7 FF 8A 08 A8 A4 54 AB
DPCM : B5 4A 08 00 00 F5 F7 AB A4 BA 7B 57 A5 AA AA 5A B5 B5 A4 AA F5 7F 57 44 44 4A 4A B5 5A 55 0A 08
DPCM : 00 A8 77 5F 55 5A 77 B7 55 AA AA AA 55 5B 4B AA BA FB BB 4A 44 A4 A4 54 AB 55 45 04 08 40 75 77
DPCM : 5B 55 5B 77 AB AA AA AA 55 B5 55 A5 5A 7B BF 55 4A A4 44 4A B5 5A A5 88 00 08 AA 5B B7 AA B5 5B
DPCM : 57 AB AA AA 5A 55 5B 55 AA 75 F7 B5 4A 4A 4A A4 4A AB AA 8A 80 80 48 B5 75 B5 B5 B5 5B B5 AA AA
DPCM : AA 55 AB 55 A5 B5 75 5F AB A4 A4 44 AA AA AA 4A 44 08 88 AA B5 55 5B 5B B7 55 AB AA AA 55 B5 5A
DPCM : 55 5A BB 5B 57 55 4A 4A 54 AA AA 4A 8A 08 84 A4 55 AB B5 B5 5B 5B 55 AB AA 5A 55 AB 55 55 B5 BB
DPCM : B5 55 4A A5 A4 A4 AA 4A A5 88 80 A4 54 AB 5A 5B BB B5 55 B5 AA 5A 55 B5 5A 55 55 B7 5B AB AA 54
DPCM : 4A 4A AA AA A4 44 44 48 AA AA 5A B5 75 5B 5B 55 AB AA 55 B5 AA 55 55 5B BB B5 AA 4A 4A AA A4 AA
DPCM : 54 8A 84 88 A4 AA AA 55 BB B5 B5 55 B5 AA 5A 55 AB 5A 55 B5 75 5B AB 4A A5 A4 4A AA 4A 4A 8A 88
DPCM : 48 A5 AA 55 5B 5B 5B 5B 55 AB AA 55 B5 AA 55 55 BB B5 55 55 A5 4A AA A4 AA A4 44 A4 88 54 55 55
DPCM : B5 B5 B5 B5 55 AB AA 5A 55 AB 5A 55 5B 5B 5B 55 55 AA A4 54 AA 54 8A 44 A4 A8 54 55 B5 5A B7 55
DPCM : 5B B5 AA 5A 55 AB AA 55 B5 B5 B5 55 55 AA 54 4A A5 4A 4A 8A 44 8A 4A 55 55 5B 5B 5B AB 55 AB AA
DPCM : 55 B5 AA 5A 55 5B 5B AB 55 AA 4A AA 54 AA A4 44 8A 44 A5 4A 55 AB B5 B5 B5 5A B5 AA 5A 55 AB 5A
DPCM : 55 AB B5 B5 AA AA 4A A5 4A A5 54 8A 44 8A 54 AA 54 B5 55 5B 5B AB 55 AB 5A 55 B5 AA 55 B5 B5 5A
DPCM : AB AA AA 54 AA A4 4A 4A 8A 44 4A A5 AA B4 5A 5B 5B B5 5A B5 AA 55 B5 AA 5A 55 5B 5B B5 AA AA 54
DPCM : AA 54 AA A4 A4 48 A4 54 AA AA AA B5 B5 55 5B 55 AB 5A 55 AB 5A 55 AB B5 55 AB AA 4A A5 4A A5 4A
DPCM : 8A A4 48 4A A5 AA AA B5 55 5B AB 55 AB AA 55 AB AA 55 B5 5A 5B 55 AB 4A 55 AA 54 4A 4A 4A A4 A4
DPCM : 54 AA AA 55 5B AB B5 5A B5 AA 55 B5 AA 5A 55 5B B5 55 B5 4A 55 AA 54 AA A4 A4 48 4A 4A A5 AA 5A
DPCM : AB B5 55 AB 55 AB 5A 55 AB 5A 55 AB B5 5A 55 55 55 AA 4A A5 54 8A A4 44 AA 54 AA 5A B5 B5 5A AB
DPCM : 55 B5 5A 55 AB AA 55 B5 5A AB 55 55 55 A5 4A A5 4A 4A 4A A4 A4 4A A5 5A B5 5A 5B B5 5A B5 AA 55
DPCM : B5 AA 55 55 5B B5 5A 55 55 A5 AA 54 AA A4 44 4A 4A AA 54 55 55 5B B5 55 AB 55 AB 5A 55 AB 5A 55
DPCM : AB 55 AB 55 55 A5 AA 54 A5 A4 A4 A4 A4 5A AA A5 55
DPCMDEF   5   305 "pacman kick.dmc"
DPCM : 00 00 00 00 BB DD FE 07 8E C3 01 40 FF FF 57 22 00 E0 FF FF FF DB FD FF 7F AF 02 00 00 00 00 00
DPCM : 00 EF BB EF 7D DF 7D DF F7 EE 6E 35 25 42 00 00 00 00 00 A2 D2 DA EE EE FB BE BF EF DE DD D6 AA
DPCM : 2A 89 10 10 00 08 20 44 92 D2 6A 6D B7 77 EF BE 7B 77 BB AD D5 2A 95 24 22 08 82 10 22 44 52 2A
DPCM : B5 5A DB B6 DD ED EE 76 DB 6D 6D D5 52 95 A4 48 22 22 22 22 91 24 A5 54 55 B5 D6 D6 B6 DB 6D BB
DPCM : 6D DB D6 5A 55 55 A5 94 24 25 91 48 92 48 4A 52 29 55 55 AD D6 DA B6 6D DB B6 6D AD AD D5 AA 5A
DPCM : A9 4A A5 A4 24 49 92 A4 24 49 49 A5 52 55 55 AB 56 6B 6B 6D 6B DB DA DA 5A 6B D5 AA AA AA 54 29
DPCM : A5 94 94 A4 A4 A4 A4 94 52 A9 54 55 55 55 B5 6A B5 D6 5A 6B 6B AD D5 5A AD AA 55 AB AA 55 AA 2A
DPCM : 95 52 4A 49 4A 4A 4A 4A A9 54 55 55 55 B5 6A AD D6 5A 6B AB B5 56 AB 5A 55 95 AA AA 4A 95 4A 29
DPCM : A5 54 4A 29 55 AA 54 55 55 B5 52 55 D5 AA 5A B5 6A B5 6A 6B AD D5 AA 55 55 55 55 95 AA 4C 55 95
DPCM : AA 4A 21 94 42 2A 94 AA 50 14 45 51 AA 4A A9 AA AA
DPCMDEF   6   625 "Gimmick Snare.dmc"
DPCM : 00 FD EA F0 DF FF 20 01 0F A1 0F 12 20 D1 5E D2 2E FF ED EE FD 1A AD 50 15 01 50 A0 05 2A 55 15
DPCM : D2 FA F7 DD EF EF 50 E1 DA 51 10 51 25 00 1D 2A 51 EA EF 5D 20 FF FF FF 00 F0 0D 00 05 1F F5 E0
DPCM : 0F 00 F0 F0 1E FF 0F FF FF 00 0E A0 FF 5A 5A 00 0A 01 F2 11 5F FF FF 00 52 F5 50 AE FF 00 FF D0
DPCM : A0 0E 00 AF F0 0F F0 0A DF E0 2F FF AD 01 DA AD 0F F2 20 A5 A2 F0 00 50 F5 0A FF 2F E0 F5 F0 FF
DPCM : 01 5F EA 5E 01 D0 AA 00 2D D5 2E 20 20 FF FF 5E 0F F1 2F 25 52 EA DA 11 D0 0E F0 F2 05 50 1D F5
DPCM : AF 02 F5 D5 FE 2E 2F 00 DF 00 D1 1D 2A F0 5F 00 2F A0 FF 0A FF 01 FF A1 51 5F 00 DD 02 FF 52 A0
DPCM : DF 01 5A F0 0F 0D F2 A5 DF 2F 05 E0 FD 02 2D A1 0F F1 AD 2E 11 01 F2 FF 50 2F F5 EA 0D A1 E0 0F
DPCM : FA 01 D0 1D FA 0D AA 12 EF F0 2D 2F E1 DD 02 ED D2 15 D0 0F 20 FA F2 15 AD 10 2F DA FA 0A FD 15
DPCM : D5 0F E0 5D 05 52 11 EF 50 AF D1 0D F0 5F 2F D0 2F F0 0A AF 20 2A D2 DD 02 EF 22 5D ED EA 55 20
DPCM : AE 2D F1 0F 1D 50 F2 DD 00 2F D1 2E D1 D1 5F 05 D0 DF EA 0D 50 55 0F F1 01 52 EF 0D F0 2A 5F 2E
DPCM : D5 F0 1F 51 F2 D5 0A 22 A0 1A FF 5E 21 ED 2D 51 05 D1 E0 AF FE 25 EA A2 D5 1A 52 51 AE A5 2F 51
DPCM : AA 22 A2 52 DE FD 25 AF AD 5D 21 2A 55 00 FA 2E 2F F0 24 AF 1D A5 00 F5 5A AF 51 EA D0 FE 0E 50
DPCM : F0 2E 0D 1F 21 E0 FF 0A AD 25 5D AA DA FD 0F 50 25 A2 2D 00 F2 AD D2 F5 0F EA 50 FA A5 2F 20 F5
DPCM : 0A DE D5 05 D2 2D A2 0F D0 EA D5 1F 0A F0 FF 02 1D F0 AA AF 0D F0 AA 11 5D 11 DD 0D 25 FA 2E FD
DPCM : 00 FF 0A 21 F5 10 DF 25 E2 AF 01 F0 E1 2F 0A F5 2D AA 5F 10 FA 10 AF 5D 20 FF A5 12 D5 1A 22 D1
DPCM : D5 D1 0F 2E DE E1 52 DA 52 A2 AE D0 5E D5 2F A1 21 FA 0A 5F 11 E0 EF 51 21 DE AD 52 F2 AD 01 EA
DPCM : D2 AA 2F 21 EA 21 AE 1E A0 F5 D5 FE 0E 50 EA 15 DA 15 D0 5E 2D AD 0A F0 2A F5 5A 5A 2E A5 D1 D5
DPCM : 5E 25 12 EA A5 51 2F A5 55 12 FD 0E A5 5D 51 DA 12 FF 02 E2 2E 55 D5 02 EA AA AD 26 2E A2 D0 FF
DPCM : 05 51 DE 52 DA D5 15 2D 52 E5 10 DD 15 51 FA 12 D5 DE 2E 50 EA DA 0D 5D E2 AA 52 2E E5 12 DA 12
DPCM : A9 91 1A EA AD 5A DA 95 50 AA 2F 50 D2 AA 0E A1 AA
DPCMDEF   7  2529 "get ready.dmc"
DPCM : E3 87 1F 61 D2 CF 23 3F E0 E0 83 CF 0F F8 C0 03 7F F2 E0 87 0D 0E 1E F0 B1 FF 20 C3 07 1F 7C 70
DPCM : E8 FC D9 00 86 DA 8D 1F FE C0 0F 3C F0 C4 8F C0 43 3E 1C DE FE 82 01 0F EA EE 29 3F 60 30 7E C6
DPCM : E7 01 1C 7C A8 D5 D3 4A 9B 6D 92 6D 96 56 92 42 BB 2D D3 64 9B 49 4A AD 89 6C 93 76 96 D0 DA A4
DPCM : 52 CA A4 B5 D9 25 BD 64 93 E5 D6 52 49 25 69 A5 CC B6 C9 66 CB 6C 9B 49 1A C9 64 93 4D B6 44 B2
DPCM : C9 26 DB 6C 26 93 6D B2 6D 99 4C B2 6D D2 4C 9A 69 B2 93 64 B6 D9 B6 99 64 93 07 B8 71 F3 C1 07
DPCM : 5B 9A 59 F0 C9 06 66 6E 7C B0 01 9B 2F 9E 6C E2 87 97 27 3E 90 C9 33 93 6F 98 79 63 C6 0C 9B 69
DPCM : 66 CC 0D 33 E3 CC 69 27 AE C9 B2 49 92 DD 34 99 EC B6 49 26 3E 71 A6 CD 13 4E 6C B2 A4 49 93 DD
DPCM : 48 B2 D9 A3 9F 6C 32 D9 E4 93 29 93 6C 71 C6 4C 3E D9 E4 12 DB 66 62 63 12 6E 6E 9A 6D A2 8D 3C
DPCM : 74 B8 D9 36 88 CD 07 1F 7C 78 F0 83 61 3A 39 F9 F0 F1 83 27 5A 34 F8 F8 F0 81 07 07 3E FC C1 07
DPCM : 7E F8 E0 83 0F 3E F8 E0 83 07 8F 8D 99 0F 1F 1E 98 39 3C F4 F0 F8 E0 F1 F8 E1 E1 11 0F 3E 1C 0F
DPCM : 1F 0C 8F 1D 1F 0E C2 C1 E3 E3 D0 19 1B 77 E2 C6 C1 33 4E CE 8C D8 C3 C7 89 39 99 2C 99 99 B1 7C
DPCM : FC 48 A6 E4 C7 44 CB 66 C4 66 66 C6 3E 30 33 73 B3 61 1F 7C 43 CE C4 19 B3 8D 37 39 82 C7 6C 87
DPCM : 33 B2 8C 93 69 E6 F1 16 C7 78 0C 73 A6 8C 91 39 CD C9 0C E7 33 26 73 DC 36 1A E6 30 33 3B 9F E1
DPCM : 98 C6 3C E6 10 2F D3 C5 0E 8E 79 98 C1 7F E4 32 C7 46 E1 78 3B 44 F6 18 33 13 3B 91 1B B9 19 3E
DPCM : 9F B0 89 91 3B 9B 88 99 33 A7 DC 39 13 AB 99 33 A5 C4 98 B9 73 23 65 4A 8C 18 33 77 EE 9C 39 73
DPCM : 22 E7 4E 84 5E 8C DC 2B 35 66 8C 99 31 73 8B B9 33 33 66 CC 8C 99 3B 73 E6 CC 8C CC CC DC B9 11
DPCM : 22 76 6E 9C 88 D5 3B 91 D3 4A EC 9C 98 91 3B 35 62 E5 4E 6E E4 9A 69 26 56 4E C4 4E A5 5A E7 42
DPCM : BD 99 61 92 19 33 33 67 66 7C 33 63 67 66 66 A6 99 31 33 67 42 AD 73 66 5A A9 53 9A 31 33 66 E6
DPCM : C4 72 66 CE CC CC CC D4 D8 19 B3 1B 99 39 33 33 23 62 33 3B 33 67 E6 E6 23 66 64 E4 DD 88 0D 3E
DPCM : D8 81 1B 3B F3 65 78 88 1F 89 0F 39 FC 89 0D 7A B1 F0 99 0D 1B BB B0 99 81 8F 0F 9B 32 1B AE DC
DPCM : 60 E5 8D 9C B1 E1 87 1F 19 99 95 5A A9 8D A5 1D 78 B9 85 83 5C 3C DE C8 99 CD 64 7A 21 89 6D 2C
DPCM : 96 1E 5E CE 7C 60 27 D1 6C 36 DA 5A 0D 8D 87 0F 3D F8 C0 07 3E 1B 7E 60 1F FC E0 83 0F FC C0 8F
DPCM : 8D 1F 1E F8 90 0B 3C F0 91 79 F3 C3 07 CE 84 CC DC 89 0F 1E F8 B0 99 27 1B 3C F8 E0 83 0F 37 7B
DPCM : E4 C0 C3 07 0F 3C 78 F8 E1 03 0F 1E 7C F8 F0 C1 03 1F 3C 7C F0 E0 C3 07 1F 7C F8 F0 E0 C3 0F 1F
DPCM : 7E F0 E0 C3 C1 87 1F 1E 7E F0 C0 C3 03 0F 3E 3C F8 F0 C1 0F 1F 3C F8 F0 C0 83 0F 3F 7C F0 E0 C3
DPCM : 03 0F 3F FC F0 C1 83 0F 0F 3C F8 F8 C0 83 07 1F 3E 78 F0 E0 81 07 1F 1F 3C 78 F0 E1 83 87 1F 3F
DPCM : 3C 78 F0 61 83 07 0F 3E 78 F0 D8 A1 C9 07 0F 3E 78 F8 E8 E3 03 8B 1F 3C F8 F0 E1 83 07 93 3D BC
DPCM : F0 E0 C1 83 07 9B 7D 38 B1 E1 C7 07 1F 39 7C E4 B1 C1 C7 87 4F 0A 3C B8 D8 E1 63 8D 7C B6 92 56
DPCM : 3A F9 60 A5 8B 07 27 92 C9 5E 5E 89 0D 3E F0 C9 3F B8 C4 36 F2 50 0B FD 64 12 F9 C8 C3 0F 9D 92
DPCM : 69 F0 E0 C3 97 83 4F 26 F9 C0 0F 4E 83 87 9D 06 0F 7F B8 85 16 16 1B 1F FC C1 06 1E 5A 6C 3C F9
DPCM : A4 35 B2 49 72 F9 E1 25 9D C4 42 9B CD 07 B7 E4 16 1F 6C 9B 4D CA 82 0F 3C C9 0F 1E C3 A7 CD 26
DPCM : 13 1F 3C C6 63 F1 F8 6C 36 D8 C8 87 E5 E0 33 D9 E4 C3 E4 06 07 ED 6D 36 1F 9C 93 4D 12 0F B6 F8
DPCM : E0 C9 66 93 C9 07 6E 3E 98 1C 9E CD 26 61 B1 CD 6C B6 83 CF 64 32 99 4C 26 17 DB 78 26 9B 64 F0
DPCM : 24 93 C9 E5 72 38 1C C7 B3 F9 2C 0C 87 E3 71 3C 87 C7 F3 78 38 0E C7 61 38 1C 36 5B 36 B3 19 0E
DPCM : C7 F1 1C 8F C7 62 F3 F1 1C 9E C3 E1 F1 58 78 18 8E E7 F1 70 70 30 1C 1E 8F 83 4F 7A 78 06 8F 8F
DPCM : 8F 0D 1F 1D 38 F1 83 07 0F 1C 9E FD F0 E1 81 07 07 97 3B F0 F0 81 05 8F 8F D7 79 1C 3E BA E1 10
DPCM : 1F 1C 9B E1 F1 31 78 F0 87 87 1B 4C 93 69 F0 A1 8F 1F 9E 25 93 E1 81 3D 9C 25 8F CF C1 70 F9 60
DPCM : 9B 06 93 E1 3B 8F F1 E1 D1 78 39 06 CF E4 70 78 32 1B 3C 9C 65 9E CC E0 F0 2D F1 0E 87 CF A6 D0
DPCM : 6C 32 99 1E 6E 64 9C F0 F0 C9 27 87 2D 1E 8E 43 0F 8F BD 74 38 A1 8D E6 C3 98 6D 0E 66 91 9E 9F
DPCM : 46 E6 F8 98 26 5B 34 87 E3 D9 6C 78 0C 87 C3 29 3E EC E1 2C 1E D3 3C CC E1 A1 E5 C3 33 09 1B CF
DPCM : 22 9B 47 27 FC C8 61 38 8D 65 F7 E1 E0 60 36 D8 03 BB 6D A6 D9 24 98 3F 34 96 36 9B 64 B6 ED 34
DPCM : 99 0C D9 F1 49 F2 49 26 0F 0E 36 3F 97 D1 34 4E 26 8D 8E 2D 93 45 9E 4D 36 CD A6 B1 92 D2 62 DB
DPCM : 68 1B C5 93 49 B3 69 36 A5 F1 DC 44 9B 4C 9E 69 D8 6C B0 D9 52 4A 63 F9 64 8B 6D 2C BC 74 D2 68
DPCM : 9B 65 B3 24 1E 6E B1 F4 C1 26 37 B4 46 1A 59 78 F8 81 53 DA 68 C3 0F 0F 2D 9D 24 3E 3C F0 E0 C9
DPCM : 6D 61 83 0F 1F 59 36 9B 3E F8 E0 E1 24 B3 C9 83 0F 9F DD 16 1A 3E 7C F0 D1 69 B7 E1 C3 83 87 0D
DPCM : 26 0D 1F 1E 7C 78 38 79 F0 F0 E1 C3 43 C1 C3 87 07 0F 1E 0B 0F 3E 3C 7C 78 78 78 F8 F0 E0 E1 C9
DPCM : E1 C3 83 87 8F 0F 0F 6D 29 2D 3C 38 BD EC B1 58 F8 60 B6 F0 C1 D1 E0 59 E3 E1 E1 F1 78 9E E9 E0
DPCM : 70 3C 3C 5A 29 3C BC 36 38 D3 D1 3C 8E 87 19 8E C7 E3 38 7C 36 3C 1E C3 F1 F0 F0 C1 C4 36 93 C9
DPCM : 86 E7 F1 78 3C 0E C7 E1 78 3C 1E 87 73 38 1C 0E C7 E1 38 1C 8F C7 71 3C 0E C7 E3 70 3C 3C 06 87
DPCM : 97 7C 7C 26 9B 1C 1E C6 C3 C3 A3 71 F2 C3 4F 64 22 D3 E3 78 78 38 0C 1F 3F C1 C1 8D 1D BC 88 8D
DPCM : 1F 0F E3 E1 F0 3C 78 F9 04 07 73 F9 30 29 3E 7D 0C 47 87 F3 71 70 38 1E 3E E0 87 C1 E3 F9 F8 E4
DPCM : 1F 1C 84 83 66 72 E6 E7 60 3E 78 06 8B C3 D1 73 D0 3B 1F F8 E0 62 36 3E 1E F8 80 87 87 C3 EF 0F
DPCM : 1C C0 87 87 C7 C3 E3 E3 E1 60 B1 E3 83 6F E0 E1 71 70 F0 F8 E4 4C 0E 8F 87 C3 91 4C C6 63 38 1F
DPCM : E3 99 CC E3 34 F3 39 C7 74 30 31 8D E1 4C C6 33 0E F3 99 1B 9C F3 98 C7 6C 26 B3 99 D9 C8 4C 66
DPCM : E2 39 8E 71 8C E3 99 CF 24 66 22 B3 99 99 CC 2C 66 B1 8F 99 CC E4 78 FC C1 6C 66 22 73 A3 91 8F
DPCM : 99 8D C9 4C 32 8F D1 8C CE 6C 66 33 A3 F1 44 36 BF D3 18 B3 F1 91 C9 98 CC 27 37 D9 C8 E2 62 39
DPCM : 9C DD C4 66 27 B3 D1 19 EC 30 E6 1B CE 64 3C F3 13 19 8C E4 66 2E 73 B8 DD 4C 22 A3 9D C7 43 B1
DPCM : B8 91 0B DC 6C 98 85 5A AD 70 E4 72 C6 E3 12 AB B5 DE 69 8C 64 3C 72 99 48 AD 9C E7 5A EB 18 A7
DPCM : 10 8F 91 5A AC D6 6A 77 A8 D1 78 A3 D4 4A 6B A5 56 CE 58 2E 95 58 A9 51 6A B5 AA 75 72 A7 D6 0A
DPCM : 39 29 95 5A A5 75 A7 13 23 B5 52 4A BD D2 E8 6B 67 64 32 17 B2 13 6A CD 98 E5 72 E3 46 AD 95 99
DPCM : 31 4B E6 CC A1 B1 33 6B AD 84 8E E9 74 5A 67 9C A8 59 4B 03 2E FE E0 91 03 9F 78 EC D9 09 23 73
DPCM : 1E B1 F1 72 F0 86 07 7F 3C 21 97 83 99 31 F3 66 9F 1C 08 6D 8D 9F 39 19 81 33 CB 2C 9F CD 39 C4
DPCM : C3 4C 23 99 4E 9A 39 75 CA E5 30 E5 C4 CC B5 4E 66 BC 94 24 AD 94 3A B7 C4 CC 74 63 AD B5 90 35
DPCM : A6 5A 6A B3 47 36 12 6B 27 96 D9 9A 19 96 B4 BD 96 52 AB 15 4A EA 2D 24 B6 46 6D 91 7A BD 45 4A
DPCM : 25 A7 B4 93 A6 56 2E 2D 4B AD 95 56 A9 95 52 AB B5 50 8B 2C 66 A5 96 3A A9 D6 CA A5 94 BA CD 12
DPCM : 69 33 CF 5A 4B 29 B5 4A AB 85 72 2A BD 92 6A AD 24 A5 96 D6 D2 B4 5A AA D5 52 85 D2 0B 67 D6 6A
DPCM : 2B A5 76 A9 40 EB D4 CA AD 13 4B E4 C9 95 5C 5A 6A A9 56 6A 2D 59 AB A5 CA 22 ED CA 4A 29 6B A5
DPCM : C5 6A A9 D4 CA EA 91 4D 25 D5 56 9A 29 B5 D4 5A 6B 95 5A 69 94 56 69 A1 B6 D9 52 49 D9 49 AB 25
DPCM : 5B 9A 65 5A 2F 85 5A AB 65 78 3A 58 5B 4B 87 87 87 C3 61 A1 B7 16 DB 4E C2 C3 87 87 07 CB CB CB
DPCM : C1 E1 E1 E1 B0 6C 8B 0D 0F 8D C7 E3 F1 70 F0 70 32 78 1A 87 87 C7 D3 D9 A4 D9 E0 D1 68 98 8D 2D
DPCM : 26 F3 DC BC D9 C9 89 24 5E 26 33 36 D3 38 6C E6 E4 CC 9A 59 98 99 19 9B 99 99 B9 31 C6 CC 19 6B
DPCM : EC 19 33 67 C6 9C 39 71 E6 98 19 73 96 99 33 33 E6 CC 19 27 66 CC C4 CC DC 98 99 B3 B3 31 1E 7F
DPCM : 48 9C 8C F3 E4 64 64 78 78 1F 8E B8 99 0F E3 E1 38 2E 76 1A 07 73 66 BE 08 3C E9 CC 8D C7 64 C1
DPCM : F1 11 C9 B9 99 23 CF 8C A4 76 6C BE 1C EC E4 98 CC 93 67 86 13 0B 36 9B 0F 36 E4 DC CC F3 C1 C3
DPCM : C3 43 E6 07 0F 1C C9 97 F8 C0 E1 E3 C7 03 CF 03 27 26 7B 7C 80 1E 7B E0 C3 C1 DE 07 7E 16 1A 8F
DPCM : 91 E1 39 F4 C5 07 DE 0C 1E 7C F8 F0 F0 E1 C1 C1 C3 83 87 0F 1F 3F 78 F0 D0 F0 E0 C1 87 87 87 0F
DPCM : 2F 87 CE 98 B8 F1 F0 98 8B 93 13 46 C3 1C 99 67 F3 CC CC 19 BD D1 32 8D 97 39 94 CB B1 38 99 C4
DPCM : 4B 29 B5 4E E5 72 26 E7 70 9A C3 8D 9C 69 BC 9D 89 B9 98 D1 31 3B E3 39 38 B4 87 87 F0 E3 30 3C
DPCM : F2 31 07 F6 E3 45 03 C3 C7 7F 18 8F 64 F0 F0 D3 80 B8 A9 8F CF 30 92 39 39 CF F0 31 73 E4 86 27
DPCM : 73

# Detune settings

# Grooves
GROOVE   0   2 : 6 7
GROOVE   1   4 : 6 6 6 7
GROOVE   2   2 : 6 7
GROOVE   3   4 : 6 6 6 7

# Tracks using default groove
# Instruments
INST2A03   0    19  -1  -1  -1  -1 "Pick Bass"
KEYDPCM   0   2   5     2   3   0     0  63
KEYDPCM   0   2   7     2   4   0     0  63
KEYDPCM   0   2   9     2   5   0     0  63
KEYDPCM   0   2  10     3   5   0     0  63
KEYDPCM   0   2  11     2   6   0     0  63
KEYDPCM   0   3   0     2   7   0     0  63
KEYDPCM   0   3   1     3   7   0     0  63
KEYDPCM   0   3   2     4   7   0     0  63
KEYDPCM   0   3   3     3   8   0     0  63
KEYDPCM   0   3   4     4   8   0     0  63
KEYDPCM   0   3   5     2   9   0     0  63
KEYDPCM   0   3   6     3   9   0     0  63
KEYDPCM   0   3   7     2  10   0     0  63
KEYDPCM   0   3   8     3  10   0     0  63
KEYDPCM   0   3   9     4  10   0     0  63
KEYDPCM   0   3  10     3  11   0     0  63
KEYDPCM   0   3  11     4  11   0     0  63
KEYDPCM   0   4   0     2  12   0     0  63
KEYDPCM   0   4   1     3  12   0     0  63
KEYDPCM   0   4   2     4  12   0     0  63
KEYDPCM   0   4   3     1  13   0     0  63
KEYDPCM   0   4   4     2  13   0     0  63
KEYDPCM   0   4   5     3  13   0     0  63
KEYDPCM   0   4   6     4  13   0     0  63
KEYDPCM   0   4   7     2  14   0     0  63
KEYDPCM   0   4   8     3  14   0     0  63
KEYDPCM   0   4   9     4  14   0     0  63
KEYDPCM   0   4  10     0  15   0     0  63
KEYDPCM   0   4  11     1  15   0     0  63
KEYDPCM   0   5   0     2  15   0     0  63
KEYDPCM   0   5   1     3  15   0     0  63
KEYDPCM   0   5   2     4  15   0     0  63
KEYDPCM   0   5   3     7   7   0     0  -1
KEYDPCM   0   5   4     5  14   0     0  63
KEYDPCM   0   5   5     6  15   0     0   0
KEYDPCM   0   5   6     6  14   0     0   0
KEYDPCM   0   5   7     5  15   0     0  63
INST2A03   1    18  -1  -1  -1   6 "sample"
INST2A03   2    12  -1  -1  -1   6 "piano"
INST2A03   3     1  -1  -1  -1   4 ""
INST2A03   4    21  -1  -1  -1   7 ""
INST2A03   5    22  -1  -1  -1   5 "quiet bass"
INST2A03   6    20  -1  -1  -1   7 "02 but tri"
INST2A03   7    13   3  -1  -1   7 "kick"
INST2A03   8    15   5  -1  -1   7 "snare"
INST2A03   9    16   8  -1  -1  -1 "hat"
INST2A03  10    17   8  -1  -1  -1 "long hat"
INST2A03  11    18  -1   1  -1  -1 "triangle drums"
INST2A03  12    22   6  -1  -1   6 "0 12"
INST2A03  13    23  -1  -1  -1  -1 "triangle pluck"
INST2A03  14    25  -1  -1  -1  -1 "triangle pluck 2"
INST2A03  15    -1  -1  -1  -1   7 "blank width 0"
INST2A03  16    -1  -1  -1  -1   8 "blank width 1"
INST2A03  17    -1  -1  -1  -1   6 "blank width 2"
INST2A03  18    -1  -1  -1  -1   5 "blank width 3"
INST2A03  19    -1  -1  -1  -1  -1 ""

# Tracks

TRACK  64   6 160 "Stereo Madness (ForeverBound)"
COLUMNS : 1 1 1 1 1

ORDER 00 : 01 00 00 00 00
ORDER 01 : 01 00 00 00 00
ORDER 02 : 01 01 03 02 00
ORDER 03 : 01 01 03 02 00
ORDER 04 : 02 02 00 03 00
ORDER 05 : 01 01 01 04 02
ORDER 06 : 01 01 02 04 02
ORDER 07 : 01 01 01 04 02
ORDER 08 : 01 01 02 04 02
ORDER 09 : 00 00 01 04 02
ORDER 0A : 00 00 02 04 02
ORDER 0B : 00 00 01 04 02
ORDER 0C : 00 00 02 04 02
ORDER 0D : 04 04 00 00 03
ORDER 0E : 05 05 00 00 03

PATTERN 00
ROW 00 : --- .. . ... : --- .. . ... : ... .. . ... : ... .. . ... : ... .. . ...
ROW 01 : ... .. . ... : ... .. . ... : ... .. . ... : ... .. . ... : ... .. . ...
ROW 02 : ... .. . ... : ... .. . ... : ... .. . ... : ... .. . ... : ... .. . ...
ROW 03 : ... .. . ... : ... .. . ... : ... .. . ... : ... .. . ... : ... .. . ...
ROW 04 : ... .. . ... : ... .. . ... : ... .. . ... : ... .. . ... : ... .. . ...
ROW 05 : ... .. . ... : ... .. . ... : ... .. . ... : ... .. . ... : ... .. . ...
ROW 06 : ... .. . ... : ... .. . ... : ... .. . ... : ... .. . ... : ... .. . ...
ROW 07 : ... .. . ... : ... .. . ... : ... .. . ... : ... .. . ... : ... .. . ...
ROW 08 : ... .. . ... : ... .. . ... : ... .. . ... : ... .. . ... : ... .. . ...
ROW 09 : ... .. . ... : ... .. . ... : ... .. . ... : ... .. . ... : ... .. . ...
ROW 0A : ... .. . ... : ... .. . ... : ... .. . ... : ... .. . ... : ... .. . ...
ROW 0B : ... .. . ... : ... .. . ... : ... .. . ... : ... .. . ... : ... .. . ...
ROW 0C : ... .. . ... : ... .. . ... : ... .. . ... : ... .. . ... : ... .. . ...
ROW 0D : ... .. . ... : ... .. . ... : ... .. . ... : ... .. . ... : ... .. . ...
ROW 0E : ... .. . ... : ... .. . ... : ... .. . ... : ... .. . ... : ... .. . ...
ROW 0F : ... .. . ... : ... .. . ... : ... .. . ... : ... .. . ... : ... .. . ...
ROW 10 : ... .. . ... : ... .. . ... : ... .. . ... : ... .. . ... : ... .. . ...
ROW 11 : ... .. . ... : ... .. . ... : ... .. . ... : ... .. . ... : ... .. . ...
ROW 12 : ... .. . ... : ... .. . ... : ... .. . ... : ... .. . ... : ... .. . ...
ROW 13 : ... .. . ... : ... .. . ... : ... .. . ... : ... .. . ... : ... .. . ...
ROW 14 : ... .. . ... : ... .. . ... : ... .. . ... : ... .. . ... : ... .. . ...
ROW 15 : ... .. . ... : ... .. . ... : ... .. . ... : ... .. . ... : ... .. . ...
ROW 16 : ... .. . ... : ... .. . ... : ... .. . ... : ... .. . ... : ... .. . ...
ROW 17 : ... .. . ... : ... .. . ... : ... .. . ... : ... .. . ... : ... .. . ...
ROW 18 : ... .. . ... : ... .. . ... : ... .. . ... : ... .. . ... : ... .. . ...
ROW 19 : ... .. . ... : ... .. . ... : ... .. . ... : ... .. . ... : ... .. . ...
ROW 1A : ... .. . ... : ... .. . ... : ... .. . ... : ... .. . ... : ... .. . ...
ROW 1B : ... .. . ... : ... .. . ... : ... .. . ... : ... .. . ... : ... .. . ...
ROW 1C : ... .. . ... : ... .. . ... : ... .. . ... : ... .. . ... : ... .. . ...
ROW 1D : ... .. . ... : ... .. . ... : ... .. . ... : ... .. . ... : ... .. . ...
ROW 1E : ... .. . ... : ... .. . ... : ... .. . ... : ... .. . ... : ... .. . ...
ROW 1F : ... .. . ... : ... .. . ... : ... .. . ... : ... .. . ... : ... .. . ...
ROW 20 : ... .. . ... : ... .. . ... : ... .. . ... : ... .. . ... : ... .. . ...
ROW 21 : ... .. . ... : ... .. . ... : ... .. . ... : ... .. . ... : ... .. . ...
ROW 22 : ... .. . ... : ... .. . ... : ... .. . ... : ... .. . ... : ... .. . ...
ROW 23 : ... .. . ... : ... .. . ... : ... .. . ... : ... .. . ... : ... .. . ...
ROW 24 : ... .. . ... : ... .. . ... : ... .. . ... : ... .. . ... : ... .. . ...
ROW 25 : ... .. . ... : ... .. . ... : ... .. . ... : ... .. . ... : ... .. . ...
ROW 26 : ... .. . ... : ... .. . ... : ... .. . ... : ... .. . ... : ... .. . ...
ROW 27 : ... .. . ... : ... .. . ... : ... .. . ... : ... .. . ... : ... .. . ...
ROW 28 : ... .. . ... : ... .. . ... : ... .. . ... : ... .. . ... : ... .. . ...
ROW 29 : ... .. . ... : ... .. . ... : ... .. . ... : ... .. . ... : ... .. . ...
ROW 2A : ... .. . ... : ... .. . ... : ... .. . ... : ... .. . ... : ... .. . ...
ROW 2B : ... .. . ... : ... .. . ... : ... .. . ... : ... .. . ... : ... .. . ...
ROW 2C : ... .. . ... : ... .. . ... : ... .. . ... : ... .. . ... : ... .. . ...
ROW 2D : ... .. . ... : ... .. . ... : ... .. . ... : ... .. . ... : ... .. . ...
ROW 2E : ... .. . ... : ... .. . ... : ... .. . ... : ... .. . ... : ... .. . ...
ROW 2F : ... .. . ... : ... .. . ... : ... .. . ... : ... .. . ... : ... .. . ...
ROW 30 : ... .. . ... : ... .. . ... : ... .. . ... : ... .. . ... : ... .. . ...
ROW 31 : ... .. . ... : ... .. . ... : ... .. . ... : ... .. . ... : ... .. . ...
ROW 32 : ... .. . ... : ... .. . ... : ... .. . ... : ... .. . ... : ... .. . ...
ROW 33 : ... .. . ... : ... .. . ... : ... .. . ... : ... .. . ... : ... .. . ...
ROW 34 : ... .. . ... : ... .. . ... : ... .. . ... : ... .. . ... : ... .. . ...
ROW 35 : ... .. . ... : ... .. . ... : ... .. . ... : ... .. . ... : ... .. . ...
ROW 36 : ... .. . ... : ... .. . ... : ... .. . ... : ... .. . ... : ... .. . ...
ROW 37 : ... .. . ... : ... .. . ... : ... .. . ... : ... .. . ... : ... .. . ...
ROW 38 : ... .. . ... : ... .. . ... : ... .. . ... : ... .. . ... : ... .. . ...
ROW 39 : ... .. . ... : ... .. . ... : ... .. . ... : ... .. . ... : ... .. . ...
ROW 3A : ... .. . ... : ... .. . ... : ... .. . ... : ... .. . ... : ... .. . ...
ROW 3B : ... .. . ... : ... .. . ... : ... .. . ... : ... .. . ... : ... .. . ...
ROW 3C : ... .. . ... : ... .. . ... : ... .. . ... : ... .. . ... : ... .. . ...
ROW 3D : ... .. . ... : ... .. . ... : ... .. . ... : ... .. . ... : ... .. . ...
ROW 3E : ... .. . ... : ... .. . ... : ... .. . ... : ... .. . ... : ... .. . ...
ROW 3F : ... .. . ... : ... .. . ... : ... .. . ... : ... .. . ... : ... .. . ...

PATTERN 01
ROW 00 : C-4 02 . ... : C-2 05 . ... : C-5 0E . ... : ... .. . ... : ... .. . ...
ROW 01 : ... .. . ... : ... .. . ... : ... .. . ... : ... .. . ... : ... .. . ...
ROW 02 : G-4 02 . ... : ... .. . ... : C-5 0E . ... : ... .. . ... : ... .. . ...
ROW 03 : ... .. . ... : ... .. . ... : ... .. . ... : ... .. . ... : ... .. . ...
ROW 04 : C-4 02 . ... : ... .. . ... : C-5 0E . ... : ... .. . ... : ... .. . ...
ROW 05 : ... .. . ... : ... .. . ... : ... .. . ... : ... .. . ... : ... .. . ...
ROW 06 : G-4 02 . ... : ... .. . ... : C-5 0E . ... : ... .. . ... : ... .. . ...
ROW 07 : ... .. . ... : ... .. . ... : C-5 0E . ... : ... .. . ... : ... .. . ...
ROW 08 : C-4 02 . ... : ... .. . ... : ... .. . ... : ... .. . ... : ... .. . ...
ROW 09 : ... .. . ... : ... .. . ... : C-5 0E . ... : ... .. . ... : ... .. . ...
ROW 0A : G-4 02 . ... : ... .. . ... : C-5 0E . ... : ... .. . ... : ... .. . ...
ROW 0B : ... .. . ... : ... .. . ... : ... .. . ... : ... .. . ... : ... .. . ...
ROW 0C : C-4 02 . ... : ... .. . ... : C-5 0E . ... : ... .. . ... : ... .. . ...
ROW 0D : ... .. . ... : ... .. . ... : ... .. . ... : ... .. . ... : ... .. . ...
ROW 0E : G-4 02 . ... : ... .. . ... : C-5 0E . ... : ... .. . ... : ... .. . ...
ROW 0F : ... .. . ... : ... .. . ... : C-5 0E . ... : ... .. . ... : ... .. . ...
ROW 10 : G-3 02 . ... : G-1 05 . ... : C-5 0E . ... : ... .. . ... : ... .. . ...
ROW 11 : ... .. . ... : ... .. . ... : ... .. . ... : ... .. . ... : ... .. . ...
ROW 12 : D-4 02 . ... : ... .. . ... : B-4 0E . ... : ... .. . ... : ... .. . ...
ROW 13 : ... .. . ... : ... .. . ... : ... .. . ... : ... .. . ... : ... .. . ...
ROW 14 : G-3 02 . ... : ... .. . ... : B-4 0E . ... : ... .. . ... : ... .. . ...
ROW 15 : ... .. . ... : ... .. . ... : ... .. . ... : ... .. . ... : ... .. . ...
ROW 16 : D-4 02 . ... : ... .. . ... : B-4 0E . ... : ... .. . ... : ... .. . ...
ROW 17 : ... .. . ... : ... .. . ... : B-4 0E . ... : ... .. . ... : ... .. . ...
ROW 18 : G-3 02 . ... : ... .. . ... : ... .. . ... : ... .. . ... : ... .. . ...
ROW 19 : ... .. . ... : ... .. . ... : B-4 0E . ... : ... .. . ... : ... .. . ...
ROW 1A : D-4 02 . ... : ... .. . ... : B-4 0E . ... : ... .. . ... : ... .. . ...
ROW 1B : ... .. . ... : ... .. . ... : ... .. . ... : ... .. . ... : ... .. . ...
ROW 1C : G-3 02 . ... : ... .. . ... : B-4 0E . ... : ... .. . ... : ... .. . ...
ROW 1D : ... .. . ... : ... .. . ... : ... .. . ... : ... .. . ... : ... .. . ...
ROW 1E : D-4 02 . ... : ... .. . ... : B-4 0E . ... : ... .. . ... : ... .. . ...
ROW 1F : ... .. . ... : ... .. . ... : B-4 0E . ... : ... .. . ... : ... .. . ...
ROW 20 : A-3 02 . ... : A-1 05 . ... : C-5 0E . ... : ... .. . ... : ... .. . ...
ROW 21 : ... .. . ... : ... .. . ... : ... .. . ... : ... .. . ... : ... .. . ...
ROW 22 : E-4 02 . ... : ... .. . ... : C-5 0E . ... : ... .. . ... : ... .. . ...
ROW 23 : ... .. . ... : ... .. . ... : ... .. . ... : ... .. . ... : ... .. . ...
ROW 24 : A-3 02 . ... : ... .. . ... : C-5 0E . ... : ... .. . ... : ... .. . ...
ROW 25 : ... .. . ... : ... .. . ... : ... .. . ... : ... .. . ... : ... .. . ...
ROW 26 : E-4 02 . ... : ... .. . ... : C-5 0E . ... : ... .. . ... : ... .. . ...
ROW 27 : ... .. . ... : ... .. . ... : C-5 0E . ... : ... .. . ... : ... .. . ...
ROW 28 : A-3 02 . ... : ... .. . ... : ... .. . ... : ... .. . ... : ... .. . ...
ROW 29 : ... .. . ... : ... .. . ... : C-5 0E . ... : ... .. . ... : ... .. . ...
ROW 2A : E-4 02 . ... : ... .. . ... : C-5 0E . ... : ... .. . ... : ... .. . ...
ROW 2B : ... .. . ... : ... .. . ... : ... .. . ... : ... .. . ... : ... .. . ...
ROW 2C : A-3 02 . ... : ... .. . ... : C-5 0E . ... : ... .. . ... : ... .. . ...
ROW 2D : ... .. . ... : ... .. . ... : ... .. . ... : ... .. . ... : ... .. . ...
ROW 2E : E-4 02 . ... : ... .. . ... : C-5 0E . ... : ... .. . ... : ... .. . ...
ROW 2F : ... .. . ... : ... .. . ... : C-5 0E . ... : ... .. . ... : ... .. . ...
ROW 30 : F-3 02 . ... : F-1 05 . ... : C-5 0E . ... : ... .. . ... : ... .. . ...
ROW 31 : ... .. . ... : ... .. . ... : ... .. . ... : ... .. . ... : ... .. . ...
ROW 32 : C-4 02 . ... : ... .. . ... : D-5 0E . ... : ... .. . ... : ... .. . ...
ROW 33 : ... .. . ... : ... .. . ... : ... .. . ... : ... .. . ... : ... .. . ...
ROW 34 : F-3 02 . ... : ... .. . ... : D-5 0E . ... : ... .. . ... : ... .. . ...
ROW 35 : ... .. . ... : ... .. . ... : ... .. . ... : ... .. . ... : ... .. . ...
ROW 36 : C-4 02 . ... : ... .. . ... : D-5 0E . ... : ... .. . ... : ... .. . ...
ROW 37 : ... .. . ... : ... .. . ... : D-5 0E . ... : ... .. . ... : ... .. . ...
ROW 38 : F-3 02 . ... : ... .. . ... : ... .. . ... : ... .. . ... : ... .. . ...
ROW 39 : ... .. . ... : ... .. . ... : D-5 0E . ... : ... .. . ... : ... .. . ...
ROW 3A : C-4 02 . ... : ... .. . ... : D-5 0E . ... : ... .. . ... : ... .. . ...
ROW 3B : ... .. . ... : ... .. . ... : ... .. . ... : ... .. . ... : ... .. . ...
ROW 3C : F-3 02 . ... : ... .. . ... : D-5 0E . ... : ... .. . ... : ... .. . ...
ROW 3D : ... .. . ... : ... .. . ... : ... .. . ... : ... .. . ... : ... .. . ...
ROW 3E : C-4 02 . ... : ... .. . ... : D-5 0E . ... : ... .. . ... : ... .. . ...
ROW 3F : ... .. . ... : ... .. . ... : D-5 0E . ... : ... .. . ... : ... .. . ...

PATTERN 02
ROW 00 : ... .. . ... : --- .. . ... : C-5 0E . ... : 0-# 07 . ... : E-5 00 . ...
ROW 01 : ... .. . ... : ... .. . ... : ... .. . ... : ... .. . ... : ... .. . ...
ROW 02 : ... .. . ... : ... .. . ... : C-5 0E . ... : D-# 09 . ... : C-4 00 . ...
ROW 03 : ... .. . ... : ... .. . ... : ... .. . ... : ... .. . ... : ... .. . ...
ROW 04 : ... .. . ... : ... .. . ... : C-5 0E . ... : 0-# 08 . ... : F-5 00 . ...
ROW 05 : ... .. . ... : ... .. . ... : ... .. . ... : ... .. . ... : ... .. . ...
ROW 06 : ... .. . ... : ... .. . ... : C-5 0E . ... : D-# 09 . ... : C-4 00 . ...
ROW 07 : ... .. . ... : ... .. . ... : C-5 0E . ... : F-# 09 . ... : ... .. . ...
ROW 08 : ... .. . ... : ... .. . ... : ... .. . ... : 0-# 07 . ... : E-5 00 . ...
ROW 09 : ... .. . ... : ... .. . ... : C-5 0E . ... : F-# 09 . ... : ... .. . ...
ROW 0A : ... .. . ... : ... .. . ... : C-5 0E . ... : D-# 09 . ... : C-4 00 . ...
ROW 0B : ... .. . ... : ... .. . ... : ... .. . ... : ... .. . ... : ... .. . ...
ROW 0C : ... .. . ... : ... .. . ... : C-5 0E . ... : 0-# 08 . ... : F-5 00 . ...
ROW 0D : ... .. . ... : ... .. . ... : ... .. . ... : ... .. . ... : ... .. . ...
ROW 0E : ... .. . ... : ... .. . ... : C-5 0E . ... : D-# 09 . ... : C-4 00 . ...
ROW 0F : ... .. . ... : ... .. . D00 : C-5 0E . ... : F-# 09 . ... : ... .. . ...
ROW 10 : ... .. . ... : ... .. . ... : C-5 0E . ... : 0-# 07 . ... : E-5 00 . ...
ROW 11 : ... .. . ... : ... .. . ... : ... .. . ... : ... .. . ... : ... .. . ...
ROW 12 : ... .. . ... : ... .. . ... : B-4 0E . ... : D-# 09 . ... : G-3 00 . ...
ROW 13 : ... .. . ... : ... .. . ... : ... .. . ... : ... .. . ... : ... .. . ...
ROW 14 : ... .. . ... : ... .. . ... : B-4 0E . ... : 0-# 08 . ... : F-5 00 . ...
ROW 15 : ... .. . ... : ... .. . ... : ... .. . ... : ... .. . ... : ... .. . ...
ROW 16 : ... .. . ... : ... .. . ... : B-4 0E . ... : D-# 09 . ... : G-3 00 . ...
ROW 17 : ... .. . ... : ... .. . ... : B-4 0E . ... : F-# 09 . ... : ... .. . ...
ROW 18 : ... .. . ... : ... .. . ... : ... .. . ... : 0-# 07 . ... : E-5 00 . ...
ROW 19 : ... .. . ... : ... .. . ... : B-4 0E . ... : F-# 09 . ... : ... .. . ...
ROW 1A : ... .. . ... : ... .. . ... : B-4 0E . ... : D-# 09 . ... : G-3 00 . ...
ROW 1B : ... .. . ... : ... .. . ... : ... .. . ... : ... .. . ... : ... .. . ...
ROW 1C : ... .. . ... : ... .. . ... : B-4 0E . ... : 0-# 08 . ... : F-5 00 . ...
ROW 1D : ... .. . ... : ... .. . ... : ... .. . ... : ... .. . ... : ... .. . ...
ROW 1E : ... .. . ... : ... .. . ... : B-4 0E . ... : D-# 09 . ... : G-3 00 . ...
ROW 1F : ... .. . ... : ... .. . ... : B-4 0E . ... : F-# 09 . ... : ... .. . ...
ROW 20 : ... .. . ... : ... .. . ... : C-5 0E . ... : 0-# 07 . ... : E-5 00 . ...
ROW 21 : ... .. . ... : ... .. . ... : ... .. . ... : ... .. . ... : ... .. . ...
ROW 22 : ... .. . ... : ... .. . ... : C-5 0E . ... : D-# 09 . ... : A-3 00 . ...
ROW 23 : ... .. . ... : ... .. . ... : ... .. . ... : ... .. . ... : ... .. . ...
ROW 24 : ... .. . ... : ... .. . ... : C-5 0E . ... : 0-# 08 . ... : F-5 00 . ...
ROW 25 : ... .. . ... : ... .. . ... : ... .. . ... : ... .. . ... : ... .. . ...
ROW 26 : ... .. . ... : ... .. . ... : C-5 0E . ... : D-# 09 . ... : A-3 00 . ...
ROW 27 : ... .. . ... : ... .. . ... : C-5 0E . ... : F-# 09 . ... : ... .. . ...
ROW 28 : ... .. . ... : ... .. . ... : ... .. . ... : 0-# 07 . ... : E-5 00 . ...
ROW 29 : ... .. . ... : ... .. . ... : C-5 0E . ... : F-# 09 . ... : ... .. . ...
ROW 2A : ... .. . ... : ... .. . ... : C-5 0E . ... : D-# 09 . ... : A-3 00 . ...
ROW 2B : ... .. . ... : ... .. . ... : ... .. . ... : ... .. . ... : ... .. . ...
ROW 2C : ... .. . ... : ... .. . ... : C-5 0E . ... : 0-# 08 . ... : F-5 00 . ...
ROW 2D : ... .. . ... : ... .. . ... : ... .. . ... : ... .. . ... : ... .. . ...
ROW 2E : ... .. . ... : ... .. . ... : C-5 0E . ... : D-# 09 . ... : A-3 00 . ...
ROW 2F : ... .. . ... : ... .. . ... : C-5 0E . ... : F-# 09 . ... : ... .. . ...
ROW 30 : ... .. . ... : ... .. . ... : C-5 0E . ... : 0-# 07 . ... : E-5 00 . ...
ROW 31 : ... .. . ... : ... .. . ... : ... .. . ... : ... .. . ... : ... .. . ...
ROW 32 : ... .. . ... : ... .. . ... : D-5 0E . ... : D-# 09 . ... : F-3 00 . ...
ROW 33 : ... .. . ... : ... .. . ... : ... .. . ... : ... .. . ... : ... .. . ...
ROW 34 : ... .. . ... : ... .. . ... : D-5 0E . ... : 0-# 08 . ... : F-5 00 . ...
ROW 35 : ... .. . ... : ... .. . ... : ... .. . ... : ... .. . ... : ... .. . ...
ROW 36 : ... .. . ... : ... .. . ... : D-5 0E . ... : D-# 09 . ... : F-3 00 . ...
ROW 37 : ... .. . ... : ... .. . ... : D-5 0E . ... : F-# 09 . ... : ... .. . ...
ROW 38 : ... .. . ... : ... .. . ... : ... .. . ... : 0-# 07 . ... : E-5 00 . ...
ROW 39 : ... .. . ... : ... .. . ... : D-5 0E . ... : F-# 09 . ... : ... .. . ...
ROW 3A : ... .. . ... : ... .. . ... : E-5 0E . ... : D-# 09 . ... : F-3 00 . ...
ROW 3B : ... .. . ... : ... .. . ... : ... .. . ... : ... .. . ... : ... .. . ...
ROW 3C : ... .. . ... : ... .. . ... : E-5 0E . ... : 0-# 08 . ... : F-5 00 . ...
ROW 3D : ... .. . ... : ... .. . ... : ... .. . ... : ... .. . ... : ... .. . ...
ROW 3E : ... .. . ... : ... .. . ... : E-5 0E . ... : D-# 09 . ... : F-3 00 . ...
ROW 3F : ... .. . ... : ... .. . ... : E-5 0E . ... : F-# 09 . ... : ... .. . ...

PATTERN 03
ROW 00 : ... .. . ... : ... .. . ... : D-3 0B . ... : ... .. . ... : C-4 00 . ...
ROW 01 : ... .. . ... : ... .. . ... : --- .. . ... : ... .. . ... : ... .. . ...
ROW 02 : ... .. . ... : ... .. . ... : ... .. . ... : ... .. . ... : C-4 00 . ...
ROW 03 : ... .. . ... : ... .. . ... : ... .. . ... : ... .. . ... : ... .. . ...
ROW 04 : ... .. . ... : ... .. . ... : A-3 0B . ... : ... .. . ... : C-4 00 . ...
ROW 05 : ... .. . ... : ... .. . ... : ... .. . ... : ... .. . ... : ... .. . ...
ROW 06 : ... .. . ... : ... .. . ... : --- .. . ... : ... .. . ... : C-4 00 . ...
ROW 07 : ... .. . ... : ... .. . ... : ... .. . ... : ... .. . ... : ... .. . ...
ROW 08 : ... .. . ... : ... .. . ... : D-3 0B . ... : B-# 00 1 ... : C-4 00 . ...
ROW 09 : ... .. . ... : ... .. . ... : --- .. . ... : ... .. 2 ... : ... .. . ...
ROW 0A : ... .. . ... : ... .. . ... : ... .. . ... : ... .. 3 ... : C-4 00 . ...
ROW 0B : ... .. . ... : ... .. . ... : ... .. . ... : ... .. 5 ... : ... .. . ...
ROW 0C : ... .. . ... : ... .. . ... : A-3 0B . ... : ... .. 7 ... : C-4 00 . ...
ROW 0D : ... .. . ... : ... .. . ... : ... .. . ... : ... .. A ... : ... .. . ...
ROW 0E : ... .. . ... : ... .. . ... : --- .. . ... : ... .. C ... : C-4 00 . ...
ROW 0F : ... .. . ... : ... .. . ... : ... .. . ... : ... .. F ... : ... .. . ...
ROW 10 : ... .. . ... : ... .. . ... : D-3 0B . ... : ... .. . ... : C-4 00 . ...
ROW 11 : ... .. . ... : ... .. . ... : --- .. . ... : ... .. . ... : ... .. . ...
ROW 12 : ... .. . ... : ... .. . ... : ... .. . ... : ... .. . ... : G-3 00 . ...
ROW 13 : ... .. . ... : ... .. . ... : ... .. . ... : ... .. . ... : ... .. . ...
ROW 14 : ... .. . ... : ... .. . ... : A-3 0B . ... : ... .. . ... : G-3 00 . ...
ROW 15 : ... .. . ... : ... .. . ... : ... .. . ... : ... .. . ... : ... .. . ...
ROW 16 : ... .. . ... : ... .. . ... : --- .. . ... : ... .. . ... : G-3 00 . ...
ROW 17 : ... .. . ... : ... .. . ... : ... .. . ... : ... .. . ... : ... .. . ...
ROW 18 : ... .. . ... : ... .. . ... : D-3 0B . ... : ... .. . ... : G-3 00 . ...
ROW 19 : ... .. . ... : ... .. . ... : --- .. . ... : ... .. . ... : ... .. . ...
ROW 1A : ... .. . ... : ... .. . ... : ... .. . ... : ... .. . ... : G-3 00 . ...
ROW 1B : ... .. . ... : ... .. . ... : ... .. . ... : ... .. . ... : ... .. . ...
ROW 1C : ... .. . ... : ... .. . ... : A-3 0B . ... : ... .. . ... : G-3 00 . ...
ROW 1D : ... .. . ... : ... .. . ... : ... .. . ... : ... .. . ... : ... .. . ...
ROW 1E : ... .. . ... : ... .. . ... : --- .. . ... : ... .. . ... : G-3 00 . ...
ROW 1F : ... .. . ... : ... .. . ... : ... .. . ... : ... .. . ... : ... .. . ...
ROW 20 : ... .. . ... : ... .. . ... : D-3 0B . ... : ... .. . ... : A-3 00 . ...
ROW 21 : ... .. . ... : ... .. . ... : --- .. . ... : ... .. . ... : ... .. . ...
ROW 22 : ... .. . ... : ... .. . ... : ... .. . ... : ... .. . ... : A-3 00 . ...
ROW 23 : ... .. . ... : ... .. . ... : ... .. . ... : ... .. . ... : ... .. . ...
ROW 24 : ... .. . ... : ... .. . ... : A-3 0B . ... : ... .. . ... : A-3 00 . ...
ROW 25 : ... .. . ... : ... .. . ... : ... .. . ... : ... .. . ... : ... .. . ...
ROW 26 : ... .. . ... : ... .. . ... : --- .. . ... : ... .. . ... : A-3 00 . ...
ROW 27 : ... .. . ... : ... .. . ... : ... .. . ... : ... .. . ... : ... .. . ...
ROW 28 : ... .. . ... : ... .. . ... : D-3 0B . ... : ... .. . ... : A-3 00 . ...
ROW 29 : ... .. . ... : ... .. . ... : --- .. . ... : ... .. . ... : ... .. . ...
ROW 2A : ... .. . ... : ... .. . ... : ... .. . ... : ... .. . ... : A-3 00 . ...
ROW 2B : ... .. . ... : ... .. . ... : ... .. . ... : ... .. . ... : ... .. . ...
ROW 2C : ... .. . ... : ... .. . ... : A-3 0B . ... : ... .. . ... : A-3 00 . ...
ROW 2D : ... .. . ... : ... .. . ... : ... .. . ... : ... .. . ... : ... .. . ...
ROW 2E : ... .. . ... : ... .. . ... : --- .. . ... : ... .. . ... : A-3 00 . ...
ROW 2F : ... .. . ... : ... .. . ... : ... .. . ... : ... .. . ... : ... .. . ...
ROW 30 : ... .. . ... : ... .. . ... : D-3 0B . ... : ... .. . ... : A-3 00 . ...
ROW 31 : ... .. . ... : ... .. . ... : --- .. . ... : ... .. . ... : ... .. . ...
ROW 32 : ... .. . ... : ... .. . ... : ... .. . ... : ... .. . ... : F-3 00 . ...
ROW 33 : ... .. . ... : ... .. . ... : ... .. . ... : ... .. . ... : ... .. . ...
ROW 34 : ... .. . ... : ... .. . ... : A-3 0B . ... : ... .. . ... : F-3 00 . ...
ROW 35 : ... .. . ... : ... .. . ... : ... .. . ... : ... .. . ... : ... .. . ...
ROW 36 : ... .. . ... : ... .. . ... : --- .. . ... : ... .. . ... : F-3 00 . ...
ROW 37 : ... .. . ... : ... .. . ... : ... .. . ... : ... .. . ... : ... .. . ...
ROW 38 : ... .. . ... : ... .. . ... : D-3 0B . ... : ... .. . ... : F-3 00 . ...
ROW 39 : ... .. . ... : ... .. . ... : --- .. . ... : ... .. . ... : ... .. . ...
ROW 3A : ... .. . ... : ... .. . ... : ... .. . ... : ... .. . ... : F-3 00 . ...
ROW 3B : ... .. . ... : ... .. . ... : ... .. . ... : ... .. . ... : ... .. . ...
ROW 3C : ... .. . ... : ... .. . ... : A-3 0B . ... : ... .. . ... : F-3 00 . ...
ROW 3D : ... .. . ... : ... .. . ... : ... .. . ... : ... .. . ... : ... .. . ...
ROW 3E : ... .. . ... : ... .. . ... : --- .. . ... : ... .. . ... : F-3 00 . ...
ROW 3F : ... .. . ... : ... .. . ... : ... .. . ... : ... .. . ... : ... .. . ...

PATTERN 04
ROW 00 : C-5 03 . ... : C-4 04 . P81 : ... .. . ... : 0-# 07 F ... : ... .. . ...
ROW 01 : ... .. . ... : ... .. . ... : ... .. . ... : ... .. . ... : ... .. . ...
ROW 02 : --- .. . ... : --- .. . ... : ... .. . ... : D-# 09 . ... : ... .. . ...
ROW 03 : C-5 03 . ... : C-4 04 . ... : ... .. . ... : ... .. . ... : ... .. . ...
ROW 04 : ... .. . ... : ... .. . ... : ... .. . ... : 0-# 08 . ... : ... .. . ...
ROW 05 : --- .. . ... : --- .. . ... : ... .. . ... : ... .. . ... : ... .. . ...
ROW 06 : C-5 03 . ... : C-4 04 . ... : ... .. . ... : D-# 09 . ... : ... .. . ...
ROW 07 : ... .. . ... : ... .. . ... : ... .. . ... : F-# 09 . ... : ... .. . ...
ROW 08 : --- .. . ... : --- .. . ... : ... .. . ... : 0-# 07 . ... : ... .. . ...
ROW 09 : C-5 03 . ... : C-4 04 . ... : ... .. . ... : F-# 09 . ... : ... .. . ...
ROW 0A : ... .. . ... : ... .. . ... : ... .. . ... : D-# 09 . ... : ... .. . ...
ROW 0B : --- 03 . ... : --- 04 . ... : ... .. . ... : ... .. . ... : ... .. . ...
ROW 0C : C-5 03 . ... : C-4 04 . ... : ... .. . ... : 0-# 08 . ... : ... .. . ...
ROW 0D : ... .. . ... : ... .. . ... : ... .. . ... : ... .. . ... : ... .. . ...
ROW 0E : --- .. . ... : --- .. . ... : ... .. . ... : D-# 09 . ... : ... .. . ...
ROW 0F : C-5 03 . ... : C-4 04 . ... : ... .. . ... : F-# 09 . ... : ... .. . ...
ROW 10 : ... .. . ... : ... .. . ... : ... .. . ... : 0-# 07 . ... : ... .. . ...
ROW 11 : --- .. . ... : --- .. . ... : ... .. . ... : ... .. . ... : ... .. . ...
ROW 12 : B-4 03 . ... : B-3 04 . ... : ... .. . ... : D-# 09 . ... : ... .. . ...
ROW 13 : ... .. . ... : ... .. . ... : ... .. . ... : ... .. . ... : ... .. . ...
ROW 14 : --- .. . ... : --- .. . ... : ... .. . ... : 0-# 08 . ... : ... .. . ...
ROW 15 : B-4 03 . ... : B-3 04 . ... : ... .. . ... : ... .. . ... : ... .. . ...
ROW 16 : ... .. . ... : ... .. . ... : ... .. . ... : D-# 09 . ... : ... .. . ...
ROW 17 : --- .. . ... : --- .. . ... : ... .. . ... : F-# 09 . ... : ... .. . ...
ROW 18 : B-4 03 . ... : B-3 04 . ... : ... .. . ... : 0-# 07 . ... : ... .. . ...
ROW 19 : ... .. . ... : ... .. . ... : ... .. . ... : F-# 09 . ... : ... .. . ...
ROW 1A : --- .. . ... : --- .. . ... : ... .. . ... : D-# 09 . ... : ... .. . ...
ROW 1B : B-4 03 . ... : B-3 04 . ... : ... .. . ... : ... .. . ... : ... .. . ...
ROW 1C : ... .. . ... : ... .. . ... : ... .. . ... : 0-# 08 . ... : ... .. . ...
ROW 1D : --- .. . ... : --- .. . ... : ... .. . ... : ... .. . ... : ... .. . ...
ROW 1E : B-4 03 . ... : B-3 04 . ... : ... .. . ... : D-# 09 . ... : ... .. . ...
ROW 1F : ... .. . ... : ... .. . ... : ... .. . ... : F-# 09 . ... : ... .. . ...
ROW 20 : C-5 03 . ... : C-4 04 . ... : ... .. . ... : 0-# 07 . ... : ... .. . ...
ROW 21 : ... .. . ... : ... .. . ... : ... .. . ... : ... .. . ... : ... .. . ...
ROW 22 : --- .. . ... : --- .. . ... : ... .. . ... : D-# 09 . ... : ... .. . ...
ROW 23 : C-5 03 . ... : C-4 04 . ... : ... .. . ... : ... .. . ... : ... .. . ...
ROW 24 : ... .. . ... : ... .. . ... : ... .. . ... : 0-# 08 . ... : ... .. . ...
ROW 25 : --- .. . ... : --- .. . ... : ... .. . ... : ... .. . ... : ... .. . ...
ROW 26 : C-5 03 . ... : C-4 04 . ... : ... .. . ... : D-# 09 . ... : ... .. . ...
ROW 27 : ... .. . ... : ... .. . ... : ... .. . ... : F-# 09 . ... : ... .. . ...
ROW 28 : --- .. . ... : --- .. . ... : ... .. . ... : 0-# 07 . ... : ... .. . ...
ROW 29 : C-5 03 . ... : C-4 04 . ... : ... .. . ... : F-# 09 . ... : ... .. . ...
ROW 2A : ... .. . ... : ... .. . ... : ... .. . ... : D-# 09 . ... : ... .. . ...
ROW 2B : --- .. . ... : --- .. . ... : ... .. . ... : ... .. . ... : ... .. . ...
ROW 2C : C-5 03 . ... : C-4 04 . ... : ... .. . ... : 0-# 08 . ... : ... .. . ...
ROW 2D : ... .. . ... : ... .. . ... : ... .. . ... : ... .. . ... : ... .. . ...
ROW 2E : --- .. . ... : --- .. . ... : ... .. . ... : D-# 09 . ... : ... .. . ...
ROW 2F : C-5 03 . ... : C-4 04 . ... : ... .. . ... : F-# 09 . ... : ... .. . ...
ROW 30 : ... .. . ... : ... .. . ... : ... .. . ... : 0-# 07 . ... : ... .. . ...
ROW 31 : --- .. . ... : --- .. . ... : ... .. . ... : ... .. . ... : ... .. . ...
ROW 32 : D-5 03 . ... : D-4 04 . ... : ... .. . ... : D-# 09 . ... : ... .. . ...
ROW 33 : ... .. . ... : ... .. . ... : ... .. . ... : ... .. . ... : ... .. . ...
ROW 34 : --- .. . ... : --- .. . ... : ... .. . ... : 0-# 08 . ... : ... .. . ...
ROW 35 : D-5 03 . ... : D-4 04 . ... : ... .. . ... : ... .. . ... : ... .. . ...
ROW 36 : ... .. . ... : ... .. . ... : ... .. . ... : D-# 09 . ... : ... .. . ...
ROW 37 : --- .. . ... : --- .. . ... : ... .. . ... : F-# 09 . ... : ... .. . ...
ROW 38 : D-5 03 . ... : D-4 04 . ... : ... .. . ... : 0-# 07 . ... : ... .. . ...
ROW 39 : ... .. . ... : ... .. . ... : ... .. . ... : F-# 09 . ... : ... .. . ...
ROW 3A : --- .. . ... : --- .. . ... : ... .. . ... : D-# 09 . ... : ... .. . ...
ROW 3B : D-5 03 . ... : D-4 04 . ... : ... .. . ... : ... .. . ... : ... .. . ...
ROW 3C : ... .. . ... : ... .. . ... : ... .. . ... : 0-# 08 . ... : ... .. . ...
ROW 3D : --- .. . ... : --- .. . ... : ... .. . ... : ... .. . ... : ... .. . ...
ROW 3E : D-5 03 . ... : D-4 04 . ... : ... .. . ... : D-# 09 . ... : ... .. . ...
ROW 3F : ... .. . ... : ... .. . ... : ... .. . ... : F-# 09 . ... : ... .. . ...

PATTERN 05
ROW 00 : C-5 03 . ... : C-4 04 . ... : ... .. . ... : ... .. . ... : ... .. . ...
ROW 01 : ... .. . ... : ... .. . ... : ... .. . ... : ... .. . ... : ... .. . ...
ROW 02 : --- .. . ... : --- .. . ... : ... .. . ... : ... .. . ... : ... .. . ...
ROW 03 : C-5 03 . ... : C-4 04 . ... : ... .. . ... : ... .. . ... : ... .. . ...
ROW 04 : ... .. . ... : ... .. . ... : ... .. . ... : ... .. . ... : ... .. . ...
ROW 05 : --- .. . ... : --- .. . ... : ... .. . ... : ... .. . ... : ... .. . ...
ROW 06 : C-5 03 . ... : C-4 04 . ... : ... .. . ... : ... .. . ... : ... .. . ...
ROW 07 : ... .. . ... : ... .. . ... : ... .. . ... : ... .. . ... : ... .. . ...
ROW 08 : --- .. . ... : --- .. . ... : ... .. . ... : ... .. . ... : ... .. . ...
ROW 09 : C-5 03 . ... : C-4 04 . ... : ... .. . ... : ... .. . ... : ... .. . ...
ROW 0A : ... .. . ... : ... .. . ... : ... .. . ... : ... .. . ... : ... .. . ...
ROW 0B : --- 03 . ... : --- 04 . ... : ... .. . ... : ... .. . ... : ... .. . ...
ROW 0C : C-5 03 . ... : C-4 04 . ... : ... .. . ... : ... .. . ... : ... .. . ...
ROW 0D : ... .. . ... : ... .. . ... : ... .. . ... : ... .. . ... : ... .. . ...
ROW 0E : --- .. . ... : --- .. . ... : ... .. . ... : ... .. . ... : ... .. . ...
ROW 0F : C-5 03 . ... : C-4 04 . ... : ... .. . ... : ... .. . ... : ... .. . ...
ROW 10 : ... .. . ... : ... .. . ... : ... .. . ... : ... .. . ... : ... .. . ...
ROW 11 : --- .. . ... : --- .. . ... : ... .. . ... : ... .. . ... : ... .. . ...
ROW 12 : B-4 03 . ... : B-3 04 . ... : ... .. . ... : ... .. . ... : ... .. . ...
ROW 13 : ... .. . ... : ... .. . ... : ... .. . ... : ... .. . ... : ... .. . ...
ROW 14 : --- .. . ... : --- .. . ... : ... .. . ... : ... .. . ... : ... .. . ...
ROW 15 : B-4 03 . ... : B-3 04 . ... : ... .. . ... : ... .. . ... : ... .. . ...
ROW 16 : ... .. . ... : ... .. . ... : ... .. . ... : ... .. . ... : ... .. . ...
ROW 17 : --- .. . ... : --- .. . ... : ... .. . ... : ... .. . ... : ... .. . ...
ROW 18 : B-4 03 . ... : B-3 04 . ... : ... .. . ... : ... .. . ... : ... .. . ...
ROW 19 : ... .. . ... : ... .. . ... : ... .. . ... : ... .. . ... : ... .. . ...
ROW 1A : --- .. . ... : --- .. . ... : ... .. . ... : ... .. . ... : ... .. . ...
ROW 1B : B-4 03 . ... : B-3 04 . ... : ... .. . ... : ... .. . ... : ... .. . ...
ROW 1C : ... .. . ... : ... .. . ... : ... .. . ... : ... .. . ... : ... .. . ...
ROW 1D : --- .. . ... : --- .. . ... : ... .. . ... : ... .. . ... : ... .. . ...
ROW 1E : B-4 03 . ... : B-3 04 . ... : ... .. . ... : ... .. . ... : ... .. . ...
ROW 1F : ... .. . ... : ... .. . ... : ... .. . ... : ... .. . ... : ... .. . ...
ROW 20 : C-5 03 . ... : C-4 04 . ... : ... .. . ... : ... .. . ... : ... .. . ...
ROW 21 : ... .. . ... : ... .. . ... : ... .. . ... : ... .. . ... : ... .. . ...
ROW 22 : --- .. . ... : --- .. . ... : ... .. . ... : ... .. . ... : ... .. . ...
ROW 23 : C-5 03 . ... : C-4 04 . ... : ... .. . ... : ... .. . ... : ... .. . ...
ROW 24 : ... .. . ... : ... .. . ... : ... .. . ... : ... .. . ... : ... .. . ...
ROW 25 : --- .. . ... : --- .. . ... : ... .. . ... : ... .. . ... : ... .. . ...
ROW 26 : C-5 03 . ... : C-4 04 . ... : ... .. . ... : ... .. . ... : ... .. . ...
ROW 27 : ... .. . ... : ... .. . ... : ... .. . ... : ... .. . ... : ... .. . ...
ROW 28 : --- .. . ... : --- .. . ... : ... .. . ... : ... .. . ... : ... .. . ...
ROW 29 : C-5 03 . ... : C-4 04 . ... : ... .. . ... : ... .. . ... : ... .. . ...
ROW 2A : ... .. . ... : ... .. . ... : ... .. . ... : ... .. . ... : ... .. . ...
ROW 2B : --- .. . ... : --- .. . ... : ... .. . ... : ... .. . ... : ... .. . ...
ROW 2C : C-5 03 . ... : C-4 04 . ... : ... .. . ... : ... .. . ... : ... .. . ...
ROW 2D : ... .. . ... : ... .. . ... : ... .. . ... : ... .. . ... : ... .. . ...
ROW 2E : --- .. . ... : --- .. . ... : ... .. . ... : ... .. . ... : ... .. . ...
ROW 2F : C-5 03 . ... : C-4 04 . ... : ... .. . ... : ... .. . ... : ... .. . ...
ROW 30 : ... .. . ... : ... .. . ... : ... .. . ... : ... .. . ... : ... .. . ...
ROW 31 : --- .. . ... : --- .. . ... : ... .. . ... : ... .. . ... : ... .. . ...
ROW 32 : D-5 03 . ... : D-4 04 . ... : ... .. . ... : ... .. . ... : ... .. . ...
ROW 33 : ... .. . ... : ... .. . ... : ... .. . ... : ... .. . ... : ... .. . ...
ROW 34 : --- .. . ... : --- .. . ... : ... .. . ... : ... .. . ... : ... .. . ...
ROW 35 : D-5 03 . ... : D-4 04 . ... : ... .. . ... : ... .. . ... : ... .. . ...
ROW 36 : ... .. . ... : ... .. . ... : ... .. . ... : ... .. . ... : ... .. . ...
ROW 37 : --- .. . ... : --- .. . ... : ... .. . ... : ... .. . ... : ... .. . ...
ROW 38 : D-5 03 . ... : D-4 04 . ... : ... .. . ... : ... .. . ... : ... .. . ...
ROW 39 : ... .. . ... : ... .. . ... : ... .. . ... : ... .. . ... : ... .. . ...
ROW 3A : --- .. . ... : --- .. . ... : ... .. . ... : ... .. . ... : ... .. . ...
ROW 3B : E-5 03 . ... : E-4 04 . ... : ... .. . ... : ... .. . ... : ... .. . ...
ROW 3C : ... .. . ... : ... .. . ... : ... .. . ... : ... .. . ... : ... .. . ...
ROW 3D : --- .. . ... : --- .. . ... : ... .. . ... : ... .. . ... : ... .. . ...
ROW 3E : E-5 03 . ... : E-4 04 . ... : ... .. . ... : ... .. . ... : ... .. . ...
ROW 3F : ... .. . ... : ... .. . C00 : ... .. . ... : ... .. . ... : ... .. . ...

TRACK  32   3 140 "custom_ultimatedestruction"
COLUMNS : 1 1 1 1 1

ORDER 00 : 01 00 00 00 00
ORDER 01 : 02 00 00 00 00
ORDER 02 : 03 00 00 00 00
ORDER 03 : 04 00 00 00 00
ORDER 04 : 01 01 01 00 00
ORDER 05 : 02 02 02 00 00
ORDER 06 : 03 03 03 00 00
ORDER 07 : 04 03 03 00 00
ORDER 08 : 01 01 00 00 01
ORDER 09 : 02 02 00 00 02
ORDER 0A : 03 03 00 00 03
ORDER 0B : 04 03 00 00 03
ORDER 0C : 01 01 00 00 04
ORDER 0D : 02 02 00 00 05
ORDER 0E : 03 03 00 00 06
ORDER 0F : 04 03 00 00 06
ORDER 10 : 01 01 00 00 04
ORDER 11 : 02 02 00 00 05
ORDER 12 : 03 03 00 00 07
ORDER 13 : 04 03 00 00 08
ORDER 14 : 00 00 00 00 00
ORDER 15 : 05 04 00 03 09
ORDER 16 : 06 04 00 04 0A
ORDER 17 : 07 05 00 03 0B
ORDER 18 : 08 05 00 04 0C
ORDER 19 : 09 06 00 03 0D
ORDER 1A : 0A 06 00 04 0E
ORDER 1B : 0B 05 00 03 0B
ORDER 1C : 0C 07 00 04 0F
ORDER 1D : 05 04 00 03 09
ORDER 1E : 06 04 00 04 0A
ORDER 1F : 07 05 00 03 0B
ORDER 20 : 08 05 00 04 0C
ORDER 21 : 09 06 00 03 0D
ORDER 22 : 0A 06 00 04 0E
ORDER 23 : 0B 05 00 03 0B
ORDER 24 : 0C 07 00 04 0F
ORDER 25 : 00 00 00 00 10

PATTERN 00
ROW 00 : --- .. . ... : --- .. . ... : --- .. . ... : --- .. . ... : --- .. . ...
ROW 01 : ... .. . ... : ... .. . ... : ... .. . ... : ... .. . ... : ... .. . ...
ROW 02 : ... .. . ... : ... .. . ... : ... .. . ... : ... .. . ... : ... .. . ...
ROW 03 : ... .. . ... : ... .. . ... : ... .. . ... : ... .. . ... : ... .. . ...
ROW 04 : ... .. . ... : ... .. . ... : ... .. . ... : ... .. . ... : ... .. . ...
ROW 05 : ... .. . ... : ... .. . ... : ... .. . ... : ... .. . ... : ... .. . ...
ROW 06 : ... .. . ... : ... .. . ... : ... .. . ... : ... .. . ... : ... .. . ...
ROW 07 : ... .. . ... : ... .. . ... : ... .. . ... : ... .. . ... : ... .. . ...
ROW 08 : ... .. . ... : ... .. . ... : ... .. . ... : ... .. . ... : ... .. . ...
ROW 09 : ... .. . ... : ... .. . ... : ... .. . ... : ... .. . ... : ... .. . ...
ROW 0A : ... .. . ... : ... .. . ... : ... .. . ... : ... .. . ... : ... .. . ...
ROW 0B : ... .. . ... : ... .. . ... : ... .. . ... : ... .. . ... : ... .. . ...
ROW 0C : ... .. . ... : ... .. . ... : ... .. . ... : ... .. . ... : ... .. . ...
ROW 0D : ... .. . ... : ... .. . ... : ... .. . ... : ... .. . ... : ... .. . ...
ROW 0E : ... .. . ... : ... .. . ... : ... .. . ... : ... .. . ... : ... .. . ...
ROW 0F : ... .. . ... : ... .. . ... : ... .. . ... : ... .. . ... : ... .. . ...
ROW 10 : ... .. . ... : ... .. . ... : ... .. . ... : ... .. . ... : ... .. . ...
ROW 11 : ... .. . ... : ... .. . ... : ... .. . ... : ... .. . ... : ... .. . ...
ROW 12 : ... .. . ... : ... .. . ... : ... .. . ... : ... .. . ... : ... .. . ...
ROW 13 : ... .. . ... : ... .. . ... : ... .. . ... : ... .. . ... : ... .. . ...
ROW 14 : ... .. . ... : ... .. . ... : ... .. . ... : ... .. . ... : ... .. . ...
ROW 15 : ... .. . ... : ... .. . ... : ... .. . ... : ... .. . ... : ... .. . ...
ROW 16 : ... .. . ... : ... .. . ... : ... .. . ... : ... .. . ... : ... .. . ...
ROW 17 : ... .. . ... : ... .. . ... : ... .. . ... : ... .. . ... : ... .. . ...
ROW 18 : ... .. . ... : ... .. . ... : ... .. . ... : ... .. . ... : ... .. . ...
ROW 19 : ... .. . ... : ... .. . ... : ... .. . ... : ... .. . ... : ... .. . ...
ROW 1A : ... .. . ... : ... .. . ... : ... .. . ... : ... .. . ... : ... .. . ...
ROW 1B : ... .. . ... : ... .. . ... : ... .. . ... : ... .. . ... : ... .. . ...
ROW 1C : ... .. . ... : ... .. . ... : ... .. . ... : ... .. . ... : ... .. . ...
ROW 1D : ... .. . ... : ... .. . ... : ... .. . ... : ... .. . ... : ... .. . ...
ROW 1E : ... .. . ... : ... .. . ... : ... .. . ... : ... .. . ... : ... .. . ...
ROW 1F : ... .. . ... : ... .. . ... : ... .. . ... : ... .. . ... : ... .. . ...

PATTERN 01
ROW 00 : D#2 0E 9 ... : E-1 05 . ... : ... .. . ... : ... .. . ... : E-3 00 . ...
ROW 01 : ... .. . ... : ... .. . ... : ... .. . ... : ... .. . ... : ... .. . ...
ROW 02 : F#2 0E . ... : E-1 05 . ... : ... .. . ... : ... .. . ... : E-3 00 . ...
ROW 03 : ... .. . ... : ... .. . ... : ... .. . ... : ... .. . ... : ... .. . ...
ROW 04 : G#2 0E . ... : E-1 05 . ... : ... .. . ... : ... .. . ... : E-3 00 . ...
ROW 05 : ... .. . ... : ... .. . ... : ... .. . ... : ... .. . ... : ... .. . ...
ROW 06 : B-2 0E . ... : E-1 05 . ... : ... .. . ... : ... .. . ... : E-3 00 . ...
ROW 07 : ... .. . ... : ... .. . ... : ... .. . ... : ... .. . ... : ... .. . ...
ROW 08 : ... .. . ... : E-1 05 . ... : ... .. . ... : ... .. . ... : E-3 00 . ...
ROW 09 : ... .. . ... : ... .. . ... : ... .. . ... : ... .. . ... : ... .. . ...
ROW 0A : ... .. . ... : E-1 05 . ... : ... .. . ... : ... .. . ... : E-3 00 . ...
ROW 0B : ... .. . ... : ... .. . ... : ... .. . ... : ... .. . ... : ... .. . ...
ROW 0C : B-2 0E . ... : E-1 05 . ... : ... .. . ... : ... .. . ... : E-3 00 . ...
ROW 0D : ... .. . ... : ... .. . ... : ... .. . ... : ... .. . ... : ... .. . ...
ROW 0E : ... .. . ... : E-1 05 . ... : ... .. . ... : ... .. . ... : E-3 00 . ...
ROW 0F : ... .. . ... : ... .. . ... : ... .. . ... : ... .. . ... : ... .. . ...
ROW 10 : A#2 0E . ... : E-1 05 . ... : ... .. . ... : ... .. . ... : E-3 00 . ...
ROW 11 : ... .. . ... : ... .. . ... : ... .. . ... : ... .. . ... : ... .. . ...
ROW 12 : A#2 0E . ... : E-1 05 . ... : ... .. . ... : ... .. . ... : E-3 00 . ...
ROW 13 : ... .. . ... : ... .. . ... : ... .. . ... : ... .. . ... : ... .. . ...
ROW 14 : A#2 0E . ... : E-1 05 . ... : ... .. . ... : ... .. . ... : E-3 00 . ...
ROW 15 : ... .. . ... : ... .. . ... : ... .. . ... : ... .. . ... : ... .. . ...
ROW 16 : A#2 0E . ... : E-1 05 . ... : ... .. . ... : ... .. . ... : E-3 00 . ...
ROW 17 : ... .. . ... : ... .. . ... : ... .. . ... : ... .. . ... : ... .. . ...
ROW 18 : ... .. . ... : E-1 05 . ... : ... .. . ... : ... .. . ... : E-3 00 . ...
ROW 19 : ... .. . ... : ... .. . ... : ... .. . ... : ... .. . ... : ... .. . ...
ROW 1A : ... .. . ... : E-1 05 . ... : ... .. . ... : ... .. . ... : E-3 00 . ...
ROW 1B : ... .. . ... : ... .. . ... : ... .. . ... : ... .. . ... : ... .. . ...
ROW 1C : A#2 0E . ... : E-1 05 . ... : ... .. . ... : ... .. . ... : E-3 00 . ...
ROW 1D : ... .. . ... : ... .. . ... : ... .. . ... : ... .. . ... : ... .. . ...
ROW 1E : ... .. . ... : E-1 05 . ... : ... .. . ... : ... .. . ... : E-3 00 . ...
ROW 1F : ... .. . ... : ... .. . ... : ... .. . ... : ... .. . ... : ... .. . ...

PATTERN 02
ROW 00 : D#2 0E . ... : F#1 05 . ... : ... .. . ... : ... .. . ... : F#3 00 . ...
ROW 01 : ... .. . ... : ... .. . ... : ... .. . ... : ... .. . ... : ... .. . ...
ROW 02 : F#2 0E . ... : F#1 05 . ... : ... .. . ... : ... .. . ... : F#3 00 . ...
ROW 03 : ... .. . ... : ... .. . ... : ... .. . ... : ... .. . ... : ... .. . ...
ROW 04 : G#2 0E . ... : F#1 05 . ... : ... .. . ... : ... .. . ... : F#3 00 . ...
ROW 05 : ... .. . ... : ... .. . ... : ... .. . ... : ... .. . ... : ... .. . ...
ROW 06 : B-2 0E . ... : F#1 05 . ... : ... .. . ... : ... .. . ... : F#3 00 . ...
ROW 07 : ... .. . ... : ... .. . ... : ... .. . ... : ... .. . ... : ... .. . ...
ROW 08 : ... .. . ... : F#1 05 . ... : ... .. . ... : ... .. . ... : F#3 00 . ...
ROW 09 : ... .. . ... : ... .. . ... : ... .. . ... : ... .. . ... : ... .. . ...
ROW 0A : ... .. . ... : F#1 05 . ... : ... .. . ... : ... .. . ... : F#3 00 . ...
ROW 0B : ... .. . ... : ... .. . ... : ... .. . ... : ... .. . ... : ... .. . ...
ROW 0C : A#2 0E . ... : F#1 05 . ... : ... .. . ... : ... .. . ... : F#3 00 . ...
ROW 0D : ... .. . ... : ... .. . ... : ... .. . ... : ... .. . ... : ... .. . ...
ROW 0E : ... .. . ... : F#1 05 . ... : ... .. . ... : ... .. . ... : F#3 00 . ...
ROW 0F : ... .. . ... : ... .. . ... : ... .. . ... : ... .. . ... : ... .. . ...
ROW 10 : A#2 0E . ... : F#1 05 . ... : ... .. . ... : ... .. . ... : F#3 00 . ...
ROW 11 : ... .. . ... : ... .. . ... : ... .. . ... : ... .. . ... : ... .. . ...
ROW 12 : ... .. . ... : F#1 05 . ... : ... .. . ... : ... .. . ... : F#3 00 . ...
ROW 13 : ... .. . ... : ... .. . ... : ... .. . ... : ... .. . ... : ... .. . ...
ROW 14 : ... .. . ... : F#1 05 . ... : ... .. . ... : ... .. . ... : F#3 00 . ...
ROW 15 : ... .. . ... : ... .. . ... : ... .. . ... : ... .. . ... : ... .. . ...
ROW 16 : A#2 0E . ... : F#1 05 . ... : ... .. . ... : ... .. . ... : F#3 00 . ...
ROW 17 : ... .. . ... : ... .. . ... : ... .. . ... : ... .. . ... : ... .. . ...
ROW 18 : A#2 0E . ... : F#1 05 . ... : ... .. . ... : ... .. . ... : F#3 00 . ...
ROW 19 : ... .. . ... : ... .. . ... : ... .. . ... : ... .. . ... : ... .. . ...
ROW 1A : ... .. . ... : F#1 05 . ... : ... .. . ... : ... .. . ... : F#3 00 . ...
ROW 1B : ... .. . ... : ... .. . ... : ... .. . ... : ... .. . ... : ... .. . ...
ROW 1C : E-3 0E . ... : F#1 05 . ... : ... .. . ... : ... .. . ... : F#3 00 . ...
ROW 1D : ... .. . ... : ... .. . ... : ... .. . ... : ... .. . ... : ... .. . ...
ROW 1E : E-3 0E . ... : F#1 05 . ... : ... .. . ... : ... .. . ... : F#3 00 . ...
ROW 1F : ... .. . ... : ... .. . ... : ... .. . ... : ... .. . ... : ... .. . ...

PATTERN 03
ROW 00 : E-3 0E . ... : G#1 05 . ... : ... .. . ... : 0-# 07 . ... : G#3 00 . ...
ROW 01 : ... .. . ... : ... .. . ... : ... .. . ... : ... .. . ... : ... .. . ...
ROW 02 : ... .. . ... : G#1 05 . ... : ... .. . ... : E-# 09 . ... : G#3 00 . ...
ROW 03 : ... .. . ... : ... .. . ... : ... .. . ... : ... .. . ... : ... .. . ...
ROW 04 : ... .. . ... : G#1 05 . ... : ... .. . ... : C-# 09 . ... : G#3 00 . ...
ROW 05 : ... .. . ... : ... .. . ... : ... .. . ... : ... .. . ... : ... .. . ...
ROW 06 : D#3 0E . ... : G#1 05 . ... : ... .. . ... : E-# 09 . ... : G#3 00 . ...
ROW 07 : ... .. . ... : ... .. . ... : ... .. . ... : ... .. . ... : ... .. . ...
ROW 08 : ... .. . ... : G#1 05 . ... : ... .. . ... : 0-# 08 . ... : G#3 00 . ...
ROW 09 : ... .. . ... : ... .. . ... : ... .. . ... : ... .. . ... : ... .. . ...
ROW 0A : ... .. . ... : G#1 05 . ... : ... .. . ... : E-# 09 . ... : G#3 00 . ...
ROW 0B : ... .. . ... : ... .. . ... : ... .. . ... : ... .. . ... : ... .. . ...
ROW 0C : D#3 0E . ... : G#1 05 . ... : ... .. . ... : C-# 09 . ... : G#3 00 . ...
ROW 0D : ... .. . ... : ... .. . ... : ... .. . ... : ... .. . ... : ... .. . ...
ROW 0E : ... .. . ... : G#1 05 . ... : ... .. . ... : E-# 09 . ... : G#3 00 . ...
ROW 0F : ... .. . ... : ... .. . ... : ... .. . ... : ... .. . ... : ... .. . ...
ROW 10 : D#3 0E . ... : G#1 05 . ... : ... .. . ... : 0-# 07 . ... : G#3 00 . ...
ROW 11 : ... .. . ... : ... .. . ... : ... .. . ... : ... .. . ... : ... .. . ...
ROW 12 : ... .. . ... : G#1 05 . ... : ... .. . ... : E-# 09 . ... : G#3 00 . ...
ROW 13 : ... .. . ... : ... .. . ... : ... .. . ... : ... .. . ... : ... .. . ...
ROW 14 : ... .. . ... : G#1 05 . ... : ... .. . ... : C-# 09 . ... : G#3 00 . ...
ROW 15 : ... .. . ... : ... .. . ... : ... .. . ... : ... .. . ... : ... .. . ...
ROW 16 : G#2 0E . ... : G#1 05 . ... : ... .. . ... : E-# 09 . ... : G#3 00 . ...
ROW 17 : ... .. . ... : ... .. . ... : ... .. . ... : ... .. . ... : ... .. . ...
ROW 18 : ... .. . ... : G#1 05 . ... : ... .. . ... : 0-# 08 . ... : G#3 00 . ...
ROW 19 : ... .. . ... : ... .. . ... : ... .. . ... : ... .. . ... : ... .. . ...
ROW 1A : ... .. . ... : G#1 05 . ... : ... .. . ... : E-# 09 . ... : G#3 00 . ...
ROW 1B : ... .. . ... : ... .. . ... : ... .. . ... : ... .. . ... : ... .. . ...
ROW 1C : G#2 0E . ... : G#1 05 . ... : ... .. . ... : C-# 09 . ... : G#3 00 . ...
ROW 1D : ... .. . ... : ... .. . ... : ... .. . ... : ... .. . ... : ... .. . ...
ROW 1E : ... .. . ... : G#1 05 . ... : ... .. . ... : E-# 09 . ... : G#3 00 . ...
ROW 1F : ... .. . ... : ... .. . ... : ... .. . ... : ... .. . ... : ... .. . ...

PATTERN 04
ROW 00 : F#2 0E . ... : G#1 05 . ... : ... .. . ... : 0-# 07 . ... : E-5 00 . ...
ROW 01 : ... .. . ... : ... .. . ... : ... .. . ... : ... .. . ... : E-3 00 . ...
ROW 02 : ... .. . ... : G#1 05 . ... : ... .. . ... : E-# 09 . ... : E-3 00 . ...
ROW 03 : ... .. . ... : ... .. . ... : ... .. . ... : ... .. . ... : ... .. . ...
ROW 04 : ... .. . ... : G#1 05 . ... : ... .. . ... : C-# 09 . ... : E-3 00 . ...
ROW 05 : ... .. . ... : ... .. . ... : ... .. . ... : ... .. . ... : ... .. . ...
ROW 06 : F#2 0E . ... : G#1 05 . ... : ... .. . ... : E-# 09 . ... : E-3 00 . ...
ROW 07 : ... .. . ... : ... .. . ... : ... .. . ... : ... .. . ... : ... .. . ...
ROW 08 : ... .. . ... : G#1 05 . ... : ... .. . ... : 0-# 08 . ... : E-5 00 . ...
ROW 09 : ... .. . ... : ... .. . ... : ... .. . ... : ... .. . ... : E-3 00 . ...
ROW 0A : ... .. . ... : G#1 05 . ... : ... .. . ... : E-# 09 . ... : E-3 00 . ...
ROW 0B : ... .. . ... : ... .. . ... : ... .. . ... : ... .. . ... : ... .. . ...
ROW 0C : G#2 0E . ... : G#1 05 . ... : ... .. . ... : C-# 09 . ... : E-3 00 . ...
ROW 0D : ... .. . ... : ... .. . ... : ... .. . ... : ... .. . ... : ... .. . ...
ROW 0E : ... .. . ... : G#1 05 . ... : ... .. . ... : E-# 09 . ... : E-3 00 . ...
ROW 0F : ... .. . ... : ... .. . ... : ... .. . ... : ... .. . ... : ... .. . ...
ROW 10 : A#2 0E . ... : G#1 05 . ... : ... .. . ... : 0-# 07 . ... : E-5 00 . ...
ROW 11 : ... .. . ... : ... .. . ... : ... .. . ... : ... .. . ... : E-3 00 . ...
ROW 12 : ... .. . ... : G#1 05 . ... : ... .. . ... : E-# 09 . ... : E-3 00 . ...
ROW 13 : ... .. . ... : ... .. . ... : ... .. . ... : ... .. . ... : ... .. . ...
ROW 14 : B-2 0E . ... : G#1 05 . ... : ... .. . ... : 0-# 08 . ... : E-3 00 . ...
ROW 15 : ... .. . ... : ... .. . ... : ... .. . ... : ... .. . ... : ... .. . ...
ROW 16 : ... .. . ... : G#1 05 . ... : ... .. . ... : E-# 09 . ... : E-3 00 . ...
ROW 17 : ... .. . ... : ... .. . ... : ... .. . ... : ... .. . ... : ... .. . ...
ROW 18 : A#2 0E . ... : G#1 05 . ... : ... .. . ... : 0-# 08 . ... : E-5 00 . ...
ROW 19 : ... .. . ... : ... .. . ... : ... .. . ... : ... .. . ... : E-3 00 . ...
ROW 1A : ... .. . ... : G#1 05 . ... : ... .. . ... : E-# 09 . ... : E-3 00 . ...
ROW 1B : ... .. . ... : ... .. . ... : ... .. . ... : ... .. . ... : ... .. . ...
ROW 1C : B-2 0E . ... : G#1 05 . ... : ... .. . ... : 0-# 08 . ... : E-3 00 . ...
ROW 1D : ... .. . ... : ... .. . ... : ... .. . ... : ... .. . ... : ... .. . ...
ROW 1E : ... .. . ... : G#1 05 . ... : ... .. . ... : 0-# 08 . ... : E-3 00 . ...
ROW 1F : ... .. . ... : ... .. . ... : ... .. . ... : ... .. . ... : ... .. . ...

PATTERN 05
ROW 00 : D#3 0E . ... : E-1 05 . ... : ... .. . ... : ... .. . ... : E-5 00 . ...
ROW 01 : ... .. . ... : ... .. . ... : ... .. . ... : ... .. . ... : F#3 00 . ...
ROW 02 : ... .. . ... : E-1 05 . ... : ... .. . ... : ... .. . ... : F#3 00 . ...
ROW 03 : ... .. . ... : ... .. . ... : ... .. . ... : ... .. . ... : ... .. . ...
ROW 04 : ... .. . ... : E-1 05 . ... : ... .. . ... : ... .. . ... : F#3 00 . ...
ROW 05 : ... .. . ... : ... .. . ... : ... .. . ... : ... .. . ... : ... .. . ...
ROW 06 : D#3 0E . ... : E-1 05 . ... : ... .. . ... : ... .. . ... : F#3 00 . ...
ROW 07 : ... .. . ... : ... .. . ... : ... .. . ... : ... .. . ... : ... .. . ...
ROW 08 : ... .. . ... : E-1 05 . ... : ... .. . ... : ... .. . ... : E-5 00 . ...
ROW 09 : ... .. . ... : ... .. . ... : ... .. . ... : ... .. . ... : F#3 00 . ...
ROW 0A : ... .. . ... : E-1 05 . ... : ... .. . ... : ... .. . ... : F#3 00 . ...
ROW 0B : ... .. . ... : ... .. . ... : ... .. . ... : ... .. . ... : ... .. . ...
ROW 0C : A#2 0E . ... : E-1 05 . ... : ... .. . ... : ... .. . ... : F#3 00 . ...
ROW 0D : ... .. . ... : ... .. . ... : ... .. . ... : ... .. . ... : ... .. . ...
ROW 0E : ... .. . ... : E-1 05 . ... : ... .. . ... : ... .. . ... : F#3 00 . ...
ROW 0F : ... .. . ... : ... .. . ... : ... .. . ... : ... .. . ... : ... .. . ...
ROW 10 : B-2 0E . ... : E-1 05 . ... : ... .. . ... : ... .. . ... : E-5 00 . ...
ROW 11 : ... .. . ... : ... .. . ... : ... .. . ... : ... .. . ... : F#3 00 . ...
ROW 12 : ... .. . ... : E-1 05 . ... : ... .. . ... : ... .. . ... : F#3 00 . ...
ROW 13 : ... .. . ... : ... .. . ... : ... .. . ... : ... .. . ... : ... .. . ...
ROW 14 : ... .. . ... : E-1 05 . ... : ... .. . ... : ... .. . ... : F#3 00 . ...
ROW 15 : ... .. . ... : ... .. . ... : ... .. . ... : ... .. . ... : ... .. . ...
ROW 16 : B-2 0E . ... : E-1 05 . ... : ... .. . ... : ... .. . ... : F#3 00 . ...
ROW 17 : ... .. . ... : ... .. . ... : ... .. . ... : ... .. . ... : ... .. . ...
ROW 18 : ... .. . ... : E-1 05 . ... : ... .. . ... : ... .. . ... : E-5 00 . ...
ROW 19 : ... .. . ... : ... .. . ... : ... .. . ... : ... .. . ... : F#3 00 . ...
ROW 1A : ... .. . ... : E-1 05 . ... : ... .. . ... : ... .. . ... : F#3 00 . ...
ROW 1B : ... .. . ... : ... .. . ... : ... .. . ... : ... .. . ... : ... .. . ...
ROW 1C : F#3 0E . ... : E-1 05 . ... : ... .. . ... : ... .. . ... : F#3 00 . ...
ROW 1D : ... .. . ... : ... .. . ... : ... .. . ... : ... .. . ... : ... .. . ...
ROW 1E : ... .. . ... : E-1 05 . ... : ... .. . ... : ... .. . ... : F#3 00 . ...
ROW 1F : ... .. . ... : ... .. . ... : ... .. . ... : ... .. . ... : ... .. . ...

PATTERN 06
ROW 00 : D#3 0E . ... : C#1 05 . ... : ... .. . ... : ... .. . ... : E-5 00 . ...
ROW 01 : ... .. . ... : ... .. . ... : ... .. . ... : ... .. . ... : G#3 00 . ...
ROW 02 : ... .. . ... : C#1 05 . ... : ... .. . ... : ... .. . ... : G#3 00 . ...
ROW 03 : ... .. . ... : ... .. . ... : ... .. . ... : ... .. . ... : ... .. . ...
ROW 04 : ... .. . ... : C#1 05 . ... : ... .. . ... : ... .. . ... : G#3 00 . ...
ROW 05 : ... .. . ... : ... .. . ... : ... .. . ... : ... .. . ... : ... .. . ...
ROW 06 : D#3 0E . ... : C#1 05 . ... : ... .. . ... : ... .. . ... : G#3 00 . ...
ROW 07 : ... .. . ... : ... .. . ... : ... .. . ... : ... .. . ... : ... .. . ...
ROW 08 : ... .. . ... : C#1 05 . ... : ... .. . ... : ... .. . ... : E-5 00 . ...
ROW 09 : ... .. . ... : ... .. . ... : ... .. . ... : ... .. . ... : G#3 00 . ...
ROW 0A : ... .. . ... : C#1 05 . ... : ... .. . ... : ... .. . ... : G#3 00 . ...
ROW 0B : ... .. . ... : ... .. . ... : ... .. . ... : ... .. . ... : ... .. . ...
ROW 0C : A#2 0E . ... : C#1 05 . ... : ... .. . ... : ... .. . ... : G#3 00 . ...
ROW 0D : ... .. . ... : ... .. . ... : ... .. . ... : ... .. . ... : ... .. . ...
ROW 0E : ... .. . ... : C#1 05 . ... : ... .. . ... : ... .. . ... : G#3 00 . ...
ROW 0F : ... .. . ... : ... .. . ... : ... .. . ... : ... .. . ... : ... .. . ...
ROW 10 : B-2 0E . ... : C#1 05 . ... : ... .. . ... : ... .. . ... : E-5 00 . ...
ROW 11 : ... .. . ... : ... .. . ... : ... .. . ... : ... .. . ... : G#3 00 . ...
ROW 12 : ... .. . ... : C#1 05 . ... : ... .. . ... : ... .. . ... : G#3 00 . ...
ROW 13 : ... .. . ... : ... .. . ... : ... .. . ... : ... .. . ... : ... .. . ...
ROW 14 : ... .. . ... : C#1 05 . ... : ... .. . ... : ... .. . ... : G#3 00 . ...
ROW 15 : ... .. . ... : ... .. . ... : ... .. . ... : ... .. . ... : ... .. . ...
ROW 16 : B-2 0E . ... : C#1 05 . ... : ... .. . ... : ... .. . ... : G#3 00 . ...
ROW 17 : ... .. . ... : ... .. . ... : ... .. . ... : ... .. . ... : ... .. . ...
ROW 18 : ... .. . ... : C#1 05 . ... : ... .. . ... : ... .. . ... : E-5 00 . ...
ROW 19 : ... .. . ... : ... .. . ... : ... .. . ... : ... .. . ... : G#3 00 . ...
ROW 1A : ... .. . ... : C#1 05 . ... : ... .. . ... : ... .. . ... : G#3 00 . ...
ROW 1B : ... .. . ... : ... .. . ... : ... .. . ... : ... .. . ... : ... .. . ...
ROW 1C : D#3 0E . ... : C#1 05 . ... : ... .. . ... : ... .. . ... : G#3 00 . ...
ROW 1D : ... .. . ... : ... .. . ... : ... .. . ... : ... .. . ... : ... .. . ...
ROW 1E : F#3 0E . ... : C#1 05 . ... : ... .. . ... : ... .. . ... : G#3 00 . ...
ROW 1F : ... .. . ... : ... .. . ... : ... .. . ... : ... .. . ... : ... .. . ...

PATTERN 07
ROW 00 : G#3 0E . ... : D#1 05 . ... : ... .. . ... : ... .. . ... : E-5 00 . ...
ROW 01 : ... .. . ... : ... .. . ... : ... .. . ... : ... .. . ... : G#3 00 . ...
ROW 02 : ... .. . ... : D#1 05 . ... : ... .. . ... : ... .. . ... : E-5 00 . ...
ROW 03 : ... .. . ... : ... .. . ... : ... .. . ... : ... .. . ... : G#3 00 . ...
ROW 04 : ... .. . ... : D#1 05 . ... : ... .. . ... : ... .. . ... : E-5 00 . ...
ROW 05 : ... .. . ... : ... .. . ... : ... .. . ... : ... .. . ... : G#3 00 . ...
ROW 06 : G#3 0E . ... : D#1 05 . ... : ... .. . ... : ... .. . ... : E-5 00 . ...
ROW 07 : ... .. . ... : ... .. . ... : ... .. . ... : ... .. . ... : E-5 00 . ...
ROW 08 : ... .. . ... : D#1 05 . ... : ... .. . ... : ... .. . ... : E-5 00 . ...
ROW 09 : ... .. . ... : ... .. . ... : ... .. . ... : ... .. . ... : G#3 00 . ...
ROW 0A : ... .. . ... : D#1 05 . ... : ... .. . ... : ... .. . ... : E-5 00 . ...
ROW 0B : ... .. . ... : ... .. . ... : ... .. . ... : ... .. . ... : G#3 00 . ...
ROW 0C : F#3 0E . ... : D#1 05 . ... : ... .. . ... : ... .. . ... : E-5 00 . ...
ROW 0D : ... .. . ... : ... .. . ... : ... .. . ... : ... .. . ... : G#3 00 . ...
ROW 0E : ... .. . ... : D#1 05 . ... : ... .. . ... : ... .. . ... : E-5 00 . ...
ROW 0F : ... .. . ... : ... .. . ... : ... .. . ... : ... .. . ... : E-5 00 . ...
ROW 10 : B-2 0E . ... : D#1 05 . ... : ... .. . ... : ... .. . ... : E-5 00 . ...
ROW 11 : ... .. . ... : ... .. . ... : ... .. . ... : ... .. . ... : G#3 00 . ...
ROW 12 : ... .. . ... : D#1 05 . ... : ... .. . ... : ... .. . ... : E-5 00 . ...
ROW 13 : ... .. . ... : ... .. . ... : ... .. . ... : ... .. . ... : G#3 00 . ...
ROW 14 : ... .. . ... : D#1 05 . ... : ... .. . ... : ... .. . ... : E-5 00 . ...
ROW 15 : ... .. . ... : ... .. . ... : ... .. . ... : ... .. . ... : G#3 00 . ...
ROW 16 : B-2 0E . ... : D#1 05 . ... : ... .. . ... : ... .. . ... : E-5 00 . ...
ROW 17 : ... .. . ... : ... .. . ... : ... .. . ... : ... .. . ... : E-5 00 . ...
ROW 18 : ... .. . ... : D#1 05 . ... : ... .. . ... : ... .. . ... : E-5 00 . ...
ROW 19 : ... .. . ... : ... .. . ... : ... .. . ... : ... .. . ... : G#3 00 . ...
ROW 1A : ... .. . ... : D#1 05 . ... : ... .. . ... : ... .. . ... : E-5 00 . ...
ROW 1B : ... .. . ... : ... .. . ... : ... .. . ... : ... .. . ... : G#3 00 . ...
ROW 1C : A#2 0E . ... : D#1 05 . ... : ... .. . ... : ... .. . ... : E-5 00 . ...
ROW 1D : ... .. . ... : ... .. . ... : ... .. . ... : ... .. . ... : G#3 00 . ...
ROW 1E : B-2 0E . ... : D#1 05 . ... : ... .. . ... : ... .. . ... : E-5 00 . ...
ROW 1F : ... .. . ... : ... .. . ... : ... .. . ... : ... .. . ... : E-5 00 . ...

PATTERN 08
ROW 00 : G#3 0E . ... : ... .. . ... : ... .. . ... : ... .. . ... : G-5 00 . ...
ROW 01 : ... .. . ... : ... .. . ... : ... .. . ... : ... .. . ... : G-5 00 . ...
ROW 02 : ... .. . ... : ... .. . ... : ... .. . ... : ... .. . ... : G-5 00 . ...
ROW 03 : ... .. . ... : ... .. . ... : ... .. . ... : ... .. . ... : G-5 00 . ...
ROW 04 : ... .. . ... : ... .. . ... : ... .. . ... : ... .. . ... : G-5 00 . ...
ROW 05 : ... .. . ... : ... .. . ... : ... .. . ... : ... .. . ... : G-5 00 . ...
ROW 06 : G#3 0E . ... : ... .. . ... : ... .. . ... : ... .. . ... : G-5 00 . ...
ROW 07 : ... .. . ... : ... .. . ... : ... .. . ... : ... .. . ... : G-5 00 . ...
ROW 08 : ... .. . ... : ... .. . ... : ... .. . ... : ... .. . ... : G-5 00 . ...
ROW 09 : ... .. . ... : ... .. . ... : ... .. . ... : ... .. . ... : G-5 00 . ...
ROW 0A : ... .. . ... : ... .. . ... : ... .. . ... : ... .. . ... : G-5 00 . ...
ROW 0B : ... .. . ... : ... .. . ... : ... .. . ... : ... .. . ... : G-5 00 . ...
ROW 0C : F#3 0E . ... : ... .. . ... : ... .. . ... : ... .. . ... : G-5 00 . ...
ROW 0D : ... .. . ... : ... .. . ... : ... .. . ... : ... .. . ... : G-5 00 . ...
ROW 0E : ... .. . ... : ... .. . ... : ... .. . ... : ... .. . ... : G-5 00 . ...
ROW 0F : ... .. . ... : ... .. . ... : ... .. . ... : ... .. . ... : G-5 00 . ...
ROW 10 : B-2 0E . ... : ... .. . ... : ... .. . ... : ... .. . ... : G-5 00 . ...
ROW 11 : ... .. . ... : ... .. . ... : ... .. . ... : ... .. . ... : G-5 00 . ...
ROW 12 : ... .. . ... : ... .. . ... : ... .. . ... : ... .. . ... : G-5 00 . ...
ROW 13 : ... .. . ... : ... .. . ... : ... .. . ... : ... .. . ... : G-5 00 . ...
ROW 14 : ... .. . ... : ... .. . ... : ... .. . ... : ... .. . ... : G-5 00 . ...
ROW 15 : ... .. . ... : ... .. . ... : ... .. . ... : ... .. . ... : G-5 00 . ...
ROW 16 : B-2 0E . ... : ... .. . ... : ... .. . ... : ... .. . ... : G-5 00 . ...
ROW 17 : ... .. . ... : ... .. . ... : ... .. . ... : ... .. . ... : G-5 00 . ...
ROW 18 : ... .. . ... : ... .. . ... : ... .. . ... : ... .. . ... : G-5 00 . ...
ROW 19 : ... .. . ... : ... .. . ... : ... .. . ... : ... .. . ... : G-5 00 . ...
ROW 1A : ... .. . ... : ... .. . ... : ... .. . ... : ... .. . ... : G-5 00 . ...
ROW 1B : ... .. . ... : ... .. . ... : ... .. . ... : ... .. . ... : G-5 00 . ...
ROW 1C : B-2 0E . ... : ... .. . ... : ... .. . ... : ... .. . ... : G-5 00 . ...
ROW 1D : ... .. . ... : ... .. . ... : ... .. . ... : ... .. . ... : G-5 00 . ...
ROW 1E : D#3 0E . ... : ... .. . ... : ... .. . ... : ... .. . ... : G-5 00 . ...
ROW 1F : ... .. . ... : ... .. . ... : ... .. . ... : ... .. . ... : G-5 00 . ...

PATTERN 09
ROW 00 : E-3 0E . ... : ... .. . ... : ... .. . ... : ... .. . ... : E-5 00 . ...
ROW 01 : ... .. . ... : ... .. . ... : ... .. . ... : ... .. . ... : ... .. . ...
ROW 02 : ... .. . ... : ... .. . ... : ... .. . ... : ... .. . ... : G#3 00 . ...
ROW 03 : ... .. . ... : ... .. . ... : ... .. . ... : ... .. . ... : ... .. . ...
ROW 04 : ... .. . ... : ... .. . ... : ... .. . ... : ... .. . ... : G#3 00 . ...
ROW 05 : ... .. . ... : ... .. . ... : ... .. . ... : ... .. . ... : ... .. . ...
ROW 06 : E-3 0E . ... : ... .. . ... : ... .. . ... : ... .. . ... : G#3 00 . ...
ROW 07 : ... .. . ... : ... .. . ... : ... .. . ... : ... .. . ... : ... .. . ...
ROW 08 : ... .. . ... : ... .. . ... : ... .. . ... : ... .. . ... : F-5 00 . ...
ROW 09 : ... .. . ... : ... .. . ... : ... .. . ... : ... .. . ... : ... .. . ...
ROW 0A : ... .. . ... : ... .. . ... : ... .. . ... : ... .. . ... : G#3 00 . ...
ROW 0B : ... .. . ... : ... .. . ... : ... .. . ... : ... .. . ... : ... .. . ...
ROW 0C : D#3 0E . ... : ... .. . ... : ... .. . ... : ... .. . ... : G#3 00 . ...
ROW 0D : ... .. . ... : ... .. . ... : ... .. . ... : ... .. . ... : ... .. . ...
ROW 0E : ... .. . ... : ... .. . ... : ... .. . ... : ... .. . ... : G#3 00 . ...
ROW 0F : ... .. . ... : ... .. . ... : ... .. . ... : ... .. . ... : ... .. . ...
ROW 10 : G#2 0E . ... : ... .. . ... : ... .. . ... : ... .. . ... : E-5 00 . ...
ROW 11 : ... .. . ... : ... .. . ... : ... .. . ... : ... .. . ... : ... .. . ...
ROW 12 : ... .. . ... : ... .. . ... : ... .. . ... : ... .. . ... : G#3 00 . ...
ROW 13 : ... .. . ... : ... .. . ... : ... .. . ... : ... .. . ... : ... .. . ...
ROW 14 : ... .. . ... : ... .. . ... : ... .. . ... : ... .. . ... : G#3 00 . ...
ROW 15 : ... .. . ... : ... .. . ... : ... .. . ... : ... .. . ... : ... .. . ...
ROW 16 : G#2 0E . ... : ... .. . ... : ... .. . ... : ... .. . ... : G#3 00 . ...
ROW 17 : ... .. . ... : ... .. . ... : ... .. . ... : ... .. . ... : ... .. . ...
ROW 18 : ... .. . ... : ... .. . ... : ... .. . ... : ... .. . ... : F-5 00 . ...
ROW 19 : ... .. . ... : ... .. . ... : ... .. . ... : ... .. . ... : ... .. . ...
ROW 1A : ... .. . ... : ... .. . ... : ... .. . ... : ... .. . ... : G#3 00 . ...
ROW 1B : ... .. . ... : ... .. . ... : ... .. . ... : ... .. . ... : ... .. . ...
ROW 1C : D#3 0E . ... : ... .. . ... : ... .. . ... : ... .. . ... : G#3 00 . ...
ROW 1D : ... .. . ... : ... .. . ... : ... .. . ... : ... .. . ... : ... .. . ...
ROW 1E : ... .. . ... : ... .. . ... : ... .. . ... : ... .. . ... : G#3 00 . ...
ROW 1F : ... .. . ... : ... .. . ... : ... .. . ... : ... .. . ... : ... .. . ...

PATTERN 0A
ROW 00 : E-3 0E . ... : ... .. . ... : ... .. . ... : ... .. . ... : E-5 00 . ...
ROW 01 : ... .. . ... : ... .. . ... : ... .. . ... : ... .. . ... : ... .. . ...
ROW 02 : ... .. . ... : ... .. . ... : ... .. . ... : ... .. . ... : G#3 00 . ...
ROW 03 : ... .. . ... : ... .. . ... : ... .. . ... : ... .. . ... : ... .. . ...
ROW 04 : ... .. . ... : ... .. . ... : ... .. . ... : ... .. . ... : G#3 00 . ...
ROW 05 : ... .. . ... : ... .. . ... : ... .. . ... : ... .. . ... : ... .. . ...
ROW 06 : E-3 0E . ... : ... .. . ... : ... .. . ... : ... .. . ... : G#3 00 . ...
ROW 07 : ... .. . ... : ... .. . ... : ... .. . ... : ... .. . ... : ... .. . ...
ROW 08 : ... .. . ... : ... .. . ... : ... .. . ... : ... .. . ... : F-5 00 . ...
ROW 09 : ... .. . ... : ... .. . ... : ... .. . ... : ... .. . ... : ... .. . ...
ROW 0A : ... .. . ... : ... .. . ... : ... .. . ... : ... .. . ... : G#3 00 . ...
ROW 0B : ... .. . ... : ... .. . ... : ... .. . ... : ... .. . ... : ... .. . ...
ROW 0C : D#3 0E . ... : ... .. . ... : ... .. . ... : ... .. . ... : G#3 00 . ...
ROW 0D : ... .. . ... : ... .. . ... : ... .. . ... : ... .. . ... : ... .. . ...
ROW 0E : ... .. . ... : ... .. . ... : ... .. . ... : ... .. . ... : G#3 00 . ...
ROW 0F : ... .. . ... : ... .. . ... : ... .. . ... : ... .. . ... : ... .. . ...
ROW 10 : G#3 0E . ... : ... .. . ... : ... .. . ... : ... .. . ... : E-5 00 . ...
ROW 11 : ... .. . ... : ... .. . ... : ... .. . ... : ... .. . ... : ... .. . ...
ROW 12 : ... .. . ... : ... .. . ... : ... .. . ... : ... .. . ... : G#3 00 . ...
ROW 13 : ... .. . ... : ... .. . ... : ... .. . ... : ... .. . ... : ... .. . ...
ROW 14 : ... .. . ... : ... .. . ... : ... .. . ... : ... .. . ... : F-5 00 . ...
ROW 15 : ... .. . ... : ... .. . ... : ... .. . ... : ... .. . ... : ... .. . ...
ROW 16 : G#3 0E . ... : ... .. . ... : ... .. . ... : ... .. . ... : G#3 00 . ...
ROW 17 : ... .. . ... : ... .. . ... : ... .. . ... : ... .. . ... : ... .. . ...
ROW 18 : ... .. . ... : ... .. . ... : ... .. . ... : ... .. . ... : F-5 00 . ...
ROW 19 : ... .. . ... : ... .. . ... : ... .. . ... : ... .. . ... : ... .. . ...
ROW 1A : ... .. . ... : ... .. . ... : ... .. . ... : ... .. . ... : G#3 00 . ...
ROW 1B : ... .. . ... : ... .. . ... : ... .. . ... : ... .. . ... : ... .. . ...
ROW 1C : D#3 0E . ... : ... .. . ... : ... .. . ... : ... .. . ... : F-5 00 . ...
ROW 1D : ... .. . ... : ... .. . ... : ... .. . ... : ... .. . ... : ... .. . ...
ROW 1E : ... .. . ... : ... .. . ... : ... .. . ... : ... .. . ... : F-5 00 . ...
ROW 1F : ... .. . ... : ... .. . ... : ... .. . ... : ... .. . ... : ... .. . ...

PATTERN 0B
ROW 00 : G#2 0E . ... : ... .. . ... : ... .. . ... : ... .. . ... : E-5 00 . ...
ROW 01 : ... .. . ... : ... .. . ... : ... .. . ... : ... .. . ... : ... .. . ...
ROW 02 : ... .. . ... : ... .. . ... : ... .. . ... : ... .. . ... : E-3 00 . ...
ROW 03 : ... .. . ... : ... .. . ... : ... .. . ... : ... .. . ... : ... .. . ...
ROW 04 : ... .. . ... : ... .. . ... : ... .. . ... : ... .. . ... : E-3 00 . ...
ROW 05 : ... .. . ... : ... .. . ... : ... .. . ... : ... .. . ... : ... .. . ...
ROW 06 : G#2 0E . ... : ... .. . ... : ... .. . ... : ... .. . ... : E-3 00 . ...
ROW 07 : ... .. . ... : ... .. . ... : ... .. . ... : ... .. . ... : ... .. . ...
ROW 08 : ... .. . ... : ... .. . ... : ... .. . ... : ... .. . ... : F-5 00 . ...
ROW 09 : ... .. . ... : ... .. . ... : ... .. . ... : ... .. . ... : ... .. . ...
ROW 0A : ... .. . ... : ... .. . ... : ... .. . ... : ... .. . ... : E-3 00 . ...
ROW 0B : ... .. . ... : ... .. . ... : ... .. . ... : ... .. . ... : ... .. . ...
ROW 0C : F#2 0E . ... : ... .. . ... : ... .. . ... : ... .. . ... : E-3 00 . ...
ROW 0D : ... .. . ... : ... .. . ... : ... .. . ... : ... .. . ... : ... .. . ...
ROW 0E : ... .. . ... : ... .. . ... : ... .. . ... : ... .. . ... : E-3 00 . ...
ROW 0F : ... .. . ... : ... .. . ... : ... .. . ... : ... .. . ... : ... .. . ...
ROW 10 : G#2 0E . ... : ... .. . ... : ... .. . ... : ... .. . ... : E-5 00 . ...
ROW 11 : ... .. . ... : ... .. . ... : ... .. . ... : ... .. . ... : ... .. . ...
ROW 12 : ... .. . ... : ... .. . ... : ... .. . ... : ... .. . ... : E-3 00 . ...
ROW 13 : ... .. . ... : ... .. . ... : ... .. . ... : ... .. . ... : ... .. . ...
ROW 14 : ... .. . ... : ... .. . ... : ... .. . ... : ... .. . ... : E-3 00 . ...
ROW 15 : ... .. . ... : ... .. . ... : ... .. . ... : ... .. . ... : ... .. . ...
ROW 16 : G#2 0E . ... : ... .. . ... : ... .. . ... : ... .. . ... : E-3 00 . ...
ROW 17 : ... .. . ... : ... .. . ... : ... .. . ... : ... .. . ... : ... .. . ...
ROW 18 : ... .. . ... : ... .. . ... : ... .. . ... : ... .. . ... : F-5 00 . ...
ROW 19 : ... .. . ... : ... .. . ... : ... .. . ... : ... .. . ... : ... .. . ...
ROW 1A : ... .. . ... : ... .. . ... : ... .. . ... : ... .. . ... : E-3 00 . ...
ROW 1B : ... .. . ... : ... .. . ... : ... .. . ... : ... .. . ... : ... .. . ...
ROW 1C : F#2 0E . ... : ... .. . ... : ... .. . ... : ... .. . ... : E-3 00 . ...
ROW 1D : ... .. . ... : ... .. . ... : ... .. . ... : ... .. . ... : ... .. . ...
ROW 1E : ... .. . ... : ... .. . ... : ... .. . ... : ... .. . ... : E-3 00 . ...
ROW 1F : ... .. . ... : ... .. . ... : ... .. . ... : ... .. . ... : ... .. . ...

PATTERN 0C
ROW 00 : A#2 0E . ... : ... .. . ... : ... .. . ... : ... .. . ... : E-5 00 . ...
ROW 01 : ... .. . ... : ... .. . ... : ... .. . ... : ... .. . ... : ... .. . ...
ROW 02 : ... .. . ... : ... .. . ... : ... .. . ... : ... .. . ... : E-3 00 . ...
ROW 03 : ... .. . ... : ... .. . ... : ... .. . ... : ... .. . ... : ... .. . ...
ROW 04 : ... .. . ... : ... .. . ... : ... .. . ... : ... .. . ... : E-3 00 . ...
ROW 05 : ... .. . ... : ... .. . ... : ... .. . ... : ... .. . ... : ... .. . ...
ROW 06 : A#2 0E . ... : ... .. . ... : ... .. . ... : ... .. . ... : E-3 00 . ...
ROW 07 : ... .. . ... : ... .. . ... : ... .. . ... : ... .. . ... : ... .. . ...
ROW 08 : ... .. . ... : ... .. . ... : ... .. . ... : ... .. . ... : F-5 00 . ...
ROW 09 : ... .. . ... : ... .. . ... : ... .. . ... : ... .. . ... : ... .. . ...
ROW 0A : ... .. . ... : ... .. . ... : ... .. . ... : ... .. . ... : E-3 00 . ...
ROW 0B : ... .. . ... : ... .. . ... : ... .. . ... : ... .. . ... : ... .. . ...
ROW 0C : G#2 0E . ... : ... .. . ... : ... .. . ... : ... .. . ... : E-3 00 . ...
ROW 0D : ... .. . ... : ... .. . ... : ... .. . ... : ... .. . ... : ... .. . ...
ROW 0E : ... .. . ... : ... .. . ... : ... .. . ... : ... .. . ... : E-3 00 . ...
ROW 0F : ... .. . ... : ... .. . ... : ... .. . ... : ... .. . ... : ... .. . ...
ROW 10 : A#2 0E . ... : ... .. . ... : ... .. . ... : ... .. . ... : E-5 00 . ...
ROW 11 : ... .. . ... : ... .. . ... : ... .. . ... : ... .. . ... : ... .. . ...
ROW 12 : ... .. . ... : ... .. . ... : ... .. . ... : ... .. . ... : E-3 00 . ...
ROW 13 : ... .. . ... : ... .. . ... : ... .. . ... : ... .. . ... : ... .. . ...
ROW 14 : B-3 0E . ... : ... .. . ... : ... .. . ... : ... .. . ... : F-5 00 . ...
ROW 15 : ... .. . ... : ... .. . ... : ... .. . ... : ... .. . ... : ... .. . ...
ROW 16 : A#3 0E . ... : ... .. . ... : ... .. . ... : ... .. . ... : E-3 00 . ...
ROW 17 : ... .. . ... : ... .. . ... : ... .. . ... : ... .. . ... : ... .. . ...
ROW 18 : ... .. . ... : ... .. . ... : ... .. . ... : ... .. . ... : F-5 00 . ...
ROW 19 : ... .. . ... : ... .. . ... : ... .. . ... : ... .. . ... : ... .. . ...
ROW 1A : G#3 0E . ... : ... .. . ... : ... .. . ... : ... .. . ... : E-3 00 . ...
ROW 1B : ... .. . ... : ... .. . ... : ... .. . ... : ... .. . ... : ... .. . ...
ROW 1C : G-3 0E . ... : ... .. . ... : ... .. . ... : ... .. . ... : F-5 00 . ...
ROW 1D : ... .. . ... : ... .. . ... : ... .. . ... : ... .. . ... : ... .. . ...
ROW 1E : ... .. . ... : ... .. . ... : ... .. . ... : ... .. . ... : F-5 00 . ...
ROW 1F : ... .. . V03 : ... .. . ... : ... .. . ... : ... .. . ... : ... .. . ...

PATTERN 0D
ROW 00 : ... .. . ... : ... .. . ... : ... .. . ... : ... .. . ... : E-5 00 . ...
ROW 01 : ... .. . ... : ... .. . ... : ... .. . ... : ... .. . ... : ... .. . ...
ROW 02 : ... .. . ... : ... .. . ... : ... .. . ... : ... .. . ... : C#3 00 . ...
ROW 03 : ... .. . ... : ... .. . ... : ... .. . ... : ... .. . ... : ... .. . ...
ROW 04 : ... .. . ... : ... .. . ... : ... .. . ... : ... .. . ... : C#3 00 . ...
ROW 05 : ... .. . ... : ... .. . ... : ... .. . ... : ... .. . ... : ... .. . ...
ROW 06 : ... .. . ... : ... .. . ... : ... .. . ... : ... .. . ... : C#3 00 . ...
ROW 07 : ... .. . ... : ... .. . ... : ... .. . ... : ... .. . ... : ... .. . ...
ROW 08 : ... .. . ... : ... .. . ... : ... .. . ... : ... .. . ... : F-5 00 . ...
ROW 09 : ... .. . ... : ... .. . ... : ... .. . ... : ... .. . ... : ... .. . ...
ROW 0A : ... .. . ... : ... .. . ... : ... .. . ... : ... .. . ... : C#3 00 . ...
ROW 0B : ... .. . ... : ... .. . ... : ... .. . ... : ... .. . ... : ... .. . ...
ROW 0C : ... .. . ... : ... .. . ... : ... .. . ... : ... .. . ... : C#3 00 . ...
ROW 0D : ... .. . ... : ... .. . ... : ... .. . ... : ... .. . ... : ... .. . ...
ROW 0E : ... .. . ... : ... .. . ... : ... .. . ... : ... .. . ... : C#3 00 . ...
ROW 0F : ... .. . ... : ... .. . ... : ... .. . ... : ... .. . ... : ... .. . ...
ROW 10 : ... .. . ... : ... .. . ... : ... .. . ... : ... .. . ... : E-5 00 . ...
ROW 11 : ... .. . ... : ... .. . ... : ... .. . ... : ... .. . ... : ... .. . ...
ROW 12 : ... .. . ... : ... .. . ... : ... .. . ... : ... .. . ... : C#3 00 . ...
ROW 13 : ... .. . ... : ... .. . ... : ... .. . ... : ... .. . ... : ... .. . ...
ROW 14 : ... .. . ... : ... .. . ... : ... .. . ... : ... .. . ... : C#3 00 . ...
ROW 15 : ... .. . ... : ... .. . ... : ... .. . ... : ... .. . ... : ... .. . ...
ROW 16 : ... .. . ... : ... .. . ... : ... .. . ... : ... .. . ... : C#3 00 . ...
ROW 17 : ... .. . ... : ... .. . ... : ... .. . ... : ... .. . ... : ... .. . ...
ROW 18 : ... .. . ... : ... .. . ... : ... .. . ... : ... .. . ... : F-5 00 . ...
ROW 19 : ... .. . ... : ... .. . ... : ... .. . ... : ... .. . ... : ... .. . ...
ROW 1A : ... .. . ... : ... .. . ... : ... .. . ... : ... .. . ... : C#3 00 . ...
ROW 1B : ... .. . ... : ... .. . ... : ... .. . ... : ... .. . ... : ... .. . ...
ROW 1C : ... .. . ... : ... .. . ... : ... .. . ... : ... .. . ... : C#3 00 . ...
ROW 1D : ... .. . ... : ... .. . ... : ... .. . ... : ... .. . ... : ... .. . ...
ROW 1E : ... .. . ... : ... .. . ... : ... .. . ... : ... .. . ... : C#3 00 . ...
ROW 1F : ... .. . ... : ... .. . ... : ... .. . ... : ... .. . ... : ... .. . ...

PATTERN 0E
ROW 00 : ... .. . ... : ... .. . ... : ... .. . ... : ... .. . ... : E-5 00 . ...
ROW 01 : ... .. . ... : ... .. . ... : ... .. . ... : ... .. . ... : ... .. . ...
ROW 02 : ... .. . ... : ... .. . ... : ... .. . ... : ... .. . ... : C#3 00 . ...
ROW 03 : ... .. . ... : ... .. . ... : ... .. . ... : ... .. . ... : ... .. . ...
ROW 04 : ... .. . ... : ... .. . ... : ... .. . ... : ... .. . ... : C#3 00 . ...
ROW 05 : ... .. . ... : ... .. . ... : ... .. . ... : ... .. . ... : ... .. . ...
ROW 06 : ... .. . ... : ... .. . ... : ... .. . ... : ... .. . ... : C#3 00 . ...
ROW 07 : ... .. . ... : ... .. . ... : ... .. . ... : ... .. . ... : ... .. . ...
ROW 08 : ... .. . ... : ... .. . ... : ... .. . ... : ... .. . ... : F-5 00 . ...
ROW 09 : ... .. . ... : ... .. . ... : ... .. . ... : ... .. . ... : ... .. . ...
ROW 0A : ... .. . ... : ... .. . ... : ... .. . ... : ... .. . ... : C#3 00 . ...
ROW 0B : ... .. . ... : ... .. . ... : ... .. . ... : ... .. . ... : ... .. . ...
ROW 0C : ... .. . ... : ... .. . ... : ... .. . ... : ... .. . ... : C#3 00 . ...
ROW 0D : ... .. . ... : ... .. . ... : ... .. . ... : ... .. . ... : ... .. . ...
ROW 0E : ... .. . ... : ... .. . ... : ... .. . ... : ... .. . ... : C#3 00 . ...
ROW 0F : ... .. . ... : ... .. . ... : ... .. . ... : ... .. . ... : ... .. . ...
ROW 10 : ... .. . ... : ... .. . ... : ... .. . ... : ... .. . ... : E-5 00 . ...
ROW 11 : ... .. . ... : ... .. . ... : ... .. . ... : ... .. . ... : ... .. . ...
ROW 12 : ... .. . ... : ... .. . ... : ... .. . ... : ... .. . ... : C#3 00 . ...
ROW 13 : ... .. . ... : ... .. . ... : ... .. . ... : ... .. . ... : ... .. . ...
ROW 14 : ... .. . ... : ... .. . ... : ... .. . ... : ... .. . ... : F-5 00 . ...
ROW 15 : ... .. . ... : ... .. . ... : ... .. . ... : ... .. . ... : ... .. . ...
ROW 16 : ... .. . ... : ... .. . ... : ... .. . ... : ... .. . ... : C#3 00 . ...
ROW 17 : ... .. . ... : ... .. . ... : ... .. . ... : ... .. . ... : ... .. . ...
ROW 18 : ... .. . ... : ... .. . ... : ... .. . ... : ... .. . ... : F-5 00 . ...
ROW 19 : ... .. . ... : ... .. . ... : ... .. . ... : ... .. . ... : ... .. . ...
ROW 1A : ... .. . ... : ... .. . ... : ... .. . ... : ... .. . ... : C#3 00 . ...
ROW 1B : ... .. . ... : ... .. . ... : ... .. . ... : ... .. . ... : ... .. . ...
ROW 1C : ... .. . ... : ... .. . ... : ... .. . ... : ... .. . ... : F-5 00 . ...
ROW 1D : ... .. . ... : ... .. . ... : ... .. . ... : ... .. . ... : ... .. . ...
ROW 1E : ... .. . ... : ... .. . ... : ... .. . ... : ... .. . ... : F-5 00 . ...
ROW 1F : ... .. . ... : ... .. . ... : ... .. . ... : ... .. . ... : ... .. . ...

PATTERN 0F
ROW 00 : ... .. . ... : ... .. . ... : ... .. . ... : ... .. . ... : E-5 00 . ...
ROW 01 : ... .. . ... : ... .. . ... : ... .. . ... : ... .. . ... : ... .. . ...
ROW 02 : ... .. . ... : ... .. . ... : ... .. . ... : ... .. . ... : D#3 00 . ...
ROW 03 : ... .. . ... : ... .. . ... : ... .. . ... : ... .. . ... : ... .. . ...
ROW 04 : ... .. . ... : ... .. . ... : ... .. . ... : ... .. . ... : D#3 00 . ...
ROW 05 : ... .. . ... : ... .. . ... : ... .. . ... : ... .. . ... : ... .. . ...
ROW 06 : ... .. . ... : ... .. . ... : ... .. . ... : ... .. . ... : D#3 00 . ...
ROW 07 : ... .. . ... : ... .. . ... : ... .. . ... : ... .. . ... : ... .. . ...
ROW 08 : ... .. . ... : ... .. . ... : ... .. . ... : ... .. . ... : F-5 00 . ...
ROW 09 : ... .. . ... : ... .. . ... : ... .. . ... : ... .. . ... : ... .. . ...
ROW 0A : ... .. . ... : ... .. . ... : ... .. . ... : ... .. . ... : D#3 00 . ...
ROW 0B : ... .. . ... : ... .. . ... : ... .. . ... : ... .. . ... : ... .. . ...
ROW 0C : ... .. . ... : ... .. . ... : ... .. . ... : ... .. . ... : D#3 00 . ...
ROW 0D : ... .. . ... : ... .. . ... : ... .. . ... : ... .. . ... : ... .. . ...
ROW 0E : ... .. . ... : ... .. . ... : ... .. . ... : ... .. . ... : D#3 00 . ...
ROW 0F : ... .. . ... : ... .. . ... : ... .. . ... : ... .. . ... : ... .. . ...
ROW 10 : ... .. . ... : ... .. . ... : ... .. . ... : ... .. . ... : E-5 00 . ...
ROW 11 : ... .. . ... : ... .. . ... : ... .. . ... : ... .. . ... : ... .. . ...
ROW 12 : ... .. . ... : ... .. . ... : ... .. . ... : ... .. . ... : D#3 00 . ...
ROW 13 : ... .. . ... : ... .. . ... : ... .. . ... : ... .. . ... : ... .. . ...
ROW 14 : ... .. . ... : ... .. . ... : ... .. . ... : ... .. . ... : F-5 00 . ...
ROW 15 : ... .. . ... : ... .. . ... : ... .. . ... : ... .. . ... : ... .. . ...
ROW 16 : ... .. . ... : ... .. . ... : ... .. . ... : ... .. . ... : D#3 00 . ...
ROW 17 : ... .. . ... : ... .. . ... : ... .. . ... : ... .. . ... : ... .. . ...
ROW 18 : ... .. . ... : ... .. . ... : ... .. . ... : ... .. . ... : F-5 00 . ...
ROW 19 : ... .. . ... : ... .. . ... : ... .. . ... : ... .. . ... : ... .. . ...
ROW 1A : ... .. . ... : ... .. . ... : ... .. . ... : ... .. . ... : D#3 00 . ...
ROW 1B : ... .. . ... : ... .. . ... : ... .. . ... : ... .. . ... : ... .. . ...
ROW 1C : ... .. . ... : ... .. . ... : ... .. . ... : ... .. . ... : F-5 00 . ...
ROW 1D : ... .. . ... : ... .. . ... : ... .. . ... : ... .. . ... : ... .. . ...
ROW 1E : ... .. . ... : ... .. . ... : ... .. . ... : ... .. . ... : F-5 00 . ...
ROW 1F : ... .. . ... : ... .. . ... : ... .. . ... : ... .. . ... : ... .. . ...

PATTERN 10
ROW 00 : ... .. . ... : ... .. . ... : ... .. . ... : ... .. . ... : ... .. . C00
ROW 01 : ... .. . ... : ... .. . ... : ... .. . ... : ... .. . ... : ... .. . ...
ROW 02 : ... .. . ... : ... .. . ... : ... .. . ... : ... .. . ... : ... .. . ...
ROW 03 : ... .. . ... : ... .. . ... : ... .. . ... : ... .. . ... : ... .. . ...
ROW 04 : ... .. . ... : ... .. . ... : ... .. . ... : ... .. . ... : ... .. . ...
ROW 05 : ... .. . ... : ... .. . ... : ... .. . ... : ... .. . ... : ... .. . ...
ROW 06 : ... .. . ... : ... .. . ... : ... .. . ... : ... .. . ... : ... .. . ...
ROW 07 : ... .. . ... : ... .. . ... : ... .. . ... : ... .. . ... : ... .. . ...
ROW 08 : ... .. . ... : ... .. . ... : ... .. . ... : ... .. . ... : ... .. . ...
ROW 09 : ... .. . ... : ... .. . ... : ... .. . ... : ... .. . ... : ... .. . ...
ROW 0A : ... .. . ... : ... .. . ... : ... .. . ... : ... .. . ... : ... .. . ...
ROW 0B : ... .. . ... : ... .. . ... : ... .. . ... : ... .. . ... : ... .. . ...
ROW 0C : ... .. . ... : ... .. . ... : ... .. . ... : ... .. . ... : ... .. . ...
ROW 0D : ... .. . ... : ... .. . ... : ... .. . ... : ... .. . ... : ... .. . ...
ROW 0E : ... .. . ... : ... .. . ... : ... .. . ... : ... .. . ... : ... .. . ...
ROW 0F : ... .. . ... : ... .. . ... : ... .. . ... : ... .. . ... : ... .. . ...
ROW 10 : ... .. . ... : ... .. . ... : ... .. . ... : ... .. . ... : ... .. . ...
ROW 11 : ... .. . ... : ... .. . ... : ... .. . ... : ... .. . ... : ... .. . ...
ROW 12 : ... .. . ... : ... .. . ... : ... .. . ... : ... .. . ... : ... .. . ...
ROW 13 : ... .. . ... : ... .. . ... : ... .. . ... : ... .. . ... : ... .. . ...
ROW 14 : ... .. . ... : ... .. . ... : ... .. . ... : ... .. . ... : ... .. . ...
ROW 15 : ... .. . ... : ... .. . ... : ... .. . ... : ... .. . ... : ... .. . ...
ROW 16 : ... .. . ... : ... .. . ... : ... .. . ... : ... .. . ... : ... .. . ...
ROW 17 : ... .. . ... : ... .. . ... : ... .. . ... : ... .. . ... : ... .. . ...
ROW 18 : ... .. . ... : ... .. . ... : ... .. . ... : ... .. . ... : ... .. . ...
ROW 19 : ... .. . ... : ... .. . ... : ... .. . ... : ... .. . ... : ... .. . ...
ROW 1A : ... .. . ... : ... .. . ... : ... .. . ... : ... .. . ... : ... .. . ...
ROW 1B : ... .. . ... : ... .. . ... : ... .. . ... : ... .. . ... : ... .. . ...
ROW 1C : ... .. . ... : ... .. . ... : ... .. . ... : ... .. . ... : ... .. . ...
ROW 1D : ... .. . ... : ... .. . ... : ... .. . ... : ... .. . ... : ... .. . ...
ROW 1E : ... .. . ... : ... .. . ... : ... .. . ... : ... .. . ... : ... .. . ...
ROW 1F : ... .. . ... : ... .. . ... : ... .. . ... : ... .. . ... : ... .. . ...

TRACK  64   6 129 "Geometry Dash Menu Theme"
COLUMNS : 1 1 1 1 1

ORDER 00 : 01 01 00 01 01
ORDER 01 : 01 01 00 01 01
ORDER 02 : 01 01 00 01 01
ORDER 03 : 02 02 00 02 02

PATTERN 01
ROW 00 : C-3 02 . ... : C-1 0C . ... : ... .. . ... : 0-# 07 . ... : E-5 00 . ...
ROW 01 : ... .. . ... : ... .. . ... : ... .. . ... : F-# 09 . ... : ... .. . ...
ROW 02 : C-3 02 . ... : ... .. . ... : ... .. . ... : D-# 09 . ... : ... .. . ...
ROW 03 : ... .. . ... : ... .. . ... : ... .. . ... : F-# 09 . ... : ... .. . ...
ROW 04 : C-3 02 . ... : ... .. . ... : ... .. . ... : 0-# 08 . ... : F-5 00 . ...
ROW 05 : ... .. . ... : ... .. . ... : ... .. . ... : F-# 09 . ... : ... .. . ...
ROW 06 : C-3 02 . ... : ... .. . ... : ... .. . ... : D-# 09 . ... : ... .. . ...
ROW 07 : C-4 02 . ... : ... .. . ... : ... .. . ... : 0-# 07 . ... : E-5 00 . ...
ROW 08 : ... .. . ... : ... .. . ... : ... .. . ... : B-# 09 . ... : ... .. . ...
ROW 09 : ... .. . ... : ... .. . ... : ... .. . ... : 0-# 07 . ... : E-5 00 . ...
ROW 0A : ... .. . ... : ... .. . ... : ... .. . ... : 0-# 07 . ... : E-5 00 . ...
ROW 0B : ... .. . ... : ... .. . ... : ... .. . ... : F-# 09 . ... : ... .. . ...
ROW 0C : ... .. . ... : ... .. . ... : ... .. . ... : 0-# 08 . ... : F-5 00 . ...
ROW 0D : ... .. . ... : ... .. . ... : ... .. . ... : F-# 09 . ... : ... .. . ...
ROW 0E : ... .. . ... : ... .. . ... : ... .. . ... : D-# 09 . ... : ... .. . ...
ROW 0F : ... .. . ... : ... .. . ... : ... .. . ... : F-# 09 . ... : ... .. . ...
ROW 10 : G-3 02 . ... : G-1 0C . ... : ... .. . ... : 0-# 07 . ... : E-5 00 . ...
ROW 11 : ... .. . ... : ... .. . ... : ... .. . ... : F-# 09 . ... : ... .. . ...
ROW 12 : G-3 02 . ... : ... .. . ... : ... .. . ... : 0-# 07 . ... : E-5 00 . ...
ROW 13 : ... .. . ... : ... .. . ... : ... .. . ... : F-# 09 . ... : ... .. . ...
ROW 14 : G-3 02 . ... : ... .. . ... : ... .. . ... : 0-# 08 . ... : F-5 00 . ...
ROW 15 : ... .. . ... : ... .. . ... : ... .. . ... : F-# 09 . ... : ... .. . ...
ROW 16 : G-3 02 . ... : ... .. . ... : ... .. . ... : 0-# 07 . ... : E-5 00 . ...
ROW 17 : G-4 02 . ... : ... .. . ... : ... .. . ... : 0-# 08 . ... : F-5 00 . ...
ROW 18 : ... .. . ... : ... .. . ... : ... .. . ... : B-# 09 . ... : ... .. . ...
ROW 19 : ... .. . ... : ... .. . ... : ... .. . ... : 0-# 07 . ... : E-5 00 . ...
ROW 1A : ... .. . ... : ... .. . ... : ... .. . ... : 0-# 07 . ... : E-5 00 . ...
ROW 1B : ... .. . ... : ... .. . ... : ... .. . ... : F-# 09 . ... : ... .. . ...
ROW 1C : ... .. . ... : ... .. . ... : ... .. . ... : 0-# 08 . ... : F-5 00 . ...
ROW 1D : ... .. . ... : ... .. . ... : ... .. . ... : 2-# 08 . ... : F-5 00 . ...
ROW 1E : ... .. . ... : ... .. . ... : ... .. . ... : 2-# 08 . ... : F-5 00 . ...
ROW 1F : ... .. . ... : ... .. . ... : ... .. . ... : 2-# 08 . ... : F-5 00 . ...
ROW 20 : F-3 02 . ... : F-1 0C . ... : ... .. . ... : 0-# 07 . ... : E-5 00 . ...
ROW 21 : ... .. . ... : ... .. . ... : ... .. . ... : F-# 09 . ... : ... .. . ...
ROW 22 : F-3 02 . ... : ... .. . ... : ... .. . ... : D-# 09 . ... : ... .. . ...
ROW 23 : ... .. . ... : ... .. . ... : ... .. . ... : F-# 09 . ... : ... .. . ...
ROW 24 : F-3 02 . ... : ... .. . ... : ... .. . ... : 0-# 08 . ... : F-5 00 . ...
ROW 25 : ... .. . ... : ... .. . ... : ... .. . ... : F-# 09 . ... : ... .. . ...
ROW 26 : F-3 02 . ... : ... .. . ... : ... .. . ... : D-# 09 . ... : ... .. . ...
ROW 27 : F-4 02 . ... : ... .. . ... : ... .. . ... : 0-# 07 . ... : E-5 00 . ...
ROW 28 : ... .. . ... : ... .. . ... : ... .. . ... : B-# 09 . ... : ... .. . ...
ROW 29 : ... .. . ... : ... .. . ... : ... .. . ... : 0-# 07 . ... : E-5 00 . ...
ROW 2A : ... .. . ... : ... .. . ... : ... .. . ... : 0-# 07 . ... : E-5 00 . ...
ROW 2B : ... .. . ... : ... .. . ... : ... .. . ... : F-# 09 . ... : ... .. . ...
ROW 2C : ... .. . ... : ... .. . ... : ... .. . ... : 0-# 08 . ... : F-5 00 . ...
ROW 2D : ... .. . ... : ... .. . ... : ... .. . ... : F-# 09 . ... : ... .. . ...
ROW 2E : ... .. . ... : ... .. . ... : ... .. . ... : D-# 09 . ... : ... .. . ...
ROW 2F : ... .. . ... : ... .. . ... : ... .. . ... : F-# 09 . ... : ... .. . ...
ROW 30 : D#3 02 . ... : D#1 0C . ... : ... .. . ... : 0-# 07 . ... : E-5 00 . ...
ROW 31 : ... .. . ... : ... .. . ... : ... .. . ... : F-# 09 . ... : ... .. . ...
ROW 32 : D#3 02 . ... : ... .. . ... : ... .. . ... : 0-# 07 . ... : E-5 00 . ...
ROW 33 : ... .. . ... : ... .. . ... : ... .. . ... : F-# 09 . ... : ... .. . ...
ROW 34 : D#3 02 . ... : ... .. . ... : ... .. . ... : 0-# 08 . ... : F-5 00 . ...
ROW 35 : ... .. . ... : ... .. . ... : ... .. . ... : F-# 09 . ... : ... .. . ...
ROW 36 : D#3 02 . ... : ... .. . ... : ... .. . ... : 0-# 07 . ... : E-5 00 . ...
ROW 37 : D#4 02 . ... : D-1 0C . ... : ... .. . ... : 0-# 08 . ... : F-5 00 . ...
ROW 38 : ... .. . ... : ... .. . ... : ... .. . ... : B-# 09 . ... : ... .. . ...
ROW 39 : ... .. . ... : ... .. . ... : ... .. . ... : 0-# 07 . ... : E-5 00 . ...
ROW 3A : D-3 02 . ... : ... .. . ... : ... .. . ... : 0-# 07 . ... : E-5 00 . ...
ROW 3B : ... .. . ... : ... .. . ... : ... .. . ... : F-# 09 . ... : ... .. . ...
ROW 3C : D-3 02 . ... : ... .. . ... : ... .. . ... : 0-# 08 . ... : F-5 00 . ...
ROW 3D : ... .. . ... : ... .. . ... : ... .. . ... : 2-# 08 . ... : F-5 00 . ...
ROW 3E : D-3 02 . ... : ... .. . ... : ... .. . ... : 2-# 08 . ... : F-5 00 . ...
ROW 3F : ... .. . ... : ... .. . ... : ... .. . ... : 2-# 08 . ... : F-5 00 . ...

PATTERN 02
ROW 00 : C-3 02 . ... : C-1 0C . ... : ... .. . ... : 0-# 07 . ... : E-5 00 . ...
ROW 01 : ... .. . ... : ... .. . ... : ... .. . ... : F-# 09 . ... : ... .. . ...
ROW 02 : C-3 02 . ... : ... .. . ... : ... .. . ... : D-# 09 . ... : ... .. . ...
ROW 03 : ... .. . ... : ... .. . ... : ... .. . ... : F-# 09 . ... : ... .. . ...
ROW 04 : C-3 02 . ... : ... .. . ... : ... .. . ... : 0-# 08 . ... : F-5 00 . ...
ROW 05 : ... .. . ... : ... .. . ... : ... .. . ... : F-# 09 . ... : ... .. . ...
ROW 06 : C-3 02 . ... : ... .. . ... : ... .. . ... : D-# 09 . ... : ... .. . ...
ROW 07 : C-4 02 . ... : ... .. . ... : ... .. . ... : 0-# 07 . ... : E-5 00 . ...
ROW 08 : ... .. . ... : ... .. . ... : ... .. . ... : B-# 09 . ... : ... .. . ...
ROW 09 : ... .. . ... : ... .. . ... : ... .. . ... : 0-# 07 . ... : E-5 00 . ...
ROW 0A : ... .. . ... : ... .. . ... : ... .. . ... : 0-# 07 . ... : E-5 00 . ...
ROW 0B : ... .. . ... : ... .. . ... : ... .. . ... : F-# 09 . ... : ... .. . ...
ROW 0C : ... .. . ... : ... .. . ... : ... .. . ... : 0-# 08 . ... : F-5 00 . ...
ROW 0D : ... .. . ... : ... .. . ... : ... .. . ... : F-# 09 . ... : ... .. . ...
ROW 0E : ... .. . ... : ... .. . ... : ... .. . ... : D-# 09 . ... : ... .. . ...
ROW 0F : ... .. . ... : ... .. . ... : ... .. . ... : F-# 09 . ... : ... .. . ...
ROW 10 : G-3 02 . ... : G-1 0C . ... : ... .. . ... : 0-# 07 . ... : E-5 00 . ...
ROW 11 : ... .. . ... : ... .. . ... : ... .. . ... : F-# 09 . ... : ... .. . ...
ROW 12 : G-3 02 . ... : ... .. . ... : ... .. . ... : 0-# 07 . ... : E-5 00 . ...
ROW 13 : ... .. . ... : ... .. . ... : ... .. . ... : F-# 09 . ... : ... .. . ...
ROW 14 : G-3 02 . ... : ... .. . ... : ... .. . ... : 0-# 08 . ... : F-5 00 . ...
ROW 15 : ... .. . ... : ... .. . ... : ... .. . ... : F-# 09 . ... : ... .. . ...
ROW 16 : G-3 02 . ... : ... .. . ... : ... .. . ... : 0-# 07 . ... : E-5 00 . ...
ROW 17 : G-4 02 . ... : ... .. . ... : ... .. . ... : 0-# 08 . ... : F-5 00 . ...
ROW 18 : ... .. . ... : ... .. . ... : ... .. . ... : B-# 09 . ... : ... .. . ...
ROW 19 : ... .. . ... : ... .. . ... : ... .. . ... : 0-# 07 . ... : E-5 00 . ...
ROW 1A : ... .. . ... : ... .. . ... : ... .. . ... : 0-# 07 . ... : E-5 00 . ...
ROW 1B : ... .. . ... : ... .. . ... : ... .. . ... : F-# 09 . ... : ... .. . ...
ROW 1C : ... .. . ... : ... .. . ... : ... .. . ... : 0-# 08 . ... : F-5 00 . ...
ROW 1D : ... .. . ... : ... .. . ... : ... .. . ... : 2-# 08 . ... : F-5 00 . ...
ROW 1E : ... .. . ... : ... .. . ... : ... .. . ... : 2-# 08 . ... : F-5 00 . ...
ROW 1F : ... .. . ... : ... .. . ... : ... .. . ... : 2-# 08 . ... : F-5 00 . ...
ROW 20 : D#3 02 . ... : D#1 0C . ... : ... .. . ... : 0-# 07 . ... : E-5 00 . ...
ROW 21 : ... .. . ... : ... .. . ... : ... .. . ... : F-# 09 . ... : ... .. . ...
ROW 22 : D#3 02 . ... : ... .. . ... : ... .. . ... : D-# 09 . ... : ... .. . ...
ROW 23 : ... .. . ... : ... .. . ... : ... .. . ... : F-# 09 . ... : ... .. . ...
ROW 24 : D#3 02 . ... : ... .. . ... : ... .. . ... : 0-# 08 . ... : F-5 00 . ...
ROW 25 : ... .. . ... : ... .. . ... : ... .. . ... : F-# 09 . ... : ... .. . ...
ROW 26 : D#3 02 . ... : ... .. . ... : ... .. . ... : D-# 09 . ... : ... .. . ...
ROW 27 : D#4 02 . ... : ... .. . ... : ... .. . ... : 0-# 07 . ... : E-5 00 . ...
ROW 28 : ... .. . ... : ... .. . ... : ... .. . ... : B-# 09 . ... : ... .. . ...
ROW 29 : ... .. . ... : ... .. . ... : ... .. . ... : 0-# 07 . ... : E-5 00 . ...
ROW 2A : ... .. . ... : ... .. . ... : ... .. . ... : 0-# 07 . ... : E-5 00 . ...
ROW 2B : ... .. . ... : ... .. . ... : ... .. . ... : F-# 09 . ... : ... .. . ...
ROW 2C : ... .. . ... : ... .. . ... : ... .. . ... : 0-# 08 . ... : F-5 00 . ...
ROW 2D : ... .. . ... : ... .. . ... : ... .. . ... : F-# 09 . ... : ... .. . ...
ROW 2E : ... .. . ... : ... .. . ... : ... .. . ... : D-# 09 . ... : ... .. . ...
ROW 2F : ... .. . ... : ... .. . ... : ... .. . ... : F-# 09 . ... : ... .. . ...
ROW 30 : ... .. . ... : D-1 0C . ... : ... .. . ... : 0-# 07 . ... : E-5 00 . ...
ROW 31 : ... .. . ... : ... .. . ... : ... .. . ... : ... .. . ... : ... .. . ...
ROW 32 : ... .. . ... : ... .. . ... : ... .. . ... : 0-# 07 . ... : E-5 00 . ...
ROW 33 : ... .. . ... : ... .. . ... : ... .. . ... : ... .. . ... : ... .. . ...
ROW 34 : ... .. . ... : ... .. . ... : ... .. . ... : ... .. . ... : ... .. . ...
ROW 35 : ... .. . ... : ... .. . ... : ... .. . ... : ... .. . ... : ... .. . ...
ROW 36 : ... .. . ... : ... .. . ... : ... .. . ... : 0-# 07 . ... : E-5 00 . ...
ROW 37 : ... .. . ... : ... .. . ... : ... .. . ... : ... .. . ... : ... .. . ...
ROW 38 : ... .. . ... : ... .. . ... : ... .. . ... : 0-# 07 . ... : E-5 00 . ...
ROW 39 : ... .. . ... : ... .. . ... : ... .. . ... : ... .. . ... : ... .. . ...
ROW 3A : ... .. . ... : ... .. . ... : ... .. . ... : ... .. . ... : ... .. . ...
ROW 3B : ... .. . ... : ... .. . ... : ... .. . ... : ... .. . ... : ... .. . ...
ROW 3C : ... .. . ... : ... .. . ... : ... .. . ... : C-# 0A . ... : E-5 00 . ...
ROW 3D : ... .. . ... : ... .. . ... : ... .. . ... : ... .. . ... : ... .. . ...
ROW 3E : ... .. . ... : ... .. . ... : ... .. . ... : C-# 0A . ... : E-5 00 . ...
ROW 3F : ... .. . ... : ... .. . ... : ... .. . ... : ... .. . ... : ... .. . ...

# End of export
