# FamiTracker text export 0.4.2

# Song information
TITLE           ""
AUTHOR          ""
COPYRIGHT       ""

# Song comment
COMMENT ""

# Global settings
MACHINE         0
FRAMERATE       0
EXPANSION       0
VIBRATO         1
SPLIT           32

# Macros
MACRO       0   0  -1  -1   0 : 3 6 5 5 4 4 3 3 2 2 2 1 1 1 1 0
MACRO       0   1  -1  -1   0 : 1 1 1 0 1 1 0
MACRO       0   2  -1  -1   0 : 10 7 5 3 2 1 1 0 4 3 3 2 2 2 1 1 1 1 1 0
MACRO       0   3  -1  -1   0 : 10 7 4 2 1 0
MACRO       0   4  -1  -1   0 : 13 9 7 5 4 3 2 2 1 1 0
MACRO       0   5  -1  -1   0 : 8 4 2 0
MACRO       0   6  -1  -1   0 : 9 7 5 4 3 3 2 2 1 1 0
MACRO       0   7  -1  -1   0 : 9 8 7 6 6 5 5 4
MACRO       0   8  -1  -1   0 : 15
MACRO       0   9  -1  -1   0 : 4 4 4 5 5 5 6 0 6 5 5 5 4 4 4 4 3 3 3 0
MACRO       0  10  -1  -1   0 : 7 6 5 5 4 4 3 3 3 2 2 2 1 1 1 0
MACRO       0  11  -1  -1   0 : 9 7 5
MACRO       0  12  -1  -1   0 : 15 0
MACRO       0  13  -1   5   0 : 0 0 4 8 6 5 4 3 2 2 1 1 0 0
MACRO       0  14  -1  -1   0 : 15 15 15 15 0
MACRO       0  15  -1  -1   0 : 3 6 5 5 4 4 3 3 2 2 2 1 1 1 1 0
MACRO       0  16  -1  -1   0 : 1 1 1 0 1 1 0
MACRO       0  17  -1  -1   0 : 9 7 5 3 2 1 1 0 4 3 3 2 2 2 1 1 1 1 1 0
MACRO       0  18  -1  -1   0 : 10 7 4 2 0
MACRO       0  19  -1  -1   0 : 13 9 7 5 4 3 2 2 1 1 0
MACRO       0  20  -1  -1   0 : 8 4 2 0
MACRO       0  21  -1  -1   0 : 9 7 5 4 3 3 2 2 1 1 0
MACRO       0  22  -1  -1   0 : 9 8 7 6 6 5 5 4
MACRO       0  23  -1  -1   0 : 15
MACRO       0  24  -1  -1   0 : 4 4 4 5 5 5 6 0 6 5 5 5 4 4 4 4 3 3 3 0
MACRO       0  25  -1  -1   0 : 7 6 5 5 4 4 3 3 3 2 2 2 1 1 1 0
MACRO       0  26  -1  -1   0 : 9 7 5
MACRO       0  27  -1  -1   0 : 15 0
MACRO       0  28  -1   5   0 : 0 0 4 8 6 5 4 3 2 2 1 1 0 0
MACRO       0  29  -1  -1   0 : 7 7 7 7 0
MACRO       0  30   1  -1   0 : 0 8 2
MACRO       0  31  -1  -1   0 : 15 0 0 0 15 0
MACRO       1   0  -1  -1   0 : 6 15
MACRO       1   1  -1  -1   0 : 6 9
MACRO       1   2   0  -1   0 : 0 0 12 12
MACRO       1   3  -1  -1   0 : 0 -1 -2 -3 -4 -5 -6 -7 -8 -9 -10 -11 -12 -13 -14 -15
MACRO       1   4  -1  -1   0 : -2 0
MACRO       1   5  -1  -1   0 : 12 0
MACRO       1   6  -1  -1   0 : 6 15
MACRO       1   7  -1  -1   0 : 6 9
MACRO       1   8   0  -1   0 : 0 0 12 12
MACRO       1   9  -1  -1   0 : 0 -1 -2 -3 -4 -5 -6 -7 -8 -9 -10 -11 -12 -13 -14 -15
MACRO       1  10  -1  -1   0 : -2 0
MACRO       1  11  -1  -1   0 : 12 0
MACRO       2   0   1  -1   0 : 0 63
MACRO       2   1   1  -1   0 : 0 63
MACRO       4   0  -1  -1   0 : 1
MACRO       4   1  -1  -1   0 : 3
MACRO       4   2  -1  -1   0 : 2
MACRO       4   3  -1  -1   0 : 0
MACRO       4   4  -1  -1   0 : 1
MACRO       4   5  -1  -1   0 : 1
MACRO       4   6  -1  -1   0 : 3
MACRO       4   7  -1  -1   0 : 2
MACRO       4   8  -1  -1   0 : 0
MACRO       4   9  -1  -1   0 : 1
MACRO       4  10  -1  -1   0 : 3

# DPCM samples
DPCMDEF   0   993 "ripped02.dmc"
DPCM : BB 0A 50 7A 0A FF 00 FF FF 04 FF 40 00 00 00 F0 FF FF 0B 07 F0 F5 FF F4 00 F0 5F 08 F5 BA 78 0F
DPCM : 00 F0 FF FF FF 00 80 70 F0 0F 00 F8 8F FA 07 48 00 00 00 FF FF FF 50 0A F4 FF 4F 0F 08 F7 57 00
DPCM : FF 5A F0 0F 00 FA 7F FF 8F 00 A8 A4 F0 0F 00 F5 5F B0 4F 00 00 0A 00 FF FF AF 70 00 FF FF 4F 0F
DPCM : 00 FF 85 B0 AF 85 5F 04 80 FF BF FF 0F 00 48 05 5F 04 A0 FF 0F F0 0F 00 00 04 F0 FF FF 85 45 50
DPCM : FF FF 5B 05 A0 7F 0A F8 AB 0A FF 00 40 FF FF FF 0F 00 40 04 FF 00 B0 FF 05 FB 04 00 80 00 F0 FF
DPCM : FF 8B 0A 74 FF FF 55 08 F0 5F 08 7B 5B 88 FF 04 40 FF FF FF 05 00 50 80 FF 08 70 FF 40 BF 08 00
DPCM : 00 00 F8 FF FF A5 84 BA FF 7F A5 00 7A AF A0 75 4B 74 BF 00 70 FF FF FF 00 00 48 58 5F 00 F5 5F
DPCM : 54 A7 08 00 00 00 FF FF 7F 8A A0 F5 FF BF 84 40 F5 A5 54 5B 8B 75 A7 00 BA FF FF AF 00 00 44 7A
DPCM : 47 88 F5 AB AA 4A 08 00 00 48 FF FF 5F 0A 54 FB FF 57 0A 44 BB AA B4 5A A5 BB 8A 40 75 FF FF 8F
DPCM : 00 80 48 5B A5 50 77 55 AB 8A 00 00 80 B8 FF FF 4B 44 B4 FB 7F 57 44 A4 B5 AA AA 55 55 B7 44 A4
DPCM : B5 FF 7F 8B 00 88 48 5B 8A AA B5 55 AB 84 00 00 88 F4 FF 7F 4B 44 5A 7F 7F AB 88 54 55 55 AB A5
DPCM : B5 55 4A 54 BB F7 BF 4A 08 88 A8 AA A4 5A AB 55 4B 0A 08 00 88 F5 FF 77 A5 A4 74 F7 BB 55 A4 AA
DPCM : 54 B5 AA 5A B5 A5 A4 AA 75 7F 5F 45 44 88 A4 4A AA 5A B5 55 A5 88 00 08 A8 F5 F7 BB AA A4 B5 BB
DPCM : BB AA 54 AA 4A AB AA 5A AB AA A4 AA BB 77 B7 A4 88 88 54 4A AA 55 B5 55 45 44 08 08 54 77 BF 5B
DPCM : 4B 55 5B 77 5B 4B 55 AA AA AA AA 5A AB 4A A5 5A 77 77 57 4A 8A 48 4A 4A AA 55 B5 5A 8A 88 80 40
DPCM : 5A BB BB 5B 55 B5 B5 5B 5B 55 55 AA AA AA AA 55 AB 4A A5 B5 75 5F AB 8A 44 4A 4A 54 AA 55 B5 AA
DPCM : 44 44 88 A0 B4 75 B7 B5 55 5B 5B 5B AB 55 A5 AA AA AA AA B5 AA 54 55 75 BB 5B 55 A5 48 4A 8A 54
DPCM : 55 55 B5 4A 8A 84 08 4A 5A BB B5 B5 55 5B B7 B5 AA AA AA AA AA AA 5A B5 4A 55 55 5B B7 AB 55 4A
DPCM : 4A 4A A4 4A 55 55 B5 54 A4 08 44 4A B5 B5 B5 B5 B5 B5 B5 B5 AA AA AA AA AA AA 55 55 55 55 B5 B5
DPCM : 75 AB AA A4 54 8A A4 4A 55 55 55 A5 48 44 44 AA 5A 5B B5 B5 B5 B5 AB B5 AA AA AA AA AA AA 55 55
DPCM : 55 55 B5 B5 5B B5 4A A5 A4 A4 A4 4A 55 55 55 4A A4 88 44 55 B5 5A AB B5 75 5B 5B B5 AA AA AA AA
DPCM : AA 5A 55 55 55 55 AB 75 5B 55 55 AA A4 A4 A4 4A 55 55 A5 A4 44 A4 A4 54 AB 55 5B 5B 5B 5B 5B B5
DPCM : AA AA AA AA AA 5A 55 55 55 55 5B 5B 5B 55 A5 4A AA A4 A4 4A 55 55 AA 44 8A A4 A4 AA 5A B5 5A 5B
DPCM : 5B 5B 5B B5 AA AA AA AA AA 55 55 55 55 B5 5A 5B AB 55 AA 54 4A A5 A4 4A 55 A5 4A 4A A4 48 A5 AA
DPCM : 55 AB 55 BB B5 B5 5A B5 AA AA AA AA AA 55 55 55 55 AB B5 5A AB AA 4A A5 4A AA A4 4A 55 A5 A4 A4
DPCM : 48 4A 55 55 55 AB B5 B5 B5 B5 5A B5 AA AA AA AA 5A 55 55 55 55 AB B5 55 AB AA 4A A5 54 4A A5 4A
DPCM : 55 AA A4 48 4A 4A 55 55 B5 5A AB 5B AB B5 55 B5 AA AA AA AA 55 55 55 55 B5 5A B5 55 AB 4A 55 AA
DPCM : A4 4A A5 4A A5 4A 4A 4A 54 4A 55 B5 AA 55 5B 5B 5B AB 55 B5 AA AA AA AA 55 55 55 55 AB 5A AB 55
DPCM : B5 54 A5 4A A5 54 AA 4A A5 54 8A A4 A4 AA AA AA AA B5 B5 55 5B AB 55 B5 AA AA AA 5A 55 55 55 55
DPCM : AB 55 AB 55 55 55 AA 54 AA 54 AA 54 AA A4 A4 A4 A4 AA AA AA 5A B5 B5 B5 55 AB 55 B5 AA AA AA 5A
DPCM : 55 55 55 B5 AA B5 5A 55 55 A5 AA 54 AA 54 AA 54 4A 4A 4A AA A4 AA AA AA 55 5B 5B B5 B5 5A 55 B5
DPCM : AA
DPCMDEF   1  1009 "ripped03.dmc"
DPCM : BB 0A 50 FA F0 FF 00 F4 FF F0 0F 00 00 00 F0 FF FF 0A 0A F0 FF 8F 0B 08 FB 4B A0 AF 8B 7F 00 40
DPCM : FF F7 FF 80 50 B8 F0 0F 00 F4 4F AF 0F 00 00 00 F0 FF FF 40 0B F0 FF 5F 0F 80 FF 05 F0 4F 07 FF
DPCM : 00 B0 FF FF FF 00 00 4A F0 0F 00 FF 40 FF 05 00 80 00 F0 FF FF B0 00 FF FF 57 0F 80 7F 0A F4 AB
DPCM : F4 05 05 F0 FF FF 0F 0A A0 0A 5F 80 50 FF 05 FF 00 00 00 00 FF FF 4F B4 00 FF FF 77 0A 50 7F 08
DPCM : 7B AB F0 0F 00 FA FF FF 0F 00 A8 04 FF 00 70 FF 40 7F 00 00 00 00 FF FF AF 8A 50 FF FF 5B 00 F4
DPCM : AF 40 77 4B F8 4F 00 FA FF FF 0F 00 A0 00 FF 08 F0 7F 50 4F 00 00 00 40 FF FF AF 84 B4 FF FF 45
DPCM : 80 7A 4F A8 5B 8B FA 0B 00 F7 FF FF 07 00 A0 50 BF 00 FA 4F 74 A5 00 00 00 B0 FF FF 8B 88 F4 FF
DPCM : 7F 8A 80 F5 A5 54 5B A5 7B 0A A0 FB FF FF 08 00 44 74 A7 80 FB A5 5A 8A 00 00 00 F4 FF FF 8A 88
DPCM : FA FF 77 0A 48 BB 4A B5 5A 5A B7 84 50 F7 FF 7F 04 80 88 BA 4A A8 75 AB 55 0A 00 00 40 F5 FF FF
DPCM : 88 48 7B FF B7 84 A8 55 55 B5 A5 B5 55 8A A8 FB FF AF 80 80 A0 B5 A4 58 5B B5 A5 04 00 08 A0 FB
DPCM : FF 57 8A A8 F5 7F 57 8A 54 55 55 AB AA B5 55 A4 54 7F FF AB 08 84 48 55 4A 55 5B B5 4A 84 00 80
DPCM : 50 F7 FF 5B 8A 54 77 7F AB A4 54 55 55 AB 5A 5B A5 A4 B4 7B FF 55 44 88 48 A5 54 B5 AA B5 4A 88
DPCM : 00 80 58 F7 F7 B5 A4 AA BB BB 55 A5 4A 55 55 AB 5A AB 4A AA 5A F7 77 AB 88 88 A4 A4 54 B5 5A B5
DPCM : A4 40 08 80 B4 7B 77 57 A5 BA 75 B7 55 AA AA 54 B5 AA 5A AB 4A AA B5 7B 77 55 A4 88 A4 A4 54 55
DPCM : AB 55 4A 84 80 40 55 77 77 5B 55 B5 5B B7 AA AA AA 54 AB AA 55 AB 54 5A 75 77 B7 AA 44 8A A4 A4
DPCM : 54 55 AB A5 8A 08 88 A0 5A BB 75 AB 5A 5B B7 B5 AA AA AA AA AA AA 55 AB 54 55 5B 77 57 55 4A A4
DPCM : A4 A4 54 B5 AA AA 44 44 08 4A B5 B5 B5 B5 B5 B5 B5 55 AB AA AA AA AA 5A 55 4B 55 55 BB 5B 5B A5
DPCM : A4 A4 A4 A4 4A B5 AA 4A 8A 88 40 4A AB B5 B5 B5 B5 B5 B5 55 B5 AA AA AA AA 5A 55 55 55 B5 B5 5B
DPCM : 5B AA A4 A4 A4 A4 4A B5 AA 54 44 44 A4 A4 55 5B AB B5 B5 5B AB 55 B5 AA AA AA AA 5A 55 55 55 B5
DPCM : 75 5B AB 4A A5 A4 A4 A4 AA AA 4A A5 48 44 A4 54 B5 5A AB B5 75 5B AB 55 B5 AA AA AA AA 55 55 55
DPCM : 55 5B 5B 5B B5 54 4A A5 A4 A4 AA AA 54 4A 8A 88 A4 AA AA 55 5B 5B 5B 5B AB 55 B5 AA AA AA AA 55
DPCM : 55 55 55 5B 5B 5B 55 A5 4A 4A A5 A4 AA 4A A5 8A 44 8A A4 AA 5A B5 5A 5B 5B 5B AB 55 B5 AA AA AA
DPCM : AA 55 55 55 B5 5A 5B 5B 55 AA 54 4A AA A4 AA 4A A5 A4 48 A4 54 AA 55 B5 5A 5B B7 55 AB 55 B5 AA
DPCM : AA AA 5A 55 55 55 B5 B5 55 AB AA AA A4 4A AA A4 AA 54 4A 4A 8A A4 54 55 55 AB B5 B5 B5 B5 5A 55
DPCM : B5 AA AA AA 5A 55 55 55 AB B5 B5 AA AA 4A A5 54 4A A5 AA 54 4A 8A A4 A4 54 55 B5 AA B5 B5 B5 B5
DPCM : 5A 55 B5 AA AA AA 55 55 55 B5 5A B5 B5 AA AA 54 AA A4 4A A5 AA A4 A4 A4 44 A5 4A 55 AB 5A 5B 5B
DPCM : AB B5 5A 55 B5 AA AA AA 55 55 55 B5 5A AB 55 AB 4A 55 4A A5 4A A5 4A A5 A4 44 4A A5 AA AA AA 55
DPCM : 5B 5B 5B B5 5A 55 B5 AA AA 5A 55 55 55 AB 55 AB 55 55 55 A5 4A A5 4A A5 4A 4A 4A 4A 4A AA AA AA
DPCM : AA B5 B5 55 5B AB 5A 55 B5 AA AA 5A 55 55 55 AB 55 5B 55 55 55 AA 54 AA 54 AA 54 4A 4A 4A 4A A5
DPCM : AA AA 5A B5 B5 B5 5A AB 5A 55 B5 AA AA 55 55 55 B5 AA B5 5A 55 55 55 AA 54 AA 54 AA A4 8A A4 A4
DPCM : 54 A5 AA AA 55 5B AB B5 55 AB 55 55 AB AA AA 55 55 55 B5 5A B5 5A 55 55 A5 4A A5 4A 55 4A A5 A4
DPCM : A4 A4 54 A5 AA 5A B5 5A 5B AB B5 AA 55 5A A5 A5 55
DPCMDEF   2  1009 "ripped00.dmc"
DPCM : BB 04 58 5B FB 0F 40 FF 7F F5 00 00 00 00 FF FF 0A 05 F0 FF 4F 0F A0 BF 04 F5 BA F0 0F 00 F7 F7
DPCM : FF 00 58 04 FF 00 50 FF F4 57 00 00 00 00 FF FF A5 0A FA FF 77 00 F8 7F 00 FF 4A BF 00 A0 FF FF
DPCM : FF 00 40 05 FF 00 F0 0F F8 8F 00 00 00 F0 FF BF 50 00 FF FF F7 00 F8 AF 80 BF 0A FF 00 B0 FF FF
DPCM : 0F 04 54 0A FF 00 F0 5F 70 0F 00 00 00 F0 FF BF A8 40 FF FF 7B 00 F4 8F B0 B7 04 FF 00 F0 FF FF
DPCM : 0F 00 55 08 FF 00 F0 5F F0 0F 00 00 00 FF FF 85 44 B0 FF FF 55 00 FB 0B 74 B7 88 FF 00 F0 FF FF
DPCM : 8F 00 A0 40 FF 00 F4 8F F4 0A 00 00 00 FF FF 0B 8A 58 FF FF 0B 40 F7 85 5A B7 70 BF 00 F0 FF FF
DPCM : 0F 00 48 58 AF 00 F7 8B B5 04 00 00 00 FF FF 8F 08 7A FF FF 84 A0 BB 8A BA 55 BA A7 00 F5 FF FF
DPCM : 0B 00 40 7A 8B 40 7F 55 4B 04 00 00 A0 FF FF 8B 40 F5 FF BF 08 54 BB 54 B5 A5 75 4B 40 7B FF FF
DPCM : 05 00 44 75 45 54 B7 55 4B 08 00 00 B0 FF FF 8A A0 FA FF 57 0A 54 5B 55 B5 AA 5B A5 A0 75 FF FF
DPCM : 84 00 44 B5 8A B4 B5 5A A5 00 00 00 F4 FF BF 8A 88 F5 FF AB 44 AA 5A 55 AB 5A 5B 4A 4A BB FF 5F
DPCM : 0A 08 44 AB A4 AA 55 5B 45 08 00 00 75 FF BF A4 A8 F5 77 57 45 55 55 55 AB 5A 5B 4A AA 75 FF B7
DPCM : 44 08 A4 4A 4A AB 55 5B 8A 80 00 80 7A 7F 77 A5 54 7B 77 57 4A 55 55 55 AB 5A AB A4 AA F5 F7 5B
DPCM : 8A 08 4A 4A AA AA 55 AB 44 04 08 40 BB 7B B7 AA B4 75 77 AB AA 54 55 55 AB 55 AB A4 5A BB F7 B5
DPCM : 44 8A 48 4A AA AA 55 AB 88 08 80 A0 75 77 BB AA 5A BB 5B B5 AA 54 55 55 AB B5 AA A4 55 77 F7 55
DPCM : 4A A4 44 4A AA AA 55 55 8A 80 80 48 5B 77 5B B5 BA B5 5B 55 55 55 55 B5 AA 55 4B 55 B5 75 5F AB
DPCM : A4 A4 44 4A AA AA 55 A5 44 84 80 A4 B5 75 5B B5 B5 75 AB 55 55 55 55 B5 AA 55 55 55 B5 BB 75 55
DPCM : A5 A4 44 4A AA AA 55 A5 88 08 44 54 5B 5B AB B5 75 5B AB 55 55 55 55 B5 5A 55 55 55 5B BB 5B 55
DPCM : 4A AA 48 4A A5 AA AA 4A A4 40 44 AA 5A 5B AB B5 5B 5B AB 55 55 55 55 B5 5A 55 55 55 5B B7 B5 A5
DPCM : 4A 4A 4A 4A A5 AA AA A4 44 84 44 55 B5 5A AB 75 5B 5B AB 55 55 55 55 AB 5A 55 55 55 5B B7 B5 AA
DPCM : 54 4A 4A 4A A5 AA AA A4 88 88 A4 54 AB 5A 5B 5B 5B 5B AB 55 55 55 B5 AA 5A 55 55 B5 B5 B5 B5 4A
DPCM : A5 4A 4A 4A 55 AA 4A 4A A4 88 A4 AA AA 55 5B 5B B7 55 AB 55 55 55 B5 AA 55 55 55 B5 B5 B5 55 55
DPCM : A5 54 4A 4A 55 AA 4A 8A 44 A4 A4 AA 5A 55 5B BB B5 55 AB 55 55 55 AB AA 55 55 55 AB B5 B5 55 55
DPCM : AA A4 4A 4A 55 AA A4 A4 48 A4 54 55 55 B5 B5 B5 B5 55 AB 55 55 55 AB AA 55 55 55 5B 5B B5 55 A5
DPCM : 4A A5 54 4A 55 AA A4 44 8A A4 54 55 55 AB B5 B5 B5 55 AB 55 55 B5 AA 5A 55 55 B5 5A 5B B5 AA AA
DPCM : 4A A5 54 4A 55 4A 45 4A A4 A4 54 55 55 5B B5 5B B5 B5 AA 55 55 B5 AA 5A 55 55 B5 5A 5B B5 AA AA
DPCM : 54 AA A4 4A A5 4A 4A 8A A4 A4 4A 55 B5 5A 5B 5B AB B5 AA 55 55 B5 AA 5A 55 55 AB 55 5B B5 AA AA
DPCM : 54 4A A5 4A A5 4A 8A A4 48 A5 AA 54 AB 55 5B 5B 5B B5 AA 55 55 AB AA 5A 55 55 AB B5 5A B5 AA 4A
DPCM : A5 4A A5 4A A5 A4 A4 44 4A A5 AA AA AA B5 B5 55 5B B5 AA 55 55 AB AA 55 55 55 AB B5 5A B5 AA 54
DPCM : A5 4A AA 54 AA A4 44 4A 4A A5 AA AA 5A B5 B5 B5 5A B5 5A 55 55 AB AA 55 55 B5 5A B5 5A 55 55 55
DPCM : AA 54 AA 54 4A 4A 4A 4A 4A A5 AA AA 5A 5B AB B5 55 AB 5A 55 B5 AA 5A 55 55 B5 5A B5 55 55 55 A5
DPCM : AA 54 AA 54 4A 4A 4A A4 4A A5 AA AA 55 5B 5B B5 55 AB 5A 55 B5 AA 5A 55 55 AB 5A AB 55 55 55 A5
DPCM : 4A A5 4A A5 54 8A A4 A4 4A 5A A5 5A AA 5A AA 55 A5
DPCMDEF   3   993 "ripped01.dmc"
DPCM : 75 0B 50 5B FF 00 F0 FF F4 4F 00 80 00 F0 FF 8F 88 B0 FF 8F 0F A0 BF 00 7F 45 FF 00 B0 FF FF 0F
DPCM : 00 A5 F0 0F 00 FF F4 4B 00 00 00 F0 FF 8F 48 50 FF FF 0F 80 FF 08 FB 54 BF 00 B0 FF FF 0F 00 AB
DPCM : F0 0F 00 FF 0A 7F 00 00 00 F0 FF 4B A8 80 FF FF 0B 40 FF 05 F5 55 F0 0F 40 FF FF 0F 0A AA F0 0A
DPCM : 00 FF 0F F5 00 00 00 F0 FF 4F A8 80 FF FF 5B 00 F7 05 FA 55 F0 0F 00 FF FF FF 00 B0 00 FF 00 FA
DPCM : 0F F4 0A 00 00 70 FF AF A0 80 F7 FF 5F 00 F5 87 78 57 B8 BF 00 F4 FF FF 0A 00 0A F5 0A F0 4F 7A
DPCM : 05 00 00 00 FF FF 8A 08 FB FF 5F 00 F5 47 B4 5B AA BF 00 F8 FF FF 0B 00 08 F5 05 F0 AF B4 8A 00
DPCM : 00 00 FF FF 0A 84 FA FF 5F 08 74 4F AA 5B AA 77 08 78 FF FF 0F 00 08 F5 05 B8 B7 B4 8A 00 00 00
DPCM : F4 FF 5F 08 7A FF 7F 84 58 5B A5 B5 AA BB 04 B4 F7 FF 4F 00 88 74 8B B0 5B B5 4A 00 00 00 FA FF
DPCM : AF 40 B4 FF BF 8A 50 AB 5A B5 AA 5B 85 A8 FB FF 4F 08 40 AA A5 A8 B5 55 4B 08 00 00 78 FF BF 84
DPCM : A8 F7 7F 8B 48 AB AA B5 AA 75 4A 54 7B FF 5F 84 80 A8 A5 A8 B5 5A 4B 04 00 00 74 FF 5F 45 4A F7
DPCM : 77 A7 A4 AA AA 55 AB B5 4A 4A BB F7 BF 44 84 48 AA A4 55 AB 55 84 00 00 54 7F BF A5 A4 75 BF AB
DPCM : 54 A5 AA 55 B5 B5 4A AA 5A 7F BF 4A 44 A4 A4 A4 55 B5 55 44 08 00 A8 F5 BB AB 54 5B 77 57 55 55
DPCM : AA 55 55 5B 4B A5 5A F7 77 4B 8A 48 8A 54 55 B5 AA 8A 80 00 48 75 77 57 55 5B B7 5B 55 55 55 55
DPCM : 55 5B 55 A5 5A 77 F7 55 8A A4 48 4A 55 55 AB A4 08 08 88 5A B7 5B 55 5B BB B5 5A 55 55 55 55 5B
DPCM : 55 55 5A BB BB AB 4A A4 A4 44 55 55 B5 A4 88 80 40 55 BB B5 5A 5B BB B5 AA 55 55 55 55 AB 55 55
DPCM : 55 BB 5B 57 55 4A 8A A4 54 55 55 A5 84 08 48 AA 5A 5B 5B 5B 5B 5B AB 5A 55 55 55 AB 55 55 55 5B
DPCM : 77 5B A5 4A 4A 4A 4A 55 55 A5 44 84 88 54 55 5B AB B5 5B 5B AB AA 55 55 55 AB 5A 55 55 5B BB B5
DPCM : AA 4A 4A 4A AA 54 55 A5 44 44 44 4A B5 5A B5 B5 75 5B B5 AA 55 55 55 B5 5A 55 55 B5 5B 57 AB 4A
DPCM : AA A4 A4 54 55 A5 44 0A A4 A8 AA 5A B5 B5 B5 B5 B5 AA 55 55 55 B5 5A 55 55 B5 75 5B B5 54 A5 A4
DPCM : A4 4A 55 A5 A4 88 88 A4 AA 5A B5 5A B7 B5 55 AB 5A 55 55 B5 AA 55 55 B5 B5 B5 55 55 AA A4 4A AA
DPCM : 54 A5 A4 88 44 4A A5 55 55 5B BB B5 5A AB AA 55 55 B5 AA 55 55 B5 B5 B5 55 55 AA 54 4A AA 54 A5
DPCM : A4 44 A4 48 55 55 55 5B 5B 5B 5B B5 AA 55 55 B5 AA 55 55 B5 B5 B5 5A 55 AA 54 4A A5 4A A5 A4 44
DPCM : A4 A4 54 55 55 5B 5B 5B 5B B5 AA 55 55 B5 AA 5A 55 B5 5A 5B AB AA AA 54 4A A5 4A A5 A4 44 8A A4
DPCM : 4A 55 B5 5A 5B 5B AB 55 AB 5A 55 B5 AA 5A 55 B5 5A 5B AB AA AA 54 AA A4 4A A5 8A A4 48 4A AA 4A
DPCM : B5 5A 5B 5B B5 55 AB 5A 55 55 AB 5A 55 B5 5A AB B5 AA AA 54 AA 54 AA A4 4A A4 44 4A AA AA AA 5A
DPCM : 5B AB B5 55 AB 5A 55 55 AB 5A 55 55 5B B5 55 AB AA 54 AA 54 AA 54 4A 8A 44 4A A5 AA AA 5A B5 B5
DPCM : B5 5A B5 AA 55 55 AB 5A 55 55 5B B5 55 B5 AA 54 AA 54 AA 54 4A 8A A4 A4 54 AA AA 5A B5 B5 B5 5A
DPCM : B5 AA 55 55 AB 5A 55 55 AB B5 5A 55 55 55 AA 54 AA 54 4A 4A A4 A4 54 AA AA 5A B5 B5 B5 5A B5 AA
DPCM : 55 55 AB AA 55 55 AB B5 5A 55 55 55 AA 54 AA 54 4A 4A 8A A4 4A A5 AA 5A AB B5 55 5B B5 AA 5A 55
DPCM : AB AA 55 55 AB 55 AB 55 55 55 AA 54 A5 4A 4A 4A 4A 54 4A 55 AA 55 AB B5 55 5B 55 AB 5A 55 AB AA
DPCM : 55 55 AB 55 AB 55 55 55 AA 54 A5 4A 4A 4A 4A 4A 4A 55 55 55 AB B5 55 AB 55 AB 5A 55 AB AA 55 55
DPCM : AB
DPCMDEF   4  1009 "ripped04.dmc"
DPCM : B5 0B 50 5B FF 00 F8 4F FF 0F 00 00 00 FF BF A0 00 FF FF 0B 40 FF 00 BF 05 FF 00 FA FF FF 00 A8
DPCM : 08 FF 00 FB 0A 5F 00 00 00 F0 FF 45 0A F4 FF FF 00 FB 05 FA A5 BF 00 F0 FF FF 0F 00 05 FF 00 AF
DPCM : 0F AF 00 00 00 F0 FF 0A 0A 70 FF FF 07 F0 A7 B0 57 F4 0F 00 FF FF 0F 0A A5 F0 0F F0 05 74 8F 00
DPCM : 00 00 FF 5F A8 00 FF FF B7 00 7F 08 7F 85 FF 00 F0 FF FF 80 B0 04 F7 00 F5 0F FB 00 00 00 F0 FF
DPCM : 85 04 FA FF BF 00 FA 07 7A A7 F8 0F 00 FF FF 0F 08 8B F0 0F 50 BF 70 0B 00 00 B0 FF 0F 88 50 FF
DPCM : FF 0B 50 BF 50 77 4A FF 00 F8 FF FF 04 40 44 BF 00 FF A4 55 00 00 00 BF FF 84 40 FB FF 4F 80 7B
DPCM : 45 5B 4B FB 0A 50 FF FF 8F 00 88 FA 04 F4 A7 55 0A 00 00 40 FF 7F 08 74 FF FF 08 B4 AB AA B5 5A
DPCM : 4F 40 FB FF FF 00 80 58 47 A8 B7 5A 45 00 00 00 F7 FF 45 A0 FB FF 8B A0 B5 AA 55 AB 5B 0A 5A FF
DPCM : FF 0B 80 A0 B5 48 75 B5 A5 08 00 00 F0 FF 57 84 74 FF 5F 8A 54 B5 5A 55 BB 4A 54 7B FF 5F 84 80
DPCM : 54 A5 B4 5A AB 44 00 00 A0 F7 7F 45 A4 F7 77 4B 4A 55 AB 55 5B AB A4 B4 F7 FF 8A 08 A8 A4 54 AB
DPCM : B5 4A 08 00 00 F5 F7 AB A4 BA 7B 57 A5 AA AA 5A B5 B5 A4 AA F5 7F 57 44 44 4A 4A B5 5A 55 0A 08
DPCM : 00 A8 77 5F 55 5A 77 B7 55 AA AA AA 55 5B 4B AA BA FB BB 4A 44 A4 A4 54 AB 55 45 04 08 40 75 77
DPCM : 5B 55 5B 77 AB AA AA AA 55 B5 55 A5 5A 7B BF 55 4A A4 44 4A B5 5A A5 88 00 08 AA 5B B7 AA B5 5B
DPCM : 57 AB AA AA 5A 55 5B 55 AA 75 F7 B5 4A 4A 4A A4 4A AB AA 8A 80 80 48 B5 75 B5 B5 B5 5B B5 AA AA
DPCM : AA 55 AB 55 A5 B5 75 5F AB A4 A4 44 AA AA AA 4A 44 08 88 AA B5 55 5B 5B B7 55 AB AA AA 55 B5 5A
DPCM : 55 5A BB 5B 57 55 4A 4A 54 AA AA 4A 8A 08 84 A4 55 AB B5 B5 5B 5B 55 AB AA 5A 55 AB 55 55 B5 BB
DPCM : B5 55 4A A5 A4 A4 AA 4A A5 88 80 A4 54 AB 5A 5B BB B5 55 B5 AA 5A 55 B5 5A 55 55 B7 5B AB AA 54
DPCM : 4A 4A AA AA A4 44 44 48 AA AA 5A B5 75 5B 5B 55 AB AA 55 B5 AA 55 55 5B BB B5 AA 4A 4A AA A4 AA
DPCM : 54 8A 84 88 A4 AA AA 55 BB B5 B5 55 B5 AA 5A 55 AB 5A 55 B5 75 5B AB 4A A5 A4 4A AA 4A 4A 8A 88
DPCM : 48 A5 AA 55 5B 5B 5B 5B 55 AB AA 55 B5 AA 55 55 BB B5 55 55 A5 4A AA A4 AA A4 44 A4 88 54 55 55
DPCM : B5 B5 B5 B5 55 AB AA 5A 55 AB 5A 55 5B 5B 5B 55 55 AA A4 54 AA 54 8A 44 A4 A8 54 55 B5 5A B7 55
DPCM : 5B B5 AA 5A 55 AB AA 55 B5 B5 B5 55 55 AA 54 4A A5 4A 4A 8A 44 8A 4A 55 55 5B 5B 5B AB 55 AB AA
DPCM : 55 B5 AA 5A 55 5B 5B AB 55 AA 4A AA 54 AA A4 44 8A 44 A5 4A 55 AB B5 B5 B5 5A B5 AA 5A 55 AB 5A
DPCM : 55 AB B5 B5 AA AA 4A A5 4A A5 54 8A 44 8A 54 AA 54 B5 55 5B 5B AB 55 AB 5A 55 B5 AA 55 B5 B5 5A
DPCM : AB AA AA 54 AA A4 4A 4A 8A 44 4A A5 AA B4 5A 5B 5B B5 5A B5 AA 55 B5 AA 5A 55 5B 5B B5 AA AA 54
DPCM : AA 54 AA A4 A4 48 A4 54 AA AA AA B5 B5 55 5B 55 AB 5A 55 AB 5A 55 AB B5 55 AB AA 4A A5 4A A5 4A
DPCM : 8A A4 48 4A A5 AA AA B5 55 5B AB 55 AB AA 55 AB AA 55 B5 5A 5B 55 AB 4A 55 AA 54 4A 4A 4A A4 A4
DPCM : 54 AA AA 55 5B AB B5 5A B5 AA 55 B5 AA 5A 55 5B B5 55 B5 4A 55 AA 54 AA A4 A4 48 4A 4A A5 AA 5A
DPCM : AB B5 55 AB 55 AB 5A 55 AB 5A 55 AB B5 5A 55 55 55 AA 4A A5 54 8A A4 44 AA 54 AA 5A B5 B5 5A AB
DPCM : 55 B5 5A 55 AB AA 55 B5 5A AB 55 55 55 A5 4A A5 4A 4A 4A A4 A4 4A A5 5A B5 5A 5B B5 5A B5 AA 55
DPCM : B5 AA 55 55 5B B5 5A 55 55 A5 AA 54 AA A4 44 4A 4A AA 54 55 55 5B B5 55 AB 55 AB 5A 55 AB 5A 55
DPCM : AB 55 AB 55 55 A5 AA 54 A5 A4 A4 A4 A4 5A AA A5 55
DPCMDEF   5   305 "pacman kick.dmc"
DPCM : 00 00 00 00 BB DD FE 07 8E C3 01 40 FF FF 57 22 00 E0 FF FF FF DB FD FF 7F AF 02 00 00 00 00 00
DPCM : 00 EF BB EF 7D DF 7D DF F7 EE 6E 35 25 42 00 00 00 00 00 A2 D2 DA EE EE FB BE BF EF DE DD D6 AA
DPCM : 2A 89 10 10 00 08 20 44 92 D2 6A 6D B7 77 EF BE 7B 77 BB AD D5 2A 95 24 22 08 82 10 22 44 52 2A
DPCM : B5 5A DB B6 DD ED EE 76 DB 6D 6D D5 52 95 A4 48 22 22 22 22 91 24 A5 54 55 B5 D6 D6 B6 DB 6D BB
DPCM : 6D DB D6 5A 55 55 A5 94 24 25 91 48 92 48 4A 52 29 55 55 AD D6 DA B6 6D DB B6 6D AD AD D5 AA 5A
DPCM : A9 4A A5 A4 24 49 92 A4 24 49 49 A5 52 55 55 AB 56 6B 6B 6D 6B DB DA DA 5A 6B D5 AA AA AA 54 29
DPCM : A5 94 94 A4 A4 A4 A4 94 52 A9 54 55 55 55 B5 6A B5 D6 5A 6B 6B AD D5 5A AD AA 55 AB AA 55 AA 2A
DPCM : 95 52 4A 49 4A 4A 4A 4A A9 54 55 55 55 B5 6A AD D6 5A 6B AB B5 56 AB 5A 55 95 AA AA 4A 95 4A 29
DPCM : A5 54 4A 29 55 AA 54 55 55 B5 52 55 D5 AA 5A B5 6A B5 6A 6B AD D5 AA 55 55 55 55 95 AA 4C 55 95
DPCM : AA 4A 21 94 42 2A 94 AA 50 14 45 51 AA 4A A9 AA AA
DPCMDEF   6   625 "Gimmick Snare.dmc"
DPCM : 00 FD EA F0 DF FF 20 01 0F A1 0F 12 20 D1 5E D2 2E FF ED EE FD 1A AD 50 15 01 50 A0 05 2A 55 15
DPCM : D2 FA F7 DD EF EF 50 E1 DA 51 10 51 25 00 1D 2A 51 EA EF 5D 20 FF FF FF 00 F0 0D 00 05 1F F5 E0
DPCM : 0F 00 F0 F0 1E FF 0F FF FF 00 0E A0 FF 5A 5A 00 0A 01 F2 11 5F FF FF 00 52 F5 50 AE FF 00 FF D0
DPCM : A0 0E 00 AF F0 0F F0 0A DF E0 2F FF AD 01 DA AD 0F F2 20 A5 A2 F0 00 50 F5 0A FF 2F E0 F5 F0 FF
DPCM : 01 5F EA 5E 01 D0 AA 00 2D D5 2E 20 20 FF FF 5E 0F F1 2F 25 52 EA DA 11 D0 0E F0 F2 05 50 1D F5
DPCM : AF 02 F5 D5 FE 2E 2F 00 DF 00 D1 1D 2A F0 5F 00 2F A0 FF 0A FF 01 FF A1 51 5F 00 DD 02 FF 52 A0
DPCM : DF 01 5A F0 0F 0D F2 A5 DF 2F 05 E0 FD 02 2D A1 0F F1 AD 2E 11 01 F2 FF 50 2F F5 EA 0D A1 E0 0F
DPCM : FA 01 D0 1D FA 0D AA 12 EF F0 2D 2F E1 DD 02 ED D2 15 D0 0F 20 FA F2 15 AD 10 2F DA FA 0A FD 15
DPCM : D5 0F E0 5D 05 52 11 EF 50 AF D1 0D F0 5F 2F D0 2F F0 0A AF 20 2A D2 DD 02 EF 22 5D ED EA 55 20
DPCM : AE 2D F1 0F 1D 50 F2 DD 00 2F D1 2E D1 D1 5F 05 D0 DF EA 0D 50 55 0F F1 01 52 EF 0D F0 2A 5F 2E
DPCM : D5 F0 1F 51 F2 D5 0A 22 A0 1A FF 5E 21 ED 2D 51 05 D1 E0 AF FE 25 EA A2 D5 1A 52 51 AE A5 2F 51
DPCM : AA 22 A2 52 DE FD 25 AF AD 5D 21 2A 55 00 FA 2E 2F F0 24 AF 1D A5 00 F5 5A AF 51 EA D0 FE 0E 50
DPCM : F0 2E 0D 1F 21 E0 FF 0A AD 25 5D AA DA FD 0F 50 25 A2 2D 00 F2 AD D2 F5 0F EA 50 FA A5 2F 20 F5
DPCM : 0A DE D5 05 D2 2D A2 0F D0 EA D5 1F 0A F0 FF 02 1D F0 AA AF 0D F0 AA 11 5D 11 DD 0D 25 FA 2E FD
DPCM : 00 FF 0A 21 F5 10 DF 25 E2 AF 01 F0 E1 2F 0A F5 2D AA 5F 10 FA 10 AF 5D 20 FF A5 12 D5 1A 22 D1
DPCM : D5 D1 0F 2E DE E1 52 DA 52 A2 AE D0 5E D5 2F A1 21 FA 0A 5F 11 E0 EF 51 21 DE AD 52 F2 AD 01 EA
DPCM : D2 AA 2F 21 EA 21 AE 1E A0 F5 D5 FE 0E 50 EA 15 DA 15 D0 5E 2D AD 0A F0 2A F5 5A 5A 2E A5 D1 D5
DPCM : 5E 25 12 EA A5 51 2F A5 55 12 FD 0E A5 5D 51 DA 12 FF 02 E2 2E 55 D5 02 EA AA AD 26 2E A2 D0 FF
DPCM : 05 51 DE 52 DA D5 15 2D 52 E5 10 DD 15 51 FA 12 D5 DE 2E 50 EA DA 0D 5D E2 AA 52 2E E5 12 DA 12
DPCM : A9 91 1A EA AD 5A DA 95 50 AA 2F 50 D2 AA 0E A1 AA
DPCMDEF   7    17 "try angle.dmc"
DPCM : CC CC CC CC CC CC CC CC CC CC CC CC CC CC CC CC CC
DPCMDEF   8    17 "try angle dos.dmc"
DPCM : F0 F0 F0 F0 F0 F0 F0 F0 F0 F0 F0 F0 F0 F0 F0 F0 F0
DPCMDEF   9   641 "boowomp"
DPCM : 55 55 55 55 55 4D 55 55 55 AA 66 66 56 55 AB 52 55 55 55 95 55 55 AB 56 4D A9 54 92 52 B5 AA 6E
DPCM : DD D5 4A 49 52 49 A5 6A B5 55 6B D5 AA 9A 48 51 22 D5 4A FD DE 6F 55 92 40 92 A4 AA 76 5B B5 6D
DPCM : A5 55 49 4A 48 22 3D 64 FF FF AF 54 08 10 11 A5 6A 77 57 77 D5 66 58 92 54 02 A2 BA C0 FF FF FF
DPCM : 93 00 00 42 92 DA DE 7A ED 75 C5 2D 82 94 94 82 E0 1E F0 FF FF FF 09 00 00 A0 A4 ED 7B DB DD 6D
DPCM : B4 13 81 24 48 88 BA 01 FD FF FF FF 03 00 00 00 6A FB EF EE F7 6A B4 0D 20 04 10 88 B6 A5 FF FF
DPCM : FF 7F 00 00 00 A0 6D B7 DB F5 BD 6D 05 A4 00 A5 54 4A 29 5B F7 FF FF 7F 00 00 00 00 FC FF DF CA
DPCM : 2A 53 55 4C 15 CC 29 B4 26 0E A5 F6 F7 FF FF 05 00 00 00 A0 F7 FF 6E AD 32 55 95 A4 94 04 6B 57
DPCM : 6D 55 25 A5 6E F7 F7 5B 00 00 00 54 DB 77 BF 77 AD 54 29 12 25 4A 95 DC 6D 55 B3 52 91 D9 ED BD
DPCM : AD 44 40 80 A4 6A BB 7B EF 56 4D 49 44 49 52 D5 56 DB 9A 69 AA 94 A4 DA 76 6F AB 84 10 42 52 EB
DPCM : EE 76 B7 2A 29 49 29 55 B5 56 B5 2A 55 55 55 55 92 6A 5B DF D7 44 40 84 24 AD 6D 6F BB 5B 25 49
DPCM : 54 52 95 56 6B 55 D6 AA 6A A5 14 91 BA F7 EF 25 00 41 A4 B4 DB 6E 5D AD D5 92 24 29 A5 AA 6D 55
DPCM : 75 2B 55 A5 14 A2 B4 DF FF 0F 00 40 4A 55 D7 5E 57 4D 6A 6B 49 92 94 54 6D AD 5C 2F D7 54 12 04
DPCM : 68 FF FF 1F 00 C0 4B 48 BB 6D B5 5B 95 A4 56 49 A2 54 B5 B6 55 B5 D5 D6 AA 00 00 FE FF FF 01 00
DPCM : FC 11 E8 5B 55 BB AA A4 52 6A 55 95 52 59 AD CA 56 BF BF 02 00 00 FF FF 03 00 FE 1F 00 FE 8F D4
DPCM : 2D 12 DB 0B D0 AF 51 94 36 6B 80 FF FF FF 00 00 C0 FF 0F 00 FC 3F 00 F8 0F E0 3F 51 BD 95 10 C2
DPCM : FF 11 49 5D 04 87 FF FF 0F 00 F0 FF 01 E0 FF 00 E0 7F 00 FC 07 B0 FE 23 C4 A7 80 BF D4 52 55 00
DPCM : DE FF FF 01 80 FF 03 E0 7F 00 FC 07 E0 3F 80 FF 80 F2 27 80 7F 04 77 E8 BF 10 D4 35 58 EC FF 00
DPCM : F8 1F E0 1F C0 1F C0 1F E0 3F E0 1F F0 0B 55 95 26 75 C5 F8 2C CE 85 6B 51 55 D3 54 95 D2 5D D2
DPCM : 55 54 55 5A 2A 57 65 55 55 55 55 55 55 55 55 56 56 69 65 55 55 55 D5 54 55 55 55 55 55 55 55 55
DPCM : 55 55 55 55 55 55 55 55 55 55 55 65 55 55 55 55 55 55 55 55 55 55 55 55 55 55 55 55 55 55 55 55
DPCM : 55

# Detune settings

# Grooves

# Tracks using default groove
# Instruments
INST2A03   0    -1  -1  -1  -1  -1 ""
INST2A03   1     8  -1  -1  -1  -1 "Pick Bass"
KEYDPCM   1   2   5     2   3   0     0  63
KEYDPCM   1   2   7     2   4   0     0  63
KEYDPCM   1   2   9     2   5   0     0  63
KEYDPCM   1   2  10     3   5   0     0  63
KEYDPCM   1   2  11     2   6   0     0  63
KEYDPCM   1   3   0     2   7   0     0  63
KEYDPCM   1   3   1     3   7   0     0  63
KEYDPCM   1   3   2     4   7   0     0  63
KEYDPCM   1   3   3     3   8   0     0  63
KEYDPCM   1   3   4     4   8   0     0  63
KEYDPCM   1   3   5     2   9   0     0  63
KEYDPCM   1   3   6     3   9   0     0  63
KEYDPCM   1   3   7     2  10   0     0  63
KEYDPCM   1   3   8     3  10   0     0  63
KEYDPCM   1   3   9     4  10   0     0  63
KEYDPCM   1   3  10     3  11   0     0  63
KEYDPCM   1   3  11     4  11   0     0  63
KEYDPCM   1   4   0     2  12   0     0  63
KEYDPCM   1   4   1     3  12   0     0  63
KEYDPCM   1   4   2     4  12   0     0  63
KEYDPCM   1   4   3     1  13   0     0  63
KEYDPCM   1   4   4     2  13   0     0  63
KEYDPCM   1   4   5     3  13   0     0  63
KEYDPCM   1   4   6     4  13   0     0  63
KEYDPCM   1   4   7     2  14   0     0  63
KEYDPCM   1   4   8     3  14   0     0  63
KEYDPCM   1   4   9     4  14   0     0  63
KEYDPCM   1   4  10     0  15   0     0  63
KEYDPCM   1   4  11     1  15   0     0  63
KEYDPCM   1   5   0     2  15   0     0  63
KEYDPCM   1   5   1     3  15   0     0  63
KEYDPCM   1   5   2     4  15   0     0  63
KEYDPCM   1   5   4     5  14   0     0  63
KEYDPCM   1   5   5     6  15   0     0   0
KEYDPCM   1   5   6     6  14   0     0   0
KEYDPCM   1   5   7     5  15   0     0  -1
KEYDPCM   1   6   0     7   0   1     0  -1
KEYDPCM   1   6   2     7   1   1     0  -1
KEYDPCM   1   6   4     7   2   1     0  -1
KEYDPCM   1   6   5     7   3   1     0  -1
KEYDPCM   1   6   7     7   4   1     0  -1
KEYDPCM   1   6   9     7   5   1     0  -1
KEYDPCM   1   6  11     7   6   1     0  -1
KEYDPCM   1   7   0     7   7   1     0  -1
KEYDPCM   1   7   2     7   8   1     0  -1
KEYDPCM   1   7   4     8  13   1     0  -1
KEYDPCM   1   7   5     7   9   1     0  -1
KEYDPCM   1   7   7     7  10   1     0  -1
KEYDPCM   1   7   9     7  11   1     0  -1
INST2A03   2     7  -1  -1  -1   2 "sample"
INST2A03   3     2  -1  -1  -1   2 "piano"
INST2A03   4     0  -1  -1  -1   0 ""
INST2A03   5    10  -1  -1  -1   3 ""
INST2A03   6    11  -1  -1  -1   1 "quiet bass"
INST2A03   7     9  -1  -1  -1   3 "02 but tri"
INST2A03   8     3   0  -1  -1   3 "kick"
INST2A03   9     4   1  -1  -1   3 "snare"
INST2A03  10     5   4  -1  -1  -1 "hat"
INST2A03  11     6   4  -1  -1  -1 "long hat"
INST2A03  12     7  -1   0  -1  -1 "triangle drums"
INST2A03  13    11   2  -1  -1   2 "0 12"
INST2A03  14    12  -1  -1  -1  -1 "triangle pluck"
INST2A03  15    14  -1  -1  -1  -1 "triangle pluck 2"
INST2A03  16    -1  -1  -1  -1   3 "blank width 0"
INST2A03  17    -1  -1  -1  -1   4 "blank width 1"
INST2A03  18    -1  -1  -1  -1   2 "blank width 2"
INST2A03  19    -1  -1  -1  -1   1 "blank width 3"
INST2A03  20    -1  -1  -1  -1  -1 ""
INST2A03  21    30  -1  -1  -1   6 "clutterfunk dubst"
INST2A03  22    31  -1  -1  -1  -1 "polargeist tri pluck"

# Tracks

TRACK  64   6 150 "New song"
COLUMNS : 1 1 1 1 1

ORDER 00 : 00 00 00 00 00

TRACK  64   6 160 "Stereo Madness"
COLUMNS : 1 1 1 1 1

ORDER 00 : 01 00 00 00 00
ORDER 01 : 01 00 00 00 00
ORDER 02 : 01 01 03 02 00
ORDER 03 : 01 01 03 02 00
ORDER 04 : 00 02 00 03 00
ORDER 05 : 01 01 01 04 02
ORDER 06 : 01 01 02 04 02
ORDER 07 : 01 01 01 04 02
ORDER 08 : 01 01 02 04 02
ORDER 09 : 00 00 01 04 02
ORDER 0A : 00 00 02 04 02
ORDER 0B : 00 00 01 04 02
ORDER 0C : 00 00 02 04 02
ORDER 0D : 04 04 00 00 03
ORDER 0E : 05 05 00 00 03

PATTERN 00
ROW 00 : --- .. . ... : --- .. . ... : ... .. . ... : ... .. . ... : ... .. . ...
ROW 01 : ... .. . ... : ... .. . ... : ... .. . ... : ... .. . ... : ... .. . ...
ROW 02 : ... .. . ... : ... .. . ... : ... .. . ... : ... .. . ... : ... .. . ...
ROW 03 : ... .. . ... : ... .. . ... : ... .. . ... : ... .. . ... : ... .. . ...
ROW 04 : ... .. . ... : ... .. . ... : ... .. . ... : ... .. . ... : ... .. . ...
ROW 05 : ... .. . ... : ... .. . ... : ... .. . ... : ... .. . ... : ... .. . ...
ROW 06 : ... .. . ... : ... .. . ... : ... .. . ... : ... .. . ... : ... .. . ...
ROW 07 : ... .. . ... : ... .. . ... : ... .. . ... : ... .. . ... : ... .. . ...
ROW 08 : ... .. . ... : ... .. . ... : ... .. . ... : ... .. . ... : ... .. . ...
ROW 09 : ... .. . ... : ... .. . ... : ... .. . ... : ... .. . ... : ... .. . ...
ROW 0A : ... .. . ... : ... .. . ... : ... .. . ... : ... .. . ... : ... .. . ...
ROW 0B : ... .. . ... : ... .. . ... : ... .. . ... : ... .. . ... : ... .. . ...
ROW 0C : ... .. . ... : ... .. . ... : ... .. . ... : ... .. . ... : ... .. . ...
ROW 0D : ... .. . ... : ... .. . ... : ... .. . ... : ... .. . ... : ... .. . ...
ROW 0E : ... .. . ... : ... .. . ... : ... .. . ... : ... .. . ... : ... .. . ...
ROW 0F : ... .. . ... : ... .. . ... : ... .. . ... : ... .. . ... : ... .. . ...
ROW 10 : ... .. . ... : ... .. . ... : ... .. . ... : ... .. . ... : ... .. . ...
ROW 11 : ... .. . ... : ... .. . ... : ... .. . ... : ... .. . ... : ... .. . ...
ROW 12 : ... .. . ... : ... .. . ... : ... .. . ... : ... .. . ... : ... .. . ...
ROW 13 : ... .. . ... : ... .. . ... : ... .. . ... : ... .. . ... : ... .. . ...
ROW 14 : ... .. . ... : ... .. . ... : ... .. . ... : ... .. . ... : ... .. . ...
ROW 15 : ... .. . ... : ... .. . ... : ... .. . ... : ... .. . ... : ... .. . ...
ROW 16 : ... .. . ... : ... .. . ... : ... .. . ... : ... .. . ... : ... .. . ...
ROW 17 : ... .. . ... : ... .. . ... : ... .. . ... : ... .. . ... : ... .. . ...
ROW 18 : ... .. . ... : ... .. . ... : ... .. . ... : ... .. . ... : ... .. . ...
ROW 19 : ... .. . ... : ... .. . ... : ... .. . ... : ... .. . ... : ... .. . ...
ROW 1A : ... .. . ... : ... .. . ... : ... .. . ... : ... .. . ... : ... .. . ...
ROW 1B : ... .. . ... : ... .. . ... : ... .. . ... : ... .. . ... : ... .. . ...
ROW 1C : ... .. . ... : ... .. . ... : ... .. . ... : ... .. . ... : ... .. . ...
ROW 1D : ... .. . ... : ... .. . ... : ... .. . ... : ... .. . ... : ... .. . ...
ROW 1E : ... .. . ... : ... .. . ... : ... .. . ... : ... .. . ... : ... .. . ...
ROW 1F : ... .. . ... : ... .. . ... : ... .. . ... : ... .. . ... : ... .. . ...
ROW 20 : ... .. . ... : ... .. . ... : ... .. . ... : ... .. . ... : ... .. . ...
ROW 21 : ... .. . ... : ... .. . ... : ... .. . ... : ... .. . ... : ... .. . ...
ROW 22 : ... .. . ... : ... .. . ... : ... .. . ... : ... .. . ... : ... .. . ...
ROW 23 : ... .. . ... : ... .. . ... : ... .. . ... : ... .. . ... : ... .. . ...
ROW 24 : ... .. . ... : ... .. . ... : ... .. . ... : ... .. . ... : ... .. . ...
ROW 25 : ... .. . ... : ... .. . ... : ... .. . ... : ... .. . ... : ... .. . ...
ROW 26 : ... .. . ... : ... .. . ... : ... .. . ... : ... .. . ... : ... .. . ...
ROW 27 : ... .. . ... : ... .. . ... : ... .. . ... : ... .. . ... : ... .. . ...
ROW 28 : ... .. . ... : ... .. . ... : ... .. . ... : ... .. . ... : ... .. . ...
ROW 29 : ... .. . ... : ... .. . ... : ... .. . ... : ... .. . ... : ... .. . ...
ROW 2A : ... .. . ... : ... .. . ... : ... .. . ... : ... .. . ... : ... .. . ...
ROW 2B : ... .. . ... : ... .. . ... : ... .. . ... : ... .. . ... : ... .. . ...
ROW 2C : ... .. . ... : ... .. . ... : ... .. . ... : ... .. . ... : ... .. . ...
ROW 2D : ... .. . ... : ... .. . ... : ... .. . ... : ... .. . ... : ... .. . ...
ROW 2E : ... .. . ... : ... .. . ... : ... .. . ... : ... .. . ... : ... .. . ...
ROW 2F : ... .. . ... : ... .. . ... : ... .. . ... : ... .. . ... : ... .. . ...
ROW 30 : ... .. . ... : ... .. . ... : ... .. . ... : ... .. . ... : ... .. . ...
ROW 31 : ... .. . ... : ... .. . ... : ... .. . ... : ... .. . ... : ... .. . ...
ROW 32 : ... .. . ... : ... .. . ... : ... .. . ... : ... .. . ... : ... .. . ...
ROW 33 : ... .. . ... : ... .. . ... : ... .. . ... : ... .. . ... : ... .. . ...
ROW 34 : ... .. . ... : ... .. . ... : ... .. . ... : ... .. . ... : ... .. . ...
ROW 35 : ... .. . ... : ... .. . ... : ... .. . ... : ... .. . ... : ... .. . ...
ROW 36 : ... .. . ... : ... .. . ... : ... .. . ... : ... .. . ... : ... .. . ...
ROW 37 : ... .. . ... : ... .. . ... : ... .. . ... : ... .. . ... : ... .. . ...
ROW 38 : ... .. . ... : ... .. . ... : ... .. . ... : ... .. . ... : ... .. . ...
ROW 39 : ... .. . ... : ... .. . ... : ... .. . ... : ... .. . ... : ... .. . ...
ROW 3A : ... .. . ... : ... .. . ... : ... .. . ... : ... .. . ... : ... .. . ...
ROW 3B : ... .. . ... : ... .. . ... : ... .. . ... : ... .. . ... : ... .. . ...
ROW 3C : ... .. . ... : ... .. . ... : ... .. . ... : ... .. . ... : ... .. . ...
ROW 3D : ... .. . ... : ... .. . ... : ... .. . ... : ... .. . ... : ... .. . ...
ROW 3E : ... .. . ... : ... .. . ... : ... .. . ... : ... .. . ... : ... .. . ...
ROW 3F : ... .. . ... : ... .. . ... : ... .. . ... : ... .. . ... : ... .. . ...

PATTERN 01
ROW 00 : C-4 03 F ... : C-2 06 . ... : C-5 0F . ... : ... .. . ... : ... .. . ...
ROW 01 : ... .. . ... : ... .. . ... : C-5 0E . ... : ... .. . ... : ... .. . ...
ROW 02 : G-4 03 F ... : ... .. . ... : C-5 0F . ... : ... .. . ... : ... .. . ...
ROW 03 : C-4 12 3 ... : ... .. . ... : C-5 0E . ... : ... .. . ... : ... .. . ...
ROW 04 : C-4 03 F ... : ... .. . ... : C-5 0F . ... : ... .. . ... : ... .. . ...
ROW 05 : G-4 12 3 ... : ... .. . ... : C-5 0E . ... : ... .. . ... : ... .. . ...
ROW 06 : G-4 03 F ... : ... .. . ... : C-5 0F . ... : ... .. . ... : ... .. . ...
ROW 07 : C-4 12 3 ... : ... .. . ... : C-5 0F . ... : ... .. . ... : ... .. . ...
ROW 08 : C-4 03 F ... : ... .. . ... : C-5 0E . ... : ... .. . ... : ... .. . ...
ROW 09 : G-4 12 3 ... : ... .. . ... : C-5 0F . ... : ... .. . ... : ... .. . ...
ROW 0A : G-4 03 F ... : ... .. . ... : C-5 0F . ... : ... .. . ... : ... .. . ...
ROW 0B : C-4 12 3 ... : ... .. . ... : C-5 0E . ... : ... .. . ... : ... .. . ...
ROW 0C : C-4 03 F ... : ... .. . ... : C-5 0F . ... : ... .. . ... : ... .. . ...
ROW 0D : G-4 12 3 ... : ... .. . ... : C-5 0E . ... : ... .. . ... : ... .. . ...
ROW 0E : G-4 03 F ... : ... .. . ... : C-5 0F . ... : ... .. . ... : ... .. . ...
ROW 0F : C-4 12 3 ... : ... .. . ... : C-5 0F . ... : ... .. . ... : ... .. . ...
ROW 10 : G-3 03 F ... : G-1 06 . ... : C-5 0F . ... : ... .. . ... : ... .. . ...
ROW 11 : G-4 12 3 ... : ... .. . ... : C-5 0E . ... : ... .. . ... : ... .. . ...
ROW 12 : D-4 03 F ... : ... .. . ... : B-4 0F . ... : ... .. . ... : ... .. . ...
ROW 13 : G-3 12 3 ... : ... .. . ... : B-4 0E . ... : ... .. . ... : ... .. . ...
ROW 14 : G-3 03 F ... : ... .. . ... : B-4 0F . ... : ... .. . ... : ... .. . ...
ROW 15 : D-4 12 3 ... : ... .. . ... : B-4 0E . ... : ... .. . ... : ... .. . ...
ROW 16 : D-4 03 F ... : ... .. . ... : B-4 0F . ... : ... .. . ... : ... .. . ...
ROW 17 : G-3 12 3 ... : ... .. . ... : B-4 0F . ... : ... .. . ... : ... .. . ...
ROW 18 : G-3 03 F ... : ... .. . ... : B-4 0E . ... : ... .. . ... : ... .. . ...
ROW 19 : D-4 12 3 ... : ... .. . ... : B-4 0F . ... : ... .. . ... : ... .. . ...
ROW 1A : D-4 03 F ... : ... .. . ... : B-4 0F . ... : ... .. . ... : ... .. . ...
ROW 1B : G-3 12 3 ... : ... .. . ... : B-4 0E . ... : ... .. . ... : ... .. . ...
ROW 1C : G-3 03 F ... : ... .. . ... : B-4 0F . ... : ... .. . ... : ... .. . ...
ROW 1D : D-4 12 3 ... : ... .. . ... : B-4 0E . ... : ... .. . ... : ... .. . ...
ROW 1E : D-4 03 F ... : ... .. . ... : B-4 0F . ... : ... .. . ... : ... .. . ...
ROW 1F : G-3 12 3 ... : ... .. . ... : B-4 0F . ... : ... .. . ... : ... .. . ...
ROW 20 : A-3 03 F ... : A-1 06 . ... : C-5 0F . ... : ... .. . ... : ... .. . ...
ROW 21 : D-4 12 3 ... : ... .. . ... : C-5 0E . ... : ... .. . ... : ... .. . ...
ROW 22 : E-4 03 F ... : ... .. . ... : C-5 0F . ... : ... .. . ... : ... .. . ...
ROW 23 : A-3 12 3 ... : ... .. . ... : C-5 0E . ... : ... .. . ... : ... .. . ...
ROW 24 : A-3 03 F ... : ... .. . ... : C-5 0F . ... : ... .. . ... : ... .. . ...
ROW 25 : E-4 12 3 ... : ... .. . ... : C-5 0E . ... : ... .. . ... : ... .. . ...
ROW 26 : E-4 03 F ... : ... .. . ... : C-5 0F . ... : ... .. . ... : ... .. . ...
ROW 27 : A-3 12 3 ... : ... .. . ... : C-5 0F . ... : ... .. . ... : ... .. . ...
ROW 28 : A-3 03 F ... : ... .. . ... : C-5 0E . ... : ... .. . ... : ... .. . ...
ROW 29 : E-4 12 3 ... : ... .. . ... : C-5 0F . ... : ... .. . ... : ... .. . ...
ROW 2A : E-4 03 F ... : ... .. . ... : C-5 0F . ... : ... .. . ... : ... .. . ...
ROW 2B : A-3 12 3 ... : ... .. . ... : C-5 0E . ... : ... .. . ... : ... .. . ...
ROW 2C : A-3 03 F ... : ... .. . ... : C-5 0F . ... : ... .. . ... : ... .. . ...
ROW 2D : E-4 12 3 ... : ... .. . ... : C-5 0E . ... : ... .. . ... : ... .. . ...
ROW 2E : E-4 03 F ... : ... .. . ... : C-5 0F . ... : ... .. . ... : ... .. . ...
ROW 2F : A-3 12 3 ... : ... .. . ... : C-5 0F . ... : ... .. . ... : ... .. . ...
ROW 30 : F-3 03 F ... : F-1 06 . ... : C-5 0F . ... : ... .. . ... : ... .. . ...
ROW 31 : E-4 12 3 ... : ... .. . ... : C-5 0E . ... : ... .. . ... : ... .. . ...
ROW 32 : C-4 03 F ... : ... .. . ... : D-5 0F . ... : ... .. . ... : ... .. . ...
ROW 33 : F-3 12 3 ... : ... .. . ... : D-5 0E . ... : ... .. . ... : ... .. . ...
ROW 34 : F-3 03 F ... : ... .. . ... : D-5 0F . ... : ... .. . ... : ... .. . ...
ROW 35 : C-4 12 3 ... : ... .. . ... : D-5 0E . ... : ... .. . ... : ... .. . ...
ROW 36 : C-4 03 F ... : ... .. . ... : D-5 0F . ... : ... .. . ... : ... .. . ...
ROW 37 : F-3 12 3 ... : ... .. . ... : D-5 0F . ... : ... .. . ... : ... .. . ...
ROW 38 : F-3 03 F ... : ... .. . ... : D-5 0E . ... : ... .. . ... : ... .. . ...
ROW 39 : C-4 12 3 ... : ... .. . ... : D-5 0F . ... : ... .. . ... : ... .. . ...
ROW 3A : C-4 03 F ... : ... .. . ... : D-5 0F . ... : ... .. . ... : ... .. . ...
ROW 3B : F-3 12 3 ... : ... .. . ... : D-5 0E . ... : ... .. . ... : ... .. . ...
ROW 3C : F-3 03 F ... : ... .. . ... : D-5 0F . ... : ... .. . ... : ... .. . ...
ROW 3D : C-4 12 3 ... : ... .. . ... : D-5 0E . ... : ... .. . ... : ... .. . ...
ROW 3E : C-4 03 F ... : ... .. . ... : D-5 0F . ... : ... .. . ... : ... .. . ...
ROW 3F : F-3 12 3 ... : ... .. . ... : D-5 0F . ... : ... .. . ... : ... .. . ...

PATTERN 02
ROW 00 : ... .. . ... : --- .. . ... : C-5 0F . ... : 0-# 08 . ... : E-5 01 . ...
ROW 01 : ... .. . ... : ... .. . ... : C-5 0E . ... : ... .. . ... : ... .. . ...
ROW 02 : ... .. . ... : ... .. . ... : C-5 0F . ... : D-# 0A . ... : C-4 01 . ...
ROW 03 : ... .. . ... : ... .. . ... : C-5 0E . ... : ... .. . ... : ... .. . ...
ROW 04 : ... .. . ... : ... .. . ... : C-5 0F . ... : 0-# 09 . ... : F-5 01 . ...
ROW 05 : ... .. . ... : ... .. . ... : C-5 0E . ... : --- 15 . ... : ... .. . ...
ROW 06 : ... .. . ... : ... .. . ... : C-5 0F . ... : D-# 0A . ... : C-4 01 . ...
ROW 07 : ... .. . ... : ... .. . ... : C-5 0F . ... : F-# 0A . ... : ... .. . ...
ROW 08 : ... .. . ... : ... .. . ... : C-5 0E . ... : 0-# 08 . ... : E-5 01 . ...
ROW 09 : ... .. . ... : ... .. . ... : C-5 0F . ... : F-# 0A . ... : ... .. . ...
ROW 0A : ... .. . ... : ... .. . ... : C-5 0F . ... : D-# 0A . ... : C-4 01 . ...
ROW 0B : ... .. . ... : ... .. . ... : C-5 0E . ... : ... .. . ... : ... .. . ...
ROW 0C : ... .. . ... : ... .. . ... : C-5 0F . ... : 0-# 09 . ... : F-5 01 . ...
ROW 0D : ... .. . ... : ... .. . ... : C-5 0E . ... : --- .. . ... : ... .. . ...
ROW 0E : ... .. . ... : ... .. . ... : C-5 0F . ... : D-# 0A . ... : C-4 01 . ...
ROW 0F : ... .. . ... : ... .. . D00 : C-5 0F . ... : F-# 0A . ... : ... .. . ...
ROW 10 : ... .. . ... : ... .. . ... : C-5 0F . ... : 0-# 08 . ... : E-5 01 . ...
ROW 11 : ... .. . ... : ... .. . ... : C-5 0E . ... : ... .. . ... : ... .. . ...
ROW 12 : ... .. . ... : ... .. . ... : B-4 0F . ... : D-# 0A . ... : G-3 01 . ...
ROW 13 : ... .. . ... : ... .. . ... : B-4 0E . ... : ... .. . ... : ... .. . ...
ROW 14 : ... .. . ... : ... .. . ... : B-4 0F . ... : 0-# 09 . ... : F-5 01 . ...
ROW 15 : ... .. . ... : ... .. . ... : B-4 0E . ... : --- .. . ... : ... .. . ...
ROW 16 : ... .. . ... : ... .. . ... : B-4 0F . ... : D-# 0A . ... : G-3 01 . ...
ROW 17 : ... .. . ... : ... .. . ... : B-4 0F . ... : F-# 0A . ... : ... .. . ...
ROW 18 : ... .. . ... : ... .. . ... : B-4 0E . ... : 0-# 08 . ... : E-5 01 . ...
ROW 19 : ... .. . ... : ... .. . ... : B-4 0F . ... : F-# 0A . ... : ... .. . ...
ROW 1A : ... .. . ... : ... .. . ... : B-4 0F . ... : D-# 0A . ... : G-3 01 . ...
ROW 1B : ... .. . ... : ... .. . ... : B-4 0E . ... : ... .. . ... : ... .. . ...
ROW 1C : ... .. . ... : ... .. . ... : B-4 0F . ... : 0-# 09 . ... : F-5 01 . ...
ROW 1D : ... .. . ... : ... .. . ... : B-4 0E . ... : --- .. . ... : ... .. . ...
ROW 1E : ... .. . ... : ... .. . ... : B-4 0F . ... : D-# 0A . ... : G-3 01 . ...
ROW 1F : ... .. . ... : ... .. . ... : B-4 0F . ... : F-# 0A . ... : ... .. . ...
ROW 20 : ... .. . ... : ... .. . ... : C-5 0F . ... : 0-# 08 . ... : E-5 01 . ...
ROW 21 : ... .. . ... : ... .. . ... : C-5 0E . ... : ... .. . ... : ... .. . ...
ROW 22 : ... .. . ... : ... .. . ... : C-5 0F . ... : D-# 0A . ... : A-3 01 . ...
ROW 23 : ... .. . ... : ... .. . ... : C-5 0E . ... : ... .. . ... : ... .. . ...
ROW 24 : ... .. . ... : ... .. . ... : C-5 0F . ... : 0-# 09 . ... : F-5 01 . ...
ROW 25 : ... .. . ... : ... .. . ... : C-5 0E . ... : --- .. . ... : ... .. . ...
ROW 26 : ... .. . ... : ... .. . ... : C-5 0F . ... : D-# 0A . ... : A-3 01 . ...
ROW 27 : ... .. . ... : ... .. . ... : C-5 0F . ... : F-# 0A . ... : ... .. . ...
ROW 28 : ... .. . ... : ... .. . ... : C-5 0E . ... : 0-# 08 . ... : E-5 01 . ...
ROW 29 : ... .. . ... : ... .. . ... : C-5 0F . ... : F-# 0A . ... : ... .. . ...
ROW 2A : ... .. . ... : ... .. . ... : C-5 0F . ... : D-# 0A . ... : A-3 01 . ...
ROW 2B : ... .. . ... : ... .. . ... : C-5 0E . ... : ... .. . ... : ... .. . ...
ROW 2C : ... .. . ... : ... .. . ... : C-5 0F . ... : 0-# 09 . ... : F-5 01 . ...
ROW 2D : ... .. . ... : ... .. . ... : C-5 0E . ... : --- .. . ... : ... .. . ...
ROW 2E : ... .. . ... : ... .. . ... : C-5 0F . ... : D-# 0A . ... : A-3 01 . ...
ROW 2F : ... .. . ... : ... .. . ... : C-5 0F . ... : F-# 0A . ... : ... .. . ...
ROW 30 : ... .. . ... : ... .. . ... : C-5 0F . ... : 0-# 08 . ... : E-5 01 . ...
ROW 31 : ... .. . ... : ... .. . ... : C-5 0E . ... : ... .. . ... : ... .. . ...
ROW 32 : ... .. . ... : ... .. . ... : D-5 0F . ... : D-# 0A . ... : F-3 01 . ...
ROW 33 : ... .. . ... : ... .. . ... : D-5 0E . ... : ... .. . ... : ... .. . ...
ROW 34 : ... .. . ... : ... .. . ... : D-5 0F . ... : 0-# 09 . ... : F-5 01 . ...
ROW 35 : ... .. . ... : ... .. . ... : D-5 0E . ... : --- .. . ... : ... .. . ...
ROW 36 : ... .. . ... : ... .. . ... : D-5 0F . ... : D-# 0A . ... : F-3 01 . ...
ROW 37 : ... .. . ... : ... .. . ... : D-5 0F . ... : F-# 0A . ... : ... .. . ...
ROW 38 : ... .. . ... : ... .. . ... : D-5 0E . ... : 0-# 08 . ... : E-5 01 . ...
ROW 39 : ... .. . ... : ... .. . ... : D-5 0F . ... : F-# 0A . ... : ... .. . ...
ROW 3A : ... .. . ... : ... .. . ... : E-5 0F . ... : D-# 0A . ... : F-3 01 . ...
ROW 3B : ... .. . ... : ... .. . ... : E-5 0E . ... : ... .. . ... : ... .. . ...
ROW 3C : ... .. . ... : ... .. . ... : E-5 0F . ... : 0-# 09 . ... : F-5 01 . ...
ROW 3D : ... .. . ... : ... .. . ... : E-5 0E . ... : --- .. . ... : ... .. . ...
ROW 3E : ... .. . ... : ... .. . ... : E-5 0F . ... : D-# 0A . ... : F-3 01 . ...
ROW 3F : ... .. . ... : ... .. . ... : E-5 0F . ... : F-# 0A . ... : ... .. . ...

PATTERN 03
ROW 00 : ... .. . ... : ... .. . ... : D-3 0C . ... : ... .. . ... : C-4 01 . ...
ROW 01 : ... .. . ... : ... .. . ... : --- .. . ... : ... .. . ... : ... .. . ...
ROW 02 : ... .. . ... : ... .. . ... : ... .. . ... : ... .. . ... : C-4 01 . ...
ROW 03 : ... .. . ... : ... .. . ... : ... .. . ... : ... .. . ... : ... .. . ...
ROW 04 : ... .. . ... : ... .. . ... : A-3 0C . ... : ... .. . ... : C-4 01 . ...
ROW 05 : ... .. . ... : ... .. . ... : ... .. . ... : ... .. . ... : ... .. . ...
ROW 06 : ... .. . ... : ... .. . ... : --- .. . ... : ... .. . ... : C-4 01 . ...
ROW 07 : ... .. . ... : ... .. . ... : ... .. . ... : ... .. . ... : ... .. . ...
ROW 08 : ... .. . ... : ... .. . ... : D-3 0C . ... : B-# 01 1 ... : C-4 01 . ...
ROW 09 : ... .. . ... : ... .. . ... : --- .. . ... : ... .. 2 ... : ... .. . ...
ROW 0A : ... .. . ... : ... .. . ... : ... .. . ... : ... .. 3 ... : C-4 01 . ...
ROW 0B : ... .. . ... : ... .. . ... : ... .. . ... : ... .. 5 ... : ... .. . ...
ROW 0C : ... .. . ... : ... .. . ... : A-3 0C . ... : ... .. 7 ... : C-4 01 . ...
ROW 0D : ... .. . ... : ... .. . ... : ... .. . ... : ... .. A ... : ... .. . ...
ROW 0E : ... .. . ... : ... .. . ... : --- .. . ... : ... .. C ... : C-4 01 . ...
ROW 0F : ... .. . ... : ... .. . ... : ... .. . ... : ... .. F ... : ... .. . ...
ROW 10 : ... .. . ... : ... .. . ... : D-3 0C . ... : ... .. . ... : C-4 01 . ...
ROW 11 : ... .. . ... : ... .. . ... : --- .. . ... : ... .. . ... : ... .. . ...
ROW 12 : ... .. . ... : ... .. . ... : ... .. . ... : ... .. . ... : G-3 01 . ...
ROW 13 : ... .. . ... : ... .. . ... : ... .. . ... : ... .. . ... : ... .. . ...
ROW 14 : ... .. . ... : ... .. . ... : A-3 0C . ... : ... .. . ... : G-3 01 . ...
ROW 15 : ... .. . ... : ... .. . ... : ... .. . ... : ... .. . ... : ... .. . ...
ROW 16 : ... .. . ... : ... .. . ... : --- .. . ... : ... .. . ... : G-3 01 . ...
ROW 17 : ... .. . ... : ... .. . ... : ... .. . ... : ... .. . ... : ... .. . ...
ROW 18 : ... .. . ... : ... .. . ... : D-3 0C . ... : ... .. . ... : G-3 01 . ...
ROW 19 : ... .. . ... : ... .. . ... : --- .. . ... : ... .. . ... : ... .. . ...
ROW 1A : ... .. . ... : ... .. . ... : ... .. . ... : ... .. . ... : G-3 01 . ...
ROW 1B : ... .. . ... : ... .. . ... : ... .. . ... : ... .. . ... : ... .. . ...
ROW 1C : ... .. . ... : ... .. . ... : A-3 0C . ... : ... .. . ... : G-3 01 . ...
ROW 1D : ... .. . ... : ... .. . ... : ... .. . ... : ... .. . ... : ... .. . ...
ROW 1E : ... .. . ... : ... .. . ... : --- .. . ... : ... .. . ... : G-3 01 . ...
ROW 1F : ... .. . ... : ... .. . ... : ... .. . ... : ... .. . ... : ... .. . ...
ROW 20 : ... .. . ... : ... .. . ... : D-3 0C . ... : ... .. . ... : A-3 01 . ...
ROW 21 : ... .. . ... : ... .. . ... : --- .. . ... : ... .. . ... : ... .. . ...
ROW 22 : ... .. . ... : ... .. . ... : ... .. . ... : ... .. . ... : A-3 01 . ...
ROW 23 : ... .. . ... : ... .. . ... : ... .. . ... : ... .. . ... : ... .. . ...
ROW 24 : ... .. . ... : ... .. . ... : A-3 0C . ... : ... .. . ... : A-3 01 . ...
ROW 25 : ... .. . ... : ... .. . ... : ... .. . ... : ... .. . ... : ... .. . ...
ROW 26 : ... .. . ... : ... .. . ... : --- .. . ... : ... .. . ... : A-3 01 . ...
ROW 27 : ... .. . ... : ... .. . ... : ... .. . ... : ... .. . ... : ... .. . ...
ROW 28 : ... .. . ... : ... .. . ... : D-3 0C . ... : ... .. . ... : A-3 01 . ...
ROW 29 : ... .. . ... : ... .. . ... : --- .. . ... : ... .. . ... : ... .. . ...
ROW 2A : ... .. . ... : ... .. . ... : ... .. . ... : ... .. . ... : A-3 01 . ...
ROW 2B : ... .. . ... : ... .. . ... : ... .. . ... : ... .. . ... : ... .. . ...
ROW 2C : ... .. . ... : ... .. . ... : A-3 0C . ... : ... .. . ... : A-3 01 . ...
ROW 2D : ... .. . ... : ... .. . ... : ... .. . ... : ... .. . ... : ... .. . ...
ROW 2E : ... .. . ... : ... .. . ... : --- .. . ... : ... .. . ... : A-3 01 . ...
ROW 2F : ... .. . ... : ... .. . ... : ... .. . ... : ... .. . ... : ... .. . ...
ROW 30 : ... .. . ... : ... .. . ... : D-3 0C . ... : ... .. . ... : A-3 01 . ...
ROW 31 : ... .. . ... : ... .. . ... : --- .. . ... : ... .. . ... : ... .. . ...
ROW 32 : ... .. . ... : ... .. . ... : ... .. . ... : ... .. . ... : F-3 01 . ...
ROW 33 : ... .. . ... : ... .. . ... : ... .. . ... : ... .. . ... : ... .. . ...
ROW 34 : ... .. . ... : ... .. . ... : A-3 0C . ... : ... .. . ... : F-3 01 . ...
ROW 35 : ... .. . ... : ... .. . ... : ... .. . ... : ... .. . ... : ... .. . ...
ROW 36 : ... .. . ... : ... .. . ... : --- .. . ... : ... .. . ... : F-3 01 . ...
ROW 37 : ... .. . ... : ... .. . ... : ... .. . ... : ... .. . ... : ... .. . ...
ROW 38 : ... .. . ... : ... .. . ... : D-3 0C . ... : ... .. . ... : F-3 01 . ...
ROW 39 : ... .. . ... : ... .. . ... : --- .. . ... : ... .. . ... : ... .. . ...
ROW 3A : ... .. . ... : ... .. . ... : ... .. . ... : ... .. . ... : F-3 01 . ...
ROW 3B : ... .. . ... : ... .. . ... : ... .. . ... : ... .. . ... : ... .. . ...
ROW 3C : ... .. . ... : ... .. . ... : A-3 0C . ... : ... .. . ... : F-3 01 . ...
ROW 3D : ... .. . ... : ... .. . ... : ... .. . ... : ... .. . ... : ... .. . ...
ROW 3E : ... .. . ... : ... .. . ... : --- .. . ... : ... .. . ... : F-3 01 . ...
ROW 3F : ... .. . ... : ... .. . ... : ... .. . ... : ... .. . ... : ... .. . ...

PATTERN 04
ROW 00 : C-5 04 F ... : ... .. . ... : ... .. . ... : 0-# 08 F ... : ... .. . ...
ROW 01 : ... .. . ... : C-4 05 . P81 : ... .. . ... : ... .. . ... : ... .. . ...
ROW 02 : ... .. . ... : ... .. . ... : ... .. . ... : D-# 0A . ... : ... .. . ...
ROW 03 : C-5 04 . ... : ... .. . ... : ... .. . ... : ... .. . ... : ... .. . ...
ROW 04 : ... .. . ... : C-4 05 . ... : ... .. . ... : 0-# 09 . ... : ... .. . ...
ROW 05 : ... .. . ... : ... .. . ... : ... .. . ... : ... .. . ... : ... .. . ...
ROW 06 : C-5 04 . ... : ... .. . ... : ... .. . ... : D-# 0A . ... : ... .. . ...
ROW 07 : ... .. . ... : C-4 05 . ... : ... .. . ... : F-# 0A . ... : ... .. . ...
ROW 08 : ... .. . ... : ... .. . ... : ... .. . ... : 0-# 08 . ... : ... .. . ...
ROW 09 : C-5 04 . ... : ... .. . ... : ... .. . ... : F-# 0A . ... : ... .. . ...
ROW 0A : ... .. . ... : C-4 05 . ... : ... .. . ... : D-# 0A . ... : ... .. . ...
ROW 0B : ... .. . ... : ... .. . ... : ... .. . ... : ... .. . ... : ... .. . ...
ROW 0C : C-5 04 . ... : ... .. . ... : ... .. . ... : 0-# 09 . ... : ... .. . ...
ROW 0D : ... .. . ... : C-4 05 . ... : ... .. . ... : ... .. . ... : ... .. . ...
ROW 0E : ... .. . ... : ... .. . ... : ... .. . ... : D-# 0A . ... : ... .. . ...
ROW 0F : C-5 04 . ... : ... .. . ... : ... .. . ... : F-# 0A . ... : ... .. . ...
ROW 10 : ... .. . ... : C-4 05 . ... : ... .. . ... : 0-# 08 . ... : ... .. . ...
ROW 11 : ... .. . ... : ... .. . ... : ... .. . ... : ... .. . ... : ... .. . ...
ROW 12 : B-4 04 . ... : ... .. . ... : ... .. . ... : D-# 0A . ... : ... .. . ...
ROW 13 : ... .. . ... : B-3 05 . ... : ... .. . ... : ... .. . ... : ... .. . ...
ROW 14 : ... .. . ... : ... .. . ... : ... .. . ... : 0-# 09 . ... : ... .. . ...
ROW 15 : B-4 04 . ... : ... .. . ... : ... .. . ... : ... .. . ... : ... .. . ...
ROW 16 : ... .. . ... : B-3 05 . ... : ... .. . ... : D-# 0A . ... : ... .. . ...
ROW 17 : ... .. . ... : ... .. . ... : ... .. . ... : F-# 0A . ... : ... .. . ...
ROW 18 : B-4 04 . ... : ... .. . ... : ... .. . ... : 0-# 08 . ... : ... .. . ...
ROW 19 : ... .. . ... : B-3 05 . ... : ... .. . ... : F-# 0A . ... : ... .. . ...
ROW 1A : ... .. . ... : ... .. . ... : ... .. . ... : D-# 0A . ... : ... .. . ...
ROW 1B : B-4 04 . ... : ... .. . ... : ... .. . ... : ... .. . ... : ... .. . ...
ROW 1C : ... .. . ... : B-3 05 . ... : ... .. . ... : 0-# 09 . ... : ... .. . ...
ROW 1D : ... .. . ... : ... .. . ... : ... .. . ... : ... .. . ... : ... .. . ...
ROW 1E : B-4 04 . ... : ... .. . ... : ... .. . ... : D-# 0A . ... : ... .. . ...
ROW 1F : ... .. . ... : B-3 05 . ... : ... .. . ... : F-# 0A . ... : ... .. . ...
ROW 20 : C-5 04 . ... : ... .. . ... : ... .. . ... : 0-# 08 . ... : ... .. . ...
ROW 21 : ... .. . ... : C-4 05 . ... : ... .. . ... : ... .. . ... : ... .. . ...
ROW 22 : ... .. . ... : ... .. . ... : ... .. . ... : D-# 0A . ... : ... .. . ...
ROW 23 : C-5 04 . ... : ... .. . ... : ... .. . ... : ... .. . ... : ... .. . ...
ROW 24 : ... .. . ... : C-4 05 . ... : ... .. . ... : 0-# 09 . ... : ... .. . ...
ROW 25 : ... .. . ... : ... .. . ... : ... .. . ... : ... .. . ... : ... .. . ...
ROW 26 : C-5 04 . ... : ... .. . ... : ... .. . ... : D-# 0A . ... : ... .. . ...
ROW 27 : ... .. . ... : C-4 05 . ... : ... .. . ... : F-# 0A . ... : ... .. . ...
ROW 28 : ... .. . ... : ... .. . ... : ... .. . ... : 0-# 08 . ... : ... .. . ...
ROW 29 : C-5 04 . ... : ... .. . ... : ... .. . ... : F-# 0A . ... : ... .. . ...
ROW 2A : ... .. . ... : C-4 05 . ... : ... .. . ... : D-# 0A . ... : ... .. . ...
ROW 2B : ... .. . ... : ... .. . ... : ... .. . ... : ... .. . ... : ... .. . ...
ROW 2C : C-5 04 . ... : ... .. . ... : ... .. . ... : 0-# 09 . ... : ... .. . ...
ROW 2D : ... .. . ... : C-4 05 . ... : ... .. . ... : ... .. . ... : ... .. . ...
ROW 2E : ... .. . ... : ... .. . ... : ... .. . ... : D-# 0A . ... : ... .. . ...
ROW 2F : C-5 04 . ... : ... .. . ... : ... .. . ... : F-# 0A . ... : ... .. . ...
ROW 30 : ... .. . ... : C-4 05 . ... : ... .. . ... : 0-# 08 . ... : ... .. . ...
ROW 31 : ... .. . ... : ... .. . ... : ... .. . ... : ... .. . ... : ... .. . ...
ROW 32 : D-5 04 . ... : ... .. . ... : ... .. . ... : D-# 0A . ... : ... .. . ...
ROW 33 : ... .. . ... : D-4 05 . ... : ... .. . ... : ... .. . ... : ... .. . ...
ROW 34 : ... .. . ... : ... .. . ... : ... .. . ... : 0-# 09 . ... : ... .. . ...
ROW 35 : D-5 04 . ... : ... .. . ... : ... .. . ... : ... .. . ... : ... .. . ...
ROW 36 : ... .. . ... : D-4 05 . ... : ... .. . ... : D-# 0A . ... : ... .. . ...
ROW 37 : ... .. . ... : ... .. . ... : ... .. . ... : F-# 0A . ... : ... .. . ...
ROW 38 : D-5 04 . ... : ... .. . ... : ... .. . ... : 0-# 08 . ... : ... .. . ...
ROW 39 : ... .. . ... : D-4 05 . ... : ... .. . ... : F-# 0A . ... : ... .. . ...
ROW 3A : ... .. . ... : ... .. . ... : ... .. . ... : D-# 0A . ... : ... .. . ...
ROW 3B : D-5 04 . ... : ... .. . ... : ... .. . ... : ... .. . ... : ... .. . ...
ROW 3C : ... .. . ... : D-4 05 . ... : ... .. . ... : 0-# 09 . ... : ... .. . ...
ROW 3D : ... .. . ... : ... .. . ... : ... .. . ... : ... .. . ... : ... .. . ...
ROW 3E : D-5 04 . ... : ... .. . ... : ... .. . ... : D-# 0A . ... : ... .. . ...
ROW 3F : ... .. . ... : D-5 04 . ... : ... .. . ... : F-# 0A . ... : ... .. . ...

PATTERN 05
ROW 00 : C-5 04 . ... : ... .. . ... : ... .. . ... : ... .. . ... : ... .. . ...
ROW 01 : ... .. . ... : C-4 05 . ... : ... .. . ... : ... .. . ... : ... .. . ...
ROW 02 : ... .. . ... : ... .. . ... : ... .. . ... : ... .. . ... : ... .. . ...
ROW 03 : C-5 04 . ... : ... .. . ... : ... .. . ... : ... .. . ... : ... .. . ...
ROW 04 : ... .. . ... : C-4 05 . ... : ... .. . ... : ... .. . ... : ... .. . ...
ROW 05 : ... .. . ... : ... .. . ... : ... .. . ... : ... .. . ... : ... .. . ...
ROW 06 : C-5 04 . ... : ... .. . ... : ... .. . ... : ... .. . ... : ... .. . ...
ROW 07 : ... .. . ... : C-4 05 . ... : ... .. . ... : ... .. . ... : ... .. . ...
ROW 08 : ... .. . ... : ... .. . ... : ... .. . ... : ... .. . ... : ... .. . ...
ROW 09 : C-5 04 . ... : ... .. . ... : ... .. . ... : ... .. . ... : ... .. . ...
ROW 0A : ... .. . ... : C-4 05 . ... : ... .. . ... : ... .. . ... : ... .. . ...
ROW 0B : ... .. . ... : ... .. . ... : ... .. . ... : ... .. . ... : ... .. . ...
ROW 0C : C-5 04 . ... : ... .. . ... : ... .. . ... : ... .. . ... : ... .. . ...
ROW 0D : ... .. . ... : C-4 05 . ... : ... .. . ... : ... .. . ... : ... .. . ...
ROW 0E : ... .. . ... : ... .. . ... : ... .. . ... : ... .. . ... : ... .. . ...
ROW 0F : C-5 04 . ... : ... .. . ... : ... .. . ... : ... .. . ... : ... .. . ...
ROW 10 : ... .. . ... : C-4 05 . ... : ... .. . ... : ... .. . ... : ... .. . ...
ROW 11 : ... .. . ... : ... .. . ... : ... .. . ... : ... .. . ... : ... .. . ...
ROW 12 : B-4 04 . ... : ... .. . ... : ... .. . ... : ... .. . ... : ... .. . ...
ROW 13 : ... .. . ... : B-3 05 . ... : ... .. . ... : ... .. . ... : ... .. . ...
ROW 14 : ... .. . ... : ... .. . ... : ... .. . ... : ... .. . ... : ... .. . ...
ROW 15 : B-4 04 . ... : ... .. . ... : ... .. . ... : ... .. . ... : ... .. . ...
ROW 16 : ... .. . ... : B-3 05 . ... : ... .. . ... : ... .. . ... : ... .. . ...
ROW 17 : ... .. . ... : ... .. . ... : ... .. . ... : ... .. . ... : ... .. . ...
ROW 18 : B-4 04 . ... : ... .. . ... : ... .. . ... : ... .. . ... : ... .. . ...
ROW 19 : ... .. . ... : B-3 05 . ... : ... .. . ... : ... .. . ... : ... .. . ...
ROW 1A : ... .. . ... : ... .. . ... : ... .. . ... : ... .. . ... : ... .. . ...
ROW 1B : B-4 04 . ... : ... .. . ... : ... .. . ... : ... .. . ... : ... .. . ...
ROW 1C : ... .. . ... : B-3 05 . ... : ... .. . ... : ... .. . ... : ... .. . ...
ROW 1D : ... .. . ... : ... .. . ... : ... .. . ... : ... .. . ... : ... .. . ...
ROW 1E : B-4 04 . ... : ... .. . ... : ... .. . ... : ... .. . ... : ... .. . ...
ROW 1F : ... .. . ... : B-3 05 . ... : ... .. . ... : ... .. . ... : ... .. . ...
ROW 20 : C-5 04 . ... : ... .. . ... : ... .. . ... : ... .. . ... : ... .. . ...
ROW 21 : ... .. . ... : C-4 05 . ... : ... .. . ... : ... .. . ... : ... .. . ...
ROW 22 : ... .. . ... : ... .. . ... : ... .. . ... : ... .. . ... : ... .. . ...
ROW 23 : C-5 04 . ... : ... .. . ... : ... .. . ... : ... .. . ... : ... .. . ...
ROW 24 : ... .. . ... : C-4 05 . ... : ... .. . ... : ... .. . ... : ... .. . ...
ROW 25 : ... .. . ... : ... .. . ... : ... .. . ... : ... .. . ... : ... .. . ...
ROW 26 : C-5 04 . ... : ... .. . ... : ... .. . ... : ... .. . ... : ... .. . ...
ROW 27 : ... .. . ... : C-4 05 . ... : ... .. . ... : ... .. . ... : ... .. . ...
ROW 28 : ... .. . ... : ... .. . ... : ... .. . ... : ... .. . ... : ... .. . ...
ROW 29 : C-5 04 . ... : ... .. . ... : ... .. . ... : ... .. . ... : ... .. . ...
ROW 2A : ... .. . ... : C-4 05 . ... : ... .. . ... : ... .. . ... : ... .. . ...
ROW 2B : ... .. . ... : ... .. . ... : ... .. . ... : ... .. . ... : ... .. . ...
ROW 2C : C-5 04 . ... : ... .. . ... : ... .. . ... : ... .. . ... : ... .. . ...
ROW 2D : ... .. . ... : C-4 05 . ... : ... .. . ... : ... .. . ... : ... .. . ...
ROW 2E : ... .. . ... : ... .. . ... : ... .. . ... : ... .. . ... : ... .. . ...
ROW 2F : C-5 04 . ... : ... .. . ... : ... .. . ... : ... .. . ... : ... .. . ...
ROW 30 : ... .. . ... : C-4 05 . ... : ... .. . ... : ... .. . ... : ... .. . ...
ROW 31 : ... .. . ... : ... .. . ... : ... .. . ... : ... .. . ... : ... .. . ...
ROW 32 : D-5 04 . ... : ... .. . ... : ... .. . ... : ... .. . ... : ... .. . ...
ROW 33 : ... .. . ... : D-4 05 . ... : ... .. . ... : ... .. . ... : ... .. . ...
ROW 34 : ... .. . ... : ... .. . ... : ... .. . ... : ... .. . ... : ... .. . ...
ROW 35 : D-5 04 . ... : ... .. . ... : ... .. . ... : ... .. . ... : ... .. . ...
ROW 36 : ... .. . ... : D-4 05 . ... : ... .. . ... : ... .. . ... : ... .. . ...
ROW 37 : ... .. . ... : ... .. . ... : ... .. . ... : ... .. . ... : ... .. . ...
ROW 38 : D-5 04 . ... : ... .. . ... : ... .. . ... : ... .. . ... : ... .. . ...
ROW 39 : ... .. . ... : D-4 05 . ... : ... .. . ... : ... .. . ... : ... .. . ...
ROW 3A : ... .. . ... : ... .. . ... : ... .. . ... : ... .. . ... : ... .. . ...
ROW 3B : E-5 04 . ... : ... .. . ... : ... .. . ... : ... .. . ... : ... .. . ...
ROW 3C : ... .. . ... : E-4 05 . ... : ... .. . ... : ... .. . ... : ... .. . ...
ROW 3D : ... .. . ... : ... .. . ... : ... .. . ... : ... .. . ... : ... .. . ...
ROW 3E : E-5 04 . ... : ... .. . ... : ... .. . ... : ... .. . ... : ... .. . ...
ROW 3F : ... .. . ... : E-4 05 . C00 : ... .. . ... : ... .. . ... : ... .. . ...

# End of export
