Project Version="4.3.2" TempoMode="FamiTracker" Name="Famidash music" Author="Famidash team" Copyright="NO TOUCH"
	DPCMSample Name="fdbass A#" Color="91c76b" Folder="famidash bass" Data="fffff2f701ec03308024014362b49b3cd8803f07d79f82e6c98cb813113f71c0dd7bf8ffff3fbd6f02f60f008018021c50e09f3d60c0df02fa3724f707c0dc01068f78c0cf3ffcffffbf7ff701ef07008090010e08e8ef1c70e08f0f197732f203e0d881800779e0e7fffcffff9fffb703fb0700408c000f60f8870738e0c707d73c067b0360e48081077c70e6fffcfffffffff700ff0300c003800f60f8870f38e08787273e06bf0038e00180833ef8f17fffffffefff7b00ff0300c003807320fc07071cf0c707673c037f0070f00080613cf0ff9fffffffbfff7c80ff0300c003c03c80fc83070cf0e7071fab00ff0070f000001c1ff8ff1fffffffefff7c80ff0100c083c03808efa3020ef8cf81beac02bf00e07000801c1ff0ff1fffffffffff79c0ff0300c003801d88fec1030cf8ef00bfaac09f00c03a00002f1df8fe9fffffffffff0be0ff0000c029001f48edf5000cfc5781af2ad49b00003f0000be0afcff87ffffffffff0fe0ff03008025005788def60100fc7f017d29f89a0000fe0000ec82fefea7bfffffffff1fc0f70500c005005d22adfd4200fc3f01ef22e82f00007e0080da827dffabd5ffffffff7fa0fd0200d00500ada4aade5501f05f427b05f8960000be0090aa44dffe6ea5ffffffffff607b0500d01300aaa4aafab600f8b7a0de04f42d00007c014855c15eff6e21ffffffffff53bb0900d0154024a5aa7a6f00f8afa46e01ba2b0200b80289aa90bbfd3741ffffffffffa9760500b813109152a5766f00bc5f51bb01b437080070424855a1b6fbaf80feffffffff55dd4400e825844452a56eaf00ba5fa9de0268af00007011a49a48dbfe5d02fdffffff5f6bbb22006a4b4244aa926d3701ba5fa9bd09d05e0100d084905649d5fdaf80fcfffffd5fdbb61280b4952442ac94ad3b20b66faa7b0364bb0000a81222ada4aaf76f04fdff7bdfb7edae0904694b4942b252ad9b20b5b7aabd85d0b60400a84488aa5255bf6f42faffedfbaedb5d8920aaaa5211a9526baba06a57b56e93a45a09005249482a95aa7d5f49f6f7eebe6bdb6e49445255a922a9aa5a2b91aa5b55bb2aa96a118094929054a9d4ee5ba5da77b7f7b6b65d2591542a5525a9d26a5591aaad5a6d9532ad2204a914494aa5b2ba5b55ed6eb7bd6d6d5b9524a554aa4a4a556b5589aab5aab62a55554542524a4952a5cadab6aab66dbb6edbdab64a4929952a955255ad9652a955ad5a55a9aa9212a554524a95aa5a5b556bdbb6dab6b6b62a954aa554a954a5d5aa54555555abaaaaca94925229a554aaaa5aad56b5b6b65a6badb5aa52552a552a55aa5a5555a9aa5655555555a54aa9542a95aaaaaa55ab6aadd56ab55aab95a6aa52a55295aaaaa5a5aaaaaa55555555a92a952a95aa2a55ab6a55b56ab5aa56ab56555555952a5595aaaaaaaaaaaaaa6a95aaaaaaaa5295aa54555955b5b2aa55adaa5ad5aaaaaaaa2a5595a9aaaaaaaaaaaaaaaaaaaaaaaaaa4a55a5aaaaaaaaaa5a5555abaaaa56555555555595aaaaaaaaaaaaaaaaaaaaaaaaaaaaaaaa52555595aa55555555abaaaaaaaa6a55555656aaaaaaaaaaaaaaaaaaaa55"
	DPCMSample Name="fdbass B" Color="8bffff" Folder="famidash bass" Data="ff7ffb0f037b0400091878e0842afbf1807f187a0f987d180a3d1d7860cbaf3ff0ffff3fe55f86fc000018083ce081993778c0efc4b8079eae81c10f0c3c20d2fb3ff0ffffffef7f043e000887046cd080831f7ce0368ce703cee700c407072e80f0fddff8ffffffff67825f00000702781ce091073ef81e84e503677700c083070e00f8fddffcffffffff6f811f008403023c1ee0c0071ff80fc4e1c1f43700c083030600fcff4fffffffffff4fc10f008303001e0ff0e0831ff807e2f001e63f00e081010600fdff8fffffffffff37c20700870300ae07f0e0830ff81771f100fa1f00e001000708fdff8fffffffffff37e00700c30100ef03f8e0810ffc47f0e000f71f00e000010740fbff8fffffffffff4fea0700e00000f70378f0810ffc0fe07800ff16007820800340fbff9fffffffffff07ff03001cc000ec032cbbc083ff0fc02a50f80f00f001800542faffdffffffff7ff47ff03001c1000fc06d4aacac0ff0fc02a80fe0500f802c01201fdffaffffffffbffd3fe0700a80800784555d5aa80ff1f405500ff0200f802505a00feffa7fdffffffffd5fb030068050070a552ab1dc0ff1f805600df04007c05902d00f7ff55fdfffffffff4ef0200d80400a8aa52ad2f80ff1f202b005f0900bc01922d00b7ff2bfdffffff7ff5fb0500d81200a0aaa4b62fc0ff1f805600b70400f600491740dbff2afeffffff9ffafd0500b60900a0aaa4ba0fc8ff1f901680ad0200be00c91640ebff4afaffffff9fbaff0580da120090aa92ba17e4ff0f420ba05509006e01a40b90f5df45faffffff8fec7f0b406d150044aa92f626e4ff0f910aa8aa0200bb20d01690da7f23faffffff4bdafb0b20db4a0082aa4aee8ae8ff8f4805644d09005d01a20d21f5ef22feffff7f15b5f72590b61a4140aa4ab625b9ff4fa422d0aa04803609d04a44dabf92faffffdf4ad5de15225b558420a94aad25b9ff97a482a8550220ab04512589eabb49feff7f77956abb25a2d62a4990a4aaaa29b5ff2ba584685542405522a85292b46fa5feffdbddaaaa6d95a46a554a8894aaaa2ab57f5b2989a4552290aa8848a524b5db4afdff6d7753d5d692545555254952aaaa2aabefd65212a99624445512514a29b5adaafeefb6db965a6b2995aaaa4a494aa5aaaaaadbb6aa24a9aa28922a4552524ab5d6caf6f7da6dad6a55534a5555a59252a9aaaa6adb5a5549aa4c2949a99292524ad55655bb776bdb5ab56aa95455aa4aa552a5aaaaaaadd5aa942a552a29552aa5542ad56a556d77adadb56ad554a5aa52952a5595aaaaaab56a55a552952aa552a552a94ad5aaaab6adadd66ab5aaaa2a4b55aa4a95aaaaaaaa5aadaa2a55a5aa54aa54a94a555555d55a6bad6ab55a55555555aaaa54a9aaaaaaaaaa55b55455a9aa52a5aa5495aaaaaa5ab55aabaa55abaaaaaaaa525595a9aaaaaaaaaaaa5555a5aaaa4a55a9aa525555adb4aa55abaa5a55ad2c55555555a5aaaaaaaaaaaaaaaaaaaaaaaaaa525595a5aaaaaa5a55adaaaaaa56555555955aa9aaaaaaaaaaaa55"
	DPCMSample Name="fdbass C" Color="e783f8" Folder="famidash bass" Data="ff3fffd7605a00000489072cbaf465003f1fb92e619f8121a7910f1afeede5e7ff3ffd7c807f00010380031ab8fc81037f09fc65c47f011097810f38feede1ffff7ffe7d067f00800380011a38cf43037f08fe6cc43f012007810f38fce7e3fffffffffd0c7f00800300031994ef41069f07fc61883f010007090f38fcffe3fffffffffb1cff00800300071898fbc100ff01fe3180ff00000f000f38fcffe3ffffffffff80ff008003008638c8de8103bf09f66180ef01000f000e78fcfff1ffffffff7f41ff000007000e3888ff8103de03f31183f300001f080c78f2fff9ffffffff7f83fb00200c00361884ff0103fe07f123816b05001e0014f8f1ffe3ffffffffff81ff01400400760881ff0107fe07f04780bb01003e0030f0abffe3ffffffffff81ff01c00000f40481ff0306fc0ff00f80e701003e0020f8abffc7ffffffffffa1ff01800200d815a0fe0302fe1fc07f00ea01003e0200dadbfecffdffffffffc1ff00800500600f90ef8300ff1fc07f00d40200fe080054edfeaff5ffffffff87ff010056008016c17e4b02fc3f807f006a0500fc050058d9fedfd2ffffffff4fff01005a00001b48dfab00fe3f00ff00540500f8470028a9fffba1ffffffff9ffe0300ba00002c487bb701fc7f00fd00540300f80f0094547fffc2ffffffff4fff0100bd01002441bd7d01fcff00fe00a80500f04f002891fd7f43ffffffff9ffe0300be01000991daed02faff00fe00d21200e037005492f67f43ffffffff4fff0200fe02081284da7503f5ff017e00a50500e03b01a848f6bf23fdffffff4fff0100fd05824820d97545f4ff017e01521500c06f024889ba7f0bfdffffff4bfb0300fd0d412490d4b645f8ff03fa08485500c05e1148116dff46faffffff13fb0700fa2b424890d4d64a78ff07f54290260180bb04a4446af72bfaffffff25fd0b00ec9b442444b2da4a74ff8bda22221501c0b6244889d4be97f4fffffe95fa4b007437252241a95653d4ff956c2591920048ad129114557b57d9ffeff74ded2b04d4ad4a9210a5554bb2fdab6a25499204905a492425a976576bffb7dfabda9b08d25aa59288545555aabd5bb54a49494420b5944449a9b6addafbdb7e5bb55b2252ad4aa544545555a9f6366b554a291242a94a4952aa6a5badf75df7b66a5b495455552a254a5555a5d5add6aa5449514852959254caaaaddaee6dbdadd5d694a4aaaa542929555595d55aad55aa4a4912952aa59452b556addd6d6d5badad4a29b554954a2955555555ad56ab2a554a494a554aa95255ab56dbadb5ad56aba55255aaaa542953555555b5aa5655a54aa5944a952a5559d5aab6b5d55aabd54aa5aa2a5595aa5455555555b5aaaaaa52954aa5aa54aaaaaa556bad55abd5aaaa2a355595aa52555555555555adaa525555aa5255aacad4d2aa5aab55b55a55ad5455a5aaaa545555555555555555555555a5aa5455a956a956d5aa55d5aa6a5569aaaaaa4a55555555555555555555555555a9aaca5255d554abaa555555abaaaaaaaa52555555555555555555555555555555aaaaaaaaaaaaaa56555555d54aab5455555555555555"
	DPCMSample Name="fdbass C#" Color="ffac7f" Folder="famidash bass" Data="ff7ffe27d0070090088c7830f24f00fe39796e94dd00a61378c1f5f507ffff7ffa3f683b00800070e0c1e23e047e067e5b843e01d807e081a7ef1ffefffffcffc977002000c0c100873f1cf859389709f901209b84070efe3ffcfffffbff87f7010006000702cefc30f063e1cc19f0078066100e38fcfff0ffffffff5ffc06000c001c1078f2c1e0cf813b66e01f00982038e0f8ffe1fffffffffff03500300070c0e0f007079f03af19037f00c1806080e7f3d7ffffffffffe37300c000c080c16b0f067e07bc710cfc0104020301ceff0fffffffffffd7d7018005000304f97f40f047e0c310bc0f180e04003c1f7ffcffffffffffbd070016002024ccff40e03f413703e01e40311800f09ffef1ffffffffbffb0e002c000011b8ff03c0ff01fa05807f00a04300c07ff8cffffffffffffa3f00b000000c60f70f04ff0fe01f007c00a08f0040b7f33fefffffffffd77f00c001003001fe9f00ff0f807f00f00300fe000066f7ffb4ffffffffdfff018005004005f85f13f87f00fc03c00300fc03002cf5ff5dfeffffffbffd030007000013d0bf1df0fe03f007800f00e00f023051ffffe8ffffffffff0f003c000010a0fb7ba0fb1f801f001f00007f04a042feffa3fffffffff71f007881008000fded21fe3f007e00fa0000fc208005faff8ffeffffffebff00e02500000274df15faff01f801f00200f083000de1ff7ff8ffffff67ff05c09d080000d0fd9ae4ff07e007e02600c00b012c82ffffd1ffffff97fe1700df24008080ddaba2ff1fc017405b00009f00a882faffc7feffff57fa1f00bdab000280ecae8afe7f005f80ba0000de08a084f8ff17ffffdfb7d47f01f0ae0a080069bb4afaff017a01ba090078094025c8ff5ffcff7fefa47f05c0dd9a2000a4dda6e8ff0bd805d21500f02a002a88defff2ffffdd95fa2700dd5a91008876aba2ff0f6227a49608c056022841daffaaffffbbabec5780d4d6940408d5ad4afd5f442b915a4480b6044811d2fdcdfeffb7d7d4bd0251abaa2420aab6aaeabf92aa446a2201b54a208948fbaef6ffbbbbaabd254455552581a4daaab47f53aa24a98a02aa9510492475afb5ffdbbd55db55a254552905496aadd2faabaa92a42a0a9295124992d46e6bf7afddaddaad2455aa2a25a254b552eb5b555552aa28224d25494a52db5afbdeba6db56d2aa5aa4aa5884aad2aad5dab9652a99444a94a4a5252b5d5b677ab5bab6d552a5555aa24a9aa2ab5da5aad52a9524a52a9945252556bb5ddadb6566bad5455a5aa9494aaaaaaaab5aa55aa4aa9a454a9945255556bedb66aabd65aa5aa2a55a552aaaaaaaa6ab5aa4a55a952a952a994aaaa556b5babd56a55cb5455a5aa52a9aaaaaaaa56555555a9aa54a954a94a55b55a6bad6ad56a55a9aaaaaa54a5aaaaaaaaaa659556a5aa5255aa4a55956a556bb5aa56d5aaaaaa2a5555aaaaaaaaaaaaaaaaaaaaaaaa4c55a62a5555ad6ab5aa6a56d54a55555555aaaaaaaaaaaaaaaaaaaaaaaaaa545555a9aaaa56d5aaaa6a56555555a9a9aaaaaaaaaaaaaaaaaaaaaaaaaaaab45455555555b5aaaaaaaaaaaaaaaaaaaaaaaaaaaaaaaa55"
	DPCMSample Name="fdbass D" Color="ffff75" Folder="famidash bass" Data="ff7fff01f6000068c1c082d73a00fe33d873f83230d902d3daf23bfcfbfff9d7c19f8000002c08e8ed06c03f039f0f7f00922d30382ebfd3ffff3ffe3fde020804802601f96e00fc32f879f007a0d00102d9f577ffffffcbefe35b804000700cb0cf81a15f061f077e02263c00309cfdefffff7ffe3e7f1c0000808d00ff1830fc87f0e3c037c0c00300c5f9fffcffffe7dfe7c7010100e00870df01c2ff103e0e7c060c3c00209cfcfffffffffcfff91c008000ca80f21d10fc8fc1e3808f80c10300e3c0ffffffffffff8fc7010204800d187f03c1ff207c02f809187800309cfcf7ffffffffff783900c000e001f23f20f81fe007007f00c11700c6817fffffffffffdfc303000c000730fe0706ff037c00f01700fc00c038f8ffffffffff7f7d78008000e000e6ff00f07f401f00fe00c00f009887fffffbffffffcf87070008000ea0df0705ff07f001f00d00f8018075f8ff2fffffffff7ff20000006002f2d715f07f803c00f700801f00a4cbf5fff1ffffffffaf0b000000055077f702fe0fc007601f00f00120d9aaff1ffeffffffff7b0080004000b6de37e0ff017800f503001e004aadf6ffe1ffffffffbd0f000c0000d0bcdd05fe1f4007585f00800340d5d4ff1ffcffffffdfff0050010000b4ae37e0ff076801db030038009855dbffc3ffffff7fdd1f102d000080ba6d13fc7f400d6877000003006b55ff3ff8ffffffd7fe03e802000068d72ec1ff0f7001ee0d006000a055edff83ffffff5fed3f803e00020075ed05faff801660f700000b00d854fb7ff8ffff7fd5fe07d00b4000d0ae5de0ff075401ed2b00600200ab6aff87ffffff36ebbf00bd000980ecda46fc7f0855a07d01004b006055fd7ff0ffffbba6fd87a027200142b7b644ff2fd002d52f005009002c55ff0fffffbfabea6f81dc0824106a6b4decff412a50fd02004b00a02af5fff0ffff5b2bf72b901b420221bbb6a4fe1fa212543f0068110052a9fd2ffeffdf56d56f056a432410a96b4bd9ff112a41f50601550820a5b4ffd1ffffb555ed2b419b444244bab692fd2fa21254dd10a812209452fd8ffcff5fadaaf71254954844a26d4dd57f152911d516419a08444a69ff52ff7f6b4ded5d4255922414d55655f5af921249ad12512942a494fa5bdaff6bad56bb95942a292249ad5569df4d2989d22a8952919054aa7d55f76f6badeab692aaa41451d25a55d6b7aa94a4ac52a4522452a96aafda7d5b6b55edaa5295528954aa5555ed56554a2a2ba5949244a954db56bbd756ab665d95aa4a292955555555dbaa2aa5b254299592a45255d76abbb5d6aa6aab5455a95252555555d55a5595d22a552a959452a9da6ab55bad56d56a55aaaa542955555555b55a55aa5455952a9552aad45ad5b655ad5ad5aaaa4a55a55255555555adaa2a55555555aa542a5555b36a6b55ad6a55555555a52a555555555555ad52555555a5aa52a9aaaa6ab55655b5aa5a5595aa2a55555555555555555555555595aa2a555555d56a555535abaaaaaaaa5255555555555555555555555595aaaaaaaaaaaa5655555555ab55"
	DPCMSample Name="this" Color="8d69e4" Folder="This is a time machine" Data="9555555555555555535555555555555555555555555555555555555555555555555555555555554b55d952cd5453ce545355655555955595c69559534d9555d155d554b5388e55351557a696595a711cc775548d71dc31463e87c339cc53e6180fe33cccd3617887b1271c3e0bf519359645ceb5347cc1355c39b5081fc7e11ccee31c638e71468cf363cc39e38c31e69c7138c6cd713c8ee1e33863ce391e77e018c7708e33184fe3380f7b0ee761189f618e98713c77c7183963618cf3e338c7e3781847fc0c8fe318cff09883f11872c7f8311cde313e4e8073e6ccc93123dec53db8731c9c01334fcf7923970f7f800338c00ff887f17c8effe00ff8c01ff0031ec00740000ef07ffeffffffff0f008001100497f631fee37f088f218e203800c3203cc3ff7cfe7ffedfffe1037c000a30801ff8030c000170d813fffbffffff7ffe07ff001c000000000080f3f3fffdfffff30ffc001e80010ee3311c101118800df8c7ffffffffffeffc70001880834000003006eff9ffbfffcf791c0770000ec0201cc7e37f381ec7e3701c8fc3791eff71cee37138128e83e140388ec3e1388ec7fff1cfc3e701e7c018c7c1188e610c73061cc7e3f1789ee3738cf3611cc7710e9c731ce7e01c1c8fe3e70c8ec3e1381c0fc7713c1cc7e3f8301e8ec7718c87e3719cc771388ee39c8fe11cc363e0380e8f719ce7f0380ee3781c8ee3381ce7708ef1381cc7f1701c8fe3388ec3731c8ee3e038cff1e3c0cce17118c71c87c7717c1c8f316e8e877386f1e1380ee31cc7c3713c1c1fc7c8713c0e8fe318c7f1388ec7318ee3383c8e73381c0e7f1cc7e0781ccec3311e8fe3e338388ee3701c67f0380e1cc7390e8fc371ce39731c1cc7d9718cc7e1310ec7b139ce717c1cc73c0ec7711c87e171709c39761c1f721ce3388ec7e3381ec7e1381e8763cce138e678381e8fe3701c67ce713c783c3c8c711c8ec70c87e3781cc7f1709c717c3c8ee3713c8ee3781cc77138e43838ce9ce3711c1c679ce3e0e3703cc671380ee73c1c072f8ec7f038c7e3381e07730e87733c8ec3713c8ee3f1380ec3f170cc73e0f8e1701c1cc7783c8ee3388ff1701cff001e8ec3338ec3731cc7f3380e87e3181e0fc70fe0713cc7c36388e3e3f1383c0ec7c73167f03c8cc781f182e7e083e7e0b83f780e9e191ec7c33dc00fe6e164fc00505555555555555555555555555555555555555555555555555555d5b2aaaaaaaaaa5a555555abaa4a5b55d5aa2a6d555a2bad2aadaaaaaa5555"
	DPCMSample Name="is a" Color="997c73" Folder="This is a time machine" Data="ee81c3381e8fe3618cf1c03dc31f0f3e0f1ec7710c8f07cdc1003c301ffee79fffc11f030108c001fee7fffc81ffe00d60d0073c030e831087c1f1fce7f9fffc3f3e080ee4c17ff28f7300000000000000ffffffffffffff0f000200c400008161c08ef3fffffffb7efb0e3e8307e6811fe0033c00010000000000dcffffffffffffff031c08010e0004008371381ccfe37f3fdf47cf7f86ffe003e7e00438c023c0004000089ce3ffffffffffffffe11010c4000c80010080c3f0fcfff7f87e3cff781c8ff3718fe3010c40100fc041380c1f8ec7f37dbefff7f1b98fe3313c8ec361000cc1000008c7f13cffe3791c8fe7fff879738ce3e1301c8661380cc230388ec3f1389fcfe77b9e1fcfe161188e6370188c1b033f80738c719e718ee3f1381ecfddf33ee38371701ce3e0300c03c70cc70de78cf3c7711c8ee7381e9f778e8339388e711806cc713c0e8f8373ce8f73dc1c67671c0e87c7611c07c7711cc7c1318ec7f1e318c7f1713c1ce7f038cec1e338731c73600e8383e3788e8fe3391e8ec3716676cc386ece70708cf1383cce7d1c8787608fe1713cc479381e8ffb1e8ee7017980c17308fb00fc0fff7c40ff6087c370060c8707c7e387ffc1fbfce07918c2e7f0100ec00078fc03ff87e77c900f36e00ffcd10ffe811ffc021edc0153a0000f88633efc77fc9fff7e00ff00c3ffe01f008003e0c003ff813f7e803fc0f11ffcff7bfc01fce198738031002000401e82ffffff4f7df938fec0ffc4a0ff803f00000600ea03f807cefc00fea0fdfffcff1dff0ffc318c9c010000000100a41cfe1fdf7ffcbfdfc7e3793c87e3f1181c2110040018c2e0701cbefbfffdfbe7fbda6bf584c1104218824150445294e638f7ba7dbeb39f7ba6368ae3145a47715c244a89802aa1f258eaf5d4f5d5d5b5d97a553527a95a62a528a9944869982c4d555b2dcf5b559dd6b2967166aaccd4a82c952a55aa346555d56cb55ad5b2eab4aa2a4b9563b1d254555559aa4a555535d5ca725a562d551d2bcba6292b4d555555555556695999a9aaaaaaaa9c66955555cdaacc4ab54c4b4d555555555555555595a5a56aaa522dab6a55956555a6a59966d5346d9a55a5b1aaca2c55556a1a2bb56879aaaab265a95665559a59564d55d594a956d5aad39aa45295542d464b9bae8c2769353d5c5636ad15c7d41c47952fc5964c5555555555555555555555555555555555555555555555555555555555555535005000c45555"
	DPCMSample Name="time" Color="ffe461" Folder="This is a time machine" Data="c70c3ea877f840fc303c1c0f3f1c0fc7730e87c3300eff701e0f83c3f8f3f83080e308f860cce7c3f3e3e161c0e361f887e3f1711c83c1e3f1fb07c303800fc0ff1efff7783c0c30107e78781ec3ef03cc0f86ff039e0180ff01ff83c13f00ff0f00ff0fe0ff00f80780fe03f87798cf00f0ffe3ff008c3f806700802feef10380ff07ff0f00fe81ff3ff07f00fe07007e00c001006cf8fffffffff71f180b0004007e00003eceffffff3f108007e08101803fe7c7ff11feff0ff00300f00f807f00ec3f00ff7ffeff01fe02008011807fc0817cfcff7ffeff03e01f00601b00500000ff1ffcff03ffffc0ff0300f003fe1f00c0ff43ff0700fc3f007c0000ffff01fee3fdff7f40fe03700000800100c00ff0ffffffff3fe37986070000feff03fc0380fd0f000e00fc1f8060d73fc0ff3f00ffffe1ff0300ff1f00380000f803807f00fcfffffdffc0ff0f00400cfe3fc00703c07f00f91f00d0ff612290ffff799c0ff9ff1fc00ff83f00000300003f0080ffc3ffffc7ffff03f80d6230c0ffc03f800310e207300077f8ff07c0ffe7e7fa0fc0ff83def800fe3f00000000f80000ffc7feff7ffeffe7e200b80700f807e0ff0f00f501005b00c0dff6fc3fdcc7bf01f01ff0ff0fe087ff470680010000017004fbffffffffffff8303000c0078e53b7d02f0ff00c00000f807c0fffffdff715bf80ff80f0fc00ff07f00e00300fc03007f00f8ff2fff1ff8ff1f807f00f003e0fc8f410f00000020c0ff00fcffffffbfff3f00fe00c0ff80fe07e07f00e00300fc0080ff00fcffffff3ffc7f00e001003e00f07fe0ff0f801f003c00c03fc0ff3ffcffc1ff2f803f00f03ff01f7e00ff01100000e00080ffc7ffffffff1fff0f000000c00f80ff01ffff630600e00180ffc1fffffdff018f013e00ff007efc03fe07fe01f80f000000008006fcffffffffffffff000000000000e03fff81ff53fdff01f80300fe83ff3f807fe02f08802300fffff3ff00780800f8010040b0fcffffffffffff0f76000000000000f0e1ffdc1fff0ffc8f19dce708ff07781c83601c82701c86efd25ff13ec7e33c044739104c601ce37feff13fff04ff011d80412006b01af087e79d1fdfad0fcf0738a70bf8037dd007c43104f906f91c545555555555555555555555555555555555555555555555adaaaaaaaaaaaaca55555555b6aaaa5a5555abaa5a5ad5caaaaa565555555555555555555555"
	DPCMSample Name="machine" Color="89f2e8" Folder="This is a time machine" Data="1c73b5ce310beb03ed5095c0352c8ef371dc73de96b643ad823682954825aa8bf2a2be51dfd13c7c8778477198aba2d41c25d54a0ce75978575c4b5f622f9a5256918671d078d80bfec57de83ea6191bc648a5486545b3e233ee157e8bbaacaa94ae247551d55455a5c9a81ce5ca78877517cfd3398e720c692432680ccda3f539afcbef45af8506a50a15e510f4945ee95e6a2dcb8de346b44ad6c435e534565355698916eba85e669baeaa1e2b539aa80847984479895ff5577dcf1ecd2925c805e41258459f4cdfac55f5156dc689b2548dacb15ae459c6c5a94a53d5b1b51cbb93ce159f30b24128810fc04ff017ff67fd7a9d66e803f0800bd01f988eda03fec37ee016e9239935136d354de935948a8d515c57abec4bfc477bc50af003801e04206f51fdcfbeffe47f3a016e015015a8862fc03f1bf13f700f55690f696d24f54557de85d04ae4117c059f39fa0ffec107f8034cf001f0010efe87ffffe0ffc1152d002a01f8027ea16fea1ff53a515a4a4d665559d525b7c6253c91d8027ccc1ff8d53abfb49ec0f400700006fd01fff81ffff01fff800b384015e0035cf503fff1427fe0294de896b2e616f5431fd5036ec00bf0013fbc05fff0977ee0075ca005fc001ff057edd3f28b67ce051e013f080f0ff107786b07fc037ff00ff8803ff8c17fe007f8010ff0003fe0837fe0877ff0077fe0073e78181ec4077fc007fec00f7fe00ffcc003fc61031f847f380f3ff8077ce08739fc03c7f0f070e0f1e043f0e1f0e00ffc011ff8c37ff0033ef8017fe0071ec5137ee0071e73e4f0e07cf0301efc817ff0613e820fff011ffc013ff0017ce00fe3813fe0871ff00f7ce01ff8187ce01f7ec01ff0817ff0013ff0021ee00f788c1ffe8007fce0ef217fc89167dc01cf78f830783807eff007cee1013fc6e3033ee007fcc00ffc031ff8031ff0c13ff8838fe3c3313c868f31478e717c38e2477c08e7f0390fce033fd8037fe01dfec079f00c7fc007ce8307e00ffe801ffc013fd8077ec00ff8e00f7ec01ff8830fd8033ff0051f87fe011ef0e18fe03fe00387e7e118c7f1c1f9c178e003fe803ff8867bf8801ff8801ffc011ff0033ff007fec107f8037ff0087ce00ffe701c1fe0811fc3073ef803fec0073ec41ffce01dfe8107fc831ff0013ff0077ec007fce187f3c01fe0073ef8077ec01ff8033ff0017fc007fc811ff0817ff007fcc007f3810ff8000ffc07fe813ff0017fe011fec13ff007f1e0f007fc61787c901ff8e11cf0e111cec303fec01fe00f7c78713cf2f0013ee6033ff007fec00f7ce00ff8813ff0381ef8037ef0077ee003fec00ff8c03ff8019f7844fc838f037fc00ff0831f7ec017f0c11ff8033fe0837fe007fc803ff0811ff8013fe0077ee00f7ee00ff8c03ff083cfe007fce0c3f8e007fc811ff8017fe003fec00ffc811ff003faf064c738f001fe817ff003fec01fe0073f061e7a0d3ee007fec03ff4834fd0811fdc801ff801fee0ed1cf801fee00ff8c11ff0073ec10fc51de8013fe09ff8037fc07ff0033ee007f8017e000fc37fe03ff00ffcc1ffc01ff8013ee0035ce0033ce007fef873fc07fec12ff0013e50037e801ff031dda3fff007fc001ff0077ec007f8007fe00ffee10f7cc01ff8077fc00f7880077dc003fc5067f8f8c53ff08ffee01ee086980f7441bca09d4bf7803fc01ff8035ec0b7823d197e517fc887dfc00ff002fec09fd00b357c037e800ff017f00bfee01ffea31f9c034f70080698835ef027fef93ffc03fe80055178800ff003ffb01ffec11ff8033e30c5037fe00ff8837fc00ff003e421dc0c8d27ff15ffd80bf9d6b005f0023c600f7be7d479f007f4013ff0000ff001ffc5ffe03ff809bff0015470555656a40ff8817e3017073fc03ff817df8de307fc003f402724da800ff887fe38f293fe817f800ff299280f8a0ff01fe007fc803ff8f0117fe00ffd810feac151553107675c5fd811fe003fe113ec40da1df00ffcc37ff8d30a3ec00f5804035fe81f7c49833fe00ffc42ac15fc837ff0135ff08a72110f619738ceb13df01bf4c11ee892137cc027f8833df2d2c5fce10fbcb007fe409770c6619ae011d6d8c327ec236fc76be18a3af415b4451b7155692596277aa95912e73857d6185795673847972827ce55e91bd4523d6b0b63435591c31ec58871ded17dcc5a54afc50f93524e96d21ca5153c0bbd8de09d3bc0f79650f70408ff27c401fe293fe01fe0c9fcf70080ff0f803fd005fc017f88e94f71c13fd4f40f78503f0275dc06673502fe8dea500ff1950f1f104bff8f01705ec5f81e049eaf05dd311ed703dc07d1f055687c8603ffe340e47d1cef0910f3573c42555555555555555555555555555555adaaaaaaaaaaaaaaaaaaaaaaaaaaaaaaaaaaaaaaaaaaaaaaaaaa555555a555555555555555555555555555555555"
	DPCMSample Name="fdkick" Color="3ce8fd" Data="d5ffffff8b000000000000ffffffffff3f000000000040ffffffffffff23000000000000bdffffffffffff9500010000000080da7dffffffffffbf554910000000000012a5b5bdffeffffffff7b6552511020400000210244a556d77dffffdfb7f7f77b75695120921200021804088484a55b5b6bbf77e7ff7f7fbeeedda5a55292512218420902008212492a45455b5b66d7b7befbd77efbdbbbb6d5bab55954a49892422428448448810892452924a5555b5d6dab6dbeef6ee6ebbbbbbdd6edbd656ab5555a9524a4992449288442489482412499224a5942a555555abd6dadada6edb76dbddd66ebbedb66ddbda5a6bb56a5555a52a95524a4992922492244954249124499292a494544aa54a555555d5aad55aadadad6d6ddbb66ddb56b7b66ddbb6b6b5b5d65aad56ab6a555555aa4a954a29a5949292929424294952495292a42425252595544aa554a92a55555555d5aa5aad56adb5d65a6b6b6d6b6b5bdb566d6b6b5b5b5b5b6badb556abd56a55adaa6a5555aaaa4a95aa522a954a299594524a4929292925554a4a4a2929a594524aa5542a55aa54a5aa4c5555555555d3aa56b56ad55ab5566bb5d65a6badadb5d656adb5d6da5a6bb5d65aad56ad55ab5a55adaaaaaaaaaaaaaa5455aa52a552a552a994522995524a29955295544aa99452a9544a954a95aa54a5aa5455555555555555d5aa5a55ab5ab56aad5aad56abb55aadd66a55add56ab556ab56ad56ad5ad5aa6a5555abaaaaaaaaaaaa525555aa4a55a952a54a952a554a954a954a55a952a952a54aa94a55aa5255aa4a5555a5aaaaaaaaaaaa5a5555abaa55d5aa5ad5aa56ab56b56ad5aa5555ab56b5aa55ab66d5aa5a55b5aaaa5a555555555555555555aaaaaa5455a9aa54992a55a52a55a94a5555a94a55a94a55a5aa5295aaaa5255555555aaaaaaaaaa55555555b5aaaa5655b5aa55d5aa6a55b555"
	DPCMSample Name="snare" Color="6c7bdb" Data="190000d0ccffc7fff8f1ffc30f63008701000054555555e5f8ffffffffff55555599030c00040000405565cd0ffffff3ffe7ff9e29dc19028ce1c3380000180718301f3e3ef0e33ff7fef3ff1f1ec618814038fc3000c4633c3c381c90e731fff3cfffff873b03308ec320000c00201e779ce7f18ffffb6f38ff39fc0301077e870130008079f03c38389e879fffff3fcf71dce10e306008c3812138c0110f8f0fe71fffcff1e31fe73c0c87038ec303c281e3388e380e3cc7e1797e7cbec3317e1ce3383c86e3f0c0e10160c01c0acf71fc3d8fcf9fc7f3f9ff0cc3210c7018063886c108e388f1e7fff3ff710eff0f870f863138803184031838c7c1391e6f9ef3cfe3fdfdc33b0ce0e0c0606030180ecef118cfcfe7e3e1f173f823dce1707878e087e318630e8207c2f1c0e338c6f9bce73cfff8ffe00c630c43e0707018008671789ec71f9f77fe9f638e71f486037c00e17038c681235c7c1ce7c773cf792e9e671e8f210e231cc3f0e1f0183be0896387cff063cef10fffe38e633c8c310c018e106398791c0f0fefc0e3ff1cfff87c1e0e70c001e31886371cf8e1e1f1f8cf718c3978381e8f618e71ccd3e111f6187b301cc711f84defc3c7879be30e397080318c79bc0f4fc107f718fe60559017fc399ec3710fe7387c18e7807d8c230e81c7f1709ef8e1e570fec4e7c2410e150f3e816f88c38bc7c73316d5c339cec381671ef87c8cc3f1301ce2110f87f1f8f89e0f1fc6d9610e0ec361388c790fefc893e7e138c778b0e2f0549ee1380c0fc771c33d06ef38e31e1e9ff19072c48615c6c32b34548cc7cf3b7d8c198fcde3c6710e78180dc3397c181e8ee3e19ee3d983ce18ce918ff3621d8c437cd01e3c1c1c9ac1eb613fdc51f3303de7b34ec1c110d3303c9e54c70e0f8ef38ee75a7818c7e1d1311d0f65a538e17157554b8d93564c5debf0628c69556745cfe150a5e1181e87c7715c793cd3adc12b47391e9ca7f8101d9562598c33f83c8e8dc375d5571f8d332c144e258ee22cac351c6f69795577791c96d12c965235ca618763d4b0a52f5e475955ab9ce5c5e270e21866d4f1acc38dc5156b4dcbe568d4d21a730e67340d0d8f7168d58d875b78b55c9bb36a8c835216574597aa12ab4a5f9c35553556d5589dc35345d561699c269ec5a56565956a55d6547561956a95cb741a3bd471549515875be2c1a6f16ca5654d735117572a75b47296a52a4d85c7521ca76ae9b456d93c5a8bab1c1d8d4555318c2baa6d797835554bf5d05a555665c94655a5b2d84a5b543956aea655c7b4aa52d554d5ccd2165565599655d55456b115d529279d56553555cdb46a2c4b535555556555d5549aa69955a9662aab695556552dcb96aa524b5555d594aa548bad745559d3545555554dad2a4d555559a55555555555aa9555595a55555555555555d352d3545555556555a9aa55"
	DPCMSample Name="Choir Ahh A" Color="ff8f8c" Folder="famidash choir" Data="aaaa5555aaaa5a5595aaaa5655a9aaaa5555aaaa6a55a5aaaa5a55a9aaaad652aaa5d4ae926a49b557a45a92ee8ba896d0fd09aa45d87f816c42fa3f209b40ff1fc08ae0ff07d002f4ff075002feff0114c0ff7f0022b0ff3f0001f5ff1f0040ffff0300d0ffff0000ecff3f0080feff0700a0ffff030070ffff0000fcff1f0000ffff0700e0feff010078ff3f00007fff0f00c0dfff0300b8f7ff0000defd5f00805fff270070d7ff0100def5bf00406ffb2f0070dbfa2700bcaefe11805eabbf00e4adea5700f52afd26c0764abf02aa57d25741ba13f59690de42ed4a645f50bd22f51594574afb14e4aad2bd04d92af517905a55ef05a4a6d5fb20a8b2dd37084ab5df0b42a2f6df8210d1feaf1002d9ff474880faff111240ff7f8402d0ff1fa100f8ff472800feff110a80ff7f8200d4ff5f2000f5ff0f0840ffff020268ff7f0100b6ff3f0080d7fd3f00e0aafd1f0078a9ff07009fd0ff03c017f8ff00f003fe3f00fc00ff0f807fc0ff03e00fe0ff00f807fc1f00ff00ff07c03fc0ff01f007f87f00fc01fe0f807f80ff03e01fe0ff00fc01fe0f807f40ff05f02ed07f02f622f42f41bb20fb16690dd1b74aad02f555b58d80f7a4dd01f037f23e00fc13fd2700fe88ff05805fe8ff00f025fc3f007c09ff0f00afc2ff01e02dfa7e00b84bfd17006ed3fe0a805d6df704a0b7d63d01e8ae6b9700eabbda4a80faaed60a40bfa7b510d07fa53a04f43fa51601fd2fb44340ff0bf500f87f425d00fe9f601780ff27e805e0ff417a01f47fa05e00fd1fa827c0ff03ea01f8ff807a00fe3fa02d80ff0f7013e0ff03dc04f4ff005704fb3fc015e0ff037205b4ff015d05ec7f405701fb1fd055c0ff03b40df0ff00ed00fe3f403780ff0fd04bc0ff03f401f87f407b00fe1fd01780ff07f405e0ff017d01f83f485f00ff07d20fc0ff017d03f0bf20df00fc4fd02f80fe43ec0ba07f21f702e877a8bb00792fea2e02ee8b7a4b80fea2ee0ac0bfa87b01d03fea5e04f04fd54f00fc53f60b00fe93fd0180ff647f01c0bfe83f00f01ffa0f00fc87fe0300ffc1ff01c03ff07f00f00ffc1f00fc03ff0700ffc0ff01c03ff03f00f01ffc0f00fc07ff0380ffe07f00e03ff81f00f80ffe0700fe43ff00c0fff02f00f03ffa0500fc5fbb0080ffaf5500f0ff550a00feff0a2120ff7f0291c0ff5f0015a8ff1f800df0ff07e002fcff017801fe7f003e80ff1f800fe0ff03f007f0ff00fc01fc3f007f00ff0fc00fe0ff03f003f8ff00fc00fe1f803fc0ff07e005f8ff00f800ff3f002fe0ff07c005faff01b084ff3f0054e8ff074045fcff015044ff7f0014d4ff0f2009faff034890ff7f0042e8ff1f0041f9ff070092ffff0000d5ff7f0000fdff0f00c0feff0300f0ffbf0000fcff1f0000ffff1700c0bff70700f0afff0100fee97f00807fec3f00e01ffd0f00f847fd0700fea1ff01807fe87f00e01ffc1f00f807ff0300ff03ff01c07fe07f00f01ff81f00fc0ffc0700ff03ff01c0ffc07f00f03fe03f00fc0ff80f00ff03fe03c0ff80ff00f03fe07f00f80ff81f00fe03fc0f80ff80ff01e03fe07f00f80ff81f00fe03fe0780ff80ff01e01ff07f00f00ffc1f00fc03ff0700ffc0ff01c03ff87f00f007fe1f00fc41ff07007fc1ff01c03fe83f00f01ffe0f00fc43ff0100ffc97f00c07fea1f00f03ffe0100fe4f7f0080ffcb2f00e0fff11300f87f7a0100ff9fae00c0ff572b00f0ff530500feff540280ff3fa900e0ff4f0c00fcff432500feff500980ff3fa802e0ff879a00f8ff411700fe7fd00580ff0ff900f0ff813e00fc7fa00f00ff1fe807c0ff817e01f07fc05f00fc1ff00780ff03fd01e0ff407f00fc0ff40f00ff03fd03c07f48ff00782fb23f00de25fd0b407752ff04b02ed53f80aa55ee0fa0aaa9ff0294b4eabf8024cdf62f9048d5ff1212a2f6bf4404b1fe2f9280b4ff0b2540edff220950fb3f4902e8fe8f0a01f6ffa22280fe3fa90860ff4f2a02e8ffa39200f67fd12480ff9b2c09e0ff4a4d01f8bf525500fe2f691540ff8b5a01f8bfc43a00fe2fd11640ff0dd505a87f457a017a5fa15e40fd56c81ba8de16b22ba4db05f946627b81f629583f407f13e80fe07f01f407f0ff00fc03f87f00fe00fc1fc03f00ff07f00fc0ff03f803f0ff00fe00fc3f801f00ff0ff007c0ff03fc01f87f007f00fe1fc01f80ff07f007e0ff01fc01f87f003f00ff1fc00fc0ff07f001f8ff017c00fe7f001fc0ff0fc003f8ff03f000feff002ec0ff1f8083f0ff076001fdff015840ff7f0006d1ff0fa081fcff015840ff7f0015d0ff1fc004f8ff032a01feff801680ff3fa003e0ff0fd800f8ff012f00fe7fc00780ff1ff001e0ff077c01f0ff015f00fc3fe00f00ff0ff803e0ff01fe00f87f803f00fe1fe00f80ff07f803e0ff01fe00f83fe03700ff07f80bc0ff02fe02f81f483f80fe25a917c4de52ea45f05a55b90a39ad4ead128dae47ab91507f515d11f03f642f01f81fea0f00fe07fd0b00ff41ff01c07fe0ff00e01ff83f00fc03fe0700ff81ff01c07ff07f00f00ffc0f00fe81ff03807ff07f00e01ffc1f00f887fe0700fee4ff00803ff51f00f04fff0100fe6b7f00807fdb0f00f0bfdd0500fadfb60880fe6f5508a0ff574a02f0ff255500fc7f915a00fe9fd01680ff07f902e0ff82be02f03fc29f00fc0ff41700ff05fd05e03f44ff00f817d23f00fe91f41740bf24ef05b04fc57b00ee55e92ec07656da13a8ab557511d96a552d292d5b9395a6c9b6a46c55721b92be8adc06d23f11b701fcafc05b00fd1ff01680ff07bc03e0ff01ef00f87fc03b00fe1ff00580ff0f7c01f0ff032e00fcffc00d00ff3fa805e0ff0fb000fcff035400ffff0026c0ff3f800af0ff0fc004feff034082ffff0090e0ff3f0044ecff0f0011ffff0180c4ff7f0020e9ff1f0028f6ff07004affff0080d2ff3f00a0f2ff0700acfaff0100abf77f00c0e6ff0f00b0f5ff03006cfb7f0100d7fd9f00c0edfe070074bbff0200dbdebf00c075f7570070dbfd05005df7af0140dbfdad00b0757f2d00aadd5f2580eaeeab1150b5fbaa4450f53e5509547b4faa8154bfa56c04b55f519d40ed97a81741ef43f413d07d817e03723f40ff02da0fe0bf80ee03e8bf40fb00fc1fd05e00ff27b01780ff07ec05e0ff057a01f8ff806e00faff801b00ff3f600bc0ff0fd402d0ff075901f8ff031a02feff808a80ff3fc044d0ff1f4012fcff031085feff0090a2ff3f01c0f4ff270050fdff0a0058ffdf0200f6f7bb0080fe7b3700c0fff60e00f07fed0500fc5f7b0100ffb76e00c0ffad2b00f07fdb0200fedfb500c0fef72a00f0fd7d090075bf3f01a0dafe1f00a8d6ff070056f5ff01402bfe7f00d086ff1f006ce1ff07003bf8ff01408ffc7f00e00bff1f00f8a1ff07007ed4ff01805fec7f00e08ffe0f00f84bff0300fea97f00c07ff90f00f05ffd0500fcaf3f0080ffdb0f00e0ffdd0100fcff5e0000ffff1500e0ff6f0100fcff4f0000ffff1300c0ffff0400f0ff3f0000feff0f0080ffff0300f0ffbf0000fcff2f0000ffff1300c0ffff0000f8ff3f0000feff0f0080ffff0300e0ffff0000fcff2f0000ffff0b00c0ffff0200f0ffdf0000feef370080fffb0d00e0fffe0200f8bfbf0000fef71f00c0fffc0b00f05ffb0300fcd7fe0000ffd53f00c07ffa0700f89ffe0100ffc57f00c07ff21f00f01ffd0700fc87ff0100ffe17f00e01ffc1f00f807ff07545555555555555555"
	DPCMSample Name="Choir Ahh B" Color="3cf8ff" Folder="famidash choir" Data="a45e2db52a41db5784ec6dd12a89da5d22b2af152d23d2fe1250fb2d922a25f74b08f6cf82aa947a6f40e8fe46a84acafb0540f75f485452ef4f00f4ff02894add7f0480ff2f1052b5f74700f8ff024265f73f0280ff2f00a5f6ff0200fe7f101073ff1f00e0ff070192ff7f0400fe3f0244f5ff2700e0ff4300e5ff3f0080ff2f0220fbff0700f8ff0408eaff5f0080ff4f0048ffff0500fc6f2240f4ff1f00d0ff2a04d0feff01007fb70402fdff1700f0b72511b0ff7f00c0dfaa2281feff0500f6554d09e8fe7f00e0d7942a42fdff01806f95aa0ab2ff1f00f855d2aa20ff7f01c05d89d605e9ff07007d8d681b91fe7f00d0afa0da09b9ff0b007e0b652b51ff1f00d83791b522f5ff0180b723ad2a54ff1f00f89ea8cc90edff0180f7924a45b5ff07007c37552aa8fd7f00c07fa54442f7ff0500fcae1522b4ff3f00c07f2b81d0feff0000feb70a80baff1f00e0ff150268ffff0000febf0200fdff0f00e0ff0b00f2ff3f0000ffbf0040ffff0300f8ff0900eaff3f0080ff5f00c0ffff0000fcff0200fdff0f00c0ff1f0070ffff0000febf00a0fdff0300f0ff0b00daff3f0000ff3f0054ffff0000fcff0140eeff0f00c0ff0f80f4fe3f0000ff3f02a4f6ff0300f0ff0310dbff0f0080ff1f1069ff7f0000fc7f08d2faff0200e0ff07a26cff0f0080ff1f486afd5f0100fc7f0855f3fe0600e0ff2352adfb270080ff4f48b5eebe0000fe5f41b5b57e1500f07f49d4dab65700c0ff2a92ebd6ae0480fa57495d6d7d2900f0bf42f4eda9530290bf95a25bdb5e0280fe53447d77ba1200b55f92ec6dab2b0290ff24a2bf5b2e09c07c4b297dbd798900f45b447cdfd54602c8be91e2bd5d5b0840fb4692be7df32000ed6e3079efd60d04d0bd09a9bf5db700407b1794eebdbd0200f66b50faf5e62d00e0de8592af6f7700806f2b547ded7a0b00f87ac2b4b7eb2e00e0ab8baaad76ff04007c17527ddbda4d00b0755355adfe5d00c05b257a6fa9bd03006e5ed566a5fe1700f06951bb6bb4fb040097ad7a2d69ef13007632d96f8afa3e01a04b63ef25e9fe02809d8cfcbb04f78f00d852e96f25ecbf00a09742fbafa0ed07049e94ec7f12dc5f00d899c8fe2764fd22809b92fcaf02ef1700f694d0ff1658fd10e0a692fe2da1fb0600bf1274ff035abf00f0d550fb5ab47d01c0af81ec7f05ed4e007cab50df96ec6e00e06f81f6b7427d0b007e1ba9db2a7b1b00f85b21dd37a9db0280df15d5daaabe0600fc37a17697eab600a0bf15adce547f0300fc9fd0f4caea9b00c0ff49a69ababf0400fc5f3075d3fa1600e0ff651295fb5f0000ff4f245dd5fa2500f0ff9250e5de2f0080ff2f124dddfd0200f8ff1151e9dd2f0080ff9f80c6be7f0000feff80687aff0500e0ff0f8452ff3f0000feff004c7bff0100f0ff0f20d9ff0f0080ff7f00a8f77f0100f8ff0700fbff0300e0ff3f00d0ff3f0000feff0140dfff0100e8ff1f00f8ff170040ff7f00a0ff7f0000feff0300feff0500b0ff3f00e0ff2f0080ffff0080fdff0200fcff1300f8ff0b00d0ff3f0060ff5f0080ffff0100fcff0300fcff0700f0ff170070ff3f00c0feff0000ffff0200fcff0d00f8ff0700d0ff5f00a0ffbf0000ffff0200feff0200f4ff0f00f8ff0b00e0ff3f0060ff3f0100fdff0500fdbf0500f8ff0f00f4f71b00e0ff3f00c8fe770200feff0300fdf70a00f8ff2f00f0f72700c0ff7f00c8feaf0000ffff0300fbfb1400f8ff1f00f0f78b00a0ffff00c0fd2f0280fbff0300fbfd2200f8ff0f00f4fb950060ffff00c0fe370900feff0300fd6f0900f6ff0f00ecfe590060ffff00c0db5f0500feff0700bc7f1500b8ff3f0070fb570180ffff00a0ed6f0500feff0700dafd0b00d8ff3f0068fbdd0080ffff0280f6fd8200f8ff0f00d9be4f00e0ff3f0092bebf0800feff034079f71300f8ff0f00a5f72f0180ffff0030eefe1200f8ff0740d5fb4b00e0ff3f0094bbbf0200feff2120dafd2700f0ff0f8062f7af0080ffff00486dff0200fcff07a0d8f62f00e0ff3f0092edbf0200feff0148b5fd0b00f8ff0f8054fbb70080ffff00906dff0200fcff0720b5fd1500f0ff3f0052fb370100ffff0920f9fe0200fcff170162ff2e00e0ff3f0224f67f0000ffff4940e2ff0a00f8ff974240fe5f0080ff7f8980e4ff0100fcffab2280fd0f00f0ffb72a00f57f0000ff7f970250ff0300f8ff772a01fc1f00c0ffaf5705a0ff0000feff5e1580fa1700f0ffdbd500687f0080ffbfb702a0fb0300fc7fbb2b00d91f00d0ffef6d08d07e00c0fadfbf0540de13006cffff3900d45700a8fdfdaf0142b70920d5feff0d40f4aa00a4fdff5701c82e0522daffff0490bc521062f6ff9f00a94d0511eaffff00a45a952028ffff47806a4b0a84ecff7f00aaba540052ffff4320b3652140fdff1f00552f0d40d8ffff0054f3d200a0ffff0740d5ad0a00faffbf0098bd1a00f0ffff01907a6b0100ffff2f006aaf0300fcff7f00d0be2e00e0ffff0500dd7d0000ffff1f00e8f70500f0ffff0180fe5e0080ffff0700fcfb0000feff1f00b0ff1300e0ffff0100fd3f0080ffff0700f4ff0200fcff3f0040ff0f00e0ffff0100fd3f0080ffff0f00e0ff0300fcff3f0080ff0f00e0ffff0100f6ff0000ffff0f00e0ff0500fcff3f0080fd1f00d0ffff0300f8ff0000ffff0f00e0ff0300fcff3f0080fe1f00b0ffff0300f8ff0000ffff0f00a0ff0700fcff3f0200fe1f00f0ffff0800f87f00c0feff2700e0ff0900fcff5f0200ff4b00e8ffff0800f8bf00c0ffff1300e07f0380feff8f0040fd1700faff5f2100f45f00e8ff7f4500b0fe2180ff7f170980fa4700fcffaf4400ea2f02f0ff5f930850fd08a0ff7f2d1180fa0b00fbffd75080d45e20f8ff8f130550dd21a0ff7f561210ad1740feff29531250bd20f4ff972991c0aa03e1fd7f521509525708fdff159524a86a41f8ff17692981d426c4fe7f894a15245b10fdff85aa3290b491d0ff3f915241c51644fdff112e2b207689d0ff3f286941b18544ff7f4153038a3b09f4ff0f291a94f444d0ff5fc8d480c4af04fcff0b450a4abe12f0ff27992a01f45701f6ff934202955f0978ff35ad0880fa5f00f6ff55810075bf04b4ffb55600c0fe0f80feefb30400fcbf00b8ff7a2d00c0ff0700ffef6b0100fc7f00f8dfbe1a00c0ff0700ffff550000ff1f00fc7f6f0900f0ff01c0ffef4b0080ff0f00fcff5e0400fcff00c0ffff0200e0ff0700ffbf9d0000ff3f00f0fff70400f8ff0100ff7f4d00e0ff0700ecffbb0000ff7f0040ffff0400b9ff0380fa7f170124ff2f00a8ff3f9040d5bf0540f6bf13121a7f6d00e47f2f48e8e46b0312efbb22254bbd2e20f1dd53a4d9a4d50589be5b925c555a1d91f47a61d2ab8ae6a4549725ce3e2a6a5549ad6a64ed9389961a7555225dbf0ca9aaa94b49d47b534a0d4d7b1a40ef3f12d1b4b9a940ea7b8b4585d9bd1280fd5f1429d57a5500f5ef458594766f08a0ff5b8c4872df0580fdbd4a0985fb3d00e8feab4a90f8fb0280fd3bb388a0df2f00d87f9b0a44fabf00e0fe66ab04d0ff0700f66f5d1240ef7f00d0fdda2901f4ff0180f7972d05d0ff1700dcbdec5200fd7f00d0f7a94b02f8ff8280de1bbb2840ff1f00fa6ed2a504dcff00b0bf253d24f0fe0700ff36d45180ff1f00f47f818d0afc7f01c0ff136834f0fe0700fb3fc05203ff1f00f8ff011417fc7f0280ff1f8074e1fd0700feff00d045fb9f00e0ff07805df2fb0480ff3f00e8a3fb0b00fcff038057f55d00b0ff1f007a2bdf0680feff00e09eba2b00f4ff0700dfa5b708c0ff3f00b8376e1580feff0180fbd45508e8ff0f00fa471b13a0ff7f00a07f6a5280feff0100fba74501eaff1f00f03f162990ff7f0080ffcda040feff0300f8bf4212e4ff1f00c0ff1b4890ffff0000fc7f88a0ecff0f00e0ff4380e2ff3f0000ff1f2148fbff0300f0ff0910faff4f0080ff970062ffff0000fc7f0a80eeff0f00e0ff1380b8ff3f0000ff5f01a0fbff0500f87f4a00f6ff1700c0ff5780e0ff9f0080fb2f1308f77f0300fafe5220eaff9500e0fb4d8264ffab0884ae5f9250fb57492874fa5282f5ef88a461d32b09ba7f45b0562add28e8fe55c0da92d22689fd8f40de2e28ba24f57d08f2f700d1a39adf82d0ff05009f5a7d1528ff3700b0ebeb42c0fd7f0200fef70400ffff0300e0ff0f00f8ff9f0000ff7f0080ffff0100f8ff0700fcff0f00c0ff3f00c0ff7f0000ffff0000ffff0100f8ff0f00f0ff0f00e0ff3f00c0ff3f0080ffff0000feff0100ffff0200f8ff0700fe772b02a0ff1f00f877b52300edbf00eabeaa3e11607d15d2dd456b4f10a86b536d1b5af71280d46eeb6a89f59d04007ebf5caad8de0500f0ffa9a945eb3d0000ff5faa3ab1ee0300f0ff49578b6c3f0000ff9ff46ac2db0300f0bfc95f0b5c3700a07fabbe5ba0e50500ddadeedf08aa2b0072edf2f713896612282babfe7f48b05241a552ddff8b028b4a2a19eaff5f2828d1a285c2feff8a8144562d24f4ffb72482a8b612a0ff7f952488749b20f4ff574982507705e0febf2a15047a3701ecffa7d220a07d13c0febf541502ea9f00f4ff65ea0440ff05c0fe5f6a2700f85f00f4ff497b1100fd0f80ff2bda5700e0ff00f8bfc2fe0400fe0f80ff0bed2f00e0ff04f07e52ff1200fc2f80ee8be9bf0080ff03e837aaff0900f83f80bda9f47f0080ff13d053cd7f0700f83f815a6afe5f0080ff0ba454dbff0200fe5f0292baff3600e0fd2b01d4feef8000ed7f0580f6ff2a08a8fa5f01a0ffaf9020aaff0b00fcff220a11fd7f0180ff4f4889a8ff1700f8ff10a942f67f00c0ff0fa12ae4fe0700fcff082a25fd3f00e0ff0b50ab98ff0900febf009953ed2f01e0ff0740bb6a6f0580fe3f00f54e755d00f0ff03a0bfa9ea0281ff4f00f6572a2f04f4ff0070ff24db0450ff1700ff2b525b40fa9f00ec7fa2ca0265ff12c0ff15542ea8fc9500df5f28d544b16f04eaff04a58d4a5d25917f27925c69cc2549fd5e24b1a5559548d97f8544b5ae2a41acff8d50d4746b1190fd7f0862d56d1501eaff4740aabe2b01b0ff9f10c8ecbb1180fcff2a4064df9700c8ff6f0848de7b0a80fcff1500e9fd4a80d2f7bb0284be5f0288fbef32007adf2448dabb6d21c1fa4e04a5fbae8a44d65e1262debb3258b4b94584d9f7250553571b89a8fe3e0a58f55a21c2fcfd12a0da5b1502d5ff4f00d47ead0051feff4400d9bf0580f4ff4f00947f5b00a2feff0420e97f0300f5ff8f008aef1d0150ffff0890f8f61100f5ff278222af2f02d0fe7f041969bd2380faff894889d61b0594ff4f542a34dd3220f57f525509a55b05a5df8db62c20bb0b91fa6bd1ab01ca3e49b457953f0d40fa5342bbaafa6b01c03f159a55d5ff0a00fcb3603969fd5f00c0bf438c92feff0400fc2f4491f4ff0f00e0ff0502c9ffff0000fe9f2020feff0f00f0ff2200d0ffff0080ff1f0100feff0f00f8ff0100f8ff7f00c0ff170080feff0700fe7f0100f8ff3f00e0ff170080ffff0180ff3f0100fcff0f00f8ff0300e0ff7f00c0ff3f0000feff0700feff0000f8ff3f00e0ff0f0080ffff0180ff3f0000feff0f00fc7f0300e0ff7f00e0ff170080ffff0300fb7f0100fcff1f00f0ff090070ffff00c0fe9f0000ffff0700fc7f0480f4ff1f00e0ff4700d0ffff0000ff9f00a0feff0300f4ff0220d9ff3f00c0ff0740"
	DPCMSample Name="Choir Ahh C" Color="ffc6a1" Folder="famidash choir" Data="aaaaaa6aa5aa5a55aa5a5556a5aa56a5aa565555a5aa56a5aa5655a9aaaa55a5aa5595aaaa5a55a9aa5595aaaa6a55a96a5555aaaa5a4b496dad94aaaad62a5275ab94cab4b629a4ee56a454b5dd1448ef4d2295b6bb1250bf2b422abbdf08c0fe1782927d7f04c0ff1582a8fd3f0180ff0f40d4fe7f0080ff8f00c8ff7f0080ff1740e8fe7f00c0ff1300d2ff7f00c0ff2500d1ffbf00c0ff4a00b1ff7f00e0df1201f1ff1f00f0b71581f0ff1f00f8b54a42e8ff1f00f8554d22d8ff0f007e4da942f4ff07007d95aa12f4ff07007d25b50af2ff07005f85d605e9ff07003f85da11d9ff0340bf82da0ab9ff0380df42d612f5ff0140df44b60af5ff0140ef48ab22f5ff0140dfa23283f5ff0140dfa45251fb7f00c0bf52a9a0f5ff00c07f1991b0fd7f00c0bf9a44d0fe7f00c0ff4a08b4ff3f00c0ff2a04e8fe7f00c0ff1300daff1f00e0ff2b00f0ff3f00c0ff1300bcff1f00e0ff0b00f4ff1f00e0ff0b00faff0f00e0ff0700fcff0f00f0ff0200fdff0f00f0ff0100ffff0300f8ff0280fdff0300f8ff00a0fdff0300f8ff0050ffff0000fcff0060ffff0000fe3f00b4ff3f0000ff3f00b1ff3f0000ff3f006cff3f0080ff0f40daff0f00c0ff0744edff0300e0ff0724ebff0300f0ff81a8f57f0900f0ff1069bdbf0200fc3f22d5f6be0000ff4f48b5ee2f0200ff17525bbb5700c0ff85d4daf61500f0bf22d96eed2a00f05f45756d7d4600f82f21fbae3a4500f557926edd5e0280fe1351bfad2e01507f2ab1b7ab2701d07e89e8efd58a00ccb794f4f5e68500f45788fc77b52180ec1b4abebb6d2100fb46a27edf3c0840f70693ef5e2f1040bf09a9bf573700d0bd41e9de772b0070af44faf5e60b00b877a4d8fbf60a00bc9d50ededfa0600bc1e347dbbee0200be2e9ab676ff0000df8654bfb5de0040d74d55b3ee5f00c06745ee6bdade00c0e5559ba57e5f00e06951df1add370070b9ea56a5bd0f007632d9afa2fe0d00ba34f65ba2fd13005e8cfc2fa1fd03802e4dfe56d0fb03809b0afdafa0fd01412745ff27d0fd01609742ff2768fd02e0a6c4fb2bf07e00e89560ff0f58bf00e8a968ff0aba1f00fc4ad0ff15583f00ec36d4be15dd1700fc2ab0ff056d4f007c2bd4b725770700fe25e8df22dd0b00fe166ab7cade0900bf15d4efa4ee0280fe15d5b6aa6f01807f135a5fa6dd0280bf15ad4dd6df0000ff0b4dafaaaf02807f4ba69ababf0080ff035337736f0080ff571195fb1f00c0ff43d256ad5f00c0ff4b42d5be4f00c0ff0bd1cadd4f00c0ff4750e5de2f00c0ff27a0f2fd0700e0ff0764d9fb0700e0ff07a1f4fe0700e0ff0730ddff0900e0ff0f40eeff0100f8ff0390deff0100f8ff0320ffff0000fcff0140ff7f0000feff0140ff7f0000feff01c0ff5f0000ff7f00e0fb3f0080ff7f00e0ff1f00c0ff3f00e0ff1f00c0ff3f00f0ff0b00f0ff0f00f8ff0700f0ff1700f8ff0500fcff1300f8ff0300feff0200fe7f0100ffff0000ffff0080ff7f0000ffff0080ff3f00c0ff5f00a0ff3f00c0ff3f00e0ff0f00d0ff1f00d8ff0f00f0ff0f00f8ff0300f8ff0700fdbf0500fcff0300f7bf0100feff0140ff7e0200ffff00c0feaf0080ffff00c0ff4b00e0ff3f00b0ff4b00e0ff1f00eaef1300f0ff1f00fcfd2200f8ff0f00fcbf1000feff0300fbbf0800feff0380fe570280ffff00c0f74f0280ffff00c0ff9500d0ff3f00e8fe5500e0ff3f00d8fd1500f4ff0f00bc7f1500f8ff0f00b67f0500f6ff0780ee6f0500feff0380f6df0080ffff0060bddf0080ffff00a0fb3d0280ff7f0064f73704c0ff3f00a4ef2f00e0ff1f00e5de4f00e0ff1f00e9fe4b00e0ff8f00d9fb1300f8ff0740b9fb1300f8ff0720b9f70b00f8ff07207aff0600fcff01286eff0200feff01486dff0200ffff0048edfe0200ff7f0092ed7f0080ff7f0092edbf0080ff7f0052fbb700c0ff3f0064fb2f00e0ff1f80d4fe1600f0ff1f80d4fe0b00f8ff2780e4df0300fcff2780d8ff0200fcff2780e8ff0100feff8980f47f0000ffff4980e8ff0100ff7f8980f87f0080ffbf4a80f87f0080ffdf2a00f57f00c0ff772900fd1f00e0ffd72901fa1f00e0ff7b5500fa0f00f0fffb5400fa0700f8fff79400f60700fcffbe1280fd0300fcffee0a80fd0100fbffb70150bf00c0fefb6f0150df00c0f6ffef00d05b01a0fdfb6f02d0ad0052ddffbf00d0ab00a2feff5700b14b0191bdff5f00724d8188f6ff1f4072534190faff1f40725382a0faff4f806a9302a1feff07a06a530148ffff072073630150ffff0350f5b20060ffff0350db3400e8ffff0054dd2a00f0ffff0098bd1600e8ffff00a8bb1600f8ff3f00b2b70300fcff3f0074ef0200feff1f00f4ed0100feff1f00f87b0100ffff0700f65f0080ffff0300ff3700c0ffff0100ff0f00e0ffff0100ff0f00f0ff7f00c0ff0b00f0ff7f00c0ff0300fcff1f0070ff0500fcff1f00f0ff0400feff0700f87f0100ffff0700f47f0180ffff0100fe5f00c0ffff0100fd1f00f0ffff0000fe1f00f0ff7f0080ff0700fcff1f00e0ff0900feff0f00e0ff0100ffff4700f0ff0080ffff0300f87f00c0ffff0900fc1f00f0ff7f0200fe2f00f0ff7f0080ff0b00faff9f0080ff0300ffff1700e0ff00a0ffff8500f05f04e0ff7f0900f49f00e8ff7f8200ea2f00faff6f0880fa0700ffff2b1180fa2380ff7f4d0260fd04a0ff7f4b04a0fb00f0ff5f2301545f08f8ff674501545f00faff674501b41e10feff295504542f10fdff991201ab0e84ff7f521501d316c2fe7f514982ca05e1ff2f692981d485b0ff5fa854507121f4ff17aa32907821f4ff0f2a55505c08f5ff07592d207621f4ff0f4a16145b88fcff054d0b883e11fcff438a06452f04fdff054b03a2af04fcff439182e22b01ffbf51aa00d25f01f6ffa38840e59780fb3fd31202f85f00f6ff530140dd2f01fb5f6b1100fc3f00eeffb30000ff0f80feafd70200fe1f00faff670100fe1f00feefab0100fe1f00faff570000ff0f00ffdf570000ff1f00feff4b0080ff0700ffbf1700c0ff0700ffff0b00c0ff0700ff7f0700f0ff0300ffff0300f0ff0300ff7f0300fcff00c0ffef0200fcff00c0ffdf2000fe3f01a0ff5f2180fcbf00a0ff3f2050fd5d0064ff1f2868fa750062ff2f5038f9ba80d0bf2b52acf4ba80d0df53a459697541e4eb25a955a97544b4bb61d2ab923529d6e9d0eca3a23525b56a61f563a1a5265d95c8f9cba026972e45d2bb534a454b9f82d0ff13114b97a702697f4b4585d5af04e0ff2589526d5701d4ff268394f62b01e8ff258324df9b00f4f72a8544fb2f00e8ffa68284bf0f00faef2c8388df2f00f8dfa602a2ff0b00de5fad02c4ff0700ee5f9704d0ff0700fbaba702d0ff1300f7a72b01f4ff01c0ddd32701f4ff02c0fba94b02fc7f00f0bdb18b00febf00e86fd2a300fb3f00fa5dd25180ff1f007e37d451c0fb0f00ff1bd828e0ff0700ff0f7034f0ff0180ff0f3035f0ff01c0ff075016fc7f00e0ff07c016de7f00e0ff074017fd1f00f0ff036097ee4f00f8ff01a097fd4b00f8ff01e0d3fc1500faff00e8adfc0a80fe7f00d827bf0a00ff7f007897be02c0ff3f00748f5b09e0ff1f00ec8b5701e8ff0f00f6c7c604f8ff0700faa74301faff0300f76b5101feff0100ff65a140feff0100ff2d2210ffff0100ff2b2890ff7f0080ff2b08c2ff7f0080ff8708e2ff3f0080ff4780e8ff1f00e0ff9180f8ff4f00c0ff2300faff0f00e0ff0920f6ff1700f0ff0820eeff0f00f07f0580fdff0500f87f0580fdff0100fe9f1280f7ff0100fe5f0142ffbf0080f74f05a2fb3f01c0ee4f8168ff5700e0fb9304d9ff4a40e8fa4541ed5f252874de5260fd5b42aa38bd24e2fc17a15a26dd28e8fe15b0ada86c92787f0a78b720d924f55f08fa3d2074a9f94d40ff17007a5a7d15c8fd0f006cdf2e04baff0b00f87f0500ffff0900f8ff0100ffff0100fcff0100ffff0000feff0080ffff0000ff7f00c0ff7f0000ff7f00c0ff3f00c0ff1f00f0ff0f00f0ff0f00f0ff0700f8ff0700fcff0100ffff0000feff00e0ffb60280fe7f00f077750301fb2f80faabda2340f555c8ee456b1701e9dad4b589f54b0250bb6dab89d59f0080df2fa78aed5e0080efafa616ad3f0000ff9faa0e6b3f0000ff2f5d27b23f0000ff1fbd1aec5e0000ff0f7f2df07c00407fabfb16585e00d0ddeaf723a8ae00b0edeaef43a2a940aab2faff21c14a41a552fdffa1c0a2a28aa1feffa1c044a38542ffff921091551341f7ff930891da0a81fbff0d8908dd2680fbff150512dd1540ffbf2a1510f64d00fbff2a15807a4f00fbff4c1500fb2e00fd7fa54e00ec9f00fa7f592700f85f00fc7fb81e01f05f00fe9fd85e00e07f01ec3f693f00e07f01f43fb43f01c0ff00ec9fd4bf00c0ff02e82fa6ff0080ff03d88fea7f0080ff03d8a7d2ff0100ff03d453f3df0100ff13a8a5fabf0100ff07a4d4fabf0080ff27206afbdf0080ef2f01d4fd5f0140f75f0160ff6f20a0eaff00a0ff2f2444eaff0280ff2f2842f4ff0100ff9f4812eaff0180ff0f924ad8ff0180ff0fa291d8ff0180ff8fa05274ff0180ff0f502b59ff0280ff0f9035b5bf0480ff0f40b7596f01a0ff0f40ef54b70580ff0f80f7a9ea01e0ff03607f29eb04e0ff03c0ff24db04d0ff0960ff22b505a8ff0270ff12cb02e5bf04f07f21e582d25f027c7f21d544f1ab80fa3f42e9a8d45542fe9d50dc686c1951df17316c5a5989a8ff0d1255bb2a81aaff231455bb9600d9ff2388d5761501eaff13846adf0600fbff0920b3df0580fcff0a01d9bf4500fcff860079df4900fcff25007abf1220ddbf2b00ba7f0920eeff3200f63d0994eddd16826c5f1194bebb8a44b55b8298f72b13459b1b09667f9704534f1b11aaff9304666f1582b2ff4b80da5b1508e5ff1700edd78220e5ff1701e4df0580f2ff1700e5df0540eaff1700e5df0300f5ff1780e2f70600f5ff1740e2fd0602f4ff47a0c8bb0702ecff0b6164f52501faff9250a2f54601f9ff48a9487553a0f47f525541e95644fadd68ab80f22e84fa6dd16b01d24f12edd5f8d300e44f09ebaaf96b00f04f8566d9fcaf00c0df8265a9fd5f00c0bf09a3a8ff5f00c0ff0845d2ff3f00c0ff1140f2ff1f00e0ff1180f8ff1f00e0ff0300f4ff3f00f0ff0100f8ff1f00f8ff0100f8ff1f00f8ff0100f8ff1f00f8ff0100f8ff0f00fcff0100f8ff0f00feff0000fcff0700fe7f0000feff0700fe7f0000feff0380ff3f0000ffff0180ff3f0000ffff0180ff1f0080ffff00e0ff0f00c0ff7f00e0ff0700e0ff7f00f0ff0500f0ff3f00f0ff1100f8ff0f00dcff0200fcff0f00fc7f1000fdff0700fc7f0040f7ff0300febf00a0feff0100ff2f0064fbff0100ff0f01b4ff7b0080ff0f00b5ff370060ff0f00f57f5700d0ff4500bd7f1700d4ff0540f76f2b00d4ff05407fdf0a01b2ff0148ffaf2408f1f702c8ff2e4610f2fb02e0ff1b1211eafb00f2ff1a120ada7d08f4ff864409ba5f08f4ff458282b61f22fcff82c082ab0f49eeff90a082731709ffbf20a4d0e98a92fd3f115074d54465ff3d84506a5552b5ef5e0244bd49c8f6b79702c87611d17eefaa01d0ee20e8febbaa00e87d00f2fdaf2a08f85e00f4ff2d2d04783f00f4ff8b4d00f60f00faff472501f60f00feff512580f50f00fcff4b5440fd0300ffff111548fd1100ffff1145507f01c0"
	DPCMSample Name="Choir Ahh C#" Color="ffff93" Folder="famidash choir" Data="aaaaaa555555a9aaaaaa56555595aaaaaa6a555555aaaaaaaa565555a5aaaaaaaa555595aaaaaaaa5aad54a9aaaa4ab5b6aa94aa5a2a656d5725a9aaa5946a6f2b89aa5a4a52fb5d4528ad2589dabf2b41545b1251ff6f0542b52582ecff9f00545b8450ffff1300d58a80ecffff00502d81a0ffff1f00644580ecffff0700a510a8ffff3f00a01242faffff03004a4464ffff3f00a08848f5ffff03001249d2fdff3f040021a9baffff130020946af7ff3f010082aadeffff120000a9dafdfdbf080080aabbdfff550000a876f7fe5f050080daeef6ff560000a8edeefe7b090080dadbf5f79b000068bd5ddfbf0a0040b5bbf5fe2d0100546f5bf777230020ed76b5ef570200ca5e5b7bbf450090da6db5fdad040065d756ebf78a0024756badde571140c9aeb6eabe260494ba55abf6ae044265b7acaa77552054edaa4abd5b0922ad6daad4dd2a21aab6554aedd644a2dab624d56e9524aadb2a5175ab4aa4766b0955dd2a49d96e5550d556a554db2d0595b5aa4ab5bd4a48a92babd4b69782a85a5555eb6e2544aa9656b5eb4d21a4aab45a77dd1222aa54adf6762b21918aaaeddeae149124516defdb4a9144126afb7b97144a1222db7fef48a11241d4fedf8b24291188f5ffbd28920a8268ffbf4714a98088faff6f24910a88a8bfff2712a98088f9fd7f9290228854dfffab84242049dbfbbf2a4140945abdff6d050290aaabbbff2e0100aa6db5bdff260000bdab6affbf0000d05f95eaff2f0000fc9748fdff0300c0ff44e8ff7f0000f82f01fdff0f0080ff09e0ffff0000f83f00feff0f0080ff03c0ffff0000fc3f00fcff0f00e0ff01c0ffff0000fe1f00faff0f00e0ff01e0fe7f0000ff1f00fdff0500f8bf02d0ff1f0280ff4b80fa7f0500ed5f1168ff2b01a4fb2642f56f23106daf24d4be9b44a8ed8a48eddb5224adad88d4dd564969b52251bbb52a35ab4a4875d754d56a9310e97653aa5d570844df2e49ddbd0201f5db22d5fd1600547f4da2bd5f0140ed5749daf70b00d47b95c8febe0040dd5b8aecef0b00d4bd2ac9f7bd0020ddad9276ef1308d06d2b55775f4280dada54ebee2a04a8d54dad6db72480aaeeaad5ba5502a4eab6da6a6b2510aa7aababd6aa84a0aab76e6ab52a08497deb9566b54490d4b75da9aa4d04497d774ba95a4520d5efae24b5360292fdde29526d2340eabf5b22d95602a4fdb72594752540da7f5742aa5b02a4fb6f45a47a2540b6ff3688aa5704a8ffdd82a87a0581f6bf2d88aa971068ffbb0229770990ee7f2b906a2b01e9feb70229bb1284eeff2688744b41e8fd6f4244b71490edff1684b45581d8fe5f42485b1588edff1588b45541e8fe5f0251570d90f6ff2510b5d52068ff5f02526b8d80faff2520b5b608a8ff5f0252db4a80faff2520b5ad04a8ff5f0452db2580faff0622b55b02b0ff9f4052772500fbff122475570268ff2f41546f2580faff4424ed5602e8fe5744546f1380f67f4548ed2d01d4feae48d2dd0a20edf78a28db2d21b0bd3791b4bb1281eabd15c9b6ab10a4ed6e92acbb8a2069772ba9b6ab4490babb926abb2a02a9dd2da9b6ab12816cef8a6add960450bdafa4da5d2500d57e4b65dd2d0980fabb52d6de4a00d0fb2ba5ed5b0200f5bf4a6abf1500a0ff5792f6b70400e8ff15a9ff160000ffbfa0fadf0000f0ff07b2ff2b0000fe7f20ddff0100c0ff0fd2fd1f0000fcff01edff0100c0ff1f50ff1f0000fcff01f5ff0100c0ff1fc8fe1f0000fcff01edff0100c0ff1fc8fd1f0000fcff41fabf0200c0ff1fa1ff0d0000feff09f66f0100e0ff5fc87e2b0000feff45da5d0100d8ff5f52db4a0040ffdf956a550108ea7fdf54958a2088beffad2a512222d2fedf9522129588ecdfbf14905425a2faff9700a4da04c9ffff0400b52b81ecff3f00c07b0550ffff0b00d82f02f8ff7f0000ff0a80ffff0700f05f00f8ff7f0000ff0580ffff0700f05f00f8ff7f0000ff0580ffff0700f05f00f8ff7f0000ff0940ffff0700f02f00f5ff3f00807f05d0ffff0100ec1781faff1f00c0bd04e9ffff0000dc15a1fdff0700b0ad84faff3f00805a2569ffff0100559524f7ff1f005055a2f4ff7f0180524552ffff1700a89448faff7f00824a12a9ffff0720284592faff7f00811249e9ffff0304482295fdff3f10808854b5ffff45000892d6feef5f0200826abbbfff250100d0f6defbaf0a0000eebebb7f5b000060ff6d7bdf450000f87faddd5f010080ffaf6aff150000f8ffa5ba7f090000ff3fb1fe570000f0ff0bb5ff050000ff7f50fd5f0000f0ff87e8ff050000ff7f84fa7f0000f0ff47d0ff070000ff7f01fd7f0000f0ff0f50ff0f0000ffff00faff0000f0ff0fa0ff170000ffff00daff0100f0ff0f90fe2f0000ffff04f0ff0a00e0ff2f00fbbf0000fcff03d0ff0b00c0ff3f00edff0200f8ff4340ff2f0080ffbf00f8ff0100f8ff0b80ff9f0000ffbf00e8ff0700e0ff0f80fe7f0000feff00e8ff1700c0ff1780feff0000fc7f01e8ff0f0080ff1f80fdff0000f8ff01d4ff0f0080ff1f40fdff0200e0ff83d0ff2f0000fe3f82faff0200e0ff13a8ff1f0000fe3f41f6ff0200c0ff0f61ff1f0000fcff08fdbf0200c0ff4fa4ff2d0000fcff22fadf0200c0ff2f91ff2d0000fcff91f4df0200c0ff9fa8fe4d0000fcff29ea6f0100e0ff5f52fd160000fcff97d2af0200e0ff5f257b4b0000feff2da9570900a0ffff4aba2a0000fbff9f54ab0200b0ffff2555550080f6ff5f51550a0068ffff93942a0180eeffbf48ca240068ffff8b48550240eeffbf8864250450ffff8790aa1200f5ffbf20aa960050ffff0b24750900f5ffbf8054570050ffff1390f61200f4ff3f4069af00c0feff03a4f60a00fcff5780ea5e00c0ff7f01a9de0500fcff17a0ec3700a0ffbf04ca7e0300eeff1542dd2f00d07f5f82d4ef0200fdf78a50fb2d0068bf3711b5bf0480eebb4552f74b00d4ddad48edbb08a0ba6da5d47e4b00695b9752ddaf0448adb652d5fb8a10aaaa5565fbae08a1aa6aaa76df8a0895d2aa6af72b894829d5b4f6be92484a5255eb7d2b915424aad6deb792244524adedfb2a514a4454eb7eaf24a54444b5eeef2a2a494864ebf7aea4924288bafede4a2a4508a9ebefaea84a4290dafe6d93aa2404a9ddef56a94a4290dafd5da52a2502aadddf95d24a02a2babf6d492d2540a9fbdb2ad54a1190babfad524d9500a9efd74a6a550990f66faba4669500e5feba92acb60890dd5f2b516d5580d4fbb524555b05247b6f5591da55206af7d614aa6e05516daf55a16c5784aa766b1552bb2652aadb5641d96e494adab615a476572aa2d5db20d2be5505a9be0b827abf9580b4bf1048ff6f0190fe2b00baff2f00f07f0140ffff0300fc1f00e8ff7f00c0ff0100ffff0f00f81f00f0ffff0080ff0100feff1f00f03f00e0ffff0100ff0700fcff1f00f03f00e0ffff0100ff0300feff1f00f03f00e0ffff0100ff0300feff1f00f03f00e0ffff0300fe0500feff3f00e01f01e0ffff0300fe0280ffff1f00e04f00f4ffff01007e0940ffff1f00e02702daffff0080be42a0ffff0700d88b08faff7f0080dd1051ffff0700b41512edff7f00405b44d2ffff0120b48524fdff1f00a25a50d4ffff022059094afdff0f01519520f5ffdf4090b408a4ffff0b08ca4a40daff7f01a45a0248ffff27806a1580f4ff7f80a8b60050ffff0710ed0a00f6ff7f00d25e0880ffff0780ee2500f4ff7f00685f0140ffff0700f79500f0ff7f0070df0400ffff0700fb4b00f0ff7f00d0df0200ffff0700fd2d00e8ffbf00d0df0280feff0340fd2d00d4ff3f00b4df0240fbff0920f72e00e9ff1701eade0288fddf8490ee2e08d47f9710d5ed44a0eedd24a5da5644d46dab54a96d2922bb6a5555599b92644badda92b5aa242da9ad5d54b396a442b5bd45555d9544d0de2f52daad2480fafd22a97e950060ff9f20ed6f0200faff0554ff4b0080ff5f40f67f0100f0ff0768ff0f0000ff7f80fe7f0000f0ff07f0ff170000fe7f00ffff0000e0ff0be8ff0f0000fe3f82fe7f0100e0ff03f9ff030000ff3f50ff3f0000f8ff84ecff050080ff57a4fd1f0000fcbf49f5df0200a0ffabb4fe0d0000fbefaab66f020068bfd75a778b00806e7f6deb5a8200d4fadbb5b58a0890aaefbb56559210a47abf5b954a4910d2fdb79552552210ddff5689aa9640d0fd6f25525b4500ebff5544da2d01c8fd6f89a8dd8a00dcff2522dd5b02a0fbaf22d2bd1500baff4a44ed5b01a0f73749d4bd1500ed7d2549dd3b01d0de5b94d4bb1580dcdd5229bd5b01a8ed4d55b2dd2540b65d55a5d6ad08d2daa655aaed92a06aab5a55555712a5b5aa5555b54aaab44a5bb5a455a9a929b5d54aaaac56554adb9a44a5edaa92b4ad8528f5de9448bb5610b2fba782b46b0548ee7f1544bb5500b2ffaf02b4db0440fdff1340db4d00e8ff7f00b4db0040fdff0f40db1500e8ffff00d25d0180feff1f00db0a00eaffff01d0b600a0feff1f80aa1500daffff0148ab04a0fbff3f00549500f9ffff01805a0950ffff1f00a8aa40f4ffff0100d514c4feff1f00a05621daffff0300a81591fdff3f00006b11b5ffff0300d02649f7ff3f0000ad52ecfeff030050aba4deff3f0000b52adaffff020060ad52fdff2f0000d62ab5ffff0200a0d54af7ff4f000056adecfe7f090090d5aadeff9b00005a6dd9fdbf120090d666dbff2e0100696db5fb6f2500a0bad5b67f5702006a5b6bfbbe250090b6b5b6efab040069dbda76df4a0090b6b56def55098068575bf76e15014475b56def6a2220d25a5bf7b62a04216db5b66fb54408a9666bf756954484aab66db76a91225455db76ab2a252155d56db754658a4855db7653a95a2292d6dd4ea9b4169164dd6da5545d4944b5dd4d926a571252dbdd44527b9508b5be4d84eabb1444dbdd4450f7ad08aaed4b04da772b44dade44a0f6b70952ed4d04d4df5784d46e2540edbf95206d5702a4efdf84c8761540daff2d416a5b01a4eeff4aa0d61510b2ff6f81a86d0121edff2f405a2b0451ffff1260d52208f5ff5f0095568290feff4740a94544e4ff7f0192aa4444feff0f81489324d2ffff0481544a22fdff5704444a25a9ff7f250228a992f6fb5f094022add4bdff960440544d7dfbb72a00446ab56fdfad022048dbbeed6e2b0100d9edaf76db0a00a0f6fd66dbb60000b4df5fd5b60d0100fdfe55ad5b0900d0f73fb5da960000bdff53ab6d1200d0f75fb5d5260480baff565bad040152f7bd75ab0a42886cef6d77958088546dbbfbae0820a9aad6bebf450094aa5aedfe370180aa5555fbff0a00d0b62ad9ff5f00006d6b92deff0700a0b795e8fe7f0200d8bb44eeff170000bf2bd2fd7f0100f0bd11dbff170000fb97a8fbff0000e07f25b5ff170000fe57c9f67f0100e0ff4a6aff170000fabf4afd6f0200c0ff97aaff060000fe7f95f6af0000e0ff4fd5fd120000feffaaba4f0000f0ffafeaee040080feff6adb150000fc7f6f6d5b0200c0ffefb66d250000fcffeeb6550000b0ffefed4e090000bfffbebd120100f0fbef7b2b010040fffe7daf120000ecbfbfef2a0100c0feeff7ad220000ecfffdbe290000d0febfdfab020000ddfff7bd4a0000d0fdffbead040000dbffefdb4a0000d0fbffddad040000fd7fdfdd4a0000d0ffdfddae040000fdffddee4a0000d0ffbf6db7020000fdff5b7b2b0000"
	DPCMSample Name="Choir Ahh D" Color="ff579c" Folder="famidash choir" Data="aaaaaa555595aaaaaa6a555555aaaaaa6a555595aaaaaaaa555595aaaaaaaa555595aaaaaaaa565555aaaaaad4daaa54aa5a2a55db564aaa5a29a9ed3625a96a4949fb6e0a296b4992eddf22486d4522fbbf0921b52542eeff0b10b54504fdff1780d44a10f9ff3f00544b40ecffff00509500d9ffff03801902eaffff07002a02e9ffff0f004884e4feff1f004884d4feff1f004848d2feff3f004050b2fdff3f040050aafdff3f010090aaf7ffbf080080aaf7f7ff0400806af7fd7f1500006af7deff1500006aeff6ff1500006a6ff7bf970000686fb7ff9b0000586fd7dfaf0000546fdbfeb70400506f5bdfdf0400506f57f7770500a8765b7bbf090014775bebef4a00906e5beb7e8b0028ed6aabf7950094ec5aab7d9b0052da55abeead4050b9adaafa561150b5ab4add5b11446b9b2aedae12a2da5629b5571392da3645b55d2591baad22d5ae2a91da9b0955db4a4ab65b85546d554a75b71494b6aa4a6db70a52daaa4a6d6f89906a554ded6e2588aaa655dd761342aaca6add6d1311aa54addddd8a88a4a4dadedb4a44a2486ddfbb4a249188d6fd77492445846afff744a11204b5fff722911202d9feff22894a8068ffff09452a40a8ffff89442a20a4fbff47222a2062fdff2709291052fdffab422420d17affaf0a2240a9b5f7bf151040aaabfbf74d00806a57dbfb9f0000f49daafbff0000f057a5feff0200e06f22fdff0700c0df08faff0f0080ff22f0ff3f0000ff09e0ff7f0000ff03e0ff7f0000fe0f80ffff0000fe0f80ffff0000fe1f00feff0100fc3f00feff0300f83f00feff0300f83f00fdff0100fa3f80fcff0100f63f02daff0500fd5e02daff8a00ba5f02d5bf958074b744d4fb2621dab644d4be2d89b4b648d4de564a6ab548d45dab52b52a11d5dd54d56a9320dadd94eab68580ecdb24f5ee2200f5db4475bf0500f9d744dabf0500f95b45dabf1300f45b49ecef0b00b46f49f4fb0b00d4af2af2fb0b02d0db2ada7d9700d06d2bd5ed9700c8ae4db5edad08a0d636ad6daf0490aab76aad5b2580aaddeaaa6d2510aaeeeaaab52a04aaf6eaaad6aa80287ddb9565ad1024bddb95aab60822f5dd4ba95a4540f5bb2b496d2320767f1749751320da7f9748b61501d97f5748da9500d97f57426a9700e9bf37426a970069ffb740aa571068ffb740aa5b0868ffb720aa5d04a8ffb708ca5e0268ffb702a9ae02a4ffbb0149b784a0fbbf4124bb24a0fdbf0924db1490bdff05215d1581ddff85106d9580edff25206d5540b6ff17206d5504daff1704b55501d9ff1781b4d680e8fe9f80d4b604a8ff5f80d4b602a8ff5f4054bb12a0fd7f2052bb09a0febf0252bb0540ff7f02527b4500ffbf0449bb2580eeff0449bd1580faff0449bd9500fa7f4548dd4d00faef4548dd2d04b4ff4a24dd2d02b4df2b24ed2e21b0fb4e22edae08a8be5b22ebae4460ee6ea26aaf225076b7926ab79240dade926abb4a046a774b6abd2a81a8de2baaed560450fb2da9f6561140edb794b5b70480fabd52d6bb1200f4bf52da7e4900d0ff2a697f1500e0ff95a8f72b0080ff57a4fd1b0000ff3fa4fe570000febf20fbbf0000f8ff20fd7f0000f8ff01ddff0200e0ff03f5ff0100e0ff07f4ff0100c0ff0fb4ff070080ff0fd2ff070080ff1fd0ff070000ff3fc8ff070000ff7fa0fd2f0000fe7f88fd4f0000fcff82fd570000fcff11fb2d0000feff857a570000feff2575ad0000fdff956a550280bcff3755a90804d9ffb7aa482222d2fd7fa5904849c4feff4a02529590faff9700a83641eaff5f00d0ae04f2ffbf00807709d0ffff0000ff0260ffff0300fe0a80ffff0300fc2700ffff0700f81700feff0f00f81700feff0f00f09f00fcff0f00f05f00f4ff1f00e0bf00f4ff3f00c0bf00f4ff3f00c05f01ecff3f00c05f04ecff3f00c0b740faff1f00c05b81faff1f00a0ad84faff1f00a05589f6ff1f00505512fdff1f00505528fdff1f00289548fdff1f00a89488f6ff3f00a41291faff3f80a02491faff7f00a04452faff7f00908854f6ff7f10801055edff7f02802059dbff7f0900806a7bff7f4900006cef7bff290000b8bfdb7f570000d07fd7fd5d0000e0ffadee5f0100c0ffabba7f050000ff5f6aff050000ff5fb2fd170000febf50ff170000fcff44fd5f0000f8ff81fa7f0000f8ff21fa7f0100e0ff07f4ff0100e0ff07d4ff0300c0ff1fe0ff0300c0ff1fa0ff270080ff5f80ff170000ff7f80fe1f0000ff7f01fabf0000feff00fcbf0000fcff03f0ff0200f8ff03d0ff0b00e0ff0f40ff0f00e0ff0f40ff2f0080ff3f00febf0000ff3f00fe7f0000fe7f00faff0100fcff00f8ff0100f8ff01e8ff0700f0ff01e8ff0700e0ff07e0ff0f00c0ff0760ff5f0000ff4f40ff3f0000ff1f40ffbf0000fc3f20ff7f0000f8ff80faff0000f8ff10faff0100e0ff05f9ff0100e0ff23d8ff0b0080ff0fd2ff0b0080ff4fa8ff0b0000ff3fa2ff0b0000ff3f91ff2d0000fe7f44fb2f0000fcffa2fa370000fcff49fa570000f8ff27b55f0000f8ff97b4af0000f8ff57b2b70800e0ff3fa95b0900e0ffbf926d0a00e0ff7f52ad1200a0ffff49551500a0ffff25552500a0ffff93942a00a0fbff4f924c0480feff2f24550180feff2f22590a00edffbf40aa0a00f5ffbf40aa2500f4ffbf80d21600b4ffff80545700d0ffff00652f02c0ffff00a9b700c0ffff00a9bb00c0fdff01aa7d0100ffff01aa7d0180feff01ca7e0500feff02ca7e0300fe7f05d27e0300fdbf05517f1300fcef0a527f0b00fa7e13527f0b007adf25d27e0b0274ef4a52ef8b00eab69554f74b0069dba554ef2b08d46a4b55ef2b02aaaa5569ef2b02a9aa9a6af72b21544aabaaf72b11494955adfb2b89284955adf72d495444aab6f7ad444922d2dafbad44292152ebfead242921526dffaea4940891adffaea49204a1ae7fb7a45204a1b6bfbba44a2290baf7dba42a1190dafd5da52a0990eafedda42a4980eafe6d292d2540eafeae292d2540eafeb64ab5940069ffb64a355500a9ffb68a5a5580a4bfb792aa5502a4efbb92ac360162efb792d4561150f7d712555d05a8f66b55a46d05a2766f55a8ba154875af5524dd15a2aab75622759b48a95d5b21d96d9292b65d05aa77a984566f0351df5505aa7d83a0fe5b0948bf0b20fdbf0980fe2b00faff0b00fc1f00f4ff1f00f81f00f8ff3f00e07f00e0ff7f00c0ff00c0ffff0180ff0100ffff0380ff0100ffff0300ff0300feff0f00fe0700fcff0f00fc0f00fcff1f00f80f00f8ff3f00f80f00f8ff3f00f09f00f0ff7f00e09f00f0ff7f00e09f00f0ffff00803f01f0ffff00803f01f0ffff01005f02f0ffff01007704e8ffff0100be0464ffff0300de0461ffff0300de9050ffff03006d0951ffff03006d0949ffff03806c0949ffff03106a0949ffff4300590952ffff4380540552ffff2340d20292feff1740aa8290feff0f806a0520ffff0f806a0508fdff1f806c0b00fdff1f806c0701f4ff7f00741700f8ff7f00d89700d0ffff00e85700d0ffff00f03e01c0ffff01c0df0800ffff03c0df0200ffff03c0fe1200feff0340ff0a00faff07407f0b00faff1700df2b00f4ff1700fb2d00f4ff27007b2f00eaff47807a2f10d8ff8d40ba3b01d2ff1621b53b41a8ef5552aa5d11516fab54a96d49a4ae5a5595b629912eb56a4bb5aa222daa6d17d5aa492a54b797546d9524d0de2f94b62b11a0fb2fa4fa360180ff5f20ed6f0200fe7f20f5bf0000fcff02f97f0100f8ff01faff0400e0ff03eaff0300e0ff0be8ff0700c0ff07f0ff070080ff0fe8ff070080ff0fe8ff0f0000ff0fe4ff0f0000ff8fd0ff0f0000fe5fc8ff170000fe5fa8ff170000fe9f54ff4b0000feafd4fe0e0080febdaabd170080ee5f6ddd4d0080ee7e6bdb964000addfdd562b2140aafedd56551201a97edf56a9940424fbdf5552552220fbbf55a46a0501bdff55486d1500edff9590764b00ecff9690ba2b0168ff2711bd970068ff2b11ed5b0260ff2b11f55d0160ff2d12f5dd0050bf579474ef0440ef5ba4b46f05c0f6ae94d27b05a0763755b2dd85806e5b55a9ed8a206dab56a97593906aab5a55d5954856ab5a55d52aa9b24a5b3569556a6a4a5dada4ca5a55255d6b24a5edaa246d6b4252f74d89746b81c8fda782745b4190ff5709b45b11c0febf02d46d0340fdff03d0ee0200ffff03d06e0300fdff0f40770500feff0f40bb0500faff3f80da0a00fcff7f006c0b00fcff7f00aa1600faffff00d02a08d8ffff01505502d8ffff03805602d4ffff0380aa42d0ffff0700d414d0ffff0700a815a2fbff1f00a09590fdff1f00c09648fbff3f00009b24fbff3f0000ad12fbffbf0000ac52baffff0000d44abaffff0000d82ab5ffff000058abb4ffff020060adb2efff050050b5b2f7ff050090b5aaf7ff0500a0d5a6fbff4a0080da66bbff2b0080da56bbff550080ea56bbfb570200ead6bafd6b02006ad7dafead020069dbdadeb70280685bdbf6572500645b5bf76b2500515b6bfbae2620486b6dbbb72a04225b6ddd572d84a0aab5ed5b552282aab5edae5a242155b56dafaa948454d5aeb754951252d66e3795aa8528597737a9b42611597b5b49d5964454bb5b49aa5b1151dbbb88d45e2548eb5b89a8f792206ddf4450bf2d816aef22a0fdae04a97b1310fbb709547d1302edbf4548ed550075ff9520ed5620e8fb3781745701a4efbf04b25d01a4febf0aa86d0920fbff15a0b60910edff4f80568b80d4ffbf00564b20d4ff7f8094560491ffff01925a8488ffff0548aa2442feff1720b22421fdff0f01512989dcff5f08904949dcff5f2280922adadf7f8900222db5f7bf250022d5d4efdfaa00406ab56fbfad0400d2b5dfeeb602006477bfbadd1200a0bdbfd5760b0040ef7f55db4d0000fb7f55eb560000bdff536b5b0200f4ff536b6d0200f4ff555bad0400eafe575dad0402d47e55"
	DPCMSample Name="Choir Ahh E" Color="ffc83c" Folder="famidash choir" Data="aaaa6a5555a9aaaa6a5555a5aaaaaa555595aaaaaa565555aaaaaa6a5555a9aaaaaa5555a5aaaaaa5a2b95aaa6526dab4aaa5a4ad96e25a96a29a9bd2d91aaa5487b6f22aa9624b67f15246b11a9ff2b82b44948ff5f01d22a41faff0b20ad08b2ff7f005485a0ffff03402508fbff3f002481f4ffff00201164ffff0f008448fdff3f001022edffff010090eafeff070040aafbff1f0000aadeff7f0100a07affff030080dafdff57000068eff77f010060bdf7ff050080eedeff170000ba77fb7f020050eff5ff0a00407bdbff2d0000ed5df75f0100b477f5bf0500c8ddb6fd1b0180765bfbaf0400b96dedfe2200d2adb5fe960024b7b67a6f0250bad5aadf1240e5adcaee550055af2aed5d81d0b6a5d4bd0aa1da564a7b4d84ea3645f5561269b70ad5ae4aa4dd1952ed4a91f65641d55549b53705a59baad4bd0a52baaa52f7264169554dbb5702a99a56ddde8490aaac75770b412a55dbdd2b44a4a8b6dfae844822ad7fb712910869f7bf492411c4f6ff13891210edff2f224a40d8ffbf48a80091fbff23910a80faff2f422a00e9ff7f442801a2ffff51a00448bdffaf200222edfebf0a04486afbff5600406aebfedf0400685bbbff270080bbaafd7f0000be95eaff0700e09f50ff7f00007f81feff0100fc0bf0ff0f00f01f80ff7f00c07f01fcff0100fe07e0ff0f00f81f80ff7f00c0ff00fcff0100ff03f0ff0700fc0fc0ff1f00f03f00fdff00c0ff00fcff0800ff0368ff0700fd17a0fd2f00ba5f08f55f09d0bd22d4bf4990ee8a50df2d11ad2d447d5b496a2d12edb54acdaa10b53755b53582e8dd94ba5d04c86f93f4de0240bf8dd4fd0500fd35a2fd9700f05b89f6bf00c07e25eaff0200fda5c8ff0b00f4ab22ff3d00d0db8af67e1100b72dd5fb4500dcb6d4eead00a875d3dabd2280daae56bb5300aaddda6a5b01a2baebaaad0a826aafab56ab0049df5e59b504247d77a56a0b8174df4ba9560254ffae48ed0488fd7b22d50d01fadf45643b02e87f97906d09a0ff5d41ea2580fe7705a99700d9ff0da46e0168ff3790da05a0fddf40aa2740faff0aa89e00d9ff2da0bc42a0ffaf40724b80febf01c92d017aff07113b05e8fe9f806c1581fd7f01d15501f6ff05485b05e4fe1f206d1590fd7f08b45601faff09505b03e8fe1f406d0ba0fe7f80b42d01faff0152b702e8ff0748ed05a0ff2f10b51701faff40d25d02e8ff83487709a0ff0f22dd1580fe3f84b45704f87f0952df04e0ff25487b0b40fbaf90ec2e08ecdf42b2bb08b0ef15c9ee12a0ee5b24bb2b04dabd89ecae0494bb2baabd8a40baafa4762b0169f792daae1220fb2d6abd2501b4bfa4765702507f4b59df2400fa2f55bd2b00f0bf52b65f0200ff27697f0500f87f92fe2b00c0ff45da7f0000fe9fa8ff0500f0ff20ff0f0080ff87ecff0000fc3fd0ff0300f0ff40ff1f0080ff03f5ff0000fc3fd0ff0300f0ff40ff0f00c0ff03fdbf0000fe1ff0ff0200f0ffa0ff0b00c0ff23fe4f0000ff1ff85f0000fcffc8f70200f0ff87de1500c0ff1fb52d0100ff7fa9550180faff53951210e4ffaf2a121142fbff95205122eaff2f015215a1feff1180da20faff1700ec0ac8ff7f00e05700fdff0700df00f8ff1f00f80bc0ff7f00e01f00feff03807f01f0ff1f00f807c0ff7f00e01f00ffff01807f00fcff0700fe01f0ff3f00f00bc0ffff00805f00ffff03007e01fcff0f00f822e8ff3f00e01668ff7f00a02ba1ffff00805689feff03005589fcff0f005485f4ff3f00482552ffff01a09490feff07804a84faff3f004822e9ffff002021a5ffff03808894fdff0f004254edff3f0100a4f5ff7f110080b6ffff250000dcf7fb6f0200a07ff7bf050000ffdbfd170000fcdf7a7f0100e0ff6aff050000ff9ffa5f0000f87fb2ff0100e0ff45fb1f0000ff0ff97f0000fc3fa1ff0700e0ff81fe1f0000ff0ff4ff0000fc3fd0ff0300f0ff01fe1f0080ff0ff87f0000fe7f80ff0b00f0ff01fe1f00c0ff07e8ff0000fe7f80fe0f00f0ff01fc3f00c0ff0fc0ff0300fc7f00ff0f00f0ff01f4ff0080ff0fc0ff0300fc7f00fe3f00e0ff01f8ff0000ff1fc0ff0700f87f00fe3f00c0ff03f8ff0100fe0fe0ff0700f8bf00ff1f00c0ff03f4ff0100fe0fd0ff0700f07f40ff3f0080ff03faff0000fc1fe8ff0300f07f82ff2f0080ff03f5ff0000fc9fd0ff0300f0ffa0fe0f0080ff17fabf0000fc3fe4ff0200f0ff44ff0b00c0ff8bfc370000febfe85f0100f8ff4afd0500e0ff97ec4b0000ff7fa92f0100fcff935e0500f0ff2fd92a0080ffff52ab0000feff4b550500f8ff9f542500e0ff7f49aa0080ffff23c90400f6ff5f489500d0ffff20550240ffff83a84a00fcff0fa49a00d0ff7f20750140ffff81d41500fcff07a43700f0ff1f90de0280ff7f40ea0b00feff016a1f00f8ff07a87e0140ff3f20fb0300ffbf80ec0f00fc7f05b43f0070ff4750ff0280fd2f44fd0b00eedf10f52f0078bf89b4bf00d0bd2bd2fe42806e5752fd4b00ba754aed2f01d4da52b5bf02a8aa55d9fe0a82aa6a6afb2b04a5b4aaeeaf084952d5babf12a24455edfd4a4489a8b6fb2b9114426befaf444988b4eebf12a51054dbff4a4a1250aeff2b294920dafeb7a4120169fbf7924a02a2eedf4daa4480da7f57a992006affdda84a02a8debf252d0990faef9ab4a400eabfad544b01a8fbb7524d0590dedf4a5a1540797f2ba93501e4fd2dc9da0450f7b724b51540ed5f13555702f2be55927605a4fd5685ea1648ed6d15d25d82aabd5648dd46947a6d09d99ba464db15a4bda584d53710edd704a9ef02e8df1520fd0b40ff6f00e8bf00f8ff0380ff01c0ff3f00f80f00feff01e07f00f0ff0f00fe0380ff7f00f80f00feff03c07f00f0ff0f00fe0380ff7f00f80f00feff01e03f00f0ff0f00ff01c0ff7f00f80700ffff01e01f00fcff07807f00f0ff3f00fc01c0ffff00e00f00ffff07003f00fcff1f007c01f0ff7f00f009a0ffff01802f80feff0700bd00f9ff3f00f084e0ffff00c02644ffff03009b10fdff0f006c44f4ff3f00a821d1ffff00a02548ffff41209520fdff27803401e9ff7f00aa02a4ffff01a84500ffff07a05600f4ff3f00db00d0ffff00ec0a00ffff03d01b00f4ff1f807701c0ff7f00f60500ffff03e04f00f0ff1f80df00c0ff7f00f61300feff01f02f00f8ff07c0bf04c0ff1f00ff0a00ff7f00fc2e00fcff0170bf00f0ff07c07e03a0ff2f80fa0d40fe3f81d8bd00f4bf0951f704a4df8da4da1642bdad546a5b22ea6a5595b64aa24bab36d9aa224deaba51ad262952f726555b4920fb2f94ed4a00fabf90da3704c0ff07d27f0200fe3f50ff1300f0ff40fe9f0000ff0ff8ff0000fc3fa0ff0700f0ff80fe3f0080ff03fcff0000fe0fe8ff0300f07fa0ff1f00c0ff80fe7f0000fe27f4ff0100f85fb0ff0300f07fa1fd0f00c0ff49ed3f0000fd2fed5f0100f4bf6aef0100d87fadbd0b0060efb76d5b0040ebdf6ead8400aaefb7552501a2fadf562a2540f47f57525502c8fd5f89aa8500fb7f45d45600ecff15a2bb04c0ff9790fa0a00f7bf82f49b00d8ff12d26f0160ff4b48df1500fd2f22bd5700ec5f91b4df00d0df4552bf03c0de2b257d1701b63755ea5e04d86e55a9dd21d0ba69a5b68ba0daaa5555574255ab5655b5924a2b5d35699596a674b5a2ca5a55d2b68994eeaa24dd1622f53745745b08ea7f8ad06d4150ff5740bb1500ffbf02f43600f4ff07d0dd00e0ff3f00770300ffff01ec1600fcff07d05b00e0ff7f00bb0280ffff016c0b00feff0fa09600f8ff3f00ad04e0ffff01501580ffff07809600fdff1f00aa82f0ffff004093c0fdff07005a81f6ff3f006085d8ffff008016d1feff07006822fbff1f00c04aecff7f00002ba5ffff0300b092fdff0f00c02af5ff3f0000add2fbff0100d44aefff070050adbcff1f0080b5eafe7f0000d69afbff0200686bddff4b00807675f75f0100dad5ed7f050068d7b6ff1600a06debfead0400ba6dbbdf1200e8b66e7f5500a0dbdafd5602406d6dfbad0980b4b6eddd2a20c856db7bb540909a6df7554504aab6edab160952d5b6b7aa244155ddde52a5125475bb53a9162259ef4e2a6b2264bd5b49b54542756f25aa5742d4be1351fb2448fb4e84fa4d826cdf08d4df22a8fd22a0f72b88ba4f80fa7b02d5be20d0ff1548bd1540fb5f81b45700f9fe13c86e01a4ff2f81da1580faff0a685b00b2ff9f80b60142ffff005a2b80f4ff0f60b58050ffff00698540feff03941621f4ff1f40aa4490ffff01c81211fdff07029524f2ff5f00a494c4ff7f1180a28abeff1701902cf5fd5f024054d3f7df2a00a056bffbad00806cfbeddd0a00e0eeafdd2d0080de7fb6dd0200e8ff55db0d00c0ff576d5b0200f67fb5b60900f0ffd3da2600c0ff575b1d0180fe6f75ad100075ffd6ab8280a87d6f5f05085175f77e0b80a4aa75ff9b0090aa56ffdf00806a55edff0b0068abe8ff1f00c0ad91fdff0100bc15faff0700f02ee4fe3f0080df42fdff0000de47ecff0700e05fa8ff1f00807f49fd7f0000fc97eaff0100f0bfa4fd1f0000ff2bed7f0000fc9f6aff0200f07fa5fb130080ff57fd4d0000febfea3b0000fcff6aef0000f0ff6bbb0500c0ff5fdb150000ffbfed560000fcffee560200f0ffbd370900c0fffbbd440000fffbf78a0000f4ffbf2b0200e0ffffae040080ffffbd120000feffef4a0000f8ffdfab0000e0ff7faf020080fdffdf0a0000faff7f2b0000e8ffffae040080ffffdd120000feffb72b0000f8ff6faf0000e0ffdfde120000ff7fdd2d0000f8ffd7b70400c0ff5f6f0b0000ffbfee2d0000fcffea7b0000f0ffabfb0a0080ff2ffb1b0000febff4bd0000f8ffd2fe0200e0ff4bfd0b0000ff3fb9bf0000f8ffa4ff0200e0ff93fe0b0080ff4fec3f0000fe3fd2ff0000f8ff48ff1300c0ff23f63f0000ff4fe8ff0000fc3fc4ff0300f0ff04fd3f0055"
	DPCMSample Name="Choir Ahh G" Color="a4db74" Folder="famidash choir" Data="aaaa5a55a9aaaa5655a5aaaa5a5595aaaaaa5555aaaaaa5655a9aaaa6a5595aaaaaa5555aaa6cada4aa99a4a6daba46a49d56d49aa25697b15a996a4f62da26a12ed6f42aa49d4bf25a82aa2fd2fa0aa10fd7f01aa44d4ff074415a2ff3f009590feff019084ecff1f0042d4ff7f002092f7ff070090faff3f0000eaffff000068ffff0b0080f7ff1f0000deff7f0000f4feff0100d0fbfe1f0000effd7f0000bcf7ff0100f0deff0b00c0bbfd3f0000eff5ff0000bcd7ff2500e06dfb9f0080b7edbf0200deb6fe1300f4dafa9700c86b6b7f02905eadfe0a40f5aa7a5700b5abb26f01b25d4adf0aa86e25ed5590b693d45722daad50bb8a68af42754b927b05555749dd5390ad2a75af40e9aad47b02a955d5ee25a09a56b74f40aaacddbd4028d57aef8290a4f6f70a1112eddf2b212268ff9f8444c0fe7f118a00edff272401d8ff9f880290ffff100a40feff232880e8ff5fa004a0ff7f090242fdff0b0408edffaf00406affbf0900e8baff0f0060d7eeff0000bb6aff0f0078a5fe7f00c027f4ff03003fa0ff1f00f803fcff00e02fe0ff03807f00ff1f00fe01fc7f00f80fe0ff01c07f00ff0f00ff01fc3f00fc07f0ff01e01fc0ff07807f00ff1f00fe01fabf00f807d8ff00b81f50ff23c0bd08fd1b81ee22f4bb84ac0bd1b725694d485f2bcd2a417d53b55620f655ea6d00f237d2f704c0df50ff06007f83ee1f00fc15daff00e057a8ff03806f22ff0f00fc4afc3f00f0add87f01c0db52ef070077537b2f015857ebbe04a0ed6adb1380ea6d6b5b00a9b7adb612a0f6ae5a2b80f47b69b500d1ef956a4340df2fa95600f5bf44dd00d4ff09b52380ff17649700fe5f885d01f87f09ea05e0ff15a81780fd3fa05e00f6ff807a01d8ff036a07a0ff0fa81d80fe3f90ba00faff02f212e0ff07c84b80ff1f103701eeff406c05d8ff13b09540ff1f405701eeff005d05d8ff03b45580ff0fd0d600febf00ed02e8ff03b40ba0ff0fd0ae00fe3f40bd02f8ff00f505a0ff07d21701fd1f485f02f87f207d05e0ff81f41580ff07d13d01fc1f44ef02f0bf84bc0bc0fe13b22f00fb8fc8be08e86f21f70aa0fb8aec2b04f62e6ab704e8bea4ee8a80de8bdaab00ec2f696f09c0fea2ee1500fd4bd53701e0bf64ef0280ff52f52700f82fe95f00c0ffa2ff0200fe87fa1f00f01fea7f0080ffc1ff0300fc07fd1f00f01ff27f00c0ffc0ff0300fe03fd1f00f01ff47f00c0ffc0ff0100ff03ff0f00f80ffc3f00c0ffe0ff0000ff83ff0300fc0ffe1700e0fff02f00c0ffa3770100ff1fdd0a00fc7f6a1500e8ff57a50050ffbf0a2102fdff251085f0ff4f005588feff006803eaff0f802ec0ff3f007c01fcff01f003f0ff07c02f00ff3f00fe00fcff00f807e0ff07c01f80ff1f007f00fe7f00f803f8ff03c00fe0ff0f003f80ff3f007c01feff00f009f8ff03c00be8ff0f005da0ff3f00b884feff006045feff014025f4ff0f0015d2ff3f005448ffff004842feff032009faff0f8044e8ff7f002092ffff010051feff070050f5ff5f0000b6ffff0000d8fbff0b0040fff71f0000fef77f0100f0dfff0500c0fffa5f0000fe6bff0100f89ffe0700e07fec7f0000ff45ff0300fc0ffd1f00e03fe8ff0000ff83ff0300fc0ffc1f00f03fd0ff0080ff03ff0300fe0ffc0f00f83fe0ff00c0ff01ff0300fe0ff81f00f83fe0ff00c0ff01fe0700fe0ff83f00f03fc0ff01c0ff01fe0700fe0ff07f00f03fc0ff01c0ff01fc1f00fc0ff07f00f03fc0ff0380ff00ff0f00fc07f87f00f03fc0ff0380ff00ff0f00fc07fc7f00e01ff0ff0100ff81ff0700fc07fa3f00e03fe8ff0100ff81ff0700fc07fd1f00f03fe8ff0080ff90ff0300fc17fd0f00f03ff23f0080ffc3ff0000fe4ffe0500f8bfb41f00c0ffcbbe0000ff9ffa0200fc7fe91500e0ff97ab0080ff3fad0200feff541500f0ff4f9500c0ffbfa40200ffff911200fcff875400f0ff1f640900ffff902a00fcff836a02e0ff0fd20580ff3f501700fcff41be00e0ff07da0380ff1fa80f00fe7fa07e00f0ff81fa01c0ff07f21700fe1fc83f00f87f40ff00e0ff01fd0380ff43f40f00fe0fd23f00f45f48ff02a0df22fd0b80dd15f52f00769bd4bf00b4b654ff82c06a95fd8b80aaa6f62f0125adeabf0452d4b4ff122151d5fe4b4421aafbaf9084d0fabf228940edff8a2401b5fb2f4a0264fbbf280990eeffa21240baff8b4a04e8fe57aa08a0fd5fa52280fa7fa54a00eaff962c09a0ff6db22480feb7525300baff4a4d05e0fe2b5a1580f72fa95500debfc4da00b8ff12751540ff4d545780fa57916e01ea6f85ea0552bf55c85ba07a6b21bd21a9b705d91749b657a0772958df00fd5581fa03e87f01f22f00ff2f00ff00f8ff00f807e0ff07c03f00fe3f00ff00f8ff01f803c0ff0fc03f00fe3f00ff00f8ff01f803c0ff07e01f00ff3f007f00f8ff01fc03e0ff07e00f00ff1f807f00fcff00fc01f0ff03f00bc0ff1f800f00ff7f007e00fcff03f001f0ff0fc007e0ff3f002e80ffff00d800feff03c003f4ff0f0017c4ff7f005810fdff017041f4ff07a005d2ff1f801548ff7f805420fdff01d200f9ff0fa002e4ff3f801600ffff015a00fcff07e802e0ff1fa00700ffff001f00fcff037c01e0ff0fd02700ff3f803f00f8ff01fe04c0ff07f80b00ff3f803f00fcff00fe02e0ff03f80b80ff0fe02f00fc7f80ef00f8ff00fa03e0ff03e80f80ff1760bf00fc1f41bd03e8df486a1744ef4aa55d82ba5655b64ae4b4dad4aa44a3ae47ad460a759f545712b0ff90ee1280ff43ea8f00f83fd07f00c0ff41ff0300fe07fe2f00f03fe0ff00c0ff80ff0300fe07fe1f00f80ff87f00c07fe0ff0100ff81ff0700fc07fe3f00e01ff4ff00807fc8ff0300fc8bfd0700f82fed1f00e0bff43f0080ff6abf0100fab7bd1300e8dfee1600b07fb7ad2080fabf558500eaff564a11c0fe5f521500fd7f896a01f0ff85b42580ff17642f00f6bf90be02e0ff82fc0580ff0bf45b00fc4f507f01f03f22fd05c07f91f41700ff46d25f01782f25bf05e03e95bc17807b5569af00ed6aa5ed046aab55d525a4ad56552d29ad5c4d5a699ab4b5a8ac5549b72169af12dd46487f15725b00ff27c86d01f87f01bd05a0ff0ff00e00ff3fc03d00f8ff01fb00e0ff0fe80500ff7fc01b00fcff01bb00f0ff0f6803c0ff3fa01600ffff01ac00f4ff0f5005e0ff3f801640ffff01a800fdff074013f0ff3f0054a0ffff006041feff070046f4ff1f0098c8ffff008092feff03004afaff0f00a8e8ff3f00c04affff00002bfdff0700b0f2ff1f0040cbff7f0000addeff0300b479ff0f00d0d6fd3f00805bf77f01006eddff2500b06df79f0040d7eebf0200eeb67f0b0078edfe5500e0b5fd5b0140dbf6be0600addb7d2b00b2b5fbb540a0d6f65745806abbaf16115475efaa2448d5ed4ba50265774fa98688f53d295b08d57745750952df15699740dd4f505f09b45f81fa0bc87e83b0bf80da8f80ff0a683f01fa9f40fd02b0ff41b41740ff17c85e01f8ff00bd05e0fe0fb01780febf806e01e8ff07d806c0fe3f602d00fdff01d500d2ff1fa02580ff7f409a00f9ff07a842e0ff1f201341ffff009444fcff039094e8ff1f00a2a2ff7f02802cfdff0500d4f4fbaf0080d6dfdf02005c7fbf2d00c0fddbbb0000fd5fbb0b00f07fb5570040ffd76e0100fe5fdb0600f87fad1b00e0ffb5b50080ffd7d60200ed7fbd0a0071fff6150051bdef2f00a46afb7f0180aa75ff07005a55ff3f00e02aeeff01806be8ff07007689ff3f00e00df6ff0180bbd0ff0700fcc1fe3f00e027faff00007fd4ff0300fca5fe0f00e05ffa3f0080ffd2ff0200fca7fe0300f07ffa0f00c0ffd53f0000ffaffe0000fcbff60300f0ff76170080ffbf5b0000feff5d0100f8ff6f0500e0ff7f250080ffff8b0000feff2f0100f8ffbf0400e0ffff120080ffff2b0000fcffbf0000f0ffff0200c0ffff0b0000ffff2f0000fcffbf0000f0ffff0a0080ffff2b0000fcffbf0000f0ffff120080ffff2d0000feffbd0000f8ff7d1300c0fffb2d0000ffefbd0000fcbf7e0300f0ff7a2f0080ffb37f0000fe4fff0200f07fed0f00c0ffd53f0000ff97ff0200f85ffa0f00e07fe93f0080ffc5ff0000fe0ffd0700f83ff41f00c0ffe1ff0000ff83fe0700fc17fc1f00e07fd0ff0080ff41ff0700fc07fe1f00f01fe8ff00c07fa0ff0300ff01fb3f00f80bf4ff00e02fd0ff03803f41ff0f00fe02fa7f00f813e8ff03c057a0ff0f007741fe3f00f485e8ff01d02be1fe0740b782fd3f00ec0af67f01b04dd4ff05c03ac9fe17806aa5fa1f01aa96dabf08a4acd6be2550aa5afb1644a5aadd572053d2f65e022d25edef08d84ad4ff0ac05d48fb1f007b85f47f00780fd1ff09807f20f71f00fe05ea7f00f03fa0ff0500ff21fe0f00fc0ff83f00e0ff40ff0180ff07fa0700fc7fd02f00f0ff896e0180ff5fe82200feff441500fcff17a420a0ffff808880feff038202daff3f001454ffff014041f5ff0f004ad4ff7f00a044ffff03000afdff0f0028d2ff7f00a042ffff03008afcff0f002872ff7f00a044ffff018012fdff0f0048f4ff3f002051ffff018082feff070011faff1f8010d0ffff800840ffff030900fdff0f5400d0ff7fd00080ffffc10a00f8ff0f2b02c0ff3fb40200ffffd04a00f0ff475b00c0ff9f740100ff7f521700f0ff475d00c0ff1fd90100ff7fa40b00fcff833601e0ff0fea0480ff3fc41500feff045b00f8ff0baa02e0ff2fc84a00ffbf102d01ecff13520568ff2f489540fdbf105942f4ff226449a4fe4f84aa48fa5f05aa92e8fe15a84a91fd5790aa42daff20aa4aa8ff13a8aa20ff2fa05a81f4ff805a05e4ff036915a0ff0fa22d00fd7f82ae00f4ff83b401e0ff0fd10680ff3f421700fcff855c00f0ff97680580ff3f911300feff442d00f8ff4baa00c0ffbf640100ffff520500fcffab0a00f0ffaa"
	DPCMSample Name="EON_AH" Color="ff7f72" Data="aaaaaaaaaaaaaaaaaaaaaaaaaaaaaaaaaaaaaaaaaaaaaaaaaa95aa5a55a9d619207f3ccef903c00f00c83f1ee7fdff3b6f000060dc00fefff0ff0100580f307f1fdbff0000f093effb01f0ff0300d027047c3fccff0700f77798f30f60df030040f738fe3fe0f70080f96f71f0dd63e30100c0fcc7fcfffbcf010000a0c29cfff3ff0f008c609c11fcff737c0000c3a7c7ffe3f077000018df0dfc7fc8ff0300f8fa383c3c3c3f00008ee9ff1fff1fc60000f0b158e1ff73cf07001418ffbeefe3c071000004fcff3f5fe9ff070000f05c00fcffff67003091f703c2df7f07100038fe1ff8ffe71010cc00e8fb8c7b377c1e307c60fcff0101e29f0000c7ffff3f85f87f020000fe7786c4ff4f002082f8ff01ff1ff31f0000c0f703cfff9fe7840000fe38e071f8ff3f0018fb6f0838e0f7ff0000e0ff0de1f0ff1f00c0e78f030cfcff1b0000ffff0df1c3bc07000000f3ff9ffcff038e0700f807c8ff31f1750041fcffe8f0f0f3190000fe9f01e39cffbf0300c0ff038cc7f75f0000bcff0df8f3f8fe0040c0e983c785e7df3b0400ee31e37c78de10c330fe7be0f9ccbd210060f6e810dbff9e730060fcef8863dc7f000000fff39e9d7f5e100020ff390e70feff0600c0ff8f631e1e370200e63fcebce3ff0f0000c3c79373feff0100d0f87976cef9770000781fe3ccf9ff0100fc7f18603ebb0500c0f9c780ffff4f8090c71f06dccf1f030072fe38ff1e1c00c0dff9c3c0fb4f200078ff8fb1ff0100731ccc1f06ff07e167e3383f00f8ff0c02c0bc7f18fb7f0000663a7e30ff1f007d1d06fc71ee7f00e004cb7983f0ff0780d9e6f987b1ff0100f30cc31d02fe7f88cf11c701c6ff0f00fe13803f8cff1f00be23c07c38ff3f0038ce00fe38ff3f00f0df00fe20fc7b00f0ff41b860ec7f00f09f613cc3f8ff00e0ff00f080f1ff0180ff0ce10ef7ff0700ef0b800ec6ff0f00de3fc2178eff0f00d83f004f18ff1f00f8ff08de30fe1f00f05f009c60fcff00febf0098e1f8ff00e0ff01f083f1ff0300f045f19fe3ff0200e78dd2378cfb0700de0785ef30ec3d80ff7f0238c2f0ff00c07986f087fbff01c0e308f03fc67f0700c49bea7f18ff07003cef10cf8720ef01e679ce391fc0bd0710e719e0fd18e739e23c0404cf8f77df31c6288c78fe38e61d40b0cc71fd0f61ef00f4cfa543cf438073e0e710e6716e18f7bf3908408ced8f63de038423dcf3fec3b06700f179e4709cc310e739ff386680bc87e1ef3112705c30fec7b84f0073699ee3bcc3184784ff8784a11e43b0ffb9e700c2d0f81fe3ff890380f020ce3f8e3b877e07b2c9e83c0639cef903620c71ef60fcffde00401ca6ff0f60ef00c2719ee3ff73006e06f11de31820afc2f0ff390700d3cefb1e84fd073086390f36ff00e43fe07dc701c0f30fc2ffc7190218209cff21fc7f9e43a073c0af0fc0ef831c870b80f8ff60fc7f06c60c21c4ff7120fc3f8031ce3fe29c0fc0ff078ce31c007c7f10fe1fc871c471e8ed1b069f0772c6780838fc03f0ff1fc6384600fe7f30fe3f0000ce31f27fce10ee3fc073870028fb2e00ffff0110df41f0ff1f80fd0730ef180300fb1c0cffff7f0c0300a0ff8f60fc5f066280c7a5ee3e83f8e739471c0440e37c3e8ebf83e0fd087216278f81e3ef397c0f00009abdff63f89f44e61140f58e236618febe82f84781c1e9bb9dc781a252fabd00c05c19e6f7f5d6ef01c01304df2e8d521603fdef707d03c0d9264f9b4785d23988793728add1b4f37aade254421aa754ceba0a8469f57e2d5b4705a352d479ddb21094cb8cd755c3acd2725c75af2986a2d4b4aa94c952655dadde5d2548384e6b5749959148ca6afbbe5659a4aa6ab5544aa528a95ab375abaa54d6aaad2991a6945a55ad69552249d5f6bead8a4a452995d6b5ad2221a9dab6526bb5aa3255b5d6a69288aa9656a5ac5aaa6aaded36a71445b49635cd544a92aaaaed6db7528a526955ad2a2525a9aaaadd6e5529655a6b5ba5544a2955aa5a6ba92455edeeb652494952a95a6b5d958848d5baadad55a954aa69dbb54a422455b5aaaa5ab36a55556d6da548546a6dad5252925456dbeedd564a8a5455adaa542a51aad4badd6da5522aabaaa954952a55a56ab55655a5aa55adaa5495aaaaaaaa6a555595aaaaaaaaaaaaaaaaaaaa555595aaaaaaaaaaaa6a555555555555a5aaaaaa5655555555555555555555555555555555aaaaaaaaaaaaaaaaaaaaaaaaaaaaaaaaaaaaaaaaaaaaaaaaaaaaaaaaaaaaaaaaaaaaaaaaaaaaaaaaaaaaaaaaaaaaaaaaaaaaaaaaaaaaaaaaaaaaaaaaaaaaaaaaaaaaaaaaaaaaaaaaaaaaaaaaaaaaaaaaaaaaaaaaaaaaaaaaaaaaaaaaaaaaaaaaaaaaaaaaaaaaaaaaaaaaaaaaaaaaaaaaaaaaaaaaaaaaaaaaaaaaaaaaaaaaaaaaaaaaaaaaaaaaaaaaaaaaaaaaaaaaaaaaaaaaaaaaaaaaaaaaaaaaaaaaaaaaaaaaaaaaaaaaaaaaaaaaaaaaaaaaaaaaaaaaaaaaaaaaaaaaaaaaaaaaaaaaaaaaaaaaaaaaaaaaaaaaaaaaaaaaaaaaaaaaaaaaaaaaaaaaaaaaaaaaaaaaaaaaaaaaaaaaaaaaaaaaaaaaaaaaaaaaaaaaaaaaaaaaaaaaaaaaaaaaaaaaaaaaaaaaaaaaaaaaaaaaaaaaaaaaaaaaaaaaaaaaaaaaaaaaaaaaaaaaaaaaaaaaaaaaaaaaaaaaaaaaaaaaaaaaaaaaaaaaaaaaaaaaaaaaaaaaaaaaaaaaaaaaaaaaaaaaaaaaaaaaaaaaaaaaaaaaaaaaaaaaaaaaaaaaaaaaaaaaaaaaaaaaaaaaaaaaaaaaaaaaaaaaaaaaaaaaaaaaaaaaaaaaaaaaaaaaaaaaaaaaaaaaaaaaaaaaaaaaaaaaaaaaaaaaaaaaaaaaaaaaaaaaaaaaaaaaaaaaaaaaaaaaaaaaaaaaaaaaaaaaaaaaaaaaaaaaaaaaaaaaaaaaaaaaaaaaaaaaaaaaaaaaaaaaaaaaaaaaaaaaaaaaaaaaaaaaaaaaaaaaaaaaaaaaaaaaaaaaaaaaaaaaaaaaaaaaaaaaaaaaaaaaaaaaaaaaaaaaaaaaaaaaaaaaaaaaaaaaaaaaaaaaaaaaaaaaaaaaaaaaaaaaaaaaaaaaaaaaaaaaaaaaaaaaaaaaaaaaaaaaaaaaaaaaaaaaaaaaaaaaaaaaaaaaaaaaaaaaaaaaaaaaaaaaaaaaaaaaaaaaaaaaaaaaaaaaaaaaaaaaaaaaaaaaaaaaaaaaaaaaaaaaaaaaaaaaaaaaaaaaaaaaaaaaaaaaaaaaaaaaaaaaaaaaaaaaaaaaaaaaaaaaaaaaaaaaaaaaaaaaaaaaaaaaaaaaaaaaaaaaaaaaaaaaaaaaaaaaaaaaaaaaaaaaaaaaaaaaaaaaaaaaaaaaaaaaaaaaaaaaaaaaaaaaaaaaaaaaaaaaaaaaaaaaaaaaaaaaaaaaaaaaaaaaaaaaaaaaaaaaaaaaaaaaaaaaaaaaaaaaaaaaaaaaaaaaaaaaaaaaaaaaaaaaaaaaaaaaaaaaaaaaaaaaaaaaaaaaaaaaaaaaaaaaaaaaaaaaaaaaaaaaaaaaaaaaaaaaaaaaaaaaaaaaaaaaaaaaaaaaaaaaaaaaaaaaaaaaaaaaaaaaaaaaaaaaaaaaaaaaaaaaaaaaaaaaaaaaaaaaaaaaaaaaaaaaaaaaaaaaaaaaaaaaaaaaaaaaaaaaaaaaaaaaaaaaaaaaaaaaaaaaaaaaaaaaaaaaaaaaaaaaaaaaaaaaaaaaaaaaaaaaaaaaaaaaaaaaaaaaaaaaaaaaaaaaaaaaaaaaaaaaaaaaaaaaaaaaaaaaaaaaaaaaaaaaaaaaaaaaaaaaaaaaaaaaaaaaaaaaaaaaaaaaaaaaaaaaaaaaaaaaaaaaaaaaaaaaaaaaaaaaaaaaaaaaaaaaaaaaaaaaaaaaaaaaaaaaaaaaaaaaaaaaaaaaaaaaaaaaaaaaaaaaaaaaaaaaaaaaaaaaaaaaaaaaaaaaaaaaaaaaaaaaaaaaaaaaaaaaaaaaaaaaaaaaaaaaaaaaaaaaaaaaaaaaaaaaaaaaaaaaaaaaaaaaaaaaaaaaaaaaaaaaaaaaaaaaaaaaaaaaaaaaaaaaaaaaaaaaaaaaaaaaaaaaaaaaaaaaaaaaaaaaaaaaaaaaaaaaaaaaaaaaaaaaaaaaaaaaaaaaaaaaaaaaaaaaaaaaaaaaaaaaaaaaaaaaaaaaaaaaaaaaaaaaaaaaaaaaaaaaaaaaaaaaaaaaaaaaaaaaaaaaaaaaaaaaaaaaaaaaaaaaaaaaaaaaaaaaaaaaaaaaaaaaaaaaaaaaaaaaaaaaaaaaaaaaaaaaaaaaaaaaaaaaaaaaaaaaaaaaaaaaaaaaaaaaaaaaaaaaaaaaaaaaaaaaaaaaaaaaaaaaaaaaaaaaaaaaaaaaaaaaaaaaaaaaaaaaaaaaaaaaaaaaaaaaaaaaaaaaaaaaaaaaaaaaaaaaaaaaaaaaaaaaaaaaaaaaaaaaaaaaaaaaaaaaaaaaaaaaaaaaaaaaaaaaaaaaaaaaaaaaaaaaaaaaaaaaaaaaaaaaaaaaaaaaaaaaaaaaaaaaaaaaaaaaaaaaaaaaaaaaaaaaaaaaaaaaaaaaaaaaaaaaaaaaaaaaaaaaaaaaaaaaaaaaaaaaaaaaaaaaaaaaaaaaaaaaaaaaaaaaaaaaaaaaaaaaaaaaaaaaaaaaaaaaaaaaaaaaaaaaaaaaaaaaaaaaaaaaaaaaaaaaaaaaaaaaaaaaaaaaaaaaaaaaaaaaaaaaaaaaaaaaaaaaaaaaaaaaaaaaaaaaaaaaaaaaaaaaaaaaaaaaaaaaaaaaaaaaaaaaaaaaaaaaaaaaaaaaaaaaaaaaaaaaaaaaaaaaaaaaaaaaaaaaaaaaaaaaaaaaaaaaaaaaaaaaaaaaaaaaaaaaaaaaaaaaaaaaaaaaaaaaaaaaaaaaaaaaaaaaaaaaaaaaaaaaaaaaaaaaaaaaaaaaaaaaaaaaaaaaaaaaaaaaaaaaaaaaaaaaaaaaaaaaaaaaaaaaaaaaaaaaaaaaaaaaaaaaaaaaaaaaaaaaaaaaaaaaaaaaaaaaaaaaaaaaaaaaaaaaaaaaaaaaaaaaaaaaaaaaaaaaaaaaaaaaaaaaaaaaaaaaaaaaaaaaaaaaaaaaaaaaaaaaaaaaaaaaaaaaaaaaaaaaaaaaaaaaaaaaaaaaaaaaaaaaaaaaaaaaaaaaaaaaaaaaaaaaaaaaaaaaaaaaaaaaaaaaaaaaaaaaaaaaaaaaaaaaaaaaaaaaaaaaaaaaaaaaaaaaaaaaaaaaaaaaaaaaaaaaaaaaaaaaaaaaaaaaaaaaaaaaaaaaaaaaaaaaaaaaaaaaaaaaaaaaaaaaaaaaaaaaaaaaaaaaaaaaaaaaaaaaaaaaaaaaaaaaaaaaaaaaaaaaaaaaaaaaaaaaaaaaaaaaaaaaaaaaaaaaaaaaaaaaaaaaaaaaaaaaaaaaaaaaaaaaaaaaaaaaaaaaaaaaaaaaaaaaaaaaaaaaaaaaaaaaaaaaaaaaaaaaaaaaaaaaaaaaaaaaaaaaaaaaaaaaaaaaaaaaaaaaaaaaaaaaaaaaaaaaaaaaaaaaaaaaaaaaaaaaaaaaaaaaaaaaaaaaaaaaaaaaaaaaaaaaaaaaaaaaaaaaaaaaaaaaaaaaaaaaaaaaaaaaaaaaaaaaaaaaaaaaaaaaaaaaaaaaaaaaaaaaaaaaaaaaaaaaaaaaaaaaaaaaaaaaaaaaaaaaaaaaaaaaaaaaaaaaaaaaaaaaaaaaaaaaaaaaaaaaaaaaaaaaaaaaaaaaaaaaaaaaaaaaaaaaaaaaaaaaaaaaaaaaaaaaaaaaaaaaaaaaaaaaaaaaaaaaaaaaaaaaaaaaaaaaaaaaaaaaaaaaaaaaaaaaaaaaaaaaaaaaaaaaaaaaaaaaaaaaaaaaaaaaaaaaaaaaaaaaaaaaaaaaaaaaaaaaaaaaaaaaaaaaaaaaaaaaaaaaaaaaaaaaaaaaaaaaaaaaaaaaaaaaaaaaaaaaaaaaaaaaaaaaaaaaaaaaaaaaaaaaaaaaaaaaaaaaaaaaaaaaaaaaaaaaaaaaaaaaaaaaaaaaaaaaaaaaaaaaaaaaaaaaaaaaaaaaaaaaaaaaaaaaaaaaaaaaaaaaaaaaaaaaaaaaaaaaaaaaaaaaaaaaaaaaaaaaaaaaaaaaaaaaaaaaaaaaaaaaaaaaaaaaaaaaaaaaaaaaaaaaaaaaaaaaaaaaaaaaaaaaaaaaaaaaaaaaaaaaaaaaaaaaaaaaaaaaaaaaaaaaaaaaaaaaaaaaaaaaaaaaaaaaaaaaaaaaaaaaaaaaaaaaaaaaaaaaaaaaaaaaaaaaaaaaaaaaaaaaaaaaaaaaaaaaaaaaaaaaaaaaaaaaaaaaaaaaaaaaaaaaaaaaaaaaaaaaaaaaaaaaaaaaaaaaaaaaaaaaaaaaaaaaaaaaaaaaaaaaaaaaaaaaaaaaaaaaaaaaaaaaaaaaaaaaaaaaaaaaaaaaaaaaaaaaaaaaaaaaaaaaaaaaaaaaaaaaaaaaaaaaaaaaaaaaaaaaaaaaaaaaaaaaaaaaaaaaaaaaaaaaaaaaaaaaaaaaaaaaaaaaaaaaaaaaaaaaaaaaaaaaaaaaaaaaaaaaaaaaaaaaaaaaaaaaaaaaaaaaaaaaaaaaaaaaaaaaaaaaaaaaaaaaaaaaaaaaaaaaaaaaaaaaaaaaaaaaaaaaaaaaaaaaaaaaaaaaaaaaaaaaaaaaaaaaaaaaaaaaaaaaaaaaaaaaaaaaaaaaaaaaaaaaaaaaaaaaaaaaaaaaaaaaaaaaaaaaaaaaaaaaaaaaaaaaaaaaaaaaaaaaaaaaaaaaaaaaaaaaaaaaaaaaaaaaaaaaaaaaaaaaaaaaaaaaaaaaaaaaaaaaaaaaaaaaaaaaaaaaaaaaaaaaaaaaaaaaaaaaaaaaaaaaaaaaaaaaaaaaaaaaaaaaaaaaaaaaaaaaaaaaaaaaaaaaaaaaaaaaaaaaaaaaaaaaaaaaaaaaaaaaaaaaaaaaaaaaaaaaaaaaaaaaaaaaaaaa"
	DPCMSample Name="BSV" Color="f6a4ff" Data="50abebb8e36d68246a1447c7e298e731ce719c48b12771bee13847e1be83358e630eef854739e30ccc39cde33887718ee118e3381ec7cff33ccf39ce798e230c3348184e39e5380ce3e7e33cc7398e738ee1803130660c25ce336eeb9cfb38e79cd6708c116318e79c92c863b3e539c6719e693886710e2909076378e3347fd2f618c739ce731c8f610c071e8ff1e458793c0dac3d971ecff318c7381ec3a1c5f2a4380c0f9fc61b4fcbe3f334703c1ee7c1e030583cc58cc7e389c3e3701c3ecf1a964b6b39e0300c97a7c3b030e9f9398fd3e33dccb0d8b0f0c248932d9d365ad27c7c7bb476ced2700b0b0ccb3607585a7362cc99236f4bdb9e4f4b1c73346069c200cb336f868cc75e5e69e9edd31a27670618633064e4e191e539c6fb98f3fe7c5aef59008d053c98c1b016d3b2d3b0e7310edf7b38ae87c76103030e38f0d0830b3cdef0f183ff073cfee303847f00f00f00fe01cf077f70fce50dcff1381ece6108e3381e87e3c3073e78e8817cc7f01fe1c7a13900f0811ffeeb21f883037c1fc0ff03ff0efcf811dec10d3007c037f881791e87c3e3f1f89f2f5e9413f0016247fc0f9c09f0000e8ffd81f93fd0ff0fe09584f0013ff2002720bc917f81ff9e473ecfc3777c02186000335cf47f7af88fa1c79f8f4f0802007884fbff7e3c03065edc1f3f3880033ef8c38f6f38007fd21e73f9c9196380831cf0679c7ed096fc78f0e1b18ca1275cda585bc20cc31c6b8ba79df9ca5bd294b995d61252d2020e0e2cf9a0ad79afbfd69630cfb84b7bd20ee18012e00117d227eff993f77cc015feac2d4f589812879441c3b4e3473e78dab8c81ff760cb8fbc57120321cc0127e0cc3b3e74e9f1d31eeff983e6f800021882208c3969f8e56d6baf3d9ff6d2c20d2f705043063af4e18bb77ce4b0d64b4b2f5f78d083166ae980073d34d0c64b8f7b5af8d2a70b0fbae4a0051f7ca0c1977e68e19cc61b3e7ce9f2479f3cf0410b30b010062d5ece69a7e7f1f9793c3d8f87c37252100c8381c1e1e1f4f47e7e5e1e4fa3e1f161381c1c8e87c1f038989cdc5e8ecfcfe561b0343c1ec7e3e1303c1e87a1b130c7f3967a1e0e4e0747c371381ecff371581e07c3610ccfe1e3b9181c0e0fc3e1f2783e8fe7f370388e61705a2c0f8bc1c078383c8fcfe7f9793c1ec770381816cfc172381a06c7e1e1f934fe9ec763581c0ec7e379301c04c36478f095ffffff731c1808c1e3711e1e030000180e3ff2f9ffffcfc773781cbec1c30100000000f2b3fefffffffcfb3fdec1030100000000001ccff9e5fbffff3fffff4f3c000000000000c087733cffedfffff33f3f4e0c077000018708c338e089879fe7bcfff19e870fe3309ee18cc1a1308293adc0f59cf71cd7e6016e19b78cc36381b13e84f19c71967c8b3de71cc7126e196e3d270e6318e1618c9ef3819ce7343de3490a6b39cf9c967961d8725cc63863cc72ce322d65dc30cd99264bda487b3cb78cc159aeac594f6b0c5bd20cc394d35ac28ed39635f6e4438ea1d432e6d67e08cc90f65c7e48b18c1bc2ecc987872c69e1e59630ee392da5b59c73d08603cb49b3ac79c65b6a2da5356063692cf3963d9ef7424e4b290d6c484a6bde73ccb38483cf3b2d212cc5d19b338c719658f25a4b6b8e21617ae679c639c639bc96d21ae35018cf798fe730c03f3ccb290d71208df59cd7391cc1fbf8c7d0840c4b4a1aefdf1207617aee632904f4b19ca7f93cc491b0af6f4892465a2eebfd1f075010e77f1f033104d6d8993b3386c8197ffb428880e0ffef213680c3cf39797248dacafb63c700147e5a530fa5a995f59036f448d3729ed2c39c619ce5f174463c87b6d45ac66184433b6338e4b1b625cf31ce93167ac266cd0d711e712de31ccbb0f1930ce33c49d2e738c6534a1a618c65cd99af35d6b8c7c3b487255fb29c70497bac073ee409e22cdcf6589ae529c736e794161ee99c970cd318c6095b5ad863c85bf9a13d79432f7dc2a539d2d2390e6d89193087b4c69c19f28c9f7083177ef01cc2c31d87c7b888db3cc3796807619c86fc5a86fef0c30f1ec5f21ce1c78d34e769da72212df1148ec78196d6d2163ff4c2176ce482f678c31bf8e11efed01b1ee9218df5c0161e694b5d6881aff5a0947e69a125c7708c8583843983d61ec6b025ed94f79e72c69943784e4fea4bda524b1a3f439e61cb1a79892f69963dd22c5bc4cf0963bc8df3485bde927648511a5a03e7416f78da4b0d738e23e4387e3cadcdc3c730609c298608e3cef160de38ef9c3d611e8ee1e1061f71ac9c83c7e1711c0ee7e139783e0edf8332707a0e07e7e0313f1c8e832f1933da1b4beb38e1865e5ac6398cc7e1f01c1ed6c36e58121e9c87392f3ce6e99686e2050f4f73f0e1508f3c89ab709c17698753536339cff0a478e0a5945fda78693987a5610f5e58c693e32c2d5ef843346459f2c7d29e7668615ba6e1928e961e78d285171ad772f086878f731cbe7092a6cb860d7ce2d091870d1b1e7cf8630eb6bce99c1d6bb0455a78823ed8e099a18d31cdd1db73c37a4e8f7ca0231e30ce431e3f70d669e1c7d684793ce03d78023f5c4a6b3c5a7282e77858d89256da4a6b634c69074fe939c78cc3092f3d38ae691c4bfbe2095bd2d25a635ac2a534ace5958c356869296f69830736f2b4afada5a5b534ac21800772f8e79fffc3cb38c590302067cfde3e3d760cb2244cd81933e7ce86b125c6c458933153cecb9a3dad91146358cfa574ded2380de324ed49b32dc7ca0d13634b522c6b0ef338d69671fa769a96692d2d65cd3236343484f1ded2539ed25a5a9e85a12c6dcd2da518cb312df3504e5b5ae3b496128667532ce196d732ada11cb3651a4b6ae929af718c036f39e5580b699669965ee02dd31c692b6db9e7c809bc254d995b6a2ce3967a482d3596b4630e659cf686196b0e69e64ce92d61e50f7a1279c29e79c12975ce31c75ac29c618e5e7aac61965e528e1adae6392d73c6539c634b4a49fbc08c3da131bdcc39704b4b68bd9736f48396d6638c8136f4c01bdc5263cc0dbcf0851fbcc533308e9f7b122f43066f49039ece0db5f0963e732e0f72c69f34d067d8f2454a69c5ea9cc0ca5b538b2fb4a505e6f0945e7ae92d67f0828f7de0076e60c2967cc883dcf0013f6cc1075efe81993b3087c3f00df7f00f8ee318b83370e207f8031cfa03f0ff03f81fc0ff706fe10f70cccdf1008b033d367336c761180ce37dffc3611c8403fec7e7047980c37f74fee200fe40c07ff9173ec00179b0e7db3260c466dee7390cc77104e4f1fe0dc7801ce039fec31fe8000ec6fc7ff29f088004fcff7f800e8002fcff8fd99948132c87f3f8870b2000fff91777f1030ce09cf719ce6840073cf11ffec90d2ce011fcc7771ec2033e139b7d824778cc877988e7c02fbc853ff201ff00ff800ffe013ff8011f92f003fe87be9822f1246cf31cced160fc868db8d83763634c3c0ee7642e66c98dd89939e266c69b94933173941fbce1c5b838fcc03dc89925b3328779588fe6f01c8dd390393323676666c796e4cccc99d883b93827dcc6cccc99b2657166e6906d9aa63469b39a969c4d69d6942d9d4ce37096692d4ba7b4cccc349999b22c4f56e58c35abb2b4649d644d5696a6a56c9ab4b4ac96695ad334d5646a5c9a943555334baba9a565aad1aaaa2c9bb25a9a9aa666acb26aaacab2a666aa2ccbaa9aacb26aaa656a1a6bb26acaaab266966556555aa5a5a926675565566559d594aaaaaaaaaa"
	DPCMSample Name="BSV_1" Color="ffc6a1" Data="8fc1c473a799c3cd6066fe7339088572c7c1e3e8786c1c731e738e01cf9e63cc3843807f63fc77849c631e38e01fc18ee7c338f310f03c639c398e81c7c1e1f1f1703c3c0c3e1e0fc7cf63c839728cf3c371f07c601c990bc607e7c1f3c4f9737c40f8107a8c331cb38f39c7b9e178783c1c1e0e0e3787c3c7c3f16070f20e3307ef191f820fc787e3f17078363a9c1ce6137908ff83f9380f929be1e178721c1b8f87c7c1e3f071703c1cce801f794ef8677830ec03e3e3f1787c1c060fc763c6b3c131239313fc19f98973c431661c1f3387b3e198781c1c9f8f87e3d171c07868f0cc7f8671c339701e0e0fc607e3b8f17c9e378e33e30c36889f21de0d668ef3247338ba181f8f85c3c3f1f339301ecc033c921fee99c382c77d1ef00ffc03f103f203fd811de481fc015ff083ffe05df283e8413ec0176dc107b8c12ef2253ef0431cdec12ff0067cc127f9f9182fd847177c92977c805f3e9ec71b364092cd1ef804bef8924df64117fce1453478111f19dc479764d1046ff03234b8493e9f8c87efe1651e7c3c860e6fe2231934890efeb01f0c1ea68b3fc1e6d3f0303ef8223cba789a0efaa0c97ef8a2133d9844873fd3c170d8367c892ebbc817cde02d7a002f3ea2c33fd8249b78d0c17fb0f89a5ffc400f7ff0893ee8020e7ae0077df0033e3cee833ffc030fc0830ff3fc830b3800013efe8ffec10ef8011ee043fe8f3ff84b3e40071f86d3c33168900c7bc22db7c73fe9821f74c3277df8d02358c0064df2cb2679b009bee8962ffbf9814c74c10fbe6cf0f0641b7c78830f78e8a60f3ac88307dbe2c39ff4e1c9397c78930f58e081271bf481071d3ea69b36f8983ef8980f0ffa808b3f8ec16692a3c39e61669ae1c3c771d0c1c3e1f064dd70e0b6c9e7c9b679b0e1b491641274d81cfaf0395ff88061b6b9e5ce91c49025df3e3db0c9e6c10493c4c1071f5fde7c62b878f470f1c8a18b478f27baf0f8d0e0a2a1cb870c0e3e973f1e1e68f0e0c30f0f0e07ce3872f9f1f0e1c79f270c3a06ed18e6fc63c079c7c639f718e63424343f88c5cf3bfc91f1f8001e7c800f3ef0838fecf0c16c76b0d92c6e93092ea00fe6a38b7cf6831c7cb2c94c66c9269bfc2c93cd263399c96632d92c9fcda3c1b066329bc9244936bb9f6d9269c064b293c966fb6c9b6491cc6c3263b3c9f0749224d926d97cd6e673b299d84c26379399d96c262793b44d9e66b319c92671343f9ac572329bc84c66339bc964da2c93c1cdb26cb2b9996c66b2c964636c72b3d964b2c993e4a46193994c269bf46c669b6c66b3611e9f4ca6c96872381c9bcd642693b1f9dd66138e1dd9643389834936339bcd6c3633d96cb624c93e0fc6c426c936dab28d6993d83c9c647f3093495e341f66936cb3b4b97c8cce2641b2693c1e269379b24c66922693d1b46d369f6c3667b349da36358793996c1a4b922d8b83e1b8cccc6437db90c94cb66c33d9c186269b5d6cda66d3b46c86b2279b4d66369b83e479b22cd9646372989b6c1eb64393e460365b9c4dd2076d82bfc4d3245dd06d9383fc047f904db441dfe41f92c9e4c37818e6f334cb7806f3937c22bec12c3ea24bb8657b409be42ff986c922bb4c5ba649d2067912be816f483ff02dd92c3ec7b427f1016c481ff2b4690b7e83b6c007dac08717c3a36dda6417c9411ff243fe934f6c93fdc872c6e383267830b449d0677878f0cc703cde74c30f1e36c9936cd3071f1f9e34c2c1871b974d783038e4f0c0148e2d5f3a7cf8f30f1f0e1fbce8e0e1cb070f1f38fcf0e0c1c306a321c387e7c187edf33cfaf0c0c180c020619bbefffdf47870f8e1e1f38d0f3c38187c2870922de3c5c3a06140184c3e7d7d9fdf4b1e8f0fcf66dba6a31904000384c1e3f3e5f3fbff343ee28383c14130102470e0f3e1f9f57eb68d69b46036b84f9e4db6c15d3ec9c7f3ed870f0e030000e00070c2f5f7fcfd5c269a403a7cfeffdffe110e04060000c19efbc2c3f3fcfeffff3f1d000000000007ff7940008000ffffffffff9bc30000e03efeff07e140f00ff01fe6f1303c10cc43b249da65da64780bdfc137980586d3f36dd2037dc237f9817de02f7e0618127dc90e3ee0473ef8831ff0033fe0031ff84017f6f9b67df20d7c800ff8814ff220133cc0869f7cf0067fe207f94437fbe00f7c400ff6c10ff8800ffef04b3ef8c10ffcc11f7480037cc0077ef8033ff8013ff0016f7617f8031ee0033fd8433ef0c7ed0bffc003dee0073c810be8643a12e7fcc117f2c96df2b2bb7cc81fb98049321334cfde660bfbd89cfc064932499e30639ab3c428c69ef11b6687b9ec1c66ce34e3bff1936c82648e99cdfc614613cf82666c00c9e660763a761cc7f1701f4ecb36c9b0e1cc786e031e7b83ddc09c21cf1b7e049fc10738e33c9933c68e69438e71388ee7c3cf26d3f019d96e9219e8b2c96c267159e479c266d1457e936db2c9862793c96482394c363799375b9cecc36676b3819b994c26379b659299c526339bc983994e6673360b9fcdc4044ff03ccdcd6676f2b1d1d1d864c6e183019bcd6ce6239b64f0831ff8e00d1f7cd1153de8e23c3838131ff92099ec269b6cf0077e74c3077fd8053f38f8c9063bf86627db6493c9303270031f3bf9c117fcc047377be2815d7cd0493ff8e0263f3882079fec83c37ef0e14576f0813c986826234c66f0c7077ff0030ffcf0331f3cf8c083fdc00f703ff801fb496c0c3f063f8207b7e3c1e1f9e078e083738e99997c701feee08e54e69067f086990f6766966497b8c94d3e1c2e3d120fbc031b4e72c38b7636cd0f1be719cc4f5555555555555595aaaa52952a954a5555555555"
	DPCMSample Name="OrchHitF.dmc" Color="a9887d" Folder="Orchestra hits" Data="ab391a1c6e9ef3dc11302106f2cdeefb7e0c0b853ec1c08fc617ff6518ec0188486e7400f0effdffffd30368423e7d6af8030f081e0000fcb3cfed0070f9fbc2070018fdf71c24370ff8ff1070b8ffffbe12cd1d7fc31f0000808863ff2230f31ee67f065fc401f8ef07e00623600f6160f0f3f9f3377cd0eb30c31b00f07ff0dffb4ad9d8f88273103060f832f63d0820f88c7f389c153cb6bd089f32bc6d7b34e4095ef73f480330dff3fb9e25008eff790012008bfe87013cc050fc771c9ee06cfc31bfff1e7fce000a36301f7b14c73800307ecf031ec097ffc7df2f000cff51827318fe6100e730c6f70ea3311ce7799fc3be0df8bc7f008020b8f879f071007ee03fec611c7ef007ff3e806d3c073c60033ffe60210e000cff7fdd8384ff7f8f631a85831f870984e381cfb106e2f887e3008f718cef79847f38ce373cc63f10e03f3ee01e14e00f0f800f3cf8c70f8d0f3ef4f39bc5c300f4f9fb021800623dfce71d0e82df78039f7e9d071c02c39eff6f8701058c800cee851ec777fec3035f7fb0c13098c331ce67f8e7231c80789ce31dc8f10ff2f118dff80e40f28d7efcc04b3e8030cc9318ff87273c808ff7cc0ff80107f8f307fd888770c0037cece37ee3813ee97883e0b8f36098f2799c5b0cf87d10e43808ee3b88f31f62fb0bf07847789ce471dcc30d5e490c863006f778df6f19907d98e3970ec4748cffc1036c2f74687251c2037e3f7098a1bf1f889c8fe3908f27ff32608cc621cee8216cfd372f02b8cff0883f78304f3ef03f00e01f78a11e4f983fff140700d0df7f80e13fe8733fc83107704206fcf0a778e6537d1002efddc2465e28e67fec871ab0c907e198c774318b78e304bbf09b333116d7f98f6b2e88419d8e308cc5159ef029d7ed80ebcb60d1d6e0df76a48b3a80d71a79229ff0588196e80db5fb711cd0ebaef2d12c718442be5c4c305eb59a8a5d1f25935d190cc32fbfa50eb75a0d707c8b91b8c732d80357bc072ebd288b967b0bc72a5da6410bbf428a78e619b387fd93c2a25da0d43cdc4d7d40bf1ca886bf80274b370ee541fe89924dddc1d2354bb3bce2e82cc2119634aa639337b75abd36ead0824baaa872bdd5a18e792192e4701f21553f78ca9bbaf564d5c81594695db5402e5b8a8632d32395a9bf6e55a5e96129ed4a89b870f3da48de588c625c8d4c2e7569a7938c8fdba8e7b04467acdc6a28e1182c721a5ed98d6efb0eae580b57aa854caad3aab7c98a6a289256551657b6d4b7aa5513adaa4d95944bb2955dda84224ba9aa66555a6b6d2d5729cd5696c929257595d6f214c5a84a6bcad46aa9576a5357b8a46dd42255ba329dba958aa52a4bab94aa354d6bb68db22a4b6baa8a5655494db5254b59a996b19aba6a9555da4a555965b3b44a55aad44e6d310d35694dda2a275769935aaaa5555323ad6a5955aad52a4d1955d552d656554bd5aaa8a5a9aa524bd56a55a556ab94b4aab232555575d552adac545ad552aa4a5576a5aace6a2555a9aa6aa9a65aa5aaaaaaaaaaaaaaaaaaaaaaaa"
	DPCMSample Name="OrchHitG#.dmc" Color="b5c2ff" Folder="Orchestra hits" Data="35c741dcdc3d1bc1400cf8cbdffb8c05c313061fe6e57f62d00340688703f073ffffff0734c0b3abf18703c00100f0f9bb07c0f3eff00040f87fa32479f0ff048cfdffbf0bb3f10f3f0000009cfd26c8fcb0ff848f3880ff0f704104394221ec9edf6f7cf41c1b2e00f80fffde9b78345f8c2110185db1770800dcf903bcb1b76e0ff01affff13681bef4279a0014ea9e114102eb5f1b80f8cf2233d16deabe3d403eefd070a60ef7def9c00cc3f0f900082fe33600151ee9de18579fce8f77f7e6e0042837e748c9902c078e7c0235cffe7ef0d20fc11e30c71cf007788f8774831c7bcf38edd07defd0300002edf03e3001ffca9c71c1f7ef07b8035efe080051f3f1630008cffcf1d0affff73c610079f21218817e77d70c01f438030fadfbbe31c31cef9f31c0006fc730e10e7fe397e9071cf1573c0a0e3013838f8dba378f8f4f9b61c06e0fd5f8000c01afffce1086f7ce0e9770f0e40ecfcffc680400418ee8277bcfdc3d1e7870d23cc3066bcf1f711038871e30f18ffd0f3983bfe00c14b9f1f9c7900887388fdc7030ff0fcd30f3c70c0e7873ef18003033e79fe8f039e3a6f8411df1c70fc039f05fae1001c13fafb8718c4fef151fe11e081335f00ff80f18f96ff617010cee7601c3de759137c1e40851876dcffce007bccf97480e3cc3f38e01d3cb48c120e7c3f1c0cf71f88e731071f97bf06649a21a61866fbb7ab007bccb9ab80e9e43f3cc03c3c348e1207fc1f0e0cf71f88e731078f977f06648a31361c62fb9f97007dc6111f1f72f2c13f00f8e1821f07e7fb570400f8ff03c21ff6ee5147063868c0c33fdcf2ea0304f73e58f282e63ffdd040cb031c7be23126fc1ce0f0cb8e1670fcfe670e60ec1ca807cc7dc89c279c3c7c95070cfafcc707067e38c403e76cd4e485835bde9ae1887bbe9d6ac810a38d65443c9b55f17a4acab6c2107dfed2e2ce1c50bd25c23d66e8c1d23d587ca4d1da1dce94cd0c9a7c210567bea4c7fe121cbd406a8e6ff2812f0735fc8195e5c6a883fc51727487a59755ec8be91aa8c089b0bdaae3cbbe6ad441062c75d8ab6bceb8e0e28de49ce0c2abb5ad38e588e9ecf0e3c8615338305caab172bbb57a1d35169c5451b9b70e1dbb1012877b42aa0f4fdef47aaa1a2ea8b2ab2670b944436a3a29d35f772ad5c3525e29c4e17a6da4c752c4b4926969d3d691f1dc45d758d864d535941843c934bcbad17b1f5aacb1520d19d559f58d253524b2b22c2b5bfa55ad464e75aa2497d8b2cb8644a65455cdb4e5b6b325b59aa6345252abc79c35542963d531636e53cb2955bd38e54a5297ac75a21855da646a4dbdd2a62e9ab463452a3de6d42b9592655929cd9969cd1d6595694d55ac4aa5d3962a6ab426ab5ab5d2514d2dada69156adaad269a5a9a8aa25ebaa5aaa55d23455a5966ab52ab55649565596a9aaba5a6a6529ad5a4a95aabc52b5564ba658699659752ad32c9daac9a42adb54a9a6b6596855634d3656ab545553b5aab452ad32abcacaac2ab52ad3aaaa4aaaaaaaaaaaaaaaaaaaaaaaaa"
	DPCMSample Name="MUSIC_PCM_DS-geo" Color="ff579c" Folder="Dash Sounds" Data="54a9508563bdfedebd6ea582840a1512b958cde9a652b55a73bb56e720518de378acae61a8a652a94a913a1ce7713ede7bbd6e53a950a00a512834a2e99dca69e53c97d3d95cefb55e6b9595104228001190488dfffefd5bdf796b2d46a1a1628cc3a1c6e48d150d4561301417bed7f377ff3d0f084ec7e1f0aa82530c70aa338e87100ccd3a9efef1fb9f072b2c78f0e3cf1f0f001878be0000427e57a082dafff7bd70f0ffff1f0870fcf88180c0830300f0fcff01001c3e7c78f8f0f3e3dffffffff0e0c007020400000000fcfd79e0f3ffff7fff7d0800003c3c3ce0e1e30d1e3f3f1e0c18383c78e0e1c38f0f0f1f3f0c1c0e1e9e0fe7f1fcfd198f8700000ece7078f0f8f39e1def991000f87fcfc1301893079f770700183cff7c387c783c6f9e7f3e060078fc3b238cc3708c71fe3c00008e9f3f0e1e8f639ce7efc7010187bf67ce311c8775cffb1000c0f0f9c780c3f190f37e7f0020c0fb1f1f0e47878df7cef3300483733f374100c3fd1fe71803e23839e3fc398061f8ff730608fb3e00e0ff3f00c0ffff0c01c4ff0100efef0160dcff8b19238efd4000ef7f01c0f89fe3770098f71930fc87e3f038bcf2018f79908f23f0391fc6c771b88309dec3083e0fc743fe078eef219ccf308c0730f88407ff1fc07f863bfec3c0780006df23f87f00fc4fe0fa0ff0010fe8e331389f87f10f00fe7c00fe831cceaf00ff7f00fe0e80ff01607e0880f37b38ff0f63fc07e0fd8f0010c7c1307e07fffb00e07f202fde03f445081ef71fe0c77b18f00c67f03806f8aa615eff07eff823388401dce118784711eefc8fe77f9cc73c0004f1c00ff404ca08ef7fee7bf71f040010efb51c8823728c79fffb9ca57f1c000000f897668ff33ff12fff87037c8a41000080193fee71fefc0bffff7f1c86770000000000fd3fc6f73f7ccfd7ff1100fc7f00000000ff3f80f2ffe0ffbf87db0200c0870100807ffeff07ffff07e0ff3f1800020078780000f8ffef387effff9f1f7e1c000080783800c003fffdffc31b1f5bb0190f0f01310f1638f8e0ebb7fdef93c6e73b272410000000e06a76f4eefbfefe5effefa23914218420904482908c636b7e5eeff5affa6e330e304218c32088b18ef5ecafcef7e6bde6b4421a96522c2085548418a74856cbb3e7ecfbdff7dd7931d78210134a88512040923bc63973ee5df7b35a37bb49c5c78232c544c081a7893296331f3ff6f1e6577cd4e1c51b29f410a380071eb0283cfae129c5e71ffeb017bfe9f1b10b87ba6228e0c1c139382c3ccc070de6e9f0f1375e3e3c4dc1e3c3c33fc25a300e1e3ce5f1a0e0f7ef711530000988e0bfff7f3fff3f170000000008f0f7ffffffffe0d5ff10000000000000d0feffffffffff3f80d71f00000000002ce0fdffffff7f701f7f00109c07000082ffe3c170fe7f7c981f3c00060e8f8fe3e1067ff8ffff18040e9f030000e33908c0e1dfcfe7ffff5a34ffff1f0200f438000000060358b0f3fdffff3f0786ffffff010000e07050a0e070782e3f9e302effff7f0680c1c3c3d938387058301cff9f1d3ebe3f1763ca9523040049218250f8fbd71e674e5effdfdfcbe59c0d13513101210008012092d6fbeefefedfcfd558ab2fbecacb951002200c5468cae4648583a6dcedff7f5f9dca02c9a473ad3caa9080404081b3ddef563b3d5d6e67d35ab7dbeb5a14080480a0549a0b1eac1a0d16bbddbff77fb373fab252579559348b08044100224894dadc72dd7dbbdeff5792787a37572493c972ad0617018140c64094e8f2fdddcdc7e69d93c70fcf273b37c090e864e18981801826e7b85972ffdfb3c10284e7e36cfef97e6e0e07130410f8f1810f3c3c102080ef1f1f3fbff8f0f8fffb000000fff78b83830783c381df0f06181c00e0ffbf0c7cff1f70f0f3c700fcff0070f067e0f99f1f003034f88003f0ff3100f37f60f0af03fff1003d7f0f8787c51ffcfcc0c71f1c0000690000f70186ff3f78feff87ff0fea7ec88003187c7000c01f10fee3c33f7ef8f707077ee080010ff050709cf0d1f8c193ff1df8ffe7f93f03a62f01c00300f0c000061f1ef8fd0f3ffee1e1df0ffe7cf8f902c4e301c007006058a0e80fd2df47bf3f3ff87df0eb0f0e7e00c217c0f000540f0c7c70fd015d3ff0fd8f07feb6c1d387761e703c082a18b87260f0c383873f7cf01fbe7f00fc5740ff14e087013f1cfcd681c30ba03f00fc0ff0e73f0ef603fa7f78c0fe00000f7e1d053ffef800f8818a8f0fa87c40e0801fef97efff3f78ff03407f007c0070b800f077c0e187ff31fcfd00c0c7038e07c3cf0f7f3ef0ff070e0f08ff0700f860000e0f7cfe3df8ff61c0c081c107f0ff3fe0ff03fcbf00fc1f018c0f0030e06238f72f70ffc7e50f070a407d307ea0f8ff83ff0f031f1f03f63f00c00306060f8f1e7e7e7ef0f80f01020f382ef0fdf3fb8783ff1f00f8f0f0f0e0e13000c0ebd0f3e1cf8f0f02c0870383e70f0cfcfffff91ec7f72300d8fde10080038707187c78f0f878f8c1b35080f7c7c7e1f0ffff8783e37f1e06023e383838383080e17182c131c6e3f1ff7387c7f7cee3e1380f0fc7878f07113f0e0020389c0f81e1f87b8ec3e0f0f0f973781ceecfe7679c8fc70f078710300c1b071c7a3e1c867078381ec7e369c5f9399ecfe7e37a24c21837c5b9191e4c18c79911c418c729ae1fc7791c8f47271e1cc73972cef37c1e0ecf88713a348ed3c8184663181e8ee358bc8e717e3c8fc3793c1c8fe33876386aa81cacf5b8702c8f63bc1ea275cc388ed2302cf518c753b986f339870d0fc72e9ee73056c7316c8e5ae170"
	DPCMSample Name="three" Color="ff579c" Folder="Dash Sounds" Data="95a95a6695aa5a55a5aa5a5656ca9695569a9556669553e9944c5b3ac68d49275b6e31cc964e7346a99a56c91eaae958a9cc533ca699c9665ac653aaa636aa99b1369c5cd195aacc959625b595657195565a5aa6552d69a36ae38a699a9c2c574b5aa5aab38545e7b074393156ab69264b1b2d8fa62d6cca5aaacb142bbd8a6ab23aa9955a29595597564ec5ab839a59c547d38c875d9c32705d3abc615155e363d197c32cd54713159fa590b31d1ee371383b07677834cccdd821e8fc10eeb5b383c1f08838ffe9e3011c387e3f36fc75f8000000fcff1fea1f8f0300e0ff3f40fcff0700c0ffff00e0ff3300c0ffff00e0ff0700e0ff3f00f0ff0300f0ff1f00fcff0100f8ff0700ff3f0080ff7f00f0ff0300fcff0780ff0700f0ff1f00fe0300c0ff3f00fc0700c0ff3f00ff0300feff0f80ff0000ffff03e03f00c0ffff00f81f00d0ff7f00fe0300f8ff1f80ff0000ffff03e03f0020ffff00f81f0084ff3f00fe07c0e0ff0780ff0138f8ff0ce03f0007ffff03f80300f0ff3f003f0600feff07e04f00c0ffff00fc1e00e8ff3f809f0100feff07f0f90002ffff011c3fe0c0ff1f80e30718f8ff0300ff0083f77f18c0f7c1809f7f0c707ce0e0f9cf07183e7070f8f781809f2330fcff2140ff6120f8ff6110fca381e0ffdb00f0ff1008fe7f0800ff0f02e1ff3700f0ff0381f1fd0700f8ff0308ccef3f0064ff6780d178ce07c2e0ff5e4040ecee6760707e3f03e3309d9f8cc1f8ff0c0004f7f3391888ffff0d0000f7f713008cffff0f00c0f17e1f01c1f8ffcf00008ce7fc0e06e2fbbfc7310800c6f17e0703f1bddfe31806c601e6783e279179deef653886308c80633cbff38998ef7f1c874128cce7008cf1fc4f0260ffff190cce61243a871100ceffff0f00f6ff9f01308e6334aea910c67104e7ff7f0780f8ffe70044c7718c49e438ce710cc139c7ff1f0dc8fbaec310ab250293f39cc148f51e6730c471fcfe773090f1fd4f00646ce634244739ae663633a5e5b9aca4653c4620f3ffef00c078fe6718c9b898cc2833353bcdb194eaec542ea3718af1b8eea582529a39773621b3fd6b04209c8f69663457b399698c23398a9dff3e2292dd5d63085353cd2186b1d6b929654ce774d558a999d31a6355566639338dcc74378d2526632cf3bccf1404b3dce311463aaeeda68921c6763faf1469b62d2314a56a9aaa6acd58cdb466631cc79c665996721c6738b9dde6186b4d5314d234555299733c655a35b3a9a92d5669ca694e339699da6825a7ceb9cc4418e3bcff142162969b264553eb6a655595a99a5996639638b6bd9a6244e55c8e655669cd722a45a974bc5653a96a366b389c52a75a5ad698caaad5acd2246375b6aa94a99c55c94c6dd65253ad49264db32a6b39ce3195398ec5ca94da76a64ca5d5644ce3b1ca6956634d55652a559b699cc639ab390c5373562565b95d938ccaaa698ec54c633a6f5351ac9c63711cc6797c1c9369ec2c2693b3e6d1b498ca9cec349634ee43e41cd76318cbac354a53adf14c7631991ac726b3f1cc54561cab4ba9e1ac33d9187a4c6723e7384b9acce558269b9353740e9787631a3d1c878fc366713c315d351e0e0fc7c3b1e961e970acd3a8693c0d751a6796a3e3381c87c7a35955360e4f653c71bc38a699aa95a66369393c3c5a8e4aa7c68dc3b6b05aa94e45a7c599555616a769b1d9b059a996a569993a969aa56569556a55a9aa6556595aa6a5a6968ea66aba586a696aa569555995aa966555699aaaa66659a59a65966969a9aa5a59559aa6a9a5696555a95a566a5559996a96a6aa655a565a9a56555695a6aa5a6555656aa99a665a955a9a5a9a5a696a696a596a566a655a995a969696969a6a666a59a65a9a9a9a96969696aa59a956aa55a596665996a9a69565956a5569a566a5a696a6a6a5a695a6965a999a55a6aa5aa5a9659a9956a66a55555555555555"
	DPCMSample Name="two" Color="ffc83c" Folder="Dash Sounds" Data="a59d998cd999915592aa6cda52b5aaaae9ca34e95ac66c355551d98a5a2f515535ab2aaaaa4b555e5555b11a1b1555b9ad625555a5a9d968b2b9187554b62aabaaaabcb4aaa8a5eaaaa2aaaaaa6455b55a65663793485d553519313bb3e24b47555365b34cc5a5caad28ee58a9aacba1ea8a636eae838a573c2687413d8dac44bfbe3f0f15040716000e6fffff7f0540501060fdffff9f12000000f0ffffff19050000f0ffff1fe10f0000f0ffff06bc7f0000f8ff1f00fe7f0000feff0100ff1f00c0ff7f00e0ff0f00f0ff0700f8ff0700f8ff0700f8ff0300fcff0300feff0100fcff0300feff0100fcff0300feff0300f8ff0700f0ff1f0080ff7f0090ff7f0080fcff0300f9ff0700b0ffff0000ffff0000e6ff1f00c8ff3f0000f7ff1b00e4ff1f0000e6ff3b00ccff3f0000f8ffef0000ffff2400e0fcff0700f8ff3f0000dcffff0000ffff010080fbff1f00e0ff7f0000c0ffff0c00f3ff3f0000c0ffff0c00f1ff7f000000ffff3300ceffff010000f8ff9f0130ffff07008008fff77702c0ffff01009081f3fb3f03e0ff7f0000dc0b88fdff1b00faff1300e06e00d8ffbf01e0ff3f00407f0140fcff0f00f8ff1f00f82f0080ffff0f00f0ff3f00f09f0100f0ffff0100feff0700ff3b000080ffff0f00f3ff1f00fcbf0000fc02fcff7f0000feff0f00fe3f0000fe0b00fdff0f00f0ff3f00e0ff1f00c0ff0700c0ffff0300feff0300fcff0700f8ff010000f8ffff01f0ffff0000feff0000fe5b02c82f01f0ffff0300ffff0300f0ff0700f0df2e005ec802f8ffff01c0ffff0000feff0000f83f6a00fd4909c0ffff0700ffff0300fcff0300e0ff019468ff8200e0ffff0700fcff0f00f8ff0100d9ff0248edb6aa80aca2ff7f2400ff7f9200f47f0902a9fb0a50db6e4a64dd2a81daff3f00a0ff3f8020ff179024f2af406cadad22765b9580f8ff9f00a0ff5f0410fbaf20a4a47d8568ad5a53ca6e295549b9ff2b8250fb5b1122ed5e21a82aed2a525ba9ada276a5568ab4aafb1f40aada7705a2da6a4a92aa55aaaa56ab9456b5ada4aa4a6d9548fb3f1192aaf7951029d5aa4a2aabaa6cab546b526d6a55a56a95b64a4aaba4faaf44aaaadd15806a569652b5add45aaaad92b25aa9aaaaaa6a55555555d594b2956a1551ff17206beb3b01a06dbb02d4bbaaaaa47b2354abda3644b55555a5d454d4ff03929afe170068db5682ea56ab52d94f21b55a5d09e5b6a496d2ada8566a1b84fef70440f7ff0200b8bf0b80ee5d4da4ed6a8aa87e2526557b23aa95aaca6c4b22ed7f03a06dff0300d47f1211fc4f5a22bfa94ad456b58a54b5565523e52eda45742b552135fb9f20a2f6b78210ddd60ac86fd612d46d3792547a47d648b76423dad356a41add42b5b5d486f44a89fa544fa8d18ed4495d4bb5a8cea22cad4b2dc9a66a0dd5b2ab54694b3551a52ded482f7652a5355155b595aab5942d69e90ab5aaca157a71955a6a538b749593a9ac5629ab6569165bb6e8946955c9a55655aaa55655a6565a55aadaa84da5baa856aabaa4a5aaa556965a6a6569555aa96595aa96aaa5a5955a59a9a595965a6a5969956a55aa95aa6aa955a5959a56565a5a6a69a9a5a595a656566a696955a596a65a5a69a9a5a59595965a5a5969a5aa559a555a6a69a5a555a55a9a6aa55a956a59aa65a596966a599669a956699aa5a95a6959aa6595a66a55a5aaa596566a5a6a69a9a5a596965a5969a96595565a5aa556a55a9a5aa95a555aa56a555aa5aa965656a956a556a956a95aaa5aa56aa55aa95a656aa9aa55a556a596a56a59a965a556555555555555555555555555555555"
	DPCMSample Name="one" Color="5dd2ff" Folder="Dash Sounds" Data="aaaa56a95655555555555595aaaaaaaaaa5555555555adaa54a92aab4a5555ab5aaa6ab5aa5255adaa54aaaaaa5492ecdf2592a4deab2449d5b64aa9aaaa55aa55956a555555a95a95aaaaaa2a9524edff0924a5fd2e4154b5ada924d56a55ab4aa54aa9aa2541ecff1f4054ff5f0180dd6dad14a556a5529592aa4ad2ff7f00a4f6df0580dadf1221a2b62a4929d9ffbf00d0deff12807a971049ca6a02b8ffff00d0feff0300fd1540a4d60ab0ffff0140ffff0700f82700d814dcff7f0094f5ff0f00fc0500b504f9ff7f0024fbff1f00f809004981ffff1f0065fdff03805f006002f0ffff015cebff1f00f8030022c0ffff07f0b6ff3f00e00f002080ffff07f0ffff0f00e00f0000e0ffff01f8ffff0300fc070000f8ff1f00feff7f00c0ff010000ffff01e0ffff0700fc1f0000f8ff0700ffff1f00f8ff0000e0ff1f00f0ff7f00e0ff070080ff7f00c0ffff00c0ff1f0000ffff0080ffff0180ff1f0000ffff0080ffff00c0ff3f0080ff3f00c0ff3f00f8ff0700e0ff0f00f0ff0700feff0000fcff0000ffff00f0ff1f00c0ff0f00f0ff0f00ffff0100fcff0080ffff00f0ff0700c0ff0f00f8ff0780ff3f0000fcff00c0ff3f00feff010080ff07e0f8ff03f8f91f0000f87f008eff1fc0f93f0000c0ff0301feff60cfff000100fe3f00e6ff0ff2ff071000e0ff0360ff1f30ff1f800300fe1f00ff7f80ff1fc00f00c0ff01e3ffc3f0cf31c80100f80fe0fcff7cfe21077c0000fc0770fedf3f77c007398003f80f60fce70fff91077c0000f08ff8fc07feff003f76000e00ff11847feef11ff0e707c000f01f40fccf3cff017f3f800e03f00f00fe03feff80ff0fe00700f00fe0ff03fc7f80ff0de00701c03f80ff0ff0ff01fe1f003f0000fe01fe7fc0ff0ff05f00fc7100e01fe0ff07f8ff00ff09c00f0600fc07fcff00ff1fe03f00b8430807f8cf3cfe01ff3fc01f2e80c31e4480ff88f71ff0ff037cf001263ce00f00fc07beff80ff0ff09f011cf000ff00e0f00ff1ff81ff27e0770e70c007fe01c003fce39c7ff0e70ff8c8c30e38e01f0ef003807f0cf70f7efec08f1bf80302fce7013e0006f88fe33fe0df07fc71807f08f08f5a9503ce0100ff39fc0ffe7f803b07f8ee00863f60fc01f01f2080ff37f8079f7f00fb07741e78fc00872f1dc0cc0f0e17e0ff01fe1fe03f80ff02f0f701a60bc67d06c0ff80c60f00fe7ff0ff01e30f083f18f87f80f0c381cf03d21f81bf0641fcff01de1f061f17587d10fc2f00f57c50f830f8f9c0f0ebb030a1ff1f10fe1f085abd2c92587b554869b6aaa4d45655a6d5aa996655a554ab36ab54552a55ad6aadeb5a4944a2aab26ab555a552655555cb5a552512d5bd7b95b1cc32952a55a54ab5d6aa9452aa4c5555ab56abd6aaaaaa54aaaaaa55ab555314a5daea56a524a5aab5aa55ad35951295b26a6d6dab4aa2a4aa56d56adbaa2421d5da5aa5aa6a5b4b49a254ad5eb7961412556badd55aad94949456adaa5a6b9a2449abadadaad2944a95d69aa6aa6a2dd32cb3aa54555595aaaa65954a55abaa2aadb656298a54adb55a6b2d2592b26dd5aa6ab5aa94524949d5dab64a2995b556354d2929b55a6b4d4baa6a5b2d5555ab2a49522a55abb556a54ab3aa4a55cb56cb2a951429bbddb5ca6aad2a4992945469d56a55abaa555555aaaa9a56a9aab24c5595b66da9aa75ad498aa454aa54b39655ab5a959aaa5a5565a59655ad545473664b8b8d1c9d5696991aab1e8b1d0d2b931d1d4f1e1e2e3c3c4e0e138f372e3e2cba1a1c1d4d6c6796b554e9e2a2878515895f2f559e952e0f2d3c1c2c3a2a1d5b787e2c79517171a97871f06ce9e1b1c5a1c5c2e3717c395a71681c2a3d3c6efa78749858543a72f4e1f1f1f4e0b0e0d8d4a1e1d3e1e9e36845d1544d878e1e8b3ea73a13954aab46ab46351d6b8fa64a1657a596161d2e1e9d8e4b2d2d5555954a4b170f2f0e2f2e3a2d1a1d4bad6a3c5ab5b8b868b1b1e1d1d1e564e3c2f1a8e1a9b1e3e2a1a3a3d271d16aa5654b5395a62a9b1aabaa9a2e8d564e565c16171b1d9b96d62a5a56aa562aab9a6af1545935746a7269b26969b958b958f268746aeaa4ea54695969717171696a69e968535555aa9aaa9a5a3c5c356a356959aaaab296723a71bcd8d8d8706af268f46871656955535a69aaaaa5aa65696569a955a5a596959696a696968e96961597959a9696565a569a569a569a5695a659565969a5a5699655565a595a596a596996aa556a696995a5a5a5a6959a959656565a5a6a6a55a59596965aaa95a556a95a956a956a55aa55a95aa55a959a566a5aa56a55a956a5966a696a555555596569aa6a96a5aa56aa96695656556a9a65966aaa5a6595aaaa565595aaaa5a555595aaaa5a5565955a6a956aaa659556a995655655a5aa6a5555aaaaaa5659659566aaa65aaa555a69a5aa956aaa6a595555a6aa6a5555a9a95a59a6a69a565596aaaa666995a99a5aa9a59569a5aaaa5a559566aa6555a5aaaaa6569565a9a65555a9aa6a55a6a9aa5aa656655596aa5655a9a99aa9a95659aaaa66669596aa6a6a65a5a5aa6a5569aa9665a9a99a56599a6599a6a99695666969665a9665a9aa5656a6a9aa5699a6a9aaaa5655a5a99a5a56a6aa6a6a95a5a569695555aaa56555a999aa9559965aaaa596655aaa5a56669a96a56aaa565569a9965aaa6556a6a9569995aa6a696a55a59aaa6655555559555555555555"
	Instrument Name="02 but tri" Color="3ec4ff"
		Envelope Type="Volume" Length="19" Values="4,4,4,5,5,5,6,6,6,0,5,5,5,5,4,4,4,4,0"
	Instrument Name="blank" Color="ffafaf"
		Envelope Type="Volume" Length="6" Loop="0" Release="1" Values="15,10,6,4,2,0"
	Instrument Name="blank instant decay" Color="ffff8b"
		Envelope Type="Volume" Length="9" Values="15,15,11,8,5,3,2,1,0"
	Instrument Name="blank slower string" Color="d1b1ff"
		Envelope Type="Volume" Length="29" Loop="11" Release="12" Values="2,3,4,5,6,6,7,7,7,7,7,6,6,6,5,5,5,4,4,4,3,3,3,2,2,2,1,1,0"
	Instrument Name="blank string" Color="6471cf"
		Envelope Type="Volume" Length="29" Loop="11" Release="12" Values="5,6,7,7,7,7,7,7,7,7,7,6,6,6,5,5,5,4,4,4,3,3,3,2,2,2,1,1,0"
	Instrument Name="clap" Color="ffc6a1"
		Envelope Type="Volume" Length="12" Values="15,10,12,10,9,8,6,5,4,2,1,0"
		Envelope Type="Arpeggio" Length="3" Values="-4,1,0"
	Instrument Name="clutterfunk sax" Color="ff579c"
		Envelope Type="Volume" Length="7" Loop="1" Release="2" Values="14,15,12,8,5,2,0"
	Instrument Name="cymbal" Color="a2f7a6"
		Envelope Type="Volume" Length="32" Loop="24" Release="25" Values="15,14,13,12,11,10,9,8,8,7,7,6,6,6,5,5,4,4,4,3,3,3,3,2,2,2,2,1,1,1,1,0"
		Envelope Type="Arpeggio" Length="2" Values="-3,0"
		Envelope Type="DutyCycle" Length="2" Values="1,0"
	Instrument Name="death moon lead" Color="5dd2ff"
		Envelope Type="Volume" Length="9" Values="15,10,9,8,7,6,6,5,5"
		Envelope Type="DutyCycle" Length="1" Values="1"
	Instrument Name="death moon lead 2" Color="e783f8"
		Envelope Type="Volume" Length="3" Values="15,10,8"
		Envelope Type="Pitch" Length="8" Values="0,4,1,-1,-2,-3,-2,-1"
	Instrument Name="DMC: choir" Color="f6a4ff"
		DPCMMapping Note="D4" Sample="Choir Ahh D" Pitch="12" Loop="True"
		DPCMMapping Note="F4" Sample="Choir Ahh C#" Pitch="13" Loop="True"
		DPCMMapping Note="A4" Sample="Choir Ahh D" Pitch="14" Loop="True"
		DPCMMapping Note="D5" Sample="Choir Ahh D" Pitch="15" Loop="True"
		DPCMMapping Note="C5" Sample="Choir Ahh C" Pitch="15" Loop="True"
		DPCMMapping Note="B4" Sample="Choir Ahh B" Pitch="15" Loop="True"
		DPCMMapping Note="E5" Sample="Choir Ahh E" Pitch="15" Loop="True"
		DPCMMapping Note="G5" Sample="Choir Ahh G" Pitch="15" Loop="True"
		DPCMMapping Note="A5" Sample="Choir Ahh A" Pitch="15" Loop="True"
	Instrument Name="DMC: drums + bass" Color="98a7fc"
		DPCMMapping Note="F2" Sample="fdbass C" Pitch="3" Loop="False"
		DPCMMapping Note="G2" Sample="fdbass C" Pitch="4" Loop="False"
		DPCMMapping Note="A2" Sample="fdbass C" Pitch="5" Loop="False"
		DPCMMapping Note="A#2" Sample="fdbass C#" Pitch="5" Loop="False"
		DPCMMapping Note="B2" Sample="fdbass C" Pitch="6" Loop="False"
		DPCMMapping Note="C3" Sample="fdbass C" Pitch="7" Loop="False"
		DPCMMapping Note="C#3" Sample="fdbass C#" Pitch="7" Loop="False"
		DPCMMapping Note="D3" Sample="fdbass D" Pitch="7" Loop="False"
		DPCMMapping Note="D#3" Sample="fdbass C#" Pitch="8" Loop="False"
		DPCMMapping Note="E3" Sample="fdbass D" Pitch="8" Loop="False"
		DPCMMapping Note="F3" Sample="fdbass C" Pitch="9" Loop="False"
		DPCMMapping Note="F#3" Sample="fdbass C#" Pitch="9" Loop="False"
		DPCMMapping Note="G3" Sample="fdbass C" Pitch="10" Loop="False"
		DPCMMapping Note="G#3" Sample="fdbass C#" Pitch="10" Loop="False"
		DPCMMapping Note="A3" Sample="fdbass D" Pitch="10" Loop="False"
		DPCMMapping Note="A#3" Sample="fdbass C#" Pitch="11" Loop="False"
		DPCMMapping Note="B3" Sample="fdbass D" Pitch="11" Loop="False"
		DPCMMapping Note="C4" Sample="fdbass C" Pitch="12" Loop="False"
		DPCMMapping Note="C#4" Sample="fdbass C#" Pitch="12" Loop="False"
		DPCMMapping Note="D4" Sample="fdbass D" Pitch="12" Loop="False"
		DPCMMapping Note="D#4" Sample="fdbass B" Pitch="13" Loop="False"
		DPCMMapping Note="E4" Sample="fdbass C" Pitch="13" Loop="False"
		DPCMMapping Note="F4" Sample="fdbass C#" Pitch="13" Loop="False"
		DPCMMapping Note="F#4" Sample="fdbass D" Pitch="13" Loop="False"
		DPCMMapping Note="G4" Sample="fdbass C" Pitch="14" Loop="False"
		DPCMMapping Note="G#4" Sample="fdbass C#" Pitch="14" Loop="False"
		DPCMMapping Note="A4" Sample="fdbass D" Pitch="14" Loop="False"
		DPCMMapping Note="A#4" Sample="fdbass A#" Pitch="15" Loop="False"
		DPCMMapping Note="B4" Sample="fdbass B" Pitch="15" Loop="False"
		DPCMMapping Note="C5" Sample="fdbass C" Pitch="15" Loop="False"
		DPCMMapping Note="C#5" Sample="fdbass C#" Pitch="15" Loop="False"
		DPCMMapping Note="D5" Sample="fdbass D" Pitch="15" Loop="False"
		DPCMMapping Note="E5" Sample="fdkick" Pitch="14" Loop="False"
		DPCMMapping Note="F5" Sample="snare" Pitch="15" Loop="False"
		DPCMMapping Note="G5" Sample="is a" Pitch="15" Loop="False"
		DPCMMapping Note="F#5" Sample="this" Pitch="15" Loop="False"
		DPCMMapping Note="D#2" Sample="BSV_1" Pitch="12" Loop="False"
		DPCMMapping Note="E2" Sample="BSV" Pitch="11" Loop="False"
		DPCMMapping Note="B5" Sample="two" Pitch="10" Loop="False"
		DPCMMapping Note="A5" Sample="machine" Pitch="15" Loop="False"
		DPCMMapping Note="G#5" Sample="time" Pitch="15" Loop="False"
		DPCMMapping Note="C6" Sample="three" Pitch="10" Loop="False"
		DPCMMapping Note="A#5" Sample="one" Pitch="10" Loop="False"
		DPCMMapping Note="D#5" Sample="MUSIC_PCM_DS-geo" Pitch="11" Loop="False"
	Instrument Name="DMC: orchestra hits" Color="fcff6f"
	Instrument Name="echo" Color="3cb5a7"
		Envelope Type="Volume" Length="19" Values="11,7,5,4,3,2,2,1,1,0,5,4,3,3,2,2,1,1,0"
	Instrument Name="electroman lead" Color="3cd3e3"
		Envelope Type="Volume" Length="6" Loop="0" Release="1" Values="15,10,6,4,2,0"
		Envelope Type="DutyCycle" Length="9" Loop="1" Values="2,1,1,1,1,0,0,0,0"
	Instrument Name="endgame lead" Color="ca60e6"
		Envelope Type="Volume" Length="6" Values="15,13,11,7,7,10"
		Envelope Type="DutyCycle" Length="3" Loop="0" Values="2,2,0"
	Instrument Name="Extreme pitch down" Color="a4db74"
		Envelope Type="Pitch" Length="256" Values="0,0,0,0,0,0,0,0,0,0,0,0,0,0,0,0,1,1,1,1,1,2,2,2,3,3,3,3,3,4,4,4,5,5,5,5,6,6,6,6,6,7,7,7,8,8,8,8,9,9,9,9,9,9,10,10,10,10,10,10,10,11,11,11,11,11,11,11,11,11,12,12,12,12,14,14,14,13,13,13,14,15,15,16,16,16,16,17,17,17,18,18,18,19,19,19,20,20,21,21,21,22,22,22,22,23,23,23,23,23,24,25,26,26,26,26,26,26,26,27,27,27,28,28,28,29,29,29,30,30,30,30,31,31,31,32,32,32,32,32,33,33,33,33,33,34,34,34,34,34,34,35,35,35,36,36,36,36,36,36,37,37,37,37,37,38,38,38,39,39,40,40,40,40,41,41,41,41,42,42,42,42,42,42,43,43,43,43,44,44,44,44,44,44,44,44,45,45,45,45,46,46,46,47,47,47,47,47,48,48,48,48,48,49,49,49,50,50,50,50,50,51,50,51,51,51,51,52,52,52,52,53,53,53,54,54,54,55,55,55,56,56,56,57,57,58,58,59,59,60,61,61,62,62,63,63"
	Instrument Name="hat" Color="ffffb1"
		Envelope Type="Volume" Length="4" Values="8,4,2,0"
		Envelope Type="Arpeggio" Length="2" Values="-3,0"
		Envelope Type="DutyCycle" Length="2" Loop="0" Values="0,1"
	Instrument Name="hex guitar 1" Color="fff389"
		Envelope Type="DutyCycle" Length="6" Loop="2" Values="3,2,1,2,2,1"
	Instrument Name="hex guitar 2" Color="d8ffa1"
		Envelope Type="DutyCycle" Length="4" Loop="3" Values="3,2,1,3"
	Instrument Name="I don't know what to name this" Color="a657d6"
		Envelope Type="Pitch" Length="29" Values="3,11,15,21,0,3,10,13,20,0,4,8,15,22,29,35,38,39,40,42,43,45,46,48,50,54,58,61,63"
	Instrument Name="infernoplex_piano" Color="ffdc3c"
		Envelope Type="Volume" Length="17" Values="14,14,14,13,13,12,12,11,11,10,9,9,8,7,6,5,3"
	Instrument Name="Instrument 1" Color="ff5a9f"
		Envelope Type="Volume" Length="16" Values="3,6,5,5,4,4,3,3,3,2,2,2,1,1,1,0"
	Instrument Name="Instrument 2" Color="ffd43c"
		Envelope Type="Volume" Length="16" Values="8,6,5,5,4,4,3,3,3,2,2,2,1,1,1,0"
	Instrument Name="Instrument 3" Color="ca60e6"
		Envelope Type="Volume" Length="11" Values="10,15,15,15,14,13,12,10,8,6,3"
		Envelope Type="Arpeggio" Length="2" Values="-12,0"
		Envelope Type="DutyCycle" Length="4" Loop="2" Values="2,1,0,1"
	Instrument Name="Instrument 4" Color="f6a4ff"
		Envelope Type="Volume" Length="16" Loop="9" Release="10" Values="15,10,10,9,9,9,8,8,8,7,7,5,3,2,1,0"
		Envelope Type="DutyCycle" Length="1" Values="1"
	Instrument Name="Instrument 5" Color="ffc83c"
		Envelope Type="Volume" Length="9" Loop="2" Release="3" Values="12,12,12,11,8,6,4,2,0"
	Instrument Name="jaezu lead" Color="ff8d5a"
		Envelope Type="Volume" Length="35" Loop="15" Release="16" Values="6,8,10,12,12,12,12,11,11,11,11,10,10,10,10,9,8,7,7,6,6,5,5,4,4,3,3,3,2,2,2,1,1,1,0"
		Envelope Type="Pitch" Length="20" Loop="8" Values="0,0,0,0,0,0,0,0,0,1,2,3,2,1,0,-1,-2,-3,-2,-1"
	Instrument Name="Kap lead" Color="f6a4ff"
		Envelope Type="Volume" Length="1" Values="10"
		Envelope Type="Pitch" Length="14" Loop="4" Values="0,0,0,0,0,0,1,0,0,0,-1,0,0,0"
		Envelope Type="DutyCycle" Length="3" Values="0,1,2"
	Instrument Name="kick" Color="a657d6"
		Envelope Type="Volume" Length="6" Values="13,9,5,2,1,0"
		Envelope Type="Arpeggio" Length="2" Values="9,15"
	Instrument Name="long piano" Color="ff7cb6"
		Envelope Type="Volume" Length="17" Values="14,14,14,13,13,12,12,11,11,10,9,9,8,7,6,5,3"
	Instrument Name="lots of clap" Color="f6a4ff"
		Envelope Type="Volume" Length="3" Loop="0" Values="15,13,11"
		Envelope Type="Arpeggio" Length="3" Loop="0" Values="-4,1,0"
	Instrument Name="loud blank string" Color="ff9ece"
		Envelope Type="Volume" Length="29" Loop="11" Release="12" Values="6,8,10,11,12,12,12,12,12,12,11,11,10,10,9,9,8,8,7,7,6,6,5,5,4,3,2,1,0"
	Instrument Name="menu acc" Color="5dd2ff"
		Envelope Type="Volume" Length="28" Values="8,8,7,6,6,5,5,4,4,3,3,3,2,2,2,2,2,2,2,1,1,1,1,1,1,1,1,0"
	Instrument Name="nc wub1" Color="ffdc3c"
		Envelope Type="Arpeggio" Length="2" Loop="0" Values="0,12"
		Envelope Type="DutyCycle" Length="3" Values="2,1,1"
	Instrument Name="nc wub2" Color="6ab96e"
		Envelope Type="DutyCycle" Length="3" Loop="0" Values="0,0,2"
	Instrument Name="nc_click" Color="ff6b6b"
		Envelope Type="Volume" Length="3" Values="15,7,0"
		Envelope Type="Arpeggio" Length="2" Values="0,9"
	Instrument Name="octave arp" Color="b59184"
		Envelope Type="Volume" Length="3" Values="9,7,5"
		Envelope Type="Arpeggio" Length="4" Loop="0" Values="0,0,12,12"
		Envelope Type="DutyCycle" Length="1" Values="2"
	Instrument Name="octave arp [ no duty ]" Color="b59184"
		Envelope Type="Volume" Length="3" Values="9,7,5"
		Envelope Type="Arpeggio" Length="4" Loop="0" Values="0,0,12,12"
	Instrument Name="octave jumping echo" Color="74ca78"
		Envelope Type="Volume" Length="19" Values="11,7,5,4,3,2,2,1,1,0,2,2,1,1,1,1,1,1,0"
		Envelope Type="Arpeggio" Length="4" Loop="0" Values="-12,0,12,24"
	Instrument Name="pluck1" Color="ff8d5a"
		Envelope Type="Volume" Length="17" Values="14,14,14,13,13,12,12,11,11,10,9,9,8,7,6,5,3"
		Envelope Type="Arpeggio" Length="8" Values="12,0,0,0,0,0,0,0"
	Instrument Name="polargeist bass" Color="7b8df1"
		Envelope Type="Volume" Length="6" Values="15,13,11,7,7,10"
		Envelope Type="DutyCycle" Length="4" Values="3,2,2,1"
	Instrument Name="polargeist tri pluck" Color="ffa83c"
		Envelope Type="Volume" Length="6" Values="15,0,0,0,15,0"
	Instrument Name="quiet bass" Color="b8ef7e"
		Envelope Type="Volume" Length="3" Values="9,7,5"
	Instrument Name="rel hats" Color="62ffff"
		Envelope Type="Volume" Length="16" Values="8,6,5,5,4,4,3,3,3,2,2,2,1,1,1,0"
		Envelope Type="Arpeggio" Length="2" Values="-3,0"
	Instrument Name="sample" Color="bdffc0"
		Envelope Type="Volume" Length="8" Values="9,8,7,6,6,5,5,4"
		Envelope Type="DutyCycle" Length="1" Values="2"
	Instrument Name="shift string" Color="a4db74"
		Envelope Type="Volume" Length="38" Loop="11" Release="12" Values="4,5,6,6,6,6,6,6,6,6,6,5,5,5,5,5,5,4,4,4,4,4,4,4,4,3,3,3,3,3,3,2,2,2,1,1,1,0"
		Envelope Type="DutyCycle" Length="4" Loop="0" Values="1,2,1,0"
	Instrument Name="shift string lite" Color="3eb3f9"
		Envelope Type="Volume" Length="41" Loop="11" Release="12" Values="5,6,7,7,7,7,7,7,7,7,7,6,6,6,6,6,6,5,5,5,5,5,5,5,5,4,4,4,4,4,4,3,3,3,2,2,2,1,1,1,0"
		Envelope Type="DutyCycle" Length="5" Loop="0" Values="1,0,0,1,0"
	Instrument Name="snare" Color="ff7f51"
		Envelope Type="Volume" Length="11" Values="13,11,8,6,5,4,3,2,1,1,0"
		Envelope Type="Arpeggio" Length="2" Values="6,12"
		Envelope Type="DutyCycle" Length="2" Values="1,0"
	Instrument Name="stepdown" Color="3fe5ff"
		Envelope Type="Arpeggio" Length="3" Values="24,12,0"
	Instrument Name="tight noise kick layer" Color="62e2d6"
		Envelope Type="Volume" Length="4" Values="15,0,1,0"
	Instrument Name="tight triangle kick" Color="8163dc"
		Envelope Type="Volume" Length="5" Values="15,15,15,15,0"
		Envelope Type="Arpeggio" Length="4" Values="26,16,14,4"
	Instrument Name="tight triangle snare" Color="8a706a"
		Envelope Type="Volume" Length="5" Values="15,15,15,15,0"
		Envelope Type="Arpeggio" Length="4" Values="35,34,33,32"
	Instrument Name="tiny piano" Color="ff6b6b"
		Envelope Type="Volume" Length="15" Values="15,15,13,13,11,11,9,9,7,7,4,4,1,1,0"
	Instrument Name="tom" Color="51a1fc"
		Envelope Type="Pitch" Length="2" Loop="1" Relative="True" Values="0,21"
	Instrument Name="triangle drums" Color="a376f3"
		Envelope Type="Volume" Length="8" Values="9,8,7,6,6,5,5,4"
		Envelope Type="Pitch" Length="2" Loop="1" Relative="True" Values="-1,49"
	Instrument Name="triangle pluck" Color="ffff71"
		Envelope Type="Volume" Length="2" Values="15,0"
	Instrument Name="triangle pluck 2" Color="6ab96e"
		Envelope Type="Volume" Length="3" Values="15,15,0"
	Instrument Name="triangle pluck 3" Color="ffa83c"
		Envelope Type="Volume" Length="4" Values="15,15,15,0"
	Instrument Name="triangle pluck 4" Color="3cb5a7"
		Envelope Type="Volume" Length="5" Values="15,15,15,15,0"
	Instrument Name="xstep wub" Color="ffffb2"
		Envelope Type="Volume" Length="7" Values="3,7,8,8,10,8,0"
		Envelope Type="DutyCycle" Length="3" Values="1,2,3"
	Arpeggio Name="0,1,6,12" Color="ffafaf" Length="4" Loop="0" Values="0,1,6,12"
	Arpeggio Name="0,2,7,10,14" Color="fffc69" Length="5" Loop="0" Values="0,2,7,10,14"
	Arpeggio Name="0,2,7,12" Color="eaffbd" Length="4" Loop="0" Values="0,2,7,12"
	Arpeggio Name="0,3" Color="88eb8c" Length="3" Loop="0" Values="0,0,3"
	Arpeggio Name="0,3,0" Color="ffcb3c" Length="3" Loop="0" Values="0,3,0"
	Arpeggio Name="0,3,7" Color="ffafaf" Length="3" Loop="0" Values="0,3,7"
	Arpeggio Name="0,3,8" Color="ffff8b" Length="3" Loop="0" Values="0,3,8"
	Arpeggio Name="0,4,7" Color="a2f7a6" Length="3" Loop="0" Values="0,4,7"
	Arpeggio Name="0,4,9" Color="d863ec" Length="3" Loop="0" Values="0,4,9"
	Arpeggio Name="0,4,12" Color="ffff94" Length="3" Loop="0" Values="0,4,12"
	Arpeggio Name="0,5" Color="ff8f8c" Length="3" Loop="0" Values="0,0,5"
	Arpeggio Name="0,5,9,12" Color="3cf8ff" Length="4" Loop="0" Values="0,5,9,12"
	Arpeggio Name="0,5,11" Color="a4db74" Length="3" Loop="0" Values="0,5,11"
	Arpeggio Name="0,5,12" Color="3cd2c4" Length="3" Loop="0" Values="0,5,12"
	Arpeggio Name="0,5,15" Color="ddc4bb" Length="3" Loop="0" Values="0,5,15"
	Arpeggio Name="Arp 0C" Color="3cb5a7" Length="3" Loop="0" Values="0,0,12"
	Arpeggio Name="Arp 03" Color="88eb8c" Length="3" Loop="0" Values="0,0,3"
	Arpeggio Name="Arp 3C" Color="a657d6" Length="3" Loop="0" Values="0,3,12"
	Arpeggio Name="Arp 4C" Color="ffff94" Length="3" Loop="0" Values="0,4,12"
	Arpeggio Name="Arp 5A" Color="d1b1ff" Length="3" Loop="0" Values="0,5,10"
	Arpeggio Name="Arp 5C" Color="3cd2c4" Length="3" Loop="0" Values="0,5,12"
	Arpeggio Name="Arp 5F" Color="ddc4bb" Length="3" Loop="0" Values="0,5,15"
	Arpeggio Name="Arp 05" Color="ff8f8c" Length="3" Loop="0" Values="0,0,5"
	Arpeggio Name="Arp 06" Color="ffdc3c" Length="3" Loop="0" Values="0,0,6"
	Arpeggio Name="Arp 7A" Color="3cbfcb" Length="3" Loop="0" Values="0,7,10"
	Arpeggio Name="Arp 7B" Color="5dd2ff" Length="3" Loop="0" Values="0,7,11"
	Arpeggio Name="Arp 07" Color="b5c2ff" Length="3" Loop="0" Values="0,0,7"
	Arpeggio Name="Arp 7C" Color="ebf067" Length="3" Loop="0" Values="0,7,12"
	Arpeggio Name="Arp 8C" Color="ff935e" Length="3" Loop="0" Values="0,8,12"
	Arpeggio Name="Arp 11" Color="ff6b6b" Length="3" Loop="0" Values="0,1,1"
	Arpeggio Name="Arp 30" Color="ffcb3c" Length="3" Loop="0" Values="0,3,0"
	Arpeggio Name="Arp 33" Color="fffc69" Length="3" Loop="0" Values="0,3,3"
	Arpeggio Name="Arp 35" Color="eaffbd" Length="3" Loop="0" Values="0,3,5"
	Arpeggio Name="Arp 37" Color="ffafaf" Length="3" Loop="0" Values="0,3,7"
	Arpeggio Name="Arp 38" Color="ffff8b" Length="3" Loop="0" Values="0,3,8"
	Arpeggio Name="Arp 39" Color="65f2ff" Length="3" Loop="0" Values="0,3,9"
	Arpeggio Name="Arp 40" Color="ffa83c" Length="3" Loop="0" Values="0,4,0"
	Arpeggio Name="Arp 44" Color="7585e7" Length="3" Loop="0" Values="0,4,4"
	Arpeggio Name="Arp 47" Color="a2f7a6" Length="3" Loop="0" Values="0,4,7"
	Arpeggio Name="Arp 48" Color="ff8655" Length="3" Loop="0" Values="0,4,8"
	Arpeggio Name="Arp 49" Color="d863ec" Length="3" Loop="0" Values="0,4,9"
	Arpeggio Name="Arp 50" Color="65f2ff" Length="3" Loop="0" Values="0,5,0"
	Arpeggio Name="Arp 53" Color="3ca598" Length="3" Loop="0" Values="0,5,3"
	Arpeggio Name="Arp 55" Color="ff6464" Length="3" Loop="0" Values="0,5,5"
	Arpeggio Name="Arp 58" Color="eaffbd" Length="3" Loop="0" Values="0,5,8"
	Arpeggio Name="Arp 59" Color="5dd2ff" Length="3" Loop="0" Values="0,5,9"
	Arpeggio Name="Arp 70" Color="e95093" Length="3" Loop="0" Values="0,7,0"
	Arpeggio Name="Arp 72" Color="89ffff" Length="3" Loop="0" Values="0,7,2"
	Arpeggio Name="Arp 74" Color="ba93fe" Length="3" Loop="0" Values="0,7,4"
	Arpeggio Name="Arp 75" Color="c9aa9f" Length="3" Loop="0" Values="0,7,5"
	Arpeggio Name="Arp 77" Color="a4db74" Length="3" Loop="0" Values="0,7,7"
	Arpeggio Name="Arp 3712(1)" Color="ff935e" Length="12" Loop="8" Values="0,0,3,3,7,7,12,12,0,3,7,12"
	Arpeggio Name="Arp 3719" Color="3ca598" Length="4" Loop="0" Values="0,3,7,19"
	Arpeggio Name="Arp 4719" Color="fffc69" Length="4" Loop="0" Values="0,4,7,19"
	Arpeggio Name="Arp 4912" Color="b5c2ff" Length="4" Loop="0" Values="0,4,9,12"
	Arpeggio Name="Arp 5820" Color="a9887d" Length="4" Loop="0" Values="0,5,8,20"
	Arpeggio Name="Arp 371215" Color="ff579c" Length="5" Loop="0" Values="0,3,7,12,15"
	Arpeggio Name="Arp C0" Color="a9887d" Length="3" Loop="0" Values="0,12,0"
	Arpeggio Name="Arp CC" Color="6471cf" Length="3" Loop="0" Values="0,12,12"
	Arpeggio Name="Arp CE" Color="ffc83c" Length="4" Loop="0" Values="0,5,8,12"
	Arpeggio Name="Arp CF" Color="ffc6a1" Length="4" Loop="0" Values="0,3,8,12"
	Arpeggio Name="Arp CF 2" Color="ffb83c" Length="3" Loop="0" Values="0,12,15"
	Arpeggio Name="arp D4" Color="ffff64" Length="2" Loop="0" Values="0,8"
	Arpeggio Name="Arp D0" Color="3cf8ff" Length="4" Loop="0" Values="0,4,9,12"
	Arpeggio Name="Arp D1" Color="f6a4ff" Length="3" Loop="0" Values="0,5,9"
	Arpeggio Name="Arp D2" Color="3cf8ff" Length="3" Loop="0" Values="0,5,9"
	Arpeggio Name="Arp D3" Color="3cf8ff" Length="3" Loop="0" Values="0,6,9"
	Arpeggio Name="Arpeggio 1" Color="3cf8ff" Length="3" Loop="0" Values="0,4,9"
	Arpeggio Name="Arpeggio 2" Color="7fdc83" Length="2" Loop="0" Values="0,4"
	Arpeggio Name="Arpeggio 3" Color="3cf8ff" Length="3" Loop="0" Values="0,3,9"
	Arpeggio Name="Arpeggio 4" Color="3cf8ff" Length="3" Loop="0" Values="0,3,8"
	Arpeggio Name="Arpeggio 5" Color="ffc83c" Length="3" Loop="0" Values="0,5,8"
	Arpeggio Name="Arpeggio 6" Color="3cf8ff" Length="3" Loop="0" Values="0,3,12"
	Arpeggio Name="Arpeggio 7" Color="3cf8ff" Length="3" Loop="0" Values="0,4,12"
	Arpeggio Name="Arpeggio B58" Color="ff579c" Length="6" Loop="0" Values="0,0,5,5,8,8"
	Arpeggio Name="Maj+1oc" Color="a4db74" Length="4" Loop="0" Values="0,4,7,12"
	Arpeggio Name="Min+1oc 1" Color="a4db74" Length="4" Loop="0" Values="0,3,7,12"
	Arpeggio Name="Oct amp" Color="3cb5a7" Length="3" Loop="0" Values="0,0,12"
	Song Name="rainbow_tylenol" Color="ffff64" Folder="Custom music used in the game" Length="32" LoopPoint="-1" PatternLength="128" BeatLength="4" FamiTrackerTempo="180" FamiTrackerSpeed="2"
		PatternCustomSettings Time="0" Length="16"
		PatternCustomSettings Time="31" Length="32"
		Channel Type="Square1"
			Pattern Name="00" Color="91c76b"
				Note Time="0" Value="D2" Duration="2" Instrument="blank" Volume="15"
				Note Time="2" Value="D#2" Duration="2" Instrument="blank"
				Note Time="4" Value="G2" Duration="2" Instrument="blank"
				Note Time="6" Value="C3" Duration="2" Instrument="blank"
				Note Time="8" Value="D3" Duration="2" Instrument="blank"
				Note Time="10" Value="D#3" Duration="2" Instrument="blank"
				Note Time="12" Value="G3" Duration="2" Instrument="blank"
				Note Time="14" Value="C4" Duration="2" Instrument="blank"
			Pattern Name="01" Color="8bffff"
				Note Time="0" Value="D#4" Duration="12" Instrument="blank"
				Note Time="12" Value="C4" Duration="4" Instrument="blank instant decay"
				Note Time="16" Value="D#4" Duration="8" Instrument="blank"
				Note Time="24" Value="C4" Duration="8" Instrument="blank"
				Note Time="32" Value="D4" Duration="4" Instrument="blank instant decay"
				Note Time="36" Value="D#4" Duration="4" Instrument="blank instant decay"
				Note Time="40" Value="D4" Duration="4" Instrument="blank instant decay"
				Note Time="44" Value="A#3" Duration="4" Instrument="blank instant decay"
				Note Time="48" Value="G3" Duration="8" Instrument="blank"
				Note Time="56" Value="A#3" Duration="8" Instrument="blank"
				Note Time="64" Value="C4" Duration="12" Instrument="blank"
				Note Time="76" Value="G#3" Duration="4" Instrument="blank instant decay"
				Note Time="80" Value="C4" Duration="8" Instrument="blank"
				Note Time="88" Value="D#4" Duration="8" Instrument="blank"
				Note Time="96" Value="D4" Duration="4" Instrument="blank instant decay"
				Note Time="100" Value="D#4" Duration="4" Instrument="blank instant decay"
				Note Time="104" Value="D4" Duration="4" Instrument="blank instant decay"
				Note Time="108" Value="C4" Duration="4" Instrument="blank instant decay"
				Note Time="112" Value="A#3" Duration="8" Instrument="blank"
				Note Time="120" Value="D4" Duration="8" Instrument="blank"
			Pattern Name="02" Color="e783f8"
				Note Time="0" Value="D#4" Duration="12" Instrument="blank"
				Note Time="12" Value="G3" Duration="4" Instrument="blank instant decay"
				Note Time="16" Value="D#4" Duration="8" Instrument="blank"
				Note Time="24" Value="C4" Duration="8" Instrument="blank"
				Note Time="32" Value="F4" Duration="12" Instrument="blank"
				Note Time="44" Value="A#3" Duration="4" Instrument="blank instant decay"
				Note Time="48" Value="F4" Duration="8" Instrument="blank"
				Note Time="56" Value="G4" Duration="8" Instrument="blank"
				Note Time="64" Value="A#3" Duration="3" Instrument="electroman lead" Arpeggio="Arp 5A"
				Note Time="68" Value="A#3" Duration="3" Instrument="electroman lead" Arpeggio="Arp 5A"
				Note Time="72" Value="A#3" Duration="3" Instrument="electroman lead" Arpeggio="Arp 5A"
				Note Time="76" Value="C4" Duration="11" Instrument="electroman lead" Arpeggio="Arp 38"
				Note Time="88" Value="C4" Duration="7" Instrument="electroman lead" Arpeggio="Arp 38"
				Note Time="96" Value="D4" Duration="7" Instrument="electroman lead" Arpeggio="Arp 59"
				Note Time="104" Value="D4" Duration="3" Instrument="electroman lead" Arpeggio="Arp 59"
				Note Time="108" Value="D#4" Duration="7" Instrument="electroman lead" Arpeggio="Arp 48"
				Note Time="116" Value="D#4" Duration="3" Instrument="electroman lead" Arpeggio="Arp 48"
				Note Time="120" Value="D4" Duration="7" Instrument="electroman lead" Arpeggio="Arp 59"
			Pattern Name="03" Color="ffac7f"
			Pattern Name="04" Color="ffff75"
				Note Time="0" Value="C2" Duration="7" Instrument="blank" Volume="3"
				Note Time="8" Value="C2" Duration="4" Instrument="blank instant decay"
				Note Time="12" Value="C3" Duration="7" Instrument="blank"
				Note Time="20" Value="C3" Duration="4" Instrument="blank instant decay"
				Note Time="24" Value="G2" Duration="7" Instrument="blank"
				Note Time="32" Value="C2" Duration="7" Instrument="blank"
				Note Time="40" Value="C2" Duration="4" Instrument="blank instant decay"
				Note Time="44" Value="C3" Duration="4" Instrument="blank instant decay"
				Note Time="48" Value="A#2" Duration="8" Instrument="blank"
				Note Time="56" Value="G2" Duration="8" Instrument="blank"
				Note Time="64" Value="C2" Duration="7" Instrument="blank"
				Note Time="93" Volume="15"
			Pattern Name="05" Color="3ce8fd"
				Note Time="0" Value="D#4" Duration="12" Instrument="blank"
				Note Time="12" Value="G3" Duration="4" Instrument="blank instant decay"
				Note Time="16" Value="D#4" Duration="8" Instrument="blank"
				Note Time="24" Value="C4" Duration="8" Instrument="blank"
				Note Time="32" Value="F4" Duration="12" Instrument="blank"
				Note Time="44" Value="A#3" Duration="4" Instrument="blank instant decay"
				Note Time="48" Value="F4" Duration="8" Instrument="blank"
				Note Time="56" Value="G4" Duration="7" Instrument="blank"
				Note Time="64" Value="G4" Duration="4" Instrument="blank instant decay"
				Note Time="68" Value="G#4" Duration="4" Instrument="blank instant decay"
				Note Time="72" Value="G4" Duration="4" Instrument="blank instant decay"
				Note Time="76" Value="F4" Duration="4" Instrument="blank instant decay"
				Note Time="80" Value="D#4" Duration="4" Instrument="blank instant decay"
				Note Time="84" Value="F4" Duration="4" Instrument="blank instant decay"
				Note Time="88" Value="G4" Duration="4" Instrument="blank instant decay"
				Note Time="92" Value="D#4" Duration="4" Instrument="blank instant decay"
				Note Time="96" Value="D4" Duration="4" Instrument="blank instant decay"
				Note Time="100" Value="C4" Duration="4" Instrument="blank instant decay"
				Note Time="104" Value="B3" Duration="4" Instrument="blank instant decay"
				Note Time="108" Value="C4" Duration="4" Instrument="blank instant decay"
				Note Time="112" Value="D4" Duration="7" Instrument="blank"
				Note Time="120" Value="G3" Duration="7" Instrument="blank"
			Pattern Name="06" Color="8d69e4"
				Note Time="0" Value="G#2" Duration="4" Instrument="electroman lead"
				Note Time="4" Value="D#2" Duration="4" Instrument="electroman lead"
				Note Time="8" Value="G#2" Duration="4" Instrument="electroman lead"
				Note Time="12" Value="C3" Duration="4" Instrument="electroman lead"
				Note Time="16" Value="D#3" Duration="4" Instrument="electroman lead"
				Note Time="20" Value="C3" Duration="4" Instrument="electroman lead"
				Note Time="24" Value="G#2" Duration="4" Instrument="electroman lead"
				Note Time="28" Value="D#3" Duration="4" Instrument="electroman lead"
				Note Time="32" Value="G#3" Duration="4" Instrument="electroman lead"
				Note Time="36" Value="D#3" Duration="4" Instrument="electroman lead"
				Note Time="40" Value="C3" Duration="4" Instrument="electroman lead"
				Note Time="44" Value="G#3" Duration="4" Instrument="electroman lead"
				Note Time="48" Value="C4" Duration="16" Instrument="electroman lead"
				Note Time="64" Value="A#3" Duration="4" Instrument="electroman lead"
				Note Time="68" Value="G3" Duration="4" Instrument="electroman lead"
				Note Time="72" Value="D#3" Duration="4" Instrument="electroman lead"
				Note Time="76" Value="D#2" Duration="4" Instrument="electroman lead"
				Note Time="80" Value="A#2" Duration="4" Instrument="electroman lead"
				Note Time="84" Value="D#3" Duration="4" Instrument="electroman lead"
				Note Time="88" Value="C4" Duration="4" Instrument="electroman lead"
				Note Time="92" Value="A#3" Duration="8" Instrument="electroman lead"
				Note Time="100" Value="D#2" Duration="4" Instrument="electroman lead"
				Note Time="104" Value="G#2" Duration="4" Instrument="electroman lead"
				Note Time="108" Value="D#2" Duration="4" Instrument="electroman lead"
				Note Time="112" Value="D#3" Duration="4" Instrument="electroman lead"
				Note Time="116" Value="A#3" Duration="4" Instrument="electroman lead"
				Note Time="120" Value="D#4" Duration="4" Instrument="electroman lead"
				Note Time="124" Value="F4" Duration="12" Instrument="electroman lead"
			Pattern Name="07" Color="997c73"
				Note Time="8" Value="D4" Duration="8" Instrument="electroman lead"
				Note Time="16" Value="A#3" Duration="4" Instrument="electroman lead"
				Note Time="20" Value="F3" Duration="4" Instrument="electroman lead"
				Note Time="24" Value="C4" Duration="4" Instrument="electroman lead"
				Note Time="28" Value="D4" Duration="8" Instrument="electroman lead"
				Note Time="36" Value="A#3" Duration="4" Instrument="electroman lead"
				Note Time="40" Value="F3" Duration="4" Instrument="electroman lead"
				Note Time="44" Value="A#3" Duration="4" Instrument="electroman lead"
				Note Time="48" Value="C4" Duration="8" Instrument="electroman lead"
				Note Time="56" Value="D4" Duration="8" Instrument="electroman lead"
				Note Time="64" Value="E4" Duration="4" Instrument="electroman lead"
				Note Time="68" Value="F4" Duration="4" Instrument="electroman lead"
				Note Time="72" Value="E4" Duration="4" Instrument="electroman lead"
				Note Time="76" Value="C4" Duration="8" Instrument="electroman lead"
				Note Time="84" Value="G3" Duration="4" Instrument="electroman lead"
				Note Time="88" Value="C4" Duration="8" Instrument="electroman lead"
				Note Time="96" Value="F3" Duration="4" Instrument="electroman lead"
				Note Time="100" Value="G3" Duration="4" Instrument="electroman lead"
				Note Time="104" Value="F3" Duration="4" Instrument="electroman lead"
				Note Time="108" Value="E3" Duration="8" Instrument="electroman lead"
				Note Time="116" Value="C3" Duration="4" Instrument="electroman lead"
				Note Time="120" Value="E3" Duration="8" Instrument="electroman lead"
			Pattern Name="08" Color="ffe461"
				Note Time="2" Value="C3" Duration="2" Instrument="blank instant decay"
				Note Time="4" Value="G3" Duration="2" Instrument="blank instant decay"
				Note Time="6" Value="A#3" Duration="2" Instrument="blank instant decay"
				Note Time="8" Value="C4" Duration="8" Instrument="blank"
				Note Time="16" Value="A#3" Duration="8" Instrument="blank"
				Note Time="24" Value="G3" Duration="8" Instrument="blank"
				Note Time="32" Value="F#3" Duration="4" Instrument="blank instant decay"
				Note Time="36" Value="F3" Duration="4" Instrument="blank instant decay"
				Note Time="40" Value="D#3" Duration="4" Instrument="blank instant decay"
				Note Time="44" Value="C3" Duration="8" Instrument="blank"
				Note Time="52" Value="A#2" Duration="4" Instrument="blank instant decay"
				Note Time="56" Value="C3" Duration="11" Instrument="blank"
				Note Time="68" Value="C2" Duration="2" Instrument="blank instant decay"
				Note Time="70" Value="G2" Duration="2" Instrument="blank instant decay"
				Note Time="72" Value="C3" Duration="2" Instrument="blank instant decay"
				Note Time="74" Value="G3" Duration="2" Instrument="blank instant decay"
				Note Time="76" Value="C4" Duration="4" Instrument="blank instant decay"
				Note Time="80" Value="D#4" Duration="4" Instrument="blank instant decay"
				Note Time="84" Value="C4" Duration="4" Instrument="blank instant decay"
				Note Time="88" Value="F4" Duration="4" Instrument="blank instant decay"
				Note Time="92" Value="F#4" Duration="8" Instrument="blank"
				Note Time="100" Value="C4" Duration="4" Instrument="blank instant decay"
				Note Time="104" Value="F#4" Duration="4" Instrument="blank instant decay"
				Note Time="108" Value="C4" Duration="4" Instrument="blank instant decay"
				Note Time="112" Value="F4" Duration="4" Instrument="blank instant decay"
				Note Time="116" Value="D#4" Duration="4" Instrument="blank instant decay"
				Note Time="120" Value="A#3" Duration="4" Instrument="blank instant decay"
				Note Time="124" Value="C4" Duration="12" Instrument="blank"
			Pattern Name="09" Color="89f2e8"
				Note Time="8" Value="C5" Duration="8" Instrument="blank"
				Note Time="16" Value="A#4" Duration="8" Instrument="blank"
				Note Time="24" Value="G4" Duration="8" Instrument="blank"
				Note Time="32" Value="F#4" Duration="4" Instrument="blank instant decay"
				Note Time="36" Value="F4" Duration="4" Instrument="blank instant decay"
				Note Time="40" Value="F#4" Duration="4" Instrument="blank instant decay"
				Note Time="44" Value="G4" Duration="4" Instrument="blank instant decay"
				Note Time="48" Value="F#4" Duration="4" Instrument="blank instant decay"
				Note Time="52" Value="F4" Duration="4" Instrument="blank instant decay"
				Note Time="56" Value="D#4" Duration="4" Instrument="blank instant decay"
				Note Time="60" Value="C4" Duration="7" Instrument="blank"
				Note Time="68" Value="C4" Duration="4" Instrument="blank instant decay"
				Note Time="72" Value="D#4" Duration="4" Instrument="blank instant decay"
				Note Time="76" Value="F4" Duration="4" Instrument="blank instant decay"
				Note Time="80" Value="C4" Duration="4" Instrument="blank instant decay"
				Note Time="84" Value="F4" Duration="4" Instrument="blank instant decay"
				Note Time="88" Value="F#4" Duration="4" Instrument="blank instant decay"
				Note Time="92" Value="C4" Duration="4" Instrument="blank instant decay"
				Note Time="96" Value="F#4" Duration="4" Instrument="blank instant decay"
				Note Time="100" Value="G4" Duration="4" Instrument="blank instant decay"
				Note Time="104" Value="C4" Duration="4" Instrument="blank instant decay"
				Note Time="108" Value="A#4" Duration="4" Instrument="blank instant decay"
				Note Time="112" Value="A#4" Duration="2" Instrument="blank instant decay"
				Note Time="114" Value="C5" Duration="6" Instrument="blank instant decay"
				Note Time="120" Value="A#4" Duration="2" Instrument="blank instant decay"
				Note Time="122" Value="C5" Duration="6" Instrument="blank instant decay"
			Pattern Name="0A" Color="98a7fc"
				Note Time="0" Value="D#5" Duration="2" Instrument="blank instant decay"
				Note Time="2" Value="C5" Duration="3" Instrument="blank instant decay" NoteDelay="2"
				Note Time="5" Value="G4" Duration="3" Instrument="blank instant decay" NoteDelay="1"
				Note Time="8" Value="D#5" Duration="2" Instrument="blank instant decay"
				Note Time="10" Value="C5" Duration="3" Instrument="blank instant decay" NoteDelay="2"
				Note Time="13" Value="G4" Duration="3" Instrument="blank instant decay" NoteDelay="1"
				Note Time="16" Value="D#5" Duration="2" Instrument="blank instant decay"
				Note Time="18" Value="C5" Duration="3" Instrument="blank instant decay" NoteDelay="2"
				Note Time="21" Value="G4" Duration="3" Instrument="blank instant decay" NoteDelay="1"
				Note Time="24" Value="D#5" Duration="2" Instrument="blank instant decay"
				Note Time="26" Value="C5" Duration="3" Instrument="blank instant decay" NoteDelay="2"
				Note Time="29" Value="G4" Duration="3" Instrument="blank instant decay" NoteDelay="1"
				Note Time="32" Value="D5" Duration="2" Instrument="blank instant decay"
				Note Time="34" Value="A#4" Duration="3" Instrument="blank instant decay" NoteDelay="2"
				Note Time="37" Value="F4" Duration="3" Instrument="blank instant decay" NoteDelay="1"
				Note Time="40" Value="D5" Duration="2" Instrument="blank instant decay"
				Note Time="42" Value="A#4" Duration="3" Instrument="blank instant decay" NoteDelay="2"
				Note Time="45" Value="F4" Duration="3" Instrument="blank instant decay" NoteDelay="1"
				Note Time="48" Value="D5" Duration="2" Instrument="blank instant decay"
				Note Time="50" Value="A#4" Duration="3" Instrument="blank instant decay" NoteDelay="2"
				Note Time="53" Value="F4" Duration="3" Instrument="blank instant decay" NoteDelay="1"
				Note Time="56" Value="D5" Duration="2" Instrument="blank instant decay"
				Note Time="58" Value="A#4" Duration="3" Instrument="blank instant decay" NoteDelay="2"
				Note Time="61" Value="F4" Duration="7" Instrument="blank instant decay" NoteDelay="1"
				Note Time="68" Value="D#4" Duration="4" Instrument="blank instant decay"
				Note Time="72" Value="F4" Duration="4" Instrument="blank instant decay"
				Note Time="76" Value="F#4" Duration="8" Instrument="blank instant decay"
				Note Time="84" Value="F4" Duration="4" Instrument="blank instant decay"
				Note Time="88" Value="F#4" Duration="4" Instrument="blank instant decay"
				Note Time="92" Value="A#4" Duration="4" Instrument="blank instant decay"
				Note Time="96" Value="C5" Duration="2" Instrument="blank instant decay"
				Note Time="98" Value="A#4" Duration="3" Instrument="blank instant decay" NoteDelay="2"
				Note Time="101" Value="F#4" Duration="3" Instrument="blank instant decay" NoteDelay="1"
				Note Time="104" Value="F4" Duration="2" Instrument="blank instant decay"
				Note Time="106" Value="F#4" Duration="3" Instrument="blank instant decay" NoteDelay="2"
				Note Time="109" Value="F4" Duration="3" Instrument="blank instant decay" NoteDelay="1"
				Note Time="112" Value="D#4" Duration="2" Instrument="blank instant decay"
				Note Time="114" Value="F#4" Duration="3" Instrument="blank instant decay" NoteDelay="2"
				Note Time="117" Value="D#4" Duration="3" Instrument="blank instant decay" NoteDelay="1"
				Note Time="120" Value="A#3" Duration="2" Instrument="blank instant decay"
				Note Time="122" Value="B3" Duration="3" Instrument="blank instant decay" NoteDelay="2"
				Note Time="125" Value="C4" Duration="11" Instrument="blank instant decay" NoteDelay="1"
			Pattern Name="0B" Color="ff7f72"
				Note Time="8" Value="D#4" Duration="4" Instrument="blank instant decay"
				Note Time="12" Value="C4" Duration="4" Instrument="blank instant decay"
				Note Time="16" Value="F4" Duration="4" Instrument="blank instant decay"
				Note Time="20" Value="F#4" Duration="4" Instrument="blank instant decay"
				Note Time="24" Value="C4" Duration="4" Instrument="blank instant decay"
				Note Time="28" Value="F4" Duration="4" Instrument="blank instant decay"
				Note Time="32" Value="D#4" Duration="2" Instrument="blank instant decay"
				Note Time="34" Value="A#3" Duration="3" Instrument="blank instant decay" NoteDelay="2"
				Note Time="37" Value="B3" Duration="3" Instrument="blank instant decay" NoteDelay="1"
				Note Time="40" Value="C4" Duration="2" Instrument="blank instant decay"
				Note Time="42" Value="D#4" Duration="3" Instrument="blank instant decay" NoteDelay="2"
				Note Time="45" Value="F4" Duration="3" Instrument="blank instant decay" NoteDelay="1"
				Note Time="48" Value="C4" Duration="2" Instrument="blank instant decay"
				Note Time="50" Value="D#4" Duration="3" Instrument="blank instant decay" NoteDelay="2"
				Note Time="53" Value="F4" Duration="3" Instrument="blank instant decay" NoteDelay="1"
				Note Time="56" Value="G4" Duration="2" Instrument="blank instant decay"
				Note Time="58" Value="F4" Duration="3" Instrument="blank instant decay" NoteDelay="2"
				Note Time="61" Value="G4" Duration="3" Instrument="blank instant decay" NoteDelay="1"
				Note Time="64" Value="C4" Duration="2" Instrument="blank instant decay"
				Note Time="66" Value="G4" Duration="2" Instrument="blank instant decay"
				Note Time="68" Value="C5" Duration="2" Instrument="blank instant decay"
				Note Time="70" Value="C4" Duration="2" Instrument="blank instant decay"
				Note Time="72" Value="G4" Duration="2" Instrument="blank instant decay"
				Note Time="74" Value="D5" Duration="2" Instrument="blank instant decay"
				Note Time="76" Value="C4" Duration="2" Instrument="blank instant decay"
				Note Time="78" Value="G4" Duration="2" Instrument="blank instant decay"
				Note Time="80" Value="D#5" Duration="2" Instrument="blank instant decay"
				Note Time="82" Value="C4" Duration="2" Instrument="blank instant decay"
				Note Time="84" Value="G4" Duration="2" Instrument="blank instant decay"
				Note Time="86" Value="C5" Duration="2" Instrument="blank instant decay"
				Note Time="88" Value="C4" Duration="2" Instrument="blank instant decay"
				Note Time="90" Value="G4" Duration="2" Instrument="blank instant decay"
				Note Time="92" Value="D5" Duration="2" Instrument="blank instant decay"
				Note Time="94" Value="B3" Duration="2" Instrument="blank instant decay"
				Note Time="96" Value="G4" Duration="2" Instrument="blank instant decay"
				Note Time="98" Value="D#5" Duration="2" Instrument="blank instant decay"
				Note Time="100" Value="B3" Duration="2" Instrument="blank instant decay"
				Note Time="102" Value="G4" Duration="2" Instrument="blank instant decay"
				Note Time="104" Value="D#5" Duration="2" Instrument="blank instant decay"
				Note Time="106" Value="B3" Duration="2" Instrument="blank instant decay"
				Note Time="108" Value="G4" Duration="2" Instrument="blank instant decay"
				Note Time="110" Value="D5" Duration="2" Instrument="blank instant decay"
				Note Time="112" Value="B3" Duration="2" Instrument="blank instant decay"
				Note Time="114" Value="G4" Duration="2" Instrument="blank instant decay"
				Note Time="116" Value="D#5" Duration="2" Instrument="blank instant decay"
				Note Time="118" Value="B3" Duration="2" Instrument="blank instant decay"
				Note Time="120" Value="G4" Duration="2" Instrument="blank instant decay"
				Note Time="122" Value="D5" Duration="2" Instrument="blank instant decay"
				Note Time="124" Value="B3" Duration="2" Instrument="blank instant decay"
				Note Time="126" Value="G4" Duration="16" Instrument="blank instant decay"
			Pattern Name="0C" Color="fffd43"
				Note Time="14" Value="G4" Duration="2" Instrument="blank instant decay"
				Note Time="16" Value="G#4" Duration="16" Instrument="blank"
				Note Time="32" Value="G4" Duration="12" Instrument="blank"
				Note Time="44" Value="G#4" Duration="2" Instrument="blank instant decay"
				Note Time="46" Value="G4" Duration="2" Instrument="blank instant decay"
				Note Time="48" Value="F4" Duration="16" Instrument="blank"
				Note Time="64" Value="D#4" Duration="4" Instrument="blank instant decay"
				Note Time="68" Value="A#3" Duration="4" Instrument="blank instant decay"
				Note Time="72" Value="G3" Duration="4" Instrument="blank instant decay"
				Note Time="76" Value="D#4" Duration="4" Instrument="blank instant decay"
				Note Time="80" Value="A#3" Duration="4" Instrument="blank instant decay"
				Note Time="84" Value="G3" Duration="4" Instrument="blank instant decay"
				Note Time="88" Value="F4" Duration="4" Instrument="blank instant decay"
				Note Time="92" Value="G4" Duration="8" Instrument="blank"
				Note Time="100" Value="D4" Duration="4" Instrument="blank instant decay"
				Note Time="104" Value="D#4" Duration="8" Instrument="blank"
				Note Time="112" Value="A#3" Duration="8" Instrument="blank"
				Note Time="120" Value="D#4" Duration="5" Instrument="blank"
				Note Time="126" Value="D#4" Duration="2" Instrument="blank instant decay"
			Pattern Name="0D" Color="7fdc83"
				Note Time="0" Value="F4" Duration="16" Instrument="blank"
				Note Time="16" Value="D#4" Duration="12" Instrument="blank"
				Note Time="28" Value="F4" Duration="2" Instrument="blank instant decay"
				Note Time="30" Value="D#4" Duration="2" Instrument="blank instant decay"
				Note Time="32" Value="D4" Duration="16" Instrument="blank"
				Note Time="48" Value="A#3" Duration="16" Instrument="blank"
				Note Time="64" Value="C4" Duration="4" Instrument="blank instant decay"
				Note Time="68" Value="D4" Duration="4" Instrument="blank instant decay"
				Note Time="72" Value="E4" Duration="4" Instrument="blank instant decay"
				Note Time="76" Value="C4" Duration="4" Instrument="blank instant decay"
				Note Time="80" Value="E4" Duration="4" Instrument="blank instant decay"
				Note Time="84" Value="G4" Duration="4" Instrument="blank instant decay"
				Note Time="88" Value="C4" Duration="4" Instrument="blank instant decay"
				Note Time="92" Value="G4" Duration="4" Instrument="blank instant decay"
				Note Time="96" Value="C5" Duration="4" Instrument="blank instant decay"
				Note Time="100" Value="C4" Duration="4" Instrument="blank instant decay"
				Note Time="104" Value="D5" Duration="4" Instrument="blank instant decay"
				Note Time="108" Value="E5" Duration="4" Instrument="blank instant decay"
				Note Time="112" Value="C4" Duration="4" Instrument="blank instant decay"
				Note Time="116" Value="C5" Duration="4" Instrument="blank instant decay"
				Note Time="120" Value="G4" Duration="4" Instrument="blank instant decay"
				Note Time="124" Value="C5" Duration="4" Instrument="blank instant decay"
			Pattern Name="0E" Color="55b2ff"
				Note Time="0" Value="D#5" Duration="4" Instrument="blank instant decay"
				Note Time="4" Value="C5" Duration="4" Instrument="blank instant decay"
				Note Time="8" Value="G#4" Duration="4" Instrument="blank instant decay"
				Note Time="12" Value="C5" Duration="4" Instrument="blank instant decay"
				Note Time="16" Value="G#4" Duration="4" Instrument="blank instant decay"
				Note Time="20" Value="D#4" Duration="4" Instrument="blank instant decay"
				Note Time="24" Value="G#4" Duration="4" Instrument="blank instant decay"
				Note Time="28" Value="D#4" Duration="4" Instrument="blank instant decay"
				Note Time="32" Value="C4" Duration="4" Instrument="blank instant decay"
				Note Time="36" Value="D#4" Duration="4" Instrument="blank instant decay"
				Note Time="40" Value="C4" Duration="4" Instrument="blank instant decay"
				Note Time="44" Value="G#3" Duration="4" Instrument="blank instant decay"
				Note Time="48" Value="D#4" Duration="4" Instrument="blank instant decay"
				Note Time="52" Value="G#4" Duration="4" Instrument="blank instant decay"
				Note Time="56" Value="C5" Duration="4" Instrument="blank instant decay"
				Note Time="60" Value="D#5" Duration="2" Instrument="blank instant decay"
				Note Time="62" Value="D5" Duration="2" Instrument="blank instant decay"
				Note Time="64" Value="D#5" Duration="4" Instrument="blank instant decay"
				Note Time="68" Value="A#4" Duration="4" Instrument="blank instant decay"
				Note Time="72" Value="F4" Duration="4" Instrument="blank instant decay"
				Note Time="76" Value="A#4" Duration="4" Instrument="blank instant decay"
				Note Time="80" Value="F4" Duration="4" Instrument="blank instant decay"
				Note Time="84" Value="D#4" Duration="4" Instrument="blank instant decay"
				Note Time="88" Value="D4" Duration="4" Instrument="blank instant decay"
				Note Time="92" Value="D#4" Duration="4" Instrument="blank instant decay"
				Note Time="96" Value="A#3" Duration="4" Instrument="blank instant decay"
				Note Time="100" Value="F3" Duration="4" Instrument="blank instant decay"
				Note Time="104" Value="D#3" Duration="4" Instrument="blank instant decay"
				Note Time="108" Value="A#3" Duration="4" Instrument="blank instant decay"
				Note Time="112" Value="D#4" Duration="4" Instrument="blank instant decay"
				Note Time="116" Value="A#3" Duration="4" Instrument="blank instant decay"
				Note Time="120" Value="D#4" Duration="4" Instrument="blank instant decay"
				Note Time="124" Value="F4" Duration="4" Instrument="blank instant decay"
			Pattern Name="0F" Color="e95093"
				Note Time="0" Value="A#3" Duration="2" Instrument="blank instant decay"
				Note Time="2" Value="F4" Duration="3" Instrument="blank instant decay" NoteDelay="2"
				Note Time="5" Value="A#4" Duration="3" Instrument="blank instant decay" NoteDelay="1"
				Note Time="8" Value="A#3" Duration="2" Instrument="blank instant decay"
				Note Time="10" Value="F4" Duration="3" Instrument="blank instant decay" NoteDelay="2"
				Note Time="13" Value="A#4" Duration="3" Instrument="blank instant decay" NoteDelay="1"
				Note Time="16" Value="A#3" Duration="2" Instrument="blank instant decay"
				Note Time="18" Value="F4" Duration="3" Instrument="blank instant decay" NoteDelay="2"
				Note Time="21" Value="C5" Duration="3" Instrument="blank instant decay" NoteDelay="1"
				Note Time="24" Value="A#3" Duration="2" Instrument="blank instant decay"
				Note Time="26" Value="F4" Duration="3" Instrument="blank instant decay" NoteDelay="2"
				Note Time="29" Value="C5" Duration="3" Instrument="blank instant decay" NoteDelay="1"
				Note Time="32" Value="A#3" Duration="2" Instrument="blank instant decay"
				Note Time="34" Value="F4" Duration="3" Instrument="blank instant decay" NoteDelay="2"
				Note Time="37" Value="D5" Duration="3" Instrument="blank instant decay" NoteDelay="1"
				Note Time="40" Value="A#3" Duration="2" Instrument="blank instant decay"
				Note Time="42" Value="F4" Duration="3" Instrument="blank instant decay" NoteDelay="2"
				Note Time="45" Value="D5" Duration="3" Instrument="blank instant decay" NoteDelay="1"
				Note Time="48" Value="A#3" Duration="2" Instrument="blank instant decay"
				Note Time="50" Value="F4" Duration="3" Instrument="blank instant decay" NoteDelay="2"
				Note Time="53" Value="F5" Duration="3" Instrument="blank instant decay" NoteDelay="1"
				Note Time="56" Value="F5" Duration="2" Instrument="blank instant decay"
				Note Time="58" Value="A#4" Duration="3" Instrument="blank instant decay" NoteDelay="2"
				Note Time="61" Value="F4" Duration="3" Instrument="blank instant decay" NoteDelay="1"
				Note Time="64" Value="E4" Duration="2" Instrument="blank instant decay"
				Note Time="66" Value="C4" Duration="3" Instrument="blank instant decay" NoteDelay="2"
				Note Time="69" Value="E4" Duration="3" Instrument="blank instant decay" NoteDelay="1"
				Note Time="72" Value="G4" Duration="2" Instrument="blank instant decay"
				Note Time="74" Value="E4" Duration="3" Instrument="blank instant decay" NoteDelay="2"
				Note Time="77" Value="G4" Duration="3" Instrument="blank instant decay" NoteDelay="1"
				Note Time="80" Value="C5" Duration="2" Instrument="blank instant decay"
				Note Time="82" Value="G4" Duration="3" Instrument="blank instant decay" NoteDelay="2"
				Note Time="85" Value="F4" Duration="3" Instrument="blank instant decay" NoteDelay="1"
				Note Time="88" Value="E4" Duration="2" Instrument="blank instant decay"
				Note Time="90" Value="C4" Duration="3" Instrument="blank instant decay" NoteDelay="2"
				Note Time="93" Value="G3" Duration="3" Instrument="blank instant decay" NoteDelay="1"
				Note Time="96" Value="F3" Duration="2" Instrument="blank instant decay"
				Note Time="98" Value="G3" Duration="3" Instrument="blank instant decay" NoteDelay="2"
				Note Time="101" Value="F3" Duration="3" Instrument="blank instant decay" NoteDelay="1"
				Note Time="104" Value="E3" Duration="2" Instrument="blank instant decay"
				Note Time="106" Value="C3" Duration="3" Instrument="blank instant decay" NoteDelay="2"
				Note Time="109" Value="E3" Duration="3" Instrument="blank instant decay" NoteDelay="1"
				Note Time="112" Value="G3" Duration="2" Instrument="blank instant decay"
				Note Time="114" Value="E3" Duration="3" Instrument="blank instant decay" NoteDelay="2"
				Note Time="117" Value="G3" Duration="3" Instrument="blank instant decay" NoteDelay="1"
				Note Time="120" Value="C4" Duration="8" Instrument="blank"
			Pattern Name="10" Color="ffa83c"
			PatternInstance Time="0" Pattern="00"
			PatternInstance Time="1" Pattern="01"
			PatternInstance Time="2" Pattern="02"
			PatternInstance Time="3" Pattern="03"
			PatternInstance Time="4" Pattern="04"
			PatternInstance Time="5" Pattern="01"
			PatternInstance Time="6" Pattern="05"
			PatternInstance Time="7" Pattern="01"
			PatternInstance Time="8" Pattern="05"
			PatternInstance Time="9" Pattern="06"
			PatternInstance Time="10" Pattern="07"
			PatternInstance Time="11" Pattern="06"
			PatternInstance Time="12" Pattern="07"
			PatternInstance Time="13" Pattern="03"
			PatternInstance Time="14" Pattern="04"
			PatternInstance Time="15" Pattern="08"
			PatternInstance Time="16" Pattern="09"
			PatternInstance Time="17" Pattern="0A"
			PatternInstance Time="18" Pattern="0B"
			PatternInstance Time="19" Pattern="0C"
			PatternInstance Time="20" Pattern="0D"
			PatternInstance Time="21" Pattern="0E"
			PatternInstance Time="22" Pattern="0F"
			PatternInstance Time="23" Pattern="01"
			PatternInstance Time="24" Pattern="02"
			PatternInstance Time="25" Pattern="01"
			PatternInstance Time="26" Pattern="05"
			PatternInstance Time="27" Pattern="06"
			PatternInstance Time="28" Pattern="07"
			PatternInstance Time="29" Pattern="06"
			PatternInstance Time="30" Pattern="07"
			PatternInstance Time="31" Pattern="10"
		Channel Type="Square2"
			Pattern Name="00" Color="eaffbd"
				Note Time="0" Volume="15"
			Pattern Name="02" Color="d863ec"
				Note Time="64" Value="A#2" Duration="4" Instrument="electroman lead" Arpeggio="Arp 5A"
				Note Time="68" Value="A#2" Duration="4" Instrument="electroman lead" Arpeggio="Arp 5A"
				Note Time="72" Value="A#2" Duration="4" Instrument="electroman lead" Arpeggio="Arp 5A"
				Note Time="76" Value="C3" Duration="12" Instrument="electroman lead" Arpeggio="Arp 38"
				Note Time="88" Value="C3" Duration="8" Instrument="electroman lead" Arpeggio="Arp 38"
				Note Time="96" Value="C3" Duration="8" Instrument="electroman lead" Arpeggio="Arp 7B"
				Note Time="104" Value="D3" Duration="4" Instrument="electroman lead" Arpeggio="Arp 59"
				Note Time="108" Value="D#3" Duration="8" Instrument="electroman lead" Arpeggio="Arp 48"
				Note Time="116" Value="D#3" Duration="4" Instrument="electroman lead" Arpeggio="Arp 48"
				Note Time="120" Value="D3" Duration="7" Instrument="electroman lead" Arpeggio="Arp 59"
			Pattern Name="03" Color="ff935e"
				Note Time="0" Value="C1" Duration="7" Instrument="blank" Volume="11"
				Note Time="8" Value="C1" Duration="4" Instrument="blank instant decay"
				Note Time="12" Value="C2" Duration="7" Instrument="blank"
				Note Time="20" Value="C2" Duration="4" Instrument="blank instant decay"
				Note Time="24" Value="G1" Duration="7" Instrument="blank"
				Note Time="32" Value="C1" Duration="7" Instrument="blank"
				Note Time="40" Value="C1" Duration="4" Instrument="blank instant decay"
				Note Time="44" Value="C2" Duration="4" Instrument="blank instant decay"
				Note Time="48" Value="A#1" Duration="8" Instrument="blank"
				Note Time="56" Value="G1" Duration="8" Instrument="blank"
				Note Time="64" Value="C1" Duration="7" Instrument="blank"
				Note Time="72" Value="C1" Duration="4" Instrument="blank instant decay"
				Note Time="76" Value="C2" Duration="7" Instrument="blank"
				Note Time="84" Value="G1" Duration="4" Instrument="blank instant decay"
				Note Time="88" Value="C2" Duration="7" Instrument="blank"
				Note Time="96" Value="C1" Duration="4" Instrument="blank instant decay"
				Note Time="100" Value="A#1" Duration="4" Instrument="blank instant decay"
				Note Time="104" Value="C2" Duration="4" Instrument="blank instant decay"
				Note Time="108" Value="C1" Duration="4" Instrument="blank instant decay"
				Note Time="112" Value="A#1" Duration="4" Instrument="blank instant decay"
				Note Time="116" Value="C2" Duration="4" Instrument="blank instant decay"
				Note Time="120" Value="C1" Duration="7" Instrument="blank"
			Pattern Name="04" Color="fcff6f"
				Note Time="0" Value="C1" Duration="7" Instrument="blank" Volume="11"
				Note Time="8" Value="C1" Duration="4" Instrument="blank instant decay"
				Note Time="12" Value="C2" Duration="7" Instrument="blank"
				Note Time="20" Value="C2" Duration="4" Instrument="blank instant decay"
				Note Time="24" Value="G1" Duration="7" Instrument="blank"
				Note Time="32" Value="C1" Duration="7" Instrument="blank"
				Note Time="40" Value="C1" Duration="4" Instrument="blank instant decay"
				Note Time="44" Value="C2" Duration="4" Instrument="blank instant decay"
				Note Time="48" Value="A#1" Duration="8" Instrument="blank"
				Note Time="56" Value="G1" Duration="8" Instrument="blank"
				Note Time="64" Value="C1" Duration="7" Instrument="blank"
				Note Time="112" Volume="15"
			Pattern Name="05" Color="3cd3e3"
				Note Time="0" Value="C2" Duration="8" Instrument="blank instant decay"
				Note Time="8" Value="C2" Duration="4" Instrument="blank instant decay"
				Note Time="12" Value="C3" Duration="8" Instrument="blank instant decay"
				Note Time="20" Value="C3" Duration="4" Instrument="blank instant decay"
				Note Time="24" Value="G2" Duration="8" Instrument="blank instant decay"
				Note Time="32" Value="A#1" Duration="8" Instrument="blank instant decay"
				Note Time="40" Value="A#1" Duration="4" Instrument="blank instant decay"
				Note Time="44" Value="A#2" Duration="4" Instrument="blank instant decay"
				Note Time="48" Value="F2" Duration="8" Instrument="blank instant decay"
				Note Time="56" Value="A#2" Duration="8" Instrument="blank instant decay"
				Note Time="64" Value="G#1" Duration="8" Instrument="blank instant decay"
				Note Time="72" Value="G#1" Duration="4" Instrument="blank instant decay"
				Note Time="76" Value="G#2" Duration="8" Instrument="blank instant decay"
				Note Time="84" Value="G#2" Duration="4" Instrument="blank instant decay"
				Note Time="88" Value="G#1" Duration="8" Instrument="blank instant decay"
				Note Time="96" Value="G1" Duration="4" Instrument="blank instant decay"
				Note Time="100" Value="G1" Duration="4" Instrument="blank instant decay"
				Note Time="104" Value="G2" Duration="4" Instrument="blank instant decay"
				Note Time="108" Value="D3" Duration="4" Instrument="blank instant decay"
				Note Time="112" Value="G3" Duration="8" Instrument="blank instant decay"
				Note Time="120" Value="G2" Duration="8" Instrument="blank instant decay"
			Pattern Name="06" Color="8163dc"
				Note Time="0" Value="D#2" Duration="8" Instrument="blank instant decay"
				Note Time="8" Value="D#2" Duration="4" Instrument="blank instant decay"
				Note Time="12" Value="D#3" Duration="8" Instrument="blank instant decay"
				Note Time="20" Value="D#3" Duration="4" Instrument="blank instant decay"
				Note Time="24" Value="D#2" Duration="8" Instrument="blank instant decay"
				Note Time="32" Value="A#1" Duration="8" Instrument="blank instant decay"
				Note Time="40" Value="A#1" Duration="4" Instrument="blank instant decay"
				Note Time="44" Value="A#2" Duration="4" Instrument="blank instant decay"
				Note Time="48" Value="F2" Duration="8" Instrument="blank instant decay"
				Note Time="56" Value="A#2" Duration="8" Instrument="blank instant decay"
				Note Time="64" Value="G#1" Duration="8" Instrument="blank instant decay"
				Note Time="72" Value="G#1" Duration="4" Instrument="blank instant decay"
				Note Time="76" Value="G#2" Duration="8" Instrument="blank instant decay"
				Note Time="84" Value="G#2" Duration="4" Instrument="blank instant decay"
				Note Time="88" Value="G#1" Duration="8" Instrument="blank instant decay"
				Note Time="96" Value="B2" Duration="4" Instrument="blank instant decay"
				Note Time="100" Value="B1" Duration="4" Instrument="blank instant decay"
				Note Time="104" Value="G2" Duration="4" Instrument="blank instant decay"
				Note Time="108" Value="B2" Duration="4" Instrument="blank instant decay"
				Note Time="112" Value="B1" Duration="4" Instrument="blank instant decay"
				Note Time="116" Value="B1" Duration="4" Instrument="blank instant decay"
				Note Time="120" Value="D2" Duration="4" Instrument="blank instant decay"
				Note Time="124" Value="G2" Duration="4" Instrument="blank instant decay"
			Pattern Name="07" Color="8a706a"
				Note Time="0" Value="G#1" Duration="8" Instrument="blank instant decay"
				Note Time="8" Value="G#1" Duration="4" Instrument="blank instant decay"
				Note Time="12" Value="G#2" Duration="8" Instrument="blank instant decay"
				Note Time="20" Value="G#2" Duration="4" Instrument="blank instant decay"
				Note Time="24" Value="D#2" Duration="8" Instrument="blank instant decay"
				Note Time="32" Value="G#1" Duration="8" Instrument="blank instant decay"
				Note Time="40" Value="G#1" Duration="4" Instrument="blank instant decay"
				Note Time="44" Value="D#2" Duration="4" Instrument="blank instant decay"
				Note Time="48" Value="G#2" Duration="8" Instrument="blank instant decay"
				Note Time="56" Value="G#1" Duration="8" Instrument="blank instant decay"
				Note Time="64" Value="D#1" Duration="8" Instrument="blank instant decay"
				Note Time="72" Value="D#1" Duration="4" Instrument="blank instant decay"
				Note Time="76" Value="D#2" Duration="8" Instrument="blank instant decay"
				Note Time="84" Value="D#2" Duration="4" Instrument="blank instant decay"
				Note Time="88" Value="D#1" Duration="8" Instrument="blank instant decay"
				Note Time="96" Value="D#1" Duration="4" Instrument="blank instant decay"
				Note Time="100" Value="A#1" Duration="4" Instrument="blank instant decay"
				Note Time="104" Value="D#2" Duration="4" Instrument="blank instant decay"
				Note Time="108" Value="D#1" Duration="4" Instrument="blank instant decay"
				Note Time="112" Value="A#1" Duration="4" Instrument="blank instant decay"
				Note Time="116" Value="D#2" Duration="4" Instrument="blank instant decay"
				Note Time="120" Value="D#1" Duration="8" Instrument="blank instant decay"
			Pattern Name="08" Color="ffffb2"
				Note Time="0" Value="A#1" Duration="8" Instrument="blank instant decay"
				Note Time="8" Value="A#1" Duration="4" Instrument="blank instant decay"
				Note Time="12" Value="A#2" Duration="8" Instrument="blank instant decay"
				Note Time="20" Value="A#2" Duration="4" Instrument="blank instant decay"
				Note Time="24" Value="F2" Duration="8" Instrument="blank instant decay"
				Note Time="32" Value="A#1" Duration="8" Instrument="blank instant decay"
				Note Time="40" Value="A#1" Duration="4" Instrument="blank instant decay"
				Note Time="44" Value="F2" Duration="4" Instrument="blank instant decay"
				Note Time="48" Value="A#2" Duration="8" Instrument="blank instant decay"
				Note Time="56" Value="A#1" Duration="8" Instrument="blank instant decay"
				Note Time="64" Value="C2" Duration="8" Instrument="blank instant decay"
				Note Time="72" Value="C2" Duration="4" Instrument="blank instant decay"
				Note Time="76" Value="C3" Duration="8" Instrument="blank instant decay"
				Note Time="84" Value="C3" Duration="4" Instrument="blank instant decay"
				Note Time="88" Value="C2" Duration="8" Instrument="blank instant decay"
				Note Time="96" Value="C2" Duration="4" Instrument="blank instant decay"
				Note Time="100" Value="G2" Duration="4" Instrument="blank instant decay"
				Note Time="104" Value="C3" Duration="4" Instrument="blank instant decay"
				Note Time="108" Value="C2" Duration="4" Instrument="blank instant decay"
				Note Time="112" Value="G2" Duration="4" Instrument="blank instant decay"
				Note Time="116" Value="C3" Duration="4" Instrument="blank instant decay"
				Note Time="120" Value="C2" Duration="8" Instrument="blank instant decay"
			Pattern Name="09" Color="62e2d6"
				Note Time="0" Value="G#3" Duration="4" Instrument="blank instant decay" Arpeggio="Arp 72"
				Note Time="4" Value="G#3" Duration="8" Instrument="blank instant decay" Arpeggio="Arp 72"
				Note Time="12" Value="G#3" Duration="4" Instrument="blank instant decay" Arpeggio="Arp 72"
				Note Time="16" Value="G#3" Duration="8" Instrument="blank instant decay" Arpeggio="Arp 72"
				Note Time="24" Value="G#3" Duration="4" Instrument="blank instant decay" Arpeggio="Arp 72"
				Note Time="28" Value="G#3" Duration="8" Instrument="blank instant decay" Arpeggio="Arp 72"
				Note Time="36" Value="G#3" Duration="4" Instrument="blank instant decay" Arpeggio="Arp 72"
				Note Time="40" Value="G#3" Duration="8" Instrument="blank instant decay" Arpeggio="Arp 72"
				Note Time="48" Value="G#3" Duration="4" Instrument="blank instant decay" Arpeggio="Arp 74"
				Note Time="52" Value="G#3" Duration="4" Instrument="blank instant decay" Arpeggio="Arp 74"
				Note Time="56" Value="G#3" Duration="8" Instrument="blank instant decay" Arpeggio="Arp 74"
				Note Time="64" Value="D#3" Duration="4" Instrument="blank instant decay" Arpeggio="Arp 74"
				Note Time="68" Value="D#3" Duration="4" Instrument="blank instant decay" Arpeggio="Arp 74"
				Note Time="72" Value="D#3" Duration="4" Instrument="blank instant decay" Arpeggio="Arp 74"
				Note Time="76" Value="D#3" Duration="8" Instrument="blank instant decay" Arpeggio="Arp 74"
				Note Time="84" Value="D#3" Duration="4" Instrument="blank instant decay" Arpeggio="Arp 75"
				Note Time="88" Value="D#3" Duration="8" Instrument="blank instant decay" Arpeggio="Arp 74"
				Note Time="96" Value="D#3" Duration="4" Instrument="blank instant decay" Arpeggio="Arp 75"
				Note Time="100" Value="D#3" Duration="4" Instrument="blank instant decay" Arpeggio="Arp 74"
				Note Time="104" Value="D#3" Duration="4" Instrument="blank instant decay" Arpeggio="Arp 74"
				Note Time="108" Value="D#3" Duration="8" Instrument="blank instant decay" Arpeggio="Arp 7C"
				Note Time="116" Value="D#3" Duration="4" Instrument="blank instant decay" Arpeggio="Arp 7C"
				Note Time="120" Value="D#3" Duration="8" Instrument="blank instant decay" Arpeggio="Arp 7C"
			Pattern Name="0A" Color="7b8df1"
				Note Time="0" Value="A#2" Duration="4" Instrument="blank instant decay" Arpeggio="Arp 72"
				Note Time="4" Value="A#2" Duration="8" Instrument="blank instant decay" Arpeggio="Arp 72"
				Note Time="12" Value="A#2" Duration="8" Instrument="blank instant decay" Arpeggio="Arp 72"
				Note Time="20" Value="A#2" Duration="4" Instrument="blank instant decay" Arpeggio="Arp 72"
				Note Time="24" Value="A#2" Duration="8" Instrument="blank instant decay" Arpeggio="Arp 72"
				Note Time="32" Value="A#2" Duration="4" Instrument="blank instant decay" Arpeggio="Arp 72"
				Note Time="36" Value="A#2" Duration="8" Instrument="blank instant decay" Arpeggio="Arp 74"
				Note Time="44" Value="A#2" Duration="8" Instrument="blank instant decay" Arpeggio="Arp 74"
				Note Time="52" Value="A#2" Duration="4" Instrument="blank instant decay" Arpeggio="Arp 74"
				Note Time="56" Value="A#2" Duration="8" Instrument="blank instant decay" Arpeggio="Arp 74"
				Note Time="64" Value="C3" Duration="4" Instrument="blank instant decay" Arpeggio="Arp 72"
				Note Time="68" Value="C3" Duration="8" Instrument="blank instant decay" Arpeggio="Arp 72"
				Note Time="76" Value="C3" Duration="8" Instrument="blank instant decay" Arpeggio="Arp 72"
				Note Time="84" Value="C3" Duration="4" Instrument="blank instant decay" Arpeggio="Arp 72"
				Note Time="88" Value="C3" Duration="8" Instrument="blank instant decay" Arpeggio="Arp 72"
				Note Time="96" Value="C3" Duration="4" Instrument="blank instant decay" Arpeggio="Arp 72"
				Note Time="100" Value="C3" Duration="8" Instrument="blank instant decay" Arpeggio="Arp 74"
				Note Time="108" Value="C3" Duration="8" Instrument="blank instant decay" Arpeggio="Arp 74"
				Note Time="116" Value="C3" Duration="4" Instrument="blank instant decay" Arpeggio="Arp 74"
				Note Time="120" Value="C3" Duration="200" Instrument="blank instant decay" Arpeggio="Arp 74"
			Pattern Name="0B" Color="ff7571"
			PatternInstance Time="0" Pattern="00"
			PatternInstance Time="2" Pattern="02"
			PatternInstance Time="3" Pattern="03"
			PatternInstance Time="4" Pattern="04"
			PatternInstance Time="5" Pattern="05"
			PatternInstance Time="6" Pattern="06"
			PatternInstance Time="7" Pattern="05"
			PatternInstance Time="8" Pattern="06"
			PatternInstance Time="9" Pattern="07"
			PatternInstance Time="10" Pattern="08"
			PatternInstance Time="11" Pattern="07"
			PatternInstance Time="12" Pattern="08"
			PatternInstance Time="13" Pattern="03"
			PatternInstance Time="14" Pattern="04"
			PatternInstance Time="15" Pattern="05"
			PatternInstance Time="16" Pattern="06"
			PatternInstance Time="17" Pattern="05"
			PatternInstance Time="18" Pattern="06"
			PatternInstance Time="19" Pattern="09"
			PatternInstance Time="20" Pattern="0A"
			PatternInstance Time="21" Pattern="09"
			PatternInstance Time="22" Pattern="0A"
			PatternInstance Time="24" Pattern="02"
			PatternInstance Time="25" Pattern="05"
			PatternInstance Time="26" Pattern="06"
			PatternInstance Time="27" Pattern="07"
			PatternInstance Time="28" Pattern="08"
			PatternInstance Time="29" Pattern="07"
			PatternInstance Time="30" Pattern="08"
			PatternInstance Time="31" Pattern="0B"
		Channel Type="Triangle"
			Pattern Name="00" Color="ffef3c"
				Note Time="0" Volume="15"
			Pattern Name="01" Color="74ca78"
				Note Time="0" Value="C3" Duration="8" Instrument="blank instant decay"
				Note Time="8" Value="C3" Duration="4" Instrument="blank instant decay"
				Note Time="12" Value="C4" Duration="8" Instrument="blank instant decay"
				Note Time="20" Value="C4" Duration="4" Instrument="blank instant decay"
				Note Time="24" Value="G3" Duration="8" Instrument="blank instant decay"
				Note Time="32" Value="A#2" Duration="8" Instrument="blank instant decay"
				Note Time="40" Value="A#2" Duration="4" Instrument="blank instant decay"
				Note Time="44" Value="A#3" Duration="4" Instrument="blank instant decay"
				Note Time="48" Value="F3" Duration="8" Instrument="blank instant decay"
				Note Time="56" Value="A#3" Duration="8" Instrument="blank instant decay"
				Note Time="64" Value="G#2" Duration="8" Instrument="blank instant decay"
				Note Time="72" Value="G#2" Duration="4" Instrument="blank instant decay"
				Note Time="76" Value="G#3" Duration="8" Instrument="blank instant decay"
				Note Time="84" Value="G#3" Duration="4" Instrument="blank instant decay"
				Note Time="88" Value="G#2" Duration="8" Instrument="blank instant decay"
				Note Time="96" Value="G2" Duration="4" Instrument="blank instant decay"
				Note Time="100" Value="G2" Duration="4" Instrument="blank instant decay"
				Note Time="104" Value="G3" Duration="4" Instrument="blank instant decay"
				Note Time="108" Value="D4" Duration="4" Instrument="blank instant decay"
				Note Time="112" Value="G4" Duration="8" Instrument="blank instant decay"
				Note Time="120" Value="G3" Duration="8" Instrument="blank instant decay"
			Pattern Name="02" Color="51a1fc"
				Note Time="0" Value="D#3" Duration="8" Instrument="blank instant decay"
				Note Time="8" Value="D#3" Duration="4" Instrument="blank instant decay"
				Note Time="12" Value="D#4" Duration="8" Instrument="blank instant decay"
				Note Time="20" Value="D#4" Duration="4" Instrument="blank instant decay"
				Note Time="24" Value="D#3" Duration="8" Instrument="blank instant decay"
				Note Time="32" Value="A#2" Duration="8" Instrument="blank instant decay"
				Note Time="40" Value="A#2" Duration="4" Instrument="blank instant decay"
				Note Time="44" Value="A#3" Duration="4" Instrument="blank instant decay"
				Note Time="48" Value="F3" Duration="8" Instrument="blank instant decay"
				Note Time="56" Value="A#3" Duration="8" Instrument="blank instant decay"
				Note Time="64" Value="G#3" Duration="8" Instrument="blank instant decay"
				Note Time="72" Value="G#3" Duration="4" Instrument="blank instant decay"
				Note Time="76" Value="D#4" Duration="12" Instrument="blank instant decay"
				Note Time="88" Value="G#4" Duration="8" Instrument="blank instant decay"
				Note Time="96" Value="G4" Duration="8" Instrument="blank instant decay"
				Note Time="104" Value="G4" Duration="4" Instrument="blank instant decay"
				Note Time="108" Value="D4" Duration="8" Instrument="blank instant decay"
				Note Time="116" Value="D4" Duration="4" Instrument="blank instant decay"
				Note Time="120" Value="G4" Duration="8" Instrument="blank instant decay"
			Pattern Name="03" Color="ff9ece"
				Note Time="0" Value="C2" Duration="7" Instrument="blank" Volume="15"
				Note Time="8" Value="C2" Duration="4" Instrument="blank instant decay"
				Note Time="12" Value="C3" Duration="7" Instrument="blank"
				Note Time="20" Value="C3" Duration="4" Instrument="blank instant decay"
				Note Time="24" Value="G2" Duration="7" Instrument="blank"
				Note Time="32" Value="C2" Duration="7" Instrument="blank"
				Note Time="40" Value="C2" Duration="4" Instrument="blank instant decay"
				Note Time="44" Value="C3" Duration="4" Instrument="blank instant decay"
				Note Time="48" Value="A#2" Duration="8" Instrument="blank"
				Note Time="56" Value="G2" Duration="8" Instrument="blank"
				Note Time="64" Value="C2" Duration="7" Instrument="blank"
				Note Time="72" Value="C2" Duration="4" Instrument="blank instant decay"
				Note Time="76" Value="C3" Duration="7" Instrument="blank"
				Note Time="84" Value="G2" Duration="4" Instrument="blank instant decay"
				Note Time="88" Value="C3" Duration="7" Instrument="blank"
				Note Time="96" Value="C2" Duration="4" Instrument="blank instant decay"
				Note Time="100" Value="A#2" Duration="4" Instrument="blank instant decay"
				Note Time="104" Value="C3" Duration="4" Instrument="blank instant decay"
				Note Time="108" Value="C2" Duration="4" Instrument="blank instant decay"
				Note Time="112" Value="A#2" Duration="4" Instrument="blank instant decay"
				Note Time="116" Value="C3" Duration="4" Instrument="blank instant decay"
				Note Time="120" Value="C2" Duration="7" Instrument="blank"
			Pattern Name="04" Color="fff389"
				Note Time="0" Value="C2" Duration="7" Instrument="blank" Volume="15"
				Note Time="8" Value="C2" Duration="4" Instrument="blank instant decay"
				Note Time="12" Value="C3" Duration="7" Instrument="blank"
				Note Time="20" Value="C3" Duration="4" Instrument="blank instant decay"
				Note Time="24" Value="G2" Duration="7" Instrument="blank"
				Note Time="32" Value="C2" Duration="7" Instrument="blank"
				Note Time="40" Value="C2" Duration="4" Instrument="blank instant decay"
				Note Time="44" Value="C3" Duration="4" Instrument="blank instant decay"
				Note Time="48" Value="A#2" Duration="8" Instrument="blank"
				Note Time="56" Value="G2" Duration="8" Instrument="blank"
				Note Time="64" Value="C2" Duration="7" Instrument="blank"
				Note Time="117" Volume="15"
			Pattern Name="05" Color="d8ffa1"
				Note Time="0" Value="D#3" Duration="8" Instrument="blank instant decay"
				Note Time="8" Value="D#3" Duration="4" Instrument="blank instant decay"
				Note Time="12" Value="D#4" Duration="8" Instrument="blank instant decay"
				Note Time="20" Value="D#4" Duration="4" Instrument="blank instant decay"
				Note Time="24" Value="D#3" Duration="8" Instrument="blank instant decay"
				Note Time="32" Value="A#2" Duration="8" Instrument="blank instant decay"
				Note Time="40" Value="A#2" Duration="4" Instrument="blank instant decay"
				Note Time="44" Value="A#3" Duration="4" Instrument="blank instant decay"
				Note Time="48" Value="F3" Duration="8" Instrument="blank instant decay"
				Note Time="56" Value="A#3" Duration="8" Instrument="blank instant decay"
				Note Time="64" Value="G#2" Duration="8" Instrument="blank instant decay"
				Note Time="72" Value="G#2" Duration="4" Instrument="blank instant decay"
				Note Time="76" Value="G#3" Duration="8" Instrument="blank instant decay"
				Note Time="84" Value="G#3" Duration="4" Instrument="blank instant decay"
				Note Time="88" Value="G#2" Duration="8" Instrument="blank instant decay"
				Note Time="96" Value="B3" Duration="4" Instrument="blank instant decay"
				Note Time="100" Value="B2" Duration="4" Instrument="blank instant decay"
				Note Time="104" Value="G3" Duration="4" Instrument="blank instant decay"
				Note Time="108" Value="B3" Duration="4" Instrument="blank instant decay"
				Note Time="112" Value="B2" Duration="4" Instrument="blank instant decay"
				Note Time="116" Value="B2" Duration="4" Instrument="blank instant decay"
				Note Time="120" Value="D3" Duration="4" Instrument="blank instant decay"
				Note Time="124" Value="G3" Duration="4" Instrument="blank instant decay"
			Pattern Name="06" Color="3fe5ff"
				Note Time="0" Value="G#2" Duration="8" Instrument="blank instant decay"
				Note Time="8" Value="G#2" Duration="4" Instrument="blank instant decay"
				Note Time="12" Value="G#3" Duration="8" Instrument="blank instant decay"
				Note Time="20" Value="G#3" Duration="4" Instrument="blank instant decay"
				Note Time="24" Value="D#3" Duration="8" Instrument="blank instant decay"
				Note Time="32" Value="G#2" Duration="8" Instrument="blank instant decay"
				Note Time="40" Value="G#2" Duration="4" Instrument="blank instant decay"
				Note Time="44" Value="D#3" Duration="4" Instrument="blank instant decay"
				Note Time="48" Value="G#3" Duration="8" Instrument="blank instant decay"
				Note Time="56" Value="G#2" Duration="8" Instrument="blank instant decay"
				Note Time="64" Value="D#2" Duration="8" Instrument="blank instant decay"
				Note Time="72" Value="D#2" Duration="4" Instrument="blank instant decay"
				Note Time="76" Value="D#3" Duration="8" Instrument="blank instant decay"
				Note Time="84" Value="D#3" Duration="4" Instrument="blank instant decay"
				Note Time="88" Value="D#2" Duration="8" Instrument="blank instant decay"
				Note Time="96" Value="D#2" Duration="4" Instrument="blank instant decay"
				Note Time="100" Value="A#2" Duration="4" Instrument="blank instant decay"
				Note Time="104" Value="D#3" Duration="4" Instrument="blank instant decay"
				Note Time="108" Value="D#2" Duration="4" Instrument="blank instant decay"
				Note Time="112" Value="A#2" Duration="4" Instrument="blank instant decay"
				Note Time="116" Value="D#3" Duration="4" Instrument="blank instant decay"
				Note Time="120" Value="D#2" Duration="8" Instrument="blank instant decay"
			Pattern Name="07" Color="ca60e6"
				Note Time="0" Value="A#2" Duration="8" Instrument="blank instant decay"
				Note Time="8" Value="A#2" Duration="4" Instrument="blank instant decay"
				Note Time="12" Value="A#3" Duration="8" Instrument="blank instant decay"
				Note Time="20" Value="A#3" Duration="4" Instrument="blank instant decay"
				Note Time="24" Value="F3" Duration="8" Instrument="blank instant decay"
				Note Time="32" Value="A#2" Duration="8" Instrument="blank instant decay"
				Note Time="40" Value="A#2" Duration="4" Instrument="blank instant decay"
				Note Time="44" Value="F3" Duration="4" Instrument="blank instant decay"
				Note Time="48" Value="A#3" Duration="8" Instrument="blank instant decay"
				Note Time="56" Value="A#2" Duration="8" Instrument="blank instant decay"
				Note Time="64" Value="C3" Duration="8" Instrument="blank instant decay"
				Note Time="72" Value="C3" Duration="4" Instrument="blank instant decay"
				Note Time="76" Value="C4" Duration="8" Instrument="blank instant decay"
				Note Time="84" Value="C4" Duration="4" Instrument="blank instant decay"
				Note Time="88" Value="C3" Duration="8" Instrument="blank instant decay"
				Note Time="96" Value="C3" Duration="4" Instrument="blank instant decay"
				Note Time="100" Value="G3" Duration="4" Instrument="blank instant decay"
				Note Time="104" Value="C4" Duration="4" Instrument="blank instant decay"
				Note Time="108" Value="C3" Duration="4" Instrument="blank instant decay"
				Note Time="112" Value="G3" Duration="4" Instrument="blank instant decay"
				Note Time="116" Value="C4" Duration="4" Instrument="blank instant decay"
				Note Time="120" Value="C3" Duration="8" Instrument="blank instant decay"
			Pattern Name="08" Color="ff8d5a"
			PatternInstance Time="0" Pattern="00"
			PatternInstance Time="1" Pattern="01"
			PatternInstance Time="2" Pattern="02"
			PatternInstance Time="3" Pattern="03"
			PatternInstance Time="4" Pattern="04"
			PatternInstance Time="5" Pattern="01"
			PatternInstance Time="6" Pattern="05"
			PatternInstance Time="7" Pattern="01"
			PatternInstance Time="8" Pattern="05"
			PatternInstance Time="9" Pattern="06"
			PatternInstance Time="10" Pattern="07"
			PatternInstance Time="11" Pattern="06"
			PatternInstance Time="12" Pattern="07"
			PatternInstance Time="13" Pattern="03"
			PatternInstance Time="14" Pattern="04"
			PatternInstance Time="15" Pattern="01"
			PatternInstance Time="16" Pattern="05"
			PatternInstance Time="17" Pattern="01"
			PatternInstance Time="18" Pattern="05"
			PatternInstance Time="19" Pattern="06"
			PatternInstance Time="20" Pattern="07"
			PatternInstance Time="21" Pattern="06"
			PatternInstance Time="22" Pattern="07"
			PatternInstance Time="23" Pattern="01"
			PatternInstance Time="24" Pattern="02"
			PatternInstance Time="25" Pattern="01"
			PatternInstance Time="26" Pattern="05"
			PatternInstance Time="27" Pattern="06"
			PatternInstance Time="28" Pattern="07"
			PatternInstance Time="29" Pattern="06"
			PatternInstance Time="30" Pattern="07"
			PatternInstance Time="31" Pattern="08"
		Channel Type="Noise"
			Pattern Name="00" Color="ebf067"
				Note Time="0" Volume="15"
			Pattern Name="02" Color="d1b1ff"
				Note Time="64" Value="D#3" Duration="8" Instrument="cymbal" Volume="15"
				Note Time="72" Value="A#3" Duration="4" Instrument="hat"
				Note Time="76" Value="D#3" Duration="8" Instrument="cymbal"
				Note Time="84" Value="A#3" Duration="4" Instrument="hat"
				Note Time="88" Value="D#3" Duration="8" Instrument="cymbal"
				Note Time="96" Value="D#3" Duration="8" Instrument="cymbal"
				Note Time="104" Value="A#3" Duration="4" Instrument="hat"
				Note Time="108" Value="D#3" Duration="8" Instrument="cymbal"
				Note Time="116" Value="A#3" Duration="4" Instrument="hat"
				Note Time="120" Value="D#3" Duration="8" Instrument="cymbal"
			Pattern Name="03" Color="ddc4bb"
				Note Time="0" Value="D#3" Duration="16" Instrument="cymbal" Volume="15"
				Note Time="16" Value="A#3" Duration="4" Instrument="hat" Volume="7"
				Note Time="20" Value="A#3" Duration="4" Instrument="hat" Volume="9"
				Note Time="24" Value="A#3" Duration="4" Instrument="hat" Volume="15"
				Note Time="28" Value="A#3" Duration="4" Instrument="hat" Volume="9"
				Note Time="32" Value="A#3" Duration="4" Instrument="hat" Volume="7"
				Note Time="36" Value="A#3" Duration="4" Instrument="hat" Volume="9"
				Note Time="40" Value="A#3" Duration="4" Instrument="hat" Volume="15"
				Note Time="44" Value="A#3" Duration="4" Instrument="hat" Volume="9"
				Note Time="48" Value="A#3" Duration="4" Instrument="hat" Volume="7"
				Note Time="52" Value="A#3" Duration="4" Instrument="hat" Volume="9"
				Note Time="56" Value="A#3" Duration="4" Instrument="hat" Volume="15"
				Note Time="60" Value="A#3" Duration="4" Instrument="hat" Volume="9"
				Note Time="64" Value="A#3" Duration="4" Instrument="hat" Volume="7"
				Note Time="68" Value="A#3" Duration="4" Instrument="hat" Volume="9"
				Note Time="72" Value="A#3" Duration="4" Instrument="hat" Volume="15"
				Note Time="76" Value="A#3" Duration="4" Instrument="hat" Volume="9"
				Note Time="80" Value="A#3" Duration="4" Instrument="hat" Volume="7"
				Note Time="84" Value="A#3" Duration="4" Instrument="hat" Volume="9"
				Note Time="88" Value="A#3" Duration="4" Instrument="hat" Volume="15"
				Note Time="92" Value="A#3" Duration="4" Instrument="hat" Volume="9"
				Note Time="96" Value="A#3" Duration="4" Instrument="hat" Volume="7"
				Note Time="100" Value="A#3" Duration="4" Instrument="hat" Volume="9"
				Note Time="104" Value="A#3" Duration="4" Instrument="hat" Volume="15"
				Note Time="108" Value="A#3" Duration="4" Instrument="hat" Volume="9"
				Note Time="112" Value="A#3" Duration="4" Instrument="hat" Volume="7"
				Note Time="116" Value="A#3" Duration="4" Instrument="hat" Volume="9"
				Note Time="120" Value="A#3" Duration="4" Instrument="hat" Volume="15"
				Note Time="124" Value="A#3" Duration="4" Instrument="hat" Volume="9"
			Pattern Name="04" Color="ffff94"
				Note Time="0" Value="A#3" Duration="4" Instrument="hat" Volume="7"
				Note Time="4" Value="A#3" Duration="4" Instrument="hat" Volume="9"
				Note Time="8" Value="A#3" Duration="4" Instrument="hat" Volume="15"
				Note Time="12" Value="A#3" Duration="4" Instrument="hat" Volume="9"
				Note Time="16" Value="A#3" Duration="4" Instrument="hat" Volume="7"
				Note Time="20" Value="A#3" Duration="4" Instrument="hat" Volume="9"
				Note Time="24" Value="A#3" Duration="4" Instrument="hat" Volume="15"
				Note Time="28" Value="A#3" Duration="4" Instrument="hat" Volume="9"
				Note Time="32" Value="A#3" Duration="4" Instrument="hat" Volume="7"
				Note Time="36" Value="A#3" Duration="4" Instrument="hat" Volume="9"
				Note Time="40" Value="A#3" Duration="4" Instrument="hat" Volume="15"
				Note Time="44" Value="A#3" Duration="4" Instrument="hat" Volume="9"
				Note Time="48" Value="A#3" Duration="4" Instrument="hat" Volume="7"
				Note Time="52" Value="A#3" Duration="4" Instrument="hat" Volume="9"
				Note Time="56" Value="A#3" Duration="4" Instrument="hat" Volume="15"
				Note Time="60" Value="A#3" Duration="4" Instrument="hat" Volume="9"
				Note Time="64" Value="D#3" Duration="7" Instrument="cymbal" Volume="15"
				Note Time="112" Value="D#3" Duration="8" Instrument="cymbal"
			Pattern Name="05" Color="3cd2c4"
				Note Time="0" Value="A#3" Duration="4" Instrument="hat" Volume="7"
				Note Time="4" Value="A#3" Duration="4" Instrument="hat" Volume="9"
				Note Time="8" Value="A#3" Duration="4" Instrument="hat" Volume="15"
				Note Time="12" Value="A#3" Duration="4" Instrument="hat" Volume="9"
				Note Time="16" Value="A#3" Duration="4" Instrument="hat" Volume="7"
				Note Time="20" Value="A#3" Duration="4" Instrument="hat" Volume="9"
				Note Time="24" Value="A#3" Duration="4" Instrument="hat" Volume="15"
				Note Time="28" Value="A#3" Duration="4" Instrument="hat" Volume="9"
				Note Time="32" Value="A#3" Duration="4" Instrument="hat" Volume="7"
				Note Time="36" Value="A#3" Duration="4" Instrument="hat" Volume="9"
				Note Time="40" Value="A#3" Duration="4" Instrument="hat" Volume="15"
				Note Time="44" Value="A#3" Duration="4" Instrument="hat" Volume="9"
				Note Time="48" Value="A#3" Duration="4" Instrument="hat" Volume="7"
				Note Time="52" Value="A#3" Duration="4" Instrument="hat" Volume="9"
				Note Time="56" Value="A#3" Duration="4" Instrument="hat" Volume="15"
				Note Time="60" Value="A#3" Duration="4" Instrument="hat" Volume="9"
				Note Time="64" Value="A#3" Duration="4" Instrument="hat" Volume="7"
				Note Time="68" Value="A#3" Duration="4" Instrument="hat" Volume="9"
				Note Time="72" Value="A#3" Duration="4" Instrument="hat" Volume="15"
				Note Time="76" Value="A#3" Duration="4" Instrument="hat" Volume="9"
				Note Time="80" Value="A#3" Duration="4" Instrument="hat" Volume="7"
				Note Time="84" Value="A#3" Duration="4" Instrument="hat" Volume="9"
				Note Time="88" Value="A#3" Duration="4" Instrument="hat" Volume="15"
				Note Time="92" Value="A#3" Duration="4" Instrument="hat" Volume="9"
				Note Time="96" Value="A#3" Duration="4" Instrument="hat" Volume="7"
				Note Time="100" Value="A#3" Duration="4" Instrument="hat" Volume="9"
				Note Time="104" Value="A#3" Duration="4" Instrument="hat" Volume="15"
				Note Time="108" Value="A#3" Duration="4" Instrument="hat" Volume="9"
				Note Time="112" Value="A#3" Duration="4" Instrument="hat" Volume="7"
				Note Time="116" Value="A#3" Duration="4" Instrument="hat" Volume="9"
				Note Time="120" Value="A#3" Duration="4" Instrument="hat" Volume="15"
				Note Time="124" Value="A#3" Duration="4" Instrument="hat" Volume="9"
			Pattern Name="06" Color="7585e7"
				Note Time="0" Value="A#3" Duration="4" Instrument="hat" Volume="7"
				Note Time="4" Value="A#3" Duration="4" Instrument="hat" Volume="9"
				Note Time="8" Value="A#3" Duration="4" Instrument="hat" Volume="15"
				Note Time="12" Value="A#3" Duration="4" Instrument="hat" Volume="9"
				Note Time="16" Value="A#3" Duration="4" Instrument="hat" Volume="7"
				Note Time="20" Value="A#3" Duration="4" Instrument="hat" Volume="9"
				Note Time="24" Value="A#3" Duration="4" Instrument="hat" Volume="15"
				Note Time="28" Value="A#3" Duration="4" Instrument="hat" Volume="9"
				Note Time="32" Value="A#3" Duration="4" Instrument="hat" Volume="7"
				Note Time="36" Value="A#3" Duration="4" Instrument="hat" Volume="9"
				Note Time="40" Value="A#3" Duration="4" Instrument="hat" Volume="15"
				Note Time="44" Value="A#3" Duration="4" Instrument="hat" Volume="9"
				Note Time="48" Value="A#3" Duration="4" Instrument="hat" Volume="7"
				Note Time="52" Value="A#3" Duration="4" Instrument="hat" Volume="9"
				Note Time="56" Value="A#3" Duration="4" Instrument="hat" Volume="15"
				Note Time="60" Value="A#3" Duration="4" Instrument="hat" Volume="9"
				Note Time="64" Value="D#3" Duration="8" Instrument="cymbal" Volume="15"
				Note Time="72" Value="A#3" Duration="4" Instrument="hat"
				Note Time="76" Value="D#3" Duration="8" Instrument="cymbal"
				Note Time="84" Value="A#3" Duration="4" Instrument="hat"
				Note Time="88" Value="D#3" Duration="8" Instrument="cymbal"
				Note Time="96" Value="D#3" Duration="8" Instrument="cymbal"
				Note Time="104" Value="A#3" Duration="4" Instrument="hat"
				Note Time="108" Value="D#3" Duration="8" Instrument="cymbal"
				Note Time="116" Value="A#3" Duration="4" Instrument="hat"
				Note Time="120" Value="D#3" Duration="8" Instrument="cymbal"
			Pattern Name="07" Color="ff6b6b"
				Note Time="0" Value="D#3" Duration="15" Instrument="cymbal" Volume="15"
			PatternInstance Time="0" Pattern="00"
			PatternInstance Time="2" Pattern="02"
			PatternInstance Time="3" Pattern="03"
			PatternInstance Time="4" Pattern="04"
			PatternInstance Time="5" Pattern="03"
			PatternInstance Time="6" Pattern="05"
			PatternInstance Time="7" Pattern="03"
			PatternInstance Time="8" Pattern="05"
			PatternInstance Time="9" Pattern="03"
			PatternInstance Time="10" Pattern="05"
			PatternInstance Time="11" Pattern="03"
			PatternInstance Time="12" Pattern="06"
			PatternInstance Time="13" Pattern="03"
			PatternInstance Time="14" Pattern="04"
			PatternInstance Time="15" Pattern="03"
			PatternInstance Time="16" Pattern="05"
			PatternInstance Time="17" Pattern="03"
			PatternInstance Time="18" Pattern="05"
			PatternInstance Time="19" Pattern="03"
			PatternInstance Time="20" Pattern="05"
			PatternInstance Time="21" Pattern="03"
			PatternInstance Time="22" Pattern="06"
			PatternInstance Time="23" Pattern="07"
			PatternInstance Time="24" Pattern="02"
			PatternInstance Time="25" Pattern="03"
			PatternInstance Time="26" Pattern="05"
			PatternInstance Time="27" Pattern="03"
			PatternInstance Time="28" Pattern="05"
			PatternInstance Time="29" Pattern="03"
			PatternInstance Time="30" Pattern="06"
			PatternInstance Time="31" Pattern="07"
		Channel Type="DPCM"
			Pattern Name="02" Color="a0f1ff"
				Note Time="64" Value="E5" Duration="4" Instrument="DMC: drums + bass"
				Note Time="68" Value="F5" Duration="4" Instrument="DMC: drums + bass"
				Note Time="72" Value="F5" Duration="4" Instrument="DMC: drums + bass"
				Note Time="76" Value="E5" Duration="4" Instrument="DMC: drums + bass"
				Note Time="80" Value="F5" Duration="4" Instrument="DMC: drums + bass"
				Note Time="84" Value="F5" Duration="4" Instrument="DMC: drums + bass"
				Note Time="88" Value="E5" Duration="4" Instrument="DMC: drums + bass"
				Note Time="92" Value="F5" Duration="4" Instrument="DMC: drums + bass"
				Note Time="96" Value="E5" Duration="4" Instrument="DMC: drums + bass"
				Note Time="100" Value="F5" Duration="4" Instrument="DMC: drums + bass"
				Note Time="104" Value="F5" Duration="4" Instrument="DMC: drums + bass"
				Note Time="108" Value="E5" Duration="4" Instrument="DMC: drums + bass"
				Note Time="112" Value="F5" Duration="4" Instrument="DMC: drums + bass"
				Note Time="116" Value="F5" Duration="4" Instrument="DMC: drums + bass"
				Note Time="120" Value="E5" Duration="4" Instrument="DMC: drums + bass"
				Note Time="124" Value="F5" Duration="196" Instrument="DMC: drums + bass"
			Pattern Name="04" Color="ffe362"
				Note Time="64" Value="E5" Duration="48" Instrument="DMC: drums + bass"
				Note Time="112" Value="E5" Duration="16" Instrument="DMC: drums + bass"
			Pattern Name="05" Color="c7ff86"
				Note Time="0" Value="E5" Duration="12" Instrument="DMC: drums + bass"
				Note Time="12" Value="E5" Duration="4" Instrument="DMC: drums + bass"
				Note Time="16" Value="F5" Duration="12" Instrument="DMC: drums + bass"
				Note Time="28" Value="E5" Duration="12" Instrument="DMC: drums + bass"
				Note Time="40" Value="E5" Duration="8" Instrument="DMC: drums + bass"
				Note Time="48" Value="F5" Duration="8" Instrument="DMC: drums + bass"
				Note Time="56" Value="E5" Duration="16" Instrument="DMC: drums + bass"
				Note Time="72" Value="E5" Duration="4" Instrument="DMC: drums + bass"
				Note Time="76" Value="E5" Duration="4" Instrument="DMC: drums + bass"
				Note Time="80" Value="F5" Duration="12" Instrument="DMC: drums + bass"
				Note Time="92" Value="E5" Duration="12" Instrument="DMC: drums + bass"
				Note Time="104" Value="E5" Duration="8" Instrument="DMC: drums + bass"
				Note Time="112" Value="F5" Duration="4" Instrument="DMC: drums + bass"
				Note Time="116" Value="E5" Duration="12" Instrument="DMC: drums + bass"
			Pattern Name="06" Color="3fd7ff"
				Note Time="0" Value="E5" Duration="12" Instrument="DMC: drums + bass"
				Note Time="12" Value="E5" Duration="4" Instrument="DMC: drums + bass"
				Note Time="16" Value="F5" Duration="12" Instrument="DMC: drums + bass"
				Note Time="28" Value="E5" Duration="12" Instrument="DMC: drums + bass"
				Note Time="40" Value="E5" Duration="8" Instrument="DMC: drums + bass"
				Note Time="48" Value="F5" Duration="8" Instrument="DMC: drums + bass"
				Note Time="56" Value="E5" Duration="8" Instrument="DMC: drums + bass"
				Note Time="64" Value="E5" Duration="4" Instrument="DMC: drums + bass"
				Note Time="68" Value="F5" Duration="4" Instrument="DMC: drums + bass"
				Note Time="72" Value="F5" Duration="4" Instrument="DMC: drums + bass"
				Note Time="76" Value="E5" Duration="4" Instrument="DMC: drums + bass"
				Note Time="80" Value="F5" Duration="4" Instrument="DMC: drums + bass"
				Note Time="84" Value="F5" Duration="4" Instrument="DMC: drums + bass"
				Note Time="88" Value="E5" Duration="4" Instrument="DMC: drums + bass"
				Note Time="92" Value="F5" Duration="4" Instrument="DMC: drums + bass"
				Note Time="96" Value="E5" Duration="4" Instrument="DMC: drums + bass"
				Note Time="100" Value="F5" Duration="4" Instrument="DMC: drums + bass"
				Note Time="104" Value="F5" Duration="4" Instrument="DMC: drums + bass"
				Note Time="108" Value="E5" Duration="4" Instrument="DMC: drums + bass"
				Note Time="112" Value="F5" Duration="4" Instrument="DMC: drums + bass"
				Note Time="116" Value="F5" Duration="4" Instrument="DMC: drums + bass"
				Note Time="120" Value="E5" Duration="4" Instrument="DMC: drums + bass"
				Note Time="124" Value="F5" Duration="196" Instrument="DMC: drums + bass"
			PatternInstance Time="2" Pattern="02"
			PatternInstance Time="4" Pattern="04"
			PatternInstance Time="5" Pattern="05"
			PatternInstance Time="6" Pattern="05"
			PatternInstance Time="7" Pattern="05"
			PatternInstance Time="8" Pattern="05"
			PatternInstance Time="9" Pattern="05"
			PatternInstance Time="10" Pattern="05"
			PatternInstance Time="11" Pattern="05"
			PatternInstance Time="12" Pattern="06"
			PatternInstance Time="14" Pattern="04"
			PatternInstance Time="15" Pattern="05"
			PatternInstance Time="16" Pattern="05"
			PatternInstance Time="17" Pattern="05"
			PatternInstance Time="18" Pattern="05"
			PatternInstance Time="19" Pattern="05"
			PatternInstance Time="20" Pattern="05"
			PatternInstance Time="21" Pattern="05"
			PatternInstance Time="22" Pattern="06"
			PatternInstance Time="24" Pattern="02"
			PatternInstance Time="25" Pattern="05"
			PatternInstance Time="26" Pattern="05"
			PatternInstance Time="27" Pattern="05"
			PatternInstance Time="28" Pattern="05"
			PatternInstance Time="29" Pattern="05"
			PatternInstance Time="30" Pattern="06"
