Project Version="4.2.1" TempoMode="FamiTracker" Name="Famidash music" Author="Famidash team" Copyright="NO TOUCH"
	DPCMSample Name="OrchHitF.dmc" Color="a9887d" Folder="Orchestra hits" Data="ab391a1c6e9ef3dc11302106f2cdeefb7e0c0b853ec1c08fc617ff6518ec0188486e7400f0effdffffd30368423e7d6af8030f081e0000fcb3cfed0070f9fbc2070018fdf71c24370ff8ff1070b8ffffbe12cd1d7fc31f0000808863ff2230f31ee67f065fc401f8ef07e00623600f6160f0f3f9f3377cd0eb30c31b00f07ff0dffb4ad9d8f88273103060f832f63d0820f88c7f389c153cb6bd089f32bc6d7b34e4095ef73f480330dff3fb9e25008eff790012008bfe87013cc050fc771c9ee06cfc31bfff1e7fce000a36301f7b14c73800307ecf031ec097ffc7df2f000cff51827318fe6100e730c6f70ea3311ce7799fc3be0df8bc7f008020b8f879f071007ee03fec611c7ef007ff3e806d3c073c60033ffe60210e000cff7fdd8384ff7f8f631a85831f870984e381cfb106e2f887e3008f718cef79847f38ce373cc63f10e03f3ee01e14e00f0f800f3cf8c70f8d0f3ef4f39bc5c300f4f9fb021800623dfce71d0e82df78039f7e9d071c02c39eff6f8701058c800cee851ec777fec3035f7fb0c13098c331ce67f8e7231c80789ce31dc8f10ff2f118dff80e40f28d7efcc04b3e8030cc9318ff87273c808ff7cc0ff80107f8f307fd888770c0037cece37ee3813ee97883e0b8f36098f2799c5b0cf87d10e43808ee3b88f31f62fb0bf07847789ce471dcc30d5e490c863006f778df6f19907d98e3970ec4748cffc1036c2f74687251c2037e3f7098a1bf1f889c8fe3908f27ff32608cc621cee8216cfd372f02b8cff0883f78304f3ef03f00e01f78a11e4f983fff140700d0df7f80e13fe8733fc83107704206fcf0a778e6537d1002efddc2465e28e67fec871ab0c907e198c774318b78e304bbf09b333116d7f98f6b2e88419d8e308cc5159ef029d7ed80ebcb60d1d6e0df76a48b3a80d71a79229ff0588196e80db5fb711cd0ebaef2d12c718442be5c4c305eb59a8a5d1f25935d190cc32fbfa50eb75a0d707c8b91b8c732d80357bc072ebd288b967b0bc72a5da6410bbf428a78e619b387fd93c2a25da0d43cdc4d7d40bf1ca886bf80274b370ee541fe89924dddc1d2354bb3bce2e82cc2119634aa639337b75abd36ead0824baaa872bdd5a18e792192e4701f21553f78ca9bbaf564d5c81594695db5402e5b8a8632d32395a9bf6e55a5e96129ed4a89b870f3da48de588c625c8d4c2e7569a7938c8fdba8e7b04467acdc6a28e1182c721a5ed98d6efb0eae580b57aa854caad3aab7c98a6a289256551657b6d4b7aa5513adaa4d95944bb2955dda84224ba9aa66555a6b6d2d5729cd5696c929257595d6f214c5a84a6bcad46aa9576a5357b8a46dd42255ba329dba958aa52a4bab94aa354d6bb68db22a4b6baa8a5655494db5254b59a996b19aba6a9555da4a555965b3b44a55aad44e6d310d35694dda2a275769935aaaa5555323ad6a5955aad52a4d1955d552d656554bd5aaa8a5a9aa524bd56a55a556ab94b4aab232555575d552adac545ad552aa4a5576a5aace6a2555a9aa6aa9a65aa5aaaaaaaaaaaaaaaaaaaaaaaa"
	DPCMSample Name="OrchHitF#.dmc" Color="fffc69" Folder="Orchestra hits" Data="d51c0dc3cd73cf1cc00919c89ffcfb368745826f10f8c13cf93fe3b0070050767000f87bffff7f3fc002f2ada9e10f4e100e0000fefcb91d0097df171e0060faef8db09907fe1f0286fbffffd96037fc871f000040c2d95f0466fd60ff335c0907f0ef0770c211d8210c0c3fcf9fd7f425d761871b00f81ffcf37e998d8e278c4142c0f826f61e0600bcb38fe013faaeeb07f035fcff3f015b86f742d3c006f02875780a107cd28e87bb81a3f945784afcda7a3cf400affb4f6800e6bddf7796001cff79001280a1ff2180078ce5be637882d9fc31bfffcf9f3300c102fbd1a318e300607ccf030fe0e5fff8ff0640f84f18ce21dc6380e710e3fd8338c671def31cf31ee0f9ff0000105c7e1e380ec407ffa18773f8e007ff1ec017cf81072cf0eb0749340038fe7fdcc1c2ffdff3484338f8312c10c613cfe70307fce3100078e47fdf398e438ce779e33b8060c07f3c0718c7fdcff10770dcf308f340831e1e000f1cfcd747e3c147be3f2d1e03c0f7f7070000b10eff79c343f8861ff8f4751e3804439fffbb6380801848702ff81cdffc83479f7bd8300c7238c67cc73d8f7100e238e317e4f807791dc71fef00826ff4f183573c4018e609c6fff8c00378fc673fe0030ef8f9073ee6011c78c0473ef78f0778daf11670887f0cf2b01ff439417ed800b44a98bfff100770ffe183f997003ee0b81f10fe008e7796f33f21b8433c6f3684e398ffc401b6073b1c3c461cf0fbc10313f71f489e8f71f0e1e55f06d4480e714387d8fea71703cc733ce00f0ff1d283ff00c03fb8a01f27ece79fc50000faff038c7f50ef3ed4a10338d0011e7f4537bdea0314bcbbc50c2f14f33ffd41039ebc00c79ee2718cf0ce011afed2871ae069f77f9a011c771cc81ee0ce871ca7279cf8f0533dc0903ffec6071ce48743bcc0d36638931b2eb8c3b78ee118eef9e6b18632c4a20d9711e6726a55ec7a4a26db320cc397bfd2e2967380e35b8cd01767c8032fdd03471f63d4ba733856e95483167e05159cf34af6b0bf141ced02b1e5b19bfc806f0e54d11ff064b972280ffc16431bfd60e39555b8cf8cae012b7042b1beaa1e9fb42f6bd4410ea458877dea9ad3d8908bde48ce23b8e4b1e6b586358e64ba72f8c3238735150e2c5aaab1cacd5babde461d165c5245957bab438fb910491cfa23c4eac353ded4ebd2b4910b6aaacb96c8c42934b22a9e5c4777dfc1156bb8522da452a755ef64453524d1aacab8b2a5be55ad265935a74aca25d5b24b1b9254495555abb495db565b52ada5a33452499d7acc650d552acb54c732e63655e32ae5f4e294ae14d515ad75896254a52d995a4bed4a9bbaa8295b69492a5d994bbd52b154655aa5346799d66c476595a55555a9aa54dad49632a9d19ab49a8eadb4514dd5b46aaaa455cbaa52a7559a2aac6aa96aab6a695625354d55a596aad5aa52ab5592565556a6aaaaab956a59a5b46a2955a9aab654d556ad948a959aa55675294bd3d2a55ab2a82adb52a56aaaab155a55932d5965d5aaaaaaaaaaaaaaaaaaaaaaaaaa"
	DPCMSample Name="OrchHitG.dmc" Color="3ca598" Folder="Orchestra hits" Data="2b47c3383bf7cc084cc0247fb3f73ec702c313063e8a37ff1b863d0020d97000fcbdffff5f4f4820cf5e8e3f3820180000fef6dc0ec0f5dbc30100e3fe37482e07fe3f01c3feffbf1a76e32ffc000080c0b17f04337fc8df862f70007f3fc00923b0230c849fe7f735bef41c33dc00e07ff8e7fe88cdc60b6348080c5f31ff1000f0e61fe00bebd7b901bdc5ffff1ac813de0be5810d70941a9c02825f7c78b80f8ce687f09af85a3b0f7c607dff810630effccf790138ff39000460e87f04784028f79de105f3f831ffffe3e7062848b01f3de2980280f88f038ff0f23ffebf00847f54708770c700e718e3fe218e31ce7bcfb0f780e7ff0100105c3e0f9d03f8e01f7698e3871ffc3dc035cfc1001e7cfa21810380f1ff738785ffdf73ac011e3c8e01433cf1bc0f1cf0c7310038f4def78673cc78ce3bcf018200ff3c0718e3bf73fc21c63dcf90030d7c78000e1cfcfba1f8f0e1f7cbf21000dfdf0f0000b18e7fde7009feb881a7bf79e0008ebcfbbf3120600218ce45cff1ee1f0e7dfed0210c331c31dff1ee110710c7985fc0f10f791ee38f3780f00f1f3f78f20160cc83ccff58c1013efee9073e70c0c71ffa8c231838c0b3cffbe3006f396f8403fd31a4b11ff859a01f3600c701fbfb8738c0fdc70df997001e72c607c23fe078a796ff83e042383f0ec3d167bc73045f8b20c118e6bcef3b039ad39c2f2d603af30f1ed0bce830394a38f0fde1c0c4df07e1798c238f97ff0c88498e38d121b6ffe523c01ee3811f1fe4ca83ff00c01f2ef8e1c27efe190300f4ff038c7fd0bb0f395a80031df0f01bdd3ceb0314dc7b61c30b69fed38f32d0f2029c3da2730cf8678086dfeca8018fbbff690318e71c280f38f721e778c2c587cff400837efcc70786f8e1101f70ad434d6db8b016df4e618cbbbe79ca21438cea5845c8cb6655ec7a4ac9ae0c61f4f94b1d5bcd018e6f8c708f15ecc08b3f70f49146ebcee158e55283265f210567be641efb4b61b20bc4e6b1ab7c609f0335fc014f961b873cf00f251bfde0e84d15ee8be91ab08825c4faaa3abeb4cf167590038c75d8abae36e34287de48ce09ba78aa79ab58e388e9d2e10f278d3505078b965aacdcb9b57a1d7558703145957beb50670e86c2853f50aa1f4e79d5edca9ce18232edaa095c3645435c7aa44cbfdd29533d2c65570a71b2791da9cb6294b24a26a72e6d9d149f75d13396b864d5d590700c46cee2ca1bdd7d87166bb8522d98d469d53759544322ab2ae3ca96be55ab4656cda9925c52ad2e6d4852295555abb4e5b6d595d46a3aca282575eacc650d55ca32d5b1c4794b2da794d38b539e14d5256b75a214555a93a975b42b6deac2293b69914a57e6d4ab144b966595529da9d66c4759a5695595ac4aa54d5bcaa4469bd29a96ab7452532dada64a56adaa4aad569a4aac6acabaaa9aaa55d25455955aaad6aa526b95a2559569aaaab65aaa65a5b4aa2555a9ca2d559dd54aa95869965ab5a92cd3d4a99a2aaaca2e55aaa6ae5968558d2d5959aaaaaaaaaaaaaaaaaaaaaaaa"
	DPCMSample Name="OrchHitG#.dmc" Color="b5c2ff" Folder="Orchestra hits" Data="35c741dcdc3d1bc1400cf8cbdffb8c05c313061fe6e57f62d00340688703f073ffffff0734c0b3abf18703c00100f0f9bb07c0f3eff00040f87fa32479f0ff048cfdffbf0bb3f10f3f0000009cfd26c8fcb0ff848f3880ff0f704104394221ec9edf6f7cf41c1b2e00f80fffde9b78345f8c2110185db1770800dcf903bcb1b76e0ff01affff13681bef4279a0014ea9e114102eb5f1b80f8cf2233d16deabe3d403eefd070a60ef7def9c00cc3f0f900082fe33600151ee9de18579fce8f77f7e6e0042837e748c9902c078e7c0235cffe7ef0d20fc11e30c71cf007788f8774831c7bcf38edd07defd0300002edf03e3001ffca9c71c1f7ef07b8035efe080051f3f1630008cffcf1d0affff73c610079f21218817e77d70c01f438030fadfbbe31c31cef9f31c0006fc730e10e7fe397e9071cf1573c0a0e3013838f8dba378f8f4f9b61c06e0fd5f8000c01afffce1086f7ce0e9770f0e40ecfcffc680400418ee8277bcfdc3d1e7870d23cc3066bcf1f711038871e30f18ffd0f3983bfe00c14b9f1f9c7900887388fdc7030ff0fcd30f3c70c0e7873ef18003033e79fe8f039e3a6f8411df1c70fc039f05fae1001c13fafb8718c4fef151fe11e081335f00ff80f18f96ff617010cee7601c3de759137c1e40851876dcffce007bccf97480e3cc3f38e01d3cb48c120e7c3f1c0cf71f88e731071f97bf06649a21a61866fbb7ab007bccb9ab80e9e43f3cc03c3c348e1207fc1f0e0cf71f88e731078f977f06648a31361c62fb9f97007dc6111f1f72f2c13f00f8e1821f07e7fb570400f8ff03c21ff6ee5147063868c0c33fdcf2ea0304f73e58f282e63ffdd040cb031c7be23126fc1ce0f0cb8e1670fcfe670e60ec1ca807cc7dc89c279c3c7c95070cfafcc707067e38c403e76cd4e485835bde9ae1887bbe9d6ac810a38d65443c9b55f17a4acab6c2107dfed2e2ce1c50bd25c23d66e8c1d23d587ca4d1da1dce94cd0c9a7c210567bea4c7fe121cbd406a8e6ff2812f0735fc8195e5c6a883fc51727487a59755ec8be91aa8c089b0bdaae3cbbe6ad441062c75d8ab6bceb8e0e28de49ce0c2abb5ad38e588e9ecf0e3c8615338305caab172bbb57a1d35169c5451b9b70e1dbb1012877b42aa0f4fdef47aaa1a2ea8b2ab2670b944436a3a29d35f772ad5c3525e29c4e17a6da4c752c4b4926969d3d691f1dc45d758d864d535941843c934bcbad17b1f5aacb1520d19d559f58d253524b2b22c2b5bfa55ad464e75aa2497d8b2cb8644a65455cdb4e5b6b325b59aa6345252abc79c35542963d531636e53cb2955bd38e54a5297ac75a21855da646a4dbdd2a62e9ab463452a3de6d42b9592655929cd9969cd1d6595694d55ac4aa5d3962a6ab426ab5ab5d2514d2dada69156adaad269a5a9a8aa25ebaa5aaa55d23455a5966ab52ab55649565596a9aaba5a6a6529ad5a4a95aabc52b5564ba658699659752ad32c9daac9a42adb54a9a6b6596855634d3656ab545553b5aab452ad32abcacaac2ab52ad3aaaa4aaaaaaaaaaaaaaaaaaaaaaaaa"
	DPCMSample Name="OrchHitA.dmc" Color="ff8f8c" Folder="Orchestra hits" Data="cd318ccdddd9092630e0b6bdff8c85e085c1c7bcfc27861e00a00d07e077ffffff03057a7a153f1c800600e0f3b30fc0f95f3c00087f6f2ac983ff1318fbff7f0dddf847070000c0d91f61f243fe0d3f38c0fd074c9820071443f37ebff1d21d133e00fc87bf7f914df3620c8460bc60ff08004efe802ff4d7ee80d7f8ff2fd032eec23d50801339dc00e1ca8dc33f18e54bb816afd579f4c0bc7fa40073f7bf5b01cc3f070880a0ff041c10e5fe0c17a6f9d1ff7f7e378090a08f8f982900e21f034778fee7ff03087f4a98317708b823e6fe9022e6dc3b67efc0f37f0000607d0e8d411efca3c38e0f1f7e0f78730e0e347c7c48700088ff7787c6ff77ce0a71788c84100fce7f70e08711200efebd3fce8879e6ce392104fc7903c4d07fe78739f367c20163f40c1870eedc21678cb873e28f333f8efe01e0cf033b0cf8e1000b07bf1fc5e3c3f7ad3902e0fd3f0000a8e3df0b0ff8e383c76f0e0e60f4fef71108882061179ef3f68fa3e7878d11628c9937fe9c31008e991f64fe907bcc8f3740f8d1f3c3c90360cc21f38f170e38fee5830f0c7c7ee493030e0c7879fecf012fdc0f70e0cf81631f7c16e4e301980afaff2107d83f37e49f000f4e7c10fec078c7e37f1806e17c0ee2f88d7323f81e0273087d43e61fe93fc0bc83e3c2997b2c7c3041840c3bf7ff1aa0c7ac4f0b8c93ff70c01d3c4c8bc481efc3c170ff209d678c1e977f039264cc4447b4ff7904e81b077e3ce4f2e01f007eb8e073e09fbf3100c0ff07c61f7cfbd0e100830c3c7ec5cdab8710fc5e2cf890f9e71f1ab03cc0ec89c70cf81be0f8b1a3069cdbff6a8071e3a01eb07bc89c272c1edff480a0cf7f3c18f8e1c007e63cccb4e1a18b9f13c6b8f3efcc1003de8418c7c28917df1e585f70e806ff3b7474806bc3133e380b34f121f7671cf0efe4292723841e4f81bc5a357c9e52f22a0cf1f18f8b9b73c0bc25c48f193ab8f403c747466b773855ce0c197e41c1d98bf6e82f61b403691ebbf4811f07157fe0647a8c39f017c9d10f8e9755ec4dba068a9810fbaa1e2ffdac3143062c5df4eaea340e1dde9075828ba7e6ad3163a2ba3a7c9c1c568583a2a9c6cae7b67a471d062715957bebd09943241cfe40aa0f573ebdae6a92832abb6ac0e51245593a29d5df9d4af530e595421cdb75c19b52c4ac6172daf4b414cf1d3d638593d555941861e40caf6edcfd61c5864b35a4d459f593451d88ac2ce3b2a55fb51a39d5a92497d8eab221514955d54c5bedce96d45a8e3452d2e9316745953256cd12bb4d8d2b65bd387992d4256b9b8851658ba939f5d2aa2e96ec6891ca555abd524c9565a5549b6acd1d5565595345ab4a9aba64ca5233d6b4b5aaca96aaac9c69a54a959e36a568b1269b39aeb45153cb6a1a69b5ac4aa79526c3aaa5daaa966a154d53556aaad5aab45a49565569aaaaad955a96d2aa2955aaea52b5564b295a9a65559732cdb2a926932adb54a9a6ae165ad5d862632ddb54aaaa951a2bb5544ba656ab542ab5b255abaaaaaaaaaaaaaaaaaaaaaaaaaa"
	DPCMSample Name="fdbass A#" Color="91c76b" Folder="famidash bass" Data="fffff2f701ec03308024014362b49b3cd8803f07d79f82e6c98cb813113f71c0dd7bf8ffff3fbd6f02f60f008018021c50e09f3d60c0df02fa3724f707c0dc01068f78c0cf3ffcffffbf7ff701ef07008090010e08e8ef1c70e08f0f197732f203e0d881800779e0e7fffcffff9fffb703fb0700408c000f60f8870738e0c707d73c067b0360e48081077c70e6fffcfffffffff700ff0300c003800f60f8870f38e08787273e06bf0038e00180833ef8f17fffffffefff7b00ff0300c003807320fc07071cf0c707673c037f0070f00080613cf0ff9fffffffbfff7c80ff0300c003c03c80fc83070cf0e7071fab00ff0070f000001c1ff8ff1fffffffefff7c80ff0100c083c03808efa3020ef8cf81beac02bf00e07000801c1ff0ff1fffffffffff79c0ff0300c003801d88fec1030cf8ef00bfaac09f00c03a00002f1df8fe9fffffffffff0be0ff0000c029001f48edf5000cfc5781af2ad49b00003f0000be0afcff87ffffffffff0fe0ff03008025005788def60100fc7f017d29f89a0000fe0000ec82fefea7bfffffffff1fc0f70500c005005d22adfd4200fc3f01ef22e82f00007e0080da827dffabd5ffffffff7fa0fd0200d00500ada4aade5501f05f427b05f8960000be0090aa44dffe6ea5ffffffffff607b0500d01300aaa4aafab600f8b7a0de04f42d00007c014855c15eff6e21ffffffffff53bb0900d0154024a5aa7a6f00f8afa46e01ba2b0200b80289aa90bbfd3741ffffffffffa9760500b813109152a5766f00bc5f51bb01b437080070424855a1b6fbaf80feffffffff55dd4400e825844452a56eaf00ba5fa9de0268af00007011a49a48dbfe5d02fdffffff5f6bbb22006a4b4244aa926d3701ba5fa9bd09d05e0100d084905649d5fdaf80fcfffffd5fdbb61280b4952442ac94ad3b20b66faa7b0364bb0000a81222ada4aaf76f04fdff7bdfb7edae0904694b4942b252ad9b20b5b7aabd85d0b60400a84488aa5255bf6f42faffedfbaedb5d8920aaaa5211a9526baba06a57b56e93a45a09005249482a95aa7d5f49f6f7eebe6bdb6e49445255a922a9aa5a2b91aa5b55bb2aa96a118094929054a9d4ee5ba5da77b7f7b6b65d2591542a5525a9d26a5591aaad5a6d9532ad2204a914494aa5b2ba5b55ed6eb7bd6d6d5b9524a554aa4a4a556b5589aab5aab62a55554542524a4952a5cadab6aab66dbb6edbdab64a4929952a955255ad9652a955ad5a55a9aa9212a554524a95aa5a5b556bdbb6dab6b6b62a954aa554a954a5d5aa54555555abaaaaca94925229a554aaaa5aad56b5b6b65a6badb5aa52552a552a55aa5a5555a9aa5655555555a54aa9542a95aaaaaa55ab6aadd56ab55aab95a6aa52a55295aaaaa5a5aaaaaa55555555a92a952a95aa2a55ab6a55b56ab5aa56ab56555555952a5595aaaaaaaaaaaaaa6a95aaaaaaaa5295aa54555955b5b2aa55adaa5ad5aaaaaaaa2a5595a9aaaaaaaaaaaaaaaaaaaaaaaaaa4a55a5aaaaaaaaaa5a5555abaaaa56555555555595aaaaaaaaaaaaaaaaaaaaaaaaaaaaaaaa52555595aa55555555abaaaaaaaa6a55555656aaaaaaaaaaaaaaaaaaaa55"
	DPCMSample Name="fdbass B" Color="8bffff" Folder="famidash bass" Data="ff7ffb0f037b0400091878e0842afbf1807f187a0f987d180a3d1d7860cbaf3ff0ffff3fe55f86fc000018083ce081993778c0efc4b8079eae81c10f0c3c20d2fb3ff0ffffffef7f043e000887046cd080831f7ce0368ce703cee700c407072e80f0fddff8ffffffff67825f00000702781ce091073ef81e84e503677700c083070e00f8fddffcffffffff6f811f008403023c1ee0c0071ff80fc4e1c1f43700c083030600fcff4fffffffffff4fc10f008303001e0ff0e0831ff807e2f001e63f00e081010600fdff8fffffffffff37c20700870300ae07f0e0830ff81771f100fa1f00e001000708fdff8fffffffffff37e00700c30100ef03f8e0810ffc47f0e000f71f00e000010740fbff8fffffffffff4fea0700e00000f70378f0810ffc0fe07800ff16007820800340fbff9fffffffffff07ff03001cc000ec032cbbc083ff0fc02a50f80f00f001800542faffdffffffff7ff47ff03001c1000fc06d4aacac0ff0fc02a80fe0500f802c01201fdffaffffffffbffd3fe0700a80800784555d5aa80ff1f405500ff0200f802505a00feffa7fdffffffffd5fb030068050070a552ab1dc0ff1f805600df04007c05902d00f7ff55fdfffffffff4ef0200d80400a8aa52ad2f80ff1f202b005f0900bc01922d00b7ff2bfdffffff7ff5fb0500d81200a0aaa4b62fc0ff1f805600b70400f600491740dbff2afeffffff9ffafd0500b60900a0aaa4ba0fc8ff1f901680ad0200be00c91640ebff4afaffffff9fbaff0580da120090aa92ba17e4ff0f420ba05509006e01a40b90f5df45faffffff8fec7f0b406d150044aa92f626e4ff0f910aa8aa0200bb20d01690da7f23faffffff4bdafb0b20db4a0082aa4aee8ae8ff8f4805644d09005d01a20d21f5ef22feffff7f15b5f72590b61a4140aa4ab625b9ff4fa422d0aa04803609d04a44dabf92faffffdf4ad5de15225b558420a94aad25b9ff97a482a8550220ab04512589eabb49feff7f77956abb25a2d62a4990a4aaaa29b5ff2ba584685542405522a85292b46fa5feffdbddaaaa6d95a46a554a8894aaaa2ab57f5b2989a4552290aa8848a524b5db4afdff6d7753d5d692545555254952aaaa2aabefd65212a99624445512514a29b5adaafeefb6db965a6b2995aaaa4a494aa5aaaaaadbb6aa24a9aa28922a4552524ab5d6caf6f7da6dad6a55534a5555a59252a9aaaa6adb5a5549aa4c2949a99292524ad55655bb776bdb5ab56aa95455aa4aa552a5aaaaaaadd5aa942a552a29552aa5542ad56a556d77adadb56ad554a5aa52952a5595aaaaaab56a55a552952aa552a552a94ad5aaaab6adadd66ab5aaaa2a4b55aa4a95aaaaaaaa5aadaa2a55a5aa54aa54a94a555555d55a6bad6ab55a55555555aaaa54a9aaaaaaaaaa55b55455a9aa52a5aa5495aaaaaa5ab55aabaa55abaaaaaaaa525595a9aaaaaaaaaaaa5555a5aaaa4a55a9aa525555adb4aa55abaa5a55ad2c55555555a5aaaaaaaaaaaaaaaaaaaaaaaaaa525595a5aaaaaa5a55adaaaaaa56555555955aa9aaaaaaaaaaaa55"
	DPCMSample Name="fdbass C" Color="e783f8" Folder="famidash bass" Data="ff3fffd7605a00000489072cbaf465003f1fb92e619f8121a7910f1afeede5e7ff3ffd7c807f00010380031ab8fc81037f09fc65c47f011097810f38feede1ffff7ffe7d067f00800380011a38cf43037f08fe6cc43f012007810f38fce7e3fffffffffd0c7f00800300031994ef41069f07fc61883f010007090f38fcffe3fffffffffb1cff00800300071898fbc100ff01fe3180ff00000f000f38fcffe3ffffffffff80ff008003008638c8de8103bf09f66180ef01000f000e78fcfff1ffffffff7f41ff000007000e3888ff8103de03f31183f300001f080c78f2fff9ffffffff7f83fb00200c00361884ff0103fe07f123816b05001e0014f8f1ffe3ffffffffff81ff01400400760881ff0107fe07f04780bb01003e0030f0abffe3ffffffffff81ff01c00000f40481ff0306fc0ff00f80e701003e0020f8abffc7ffffffffffa1ff01800200d815a0fe0302fe1fc07f00ea01003e0200dadbfecffdffffffffc1ff00800500600f90ef8300ff1fc07f00d40200fe080054edfeaff5ffffffff87ff010056008016c17e4b02fc3f807f006a0500fc050058d9fedfd2ffffffff4fff01005a00001b48dfab00fe3f00ff00540500f8470028a9fffba1ffffffff9ffe0300ba00002c487bb701fc7f00fd00540300f80f0094547fffc2ffffffff4fff0100bd01002441bd7d01fcff00fe00a80500f04f002891fd7f43ffffffff9ffe0300be01000991daed02faff00fe00d21200e037005492f67f43ffffffff4fff0200fe02081284da7503f5ff017e00a50500e03b01a848f6bf23fdffffff4fff0100fd05824820d97545f4ff017e01521500c06f024889ba7f0bfdffffff4bfb0300fd0d412490d4b645f8ff03fa08485500c05e1148116dff46faffffff13fb0700fa2b424890d4d64a78ff07f54290260180bb04a4446af72bfaffffff25fd0b00ec9b442444b2da4a74ff8bda22221501c0b6244889d4be97f4fffffe95fa4b007437252241a95653d4ff956c2591920048ad129114557b57d9ffeff74ded2b04d4ad4a9210a5554bb2fdab6a25499204905a492425a976576bffb7dfabda9b08d25aa59288545555aabd5bb54a49494420b5944449a9b6addafbdb7e5bb55b2252ad4aa544545555a9f6366b554a291242a94a4952aa6a5badf75df7b66a5b495455552a254a5555a5d5add6aa5449514852959254caaaaddaee6dbdadd5d694a4aaaa542929555595d55aad55aa4a4912952aa59452b556addd6d6d5badad4a29b554954a2955555555ad56ab2a554a494a554aa95255ab56dbadb5ad56aba55255aaaa542953555555b5aa5655a54aa5944a952a5559d5aab6b5d55aabd54aa5aa2a5595aa5455555555b5aaaaaa52954aa5aa54aaaaaa556bad55abd5aaaa2a355595aa52555555555555adaa525555aa5255aacad4d2aa5aab55b55a55ad5455a5aaaa545555555555555555555555a5aa5455a956a956d5aa55d5aa6a5569aaaaaa4a55555555555555555555555555a9aaca5255d554abaa555555abaaaaaaaa52555555555555555555555555555555aaaaaaaaaaaaaa56555555d54aab5455555555555555"
	DPCMSample Name="fdbass C#" Color="ffac7f" Folder="famidash bass" Data="ff7ffe27d0070090088c7830f24f00fe39796e94dd00a61378c1f5f507ffff7ffa3f683b00800070e0c1e23e047e067e5b843e01d807e081a7ef1ffefffffcffc977002000c0c100873f1cf859389709f901209b84070efe3ffcfffffbff87f7010006000702cefc30f063e1cc19f0078066100e38fcfff0ffffffff5ffc06000c001c1078f2c1e0cf813b66e01f00982038e0f8ffe1fffffffffff03500300070c0e0f007079f03af19037f00c1806080e7f3d7ffffffffffe37300c000c080c16b0f067e07bc710cfc0104020301ceff0fffffffffffd7d7018005000304f97f40f047e0c310bc0f180e04003c1f7ffcffffffffffbd070016002024ccff40e03f413703e01e40311800f09ffef1ffffffffbffb0e002c000011b8ff03c0ff01fa05807f00a04300c07ff8cffffffffffffa3f00b000000c60f70f04ff0fe01f007c00a08f0040b7f33fefffffffffd77f00c001003001fe9f00ff0f807f00f00300fe000066f7ffb4ffffffffdfff018005004005f85f13f87f00fc03c00300fc03002cf5ff5dfeffffffbffd030007000013d0bf1df0fe03f007800f00e00f023051ffffe8ffffffffff0f003c000010a0fb7ba0fb1f801f001f00007f04a042feffa3fffffffff71f007881008000fded21fe3f007e00fa0000fc208005faff8ffeffffffebff00e02500000274df15faff01f801f00200f083000de1ff7ff8ffffff67ff05c09d080000d0fd9ae4ff07e007e02600c00b012c82ffffd1ffffff97fe1700df24008080ddaba2ff1fc017405b00009f00a882faffc7feffff57fa1f00bdab000280ecae8afe7f005f80ba0000de08a084f8ff17ffffdfb7d47f01f0ae0a080069bb4afaff017a01ba090078094025c8ff5ffcff7fefa47f05c0dd9a2000a4dda6e8ff0bd805d21500f02a002a88defff2ffffdd95fa2700dd5a91008876aba2ff0f6227a49608c056022841daffaaffffbbabec5780d4d6940408d5ad4afd5f442b915a4480b6044811d2fdcdfeffb7d7d4bd0251abaa2420aab6aaeabf92aa446a2201b54a208948fbaef6ffbbbbaabd254455552581a4daaab47f53aa24a98a02aa9510492475afb5ffdbbd55db55a254552905496aadd2faabaa92a42a0a9295124992d46e6bf7afddaddaad2455aa2a25a254b552eb5b555552aa28224d25494a52db5afbdeba6db56d2aa5aa4aa5884aad2aad5dab9652a99444a94a4a5252b5d5b677ab5bab6d552a5555aa24a9aa2ab5da5aad52a9524a52a9945252556bb5ddadb6566bad5455a5aa9494aaaaaaaab5aa55aa4aa9a454a9945255556bedb66aabd65aa5aa2a55a552aaaaaaaa6ab5aa4a55a952a952a994aaaa556b5babd56a55cb5455a5aa52a9aaaaaaaa56555555a9aa54a954a94a55b55a6bad6ad56a55a9aaaaaa54a5aaaaaaaaaa659556a5aa5255aa4a55956a556bb5aa56d5aaaaaa2a5555aaaaaaaaaaaaaaaaaaaaaaaa4c55a62a5555ad6ab5aa6a56d54a55555555aaaaaaaaaaaaaaaaaaaaaaaaaa545555a9aaaa56d5aaaa6a56555555a9a9aaaaaaaaaaaaaaaaaaaaaaaaaaaab45455555555b5aaaaaaaaaaaaaaaaaaaaaaaaaaaaaaaa55"
	DPCMSample Name="fdbass D" Color="ffff75" Folder="famidash bass" Data="ff7fff01f6000068c1c082d73a00fe33d873f83230d902d3daf23bfcfbfff9d7c19f8000002c08e8ed06c03f039f0f7f00922d30382ebfd3ffff3ffe3fde020804802601f96e00fc32f879f007a0d00102d9f577ffffffcbefe35b804000700cb0cf81a15f061f077e02263c00309cfdefffff7ffe3e7f1c0000808d00ff1830fc87f0e3c037c0c00300c5f9fffcffffe7dfe7c7010100e00870df01c2ff103e0e7c060c3c00209cfcfffffffffcfff91c008000ca80f21d10fc8fc1e3808f80c10300e3c0ffffffffffff8fc7010204800d187f03c1ff207c02f809187800309cfcf7ffffffffff783900c000e001f23f20f81fe007007f00c11700c6817fffffffffffdfc303000c000730fe0706ff037c00f01700fc00c038f8ffffffffff7f7d78008000e000e6ff00f07f401f00fe00c00f009887fffffbffffffcf87070008000ea0df0705ff07f001f00d00f8018075f8ff2fffffffff7ff20000006002f2d715f07f803c00f700801f00a4cbf5fff1ffffffffaf0b000000055077f702fe0fc007601f00f00120d9aaff1ffeffffffff7b0080004000b6de37e0ff017800f503001e004aadf6ffe1ffffffffbd0f000c0000d0bcdd05fe1f4007585f00800340d5d4ff1ffcffffffdfff0050010000b4ae37e0ff076801db030038009855dbffc3ffffff7fdd1f102d000080ba6d13fc7f400d6877000003006b55ff3ff8ffffffd7fe03e802000068d72ec1ff0f7001ee0d006000a055edff83ffffff5fed3f803e00020075ed05faff801660f700000b00d854fb7ff8ffff7fd5fe07d00b4000d0ae5de0ff075401ed2b00600200ab6aff87ffffff36ebbf00bd000980ecda46fc7f0855a07d01004b006055fd7ff0ffffbba6fd87a027200142b7b644ff2fd002d52f005009002c55ff0fffffbfabea6f81dc0824106a6b4decff412a50fd02004b00a02af5fff0ffff5b2bf72b901b420221bbb6a4fe1fa212543f0068110052a9fd2ffeffdf56d56f056a432410a96b4bd9ff112a41f50601550820a5b4ffd1ffffb555ed2b419b444244bab692fd2fa21254dd10a812209452fd8ffcff5fadaaf71254954844a26d4dd57f152911d516419a08444a69ff52ff7f6b4ded5d4255922414d55655f5af921249ad12512942a494fa5bdaff6bad56bb95942a292249ad5569df4d2989d22a8952919054aa7d55f76f6badeab692aaa41451d25a55d6b7aa94a4ac52a4522452a96aafda7d5b6b55edaa5295528954aa5555ed56554a2a2ba5949244a954db56bbd756ab665d95aa4a292955555555dbaa2aa5b254299592a45255d76abbb5d6aa6aab5455a95252555555d55a5595d22a552a959452a9da6ab55bad56d56a55aaaa542955555555b55a55aa5455952a9552aad45ad5b655ad5ad5aaaa4a55a55255555555adaa2a55555555aa542a5555b36a6b55ad6a55555555a52a555555555555ad52555555a5aa52a9aaaa6ab55655b5aa5a5595aa2a55555555555555555555555595aa2a555555d56a555535abaaaaaaaa5255555555555555555555555595aaaaaaaaaaaa5655555555ab55"
	DPCMSample Name="this" Color="8d69e4" Folder="This is a time machine" Data="9555555555555555535555555555555555555555555555555555555555555555555555555555554b55d952cd5453ce545355655555955595c69559534d9555d155d554b5388e55351557a696595a711cc775548d71dc31463e87c339cc53e6180fe33cccd3617887b1271c3e0bf519359645ceb5347cc1355c39b5081fc7e11ccee31c638e71468cf363cc39e38c31e69c7138c6cd713c8ee1e33863ce391e77e018c7708e33184fe3380f7b0ee761189f618e98713c77c7183963618cf3e338c7e3781847fc0c8fe318cff09883f11872c7f8311cde313e4e8073e6ccc93123dec53db8731c9c01334fcf7923970f7f800338c00ff887f17c8effe00ff8c01ff0031ec00740000ef07ffeffffffff0f008001100497f631fee37f088f218e203800c3203cc3ff7cfe7ffedfffe1037c000a30801ff8030c000170d813fffbffffff7ffe07ff001c000000000080f3f3fffdfffff30ffc001e80010ee3311c101118800df8c7ffffffffffeffc70001880834000003006eff9ffbfffcf791c0770000ec0201cc7e37f381ec7e3701c8fc3791eff71cee37138128e83e140388ec3e1388ec7fff1cfc3e701e7c018c7c1188e610c73061cc7e3f1789ee3738cf3611cc7710e9c731ce7e01c1c8fe3e70c8ec3e1381c0fc7713c1cc7e3f8301e8ec7718c87e3719cc771388ee39c8fe11cc363e0380e8f719ce7f0380ee3781c8ee3381ce7708ef1381cc7f1701c8fe3388ec3731c8ee3e038cff1e3c0cce17118c71c87c7717c1c8f316e8e877386f1e1380ee31cc7c3713c1c1fc7c8713c0e8fe318c7f1388ec7318ee3383c8e73381c0e7f1cc7e0781ccec3311e8fe3e338388ee3701c67f0380e1cc7390e8fc371ce39731c1cc7d9718cc7e1310ec7b139ce717c1cc73c0ec7711c87e171709c39761c1f721ce3388ec7e3381ec7e1381e8763cce138e678381e8fe3701c67ce713c783c3c8c711c8ec70c87e3781cc7f1709c717c3c8ee3713c8ee3781cc77138e43838ce9ce3711c1c679ce3e0e3703cc671380ee73c1c072f8ec7f038c7e3381e07730e87733c8ec3713c8ee3f1380ec3f170cc73e0f8e1701c1cc7783c8ee3388ff1701cff001e8ec3338ec3731cc7f3380e87e3181e0fc70fe0713cc7c36388e3e3f1383c0ec7c73167f03c8cc781f182e7e083e7e0b83f780e9e191ec7c33dc00fe6e164fc00505555555555555555555555555555555555555555555555555555d5b2aaaaaaaaaa5a555555abaa4a5b55d5aa2a6d555a2bad2aadaaaaaa5555"
	DPCMSample Name="is a" Color="997c73" Folder="This is a time machine" Data="ee81c3381e8fe3618cf1c03dc31f0f3e0f1ec7710c8f07cdc1003c301ffee79fffc11f030108c001fee7fffc81ffe00d60d0073c030e831087c1f1fce7f9fffc3f3e080ee4c17ff28f7300000000000000ffffffffffffff0f000200c400008161c08ef3fffffffb7efb0e3e8307e6811fe0033c00010000000000dcffffffffffffff031c08010e0004008371381ccfe37f3fdf47cf7f86ffe003e7e00438c023c0004000089ce3ffffffffffffffe11010c4000c80010080c3f0fcfff7f87e3cff781c8ff3718fe3010c40100fc041380c1f8ec7f37dbefff7f1b98fe3313c8ec361000cc1000008c7f13cffe3791c8fe7fff879738ce3e1301c8661380cc230388ec3f1389fcfe77b9e1fcfe161188e6370188c1b033f80738c719e718ee3f1381ecfddf33ee38371701ce3e0300c03c70cc70de78cf3c7711c8ee7381e9f778e8339388e711806cc713c0e8f8373ce8f73dc1c67671c0e87c7611c07c7711cc7c1318ec7f1e318c7f1713c1ce7f038cec1e338731c73600e8383e3788e8fe3391e8ec3716676cc386ece70708cf1383cce7d1c8787608fe1713cc479381e8ffb1e8ee7017980c17308fb00fc0fff7c40ff6087c370060c8707c7e387ffc1fbfce07918c2e7f0100ec00078fc03ff87e77c900f36e00ffcd10ffe811ffc021edc0153a0000f88633efc77fc9fff7e00ff00c3ffe01f008003e0c003ff813f7e803fc0f11ffcff7bfc01fce198738031002000401e82ffffff4f7df938fec0ffc4a0ff803f00000600ea03f807cefc00fea0fdfffcff1dff0ffc318c9c010000000100a41cfe1fdf7ffcbfdfc7e3793c87e3f1181c2110040018c2e0701cbefbfffdfbe7fbda6bf584c1104218824150445294e638f7ba7dbeb39f7ba6368ae3145a47715c244a89802aa1f258eaf5d4f5d5d5b5d97a553527a95a62a528a9944869982c4d555b2dcf5b559dd6b2967166aaccd4a82c952a55aa346555d56cb55ad5b2eab4aa2a4b9563b1d254555559aa4a555535d5ca725a562d551d2bcba6292b4d555555555556695999a9aaaaaaaa9c66955555cdaacc4ab54c4b4d555555555555555595a5a56aaa522dab6a55956555a6a59966d5346d9a55a5b1aaca2c55556a1a2bb56879aaaab265a95665559a59564d55d594a956d5aad39aa45295542d464b9bae8c2769353d5c5636ad15c7d41c47952fc5964c5555555555555555555555555555555555555555555555555555555555555535005000c45555"
	DPCMSample Name="time" Color="ffe461" Folder="This is a time machine" Data="c70c3ea877f840fc303c1c0f3f1c0fc7730e87c3300eff701e0f83c3f8f3f83080e308f860cce7c3f3e3e161c0e361f887e3f1711c83c1e3f1fb07c303800fc0ff1efff7783c0c30107e78781ec3ef03cc0f86ff039e0180ff01ff83c13f00ff0f00ff0fe0ff00f80780fe03f87798cf00f0ffe3ff008c3f806700802feef10380ff07ff0f00fe81ff3ff07f00fe07007e00c001006cf8fffffffff71f180b0004007e00003eceffffff3f108007e08101803fe7c7ff11feff0ff00300f00f807f00ec3f00ff7ffeff01fe02008011807fc0817cfcff7ffeff03e01f00601b00500000ff1ffcff03ffffc0ff0300f003fe1f00c0ff43ff0700fc3f007c0000ffff01fee3fdff7f40fe03700000800100c00ff0ffffffff3fe37986070000feff03fc0380fd0f000e00fc1f8060d73fc0ff3f00ffffe1ff0300ff1f00380000f803807f00fcfffffdffc0ff0f00400cfe3fc00703c07f00f91f00d0ff612290ffff799c0ff9ff1fc00ff83f00000300003f0080ffc3ffffc7ffff03f80d6230c0ffc03f800310e207300077f8ff07c0ffe7e7fa0fc0ff83def800fe3f00000000f80000ffc7feff7ffeffe7e200b80700f807e0ff0f00f501005b00c0dff6fc3fdcc7bf01f01ff0ff0fe087ff470680010000017004fbffffffffffff8303000c0078e53b7d02f0ff00c00000f807c0fffffdff715bf80ff80f0fc00ff07f00e00300fc03007f00f8ff2fff1ff8ff1f807f00f003e0fc8f410f00000020c0ff00fcffffffbfff3f00fe00c0ff80fe07e07f00e00300fc0080ff00fcffffff3ffc7f00e001003e00f07fe0ff0f801f003c00c03fc0ff3ffcffc1ff2f803f00f03ff01f7e00ff01100000e00080ffc7ffffffff1fff0f000000c00f80ff01ffff630600e00180ffc1fffffdff018f013e00ff007efc03fe07fe01f80f000000008006fcffffffffffffff000000000000e03fff81ff53fdff01f80300fe83ff3f807fe02f08802300fffff3ff00780800f8010040b0fcffffffffffff0f76000000000000f0e1ffdc1fff0ffc8f19dce708ff07781c83601c82701c86efd25ff13ec7e33c044739104c601ce37feff13fff04ff011d80412006b01af087e79d1fdfad0fcf0738a70bf8037dd007c43104f906f91c545555555555555555555555555555555555555555555555adaaaaaaaaaaaaca55555555b6aaaa5a5555abaa5a5ad5caaaaa565555555555555555555555"
	DPCMSample Name="machine" Color="89f2e8" Folder="This is a time machine" Data="1c73b5ce310beb03ed5095c0352c8ef371dc73de96b643ad823682954825aa8bf2a2be51dfd13c7c8778477198aba2d41c25d54a0ce75978575c4b5f622f9a5256918671d078d80bfec57de83ea6191bc648a5486545b3e233ee157e8bbaacaa94ae247551d55455a5c9a81ce5ca78877517cfd3398e720c692432680ccda3f539afcbef45af8506a50a15e510f4945ee95e6a2dcb8de346b44ad6c435e534565355698916eba85e669baeaa1e2b539aa80847984479895ff5577dcf1ecd2925c805e41258459f4cdfac55f5156dc689b2548dacb15ae459c6c5a94a53d5b1b51cbb93ce159f30b24128810fc04ff017ff67fd7a9d66e803f0800bd01f988eda03fec37ee016e9239935136d354de935948a8d515c57abec4bfc477bc50af003801e04206f51fdcfbeffe47f3a016e015015a8862fc03f1bf13f700f55690f696d24f54557de85d04ae4117c059f39fa0ffec107f8034cf001f0010efe87ffffe0ffc1152d002a01f8027ea16fea1ff53a515a4a4d665559d525b7c6253c91d8027ccc1ff8d53abfb49ec0f400700006fd01fff81ffff01fff800b384015e0035cf503fff1427fe0294de896b2e616f5431fd5036ec00bf0013fbc05fff0977ee0075ca005fc001ff057edd3f28b67ce051e013f080f0ff107786b07fc037ff00ff8803ff8c17fe007f8010ff0003fe0837fe0877ff0077fe0073e78181ec4077fc007fec00f7fe00ffcc003fc61031f847f380f3ff8077ce08739fc03c7f0f070e0f1e043f0e1f0e00ffc011ff8c37ff0033ef8017fe0071ec5137ee0071e73e4f0e07cf0301efc817ff0613e820fff011ffc013ff0017ce00fe3813fe0871ff00f7ce01ff8187ce01f7ec01ff0817ff0013ff0021ee00f788c1ffe8007fce0ef217fc89167dc01cf78f830783807eff007cee1013fc6e3033ee007fcc00ffc031ff8031ff0c13ff8838fe3c3313c868f31478e717c38e2477c08e7f0390fce033fd8037fe01dfec079f00c7fc007ce8307e00ffe801ffc013fd8077ec00ff8e00f7ec01ff8830fd8033ff0051f87fe011ef0e18fe03fe00387e7e118c7f1c1f9c178e003fe803ff8867bf8801ff8801ffc011ff0033ff007fec107f8037ff0087ce00ffe701c1fe0811fc3073ef803fec0073ec41ffce01dfe8107fc831ff0013ff0077ec007fce187f3c01fe0073ef8077ec01ff8033ff0017fc007fc811ff0817ff007fcc007f3810ff8000ffc07fe813ff0017fe011fec13ff007f1e0f007fc61787c901ff8e11cf0e111cec303fec01fe00f7c78713cf2f0013ee6033ff007fec00f7ce00ff8813ff0381ef8037ef0077ee003fec00ff8c03ff8019f7844fc838f037fc00ff0831f7ec017f0c11ff8033fe0837fe007fc803ff0811ff8013fe0077ee00f7ee00ff8c03ff083cfe007fce0c3f8e007fc811ff8017fe003fec00ffc811ff003faf064c738f001fe817ff003fec01fe0073f061e7a0d3ee007fec03ff4834fd0811fdc801ff801fee0ed1cf801fee00ff8c11ff0073ec10fc51de8013fe09ff8037fc07ff0033ee007f8017e000fc37fe03ff00ffcc1ffc01ff8013ee0035ce0033ce007fef873fc07fec12ff0013e50037e801ff031dda3fff007fc001ff0077ec007f8007fe00ffee10f7cc01ff8077fc00f7880077dc003fc5067f8f8c53ff08ffee01ee086980f7441bca09d4bf7803fc01ff8035ec0b7823d197e517fc887dfc00ff002fec09fd00b357c037e800ff017f00bfee01ffea31f9c034f70080698835ef027fef93ffc03fe80055178800ff003ffb01ffec11ff8033e30c5037fe00ff8837fc00ff003e421dc0c8d27ff15ffd80bf9d6b005f0023c600f7be7d479f007f4013ff0000ff001ffc5ffe03ff809bff0015470555656a40ff8817e3017073fc03ff817df8de307fc003f402724da800ff887fe38f293fe817f800ff299280f8a0ff01fe007fc803ff8f0117fe00ffd810feac151553107675c5fd811fe003fe113ec40da1df00ffcc37ff8d30a3ec00f5804035fe81f7c49833fe00ffc42ac15fc837ff0135ff08a72110f619738ceb13df01bf4c11ee892137cc027f8833df2d2c5fce10fbcb007fe409770c6619ae011d6d8c327ec236fc76be18a3af415b4451b7155692596277aa95912e73857d6185795673847972827ce55e91bd4523d6b0b63435591c31ec58871ded17dcc5a54afc50f93524e96d21ca5153c0bbd8de09d3bc0f79650f70408ff27c401fe293fe01fe0c9fcf70080ff0f803fd005fc017f88e94f71c13fd4f40f78503f0275dc06673502fe8dea500ff1950f1f104bff8f01705ec5f81e049eaf05dd311ed703dc07d1f055687c8603ffe340e47d1cef0910f3573c42555555555555555555555555555555adaaaaaaaaaaaaaaaaaaaaaaaaaaaaaaaaaaaaaaaaaaaaaaaaaa555555a555555555555555555555555555555555"
	DPCMSample Name="fdkick" Color="3ce8fd" Data="d5ffffff8b000000000000ffffffffff3f000000000040ffffffffffff23000000000000bdffffffffffff9500010000000080da7dffffffffffbf554910000000000012a5b5bdffeffffffff7b6552511020400000210244a556d77dffffdfb7f7f77b75695120921200021804088484a55b5b6bbf77e7ff7f7fbeeedda5a55292512218420902008212492a45455b5b66d7b7befbd77efbdbbbb6d5bab55954a49892422428448448810892452924a5555b5d6dab6dbeef6ee6ebbbbbbdd6edbd656ab5555a9524a4992449288442489482412499224a5942a555555abd6dadada6edb76dbddd66ebbedb66ddbda5a6bb56a5555a52a95524a4992922492244954249124499292a494544aa54a555555d5aad55aadadad6d6ddbb66ddb56b7b66ddbb6b6b5b5d65aad56ab6a555555aa4a954a29a5949292929424294952495292a42425252595544aa554a92a55555555d5aa5aad56adb5d65a6b6b6d6b6b5bdb566d6b6b5b5b5b5b6badb556abd56a55adaa6a5555aaaa4a95aa522a954a299594524a4929292925554a4a4a2929a594524aa5542a55aa54a5aa4c5555555555d3aa56b56ad55ab5566bb5d65a6badadb5d656adb5d6da5a6bb5d65aad56ad55ab5a55adaaaaaaaaaaaaaa5455aa52a552a552a994522995524a29955295544aa99452a9544a954a95aa54a5aa5455555555555555d5aa5a55ab5ab56aad5aad56abb55aadd66a55add56ab556ab56ad56ad5ad5aa6a5555abaaaaaaaaaaaa525555aa4a55a952a54a952a554a954a954a55a952a952a54aa94a55aa5255aa4a5555a5aaaaaaaaaaaa5a5555abaa55d5aa5ad5aa56ab56b56ad5aa5555ab56b5aa55ab66d5aa5a55b5aaaa5a555555555555555555aaaaaa5455a9aa54992a55a52a55a94a5555a94a55a94a55a5aa5295aaaa5255555555aaaaaaaaaa55555555b5aaaa5655b5aa55d5aa6a55b555"
	DPCMSample Name="snare" Color="6c7bdb" Data="190000d0ccffc7fff8f1ffc30f63008701000054555555e5f8ffffffffff55555599030c00040000405565cd0ffffff3ffe7ff9e29dc19028ce1c3380000180718301f3e3ef0e33ff7fef3ff1f1ec618814038fc3000c4633c3c381c90e731fff3cfffff873b03308ec320000c00201e779ce7f18ffffb6f38ff39fc0301077e870130008079f03c38389e879fffff3fcf71dce10e306008c3812138c0110f8f0fe71fffcff1e31fe73c0c87038ec303c281e3388e380e3cc7e1797e7cbec3317e1ce3383c86e3f0c0e10160c01c0acf71fc3d8fcf9fc7f3f9ff0cc3210c7018063886c108e388f1e7fff3ff710eff0f870f863138803184031838c7c1391e6f9ef3cfe3fdfdc33b0ce0e0c0606030180ecef118cfcfe7e3e1f173f823dce1707878e087e318630e8207c2f1c0e338c6f9bce73cfff8ffe00c630c43e0707018008671789ec71f9f77fe9f638e71f486037c00e17038c681235c7c1ce7c773cf792e9e671e8f210e231cc3f0e1f0183be0896387cff063cef10fffe38e633c8c310c018e106398791c0f0fefc0e3ff1cfff87c1e0e70c001e31886371cf8e1e1f1f8cf718c3978381e8f618e71ccd3e111f6187b301cc711f84defc3c7879be30e397080318c79bc0f4fc107f718fe60559017fc399ec3710fe7387c18e7807d8c230e81c7f1709ef8e1e570fec4e7c2410e150f3e816f88c38bc7c73316d5c339cec381671ef87c8cc3f1301ce2110f87f1f8f89e0f1fc6d9610e0ec361388c790fefc893e7e138c778b0e2f0549ee1380c0fc771c33d06ef38e31e1e9ff19072c48615c6c32b34548cc7cf3b7d8c198fcde3c6710e78180dc3397c181e8ee3e19ee3d983ce18ce918ff3621d8c437cd01e3c1c1c9ac1eb613fdc51f3303de7b34ec1c110d3303c9e54c70e0f8ef38ee75a7818c7e1d1311d0f65a538e17157554b8d93564c5debf0628c69556745cfe150a5e1181e87c7715c793cd3adc12b47391e9ca7f8101d9562598c33f83c8e8dc375d5571f8d332c144e258ee22cac351c6f69795577791c96d12c965235ca618763d4b0a52f5e475955ab9ce5c5e270e21866d4f1acc38dc5156b4dcbe568d4d21a730e67340d0d8f7168d58d875b78b55c9bb36a8c835216574597aa12ab4a5f9c35553556d5589dc35345d561699c269ec5a56565956a55d6547561956a95cb741a3bd471549515875be2c1a6f16ca5654d735117572a75b47296a52a4d85c7521ca76ae9b456d93c5a8bab1c1d8d4555318c2baa6d797835554bf5d05a555665c94655a5b2d84a5b543956aea655c7b4aa52d554d5ccd2165565599655d55456b115d529279d56553555cdb46a2c4b535555556555d5549aa69955a9662aab695556552dcb96aa524b5555d594aa548bad745559d3545555554dad2a4d555559a55555555555aa9555595a55555555555555d352d3545555556555a9aa55"
	Instrument Name="02 but tri" Color="3ec4ff"
		Envelope Type="Volume" Length="19" Values="4,4,4,5,5,5,6,6,6,0,5,5,5,5,4,4,4,4,0"
	Instrument Name="blank" Color="ffafaf"
		Envelope Type="Volume" Length="6" Loop="0" Release="1" Values="15,10,6,4,2,0"
	Instrument Name="blank instant decay" Color="ffff8b"
		Envelope Type="Volume" Length="9" Values="15,15,11,8,5,3,2,1,0"
	Instrument Name="blank slower string" Color="d1b1ff"
		Envelope Type="Volume" Length="29" Loop="11" Release="12" Values="2,3,4,5,6,6,7,7,7,7,7,6,6,6,5,5,5,4,4,4,3,3,3,2,2,2,1,1,0"
	Instrument Name="blank string" Color="6471cf"
		Envelope Type="Volume" Length="29" Loop="11" Release="12" Values="5,6,7,7,7,7,7,7,7,7,7,6,6,6,5,5,5,4,4,4,3,3,3,2,2,2,1,1,0"
	Instrument Name="clap" Color="ffc6a1"
		Envelope Type="Volume" Length="12" Values="15,10,12,10,9,8,6,5,4,2,1,0"
		Envelope Type="Arpeggio" Length="3" Values="-4,1,0"
	Instrument Name="clutterfunk sax" Color="ff579c"
		Envelope Type="Volume" Length="7" Loop="1" Release="2" Values="14,15,12,8,5,2,0"
	Instrument Name="cymbal" Color="a2f7a6"
		Envelope Type="Volume" Length="32" Loop="24" Release="25" Values="15,14,13,12,11,10,9,8,8,7,7,6,6,6,5,5,4,4,4,3,3,3,3,2,2,2,2,1,1,1,1,0"
		Envelope Type="Arpeggio" Length="2" Values="-3,0"
		Envelope Type="DutyCycle" Length="2" Values="1,0"
	Instrument Name="death moon lead" Color="5dd2ff"
		Envelope Type="Volume" Length="9" Values="15,10,9,8,7,6,6,5,5"
		Envelope Type="DutyCycle" Length="1" Values="1"
	Instrument Name="death moon lead 2" Color="e783f8"
		Envelope Type="Volume" Length="3" Values="15,10,8"
		Envelope Type="Pitch" Length="8" Values="0,4,1,-1,-2,-3,-2,-1"
	Instrument Name="DMC: drums + bass" Color="98a7fc"
		DPCMMapping Note="F2" Sample="fdbass C" Pitch="3" Loop="False"
		DPCMMapping Note="G2" Sample="fdbass C" Pitch="4" Loop="False"
		DPCMMapping Note="A2" Sample="fdbass C" Pitch="5" Loop="False"
		DPCMMapping Note="A#2" Sample="fdbass C#" Pitch="5" Loop="False"
		DPCMMapping Note="B2" Sample="fdbass C" Pitch="6" Loop="False"
		DPCMMapping Note="C3" Sample="fdbass C" Pitch="7" Loop="False"
		DPCMMapping Note="C#3" Sample="fdbass C#" Pitch="7" Loop="False"
		DPCMMapping Note="D3" Sample="fdbass D" Pitch="7" Loop="False"
		DPCMMapping Note="D#3" Sample="fdbass C#" Pitch="8" Loop="False"
		DPCMMapping Note="E3" Sample="fdbass D" Pitch="8" Loop="False"
		DPCMMapping Note="F3" Sample="fdbass C" Pitch="9" Loop="False"
		DPCMMapping Note="F#3" Sample="fdbass C#" Pitch="9" Loop="False"
		DPCMMapping Note="G3" Sample="fdbass C" Pitch="10" Loop="False"
		DPCMMapping Note="G#3" Sample="fdbass C#" Pitch="10" Loop="False"
		DPCMMapping Note="A3" Sample="fdbass D" Pitch="10" Loop="False"
		DPCMMapping Note="A#3" Sample="fdbass C#" Pitch="11" Loop="False"
		DPCMMapping Note="B3" Sample="fdbass D" Pitch="11" Loop="False"
		DPCMMapping Note="C4" Sample="fdbass C" Pitch="12" Loop="False"
		DPCMMapping Note="C#4" Sample="fdbass C#" Pitch="12" Loop="False"
		DPCMMapping Note="D4" Sample="fdbass D" Pitch="12" Loop="False"
		DPCMMapping Note="D#4" Sample="fdbass B" Pitch="13" Loop="False"
		DPCMMapping Note="E4" Sample="fdbass C" Pitch="13" Loop="False"
		DPCMMapping Note="F4" Sample="fdbass C#" Pitch="13" Loop="False"
		DPCMMapping Note="F#4" Sample="fdbass D" Pitch="13" Loop="False"
		DPCMMapping Note="G4" Sample="fdbass C" Pitch="14" Loop="False"
		DPCMMapping Note="G#4" Sample="fdbass C#" Pitch="14" Loop="False"
		DPCMMapping Note="A4" Sample="fdbass D" Pitch="14" Loop="False"
		DPCMMapping Note="A#4" Sample="fdbass A#" Pitch="15" Loop="False"
		DPCMMapping Note="B4" Sample="fdbass B" Pitch="15" Loop="False"
		DPCMMapping Note="C5" Sample="fdbass C" Pitch="15" Loop="False"
		DPCMMapping Note="C#5" Sample="fdbass C#" Pitch="15" Loop="False"
		DPCMMapping Note="D5" Sample="fdbass D" Pitch="15" Loop="False"
		DPCMMapping Note="E5" Sample="fdkick" Pitch="14" Loop="False"
		DPCMMapping Note="F5" Sample="snare" Pitch="15" Loop="False"
		DPCMMapping Note="F#5" Sample="this" Pitch="15" Loop="False"
		DPCMMapping Note="G5" Sample="is a" Pitch="15" Loop="False"
		DPCMMapping Note="G#5" Sample="time" Pitch="15" Loop="False"
		DPCMMapping Note="A5" Sample="machine" Pitch="15" Loop="False"
		DPCMMapping Note="C6" Sample="OrchHitF.dmc" Pitch="0" Loop="False"
		DPCMMapping Note="D6" Sample="OrchHitF.dmc" Pitch="1" Loop="False"
		DPCMMapping Note="E6" Sample="OrchHitF.dmc" Pitch="2" Loop="False"
		DPCMMapping Note="F6" Sample="OrchHitF.dmc" Pitch="3" Loop="False"
		DPCMMapping Note="G6" Sample="OrchHitF.dmc" Pitch="4" Loop="False"
		DPCMMapping Note="A6" Sample="OrchHitF.dmc" Pitch="5" Loop="False"
		DPCMMapping Note="B6" Sample="OrchHitF.dmc" Pitch="6" Loop="False"
		DPCMMapping Note="C7" Sample="OrchHitF.dmc" Pitch="7" Loop="False"
		DPCMMapping Note="D7" Sample="OrchHitF.dmc" Pitch="8" Loop="False"
		DPCMMapping Note="A7" Sample="OrchHitF.dmc" Pitch="11" Loop="False"
		DPCMMapping Note="G7" Sample="OrchHitF.dmc" Pitch="10" Loop="False"
		DPCMMapping Note="F7" Sample="OrchHitF.dmc" Pitch="9" Loop="False"
		DPCMMapping Note="E7" Sample="OrchHitF#.dmc" Pitch="13" Loop="False"
	Instrument Name="DMC: orchestra hits" Color="fcff6f"
		DPCMMapping Note="E3" Sample="OrchHitG.dmc" Pitch="11" Loop="False"
		DPCMMapping Note="F3" Sample="OrchHitG#.dmc" Pitch="11" Loop="False"
		DPCMMapping Note="F#3" Sample="OrchHitA.dmc" Pitch="11" Loop="False"
		DPCMMapping Note="G3" Sample="OrchHitG.dmc" Pitch="12" Loop="False"
		DPCMMapping Note="G#3" Sample="OrchHitG#.dmc" Pitch="12" Loop="False"
		DPCMMapping Note="A3" Sample="OrchHitA.dmc" Pitch="12" Loop="False"
		DPCMMapping Note="A#3" Sample="OrchHitF#.dmc" Pitch="13" Loop="False"
		DPCMMapping Note="B3" Sample="OrchHitG.dmc" Pitch="13" Loop="False"
		DPCMMapping Note="C4" Sample="OrchHitG#.dmc" Pitch="13" Loop="False"
		DPCMMapping Note="C#4" Sample="OrchHitA.dmc" Pitch="13" Loop="False"
		DPCMMapping Note="D4" Sample="OrchHitG.dmc" Pitch="14" Loop="False"
		DPCMMapping Note="D#4" Sample="OrchHitG#.dmc" Pitch="14" Loop="False"
		DPCMMapping Note="E4" Sample="OrchHitA.dmc" Pitch="14" Loop="False"
		DPCMMapping Note="F4" Sample="OrchHitF.dmc" Pitch="15" Loop="False"
		DPCMMapping Note="F#4" Sample="OrchHitF#.dmc" Pitch="15" Loop="False"
		DPCMMapping Note="G4" Sample="OrchHitG.dmc" Pitch="15" Loop="False"
		DPCMMapping Note="G#4" Sample="OrchHitG#.dmc" Pitch="15" Loop="False"
		DPCMMapping Note="A4" Sample="OrchHitA.dmc" Pitch="15" Loop="False"
		DPCMMapping Note="G2" Sample="OrchHitG.dmc" Pitch="7" Loop="False"
		DPCMMapping Note="G#2" Sample="OrchHitG#.dmc" Pitch="7" Loop="False"
		DPCMMapping Note="A2" Sample="OrchHitG.dmc" Pitch="8" Loop="False"
		DPCMMapping Note="A#2" Sample="OrchHitG#.dmc" Pitch="8" Loop="False"
		DPCMMapping Note="B2" Sample="OrchHitA.dmc" Pitch="8" Loop="False"
		DPCMMapping Note="C3" Sample="OrchHitG.dmc" Pitch="9" Loop="False"
		DPCMMapping Note="D3" Sample="OrchHitG.dmc" Pitch="10" Loop="False"
		DPCMMapping Note="C#3" Sample="OrchHitG#.dmc" Pitch="9" Loop="False"
		DPCMMapping Note="D#3" Sample="OrchHitG#.dmc" Pitch="10" Loop="False"
	Instrument Name="echo" Color="3cb5a7"
		Envelope Type="Volume" Length="19" Values="11,7,5,4,3,2,2,1,1,0,5,4,3,3,2,2,1,1,0"
	Instrument Name="electroman lead" Color="3cd3e3"
		Envelope Type="Volume" Length="6" Loop="0" Release="1" Values="15,10,6,4,2,0"
		Envelope Type="DutyCycle" Length="9" Loop="1" Values="2,1,1,1,1,0,0,0,0"
	Instrument Name="endgame lead" Color="ca60e6"
		Envelope Type="Volume" Length="6" Values="15,13,11,7,7,10"
		Envelope Type="DutyCycle" Length="3" Loop="0" Values="2,2,0"
	Instrument Name="hat" Color="ffffb1"
		Envelope Type="Volume" Length="4" Values="8,4,2,0"
		Envelope Type="Arpeggio" Length="2" Values="-3,0"
		Envelope Type="DutyCycle" Length="2" Loop="0" Values="0,1"
	Instrument Name="hex guitar 1" Color="fff389"
		Envelope Type="DutyCycle" Length="6" Loop="2" Values="3,2,1,2,2,1"
	Instrument Name="hex guitar 2" Color="d8ffa1"
		Envelope Type="DutyCycle" Length="4" Loop="3" Values="3,2,1,3"
	Instrument Name="infernoplex_piano" Color="ffdc3c"
		Envelope Type="Volume" Length="17" Values="14,14,14,13,13,12,12,11,11,10,9,9,8,7,6,5,3"
	Instrument Name="Instrument 1" Color="ff5a9f"
		Envelope Type="Volume" Length="16" Values="3,6,5,5,4,4,3,3,3,2,2,2,1,1,1,0"
	Instrument Name="Instrument 2" Color="ffd43c"
		Envelope Type="Volume" Length="16" Values="8,6,5,5,4,4,3,3,3,2,2,2,1,1,1,0"
	Instrument Name="Instrument 3" Color="ca60e6"
		Envelope Type="Volume" Length="11" Values="10,15,15,15,14,13,12,10,8,6,3"
		Envelope Type="Arpeggio" Length="2" Values="-12,0"
		Envelope Type="DutyCycle" Length="4" Loop="2" Values="2,1,0,1"
	Instrument Name="Instrument 4" Color="f6a4ff"
		Envelope Type="Volume" Length="16" Loop="9" Release="10" Values="15,10,10,9,9,9,8,8,8,7,7,5,3,2,1,0"
		Envelope Type="DutyCycle" Length="1" Values="1"
	Instrument Name="jaezu lead" Color="ff8d5a"
		Envelope Type="Volume" Length="35" Loop="15" Release="16" Values="6,8,10,12,12,12,12,11,11,11,11,10,10,10,10,9,8,7,7,6,6,5,5,4,4,3,3,3,2,2,2,1,1,1,0"
		Envelope Type="Pitch" Length="20" Loop="8" Values="0,0,0,0,0,0,0,0,0,1,2,3,2,1,0,-1,-2,-3,-2,-1"
	Instrument Name="kick" Color="a657d6"
		Envelope Type="Volume" Length="6" Values="13,9,5,2,1,0"
		Envelope Type="Arpeggio" Length="2" Values="9,15"
	Instrument Name="lots of clap" Color="f6a4ff"
		Envelope Type="Volume" Length="3" Loop="0" Values="15,13,11"
		Envelope Type="Arpeggio" Length="3" Loop="0" Values="-4,1,0"
	Instrument Name="loud blank string" Color="ff9ece"
		Envelope Type="Volume" Length="29" Loop="11" Release="12" Values="6,8,10,11,12,12,12,12,12,12,11,11,10,10,9,9,8,8,7,7,6,6,5,5,4,3,2,1,0"
	Instrument Name="menu acc" Color="5dd2ff"
		Envelope Type="Volume" Length="28" Values="8,8,7,6,6,5,5,4,4,3,3,3,2,2,2,2,2,2,2,1,1,1,1,1,1,1,1,0"
	Instrument Name="nc_click" Color="ff6b6b"
		Envelope Type="Volume" Length="3" Values="15,7,0"
		Envelope Type="Arpeggio" Length="2" Values="0,9"
	Instrument Name="octave arp" Color="b59184"
		Envelope Type="Volume" Length="3" Values="9,7,5"
		Envelope Type="Arpeggio" Length="4" Loop="0" Values="0,0,12,12"
		Envelope Type="DutyCycle" Length="1" Values="2"
	Instrument Name="octave arp [ no duty ]" Color="b59184"
		Envelope Type="Volume" Length="3" Values="9,7,5"
		Envelope Type="Arpeggio" Length="4" Loop="0" Values="0,0,12,12"
	Instrument Name="octave jumping echo" Color="74ca78"
		Envelope Type="Volume" Length="19" Values="11,7,5,4,3,2,2,1,1,0,2,2,1,1,1,1,1,1,0"
		Envelope Type="Arpeggio" Length="4" Loop="0" Values="-12,0,12,24"
	Instrument Name="polargeist bass" Color="7b8df1"
		Envelope Type="Volume" Length="6" Values="15,13,11,7,7,10"
		Envelope Type="DutyCycle" Length="4" Values="3,2,2,1"
	Instrument Name="polargeist tri pluck" Color="ffa83c"
		Envelope Type="Volume" Length="6" Values="15,0,0,0,15,0"
	Instrument Name="quiet bass" Color="b8ef7e"
		Envelope Type="Volume" Length="3" Values="9,7,5"
	Instrument Name="rel hats" Color="62ffff"
		Envelope Type="Volume" Length="16" Values="8,6,5,5,4,4,3,3,3,2,2,2,1,1,1,0"
		Envelope Type="Arpeggio" Length="2" Values="-3,0"
	Instrument Name="sample" Color="bdffc0"
		Envelope Type="Volume" Length="8" Values="9,8,7,6,6,5,5,4"
		Envelope Type="DutyCycle" Length="1" Values="2"
	Instrument Name="shift string" Color="a4db74"
		Envelope Type="Volume" Length="38" Loop="11" Release="12" Values="4,5,6,6,6,6,6,6,6,6,6,5,5,5,5,5,5,4,4,4,4,4,4,4,4,3,3,3,3,3,3,2,2,2,1,1,1,0"
		Envelope Type="DutyCycle" Length="4" Loop="0" Values="1,2,1,0"
	Instrument Name="shift string lite" Color="3eb3f9"
		Envelope Type="Volume" Length="41" Loop="11" Release="12" Values="5,6,7,7,7,7,7,7,7,7,7,6,6,6,6,6,6,5,5,5,5,5,5,5,5,4,4,4,4,4,4,3,3,3,2,2,2,1,1,1,0"
		Envelope Type="DutyCycle" Length="5" Loop="0" Values="1,0,0,1,0"
	Instrument Name="snare" Color="ff7f51"
		Envelope Type="Volume" Length="11" Values="13,11,8,6,5,4,3,2,1,1,0"
		Envelope Type="Arpeggio" Length="2" Values="6,12"
		Envelope Type="DutyCycle" Length="2" Values="1,0"
	Instrument Name="stepdown" Color="3fe5ff"
		Envelope Type="Arpeggio" Length="3" Values="24,12,0"
	Instrument Name="tight noise kick layer" Color="62e2d6"
		Envelope Type="Volume" Length="4" Values="15,0,1,0"
	Instrument Name="tight triangle kick" Color="8163dc"
		Envelope Type="Volume" Length="5" Values="15,15,15,15,0"
		Envelope Type="Arpeggio" Length="4" Values="26,16,14,4"
	Instrument Name="tight triangle snare" Color="8a706a"
		Envelope Type="Volume" Length="5" Values="15,15,15,15,0"
		Envelope Type="Arpeggio" Length="4" Values="35,34,33,32"
	Instrument Name="tom" Color="51a1fc"
		Envelope Type="Pitch" Length="2" Loop="1" Relative="True" Values="0,21"
	Instrument Name="triangle drums" Color="a376f3"
		Envelope Type="Volume" Length="8" Values="9,8,7,6,6,5,5,4"
		Envelope Type="Pitch" Length="2" Loop="1" Relative="True" Values="-1,49"
	Instrument Name="triangle pluck" Color="ffff71"
		Envelope Type="Volume" Length="2" Values="15,0"
	Instrument Name="triangle pluck 2" Color="6ab96e"
		Envelope Type="Volume" Length="3" Values="15,15,0"
	Instrument Name="triangle pluck 3" Color="ffa83c"
		Envelope Type="Volume" Length="4" Values="15,15,15,0"
	Instrument Name="triangle pluck 4" Color="3cb5a7"
		Envelope Type="Volume" Length="5" Values="15,15,15,15,0"
	Instrument Name="xstep wub" Color="ffffb2"
		Envelope Type="Volume" Length="7" Values="3,7,8,8,10,8,0"
		Envelope Type="DutyCycle" Length="3" Values="1,2,3"
	Arpeggio Name="Arp 0C" Color="3cb5a7" Length="3" Loop="0" Values="0,0,12"
	Arpeggio Name="Arp 03" Color="88eb8c" Length="3" Loop="0" Values="0,0,3"
	Arpeggio Name="Arp 3C" Color="a657d6" Length="3" Loop="0" Values="0,3,12"
	Arpeggio Name="Arp 4C" Color="ffff94" Length="3" Loop="0" Values="0,4,12"
	Arpeggio Name="Arp 5F" Color="ddc4bb" Length="3" Loop="0" Values="0,5,15"
	Arpeggio Name="Arp 05" Color="ff8f8c" Length="3" Loop="0" Values="0,0,5"
	Arpeggio Name="Arp 5A" Color="d1b1ff" Length="3" Loop="0" Values="0,5,10"
	Arpeggio Name="Arp 5C" Color="3cd2c4" Length="3" Loop="0" Values="0,5,12"
	Arpeggio Name="Arp 06" Color="ffdc3c" Length="3" Loop="0" Values="0,0,6"
	Arpeggio Name="Arp 07" Color="b5c2ff" Length="3" Loop="0" Values="0,0,7"
	Arpeggio Name="Arp 7A" Color="3cbfcb" Length="3" Loop="0" Values="0,7,10"
	Arpeggio Name="Arp 7C" Color="ebf067" Length="3" Loop="0" Values="0,7,12"
	Arpeggio Name="Arp 8C" Color="ff935e" Length="3" Loop="0" Values="0,8,12"
	Arpeggio Name="Arp 11" Color="ff6b6b" Length="3" Loop="0" Values="0,1,1"
	Arpeggio Name="Arp 30" Color="ffcb3c" Length="3" Loop="0" Values="0,3,0"
	Arpeggio Name="Arp 33" Color="fffc69" Length="3" Loop="0" Values="0,3,3"
	Arpeggio Name="Arp 37" Color="ffafaf" Length="3" Loop="0" Values="0,3,7"
	Arpeggio Name="Arp 38" Color="ffff8b" Length="3" Loop="0" Values="0,3,8"
	Arpeggio Name="Arp 39" Color="65f2ff" Length="3" Loop="0" Values="0,3,9"
	Arpeggio Name="Arp 40" Color="ffa83c" Length="3" Loop="0" Values="0,4,0"
	Arpeggio Name="Arp 44" Color="7585e7" Length="3" Loop="0" Values="0,4,4"
	Arpeggio Name="Arp 47" Color="a2f7a6" Length="3" Loop="0" Values="0,4,7"
	Arpeggio Name="Arp 49" Color="d863ec" Length="3" Loop="0" Values="0,4,9"
	Arpeggio Name="Arp 50" Color="65f2ff" Length="3" Loop="0" Values="0,5,0"
	Arpeggio Name="Arp 53" Color="3ca598" Length="3" Loop="0" Values="0,5,3"
	Arpeggio Name="Arp 55" Color="ff6464" Length="3" Loop="0" Values="0,5,5"
	Arpeggio Name="Arp 58" Color="eaffbd" Length="3" Loop="0" Values="0,5,8"
	Arpeggio Name="Arp 59" Color="5dd2ff" Length="3" Loop="0" Values="0,5,9"
	Arpeggio Name="Arp 70" Color="e95093" Length="3" Loop="0" Values="0,7,0"
	Arpeggio Name="Arp 77" Color="a4db74" Length="3" Loop="0" Values="0,7,7"
	Arpeggio Name="Arp C0" Color="a9887d" Length="3" Loop="0" Values="0,12,0"
	Arpeggio Name="Arp CC" Color="6471cf" Length="3" Loop="0" Values="0,12,12"
	Arpeggio Name="Arp CE" Color="ffc83c" Length="4" Loop="0" Values="0,5,8,12"
	Arpeggio Name="Arp CF" Color="ffc6a1" Length="4" Loop="0" Values="0,3,8,12"
	Arpeggio Name="Arp D0" Color="3cf8ff" Length="4" Loop="0" Values="0,4,9,12"
	Song Name="What's a Future Funk?" Color="ba93fe" Folder="Custom" Length="66" LoopPoint="0" PatternLength="32" BeatLength="4" FamiTrackerTempo="120" FamiTrackerSpeed="6"
		PatternCustomSettings Time="13" Length="16"
		PatternCustomSettings Time="27" Length="72"
		PatternCustomSettings Time="63" Length="16"
		Channel Type="Square1"
			Pattern Name="3" Color="7fdc83"
				Note Time="0" Value="B2" Duration="4" Instrument="sample"
				Note Time="4" Value="D#3" Duration="4" Instrument="sample"
				Note Time="8" Value="F#3" Duration="4" Instrument="sample"
				Note Time="12" Value="A#3" Duration="4" Instrument="sample"
				Note Time="16" Value="C#4" Duration="12" Instrument="sample"
				Note Time="28" Value="B3" Duration="4" Instrument="sample"
			Pattern Name="Pattern 1" Color="ffe461"
				Note Time="0" Value="A#3" Duration="12" Instrument="sample"
				Note Time="12" Value="G#3" Duration="4" Instrument="sample"
				Note Time="16" Value="A#3" Duration="16" Instrument="sample"
			Pattern Name="2" Color="fffd43"
				Note Time="0" Value="B2" Duration="4" Instrument="sample"
				Note Time="4" Value="D#3" Duration="4" Instrument="sample"
				Note Time="8" Value="F#3" Duration="4" Instrument="sample"
				Note Time="12" Value="A#3" Duration="4" Instrument="sample"
				Note Time="16" Value="A#3" Duration="12" Instrument="sample"
			Pattern Name="Pattern 2" Color="fff389"
				Note Time="2" Value="C#3" Duration="1" Instrument="sample"
				Note Time="3" Value="D#3" Duration="1" Instrument="sample"
				Note Time="4" Value="F#3" Duration="1" Instrument="sample"
				Note Time="5" Value="F#3" Duration="1" Instrument="sample"
				Note Time="7" Value="C#3" Duration="1" Instrument="sample"
				Note Time="8" Value="D#3" Duration="1" Instrument="sample"
				Note Time="9" Value="F#3" Duration="1" Instrument="sample"
				Note Time="10" Value="F#3" Duration="1" Instrument="sample"
				Note Time="12" Value="F#3" Duration="1" Instrument="sample"
				Note Time="16" Value="F4" Duration="1" Instrument="sample" Volume="15" VolumeSlideTarget="9"
				Note Time="17" Value="F4" Duration="1" Instrument="sample" Volume="15" VolumeSlideTarget="9"
				Note Time="18" Value="F4" Duration="2" Instrument="sample" Volume="15" VolumeSlideTarget="9"
				Note Time="20" Value="F4" Duration="1" Instrument="sample" Volume="15" VolumeSlideTarget="9"
				Note Time="21" Value="F4" Duration="1" Instrument="sample" Volume="15" VolumeSlideTarget="9"
				Note Time="22" Value="F4" Duration="2" Instrument="sample" Volume="15" VolumeSlideTarget="9"
				Note Time="24" Value="F4" Duration="1" Instrument="sample" Volume="15" VolumeSlideTarget="9"
				Note Time="25" Value="F4" Duration="1" Instrument="sample" Volume="15" VolumeSlideTarget="9"
				Note Time="26" Value="F4" Duration="2" Instrument="sample" Volume="15" VolumeSlideTarget="9"
			Pattern Name="01" Color="3cd2c4"
				Note Time="10" Value="F4" Duration="2" Instrument="blank"
				Note Time="12" Value="C#4" Duration="2" Instrument="blank"
				Note Time="14" Value="F4" Duration="2" Instrument="blank"
				Note Time="18" Value="A#4" Duration="3" Instrument="blank"
				Note Time="22" Value="A#4" Duration="3" Instrument="blank"
			Pattern Name="Pattern 8" Color="8163dc"
				Note Time="26" Value="F#4" Duration="1" Instrument="sample" Volume="15" VolumeSlideTarget="9"
				Note Time="28" Value="F#4" Duration="1" Instrument="sample"
				Note Time="29" Value="F#4" Duration="1" Instrument="sample"
				Note Time="31" Value="F#4" Duration="1" Instrument="sample"
			Pattern Name="Pattern 3" Color="b75bde"
				Note Time="25" Value="C#5" Duration="2" Instrument="sample"
				Note Time="26" Volume="15" VolumeSlideTarget="9"
				Note Time="27" Value="C#5" Duration="2" Instrument="sample"
				Note Time="29" Value="C#5" Duration="2" Instrument="sample"
				Note Time="31" Value="C#5" Duration="1" Instrument="sample"
			Pattern Name="Pattern 4" Color="3ec4ff"
				Note Time="18" Value="F#4" Duration="1" Instrument="sample"
				Note Time="19" Value="F#4" Duration="1" Instrument="sample"
				Note Time="20" Value="F#4" Duration="1" Instrument="sample"
				Note Time="23" Value="C#4" Duration="1" Instrument="sample"
				Note Time="24" Value="F#4" Duration="2" Instrument="sample"
				Note Time="26" Value="A#4" Duration="6" Instrument="sample" Volume="15" VolumeSlideTarget="9"
			Pattern Name="Pattern 5" Color="a657d6"
				Note Time="8" Value="F#4" Duration="4" Instrument="sample" Volume="15" VolumeSlideTarget="9"
				Note Time="12" Value="C#4" Duration="4" Instrument="sample" Volume="15" VolumeSlideTarget="9"
			Pattern Name="Pattern 6" Color="5ac4ff"
				Note Time="0" Value="G#2" Duration="6" Instrument="Instrument 3"
				Note Time="8" Value="A#2" Duration="2" Instrument="Instrument 3"
				Note Time="10" Value="A#2" Duration="2" Instrument="Instrument 3"
				Note Time="14" Value="D#3" Duration="6" Instrument="Instrument 3"
				Note Time="20" Value="A#2" Duration="2" Instrument="Instrument 3"
				Note Time="24" Value="F#2" Duration="2" Instrument="Instrument 3"
				Note Time="26" Value="F#2" Duration="2" Instrument="Instrument 3"
				Note Time="28" Volume="15" VolumeSlideTarget="9"
				Note Time="29" Value="C#3" Duration="1" Instrument="Instrument 3"
				Note Time="30" Value="C#3" Duration="4" Instrument="Instrument 3" Volume="15" VolumeSlideTarget="9"
			Pattern Name="Pattern 15" Color="ffff93"
				Note Time="8" Value="C#2" Duration="1" Instrument="Instrument 3"
				Note Time="9" Value="G#1" Duration="2" Instrument="Instrument 3"
				Note Time="12" Value="C#2" Duration="4" Instrument="Instrument 3"
				Note Time="16" Value="F#2" Duration="4" Instrument="echo"
				Note Time="20" Value="C#2" Duration="4" Instrument="echo"
				Note Time="24" Value="F#2" Duration="2" Instrument="echo"
				Note Time="26" Value="F#2" Duration="2" Instrument="echo"
				Note Time="28" Value="G#2" Duration="1" Instrument="echo"
				Note Time="29" Value="G#2" Duration="1" Instrument="echo"
				Note Time="30" Value="G#2" Duration="1" Instrument="echo"
				Note Time="31" Value="G#2" Duration="1" Instrument="echo"
			Pattern Name="Pattern 7" Color="ffb83c"
				Note Time="0" Value="G#2" Duration="6" Instrument="Instrument 3"
				Note Time="8" Value="A#2" Duration="2" Instrument="Instrument 3"
				Note Time="10" Value="G#3" Duration="2" Instrument="Instrument 3"
				Note Time="14" Value="F#3" Duration="6" Instrument="Instrument 3"
				Note Time="20" Value="A#2" Duration="2" Instrument="Instrument 3"
				Note Time="24" Value="F#2" Duration="2" Instrument="Instrument 3"
				Note Time="26" Value="F#2" Duration="2" Instrument="Instrument 3"
				Note Time="28" Volume="15" VolumeSlideTarget="9"
			Pattern Name="Pattern 20" Color="e95093"
				Note Time="0" Value="C#2" Duration="2" Instrument="Instrument 3"
				Note Time="2" Value="F#2" Duration="2" Instrument="Instrument 3"
				Note Time="6" Value="F#3" Duration="2" Instrument="Instrument 3"
				Note Time="8" Value="F#2" Duration="2" Instrument="Instrument 3"
				Note Time="10" Value="F#2" Duration="2" Instrument="Instrument 3"
				Note Time="12" Value="F#2" Duration="1" Instrument="Instrument 3"
				Note Time="13" Value="F#2" Duration="1" Instrument="Instrument 3"
				Note Time="14" Value="F#2" Duration="1" Instrument="Instrument 3"
				Note Time="15" Value="F#2" Duration="1" Instrument="Instrument 3"
				Note Time="16" Value="F#2" Duration="4" Instrument="echo"
				Note Time="20" Value="C#2" Duration="4" Instrument="echo"
				Note Time="24" Value="F#2" Duration="4" Instrument="echo"
				Note Time="28" Value="C#2" Duration="4" Instrument="echo"
			Pattern Name="Pattern 9" Color="8a706a"
				Note Time="4" Value="F#3" Duration="2" Instrument="death moon lead" Volume="15"
				Note Time="6" Value="D#3" Duration="2" Instrument="death moon lead" Volume="15"
				Note Time="12" Value="F#3" Duration="2" Instrument="death moon lead" Volume="15"
				Note Time="14" Value="D#3" Duration="2" Instrument="death moon lead" Volume="15"
				Note Time="30" Value="D#2" Duration="1" Instrument="endgame lead"
				Note Time="31" Value="D#2" Duration="1" Instrument="endgame lead"
			Pattern Name="Pattern 10" Color="74ca78"
				Note Time="0" Value="D#2" Duration="2" Instrument="endgame lead"
				Note Time="4" Value="F#3" Duration="2" Instrument="death moon lead" Volume="15"
				Note Time="6" Value="D#3" Duration="2" Instrument="death moon lead" Volume="15"
				Note Time="12" Value="F#3" Duration="2" Instrument="death moon lead" Volume="15"
				Note Time="14" Value="D#3" Duration="2" Instrument="death moon lead" Volume="15"
				Note Time="22" Value="G#3" Duration="2" Instrument="death moon lead" Volume="15"
				Note Time="24" Value="A#3" Duration="2" Instrument="death moon lead" Volume="15"
				Note Time="26" Value="G#3" Duration="1" Instrument="death moon lead" Volume="15"
				Note Time="27" Value="F#3" Duration="1" Instrument="death moon lead" Volume="15"
				Note Time="28" Value="D#3" Duration="2" Instrument="death moon lead" Volume="15"
			Pattern Name="Pattern 16" Color="c9aa9f"
				Note Time="4" Value="F#3" Duration="2" Instrument="death moon lead" Volume="15"
				Note Time="6" Value="D#3" Duration="2" Instrument="death moon lead" Volume="15"
				Note Time="12" Value="F#3" Duration="2" Instrument="death moon lead" Volume="15"
				Note Time="14" Value="D#3" Duration="2" Instrument="death moon lead" Volume="15"
				Note Time="18" Value="F#3" Duration="2" Instrument="death moon lead" Volume="15"
				Note Time="26" Value="D#2" Duration="2" Instrument="endgame lead"
				Note Time="30" Value="C#2" Duration="10" Instrument="endgame lead"
			Pattern Name="Pattern 22" Color="bdffc0"
				Note Time="10" Value="C#2" Duration="2" Instrument="endgame lead"
				Note Time="12" Value="C#2" Duration="2" Instrument="endgame lead"
				Note Time="14" Value="D#2" Duration="2" Instrument="endgame lead"
				Note Time="18" Value="C#3" Duration="2" Instrument="endgame lead"
				Note Time="20" Value="C#3" Duration="2" Instrument="endgame lead"
				Note Time="22" Value="B2" Duration="2" Instrument="endgame lead"
				Note Time="24" Value="B2" Duration="2" Instrument="endgame lead"
				Note Time="26" Value="A#2" Duration="2" Instrument="endgame lead"
				Note Time="28" Value="F#2" Duration="2" Instrument="endgame lead"
				Note Time="30" Value="D#2" Duration="2" Instrument="endgame lead"
			Pattern Name="Pattern 23" Color="88eb8c"
				Note Time="0" Value="B3" Duration="4" Instrument="Instrument 3"
				Note Time="4" Value="B3" Duration="4" Instrument="Instrument 3"
				Note Time="8" Value="B3" Duration="4" Instrument="Instrument 3"
				Note Time="12" Value="B3" Duration="4" Instrument="Instrument 3"
				Note Time="16" Value="B3" Duration="2" Instrument="Instrument 3"
				Note Time="18" Value="B3" Duration="2" Instrument="Instrument 3"
				Note Time="20" Value="B3" Duration="2" Instrument="Instrument 3"
				Note Time="22" Value="B3" Duration="2" Instrument="Instrument 3"
				Note Time="24" Value="C#4" Duration="1" Instrument="Instrument 3"
				Note Time="25" Value="C#4" Duration="1" Instrument="Instrument 3"
				Note Time="26" Value="C#4" Duration="1" Instrument="Instrument 3"
				Note Time="27" Value="C#4" Duration="1" Instrument="Instrument 3"
				Note Time="28" Value="C#4" Duration="1" Instrument="Instrument 3"
				Note Time="29" Value="C#4" Duration="1" Instrument="Instrument 3"
				Note Time="30" Value="C#4" Duration="1" Instrument="Instrument 3"
				Note Time="31" Value="C#4" Duration="1" Instrument="Instrument 3"
			Pattern Name="Pattern 11" Color="89f2e8"
				Note Time="0" Value="A#3" Duration="2" Instrument="death moon lead"
				Note Time="1" Value="A#3" Duration="2" Instrument="death moon lead"
				Note Time="6" Value="A#3" Duration="2" Instrument="death moon lead"
				Note Time="7" Value="A#3" Duration="2" Instrument="death moon lead"
				Note Time="18" Value="A#3" Duration="2" Instrument="death moon lead"
				Note Time="20" Value="A#3" Duration="2" Instrument="death moon lead"
				Note Time="22" Value="A#3" Duration="1" Instrument="death moon lead"
				Note Time="23" Value="A#3" Duration="2" Instrument="death moon lead"
				Note Time="26" Value="F#3" Duration="3" Instrument="death moon lead"
				Note Time="30" Value="F#3" Duration="2" Instrument="death moon lead"
			Pattern Name="Pattern 12" Color="8163dc"
				Note Time="0" Value="F#3" Duration="2" Instrument="sample"
				Note Time="2" Value="G#3" Duration="1" Instrument="sample"
				Note Time="3" Value="A#3" Duration="1" Instrument="sample"
				Note Time="4" Value="D#3" Duration="2" Instrument="sample"
				Note Time="8" Value="D#3" Duration="2" Instrument="sample"
				Note Time="12" Value="D#3" Duration="2" Instrument="sample"
				Note Time="16" Value="D#2" Duration="2" Instrument="sample"
				Note Time="20" Value="A#2" Duration="2" Instrument="sample"
				Note Time="22" Value="C#3" Duration="2" Instrument="sample"
				Note Time="26" Value="C#3" Duration="2" Instrument="sample"
				Note Time="30" Value="C#3" Duration="2" Instrument="sample"
			Pattern Name="Pattern 25" Color="ff7571"
				Note Time="0" Value="F#3" Duration="2" Instrument="sample"
				Note Time="2" Value="G#3" Duration="1" Instrument="sample"
				Note Time="3" Value="A#3" Duration="1" Instrument="sample"
				Note Time="4" Value="D#3" Duration="2" Instrument="sample"
				Note Time="8" Value="D#3" Duration="2" Instrument="sample"
				Note Time="12" Value="D#3" Duration="2" Instrument="sample"
				Note Time="16" Value="D#2" Duration="2" Instrument="sample"
				Note Time="20" Value="G#2" Duration="2" Instrument="sample"
				Note Time="24" Value="F#3" Duration="2" Instrument="sample"
				Note Time="26" Value="F#3" Duration="2" Instrument="sample"
				Note Time="28" Value="F#3" Duration="4" Instrument="sample"
			Pattern Name="Pattern 26" Color="d1b1ff"
				Note Time="0" Value="F#3" Duration="2" Instrument="sample"
				Note Time="2" Value="G#3" Duration="1" Instrument="sample"
				Note Time="3" Value="A#3" Duration="1" Instrument="sample"
				Note Time="8" Value="D#5" Duration="2" Instrument="sample"
				Note Time="12" Value="A#4" Duration="2" Instrument="sample"
				Note Time="14" Value="F#4" Duration="2" Instrument="sample"
				Note Time="16" Value="G#4" Duration="2" Instrument="sample"
				Note Time="20" Value="D#4" Duration="2" Instrument="sample"
				Note Time="22" Value="C#4" Duration="2" Instrument="sample"
				Note Time="28" Value="A#4" Duration="2" Instrument="sample"
				Note Time="30" Value="A#4" Duration="1" Instrument="sample"
				Note Time="31" Value="C#5" Duration="1" Instrument="sample"
			Pattern Name="Pattern 27" Color="ffcb3c"
				Note Time="0" Value="D#5" Duration="2" Instrument="sample"
				Note Time="4" Value="D#3" Duration="2" Instrument="sample"
				Note Time="8" Value="D#3" Duration="2" Instrument="sample"
				Note Time="12" Value="G#4" Duration="2" Instrument="sample"
				Note Time="14" Value="F#4" Duration="2" Instrument="sample"
				Note Time="16" Value="C#5" Duration="2" Instrument="sample"
				Note Time="18" Value="A#4" Duration="2" Instrument="sample"
				Note Time="20" Value="G#4" Duration="2" Instrument="sample"
				Note Time="22" Value="F#4" Duration="2" Instrument="sample"
			Pattern Name="Pattern 30" Color="ff7f51"
				Note Time="2" Value="D#3" Duration="2" Instrument="Instrument 4"
				Note Time="4" Value="F#3" Duration="2" Instrument="Instrument 4"
				Note Time="6" Value="F#3" Duration="2" Instrument="Instrument 4"
				Note Time="8" Value="G#3" Duration="2" Instrument="Instrument 4"
				Note Time="16" Value="F#3" Duration="2" Instrument="Instrument 4"
				Note Time="20" Value="A#3" Duration="2" Instrument="Instrument 4"
				Note Time="22" Value="F#3" Duration="2" Instrument="Instrument 4"
				Note Time="24" Value="A#3" Duration="1" Instrument="Instrument 4"
				Note Time="25" Value="A#3" Duration="1" Instrument="Instrument 4"
				Note Time="26" Value="A#3" Duration="1" Instrument="Instrument 4"
				Note Time="27" Value="A#3" Duration="1" Instrument="Instrument 4"
			Pattern Name="Pattern 31" Color="fe5497"
				Note Time="4" Value="A#3" Duration="2" Instrument="Instrument 4"
				Note Time="6" Value="C#4" Duration="1" Instrument="Instrument 4"
				Note Time="7" Value="D#4" Duration="3" Instrument="Instrument 4"
				Note Time="12" Value="A#3" Duration="2" Instrument="Instrument 4"
				Note Time="14" Value="G#3" Duration="1" Instrument="Instrument 4"
				Note Time="15" Value="F#3" Duration="3" Instrument="Instrument 4"
			Pattern Name="Pattern 32" Color="e783f8"
				Note Time="3" Value="D#3" Duration="1" Instrument="Instrument 4"
				Note Time="4" Value="F#3" Duration="1" Instrument="Instrument 4"
				Note Time="6" Value="F#3" Duration="2" Instrument="Instrument 4"
				Note Time="8" Value="G#3" Duration="2" Instrument="Instrument 4"
				Note Time="10" Value="G#3" Duration="2" Instrument="Instrument 4"
				Note Time="12" Value="G#3" Duration="2" Instrument="Instrument 4"
				Note Time="16" Value="F#3" Duration="2" Instrument="Instrument 4"
				Note Time="18" Value="G#3" Duration="2" Instrument="Instrument 4"
				Note Time="20" Value="A#3" Duration="2" Instrument="Instrument 4"
				Note Time="22" Value="A#3" Duration="2" Instrument="Instrument 4"
				Note Time="28" Value="A#3" Duration="2" Instrument="Instrument 4"
				Note Time="30" Value="C#4" Duration="2" Instrument="Instrument 4"
			Pattern Name="Pattern 33" Color="8d69e4"
				Note Time="0" Value="D#4" Duration="4" Instrument="Instrument 4"
				Note Time="6" Value="C#4" Duration="2" Instrument="Instrument 4"
				Note Time="8" Value="A#3" Duration="3" Instrument="Instrument 4"
				Note Time="11" Value="G#3" Duration="1" Instrument="Instrument 4"
				Note Time="12" Value="F#3" Duration="2" Instrument="Instrument 4"
				Note Time="14" Value="F#3" Duration="3" Instrument="Instrument 4"
			Pattern Name="Pattern 34" Color="55b2ff"
				Note Time="2" Value="D#3" Duration="2" Instrument="Instrument 4"
				Note Time="4" Value="F#3" Duration="2" Instrument="Instrument 4"
				Note Time="6" Value="F#3" Duration="1" Instrument="Instrument 4"
				Note Time="7" Value="G#3" Duration="3" Instrument="Instrument 4"
				Note Time="10" Value="G#3" Duration="2" Instrument="Instrument 4"
				Note Time="26" Value="F#3" Duration="2" Instrument="Instrument 4"
				Note Time="28" Value="A#3" Duration="2" Instrument="Instrument 4"
				Note Time="30" Value="C#4" Duration="2" Instrument="Instrument 4"
			Pattern Name="Pattern 35" Color="65f2ff"
				Note Time="0" Value="D#4" Duration="4" Instrument="Instrument 4"
				Note Time="4" Value="A#3" Duration="2" Instrument="Instrument 4"
				Note Time="6" Value="G#3" Duration="1" Instrument="Instrument 4"
				Note Time="7" Value="F#3" Duration="3" Instrument="Instrument 4"
				Note Time="28" Value="A#3" Duration="2" Instrument="Instrument 4"
				Note Time="30" Value="G#3" Duration="2" Instrument="Instrument 4"
			Pattern Name="Pattern 36" Color="74ca78"
				Note Time="0" Value="D#4" Duration="4" Instrument="Instrument 4"
				Note Time="4" Value="A#3" Duration="2" Instrument="Instrument 4"
				Note Time="6" Value="G#3" Duration="1" Instrument="Instrument 4"
				Note Time="7" Value="F#3" Duration="3" Instrument="Instrument 4"
			Pattern Name="Pattern 13" Color="6ab96e"
				Note Time="0" Value="F#3" Duration="2" Instrument="death moon lead 2"
				Note Time="2" Value="F#3" Duration="2" Instrument="death moon lead 2"
				Note Time="6" Value="F3" Duration="2" Instrument="death moon lead 2"
				Note Time="9" Value="F3" Duration="2" Instrument="death moon lead 2"
				Note Time="12" Value="F#3" Duration="2" Instrument="death moon lead 2"
				Note Time="14" Value="F#3" Duration="2" Instrument="death moon lead 2"
				Note Time="18" Value="C#4" Duration="2" Instrument="death moon lead 2"
				Note Time="21" Value="C#4" Duration="2" Instrument="death moon lead 2"
				Note Time="24" Value="C#4" Duration="2" Instrument="death moon lead 2"
				Note Time="26" Value="A#3" Duration="2" Instrument="death moon lead 2"
				Note Time="28" Value="F#3" Duration="2" Instrument="death moon lead 2"
				Note Time="30" Value="C#3" Duration="2" Instrument="death moon lead 2"
			Pattern Name="Pattern 28" Color="dad960"
				Note Time="0" Value="F#3" Duration="2" Instrument="death moon lead 2"
				Note Time="2" Value="F#3" Duration="2" Instrument="death moon lead 2"
				Note Time="6" Value="F3" Duration="2" Instrument="death moon lead 2"
				Note Time="9" Value="F3" Duration="2" Instrument="death moon lead 2"
				Note Time="12" Value="G#3" Duration="2" Instrument="death moon lead 2"
				Note Time="14" Value="G#3" Duration="2" Instrument="death moon lead 2"
				Note Time="17" Value="F#3" Duration="2" Instrument="death moon lead 2"
				Note Time="20" Value="F#3" Duration="4" Instrument="death moon lead 2"
				Note Time="26" Value="C#4" Duration="2" Instrument="death moon lead 2"
				Note Time="29" Value="C#4" Duration="2" Instrument="death moon lead 2"
			Pattern Name="Pattern 14" Color="ff6464"
				Note Time="0" Value="F#3" Duration="2" Instrument="shift string"
				Note Time="2" Value="F#3" Duration="2" Instrument="shift string"
				Note Time="4" Value="F#3" Duration="2" Instrument="shift string"
				Note Time="6" Value="F#3" Duration="1" Instrument="shift string"
				Note Time="7" Value="F#3" Duration="2" Instrument="shift string"
				Note Time="8" Value="F#3" Duration="2" Instrument="shift string"
				Note Time="10" Value="F#3" Duration="2" Instrument="shift string"
				Note Time="12" Value="F#3" Duration="2" Instrument="shift string"
				Note Time="14" Value="F3" Duration="2" Instrument="shift string"
				Note Time="18" Value="C#3" Duration="2" Instrument="shift string"
				Note Time="20" Value="A#2" Duration="2" Instrument="shift string"
				Note Time="22" Value="C#3" Duration="2" Instrument="shift string"
				Note Time="24" Value="A#2" Duration="2" Instrument="shift string"
				Note Time="26" Value="A#2" Duration="2" Instrument="shift string"
				Note Time="28" Value="A#2" Duration="2" Instrument="shift string"
				Note Time="30" Value="A#2" Duration="1" Instrument="shift string"
				Note Time="31" Value="A#2" Duration="1" Instrument="shift string"
			Pattern Name="Pattern 37" Color="ff7f51"
				Note Time="0" Value="F#3" Duration="2" Instrument="shift string"
				Note Time="2" Value="F#3" Duration="2" Instrument="shift string"
				Note Time="4" Value="F#3" Duration="2" Instrument="shift string"
				Note Time="6" Value="F#3" Duration="1" Instrument="shift string"
				Note Time="7" Value="F#3" Duration="2" Instrument="shift string"
				Note Time="8" Value="F#3" Duration="2" Instrument="shift string"
				Note Time="10" Value="F#3" Duration="2" Instrument="shift string"
				Note Time="12" Value="G#3" Duration="2" Instrument="shift string"
				Note Time="14" Value="G#3" Duration="2" Instrument="shift string"
				Note Time="16" Value="G#3" Duration="2" Instrument="shift string"
				Note Time="18" Value="F#3" Duration="2" Instrument="shift string"
				Note Time="20" Value="F#3" Duration="2" Instrument="shift string"
				Note Time="26" Value="C#3" Duration="2" Instrument="shift string"
				Note Time="29" Value="C#3" Duration="2" Instrument="shift string"
			Pattern Name="Pattern 43" Color="ff8d5a"
				Note Time="0" Value="F#3" Duration="2" Instrument="shift string"
				Note Time="2" Value="F#3" Duration="2" Instrument="shift string"
				Note Time="4" Value="F#3" Duration="2" Instrument="shift string"
				Note Time="6" Value="F#3" Duration="1" Instrument="shift string"
				Note Time="7" Value="F#3" Duration="2" Instrument="shift string"
				Note Time="8" Value="F#3" Duration="2" Instrument="shift string"
				Note Time="10" Value="F#3" Duration="2" Instrument="shift string"
				Note Time="12" Value="G#3" Duration="2" Instrument="shift string"
				Note Time="14" Value="G#3" Duration="2" Instrument="shift string"
				Note Time="16" Value="G#3" Duration="2" Instrument="shift string"
				Note Time="18" Value="F#3" Duration="2" Instrument="shift string"
				Note Time="20" Value="F#3" Duration="2" Instrument="shift string"
				Note Time="24" Value="F#2" Duration="1" Instrument="shift string"
				Note Time="25" Value="C#2" Duration="1" Instrument="shift string"
				Note Time="26" Value="F#2" Duration="1" Instrument="shift string"
				Note Time="27" Value="C#2" Duration="1" Instrument="shift string"
				Note Time="28" Value="C#3" Duration="4" Instrument="shift string"
			Pattern Name="Pattern 17" Color="3cd2c4"
				Note Time="0" Value="G#4" Duration="3" Instrument="shift string lite"
				Note Time="3" Value="F#4" Duration="2" Instrument="shift string lite"
				Note Time="8" Value="G#4" Duration="3" Instrument="shift string lite"
				Note Time="11" Value="F#4" Duration="2" Instrument="shift string lite"
				Note Time="16" Value="G#4" Duration="3" Instrument="shift string lite"
				Note Time="19" Value="F#4" Duration="2" Instrument="shift string lite"
				Note Time="24" Value="G#4" Duration="2" Instrument="shift string lite"
				Note Time="26" Value="G#4" Duration="2" Instrument="shift string lite"
			Pattern Name="Pattern 44" Color="c7ff86"
				Note Time="0" Value="G#4" Duration="3" Instrument="shift string lite"
				Note Time="3" Value="F#4" Duration="2" Instrument="shift string lite"
				Note Time="8" Value="G#4" Duration="3" Instrument="shift string lite"
				Note Time="11" Value="F#4" Duration="2" Instrument="shift string lite"
				Note Time="16" Value="G#4" Duration="2" Instrument="shift string lite"
				Note Time="18" Value="F#4" Duration="2" Instrument="shift string lite"
				Note Time="20" Value="G#4" Duration="2" Instrument="shift string lite"
				Note Time="22" Value="F#4" Duration="2" Instrument="shift string lite"
				Note Time="24" Value="G#4" Duration="2" Instrument="shift string lite"
				Note Time="26" Value="G#4" Duration="2" Instrument="shift string lite"
			Pattern Name="Pattern 45" Color="62ffff"
				Note Time="0" Value="G#4" Duration="3" Instrument="shift string lite"
				Note Time="3" Value="F#4" Duration="2" Instrument="shift string lite"
				Note Time="8" Value="G#4" Duration="3" Instrument="shift string lite"
				Note Time="11" Value="F#4" Duration="2" Instrument="shift string lite"
				Note Time="16" Value="G#4" Duration="2" Instrument="shift string lite"
				Note Time="20" Value="G#4" Duration="2" Instrument="shift string lite"
				Note Time="24" Value="G#4" Duration="2" Instrument="shift string lite"
				Note Time="26" Value="G#4" Duration="2" Instrument="shift string lite"
				Note Time="28" Value="G#4" Duration="1" Instrument="shift string lite"
				Note Time="29" Value="G#4" Duration="1" Instrument="shift string lite"
				Note Time="30" Value="G#4" Duration="1" Instrument="shift string lite"
				Note Time="31" Value="G#4" Duration="1" Instrument="shift string lite"
			Pattern Name="Pattern 18" Color="b5c2ff"
				Note Time="0" Value="B3" Duration="1" Instrument="echo"
				Note Time="2" Value="G#4" Duration="1" Instrument="echo"
				Note Time="3" Value="F#4" Duration="4" Instrument="echo"
				Note Time="12" Value="D#4" Duration="1" Instrument="echo"
				Note Time="13" Value="F#4" Duration="2" Instrument="echo"
				Note Time="15" Value="G#4" Duration="2" Instrument="echo"
				Note Time="17" Value="F#4" Duration="2" Instrument="echo"
				Note Time="19" Value="D#4" Duration="1" Instrument="echo"
				Note Time="21" Value="G#4" Duration="2" Instrument="echo"
				Note Time="23" Value="F#4" Duration="2" Instrument="echo"
				Note Time="30" Value="F#4" Duration="1" Instrument="echo"
				Note Time="31" Value="F#4" Duration="1" Instrument="echo"
			Pattern Name="Pattern 19" Color="ff8f8c"
				Note Time="0" Value="F#4" Duration="4" Instrument="echo"
				Note Time="12" Value="C#4" Duration="1" Instrument="echo"
				Note Time="13" Value="D#4" Duration="2" Instrument="echo"
				Note Time="15" Value="E4" Duration="2" Instrument="echo"
				Note Time="17" Value="D#4" Duration="2" Instrument="echo"
				Note Time="19" Value="C#4" Duration="1" Instrument="echo"
				Note Time="21" Value="B3" Duration="2" Instrument="echo"
				Note Time="23" Value="B3" Duration="4" Instrument="echo"
				Note Time="28" Value="G#4" Duration="2" Instrument="sample"
				Note Time="30" Value="G#4" Duration="1" Instrument="sample"
				Note Time="31" Value="F#4" Duration="3" Instrument="sample"
			Pattern Name="Pattern 46" Color="65f2ff"
				Note Time="2" Value="G#4" Duration="6" Instrument="sample"
				Note Time="12" Value="D#4" Duration="1" Instrument="sample"
				Note Time="13" Value="F#4" Duration="2" Instrument="sample"
				Note Time="15" Value="G#4" Duration="2" Instrument="sample"
				Note Time="17" Value="F#4" Duration="2" Instrument="sample"
				Note Time="19" Value="D#4" Duration="2" Instrument="sample"
				Note Time="21" Value="G#4" Duration="2" Instrument="sample"
				Note Time="23" Value="F#4" Duration="2" Instrument="sample"
				Note Time="30" Value="F#4" Duration="1" Instrument="sample"
				Note Time="31" Value="F#4" Duration="1" Instrument="sample"
			Pattern Name="Pattern 47" Color="ff935e"
				Note Time="0" Value="F#4" Duration="4" Instrument="sample"
				Note Time="12" Value="C#4" Duration="1" Instrument="sample"
				Note Time="13" Value="D#4" Duration="2" Instrument="sample"
				Note Time="15" Value="E4" Duration="2" Instrument="sample"
				Note Time="17" Value="D#4" Duration="2" Instrument="sample"
				Note Time="19" Value="C#4" Duration="1" Instrument="sample"
				Note Time="21" Value="B3" Duration="2" Instrument="sample"
				Note Time="23" Value="B3" Duration="4" Instrument="sample"
				Note Time="28" Value="G#4" Duration="1" Instrument="sample"
				Note Time="29" Value="G#4" Duration="2" Instrument="sample"
				Note Time="31" Value="F#4" Duration="1" Instrument="sample"
			Pattern Name="Pattern 21" Color="fcff6f"
				Note Time="0" Value="G#4" Duration="4" Instrument="sample"
				Note Time="12" Value="D#4" Duration="1" Instrument="sample"
				Note Time="13" Value="F#4" Duration="2" Instrument="sample"
				Note Time="15" Value="G#4" Duration="2" Instrument="sample"
				Note Time="17" Value="F#4" Duration="3" Instrument="sample"
				Note Time="20" Value="G#4" Duration="2" Instrument="sample"
				Note Time="22" Value="F#4" Duration="1" Instrument="sample"
				Note Time="23" Value="G#4" Duration="2" Instrument="sample"
				Note Time="28" Value="D#4" Duration="2" Instrument="sample"
				Note Time="30" Value="F#4" Duration="1" Instrument="sample"
				Note Time="31" Value="F#4" Duration="5" Instrument="sample"
			Pattern Name="Pattern 24" Color="3cd3e3"
				Note Time="12" Value="C#4" Duration="1" Instrument="sample"
				Note Time="13" Value="D#4" Duration="3" Instrument="sample"
				Note Time="16" Value="D#4" Duration="2" Instrument="sample"
				Note Time="18" Value="C#4" Duration="2" Instrument="sample"
				Note Time="20" Value="C#4" Duration="2" Instrument="sample"
				Note Time="22" Value="B3" Duration="4" Instrument="sample"
				Note Time="28" Value="F#4" Duration="1" Instrument="sample"
				Note Time="29" Value="F#4" Duration="2" Instrument="sample"
				Note Time="31" Value="F#4" Duration="2" Instrument="sample"
			Pattern Name="Pattern 48" Color="ebf067"
				Note Time="12" Value="D#4" Duration="2" Instrument="sample"
				Note Time="14" Value="F#4" Duration="2" Instrument="sample"
				Note Time="16" Value="G#4" Duration="2" Instrument="sample"
				Note Time="18" Value="F#4" Duration="2" Instrument="sample"
				Note Time="20" Value="D#4" Duration="2" Instrument="sample"
				Note Time="22" Value="G#4" Duration="1" Instrument="sample"
				Note Time="23" Value="F#4" Duration="2" Instrument="sample"
				Note Time="28" Value="D#4" Duration="1" Instrument="sample"
				Note Time="29" Value="F#4" Duration="2" Instrument="sample"
				Note Time="31" Value="F#4" Duration="2" Instrument="sample"
			Pattern Name="Pattern 49" Color="ffdc3c"
				Note Time="11" Value="B3" Duration="1" Instrument="sample"
				Note Time="12" Value="C#4" Duration="2" Instrument="sample"
				Note Time="14" Value="B3" Duration="1" Instrument="sample"
				Note Time="15" Value="D#4" Duration="2" Instrument="sample"
				Note Time="17" Value="D#4" Duration="1" Instrument="sample"
				Note Time="18" Value="B3" Duration="1" Instrument="sample"
				Note Time="19" Value="C#4" Duration="2" Instrument="sample"
				Note Time="21" Value="C#4" Duration="1" Instrument="sample"
				Note Time="22" Value="B3" Duration="1" Instrument="sample"
				Note Time="23" Value="B3" Duration="2" Instrument="sample"
				Note Time="25" Value="F#3" Duration="2" Instrument="sample"
				Note Time="28" Value="G#4" Duration="2" Instrument="sample"
				Note Time="30" Value="G#4" Duration="1" Instrument="sample"
				Note Time="31" Value="F#4" Duration="2" Instrument="sample"
			Pattern Name="Pattern 50" Color="a657d6"
				Note Time="1" Value="F#4" Duration="1" Instrument="infernoplex_piano"
				Note Time="2" Value="D#4" Duration="1" Instrument="infernoplex_piano"
				Note Time="3" Value="F#3" Duration="1" Instrument="infernoplex_piano"
				Note Time="4" Value="F#4" Duration="1" Instrument="infernoplex_piano"
				Note Time="5" Value="D#4" Duration="1" Instrument="infernoplex_piano"
				Note Time="6" Value="B3" Duration="1" Instrument="infernoplex_piano"
				Note Time="7" Value="F#3" Duration="1" Instrument="infernoplex_piano"
				Note Time="8" Value="B4" Duration="2" Instrument="infernoplex_piano"
				Note Time="10" Value="D#4" Duration="1" Instrument="sample"
				Note Time="11" Value="D#4" Duration="1" Instrument="sample"
				Note Time="12" Value="E4" Duration="2" Instrument="sample"
				Note Time="14" Value="F#4" Duration="1" Instrument="sample"
				Note Time="15" Value="F#4" Duration="2" Instrument="sample"
				Note Time="17" Value="D#4" Duration="1" Instrument="infernoplex_piano"
				Note Time="18" Value="F#3" Duration="1" Instrument="infernoplex_piano"
				Note Time="19" Value="D#3" Duration="1" Instrument="infernoplex_piano"
				Note Time="20" Value="F#4" Duration="1" Instrument="infernoplex_piano"
				Note Time="21" Value="D#4" Duration="1" Instrument="infernoplex_piano"
				Note Time="22" Value="F#3" Duration="1" Instrument="infernoplex_piano"
				Note Time="23" Value="D#3" Duration="1" Instrument="infernoplex_piano"
				Note Time="24" Value="D#5" Duration="2" Instrument="infernoplex_piano"
				Note Time="28" Value="B3" Duration="2" Instrument="sample"
				Note Time="30" Value="B3" Duration="1" Instrument="sample"
				Note Time="31" Value="C#4" Duration="2" Instrument="sample"
			Pattern Name="Pattern 29" Color="ff7f51"
				Note Time="1" Value="F#4" Duration="1" Instrument="infernoplex_piano"
				Note Time="2" Value="D#4" Duration="1" Instrument="infernoplex_piano"
				Note Time="3" Value="F#3" Duration="1" Instrument="infernoplex_piano"
				Note Time="4" Value="F#4" Duration="1" Instrument="infernoplex_piano"
				Note Time="5" Value="D#4" Duration="1" Instrument="infernoplex_piano"
				Note Time="6" Value="B3" Duration="1" Instrument="infernoplex_piano"
				Note Time="7" Value="F#3" Duration="1" Instrument="infernoplex_piano"
				Note Time="8" Value="B4" Duration="2" Instrument="infernoplex_piano"
				Note Time="10" Value="D#4" Duration="1" Instrument="sample"
				Note Time="11" Value="D#4" Duration="1" Instrument="sample"
				Note Time="12" Value="D#4" Duration="1" Instrument="sample"
				Note Time="13" Value="D#4" Duration="1" Instrument="sample"
				Note Time="14" Value="D#4" Duration="1" Instrument="sample"
				Note Time="15" Value="C#4" Duration="2" Instrument="sample"
			Pattern Name="Pattern 38" Color="ffffb1"
				Note Time="1" Value="B3" Duration="2" Instrument="sample"
				Note Time="7" Value="C#4" Duration="2" Instrument="sample" Volume="12"
				Note Time="9" Value="B3" Duration="2" Instrument="sample"
				Note Time="15" Value="C#4" Duration="2" Instrument="sample" Volume="9"
				Note Time="17" Value="B3" Duration="2" Instrument="sample"
				Note Time="23" Value="C#4" Duration="2" Instrument="sample" Volume="6"
				Note Time="25" Value="B3" Duration="2" Instrument="sample"
				Note Time="31" Value="C#4" Duration="2" Instrument="sample" Volume="3"
			Pattern Name="Pattern 39" Color="62ffff"
				Note Time="1" Value="B3" Duration="2" Instrument="sample"
			PatternInstance Time="0" Pattern="3"
			PatternInstance Time="1" Pattern="Pattern 1"
			PatternInstance Time="2" Pattern="2"
			PatternInstance Time="3" Pattern="Pattern 2"
			PatternInstance Time="5" Pattern="01"
			PatternInstance Time="7" Pattern="Pattern 8"
			PatternInstance Time="10" Pattern="Pattern 3"
			PatternInstance Time="12" Pattern="Pattern 4"
			PatternInstance Time="13" Pattern="Pattern 5"
			PatternInstance Time="14" Pattern="Pattern 6"
			PatternInstance Time="15" Pattern="Pattern 15"
			PatternInstance Time="16" Pattern="Pattern 7"
			PatternInstance Time="17" Pattern="Pattern 20"
			PatternInstance Time="18" Pattern="Pattern 9"
			PatternInstance Time="19" Pattern="Pattern 10"
			PatternInstance Time="20" Pattern="Pattern 16"
			PatternInstance Time="21" Pattern="Pattern 22"
			PatternInstance Time="22" Pattern="Pattern 23"
			PatternInstance Time="23" Pattern="Pattern 11"
			PatternInstance Time="24" Pattern="Pattern 12"
			PatternInstance Time="25" Pattern="Pattern 25"
			PatternInstance Time="26" Pattern="Pattern 26"
			PatternInstance Time="27" Pattern="Pattern 27"
			PatternInstance Time="28" Pattern="Pattern 30"
			PatternInstance Time="29" Pattern="Pattern 31"
			PatternInstance Time="30" Pattern="Pattern 32"
			PatternInstance Time="31" Pattern="Pattern 33"
			PatternInstance Time="32" Pattern="Pattern 34"
			PatternInstance Time="33" Pattern="Pattern 35"
			PatternInstance Time="34" Pattern="Pattern 34"
			PatternInstance Time="35" Pattern="Pattern 36"
			PatternInstance Time="36" Pattern="Pattern 13"
			PatternInstance Time="37" Pattern="Pattern 28"
			PatternInstance Time="38" Pattern="Pattern 13"
			PatternInstance Time="39" Pattern="Pattern 28"
			PatternInstance Time="40" Pattern="Pattern 13"
			PatternInstance Time="41" Pattern="Pattern 28"
			PatternInstance Time="42" Pattern="Pattern 13"
			PatternInstance Time="43" Pattern="Pattern 28"
			PatternInstance Time="44" Pattern="Pattern 14"
			PatternInstance Time="45" Pattern="Pattern 37"
			PatternInstance Time="46" Pattern="Pattern 14"
			PatternInstance Time="47" Pattern="Pattern 43"
			PatternInstance Time="48" Pattern="Pattern 14"
			PatternInstance Time="49" Pattern="Pattern 37"
			PatternInstance Time="50" Pattern="Pattern 17"
			PatternInstance Time="51" Pattern="Pattern 44"
			PatternInstance Time="52" Pattern="Pattern 44"
			PatternInstance Time="53" Pattern="Pattern 45"
			PatternInstance Time="54" Pattern="Pattern 18"
			PatternInstance Time="55" Pattern="Pattern 19"
			PatternInstance Time="56" Pattern="Pattern 46"
			PatternInstance Time="57" Pattern="Pattern 47"
			PatternInstance Time="58" Pattern="Pattern 21"
			PatternInstance Time="59" Pattern="Pattern 24"
			PatternInstance Time="60" Pattern="Pattern 48"
			PatternInstance Time="61" Pattern="Pattern 49"
			PatternInstance Time="62" Pattern="Pattern 50"
			PatternInstance Time="63" Pattern="Pattern 29"
			PatternInstance Time="64" Pattern="Pattern 38"
			PatternInstance Time="65" Pattern="Pattern 39"
		Channel Type="Square2"
			Pattern Name="01" Color="3cc5b7"
				Note Time="18" Value="C#4" Duration="1" Instrument="echo"
				Note Time="19" Value="D#4" Duration="1" Instrument="echo"
				Note Time="20" Value="F#4" Duration="1" Instrument="echo"
				Note Time="21" Value="F4" Duration="1" Instrument="echo"
				Note Time="23" Value="F4" Duration="1" Instrument="echo"
				Note Time="24" Value="C#4" Duration="1" Instrument="echo"
				Note Time="28" Value="C#4" Duration="1" Instrument="echo"
				Note Time="30" Value="G#3" Duration="1" Instrument="echo"
			Pattern Name="Pattern 1" Color="ffff94"
				Note Time="0" Value="A#3" Duration="1" Instrument="echo"
				Note Time="2" Value="F#3" Duration="1" Instrument="echo"
				Note Time="12" Value="F3" Duration="1" Instrument="echo"
				Note Time="16" Value="D#3" Duration="1" Instrument="echo"
			Pattern Name="Pattern 2" Color="3cd2c4"
				Note Time="0" Value="B2" Duration="1" Instrument="echo"
				Note Time="2" Value="B2" Duration="1" Instrument="echo"
			Pattern Name="2" Color="7b8df1"
				Note Time="2" Value="C#4" Duration="1" Instrument="echo"
				Note Time="3" Value="D#4" Duration="1" Instrument="echo"
				Note Time="4" Value="F#4" Duration="1" Instrument="echo"
				Note Time="5" Value="F#4" Duration="1" Instrument="echo"
				Note Time="7" Value="C#4" Duration="1" Instrument="echo"
				Note Time="8" Value="D#4" Duration="1" Instrument="echo"
				Note Time="9" Value="F#4" Duration="1" Instrument="echo"
				Note Time="10" Value="F#4" Duration="1" Instrument="echo"
				Note Time="12" Value="F#4" Duration="1" Instrument="echo"
			Pattern Name="Pattern 8" Color="3ca598"
				Note Time="2" Value="A#2" Duration="2" Instrument="hex guitar 2"
				Note Time="4" Value="A#2" Duration="1" Instrument="hex guitar 2"
				Note Time="5" Value="A#2" Duration="2" Instrument="hex guitar 2"
				Note Time="7" Value="D#2" Duration="1" Instrument="hex guitar 2"
				Note Time="8" Value="F#2" Duration="2" Instrument="hex guitar 2"
				Note Time="12" Value="G#2" Duration="2" Instrument="hex guitar 2"
				Note Time="18" Value="A#2" Duration="2" Instrument="hex guitar 2"
				Note Time="20" Value="A#2" Duration="1" Instrument="hex guitar 2"
				Note Time="21" Value="A#2" Duration="2" Instrument="hex guitar 2"
				Note Time="23" Value="C#2" Duration="1" Instrument="hex guitar 2"
				Note Time="24" Value="F2" Duration="2" Instrument="hex guitar 2"
				Note Time="28" Value="G#2" Duration="2" Instrument="hex guitar 2"
			Pattern Name="Pattern 9" Color="7ee1ff"
				Note Time="0" Value="A#2" Duration="1" Instrument="hex guitar 2"
				Note Time="1" Value="A#2" Duration="2" Instrument="hex guitar 2"
				Note Time="3" Value="F2" Duration="1" Instrument="hex guitar 2"
				Note Time="4" Value="A#2" Duration="1" Instrument="hex guitar 2"
				Note Time="5" Value="A#2" Duration="2" Instrument="hex guitar 2"
				Note Time="7" Value="F2" Duration="1" Instrument="hex guitar 2"
				Note Time="8" Value="A#2" Duration="2" Instrument="hex guitar 2"
				Note Time="10" Value="A#2" Duration="2" Instrument="hex guitar 2"
				Note Time="12" Value="A#2" Duration="2" Instrument="hex guitar 2"
				Note Time="14" Value="G#2" Duration="2" Instrument="hex guitar 2"
				Note Time="18" Value="A#2" Duration="2" Instrument="hex guitar 2"
				Note Time="22" Value="A#2" Duration="2" Instrument="hex guitar 2"
				Note Time="26" Value="C#2" Duration="2" Instrument="hex guitar 2"
				Note Time="28" Value="F#2" Duration="1" Instrument="hex guitar 2"
				Note Time="29" Value="F#2" Duration="1" Instrument="hex guitar 2"
				Note Time="30" Value="F#2" Duration="1" Instrument="hex guitar 2"
				Note Time="31" Value="F#2" Duration="1" Instrument="hex guitar 2"
			Pattern Name="Pattern 10" Color="b59184"
				Note Time="0" Value="A#2" Duration="2" Instrument="hex guitar 2"
				Note Time="2" Value="A#2" Duration="2" Instrument="hex guitar 2"
				Note Time="4" Value="A#2" Duration="2" Instrument="hex guitar 2"
				Note Time="6" Value="A#2" Duration="2" Instrument="hex guitar 2"
				Note Time="8" Value="A#2" Duration="2" Instrument="hex guitar 2"
				Note Time="10" Value="A#2" Duration="2" Instrument="hex guitar 2"
				Note Time="12" Value="G#2" Duration="2" Instrument="hex guitar 2"
				Note Time="16" Value="A#2" Duration="2" Instrument="hex guitar 2"
				Note Time="18" Value="A#2" Duration="2" Instrument="hex guitar 2"
				Note Time="20" Value="A#2" Duration="2" Instrument="hex guitar 2"
				Note Time="22" Value="A#2" Duration="2" Instrument="hex guitar 2"
				Note Time="24" Value="A#2" Duration="2" Instrument="hex guitar 2"
				Note Time="26" Value="C#2" Duration="2" Instrument="hex guitar 2"
				Note Time="28" Value="G#2" Duration="2" Instrument="hex guitar 2"
				Note Time="30" Value="G#2" Duration="2" Instrument="hex guitar 2"
			Pattern Name="Pattern 11" Color="ffafaf"
				Note Time="0" Value="A#2" Duration="2" Instrument="hex guitar 2"
				Note Time="2" Value="A#2" Duration="2" Instrument="hex guitar 2"
				Note Time="4" Value="A#2" Duration="2" Instrument="hex guitar 2"
				Note Time="6" Value="A#2" Duration="2" Instrument="hex guitar 2"
				Note Time="8" Value="A#2" Duration="2" Instrument="hex guitar 2"
				Note Time="10" Value="A#2" Duration="2" Instrument="hex guitar 2"
				Note Time="12" Value="G#2" Duration="1" Instrument="hex guitar 2"
				Note Time="13" Value="G#2" Duration="1" Instrument="hex guitar 2"
				Note Time="14" Value="G#2" Duration="1" Instrument="hex guitar 2"
				Note Time="15" Value="G#2" Duration="1" Instrument="hex guitar 2"
				Note Time="16" Value="A#2" Duration="2" Instrument="hex guitar 2"
				Note Time="18" Value="A#2" Duration="2" Instrument="hex guitar 2"
				Note Time="20" Value="A#2" Duration="2" Instrument="hex guitar 2"
				Note Time="22" Value="D#2" Duration="2" Instrument="hex guitar 2"
				Note Time="26" Value="F#2" Duration="1" Instrument="hex guitar 2"
				Note Time="28" Value="F#2" Duration="1" Instrument="hex guitar 2"
				Note Time="29" Value="F#2" Duration="1" Instrument="hex guitar 2"
				Note Time="31" Value="F#2" Duration="1" Instrument="hex guitar 2"
			Pattern Name="Pattern 12" Color="89f2e8"
				Note Time="0" Value="A#2" Duration="2" Instrument="hex guitar 2"
				Note Time="2" Value="A#2" Duration="2" Instrument="hex guitar 2"
				Note Time="4" Value="A#2" Duration="1" Instrument="hex guitar 2"
				Note Time="5" Value="A#2" Duration="2" Instrument="hex guitar 2"
				Note Time="7" Value="D#2" Duration="1" Instrument="hex guitar 2"
				Note Time="8" Value="A#2" Duration="2" Instrument="hex guitar 2"
				Note Time="10" Value="A#2" Duration="2" Instrument="hex guitar 2"
				Note Time="12" Value="A#2" Duration="1" Instrument="hex guitar 2"
				Note Time="13" Value="A#2" Duration="2" Instrument="hex guitar 2"
				Note Time="15" Value="D#2" Duration="1" Instrument="hex guitar 2"
				Note Time="16" Value="A#2" Duration="2" Instrument="hex guitar 2"
				Note Time="18" Value="A#2" Duration="2" Instrument="hex guitar 2"
				Note Time="20" Value="A#2" Duration="1" Instrument="hex guitar 2"
				Note Time="21" Value="A#2" Duration="2" Instrument="hex guitar 2"
				Note Time="23" Value="D#2" Duration="1" Instrument="hex guitar 2"
				Note Time="24" Value="F#2" Duration="2" Instrument="hex guitar 2"
				Note Time="26" Value="F#2" Duration="2" Instrument="hex guitar 2"
				Note Time="28" Value="G#2" Duration="4" Instrument="hex guitar 2"
			Pattern Name="Pattern 13" Color="eaffbd"
				Note Time="0" Value="A#2" Duration="2" Instrument="hex guitar 2"
				Note Time="2" Value="A#2" Duration="2" Instrument="hex guitar 2"
				Note Time="4" Value="A#2" Duration="1" Instrument="hex guitar 2"
				Note Time="5" Value="A#2" Duration="2" Instrument="hex guitar 2"
				Note Time="7" Value="D#2" Duration="1" Instrument="hex guitar 2"
				Note Time="8" Value="A#2" Duration="2" Instrument="hex guitar 2"
				Note Time="10" Value="A#2" Duration="2" Instrument="hex guitar 2"
				Note Time="12" Value="A#2" Duration="1" Instrument="hex guitar 2"
				Note Time="13" Value="A#2" Duration="2" Instrument="hex guitar 2"
				Note Time="15" Value="D#2" Duration="1" Instrument="hex guitar 2"
				Note Time="16" Value="A#2" Duration="2" Instrument="hex guitar 2"
				Note Time="18" Value="G#2" Duration="1" Instrument="hex guitar 2"
				Note Time="19" Value="A#2" Duration="1" Instrument="hex guitar 2"
				Note Time="20" Value="A#2" Duration="2" Instrument="hex guitar 2"
				Note Time="22" Value="G#2" Duration="1" Instrument="hex guitar 2"
				Note Time="23" Value="A#2" Duration="1" Instrument="hex guitar 2"
				Note Time="24" Value="C#2" Duration="2" Instrument="hex guitar 2"
				Note Time="26" Value="C#2" Duration="2" Instrument="hex guitar 2"
				Note Time="28" Value="G#2" Duration="4" Instrument="hex guitar 2"
			Pattern Name="Pattern 14" Color="fcff6f"
				Note Time="0" Value="A#2" Duration="2" Instrument="hex guitar 2"
				Note Time="2" Value="A#2" Duration="2" Instrument="hex guitar 2"
				Note Time="4" Value="A#2" Duration="1" Instrument="hex guitar 2"
				Note Time="5" Value="A#2" Duration="2" Instrument="hex guitar 2"
				Note Time="7" Value="F2" Duration="1" Instrument="hex guitar 2"
				Note Time="8" Value="A#2" Duration="2" Instrument="hex guitar 2"
				Note Time="10" Value="A#2" Duration="2" Instrument="hex guitar 2"
				Note Time="12" Value="A#2" Duration="1" Instrument="hex guitar 2"
				Note Time="13" Value="A#2" Duration="2" Instrument="hex guitar 2"
				Note Time="15" Value="F2" Duration="1" Instrument="hex guitar 2"
				Note Time="16" Value="A#2" Duration="2" Instrument="hex guitar 2"
				Note Time="18" Value="A#2" Duration="2" Instrument="hex guitar 2"
				Note Time="20" Value="A#2" Duration="1" Instrument="hex guitar 2"
				Note Time="21" Value="A#2" Duration="2" Instrument="hex guitar 2"
				Note Time="23" Value="D#2" Duration="1" Instrument="hex guitar 2"
				Note Time="25" Value="F#2" Duration="3" Instrument="hex guitar 2"
				Note Time="29" Value="G#2" Duration="3" Instrument="hex guitar 2"
			Pattern Name="Pattern 15" Color="ba93fe"
				Note Time="2" Value="A#2" Duration="2" Instrument="hex guitar 2"
				Note Time="4" Value="A#2" Duration="1" Instrument="hex guitar 2"
				Note Time="5" Value="A#2" Duration="2" Instrument="hex guitar 2"
				Note Time="7" Value="F2" Duration="1" Instrument="hex guitar 2"
				Note Time="8" Value="G#2" Duration="2" Instrument="hex guitar 2"
				Note Time="12" Value="A#2" Duration="2" Instrument="hex guitar 2"
				Note Time="18" Value="A#2" Duration="2" Instrument="hex guitar 2"
				Note Time="20" Value="A#2" Duration="1" Instrument="hex guitar 2"
				Note Time="21" Value="A#2" Duration="2" Instrument="hex guitar 2"
				Note Time="23" Value="D#2" Duration="1" Instrument="hex guitar 2"
				Note Time="24" Value="F#2" Duration="2" Instrument="hex guitar 2"
			Pattern Name="Pattern 16" Color="a376f3"
				Note Time="2" Value="C#4" Duration="2" Instrument="infernoplex_piano"
				Note Time="4" Value="B3" Duration="2" Instrument="infernoplex_piano"
				Note Time="6" Value="A#3" Duration="2" Instrument="infernoplex_piano"
				Note Time="8" Value="F#3" Duration="6" Instrument="infernoplex_piano"
				Note Time="14" Value="C#4" Duration="2" Release="1" Instrument="blank"
			Pattern Name="Pattern 3" Color="f6a4ff"
				Note Time="0" Value="C#4" Duration="7" Release="5" Instrument="blank"
				Note Time="8" Value="C#3" Duration="2" Instrument="sample"
				Note Time="10" Value="A#2" Duration="2" Instrument="sample"
				Note Time="14" Value="F#3" Duration="6" Instrument="sample"
				Note Time="20" Value="C#3" Duration="2" Instrument="sample"
				Note Time="24" Value="A#2" Duration="2" Instrument="sample"
				Note Time="26" Value="F#2" Duration="2" Instrument="sample"
				Note Time="28" Volume="15" VolumeSlideTarget="9"
				Note Time="29" Value="C#4" Duration="1" Instrument="sample"
				Note Time="30" Value="C#4" Duration="4" Instrument="sample" Volume="15" VolumeSlideTarget="9"
			Pattern Name="Pattern 17" Color="a4db74"
				Note Time="8" Value="A#3" Duration="1" Instrument="sample"
				Note Time="9" Value="C#4" Duration="2" Instrument="sample"
				Note Time="12" Value="C#4" Duration="4" Instrument="sample"
				Note Time="16" Value="A#3" Duration="2" Instrument="infernoplex_piano"
				Note Time="18" Value="G#3" Duration="1" Instrument="infernoplex_piano"
				Note Time="19" Value="F#3" Duration="3" Instrument="infernoplex_piano"
				Note Time="22" Value="F#3" Duration="2" Instrument="infernoplex_piano"
				Note Time="24" Value="A#3" Duration="2" Instrument="infernoplex_piano"
				Note Time="26" Value="A#3" Duration="2" Instrument="infernoplex_piano"
				Note Time="28" Value="G#3" Duration="1" Instrument="infernoplex_piano"
				Note Time="29" Value="G#3" Duration="1" Instrument="infernoplex_piano"
				Note Time="30" Value="G#3" Duration="1" Instrument="infernoplex_piano"
				Note Time="31" Value="G#3" Duration="1" Instrument="infernoplex_piano"
			Pattern Name="Pattern 18" Color="ffac7f"
				Note Time="0" Value="D#3" Duration="7" Release="5" Instrument="blank"
				Note Time="8" Value="C#3" Duration="2" Instrument="sample"
				Note Time="10" Value="A#2" Duration="2" Instrument="sample"
				Note Time="14" Value="F#3" Duration="6" Instrument="sample"
				Note Time="20" Value="C#3" Duration="2" Instrument="sample"
				Note Time="24" Value="A#2" Duration="2" Instrument="sample"
				Note Time="26" Value="A#2" Duration="2" Instrument="sample"
				Note Time="28" Volume="15" VolumeSlideTarget="9"
			Pattern Name="Pattern 19" Color="ff7f72"
				Note Time="0" Value="F#2" Duration="2" Instrument="sample"
				Note Time="2" Value="F#3" Duration="2" Instrument="sample"
				Note Time="4" Value="C#3" Duration="2" Instrument="sample"
				Note Time="6" Value="F#4" Duration="2" Instrument="sample"
				Note Time="8" Value="F#4" Duration="2" Instrument="infernoplex_piano"
				Note Time="10" Value="F#4" Duration="2" Instrument="infernoplex_piano"
				Note Time="12" Value="F#4" Duration="1" Instrument="infernoplex_piano"
				Note Time="13" Value="F#4" Duration="1" Instrument="infernoplex_piano"
				Note Time="14" Value="F#4" Duration="1" Instrument="infernoplex_piano"
				Note Time="15" Value="F#4" Duration="1" Instrument="infernoplex_piano"
				Note Time="16" Value="A#3" Duration="2" Instrument="infernoplex_piano"
				Note Time="18" Value="G#3" Duration="1" Instrument="infernoplex_piano"
				Note Time="19" Value="F#3" Duration="3" Instrument="infernoplex_piano"
				Note Time="24" Value="A#3" Duration="2" Instrument="infernoplex_piano"
				Note Time="26" Value="G#3" Duration="1" Instrument="infernoplex_piano"
				Note Time="27" Value="F#3" Duration="1" Instrument="infernoplex_piano"
				Note Time="28" Value="G#3" Duration="2" Instrument="infernoplex_piano"
				Note Time="30" Value="G#3" Duration="2" Instrument="infernoplex_piano"
			Pattern Name="Pattern 20" Color="ff7571"
				Note Time="0" Value="D#3" Duration="2" Instrument="infernoplex_piano"
				Note Time="4" Value="F#3" Duration="2" Instrument="echo" Volume="15"
				Note Time="6" Value="D#3" Duration="2" Instrument="echo" Volume="15"
				Note Time="12" Value="F#3" Duration="2" Instrument="echo" Volume="15"
				Note Time="14" Value="D#3" Duration="2" Instrument="echo" Volume="15"
				Note Time="16" Value="F#2" Duration="4" Instrument="infernoplex_piano"
				Note Time="20" Value="F#3" Duration="4" Instrument="infernoplex_piano"
				Note Time="24" Value="A#3" Duration="2" Instrument="infernoplex_piano"
				Note Time="26" Value="A#3" Duration="2" Instrument="infernoplex_piano"
				Note Time="30" Value="B2" Duration="1" Instrument="infernoplex_piano"
				Note Time="31" Value="B2" Duration="1" Instrument="infernoplex_piano"
			Pattern Name="Pattern 4" Color="ffef3c"
				Note Time="0" Value="B2" Duration="2" Instrument="infernoplex_piano"
				Note Time="4" Value="F#3" Duration="2" Instrument="echo" Volume="15"
				Note Time="6" Value="D#3" Duration="2" Instrument="echo" Volume="15"
				Note Time="12" Value="F#3" Duration="2" Instrument="echo" Volume="15"
				Note Time="14" Value="D#3" Duration="2" Instrument="echo" Volume="15"
				Note Time="16" Value="F#2" Duration="4" Instrument="infernoplex_piano"
				Note Time="20" Value="A#2" Duration="4" Instrument="infernoplex_piano"
				Note Time="24" Value="C#3" Duration="4" Instrument="infernoplex_piano"
				Note Time="28" Value="A#2" Duration="4" Instrument="infernoplex_piano"
			Pattern Name="Pattern 21" Color="ffe362"
				Note Time="4" Value="F#3" Duration="2" Instrument="echo" Volume="15"
				Note Time="6" Value="D#3" Duration="2" Instrument="echo" Volume="15"
				Note Time="12" Value="F#3" Duration="2" Instrument="echo" Volume="15"
				Note Time="14" Value="D#3" Duration="2" Instrument="echo" Volume="15"
				Note Time="18" Value="F#3" Duration="2" Instrument="echo" Volume="15"
				Note Time="26" Value="D#3" Duration="2" Instrument="infernoplex_piano"
				Note Time="30" Value="C#3" Duration="10" Instrument="infernoplex_piano"
			Pattern Name="Pattern 24" Color="55b2ff"
				Note Time="10" Value="C#3" Duration="2" Instrument="infernoplex_piano"
				Note Time="12" Value="C#3" Duration="2" Instrument="infernoplex_piano"
				Note Time="14" Value="D#3" Duration="2" Instrument="infernoplex_piano"
				Note Time="18" Value="C#4" Duration="2" Instrument="infernoplex_piano"
				Note Time="20" Value="C#4" Duration="2" Instrument="infernoplex_piano"
				Note Time="22" Value="B3" Duration="2" Instrument="infernoplex_piano"
				Note Time="24" Value="B3" Duration="2" Instrument="infernoplex_piano"
				Note Time="26" Value="A#3" Duration="2" Instrument="infernoplex_piano"
				Note Time="28" Value="F#3" Duration="2" Instrument="infernoplex_piano"
				Note Time="30" Value="D#3" Duration="2" Instrument="infernoplex_piano"
			Pattern Name="Pattern 23" Color="ff8f8c"
				Note Time="0" Value="C#4" Duration="4" Instrument="blank string"
				Note Time="4" Value="C#4" Duration="4" Instrument="blank string"
				Note Time="8" Value="C#4" Duration="4" Instrument="blank string"
				Note Time="12" Value="C#4" Duration="4" Instrument="blank string"
				Note Time="16" Value="C#4" Duration="2" Instrument="blank string"
				Note Time="18" Value="C#4" Duration="2" Instrument="blank string"
				Note Time="20" Value="C#4" Duration="2" Instrument="blank string"
				Note Time="22" Value="C#4" Duration="2" Instrument="blank string"
				Note Time="24" Value="C#4" Duration="1" Instrument="blank string"
				Note Time="25" Value="C#4" Duration="1" Instrument="blank string"
				Note Time="26" Value="C#4" Duration="1" Instrument="blank string"
				Note Time="27" Value="C#4" Duration="1" Instrument="blank string"
				Note Time="28" Value="C#4" Duration="1" Instrument="blank string"
				Note Time="29" Value="C#4" Duration="1" Instrument="blank string"
				Note Time="30" Value="C#4" Duration="1" Instrument="blank string"
				Note Time="31" Value="C#4" Duration="1" Instrument="blank string"
			Pattern Name="Pattern 22" Color="ffe461"
				Note Time="0" Value="D#4" Duration="1" Instrument="infernoplex_piano"
				Note Time="1" Value="D#4" Duration="2" Instrument="infernoplex_piano"
				Note Time="6" Value="D#4" Duration="1" Instrument="infernoplex_piano"
				Note Time="7" Value="D#4" Duration="2" Instrument="infernoplex_piano"
				Note Time="18" Value="D#4" Duration="2" Instrument="infernoplex_piano"
				Note Time="20" Value="D#4" Duration="2" Instrument="infernoplex_piano"
				Note Time="22" Value="D#4" Duration="1" Instrument="infernoplex_piano"
				Note Time="23" Value="D#4" Duration="2" Instrument="infernoplex_piano"
				Note Time="26" Value="F#4" Duration="3" Instrument="infernoplex_piano"
				Note Time="30" Value="F#4" Duration="2" Instrument="infernoplex_piano"
			Pattern Name="Pattern 5" Color="fcff6f"
				Note Time="0" Value="F#3" Duration="2" Instrument="infernoplex_piano"
				Note Time="2" Value="G#3" Duration="1" Instrument="infernoplex_piano"
				Note Time="3" Value="A#3" Duration="1" Instrument="infernoplex_piano"
				Note Time="20" Value="A#2" Duration="2" Instrument="infernoplex_piano"
				Note Time="22" Value="C#3" Duration="2" Instrument="infernoplex_piano"
				Note Time="26" Value="C#3" Duration="2" Instrument="infernoplex_piano"
				Note Time="30" Value="C#3" Duration="2" Instrument="infernoplex_piano"
			Pattern Name="Pattern 25" Color="ff9ece"
				Note Time="0" Value="F#3" Duration="2" Instrument="infernoplex_piano"
				Note Time="2" Value="G#3" Duration="1" Instrument="infernoplex_piano"
				Note Time="3" Value="A#3" Duration="1" Instrument="infernoplex_piano"
				Note Time="20" Value="F#2" Duration="2" Instrument="infernoplex_piano"
				Note Time="24" Value="A#2" Duration="2" Instrument="infernoplex_piano"
				Note Time="26" Value="A#2" Duration="2" Instrument="infernoplex_piano"
				Note Time="28" Value="A#2" Duration="4" Instrument="infernoplex_piano"
			Pattern Name="Pattern 28" Color="ca60e6"
				Note Time="0" Value="F#3" Duration="2" Instrument="infernoplex_piano"
				Note Time="2" Value="G#3" Duration="1" Instrument="infernoplex_piano"
				Note Time="3" Value="A#3" Duration="1" Instrument="infernoplex_piano"
				Note Time="8" Value="D#4" Duration="2" Instrument="infernoplex_piano"
				Note Time="12" Value="A#3" Duration="2" Instrument="infernoplex_piano"
				Note Time="14" Value="F#3" Duration="2" Instrument="infernoplex_piano"
				Note Time="16" Value="G#3" Duration="2" Instrument="infernoplex_piano"
				Note Time="20" Value="D#3" Duration="2" Instrument="infernoplex_piano"
				Note Time="22" Value="C#3" Duration="2" Instrument="infernoplex_piano"
				Note Time="28" Value="A#3" Duration="2" Instrument="infernoplex_piano"
				Note Time="30" Value="A#3" Duration="1" Instrument="infernoplex_piano"
				Note Time="31" Value="C#4" Duration="1" Instrument="infernoplex_piano"
			Pattern Name="Pattern 29" Color="ffe362"
				Note Time="0" Value="D#4" Duration="2" Instrument="infernoplex_piano"
				Note Time="12" Value="G#3" Duration="2" Instrument="infernoplex_piano"
				Note Time="14" Value="F#3" Duration="2" Instrument="infernoplex_piano"
				Note Time="16" Value="C#4" Duration="2" Instrument="infernoplex_piano"
				Note Time="18" Value="A#3" Duration="2" Instrument="infernoplex_piano"
				Note Time="20" Value="G#3" Duration="2" Instrument="infernoplex_piano"
				Note Time="22" Value="F#3" Duration="2" Instrument="infernoplex_piano"
			Pattern Name="Pattern 6" Color="ff579c"
				Note Time="2" Value="D#4" Duration="4" Instrument="echo"
				Note Time="6" Value="F#4" Duration="2" Instrument="echo"
				Note Time="8" Value="D#4" Duration="4" Instrument="echo"
				Note Time="16" Value="A#4" Duration="4" Instrument="echo"
				Note Time="20" Value="D#4" Duration="2" Instrument="echo"
				Note Time="22" Value="F#4" Duration="2" Instrument="echo"
				Note Time="24" Value="A#4" Duration="1" Instrument="echo"
				Note Time="25" Value="A#4" Duration="1" Instrument="echo"
				Note Time="26" Value="A#4" Duration="1" Instrument="echo"
				Note Time="27" Value="A#4" Duration="1" Instrument="echo"
			Pattern Name="Pattern 26" Color="ffc6a1"
				Note Time="0" Value="D#4" Duration="4" Instrument="echo"
				Note Time="4" Value="D#4" Duration="2" Instrument="echo"
				Note Time="6" Value="F#4" Duration="1" Instrument="echo"
				Note Time="7" Value="A#4" Duration="4" Instrument="echo"
				Note Time="12" Value="D#5" Duration="2" Instrument="echo"
				Note Time="14" Value="A#4" Duration="1" Instrument="echo"
				Note Time="15" Value="F#4" Duration="4" Instrument="echo"
				Note Time="20" Value="G#4" Duration="2" Instrument="echo"
				Note Time="22" Value="F#4" Duration="2" Instrument="echo"
				Note Time="26" Value="F#4" Duration="2" Instrument="echo"
				Note Time="28" Value="F#4" Duration="2" Instrument="echo"
				Note Time="30" Value="F#4" Duration="2" Instrument="echo"
			Pattern Name="Pattern 32" Color="ffff75"
				Note Time="3" Value="A#3" Duration="1" Instrument="echo"
				Note Time="4" Value="D#4" Duration="1" Instrument="echo"
				Note Time="6" Value="D#4" Duration="2" Instrument="echo"
				Note Time="8" Value="A#4" Duration="2" Instrument="echo"
				Note Time="10" Value="G#4" Duration="2" Instrument="echo"
				Note Time="12" Value="F#4" Duration="2" Instrument="echo"
				Note Time="16" Value="A#4" Duration="2" Instrument="echo"
				Note Time="18" Value="G#4" Duration="2" Instrument="echo"
				Note Time="20" Value="F#4" Duration="2" Instrument="echo"
				Note Time="22" Value="C#4" Duration="2" Instrument="echo"
				Note Time="28" Value="A#4" Duration="2" Instrument="echo"
				Note Time="30" Value="F#4" Duration="2" Instrument="echo"
			Pattern Name="Pattern 33" Color="8d69e4"
				Note Time="0" Value="D#4" Duration="4" Instrument="echo"
				Note Time="6" Value="A#3" Duration="2" Instrument="echo"
				Note Time="8" Value="D#4" Duration="4" Instrument="echo"
				Note Time="12" Value="G#4" Duration="2" Instrument="echo"
				Note Time="14" Value="F#4" Duration="2" Instrument="echo"
				Note Time="16" Value="C#4" Duration="4" Instrument="echo"
				Note Time="20" Value="G#4" Duration="2" Instrument="echo"
				Note Time="22" Value="F#4" Duration="2" Instrument="echo"
				Note Time="26" Value="F#4" Duration="2" Instrument="echo"
				Note Time="28" Value="A#4" Duration="1" Instrument="echo"
				Note Time="29" Value="F#4" Duration="1" Instrument="echo"
				Note Time="30" Value="C#4" Duration="1" Instrument="echo"
			Pattern Name="Pattern 34" Color="ca60e6"
				Note Time="2" Value="D#4" Duration="2" Instrument="echo"
				Note Time="4" Value="A#3" Duration="2" Instrument="echo"
				Note Time="6" Value="D#4" Duration="1" Instrument="echo"
				Note Time="7" Value="C#4" Duration="3" Instrument="echo"
				Note Time="10" Value="G#3" Duration="2" Instrument="echo"
				Note Time="16" Value="A#3" Duration="1" Instrument="echo"
				Note Time="17" Value="F#3" Duration="1" Instrument="echo"
				Note Time="18" Value="A#3" Duration="1" Instrument="echo"
				Note Time="19" Value="F#3" Duration="1" Instrument="echo"
				Note Time="20" Value="G#3" Duration="1" Instrument="echo"
				Note Time="21" Value="C#3" Duration="1" Instrument="echo"
				Note Time="22" Value="C#4" Duration="1" Instrument="echo"
				Note Time="26" Value="F4" Duration="2" Instrument="echo"
				Note Time="28" Value="C#4" Duration="2" Instrument="echo"
				Note Time="30" Value="G#3" Duration="2" Instrument="echo"
			Pattern Name="Pattern 35" Color="ebf067"
				Note Time="0" Value="F#3" Duration="4" Instrument="echo"
				Note Time="4" Value="D#4" Duration="2" Instrument="echo"
				Note Time="6" Value="C#4" Duration="2" Instrument="echo"
				Note Time="8" Value="D#4" Duration="2" Instrument="echo"
				Note Time="10" Value="A#3" Duration="2" Instrument="echo"
				Note Time="12" Value="D#4" Duration="2" Instrument="echo"
				Note Time="14" Value="A#3" Duration="2" Instrument="echo"
				Note Time="16" Value="D#4" Duration="2" Instrument="echo"
				Note Time="20" Value="F#3" Duration="2" Instrument="echo"
				Note Time="24" Value="F#3" Duration="2" Instrument="echo"
				Note Time="28" Value="A#3" Duration="2" Instrument="echo"
				Note Time="30" Value="G#3" Duration="2" Instrument="echo"
			Pattern Name="Pattern 36" Color="ffdc3c"
				Note Time="0" Value="F#3" Duration="4" Instrument="echo"
				Note Time="4" Value="D#4" Duration="2" Instrument="echo"
				Note Time="6" Value="C#4" Duration="2" Instrument="echo"
				Note Time="8" Value="D#4" Duration="2" Instrument="echo"
				Note Time="10" Value="A#3" Duration="2" Instrument="echo"
				Note Time="12" Value="D#4" Duration="2" Instrument="echo"
				Note Time="14" Value="A#3" Duration="2" Instrument="echo"
				Note Time="16" Value="D#4" Duration="2" Instrument="echo"
				Note Time="18" Value="A#3" Duration="2" Instrument="echo"
				Note Time="20" Value="D#4" Duration="2" Instrument="echo"
				Note Time="22" Value="A#3" Duration="2" Instrument="echo"
				Note Time="24" Value="D#4" Duration="2" Instrument="echo"
				Note Time="26" Value="C#4" Duration="2" Instrument="echo"
				Note Time="28" Value="D#4" Duration="4" Instrument="echo"
			Pattern Name="Pattern 27" Color="6c7bdb"
				Note Time="0" Value="B3" Duration="2" Instrument="echo"
				Note Time="2" Value="B3" Duration="2" Instrument="echo"
				Note Time="4" Value="G#3" Duration="2" Instrument="echo"
				Note Time="6" Value="C#4" Duration="2" Instrument="echo"
				Note Time="9" Value="G#3" Duration="2" Instrument="echo"
				Note Time="12" Value="C#4" Duration="2" Instrument="echo"
				Note Time="14" Value="D#4" Duration="2" Instrument="echo"
				Note Time="18" Value="F#4" Duration="2" Instrument="echo"
				Note Time="21" Value="F#4" Duration="2" Instrument="echo"
				Note Time="24" Value="D#4" Duration="2" Instrument="echo"
				Note Time="26" Value="C#4" Duration="2" Instrument="echo"
				Note Time="28" Value="A#3" Duration="2" Instrument="echo"
				Note Time="30" Value="F#3" Duration="2" Instrument="echo"
			Pattern Name="Pattern 37" Color="7ee1ff"
				Note Time="0" Value="B3" Duration="2" Instrument="echo"
				Note Time="2" Value="B3" Duration="2" Instrument="echo"
				Note Time="4" Value="G#3" Duration="2" Instrument="echo"
				Note Time="6" Value="C#4" Duration="2" Instrument="echo"
				Note Time="9" Value="G#3" Duration="2" Instrument="echo"
				Note Time="12" Value="C#4" Duration="2" Instrument="echo"
				Note Time="14" Value="D#4" Duration="2" Instrument="echo"
				Note Time="17" Value="C#4" Duration="2" Instrument="echo"
				Note Time="20" Value="A#3" Duration="2" Instrument="echo"
				Note Time="22" Value="F#3" Duration="2" Instrument="echo"
				Note Time="26" Value="A#3" Duration="2" Instrument="echo"
				Note Time="29" Value="A#3" Duration="2" Instrument="echo"
			Pattern Name="Pattern 38" Color="3cb5a7"
				Note Time="0" Value="B3" Duration="2" Instrument="echo"
				Note Time="2" Value="B3" Duration="2" Instrument="echo"
				Note Time="4" Value="G#3" Duration="2" Instrument="echo"
				Note Time="6" Value="C#4" Duration="2" Instrument="echo"
				Note Time="9" Value="G#3" Duration="2" Instrument="echo"
				Note Time="12" Value="C#4" Duration="2" Instrument="echo"
				Note Time="14" Value="D#4" Duration="2" Instrument="echo"
				Note Time="18" Value="F#4" Duration="2" Instrument="echo"
				Note Time="21" Value="F#4" Duration="2" Instrument="echo"
			Pattern Name="Pattern 41" Color="ffff93"
				Note Time="20" Value="A#3" Duration="2" Instrument="echo"
				Note Time="22" Value="F#3" Duration="2" Instrument="echo"
				Note Time="26" Value="C#4" Duration="2" Instrument="echo"
				Note Time="29" Value="C#4" Duration="2" Instrument="echo"
			Pattern Name="Pattern 39" Color="a2f7a6"
				Note Time="0" Value="D#4" Duration="2" Instrument="echo"
				Note Time="2" Value="D#4" Duration="2" Instrument="echo"
				Note Time="4" Value="G#3" Duration="2" Instrument="echo"
				Note Time="6" Value="C#4" Duration="2" Instrument="echo"
				Note Time="9" Value="C#4" Duration="2" Instrument="echo"
				Note Time="12" Value="D#4" Duration="2" Instrument="echo"
				Note Time="14" Value="D#4" Duration="2" Instrument="echo"
				Note Time="18" Value="F#4" Duration="2" Instrument="echo"
				Note Time="21" Value="F#4" Duration="2" Instrument="echo"
				Note Time="24" Value="F#4" Duration="2" Instrument="echo"
				Note Time="26" Value="D#4" Duration="2" Instrument="echo"
				Note Time="28" Value="C#4" Duration="2" Instrument="echo"
				Note Time="30" Value="A#3" Duration="2" Instrument="echo"
			Pattern Name="Pattern 40" Color="a4db74"
				Note Time="0" Value="D#4" Duration="2" Instrument="echo"
				Note Time="2" Value="D#4" Duration="2" Instrument="echo"
				Note Time="4" Value="G#3" Duration="2" Instrument="echo"
				Note Time="6" Value="C#4" Duration="2" Instrument="echo"
				Note Time="9" Value="C#4" Duration="2" Instrument="echo"
				Note Time="12" Value="F4" Duration="2" Instrument="echo"
				Note Time="14" Value="F4" Duration="2" Instrument="echo"
				Note Time="17" Value="D#4" Duration="2" Instrument="echo"
				Note Time="20" Value="D#4" Duration="2" Instrument="echo"
				Note Time="22" Value="F#3" Duration="2" Instrument="echo"
				Note Time="26" Value="D#4" Duration="2" Instrument="echo"
				Note Time="29" Value="D#4" Duration="2" Instrument="echo"
			Pattern Name="Pattern 7" Color="ffdc3c"
				Note Time="0" Value="F#4" Duration="2" Instrument="sample"
				Note Time="2" Value="F#4" Duration="2" Instrument="sample"
				Note Time="4" Value="F#4" Duration="2" Instrument="sample"
				Note Time="6" Value="F#4" Duration="1" Instrument="sample"
				Note Time="7" Value="F#4" Duration="2" Instrument="sample"
				Note Time="8" Value="F#4" Duration="2" Instrument="sample"
				Note Time="10" Value="F#4" Duration="2" Instrument="sample"
				Note Time="12" Value="F#4" Duration="2" Instrument="sample"
				Note Time="14" Value="F4" Duration="2" Instrument="sample"
				Note Time="18" Value="C#4" Duration="2" Instrument="sample"
				Note Time="20" Value="A#3" Duration="2" Instrument="sample"
				Note Time="22" Value="C#4" Duration="2" Instrument="sample"
				Note Time="24" Value="A#3" Duration="2" Instrument="sample"
				Note Time="26" Value="A#3" Duration="2" Instrument="sample"
				Note Time="28" Value="A#3" Duration="2" Instrument="sample"
				Note Time="30" Value="A#3" Duration="1" Instrument="sample"
				Note Time="31" Value="A#3" Duration="1" Instrument="sample"
			Pattern Name="Pattern 30" Color="74ca78"
				Note Time="0" Value="F#4" Duration="2" Instrument="sample"
				Note Time="2" Value="F#4" Duration="2" Instrument="sample"
				Note Time="4" Value="F#4" Duration="2" Instrument="sample"
				Note Time="6" Value="F#4" Duration="1" Instrument="sample"
				Note Time="7" Value="F#4" Duration="2" Instrument="sample"
				Note Time="8" Value="F#4" Duration="2" Instrument="sample"
				Note Time="10" Value="F#4" Duration="2" Instrument="sample"
				Note Time="12" Value="G#4" Duration="2" Instrument="sample"
				Note Time="14" Value="G#4" Duration="2" Instrument="sample"
				Note Time="16" Value="G#4" Duration="2" Instrument="sample"
				Note Time="18" Value="F#4" Duration="2" Instrument="sample"
				Note Time="20" Value="F#4" Duration="2" Instrument="sample"
				Note Time="26" Value="C#4" Duration="2" Instrument="sample"
				Note Time="29" Value="C#4" Duration="2" Instrument="sample"
			Pattern Name="Pattern 42" Color="fff389"
				Note Time="0" Value="F#4" Duration="2" Instrument="sample"
				Note Time="2" Value="F#4" Duration="2" Instrument="sample"
				Note Time="4" Value="F#4" Duration="2" Instrument="sample"
				Note Time="6" Value="F#4" Duration="1" Instrument="sample"
				Note Time="7" Value="F#4" Duration="2" Instrument="sample"
				Note Time="8" Value="F#4" Duration="2" Instrument="sample"
				Note Time="10" Value="F#4" Duration="2" Instrument="sample"
				Note Time="12" Value="G#4" Duration="2" Instrument="sample"
				Note Time="14" Value="G#4" Duration="2" Instrument="sample"
				Note Time="16" Value="G#4" Duration="2" Instrument="sample"
				Note Time="18" Value="F#4" Duration="2" Instrument="sample"
				Note Time="20" Value="F#4" Duration="2" Instrument="sample"
				Note Time="24" Value="F#3" Duration="1" Instrument="sample"
				Note Time="25" Value="C#3" Duration="1" Instrument="sample"
				Note Time="26" Value="F#3" Duration="1" Instrument="sample"
				Note Time="27" Value="C#3" Duration="1" Instrument="sample"
				Note Time="28" Value="C#4" Duration="4" Instrument="sample"
			Pattern Name="Pattern 31" Color="6ab96e"
				Note Time="0" Value="G#3" Duration="3" Instrument="sample"
				Note Time="3" Value="F#3" Duration="2" Instrument="sample"
				Note Time="8" Value="G#3" Duration="3" Instrument="sample"
				Note Time="11" Value="F#3" Duration="2" Instrument="sample"
				Note Time="16" Value="G#3" Duration="3" Instrument="sample"
				Note Time="19" Value="F#3" Duration="2" Instrument="sample"
				Note Time="24" Value="G#3" Duration="2" Instrument="sample"
				Note Time="26" Value="G#3" Duration="2" Instrument="sample"
			Pattern Name="Pattern 43" Color="dad960"
				Note Time="0" Value="G#3" Duration="3" Instrument="sample"
				Note Time="3" Value="F#3" Duration="2" Instrument="sample"
				Note Time="8" Value="G#3" Duration="3" Instrument="sample"
				Note Time="11" Value="F#3" Duration="2" Instrument="sample"
				Note Time="16" Value="G#3" Duration="3" Instrument="sample"
				Note Time="19" Value="F#3" Duration="1" Instrument="sample"
				Note Time="20" Value="G#3" Duration="3" Instrument="sample"
				Note Time="23" Value="F#3" Duration="1" Instrument="sample"
				Note Time="24" Value="G#3" Duration="2" Instrument="sample"
				Note Time="26" Value="G#3" Duration="2" Instrument="sample"
			Pattern Name="Pattern 44" Color="3cb5a7"
				Note Time="0" Value="G#3" Duration="3" Instrument="sample"
				Note Time="3" Value="F#3" Duration="2" Instrument="sample"
				Note Time="8" Value="G#3" Duration="3" Instrument="sample"
				Note Time="11" Value="F#3" Duration="2" Instrument="sample"
				Note Time="16" Value="G#3" Duration="2" Instrument="sample"
				Note Time="20" Value="G#3" Duration="2" Instrument="sample"
				Note Time="24" Value="G#3" Duration="2" Instrument="sample"
				Note Time="26" Value="G#3" Duration="2" Instrument="sample"
				Note Time="28" Value="G#3" Duration="1" Instrument="sample"
				Note Time="29" Value="G#3" Duration="1" Instrument="sample"
				Note Time="30" Value="G#3" Duration="1" Instrument="sample"
				Note Time="31" Value="G#3" Duration="1" Instrument="sample"
			Pattern Name="Pattern 45" Color="ffef3c"
				Note Time="0" Value="F#4" Duration="1" Instrument="echo"
				Note Time="1" Value="D#4" Duration="1" Instrument="echo"
				Note Time="2" Value="B3" Duration="1" Instrument="echo"
				Note Time="3" Value="A#3" Duration="1" Instrument="echo"
				Note Time="4" Value="F#4" Duration="1" Instrument="echo"
				Note Time="5" Value="D#4" Duration="1" Instrument="echo"
				Note Time="6" Value="B3" Duration="1" Instrument="echo"
				Note Time="7" Value="A#3" Duration="1" Instrument="echo"
				Note Time="8" Value="F#4" Duration="1" Instrument="echo"
				Note Time="9" Value="D#4" Duration="1" Instrument="echo"
				Note Time="10" Value="B3" Duration="1" Instrument="echo"
				Note Time="11" Value="A#3" Duration="1" Instrument="echo"
				Note Time="12" Value="F#4" Duration="1" Instrument="echo"
				Note Time="13" Value="D#4" Duration="1" Instrument="echo"
				Note Time="14" Value="B3" Duration="1" Instrument="echo"
				Note Time="15" Value="A#3" Duration="1" Instrument="echo"
				Note Time="16" Value="E4" Duration="1" Instrument="echo"
				Note Time="17" Value="D#4" Duration="1" Instrument="echo"
				Note Time="18" Value="B3" Duration="1" Instrument="echo"
				Note Time="19" Value="G#3" Duration="1" Instrument="echo"
				Note Time="20" Value="E4" Duration="1" Instrument="echo"
				Note Time="21" Value="D#4" Duration="1" Instrument="echo"
				Note Time="22" Value="B3" Duration="1" Instrument="echo"
				Note Time="23" Value="G#3" Duration="1" Instrument="echo"
				Note Time="24" Value="D#4" Duration="1" Instrument="echo"
				Note Time="25" Value="B3" Duration="1" Instrument="echo"
				Note Time="26" Value="F#3" Duration="1" Instrument="echo"
				Note Time="27" Value="D#3" Duration="1" Instrument="echo"
				Note Time="28" Value="D#4" Duration="1" Instrument="echo"
				Note Time="29" Value="B3" Duration="1" Instrument="echo"
				Note Time="30" Value="F#3" Duration="1" Instrument="echo"
				Note Time="31" Value="D#3" Duration="1" Instrument="echo"
			Pattern Name="Pattern 46" Color="ffff94"
				Note Time="0" Value="D#4" Duration="1" Instrument="echo"
				Note Time="1" Value="B3" Duration="1" Instrument="echo"
				Note Time="2" Value="F#3" Duration="1" Instrument="echo"
				Note Time="3" Value="D#3" Duration="1" Instrument="echo"
				Note Time="4" Value="D#4" Duration="1" Instrument="echo"
				Note Time="5" Value="B3" Duration="1" Instrument="echo"
				Note Time="6" Value="G#4" Duration="1" Instrument="echo"
				Note Time="7" Value="D#4" Duration="1" Instrument="echo"
				Note Time="8" Value="F#4" Duration="1" Instrument="echo"
				Note Time="9" Value="B3" Duration="1" Instrument="echo"
				Note Time="10" Value="D#4" Duration="1" Instrument="echo"
				Note Time="11" Value="G#3" Duration="1" Instrument="echo"
				Note Time="12" Value="C#4" Duration="1" Instrument="echo"
				Note Time="13" Value="F#3" Duration="1" Instrument="echo"
				Note Time="14" Value="B3" Duration="1" Instrument="echo"
				Note Time="15" Value="G#3" Duration="1" Instrument="echo"
				Note Time="16" Value="E4" Duration="1" Instrument="echo"
				Note Time="17" Value="D#4" Duration="1" Instrument="echo"
				Note Time="18" Value="B3" Duration="1" Instrument="echo"
				Note Time="19" Value="G#3" Duration="1" Instrument="echo"
				Note Time="20" Value="E4" Duration="1" Instrument="echo"
				Note Time="21" Value="D#4" Duration="1" Instrument="echo"
				Note Time="22" Value="B3" Duration="1" Instrument="echo"
				Note Time="23" Value="G#3" Duration="1" Instrument="echo"
				Note Time="24" Value="D#4" Duration="1" Instrument="echo"
				Note Time="25" Value="B3" Duration="1" Instrument="echo"
				Note Time="26" Value="F#3" Duration="1" Instrument="echo"
				Note Time="27" Value="D#3" Duration="1" Instrument="echo"
				Note Time="28" Value="D#4" Duration="1" Instrument="echo"
				Note Time="29" Value="B3" Duration="1" Instrument="echo"
				Note Time="30" Value="F#3" Duration="1" Instrument="echo"
				Note Time="31" Value="D#3" Duration="1" Instrument="echo"
			Pattern Name="Pattern 47" Color="ff8655"
				Note Time="0" Value="C#4" Duration="1" Instrument="echo"
				Note Time="1" Value="G#3" Duration="1" Instrument="echo"
				Note Time="2" Value="E3" Duration="1" Instrument="echo"
				Note Time="3" Value="C#3" Duration="1" Instrument="echo"
				Note Time="4" Value="C#4" Duration="1" Instrument="echo"
				Note Time="5" Value="G#3" Duration="1" Instrument="echo"
				Note Time="6" Value="E3" Duration="1" Instrument="echo"
				Note Time="7" Value="C#3" Duration="1" Instrument="echo"
				Note Time="8" Value="F#4" Duration="1" Instrument="echo"
				Note Time="9" Value="A#3" Duration="1" Instrument="echo"
				Note Time="10" Value="F#3" Duration="1" Instrument="echo"
				Note Time="11" Value="C#3" Duration="1" Instrument="echo"
				Note Time="12" Value="F#4" Duration="1" Instrument="echo"
				Note Time="13" Value="A#3" Duration="1" Instrument="echo"
				Note Time="14" Value="F#3" Duration="1" Instrument="echo"
				Note Time="15" Value="C#3" Duration="1" Instrument="echo"
			Pattern Name="Pattern 48" Color="3cb5a7"
				Note Time="0" Value="F#4" Duration="1" Instrument="echo"
				Note Time="1" Value="D#4" Duration="1" Instrument="echo"
				Note Time="2" Value="B3" Duration="1" Instrument="echo"
				Note Time="3" Value="A#3" Duration="1" Instrument="echo"
				Note Time="4" Value="F#4" Duration="1" Instrument="echo"
				Note Time="5" Value="D#4" Duration="1" Instrument="echo"
				Note Time="6" Value="B3" Duration="1" Instrument="echo"
				Note Time="7" Value="A#3" Duration="1" Instrument="echo"
				Note Time="8" Value="B4" Duration="1" Instrument="echo"
			PatternInstance Time="0" Pattern="01"
			PatternInstance Time="1" Pattern="Pattern 1"
			PatternInstance Time="2" Pattern="Pattern 2"
			PatternInstance Time="3" Pattern="2"
			PatternInstance Time="4" Pattern="Pattern 8"
			PatternInstance Time="5" Pattern="Pattern 9"
			PatternInstance Time="6" Pattern="Pattern 10"
			PatternInstance Time="7" Pattern="Pattern 11"
			PatternInstance Time="8" Pattern="Pattern 12"
			PatternInstance Time="9" Pattern="Pattern 13"
			PatternInstance Time="10" Pattern="Pattern 14"
			PatternInstance Time="11" Pattern="Pattern 8"
			PatternInstance Time="12" Pattern="Pattern 15"
			PatternInstance Time="13" Pattern="Pattern 16"
			PatternInstance Time="14" Pattern="Pattern 3"
			PatternInstance Time="15" Pattern="Pattern 17"
			PatternInstance Time="16" Pattern="Pattern 18"
			PatternInstance Time="17" Pattern="Pattern 19"
			PatternInstance Time="18" Pattern="Pattern 20"
			PatternInstance Time="19" Pattern="Pattern 4"
			PatternInstance Time="20" Pattern="Pattern 21"
			PatternInstance Time="21" Pattern="Pattern 24"
			PatternInstance Time="22" Pattern="Pattern 23"
			PatternInstance Time="23" Pattern="Pattern 22"
			PatternInstance Time="24" Pattern="Pattern 5"
			PatternInstance Time="25" Pattern="Pattern 25"
			PatternInstance Time="26" Pattern="Pattern 28"
			PatternInstance Time="27" Pattern="Pattern 29"
			PatternInstance Time="28" Pattern="Pattern 6"
			PatternInstance Time="29" Pattern="Pattern 26"
			PatternInstance Time="30" Pattern="Pattern 32"
			PatternInstance Time="31" Pattern="Pattern 33"
			PatternInstance Time="32" Pattern="Pattern 34"
			PatternInstance Time="33" Pattern="Pattern 35"
			PatternInstance Time="34" Pattern="Pattern 34"
			PatternInstance Time="35" Pattern="Pattern 36"
			PatternInstance Time="36" Pattern="Pattern 27"
			PatternInstance Time="37" Pattern="Pattern 37"
			PatternInstance Time="38" Pattern="Pattern 38"
			PatternInstance Time="41" Pattern="Pattern 41"
			PatternInstance Time="42" Pattern="Pattern 39"
			PatternInstance Time="43" Pattern="Pattern 40"
			PatternInstance Time="44" Pattern="Pattern 7"
			PatternInstance Time="45" Pattern="Pattern 30"
			PatternInstance Time="46" Pattern="Pattern 7"
			PatternInstance Time="47" Pattern="Pattern 42"
			PatternInstance Time="48" Pattern="Pattern 7"
			PatternInstance Time="49" Pattern="Pattern 30"
			PatternInstance Time="50" Pattern="Pattern 31"
			PatternInstance Time="51" Pattern="Pattern 43"
			PatternInstance Time="52" Pattern="Pattern 43"
			PatternInstance Time="53" Pattern="Pattern 44"
			PatternInstance Time="56" Pattern="Pattern 45"
			PatternInstance Time="57" Pattern="Pattern 45"
			PatternInstance Time="58" Pattern="Pattern 45"
			PatternInstance Time="59" Pattern="Pattern 45"
			PatternInstance Time="60" Pattern="Pattern 46"
			PatternInstance Time="61" Pattern="Pattern 45"
			PatternInstance Time="62" Pattern="Pattern 45"
			PatternInstance Time="63" Pattern="Pattern 47"
			PatternInstance Time="64" Pattern="Pattern 48"
		Channel Type="Triangle"
			Pattern Name="Pattern 1" Color="ffac7f"
				Note Time="0" Value="G#2" Duration="16" Instrument="blank"
				Note Time="16" Value="C#3" Duration="16" Instrument="blank"
			Pattern Name="Pattern 2" Color="ffff75"
				Note Time="0" Value="F#3" Duration="12" Instrument="blank"
				Note Time="12" Value="F3" Duration="12" Instrument="blank"
				Note Time="16" Value="D#3" Duration="16" Instrument="blank"
			Pattern Name="Pattern 3" Color="997c73"
				Note Time="0" Value="F#3" Duration="28" Instrument="blank"
				Note Time="28" Value="F#3" Duration="4" Instrument="blank" SlideTarget="B7"
			Pattern Name="Pattern 4" Color="ba93fe"
				Note Time="0" Value="B2" Duration="2" Instrument="blank"
				Note Time="4" Value="G#2" Duration="2" Instrument="blank"
				Note Time="8" Value="B2" Duration="2" Instrument="blank"
				Note Time="12" Value="G#2" Duration="2" Instrument="blank"
				Note Time="16" Value="C#3" Duration="2" Instrument="blank"
				Note Time="20" Value="F3" Duration="2" Instrument="blank"
				Note Time="24" Value="C#3" Duration="2" Instrument="blank"
				Note Time="28" Value="F3" Duration="2" Instrument="blank"
			Pattern Name="Pattern 5" Color="6c7bdb"
				Note Time="0" Value="A#2" Duration="2" Instrument="blank"
				Note Time="4" Value="C#3" Duration="2" Instrument="blank"
				Note Time="8" Value="A#2" Duration="2" Instrument="blank"
				Note Time="12" Value="C#3" Duration="2" Instrument="blank"
				Note Time="16" Value="D#3" Duration="2" Instrument="blank"
				Note Time="20" Value="A#2" Duration="2" Instrument="blank"
				Note Time="24" Value="D#3" Duration="2" Instrument="blank"
				Note Time="28" Value="A#2" Duration="2" Instrument="blank"
			Pattern Name="Pattern 6" Color="ff579c"
				Note Time="0" Value="B2" Duration="2" Instrument="blank"
				Note Time="2" Value="G#2" Duration="2" Instrument="blank"
				Note Time="4" Value="B2" Duration="2" Instrument="blank"
				Note Time="6" Value="G#2" Duration="2" Instrument="blank"
				Note Time="8" Value="B2" Duration="2" Instrument="blank"
				Note Time="10" Value="G#2" Duration="2" Instrument="blank"
				Note Time="12" Value="B2" Duration="4" Instrument="blank"
				Note Time="16" Value="C#3" Duration="2" Instrument="blank"
				Note Time="18" Value="G#2" Duration="2" Instrument="blank"
				Note Time="20" Value="C#3" Duration="2" Instrument="blank"
				Note Time="22" Value="G#2" Duration="2" Instrument="blank"
				Note Time="24" Value="C#3" Duration="2" Instrument="blank"
				Note Time="26" Value="G#2" Duration="2" Instrument="blank"
				Note Time="28" Value="B2" Duration="2" Instrument="blank"
				Note Time="30" Value="G#2" Duration="2" Instrument="blank"
			Pattern Name="Pattern 7" Color="b5c2ff"
				Note Time="0" Value="A#2" Duration="2" Instrument="blank"
				Note Time="2" Value="F2" Duration="2" Instrument="blank"
				Note Time="4" Value="A#2" Duration="2" Instrument="blank"
				Note Time="6" Value="F2" Duration="2" Instrument="blank"
				Note Time="8" Value="A#2" Duration="2" Instrument="blank"
				Note Time="10" Value="F2" Duration="2" Instrument="blank"
				Note Time="12" Value="A#2" Duration="1" Instrument="blank"
				Note Time="13" Value="F2" Duration="1" Instrument="blank"
				Note Time="14" Value="G#2" Duration="1" Instrument="blank"
				Note Time="15" Value="F2" Duration="1" Instrument="blank"
				Note Time="16" Value="D#3" Duration="2" Instrument="blank"
				Note Time="18" Value="A#2" Duration="2" Instrument="blank"
				Note Time="20" Value="D#3" Duration="2" Instrument="blank"
				Note Time="22" Value="A#2" Duration="2" Instrument="blank"
				Note Time="24" Value="D#3" Duration="2" Instrument="blank"
				Note Time="26" Value="D#3" Duration="2" Instrument="blank"
				Note Time="28" Value="D#3" Duration="2" Instrument="blank"
			Pattern Name="Pattern 8" Color="ddc4bb"
				Note Time="0" Value="B2" Duration="4" Instrument="blank"
				Note Time="4" Value="G#2" Duration="4" Instrument="blank"
				Note Time="8" Value="B2" Duration="4" Instrument="blank"
				Note Time="12" Value="G#2" Duration="4" Instrument="blank"
				Note Time="16" Value="B2" Duration="4" Instrument="blank"
				Note Time="20" Value="G#2" Duration="4" Instrument="blank"
				Note Time="24" Value="B2" Duration="4" Instrument="blank"
				Note Time="28" Value="G#2" Duration="4" Instrument="blank"
			Pattern Name="Pattern 9" Color="ff6b6b"
				Note Time="0" Value="B2" Duration="4" Instrument="blank"
				Note Time="4" Value="G#2" Duration="4" Instrument="blank"
				Note Time="8" Value="B2" Duration="4" Instrument="blank"
				Note Time="12" Value="G#2" Duration="4" Instrument="blank"
				Note Time="16" Value="F3" Duration="4" Instrument="blank"
				Note Time="20" Value="C#3" Duration="4" Instrument="blank"
				Note Time="24" Value="F3" Duration="4" Instrument="blank"
				Note Time="28" Value="G#3" Duration="4" Instrument="blank"
			Pattern Name="Pattern 10" Color="ff7cb6"
				Note Time="0" Value="F3" Duration="4" Instrument="blank"
				Note Time="4" Value="C#3" Duration="4" Instrument="blank"
				Note Time="8" Value="F3" Duration="4" Instrument="blank"
				Note Time="12" Value="C#3" Duration="4" Instrument="blank"
				Note Time="16" Value="F#3" Duration="4" Instrument="blank"
				Note Time="20" Value="D#3" Duration="4" Instrument="blank"
				Note Time="24" Value="F#3" Duration="2" Instrument="blank"
				Note Time="26" Value="D#3" Duration="2" Instrument="blank"
				Note Time="28" Value="F#3" Duration="2" Instrument="blank"
				Note Time="30" Value="D#3" Duration="2" Instrument="blank"
			Pattern Name="Pattern 11" Color="6c7bdb"
				Note Time="0" Value="B2" Duration="4" Instrument="blank"
				Note Time="4" Value="G#2" Duration="4" Instrument="blank"
				Note Time="8" Value="B2" Duration="4" Instrument="blank"
				Note Time="12" Value="G#2" Duration="4" Instrument="blank"
				Note Time="16" Value="C#3" Duration="4" Instrument="blank"
				Note Time="20" Value="G#2" Duration="4" Instrument="blank"
				Note Time="24" Value="C#3" Duration="4" Instrument="blank"
				Note Time="28" Value="G#2" Duration="4" Instrument="blank"
			Pattern Name="Pattern 12" Color="7ee1ff"
				Note Time="0" Value="F3" Duration="4" Instrument="blank"
				Note Time="4" Value="C#3" Duration="4" Instrument="blank"
				Note Time="8" Value="F3" Duration="4" Instrument="blank"
				Note Time="12" Value="C#3" Duration="4" Instrument="blank"
				Note Time="16" Value="D#3" Duration="4" Instrument="blank"
				Note Time="20" Value="A#2" Duration="4" Instrument="blank"
				Note Time="24" Value="D#3" Duration="4" Instrument="blank"
				Note Time="28" Value="A#2" Duration="4" Instrument="blank"
			Pattern Name="Pattern 13" Color="6471cf"
				Note Time="0" Value="C#3" Duration="8" Instrument="DMC: drums + bass"
				Note Time="8" Value="F#3" Duration="8" Instrument="DMC: drums + bass"
			Pattern Name="Pattern 14" Color="9a71ed"
				Note Time="0" Value="B2" Duration="4" Instrument="blank"
				Note Time="4" Value="G#2" Duration="4" Instrument="blank"
				Note Time="8" Value="B2" Duration="2" Instrument="blank"
				Note Time="10" Value="G#3" Duration="4" Instrument="blank"
				Note Time="14" Value="F#3" Duration="4" Instrument="blank"
				Note Time="20" Value="C#3" Duration="4" Instrument="blank"
				Note Time="24" Value="F#3" Duration="4" Instrument="blank"
				Note Time="28" Value="G#2" Duration="4" Instrument="blank"
			Pattern Name="Pattern 18" Color="fffc69"
				Note Time="0" Value="B2" Duration="4" Instrument="blank"
				Note Time="4" Value="G#2" Duration="4" Instrument="blank"
				Note Time="8" Value="C#3" Duration="4" Instrument="blank"
				Note Time="12" Value="G#3" Duration="4" Instrument="blank"
				Note Time="16" Value="F#3" Duration="4" Instrument="blank"
				Note Time="20" Value="C#3" Duration="4" Instrument="blank"
				Note Time="24" Value="F#3" Duration="4" Instrument="blank"
				Note Time="28" Value="C#3" Duration="4" Instrument="blank"
			Pattern Name="Pattern 25" Color="997c73"
				Note Time="0" Value="B2" Duration="4" Instrument="blank"
				Note Time="4" Value="G#2" Duration="4" Instrument="blank"
				Note Time="8" Value="B2" Duration="2" Instrument="blank"
				Note Time="10" Value="G#3" Duration="4" Instrument="blank"
				Note Time="14" Value="F#3" Duration="4" Instrument="blank"
				Note Time="20" Value="C#3" Duration="4" Instrument="blank"
				Note Time="24" Value="F#3" Duration="4" Instrument="blank"
			Pattern Name="Pattern 26" Color="ebf067"
				Note Time="0" Value="B2" Duration="2" Instrument="blank"
				Note Time="2" Value="F#2" Duration="2" Instrument="blank"
				Note Time="4" Value="G#2" Duration="2" Instrument="blank"
				Note Time="6" Value="F#2" Duration="2" Instrument="blank"
				Note Time="8" Value="B2" Duration="2" Instrument="blank"
				Note Time="10" Value="G#2" Duration="2" Instrument="blank"
				Note Time="12" Value="C#3" Duration="2" Instrument="blank"
				Note Time="14" Value="F3" Duration="2" Instrument="blank"
				Note Time="16" Value="F#3" Duration="2" Instrument="blank"
				Note Time="18" Value="D#3" Duration="2" Instrument="blank"
				Note Time="20" Value="C#3" Duration="2" Instrument="blank"
				Note Time="22" Value="A#2" Duration="2" Instrument="blank"
				Note Time="24" Value="F#3" Duration="2" Instrument="blank"
				Note Time="26" Value="D#3" Duration="2" Instrument="blank"
				Note Time="28" Value="C#3" Duration="2" Instrument="blank"
				Note Time="30" Value="G#2" Duration="2" Instrument="blank"
			Pattern Name="Pattern 27" Color="ffffb1"
				Note Time="0" Value="F3" Duration="2" Instrument="blank"
				Note Time="2" Value="C#3" Duration="2" Instrument="blank"
				Note Time="4" Value="G#3" Duration="2" Instrument="blank"
				Note Time="6" Value="C#3" Duration="2" Instrument="blank"
				Note Time="8" Value="F3" Duration="2" Instrument="blank"
				Note Time="10" Value="C#3" Duration="2" Instrument="blank"
				Note Time="12" Value="G#3" Duration="2" Instrument="blank"
				Note Time="14" Value="C#3" Duration="2" Instrument="blank"
				Note Time="16" Value="C#4" Duration="2" Instrument="blank"
				Note Time="18" Value="G#3" Duration="2" Instrument="blank"
				Note Time="20" Value="B3" Duration="2" Instrument="blank"
				Note Time="22" Value="F#3" Duration="2" Instrument="blank"
				Note Time="24" Value="A#3" Duration="2" Instrument="blank"
				Note Time="26" Value="D#3" Duration="2" Instrument="blank"
				Note Time="28" Value="F#3" Duration="2" Instrument="blank"
				Note Time="30" Value="D#3" Duration="2" Instrument="blank"
			Pattern Name="Pattern 30" Color="ffc6a1"
				Note Time="0" Value="B3" Duration="4" Instrument="blank"
				Note Time="4" Value="F#3" Duration="4" Instrument="blank"
				Note Time="8" Value="B3" Duration="4" Instrument="blank"
				Note Time="12" Value="F#3" Duration="4" Instrument="blank"
				Note Time="16" Value="B3" Duration="2" Instrument="blank"
				Note Time="18" Value="F#3" Duration="2" Instrument="blank"
				Note Time="20" Value="B3" Duration="2" Instrument="blank"
				Note Time="22" Value="F#3" Duration="2" Instrument="blank"
				Note Time="24" Value="G#3" Duration="1" Instrument="blank"
				Note Time="25" Value="D#3" Duration="1" Instrument="blank"
				Note Time="26" Value="G#3" Duration="1" Instrument="blank"
				Note Time="27" Value="D#3" Duration="1" Instrument="blank"
				Note Time="28" Value="G#3" Duration="1" Instrument="blank"
				Note Time="29" Value="D#3" Duration="1" Instrument="blank"
				Note Time="30" Value="G#3" Duration="1" Instrument="blank"
				Note Time="31" Value="D#3" Duration="1" Instrument="blank"
			Pattern Name="Pattern 15" Color="d863ec"
				Note Time="0" Value="D#3" Duration="3" Instrument="DMC: drums + bass"
				Note Time="4" Value="D#3" Duration="3" Instrument="DMC: drums + bass"
				Note Time="8" Value="D#3" Duration="3" Instrument="DMC: drums + bass"
				Note Time="12" Value="D#3" Duration="3" Instrument="DMC: drums + bass"
				Note Time="16" Value="D#2" Duration="3" Instrument="DMC: drums + bass"
				Note Time="20" Value="A#2" Duration="2" Instrument="DMC: drums + bass"
				Note Time="22" Value="C#3" Duration="10" Instrument="DMC: drums + bass"
			Pattern Name="Pattern 17" Color="ffff77"
				Note Time="0" Value="D#3" Duration="3" Instrument="DMC: drums + bass"
				Note Time="4" Value="D#3" Duration="3" Instrument="DMC: drums + bass"
				Note Time="8" Value="D#3" Duration="3" Instrument="DMC: drums + bass"
				Note Time="12" Value="D#3" Duration="3" Instrument="DMC: drums + bass"
				Note Time="16" Value="D#2" Duration="3" Instrument="DMC: drums + bass"
				Note Time="20" Value="A#2" Duration="2" Instrument="DMC: drums + bass"
				Note Time="22" Value="C#3" Duration="50" Instrument="DMC: drums + bass"
			Pattern Name="Pattern 34" Color="ffc6a1"
				Note Time="0" Value="D#3" Duration="2" Instrument="blank"
				Note Time="2" Value="D#4" Duration="2" Instrument="blank"
				Note Time="4" Value="D#3" Duration="2" Instrument="blank"
				Note Time="6" Value="D#4" Duration="2" Instrument="blank"
				Note Time="8" Value="A#3" Duration="2" Instrument="blank"
				Note Time="10" Value="A#2" Duration="6" Instrument="blank"
				Note Time="16" Value="A#3" Duration="4" Instrument="blank"
				Note Time="20" Value="F#3" Duration="2" Instrument="blank"
				Note Time="22" Value="A#3" Duration="2" Instrument="blank"
				Note Time="24" Value="C#4" Duration="4" Instrument="blank"
				Note Time="28" Value="C#4" Duration="2" Instrument="blank" SlideTarget="C1"
			Pattern Name="Pattern 16" Color="5dd2ff"
				Note Time="0" Value="D#3" Duration="3" Instrument="blank"
				Note Time="4" Value="D#3" Duration="3" Instrument="blank"
				Note Time="8" Value="D#3" Duration="3" Instrument="blank"
				Note Time="12" Value="D#3" Duration="3" Instrument="blank"
				Note Time="16" Value="D#3" Duration="3" Instrument="blank"
				Note Time="20" Value="G#3" Duration="2" Instrument="blank"
				Note Time="22" Value="F#3" Duration="3" Instrument="blank"
				Note Time="26" Value="F#3" Duration="2" Instrument="blank"
				Note Time="28" Value="A#3" Duration="2" Instrument="blank"
				Note Time="30" Value="F#3" Duration="2" Instrument="blank"
			Pattern Name="Pattern 28" Color="ff8f8c"
				Note Time="0" Value="D#3" Duration="3" Instrument="blank"
				Note Time="4" Value="D#3" Duration="3" Instrument="blank"
				Note Time="8" Value="D#3" Duration="3" Instrument="blank"
				Note Time="12" Value="D#3" Duration="3" Instrument="blank"
				Note Time="16" Value="D#3" Duration="3" Instrument="blank"
				Note Time="20" Value="G#3" Duration="2" Instrument="blank"
				Note Time="22" Value="F#3" Duration="3" Instrument="blank"
				Note Time="26" Value="F#3" Duration="2" Instrument="blank"
				Note Time="28" Value="A#3" Duration="1" Instrument="blank"
				Note Time="29" Value="G#3" Duration="1" Instrument="blank"
				Note Time="30" Value="F#3" Duration="1" Instrument="blank"
			Pattern Name="Pattern 29" Color="3cd3e3"
				Note Time="0" Value="D#3" Duration="3" Instrument="blank"
				Note Time="4" Value="A#3" Duration="3" Instrument="blank"
				Note Time="8" Value="D#3" Duration="3" Instrument="blank"
				Note Time="12" Value="A#3" Duration="3" Instrument="blank"
				Note Time="16" Value="C#3" Duration="3" Instrument="blank"
				Note Time="20" Value="G#3" Duration="2" Instrument="blank"
				Note Time="22" Value="C#3" Duration="3" Instrument="blank"
				Note Time="26" Value="C#3" Duration="2" Instrument="blank"
				Note Time="28" Value="G#3" Duration="2" Instrument="blank"
				Note Time="30" Value="C#3" Duration="2" Instrument="blank"
			Pattern Name="Pattern 31" Color="62e2d6"
				Note Time="0" Value="D#3" Duration="3" Instrument="blank"
				Note Time="4" Value="A#3" Duration="2" Instrument="blank"
				Note Time="6" Value="D#3" Duration="2" Instrument="blank"
				Note Time="8" Value="D#3" Duration="3" Instrument="blank"
				Note Time="12" Value="D#3" Duration="3" Instrument="blank"
				Note Time="16" Value="A#2" Duration="3" Instrument="blank"
				Note Time="20" Value="A#2" Duration="3" Instrument="blank"
				Note Time="24" Value="A#2" Duration="3" Instrument="blank"
				Note Time="28" Value="G#3" Duration="2" Instrument="blank"
				Note Time="30" Value="F#3" Duration="2" Instrument="blank"
			Pattern Name="Pattern 32" Color="d8ffa1"
				Note Time="0" Value="D#3" Duration="3" Instrument="blank"
				Note Time="4" Value="A#3" Duration="2" Instrument="blank"
				Note Time="6" Value="D#3" Duration="2" Instrument="blank"
				Note Time="8" Value="D#3" Duration="3" Instrument="blank"
				Note Time="12" Value="D#3" Duration="3" Instrument="blank"
				Note Time="16" Value="A#2" Duration="3" Instrument="blank"
				Note Time="20" Value="A#2" Duration="3" Instrument="blank"
				Note Time="24" Value="A#2" Duration="1" Instrument="blank"
				Note Time="26" Value="A#2" Duration="2" Instrument="blank"
				Note Time="28" Value="F#2" Duration="3" Instrument="blank"
			Pattern Name="Pattern 37" Color="c7ff86"
				Note Time="0" Value="B2" Duration="2" Instrument="blank"
				Note Time="2" Value="F#2" Duration="3" Instrument="blank"
				Note Time="6" Value="C#3" Duration="2" Instrument="blank"
				Note Time="8" Value="G#2" Duration="3" Instrument="blank"
				Note Time="12" Value="D#3" Duration="4" Instrument="blank"
				Note Time="16" Value="D#3" Duration="4" Instrument="blank"
				Note Time="20" Value="A#2" Duration="4" Instrument="blank"
				Note Time="24" Value="D#3" Duration="3" Instrument="blank"
				Note Time="26" Value="A#2" Duration="2" Instrument="blank"
				Note Time="28" Value="F#2" Duration="3" Instrument="blank"
			Pattern Name="Pattern 19" Color="3eb3f9"
				Note Time="0" Value="B3" Duration="2" Instrument="blank"
				Note Time="2" Value="F#3" Duration="2" Instrument="blank"
				Note Time="4" Value="B3" Duration="2" Instrument="blank"
				Note Time="6" Value="D#3" Duration="1" Instrument="blank"
				Note Time="7" Value="F#3" Duration="1" Instrument="blank"
				Note Time="8" Value="B3" Duration="2" Instrument="blank"
				Note Time="10" Value="F#3" Duration="2" Instrument="blank"
				Note Time="12" Value="C#4" Duration="2" Instrument="blank"
				Note Time="14" Value="G#3" Duration="2" Instrument="blank"
				Note Time="16" Value="D#4" Duration="2" Instrument="blank"
				Note Time="18" Value="A#3" Duration="2" Instrument="blank"
				Note Time="20" Value="D#4" Duration="2" Instrument="blank"
				Note Time="22" Value="A#3" Duration="2" Instrument="blank"
				Note Time="24" Value="D#4" Duration="2" Instrument="blank"
				Note Time="26" Value="A#3" Duration="2" Instrument="blank"
				Note Time="28" Value="D#4" Duration="2" Instrument="blank"
				Note Time="30" Value="A#3" Duration="1" Instrument="blank"
				Note Time="31" Value="F#3" Duration="1" Instrument="blank"
			Pattern Name="Pattern 20" Color="ffff94"
				Note Time="0" Value="B2" Duration="8" Instrument="blank"
				Note Time="8" Value="A#2" Duration="8" Instrument="blank"
				Note Time="16" Value="D#3" Duration="16" Instrument="blank"
			Pattern Name="Pattern 21" Color="ff6b6b"
				Note Time="0" Value="B2" Duration="5" Instrument="blank"
				Note Time="8" Value="B2" Duration="5" Instrument="blank"
				Note Time="16" Value="B2" Duration="5" Instrument="blank"
				Note Time="24" Value="B2" Duration="4" Instrument="blank"
			Pattern Name="Pattern 22" Color="ffff93"
				Note Time="0" Value="B3" Duration="2" Instrument="blank"
				Note Time="2" Value="B3" Duration="2" Instrument="blank"
				Note Time="4" Value="F#3" Duration="4" Instrument="blank"
				Note Time="8" Value="B3" Duration="2" Instrument="blank"
				Note Time="10" Value="B3" Duration="2" Instrument="blank"
				Note Time="12" Value="F#3" Duration="4" Instrument="blank"
				Note Time="16" Value="B3" Duration="3" Instrument="blank"
				Note Time="20" Value="B3" Duration="3" Instrument="blank"
				Note Time="24" Value="B3" Duration="2" Instrument="blank"
				Note Time="26" Value="B3" Duration="2" Instrument="blank"
				Note Time="28" Value="F#3" Duration="4" Instrument="blank"
			Pattern Name="Pattern 41" Color="fffc69"
				Note Time="0" Value="B3" Duration="2" Instrument="blank"
				Note Time="2" Value="B3" Duration="2" Instrument="blank"
				Note Time="4" Value="F#3" Duration="4" Instrument="blank"
				Note Time="8" Value="B3" Duration="2" Instrument="blank"
				Note Time="10" Value="B3" Duration="2" Instrument="blank"
				Note Time="12" Value="F#3" Duration="4" Instrument="blank"
				Note Time="16" Value="B3" Duration="3" Instrument="blank"
				Note Time="20" Value="B3" Duration="3" Instrument="blank"
				Note Time="24" Value="B3" Duration="2" Instrument="blank"
				Note Time="26" Value="B3" Duration="2" Instrument="blank"
				Note Time="28" Value="B3" Duration="1" Instrument="blank"
				Note Time="29" Value="B3" Duration="1" Instrument="blank"
				Note Time="30" Value="B3" Duration="1" Instrument="blank"
				Note Time="31" Value="B3" Duration="1" Instrument="blank"
			Pattern Name="Pattern 23" Color="3ca598"
				Note Time="0" Value="B2" Duration="3" Instrument="blank"
				Note Time="3" Value="B3" Duration="1" Instrument="blank"
				Note Time="6" Value="F#2" Duration="2" Instrument="blank"
				Note Time="8" Value="F#3" Duration="2" Instrument="blank"
				Note Time="12" Value="D#3" Duration="1" Instrument="blank"
				Note Time="13" Value="B2" Duration="2" Instrument="blank"
				Note Time="16" Value="E2" Duration="3" Instrument="blank"
				Note Time="19" Value="E3" Duration="1" Instrument="blank"
				Note Time="22" Value="D#2" Duration="2" Instrument="blank"
				Note Time="24" Value="D#3" Duration="2" Instrument="blank"
				Note Time="28" Value="F#2" Duration="2" Instrument="blank"
			Pattern Name="Pattern 45" Color="ffe461"
				Note Time="0" Value="B2" Duration="3" Instrument="blank"
				Note Time="3" Value="B3" Duration="1" Instrument="blank"
				Note Time="6" Value="F#2" Duration="2" Instrument="blank"
				Note Time="8" Value="F#3" Duration="2" Instrument="blank"
				Note Time="12" Value="D#3" Duration="1" Instrument="blank"
				Note Time="13" Value="B2" Duration="2" Instrument="blank"
				Note Time="16" Value="E2" Duration="3" Instrument="blank"
				Note Time="19" Value="E3" Duration="1" Instrument="blank"
				Note Time="22" Value="B1" Duration="2" Instrument="blank"
				Note Time="24" Value="B2" Duration="2" Instrument="blank"
				Note Time="26" Value="B0" Duration="6" Instrument="blank" SlideTarget="B2"
			Pattern Name="Pattern 24" Color="74ca78"
				Note Time="0" Value="B2" Duration="8" Instrument="blank"
				Note Time="8" Value="A#2" Duration="8" Instrument="blank"
				Note Time="16" Value="G#2" Duration="8" Instrument="blank"
				Note Time="24" Value="F#2" Duration="8" Instrument="blank"
			Pattern Name="Pattern 47" Color="ffe362"
				Note Time="0" Value="G#2" Duration="8" Instrument="blank"
				Note Time="8" Value="F#2" Duration="8" Instrument="blank"
				Note Time="16" Value="E2" Duration="8" Instrument="blank"
				Note Time="24" Value="D#2" Duration="8" Instrument="blank"
			Pattern Name="Pattern 43" Color="c9aa9f"
				Note Time="0" Value="E2" Duration="8" Instrument="blank"
				Note Time="8" Value="C#3" Duration="8" Instrument="blank"
			Pattern Name="Pattern 44" Color="a2f7a6"
				Note Time="0" Value="B2" Duration="40" Instrument="blank"
				Note Time="2" Volume="12"
				Note Time="10" Volume="9"
				Note Time="21" Volume="6"
				Note Time="30" Volume="3"
			Pattern Name="Pattern 33" Color="3ca598"
				Note Time="6" Volume="0"
			PatternInstance Time="0" Pattern="Pattern 1"
			PatternInstance Time="1" Pattern="Pattern 2"
			PatternInstance Time="2" Pattern="Pattern 1"
			PatternInstance Time="3" Pattern="Pattern 3"
			PatternInstance Time="4" Pattern="Pattern 4"
			PatternInstance Time="5" Pattern="Pattern 5"
			PatternInstance Time="6" Pattern="Pattern 6"
			PatternInstance Time="7" Pattern="Pattern 7"
			PatternInstance Time="8" Pattern="Pattern 8"
			PatternInstance Time="9" Pattern="Pattern 9"
			PatternInstance Time="10" Pattern="Pattern 10"
			PatternInstance Time="11" Pattern="Pattern 11"
			PatternInstance Time="12" Pattern="Pattern 12"
			PatternInstance Time="13" Pattern="Pattern 13"
			PatternInstance Time="14" Pattern="Pattern 14"
			PatternInstance Time="15" Pattern="Pattern 18"
			PatternInstance Time="16" Pattern="Pattern 25"
			PatternInstance Time="17" Pattern="Pattern 18"
			PatternInstance Time="18" Pattern="Pattern 26"
			PatternInstance Time="19" Pattern="Pattern 26"
			PatternInstance Time="20" Pattern="Pattern 26"
			PatternInstance Time="21" Pattern="Pattern 27"
			PatternInstance Time="22" Pattern="Pattern 30"
			PatternInstance Time="24" Pattern="Pattern 15"
			PatternInstance Time="25" Pattern="Pattern 15"
			PatternInstance Time="26" Pattern="Pattern 15"
			PatternInstance Time="27" Pattern="Pattern 17"
			PatternInstance Time="28" Pattern="Pattern 34"
			PatternInstance Time="29" Pattern="Pattern 16"
			PatternInstance Time="30" Pattern="Pattern 16"
			PatternInstance Time="31" Pattern="Pattern 28"
			PatternInstance Time="32" Pattern="Pattern 29"
			PatternInstance Time="33" Pattern="Pattern 31"
			PatternInstance Time="34" Pattern="Pattern 29"
			PatternInstance Time="35" Pattern="Pattern 32"
			PatternInstance Time="36" Pattern="Pattern 37"
			PatternInstance Time="37" Pattern="Pattern 37"
			PatternInstance Time="38" Pattern="Pattern 37"
			PatternInstance Time="39" Pattern="Pattern 37"
			PatternInstance Time="40" Pattern="Pattern 37"
			PatternInstance Time="41" Pattern="Pattern 37"
			PatternInstance Time="42" Pattern="Pattern 37"
			PatternInstance Time="43" Pattern="Pattern 37"
			PatternInstance Time="44" Pattern="Pattern 19"
			PatternInstance Time="45" Pattern="Pattern 19"
			PatternInstance Time="46" Pattern="Pattern 19"
			PatternInstance Time="47" Pattern="Pattern 19"
			PatternInstance Time="48" Pattern="Pattern 20"
			PatternInstance Time="49" Pattern="Pattern 20"
			PatternInstance Time="50" Pattern="Pattern 21"
			PatternInstance Time="51" Pattern="Pattern 21"
			PatternInstance Time="52" Pattern="Pattern 22"
			PatternInstance Time="53" Pattern="Pattern 41"
			PatternInstance Time="54" Pattern="Pattern 23"
			PatternInstance Time="55" Pattern="Pattern 45"
			PatternInstance Time="56" Pattern="Pattern 24"
			PatternInstance Time="57" Pattern="Pattern 24"
			PatternInstance Time="58" Pattern="Pattern 24"
			PatternInstance Time="59" Pattern="Pattern 24"
			PatternInstance Time="60" Pattern="Pattern 47"
			PatternInstance Time="61" Pattern="Pattern 24"
			PatternInstance Time="62" Pattern="Pattern 24"
			PatternInstance Time="63" Pattern="Pattern 43"
			PatternInstance Time="64" Pattern="Pattern 44"
			PatternInstance Time="65" Pattern="Pattern 33"
		Channel Type="Noise"
			Pattern Name="Pattern 14" Color="ddc4bb"
				Note Time="4" Value="C4" Duration="4" Instrument="snare"
				Note Time="8" Value="C4" Duration="4" Instrument="snare"
				Note Time="12" Value="A4" Duration="8" Instrument="cymbal"
				Note Time="16" Value="C4" Duration="4" Instrument="snare"
				Note Time="20" Value="C4" Duration="4" Instrument="snare"
				Note Time="24" Value="C4" Duration="4" Instrument="snare"
				Note Time="28" Value="A4" Duration="4" Instrument="cymbal"
			Pattern Name="Pattern 13" Color="3ca598"
				Note Time="0" Value="C4" Duration="4" Instrument="snare"
				Note Time="4" Value="C4" Duration="4" Instrument="snare"
				Note Time="8" Value="C4" Duration="4" Instrument="snare"
				Note Time="12" Value="A4" Duration="8" Instrument="cymbal"
				Note Time="16" Value="C4" Duration="4" Instrument="snare"
				Note Time="20" Value="C4" Duration="4" Instrument="snare"
				Note Time="24" Value="C4" Duration="4" Instrument="snare"
				Note Time="28" Value="A4" Duration="4" Instrument="cymbal"
			Pattern Name="Pattern 15" Color="ff8d5a"
				Note Time="0" Value="C4" Duration="4" Instrument="snare"
				Note Time="14" Value="C4" Duration="4" Instrument="snare"
				Note Time="28" Value="G4" Duration="4" Instrument="cymbal"
			Pattern Name="Pattern 16" Color="ff7cb6"
				Note Time="0" Value="C4" Duration="4" Instrument="snare"
				Note Time="4" Value="A4" Duration="8" Instrument="cymbal"
				Note Time="8" Value="C4" Duration="4" Instrument="snare"
				Note Time="12" Value="G4" Duration="4" Instrument="cymbal"
				Note Time="16" Value="C4" Duration="4" Instrument="snare"
				Note Time="20" Value="A4" Duration="4" Instrument="cymbal"
				Note Time="24" Value="C4" Duration="4" Instrument="snare"
				Note Time="28" Value="G4" Duration="4" Instrument="cymbal"
			Pattern Name="Pattern 17" Color="5ac4ff"
				Note Time="0" Value="C4" Duration="2" Instrument="snare"
				Note Time="2" Value="C4" Duration="2" Instrument="snare"
				Note Time="4" Value="A4" Duration="8" Instrument="cymbal"
				Note Time="8" Value="C4" Duration="2" Instrument="snare"
				Note Time="10" Value="C4" Duration="2" Instrument="snare"
				Note Time="12" Value="G4" Duration="4" Instrument="cymbal"
				Note Time="16" Value="C4" Duration="2" Instrument="snare"
				Note Time="18" Value="C4" Duration="2" Instrument="snare"
				Note Time="20" Value="A4" Duration="4" Instrument="cymbal"
				Note Time="24" Value="G4" Duration="4" Instrument="cymbal"
				Note Time="28" Value="A4" Duration="2" Instrument="cymbal" SlideTarget="F4"
				Note Time="30" Value="F4" Duration="2" Instrument="cymbal" SlideTarget="A4"
			Pattern Name="Pattern 18" Color="8bffff"
				Note Time="0" Value="C4" Duration="2" Instrument="snare"
				Note Time="2" Value="C4" Duration="2" Instrument="snare"
				Note Time="4" Value="A4" Duration="8" Instrument="cymbal"
				Note Time="8" Value="C4" Duration="2" Instrument="snare"
				Note Time="10" Value="C4" Duration="2" Instrument="snare"
				Note Time="12" Value="A4" Duration="1" Instrument="cymbal"
				Note Time="13" Value="A4" Duration="1" Instrument="cymbal"
				Note Time="14" Value="A4" Duration="1" Instrument="cymbal"
				Note Time="15" Value="A4" Duration="1" Instrument="cymbal"
				Note Time="16" Value="C4" Duration="2" Instrument="snare"
				Note Time="18" Value="C4" Duration="2" Instrument="snare"
				Note Time="20" Value="A4" Duration="4" Instrument="cymbal"
				Note Time="22" Value="C4" Duration="2" Instrument="snare"
				Note Time="26" Value="A4" Duration="1" Instrument="cymbal"
				Note Time="28" Value="A4" Duration="1" Instrument="cymbal"
				Note Time="29" Value="A4" Duration="1" Instrument="cymbal"
				Note Time="31" Value="A4" Duration="1" Instrument="cymbal"
			Pattern Name="Pattern 19" Color="3ce8fd"
				Note Time="0" Value="C4" Duration="2" Instrument="snare"
				Note Time="2" Value="C4" Duration="2" Instrument="snare"
				Note Time="4" Value="A4" Duration="8" Instrument="cymbal"
				Note Time="8" Value="C4" Duration="2" Instrument="snare"
				Note Time="10" Value="C4" Duration="2" Instrument="snare"
				Note Time="12" Value="A4" Duration="4" Instrument="cymbal"
				Note Time="16" Value="C4" Duration="2" Instrument="snare"
				Note Time="18" Value="C4" Duration="2" Instrument="snare"
				Note Time="20" Value="A4" Duration="4" Instrument="cymbal"
				Note Time="24" Value="C4" Duration="2" Instrument="snare"
				Note Time="26" Value="C4" Duration="2" Instrument="snare"
				Note Time="28" Value="A4" Duration="4" Instrument="cymbal"
			Pattern Name="Pattern 20" Color="ffffb2"
				Note Time="0" Value="C4" Duration="2" Instrument="snare"
				Note Time="2" Value="C4" Duration="2" Instrument="snare"
				Note Time="4" Value="A4" Duration="8" Instrument="cymbal"
				Note Time="8" Value="C4" Duration="2" Instrument="snare"
				Note Time="10" Value="C4" Duration="2" Instrument="snare"
				Note Time="12" Value="A4" Duration="4" Instrument="cymbal"
				Note Time="16" Value="C4" Duration="2" Instrument="snare"
				Note Time="18" Value="C4" Duration="2" Instrument="snare"
				Note Time="20" Value="A4" Duration="4" Instrument="cymbal"
				Note Time="24" Value="G4" Duration="4" Instrument="cymbal"
				Note Time="28" Value="G4" Duration="4" Instrument="cymbal"
			Pattern Name="Pattern 21" Color="3eb3f9"
				Note Time="8" Value="C4" Duration="4" Instrument="snare"
				Note Time="12" Value="C4" Duration="4" Instrument="snare"
			Pattern Name="Pattern 22" Color="8bffff"
				Note Time="0" Value="C4" Duration="4" Instrument="snare"
				Note Time="4" Value="A4" Duration="2" Instrument="cymbal"
				Note Time="8" Value="C4" Duration="4" Instrument="snare"
				Note Time="12" Value="A4" Duration="2" Instrument="cymbal"
				Note Time="16" Value="C4" Duration="4" Instrument="snare"
				Note Time="20" Value="A4" Duration="2" Instrument="cymbal"
				Note Time="24" Value="C4" Duration="4" Instrument="snare"
				Note Time="28" Value="A4" Duration="2" Instrument="cymbal"
			Pattern Name="Pattern 23" Color="3ce8fd"
				Note Time="0" Value="C4" Duration="4" Instrument="snare"
				Note Time="4" Value="A4" Duration="2" Instrument="cymbal"
				Note Time="8" Value="C4" Duration="4" Instrument="snare"
				Note Time="12" Value="A4" Duration="2" Instrument="cymbal"
				Note Time="16" Value="C4" Duration="2" Instrument="snare"
				Note Time="18" Value="C4" Duration="2" Instrument="snare"
				Note Time="20" Value="A4" Duration="2" Instrument="cymbal"
				Note Time="24" Value="C4" Duration="2" Instrument="snare"
				Note Time="26" Value="C4" Duration="2" Instrument="snare"
				Note Time="28" Value="A4" Duration="1" Instrument="cymbal"
				Note Time="29" Value="A4" Duration="1" Instrument="cymbal"
				Note Time="30" Value="A4" Duration="1" Instrument="cymbal"
				Note Time="31" Value="A4" Duration="1" Instrument="cymbal"
			Pattern Name="Pattern 24" Color="ffff64"
				Note Time="0" Value="C4" Duration="4" Instrument="snare"
				Note Time="4" Value="A4" Duration="2" Instrument="cymbal"
				Note Time="8" Value="C4" Duration="4" Instrument="snare"
				Note Time="12" Value="A4" Duration="2" Instrument="cymbal"
				Note Time="16" Value="C4" Duration="4" Instrument="snare"
				Note Time="20" Value="A4" Duration="2" Instrument="cymbal"
				Note Time="24" Value="C4" Duration="4" Instrument="snare"
				Note Time="28" Value="A4" Duration="1" Instrument="cymbal"
				Note Time="29" Value="A4" Duration="1" Instrument="cymbal"
				Note Time="30" Value="A4" Duration="1" Instrument="cymbal"
				Note Time="31" Value="A4" Duration="1" Instrument="cymbal"
			Pattern Name="Pattern 25" Color="d863ec"
				Note Time="0" Value="C4" Duration="4" Instrument="snare"
				Note Time="4" Value="A4" Duration="2" Instrument="cymbal"
				Note Time="8" Value="C4" Duration="4" Instrument="snare"
				Note Time="12" Value="A4" Duration="2" Instrument="cymbal"
				Note Time="16" Value="C4" Duration="4" Instrument="snare"
				Note Time="20" Value="A4" Duration="2" Instrument="cymbal"
				Note Time="24" Value="C4" Duration="4" Instrument="snare"
				Note Time="28" Value="A4" Duration="2" Instrument="cymbal"
				Note Time="30" Value="A4" Duration="2" Instrument="cymbal"
			Pattern Name="Pattern 26" Color="d8ffa1"
				Note Time="0" Value="C4" Duration="4" Instrument="snare"
				Note Time="4" Value="A4" Duration="2" Instrument="cymbal"
				Note Time="8" Value="C4" Duration="4" Instrument="snare"
				Note Time="12" Value="A4" Duration="2" Instrument="cymbal"
				Note Time="16" Value="C4" Duration="4" Instrument="snare"
				Note Time="20" Value="A4" Duration="2" Instrument="cymbal"
				Note Time="24" Value="C4" Duration="4" Instrument="snare"
				Note Time="28" Value="A4" Duration="2" Instrument="cymbal"
				Note Time="30" Value="A4" Duration="1" Instrument="cymbal"
				Note Time="31" Value="A4" Duration="1" Instrument="cymbal"
			Pattern Name="Pattern 27" Color="ffff94"
				Note Time="0" Value="A4" Duration="2" Instrument="cymbal"
				Note Time="4" Value="A4" Duration="2" Instrument="cymbal"
				Note Time="8" Value="C4" Duration="4" Instrument="snare"
				Note Time="12" Value="A4" Duration="2" Instrument="cymbal"
				Note Time="16" Value="C4" Duration="4" Instrument="snare"
				Note Time="20" Value="A4" Duration="2" Instrument="cymbal"
				Note Time="24" Value="C4" Duration="4" Instrument="snare"
				Note Time="28" Value="A4" Duration="2" Instrument="cymbal"
			Pattern Name="Pattern 28" Color="ffdc3c"
				Note Time="0" Value="C4" Duration="4" Instrument="snare"
				Note Time="4" Value="A4" Duration="2" Instrument="cymbal"
				Note Time="8" Value="C4" Duration="4" Instrument="snare"
				Note Time="12" Value="A4" Duration="2" Instrument="cymbal"
				Note Time="16" Value="C4" Duration="4" Instrument="snare"
				Note Time="20" Value="A4" Duration="2" Instrument="cymbal"
				Note Time="24" Value="C4" Duration="2" Instrument="snare"
				Note Time="26" Value="A4" Duration="2" Instrument="cymbal"
				Note Time="30" Value="A4" Duration="2" Instrument="cymbal"
			Pattern Name="Pattern 29" Color="b8ef7e"
				Note Time="0" Value="D4" Duration="2" Instrument="snare"
				Note Time="2" Value="D4" Duration="2" Instrument="snare"
				Note Time="4" Value="A4" Duration="4" Instrument="cymbal"
				Note Time="8" Value="D4" Duration="2" Instrument="snare"
				Note Time="10" Value="D4" Duration="2" Instrument="snare"
				Note Time="12" Value="A4" Duration="4" Instrument="cymbal"
				Note Time="16" Value="D4" Duration="2" Instrument="snare"
				Note Time="18" Value="D4" Duration="2" Instrument="snare"
				Note Time="20" Value="A4" Duration="4" Instrument="cymbal"
				Note Time="24" Value="D4" Duration="2" Instrument="snare"
				Note Time="26" Value="D4" Duration="2" Instrument="snare"
				Note Time="28" Value="A4" Duration="4" Instrument="cymbal"
			Pattern Name="Pattern 30" Color="a9887d"
				Note Time="0" Value="A4" Duration="4" Instrument="cymbal"
				Note Time="4" Value="A4" Duration="4" Instrument="cymbal"
				Note Time="8" Value="A4" Duration="4" Instrument="cymbal"
				Note Time="12" Value="A4" Duration="4" Instrument="cymbal"
				Note Time="16" Value="A4" Duration="2" Instrument="cymbal"
				Note Time="18" Value="A4" Duration="2" Instrument="cymbal"
				Note Time="20" Value="A4" Duration="2" Instrument="cymbal"
				Note Time="22" Value="A4" Duration="2" Instrument="cymbal"
				Note Time="24" Value="A4" Duration="1" Instrument="cymbal"
				Note Time="25" Value="A4" Duration="1" Instrument="cymbal"
				Note Time="26" Value="A4" Duration="1" Instrument="cymbal"
				Note Time="27" Value="A4" Duration="1" Instrument="cymbal"
				Note Time="28" Value="A4" Duration="1" Instrument="cymbal"
				Note Time="29" Value="A4" Duration="1" Instrument="cymbal"
				Note Time="30" Value="A4" Duration="1" Instrument="cymbal"
				Note Time="31" Value="A4" Duration="1" Instrument="cymbal"
			Pattern Name="Pattern 34" Color="a9887d"
				Note Time="0" Value="A4" Duration="8" Instrument="cymbal"
			Pattern Name="Pattern 1" Color="eaffbd"
				Note Time="0" Value="G2" Duration="4" Instrument="kick"
				Note Time="4" Value="A4" Duration="2" Instrument="cymbal"
				Note Time="8" Value="G2" Duration="4" Instrument="kick"
				Note Time="12" Value="A4" Duration="2" Instrument="cymbal"
				Note Time="16" Value="G2" Duration="4" Instrument="kick"
				Note Time="20" Value="A4" Duration="2" Instrument="cymbal"
				Note Time="24" Value="G2" Duration="4" Instrument="kick"
				Note Time="28" Value="A4" Duration="2" Instrument="cymbal"
			Pattern Name="Pattern 33" Color="b59184"
				Note Time="0" Value="G2" Duration="4" Instrument="kick"
				Note Time="4" Value="A4" Duration="2" Instrument="cymbal"
				Note Time="8" Value="G2" Duration="4" Instrument="kick"
				Note Time="12" Value="A4" Duration="2" Instrument="cymbal"
				Note Time="16" Value="G2" Duration="4" Instrument="kick"
				Note Time="20" Value="A4" Duration="2" Instrument="cymbal"
				Note Time="24" Value="A4" Duration="2" Instrument="cymbal"
				Note Time="26" Value="A4" Duration="2" Instrument="cymbal"
				Note Time="28" Value="A4" Duration="2" Instrument="cymbal"
			Pattern Name="Pattern 32" Color="ff8655"
				Note Time="0" Value="G2" Duration="4" Instrument="kick"
				Note Time="4" Value="A4" Duration="2" Instrument="cymbal"
				Note Time="8" Value="G2" Duration="4" Instrument="kick"
				Note Time="12" Value="A4" Duration="2" Instrument="cymbal"
				Note Time="16" Value="G2" Duration="4" Instrument="kick"
				Note Time="20" Value="A4" Duration="2" Instrument="cymbal"
				Note Time="24" Value="G2" Duration="4" Instrument="kick" Speed="1"
				Note Time="32" Value="G2" Duration="4" Instrument="kick" Speed="1"
				Note Time="40" Value="G2" Duration="4" Instrument="kick" Speed="1"
				Note Time="48" Value="G2" Duration="4" Instrument="kick" Speed="1"
				Note Time="56" Value="G2" Duration="4" Instrument="kick"
				Note Time="60" Speed="1"
				Note Time="64" Value="G2" Duration="4" Instrument="kick"
			Pattern Name="Pattern 31" Color="91c76b"
				Note Time="0" Value="A4" Duration="4" Instrument="cymbal" Speed="6"
				Note Time="4" Value="C2" Duration="4" Instrument="clap"
				Note Time="8" Value="F#3" Duration="1" Instrument="rel hats"
				Note Time="10" Value="F#3" Duration="1" Instrument="rel hats"
				Note Time="12" Value="C2" Duration="4" Instrument="clap"
				Note Time="16" Value="F#3" Duration="1" Instrument="rel hats"
				Note Time="18" Value="F#3" Duration="1" Instrument="rel hats"
				Note Time="20" Value="C2" Duration="4" Instrument="clap"
				Note Time="24" Value="F#3" Duration="1" Instrument="rel hats"
				Note Time="26" Value="F#3" Duration="1" Instrument="rel hats"
				Note Time="28" Value="C2" Duration="4" Instrument="clap"
			Pattern Name="Pattern 2" Color="ffc83c"
				Note Time="0" Value="F#3" Duration="1" Instrument="rel hats"
				Note Time="2" Value="F#3" Duration="1" Instrument="rel hats"
				Note Time="4" Value="C2" Duration="4" Instrument="clap"
				Note Time="8" Value="F#3" Duration="1" Instrument="rel hats"
				Note Time="10" Value="F#3" Duration="1" Instrument="rel hats"
				Note Time="12" Value="C2" Duration="4" Instrument="clap"
				Note Time="16" Value="F#3" Duration="1" Instrument="rel hats"
				Note Time="18" Value="F#3" Duration="1" Instrument="rel hats"
				Note Time="20" Value="C2" Duration="4" Instrument="clap"
				Note Time="24" Value="F#3" Duration="1" Instrument="rel hats"
				Note Time="26" Value="F#3" Duration="1" Instrument="rel hats"
				Note Time="28" Value="C2" Duration="4" Instrument="clap"
			Pattern Name="Pattern 5" Color="fe5497"
				Note Time="0" Value="F#3" Duration="1" Instrument="rel hats"
				Note Time="2" Value="F#3" Duration="1" Instrument="rel hats"
				Note Time="4" Value="C2" Duration="4" Instrument="clap"
				Note Time="8" Value="F#3" Duration="1" Instrument="rel hats"
				Note Time="10" Value="F#3" Duration="1" Instrument="rel hats"
				Note Time="12" Value="C2" Duration="4" Instrument="clap"
				Note Time="16" Value="F#3" Duration="1" Instrument="rel hats"
				Note Time="18" Value="F#3" Duration="1" Instrument="rel hats"
				Note Time="20" Value="C2" Duration="2" Instrument="clap"
				Note Time="22" Value="F#3" Duration="1" Instrument="rel hats"
				Note Time="26" Value="F#3" Duration="1" Instrument="rel hats"
				Note Time="28" Value="C2" Duration="1" Instrument="clap"
				Note Time="29" Value="C2" Duration="1" Instrument="clap"
				Note Time="30" Value="C2" Duration="2" Instrument="clap"
			Pattern Name="Pattern 35" Color="98a7fc"
				Note Time="0" Value="F#3" Duration="1" Instrument="rel hats"
				Note Time="2" Value="F#3" Duration="1" Instrument="rel hats"
				Note Time="4" Value="C2" Duration="4" Instrument="clap"
				Note Time="8" Value="F#3" Duration="1" Instrument="rel hats"
				Note Time="10" Value="F#3" Duration="1" Instrument="rel hats"
				Note Time="12" Value="C2" Duration="4" Instrument="clap"
				Note Time="16" Value="F#3" Duration="2" Instrument="rel hats"
				Note Time="20" Value="F#3" Duration="2" Instrument="rel hats"
				Note Time="24" Value="F#3" Duration="2" Instrument="rel hats"
				Note Time="28" Value="C2" Duration="4" Instrument="clap"
			Pattern Name="Pattern 6" Color="ffff94"
				Note Time="0" Value="F#3" Duration="1" Instrument="rel hats"
				Note Time="2" Value="F#3" Duration="1" Instrument="rel hats"
				Note Time="4" Value="C2" Duration="4" Instrument="clap"
				Note Time="8" Value="F#3" Duration="1" Instrument="rel hats"
				Note Time="10" Value="F#3" Duration="1" Instrument="rel hats"
				Note Time="12" Value="C2" Duration="4" Instrument="clap"
				Note Time="16" Value="F#3" Duration="4" Instrument="rel hats"
				Note Time="20" Value="F#3" Duration="4" Instrument="rel hats"
				Note Time="24" Value="F#3" Duration="2" Instrument="rel hats"
				Note Time="26" Value="F#3" Duration="2" Instrument="rel hats"
				Note Time="28" Value="F#3" Duration="4" Instrument="rel hats"
			Pattern Name="Pattern 36" Color="62ffff"
				Note Time="0" Value="A4" Duration="4" Instrument="cymbal" Speed="6"
				Note Time="4" Value="C2" Duration="4" Instrument="clap"
				Note Time="12" Value="G#1" Duration="4" Instrument="clap"
				Note Time="20" Value="F1" Duration="4" Instrument="clap"
				Note Time="24" Value="D#3" Duration="12" Release="4" Instrument="cymbal"
			Pattern Name="Pattern 3" Color="88eb8c"
				Note Time="0" Value="F3" Duration="16" Instrument="blank" Volume="0"
				Note Time="6" Volume="1"
				Note Time="8" Volume="2"
				Note Time="10" Volume="3"
				Note Time="12" Volume="4"
				Note Time="14" Volume="5"
				Note Time="16" Value="F#3" Duration="8" Instrument="blank" Volume="6"
				Note Time="18" Volume="7"
				Note Time="20" Volume="8"
				Note Time="22" Volume="9"
				Note Time="24" Value="G3" Duration="8" Instrument="blank" Volume="10"
				Note Time="25" Volume="11"
				Note Time="26" Volume="12"
				Note Time="27" Volume="13"
				Note Time="29" Volume="15"
			Pattern Name="Pattern 37" Color="91c76b"
				Note Time="0" Value="G4" Duration="5" Instrument="cymbal" Speed="6"
				Note Time="4" Value="A4" Duration="8" Instrument="cymbal"
				Note Time="8" Value="G4" Duration="5" Instrument="cymbal" Speed="6"
				Note Time="12" Value="A4" Duration="8" Instrument="cymbal"
				Note Time="16" Value="G4" Duration="5" Instrument="cymbal" Speed="6"
				Note Time="20" Value="A4" Duration="8" Instrument="cymbal"
				Note Time="24" Value="G4" Duration="5" Instrument="cymbal" Speed="6"
				Note Time="28" Value="A4" Duration="8" Instrument="cymbal"
			Pattern Name="Pattern 7" Color="ffff75"
				Note Time="0" Value="G4" Duration="5" Instrument="cymbal" Speed="6"
				Note Time="4" Value="A4" Duration="8" Instrument="cymbal"
				Note Time="8" Value="G4" Duration="5" Instrument="cymbal" Speed="6"
				Note Time="12" Value="A4" Duration="8" Instrument="cymbal"
				Note Time="16" Value="G4" Duration="5" Instrument="cymbal" Speed="6"
				Note Time="20" Value="A4" Duration="4" Instrument="cymbal"
				Note Time="24" Value="A4" Duration="4" Instrument="cymbal"
				Note Time="28" Value="A4" Duration="4" Instrument="cymbal"
			Pattern Name="Pattern 4" Color="8d69e4"
				Note Time="0" Value="G#3" Duration="2" Instrument="cymbal"
				Note Time="2" Value="G#3" Duration="2" Instrument="cymbal"
				Note Time="4" Value="F#3" Duration="4" Instrument="cymbal"
				Note Time="8" Value="G2" Duration="2" Instrument="kick"
				Note Time="10" Value="G2" Duration="2" Instrument="kick"
				Note Time="12" Value="F#3" Duration="4" Instrument="cymbal"
				Note Time="16" Value="G#3" Duration="2" Instrument="cymbal"
				Note Time="18" Value="G#3" Duration="2" Instrument="cymbal"
				Note Time="20" Value="F#3" Duration="4" Instrument="cymbal"
				Note Time="24" Value="G2" Duration="2" Instrument="kick"
				Note Time="26" Value="G2" Duration="2" Instrument="kick"
				Note Time="28" Value="F#3" Duration="4" Instrument="cymbal"
			Pattern Name="Pattern 38" Color="d863ec"
				Note Time="0" Value="G#3" Duration="2" Instrument="cymbal"
				Note Time="2" Value="G#3" Duration="2" Instrument="cymbal"
				Note Time="4" Value="F#3" Duration="4" Instrument="cymbal"
				Note Time="8" Value="G2" Duration="2" Instrument="kick"
				Note Time="10" Value="G2" Duration="2" Instrument="kick"
				Note Time="12" Value="F#3" Duration="4" Instrument="cymbal"
				Note Time="16" Value="G#3" Duration="2" Instrument="cymbal"
				Note Time="18" Value="G#3" Duration="2" Instrument="cymbal"
				Note Time="20" Value="F#3" Duration="4" Instrument="cymbal"
				Note Time="24" Value="F#3" Duration="4" Instrument="cymbal"
				Note Time="25" Value="G2" Duration="1" Instrument="kick"
				Note Time="26" Value="F#3" Duration="4" Instrument="cymbal"
				Note Time="27" Value="G2" Duration="1" Instrument="kick"
				Note Time="28" Value="F#3" Duration="4" Instrument="cymbal"
			Pattern Name="Pattern 8" Color="ebf067"
				Note Time="0" Value="G#3" Duration="2" Instrument="cymbal"
				Note Time="4" Value="F#3" Duration="2" Instrument="cymbal"
				Note Time="8" Value="G#3" Duration="2" Instrument="cymbal"
				Note Time="12" Value="F#3" Duration="2" Instrument="cymbal"
				Note Time="16" Value="G#3" Duration="2" Instrument="cymbal"
				Note Time="20" Value="F#3" Duration="2" Instrument="cymbal"
				Note Time="24" Value="G#3" Duration="2" Instrument="cymbal"
				Note Time="28" Value="F#3" Duration="2" Instrument="cymbal"
			Pattern Name="Pattern 9" Color="7585e7"
				Note Time="0" Value="G4" Duration="5" Instrument="cymbal" Speed="6"
				Note Time="8" Value="G4" Duration="5" Instrument="cymbal" Speed="6"
				Note Time="16" Value="G4" Duration="5" Instrument="cymbal" Speed="6"
				Note Time="24" Value="G4" Duration="2" Instrument="cymbal" Speed="6"
				Note Time="26" Value="G4" Duration="2" Instrument="cymbal" Speed="6"
				Note Time="28" Value="E4" Duration="4" Instrument="cymbal" Speed="6"
			Pattern Name="Pattern 12" Color="ffff77"
				Note Time="0" Value="G4" Duration="5" Instrument="cymbal" Speed="6"
				Note Time="8" Value="G4" Duration="5" Instrument="cymbal" Speed="6"
				Note Time="16" Value="G4" Duration="4" Instrument="cymbal" Speed="6"
				Note Time="20" Value="G4" Duration="4" Instrument="cymbal" Speed="6"
				Note Time="24" Value="G4" Duration="2" Instrument="cymbal" Speed="6"
				Note Time="26" Value="G4" Duration="2" Instrument="cymbal" Speed="6"
				Note Time="28" Value="E4" Duration="4" Instrument="cymbal" Speed="6"
			Pattern Name="Pattern 39" Color="a2f7a6"
				Note Time="0" Value="G#3" Duration="2" Instrument="cymbal"
				Note Time="2" Value="G#3" Duration="2" Instrument="cymbal"
				Note Time="4" Value="F#3" Duration="2" Instrument="cymbal"
				Note Time="6" Value="G2" Duration="1" Instrument="kick"
				Note Time="7" Value="G2" Duration="1" Instrument="kick"
				Note Time="8" Value="G#3" Duration="2" Instrument="cymbal"
				Note Time="10" Value="G#3" Duration="2" Instrument="cymbal"
				Note Time="12" Value="F#3" Duration="2" Instrument="cymbal"
				Note Time="14" Value="G2" Duration="2" Instrument="kick"
				Note Time="16" Value="F#3" Duration="2" Instrument="cymbal"
				Note Time="18" Value="G#3" Duration="2" Instrument="cymbal"
				Note Time="20" Value="F#3" Duration="2" Instrument="cymbal"
				Note Time="22" Value="G#3" Duration="2" Instrument="cymbal"
				Note Time="24" Value="F#3" Duration="2" Instrument="cymbal"
				Note Time="26" Value="F#3" Duration="2" Instrument="cymbal"
				Note Time="28" Value="E4" Duration="4" Instrument="cymbal" Speed="6"
			Pattern Name="Pattern 40" Color="a4db74"
				Note Time="0" Value="G#3" Duration="2" Instrument="cymbal"
				Note Time="2" Value="G#3" Duration="2" Instrument="cymbal"
				Note Time="4" Value="F#3" Duration="2" Instrument="cymbal"
				Note Time="6" Value="G2" Duration="1" Instrument="kick"
				Note Time="7" Value="G2" Duration="1" Instrument="kick"
				Note Time="8" Value="G#3" Duration="2" Instrument="cymbal"
				Note Time="10" Value="G#3" Duration="2" Instrument="cymbal"
				Note Time="12" Value="F#3" Duration="2" Instrument="cymbal"
				Note Time="14" Value="G2" Duration="2" Instrument="kick"
				Note Time="16" Value="F#3" Duration="2" Instrument="cymbal"
				Note Time="18" Value="G#3" Duration="2" Instrument="cymbal"
				Note Time="20" Value="F#3" Duration="2" Instrument="cymbal"
				Note Time="22" Value="G#3" Duration="2" Instrument="cymbal"
				Note Time="24" Value="F#3" Duration="2" Instrument="cymbal"
				Note Time="26" Value="F#3" Duration="2" Instrument="cymbal"
				Note Time="28" Value="F#3" Duration="1" Instrument="cymbal"
				Note Time="29" Value="F#3" Duration="1" Instrument="cymbal"
				Note Time="30" Value="F#3" Duration="1" Instrument="cymbal"
				Note Time="31" Value="F#3" Duration="1" Instrument="cymbal"
			Pattern Name="Pattern 10" Color="ffff64"
				Note Time="0" Value="G#3" Duration="2" Instrument="cymbal"
				Note Time="4" Value="G#3" Duration="2" Instrument="cymbal"
				Note Time="8" Value="G#3" Duration="2" Instrument="cymbal"
				Note Time="12" Value="G#3" Duration="2" Instrument="cymbal"
				Note Time="16" Value="G#3" Duration="2" Instrument="cymbal"
				Note Time="20" Value="G#3" Duration="2" Instrument="cymbal"
				Note Time="24" Value="G#3" Duration="2" Instrument="cymbal"
				Note Time="28" Value="G#3" Duration="2" Instrument="cymbal"
			Pattern Name="Pattern 42" Color="e783f8"
				Note Time="0" Value="G#3" Duration="2" Instrument="cymbal"
				Note Time="4" Value="G#3" Duration="2" Instrument="cymbal"
				Note Time="8" Value="G#3" Duration="2" Instrument="cymbal"
				Note Time="12" Value="G#3" Duration="2" Instrument="cymbal"
				Note Time="16" Value="G3" Duration="4" Instrument="cymbal"
				Note Time="20" Value="G3" Duration="4" Instrument="cymbal"
			Pattern Name="Pattern 41" Color="62e2d6"
				Note Time="0" Value="G#3" Duration="4" Instrument="cymbal"
				Note Time="4" Value="F#3" Duration="4" Instrument="cymbal"
				Note Time="8" Value="G#3" Duration="4" Instrument="cymbal"
				Note Time="12" Value="F#3" Duration="4" Instrument="cymbal"
				Note Time="16" Value="G#3" Duration="4" Instrument="cymbal"
				Note Time="20" Value="F#3" Duration="4" Instrument="cymbal"
				Note Time="24" Value="G#3" Duration="4" Instrument="cymbal"
				Note Time="28" Value="F#3" Duration="4" Instrument="cymbal"
			Pattern Name="Pattern 43" Color="ff5a9f"
				Note Time="0" Value="G#3" Duration="4" Instrument="cymbal"
				Note Time="4" Value="F#3" Duration="4" Instrument="cymbal"
				Note Time="8" Value="G#3" Duration="4" Instrument="cymbal"
				Note Time="12" Value="F#3" Duration="4" Instrument="cymbal"
			Pattern Name="Pattern 44" Color="a4db74"
				Note Time="0" Value="G#3" Duration="4" Instrument="cymbal"
				Note Time="4" Value="F#3" Duration="4" Instrument="cymbal"
				Note Time="8" Value="G#3" Duration="4" Instrument="cymbal"
				Note Time="12" Value="F#3" Duration="4" Instrument="cymbal"
				Note Time="16" Value="G#3" Duration="4" Instrument="cymbal"
				Note Time="20" Value="F#3" Duration="2" Instrument="cymbal"
				Note Time="22" Value="G#3" Duration="2" Instrument="cymbal"
				Note Time="26" Value="F#3" Duration="2" Instrument="cymbal"
				Note Time="28" Value="G#3" Duration="2" Instrument="cymbal"
				Note Time="30" Value="G#3" Duration="2" Instrument="cymbal"
			PatternInstance Time="0" Pattern="Pattern 14"
			PatternInstance Time="1" Pattern="Pattern 13"
			PatternInstance Time="2" Pattern="Pattern 13"
			PatternInstance Time="3" Pattern="Pattern 15"
			PatternInstance Time="4" Pattern="Pattern 16"
			PatternInstance Time="5" Pattern="Pattern 16"
			PatternInstance Time="6" Pattern="Pattern 17"
			PatternInstance Time="7" Pattern="Pattern 18"
			PatternInstance Time="8" Pattern="Pattern 19"
			PatternInstance Time="9" Pattern="Pattern 19"
			PatternInstance Time="10" Pattern="Pattern 20"
			PatternInstance Time="11" Pattern="Pattern 16"
			PatternInstance Time="12" Pattern="Pattern 16"
			PatternInstance Time="13" Pattern="Pattern 21"
			PatternInstance Time="14" Pattern="Pattern 22"
			PatternInstance Time="15" Pattern="Pattern 23"
			PatternInstance Time="16" Pattern="Pattern 24"
			PatternInstance Time="17" Pattern="Pattern 25"
			PatternInstance Time="18" Pattern="Pattern 26"
			PatternInstance Time="19" Pattern="Pattern 27"
			PatternInstance Time="20" Pattern="Pattern 28"
			PatternInstance Time="21" Pattern="Pattern 29"
			PatternInstance Time="22" Pattern="Pattern 30"
			PatternInstance Time="23" Pattern="Pattern 34"
			PatternInstance Time="24" Pattern="Pattern 1"
			PatternInstance Time="25" Pattern="Pattern 33"
			PatternInstance Time="26" Pattern="Pattern 1"
			PatternInstance Time="27" Pattern="Pattern 32"
			PatternInstance Time="28" Pattern="Pattern 31"
			PatternInstance Time="29" Pattern="Pattern 2"
			PatternInstance Time="30" Pattern="Pattern 2"
			PatternInstance Time="31" Pattern="Pattern 5"
			PatternInstance Time="32" Pattern="Pattern 31"
			PatternInstance Time="33" Pattern="Pattern 35"
			PatternInstance Time="34" Pattern="Pattern 2"
			PatternInstance Time="35" Pattern="Pattern 6"
			PatternInstance Time="36" Pattern="Pattern 31"
			PatternInstance Time="37" Pattern="Pattern 2"
			PatternInstance Time="38" Pattern="Pattern 36"
			PatternInstance Time="41" Pattern="Pattern 3"
			PatternInstance Time="42" Pattern="Pattern 37"
			PatternInstance Time="43" Pattern="Pattern 7"
			PatternInstance Time="44" Pattern="Pattern 4"
			PatternInstance Time="45" Pattern="Pattern 4"
			PatternInstance Time="46" Pattern="Pattern 4"
			PatternInstance Time="47" Pattern="Pattern 38"
			PatternInstance Time="48" Pattern="Pattern 8"
			PatternInstance Time="49" Pattern="Pattern 8"
			PatternInstance Time="50" Pattern="Pattern 9"
			PatternInstance Time="51" Pattern="Pattern 12"
			PatternInstance Time="52" Pattern="Pattern 39"
			PatternInstance Time="53" Pattern="Pattern 40"
			PatternInstance Time="54" Pattern="Pattern 10"
			PatternInstance Time="55" Pattern="Pattern 42"
			PatternInstance Time="56" Pattern="Pattern 41"
			PatternInstance Time="57" Pattern="Pattern 41"
			PatternInstance Time="58" Pattern="Pattern 41"
			PatternInstance Time="59" Pattern="Pattern 41"
			PatternInstance Time="60" Pattern="Pattern 41"
			PatternInstance Time="61" Pattern="Pattern 41"
			PatternInstance Time="62" Pattern="Pattern 41"
			PatternInstance Time="63" Pattern="Pattern 43"
			PatternInstance Time="64" Pattern="Pattern 41"
			PatternInstance Time="65" Pattern="Pattern 44"
		Channel Type="DPCM"
			Pattern Name="1" Color="f6a4ff"
				Note Time="0" Value="E5" Duration="4" Instrument="DMC: drums + bass"
				Note Time="4" Value="E5" Duration="4" Instrument="DMC: drums + bass"
				Note Time="8" Value="E5" Duration="4" Instrument="DMC: drums + bass"
				Note Time="12" Value="F5" Duration="4" Instrument="DMC: drums + bass"
				Note Time="16" Value="E5" Duration="4" Instrument="DMC: drums + bass"
				Note Time="20" Value="E5" Duration="4" Instrument="DMC: drums + bass"
				Note Time="24" Value="E5" Duration="4" Instrument="DMC: drums + bass"
				Note Time="28" Value="F5" Duration="4" Instrument="DMC: drums + bass"
			Pattern Name="2" Color="eaffbd"
				Note Time="0" Value="E5" Duration="4" Instrument="DMC: drums + bass"
				Note Time="4" Value="E5" Duration="4" Instrument="DMC: drums + bass"
				Note Time="8" Value="E5" Duration="4" Instrument="DMC: drums + bass"
				Note Time="12" Value="F5" Duration="4" Instrument="DMC: drums + bass"
				Note Time="16" Value="E5" Duration="4" Instrument="DMC: drums + bass"
				Note Time="20" Value="E5" Duration="4" Instrument="DMC: drums + bass"
				Note Time="24" Value="E5" Duration="1" Instrument="DMC: drums + bass"
				Note Time="25" Value="E5" Duration="1" Instrument="DMC: drums + bass"
				Note Time="26" Value="E5" Duration="1" Instrument="DMC: drums + bass"
				Note Time="27" Value="E5" Duration="1" Instrument="DMC: drums + bass"
				Note Time="28" Value="F5" Duration="4" Instrument="DMC: drums + bass"
			Pattern Name="3" Color="ff9ece"
				Note Time="0" Value="E5" Duration="4" Instrument="DMC: drums + bass"
				Note Time="14" Value="E5" Duration="4" Instrument="DMC: drums + bass"
			Pattern Name="4" Color="b75bde"
				Note Time="0" Value="E5" Duration="2" Instrument="DMC: drums + bass"
				Note Time="2" Value="E5" Duration="2" Instrument="DMC: drums + bass"
				Note Time="4" Value="F5" Duration="2" Instrument="DMC: drums + bass"
				Note Time="8" Value="E5" Duration="2" Instrument="DMC: drums + bass"
				Note Time="12" Value="F5" Duration="2" Instrument="DMC: drums + bass"
				Note Time="16" Value="E5" Duration="2" Instrument="DMC: drums + bass"
				Note Time="18" Value="E5" Duration="2" Instrument="DMC: drums + bass"
				Note Time="20" Value="F5" Duration="2" Instrument="DMC: drums + bass"
				Note Time="24" Value="E5" Duration="2" Instrument="DMC: drums + bass"
				Note Time="28" Value="F5" Duration="2" Instrument="DMC: drums + bass"
			Pattern Name="5" Color="f6a4ff"
				Note Time="0" Value="E5" Duration="2" Instrument="DMC: drums + bass"
				Note Time="2" Value="E5" Duration="2" Instrument="DMC: drums + bass"
				Note Time="4" Value="F5" Duration="2" Instrument="DMC: drums + bass"
				Note Time="6" Value="F5" Duration="2" Instrument="DMC: drums + bass"
				Note Time="8" Value="E5" Duration="2" Instrument="DMC: drums + bass"
				Note Time="10" Value="E5" Duration="2" Instrument="DMC: drums + bass"
				Note Time="12" Value="F5" Duration="4" Instrument="DMC: drums + bass"
				Note Time="16" Value="E5" Duration="2" Instrument="DMC: drums + bass"
				Note Time="18" Value="E5" Duration="2" Instrument="DMC: drums + bass"
				Note Time="20" Value="F5" Duration="2" Instrument="DMC: drums + bass"
				Note Time="22" Value="F5" Duration="2" Instrument="DMC: drums + bass"
				Note Time="24" Value="E5" Duration="4" Instrument="DMC: drums + bass"
				Note Time="28" Value="F5" Duration="2" Instrument="DMC: drums + bass"
				Note Time="30" Value="F5" Duration="2" Instrument="DMC: drums + bass"
			Pattern Name="6" Color="9a71ed"
				Note Time="0" Value="E5" Duration="2" Instrument="DMC: drums + bass"
				Note Time="2" Value="E5" Duration="2" Instrument="DMC: drums + bass"
				Note Time="4" Value="F5" Duration="2" Instrument="DMC: drums + bass"
				Note Time="6" Value="F5" Duration="2" Instrument="DMC: drums + bass"
				Note Time="8" Value="E5" Duration="2" Instrument="DMC: drums + bass"
				Note Time="10" Value="E5" Duration="2" Instrument="DMC: drums + bass"
				Note Time="12" Value="F5" Duration="1" Instrument="DMC: drums + bass"
				Note Time="13" Value="F5" Duration="1" Instrument="DMC: drums + bass"
				Note Time="14" Value="F5" Duration="1" Instrument="DMC: drums + bass"
				Note Time="15" Value="F5" Duration="1" Instrument="DMC: drums + bass"
				Note Time="16" Value="E5" Duration="2" Instrument="DMC: drums + bass"
				Note Time="18" Value="E5" Duration="2" Instrument="DMC: drums + bass"
				Note Time="20" Value="F5" Duration="2" Instrument="DMC: drums + bass"
				Note Time="22" Value="E5" Duration="4" Instrument="DMC: drums + bass"
				Note Time="26" Value="F5" Duration="2" Instrument="DMC: drums + bass"
				Note Time="28" Value="F5" Duration="1" Instrument="DMC: drums + bass"
				Note Time="29" Value="F5" Duration="1" Instrument="DMC: drums + bass"
				Note Time="30" Value="F5" Duration="2" Instrument="DMC: drums + bass"
			Pattern Name="7" Color="ffef3c"
				Note Time="0" Value="E5" Duration="2" Instrument="DMC: drums + bass"
				Note Time="2" Value="E5" Duration="2" Instrument="DMC: drums + bass"
				Note Time="4" Value="F5" Duration="4" Instrument="DMC: drums + bass"
				Note Time="8" Value="E5" Duration="2" Instrument="DMC: drums + bass"
				Note Time="10" Value="E5" Duration="2" Instrument="DMC: drums + bass"
				Note Time="12" Value="F5" Duration="4" Instrument="DMC: drums + bass"
				Note Time="16" Value="E5" Duration="2" Instrument="DMC: drums + bass"
				Note Time="18" Value="E5" Duration="2" Instrument="DMC: drums + bass"
				Note Time="20" Value="F5" Duration="4" Instrument="DMC: drums + bass"
				Note Time="24" Value="E5" Duration="2" Instrument="DMC: drums + bass"
				Note Time="26" Value="E5" Duration="2" Instrument="DMC: drums + bass"
				Note Time="28" Value="F5" Duration="4" Instrument="DMC: drums + bass"
			Pattern Name="8" Color="fff389"
				Note Time="0" Value="E5" Duration="2" Instrument="DMC: drums + bass"
				Note Time="2" Value="E5" Duration="2" Instrument="DMC: drums + bass"
				Note Time="4" Value="F5" Duration="4" Instrument="DMC: drums + bass"
				Note Time="8" Value="E5" Duration="2" Instrument="DMC: drums + bass"
				Note Time="10" Value="E5" Duration="2" Instrument="DMC: drums + bass"
				Note Time="12" Value="F5" Duration="4" Instrument="DMC: drums + bass"
				Note Time="16" Value="F5" Duration="2" Instrument="DMC: drums + bass"
				Note Time="18" Value="F5" Duration="2" Instrument="DMC: drums + bass"
				Note Time="20" Value="F5" Duration="2" Instrument="DMC: drums + bass"
				Note Time="22" Value="F5" Duration="2" Instrument="DMC: drums + bass"
				Note Time="24" Value="E5" Duration="2" Instrument="DMC: drums + bass"
				Note Time="26" Value="E5" Duration="2" Instrument="DMC: drums + bass"
				Note Time="28" Value="F5" Duration="4" Instrument="DMC: drums + bass"
			Pattern Name="9" Color="ff8d5a"
				Note Time="0" Value="E5" Duration="2" Instrument="DMC: drums + bass"
				Note Time="2" Value="E5" Duration="2" Instrument="DMC: drums + bass"
				Note Time="4" Value="F5" Duration="4" Instrument="DMC: drums + bass"
				Note Time="8" Value="E5" Duration="2" Instrument="DMC: drums + bass"
				Note Time="10" Value="E5" Duration="2" Instrument="DMC: drums + bass"
				Note Time="12" Value="F5" Duration="4" Instrument="DMC: drums + bass"
				Note Time="16" Value="E5" Duration="2" Instrument="DMC: drums + bass"
				Note Time="18" Value="E5" Duration="2" Instrument="DMC: drums + bass"
				Note Time="20" Value="F5" Duration="4" Instrument="DMC: drums + bass"
				Note Time="24" Value="E5" Duration="4" Instrument="DMC: drums + bass"
				Note Time="28" Value="E5" Duration="4" Instrument="DMC: drums + bass"
			Pattern Name="10" Color="5dd2ff"
				Note Time="0" Value="E5" Duration="2" Instrument="DMC: drums + bass"
				Note Time="2" Value="E5" Duration="2" Instrument="DMC: drums + bass"
				Note Time="4" Value="E5" Duration="2" Instrument="DMC: drums + bass"
				Note Time="6" Value="E5" Duration="2" Instrument="DMC: drums + bass"
				Note Time="8" Value="E5" Duration="2" Instrument="DMC: drums + bass"
				Note Time="10" Value="E5" Duration="2" Instrument="DMC: drums + bass"
				Note Time="12" Value="E5" Duration="2" Instrument="DMC: drums + bass"
				Note Time="14" Value="E5" Duration="2" Instrument="DMC: drums + bass"
			Pattern Name="11" Color="b5c2ff"
				Note Time="0" Value="E5" Duration="4" Instrument="DMC: drums + bass"
				Note Time="4" Value="F5" Duration="4" Instrument="DMC: drums + bass"
				Note Time="8" Value="E5" Duration="4" Instrument="DMC: drums + bass"
				Note Time="12" Value="F5" Duration="4" Instrument="DMC: drums + bass"
				Note Time="16" Value="E5" Duration="4" Instrument="DMC: drums + bass"
				Note Time="20" Value="F5" Duration="4" Instrument="DMC: drums + bass"
				Note Time="24" Value="E5" Duration="4" Instrument="DMC: drums + bass"
				Note Time="28" Value="F5" Duration="4" Instrument="DMC: drums + bass"
			Pattern Name="13" Color="ffff8b"
				Note Time="0" Value="E5" Duration="2" Instrument="DMC: drums + bass"
				Note Time="2" Value="B4" Duration="2" Instrument="DMC: drums + bass"
				Note Time="4" Value="F5" Duration="2" Instrument="DMC: drums + bass"
				Note Time="6" Value="B4" Duration="2" Instrument="DMC: drums + bass"
				Note Time="8" Value="E5" Duration="2" Instrument="DMC: drums + bass"
				Note Time="10" Value="C#5" Duration="2" Instrument="DMC: drums + bass"
				Note Time="12" Value="F5" Duration="2" Instrument="DMC: drums + bass"
				Note Time="14" Value="C#5" Duration="2" Instrument="DMC: drums + bass"
				Note Time="16" Value="E5" Duration="2" Instrument="DMC: drums + bass"
				Note Time="18" Value="F#4" Duration="2" Instrument="DMC: drums + bass"
				Note Time="20" Value="F5" Duration="2" Instrument="DMC: drums + bass"
				Note Time="22" Value="C#4" Duration="2" Instrument="DMC: drums + bass"
				Note Time="24" Value="E5" Duration="2" Instrument="DMC: drums + bass"
				Note Time="26" Value="F#4" Duration="2" Instrument="DMC: drums + bass"
				Note Time="28" Value="F5" Duration="2" Instrument="DMC: drums + bass"
				Note Time="30" Value="C#4" Duration="2" Instrument="DMC: drums + bass"
			Pattern Name="12" Color="ffff71"
				Note Time="0" Value="E5" Duration="2" Instrument="DMC: drums + bass"
				Note Time="2" Value="C#5" Duration="2" Instrument="DMC: drums + bass"
				Note Time="4" Value="F5" Duration="2" Instrument="DMC: drums + bass"
				Note Time="6" Value="G#4" Duration="2" Instrument="DMC: drums + bass"
				Note Time="8" Value="E5" Duration="2" Instrument="DMC: drums + bass"
				Note Time="10" Value="C#5" Duration="2" Instrument="DMC: drums + bass"
				Note Time="12" Value="F5" Duration="2" Instrument="DMC: drums + bass"
				Note Time="14" Value="G#4" Duration="2" Instrument="DMC: drums + bass"
				Note Time="16" Value="E5" Duration="2" Instrument="DMC: drums + bass"
				Note Time="18" Value="C#5" Duration="2" Instrument="DMC: drums + bass"
				Note Time="20" Value="F5" Duration="2" Instrument="DMC: drums + bass"
				Note Time="22" Value="F#4" Duration="2" Instrument="DMC: drums + bass"
				Note Time="24" Value="E5" Duration="2" Instrument="DMC: drums + bass"
				Note Time="26" Value="B4" Duration="2" Instrument="DMC: drums + bass"
				Note Time="28" Value="F5" Duration="2" Instrument="DMC: drums + bass"
				Note Time="30" Value="D#4" Duration="2" Instrument="DMC: drums + bass"
			Pattern Name="14" Color="ffc83c"
				Note Time="0" Value="B4" Duration="2" Instrument="DMC: drums + bass"
				Note Time="4" Value="F#4" Duration="2" Instrument="DMC: drums + bass"
				Note Time="8" Value="B4" Duration="2" Instrument="DMC: drums + bass"
				Note Time="12" Value="F#4" Duration="2" Instrument="DMC: drums + bass"
				Note Time="16" Value="B4" Duration="2" Instrument="DMC: drums + bass"
				Note Time="18" Value="F#4" Duration="2" Instrument="DMC: drums + bass"
				Note Time="20" Value="B4" Duration="2" Instrument="DMC: drums + bass"
				Note Time="22" Value="F#4" Duration="2" Instrument="DMC: drums + bass"
				Note Time="24" Value="F5" Duration="1" Instrument="DMC: drums + bass"
				Note Time="25" Value="F5" Duration="1" Instrument="DMC: drums + bass"
				Note Time="26" Value="F5" Duration="1" Instrument="DMC: drums + bass"
				Note Time="27" Value="F5" Duration="1" Instrument="DMC: drums + bass"
				Note Time="28" Value="F5" Duration="1" Instrument="DMC: drums + bass"
				Note Time="29" Value="F5" Duration="1" Instrument="DMC: drums + bass"
				Note Time="30" Value="F5" Duration="1" Instrument="DMC: drums + bass"
				Note Time="31" Value="F5" Duration="1" Instrument="DMC: drums + bass"
			Pattern Name="15" Color="ffff75"
				Note Time="12" Value="E5" Duration="2" Instrument="DMC: drums + bass"
				Note Time="16" Value="E5" Duration="2" Instrument="DMC: drums + bass"
			Pattern Name="Pattern 1" Color="e95093"
				Note Time="0" Value="E5" Duration="2" Instrument="DMC: drums + bass" Speed="6"
				Note Time="4" Value="E5" Duration="2" Instrument="DMC: drums + bass"
				Note Time="8" Value="E5" Duration="2" Instrument="DMC: drums + bass"
				Note Time="12" Value="E5" Duration="2" Instrument="DMC: drums + bass"
				Note Time="16" Value="E5" Duration="2" Instrument="DMC: drums + bass"
				Note Time="20" Value="E5" Duration="2" Instrument="DMC: drums + bass"
				Note Time="22" Value="C#4" Duration="2" Instrument="DMC: drums + bass"
				Note Time="24" Value="E5" Duration="2" Instrument="DMC: drums + bass"
				Note Time="26" Value="C#4" Duration="2" Instrument="DMC: drums + bass"
				Note Time="28" Value="E5" Duration="2" Instrument="DMC: drums + bass"
				Note Time="30" Value="C#4" Duration="2" Instrument="DMC: drums + bass"
			Pattern Name="Pattern 2" Color="7585e7"
				Note Time="0" Value="E5" Duration="2" Instrument="DMC: drums + bass"
				Note Time="4" Value="E5" Duration="2" Instrument="DMC: drums + bass"
				Note Time="8" Value="E5" Duration="2" Instrument="DMC: drums + bass"
				Note Time="12" Value="E5" Duration="2" Instrument="DMC: drums + bass"
				Note Time="16" Value="E5" Duration="2" Instrument="DMC: drums + bass"
				Note Time="20" Value="E5" Duration="2" Instrument="DMC: drums + bass"
				Note Time="24" Value="E5" Duration="4" Instrument="DMC: drums + bass" Speed="1"
				Note Time="32" Value="E5" Duration="4" Instrument="DMC: drums + bass" Speed="1"
				Note Time="40" Value="E5" Duration="4" Instrument="DMC: drums + bass" Speed="1"
				Note Time="48" Value="E5" Duration="4" Instrument="DMC: drums + bass" Speed="1"
				Note Time="56" Value="E5" Duration="4" Instrument="DMC: drums + bass"
				Note Time="60" Speed="1"
				Note Time="64" Value="E5" Duration="4" Instrument="DMC: drums + bass"
			Pattern Name="Pattern 3" Color="ffc83c"
				Note Time="0" Value="E5" Duration="2" Instrument="DMC: drums + bass" Speed="6"
				Note Time="4" Value="E5" Duration="2" Instrument="DMC: drums + bass"
				Note Time="8" Value="E5" Duration="2" Instrument="DMC: drums + bass"
				Note Time="12" Value="E5" Duration="2" Instrument="DMC: drums + bass"
				Note Time="16" Value="E5" Duration="2" Instrument="DMC: drums + bass"
				Note Time="20" Value="E5" Duration="2" Instrument="DMC: drums + bass"
				Note Time="24" Value="E5" Duration="1" Instrument="DMC: drums + bass"
				Note Time="25" Value="E5" Duration="1" Instrument="DMC: drums + bass"
				Note Time="26" Value="E5" Duration="1" Instrument="DMC: drums + bass"
				Note Time="27" Value="E5" Duration="1" Instrument="DMC: drums + bass"
				Note Time="28" Value="E5" Duration="2" Instrument="DMC: drums + bass"
			Pattern Name="Pattern 4" Color="ff8f8c"
				Note Time="0" Value="E5" Duration="2" Instrument="DMC: drums + bass" Speed="6"
				Note Time="4" Value="E5" Duration="2" Instrument="DMC: drums + bass"
				Note Time="8" Value="E5" Duration="2" Instrument="DMC: drums + bass"
				Note Time="12" Value="E5" Duration="2" Instrument="DMC: drums + bass"
				Note Time="16" Value="E5" Duration="2" Instrument="DMC: drums + bass"
				Note Time="20" Value="E5" Duration="2" Instrument="DMC: drums + bass"
				Note Time="24" Value="E5" Duration="2" Instrument="DMC: drums + bass"
				Note Time="28" Value="E5" Duration="2" Instrument="DMC: drums + bass"
			Pattern Name="Pattern 5" Color="e783f8"
				Note Time="0" Value="E5" Duration="2" Instrument="DMC: drums + bass" Speed="6"
				Note Time="4" Value="E5" Duration="2" Instrument="DMC: drums + bass"
				Note Time="8" Value="E5" Duration="2" Instrument="DMC: drums + bass"
				Note Time="12" Value="E5" Duration="2" Instrument="DMC: drums + bass"
				Note Time="16" Value="E5" Duration="2" Instrument="DMC: drums + bass"
				Note Time="20" Value="E5" Duration="2" Instrument="DMC: drums + bass"
				Note Time="24" Value="E5" Duration="2" Instrument="DMC: drums + bass"
				Note Time="28" Value="E5" Duration="1" Instrument="DMC: drums + bass"
				Note Time="29" Value="E5" Duration="1" Instrument="DMC: drums + bass"
				Note Time="30" Value="E5" Duration="2" Instrument="DMC: drums + bass"
			Pattern Name="Pattern 7" Color="ffff77"
				Note Time="0" Value="E5" Duration="2" Instrument="DMC: drums + bass" Speed="6"
				Note Time="2" Value="F#4" Duration="2" Instrument="DMC: drums + bass" Speed="6"
				Note Time="4" Value="E5" Duration="2" Instrument="DMC: drums + bass"
				Note Time="6" Value="F#4" Duration="2" Instrument="DMC: drums + bass" Speed="6"
				Note Time="8" Value="E5" Duration="2" Instrument="DMC: drums + bass"
				Note Time="10" Value="G#4" Duration="2" Instrument="DMC: drums + bass" Speed="6"
				Note Time="12" Value="E5" Duration="2" Instrument="DMC: drums + bass"
				Note Time="14" Value="G#4" Duration="2" Instrument="DMC: drums + bass" Speed="6"
				Note Time="16" Value="E5" Duration="2" Instrument="DMC: drums + bass"
				Note Time="18" Value="A#4" Duration="2" Instrument="DMC: drums + bass" Speed="6"
				Note Time="20" Value="E5" Duration="2" Instrument="DMC: drums + bass"
				Note Time="22" Value="A#4" Duration="2" Instrument="DMC: drums + bass" Speed="6"
				Note Time="24" Value="E5" Duration="2" Instrument="DMC: drums + bass"
				Note Time="26" Value="F#4" Duration="2" Instrument="DMC: drums + bass" Speed="6"
				Note Time="28" Value="E5" Duration="2" Instrument="DMC: drums + bass"
				Note Time="30" Value="F4" Duration="2" Instrument="DMC: drums + bass" Speed="6"
			Pattern Name="Pattern 8" Color="3ec4ff"
				Note Time="0" Value="E5" Duration="2" Instrument="DMC: drums + bass" Speed="6"
				Note Time="8" Value="E5" Duration="2" Instrument="DMC: drums + bass"
				Note Time="16" Value="E5" Duration="2" Instrument="DMC: drums + bass"
			Pattern Name="Pattern 9" Color="ffff64"
				Note Time="16" Value="E5" Duration="2" Instrument="DMC: drums + bass"
				Note Time="24" Value="E5" Duration="2" Instrument="DMC: drums + bass"
				Note Time="28" Value="E5" Duration="2" Instrument="DMC: drums + bass"
			Pattern Name="Pattern 10" Color="ffe461"
				Note Time="0" Value="E5" Duration="2" Instrument="DMC: drums + bass" Speed="6"
				Note Time="2" Value="F#4" Duration="2" Instrument="DMC: drums + bass" Speed="6"
				Note Time="4" Value="E5" Duration="2" Instrument="DMC: drums + bass"
				Note Time="6" Value="F#4" Duration="2" Instrument="DMC: drums + bass" Speed="6"
				Note Time="8" Value="E5" Duration="2" Instrument="DMC: drums + bass"
				Note Time="10" Value="G#4" Duration="2" Instrument="DMC: drums + bass" Speed="6"
				Note Time="12" Value="E5" Duration="2" Instrument="DMC: drums + bass"
				Note Time="14" Value="G#4" Duration="2" Instrument="DMC: drums + bass" Speed="6"
				Note Time="16" Value="E5" Duration="2" Instrument="DMC: drums + bass"
				Note Time="18" Value="A#4" Duration="2" Instrument="DMC: drums + bass" Speed="6"
				Note Time="20" Value="E5" Duration="2" Instrument="DMC: drums + bass"
				Note Time="22" Value="A#4" Duration="2" Instrument="DMC: drums + bass" Speed="6"
				Note Time="24" Value="E5" Duration="2" Instrument="DMC: drums + bass"
				Note Time="26" Value="E5" Duration="2" Instrument="DMC: drums + bass"
				Note Time="28" Value="E5" Duration="2" Instrument="DMC: drums + bass"
				Note Time="30" Value="E5" Duration="2" Instrument="DMC: drums + bass"
			Pattern Name="Pattern 6" Color="ff7cb6"
				Note Time="0" Value="E5" Duration="2" Instrument="DMC: drums + bass"
				Note Time="2" Value="E5" Duration="2" Instrument="DMC: drums + bass"
				Note Time="4" Value="F5" Duration="2" Instrument="DMC: drums + bass"
				Note Time="6" Value="E5" Duration="1" Instrument="DMC: drums + bass"
				Note Time="7" Value="E5" Duration="1" Instrument="DMC: drums + bass"
				Note Time="8" Value="E5" Duration="2" Instrument="DMC: drums + bass"
				Note Time="10" Value="E5" Duration="2" Instrument="DMC: drums + bass"
				Note Time="12" Value="F5" Duration="4" Instrument="DMC: drums + bass"
				Note Time="16" Value="E5" Duration="2" Instrument="DMC: drums + bass"
				Note Time="18" Value="E5" Duration="2" Instrument="DMC: drums + bass"
				Note Time="20" Value="F5" Duration="2" Instrument="DMC: drums + bass"
				Note Time="22" Value="E5" Duration="1" Instrument="DMC: drums + bass"
				Note Time="23" Value="E5" Duration="1" Instrument="DMC: drums + bass"
				Note Time="24" Value="E5" Duration="2" Instrument="DMC: drums + bass"
				Note Time="26" Value="E5" Duration="2" Instrument="DMC: drums + bass"
				Note Time="28" Value="F5" Duration="4" Instrument="DMC: drums + bass"
			Pattern Name="Pattern 11" Color="ffafaf"
				Note Time="0" Value="E5" Duration="2" Instrument="DMC: drums + bass"
				Note Time="2" Value="E5" Duration="2" Instrument="DMC: drums + bass"
				Note Time="4" Value="F5" Duration="2" Instrument="DMC: drums + bass"
				Note Time="6" Value="E5" Duration="1" Instrument="DMC: drums + bass"
				Note Time="7" Value="E5" Duration="1" Instrument="DMC: drums + bass"
				Note Time="8" Value="E5" Duration="2" Instrument="DMC: drums + bass"
				Note Time="10" Value="E5" Duration="2" Instrument="DMC: drums + bass"
				Note Time="12" Value="F5" Duration="4" Instrument="DMC: drums + bass"
				Note Time="16" Value="E5" Duration="2" Instrument="DMC: drums + bass"
				Note Time="18" Value="E5" Duration="2" Instrument="DMC: drums + bass"
				Note Time="20" Value="F5" Duration="2" Instrument="DMC: drums + bass"
				Note Time="22" Value="E5" Duration="1" Instrument="DMC: drums + bass"
				Note Time="23" Value="E5" Duration="1" Instrument="DMC: drums + bass"
				Note Time="24" Value="F5" Duration="1" Instrument="DMC: drums + bass"
				Note Time="25" Value="E5" Duration="1" Instrument="DMC: drums + bass"
				Note Time="26" Value="F5" Duration="1" Instrument="DMC: drums + bass"
				Note Time="27" Value="E5" Duration="1" Instrument="DMC: drums + bass"
				Note Time="28" Value="F5" Duration="4" Instrument="DMC: drums + bass"
			Pattern Name="Pattern 12" Color="3cc5b7"
				Note Time="0" Value="E5" Duration="4" Instrument="DMC: drums + bass"
				Note Time="8" Value="E5" Duration="4" Instrument="DMC: drums + bass"
				Note Time="16" Value="E5" Duration="4" Instrument="DMC: drums + bass"
				Note Time="24" Value="E5" Duration="2" Instrument="DMC: drums + bass"
				Note Time="26" Value="E5" Duration="2" Instrument="DMC: drums + bass"
			Pattern Name="Pattern 13" Color="6c7bdb"
				Note Time="0" Value="E5" Duration="4" Instrument="DMC: drums + bass"
				Note Time="8" Value="E5" Duration="4" Instrument="DMC: drums + bass"
				Note Time="16" Value="E5" Duration="4" Instrument="DMC: drums + bass"
				Note Time="20" Value="E5" Duration="4" Instrument="DMC: drums + bass"
				Note Time="24" Value="E5" Duration="2" Instrument="DMC: drums + bass"
				Note Time="26" Value="E5" Duration="2" Instrument="DMC: drums + bass"
			Pattern Name="Pattern 14" Color="7ee1ff"
				Note Time="0" Value="E5" Duration="2" Instrument="DMC: drums + bass"
				Note Time="2" Value="E5" Duration="2" Instrument="DMC: drums + bass"
				Note Time="4" Value="F5" Duration="2" Instrument="DMC: drums + bass"
				Note Time="6" Value="E5" Duration="2" Instrument="DMC: drums + bass"
				Note Time="8" Value="E5" Duration="2" Instrument="DMC: drums + bass"
				Note Time="10" Value="E5" Duration="2" Instrument="DMC: drums + bass"
				Note Time="12" Value="F5" Duration="2" Instrument="DMC: drums + bass"
				Note Time="14" Value="E5" Duration="2" Instrument="DMC: drums + bass"
				Note Time="16" Value="E5" Duration="2" Instrument="DMC: drums + bass"
				Note Time="18" Value="E5" Duration="2" Instrument="DMC: drums + bass"
				Note Time="20" Value="F5" Duration="2" Instrument="DMC: drums + bass"
				Note Time="22" Value="E5" Duration="2" Instrument="DMC: drums + bass"
				Note Time="24" Value="E5" Duration="2" Instrument="DMC: drums + bass"
				Note Time="26" Value="E5" Duration="2" Instrument="DMC: drums + bass"
				Note Time="28" Value="F5" Duration="2" Instrument="DMC: drums + bass"
				Note Time="30" Value="F5" Duration="2" Instrument="DMC: drums + bass"
			Pattern Name="Pattern 39" Color="3ec4ff"
				Note Time="0" Value="E5" Duration="2" Instrument="DMC: drums + bass"
				Note Time="2" Value="E5" Duration="2" Instrument="DMC: drums + bass"
				Note Time="4" Value="F5" Duration="2" Instrument="DMC: drums + bass"
				Note Time="6" Value="E5" Duration="2" Instrument="DMC: drums + bass"
				Note Time="8" Value="E5" Duration="2" Instrument="DMC: drums + bass"
				Note Time="10" Value="E5" Duration="2" Instrument="DMC: drums + bass"
				Note Time="12" Value="F5" Duration="2" Instrument="DMC: drums + bass"
				Note Time="14" Value="E5" Duration="2" Instrument="DMC: drums + bass"
				Note Time="16" Value="F5" Duration="2" Instrument="DMC: drums + bass"
				Note Time="18" Value="E5" Duration="2" Instrument="DMC: drums + bass"
				Note Time="20" Value="F5" Duration="2" Instrument="DMC: drums + bass"
				Note Time="22" Value="E5" Duration="2" Instrument="DMC: drums + bass"
				Note Time="24" Value="F5" Duration="2" Instrument="DMC: drums + bass"
				Note Time="26" Value="F5" Duration="2" Instrument="DMC: drums + bass"
				Note Time="28" Value="F5" Duration="1" Instrument="DMC: drums + bass"
				Note Time="29" Value="F5" Duration="1" Instrument="DMC: drums + bass"
				Note Time="30" Value="F5" Duration="1" Instrument="DMC: drums + bass"
				Note Time="31" Value="F5" Duration="1" Instrument="DMC: drums + bass"
			Pattern Name="Pattern 15" Color="88eb8c"
				Note Time="0" Value="E5" Duration="2" Instrument="DMC: drums + bass"
				Note Time="4" Value="E5" Duration="2" Instrument="DMC: drums + bass"
				Note Time="8" Value="E5" Duration="2" Instrument="DMC: drums + bass"
				Note Time="12" Value="E5" Duration="2" Instrument="DMC: drums + bass"
				Note Time="16" Value="E5" Duration="2" Instrument="DMC: drums + bass"
				Note Time="20" Value="E5" Duration="2" Instrument="DMC: drums + bass"
				Note Time="24" Value="E5" Duration="2" Instrument="DMC: drums + bass"
				Note Time="28" Value="E5" Duration="2" Instrument="DMC: drums + bass"
			Pattern Name="Pattern 41" Color="ffff75"
				Note Time="0" Value="E5" Duration="2" Instrument="DMC: drums + bass"
				Note Time="4" Value="E5" Duration="2" Instrument="DMC: drums + bass"
				Note Time="8" Value="E5" Duration="2" Instrument="DMC: drums + bass"
				Note Time="12" Value="F5" Duration="2" Instrument="DMC: drums + bass"
				Note Time="16" Value="F5" Duration="2" Instrument="DMC: drums + bass"
				Note Time="20" Value="F5" Duration="2" Instrument="DMC: drums + bass"
			Pattern Name="Pattern 46" Color="d8ffa1"
				Note Time="0" Value="E5" Duration="2" Instrument="DMC: drums + bass"
				Note Time="2" Value="B3" Duration="2" Instrument="DMC: drums + bass"
				Note Time="4" Value="E5" Duration="2" Instrument="DMC: drums + bass"
				Note Time="6" Value="B3" Duration="2" Instrument="DMC: drums + bass"
				Note Time="8" Value="E5" Duration="2" Instrument="DMC: drums + bass"
				Note Time="10" Value="A#3" Duration="2" Instrument="DMC: drums + bass"
				Note Time="12" Value="E5" Duration="2" Instrument="DMC: drums + bass"
				Note Time="14" Value="A#3" Duration="2" Instrument="DMC: drums + bass"
				Note Time="16" Value="E5" Duration="2" Instrument="DMC: drums + bass"
				Note Time="18" Value="G#3" Duration="2" Instrument="DMC: drums + bass"
				Note Time="20" Value="E5" Duration="2" Instrument="DMC: drums + bass"
				Note Time="22" Value="G#3" Duration="2" Instrument="DMC: drums + bass"
				Note Time="24" Value="E5" Duration="2" Instrument="DMC: drums + bass"
				Note Time="26" Value="F#3" Duration="2" Instrument="DMC: drums + bass"
				Note Time="28" Value="E5" Duration="2" Instrument="DMC: drums + bass"
				Note Time="30" Value="F#3" Duration="2" Instrument="DMC: drums + bass"
			Pattern Name="Pattern 47" Color="ff6464"
				Note Time="0" Value="E5" Duration="2" Instrument="DMC: drums + bass"
				Note Time="2" Value="E3" Duration="2" Instrument="DMC: drums + bass"
				Note Time="4" Value="E5" Duration="2" Instrument="DMC: drums + bass"
				Note Time="6" Value="E3" Duration="2" Instrument="DMC: drums + bass"
				Note Time="8" Value="E5" Duration="2" Instrument="DMC: drums + bass"
				Note Time="10" Value="F#3" Duration="2" Instrument="DMC: drums + bass"
				Note Time="12" Value="E5" Duration="2" Instrument="DMC: drums + bass"
				Note Time="14" Value="F#3" Duration="2" Instrument="DMC: drums + bass"
			Pattern Name="Pattern 45" Color="fffc69"
				Note Time="0" Value="E5" Duration="2" Instrument="DMC: drums + bass"
				Note Time="4" Value="E5" Duration="2" Instrument="DMC: drums + bass"
				Note Time="8" Value="E5" Duration="2" Instrument="DMC: drums + bass"
				Note Time="12" Value="E5" Duration="2" Instrument="DMC: drums + bass"
				Note Time="16" Value="E5" Duration="2" Instrument="DMC: drums + bass"
				Note Time="20" Value="E5" Duration="2" Instrument="DMC: drums + bass"
			PatternInstance Time="0" Pattern="1"
			PatternInstance Time="1" Pattern="2"
			PatternInstance Time="2" Pattern="1"
			PatternInstance Time="3" Pattern="3"
			PatternInstance Time="4" Pattern="4"
			PatternInstance Time="5" Pattern="4"
			PatternInstance Time="6" Pattern="5"
			PatternInstance Time="7" Pattern="6"
			PatternInstance Time="8" Pattern="7"
			PatternInstance Time="9" Pattern="8"
			PatternInstance Time="10" Pattern="9"
			PatternInstance Time="11" Pattern="4"
			PatternInstance Time="12" Pattern="4"
			PatternInstance Time="13" Pattern="10"
			PatternInstance Time="14" Pattern="11"
			PatternInstance Time="15" Pattern="11"
			PatternInstance Time="16" Pattern="11"
			PatternInstance Time="17" Pattern="11"
			PatternInstance Time="18" Pattern="13"
			PatternInstance Time="19" Pattern="13"
			PatternInstance Time="20" Pattern="13"
			PatternInstance Time="21" Pattern="12"
			PatternInstance Time="22" Pattern="14"
			PatternInstance Time="23" Pattern="15"
			PatternInstance Time="24" Pattern="Pattern 1"
			PatternInstance Time="25" Pattern="Pattern 1"
			PatternInstance Time="26" Pattern="Pattern 1"
			PatternInstance Time="27" Pattern="Pattern 2"
			PatternInstance Time="28" Pattern="Pattern 3"
			PatternInstance Time="29" Pattern="Pattern 4"
			PatternInstance Time="30" Pattern="Pattern 4"
			PatternInstance Time="31" Pattern="Pattern 5"
			PatternInstance Time="32" Pattern="Pattern 4"
			PatternInstance Time="33" Pattern="Pattern 4"
			PatternInstance Time="34" Pattern="Pattern 4"
			PatternInstance Time="35" Pattern="Pattern 4"
			PatternInstance Time="36" Pattern="Pattern 7"
			PatternInstance Time="37" Pattern="Pattern 7"
			PatternInstance Time="38" Pattern="Pattern 8"
			PatternInstance Time="41" Pattern="Pattern 9"
			PatternInstance Time="42" Pattern="Pattern 7"
			PatternInstance Time="43" Pattern="Pattern 10"
			PatternInstance Time="44" Pattern="Pattern 6"
			PatternInstance Time="45" Pattern="Pattern 6"
			PatternInstance Time="46" Pattern="Pattern 6"
			PatternInstance Time="47" Pattern="Pattern 11"
			PatternInstance Time="50" Pattern="Pattern 12"
			PatternInstance Time="51" Pattern="Pattern 13"
			PatternInstance Time="52" Pattern="Pattern 14"
			PatternInstance Time="53" Pattern="Pattern 39"
			PatternInstance Time="54" Pattern="Pattern 15"
			PatternInstance Time="55" Pattern="Pattern 41"
			PatternInstance Time="56" Pattern="Pattern 46"
			PatternInstance Time="57" Pattern="Pattern 46"
			PatternInstance Time="58" Pattern="Pattern 46"
			PatternInstance Time="59" Pattern="Pattern 46"
			PatternInstance Time="60" Pattern="Pattern 46"
			PatternInstance Time="61" Pattern="Pattern 46"
			PatternInstance Time="62" Pattern="Pattern 46"
			PatternInstance Time="63" Pattern="Pattern 47"
			PatternInstance Time="64" Pattern="Pattern 15"
			PatternInstance Time="65" Pattern="Pattern 45"
	Song Name="atthespeedoflight" Color="ff6464" Folder="Custom" Length="83" LoopPoint="-1" PatternLength="32" BeatLength="4" FamiTrackerTempo="162" FamiTrackerSpeed="6"
		PatternCustomSettings Time="17" Length="32"
		PatternCustomSettings Time="66" Length="32"
		Channel Type="Square1"
			Pattern Name="Pattern 29" Color="98a7fc"
				Note Time="0" Value="C5" Duration="1" Instrument="Instrument 3" Volume="8"
				Note Time="1" Value="G4" Duration="1" Instrument="Instrument 3"
				Note Time="2" Value="D#4" Duration="1" Instrument="Instrument 3"
				Note Time="3" Value="C4" Duration="1" Instrument="Instrument 3"
				Note Time="4" Value="G3" Duration="1" Instrument="Instrument 3"
				Note Time="5" Value="D#3" Duration="1" Instrument="Instrument 3"
				Note Time="6" Value="C3" Duration="1" Instrument="Instrument 3"
				Note Time="7" Value="G2" Duration="1" Instrument="Instrument 3"
				Note Time="8" Value="D#4" Duration="1" Instrument="Instrument 3"
				Note Time="9" Value="C4" Duration="1" Instrument="Instrument 3"
				Note Time="10" Value="G3" Duration="1" Instrument="Instrument 3"
				Note Time="11" Value="D#3" Duration="1" Instrument="Instrument 3"
				Note Time="12" Value="G4" Duration="1" Instrument="Instrument 3"
				Note Time="13" Value="D#4" Duration="1" Instrument="Instrument 3"
				Note Time="14" Value="C4" Duration="1" Instrument="Instrument 3"
				Note Time="15" Value="G3" Duration="1" Instrument="Instrument 3"
				Note Time="16" Value="C5" Duration="1" Instrument="Instrument 3" Volume="8"
				Note Time="17" Value="G#4" Duration="1" Instrument="Instrument 3"
				Note Time="18" Value="D#4" Duration="1" Instrument="Instrument 3"
				Note Time="19" Value="C4" Duration="1" Instrument="Instrument 3"
				Note Time="20" Value="G#3" Duration="1" Instrument="Instrument 3"
				Note Time="21" Value="D#3" Duration="1" Instrument="Instrument 3"
				Note Time="22" Value="C3" Duration="1" Instrument="Instrument 3"
				Note Time="23" Value="G2" Duration="1" Instrument="Instrument 3"
				Note Time="24" Value="D#4" Duration="1" Instrument="Instrument 3"
				Note Time="25" Value="C4" Duration="1" Instrument="Instrument 3"
				Note Time="26" Value="G#3" Duration="1" Instrument="Instrument 3"
				Note Time="27" Value="D#3" Duration="1" Instrument="Instrument 3"
				Note Time="28" Value="G#4" Duration="1" Instrument="Instrument 3"
				Note Time="29" Value="D#4" Duration="1" Instrument="Instrument 3"
				Note Time="30" Value="C4" Duration="1" Instrument="Instrument 3"
				Note Time="31" Value="G3" Duration="1" Instrument="Instrument 3"
			Pattern Name="Pattern 31" Color="51a1fc"
				Note Time="0" Value="C5" Duration="1" Instrument="Instrument 3" Volume="8"
				Note Time="1" Value="A4" Duration="1" Instrument="Instrument 3"
				Note Time="2" Value="E4" Duration="1" Instrument="Instrument 3"
				Note Time="3" Value="C4" Duration="1" Instrument="Instrument 3"
				Note Time="4" Value="A3" Duration="1" Instrument="Instrument 3"
				Note Time="5" Value="E3" Duration="1" Instrument="Instrument 3"
				Note Time="6" Value="C3" Duration="1" Instrument="Instrument 3"
				Note Time="7" Value="G2" Duration="1" Instrument="Instrument 3"
				Note Time="8" Value="E4" Duration="1" Instrument="Instrument 3"
				Note Time="9" Value="C4" Duration="1" Instrument="Instrument 3"
				Note Time="10" Value="A3" Duration="1" Instrument="Instrument 3"
				Note Time="11" Value="E3" Duration="1" Instrument="Instrument 3"
				Note Time="12" Value="A4" Duration="1" Instrument="Instrument 3"
				Note Time="13" Value="E4" Duration="1" Instrument="Instrument 3"
				Note Time="14" Value="C4" Duration="1" Instrument="Instrument 3"
				Note Time="15" Value="G3" Duration="1" Instrument="Instrument 3"
				Note Time="16" Value="C5" Duration="1" Instrument="Instrument 3" Volume="8"
				Note Time="17" Value="G#4" Duration="1" Instrument="Instrument 3"
				Note Time="18" Value="D#4" Duration="1" Instrument="Instrument 3"
				Note Time="19" Value="C4" Duration="1" Instrument="Instrument 3"
				Note Time="20" Value="G#3" Duration="1" Instrument="Instrument 3"
				Note Time="21" Value="D#3" Duration="1" Instrument="Instrument 3"
				Note Time="22" Value="C3" Duration="1" Instrument="Instrument 3"
				Note Time="23" Value="G2" Duration="1" Instrument="Instrument 3"
				Note Time="24" Value="D#4" Duration="1" Instrument="Instrument 3"
				Note Time="25" Value="C4" Duration="1" Instrument="Instrument 3"
				Note Time="26" Value="G#3" Duration="1" Instrument="Instrument 3"
				Note Time="27" Value="D#3" Duration="1" Instrument="Instrument 3"
				Note Time="28" Value="G#4" Duration="1" Instrument="Instrument 3"
				Note Time="29" Value="D#4" Duration="1" Instrument="Instrument 3"
				Note Time="30" Value="C4" Duration="1" Instrument="Instrument 3"
				Note Time="31" Value="G3" Duration="1" Instrument="Instrument 3"
			Pattern Name="Pattern 32" Color="ebf067"
				Note Time="0" Value="C4" Duration="1" Instrument="echo" Volume="15" FinePitch="0"
				Note Time="1" Value="G3" Duration="1" Instrument="echo"
				Note Time="2" Value="C4" Duration="1" Instrument="echo"
				Note Time="3" Value="D#4" Duration="1" Instrument="echo"
				Note Time="4" Value="D4" Duration="1" Instrument="echo"
				Note Time="5" Value="G3" Duration="1" Instrument="echo"
				Note Time="6" Value="D4" Duration="1" Instrument="echo"
				Note Time="7" Value="F4" Duration="1" Instrument="echo"
				Note Time="8" Value="D#4" Duration="1" Instrument="echo"
				Note Time="9" Value="C4" Duration="1" Instrument="echo"
				Note Time="10" Value="D#4" Duration="1" Instrument="echo"
				Note Time="11" Value="G4" Duration="1" Instrument="echo"
				Note Time="12" Value="F4" Duration="1" Instrument="echo"
				Note Time="13" Value="D4" Duration="1" Instrument="echo"
				Note Time="14" Value="D#4" Duration="1" Instrument="echo"
				Note Time="15" Value="D4" Duration="1" Instrument="echo"
				Note Time="16" Value="B3" Duration="1" Instrument="echo"
				Note Time="17" Value="G3" Duration="1" Instrument="echo"
				Note Time="18" Value="B3" Duration="1" Instrument="echo"
				Note Time="19" Value="D4" Duration="1" Instrument="echo"
				Note Time="20" Value="F4" Duration="1" Instrument="echo"
				Note Time="21" Value="D4" Duration="1" Instrument="echo"
				Note Time="22" Value="F4" Duration="1" Instrument="echo"
				Note Time="23" Value="G4" Duration="1" Instrument="echo"
				Note Time="24" Value="B4" Duration="4" Instrument="echo"
			Pattern Name="Pattern 16" Color="fffc69"
				Note Time="0" Volume="11" FinePitch="-1"
				Note Time="1" Value="C4" Duration="1" Instrument="echo" DutyCycle="1"
				Note Time="2" Value="G3" Duration="1" Instrument="echo"
				Note Time="3" Value="D#3" Duration="1" Instrument="echo"
				Note Time="4" Value="C3" Duration="1" Instrument="echo"
				Note Time="5" Value="G3" Duration="1" Instrument="echo"
				Note Time="6" Value="D#3" Duration="1" Instrument="echo"
				Note Time="7" Value="C3" Duration="1" Instrument="echo"
				Note Time="8" Value="G2" Duration="1" Instrument="echo"
				Note Time="9" Value="D#3" Duration="2" Instrument="echo"
				Note Time="11" Value="C3" Duration="1" Instrument="echo"
				Note Time="12" Value="D#3" Duration="1" Instrument="echo"
				Note Time="13" Value="G2" Duration="1" Instrument="echo"
				Note Time="14" Value="C3" Duration="1" Instrument="echo"
				Note Time="15" Value="D#3" Duration="2" Instrument="echo"
				Note Time="17" Value="A#3" Duration="1" Instrument="echo"
				Note Time="18" Value="G3" Duration="1" Instrument="echo"
				Note Time="19" Value="D#3" Duration="1" Instrument="echo"
				Note Time="20" Value="A#2" Duration="1" Instrument="echo"
				Note Time="21" Value="G#3" Duration="1" Instrument="echo"
				Note Time="22" Value="D#3" Duration="1" Instrument="echo"
				Note Time="23" Value="A#2" Duration="2" Instrument="echo"
				Note Time="25" Value="D#2" Duration="1" Instrument="echo"
				Note Time="26" Value="F2" Duration="1" Instrument="echo"
				Note Time="27" Value="G#2" Duration="1" Instrument="echo"
				Note Time="28" Value="C3" Duration="1" Instrument="echo"
				Note Time="29" Value="F2" Duration="1" Instrument="echo"
				Note Time="30" Value="G#2" Duration="1" Instrument="echo"
				Note Time="31" Value="C3" Duration="1" Instrument="echo"
			Pattern Name="Pattern 17" Color="b5c2ff"
				Note Time="0" Value="F3" Duration="3" Instrument="echo"
				Note Time="3" Value="C3" Duration="1" Instrument="echo"
				Note Time="4" Value="D#3" Duration="1" Instrument="echo"
				Note Time="5" Value="G2" Duration="1" Instrument="echo"
				Note Time="6" Value="C3" Duration="1" Instrument="echo"
				Note Time="7" Value="F3" Duration="1" Instrument="echo"
				Note Time="8" Value="G2" Duration="1" Instrument="echo"
				Note Time="9" Value="C3" Duration="1" Instrument="echo"
				Note Time="10" Value="D3" Duration="1" Instrument="echo"
				Note Time="11" Value="G2" Duration="1" Instrument="echo"
				Note Time="12" Value="C3" Duration="1" Instrument="echo"
				Note Time="13" Value="D#3" Duration="1" Instrument="echo"
				Note Time="14" Value="D3" Duration="1" Instrument="echo"
				Note Time="15" Value="C3" Duration="1" Instrument="echo"
				Note Time="16" Value="G2" Duration="1" Instrument="echo"
				Note Time="17" Value="G3" Duration="2" Instrument="echo"
				Note Time="19" Value="C3" Duration="1" Instrument="echo"
				Note Time="20" Value="D#3" Duration="1" Instrument="echo"
				Note Time="21" Value="G2" Duration="1" Instrument="echo"
				Note Time="22" Value="C3" Duration="1" Instrument="echo"
				Note Time="23" Value="F3" Duration="1" Instrument="echo"
				Note Time="24" Value="G2" Duration="1" Instrument="echo"
				Note Time="25" Value="C3" Duration="1" Instrument="echo"
				Note Time="26" Value="D3" Duration="1" Instrument="echo"
				Note Time="27" Value="G2" Duration="1" Instrument="echo"
				Note Time="28" Value="D3" Duration="1" Instrument="echo"
				Note Time="29" Value="D#3" Duration="1" Instrument="echo"
				Note Time="30" Value="D3" Duration="1" Instrument="echo"
				Note Time="31" Value="D#3" Duration="1" Instrument="echo"
			Pattern Name="Pattern 18" Color="ff8f8c"
				Note Time="0" Value="F3" Duration="1" Instrument="echo"
				Note Time="1" Value="D#4" Duration="1" Instrument="echo"
				Note Time="2" Value="C4" Duration="1" Instrument="echo"
				Note Time="3" Value="G#3" Duration="1" Instrument="echo"
				Note Time="4" Value="D#3" Duration="1" Instrument="echo"
				Note Time="5" Value="C4" Duration="1" Instrument="echo"
				Note Time="6" Value="G#3" Duration="1" Instrument="echo"
				Note Time="7" Value="D#3" Duration="1" Instrument="echo"
				Note Time="8" Value="C3" Duration="1" Instrument="echo"
				Note Time="9" Value="G#2" Duration="1" Instrument="echo"
				Note Time="10" Value="C3" Duration="1" Instrument="echo"
				Note Time="11" Value="D#3" Duration="1" Instrument="echo"
				Note Time="12" Value="G#3" Duration="1" Instrument="echo"
				Note Time="13" Value="D#3" Duration="1" Instrument="echo"
				Note Time="14" Value="G#3" Duration="1" Instrument="echo"
				Note Time="15" Value="D#4" Duration="1" Instrument="echo"
				Note Time="16" Value="F4" Duration="1" Instrument="echo"
				Note Time="17" Value="G#4" Duration="1" Instrument="echo"
				Note Time="18" Value="F4" Duration="1" Instrument="echo"
				Note Time="19" Value="C4" Duration="1" Instrument="echo"
				Note Time="20" Value="G#3" Duration="1" Instrument="echo"
				Note Time="21" Value="F4" Duration="1" Instrument="echo"
				Note Time="22" Value="C4" Duration="1" Instrument="echo"
				Note Time="23" Value="G#3" Duration="1" Instrument="echo"
				Note Time="24" Value="F3" Duration="1" Instrument="echo"
				Note Time="25" Value="C3" Duration="1" Instrument="echo"
				Note Time="26" Value="F3" Duration="1" Instrument="echo"
				Note Time="27" Value="G#3" Duration="1" Instrument="echo"
				Note Time="28" Value="C4" Duration="1" Instrument="echo"
				Note Time="29" Value="F3" Duration="1" Instrument="echo"
				Note Time="30" Value="G#3" Duration="1" Instrument="echo"
				Note Time="31" Value="C4" Duration="1" Instrument="echo"
			Pattern Name="Pattern 19" Color="3ce8fd"
				Note Time="2" Value="G2" Duration="1" Instrument="echo"
				Note Time="3" Value="G3" Duration="1" Instrument="echo"
				Note Time="4" Value="D4" Duration="1" Instrument="echo"
				Note Time="5" Value="C3" Duration="1" Instrument="echo"
				Note Time="6" Value="G3" Duration="1" Instrument="echo"
				Note Time="7" Value="C4" Duration="1" Instrument="echo"
				Note Time="8" Value="C3" Duration="1" Instrument="echo"
				Note Time="9" Value="G3" Duration="1" Instrument="echo"
				Note Time="10" Value="D#4" Duration="1" Instrument="echo"
				Note Time="11" Value="C3" Duration="1" Instrument="echo"
				Note Time="12" Value="G3" Duration="1" Instrument="echo"
				Note Time="13" Value="D4" Duration="1" Instrument="echo"
				Note Time="14" Value="D#4" Duration="1" Instrument="echo"
				Note Time="15" Value="D4" Duration="1" Instrument="echo"
				Note Time="16" Value="A#3" Duration="1" Instrument="echo"
				Note Time="17" Value="C4" Duration="1" Instrument="echo"
				Note Time="18" Value="C3" Duration="1" Instrument="echo"
				Note Time="19" Value="A#3" Duration="1" Instrument="echo"
				Note Time="20" Value="C4" Duration="1" Instrument="echo"
				Note Time="21" Value="C3" Duration="1" Instrument="echo"
				Note Time="22" Value="D#3" Duration="1" Instrument="echo"
				Note Time="23" Value="G3" Duration="1" Instrument="echo"
				Note Time="24" Value="D#3" Duration="1" Instrument="echo"
				Note Time="25" Value="F3" Duration="1" Instrument="echo"
				Note Time="26" Value="D#3" Duration="1" Instrument="echo"
				Note Time="27" Value="F3" Duration="1" Instrument="echo"
				Note Time="28" Value="G3" Duration="1" Instrument="echo"
				Note Time="29" Value="G#3" Duration="1" Instrument="echo"
				Note Time="30" Value="G3" Duration="1" Instrument="echo"
				Note Time="31" Value="G#3" Duration="1" Instrument="echo"
			Pattern Name="Pattern 20" Color="5dd2ff"
				Note Time="1" Value="G4" Duration="1" Instrument="echo"
				Note Time="2" Value="G#4" Duration="1" Instrument="echo"
				Note Time="3" Value="F#4" Duration="1" Instrument="echo"
				Note Time="4" Value="F4" Duration="1" Instrument="echo"
				Note Time="5" Value="D#4" Duration="1" Instrument="echo"
				Note Time="6" Value="F4" Duration="1" Instrument="echo"
				Note Time="7" Value="D#4" Duration="1" Instrument="echo"
				Note Time="8" Value="D4" Duration="1" Instrument="echo"
				Note Time="9" Value="A#3" Duration="1" Instrument="echo"
				Note Time="10" Value="D#4" Duration="1" Instrument="echo"
				Note Time="11" Value="G4" Duration="1" Instrument="echo"
				Note Time="12" Value="A#4" Duration="1" Instrument="echo"
				Note Time="13" Value="G4" Duration="1" Instrument="echo"
				Note Time="14" Value="D#4" Duration="1" Instrument="echo"
				Note Time="15" Value="D4" Duration="1" Instrument="echo"
				Note Time="16" Value="D#4" Duration="1" Instrument="echo"
				Note Time="17" Value="D4" Duration="1" Instrument="echo"
				Note Time="18" Value="F4" Duration="1" Instrument="echo"
				Note Time="19" Value="D4" Duration="1" Instrument="echo"
				Note Time="20" Value="B3" Duration="1" Instrument="echo"
				Note Time="21" Value="G3" Duration="1" Instrument="echo"
				Note Time="22" Value="B3" Duration="1" Instrument="echo"
				Note Time="23" Value="G3" Duration="1" Instrument="echo"
				Note Time="24" Value="D3" Duration="1" Instrument="echo"
				Note Time="25" Value="B2" Duration="1" Instrument="echo"
				Note Time="26" Value="D3" Duration="1" Instrument="echo"
				Note Time="27" Value="G3" Duration="1" Instrument="echo"
				Note Time="28" Value="B3" Duration="1" Instrument="echo"
				Note Time="29" Value="G3" Duration="1" Instrument="echo"
				Note Time="30" Value="D4" Duration="1" Instrument="echo"
				Note Time="31" Value="G4" Duration="1" Instrument="echo"
			Pattern Name="Pattern 21" Color="ffc83c"
				Note Time="0" Value="C5" Duration="12" Instrument="jaezu lead" FinePitch="0"
				Note Time="12" Value="D#4" Duration="6" Instrument="blank string"
				Note Time="18" Value="G4" Duration="6" Instrument="blank string"
				Note Time="24" Value="C5" Duration="2" Instrument="blank string"
				Note Time="26" Value="G4" Duration="2" Instrument="blank string"
				Note Time="28" Value="C5" Duration="2" Instrument="blank string"
				Note Time="30" Value="D5" Duration="2" Instrument="blank string"
			Pattern Name="Pattern 22" Color="a4db74"
				Note Time="0" Value="D#5" Duration="2" Instrument="blank string" FinePitch="0"
				Note Time="2" Value="D5" Duration="2" Instrument="blank string"
				Note Time="4" Value="A#4" Duration="2" Instrument="blank string"
				Note Time="6" Value="F4" Duration="2" Instrument="blank string"
				Note Time="8" Value="D#4" Duration="2" Instrument="blank string"
				Note Time="10" Value="D4" Duration="2" Instrument="blank string"
				Note Time="12" Value="A#3" Duration="2" Instrument="blank string"
				Note Time="14" Value="F3" Duration="4" Instrument="jaezu lead"
				Note Time="18" Value="A#3" Duration="2" Instrument="blank string"
				Note Time="20" Value="G4" Duration="2" Instrument="blank string"
				Note Time="22" Value="D#4" Duration="2" Instrument="blank string"
				Note Time="24" Value="D4" Duration="2" Instrument="blank string"
				Note Time="26" Value="D#4" Duration="2" Instrument="blank string"
				Note Time="28" Value="A#4" Duration="1" Instrument="blank string"
				Note Time="29" Value="C5" Duration="1" Instrument="blank string"
				Note Time="30" Value="A#4" Duration="2" Instrument="blank string"
			Pattern Name="Pattern 23" Color="ffc6a1"
				Note Time="0" Value="D#4" Duration="2" Instrument="blank string"
				Note Time="2" Value="G3" Duration="2" Instrument="blank string"
				Note Time="4" Value="C4" Duration="2" Instrument="blank string"
				Note Time="6" Value="D4" Duration="2" Instrument="blank string"
				Note Time="8" Value="G3" Duration="2" Instrument="blank string"
				Note Time="10" Value="C4" Duration="2" Instrument="blank string"
				Note Time="12" Value="D#4" Duration="2" Instrument="blank string"
				Note Time="14" Value="G3" Duration="2" Instrument="blank string"
				Note Time="16" Value="C4" Duration="2" Instrument="blank string"
				Note Time="18" Value="G4" Duration="2" Instrument="blank string"
				Note Time="20" Value="C4" Duration="2" Instrument="blank string"
				Note Time="22" Value="D#4" Duration="2" Instrument="blank string"
				Note Time="24" Value="C5" Duration="2" Instrument="blank string"
				Note Time="26" Value="D#4" Duration="2" Instrument="blank string"
				Note Time="28" Value="C5" Duration="2" Instrument="blank string"
				Note Time="30" Value="D5" Duration="2" Instrument="blank string"
			Pattern Name="Pattern 26" Color="3cc5b7"
				Note Time="0" Value="D#5" Duration="2" Instrument="blank string"
				Note Time="2" Value="D#4" Duration="2" Instrument="blank string"
				Note Time="4" Value="C5" Duration="2" Instrument="blank string"
				Note Time="6" Value="G5" Duration="4" Instrument="jaezu lead"
				Note Time="10" Value="F5" Duration="4" Instrument="jaezu lead"
				Note Time="14" Value="D5" Duration="4" Instrument="jaezu lead"
				Note Time="18" Value="F4" Duration="2" Instrument="blank string"
				Note Time="20" Value="C5" Duration="2" Instrument="blank string"
				Note Time="22" Value="D5" Duration="2" Instrument="blank string"
				Note Time="24" Value="D#5" Duration="4" Instrument="blank string"
				Note Time="28" Value="D5" Duration="4" Instrument="blank string"
			Pattern Name="Pattern 25" Color="8d69e4"
				Note Time="0" Value="C5" Duration="12" Release="8" Instrument="jaezu lead"
				Note Time="6" Value="C3" Duration="6" Instrument="blank"
				Note Time="12" Value="D#3" Duration="6" Instrument="blank"
				Note Time="18" Value="G3" Duration="6" Instrument="blank"
				Note Time="24" Value="C4" Duration="4" Instrument="blank"
				Note Time="28" Value="D4" Duration="4" Instrument="blank"
			Pattern Name="Pattern 33" Color="5dd2ff"
				Note Time="0" Value="D#4" Duration="6" Instrument="blank"
				Note Time="6" Value="D4" Duration="6" Instrument="blank"
				Note Time="12" Value="A#3" Duration="6" Instrument="blank"
				Note Time="18" Value="F3" Duration="6" Instrument="blank"
				Note Time="24" Value="D#3" Duration="4" Instrument="blank"
				Note Time="28" Value="D3" Duration="4" Instrument="blank"
			Pattern Name="Pattern 34" Color="3eb3f9"
				Note Time="0" Value="D#3" Duration="6" Instrument="blank"
				Note Time="6" Value="C3" Duration="6" Instrument="blank"
				Note Time="12" Value="D#3" Duration="6" Instrument="blank"
				Note Time="18" Value="G3" Duration="6" Instrument="blank"
				Note Time="24" Value="C4" Duration="4" Instrument="blank"
				Note Time="28" Value="D4" Duration="4" Instrument="blank"
			Pattern Name="Pattern 35" Color="3cf8ff"
				Note Time="0" Value="D#4" Duration="6" Instrument="blank"
				Note Time="6" Value="G4" Duration="6" Instrument="blank"
				Note Time="12" Value="F4" Duration="6" Instrument="blank"
				Note Time="18" Value="D4" Duration="6" Instrument="blank"
				Note Time="24" Value="G#4" Duration="4" Instrument="blank"
				Note Time="28" Value="G4" Duration="4" Instrument="blank"
			Pattern Name="Pattern 36" Color="65f2ff"
				Note Time="0" Value="G3" Duration="1" Instrument="Instrument 3"
				Note Time="1" Value="D#3" Duration="1" Instrument="Instrument 3"
				Note Time="2" Value="C3" Duration="1" Instrument="Instrument 3"
				Note Time="3" Value="A#3" Duration="1" Instrument="Instrument 3"
				Note Time="4" Value="G3" Duration="1" Instrument="Instrument 3"
				Note Time="5" Value="D#3" Duration="1" Instrument="Instrument 3"
				Note Time="6" Value="G#3" Duration="1" Instrument="Instrument 3"
				Note Time="7" Value="D#3" Duration="1" Instrument="Instrument 3"
				Note Time="8" Value="C3" Duration="1" Instrument="Instrument 3"
				Note Time="9" Value="C4" Duration="1" Instrument="Instrument 3"
				Note Time="10" Value="G3" Duration="1" Instrument="Instrument 3"
				Note Time="11" Value="D#3" Duration="1" Instrument="Instrument 3"
				Note Time="12" Value="A#3" Duration="1" Instrument="Instrument 3"
				Note Time="13" Value="G3" Duration="1" Instrument="Instrument 3"
				Note Time="14" Value="D#4" Duration="1" Instrument="Instrument 3"
				Note Time="15" Value="G3" Duration="1" Instrument="Instrument 3"
				Note Time="16" Value="D4" Duration="1" Instrument="Instrument 3" Volume="11"
				Note Time="17" Value="D#4" Duration="1" Instrument="Instrument 3"
				Note Time="18" Value="D4" Duration="1" Instrument="Instrument 3"
				Note Time="19" Value="A#3" Duration="1" Instrument="Instrument 3"
				Note Time="20" Value="F3" Duration="1" Instrument="Instrument 3"
				Note Time="21" Value="A#3" Duration="1" Instrument="Instrument 3"
				Note Time="22" Value="G#3" Duration="1" Instrument="Instrument 3" Volume="8"
				Note Time="23" Value="G3" Duration="1" Instrument="Instrument 3"
				Note Time="24" Value="F3" Duration="1" Instrument="Instrument 3"
				Note Time="25" Value="G3" Duration="1" Instrument="Instrument 3"
				Note Time="26" Value="F3" Duration="1" Instrument="Instrument 3"
				Note Time="27" Value="D#3" Duration="1" Instrument="Instrument 3" Volume="5"
				Note Time="28" Value="D3" Duration="1" Instrument="Instrument 3"
				Note Time="29" Value="D#3" Duration="1" Instrument="Instrument 3"
				Note Time="30" Value="D3" Duration="1" Instrument="Instrument 3"
				Note Time="31" Value="A#2" Duration="1" Instrument="Instrument 3"
			Pattern Name="Pattern 37" Color="3cd3e3"
				Note Time="0" Value="A#1" Duration="1" Instrument="Instrument 3"
				Note Time="1" Value="D#2" Duration="1" Instrument="Instrument 3"
				Note Time="2" Value="G2" Duration="1" Instrument="Instrument 3"
				Note Time="3" Value="A#2" Duration="1" Instrument="Instrument 3"
				Note Time="4" Value="D#2" Duration="1" Instrument="Instrument 3"
				Note Time="5" Value="G2" Duration="1" Instrument="Instrument 3"
				Note Time="6" Value="A#2" Duration="1" Instrument="Instrument 3"
				Note Time="7" Value="D#3" Duration="1" Instrument="Instrument 3"
				Note Time="8" Value="G2" Duration="1" Instrument="Instrument 3"
				Note Time="9" Value="A#2" Duration="1" Instrument="Instrument 3"
				Note Time="10" Value="D#3" Duration="1" Instrument="Instrument 3"
				Note Time="11" Value="G3" Duration="1" Instrument="Instrument 3"
				Note Time="12" Value="C3" Duration="1" Instrument="Instrument 3"
				Note Time="13" Value="D3" Duration="1" Instrument="Instrument 3"
				Note Time="14" Value="F3" Duration="1" Instrument="Instrument 3"
				Note Time="15" Value="A#3" Duration="1" Instrument="Instrument 3"
				Note Time="16" Value="D3" Duration="1" Instrument="Instrument 3" Volume="11"
				Note Time="17" Value="F3" Duration="1" Instrument="Instrument 3"
				Note Time="18" Value="A#3" Duration="1" Instrument="Instrument 3"
				Note Time="19" Value="C4" Duration="1" Instrument="Instrument 3"
				Note Time="20" Value="F3" Duration="1" Instrument="Instrument 3"
				Note Time="21" Value="A#3" Duration="1" Instrument="Instrument 3"
				Note Time="22" Value="C4" Duration="1" Instrument="Instrument 3" Volume="8"
				Note Time="23" Value="D4" Duration="1" Instrument="Instrument 3"
				Note Time="24" Value="F4" Duration="1" Instrument="Instrument 3"
				Note Time="25" Value="D#4" Duration="1" Instrument="Instrument 3"
				Note Time="26" Value="D4" Duration="1" Instrument="Instrument 3"
				Note Time="27" Value="C4" Duration="1" Instrument="Instrument 3" Volume="5"
				Note Time="28" Value="A#3" Duration="1" Instrument="Instrument 3"
				Note Time="29" Value="C4" Duration="1" Instrument="Instrument 3"
				Note Time="30" Value="D4" Duration="1" Instrument="Instrument 3"
				Note Time="31" Value="F4" Duration="1" Instrument="Instrument 3"
			Pattern Name="Pattern 38" Color="74ca78"
				Note Time="0" Value="D#4" Duration="1" Instrument="Instrument 3"
				Note Time="1" Value="F4" Duration="1" Instrument="Instrument 3"
				Note Time="2" Value="D#4" Duration="1" Instrument="Instrument 3"
				Note Time="3" Value="C4" Duration="1" Instrument="Instrument 3"
				Note Time="4" Value="G3" Duration="1" Instrument="Instrument 3"
				Note Time="5" Value="C4" Duration="1" Instrument="Instrument 3"
				Note Time="6" Value="D4" Duration="1" Instrument="Instrument 3"
				Note Time="7" Value="D#4" Duration="1" Instrument="Instrument 3"
				Note Time="8" Value="D4" Duration="1" Instrument="Instrument 3"
				Note Time="9" Value="A#3" Duration="1" Instrument="Instrument 3"
				Note Time="10" Value="F3" Duration="1" Instrument="Instrument 3"
				Note Time="11" Value="A#3" Duration="1" Instrument="Instrument 3"
				Note Time="12" Value="C4" Duration="1" Instrument="Instrument 3"
				Note Time="13" Value="D4" Duration="1" Instrument="Instrument 3"
				Note Time="14" Value="C4" Duration="1" Instrument="Instrument 3"
				Note Time="15" Value="G#3" Duration="1" Instrument="Instrument 3"
				Note Time="16" Value="D#3" Duration="1" Instrument="Instrument 3" Volume="11"
				Note Time="17" Value="G#3" Duration="1" Instrument="Instrument 3"
				Note Time="18" Value="A#3" Duration="1" Instrument="Instrument 3"
				Note Time="19" Value="C4" Duration="1" Instrument="Instrument 3"
				Note Time="20" Value="A#3" Duration="1" Instrument="Instrument 3"
				Note Time="21" Value="G3" Duration="1" Instrument="Instrument 3"
				Note Time="22" Value="D#3" Duration="1" Instrument="Instrument 3" Volume="8"
				Note Time="23" Value="G3" Duration="1" Instrument="Instrument 3"
				Note Time="24" Value="G#3" Duration="1" Instrument="Instrument 3"
				Note Time="25" Value="G3" Duration="1" Instrument="Instrument 3"
				Note Time="26" Value="F3" Duration="1" Instrument="Instrument 3"
				Note Time="27" Value="D#3" Duration="1" Instrument="Instrument 3" Volume="5"
				Note Time="28" Value="G3" Duration="1" Instrument="Instrument 3"
				Note Time="29" Value="F3" Duration="1" Instrument="Instrument 3"
				Note Time="30" Value="D#3" Duration="1" Instrument="Instrument 3"
				Note Time="31" Value="D3" Duration="1" Instrument="Instrument 3"
			Pattern Name="Pattern 39" Color="ebf067"
				Note Time="0" Value="D#3" Duration="3" Instrument="Instrument 3"
				Note Time="3" Value="C4" Duration="3" Instrument="Instrument 3"
				Note Time="6" Value="D#3" Duration="3" Instrument="Instrument 3"
				Note Time="9" Value="C4" Duration="3" Instrument="Instrument 3"
				Note Time="12" Value="F3" Duration="3" Instrument="Instrument 3"
				Note Time="15" Value="D4" Duration="3" Instrument="Instrument 3"
				Note Time="18" Value="D#4" Duration="3" Instrument="Instrument 3"
				Note Time="21" Value="F4" Duration="3" Instrument="Instrument 3"
				Note Time="24" Value="D3" Duration="1" Instrument="Instrument 3"
				Note Time="25" Value="F3" Duration="1" Instrument="Instrument 3"
				Note Time="26" Value="A#3" Duration="1" Instrument="Instrument 3"
				Note Time="27" Value="D4" Duration="1" Instrument="Instrument 3"
				Note Time="28" Value="A#3" Duration="1" Instrument="Instrument 3"
				Note Time="29" Value="D4" Duration="1" Instrument="Instrument 3"
				Note Time="30" Value="F4" Duration="1" Instrument="Instrument 3"
				Note Time="31" Value="A#4" Duration="1" Instrument="Instrument 3"
			Pattern Name="1" Color="ff7f72"
				Note Time="0" Value="C2" Duration="32" Instrument="octave arp"
			Pattern Name="2" Color="e95093"
				Note Time="0" Value="C2" Duration="16" Instrument="octave arp"
				Note Time="16" Value="A#1" Duration="16" Instrument="octave arp"
			Pattern Name="00" Color="74ca78"
				Note Time="0" Value="C2" Duration="24" Instrument="octave arp"
				Note Time="24" Value="G#1" Duration="4" Instrument="octave arp"
				Note Time="28" Value="A#1" Duration="4" Instrument="octave arp"
			Pattern Name="01" Color="51a1fc"
				Note Time="0" Value="C2" Duration="16" Instrument="octave arp"
				Note Time="16" Value="A#1" Duration="16" Instrument="octave arp"
			Pattern Name="Pattern 1" Color="f6a4ff"
				Note Time="0" Value="C5" Duration="1" Instrument="Instrument 3" Volume="8"
				Note Time="1" Value="G#4" Duration="1" Instrument="Instrument 3"
				Note Time="2" Value="F4" Duration="1" Instrument="Instrument 3"
				Note Time="3" Value="C4" Duration="1" Instrument="Instrument 3"
				Note Time="4" Value="F3" Duration="1" Instrument="Instrument 3"
				Note Time="5" Value="G3" Duration="1" Instrument="Instrument 3"
				Note Time="6" Value="G#3" Duration="1" Instrument="Instrument 3"
				Note Time="7" Value="C4" Duration="1" Instrument="Instrument 3"
				Note Time="8" Value="C5" Duration="1" Instrument="Instrument 3"
				Note Time="9" Value="G#4" Duration="1" Instrument="Instrument 3"
				Note Time="10" Value="F4" Duration="1" Instrument="Instrument 3"
				Note Time="11" Value="C4" Duration="1" Instrument="Instrument 3"
				Note Time="12" Value="F3" Duration="1" Instrument="Instrument 3"
				Note Time="13" Value="G3" Duration="1" Instrument="Instrument 3"
				Note Time="14" Value="G#3" Duration="1" Instrument="Instrument 3"
				Note Time="15" Value="C4" Duration="1" Instrument="Instrument 3"
				Note Time="16" Value="F3" Duration="1" Instrument="Instrument 3"
				Note Time="17" Value="G3" Duration="1" Instrument="Instrument 3"
				Note Time="18" Value="G#3" Duration="1" Instrument="Instrument 3"
				Note Time="19" Value="C4" Duration="1" Instrument="Instrument 3"
				Note Time="20" Value="G3" Duration="1" Instrument="Instrument 3"
				Note Time="21" Value="G#3" Duration="1" Instrument="Instrument 3"
				Note Time="22" Value="C4" Duration="1" Instrument="Instrument 3"
				Note Time="23" Value="F4" Duration="1" Instrument="Instrument 3"
				Note Time="24" Value="G#3" Duration="1" Instrument="Instrument 3"
				Note Time="25" Value="C4" Duration="1" Instrument="Instrument 3"
				Note Time="26" Value="F4" Duration="1" Instrument="Instrument 3"
				Note Time="27" Value="G#4" Duration="1" Instrument="Instrument 3"
				Note Time="28" Value="C4" Duration="1" Instrument="Instrument 3"
				Note Time="29" Value="F4" Duration="1" Instrument="Instrument 3"
				Note Time="30" Value="G#4" Duration="1" Instrument="Instrument 3"
				Note Time="31" Value="A#4" Duration="1" Instrument="Instrument 3"
			Pattern Name="Pattern 2" Color="a9887d"
				Note Time="0" Value="C5" Duration="1" Instrument="Instrument 3"
				Note Time="1" Value="G#4" Duration="1" Instrument="Instrument 3"
				Note Time="2" Value="F4" Duration="1" Instrument="Instrument 3"
				Note Time="3" Value="G#4" Duration="1" Instrument="Instrument 3"
				Note Time="4" Value="C#4" Duration="1" Instrument="Instrument 3"
				Note Time="5" Value="F4" Duration="1" Instrument="Instrument 3"
				Note Time="6" Value="G#3" Duration="1" Instrument="Instrument 3"
				Note Time="7" Value="C#4" Duration="1" Instrument="Instrument 3"
				Note Time="8" Value="F3" Duration="1" Instrument="Instrument 3"
				Note Time="9" Value="G#2" Duration="1" Instrument="Instrument 3"
				Note Time="10" Value="C#3" Duration="1" Instrument="Instrument 3"
				Note Time="11" Value="F3" Duration="1" Instrument="Instrument 3"
				Note Time="12" Value="G#2" Duration="1" Instrument="Instrument 3"
				Note Time="13" Value="C#3" Duration="1" Instrument="Instrument 3"
				Note Time="14" Value="F3" Duration="1" Instrument="Instrument 3"
				Note Time="15" Value="G3" Duration="1" Instrument="Instrument 3"
				Note Time="16" Value="G#4" Duration="1" Instrument="Instrument 3"
				Note Time="17" Value="G4" Duration="1" Instrument="Instrument 3"
				Note Time="18" Value="F4" Duration="1" Instrument="Instrument 3"
				Note Time="19" Value="C#4" Duration="1" Instrument="Instrument 3"
				Note Time="20" Value="F4" Duration="1" Instrument="Instrument 3"
				Note Time="21" Value="G4" Duration="1" Instrument="Instrument 3"
				Note Time="22" Value="G#4" Duration="1" Instrument="Instrument 3"
				Note Time="23" Value="C#5" Duration="1" Instrument="Instrument 3"
				Note Time="24" Value="F5" Duration="1" Instrument="Instrument 3"
				Note Time="25" Value="D#5" Duration="1" Instrument="Instrument 3"
				Note Time="26" Value="C#5" Duration="1" Instrument="Instrument 3"
				Note Time="27" Value="G#4" Duration="1" Instrument="Instrument 3"
				Note Time="28" Value="C#5" Duration="1" Instrument="Instrument 3"
				Note Time="29" Value="D#5" Duration="1" Instrument="Instrument 3"
				Note Time="30" Value="F5" Duration="1" Instrument="Instrument 3"
				Note Time="31" Value="G#5" Duration="1" Instrument="Instrument 3"
			Pattern Name="Pattern 3" Color="997c73"
				Note Time="0" Value="G4" Duration="1" Instrument="polargeist bass" Volume="8"
				Note Time="1" Value="G4" Duration="1" Instrument="hex guitar 2"
				Note Time="6" Value="G#4" Duration="1" Instrument="polargeist bass"
				Note Time="7" Value="G#4" Duration="1" Instrument="hex guitar 2"
				Note Time="12" Value="G4" Duration="1" Instrument="polargeist bass"
				Note Time="13" Value="G4" Duration="1" Instrument="hex guitar 2"
				Note Time="18" Value="A#4" Duration="1" Instrument="polargeist bass"
				Note Time="19" Value="A#4" Duration="1" Instrument="hex guitar 2"
				Note Time="24" Value="G#4" Duration="1" Instrument="polargeist bass"
				Note Time="25" Value="G#4" Duration="1" Instrument="hex guitar 2"
				Note Time="28" Value="G4" Duration="1" Instrument="polargeist bass"
				Note Time="29" Value="G4" Duration="1" Instrument="hex guitar 2"
			Pattern Name="Pattern 4" Color="ff7f72"
				Note Time="0" Value="G#4" Duration="2" Instrument="polargeist bass"
				Note Time="1" Value="G#4" Duration="1" Instrument="hex guitar 2"
				Note Time="6" Value="D#5" Duration="2" Instrument="polargeist bass"
				Note Time="7" Value="D#5" Duration="1" Instrument="hex guitar 2"
				Note Time="12" Value="D5" Duration="2" Instrument="polargeist bass"
				Note Time="13" Value="D5" Duration="1" Instrument="hex guitar 2"
				Note Time="18" Value="A#4" Duration="2" Instrument="polargeist bass"
				Note Time="19" Value="A#4" Duration="1" Instrument="hex guitar 2"
				Note Time="24" Value="D5" Duration="2" Instrument="polargeist bass"
				Note Time="25" Value="D5" Duration="1" Instrument="hex guitar 2"
				Note Time="28" Value="D#5" Duration="2" Instrument="polargeist bass"
				Note Time="29" Value="D#5" Duration="1" Instrument="hex guitar 2"
			Pattern Name="Pattern 5" Color="eaffbd"
				Note Time="0" Value="A#4" Duration="2" Instrument="polargeist bass"
				Note Time="1" Value="A#4" Duration="1" Instrument="hex guitar 2"
				Note Time="6" Value="G#4" Duration="2" Instrument="polargeist bass"
				Note Time="7" Value="G#4" Duration="1" Instrument="hex guitar 2"
				Note Time="12" Value="G4" Duration="2" Instrument="polargeist bass"
				Note Time="13" Value="G4" Duration="1" Instrument="hex guitar 2"
				Note Time="18" Value="G#4" Duration="2" Instrument="polargeist bass"
				Note Time="19" Value="G#4" Duration="1" Instrument="hex guitar 2"
				Note Time="24" Value="G4" Duration="2" Instrument="polargeist bass"
				Note Time="25" Value="G4" Duration="1" Instrument="hex guitar 2"
				Note Time="28" Value="D#4" Duration="2" Instrument="polargeist bass"
				Note Time="29" Value="D#4" Duration="1" Instrument="hex guitar 2"
			Pattern Name="Pattern 6" Color="ffff93"
				Note Time="0" Value="B3" Duration="1" Instrument="echo"
				Note Time="1" Value="D#3" Duration="1" Instrument="echo"
				Note Time="2" Value="G3" Duration="1" Instrument="echo"
				Note Time="3" Value="B3" Duration="1" Instrument="echo"
				Note Time="4" Value="D4" Duration="1" Instrument="echo"
				Note Time="5" Value="G3" Duration="1" Instrument="echo"
				Note Time="6" Value="F4" Duration="1" Instrument="echo"
				Note Time="7" Value="D4" Duration="1" Instrument="echo"
				Note Time="8" Value="F4" Duration="1" Instrument="echo"
				Note Time="9" Value="D4" Duration="1" Instrument="echo"
				Note Time="10" Value="G4" Duration="1" Instrument="echo"
				Note Time="11" Value="F4" Duration="1" Instrument="echo"
				Note Time="12" Value="F4" Duration="1" Instrument="echo"
				Note Time="13" Value="D4" Duration="1" Instrument="echo"
				Note Time="14" Value="B4" Duration="1" Instrument="echo"
				Note Time="15" Value="G4" Duration="1" Instrument="echo"
				Note Time="16" Value="B4" Duration="1" Instrument="echo"
				Note Time="17" Value="G5" Duration="1" Instrument="echo"
				Note Time="18" Value="D5" Duration="1" Instrument="echo"
				Note Time="19" Value="B5" Duration="1" Instrument="echo"
				Note Time="20" Value="B4" Duration="1" Instrument="echo"
				Note Time="21" Value="G4" Duration="1" Instrument="echo"
				Note Time="22" Value="D5" Duration="1" Instrument="echo"
				Note Time="23" Value="B4" Duration="1" Instrument="echo"
				Note Time="24" Value="G5" Duration="1" Instrument="echo"
				Note Time="25" Value="F5" Duration="1" Instrument="echo"
				Note Time="26" Value="D#5" Duration="1" Instrument="echo"
				Note Time="27" Value="D5" Duration="1" Instrument="echo"
				Note Time="28" Value="F5" Duration="1" Instrument="echo"
				Note Time="29" Value="D#5" Duration="1" Instrument="echo"
				Note Time="30" Value="D5" Duration="1" Instrument="echo"
				Note Time="31" Value="D#5" Duration="1" Instrument="echo"
			Pattern Name="Pattern 7" Color="a4db74"
				Note Time="0" Value="D#4" Duration="2" Instrument="blank" Volume="6" FinePitch="-1"
				Note Time="2" Value="G3" Duration="2" Instrument="blank"
				Note Time="4" Value="C4" Duration="2" Instrument="blank"
				Note Time="6" Value="D4" Duration="2" Instrument="blank"
				Note Time="8" Value="D#4" Duration="4" Instrument="blank"
				Note Time="10" Value="G3" Duration="2" Instrument="blank"
				Note Time="12" Value="C4" Duration="2" Instrument="blank"
				Note Time="14" Value="D#4" Duration="2" Instrument="blank"
				Note Time="16" Value="D4" Duration="2" Instrument="blank"
				Note Time="18" Value="F3" Duration="2" Instrument="blank"
				Note Time="20" Value="A#3" Duration="2" Instrument="blank"
				Note Time="22" Value="C4" Duration="4" Instrument="blank"
				Note Time="26" Value="D#3" Duration="2" Instrument="blank"
				Note Time="28" Value="A#3" Duration="2" Instrument="blank"
				Note Time="30" Value="G#3" Duration="2" Instrument="blank"
			Pattern Name="Pattern 8" Color="3eb3f9"
				Note Time="0" Value="A#3" Duration="2" Instrument="blank"
				Note Time="2" Value="A#2" Duration="2" Instrument="blank"
				Note Time="4" Value="D#3" Duration="2" Instrument="blank"
				Note Time="6" Value="A#2" Duration="2" Instrument="blank"
				Note Time="8" Value="D#3" Duration="2" Instrument="blank"
				Note Time="10" Value="F3" Duration="2" Instrument="blank"
				Note Time="12" Value="G3" Duration="2" Instrument="blank"
				Note Time="14" Value="A#2" Duration="2" Instrument="blank"
				Note Time="16" Value="G#3" Duration="4" Instrument="blank"
				Note Time="18" Value="C3" Duration="2" Instrument="blank"
				Note Time="20" Value="F3" Duration="2" Instrument="blank"
				Note Time="22" Value="G3" Duration="4" Instrument="blank"
				Note Time="26" Value="C3" Duration="2" Instrument="blank"
				Note Time="28" Value="D3" Duration="2" Instrument="blank"
				Note Time="30" Value="D#3" Duration="2" Instrument="blank"
			Pattern Name="Pattern 9" Color="ffc6a1"
				Note Time="0" Value="D#4" Duration="2" Instrument="blank" Volume="6"
				Note Time="2" Value="G3" Duration="2" Instrument="blank"
				Note Time="4" Value="C4" Duration="2" Instrument="blank"
				Note Time="6" Value="D4" Duration="2" Instrument="blank"
				Note Time="8" Value="D#4" Duration="4" Instrument="blank"
				Note Time="10" Value="G3" Duration="2" Instrument="blank"
				Note Time="12" Value="C4" Duration="2" Instrument="blank"
				Note Time="14" Value="D#4" Duration="2" Instrument="blank"
				Note Time="16" Value="D4" Duration="2" Instrument="blank"
				Note Time="18" Value="F3" Duration="2" Instrument="blank"
				Note Time="20" Value="G4" Duration="4" Instrument="blank"
				Note Time="22" Value="C4" Duration="4" Instrument="blank"
				Note Time="26" Value="D#3" Duration="2" Instrument="blank"
				Note Time="28" Value="A#3" Duration="2" Instrument="blank"
				Note Time="30" Value="G#3" Duration="2" Instrument="blank"
			Pattern Name="Pattern 10" Color="3cf8ff"
				Note Time="0" Value="A#3" Duration="2" Instrument="blank"
				Note Time="2" Value="A#2" Duration="2" Instrument="blank"
				Note Time="4" Value="D#3" Duration="2" Instrument="blank"
				Note Time="6" Value="A#2" Duration="2" Instrument="blank"
				Note Time="8" Value="D#3" Duration="2" Instrument="blank"
				Note Time="10" Value="F3" Duration="2" Instrument="blank"
				Note Time="12" Value="G3" Duration="2" Instrument="blank"
				Note Time="14" Value="A#2" Duration="2" Instrument="blank"
				Note Time="16" Value="G#3" Duration="4" Instrument="blank"
				Note Time="18" Value="C3" Duration="2" Instrument="blank"
				Note Time="20" Value="F3" Duration="2" Instrument="blank"
				Note Time="22" Value="C4" Duration="4" Instrument="blank"
				Note Time="26" Value="D#4" Duration="2" Instrument="blank"
				Note Time="28" Value="D4" Duration="2" Instrument="blank"
				Note Time="30" Value="C4" Duration="2" Instrument="blank"
			Pattern Name="Pattern 11" Color="ff579c"
				Note Time="0" Value="F4" Duration="2" Instrument="blank"
				Note Time="2" Value="A3" Duration="2" Instrument="blank"
				Note Time="4" Value="D4" Duration="2" Instrument="blank"
				Note Time="6" Value="E4" Duration="2" Instrument="blank"
				Note Time="8" Value="F4" Duration="2" Instrument="blank"
				Note Time="10" Value="A3" Duration="2" Instrument="blank"
				Note Time="12" Value="D4" Duration="2" Instrument="blank"
				Note Time="14" Value="F4" Duration="2" Instrument="blank"
				Note Time="16" Value="E4" Duration="2" Instrument="blank"
				Note Time="18" Value="G3" Duration="2" Instrument="blank"
				Note Time="20" Value="C4" Duration="2" Instrument="blank"
				Note Time="22" Value="D4" Duration="4" Instrument="blank"
				Note Time="26" Value="F3" Duration="2" Instrument="blank"
				Note Time="28" Value="C4" Duration="2" Instrument="blank"
				Note Time="30" Value="A#3" Duration="2" Instrument="blank"
			Pattern Name="Pattern 12" Color="b8ef7e"
				Note Time="0" Value="C4" Duration="2" Instrument="blank"
				Note Time="2" Value="C3" Duration="2" Instrument="blank"
				Note Time="4" Value="F3" Duration="2" Instrument="blank"
				Note Time="6" Value="C3" Duration="2" Instrument="blank"
				Note Time="8" Value="F3" Duration="2" Instrument="blank"
				Note Time="10" Value="G3" Duration="2" Instrument="blank"
				Note Time="12" Value="A3" Duration="2" Instrument="blank"
				Note Time="14" Value="C3" Duration="2" Instrument="blank"
				Note Time="16" Value="A#3" Duration="2" Instrument="blank"
				Note Time="18" Value="D3" Duration="2" Instrument="blank"
				Note Time="20" Value="G3" Duration="2" Instrument="blank"
				Note Time="22" Value="A3" Duration="4" Instrument="blank"
				Note Time="26" Value="D3" Duration="2" Instrument="blank"
				Note Time="28" Value="E3" Duration="2" Instrument="blank"
				Note Time="30" Value="F3" Duration="2" Instrument="blank"
			Pattern Name="Pattern 13" Color="a376f3"
				Note Time="0" Value="F4" Duration="2" Instrument="blank"
				Note Time="2" Value="A3" Duration="2" Instrument="blank"
				Note Time="4" Value="D4" Duration="2" Instrument="blank"
				Note Time="6" Value="E4" Duration="2" Instrument="blank"
				Note Time="8" Value="F4" Duration="2" Instrument="blank"
				Note Time="10" Value="A3" Duration="2" Instrument="blank"
				Note Time="12" Value="D4" Duration="2" Instrument="blank"
				Note Time="14" Value="F4" Duration="2" Instrument="blank"
				Note Time="16" Value="E4" Duration="2" Instrument="blank"
				Note Time="18" Value="A3" Duration="2" Instrument="blank"
				Note Time="20" Value="A4" Duration="2" Instrument="blank"
				Note Time="22" Value="D4" Duration="4" Instrument="blank"
				Note Time="26" Value="F3" Duration="2" Instrument="blank"
				Note Time="28" Value="C4" Duration="2" Instrument="blank"
				Note Time="30" Value="A#3" Duration="2" Instrument="blank"
			Pattern Name="Pattern 14" Color="a2f7a6"
				Note Time="0" Value="C4" Duration="2" Instrument="blank"
				Note Time="2" Value="C3" Duration="2" Instrument="blank"
				Note Time="4" Value="F3" Duration="2" Instrument="blank"
				Note Time="6" Value="C3" Duration="2" Instrument="blank"
				Note Time="8" Value="F3" Duration="2" Instrument="blank"
				Note Time="10" Value="G3" Duration="2" Instrument="blank"
				Note Time="12" Value="A3" Duration="2" Instrument="blank"
				Note Time="14" Value="C3" Duration="2" Instrument="blank"
				Note Time="16" Value="A#3" Duration="2" Instrument="blank"
				Note Time="18" Value="D3" Duration="2" Instrument="blank"
				Note Time="20" Value="G3" Duration="2" Instrument="blank"
				Note Time="22" Value="D4" Duration="4" Instrument="blank"
				Note Time="26" Value="F4" Duration="2" Instrument="blank"
				Note Time="28" Value="E4" Duration="2" Instrument="blank"
				Note Time="30" Value="D4" Duration="2" Instrument="blank"
			Pattern Name="Pattern 15" Color="5dd2ff"
				Note Time="0" Value="F4" Duration="1" Instrument="echo" Volume="15" FinePitch="0"
				Note Time="1" Value="D4" Duration="1" Instrument="echo"
				Note Time="2" Value="B3" Duration="1" Instrument="echo"
				Note Time="3" Value="G#3" Duration="1" Instrument="echo"
				Note Time="4" Value="F3" Duration="1" Instrument="echo"
				Note Time="5" Value="D3" Duration="1" Instrument="echo"
				Note Time="6" Value="F3" Duration="1" Instrument="echo"
				Note Time="7" Value="D3" Duration="1" Instrument="echo"
				Note Time="8" Value="B2" Duration="1" Instrument="echo"
				Note Time="9" Value="D3" Duration="1" Instrument="echo"
				Note Time="10" Value="B2" Duration="1" Instrument="echo"
				Note Time="11" Value="G#2" Duration="1" Instrument="echo"
				Note Time="12" Value="F3" Duration="1" Instrument="echo"
				Note Time="13" Value="D3" Duration="1" Instrument="echo"
				Note Time="14" Value="B2" Duration="1" Instrument="echo"
				Note Time="15" Value="G#3" Duration="1" Instrument="echo"
				Note Time="16" Value="G3" Duration="1" Instrument="echo"
				Note Time="17" Value="A3" Duration="1" Instrument="echo"
				Note Time="18" Value="B3" Duration="1" Instrument="echo"
				Note Time="19" Value="D4" Duration="1" Instrument="echo"
				Note Time="20" Value="B3" Duration="1" Instrument="echo"
				Note Time="21" Value="D4" Duration="1" Instrument="echo"
				Note Time="22" Value="F4" Duration="1" Instrument="echo"
				Note Time="23" Value="G#4" Duration="1" Instrument="echo"
				Note Time="24" Value="G4" Duration="4" Instrument="echo"
			Pattern Name="Pattern 40" Color="a657d6"
				Note Time="0" Value="D#5" Duration="2" Instrument="blank string"
				Note Time="2" Value="D#4" Duration="2" Instrument="blank string"
				Note Time="4" Value="C5" Duration="2" Instrument="blank string"
				Note Time="6" Value="G5" Duration="4" Instrument="jaezu lead"
				Note Time="10" Value="F5" Duration="4" Instrument="jaezu lead"
				Note Time="14" Value="D5" Duration="9" Release="5" Instrument="jaezu lead"
			Pattern Name="Pattern 41" Color="a9887d"
				Note Time="0" Value="D5" Duration="12" Release="8" Instrument="jaezu lead"
				Note Time="6" Value="D3" Duration="6" Instrument="blank"
				Note Time="12" Value="F3" Duration="6" Instrument="blank"
				Note Time="18" Value="A3" Duration="6" Instrument="blank"
				Note Time="24" Value="D4" Duration="4" Instrument="blank"
				Note Time="28" Value="E4" Duration="4" Instrument="blank"
			Pattern Name="Pattern 42" Color="3ca598"
				Note Time="0" Value="F4" Duration="6" Instrument="blank"
				Note Time="6" Value="E4" Duration="6" Instrument="blank"
				Note Time="12" Value="C4" Duration="6" Instrument="blank"
				Note Time="18" Value="G3" Duration="6" Instrument="blank"
				Note Time="24" Value="F3" Duration="4" Instrument="blank"
				Note Time="28" Value="G3" Duration="4" Instrument="blank"
			Pattern Name="Pattern 43" Color="ffffb2"
				Note Time="0" Value="A3" Duration="6" Instrument="blank"
				Note Time="6" Value="D3" Duration="6" Instrument="blank"
				Note Time="12" Value="F3" Duration="6" Instrument="blank"
				Note Time="18" Value="A3" Duration="6" Instrument="blank"
				Note Time="24" Value="D4" Duration="4" Instrument="blank"
				Note Time="28" Value="E4" Duration="4" Instrument="blank"
			Pattern Name="Pattern 45" Color="fff389"
				Note Time="0" Value="F4" Duration="6" Instrument="blank"
				Note Time="6" Value="A4" Duration="6" Instrument="blank"
				Note Time="12" Value="G4" Duration="6" Instrument="blank"
				Note Time="18" Value="F4" Duration="6" Instrument="blank"
				Note Time="24" Value="A#4" Duration="4" Instrument="blank"
				Note Time="28" Value="A4" Duration="4" Instrument="blank"
			Pattern Name="Pattern 44" Color="c7ff86"
				Note Time="0" Value="E4" Duration="6" Instrument="blank"
				Note Time="6" Value="E3" Duration="6" Instrument="blank"
				Note Time="12" Value="G3" Duration="6" Instrument="blank"
				Note Time="18" Value="B3" Duration="6" Instrument="blank"
				Note Time="24" Value="E4" Duration="4" Instrument="blank"
				Note Time="28" Value="F#4" Duration="4" Instrument="blank"
			Pattern Name="Pattern 46" Color="b75bde"
				Note Time="0" Value="G4" Duration="6" Instrument="blank"
				Note Time="6" Value="F#4" Duration="6" Instrument="blank"
				Note Time="12" Value="D4" Duration="6" Instrument="blank"
				Note Time="18" Value="A3" Duration="6" Instrument="blank"
				Note Time="24" Value="G3" Duration="4" Instrument="blank"
				Note Time="28" Value="A3" Duration="4" Instrument="blank"
			Pattern Name="Pattern 47" Color="b59184"
				Note Time="0" Value="B3" Duration="6" Instrument="blank"
				Note Time="6" Value="E3" Duration="6" Instrument="blank"
				Note Time="12" Value="G3" Duration="6" Instrument="blank"
				Note Time="18" Value="B3" Duration="6" Instrument="blank"
				Note Time="24" Value="E4" Duration="4" Instrument="blank"
				Note Time="28" Value="F#4" Duration="4" Instrument="blank"
			Pattern Name="Pattern 48" Color="3cb5a7"
				Note Time="0" Value="G4" Duration="6" Instrument="blank"
				Note Time="6" Value="B4" Duration="6" Instrument="blank"
				Note Time="12" Value="A4" Duration="6" Instrument="blank"
				Note Time="18" Value="G4" Duration="6" Instrument="blank"
				Note Time="24" Value="F#4" Duration="4" Instrument="blank"
				Note Time="28" Value="G4" Duration="4" Instrument="blank"
			Pattern Name="Pattern 49" Color="d863ec"
				Note Time="0" Value="E4" Duration="12" Instrument="jaezu lead" FinePitch="0"
				Note Time="12" Value="G3" Duration="6" Instrument="blank string"
				Note Time="18" Value="B3" Duration="6" Instrument="blank string"
				Note Time="24" Value="E4" Duration="2" Instrument="blank string"
				Note Time="26" Value="B3" Duration="2" Instrument="blank string"
				Note Time="28" Value="E4" Duration="2" Instrument="blank string"
				Note Time="30" Value="F#4" Duration="2" Instrument="blank string"
			Pattern Name="Pattern 50" Color="fcff6f"
				Note Time="0" Value="G4" Duration="2" Instrument="blank string" FinePitch="0"
				Note Time="2" Value="F#4" Duration="2" Instrument="blank string"
				Note Time="4" Value="D4" Duration="2" Instrument="blank string"
				Note Time="6" Value="A3" Duration="2" Instrument="blank string"
				Note Time="8" Value="G3" Duration="2" Instrument="blank string"
				Note Time="10" Value="F#3" Duration="2" Instrument="blank string"
				Note Time="12" Value="D3" Duration="2" Instrument="blank string"
				Note Time="14" Value="A2" Duration="4" Instrument="jaezu lead"
				Note Time="18" Value="D3" Duration="2" Instrument="blank string"
				Note Time="20" Value="B3" Duration="2" Instrument="blank string"
				Note Time="22" Value="G3" Duration="2" Instrument="blank string"
				Note Time="24" Value="F#3" Duration="2" Instrument="blank string"
				Note Time="26" Value="G3" Duration="2" Instrument="blank string"
				Note Time="28" Value="D4" Duration="1" Instrument="blank string"
				Note Time="29" Value="E4" Duration="1" Instrument="blank string"
				Note Time="30" Value="D4" Duration="2" Instrument="blank string"
			Pattern Name="Pattern 51" Color="8163dc"
				Note Time="0" Value="G3" Duration="2" Instrument="blank string"
				Note Time="2" Value="B2" Duration="2" Instrument="blank string"
				Note Time="4" Value="E3" Duration="2" Instrument="blank string"
				Note Time="6" Value="F#3" Duration="2" Instrument="blank string"
				Note Time="8" Value="B2" Duration="2" Instrument="blank string"
				Note Time="10" Value="E3" Duration="2" Instrument="blank string"
				Note Time="12" Value="G3" Duration="2" Instrument="blank string"
				Note Time="14" Value="B2" Duration="2" Instrument="blank string"
				Note Time="16" Value="E3" Duration="2" Instrument="blank string"
				Note Time="18" Value="B3" Duration="2" Instrument="blank string"
				Note Time="20" Value="E3" Duration="2" Instrument="blank string"
				Note Time="22" Value="G3" Duration="2" Instrument="blank string"
				Note Time="24" Value="E4" Duration="2" Instrument="blank string"
				Note Time="26" Value="G3" Duration="2" Instrument="blank string"
				Note Time="28" Value="E4" Duration="2" Instrument="blank string"
				Note Time="30" Value="F#4" Duration="2" Instrument="blank string"
			Pattern Name="Pattern 52" Color="ffffb2"
				Note Time="0" Value="G4" Duration="2" Instrument="blank string"
				Note Time="2" Value="G3" Duration="2" Instrument="blank string"
				Note Time="4" Value="E4" Duration="2" Instrument="blank string"
				Note Time="6" Value="B4" Duration="4" Instrument="jaezu lead"
				Note Time="10" Value="A4" Duration="4" Instrument="jaezu lead"
				Note Time="14" Value="F#4" Duration="4" Instrument="jaezu lead"
				Note Time="18" Value="A3" Duration="2" Instrument="blank string"
				Note Time="20" Value="E4" Duration="2" Instrument="blank string"
				Note Time="22" Value="F#4" Duration="2" Instrument="blank string"
				Note Time="24" Value="G4" Duration="6" Instrument="blank string"
				Note Time="30" Value="F#4" Duration="6" Instrument="blank string"
			Pattern Name="Pattern 24" Color="bdffc0"
				Note Time="4" Value="E3" Duration="1" Instrument="blank string"
				Note Time="5" Value="G3" Duration="1" Instrument="blank string"
				Note Time="6" Value="B3" Duration="1" Instrument="blank string"
				Note Time="7" Value="E4" Duration="12" Instrument="blank string"
			PatternInstance Time="2" Pattern="Pattern 29"
			PatternInstance Time="3" Pattern="Pattern 31"
			PatternInstance Time="4" Pattern="Pattern 32"
			PatternInstance Time="5" Pattern="Pattern 16"
			PatternInstance Time="6" Pattern="Pattern 17"
			PatternInstance Time="7" Pattern="Pattern 18"
			PatternInstance Time="8" Pattern="Pattern 19"
			PatternInstance Time="9" Pattern="Pattern 16"
			PatternInstance Time="10" Pattern="Pattern 17"
			PatternInstance Time="11" Pattern="Pattern 18"
			PatternInstance Time="12" Pattern="Pattern 20"
			PatternInstance Time="13" Pattern="Pattern 21"
			PatternInstance Time="14" Pattern="Pattern 22"
			PatternInstance Time="15" Pattern="Pattern 23"
			PatternInstance Time="16" Pattern="Pattern 26"
			PatternInstance Time="17" Pattern="Pattern 25"
			PatternInstance Time="18" Pattern="Pattern 33"
			PatternInstance Time="19" Pattern="Pattern 34"
			PatternInstance Time="20" Pattern="Pattern 35"
			PatternInstance Time="21" Pattern="Pattern 36"
			PatternInstance Time="22" Pattern="Pattern 37"
			PatternInstance Time="23" Pattern="Pattern 38"
			PatternInstance Time="24" Pattern="Pattern 39"
			PatternInstance Time="25" Pattern="1"
			PatternInstance Time="26" Pattern="2"
			PatternInstance Time="27" Pattern="00"
			PatternInstance Time="28" Pattern="01"
			PatternInstance Time="29" Pattern="Pattern 1"
			PatternInstance Time="30" Pattern="Pattern 2"
			PatternInstance Time="31" Pattern="Pattern 1"
			PatternInstance Time="32" Pattern="Pattern 2"
			PatternInstance Time="33" Pattern="Pattern 3"
			PatternInstance Time="34" Pattern="Pattern 4"
			PatternInstance Time="35" Pattern="Pattern 5"
			PatternInstance Time="36" Pattern="Pattern 6"
			PatternInstance Time="37" Pattern="Pattern 7"
			PatternInstance Time="38" Pattern="Pattern 8"
			PatternInstance Time="39" Pattern="Pattern 9"
			PatternInstance Time="40" Pattern="Pattern 10"
			PatternInstance Time="41" Pattern="Pattern 7"
			PatternInstance Time="42" Pattern="Pattern 8"
			PatternInstance Time="43" Pattern="Pattern 9"
			PatternInstance Time="44" Pattern="Pattern 10"
			PatternInstance Time="45" Pattern="Pattern 11"
			PatternInstance Time="46" Pattern="Pattern 12"
			PatternInstance Time="47" Pattern="Pattern 13"
			PatternInstance Time="48" Pattern="Pattern 14"
			PatternInstance Time="49" Pattern="Pattern 11"
			PatternInstance Time="50" Pattern="Pattern 12"
			PatternInstance Time="51" Pattern="Pattern 13"
			PatternInstance Time="52" Pattern="Pattern 14"
			PatternInstance Time="53" Pattern="Pattern 15"
			PatternInstance Time="54" Pattern="Pattern 16"
			PatternInstance Time="55" Pattern="Pattern 17"
			PatternInstance Time="56" Pattern="Pattern 18"
			PatternInstance Time="57" Pattern="Pattern 19"
			PatternInstance Time="58" Pattern="Pattern 16"
			PatternInstance Time="59" Pattern="Pattern 17"
			PatternInstance Time="60" Pattern="Pattern 18"
			PatternInstance Time="61" Pattern="Pattern 20"
			PatternInstance Time="62" Pattern="Pattern 21"
			PatternInstance Time="63" Pattern="Pattern 22"
			PatternInstance Time="64" Pattern="Pattern 23"
			PatternInstance Time="65" Pattern="Pattern 40"
			PatternInstance Time="66" Pattern="Pattern 41"
			PatternInstance Time="67" Pattern="Pattern 42"
			PatternInstance Time="68" Pattern="Pattern 43"
			PatternInstance Time="69" Pattern="Pattern 45"
			PatternInstance Time="70" Pattern="Pattern 44"
			PatternInstance Time="71" Pattern="Pattern 46"
			PatternInstance Time="72" Pattern="Pattern 47"
			PatternInstance Time="73" Pattern="Pattern 48"
			PatternInstance Time="74" Pattern="Pattern 44"
			PatternInstance Time="75" Pattern="Pattern 46"
			PatternInstance Time="76" Pattern="Pattern 47"
			PatternInstance Time="77" Pattern="Pattern 48"
			PatternInstance Time="78" Pattern="Pattern 49"
			PatternInstance Time="79" Pattern="Pattern 50"
			PatternInstance Time="80" Pattern="Pattern 51"
			PatternInstance Time="81" Pattern="Pattern 52"
			PatternInstance Time="82" Pattern="Pattern 24"
		Channel Type="Square2"
			Pattern Name="Pattern 27" Color="fe5497"
				Note Time="0" Value="C3" Duration="8" Instrument="blank string"
				Note Time="8" Value="D3" Duration="4" Instrument="blank string"
				Note Time="12" Value="D#3" Duration="4" Instrument="blank string"
				Note Time="16" Value="F3" Duration="8" Instrument="blank string"
				Note Time="24" Value="C3" Duration="4" Instrument="blank string"
				Note Time="28" Value="F3" Duration="4" Instrument="blank string"
			Pattern Name="Pattern 28" Color="ffff75"
				Note Time="0" Value="E3" Duration="8" Instrument="blank string"
				Note Time="8" Value="C3" Duration="4" Instrument="blank string"
				Note Time="12" Value="A2" Duration="4" Instrument="blank string"
				Note Time="16" Value="G#2" Duration="8" Instrument="blank string"
				Note Time="24" Value="F2" Duration="8" Instrument="blank string"
			Pattern Name="Pattern 29" Color="ff935e"
				Note Time="0" Value="C4" Duration="8" Instrument="blank string"
				Note Time="8" Value="D4" Duration="4" Instrument="blank string"
				Note Time="12" Value="D#4" Duration="4" Instrument="blank string"
				Note Time="16" Value="F4" Duration="8" Instrument="blank string"
				Note Time="24" Value="C4" Duration="4" Instrument="blank string"
				Note Time="28" Value="F4" Duration="4" Instrument="blank string"
			Pattern Name="Pattern 30" Color="3cd3e3"
				Note Time="0" Value="E4" Duration="8" Instrument="blank string"
				Note Time="8" Value="A4" Duration="8" Instrument="blank string"
				Note Time="16" Value="G#4" Duration="8" Instrument="blank string"
				Note Time="24" Value="F4" Duration="8" Instrument="blank string"
			Pattern Name="Pattern 32" Color="d1b1ff"
				Note Time="0" Value="C4" Duration="1" Instrument="echo" Volume="15" FinePitch="0"
				Note Time="1" Value="G3" Duration="1" Instrument="echo"
				Note Time="2" Value="C4" Duration="1" Instrument="echo"
				Note Time="3" Value="D#4" Duration="1" Instrument="echo"
				Note Time="4" Value="D4" Duration="1" Instrument="echo"
				Note Time="5" Value="G3" Duration="1" Instrument="echo"
				Note Time="6" Value="D4" Duration="1" Instrument="echo"
				Note Time="7" Value="F4" Duration="1" Instrument="echo"
				Note Time="8" Value="D#4" Duration="1" Instrument="echo"
				Note Time="9" Value="C4" Duration="1" Instrument="echo"
				Note Time="10" Value="D#4" Duration="1" Instrument="echo"
				Note Time="11" Value="G4" Duration="1" Instrument="echo"
				Note Time="12" Value="F4" Duration="1" Instrument="echo"
				Note Time="13" Value="D4" Duration="1" Instrument="echo"
				Note Time="14" Value="D#4" Duration="1" Instrument="echo"
				Note Time="15" Value="D4" Duration="1" Instrument="echo"
				Note Time="16" Value="B3" Duration="1" Instrument="echo"
				Note Time="17" Value="G3" Duration="1" Instrument="echo"
				Note Time="18" Value="B3" Duration="1" Instrument="echo"
				Note Time="19" Value="D4" Duration="1" Instrument="echo"
				Note Time="20" Value="F4" Duration="1" Instrument="echo"
				Note Time="21" Value="D4" Duration="1" Instrument="echo"
				Note Time="22" Value="F4" Duration="1" Instrument="echo"
				Note Time="23" Value="G4" Duration="1" Instrument="echo"
				Note Time="24" Value="B4" Duration="4" Instrument="echo"
			Pattern Name="Pattern 17" Color="3cf8ff"
				Note Time="0" Value="C4" Duration="1" Instrument="echo" DutyCycle="1"
				Note Time="1" Value="G3" Duration="1" Instrument="echo"
				Note Time="2" Value="D#3" Duration="1" Instrument="echo"
				Note Time="3" Value="C3" Duration="1" Instrument="echo"
				Note Time="4" Value="G3" Duration="1" Instrument="echo"
				Note Time="5" Value="D#3" Duration="1" Instrument="echo"
				Note Time="6" Value="C3" Duration="1" Instrument="echo"
				Note Time="7" Value="G2" Duration="1" Instrument="echo"
				Note Time="8" Value="D#3" Duration="2" Instrument="echo"
				Note Time="10" Value="C3" Duration="1" Instrument="echo"
				Note Time="11" Value="D#3" Duration="1" Instrument="echo"
				Note Time="12" Value="G2" Duration="1" Instrument="echo"
				Note Time="13" Value="C3" Duration="1" Instrument="echo"
				Note Time="14" Value="D#3" Duration="2" Instrument="echo"
				Note Time="16" Value="A#3" Duration="1" Instrument="echo"
				Note Time="17" Value="G3" Duration="1" Instrument="echo"
				Note Time="18" Value="D#3" Duration="1" Instrument="echo"
				Note Time="19" Value="A#2" Duration="1" Instrument="echo"
				Note Time="20" Value="G#3" Duration="1" Instrument="echo"
				Note Time="21" Value="D#3" Duration="1" Instrument="echo"
				Note Time="22" Value="A#2" Duration="2" Instrument="echo"
				Note Time="24" Value="D#2" Duration="1" Instrument="echo"
				Note Time="25" Value="F2" Duration="1" Instrument="echo"
				Note Time="26" Value="G#2" Duration="1" Instrument="echo"
				Note Time="27" Value="C3" Duration="1" Instrument="echo"
				Note Time="28" Value="F2" Duration="1" Instrument="echo"
				Note Time="29" Value="G#2" Duration="1" Instrument="echo"
				Note Time="30" Value="C3" Duration="1" Instrument="echo"
				Note Time="31" Value="F3" Duration="3" Instrument="echo"
			Pattern Name="Pattern 18" Color="9a71ed"
				Note Time="2" Value="C3" Duration="1" Instrument="echo"
				Note Time="3" Value="D#3" Duration="1" Instrument="echo"
				Note Time="4" Value="G2" Duration="1" Instrument="echo"
				Note Time="5" Value="C3" Duration="1" Instrument="echo"
				Note Time="6" Value="F3" Duration="1" Instrument="echo"
				Note Time="7" Value="G2" Duration="1" Instrument="echo"
				Note Time="8" Value="C3" Duration="1" Instrument="echo"
				Note Time="9" Value="D3" Duration="1" Instrument="echo"
				Note Time="10" Value="G2" Duration="1" Instrument="echo"
				Note Time="11" Value="C3" Duration="1" Instrument="echo"
				Note Time="12" Value="D#3" Duration="1" Instrument="echo"
				Note Time="13" Value="D3" Duration="1" Instrument="echo"
				Note Time="14" Value="C3" Duration="1" Instrument="echo"
				Note Time="15" Value="G2" Duration="1" Instrument="echo"
				Note Time="16" Value="G3" Duration="2" Instrument="echo"
				Note Time="18" Value="C3" Duration="1" Instrument="echo"
				Note Time="19" Value="D#3" Duration="1" Instrument="echo"
				Note Time="20" Value="G2" Duration="1" Instrument="echo"
				Note Time="21" Value="C3" Duration="1" Instrument="echo"
				Note Time="22" Value="F3" Duration="1" Instrument="echo"
				Note Time="23" Value="G2" Duration="1" Instrument="echo"
				Note Time="24" Value="C3" Duration="1" Instrument="echo"
				Note Time="25" Value="D3" Duration="1" Instrument="echo"
				Note Time="26" Value="G2" Duration="1" Instrument="echo"
				Note Time="27" Value="D3" Duration="1" Instrument="echo"
				Note Time="28" Value="D#3" Duration="1" Instrument="echo"
				Note Time="29" Value="D3" Duration="1" Instrument="echo"
				Note Time="30" Value="D#3" Duration="1" Instrument="echo"
				Note Time="31" Value="F3" Duration="1" Instrument="echo"
			Pattern Name="Pattern 19" Color="a9887d"
				Note Time="0" Value="D#4" Duration="1" Instrument="echo"
				Note Time="1" Value="C4" Duration="1" Instrument="echo"
				Note Time="2" Value="G#3" Duration="1" Instrument="echo"
				Note Time="3" Value="D#3" Duration="1" Instrument="echo"
				Note Time="4" Value="C4" Duration="1" Instrument="echo"
				Note Time="5" Value="G#3" Duration="1" Instrument="echo"
				Note Time="6" Value="D#3" Duration="1" Instrument="echo"
				Note Time="7" Value="C3" Duration="1" Instrument="echo"
				Note Time="8" Value="G#2" Duration="1" Instrument="echo"
				Note Time="9" Value="C3" Duration="1" Instrument="echo"
				Note Time="10" Value="D#3" Duration="1" Instrument="echo"
				Note Time="11" Value="G#3" Duration="1" Instrument="echo"
				Note Time="12" Value="D#3" Duration="1" Instrument="echo"
				Note Time="13" Value="G#3" Duration="1" Instrument="echo"
				Note Time="14" Value="D#4" Duration="1" Instrument="echo"
				Note Time="15" Value="F4" Duration="1" Instrument="echo"
				Note Time="16" Value="G#4" Duration="1" Instrument="echo"
				Note Time="17" Value="F4" Duration="1" Instrument="echo"
				Note Time="18" Value="C4" Duration="1" Instrument="echo"
				Note Time="19" Value="G#3" Duration="1" Instrument="echo"
				Note Time="20" Value="F4" Duration="1" Instrument="echo"
				Note Time="21" Value="C4" Duration="1" Instrument="echo"
				Note Time="22" Value="G#3" Duration="1" Instrument="echo"
				Note Time="23" Value="F3" Duration="1" Instrument="echo"
				Note Time="24" Value="C3" Duration="1" Instrument="echo"
				Note Time="25" Value="F3" Duration="1" Instrument="echo"
				Note Time="26" Value="G#3" Duration="1" Instrument="echo"
				Note Time="27" Value="C4" Duration="1" Instrument="echo"
				Note Time="28" Value="F3" Duration="1" Instrument="echo"
				Note Time="29" Value="G#3" Duration="1" Instrument="echo"
				Note Time="30" Value="C4" Duration="1" Instrument="echo"
				Note Time="31" Value="F4" Duration="1" Instrument="echo"
			Pattern Name="Pattern 20" Color="ffff75"
				Note Time="1" Value="G2" Duration="1" Instrument="echo"
				Note Time="2" Value="G3" Duration="1" Instrument="echo"
				Note Time="3" Value="D4" Duration="1" Instrument="echo"
				Note Time="4" Value="C3" Duration="1" Instrument="echo"
				Note Time="5" Value="G3" Duration="1" Instrument="echo"
				Note Time="6" Value="C4" Duration="1" Instrument="echo"
				Note Time="7" Value="C3" Duration="1" Instrument="echo"
				Note Time="8" Value="G3" Duration="1" Instrument="echo"
				Note Time="9" Value="D#4" Duration="1" Instrument="echo"
				Note Time="10" Value="C3" Duration="1" Instrument="echo"
				Note Time="11" Value="G3" Duration="1" Instrument="echo"
				Note Time="12" Value="D4" Duration="1" Instrument="echo"
				Note Time="13" Value="D#4" Duration="1" Instrument="echo"
				Note Time="14" Value="D4" Duration="1" Instrument="echo"
				Note Time="15" Value="A#3" Duration="1" Instrument="echo"
				Note Time="16" Value="C4" Duration="1" Instrument="echo"
				Note Time="17" Value="C3" Duration="1" Instrument="echo"
				Note Time="18" Value="A#3" Duration="1" Instrument="echo"
				Note Time="19" Value="C4" Duration="1" Instrument="echo"
				Note Time="20" Value="C3" Duration="1" Instrument="echo"
				Note Time="21" Value="D#3" Duration="1" Instrument="echo"
				Note Time="22" Value="G3" Duration="1" Instrument="echo"
				Note Time="23" Value="D#3" Duration="1" Instrument="echo"
				Note Time="24" Value="F3" Duration="1" Instrument="echo"
				Note Time="25" Value="D#3" Duration="1" Instrument="echo"
				Note Time="26" Value="F3" Duration="1" Instrument="echo"
				Note Time="27" Value="G3" Duration="1" Instrument="echo"
				Note Time="28" Value="G#3" Duration="1" Instrument="echo"
				Note Time="29" Value="G3" Duration="1" Instrument="echo"
				Note Time="30" Value="G#3" Duration="1" Instrument="echo"
				Note Time="31" Value="A#3" Duration="1" Instrument="echo"
			Pattern Name="Pattern 21" Color="ff579c"
				Note Time="0" Value="G4" Duration="1" Instrument="echo"
				Note Time="1" Value="G#4" Duration="1" Instrument="echo"
				Note Time="2" Value="F#4" Duration="1" Instrument="echo"
				Note Time="3" Value="F4" Duration="1" Instrument="echo"
				Note Time="4" Value="D#4" Duration="1" Instrument="echo"
				Note Time="5" Value="F4" Duration="1" Instrument="echo"
				Note Time="6" Value="D#4" Duration="1" Instrument="echo"
				Note Time="7" Value="D4" Duration="1" Instrument="echo"
				Note Time="8" Value="A#3" Duration="1" Instrument="echo"
				Note Time="9" Value="D#4" Duration="1" Instrument="echo"
				Note Time="10" Value="G4" Duration="1" Instrument="echo"
				Note Time="11" Value="A#4" Duration="1" Instrument="echo"
				Note Time="12" Value="G4" Duration="1" Instrument="echo"
				Note Time="13" Value="D#4" Duration="1" Instrument="echo"
				Note Time="14" Value="D4" Duration="1" Instrument="echo"
				Note Time="15" Value="D#4" Duration="1" Instrument="echo"
				Note Time="16" Value="D4" Duration="1" Instrument="echo"
				Note Time="17" Value="F4" Duration="1" Instrument="echo"
				Note Time="18" Value="D4" Duration="1" Instrument="echo"
				Note Time="19" Value="B3" Duration="1" Instrument="echo"
				Note Time="20" Value="G3" Duration="1" Instrument="echo"
				Note Time="21" Value="B3" Duration="1" Instrument="echo"
				Note Time="22" Value="G3" Duration="1" Instrument="echo"
				Note Time="23" Value="D3" Duration="1" Instrument="echo"
				Note Time="24" Value="B2" Duration="1" Instrument="echo"
				Note Time="25" Value="D3" Duration="1" Instrument="echo"
				Note Time="26" Value="G3" Duration="1" Instrument="echo"
				Note Time="27" Value="B3" Duration="1" Instrument="echo"
				Note Time="28" Value="G3" Duration="1" Instrument="echo"
				Note Time="29" Value="D4" Duration="1" Instrument="echo"
				Note Time="30" Value="G4" Duration="1" Instrument="echo"
				Note Time="31" Value="B4" Duration="1" Instrument="echo"
			Pattern Name="Pattern 22" Color="3eb3f9"
				Note Time="0" Volume="8"
				Note Time="6" Value="D3" Duration="2" Instrument="blank string"
				Note Time="8" Value="D#3" Duration="2" Instrument="blank string"
				Note Time="10" Value="G3" Duration="2" Instrument="blank string"
				Note Time="12" Value="C4" Duration="6" Instrument="blank string"
				Note Time="18" Value="D4" Duration="6" Instrument="blank string"
				Note Time="24" Value="A#3" Duration="8" Instrument="blank string"
			Pattern Name="Pattern 23" Color="f6a4ff"
				Note Time="0" Value="G#2" Duration="2" Instrument="blank string" FinePitch="0"
				Note Time="2" Value="D#3" Duration="2" Instrument="blank string"
				Note Time="4" Value="G#3" Duration="2" Instrument="blank string"
				Note Time="6" Value="C4" Duration="2" Instrument="blank string"
				Note Time="8" Value="D#4" Duration="2" Instrument="blank string"
				Note Time="10" Value="G4" Duration="2" Instrument="blank string"
				Note Time="12" Value="G#4" Duration="4" Instrument="jaezu lead"
				Note Time="16" Value="A#3" Duration="2" Instrument="blank string"
				Note Time="18" Value="F3" Duration="2" Instrument="blank string"
				Note Time="20" Value="A#3" Duration="4" Instrument="blank string"
				Note Time="24" Value="D4" Duration="4" Instrument="blank string"
				Note Time="28" Value="A#4" Duration="4" Instrument="blank string"
			Pattern Name="Pattern 24" Color="3cf8ff"
				Note Time="0" Value="D#4" Duration="6" Instrument="blank string"
				Note Time="6" Value="D4" Duration="6" Instrument="blank string"
				Note Time="12" Value="A#3" Duration="6" Instrument="blank string"
				Note Time="18" Value="D#4" Duration="6" Instrument="blank string"
				Note Time="24" Value="D4" Duration="4" Instrument="blank string"
				Note Time="28" Value="A#3" Duration="4" Instrument="blank string"
			Pattern Name="Pattern 25" Color="9a71ed"
				Note Time="0" Value="G#2" Duration="2" Instrument="blank string"
				Note Time="2" Value="A#2" Duration="2" Instrument="blank string"
				Note Time="4" Value="D#3" Duration="2" Instrument="blank string"
				Note Time="6" Value="G#3" Duration="2" Instrument="blank string"
				Note Time="8" Value="A#3" Duration="2" Instrument="blank string"
				Note Time="10" Value="C4" Duration="2" Instrument="blank string"
				Note Time="12" Value="G4" Duration="2" Instrument="blank string"
				Note Time="14" Value="G#4" Duration="10" Instrument="jaezu lead"
				Note Time="18" Value="D4" Duration="2" Instrument="blank string"
				Note Time="20" Value="G4" Duration="2" Instrument="blank string"
				Note Time="22" Value="A4" Duration="2" Instrument="blank string"
				Note Time="24" Value="A#4" Duration="4" Instrument="blank string"
				Note Time="28" Value="A4" Duration="4" Instrument="blank string"
			Pattern Name="Pattern 26" Color="997c73"
				Note Time="0" Value="G4" Duration="6" Release="5" Instrument="jaezu lead"
				Note Time="6" Value="G3" Duration="6" Instrument="hex guitar 2"
				Note Time="12" Value="C4" Duration="6" Instrument="hex guitar 2"
				Note Time="18" Value="D4" Duration="6" Instrument="hex guitar 2"
				Note Time="24" Value="A#3" Duration="8" Instrument="hex guitar 2"
			Pattern Name="Pattern 31" Color="88eb8c"
				Note Time="0" Value="G#3" Duration="6" Instrument="hex guitar 2"
				Note Time="6" Value="G3" Duration="6" Instrument="hex guitar 2"
				Note Time="12" Value="A#3" Duration="6" Instrument="hex guitar 2"
				Note Time="18" Value="F3" Duration="6" Instrument="hex guitar 2"
				Note Time="24" Value="A#3" Duration="8" Instrument="hex guitar 2"
			Pattern Name="Pattern 33" Color="91c76b"
				Note Time="0" Value="C4" Duration="6" Instrument="hex guitar 2"
				Note Time="6" Value="G3" Duration="6" Instrument="hex guitar 2"
				Note Time="12" Value="C4" Duration="6" Instrument="hex guitar 2"
				Note Time="18" Value="D4" Duration="6" Instrument="hex guitar 2"
				Note Time="24" Value="A#3" Duration="8" Instrument="hex guitar 2"
			Pattern Name="Pattern 34" Color="ffa83c"
				Note Time="0" Value="G3" Duration="1" Instrument="Instrument 3"
				Note Time="1" Value="D#3" Duration="1" Instrument="Instrument 3"
				Note Time="2" Value="C3" Duration="1" Instrument="Instrument 3"
				Note Time="3" Value="A#3" Duration="1" Instrument="Instrument 3"
				Note Time="4" Value="G3" Duration="1" Instrument="Instrument 3"
				Note Time="5" Value="D#3" Duration="1" Instrument="Instrument 3"
				Note Time="6" Value="G#3" Duration="1" Instrument="Instrument 3"
				Note Time="7" Value="D#3" Duration="1" Instrument="Instrument 3"
				Note Time="8" Value="C3" Duration="1" Instrument="Instrument 3"
				Note Time="9" Value="C4" Duration="1" Instrument="Instrument 3"
				Note Time="10" Value="G3" Duration="1" Instrument="Instrument 3"
				Note Time="11" Value="D#3" Duration="1" Instrument="Instrument 3"
				Note Time="12" Value="A#3" Duration="1" Instrument="Instrument 3"
				Note Time="13" Value="G3" Duration="1" Instrument="Instrument 3"
				Note Time="14" Value="D#4" Duration="1" Instrument="Instrument 3"
				Note Time="15" Value="G3" Duration="1" Instrument="Instrument 3"
				Note Time="16" Value="D4" Duration="1" Instrument="Instrument 3" Volume="11"
				Note Time="17" Value="D#4" Duration="1" Instrument="Instrument 3"
				Note Time="18" Value="D4" Duration="1" Instrument="Instrument 3"
				Note Time="19" Value="A#3" Duration="1" Instrument="Instrument 3"
				Note Time="20" Value="F3" Duration="1" Instrument="Instrument 3"
				Note Time="21" Value="A#3" Duration="1" Instrument="Instrument 3"
				Note Time="22" Value="G#3" Duration="1" Instrument="Instrument 3" Volume="8"
				Note Time="23" Value="G3" Duration="1" Instrument="Instrument 3"
				Note Time="24" Value="F3" Duration="1" Instrument="Instrument 3"
				Note Time="25" Value="G3" Duration="1" Instrument="Instrument 3"
				Note Time="26" Value="F3" Duration="1" Instrument="Instrument 3"
				Note Time="27" Value="D#3" Duration="1" Instrument="Instrument 3" Volume="5"
				Note Time="28" Value="D3" Duration="1" Instrument="Instrument 3"
				Note Time="29" Value="D#3" Duration="1" Instrument="Instrument 3"
				Note Time="30" Value="D3" Duration="1" Instrument="Instrument 3"
				Note Time="31" Value="A#2" Duration="1" Instrument="Instrument 3"
			Pattern Name="Pattern 37" Color="8a706a"
				Note Time="0" Value="A#1" Duration="1" Instrument="Instrument 3"
				Note Time="1" Value="D#2" Duration="1" Instrument="Instrument 3"
				Note Time="2" Value="G2" Duration="1" Instrument="Instrument 3"
				Note Time="3" Value="A#2" Duration="1" Instrument="Instrument 3"
				Note Time="4" Value="D#2" Duration="1" Instrument="Instrument 3"
				Note Time="5" Value="G2" Duration="1" Instrument="Instrument 3"
				Note Time="6" Value="A#2" Duration="1" Instrument="Instrument 3"
				Note Time="7" Value="D#3" Duration="1" Instrument="Instrument 3"
				Note Time="8" Value="G2" Duration="1" Instrument="Instrument 3"
				Note Time="9" Value="A#2" Duration="1" Instrument="Instrument 3"
				Note Time="10" Value="D#3" Duration="1" Instrument="Instrument 3"
				Note Time="11" Value="G3" Duration="1" Instrument="Instrument 3"
				Note Time="12" Value="C3" Duration="1" Instrument="Instrument 3"
				Note Time="13" Value="D3" Duration="1" Instrument="Instrument 3"
				Note Time="14" Value="F3" Duration="1" Instrument="Instrument 3"
				Note Time="15" Value="A#3" Duration="1" Instrument="Instrument 3"
				Note Time="16" Value="D3" Duration="1" Instrument="Instrument 3" Volume="11"
				Note Time="17" Value="F3" Duration="1" Instrument="Instrument 3"
				Note Time="18" Value="A#3" Duration="1" Instrument="Instrument 3"
				Note Time="19" Value="C4" Duration="1" Instrument="Instrument 3"
				Note Time="20" Value="F3" Duration="1" Instrument="Instrument 3"
				Note Time="21" Value="A#3" Duration="1" Instrument="Instrument 3"
				Note Time="22" Value="C4" Duration="1" Instrument="Instrument 3" Volume="8"
				Note Time="23" Value="D4" Duration="1" Instrument="Instrument 3"
				Note Time="24" Value="F4" Duration="1" Instrument="Instrument 3"
				Note Time="25" Value="D#4" Duration="1" Instrument="Instrument 3"
				Note Time="26" Value="D4" Duration="1" Instrument="Instrument 3"
				Note Time="27" Value="C4" Duration="1" Instrument="Instrument 3" Volume="5"
				Note Time="28" Value="A#3" Duration="1" Instrument="Instrument 3"
				Note Time="29" Value="C4" Duration="1" Instrument="Instrument 3"
				Note Time="30" Value="D4" Duration="1" Instrument="Instrument 3"
				Note Time="31" Value="F4" Duration="1" Instrument="Instrument 3"
			Pattern Name="Pattern 38" Color="d8ffa1"
				Note Time="0" Value="D#4" Duration="1" Instrument="Instrument 3"
				Note Time="1" Value="F4" Duration="1" Instrument="Instrument 3"
				Note Time="2" Value="D#4" Duration="1" Instrument="Instrument 3"
				Note Time="3" Value="C4" Duration="1" Instrument="Instrument 3"
				Note Time="4" Value="G3" Duration="1" Instrument="Instrument 3"
				Note Time="5" Value="C4" Duration="1" Instrument="Instrument 3"
				Note Time="6" Value="D4" Duration="1" Instrument="Instrument 3"
				Note Time="7" Value="D#4" Duration="1" Instrument="Instrument 3"
				Note Time="8" Value="D4" Duration="1" Instrument="Instrument 3"
				Note Time="9" Value="A#3" Duration="1" Instrument="Instrument 3"
				Note Time="10" Value="F3" Duration="1" Instrument="Instrument 3"
				Note Time="11" Value="A#3" Duration="1" Instrument="Instrument 3"
				Note Time="12" Value="C4" Duration="1" Instrument="Instrument 3"
				Note Time="13" Value="D4" Duration="1" Instrument="Instrument 3"
				Note Time="14" Value="C4" Duration="1" Instrument="Instrument 3"
				Note Time="15" Value="G#3" Duration="1" Instrument="Instrument 3"
				Note Time="16" Value="D#3" Duration="1" Instrument="Instrument 3" Volume="11"
				Note Time="17" Value="G#3" Duration="1" Instrument="Instrument 3"
				Note Time="18" Value="A#3" Duration="1" Instrument="Instrument 3"
				Note Time="19" Value="C4" Duration="1" Instrument="Instrument 3"
				Note Time="20" Value="A#3" Duration="1" Instrument="Instrument 3"
				Note Time="21" Value="G3" Duration="1" Instrument="Instrument 3"
				Note Time="22" Value="D#3" Duration="1" Instrument="Instrument 3" Volume="8"
				Note Time="23" Value="G3" Duration="1" Instrument="Instrument 3"
				Note Time="24" Value="G#3" Duration="1" Instrument="Instrument 3"
				Note Time="25" Value="G3" Duration="1" Instrument="Instrument 3"
				Note Time="26" Value="F3" Duration="1" Instrument="Instrument 3"
				Note Time="27" Value="D#3" Duration="1" Instrument="Instrument 3" Volume="5"
				Note Time="28" Value="G3" Duration="1" Instrument="Instrument 3"
				Note Time="29" Value="F3" Duration="1" Instrument="Instrument 3"
				Note Time="30" Value="D#3" Duration="1" Instrument="Instrument 3"
				Note Time="31" Value="D3" Duration="1" Instrument="Instrument 3"
			Pattern Name="Pattern 39" Color="d1b1ff"
				Note Time="0" Value="D#3" Duration="3" Instrument="Instrument 3"
				Note Time="3" Value="C4" Duration="3" Instrument="Instrument 3"
				Note Time="6" Value="G3" Duration="3" Instrument="Instrument 3"
				Note Time="9" Value="G#3" Duration="3" Instrument="Instrument 3"
				Note Time="12" Value="F3" Duration="3" Instrument="Instrument 3"
				Note Time="15" Value="A#3" Duration="3" Instrument="Instrument 3"
				Note Time="18" Value="C4" Duration="3" Instrument="Instrument 3"
				Note Time="21" Value="D4" Duration="3" Instrument="Instrument 3"
				Note Time="24" Value="D3" Duration="1" Instrument="Instrument 3"
				Note Time="25" Value="F3" Duration="1" Instrument="Instrument 3"
				Note Time="26" Value="A#3" Duration="1" Instrument="Instrument 3"
				Note Time="27" Value="D4" Duration="1" Instrument="Instrument 3"
				Note Time="28" Value="A#3" Duration="1" Instrument="Instrument 3"
				Note Time="29" Value="D4" Duration="1" Instrument="Instrument 3"
				Note Time="30" Value="F4" Duration="1" Instrument="Instrument 3"
				Note Time="31" Value="A#4" Duration="1" Instrument="Instrument 3"
			Pattern Name="Pattern 12" Color="ff8f8c"
				Note Time="0" Value="G4" Duration="1" Instrument="echo" DutyCycle="2"
				Note Time="1" Value="D#4" Duration="1" Instrument="echo"
				Note Time="2" Value="C4" Duration="1" Instrument="echo"
				Note Time="3" Value="D#4" Duration="1" Instrument="echo"
				Note Time="4" Value="G3" Duration="1" Instrument="echo"
				Note Time="5" Value="C4" Duration="1" Instrument="echo"
				Note Time="6" Value="D#3" Duration="1" Instrument="echo"
				Note Time="7" Value="G3" Duration="1" Instrument="echo"
				Note Time="8" Value="C3" Duration="1" Instrument="echo"
				Note Time="9" Value="G3" Duration="1" Instrument="echo"
				Note Time="10" Value="D#3" Duration="1" Instrument="echo"
				Note Time="11" Value="G3" Duration="1" Instrument="echo"
				Note Time="12" Value="C4" Duration="1" Instrument="echo"
				Note Time="13" Value="G4" Duration="1" Instrument="echo"
				Note Time="14" Value="F4" Duration="1" Instrument="echo"
				Note Time="15" Value="D#4" Duration="1" Instrument="echo"
				Note Time="16" Value="G4" Duration="1" Instrument="echo" Volume="11" DutyCycle="2"
				Note Time="17" Value="D#4" Duration="1" Instrument="echo"
				Note Time="18" Value="C4" Duration="1" Instrument="echo"
				Note Time="19" Value="D#4" Duration="1" Instrument="echo"
				Note Time="20" Value="G3" Duration="1" Instrument="echo"
				Note Time="21" Value="C4" Duration="1" Instrument="echo"
				Note Time="22" Value="D#3" Duration="1" Instrument="echo" Volume="8"
				Note Time="23" Value="G3" Duration="1" Instrument="echo"
				Note Time="24" Value="C3" Duration="1" Instrument="echo"
				Note Time="25" Value="G3" Duration="1" Instrument="echo"
				Note Time="26" Value="D#3" Duration="1" Instrument="echo"
				Note Time="27" Value="G3" Duration="1" Instrument="echo" Volume="5"
				Note Time="28" Value="C4" Duration="1" Instrument="echo"
				Note Time="29" Value="G4" Duration="1" Instrument="echo"
				Note Time="30" Value="F4" Duration="1" Instrument="echo"
				Note Time="31" Value="D#4" Duration="1" Instrument="echo"
			Pattern Name="Pattern 35" Color="7b8df1"
				Note Time="0" Value="F#4" Duration="1" Instrument="echo" DutyCycle="2"
				Note Time="1" Value="C#4" Duration="1" Instrument="echo"
				Note Time="2" Value="C4" Duration="1" Instrument="echo"
				Note Time="3" Value="C#4" Duration="1" Instrument="echo"
				Note Time="4" Value="A#3" Duration="1" Instrument="echo"
				Note Time="5" Value="C#4" Duration="1" Instrument="echo"
				Note Time="6" Value="F#3" Duration="1" Instrument="echo"
				Note Time="7" Value="C#4" Duration="1" Instrument="echo"
				Note Time="8" Value="C#3" Duration="1" Instrument="echo"
				Note Time="9" Value="C#4" Duration="1" Instrument="echo"
				Note Time="10" Value="C4" Duration="1" Instrument="echo"
				Note Time="11" Value="A#3" Duration="1" Instrument="echo"
				Note Time="12" Value="F#3" Duration="1" Instrument="echo"
				Note Time="13" Value="A#3" Duration="1" Instrument="echo"
				Note Time="14" Value="C#4" Duration="1" Instrument="echo"
				Note Time="15" Value="F4" Duration="1" Instrument="echo"
				Note Time="16" Value="F#4" Duration="1" Instrument="echo" Volume="11" DutyCycle="2"
				Note Time="17" Value="C#4" Duration="1" Instrument="echo"
				Note Time="18" Value="C4" Duration="1" Instrument="echo"
				Note Time="19" Value="C#4" Duration="1" Instrument="echo"
				Note Time="20" Value="A#3" Duration="1" Instrument="echo"
				Note Time="21" Value="C#4" Duration="1" Instrument="echo"
				Note Time="22" Value="C#3" Duration="1" Instrument="echo" Volume="8"
				Note Time="23" Value="C#4" Duration="1" Instrument="echo"
				Note Time="24" Value="F#3" Duration="1" Instrument="echo"
				Note Time="25" Value="C#4" Duration="1" Instrument="echo"
				Note Time="26" Value="C4" Duration="1" Instrument="echo"
				Note Time="27" Value="C#4" Duration="1" Instrument="echo" Volume="5"
				Note Time="28" Value="F#4" Duration="1" Instrument="echo"
				Note Time="29" Value="A#4" Duration="1" Instrument="echo"
				Note Time="30" Value="C5" Duration="1" Instrument="echo"
				Note Time="31" Value="C#5" Duration="1" Instrument="echo"
			Pattern Name="Pattern 5" Color="a9887d"
				Note Time="0" Value="F2" Duration="4" Instrument="Instrument 3" Volume="10"
				Note Time="8" Value="F2" Duration="4" Instrument="Instrument 3"
				Note Time="16" Value="F2" Duration="4" Instrument="Instrument 3"
				Note Time="22" Value="F2" Duration="2" Instrument="Instrument 3"
				Note Time="24" Value="F2" Duration="2" Instrument="Instrument 3"
				Note Time="26" Value="F2" Duration="2" Instrument="Instrument 3"
				Note Time="28" Value="F2" Duration="2" Instrument="Instrument 3"
				Note Time="30" Value="F2" Duration="2" Instrument="Instrument 3"
			Pattern Name="Pattern 6" Color="fffc69"
				Note Time="0" Value="C#2" Duration="4" Instrument="Instrument 3"
				Note Time="4" Value="C#2" Duration="2" Instrument="Instrument 3"
				Note Time="6" Value="C#2" Duration="4" Instrument="Instrument 3"
				Note Time="10" Value="C#2" Duration="2" Instrument="Instrument 3"
				Note Time="12" Value="C#2" Duration="4" Instrument="Instrument 3"
				Note Time="16" Value="C#2" Duration="2" Instrument="Instrument 3"
				Note Time="18" Value="C#2" Duration="4" Instrument="Instrument 3"
				Note Time="22" Value="C#2" Duration="2" Instrument="Instrument 3"
				Note Time="24" Value="C#2" Duration="2" Instrument="Instrument 3"
				Note Time="26" Value="C#2" Duration="2" Instrument="Instrument 3"
				Note Time="28" Value="C#2" Duration="2" Instrument="Instrument 3"
				Note Time="30" Value="C#2" Duration="2" Instrument="Instrument 3"
			Pattern Name="Pattern 3" Color="8d69e4"
				Note Time="0" Volume="9"
				Note Time="1" Value="C4" Duration="1" Instrument="echo"
				Note Time="2" Value="D4" Duration="1" Instrument="echo"
				Note Time="3" Value="D#4" Duration="1" Instrument="echo"
				Note Time="4" Value="D4" Duration="1" Instrument="echo"
				Note Time="5" Value="C4" Duration="2" Instrument="echo"
				Note Time="6" Value="C4" Duration="1" Instrument="echo"
				Note Time="7" Value="C4" Duration="1" Instrument="echo"
				Note Time="8" Value="D4" Duration="1" Instrument="echo"
				Note Time="9" Value="D#4" Duration="1" Instrument="echo"
				Note Time="10" Value="D4" Duration="1" Instrument="echo"
				Note Time="11" Value="C4" Duration="2" Instrument="echo"
				Note Time="12" Value="C4" Duration="1" Instrument="echo"
				Note Time="13" Value="C4" Duration="1" Instrument="echo"
				Note Time="14" Value="D4" Duration="1" Instrument="echo"
				Note Time="15" Value="D#4" Duration="1" Instrument="echo"
				Note Time="16" Value="D4" Duration="1" Instrument="echo"
				Note Time="17" Value="C4" Duration="6" Instrument="echo"
				Note Time="18" Value="C4" Duration="1" Instrument="echo"
				Note Time="19" Value="C4" Duration="1" Instrument="echo"
				Note Time="20" Value="D4" Duration="1" Instrument="echo"
				Note Time="21" Value="D#4" Duration="1" Instrument="echo"
				Note Time="22" Value="D4" Duration="1" Instrument="echo"
				Note Time="23" Value="C4" Duration="1" Instrument="echo"
				Note Time="24" Value="C4" Duration="1" Instrument="echo"
				Note Time="25" Value="C4" Duration="1" Instrument="echo"
				Note Time="26" Value="D4" Duration="1" Instrument="echo"
				Note Time="27" Value="D#4" Duration="1" Instrument="echo"
				Note Time="28" Value="D#4" Duration="1" Instrument="echo"
				Note Time="29" Value="D#4" Duration="1" Instrument="echo"
				Note Time="30" Value="D4" Duration="1" Instrument="echo"
				Note Time="31" Value="C4" Duration="1" Instrument="echo"
			Pattern Name="Pattern 1" Color="55b2ff"
				Note Time="0" Value="G#3" Duration="1" Instrument="echo"
				Note Time="1" Value="G#3" Duration="1" Instrument="echo"
				Note Time="2" Value="C4" Duration="1" Instrument="echo"
				Note Time="3" Value="D#4" Duration="1" Instrument="echo"
				Note Time="4" Value="C4" Duration="1" Instrument="echo"
				Note Time="5" Value="G#3" Duration="1" Instrument="echo"
				Note Time="6" Value="G#3" Duration="1" Instrument="echo"
				Note Time="7" Value="G#3" Duration="1" Instrument="echo"
				Note Time="8" Value="C4" Duration="1" Instrument="echo"
				Note Time="9" Value="D#4" Duration="1" Instrument="echo"
				Note Time="10" Value="C4" Duration="1" Instrument="echo"
				Note Time="11" Value="G#3" Duration="1" Instrument="echo"
				Note Time="12" Value="G#3" Duration="1" Instrument="echo"
				Note Time="13" Value="G#3" Duration="1" Instrument="echo"
				Note Time="14" Value="C4" Duration="1" Instrument="echo"
				Note Time="15" Value="D#4" Duration="1" Instrument="echo"
				Note Time="16" Value="C4" Duration="1" Instrument="echo"
				Note Time="17" Value="G#3" Duration="1" Instrument="echo"
				Note Time="18" Value="G#3" Duration="1" Instrument="echo"
				Note Time="19" Value="G#3" Duration="1" Instrument="echo"
				Note Time="20" Value="C4" Duration="1" Instrument="echo"
				Note Time="21" Value="D#4" Duration="1" Instrument="echo"
				Note Time="22" Value="C4" Duration="1" Instrument="echo"
				Note Time="23" Value="G#3" Duration="1" Instrument="echo"
				Note Time="24" Value="G#3" Duration="1" Instrument="echo"
				Note Time="25" Value="G#3" Duration="1" Instrument="echo"
				Note Time="26" Value="C4" Duration="1" Instrument="echo"
				Note Time="27" Value="D#4" Duration="1" Instrument="echo"
				Note Time="28" Value="D#4" Duration="1" Instrument="echo"
				Note Time="29" Value="D#4" Duration="1" Instrument="echo"
				Note Time="30" Value="C4" Duration="1" Instrument="echo"
				Note Time="31" Value="G#3" Duration="1" Instrument="echo"
			Pattern Name="Pattern 2" Color="5dd2ff"
				Note Time="0" Value="G3" Duration="1" Instrument="echo"
				Note Time="1" Value="A#3" Duration="1" Instrument="echo"
				Note Time="2" Value="D#4" Duration="1" Instrument="echo"
				Note Time="3" Value="A#3" Duration="1" Instrument="echo"
				Note Time="4" Value="G3" Duration="1" Instrument="echo"
				Note Time="5" Value="G3" Duration="1" Instrument="echo"
				Note Time="6" Value="G3" Duration="1" Instrument="echo"
				Note Time="7" Value="A#3" Duration="1" Instrument="echo"
				Note Time="8" Value="D#4" Duration="1" Instrument="echo"
				Note Time="9" Value="A#3" Duration="1" Instrument="echo"
				Note Time="10" Value="G3" Duration="1" Instrument="echo"
				Note Time="11" Value="G3" Duration="1" Instrument="echo"
				Note Time="12" Value="G3" Duration="1" Instrument="echo"
				Note Time="13" Value="A#3" Duration="1" Instrument="echo"
				Note Time="14" Value="D#4" Duration="1" Instrument="echo"
				Note Time="15" Value="A#3" Duration="1" Instrument="echo"
				Note Time="16" Value="G3" Duration="1" Instrument="echo"
				Note Time="17" Value="G3" Duration="1" Instrument="echo"
				Note Time="18" Value="G3" Duration="1" Instrument="echo"
				Note Time="19" Value="A#3" Duration="1" Instrument="echo"
				Note Time="20" Value="D#4" Duration="1" Instrument="echo"
				Note Time="21" Value="A#3" Duration="1" Instrument="echo"
				Note Time="22" Value="G3" Duration="1" Instrument="echo"
				Note Time="23" Value="G3" Duration="1" Instrument="echo"
				Note Time="24" Value="G3" Duration="1" Instrument="echo"
				Note Time="25" Value="A#3" Duration="1" Instrument="echo"
				Note Time="26" Value="D#4" Duration="1" Instrument="echo"
				Note Time="27" Value="D#4" Duration="1" Instrument="echo"
				Note Time="28" Value="D#4" Duration="1" Instrument="echo"
				Note Time="29" Value="A#3" Duration="1" Instrument="echo"
				Note Time="30" Value="G3" Duration="1" Instrument="echo"
				Note Time="31" Value="G3" Duration="1" Instrument="echo"
			Pattern Name="Pattern 4" Color="9a71ed"
				Note Time="0" Value="G3" Duration="1" Instrument="echo"
				Note Time="1" Value="B2" Duration="1" Instrument="echo"
				Note Time="2" Value="D#3" Duration="1" Instrument="echo"
				Note Time="3" Value="B2" Duration="1" Instrument="echo"
				Note Time="4" Value="B3" Duration="1" Instrument="echo"
				Note Time="5" Value="B3" Duration="1" Instrument="echo"
				Note Time="6" Value="D4" Duration="1" Instrument="echo"
				Note Time="7" Value="B3" Duration="1" Instrument="echo"
				Note Time="8" Value="D4" Duration="1" Instrument="echo"
				Note Time="9" Value="B3" Duration="1" Instrument="echo"
				Note Time="10" Value="F4" Duration="1" Instrument="echo"
				Note Time="12" Value="G4" Duration="1" Instrument="echo"
				Note Time="13" Value="F4" Duration="1" Instrument="echo"
				Note Time="14" Value="G5" Duration="1" Instrument="echo"
				Note Time="15" Value="B4" Duration="1" Instrument="echo"
				Note Time="16" Value="B5" Duration="1" Instrument="echo"
				Note Time="17" Value="B4" Duration="1" Instrument="echo"
				Note Time="18" Value="G5" Duration="1" Instrument="echo"
				Note Time="19" Value="B4" Duration="1" Instrument="echo"
				Note Time="20" Value="D5" Duration="1" Instrument="echo"
				Note Time="21" Value="B4" Duration="1" Instrument="echo"
				Note Time="22" Value="G5" Duration="1" Instrument="echo"
				Note Time="23" Value="D5" Duration="1" Instrument="echo"
			Pattern Name="Pattern 7" Color="a9887d"
				Note Time="0" Value="D#4" Duration="2" Instrument="hex guitar 2" Volume="6"
				Note Time="2" Value="G3" Duration="2" Instrument="hex guitar 2"
				Note Time="4" Value="C4" Duration="2" Instrument="hex guitar 2"
				Note Time="6" Value="D4" Duration="2" Instrument="hex guitar 2"
				Note Time="8" Value="D#4" Duration="4" Instrument="hex guitar 2"
				Note Time="10" Value="G3" Duration="2" Instrument="hex guitar 2"
				Note Time="12" Value="C4" Duration="2" Instrument="hex guitar 2"
				Note Time="14" Value="D#4" Duration="2" Instrument="hex guitar 2"
				Note Time="16" Value="D4" Duration="2" Instrument="hex guitar 2"
				Note Time="18" Value="F3" Duration="2" Instrument="hex guitar 2"
				Note Time="20" Value="A#3" Duration="2" Instrument="hex guitar 2"
				Note Time="22" Value="C4" Duration="4" Instrument="hex guitar 2"
				Note Time="26" Value="D#3" Duration="2" Instrument="hex guitar 2"
				Note Time="28" Value="A#3" Duration="2" Instrument="hex guitar 2"
				Note Time="30" Value="G#3" Duration="2" Instrument="hex guitar 2"
			Pattern Name="Pattern 8" Color="3ca598"
				Note Time="0" Value="A#3" Duration="2" Instrument="hex guitar 2"
				Note Time="2" Value="A#2" Duration="2" Instrument="hex guitar 2"
				Note Time="4" Value="D#3" Duration="2" Instrument="hex guitar 2"
				Note Time="6" Value="A#2" Duration="2" Instrument="hex guitar 2"
				Note Time="8" Value="D#3" Duration="2" Instrument="hex guitar 2"
				Note Time="10" Value="F3" Duration="2" Instrument="hex guitar 2"
				Note Time="12" Value="G3" Duration="2" Instrument="hex guitar 2"
				Note Time="14" Value="A#2" Duration="2" Instrument="hex guitar 2"
				Note Time="16" Value="G#3" Duration="4" Instrument="hex guitar 2"
				Note Time="18" Value="C3" Duration="2" Instrument="hex guitar 2"
				Note Time="20" Value="F3" Duration="2" Instrument="hex guitar 2"
				Note Time="22" Value="G3" Duration="4" Instrument="hex guitar 2"
				Note Time="26" Value="C3" Duration="2" Instrument="hex guitar 2"
				Note Time="28" Value="D3" Duration="2" Instrument="hex guitar 2"
				Note Time="30" Value="D#3" Duration="2" Instrument="hex guitar 2"
			Pattern Name="Pattern 9" Color="ff8f8c"
				Note Time="0" Value="D#4" Duration="2" Instrument="hex guitar 2" Volume="6"
				Note Time="2" Value="G3" Duration="2" Instrument="hex guitar 2"
				Note Time="4" Value="C4" Duration="2" Instrument="hex guitar 2"
				Note Time="6" Value="D4" Duration="2" Instrument="hex guitar 2"
				Note Time="8" Value="D#4" Duration="4" Instrument="hex guitar 2"
				Note Time="10" Value="G3" Duration="2" Instrument="hex guitar 2"
				Note Time="12" Value="C4" Duration="2" Instrument="hex guitar 2"
				Note Time="14" Value="D#4" Duration="2" Instrument="hex guitar 2"
				Note Time="16" Value="D4" Duration="2" Instrument="hex guitar 2"
				Note Time="18" Value="F3" Duration="2" Instrument="hex guitar 2"
				Note Time="20" Value="G4" Duration="4" Instrument="hex guitar 2"
				Note Time="22" Value="C4" Duration="4" Instrument="hex guitar 2"
				Note Time="26" Value="D#3" Duration="2" Instrument="hex guitar 2"
				Note Time="28" Value="A#3" Duration="2" Instrument="hex guitar 2"
				Note Time="30" Value="G#3" Duration="2" Instrument="hex guitar 2"
			Pattern Name="Pattern 10" Color="88eb8c"
				Note Time="0" Value="A#3" Duration="2" Instrument="hex guitar 2"
				Note Time="2" Value="A#2" Duration="2" Instrument="hex guitar 2"
				Note Time="4" Value="D#3" Duration="2" Instrument="hex guitar 2"
				Note Time="6" Value="A#2" Duration="2" Instrument="hex guitar 2"
				Note Time="8" Value="D#3" Duration="2" Instrument="hex guitar 2"
				Note Time="10" Value="F3" Duration="2" Instrument="hex guitar 2"
				Note Time="12" Value="G3" Duration="2" Instrument="hex guitar 2"
				Note Time="14" Value="A#2" Duration="2" Instrument="hex guitar 2"
				Note Time="16" Value="G#3" Duration="4" Instrument="hex guitar 2"
				Note Time="18" Value="C3" Duration="2" Instrument="hex guitar 2"
				Note Time="20" Value="F3" Duration="2" Instrument="hex guitar 2"
				Note Time="22" Value="C4" Duration="4" Instrument="hex guitar 2"
				Note Time="26" Value="D#4" Duration="2" Instrument="hex guitar 2"
				Note Time="28" Value="D4" Duration="2" Instrument="hex guitar 2"
				Note Time="30" Value="C4" Duration="2" Instrument="hex guitar 2"
			Pattern Name="Pattern 11" Color="ffc83c"
				Note Time="0" Value="F4" Duration="2" Instrument="hex guitar 2"
				Note Time="2" Value="A3" Duration="2" Instrument="hex guitar 2"
				Note Time="4" Value="D4" Duration="2" Instrument="hex guitar 2"
				Note Time="6" Value="E4" Duration="2" Instrument="hex guitar 2"
				Note Time="8" Value="F4" Duration="2" Instrument="hex guitar 2"
				Note Time="10" Value="A3" Duration="2" Instrument="hex guitar 2"
				Note Time="12" Value="D4" Duration="2" Instrument="hex guitar 2"
				Note Time="14" Value="F4" Duration="2" Instrument="hex guitar 2"
				Note Time="16" Value="E4" Duration="2" Instrument="hex guitar 2"
				Note Time="18" Value="G3" Duration="2" Instrument="hex guitar 2"
				Note Time="20" Value="C4" Duration="2" Instrument="hex guitar 2"
				Note Time="22" Value="D4" Duration="4" Instrument="hex guitar 2"
				Note Time="26" Value="F3" Duration="2" Instrument="hex guitar 2"
				Note Time="28" Value="C4" Duration="2" Instrument="hex guitar 2"
				Note Time="30" Value="A#3" Duration="2" Instrument="hex guitar 2"
			Pattern Name="Pattern 13" Color="62ffff"
				Note Time="0" Value="C4" Duration="2" Instrument="hex guitar 2"
				Note Time="2" Value="C3" Duration="2" Instrument="hex guitar 2"
				Note Time="4" Value="F3" Duration="2" Instrument="hex guitar 2"
				Note Time="6" Value="C3" Duration="2" Instrument="hex guitar 2"
				Note Time="8" Value="F3" Duration="2" Instrument="hex guitar 2"
				Note Time="10" Value="G3" Duration="2" Instrument="hex guitar 2"
				Note Time="12" Value="A3" Duration="2" Instrument="hex guitar 2"
				Note Time="14" Value="C3" Duration="2" Instrument="hex guitar 2"
				Note Time="16" Value="A#3" Duration="2" Instrument="hex guitar 2"
				Note Time="18" Value="D3" Duration="2" Instrument="hex guitar 2"
				Note Time="20" Value="G3" Duration="2" Instrument="hex guitar 2"
				Note Time="22" Value="A3" Duration="4" Instrument="hex guitar 2"
				Note Time="26" Value="D3" Duration="2" Instrument="hex guitar 2"
				Note Time="28" Value="E3" Duration="2" Instrument="hex guitar 2"
				Note Time="30" Value="F3" Duration="2" Instrument="hex guitar 2"
			Pattern Name="Pattern 14" Color="ffafaf"
				Note Time="0" Value="F4" Duration="2" Instrument="hex guitar 2"
				Note Time="2" Value="A3" Duration="2" Instrument="hex guitar 2"
				Note Time="4" Value="D4" Duration="2" Instrument="hex guitar 2"
				Note Time="6" Value="E4" Duration="2" Instrument="hex guitar 2"
				Note Time="8" Value="F4" Duration="2" Instrument="hex guitar 2"
				Note Time="10" Value="A3" Duration="2" Instrument="hex guitar 2"
				Note Time="12" Value="D4" Duration="2" Instrument="hex guitar 2"
				Note Time="14" Value="F4" Duration="2" Instrument="hex guitar 2"
				Note Time="16" Value="E4" Duration="2" Instrument="hex guitar 2"
				Note Time="18" Value="A3" Duration="2" Instrument="hex guitar 2"
				Note Time="20" Value="A4" Duration="2" Instrument="hex guitar 2"
				Note Time="22" Value="D4" Duration="4" Instrument="hex guitar 2"
				Note Time="26" Value="F3" Duration="2" Instrument="hex guitar 2"
				Note Time="28" Value="C4" Duration="2" Instrument="hex guitar 2"
				Note Time="30" Value="A#3" Duration="2" Instrument="hex guitar 2"
			Pattern Name="Pattern 15" Color="f6a4ff"
				Note Time="0" Value="C4" Duration="2" Instrument="hex guitar 2"
				Note Time="2" Value="C3" Duration="2" Instrument="hex guitar 2"
				Note Time="4" Value="F3" Duration="2" Instrument="hex guitar 2"
				Note Time="6" Value="C3" Duration="2" Instrument="hex guitar 2"
				Note Time="8" Value="F3" Duration="2" Instrument="hex guitar 2"
				Note Time="10" Value="G3" Duration="2" Instrument="hex guitar 2"
				Note Time="12" Value="A3" Duration="2" Instrument="hex guitar 2"
				Note Time="14" Value="C3" Duration="2" Instrument="hex guitar 2"
				Note Time="16" Value="A#3" Duration="2" Instrument="hex guitar 2"
				Note Time="18" Value="D3" Duration="2" Instrument="hex guitar 2"
				Note Time="20" Value="G3" Duration="2" Instrument="hex guitar 2"
				Note Time="22" Value="D4" Duration="4" Instrument="hex guitar 2"
				Note Time="26" Value="F4" Duration="2" Instrument="hex guitar 2"
				Note Time="28" Value="E4" Duration="2" Instrument="hex guitar 2"
				Note Time="30" Value="D4" Duration="2" Instrument="hex guitar 2"
			Pattern Name="Pattern 16" Color="ffc83c"
				Note Time="1" Value="F4" Duration="1" Instrument="echo" Volume="15"
				Note Time="2" Value="D4" Duration="1" Instrument="echo"
				Note Time="3" Value="B3" Duration="1" Instrument="echo"
				Note Time="4" Value="G#3" Duration="1" Instrument="echo"
				Note Time="5" Value="F3" Duration="1" Instrument="echo"
				Note Time="6" Value="D3" Duration="1" Instrument="echo"
				Note Time="7" Value="F3" Duration="1" Instrument="echo"
				Note Time="8" Value="D3" Duration="1" Instrument="echo"
				Note Time="9" Value="B2" Duration="1" Instrument="echo"
				Note Time="10" Value="D3" Duration="1" Instrument="echo"
				Note Time="11" Value="B2" Duration="1" Instrument="echo"
				Note Time="12" Value="G#2" Duration="1" Instrument="echo"
				Note Time="13" Value="F3" Duration="1" Instrument="echo"
				Note Time="14" Value="D3" Duration="1" Instrument="echo"
				Note Time="15" Value="B2" Duration="1" Instrument="echo"
				Note Time="16" Value="G#3" Duration="1" Instrument="echo"
				Note Time="17" Value="G3" Duration="1" Instrument="echo"
				Note Time="18" Value="A3" Duration="1" Instrument="echo"
				Note Time="19" Value="B3" Duration="1" Instrument="echo"
				Note Time="20" Value="D4" Duration="1" Instrument="echo"
				Note Time="21" Value="B3" Duration="1" Instrument="echo"
				Note Time="22" Value="D4" Duration="1" Instrument="echo"
				Note Time="23" Value="F4" Duration="1" Instrument="echo"
				Note Time="24" Value="G#4" Duration="1" Instrument="echo"
				Note Time="25" Value="G4" Duration="4" Instrument="echo"
			Pattern Name="Pattern 40" Color="ffffb1"
				Note Time="0" Value="G#2" Duration="2" Instrument="blank string"
				Note Time="2" Value="A#2" Duration="2" Instrument="blank string"
				Note Time="4" Value="D#3" Duration="2" Instrument="blank string"
				Note Time="6" Value="G#3" Duration="2" Instrument="blank string"
				Note Time="8" Value="A#3" Duration="2" Instrument="blank string"
				Note Time="10" Value="C4" Duration="2" Instrument="blank string"
				Note Time="12" Value="G4" Duration="2" Instrument="blank string"
				Note Time="14" Value="G#4" Duration="9" Release="5" Instrument="jaezu lead"
			Pattern Name="Pattern 42" Color="ff8f8c"
				Note Time="0" Value="A4" Duration="6" Release="5" Instrument="jaezu lead"
				Note Time="6" Value="A3" Duration="6" Instrument="hex guitar 2"
				Note Time="12" Value="D4" Duration="6" Instrument="hex guitar 2"
				Note Time="18" Value="E4" Duration="6" Instrument="hex guitar 2"
				Note Time="24" Value="C4" Duration="8" Instrument="hex guitar 2"
			Pattern Name="Pattern 43" Color="88eb8c"
				Note Time="0" Value="A#3" Duration="6" Instrument="hex guitar 2"
				Note Time="6" Value="A3" Duration="6" Instrument="hex guitar 2"
				Note Time="12" Value="C4" Duration="6" Instrument="hex guitar 2"
				Note Time="18" Value="G3" Duration="6" Instrument="hex guitar 2"
				Note Time="24" Value="C4" Duration="8" Instrument="hex guitar 2"
			Pattern Name="Pattern 44" Color="ffef3c"
				Note Time="0" Value="D4" Duration="6" Instrument="hex guitar 2"
				Note Time="6" Value="A3" Duration="6" Instrument="hex guitar 2"
				Note Time="12" Value="D4" Duration="6" Instrument="hex guitar 2"
				Note Time="18" Value="E4" Duration="6" Instrument="hex guitar 2"
				Note Time="24" Value="C4" Duration="8" Instrument="hex guitar 2"
			Pattern Name="Pattern 46" Color="dad960"
				Note Time="0" Value="B4" Duration="6" Instrument="hex guitar 2"
				Note Time="6" Value="B3" Duration="6" Instrument="hex guitar 2"
				Note Time="12" Value="E4" Duration="6" Instrument="hex guitar 2"
				Note Time="18" Value="F#4" Duration="6" Instrument="hex guitar 2"
				Note Time="24" Value="D4" Duration="8" Instrument="hex guitar 2"
			Pattern Name="Pattern 47" Color="ba93fe"
				Note Time="0" Value="C4" Duration="6" Instrument="hex guitar 2"
				Note Time="6" Value="B3" Duration="6" Instrument="hex guitar 2"
				Note Time="12" Value="D4" Duration="6" Instrument="hex guitar 2"
				Note Time="18" Value="A3" Duration="6" Instrument="hex guitar 2"
				Note Time="24" Value="D4" Duration="8" Instrument="hex guitar 2"
			Pattern Name="Pattern 49" Color="ffafaf"
				Note Time="0" Value="E4" Duration="6" Instrument="hex guitar 2"
				Note Time="6" Value="B3" Duration="6" Instrument="hex guitar 2"
				Note Time="12" Value="E4" Duration="6" Instrument="hex guitar 2"
				Note Time="18" Value="F#4" Duration="6" Instrument="hex guitar 2"
				Note Time="24" Value="D4" Duration="8" Instrument="hex guitar 2"
			Pattern Name="Pattern 50" Color="a2f7a6"
				Note Time="0" Value="C4" Duration="6" Instrument="hex guitar 2"
				Note Time="6" Value="B3" Duration="6" Instrument="hex guitar 2"
				Note Time="12" Value="D4" Duration="6" Instrument="hex guitar 2"
				Note Time="18" Value="A3" Duration="6" Instrument="hex guitar 2"
				Note Time="24" Value="D4" Duration="8" Instrument="hex guitar 2"
			Pattern Name="Pattern 51" Color="7b8df1"
				Note Time="0" Volume="8"
				Note Time="6" Value="F#2" Duration="2" Instrument="blank string"
				Note Time="8" Value="G2" Duration="2" Instrument="blank string"
				Note Time="10" Value="B2" Duration="2" Instrument="blank string"
				Note Time="12" Value="E3" Duration="6" Instrument="blank string"
				Note Time="18" Value="F#3" Duration="6" Instrument="blank string"
				Note Time="24" Value="D3" Duration="8" Instrument="blank string"
			Pattern Name="Pattern 52" Color="ffef3c"
				Note Time="0" Value="C2" Duration="2" Instrument="blank string" FinePitch="0"
				Note Time="2" Value="G2" Duration="2" Instrument="blank string"
				Note Time="4" Value="C3" Duration="2" Instrument="blank string"
				Note Time="6" Value="E3" Duration="2" Instrument="blank string"
				Note Time="8" Value="G3" Duration="2" Instrument="blank string"
				Note Time="10" Value="B3" Duration="2" Instrument="blank string"
				Note Time="12" Value="C4" Duration="4" Instrument="jaezu lead"
				Note Time="16" Value="D3" Duration="2" Instrument="blank string"
				Note Time="18" Value="A2" Duration="2" Instrument="blank string"
				Note Time="20" Value="D3" Duration="4" Instrument="blank string"
				Note Time="24" Value="F#3" Duration="4" Instrument="blank string"
				Note Time="28" Value="D4" Duration="4" Instrument="blank string"
			Pattern Name="Pattern 53" Color="51a1fc"
				Note Time="0" Value="G3" Duration="6" Instrument="blank string"
				Note Time="6" Value="F#3" Duration="6" Instrument="blank string"
				Note Time="12" Value="D3" Duration="6" Instrument="blank string"
				Note Time="18" Value="G3" Duration="6" Instrument="blank string"
				Note Time="24" Value="F#3" Duration="4" Instrument="blank string"
				Note Time="28" Value="D3" Duration="4" Instrument="blank string"
			Pattern Name="Pattern 54" Color="fff389"
				Note Time="0" Value="C2" Duration="2" Instrument="blank string"
				Note Time="2" Value="D2" Duration="2" Instrument="blank string"
				Note Time="4" Value="G2" Duration="2" Instrument="blank string"
				Note Time="6" Value="C3" Duration="2" Instrument="blank string"
				Note Time="8" Value="D3" Duration="2" Instrument="blank string"
				Note Time="10" Value="E3" Duration="2" Instrument="blank string"
				Note Time="12" Value="B3" Duration="2" Instrument="blank string"
				Note Time="14" Value="C4" Duration="10" Instrument="jaezu lead"
				Note Time="18" Value="F#3" Duration="2" Instrument="blank string"
				Note Time="20" Value="B3" Duration="2" Instrument="blank string"
				Note Time="22" Value="C#4" Duration="2" Instrument="blank string"
				Note Time="24" Value="D4" Duration="6" Instrument="blank string"
				Note Time="30" Value="C#4" Duration="6" Instrument="blank string"
			Pattern Name="Pattern 36" Color="7ee1ff"
				Note Time="4" Value="B2" Duration="1" Instrument="blank string"
				Note Time="5" Value="E3" Duration="1" Instrument="blank string"
				Note Time="6" Value="G3" Duration="1" Instrument="blank string"
				Note Time="7" Value="B3" Duration="12" Instrument="blank string"
			PatternInstance Time="0" Pattern="Pattern 27"
			PatternInstance Time="1" Pattern="Pattern 28"
			PatternInstance Time="2" Pattern="Pattern 29"
			PatternInstance Time="3" Pattern="Pattern 30"
			PatternInstance Time="4" Pattern="Pattern 32"
			PatternInstance Time="5" Pattern="Pattern 17"
			PatternInstance Time="6" Pattern="Pattern 18"
			PatternInstance Time="7" Pattern="Pattern 19"
			PatternInstance Time="8" Pattern="Pattern 20"
			PatternInstance Time="9" Pattern="Pattern 17"
			PatternInstance Time="10" Pattern="Pattern 18"
			PatternInstance Time="11" Pattern="Pattern 19"
			PatternInstance Time="12" Pattern="Pattern 21"
			PatternInstance Time="13" Pattern="Pattern 22"
			PatternInstance Time="14" Pattern="Pattern 23"
			PatternInstance Time="15" Pattern="Pattern 24"
			PatternInstance Time="16" Pattern="Pattern 25"
			PatternInstance Time="17" Pattern="Pattern 26"
			PatternInstance Time="18" Pattern="Pattern 31"
			PatternInstance Time="19" Pattern="Pattern 33"
			PatternInstance Time="20" Pattern="Pattern 31"
			PatternInstance Time="21" Pattern="Pattern 34"
			PatternInstance Time="22" Pattern="Pattern 37"
			PatternInstance Time="23" Pattern="Pattern 38"
			PatternInstance Time="24" Pattern="Pattern 39"
			PatternInstance Time="25" Pattern="Pattern 12"
			PatternInstance Time="26" Pattern="Pattern 35"
			PatternInstance Time="27" Pattern="Pattern 12"
			PatternInstance Time="29" Pattern="Pattern 5"
			PatternInstance Time="30" Pattern="Pattern 6"
			PatternInstance Time="31" Pattern="Pattern 5"
			PatternInstance Time="32" Pattern="Pattern 6"
			PatternInstance Time="33" Pattern="Pattern 3"
			PatternInstance Time="34" Pattern="Pattern 1"
			PatternInstance Time="35" Pattern="Pattern 2"
			PatternInstance Time="36" Pattern="Pattern 4"
			PatternInstance Time="37" Pattern="Pattern 7"
			PatternInstance Time="38" Pattern="Pattern 8"
			PatternInstance Time="39" Pattern="Pattern 9"
			PatternInstance Time="40" Pattern="Pattern 10"
			PatternInstance Time="41" Pattern="Pattern 7"
			PatternInstance Time="42" Pattern="Pattern 8"
			PatternInstance Time="43" Pattern="Pattern 9"
			PatternInstance Time="44" Pattern="Pattern 10"
			PatternInstance Time="45" Pattern="Pattern 11"
			PatternInstance Time="46" Pattern="Pattern 13"
			PatternInstance Time="47" Pattern="Pattern 14"
			PatternInstance Time="48" Pattern="Pattern 15"
			PatternInstance Time="49" Pattern="Pattern 11"
			PatternInstance Time="50" Pattern="Pattern 13"
			PatternInstance Time="51" Pattern="Pattern 14"
			PatternInstance Time="52" Pattern="Pattern 15"
			PatternInstance Time="53" Pattern="Pattern 16"
			PatternInstance Time="54" Pattern="Pattern 17"
			PatternInstance Time="55" Pattern="Pattern 18"
			PatternInstance Time="56" Pattern="Pattern 19"
			PatternInstance Time="57" Pattern="Pattern 20"
			PatternInstance Time="58" Pattern="Pattern 17"
			PatternInstance Time="59" Pattern="Pattern 18"
			PatternInstance Time="60" Pattern="Pattern 19"
			PatternInstance Time="61" Pattern="Pattern 21"
			PatternInstance Time="62" Pattern="Pattern 22"
			PatternInstance Time="63" Pattern="Pattern 23"
			PatternInstance Time="64" Pattern="Pattern 24"
			PatternInstance Time="65" Pattern="Pattern 40"
			PatternInstance Time="66" Pattern="Pattern 42"
			PatternInstance Time="67" Pattern="Pattern 43"
			PatternInstance Time="68" Pattern="Pattern 44"
			PatternInstance Time="69" Pattern="Pattern 43"
			PatternInstance Time="70" Pattern="Pattern 46"
			PatternInstance Time="71" Pattern="Pattern 47"
			PatternInstance Time="72" Pattern="Pattern 49"
			PatternInstance Time="73" Pattern="Pattern 50"
			PatternInstance Time="74" Pattern="Pattern 46"
			PatternInstance Time="75" Pattern="Pattern 47"
			PatternInstance Time="76" Pattern="Pattern 49"
			PatternInstance Time="77" Pattern="Pattern 50"
			PatternInstance Time="78" Pattern="Pattern 51"
			PatternInstance Time="79" Pattern="Pattern 52"
			PatternInstance Time="80" Pattern="Pattern 53"
			PatternInstance Time="81" Pattern="Pattern 54"
			PatternInstance Time="82" Pattern="Pattern 36"
		Channel Type="Triangle"
			Pattern Name="Pattern 23" Color="ff8f8c"
				Note Time="0" Value="G3" Duration="16" Instrument="blank"
				Note Time="16" Value="G#3" Duration="16" Instrument="blank"
			Pattern Name="Pattern 25" Color="8d69e4"
				Note Time="0" Value="A3" Duration="16" Instrument="blank"
				Note Time="16" Value="G#3" Duration="16" Instrument="blank"
			Pattern Name="Pattern 26" Color="8a706a"
				Note Time="0" Value="G3" Duration="16" Instrument="blank"
				Note Time="16" Value="G#3" Duration="16" Instrument="blank"
			Pattern Name="Pattern 29" Color="62e2d6"
				Note Time="0" Value="A3" Duration="16" Instrument="blank"
				Note Time="16" Value="G#3" Duration="16" Instrument="blank"
			Pattern Name="Pattern 27" Color="a0f1ff"
				Note Time="29" Value="G3" Duration="1" Instrument="blank"
				Note Time="30" Value="D4" Duration="1" Instrument="blank"
				Note Time="31" Value="D#4" Duration="1" Instrument="blank"
			Pattern Name="Pattern 15" Color="f6a4ff"
				Note Time="0" Value="G4" Duration="16" Instrument="blank"
				Note Time="16" Value="F4" Duration="8" Instrument="blank"
				Note Time="24" Value="G#4" Duration="8" Instrument="blank"
			Pattern Name="Pattern 16" Color="ffc6a1"
				Note Time="0" Value="G4" Duration="8" Instrument="blank"
				Note Time="8" Value="G4" Duration="24" Instrument="jaezu lead"
			Pattern Name="Pattern 17" Color="ffff93"
				Note Time="0" Value="G#4" Duration="8" Instrument="blank"
				Note Time="8" Value="D#5" Duration="8" Instrument="blank"
				Note Time="16" Value="D5" Duration="8" Instrument="blank"
				Note Time="24" Value="G#4" Duration="4" Instrument="blank"
				Note Time="28" Value="A#4" Duration="4" Instrument="blank"
			Pattern Name="Pattern 18" Color="ffac7f"
				Note Time="0" Value="C5" Duration="8" Instrument="blank"
				Note Time="8" Value="C5" Duration="24" Instrument="jaezu lead"
			Pattern Name="Pattern 19" Color="8d69e4"
				Note Time="0" Value="G#4" Duration="8" Instrument="blank"
				Note Time="8" Value="D#5" Duration="8" Instrument="blank"
				Note Time="16" Value="D5" Duration="8" Instrument="blank"
				Note Time="24" Value="F5" Duration="8" Instrument="blank"
			Pattern Name="Pattern 28" Color="b75bde"
				Note Time="0" Value="G5" Duration="8" Instrument="blank"
				Note Time="8" Value="G5" Duration="9" Instrument="jaezu lead"
				Note Time="16" Value="D5" Duration="8" Instrument="blank"
				Note Time="24" Value="D5" Duration="8" Instrument="jaezu lead"
			Pattern Name="Pattern 36" Color="ff6464"
				Note Time="0" Value="C6" Duration="4" Instrument="jaezu lead"
			Pattern Name="Pattern 21" Color="ff8f8c"
				Note Time="0" Value="D#4" Duration="6" Instrument="blank string"
				Note Time="6" Value="D4" Duration="6" Instrument="blank string"
				Note Time="12" Value="A#3" Duration="6" Instrument="blank string"
				Note Time="18" Value="D#4" Duration="6" Instrument="blank string"
				Note Time="24" Value="D4" Duration="4" Instrument="blank string"
				Note Time="28" Value="A#3" Duration="4" Instrument="blank string"
			Pattern Name="Pattern 24" Color="89ffff"
				Note Time="0" Value="D#4" Duration="2" Instrument="blank string"
				Note Time="2" Value="D#3" Duration="2" Instrument="blank string"
				Note Time="4" Value="C4" Duration="2" Instrument="blank string"
				Note Time="6" Value="G4" Duration="4" Instrument="jaezu lead"
				Note Time="10" Value="F4" Duration="4" Instrument="jaezu lead"
				Note Time="14" Value="D4" Duration="4" Instrument="jaezu lead"
				Note Time="18" Value="F3" Duration="2" Instrument="blank string"
				Note Time="20" Value="C4" Duration="2" Instrument="blank string"
				Note Time="22" Value="D4" Duration="2" Instrument="blank string"
				Note Time="24" Value="D#4" Duration="4" Instrument="blank string"
				Note Time="28" Value="D4" Duration="4" Instrument="blank string"
			Pattern Name="Pattern 30" Color="6c7bdb"
				Note Time="0" Value="G3" Duration="12" Instrument="blank string"
				Note Time="12" Value="D#3" Duration="20" Instrument="blank string"
			Pattern Name="Pattern 10" Color="6471cf"
				Note Time="0" Value="G#3" Duration="12" Instrument="blank string"
				Note Time="12" Value="A#3" Duration="16" Instrument="blank string"
				Note Time="28" Value="C4" Duration="12" Instrument="blank string"
			Pattern Name="Pattern 13" Color="51a1fc"
				Note Time="0" Value="C3" Duration="2" Instrument="blank string"
				Note Time="2" Value="C4" Duration="2" Instrument="blank string"
				Note Time="4" Value="C3" Duration="2" Instrument="blank string"
				Note Time="6" Value="C4" Duration="2" Instrument="blank string"
				Note Time="8" Value="C3" Duration="2" Instrument="blank string"
				Note Time="10" Value="C4" Duration="2" Instrument="blank string"
				Note Time="12" Value="C3" Duration="2" Instrument="blank string"
				Note Time="14" Value="C4" Duration="2" Instrument="blank string"
				Note Time="16" Value="C3" Duration="2" Instrument="blank string"
				Note Time="18" Value="C4" Duration="2" Instrument="blank string"
				Note Time="20" Value="C3" Duration="2" Instrument="blank string"
				Note Time="22" Value="C4" Duration="2" Instrument="blank string"
				Note Time="24" Value="C3" Duration="2" Instrument="blank string"
				Note Time="26" Value="C4" Duration="2" Instrument="blank string"
				Note Time="28" Value="A#2" Duration="2" Instrument="blank string"
				Note Time="30" Value="A#3" Duration="2" Instrument="blank string"
			Pattern Name="Pattern 33" Color="ff9ece"
				Note Time="0" Value="G#2" Duration="2" Instrument="blank string"
				Note Time="2" Value="G#3" Duration="2" Instrument="blank string"
				Note Time="4" Value="G#2" Duration="2" Instrument="blank string"
				Note Time="6" Value="G#3" Duration="2" Instrument="blank string"
				Note Time="8" Value="G#2" Duration="2" Instrument="blank string"
				Note Time="10" Value="G#3" Duration="2" Instrument="blank string"
				Note Time="12" Value="G#2" Duration="2" Instrument="blank string"
				Note Time="14" Value="G#3" Duration="2" Instrument="blank string"
				Note Time="16" Value="A#2" Duration="2" Instrument="blank string"
				Note Time="18" Value="A#3" Duration="2" Instrument="blank string"
				Note Time="20" Value="A#2" Duration="2" Instrument="blank string"
				Note Time="22" Value="A#3" Duration="2" Instrument="blank string"
				Note Time="24" Value="A#2" Duration="2" Instrument="blank string"
				Note Time="26" Value="A#3" Duration="2" Instrument="blank string"
				Note Time="28" Value="D3" Duration="2" Instrument="blank string"
				Note Time="30" Value="D4" Duration="2" Instrument="blank string"
			Pattern Name="Pattern 34" Color="fff389"
				Note Time="0" Value="C3" Duration="2" Instrument="blank string"
				Note Time="2" Value="C4" Duration="2" Instrument="blank string"
				Note Time="4" Value="C3" Duration="2" Instrument="blank string"
				Note Time="6" Value="C4" Duration="2" Instrument="blank string"
				Note Time="8" Value="C3" Duration="2" Instrument="blank string"
				Note Time="10" Value="C4" Duration="2" Instrument="blank string"
				Note Time="12" Value="C3" Duration="2" Instrument="blank string"
				Note Time="14" Value="C4" Duration="2" Instrument="blank string"
				Note Time="16" Value="C3" Duration="2" Instrument="blank string"
				Note Time="18" Value="C4" Duration="2" Instrument="blank string"
				Note Time="20" Value="C3" Duration="2" Instrument="blank string"
				Note Time="22" Value="C4" Duration="2" Instrument="blank string"
				Note Time="24" Value="A#2" Duration="2" Instrument="blank string"
				Note Time="26" Value="A#3" Duration="2" Instrument="blank string"
				Note Time="28" Value="A#2" Duration="2" Instrument="blank string"
				Note Time="30" Value="A#3" Duration="2" Instrument="blank string"
			Pattern Name="Pattern 35" Color="d8ffa1"
				Note Time="0" Value="G#2" Duration="2" Instrument="blank string"
				Note Time="2" Value="G#3" Duration="2" Instrument="blank string"
				Note Time="4" Value="G#2" Duration="2" Instrument="blank string"
				Note Time="6" Value="G#3" Duration="2" Instrument="blank string"
				Note Time="8" Value="G#2" Duration="2" Instrument="blank string"
				Note Time="10" Value="G#3" Duration="2" Instrument="blank string"
				Note Time="12" Value="G#2" Duration="2" Instrument="blank string"
				Note Time="14" Value="G#3" Duration="2" Instrument="blank string"
				Note Time="16" Value="A#2" Duration="2" Instrument="blank string"
				Note Time="18" Value="A#3" Duration="2" Instrument="blank string"
				Note Time="20" Value="A#2" Duration="2" Instrument="blank string"
				Note Time="22" Value="A#3" Duration="2" Instrument="blank string"
			Pattern Name="Pattern 31" Color="d863ec"
				Note Time="1" Volume="10"
				Note Time="2" Value="C2" Duration="2" Instrument="Instrument 3"
				Note Time="6" Value="C2" Duration="2" Instrument="Instrument 3"
				Note Time="10" Value="C2" Duration="2" Instrument="Instrument 3"
				Note Time="14" Value="C2" Duration="2" Instrument="Instrument 3"
				Note Time="18" Value="C2" Duration="2" Instrument="Instrument 3"
				Note Time="22" Value="C2" Duration="2" Instrument="Instrument 3"
				Note Time="26" Value="C2" Duration="2" Instrument="Instrument 3"
				Note Time="30" Value="C2" Duration="2" Instrument="Instrument 3"
			Pattern Name="Pattern 32" Color="8163dc"
				Note Time="1" Volume="10"
				Note Time="2" Value="C2" Duration="2" Instrument="Instrument 3"
				Note Time="6" Value="C2" Duration="2" Instrument="Instrument 3"
				Note Time="10" Value="C2" Duration="2" Instrument="Instrument 3"
				Note Time="14" Value="C2" Duration="2" Instrument="Instrument 3"
				Note Time="18" Value="A#1" Duration="2" Instrument="Instrument 3"
				Note Time="22" Value="A#1" Duration="2" Instrument="Instrument 3"
				Note Time="26" Value="A#1" Duration="2" Instrument="Instrument 3"
				Note Time="30" Value="A#1" Duration="2" Instrument="Instrument 3"
			Pattern Name="Pattern 14" Color="3ca598"
				Note Time="1" Volume="10"
				Note Time="2" Value="C2" Duration="2" Instrument="Instrument 3"
				Note Time="6" Value="C2" Duration="2" Instrument="Instrument 3"
				Note Time="10" Value="C2" Duration="2" Instrument="Instrument 3"
				Note Time="14" Value="C2" Duration="2" Instrument="Instrument 3"
				Note Time="18" Value="C2" Duration="2" Instrument="Instrument 3"
				Note Time="22" Value="C2" Duration="2" Instrument="Instrument 3"
				Note Time="24" Value="C2" Duration="1" Instrument="Instrument 3"
				Note Time="25" Value="C2" Duration="1" Instrument="Instrument 3"
				Note Time="26" Value="C2" Duration="1" Instrument="Instrument 3"
				Note Time="27" Value="C2" Duration="1" Instrument="Instrument 3"
				Note Time="28" Value="C2" Duration="1" Instrument="Instrument 3"
				Note Time="29" Value="C2" Duration="1" Instrument="Instrument 3"
				Note Time="30" Value="C2" Duration="1" Instrument="Instrument 3"
				Note Time="31" Value="C2" Duration="1" Instrument="Instrument 3"
			Pattern Name="Pattern 1" Color="ff8f8c"
				Note Time="0" Value="C3" Duration="4" Instrument="triangle drums"
				Note Time="4" Value="C3" Duration="4" Instrument="triangle drums"
				Note Time="8" Value="C3" Duration="4" Instrument="triangle drums"
				Note Time="12" Value="C3" Duration="4" Instrument="triangle drums"
				Note Time="16" Value="C3" Duration="4" Instrument="triangle drums"
				Note Time="20" Value="C3" Duration="4" Instrument="triangle drums"
				Note Time="24" Value="C3" Duration="4" Instrument="triangle drums"
				Note Time="28" Value="C3" Duration="4" Instrument="triangle drums"
			Pattern Name="Pattern 6" Color="e783f8"
				Note Time="0" Value="B3" Duration="1" Instrument="triangle pluck 4"
				Note Time="1" Value="D#3" Duration="1" Instrument="triangle pluck 4"
				Note Time="2" Value="G3" Duration="1" Instrument="triangle pluck 4"
				Note Time="3" Value="B3" Duration="1" Instrument="triangle pluck 4"
				Note Time="4" Value="D4" Duration="1" Instrument="triangle pluck 4"
				Note Time="5" Value="G3" Duration="1" Instrument="triangle pluck 4"
				Note Time="6" Value="F4" Duration="1" Instrument="triangle pluck 4"
				Note Time="7" Value="D4" Duration="1" Instrument="triangle pluck 4"
				Note Time="8" Value="F4" Duration="1" Instrument="triangle pluck 4"
				Note Time="9" Value="D4" Duration="1" Instrument="triangle pluck 4"
				Note Time="10" Value="G4" Duration="1" Instrument="triangle pluck 4"
				Note Time="11" Value="F4" Duration="1" Instrument="triangle pluck 4"
				Note Time="12" Value="F4" Duration="1" Instrument="triangle pluck 4"
				Note Time="13" Value="D4" Duration="1" Instrument="triangle pluck 4"
				Note Time="14" Value="B4" Duration="1" Instrument="triangle pluck 4"
				Note Time="15" Value="G4" Duration="1" Instrument="triangle pluck 4"
				Note Time="16" Value="B4" Duration="1" Instrument="triangle pluck 4"
				Note Time="17" Value="G5" Duration="1" Instrument="triangle pluck 4"
				Note Time="18" Value="D5" Duration="1" Instrument="triangle pluck 4"
				Note Time="19" Value="B5" Duration="1" Instrument="triangle pluck 4"
				Note Time="20" Value="B4" Duration="1" Instrument="triangle pluck 4"
				Note Time="21" Value="G4" Duration="1" Instrument="triangle pluck 4"
				Note Time="22" Value="D5" Duration="1" Instrument="triangle pluck 4"
				Note Time="23" Value="B4" Duration="1" Instrument="triangle pluck 4"
				Note Time="24" Value="G5" Duration="1" Instrument="triangle pluck 4"
				Note Time="25" Value="F5" Duration="1" Instrument="triangle pluck 4"
				Note Time="26" Value="D#5" Duration="1" Instrument="triangle pluck 4"
				Note Time="27" Value="D5" Duration="1" Instrument="triangle pluck 4"
				Note Time="28" Value="F5" Duration="1" Instrument="triangle pluck 4"
				Note Time="29" Value="D#5" Duration="1" Instrument="triangle pluck 4"
				Note Time="30" Value="D5" Duration="1" Instrument="triangle pluck 4"
				Note Time="31" Value="D#5" Duration="1" Instrument="triangle pluck 4"
			Pattern Name="Pattern 2" Color="5dd2ff"
				Note Time="0" Value="C7" Duration="52" Instrument="blank" SlideTarget="C3" Volume="5"
			Pattern Name="Pattern 3" Color="7fdc83"
				Note Time="0" Value="C4" Duration="16" Instrument="blank string" Volume="2"
				Note Time="16" Value="D4" Duration="6" Instrument="blank string"
				Note Time="22" Value="D#4" Duration="10" Instrument="blank string"
			Pattern Name="Pattern 4" Color="55b2ff"
				Note Time="0" Value="G3" Duration="16" Instrument="blank string"
				Note Time="16" Value="G#3" Duration="4" Instrument="blank string"
				Note Time="20" Value="F3" Duration="3" Instrument="blank string"
				Note Time="22" Value="D#3" Duration="6" Instrument="blank string"
				Note Time="28" Value="D#4" Duration="4" Instrument="blank" Arpeggio="Arp 30" SlideTarget="A5"
			Pattern Name="Pattern 5" Color="ffa83c"
				Note Time="0" Value="A#3" Duration="16" Instrument="blank string"
				Note Time="16" Value="G#3" Duration="5" Instrument="blank string"
				Note Time="20" Value="G3" Duration="12" Instrument="blank string"
			Pattern Name="Pattern 7" Color="eaffbd"
				Note Time="0" Value="C5" Duration="16" Instrument="clutterfunk sax" Volume="15"
				Note Time="16" Value="D5" Duration="6" Instrument="clutterfunk sax"
				Note Time="22" Value="D#5" Duration="10" Instrument="clutterfunk sax"
			Pattern Name="Pattern 8" Color="d863ec"
				Note Time="0" Value="G4" Duration="16" Instrument="clutterfunk sax"
				Note Time="16" Value="G#4" Duration="6" Instrument="clutterfunk sax"
				Note Time="22" Value="C5" Duration="6" Instrument="clutterfunk sax"
				Note Time="28" Value="F3" Duration="5" Instrument="blank" Arpeggio="Arp 5F" SlideTarget="F#5"
			Pattern Name="Pattern 9" Color="ffff93"
				Note Time="0" Value="D5" Duration="16" Instrument="DMC: drums + bass"
				Note Time="16" Value="E5" Duration="6" Instrument="DMC: drums + bass"
				Note Time="22" Value="F5" Duration="10" Instrument="DMC: drums + bass"
			Pattern Name="Pattern 11" Color="ffac7f"
				Note Time="0" Value="C5" Duration="16" Instrument="DMC: drums + bass"
				Note Time="16" Value="A#4" Duration="6" Instrument="DMC: drums + bass"
				Note Time="22" Value="A4" Duration="10" Instrument="DMC: drums + bass"
			Pattern Name="Pattern 12" Color="3ce8fd"
				Note Time="0" Value="A4" Duration="16" Instrument="DMC: drums + bass"
				Note Time="16" Value="A#4" Duration="4" Instrument="DMC: drums + bass"
				Note Time="20" Value="G4" Duration="2" Instrument="DMC: drums + bass"
				Note Time="22" Value="D5" Duration="4" Instrument="DMC: drums + bass"
				Note Time="26" Value="D5" Duration="2" Instrument="DMC: drums + bass"
				Note Time="28" Value="D5" Duration="2" Instrument="blank"
				Note Time="30" Value="D#4" Duration="2" Instrument="blank" Arpeggio="Arp 30" SlideTarget="A5"
			Pattern Name="Pattern 20" Color="997c73"
				Note Time="0" Value="G5" Duration="8" Instrument="blank"
				Note Time="8" Value="G5" Duration="9" Instrument="jaezu lead"
				Note Time="16" Value="B5" Duration="8" Instrument="blank"
				Note Time="24" Value="B5" Duration="8" Instrument="jaezu lead"
			Pattern Name="Pattern 22" Color="88eb8c"
				Note Time="0" Value="C6" Duration="12" Instrument="jaezu lead"
			Pattern Name="Pattern 38" Color="a376f3"
				Note Time="0" Value="D#4" Duration="2" Instrument="blank string"
				Note Time="2" Value="D#3" Duration="2" Instrument="blank string"
				Note Time="4" Value="C4" Duration="2" Instrument="blank string"
				Note Time="6" Value="G4" Duration="4" Instrument="jaezu lead"
				Note Time="10" Value="F4" Duration="4" Instrument="jaezu lead"
				Note Time="14" Value="D4" Duration="9" Release="5" Instrument="jaezu lead"
			Pattern Name="Pattern 40" Color="fe5497"
				Note Time="0" Value="A3" Duration="12" Instrument="blank string"
				Note Time="12" Value="F3" Duration="20" Instrument="blank string"
			Pattern Name="Pattern 41" Color="91c76b"
				Note Time="0" Value="A#3" Duration="12" Instrument="blank string"
				Note Time="12" Value="C4" Duration="20" Instrument="blank string"
			Pattern Name="Pattern 44" Color="ffff77"
				Note Time="0" Value="B3" Duration="12" Instrument="blank string"
				Note Time="12" Value="G3" Duration="20" Instrument="blank string"
			Pattern Name="Pattern 45" Color="6c7bdb"
				Note Time="0" Value="C4" Duration="12" Instrument="blank string"
				Note Time="12" Value="D4" Duration="20" Instrument="blank string"
			Pattern Name="Pattern 42" Color="ff579c"
				Note Time="0" Value="B3" Duration="12" Instrument="blank string"
				Note Time="12" Value="G3" Duration="20" Instrument="blank string"
			Pattern Name="Pattern 47" Color="a4db74"
				Note Time="0" Value="C4" Duration="12" Instrument="blank string"
				Note Time="12" Value="D4" Duration="20" Instrument="blank string"
			Pattern Name="Pattern 49" Color="ff8d5a"
				Note Time="0" Value="G4" Duration="6" Instrument="blank string"
				Note Time="6" Value="F#4" Duration="6" Instrument="blank string"
				Note Time="12" Value="D4" Duration="6" Instrument="blank string"
				Note Time="18" Value="G4" Duration="6" Instrument="blank string"
				Note Time="24" Value="F#4" Duration="4" Instrument="blank string"
				Note Time="28" Value="D4" Duration="4" Instrument="blank string"
			Pattern Name="Pattern 50" Color="3cbfcb"
				Note Time="0" Value="G4" Duration="2" Instrument="blank string"
				Note Time="2" Value="G3" Duration="2" Instrument="blank string"
				Note Time="4" Value="E4" Duration="2" Instrument="blank string"
				Note Time="6" Value="B4" Duration="4" Instrument="jaezu lead"
				Note Time="10" Value="A4" Duration="4" Instrument="jaezu lead"
				Note Time="14" Value="F#4" Duration="4" Instrument="jaezu lead"
				Note Time="18" Value="A3" Duration="2" Instrument="blank string"
				Note Time="20" Value="E4" Duration="2" Instrument="blank string"
				Note Time="22" Value="F#4" Duration="2" Instrument="blank string"
				Note Time="24" Value="G4" Duration="6" Instrument="blank string"
				Note Time="30" Value="F#4" Duration="6" Instrument="blank string"
			Pattern Name="Pattern 37" Color="ff5a9f"
				Note Time="7" Value="E3" Duration="12" Instrument="blank string"
			PatternInstance Time="0" Pattern="Pattern 23"
			PatternInstance Time="1" Pattern="Pattern 25"
			PatternInstance Time="2" Pattern="Pattern 26"
			PatternInstance Time="3" Pattern="Pattern 29"
			PatternInstance Time="4" Pattern="Pattern 27"
			PatternInstance Time="5" Pattern="Pattern 15"
			PatternInstance Time="6" Pattern="Pattern 16"
			PatternInstance Time="7" Pattern="Pattern 17"
			PatternInstance Time="8" Pattern="Pattern 18"
			PatternInstance Time="9" Pattern="Pattern 15"
			PatternInstance Time="10" Pattern="Pattern 16"
			PatternInstance Time="11" Pattern="Pattern 19"
			PatternInstance Time="12" Pattern="Pattern 28"
			PatternInstance Time="13" Pattern="Pattern 36"
			PatternInstance Time="15" Pattern="Pattern 21"
			PatternInstance Time="16" Pattern="Pattern 24"
			PatternInstance Time="17" Pattern="Pattern 30"
			PatternInstance Time="18" Pattern="Pattern 10"
			PatternInstance Time="19" Pattern="Pattern 30"
			PatternInstance Time="20" Pattern="Pattern 10"
			PatternInstance Time="21" Pattern="Pattern 13"
			PatternInstance Time="22" Pattern="Pattern 33"
			PatternInstance Time="23" Pattern="Pattern 34"
			PatternInstance Time="24" Pattern="Pattern 35"
			PatternInstance Time="25" Pattern="Pattern 31"
			PatternInstance Time="26" Pattern="Pattern 32"
			PatternInstance Time="27" Pattern="Pattern 14"
			PatternInstance Time="33" Pattern="Pattern 1"
			PatternInstance Time="34" Pattern="Pattern 1"
			PatternInstance Time="35" Pattern="Pattern 1"
			PatternInstance Time="36" Pattern="Pattern 6"
			PatternInstance Time="37" Pattern="Pattern 2"
			PatternInstance Time="39" Pattern="Pattern 3"
			PatternInstance Time="40" Pattern="Pattern 4"
			PatternInstance Time="41" Pattern="Pattern 3"
			PatternInstance Time="42" Pattern="Pattern 5"
			PatternInstance Time="43" Pattern="Pattern 7"
			PatternInstance Time="44" Pattern="Pattern 8"
			PatternInstance Time="45" Pattern="Pattern 9"
			PatternInstance Time="46" Pattern="Pattern 11"
			PatternInstance Time="47" Pattern="Pattern 9"
			PatternInstance Time="48" Pattern="Pattern 12"
			PatternInstance Time="49" Pattern="Pattern 9"
			PatternInstance Time="50" Pattern="Pattern 11"
			PatternInstance Time="51" Pattern="Pattern 9"
			PatternInstance Time="52" Pattern="Pattern 12"
			PatternInstance Time="54" Pattern="Pattern 15"
			PatternInstance Time="55" Pattern="Pattern 16"
			PatternInstance Time="56" Pattern="Pattern 17"
			PatternInstance Time="57" Pattern="Pattern 18"
			PatternInstance Time="58" Pattern="Pattern 15"
			PatternInstance Time="59" Pattern="Pattern 16"
			PatternInstance Time="60" Pattern="Pattern 19"
			PatternInstance Time="61" Pattern="Pattern 20"
			PatternInstance Time="62" Pattern="Pattern 22"
			PatternInstance Time="64" Pattern="Pattern 21"
			PatternInstance Time="65" Pattern="Pattern 38"
			PatternInstance Time="66" Pattern="Pattern 40"
			PatternInstance Time="67" Pattern="Pattern 41"
			PatternInstance Time="68" Pattern="Pattern 40"
			PatternInstance Time="69" Pattern="Pattern 41"
			PatternInstance Time="70" Pattern="Pattern 44"
			PatternInstance Time="71" Pattern="Pattern 45"
			PatternInstance Time="72" Pattern="Pattern 42"
			PatternInstance Time="73" Pattern="Pattern 47"
			PatternInstance Time="74" Pattern="Pattern 44"
			PatternInstance Time="75" Pattern="Pattern 45"
			PatternInstance Time="76" Pattern="Pattern 42"
			PatternInstance Time="77" Pattern="Pattern 47"
			PatternInstance Time="80" Pattern="Pattern 49"
			PatternInstance Time="81" Pattern="Pattern 50"
			PatternInstance Time="82" Pattern="Pattern 37"
		Channel Type="Noise"
			Pattern Name="Pattern 32" Color="c9aa9f"
				Note Time="0" Value="F#3" Duration="4" Instrument="cymbal"
				Note Time="4" Value="G2" Duration="1" Instrument="snare"
				Note Time="6" Value="F#3" Duration="1" Instrument="tight noise kick layer"
				Note Time="8" Value="F#3" Duration="1" Instrument="tight noise kick layer"
				Note Time="10" Value="F#3" Duration="1" Instrument="tight noise kick layer"
				Note Time="12" Value="G2" Duration="1" Instrument="snare"
				Note Time="14" Value="F#3" Duration="1" Instrument="tight noise kick layer"
				Note Time="16" Value="F#3" Duration="1" Instrument="tight noise kick layer"
				Note Time="18" Value="F#3" Duration="1" Instrument="tight noise kick layer"
				Note Time="20" Value="G2" Duration="1" Instrument="snare"
				Note Time="22" Value="F#3" Duration="1" Instrument="tight noise kick layer"
				Note Time="24" Value="F#3" Duration="1" Instrument="tight noise kick layer"
				Note Time="25" Value="F#3" Duration="1" Instrument="tight noise kick layer"
				Note Time="26" Value="F#3" Duration="1" Instrument="tight noise kick layer"
				Note Time="27" Value="F#3" Duration="1" Instrument="tight noise kick layer"
				Note Time="28" Value="G2" Duration="1" Instrument="snare"
				Note Time="29" Value="F#3" Duration="1" Instrument="tight noise kick layer"
				Note Time="30" Value="F#3" Duration="1" Instrument="tight noise kick layer"
				Note Time="31" Value="F#3" Duration="1" Instrument="tight noise kick layer"
			Pattern Name="Pattern 1" Color="ffc6a1"
				Note Time="0" Value="F#3" Duration="1" Instrument="tight noise kick layer"
				Note Time="2" Value="F#3" Duration="1" Instrument="tight noise kick layer"
				Note Time="4" Value="G2" Duration="1" Instrument="snare"
				Note Time="6" Value="F#3" Duration="1" Instrument="tight noise kick layer"
				Note Time="8" Value="F#3" Duration="1" Instrument="tight noise kick layer"
				Note Time="10" Value="F#3" Duration="1" Instrument="tight noise kick layer"
				Note Time="12" Value="G2" Duration="1" Instrument="snare"
				Note Time="14" Value="F#3" Duration="1" Instrument="tight noise kick layer"
				Note Time="16" Value="F#3" Duration="1" Instrument="tight noise kick layer"
				Note Time="18" Value="F#3" Duration="1" Instrument="tight noise kick layer"
				Note Time="20" Value="G2" Duration="1" Instrument="snare"
				Note Time="22" Value="F#3" Duration="1" Instrument="tight noise kick layer"
				Note Time="24" Value="F#3" Duration="1" Instrument="tight noise kick layer"
				Note Time="25" Value="F#3" Duration="1" Instrument="tight noise kick layer"
				Note Time="26" Value="F#3" Duration="1" Instrument="tight noise kick layer"
				Note Time="27" Value="F#3" Duration="1" Instrument="tight noise kick layer"
				Note Time="28" Value="G2" Duration="1" Instrument="snare"
				Note Time="29" Value="F#3" Duration="1" Instrument="tight noise kick layer"
				Note Time="30" Value="F#3" Duration="1" Instrument="tight noise kick layer"
				Note Time="31" Value="F#3" Duration="1" Instrument="tight noise kick layer"
			Pattern Name="Pattern 11" Color="7585e7"
				Note Time="0" Value="E3" Duration="4" Instrument="cymbal"
				Note Time="4" Value="E3" Duration="4" Instrument="cymbal"
				Note Time="8" Value="E3" Duration="4" Instrument="cymbal"
				Note Time="12" Value="E3" Duration="4" Instrument="cymbal"
				Note Time="16" Value="A2" Duration="1" Instrument="kick"
				Note Time="17" Value="A2" Duration="1" Instrument="kick"
				Note Time="18" Value="A2" Duration="1" Instrument="kick"
				Note Time="19" Value="A2" Duration="1" Instrument="kick"
				Note Time="20" Value="A2" Duration="1" Instrument="kick"
				Note Time="21" Value="A2" Duration="1" Instrument="kick"
				Note Time="22" Value="A2" Duration="1" Instrument="kick"
				Note Time="23" Value="A2" Duration="1" Instrument="kick"
				Note Time="24" Value="E3" Duration="5" Instrument="cymbal"
				Note Time="28" Value="A2" Duration="1" Instrument="kick"
			Pattern Name="Pattern 8" Color="91c76b"
				Note Time="0" Value="A2" Duration="1" Instrument="kick"
				Note Time="1" Value="E3" Duration="1" Instrument="rel hats" Volume="9"
				Note Time="2" Value="E3" Duration="1" Instrument="rel hats"
				Note Time="3" Value="E3" Duration="1" Instrument="rel hats"
				Note Time="4" Value="C2" Duration="2" Instrument="clap" Volume="15"
				Note Time="6" Value="E3" Duration="1" Instrument="rel hats" Volume="9"
				Note Time="7" Value="E3" Duration="1" Instrument="rel hats"
				Note Time="8" Value="A2" Duration="1" Instrument="kick" Volume="15"
				Note Time="9" Value="E3" Duration="1" Instrument="rel hats" Volume="9"
				Note Time="10" Value="E3" Duration="1" Instrument="rel hats"
				Note Time="11" Value="E3" Duration="1" Instrument="rel hats"
				Note Time="12" Value="C2" Duration="2" Instrument="clap" Volume="15"
				Note Time="14" Value="E3" Duration="1" Instrument="rel hats" Volume="9"
				Note Time="15" Value="E3" Duration="1" Instrument="rel hats"
				Note Time="16" Value="A2" Duration="1" Instrument="kick" Volume="15"
				Note Time="17" Value="E3" Duration="1" Instrument="rel hats" Volume="9"
				Note Time="18" Value="E3" Duration="1" Instrument="rel hats"
				Note Time="19" Value="E3" Duration="1" Instrument="rel hats"
				Note Time="20" Value="C2" Duration="2" Instrument="clap" Volume="15"
				Note Time="22" Value="E3" Duration="1" Instrument="rel hats" Volume="9"
				Note Time="23" Value="E3" Duration="1" Instrument="rel hats"
				Note Time="24" Value="A2" Duration="1" Instrument="kick" Volume="15"
				Note Time="25" Value="E3" Duration="1" Instrument="rel hats" Volume="9"
				Note Time="26" Value="E3" Duration="1" Instrument="rel hats"
				Note Time="27" Value="E3" Duration="1" Instrument="rel hats"
				Note Time="28" Value="C2" Duration="2" Instrument="clap" Volume="15"
				Note Time="30" Value="E3" Duration="1" Instrument="rel hats" Volume="9"
				Note Time="31" Value="E3" Duration="1" Instrument="rel hats"
			Pattern Name="Pattern 5" Color="89f2e8"
				Note Time="0" Value="F#3" Duration="1" Instrument="rel hats"
				Note Time="2" Value="F#3" Duration="1" Instrument="rel hats"
				Note Time="4" Value="C2" Duration="2" Instrument="clap"
				Note Time="6" Value="F#3" Duration="1" Instrument="rel hats"
				Note Time="8" Value="F#3" Duration="1" Instrument="rel hats"
				Note Time="10" Value="F#3" Duration="1" Instrument="rel hats"
				Note Time="12" Value="C2" Duration="2" Instrument="clap"
				Note Time="14" Value="F#3" Duration="1" Instrument="rel hats"
				Note Time="16" Value="F#3" Duration="1" Instrument="rel hats"
				Note Time="18" Value="F#3" Duration="1" Instrument="rel hats"
				Note Time="20" Value="C2" Duration="2" Instrument="clap"
				Note Time="22" Value="F#3" Duration="1" Instrument="rel hats"
				Note Time="24" Value="F#3" Duration="1" Instrument="rel hats"
				Note Time="26" Value="F#3" Duration="1" Instrument="rel hats"
				Note Time="28" Value="C2" Duration="2" Instrument="clap"
				Note Time="30" Value="F#3" Duration="1" Instrument="rel hats"
			Pattern Name="Pattern 9" Color="f6a4ff"
				Note Time="0" Value="C2" Duration="2" Instrument="clap"
				Note Time="4" Value="C2" Duration="2" Instrument="clap"
				Note Time="8" Value="C2" Duration="2" Instrument="clap"
				Note Time="12" Value="C2" Duration="2" Instrument="clap"
				Note Time="16" Value="C2" Duration="1" Instrument="clap"
				Note Time="18" Value="C2" Duration="1" Instrument="clap"
				Note Time="20" Value="C2" Duration="1" Instrument="clap"
				Note Time="22" Value="C2" Duration="1" Instrument="clap"
				Note Time="24" Value="C2" Duration="1" Instrument="clap"
				Note Time="25" Value="C2" Duration="1" Instrument="clap"
				Note Time="26" Value="C2" Duration="1" Instrument="clap"
				Note Time="27" Value="C2" Duration="1" Instrument="clap"
				Note Time="28" Value="C2" Duration="1" Instrument="clap"
				Note Time="29" Value="C2" Duration="1" Instrument="clap"
				Note Time="30" Value="C2" Duration="1" Instrument="clap"
				Note Time="31" Value="C2" Duration="1" Instrument="clap"
			Pattern Name="Pattern 26" Color="7ee1ff"
				Note Time="0" Value="E3" Duration="4" Instrument="cymbal"
				Note Time="6" Value="C3" Duration="2" Instrument="cymbal"
				Note Time="8" Value="E3" Duration="2" Instrument="cymbal"
				Note Time="22" Value="C3" Duration="2" Instrument="cymbal"
				Note Time="24" Value="E3" Duration="2" Instrument="cymbal"
			Pattern Name="Pattern 31" Color="ffff75"
				Note Time="6" Value="C3" Duration="2" Instrument="cymbal"
				Note Time="8" Value="E3" Duration="2" Instrument="cymbal"
				Note Time="22" Value="C3" Duration="2" Instrument="cymbal"
				Note Time="24" Value="E3" Duration="2" Instrument="cymbal"
				Note Time="28" Value="E3" Duration="1" Instrument="cymbal"
				Note Time="29" Value="E3" Duration="1" Instrument="cymbal"
				Note Time="30" Value="E3" Duration="1" Instrument="cymbal"
				Note Time="31" Value="E3" Duration="1" Instrument="cymbal"
			Pattern Name="Pattern 33" Color="fffd43"
				Note Time="6" Value="C3" Duration="2" Instrument="cymbal"
				Note Time="8" Value="E3" Duration="2" Instrument="cymbal"
				Note Time="22" Value="C3" Duration="2" Instrument="cymbal"
				Note Time="24" Value="E3" Duration="4" Instrument="cymbal"
				Note Time="28" Value="E3" Duration="4" Instrument="cymbal"
			Pattern Name="Pattern 34" Color="ffff94"
				Note Time="4" Value="F3" Duration="4" Instrument="cymbal"
				Note Time="12" Value="F3" Duration="4" Instrument="cymbal"
				Note Time="20" Value="F3" Duration="4" Instrument="cymbal"
				Note Time="28" Value="F3" Duration="4" Instrument="cymbal"
			Pattern Name="Pattern 35" Color="ff8655"
				Note Time="4" Value="F3" Duration="4" Instrument="cymbal"
				Note Time="12" Value="F3" Duration="4" Instrument="cymbal"
				Note Time="20" Value="F3" Duration="4" Instrument="cymbal"
			Pattern Name="Pattern 13" Color="3ca598"
				Note Time="0" Value="A4" Duration="8" Instrument="cymbal"
			Pattern Name="01" Color="ff8d5a"
				Note Time="16" Value="F#3" Duration="6" Instrument="rel hats"
				Note Time="22" Value="F#3" Duration="6" Instrument="rel hats"
				Note Time="28" Value="G2" Duration="1" Instrument="snare"
				Note Time="29" Value="G2" Duration="1" Instrument="snare"
				Note Time="30" Value="G2" Duration="1" Instrument="snare"
				Note Time="31" Value="G2" Duration="1" Instrument="snare"
			Pattern Name="Pattern 2" Color="fffd43"
				Note Time="0" Value="F#3" Duration="1" Instrument="tight noise kick layer"
				Note Time="2" Value="F#3" Duration="1" Instrument="tight noise kick layer"
				Note Time="4" Value="G2" Duration="1" Instrument="snare"
				Note Time="6" Value="F#3" Duration="1" Instrument="tight noise kick layer"
				Note Time="8" Value="F#3" Duration="1" Instrument="tight noise kick layer"
				Note Time="10" Value="F#3" Duration="1" Instrument="tight noise kick layer"
				Note Time="12" Value="G2" Duration="1" Instrument="snare"
				Note Time="14" Value="F#3" Duration="1" Instrument="tight noise kick layer"
				Note Time="16" Value="F#3" Duration="1" Instrument="tight noise kick layer"
				Note Time="18" Value="F#3" Duration="1" Instrument="tight noise kick layer"
				Note Time="20" Value="G2" Duration="1" Instrument="snare"
				Note Time="22" Value="F#3" Duration="1" Instrument="tight noise kick layer"
				Note Time="24" Value="F#3" Duration="1" Instrument="tight noise kick layer"
				Note Time="26" Value="F#3" Duration="1" Instrument="tight noise kick layer"
				Note Time="28" Value="G2" Duration="1" Instrument="snare"
			Pattern Name="Pattern 3" Color="ffc83c"
				Note Time="0" Value="A4" Duration="8" Instrument="cymbal"
				Note Time="8" Value="D#4" Duration="2" Instrument="rel hats"
				Note Time="12" Value="D#4" Duration="2" Instrument="rel hats"
				Note Time="16" Value="D#4" Duration="2" Instrument="rel hats"
				Note Time="20" Value="D#4" Duration="2" Instrument="rel hats"
				Note Time="24" Value="D#4" Duration="2" Instrument="rel hats"
				Note Time="28" Value="D#4" Duration="2" Instrument="rel hats"
			Pattern Name="Pattern 4" Color="e783f8"
				Note Time="0" Value="D#4" Duration="2" Instrument="rel hats"
				Note Time="4" Value="D#4" Duration="2" Instrument="rel hats"
				Note Time="8" Value="D#4" Duration="2" Instrument="rel hats"
				Note Time="12" Value="D#4" Duration="2" Instrument="rel hats"
				Note Time="16" Value="D#4" Duration="2" Instrument="rel hats"
				Note Time="20" Value="D#4" Duration="2" Instrument="rel hats"
				Note Time="24" Value="D#4" Duration="2" Instrument="rel hats"
				Note Time="28" Value="D#4" Duration="2" Instrument="rel hats"
			Pattern Name="Pattern 6" Color="5dd2ff"
				Note Time="0" Value="F#3" Duration="1" Instrument="rel hats"
				Note Time="2" Value="F#3" Duration="1" Instrument="rel hats"
				Note Time="4" Value="C2" Duration="2" Instrument="clap"
				Note Time="6" Value="F#3" Duration="1" Instrument="rel hats"
				Note Time="8" Value="F#3" Duration="1" Instrument="rel hats"
				Note Time="10" Value="F#3" Duration="1" Instrument="rel hats"
				Note Time="12" Value="C2" Duration="2" Instrument="clap"
				Note Time="14" Value="F#3" Duration="1" Instrument="rel hats"
				Note Time="16" Value="F#3" Duration="1" Instrument="rel hats"
				Note Time="18" Value="F#3" Duration="1" Instrument="rel hats"
				Note Time="20" Value="C2" Duration="2" Instrument="clap"
				Note Time="22" Value="F#3" Duration="1" Instrument="rel hats"
				Note Time="23" Value="F#3" Duration="1" Instrument="rel hats"
				Note Time="24" Value="F#3" Duration="1" Instrument="rel hats"
				Note Time="25" Value="F#3" Duration="1" Instrument="rel hats"
				Note Time="26" Value="F#3" Duration="1" Instrument="rel hats"
				Note Time="27" Value="F#3" Duration="1" Instrument="rel hats"
				Note Time="28" Value="F#3" Duration="1" Instrument="rel hats"
				Note Time="29" Value="F#3" Duration="1" Instrument="rel hats"
				Note Time="30" Value="F#3" Duration="1" Instrument="rel hats"
				Note Time="31" Value="F#3" Duration="1" Instrument="rel hats"
			Pattern Name="Pattern 7" Color="3eb3f9"
				Note Time="0" Value="E3" Duration="2" Instrument="cymbal"
				Note Time="3" Value="E3" Duration="2" Instrument="cymbal"
				Note Time="6" Value="E3" Duration="2" Instrument="cymbal"
				Note Time="9" Value="E3" Duration="2" Instrument="cymbal"
				Note Time="12" Value="E3" Duration="2" Instrument="cymbal"
				Note Time="15" Value="E3" Duration="1" Instrument="cymbal"
				Note Time="16" Value="A2" Duration="1" Instrument="kick"
				Note Time="17" Value="A2" Duration="1" Instrument="kick"
				Note Time="18" Value="A2" Duration="1" Instrument="kick"
				Note Time="19" Value="A2" Duration="1" Instrument="kick"
				Note Time="20" Value="A2" Duration="1" Instrument="kick"
				Note Time="21" Value="A2" Duration="1" Instrument="kick"
				Note Time="22" Value="A2" Duration="1" Instrument="kick"
				Note Time="23" Value="A2" Duration="1" Instrument="kick"
				Note Time="24" Value="E3" Duration="5" Instrument="cymbal"
				Note Time="28" Value="A2" Duration="1" Instrument="kick"
			Pattern Name="Pattern 25" Color="89f2e8"
				Note Time="16" Value="A#4" Duration="16" Instrument="cymbal"
			Pattern Name="Pattern 36" Color="fcff6f"
				Note Time="0" Value="A#4" Duration="16" Instrument="cymbal"
				Note Time="4" Value="C2" Duration="2" Instrument="clap"
				Note Time="6" Value="F#3" Duration="1" Instrument="rel hats"
				Note Time="8" Value="F#3" Duration="1" Instrument="rel hats"
				Note Time="10" Value="F#3" Duration="1" Instrument="rel hats"
				Note Time="12" Value="C2" Duration="2" Instrument="clap"
				Note Time="14" Value="F#3" Duration="1" Instrument="rel hats"
				Note Time="16" Value="F#3" Duration="1" Instrument="rel hats"
				Note Time="18" Value="F#3" Duration="1" Instrument="rel hats"
				Note Time="20" Value="C2" Duration="2" Instrument="clap"
				Note Time="22" Value="F#3" Duration="1" Instrument="rel hats"
				Note Time="24" Value="F#3" Duration="1" Instrument="rel hats"
				Note Time="26" Value="F#3" Duration="1" Instrument="rel hats"
				Note Time="28" Value="C2" Duration="2" Instrument="clap"
				Note Time="30" Value="F#3" Duration="1" Instrument="rel hats"
			Pattern Name="Pattern 37" Color="ff8d5a"
				Note Time="0" Value="F#3" Duration="1" Instrument="rel hats"
				Note Time="2" Value="F#3" Duration="1" Instrument="rel hats"
				Note Time="4" Value="C2" Duration="2" Instrument="clap"
				Note Time="6" Value="F#3" Duration="1" Instrument="rel hats"
				Note Time="8" Value="F#3" Duration="1" Instrument="rel hats"
				Note Time="10" Value="F#3" Duration="1" Instrument="rel hats"
				Note Time="12" Value="C2" Duration="2" Instrument="clap"
				Note Time="14" Value="F#3" Duration="1" Instrument="rel hats"
				Note Time="16" Value="F#3" Duration="1" Instrument="rel hats"
				Note Time="18" Value="F#3" Duration="1" Instrument="rel hats"
				Note Time="20" Value="C2" Duration="2" Instrument="clap"
				Note Time="22" Value="F#3" Duration="1" Instrument="rel hats"
				Note Time="24" Value="F#3" Duration="1" Instrument="rel hats"
				Note Time="26" Value="F#3" Duration="1" Instrument="rel hats"
				Note Time="28" Value="C2" Duration="2" Instrument="clap"
				Note Time="30" Value="F#3" Duration="1" Instrument="rel hats"
			Pattern Name="Pattern 38" Color="ffff93"
				Note Time="0" Value="F#3" Duration="1" Instrument="rel hats"
				Note Time="2" Value="F#3" Duration="1" Instrument="rel hats"
				Note Time="4" Value="C2" Duration="2" Instrument="clap"
				Note Time="6" Value="F#3" Duration="1" Instrument="rel hats"
				Note Time="8" Value="F#3" Duration="1" Instrument="rel hats"
				Note Time="10" Value="F#3" Duration="1" Instrument="rel hats"
				Note Time="12" Value="C2" Duration="2" Instrument="clap"
				Note Time="14" Value="F#3" Duration="1" Instrument="rel hats"
				Note Time="16" Value="F#3" Duration="1" Instrument="rel hats"
				Note Time="18" Value="F#3" Duration="1" Instrument="rel hats"
				Note Time="20" Value="C2" Duration="2" Instrument="clap"
				Note Time="22" Value="F#3" Duration="1" Instrument="rel hats"
				Note Time="24" Value="F#3" Duration="1" Instrument="rel hats"
				Note Time="25" Value="F#3" Duration="1" Instrument="rel hats"
				Note Time="26" Value="F#3" Duration="1" Instrument="rel hats"
				Note Time="27" Value="F#3" Duration="1" Instrument="rel hats"
				Note Time="28" Value="F#3" Duration="1" Instrument="rel hats"
				Note Time="29" Value="F#3" Duration="1" Instrument="rel hats"
				Note Time="30" Value="F#3" Duration="1" Instrument="rel hats"
				Note Time="31" Value="F#3" Duration="1" Instrument="rel hats"
			PatternInstance Time="2" Pattern="Pattern 32"
			PatternInstance Time="3" Pattern="Pattern 1"
			PatternInstance Time="4" Pattern="Pattern 11"
			PatternInstance Time="5" Pattern="Pattern 8"
			PatternInstance Time="6" Pattern="Pattern 5"
			PatternInstance Time="7" Pattern="Pattern 8"
			PatternInstance Time="8" Pattern="Pattern 5"
			PatternInstance Time="9" Pattern="Pattern 8"
			PatternInstance Time="10" Pattern="Pattern 5"
			PatternInstance Time="11" Pattern="Pattern 8"
			PatternInstance Time="12" Pattern="Pattern 9"
			PatternInstance Time="17" Pattern="Pattern 26"
			PatternInstance Time="18" Pattern="Pattern 31"
			PatternInstance Time="19" Pattern="Pattern 26"
			PatternInstance Time="20" Pattern="Pattern 33"
			PatternInstance Time="21" Pattern="Pattern 34"
			PatternInstance Time="22" Pattern="Pattern 34"
			PatternInstance Time="23" Pattern="Pattern 34"
			PatternInstance Time="24" Pattern="Pattern 35"
			PatternInstance Time="25" Pattern="Pattern 13"
			PatternInstance Time="28" Pattern="01"
			PatternInstance Time="29" Pattern="Pattern 1"
			PatternInstance Time="30" Pattern="Pattern 1"
			PatternInstance Time="31" Pattern="Pattern 1"
			PatternInstance Time="32" Pattern="Pattern 1"
			PatternInstance Time="33" Pattern="Pattern 2"
			PatternInstance Time="34" Pattern="Pattern 2"
			PatternInstance Time="35" Pattern="Pattern 2"
			PatternInstance Time="36" Pattern="Pattern 2"
			PatternInstance Time="37" Pattern="Pattern 3"
			PatternInstance Time="38" Pattern="Pattern 4"
			PatternInstance Time="39" Pattern="Pattern 4"
			PatternInstance Time="40" Pattern="Pattern 4"
			PatternInstance Time="41" Pattern="Pattern 5"
			PatternInstance Time="42" Pattern="Pattern 5"
			PatternInstance Time="43" Pattern="Pattern 5"
			PatternInstance Time="44" Pattern="Pattern 6"
			PatternInstance Time="45" Pattern="Pattern 5"
			PatternInstance Time="46" Pattern="Pattern 5"
			PatternInstance Time="47" Pattern="Pattern 5"
			PatternInstance Time="48" Pattern="Pattern 5"
			PatternInstance Time="49" Pattern="Pattern 5"
			PatternInstance Time="50" Pattern="Pattern 5"
			PatternInstance Time="51" Pattern="Pattern 5"
			PatternInstance Time="52" Pattern="Pattern 5"
			PatternInstance Time="53" Pattern="Pattern 7"
			PatternInstance Time="54" Pattern="Pattern 8"
			PatternInstance Time="55" Pattern="Pattern 5"
			PatternInstance Time="56" Pattern="Pattern 8"
			PatternInstance Time="57" Pattern="Pattern 5"
			PatternInstance Time="58" Pattern="Pattern 8"
			PatternInstance Time="59" Pattern="Pattern 5"
			PatternInstance Time="60" Pattern="Pattern 8"
			PatternInstance Time="61" Pattern="Pattern 9"
			PatternInstance Time="62" Pattern="Pattern 13"
			PatternInstance Time="65" Pattern="Pattern 25"
			PatternInstance Time="66" Pattern="Pattern 36"
			PatternInstance Time="67" Pattern="Pattern 5"
			PatternInstance Time="68" Pattern="Pattern 37"
			PatternInstance Time="69" Pattern="Pattern 38"
			PatternInstance Time="70" Pattern="Pattern 36"
			PatternInstance Time="71" Pattern="Pattern 5"
			PatternInstance Time="72" Pattern="Pattern 37"
			PatternInstance Time="73" Pattern="Pattern 5"
			PatternInstance Time="74" Pattern="Pattern 36"
			PatternInstance Time="75" Pattern="Pattern 5"
			PatternInstance Time="76" Pattern="Pattern 37"
			PatternInstance Time="77" Pattern="Pattern 38"
			PatternInstance Time="78" Pattern="Pattern 13"
		Channel Type="DPCM"
			Pattern Name="Pattern 38" Color="a4db74"
				Note Time="0" Value="C3" Duration="1" Instrument="DMC: drums + bass"
				Note Time="2" Value="C4" Duration="2" Instrument="DMC: drums + bass"
				Note Time="4" Value="F5" Duration="2" Instrument="DMC: drums + bass"
				Note Time="6" Value="C4" Duration="2" Instrument="DMC: drums + bass"
				Note Time="8" Value="C3" Duration="1" Instrument="DMC: drums + bass"
				Note Time="10" Value="C4" Duration="2" Instrument="DMC: drums + bass"
				Note Time="12" Value="F5" Duration="2" Instrument="DMC: drums + bass"
				Note Time="14" Value="C4" Duration="2" Instrument="DMC: drums + bass"
				Note Time="16" Value="C3" Duration="1" Instrument="DMC: drums + bass"
				Note Time="18" Value="F4" Duration="2" Instrument="DMC: drums + bass"
				Note Time="20" Value="F5" Duration="2" Instrument="DMC: drums + bass"
				Note Time="22" Value="F4" Duration="2" Instrument="DMC: drums + bass"
				Note Time="24" Value="F4" Duration="1" Instrument="DMC: drums + bass"
				Note Time="25" Value="F4" Duration="1" Instrument="DMC: drums + bass"
				Note Time="26" Value="F4" Duration="1" Instrument="DMC: drums + bass"
				Note Time="27" Value="F4" Duration="1" Instrument="DMC: drums + bass"
				Note Time="28" Value="F5" Duration="1" Instrument="DMC: drums + bass"
				Note Time="29" Value="F4" Duration="1" Instrument="DMC: drums + bass"
				Note Time="30" Value="F4" Duration="1" Instrument="DMC: drums + bass"
				Note Time="31" Value="F4" Duration="1" Instrument="DMC: drums + bass"
			Pattern Name="Pattern 41" Color="ffff93"
				Note Time="0" Value="A3" Duration="1" Instrument="DMC: drums + bass"
				Note Time="2" Value="A4" Duration="2" Instrument="DMC: drums + bass"
				Note Time="4" Value="F5" Duration="2" Instrument="DMC: drums + bass"
				Note Time="6" Value="A4" Duration="2" Instrument="DMC: drums + bass"
				Note Time="8" Value="A3" Duration="1" Instrument="DMC: drums + bass"
				Note Time="10" Value="A4" Duration="2" Instrument="DMC: drums + bass"
				Note Time="12" Value="F5" Duration="2" Instrument="DMC: drums + bass"
				Note Time="14" Value="A4" Duration="2" Instrument="DMC: drums + bass"
				Note Time="16" Value="A3" Duration="1" Instrument="DMC: drums + bass"
				Note Time="18" Value="G#4" Duration="2" Instrument="DMC: drums + bass"
				Note Time="20" Value="F5" Duration="2" Instrument="DMC: drums + bass"
				Note Time="22" Value="G#4" Duration="2" Instrument="DMC: drums + bass"
				Note Time="24" Value="F4" Duration="1" Instrument="DMC: drums + bass"
				Note Time="25" Value="F4" Duration="1" Instrument="DMC: drums + bass"
				Note Time="26" Value="F4" Duration="1" Instrument="DMC: drums + bass"
				Note Time="27" Value="F4" Duration="1" Instrument="DMC: drums + bass"
				Note Time="28" Value="F5" Duration="1" Instrument="DMC: drums + bass"
				Note Time="29" Value="F4" Duration="1" Instrument="DMC: drums + bass"
				Note Time="30" Value="F4" Duration="1" Instrument="DMC: drums + bass"
				Note Time="31" Value="F4" Duration="1" Instrument="DMC: drums + bass"
			Pattern Name="Pattern 16" Color="a4db74"
				Note Time="0" Value="C4" Duration="4" Instrument="DMC: drums + bass"
				Note Time="4" Value="C4" Duration="4" Instrument="DMC: drums + bass"
				Note Time="8" Value="C4" Duration="4" Instrument="DMC: drums + bass"
				Note Time="12" Value="C4" Duration="4" Instrument="DMC: drums + bass"
				Note Time="16" Value="E5" Duration="4" Instrument="DMC: drums + bass"
				Note Time="17" Value="E5" Duration="4" Instrument="DMC: drums + bass"
				Note Time="18" Value="E5" Duration="4" Instrument="DMC: drums + bass"
				Note Time="19" Value="E5" Duration="4" Instrument="DMC: drums + bass"
				Note Time="20" Value="E5" Duration="4" Instrument="DMC: drums + bass"
				Note Time="21" Value="E5" Duration="4" Instrument="DMC: drums + bass"
				Note Time="22" Value="E5" Duration="4" Instrument="DMC: drums + bass"
				Note Time="23" Value="E5" Duration="4" Instrument="DMC: drums + bass"
				Note Time="24" Value="F5" Duration="4" Instrument="DMC: drums + bass"
			Pattern Name="Pattern 17" Color="88eb8c"
				Note Time="0" Value="E5" Duration="2" Instrument="DMC: drums + bass"
				Note Time="2" Value="C4" Duration="2" Instrument="DMC: drums + bass"
				Note Time="4" Value="F5" Duration="2" Instrument="DMC: drums + bass"
				Note Time="6" Value="C4" Duration="2" Instrument="DMC: drums + bass"
				Note Time="8" Value="E5" Duration="2" Instrument="DMC: drums + bass"
				Note Time="10" Value="C4" Duration="2" Instrument="DMC: drums + bass"
				Note Time="12" Value="F5" Duration="2" Instrument="DMC: drums + bass"
				Note Time="14" Value="C4" Duration="2" Instrument="DMC: drums + bass"
				Note Time="16" Value="E5" Duration="2" Instrument="DMC: drums + bass"
				Note Time="18" Value="F4" Duration="2" Instrument="DMC: drums + bass"
				Note Time="20" Value="F5" Duration="2" Instrument="DMC: drums + bass"
				Note Time="22" Value="F4" Duration="2" Instrument="DMC: drums + bass"
				Note Time="24" Value="E5" Duration="2" Instrument="DMC: drums + bass"
				Note Time="26" Value="F4" Duration="2" Instrument="DMC: drums + bass"
				Note Time="28" Value="F5" Duration="2" Instrument="DMC: drums + bass"
				Note Time="30" Value="F4" Duration="2" Instrument="DMC: drums + bass"
			Pattern Name="Pattern 18" Color="5ac4ff"
				Note Time="0" Value="E5" Duration="2" Instrument="DMC: drums + bass"
				Note Time="2" Value="C4" Duration="2" Instrument="DMC: drums + bass"
				Note Time="4" Value="F5" Duration="2" Instrument="DMC: drums + bass"
				Note Time="6" Value="C4" Duration="2" Instrument="DMC: drums + bass"
				Note Time="8" Value="E5" Duration="2" Instrument="DMC: drums + bass"
				Note Time="10" Value="C4" Duration="2" Instrument="DMC: drums + bass"
				Note Time="12" Value="F5" Duration="2" Instrument="DMC: drums + bass"
				Note Time="14" Value="C4" Duration="2" Instrument="DMC: drums + bass"
				Note Time="16" Value="E5" Duration="2" Instrument="DMC: drums + bass"
				Note Time="18" Value="C4" Duration="2" Instrument="DMC: drums + bass"
				Note Time="20" Value="F5" Duration="2" Instrument="DMC: drums + bass"
				Note Time="22" Value="C4" Duration="2" Instrument="DMC: drums + bass"
				Note Time="24" Value="E5" Duration="2" Instrument="DMC: drums + bass"
				Note Time="26" Value="C4" Duration="2" Instrument="DMC: drums + bass"
				Note Time="28" Value="F5" Duration="2" Instrument="DMC: drums + bass"
				Note Time="30" Value="C4" Duration="2" Instrument="DMC: drums + bass"
			Pattern Name="Pattern 19" Color="fe5497"
				Note Time="0" Value="E5" Duration="2" Instrument="DMC: drums + bass"
				Note Time="2" Value="G#4" Duration="2" Instrument="DMC: drums + bass"
				Note Time="4" Value="F5" Duration="2" Instrument="DMC: drums + bass"
				Note Time="6" Value="G#4" Duration="2" Instrument="DMC: drums + bass"
				Note Time="8" Value="E5" Duration="2" Instrument="DMC: drums + bass"
				Note Time="10" Value="G#4" Duration="2" Instrument="DMC: drums + bass"
				Note Time="12" Value="F5" Duration="2" Instrument="DMC: drums + bass"
				Note Time="14" Value="G#4" Duration="2" Instrument="DMC: drums + bass"
				Note Time="16" Value="E5" Duration="2" Instrument="DMC: drums + bass"
				Note Time="18" Value="F4" Duration="2" Instrument="DMC: drums + bass"
				Note Time="20" Value="F5" Duration="2" Instrument="DMC: drums + bass"
				Note Time="22" Value="F4" Duration="2" Instrument="DMC: drums + bass"
				Note Time="24" Value="E5" Duration="2" Instrument="DMC: drums + bass"
				Note Time="26" Value="F4" Duration="2" Instrument="DMC: drums + bass"
				Note Time="28" Value="F5" Duration="2" Instrument="DMC: drums + bass"
				Note Time="30" Value="F4" Duration="2" Instrument="DMC: drums + bass"
			Pattern Name="Pattern 20" Color="3eb3f9"
				Note Time="0" Value="F5" Duration="2" Instrument="DMC: drums + bass"
				Note Time="2" Value="D#4" Duration="2" Instrument="DMC: drums + bass"
				Note Time="4" Value="F5" Duration="2" Instrument="DMC: drums + bass"
				Note Time="6" Value="D#4" Duration="2" Instrument="DMC: drums + bass"
				Note Time="8" Value="F5" Duration="2" Instrument="DMC: drums + bass"
				Note Time="10" Value="D#4" Duration="2" Instrument="DMC: drums + bass"
				Note Time="12" Value="F5" Duration="2" Instrument="DMC: drums + bass"
				Note Time="14" Value="D#4" Duration="2" Instrument="DMC: drums + bass"
				Note Time="16" Value="F5" Duration="1" Instrument="DMC: drums + bass"
				Note Time="17" Value="G4" Duration="1" Instrument="DMC: drums + bass"
				Note Time="18" Value="F5" Duration="1" Instrument="DMC: drums + bass"
				Note Time="19" Value="G4" Duration="1" Instrument="DMC: drums + bass"
				Note Time="20" Value="F5" Duration="1" Instrument="DMC: drums + bass"
				Note Time="21" Value="G4" Duration="1" Instrument="DMC: drums + bass"
				Note Time="22" Value="F5" Duration="1" Instrument="DMC: drums + bass"
				Note Time="23" Value="G4" Duration="1" Instrument="DMC: drums + bass"
				Note Time="24" Value="F5" Duration="1" Instrument="DMC: drums + bass"
				Note Time="25" Value="F5" Duration="1" Instrument="DMC: drums + bass"
				Note Time="26" Value="F5" Duration="1" Instrument="DMC: drums + bass"
				Note Time="27" Value="F5" Duration="1" Instrument="DMC: drums + bass"
				Note Time="28" Value="F5" Duration="1" Instrument="DMC: drums + bass"
				Note Time="29" Value="F5" Duration="1" Instrument="DMC: drums + bass"
				Note Time="30" Value="F5" Duration="1" Instrument="DMC: drums + bass"
				Note Time="31" Value="F5" Duration="1" Instrument="DMC: drums + bass"
			Pattern Name="Pattern 21" Color="a9887d"
				Note Time="12" Value="C3" Duration="6" Instrument="DMC: drums + bass"
				Note Time="18" Value="D3" Duration="6" Instrument="DMC: drums + bass"
				Note Time="24" Value="A#2" Duration="8" Instrument="DMC: drums + bass"
			Pattern Name="Pattern 22" Color="fffc69"
				Note Time="6" Value="C3" Duration="2" Instrument="DMC: drums + bass"
				Note Time="8" Value="D#3" Duration="2" Instrument="DMC: drums + bass"
				Note Time="10" Value="G3" Duration="2" Instrument="DMC: drums + bass"
				Note Time="12" Value="G#3" Duration="4" Instrument="DMC: drums + bass"
				Note Time="16" Value="A#2" Duration="2" Instrument="DMC: drums + bass"
				Note Time="20" Value="A#2" Duration="4" Instrument="DMC: drums + bass"
				Note Time="24" Value="D3" Duration="4" Instrument="DMC: drums + bass"
				Note Time="28" Value="A#3" Duration="4" Instrument="DMC: drums + bass"
			Pattern Name="Pattern 23" Color="3ca598"
				Note Time="0" Value="D#3" Duration="6" Instrument="DMC: drums + bass"
				Note Time="6" Value="D3" Duration="6" Instrument="DMC: drums + bass"
				Note Time="12" Value="A#2" Duration="6" Instrument="DMC: drums + bass"
				Note Time="18" Value="D#3" Duration="6" Instrument="DMC: drums + bass"
				Note Time="24" Value="D3" Duration="4" Instrument="DMC: drums + bass"
				Note Time="28" Value="A#2" Duration="4" Instrument="DMC: drums + bass"
			Pattern Name="Pattern 24" Color="b5c2ff"
				Note Time="8" Value="A#2" Duration="2" Instrument="DMC: drums + bass"
				Note Time="10" Value="C3" Duration="2" Instrument="DMC: drums + bass"
				Note Time="12" Value="G3" Duration="2" Instrument="DMC: drums + bass"
				Note Time="14" Value="G#3" Duration="10" Instrument="DMC: drums + bass"
				Note Time="20" Value="C4" Duration="2" Instrument="DMC: drums + bass"
				Note Time="22" Value="D4" Duration="2" Instrument="DMC: drums + bass"
				Note Time="24" Value="D#4" Duration="4" Instrument="DMC: drums + bass"
				Note Time="28" Value="D4" Duration="4" Instrument="DMC: drums + bass"
			Pattern Name="Pattern 26" Color="3ec4ff"
				Note Time="0" Value="E5" Duration="4" Instrument="DMC: drums + bass"
				Note Time="4" Value="C4" Duration="2" Instrument="DMC: drums + bass"
				Note Time="6" Value="E5" Duration="2" Instrument="DMC: drums + bass"
				Note Time="8" Value="F5" Duration="2" Instrument="DMC: drums + bass"
				Note Time="12" Value="E5" Duration="2" Instrument="DMC: drums + bass"
				Note Time="14" Value="C4" Duration="2" Instrument="DMC: drums + bass"
				Note Time="18" Value="E5" Duration="2" Instrument="DMC: drums + bass"
				Note Time="20" Value="C4" Duration="2" Instrument="DMC: drums + bass"
				Note Time="22" Value="E5" Duration="2" Instrument="DMC: drums + bass"
				Note Time="24" Value="F5" Duration="2" Instrument="DMC: drums + bass"
				Note Time="28" Value="E5" Duration="2" Instrument="DMC: drums + bass"
				Note Time="30" Value="E5" Duration="2" Instrument="DMC: drums + bass"
			Pattern Name="Pattern 27" Color="62ffff"
				Note Time="0" Value="E5" Duration="4" Instrument="DMC: drums + bass"
				Note Time="4" Value="G#3" Duration="2" Instrument="DMC: drums + bass"
				Note Time="6" Value="E5" Duration="2" Instrument="DMC: drums + bass"
				Note Time="8" Value="F5" Duration="2" Instrument="DMC: drums + bass"
				Note Time="12" Value="E5" Duration="2" Instrument="DMC: drums + bass"
				Note Time="14" Value="G#3" Duration="2" Instrument="DMC: drums + bass"
				Note Time="18" Value="E5" Duration="2" Instrument="DMC: drums + bass"
				Note Time="20" Value="A#3" Duration="2" Instrument="DMC: drums + bass"
				Note Time="22" Value="E5" Duration="2" Instrument="DMC: drums + bass"
				Note Time="24" Value="F5" Duration="2" Instrument="DMC: drums + bass"
				Note Time="28" Value="E5" Duration="1" Instrument="DMC: drums + bass"
				Note Time="29" Value="E5" Duration="1" Instrument="DMC: drums + bass"
				Note Time="30" Value="E5" Duration="1" Instrument="DMC: drums + bass"
				Note Time="31" Value="E5" Duration="1" Instrument="DMC: drums + bass"
			Pattern Name="Pattern 28" Color="3cb5a7"
				Note Time="0" Value="E5" Duration="4" Instrument="DMC: drums + bass"
				Note Time="4" Value="G#3" Duration="2" Instrument="DMC: drums + bass"
				Note Time="6" Value="E5" Duration="2" Instrument="DMC: drums + bass"
				Note Time="8" Value="F5" Duration="2" Instrument="DMC: drums + bass"
				Note Time="12" Value="E5" Duration="2" Instrument="DMC: drums + bass"
				Note Time="14" Value="G#3" Duration="2" Instrument="DMC: drums + bass"
				Note Time="18" Value="E5" Duration="2" Instrument="DMC: drums + bass"
				Note Time="20" Value="A#3" Duration="2" Instrument="DMC: drums + bass"
				Note Time="22" Value="E5" Duration="2" Instrument="DMC: drums + bass"
				Note Time="24" Value="F5" Duration="4" Instrument="DMC: drums + bass"
				Note Time="28" Value="F5" Duration="4" Instrument="DMC: drums + bass"
			Pattern Name="Pattern 29" Color="ebf067"
				Note Time="0" Value="F5" Duration="4" Instrument="DMC: drums + bass"
				Note Time="8" Value="F5" Duration="4" Instrument="DMC: drums + bass"
				Note Time="16" Value="F5" Duration="4" Instrument="DMC: drums + bass"
				Note Time="24" Value="F5" Duration="4" Instrument="DMC: drums + bass"
				Note Time="30" Value="F5" Duration="2" Instrument="DMC: drums + bass"
			Pattern Name="Pattern 30" Color="ffdc3c"
				Note Time="0" Value="F5" Duration="4" Instrument="DMC: drums + bass"
				Note Time="8" Value="F5" Duration="4" Instrument="DMC: drums + bass"
				Note Time="16" Value="F5" Duration="4" Instrument="DMC: drums + bass"
				Note Time="24" Value="F5" Duration="3" Instrument="DMC: drums + bass"
				Note Time="27" Value="F5" Duration="1" Instrument="DMC: drums + bass"
				Note Time="30" Value="F5" Duration="2" Instrument="DMC: drums + bass"
			Pattern Name="Pattern 31" Color="ffe362"
				Note Time="0" Value="F5" Duration="4" Instrument="DMC: drums + bass"
				Note Time="8" Value="F5" Duration="4" Instrument="DMC: drums + bass"
				Note Time="16" Value="F5" Duration="4" Instrument="DMC: drums + bass"
				Note Time="24" Value="F5" Duration="1" Instrument="DMC: drums + bass"
				Note Time="25" Value="F5" Duration="1" Instrument="DMC: drums + bass"
				Note Time="26" Value="F5" Duration="1" Instrument="DMC: drums + bass"
				Note Time="27" Value="F5" Duration="1" Instrument="DMC: drums + bass"
				Note Time="28" Value="F5" Duration="1" Instrument="DMC: drums + bass"
				Note Time="29" Value="F5" Duration="1" Instrument="DMC: drums + bass"
				Note Time="30" Value="F5" Duration="1" Instrument="DMC: drums + bass"
				Note Time="31" Value="F5" Duration="1" Instrument="DMC: drums + bass"
			Pattern Name="01" Color="3cbfcb"
				Note Time="22" Value="E5" Duration="6" Instrument="DMC: drums + bass"
				Note Time="28" Value="E5" Duration="1" Instrument="DMC: drums + bass"
				Note Time="29" Value="E5" Duration="1" Instrument="DMC: drums + bass"
				Note Time="30" Value="E5" Duration="1" Instrument="DMC: drums + bass"
				Note Time="31" Value="E5" Duration="1" Instrument="DMC: drums + bass"
			Pattern Name="Pattern 1" Color="3eb3f9"
				Note Time="0" Value="F3" Duration="1" Instrument="DMC: drums + bass"
				Note Time="2" Value="F4" Duration="2" Instrument="DMC: drums + bass"
				Note Time="4" Value="F5" Duration="2" Instrument="DMC: drums + bass"
				Note Time="6" Value="F4" Duration="2" Instrument="DMC: drums + bass"
				Note Time="8" Value="F3" Duration="1" Instrument="DMC: drums + bass"
				Note Time="10" Value="F4" Duration="2" Instrument="DMC: drums + bass"
				Note Time="12" Value="F5" Duration="2" Instrument="DMC: drums + bass"
				Note Time="14" Value="F4" Duration="2" Instrument="DMC: drums + bass"
				Note Time="16" Value="F3" Duration="1" Instrument="DMC: drums + bass"
				Note Time="18" Value="F4" Duration="2" Instrument="DMC: drums + bass"
				Note Time="20" Value="F5" Duration="2" Instrument="DMC: drums + bass"
				Note Time="22" Value="F4" Duration="2" Instrument="DMC: drums + bass"
				Note Time="24" Value="F4" Duration="1" Instrument="DMC: drums + bass"
				Note Time="25" Value="F4" Duration="1" Instrument="DMC: drums + bass"
				Note Time="26" Value="F4" Duration="1" Instrument="DMC: drums + bass"
				Note Time="27" Value="F4" Duration="1" Instrument="DMC: drums + bass"
				Note Time="28" Value="F5" Duration="1" Instrument="DMC: drums + bass"
				Note Time="29" Value="F4" Duration="1" Instrument="DMC: drums + bass"
				Note Time="30" Value="F4" Duration="1" Instrument="DMC: drums + bass"
				Note Time="31" Value="F4" Duration="1" Instrument="DMC: drums + bass"
			Pattern Name="Pattern 2" Color="3cf8ff"
				Note Time="0" Value="C#3" Duration="1" Instrument="DMC: drums + bass"
				Note Time="2" Value="C#4" Duration="2" Instrument="DMC: drums + bass"
				Note Time="4" Value="F5" Duration="2" Instrument="DMC: drums + bass"
				Note Time="6" Value="C#4" Duration="2" Instrument="DMC: drums + bass"
				Note Time="8" Value="C#3" Duration="1" Instrument="DMC: drums + bass"
				Note Time="10" Value="C#4" Duration="2" Instrument="DMC: drums + bass"
				Note Time="12" Value="F5" Duration="3" Instrument="DMC: drums + bass"
				Note Time="14" Value="C#4" Duration="2" Instrument="DMC: drums + bass"
				Note Time="16" Value="C#3" Duration="1" Instrument="DMC: drums + bass"
				Note Time="18" Value="C#4" Duration="2" Instrument="DMC: drums + bass"
				Note Time="20" Value="F5" Duration="2" Instrument="DMC: drums + bass"
				Note Time="22" Value="C#4" Duration="2" Instrument="DMC: drums + bass"
				Note Time="24" Value="C#4" Duration="1" Instrument="DMC: drums + bass"
				Note Time="25" Value="C#4" Duration="1" Instrument="DMC: drums + bass"
				Note Time="26" Value="C#4" Duration="1" Instrument="DMC: drums + bass"
				Note Time="27" Value="C#4" Duration="1" Instrument="DMC: drums + bass"
				Note Time="28" Value="F5" Duration="1" Instrument="DMC: drums + bass"
				Note Time="29" Value="C#4" Duration="1" Instrument="DMC: drums + bass"
				Note Time="30" Value="C#4" Duration="1" Instrument="DMC: drums + bass"
				Note Time="31" Value="C#4" Duration="1" Instrument="DMC: drums + bass"
			Pattern Name="Pattern 3" Color="98a7fc"
				Note Time="0" Value="C3" Duration="1" Instrument="DMC: drums + bass"
				Note Time="2" Value="C4" Duration="2" Instrument="DMC: drums + bass"
				Note Time="4" Value="F5" Duration="2" Instrument="DMC: drums + bass"
				Note Time="6" Value="C4" Duration="2" Instrument="DMC: drums + bass"
				Note Time="8" Value="C3" Duration="1" Instrument="DMC: drums + bass"
				Note Time="10" Value="C4" Duration="2" Instrument="DMC: drums + bass"
				Note Time="12" Value="F5" Duration="2" Instrument="DMC: drums + bass"
				Note Time="14" Value="C4" Duration="2" Instrument="DMC: drums + bass"
				Note Time="16" Value="C3" Duration="1" Instrument="DMC: drums + bass"
				Note Time="18" Value="C4" Duration="2" Instrument="DMC: drums + bass"
				Note Time="20" Value="F5" Duration="2" Instrument="DMC: drums + bass"
				Note Time="22" Value="C4" Duration="2" Instrument="DMC: drums + bass"
				Note Time="24" Value="C4" Duration="1" Instrument="DMC: drums + bass"
				Note Time="25" Value="C4" Duration="1" Instrument="DMC: drums + bass"
				Note Time="26" Value="C4" Duration="1" Instrument="DMC: drums + bass"
				Note Time="27" Value="C4" Duration="1" Instrument="DMC: drums + bass"
				Note Time="28" Value="F5" Duration="1" Instrument="DMC: drums + bass"
				Note Time="29" Value="C4" Duration="1" Instrument="DMC: drums + bass"
				Note Time="30" Value="C4" Duration="1" Instrument="DMC: drums + bass"
				Note Time="31" Value="C4" Duration="1" Instrument="DMC: drums + bass"
			Pattern Name="Pattern 4" Color="e95093"
				Note Time="0" Value="G#3" Duration="3" Instrument="DMC: drums + bass"
				Note Time="2" Value="G#4" Duration="3" Instrument="DMC: drums + bass"
				Note Time="4" Value="F5" Duration="3" Instrument="DMC: drums + bass"
				Note Time="6" Value="G#4" Duration="3" Instrument="DMC: drums + bass"
				Note Time="8" Value="G#3" Duration="3" Instrument="DMC: drums + bass"
				Note Time="10" Value="G#4" Duration="3" Instrument="DMC: drums + bass"
				Note Time="12" Value="F5" Duration="3" Instrument="DMC: drums + bass"
				Note Time="14" Value="G#4" Duration="3" Instrument="DMC: drums + bass"
				Note Time="16" Value="G#3" Duration="3" Instrument="DMC: drums + bass"
				Note Time="18" Value="G#4" Duration="3" Instrument="DMC: drums + bass"
				Note Time="20" Value="F5" Duration="2" Instrument="DMC: drums + bass"
				Note Time="22" Value="G#4" Duration="3" Instrument="DMC: drums + bass"
				Note Time="24" Value="G#4" Duration="2" Instrument="DMC: drums + bass"
				Note Time="25" Value="G#4" Duration="2" Instrument="DMC: drums + bass"
				Note Time="26" Value="G#4" Duration="2" Instrument="DMC: drums + bass"
				Note Time="27" Value="G#4" Duration="2" Instrument="DMC: drums + bass"
				Note Time="28" Value="F5" Duration="1" Instrument="DMC: drums + bass"
				Note Time="29" Value="G#4" Duration="2" Instrument="DMC: drums + bass"
				Note Time="30" Value="G#4" Duration="2" Instrument="DMC: drums + bass"
				Note Time="31" Value="G#4" Duration="1" Instrument="DMC: drums + bass"
			Pattern Name="Pattern 5" Color="ffc83c"
				Note Time="0" Value="D#3" Duration="1" Instrument="DMC: drums + bass"
				Note Time="2" Value="D#4" Duration="2" Instrument="DMC: drums + bass"
				Note Time="4" Value="F5" Duration="2" Instrument="DMC: drums + bass"
				Note Time="6" Value="D#4" Duration="2" Instrument="DMC: drums + bass"
				Note Time="8" Value="D#3" Duration="1" Instrument="DMC: drums + bass"
				Note Time="10" Value="D#4" Duration="2" Instrument="DMC: drums + bass"
				Note Time="12" Value="F5" Duration="3" Instrument="DMC: drums + bass"
				Note Time="14" Value="D#4" Duration="2" Instrument="DMC: drums + bass"
				Note Time="16" Value="D#3" Duration="1" Instrument="DMC: drums + bass"
				Note Time="18" Value="D#4" Duration="2" Instrument="DMC: drums + bass"
				Note Time="20" Value="F5" Duration="2" Instrument="DMC: drums + bass"
				Note Time="22" Value="D#4" Duration="2" Instrument="DMC: drums + bass"
				Note Time="24" Value="D#4" Duration="1" Instrument="DMC: drums + bass"
				Note Time="25" Value="D#4" Duration="1" Instrument="DMC: drums + bass"
				Note Time="26" Value="D#4" Duration="1" Instrument="DMC: drums + bass"
				Note Time="27" Value="D#4" Duration="1" Instrument="DMC: drums + bass"
				Note Time="28" Value="F5" Duration="1" Instrument="DMC: drums + bass"
				Note Time="29" Value="D#4" Duration="1" Instrument="DMC: drums + bass"
				Note Time="30" Value="D#4" Duration="1" Instrument="DMC: drums + bass"
				Note Time="31" Value="D#4" Duration="1" Instrument="DMC: drums + bass"
			Pattern Name="Pattern 6" Color="a4db74"
				Note Time="0" Value="E5" Duration="2" Instrument="DMC: drums + bass"
				Note Time="2" Value="G3" Duration="2" Instrument="DMC: drums + bass"
				Note Time="4" Value="F5" Duration="2" Instrument="DMC: drums + bass"
				Note Time="6" Value="G3" Duration="2" Instrument="DMC: drums + bass"
				Note Time="8" Value="E5" Duration="2" Instrument="DMC: drums + bass"
				Note Time="10" Value="G3" Duration="2" Instrument="DMC: drums + bass"
				Note Time="12" Value="F5" Duration="2" Instrument="DMC: drums + bass"
				Note Time="14" Value="G3" Duration="2" Instrument="DMC: drums + bass"
				Note Time="16" Value="E5" Duration="2" Instrument="DMC: drums + bass"
				Note Time="18" Value="G3" Duration="2" Instrument="DMC: drums + bass"
				Note Time="20" Value="D#4" Duration="1" Instrument="DMC: drums + bass"
				Note Time="21" Value="B3" Duration="1" Instrument="DMC: drums + bass"
				Note Time="22" Value="F4" Duration="1" Instrument="DMC: drums + bass"
				Note Time="23" Value="D4" Duration="1" Instrument="DMC: drums + bass"
				Note Time="24" Value="G4" Duration="1" Instrument="DMC: drums + bass"
				Note Time="25" Value="F4" Duration="1" Instrument="DMC: drums + bass"
				Note Time="26" Value="D#4" Duration="1" Instrument="DMC: drums + bass"
				Note Time="27" Value="D4" Duration="1" Instrument="DMC: drums + bass"
				Note Time="28" Value="F4" Duration="1" Instrument="DMC: drums + bass"
				Note Time="29" Value="D#4" Duration="1" Instrument="DMC: drums + bass"
				Note Time="30" Value="D4" Duration="1" Instrument="DMC: drums + bass"
				Note Time="31" Value="D#4" Duration="1" Instrument="DMC: drums + bass"
			Pattern Name="Pattern 7" Color="ffc83c"
				Note Time="0" Value="E5" Duration="4" Instrument="DMC: drums + bass"
				Note Time="2" Value="C5" Duration="5" Instrument="DMC: drums + bass"
				Note Time="4" Value="E5" Duration="4" Instrument="DMC: drums + bass"
				Note Time="6" Value="C5" Duration="5" Instrument="DMC: drums + bass"
				Note Time="8" Value="E5" Duration="4" Instrument="DMC: drums + bass"
				Note Time="10" Value="C5" Duration="5" Instrument="DMC: drums + bass"
				Note Time="12" Value="E5" Duration="4" Instrument="DMC: drums + bass"
				Note Time="14" Value="C5" Duration="5" Instrument="DMC: drums + bass"
				Note Time="16" Value="E5" Duration="4" Instrument="DMC: drums + bass"
				Note Time="18" Value="A#4" Duration="5" Instrument="DMC: drums + bass"
				Note Time="20" Value="E5" Duration="4" Instrument="DMC: drums + bass"
				Note Time="22" Value="A#4" Duration="5" Instrument="DMC: drums + bass"
				Note Time="24" Value="E5" Duration="4" Instrument="DMC: drums + bass"
				Note Time="26" Value="G#4" Duration="5" Instrument="DMC: drums + bass"
				Note Time="28" Value="E5" Duration="4" Instrument="DMC: drums + bass"
				Note Time="30" Value="G#4" Duration="5" Instrument="DMC: drums + bass"
			Pattern Name="Pattern 8" Color="3eb3f9"
				Note Time="0" Value="E5" Duration="2" Instrument="DMC: drums + bass"
				Note Time="2" Value="D#4" Duration="3" Instrument="DMC: drums + bass"
				Note Time="4" Value="E5" Duration="2" Instrument="DMC: drums + bass"
				Note Time="6" Value="D#4" Duration="3" Instrument="DMC: drums + bass"
				Note Time="8" Value="E5" Duration="2" Instrument="DMC: drums + bass"
				Note Time="10" Value="D#4" Duration="3" Instrument="DMC: drums + bass"
				Note Time="12" Value="E5" Duration="2" Instrument="DMC: drums + bass"
				Note Time="14" Value="D#4" Duration="3" Instrument="DMC: drums + bass"
				Note Time="16" Value="E5" Duration="2" Instrument="DMC: drums + bass"
				Note Time="18" Value="F4" Duration="3" Instrument="DMC: drums + bass"
				Note Time="20" Value="E5" Duration="2" Instrument="DMC: drums + bass"
				Note Time="22" Value="F4" Duration="3" Instrument="DMC: drums + bass"
				Note Time="24" Value="E5" Duration="2" Instrument="DMC: drums + bass"
				Note Time="26" Value="C4" Duration="3" Instrument="DMC: drums + bass"
				Note Time="28" Value="E5" Duration="2" Instrument="DMC: drums + bass"
				Note Time="30" Value="C4" Duration="3" Instrument="DMC: drums + bass"
			Pattern Name="Pattern 9" Color="3ce8fd"
				Note Time="0" Value="E5" Duration="2" Instrument="DMC: drums + bass"
				Note Time="2" Value="C5" Duration="3" Instrument="DMC: drums + bass"
				Note Time="4" Value="F5" Duration="2" Instrument="DMC: drums + bass"
				Note Time="6" Value="C5" Duration="3" Instrument="DMC: drums + bass"
				Note Time="8" Value="E5" Duration="2" Instrument="DMC: drums + bass"
				Note Time="10" Value="C5" Duration="3" Instrument="DMC: drums + bass"
				Note Time="12" Value="F5" Duration="2" Instrument="DMC: drums + bass"
				Note Time="14" Value="C5" Duration="3" Instrument="DMC: drums + bass"
				Note Time="16" Value="E5" Duration="2" Instrument="DMC: drums + bass"
				Note Time="18" Value="A#4" Duration="3" Instrument="DMC: drums + bass"
				Note Time="20" Value="F5" Duration="2" Instrument="DMC: drums + bass"
				Note Time="22" Value="A#4" Duration="3" Instrument="DMC: drums + bass"
				Note Time="24" Value="E5" Duration="2" Instrument="DMC: drums + bass"
				Note Time="26" Value="G#4" Duration="3" Instrument="DMC: drums + bass"
				Note Time="28" Value="F5" Duration="2" Instrument="DMC: drums + bass"
				Note Time="30" Value="G#4" Duration="3" Instrument="DMC: drums + bass"
			Pattern Name="Pattern 10" Color="8d69e4"
				Note Time="0" Value="E5" Duration="2" Instrument="DMC: drums + bass"
				Note Time="2" Value="D#4" Duration="3" Instrument="DMC: drums + bass"
				Note Time="4" Value="F5" Duration="2" Instrument="DMC: drums + bass"
				Note Time="6" Value="D#4" Duration="3" Instrument="DMC: drums + bass"
				Note Time="8" Value="E5" Duration="2" Instrument="DMC: drums + bass"
				Note Time="10" Value="D#4" Duration="3" Instrument="DMC: drums + bass"
				Note Time="12" Value="F5" Duration="2" Instrument="DMC: drums + bass"
				Note Time="14" Value="D#4" Duration="3" Instrument="DMC: drums + bass"
				Note Time="16" Value="E5" Duration="2" Instrument="DMC: drums + bass"
				Note Time="18" Value="F4" Duration="3" Instrument="DMC: drums + bass"
				Note Time="20" Value="F5" Duration="2" Instrument="DMC: drums + bass"
				Note Time="22" Value="F4" Duration="3" Instrument="DMC: drums + bass"
				Note Time="24" Value="E5" Duration="2" Instrument="DMC: drums + bass"
				Note Time="26" Value="C4" Duration="3" Instrument="DMC: drums + bass"
				Note Time="28" Value="F5" Duration="2" Instrument="DMC: drums + bass"
				Note Time="30" Value="C4" Duration="3" Instrument="DMC: drums + bass"
			Pattern Name="Pattern 11" Color="65f2ff"
				Note Time="0" Value="E5" Duration="2" Instrument="DMC: drums + bass"
				Note Time="1" Value="C4" Duration="2" Instrument="DMC: drums + bass"
				Note Time="3" Value="C4" Duration="1" Instrument="DMC: drums + bass"
				Note Time="4" Value="F5" Duration="2" Instrument="DMC: drums + bass"
				Note Time="5" Value="C4" Duration="2" Instrument="DMC: drums + bass"
				Note Time="7" Value="C4" Duration="1" Instrument="DMC: drums + bass"
				Note Time="8" Value="E5" Duration="2" Instrument="DMC: drums + bass"
				Note Time="9" Value="C4" Duration="1" Instrument="DMC: drums + bass"
				Note Time="10" Value="C4" Duration="6" Instrument="DMC: drums + bass"
				Note Time="12" Value="F5" Duration="2" Instrument="DMC: drums + bass"
				Note Time="13" Value="C4" Duration="1" Instrument="DMC: drums + bass"
				Note Time="14" Value="C4" Duration="6" Instrument="DMC: drums + bass"
				Note Time="16" Value="E5" Duration="2" Instrument="DMC: drums + bass"
				Note Time="17" Value="D4" Duration="1" Instrument="DMC: drums + bass"
				Note Time="18" Value="D4" Duration="6" Instrument="DMC: drums + bass"
				Note Time="20" Value="F5" Duration="2" Instrument="DMC: drums + bass"
				Note Time="21" Value="D4" Duration="1" Instrument="DMC: drums + bass"
				Note Time="22" Value="D#4" Duration="2" Instrument="DMC: drums + bass"
				Note Time="24" Value="E5" Duration="2" Instrument="DMC: drums + bass"
				Note Time="25" Value="D#4" Duration="1" Instrument="DMC: drums + bass"
				Note Time="26" Value="D#4" Duration="2" Instrument="DMC: drums + bass"
				Note Time="28" Value="F5" Duration="2" Instrument="DMC: drums + bass"
				Note Time="29" Value="D#4" Duration="1" Instrument="DMC: drums + bass"
				Note Time="30" Value="D#4" Duration="2" Instrument="DMC: drums + bass"
			Pattern Name="Pattern 12" Color="ff935e"
				Note Time="0" Value="E5" Duration="2" Instrument="DMC: drums + bass"
				Note Time="1" Value="G3" Duration="1" Instrument="DMC: drums + bass"
				Note Time="2" Value="G3" Duration="3" Instrument="DMC: drums + bass"
				Note Time="4" Value="F5" Duration="2" Instrument="DMC: drums + bass"
				Note Time="5" Value="G3" Duration="1" Instrument="DMC: drums + bass"
				Note Time="6" Value="G3" Duration="3" Instrument="DMC: drums + bass"
				Note Time="8" Value="E5" Duration="2" Instrument="DMC: drums + bass"
				Note Time="9" Value="G3" Duration="1" Instrument="DMC: drums + bass"
				Note Time="10" Value="G3" Duration="3" Instrument="DMC: drums + bass"
				Note Time="12" Value="F5" Duration="2" Instrument="DMC: drums + bass"
				Note Time="13" Value="G3" Duration="1" Instrument="DMC: drums + bass"
				Note Time="14" Value="G3" Duration="3" Instrument="DMC: drums + bass"
				Note Time="16" Value="E5" Duration="2" Instrument="DMC: drums + bass"
				Note Time="17" Value="G#3" Duration="1" Instrument="DMC: drums + bass"
				Note Time="18" Value="G#3" Duration="2" Instrument="DMC: drums + bass"
				Note Time="20" Value="F5" Duration="2" Instrument="DMC: drums + bass"
				Note Time="21" Value="G#3" Duration="1" Instrument="DMC: drums + bass"
				Note Time="22" Value="G#3" Duration="2" Instrument="DMC: drums + bass"
				Note Time="23" Value="C4" Duration="1" Instrument="DMC: drums + bass"
				Note Time="24" Value="E5" Duration="2" Instrument="DMC: drums + bass"
				Note Time="25" Value="C4" Duration="1" Instrument="DMC: drums + bass"
				Note Time="26" Value="C4" Duration="2" Instrument="DMC: drums + bass"
				Note Time="28" Value="F5" Duration="2" Instrument="DMC: drums + bass"
				Note Time="29" Value="C4" Duration="1" Instrument="DMC: drums + bass"
				Note Time="30" Value="C4" Duration="2" Instrument="DMC: drums + bass"
			Pattern Name="Pattern 13" Color="ffc6a1"
				Note Time="0" Value="E5" Duration="2" Instrument="DMC: drums + bass"
				Note Time="2" Value="D5" Duration="2" Instrument="DMC: drums + bass"
				Note Time="4" Value="F5" Duration="2" Instrument="DMC: drums + bass"
				Note Time="6" Value="D5" Duration="2" Instrument="DMC: drums + bass"
				Note Time="8" Value="E5" Duration="2" Instrument="DMC: drums + bass"
				Note Time="10" Value="D5" Duration="2" Instrument="DMC: drums + bass"
				Note Time="12" Value="F5" Duration="2" Instrument="DMC: drums + bass"
				Note Time="14" Value="D5" Duration="2" Instrument="DMC: drums + bass"
				Note Time="16" Value="E5" Duration="2" Instrument="DMC: drums + bass"
				Note Time="18" Value="C5" Duration="2" Instrument="DMC: drums + bass"
				Note Time="20" Value="F5" Duration="2" Instrument="DMC: drums + bass"
				Note Time="22" Value="C5" Duration="2" Instrument="DMC: drums + bass"
				Note Time="24" Value="E5" Duration="2" Instrument="DMC: drums + bass"
				Note Time="26" Value="A#4" Duration="2" Instrument="DMC: drums + bass"
				Note Time="28" Value="F5" Duration="2" Instrument="DMC: drums + bass"
				Note Time="30" Value="A#4" Duration="3" Instrument="DMC: drums + bass"
			Pattern Name="Pattern 14" Color="ffb83c"
				Note Time="0" Value="E5" Duration="2" Instrument="DMC: drums + bass"
				Note Time="2" Value="F4" Duration="2" Instrument="DMC: drums + bass"
				Note Time="4" Value="F5" Duration="2" Instrument="DMC: drums + bass"
				Note Time="6" Value="F4" Duration="2" Instrument="DMC: drums + bass"
				Note Time="8" Value="E5" Duration="2" Instrument="DMC: drums + bass"
				Note Time="10" Value="F4" Duration="2" Instrument="DMC: drums + bass"
				Note Time="12" Value="F5" Duration="2" Instrument="DMC: drums + bass"
				Note Time="14" Value="F4" Duration="2" Instrument="DMC: drums + bass"
				Note Time="16" Value="E5" Duration="2" Instrument="DMC: drums + bass"
				Note Time="18" Value="G4" Duration="2" Instrument="DMC: drums + bass"
				Note Time="20" Value="F5" Duration="2" Instrument="DMC: drums + bass"
				Note Time="22" Value="G4" Duration="2" Instrument="DMC: drums + bass"
				Note Time="24" Value="E5" Duration="2" Instrument="DMC: drums + bass"
				Note Time="26" Value="D4" Duration="2" Instrument="DMC: drums + bass"
				Note Time="28" Value="F5" Duration="2" Instrument="DMC: drums + bass"
				Note Time="30" Value="D4" Duration="2" Instrument="DMC: drums + bass"
			Pattern Name="Pattern 15" Color="91c76b"
				Note Time="0" Value="E5" Duration="2" Instrument="DMC: drums + bass"
				Note Time="2" Value="D4" Duration="2" Instrument="DMC: drums + bass"
				Note Time="4" Value="F5" Duration="2" Instrument="DMC: drums + bass"
				Note Time="6" Value="D4" Duration="2" Instrument="DMC: drums + bass"
				Note Time="8" Value="E5" Duration="2" Instrument="DMC: drums + bass"
				Note Time="10" Value="D4" Duration="2" Instrument="DMC: drums + bass"
				Note Time="12" Value="F5" Duration="2" Instrument="DMC: drums + bass"
				Note Time="14" Value="D4" Duration="2" Instrument="DMC: drums + bass"
				Note Time="16" Value="E5" Duration="2" Instrument="DMC: drums + bass"
				Note Time="18" Value="A3" Duration="2" Instrument="DMC: drums + bass"
				Note Time="20" Value="F5" Duration="2" Instrument="DMC: drums + bass"
				Note Time="22" Value="A3" Duration="2" Instrument="DMC: drums + bass"
				Note Time="24" Value="E5" Duration="2" Instrument="DMC: drums + bass"
				Note Time="26" Value="A#3" Duration="2" Instrument="DMC: drums + bass"
				Note Time="28" Value="F5" Duration="2" Instrument="DMC: drums + bass"
				Note Time="30" Value="A#3" Duration="2" Instrument="DMC: drums + bass"
			Pattern Name="Pattern 25" Color="7fdc83"
				Note Time="0" Value="E5" Duration="2" Instrument="DMC: drums + bass"
				Note Time="2" Value="D5" Duration="2" Instrument="DMC: drums + bass"
				Note Time="4" Value="F5" Duration="2" Instrument="DMC: drums + bass"
				Note Time="6" Value="D5" Duration="2" Instrument="DMC: drums + bass"
				Note Time="8" Value="E5" Duration="2" Instrument="DMC: drums + bass"
				Note Time="10" Value="D5" Duration="2" Instrument="DMC: drums + bass"
				Note Time="12" Value="F5" Duration="2" Instrument="DMC: drums + bass"
				Note Time="14" Value="D5" Duration="2" Instrument="DMC: drums + bass"
				Note Time="16" Value="E5" Duration="2" Instrument="DMC: drums + bass"
				Note Time="18" Value="D5" Duration="2" Instrument="DMC: drums + bass"
				Note Time="20" Value="F5" Duration="2" Instrument="DMC: drums + bass"
				Note Time="22" Value="D5" Duration="2" Instrument="DMC: drums + bass"
				Note Time="24" Value="E5" Duration="2" Instrument="DMC: drums + bass"
				Note Time="26" Value="C5" Duration="2" Instrument="DMC: drums + bass"
				Note Time="28" Value="F5" Duration="2" Instrument="DMC: drums + bass"
				Note Time="30" Value="C5" Duration="3" Instrument="DMC: drums + bass"
			Pattern Name="Pattern 32" Color="eaffbd"
				Note Time="0" Value="E5" Duration="2" Instrument="DMC: drums + bass"
				Note Time="2" Value="A#4" Duration="2" Instrument="DMC: drums + bass"
				Note Time="4" Value="F5" Duration="2" Instrument="DMC: drums + bass"
				Note Time="6" Value="A#4" Duration="2" Instrument="DMC: drums + bass"
				Note Time="8" Value="E5" Duration="2" Instrument="DMC: drums + bass"
				Note Time="10" Value="A#4" Duration="2" Instrument="DMC: drums + bass"
				Note Time="12" Value="F5" Duration="2" Instrument="DMC: drums + bass"
				Note Time="14" Value="C5" Duration="2" Instrument="DMC: drums + bass"
				Note Time="16" Value="E5" Duration="2" Instrument="DMC: drums + bass"
				Note Time="18" Value="C5" Duration="2" Instrument="DMC: drums + bass"
				Note Time="20" Value="F5" Duration="2" Instrument="DMC: drums + bass"
				Note Time="22" Value="C5" Duration="2" Instrument="DMC: drums + bass"
				Note Time="24" Value="E5" Duration="2" Instrument="DMC: drums + bass"
				Note Time="26" Value="C5" Duration="2" Instrument="DMC: drums + bass"
				Note Time="28" Value="F5" Duration="2" Instrument="DMC: drums + bass"
				Note Time="30" Value="C5" Duration="2" Instrument="DMC: drums + bass"
			Pattern Name="Pattern 33" Color="b5c2ff"
				Note Time="0" Value="E5" Duration="2" Instrument="DMC: drums + bass"
				Note Time="2" Value="B4" Duration="2" Instrument="DMC: drums + bass"
				Note Time="4" Value="F5" Duration="2" Instrument="DMC: drums + bass"
				Note Time="6" Value="B4" Duration="2" Instrument="DMC: drums + bass"
				Note Time="8" Value="E5" Duration="2" Instrument="DMC: drums + bass"
				Note Time="10" Value="B4" Duration="2" Instrument="DMC: drums + bass"
				Note Time="12" Value="F5" Duration="2" Instrument="DMC: drums + bass"
				Note Time="14" Value="B4" Duration="2" Instrument="DMC: drums + bass"
				Note Time="16" Value="E5" Duration="2" Instrument="DMC: drums + bass"
				Note Time="18" Value="B4" Duration="2" Instrument="DMC: drums + bass"
				Note Time="20" Value="F5" Duration="2" Instrument="DMC: drums + bass"
				Note Time="22" Value="B4" Duration="2" Instrument="DMC: drums + bass"
				Note Time="24" Value="E5" Duration="2" Instrument="DMC: drums + bass"
				Note Time="26" Value="B4" Duration="2" Instrument="DMC: drums + bass"
				Note Time="28" Value="F5" Duration="2" Instrument="DMC: drums + bass"
				Note Time="30" Value="B4" Duration="3" Instrument="DMC: drums + bass"
			Pattern Name="Pattern 39" Color="ffff64"
				Note Time="0" Value="E5" Duration="2" Instrument="DMC: drums + bass"
				Note Time="2" Value="C5" Duration="2" Instrument="DMC: drums + bass"
				Note Time="4" Value="F5" Duration="2" Instrument="DMC: drums + bass"
				Note Time="6" Value="C5" Duration="2" Instrument="DMC: drums + bass"
				Note Time="8" Value="E5" Duration="2" Instrument="DMC: drums + bass"
				Note Time="10" Value="C5" Duration="2" Instrument="DMC: drums + bass"
				Note Time="12" Value="F5" Duration="2" Instrument="DMC: drums + bass"
				Note Time="14" Value="D5" Duration="2" Instrument="DMC: drums + bass"
				Note Time="16" Value="E5" Duration="2" Instrument="DMC: drums + bass"
				Note Time="18" Value="D5" Duration="2" Instrument="DMC: drums + bass"
				Note Time="20" Value="F5" Duration="2" Instrument="DMC: drums + bass"
				Note Time="22" Value="D5" Duration="2" Instrument="DMC: drums + bass"
				Note Time="24" Value="E5" Duration="2" Instrument="DMC: drums + bass"
				Note Time="26" Value="D5" Duration="2" Instrument="DMC: drums + bass"
				Note Time="28" Value="F5" Duration="2" Instrument="DMC: drums + bass"
				Note Time="30" Value="D5" Duration="2" Instrument="DMC: drums + bass"
			Pattern Name="Pattern 34" Color="ffff77"
				Note Time="0" Value="E5" Duration="2" Instrument="DMC: drums + bass"
				Note Time="4" Value="E5" Duration="2" Instrument="DMC: drums + bass"
				Note Time="8" Value="E5" Duration="2" Instrument="DMC: drums + bass"
				Note Time="12" Value="E5" Duration="2" Instrument="DMC: drums + bass"
				Note Time="16" Value="E5" Duration="2" Instrument="DMC: drums + bass"
				Note Time="20" Value="E5" Duration="2" Instrument="DMC: drums + bass"
				Note Time="24" Value="E5" Duration="2" Instrument="DMC: drums + bass"
				Note Time="28" Value="E5" Duration="2" Instrument="DMC: drums + bass"
			Pattern Name="Pattern 40" Color="ffcb3c"
				Note Time="0" Value="E5" Duration="2" Instrument="DMC: drums + bass"
				Note Time="4" Value="E5" Duration="2" Instrument="DMC: drums + bass"
				Note Time="8" Value="E5" Duration="2" Instrument="DMC: drums + bass"
				Note Time="12" Value="E5" Duration="2" Instrument="DMC: drums + bass"
				Note Time="16" Value="E5" Duration="2" Instrument="DMC: drums + bass"
				Note Time="20" Value="E5" Duration="2" Instrument="DMC: drums + bass"
				Note Time="24" Value="E5" Duration="2" Instrument="DMC: drums + bass"
				Note Time="28" Value="E5" Duration="2" Instrument="DMC: drums + bass"
				Note Time="30" Value="E5" Duration="2" Instrument="DMC: drums + bass"
			Pattern Name="Pattern 37" Color="dad960"
				Note Time="8" Value="D3" Duration="2" Instrument="DMC: drums + bass"
				Note Time="10" Value="E3" Duration="2" Instrument="DMC: drums + bass"
				Note Time="12" Value="B3" Duration="2" Instrument="DMC: drums + bass"
				Note Time="14" Value="C4" Duration="10" Instrument="DMC: drums + bass"
				Note Time="20" Value="E4" Duration="2" Instrument="DMC: drums + bass"
				Note Time="22" Value="F#4" Duration="2" Instrument="DMC: drums + bass"
				Note Time="24" Value="G4" Duration="6" Instrument="DMC: drums + bass"
				Note Time="30" Value="F#4" Duration="6" Instrument="DMC: drums + bass"
			Pattern Name="Pattern 35" Color="ffd43c"
				Note Time="7" Value="E4" Duration="6" Instrument="DMC: drums + bass"
			PatternInstance Time="2" Pattern="Pattern 38"
			PatternInstance Time="3" Pattern="Pattern 41"
			PatternInstance Time="4" Pattern="Pattern 16"
			PatternInstance Time="5" Pattern="Pattern 17"
			PatternInstance Time="6" Pattern="Pattern 18"
			PatternInstance Time="7" Pattern="Pattern 19"
			PatternInstance Time="8" Pattern="Pattern 18"
			PatternInstance Time="9" Pattern="Pattern 17"
			PatternInstance Time="10" Pattern="Pattern 18"
			PatternInstance Time="11" Pattern="Pattern 19"
			PatternInstance Time="12" Pattern="Pattern 20"
			PatternInstance Time="13" Pattern="Pattern 21"
			PatternInstance Time="14" Pattern="Pattern 22"
			PatternInstance Time="15" Pattern="Pattern 23"
			PatternInstance Time="16" Pattern="Pattern 24"
			PatternInstance Time="17" Pattern="Pattern 26"
			PatternInstance Time="18" Pattern="Pattern 27"
			PatternInstance Time="19" Pattern="Pattern 26"
			PatternInstance Time="20" Pattern="Pattern 28"
			PatternInstance Time="21" Pattern="Pattern 29"
			PatternInstance Time="22" Pattern="Pattern 30"
			PatternInstance Time="23" Pattern="Pattern 29"
			PatternInstance Time="24" Pattern="Pattern 31"
			PatternInstance Time="28" Pattern="01"
			PatternInstance Time="29" Pattern="Pattern 1"
			PatternInstance Time="30" Pattern="Pattern 2"
			PatternInstance Time="31" Pattern="Pattern 1"
			PatternInstance Time="32" Pattern="Pattern 2"
			PatternInstance Time="33" Pattern="Pattern 3"
			PatternInstance Time="34" Pattern="Pattern 4"
			PatternInstance Time="35" Pattern="Pattern 5"
			PatternInstance Time="36" Pattern="Pattern 6"
			PatternInstance Time="37" Pattern="Pattern 7"
			PatternInstance Time="38" Pattern="Pattern 8"
			PatternInstance Time="39" Pattern="Pattern 7"
			PatternInstance Time="40" Pattern="Pattern 8"
			PatternInstance Time="41" Pattern="Pattern 9"
			PatternInstance Time="42" Pattern="Pattern 10"
			PatternInstance Time="43" Pattern="Pattern 11"
			PatternInstance Time="44" Pattern="Pattern 12"
			PatternInstance Time="45" Pattern="Pattern 13"
			PatternInstance Time="46" Pattern="Pattern 14"
			PatternInstance Time="47" Pattern="Pattern 15"
			PatternInstance Time="48" Pattern="Pattern 14"
			PatternInstance Time="49" Pattern="Pattern 13"
			PatternInstance Time="50" Pattern="Pattern 14"
			PatternInstance Time="51" Pattern="Pattern 15"
			PatternInstance Time="52" Pattern="Pattern 14"
			PatternInstance Time="53" Pattern="Pattern 16"
			PatternInstance Time="54" Pattern="Pattern 17"
			PatternInstance Time="55" Pattern="Pattern 18"
			PatternInstance Time="56" Pattern="Pattern 19"
			PatternInstance Time="57" Pattern="Pattern 18"
			PatternInstance Time="58" Pattern="Pattern 17"
			PatternInstance Time="59" Pattern="Pattern 18"
			PatternInstance Time="60" Pattern="Pattern 19"
			PatternInstance Time="61" Pattern="Pattern 20"
			PatternInstance Time="62" Pattern="Pattern 21"
			PatternInstance Time="63" Pattern="Pattern 22"
			PatternInstance Time="64" Pattern="Pattern 23"
			PatternInstance Time="66" Pattern="Pattern 25"
			PatternInstance Time="67" Pattern="Pattern 32"
			PatternInstance Time="68" Pattern="Pattern 25"
			PatternInstance Time="69" Pattern="Pattern 32"
			PatternInstance Time="70" Pattern="Pattern 33"
			PatternInstance Time="71" Pattern="Pattern 39"
			PatternInstance Time="72" Pattern="Pattern 33"
			PatternInstance Time="73" Pattern="Pattern 39"
			PatternInstance Time="74" Pattern="Pattern 33"
			PatternInstance Time="75" Pattern="Pattern 39"
			PatternInstance Time="76" Pattern="Pattern 33"
			PatternInstance Time="77" Pattern="Pattern 39"
			PatternInstance Time="78" Pattern="Pattern 34"
			PatternInstance Time="79" Pattern="Pattern 40"
			PatternInstance Time="81" Pattern="Pattern 37"
			PatternInstance Time="82" Pattern="Pattern 35"
	Song Name="endgame" Color="5dd2ff" Folder="Custom music used in the game" Length="11" LoopPoint="-1" PatternLength="64" BeatLength="4" FamiTrackerTempo="123" FamiTrackerSpeed="6"
		PatternCustomSettings Time="1" Length="63"
		PatternCustomSettings Time="2" Length="32"
		PatternCustomSettings Time="10" Length="55"
		Channel Type="Square1"
			Pattern Name="00" Color="55b2ff"
				Note Time="0" Value="E4" Duration="1" Instrument="blank" SlideTarget="C#4" Volume="10"
				Note Time="1" FinePitch="2"
				Note Time="3" Value="G4" Duration="1" Instrument="blank" SlideTarget="F4" CutDelay="2"
				Note Time="4" Value="G4" Duration="2" Instrument="blank" SlideTarget="F4" CutDelay="2"
				Note Time="6" Value="E4" Duration="1" Instrument="blank" SlideTarget="C#4" CutDelay="4"
				Note Time="7" Value="G4" Duration="1" Instrument="blank" SlideTarget="F4" CutDelay="2"
				Note Time="8" Value="G4" Duration="1" Instrument="blank" SlideTarget="F4" CutDelay="2"
				Note Time="9" Value="G4" Duration="1" Instrument="blank" SlideTarget="F4" CutDelay="2"
				Note Time="10" Value="G4" Duration="1" Instrument="blank" SlideTarget="F4" CutDelay="2"
				Note Time="11" Value="E4" Duration="1" Instrument="blank" SlideTarget="D4" CutDelay="2"
				Note Time="12" Value="E4" Duration="2" Instrument="blank" SlideTarget="C#4" CutDelay="2"
				Note Time="14" Value="E4" Duration="1" Instrument="blank" SlideTarget="C#4"
				Note Time="17" Value="G4" Duration="1" Instrument="blank" SlideTarget="F4" CutDelay="2"
				Note Time="18" Value="G4" Duration="2" Instrument="blank" SlideTarget="E4" CutDelay="2"
				Note Time="20" Value="C5" Duration="2" Instrument="blank" SlideTarget="F4"
				Note Time="22" Value="E4" Duration="3" Instrument="blank" SlideTarget="A3"
				Note Time="25" Value="G4" Duration="1" Instrument="blank" SlideTarget="F4" CutDelay="2"
				Note Time="26" Value="G4" Duration="1" Instrument="blank" SlideTarget="F4" CutDelay="2"
				Note Time="27" Value="E4" Duration="1" Instrument="blank" SlideTarget="D4" CutDelay="2"
				Note Time="28" Value="E4" Duration="2" Instrument="blank" SlideTarget="D4" CutDelay="2"
				Note Time="30" Value="E4" Duration="1" Instrument="blank" SlideTarget="D4"
				Note Time="33" Value="G4" Duration="1" Instrument="blank" SlideTarget="F4" CutDelay="2"
				Note Time="34" Value="G4" Duration="2" Instrument="blank" SlideTarget="F4" CutDelay="2"
				Note Time="36" Value="E4" Duration="1" Instrument="blank" SlideTarget="D4" CutDelay="4"
				Note Time="37" Value="G4" Duration="1" Instrument="blank" SlideTarget="F4" CutDelay="2"
				Note Time="38" Value="G4" Duration="1" Instrument="blank" SlideTarget="F4" CutDelay="2"
				Note Time="39" Value="G4" Duration="1" Instrument="blank" SlideTarget="F4" CutDelay="2"
				Note Time="40" Value="G4" Duration="1" Instrument="blank" SlideTarget="F4" CutDelay="2"
				Note Time="41" Value="E4" Duration="1" Instrument="blank" SlideTarget="D4" CutDelay="2"
				Note Time="42" Value="E4" Duration="2" Instrument="blank" SlideTarget="D4" CutDelay="2"
				Note Time="44" Value="E4" Duration="2" Instrument="blank" SlideTarget="B3"
				Note Time="47" Value="G4" Duration="1" Instrument="blank" SlideTarget="E4" CutDelay="2"
				Note Time="48" Value="G4" Duration="2" Instrument="blank" SlideTarget="E4" CutDelay="2"
				Note Time="50" Value="C5" Duration="2" Instrument="blank" SlideTarget="F4"
				Note Time="52" Value="E4" Duration="3" Instrument="blank" SlideTarget="A3"
				Note Time="55" Value="G4" Duration="1" Instrument="blank" SlideTarget="E4" CutDelay="2"
				Note Time="56" Value="G4" Duration="2" Instrument="blank" SlideTarget="E4" CutDelay="2"
				Note Time="58" Value="E4" Duration="2" Instrument="blank" SlideTarget="D4" CutDelay="2"
				Note Time="60" Value="E4" Duration="4" Instrument="blank" SlideTarget="B3" CutDelay="2"
			Pattern Name="01" Color="e95093"
				Note Time="0" Value="E4" Duration="1" Instrument="blank" SlideTarget="D4"
				Note Time="3" Value="G4" Duration="1" Instrument="blank" SlideTarget="F4" CutDelay="2"
				Note Time="4" Value="G4" Duration="2" Instrument="blank" SlideTarget="F4" CutDelay="2"
				Note Time="8" Value="E4" Duration="1" Instrument="blank" SlideTarget="D4" CutDelay="4"
				Note Time="9" Value="G4" Duration="1" Instrument="blank" SlideTarget="F4" CutDelay="2"
				Note Time="10" Value="G4" Duration="1" Instrument="blank" SlideTarget="F4" CutDelay="2"
				Note Time="11" Value="G4" Duration="1" Instrument="blank" SlideTarget="F4" CutDelay="2"
				Note Time="12" Value="G4" Duration="1" Instrument="blank" SlideTarget="E4" CutDelay="2"
				Note Time="13" Value="E4" Duration="1" Instrument="blank" SlideTarget="D4" CutDelay="2"
				Note Time="14" Value="E4" Duration="2" Instrument="blank" SlideTarget="D4" CutDelay="2"
				Note Time="16" Value="E4" Duration="1" Instrument="blank" SlideTarget="D4"
				Note Time="19" Value="G4" Duration="1" Instrument="blank" SlideTarget="F4" CutDelay="2"
				Note Time="20" Value="G4" Duration="2" Instrument="blank" SlideTarget="F4" CutDelay="2"
				Note Time="22" Value="C5" Duration="2" Instrument="blank" SlideTarget="F4"
				Note Time="24" Value="E4" Duration="3" Instrument="blank" SlideTarget="A3"
				Note Time="27" Value="G4" Duration="1" Instrument="blank" SlideTarget="F4" CutDelay="2"
				Note Time="28" Value="G4" Duration="1" Instrument="blank" SlideTarget="F4" CutDelay="2"
				Note Time="29" Value="E4" Duration="1" Instrument="blank" SlideTarget="D4" CutDelay="2"
				Note Time="30" Value="E4" Duration="2" Instrument="blank" SlideTarget="B3" CutDelay="2"
				Note Time="32" Value="E4" Duration="1" Instrument="blank" SlideTarget="D4"
				Note Time="35" Value="G4" Duration="1" Instrument="blank" SlideTarget="E4" CutDelay="2"
				Note Time="36" Value="G4" Duration="4" Instrument="blank" SlideTarget="G3" CutDelay="2"
				Note Time="40" Value="E4" Duration="1" Instrument="blank" SlideTarget="C4" CutDelay="4"
				Note Time="41" Value="G4" Duration="1" Instrument="blank" SlideTarget="E4" CutDelay="2"
				Note Time="42" Value="G4" Duration="1" Instrument="blank" SlideTarget="E4" CutDelay="2"
				Note Time="43" Value="G4" Duration="1" Instrument="blank" SlideTarget="E4" CutDelay="2"
				Note Time="44" Value="G4" Duration="1" Instrument="blank" SlideTarget="E4" CutDelay="2"
				Note Time="45" Value="E4" Duration="1" Instrument="blank" SlideTarget="D4" CutDelay="2"
				Note Time="46" Value="E4" Duration="2" Instrument="blank" SlideTarget="A#3" CutDelay="2"
				Note Time="48" Value="E4" Duration="2" Instrument="blank" SlideTarget="B3"
				Note Time="51" Value="G4" Duration="1" Instrument="blank" SlideTarget="F4" CutDelay="2"
				Note Time="52" Value="G4" Duration="1" Instrument="blank" SlideTarget="C#4" CutDelay="2"
				Note Time="53" Value="C5" Duration="2" Instrument="blank" SlideTarget="F4"
				Note Time="55" Value="E4" Duration="3" Instrument="blank" SlideTarget="A3"
				Note Time="58" Value="G4" Duration="1" Instrument="blank" SlideTarget="F4" CutDelay="2"
				Note Time="59" Value="G4" Duration="1" Instrument="blank" SlideTarget="F4" CutDelay="2"
				Note Time="60" Value="G4" Duration="1" Instrument="blank" SlideTarget="F4" CutDelay="2"
				Note Time="61" Value="G4" Duration="1" Instrument="blank" SlideTarget="F4" CutDelay="2"
				Note Time="62" Value="G4" Duration="1" Instrument="blank" SlideTarget="F4" CutDelay="2"
			Pattern Name="02" Color="ffa83c"
				Note Time="0" Value="G4" Duration="1" Instrument="blank" SlideTarget="F4"
				Note Time="2" Value="G4" Duration="1" Instrument="blank" SlideTarget="F4"
				Note Time="4" Value="G4" Duration="1" Instrument="blank" SlideTarget="F4" CutDelay="2"
				Note Time="5" Value="G4" Duration="1" Instrument="blank" SlideTarget="F4" CutDelay="2"
				Note Time="6" Value="G4" Duration="2" Instrument="blank" SlideTarget="E4" CutDelay="2"
				Note Time="8" Value="G4" Duration="1" Instrument="blank" SlideTarget="F#4"
				Note Time="10" Value="G4" Duration="1" Instrument="blank" SlideTarget="F#4"
				Note Time="12" Value="G4" Duration="1" Instrument="blank" SlideTarget="F#4"
				Note Time="14" Value="G4" Duration="1" Instrument="blank" SlideTarget="F#4"
				Note Time="16" Value="E4" Duration="4" Instrument="blank" SlideTarget="B3"
				Note Time="31" FinePitch="0"
			Pattern Name="03" Color="eaffbd"
				Note Time="8" Value="D#5" Duration="4" Instrument="echo" Volume="15" DutyCycle="1"
				Note Time="12" Value="D5" Duration="3" Instrument="echo"
				Note Time="15" Value="C5" Duration="1" Instrument="echo" NoteDelay="4"
				Note Time="16" Value="D5" Duration="6" Instrument="echo"
				Note Time="22" Value="C5" Duration="6" Instrument="echo"
				Note Time="28" Value="G4" Duration="30" Instrument="echo"
				Note Time="58" Value="C4" Duration="1" Instrument="shift string"
				Note Time="59" Value="C2" Duration="1" Instrument="shift string"
				Note Time="60" Value="G3" Duration="2" Instrument="shift string"
			Pattern Name="04" Color="65f2ff"
				Note Time="8" Value="D#5" Duration="4" Instrument="echo" Volume="15" DutyCycle="1"
				Note Time="12" Value="D5" Duration="3" Instrument="echo"
				Note Time="15" Value="C5" Duration="1" Instrument="echo" NoteDelay="4"
				Note Time="16" Value="D5" Duration="6" Instrument="echo"
				Note Time="22" Value="C5" Duration="6" Instrument="echo"
				Note Time="28" Value="G4" Duration="4" Instrument="echo"
				Note Time="32" Value="G#4" Duration="5" Instrument="echo"
				Note Time="37" Value="G#4" Duration="1" Instrument="echo"
				Note Time="38" Value="A#4" Duration="1" Instrument="echo"
				Note Time="39" Value="G#4" Duration="1" Instrument="echo"
				Note Time="40" Value="G4" Duration="3" Instrument="echo"
				Note Time="43" Value="G4" Duration="1" Instrument="echo" NoteDelay="4"
				Note Time="44" Value="D5" Duration="4" Instrument="echo"
				Note Time="48" Value="C5" Duration="16" Instrument="echo"
			Pattern Name="05" Color="d863ec"
				Note Time="0" Value="C4" Duration="1" Instrument="endgame lead" CutDelay="6"
				Note Time="1" Value="C4" Duration="1" Instrument="endgame lead" CutDelay="4"
				Note Time="2" Value="D#4" Duration="2" Instrument="endgame lead" Volume="15"
				Note Time="3" Volume="4"
				Note Time="4" Value="F4" Duration="2" Instrument="endgame lead" Volume="15"
				Note Time="5" Volume="4"
				Note Time="6" Value="F#4" Duration="1" Instrument="endgame lead" Volume="15"
				Note Time="7" Value="C4" Duration="1" Instrument="endgame lead" NoteDelay="2"
				Note Time="8" Value="G4" Duration="1" Instrument="endgame lead"
				Note Time="9" Value="C4" Duration="1" Instrument="endgame lead" NoteDelay="2"
				Note Time="10" Value="F#4" Duration="2" Instrument="endgame lead"
				Note Time="11" Volume="4"
				Note Time="12" Value="F4" Duration="2" Instrument="endgame lead" Volume="15"
				Note Time="13" Volume="4"
				Note Time="14" Value="C4" Duration="1" Instrument="endgame lead" Volume="15"
				Note Time="15" Value="D#4" Duration="1" Instrument="endgame lead"
				Note Time="16" Value="C4" Duration="1" Instrument="endgame lead" CutDelay="5"
				Note Time="17" Value="C4" Duration="1" Instrument="endgame lead" CutDelay="4"
				Note Time="18" Value="D#4" Duration="2" Instrument="endgame lead"
				Note Time="19" Volume="4"
				Note Time="20" Value="F4" Duration="2" Instrument="endgame lead" Volume="15"
				Note Time="21" Volume="4"
				Note Time="22" Value="F#4" Duration="1" Instrument="endgame lead" Volume="15"
				Note Time="23" Value="C4" Duration="1" Instrument="endgame lead" NoteDelay="2"
				Note Time="24" Value="D4" Duration="2" Instrument="endgame lead"
				Note Time="25" Volume="4"
				Note Time="26" Value="D#4" Duration="2" Instrument="endgame lead" Volume="15"
				Note Time="27" Volume="4"
				Note Time="28" Value="D4" Duration="2" Instrument="endgame lead" Volume="15"
				Note Time="29" Volume="4"
				Note Time="30" Value="C4" Duration="1" Instrument="endgame lead" Volume="15"
				Note Time="31" Value="D4" Duration="1" Instrument="endgame lead"
				Note Time="32" Value="G#3" Duration="1" Instrument="endgame lead" CutDelay="5"
				Note Time="33" Value="G#3" Duration="1" Instrument="endgame lead" CutDelay="4"
				Note Time="34" Value="C4" Duration="2" Instrument="endgame lead"
				Note Time="35" Volume="4"
				Note Time="36" Value="D4" Duration="1" Instrument="endgame lead" Volume="15"
				Note Time="37" Value="G#3" Duration="1" Instrument="endgame lead"
				Note Time="38" Value="D#4" Duration="1" Instrument="endgame lead"
				Note Time="39" Value="C4" Duration="1" Instrument="endgame lead"
				Note Time="40" Value="G4" Duration="2" Instrument="endgame lead"
				Note Time="42" Value="G#4" Duration="2" Instrument="endgame lead"
				Note Time="43" Volume="4"
				Note Time="44" Value="G4" Duration="1" Instrument="endgame lead" Volume="15" CutDelay="4"
				Note Time="45" Value="G#4" Duration="1" Instrument="endgame lead" CutDelay="4"
				Note Time="46" Value="F#4" Duration="2" Instrument="endgame lead"
				Note Time="47" Volume="4"
				Note Time="48" Value="D4" Duration="1" Instrument="endgame lead" Volume="15"
				Note Time="49" Value="F3" Duration="1" Instrument="endgame lead" NoteDelay="2"
				Note Time="50" Value="G3" Duration="1" Instrument="endgame lead"
				Note Time="51" Value="C4" Duration="1" Instrument="endgame lead" NoteDelay="2"
				Note Time="52" Value="D4" Duration="2" Instrument="endgame lead"
				Note Time="53" Volume="4"
				Note Time="54" Value="D#4" Duration="2" Instrument="endgame lead" Volume="15"
				Note Time="55" Volume="4"
				Note Time="56" Value="D4" Duration="6" Instrument="endgame lead" Volume="15"
				Note Time="58" VibratoSpeed="6" VibratoDepth="4"
				Note Time="62" Value="C4" Duration="1" Instrument="endgame lead" VibratoSpeed="0" VibratoDepth="0"
				Note Time="63" Value="B3" Duration="1" Instrument="endgame lead"
			Pattern Name="06" Color="ff935e"
				Note Time="0" Value="C4" Duration="1" Instrument="endgame lead" CutDelay="6"
				Note Time="1" Value="C4" Duration="1" Instrument="endgame lead" CutDelay="4"
				Note Time="2" Value="G4" Duration="2" Instrument="endgame lead" Volume="15"
				Note Time="3" Volume="4"
				Note Time="4" Value="F#4" Duration="2" Instrument="endgame lead" Volume="15"
				Note Time="5" Volume="4"
				Note Time="6" Value="F4" Duration="1" Instrument="endgame lead" Volume="15"
				Note Time="7" Value="C4" Duration="1" Instrument="endgame lead" NoteDelay="2"
				Note Time="8" Value="G4" Duration="1" Instrument="endgame lead"
				Note Time="9" Value="C4" Duration="1" Instrument="endgame lead" NoteDelay="2"
				Note Time="10" Value="F#4" Duration="2" Instrument="endgame lead"
				Note Time="11" Volume="4"
				Note Time="12" Value="F4" Duration="2" Instrument="endgame lead" Volume="15"
				Note Time="13" Volume="4"
				Note Time="14" Value="C4" Duration="1" Instrument="endgame lead" Volume="15"
				Note Time="15" Value="D#4" Duration="1" Instrument="endgame lead"
				Note Time="16" Value="C4" Duration="1" Instrument="endgame lead" CutDelay="5"
				Note Time="17" Value="C4" Duration="1" Instrument="endgame lead" CutDelay="4"
				Note Time="18" Value="D#4" Duration="2" Instrument="endgame lead"
				Note Time="19" Volume="4"
				Note Time="20" Value="F4" Duration="2" Instrument="endgame lead" Volume="15"
				Note Time="21" Volume="4"
				Note Time="22" Value="F#4" Duration="1" Instrument="endgame lead" Volume="15"
				Note Time="23" Value="C4" Duration="1" Instrument="endgame lead" NoteDelay="2"
				Note Time="24" Value="F4" Duration="2" Instrument="endgame lead"
				Note Time="25" Volume="4"
				Note Time="26" Value="D#4" Duration="2" Instrument="endgame lead" Volume="15"
				Note Time="27" Volume="4"
				Note Time="28" Value="D4" Duration="2" Instrument="endgame lead" Volume="15"
				Note Time="29" Volume="4"
				Note Time="30" Value="C4" Duration="1" Instrument="endgame lead" Volume="15"
				Note Time="31" Value="D4" Duration="1" Instrument="endgame lead"
				Note Time="32" Value="G#3" Duration="1" Instrument="endgame lead" CutDelay="5"
				Note Time="33" Value="G#3" Duration="1" Instrument="endgame lead" CutDelay="4"
				Note Time="34" Value="C4" Duration="2" Instrument="endgame lead"
				Note Time="35" Volume="4"
				Note Time="36" Value="D4" Duration="1" Instrument="endgame lead" Volume="15"
				Note Time="37" Value="G#3" Duration="1" Instrument="endgame lead"
				Note Time="38" Value="D#4" Duration="1" Instrument="endgame lead"
				Note Time="39" Value="C4" Duration="1" Instrument="endgame lead"
				Note Time="40" Value="F4" Duration="2" Instrument="endgame lead"
				Note Time="42" Value="G#4" Duration="2" Instrument="endgame lead"
				Note Time="43" Volume="4"
				Note Time="44" Value="G4" Duration="1" Instrument="endgame lead" Volume="15" CutDelay="4"
				Note Time="45" Value="C5" Duration="1" Instrument="endgame lead" CutDelay="4"
				Note Time="46" Value="G#4" Duration="2" Instrument="endgame lead"
				Note Time="47" Volume="4"
				Note Time="48" Value="G4" Duration="1" Instrument="endgame lead" Volume="15"
				Note Time="49" Value="F3" Duration="1" Instrument="endgame lead" NoteDelay="2"
				Note Time="50" Value="G3" Duration="1" Instrument="endgame lead"
				Note Time="51" Value="C4" Duration="1" Instrument="endgame lead" NoteDelay="2"
				Note Time="52" Value="D4" Duration="2" Instrument="endgame lead"
				Note Time="53" Volume="4"
				Note Time="54" Value="B3" Duration="2" Instrument="endgame lead" Volume="15"
				Note Time="55" Volume="4"
				Note Time="56" Value="C4" Duration="2" Instrument="endgame lead" Volume="15"
				Note Time="58" Value="C4" Duration="4" Instrument="endgame lead"
			Pattern Name="07" Color="fcff6f"
				Note Time="0" Value="C4" Duration="1" Instrument="sample" CutDelay="6"
				Note Time="1" Value="C4" Duration="1" Instrument="sample" CutDelay="4"
				Note Time="2" Value="D#4" Duration="2" Instrument="sample" Volume="15"
				Note Time="3" Volume="4"
				Note Time="4" Value="F4" Duration="2" Instrument="sample" Volume="15"
				Note Time="5" Volume="4"
				Note Time="6" Value="F#4" Duration="1" Instrument="sample" Volume="15"
				Note Time="7" Value="C4" Duration="1" Instrument="sample" NoteDelay="2"
				Note Time="8" Value="G4" Duration="1" Instrument="sample"
				Note Time="9" Value="C4" Duration="1" Instrument="sample" NoteDelay="2"
				Note Time="10" Value="F#4" Duration="2" Instrument="sample"
				Note Time="11" Volume="4"
				Note Time="12" Value="F4" Duration="2" Instrument="sample" Volume="15"
				Note Time="13" Volume="4"
				Note Time="14" Value="C4" Duration="1" Instrument="sample" Volume="15"
				Note Time="15" Value="D#4" Duration="1" Instrument="sample"
				Note Time="16" Value="C4" Duration="1" Instrument="sample" CutDelay="5"
				Note Time="17" Value="C4" Duration="1" Instrument="sample" CutDelay="4"
				Note Time="18" Value="D#4" Duration="2" Instrument="sample"
				Note Time="19" Volume="4"
				Note Time="20" Value="F4" Duration="2" Instrument="sample" Volume="15"
				Note Time="21" Volume="4"
				Note Time="22" Value="F#4" Duration="1" Instrument="sample" Volume="15"
				Note Time="23" Value="C4" Duration="1" Instrument="sample" NoteDelay="2"
				Note Time="24" Value="D4" Duration="2" Instrument="sample"
				Note Time="25" Volume="4"
				Note Time="26" Value="D#4" Duration="2" Instrument="sample" Volume="15"
				Note Time="27" Volume="4"
				Note Time="28" Value="D4" Duration="2" Instrument="sample" Volume="15"
				Note Time="29" Volume="4"
				Note Time="30" Value="C4" Duration="1" Instrument="sample" Volume="15"
				Note Time="31" Value="D4" Duration="1" Instrument="sample"
				Note Time="32" Value="G#3" Duration="1" Instrument="sample" CutDelay="5"
				Note Time="33" Value="G#3" Duration="1" Instrument="sample" CutDelay="4"
				Note Time="34" Value="C4" Duration="2" Instrument="sample"
				Note Time="35" Volume="4"
				Note Time="36" Value="D4" Duration="1" Instrument="sample" Volume="15"
				Note Time="37" Value="G#3" Duration="1" Instrument="sample"
				Note Time="38" Value="D#4" Duration="1" Instrument="sample"
				Note Time="39" Value="C4" Duration="1" Instrument="sample"
				Note Time="40" Value="G4" Duration="2" Instrument="sample"
				Note Time="42" Value="G#4" Duration="2" Instrument="sample"
				Note Time="43" Volume="4"
				Note Time="44" Value="G4" Duration="1" Instrument="sample" Volume="15" CutDelay="4"
				Note Time="45" Value="G#4" Duration="1" Instrument="sample" CutDelay="4"
				Note Time="46" Value="F#4" Duration="2" Instrument="sample"
				Note Time="47" Volume="4"
				Note Time="48" Value="D4" Duration="1" Instrument="sample" Volume="15"
				Note Time="49" Value="F3" Duration="1" Instrument="sample" NoteDelay="2"
				Note Time="50" Value="G3" Duration="1" Instrument="sample"
				Note Time="51" Value="C4" Duration="1" Instrument="sample" NoteDelay="2"
				Note Time="52" Value="D4" Duration="2" Instrument="sample"
				Note Time="53" Volume="4"
				Note Time="54" Value="D#4" Duration="2" Instrument="sample" Volume="15"
				Note Time="55" Volume="4"
				Note Time="56" Value="D4" Duration="6" Instrument="sample" Volume="15"
				Note Time="58" VibratoSpeed="6" VibratoDepth="4"
				Note Time="62" Value="C4" Duration="1" Instrument="sample" VibratoSpeed="0" VibratoDepth="0"
				Note Time="63" Value="B3" Duration="1" Instrument="sample"
			Pattern Name="08" Color="3cd3e3"
				Note Time="0" Value="C4" Duration="1" Instrument="sample" CutDelay="6"
				Note Time="1" Value="C4" Duration="1" Instrument="sample" CutDelay="4"
				Note Time="2" Value="G4" Duration="2" Instrument="sample" Volume="15"
				Note Time="3" Volume="4"
				Note Time="4" Value="F#4" Duration="2" Instrument="sample" Volume="15"
				Note Time="5" Volume="4"
				Note Time="6" Value="F4" Duration="1" Instrument="sample" Volume="15"
				Note Time="7" Value="C4" Duration="1" Instrument="sample" NoteDelay="2"
				Note Time="8" Value="G4" Duration="1" Instrument="sample"
				Note Time="9" Value="C4" Duration="1" Instrument="sample" NoteDelay="2"
				Note Time="10" Value="F#4" Duration="2" Instrument="sample"
				Note Time="11" Volume="4"
				Note Time="12" Value="F4" Duration="2" Instrument="sample" Volume="15"
				Note Time="13" Volume="4"
				Note Time="14" Value="C4" Duration="1" Instrument="sample" Volume="15"
				Note Time="15" Value="D#4" Duration="1" Instrument="sample"
				Note Time="16" Value="C4" Duration="1" Instrument="sample" CutDelay="5"
				Note Time="17" Value="C4" Duration="1" Instrument="sample" CutDelay="4"
				Note Time="18" Value="D#4" Duration="2" Instrument="sample"
				Note Time="19" Volume="4"
				Note Time="20" Value="F4" Duration="2" Instrument="sample" Volume="15"
				Note Time="21" Volume="4"
				Note Time="22" Value="F#4" Duration="1" Instrument="sample" Volume="15"
				Note Time="23" Value="C4" Duration="1" Instrument="sample" NoteDelay="2"
				Note Time="24" Value="F4" Duration="2" Instrument="sample"
				Note Time="25" Volume="4"
				Note Time="26" Value="D#4" Duration="2" Instrument="sample" Volume="15"
				Note Time="27" Volume="4"
				Note Time="28" Value="D4" Duration="2" Instrument="sample" Volume="15"
				Note Time="29" Volume="4"
				Note Time="30" Value="C4" Duration="1" Instrument="sample" Volume="15"
				Note Time="31" Value="D4" Duration="1" Instrument="sample"
				Note Time="32" Value="G#3" Duration="1" Instrument="sample" CutDelay="5"
				Note Time="33" Value="G#3" Duration="1" Instrument="sample" CutDelay="4"
				Note Time="34" Value="C4" Duration="2" Instrument="sample"
				Note Time="35" Volume="4"
				Note Time="36" Value="D4" Duration="1" Instrument="sample" Volume="15"
				Note Time="37" Value="G#3" Duration="1" Instrument="sample"
				Note Time="38" Value="D#4" Duration="1" Instrument="sample"
				Note Time="39" Value="C4" Duration="1" Instrument="sample"
				Note Time="40" Value="F4" Duration="2" Instrument="sample"
				Note Time="42" Value="G#4" Duration="2" Instrument="sample"
				Note Time="43" Volume="4"
				Note Time="44" Value="G4" Duration="1" Instrument="sample" Volume="15" CutDelay="4"
				Note Time="45" Value="C5" Duration="1" Instrument="sample" CutDelay="4"
				Note Time="46" Value="G#4" Duration="2" Instrument="sample"
				Note Time="47" Volume="4"
				Note Time="48" Value="G4" Duration="1" Instrument="sample" Volume="15"
				Note Time="49" Value="F3" Duration="1" Instrument="sample" NoteDelay="2"
				Note Time="50" Value="G3" Duration="1" Instrument="sample"
				Note Time="51" Value="C4" Duration="1" Instrument="sample" NoteDelay="2"
				Note Time="52" Value="D4" Duration="2" Instrument="sample"
				Note Time="53" Volume="4"
				Note Time="54" Value="B3" Duration="2" Instrument="sample" Volume="15"
				Note Time="55" Volume="4"
				Note Time="56" Value="C4" Duration="2" Instrument="sample" Volume="15"
				Note Time="58" Value="C4" Duration="4" Instrument="sample"
			Pattern Name="09" Color="8163dc"
				Note Time="8" Value="D#5" Duration="4" Instrument="echo" Volume="15" DutyCycle="1"
				Note Time="12" Value="D5" Duration="3" Instrument="echo"
				Note Time="15" Value="C5" Duration="1" Instrument="echo" NoteDelay="4"
				Note Time="16" Value="D5" Duration="6" Instrument="echo"
				Note Time="22" Value="C5" Duration="6" Instrument="echo"
				Note Time="28" Value="G4" Duration="44" Instrument="echo"
			Pattern Name="0A" Color="8a706a"
				Note Time="8" Value="D#5" Duration="4" Instrument="echo" Volume="15" DutyCycle="1"
				Note Time="12" Value="D5" Duration="3" Instrument="echo"
				Note Time="15" Value="C5" Duration="1" Instrument="echo" NoteDelay="4"
				Note Time="16" Value="D5" Duration="6" Instrument="echo"
				Note Time="22" Value="C5" Duration="6" Instrument="echo"
				Note Time="28" Value="G4" Duration="4" Instrument="echo"
				Note Time="32" Value="G#4" Duration="5" Instrument="echo"
				Note Time="37" Value="G#4" Duration="1" Instrument="echo"
				Note Time="38" Value="A#4" Duration="1" Instrument="echo"
				Note Time="39" Value="G#4" Duration="1" Instrument="echo"
				Note Time="40" Value="G4" Duration="3" Instrument="echo"
				Note Time="43" Value="G4" Duration="1" Instrument="echo" NoteDelay="4"
				Note Time="44" Value="D5" Duration="4" Instrument="echo"
				Note Time="48" Value="C5" Duration="7" Release="2" Instrument="echo"
			PatternInstance Time="0" Pattern="00"
			PatternInstance Time="1" Pattern="01"
			PatternInstance Time="2" Pattern="02"
			PatternInstance Time="3" Pattern="03"
			PatternInstance Time="4" Pattern="04"
			PatternInstance Time="5" Pattern="05"
			PatternInstance Time="6" Pattern="06"
			PatternInstance Time="7" Pattern="07"
			PatternInstance Time="8" Pattern="08"
			PatternInstance Time="9" Pattern="09"
			PatternInstance Time="10" Pattern="0A"
		Channel Type="Square2"
			Pattern Name="00" Color="ffffb2"
				Note Time="2" DutyCycle="2"
				Note Time="4" Value="C4" Duration="3" Instrument="sample" Volume="15" VolumeSlideTarget="5"
				Note Time="7" Value="D#4" Duration="3" Instrument="sample" Volume="15" VolumeSlideTarget="9"
				Note Time="10" Value="C4" Duration="8" Instrument="sample" Volume="15" VolumeSlideTarget="0"
				Note Time="18" Value="C4" Duration="5" Instrument="sample" Volume="15" VolumeSlideTarget="5"
				Note Time="23" Value="D#4" Duration="3" Instrument="sample" Volume="15" VolumeSlideTarget="9"
				Note Time="26" Value="C4" Duration="3" Instrument="sample" Volume="15" VolumeSlideTarget="9"
				Note Time="29" Value="C4" Duration="1" Instrument="sample" Volume="15" VolumeSlideTarget="6"
				Note Time="34" Value="C4" Duration="3" Instrument="sample" Volume="15" VolumeSlideTarget="5"
				Note Time="37" Value="D#4" Duration="3" Instrument="sample" Volume="15" VolumeSlideTarget="9"
				Note Time="40" Value="C4" Duration="8" Instrument="sample" Volume="15" VolumeSlideTarget="0"
				Note Time="48" Value="C4" Duration="5" Instrument="sample" Volume="15" VolumeSlideTarget="5"
				Note Time="53" Value="D#4" Duration="3" Instrument="sample" Volume="15" VolumeSlideTarget="9"
				Note Time="56" Value="C4" Duration="4" Instrument="sample" Volume="15" VolumeSlideTarget="12"
				Note Time="59" Volume="12"
				Note Time="60" Value="G4" Duration="1" Instrument="blank" Volume="15" CutDelay="2"
				Note Time="61" Value="D#4" Duration="1" Instrument="blank" CutDelay="2"
				Note Time="62" Value="D4" Duration="1" Instrument="blank" CutDelay="2"
				Note Time="63" Value="C4" Duration="5" Instrument="blank" CutDelay="2"
			Pattern Name="01" Color="62e2d6"
				Note Time="4" Value="C4" Duration="5" Instrument="sample" Volume="15" VolumeSlideTarget="5"
				Note Time="9" Value="D#4" Duration="3" Instrument="sample" Volume="15" VolumeSlideTarget="9"
				Note Time="12" Value="C4" Duration="8" Instrument="sample" Volume="15" VolumeSlideTarget="0"
				Note Time="20" Value="C4" Duration="5" Instrument="sample" Volume="15" VolumeSlideTarget="5"
				Note Time="25" Value="D#4" Duration="3" Instrument="sample" Volume="15" VolumeSlideTarget="9"
				Note Time="28" Value="C4" Duration="3" Instrument="sample" Volume="15" VolumeSlideTarget="9"
				Note Time="31" Value="C4" Duration="1" Instrument="sample" Volume="15" VolumeSlideTarget="6"
				Note Time="36" Value="C4" Duration="5" Instrument="sample" Volume="15" VolumeSlideTarget="5"
				Note Time="41" Value="D#4" Duration="3" Instrument="sample" Volume="15" VolumeSlideTarget="9"
				Note Time="44" Value="C4" Duration="8" Instrument="sample" Volume="15" VolumeSlideTarget="0"
				Note Time="52" Value="C4" Duration="4" Instrument="sample" Volume="15" VolumeSlideTarget="5"
				Note Time="56" Value="D#4" Duration="3" Instrument="sample" Volume="15" VolumeSlideTarget="9"
				Note Time="59" Value="C4" Duration="4" Instrument="sample" Volume="15" VolumeSlideTarget="9"
				Note Time="62" Volume="9"
			Pattern Name="02" Color="7b8df1"
				Note Time="0" Value="C4" Duration="15" Instrument="sample"
				Note Time="16" Value="C4" Duration="15" Instrument="sample"
			Pattern Name="03" Color="ff7571"
				Note Time="0" Value="G#1" Duration="1" Instrument="blank" Volume="6" DutyCycle="2"
				Note Time="2" Value="G#1" Duration="2" Instrument="blank" Volume="6"
				Note Time="5" Value="G#1" Duration="2" Instrument="blank"
				Note Time="14" Value="D#4" Duration="2" Instrument="shift string" Volume="15"
				Note Time="16" Value="D4" Duration="2" Instrument="shift string"
				Note Time="17" DutyCycle="2"
				Note Time="18" Value="G1" Duration="2" Instrument="blank" Volume="6"
				Note Time="21" Value="G1" Duration="1" Instrument="blank"
				Note Time="22" Value="C4" Duration="8" Release="2" Instrument="shift string" Volume="15"
				Note Time="30" Value="G3" Duration="2" Instrument="shift string"
				Note Time="32" Value="G#1" Duration="1" Instrument="blank" Volume="6" DutyCycle="2"
				Note Time="34" Value="G#1" Duration="2" Instrument="blank" Volume="6"
				Note Time="37" Value="G#1" Duration="2" Instrument="blank"
				Note Time="49" DutyCycle="2"
				Note Time="50" Value="C4" Duration="2" Instrument="shift string" Volume="15"
				Note Time="54" Value="G3" Duration="2" Instrument="shift string"
				Note Time="56" Value="G3" Duration="6" Instrument="shift string"
				Note Time="62" Value="G2" Duration="1" Instrument="shift string"
			Pattern Name="04" Color="ffef3c"
				Note Time="0" Value="G#1" Duration="1" Instrument="blank" Volume="6" DutyCycle="2"
				Note Time="2" Value="G#1" Duration="2" Instrument="blank" Volume="6"
				Note Time="5" Value="G#1" Duration="2" Instrument="blank"
				Note Time="14" Value="D#4" Duration="2" Instrument="shift string" Volume="15"
				Note Time="16" Value="D4" Duration="2" Instrument="shift string"
				Note Time="17" DutyCycle="2"
				Note Time="18" Value="G1" Duration="2" Instrument="blank" Volume="6"
				Note Time="21" Value="G1" Duration="1" Instrument="blank"
				Note Time="22" Value="C4" Duration="8" Release="2" Instrument="shift string" Volume="15"
				Note Time="30" Value="G3" Duration="2" Instrument="shift string"
				Note Time="32" Value="G#1" Duration="1" Instrument="blank" Volume="6" DutyCycle="2"
				Note Time="34" Value="G#1" Duration="2" Instrument="blank" Volume="6"
				Note Time="37" Value="G#1" Duration="2" Instrument="blank"
				Note Time="40" Value="G3" Duration="1" Instrument="shift string" Volume="15"
				Note Time="42" Value="G3" Duration="1" Instrument="shift string"
				Note Time="44" Value="D4" Duration="2" Instrument="shift string"
				Note Time="46" Value="D#4" Duration="2" Instrument="shift string"
				Note Time="48" Value="C4" Duration="1" Instrument="shift string"
				Note Time="50" Value="C5" Duration="4" Release="2" Instrument="shift string"
				Note Time="54" Value="G3" Duration="2" Release="1" Instrument="shift string"
				Note Time="56" Value="G3" Duration="2" Instrument="shift string"
				Note Time="58" Value="G#3" Duration="2" Instrument="shift string"
				Note Time="60" Value="A#3" Duration="2" Instrument="shift string"
				Note Time="62" Value="B3" Duration="2" Instrument="shift string"
			Pattern Name="05" Color="74ca78"
				Note Time="0" DutyCycle="1"
				Note Time="1" Value="C2" Duration="1" Instrument="quiet bass" Volume="15"
				Note Time="2" Value="G2" Duration="1" Instrument="blank" Arpeggio="Arp 55" Volume="8"
				Note Time="3" Value="C2" Duration="1" Instrument="quiet bass" Volume="15"
				Note Time="5" Value="G2" Duration="1" Instrument="blank" Arpeggio="Arp 55" Volume="8"
				Note Time="6" Value="C2" Duration="1" Instrument="quiet bass" Arpeggio="Arp 55" Volume="15" CutDelay="4"
				Note Time="7" Value="C2" Duration="1" Instrument="quiet bass" Volume="15"
				Note Time="8" Value="G2" Duration="1" Instrument="blank" Arpeggio="Arp 55" Volume="8"
				Note Time="10" Value="C2" Duration="2" Instrument="quiet bass" Arpeggio="Arp 55" Volume="15" NoteDelay="4"
				Note Time="12" Value="D#3" Duration="4" Instrument="blank" Arpeggio="Arp 40" Volume="8"
				Note Time="16" Value="G#1" Duration="1" Instrument="quiet bass" Volume="15"
				Note Time="18" Value="F3" Duration="1" Instrument="blank" Arpeggio="Arp 30" Volume="8"
				Note Time="19" Value="G#1" Duration="1" Instrument="quiet bass" Volume="15"
				Note Time="21" Value="F3" Duration="1" Instrument="blank" Arpeggio="Arp 30" Volume="8"
				Note Time="22" Value="G#1" Duration="2" Instrument="quiet bass" Volume="15"
				Note Time="24" Value="D#3" Duration="1" Instrument="blank" Arpeggio="Arp 40" Volume="8"
				Note Time="26" Value="G1" Duration="2" Instrument="quiet bass" Volume="15"
				Note Time="28" Value="D#3" Duration="3" Instrument="blank" Arpeggio="Arp 40" Volume="8"
				Note Time="31" Value="G1" Duration="1" Instrument="quiet bass" Volume="15"
				Note Time="32" Value="G#1" Duration="2" Instrument="quiet bass" Volume="15" NoteDelay="4"
				Note Time="34" Value="F3" Duration="1" Instrument="blank" Arpeggio="Arp 30" Volume="8"
				Note Time="37" Value="F3" Duration="1" Instrument="blank" Arpeggio="Arp 30" Volume="8"
				Note Time="39" Value="G#1" Duration="1" Instrument="quiet bass" Volume="15"
				Note Time="40" Value="D3" Duration="1" Instrument="blank" Arpeggio="Arp 30" Volume="8"
				Note Time="42" Value="G#1" Duration="1" Instrument="quiet bass" Volume="15"
				Note Time="43" Value="D3" Duration="1" Instrument="blank" Arpeggio="Arp 30" Volume="8"
				Note Time="45" Value="D3" Duration="1" Instrument="blank" Arpeggio="Arp 30" Volume="8"
				Note Time="46" Value="D2" Duration="2" Instrument="quiet bass" Volume="15"
				Note Time="48" Value="G2" Duration="1" Instrument="blank" Arpeggio="Arp C0" Volume="8"
				Note Time="51" Value="G2" Duration="1" Instrument="blank" Arpeggio="Arp C0"
				Note Time="54" Value="D3" Duration="1" Instrument="blank" Arpeggio="Arp C0"
				Note Time="56" Value="D#3" Duration="6" Instrument="blank" Arpeggio="Arp 40"
			Pattern Name="06" Color="51a1fc"
				Note Time="0" DutyCycle="1"
				Note Time="1" Value="C2" Duration="1" Instrument="quiet bass" Volume="15"
				Note Time="2" Value="G2" Duration="1" Instrument="blank" Arpeggio="Arp 55" Volume="8"
				Note Time="3" Value="C2" Duration="1" Instrument="quiet bass" Volume="15"
				Note Time="5" Value="G2" Duration="1" Instrument="blank" Arpeggio="Arp 55" Volume="8"
				Note Time="6" Value="C2" Duration="1" Instrument="quiet bass" Arpeggio="Arp 55" Volume="15" CutDelay="4"
				Note Time="7" Value="C2" Duration="1" Instrument="quiet bass" Volume="15"
				Note Time="8" Value="G2" Duration="1" Instrument="blank" Arpeggio="Arp 55" Volume="8"
				Note Time="10" Value="C2" Duration="2" Instrument="quiet bass" Arpeggio="Arp 55" Volume="15" NoteDelay="4"
				Note Time="12" Value="D#3" Duration="4" Instrument="blank" Arpeggio="Arp 40" Volume="8"
				Note Time="16" Value="G#1" Duration="1" Instrument="quiet bass" Volume="15"
				Note Time="18" Value="F3" Duration="1" Instrument="blank" Arpeggio="Arp 30" Volume="8"
				Note Time="19" Value="G#1" Duration="1" Instrument="quiet bass" Volume="15"
				Note Time="21" Value="F3" Duration="1" Instrument="blank" Arpeggio="Arp 30" Volume="8"
				Note Time="22" Value="G#1" Duration="2" Instrument="quiet bass" Volume="15"
				Note Time="24" Value="D#3" Duration="1" Instrument="blank" Arpeggio="Arp 40" Volume="8"
				Note Time="26" Value="G1" Duration="2" Instrument="quiet bass" Volume="15"
				Note Time="28" Value="D#3" Duration="3" Instrument="blank" Arpeggio="Arp 40" Volume="8"
				Note Time="31" Value="G1" Duration="1" Instrument="quiet bass" Volume="15"
				Note Time="32" Value="G#1" Duration="2" Instrument="quiet bass" Volume="15" NoteDelay="4"
				Note Time="34" Value="F3" Duration="1" Instrument="blank" Arpeggio="Arp 30" Volume="8"
				Note Time="37" Value="F3" Duration="1" Instrument="blank" Arpeggio="Arp 30" Volume="8"
				Note Time="39" Value="G#1" Duration="1" Instrument="quiet bass" Volume="15"
				Note Time="40" Value="D3" Duration="1" Instrument="blank" Arpeggio="Arp 30" Volume="8"
				Note Time="42" Value="G#1" Duration="1" Instrument="quiet bass" Volume="15"
				Note Time="43" Value="D3" Duration="1" Instrument="blank" Arpeggio="Arp 30" Volume="8"
				Note Time="45" Value="D3" Duration="1" Instrument="blank" Arpeggio="Arp 30" Volume="8"
				Note Time="46" Value="D2" Duration="1" Instrument="quiet bass" Volume="15"
				Note Time="48" Value="G2" Duration="1" Instrument="blank" Arpeggio="Arp C0" Volume="8"
				Note Time="51" Value="G2" Duration="1" Instrument="blank" Arpeggio="Arp C0"
				Note Time="54" Value="D3" Duration="1" Instrument="blank" Arpeggio="Arp C0"
				Note Time="56" Value="C3" Duration="2" Instrument="blank" Arpeggio="Arp C0" Volume="8"
				Note Time="58" Value="D#4" Duration="1" Instrument="endgame lead" Arpeggio="Arp C0" Volume="15" CutDelay="6"
				Note Time="59" Value="D4" Duration="1" Instrument="endgame lead" Arpeggio="Arp C0" CutDelay="5"
				Note Time="60" Value="C4" Duration="2" Instrument="endgame lead" Arpeggio="Arp C0" CutDelay="4"
			Pattern Name="08" Color="ff9ece"
				Note Time="0" DutyCycle="1"
				Note Time="1" Value="C2" Duration="1" Instrument="quiet bass" Volume="15"
				Note Time="2" Value="G2" Duration="1" Instrument="blank" Arpeggio="Arp 55" Volume="8"
				Note Time="3" Value="C2" Duration="1" Instrument="quiet bass" Volume="15"
				Note Time="5" Value="G2" Duration="1" Instrument="blank" Arpeggio="Arp 55" Volume="8"
				Note Time="6" Value="C2" Duration="1" Instrument="quiet bass" Arpeggio="Arp 55" Volume="15" CutDelay="4"
				Note Time="7" Value="C2" Duration="1" Instrument="quiet bass" Volume="15"
				Note Time="8" Value="G2" Duration="1" Instrument="blank" Arpeggio="Arp 55" Volume="8"
				Note Time="10" Value="C2" Duration="2" Instrument="quiet bass" Arpeggio="Arp 55" Volume="15" NoteDelay="4"
				Note Time="12" Value="D#3" Duration="4" Instrument="blank" Arpeggio="Arp 40" Volume="8"
				Note Time="16" Value="G#1" Duration="1" Instrument="quiet bass" Volume="15"
				Note Time="18" Value="F3" Duration="1" Instrument="blank" Arpeggio="Arp 30" Volume="8"
				Note Time="19" Value="G#1" Duration="1" Instrument="quiet bass" Volume="15"
				Note Time="21" Value="F3" Duration="1" Instrument="blank" Arpeggio="Arp 30" Volume="8"
				Note Time="22" Value="G#1" Duration="2" Instrument="quiet bass" Volume="15"
				Note Time="24" Value="D#3" Duration="1" Instrument="blank" Arpeggio="Arp 40" Volume="8"
				Note Time="26" Value="G1" Duration="2" Instrument="quiet bass" Volume="15"
				Note Time="28" Value="D#3" Duration="3" Instrument="blank" Arpeggio="Arp 40" Volume="8"
				Note Time="31" Value="G1" Duration="1" Instrument="quiet bass" Volume="15"
				Note Time="32" Value="G#1" Duration="2" Instrument="quiet bass" Volume="15" NoteDelay="4"
				Note Time="34" Value="F3" Duration="1" Instrument="blank" Arpeggio="Arp 30" Volume="8"
				Note Time="37" Value="F3" Duration="1" Instrument="blank" Arpeggio="Arp 30" Volume="8"
				Note Time="39" Value="G#1" Duration="1" Instrument="quiet bass" Volume="15"
				Note Time="40" Value="D3" Duration="1" Instrument="blank" Arpeggio="Arp 30" Volume="8"
				Note Time="42" Value="G#1" Duration="1" Instrument="quiet bass" Volume="15"
				Note Time="43" Value="D3" Duration="1" Instrument="blank" Arpeggio="Arp 30" Volume="8"
				Note Time="45" Value="D3" Duration="1" Instrument="blank" Arpeggio="Arp 30" Volume="8"
				Note Time="46" Value="D2" Duration="1" Instrument="quiet bass" Volume="15"
				Note Time="48" Value="G2" Duration="1" Instrument="blank" Arpeggio="Arp C0" Volume="8"
				Note Time="51" Value="G2" Duration="1" Instrument="blank" Arpeggio="Arp C0"
				Note Time="54" Value="D3" Duration="1" Instrument="blank" Arpeggio="Arp C0"
				Note Time="56" Value="C3" Duration="2" Instrument="blank" Arpeggio="Arp C0" Volume="8"
				Note Time="58" Value="D#3" Duration="1" Instrument="endgame lead" Arpeggio="Arp C0" Volume="15" CutDelay="6"
				Note Time="59" Value="D3" Duration="1" Instrument="endgame lead" Arpeggio="Arp C0" CutDelay="5"
				Note Time="60" Value="C3" Duration="2" Instrument="endgame lead" Arpeggio="Arp C0" CutDelay="4"
			Pattern Name="09" Color="fff389"
				Note Time="0" Value="G#1" Duration="1" Instrument="blank" Volume="6" DutyCycle="2"
				Note Time="2" Value="G#1" Duration="2" Instrument="blank" Volume="6"
				Note Time="5" Value="G#1" Duration="2" Instrument="blank"
				Note Time="14" Value="D#4" Duration="2" Instrument="shift string" Volume="15"
				Note Time="16" Value="D4" Duration="2" Instrument="shift string"
				Note Time="17" DutyCycle="2"
				Note Time="18" Value="G1" Duration="2" Instrument="blank" Volume="6"
				Note Time="21" Value="G1" Duration="1" Instrument="blank"
				Note Time="22" Value="C4" Duration="8" Release="2" Instrument="shift string" Volume="15"
				Note Time="30" Value="G3" Duration="2" Instrument="shift string"
				Note Time="32" Value="G#1" Duration="1" Instrument="blank" Volume="6" DutyCycle="2"
				Note Time="34" Value="G#1" Duration="2" Instrument="blank" Volume="6"
				Note Time="37" Value="G#1" Duration="2" Instrument="blank"
				Note Time="49" DutyCycle="2"
				Note Time="50" Value="C4" Duration="2" Instrument="shift string" Volume="15"
				Note Time="54" Value="G3" Duration="2" Instrument="shift string"
				Note Time="56" Value="G3" Duration="2" Instrument="shift string"
				Note Time="58" Value="C4" Duration="1" Instrument="shift string"
				Note Time="59" Value="C2" Duration="1" Instrument="shift string"
				Note Time="60" Value="G3" Duration="2" Instrument="shift string"
				Note Time="62" Value="G2" Duration="1" Instrument="shift string"
			Pattern Name="0A" Color="d8ffa1"
				Note Time="0" Value="G#1" Duration="1" Instrument="blank" Volume="6" DutyCycle="2"
				Note Time="2" Value="G#1" Duration="2" Instrument="blank" Volume="6"
				Note Time="5" Value="G#1" Duration="2" Instrument="blank"
				Note Time="14" Value="D#4" Duration="2" Instrument="shift string" Volume="15"
				Note Time="16" Value="D4" Duration="2" Instrument="shift string"
				Note Time="17" DutyCycle="2"
				Note Time="18" Value="G1" Duration="2" Instrument="blank" Volume="6"
				Note Time="21" Value="G1" Duration="1" Instrument="blank"
				Note Time="22" Value="C4" Duration="8" Release="2" Instrument="shift string" Volume="15"
				Note Time="30" Value="G3" Duration="2" Instrument="shift string"
				Note Time="32" Value="G#1" Duration="1" Instrument="blank" Volume="6" DutyCycle="2"
				Note Time="34" Value="G#1" Duration="2" Instrument="blank" Volume="6"
				Note Time="37" Value="G#1" Duration="2" Instrument="blank"
				Note Time="40" Value="G3" Duration="1" Instrument="shift string" Volume="15"
				Note Time="42" Value="G3" Duration="1" Instrument="shift string"
				Note Time="44" Value="D4" Duration="2" Instrument="shift string"
				Note Time="46" Value="D#4" Duration="2" Instrument="shift string"
				Note Time="48" Value="C4" Duration="7" Release="2" Instrument="shift string"
			PatternInstance Time="0" Pattern="00"
			PatternInstance Time="1" Pattern="01"
			PatternInstance Time="2" Pattern="02"
			PatternInstance Time="3" Pattern="03"
			PatternInstance Time="4" Pattern="04"
			PatternInstance Time="5" Pattern="05"
			PatternInstance Time="6" Pattern="06"
			PatternInstance Time="7" Pattern="05"
			PatternInstance Time="8" Pattern="08"
			PatternInstance Time="9" Pattern="09"
			PatternInstance Time="10" Pattern="0A"
		Channel Type="Triangle"
			Pattern Name="01" Color="ca60e6"
				Note Time="0" Value="G#1" Duration="1" Instrument="tight triangle kick"
				Note Time="1" Value="C2" Duration="1" Instrument="sample"
				Note Time="6" Value="G#1" Duration="1" Instrument="tight triangle kick"
				Note Time="7" Value="G#1" Duration="1" Instrument="tight triangle kick"
				Note Time="8" Value="G#1" Duration="1" Instrument="tight triangle kick"
				Note Time="9" Value="G#1" Duration="1" Instrument="tight triangle kick"
				Note Time="10" Value="G#1" Duration="1" Instrument="tight triangle kick"
				Note Time="14" Value="G#1" Duration="1" Instrument="tight triangle kick"
				Note Time="15" Value="C3" Duration="1" Instrument="blank"
				Note Time="16" Value="G#1" Duration="1" Instrument="tight triangle kick"
				Note Time="17" Value="C2" Duration="1" Instrument="sample"
				Note Time="22" Value="G#1" Duration="1" Instrument="tight triangle kick"
				Note Time="23" Value="G#1" Duration="1" Instrument="tight triangle kick"
				Note Time="24" Value="G#1" Duration="1" Instrument="tight triangle kick"
				Note Time="25" Value="G#1" Duration="1" Instrument="tight triangle kick"
				Note Time="26" Value="G#1" Duration="1" Instrument="tight triangle kick"
				Note Time="30" Value="C3" Duration="1" Instrument="blank" CutDelay="3"
				Note Time="31" Value="C3" Duration="1" Instrument="blank" CutDelay="3"
				Note Time="32" Value="G#1" Duration="1" Instrument="tight triangle kick"
				Note Time="33" Value="C2" Duration="1" Instrument="sample"
				Note Time="38" Value="G#1" Duration="1" Instrument="tight triangle kick"
				Note Time="39" Value="G#1" Duration="1" Instrument="tight triangle kick"
				Note Time="40" Value="G#1" Duration="1" Instrument="tight triangle kick"
				Note Time="41" Value="G#1" Duration="1" Instrument="tight triangle kick"
				Note Time="42" Value="G#1" Duration="1" Instrument="tight triangle kick"
				Note Time="46" Value="C3" Duration="2" Instrument="blank"
				Note Time="48" Value="G#1" Duration="1" Instrument="tight triangle kick"
				Note Time="49" Value="C2" Duration="1" Instrument="sample"
				Note Time="53" Value="G#1" Duration="1" Instrument="tight triangle kick"
				Note Time="54" Value="G#1" Duration="1" Instrument="tight triangle kick"
				Note Time="55" Value="G#1" Duration="1" Instrument="tight triangle kick"
				Note Time="56" Value="G#1" Duration="1" Instrument="tight triangle kick"
				Note Time="57" Value="G#1" Duration="1" Instrument="tight triangle kick"
			Pattern Name="02" Color="ff8d5a"
				Note Time="16" Value="G2" Duration="4" Instrument="sample"
				Note Time="20" Value="D#2" Duration="4" Instrument="sample"
				Note Time="24" Value="D2" Duration="4" Instrument="sample"
				Note Time="28" Value="C2" Duration="4" Instrument="sample"
			Pattern Name="03" Color="ebf067"
				Note Time="0" Value="G#2" Duration="1" Instrument="sample"
				Note Time="2" Value="G#2" Duration="2" Instrument="sample"
				Note Time="5" Value="G#2" Duration="2" Instrument="sample"
				Note Time="6" CutDelay="2"
				Note Time="7" Value="G#2" Duration="1" Instrument="sample" CutDelay="4"
				Note Time="8" Value="G#2" Duration="1" Instrument="sample"
				Note Time="10" Value="G#2" Duration="1" Instrument="sample"
				Note Time="12" Value="D#3" Duration="2" Instrument="sample"
				Note Time="16" Value="C3" Duration="1" Instrument="sample"
				Note Time="18" Value="C3" Duration="2" Instrument="sample"
				Note Time="21" Value="C3" Duration="2" Instrument="sample"
				Note Time="22" CutDelay="2"
				Note Time="23" Value="C3" Duration="1" Instrument="sample" CutDelay="4"
				Note Time="24" Value="G2" Duration="1" Instrument="sample"
				Note Time="26" Value="G2" Duration="2" Instrument="sample"
				Note Time="29" Value="G2" Duration="2" Instrument="sample"
				Note Time="30" CutDelay="2"
				Note Time="31" Value="G2" Duration="1" Instrument="sample" CutDelay="4"
				Note Time="32" Value="G#2" Duration="1" Instrument="sample"
				Note Time="34" Value="G#2" Duration="2" Instrument="sample"
				Note Time="37" Value="G#2" Duration="2" Instrument="sample"
				Note Time="38" CutDelay="2"
				Note Time="39" Value="G#2" Duration="1" Instrument="sample" CutDelay="4"
				Note Time="40" Value="G2" Duration="1" Instrument="sample"
				Note Time="42" Value="G2" Duration="1" Instrument="sample"
				Note Time="44" Value="D3" Duration="2" Instrument="sample"
				Note Time="46" Value="D#3" Duration="2" Instrument="sample"
				Note Time="48" Value="C3" Duration="2" Instrument="sample"
				Note Time="54" Value="G2" Duration="1" Instrument="sample" CutDelay="3"
				Note Time="55" Value="G2" Duration="1" Instrument="sample" CutDelay="3"
				Note Time="56" Value="G2" Duration="2" Instrument="sample"
				Note Time="60" Value="G2" Duration="2" Instrument="sample"
			Pattern Name="04" Color="3cbfcb"
				Note Time="0" Value="G#2" Duration="1" Instrument="sample"
				Note Time="2" Value="G#2" Duration="2" Instrument="sample"
				Note Time="5" Value="G#2" Duration="2" Instrument="sample"
				Note Time="6" CutDelay="2"
				Note Time="7" Value="G#2" Duration="1" Instrument="sample" CutDelay="4"
				Note Time="8" Value="G#2" Duration="1" Instrument="sample"
				Note Time="10" Value="G#2" Duration="1" Instrument="sample"
				Note Time="12" Value="D#3" Duration="2" Instrument="sample"
				Note Time="16" Value="C3" Duration="1" Instrument="sample"
				Note Time="18" Value="C3" Duration="2" Instrument="sample"
				Note Time="21" Value="C3" Duration="2" Instrument="sample"
				Note Time="22" CutDelay="2"
				Note Time="23" Value="C3" Duration="1" Instrument="sample" CutDelay="4"
				Note Time="24" Value="G2" Duration="1" Instrument="sample"
				Note Time="26" Value="G2" Duration="2" Instrument="sample"
				Note Time="29" Value="G2" Duration="2" Instrument="sample"
				Note Time="30" CutDelay="2"
				Note Time="31" Value="G2" Duration="1" Instrument="sample" CutDelay="4"
				Note Time="32" Value="G#2" Duration="1" Instrument="sample"
				Note Time="34" Value="G#2" Duration="2" Instrument="sample"
				Note Time="37" Value="G#2" Duration="2" Instrument="sample"
				Note Time="38" CutDelay="2"
				Note Time="39" Value="G#2" Duration="1" Instrument="sample" CutDelay="4"
				Note Time="40" Value="G2" Duration="1" Instrument="sample"
				Note Time="42" Value="G2" Duration="1" Instrument="sample"
				Note Time="44" Value="D3" Duration="2" Instrument="sample"
				Note Time="46" Value="D#3" Duration="2" Instrument="sample"
				Note Time="48" Value="C3" Duration="2" Instrument="sample"
				Note Time="54" Value="G2" Duration="1" Instrument="sample" CutDelay="3"
				Note Time="55" Value="G2" Duration="1" Instrument="sample" CutDelay="3"
				Note Time="56" Value="G2" Duration="2" Instrument="sample"
				Note Time="58" Value="G#2" Duration="2" Instrument="sample"
				Note Time="60" Value="A#2" Duration="2" Instrument="sample"
				Note Time="62" Value="B2" Duration="2" Instrument="sample"
			Pattern Name="05" Color="d1b1ff"
				Note Time="0" Value="C3" Duration="1" Instrument="sample" NoteDelay="4"
				Note Time="2" Value="C3" Duration="2" Instrument="sample" NoteDelay="4"
				Note Time="5" Value="C3" Duration="2" Instrument="sample"
				Note Time="6" CutDelay="4"
				Note Time="7" Value="C3" Duration="1" Instrument="sample" CutDelay="2"
				Note Time="8" Value="C3" Duration="1" Instrument="sample" NoteDelay="4"
				Note Time="10" Value="C3" Duration="2" Instrument="sample" NoteDelay="4"
				Note Time="13" Value="D#3" Duration="2" Instrument="sample"
				Note Time="14" CutDelay="4"
				Note Time="15" Value="D#3" Duration="1" Instrument="sample" CutDelay="2"
				Note Time="16" Value="G#2" Duration="1" Instrument="sample" NoteDelay="4"
				Note Time="18" Value="G#2" Duration="2" Instrument="sample" NoteDelay="4"
				Note Time="21" Value="G#2" Duration="2" Instrument="sample"
				Note Time="22" CutDelay="4"
				Note Time="23" Value="G#2" Duration="1" Instrument="sample" CutDelay="2"
				Note Time="24" Value="G2" Duration="1" Instrument="sample" NoteDelay="4"
				Note Time="26" Value="G2" Duration="2" Instrument="sample" NoteDelay="4"
				Note Time="29" Value="G2" Duration="2" Instrument="sample"
				Note Time="30" CutDelay="4"
				Note Time="31" Value="G2" Duration="1" Instrument="sample" CutDelay="2"
				Note Time="32" Value="G#2" Duration="2" Instrument="sample" NoteDelay="4"
				Note Time="35" Value="G#2" Duration="1" Instrument="sample" NoteDelay="4"
				Note Time="37" Value="G#2" Duration="1" Instrument="sample"
				Note Time="39" Value="G#2" Duration="2" Instrument="sample"
				Note Time="42" Value="G#2" Duration="1" Instrument="sample"
				Note Time="44" Value="D#3" Duration="2" Instrument="sample" NoteDelay="4"
				Note Time="46" Value="D3" Duration="2" Instrument="sample"
				Note Time="48" Value="D3" Duration="1" Instrument="sample" NoteDelay="4"
				Note Time="51" Value="D3" Duration="1" Instrument="sample" NoteDelay="4"
				Note Time="54" Value="G2" Duration="1" Instrument="sample" NoteDelay="4"
				Note Time="56" Value="G2" Duration="4" Instrument="sample" NoteDelay="4"
				Note Time="62" Value="G2" Duration="1" Instrument="sample" NoteDelay="4"
			Pattern Name="06" Color="ddc4bb"
				Note Time="0" Value="C3" Duration="1" Instrument="sample" NoteDelay="4"
				Note Time="2" Value="C3" Duration="2" Instrument="sample" NoteDelay="4"
				Note Time="5" Value="C3" Duration="2" Instrument="sample"
				Note Time="6" CutDelay="4"
				Note Time="7" Value="C3" Duration="1" Instrument="sample" CutDelay="2"
				Note Time="8" Value="C3" Duration="1" Instrument="sample" NoteDelay="4"
				Note Time="10" Value="C3" Duration="2" Instrument="sample" NoteDelay="4"
				Note Time="13" Value="D#3" Duration="2" Instrument="sample"
				Note Time="14" CutDelay="4"
				Note Time="15" Value="D#3" Duration="1" Instrument="sample" CutDelay="2"
				Note Time="16" Value="G#2" Duration="1" Instrument="sample" NoteDelay="4"
				Note Time="18" Value="G#2" Duration="2" Instrument="sample" NoteDelay="4"
				Note Time="21" Value="G#2" Duration="2" Instrument="sample"
				Note Time="22" CutDelay="4"
				Note Time="23" Value="G#2" Duration="1" Instrument="sample" CutDelay="2"
				Note Time="24" Value="G2" Duration="1" Instrument="sample" NoteDelay="4"
				Note Time="26" Value="G2" Duration="2" Instrument="sample" NoteDelay="4"
				Note Time="29" Value="G2" Duration="2" Instrument="sample"
				Note Time="30" CutDelay="4"
				Note Time="31" Value="G2" Duration="1" Instrument="sample" CutDelay="2"
				Note Time="32" Value="G#2" Duration="2" Instrument="sample" NoteDelay="4"
				Note Time="35" Value="G#2" Duration="1" Instrument="sample" NoteDelay="4"
				Note Time="37" Value="G#2" Duration="1" Instrument="sample"
				Note Time="39" Value="G#2" Duration="2" Instrument="sample"
				Note Time="42" Value="G#2" Duration="1" Instrument="sample"
				Note Time="44" Value="D#3" Duration="2" Instrument="sample" NoteDelay="4"
				Note Time="46" Value="D3" Duration="2" Instrument="sample"
				Note Time="48" Value="D3" Duration="1" Instrument="sample" NoteDelay="4"
				Note Time="51" Value="D3" Duration="1" Instrument="sample" NoteDelay="4"
				Note Time="54" Value="G2" Duration="1" Instrument="sample" NoteDelay="4"
				Note Time="62" Value="G3" Duration="2" Instrument="blank"
			Pattern Name="08" Color="ffff94"
				Note Time="0" Value="G#2" Duration="1" Instrument="sample"
				Note Time="2" Value="G#2" Duration="2" Instrument="sample"
				Note Time="5" Value="G#2" Duration="2" Instrument="sample"
				Note Time="6" CutDelay="2"
				Note Time="7" Value="G#2" Duration="1" Instrument="sample" CutDelay="4"
				Note Time="8" Value="G#2" Duration="1" Instrument="sample"
				Note Time="10" Value="G#2" Duration="1" Instrument="sample"
				Note Time="12" Value="D#3" Duration="2" Instrument="sample"
				Note Time="16" Value="C3" Duration="1" Instrument="sample"
				Note Time="18" Value="C3" Duration="2" Instrument="sample"
				Note Time="21" Value="C3" Duration="2" Instrument="sample"
				Note Time="22" CutDelay="2"
				Note Time="23" Value="C3" Duration="1" Instrument="sample" CutDelay="4"
				Note Time="24" Value="G2" Duration="1" Instrument="sample"
				Note Time="26" Value="G2" Duration="2" Instrument="sample"
				Note Time="29" Value="G2" Duration="2" Instrument="sample"
				Note Time="30" CutDelay="2"
				Note Time="31" Value="G2" Duration="1" Instrument="sample" CutDelay="4"
				Note Time="32" Value="G#2" Duration="1" Instrument="sample"
				Note Time="34" Value="G#2" Duration="2" Instrument="sample"
				Note Time="37" Value="G#2" Duration="2" Instrument="sample"
				Note Time="38" CutDelay="2"
				Note Time="39" Value="G#2" Duration="1" Instrument="sample" CutDelay="4"
				Note Time="40" Value="G2" Duration="1" Instrument="sample"
				Note Time="42" Value="G2" Duration="1" Instrument="sample"
				Note Time="44" Value="D3" Duration="2" Instrument="sample"
				Note Time="46" Value="D#3" Duration="2" Instrument="sample"
				Note Time="48" Value="C3" Duration="2" Instrument="sample"
				Note Time="54" Value="G2" Duration="1" Instrument="sample" CutDelay="3"
				Note Time="55" Value="G2" Duration="1" Instrument="sample" CutDelay="3"
				Note Time="56" Value="G2" Duration="2" Instrument="sample"
				Note Time="60" Value="G2" Duration="2" Instrument="sample"
			Pattern Name="09" Color="3cd2c4"
				Note Time="0" Value="G#2" Duration="1" Instrument="sample"
				Note Time="2" Value="G#2" Duration="2" Instrument="sample"
				Note Time="5" Value="G#2" Duration="2" Instrument="sample"
				Note Time="6" CutDelay="2"
				Note Time="7" Value="G#2" Duration="1" Instrument="sample" CutDelay="4"
				Note Time="8" Value="G#2" Duration="1" Instrument="sample"
				Note Time="10" Value="G#2" Duration="1" Instrument="sample"
				Note Time="12" Value="D#3" Duration="2" Instrument="sample"
				Note Time="16" Value="C3" Duration="1" Instrument="sample"
				Note Time="18" Value="C3" Duration="2" Instrument="sample"
				Note Time="21" Value="C3" Duration="2" Instrument="sample"
				Note Time="22" CutDelay="2"
				Note Time="23" Value="C3" Duration="1" Instrument="sample" CutDelay="4"
				Note Time="24" Value="G2" Duration="1" Instrument="sample"
				Note Time="26" Value="G2" Duration="2" Instrument="sample"
				Note Time="29" Value="G2" Duration="2" Instrument="sample"
				Note Time="30" CutDelay="2"
				Note Time="31" Value="G2" Duration="1" Instrument="sample" CutDelay="4"
				Note Time="32" Value="G#2" Duration="1" Instrument="sample"
				Note Time="34" Value="G#2" Duration="2" Instrument="sample"
				Note Time="37" Value="G#2" Duration="2" Instrument="sample"
				Note Time="38" CutDelay="2"
				Note Time="39" Value="G#2" Duration="1" Instrument="sample" CutDelay="4"
				Note Time="40" Value="G2" Duration="1" Instrument="sample"
				Note Time="42" Value="G2" Duration="1" Instrument="sample"
				Note Time="44" Value="D3" Duration="2" Instrument="sample"
				Note Time="46" Value="D#3" Duration="2" Instrument="sample"
				Note Time="48" Value="C3" Duration="7" Release="2" Instrument="sample"
			PatternInstance Time="1" Pattern="01"
			PatternInstance Time="2" Pattern="02"
			PatternInstance Time="3" Pattern="03"
			PatternInstance Time="4" Pattern="04"
			PatternInstance Time="5" Pattern="05"
			PatternInstance Time="6" Pattern="06"
			PatternInstance Time="7" Pattern="05"
			PatternInstance Time="8" Pattern="06"
			PatternInstance Time="9" Pattern="08"
			PatternInstance Time="10" Pattern="09"
		Channel Type="Noise"
			Pattern Name="00" Color="7585e7"
				Note Time="46" Value="D3" Duration="2" Instrument="sample" DutyCycle="1"
				Note Time="48" Value="A2" Duration="1" Instrument="blank" Volume="10" DutyCycle="1"
				Note Time="50" Value="E3" Duration="2" Instrument="blank"
				Note Time="53" Value="A2" Duration="2" Instrument="blank"
				Note Time="56" Value="F#3" Duration="4" Instrument="snare" Volume="15" DutyCycle="0"
				Note Time="60" Value="C3" Duration="2" Instrument="kick"
				Note Time="62" Value="C3" Duration="2" Instrument="kick"
			Pattern Name="01" Color="ff6b6b"
				Note Time="0" Value="F#3" Duration="4" Instrument="kick"
				Note Time="4" Value="E3" Duration="2" Instrument="cymbal"
				Note Time="6" Value="F#3" Duration="1" Instrument="kick"
				Note Time="7" Value="F#3" Duration="1" Instrument="kick"
				Note Time="8" Value="F#3" Duration="1" Instrument="kick"
				Note Time="9" Value="F#3" Duration="1" Instrument="kick"
				Note Time="10" Value="F#3" Duration="1" Instrument="kick"
				Note Time="12" Value="E3" Duration="2" Instrument="cymbal"
				Note Time="14" Value="F#3" Duration="2" Instrument="kick"
				Note Time="16" Value="F#3" Duration="4" Instrument="kick"
				Note Time="20" Value="E3" Duration="2" Instrument="cymbal"
				Note Time="22" Value="F#3" Duration="1" Instrument="kick"
				Note Time="23" Value="F#3" Duration="1" Instrument="kick"
				Note Time="24" Value="F#3" Duration="1" Instrument="kick"
				Note Time="25" Value="F#3" Duration="1" Instrument="kick"
				Note Time="26" Value="F#3" Duration="1" Instrument="kick"
				Note Time="28" Value="E3" Duration="4" Instrument="cymbal"
				Note Time="32" Value="F#3" Duration="1" Instrument="kick"
				Note Time="33" Value="F#3" Duration="1" Instrument="hat"
				Note Time="34" Value="G#3" Duration="1" Instrument="snare"
				Note Time="35" Value="F#3" Duration="1" Instrument="hat"
				Note Time="36" Value="E3" Duration="1" Instrument="cymbal"
				Note Time="37" Value="F#3" Duration="1" Instrument="hat"
				Note Time="38" Value="F#3" Duration="1" Instrument="kick"
				Note Time="39" Value="F#3" Duration="1" Instrument="kick"
				Note Time="40" Value="F#3" Duration="1" Instrument="kick"
				Note Time="41" Value="F#3" Duration="1" Instrument="kick"
				Note Time="42" Value="F#3" Duration="1" Instrument="kick"
				Note Time="43" Value="E3" Duration="1" Instrument="hat"
				Note Time="44" Value="E3" Duration="1" Instrument="cymbal"
				Note Time="45" Value="F#3" Duration="1" Instrument="hat"
				Note Time="46" Value="G#3" Duration="1" Instrument="snare"
				Note Time="47" Value="F#3" Duration="1" Instrument="hat"
				Note Time="48" Value="F#3" Duration="1" Instrument="kick"
				Note Time="49" Value="F#3" Duration="1" Instrument="hat"
				Note Time="50" Value="G#3" Duration="1" Instrument="snare"
				Note Time="51" Value="F#3" Duration="1" Instrument="hat"
				Note Time="52" Value="E3" Duration="1" Instrument="cymbal"
				Note Time="53" Value="F#3" Duration="1" Instrument="kick"
				Note Time="54" Value="F#3" Duration="1" Instrument="kick"
				Note Time="55" Value="F#3" Duration="1" Instrument="kick"
				Note Time="56" Value="F#3" Duration="1" Instrument="kick"
				Note Time="57" Value="F#3" Duration="1" Instrument="kick"
				Note Time="59" Value="E3" Duration="2" Instrument="cymbal"
				Note Time="61" Value="F#3" Duration="1" Instrument="hat"
				Note Time="62" Value="F#3" Duration="1" Instrument="hat"
			Pattern Name="02" Color="ffdc3c"
				Note Time="0" Value="E3" Duration="4" Instrument="cymbal"
				Note Time="4" Value="D3" Duration="1" Instrument="hat"
				Note Time="5" Value="D3" Duration="1" Instrument="hat"
				Note Time="6" Value="D3" Duration="1" Instrument="hat"
				Note Time="7" Value="D3" Duration="1" Instrument="hat"
				Note Time="8" Value="D3" Duration="4" Instrument="hat"
				Note Time="12" Value="A2" Duration="4" Instrument="hat"
				Note Time="16" Value="E3" Duration="4" Instrument="kick"
				Note Time="20" Value="C#3" Duration="2" Instrument="blank" Volume="8" DutyCycle="1"
				Note Time="22" Value="E3" Duration="2" Instrument="kick"
				Note Time="24" Value="A#2" Duration="4" Instrument="blank"
				Note Time="28" Value="A2" Duration="1" Instrument="blank"
				Note Time="31" DutyCycle="0"
			Pattern Name="03" Color="6ab96e"
				Note Time="0" Value="F#3" Duration="2" Instrument="cymbal" Volume="15" Speed="7"
				Note Time="1" Speed="5"
				Note Time="2" Value="F#3" Duration="2" Instrument="rel hats" Speed="7"
				Note Time="3" Speed="5"
				Note Time="4" Value="F#3" Duration="2" Instrument="snare" Speed="7"
				Note Time="5" Speed="5"
				Note Time="6" Value="F#3" Duration="1" Instrument="rel hats" Speed="7"
				Note Time="7" Value="D#3" Duration="1" Instrument="kick" Speed="5"
				Note Time="8" Value="E3" Duration="2" Instrument="rel hats" Speed="7"
				Note Time="9" Speed="5"
				Note Time="10" Value="F#3" Duration="2" Instrument="rel hats" Speed="7"
				Note Time="11" Speed="5"
				Note Time="12" Value="F#3" Duration="2" Instrument="snare" Speed="7"
				Note Time="13" Speed="5"
				Note Time="14" Value="F#3" Duration="2" Instrument="rel hats" Speed="7"
				Note Time="15" Speed="5"
				Note Time="16" Value="E3" Duration="2" Instrument="rel hats" Speed="7"
				Note Time="17" Speed="5"
				Note Time="18" Value="F#3" Duration="2" Instrument="rel hats" Speed="7"
				Note Time="19" Speed="5"
				Note Time="20" Value="F#3" Duration="2" Instrument="snare" Speed="7"
				Note Time="21" Speed="5"
				Note Time="22" Value="F#3" Duration="1" Instrument="rel hats" Speed="7"
				Note Time="23" Value="D#3" Duration="1" Instrument="kick" Speed="5"
				Note Time="24" Value="E3" Duration="2" Instrument="rel hats" Speed="7"
				Note Time="25" Speed="5"
				Note Time="26" Value="F#3" Duration="2" Instrument="rel hats" Speed="7"
				Note Time="27" Speed="5"
				Note Time="28" Value="F#3" Duration="2" Instrument="snare" Speed="7"
				Note Time="29" Speed="5"
				Note Time="30" Value="F#3" Duration="2" Instrument="rel hats" Speed="7"
				Note Time="31" Speed="5"
				Note Time="32" Value="E3" Duration="2" Instrument="rel hats" Speed="7"
				Note Time="33" Speed="5"
				Note Time="34" Value="F#3" Duration="2" Instrument="rel hats" Speed="7"
				Note Time="35" Speed="5"
				Note Time="36" Value="F#3" Duration="2" Instrument="snare" Speed="7"
				Note Time="37" Speed="5"
				Note Time="38" Value="F#3" Duration="1" Instrument="rel hats" Speed="7"
				Note Time="39" Value="D#3" Duration="1" Instrument="kick" Speed="5"
				Note Time="40" Value="E3" Duration="2" Instrument="rel hats" Speed="7"
				Note Time="41" Speed="5"
				Note Time="42" Value="F#3" Duration="2" Instrument="rel hats" Speed="7"
				Note Time="43" Speed="5"
				Note Time="44" Value="F#3" Duration="2" Instrument="snare" Speed="7"
				Note Time="45" Speed="5"
				Note Time="46" Value="F#3" Duration="1" Instrument="rel hats" Speed="7"
				Note Time="47" Value="D#3" Duration="1" Instrument="kick" Speed="5"
				Note Time="48" Value="E3" Duration="2" Instrument="rel hats" Speed="7"
				Note Time="49" Speed="5"
				Note Time="50" Value="F#3" Duration="2" Instrument="rel hats" Speed="7"
				Note Time="51" Speed="5"
				Note Time="52" Value="F#3" Duration="2" Instrument="snare" Speed="7"
				Note Time="53" Speed="5"
				Note Time="54" Value="F#3" Duration="1" Instrument="rel hats" Speed="7"
				Note Time="55" Value="D#3" Duration="1" Instrument="kick" Speed="5"
				Note Time="56" Value="E3" Duration="2" Instrument="rel hats" Speed="7"
				Note Time="57" Speed="5"
				Note Time="58" Value="F#3" Duration="2" Instrument="rel hats" Speed="7"
				Note Time="59" Speed="5"
				Note Time="60" Value="F#3" Duration="2" Instrument="snare" Speed="7"
				Note Time="61" Speed="5"
				Note Time="62" Value="F#3" Duration="2" Instrument="rel hats" Speed="7"
				Note Time="63" Speed="5"
			Pattern Name="04" Color="a0f1ff"
				Note Time="0" Value="F#3" Duration="2" Instrument="cymbal" Volume="15" Speed="7"
				Note Time="1" Speed="5"
				Note Time="2" Value="F#3" Duration="2" Instrument="rel hats" Speed="7"
				Note Time="3" Speed="5"
				Note Time="4" Value="F#3" Duration="2" Instrument="snare" Speed="7"
				Note Time="5" Speed="5"
				Note Time="6" Value="F#3" Duration="1" Instrument="rel hats" Speed="7"
				Note Time="7" Value="D#3" Duration="1" Instrument="kick" Speed="5"
				Note Time="8" Value="E3" Duration="2" Instrument="rel hats" Speed="7"
				Note Time="9" Speed="5"
				Note Time="10" Value="F#3" Duration="2" Instrument="rel hats" Speed="7"
				Note Time="11" Speed="5"
				Note Time="12" Value="F#3" Duration="2" Instrument="snare" Speed="7"
				Note Time="13" Speed="5"
				Note Time="14" Value="F#3" Duration="2" Instrument="rel hats" Speed="7"
				Note Time="15" Speed="5"
				Note Time="16" Value="E3" Duration="2" Instrument="rel hats" Speed="7"
				Note Time="17" Speed="5"
				Note Time="18" Value="F#3" Duration="2" Instrument="rel hats" Speed="7"
				Note Time="19" Speed="5"
				Note Time="20" Value="F#3" Duration="2" Instrument="snare" Speed="7"
				Note Time="21" Speed="5"
				Note Time="22" Value="F#3" Duration="1" Instrument="rel hats" Speed="7"
				Note Time="23" Value="D#3" Duration="1" Instrument="kick" Speed="5"
				Note Time="24" Value="E3" Duration="2" Instrument="rel hats" Speed="7"
				Note Time="25" Speed="5"
				Note Time="26" Value="F#3" Duration="2" Instrument="rel hats" Speed="7"
				Note Time="27" Speed="5"
				Note Time="28" Value="F#3" Duration="2" Instrument="snare" Speed="7"
				Note Time="29" Speed="5"
				Note Time="30" Value="F#3" Duration="2" Instrument="rel hats" Speed="7"
				Note Time="31" Speed="5"
				Note Time="32" Value="E3" Duration="2" Instrument="rel hats" Speed="7"
				Note Time="33" Speed="5"
				Note Time="34" Value="F#3" Duration="2" Instrument="rel hats" Speed="7"
				Note Time="35" Speed="5"
				Note Time="36" Value="F#3" Duration="2" Instrument="snare" Speed="7"
				Note Time="37" Speed="5"
				Note Time="38" Value="F#3" Duration="1" Instrument="rel hats" Speed="7"
				Note Time="39" Value="D#3" Duration="1" Instrument="kick" Speed="5"
				Note Time="40" Value="E3" Duration="2" Instrument="rel hats" Speed="7"
				Note Time="41" Speed="5"
				Note Time="42" Value="F#3" Duration="2" Instrument="rel hats" Speed="7"
				Note Time="43" Speed="5"
				Note Time="44" Value="F#3" Duration="2" Instrument="snare" Speed="7"
				Note Time="45" Speed="5"
				Note Time="46" Value="F#3" Duration="1" Instrument="rel hats" Speed="7"
				Note Time="47" Value="D#3" Duration="1" Instrument="kick" Speed="5"
				Note Time="48" Value="E3" Duration="2" Instrument="rel hats" Speed="7"
				Note Time="49" Speed="5"
				Note Time="50" Value="F#3" Duration="2" Instrument="rel hats" Speed="7"
				Note Time="51" Speed="5"
				Note Time="52" Value="F#3" Duration="2" Instrument="snare" Speed="7"
				Note Time="53" Speed="5"
				Note Time="54" Value="F#3" Duration="1" Instrument="rel hats" Speed="7"
				Note Time="55" Value="D#3" Duration="1" Instrument="kick" Speed="5"
				Note Time="56" Value="E3" Duration="2" Instrument="rel hats" Speed="7"
				Note Time="57" Speed="5"
				Note Time="58" Value="A3" Duration="1" Instrument="snare" Speed="7"
				Note Time="59" Value="A3" Duration="1" Instrument="snare" Speed="5"
				Note Time="60" Value="A3" Duration="1" Instrument="snare" Speed="7"
				Note Time="61" Value="A3" Duration="1" Instrument="snare" Speed="5"
				Note Time="62" Value="A3" Duration="1" Instrument="snare" Speed="7"
				Note Time="63" Value="A3" Duration="1" Instrument="snare" Speed="5"
			Pattern Name="05" Color="ff7cb6"
				Note Time="0" Value="F#3" Duration="2" Instrument="cymbal" Volume="15"
				Note Time="2" Value="F#3" Duration="2" Instrument="rel hats"
				Note Time="4" Value="F#3" Duration="2" Instrument="cymbal"
				Note Time="6" Value="F#3" Duration="2" Instrument="rel hats"
				Note Time="8" Value="F#3" Duration="2" Instrument="rel hats"
				Note Time="10" Value="F#3" Duration="2" Instrument="rel hats"
				Note Time="12" Value="F#3" Duration="2" Instrument="cymbal"
				Note Time="14" Value="F#3" Duration="2" Instrument="rel hats"
				Note Time="16" Value="F#3" Duration="2" Instrument="rel hats"
				Note Time="18" Value="F#3" Duration="2" Instrument="rel hats"
				Note Time="20" Value="F#3" Duration="2" Instrument="cymbal"
				Note Time="22" Value="F#3" Duration="2" Instrument="rel hats"
				Note Time="24" Value="F#3" Duration="2" Instrument="rel hats"
				Note Time="26" Value="F#3" Duration="2" Instrument="rel hats"
				Note Time="28" Value="F#3" Duration="2" Instrument="cymbal"
				Note Time="30" Value="F#3" Duration="2" Instrument="rel hats"
				Note Time="32" Value="F#3" Duration="2" Instrument="rel hats"
				Note Time="34" Value="F#3" Duration="2" Instrument="rel hats"
				Note Time="36" Value="F#3" Duration="2" Instrument="cymbal"
				Note Time="38" Value="F#3" Duration="2" Instrument="rel hats"
				Note Time="40" Value="F#3" Duration="2" Instrument="rel hats"
				Note Time="42" Value="F#3" Duration="2" Instrument="rel hats"
				Note Time="44" Value="F#3" Duration="2" Instrument="cymbal"
				Note Time="46" Value="F#3" Duration="2" Instrument="rel hats"
				Note Time="48" Value="F#3" Duration="2" Instrument="rel hats"
				Note Time="50" Value="F#3" Duration="2" Instrument="rel hats"
				Note Time="52" Value="F#3" Duration="2" Instrument="cymbal"
				Note Time="54" Value="F#3" Duration="2" Instrument="rel hats"
				Note Time="56" Value="F#3" Duration="2" Instrument="rel hats"
				Note Time="58" Value="F#3" Duration="2" Instrument="rel hats"
				Note Time="60" Value="F#3" Duration="2" Instrument="cymbal"
				Note Time="62" Value="F#3" Duration="2" Instrument="rel hats"
			Pattern Name="06" Color="ffe362"
				Note Time="0" Value="F#3" Duration="2" Instrument="rel hats" Volume="15"
				Note Time="2" Value="F#3" Duration="2" Instrument="rel hats"
				Note Time="4" Value="F#3" Duration="2" Instrument="cymbal"
				Note Time="6" Value="F#3" Duration="2" Instrument="rel hats"
				Note Time="8" Value="F#3" Duration="2" Instrument="rel hats"
				Note Time="10" Value="F#3" Duration="2" Instrument="rel hats"
				Note Time="12" Value="F#3" Duration="2" Instrument="cymbal"
				Note Time="14" Value="F#3" Duration="2" Instrument="rel hats"
				Note Time="16" Value="F#3" Duration="2" Instrument="rel hats"
				Note Time="18" Value="F#3" Duration="2" Instrument="rel hats"
				Note Time="20" Value="F#3" Duration="2" Instrument="cymbal"
				Note Time="22" Value="F#3" Duration="2" Instrument="rel hats"
				Note Time="24" Value="F#3" Duration="2" Instrument="rel hats"
				Note Time="26" Value="F#3" Duration="2" Instrument="rel hats"
				Note Time="28" Value="F#3" Duration="2" Instrument="cymbal"
				Note Time="30" Value="F#3" Duration="2" Instrument="rel hats"
				Note Time="32" Value="F#3" Duration="2" Instrument="rel hats"
				Note Time="34" Value="F#3" Duration="2" Instrument="rel hats"
				Note Time="36" Value="F#3" Duration="2" Instrument="cymbal"
				Note Time="38" Value="F#3" Duration="2" Instrument="rel hats"
				Note Time="40" Value="F#3" Duration="2" Instrument="rel hats"
				Note Time="42" Value="F#3" Duration="2" Instrument="rel hats"
				Note Time="44" Value="F#3" Duration="2" Instrument="cymbal"
				Note Time="46" Value="F#3" Duration="2" Instrument="rel hats"
				Note Time="48" Value="F#3" Duration="2" Instrument="rel hats"
				Note Time="50" Value="F#3" Duration="2" Instrument="rel hats"
				Note Time="52" Value="F#3" Duration="2" Instrument="cymbal"
				Note Time="54" Value="F#3" Duration="2" Instrument="rel hats"
				Note Time="56" Value="F#3" Duration="2" Instrument="rel hats"
				Note Time="58" Value="F#3" Duration="2" Instrument="rel hats"
				Note Time="60" Value="F#3" Duration="2" Instrument="cymbal"
				Note Time="62" Value="F#3" Duration="1" Instrument="rel hats"
				Note Time="63" Value="F#3" Duration="1" Instrument="rel hats"
			Pattern Name="08" Color="c7ff86"
				Note Time="0" Value="F#3" Duration="4" Release="2" Instrument="cymbal" Volume="15" Speed="7"
				Note Time="1" Speed="5"
				Note Time="2" Speed="7"
				Note Time="3" Speed="5"
				Note Time="4" Value="D3" Duration="8" Instrument="clap" Volume="6" Speed="7"
				Note Time="5" Speed="5"
				Note Time="6" Speed="7"
				Note Time="7" Speed="5"
				Note Time="8" Speed="7"
				Note Time="9" Speed="5"
				Note Time="10" Speed="7"
				Note Time="11" Speed="5"
				Note Time="12" Value="D3" Duration="8" Instrument="clap" Speed="7"
				Note Time="13" Speed="5"
				Note Time="14" Speed="7"
				Note Time="15" Speed="5"
				Note Time="16" Speed="7"
				Note Time="17" Speed="5"
				Note Time="18" Speed="7"
				Note Time="19" Speed="5"
				Note Time="20" Value="D3" Duration="8" Instrument="clap" Speed="7"
				Note Time="21" Speed="5"
				Note Time="22" Speed="7"
				Note Time="23" Speed="5"
				Note Time="24" Speed="7"
				Note Time="25" Speed="5"
				Note Time="26" Speed="7"
				Note Time="27" Speed="5"
				Note Time="28" Value="D3" Duration="8" Instrument="clap" Speed="7"
				Note Time="29" Speed="5"
				Note Time="30" Speed="7"
				Note Time="31" Speed="5"
				Note Time="32" Speed="7"
				Note Time="33" Speed="5"
				Note Time="34" Speed="7"
				Note Time="35" Speed="5"
				Note Time="36" Value="D3" Duration="8" Instrument="clap" Speed="7"
				Note Time="37" Speed="5"
				Note Time="38" Speed="7"
				Note Time="39" Speed="5"
				Note Time="40" Speed="7"
				Note Time="41" Speed="5"
				Note Time="42" Speed="7"
				Note Time="43" Speed="5"
				Note Time="44" Value="D3" Duration="8" Instrument="clap" Speed="7"
				Note Time="45" Speed="5"
				Note Time="46" Speed="7"
				Note Time="47" Speed="5"
				Note Time="48" Speed="7"
				Note Time="49" Speed="5"
				Note Time="50" Speed="7"
				Note Time="51" Speed="5"
				Note Time="52" Value="D3" Duration="8" Instrument="clap" Speed="7"
				Note Time="53" Speed="5"
				Note Time="54" Speed="7"
				Note Time="55" Speed="5"
				Note Time="56" Speed="7"
				Note Time="57" Speed="5"
				Note Time="58" Speed="7"
				Note Time="59" Speed="5"
				Note Time="60" Value="D3" Duration="8" Instrument="clap" Speed="7"
				Note Time="61" Speed="5"
				Note Time="62" Speed="7"
				Note Time="63" Speed="5"
			Pattern Name="09" Color="3fd7ff"
				Note Time="0" Speed="7"
				Note Time="1" Speed="5"
				Note Time="2" Speed="7"
				Note Time="3" Speed="5"
				Note Time="4" Value="D3" Duration="8" Instrument="clap" Speed="7"
				Note Time="5" Speed="5"
				Note Time="6" Speed="7"
				Note Time="7" Speed="5"
				Note Time="8" Speed="7"
				Note Time="9" Speed="5"
				Note Time="10" Speed="7"
				Note Time="11" Speed="5"
				Note Time="12" Value="D3" Duration="8" Instrument="clap" Speed="7"
				Note Time="13" Speed="5"
				Note Time="14" Speed="7"
				Note Time="15" Speed="5"
				Note Time="16" Speed="7"
				Note Time="17" Speed="5"
				Note Time="18" Speed="7"
				Note Time="19" Speed="5"
				Note Time="20" Value="D3" Duration="8" Instrument="clap" Speed="7"
				Note Time="21" Speed="5"
				Note Time="22" Speed="7"
				Note Time="23" Speed="5"
				Note Time="24" Speed="7"
				Note Time="25" Speed="5"
				Note Time="26" Speed="7"
				Note Time="27" Speed="5"
				Note Time="28" Value="D3" Duration="8" Instrument="clap" Speed="7"
				Note Time="29" Speed="5"
				Note Time="30" Speed="7"
				Note Time="31" Speed="5"
				Note Time="32" Speed="7"
				Note Time="33" Speed="5"
				Note Time="34" Speed="7"
				Note Time="35" Speed="5"
				Note Time="36" Value="D3" Duration="8" Instrument="clap" Speed="7"
				Note Time="37" Speed="5"
				Note Time="38" Speed="7"
				Note Time="39" Speed="5"
				Note Time="40" Speed="7"
				Note Time="41" Speed="5"
				Note Time="42" Speed="7"
				Note Time="43" Speed="5"
				Note Time="44" Value="D3" Duration="11" Instrument="clap" Speed="7"
				Note Time="45" Speed="5"
				Note Time="46" Speed="7"
				Note Time="47" Speed="5"
				Note Time="48" Speed="7"
			PatternInstance Time="0" Pattern="00"
			PatternInstance Time="1" Pattern="01"
			PatternInstance Time="2" Pattern="02"
			PatternInstance Time="3" Pattern="03"
			PatternInstance Time="4" Pattern="04"
			PatternInstance Time="5" Pattern="05"
			PatternInstance Time="6" Pattern="06"
			PatternInstance Time="7" Pattern="05"
			PatternInstance Time="8" Pattern="06"
			PatternInstance Time="9" Pattern="08"
			PatternInstance Time="10" Pattern="09"
		Channel Type="DPCM"
			Pattern Name="00" Color="b75bde"
				Note Time="0" Speed="7"
				Note Time="1" Speed="5"
				Note Time="2" Speed="7"
				Note Time="3" Speed="5"
				Note Time="4" Speed="12"
				Note Time="6" Speed="7"
				Note Time="7" Speed="5"
				Note Time="8" Speed="7"
				Note Time="9" Speed="5"
				Note Time="10" Speed="7"
				Note Time="11" Speed="5"
				Note Time="12" Speed="7"
				Note Time="13" Speed="5"
				Note Time="14" Speed="7"
				Note Time="15" Speed="5"
				Note Time="16" Speed="7"
				Note Time="17" Speed="5"
				Note Time="18" Speed="7"
				Note Time="19" Speed="5"
				Note Time="20" Speed="7"
				Note Time="21" Speed="5"
				Note Time="22" Speed="7"
				Note Time="23" Speed="5"
				Note Time="24" Speed="7"
				Note Time="25" Speed="5"
				Note Time="26" Speed="7"
				Note Time="27" Speed="5"
				Note Time="28" Speed="7"
				Note Time="29" Speed="5"
				Note Time="30" Speed="7"
				Note Time="31" Speed="5"
				Note Time="32" Speed="7"
				Note Time="33" Speed="5"
				Note Time="34" Speed="12"
				Note Time="36" Speed="7"
				Note Time="37" Speed="5"
				Note Time="38" Speed="7"
				Note Time="39" Speed="5"
				Note Time="40" Speed="6"
				Note Time="42" Value="C3" Duration="2" Instrument="DMC: drums + bass"
				Note Time="43" CutDelay="3"
				Note Time="44" Value="C3" Duration="2" Instrument="DMC: drums + bass"
				Note Time="48" Value="C3" Duration="2" Instrument="DMC: drums + bass"
				Note Time="49" CutDelay="3"
				Note Time="50" Value="C3" Duration="2" Instrument="DMC: drums + bass"
				Note Time="53" Value="C3" Duration="11" Instrument="DMC: drums + bass"
				Note Time="56" Speed="3"
			Pattern Name="01" Color="ff8655"
				Note Time="0" Value="C3" Duration="2" Instrument="DMC: drums + bass" Speed="7"
				Note Time="1" Speed="5"
				Note Time="2" Speed="7"
				Note Time="3" Speed="5"
				Note Time="4" Speed="7"
				Note Time="5" Speed="5"
				Note Time="6" Value="C3" Duration="1" Instrument="DMC: drums + bass" Speed="7"
				Note Time="7" Value="C3" Duration="1" Instrument="DMC: drums + bass" Speed="5"
				Note Time="8" Value="C3" Duration="1" Instrument="DMC: drums + bass" Speed="7"
				Note Time="9" Value="C3" Duration="1" Instrument="DMC: drums + bass" Speed="5"
				Note Time="10" Value="C3" Duration="2" Instrument="DMC: drums + bass" Speed="7"
				Note Time="11" Speed="5"
				Note Time="12" Speed="7"
				Note Time="13" Speed="5"
				Note Time="14" Speed="7"
				Note Time="15" Speed="5"
				Note Time="16" Value="C3" Duration="2" Instrument="DMC: drums + bass" Speed="7"
				Note Time="17" Speed="5"
				Note Time="18" Speed="7"
				Note Time="19" Speed="5"
				Note Time="20" Speed="7"
				Note Time="21" Speed="5"
				Note Time="22" Value="C3" Duration="1" Instrument="DMC: drums + bass" Speed="7"
				Note Time="23" Value="C3" Duration="1" Instrument="DMC: drums + bass" Speed="5"
				Note Time="24" Value="C3" Duration="1" Instrument="DMC: drums + bass" Speed="7"
				Note Time="25" Value="C3" Duration="1" Instrument="DMC: drums + bass" Speed="5"
				Note Time="26" Value="C3" Duration="2" Instrument="DMC: drums + bass" Speed="7"
				Note Time="27" Speed="5"
				Note Time="28" Speed="7"
				Note Time="29" Speed="5"
				Note Time="30" Speed="7"
				Note Time="31" Speed="5"
				Note Time="32" Value="C3" Duration="2" Instrument="DMC: drums + bass" Speed="7"
				Note Time="33" Speed="5"
				Note Time="34" Speed="7"
				Note Time="35" Speed="5"
				Note Time="36" Speed="7"
				Note Time="37" Speed="5"
				Note Time="38" Value="C3" Duration="1" Instrument="DMC: drums + bass" Speed="7"
				Note Time="39" Value="C3" Duration="1" Instrument="DMC: drums + bass" Speed="5"
				Note Time="40" Value="C3" Duration="1" Instrument="DMC: drums + bass" Speed="7"
				Note Time="41" Value="C3" Duration="1" Instrument="DMC: drums + bass" Speed="5"
				Note Time="42" Value="C3" Duration="2" Instrument="DMC: drums + bass" Speed="7"
				Note Time="43" Speed="5"
				Note Time="44" Speed="7"
				Note Time="45" Speed="5"
				Note Time="46" Speed="7"
				Note Time="47" Speed="5"
				Note Time="48" Value="C3" Duration="2" Instrument="DMC: drums + bass" Speed="7"
				Note Time="49" Speed="5"
				Note Time="50" Speed="7"
				Note Time="51" Speed="5"
				Note Time="52" Speed="12"
				Note Time="53" Value="C3" Duration="1" Instrument="DMC: drums + bass" Speed="7"
				Note Time="54" Value="C3" Duration="1" Instrument="DMC: drums + bass" Speed="5"
				Note Time="55" Value="C3" Duration="1" Instrument="DMC: drums + bass" Speed="7"
				Note Time="56" Value="C3" Duration="1" Instrument="DMC: drums + bass" Speed="5"
				Note Time="57" Value="C3" Duration="2" Instrument="DMC: drums + bass" Speed="7"
				Note Time="58" Speed="5"
				Note Time="59" Speed="7"
				Note Time="60" Speed="5"
				Note Time="61" Speed="7"
				Note Time="62" Speed="5"
			Pattern Name="02" Color="dad960"
				Note Time="0" Speed="3"
				Note Time="16" Value="E5" Duration="4" Instrument="DMC: drums + bass"
				Note Time="20" Value="E5" Duration="2" Instrument="DMC: drums + bass"
				Note Time="22" Value="E5" Duration="6" Instrument="DMC: drums + bass"
				Note Time="28" Value="E5" Duration="4" Instrument="DMC: drums + bass"
			Pattern Name="03" Color="89ffff"
				Note Time="0" Value="E5" Duration="2" Instrument="DMC: drums + bass"
				Note Time="2" Value="G#3" Duration="2" Instrument="DMC: drums + bass"
				Note Time="4" Value="F5" Duration="1" Instrument="DMC: drums + bass"
				Note Time="5" Value="G#3" Duration="2" Instrument="DMC: drums + bass"
				Note Time="7" Value="E5" Duration="1" Instrument="DMC: drums + bass"
				Note Time="8" Value="E5" Duration="2" Instrument="DMC: drums + bass"
				Note Time="10" Value="E5" Duration="2" Instrument="DMC: drums + bass"
				Note Time="12" Value="F5" Duration="4" Instrument="DMC: drums + bass"
				Note Time="16" Value="E5" Duration="2" Instrument="DMC: drums + bass"
				Note Time="18" Value="C3" Duration="2" Instrument="DMC: drums + bass"
				Note Time="20" Value="F5" Duration="1" Instrument="DMC: drums + bass"
				Note Time="21" Value="C3" Duration="2" Instrument="DMC: drums + bass"
				Note Time="23" Value="E5" Duration="1" Instrument="DMC: drums + bass"
				Note Time="24" Value="E5" Duration="2" Instrument="DMC: drums + bass"
				Note Time="26" Value="E5" Duration="2" Instrument="DMC: drums + bass"
				Note Time="28" Value="F5" Duration="2" Instrument="DMC: drums + bass"
				Note Time="30" Value="E5" Duration="2" Instrument="DMC: drums + bass"
				Note Time="32" Value="E5" Duration="2" Instrument="DMC: drums + bass"
				Note Time="34" Value="G#3" Duration="2" Instrument="DMC: drums + bass"
				Note Time="36" Value="F5" Duration="1" Instrument="DMC: drums + bass"
				Note Time="37" Value="G#3" Duration="2" Instrument="DMC: drums + bass"
				Note Time="39" Value="E5" Duration="1" Instrument="DMC: drums + bass"
				Note Time="40" Value="E5" Duration="2" Instrument="DMC: drums + bass"
				Note Time="42" Value="E5" Duration="2" Instrument="DMC: drums + bass"
				Note Time="44" Value="F5" Duration="2" Instrument="DMC: drums + bass"
				Note Time="46" Value="E5" Duration="1" Instrument="DMC: drums + bass"
				Note Time="47" Value="E5" Duration="1" Instrument="DMC: drums + bass"
				Note Time="48" Value="E5" Duration="4" Instrument="DMC: drums + bass"
				Note Time="52" Value="F5" Duration="3" Instrument="DMC: drums + bass"
				Note Time="55" Value="E5" Duration="1" Instrument="DMC: drums + bass"
				Note Time="56" Value="E5" Duration="2" Instrument="DMC: drums + bass"
				Note Time="58" Value="E5" Duration="2" Instrument="DMC: drums + bass"
				Note Time="60" Value="F5" Duration="2" Instrument="DMC: drums + bass"
				Note Time="62" Value="E5" Duration="2" Instrument="DMC: drums + bass"
			Pattern Name="04" Color="ba93fe"
				Note Time="0" Value="E5" Duration="2" Instrument="DMC: drums + bass"
				Note Time="2" Value="G#3" Duration="2" Instrument="DMC: drums + bass"
				Note Time="4" Value="F5" Duration="1" Instrument="DMC: drums + bass"
				Note Time="5" Value="G#3" Duration="2" Instrument="DMC: drums + bass"
				Note Time="7" Value="E5" Duration="1" Instrument="DMC: drums + bass"
				Note Time="8" Value="E5" Duration="2" Instrument="DMC: drums + bass"
				Note Time="10" Value="E5" Duration="2" Instrument="DMC: drums + bass"
				Note Time="12" Value="F5" Duration="4" Instrument="DMC: drums + bass"
				Note Time="16" Value="E5" Duration="2" Instrument="DMC: drums + bass"
				Note Time="18" Value="C3" Duration="2" Instrument="DMC: drums + bass"
				Note Time="20" Value="F5" Duration="1" Instrument="DMC: drums + bass"
				Note Time="21" Value="C3" Duration="2" Instrument="DMC: drums + bass"
				Note Time="23" Value="E5" Duration="1" Instrument="DMC: drums + bass"
				Note Time="24" Value="E5" Duration="2" Instrument="DMC: drums + bass"
				Note Time="26" Value="E5" Duration="2" Instrument="DMC: drums + bass"
				Note Time="28" Value="F5" Duration="2" Instrument="DMC: drums + bass"
				Note Time="30" Value="E5" Duration="2" Instrument="DMC: drums + bass"
				Note Time="32" Value="E5" Duration="2" Instrument="DMC: drums + bass"
				Note Time="34" Value="G#3" Duration="2" Instrument="DMC: drums + bass"
				Note Time="36" Value="F5" Duration="1" Instrument="DMC: drums + bass"
				Note Time="37" Value="G#3" Duration="2" Instrument="DMC: drums + bass"
				Note Time="39" Value="E5" Duration="1" Instrument="DMC: drums + bass"
				Note Time="40" Value="E5" Duration="2" Instrument="DMC: drums + bass"
				Note Time="42" Value="E5" Duration="2" Instrument="DMC: drums + bass"
				Note Time="44" Value="F5" Duration="2" Instrument="DMC: drums + bass"
				Note Time="46" Value="E5" Duration="1" Instrument="DMC: drums + bass"
				Note Time="47" Value="E5" Duration="1" Instrument="DMC: drums + bass"
				Note Time="48" Value="E5" Duration="4" Instrument="DMC: drums + bass"
				Note Time="52" Value="F5" Duration="3" Instrument="DMC: drums + bass"
				Note Time="55" Value="E5" Duration="1" Instrument="DMC: drums + bass"
				Note Time="56" Value="E5" Duration="2" Instrument="DMC: drums + bass"
				Note Time="58" Value="F5" Duration="1" Instrument="DMC: drums + bass"
				Note Time="59" Value="F5" Duration="1" Instrument="DMC: drums + bass"
				Note Time="60" Value="F5" Duration="1" Instrument="DMC: drums + bass"
				Note Time="61" Value="F5" Duration="1" Instrument="DMC: drums + bass"
				Note Time="62" Value="F5" Duration="1" Instrument="DMC: drums + bass"
				Note Time="63" Value="F5" Duration="1" Instrument="DMC: drums + bass"
			Pattern Name="05" Color="c9aa9f"
				Note Time="0" Value="E5" Duration="2" Instrument="DMC: drums + bass" Speed="7"
				Note Time="1" Speed="5"
				Note Time="2" Value="E5" Duration="2" Instrument="DMC: drums + bass" Speed="7"
				Note Time="3" Speed="5"
				Note Time="4" Value="F5" Duration="4" Instrument="DMC: drums + bass" Speed="7"
				Note Time="5" Speed="5"
				Note Time="6" Speed="7"
				Note Time="7" Speed="5"
				Note Time="8" Value="E5" Duration="2" Instrument="DMC: drums + bass" Speed="7"
				Note Time="9" Speed="5"
				Note Time="10" Value="E5" Duration="2" Instrument="DMC: drums + bass" Speed="7"
				Note Time="11" Speed="5"
				Note Time="12" Value="F5" Duration="4" Instrument="DMC: drums + bass" Speed="7"
				Note Time="13" Speed="5"
				Note Time="14" Speed="7"
				Note Time="15" Speed="5"
				Note Time="16" Value="E5" Duration="2" Instrument="DMC: drums + bass" Speed="7"
				Note Time="17" Speed="5"
				Note Time="18" Value="E5" Duration="2" Instrument="DMC: drums + bass" Speed="7"
				Note Time="19" Speed="5"
				Note Time="20" Value="F5" Duration="4" Instrument="DMC: drums + bass" Speed="7"
				Note Time="21" Speed="5"
				Note Time="22" Speed="7"
				Note Time="23" Speed="5"
				Note Time="24" Value="E5" Duration="2" Instrument="DMC: drums + bass" Speed="7"
				Note Time="25" Speed="5"
				Note Time="26" Value="E5" Duration="2" Instrument="DMC: drums + bass" Speed="7"
				Note Time="27" Speed="5"
				Note Time="28" Value="F5" Duration="3" Instrument="DMC: drums + bass" Speed="7"
				Note Time="29" Speed="5"
				Note Time="30" Speed="7"
				Note Time="31" Value="E5" Duration="1" Instrument="DMC: drums + bass" Speed="5"
				Note Time="32" Value="E5" Duration="3" Instrument="DMC: drums + bass" Speed="7"
				Note Time="33" Speed="5"
				Note Time="34" Speed="7"
				Note Time="35" Value="E5" Duration="1" Instrument="DMC: drums + bass" Speed="5"
				Note Time="36" Value="F5" Duration="2" Instrument="DMC: drums + bass" Speed="7"
				Note Time="37" Speed="5"
				Note Time="38" Value="E5" Duration="2" Instrument="DMC: drums + bass" Speed="7"
				Note Time="39" Speed="5"
				Note Time="40" Value="E5" Duration="3" Instrument="DMC: drums + bass" Speed="7"
				Note Time="41" Speed="5"
				Note Time="42" Speed="7"
				Note Time="43" Value="E5" Duration="1" Instrument="DMC: drums + bass" Speed="5"
				Note Time="44" Value="F5" Duration="2" Instrument="DMC: drums + bass" Speed="7"
				Note Time="45" Speed="5"
				Note Time="46" Value="E5" Duration="2" Instrument="DMC: drums + bass" Speed="7"
				Note Time="47" Speed="5"
				Note Time="48" Value="E5" Duration="3" Instrument="DMC: drums + bass" Speed="7"
				Note Time="49" Speed="5"
				Note Time="50" Speed="7"
				Note Time="51" Value="E5" Duration="1" Instrument="DMC: drums + bass" Speed="5"
				Note Time="52" Value="F5" Duration="2" Instrument="DMC: drums + bass" Speed="7"
				Note Time="53" Speed="5"
				Note Time="54" Value="E5" Duration="2" Instrument="DMC: drums + bass" Speed="7"
				Note Time="55" Speed="5"
				Note Time="56" Value="E5" Duration="3" Instrument="DMC: drums + bass" Speed="7"
				Note Time="57" Speed="5"
				Note Time="58" Speed="7"
				Note Time="59" Value="E5" Duration="1" Instrument="DMC: drums + bass" Speed="5"
				Note Time="60" Value="F5" Duration="2" Instrument="DMC: drums + bass" Speed="7"
				Note Time="61" Speed="5"
				Note Time="62" Value="E5" Duration="2" Instrument="DMC: drums + bass" Speed="7"
				Note Time="63" Speed="5"
			Pattern Name="06" Color="ffff77"
				Note Time="0" Value="E5" Duration="2" Instrument="DMC: drums + bass" Speed="7"
				Note Time="1" Speed="5"
				Note Time="2" Value="E5" Duration="2" Instrument="DMC: drums + bass" Speed="7"
				Note Time="3" Speed="5"
				Note Time="4" Value="F5" Duration="4" Instrument="DMC: drums + bass" Speed="7"
				Note Time="5" Speed="5"
				Note Time="6" Speed="7"
				Note Time="7" Speed="5"
				Note Time="8" Value="E5" Duration="2" Instrument="DMC: drums + bass" Speed="7"
				Note Time="9" Speed="5"
				Note Time="10" Value="E5" Duration="2" Instrument="DMC: drums + bass" Speed="7"
				Note Time="11" Speed="5"
				Note Time="12" Value="F5" Duration="4" Instrument="DMC: drums + bass" Speed="7"
				Note Time="13" Speed="5"
				Note Time="14" Speed="7"
				Note Time="15" Speed="5"
				Note Time="16" Value="E5" Duration="2" Instrument="DMC: drums + bass" Speed="7"
				Note Time="17" Speed="5"
				Note Time="18" Value="E5" Duration="2" Instrument="DMC: drums + bass" Speed="7"
				Note Time="19" Speed="5"
				Note Time="20" Value="F5" Duration="4" Instrument="DMC: drums + bass" Speed="7"
				Note Time="21" Speed="5"
				Note Time="22" Speed="7"
				Note Time="23" Speed="5"
				Note Time="24" Value="E5" Duration="2" Instrument="DMC: drums + bass" Speed="7"
				Note Time="25" Speed="5"
				Note Time="26" Value="E5" Duration="2" Instrument="DMC: drums + bass" Speed="7"
				Note Time="27" Speed="5"
				Note Time="28" Value="F5" Duration="3" Instrument="DMC: drums + bass" Speed="7"
				Note Time="29" Speed="5"
				Note Time="30" Speed="7"
				Note Time="31" Value="E5" Duration="1" Instrument="DMC: drums + bass" Speed="5"
				Note Time="32" Value="E5" Duration="3" Instrument="DMC: drums + bass" Speed="7"
				Note Time="33" Speed="5"
				Note Time="34" Speed="7"
				Note Time="35" Value="E5" Duration="1" Instrument="DMC: drums + bass" Speed="5"
				Note Time="36" Value="F5" Duration="2" Instrument="DMC: drums + bass" Speed="7"
				Note Time="37" Speed="5"
				Note Time="38" Value="E5" Duration="2" Instrument="DMC: drums + bass" Speed="7"
				Note Time="39" Speed="5"
				Note Time="40" Value="E5" Duration="3" Instrument="DMC: drums + bass" Speed="7"
				Note Time="41" Speed="5"
				Note Time="42" Speed="7"
				Note Time="43" Value="E5" Duration="1" Instrument="DMC: drums + bass" Speed="5"
				Note Time="44" Value="F5" Duration="2" Instrument="DMC: drums + bass" Speed="7"
				Note Time="45" Speed="5"
				Note Time="46" Value="E5" Duration="2" Instrument="DMC: drums + bass" Speed="7"
				Note Time="47" Speed="5"
				Note Time="48" Value="E5" Duration="3" Instrument="DMC: drums + bass" Speed="7"
				Note Time="49" Speed="5"
				Note Time="50" Speed="7"
				Note Time="51" Value="E5" Duration="1" Instrument="DMC: drums + bass" Speed="5"
				Note Time="52" Value="F5" Duration="2" Instrument="DMC: drums + bass" Speed="7"
				Note Time="53" Speed="5"
				Note Time="54" Value="E5" Duration="2" Instrument="DMC: drums + bass" Speed="7"
				Note Time="55" Speed="5"
				Note Time="56" Value="E5" Duration="3" Instrument="DMC: drums + bass" Speed="7"
				Note Time="57" Speed="5"
				Note Time="58" Speed="7"
				Note Time="59" Value="E5" Duration="1" Instrument="DMC: drums + bass" Speed="5"
				Note Time="60" Value="F5" Duration="2" Instrument="DMC: drums + bass" Speed="7"
				Note Time="61" Speed="5"
				Note Time="62" Value="E5" Duration="1" Instrument="DMC: drums + bass" Speed="7"
				Note Time="63" Value="F5" Duration="1" Instrument="DMC: drums + bass" Speed="5"
			Pattern Name="08" Color="3cc5b7"
				Note Time="0" Value="E5" Duration="2" Instrument="DMC: drums + bass"
				Note Time="2" Value="G#3" Duration="3" Instrument="DMC: drums + bass"
				Note Time="5" Value="G#3" Duration="2" Instrument="DMC: drums + bass"
				Note Time="7" Value="E5" Duration="1" Instrument="DMC: drums + bass"
				Note Time="8" Value="E5" Duration="2" Instrument="DMC: drums + bass"
				Note Time="10" Value="E5" Duration="6" Instrument="DMC: drums + bass"
				Note Time="16" Value="E5" Duration="2" Instrument="DMC: drums + bass"
				Note Time="18" Value="C3" Duration="3" Instrument="DMC: drums + bass"
				Note Time="21" Value="C3" Duration="2" Instrument="DMC: drums + bass"
				Note Time="23" Value="E5" Duration="1" Instrument="DMC: drums + bass"
				Note Time="24" Value="E5" Duration="2" Instrument="DMC: drums + bass"
				Note Time="26" Value="E5" Duration="4" Instrument="DMC: drums + bass"
				Note Time="30" Value="E5" Duration="2" Instrument="DMC: drums + bass"
				Note Time="32" Value="E5" Duration="2" Instrument="DMC: drums + bass"
				Note Time="34" Value="G#3" Duration="3" Instrument="DMC: drums + bass"
				Note Time="37" Value="G#3" Duration="2" Instrument="DMC: drums + bass"
				Note Time="39" Value="E5" Duration="1" Instrument="DMC: drums + bass"
				Note Time="40" Value="E5" Duration="2" Instrument="DMC: drums + bass"
				Note Time="42" Value="E5" Duration="4" Instrument="DMC: drums + bass"
				Note Time="46" Value="E5" Duration="1" Instrument="DMC: drums + bass"
				Note Time="47" Value="E5" Duration="1" Instrument="DMC: drums + bass"
				Note Time="48" Value="E5" Duration="7" Instrument="DMC: drums + bass"
				Note Time="55" Value="E5" Duration="1" Instrument="DMC: drums + bass"
				Note Time="56" Value="E5" Duration="2" Instrument="DMC: drums + bass"
				Note Time="58" Value="E5" Duration="4" Instrument="DMC: drums + bass"
				Note Time="62" Value="E5" Duration="2" Instrument="DMC: drums + bass"
			Pattern Name="09" Color="6c7bdb"
				Note Time="0" Value="E5" Duration="2" Instrument="DMC: drums + bass"
				Note Time="2" Value="G#3" Duration="3" Instrument="DMC: drums + bass"
				Note Time="5" Value="G#3" Duration="2" Instrument="DMC: drums + bass"
				Note Time="7" Value="E5" Duration="1" Instrument="DMC: drums + bass"
				Note Time="8" Value="E5" Duration="2" Instrument="DMC: drums + bass"
				Note Time="10" Value="E5" Duration="6" Instrument="DMC: drums + bass"
				Note Time="16" Value="E5" Duration="2" Instrument="DMC: drums + bass"
				Note Time="18" Value="C3" Duration="3" Instrument="DMC: drums + bass"
				Note Time="21" Value="C3" Duration="2" Instrument="DMC: drums + bass"
				Note Time="23" Value="E5" Duration="1" Instrument="DMC: drums + bass"
				Note Time="24" Value="E5" Duration="2" Instrument="DMC: drums + bass"
				Note Time="26" Value="E5" Duration="4" Instrument="DMC: drums + bass"
				Note Time="30" Value="E5" Duration="2" Instrument="DMC: drums + bass"
				Note Time="32" Value="E5" Duration="2" Instrument="DMC: drums + bass"
				Note Time="34" Value="G#3" Duration="3" Instrument="DMC: drums + bass"
				Note Time="37" Value="G#3" Duration="2" Instrument="DMC: drums + bass"
				Note Time="39" Value="E5" Duration="1" Instrument="DMC: drums + bass"
				Note Time="40" Value="E5" Duration="2" Instrument="DMC: drums + bass"
				Note Time="42" Value="E5" Duration="4" Instrument="DMC: drums + bass"
				Note Time="46" Value="E5" Duration="1" Instrument="DMC: drums + bass"
				Note Time="47" Value="E5" Duration="1" Instrument="DMC: drums + bass"
				Note Time="48" Value="F5" Duration="2" Instrument="DMC: drums + bass"
			PatternInstance Time="0" Pattern="00"
			PatternInstance Time="1" Pattern="01"
			PatternInstance Time="2" Pattern="02"
			PatternInstance Time="3" Pattern="03"
			PatternInstance Time="4" Pattern="04"
			PatternInstance Time="5" Pattern="05"
			PatternInstance Time="6" Pattern="06"
			PatternInstance Time="7" Pattern="05"
			PatternInstance Time="8" Pattern="06"
			PatternInstance Time="9" Pattern="08"
			PatternInstance Time="10" Pattern="09"
	Song Name="eon" Color="5dd2ff" Folder="Custom music used in the game" Length="205" LoopPoint="-1" PatternLength="16" BeatLength="4" FamiTrackerTempo="155" FamiTrackerSpeed="6"
		PatternCustomSettings Time="0" Length="2"
		PatternCustomSettings Time="154" Length="8"
		PatternCustomSettings Time="187" Length="1"
		Channel Type="Square1"
			Pattern Name="Pattern 30" Color="ffff75"
			Pattern Name="Pattern 1" Color="ff579c"
				Note Time="0" Value="A1" Duration="4" Instrument="endgame lead" Volume="15" DutyCycle="2"
				Note Time="4" Value="A1" Duration="6" Instrument="endgame lead"
				Note Time="6" FinePitch="1"
				Note Time="7" FinePitch="10"
				Note Time="8" FinePitch="15"
				Note Time="9" FinePitch="26"
				Note Time="10" Value="E2" Duration="4" Instrument="endgame lead" FinePitch="0"
				Note Time="14" Value="E2" Duration="6" Instrument="endgame lead"
			Pattern Name="Pattern 2" Color="ffc83c"
				Note Time="0" FinePitch="1"
				Note Time="1" FinePitch="4"
				Note Time="2" FinePitch="7"
				Note Time="3" FinePitch="12"
				Note Time="4" Value="G2" Duration="3" Instrument="endgame lead" FinePitch="0"
				Note Time="8" Value="G2" Duration="1" Instrument="endgame lead"
			Pattern Name="Pattern 3" Color="ff8f8c"
				Note Time="0" Value="A1" Duration="4" Instrument="endgame lead"
				Note Time="4" Value="A1" Duration="6" Instrument="endgame lead"
				Note Time="6" FinePitch="5"
				Note Time="7" FinePitch="6"
				Note Time="8" FinePitch="9"
				Note Time="9" FinePitch="13"
				Note Time="10" Value="G2" Duration="4" Instrument="endgame lead" FinePitch="0"
				Note Time="14" Value="G2" Duration="2" Instrument="endgame lead"
			Pattern Name="Pattern 4" Color="ffff64"
				Note Time="0" Value="C2" Duration="4" Instrument="endgame lead"
				Note Time="4" Value="B1" Duration="3" Instrument="endgame lead"
				Note Time="8" Value="B1" Duration="1" Instrument="endgame lead"
			Pattern Name="Pattern 5" Color="ff579c"
				Note Time="4" Value="C2" Duration="8" Instrument="endgame lead"
				Note Time="7" FinePitch="0"
				Note Time="8" FinePitch="10"
				Note Time="9" FinePitch="13"
				Note Time="10" FinePitch="20"
				Note Time="11" FinePitch="31"
				Note Time="12" FinePitch="33"
				Note Time="13" FinePitch="36"
				Note Time="14" FinePitch="38"
				Note Time="15" FinePitch="51"
			Pattern Name="Pattern 6" Color="ffc83c"
				Note Time="0" Value="A1" Duration="4" Instrument="endgame lead" FinePitch="0" DutyCycle="2"
				Note Time="4" Value="A1" Duration="6" Instrument="endgame lead"
				Note Time="6" FinePitch="1"
				Note Time="7" FinePitch="10"
				Note Time="8" FinePitch="15"
				Note Time="9" FinePitch="26"
				Note Time="10" Value="B1" Duration="10" Instrument="endgame lead" FinePitch="0"
			Pattern Name="Pattern 7" Color="3eb3f9"
				Note Time="0" FinePitch="1"
				Note Time="1" FinePitch="4"
				Note Time="2" FinePitch="7"
				Note Time="3" FinePitch="12"
				Note Time="4" Value="G2" Duration="3" Instrument="endgame lead" FinePitch="6"
				Note Time="8" Value="G2" Duration="1" Instrument="endgame lead"
				Note Time="9" FinePitch="0"
			Pattern Name="Pattern 8" Color="ffb83c"
				Note Time="0" Value="A1" Duration="1" Instrument="clutterfunk sax"
				Note Time="2" Value="A1" Duration="1" Instrument="clutterfunk sax"
				Note Time="6" Value="G1" Duration="1" Instrument="clutterfunk sax"
				Note Time="8" Value="G1" Duration="1" Instrument="clutterfunk sax"
				Note Time="12" Value="F1" Duration="1" Instrument="clutterfunk sax"
				Note Time="14" Value="F1" Duration="1" Instrument="clutterfunk sax"
			Pattern Name="Pattern 9" Color="91c76b"
				Note Time="2" Value="E1" Duration="1" Instrument="clutterfunk sax"
				Note Time="4" Value="E1" Duration="1" Instrument="clutterfunk sax"
				Note Time="8" Value="C1" Duration="1" Instrument="clutterfunk sax"
				Note Time="10" Value="C1" Duration="1" Instrument="clutterfunk sax"
			Pattern Name="Pattern 11" Color="ff579c"
				Note Time="2" Value="E1" Duration="1" Instrument="clutterfunk sax"
				Note Time="4" Value="E1" Duration="1" Instrument="clutterfunk sax"
				Note Time="8" Value="C1" Duration="1" Instrument="clutterfunk sax"
				Note Time="11" Volume="8"
				Note Time="12" Value="A4" Duration="8" Instrument="hex guitar 1"
			Pattern Name="Pattern 10" Color="5dd2ff"
				Note Time="4" Value="G4" Duration="4" Instrument="hex guitar 1"
				Note Time="8" Value="F4" Duration="4" Instrument="hex guitar 1"
				Note Time="12" Value="C4" Duration="4" Instrument="hex guitar 1"
			Pattern Name="Pattern 12" Color="ffc83c"
				Note Time="0" Value="D4" Duration="4" Instrument="hex guitar 1"
				Note Time="4" Value="A3" Duration="4" Instrument="hex guitar 1"
				Note Time="8" Value="B3" Duration="4" Instrument="hex guitar 1"
				Note Time="12" Value="C4" Duration="8" Instrument="hex guitar 1"
			Pattern Name="Pattern 13" Color="a4db74"
				Note Time="4" Value="B3" Duration="8" Instrument="hex guitar 1"
				Note Time="12" Value="G3" Duration="4" Instrument="hex guitar 1"
			Pattern Name="Pattern 14" Color="f6a4ff"
				Note Time="0" Value="A3" Duration="4" Instrument="hex guitar 1"
				Note Time="4" Value="C3" Duration="4" Instrument="hex guitar 1"
				Note Time="8" Value="D3" Duration="4" Instrument="hex guitar 1"
				Note Time="12" Value="E3" Duration="8" Instrument="hex guitar 1"
			Pattern Name="Pattern 15" Color="b5c2ff"
				Note Time="4" Value="A3" Duration="8" Instrument="hex guitar 1"
				Note Time="12" Value="G3" Duration="4" Instrument="hex guitar 1"
			Pattern Name="Pattern 16" Color="ff8f8c"
				Note Time="0" Value="A3" Duration="4" Instrument="hex guitar 1"
				Note Time="4" Value="B3" Duration="4" Instrument="hex guitar 1"
				Note Time="8" Value="C4" Duration="4" Instrument="hex guitar 1"
				Note Time="12" Value="A4" Duration="8" Instrument="hex guitar 1"
			Pattern Name="Pattern 17" Color="ff5a9f"
				Note Time="0" Value="A3" Duration="4" Instrument="hex guitar 1"
				Note Time="4" Value="C3" Duration="4" Instrument="hex guitar 1" Speed="7"
				Note Time="8" Value="D3" Duration="4" Instrument="hex guitar 1"
				Note Time="12" Value="E3" Duration="8" Instrument="hex guitar 1"
			Pattern Name="Pattern 34" Color="c9aa9f"
				Note Time="0" Value="A3" Duration="4" Instrument="hex guitar 1"
				Note Time="4" Value="B3" Duration="4" Instrument="hex guitar 1"
				Note Time="8" Value="C4" Duration="4" Instrument="hex guitar 1"
			Pattern Name="Pattern 18" Color="ffd43c"
				Note Time="0" Speed="6"
			Pattern Name="Pattern 21" Color="ffc83c"
				Note Time="0" FinePitch="1"
				Note Time="1" FinePitch="4"
				Note Time="2" FinePitch="7"
				Note Time="3" FinePitch="12"
				Note Time="4" Value="G2" Duration="3" Instrument="endgame lead" FinePitch="6"
				Note Time="8" Value="G2" Duration="1" Instrument="endgame lead"
				Note Time="9" FinePitch="0"
				Note Time="12" Volume="10"
			Pattern Name="Pattern 19" Color="3cc5b7"
				Note Time="0" Value="B3" Duration="2" Instrument="hex guitar 1"
				Note Time="4" Value="C4" Duration="2" Instrument="hex guitar 1"
				Note Time="10" Value="B3" Duration="2" Instrument="hex guitar 1"
			Pattern Name="Pattern 20" Color="6c7bdb"
				Note Time="0" Value="C4" Duration="2" Instrument="hex guitar 1"
				Note Time="4" Value="B3" Duration="2" Instrument="hex guitar 1"
				Note Time="8" Value="G3" Duration="2" Instrument="hex guitar 1"
			Pattern Name="Pattern 22" Color="bdffc0"
				Note Time="0" Value="C4" Duration="2" Instrument="hex guitar 1"
				Note Time="4" Value="E4" Duration="2" Instrument="hex guitar 1"
				Note Time="8" Value="C4" Duration="2" Instrument="hex guitar 1"
			Pattern Name="Pattern 23" Color="7fdc83"
				Note Time="4" Value="B4" Duration="2" Instrument="hex guitar 1"
				Note Time="8" Value="C5" Duration="2" Instrument="hex guitar 1"
				Note Time="14" Value="B4" Duration="2" Instrument="hex guitar 1"
			Pattern Name="Pattern 24" Color="55b2ff"
				Note Time="4" Value="C5" Duration="2" Instrument="hex guitar 1"
				Note Time="8" Value="B4" Duration="2" Instrument="hex guitar 1"
				Note Time="12" Value="G4" Duration="2" Instrument="hex guitar 1"
			Pattern Name="Pattern 25" Color="e95093"
				Note Time="4" Value="B4" Duration="2" Instrument="hex guitar 1"
				Note Time="8" Value="C5" Duration="2" Instrument="hex guitar 1"
				Note Time="14" Value="B4" Duration="2" Instrument="hex guitar 1"
			Pattern Name="Pattern 26" Color="ffa83c"
				Note Time="4" Value="C5" Duration="2" Instrument="hex guitar 1"
				Note Time="8" Value="B4" Duration="2" Instrument="hex guitar 1"
				Note Time="12" Value="G4" Duration="2" Instrument="hex guitar 1"
			Pattern Name="Pattern 27" Color="eaffbd"
				Note Time="4" Value="B4" Duration="2" Instrument="hex guitar 1"
				Note Time="8" Value="C5" Duration="2" Instrument="hex guitar 1"
				Note Time="14" Value="B4" Duration="2" Instrument="hex guitar 1"
			Pattern Name="Pattern 28" Color="65f2ff"
				Note Time="4" Value="C5" Duration="2" Instrument="hex guitar 1"
				Note Time="8" Value="E5" Duration="2" Instrument="hex guitar 1"
				Note Time="12" Value="C5" Duration="2" Instrument="hex guitar 1"
			Pattern Name="Pattern 29" Color="d863ec"
				Note Time="4" Value="B4" Duration="2" Instrument="hex guitar 1"
				Note Time="8" Value="C5" Duration="2" Instrument="hex guitar 1"
				Note Time="14" Value="B4" Duration="2" Instrument="hex guitar 1"
			Pattern Name="Pattern 31" Color="ffcb3c"
				Note Time="4" Value="C5" Duration="2" Instrument="hex guitar 1"
			Pattern Name="Pattern 47" Color="6ab96e"
				Note Time="4" Value="B3" Duration="2" Instrument="clutterfunk sax"
				Note Time="8" Value="C4" Duration="2" Instrument="clutterfunk sax"
				Note Time="14" Value="B3" Duration="2" Instrument="clutterfunk sax"
			Pattern Name="Pattern 32" Color="fe5497"
				Note Time="4" Value="C4" Duration="2" Instrument="clutterfunk sax"
				Note Time="8" Value="B3" Duration="2" Instrument="clutterfunk sax"
				Note Time="12" Value="G3" Duration="2" Instrument="clutterfunk sax"
			Pattern Name="Pattern 33" Color="ffb83c"
				Note Time="4" Value="B3" Duration="2" Instrument="clutterfunk sax"
				Note Time="8" Value="C4" Duration="2" Instrument="clutterfunk sax"
				Note Time="14" Value="B3" Duration="2" Instrument="clutterfunk sax"
			Pattern Name="Pattern 35" Color="91c76b"
				Note Time="4" Value="C4" Duration="2" Instrument="clutterfunk sax"
				Note Time="8" Value="B3" Duration="2" Instrument="clutterfunk sax"
				Note Time="12" Value="G3" Duration="2" Instrument="clutterfunk sax"
			Pattern Name="Pattern 36" Color="8bffff"
				Note Time="4" Value="B3" Duration="2" Instrument="clutterfunk sax"
				Note Time="8" Value="C4" Duration="2" Instrument="clutterfunk sax"
				Note Time="14" Value="B3" Duration="2" Instrument="clutterfunk sax"
			Pattern Name="Pattern 37" Color="e783f8"
				Note Time="4" Value="C4" Duration="2" Instrument="clutterfunk sax"
				Note Time="8" Value="E4" Duration="2" Instrument="clutterfunk sax"
				Note Time="12" Value="C4" Duration="2" Instrument="clutterfunk sax"
			Pattern Name="Pattern 38" Color="ffac7f"
				Note Time="4" Value="B3" Duration="2" Instrument="clutterfunk sax"
				Note Time="8" Value="C4" Duration="2" Instrument="clutterfunk sax"
				Note Time="14" Value="B3" Duration="2" Instrument="clutterfunk sax"
			PatternInstance Time="0" Pattern="Pattern 30"
			PatternInstance Time="1" Pattern="Pattern 1"
			PatternInstance Time="2" Pattern="Pattern 2"
			PatternInstance Time="3" Pattern="Pattern 3"
			PatternInstance Time="4" Pattern="Pattern 4"
			PatternInstance Time="5" Pattern="Pattern 1"
			PatternInstance Time="6" Pattern="Pattern 5"
			PatternInstance Time="7" Pattern="Pattern 6"
			PatternInstance Time="8" Pattern="Pattern 7"
			PatternInstance Time="9" Pattern="Pattern 1"
			PatternInstance Time="10" Pattern="Pattern 2"
			PatternInstance Time="11" Pattern="Pattern 3"
			PatternInstance Time="12" Pattern="Pattern 4"
			PatternInstance Time="13" Pattern="Pattern 1"
			PatternInstance Time="14" Pattern="Pattern 5"
			PatternInstance Time="15" Pattern="Pattern 6"
			PatternInstance Time="16" Pattern="Pattern 7"
			PatternInstance Time="17" Pattern="Pattern 1"
			PatternInstance Time="18" Pattern="Pattern 2"
			PatternInstance Time="19" Pattern="Pattern 3"
			PatternInstance Time="20" Pattern="Pattern 4"
			PatternInstance Time="21" Pattern="Pattern 1"
			PatternInstance Time="22" Pattern="Pattern 5"
			PatternInstance Time="23" Pattern="Pattern 6"
			PatternInstance Time="24" Pattern="Pattern 7"
			PatternInstance Time="25" Pattern="Pattern 1"
			PatternInstance Time="26" Pattern="Pattern 2"
			PatternInstance Time="27" Pattern="Pattern 3"
			PatternInstance Time="28" Pattern="Pattern 4"
			PatternInstance Time="29" Pattern="Pattern 1"
			PatternInstance Time="30" Pattern="Pattern 5"
			PatternInstance Time="31" Pattern="Pattern 6"
			PatternInstance Time="32" Pattern="Pattern 7"
			PatternInstance Time="33" Pattern="Pattern 1"
			PatternInstance Time="34" Pattern="Pattern 2"
			PatternInstance Time="35" Pattern="Pattern 3"
			PatternInstance Time="36" Pattern="Pattern 4"
			PatternInstance Time="37" Pattern="Pattern 1"
			PatternInstance Time="38" Pattern="Pattern 5"
			PatternInstance Time="39" Pattern="Pattern 6"
			PatternInstance Time="40" Pattern="Pattern 7"
			PatternInstance Time="41" Pattern="Pattern 8"
			PatternInstance Time="42" Pattern="Pattern 9"
			PatternInstance Time="43" Pattern="Pattern 8"
			PatternInstance Time="44" Pattern="Pattern 9"
			PatternInstance Time="45" Pattern="Pattern 8"
			PatternInstance Time="46" Pattern="Pattern 9"
			PatternInstance Time="47" Pattern="Pattern 8"
			PatternInstance Time="48" Pattern="Pattern 9"
			PatternInstance Time="49" Pattern="Pattern 8"
			PatternInstance Time="50" Pattern="Pattern 9"
			PatternInstance Time="51" Pattern="Pattern 8"
			PatternInstance Time="52" Pattern="Pattern 9"
			PatternInstance Time="53" Pattern="Pattern 8"
			PatternInstance Time="54" Pattern="Pattern 9"
			PatternInstance Time="55" Pattern="Pattern 8"
			PatternInstance Time="56" Pattern="Pattern 9"
			PatternInstance Time="57" Pattern="Pattern 8"
			PatternInstance Time="58" Pattern="Pattern 9"
			PatternInstance Time="59" Pattern="Pattern 8"
			PatternInstance Time="60" Pattern="Pattern 9"
			PatternInstance Time="61" Pattern="Pattern 8"
			PatternInstance Time="62" Pattern="Pattern 9"
			PatternInstance Time="63" Pattern="Pattern 8"
			PatternInstance Time="64" Pattern="Pattern 9"
			PatternInstance Time="65" Pattern="Pattern 8"
			PatternInstance Time="66" Pattern="Pattern 9"
			PatternInstance Time="67" Pattern="Pattern 8"
			PatternInstance Time="68" Pattern="Pattern 9"
			PatternInstance Time="69" Pattern="Pattern 8"
			PatternInstance Time="70" Pattern="Pattern 9"
			PatternInstance Time="71" Pattern="Pattern 8"
			PatternInstance Time="72" Pattern="Pattern 11"
			PatternInstance Time="73" Pattern="Pattern 10"
			PatternInstance Time="74" Pattern="Pattern 12"
			PatternInstance Time="75" Pattern="Pattern 13"
			PatternInstance Time="76" Pattern="Pattern 14"
			PatternInstance Time="77" Pattern="Pattern 15"
			PatternInstance Time="78" Pattern="Pattern 16"
			PatternInstance Time="79" Pattern="Pattern 15"
			PatternInstance Time="80" Pattern="Pattern 16"
			PatternInstance Time="81" Pattern="Pattern 10"
			PatternInstance Time="82" Pattern="Pattern 12"
			PatternInstance Time="83" Pattern="Pattern 13"
			PatternInstance Time="84" Pattern="Pattern 14"
			PatternInstance Time="85" Pattern="Pattern 15"
			PatternInstance Time="86" Pattern="Pattern 16"
			PatternInstance Time="87" Pattern="Pattern 15"
			PatternInstance Time="88" Pattern="Pattern 16"
			PatternInstance Time="89" Pattern="Pattern 10"
			PatternInstance Time="90" Pattern="Pattern 12"
			PatternInstance Time="91" Pattern="Pattern 13"
			PatternInstance Time="92" Pattern="Pattern 17"
			PatternInstance Time="93" Pattern="Pattern 15"
			PatternInstance Time="94" Pattern="Pattern 16"
			PatternInstance Time="95" Pattern="Pattern 15"
			PatternInstance Time="96" Pattern="Pattern 34"
			PatternInstance Time="97" Pattern="Pattern 18"
			PatternInstance Time="98" Pattern="Pattern 1"
			PatternInstance Time="99" Pattern="Pattern 2"
			PatternInstance Time="100" Pattern="Pattern 3"
			PatternInstance Time="101" Pattern="Pattern 4"
			PatternInstance Time="102" Pattern="Pattern 1"
			PatternInstance Time="103" Pattern="Pattern 5"
			PatternInstance Time="104" Pattern="Pattern 6"
			PatternInstance Time="105" Pattern="Pattern 7"
			PatternInstance Time="106" Pattern="Pattern 1"
			PatternInstance Time="107" Pattern="Pattern 2"
			PatternInstance Time="108" Pattern="Pattern 3"
			PatternInstance Time="109" Pattern="Pattern 4"
			PatternInstance Time="110" Pattern="Pattern 1"
			PatternInstance Time="111" Pattern="Pattern 5"
			PatternInstance Time="112" Pattern="Pattern 6"
			PatternInstance Time="113" Pattern="Pattern 21"
			PatternInstance Time="114" Pattern="Pattern 8"
			PatternInstance Time="115" Pattern="Pattern 9"
			PatternInstance Time="116" Pattern="Pattern 8"
			PatternInstance Time="117" Pattern="Pattern 9"
			PatternInstance Time="118" Pattern="Pattern 8"
			PatternInstance Time="119" Pattern="Pattern 9"
			PatternInstance Time="120" Pattern="Pattern 8"
			PatternInstance Time="121" Pattern="Pattern 9"
			PatternInstance Time="122" Pattern="Pattern 8"
			PatternInstance Time="123" Pattern="Pattern 9"
			PatternInstance Time="124" Pattern="Pattern 8"
			PatternInstance Time="125" Pattern="Pattern 9"
			PatternInstance Time="126" Pattern="Pattern 8"
			PatternInstance Time="127" Pattern="Pattern 9"
			PatternInstance Time="128" Pattern="Pattern 8"
			PatternInstance Time="129" Pattern="Pattern 9"
			PatternInstance Time="130" Pattern="Pattern 8"
			PatternInstance Time="131" Pattern="Pattern 9"
			PatternInstance Time="132" Pattern="Pattern 8"
			PatternInstance Time="133" Pattern="Pattern 9"
			PatternInstance Time="134" Pattern="Pattern 8"
			PatternInstance Time="135" Pattern="Pattern 9"
			PatternInstance Time="136" Pattern="Pattern 8"
			PatternInstance Time="137" Pattern="Pattern 9"
			PatternInstance Time="138" Pattern="Pattern 19"
			PatternInstance Time="139" Pattern="Pattern 20"
			PatternInstance Time="140" Pattern="Pattern 19"
			PatternInstance Time="141" Pattern="Pattern 20"
			PatternInstance Time="142" Pattern="Pattern 19"
			PatternInstance Time="143" Pattern="Pattern 22"
			PatternInstance Time="144" Pattern="Pattern 19"
			PatternInstance Time="145" Pattern="Pattern 20"
			PatternInstance Time="146" Pattern="Pattern 19"
			PatternInstance Time="147" Pattern="Pattern 20"
			PatternInstance Time="148" Pattern="Pattern 19"
			PatternInstance Time="149" Pattern="Pattern 20"
			PatternInstance Time="150" Pattern="Pattern 19"
			PatternInstance Time="151" Pattern="Pattern 22"
			PatternInstance Time="152" Pattern="Pattern 19"
			PatternInstance Time="153" Pattern="Pattern 20"
			PatternInstance Time="155" Pattern="Pattern 23"
			PatternInstance Time="156" Pattern="Pattern 24"
			PatternInstance Time="157" Pattern="Pattern 25"
			PatternInstance Time="158" Pattern="Pattern 26"
			PatternInstance Time="159" Pattern="Pattern 27"
			PatternInstance Time="160" Pattern="Pattern 28"
			PatternInstance Time="161" Pattern="Pattern 29"
			PatternInstance Time="162" Pattern="Pattern 31"
			PatternInstance Time="163" Pattern="Pattern 23"
			PatternInstance Time="164" Pattern="Pattern 24"
			PatternInstance Time="165" Pattern="Pattern 25"
			PatternInstance Time="166" Pattern="Pattern 26"
			PatternInstance Time="167" Pattern="Pattern 27"
			PatternInstance Time="168" Pattern="Pattern 28"
			PatternInstance Time="169" Pattern="Pattern 29"
			PatternInstance Time="170" Pattern="Pattern 26"
			PatternInstance Time="171" Pattern="Pattern 23"
			PatternInstance Time="172" Pattern="Pattern 24"
			PatternInstance Time="173" Pattern="Pattern 25"
			PatternInstance Time="174" Pattern="Pattern 26"
			PatternInstance Time="175" Pattern="Pattern 27"
			PatternInstance Time="176" Pattern="Pattern 28"
			PatternInstance Time="177" Pattern="Pattern 29"
			PatternInstance Time="178" Pattern="Pattern 26"
			PatternInstance Time="179" Pattern="Pattern 23"
			PatternInstance Time="180" Pattern="Pattern 24"
			PatternInstance Time="181" Pattern="Pattern 25"
			PatternInstance Time="182" Pattern="Pattern 26"
			PatternInstance Time="183" Pattern="Pattern 27"
			PatternInstance Time="184" Pattern="Pattern 28"
			PatternInstance Time="185" Pattern="Pattern 29"
			PatternInstance Time="186" Pattern="Pattern 26"
			PatternInstance Time="188" Pattern="Pattern 47"
			PatternInstance Time="189" Pattern="Pattern 32"
			PatternInstance Time="190" Pattern="Pattern 33"
			PatternInstance Time="191" Pattern="Pattern 35"
			PatternInstance Time="192" Pattern="Pattern 36"
			PatternInstance Time="193" Pattern="Pattern 37"
			PatternInstance Time="194" Pattern="Pattern 38"
			PatternInstance Time="195" Pattern="Pattern 35"
			PatternInstance Time="196" Pattern="Pattern 38"
			PatternInstance Time="197" Pattern="Pattern 32"
			PatternInstance Time="198" Pattern="Pattern 33"
			PatternInstance Time="199" Pattern="Pattern 35"
			PatternInstance Time="200" Pattern="Pattern 36"
			PatternInstance Time="201" Pattern="Pattern 37"
			PatternInstance Time="202" Pattern="Pattern 33"
			PatternInstance Time="203" Pattern="Pattern 35"
		Channel Type="Square2"
			Pattern Name="Pattern 1" Color="a4db74"
				Note Time="0" Value="A1" Duration="1" Instrument="electroman lead" Volume="15"
				Note Time="4" Value="A1" Duration="1" Instrument="electroman lead"
				Note Time="10" Value="E2" Duration="1" Instrument="electroman lead"
				Note Time="14" Value="E2" Duration="1" Instrument="electroman lead"
			Pattern Name="Pattern 2" Color="3eb3f9"
				Note Time="4" Value="G2" Duration="1" Instrument="electroman lead"
				Note Time="8" Value="G2" Duration="1" Instrument="electroman lead"
			Pattern Name="Pattern 3" Color="fe5497"
				Note Time="0" Value="A1" Duration="1" Instrument="electroman lead"
				Note Time="4" Value="A1" Duration="1" Instrument="electroman lead"
				Note Time="10" Value="G2" Duration="1" Instrument="electroman lead"
				Note Time="14" Value="G2" Duration="1" Instrument="electroman lead"
			Pattern Name="Pattern 4" Color="ffb83c"
				Note Time="0" Value="C2" Duration="1" Instrument="electroman lead"
				Note Time="4" Value="B1" Duration="1" Instrument="electroman lead"
				Note Time="8" Value="B1" Duration="1" Instrument="electroman lead"
			Pattern Name="Pattern 5" Color="fffc69"
				Note Time="0" Value="A1" Duration="1" Instrument="electroman lead"
				Note Time="4" Value="A1" Duration="1" Instrument="electroman lead"
				Note Time="10" Value="E2" Duration="1" Instrument="electroman lead"
				Note Time="14" Value="E2" Duration="1" Instrument="electroman lead"
			Pattern Name="Pattern 6" Color="3ca598"
				Note Time="4" Value="C2" Duration="1" Instrument="electroman lead"
			Pattern Name="Pattern 7" Color="b5c2ff"
				Note Time="0" Value="A1" Duration="1" Instrument="electroman lead"
				Note Time="4" Value="A1" Duration="1" Instrument="electroman lead"
				Note Time="10" Value="B1" Duration="1" Instrument="electroman lead"
			Pattern Name="Pattern 8" Color="ff8f8c"
				Note Time="4" Value="G2" Duration="1" Instrument="electroman lead"
				Note Time="8" Value="G2" Duration="1" Instrument="electroman lead"
			Pattern Name="Pattern 9" Color="ffa83c"
				Note Time="0" Value="A1" Duration="1" Instrument="clutterfunk sax" FinePitch="5"
				Note Time="2" Value="A1" Duration="1" Instrument="clutterfunk sax"
				Note Time="6" Value="G1" Duration="1" Instrument="clutterfunk sax"
				Note Time="8" Value="G1" Duration="1" Instrument="clutterfunk sax"
				Note Time="12" Value="F1" Duration="1" Instrument="clutterfunk sax"
				Note Time="14" Value="F1" Duration="1" Instrument="clutterfunk sax"
			Pattern Name="Pattern 10" Color="eaffbd"
				Note Time="2" Value="E1" Duration="1" Instrument="clutterfunk sax"
				Note Time="4" Value="E1" Duration="1" Instrument="clutterfunk sax"
				Note Time="8" Value="C1" Duration="1" Instrument="clutterfunk sax"
				Note Time="10" Value="C1" Duration="1" Instrument="clutterfunk sax"
			Pattern Name="Pattern 11" Color="5dd2ff"
				Note Time="2" Value="E1" Duration="1" Instrument="clutterfunk sax"
				Note Time="4" Value="E1" Duration="1" Instrument="clutterfunk sax"
				Note Time="8" Value="C1" Duration="1" Instrument="clutterfunk sax"
				Note Time="10" Value="C4" Duration="5" Instrument="endgame lead" Volume="9" FinePitch="0"
				Note Time="11" Value="E4" Duration="5" Instrument="endgame lead"
				Note Time="12" Value="G4" Duration="14" Instrument="endgame lead"
			Pattern Name="Pattern 12" Color="ff579c"
				Note Time="10" Value="A3" Duration="6" Instrument="endgame lead"
				Note Time="11" Value="C4" Duration="6" Instrument="endgame lead"
				Note Time="12" Value="E4" Duration="11" Instrument="endgame lead"
			Pattern Name="Pattern 13" Color="ffc83c"
				Note Time="8" Value="C4" Duration="2" Instrument="endgame lead"
				Note Time="10" Value="E4" Duration="2" Instrument="endgame lead"
				Note Time="12" Value="C4" Duration="6" Instrument="endgame lead"
			Pattern Name="Pattern 14" Color="a4db74"
				Note Time="2" Value="A3" Duration="6" Instrument="endgame lead"
			Pattern Name="Pattern 15" Color="9a71ed"
				Note Time="0" Value="A3" Duration="2" Instrument="endgame lead"
				Note Time="2" Value="C4" Duration="2" Instrument="endgame lead"
				Note Time="4" Value="E4" Duration="2" Instrument="endgame lead"
				Note Time="6" Value="C4" Duration="2" Instrument="endgame lead"
				Note Time="8" Value="E4" Duration="9" Instrument="endgame lead"
				Note Time="10" Value="G4" Duration="9" Instrument="endgame lead"
				Note Time="12" Value="E4" Duration="10" Instrument="endgame lead"
			Pattern Name="Pattern 16" Color="a9887d"
				Note Time="8" Value="E4" Duration="2" Instrument="endgame lead"
				Note Time="10" Value="D4" Duration="2" Instrument="endgame lead"
				Note Time="12" Value="E4" Duration="4" Instrument="endgame lead"
			Pattern Name="Pattern 17" Color="fffc69"
				Note Time="0" Value="C4" Duration="2" Instrument="endgame lead"
				Note Time="2" Value="B3" Duration="2" Instrument="endgame lead"
				Note Time="4" Value="C4" Duration="4" Instrument="endgame lead"
				Note Time="8" Value="E4" Duration="2" Instrument="endgame lead"
				Note Time="10" Value="D4" Duration="2" Instrument="endgame lead"
				Note Time="12" Value="E4" Duration="4" Instrument="endgame lead"
			Pattern Name="Pattern 18" Color="3ca598"
				Note Time="4" Value="B3" Duration="4" Instrument="endgame lead"
				Note Time="8" Value="C4" Duration="4" Instrument="endgame lead"
				Note Time="12" Value="E4" Duration="4" Instrument="endgame lead"
			Pattern Name="Pattern 19" Color="b5c2ff"
				Note Time="0" Value="D4" Duration="4" Instrument="endgame lead"
				Note Time="4" Value="E4" Duration="2" Instrument="endgame lead"
				Note Time="7" Value="C4" Duration="2" Instrument="endgame lead"
				Note Time="10" Value="A3" Duration="2" Instrument="endgame lead"
			Pattern Name="Pattern 20" Color="5ac4ff"
				Note Time="0" Value="G4" Duration="2" Instrument="endgame lead"
				Note Time="4" Value="G4" Duration="2" Instrument="endgame lead"
				Note Time="6" Value="E4" Duration="2" Instrument="endgame lead"
				Note Time="10" Value="C4" Duration="2" Instrument="endgame lead"
				Note Time="14" Value="C4" Duration="2" Instrument="endgame lead"
			Pattern Name="Pattern 21" Color="fe5497"
				Note Time="2" Value="A3" Duration="2" Instrument="endgame lead"
				Note Time="4" Value="C4" Duration="2" Instrument="endgame lead"
				Note Time="8" Value="E4" Duration="2" Instrument="endgame lead"
				Note Time="12" Value="G4" Duration="2" Instrument="endgame lead"
			Pattern Name="Pattern 22" Color="ffb83c"
				Note Time="0" Value="G4" Duration="2" Instrument="endgame lead"
				Note Time="4" Value="E4" Duration="2" Instrument="endgame lead"
				Note Time="6" Value="C4" Duration="2" Instrument="endgame lead"
				Note Time="10" Value="A3" Duration="2" Instrument="endgame lead"
				Note Time="14" Value="A3" Duration="2" Instrument="endgame lead"
			Pattern Name="Pattern 23" Color="91c76b"
				Note Time="2" Value="G3" Duration="2" Instrument="endgame lead"
				Note Time="4" Value="A3" Duration="2" Instrument="endgame lead"
				Note Time="8" Value="E4" Duration="2" Instrument="endgame lead"
			Pattern Name="Pattern 24" Color="8bffff"
				Note Time="0" Value="E4" Duration="4" Instrument="endgame lead"
				Note Time="6" Value="D4" Duration="4" Instrument="endgame lead"
				Note Time="12" Value="C4" Duration="4" Instrument="endgame lead"
			Pattern Name="Pattern 25" Color="e783f8"
				Note Time="2" Value="B3" Duration="4" Instrument="endgame lead"
				Note Time="8" Value="A3" Duration="4" Instrument="endgame lead"
			Pattern Name="Pattern 26" Color="5dd2ff"
				Note Time="0" Value="E4" Duration="4" Instrument="endgame lead"
				Note Time="6" Value="D4" Duration="4" Instrument="endgame lead"
				Note Time="12" Value="C4" Duration="2" Instrument="endgame lead"
				Note Time="14" Value="D4" Duration="2" Instrument="endgame lead"
			Pattern Name="Pattern 28" Color="ff579c"
				Note Time="2" Value="B3" Duration="4" Instrument="endgame lead"
				Note Time="8" Value="A3" Duration="4" Instrument="endgame lead"
				Note Time="12" Value="A3" Duration="8" Instrument="jaezu lead" FinePitch="0"
			Pattern Name="Pattern 27" Color="5dd2ff"
				Note Time="0" Volume="7"
				Note Time="4" Value="G3" Duration="8" Instrument="jaezu lead"
				Note Time="12" Value="E3" Duration="8" Instrument="jaezu lead"
			Pattern Name="Pattern 29" Color="ffc83c"
				Note Time="4" Value="A2" Duration="8" Instrument="jaezu lead"
				Note Time="12" Value="C3" Duration="8" Instrument="jaezu lead"
			Pattern Name="Pattern 30" Color="a4db74"
				Note Time="4" Value="B2" Duration="8" Instrument="jaezu lead"
				Note Time="12" Value="G2" Duration="8" Instrument="jaezu lead"
			Pattern Name="Pattern 31" Color="3eb3f9"
				Note Time="4" Value="D2" Duration="8" Instrument="jaezu lead"
				Note Time="12" Value="E2" Duration="8" Instrument="jaezu lead"
			Pattern Name="Pattern 32" Color="88eb8c"
				Note Time="4" Value="A2" Duration="8" Instrument="jaezu lead"
				Note Time="12" Value="G2" Duration="4" Instrument="jaezu lead"
			Pattern Name="Pattern 33" Color="5ac4ff"
				Note Time="0" Value="A2" Duration="4" Instrument="jaezu lead"
				Note Time="4" Value="B2" Duration="4" Instrument="jaezu lead"
				Note Time="8" Value="C3" Duration="4" Instrument="jaezu lead"
				Note Time="12" Value="A3" Duration="8" Instrument="jaezu lead"
			Pattern Name="Pattern 34" Color="3fd7ff"
				Note Time="0" Value="A2" Duration="4" Instrument="jaezu lead"
				Note Time="4" Value="B2" Duration="4" Instrument="jaezu lead"
				Note Time="8" Value="C3" Duration="4" Instrument="jaezu lead"
			Pattern Name="Pattern 35" Color="ffb83c"
				Note Time="0" Value="A3" Duration="2" Instrument="hex guitar 2" Volume="6" FinePitch="1"
				Note Time="2" Value="D4" Duration="2" Instrument="hex guitar 2"
				Note Time="4" Value="E4" Duration="2" Instrument="hex guitar 2"
				Note Time="6" Value="B3" Duration="2" Instrument="hex guitar 2"
				Note Time="8" Value="C4" Duration="2" Instrument="hex guitar 2"
				Note Time="10" Value="G4" Duration="2" Instrument="hex guitar 2"
				Note Time="12" Value="C4" Duration="2" Instrument="hex guitar 2"
				Note Time="14" Value="E4" Duration="2" Instrument="hex guitar 2"
			Pattern Name="Pattern 36" Color="8bffff"
				Note Time="0" Value="C4" Duration="2" Instrument="hex guitar 2"
				Note Time="2" Value="E4" Duration="2" Instrument="hex guitar 2"
				Note Time="4" Value="F4" Duration="2" Instrument="hex guitar 2"
				Note Time="6" Value="C4" Duration="2" Instrument="hex guitar 2"
				Note Time="8" Value="B3" Duration="2" Instrument="hex guitar 2"
				Note Time="10" Value="G4" Duration="2" Instrument="hex guitar 2"
				Note Time="12" Value="A3" Duration="2" Instrument="hex guitar 2"
				Note Time="14" Value="C4" Duration="2" Instrument="hex guitar 2"
			Pattern Name="Pattern 55" Color="ffd43c"
				Note Time="0" Value="C4" Duration="2" Instrument="hex guitar 2"
				Note Time="2" Value="E4" Duration="2" Instrument="hex guitar 2"
				Note Time="4" Value="F4" Duration="2" Instrument="hex guitar 2"
				Note Time="6" Value="C4" Duration="2" Instrument="hex guitar 2"
				Note Time="8" Value="B3" Duration="2" Instrument="hex guitar 2"
				Note Time="10" Value="G4" Duration="2" Instrument="hex guitar 2"
			Pattern Name="Pattern 37" Color="fe5497"
				Note Time="0" Value="B3" Duration="2" Instrument="hex guitar 1"
				Note Time="4" Value="C4" Duration="2" Instrument="hex guitar 1"
				Note Time="10" Value="B3" Duration="2" Instrument="hex guitar 1"
			Pattern Name="Pattern 38" Color="91c76b"
				Note Time="0" Value="C4" Duration="2" Instrument="hex guitar 1"
				Note Time="4" Value="B3" Duration="2" Instrument="hex guitar 1"
				Note Time="8" Value="G3" Duration="2" Instrument="hex guitar 1"
			Pattern Name="Pattern 39" Color="e783f8"
				Note Time="0" Value="C4" Duration="2" Instrument="hex guitar 1"
				Note Time="4" Value="E4" Duration="2" Instrument="hex guitar 1"
				Note Time="8" Value="C4" Duration="2" Instrument="hex guitar 1"
			Pattern Name="Pattern 40" Color="8163dc"
				Note Time="4" Value="B3" Duration="2" Instrument="hex guitar 1"
				Note Time="8" Value="C4" Duration="2" Instrument="hex guitar 1"
				Note Time="14" Value="B3" Duration="2" Instrument="hex guitar 1"
			Pattern Name="Pattern 41" Color="ffffb2"
				Note Time="4" Value="C4" Duration="2" Instrument="hex guitar 1"
				Note Time="8" Value="B3" Duration="2" Instrument="hex guitar 1"
				Note Time="12" Value="G3" Duration="2" Instrument="hex guitar 1"
			Pattern Name="Pattern 42" Color="7b8df1"
				Note Time="4" Value="B3" Duration="2" Instrument="hex guitar 1"
				Note Time="8" Value="C4" Duration="2" Instrument="hex guitar 1"
				Note Time="14" Value="B3" Duration="2" Instrument="hex guitar 1"
			Pattern Name="Pattern 43" Color="ffef3c"
				Note Time="4" Value="C4" Duration="2" Instrument="hex guitar 1"
				Note Time="8" Value="B3" Duration="2" Instrument="hex guitar 1"
				Note Time="12" Value="G3" Duration="2" Instrument="hex guitar 1"
			Pattern Name="Pattern 44" Color="51a1fc"
				Note Time="4" Value="B3" Duration="2" Instrument="hex guitar 1"
				Note Time="8" Value="C4" Duration="2" Instrument="hex guitar 1"
				Note Time="14" Value="B3" Duration="2" Instrument="hex guitar 1"
			Pattern Name="Pattern 45" Color="fff389"
				Note Time="4" Value="C4" Duration="2" Instrument="hex guitar 1"
				Note Time="8" Value="E4" Duration="2" Instrument="hex guitar 1"
				Note Time="12" Value="C4" Duration="2" Instrument="hex guitar 1"
			Pattern Name="Pattern 46" Color="3fe5ff"
				Note Time="4" Value="B3" Duration="2" Instrument="hex guitar 1"
				Note Time="8" Value="C4" Duration="2" Instrument="hex guitar 1"
				Note Time="14" Value="B3" Duration="2" Instrument="hex guitar 1"
			Pattern Name="Pattern 47" Color="62e2d6"
				Note Time="0" FinePitch="-2" DutyCycle="3"
				Note Time="4" Value="B3" Duration="2" Instrument="clutterfunk sax"
				Note Time="8" Value="C4" Duration="2" Instrument="clutterfunk sax"
				Note Time="14" Value="B3" Duration="2" Instrument="clutterfunk sax"
			Pattern Name="Pattern 49" Color="ff7571"
				Note Time="4" Value="C4" Duration="2" Instrument="clutterfunk sax"
				Note Time="8" Value="B3" Duration="2" Instrument="clutterfunk sax"
				Note Time="12" Value="G3" Duration="2" Instrument="clutterfunk sax"
			Pattern Name="Pattern 50" Color="74ca78"
				Note Time="4" Value="B3" Duration="2" Instrument="clutterfunk sax"
				Note Time="8" Value="C4" Duration="2" Instrument="clutterfunk sax"
				Note Time="14" Value="B3" Duration="2" Instrument="clutterfunk sax"
			Pattern Name="Pattern 51" Color="ff9ece"
				Note Time="4" Value="C4" Duration="2" Instrument="clutterfunk sax"
				Note Time="8" Value="B3" Duration="2" Instrument="clutterfunk sax"
				Note Time="12" Value="G3" Duration="2" Instrument="clutterfunk sax"
			Pattern Name="Pattern 52" Color="d8ffa1"
				Note Time="4" Value="B3" Duration="2" Instrument="clutterfunk sax"
				Note Time="8" Value="C4" Duration="2" Instrument="clutterfunk sax"
				Note Time="14" Value="B3" Duration="2" Instrument="clutterfunk sax"
			Pattern Name="Pattern 53" Color="ca60e6"
				Note Time="4" Value="C4" Duration="2" Instrument="clutterfunk sax"
				Note Time="8" Value="E4" Duration="2" Instrument="clutterfunk sax"
				Note Time="12" Value="C4" Duration="2" Instrument="clutterfunk sax"
			Pattern Name="Pattern 54" Color="ebf067"
				Note Time="4" Value="B3" Duration="2" Instrument="clutterfunk sax"
				Note Time="8" Value="C4" Duration="2" Instrument="clutterfunk sax"
				Note Time="14" Value="B3" Duration="2" Instrument="clutterfunk sax"
			PatternInstance Time="1" Pattern="Pattern 1"
			PatternInstance Time="2" Pattern="Pattern 2"
			PatternInstance Time="3" Pattern="Pattern 3"
			PatternInstance Time="4" Pattern="Pattern 4"
			PatternInstance Time="5" Pattern="Pattern 5"
			PatternInstance Time="6" Pattern="Pattern 6"
			PatternInstance Time="7" Pattern="Pattern 7"
			PatternInstance Time="8" Pattern="Pattern 8"
			PatternInstance Time="9" Pattern="Pattern 1"
			PatternInstance Time="10" Pattern="Pattern 2"
			PatternInstance Time="11" Pattern="Pattern 3"
			PatternInstance Time="12" Pattern="Pattern 4"
			PatternInstance Time="13" Pattern="Pattern 5"
			PatternInstance Time="14" Pattern="Pattern 6"
			PatternInstance Time="15" Pattern="Pattern 7"
			PatternInstance Time="16" Pattern="Pattern 8"
			PatternInstance Time="17" Pattern="Pattern 1"
			PatternInstance Time="18" Pattern="Pattern 2"
			PatternInstance Time="19" Pattern="Pattern 3"
			PatternInstance Time="20" Pattern="Pattern 4"
			PatternInstance Time="21" Pattern="Pattern 5"
			PatternInstance Time="22" Pattern="Pattern 6"
			PatternInstance Time="23" Pattern="Pattern 7"
			PatternInstance Time="24" Pattern="Pattern 8"
			PatternInstance Time="25" Pattern="Pattern 1"
			PatternInstance Time="26" Pattern="Pattern 2"
			PatternInstance Time="27" Pattern="Pattern 3"
			PatternInstance Time="28" Pattern="Pattern 4"
			PatternInstance Time="29" Pattern="Pattern 5"
			PatternInstance Time="30" Pattern="Pattern 6"
			PatternInstance Time="31" Pattern="Pattern 7"
			PatternInstance Time="32" Pattern="Pattern 8"
			PatternInstance Time="33" Pattern="Pattern 1"
			PatternInstance Time="34" Pattern="Pattern 2"
			PatternInstance Time="35" Pattern="Pattern 3"
			PatternInstance Time="36" Pattern="Pattern 4"
			PatternInstance Time="37" Pattern="Pattern 5"
			PatternInstance Time="38" Pattern="Pattern 6"
			PatternInstance Time="39" Pattern="Pattern 7"
			PatternInstance Time="40" Pattern="Pattern 8"
			PatternInstance Time="41" Pattern="Pattern 9"
			PatternInstance Time="42" Pattern="Pattern 10"
			PatternInstance Time="43" Pattern="Pattern 9"
			PatternInstance Time="44" Pattern="Pattern 10"
			PatternInstance Time="45" Pattern="Pattern 9"
			PatternInstance Time="46" Pattern="Pattern 10"
			PatternInstance Time="47" Pattern="Pattern 9"
			PatternInstance Time="48" Pattern="Pattern 10"
			PatternInstance Time="49" Pattern="Pattern 9"
			PatternInstance Time="50" Pattern="Pattern 10"
			PatternInstance Time="51" Pattern="Pattern 9"
			PatternInstance Time="52" Pattern="Pattern 10"
			PatternInstance Time="53" Pattern="Pattern 9"
			PatternInstance Time="54" Pattern="Pattern 10"
			PatternInstance Time="55" Pattern="Pattern 9"
			PatternInstance Time="56" Pattern="Pattern 11"
			PatternInstance Time="57" Pattern="Pattern 12"
			PatternInstance Time="58" Pattern="Pattern 13"
			PatternInstance Time="59" Pattern="Pattern 14"
			PatternInstance Time="60" Pattern="Pattern 15"
			PatternInstance Time="61" Pattern="Pattern 16"
			PatternInstance Time="62" Pattern="Pattern 17"
			PatternInstance Time="63" Pattern="Pattern 18"
			PatternInstance Time="64" Pattern="Pattern 19"
			PatternInstance Time="65" Pattern="Pattern 20"
			PatternInstance Time="66" Pattern="Pattern 21"
			PatternInstance Time="67" Pattern="Pattern 22"
			PatternInstance Time="68" Pattern="Pattern 23"
			PatternInstance Time="69" Pattern="Pattern 24"
			PatternInstance Time="70" Pattern="Pattern 25"
			PatternInstance Time="71" Pattern="Pattern 26"
			PatternInstance Time="72" Pattern="Pattern 28"
			PatternInstance Time="73" Pattern="Pattern 27"
			PatternInstance Time="74" Pattern="Pattern 29"
			PatternInstance Time="75" Pattern="Pattern 30"
			PatternInstance Time="76" Pattern="Pattern 31"
			PatternInstance Time="77" Pattern="Pattern 32"
			PatternInstance Time="78" Pattern="Pattern 33"
			PatternInstance Time="79" Pattern="Pattern 32"
			PatternInstance Time="80" Pattern="Pattern 33"
			PatternInstance Time="81" Pattern="Pattern 27"
			PatternInstance Time="82" Pattern="Pattern 29"
			PatternInstance Time="83" Pattern="Pattern 30"
			PatternInstance Time="84" Pattern="Pattern 31"
			PatternInstance Time="85" Pattern="Pattern 32"
			PatternInstance Time="86" Pattern="Pattern 33"
			PatternInstance Time="87" Pattern="Pattern 32"
			PatternInstance Time="88" Pattern="Pattern 33"
			PatternInstance Time="89" Pattern="Pattern 27"
			PatternInstance Time="90" Pattern="Pattern 29"
			PatternInstance Time="91" Pattern="Pattern 30"
			PatternInstance Time="92" Pattern="Pattern 31"
			PatternInstance Time="93" Pattern="Pattern 32"
			PatternInstance Time="94" Pattern="Pattern 33"
			PatternInstance Time="95" Pattern="Pattern 32"
			PatternInstance Time="96" Pattern="Pattern 34"
			PatternInstance Time="98" Pattern="Pattern 1"
			PatternInstance Time="99" Pattern="Pattern 2"
			PatternInstance Time="100" Pattern="Pattern 3"
			PatternInstance Time="101" Pattern="Pattern 4"
			PatternInstance Time="102" Pattern="Pattern 5"
			PatternInstance Time="103" Pattern="Pattern 6"
			PatternInstance Time="104" Pattern="Pattern 7"
			PatternInstance Time="105" Pattern="Pattern 8"
			PatternInstance Time="106" Pattern="Pattern 1"
			PatternInstance Time="107" Pattern="Pattern 2"
			PatternInstance Time="108" Pattern="Pattern 3"
			PatternInstance Time="109" Pattern="Pattern 4"
			PatternInstance Time="110" Pattern="Pattern 5"
			PatternInstance Time="111" Pattern="Pattern 6"
			PatternInstance Time="112" Pattern="Pattern 7"
			PatternInstance Time="113" Pattern="Pattern 8"
			PatternInstance Time="114" Pattern="Pattern 35"
			PatternInstance Time="115" Pattern="Pattern 36"
			PatternInstance Time="116" Pattern="Pattern 35"
			PatternInstance Time="117" Pattern="Pattern 36"
			PatternInstance Time="118" Pattern="Pattern 35"
			PatternInstance Time="119" Pattern="Pattern 36"
			PatternInstance Time="120" Pattern="Pattern 35"
			PatternInstance Time="121" Pattern="Pattern 36"
			PatternInstance Time="122" Pattern="Pattern 35"
			PatternInstance Time="123" Pattern="Pattern 36"
			PatternInstance Time="124" Pattern="Pattern 35"
			PatternInstance Time="125" Pattern="Pattern 36"
			PatternInstance Time="126" Pattern="Pattern 35"
			PatternInstance Time="127" Pattern="Pattern 36"
			PatternInstance Time="128" Pattern="Pattern 35"
			PatternInstance Time="129" Pattern="Pattern 36"
			PatternInstance Time="130" Pattern="Pattern 35"
			PatternInstance Time="131" Pattern="Pattern 36"
			PatternInstance Time="132" Pattern="Pattern 35"
			PatternInstance Time="133" Pattern="Pattern 36"
			PatternInstance Time="134" Pattern="Pattern 35"
			PatternInstance Time="135" Pattern="Pattern 36"
			PatternInstance Time="136" Pattern="Pattern 35"
			PatternInstance Time="137" Pattern="Pattern 55"
			PatternInstance Time="138" Pattern="Pattern 37"
			PatternInstance Time="139" Pattern="Pattern 38"
			PatternInstance Time="140" Pattern="Pattern 37"
			PatternInstance Time="141" Pattern="Pattern 38"
			PatternInstance Time="142" Pattern="Pattern 37"
			PatternInstance Time="143" Pattern="Pattern 39"
			PatternInstance Time="144" Pattern="Pattern 37"
			PatternInstance Time="145" Pattern="Pattern 38"
			PatternInstance Time="146" Pattern="Pattern 37"
			PatternInstance Time="147" Pattern="Pattern 38"
			PatternInstance Time="148" Pattern="Pattern 37"
			PatternInstance Time="149" Pattern="Pattern 38"
			PatternInstance Time="150" Pattern="Pattern 37"
			PatternInstance Time="151" Pattern="Pattern 39"
			PatternInstance Time="152" Pattern="Pattern 37"
			PatternInstance Time="153" Pattern="Pattern 38"
			PatternInstance Time="155" Pattern="Pattern 40"
			PatternInstance Time="156" Pattern="Pattern 41"
			PatternInstance Time="157" Pattern="Pattern 42"
			PatternInstance Time="158" Pattern="Pattern 43"
			PatternInstance Time="159" Pattern="Pattern 44"
			PatternInstance Time="160" Pattern="Pattern 45"
			PatternInstance Time="161" Pattern="Pattern 46"
			PatternInstance Time="163" Pattern="Pattern 40"
			PatternInstance Time="164" Pattern="Pattern 41"
			PatternInstance Time="165" Pattern="Pattern 42"
			PatternInstance Time="166" Pattern="Pattern 43"
			PatternInstance Time="167" Pattern="Pattern 44"
			PatternInstance Time="168" Pattern="Pattern 45"
			PatternInstance Time="169" Pattern="Pattern 46"
			PatternInstance Time="170" Pattern="Pattern 43"
			PatternInstance Time="171" Pattern="Pattern 40"
			PatternInstance Time="172" Pattern="Pattern 41"
			PatternInstance Time="173" Pattern="Pattern 42"
			PatternInstance Time="174" Pattern="Pattern 43"
			PatternInstance Time="175" Pattern="Pattern 44"
			PatternInstance Time="176" Pattern="Pattern 45"
			PatternInstance Time="177" Pattern="Pattern 46"
			PatternInstance Time="178" Pattern="Pattern 43"
			PatternInstance Time="179" Pattern="Pattern 40"
			PatternInstance Time="180" Pattern="Pattern 41"
			PatternInstance Time="181" Pattern="Pattern 42"
			PatternInstance Time="182" Pattern="Pattern 43"
			PatternInstance Time="183" Pattern="Pattern 44"
			PatternInstance Time="184" Pattern="Pattern 45"
			PatternInstance Time="185" Pattern="Pattern 46"
			PatternInstance Time="186" Pattern="Pattern 43"
			PatternInstance Time="188" Pattern="Pattern 47"
			PatternInstance Time="189" Pattern="Pattern 49"
			PatternInstance Time="190" Pattern="Pattern 50"
			PatternInstance Time="191" Pattern="Pattern 51"
			PatternInstance Time="192" Pattern="Pattern 52"
			PatternInstance Time="193" Pattern="Pattern 53"
			PatternInstance Time="194" Pattern="Pattern 54"
			PatternInstance Time="195" Pattern="Pattern 51"
			PatternInstance Time="196" Pattern="Pattern 47"
			PatternInstance Time="197" Pattern="Pattern 49"
			PatternInstance Time="198" Pattern="Pattern 50"
			PatternInstance Time="199" Pattern="Pattern 51"
			PatternInstance Time="200" Pattern="Pattern 52"
			PatternInstance Time="201" Pattern="Pattern 53"
			PatternInstance Time="202" Pattern="Pattern 50"
			PatternInstance Time="203" Pattern="Pattern 51"
		Channel Type="Triangle"
			Pattern Name="Pattern 1" Color="3ca598"
				Note Time="0" Value="C5" Duration="12" Instrument="DMC: drums + bass"
				Note Time="12" Value="B4" Duration="12" Instrument="DMC: drums + bass"
			Pattern Name="Pattern 3" Color="ff8f8c"
			Pattern Name="Pattern 4" Color="ffff64"
				Note Time="0" Value="C5" Duration="12" Instrument="DMC: drums + bass"
				Note Time="12" Value="D5" Duration="15" Instrument="DMC: drums + bass"
			Pattern Name="Pattern 5" Color="88eb8c"
				Note Time="0" Value="C5" Duration="12" Instrument="DMC: drums + bass"
				Note Time="12" Value="E5" Duration="15" Instrument="DMC: drums + bass"
			Pattern Name="Pattern 6" Color="5ac4ff"
				Note Time="0" Value="A5" Duration="12" Instrument="DMC: drums + bass"
				Note Time="12" Value="G5" Duration="14" Instrument="DMC: drums + bass"
			Pattern Name="Pattern 7" Color="fe5497"
				Note Time="12" Value="C3" Duration="1" Instrument="rel hats"
				Note Time="14" Value="C3" Duration="1" Instrument="rel hats"
			Pattern Name="Pattern 2" Color="3cd3e3"
				Note Time="0" Value="C3" Duration="1" Instrument="rel hats"
				Note Time="2" Value="C3" Duration="1" Instrument="rel hats"
				Note Time="4" Value="C3" Duration="1" Instrument="rel hats"
				Note Time="6" Value="C3" Duration="1" Instrument="rel hats"
				Note Time="8" Value="C3" Duration="1" Instrument="rel hats"
				Note Time="10" Value="C3" Duration="1" Instrument="rel hats"
				Note Time="12" Value="C3" Duration="1" Instrument="rel hats"
				Note Time="14" Value="C3" Duration="1" Instrument="rel hats"
			Pattern Name="Pattern 8" Color="8163dc"
				Note Time="0" Value="C3" Duration="1" Instrument="rel hats"
				Note Time="2" Value="C3" Duration="1" Instrument="rel hats"
				Note Time="4" Value="B2" Duration="1" Instrument="rel hats"
				Note Time="6" Value="B2" Duration="1" Instrument="rel hats"
				Note Time="8" Value="C3" Duration="1" Instrument="rel hats"
				Note Time="10" Value="D3" Duration="1" Instrument="rel hats"
				Note Time="12" Value="C3" Duration="1" Instrument="rel hats"
				Note Time="14" Value="C3" Duration="1" Instrument="rel hats"
			Pattern Name="Pattern 9" Color="5dd2ff"
				Note Time="0" Value="C4" Duration="1" Instrument="rel hats"
				Note Time="2" Value="E4" Duration="1" Instrument="rel hats"
				Note Time="4" Value="G4" Duration="1" Instrument="rel hats"
				Note Time="6" Value="A4" Duration="1" Instrument="rel hats"
				Note Time="8" Value="A4" Duration="1" Instrument="rel hats"
				Note Time="10" Value="C4" Duration="1" Instrument="rel hats"
				Note Time="12" Value="E4" Duration="1" Instrument="rel hats"
				Note Time="14" Value="G4" Duration="1" Instrument="rel hats"
			Pattern Name="Pattern 10" Color="ff579c"
				Note Time="0" Value="C4" Duration="1" Instrument="rel hats"
				Note Time="2" Value="A4" Duration="1" Instrument="rel hats"
				Note Time="4" Value="A4" Duration="1" Instrument="rel hats"
				Note Time="6" Value="C4" Duration="1" Instrument="rel hats"
				Note Time="8" Value="E4" Duration="1" Instrument="rel hats"
				Note Time="10" Value="G4" Duration="1" Instrument="rel hats"
				Note Time="12" Value="C3" Duration="1" Instrument="rel hats"
				Note Time="14" Value="C3" Duration="1" Instrument="rel hats"
			Pattern Name="Pattern 11" Color="7b8df1"
				Note Time="12" Value="A4" Duration="8" Instrument="jaezu lead"
			Pattern Name="Pattern 27" Color="ffa83c"
				Note Time="0" Volume="11"
				Note Time="4" Value="G4" Duration="12" Instrument="jaezu lead"
				Note Time="12" Value="E4" Duration="12" Instrument="jaezu lead"
			Pattern Name="Pattern 29" Color="65f2ff"
				Note Time="4" Value="A3" Duration="12" Instrument="jaezu lead"
				Note Time="12" Value="C4" Duration="12" Instrument="jaezu lead"
			Pattern Name="Pattern 30" Color="ff935e"
				Note Time="4" Value="B3" Duration="12" Instrument="jaezu lead"
				Note Time="12" Value="G3" Duration="12" Instrument="jaezu lead"
			Pattern Name="Pattern 31" Color="3cd3e3"
				Note Time="4" Value="D3" Duration="12" Instrument="jaezu lead"
				Note Time="12" Value="E3" Duration="12" Instrument="jaezu lead"
			Pattern Name="Pattern 32" Color="8a706a"
				Note Time="4" Value="A3" Duration="12" Instrument="jaezu lead"
				Note Time="12" Value="G3" Duration="8" Instrument="jaezu lead"
			Pattern Name="Pattern 33" Color="62e2d6"
				Note Time="0" Value="A3" Duration="8" Instrument="jaezu lead"
				Note Time="4" Value="B3" Duration="8" Instrument="jaezu lead"
				Note Time="8" Value="C4" Duration="8" Instrument="jaezu lead"
				Note Time="12" Value="A4" Duration="12" Instrument="jaezu lead"
			Pattern Name="Pattern 34" Color="6c7bdb"
				Note Time="0" Value="A2" Duration="4" Instrument="jaezu lead"
				Note Time="4" Value="B2" Duration="4" Instrument="jaezu lead"
				Note Time="8" Value="C3" Duration="4" Instrument="jaezu lead"
			Pattern Name="Pattern 13" Color="ffa83c"
				Note Time="2" Value="A4" Duration="5" Instrument="jaezu lead"
				Note Time="3" Value="C5" Duration="5" Instrument="jaezu lead"
				Note Time="4" Value="F5" Duration="7" Instrument="jaezu lead"
				Note Time="7" Value="E5" Duration="7" Instrument="jaezu lead"
				Note Time="10" Value="C5" Duration="6" Instrument="jaezu lead"
				Note Time="12" Value="E5" Duration="14" Instrument="jaezu lead"
			Pattern Name="Pattern 14" Color="eaffbd"
				Note Time="10" Value="A4" Duration="2" Instrument="jaezu lead"
				Note Time="12" Value="E5" Duration="7" Instrument="jaezu lead"
			Pattern Name="Pattern 12" Color="d863ec"
				Note Time="3" Value="A4" Duration="1" Instrument="jaezu lead"
				Note Time="4" Value="G5" Duration="8" Instrument="jaezu lead"
				Note Time="12" Value="E5" Duration="12" Instrument="jaezu lead"
			Pattern Name="Pattern 15" Color="ca60e6"
				Note Time="11" Value="A4" Duration="1" Instrument="jaezu lead"
				Note Time="12" Value="E5" Duration="3" Instrument="jaezu lead"
				Note Time="15" Value="C5" Duration="3" Instrument="jaezu lead"
			Pattern Name="Pattern 16" Color="ff8d5a"
				Note Time="2" Value="B4" Duration="2" Instrument="jaezu lead"
				Note Time="4" Value="A4" Duration="2" Instrument="jaezu lead"
				Note Time="10" Value="E5" Duration="2" Instrument="jaezu lead"
				Note Time="12" Value="G5" Duration="2" Instrument="jaezu lead"
				Note Time="14" Value="E5" Duration="2" Instrument="jaezu lead"
			Pattern Name="Pattern 17" Color="ebf067"
				Note Time="2" Value="D5" Duration="2" Instrument="jaezu lead"
				Note Time="6" Value="B4" Duration="2" Instrument="jaezu lead"
				Note Time="10" Value="A4" Duration="2" Instrument="jaezu lead"
				Note Time="14" Value="E4" Duration="2" Instrument="jaezu lead"
			Pattern Name="Pattern 18" Color="3cbfcb"
				Note Time="0" Value="G4" Duration="2" Instrument="jaezu lead"
				Note Time="2" Value="A4" Duration="2" Instrument="jaezu lead"
				Note Time="6" Value="E5" Duration="2" Instrument="jaezu lead"
			Pattern Name="Pattern 19" Color="d1b1ff"
				Note Time="0" Value="E5" Duration="6" Instrument="jaezu lead"
				Note Time="6" Value="D5" Duration="6" Instrument="jaezu lead"
				Note Time="12" Value="C5" Duration="6" Instrument="jaezu lead"
			Pattern Name="Pattern 20" Color="ddc4bb"
				Note Time="2" Value="B4" Duration="6" Instrument="jaezu lead"
				Note Time="8" Value="A4" Duration="2" Instrument="jaezu lead"
				Note Time="12" Value="A4" Duration="2" Instrument="jaezu lead"
				Note Time="14" Value="B4" Duration="2" Instrument="jaezu lead"
			Pattern Name="Pattern 21" Color="a0f1ff"
				Note Time="0" Value="C5" Duration="2" Instrument="jaezu lead"
				Note Time="2" Value="A4" Duration="2" Instrument="jaezu lead"
				Note Time="4" Value="B4" Duration="2" Instrument="jaezu lead"
				Note Time="6" Value="C5" Duration="2" Instrument="jaezu lead"
				Note Time="8" Value="B4" Duration="2" Instrument="jaezu lead"
				Note Time="10" Value="C5" Duration="2" Instrument="jaezu lead"
				Note Time="12" Value="D5" Duration="2" Instrument="jaezu lead"
				Note Time="14" Value="B4" Duration="2" Instrument="jaezu lead"
			Pattern Name="Pattern 22" Color="ff7cb6"
				Note Time="0" Value="C5" Duration="2" Instrument="jaezu lead"
				Note Time="2" Value="D5" Duration="2" Instrument="jaezu lead"
				Note Time="4" Value="C5" Duration="2" Instrument="jaezu lead"
				Note Time="6" Value="D5" Duration="2" Instrument="jaezu lead"
				Note Time="8" Value="E5" Duration="2" Instrument="jaezu lead"
				Note Time="10" Value="G5" Duration="2" Instrument="jaezu lead"
				Note Time="12" Value="F5" Duration="2" Instrument="jaezu lead"
				Note Time="14" Value="E5" Duration="2" Instrument="jaezu lead"
			Pattern Name="Pattern 23" Color="ffe362"
				Note Time="0" Value="F5" Duration="2" Instrument="jaezu lead"
				Note Time="2" Value="D5" Duration="2" Instrument="jaezu lead"
				Note Time="4" Value="C5" Duration="2" Instrument="jaezu lead"
				Note Time="6" Value="D5" Duration="2" Instrument="jaezu lead"
				Note Time="8" Value="C5" Duration="2" Instrument="jaezu lead"
				Note Time="10" Value="B4" Duration="2" Instrument="jaezu lead"
				Note Time="12" Value="C5" Duration="2" Instrument="jaezu lead"
				Note Time="14" Value="B4" Duration="2" Instrument="jaezu lead"
			Pattern Name="Pattern 24" Color="c7ff86"
				Note Time="0" Value="A4" Duration="2" Instrument="jaezu lead"
				Note Time="2" Value="B4" Duration="2" Instrument="jaezu lead"
				Note Time="4" Value="D5" Duration="2" Instrument="jaezu lead"
				Note Time="6" Value="B4" Duration="2" Instrument="jaezu lead"
				Note Time="8" Value="C5" Duration="2" Instrument="jaezu lead"
				Note Time="10" Value="E5" Duration="2" Instrument="jaezu lead"
				Note Time="12" Value="D5" Duration="2" Instrument="jaezu lead"
				Note Time="14" Value="C5" Duration="2" Instrument="jaezu lead"
			Pattern Name="Pattern 25" Color="3fd7ff"
				Note Time="0" Value="D5" Duration="2" Instrument="jaezu lead"
				Note Time="2" Value="C5" Duration="2" Instrument="jaezu lead"
				Note Time="4" Value="B4" Duration="2" Instrument="jaezu lead"
				Note Time="6" Value="C5" Duration="2" Instrument="jaezu lead"
				Note Time="8" Value="D5" Duration="2" Instrument="jaezu lead"
				Note Time="10" Value="C5" Duration="2" Instrument="jaezu lead"
				Note Time="12" Value="C5" Duration="2" Instrument="jaezu lead"
				Note Time="14" Value="B4" Duration="2" Instrument="jaezu lead"
			Pattern Name="Pattern 26" Color="b75bde"
				Note Time="0" Value="A4" Duration="8" Instrument="jaezu lead"
			Pattern Name="Pattern 28" Color="dad960"
				Note Time="2" Value="B4" Duration="6" Instrument="jaezu lead"
				Note Time="8" Value="A4" Duration="6" Instrument="jaezu lead"
			Pattern Name="Pattern 35" Color="ff7f51"
				Note Time="0" Value="A4" Duration="1" Instrument="clutterfunk sax"
				Note Time="2" Value="A4" Duration="1" Instrument="clutterfunk sax"
				Note Time="4" Value="A4" Duration="1" Instrument="clutterfunk sax"
				Note Time="6" Value="A4" Duration="1" Instrument="clutterfunk sax"
				Note Time="8" Value="A4" Duration="1" Instrument="clutterfunk sax"
				Note Time="10" Value="A4" Duration="1" Instrument="clutterfunk sax"
				Note Time="12" Value="A4" Duration="1" Instrument="clutterfunk sax"
				Note Time="14" Value="A4" Duration="1" Instrument="clutterfunk sax"
			Pattern Name="Pattern 38" Color="ffafaf"
				Note Time="0" Value="A4" Duration="1" Instrument="clutterfunk sax"
				Note Time="2" Value="A4" Duration="1" Instrument="clutterfunk sax"
				Note Time="4" Value="A4" Duration="1" Instrument="clutterfunk sax"
				Note Time="6" Value="A4" Duration="1" Instrument="clutterfunk sax"
				Note Time="8" Value="A4" Duration="1" Instrument="clutterfunk sax"
				Note Time="10" Value="A4" Duration="1" Instrument="clutterfunk sax"
				Note Time="12" Value="F4" Duration="1" Instrument="clutterfunk sax"
				Note Time="14" Value="F4" Duration="1" Instrument="clutterfunk sax"
			Pattern Name="Pattern 37" Color="62ffff"
				Note Time="0" Value="F4" Duration="1" Instrument="clutterfunk sax"
				Note Time="2" Value="F4" Duration="1" Instrument="clutterfunk sax"
				Note Time="4" Value="F4" Duration="1" Instrument="clutterfunk sax"
				Note Time="6" Value="F4" Duration="1" Instrument="clutterfunk sax"
				Note Time="8" Value="F4" Duration="1" Instrument="clutterfunk sax"
				Note Time="10" Value="F4" Duration="1" Instrument="clutterfunk sax"
				Note Time="12" Value="F4" Duration="1" Instrument="clutterfunk sax"
				Note Time="14" Value="F4" Duration="1" Instrument="clutterfunk sax"
			Pattern Name="Pattern 39" Color="ffff8b"
				Note Time="0" Value="F4" Duration="1" Instrument="clutterfunk sax"
				Note Time="2" Value="F4" Duration="1" Instrument="clutterfunk sax"
				Note Time="4" Value="F4" Duration="1" Instrument="clutterfunk sax"
				Note Time="6" Value="F4" Duration="1" Instrument="clutterfunk sax"
				Note Time="8" Value="F4" Duration="1" Instrument="clutterfunk sax"
				Note Time="10" Value="F4" Duration="1" Instrument="clutterfunk sax"
				Note Time="12" Value="D4" Duration="1" Instrument="clutterfunk sax"
				Note Time="14" Value="D4" Duration="1" Instrument="clutterfunk sax"
			Pattern Name="Pattern 36" Color="3cb5a7"
				Note Time="0" Value="D4" Duration="1" Instrument="clutterfunk sax"
				Note Time="2" Value="D4" Duration="1" Instrument="clutterfunk sax"
				Note Time="4" Value="D4" Duration="1" Instrument="clutterfunk sax"
				Note Time="6" Value="D4" Duration="1" Instrument="clutterfunk sax"
				Note Time="8" Value="D4" Duration="1" Instrument="clutterfunk sax"
				Note Time="10" Value="D4" Duration="1" Instrument="clutterfunk sax"
				Note Time="12" Value="D4" Duration="1" Instrument="clutterfunk sax"
				Note Time="14" Value="D4" Duration="1" Instrument="clutterfunk sax"
			Pattern Name="Pattern 40" Color="a2f7a6"
				Note Time="0" Value="D4" Duration="1" Instrument="clutterfunk sax"
				Note Time="2" Value="D4" Duration="1" Instrument="clutterfunk sax"
				Note Time="4" Value="D4" Duration="1" Instrument="clutterfunk sax"
				Note Time="6" Value="D4" Duration="1" Instrument="clutterfunk sax"
				Note Time="8" Value="D4" Duration="1" Instrument="clutterfunk sax"
				Note Time="10" Value="D4" Duration="1" Instrument="clutterfunk sax"
				Note Time="12" Value="F4" Duration="1" Instrument="clutterfunk sax"
				Note Time="14" Value="F4" Duration="1" Instrument="clutterfunk sax"
			Pattern Name="Pattern 41" Color="fffc69"
				Note Time="0" Value="F4" Duration="1" Instrument="clutterfunk sax"
				Note Time="2" Value="F4" Duration="1" Instrument="clutterfunk sax"
				Note Time="4" Value="F4" Duration="1" Instrument="clutterfunk sax"
				Note Time="6" Value="F4" Duration="1" Instrument="clutterfunk sax"
				Note Time="8" Value="F4" Duration="1" Instrument="clutterfunk sax"
				Note Time="10" Value="F4" Duration="1" Instrument="clutterfunk sax"
				Note Time="12" Value="A4" Duration="1" Instrument="clutterfunk sax"
				Note Time="14" Value="A4" Duration="1" Instrument="clutterfunk sax"
			Pattern Name="Pattern 42" Color="ffff75"
				Note Time="0" Value="F4" Duration="1" Instrument="clutterfunk sax"
				Note Time="2" Value="F4" Duration="1" Instrument="clutterfunk sax"
				Note Time="4" Value="F4" Duration="1" Instrument="clutterfunk sax"
				Note Time="6" Value="F4" Duration="1" Instrument="clutterfunk sax"
				Note Time="8" Value="F4" Duration="1" Instrument="clutterfunk sax"
			Pattern Name="Pattern 43" Color="ff7cb6"
				Note Time="0" Value="A4" Duration="32" Instrument="cymbal" Arpeggio="Arp 7C"
			Pattern Name="Pattern 44" Color="a376f3"
				Note Time="0" Value="F4" Duration="32" Instrument="cymbal" Arpeggio="Arp 7C"
			Pattern Name="Pattern 48" Color="ffff71"
				Note Time="0" Value="D4" Duration="32" Instrument="cymbal" Arpeggio="Arp 7C"
			Pattern Name="Pattern 47" Color="3cb5a7"
				Note Time="0" Value="G4" Duration="33" Instrument="cymbal" Arpeggio="Arp 7C"
			Pattern Name="Pattern 61" Color="62ffff"
				Note Time="0" Volume="0"
				Note Time="15" Volume="11"
			Pattern Name="Pattern 45" Color="a2f7a6"
				Note Time="0" Value="A4" Duration="32" Instrument="cymbal" Arpeggio="Arp 7C"
			Pattern Name="Pattern 49" Color="ff579c"
				Note Time="0" Value="D5" Duration="32" Instrument="cymbal" Arpeggio="Arp 7C"
			Pattern Name="Pattern 51" Color="a4db74"
				Note Time="0" Value="C5" Duration="32" Instrument="cymbal" Arpeggio="Arp 7C"
			Pattern Name="Pattern 46" Color="88eb8c"
			Pattern Name="Pattern 53" Color="f6a4ff"
				Note Time="0" Value="G5" Duration="32" Instrument="cymbal" Arpeggio="Arp 7C"
			Pattern Name="Pattern 60" Color="b75bde"
				Note Time="0" Value="A3" Duration="2" Instrument="clutterfunk sax"
			Pattern Name="Pattern 50" Color="ffff75"
				Note Time="0" Value="A2" Duration="2" Instrument="clutterfunk sax"
				Note Time="4" Value="A3" Duration="2" Instrument="clutterfunk sax"
				Note Time="6" Value="A2" Duration="2" Instrument="DMC: drums + bass"
				Note Time="8" Value="A3" Duration="2" Instrument="DMC: drums + bass"
				Note Time="12" Value="A2" Duration="2" Instrument="clutterfunk sax"
				Note Time="14" Value="A3" Duration="2" Instrument="clutterfunk sax"
			Pattern Name="Pattern 52" Color="3ce8fd"
				Note Time="2" Value="A2" Duration="2" Instrument="clutterfunk sax"
				Note Time="4" Value="A3" Duration="2" Instrument="clutterfunk sax"
				Note Time="8" Value="A2" Duration="2" Instrument="clutterfunk sax"
				Note Time="12" Value="A3" Duration="2" Instrument="clutterfunk sax"
			Pattern Name="Pattern 54" Color="8d69e4"
				Note Time="0" Value="F2" Duration="2" Instrument="clutterfunk sax"
				Note Time="2" Value="F3" Duration="2" Instrument="clutterfunk sax"
				Note Time="6" Value="F2" Duration="2" Instrument="clutterfunk sax"
				Note Time="8" Value="F3" Duration="2" Instrument="clutterfunk sax"
				Note Time="12" Value="F2" Duration="2" Instrument="clutterfunk sax"
				Note Time="14" Value="F3" Duration="2" Instrument="clutterfunk sax"
			Pattern Name="Pattern 55" Color="997c73"
				Note Time="2" Value="F2" Duration="2" Instrument="clutterfunk sax"
				Note Time="4" Value="F3" Duration="2" Instrument="clutterfunk sax"
				Note Time="8" Value="F2" Duration="2" Instrument="clutterfunk sax"
				Note Time="12" Value="F3" Duration="2" Instrument="clutterfunk sax"
			Pattern Name="Pattern 56" Color="ffe461"
				Note Time="0" Value="D2" Duration="2" Instrument="clutterfunk sax"
				Note Time="2" Value="D3" Duration="2" Instrument="clutterfunk sax"
				Note Time="6" Value="D2" Duration="2" Instrument="clutterfunk sax"
				Note Time="8" Value="D3" Duration="2" Instrument="clutterfunk sax"
				Note Time="12" Value="D2" Duration="2" Instrument="clutterfunk sax"
				Note Time="14" Value="D3" Duration="2" Instrument="clutterfunk sax"
			Pattern Name="Pattern 57" Color="89f2e8"
				Note Time="2" Value="D2" Duration="2" Instrument="clutterfunk sax"
				Note Time="4" Value="D3" Duration="2" Instrument="clutterfunk sax"
				Note Time="8" Value="D2" Duration="2" Instrument="clutterfunk sax"
				Note Time="12" Value="D3" Duration="2" Instrument="clutterfunk sax"
			Pattern Name="Pattern 58" Color="98a7fc"
				Note Time="0" Value="G2" Duration="2" Instrument="clutterfunk sax"
				Note Time="2" Value="G3" Duration="2" Instrument="clutterfunk sax"
				Note Time="6" Value="G2" Duration="2" Instrument="clutterfunk sax"
				Note Time="8" Value="G3" Duration="2" Instrument="clutterfunk sax"
				Note Time="12" Value="G2" Duration="2" Instrument="clutterfunk sax"
				Note Time="14" Value="G3" Duration="2" Instrument="clutterfunk sax"
			Pattern Name="Pattern 59" Color="ff7f72"
				Note Time="2" Value="G2" Duration="2" Instrument="clutterfunk sax"
				Note Time="4" Value="G3" Duration="2" Instrument="clutterfunk sax"
				Note Time="8" Value="G2" Duration="2" Instrument="clutterfunk sax"
				Note Time="12" Value="G3" Duration="2" Instrument="clutterfunk sax"
			PatternInstance Time="17" Pattern="Pattern 1"
			PatternInstance Time="18" Pattern="Pattern 3"
			PatternInstance Time="19" Pattern="Pattern 4"
			PatternInstance Time="21" Pattern="Pattern 5"
			PatternInstance Time="23" Pattern="Pattern 6"
			PatternInstance Time="25" Pattern="Pattern 1"
			PatternInstance Time="26" Pattern="Pattern 3"
			PatternInstance Time="27" Pattern="Pattern 4"
			PatternInstance Time="29" Pattern="Pattern 5"
			PatternInstance Time="31" Pattern="Pattern 6"
			PatternInstance Time="33" Pattern="Pattern 1"
			PatternInstance Time="34" Pattern="Pattern 3"
			PatternInstance Time="35" Pattern="Pattern 4"
			PatternInstance Time="37" Pattern="Pattern 5"
			PatternInstance Time="39" Pattern="Pattern 6"
			PatternInstance Time="40" Pattern="Pattern 7"
			PatternInstance Time="41" Pattern="Pattern 2"
			PatternInstance Time="42" Pattern="Pattern 8"
			PatternInstance Time="43" Pattern="Pattern 2"
			PatternInstance Time="44" Pattern="Pattern 8"
			PatternInstance Time="45" Pattern="Pattern 2"
			PatternInstance Time="46" Pattern="Pattern 8"
			PatternInstance Time="47" Pattern="Pattern 2"
			PatternInstance Time="48" Pattern="Pattern 8"
			PatternInstance Time="49" Pattern="Pattern 9"
			PatternInstance Time="50" Pattern="Pattern 10"
			PatternInstance Time="51" Pattern="Pattern 9"
			PatternInstance Time="52" Pattern="Pattern 10"
			PatternInstance Time="53" Pattern="Pattern 9"
			PatternInstance Time="54" Pattern="Pattern 10"
			PatternInstance Time="55" Pattern="Pattern 9"
			PatternInstance Time="56" Pattern="Pattern 10"
			PatternInstance Time="57" Pattern="Pattern 9"
			PatternInstance Time="58" Pattern="Pattern 10"
			PatternInstance Time="59" Pattern="Pattern 9"
			PatternInstance Time="60" Pattern="Pattern 10"
			PatternInstance Time="61" Pattern="Pattern 9"
			PatternInstance Time="62" Pattern="Pattern 10"
			PatternInstance Time="63" Pattern="Pattern 9"
			PatternInstance Time="64" Pattern="Pattern 10"
			PatternInstance Time="65" Pattern="Pattern 9"
			PatternInstance Time="66" Pattern="Pattern 10"
			PatternInstance Time="67" Pattern="Pattern 9"
			PatternInstance Time="68" Pattern="Pattern 10"
			PatternInstance Time="69" Pattern="Pattern 9"
			PatternInstance Time="70" Pattern="Pattern 10"
			PatternInstance Time="71" Pattern="Pattern 9"
			PatternInstance Time="72" Pattern="Pattern 10"
			PatternInstance Time="80" Pattern="Pattern 11"
			PatternInstance Time="81" Pattern="Pattern 27"
			PatternInstance Time="82" Pattern="Pattern 29"
			PatternInstance Time="83" Pattern="Pattern 30"
			PatternInstance Time="84" Pattern="Pattern 31"
			PatternInstance Time="85" Pattern="Pattern 32"
			PatternInstance Time="86" Pattern="Pattern 33"
			PatternInstance Time="87" Pattern="Pattern 32"
			PatternInstance Time="88" Pattern="Pattern 33"
			PatternInstance Time="89" Pattern="Pattern 27"
			PatternInstance Time="90" Pattern="Pattern 29"
			PatternInstance Time="91" Pattern="Pattern 30"
			PatternInstance Time="92" Pattern="Pattern 31"
			PatternInstance Time="93" Pattern="Pattern 32"
			PatternInstance Time="94" Pattern="Pattern 33"
			PatternInstance Time="95" Pattern="Pattern 32"
			PatternInstance Time="96" Pattern="Pattern 34"
			PatternInstance Time="98" Pattern="Pattern 1"
			PatternInstance Time="99" Pattern="Pattern 3"
			PatternInstance Time="100" Pattern="Pattern 4"
			PatternInstance Time="102" Pattern="Pattern 5"
			PatternInstance Time="104" Pattern="Pattern 6"
			PatternInstance Time="106" Pattern="Pattern 1"
			PatternInstance Time="107" Pattern="Pattern 3"
			PatternInstance Time="108" Pattern="Pattern 4"
			PatternInstance Time="110" Pattern="Pattern 5"
			PatternInstance Time="112" Pattern="Pattern 6"
			PatternInstance Time="113" Pattern="Pattern 7"
			PatternInstance Time="114" Pattern="Pattern 9"
			PatternInstance Time="115" Pattern="Pattern 10"
			PatternInstance Time="116" Pattern="Pattern 9"
			PatternInstance Time="117" Pattern="Pattern 10"
			PatternInstance Time="118" Pattern="Pattern 9"
			PatternInstance Time="119" Pattern="Pattern 10"
			PatternInstance Time="120" Pattern="Pattern 9"
			PatternInstance Time="121" Pattern="Pattern 13"
			PatternInstance Time="122" Pattern="Pattern 14"
			PatternInstance Time="123" Pattern="Pattern 12"
			PatternInstance Time="124" Pattern="Pattern 15"
			PatternInstance Time="125" Pattern="Pattern 16"
			PatternInstance Time="126" Pattern="Pattern 17"
			PatternInstance Time="127" Pattern="Pattern 18"
			PatternInstance Time="128" Pattern="Pattern 19"
			PatternInstance Time="129" Pattern="Pattern 20"
			PatternInstance Time="130" Pattern="Pattern 21"
			PatternInstance Time="131" Pattern="Pattern 22"
			PatternInstance Time="132" Pattern="Pattern 23"
			PatternInstance Time="133" Pattern="Pattern 24"
			PatternInstance Time="134" Pattern="Pattern 25"
			PatternInstance Time="135" Pattern="Pattern 26"
			PatternInstance Time="136" Pattern="Pattern 19"
			PatternInstance Time="137" Pattern="Pattern 28"
			PatternInstance Time="138" Pattern="Pattern 35"
			PatternInstance Time="139" Pattern="Pattern 38"
			PatternInstance Time="140" Pattern="Pattern 37"
			PatternInstance Time="141" Pattern="Pattern 39"
			PatternInstance Time="142" Pattern="Pattern 36"
			PatternInstance Time="143" Pattern="Pattern 40"
			PatternInstance Time="144" Pattern="Pattern 37"
			PatternInstance Time="145" Pattern="Pattern 41"
			PatternInstance Time="146" Pattern="Pattern 35"
			PatternInstance Time="147" Pattern="Pattern 38"
			PatternInstance Time="148" Pattern="Pattern 37"
			PatternInstance Time="149" Pattern="Pattern 39"
			PatternInstance Time="150" Pattern="Pattern 36"
			PatternInstance Time="151" Pattern="Pattern 40"
			PatternInstance Time="152" Pattern="Pattern 37"
			PatternInstance Time="153" Pattern="Pattern 42"
			PatternInstance Time="155" Pattern="Pattern 43"
			PatternInstance Time="157" Pattern="Pattern 44"
			PatternInstance Time="159" Pattern="Pattern 48"
			PatternInstance Time="161" Pattern="Pattern 47"
			PatternInstance Time="162" Pattern="Pattern 61"
			PatternInstance Time="163" Pattern="Pattern 43"
			PatternInstance Time="165" Pattern="Pattern 44"
			PatternInstance Time="167" Pattern="Pattern 48"
			PatternInstance Time="169" Pattern="Pattern 47"
			PatternInstance Time="171" Pattern="Pattern 43"
			PatternInstance Time="173" Pattern="Pattern 44"
			PatternInstance Time="175" Pattern="Pattern 48"
			PatternInstance Time="177" Pattern="Pattern 47"
			PatternInstance Time="179" Pattern="Pattern 45"
			PatternInstance Time="181" Pattern="Pattern 49"
			PatternInstance Time="183" Pattern="Pattern 51"
			PatternInstance Time="184" Pattern="Pattern 46"
			PatternInstance Time="185" Pattern="Pattern 53"
			PatternInstance Time="187" Pattern="Pattern 60"
			PatternInstance Time="188" Pattern="Pattern 50"
			PatternInstance Time="189" Pattern="Pattern 52"
			PatternInstance Time="190" Pattern="Pattern 54"
			PatternInstance Time="191" Pattern="Pattern 55"
			PatternInstance Time="192" Pattern="Pattern 56"
			PatternInstance Time="193" Pattern="Pattern 57"
			PatternInstance Time="194" Pattern="Pattern 58"
			PatternInstance Time="195" Pattern="Pattern 59"
			PatternInstance Time="196" Pattern="Pattern 50"
			PatternInstance Time="197" Pattern="Pattern 52"
			PatternInstance Time="198" Pattern="Pattern 54"
			PatternInstance Time="199" Pattern="Pattern 55"
			PatternInstance Time="200" Pattern="Pattern 56"
			PatternInstance Time="201" Pattern="Pattern 57"
			PatternInstance Time="202" Pattern="Pattern 54"
			PatternInstance Time="203" Pattern="Pattern 55"
		Channel Type="Noise"
			Pattern Name="Pattern 1" Color="b5c2ff"
				Note Time="0" Value="A3" Duration="3" Instrument="cymbal"
			Pattern Name="Pattern 5" Color="ffff93"
				Note Time="12" Value="A3" Duration="3" Instrument="cymbal"
				Note Time="15" Value="C5" Duration="1" Instrument="rel hats"
			Pattern Name="Pattern 2" Color="9a71ed"
				Note Time="0" Value="G4" Duration="2" Instrument="cymbal"
				Note Time="2" Value="C5" Duration="1" Instrument="rel hats"
				Note Time="4" Value="C5" Duration="1" Instrument="rel hats"
				Note Time="7" Value="C5" Duration="1" Instrument="rel hats"
				Note Time="9" Value="C5" Duration="1" Instrument="rel hats"
				Note Time="10" Value="C5" Duration="1" Instrument="rel hats"
				Note Time="11" Value="C5" Duration="1" Instrument="rel hats"
				Note Time="13" Value="C5" Duration="1" Instrument="rel hats"
				Note Time="15" Value="C5" Duration="1" Instrument="rel hats"
			Pattern Name="Pattern 3" Color="a9887d"
				Note Time="1" Value="C5" Duration="1" Instrument="rel hats"
				Note Time="2" Value="C5" Duration="1" Instrument="rel hats"
				Note Time="4" Value="C5" Duration="1" Instrument="rel hats"
				Note Time="6" Value="C5" Duration="1" Instrument="rel hats"
				Note Time="7" Value="C5" Duration="1" Instrument="rel hats"
				Note Time="9" Value="C5" Duration="1" Instrument="rel hats"
				Note Time="11" Value="C5" Duration="1" Instrument="rel hats"
				Note Time="12" Value="C5" Duration="1" Instrument="rel hats"
				Note Time="13" Value="C5" Duration="1" Instrument="rel hats"
				Note Time="14" Value="C5" Duration="1" Instrument="rel hats"
				Note Time="15" Value="C5" Duration="1" Instrument="rel hats"
			Pattern Name="Pattern 4" Color="ff579c"
				Note Time="0" Value="C5" Duration="1" Instrument="rel hats"
				Note Time="3" Value="C5" Duration="1" Instrument="rel hats"
				Note Time="4" Value="C5" Duration="1" Instrument="rel hats"
				Note Time="6" Value="C5" Duration="1" Instrument="rel hats"
				Note Time="8" Value="C5" Duration="1" Instrument="rel hats"
				Note Time="11" Value="C5" Duration="1" Instrument="rel hats"
				Note Time="14" Value="C5" Duration="1" Instrument="rel hats"
				Note Time="15" Value="C5" Duration="1" Instrument="rel hats"
			Pattern Name="Pattern 6" Color="ffc83c"
				Note Time="3" Value="C#5" Duration="1" Instrument="rel hats"
				Note Time="6" Value="C#5" Duration="1" Instrument="rel hats"
				Note Time="7" Value="C#5" Duration="1" Instrument="rel hats"
				Note Time="8" Value="C#5" Duration="1" Instrument="rel hats"
				Note Time="9" Value="C#5" Duration="1" Instrument="rel hats"
			Pattern Name="Pattern 7" Color="a4db74"
				Note Time="0" Value="G4" Duration="1" Instrument="cymbal" Volume="8"
				Note Time="1" Value="C#5" Duration="1" Instrument="rel hats" Volume="15"
				Note Time="3" Value="C#5" Duration="1" Instrument="rel hats"
				Note Time="5" Value="C#5" Duration="1" Instrument="rel hats"
				Note Time="7" Value="C#5" Duration="1" Instrument="rel hats"
				Note Time="10" Value="C#5" Duration="1" Instrument="rel hats"
				Note Time="12" Value="C#5" Duration="1" Instrument="rel hats"
				Note Time="13" Value="C#5" Duration="1" Instrument="rel hats"
				Note Time="14" Value="C#5" Duration="1" Instrument="rel hats"
				Note Time="15" Value="C#5" Duration="1" Instrument="rel hats"
			Pattern Name="Pattern 8" Color="f6a4ff"
				Note Time="1" Value="C#5" Duration="1" Instrument="rel hats"
				Note Time="3" Value="C#5" Duration="1" Instrument="rel hats"
				Note Time="5" Value="C#5" Duration="1" Instrument="rel hats"
				Note Time="6" Value="C#5" Duration="1" Instrument="rel hats"
				Note Time="7" Value="C#5" Duration="1" Instrument="rel hats"
				Note Time="8" Value="C#5" Duration="1" Instrument="rel hats"
			Pattern Name="Pattern 9" Color="9a71ed"
				Note Time="0" Value="G4" Duration="3" Instrument="cymbal" Volume="9"
				Note Time="3" Value="C#5" Duration="1" Instrument="rel hats" Volume="15"
				Note Time="4" Value="C#5" Duration="1" Instrument="rel hats"
				Note Time="5" Value="C#5" Duration="1" Instrument="rel hats"
				Note Time="8" Value="C#5" Duration="1" Instrument="rel hats"
				Note Time="11" Value="C#5" Duration="1" Instrument="rel hats"
				Note Time="12" Value="C#5" Duration="1" Instrument="rel hats"
				Note Time="14" Value="C#5" Duration="1" Instrument="rel hats"
			Pattern Name="Pattern 10" Color="a9887d"
				Note Time="0" Value="C#5" Duration="1" Instrument="rel hats"
				Note Time="2" Value="C#5" Duration="1" Instrument="rel hats"
				Note Time="4" Value="C#5" Duration="1" Instrument="rel hats"
				Note Time="5" Value="C#5" Duration="1" Instrument="rel hats"
				Note Time="6" Value="C#5" Duration="1" Instrument="rel hats"
				Note Time="7" Value="C#5" Duration="1" Instrument="rel hats"
				Note Time="8" Value="C#5" Duration="1" Instrument="rel hats"
			Pattern Name="Pattern 12" Color="7b8df1"
				Note Time="0" Value="G4" Duration="2" Instrument="cymbal"
				Note Time="2" Value="C#5" Duration="1" Instrument="rel hats"
				Note Time="3" Value="C#5" Duration="1" Instrument="rel hats"
				Note Time="5" Value="C#5" Duration="1" Instrument="rel hats"
				Note Time="6" Value="C#5" Duration="1" Instrument="rel hats"
				Note Time="7" Value="C#5" Duration="1" Instrument="rel hats"
				Note Time="9" Value="C#5" Duration="1" Instrument="rel hats"
				Note Time="11" Value="C#5" Duration="1" Instrument="rel hats"
				Note Time="13" Value="C#5" Duration="1" Instrument="rel hats"
				Note Time="15" Value="C#5" Duration="1" Instrument="rel hats"
			Pattern Name="Pattern 11" Color="997c73"
				Note Time="0" Value="C#5" Duration="1" Instrument="rel hats"
				Note Time="2" Value="C#5" Duration="1" Instrument="rel hats"
				Note Time="3" Value="C#5" Duration="1" Instrument="rel hats"
				Note Time="5" Value="C#5" Duration="1" Instrument="rel hats"
				Note Time="6" Value="C#5" Duration="1" Instrument="rel hats"
				Note Time="7" Value="C#5" Duration="1" Instrument="rel hats"
				Note Time="9" Value="C#5" Duration="1" Instrument="rel hats"
				Note Time="11" Value="C#5" Duration="1" Instrument="rel hats"
				Note Time="13" Value="C#5" Duration="1" Instrument="rel hats"
				Note Time="15" Value="C#5" Duration="1" Instrument="rel hats"
			Pattern Name="Pattern 13" Color="9a71ed"
				Note Time="0" Value="C#5" Duration="1" Instrument="rel hats"
				Note Time="2" Value="C#5" Duration="1" Instrument="rel hats"
				Note Time="3" Value="C#5" Duration="1" Instrument="rel hats"
				Note Time="5" Value="C#5" Duration="1" Instrument="rel hats"
				Note Time="6" Value="C#5" Duration="1" Instrument="rel hats"
				Note Time="7" Value="C#5" Duration="1" Instrument="rel hats"
				Note Time="9" Value="C#5" Duration="1" Instrument="rel hats"
				Note Time="11" Value="C#5" Duration="1" Instrument="rel hats"
				Note Time="12" Value="G4" Duration="2" Instrument="cymbal"
				Note Time="14" Value="C#5" Duration="1" Instrument="rel hats"
			Pattern Name="Pattern 14" Color="a9887d"
				Note Time="1" Value="C#5" Duration="1" Instrument="rel hats"
				Note Time="4" Value="C#5" Duration="1" Instrument="rel hats"
				Note Time="5" Value="C#5" Duration="1" Instrument="rel hats"
				Note Time="6" Value="C#5" Duration="1" Instrument="rel hats"
				Note Time="7" Value="C#5" Duration="1" Instrument="rel hats"
				Note Time="9" Value="C#5" Duration="1" Instrument="rel hats"
				Note Time="10" Value="C#5" Duration="1" Instrument="rel hats"
				Note Time="11" Value="C#5" Duration="1" Instrument="rel hats"
				Note Time="12" Value="C#5" Duration="1" Instrument="rel hats"
				Note Time="14" Value="C#5" Duration="1" Instrument="rel hats"
			Pattern Name="Pattern 15" Color="ff8655"
				Note Time="0" Value="C#5" Duration="4" Instrument="rel hats"
				Note Time="4" Value="C#5" Duration="1" Instrument="rel hats"
				Note Time="5" Value="C#5" Duration="1" Instrument="rel hats"
				Note Time="7" Value="C#5" Duration="1" Instrument="rel hats"
				Note Time="10" Value="C#5" Duration="1" Instrument="rel hats"
				Note Time="11" Value="C#5" Duration="1" Instrument="rel hats"
				Note Time="13" Value="C#5" Duration="1" Instrument="rel hats"
				Note Time="15" Value="C#5" Duration="1" Instrument="rel hats"
			Pattern Name="Pattern 17" Color="dad960"
				Note Time="1" Value="C#5" Duration="1" Instrument="rel hats"
				Note Time="3" Value="C#5" Duration="1" Instrument="rel hats"
				Note Time="5" Value="C#5" Duration="1" Instrument="rel hats"
				Note Time="7" Value="C#5" Duration="1" Instrument="rel hats"
				Note Time="9" Value="C#5" Duration="1" Instrument="rel hats"
				Note Time="10" Value="C#5" Duration="1" Instrument="rel hats"
				Note Time="13" Value="C#5" Duration="1" Instrument="rel hats"
				Note Time="15" Value="C#5" Duration="1" Instrument="rel hats"
			Pattern Name="Pattern 30" Color="89ffff"
				Note Time="1" Value="C#5" Duration="1" Instrument="rel hats"
				Note Time="2" Value="C#5" Duration="1" Instrument="rel hats"
				Note Time="4" Value="C#5" Duration="1" Instrument="rel hats"
				Note Time="7" Value="C#5" Duration="1" Instrument="rel hats"
				Note Time="8" Value="C#5" Duration="1" Instrument="rel hats"
				Note Time="9" Value="C#5" Duration="1" Instrument="rel hats"
				Note Time="11" Value="C#5" Duration="1" Instrument="rel hats"
				Note Time="12" Value="C#5" Duration="1" Instrument="rel hats"
			Pattern Name="Pattern 31" Color="ba93fe"
				Note Time="0" Value="C#5" Duration="1" Instrument="rel hats"
				Note Time="3" Value="C#5" Duration="1" Instrument="rel hats"
				Note Time="4" Value="C#5" Duration="1" Instrument="rel hats"
				Note Time="5" Value="C#5" Duration="1" Instrument="rel hats"
				Note Time="7" Value="C#5" Duration="1" Instrument="rel hats"
				Note Time="9" Value="C#5" Duration="1" Instrument="rel hats"
				Note Time="11" Value="C#5" Duration="1" Instrument="rel hats"
				Note Time="12" Value="C#5" Duration="1" Instrument="rel hats"
			Pattern Name="Pattern 18" Color="ff7f72"
				Note Time="2" Value="C#5" Duration="1" Instrument="rel hats"
				Note Time="3" Value="C#5" Duration="1" Instrument="rel hats"
				Note Time="6" Value="C#5" Duration="1" Instrument="rel hats"
				Note Time="8" Value="C#5" Duration="1" Instrument="rel hats"
				Note Time="10" Value="C#5" Duration="1" Instrument="rel hats"
				Note Time="11" Value="C#5" Duration="1" Instrument="rel hats"
				Note Time="12" Value="C#5" Duration="1" Instrument="rel hats"
				Note Time="15" Value="C#5" Duration="1" Instrument="rel hats"
			Pattern Name="Pattern 16" Color="91c76b"
				Note Time="2" Value="C#5" Duration="1" Instrument="rel hats"
				Note Time="4" Value="C#5" Duration="1" Instrument="rel hats"
				Note Time="5" Value="C#5" Duration="1" Instrument="rel hats"
				Note Time="8" Value="C#5" Duration="1" Instrument="rel hats"
				Note Time="9" Value="C#5" Duration="1" Instrument="rel hats"
				Note Time="11" Value="C#5" Duration="1" Instrument="rel hats"
				Note Time="13" Value="C#5" Duration="1" Instrument="rel hats"
				Note Time="15" Value="C#5" Duration="1" Instrument="rel hats"
			Pattern Name="Pattern 32" Color="ffcb3c"
				Note Time="1" Value="C#5" Duration="1" Instrument="rel hats"
				Note Time="3" Value="C#5" Duration="1" Instrument="rel hats"
				Note Time="5" Value="C#5" Duration="1" Instrument="rel hats"
				Note Time="6" Value="C#5" Duration="1" Instrument="rel hats"
				Note Time="8" Value="C#5" Duration="1" Instrument="rel hats"
				Note Time="9" Value="C#5" Duration="1" Instrument="rel hats"
				Note Time="11" Value="C#5" Duration="1" Instrument="rel hats"
				Note Time="12" Value="G3" Duration="4" Instrument="cymbal"
			Pattern Name="Pattern 19" Color="ff8d5a"
				Note Time="0" Value="G3" Duration="4" Instrument="cymbal" Volume="9"
				Note Time="4" Value="G3" Duration="4" Instrument="cymbal"
				Note Time="8" Value="G3" Duration="4" Instrument="cymbal"
				Note Time="12" Value="G3" Duration="4" Instrument="cymbal"
			Pattern Name="Pattern 21" Color="a0f1ff"
				Note Time="0" Value="G0" Duration="1" Instrument="clap"
				Note Time="2" Value="G0" Duration="1" Instrument="clap"
				Note Time="4" Value="G0" Duration="1" Instrument="clap"
				Note Time="6" Value="G0" Duration="1" Instrument="clap"
				Note Time="8" Value="G0" Duration="1" Instrument="clap"
				Note Time="10" Value="G0" Duration="1" Instrument="clap"
				Note Time="12" Value="C#1" Duration="1" Instrument="clap"
				Note Time="13" Value="C#1" Duration="1" Instrument="clap"
				Note Time="14" Value="C#1" Duration="1" Instrument="clap"
				Note Time="15" Value="G1" Duration="1" Instrument="clap"
			Pattern Name="Pattern 33" Color="7ee1ff"
				Note Time="0" Value="C#5" Duration="1" Instrument="rel hats"
				Note Time="2" Value="C#5" Duration="1" Instrument="rel hats"
				Note Time="4" Value="C#5" Duration="1" Instrument="rel hats"
				Note Time="5" Value="C#5" Duration="1" Instrument="rel hats"
				Note Time="6" Value="C#5" Duration="1" Instrument="rel hats"
				Note Time="7" Value="C#5" Duration="1" Instrument="rel hats"
				Note Time="8" Value="C#5" Duration="1" Instrument="rel hats"
				Note Time="12" Value="G4" Duration="4" Instrument="cymbal"
			Pattern Name="Pattern 20" Color="9a71ed"
				Note Time="0" Value="A5" Duration="2" Instrument="clap"
				Note Time="2" Value="C#5" Duration="2" Instrument="rel hats"
				Note Time="4" Value="E5" Duration="2" Instrument="triangle pluck 3"
				Note Time="6" Value="C#5" Duration="2" Instrument="rel hats"
				Note Time="8" Value="A5" Duration="2" Instrument="clap"
				Note Time="10" Value="C#5" Duration="2" Instrument="rel hats"
				Note Time="12" Value="E5" Duration="2" Instrument="triangle pluck 3"
				Note Time="14" Value="C#5" Duration="2" Instrument="rel hats"
			Pattern Name="Pattern 34" Color="ff5a9f"
				Note Time="0" Value="A5" Duration="4" Instrument="clap"
				Note Time="2" Value="C#5" Duration="4" Instrument="rel hats"
				Note Time="4" Value="E5" Duration="4" Instrument="triangle pluck 3"
				Note Time="6" Value="C#5" Duration="4" Instrument="rel hats"
				Note Time="8" Value="A5" Duration="4" Instrument="clap"
				Note Time="12" Value="G4" Duration="4" Instrument="cymbal"
			Pattern Name="Pattern 22" Color="ffd43c"
				Note Time="0" Volume="7"
				Note Time="4" Value="C#5" Duration="1" Instrument="rel hats" Volume="15"
				Note Time="6" Value="C#5" Duration="1" Instrument="rel hats"
				Note Time="8" Value="C#5" Duration="1" Instrument="rel hats"
				Note Time="10" Value="C#5" Duration="1" Instrument="rel hats"
				Note Time="13" Value="C#5" Duration="1" Instrument="rel hats"
			Pattern Name="Pattern 23" Color="b8ef7e"
				Note Time="0" Value="C#5" Duration="1" Instrument="rel hats"
				Note Time="3" Value="C#5" Duration="1" Instrument="rel hats"
				Note Time="6" Value="C#5" Duration="1" Instrument="rel hats"
				Note Time="8" Value="C#5" Duration="1" Instrument="rel hats"
				Note Time="12" Value="C#5" Duration="1" Instrument="rel hats"
			Pattern Name="Pattern 24" Color="a4db74"
				Note Time="0" Value="C#5" Duration="4" Instrument="rel hats"
				Note Time="4" Value="C#5" Duration="4" Instrument="rel hats"
				Note Time="8" Value="C#5" Duration="4" Instrument="rel hats"
				Note Time="12" Value="A5" Duration="4" Instrument="cymbal"
			Pattern Name="Pattern 25" Color="3eb3f9"
				Note Time="0" Value="G5" Duration="4" Instrument="clap"
				Note Time="4" Value="G5" Duration="4" Instrument="clap"
				Note Time="8" Value="G5" Duration="4" Instrument="clap"
				Note Time="12" Value="G5" Duration="4" Instrument="clap"
			Pattern Name="Pattern 26" Color="997c73"
				Note Time="0" Value="G5" Duration="4" Instrument="clap"
				Note Time="4" Value="G5" Duration="4" Instrument="clap"
				Note Time="8" Value="G5" Duration="4" Instrument="clap"
			Pattern Name="Pattern 27" Color="6c7bdb"
				Note Time="0" Value="G5" Duration="1" Instrument="blank instant decay"
				Note Time="2" Value="G5" Duration="1" Instrument="blank instant decay"
				Note Time="4" Value="G5" Duration="1" Instrument="blank instant decay"
				Note Time="5" Value="G5" Duration="1" Instrument="blank instant decay"
				Note Time="6" Value="G5" Duration="1" Instrument="blank instant decay"
			Pattern Name="Pattern 28" Color="7ee1ff"
				Note Time="0" Value="G5" Duration="4" Instrument="clap"
				Note Time="4" Value="G5" Duration="4" Instrument="clap"
				Note Time="8" Value="G5" Duration="1" Instrument="cymbal"
				Note Time="9" Value="G5" Duration="1" Instrument="cymbal"
				Note Time="10" Value="G5" Duration="1" Instrument="cymbal"
				Note Time="12" Value="G5" Duration="4" Instrument="cymbal"
			Pattern Name="Pattern 29" Color="55b2ff"
				Note Time="0" Value="G3" Duration="20" Instrument="cymbal"
			Pattern Name="Pattern 35" Color="3eb3f9"
				Note Time="0" Value="G3" Duration="1" Instrument="rel hats" Volume="1"
				Note Time="1" Value="G3" Duration="1" Instrument="rel hats"
				Note Time="2" Value="G3" Duration="1" Instrument="rel hats"
				Note Time="3" Value="G3" Duration="1" Instrument="rel hats"
				Note Time="4" Value="G3" Duration="1" Instrument="rel hats"
				Note Time="5" Value="G3" Duration="1" Instrument="rel hats"
				Note Time="6" Value="G3" Duration="1" Instrument="rel hats" Volume="2"
				Note Time="7" Value="G3" Duration="1" Instrument="rel hats"
				Note Time="8" Value="G3" Duration="1" Instrument="rel hats"
				Note Time="9" Value="G3" Duration="1" Instrument="rel hats"
				Note Time="10" Value="G3" Duration="1" Instrument="rel hats"
				Note Time="11" Value="G3" Duration="1" Instrument="rel hats"
				Note Time="12" Value="G3" Duration="1" Instrument="rel hats"
				Note Time="13" Value="G3" Duration="1" Instrument="rel hats"
				Note Time="14" Value="G3" Duration="1" Instrument="rel hats"
				Note Time="15" Value="G3" Duration="1" Instrument="rel hats"
			Pattern Name="Pattern 36" Color="f6a4ff"
				Note Time="0" Value="G3" Duration="1" Instrument="rel hats"
				Note Time="1" Value="G3" Duration="1" Instrument="rel hats" Volume="3"
				Note Time="2" Value="G3" Duration="1" Instrument="rel hats"
				Note Time="3" Value="G3" Duration="1" Instrument="rel hats"
				Note Time="4" Value="G3" Duration="1" Instrument="rel hats"
				Note Time="5" Value="G3" Duration="1" Instrument="rel hats"
				Note Time="6" Value="G3" Duration="1" Instrument="rel hats"
				Note Time="7" Value="G3" Duration="1" Instrument="rel hats"
				Note Time="8" Value="G3" Duration="1" Instrument="rel hats"
				Note Time="9" Value="G3" Duration="1" Instrument="rel hats"
				Note Time="10" Value="G3" Duration="1" Instrument="rel hats"
				Note Time="11" Value="G3" Duration="1" Instrument="rel hats"
				Note Time="12" Value="G3" Duration="1" Instrument="rel hats" Volume="4"
				Note Time="13" Value="G3" Duration="1" Instrument="rel hats"
				Note Time="14" Value="G3" Duration="1" Instrument="rel hats"
				Note Time="15" Value="G3" Duration="1" Instrument="rel hats"
			Pattern Name="Pattern 37" Color="ffc6a1"
				Note Time="0" Value="G3" Duration="1" Instrument="rel hats"
				Note Time="1" Value="G3" Duration="1" Instrument="rel hats"
				Note Time="2" Value="G3" Duration="1" Instrument="rel hats"
				Note Time="3" Value="G3" Duration="1" Instrument="rel hats"
				Note Time="4" Value="G3" Duration="1" Instrument="rel hats"
				Note Time="5" Value="G3" Duration="1" Instrument="rel hats"
				Note Time="6" Value="G3" Duration="1" Instrument="rel hats" Volume="5"
				Note Time="7" Value="G3" Duration="1" Instrument="rel hats"
				Note Time="8" Value="G3" Duration="1" Instrument="rel hats"
				Note Time="9" Value="G3" Duration="1" Instrument="rel hats"
				Note Time="10" Value="G3" Duration="1" Instrument="rel hats"
				Note Time="11" Value="G3" Duration="1" Instrument="rel hats"
				Note Time="12" Value="G3" Duration="1" Instrument="rel hats"
				Note Time="13" Value="G3" Duration="1" Instrument="rel hats"
				Note Time="14" Value="G3" Duration="1" Instrument="rel hats"
				Note Time="15" Value="G3" Duration="1" Instrument="rel hats"
			Pattern Name="Pattern 38" Color="ffff93"
				Note Time="0" Value="G3" Duration="1" Instrument="rel hats"
				Note Time="1" Value="G3" Duration="1" Instrument="rel hats"
				Note Time="2" Value="G3" Duration="1" Instrument="rel hats" Volume="6"
				Note Time="3" Value="G3" Duration="1" Instrument="rel hats"
				Note Time="4" Value="G3" Duration="1" Instrument="rel hats"
				Note Time="5" Value="G3" Duration="1" Instrument="rel hats"
				Note Time="6" Value="G3" Duration="1" Instrument="rel hats"
				Note Time="7" Value="G3" Duration="1" Instrument="rel hats"
				Note Time="8" Value="G3" Duration="1" Instrument="rel hats"
				Note Time="9" Value="G3" Duration="1" Instrument="rel hats"
				Note Time="10" Value="G3" Duration="1" Instrument="rel hats"
				Note Time="11" Value="G3" Duration="1" Instrument="rel hats"
				Note Time="12" Value="G3" Duration="1" Instrument="rel hats" Volume="7"
				Note Time="13" Value="G3" Duration="1" Instrument="rel hats"
				Note Time="14" Value="G3" Duration="1" Instrument="rel hats"
				Note Time="15" Value="G3" Duration="1" Instrument="rel hats"
			Pattern Name="Pattern 39" Color="3cf8ff"
				Note Time="0" Value="G4" Duration="16" Instrument="cymbal" Volume="15"
			PatternInstance Time="1" Pattern="Pattern 1"
			PatternInstance Time="3" Pattern="Pattern 1"
			PatternInstance Time="5" Pattern="Pattern 1"
			PatternInstance Time="7" Pattern="Pattern 1"
			PatternInstance Time="8" Pattern="Pattern 5"
			PatternInstance Time="9" Pattern="Pattern 2"
			PatternInstance Time="10" Pattern="Pattern 3"
			PatternInstance Time="11" Pattern="Pattern 4"
			PatternInstance Time="12" Pattern="Pattern 6"
			PatternInstance Time="13" Pattern="Pattern 7"
			PatternInstance Time="14" Pattern="Pattern 8"
			PatternInstance Time="15" Pattern="Pattern 9"
			PatternInstance Time="16" Pattern="Pattern 10"
			PatternInstance Time="17" Pattern="Pattern 2"
			PatternInstance Time="18" Pattern="Pattern 3"
			PatternInstance Time="19" Pattern="Pattern 4"
			PatternInstance Time="20" Pattern="Pattern 6"
			PatternInstance Time="21" Pattern="Pattern 7"
			PatternInstance Time="22" Pattern="Pattern 8"
			PatternInstance Time="23" Pattern="Pattern 9"
			PatternInstance Time="24" Pattern="Pattern 10"
			PatternInstance Time="25" Pattern="Pattern 2"
			PatternInstance Time="26" Pattern="Pattern 3"
			PatternInstance Time="27" Pattern="Pattern 4"
			PatternInstance Time="28" Pattern="Pattern 6"
			PatternInstance Time="29" Pattern="Pattern 7"
			PatternInstance Time="30" Pattern="Pattern 8"
			PatternInstance Time="31" Pattern="Pattern 9"
			PatternInstance Time="32" Pattern="Pattern 10"
			PatternInstance Time="33" Pattern="Pattern 2"
			PatternInstance Time="34" Pattern="Pattern 3"
			PatternInstance Time="35" Pattern="Pattern 4"
			PatternInstance Time="36" Pattern="Pattern 6"
			PatternInstance Time="37" Pattern="Pattern 7"
			PatternInstance Time="38" Pattern="Pattern 8"
			PatternInstance Time="39" Pattern="Pattern 9"
			PatternInstance Time="40" Pattern="Pattern 10"
			PatternInstance Time="41" Pattern="Pattern 12"
			PatternInstance Time="42" Pattern="Pattern 11"
			PatternInstance Time="43" Pattern="Pattern 11"
			PatternInstance Time="44" Pattern="Pattern 11"
			PatternInstance Time="45" Pattern="Pattern 11"
			PatternInstance Time="46" Pattern="Pattern 11"
			PatternInstance Time="47" Pattern="Pattern 11"
			PatternInstance Time="48" Pattern="Pattern 11"
			PatternInstance Time="49" Pattern="Pattern 11"
			PatternInstance Time="50" Pattern="Pattern 11"
			PatternInstance Time="51" Pattern="Pattern 11"
			PatternInstance Time="52" Pattern="Pattern 11"
			PatternInstance Time="53" Pattern="Pattern 11"
			PatternInstance Time="54" Pattern="Pattern 11"
			PatternInstance Time="55" Pattern="Pattern 11"
			PatternInstance Time="56" Pattern="Pattern 11"
			PatternInstance Time="57" Pattern="Pattern 11"
			PatternInstance Time="58" Pattern="Pattern 11"
			PatternInstance Time="59" Pattern="Pattern 11"
			PatternInstance Time="60" Pattern="Pattern 11"
			PatternInstance Time="61" Pattern="Pattern 11"
			PatternInstance Time="62" Pattern="Pattern 11"
			PatternInstance Time="63" Pattern="Pattern 11"
			PatternInstance Time="64" Pattern="Pattern 11"
			PatternInstance Time="65" Pattern="Pattern 11"
			PatternInstance Time="66" Pattern="Pattern 11"
			PatternInstance Time="67" Pattern="Pattern 11"
			PatternInstance Time="68" Pattern="Pattern 11"
			PatternInstance Time="69" Pattern="Pattern 11"
			PatternInstance Time="70" Pattern="Pattern 11"
			PatternInstance Time="71" Pattern="Pattern 11"
			PatternInstance Time="72" Pattern="Pattern 13"
			PatternInstance Time="73" Pattern="Pattern 14"
			PatternInstance Time="74" Pattern="Pattern 15"
			PatternInstance Time="75" Pattern="Pattern 17"
			PatternInstance Time="76" Pattern="Pattern 30"
			PatternInstance Time="77" Pattern="Pattern 31"
			PatternInstance Time="78" Pattern="Pattern 18"
			PatternInstance Time="79" Pattern="Pattern 16"
			PatternInstance Time="80" Pattern="Pattern 32"
			PatternInstance Time="81" Pattern="Pattern 14"
			PatternInstance Time="82" Pattern="Pattern 15"
			PatternInstance Time="83" Pattern="Pattern 17"
			PatternInstance Time="84" Pattern="Pattern 30"
			PatternInstance Time="85" Pattern="Pattern 31"
			PatternInstance Time="86" Pattern="Pattern 18"
			PatternInstance Time="87" Pattern="Pattern 16"
			PatternInstance Time="88" Pattern="Pattern 32"
			PatternInstance Time="89" Pattern="Pattern 19"
			PatternInstance Time="90" Pattern="Pattern 19"
			PatternInstance Time="91" Pattern="Pattern 19"
			PatternInstance Time="92" Pattern="Pattern 19"
			PatternInstance Time="93" Pattern="Pattern 19"
			PatternInstance Time="94" Pattern="Pattern 19"
			PatternInstance Time="95" Pattern="Pattern 19"
			PatternInstance Time="96" Pattern="Pattern 19"
			PatternInstance Time="97" Pattern="Pattern 21"
			PatternInstance Time="98" Pattern="Pattern 2"
			PatternInstance Time="99" Pattern="Pattern 3"
			PatternInstance Time="100" Pattern="Pattern 4"
			PatternInstance Time="101" Pattern="Pattern 6"
			PatternInstance Time="102" Pattern="Pattern 7"
			PatternInstance Time="103" Pattern="Pattern 8"
			PatternInstance Time="104" Pattern="Pattern 9"
			PatternInstance Time="105" Pattern="Pattern 10"
			PatternInstance Time="106" Pattern="Pattern 2"
			PatternInstance Time="107" Pattern="Pattern 3"
			PatternInstance Time="108" Pattern="Pattern 4"
			PatternInstance Time="109" Pattern="Pattern 6"
			PatternInstance Time="110" Pattern="Pattern 7"
			PatternInstance Time="111" Pattern="Pattern 8"
			PatternInstance Time="112" Pattern="Pattern 9"
			PatternInstance Time="113" Pattern="Pattern 33"
			PatternInstance Time="114" Pattern="Pattern 20"
			PatternInstance Time="115" Pattern="Pattern 20"
			PatternInstance Time="116" Pattern="Pattern 20"
			PatternInstance Time="117" Pattern="Pattern 20"
			PatternInstance Time="118" Pattern="Pattern 20"
			PatternInstance Time="119" Pattern="Pattern 20"
			PatternInstance Time="120" Pattern="Pattern 20"
			PatternInstance Time="121" Pattern="Pattern 20"
			PatternInstance Time="122" Pattern="Pattern 20"
			PatternInstance Time="123" Pattern="Pattern 20"
			PatternInstance Time="124" Pattern="Pattern 20"
			PatternInstance Time="125" Pattern="Pattern 20"
			PatternInstance Time="126" Pattern="Pattern 20"
			PatternInstance Time="127" Pattern="Pattern 20"
			PatternInstance Time="128" Pattern="Pattern 20"
			PatternInstance Time="129" Pattern="Pattern 20"
			PatternInstance Time="130" Pattern="Pattern 20"
			PatternInstance Time="131" Pattern="Pattern 20"
			PatternInstance Time="132" Pattern="Pattern 20"
			PatternInstance Time="133" Pattern="Pattern 20"
			PatternInstance Time="134" Pattern="Pattern 20"
			PatternInstance Time="135" Pattern="Pattern 20"
			PatternInstance Time="136" Pattern="Pattern 20"
			PatternInstance Time="137" Pattern="Pattern 34"
			PatternInstance Time="138" Pattern="Pattern 22"
			PatternInstance Time="139" Pattern="Pattern 23"
			PatternInstance Time="140" Pattern="Pattern 22"
			PatternInstance Time="141" Pattern="Pattern 23"
			PatternInstance Time="142" Pattern="Pattern 22"
			PatternInstance Time="143" Pattern="Pattern 23"
			PatternInstance Time="144" Pattern="Pattern 22"
			PatternInstance Time="145" Pattern="Pattern 24"
			PatternInstance Time="146" Pattern="Pattern 25"
			PatternInstance Time="147" Pattern="Pattern 25"
			PatternInstance Time="148" Pattern="Pattern 25"
			PatternInstance Time="149" Pattern="Pattern 25"
			PatternInstance Time="150" Pattern="Pattern 25"
			PatternInstance Time="151" Pattern="Pattern 25"
			PatternInstance Time="152" Pattern="Pattern 25"
			PatternInstance Time="153" Pattern="Pattern 26"
			PatternInstance Time="154" Pattern="Pattern 27"
			PatternInstance Time="155" Pattern="Pattern 25"
			PatternInstance Time="156" Pattern="Pattern 25"
			PatternInstance Time="157" Pattern="Pattern 25"
			PatternInstance Time="158" Pattern="Pattern 25"
			PatternInstance Time="159" Pattern="Pattern 25"
			PatternInstance Time="160" Pattern="Pattern 25"
			PatternInstance Time="161" Pattern="Pattern 25"
			PatternInstance Time="162" Pattern="Pattern 28"
			PatternInstance Time="163" Pattern="Pattern 25"
			PatternInstance Time="164" Pattern="Pattern 25"
			PatternInstance Time="165" Pattern="Pattern 25"
			PatternInstance Time="166" Pattern="Pattern 25"
			PatternInstance Time="167" Pattern="Pattern 25"
			PatternInstance Time="168" Pattern="Pattern 25"
			PatternInstance Time="169" Pattern="Pattern 25"
			PatternInstance Time="170" Pattern="Pattern 25"
			PatternInstance Time="171" Pattern="Pattern 25"
			PatternInstance Time="172" Pattern="Pattern 25"
			PatternInstance Time="173" Pattern="Pattern 25"
			PatternInstance Time="174" Pattern="Pattern 25"
			PatternInstance Time="175" Pattern="Pattern 25"
			PatternInstance Time="176" Pattern="Pattern 25"
			PatternInstance Time="177" Pattern="Pattern 25"
			PatternInstance Time="178" Pattern="Pattern 25"
			PatternInstance Time="179" Pattern="Pattern 25"
			PatternInstance Time="180" Pattern="Pattern 25"
			PatternInstance Time="181" Pattern="Pattern 25"
			PatternInstance Time="182" Pattern="Pattern 25"
			PatternInstance Time="183" Pattern="Pattern 25"
			PatternInstance Time="184" Pattern="Pattern 25"
			PatternInstance Time="185" Pattern="Pattern 25"
			PatternInstance Time="186" Pattern="Pattern 25"
			PatternInstance Time="187" Pattern="Pattern 29"
			PatternInstance Time="200" Pattern="Pattern 35"
			PatternInstance Time="201" Pattern="Pattern 36"
			PatternInstance Time="202" Pattern="Pattern 37"
			PatternInstance Time="203" Pattern="Pattern 38"
			PatternInstance Time="204" Pattern="Pattern 39"
		Channel Type="DPCM"
			Pattern Name="Pattern 1" Color="ffc6a1"
				Note Time="0" Value="A3" Duration="4" Instrument="DMC: drums + bass"
				Note Time="4" Value="A3" Duration="6" Instrument="DMC: drums + bass"
				Note Time="10" Value="E4" Duration="4" Instrument="DMC: drums + bass"
				Note Time="14" Value="E4" Duration="6" Instrument="DMC: drums + bass"
			Pattern Name="Pattern 2" Color="3cf8ff"
				Note Time="4" Value="G4" Duration="3" Instrument="DMC: drums + bass"
				Note Time="8" Value="G4" Duration="1" Instrument="DMC: drums + bass"
			Pattern Name="Pattern 3" Color="88eb8c"
				Note Time="0" Value="A3" Duration="4" Instrument="DMC: drums + bass"
				Note Time="4" Value="A3" Duration="4" Instrument="DMC: drums + bass"
				Note Time="8" Value="A3" Duration="2" Instrument="DMC: drums + bass"
				Note Time="10" Value="G4" Duration="4" Instrument="DMC: drums + bass"
				Note Time="14" Value="G4" Duration="2" Instrument="DMC: drums + bass"
			Pattern Name="Pattern 4" Color="5ac4ff"
				Note Time="0" Value="C4" Duration="4" Instrument="DMC: drums + bass"
				Note Time="4" Value="B3" Duration="3" Instrument="DMC: drums + bass"
				Note Time="8" Value="B3" Duration="1" Instrument="DMC: drums + bass"
			Pattern Name="Pattern 7" Color="ffff64"
				Note Time="0" Value="A3" Duration="4" Instrument="DMC: drums + bass"
				Note Time="4" Value="A3" Duration="6" Instrument="DMC: drums + bass"
				Note Time="10" Value="E4" Duration="4" Instrument="DMC: drums + bass"
				Note Time="14" Value="E4" Duration="6" Instrument="DMC: drums + bass"
			Pattern Name="Pattern 8" Color="88eb8c"
				Note Time="4" Value="C4" Duration="8" Instrument="DMC: drums + bass"
			Pattern Name="Pattern 9" Color="5ac4ff"
				Note Time="0" Value="A3" Duration="4" Instrument="DMC: drums + bass"
				Note Time="4" Value="A3" Duration="6" Instrument="DMC: drums + bass"
				Note Time="10" Value="B3" Duration="10" Instrument="DMC: drums + bass"
			Pattern Name="Pattern 10" Color="fe5497"
				Note Time="4" Value="G4" Duration="3" Instrument="DMC: drums + bass"
				Note Time="8" Value="G4" Duration="1" Instrument="DMC: drums + bass"
				Note Time="12" Value="E5" Duration="1" Instrument="DMC: drums + bass"
				Note Time="14" Value="E5" Duration="1" Instrument="DMC: drums + bass"
			Pattern Name="Pattern 5" Color="f6a4ff"
				Note Time="0" Value="F5" Duration="1" Instrument="DMC: drums + bass"
				Note Time="3" Value="F5" Duration="1" Instrument="DMC: drums + bass"
				Note Time="5" Value="F5" Duration="1" Instrument="DMC: drums + bass"
				Note Time="6" Value="E5" Duration="1" Instrument="DMC: drums + bass"
				Note Time="8" Value="F5" Duration="1" Instrument="DMC: drums + bass"
				Note Time="12" Value="E5" Duration="1" Instrument="DMC: drums + bass"
				Note Time="14" Value="E5" Duration="1" Instrument="DMC: drums + bass"
			Pattern Name="Pattern 6" Color="ffc6a1"
				Note Time="0" Value="F5" Duration="1" Instrument="DMC: drums + bass"
				Note Time="2" Value="E5" Duration="1" Instrument="DMC: drums + bass"
				Note Time="3" Value="F5" Duration="1" Instrument="DMC: drums + bass"
				Note Time="5" Value="F5" Duration="1" Instrument="DMC: drums + bass"
				Note Time="6" Value="F5" Duration="1" Instrument="DMC: drums + bass"
				Note Time="8" Value="E5" Duration="1" Instrument="DMC: drums + bass"
				Note Time="9" Value="E5" Duration="1" Instrument="DMC: drums + bass"
				Note Time="10" Value="F5" Duration="1" Instrument="DMC: drums + bass"
				Note Time="12" Value="E5" Duration="1" Instrument="DMC: drums + bass"
				Note Time="13" Value="E5" Duration="1" Instrument="DMC: drums + bass"
				Note Time="14" Value="E5" Duration="1" Instrument="DMC: drums + bass"
				Note Time="15" Value="E5" Duration="1" Instrument="DMC: drums + bass"
			Pattern Name="Pattern 11" Color="8bffff"
				Note Time="0" Value="F5" Duration="1" Instrument="DMC: drums + bass"
				Note Time="3" Value="F5" Duration="1" Instrument="DMC: drums + bass"
				Note Time="4" Value="E5" Duration="1" Instrument="DMC: drums + bass"
				Note Time="5" Value="F5" Duration="1" Instrument="DMC: drums + bass"
				Note Time="7" Value="F5" Duration="1" Instrument="DMC: drums + bass"
				Note Time="8" Value="F5" Duration="1" Instrument="DMC: drums + bass"
				Note Time="9" Value="F5" Duration="1" Instrument="DMC: drums + bass"
				Note Time="10" Value="E5" Duration="1" Instrument="DMC: drums + bass"
				Note Time="12" Value="E5" Duration="1" Instrument="DMC: drums + bass"
				Note Time="13" Value="F5" Duration="2" Instrument="DMC: drums + bass"
			Pattern Name="Pattern 12" Color="5dd2ff"
				Note Time="0" Value="E5" Duration="1" Instrument="DMC: drums + bass"
				Note Time="1" Value="E5" Duration="1" Instrument="DMC: drums + bass"
				Note Time="2" Value="E5" Duration="1" Instrument="DMC: drums + bass"
				Note Time="3" Value="E5" Duration="1" Instrument="DMC: drums + bass"
				Note Time="4" Value="E5" Duration="1" Instrument="DMC: drums + bass"
				Note Time="5" Value="E5" Duration="1" Instrument="DMC: drums + bass"
				Note Time="6" Value="F5" Duration="1" Instrument="DMC: drums + bass"
				Note Time="7" Value="F5" Duration="1" Instrument="DMC: drums + bass"
				Note Time="8" Value="F5" Duration="1" Instrument="DMC: drums + bass"
				Note Time="9" Value="F5" Duration="1" Instrument="DMC: drums + bass"
				Note Time="10" Value="F5" Duration="1" Instrument="DMC: drums + bass"
			Pattern Name="Pattern 13" Color="3eb3f9"
				Note Time="0" Value="E5" Duration="1" Instrument="DMC: drums + bass"
				Note Time="2" Value="E5" Duration="1" Instrument="DMC: drums + bass"
				Note Time="4" Value="F5" Duration="1" Instrument="DMC: drums + bass"
				Note Time="6" Value="E5" Duration="1" Instrument="DMC: drums + bass"
				Note Time="8" Value="E5" Duration="1" Instrument="DMC: drums + bass"
				Note Time="9" Value="E5" Duration="1" Instrument="DMC: drums + bass"
				Note Time="11" Value="E5" Duration="1" Instrument="DMC: drums + bass"
				Note Time="12" Value="F5" Duration="1" Instrument="DMC: drums + bass"
				Note Time="13" Value="F5" Duration="1" Instrument="DMC: drums + bass"
				Note Time="14" Value="F5" Duration="1" Instrument="DMC: drums + bass"
				Note Time="15" Value="F5" Duration="1" Instrument="DMC: drums + bass"
			Pattern Name="Pattern 14" Color="ffc6a1"
				Note Time="0" Value="E5" Duration="1" Instrument="DMC: drums + bass"
				Note Time="2" Value="E5" Duration="1" Instrument="DMC: drums + bass"
				Note Time="4" Value="E5" Duration="1" Instrument="DMC: drums + bass"
				Note Time="5" Value="F5" Duration="1" Instrument="DMC: drums + bass"
				Note Time="6" Value="F5" Duration="1" Instrument="DMC: drums + bass"
				Note Time="7" Value="F5" Duration="1" Instrument="DMC: drums + bass"
				Note Time="8" Value="F5" Duration="1" Instrument="DMC: drums + bass"
				Note Time="9" Value="F5" Duration="1" Instrument="DMC: drums + bass"
				Note Time="10" Value="F5" Duration="1" Instrument="DMC: drums + bass"
			Pattern Name="Pattern 15" Color="ffff93"
				Note Time="0" Value="E5" Duration="1" Instrument="DMC: drums + bass"
				Note Time="1" Value="F5" Duration="1" Instrument="DMC: drums + bass"
				Note Time="2" Value="E5" Duration="1" Instrument="DMC: drums + bass"
				Note Time="3" Value="F5" Duration="1" Instrument="DMC: drums + bass"
				Note Time="6" Value="E5" Duration="1" Instrument="DMC: drums + bass"
				Note Time="7" Value="F5" Duration="1" Instrument="DMC: drums + bass"
				Note Time="8" Value="F5" Duration="1" Instrument="DMC: drums + bass"
				Note Time="9" Value="E5" Duration="1" Instrument="DMC: drums + bass"
				Note Time="10" Value="E5" Duration="1" Instrument="DMC: drums + bass"
				Note Time="13" Value="E5" Duration="1" Instrument="DMC: drums + bass"
				Note Time="14" Value="F5" Duration="1" Instrument="DMC: drums + bass"
				Note Time="15" Value="E5" Duration="1" Instrument="DMC: drums + bass"
			Pattern Name="Pattern 16" Color="3cf8ff"
				Note Time="1" Value="E5" Duration="1" Instrument="DMC: drums + bass"
				Note Time="2" Value="F5" Duration="1" Instrument="DMC: drums + bass"
				Note Time="3" Value="E5" Duration="1" Instrument="DMC: drums + bass"
				Note Time="5" Value="F5" Duration="1" Instrument="DMC: drums + bass"
				Note Time="6" Value="F5" Duration="1" Instrument="DMC: drums + bass"
				Note Time="7" Value="F5" Duration="1" Instrument="DMC: drums + bass"
				Note Time="8" Value="F5" Duration="1" Instrument="DMC: drums + bass"
				Note Time="12" Value="E5" Duration="4" Instrument="DMC: drums + bass"
			Pattern Name="Pattern 18" Color="fffd43"
				Note Time="0" Value="F5" Duration="2" Instrument="DMC: drums + bass"
				Note Time="2" Value="F5" Duration="3" Instrument="DMC: drums + bass"
				Note Time="5" Value="F5" Duration="1" Instrument="DMC: drums + bass"
				Note Time="6" Value="E5" Duration="2" Instrument="DMC: drums + bass"
				Note Time="8" Value="F5" Duration="4" Instrument="DMC: drums + bass"
				Note Time="12" Value="E5" Duration="4" Instrument="DMC: drums + bass"
			Pattern Name="Pattern 17" Color="f6a4ff"
				Note Time="0" Value="F5" Duration="3" Instrument="DMC: drums + bass"
				Note Time="2" Value="F5" Duration="4" Instrument="DMC: drums + bass"
				Note Time="5" Value="F5" Duration="2" Instrument="DMC: drums + bass"
				Note Time="6" Value="E5" Duration="3" Instrument="DMC: drums + bass"
				Note Time="8" Value="F5" Duration="2" Instrument="DMC: drums + bass"
				Note Time="9" Value="F5" Duration="2" Instrument="DMC: drums + bass"
				Note Time="10" Value="F5" Duration="2" Instrument="DMC: drums + bass"
				Note Time="11" Value="F5" Duration="2" Instrument="DMC: drums + bass"
				Note Time="12" Value="F5" Duration="3" Instrument="DMC: drums + bass"
			Pattern Name="Pattern 19" Color="ffc6a1"
				Note Time="3" Value="F5" Duration="1" Instrument="DMC: drums + bass"
				Note Time="4" Value="E5" Duration="1" Instrument="DMC: drums + bass"
				Note Time="5" Value="E5" Duration="1" Instrument="DMC: drums + bass"
				Note Time="6" Value="E5" Duration="1" Instrument="DMC: drums + bass"
				Note Time="7" Value="F5" Duration="1" Instrument="DMC: drums + bass"
				Note Time="8" Value="E5" Duration="1" Instrument="DMC: drums + bass"
				Note Time="9" Value="E5" Duration="1" Instrument="DMC: drums + bass"
				Note Time="10" Value="E5" Duration="1" Instrument="DMC: drums + bass"
				Note Time="12" Value="F5" Duration="3" Instrument="DMC: drums + bass"
			Pattern Name="Pattern 20" Color="ffff93"
				Note Time="0" Value="F5" Duration="4" Instrument="DMC: drums + bass"
				Note Time="4" Value="E5" Duration="1" Instrument="DMC: drums + bass"
				Note Time="5" Value="E5" Duration="1" Instrument="DMC: drums + bass"
				Note Time="6" Value="E5" Duration="1" Instrument="DMC: drums + bass"
				Note Time="7" Value="F5" Duration="1" Instrument="DMC: drums + bass"
				Note Time="9" Value="F5" Duration="3" Instrument="DMC: drums + bass"
				Note Time="10" Value="E5" Duration="1" Instrument="DMC: drums + bass"
				Note Time="11" Value="E5" Duration="1" Instrument="DMC: drums + bass"
				Note Time="12" Value="F5" Duration="4" Instrument="DMC: drums + bass"
			Pattern Name="Pattern 21" Color="fe5497"
				Note Time="0" Value="F5" Duration="4" Instrument="DMC: drums + bass"
				Note Time="4" Value="E5" Duration="1" Instrument="DMC: drums + bass"
				Note Time="5" Value="F5" Duration="2" Instrument="DMC: drums + bass"
				Note Time="7" Value="E5" Duration="1" Instrument="DMC: drums + bass"
				Note Time="8" Value="F5" Duration="2" Instrument="DMC: drums + bass"
				Note Time="10" Value="E5" Duration="1" Instrument="DMC: drums + bass"
				Note Time="11" Value="F5" Duration="1" Instrument="DMC: drums + bass"
				Note Time="12" Value="E5" Duration="1" Instrument="DMC: drums + bass"
				Note Time="13" Value="E5" Duration="1" Instrument="DMC: drums + bass"
				Note Time="14" Value="F5" Duration="1" Instrument="DMC: drums + bass"
				Note Time="15" Value="F5" Duration="1" Instrument="DMC: drums + bass"
			Pattern Name="Pattern 22" Color="ffb83c"
				Note Time="0" Value="F5" Duration="1" Instrument="DMC: drums + bass"
				Note Time="1" Value="E5" Duration="1" Instrument="DMC: drums + bass"
				Note Time="2" Value="E5" Duration="1" Instrument="DMC: drums + bass"
				Note Time="3" Value="F5" Duration="1" Instrument="DMC: drums + bass"
				Note Time="4" Value="E5" Duration="1" Instrument="DMC: drums + bass"
				Note Time="5" Value="F5" Duration="1" Instrument="DMC: drums + bass"
				Note Time="6" Value="E5" Duration="1" Instrument="DMC: drums + bass"
				Note Time="7" Value="E5" Duration="1" Instrument="DMC: drums + bass"
				Note Time="8" Value="E5" Duration="1" Instrument="DMC: drums + bass"
				Note Time="9" Value="E5" Duration="1" Instrument="DMC: drums + bass"
				Note Time="10" Value="F5" Duration="2" Instrument="DMC: drums + bass"
				Note Time="11" Value="E5" Duration="1" Instrument="DMC: drums + bass"
				Note Time="12" Value="F5" Duration="2" Instrument="DMC: drums + bass"
			Pattern Name="Pattern 23" Color="8bffff"
				Note Time="0" Value="F5" Duration="2" Instrument="DMC: drums + bass"
				Note Time="3" Value="E5" Duration="1" Instrument="DMC: drums + bass"
				Note Time="4" Value="F5" Duration="1" Instrument="DMC: drums + bass"
				Note Time="5" Value="F5" Duration="1" Instrument="DMC: drums + bass"
				Note Time="6" Value="F5" Duration="1" Instrument="DMC: drums + bass"
				Note Time="8" Value="E5" Duration="1" Instrument="DMC: drums + bass"
				Note Time="9" Value="F5" Duration="1" Instrument="DMC: drums + bass"
				Note Time="10" Value="E5" Duration="1" Instrument="DMC: drums + bass"
				Note Time="11" Value="E5" Duration="1" Instrument="DMC: drums + bass"
				Note Time="12" Value="F5" Duration="4" Instrument="DMC: drums + bass"
			Pattern Name="Pattern 24" Color="e783f8"
				Note Time="2" Value="E5" Duration="1" Instrument="DMC: drums + bass"
				Note Time="3" Value="E5" Duration="1" Instrument="DMC: drums + bass"
				Note Time="5" Value="F5" Duration="1" Instrument="DMC: drums + bass"
				Note Time="6" Value="F5" Duration="1" Instrument="DMC: drums + bass"
				Note Time="7" Value="F5" Duration="2" Instrument="DMC: drums + bass"
				Note Time="10" Value="E5" Duration="2" Instrument="DMC: drums + bass"
				Note Time="11" Value="E5" Duration="1" Instrument="DMC: drums + bass"
				Note Time="12" Value="F5" Duration="4" Instrument="DMC: drums + bass"
			Pattern Name="Pattern 25" Color="ffef3c"
				Note Time="0" Value="E5" Duration="4" Instrument="DMC: drums + bass"
				Note Time="4" Value="E5" Duration="4" Instrument="DMC: drums + bass"
				Note Time="8" Value="E5" Duration="4" Instrument="DMC: drums + bass"
				Note Time="12" Value="E5" Duration="4" Instrument="DMC: drums + bass"
			Pattern Name="Pattern 26" Color="6ab96e"
				Note Time="0" Value="E5" Duration="1" Instrument="DMC: drums + bass"
				Note Time="2" Value="E5" Duration="1" Instrument="DMC: drums + bass"
				Note Time="4" Value="E5" Duration="1" Instrument="DMC: drums + bass"
				Note Time="6" Value="E5" Duration="1" Instrument="DMC: drums + bass"
				Note Time="8" Value="E5" Duration="1" Instrument="DMC: drums + bass"
				Note Time="10" Value="E5" Duration="1" Instrument="DMC: drums + bass"
				Note Time="12" Value="F5" Duration="1" Instrument="DMC: drums + bass"
				Note Time="13" Value="F5" Duration="1" Instrument="DMC: drums + bass"
				Note Time="14" Value="F5" Duration="1" Instrument="DMC: drums + bass"
				Note Time="15" Value="F5" Duration="1" Instrument="DMC: drums + bass"
			Pattern Name="Pattern 27" Color="f6a4ff"
				Note Time="0" Value="F5" Duration="4" Instrument="DMC: drums + bass"
				Note Time="4" Value="E5" Duration="4" Instrument="DMC: drums + bass"
				Note Time="8" Value="F5" Duration="4" Instrument="DMC: drums + bass"
				Note Time="12" Value="E5" Duration="4" Instrument="DMC: drums + bass"
			Pattern Name="Pattern 36" Color="b8ef7e"
				Note Time="0" Value="F5" Duration="4" Instrument="DMC: drums + bass"
				Note Time="4" Value="E5" Duration="4" Instrument="DMC: drums + bass"
				Note Time="8" Value="F5" Duration="4" Instrument="DMC: drums + bass"
				Note Time="12" Value="F5" Duration="2" Instrument="DMC: drums + bass"
				Note Time="14" Value="E5" Duration="1" Instrument="DMC: drums + bass"
				Note Time="15" Value="F5" Duration="1" Instrument="DMC: drums + bass"
			Pattern Name="Pattern 28" Color="7ee1ff"
				Note Time="0" Value="E5" Duration="1" Instrument="DMC: drums + bass"
				Note Time="1" Value="E5" Duration="1" Instrument="DMC: drums + bass"
				Note Time="2" Value="F5" Duration="1" Instrument="DMC: drums + bass"
				Note Time="3" Value="E5" Duration="1" Instrument="DMC: drums + bass"
				Note Time="4" Value="E5" Duration="1" Instrument="DMC: drums + bass"
				Note Time="5" Value="E5" Duration="1" Instrument="DMC: drums + bass"
				Note Time="6" Value="F5" Duration="1" Instrument="DMC: drums + bass"
				Note Time="7" Value="E5" Duration="1" Instrument="DMC: drums + bass"
				Note Time="8" Value="E5" Duration="1" Instrument="DMC: drums + bass"
				Note Time="9" Value="F5" Duration="2" Instrument="DMC: drums + bass"
				Note Time="12" Value="E5" Duration="1" Instrument="DMC: drums + bass"
				Note Time="13" Value="E5" Duration="1" Instrument="DMC: drums + bass"
				Note Time="14" Value="F5" Duration="1" Instrument="DMC: drums + bass"
			Pattern Name="Pattern 29" Color="ff5a9f"
				Note Time="0" Value="F5" Duration="2" Instrument="DMC: drums + bass"
				Note Time="2" Value="E5" Duration="1" Instrument="DMC: drums + bass"
				Note Time="4" Value="E5" Duration="1" Instrument="DMC: drums + bass"
				Note Time="5" Value="F5" Duration="2" Instrument="DMC: drums + bass"
				Note Time="7" Value="F5" Duration="1" Instrument="DMC: drums + bass"
				Note Time="8" Value="E5" Duration="1" Instrument="DMC: drums + bass"
				Note Time="10" Value="E5" Duration="1" Instrument="DMC: drums + bass"
				Note Time="11" Value="E5" Duration="1" Instrument="DMC: drums + bass"
				Note Time="12" Value="F5" Duration="2" Instrument="DMC: drums + bass"
				Note Time="14" Value="E5" Duration="1" Instrument="DMC: drums + bass"
			Pattern Name="Pattern 30" Color="ff579c"
				Note Time="0" Value="F5" Duration="2" Instrument="DMC: drums + bass"
				Note Time="2" Value="E5" Duration="1" Instrument="DMC: drums + bass"
				Note Time="4" Value="E5" Duration="1" Instrument="DMC: drums + bass"
				Note Time="5" Value="F5" Duration="2" Instrument="DMC: drums + bass"
				Note Time="7" Value="F5" Duration="1" Instrument="DMC: drums + bass"
				Note Time="8" Value="E5" Duration="1" Instrument="DMC: drums + bass"
				Note Time="10" Value="E5" Duration="1" Instrument="DMC: drums + bass"
				Note Time="11" Value="E5" Duration="1" Instrument="DMC: drums + bass"
				Note Time="12" Value="E5" Duration="4" Instrument="DMC: drums + bass"
			Pattern Name="Pattern 31" Color="ffc83c"
				Note Time="0" Value="E5" Duration="4" Instrument="DMC: drums + bass"
				Note Time="4" Value="E5" Duration="4" Instrument="DMC: drums + bass"
				Note Time="8" Value="E5" Duration="4" Instrument="DMC: drums + bass"
				Note Time="12" Value="E5" Duration="4" Instrument="DMC: drums + bass"
			Pattern Name="Pattern 32" Color="98a7fc"
				Note Time="0" Value="E5" Duration="4" Instrument="DMC: drums + bass"
				Note Time="4" Value="E5" Duration="4" Instrument="DMC: drums + bass"
				Note Time="8" Value="E5" Duration="4" Instrument="DMC: drums + bass"
				Note Time="12" Value="F#5" Duration="4" Instrument="DMC: drums + bass"
				Note Time="14" Value="G5" Duration="4" Instrument="DMC: drums + bass"
			Pattern Name="Pattern 34" Color="3cc5b7"
				Note Time="0" Value="G#5" Duration="4" Instrument="DMC: drums + bass"
				Note Time="2" Value="A5" Duration="6" Instrument="DMC: drums + bass"
			Pattern Name="Pattern 33" Color="b75bde"
				Note Time="0" Value="E5" Duration="2" Instrument="DMC: drums + bass"
				Note Time="2" Value="A4" Duration="3" Instrument="DMC: drums + bass"
				Note Time="4" Value="E5" Duration="3" Instrument="DMC: drums + bass"
				Note Time="6" Value="A3" Duration="3" Instrument="DMC: drums + bass"
				Note Time="8" Value="A4" Duration="2" Instrument="DMC: drums + bass"
				Note Time="12" Value="E5" Duration="4" Instrument="DMC: drums + bass"
			Pattern Name="Pattern 37" Color="3ec4ff"
				Note Time="0" Value="E5" Duration="3" Instrument="DMC: drums + bass"
				Note Time="2" Value="F4" Duration="2" Instrument="DMC: drums + bass"
				Note Time="4" Value="E5" Duration="3" Instrument="DMC: drums + bass"
				Note Time="6" Value="F3" Duration="2" Instrument="DMC: drums + bass"
				Note Time="8" Value="F4" Duration="2" Instrument="DMC: drums + bass"
				Note Time="12" Value="E5" Duration="4" Instrument="DMC: drums + bass"
			Pattern Name="Pattern 38" Color="b59184"
				Note Time="0" Value="E5" Duration="3" Instrument="DMC: drums + bass"
				Note Time="2" Value="D4" Duration="2" Instrument="DMC: drums + bass"
				Note Time="4" Value="E5" Duration="3" Instrument="DMC: drums + bass"
				Note Time="6" Value="D3" Duration="2" Instrument="DMC: drums + bass"
				Note Time="8" Value="D4" Duration="2" Instrument="DMC: drums + bass"
				Note Time="12" Value="E5" Duration="4" Instrument="DMC: drums + bass"
			Pattern Name="Pattern 39" Color="ffff71"
				Note Time="0" Value="E5" Duration="3" Instrument="DMC: drums + bass"
				Note Time="2" Value="D4" Duration="2" Instrument="DMC: drums + bass"
				Note Time="4" Value="E5" Duration="3" Instrument="DMC: drums + bass"
				Note Time="6" Value="D3" Duration="2" Instrument="DMC: drums + bass"
				Note Time="8" Value="D4" Duration="2" Instrument="DMC: drums + bass"
				Note Time="12" Value="E5" Duration="4" Instrument="DMC: drums + bass"
			Pattern Name="Pattern 40" Color="3cb5a7"
				Note Time="0" Value="E5" Duration="3" Instrument="DMC: drums + bass"
				Note Time="2" Value="G4" Duration="2" Instrument="DMC: drums + bass"
				Note Time="4" Value="E5" Duration="3" Instrument="DMC: drums + bass"
				Note Time="6" Value="G3" Duration="2" Instrument="DMC: drums + bass"
				Note Time="8" Value="G4" Duration="2" Instrument="DMC: drums + bass"
				Note Time="12" Value="E5" Duration="4" Instrument="DMC: drums + bass"
			Pattern Name="Pattern 35" Color="bdffc0"
				Note Time="0" Value="E5" Duration="2" Instrument="DMC: drums + bass"
				Note Time="2" Value="G4" Duration="2" Instrument="DMC: drums + bass"
				Note Time="4" Value="E5" Duration="2" Instrument="DMC: drums + bass"
			Pattern Name="Pattern 41" Color="5dd2ff"
				Note Time="0" Value="E5" Duration="2" Instrument="DMC: drums + bass"
				Note Time="2" Value="D5" Duration="2" Instrument="DMC: drums + bass"
				Note Time="4" Value="E5" Duration="3" Instrument="DMC: drums + bass"
				Note Time="6" Value="D4" Duration="2" Instrument="DMC: drums + bass"
				Note Time="8" Value="D5" Duration="2" Instrument="DMC: drums + bass"
				Note Time="12" Value="E5" Duration="4" Instrument="DMC: drums + bass"
			Pattern Name="Pattern 42" Color="ffc83c"
				Note Time="0" Value="E5" Duration="2" Instrument="DMC: drums + bass"
				Note Time="2" Value="C5" Duration="2" Instrument="DMC: drums + bass"
				Note Time="4" Value="E5" Duration="3" Instrument="DMC: drums + bass"
				Note Time="6" Value="C4" Duration="2" Instrument="DMC: drums + bass"
				Note Time="8" Value="C5" Duration="2" Instrument="DMC: drums + bass"
				Note Time="12" Value="E5" Duration="4" Instrument="DMC: drums + bass"
			PatternInstance Time="1" Pattern="Pattern 1"
			PatternInstance Time="2" Pattern="Pattern 2"
			PatternInstance Time="3" Pattern="Pattern 3"
			PatternInstance Time="4" Pattern="Pattern 4"
			PatternInstance Time="5" Pattern="Pattern 7"
			PatternInstance Time="6" Pattern="Pattern 8"
			PatternInstance Time="7" Pattern="Pattern 9"
			PatternInstance Time="8" Pattern="Pattern 10"
			PatternInstance Time="9" Pattern="Pattern 5"
			PatternInstance Time="10" Pattern="Pattern 6"
			PatternInstance Time="11" Pattern="Pattern 11"
			PatternInstance Time="12" Pattern="Pattern 12"
			PatternInstance Time="13" Pattern="Pattern 13"
			PatternInstance Time="14" Pattern="Pattern 14"
			PatternInstance Time="15" Pattern="Pattern 15"
			PatternInstance Time="16" Pattern="Pattern 16"
			PatternInstance Time="17" Pattern="Pattern 5"
			PatternInstance Time="18" Pattern="Pattern 6"
			PatternInstance Time="19" Pattern="Pattern 11"
			PatternInstance Time="20" Pattern="Pattern 12"
			PatternInstance Time="21" Pattern="Pattern 13"
			PatternInstance Time="22" Pattern="Pattern 14"
			PatternInstance Time="23" Pattern="Pattern 15"
			PatternInstance Time="24" Pattern="Pattern 16"
			PatternInstance Time="25" Pattern="Pattern 5"
			PatternInstance Time="26" Pattern="Pattern 6"
			PatternInstance Time="27" Pattern="Pattern 11"
			PatternInstance Time="28" Pattern="Pattern 12"
			PatternInstance Time="29" Pattern="Pattern 13"
			PatternInstance Time="30" Pattern="Pattern 14"
			PatternInstance Time="31" Pattern="Pattern 15"
			PatternInstance Time="32" Pattern="Pattern 16"
			PatternInstance Time="33" Pattern="Pattern 5"
			PatternInstance Time="34" Pattern="Pattern 6"
			PatternInstance Time="35" Pattern="Pattern 11"
			PatternInstance Time="36" Pattern="Pattern 12"
			PatternInstance Time="37" Pattern="Pattern 13"
			PatternInstance Time="38" Pattern="Pattern 14"
			PatternInstance Time="39" Pattern="Pattern 15"
			PatternInstance Time="40" Pattern="Pattern 16"
			PatternInstance Time="41" Pattern="Pattern 18"
			PatternInstance Time="42" Pattern="Pattern 18"
			PatternInstance Time="43" Pattern="Pattern 18"
			PatternInstance Time="44" Pattern="Pattern 18"
			PatternInstance Time="45" Pattern="Pattern 18"
			PatternInstance Time="46" Pattern="Pattern 18"
			PatternInstance Time="47" Pattern="Pattern 18"
			PatternInstance Time="48" Pattern="Pattern 18"
			PatternInstance Time="49" Pattern="Pattern 18"
			PatternInstance Time="50" Pattern="Pattern 18"
			PatternInstance Time="51" Pattern="Pattern 18"
			PatternInstance Time="52" Pattern="Pattern 18"
			PatternInstance Time="53" Pattern="Pattern 18"
			PatternInstance Time="54" Pattern="Pattern 18"
			PatternInstance Time="55" Pattern="Pattern 18"
			PatternInstance Time="56" Pattern="Pattern 18"
			PatternInstance Time="57" Pattern="Pattern 18"
			PatternInstance Time="58" Pattern="Pattern 18"
			PatternInstance Time="59" Pattern="Pattern 18"
			PatternInstance Time="60" Pattern="Pattern 18"
			PatternInstance Time="61" Pattern="Pattern 18"
			PatternInstance Time="62" Pattern="Pattern 18"
			PatternInstance Time="63" Pattern="Pattern 18"
			PatternInstance Time="64" Pattern="Pattern 18"
			PatternInstance Time="65" Pattern="Pattern 18"
			PatternInstance Time="66" Pattern="Pattern 18"
			PatternInstance Time="67" Pattern="Pattern 18"
			PatternInstance Time="68" Pattern="Pattern 18"
			PatternInstance Time="69" Pattern="Pattern 18"
			PatternInstance Time="70" Pattern="Pattern 18"
			PatternInstance Time="71" Pattern="Pattern 18"
			PatternInstance Time="72" Pattern="Pattern 17"
			PatternInstance Time="73" Pattern="Pattern 19"
			PatternInstance Time="74" Pattern="Pattern 20"
			PatternInstance Time="75" Pattern="Pattern 21"
			PatternInstance Time="76" Pattern="Pattern 22"
			PatternInstance Time="77" Pattern="Pattern 23"
			PatternInstance Time="78" Pattern="Pattern 24"
			PatternInstance Time="79" Pattern="Pattern 24"
			PatternInstance Time="80" Pattern="Pattern 23"
			PatternInstance Time="81" Pattern="Pattern 19"
			PatternInstance Time="82" Pattern="Pattern 20"
			PatternInstance Time="83" Pattern="Pattern 21"
			PatternInstance Time="84" Pattern="Pattern 22"
			PatternInstance Time="85" Pattern="Pattern 23"
			PatternInstance Time="86" Pattern="Pattern 24"
			PatternInstance Time="87" Pattern="Pattern 24"
			PatternInstance Time="88" Pattern="Pattern 23"
			PatternInstance Time="89" Pattern="Pattern 25"
			PatternInstance Time="90" Pattern="Pattern 25"
			PatternInstance Time="91" Pattern="Pattern 25"
			PatternInstance Time="92" Pattern="Pattern 25"
			PatternInstance Time="93" Pattern="Pattern 25"
			PatternInstance Time="94" Pattern="Pattern 25"
			PatternInstance Time="95" Pattern="Pattern 25"
			PatternInstance Time="96" Pattern="Pattern 25"
			PatternInstance Time="97" Pattern="Pattern 26"
			PatternInstance Time="98" Pattern="Pattern 5"
			PatternInstance Time="99" Pattern="Pattern 6"
			PatternInstance Time="100" Pattern="Pattern 11"
			PatternInstance Time="101" Pattern="Pattern 12"
			PatternInstance Time="102" Pattern="Pattern 13"
			PatternInstance Time="103" Pattern="Pattern 14"
			PatternInstance Time="104" Pattern="Pattern 15"
			PatternInstance Time="105" Pattern="Pattern 16"
			PatternInstance Time="106" Pattern="Pattern 5"
			PatternInstance Time="107" Pattern="Pattern 6"
			PatternInstance Time="108" Pattern="Pattern 11"
			PatternInstance Time="109" Pattern="Pattern 12"
			PatternInstance Time="110" Pattern="Pattern 13"
			PatternInstance Time="111" Pattern="Pattern 14"
			PatternInstance Time="112" Pattern="Pattern 15"
			PatternInstance Time="113" Pattern="Pattern 16"
			PatternInstance Time="114" Pattern="Pattern 27"
			PatternInstance Time="115" Pattern="Pattern 27"
			PatternInstance Time="116" Pattern="Pattern 27"
			PatternInstance Time="117" Pattern="Pattern 27"
			PatternInstance Time="118" Pattern="Pattern 27"
			PatternInstance Time="119" Pattern="Pattern 27"
			PatternInstance Time="120" Pattern="Pattern 27"
			PatternInstance Time="121" Pattern="Pattern 27"
			PatternInstance Time="122" Pattern="Pattern 27"
			PatternInstance Time="123" Pattern="Pattern 27"
			PatternInstance Time="124" Pattern="Pattern 27"
			PatternInstance Time="125" Pattern="Pattern 27"
			PatternInstance Time="126" Pattern="Pattern 27"
			PatternInstance Time="127" Pattern="Pattern 27"
			PatternInstance Time="128" Pattern="Pattern 27"
			PatternInstance Time="129" Pattern="Pattern 27"
			PatternInstance Time="130" Pattern="Pattern 27"
			PatternInstance Time="131" Pattern="Pattern 27"
			PatternInstance Time="132" Pattern="Pattern 27"
			PatternInstance Time="133" Pattern="Pattern 27"
			PatternInstance Time="134" Pattern="Pattern 27"
			PatternInstance Time="135" Pattern="Pattern 27"
			PatternInstance Time="136" Pattern="Pattern 27"
			PatternInstance Time="137" Pattern="Pattern 36"
			PatternInstance Time="138" Pattern="Pattern 28"
			PatternInstance Time="139" Pattern="Pattern 29"
			PatternInstance Time="140" Pattern="Pattern 28"
			PatternInstance Time="141" Pattern="Pattern 29"
			PatternInstance Time="142" Pattern="Pattern 28"
			PatternInstance Time="143" Pattern="Pattern 29"
			PatternInstance Time="144" Pattern="Pattern 28"
			PatternInstance Time="145" Pattern="Pattern 30"
			PatternInstance Time="146" Pattern="Pattern 31"
			PatternInstance Time="147" Pattern="Pattern 31"
			PatternInstance Time="148" Pattern="Pattern 31"
			PatternInstance Time="149" Pattern="Pattern 31"
			PatternInstance Time="150" Pattern="Pattern 31"
			PatternInstance Time="151" Pattern="Pattern 31"
			PatternInstance Time="152" Pattern="Pattern 31"
			PatternInstance Time="153" Pattern="Pattern 32"
			PatternInstance Time="154" Pattern="Pattern 34"
			PatternInstance Time="155" Pattern="Pattern 33"
			PatternInstance Time="156" Pattern="Pattern 33"
			PatternInstance Time="157" Pattern="Pattern 37"
			PatternInstance Time="158" Pattern="Pattern 37"
			PatternInstance Time="159" Pattern="Pattern 38"
			PatternInstance Time="160" Pattern="Pattern 39"
			PatternInstance Time="161" Pattern="Pattern 40"
			PatternInstance Time="162" Pattern="Pattern 35"
			PatternInstance Time="163" Pattern="Pattern 33"
			PatternInstance Time="164" Pattern="Pattern 33"
			PatternInstance Time="165" Pattern="Pattern 37"
			PatternInstance Time="166" Pattern="Pattern 37"
			PatternInstance Time="167" Pattern="Pattern 38"
			PatternInstance Time="168" Pattern="Pattern 39"
			PatternInstance Time="169" Pattern="Pattern 40"
			PatternInstance Time="170" Pattern="Pattern 40"
			PatternInstance Time="171" Pattern="Pattern 33"
			PatternInstance Time="172" Pattern="Pattern 33"
			PatternInstance Time="173" Pattern="Pattern 37"
			PatternInstance Time="174" Pattern="Pattern 37"
			PatternInstance Time="175" Pattern="Pattern 38"
			PatternInstance Time="176" Pattern="Pattern 39"
			PatternInstance Time="177" Pattern="Pattern 40"
			PatternInstance Time="178" Pattern="Pattern 40"
			PatternInstance Time="179" Pattern="Pattern 33"
			PatternInstance Time="180" Pattern="Pattern 33"
			PatternInstance Time="181" Pattern="Pattern 41"
			PatternInstance Time="182" Pattern="Pattern 41"
			PatternInstance Time="183" Pattern="Pattern 42"
			PatternInstance Time="184" Pattern="Pattern 42"
			PatternInstance Time="185" Pattern="Pattern 33"
			PatternInstance Time="186" Pattern="Pattern 33"
	Song Name="Death Moon" Color="a376f3" Folder="Custom music used in the game" Length="106" LoopPoint="-1" PatternLength="16" BeatLength="4" FamiTrackerTempo="160" FamiTrackerSpeed="6"
		PatternCustomSettings Time="38" Length="8"
		PatternCustomSettings Time="105" Length="8"
		Channel Type="Square1"
			Pattern Name="00" Color="ff8f8c"
				Note Time="0" Value="A#1" Duration="2" Release="1" Instrument="endgame lead"
				Note Time="2" Value="C#2" Duration="2" Release="1" Instrument="endgame lead"
				Note Time="4" Value="F2" Duration="2" Release="1" Instrument="endgame lead"
				Note Time="6" Value="E2" Duration="10" Release="9" Instrument="endgame lead" VibratoSpeed="6" VibratoDepth="9"
			Pattern Name="01" Color="ffff64"
				Note Time="0" Value="F2" Duration="4" Release="2" Instrument="endgame lead" VibratoSpeed="0" VibratoDepth="0"
				Note Time="4" Value="C#2" Duration="4" Release="2" Instrument="endgame lead"
				Note Time="8" Value="C2" Duration="4" Release="2" Instrument="endgame lead"
				Note Time="12" Value="C#2" Duration="4" Release="2" Instrument="endgame lead"
			Pattern Name="02" Color="88eb8c"
				Note Time="0" Value="F2" Duration="4" Release="2" Instrument="endgame lead" VibratoSpeed="0" VibratoDepth="0"
				Note Time="4" Value="C#2" Duration="4" Release="2" Instrument="endgame lead"
				Note Time="8" Value="C2" Duration="4" Release="2" Instrument="endgame lead"
				Note Time="12" Value="A#1" Duration="4" Release="2" Instrument="endgame lead"
			Pattern Name="03" Color="5ac4ff"
				Note Time="0" Value="F2" Duration="4" Instrument="endgame lead" VibratoSpeed="0" VibratoDepth="0"
				Note Time="4" Value="C#2" Duration="4" Instrument="endgame lead"
				Note Time="8" Value="C2" Duration="4" Instrument="endgame lead"
				Note Time="12" Value="F2" Duration="4" Instrument="endgame lead"
			Pattern Name="05" Color="ffb83c"
				Note Time="0" Value="C#3" Duration="6" Instrument="hex guitar 2" Volume="13" DutyCycle="2"
				Note Time="6" Value="C#3" Duration="2" Instrument="hex guitar 2"
				Note Time="8" Value="G#3" Duration="6" Instrument="hex guitar 2"
				Note Time="14" Value="G#3" Duration="2" Instrument="hex guitar 2"
			Pattern Name="06" Color="91c76b"
				Note Time="0" Value="F#3" Duration="6" Instrument="hex guitar 2"
				Note Time="6" Value="F#3" Duration="2" Instrument="hex guitar 2"
				Note Time="8" Value="B3" Duration="6" Instrument="hex guitar 2"
				Note Time="14" Value="B3" Duration="2" Instrument="hex guitar 2"
			Pattern Name="07" Color="8bffff"
				Note Time="0" Value="A3" Duration="6" Instrument="hex guitar 2"
				Note Time="6" Value="A3" Duration="2" Instrument="hex guitar 2"
				Note Time="8" Value="G#3" Duration="6" Instrument="hex guitar 2"
				Note Time="14" Value="F#3" Duration="2" Instrument="hex guitar 2"
			Pattern Name="08" Color="e783f8"
				Note Time="0" Value="G#3" Duration="6" Instrument="hex guitar 2"
				Note Time="6" Value="G#3" Duration="2" Instrument="hex guitar 2"
				Note Time="8" Value="D#3" Duration="6" Instrument="hex guitar 2"
				Note Time="14" Value="D#3" Duration="2" Instrument="hex guitar 2"
			Pattern Name="29" Color="ffac7f"
				Note Time="0" Value="C4" Duration="8" Instrument="hex guitar 2"
				Note Time="8" Value="D#4" Duration="8" Instrument="hex guitar 2"
			Pattern Name="09" Color="ffff75"
				Note Time="0" Value="C#4" Duration="2" Instrument="endgame lead"
				Note Time="2" Value="G#3" Duration="2" Instrument="endgame lead"
				Note Time="4" Value="C#4" Duration="2" Instrument="endgame lead"
				Note Time="6" Value="G#4" Duration="4" Instrument="endgame lead"
				Note Time="10" Value="C#4" Duration="2" Instrument="endgame lead"
				Note Time="12" Value="E4" Duration="2" Instrument="endgame lead"
				Note Time="14" Value="G#4" Duration="2" Instrument="endgame lead"
			Pattern Name="0A" Color="3ce8fd"
				Note Time="0" Value="D#4" Duration="2" Instrument="endgame lead"
				Note Time="2" Value="B3" Duration="2" Instrument="endgame lead"
				Note Time="4" Value="D#4" Duration="2" Instrument="endgame lead"
				Note Time="6" Value="B4" Duration="4" Instrument="endgame lead"
				Note Time="10" Value="D#4" Duration="2" Instrument="endgame lead"
				Note Time="12" Value="F#4" Duration="2" Instrument="endgame lead"
				Note Time="14" Value="B4" Duration="2" Instrument="endgame lead"
			Pattern Name="0B" Color="8d69e4"
				Note Time="0" Value="E4" Duration="2" Instrument="endgame lead"
				Note Time="2" Value="C#4" Duration="2" Instrument="endgame lead"
				Note Time="4" Value="E4" Duration="2" Instrument="endgame lead"
				Note Time="6" Value="A4" Duration="4" Instrument="endgame lead"
				Note Time="10" Value="D4" Duration="2" Instrument="endgame lead"
				Note Time="12" Value="F#4" Duration="2" Instrument="endgame lead"
				Note Time="14" Value="A4" Duration="2" Instrument="endgame lead"
			Pattern Name="0C" Color="997c73"
				Note Time="0" Value="G#4" Duration="2" Instrument="endgame lead"
				Note Time="2" Value="D#4" Duration="2" Instrument="endgame lead"
				Note Time="4" Value="C4" Duration="2" Instrument="endgame lead"
				Note Time="6" Value="G#4" Duration="4" Instrument="endgame lead"
				Note Time="10" Value="C4" Duration="2" Instrument="endgame lead"
				Note Time="12" Value="D#4" Duration="2" Instrument="endgame lead"
				Note Time="14" Value="G#4" Duration="2" Instrument="endgame lead"
			Pattern Name="Pattern 1" Color="55b2ff"
				Note Time="0" Value="C#4" Duration="2" Instrument="endgame lead" Volume="6"
				Note Time="2" Value="G#3" Duration="2" Instrument="endgame lead"
				Note Time="4" Value="C#4" Duration="2" Instrument="endgame lead"
				Note Time="6" Value="G#4" Duration="4" Instrument="endgame lead"
				Note Time="10" Value="C#4" Duration="2" Instrument="endgame lead"
				Note Time="12" Value="E4" Duration="2" Instrument="endgame lead"
				Note Time="14" Value="G#4" Duration="2" Instrument="endgame lead"
			Pattern Name="11" Color="fffd43"
				Note Time="0" Value="C4" Duration="2" Instrument="echo"
				Note Time="2" Value="C#4" Duration="2" Instrument="echo"
				Note Time="4" Value="D#4" Duration="2" Instrument="echo"
				Note Time="6" Value="C4" Duration="2" Instrument="echo"
				Note Time="8" Value="C#4" Duration="2" Instrument="echo"
				Note Time="10" Value="D#4" Duration="2" Instrument="echo"
				Note Time="12" Value="E4" Duration="2" Instrument="echo"
				Note Time="14" Value="C#4" Duration="2" Instrument="echo"
			Pattern Name="12" Color="7fdc83"
				Note Time="0" Value="D#4" Duration="2" Instrument="echo"
				Note Time="2" Value="E4" Duration="2" Instrument="echo"
				Note Time="4" Value="F#4" Duration="2" Instrument="echo"
				Note Time="6" Value="D#4" Duration="2" Instrument="echo"
				Note Time="8" Value="F#4" Duration="2" Instrument="echo"
				Note Time="10" Value="G#4" Duration="2" Instrument="echo"
				Note Time="12" Value="A4" Duration="2" Instrument="echo"
				Note Time="14" Value="F#4" Duration="2" Instrument="echo"
			Pattern Name="13" Color="55b2ff"
				Note Time="0" Value="G#4" Duration="2" Instrument="echo"
				Note Time="2" Value="A4" Duration="2" Instrument="echo"
				Note Time="4" Value="B4" Duration="2" Instrument="echo"
				Note Time="6" Value="F#4" Duration="2" Instrument="echo"
				Note Time="8" Value="G#4" Duration="2" Instrument="echo"
				Note Time="10" Value="A4" Duration="2" Instrument="echo"
				Note Time="12" Value="B4" Duration="2" Instrument="echo"
				Note Time="14" Value="F#4" Duration="2" Instrument="echo"
			Pattern Name="14" Color="e95093"
				Note Time="0" Value="G#4" Duration="2" Instrument="echo"
				Note Time="2" Value="A4" Duration="2" Instrument="echo"
				Note Time="4" Value="B4" Duration="2" Instrument="echo"
				Note Time="6" Value="C5" Duration="2" Instrument="echo"
				Note Time="8" Value="A4" Duration="2" Instrument="echo"
				Note Time="10" Value="C5" Duration="3" Instrument="echo"
				Note Time="13" Value="D#5" Duration="3" Instrument="echo"
			Pattern Name="15" Color="ffa83c"
				Note Time="0" Value="F#5" Duration="3" Instrument="echo"
				Note Time="3" Value="A5" Duration="3" Instrument="echo"
				Note Time="10" Value="G#5" Duration="1" Instrument="cymbal"
			Pattern Name="Pattern 18" Color="fffd43"
				Note Time="0" Value="G#3" Duration="65" Instrument="jaezu lead"
			Pattern Name="Pattern 2" Color="5dd2ff"
				Note Time="0" Value="G#4" Duration="5" Instrument="endgame lead" Arpeggio="Arp 0C" Volume="15" FinePitch="0"
				Note Time="4" Value="D#4" Duration="4" Instrument="endgame lead" Arpeggio="Arp 0C"
				Note Time="8" Value="C#4" Duration="4" Instrument="endgame lead" Arpeggio="Arp 0C"
				Note Time="12" Value="B3" Duration="4" Instrument="endgame lead" Arpeggio="Arp 0C"
			Pattern Name="Pattern 4" Color="ff579c"
				Note Time="0" Value="F#4" Duration="4" Instrument="endgame lead" Arpeggio="Arp 0C"
				Note Time="6" Value="C#4" Duration="12" Instrument="endgame lead" Arpeggio="Arp 0C"
			Pattern Name="Pattern 5" Color="5dd2ff"
				Note Time="0" Value="E4" Duration="6" Instrument="endgame lead" Arpeggio="Arp 0C"
				Note Time="6" Value="D#4" Duration="6" Instrument="endgame lead" Arpeggio="Arp 0C"
				Note Time="12" Value="C#4" Duration="4" Instrument="endgame lead" Arpeggio="Arp 0C"
			Pattern Name="1C" Color="8163dc"
				Note Time="0" Value="D#4" Duration="6" Instrument="endgame lead" Arpeggio="Arp 0C"
				Note Time="6" Value="A#3" Duration="10" Instrument="endgame lead" Arpeggio="Arp 0C"
			Pattern Name="Pattern 6" Color="a9887d"
				Note Time="0" Value="G#4" Duration="2" Instrument="hex guitar 1" Volume="8" DutyCycle="1"
				Note Time="2" Value="D#4" Duration="2" Instrument="hex guitar 1"
				Note Time="4" Value="C#4" Duration="2" Instrument="hex guitar 1"
				Note Time="6" Value="D#4" Duration="2" Instrument="hex guitar 1"
				Note Time="8" Value="G#4" Duration="2" Instrument="hex guitar 1"
				Note Time="10" Value="D#4" Duration="2" Instrument="hex guitar 1"
				Note Time="12" Value="C#4" Duration="2" Instrument="hex guitar 1"
				Note Time="14" Value="D#4" Duration="2" Instrument="hex guitar 1"
			Pattern Name="Pattern 7" Color="fffc69"
				Note Time="0" Value="A#4" Duration="2" Instrument="hex guitar 1"
				Note Time="2" Value="F#4" Duration="2" Instrument="hex guitar 1"
				Note Time="4" Value="C#4" Duration="2" Instrument="hex guitar 1"
				Note Time="6" Value="F#4" Duration="2" Instrument="hex guitar 1"
				Note Time="8" Value="A#4" Duration="2" Instrument="hex guitar 1"
				Note Time="10" Value="F#4" Duration="2" Instrument="hex guitar 1"
				Note Time="12" Value="C#4" Duration="2" Instrument="hex guitar 1"
				Note Time="14" Value="F#4" Duration="2" Instrument="hex guitar 1"
			Pattern Name="Pattern 8" Color="3ca598"
				Note Time="0" Value="E4" Duration="2" Instrument="hex guitar 1"
				Note Time="2" Value="B4" Duration="2" Instrument="hex guitar 1"
				Note Time="4" Value="G#4" Duration="2" Instrument="hex guitar 1"
				Note Time="6" Value="B4" Duration="2" Instrument="hex guitar 1"
				Note Time="8" Value="D#5" Duration="2" Instrument="hex guitar 1"
				Note Time="10" Value="B4" Duration="2" Instrument="hex guitar 1"
				Note Time="12" Value="G#4" Duration="2" Instrument="hex guitar 1"
				Note Time="14" Value="B4" Duration="2" Instrument="hex guitar 1"
			Pattern Name="Pattern 9" Color="5ac4ff"
				Note Time="0" Value="D#4" Duration="2" Instrument="hex guitar 1"
				Note Time="2" Value="A#4" Duration="2" Instrument="hex guitar 1"
				Note Time="4" Value="F#4" Duration="2" Instrument="hex guitar 1"
				Note Time="6" Value="D#5" Duration="2" Instrument="hex guitar 1"
				Note Time="8" Value="E5" Duration="2" Instrument="hex guitar 1"
				Note Time="10" Value="D#5" Duration="2" Instrument="hex guitar 1"
				Note Time="12" Value="C#5" Duration="2" Instrument="hex guitar 1"
				Note Time="14" Value="D#5" Duration="2" Instrument="hex guitar 1"
			Pattern Name="21" Color="ff7571"
			Pattern Name="Pattern 10" Color="ffff64"
				Note Time="0" Value="G#4" Duration="5" Instrument="jaezu lead" Arpeggio="Arp 0C" Volume="13" FinePitch="0"
				Note Time="4" Value="D#4" Duration="4" Instrument="jaezu lead" Arpeggio="Arp 0C"
				Note Time="8" Value="C#4" Duration="4" Instrument="jaezu lead" Arpeggio="Arp 0C"
				Note Time="12" Value="B3" Duration="4" Instrument="jaezu lead" Arpeggio="Arp 0C"
			Pattern Name="Pattern 11" Color="88eb8c"
				Note Time="0" Value="F#4" Duration="4" Instrument="jaezu lead" Arpeggio="Arp 0C"
				Note Time="6" Value="C#4" Duration="12" Instrument="jaezu lead" Arpeggio="Arp 0C"
			Pattern Name="Pattern 12" Color="5ac4ff"
				Note Time="0" Value="E4" Duration="6" Instrument="jaezu lead" Arpeggio="Arp 0C"
				Note Time="6" Value="D#4" Duration="6" Instrument="jaezu lead" Arpeggio="Arp 0C"
				Note Time="12" Value="C#4" Duration="4" Instrument="jaezu lead" Arpeggio="Arp 0C"
			Pattern Name="Pattern 13" Color="fe5497"
				Note Time="0" Value="D#4" Duration="6" Instrument="jaezu lead" Arpeggio="Arp 0C"
				Note Time="6" Value="A#3" Duration="10" Instrument="jaezu lead" Arpeggio="Arp 0C"
			Pattern Name="Pattern 14" Color="ffb83c"
				Note Time="0" Value="G#4" Duration="5" Instrument="jaezu lead" Arpeggio="Arp 0C" Volume="13" FinePitch="0"
				Note Time="4" Value="D#4" Duration="4" Instrument="jaezu lead" Arpeggio="Arp 0C"
				Note Time="8" Value="C#4" Duration="4" Instrument="jaezu lead" Arpeggio="Arp 0C"
				Note Time="12" Value="B3" Duration="4" Instrument="jaezu lead" Arpeggio="Arp 0C"
			Pattern Name="Pattern 15" Color="91c76b"
				Note Time="0" Value="F#4" Duration="4" Instrument="jaezu lead" Arpeggio="Arp 0C"
				Note Time="6" Value="C#4" Duration="12" Instrument="jaezu lead" Arpeggio="Arp 0C"
			Pattern Name="Pattern 16" Color="8bffff"
				Note Time="0" Value="E4" Duration="6" Instrument="jaezu lead" Arpeggio="Arp 0C"
				Note Time="6" Value="D#4" Duration="6" Instrument="jaezu lead" Arpeggio="Arp 0C"
				Note Time="12" Value="C#4" Duration="4" Instrument="jaezu lead" Arpeggio="Arp 0C"
			Pattern Name="Pattern 17" Color="e783f8"
				Note Time="0" Value="D#4" Duration="6" Instrument="jaezu lead" Arpeggio="Arp 0C"
				Note Time="6" Value="A#3" Duration="10" Instrument="jaezu lead" Arpeggio="Arp 0C"
			PatternInstance Time="0" Pattern="00"
			PatternInstance Time="1" Pattern="01"
			PatternInstance Time="2" Pattern="00"
			PatternInstance Time="3" Pattern="02"
			PatternInstance Time="4" Pattern="00"
			PatternInstance Time="5" Pattern="03"
			PatternInstance Time="6" Pattern="00"
			PatternInstance Time="7" Pattern="02"
			PatternInstance Time="9" Pattern="05"
			PatternInstance Time="10" Pattern="06"
			PatternInstance Time="11" Pattern="07"
			PatternInstance Time="12" Pattern="08"
			PatternInstance Time="13" Pattern="05"
			PatternInstance Time="14" Pattern="06"
			PatternInstance Time="15" Pattern="07"
			PatternInstance Time="16" Pattern="29"
			PatternInstance Time="17" Pattern="09"
			PatternInstance Time="18" Pattern="0A"
			PatternInstance Time="19" Pattern="0B"
			PatternInstance Time="20" Pattern="0C"
			PatternInstance Time="21" Pattern="09"
			PatternInstance Time="22" Pattern="0A"
			PatternInstance Time="23" Pattern="0B"
			PatternInstance Time="24" Pattern="0C"
			PatternInstance Time="25" Pattern="Pattern 1"
			PatternInstance Time="26" Pattern="0A"
			PatternInstance Time="27" Pattern="0B"
			PatternInstance Time="28" Pattern="0C"
			PatternInstance Time="29" Pattern="Pattern 1"
			PatternInstance Time="30" Pattern="0A"
			PatternInstance Time="31" Pattern="0B"
			PatternInstance Time="32" Pattern="0C"
			PatternInstance Time="33" Pattern="11"
			PatternInstance Time="34" Pattern="12"
			PatternInstance Time="35" Pattern="13"
			PatternInstance Time="36" Pattern="14"
			PatternInstance Time="37" Pattern="15"
			PatternInstance Time="39" Pattern="Pattern 18"
			PatternInstance Time="42" Pattern="Pattern 2"
			PatternInstance Time="43" Pattern="Pattern 4"
			PatternInstance Time="44" Pattern="Pattern 5"
			PatternInstance Time="45" Pattern="1C"
			PatternInstance Time="46" Pattern="Pattern 2"
			PatternInstance Time="47" Pattern="Pattern 4"
			PatternInstance Time="48" Pattern="Pattern 5"
			PatternInstance Time="49" Pattern="1C"
			PatternInstance Time="50" Pattern="Pattern 6"
			PatternInstance Time="51" Pattern="Pattern 7"
			PatternInstance Time="52" Pattern="Pattern 8"
			PatternInstance Time="53" Pattern="Pattern 9"
			PatternInstance Time="54" Pattern="Pattern 6"
			PatternInstance Time="55" Pattern="Pattern 7"
			PatternInstance Time="56" Pattern="Pattern 8"
			PatternInstance Time="57" Pattern="Pattern 9"
			PatternInstance Time="59" Pattern="Pattern 1"
			PatternInstance Time="60" Pattern="0A"
			PatternInstance Time="61" Pattern="0B"
			PatternInstance Time="62" Pattern="0C"
			PatternInstance Time="63" Pattern="Pattern 1"
			PatternInstance Time="64" Pattern="0A"
			PatternInstance Time="65" Pattern="0B"
			PatternInstance Time="66" Pattern="0C"
			PatternInstance Time="67" Pattern="11"
			PatternInstance Time="68" Pattern="12"
			PatternInstance Time="69" Pattern="13"
			PatternInstance Time="70" Pattern="14"
			PatternInstance Time="71" Pattern="15"
			PatternInstance Time="72" Pattern="Pattern 18"
			PatternInstance Time="74" Pattern="21"
			PatternInstance Time="75" Pattern="Pattern 10"
			PatternInstance Time="76" Pattern="Pattern 11"
			PatternInstance Time="77" Pattern="Pattern 12"
			PatternInstance Time="78" Pattern="Pattern 13"
			PatternInstance Time="79" Pattern="Pattern 14"
			PatternInstance Time="80" Pattern="Pattern 15"
			PatternInstance Time="81" Pattern="Pattern 16"
			PatternInstance Time="82" Pattern="Pattern 17"
			PatternInstance Time="83" Pattern="Pattern 2"
			PatternInstance Time="84" Pattern="Pattern 4"
			PatternInstance Time="85" Pattern="Pattern 5"
			PatternInstance Time="86" Pattern="1C"
			PatternInstance Time="87" Pattern="Pattern 2"
			PatternInstance Time="88" Pattern="Pattern 4"
			PatternInstance Time="89" Pattern="Pattern 5"
			PatternInstance Time="90" Pattern="1C"
			PatternInstance Time="91" Pattern="Pattern 6"
			PatternInstance Time="92" Pattern="Pattern 7"
			PatternInstance Time="93" Pattern="Pattern 8"
			PatternInstance Time="94" Pattern="Pattern 9"
			PatternInstance Time="95" Pattern="Pattern 6"
			PatternInstance Time="96" Pattern="Pattern 7"
			PatternInstance Time="97" Pattern="Pattern 8"
			PatternInstance Time="98" Pattern="Pattern 9"
			PatternInstance Time="101" Pattern="Pattern 18"
		Channel Type="Square2"
			Pattern Name="Pattern 1" Color="5dd2ff"
				Note Time="0" Value="A#2" Duration="2" Release="1" Instrument="endgame lead"
				Note Time="2" Value="C#3" Duration="2" Release="1" Instrument="endgame lead"
				Note Time="4" Value="F3" Duration="2" Release="1" Instrument="endgame lead"
				Note Time="6" Value="E3" Duration="10" Release="9" Instrument="endgame lead" VibratoSpeed="8" VibratoDepth="8"
			Pattern Name="Pattern 2" Color="ff579c"
				Note Time="0" Value="F3" Duration="4" Release="2" Instrument="endgame lead" VibratoSpeed="0" VibratoDepth="0"
				Note Time="4" Value="C#3" Duration="4" Release="2" Instrument="endgame lead"
				Note Time="8" Value="C3" Duration="4" Release="2" Instrument="endgame lead"
				Note Time="12" Value="C#3" Duration="4" Release="2" Instrument="endgame lead"
			Pattern Name="Pattern 3" Color="ffc83c"
				Note Time="0" Value="A#2" Duration="2" Release="1" Instrument="endgame lead"
				Note Time="2" Value="C#3" Duration="2" Release="1" Instrument="endgame lead"
				Note Time="4" Value="F3" Duration="2" Release="1" Instrument="endgame lead"
				Note Time="6" Value="E3" Duration="10" Release="9" Instrument="endgame lead" VibratoSpeed="8" VibratoDepth="8"
			Pattern Name="Pattern 4" Color="a4db74"
				Note Time="0" Value="F3" Duration="4" Release="2" Instrument="endgame lead" VibratoSpeed="0" VibratoDepth="0"
				Note Time="4" Value="C#3" Duration="4" Release="2" Instrument="endgame lead"
				Note Time="8" Value="C3" Duration="4" Release="2" Instrument="endgame lead"
				Note Time="12" Value="A#2" Duration="4" Release="2" Instrument="endgame lead"
			Pattern Name="Pattern 5" Color="3eb3f9"
				Note Time="0" Value="A#2" Duration="2" Release="1" Instrument="endgame lead"
				Note Time="2" Value="C#3" Duration="2" Release="1" Instrument="endgame lead"
				Note Time="4" Value="F3" Duration="2" Release="1" Instrument="endgame lead"
				Note Time="6" Value="E3" Duration="10" Release="9" Instrument="endgame lead" VibratoSpeed="8" VibratoDepth="8"
			Pattern Name="Pattern 6" Color="f6a4ff"
				Note Time="0" Value="F3" Duration="4" Instrument="endgame lead" VibratoSpeed="0" VibratoDepth="0"
				Note Time="4" Value="C#3" Duration="4" Instrument="endgame lead"
				Note Time="8" Value="C3" Duration="4" Instrument="endgame lead"
				Note Time="12" Value="F3" Duration="4" Instrument="endgame lead"
			Pattern Name="Pattern 7" Color="ffc6a1"
				Note Time="0" Value="A#2" Duration="2" Release="1" Instrument="endgame lead"
				Note Time="2" Value="C#3" Duration="2" Release="1" Instrument="endgame lead"
				Note Time="4" Value="F3" Duration="2" Release="1" Instrument="endgame lead"
				Note Time="6" Value="E3" Duration="10" Release="9" Instrument="endgame lead" VibratoSpeed="8" VibratoDepth="8"
			Pattern Name="Pattern 8" Color="ffff93"
				Note Time="0" Value="F3" Duration="4" Release="2" Instrument="endgame lead" VibratoSpeed="0" VibratoDepth="0"
				Note Time="4" Value="C#3" Duration="4" Release="2" Instrument="endgame lead"
				Note Time="8" Value="C3" Duration="4" Release="2" Instrument="endgame lead"
				Note Time="12" Value="A#2" Duration="4" Release="2" Instrument="endgame lead"
			Pattern Name="05" Color="ddc4bb"
				Note Time="0" Value="C#3" Duration="6" Instrument="hex guitar 2" Volume="11" FinePitch="2" DutyCycle="3"
				Note Time="6" Value="C#3" Duration="2" Instrument="hex guitar 2"
				Note Time="8" Value="G#3" Duration="6" Instrument="hex guitar 2"
				Note Time="14" Value="G#3" Duration="2" Instrument="hex guitar 2"
			Pattern Name="06" Color="ffff94"
				Note Time="0" Value="F#3" Duration="6" Instrument="hex guitar 2"
				Note Time="6" Value="F#3" Duration="2" Instrument="hex guitar 2"
				Note Time="8" Value="B3" Duration="6" Instrument="hex guitar 2"
				Note Time="14" Value="B3" Duration="2" Instrument="hex guitar 2"
			Pattern Name="07" Color="3cd2c4"
				Note Time="0" Value="A3" Duration="6" Instrument="hex guitar 2"
				Note Time="6" Value="A3" Duration="2" Instrument="hex guitar 2"
				Note Time="8" Value="G#3" Duration="6" Instrument="hex guitar 2"
				Note Time="14" Value="F#3" Duration="2" Instrument="hex guitar 2"
			Pattern Name="08" Color="7585e7"
				Note Time="0" Value="G#3" Duration="6" Instrument="hex guitar 2"
				Note Time="6" Value="G#3" Duration="2" Instrument="hex guitar 2"
				Note Time="8" Value="D#3" Duration="6" Instrument="hex guitar 2"
				Note Time="14" Value="D#3" Duration="2" Instrument="hex guitar 2"
			Pattern Name="Pattern 9" Color="a9887d"
				Note Time="0" Value="C4" Duration="8" Instrument="hex guitar 2"
				Note Time="8" Value="D#4" Duration="8" Instrument="hex guitar 2"
			Pattern Name="21" Color="ff6b6b"
				Note Time="0" Value="C#2" Duration="16" Instrument="endgame lead" Volume="11" FinePitch="0"
			Pattern Name="22" Color="ffdc3c"
				Note Time="0" Value="D#2" Duration="16" Instrument="endgame lead"
			Pattern Name="23" Color="6ab96e"
				Note Time="0" Value="E2" Duration="8" Instrument="endgame lead"
				Note Time="8" Value="F#2" Duration="8" Instrument="endgame lead"
			Pattern Name="24" Color="a0f1ff"
				Note Time="0" Value="G#2" Duration="16" Instrument="endgame lead" Volume="11"
			Pattern Name="0D 1" Color="997c73"
				Note Time="0" Value="C#5" Duration="2" Instrument="hex guitar 1" Volume="9" FinePitch="0" DutyCycle="3"
				Note Time="2" Value="C#4" Duration="2" Instrument="hex guitar 1"
				Note Time="4" Value="G#4" Duration="2" Instrument="hex guitar 1"
				Note Time="6" Value="C#4" Duration="2" Instrument="hex guitar 1"
				Note Time="8" Value="F#4" Duration="2" Instrument="hex guitar 1"
				Note Time="10" Value="C#4" Duration="2" Instrument="hex guitar 1"
				Note Time="12" Value="E4" Duration="2" Instrument="hex guitar 1"
				Note Time="14" Value="C#4" Duration="2" Instrument="hex guitar 1"
			Pattern Name="0E 1" Color="89f2e8"
				Note Time="0" Value="B4" Duration="2" Instrument="hex guitar 1"
				Note Time="2" Value="B3" Duration="2" Instrument="hex guitar 1"
				Note Time="4" Value="A4" Duration="2" Instrument="hex guitar 1"
				Note Time="6" Value="B3" Duration="2" Instrument="hex guitar 1"
				Note Time="8" Value="G#4" Duration="2" Instrument="hex guitar 1"
				Note Time="10" Value="B3" Duration="2" Instrument="hex guitar 1"
				Note Time="12" Value="F#4" Duration="2" Instrument="hex guitar 1"
				Note Time="14" Value="B3" Duration="2" Instrument="hex guitar 1"
			Pattern Name="0F 1" Color="ff7f72"
				Note Time="0" Value="A4" Duration="2" Instrument="hex guitar 1"
				Note Time="2" Value="A3" Duration="2" Instrument="hex guitar 1"
				Note Time="4" Value="G#4" Duration="2" Instrument="hex guitar 1"
				Note Time="6" Value="A3" Duration="2" Instrument="hex guitar 1"
				Note Time="8" Value="F#4" Duration="2" Instrument="hex guitar 1"
				Note Time="10" Value="A3" Duration="2" Instrument="hex guitar 1"
				Note Time="12" Value="E4" Duration="2" Instrument="hex guitar 1"
				Note Time="14" Value="A3" Duration="2" Instrument="hex guitar 1"
			Pattern Name="11" Color="7fdc83"
				Note Time="0" Value="D#4" Duration="2" Instrument="hex guitar 1"
				Note Time="2" Value="G#3" Duration="2" Instrument="hex guitar 1"
				Note Time="4" Value="E4" Duration="2" Instrument="hex guitar 1"
				Note Time="6" Value="G#3" Duration="2" Instrument="hex guitar 1"
				Note Time="8" Value="F#4" Duration="2" Instrument="hex guitar 1"
				Note Time="10" Value="G#3" Duration="2" Instrument="hex guitar 1"
				Note Time="12" Value="G#4" Duration="2" Instrument="hex guitar 1"
				Note Time="14" Value="G#3" Duration="2" Instrument="hex guitar 1"
			Pattern Name="Pattern 10" Color="ff8d5a"
				Note Time="0" Value="C4" Duration="2" Instrument="echo"
				Note Time="2" Value="C#4" Duration="2" Instrument="echo"
				Note Time="4" Value="D#4" Duration="2" Instrument="echo"
				Note Time="6" Value="C4" Duration="2" Instrument="echo"
				Note Time="8" Value="C#4" Duration="2" Instrument="echo"
				Note Time="10" Value="D#4" Duration="2" Instrument="echo"
				Note Time="12" Value="E4" Duration="2" Instrument="echo"
				Note Time="14" Value="C#4" Duration="2" Instrument="echo"
			Pattern Name="Pattern 11" Color="ebf067"
				Note Time="0" Value="D#4" Duration="2" Instrument="echo"
				Note Time="2" Value="E4" Duration="2" Instrument="echo"
				Note Time="4" Value="F#4" Duration="2" Instrument="echo"
				Note Time="6" Value="D#4" Duration="2" Instrument="echo"
				Note Time="8" Value="F#4" Duration="2" Instrument="echo"
				Note Time="10" Value="G#4" Duration="2" Instrument="echo"
				Note Time="12" Value="A4" Duration="2" Instrument="echo"
				Note Time="14" Value="F#4" Duration="2" Instrument="echo"
			Pattern Name="Pattern 12" Color="3cbfcb"
				Note Time="0" Value="G#4" Duration="2" Instrument="echo"
				Note Time="2" Value="A4" Duration="2" Instrument="echo"
				Note Time="4" Value="B4" Duration="2" Instrument="echo"
				Note Time="6" Value="F#4" Duration="2" Instrument="echo"
				Note Time="8" Value="G#4" Duration="2" Instrument="echo"
				Note Time="10" Value="A4" Duration="2" Instrument="echo"
				Note Time="12" Value="B4" Duration="2" Instrument="echo"
				Note Time="14" Value="F#4" Duration="2" Instrument="echo"
			Pattern Name="Pattern 13" Color="d1b1ff"
				Note Time="0" Value="G#4" Duration="2" Instrument="echo"
				Note Time="2" Value="A4" Duration="2" Instrument="echo"
				Note Time="4" Value="B4" Duration="2" Instrument="echo"
				Note Time="6" Value="C5" Duration="2" Instrument="echo"
				Note Time="8" Value="A4" Duration="2" Instrument="echo"
				Note Time="10" Value="C5" Duration="3" Instrument="echo"
				Note Time="13" Value="D#5" Duration="3" Instrument="echo"
			Pattern Name="Pattern 14" Color="ddc4bb"
				Note Time="0" Value="F#5" Duration="3" Instrument="echo"
				Note Time="3" Value="A5" Duration="3" Instrument="echo"
			Pattern Name="Pattern 31" Color="e95093"
				Note Time="0" Value="G#5" Duration="64" Instrument="jaezu lead"
			Pattern Name="Pattern 15" Color="5dd2ff"
				Note Time="0" Value="G#3" Duration="5" Instrument="hex guitar 1" Volume="6" FinePitch="0"
				Note Time="6" Value="G#3" Duration="1" Instrument="hex guitar 1"
				Note Time="7" Value="G#3" Duration="6" Instrument="hex guitar 1"
				Note Time="14" Value="G#3" Duration="1" Instrument="hex guitar 1"
				Note Time="15" Value="G#3" Duration="1" Instrument="hex guitar 1"
			Pattern Name="Pattern 16" Color="ff579c"
				Note Time="0" Value="F#3" Duration="5" Instrument="hex guitar 1"
				Note Time="6" Value="F#3" Duration="1" Instrument="hex guitar 1"
				Note Time="7" Value="F#3" Duration="6" Instrument="hex guitar 1"
				Note Time="14" Value="F#3" Duration="1" Instrument="hex guitar 1"
				Note Time="15" Value="F#3" Duration="1" Instrument="hex guitar 1"
			Pattern Name="Pattern 17" Color="ffc83c"
				Note Time="0" Value="E3" Duration="5" Instrument="hex guitar 1"
				Note Time="6" Value="E3" Duration="1" Instrument="hex guitar 1"
				Note Time="7" Value="E3" Duration="6" Instrument="hex guitar 1"
				Note Time="14" Value="E3" Duration="1" Instrument="hex guitar 1"
				Note Time="15" Value="B2" Duration="1" Instrument="hex guitar 1"
			Pattern Name="Pattern 18" Color="5dd2ff"
				Note Time="0" Value="D#3" Duration="5" Instrument="hex guitar 1"
				Note Time="6" Value="D#3" Duration="1" Instrument="hex guitar 1"
				Note Time="7" Value="D#3" Duration="6" Instrument="hex guitar 1"
				Note Time="14" Value="D#3" Duration="1" Instrument="hex guitar 1"
				Note Time="15" Value="D#3" Duration="1" Instrument="hex guitar 1"
			Pattern Name="Pattern 19" Color="b5c2ff"
				Note Time="0" Value="G#5" Duration="2" Instrument="hex guitar 1" Volume="5" FinePitch="0"
				Note Time="2" Value="D#5" Duration="2" Instrument="hex guitar 1"
				Note Time="4" Value="C#5" Duration="2" Instrument="hex guitar 1"
				Note Time="6" Value="D#5" Duration="2" Instrument="hex guitar 1"
				Note Time="8" Value="G#5" Duration="2" Instrument="hex guitar 1"
				Note Time="10" Value="D#5" Duration="2" Instrument="hex guitar 1"
				Note Time="12" Value="C#5" Duration="2" Instrument="hex guitar 1"
				Note Time="14" Value="D#5" Duration="2" Instrument="hex guitar 1"
			Pattern Name="Pattern 20" Color="ff8f8c"
				Note Time="0" Value="A#5" Duration="2" Instrument="hex guitar 1"
				Note Time="2" Value="F#5" Duration="2" Instrument="hex guitar 1"
				Note Time="4" Value="C#5" Duration="2" Instrument="hex guitar 1"
				Note Time="6" Value="F#5" Duration="2" Instrument="hex guitar 1"
				Note Time="8" Value="A#5" Duration="2" Instrument="hex guitar 1"
				Note Time="10" Value="F#5" Duration="2" Instrument="hex guitar 1"
				Note Time="12" Value="C#5" Duration="2" Instrument="hex guitar 1"
				Note Time="14" Value="F#5" Duration="2" Instrument="hex guitar 1"
			Pattern Name="Pattern 21" Color="ffff64"
				Note Time="0" Value="E5" Duration="2" Instrument="hex guitar 1"
				Note Time="2" Value="B5" Duration="2" Instrument="hex guitar 1"
				Note Time="4" Value="G#5" Duration="2" Instrument="hex guitar 1"
				Note Time="6" Value="B5" Duration="2" Instrument="hex guitar 1"
				Note Time="8" Value="D#6" Duration="2" Instrument="hex guitar 1"
				Note Time="10" Value="B5" Duration="2" Instrument="hex guitar 1"
				Note Time="12" Value="G#5" Duration="2" Instrument="hex guitar 1"
				Note Time="14" Value="B5" Duration="2" Instrument="hex guitar 1"
			Pattern Name="Pattern 22" Color="fe5497"
				Note Time="0" Value="D#5" Duration="2" Instrument="hex guitar 1"
				Note Time="2" Value="A#5" Duration="2" Instrument="hex guitar 1"
				Note Time="4" Value="F#5" Duration="2" Instrument="hex guitar 1"
				Note Time="6" Value="D#6" Duration="2" Instrument="hex guitar 1"
				Note Time="8" Value="E6" Duration="2" Instrument="hex guitar 1"
				Note Time="10" Value="D#6" Duration="2" Instrument="hex guitar 1"
				Note Time="12" Value="C#6" Duration="2" Instrument="hex guitar 1"
				Note Time="14" Value="D#6" Duration="2" Instrument="hex guitar 1"
			Pattern Name="1D" Color="7ee1ff"
			Pattern Name="Pattern 23" Color="ffac7f"
				Note Time="0" Value="G#4" Duration="5" Instrument="jaezu lead" Arpeggio="Arp 0C" Volume="6" FinePitch="1"
				Note Time="4" Value="D#4" Duration="4" Instrument="jaezu lead" Arpeggio="Arp 0C"
				Note Time="8" Value="C#4" Duration="4" Instrument="jaezu lead" Arpeggio="Arp 0C"
				Note Time="12" Value="B3" Duration="4" Instrument="jaezu lead" Arpeggio="Arp 0C"
			Pattern Name="Pattern 24" Color="ffff75"
				Note Time="0" Value="F#4" Duration="4" Instrument="jaezu lead" Arpeggio="Arp 0C"
				Note Time="6" Value="C#4" Duration="12" Instrument="jaezu lead" Arpeggio="Arp 0C"
			Pattern Name="Pattern 25" Color="3ce8fd"
				Note Time="0" Value="E4" Duration="6" Instrument="jaezu lead" Arpeggio="Arp 0C"
				Note Time="6" Value="D#4" Duration="6" Instrument="jaezu lead" Arpeggio="Arp 0C"
				Note Time="12" Value="C#4" Duration="4" Instrument="jaezu lead" Arpeggio="Arp 0C"
			Pattern Name="Pattern 26" Color="8d69e4"
				Note Time="0" Value="D#4" Duration="6" Instrument="jaezu lead" Arpeggio="Arp 0C"
				Note Time="6" Value="A#3" Duration="10" Instrument="jaezu lead" Arpeggio="Arp 0C"
			Pattern Name="Pattern 27" Color="997c73"
				Note Time="0" Value="G#4" Duration="5" Instrument="jaezu lead" Arpeggio="Arp 0C" Volume="6" FinePitch="1"
				Note Time="4" Value="D#4" Duration="4" Instrument="jaezu lead" Arpeggio="Arp 0C"
				Note Time="8" Value="C#4" Duration="4" Instrument="jaezu lead" Arpeggio="Arp 0C"
				Note Time="12" Value="B3" Duration="4" Instrument="jaezu lead" Arpeggio="Arp 0C"
			Pattern Name="Pattern 28" Color="ffe461"
				Note Time="0" Value="F#4" Duration="4" Instrument="jaezu lead" Arpeggio="Arp 0C"
				Note Time="6" Value="C#4" Duration="12" Instrument="jaezu lead" Arpeggio="Arp 0C"
			Pattern Name="Pattern 29" Color="89f2e8"
				Note Time="0" Value="E4" Duration="6" Instrument="jaezu lead" Arpeggio="Arp 0C"
				Note Time="6" Value="D#4" Duration="6" Instrument="jaezu lead" Arpeggio="Arp 0C"
				Note Time="12" Value="C#4" Duration="4" Instrument="jaezu lead" Arpeggio="Arp 0C"
			Pattern Name="Pattern 30" Color="98a7fc"
				Note Time="0" Value="D#4" Duration="6" Instrument="jaezu lead" Arpeggio="Arp 0C"
				Note Time="6" Value="A#3" Duration="10" Instrument="jaezu lead" Arpeggio="Arp 0C"
			PatternInstance Time="0" Pattern="Pattern 1"
			PatternInstance Time="1" Pattern="Pattern 2"
			PatternInstance Time="2" Pattern="Pattern 3"
			PatternInstance Time="3" Pattern="Pattern 4"
			PatternInstance Time="4" Pattern="Pattern 5"
			PatternInstance Time="5" Pattern="Pattern 6"
			PatternInstance Time="6" Pattern="Pattern 7"
			PatternInstance Time="7" Pattern="Pattern 8"
			PatternInstance Time="9" Pattern="05"
			PatternInstance Time="10" Pattern="06"
			PatternInstance Time="11" Pattern="07"
			PatternInstance Time="12" Pattern="08"
			PatternInstance Time="13" Pattern="05"
			PatternInstance Time="14" Pattern="06"
			PatternInstance Time="15" Pattern="07"
			PatternInstance Time="16" Pattern="Pattern 9"
			PatternInstance Time="17" Pattern="21"
			PatternInstance Time="18" Pattern="22"
			PatternInstance Time="19" Pattern="23"
			PatternInstance Time="20" Pattern="24"
			PatternInstance Time="21" Pattern="21"
			PatternInstance Time="22" Pattern="22"
			PatternInstance Time="23" Pattern="23"
			PatternInstance Time="24" Pattern="24"
			PatternInstance Time="25" Pattern="0D 1"
			PatternInstance Time="26" Pattern="0E 1"
			PatternInstance Time="27" Pattern="0F 1"
			PatternInstance Time="28" Pattern="11"
			PatternInstance Time="29" Pattern="0D 1"
			PatternInstance Time="30" Pattern="0E 1"
			PatternInstance Time="31" Pattern="0F 1"
			PatternInstance Time="32" Pattern="11"
			PatternInstance Time="33" Pattern="Pattern 10"
			PatternInstance Time="34" Pattern="Pattern 11"
			PatternInstance Time="35" Pattern="Pattern 12"
			PatternInstance Time="36" Pattern="Pattern 13"
			PatternInstance Time="37" Pattern="Pattern 14"
			PatternInstance Time="39" Pattern="Pattern 31"
			PatternInstance Time="42" Pattern="Pattern 15"
			PatternInstance Time="43" Pattern="Pattern 16"
			PatternInstance Time="44" Pattern="Pattern 17"
			PatternInstance Time="45" Pattern="Pattern 18"
			PatternInstance Time="46" Pattern="Pattern 15"
			PatternInstance Time="47" Pattern="Pattern 16"
			PatternInstance Time="48" Pattern="Pattern 17"
			PatternInstance Time="49" Pattern="Pattern 18"
			PatternInstance Time="50" Pattern="Pattern 19"
			PatternInstance Time="51" Pattern="Pattern 20"
			PatternInstance Time="52" Pattern="Pattern 21"
			PatternInstance Time="53" Pattern="Pattern 22"
			PatternInstance Time="54" Pattern="Pattern 19"
			PatternInstance Time="55" Pattern="Pattern 20"
			PatternInstance Time="56" Pattern="Pattern 21"
			PatternInstance Time="57" Pattern="Pattern 22"
			PatternInstance Time="59" Pattern="0D 1"
			PatternInstance Time="60" Pattern="0E 1"
			PatternInstance Time="61" Pattern="0F 1"
			PatternInstance Time="62" Pattern="11"
			PatternInstance Time="63" Pattern="0D 1"
			PatternInstance Time="64" Pattern="0E 1"
			PatternInstance Time="65" Pattern="0F 1"
			PatternInstance Time="66" Pattern="11"
			PatternInstance Time="69" Pattern="Pattern 12"
			PatternInstance Time="70" Pattern="Pattern 13"
			PatternInstance Time="71" Pattern="Pattern 14"
			PatternInstance Time="72" Pattern="Pattern 31"
			PatternInstance Time="74" Pattern="1D"
			PatternInstance Time="75" Pattern="Pattern 23"
			PatternInstance Time="76" Pattern="Pattern 24"
			PatternInstance Time="77" Pattern="Pattern 25"
			PatternInstance Time="78" Pattern="Pattern 26"
			PatternInstance Time="79" Pattern="Pattern 27"
			PatternInstance Time="80" Pattern="Pattern 28"
			PatternInstance Time="81" Pattern="Pattern 29"
			PatternInstance Time="82" Pattern="Pattern 30"
			PatternInstance Time="83" Pattern="Pattern 15"
			PatternInstance Time="84" Pattern="Pattern 16"
			PatternInstance Time="85" Pattern="Pattern 17"
			PatternInstance Time="86" Pattern="Pattern 18"
			PatternInstance Time="87" Pattern="Pattern 15"
			PatternInstance Time="88" Pattern="Pattern 16"
			PatternInstance Time="89" Pattern="Pattern 17"
			PatternInstance Time="90" Pattern="Pattern 18"
			PatternInstance Time="91" Pattern="Pattern 19"
			PatternInstance Time="92" Pattern="Pattern 20"
			PatternInstance Time="93" Pattern="Pattern 21"
			PatternInstance Time="94" Pattern="Pattern 22"
			PatternInstance Time="95" Pattern="Pattern 19"
			PatternInstance Time="96" Pattern="Pattern 20"
			PatternInstance Time="97" Pattern="Pattern 21"
			PatternInstance Time="98" Pattern="Pattern 22"
			PatternInstance Time="101" Pattern="Pattern 31"
		Channel Type="Triangle"
			Pattern Name="Pattern 1" Color="3cf8ff"
				Note Time="0" Value="C#4" Duration="4" Instrument="blank" SlideTarget="C5"
				Note Time="4" Value="D#4" Duration="4" Instrument="blank" SlideTarget="G5"
				Note Time="8" Value="E4" Duration="4" Instrument="blank" SlideTarget="F#5"
				Note Time="12" Value="G4" Duration="4" Instrument="blank" SlideTarget="C6"
			Pattern Name="Pattern 2" Color="9a71ed"
				Note Time="0" Value="C#5" Duration="4" Instrument="blank" SlideTarget="D4"
				Note Time="4" Value="B4" Duration="4" Instrument="blank" SlideTarget="A3"
				Note Time="8" Value="A#4" Duration="4" Instrument="blank" SlideTarget="A3"
				Note Time="12" Value="G#4" Duration="4" Instrument="blank" SlideTarget="F3"
			Pattern Name="04" Color="a376f3"
				Note Time="0" Value="B1" Duration="16" Instrument="blank" SlideTarget="D#4"
			Pattern Name="1B" Color="b59184"
				Note Time="0" Value="C#4" Duration="1" Instrument="02 but tri"
				Note Time="2" Value="G#3" Duration="1" Instrument="02 but tri"
				Note Time="4" Value="C#4" Duration="1" Instrument="02 but tri"
				Note Time="6" Value="G#4" Duration="2" Instrument="02 but tri"
				Note Time="8" Value="C#4" Duration="1" Instrument="02 but tri"
				Note Time="10" Value="G#3" Duration="1" Instrument="02 but tri"
				Note Time="12" Value="C#4" Duration="1" Instrument="02 but tri"
				Note Time="14" Value="G#4" Duration="2" Instrument="02 but tri"
			Pattern Name="1C" Color="ffff71"
				Note Time="0" Value="D#4" Duration="1" Instrument="02 but tri"
				Note Time="2" Value="B3" Duration="1" Instrument="02 but tri"
				Note Time="4" Value="D#4" Duration="1" Instrument="02 but tri"
				Note Time="6" Value="B4" Duration="2" Instrument="02 but tri"
				Note Time="8" Value="D#4" Duration="1" Instrument="02 but tri"
				Note Time="10" Value="B3" Duration="1" Instrument="02 but tri"
				Note Time="12" Value="D#4" Duration="1" Instrument="02 but tri"
				Note Time="14" Value="B4" Duration="2" Instrument="02 but tri"
			Pattern Name="1D" Color="3cb5a7"
				Note Time="0" Value="E4" Duration="1" Instrument="02 but tri"
				Note Time="2" Value="C#4" Duration="1" Instrument="02 but tri"
				Note Time="4" Value="E4" Duration="1" Instrument="02 but tri"
				Note Time="6" Value="A4" Duration="2" Instrument="02 but tri"
				Note Time="8" Value="E4" Duration="1" Instrument="02 but tri"
				Note Time="10" Value="C#4" Duration="1" Instrument="02 but tri"
				Note Time="12" Value="E4" Duration="1" Instrument="02 but tri"
				Note Time="14" Value="A4" Duration="2" Instrument="02 but tri"
			Pattern Name="1E" Color="6471cf"
				Note Time="0" Value="G#5" Duration="10" Instrument="jaezu lead"
				Note Time="8" Value="G#4" Duration="1" Instrument="02 but tri"
				Note Time="10" Value="D#4" Duration="1" Instrument="02 but tri"
				Note Time="12" Value="G#3" Duration="1" Instrument="02 but tri"
				Note Time="14" Value="D#4" Duration="2" Instrument="02 but tri"
			Pattern Name="Pattern 3" Color="fe5497"
				Note Time="0" Value="G#4" Duration="1" Instrument="02 but tri"
				Note Time="2" Value="D#4" Duration="1" Instrument="02 but tri"
				Note Time="4" Value="G#3" Duration="1" Instrument="02 but tri"
				Note Time="6" Value="D#4" Duration="2" Instrument="02 but tri"
				Note Time="8" Value="G#4" Duration="1" Instrument="02 but tri"
				Note Time="10" Value="D#4" Duration="1" Instrument="02 but tri"
				Note Time="12" Value="G#3" Duration="1" Instrument="02 but tri"
				Note Time="14" Value="D#4" Duration="2" Instrument="02 but tri"
			Pattern Name="07" Color="ffafaf"
				Note Time="0" Value="C4" Duration="4" Instrument="triangle drums"
				Note Time="4" Value="C4" Duration="4" Instrument="triangle drums"
				Note Time="8" Value="C4" Duration="4" Instrument="triangle drums"
				Note Time="12" Value="C4" Duration="4" Instrument="triangle drums"
			Pattern Name="0D 1" Color="65f2ff"
				Note Time="0" Value="C#5" Duration="2" Instrument="xstep wub" Volume="9" FinePitch="0"
				Note Time="2" Value="C#4" Duration="2" Instrument="xstep wub"
				Note Time="4" Value="G#4" Duration="2" Instrument="xstep wub"
				Note Time="6" Value="C#4" Duration="2" Instrument="xstep wub"
				Note Time="8" Value="F#4" Duration="2" Instrument="xstep wub"
				Note Time="10" Value="C#4" Duration="2" Instrument="xstep wub"
				Note Time="12" Value="E4" Duration="2" Instrument="xstep wub"
				Note Time="14" Value="C#4" Duration="2" Instrument="xstep wub"
			Pattern Name="0E 1" Color="ff935e"
				Note Time="0" Value="B4" Duration="2" Instrument="xstep wub"
				Note Time="2" Value="B3" Duration="2" Instrument="xstep wub"
				Note Time="4" Value="A4" Duration="2" Instrument="xstep wub"
				Note Time="6" Value="B3" Duration="2" Instrument="xstep wub"
				Note Time="8" Value="G#4" Duration="2" Instrument="xstep wub"
				Note Time="10" Value="B3" Duration="2" Instrument="xstep wub"
				Note Time="12" Value="F#4" Duration="2" Instrument="xstep wub"
				Note Time="14" Value="B3" Duration="2" Instrument="xstep wub"
			Pattern Name="0F 1" Color="3cd3e3"
				Note Time="0" Value="A4" Duration="2" Instrument="xstep wub"
				Note Time="2" Value="A3" Duration="2" Instrument="xstep wub"
				Note Time="4" Value="G#4" Duration="2" Instrument="xstep wub"
				Note Time="6" Value="A3" Duration="2" Instrument="xstep wub"
				Note Time="8" Value="F#4" Duration="2" Instrument="xstep wub"
				Note Time="10" Value="A3" Duration="2" Instrument="xstep wub"
				Note Time="12" Value="E4" Duration="2" Instrument="xstep wub"
				Note Time="14" Value="A3" Duration="2" Instrument="xstep wub"
			Pattern Name="19" Color="8a706a"
				Note Time="0" Value="D#4" Duration="2" Instrument="xstep wub"
				Note Time="2" Value="G#3" Duration="2" Instrument="xstep wub"
				Note Time="4" Value="E4" Duration="2" Instrument="xstep wub"
				Note Time="6" Value="G#3" Duration="2" Instrument="xstep wub"
				Note Time="8" Value="F#4" Duration="2" Instrument="xstep wub"
				Note Time="10" Value="G#3" Duration="2" Instrument="xstep wub"
				Note Time="12" Value="G#4" Duration="2" Instrument="xstep wub"
				Note Time="14" Value="G#3" Duration="2" Instrument="xstep wub"
			Pattern Name="Pattern 10" Color="ff7571"
				Note Time="0" Value="C4" Duration="2" Instrument="xstep wub" FinePitch="0"
				Note Time="2" Value="C#4" Duration="2" Instrument="xstep wub"
				Note Time="4" Value="D#4" Duration="2" Instrument="xstep wub"
				Note Time="6" Value="C4" Duration="2" Instrument="xstep wub"
				Note Time="8" Value="C#4" Duration="2" Instrument="xstep wub"
				Note Time="10" Value="D#4" Duration="2" Instrument="xstep wub"
				Note Time="12" Value="E4" Duration="2" Instrument="xstep wub"
				Note Time="14" Value="C#4" Duration="2" Instrument="xstep wub"
			Pattern Name="Pattern 11" Color="74ca78"
				Note Time="0" Value="D#4" Duration="2" Instrument="xstep wub"
				Note Time="2" Value="E4" Duration="2" Instrument="xstep wub"
				Note Time="4" Value="F#4" Duration="2" Instrument="xstep wub"
				Note Time="6" Value="D#4" Duration="2" Instrument="xstep wub"
				Note Time="8" Value="F#4" Duration="2" Instrument="xstep wub"
				Note Time="10" Value="G#4" Duration="2" Instrument="xstep wub"
				Note Time="12" Value="A4" Duration="2" Instrument="xstep wub"
				Note Time="14" Value="F#4" Duration="2" Instrument="xstep wub"
			Pattern Name="Pattern 12" Color="ff9ece"
				Note Time="0" Value="G#4" Duration="2" Instrument="xstep wub"
				Note Time="2" Value="A4" Duration="2" Instrument="xstep wub"
				Note Time="4" Value="B4" Duration="2" Instrument="xstep wub"
				Note Time="6" Value="F#4" Duration="2" Instrument="xstep wub"
				Note Time="8" Value="G#4" Duration="2" Instrument="xstep wub"
				Note Time="10" Value="A4" Duration="2" Instrument="xstep wub"
				Note Time="12" Value="B4" Duration="2" Instrument="xstep wub"
				Note Time="14" Value="F#4" Duration="2" Instrument="xstep wub"
			Pattern Name="Pattern 13" Color="d8ffa1"
				Note Time="0" Value="G#4" Duration="2" Instrument="xstep wub"
				Note Time="2" Value="A4" Duration="2" Instrument="xstep wub"
				Note Time="4" Value="B4" Duration="2" Instrument="xstep wub"
				Note Time="6" Value="C5" Duration="2" Instrument="xstep wub"
				Note Time="8" Value="A4" Duration="2" Instrument="xstep wub"
				Note Time="10" Value="C5" Duration="3" Instrument="xstep wub"
				Note Time="13" Value="D#5" Duration="3" Instrument="xstep wub"
			Pattern Name="Pattern 14" Color="ca60e6"
				Note Time="0" Value="F#5" Duration="3" Instrument="xstep wub"
				Note Time="3" Value="A5" Duration="3" Instrument="xstep wub"
			Pattern Name="12" Color="fe5497"
				Note Time="0" Value="G#3" Duration="64" Instrument="blank"
			Pattern Name="0A" Color="f6a4ff"
				Note Time="0" Value="G#3" Duration="1" Instrument="triangle pluck 4"
				Note Time="1" Value="A#3" Duration="1" Instrument="triangle pluck 4"
				Note Time="2" Value="B3" Duration="1" Instrument="triangle pluck 4"
				Note Time="3" Value="D#4" Duration="1" Instrument="triangle pluck 4"
				Note Time="4" Value="G#3" Duration="1" Instrument="triangle pluck 4"
				Note Time="5" Value="A#3" Duration="1" Instrument="triangle pluck 4"
				Note Time="6" Value="B3" Duration="1" Instrument="triangle pluck 4"
				Note Time="7" Value="D#4" Duration="1" Instrument="triangle pluck 4"
				Note Time="8" Value="G#3" Duration="1" Instrument="triangle pluck 4"
				Note Time="9" Value="A#3" Duration="1" Instrument="triangle pluck 4"
				Note Time="10" Value="B3" Duration="1" Instrument="triangle pluck 4"
				Note Time="11" Value="D#4" Duration="1" Instrument="triangle pluck 4"
				Note Time="12" Value="G#3" Duration="1" Instrument="triangle pluck 4"
				Note Time="13" Value="A#3" Duration="1" Instrument="triangle pluck 4"
				Note Time="14" Value="B3" Duration="1" Instrument="triangle pluck 4"
				Note Time="15" Value="D#4" Duration="1" Instrument="triangle pluck 4"
			Pattern Name="Pattern 4" Color="ffc6a1"
				Note Time="0" Value="A#3" Duration="1" Instrument="triangle pluck 4"
				Note Time="1" Value="B3" Duration="1" Instrument="triangle pluck 4"
				Note Time="2" Value="C#4" Duration="1" Instrument="triangle pluck 4"
				Note Time="3" Value="F#4" Duration="1" Instrument="triangle pluck 4"
				Note Time="4" Value="A#3" Duration="1" Instrument="triangle pluck 4"
				Note Time="5" Value="B3" Duration="1" Instrument="triangle pluck 4"
				Note Time="6" Value="C#4" Duration="1" Instrument="triangle pluck 4"
				Note Time="7" Value="F#4" Duration="1" Instrument="triangle pluck 4"
				Note Time="8" Value="A#3" Duration="1" Instrument="triangle pluck 4"
				Note Time="9" Value="B3" Duration="1" Instrument="triangle pluck 4"
				Note Time="10" Value="C#4" Duration="1" Instrument="triangle pluck 4"
				Note Time="11" Value="F#4" Duration="1" Instrument="triangle pluck 4"
				Note Time="12" Value="A#3" Duration="1" Instrument="triangle pluck 4"
				Note Time="13" Value="B3" Duration="1" Instrument="triangle pluck 4"
				Note Time="14" Value="C#4" Duration="1" Instrument="triangle pluck 4"
				Note Time="15" Value="F#4" Duration="1" Instrument="triangle pluck 4"
			Pattern Name="Pattern 5" Color="ffff93"
				Note Time="0" Value="B3" Duration="1" Instrument="triangle pluck 4"
				Note Time="1" Value="C#4" Duration="1" Instrument="triangle pluck 4"
				Note Time="2" Value="E4" Duration="1" Instrument="triangle pluck 4"
				Note Time="3" Value="G#4" Duration="1" Instrument="triangle pluck 4"
				Note Time="4" Value="B3" Duration="1" Instrument="triangle pluck 4"
				Note Time="5" Value="C#4" Duration="1" Instrument="triangle pluck 4"
				Note Time="6" Value="E4" Duration="1" Instrument="triangle pluck 4"
				Note Time="7" Value="G#4" Duration="1" Instrument="triangle pluck 4"
				Note Time="8" Value="B3" Duration="1" Instrument="triangle pluck 4"
				Note Time="9" Value="C#4" Duration="1" Instrument="triangle pluck 4"
				Note Time="10" Value="E4" Duration="1" Instrument="triangle pluck 4"
				Note Time="11" Value="G#4" Duration="1" Instrument="triangle pluck 4"
				Note Time="12" Value="B3" Duration="1" Instrument="triangle pluck 4"
				Note Time="13" Value="C#4" Duration="1" Instrument="triangle pluck 4"
				Note Time="14" Value="E4" Duration="1" Instrument="triangle pluck 4"
				Note Time="15" Value="G#4" Duration="1" Instrument="triangle pluck 4"
			Pattern Name="Pattern 6" Color="3cf8ff"
				Note Time="0" Value="D#4" Duration="1" Instrument="triangle pluck 4"
				Note Time="1" Value="F#4" Duration="1" Instrument="triangle pluck 4"
				Note Time="2" Value="A#4" Duration="1" Instrument="triangle pluck 4"
				Note Time="3" Value="D#5" Duration="1" Instrument="triangle pluck 4"
				Note Time="4" Value="D#4" Duration="1" Instrument="triangle pluck 4"
				Note Time="5" Value="F#4" Duration="1" Instrument="triangle pluck 4"
				Note Time="6" Value="A#4" Duration="1" Instrument="triangle pluck 4"
				Note Time="7" Value="D#5" Duration="1" Instrument="triangle pluck 4"
				Note Time="8" Value="D#4" Duration="1" Instrument="triangle pluck 4"
				Note Time="9" Value="F#4" Duration="1" Instrument="triangle pluck 4"
				Note Time="10" Value="A#4" Duration="1" Instrument="triangle pluck 4"
				Note Time="11" Value="D#5" Duration="1" Instrument="triangle pluck 4"
				Note Time="12" Value="D#4" Duration="1" Instrument="triangle pluck 4"
				Note Time="13" Value="F#4" Duration="1" Instrument="triangle pluck 4"
				Note Time="14" Value="A#4" Duration="1" Instrument="triangle pluck 4"
				Note Time="15" Value="D#5" Duration="1" Instrument="triangle pluck 4"
			Pattern Name="Pattern 15" Color="3cf8ff"
				Note Time="0" Value="G#4" Duration="5" Instrument="hex guitar 1" Volume="6"
				Note Time="6" Value="G#4" Duration="1" Instrument="hex guitar 1"
				Note Time="7" Value="G#4" Duration="6" Instrument="hex guitar 1"
				Note Time="14" Value="G#4" Duration="1" Instrument="hex guitar 1"
				Note Time="15" Value="G#4" Duration="1" Instrument="hex guitar 1"
			Pattern Name="Pattern 16" Color="a9887d"
				Note Time="0" Value="F#4" Duration="5" Instrument="hex guitar 1"
				Note Time="6" Value="F#4" Duration="1" Instrument="hex guitar 1"
				Note Time="7" Value="F#4" Duration="6" Instrument="hex guitar 1"
				Note Time="14" Value="F#4" Duration="1" Instrument="hex guitar 1"
				Note Time="15" Value="F#4" Duration="1" Instrument="hex guitar 1"
			Pattern Name="Pattern 17" Color="3ca598"
				Note Time="0" Value="E4" Duration="5" Instrument="hex guitar 1"
				Note Time="6" Value="E4" Duration="1" Instrument="hex guitar 1"
				Note Time="7" Value="E4" Duration="6" Instrument="hex guitar 1"
				Note Time="14" Value="E4" Duration="1" Instrument="hex guitar 1"
				Note Time="15" Value="B3" Duration="1" Instrument="hex guitar 1"
			Pattern Name="Pattern 18" Color="ff8f8c"
				Note Time="0" Value="D#4" Duration="5" Instrument="hex guitar 1"
				Note Time="6" Value="D#4" Duration="1" Instrument="hex guitar 1"
				Note Time="7" Value="D#4" Duration="6" Instrument="hex guitar 1"
				Note Time="14" Value="D#4" Duration="1" Instrument="hex guitar 1"
				Note Time="15" Value="D#4" Duration="1" Instrument="hex guitar 1"
			Pattern Name="11" Color="5ac4ff"
				Note Time="0" Value="D4" Duration="8" Instrument="blank" SlideTarget="D5"
				Note Time="8" Value="C#5" Duration="9" Instrument="blank" SlideTarget="B5"
			PatternInstance Time="4" Pattern="Pattern 1"
			PatternInstance Time="6" Pattern="Pattern 2"
			PatternInstance Time="8" Pattern="04"
			PatternInstance Time="9" Pattern="1B"
			PatternInstance Time="10" Pattern="1C"
			PatternInstance Time="11" Pattern="1D"
			PatternInstance Time="12" Pattern="1E"
			PatternInstance Time="13" Pattern="1B"
			PatternInstance Time="14" Pattern="1C"
			PatternInstance Time="15" Pattern="1D"
			PatternInstance Time="16" Pattern="Pattern 3"
			PatternInstance Time="17" Pattern="07"
			PatternInstance Time="18" Pattern="07"
			PatternInstance Time="19" Pattern="07"
			PatternInstance Time="20" Pattern="07"
			PatternInstance Time="21" Pattern="07"
			PatternInstance Time="22" Pattern="07"
			PatternInstance Time="23" Pattern="07"
			PatternInstance Time="24" Pattern="07"
			PatternInstance Time="25" Pattern="0D 1"
			PatternInstance Time="26" Pattern="0E 1"
			PatternInstance Time="27" Pattern="0F 1"
			PatternInstance Time="28" Pattern="19"
			PatternInstance Time="29" Pattern="0D 1"
			PatternInstance Time="30" Pattern="0E 1"
			PatternInstance Time="31" Pattern="0F 1"
			PatternInstance Time="32" Pattern="19"
			PatternInstance Time="33" Pattern="Pattern 10"
			PatternInstance Time="34" Pattern="Pattern 11"
			PatternInstance Time="35" Pattern="Pattern 12"
			PatternInstance Time="36" Pattern="Pattern 13"
			PatternInstance Time="37" Pattern="Pattern 14"
			PatternInstance Time="39" Pattern="12"
			PatternInstance Time="41" Pattern="04"
			PatternInstance Time="42" Pattern="0A"
			PatternInstance Time="43" Pattern="Pattern 4"
			PatternInstance Time="44" Pattern="Pattern 5"
			PatternInstance Time="45" Pattern="Pattern 6"
			PatternInstance Time="46" Pattern="0A"
			PatternInstance Time="47" Pattern="Pattern 4"
			PatternInstance Time="48" Pattern="Pattern 5"
			PatternInstance Time="49" Pattern="Pattern 6"
			PatternInstance Time="50" Pattern="0A"
			PatternInstance Time="51" Pattern="Pattern 4"
			PatternInstance Time="52" Pattern="Pattern 5"
			PatternInstance Time="53" Pattern="Pattern 6"
			PatternInstance Time="54" Pattern="0A"
			PatternInstance Time="55" Pattern="Pattern 4"
			PatternInstance Time="56" Pattern="Pattern 5"
			PatternInstance Time="57" Pattern="Pattern 6"
			PatternInstance Time="58" Pattern="04"
			PatternInstance Time="59" Pattern="0D 1"
			PatternInstance Time="60" Pattern="0E 1"
			PatternInstance Time="61" Pattern="0F 1"
			PatternInstance Time="62" Pattern="19"
			PatternInstance Time="63" Pattern="0D 1"
			PatternInstance Time="64" Pattern="0E 1"
			PatternInstance Time="65" Pattern="0F 1"
			PatternInstance Time="66" Pattern="19"
			PatternInstance Time="67" Pattern="Pattern 10"
			PatternInstance Time="68" Pattern="Pattern 11"
			PatternInstance Time="69" Pattern="Pattern 12"
			PatternInstance Time="70" Pattern="Pattern 13"
			PatternInstance Time="71" Pattern="Pattern 14"
			PatternInstance Time="72" Pattern="12"
			PatternInstance Time="74" Pattern="04"
			PatternInstance Time="75" Pattern="Pattern 15"
			PatternInstance Time="76" Pattern="Pattern 16"
			PatternInstance Time="77" Pattern="Pattern 17"
			PatternInstance Time="78" Pattern="Pattern 18"
			PatternInstance Time="79" Pattern="Pattern 15"
			PatternInstance Time="80" Pattern="Pattern 16"
			PatternInstance Time="81" Pattern="Pattern 17"
			PatternInstance Time="82" Pattern="Pattern 18"
			PatternInstance Time="83" Pattern="0A"
			PatternInstance Time="84" Pattern="Pattern 4"
			PatternInstance Time="85" Pattern="Pattern 5"
			PatternInstance Time="86" Pattern="Pattern 6"
			PatternInstance Time="87" Pattern="0A"
			PatternInstance Time="88" Pattern="Pattern 4"
			PatternInstance Time="89" Pattern="Pattern 5"
			PatternInstance Time="90" Pattern="Pattern 6"
			PatternInstance Time="91" Pattern="0A"
			PatternInstance Time="92" Pattern="Pattern 4"
			PatternInstance Time="93" Pattern="Pattern 5"
			PatternInstance Time="94" Pattern="Pattern 6"
			PatternInstance Time="95" Pattern="0A"
			PatternInstance Time="96" Pattern="Pattern 4"
			PatternInstance Time="97" Pattern="Pattern 5"
			PatternInstance Time="98" Pattern="Pattern 6"
			PatternInstance Time="99" Pattern="04"
			PatternInstance Time="100" Pattern="11"
			PatternInstance Time="101" Pattern="12"
		Channel Type="Noise"
			Pattern Name="00" Color="8bffff"
				Note Time="0" Value="F3" Duration="8" Instrument="cymbal"
			Pattern Name="01" Color="e783f8"
				Note Time="0" Value="G3" Duration="2" Instrument="cymbal"
				Note Time="4" Value="G#3" Duration="2" Instrument="cymbal"
				Note Time="8" Value="A3" Duration="2" Instrument="cymbal"
				Note Time="12" Value="A#3" Duration="2" Instrument="cymbal"
			Pattern Name="02" Color="ffac7f"
				Note Time="0" Value="F3" Duration="4" Instrument="cymbal"
				Note Time="4" Value="A#3" Duration="2" Instrument="snare"
				Note Time="8" Value="A#3" Duration="2" Instrument="snare"
				Note Time="12" Value="A#3" Duration="2" Instrument="snare"
			Pattern Name="03" Color="ffff75"
				Note Time="0" Value="F3" Duration="2" Instrument="cymbal"
				Note Time="2" Value="G#2" Duration="2" Instrument="kick"
				Note Time="4" Value="G#3" Duration="2" Instrument="02 but tri"
				Note Time="6" Value="G#2" Duration="2" Instrument="kick"
				Note Time="8" Value="G#3" Duration="2" Instrument="02 but tri"
				Note Time="10" Value="G#2" Duration="2" Instrument="kick"
				Note Time="12" Value="G#3" Duration="2" Instrument="02 but tri"
				Note Time="14" Value="G#2" Duration="2" Instrument="kick"
			Pattern Name="04" Color="3ce8fd"
				Note Time="0" Value="G#3" Duration="2" Instrument="02 but tri"
				Note Time="2" Value="G#2" Duration="2" Instrument="kick"
				Note Time="4" Value="G#3" Duration="2" Instrument="02 but tri"
				Note Time="6" Value="G#2" Duration="2" Instrument="kick"
				Note Time="8" Value="G#3" Duration="2" Instrument="02 but tri"
				Note Time="10" Value="G#2" Duration="2" Instrument="kick"
				Note Time="12" Value="G#3" Duration="2" Instrument="02 but tri"
				Note Time="14" Value="G#2" Duration="2" Instrument="kick"
			Pattern Name="05" Color="8d69e4"
				Note Time="0" Value="F3" Duration="4" Instrument="cymbal" Volume="15"
				Note Time="4" Value="A#3" Duration="2" Instrument="snare"
				Note Time="6" Value="G#2" Duration="2" Instrument="kick"
				Note Time="8" Value="G#3" Duration="2" Instrument="02 but tri"
				Note Time="10" Value="G#2" Duration="2" Instrument="kick"
				Note Time="12" Value="A#3" Duration="2" Instrument="snare"
				Note Time="14" Value="G#2" Duration="2" Instrument="kick"
			Pattern Name="Pattern 1" Color="fffc69"
				Note Time="0" Value="F3" Duration="7" Instrument="cymbal" Volume="15"
				Note Time="4" Value="A#3" Duration="5" Instrument="snare"
				Note Time="6" Value="G#2" Duration="5" Instrument="kick"
				Note Time="8" Value="F3" Duration="5" Instrument="cymbal"
				Note Time="12" Value="A#3" Duration="5" Instrument="snare"
				Note Time="14" Value="G#2" Duration="5" Instrument="kick"
			Pattern Name="Pattern 2" Color="3ca598"
				Note Time="0" Value="F3" Duration="5" Instrument="cymbal" Volume="15"
				Note Time="4" Value="F3" Duration="3" Instrument="cymbal"
				Note Time="6" Value="G#2" Duration="3" Instrument="kick"
				Note Time="8" Value="F3" Duration="3" Instrument="cymbal"
				Note Time="10" Value="F3" Duration="2" Instrument="cymbal"
				Note Time="12" Value="F3" Duration="2" Instrument="cymbal"
				Note Time="14" Value="F3" Duration="2" Instrument="cymbal"
			Pattern Name="06" Color="997c73"
				Note Time="0" Value="G#3" Duration="2" Instrument="02 but tri"
				Note Time="2" Value="G#2" Duration="2" Instrument="kick"
				Note Time="4" Value="A#3" Duration="2" Instrument="snare"
				Note Time="6" Value="G#2" Duration="2" Instrument="kick"
				Note Time="8" Value="G#3" Duration="2" Instrument="02 but tri"
				Note Time="10" Value="G#2" Duration="2" Instrument="kick"
				Note Time="12" Value="A#3" Duration="2" Instrument="snare"
				Note Time="14" Value="G#2" Duration="2" Instrument="kick"
			Pattern Name="07" Color="ffe461"
				Note Time="0" Value="F3" Duration="8" Release="7" Instrument="cymbal"
			Pattern Name="Pattern 3" Color="ffff75"
				Note Time="0" Value="F#3" Duration="8" Instrument="cymbal"
				Note Time="8" Value="D#3" Duration="8" Instrument="cymbal"
			Pattern Name="Pattern 4" Color="3ce8fd"
				Note Time="0" Value="F#3" Duration="4" Instrument="cymbal"
				Note Time="4" Value="F#3" Duration="4" Instrument="cymbal" Volume="7"
				Note Time="8" Value="F#3" Duration="4" Instrument="cymbal" Volume="5"
				Note Time="12" Value="F#3" Duration="3" Instrument="cymbal" Volume="2"
				Note Time="15" Volume="15"
			Pattern Name="Pattern 5" Color="ffc83c"
				Note Time="10" Value="F#3" Duration="1" Instrument="cymbal"
			Pattern Name="Pattern 6" Color="a4db74"
				Note Time="0" Value="F#3" Duration="16" Instrument="cymbal"
				Note Time="10" Volume="6"
				Note Time="13" Volume="3"
				Note Time="15" Volume="1"
			Pattern Name="09" Color="98a7fc"
				Note Time="4" Value="A3" Duration="1" Instrument="snare" Volume="1"
				Note Time="5" Value="A#3" Duration="1" Instrument="snare"
				Note Time="6" Value="A#3" Duration="1" Instrument="snare"
				Note Time="7" Value="A#3" Duration="1" Instrument="snare"
				Note Time="8" Value="A3" Duration="1" Instrument="snare" Volume="2"
				Note Time="9" Value="A#3" Duration="1" Instrument="snare"
				Note Time="10" Value="A#3" Duration="1" Instrument="snare"
				Note Time="11" Value="A#3" Duration="1" Instrument="snare"
				Note Time="12" Value="A3" Duration="1" Instrument="snare" Volume="3"
				Note Time="13" Value="A#3" Duration="1" Instrument="snare"
				Note Time="14" Value="A#3" Duration="1" Instrument="snare"
				Note Time="15" Value="A#3" Duration="1" Instrument="snare"
			Pattern Name="0B" Color="fffd43"
				Note Time="0" Value="A3" Duration="1" Instrument="snare" Volume="8"
				Note Time="1" Value="A#3" Duration="1" Instrument="snare"
				Note Time="2" Value="A#3" Duration="1" Instrument="snare"
				Note Time="3" Value="A#3" Duration="1" Instrument="snare"
				Note Time="4" Value="A3" Duration="1" Instrument="snare" Volume="9"
				Note Time="5" Value="A#3" Duration="1" Instrument="snare"
				Note Time="6" Value="A#3" Duration="1" Instrument="snare"
				Note Time="7" Value="A#3" Duration="1" Instrument="snare"
				Note Time="8" Value="A3" Duration="1" Instrument="snare" Volume="10"
				Note Time="9" Value="A#3" Duration="1" Instrument="snare"
				Note Time="10" Value="A#3" Duration="1" Instrument="snare"
				Note Time="11" Value="A#3" Duration="1" Instrument="snare"
				Note Time="12" Value="A3" Duration="1" Instrument="snare" Volume="11"
				Note Time="13" Value="A#3" Duration="1" Instrument="snare"
				Note Time="14" Value="A#3" Duration="1" Instrument="snare"
				Note Time="15" Value="A#3" Duration="1" Instrument="snare"
			Pattern Name="0C" Color="7fdc83"
				Note Time="8" Value="F3" Duration="6" Instrument="cymbal"
			Pattern Name="0D" Color="55b2ff"
				Note Time="0" Value="A#3" Duration="4" Instrument="snare" Volume="15"
				Note Time="8" Value="A#3" Duration="1" Instrument="snare"
				Note Time="9" Value="A#3" Duration="1" Instrument="snare"
				Note Time="10" Value="A#3" Duration="1" Instrument="snare"
				Note Time="11" Value="A#3" Duration="1" Instrument="snare"
				Note Time="12" Value="A#3" Duration="1" Instrument="snare"
				Note Time="13" Value="A#3" Duration="1" Instrument="snare"
				Note Time="14" Value="A#3" Duration="1" Instrument="snare"
				Note Time="15" Value="A#3" Duration="1" Instrument="snare"
			Pattern Name="0E" Color="e95093"
				Note Time="0" Value="A3" Duration="1" Instrument="snare" Volume="12"
				Note Time="1" Value="A#3" Duration="1" Instrument="snare"
				Note Time="2" Value="A#3" Duration="1" Instrument="snare"
				Note Time="3" Value="A#3" Duration="1" Instrument="snare"
				Note Time="4" Value="A3" Duration="1" Instrument="snare" Volume="13"
				Note Time="5" Value="A#3" Duration="1" Instrument="snare"
				Note Time="6" Value="A#3" Duration="1" Instrument="snare"
				Note Time="7" Value="A#3" Duration="1" Instrument="snare"
				Note Time="8" Value="A3" Duration="1" Instrument="snare" Volume="14"
				Note Time="9" Value="A#3" Duration="1" Instrument="snare"
				Note Time="10" Value="A#3" Duration="1" Instrument="snare"
				Note Time="11" Value="A#3" Duration="1" Instrument="snare"
				Note Time="12" Value="A3" Duration="1" Instrument="snare" Volume="15"
				Note Time="13" Value="A#3" Duration="1" Instrument="snare"
				Note Time="14" Value="A#3" Duration="1" Instrument="snare"
				Note Time="15" Value="A#3" Duration="1" Instrument="snare"
			Pattern Name="10" Color="eaffbd"
				Note Time="0" Value="F3" Duration="8" Release="3" Instrument="cymbal"
			PatternInstance Time="0" Pattern="00"
			PatternInstance Time="1" Pattern="01"
			PatternInstance Time="2" Pattern="00"
			PatternInstance Time="3" Pattern="01"
			PatternInstance Time="4" Pattern="02"
			PatternInstance Time="5" Pattern="01"
			PatternInstance Time="6" Pattern="01"
			PatternInstance Time="7" Pattern="01"
			PatternInstance Time="8" Pattern="01"
			PatternInstance Time="9" Pattern="03"
			PatternInstance Time="10" Pattern="04"
			PatternInstance Time="11" Pattern="04"
			PatternInstance Time="12" Pattern="04"
			PatternInstance Time="13" Pattern="05"
			PatternInstance Time="14" Pattern="05"
			PatternInstance Time="15" Pattern="Pattern 1"
			PatternInstance Time="16" Pattern="Pattern 2"
			PatternInstance Time="17" Pattern="04"
			PatternInstance Time="18" Pattern="04"
			PatternInstance Time="19" Pattern="04"
			PatternInstance Time="20" Pattern="04"
			PatternInstance Time="21" Pattern="05"
			PatternInstance Time="22" Pattern="06"
			PatternInstance Time="23" Pattern="06"
			PatternInstance Time="24" Pattern="06"
			PatternInstance Time="25" Pattern="05"
			PatternInstance Time="26" Pattern="06"
			PatternInstance Time="27" Pattern="06"
			PatternInstance Time="28" Pattern="06"
			PatternInstance Time="29" Pattern="05"
			PatternInstance Time="30" Pattern="06"
			PatternInstance Time="31" Pattern="06"
			PatternInstance Time="32" Pattern="06"
			PatternInstance Time="33" Pattern="07"
			PatternInstance Time="35" Pattern="Pattern 3"
			PatternInstance Time="36" Pattern="Pattern 4"
			PatternInstance Time="37" Pattern="Pattern 5"
			PatternInstance Time="39" Pattern="Pattern 6"
			PatternInstance Time="40" Pattern="09"
			PatternInstance Time="41" Pattern="0B"
			PatternInstance Time="42" Pattern="05"
			PatternInstance Time="43" Pattern="06"
			PatternInstance Time="44" Pattern="06"
			PatternInstance Time="45" Pattern="06"
			PatternInstance Time="46" Pattern="05"
			PatternInstance Time="47" Pattern="06"
			PatternInstance Time="48" Pattern="06"
			PatternInstance Time="49" Pattern="06"
			PatternInstance Time="50" Pattern="05"
			PatternInstance Time="51" Pattern="05"
			PatternInstance Time="52" Pattern="05"
			PatternInstance Time="53" Pattern="Pattern 1"
			PatternInstance Time="54" Pattern="05"
			PatternInstance Time="55" Pattern="05"
			PatternInstance Time="56" Pattern="05"
			PatternInstance Time="57" Pattern="Pattern 1"
			PatternInstance Time="58" Pattern="0B"
			PatternInstance Time="59" Pattern="05"
			PatternInstance Time="60" Pattern="06"
			PatternInstance Time="61" Pattern="06"
			PatternInstance Time="62" Pattern="06"
			PatternInstance Time="63" Pattern="05"
			PatternInstance Time="64" Pattern="06"
			PatternInstance Time="65" Pattern="06"
			PatternInstance Time="66" Pattern="06"
			PatternInstance Time="67" Pattern="05"
			PatternInstance Time="68" Pattern="06"
			PatternInstance Time="69" Pattern="06"
			PatternInstance Time="70" Pattern="06"
			PatternInstance Time="71" Pattern="0C"
			PatternInstance Time="72" Pattern="Pattern 6"
			PatternInstance Time="73" Pattern="09"
			PatternInstance Time="74" Pattern="0B"
			PatternInstance Time="75" Pattern="07"
			PatternInstance Time="76" Pattern="07"
			PatternInstance Time="77" Pattern="07"
			PatternInstance Time="78" Pattern="07"
			PatternInstance Time="79" Pattern="07"
			PatternInstance Time="80" Pattern="07"
			PatternInstance Time="81" Pattern="07"
			PatternInstance Time="82" Pattern="0D"
			PatternInstance Time="83" Pattern="05"
			PatternInstance Time="84" Pattern="06"
			PatternInstance Time="85" Pattern="06"
			PatternInstance Time="86" Pattern="06"
			PatternInstance Time="87" Pattern="05"
			PatternInstance Time="88" Pattern="06"
			PatternInstance Time="89" Pattern="06"
			PatternInstance Time="90" Pattern="06"
			PatternInstance Time="91" Pattern="05"
			PatternInstance Time="92" Pattern="06"
			PatternInstance Time="93" Pattern="06"
			PatternInstance Time="94" Pattern="06"
			PatternInstance Time="95" Pattern="05"
			PatternInstance Time="96" Pattern="06"
			PatternInstance Time="97" Pattern="06"
			PatternInstance Time="98" Pattern="06"
			PatternInstance Time="99" Pattern="0B"
			PatternInstance Time="100" Pattern="0E"
			PatternInstance Time="101" Pattern="10"
			PatternInstance Time="102" Pattern="09"
			PatternInstance Time="103" Pattern="0B"
			PatternInstance Time="104" Pattern="0E"
			PatternInstance Time="105" Pattern="10"
		Channel Type="DPCM"
			Pattern Name="00" Color="d863ec"
				Note Time="0" Value="E5" Duration="4" Instrument="DMC: drums + bass"
			Pattern Name="01" Color="ff935e"
				Note Time="0" Value="E5" Duration="2" Instrument="DMC: drums + bass"
				Note Time="2" Value="F4" Duration="2" Instrument="DMC: drums + bass"
				Note Time="4" Value="E5" Duration="2" Instrument="DMC: drums + bass"
				Note Time="6" Value="C#4" Duration="2" Instrument="DMC: drums + bass"
				Note Time="8" Value="E5" Duration="2" Instrument="DMC: drums + bass"
				Note Time="10" Value="C4" Duration="2" Instrument="DMC: drums + bass"
				Note Time="12" Value="E5" Duration="2" Instrument="DMC: drums + bass"
				Note Time="14" Value="C#4" Duration="2" Instrument="DMC: drums + bass"
			Pattern Name="02" Color="fcff6f"
				Note Time="0" Value="E5" Duration="2" Instrument="DMC: drums + bass"
				Note Time="2" Value="F4" Duration="2" Instrument="DMC: drums + bass"
				Note Time="4" Value="E5" Duration="2" Instrument="DMC: drums + bass"
				Note Time="6" Value="C#4" Duration="2" Instrument="DMC: drums + bass"
				Note Time="8" Value="E5" Duration="2" Instrument="DMC: drums + bass"
				Note Time="10" Value="C4" Duration="2" Instrument="DMC: drums + bass"
				Note Time="12" Value="E5" Duration="2" Instrument="DMC: drums + bass"
				Note Time="14" Value="A#3" Duration="2" Instrument="DMC: drums + bass"
			Pattern Name="03" Color="3cd3e3"
				Note Time="0" Value="E5" Duration="2" Instrument="DMC: drums + bass"
				Note Time="2" Value="C#4" Duration="2" Instrument="DMC: drums + bass"
				Note Time="4" Value="E5" Duration="2" Instrument="DMC: drums + bass"
				Note Time="6" Value="E4" Duration="2" Instrument="DMC: drums + bass"
				Note Time="8" Value="E5" Duration="2" Instrument="DMC: drums + bass"
				Note Time="10" Value="E4" Duration="2" Instrument="DMC: drums + bass"
				Note Time="12" Value="E5" Duration="2" Instrument="DMC: drums + bass"
				Note Time="14" Value="E4" Duration="2" Instrument="DMC: drums + bass"
			Pattern Name="04" Color="8163dc"
				Note Time="0" Value="E5" Duration="2" Instrument="DMC: drums + bass"
				Note Time="2" Value="F4" Duration="2" Instrument="DMC: drums + bass"
				Note Time="4" Value="E5" Duration="2" Instrument="DMC: drums + bass"
				Note Time="6" Value="C#4" Duration="2" Instrument="DMC: drums + bass"
				Note Time="8" Value="E5" Duration="2" Instrument="DMC: drums + bass"
				Note Time="10" Value="C4" Duration="2" Instrument="DMC: drums + bass"
				Note Time="12" Value="E5" Duration="2" Instrument="DMC: drums + bass"
				Note Time="14" Value="F4" Duration="2" Instrument="DMC: drums + bass"
			Pattern Name="05" Color="8a706a"
				Note Time="0" Value="E5" Duration="2" Instrument="DMC: drums + bass"
				Note Time="4" Value="E5" Duration="2" Instrument="DMC: drums + bass"
				Note Time="8" Value="E5" Duration="2" Instrument="DMC: drums + bass"
				Note Time="12" Value="E5" Duration="2" Instrument="DMC: drums + bass"
			Pattern Name="06" Color="ffffb2"
				Note Time="0" Value="E5" Duration="2" Instrument="DMC: drums + bass"
				Note Time="2" Value="C#4" Duration="2" Instrument="DMC: drums + bass"
				Note Time="4" Value="E5" Duration="2" Instrument="DMC: drums + bass"
				Note Time="6" Value="C#4" Duration="2" Instrument="DMC: drums + bass"
				Note Time="8" Value="E5" Duration="2" Instrument="DMC: drums + bass"
				Note Time="10" Value="C#4" Duration="2" Instrument="DMC: drums + bass"
				Note Time="12" Value="E5" Duration="2" Instrument="DMC: drums + bass"
				Note Time="14" Value="C#4" Duration="2" Instrument="DMC: drums + bass"
			Pattern Name="07" Color="62e2d6"
				Note Time="0" Value="E5" Duration="2" Instrument="DMC: drums + bass"
				Note Time="2" Value="D#4" Duration="2" Instrument="DMC: drums + bass"
				Note Time="4" Value="E5" Duration="2" Instrument="DMC: drums + bass"
				Note Time="6" Value="D#4" Duration="2" Instrument="DMC: drums + bass"
				Note Time="8" Value="E5" Duration="2" Instrument="DMC: drums + bass"
				Note Time="10" Value="D#4" Duration="2" Instrument="DMC: drums + bass"
				Note Time="12" Value="E5" Duration="2" Instrument="DMC: drums + bass"
				Note Time="14" Value="D#4" Duration="2" Instrument="DMC: drums + bass"
			Pattern Name="08" Color="7b8df1"
				Note Time="0" Value="E5" Duration="2" Instrument="DMC: drums + bass"
				Note Time="2" Value="E4" Duration="2" Instrument="DMC: drums + bass"
				Note Time="4" Value="E5" Duration="2" Instrument="DMC: drums + bass"
				Note Time="6" Value="E4" Duration="2" Instrument="DMC: drums + bass"
				Note Time="8" Value="E5" Duration="2" Instrument="DMC: drums + bass"
				Note Time="10" Value="E4" Duration="2" Instrument="DMC: drums + bass"
				Note Time="12" Value="E5" Duration="2" Instrument="DMC: drums + bass"
				Note Time="14" Value="E4" Duration="2" Instrument="DMC: drums + bass"
			Pattern Name="09" Color="ff7571"
				Note Time="0" Value="E5" Duration="2" Instrument="DMC: drums + bass"
				Note Time="2" Value="G#4" Duration="2" Instrument="DMC: drums + bass"
				Note Time="4" Value="E5" Duration="2" Instrument="DMC: drums + bass"
				Note Time="6" Value="G#4" Duration="2" Instrument="DMC: drums + bass"
				Note Time="8" Value="E5" Duration="2" Instrument="DMC: drums + bass"
				Note Time="10" Value="G#4" Duration="2" Instrument="DMC: drums + bass"
				Note Time="12" Value="E5" Duration="2" Instrument="DMC: drums + bass"
				Note Time="14" Value="G#4" Duration="2" Instrument="DMC: drums + bass"
			Pattern Name="0A" Color="ffef3c"
				Note Time="0" Value="E5" Duration="2" Instrument="DMC: drums + bass"
				Note Time="2" Value="E4" Duration="2" Instrument="DMC: drums + bass"
				Note Time="4" Value="E5" Duration="2" Instrument="DMC: drums + bass"
				Note Time="6" Value="E4" Duration="2" Instrument="DMC: drums + bass"
				Note Time="8" Value="E5" Duration="2" Instrument="DMC: drums + bass"
				Note Time="10" Value="F#4" Duration="2" Instrument="DMC: drums + bass"
				Note Time="12" Value="E5" Duration="2" Instrument="DMC: drums + bass"
				Note Time="14" Value="F#4" Duration="2" Instrument="DMC: drums + bass"
			Pattern Name="Pattern 1" Color="ff8f8c"
				Note Time="0" Value="E5" Duration="2" Instrument="DMC: drums + bass"
				Note Time="2" Value="C#4" Duration="2" Instrument="DMC: drums + bass"
				Note Time="4" Value="F5" Duration="2" Instrument="DMC: drums + bass"
				Note Time="6" Value="C#4" Duration="2" Instrument="DMC: drums + bass"
				Note Time="8" Value="E5" Duration="2" Instrument="DMC: drums + bass"
				Note Time="10" Value="C#4" Duration="2" Instrument="DMC: drums + bass"
				Note Time="12" Value="F5" Duration="2" Instrument="DMC: drums + bass"
				Note Time="14" Value="C#4" Duration="2" Instrument="DMC: drums + bass"
			Pattern Name="Pattern 2" Color="ffff64"
				Note Time="0" Value="E5" Duration="2" Instrument="DMC: drums + bass"
				Note Time="2" Value="D#4" Duration="2" Instrument="DMC: drums + bass"
				Note Time="4" Value="F5" Duration="2" Instrument="DMC: drums + bass"
				Note Time="6" Value="D#4" Duration="2" Instrument="DMC: drums + bass"
				Note Time="8" Value="E5" Duration="2" Instrument="DMC: drums + bass"
				Note Time="10" Value="D#4" Duration="2" Instrument="DMC: drums + bass"
				Note Time="12" Value="F5" Duration="2" Instrument="DMC: drums + bass"
				Note Time="14" Value="D#4" Duration="2" Instrument="DMC: drums + bass"
			Pattern Name="Pattern 3" Color="88eb8c"
				Note Time="0" Value="E5" Duration="2" Instrument="DMC: drums + bass"
				Note Time="2" Value="E4" Duration="2" Instrument="DMC: drums + bass"
				Note Time="4" Value="F5" Duration="2" Instrument="DMC: drums + bass"
				Note Time="6" Value="E4" Duration="2" Instrument="DMC: drums + bass"
				Note Time="8" Value="E5" Duration="2" Instrument="DMC: drums + bass"
				Note Time="10" Value="F#4" Duration="2" Instrument="DMC: drums + bass"
				Note Time="12" Value="F5" Duration="2" Instrument="DMC: drums + bass"
				Note Time="14" Value="F#4" Duration="2" Instrument="DMC: drums + bass"
			Pattern Name="Pattern 4" Color="5ac4ff"
				Note Time="0" Value="E5" Duration="2" Instrument="DMC: drums + bass"
				Note Time="2" Value="G#4" Duration="2" Instrument="DMC: drums + bass"
				Note Time="4" Value="F5" Duration="2" Instrument="DMC: drums + bass"
				Note Time="6" Value="G#4" Duration="2" Instrument="DMC: drums + bass"
				Note Time="8" Value="E5" Duration="2" Instrument="DMC: drums + bass"
				Note Time="10" Value="G#4" Duration="2" Instrument="DMC: drums + bass"
				Note Time="12" Value="F5" Duration="2" Instrument="DMC: drums + bass"
				Note Time="14" Value="G#4" Duration="2" Instrument="DMC: drums + bass"
			Pattern Name="0E" Color="fff389"
				Note Time="0" Value="E5" Duration="2" Instrument="DMC: drums + bass"
				Note Time="2" Value="C#4" Duration="2" Instrument="DMC: drums + bass"
				Note Time="4" Value="F5" Duration="2" Instrument="DMC: drums + bass"
				Note Time="6" Value="C#4" Duration="2" Instrument="DMC: drums + bass"
				Note Time="8" Value="E5" Duration="2" Instrument="DMC: drums + bass"
				Note Time="10" Value="C#4" Duration="2" Instrument="DMC: drums + bass"
				Note Time="12" Value="F5" Duration="2" Instrument="DMC: drums + bass"
				Note Time="14" Value="E4" Duration="2" Instrument="DMC: drums + bass"
			Pattern Name="0F" Color="d8ffa1"
				Note Time="0" Value="E5" Duration="2" Instrument="DMC: drums + bass"
				Note Time="2" Value="D#4" Duration="2" Instrument="DMC: drums + bass"
				Note Time="4" Value="F5" Duration="2" Instrument="DMC: drums + bass"
				Note Time="6" Value="D#4" Duration="2" Instrument="DMC: drums + bass"
				Note Time="8" Value="E5" Duration="2" Instrument="DMC: drums + bass"
				Note Time="10" Value="D#4" Duration="2" Instrument="DMC: drums + bass"
				Note Time="12" Value="F5" Duration="2" Instrument="DMC: drums + bass"
				Note Time="14" Value="F#4" Duration="2" Instrument="DMC: drums + bass"
			Pattern Name="0D" Color="ff9ece"
				Note Time="0" Value="E5" Duration="2" Instrument="DMC: drums + bass"
				Note Time="2" Value="E4" Duration="2" Instrument="DMC: drums + bass"
				Note Time="4" Value="E5" Duration="2" Instrument="DMC: drums + bass"
				Note Time="6" Value="E4" Duration="2" Instrument="DMC: drums + bass"
				Note Time="8" Value="E5" Duration="2" Instrument="DMC: drums + bass"
				Note Time="10" Value="F#4" Duration="2" Instrument="DMC: drums + bass"
				Note Time="12" Value="E5" Duration="2" Instrument="DMC: drums + bass"
				Note Time="14" Value="F#4" Duration="2" Instrument="DMC: drums + bass"
			Pattern Name="0C" Color="51a1fc"
				Note Time="0" Value="E5" Duration="2" Instrument="DMC: drums + bass"
				Note Time="2" Value="G#4" Duration="2" Instrument="DMC: drums + bass"
				Note Time="4" Value="E5" Duration="2" Instrument="DMC: drums + bass"
				Note Time="6" Value="G#4" Duration="2" Instrument="DMC: drums + bass"
				Note Time="8" Value="E5" Duration="2" Instrument="DMC: drums + bass"
				Note Time="10" Value="G#4" Duration="2" Instrument="DMC: drums + bass"
				Note Time="12" Value="E5" Duration="2" Instrument="DMC: drums + bass"
				Note Time="14" Value="G#4" Duration="2" Instrument="DMC: drums + bass"
			Pattern Name="10" Color="3fe5ff"
			Pattern Name="12" Color="ff8d5a"
				Note Time="0" Value="F5" Duration="4" Instrument="DMC: drums + bass"
				Note Time="4" Value="F5" Duration="4" Instrument="DMC: drums + bass"
				Note Time="8" Value="F5" Duration="4" Instrument="DMC: drums + bass"
				Note Time="12" Value="F5" Duration="4" Instrument="DMC: drums + bass"
			Pattern Name="13" Color="ebf067"
				Note Time="0" Value="E5" Duration="2" Instrument="DMC: drums + bass"
				Note Time="2" Value="F#4" Duration="2" Instrument="DMC: drums + bass"
				Note Time="4" Value="F5" Duration="2" Instrument="DMC: drums + bass"
				Note Time="6" Value="F#4" Duration="2" Instrument="DMC: drums + bass"
				Note Time="8" Value="E5" Duration="2" Instrument="DMC: drums + bass"
				Note Time="10" Value="F#4" Duration="2" Instrument="DMC: drums + bass"
				Note Time="12" Value="F5" Duration="2" Instrument="DMC: drums + bass"
				Note Time="14" Value="F#4" Duration="2" Instrument="DMC: drums + bass"
			Pattern Name="14" Color="3cbfcb"
				Note Time="0" Value="E5" Duration="2" Instrument="DMC: drums + bass"
				Note Time="2" Value="E4" Duration="2" Instrument="DMC: drums + bass"
				Note Time="4" Value="F5" Duration="2" Instrument="DMC: drums + bass"
				Note Time="6" Value="E4" Duration="2" Instrument="DMC: drums + bass"
				Note Time="8" Value="E5" Duration="2" Instrument="DMC: drums + bass"
				Note Time="10" Value="E4" Duration="2" Instrument="DMC: drums + bass"
				Note Time="12" Value="F5" Duration="2" Instrument="DMC: drums + bass"
				Note Time="14" Value="E4" Duration="2" Instrument="DMC: drums + bass"
			Pattern Name="15" Color="d1b1ff"
				Note Time="0" Value="E5" Duration="2" Instrument="DMC: drums + bass"
				Note Time="2" Value="D#4" Duration="2" Instrument="DMC: drums + bass"
				Note Time="4" Value="F5" Duration="2" Instrument="DMC: drums + bass"
				Note Time="6" Value="D#4" Duration="2" Instrument="DMC: drums + bass"
				Note Time="8" Value="E5" Duration="2" Instrument="DMC: drums + bass"
				Note Time="10" Value="D#4" Duration="2" Instrument="DMC: drums + bass"
				Note Time="12" Value="F5" Duration="2" Instrument="DMC: drums + bass"
				Note Time="14" Value="D#4" Duration="2" Instrument="DMC: drums + bass"
			Pattern Name="16" Color="ddc4bb"
				Note Time="0" Value="E5" Duration="2" Instrument="DMC: drums + bass"
				Note Time="4" Value="F5" Duration="2" Instrument="DMC: drums + bass"
				Note Time="8" Value="E5" Duration="2" Instrument="DMC: drums + bass"
				Note Time="12" Value="F5" Duration="2" Instrument="DMC: drums + bass"
			Pattern Name="17" Color="ffff94"
			Pattern Name="18" Color="3cd2c4"
				Note Time="0" Value="F5" Duration="4" Instrument="DMC: drums + bass"
				Note Time="8" Value="F5" Duration="1" Instrument="DMC: drums + bass"
				Note Time="9" Value="F5" Duration="1" Instrument="DMC: drums + bass"
				Note Time="10" Value="F5" Duration="1" Instrument="DMC: drums + bass"
				Note Time="11" Value="F5" Duration="1" Instrument="DMC: drums + bass"
				Note Time="12" Value="F5" Duration="1" Instrument="DMC: drums + bass"
				Note Time="13" Value="F5" Duration="1" Instrument="DMC: drums + bass"
				Note Time="14" Value="F5" Duration="1" Instrument="DMC: drums + bass"
				Note Time="15" Value="F5" Duration="1" Instrument="DMC: drums + bass"
			Pattern Name="19" Color="7585e7"
				Note Time="0" Value="E5" Duration="2" Instrument="DMC: drums + bass"
				Note Time="2" Value="B3" Duration="2" Instrument="DMC: drums + bass"
				Note Time="4" Value="F5" Duration="2" Instrument="DMC: drums + bass"
				Note Time="6" Value="B3" Duration="2" Instrument="DMC: drums + bass"
				Note Time="8" Value="E5" Duration="2" Instrument="DMC: drums + bass"
				Note Time="10" Value="B3" Duration="2" Instrument="DMC: drums + bass"
				Note Time="12" Value="F5" Duration="2" Instrument="DMC: drums + bass"
				Note Time="14" Value="B3" Duration="2" Instrument="DMC: drums + bass"
			Pattern Name="Pattern 5" Color="8a706a"
				Note Time="0" Value="F5" Duration="16" Instrument="DMC: drums + bass"
			PatternInstance Time="0" Pattern="00"
			PatternInstance Time="1" Pattern="01"
			PatternInstance Time="2" Pattern="00"
			PatternInstance Time="3" Pattern="02"
			PatternInstance Time="4" Pattern="03"
			PatternInstance Time="5" Pattern="04"
			PatternInstance Time="6" Pattern="03"
			PatternInstance Time="7" Pattern="02"
			PatternInstance Time="8" Pattern="05"
			PatternInstance Time="9" Pattern="06"
			PatternInstance Time="10" Pattern="07"
			PatternInstance Time="11" Pattern="08"
			PatternInstance Time="12" Pattern="09"
			PatternInstance Time="13" Pattern="06"
			PatternInstance Time="14" Pattern="07"
			PatternInstance Time="15" Pattern="08"
			PatternInstance Time="16" Pattern="09"
			PatternInstance Time="17" Pattern="06"
			PatternInstance Time="18" Pattern="07"
			PatternInstance Time="19" Pattern="0A"
			PatternInstance Time="20" Pattern="09"
			PatternInstance Time="21" Pattern="Pattern 1"
			PatternInstance Time="22" Pattern="Pattern 2"
			PatternInstance Time="23" Pattern="Pattern 3"
			PatternInstance Time="24" Pattern="Pattern 4"
			PatternInstance Time="25" Pattern="Pattern 1"
			PatternInstance Time="26" Pattern="Pattern 2"
			PatternInstance Time="27" Pattern="Pattern 3"
			PatternInstance Time="28" Pattern="Pattern 4"
			PatternInstance Time="29" Pattern="0E"
			PatternInstance Time="30" Pattern="0F"
			PatternInstance Time="31" Pattern="0D"
			PatternInstance Time="32" Pattern="0C"
			PatternInstance Time="33" Pattern="10"
			PatternInstance Time="41" Pattern="12"
			PatternInstance Time="42" Pattern="0C"
			PatternInstance Time="43" Pattern="13"
			PatternInstance Time="44" Pattern="14"
			PatternInstance Time="45" Pattern="15"
			PatternInstance Time="46" Pattern="0C"
			PatternInstance Time="47" Pattern="13"
			PatternInstance Time="48" Pattern="14"
			PatternInstance Time="49" Pattern="15"
			PatternInstance Time="50" Pattern="0C"
			PatternInstance Time="51" Pattern="13"
			PatternInstance Time="52" Pattern="14"
			PatternInstance Time="53" Pattern="15"
			PatternInstance Time="54" Pattern="0C"
			PatternInstance Time="55" Pattern="13"
			PatternInstance Time="56" Pattern="14"
			PatternInstance Time="57" Pattern="15"
			PatternInstance Time="58" Pattern="12"
			PatternInstance Time="59" Pattern="Pattern 1"
			PatternInstance Time="60" Pattern="Pattern 2"
			PatternInstance Time="61" Pattern="Pattern 3"
			PatternInstance Time="62" Pattern="Pattern 4"
			PatternInstance Time="63" Pattern="0E"
			PatternInstance Time="64" Pattern="0F"
			PatternInstance Time="65" Pattern="0D"
			PatternInstance Time="66" Pattern="0C"
			PatternInstance Time="67" Pattern="16"
			PatternInstance Time="68" Pattern="16"
			PatternInstance Time="69" Pattern="16"
			PatternInstance Time="70" Pattern="16"
			PatternInstance Time="74" Pattern="12"
			PatternInstance Time="75" Pattern="17"
			PatternInstance Time="82" Pattern="18"
			PatternInstance Time="83" Pattern="0C"
			PatternInstance Time="84" Pattern="13"
			PatternInstance Time="85" Pattern="14"
			PatternInstance Time="86" Pattern="19"
			PatternInstance Time="87" Pattern="0C"
			PatternInstance Time="88" Pattern="13"
			PatternInstance Time="89" Pattern="14"
			PatternInstance Time="90" Pattern="19"
			PatternInstance Time="91" Pattern="0C"
			PatternInstance Time="92" Pattern="13"
			PatternInstance Time="93" Pattern="14"
			PatternInstance Time="94" Pattern="19"
			PatternInstance Time="95" Pattern="0C"
			PatternInstance Time="96" Pattern="13"
			PatternInstance Time="97" Pattern="14"
			PatternInstance Time="98" Pattern="19"
			PatternInstance Time="99" Pattern="12"
			PatternInstance Time="100" Pattern="12"
			PatternInstance Time="101" Pattern="Pattern 5"
			PatternInstance Time="103" Pattern="12"
			PatternInstance Time="104" Pattern="12"
			PatternInstance Time="105" Pattern="Pattern 5"
	Song Name="retray" Color="a657d6" Folder="Custom music used in the game" Length="40" LoopPoint="0" PatternLength="16" BeatLength="4" FamiTrackerTempo="140" FamiTrackerSpeed="6"
		Channel Type="Square1"
			Pattern Name="20" Color="eaffbd"
				Note Time="0" Value="C3" Duration="2" Instrument="echo"
			Pattern Name="1" Color="fffc69"
				Note Time="0" Value="E3" Duration="2" Release="1" Instrument="clutterfunk sax" Volume="6" DutyCycle="1"
				Note Time="2" Value="E3" Duration="4" Release="2" Instrument="clutterfunk sax"
				Note Time="6" Value="A3" Duration="2" Release="1" Instrument="clutterfunk sax"
				Note Time="8" Value="A3" Duration="2" Release="1" Instrument="clutterfunk sax"
				Note Time="10" Value="C4" Duration="2" Release="1" Instrument="clutterfunk sax"
				Note Time="12" Value="G3" Duration="4" Release="2" Instrument="clutterfunk sax"
			Pattern Name="2" Color="3ca598"
				Note Time="0" Value="A3" Duration="4" Release="2" Instrument="clutterfunk sax" Volume="8" DutyCycle="1"
				Note Time="4" Value="A3" Duration="2" Release="1" Instrument="clutterfunk sax"
				Note Time="6" Value="G3" Duration="2" Release="1" Instrument="clutterfunk sax"
				Note Time="8" Value="A3" Duration="4" Release="2" Instrument="clutterfunk sax"
				Note Time="12" Value="A3" Duration="4" Release="2" Instrument="clutterfunk sax"
			Pattern Name="3" Color="b5c2ff"
				Note Time="0" Value="A3" Duration="2" Release="1" Instrument="clutterfunk sax" Volume="10" DutyCycle="1"
				Note Time="2" Value="C4" Duration="4" Release="2" Instrument="clutterfunk sax"
				Note Time="6" Value="A3" Duration="2" Release="1" Instrument="clutterfunk sax"
				Note Time="8" Value="G3" Duration="4" Release="2" Instrument="clutterfunk sax"
				Note Time="12" Value="G3" Duration="4" Release="2" Instrument="clutterfunk sax"
			Pattern Name="4" Color="ff8f8c"
				Note Time="0" Value="A3" Duration="2" Release="1" Instrument="clutterfunk sax" Volume="11"
				Note Time="2" Value="C4" Duration="4" Release="2" Instrument="clutterfunk sax"
				Note Time="6" Value="G3" Duration="2" Release="1" Instrument="clutterfunk sax"
				Note Time="8" Value="A3" Duration="4" Release="2" Instrument="clutterfunk sax"
				Note Time="12" Value="A3" Duration="4" Release="2" Instrument="clutterfunk sax"
			Pattern Name="5" Color="ffff64"
				Note Time="0" Value="E3" Duration="2" Release="1" Instrument="clutterfunk sax" Volume="12"
				Note Time="2" Value="E3" Duration="4" Release="2" Instrument="clutterfunk sax"
				Note Time="6" Value="A3" Duration="2" Release="1" Instrument="clutterfunk sax"
				Note Time="8" Value="A3" Duration="2" Release="1" Instrument="clutterfunk sax"
				Note Time="10" Value="C4" Duration="2" Release="1" Instrument="clutterfunk sax"
				Note Time="12" Value="G3" Duration="4" Release="2" Instrument="clutterfunk sax"
			Pattern Name="6" Color="88eb8c"
				Note Time="0" Value="A3" Duration="4" Release="2" Instrument="clutterfunk sax" Volume="13"
				Note Time="4" Value="A3" Duration="2" Release="1" Instrument="clutterfunk sax"
				Note Time="6" Value="G3" Duration="2" Release="1" Instrument="clutterfunk sax"
				Note Time="8" Value="A3" Duration="4" Release="2" Instrument="clutterfunk sax"
				Note Time="12" Value="A3" Duration="4" Release="2" Instrument="clutterfunk sax"
			Pattern Name="7" Color="5ac4ff"
				Note Time="0" Value="A3" Duration="2" Release="1" Instrument="clutterfunk sax" Volume="14"
				Note Time="2" Value="C4" Duration="4" Release="2" Instrument="clutterfunk sax"
				Note Time="6" Value="A3" Duration="2" Release="1" Instrument="clutterfunk sax"
				Note Time="8" Value="G3" Duration="4" Release="2" Instrument="clutterfunk sax"
				Note Time="12" Value="G3" Duration="4" Release="2" Instrument="clutterfunk sax"
			Pattern Name="8" Color="fe5497"
				Note Time="0" Value="A3" Duration="2" Release="1" Instrument="clutterfunk sax" Volume="15"
				Note Time="2" Value="C4" Duration="4" Release="2" Instrument="clutterfunk sax"
				Note Time="6" Value="G3" Duration="2" Release="1" Instrument="clutterfunk sax"
				Note Time="8" Value="A3" Duration="4" Release="2" Instrument="clutterfunk sax"
				Note Time="12" Value="A3" Duration="4" Release="2" Instrument="clutterfunk sax"
			Pattern Name="9" Color="ffb83c"
				Note Time="0" Value="E3" Duration="2" Release="1" Instrument="clutterfunk sax"
				Note Time="2" Value="E3" Duration="4" Release="2" Instrument="clutterfunk sax"
				Note Time="6" Value="A3" Duration="2" Release="1" Instrument="clutterfunk sax"
				Note Time="8" Value="A3" Duration="2" Release="1" Instrument="clutterfunk sax"
				Note Time="10" Value="C4" Duration="2" Release="1" Instrument="clutterfunk sax"
				Note Time="12" Value="G3" Duration="4" Release="2" Instrument="clutterfunk sax"
			Pattern Name="10" Color="91c76b"
				Note Time="0" Value="G3" Duration="4" Release="2" Instrument="clutterfunk sax"
				Note Time="4" Value="A3" Duration="2" Release="1" Instrument="clutterfunk sax"
				Note Time="6" Value="G3" Duration="2" Release="1" Instrument="clutterfunk sax"
				Note Time="8" Value="A3" Duration="4" Release="2" Instrument="clutterfunk sax"
				Note Time="12" Value="A3" Duration="4" Release="2" Instrument="clutterfunk sax"
			Pattern Name="11" Color="8bffff"
				Note Time="0" Value="A3" Duration="2" Release="1" Instrument="clutterfunk sax"
				Note Time="2" Value="C4" Duration="4" Release="2" Instrument="clutterfunk sax"
				Note Time="6" Value="A3" Duration="2" Release="1" Instrument="clutterfunk sax"
				Note Time="8" Value="G3" Duration="4" Release="2" Instrument="clutterfunk sax"
				Note Time="12" Value="G3" Duration="4" Release="2" Instrument="clutterfunk sax"
			Pattern Name="12" Color="e783f8"
				Note Time="0" Value="A3" Duration="2" Release="1" Instrument="clutterfunk sax"
				Note Time="2" Value="C4" Duration="4" Release="2" Instrument="clutterfunk sax"
				Note Time="6" Value="G3" Duration="2" Release="1" Instrument="clutterfunk sax"
				Note Time="8" Value="A3" Duration="4" Release="2" Instrument="clutterfunk sax"
				Note Time="12" Value="A3" Duration="4" Release="2" Instrument="clutterfunk sax"
			Pattern Name="13" Color="8163dc"
				Note Time="0" Value="A3" Duration="2" Release="1" Instrument="clutterfunk sax" VibratoSpeed="6" VibratoDepth="6"
				Note Time="2" Value="C4" Duration="4" Release="2" Instrument="clutterfunk sax"
				Note Time="6" Value="G3" Duration="2" Release="1" Instrument="clutterfunk sax"
				Note Time="8" Value="A3" Duration="4" Release="2" Instrument="clutterfunk sax"
				Note Time="12" Value="A3" Duration="2" Instrument="clutterfunk sax" SlideTarget="A4"
				Note Time="14" VibratoSpeed="0" VibratoDepth="0"
			Pattern Name="14" Color="3fe5ff"
				Note Time="0" Value="E3" Duration="2" Instrument="clutterfunk sax" VibratoSpeed="7" VibratoDepth="1"
				Note Time="2" Value="E4" Duration="2" Instrument="clutterfunk sax"
				Note Time="6" Value="A3" Duration="2" Instrument="clutterfunk sax"
				Note Time="8" Value="A3" Duration="2" Instrument="clutterfunk sax"
				Note Time="10" Value="C4" Duration="2" Instrument="clutterfunk sax"
				Note Time="12" Value="E4" Duration="2" Instrument="clutterfunk sax"
			Pattern Name="15" Color="5dd2ff"
				Note Time="0" Value="A3" Duration="1" Instrument="endgame lead"
				Note Time="2" Value="E4" Duration="2" Instrument="endgame lead"
				Note Time="6" Value="C4" Duration="1" Instrument="endgame lead"
				Note Time="8" Value="A3" Duration="1" Instrument="endgame lead"
				Note Time="10" Value="C4" Duration="1" Instrument="endgame lead"
				Note Time="12" Value="E4" Duration="2" Instrument="endgame lead"
			Pattern Name="16" Color="a4db74"
				Note Time="0" Value="A3" Duration="4" Instrument="echo"
				Note Time="2" Value="E4" Duration="4" Instrument="echo"
				Note Time="6" Value="A3" Duration="2" Instrument="echo"
				Note Time="8" Value="A3" Duration="2" Instrument="echo"
				Note Time="10" Value="C4" Duration="2" Instrument="echo"
				Note Time="12" Value="E4" Duration="4" Instrument="echo"
			Pattern Name="17" Color="3eb3f9"
				Note Time="0" Value="G3" Duration="4" Instrument="echo"
				Note Time="4" Value="A3" Duration="2" Instrument="echo"
				Note Time="6" Value="G3" Duration="2" Instrument="echo"
				Note Time="8" Value="A3" Duration="4" Instrument="echo"
				Note Time="12" Value="A3" Duration="4" Instrument="echo"
			Pattern Name="18" Color="f6a4ff"
				Note Time="0" Value="A3" Duration="2" Instrument="echo"
				Note Time="2" Value="C4" Duration="4" Instrument="echo"
				Note Time="6" Value="A3" Duration="2" Instrument="echo"
				Note Time="8" Value="G3" Duration="4" Instrument="echo"
				Note Time="12" Value="G3" Duration="4" Instrument="echo"
			Pattern Name="19" Color="ffc6a1"
				Note Time="0" Value="A3" Duration="2" Instrument="echo"
				Note Time="2" Value="C4" Duration="4" Instrument="echo"
				Note Time="6" Value="G3" Duration="2" Instrument="echo"
				Note Time="8" Value="A3" Duration="4" Instrument="echo"
				Note Time="12" Value="A3" Duration="4" Instrument="echo"
			PatternInstance Time="1" Pattern="20"
			PatternInstance Time="4" Pattern="1"
			PatternInstance Time="5" Pattern="2"
			PatternInstance Time="6" Pattern="3"
			PatternInstance Time="7" Pattern="4"
			PatternInstance Time="8" Pattern="5"
			PatternInstance Time="9" Pattern="6"
			PatternInstance Time="10" Pattern="7"
			PatternInstance Time="11" Pattern="8"
			PatternInstance Time="12" Pattern="9"
			PatternInstance Time="13" Pattern="10"
			PatternInstance Time="14" Pattern="11"
			PatternInstance Time="15" Pattern="12"
			PatternInstance Time="16" Pattern="9"
			PatternInstance Time="17" Pattern="10"
			PatternInstance Time="18" Pattern="11"
			PatternInstance Time="19" Pattern="13"
			PatternInstance Time="20" Pattern="14"
			PatternInstance Time="21" Pattern="10"
			PatternInstance Time="22" Pattern="11"
			PatternInstance Time="23" Pattern="12"
			PatternInstance Time="24" Pattern="14"
			PatternInstance Time="25" Pattern="10"
			PatternInstance Time="26" Pattern="11"
			PatternInstance Time="27" Pattern="12"
			PatternInstance Time="28" Pattern="15"
			PatternInstance Time="29" Pattern="10"
			PatternInstance Time="30" Pattern="11"
			PatternInstance Time="31" Pattern="12"
			PatternInstance Time="32" Pattern="16"
			PatternInstance Time="33" Pattern="17"
			PatternInstance Time="34" Pattern="18"
			PatternInstance Time="35" Pattern="19"
		Channel Type="Square2"
			Pattern Name="1" Color="ff579c"
				Note Time="0" Value="E3" Duration="4" Instrument="echo"
				Note Time="4" Value="E3" Duration="4" Instrument="echo" Volume="7"
				Note Time="8" Value="E3" Duration="4" Instrument="echo" Volume="5"
				Note Time="12" Value="E3" Duration="4" Instrument="echo" Volume="2"
			Pattern Name="2" Color="ffc83c"
				Note Time="0" Value="G3" Duration="4" Instrument="echo" Volume="15"
				Note Time="4" Value="G3" Duration="4" Instrument="echo" Volume="7"
				Note Time="8" Value="G3" Duration="4" Instrument="echo" Volume="5"
				Note Time="12" Value="G3" Duration="4" Instrument="echo" Volume="2"
			Pattern Name="3" Color="a4db74"
				Note Time="0" Value="A3" Duration="4" Instrument="echo" Volume="15"
				Note Time="4" Value="A3" Duration="4" Instrument="echo" Volume="7"
				Note Time="8" Value="A3" Duration="4" Instrument="echo" Volume="5"
				Note Time="12" Value="A3" Duration="4" Instrument="echo" Volume="2"
			Pattern Name="4" Color="3eb3f9"
				Note Time="0" Value="A3" Duration="4" Instrument="echo" Volume="15"
				Note Time="4" Value="A3" Duration="4" Instrument="echo" Volume="5"
				Note Time="8" Value="A3" Duration="4" Instrument="echo" Volume="15"
				Note Time="12" Value="A3" Duration="4" Instrument="echo"
			Pattern Name="5" Color="ffac7f"
				Note Time="0" Value="E3" Duration="2" Release="1" Instrument="clutterfunk sax" Volume="5" FinePitch="-2"
				Note Time="2" Value="E3" Duration="4" Release="2" Instrument="clutterfunk sax"
				Note Time="6" Value="A3" Duration="2" Release="1" Instrument="clutterfunk sax"
				Note Time="8" Value="A3" Duration="2" Release="1" Instrument="clutterfunk sax"
				Note Time="10" Value="C4" Duration="2" Release="1" Instrument="clutterfunk sax"
				Note Time="12" Value="G3" Duration="4" Release="2" Instrument="clutterfunk sax"
			Pattern Name="6" Color="ffff75"
				Note Time="0" Value="A3" Duration="4" Release="2" Instrument="clutterfunk sax" Volume="7"
				Note Time="4" Value="A3" Duration="2" Release="1" Instrument="clutterfunk sax"
				Note Time="6" Value="G3" Duration="2" Release="1" Instrument="clutterfunk sax"
				Note Time="8" Value="A3" Duration="4" Release="2" Instrument="clutterfunk sax"
				Note Time="12" Value="A3" Duration="4" Release="2" Instrument="clutterfunk sax"
			Pattern Name="7" Color="3ce8fd"
				Note Time="0" Value="A3" Duration="2" Release="1" Instrument="clutterfunk sax" Volume="9"
				Note Time="2" Value="C4" Duration="4" Release="2" Instrument="clutterfunk sax"
				Note Time="6" Value="A3" Duration="2" Release="1" Instrument="clutterfunk sax"
				Note Time="8" Value="G3" Duration="4" Release="2" Instrument="clutterfunk sax"
				Note Time="12" Value="G3" Duration="4" Release="2" Instrument="clutterfunk sax"
			Pattern Name="8" Color="8d69e4"
				Note Time="0" Value="A3" Duration="2" Release="1" Instrument="clutterfunk sax" Volume="11"
				Note Time="2" Value="C4" Duration="4" Release="2" Instrument="clutterfunk sax"
				Note Time="6" Value="G3" Duration="2" Release="1" Instrument="clutterfunk sax"
				Note Time="8" Value="A3" Duration="4" Release="2" Instrument="clutterfunk sax"
				Note Time="12" Value="A3" Duration="4" Release="2" Instrument="clutterfunk sax"
			Pattern Name="9" Color="997c73"
				Note Time="0" Value="E3" Duration="2" Release="1" Instrument="clutterfunk sax" Volume="15"
				Note Time="2" Value="E3" Duration="4" Release="2" Instrument="clutterfunk sax"
				Note Time="6" Value="A3" Duration="2" Release="1" Instrument="clutterfunk sax"
				Note Time="8" Value="A3" Duration="2" Release="1" Instrument="clutterfunk sax"
				Note Time="10" Value="C4" Duration="2" Release="1" Instrument="clutterfunk sax"
				Note Time="12" Value="G3" Duration="4" Release="2" Instrument="clutterfunk sax"
			Pattern Name="10" Color="ffe461"
				Note Time="0" Value="G3" Duration="4" Release="2" Instrument="clutterfunk sax"
				Note Time="4" Value="A3" Duration="2" Release="1" Instrument="clutterfunk sax"
				Note Time="6" Value="G3" Duration="2" Release="1" Instrument="clutterfunk sax"
				Note Time="8" Value="A3" Duration="4" Release="2" Instrument="clutterfunk sax"
				Note Time="12" Value="A3" Duration="4" Release="2" Instrument="clutterfunk sax"
			Pattern Name="11" Color="89f2e8"
				Note Time="0" Value="A3" Duration="2" Release="1" Instrument="clutterfunk sax"
				Note Time="2" Value="C4" Duration="4" Release="2" Instrument="clutterfunk sax"
				Note Time="6" Value="A3" Duration="2" Release="1" Instrument="clutterfunk sax"
				Note Time="8" Value="G3" Duration="2" Instrument="clutterfunk sax"
				Note Time="12" Value="G3" Duration="4" Release="2" Instrument="clutterfunk sax"
			Pattern Name="12" Color="8a706a"
				Note Time="0" Value="A3" Duration="2" Instrument="clutterfunk sax" VibratoSpeed="6" VibratoDepth="6"
				Note Time="2" Value="C4" Duration="2" Instrument="clutterfunk sax"
				Note Time="6" Value="G3" Duration="2" Instrument="clutterfunk sax"
				Note Time="8" Value="A3" Duration="2" Instrument="clutterfunk sax"
				Note Time="12" Value="A3" Duration="2" Instrument="clutterfunk sax" SlideTarget="A4"
				Note Time="14" VibratoSpeed="0" VibratoDepth="0"
			Pattern Name="13" Color="ca60e6"
				Note Time="0" Value="E3" Duration="2" Release="1" Instrument="clutterfunk sax"
				Note Time="2" Value="E4" Duration="4" Release="2" Instrument="clutterfunk sax"
				Note Time="6" Value="A3" Duration="2" Release="1" Instrument="clutterfunk sax"
				Note Time="8" Value="A3" Duration="2" Release="1" Instrument="clutterfunk sax"
				Note Time="10" Value="C4" Duration="2" Release="1" Instrument="clutterfunk sax"
				Note Time="12" Value="E4" Duration="4" Release="2" Instrument="clutterfunk sax"
			Pattern Name="Pattern 1" Color="88eb8c"
				Note Time="0" Value="G3" Duration="4" Release="2" Instrument="clutterfunk sax"
				Note Time="4" Value="A3" Duration="2" Release="1" Instrument="clutterfunk sax"
				Note Time="6" Value="G3" Duration="2" Release="1" Instrument="clutterfunk sax"
				Note Time="8" Value="A3" Duration="2" Instrument="clutterfunk sax" SlideTarget="A4"
				Note Time="12" Value="A3" Duration="4" Release="2" Instrument="clutterfunk sax"
			Pattern Name="Pattern 2" Color="fe5497"
				Note Time="0" Value="A3" Duration="2" Release="1" Instrument="clutterfunk sax"
				Note Time="2" Value="C4" Duration="4" Release="2" Instrument="clutterfunk sax"
				Note Time="6" Value="A3" Duration="2" Release="1" Instrument="clutterfunk sax"
				Note Time="8" Value="G3" Duration="2" Instrument="clutterfunk sax" SlideTarget="B4"
				Note Time="12" Value="G3" Duration="4" Release="2" Instrument="clutterfunk sax"
			Pattern Name="14" Color="ddc4bb"
				Note Time="0" Value="A3" Duration="2" Release="1" Instrument="clutterfunk sax"
				Note Time="2" Value="C4" Duration="4" Release="2" Instrument="clutterfunk sax"
				Note Time="6" Value="G3" Duration="2" Release="1" Instrument="clutterfunk sax"
				Note Time="8" Value="A3" Duration="4" Release="2" Instrument="clutterfunk sax"
				Note Time="12" Value="A3" Duration="4" Release="2" Instrument="clutterfunk sax"
			Pattern Name="16" Color="65f2ff"
				Note Time="0" Value="A3" Duration="2" Instrument="echo"
				Note Time="2" Value="E4" Duration="4" Instrument="echo"
				Note Time="6" Value="A3" Duration="2" Instrument="echo"
				Note Time="8" Value="A3" Duration="2" Instrument="echo"
				Note Time="10" Value="C4" Duration="2" Instrument="echo"
				Note Time="12" Value="E4" Duration="4" Instrument="echo"
			Pattern Name="17" Color="ffff93"
				Note Time="0" Value="G3" Duration="4" Instrument="echo"
				Note Time="4" Value="A3" Duration="2" Instrument="echo"
				Note Time="6" Value="G3" Duration="2" Instrument="echo"
				Note Time="8" Value="A3" Duration="4" Instrument="echo"
				Note Time="12" Value="A3" Duration="4" Instrument="echo"
			Pattern Name="18" Color="9a71ed"
				Note Time="0" Value="A3" Duration="2" Instrument="echo"
				Note Time="2" Value="C4" Duration="4" Instrument="echo"
				Note Time="6" Value="A3" Duration="2" Instrument="echo"
				Note Time="8" Value="G3" Duration="4" Instrument="echo"
				Note Time="12" Value="G3" Duration="4" Instrument="echo"
			Pattern Name="19" Color="fffc69"
				Note Time="0" Value="A3" Duration="2" Instrument="echo"
				Note Time="2" Value="C4" Duration="4" Instrument="echo"
				Note Time="6" Value="G3" Duration="2" Instrument="echo"
				Note Time="8" Value="A3" Duration="4" Instrument="echo"
				Note Time="12" Value="A3" Duration="4" Instrument="echo"
			PatternInstance Time="0" Pattern="1"
			PatternInstance Time="1" Pattern="2"
			PatternInstance Time="2" Pattern="3"
			PatternInstance Time="3" Pattern="4"
			PatternInstance Time="4" Pattern="5"
			PatternInstance Time="5" Pattern="6"
			PatternInstance Time="6" Pattern="7"
			PatternInstance Time="7" Pattern="8"
			PatternInstance Time="8" Pattern="5"
			PatternInstance Time="9" Pattern="6"
			PatternInstance Time="10" Pattern="7"
			PatternInstance Time="11" Pattern="8"
			PatternInstance Time="12" Pattern="5"
			PatternInstance Time="13" Pattern="6"
			PatternInstance Time="14" Pattern="7"
			PatternInstance Time="15" Pattern="8"
			PatternInstance Time="16" Pattern="9"
			PatternInstance Time="17" Pattern="10"
			PatternInstance Time="18" Pattern="11"
			PatternInstance Time="19" Pattern="12"
			PatternInstance Time="20" Pattern="13"
			PatternInstance Time="21" Pattern="Pattern 1"
			PatternInstance Time="22" Pattern="Pattern 2"
			PatternInstance Time="23" Pattern="14"
			PatternInstance Time="24" Pattern="13"
			PatternInstance Time="25" Pattern="Pattern 1"
			PatternInstance Time="26" Pattern="Pattern 2"
			PatternInstance Time="27" Pattern="14"
			PatternInstance Time="28" Pattern="13"
			PatternInstance Time="29" Pattern="Pattern 1"
			PatternInstance Time="30" Pattern="Pattern 2"
			PatternInstance Time="31" Pattern="14"
			PatternInstance Time="32" Pattern="16"
			PatternInstance Time="33" Pattern="17"
			PatternInstance Time="34" Pattern="18"
			PatternInstance Time="35" Pattern="19"
		Channel Type="Triangle"
			Pattern Name="1" Color="62e2d6"
				Note Time="0" Value="E3" Duration="2" Instrument="Instrument 4"
				Note Time="4" Value="E3" Duration="1" Instrument="triangle pluck 2"
				Note Time="8" Value="E3" Duration="1" Instrument="triangle pluck 2"
				Note Time="12" Value="E3" Duration="1" Instrument="triangle pluck 2"
			Pattern Name="2" Color="7b8df1"
				Note Time="0" Value="G3" Duration="2" Instrument="Instrument 4"
				Note Time="4" Value="G3" Duration="1" Instrument="triangle pluck 2"
				Note Time="8" Value="G3" Duration="1" Instrument="triangle pluck 2"
				Note Time="12" Value="G3" Duration="1" Instrument="triangle pluck 2"
			Pattern Name="3" Color="ff7571"
				Note Time="0" Value="A3" Duration="2" Instrument="Instrument 4"
				Note Time="4" Value="A3" Duration="1" Instrument="triangle pluck 2"
				Note Time="8" Value="A3" Duration="1" Instrument="triangle pluck 2"
				Note Time="12" Value="A3" Duration="1" Instrument="triangle pluck 2"
			Pattern Name="4" Color="ffef3c"
				Note Time="0" Value="A3" Duration="2" Instrument="Instrument 4"
				Note Time="4" Value="A3" Duration="1" Instrument="triangle pluck 2"
				Note Time="8" Value="A3" Duration="2" Instrument="Instrument 4"
				Note Time="12" Value="A3" Duration="2" Instrument="Instrument 4"
			Pattern Name="Pattern 1" Color="65f2ff"
				Note Time="0" Value="A3" Duration="2" Instrument="Instrument 4"
				Note Time="8" Value="A3" Duration="2" Instrument="Instrument 4"
				Note Time="12" Value="A3" Duration="2" Instrument="Instrument 4"
			PatternInstance Time="0" Pattern="1"
			PatternInstance Time="1" Pattern="2"
			PatternInstance Time="2" Pattern="3"
			PatternInstance Time="3" Pattern="4"
			PatternInstance Time="4" Pattern="1"
			PatternInstance Time="5" Pattern="2"
			PatternInstance Time="6" Pattern="3"
			PatternInstance Time="7" Pattern="4"
			PatternInstance Time="8" Pattern="1"
			PatternInstance Time="9" Pattern="2"
			PatternInstance Time="10" Pattern="3"
			PatternInstance Time="11" Pattern="4"
			PatternInstance Time="12" Pattern="1"
			PatternInstance Time="13" Pattern="2"
			PatternInstance Time="14" Pattern="3"
			PatternInstance Time="15" Pattern="4"
			PatternInstance Time="16" Pattern="1"
			PatternInstance Time="17" Pattern="2"
			PatternInstance Time="18" Pattern="3"
			PatternInstance Time="19" Pattern="Pattern 1"
			PatternInstance Time="20" Pattern="1"
			PatternInstance Time="21" Pattern="2"
			PatternInstance Time="22" Pattern="3"
			PatternInstance Time="23" Pattern="4"
			PatternInstance Time="24" Pattern="1"
			PatternInstance Time="25" Pattern="2"
			PatternInstance Time="26" Pattern="3"
			PatternInstance Time="27" Pattern="4"
			PatternInstance Time="28" Pattern="1"
			PatternInstance Time="29" Pattern="2"
			PatternInstance Time="30" Pattern="3"
			PatternInstance Time="31" Pattern="4"
			PatternInstance Time="32" Pattern="1"
			PatternInstance Time="33" Pattern="2"
			PatternInstance Time="34" Pattern="3"
			PatternInstance Time="35" Pattern="4"
		Channel Type="Noise"
			Pattern Name="1" Color="e95093"
				Note Time="0" Value="A0" Duration="4" Release="3" Instrument="cymbal"
				Note Time="4" Value="A0" Duration="2" Instrument="Instrument 2"
				Note Time="6" Value="C0" Duration="2" Instrument="kick"
				Note Time="8" Value="C0" Duration="2" Instrument="kick"
				Note Time="10" Value="C0" Duration="2" Instrument="kick"
				Note Time="12" Value="A0" Duration="2" Instrument="Instrument 2"
				Note Time="14" Value="C0" Duration="2" Instrument="kick"
			Pattern Name="4" Color="3fd7ff"
				Note Time="0" Value="A0" Duration="4" Release="3" Instrument="cymbal"
				Note Time="4" Value="A0" Duration="2" Instrument="Instrument 2"
				Note Time="6" Value="C0" Duration="2" Instrument="kick"
				Note Time="8" Value="C0" Duration="2" Instrument="kick"
				Note Time="12" Value="A0" Duration="2" Instrument="Instrument 2"
			Pattern Name="5" Color="b75bde"
				Note Time="0" Value="A0" Duration="2" Instrument="Instrument 2" Volume="8"
				Note Time="2" Value="C0" Duration="2" Instrument="kick"
				Note Time="4" Value="A0" Duration="2" Instrument="Instrument 2"
				Note Time="6" Value="C0" Duration="2" Instrument="kick"
				Note Time="8" Value="A0" Duration="2" Instrument="Instrument 2"
				Note Time="10" Value="C0" Duration="2" Instrument="kick"
				Note Time="11" Volume="5"
				Note Time="12" Value="A0" Duration="2" Instrument="Instrument 2"
				Note Time="14" Value="C0" Duration="2" Instrument="kick"
			Pattern Name="6" Color="ff8655"
				Note Time="0" Value="C0" Duration="2" Instrument="kick"
				Note Time="2" Value="C0" Duration="2" Instrument="kick"
				Note Time="4" Value="A0" Duration="2" Instrument="Instrument 2"
				Note Time="6" Value="C0" Duration="2" Instrument="kick"
				Note Time="8" Value="C0" Duration="2" Instrument="kick"
				Note Time="10" Value="C0" Duration="2" Instrument="kick"
				Note Time="12" Value="A0" Duration="2" Instrument="Instrument 2"
				Note Time="14" Value="C0" Duration="2" Instrument="kick"
			Pattern Name="2" Color="51a1fc"
				Note Time="0" Value="A0" Duration="4" Release="3" Instrument="cymbal" Volume="15"
				Note Time="8" Value="D1" Duration="2" Instrument="snare"
			Pattern Name="3" Color="ff9ece"
				Note Time="0" Value="A0" Duration="4" Release="3" Instrument="cymbal"
				Note Time="8" Value="D1" Duration="2" Instrument="snare"
				Note Time="12" Value="A0" Duration="4" Release="3" Instrument="cymbal"
			Pattern Name="Pattern 1" Color="ffb83c"
				Note Time="0" Value="G#3" Duration="4" Instrument="cymbal"
				Note Time="4" Value="G#3" Duration="4" Instrument="cymbal" Volume="4"
				Note Time="8" Value="G#3" Duration="4" Instrument="cymbal" Volume="3"
				Note Time="11" Volume="2"
				Note Time="12" Value="G#3" Duration="4" Instrument="cymbal"
			Pattern Name="7" Color="5dd2ff"
				Note Time="0" Value="A0" Duration="4" Instrument="cymbal"
				Note Time="4" Value="C1" Duration="2" Instrument="Instrument 2"
				Note Time="6" Value="C0" Duration="2" Instrument="kick"
				Note Time="8" Value="C1" Duration="2" Instrument="Instrument 2" Volume="11"
				Note Time="10" Value="C0" Duration="2" Instrument="kick"
				Note Time="12" Value="C1" Duration="2" Instrument="Instrument 2"
				Note Time="14" Value="C0" Duration="2" Instrument="kick"
			PatternInstance Time="12" Pattern="1"
			PatternInstance Time="13" Pattern="4"
			PatternInstance Time="14" Pattern="5"
			PatternInstance Time="15" Pattern="6"
			PatternInstance Time="16" Pattern="1"
			PatternInstance Time="17" Pattern="4"
			PatternInstance Time="18" Pattern="5"
			PatternInstance Time="20" Pattern="2"
			PatternInstance Time="21" Pattern="2"
			PatternInstance Time="22" Pattern="3"
			PatternInstance Time="23" Pattern="2"
			PatternInstance Time="24" Pattern="2"
			PatternInstance Time="25" Pattern="2"
			PatternInstance Time="26" Pattern="3"
			PatternInstance Time="27" Pattern="2"
			PatternInstance Time="28" Pattern="Pattern 1"
			PatternInstance Time="29" Pattern="2"
			PatternInstance Time="30" Pattern="3"
			PatternInstance Time="31" Pattern="2"
			PatternInstance Time="32" Pattern="7"
			PatternInstance Time="33" Pattern="5"
			PatternInstance Time="34" Pattern="5"
		Channel Type="DPCM"
			Pattern Name="Pattern 5" Color="ff7f72"
				Note Time="0" Value="E3" Duration="16" Instrument="DMC: drums + bass"
			Pattern Name="Pattern 6" Color="fffd43"
				Note Time="0" Value="G3" Duration="16" Instrument="DMC: drums + bass"
			Pattern Name="Pattern 7" Color="7fdc83"
				Note Time="0" Value="A3" Duration="16" Instrument="DMC: drums + bass"
			Pattern Name="Pattern 8" Color="ffa83c"
				Note Time="0" Value="A3" Duration="8" Instrument="DMC: drums + bass"
				Note Time="8" Value="A3" Duration="4" Instrument="DMC: drums + bass"
				Note Time="12" Value="A3" Duration="4" Instrument="DMC: drums + bass"
			Pattern Name="Pattern 1" Color="e783f8"
				Note Time="0" Value="E3" Duration="4" Instrument="DMC: drums + bass"
				Note Time="4" Value="E3" Duration="4" Instrument="DMC: drums + bass"
				Note Time="8" Value="E3" Duration="4" Instrument="DMC: drums + bass"
				Note Time="12" Value="E3" Duration="4" Instrument="DMC: drums + bass"
			Pattern Name="Pattern 2" Color="ffac7f"
				Note Time="0" Value="G3" Duration="4" Instrument="DMC: drums + bass"
				Note Time="4" Value="G3" Duration="4" Instrument="DMC: drums + bass"
				Note Time="8" Value="G3" Duration="4" Instrument="DMC: drums + bass"
				Note Time="12" Value="G3" Duration="4" Instrument="DMC: drums + bass"
			Pattern Name="Pattern 3" Color="ffff75"
				Note Time="0" Value="A3" Duration="4" Instrument="DMC: drums + bass"
				Note Time="4" Value="A3" Duration="4" Instrument="DMC: drums + bass"
				Note Time="8" Value="A3" Duration="4" Instrument="DMC: drums + bass"
				Note Time="12" Value="A3" Duration="4" Instrument="DMC: drums + bass"
			Pattern Name="Pattern 4" Color="3ce8fd"
				Note Time="0" Value="A3" Duration="4" Instrument="DMC: drums + bass"
				Note Time="4" Value="A3" Duration="4" Instrument="DMC: drums + bass"
				Note Time="8" Value="A3" Duration="4" Instrument="DMC: drums + bass"
				Note Time="12" Value="A3" Duration="4" Instrument="DMC: drums + bass"
			Pattern Name="3" Color="3cd2c4"
				Note Time="0" Value="E5" Duration="2" Instrument="DMC: drums + bass"
				Note Time="2" Value="A3" Duration="2" Instrument="DMC: drums + bass"
				Note Time="4" Value="A3" Duration="2" Instrument="DMC: drums + bass"
				Note Time="6" Value="A3" Duration="2" Instrument="DMC: drums + bass"
				Note Time="8" Value="F5" Duration="2" Instrument="DMC: drums + bass"
				Note Time="10" Value="A3" Duration="2" Instrument="DMC: drums + bass"
				Note Time="12" Value="A3" Duration="2" Instrument="DMC: drums + bass"
				Note Time="14" Value="A3" Duration="2" Instrument="DMC: drums + bass"
			Pattern Name="4" Color="7585e7"
				Note Time="0" Value="E5" Duration="2" Instrument="DMC: drums + bass"
				Note Time="2" Value="C4" Duration="2" Instrument="DMC: drums + bass"
				Note Time="4" Value="C4" Duration="2" Instrument="DMC: drums + bass"
				Note Time="6" Value="C4" Duration="2" Instrument="DMC: drums + bass"
				Note Time="8" Value="F5" Duration="2" Instrument="DMC: drums + bass"
				Note Time="10" Value="C4" Duration="2" Instrument="DMC: drums + bass"
				Note Time="12" Value="C4" Duration="2" Instrument="DMC: drums + bass"
				Note Time="14" Value="C4" Duration="2" Instrument="DMC: drums + bass"
			Pattern Name="2" Color="74ca78"
				Note Time="0" Value="E5" Duration="2" Instrument="DMC: drums + bass"
				Note Time="2" Value="G3" Duration="2" Instrument="DMC: drums + bass"
				Note Time="4" Value="G3" Duration="2" Instrument="DMC: drums + bass"
				Note Time="6" Value="G3" Duration="2" Instrument="DMC: drums + bass"
				Note Time="8" Value="F5" Duration="2" Instrument="DMC: drums + bass"
				Note Time="10" Value="G3" Duration="2" Instrument="DMC: drums + bass"
				Note Time="12" Value="E5" Duration="2" Instrument="DMC: drums + bass"
				Note Time="14" Value="G3" Duration="2" Instrument="DMC: drums + bass"
			Pattern Name="1" Color="ffffb2"
				Note Time="0" Value="E5" Duration="2" Instrument="DMC: drums + bass"
				Note Time="2" Value="A3" Duration="2" Instrument="DMC: drums + bass"
				Note Time="4" Value="A3" Duration="2" Instrument="DMC: drums + bass"
				Note Time="6" Value="A3" Duration="2" Instrument="DMC: drums + bass"
				Note Time="8" Value="F5" Duration="2" Instrument="DMC: drums + bass"
				Note Time="10" Value="A3" Duration="2" Instrument="DMC: drums + bass"
				Note Time="12" Value="A3" Duration="2" Instrument="DMC: drums + bass"
				Note Time="14" Value="A3" Duration="2" Instrument="DMC: drums + bass"
			Pattern Name="5" Color="f6a4ff"
			PatternInstance Time="0" Pattern="Pattern 5"
			PatternInstance Time="1" Pattern="Pattern 6"
			PatternInstance Time="2" Pattern="Pattern 7"
			PatternInstance Time="3" Pattern="Pattern 8"
			PatternInstance Time="4" Pattern="Pattern 1"
			PatternInstance Time="5" Pattern="Pattern 2"
			PatternInstance Time="6" Pattern="Pattern 3"
			PatternInstance Time="7" Pattern="Pattern 4"
			PatternInstance Time="8" Pattern="Pattern 1"
			PatternInstance Time="9" Pattern="Pattern 2"
			PatternInstance Time="10" Pattern="Pattern 3"
			PatternInstance Time="11" Pattern="Pattern 4"
			PatternInstance Time="12" Pattern="Pattern 1"
			PatternInstance Time="13" Pattern="Pattern 2"
			PatternInstance Time="14" Pattern="Pattern 3"
			PatternInstance Time="15" Pattern="Pattern 4"
			PatternInstance Time="16" Pattern="Pattern 1"
			PatternInstance Time="17" Pattern="Pattern 2"
			PatternInstance Time="18" Pattern="Pattern 3"
			PatternInstance Time="20" Pattern="3"
			PatternInstance Time="21" Pattern="4"
			PatternInstance Time="22" Pattern="2"
			PatternInstance Time="23" Pattern="1"
			PatternInstance Time="24" Pattern="3"
			PatternInstance Time="25" Pattern="4"
			PatternInstance Time="26" Pattern="2"
			PatternInstance Time="27" Pattern="1"
			PatternInstance Time="29" Pattern="4"
			PatternInstance Time="30" Pattern="2"
			PatternInstance Time="31" Pattern="1"
			PatternInstance Time="32" Pattern="5"
	Song Name="Stereo madness 2" Color="62ffff" Folder="Custom music used in the game" Length="65" LoopPoint="-1" PatternLength="16" BeatLength="4" FamiTrackerTempo="160" FamiTrackerSpeed="6"
		PatternCustomSettings Time="64" Length="8"
		Channel Type="Square1"
			Pattern Name="Pattern 1" Color="ffc83c"
				Note Time="0" Value="C3" Duration="2" Instrument="echo" Volume="4"
				Note Time="2" Value="G3" Duration="2" Instrument="echo"
				Note Time="4" Value="C4" Duration="2" Instrument="echo" Volume="9"
				Note Time="6" Value="C3" Duration="2" Instrument="echo"
				Note Time="8" Value="G3" Duration="2" Instrument="echo" Volume="12"
				Note Time="10" Value="C4" Duration="2" Instrument="echo"
				Note Time="12" Value="C3" Duration="2" Instrument="echo" Volume="15"
				Note Time="14" Value="G3" Duration="2" Instrument="echo"
			Pattern Name="Pattern 2" Color="f6a4ff"
				Note Time="0" Value="C3" Duration="2" Instrument="echo" DutyCycle="1"
				Note Time="2" Value="G3" Duration="2" Instrument="echo"
				Note Time="4" Value="C4" Duration="2" Instrument="echo"
				Note Time="6" Value="C3" Duration="2" Instrument="echo"
				Note Time="8" Value="G3" Duration="2" Instrument="echo"
				Note Time="10" Value="C4" Duration="2" Instrument="echo"
				Note Time="12" Value="C3" Duration="2" Instrument="echo"
				Note Time="14" Value="G3" Duration="2" Instrument="echo"
			Pattern Name="Pattern 3" Color="ffc6a1"
				Note Time="0" Value="C3" Duration="2" Instrument="echo" DutyCycle="2"
				Note Time="2" Value="G3" Duration="2" Instrument="echo"
				Note Time="4" Value="C4" Duration="2" Instrument="echo"
				Note Time="6" Value="C3" Duration="2" Instrument="echo"
				Note Time="8" Value="G3" Duration="2" Instrument="echo"
				Note Time="10" Value="C4" Duration="2" Instrument="echo"
				Note Time="12" Value="C3" Duration="2" Instrument="echo"
				Note Time="14" Value="G3" Duration="2" Instrument="echo"
			Pattern Name="Pattern 4" Color="ffff93"
				Note Time="0" Value="C3" Duration="2" Instrument="echo" DutyCycle="3"
				Note Time="2" Value="G3" Duration="2" Instrument="echo"
				Note Time="4" Value="C4" Duration="2" Instrument="echo"
				Note Time="6" Value="C3" Duration="2" Instrument="echo"
				Note Time="8" Value="G3" Duration="2" Instrument="echo"
				Note Time="10" Value="C4" Duration="2" Instrument="echo"
				Note Time="12" Value="C3" Duration="2" Instrument="echo"
				Note Time="14" Value="G3" Duration="2" Instrument="echo"
			Pattern Name="Pattern 5" Color="fffd43"
				Note Time="0" Value="C4" Duration="2" Instrument="echo"
				Note Time="2" Value="F2" Duration="2" Instrument="echo"
				Note Time="4" Value="C3" Duration="2" Instrument="echo"
				Note Time="6" Value="D4" Duration="2" Instrument="echo"
				Note Time="8" Value="F2" Duration="2" Instrument="echo"
				Note Time="10" Value="C3" Duration="2" Instrument="echo"
				Note Time="12" Value="E4" Duration="2" Instrument="echo"
				Note Time="14" Value="G3" Duration="2" Instrument="echo"
			Pattern Name="Pattern 7" Color="ffe461"
				Note Time="0" Value="C3" Duration="2" Instrument="echo" DutyCycle="1"
				Note Time="2" Value="G3" Duration="2" Instrument="echo"
				Note Time="4" Value="C4" Duration="2" Instrument="echo"
				Note Time="6" Value="C3" Duration="2" Instrument="echo"
				Note Time="8" Value="G3" Duration="2" Instrument="echo"
				Note Time="10" Value="C4" Duration="2" Instrument="echo"
				Note Time="12" Value="C3" Duration="2" Instrument="echo"
				Note Time="14" Value="G3" Duration="2" Instrument="echo"
			Pattern Name="Pattern 6" Color="997c73"
				Note Time="0" Value="C4" Duration="2" Instrument="echo" DutyCycle="2"
				Note Time="2" Value="G2" Duration="2" Instrument="echo"
				Note Time="4" Value="D3" Duration="2" Instrument="echo"
				Note Time="6" Value="B3" Duration="2" Instrument="echo"
				Note Time="8" Value="G2" Duration="2" Instrument="echo"
				Note Time="10" Value="D3" Duration="2" Instrument="echo"
				Note Time="12" Value="B3" Duration="2" Instrument="echo"
				Note Time="14" Value="C4" Duration="2" Instrument="echo"
			Pattern Name="Pattern 8" Color="89f2e8"
				Note Time="0" Value="A2" Duration="2" Instrument="echo" DutyCycle="3"
				Note Time="2" Value="E3" Duration="2" Instrument="echo"
				Note Time="4" Value="C4" Duration="2" Instrument="echo"
				Note Time="6" Value="A2" Duration="2" Instrument="echo"
				Note Time="8" Value="E3" Duration="2" Instrument="echo"
				Note Time="10" Value="C4" Duration="2" Instrument="echo"
				Note Time="12" Value="A2" Duration="2" Instrument="echo"
				Note Time="14" Value="E3" Duration="2" Instrument="echo"
			Pattern Name="Pattern 9" Color="98a7fc"
				Note Time="0" Value="C4" Duration="2" Instrument="echo" DutyCycle="0"
				Note Time="2" Value="F2" Duration="2" Instrument="echo"
				Note Time="4" Value="C3" Duration="2" Instrument="echo"
				Note Time="6" Value="D4" Duration="2" Instrument="echo"
				Note Time="8" Value="F2" Duration="2" Instrument="echo"
				Note Time="10" Value="C3" Duration="2" Instrument="echo"
				Note Time="12" Value="D4" Duration="2" Instrument="echo"
				Note Time="14" Value="C4" Duration="2" Instrument="echo"
			Pattern Name="Pattern 10" Color="ffa83c"
				Note Time="0" Value="C4" Duration="2" Instrument="echo" DutyCycle="2"
				Note Time="2" Value="F2" Duration="2" Instrument="echo"
				Note Time="4" Value="C3" Duration="2" Instrument="echo"
				Note Time="6" Value="D4" Duration="2" Instrument="echo"
				Note Time="8" Value="F2" Duration="2" Instrument="echo"
				Note Time="10" Value="C3" Duration="2" Instrument="echo"
				Note Time="12" Value="E4" Duration="2" Instrument="echo"
				Note Time="14" Value="C4" Duration="2" Instrument="echo"
			Pattern Name="Pattern 11" Color="ffffb2"
				Note Time="0" Value="C5" Duration="16" Instrument="blank slower string" Volume="7" VibratoSpeed="7" VibratoDepth="1" DutyCycle="2"
			Pattern Name="Pattern 12" Color="62e2d6"
				Note Time="0" Value="B4" Duration="16" Instrument="blank slower string"
			Pattern Name="Pattern 13" Color="7b8df1"
				Note Time="0" Value="C5" Duration="16" Instrument="blank slower string"
			Pattern Name="Pattern 14" Color="ff7571"
				Note Time="0" Value="D5" Duration="16" Instrument="blank slower string"
			Pattern Name="Pattern 15" Color="ffef3c"
				Note Time="0" Value="E5" Duration="16" Instrument="blank slower string"
			PatternInstance Time="0" Pattern="Pattern 1"
			PatternInstance Time="1" Pattern="Pattern 2"
			PatternInstance Time="2" Pattern="Pattern 3"
			PatternInstance Time="3" Pattern="Pattern 4"
			PatternInstance Time="4" Pattern="Pattern 3"
			PatternInstance Time="5" Pattern="Pattern 2"
			PatternInstance Time="6" Pattern="Pattern 3"
			PatternInstance Time="7" Pattern="Pattern 5"
			PatternInstance Time="8" Pattern="Pattern 3"
			PatternInstance Time="9" Pattern="Pattern 2"
			PatternInstance Time="10" Pattern="Pattern 3"
			PatternInstance Time="11" Pattern="Pattern 4"
			PatternInstance Time="12" Pattern="Pattern 3"
			PatternInstance Time="13" Pattern="Pattern 2"
			PatternInstance Time="14" Pattern="Pattern 3"
			PatternInstance Time="15" Pattern="Pattern 5"
			PatternInstance Time="16" Pattern="Pattern 1"
			PatternInstance Time="17" Pattern="Pattern 2"
			PatternInstance Time="18" Pattern="Pattern 3"
			PatternInstance Time="19" Pattern="Pattern 4"
			PatternInstance Time="20" Pattern="Pattern 3"
			PatternInstance Time="21" Pattern="Pattern 2"
			PatternInstance Time="22" Pattern="Pattern 3"
			PatternInstance Time="23" Pattern="Pattern 5"
			PatternInstance Time="24" Pattern="Pattern 1"
			PatternInstance Time="25" Pattern="Pattern 2"
			PatternInstance Time="26" Pattern="Pattern 3"
			PatternInstance Time="27" Pattern="Pattern 4"
			PatternInstance Time="28" Pattern="Pattern 3"
			PatternInstance Time="29" Pattern="Pattern 2"
			PatternInstance Time="30" Pattern="Pattern 3"
			PatternInstance Time="31" Pattern="Pattern 5"
			PatternInstance Time="32" Pattern="Pattern 7"
			PatternInstance Time="33" Pattern="Pattern 6"
			PatternInstance Time="34" Pattern="Pattern 8"
			PatternInstance Time="35" Pattern="Pattern 9"
			PatternInstance Time="36" Pattern="Pattern 7"
			PatternInstance Time="37" Pattern="Pattern 6"
			PatternInstance Time="38" Pattern="Pattern 8"
			PatternInstance Time="39" Pattern="Pattern 10"
			PatternInstance Time="40" Pattern="Pattern 7"
			PatternInstance Time="41" Pattern="Pattern 6"
			PatternInstance Time="42" Pattern="Pattern 8"
			PatternInstance Time="43" Pattern="Pattern 9"
			PatternInstance Time="44" Pattern="Pattern 7"
			PatternInstance Time="45" Pattern="Pattern 6"
			PatternInstance Time="46" Pattern="Pattern 8"
			PatternInstance Time="47" Pattern="Pattern 10"
			PatternInstance Time="48" Pattern="Pattern 11"
			PatternInstance Time="49" Pattern="Pattern 12"
			PatternInstance Time="50" Pattern="Pattern 13"
			PatternInstance Time="51" Pattern="Pattern 14"
			PatternInstance Time="52" Pattern="Pattern 11"
			PatternInstance Time="53" Pattern="Pattern 12"
			PatternInstance Time="54" Pattern="Pattern 13"
			PatternInstance Time="55" Pattern="Pattern 15"
			PatternInstance Time="56" Pattern="Pattern 11"
			PatternInstance Time="57" Pattern="Pattern 12"
			PatternInstance Time="58" Pattern="Pattern 13"
			PatternInstance Time="59" Pattern="Pattern 14"
			PatternInstance Time="60" Pattern="Pattern 11"
			PatternInstance Time="61" Pattern="Pattern 12"
			PatternInstance Time="62" Pattern="Pattern 13"
			PatternInstance Time="63" Pattern="Pattern 15"
		Channel Type="Square2"
			Pattern Name="Pattern 1" Color="88eb8c"
				Note Time="0" Value="C4" Duration="112" Instrument="blank slower string" Arpeggio="Arp C0" Volume="2"
				Note Time="1" DutyCycle="0"
				Note Time="4" Volume="4"
				Note Time="8" Volume="6"
				Note Time="12" Volume="7"
			Pattern Name="Pattern 2" Color="7fdc83"
				Note Time="0" Value="E4" Duration="16" Instrument="blank slower string" Arpeggio="Arp C0"
			Pattern Name="Pattern 7" Color="b5c2ff"
				Note Time="0" Value="C4" Duration="112" Instrument="blank string" Arpeggio="Arp C0" FinePitch="0" DutyCycle="3"
			Pattern Name="Pattern 19" Color="ffe362"
				Note Time="0" Value="C3" Duration="28" Instrument="blank string" Arpeggio="Arp C0"
			Pattern Name="Pattern 4" Color="9a71ed"
				Note Time="0" DutyCycle="2"
				Note Time="1" Value="G2" Duration="16" Instrument="blank string" Arpeggio="Arp C0"
			Pattern Name="Pattern 5" Color="a9887d"
				Note Time="0" Value="A2" Duration="16" Instrument="blank string" Arpeggio="Arp C0" DutyCycle="1"
			Pattern Name="Pattern 6" Color="fffc69"
				Note Time="0" Value="F2" Duration="16" Instrument="blank string" Arpeggio="Arp C0" DutyCycle="2"
			Pattern Name="Pattern 3" Color="fe5497"
				Note Time="0" Value="E3" Duration="16" Instrument="blank string" Arpeggio="Arp C0"
			Pattern Name="Pattern 11" Color="6471cf"
				Note Time="0" Value="C5" Duration="16" Instrument="blank slower string" VibratoSpeed="7" VibratoDepth="1" DutyCycle="2"
			Pattern Name="Pattern 12" Color="ffff8b"
				Note Time="0" Value="B4" Duration="16" Instrument="blank slower string"
			Pattern Name="Pattern 20" Color="5dd2ff"
				Note Time="0" Value="C5" Duration="16" Instrument="blank slower string"
			Pattern Name="Pattern 21" Color="ffc83c"
				Note Time="0" Value="D5" Duration="16" Instrument="blank slower string"
			Pattern Name="Pattern 22" Color="3eb3f9"
				Note Time="0" Value="E5" Duration="16" Instrument="blank slower string"
			Pattern Name="Pattern 13" Color="74ca78"
				Note Time="0" Value="C4" Duration="2" Instrument="echo" FinePitch="0"
				Note Time="2" Value="C4" Duration="5" Instrument="echo"
				Note Time="8" Value="G3" Duration="2" Instrument="echo"
				Note Time="10" Value="G3" Duration="5" Instrument="echo"
				Note Time="15" Value="G3" Duration="1" Instrument="echo"
			Pattern Name="Pattern 14" Color="51a1fc"
				Note Time="0" Value="B3" Duration="2" Instrument="echo"
				Note Time="2" Value="B3" Duration="2" Instrument="echo"
				Note Time="4" Value="B3" Duration="6" Instrument="echo"
				Note Time="14" Value="D4" Duration="1" Instrument="echo"
				Note Time="15" Value="E4" Duration="1" Instrument="echo"
			Pattern Name="Pattern 15" Color="ff9ece"
				Note Time="0" Value="C4" Duration="2" Instrument="echo"
				Note Time="2" Value="C4" Duration="5" Instrument="echo"
				Note Time="8" Value="E3" Duration="2" Instrument="echo"
				Note Time="10" Value="E3" Duration="5" Instrument="echo"
			Pattern Name="Pattern 16" Color="fff389"
				Note Time="0" Value="A3" Duration="2" Instrument="echo"
				Note Time="2" Value="A3" Duration="2" Instrument="echo"
				Note Time="4" Value="A3" Duration="6" Instrument="echo"
			Pattern Name="Pattern 17" Color="3fe5ff"
				Note Time="0" Value="C4" Duration="2" Instrument="echo"
				Note Time="2" Value="C4" Duration="2" Instrument="echo"
				Note Time="4" Value="C4" Duration="6" Instrument="echo"
			Pattern Name="Pattern 18" Color="ca60e6"
				Note Time="0" Value="D4" Duration="2" Instrument="echo"
				Note Time="2" Value="D4" Duration="5" Instrument="echo"
				Note Time="8" Value="E4" Duration="2" Instrument="echo"
				Note Time="10" Value="E4" Duration="6" Instrument="echo"
			PatternInstance Time="0" Pattern="Pattern 1"
			PatternInstance Time="7" Pattern="Pattern 2"
			PatternInstance Time="8" Pattern="Pattern 7"
			PatternInstance Time="15" Pattern="Pattern 2"
			PatternInstance Time="16" Pattern="Pattern 19"
			PatternInstance Time="17" Pattern="Pattern 4"
			PatternInstance Time="18" Pattern="Pattern 5"
			PatternInstance Time="19" Pattern="Pattern 6"
			PatternInstance Time="20" Pattern="Pattern 19"
			PatternInstance Time="21" Pattern="Pattern 4"
			PatternInstance Time="22" Pattern="Pattern 5"
			PatternInstance Time="23" Pattern="Pattern 3"
			PatternInstance Time="24" Pattern="Pattern 19"
			PatternInstance Time="25" Pattern="Pattern 4"
			PatternInstance Time="26" Pattern="Pattern 5"
			PatternInstance Time="27" Pattern="Pattern 6"
			PatternInstance Time="28" Pattern="Pattern 19"
			PatternInstance Time="29" Pattern="Pattern 4"
			PatternInstance Time="30" Pattern="Pattern 5"
			PatternInstance Time="31" Pattern="Pattern 3"
			PatternInstance Time="32" Pattern="Pattern 11"
			PatternInstance Time="33" Pattern="Pattern 12"
			PatternInstance Time="34" Pattern="Pattern 20"
			PatternInstance Time="35" Pattern="Pattern 21"
			PatternInstance Time="36" Pattern="Pattern 11"
			PatternInstance Time="37" Pattern="Pattern 12"
			PatternInstance Time="38" Pattern="Pattern 20"
			PatternInstance Time="39" Pattern="Pattern 22"
			PatternInstance Time="40" Pattern="Pattern 11"
			PatternInstance Time="41" Pattern="Pattern 12"
			PatternInstance Time="42" Pattern="Pattern 20"
			PatternInstance Time="43" Pattern="Pattern 21"
			PatternInstance Time="44" Pattern="Pattern 11"
			PatternInstance Time="45" Pattern="Pattern 12"
			PatternInstance Time="46" Pattern="Pattern 20"
			PatternInstance Time="47" Pattern="Pattern 22"
			PatternInstance Time="48" Pattern="Pattern 13"
			PatternInstance Time="49" Pattern="Pattern 14"
			PatternInstance Time="50" Pattern="Pattern 15"
			PatternInstance Time="51" Pattern="Pattern 16"
			PatternInstance Time="52" Pattern="Pattern 13"
			PatternInstance Time="53" Pattern="Pattern 14"
			PatternInstance Time="54" Pattern="Pattern 17"
			PatternInstance Time="55" Pattern="Pattern 18"
			PatternInstance Time="56" Pattern="Pattern 13"
			PatternInstance Time="57" Pattern="Pattern 14"
			PatternInstance Time="58" Pattern="Pattern 15"
			PatternInstance Time="59" Pattern="Pattern 16"
			PatternInstance Time="60" Pattern="Pattern 13"
			PatternInstance Time="61" Pattern="Pattern 14"
			PatternInstance Time="62" Pattern="Pattern 17"
			PatternInstance Time="63" Pattern="Pattern 18"
		Channel Type="Triangle"
			Pattern Name="Pattern 1" Color="fff389"
				Note Time="0" Value="C3" Duration="64" Instrument="DMC: drums + bass" SlideTarget="B4"
			Pattern Name="Pattern 2" Color="d8ffa1"
				Note Time="8" FinePitch="-2"
				Note Time="9" FinePitch="-7"
				Note Time="10" FinePitch="-12"
				Note Time="11" FinePitch="-17"
				Note Time="12" FinePitch="-20"
				Note Time="13" FinePitch="-27"
				Note Time="14" FinePitch="-42"
				Note Time="15" FinePitch="-47"
			Pattern Name="Pattern 4" Color="a2f7a6"
				Note Time="0" Value="C4" Duration="1" Instrument="blank instant decay" Volume="9" FinePitch="1"
				Note Time="2" Value="G4" Duration="1" Instrument="blank instant decay"
				Note Time="4" Value="C5" Duration="1" Instrument="blank instant decay"
				Note Time="6" Value="C4" Duration="1" Instrument="blank instant decay"
				Note Time="8" Value="G4" Duration="1" Instrument="blank instant decay"
				Note Time="10" Value="C5" Duration="1" Instrument="blank instant decay"
				Note Time="12" Value="C4" Duration="1" Instrument="blank instant decay"
				Note Time="14" Value="G4" Duration="1" Instrument="blank instant decay"
			Pattern Name="Pattern 5" Color="ff579c"
				Note Time="0" Value="C4" Duration="1" Instrument="blank instant decay"
				Note Time="2" Value="G4" Duration="1" Instrument="blank instant decay"
				Note Time="4" Value="C5" Duration="1" Instrument="blank instant decay"
				Note Time="6" Value="C4" Duration="1" Instrument="blank instant decay"
				Note Time="8" Value="G4" Duration="1" Instrument="blank instant decay"
				Note Time="10" Value="C5" Duration="1" Instrument="blank instant decay"
				Note Time="12" Value="C4" Duration="1" Instrument="blank instant decay"
				Note Time="14" Value="G4" Duration="1" Instrument="blank instant decay"
			Pattern Name="Pattern 6" Color="a4db74"
				Note Time="0" Value="C4" Duration="1" Instrument="blank instant decay"
				Note Time="2" Value="G4" Duration="1" Instrument="blank instant decay"
				Note Time="4" Value="C5" Duration="1" Instrument="blank instant decay"
				Note Time="6" Value="C4" Duration="1" Instrument="blank instant decay"
				Note Time="8" Value="G4" Duration="1" Instrument="blank instant decay"
				Note Time="10" Value="C5" Duration="1" Instrument="blank instant decay"
				Note Time="12" Value="C4" Duration="1" Instrument="blank instant decay"
				Note Time="14" Value="G4" Duration="1" Instrument="blank instant decay"
			Pattern Name="Pattern 7" Color="f6a4ff"
				Note Time="0" Value="C4" Duration="1" Instrument="blank instant decay"
				Note Time="2" Value="G4" Duration="1" Instrument="blank instant decay"
				Note Time="4" Value="C5" Duration="1" Instrument="blank instant decay"
				Note Time="6" Value="C4" Duration="1" Instrument="blank instant decay"
				Note Time="8" Value="G4" Duration="1" Instrument="blank instant decay"
				Note Time="10" Value="C5" Duration="1" Instrument="blank instant decay"
				Note Time="12" Value="C4" Duration="1" Instrument="blank instant decay"
				Note Time="14" Value="G4" Duration="1" Instrument="blank instant decay"
			Pattern Name="Pattern 8" Color="ffff93"
				Note Time="0" Value="C5" Duration="1" Instrument="blank instant decay"
				Note Time="2" Value="F3" Duration="1" Instrument="blank instant decay"
				Note Time="4" Value="C4" Duration="1" Instrument="blank instant decay"
				Note Time="6" Value="D5" Duration="1" Instrument="blank instant decay"
				Note Time="8" Value="F3" Duration="1" Instrument="blank instant decay"
				Note Time="10" Value="C4" Duration="1" Instrument="blank instant decay"
				Note Time="12" Value="E5" Duration="1" Instrument="blank instant decay"
				Note Time="14" Value="G4" Duration="1" Instrument="blank instant decay"
			Pattern Name="Pattern 9" Color="ffd43c"
				Note Time="0" Value="C4" Duration="1" Instrument="blank instant decay" Volume="15" FinePitch="-1"
				Note Time="2" Value="G4" Duration="1" Instrument="blank instant decay"
				Note Time="4" Value="C5" Duration="1" Instrument="blank instant decay"
				Note Time="6" Value="C4" Duration="1" Instrument="blank instant decay"
				Note Time="8" Value="G4" Duration="1" Instrument="blank instant decay"
				Note Time="10" Value="C5" Duration="1" Instrument="blank instant decay"
				Note Time="12" Value="C4" Duration="1" Instrument="blank instant decay"
				Note Time="14" Value="G4" Duration="1" Instrument="blank instant decay"
			Pattern Name="Pattern 10" Color="3ec4ff"
				Note Time="0" Value="C5" Duration="1" Instrument="blank instant decay"
				Note Time="2" Value="G3" Duration="1" Instrument="blank instant decay"
				Note Time="4" Value="D4" Duration="1" Instrument="blank instant decay"
				Note Time="6" Value="B4" Duration="1" Instrument="blank instant decay"
				Note Time="8" Value="G3" Duration="1" Instrument="blank instant decay"
				Note Time="10" Value="D4" Duration="1" Instrument="blank instant decay"
				Note Time="12" Value="B4" Duration="1" Instrument="blank instant decay"
				Note Time="14" Value="C5" Duration="1" Instrument="blank instant decay"
			Pattern Name="Pattern 11" Color="ff7f51"
				Note Time="0" Value="A3" Duration="1" Instrument="blank instant decay"
				Note Time="2" Value="E4" Duration="1" Instrument="blank instant decay"
				Note Time="4" Value="C5" Duration="1" Instrument="blank instant decay"
				Note Time="6" Value="A3" Duration="1" Instrument="blank instant decay"
				Note Time="8" Value="E4" Duration="1" Instrument="blank instant decay"
				Note Time="10" Value="C5" Duration="1" Instrument="blank instant decay"
				Note Time="12" Value="A3" Duration="1" Instrument="blank instant decay"
				Note Time="14" Value="E4" Duration="1" Instrument="blank instant decay"
			Pattern Name="Pattern 12" Color="62ffff"
				Note Time="0" Value="C5" Duration="1" Instrument="blank instant decay"
				Note Time="2" Value="F3" Duration="1" Instrument="blank instant decay"
				Note Time="4" Value="C4" Duration="1" Instrument="blank instant decay"
				Note Time="6" Value="D5" Duration="1" Instrument="blank instant decay"
				Note Time="8" Value="F3" Duration="1" Instrument="blank instant decay"
				Note Time="10" Value="C4" Duration="1" Instrument="blank instant decay"
				Note Time="12" Value="D5" Duration="1" Instrument="blank instant decay"
				Note Time="14" Value="C5" Duration="1" Instrument="blank instant decay"
			Pattern Name="Pattern 19" Color="b59184"
				Note Time="0" Value="C5" Duration="1" Instrument="blank instant decay"
				Note Time="2" Value="F3" Duration="1" Instrument="blank instant decay"
				Note Time="4" Value="C4" Duration="1" Instrument="blank instant decay"
				Note Time="6" Value="D5" Duration="1" Instrument="blank instant decay"
				Note Time="8" Value="F3" Duration="1" Instrument="blank instant decay"
				Note Time="10" Value="C4" Duration="1" Instrument="blank instant decay"
				Note Time="12" Value="E5" Duration="1" Instrument="blank instant decay"
				Note Time="14" Value="C5" Duration="1" Instrument="blank instant decay"
			Pattern Name="Pattern 13" Color="3cbfcb"
				Note Time="0" Value="C5" Duration="2" Instrument="triangle pluck 4" FinePitch="0"
				Note Time="2" Value="C5" Duration="4" Instrument="triangle pluck 4"
				Note Time="8" Value="G4" Duration="2" Instrument="triangle pluck 4"
				Note Time="10" Value="G4" Duration="4" Instrument="triangle pluck 4"
				Note Time="15" Value="G4" Duration="1" Instrument="triangle pluck 4"
			Pattern Name="Pattern 14" Color="ddc4bb"
				Note Time="0" Value="B4" Duration="2" Instrument="triangle pluck 4"
				Note Time="2" Value="B4" Duration="4" Instrument="triangle pluck 4"
				Note Time="14" Value="D5" Duration="1" Instrument="triangle pluck 4"
				Note Time="15" Value="E5" Duration="1" Instrument="triangle pluck 4"
			Pattern Name="Pattern 15" Color="3cd2c4"
				Note Time="0" Value="C5" Duration="2" Instrument="triangle pluck 4"
				Note Time="2" Value="C5" Duration="4" Instrument="triangle pluck 4"
				Note Time="8" Value="E4" Duration="2" Instrument="triangle pluck 4"
				Note Time="10" Value="E4" Duration="4" Instrument="triangle pluck 4"
			Pattern Name="Pattern 16" Color="ff6b6b"
				Note Time="0" Value="A4" Duration="2" Instrument="triangle pluck 4"
				Note Time="2" Value="A4" Duration="3" Instrument="triangle pluck 4"
			Pattern Name="Pattern 17" Color="6ab96e"
				Note Time="0" Value="C5" Duration="2" Instrument="triangle pluck 4"
				Note Time="2" Value="C5" Duration="4" Instrument="triangle pluck 4"
			Pattern Name="Pattern 18" Color="ff7cb6"
				Note Time="0" Value="D5" Duration="2" Instrument="triangle pluck 4"
				Note Time="2" Value="D5" Duration="4" Instrument="triangle pluck 4"
				Note Time="8" Value="E5" Duration="2" Instrument="triangle pluck 4"
				Note Time="10" Value="E5" Duration="5" Instrument="triangle pluck 4"
			PatternInstance Time="12" Pattern="Pattern 1"
			PatternInstance Time="15" Pattern="Pattern 2"
			PatternInstance Time="16" Pattern="Pattern 4"
			PatternInstance Time="17" Pattern="Pattern 5"
			PatternInstance Time="18" Pattern="Pattern 6"
			PatternInstance Time="19" Pattern="Pattern 7"
			PatternInstance Time="20" Pattern="Pattern 6"
			PatternInstance Time="21" Pattern="Pattern 5"
			PatternInstance Time="22" Pattern="Pattern 6"
			PatternInstance Time="23" Pattern="Pattern 8"
			PatternInstance Time="24" Pattern="Pattern 4"
			PatternInstance Time="25" Pattern="Pattern 5"
			PatternInstance Time="26" Pattern="Pattern 6"
			PatternInstance Time="27" Pattern="Pattern 7"
			PatternInstance Time="28" Pattern="Pattern 6"
			PatternInstance Time="29" Pattern="Pattern 5"
			PatternInstance Time="30" Pattern="Pattern 6"
			PatternInstance Time="31" Pattern="Pattern 8"
			PatternInstance Time="32" Pattern="Pattern 9"
			PatternInstance Time="33" Pattern="Pattern 10"
			PatternInstance Time="34" Pattern="Pattern 11"
			PatternInstance Time="35" Pattern="Pattern 12"
			PatternInstance Time="36" Pattern="Pattern 9"
			PatternInstance Time="37" Pattern="Pattern 10"
			PatternInstance Time="38" Pattern="Pattern 11"
			PatternInstance Time="39" Pattern="Pattern 19"
			PatternInstance Time="40" Pattern="Pattern 9"
			PatternInstance Time="41" Pattern="Pattern 10"
			PatternInstance Time="42" Pattern="Pattern 11"
			PatternInstance Time="43" Pattern="Pattern 12"
			PatternInstance Time="44" Pattern="Pattern 9"
			PatternInstance Time="45" Pattern="Pattern 10"
			PatternInstance Time="46" Pattern="Pattern 11"
			PatternInstance Time="47" Pattern="Pattern 19"
			PatternInstance Time="48" Pattern="Pattern 13"
			PatternInstance Time="49" Pattern="Pattern 14"
			PatternInstance Time="50" Pattern="Pattern 15"
			PatternInstance Time="51" Pattern="Pattern 16"
			PatternInstance Time="52" Pattern="Pattern 13"
			PatternInstance Time="53" Pattern="Pattern 14"
			PatternInstance Time="54" Pattern="Pattern 17"
			PatternInstance Time="55" Pattern="Pattern 18"
			PatternInstance Time="56" Pattern="Pattern 13"
			PatternInstance Time="57" Pattern="Pattern 14"
			PatternInstance Time="58" Pattern="Pattern 15"
			PatternInstance Time="59" Pattern="Pattern 16"
			PatternInstance Time="60" Pattern="Pattern 13"
			PatternInstance Time="61" Pattern="Pattern 14"
			PatternInstance Time="62" Pattern="Pattern 17"
			PatternInstance Time="63" Pattern="Pattern 18"
		Channel Type="Noise"
			Pattern Name="Pattern 1" Color="ffac7f"
				Note Time="0" Value="A3" Duration="2" Instrument="rel hats" Volume="7"
				Note Time="2" Value="A3" Duration="2" Instrument="rel hats"
				Note Time="4" Value="A3" Duration="2" Instrument="rel hats"
				Note Time="6" Value="A3" Duration="2" Instrument="rel hats"
				Note Time="8" Value="A3" Duration="1" Instrument="rel hats"
				Note Time="9" Value="A3" Duration="1" Instrument="rel hats"
				Note Time="10" Value="A3" Duration="1" Instrument="rel hats"
				Note Time="11" Value="A3" Duration="1" Instrument="rel hats"
				Note Time="12" Value="A3" Duration="2" Instrument="rel hats"
				Note Time="14" Value="A3" Duration="2" Instrument="rel hats"
			Pattern Name="Pattern 6" Color="ff6b6b"
				Note Time="0" Value="G3" Duration="8" Instrument="cymbal" Volume="15"
				Note Time="8" Value="A3" Duration="1" Instrument="rel hats" Volume="10"
				Note Time="9" Value="A3" Duration="1" Instrument="rel hats"
				Note Time="10" Value="A3" Duration="1" Instrument="rel hats"
				Note Time="11" Value="A3" Duration="1" Instrument="rel hats"
				Note Time="12" Value="A3" Duration="2" Instrument="rel hats"
				Note Time="14" Value="A3" Duration="2" Instrument="rel hats"
			Pattern Name="Pattern 2" Color="3fe5ff"
				Note Time="0" Value="A3" Duration="2" Instrument="blank string" Volume="2"
				Note Time="2" Value="A3" Duration="2" Instrument="blank string"
				Note Time="4" Value="A3" Duration="2" Instrument="blank string"
				Note Time="6" Value="A3" Duration="2" Instrument="blank string"
				Note Time="8" Value="A3" Duration="1" Instrument="blank string" Volume="3"
				Note Time="9" Value="A3" Duration="1" Instrument="blank string"
				Note Time="10" Value="A3" Duration="1" Instrument="blank string"
				Note Time="11" Value="A3" Duration="1" Instrument="blank string"
				Note Time="12" Value="A3" Duration="2" Instrument="blank string"
				Note Time="14" Value="A3" Duration="2" Instrument="blank string" Volume="4"
			Pattern Name="Pattern 3" Color="d1b1ff"
				Note Time="0" Value="A3" Duration="2" Instrument="blank string" Volume="4"
				Note Time="2" Value="A3" Duration="2" Instrument="blank string"
				Note Time="4" Value="A3" Duration="2" Instrument="blank string"
				Note Time="6" Value="A3" Duration="2" Instrument="blank string"
				Note Time="8" Value="A3" Duration="1" Instrument="blank string" Volume="6"
				Note Time="9" Value="A3" Duration="1" Instrument="blank string"
				Note Time="10" Value="A3" Duration="1" Instrument="blank string"
				Note Time="11" Value="A3" Duration="1" Instrument="blank string"
				Note Time="12" Value="A3" Duration="2" Instrument="blank string"
				Note Time="14" Value="A3" Duration="2" Instrument="blank string" Volume="8"
			Pattern Name="Pattern 4" Color="ddc4bb"
				Note Time="0" Value="A3" Duration="2" Instrument="blank string" Volume="9"
				Note Time="2" Value="A3" Duration="2" Instrument="blank string"
				Note Time="4" Value="A3" Duration="2" Instrument="blank string"
				Note Time="6" Value="A3" Duration="2" Instrument="blank string"
				Note Time="8" Value="A3" Duration="1" Instrument="blank string" Volume="10"
				Note Time="9" Value="A3" Duration="1" Instrument="blank string"
				Note Time="10" Value="A3" Duration="1" Instrument="blank string"
				Note Time="11" Value="A3" Duration="1" Instrument="blank string"
				Note Time="12" Value="A3" Duration="2" Instrument="blank string"
				Note Time="14" Value="A3" Duration="2" Instrument="blank string" Volume="11"
			Pattern Name="Pattern 5" Color="ffff94"
				Note Time="0" Value="A3" Duration="2" Instrument="blank string" Volume="12"
				Note Time="2" Value="A3" Duration="2" Instrument="blank string"
				Note Time="4" Value="A3" Duration="2" Instrument="blank string"
				Note Time="6" Value="A3" Duration="2" Instrument="blank string"
				Note Time="8" Value="A3" Duration="1" Instrument="blank string" Volume="14"
				Note Time="9" Value="A3" Duration="1" Instrument="blank string"
				Note Time="10" Value="A3" Duration="1" Instrument="blank string"
				Note Time="11" Value="A3" Duration="1" Instrument="blank string"
				Note Time="12" Value="A3" Duration="2" Instrument="blank string"
				Note Time="14" Value="A3" Duration="2" Instrument="blank string" Volume="14"
				Note Time="15" Volume="15"
			Pattern Name="Pattern 7" Color="c7ff86"
				Note Time="0" Value="A3" Duration="2" Instrument="rel hats" Volume="10"
				Note Time="2" Value="A3" Duration="2" Instrument="rel hats"
				Note Time="4" Value="A3" Duration="2" Instrument="rel hats"
				Note Time="6" Value="A3" Duration="2" Instrument="rel hats"
				Note Time="8" Value="A3" Duration="1" Instrument="rel hats"
				Note Time="9" Value="A3" Duration="1" Instrument="rel hats"
				Note Time="10" Value="A3" Duration="1" Instrument="rel hats"
				Note Time="11" Value="A3" Duration="1" Instrument="rel hats"
				Note Time="12" Value="A3" Duration="2" Instrument="rel hats"
				Note Time="14" Value="A3" Duration="2" Instrument="rel hats"
			Pattern Name="Pattern 8" Color="8a706a"
				Note Time="0" Value="A3" Duration="264" Instrument="cymbal" Volume="15"
			Pattern Name="Pattern 9" Color="6c7bdb"
				Note Time="8" Volume="9"
			PatternInstance Time="1" Pattern="Pattern 1"
			PatternInstance Time="2" Pattern="Pattern 1"
			PatternInstance Time="3" Pattern="Pattern 1"
			PatternInstance Time="4" Pattern="Pattern 1"
			PatternInstance Time="5" Pattern="Pattern 1"
			PatternInstance Time="6" Pattern="Pattern 1"
			PatternInstance Time="7" Pattern="Pattern 1"
			PatternInstance Time="8" Pattern="Pattern 6"
			PatternInstance Time="9" Pattern="Pattern 1"
			PatternInstance Time="10" Pattern="Pattern 1"
			PatternInstance Time="11" Pattern="Pattern 1"
			PatternInstance Time="12" Pattern="Pattern 2"
			PatternInstance Time="13" Pattern="Pattern 3"
			PatternInstance Time="14" Pattern="Pattern 4"
			PatternInstance Time="15" Pattern="Pattern 5"
			PatternInstance Time="16" Pattern="Pattern 6"
			PatternInstance Time="17" Pattern="Pattern 7"
			PatternInstance Time="18" Pattern="Pattern 7"
			PatternInstance Time="19" Pattern="Pattern 7"
			PatternInstance Time="20" Pattern="Pattern 7"
			PatternInstance Time="21" Pattern="Pattern 7"
			PatternInstance Time="22" Pattern="Pattern 7"
			PatternInstance Time="23" Pattern="Pattern 7"
			PatternInstance Time="24" Pattern="Pattern 7"
			PatternInstance Time="25" Pattern="Pattern 7"
			PatternInstance Time="26" Pattern="Pattern 7"
			PatternInstance Time="27" Pattern="Pattern 7"
			PatternInstance Time="28" Pattern="Pattern 7"
			PatternInstance Time="29" Pattern="Pattern 7"
			PatternInstance Time="30" Pattern="Pattern 7"
			PatternInstance Time="31" Pattern="Pattern 7"
			PatternInstance Time="32" Pattern="Pattern 7"
			PatternInstance Time="33" Pattern="Pattern 7"
			PatternInstance Time="34" Pattern="Pattern 7"
			PatternInstance Time="35" Pattern="Pattern 7"
			PatternInstance Time="36" Pattern="Pattern 7"
			PatternInstance Time="37" Pattern="Pattern 7"
			PatternInstance Time="38" Pattern="Pattern 7"
			PatternInstance Time="39" Pattern="Pattern 7"
			PatternInstance Time="40" Pattern="Pattern 7"
			PatternInstance Time="41" Pattern="Pattern 7"
			PatternInstance Time="42" Pattern="Pattern 7"
			PatternInstance Time="43" Pattern="Pattern 7"
			PatternInstance Time="44" Pattern="Pattern 7"
			PatternInstance Time="45" Pattern="Pattern 7"
			PatternInstance Time="46" Pattern="Pattern 7"
			PatternInstance Time="47" Pattern="Pattern 7"
			PatternInstance Time="48" Pattern="Pattern 8"
			PatternInstance Time="49" Pattern="Pattern 9"
		Channel Type="DPCM"
			Pattern Name="Pattern 1" Color="5ac4ff"
				Note Time="0" Value="E5" Duration="2" Instrument="DMC: drums + bass"
				Note Time="4" Value="F5" Duration="2" Instrument="DMC: drums + bass"
				Note Time="6" Value="E5" Duration="2" Instrument="DMC: drums + bass"
				Note Time="10" Value="E5" Duration="2" Instrument="DMC: drums + bass"
				Note Time="12" Value="F5" Duration="2" Instrument="DMC: drums + bass"
			Pattern Name="Pattern 2" Color="51a1fc"
				Note Time="0" Value="E5" Duration="2" Instrument="DMC: drums + bass"
				Note Time="4" Value="F5" Duration="2" Instrument="DMC: drums + bass"
				Note Time="6" Value="E5" Duration="2" Instrument="DMC: drums + bass"
				Note Time="10" Value="F5" Duration="2" Instrument="DMC: drums + bass"
				Note Time="14" Value="F5" Duration="2" Instrument="DMC: drums + bass"
			Pattern Name="Pattern 7" Color="ff6464"
				Note Time="0" Value="E5" Duration="2" Instrument="DMC: drums + bass"
				Note Time="4" Value="F5" Duration="1" Instrument="DMC: drums + bass"
				Note Time="6" Value="F5" Duration="1" Instrument="DMC: drums + bass"
				Note Time="8" Value="F5" Duration="1" Instrument="DMC: drums + bass"
				Note Time="9" Value="F5" Duration="1" Instrument="DMC: drums + bass"
				Note Time="10" Value="F5" Duration="1" Instrument="DMC: drums + bass"
				Note Time="11" Value="F5" Duration="1" Instrument="DMC: drums + bass"
				Note Time="12" Value="F5" Duration="1" Instrument="DMC: drums + bass"
				Note Time="13" Value="F5" Duration="1" Instrument="DMC: drums + bass"
				Note Time="14" Value="F5" Duration="1" Instrument="DMC: drums + bass"
				Note Time="15" Value="F5" Duration="1" Instrument="DMC: drums + bass"
			Pattern Name="Pattern 3" Color="65f2ff"
				Note Time="0" Value="E5" Duration="2" Instrument="DMC: drums + bass"
				Note Time="2" Value="C4" Duration="2" Instrument="DMC: drums + bass"
				Note Time="4" Value="F5" Duration="2" Instrument="DMC: drums + bass"
				Note Time="6" Value="E5" Duration="2" Instrument="DMC: drums + bass"
				Note Time="8" Value="C4" Duration="2" Instrument="DMC: drums + bass"
				Note Time="10" Value="E5" Duration="2" Instrument="DMC: drums + bass"
				Note Time="12" Value="F5" Duration="2" Instrument="DMC: drums + bass"
				Note Time="14" Value="C4" Duration="2" Instrument="DMC: drums + bass"
			Pattern Name="Pattern 4" Color="d863ec"
				Note Time="0" Value="E5" Duration="2" Instrument="DMC: drums + bass"
				Note Time="2" Value="G3" Duration="2" Instrument="DMC: drums + bass"
				Note Time="4" Value="F5" Duration="2" Instrument="DMC: drums + bass"
				Note Time="6" Value="E5" Duration="2" Instrument="DMC: drums + bass"
				Note Time="8" Value="G3" Duration="2" Instrument="DMC: drums + bass"
				Note Time="10" Value="E5" Duration="2" Instrument="DMC: drums + bass"
				Note Time="12" Value="F5" Duration="2" Instrument="DMC: drums + bass"
				Note Time="14" Value="G3" Duration="2" Instrument="DMC: drums + bass"
			Pattern Name="Pattern 5" Color="ff935e"
				Note Time="0" Value="E5" Duration="2" Instrument="DMC: drums + bass"
				Note Time="2" Value="A3" Duration="2" Instrument="DMC: drums + bass"
				Note Time="4" Value="F5" Duration="2" Instrument="DMC: drums + bass"
				Note Time="6" Value="E5" Duration="2" Instrument="DMC: drums + bass"
				Note Time="8" Value="A3" Duration="2" Instrument="DMC: drums + bass"
				Note Time="10" Value="E5" Duration="2" Instrument="DMC: drums + bass"
				Note Time="12" Value="F5" Duration="2" Instrument="DMC: drums + bass"
				Note Time="14" Value="A3" Duration="2" Instrument="DMC: drums + bass"
			Pattern Name="Pattern 6" Color="fcff6f"
				Note Time="0" Value="E5" Duration="2" Instrument="DMC: drums + bass"
				Note Time="2" Value="F3" Duration="2" Instrument="DMC: drums + bass"
				Note Time="4" Value="F5" Duration="2" Instrument="DMC: drums + bass"
				Note Time="6" Value="E5" Duration="2" Instrument="DMC: drums + bass"
				Note Time="8" Value="F3" Duration="2" Instrument="DMC: drums + bass"
				Note Time="10" Value="E5" Duration="2" Instrument="DMC: drums + bass"
				Note Time="12" Value="F5" Duration="2" Instrument="DMC: drums + bass"
				Note Time="14" Value="F3" Duration="2" Instrument="DMC: drums + bass"
			PatternInstance Time="0" Pattern="Pattern 1"
			PatternInstance Time="1" Pattern="Pattern 1"
			PatternInstance Time="2" Pattern="Pattern 1"
			PatternInstance Time="3" Pattern="Pattern 1"
			PatternInstance Time="4" Pattern="Pattern 1"
			PatternInstance Time="5" Pattern="Pattern 2"
			PatternInstance Time="6" Pattern="Pattern 1"
			PatternInstance Time="7" Pattern="Pattern 2"
			PatternInstance Time="8" Pattern="Pattern 1"
			PatternInstance Time="9" Pattern="Pattern 1"
			PatternInstance Time="10" Pattern="Pattern 1"
			PatternInstance Time="11" Pattern="Pattern 2"
			PatternInstance Time="12" Pattern="Pattern 1"
			PatternInstance Time="13" Pattern="Pattern 2"
			PatternInstance Time="14" Pattern="Pattern 1"
			PatternInstance Time="15" Pattern="Pattern 7"
			PatternInstance Time="16" Pattern="Pattern 1"
			PatternInstance Time="17" Pattern="Pattern 1"
			PatternInstance Time="18" Pattern="Pattern 1"
			PatternInstance Time="19" Pattern="Pattern 1"
			PatternInstance Time="20" Pattern="Pattern 1"
			PatternInstance Time="21" Pattern="Pattern 2"
			PatternInstance Time="22" Pattern="Pattern 1"
			PatternInstance Time="23" Pattern="Pattern 2"
			PatternInstance Time="24" Pattern="Pattern 1"
			PatternInstance Time="25" Pattern="Pattern 1"
			PatternInstance Time="26" Pattern="Pattern 2"
			PatternInstance Time="27" Pattern="Pattern 1"
			PatternInstance Time="28" Pattern="Pattern 1"
			PatternInstance Time="29" Pattern="Pattern 2"
			PatternInstance Time="30" Pattern="Pattern 1"
			PatternInstance Time="31" Pattern="Pattern 2"
			PatternInstance Time="32" Pattern="Pattern 3"
			PatternInstance Time="33" Pattern="Pattern 4"
			PatternInstance Time="34" Pattern="Pattern 5"
			PatternInstance Time="35" Pattern="Pattern 6"
			PatternInstance Time="36" Pattern="Pattern 3"
			PatternInstance Time="37" Pattern="Pattern 4"
			PatternInstance Time="38" Pattern="Pattern 5"
			PatternInstance Time="39" Pattern="Pattern 6"
			PatternInstance Time="40" Pattern="Pattern 3"
			PatternInstance Time="41" Pattern="Pattern 4"
			PatternInstance Time="42" Pattern="Pattern 5"
			PatternInstance Time="43" Pattern="Pattern 6"
			PatternInstance Time="44" Pattern="Pattern 3"
			PatternInstance Time="45" Pattern="Pattern 4"
			PatternInstance Time="46" Pattern="Pattern 5"
			PatternInstance Time="47" Pattern="Pattern 6"
	Song Name="Stereo Madness" Color="997c73" Folder="Official music used in the game" Length="16" LoopPoint="-1" PatternLength="64" BeatLength="4" FamiTrackerTempo="160" FamiTrackerSpeed="6"
		PatternCustomSettings Time="4" Length="16"
		PatternCustomSettings Time="15" Length="5"
		Channel Type="Square1"
			Pattern Name="01" Color="a0f1ff"
				Note Time="0" Value="C4" Duration="2" Instrument="echo" Volume="15" DutyCycle="0" PhaseReset="1"
				Note Time="2" Value="G4" Duration="2" Instrument="echo" Volume="15"
				Note Time="4" Value="C4" Duration="2" Instrument="echo" Volume="15"
				Note Time="6" Value="G4" Duration="2" Instrument="echo" Volume="15"
				Note Time="8" Value="C4" Duration="2" Instrument="echo" Volume="15"
				Note Time="10" Value="G4" Duration="2" Instrument="echo" Volume="15"
				Note Time="12" Value="C4" Duration="2" Instrument="echo" Volume="15"
				Note Time="14" Value="G4" Duration="2" Instrument="echo" Volume="15"
				Note Time="16" Value="G3" Duration="2" Instrument="echo" Volume="15"
				Note Time="18" Value="D4" Duration="2" Instrument="echo" Volume="15"
				Note Time="20" Value="G3" Duration="2" Instrument="echo" Volume="15"
				Note Time="22" Value="D4" Duration="2" Instrument="echo" Volume="15"
				Note Time="24" Value="G3" Duration="2" Instrument="echo" Volume="15"
				Note Time="26" Value="D4" Duration="2" Instrument="echo" Volume="15"
				Note Time="28" Value="G3" Duration="2" Instrument="echo" Volume="15"
				Note Time="30" Value="D4" Duration="2" Instrument="echo" Volume="15"
				Note Time="32" Value="A3" Duration="2" Instrument="echo" Volume="15" DutyCycle="1"
				Note Time="34" Value="E4" Duration="2" Instrument="echo" Volume="15"
				Note Time="36" Value="A3" Duration="2" Instrument="echo" Volume="15"
				Note Time="38" Value="E4" Duration="2" Instrument="echo" Volume="15"
				Note Time="40" Value="A3" Duration="2" Instrument="echo" Volume="15"
				Note Time="42" Value="E4" Duration="2" Instrument="echo" Volume="15"
				Note Time="44" Value="A3" Duration="2" Instrument="echo" Volume="15"
				Note Time="46" Value="E4" Duration="2" Instrument="echo" Volume="15"
				Note Time="48" Value="F3" Duration="2" Instrument="echo" Volume="15"
				Note Time="50" Value="C4" Duration="2" Instrument="echo" Volume="15"
				Note Time="52" Value="F3" Duration="2" Instrument="echo" Volume="15"
				Note Time="54" Value="C4" Duration="2" Instrument="echo" Volume="15"
				Note Time="56" Value="F3" Duration="2" Instrument="echo" Volume="15"
				Note Time="58" Value="C4" Duration="2" Instrument="echo" Volume="15"
				Note Time="60" Value="F3" Duration="2" Instrument="echo" Volume="15"
				Note Time="62" Value="C4" Duration="2" Instrument="echo" Volume="15"
			Pattern Name="02" Color="ff7cb6"
				Note Time="0" Value="C4" Duration="2" Instrument="echo" Volume="15" DutyCycle="2"
				Note Time="2" Value="G4" Duration="2" Instrument="echo" Volume="15"
				Note Time="4" Value="C4" Duration="2" Instrument="echo" Volume="15"
				Note Time="6" Value="G4" Duration="2" Instrument="echo" Volume="15"
				Note Time="8" Value="C4" Duration="2" Instrument="echo" Volume="15"
				Note Time="10" Value="G4" Duration="2" Instrument="echo" Volume="15"
				Note Time="12" Value="C4" Duration="2" Instrument="echo" Volume="15"
				Note Time="14" Value="G4" Duration="2" Instrument="echo" Volume="15"
				Note Time="16" Value="G3" Duration="2" Instrument="echo" Volume="15"
				Note Time="18" Value="D4" Duration="2" Instrument="echo" Volume="15"
				Note Time="20" Value="G3" Duration="2" Instrument="echo" Volume="15"
				Note Time="22" Value="D4" Duration="2" Instrument="echo" Volume="15"
				Note Time="24" Value="G3" Duration="2" Instrument="echo" Volume="15"
				Note Time="26" Value="D4" Duration="2" Instrument="echo" Volume="15"
				Note Time="28" Value="G3" Duration="2" Instrument="echo" Volume="15"
				Note Time="30" Value="D4" Duration="2" Instrument="echo" Volume="15"
				Note Time="32" Value="A3" Duration="2" Instrument="echo" Volume="15" DutyCycle="1"
				Note Time="34" Value="E4" Duration="2" Instrument="echo" Volume="15"
				Note Time="36" Value="A3" Duration="2" Instrument="echo" Volume="15"
				Note Time="38" Value="E4" Duration="2" Instrument="echo" Volume="15"
				Note Time="40" Value="A3" Duration="2" Instrument="echo" Volume="15"
				Note Time="42" Value="E4" Duration="2" Instrument="echo" Volume="15"
				Note Time="44" Value="A3" Duration="2" Instrument="echo" Volume="15"
				Note Time="46" Value="E4" Duration="2" Instrument="echo" Volume="15"
				Note Time="48" Value="F3" Duration="2" Instrument="echo" Volume="15"
				Note Time="50" Value="C4" Duration="2" Instrument="echo" Volume="15"
				Note Time="52" Value="F3" Duration="2" Instrument="echo" Volume="15"
				Note Time="54" Value="C4" Duration="2" Instrument="echo" Volume="15"
				Note Time="56" Value="F3" Duration="2" Instrument="echo" Volume="15"
				Note Time="58" Value="C4" Duration="2" Instrument="echo" Volume="15"
				Note Time="60" Value="F3" Duration="2" Instrument="echo" Volume="15"
				Note Time="62" Value="C4" Duration="2" Instrument="echo" Volume="15"
			Pattern Name="03" Color="ffe362"
				Note Time="0" Value="C4" Duration="1" Instrument="echo" Volume="15" DutyCycle="1"
				Note Time="2" Value="G4" Duration="1" Instrument="echo"
				Note Time="3" Value="C4" Duration="1" Instrument="echo" Volume="5"
				Note Time="4" Value="C4" Duration="1" Instrument="echo" Volume="15"
				Note Time="5" Value="G4" Duration="1" Instrument="echo" Volume="5"
				Note Time="6" Value="G4" Duration="1" Instrument="echo" Volume="15"
				Note Time="7" Value="C4" Duration="1" Instrument="echo" Volume="5"
				Note Time="8" Value="C4" Duration="1" Instrument="echo" Volume="15"
				Note Time="9" Value="G4" Duration="1" Instrument="echo" Volume="5"
				Note Time="10" Value="G4" Duration="1" Instrument="echo" Volume="15"
				Note Time="11" Value="C4" Duration="1" Instrument="echo" Volume="5"
				Note Time="12" Value="C4" Duration="1" Instrument="echo" Volume="15"
				Note Time="13" Value="G4" Duration="1" Instrument="echo" Volume="5"
				Note Time="14" Value="G4" Duration="1" Instrument="echo" Volume="15"
				Note Time="15" Value="C4" Duration="1" Instrument="echo" Volume="5"
				Note Time="16" Value="G3" Duration="1" Instrument="echo" Volume="15"
				Note Time="17" Value="G4" Duration="1" Instrument="echo" Volume="5"
				Note Time="18" Value="D4" Duration="1" Instrument="echo" Volume="15"
				Note Time="19" Value="G3" Duration="1" Instrument="echo" Volume="5"
				Note Time="20" Value="G3" Duration="1" Instrument="echo" Volume="15"
				Note Time="21" Value="D4" Duration="1" Instrument="echo" Volume="5"
				Note Time="22" Value="D4" Duration="1" Instrument="echo" Volume="15"
				Note Time="23" Value="G3" Duration="1" Instrument="echo" Volume="5"
				Note Time="24" Value="G3" Duration="1" Instrument="echo" Volume="15"
				Note Time="25" Value="D4" Duration="1" Instrument="echo" Volume="5"
				Note Time="26" Value="D4" Duration="1" Instrument="echo" Volume="15"
				Note Time="27" Value="G3" Duration="1" Instrument="echo" Volume="5"
				Note Time="28" Value="G3" Duration="1" Instrument="echo" Volume="15"
				Note Time="29" Value="D4" Duration="1" Instrument="echo" Volume="5"
				Note Time="30" Value="D4" Duration="1" Instrument="echo" Volume="15"
				Note Time="31" Value="G3" Duration="1" Instrument="echo" Volume="5"
				Note Time="32" Value="A3" Duration="1" Instrument="echo" Volume="15"
				Note Time="33" Value="D4" Duration="1" Instrument="echo" Volume="5"
				Note Time="34" Value="E4" Duration="1" Instrument="echo" Volume="15"
				Note Time="35" Value="A3" Duration="1" Instrument="echo" Volume="5"
				Note Time="36" Value="A3" Duration="1" Instrument="echo" Volume="15"
				Note Time="37" Value="E4" Duration="1" Instrument="echo" Volume="5"
				Note Time="38" Value="E4" Duration="1" Instrument="echo" Volume="15"
				Note Time="39" Value="A3" Duration="1" Instrument="echo" Volume="5"
				Note Time="40" Value="A3" Duration="1" Instrument="echo" Volume="15"
				Note Time="41" Value="E4" Duration="1" Instrument="echo" Volume="5"
				Note Time="42" Value="E4" Duration="1" Instrument="echo" Volume="15"
				Note Time="43" Value="A3" Duration="1" Instrument="echo" Volume="5"
				Note Time="44" Value="A3" Duration="1" Instrument="echo" Volume="15"
				Note Time="45" Value="E4" Duration="1" Instrument="echo" Volume="5"
				Note Time="46" Value="E4" Duration="1" Instrument="echo" Volume="15"
				Note Time="47" Value="A3" Duration="1" Instrument="echo" Volume="5"
				Note Time="48" Value="F3" Duration="1" Instrument="echo" Volume="15"
				Note Time="49" Value="E4" Duration="1" Instrument="echo" Volume="5"
				Note Time="50" Value="C4" Duration="1" Instrument="echo" Volume="15"
				Note Time="51" Value="F3" Duration="1" Instrument="echo" Volume="5"
				Note Time="52" Value="F3" Duration="1" Instrument="echo" Volume="15"
				Note Time="53" Value="C4" Duration="1" Instrument="echo" Volume="5"
				Note Time="54" Value="C4" Duration="1" Instrument="echo" Volume="15"
				Note Time="55" Value="F3" Duration="1" Instrument="echo" Volume="5"
				Note Time="56" Value="F3" Duration="1" Instrument="echo" Volume="15"
				Note Time="57" Value="C4" Duration="1" Instrument="echo" Volume="5"
				Note Time="58" Value="C4" Duration="1" Instrument="echo" Volume="15"
				Note Time="59" Value="F3" Duration="1" Instrument="echo" Volume="5"
				Note Time="60" Value="F3" Duration="1" Instrument="echo" Volume="15"
				Note Time="61" Value="C4" Duration="1" Instrument="echo" Volume="5"
				Note Time="62" Value="C4" Duration="1" Instrument="echo" Volume="15"
				Note Time="63" Value="F3" Duration="129" Release="17" Instrument="echo" Volume="5"
			Pattern Name="09" Color="ff579c"
				Note Time="0" Value="C4" Duration="2" Instrument="echo" Volume="15" DutyCycle="1"
				Note Time="1" Value="C4" Duration="1" Instrument="echo" Volume="5"
				Note Time="2" Value="G4" Duration="1" Instrument="echo" Volume="15"
				Note Time="3" Value="C4" Duration="1" Instrument="echo" Volume="5"
				Note Time="4" Value="C4" Duration="1" Instrument="echo" Volume="15"
				Note Time="5" Value="G4" Duration="1" Instrument="echo" Volume="5"
				Note Time="6" Value="G4" Duration="1" Instrument="echo" Volume="15"
				Note Time="7" Value="C4" Duration="1" Instrument="echo" Volume="5"
				Note Time="8" Value="C4" Duration="1" Instrument="echo" Volume="15"
				Note Time="9" Value="G4" Duration="1" Instrument="echo" Volume="5"
				Note Time="10" Value="G4" Duration="1" Instrument="echo" Volume="15"
				Note Time="11" Value="C4" Duration="1" Instrument="echo" Volume="5"
				Note Time="12" Value="C4" Duration="1" Instrument="echo" Volume="15"
				Note Time="13" Value="G4" Duration="1" Instrument="echo" Volume="5"
				Note Time="14" Value="G4" Duration="1" Instrument="echo" Volume="15"
				Note Time="15" Value="C4" Duration="1" Instrument="echo" Volume="5"
				Note Time="16" Value="G3" Duration="1" Instrument="echo" Volume="15"
				Note Time="17" Value="G4" Duration="1" Instrument="echo" Volume="5"
				Note Time="18" Value="D4" Duration="1" Instrument="echo" Volume="15"
				Note Time="19" Value="G3" Duration="1" Instrument="echo" Volume="5"
				Note Time="20" Value="G3" Duration="1" Instrument="echo" Volume="15"
				Note Time="21" Value="D4" Duration="1" Instrument="echo" Volume="5"
				Note Time="22" Value="D4" Duration="1" Instrument="echo" Volume="15"
				Note Time="23" Value="G3" Duration="1" Instrument="echo" Volume="5"
				Note Time="24" Value="G3" Duration="1" Instrument="echo" Volume="15"
				Note Time="25" Value="D4" Duration="1" Instrument="echo" Volume="5"
				Note Time="26" Value="D4" Duration="1" Instrument="echo" Volume="15"
				Note Time="27" Value="G3" Duration="1" Instrument="echo" Volume="5"
				Note Time="28" Value="G3" Duration="1" Instrument="echo" Volume="15"
				Note Time="29" Value="D4" Duration="1" Instrument="echo" Volume="5"
				Note Time="30" Value="D4" Duration="1" Instrument="echo" Volume="15"
				Note Time="31" Value="G3" Duration="1" Instrument="echo" Volume="5"
				Note Time="32" Value="A3" Duration="1" Instrument="echo" Volume="15"
				Note Time="33" Value="D4" Duration="1" Instrument="echo" Volume="5"
				Note Time="34" Value="E4" Duration="1" Instrument="echo" Volume="15"
				Note Time="35" Value="A3" Duration="1" Instrument="echo" Volume="5"
				Note Time="36" Value="A3" Duration="1" Instrument="echo" Volume="15"
				Note Time="37" Value="E4" Duration="1" Instrument="echo" Volume="5"
				Note Time="38" Value="E4" Duration="1" Instrument="echo" Volume="15"
				Note Time="39" Value="A3" Duration="1" Instrument="echo" Volume="5"
				Note Time="40" Value="A3" Duration="1" Instrument="echo" Volume="15"
				Note Time="41" Value="E4" Duration="1" Instrument="echo" Volume="5"
				Note Time="42" Value="E4" Duration="1" Instrument="echo" Volume="15"
				Note Time="43" Value="A3" Duration="1" Instrument="echo" Volume="5"
				Note Time="44" Value="A3" Duration="1" Instrument="echo" Volume="15"
				Note Time="45" Value="E4" Duration="1" Instrument="echo" Volume="5"
				Note Time="46" Value="E4" Duration="1" Instrument="echo" Volume="15"
				Note Time="47" Value="A3" Duration="1" Instrument="echo" Volume="5"
				Note Time="48" Value="F3" Duration="1" Instrument="echo" Volume="15"
				Note Time="49" Value="E4" Duration="1" Instrument="echo" Volume="5"
				Note Time="50" Value="C4" Duration="1" Instrument="echo" Volume="15"
				Note Time="51" Value="F3" Duration="1" Instrument="echo" Volume="5"
				Note Time="52" Value="F3" Duration="1" Instrument="echo" Volume="15"
				Note Time="53" Value="C4" Duration="1" Instrument="echo" Volume="5"
				Note Time="54" Value="C4" Duration="1" Instrument="echo" Volume="15"
				Note Time="55" Value="F3" Duration="1" Instrument="echo" Volume="5"
				Note Time="56" Value="F3" Duration="1" Instrument="echo" Volume="15"
				Note Time="57" Value="C4" Duration="1" Instrument="echo" Volume="5"
				Note Time="58" Value="C4" Duration="1" Instrument="echo" Volume="15"
				Note Time="59" Value="F3" Duration="1" Instrument="echo" Volume="5"
				Note Time="60" Value="F3" Duration="1" Instrument="echo" Volume="15"
				Note Time="61" Value="C4" Duration="1" Instrument="echo" Volume="5"
				Note Time="62" Value="C4" Duration="1" Instrument="echo" Volume="15"
				Note Time="63" Value="F3" Duration="129" Release="1" Instrument="echo" Volume="5"
			Pattern Name="07" Color="3fd7ff"
				Note Time="0" Value="C5" Duration="3" Instrument="Instrument 1" Volume="6" DutyCycle="3"
				Note Time="3" Value="C5" Duration="3" Instrument="Instrument 1"
				Note Time="6" Value="C5" Duration="3" Instrument="Instrument 1"
				Note Time="9" Value="C5" Duration="3" Instrument="Instrument 1"
				Note Time="12" Value="C5" Duration="3" Instrument="Instrument 1"
				Note Time="15" Value="C5" Duration="3" Instrument="Instrument 1"
				Note Time="18" Value="B4" Duration="3" Instrument="Instrument 1"
				Note Time="21" Value="B4" Duration="3" Instrument="Instrument 1"
				Note Time="24" Value="B4" Duration="3" Instrument="Instrument 1"
				Note Time="27" Value="B4" Duration="3" Instrument="Instrument 1"
				Note Time="30" Value="B4" Duration="2" Instrument="Instrument 1"
				Note Time="32" Value="C5" Duration="3" Instrument="Instrument 1"
				Note Time="33" Volume="7"
				Note Time="35" Value="C5" Duration="3" Instrument="Instrument 1"
				Note Time="38" Value="C5" Duration="3" Instrument="Instrument 1"
				Note Time="41" Value="C5" Duration="3" Instrument="Instrument 1"
				Note Time="44" Value="C5" Duration="3" Instrument="Instrument 1"
				Note Time="47" Value="C5" Duration="3" Instrument="Instrument 1"
				Note Time="49" Volume="8"
				Note Time="50" Value="D5" Duration="3" Instrument="Instrument 1"
				Note Time="53" Value="D5" Duration="3" Instrument="Instrument 1"
				Note Time="56" Value="D5" Duration="3" Instrument="Instrument 1"
				Note Time="59" Value="D5" Duration="3" Instrument="Instrument 1"
				Note Time="62" Value="D5" Duration="2" Instrument="Instrument 1"
			Pattern Name="08" Color="b75bde"
				Note Time="0" Value="C5" Duration="3" Instrument="Instrument 1" Volume="9"
				Note Time="3" Value="C5" Duration="3" Instrument="Instrument 1"
				Note Time="6" Value="C5" Duration="3" Instrument="Instrument 1"
				Note Time="8" Volume="10"
				Note Time="9" Value="C5" Duration="3" Instrument="Instrument 1"
				Note Time="12" Value="C5" Duration="3" Instrument="Instrument 1" Volume="11"
				Note Time="15" Value="C5" Duration="3" Instrument="Instrument 1"
				Note Time="18" Value="B4" Duration="3" Instrument="Instrument 1"
				Note Time="20" Volume="12"
				Note Time="21" Value="B4" Duration="3" Instrument="Instrument 1"
				Note Time="24" Value="B4" Duration="3" Instrument="Instrument 1"
				Note Time="27" Value="B4" Duration="3" Instrument="Instrument 1"
				Note Time="28" Volume="13"
				Note Time="30" Value="B4" Duration="2" Instrument="Instrument 1"
				Note Time="32" Value="C5" Duration="3" Instrument="Instrument 1"
				Note Time="35" Value="C5" Duration="3" Instrument="Instrument 1"
				Note Time="38" Value="C5" Duration="3" Instrument="Instrument 1"
				Note Time="41" Value="C5" Duration="3" Instrument="Instrument 1"
				Note Time="44" Value="C5" Duration="3" Instrument="Instrument 1"
				Note Time="47" Value="C5" Duration="3" Instrument="Instrument 1"
				Note Time="50" Value="D5" Duration="3" Instrument="Instrument 1"
				Note Time="53" Value="D5" Duration="3" Instrument="Instrument 1"
				Note Time="56" Value="D5" Duration="3" Instrument="Instrument 1"
				Note Time="59" Value="E5" Duration="3" Instrument="Instrument 1"
				Note Time="60" Volume="14"
				Note Time="62" Value="E5" Duration="2" Instrument="Instrument 1"
			Pattern Name="04" Color="ff8655"
				Note Time="0" Value="C5" Duration="3" Instrument="Instrument 1" Volume="15" DutyCycle="3"
				Note Time="3" Value="C5" Duration="3" Instrument="Instrument 1"
				Note Time="6" Value="C5" Duration="3" Instrument="Instrument 1"
				Note Time="9" Value="C5" Duration="3" Instrument="Instrument 1"
				Note Time="12" Value="C5" Duration="3" Instrument="Instrument 1"
				Note Time="15" Value="C5" Duration="3" Instrument="Instrument 1"
				Note Time="18" Value="B4" Duration="3" Instrument="Instrument 1"
				Note Time="21" Value="B4" Duration="3" Instrument="Instrument 1"
				Note Time="24" Value="B4" Duration="3" Instrument="Instrument 1"
				Note Time="27" Value="B4" Duration="3" Instrument="Instrument 1"
				Note Time="30" Value="B4" Duration="2" Instrument="Instrument 1"
				Note Time="32" Value="C5" Duration="3" Instrument="Instrument 1"
				Note Time="35" Value="C5" Duration="3" Instrument="Instrument 1"
				Note Time="38" Value="C5" Duration="3" Instrument="Instrument 1"
				Note Time="41" Value="C5" Duration="3" Instrument="Instrument 1"
				Note Time="44" Value="C5" Duration="3" Instrument="Instrument 1"
				Note Time="47" Value="C5" Duration="3" Instrument="Instrument 1"
				Note Time="50" Value="D5" Duration="3" Instrument="Instrument 1"
				Note Time="53" Value="D5" Duration="3" Instrument="Instrument 1"
				Note Time="56" Value="D5" Duration="3" Instrument="Instrument 1"
				Note Time="59" Value="D5" Duration="3" Instrument="Instrument 1"
				Note Time="62" Value="D5" Duration="2" Instrument="Instrument 1"
			Pattern Name="05" Color="dad960"
				Note Time="0" Value="C5" Duration="3" Instrument="Instrument 1"
				Note Time="3" Value="C5" Duration="3" Instrument="Instrument 1"
				Note Time="6" Value="C5" Duration="3" Instrument="Instrument 1"
				Note Time="9" Value="C5" Duration="3" Instrument="Instrument 1"
				Note Time="12" Value="C5" Duration="3" Instrument="Instrument 1"
				Note Time="15" Value="C5" Duration="3" Instrument="Instrument 1"
				Note Time="18" Value="B4" Duration="3" Instrument="Instrument 1"
				Note Time="21" Value="B4" Duration="3" Instrument="Instrument 1"
				Note Time="24" Value="B4" Duration="3" Instrument="Instrument 1"
				Note Time="27" Value="B4" Duration="3" Instrument="Instrument 1"
				Note Time="30" Value="B4" Duration="2" Instrument="Instrument 1"
				Note Time="32" Value="C5" Duration="3" Instrument="Instrument 1"
				Note Time="35" Value="C5" Duration="3" Instrument="Instrument 1"
				Note Time="38" Value="C5" Duration="3" Instrument="Instrument 1"
				Note Time="41" Value="C5" Duration="3" Instrument="Instrument 1"
				Note Time="44" Value="C5" Duration="3" Instrument="Instrument 1"
				Note Time="47" Value="C5" Duration="3" Instrument="Instrument 1"
				Note Time="50" Value="D5" Duration="3" Instrument="Instrument 1"
				Note Time="53" Value="D5" Duration="3" Instrument="Instrument 1"
				Note Time="56" Value="D5" Duration="3" Instrument="Instrument 1"
				Note Time="59" Value="E5" Duration="3" Instrument="Instrument 1"
				Note Time="62" Value="E5" Duration="7" Release="2" Instrument="Instrument 1"
			PatternInstance Time="0" Pattern="01"
			PatternInstance Time="1" Pattern="02"
			PatternInstance Time="2" Pattern="03"
			PatternInstance Time="3" Pattern="09"
			PatternInstance Time="5" Pattern="03"
			PatternInstance Time="6" Pattern="09"
			PatternInstance Time="7" Pattern="09"
			PatternInstance Time="8" Pattern="09"
			PatternInstance Time="11" Pattern="07"
			PatternInstance Time="12" Pattern="08"
			PatternInstance Time="13" Pattern="04"
			PatternInstance Time="14" Pattern="05"
		Channel Type="Square2"
			Pattern Name="00" Color="ba93fe"
				Note Time="0" Value="C4" Duration="2" Instrument="echo" Volume="8" DutyCycle="3" PhaseReset="1"
				Note Time="2" Value="G4" Duration="2" Instrument="echo" Volume="8"
				Note Time="4" Value="C4" Duration="2" Instrument="echo" Volume="8"
				Note Time="6" Value="G4" Duration="2" Instrument="echo" Volume="8"
				Note Time="8" Value="C4" Duration="2" Instrument="echo" Volume="8"
				Note Time="10" Value="G4" Duration="2" Instrument="echo" Volume="8"
				Note Time="12" Value="C4" Duration="2" Instrument="echo" Volume="8"
				Note Time="14" Value="G4" Duration="2" Instrument="echo" Volume="8"
				Note Time="16" Value="G3" Duration="2" Instrument="echo" Volume="8"
				Note Time="18" Value="D4" Duration="2" Instrument="echo" Volume="8"
				Note Time="20" Value="G3" Duration="2" Instrument="echo" Volume="8" DutyCycle="1"
				Note Time="22" Value="D4" Duration="2" Instrument="echo" Volume="8"
				Note Time="24" Value="G3" Duration="2" Instrument="echo" Volume="8"
				Note Time="26" Value="D4" Duration="1" Instrument="echo" Volume="8"
				Note Time="27" Value="G3" Duration="1" Instrument="echo" Volume="1"
				Note Time="28" Value="G3" Duration="1" Instrument="echo" Volume="8"
				Note Time="29" Value="D4" Duration="1" Instrument="echo" Volume="1"
				Note Time="30" Value="D4" Duration="1" Instrument="echo" Volume="8"
				Note Time="31" Value="G3" Duration="1" Instrument="echo" Volume="1"
				Note Time="32" Value="A3" Duration="1" Instrument="echo" Volume="8"
				Note Time="33" Value="D4" Duration="1" Instrument="echo" Volume="1"
				Note Time="34" Value="E4" Duration="1" Instrument="echo" Volume="8"
				Note Time="35" Value="A3" Duration="1" Instrument="echo" Volume="1"
				Note Time="36" Value="A3" Duration="1" Instrument="echo" Volume="8"
				Note Time="37" Value="E4" Duration="1" Instrument="echo" Volume="1"
				Note Time="38" Value="E4" Duration="1" Instrument="echo" Volume="6"
				Note Time="39" Value="A3" Duration="1" Instrument="echo" Volume="1"
				Note Time="40" Value="A3" Duration="1" Instrument="echo" Volume="6"
				Note Time="41" Value="E4" Duration="1" Instrument="echo" Volume="1"
				Note Time="42" Value="E4" Duration="1" Instrument="echo" Volume="6"
				Note Time="43" Value="A3" Duration="1" Instrument="echo" Volume="1"
				Note Time="44" Value="A3" Duration="1" Instrument="echo" Volume="6"
				Note Time="45" Value="E4" Duration="1" Instrument="blank" Volume="1"
				Note Time="46" Value="E4" Duration="1" Instrument="echo" Volume="6"
				Note Time="47" Value="A3" Duration="1" Instrument="blank" Volume="1"
				Note Time="48" Value="F3" Duration="1" Instrument="echo" Volume="6" DutyCycle="3"
				Note Time="49" Value="E4" Duration="1" Instrument="blank" Volume="1"
				Note Time="50" Value="C4" Duration="1" Instrument="echo" Volume="6"
				Note Time="51" Value="F3" Duration="1" Instrument="blank" Volume="1"
				Note Time="52" Value="F3" Duration="1" Instrument="echo" Volume="6"
				Note Time="53" Value="C4" Duration="1" Instrument="blank" Volume="1"
				Note Time="54" Value="C4" Duration="1" Instrument="echo" Volume="6"
				Note Time="55" Value="F3" Duration="1" Instrument="blank" Volume="1"
				Note Time="56" Value="F3" Duration="1" Instrument="echo" Volume="6"
				Note Time="57" Value="C4" Duration="1" Instrument="blank" Volume="1"
				Note Time="58" Value="C4" Duration="1" Instrument="echo" Volume="6"
				Note Time="59" Value="F3" Duration="1" Instrument="blank" Volume="1"
				Note Time="60" Value="F3" Duration="1" Instrument="echo" Volume="6"
				Note Time="61" Value="C4" Duration="1" Instrument="blank" Volume="1"
				Note Time="62" Value="C4" Duration="1" Instrument="echo" Volume="6"
				Note Time="63" Value="F3" Duration="1" Instrument="blank" Volume="1"
			Pattern Name="03" Color="c9aa9f"
				Note Time="0" Value="C4" Duration="1" Instrument="echo" Volume="6"
				Note Time="1" Value="F3" Duration="1" Instrument="DMC: drums + bass" Volume="1"
				Note Time="2" Value="G4" Duration="1" Instrument="echo" Volume="6"
				Note Time="3" Value="C4" Duration="1" Instrument="blank" Volume="1"
				Note Time="4" Value="C4" Duration="1" Instrument="echo" Volume="6"
				Note Time="5" Value="G4" Duration="1" Instrument="blank" Volume="1"
				Note Time="6" Value="G4" Duration="1" Instrument="echo" Volume="6"
				Note Time="7" Value="C4" Duration="1" Instrument="blank" Volume="1"
				Note Time="8" Value="C4" Duration="1" Instrument="echo" Volume="6"
				Note Time="9" Value="G4" Duration="1" Instrument="blank" Volume="1"
				Note Time="10" Value="G4" Duration="1" Instrument="echo" Volume="6"
				Note Time="11" Value="C4" Duration="1" Instrument="blank" Volume="1"
				Note Time="12" Value="C4" Duration="1" Instrument="echo" Volume="6"
				Note Time="13" Value="G4" Duration="1" Instrument="blank" Volume="1"
				Note Time="14" Value="G4" Duration="1" Instrument="echo" Volume="6"
				Note Time="15" Value="C4" Duration="1" Instrument="blank" Volume="1"
				Note Time="16" Value="G3" Duration="1" Instrument="echo" Volume="6" DutyCycle="1"
				Note Time="17" Value="G4" Duration="1" Instrument="blank" Volume="1"
				Note Time="18" Value="D4" Duration="1" Instrument="echo" Volume="6"
				Note Time="19" Value="G3" Duration="1" Instrument="blank" Volume="1"
				Note Time="20" Value="G3" Duration="1" Instrument="echo" Volume="6"
				Note Time="21" Value="D4" Duration="1" Instrument="blank" Volume="1"
				Note Time="22" Value="D4" Duration="1" Instrument="echo" Volume="6"
				Note Time="23" Value="G3" Duration="1" Instrument="blank" Volume="1"
				Note Time="24" Value="G3" Duration="1" Instrument="echo" Volume="6"
				Note Time="25" Value="D4" Duration="1" Instrument="blank" Volume="2"
				Note Time="26" Value="D4" Duration="1" Instrument="echo" Volume="6"
				Note Time="27" Value="G3" Duration="1" Instrument="blank" Volume="2"
				Note Time="28" Value="G3" Duration="1" Instrument="echo" Volume="6"
				Note Time="29" Value="D4" Duration="1" Instrument="blank" Volume="2"
				Note Time="30" Value="D4" Duration="1" Instrument="echo" Volume="6"
				Note Time="31" Value="G3" Duration="1" Instrument="blank" Volume="2"
				Note Time="32" Value="A3" Duration="1" Instrument="echo" Volume="6"
				Note Time="33" Value="D4" Duration="1" Instrument="blank" Volume="2"
				Note Time="34" Value="E4" Duration="1" Instrument="echo" Volume="6"
				Note Time="35" Value="A3" Duration="1" Instrument="blank" Volume="2"
				Note Time="36" Value="A3" Duration="1" Instrument="echo" Volume="6"
				Note Time="37" Value="E4" Duration="1" Instrument="blank" Volume="2"
				Note Time="38" Value="E4" Duration="1" Instrument="echo" Volume="6"
				Note Time="39" Value="A3" Duration="1" Instrument="blank" Volume="2"
				Note Time="40" Value="A3" Duration="1" Instrument="echo" Volume="6"
				Note Time="41" Value="E4" Duration="1" Instrument="blank" Volume="2"
				Note Time="42" Value="E4" Duration="1" Instrument="echo" Volume="6"
				Note Time="43" Value="A3" Duration="1" Instrument="blank" Volume="2"
				Note Time="44" Value="A3" Duration="1" Instrument="echo" Volume="6"
				Note Time="45" Value="E4" Duration="1" Instrument="blank" Volume="2"
				Note Time="46" Value="E4" Duration="1" Instrument="echo" Volume="6"
				Note Time="47" Value="A3" Duration="1" Instrument="blank" Volume="2"
				Note Time="48" Value="F3" Duration="1" Instrument="echo" Volume="6"
				Note Time="49" Value="E4" Duration="1" Instrument="blank" Volume="2"
				Note Time="50" Value="C4" Duration="1" Instrument="echo" Volume="6"
				Note Time="51" Value="F3" Duration="1" Instrument="blank" Volume="2"
				Note Time="52" Value="F3" Duration="1" Instrument="echo" Volume="6"
				Note Time="53" Value="C4" Duration="1" Instrument="blank" Volume="2"
				Note Time="54" Value="C4" Duration="1" Instrument="echo" Volume="6"
				Note Time="55" Value="F3" Duration="1" Instrument="blank" Volume="2"
				Note Time="56" Value="F3" Duration="1" Instrument="echo" Volume="6"
				Note Time="57" Value="C4" Duration="1" Instrument="blank" Volume="2"
				Note Time="58" Value="C4" Duration="1" Instrument="echo" Volume="6"
				Note Time="59" Value="F3" Duration="1" Instrument="blank" Volume="2"
				Note Time="60" Value="F3" Duration="1" Instrument="echo" Volume="6"
				Note Time="61" Value="C4" Duration="1" Instrument="blank" Volume="2"
				Note Time="62" Value="C4" Duration="1" Instrument="echo" Volume="6"
				Note Time="63" Value="F3" Duration="1" Instrument="blank" Volume="2"
			Pattern Name="01" Color="ffff77"
				Note Time="0" Value="C3" Duration="16" Instrument="shift string" Arpeggio="Arp 47" Volume="10"
				Note Time="16" Value="G2" Duration="16" Instrument="shift string" Arpeggio="Arp 47"
				Note Time="32" Value="A2" Duration="16" Instrument="shift string" Arpeggio="Arp 37"
				Note Time="48" Value="F2" Duration="32" Release="16" Instrument="shift string" Arpeggio="Arp 47"
			Pattern Name="07" Color="6c7bdb"
				Note Time="0" Value="C4" Duration="2" Instrument="blank instant decay" Volume="12" DutyCycle="3"
				Note Time="2" Value="C4" Duration="2" Instrument="blank instant decay"
				Note Time="4" Value="C4" Duration="2" Instrument="blank instant decay"
				Note Time="6" Value="C4" Duration="1" Instrument="blank instant decay"
				Note Time="7" Value="C4" Duration="1" Instrument="blank instant decay"
				Note Time="8" Value="C4" Duration="1" Instrument="blank instant decay"
				Note Time="9" Value="C4" Duration="3" Instrument="blank instant decay"
				Note Time="12" Value="C4" Duration="2" Instrument="blank instant decay"
				Note Time="14" Value="C4" Duration="1" Instrument="blank instant decay"
				Note Time="15" Value="C4" Duration="3" Instrument="blank instant decay"
				Note Time="18" Value="B3" Duration="3" Instrument="blank instant decay"
				Note Time="21" Value="B3" Duration="3" Instrument="blank instant decay"
				Note Time="24" Value="B3" Duration="1" Instrument="blank instant decay"
				Note Time="25" Value="B3" Duration="3" Instrument="blank instant decay"
				Note Time="28" Value="B3" Duration="3" Instrument="blank instant decay"
				Note Time="31" Value="B3" Duration="1" Instrument="blank instant decay"
				Note Time="32" Value="C4" Duration="2" Instrument="blank instant decay"
				Note Time="34" Value="C4" Duration="2" Instrument="blank instant decay"
				Note Time="36" Value="C4" Duration="2" Instrument="blank instant decay"
				Note Time="38" Value="C4" Duration="1" Instrument="blank instant decay"
				Note Time="39" Value="C4" Duration="2" Instrument="blank instant decay"
				Note Time="41" Value="C4" Duration="3" Instrument="blank instant decay"
				Note Time="44" Value="C4" Duration="2" Instrument="blank instant decay"
				Note Time="46" Value="C4" Duration="1" Instrument="blank instant decay"
				Note Time="47" Value="C4" Duration="1" Instrument="blank instant decay"
				Note Time="48" Value="C4" Duration="2" Instrument="blank instant decay"
				Note Time="50" Value="D4" Duration="3" Instrument="blank instant decay"
				Note Time="53" Value="D4" Duration="3" Instrument="blank instant decay"
				Note Time="56" Value="D4" Duration="1" Instrument="blank instant decay"
				Note Time="57" Value="D4" Duration="3" Instrument="blank instant decay"
				Note Time="60" Value="D4" Duration="3" Instrument="blank instant decay"
				Note Time="63" Value="D4" Duration="1" Instrument="blank instant decay"
			Pattern Name="08" Color="ff6464"
				Note Time="0" Value="C4" Duration="2" Instrument="blank instant decay" Volume="12" DutyCycle="3"
				Note Time="2" Value="C4" Duration="2" Instrument="blank instant decay"
				Note Time="4" Value="C4" Duration="2" Instrument="blank instant decay"
				Note Time="6" Value="C4" Duration="1" Instrument="blank instant decay"
				Note Time="7" Value="C4" Duration="1" Instrument="blank instant decay"
				Note Time="8" Value="C4" Duration="1" Instrument="blank instant decay"
				Note Time="9" Value="C4" Duration="3" Instrument="blank instant decay"
				Note Time="12" Value="C4" Duration="2" Instrument="blank instant decay"
				Note Time="14" Value="C4" Duration="1" Instrument="blank instant decay"
				Note Time="15" Value="C4" Duration="3" Instrument="blank instant decay"
				Note Time="18" Value="B3" Duration="3" Instrument="blank instant decay"
				Note Time="21" Value="B3" Duration="3" Instrument="blank instant decay"
				Note Time="24" Value="B3" Duration="1" Instrument="blank instant decay"
				Note Time="25" Value="B3" Duration="3" Instrument="blank instant decay"
				Note Time="28" Value="B3" Duration="3" Instrument="blank instant decay"
				Note Time="31" Value="B3" Duration="1" Instrument="blank instant decay"
				Note Time="32" Value="C4" Duration="2" Instrument="blank instant decay"
				Note Time="34" Value="C4" Duration="2" Instrument="blank instant decay"
				Note Time="36" Value="C4" Duration="2" Instrument="blank instant decay"
				Note Time="38" Value="C4" Duration="1" Instrument="blank instant decay"
				Note Time="39" Value="C4" Duration="2" Instrument="blank instant decay"
				Note Time="41" Value="C4" Duration="3" Instrument="blank instant decay"
				Note Time="44" Value="C4" Duration="2" Instrument="blank instant decay"
				Note Time="46" Value="C4" Duration="1" Instrument="blank instant decay"
				Note Time="47" Value="C4" Duration="1" Instrument="blank instant decay"
				Note Time="48" Value="C4" Duration="2" Instrument="blank instant decay"
				Note Time="50" Value="D4" Duration="3" Instrument="blank instant decay"
				Note Time="53" Value="D4" Duration="3" Instrument="blank instant decay"
				Note Time="56" Value="D4" Duration="1" Instrument="blank instant decay"
				Note Time="57" Value="D4" Duration="3" Instrument="blank instant decay"
				Note Time="60" Value="E4" Duration="1" Instrument="blank instant decay"
				Note Time="61" Value="E4" Duration="2" Instrument="blank instant decay"
				Note Time="63" Value="E4" Duration="1" Instrument="blank instant decay"
			Pattern Name="04" Color="ffcb3c"
				Note Time="0" Value="C4" Duration="1" Instrument="Instrument 1" Volume="12" DutyCycle="1"
				Note Time="1" Value="C4" Duration="2" Instrument="Instrument 1" Volume="8"
				Note Time="3" Value="C4" Duration="1" Instrument="Instrument 1" Volume="12"
				Note Time="4" Value="C4" Duration="2" Instrument="Instrument 1" Volume="8"
				Note Time="6" Value="C4" Duration="1" Instrument="Instrument 1" Volume="12"
				Note Time="7" Value="C4" Duration="2" Instrument="Instrument 1" Volume="8"
				Note Time="9" Value="C4" Duration="1" Instrument="Instrument 1" Volume="12"
				Note Time="10" Value="C4" Duration="2" Instrument="Instrument 1" Volume="8"
				Note Time="12" Value="C4" Duration="1" Instrument="Instrument 1" Volume="12"
				Note Time="13" Value="C4" Duration="2" Instrument="Instrument 1" Volume="8"
				Note Time="15" Value="C4" Duration="1" Instrument="Instrument 1" Volume="12"
				Note Time="16" Value="C4" Duration="2" Instrument="Instrument 1" Volume="8"
				Note Time="18" Value="B3" Duration="1" Instrument="Instrument 1" Volume="12"
				Note Time="19" Value="B3" Duration="2" Instrument="Instrument 1" Volume="8"
				Note Time="21" Value="B3" Duration="1" Instrument="Instrument 1" Volume="12"
				Note Time="22" Value="B3" Duration="2" Instrument="Instrument 1" Volume="8"
				Note Time="24" Value="B3" Duration="1" Instrument="Instrument 1" Volume="12"
				Note Time="25" Value="B3" Duration="2" Instrument="Instrument 1" Volume="8"
				Note Time="27" Value="B3" Duration="1" Instrument="Instrument 1" Volume="12"
				Note Time="28" Value="B3" Duration="2" Instrument="Instrument 1" Volume="8"
				Note Time="30" Value="B3" Duration="1" Instrument="Instrument 1" Volume="12"
				Note Time="31" Value="B3" Duration="1" Instrument="Instrument 1" Volume="8"
				Note Time="32" Value="C4" Duration="1" Instrument="Instrument 1" Volume="12"
				Note Time="33" Value="C4" Duration="2" Instrument="Instrument 1" Volume="8"
				Note Time="35" Value="C4" Duration="1" Instrument="Instrument 1" Volume="12"
				Note Time="36" Value="C4" Duration="2" Instrument="Instrument 1" Volume="8"
				Note Time="38" Value="C4" Duration="1" Instrument="Instrument 1" Volume="12"
				Note Time="39" Value="C4" Duration="2" Instrument="Instrument 1" Volume="8"
				Note Time="41" Value="C4" Duration="1" Instrument="Instrument 1" Volume="12"
				Note Time="42" Value="C4" Duration="2" Instrument="Instrument 1" Volume="8"
				Note Time="44" Value="C4" Duration="1" Instrument="Instrument 1" Volume="12"
				Note Time="45" Value="C4" Duration="2" Instrument="Instrument 1" Volume="8"
				Note Time="47" Value="C4" Duration="1" Instrument="Instrument 1" Volume="12"
				Note Time="48" Value="C4" Duration="2" Instrument="Instrument 1" Volume="8"
				Note Time="50" Value="D4" Duration="1" Instrument="Instrument 1" Volume="12"
				Note Time="51" Value="D4" Duration="2" Instrument="Instrument 1" Volume="8"
				Note Time="53" Value="D4" Duration="1" Instrument="Instrument 1" Volume="12"
				Note Time="54" Value="D4" Duration="2" Instrument="Instrument 1" Volume="8"
				Note Time="56" Value="D4" Duration="1" Instrument="Instrument 1" Volume="12"
				Note Time="57" Value="D4" Duration="2" Instrument="Instrument 1" Volume="8"
				Note Time="59" Value="D4" Duration="1" Instrument="Instrument 1" Volume="12"
				Note Time="60" Value="D4" Duration="2" Instrument="Instrument 1" Volume="8"
				Note Time="62" Value="D4" Duration="1" Instrument="Instrument 1" Volume="12"
				Note Time="63" Value="D4" Duration="1" Instrument="Instrument 1" Volume="8"
			Pattern Name="05" Color="bdffc0"
				Note Time="0" Value="C4" Duration="1" Instrument="Instrument 1" Volume="12"
				Note Time="1" Value="C4" Duration="2" Instrument="Instrument 1" Volume="8"
				Note Time="3" Value="C4" Duration="1" Instrument="Instrument 1" Volume="12"
				Note Time="4" Value="C4" Duration="2" Instrument="Instrument 1" Volume="8"
				Note Time="6" Value="C4" Duration="1" Instrument="Instrument 1" Volume="12"
				Note Time="7" Value="C4" Duration="2" Instrument="Instrument 1" Volume="8"
				Note Time="9" Value="C4" Duration="1" Instrument="Instrument 1" Volume="12"
				Note Time="10" Value="C4" Duration="2" Instrument="Instrument 1" Volume="8"
				Note Time="12" Value="C4" Duration="1" Instrument="Instrument 1" Volume="12"
				Note Time="13" Value="C4" Duration="2" Instrument="Instrument 1" Volume="8"
				Note Time="15" Value="C4" Duration="1" Instrument="Instrument 1" Volume="12"
				Note Time="16" Value="C4" Duration="2" Instrument="Instrument 1" Volume="8"
				Note Time="18" Value="B3" Duration="1" Instrument="Instrument 1" Volume="12"
				Note Time="19" Value="B3" Duration="2" Instrument="Instrument 1" Volume="8"
				Note Time="21" Value="B3" Duration="1" Instrument="Instrument 1" Volume="12"
				Note Time="22" Value="B3" Duration="2" Instrument="Instrument 1" Volume="8"
				Note Time="24" Value="B3" Duration="1" Instrument="Instrument 1" Volume="12"
				Note Time="25" Value="B3" Duration="2" Instrument="Instrument 1" Volume="8"
				Note Time="27" Value="B3" Duration="1" Instrument="Instrument 1" Volume="12"
				Note Time="28" Value="B3" Duration="2" Instrument="Instrument 1" Volume="8"
				Note Time="30" Value="B3" Duration="1" Instrument="Instrument 1" Volume="12"
				Note Time="31" Value="B3" Duration="1" Instrument="Instrument 1" Volume="8"
				Note Time="32" Value="C4" Duration="1" Instrument="Instrument 1" Volume="12"
				Note Time="33" Value="C4" Duration="2" Instrument="Instrument 1" Volume="8"
				Note Time="35" Value="C4" Duration="1" Instrument="Instrument 1" Volume="12"
				Note Time="36" Value="C4" Duration="2" Instrument="Instrument 1" Volume="8"
				Note Time="38" Value="C4" Duration="1" Instrument="Instrument 1" Volume="12"
				Note Time="39" Value="C4" Duration="2" Instrument="Instrument 1" Volume="8"
				Note Time="41" Value="C4" Duration="1" Instrument="Instrument 1" Volume="12"
				Note Time="42" Value="C4" Duration="2" Instrument="Instrument 1" Volume="8"
				Note Time="44" Value="C4" Duration="1" Instrument="Instrument 1" Volume="12"
				Note Time="45" Value="C4" Duration="2" Instrument="Instrument 1" Volume="8"
				Note Time="47" Value="C4" Duration="1" Instrument="Instrument 1" Volume="12"
				Note Time="48" Value="C4" Duration="2" Instrument="Instrument 1" Volume="8"
				Note Time="50" Value="D4" Duration="1" Instrument="Instrument 1" Volume="12"
				Note Time="51" Value="D4" Duration="2" Instrument="Instrument 1" Volume="8"
				Note Time="53" Value="D4" Duration="1" Instrument="Instrument 1" Volume="12"
				Note Time="54" Value="D4" Duration="2" Instrument="Instrument 1" Volume="8"
				Note Time="56" Value="D4" Duration="1" Instrument="Instrument 1" Volume="12"
				Note Time="57" Value="D4" Duration="2" Instrument="Instrument 1" Volume="8"
				Note Time="59" Value="E4" Duration="1" Instrument="Instrument 1" Volume="12"
				Note Time="60" Value="E4" Duration="2" Instrument="Instrument 1" Volume="8"
				Note Time="62" Value="E4" Duration="1" Instrument="Instrument 1" Volume="12"
				Note Time="63" Value="E4" Duration="6" Release="1" Instrument="Instrument 1" Volume="8"
			PatternInstance Time="0" Pattern="00"
			PatternInstance Time="1" Pattern="03"
			PatternInstance Time="2" Pattern="01"
			PatternInstance Time="3" Pattern="01"
			PatternInstance Time="5" Pattern="07"
			PatternInstance Time="6" Pattern="08"
			PatternInstance Time="7" Pattern="07"
			PatternInstance Time="8" Pattern="08"
			PatternInstance Time="9" Pattern="07"
			PatternInstance Time="10" Pattern="08"
			PatternInstance Time="11" Pattern="07"
			PatternInstance Time="12" Pattern="08"
			PatternInstance Time="13" Pattern="04"
			PatternInstance Time="14" Pattern="05"
		Channel Type="Triangle"
			Pattern Name="05" Color="ffd43c"
				Note Time="0" Value="C3" Duration="16" Instrument="DMC: drums + bass"
				Note Time="16" Value="G2" Duration="16" Instrument="DMC: drums + bass"
				Note Time="32" Value="A2" Duration="16" Instrument="DMC: drums + bass"
				Note Time="48" Value="F2" Duration="16" Instrument="DMC: drums + bass"
			Pattern Name="01" Color="b8ef7e"
				Note Time="0" Value="C3" Duration="2" Instrument="DMC: drums + bass"
				Note Time="2" Value="C4" Duration="1" Instrument="DMC: drums + bass"
				Note Time="3" Value="C3" Duration="3" Instrument="DMC: drums + bass"
				Note Time="6" Value="C4" Duration="1" Instrument="DMC: drums + bass"
				Note Time="7" Value="C3" Duration="3" Instrument="DMC: drums + bass"
				Note Time="10" Value="C4" Duration="1" Instrument="DMC: drums + bass"
				Note Time="11" Value="C3" Duration="3" Instrument="DMC: drums + bass"
				Note Time="14" Value="C4" Duration="1" Instrument="DMC: drums + bass"
				Note Time="15" Value="C3" Duration="1" Instrument="DMC: drums + bass"
				Note Time="16" Value="G2" Duration="2" Instrument="DMC: drums + bass"
				Note Time="18" Value="G3" Duration="1" Instrument="DMC: drums + bass"
				Note Time="19" Value="G2" Duration="3" Instrument="DMC: drums + bass"
				Note Time="22" Value="G3" Duration="1" Instrument="DMC: drums + bass"
				Note Time="23" Value="G2" Duration="3" Instrument="DMC: drums + bass"
				Note Time="26" Value="G3" Duration="1" Instrument="DMC: drums + bass"
				Note Time="27" Value="G2" Duration="3" Instrument="DMC: drums + bass"
				Note Time="30" Value="G3" Duration="1" Instrument="DMC: drums + bass"
				Note Time="31" Value="G2" Duration="1" Instrument="DMC: drums + bass"
				Note Time="32" Value="A2" Duration="2" Instrument="DMC: drums + bass"
				Note Time="34" Value="A3" Duration="1" Instrument="DMC: drums + bass"
				Note Time="35" Value="A2" Duration="3" Instrument="DMC: drums + bass"
				Note Time="38" Value="A3" Duration="1" Instrument="DMC: drums + bass"
				Note Time="39" Value="A2" Duration="3" Instrument="DMC: drums + bass"
				Note Time="42" Value="A3" Duration="1" Instrument="DMC: drums + bass"
				Note Time="43" Value="A2" Duration="3" Instrument="DMC: drums + bass"
				Note Time="46" Value="A3" Duration="1" Instrument="DMC: drums + bass"
				Note Time="47" Value="A2" Duration="1" Instrument="DMC: drums + bass"
				Note Time="48" Value="F2" Duration="2" Instrument="DMC: drums + bass"
				Note Time="50" Value="F3" Duration="1" Instrument="DMC: drums + bass"
				Note Time="51" Value="F2" Duration="3" Instrument="DMC: drums + bass"
				Note Time="54" Value="F3" Duration="1" Instrument="DMC: drums + bass"
				Note Time="55" Value="F2" Duration="3" Instrument="DMC: drums + bass"
				Note Time="58" Value="F3" Duration="1" Instrument="DMC: drums + bass"
				Note Time="59" Value="F2" Duration="3" Instrument="DMC: drums + bass"
				Note Time="62" Value="F3" Duration="1" Instrument="DMC: drums + bass"
				Note Time="63" Value="F2" Duration="1" Instrument="DMC: drums + bass"
			PatternInstance Time="2" Pattern="05"
			PatternInstance Time="3" Pattern="05"
			PatternInstance Time="5" Pattern="01"
			PatternInstance Time="6" Pattern="01"
			PatternInstance Time="7" Pattern="01"
			PatternInstance Time="8" Pattern="01"
			PatternInstance Time="9" Pattern="01"
			PatternInstance Time="10" Pattern="01"
			PatternInstance Time="11" Pattern="01"
			PatternInstance Time="12" Pattern="01"
			PatternInstance Time="13" Pattern="05"
			PatternInstance Time="14" Pattern="05"
		Channel Type="Noise"
			Pattern Name="01" Color="ff7f51"
				Note Time="56" Value="F#3" Duration="8" Instrument="blank" Volume="1"
				Note Time="57" Volume="2"
				Note Time="58" Volume="3"
				Note Time="59" Volume="4"
				Note Time="60" Volume="5"
				Note Time="61" Volume="6"
				Note Time="62" Volume="7"
				Note Time="63" Volume="8"
			Pattern Name="02" Color="ffffb1"
				Note Time="0" Value="F#3" Duration="2" Instrument="cymbal" Volume="9"
				Note Time="2" Value="G#3" Duration="2" Instrument="blank instant decay"
				Note Time="4" Value="G2" Duration="2" Instrument="snare" Volume="15"
				Note Time="6" Value="G#3" Duration="1" Instrument="hat"
				Note Time="7" Value="A#3" Duration="1" Instrument="hat"
				Note Time="8" Value="G2" Duration="1" Instrument="kick"
				Note Time="9" Value="A#3" Duration="1" Instrument="hat"
				Note Time="10" Value="G#3" Duration="2" Instrument="hat"
				Note Time="12" Value="G2" Duration="2" Instrument="snare"
				Note Time="14" Value="G#3" Duration="1" Instrument="hat"
				Note Time="15" Value="A#3" Duration="1" Instrument="hat"
				Note Time="16" Value="G2" Duration="2" Instrument="kick"
				Note Time="18" Value="G#3" Duration="2" Instrument="hat"
				Note Time="20" Value="G2" Duration="2" Instrument="snare"
				Note Time="22" Value="G#3" Duration="1" Instrument="hat"
				Note Time="23" Value="A#3" Duration="1" Instrument="hat"
				Note Time="24" Value="G2" Duration="1" Instrument="kick"
				Note Time="25" Value="A#3" Duration="1" Instrument="hat"
				Note Time="26" Value="G#3" Duration="2" Instrument="hat"
				Note Time="28" Value="G2" Duration="2" Instrument="snare"
				Note Time="30" Value="G#3" Duration="1" Instrument="hat"
				Note Time="31" Value="A#3" Duration="1" Instrument="hat"
				Note Time="32" Value="G2" Duration="2" Instrument="kick"
				Note Time="34" Value="G#3" Duration="2" Instrument="hat"
				Note Time="36" Value="G2" Duration="2" Instrument="snare"
				Note Time="38" Value="G#3" Duration="1" Instrument="hat"
				Note Time="39" Value="A#3" Duration="1" Instrument="hat"
				Note Time="40" Value="G2" Duration="1" Instrument="kick"
				Note Time="41" Value="A#3" Duration="1" Instrument="hat"
				Note Time="42" Value="G#3" Duration="2" Instrument="hat"
				Note Time="44" Value="G2" Duration="2" Instrument="snare"
				Note Time="46" Value="G#3" Duration="1" Instrument="hat"
				Note Time="47" Value="A#3" Duration="1" Instrument="hat"
				Note Time="48" Value="G2" Duration="2" Instrument="kick"
				Note Time="50" Value="G#3" Duration="2" Instrument="hat"
				Note Time="52" Value="G2" Duration="2" Instrument="snare"
				Note Time="54" Value="G#3" Duration="1" Instrument="hat"
				Note Time="55" Value="A#3" Duration="1" Instrument="hat"
				Note Time="56" Value="G2" Duration="1" Instrument="kick"
				Note Time="57" Value="A#3" Duration="1" Instrument="hat"
				Note Time="58" Value="G#3" Duration="2" Instrument="hat"
				Note Time="60" Value="G2" Duration="2" Instrument="snare"
				Note Time="62" Value="G#3" Duration="1" Instrument="hat"
				Note Time="63" Value="A#3" Duration="1" Instrument="hat"
			Pattern Name="05" Color="62ffff"
				Note Time="0" Value="G2" Duration="2" Instrument="kick"
				Note Time="2" Value="G#3" Duration="2" Instrument="hat"
				Note Time="4" Value="G2" Duration="2" Instrument="snare"
				Note Time="6" Value="G#3" Duration="1" Instrument="hat"
				Note Time="7" Value="A#3" Duration="1" Instrument="hat"
				Note Time="8" Value="G2" Duration="1" Instrument="kick"
				Note Time="9" Value="A#3" Duration="1" Instrument="hat"
				Note Time="10" Value="G#3" Duration="2" Instrument="hat"
				Note Time="12" Value="G2" Duration="2" Instrument="snare"
				Note Time="14" Value="G#3" Duration="1" Instrument="hat"
				Note Time="15" Value="A#3" Duration="1" Instrument="hat"
				Note Time="16" Value="G2" Duration="2" Instrument="kick"
				Note Time="18" Value="G#3" Duration="2" Instrument="hat"
				Note Time="20" Value="G2" Duration="2" Instrument="snare"
				Note Time="22" Value="G#3" Duration="1" Instrument="hat"
				Note Time="23" Value="A#3" Duration="1" Instrument="hat"
				Note Time="24" Value="G2" Duration="1" Instrument="kick"
				Note Time="25" Value="A#3" Duration="1" Instrument="hat"
				Note Time="26" Value="G#3" Duration="2" Instrument="hat"
				Note Time="28" Value="G2" Duration="2" Instrument="snare"
				Note Time="30" Value="G#3" Duration="1" Instrument="hat"
				Note Time="31" Value="A#3" Duration="1" Instrument="hat"
				Note Time="32" Value="G2" Duration="2" Instrument="kick"
				Note Time="34" Value="G#3" Duration="2" Instrument="hat"
				Note Time="36" Value="G2" Duration="2" Instrument="snare"
				Note Time="38" Value="G#3" Duration="1" Instrument="hat"
				Note Time="39" Value="A#3" Duration="1" Instrument="hat"
				Note Time="40" Value="G2" Duration="1" Instrument="kick"
				Note Time="41" Value="A#3" Duration="1" Instrument="hat"
				Note Time="42" Value="G#3" Duration="2" Instrument="hat"
				Note Time="44" Value="G2" Duration="2" Instrument="snare"
				Note Time="46" Value="G#3" Duration="1" Instrument="hat"
				Note Time="47" Value="A#3" Duration="1" Instrument="hat"
				Note Time="48" Value="G2" Duration="2" Instrument="kick"
				Note Time="50" Value="G#3" Duration="2" Instrument="hat"
				Note Time="52" Value="G2" Duration="2" Instrument="snare"
				Note Time="54" Value="G#3" Duration="1" Instrument="hat"
				Note Time="55" Value="A#3" Duration="1" Instrument="hat"
				Note Time="56" Value="G2" Duration="1" Instrument="kick"
				Note Time="57" Value="A#3" Duration="1" Instrument="hat"
				Note Time="58" Value="G#3" Duration="2" Instrument="hat"
				Note Time="60" Value="G2" Duration="2" Instrument="snare"
				Note Time="62" Value="G#3" Duration="1" Instrument="hat"
				Note Time="63" Value="A#3" Duration="9" Instrument="hat"
			Pattern Name="03" Color="a376f3"
				Note Time="8" Value="F#3" Duration="8" Instrument="DMC: drums + bass" Volume="1"
				Note Time="9" Volume="2"
				Note Time="10" Volume="3"
				Note Time="11" Volume="5"
				Note Time="12" Volume="7"
				Note Time="13" Volume="10"
				Note Time="14" Volume="12"
				Note Time="15" Volume="15"
			Pattern Name="04" Color="b59184"
				Note Time="0" Value="G2" Duration="2" Instrument="kick" Volume="15"
				Note Time="2" Value="G#3" Duration="2" Instrument="hat"
				Note Time="4" Value="G2" Duration="2" Instrument="snare"
				Note Time="6" Value="G#3" Duration="1" Instrument="hat"
				Note Time="7" Value="A#3" Duration="1" Instrument="hat"
				Note Time="8" Value="G2" Duration="1" Instrument="kick"
				Note Time="9" Value="A#3" Duration="1" Instrument="hat"
				Note Time="10" Value="G#3" Duration="2" Instrument="hat"
				Note Time="12" Value="G2" Duration="2" Instrument="snare"
				Note Time="14" Value="G#3" Duration="1" Instrument="hat"
				Note Time="15" Value="A#3" Duration="1" Instrument="hat"
				Note Time="16" Value="G2" Duration="2" Instrument="kick"
				Note Time="18" Value="G#3" Duration="2" Instrument="hat"
				Note Time="20" Value="G2" Duration="2" Instrument="snare"
				Note Time="22" Value="G#3" Duration="1" Instrument="hat"
				Note Time="23" Value="A#3" Duration="1" Instrument="hat"
				Note Time="24" Value="G2" Duration="1" Instrument="kick"
				Note Time="25" Value="A#3" Duration="1" Instrument="hat"
				Note Time="26" Value="G#3" Duration="2" Instrument="hat"
				Note Time="28" Value="G2" Duration="2" Instrument="snare"
				Note Time="30" Value="G#3" Duration="1" Instrument="hat"
				Note Time="31" Value="A#3" Duration="1" Instrument="hat"
				Note Time="32" Value="G2" Duration="2" Instrument="kick"
				Note Time="34" Value="G#3" Duration="2" Instrument="hat"
				Note Time="36" Value="G2" Duration="2" Instrument="snare"
				Note Time="38" Value="G#3" Duration="1" Instrument="hat"
				Note Time="39" Value="A#3" Duration="1" Instrument="hat"
				Note Time="40" Value="G2" Duration="1" Instrument="kick"
				Note Time="41" Value="A#3" Duration="1" Instrument="hat"
				Note Time="42" Value="G#3" Duration="2" Instrument="hat"
				Note Time="44" Value="G2" Duration="2" Instrument="snare"
				Note Time="46" Value="G#3" Duration="1" Instrument="hat"
				Note Time="47" Value="A#3" Duration="1" Instrument="hat"
				Note Time="48" Value="G2" Duration="2" Instrument="kick"
				Note Time="50" Value="G#3" Duration="2" Instrument="hat"
				Note Time="52" Value="G2" Duration="2" Instrument="snare"
				Note Time="54" Value="G#3" Duration="1" Instrument="hat"
				Note Time="55" Value="A#3" Duration="1" Instrument="hat"
				Note Time="56" Value="G2" Duration="1" Instrument="kick"
				Note Time="57" Value="A#3" Duration="1" Instrument="hat"
				Note Time="58" Value="G#3" Duration="2" Instrument="hat"
				Note Time="60" Value="G2" Duration="2" Instrument="snare"
				Note Time="62" Value="G#3" Duration="1" Instrument="hat"
				Note Time="63" Value="A#3" Duration="1" Instrument="hat"
			Pattern Name="06" Color="ffff71"
				Note Time="0" Value="F#3" Duration="133" Release="8" Instrument="cymbal" Volume="15"
			PatternInstance Time="1" Pattern="01"
			PatternInstance Time="2" Pattern="02"
			PatternInstance Time="3" Pattern="05"
			PatternInstance Time="4" Pattern="03"
			PatternInstance Time="5" Pattern="04"
			PatternInstance Time="6" Pattern="04"
			PatternInstance Time="7" Pattern="04"
			PatternInstance Time="8" Pattern="04"
			PatternInstance Time="9" Pattern="04"
			PatternInstance Time="10" Pattern="04"
			PatternInstance Time="11" Pattern="04"
			PatternInstance Time="12" Pattern="04"
			PatternInstance Time="13" Pattern="06"
		Channel Type="DPCM"
			Pattern Name="01" Color="6471cf"
				Note Time="4" Value="F5" Duration="8" Instrument="DMC: drums + bass"
				Note Time="12" Value="F5" Duration="8" Instrument="DMC: drums + bass"
				Note Time="20" Value="F5" Duration="8" Instrument="DMC: drums + bass"
				Note Time="28" Value="F5" Duration="8" Instrument="DMC: drums + bass"
				Note Time="36" Value="F5" Duration="8" Instrument="DMC: drums + bass"
				Note Time="44" Value="F5" Duration="8" Instrument="DMC: drums + bass"
				Note Time="52" Value="F5" Duration="8" Instrument="DMC: drums + bass"
				Note Time="60" Value="F5" Duration="20" Instrument="DMC: drums + bass"
			Pattern Name="02" Color="ffafaf"
				Note Time="0" Value="E5" Duration="2" Instrument="DMC: drums + bass"
				Note Time="2" Value="C4" Duration="2" Instrument="DMC: drums + bass"
				Note Time="4" Value="F5" Duration="2" Instrument="DMC: drums + bass"
				Note Time="6" Value="C4" Duration="4" Instrument="DMC: drums + bass"
				Note Time="10" Value="C4" Duration="2" Instrument="DMC: drums + bass"
				Note Time="12" Value="F5" Duration="2" Instrument="DMC: drums + bass"
				Note Time="14" Value="C4" Duration="2" Instrument="DMC: drums + bass"
				Note Time="16" Value="E5" Duration="2" Instrument="DMC: drums + bass"
				Note Time="18" Value="G3" Duration="2" Instrument="DMC: drums + bass"
				Note Time="20" Value="F5" Duration="2" Instrument="DMC: drums + bass"
				Note Time="22" Value="G3" Duration="4" Instrument="DMC: drums + bass"
				Note Time="26" Value="G3" Duration="2" Instrument="DMC: drums + bass"
				Note Time="28" Value="F5" Duration="2" Instrument="DMC: drums + bass"
				Note Time="30" Value="G3" Duration="2" Instrument="DMC: drums + bass"
				Note Time="32" Value="E5" Duration="2" Instrument="DMC: drums + bass"
				Note Time="34" Value="A3" Duration="2" Instrument="DMC: drums + bass"
				Note Time="36" Value="F5" Duration="2" Instrument="DMC: drums + bass"
				Note Time="38" Value="A3" Duration="4" Instrument="DMC: drums + bass"
				Note Time="42" Value="A3" Duration="2" Instrument="DMC: drums + bass"
				Note Time="44" Value="F5" Duration="2" Instrument="DMC: drums + bass"
				Note Time="46" Value="A3" Duration="2" Instrument="DMC: drums + bass"
				Note Time="48" Value="E5" Duration="2" Instrument="DMC: drums + bass"
				Note Time="50" Value="F3" Duration="2" Instrument="DMC: drums + bass"
				Note Time="52" Value="F5" Duration="2" Instrument="DMC: drums + bass"
				Note Time="54" Value="F3" Duration="4" Instrument="DMC: drums + bass"
				Note Time="58" Value="F3" Duration="2" Instrument="DMC: drums + bass"
				Note Time="60" Value="F5" Duration="2" Instrument="DMC: drums + bass"
				Note Time="62" Value="F3" Duration="2" Instrument="DMC: drums + bass"
			PatternInstance Time="2" Pattern="01"
			PatternInstance Time="3" Pattern="01"
			PatternInstance Time="5" Pattern="02"
			PatternInstance Time="6" Pattern="02"
			PatternInstance Time="7" Pattern="02"
			PatternInstance Time="8" Pattern="02"
			PatternInstance Time="9" Pattern="02"
			PatternInstance Time="10" Pattern="02"
			PatternInstance Time="11" Pattern="02"
			PatternInstance Time="12" Pattern="02"
	Song Name="Back on Track" Color="b59184" Folder="Official music used in the game" Length="13" LoopPoint="-1" PatternLength="64" BeatLength="4" FamiTrackerTempo="142" FamiTrackerSpeed="6"
		PatternCustomSettings Time="12" Length="16"
		Channel Type="Square1"
			Pattern Name="00" Color="ca60e6"
				Note Time="0" Value="D4" Duration="4" Instrument="echo" Volume="15" FinePitch="0" DutyCycle="2"
				Note Time="4" Value="A#3" Duration="8" Instrument="echo"
				Note Time="12" Value="G4" Duration="4" Instrument="echo"
				Note Time="16" Value="F4" Duration="4" Instrument="echo"
				Note Time="20" Value="D#4" Duration="4" Instrument="echo"
				Note Time="24" Value="A#3" Duration="4" Instrument="echo"
				Note Time="28" Value="C4" Duration="2" Instrument="echo"
				Note Time="30" Value="D4" Duration="2" Instrument="echo"
				Note Time="32" Value="D4" Duration="4" Instrument="echo"
				Note Time="36" Value="A#3" Duration="8" Instrument="echo"
				Note Time="44" Value="D#4" Duration="4" Instrument="echo"
				Note Time="48" Value="C4" Duration="4" Instrument="echo"
				Note Time="52" Value="A#3" Duration="2" Instrument="echo"
				Note Time="54" Value="C4" Duration="2" Instrument="echo"
				Note Time="56" Value="F4" Duration="4" Instrument="echo"
				Note Time="60" Value="D#4" Duration="2" Instrument="echo"
				Note Time="62" Value="D4" Duration="2" Instrument="echo"
			Pattern Name="01" Color="ff8d5a"
				Note Time="0" Value="D4" Duration="2" Instrument="blank" Volume="4" FinePitch="1" DutyCycle="1"
				Note Time="2" Value="D#4" Duration="2" Instrument="blank" Volume="1"
				Note Time="4" Value="A#3" Duration="2" Instrument="blank" Volume="4"
				Note Time="6" Value="D4" Duration="2" Instrument="blank" Volume="1"
				Note Time="8" Value="A#3" Duration="2" Instrument="blank"
				Note Time="10" Value="D4" Duration="2" Instrument="blank" Volume="4"
				Note Time="12" Value="G4" Duration="2" Instrument="blank"
				Note Time="14" Value="D4" Duration="2" Instrument="blank" Volume="1"
				Note Time="16" Value="F4" Duration="2" Instrument="blank" Volume="4"
				Note Time="18" Value="G4" Duration="2" Instrument="blank" Volume="1"
				Note Time="20" Value="D#4" Duration="2" Instrument="blank" Volume="4"
				Note Time="22" Value="F4" Duration="2" Instrument="blank" Volume="1"
				Note Time="24" Value="A#3" Duration="2" Instrument="blank" Volume="4"
				Note Time="26" Value="D#4" Duration="2" Instrument="blank" Volume="1"
				Note Time="28" Value="C4" Duration="2" Instrument="blank" Volume="4"
				Note Time="30" Value="D4" Duration="1" Instrument="blank"
				Note Time="32" Value="D4" Duration="2" Instrument="blank"
				Note Time="34" Value="C4" Duration="2" Instrument="blank" Volume="1"
				Note Time="36" Value="A#3" Duration="2" Instrument="blank" Volume="4"
				Note Time="38" Value="D4" Duration="2" Instrument="blank" Volume="1"
				Note Time="40" Value="C4" Duration="2" Instrument="blank"
				Note Time="42" Value="D#4" Duration="2" Instrument="blank" Volume="4"
				Note Time="44" Value="D4" Duration="2" Instrument="blank"
				Note Time="46" Value="D#4" Duration="2" Instrument="blank" Volume="1"
				Note Time="48" Value="C4" Duration="2" Instrument="blank" Volume="4"
				Note Time="50" Value="D#4" Duration="2" Instrument="blank" Volume="1"
				Note Time="52" Value="A#3" Duration="2" Instrument="blank" Volume="4"
				Note Time="54" Value="C4" Duration="2" Instrument="blank"
				Note Time="56" Value="F4" Duration="2" Instrument="blank"
				Note Time="58" Value="A#3" Duration="2" Instrument="blank" Volume="1"
				Note Time="60" Value="D#4" Duration="2" Instrument="blank" Volume="4"
				Note Time="62" Value="D4" Duration="2" Instrument="blank"
			Pattern Name="02" Color="ebf067"
				Note Time="0" Value="D4" Duration="2" Instrument="blank" Volume="3"
				Note Time="1" Volume="4"
				Note Time="4" Value="A#3" Duration="4" Instrument="blank" Volume="3"
				Note Time="5" Volume="4"
				Note Time="8" Volume="3"
				Note Time="9" Volume="4"
				Note Time="10" Value="D4" Duration="1" Instrument="blank" CutDelay="3"
				Note Time="11" Value="D4" Duration="1" Instrument="blank" CutDelay="3"
				Note Time="12" Value="G4" Duration="2" Instrument="blank" Volume="3"
				Note Time="13" Volume="4"
				Note Time="14" Value="F4" Duration="3" Instrument="blank"
				Note Time="16" Volume="3"
				Note Time="17" Volume="4"
				Note Time="18" Value="F4" Duration="1" Instrument="blank" CutDelay="3"
				Note Time="19" Value="F4" Duration="1" Instrument="blank" CutDelay="3"
				Note Time="20" Value="D#4" Duration="2" Instrument="blank" Volume="3"
				Note Time="21" Volume="4"
				Note Time="22" Value="D4" Duration="2" Instrument="blank"
				Note Time="24" Value="A#3" Duration="4" Instrument="blank" Volume="3"
				Note Time="25" Volume="4"
				Note Time="28" Value="C4" Duration="2" Instrument="blank" Volume="3"
				Note Time="29" Volume="4"
				Note Time="30" Value="D4" Duration="2" Instrument="blank"
				Note Time="31" CutDelay="3"
				Note Time="32" Value="D4" Duration="2" Instrument="blank" Volume="3"
				Note Time="33" Volume="4"
				Note Time="36" Value="A#3" Duration="4" Instrument="blank" Volume="3"
				Note Time="37" Volume="4"
				Note Time="40" Volume="3"
				Note Time="41" Volume="4"
				Note Time="42" Value="D#4" Duration="1" Instrument="blank" CutDelay="3"
				Note Time="43" Value="D#4" Duration="1" Instrument="blank" CutDelay="3"
				Note Time="44" Value="D4" Duration="2" Instrument="blank" Volume="3"
				Note Time="45" Volume="4"
				Note Time="46" Value="C4" Duration="2" Instrument="blank"
				Note Time="48" Value="C4" Duration="2" Instrument="blank" Volume="3"
				Note Time="49" Volume="4"
				Note Time="50" Value="C4" Duration="1" Instrument="blank" CutDelay="3"
				Note Time="51" Value="C4" Duration="1" Instrument="blank" CutDelay="3"
				Note Time="52" Value="A#3" Duration="2" Instrument="blank" Volume="3"
				Note Time="53" Volume="4"
				Note Time="54" Value="C4" Duration="2" Instrument="blank"
				Note Time="56" Value="F4" Duration="4" Instrument="blank" Volume="3"
				Note Time="57" Volume="4"
				Note Time="60" Value="D#4" Duration="2" Instrument="blank" Volume="3"
				Note Time="61" Volume="4"
				Note Time="62" Value="D4" Duration="2" Instrument="blank"
				Note Time="63" CutDelay="3"
			Pattern Name="03" Color="3cbfcb"
				Note Time="0" Value="D4" Duration="4" Instrument="blank" Arpeggio="Arp 0C" Volume="3"
				Note Time="1" Volume="4"
				Note Time="4" Value="A#3" Duration="4" Instrument="blank" Arpeggio="Arp 0C" Volume="3"
				Note Time="5" Volume="4"
				Note Time="8" Value="C4" Duration="2" Instrument="blank" Arpeggio="Arp 0C" Volume="3"
				Note Time="9" Volume="4"
				Note Time="10" Value="D4" Duration="1" Instrument="blank" Arpeggio="Arp 0C"
				Note Time="12" Value="A#3" Duration="2" Instrument="blank" Arpeggio="Arp 0C" Volume="3"
				Note Time="13" Volume="4"
				Note Time="14" Value="D4" Duration="1" Instrument="blank" Arpeggio="Arp 0C"
				Note Time="16" Value="C4" Duration="4" Instrument="blank" Arpeggio="Arp 0C" Volume="3"
				Note Time="17" Volume="4"
				Note Time="20" Value="A#3" Duration="4" Instrument="blank" Arpeggio="Arp 0C" Volume="3"
				Note Time="21" Volume="4"
				Note Time="24" Value="C4" Duration="2" Instrument="blank" Arpeggio="Arp 0C" Volume="3"
				Note Time="25" Volume="4"
				Note Time="26" Value="A#3" Duration="1" Instrument="blank" Arpeggio="Arp 0C"
				Note Time="28" Value="C4" Duration="2" Instrument="blank" Arpeggio="Arp 0C" Volume="3"
				Note Time="29" Volume="4"
				Note Time="30" Value="F4" Duration="1" Instrument="blank" Arpeggio="Arp 0C"
				Note Time="32" Value="D4" Duration="4" Instrument="blank" Arpeggio="Arp 0C" Volume="3"
				Note Time="33" Volume="4"
				Note Time="36" Value="A#3" Duration="4" Instrument="blank" Arpeggio="Arp 0C" Volume="3"
				Note Time="37" Volume="4"
				Note Time="40" Value="C4" Duration="2" Instrument="blank" Arpeggio="Arp 0C" Volume="3"
				Note Time="41" Volume="4"
				Note Time="42" Value="A#3" Duration="1" Instrument="blank" Arpeggio="Arp 0C"
				Note Time="44" Value="D4" Duration="2" Instrument="blank" Arpeggio="Arp 0C" Volume="3"
				Note Time="45" Volume="4"
				Note Time="46" Value="F4" Duration="1" Instrument="blank" Arpeggio="Arp 0C"
				Note Time="48" Value="C4" Duration="4" Instrument="blank" Arpeggio="Arp 0C" Volume="3"
				Note Time="49" Volume="4"
				Note Time="52" Value="A#3" Duration="2" Instrument="blank" Arpeggio="Arp 0C" Volume="3"
				Note Time="53" Volume="4"
				Note Time="54" Value="D4" Duration="2" Instrument="blank" Arpeggio="Arp 0C"
				Note Time="56" Value="F4" Duration="1" Instrument="blank" Arpeggio="Arp 0C" Volume="3" CutDelay="5"
				Note Time="57" Value="F4" Duration="1" Instrument="blank" Arpeggio="Arp 0C" Volume="4" CutDelay="5"
				Note Time="58" Value="F4" Duration="1" Instrument="blank" Arpeggio="Arp 0C" CutDelay="5"
				Note Time="59" Value="F4" Duration="1" Instrument="blank" Arpeggio="Arp 0C" CutDelay="5"
				Note Time="60" Value="D#4" Duration="2" Instrument="blank" Arpeggio="Arp 0C" Volume="3"
				Note Time="61" Volume="4"
				Note Time="62" Value="D4" Duration="1" Instrument="blank" Arpeggio="Arp 0C"
			Pattern Name="04" Color="d1b1ff"
				Note Time="0" Value="D4" Duration="4" Instrument="blank" Arpeggio="Arp CC" Volume="3"
				Note Time="1" Volume="4"
				Note Time="4" Value="A#3" Duration="4" Instrument="blank" Arpeggio="Arp CC" Volume="3"
				Note Time="5" Volume="4"
				Note Time="8" Value="C4" Duration="2" Instrument="blank" Arpeggio="Arp CC" Volume="3"
				Note Time="9" Volume="4"
				Note Time="10" Value="D4" Duration="1" Instrument="blank" Arpeggio="Arp CC"
				Note Time="12" Value="A#3" Duration="2" Instrument="blank" Arpeggio="Arp CC" Volume="3"
				Note Time="13" Volume="4"
				Note Time="14" Value="D4" Duration="1" Instrument="blank" Arpeggio="Arp CC"
				Note Time="16" Value="C4" Duration="4" Instrument="blank" Arpeggio="Arp CC" Volume="3"
				Note Time="17" Volume="4"
				Note Time="20" Value="A#3" Duration="4" Instrument="blank" Arpeggio="Arp CC" Volume="3"
				Note Time="21" Volume="4"
				Note Time="24" Value="C4" Duration="2" Instrument="blank" Arpeggio="Arp CC" Volume="3"
				Note Time="25" Volume="4"
				Note Time="26" Value="A#3" Duration="1" Instrument="blank" Arpeggio="Arp CC"
				Note Time="28" Value="C4" Duration="2" Instrument="blank" Arpeggio="Arp CC" Volume="3"
				Note Time="29" Volume="4"
				Note Time="30" Value="F4" Duration="1" Instrument="blank" Arpeggio="Arp CC"
				Note Time="32" Value="D4" Duration="4" Instrument="blank" Arpeggio="Arp CC" Volume="3"
				Note Time="33" Volume="4"
				Note Time="36" Value="A#3" Duration="4" Instrument="blank" Arpeggio="Arp CC" Volume="3"
				Note Time="37" Volume="4"
				Note Time="40" Value="C4" Duration="2" Instrument="blank" Arpeggio="Arp CC" Volume="3"
				Note Time="41" Volume="4"
				Note Time="42" Value="A#3" Duration="1" Instrument="blank" Arpeggio="Arp CC"
				Note Time="44" Value="D4" Duration="2" Instrument="blank" Arpeggio="Arp CC" Volume="3"
				Note Time="45" Volume="4"
				Note Time="46" Value="F4" Duration="1" Instrument="blank" Arpeggio="Arp CC"
				Note Time="48" Value="C4" Duration="4" Instrument="blank" Arpeggio="Arp CC" Volume="3"
				Note Time="49" Volume="4"
				Note Time="52" Value="A#3" Duration="2" Instrument="blank" Arpeggio="Arp CC" Volume="3"
				Note Time="53" Volume="4"
				Note Time="54" Value="D4" Duration="2" Instrument="blank" Arpeggio="Arp CC"
				Note Time="56" Value="F4" Duration="1" Instrument="blank" Arpeggio="Arp CC" Volume="3" CutDelay="5"
				Note Time="57" Value="F4" Duration="1" Instrument="blank" Arpeggio="Arp CC" Volume="4" CutDelay="5"
				Note Time="58" Value="F4" Duration="1" Instrument="blank" Arpeggio="Arp CC" CutDelay="5"
				Note Time="59" Value="F4" Duration="1" Instrument="blank" Arpeggio="Arp CC" CutDelay="5"
				Note Time="60" Value="D#4" Duration="2" Instrument="blank" Arpeggio="Arp CC" Volume="3"
				Note Time="61" Volume="4"
				Note Time="62" Value="D4" Duration="1" Instrument="blank" Arpeggio="Arp CC"
			PatternInstance Time="0" Pattern="00"
			PatternInstance Time="1" Pattern="00"
			PatternInstance Time="2" Pattern="01"
			PatternInstance Time="3" Pattern="01"
			PatternInstance Time="4" Pattern="01"
			PatternInstance Time="5" Pattern="01"
			PatternInstance Time="6" Pattern="02"
			PatternInstance Time="7" Pattern="02"
			PatternInstance Time="8" Pattern="02"
			PatternInstance Time="9" Pattern="02"
			PatternInstance Time="10" Pattern="03"
			PatternInstance Time="11" Pattern="04"
		Channel Type="Square2"
			Pattern Name="00" Color="ffff94"
				Note Time="0" Value="D5" Duration="4" Instrument="echo" Volume="7" FinePitch="0" DutyCycle="2"
				Note Time="4" Value="A#4" Duration="8" Instrument="echo"
				Note Time="12" Value="G5" Duration="4" Instrument="echo"
				Note Time="16" Value="F5" Duration="4" Instrument="echo"
				Note Time="20" Value="D#5" Duration="4" Instrument="echo"
				Note Time="24" Value="A#4" Duration="4" Instrument="echo"
				Note Time="28" Value="C5" Duration="2" Instrument="echo"
				Note Time="30" Value="D5" Duration="2" Instrument="echo"
				Note Time="32" Value="D5" Duration="4" Instrument="echo"
				Note Time="36" Value="A#4" Duration="8" Instrument="echo"
				Note Time="44" Value="D#5" Duration="4" Instrument="echo"
				Note Time="48" Value="C5" Duration="4" Instrument="echo"
				Note Time="52" Value="A#4" Duration="2" Instrument="echo"
				Note Time="54" Value="C5" Duration="2" Instrument="echo"
				Note Time="56" Value="F5" Duration="4" Instrument="echo"
				Note Time="60" Value="D#5" Duration="2" Instrument="echo"
				Note Time="62" Value="D5" Duration="2" Instrument="echo"
			Pattern Name="01" Color="3cd2c4"
				Note Time="0" Value="D4" Duration="2" Instrument="blank" Volume="4" FinePitch="-1" DutyCycle="1"
				Note Time="2" Value="G3" Duration="2" Instrument="blank" Arpeggio="Arp 37" Volume="2"
				Note Time="4" Value="A#3" Duration="2" Instrument="blank" Volume="4"
				Note Time="6" Value="G3" Duration="4" Instrument="blank" Arpeggio="Arp 37" Volume="2"
				Note Time="10" Value="D4" Duration="2" Instrument="blank" Volume="4"
				Note Time="12" Value="G4" Duration="2" Instrument="blank"
				Note Time="14" Value="G3" Duration="2" Instrument="blank" Arpeggio="Arp 37" Volume="2"
				Note Time="16" Value="F4" Duration="2" Instrument="blank" Volume="4"
				Note Time="18" Value="G3" Duration="2" Instrument="blank" Arpeggio="Arp 38" Volume="2"
				Note Time="20" Value="D#4" Duration="2" Instrument="blank" Volume="4"
				Note Time="22" Value="G3" Duration="2" Instrument="blank" Arpeggio="Arp 38" Volume="2"
				Note Time="24" Value="A#3" Duration="2" Instrument="blank" Volume="4"
				Note Time="26" Value="G3" Duration="2" Instrument="blank" Arpeggio="Arp 38" Volume="2"
				Note Time="28" Value="C4" Duration="2" Instrument="blank" Volume="4"
				Note Time="30" Value="D4" Duration="1" Instrument="blank"
				Note Time="32" Value="D4" Duration="2" Instrument="blank"
				Note Time="34" Value="F3" Duration="2" Instrument="blank" Arpeggio="Arp 47" Volume="2"
				Note Time="36" Value="A#3" Duration="2" Instrument="blank" Volume="4"
				Note Time="38" Value="F3" Duration="4" Instrument="blank" Arpeggio="Arp 47" Volume="2"
				Note Time="42" Value="D#4" Duration="2" Instrument="blank" Volume="4"
				Note Time="44" Value="D4" Duration="2" Instrument="blank"
				Note Time="46" Value="F3" Duration="2" Instrument="blank" Arpeggio="Arp 47" Volume="2"
				Note Time="48" Value="C4" Duration="2" Instrument="blank" Volume="4"
				Note Time="50" Value="F3" Duration="2" Instrument="blank" Arpeggio="Arp 59" Volume="2"
				Note Time="52" Value="A#3" Duration="2" Instrument="blank" Volume="4"
				Note Time="54" Value="C4" Duration="2" Instrument="blank"
				Note Time="56" Value="F4" Duration="2" Instrument="blank"
				Note Time="58" Value="F3" Duration="2" Instrument="blank" Arpeggio="Arp 59" Volume="2"
				Note Time="60" Value="D#4" Duration="2" Instrument="blank" Volume="4"
				Note Time="62" Value="D4" Duration="2" Instrument="blank"
			Pattern Name="02" Color="7585e7"
				Note Time="0" Value="D4" Duration="2" Instrument="blank" Volume="4"
				Note Time="1" Volume="4"
				Note Time="4" Value="A#3" Duration="4" Instrument="blank" Volume="3"
				Note Time="5" Volume="4"
				Note Time="8" Volume="3"
				Note Time="9" Volume="4"
				Note Time="10" Value="D4" Duration="1" Instrument="blank" CutDelay="3"
				Note Time="11" Value="D4" Duration="1" Instrument="blank" CutDelay="3"
				Note Time="12" Value="G4" Duration="2" Instrument="blank" Volume="3"
				Note Time="13" Volume="4"
				Note Time="14" Value="F4" Duration="3" Instrument="blank"
				Note Time="16" Volume="3"
				Note Time="17" Value="G3" Duration="1" Instrument="blank" Arpeggio="Arp 38" Volume="1"
				Note Time="18" Value="F4" Duration="1" Instrument="blank" Volume="4"
				Note Time="19" Value="F4" Duration="1" Instrument="blank" CutDelay="3"
				Note Time="20" Value="D#4" Duration="2" Instrument="blank" Volume="3"
				Note Time="21" Volume="4"
				Note Time="22" Value="D4" Duration="2" Instrument="blank"
				Note Time="24" Value="A#3" Duration="4" Instrument="blank" Volume="3"
				Note Time="25" Volume="4"
				Note Time="28" Value="C4" Duration="2" Instrument="blank" Volume="3"
				Note Time="29" Volume="4"
				Note Time="30" Value="D4" Duration="2" Instrument="blank"
				Note Time="31" CutDelay="3"
				Note Time="32" Value="D4" Duration="2" Instrument="blank" Volume="3"
				Note Time="33" Volume="4"
				Note Time="34" Value="F3" Duration="2" Instrument="blank" Arpeggio="Arp 47" Volume="1"
				Note Time="36" Value="A#3" Duration="4" Instrument="blank" Volume="3"
				Note Time="37" Volume="4"
				Note Time="40" Value="F3" Duration="2" Instrument="blank" Arpeggio="Arp 47" Volume="1"
				Note Time="42" Value="D#4" Duration="1" Instrument="blank" Volume="4"
				Note Time="43" Value="D#4" Duration="1" Instrument="blank" CutDelay="3"
				Note Time="44" Value="D4" Duration="2" Instrument="blank" Volume="3"
				Note Time="45" Volume="4"
				Note Time="46" Value="C4" Duration="2" Instrument="blank"
				Note Time="48" Value="C4" Duration="2" Instrument="blank" Volume="3"
				Note Time="49" Volume="4"
				Note Time="50" Value="C4" Duration="1" Instrument="blank" CutDelay="3"
				Note Time="51" Value="C4" Duration="1" Instrument="blank" CutDelay="3"
				Note Time="52" Value="A#3" Duration="2" Instrument="blank" Volume="3"
				Note Time="53" Volume="4"
				Note Time="54" Value="C4" Duration="2" Instrument="blank"
				Note Time="56" Value="F4" Duration="4" Instrument="blank" Volume="3"
				Note Time="57" Volume="4"
				Note Time="60" Value="D#4" Duration="2" Instrument="blank" Volume="3"
				Note Time="61" Volume="4"
				Note Time="62" Value="D4" Duration="2" Instrument="blank"
				Note Time="63" CutDelay="3"
			Pattern Name="03" Color="ff6b6b"
				Note Time="0" Value="D4" Duration="2" Instrument="blank" Volume="4"
				Note Time="1" Volume="4"
				Note Time="2" Value="G3" Duration="2" Instrument="blank" Arpeggio="Arp 37" Volume="2"
				Note Time="4" Value="A#3" Duration="4" Instrument="blank" Volume="3"
				Note Time="5" Volume="4"
				Note Time="8" Value="G3" Duration="2" Instrument="blank" Arpeggio="Arp 37" Volume="2"
				Note Time="10" Value="D4" Duration="1" Instrument="blank"
				Note Time="11" Value="D4" Duration="1" Instrument="blank" CutDelay="3"
				Note Time="12" Value="G4" Duration="2" Instrument="blank" Volume="3"
				Note Time="13" Volume="4"
				Note Time="14" Value="F4" Duration="3" Instrument="blank"
				Note Time="16" Volume="3"
				Note Time="17" Value="G3" Duration="1" Instrument="blank" Arpeggio="Arp 38" Volume="2"
				Note Time="18" Value="F4" Duration="1" Instrument="blank" Volume="4"
				Note Time="19" Value="F4" Duration="1" Instrument="blank" CutDelay="3"
				Note Time="20" Value="D#4" Duration="2" Instrument="blank" Volume="3"
				Note Time="21" Volume="4"
				Note Time="22" Value="D4" Duration="2" Instrument="blank"
				Note Time="24" Value="A#3" Duration="4" Instrument="blank" Volume="3"
				Note Time="25" Volume="4"
				Note Time="28" Value="C4" Duration="2" Instrument="blank" Volume="3"
				Note Time="29" Volume="4"
				Note Time="30" Value="D4" Duration="2" Instrument="blank"
				Note Time="31" CutDelay="3"
				Note Time="32" Value="D4" Duration="2" Instrument="blank" Volume="3"
				Note Time="33" Volume="4"
				Note Time="34" Value="F3" Duration="2" Instrument="blank" Arpeggio="Arp 47" Volume="2"
				Note Time="36" Value="A#3" Duration="4" Instrument="blank" Volume="3"
				Note Time="37" Volume="4"
				Note Time="40" Value="F3" Duration="2" Instrument="blank" Arpeggio="Arp 47" Volume="2"
				Note Time="42" Value="D#4" Duration="1" Instrument="blank" Volume="4"
				Note Time="43" Value="D#4" Duration="1" Instrument="blank" CutDelay="3"
				Note Time="44" Value="D4" Duration="2" Instrument="blank" Volume="3"
				Note Time="45" Volume="4"
				Note Time="46" Value="C4" Duration="2" Instrument="blank"
				Note Time="48" Value="C4" Duration="2" Instrument="blank" Volume="3"
				Note Time="49" Volume="4"
				Note Time="50" Value="C4" Duration="1" Instrument="blank" CutDelay="3"
				Note Time="51" Value="C4" Duration="1" Instrument="blank" CutDelay="3"
				Note Time="52" Value="A#3" Duration="2" Instrument="blank" Volume="3"
				Note Time="53" Volume="4"
				Note Time="54" Value="C4" Duration="2" Instrument="blank"
				Note Time="56" Value="F4" Duration="4" Instrument="blank" Volume="3"
				Note Time="57" Volume="4"
				Note Time="60" Value="D#4" Duration="2" Instrument="blank" Volume="3"
				Note Time="61" Volume="4"
				Note Time="62" Value="D4" Duration="2" Instrument="blank"
				Note Time="63" CutDelay="3"
			Pattern Name="04" Color="ffdc3c"
				Note Time="0" Value="D4" Duration="4" Instrument="blank" Volume="3"
				Note Time="1" Volume="4"
				Note Time="4" Value="A#3" Duration="4" Instrument="blank" Volume="3"
				Note Time="5" Volume="4"
				Note Time="8" Value="C4" Duration="2" Instrument="blank" Volume="3"
				Note Time="9" Volume="4"
				Note Time="10" Value="D4" Duration="1" Instrument="blank"
				Note Time="12" Value="A#3" Duration="2" Instrument="blank" Volume="3"
				Note Time="13" Volume="4"
				Note Time="14" Value="D4" Duration="1" Instrument="blank"
				Note Time="16" Value="C4" Duration="4" Instrument="blank" Volume="3"
				Note Time="17" Volume="4"
				Note Time="20" Value="A#3" Duration="4" Instrument="blank" Volume="3"
				Note Time="21" Volume="4"
				Note Time="24" Value="C4" Duration="2" Instrument="blank" Volume="3"
				Note Time="25" Volume="4"
				Note Time="26" Value="A#3" Duration="1" Instrument="blank"
				Note Time="27" Value="G3" Duration="1" Instrument="blank" Arpeggio="Arp 38" Volume="2"
				Note Time="28" Value="C4" Duration="2" Instrument="blank" Volume="3"
				Note Time="29" Volume="4"
				Note Time="30" Value="F4" Duration="1" Instrument="blank"
				Note Time="31" Value="G3" Duration="1" Instrument="blank" Arpeggio="Arp 38" Volume="2"
				Note Time="32" Value="D4" Duration="4" Instrument="blank" Volume="3"
				Note Time="33" Volume="4"
				Note Time="36" Value="A#3" Duration="4" Instrument="blank" Volume="3"
				Note Time="37" Volume="4"
				Note Time="40" Value="C4" Duration="2" Instrument="blank" Volume="3"
				Note Time="41" Volume="4"
				Note Time="42" Value="A#3" Duration="1" Instrument="blank"
				Note Time="43" Value="F3" Duration="1" Instrument="blank" Arpeggio="Arp 47" Volume="2"
				Note Time="44" Value="D4" Duration="2" Instrument="blank" Volume="3"
				Note Time="45" Volume="4"
				Note Time="46" Value="F4" Duration="1" Instrument="blank"
				Note Time="47" Value="F3" Duration="1" Instrument="blank" Arpeggio="Arp 47" Volume="2"
				Note Time="48" Value="C4" Duration="4" Instrument="blank" Volume="3"
				Note Time="49" Volume="4"
				Note Time="52" Value="A#3" Duration="2" Instrument="blank" Volume="3"
				Note Time="53" Volume="4"
				Note Time="54" Value="D4" Duration="2" Instrument="blank"
				Note Time="56" Value="F4" Duration="1" Instrument="blank" Volume="3" CutDelay="5"
				Note Time="57" Value="F4" Duration="1" Instrument="blank" Volume="4" CutDelay="5"
				Note Time="58" Value="F4" Duration="1" Instrument="blank" CutDelay="5"
				Note Time="59" Value="F4" Duration="1" Instrument="blank" CutDelay="5"
				Note Time="60" Value="D#4" Duration="2" Instrument="blank" Volume="3"
				Note Time="61" Volume="4"
				Note Time="62" Value="D4" Duration="1" Instrument="blank"
				Note Time="63" Value="F3" Duration="1" Instrument="blank" Arpeggio="Arp 59" Volume="2"
			Pattern Name="05" Color="6ab96e"
				Note Time="0" Value="D4" Duration="4" Instrument="blank" Volume="3"
				Note Time="1" Volume="4"
				Note Time="4" Value="A#3" Duration="4" Instrument="blank" Volume="3"
				Note Time="5" Volume="4"
				Note Time="8" Value="C4" Duration="2" Instrument="blank" Volume="3"
				Note Time="9" Volume="4"
				Note Time="10" Value="D4" Duration="1" Instrument="blank"
				Note Time="11" Value="G3" Duration="1" Instrument="blank" Arpeggio="Arp 37" Volume="2"
				Note Time="12" Value="A#3" Duration="2" Instrument="blank" Volume="3"
				Note Time="13" Volume="4"
				Note Time="14" Value="D4" Duration="1" Instrument="blank"
				Note Time="15" Value="G3" Duration="1" Instrument="blank" Arpeggio="Arp 37" Volume="2"
				Note Time="16" Value="C4" Duration="4" Instrument="blank" Volume="3"
				Note Time="17" Volume="4"
				Note Time="20" Value="A#3" Duration="4" Instrument="blank" Volume="3"
				Note Time="21" Volume="4"
				Note Time="24" Value="C4" Duration="2" Instrument="blank" Volume="3"
				Note Time="25" Volume="4"
				Note Time="26" Value="A#3" Duration="1" Instrument="blank"
				Note Time="27" Value="G3" Duration="1" Instrument="blank" Arpeggio="Arp 38" Volume="2"
				Note Time="28" Value="C4" Duration="2" Instrument="blank" Volume="3"
				Note Time="29" Volume="4"
				Note Time="30" Value="F4" Duration="1" Instrument="blank"
				Note Time="31" Value="G3" Duration="1" Instrument="blank" Arpeggio="Arp 38" Volume="2"
				Note Time="32" Value="D4" Duration="4" Instrument="blank" Volume="3"
				Note Time="33" Volume="4"
				Note Time="36" Value="A#3" Duration="4" Instrument="blank" Volume="3"
				Note Time="37" Volume="4"
				Note Time="40" Value="C4" Duration="2" Instrument="blank" Volume="3"
				Note Time="41" Volume="4"
				Note Time="42" Value="A#3" Duration="1" Instrument="blank"
				Note Time="43" Value="F3" Duration="1" Instrument="blank" Arpeggio="Arp 47" Volume="2"
				Note Time="44" Value="D4" Duration="2" Instrument="blank" Volume="3"
				Note Time="45" Volume="4"
				Note Time="46" Value="F4" Duration="1" Instrument="blank"
				Note Time="47" Value="F3" Duration="1" Instrument="blank" Arpeggio="Arp 47" Volume="2"
				Note Time="48" Value="C4" Duration="4" Instrument="blank" Volume="3"
				Note Time="49" Volume="4"
				Note Time="52" Value="A#3" Duration="2" Instrument="blank" Volume="3"
				Note Time="53" Volume="4"
				Note Time="54" Value="D4" Duration="2" Instrument="blank"
				Note Time="56" Value="F4" Duration="1" Instrument="blank" Volume="3" CutDelay="5"
				Note Time="57" Value="F4" Duration="1" Instrument="blank" Volume="4" CutDelay="5"
				Note Time="58" Value="F4" Duration="1" Instrument="blank" CutDelay="5"
				Note Time="59" Value="F4" Duration="1" Instrument="blank" CutDelay="5"
				Note Time="60" Value="D#4" Duration="2" Instrument="blank" Volume="3"
				Note Time="61" Volume="4"
				Note Time="62" Value="D4" Duration="1" Instrument="blank"
				Note Time="63" Value="F3" Duration="1" Instrument="blank" Arpeggio="Arp 59" Volume="2"
			PatternInstance Time="0" Pattern="00"
			PatternInstance Time="1" Pattern="00"
			PatternInstance Time="2" Pattern="01"
			PatternInstance Time="3" Pattern="01"
			PatternInstance Time="4" Pattern="01"
			PatternInstance Time="5" Pattern="01"
			PatternInstance Time="6" Pattern="02"
			PatternInstance Time="7" Pattern="03"
			PatternInstance Time="8" Pattern="03"
			PatternInstance Time="9" Pattern="03"
			PatternInstance Time="10" Pattern="04"
			PatternInstance Time="11" Pattern="05"
		Channel Type="Triangle"
			Pattern Name="00" Color="ff7cb6"
				Note Time="0" Value="G4" Duration="4" Instrument="triangle drums"
			Pattern Name="02" Color="c7ff86"
				Note Time="0" Value="G4" Duration="1" Instrument="DMC: drums + bass" SlideTarget="D#2"
				Note Time="1" Value="G2" Duration="15" Instrument="DMC: drums + bass"
				Note Time="16" Value="D#2" Duration="16" Instrument="DMC: drums + bass"
				Note Time="32" Value="F2" Duration="16" Instrument="DMC: drums + bass"
				Note Time="48" Value="A#2" Duration="16" Instrument="DMC: drums + bass"
			Pattern Name="03" Color="3fd7ff"
				Note Time="0" Value="G2" Duration="16" Instrument="DMC: drums + bass"
				Note Time="16" Value="D#2" Duration="16" Instrument="DMC: drums + bass"
				Note Time="32" Value="F2" Duration="16" Instrument="DMC: drums + bass"
				Note Time="48" Value="A#2" Duration="16" Instrument="DMC: drums + bass"
			Pattern Name="04" Color="b75bde"
				Note Time="0" Value="G3" Duration="1" Instrument="triangle drums"
				Note Time="1" Value="G2" Duration="3" Instrument="DMC: drums + bass"
				Note Time="4" Value="G3" Duration="1" Instrument="triangle drums"
				Note Time="5" Value="G2" Duration="3" Instrument="DMC: drums + bass"
				Note Time="8" Value="G3" Duration="1" Instrument="triangle drums"
				Note Time="9" Value="G2" Duration="3" Instrument="DMC: drums + bass"
				Note Time="12" Value="G3" Duration="1" Instrument="triangle drums"
				Note Time="13" Value="G2" Duration="3" Instrument="DMC: drums + bass"
				Note Time="16" Value="G3" Duration="1" Instrument="triangle drums"
				Note Time="17" Value="D#2" Duration="3" Instrument="DMC: drums + bass"
				Note Time="20" Value="G3" Duration="1" Instrument="triangle drums"
				Note Time="21" Value="D#2" Duration="3" Instrument="DMC: drums + bass"
				Note Time="24" Value="G3" Duration="1" Instrument="triangle drums"
				Note Time="25" Value="D#2" Duration="3" Instrument="DMC: drums + bass"
				Note Time="28" Value="G3" Duration="1" Instrument="triangle drums"
				Note Time="29" Value="D#2" Duration="3" Instrument="DMC: drums + bass"
				Note Time="32" Value="G3" Duration="1" Instrument="triangle drums"
				Note Time="33" Value="F2" Duration="3" Instrument="DMC: drums + bass"
				Note Time="36" Value="G3" Duration="1" Instrument="triangle drums"
				Note Time="37" Value="F2" Duration="3" Instrument="DMC: drums + bass"
				Note Time="40" Value="G3" Duration="1" Instrument="triangle drums"
				Note Time="41" Value="F2" Duration="3" Instrument="DMC: drums + bass"
				Note Time="44" Value="G3" Duration="1" Instrument="triangle drums"
				Note Time="45" Value="F2" Duration="3" Instrument="DMC: drums + bass"
				Note Time="48" Value="G3" Duration="1" Instrument="triangle drums"
				Note Time="49" Value="A#2" Duration="3" Instrument="DMC: drums + bass"
				Note Time="52" Value="G3" Duration="1" Instrument="triangle drums"
				Note Time="53" Value="A#2" Duration="3" Instrument="DMC: drums + bass"
				Note Time="56" Value="A#2" Duration="4" Instrument="DMC: drums + bass"
				Note Time="60" Value="A#2" Duration="4" Instrument="DMC: drums + bass"
			Pattern Name="05" Color="ff8655"
				Note Time="0" Value="G3" Duration="1" Instrument="triangle drums"
				Note Time="1" Value="G2" Duration="3" Instrument="DMC: drums + bass"
				Note Time="4" Value="G3" Duration="1" Instrument="triangle drums"
				Note Time="5" Value="G2" Duration="3" Instrument="DMC: drums + bass"
				Note Time="8" Value="G3" Duration="1" Instrument="triangle drums"
				Note Time="9" Value="G2" Duration="3" Instrument="DMC: drums + bass"
				Note Time="12" Value="G3" Duration="1" Instrument="triangle drums"
				Note Time="13" Value="G2" Duration="3" Instrument="DMC: drums + bass"
				Note Time="16" Value="G3" Duration="1" Instrument="triangle drums"
				Note Time="17" Value="D#2" Duration="3" Instrument="DMC: drums + bass"
				Note Time="20" Value="G3" Duration="1" Instrument="triangle drums"
				Note Time="21" Value="D#2" Duration="3" Instrument="DMC: drums + bass"
				Note Time="24" Value="G3" Duration="1" Instrument="triangle drums"
				Note Time="25" Value="D#2" Duration="3" Instrument="DMC: drums + bass"
				Note Time="28" Value="G3" Duration="1" Instrument="triangle drums"
				Note Time="29" Value="D#2" Duration="3" Instrument="DMC: drums + bass"
				Note Time="32" Value="G3" Duration="1" Instrument="triangle drums"
				Note Time="33" Value="F2" Duration="3" Instrument="DMC: drums + bass"
				Note Time="36" Value="G3" Duration="1" Instrument="triangle drums"
				Note Time="37" Value="F2" Duration="3" Instrument="DMC: drums + bass"
				Note Time="40" Value="G3" Duration="1" Instrument="triangle drums"
				Note Time="41" Value="F2" Duration="3" Instrument="DMC: drums + bass"
				Note Time="44" Value="G3" Duration="1" Instrument="triangle drums"
				Note Time="45" Value="F2" Duration="3" Instrument="DMC: drums + bass"
				Note Time="48" Value="G3" Duration="1" Instrument="triangle drums"
				Note Time="49" Value="A#2" Duration="1" Instrument="DMC: drums + bass"
				Note Time="50" Value="G3" Duration="1" Instrument="triangle drums"
				Note Time="51" Value="A#2" Duration="1" Instrument="DMC: drums + bass"
				Note Time="52" Value="G3" Duration="1" Instrument="triangle drums"
				Note Time="53" Value="A#2" Duration="1" Instrument="DMC: drums + bass"
				Note Time="54" Value="G3" Duration="1" Instrument="triangle drums"
				Note Time="55" Value="A#2" Duration="1" Instrument="DMC: drums + bass"
				Note Time="56" Value="G3" Duration="1" Instrument="triangle drums"
				Note Time="57" Value="A#2" Duration="1" Instrument="DMC: drums + bass"
				Note Time="58" Value="G3" Duration="1" Instrument="triangle drums"
				Note Time="59" Value="A#2" Duration="1" Instrument="DMC: drums + bass"
				Note Time="60" Value="G3" Duration="1" Instrument="triangle drums"
				Note Time="61" Value="G3" Duration="1" Instrument="triangle drums"
				Note Time="62" Value="G3" Duration="1" Instrument="triangle drums"
				Note Time="63" Value="G3" Duration="1" Instrument="triangle drums"
			Pattern Name="06" Color="dad960"
				Note Time="0" Value="D3" Duration="1" Instrument="triangle drums"
				Note Time="4" Value="D3" Duration="1" Instrument="triangle drums"
				Note Time="8" Value="D3" Duration="1" Instrument="triangle drums"
				Note Time="10" Value="D3" Duration="1" Instrument="triangle drums"
				Note Time="11" Value="D3" Duration="1" Instrument="triangle drums"
				Note Time="12" Value="D3" Duration="1" Instrument="triangle drums"
				Note Time="14" Value="D3" Duration="1" Instrument="triangle drums"
				Note Time="15" Value="D3" Duration="1" Instrument="triangle drums"
				Note Time="16" Value="G3" Duration="1" Instrument="triangle drums"
				Note Time="17" Value="D#2" Duration="3" Instrument="DMC: drums + bass"
				Note Time="20" Value="G3" Duration="1" Instrument="triangle drums"
				Note Time="21" Value="D#2" Duration="3" Instrument="DMC: drums + bass"
				Note Time="24" Value="G3" Duration="1" Instrument="triangle drums"
				Note Time="25" Value="D#2" Duration="3" Instrument="DMC: drums + bass"
				Note Time="28" Value="G3" Duration="1" Instrument="triangle drums"
				Note Time="29" Value="D#2" Duration="3" Instrument="DMC: drums + bass"
				Note Time="32" Value="G3" Duration="1" Instrument="triangle drums"
				Note Time="33" Value="F2" Duration="3" Instrument="DMC: drums + bass"
				Note Time="36" Value="G3" Duration="1" Instrument="triangle drums"
				Note Time="37" Value="F2" Duration="3" Instrument="DMC: drums + bass"
				Note Time="40" Value="G3" Duration="1" Instrument="triangle drums"
				Note Time="41" Value="F2" Duration="3" Instrument="DMC: drums + bass"
				Note Time="44" Value="G3" Duration="1" Instrument="triangle drums"
				Note Time="45" Value="F2" Duration="3" Instrument="DMC: drums + bass"
				Note Time="48" Value="G3" Duration="1" Instrument="triangle drums"
				Note Time="49" Value="A#2" Duration="3" Instrument="DMC: drums + bass"
				Note Time="52" Value="G3" Duration="1" Instrument="triangle drums"
				Note Time="53" Value="A#2" Duration="3" Instrument="DMC: drums + bass"
				Note Time="56" Value="G3" Duration="1" Instrument="triangle drums"
				Note Time="57" Value="A#2" Duration="3" Instrument="DMC: drums + bass"
				Note Time="60" Value="G3" Duration="1" Instrument="triangle drums"
				Note Time="61" Value="A#2" Duration="3" Instrument="DMC: drums + bass"
			Pattern Name="07" Color="89ffff"
				Note Time="0" Value="G3" Duration="1" Instrument="triangle drums"
				Note Time="1" Value="G2" Duration="3" Instrument="DMC: drums + bass"
				Note Time="4" Value="G3" Duration="1" Instrument="triangle drums"
				Note Time="5" Value="G2" Duration="3" Instrument="DMC: drums + bass"
				Note Time="8" Value="G3" Duration="1" Instrument="triangle drums"
				Note Time="9" Value="G2" Duration="3" Instrument="DMC: drums + bass"
				Note Time="12" Value="G3" Duration="1" Instrument="triangle drums"
				Note Time="13" Value="G2" Duration="3" Instrument="DMC: drums + bass"
				Note Time="16" Value="G3" Duration="1" Instrument="triangle drums"
				Note Time="17" Value="D#2" Duration="3" Instrument="DMC: drums + bass"
				Note Time="20" Value="G3" Duration="1" Instrument="triangle drums"
				Note Time="21" Value="D#2" Duration="3" Instrument="DMC: drums + bass"
				Note Time="24" Value="G3" Duration="1" Instrument="triangle drums"
				Note Time="25" Value="D#2" Duration="3" Instrument="DMC: drums + bass"
				Note Time="28" Value="G3" Duration="1" Instrument="triangle drums"
				Note Time="29" Value="D#2" Duration="3" Instrument="DMC: drums + bass"
				Note Time="32" Value="G3" Duration="1" Instrument="triangle drums"
				Note Time="33" Value="F2" Duration="3" Instrument="DMC: drums + bass"
				Note Time="36" Value="G3" Duration="1" Instrument="triangle drums"
				Note Time="37" Value="F2" Duration="3" Instrument="DMC: drums + bass"
				Note Time="40" Value="G3" Duration="1" Instrument="triangle drums"
				Note Time="41" Value="F2" Duration="3" Instrument="DMC: drums + bass"
				Note Time="44" Value="G3" Duration="1" Instrument="triangle drums"
				Note Time="45" Value="F2" Duration="3" Instrument="DMC: drums + bass"
				Note Time="48" Value="G3" Duration="1" Instrument="triangle drums"
				Note Time="49" Value="A#2" Duration="3" Instrument="DMC: drums + bass"
				Note Time="52" Value="G3" Duration="1" Instrument="triangle drums"
				Note Time="53" Value="A#2" Duration="3" Instrument="DMC: drums + bass"
				Note Time="58" Value="A#2" Duration="2" Instrument="DMC: drums + bass"
				Note Time="62" Value="A#2" Duration="2" Instrument="DMC: drums + bass"
			Pattern Name="08" Color="ba93fe"
				Note Time="0" Value="D3" Duration="1" Instrument="triangle drums"
				Note Time="16" Value="G3" Duration="1" Instrument="triangle drums"
				Note Time="17" Value="D#2" Duration="3" Instrument="DMC: drums + bass"
				Note Time="20" Value="G3" Duration="1" Instrument="triangle drums"
				Note Time="21" Value="D#2" Duration="3" Instrument="DMC: drums + bass"
				Note Time="24" Value="G3" Duration="1" Instrument="triangle drums"
				Note Time="25" Value="D#2" Duration="3" Instrument="DMC: drums + bass"
				Note Time="28" Value="G3" Duration="1" Instrument="triangle drums"
				Note Time="29" Value="D#2" Duration="3" Instrument="DMC: drums + bass"
				Note Time="32" Value="G3" Duration="1" Instrument="triangle drums"
				Note Time="33" Value="F2" Duration="3" Instrument="DMC: drums + bass"
				Note Time="36" Value="G3" Duration="1" Instrument="triangle drums"
				Note Time="37" Value="F2" Duration="3" Instrument="DMC: drums + bass"
				Note Time="40" Value="G3" Duration="1" Instrument="triangle drums"
				Note Time="41" Value="F2" Duration="3" Instrument="DMC: drums + bass"
				Note Time="44" Value="G3" Duration="1" Instrument="triangle drums"
				Note Time="45" Value="F2" Duration="3" Instrument="DMC: drums + bass"
				Note Time="48" Value="G3" Duration="1" Instrument="triangle drums"
				Note Time="49" Value="A#2" Duration="3" Instrument="DMC: drums + bass"
				Note Time="52" Value="G3" Duration="1" Instrument="triangle drums"
				Note Time="53" Value="A#2" Duration="3" Instrument="DMC: drums + bass"
				Note Time="56" Value="G3" Duration="1" Instrument="triangle drums"
				Note Time="57" Value="A#2" Duration="3" Instrument="DMC: drums + bass"
				Note Time="60" Value="G3" Duration="1" Instrument="triangle drums"
				Note Time="61" Value="A#2" Duration="3" Instrument="DMC: drums + bass"
			Pattern Name="09" Color="c9aa9f"
				Note Time="0" Value="D3" Duration="1" Instrument="triangle drums"
			PatternInstance Time="0" Pattern="00"
			PatternInstance Time="2" Pattern="02"
			PatternInstance Time="3" Pattern="03"
			PatternInstance Time="4" Pattern="04"
			PatternInstance Time="5" Pattern="05"
			PatternInstance Time="6" Pattern="06"
			PatternInstance Time="7" Pattern="07"
			PatternInstance Time="8" Pattern="04"
			PatternInstance Time="9" Pattern="04"
			PatternInstance Time="10" Pattern="08"
			PatternInstance Time="11" Pattern="07"
			PatternInstance Time="12" Pattern="09"
		Channel Type="Noise"
			Pattern Name="00" Color="ffff77"
				Note Time="0" Value="F#3" Duration="4" Instrument="DMC: drums + bass" Volume="10"
				Note Time="1" Volume="9"
				Note Time="2" Volume="8"
				Note Time="3" Volume="7"
				Note Time="4" Value="F3" Duration="4" Instrument="DMC: drums + bass" Volume="6"
				Note Time="6" Volume="5"
				Note Time="8" Value="E3" Duration="4" Instrument="DMC: drums + bass" Volume="4"
				Note Time="12" Value="D#3" Duration="4" Instrument="DMC: drums + bass" Volume="3"
				Note Time="16" Value="D3" Duration="4" Instrument="DMC: drums + bass" Volume="2"
				Note Time="20" Value="C#3" Duration="4" Instrument="DMC: drums + bass"
				Note Time="24" Value="C3" Duration="4" Instrument="DMC: drums + bass" Volume="1"
				Note Time="28" Value="B2" Duration="4" Instrument="DMC: drums + bass"
				Note Time="32" Value="A#2" Duration="64" Instrument="DMC: drums + bass" Volume="0"
			Pattern Name="01" Color="3cc5b7"
				Note Time="32" Value="A#3" Duration="8" Instrument="DMC: drums + bass" Volume="1"
				Note Time="40" Value="A3" Duration="8" Instrument="DMC: drums + bass" Volume="2"
				Note Time="48" Value="G#3" Duration="8" Instrument="DMC: drums + bass" Volume="2"
				Note Time="52" Volume="3"
				Note Time="56" Value="G3" Duration="8" Instrument="DMC: drums + bass" Volume="4"
				Note Time="58" Volume="5"
				Note Time="60" Volume="6"
				Note Time="61" Volume="7"
				Note Time="62" Volume="8"
				Note Time="63" Volume="9"
			Pattern Name="02" Color="6c7bdb"
				Note Time="0" Value="G3" Duration="4" Instrument="DMC: drums + bass" Volume="10"
				Note Time="1" Volume="9"
				Note Time="2" Volume="8"
				Note Time="3" Volume="7"
				Note Time="4" Value="G2" Duration="1" Instrument="snare" Volume="15"
				Note Time="5" Value="F3" Duration="1" Instrument="DMC: drums + bass" Volume="3"
				Note Time="6" Value="G#3" Duration="1" Instrument="rel hats" Volume="15"
				Note Time="7" Value="F3" Duration="1" Instrument="DMC: drums + bass" Volume="2"
				Note Time="8" Value="G#3" Duration="1" Instrument="rel hats" Volume="15"
				Note Time="9" Value="E3" Duration="1" Instrument="DMC: drums + bass" Volume="1"
				Note Time="10" Value="G#3" Duration="2" Instrument="rel hats" Volume="15"
				Note Time="12" Value="G2" Duration="2" Instrument="snare"
				Note Time="14" Value="G#3" Duration="2" Instrument="rel hats"
				Note Time="16" Value="G#3" Duration="2" Instrument="rel hats"
				Note Time="18" Value="G#3" Duration="2" Instrument="rel hats"
				Note Time="20" Value="G2" Duration="2" Instrument="snare"
				Note Time="22" Value="G#3" Duration="2" Instrument="rel hats"
				Note Time="24" Value="G#3" Duration="2" Instrument="rel hats"
				Note Time="26" Value="G#3" Duration="2" Instrument="rel hats"
				Note Time="28" Value="G2" Duration="2" Instrument="snare"
				Note Time="30" Value="G#3" Duration="2" Instrument="rel hats"
				Note Time="32" Value="G#3" Duration="2" Instrument="rel hats"
				Note Time="34" Value="G#3" Duration="2" Instrument="rel hats"
				Note Time="36" Value="G2" Duration="2" Instrument="snare"
				Note Time="38" Value="G#3" Duration="2" Instrument="rel hats"
				Note Time="40" Value="G#3" Duration="2" Instrument="rel hats"
				Note Time="42" Value="G#3" Duration="2" Instrument="rel hats"
				Note Time="44" Value="G2" Duration="2" Instrument="snare"
				Note Time="46" Value="G#3" Duration="2" Instrument="rel hats"
				Note Time="48" Value="G#3" Duration="2" Instrument="rel hats"
				Note Time="50" Value="G#3" Duration="2" Instrument="rel hats"
				Note Time="52" Value="G2" Duration="2" Instrument="snare"
				Note Time="54" Value="G#3" Duration="2" Instrument="rel hats"
				Note Time="56" Value="G#3" Duration="2" Instrument="rel hats"
				Note Time="58" Value="G#3" Duration="2" Instrument="rel hats"
				Note Time="60" Value="G2" Duration="2" Instrument="snare"
				Note Time="62" Value="G#3" Duration="2" Instrument="rel hats"
			Pattern Name="03" Color="ff6464"
				Note Time="0" Value="G#3" Duration="2" Instrument="rel hats"
				Note Time="2" Value="G#3" Duration="2" Instrument="rel hats"
				Note Time="4" Value="G2" Duration="2" Instrument="snare"
				Note Time="6" Value="G#3" Duration="2" Instrument="rel hats"
				Note Time="8" Value="G#3" Duration="2" Instrument="rel hats"
				Note Time="10" Value="G#3" Duration="2" Instrument="rel hats"
				Note Time="12" Value="G2" Duration="2" Instrument="snare"
				Note Time="14" Value="G#3" Duration="2" Instrument="rel hats"
				Note Time="16" Value="G#3" Duration="2" Instrument="rel hats"
				Note Time="18" Value="G#3" Duration="2" Instrument="rel hats"
				Note Time="20" Value="G2" Duration="2" Instrument="snare"
				Note Time="22" Value="G#3" Duration="2" Instrument="rel hats"
				Note Time="24" Value="G#3" Duration="2" Instrument="rel hats"
				Note Time="26" Value="G#3" Duration="2" Instrument="rel hats"
				Note Time="28" Value="G2" Duration="2" Instrument="snare"
				Note Time="30" Value="G#3" Duration="2" Instrument="rel hats"
				Note Time="32" Value="G#3" Duration="2" Instrument="rel hats"
				Note Time="34" Value="G#3" Duration="2" Instrument="rel hats"
				Note Time="36" Value="G2" Duration="2" Instrument="snare"
				Note Time="38" Value="G#3" Duration="2" Instrument="rel hats"
				Note Time="40" Value="G#3" Duration="2" Instrument="rel hats"
				Note Time="42" Value="G#3" Duration="2" Instrument="rel hats"
				Note Time="44" Value="G2" Duration="2" Instrument="snare"
				Note Time="46" Value="G#3" Duration="2" Instrument="rel hats"
				Note Time="48" Value="G#3" Duration="2" Instrument="rel hats"
				Note Time="50" Value="G#3" Duration="2" Instrument="rel hats"
				Note Time="52" Value="G2" Duration="2" Instrument="snare"
				Note Time="54" Value="G#3" Duration="2" Instrument="rel hats"
				Note Time="56" Value="G3" Duration="1" Instrument="rel hats"
				Note Time="57" Value="G3" Duration="7" Instrument="DMC: drums + bass" Volume="4"
				Note Time="58" Volume="5"
				Note Time="60" Volume="6"
				Note Time="61" Volume="7"
				Note Time="62" Volume="8"
				Note Time="63" Volume="9"
			Pattern Name="04" Color="ffcb3c"
				Note Time="0" Value="F#3" Duration="4" Instrument="DMC: drums + bass" Volume="10"
				Note Time="1" Volume="9"
				Note Time="2" Volume="8"
				Note Time="3" Volume="7"
				Note Time="4" Value="G2" Duration="1" Instrument="snare" Volume="15"
				Note Time="5" Value="F3" Duration="1" Instrument="DMC: drums + bass" Volume="3"
				Note Time="6" Value="G#3" Duration="1" Instrument="rel hats" Volume="15"
				Note Time="7" Value="F3" Duration="1" Instrument="DMC: drums + bass" Volume="2"
				Note Time="8" Value="G#3" Duration="1" Instrument="rel hats" Volume="15"
				Note Time="9" Value="E3" Duration="1" Instrument="DMC: drums + bass" Volume="1"
				Note Time="10" Value="G#3" Duration="2" Instrument="rel hats" Volume="15"
				Note Time="12" Value="G2" Duration="2" Instrument="snare"
				Note Time="14" Value="G#3" Duration="2" Instrument="rel hats"
				Note Time="16" Value="G#3" Duration="2" Instrument="rel hats"
				Note Time="18" Value="G#3" Duration="2" Instrument="rel hats"
				Note Time="20" Value="G2" Duration="2" Instrument="snare"
				Note Time="22" Value="G#3" Duration="2" Instrument="rel hats"
				Note Time="24" Value="G#3" Duration="2" Instrument="rel hats"
				Note Time="26" Value="G#3" Duration="2" Instrument="rel hats"
				Note Time="28" Value="G2" Duration="2" Instrument="snare"
				Note Time="30" Value="G#3" Duration="2" Instrument="rel hats"
				Note Time="32" Value="G#3" Duration="2" Instrument="rel hats"
				Note Time="34" Value="G#3" Duration="2" Instrument="rel hats"
				Note Time="36" Value="G2" Duration="2" Instrument="snare"
				Note Time="38" Value="G#3" Duration="2" Instrument="rel hats"
				Note Time="40" Value="G#3" Duration="2" Instrument="rel hats"
				Note Time="42" Value="G#3" Duration="2" Instrument="rel hats"
				Note Time="44" Value="G2" Duration="2" Instrument="snare"
				Note Time="46" Value="G#3" Duration="2" Instrument="rel hats"
				Note Time="48" Value="G#3" Duration="2" Instrument="rel hats"
				Note Time="50" Value="G#3" Duration="2" Instrument="rel hats"
				Note Time="52" Value="G2" Duration="2" Instrument="snare"
				Note Time="54" Value="G#3" Duration="2" Instrument="rel hats"
				Note Time="56" Value="G3" Duration="1" Instrument="rel hats"
				Note Time="57" Value="G3" Duration="3" Instrument="DMC: drums + bass" Volume="4"
				Note Time="58" Volume="5"
				Note Time="60" Value="G#2" Duration="1" Instrument="snare" Volume="15"
				Note Time="61" Value="G3" Duration="3" Instrument="DMC: drums + bass" Volume="7"
				Note Time="62" Volume="8"
				Note Time="63" Volume="9"
			Pattern Name="05" Color="bdffc0"
				Note Time="0" Value="F#3" Duration="4" Instrument="DMC: drums + bass" Volume="8"
				Note Time="1" Volume="7"
				Note Time="2" Volume="6"
				Note Time="3" Volume="5"
				Note Time="4" Value="G2" Duration="1" Instrument="snare" Volume="15"
				Note Time="5" Value="F3" Duration="3" Instrument="DMC: drums + bass" Volume="4"
				Note Time="6" Volume="3"
				Note Time="8" Value="G2" Duration="2" Instrument="snare" Volume="15"
				Note Time="10" Value="G2" Duration="1" Instrument="snare"
				Note Time="11" Value="G2" Duration="1" Instrument="snare"
				Note Time="12" Value="G2" Duration="2" Instrument="snare"
				Note Time="14" Value="G2" Duration="1" Instrument="snare"
				Note Time="15" Value="G2" Duration="1" Instrument="snare"
				Note Time="16" Value="F#3" Duration="4" Instrument="DMC: drums + bass" Volume="10"
				Note Time="17" Volume="9"
				Note Time="18" Volume="8"
				Note Time="19" Volume="7"
				Note Time="20" Value="G2" Duration="1" Instrument="kick" Volume="15"
				Note Time="21" Value="F3" Duration="1" Instrument="DMC: drums + bass" Volume="3"
				Note Time="22" Value="G#3" Duration="1" Instrument="rel hats" Volume="15"
				Note Time="23" Value="F3" Duration="1" Instrument="DMC: drums + bass" Volume="2"
				Note Time="24" Value="G2" Duration="1" Instrument="kick" Volume="15"
				Note Time="25" Value="E3" Duration="1" Instrument="DMC: drums + bass" Volume="1"
				Note Time="26" Value="G#3" Duration="2" Instrument="rel hats" Volume="15"
				Note Time="28" Value="G2" Duration="2" Instrument="kick"
				Note Time="30" Value="G#3" Duration="2" Instrument="rel hats"
				Note Time="32" Value="G2" Duration="2" Instrument="kick"
				Note Time="34" Value="G#3" Duration="2" Instrument="rel hats"
				Note Time="36" Value="G2" Duration="2" Instrument="kick"
				Note Time="38" Value="G#3" Duration="2" Instrument="rel hats"
				Note Time="40" Value="G2" Duration="2" Instrument="kick"
				Note Time="42" Value="G#3" Duration="2" Instrument="rel hats"
				Note Time="44" Value="G2" Duration="2" Instrument="kick"
				Note Time="46" Value="G#3" Duration="2" Instrument="rel hats"
				Note Time="48" Value="G2" Duration="2" Instrument="kick"
				Note Time="50" Value="G#3" Duration="2" Instrument="rel hats"
				Note Time="52" Value="G2" Duration="2" Instrument="kick"
				Note Time="54" Value="G#3" Duration="2" Instrument="rel hats"
				Note Time="56" Value="G2" Duration="2" Instrument="kick"
				Note Time="58" Value="G#3" Duration="2" Instrument="rel hats"
				Note Time="60" Value="G2" Duration="2" Instrument="kick"
				Note Time="62" Value="G#3" Duration="2" Instrument="rel hats"
			Pattern Name="06" Color="7ee1ff"
				Note Time="0" Value="G2" Duration="2" Instrument="kick" Volume="15"
				Note Time="2" Value="G#3" Duration="2" Instrument="rel hats"
				Note Time="4" Value="G2" Duration="2" Instrument="kick"
				Note Time="6" Value="G#3" Duration="2" Instrument="rel hats"
				Note Time="8" Value="G2" Duration="2" Instrument="kick"
				Note Time="10" Value="G#3" Duration="2" Instrument="rel hats"
				Note Time="12" Value="G2" Duration="2" Instrument="kick"
				Note Time="14" Value="G#3" Duration="2" Instrument="rel hats"
				Note Time="16" Value="G2" Duration="2" Instrument="kick"
				Note Time="18" Value="G#3" Duration="2" Instrument="rel hats"
				Note Time="20" Value="G2" Duration="2" Instrument="kick"
				Note Time="22" Value="G#3" Duration="2" Instrument="rel hats"
				Note Time="24" Value="G2" Duration="2" Instrument="kick"
				Note Time="26" Value="G#3" Duration="2" Instrument="rel hats"
				Note Time="28" Value="G2" Duration="2" Instrument="kick"
				Note Time="30" Value="G#3" Duration="2" Instrument="rel hats"
				Note Time="32" Value="G2" Duration="2" Instrument="kick"
				Note Time="34" Value="G#3" Duration="2" Instrument="rel hats"
				Note Time="36" Value="G2" Duration="2" Instrument="kick"
				Note Time="38" Value="G#3" Duration="2" Instrument="rel hats"
				Note Time="40" Value="G2" Duration="2" Instrument="kick"
				Note Time="42" Value="G#3" Duration="2" Instrument="rel hats"
				Note Time="44" Value="G2" Duration="2" Instrument="kick"
				Note Time="46" Value="G#3" Duration="2" Instrument="rel hats"
				Note Time="48" Value="G2" Duration="2" Instrument="kick"
				Note Time="50" Value="G#3" Duration="2" Instrument="rel hats"
				Note Time="52" Value="G2" Duration="2" Instrument="kick"
				Note Time="54" Value="G#3" Duration="4" Instrument="rel hats"
				Note Time="58" Value="G#3" Duration="4" Instrument="rel hats"
				Note Time="62" Value="G#3" Duration="2" Instrument="rel hats"
			Pattern Name="07" Color="ff5a9f"
				Note Time="0" Value="F#3" Duration="4" Instrument="DMC: drums + bass" Volume="8"
				Note Time="1" Volume="7"
				Note Time="2" Volume="6"
				Note Time="3" Volume="5"
				Note Time="4" Value="F3" Duration="4" Instrument="DMC: drums + bass" Volume="4"
				Note Time="6" Volume="3"
				Note Time="8" Value="E3" Duration="4" Instrument="DMC: drums + bass" Volume="2"
				Note Time="12" Value="D#3" Duration="4" Instrument="DMC: drums + bass" Volume="1"
				Note Time="16" Value="F#3" Duration="4" Instrument="DMC: drums + bass" Volume="10"
				Note Time="17" Volume="9"
				Note Time="18" Volume="8"
				Note Time="19" Volume="7"
				Note Time="20" Value="G2" Duration="1" Instrument="kick" Volume="15"
				Note Time="21" Value="F3" Duration="1" Instrument="DMC: drums + bass" Volume="3"
				Note Time="22" Value="G#3" Duration="1" Instrument="rel hats" Volume="15"
				Note Time="23" Value="F3" Duration="1" Instrument="DMC: drums + bass" Volume="2"
				Note Time="24" Value="G2" Duration="1" Instrument="kick" Volume="15"
				Note Time="25" Value="E3" Duration="1" Instrument="DMC: drums + bass" Volume="1"
				Note Time="26" Value="G#3" Duration="2" Instrument="rel hats" Volume="15"
				Note Time="28" Value="G2" Duration="2" Instrument="kick"
				Note Time="30" Value="G#3" Duration="2" Instrument="rel hats"
				Note Time="32" Value="G2" Duration="2" Instrument="kick"
				Note Time="34" Value="G#3" Duration="2" Instrument="rel hats"
				Note Time="36" Value="G2" Duration="2" Instrument="kick"
				Note Time="38" Value="G#3" Duration="2" Instrument="rel hats"
				Note Time="40" Value="G2" Duration="2" Instrument="kick"
				Note Time="42" Value="G#3" Duration="2" Instrument="rel hats"
				Note Time="44" Value="G2" Duration="2" Instrument="kick"
				Note Time="46" Value="G#3" Duration="2" Instrument="rel hats"
				Note Time="48" Value="G2" Duration="2" Instrument="kick"
				Note Time="50" Value="G#3" Duration="2" Instrument="rel hats"
				Note Time="52" Value="G2" Duration="2" Instrument="kick"
				Note Time="54" Value="G#3" Duration="2" Instrument="rel hats"
				Note Time="56" Value="G2" Duration="2" Instrument="kick"
				Note Time="58" Value="G#3" Duration="2" Instrument="rel hats"
				Note Time="60" Value="G2" Duration="2" Instrument="kick"
				Note Time="62" Value="G#3" Duration="2" Instrument="rel hats"
			Pattern Name="08" Color="ffd43c"
				Note Time="0" Value="F#3" Duration="4" Instrument="DMC: drums + bass" Volume="8"
				Note Time="1" Volume="7"
				Note Time="2" Volume="6"
				Note Time="3" Volume="5"
				Note Time="4" Value="F3" Duration="4" Instrument="DMC: drums + bass" Volume="4"
				Note Time="6" Volume="3"
				Note Time="8" Value="E3" Duration="4" Instrument="DMC: drums + bass" Volume="2"
				Note Time="12" Value="D#3" Duration="4" Instrument="DMC: drums + bass" Volume="1"
			PatternInstance Time="0" Pattern="00"
			PatternInstance Time="1" Pattern="01"
			PatternInstance Time="2" Pattern="02"
			PatternInstance Time="3" Pattern="03"
			PatternInstance Time="4" Pattern="02"
			PatternInstance Time="5" Pattern="04"
			PatternInstance Time="6" Pattern="05"
			PatternInstance Time="7" Pattern="06"
			PatternInstance Time="8" Pattern="02"
			PatternInstance Time="9" Pattern="03"
			PatternInstance Time="10" Pattern="07"
			PatternInstance Time="11" Pattern="03"
			PatternInstance Time="12" Pattern="08"
		Channel Type="DPCM"
			Pattern Name="00" Color="b8ef7e"
				Note Time="0" Value="G4" Duration="2" Instrument="DMC: drums + bass"
				Note Time="2" Value="G3" Duration="2" Instrument="DMC: drums + bass"
				Note Time="4" Value="G4" Duration="2" Instrument="DMC: drums + bass"
				Note Time="6" Value="G3" Duration="2" Instrument="DMC: drums + bass"
				Note Time="8" Value="G4" Duration="2" Instrument="DMC: drums + bass"
				Note Time="10" Value="G3" Duration="2" Instrument="DMC: drums + bass"
				Note Time="12" Value="G4" Duration="2" Instrument="DMC: drums + bass"
				Note Time="14" Value="G3" Duration="2" Instrument="DMC: drums + bass"
				Note Time="16" Value="D#4" Duration="2" Instrument="DMC: drums + bass"
				Note Time="18" Value="D#3" Duration="2" Instrument="DMC: drums + bass"
				Note Time="20" Value="D#4" Duration="2" Instrument="DMC: drums + bass"
				Note Time="22" Value="D#3" Duration="2" Instrument="DMC: drums + bass"
				Note Time="24" Value="D#4" Duration="2" Instrument="DMC: drums + bass"
				Note Time="26" Value="D#3" Duration="2" Instrument="DMC: drums + bass"
				Note Time="28" Value="D#4" Duration="2" Instrument="DMC: drums + bass"
				Note Time="30" Value="D#3" Duration="2" Instrument="DMC: drums + bass"
				Note Time="32" Value="F4" Duration="2" Instrument="DMC: drums + bass"
				Note Time="34" Value="F3" Duration="2" Instrument="DMC: drums + bass"
				Note Time="36" Value="F4" Duration="2" Instrument="DMC: drums + bass"
				Note Time="38" Value="F3" Duration="2" Instrument="DMC: drums + bass"
				Note Time="40" Value="F4" Duration="2" Instrument="DMC: drums + bass"
				Note Time="42" Value="F3" Duration="2" Instrument="DMC: drums + bass"
				Note Time="44" Value="F4" Duration="2" Instrument="DMC: drums + bass"
				Note Time="46" Value="F3" Duration="2" Instrument="DMC: drums + bass"
				Note Time="48" Value="A#4" Duration="2" Instrument="DMC: drums + bass"
				Note Time="50" Value="A#3" Duration="2" Instrument="DMC: drums + bass"
				Note Time="52" Value="A#4" Duration="2" Instrument="DMC: drums + bass"
				Note Time="54" Value="A#3" Duration="2" Instrument="DMC: drums + bass"
				Note Time="56" Value="A#4" Duration="2" Instrument="DMC: drums + bass"
				Note Time="58" Value="A#3" Duration="2" Instrument="DMC: drums + bass"
				Note Time="60" Value="A#4" Duration="2" Instrument="DMC: drums + bass"
				Note Time="62" Value="A#3" Duration="2" Instrument="DMC: drums + bass"
			Pattern Name="01" Color="3ec4ff"
				Note Time="0" Value="E5" Duration="2" Instrument="DMC: drums + bass"
				Note Time="2" Value="G4" Duration="2" Instrument="DMC: drums + bass"
				Note Time="4" Value="F5" Duration="2" Instrument="DMC: drums + bass"
				Note Time="6" Value="G4" Duration="2" Instrument="DMC: drums + bass"
				Note Time="8" Value="G4" Duration="2" Instrument="DMC: drums + bass"
				Note Time="10" Value="G4" Duration="2" Instrument="DMC: drums + bass"
				Note Time="12" Value="F5" Duration="2" Instrument="DMC: drums + bass"
				Note Time="14" Value="G4" Duration="2" Instrument="DMC: drums + bass"
				Note Time="16" Value="D#4" Duration="2" Instrument="DMC: drums + bass"
				Note Time="18" Value="D#4" Duration="2" Instrument="DMC: drums + bass"
				Note Time="20" Value="F5" Duration="2" Instrument="DMC: drums + bass"
				Note Time="22" Value="D#4" Duration="2" Instrument="DMC: drums + bass"
				Note Time="24" Value="D#4" Duration="2" Instrument="DMC: drums + bass"
				Note Time="26" Value="D#4" Duration="2" Instrument="DMC: drums + bass"
				Note Time="28" Value="F5" Duration="2" Instrument="DMC: drums + bass"
				Note Time="30" Value="D#4" Duration="2" Instrument="DMC: drums + bass"
				Note Time="32" Value="F4" Duration="2" Instrument="DMC: drums + bass"
				Note Time="34" Value="F4" Duration="2" Instrument="DMC: drums + bass"
				Note Time="36" Value="F5" Duration="2" Instrument="DMC: drums + bass"
				Note Time="38" Value="F4" Duration="2" Instrument="DMC: drums + bass"
				Note Time="40" Value="F4" Duration="2" Instrument="DMC: drums + bass"
				Note Time="42" Value="F4" Duration="2" Instrument="DMC: drums + bass"
				Note Time="44" Value="F5" Duration="2" Instrument="DMC: drums + bass"
				Note Time="46" Value="F4" Duration="2" Instrument="DMC: drums + bass"
				Note Time="48" Value="A#4" Duration="2" Instrument="DMC: drums + bass"
				Note Time="50" Value="A#4" Duration="2" Instrument="DMC: drums + bass"
				Note Time="52" Value="F5" Duration="2" Instrument="DMC: drums + bass"
				Note Time="54" Value="A#4" Duration="2" Instrument="DMC: drums + bass"
				Note Time="56" Value="A#4" Duration="2" Instrument="DMC: drums + bass"
				Note Time="58" Value="A#4" Duration="2" Instrument="DMC: drums + bass"
				Note Time="60" Value="F5" Duration="2" Instrument="DMC: drums + bass"
				Note Time="62" Value="A#4" Duration="2" Instrument="DMC: drums + bass"
			Pattern Name="02" Color="a657d6"
				Note Time="0" Value="G4" Duration="2" Instrument="DMC: drums + bass"
				Note Time="2" Value="G4" Duration="2" Instrument="DMC: drums + bass"
				Note Time="4" Value="F5" Duration="2" Instrument="DMC: drums + bass"
				Note Time="6" Value="G4" Duration="2" Instrument="DMC: drums + bass"
				Note Time="8" Value="G4" Duration="2" Instrument="DMC: drums + bass"
				Note Time="10" Value="G4" Duration="2" Instrument="DMC: drums + bass"
				Note Time="12" Value="F5" Duration="2" Instrument="DMC: drums + bass"
				Note Time="14" Value="G4" Duration="2" Instrument="DMC: drums + bass"
				Note Time="16" Value="D#4" Duration="2" Instrument="DMC: drums + bass"
				Note Time="18" Value="D#4" Duration="2" Instrument="DMC: drums + bass"
				Note Time="20" Value="F5" Duration="2" Instrument="DMC: drums + bass"
				Note Time="22" Value="D#4" Duration="2" Instrument="DMC: drums + bass"
				Note Time="24" Value="D#4" Duration="2" Instrument="DMC: drums + bass"
				Note Time="26" Value="D#4" Duration="2" Instrument="DMC: drums + bass"
				Note Time="28" Value="F5" Duration="2" Instrument="DMC: drums + bass"
				Note Time="30" Value="D#4" Duration="2" Instrument="DMC: drums + bass"
				Note Time="32" Value="F4" Duration="2" Instrument="DMC: drums + bass"
				Note Time="34" Value="F4" Duration="2" Instrument="DMC: drums + bass"
				Note Time="36" Value="F5" Duration="2" Instrument="DMC: drums + bass"
				Note Time="38" Value="F4" Duration="2" Instrument="DMC: drums + bass"
				Note Time="40" Value="F4" Duration="2" Instrument="DMC: drums + bass"
				Note Time="42" Value="F4" Duration="2" Instrument="DMC: drums + bass"
				Note Time="44" Value="F5" Duration="2" Instrument="DMC: drums + bass"
				Note Time="46" Value="F4" Duration="2" Instrument="DMC: drums + bass"
				Note Time="48" Value="A#4" Duration="2" Instrument="DMC: drums + bass"
				Note Time="50" Value="A#4" Duration="2" Instrument="DMC: drums + bass"
				Note Time="52" Value="F5" Duration="2" Instrument="DMC: drums + bass"
				Note Time="54" Value="A#4" Duration="2" Instrument="DMC: drums + bass"
				Note Time="56" Value="A#4" Duration="2" Instrument="DMC: drums + bass"
				Note Time="58" Value="A#4" Duration="2" Instrument="DMC: drums + bass"
				Note Time="60" Value="F5" Duration="2" Instrument="DMC: drums + bass"
				Note Time="62" Value="A#4" Duration="2" Instrument="DMC: drums + bass"
			Pattern Name="03" Color="ff7f51"
				Note Time="0" Value="E5" Duration="2" Instrument="DMC: drums + bass"
				Note Time="2" Value="G4" Duration="2" Instrument="DMC: drums + bass"
				Note Time="4" Value="F5" Duration="2" Instrument="DMC: drums + bass"
				Note Time="6" Value="G4" Duration="2" Instrument="DMC: drums + bass"
				Note Time="8" Value="E5" Duration="2" Instrument="DMC: drums + bass"
				Note Time="10" Value="G4" Duration="2" Instrument="DMC: drums + bass"
				Note Time="12" Value="F5" Duration="2" Instrument="DMC: drums + bass"
				Note Time="14" Value="G4" Duration="2" Instrument="DMC: drums + bass"
				Note Time="16" Value="E5" Duration="2" Instrument="DMC: drums + bass"
				Note Time="18" Value="D#4" Duration="2" Instrument="DMC: drums + bass"
				Note Time="20" Value="F5" Duration="2" Instrument="DMC: drums + bass"
				Note Time="22" Value="D#4" Duration="2" Instrument="DMC: drums + bass"
				Note Time="24" Value="E5" Duration="2" Instrument="DMC: drums + bass"
				Note Time="26" Value="D#4" Duration="2" Instrument="DMC: drums + bass"
				Note Time="28" Value="F5" Duration="2" Instrument="DMC: drums + bass"
				Note Time="30" Value="D#4" Duration="2" Instrument="DMC: drums + bass"
				Note Time="32" Value="E5" Duration="2" Instrument="DMC: drums + bass"
				Note Time="34" Value="F4" Duration="2" Instrument="DMC: drums + bass"
				Note Time="36" Value="F5" Duration="2" Instrument="DMC: drums + bass"
				Note Time="38" Value="F4" Duration="2" Instrument="DMC: drums + bass"
				Note Time="40" Value="E5" Duration="2" Instrument="DMC: drums + bass"
				Note Time="42" Value="F4" Duration="2" Instrument="DMC: drums + bass"
				Note Time="44" Value="F5" Duration="2" Instrument="DMC: drums + bass"
				Note Time="46" Value="F4" Duration="2" Instrument="DMC: drums + bass"
				Note Time="48" Value="E5" Duration="2" Instrument="DMC: drums + bass"
				Note Time="50" Value="A#4" Duration="2" Instrument="DMC: drums + bass"
				Note Time="52" Value="F5" Duration="2" Instrument="DMC: drums + bass"
				Note Time="54" Value="A#4" Duration="2" Instrument="DMC: drums + bass"
				Note Time="56" Value="E5" Duration="2" Instrument="DMC: drums + bass"
				Note Time="58" Value="A#4" Duration="2" Instrument="DMC: drums + bass"
				Note Time="60" Value="F5" Duration="2" Instrument="DMC: drums + bass"
				Note Time="62" Value="A#4" Duration="2" Instrument="DMC: drums + bass"
			Pattern Name="04" Color="ffffb1"
				Note Time="0" Value="E5" Duration="2" Instrument="DMC: drums + bass"
				Note Time="2" Value="G4" Duration="2" Instrument="DMC: drums + bass"
				Note Time="4" Value="F5" Duration="2" Instrument="DMC: drums + bass"
				Note Time="6" Value="G4" Duration="2" Instrument="DMC: drums + bass"
				Note Time="8" Value="E5" Duration="2" Instrument="DMC: drums + bass"
				Note Time="10" Value="G4" Duration="2" Instrument="DMC: drums + bass"
				Note Time="12" Value="F5" Duration="2" Instrument="DMC: drums + bass"
				Note Time="14" Value="G4" Duration="2" Instrument="DMC: drums + bass"
				Note Time="16" Value="E5" Duration="2" Instrument="DMC: drums + bass"
				Note Time="18" Value="D#4" Duration="2" Instrument="DMC: drums + bass"
				Note Time="20" Value="F5" Duration="2" Instrument="DMC: drums + bass"
				Note Time="22" Value="D#4" Duration="2" Instrument="DMC: drums + bass"
				Note Time="24" Value="E5" Duration="2" Instrument="DMC: drums + bass"
				Note Time="26" Value="D#4" Duration="2" Instrument="DMC: drums + bass"
				Note Time="28" Value="F5" Duration="2" Instrument="DMC: drums + bass"
				Note Time="30" Value="D#4" Duration="2" Instrument="DMC: drums + bass"
				Note Time="32" Value="E5" Duration="2" Instrument="DMC: drums + bass"
				Note Time="34" Value="F4" Duration="2" Instrument="DMC: drums + bass"
				Note Time="36" Value="F5" Duration="2" Instrument="DMC: drums + bass"
				Note Time="38" Value="F4" Duration="2" Instrument="DMC: drums + bass"
				Note Time="40" Value="E5" Duration="2" Instrument="DMC: drums + bass"
				Note Time="42" Value="F4" Duration="2" Instrument="DMC: drums + bass"
				Note Time="44" Value="F5" Duration="2" Instrument="DMC: drums + bass"
				Note Time="46" Value="F4" Duration="2" Instrument="DMC: drums + bass"
				Note Time="48" Value="A#4" Duration="2" Instrument="DMC: drums + bass"
				Note Time="50" Value="A#3" Duration="2" Instrument="DMC: drums + bass"
				Note Time="52" Value="A#4" Duration="2" Instrument="DMC: drums + bass"
				Note Time="54" Value="A#3" Duration="2" Instrument="DMC: drums + bass"
				Note Time="56" Value="A#4" Duration="2" Instrument="DMC: drums + bass"
				Note Time="58" Value="A#3" Duration="2" Instrument="DMC: drums + bass"
				Note Time="60" Value="F5" Duration="1" Instrument="DMC: drums + bass"
				Note Time="61" Value="E5" Duration="1" Instrument="DMC: drums + bass"
				Note Time="62" Value="E5" Duration="1" Instrument="DMC: drums + bass"
				Note Time="63" Value="E5" Duration="1" Instrument="DMC: drums + bass"
			Pattern Name="05" Color="62ffff"
				Note Time="0" Value="F5" Duration="4" Instrument="DMC: drums + bass"
				Note Time="4" Value="F5" Duration="4" Instrument="DMC: drums + bass"
				Note Time="8" Value="F5" Duration="2" Instrument="DMC: drums + bass"
				Note Time="10" Value="F5" Duration="1" Instrument="DMC: drums + bass"
				Note Time="11" Value="F5" Duration="1" Instrument="DMC: drums + bass"
				Note Time="12" Value="F5" Duration="2" Instrument="DMC: drums + bass"
				Note Time="14" Value="F5" Duration="1" Instrument="DMC: drums + bass"
				Note Time="15" Value="F5" Duration="1" Instrument="DMC: drums + bass"
				Note Time="16" Value="E5" Duration="2" Instrument="DMC: drums + bass"
				Note Time="18" Value="D#4" Duration="2" Instrument="DMC: drums + bass"
				Note Time="20" Value="E5" Duration="2" Instrument="DMC: drums + bass"
				Note Time="22" Value="D#4" Duration="2" Instrument="DMC: drums + bass"
				Note Time="24" Value="E5" Duration="2" Instrument="DMC: drums + bass"
				Note Time="26" Value="D#4" Duration="2" Instrument="DMC: drums + bass"
				Note Time="28" Value="E5" Duration="2" Instrument="DMC: drums + bass"
				Note Time="30" Value="D#4" Duration="2" Instrument="DMC: drums + bass"
				Note Time="32" Value="E5" Duration="2" Instrument="DMC: drums + bass"
				Note Time="34" Value="F4" Duration="2" Instrument="DMC: drums + bass"
				Note Time="36" Value="E5" Duration="2" Instrument="DMC: drums + bass"
				Note Time="38" Value="F4" Duration="2" Instrument="DMC: drums + bass"
				Note Time="40" Value="E5" Duration="2" Instrument="DMC: drums + bass"
				Note Time="42" Value="F4" Duration="2" Instrument="DMC: drums + bass"
				Note Time="44" Value="E5" Duration="2" Instrument="DMC: drums + bass"
				Note Time="46" Value="F4" Duration="2" Instrument="DMC: drums + bass"
				Note Time="48" Value="E5" Duration="2" Instrument="DMC: drums + bass"
				Note Time="50" Value="A#4" Duration="2" Instrument="DMC: drums + bass"
				Note Time="52" Value="E5" Duration="2" Instrument="DMC: drums + bass"
				Note Time="54" Value="A#4" Duration="2" Instrument="DMC: drums + bass"
				Note Time="56" Value="E5" Duration="2" Instrument="DMC: drums + bass"
				Note Time="58" Value="A#4" Duration="2" Instrument="DMC: drums + bass"
				Note Time="60" Value="E5" Duration="2" Instrument="DMC: drums + bass"
				Note Time="62" Value="A#4" Duration="2" Instrument="DMC: drums + bass"
			Pattern Name="06" Color="a376f3"
				Note Time="0" Value="E5" Duration="2" Instrument="DMC: drums + bass"
				Note Time="2" Value="G4" Duration="2" Instrument="DMC: drums + bass"
				Note Time="4" Value="E5" Duration="2" Instrument="DMC: drums + bass"
				Note Time="6" Value="G4" Duration="2" Instrument="DMC: drums + bass"
				Note Time="8" Value="E5" Duration="2" Instrument="DMC: drums + bass"
				Note Time="10" Value="G4" Duration="2" Instrument="DMC: drums + bass"
				Note Time="12" Value="E5" Duration="2" Instrument="DMC: drums + bass"
				Note Time="14" Value="G4" Duration="2" Instrument="DMC: drums + bass"
				Note Time="16" Value="E5" Duration="2" Instrument="DMC: drums + bass"
				Note Time="18" Value="D#4" Duration="2" Instrument="DMC: drums + bass"
				Note Time="20" Value="E5" Duration="2" Instrument="DMC: drums + bass"
				Note Time="22" Value="D#4" Duration="2" Instrument="DMC: drums + bass"
				Note Time="24" Value="E5" Duration="2" Instrument="DMC: drums + bass"
				Note Time="26" Value="D#4" Duration="2" Instrument="DMC: drums + bass"
				Note Time="28" Value="E5" Duration="2" Instrument="DMC: drums + bass"
				Note Time="30" Value="D#4" Duration="2" Instrument="DMC: drums + bass"
				Note Time="32" Value="E5" Duration="2" Instrument="DMC: drums + bass"
				Note Time="34" Value="F4" Duration="2" Instrument="DMC: drums + bass"
				Note Time="36" Value="E5" Duration="2" Instrument="DMC: drums + bass"
				Note Time="38" Value="F4" Duration="2" Instrument="DMC: drums + bass"
				Note Time="40" Value="E5" Duration="2" Instrument="DMC: drums + bass"
				Note Time="42" Value="F4" Duration="2" Instrument="DMC: drums + bass"
				Note Time="44" Value="E5" Duration="2" Instrument="DMC: drums + bass"
				Note Time="46" Value="F4" Duration="2" Instrument="DMC: drums + bass"
				Note Time="48" Value="E5" Duration="2" Instrument="DMC: drums + bass"
				Note Time="50" Value="A#4" Duration="2" Instrument="DMC: drums + bass"
				Note Time="52" Value="E5" Duration="2" Instrument="DMC: drums + bass"
				Note Time="54" Value="A#4" Duration="4" Instrument="DMC: drums + bass"
				Note Time="58" Value="A#4" Duration="4" Instrument="DMC: drums + bass"
				Note Time="62" Value="A#4" Duration="2" Instrument="DMC: drums + bass"
			Pattern Name="07" Color="b59184"
				Note Time="0" Value="E5" Duration="16" Instrument="DMC: drums + bass"
				Note Time="16" Value="E5" Duration="2" Instrument="DMC: drums + bass"
				Note Time="18" Value="D#4" Duration="2" Instrument="DMC: drums + bass"
				Note Time="20" Value="E5" Duration="2" Instrument="DMC: drums + bass"
				Note Time="22" Value="D#4" Duration="2" Instrument="DMC: drums + bass"
				Note Time="24" Value="E5" Duration="2" Instrument="DMC: drums + bass"
				Note Time="26" Value="D#4" Duration="2" Instrument="DMC: drums + bass"
				Note Time="28" Value="E5" Duration="2" Instrument="DMC: drums + bass"
				Note Time="30" Value="D#4" Duration="2" Instrument="DMC: drums + bass"
				Note Time="32" Value="E5" Duration="2" Instrument="DMC: drums + bass"
				Note Time="34" Value="F4" Duration="2" Instrument="DMC: drums + bass"
				Note Time="36" Value="E5" Duration="2" Instrument="DMC: drums + bass"
				Note Time="38" Value="F4" Duration="2" Instrument="DMC: drums + bass"
				Note Time="40" Value="E5" Duration="2" Instrument="DMC: drums + bass"
				Note Time="42" Value="F4" Duration="2" Instrument="DMC: drums + bass"
				Note Time="44" Value="E5" Duration="2" Instrument="DMC: drums + bass"
				Note Time="46" Value="F4" Duration="2" Instrument="DMC: drums + bass"
				Note Time="48" Value="E5" Duration="2" Instrument="DMC: drums + bass"
				Note Time="50" Value="A#4" Duration="2" Instrument="DMC: drums + bass"
				Note Time="52" Value="E5" Duration="2" Instrument="DMC: drums + bass"
				Note Time="54" Value="A#4" Duration="2" Instrument="DMC: drums + bass"
				Note Time="56" Value="E5" Duration="2" Instrument="DMC: drums + bass"
				Note Time="58" Value="A#4" Duration="2" Instrument="DMC: drums + bass"
				Note Time="60" Value="E5" Duration="2" Instrument="DMC: drums + bass"
				Note Time="62" Value="A#4" Duration="2" Instrument="DMC: drums + bass"
			Pattern Name="08" Color="ffff71"
				Note Time="0" Value="E5" Duration="16" Instrument="DMC: drums + bass"
			PatternInstance Time="0" Pattern="00"
			PatternInstance Time="1" Pattern="00"
			PatternInstance Time="2" Pattern="01"
			PatternInstance Time="3" Pattern="02"
			PatternInstance Time="4" Pattern="03"
			PatternInstance Time="5" Pattern="04"
			PatternInstance Time="6" Pattern="05"
			PatternInstance Time="7" Pattern="06"
			PatternInstance Time="8" Pattern="03"
			PatternInstance Time="9" Pattern="03"
			PatternInstance Time="10" Pattern="07"
			PatternInstance Time="11" Pattern="03"
			PatternInstance Time="12" Pattern="08"
	Song Name="Polargeist" Color="89ffff" Folder="Official music used in the game" Length="17" LoopPoint="-1" PatternLength="64" BeatLength="4" FamiTrackerTempo="163" FamiTrackerSpeed="6"
		PatternCustomSettings Time="0" Length="16"
		PatternCustomSettings Time="16" Length="13"
		Channel Type="Square1"
			Pattern Name="00" Color="ffff75"
				Note Time="0" Value="D2" Duration="16" Instrument="blank" Arpeggio="Arp 3C" Volume="1"
				Note Time="4" Volume="2"
				Note Time="6" Volume="3"
				Note Time="8" Volume="4"
				Note Time="9" Volume="5"
				Note Time="10" Volume="6"
				Note Time="11" Volume="7"
				Note Time="12" Volume="8"
				Note Time="13" Volume="10"
				Note Time="14" Volume="12"
				Note Time="15" Volume="15"
			Pattern Name="01" Color="3ce8fd"
				Note Time="0" Value="A3" Duration="13" Instrument="blank" Volume="8" FinePitch="1"
				Note Time="1" Volume="8" VolumeSlideTarget="0"
				Note Time="13" Value="C4" Duration="4" Instrument="blank string" Volume="4" VolumeSlideTarget="3" FinePitch="-1" DutyCycle="2"
				Note Time="14" Volume="6" VolumeSlideTarget="3"
				Note Time="17" Value="D4" Duration="5" Instrument="blank string" Volume="4" VolumeSlideTarget="3"
				Note Time="18" Volume="6" VolumeSlideTarget="3"
				Note Time="22" Value="C4" Duration="8" Instrument="blank" Volume="8" VolumeSlideTarget="7" FinePitch="1" DutyCycle="0"
				Note Time="23" Volume="7" VolumeSlideTarget="2"
				Note Time="30" Value="G3" Duration="2" Instrument="blank string" Volume="4" VolumeSlideTarget="3" FinePitch="-1" DutyCycle="2"
				Note Time="31" Volume="6" VolumeSlideTarget="5"
				Note Time="32" Value="A3" Duration="13" Instrument="blank" Volume="8" VolumeSlideTarget="7" FinePitch="1" DutyCycle="0"
				Note Time="33" Volume="7" VolumeSlideTarget="0"
				Note Time="44" Volume="0"
				Note Time="45" Value="C4" Duration="4" Instrument="blank string" Volume="4" VolumeSlideTarget="3" FinePitch="-1" DutyCycle="2"
				Note Time="46" Volume="6" VolumeSlideTarget="3"
				Note Time="49" Value="D4" Duration="4" Instrument="blank string" Volume="4" VolumeSlideTarget="3"
				Note Time="50" Volume="6" VolumeSlideTarget="3"
				Note Time="53" Value="F4" Duration="11" Instrument="blank string" Volume="0" FinePitch="1" DutyCycle="0"
				Note Time="54" Volume="0" VolumeSlideTarget="13"
			Pattern Name="02" Color="8d69e4"
				Note Time="0" Value="A3" Duration="13" Instrument="blank" Volume="8" VolumeSlideTarget="9" FinePitch="1"
				Note Time="1" Volume="9" VolumeSlideTarget="0"
				Note Time="13" Value="C5" Duration="4" Instrument="blank string" Volume="4" VolumeSlideTarget="3" FinePitch="-1" DutyCycle="2"
				Note Time="14" Volume="6" VolumeSlideTarget="3"
				Note Time="17" Value="D5" Duration="5" Instrument="blank string" Volume="4" VolumeSlideTarget="3"
				Note Time="18" Volume="6" VolumeSlideTarget="3"
				Note Time="22" Value="C4" Duration="8" Instrument="blank" Volume="8" VolumeSlideTarget="7" FinePitch="1" DutyCycle="0"
				Note Time="23" Volume="7" VolumeSlideTarget="2"
				Note Time="30" Value="G4" Duration="2" Instrument="blank string" Volume="4" VolumeSlideTarget="3" FinePitch="-1" DutyCycle="2"
				Note Time="31" Volume="6" VolumeSlideTarget="5"
				Note Time="32" Value="A3" Duration="13" Instrument="blank" Volume="8" VolumeSlideTarget="7" FinePitch="1" DutyCycle="0"
				Note Time="33" Volume="7" VolumeSlideTarget="0"
				Note Time="44" Volume="0"
				Note Time="45" Value="C5" Duration="1" Instrument="blank string" Volume="4" VolumeSlideTarget="3" FinePitch="-1" DutyCycle="2"
				Note Time="46" Value="A5" Duration="2" Instrument="echo" Volume="8" VolumeSlideTarget="6"
				Note Time="48" Value="G5" Duration="2" Instrument="echo" Volume="11" VolumeSlideTarget="5"
				Note Time="50" Value="F5" Duration="4" Instrument="echo"
				Note Time="54" Value="F4" Duration="2" Instrument="echo" FinePitch="0"
				Note Time="56" Value="F4" Duration="4" Instrument="blank string" Volume="8" VolumeSlideTarget="7"
				Note Time="57" Volume="12" VolumeSlideTarget="9"
				Note Time="60" Value="G4" Duration="4" Instrument="blank string" Volume="9" VolumeSlideTarget="8"
				Note Time="61" Volume="13" VolumeSlideTarget="10"
			Pattern Name="03" Color="997c73"
				Note Time="0" Value="A4" Duration="12" Instrument="blank string" Volume="10"
				Note Time="1" Volume="14" VolumeSlideTarget="6"
				Note Time="12" Value="D4" Duration="2" Instrument="echo" Volume="9" VolumeSlideTarget="7"
				Note Time="14" Value="A2" Duration="1" Instrument="echo" Volume="9" VolumeSlideTarget="8"
				Note Time="15" Value="D4" Duration="2" Instrument="echo" Volume="3" VolumeSlideTarget="1"
				Note Time="17" Value="A2" Duration="1" Instrument="echo" Volume="9" VolumeSlideTarget="8"
				Note Time="18" Value="A2" Duration="2" Instrument="echo" Volume="9" VolumeSlideTarget="6"
				Note Time="21" Value="A2" Duration="1" Instrument="echo" Volume="3" VolumeSlideTarget="2"
				Note Time="22" Value="F3" Duration="2" Instrument="echo" Volume="9" VolumeSlideTarget="7"
				Note Time="24" Value="G3" Duration="1" Instrument="echo" Volume="9" VolumeSlideTarget="8"
				Note Time="25" Value="F3" Duration="2" Instrument="echo" Volume="3" VolumeSlideTarget="1"
				Note Time="27" Value="G3" Duration="1" Instrument="echo" Volume="3" VolumeSlideTarget="2"
				Note Time="28" Value="A3" Duration="2" Instrument="echo" Volume="10" VolumeSlideTarget="8"
				Note Time="30" Value="G4" Duration="1" Instrument="blank string" Volume="10" VolumeSlideTarget="9" DutyCycle="2"
				Note Time="31" Value="A3" Duration="1" Instrument="echo" Volume="3" VolumeSlideTarget="2"
				Note Time="32" Value="D3" Duration="1" Instrument="echo" Volume="11" VolumeSlideTarget="10"
				Note Time="33" Value="G4" Duration="2" Instrument="blank string" Volume="3" VolumeSlideTarget="1"
				Note Time="35" Value="D3" Duration="1" Instrument="echo" Volume="3" VolumeSlideTarget="2"
				Note Time="36" Value="D3" Duration="2" Instrument="echo" Volume="12" VolumeSlideTarget="9" DutyCycle="2"
				Note Time="38" Value="A3" Duration="1" Instrument="echo"
				Note Time="39" Value="D3" Duration="1" Instrument="echo" Volume="3" VolumeSlideTarget="2"
				Note Time="40" Value="C4" Duration="1" Instrument="echo" Volume="12" VolumeSlideTarget="11"
				Note Time="41" Value="A3" Duration="2" Instrument="echo" Volume="4" VolumeSlideTarget="2"
				Note Time="43" Value="C4" Duration="1" Instrument="echo" Volume="5" VolumeSlideTarget="4"
				Note Time="44" Value="D4" Duration="2" Instrument="echo" Volume="13" VolumeSlideTarget="11"
				Note Time="46" Value="G3" Duration="1" Instrument="echo" Volume="13" VolumeSlideTarget="12"
				Note Time="47" Value="D4" Duration="2" Instrument="echo" Volume="5" VolumeSlideTarget="3"
				Note Time="49" Value="G3" Duration="1" Instrument="echo" Volume="5" VolumeSlideTarget="4"
				Note Time="50" Value="G3" Duration="2" Instrument="echo" Volume="14" VolumeSlideTarget="11"
				Note Time="53" Value="G3" Duration="1" Instrument="echo" Volume="7" VolumeSlideTarget="6"
				Note Time="54" Value="D4" Duration="2" Instrument="echo" Volume="14" VolumeSlideTarget="12"
				Note Time="56" Value="F4" Duration="1" Instrument="echo" Volume="14" VolumeSlideTarget="13"
				Note Time="57" Value="D4" Duration="2" Instrument="echo" Volume="7" VolumeSlideTarget="5"
				Note Time="59" Value="F4" Duration="1" Instrument="echo" Volume="7" VolumeSlideTarget="6"
				Note Time="60" Value="G4" Duration="3" Instrument="blank" Volume="10" VolumeSlideTarget="6"
				Note Time="61" Volume="6"
				Note Time="63" Value="G4" Duration="1" Instrument="blank" SlideTarget="F3" Attack="False"
			Pattern Name="04" Color="ffe461"
				Note Time="0" Value="D1" Duration="4" Instrument="polargeist bass" Volume="15"
				Note Time="6" Value="A1" Duration="2" Instrument="polargeist bass"
				Note Time="8" Value="C2" Duration="4" Instrument="polargeist bass"
				Note Time="12" Value="D2" Duration="2" Instrument="polargeist bass"
				Note Time="14" Value="A0" Duration="2" Instrument="polargeist bass"
				Note Time="18" Value="A0" Duration="2" Instrument="polargeist bass"
				Note Time="22" Value="E1" Duration="2" Instrument="polargeist bass"
				Note Time="24" Value="G1" Duration="4" Instrument="polargeist bass"
				Note Time="28" Value="A1" Duration="2" Instrument="polargeist bass"
				Note Time="32" Value="D1" Duration="4" Instrument="polargeist bass"
				Note Time="38" Value="A1" Duration="2" Instrument="polargeist bass"
				Note Time="40" Value="C2" Duration="4" Instrument="polargeist bass"
				Note Time="44" Value="D2" Duration="2" Instrument="polargeist bass"
				Note Time="46" Value="G1" Duration="2" Instrument="polargeist bass"
				Note Time="50" Value="G1" Duration="2" Instrument="polargeist bass"
				Note Time="54" Value="D2" Duration="2" Instrument="polargeist bass"
				Note Time="56" Value="F2" Duration="4" Instrument="polargeist bass"
				Note Time="60" Value="G2" Duration="2" Instrument="polargeist bass"
			Pattern Name="05" Color="89f2e8"
				Note Time="0" Value="D1" Duration="4" Instrument="polargeist bass" Volume="15"
				Note Time="6" Value="A1" Duration="2" Instrument="polargeist bass"
				Note Time="8" Value="C2" Duration="4" Instrument="polargeist bass"
				Note Time="12" Value="D2" Duration="2" Instrument="polargeist bass"
				Note Time="14" Value="A0" Duration="2" Instrument="polargeist bass"
				Note Time="18" Value="A0" Duration="2" Instrument="polargeist bass"
				Note Time="22" Value="E1" Duration="2" Instrument="polargeist bass"
				Note Time="24" Value="G1" Duration="4" Instrument="polargeist bass"
				Note Time="28" Value="A1" Duration="2" Instrument="polargeist bass"
				Note Time="32" Value="D1" Duration="2" Instrument="polargeist bass"
				Note Time="34" Value="D1" Duration="2" Instrument="polargeist bass"
				Note Time="38" Value="F1" Duration="2" Instrument="polargeist bass"
				Note Time="40" Value="F1" Duration="4" Instrument="polargeist bass"
				Note Time="44" Value="G1" Duration="2" Instrument="polargeist bass"
				Note Time="46" Value="G1" Duration="2" Instrument="polargeist bass"
				Note Time="50" Value="A1" Duration="2" Instrument="polargeist bass"
				Note Time="52" Value="A1" Duration="4" Instrument="polargeist bass"
				Note Time="56" Value="C2" Duration="4" Instrument="polargeist bass"
				Note Time="60" Value="C#2" Duration="2" Instrument="polargeist bass"
			Pattern Name="06" Color="98a7fc"
				Note Time="0" Value="D4" Duration="6" Instrument="blank" Volume="10"
				Note Time="4" Volume="10"
				Note Time="5" Volume="7"
				Note Time="6" Value="D4" Duration="3" Instrument="blank" SlideTarget="D#3" Attack="False" Volume="5"
				Note Time="7" Volume="3"
				Note Time="8" Volume="1"
				Note Time="9" DutyCycle="1"
				Note Time="10" Value="D6" Duration="2" Instrument="echo" Volume="15"
				Note Time="12" Value="A5" Duration="4" Instrument="echo"
				Note Time="16" Value="G5" Duration="4" Instrument="echo"
				Note Time="20" Value="A5" Duration="4" Instrument="echo"
				Note Time="24" Value="E5" Duration="4" Instrument="echo"
				Note Time="28" Value="D5" Duration="4" Instrument="echo"
				Note Time="32" Value="A4" Duration="16" Instrument="echo"
				Note Time="48" Value="G4" Duration="2" Instrument="echo"
				Note Time="50" Value="D5" Duration="4" Instrument="echo"
				Note Time="54" Value="G4" Duration="2" Instrument="echo"
				Note Time="56" Value="D5" Duration="4" Instrument="echo"
				Note Time="60" Value="F5" Duration="4" Instrument="echo"
			Pattern Name="07" Color="ff7f72"
				Note Time="0" Value="D5" Duration="6" Instrument="echo"
				Note Time="6" Value="A5" Duration="4" Instrument="echo"
				Note Time="10" Value="C6" Duration="2" Instrument="echo"
				Note Time="12" Value="A5" Duration="4" Instrument="echo"
				Note Time="16" Value="G5" Duration="4" Instrument="echo"
				Note Time="20" Value="A5" Duration="4" Instrument="echo"
				Note Time="24" Value="C6" Duration="4" Instrument="echo"
				Note Time="28" Value="D6" Duration="4" Instrument="echo"
				Note Time="32" Value="A6" Duration="6" Instrument="echo"
				Note Time="38" Value="C6" Duration="4" Instrument="echo"
				Note Time="42" Value="D6" Duration="4" Instrument="echo"
				Note Time="46" Value="A6" Duration="2" Instrument="echo"
				Note Time="48" Value="D7" Duration="8" Instrument="echo"
				Note Time="56" Value="D6" Duration="1" Instrument="echo" DutyCycle="2"
				Note Time="57" Value="A5" Duration="1" Instrument="echo"
				Note Time="58" Value="F5" Duration="1" Instrument="echo"
				Note Time="59" Value="D5" Duration="1" Instrument="echo"
				Note Time="60" Value="C5" Duration="4" Instrument="echo"
			Pattern Name="08" Color="fffd43"
				Note Time="0" Value="D4" Duration="4" Instrument="echo"
				Note Time="3" DutyCycle="3"
				Note Time="4" Value="D3" Duration="4" Instrument="blank" Arpeggio="Arp 7C" Volume="7"
				Note Time="6" Volume="3"
				Note Time="8" Value="D3" Duration="2" Instrument="blank" Arpeggio="Arp 7C" Volume="7"
				Note Time="10" Value="D3" Duration="4" Instrument="blank" Arpeggio="Arp 7A" Volume="7"
				Note Time="12" Volume="3"
				Note Time="14" Value="D3" Duration="4" Instrument="blank" Arpeggio="Arp 7A" Volume="7"
				Note Time="16" Volume="3"
				Note Time="18" Value="D3" Duration="4" Instrument="blank" Arpeggio="Arp 5A" Volume="7"
				Note Time="20" Volume="3"
				Note Time="22" Value="D3" Duration="4" Instrument="blank" Arpeggio="Arp 5A" Volume="7"
				Note Time="24" Volume="3"
				Note Time="26" Value="D3" Duration="4" Instrument="blank" Arpeggio="Arp 59" Volume="7"
				Note Time="28" Volume="3"
				Note Time="30" Value="D3" Duration="30" Instrument="blank" Arpeggio="Arp 59" Volume="7"
				Note Time="36" Volume="6"
				Note Time="44" Volume="5"
				Note Time="48" Volume="4"
				Note Time="52" Volume="3"
				Note Time="56" Volume="1"
				Note Time="60" Volume="7"
			Pattern Name="09" Color="7fdc83"
				Note Time="0" Value="D1" Duration="4" Instrument="polargeist bass" Volume="15"
				Note Time="4" Value="D3" Duration="4" Instrument="blank" Arpeggio="Arp 7C" Volume="7" DutyCycle="1"
				Note Time="6" Volume="3"
				Note Time="8" Value="D3" Duration="2" Instrument="blank" Arpeggio="Arp 7C" Volume="10"
				Note Time="10" Value="D3" Duration="3" Instrument="blank" Arpeggio="Arp 7A" Volume="7"
				Note Time="12" Volume="3"
				Note Time="13" Value="C1" Duration="1" Instrument="blank" Volume="7"
				Note Time="14" Value="D3" Duration="4" Instrument="blank" Arpeggio="Arp 7A" Volume="7"
				Note Time="16" Volume="3"
				Note Time="18" Value="D3" Duration="3" Instrument="blank" Arpeggio="Arp 5A" Volume="7"
				Note Time="20" Volume="3"
				Note Time="21" Value="C1" Duration="1" Instrument="polargeist bass" Volume="10"
				Note Time="22" Value="D3" Duration="4" Instrument="blank" Arpeggio="Arp 5A" Volume="7"
				Note Time="24" Volume="3"
				Note Time="26" Value="D3" Duration="3" Instrument="blank" Arpeggio="Arp 5F" Volume="7"
				Note Time="28" Volume="3"
				Note Time="29" Value="B1" Duration="1" Instrument="blank" Volume="10"
				Note Time="30" Value="G3" Duration="18" Instrument="blank" Arpeggio="Arp 4C" Volume="7"
				Note Time="37" Volume="5"
				Note Time="39" Volume="3"
				Note Time="43" Volume="1"
				Note Time="48" Value="D4" Duration="2" Instrument="echo" Volume="15" DutyCycle="2"
				Note Time="50" Value="D5" Duration="2" Instrument="echo"
				Note Time="52" Value="D4" Duration="2" Instrument="echo"
				Note Time="54" Value="D5" Duration="2" Instrument="echo"
				Note Time="56" Value="D4" Duration="2" Instrument="echo"
				Note Time="58" Value="D5" Duration="2" Instrument="echo"
				Note Time="60" Value="D4" Duration="2" Instrument="echo"
				Note Time="62" Value="D5" Duration="6" Instrument="echo"
			Pattern Name="0A" Color="55b2ff"
				Note Time="4" Value="D3" Duration="4" Instrument="blank" Arpeggio="Arp 7C" Volume="7"
				Note Time="6" Volume="3"
				Note Time="8" Value="D3" Duration="4" Instrument="blank" Arpeggio="Arp 7C" Volume="7"
				Note Time="10" Volume="3"
				Note Time="12" Value="D3" Duration="2" Instrument="blank" Attack="False"
				Note Time="16" Value="D1" Duration="4" Instrument="polargeist bass"
				Note Time="20" Value="C2" Duration="2" Instrument="polargeist bass"
				Note Time="26" Value="D1" Duration="2" Instrument="polargeist bass"
				Note Time="28" Value="B1" Duration="2" Instrument="polargeist bass"
				Note Time="32" Value="G1" Duration="2" Instrument="polargeist bass"
				Note Time="34" Value="G5" Duration="2" Instrument="echo" Volume="15"
				Note Time="36" Value="G5" Duration="1" Instrument="echo" Volume="15"
				Note Time="37" Value="D3" Duration="1" Instrument="blank" Arpeggio="Arp 5C" Volume="7"
				Note Time="38" Value="D5" Duration="1" Instrument="echo" Volume="15"
				Note Time="39" Value="D3" Duration="1" Instrument="blank" Arpeggio="Arp 5C" Volume="3"
				Note Time="40" Value="D5" Duration="1" Instrument="echo" Volume="15"
				Note Time="41" Value="D3" Duration="1" Instrument="blank" Arpeggio="Arp 5C" Volume="7"
				Note Time="42" Value="G4" Duration="1" Instrument="echo" Volume="15"
				Note Time="43" Value="D3" Duration="1" Instrument="blank" Arpeggio="Arp 5C" Volume="3"
				Note Time="44" Value="C5" Duration="1" Instrument="echo" Volume="15"
				Note Time="45" Value="C5" Duration="1" Instrument="echo" Attack="False"
				Note Time="46" Value="C#5" Duration="2" Instrument="echo"
				Note Time="48" Value="D5" Duration="2" Instrument="echo"
				Note Time="50" Value="G4" Duration="2" Instrument="echo"
				Note Time="52" Value="G4" Duration="2" Instrument="echo"
				Note Time="54" Value="G4" Duration="2" Instrument="echo" Volume="7"
				Note Time="56" Value="G4" Duration="2" Instrument="echo" Volume="3"
				Note Time="58" Value="G4" Duration="2" Instrument="echo" Volume="1"
				Note Time="60" Volume="15"
			Pattern Name="0E" Color="e95093"
				Note Time="0" Value="D3" Duration="6" Instrument="echo" Volume="15"
				Note Time="6" Value="A3" Duration="2" Instrument="echo"
				Note Time="8" Value="C4" Duration="4" Instrument="echo"
				Note Time="12" Value="D4" Duration="2" Instrument="echo"
				Note Time="14" Value="A2" Duration="4" Instrument="echo"
				Note Time="18" Value="A2" Duration="4" Instrument="echo"
				Note Time="22" Value="E3" Duration="2" Instrument="echo"
				Note Time="24" Value="G3" Duration="4" Instrument="echo"
				Note Time="28" Value="A3" Duration="4" Instrument="echo"
				Note Time="32" Value="D3" Duration="4" Instrument="echo"
				Note Time="36" Value="D3" Duration="2" Instrument="echo"
				Note Time="38" Value="A3" Duration="2" Instrument="echo"
				Note Time="40" Value="C4" Duration="4" Instrument="echo"
				Note Time="44" Value="D4" Duration="2" Instrument="echo"
				Note Time="46" Value="G3" Duration="4" Instrument="echo"
				Note Time="50" Value="G3" Duration="4" Instrument="echo"
				Note Time="54" Value="D4" Duration="2" Instrument="echo"
				Note Time="56" Value="F4" Duration="4" Instrument="echo"
				Note Time="60" Value="G4" Duration="4" Instrument="echo"
			Pattern Name="0F" Color="ffa83c"
				Note Time="0" Value="D1" Duration="4" Instrument="polargeist bass" Volume="15" DutyCycle="1"
				Note Time="6" Value="A1" Duration="2" Instrument="polargeist bass"
				Note Time="8" Value="C2" Duration="4" Instrument="polargeist bass"
				Note Time="12" Value="D2" Duration="2" Instrument="polargeist bass"
				Note Time="14" Value="A0" Duration="2" Instrument="polargeist bass"
				Note Time="18" Value="A0" Duration="2" Instrument="polargeist bass"
				Note Time="22" Value="E1" Duration="2" Instrument="polargeist bass"
				Note Time="24" Value="G1" Duration="4" Instrument="polargeist bass"
				Note Time="28" Value="A1" Duration="2" Instrument="polargeist bass"
				Note Time="32" Value="D1" Duration="4" Instrument="polargeist bass"
				Note Time="38" Value="A1" Duration="2" Instrument="polargeist bass"
				Note Time="40" Value="C2" Duration="4" Instrument="polargeist bass"
				Note Time="44" Value="D2" Duration="2" Instrument="polargeist bass"
				Note Time="46" Value="G1" Duration="2" Instrument="polargeist bass"
				Note Time="50" Value="G1" Duration="2" Instrument="polargeist bass"
				Note Time="54" Value="D2" Duration="2" Instrument="polargeist bass"
				Note Time="56" Value="F2" Duration="4" Instrument="polargeist bass"
				Note Time="60" Value="G2" Duration="2" Instrument="polargeist bass"
			Pattern Name="0C" Color="eaffbd"
				Note Time="0" Value="D1" Duration="4" Instrument="polargeist bass" Volume="15"
				Note Time="6" Value="A1" Duration="2" Instrument="polargeist bass"
				Note Time="8" Value="C2" Duration="4" Instrument="polargeist bass"
				Note Time="12" Value="D2" Duration="2" Instrument="polargeist bass"
				Note Time="14" Value="A0" Duration="2" Instrument="polargeist bass"
				Note Time="18" Value="A0" Duration="2" Instrument="polargeist bass"
				Note Time="22" Value="E1" Duration="2" Instrument="polargeist bass"
				Note Time="24" Value="G1" Duration="4" Instrument="polargeist bass"
				Note Time="28" Value="A1" Duration="2" Instrument="polargeist bass"
				Note Time="32" Value="D1" Duration="2" Instrument="polargeist bass"
				Note Time="34" Value="D1" Duration="2" Instrument="polargeist bass"
				Note Time="38" Value="F1" Duration="2" Instrument="polargeist bass"
				Note Time="40" Value="F1" Duration="4" Instrument="polargeist bass"
				Note Time="44" Value="G1" Duration="2" Instrument="polargeist bass"
				Note Time="46" Value="G1" Duration="2" Instrument="polargeist bass"
				Note Time="50" Value="A1" Duration="2" Instrument="polargeist bass"
				Note Time="52" Value="A1" Duration="4" Instrument="polargeist bass"
				Note Time="56" Value="C2" Duration="4" Instrument="polargeist bass"
				Note Time="60" Value="C#2" Duration="2" Instrument="polargeist bass"
				Note Time="63" DutyCycle="2"
			Pattern Name="0D" Color="65f2ff"
				Note Time="0" Value="D4" Duration="6" Instrument="blank" Arpeggio="Arp CC" Volume="12" VibratoSpeed="0" VibratoDepth="0"
				Note Time="6" Value="D5" Duration="6" Instrument="blank" SlideTarget="G2" Attack="False" Volume="12" VolumeSlideTarget="0"
				Note Time="11" Volume="0"
			PatternInstance Time="0" Pattern="00"
			PatternInstance Time="1" Pattern="01"
			PatternInstance Time="2" Pattern="02"
			PatternInstance Time="3" Pattern="03"
			PatternInstance Time="4" Pattern="04"
			PatternInstance Time="5" Pattern="05"
			PatternInstance Time="6" Pattern="06"
			PatternInstance Time="7" Pattern="07"
			PatternInstance Time="8" Pattern="08"
			PatternInstance Time="9" Pattern="09"
			PatternInstance Time="10" Pattern="0A"
			PatternInstance Time="11" Pattern="09"
			PatternInstance Time="12" Pattern="0E"
			PatternInstance Time="13" Pattern="0E"
			PatternInstance Time="14" Pattern="0F"
			PatternInstance Time="15" Pattern="0C"
			PatternInstance Time="16" Pattern="0D"
		Channel Type="Square2"
			Pattern Name="0A" Color="d863ec"
				Note Time="0" Value="D3" Duration="16" Instrument="blank" Volume="1"
				Note Time="4" Volume="2"
				Note Time="6" Volume="3"
				Note Time="8" Volume="4"
				Note Time="9" Volume="5"
				Note Time="10" Volume="6"
				Note Time="11" Volume="7"
				Note Time="12" Volume="8"
				Note Time="13" Volume="10"
				Note Time="14" Volume="12"
				Note Time="15" Volume="15"
			Pattern Name="0B" Color="ff935e"
				Note Time="0" Value="A3" Duration="8" Instrument="blank" Volume="8" FinePitch="-2"
				Note Time="1" Volume="8" VolumeSlideTarget="3"
				Note Time="8" Value="C4" Duration="4" Instrument="blank string" Volume="10" VolumeSlideTarget="9" FinePitch="0" DutyCycle="2"
				Note Time="9" Volume="12" VolumeSlideTarget="9"
				Note Time="12" Value="D4" Duration="10" Instrument="blank string" Volume="10" VolumeSlideTarget="9"
				Note Time="13" Volume="12" VolumeSlideTarget="11"
				Note Time="14" Volume="11" VolumeSlideTarget="0"
				Note Time="22" Value="C4" Duration="2" Instrument="blank" Volume="8" VolumeSlideTarget="6" FinePitch="-2" DutyCycle="0"
				Note Time="23" Volume="6" VolumeSlideTarget="5"
				Note Time="24" Value="G3" Duration="4" Instrument="blank string" Volume="10" VolumeSlideTarget="9" FinePitch="0" DutyCycle="2"
				Note Time="25" Volume="12" VolumeSlideTarget="9"
				Note Time="28" Value="A3" Duration="4" Instrument="blank string" Volume="10" VolumeSlideTarget="9"
				Note Time="29" Volume="12" VolumeSlideTarget="11"
				Note Time="30" Volume="11" VolumeSlideTarget="8"
				Note Time="32" Value="A3" Duration="8" Instrument="blank" Volume="8" VolumeSlideTarget="6" FinePitch="-2" DutyCycle="0"
				Note Time="33" Volume="6" VolumeSlideTarget="1"
				Note Time="40" Value="C4" Duration="4" Instrument="blank string" Volume="10" VolumeSlideTarget="9" FinePitch="0" DutyCycle="2"
				Note Time="41" Volume="12" VolumeSlideTarget="9"
				Note Time="44" Value="D4" Duration="9" Instrument="blank string" Volume="10" VolumeSlideTarget="9"
				Note Time="45" Volume="12" VolumeSlideTarget="11"
				Note Time="46" Volume="11" VolumeSlideTarget="1"
				Note Time="53" Value="F4" Duration="11" Instrument="blank string" Volume="0" FinePitch="-2" DutyCycle="0"
				Note Time="54" Volume="0" VolumeSlideTarget="13"
			Pattern Name="0C" Color="fcff6f"
				Note Time="0" Value="A3" Duration="8" Instrument="blank" Volume="8" VolumeSlideTarget="9" FinePitch="-2"
				Note Time="1" Volume="9" VolumeSlideTarget="4"
				Note Time="8" Value="C5" Duration="4" Instrument="blank string" Volume="10" VolumeSlideTarget="9" FinePitch="0" DutyCycle="2"
				Note Time="9" Volume="12" VolumeSlideTarget="9"
				Note Time="12" Value="D5" Duration="10" Instrument="blank string" Volume="10" VolumeSlideTarget="9"
				Note Time="13" Volume="12" VolumeSlideTarget="11"
				Note Time="14" Volume="11" VolumeSlideTarget="0"
				Note Time="22" Value="C4" Duration="2" Instrument="blank" Volume="8" VolumeSlideTarget="6" FinePitch="-2" DutyCycle="0"
				Note Time="23" Volume="6" VolumeSlideTarget="5"
				Note Time="24" Value="G4" Duration="4" Instrument="blank string" Volume="10" VolumeSlideTarget="9" FinePitch="0" DutyCycle="2"
				Note Time="25" Volume="12" VolumeSlideTarget="9"
				Note Time="28" Value="A4" Duration="4" Instrument="blank string" Volume="10" VolumeSlideTarget="9"
				Note Time="29" Volume="12" VolumeSlideTarget="11"
				Note Time="30" Volume="11" VolumeSlideTarget="8"
				Note Time="32" Value="A3" Duration="8" Instrument="blank" Volume="8" VolumeSlideTarget="6" FinePitch="-2" DutyCycle="0"
				Note Time="33" Volume="6" VolumeSlideTarget="1"
				Note Time="40" Value="C5" Duration="4" Instrument="blank string" Volume="10" VolumeSlideTarget="9" FinePitch="0" DutyCycle="2"
				Note Time="41" Volume="12" VolumeSlideTarget="9"
				Note Time="44" Value="D5" Duration="9" Instrument="blank string" Volume="10" VolumeSlideTarget="9"
				Note Time="45" Volume="12" VolumeSlideTarget="11"
				Note Time="46" Volume="11" VolumeSlideTarget="1"
				Note Time="53" Value="F4" Duration="11" Instrument="blank string" Volume="0" FinePitch="-2" DutyCycle="0"
				Note Time="54" Volume="0" VolumeSlideTarget="13"
			Pattern Name="0D" Color="3cd3e3"
				Note Time="0" Value="A3" Duration="8" Instrument="blank" Volume="8" VolumeSlideTarget="9" FinePitch="-2"
				Note Time="1" Volume="9" VolumeSlideTarget="4"
				Note Time="8" Value="C5" Duration="4" Instrument="blank string" Volume="8" VolumeSlideTarget="7" FinePitch="0" DutyCycle="2"
				Note Time="9" Volume="12" VolumeSlideTarget="9"
				Note Time="12" Value="D5" Duration="12" Instrument="blank string" Volume="7" VolumeSlideTarget="6"
				Note Time="13" Volume="12" VolumeSlideTarget="4"
				Note Time="24" Value="G4" Duration="4" Instrument="blank string" Volume="8" VolumeSlideTarget="7" FinePitch="0" DutyCycle="2"
				Note Time="25" Volume="12" VolumeSlideTarget="9"
				Note Time="28" Value="A4" Duration="12" Instrument="blank string" Volume="7" VolumeSlideTarget="6"
				Note Time="29" Volume="12" VolumeSlideTarget="4"
				Note Time="40" Value="C5" Duration="4" Instrument="blank string" Volume="8" VolumeSlideTarget="7" FinePitch="0" DutyCycle="2"
				Note Time="41" Volume="12" VolumeSlideTarget="9"
				Note Time="44" Value="D5" Duration="9" Instrument="blank string" Volume="7" VolumeSlideTarget="6"
				Note Time="45" Volume="12" VolumeSlideTarget="6"
				Note Time="53" Value="F4" Duration="11" Instrument="blank string" Volume="0" FinePitch="0" DutyCycle="0"
				Note Time="54" Volume="0" VolumeSlideTarget="13"
			Pattern Name="01" Color="8163dc"
				Note Time="0" Value="D3" Duration="4" Instrument="blank" Volume="10" DutyCycle="2"
				Note Time="2" Volume="10"
				Note Time="3" Volume="2"
				Note Time="4" Value="D3" Duration="2" Instrument="blank" Volume="10"
				Note Time="6" Value="A3" Duration="2" Instrument="blank"
				Note Time="8" Value="C4" Duration="4" Instrument="blank"
				Note Time="9" VibratoSpeed="7" VibratoDepth="2"
				Note Time="10" Volume="10"
				Note Time="11" Volume="4"
				Note Time="12" Value="D4" Duration="2" Instrument="blank" Volume="10" VibratoSpeed="0" VibratoDepth="0"
				Note Time="14" Value="A2" Duration="4" Instrument="blank"
				Note Time="16" Volume="10"
				Note Time="17" Volume="2"
				Note Time="18" Value="A2" Duration="4" Instrument="blank" Volume="10"
				Note Time="20" VibratoSpeed="8" VibratoDepth="1"
				Note Time="21" Volume="10"
				Note Time="22" Value="E3" Duration="2" Instrument="blank" Volume="10" VibratoSpeed="0" VibratoDepth="0"
				Note Time="24" Value="G3" Duration="4" Instrument="blank"
				Note Time="26" VibratoSpeed="9" VibratoDepth="2"
				Note Time="27" Volume="4"
				Note Time="28" Value="A3" Duration="2" Instrument="blank" Volume="10"
				Note Time="30" Value="A4" Duration="1" Instrument="blank" Volume="5"
				Note Time="31" Value="A4" Duration="1" Instrument="blank" SlideTarget="F#3" Attack="False" Volume="7"
				Note Time="32" Value="D3" Duration="4" Instrument="blank" Volume="10" DutyCycle="2"
				Note Time="35" Volume="4"
				Note Time="36" Value="D3" Duration="2" Instrument="blank" Volume="10"
				Note Time="38" Value="A3" Duration="2" Instrument="blank"
				Note Time="40" Value="C4" Duration="4" Instrument="blank" Volume="10"
				Note Time="41" VibratoSpeed="7" VibratoDepth="2"
				Note Time="42" Volume="9"
				Note Time="44" Value="D4" Duration="2" Instrument="blank" Volume="10" VibratoSpeed="0" VibratoDepth="0"
				Note Time="46" Value="G3" Duration="4" Instrument="blank"
				Note Time="48" Volume="9"
				Note Time="49" Volume="2"
				Note Time="50" Value="G3" Duration="4" Instrument="blank" Volume="10"
				Note Time="52" Volume="9" VibratoSpeed="8" VibratoDepth="1"
				Note Time="53" Volume="2"
				Note Time="54" Value="D4" Duration="2" Instrument="blank" Volume="10" VibratoSpeed="0" VibratoDepth="0"
				Note Time="56" Value="F4" Duration="4" Instrument="blank"
				Note Time="58" Volume="9" VibratoSpeed="9" VibratoDepth="2"
				Note Time="60" Value="G4" Duration="3" Instrument="blank" Volume="10"
				Note Time="63" Value="G4" Duration="1" Instrument="blank" SlideTarget="F3" Attack="False"
			Pattern Name="0F" Color="8a706a"
				Note Time="0" Value="D3" Duration="4" Instrument="blank" Volume="10" DutyCycle="2"
				Note Time="2" Volume="10"
				Note Time="3" Volume="2"
				Note Time="4" Value="D3" Duration="2" Instrument="blank" Volume="10"
				Note Time="6" Value="A3" Duration="2" Instrument="blank"
				Note Time="8" Value="C4" Duration="4" Instrument="blank"
				Note Time="9" VibratoSpeed="7" VibratoDepth="2"
				Note Time="10" Volume="10"
				Note Time="11" Volume="4"
				Note Time="12" Value="D4" Duration="2" Instrument="blank" Volume="10" VibratoSpeed="0" VibratoDepth="0"
				Note Time="14" Value="A2" Duration="4" Instrument="blank"
				Note Time="16" Volume="10"
				Note Time="17" Volume="2"
				Note Time="18" Value="A2" Duration="4" Instrument="blank" Volume="10"
				Note Time="20" VibratoSpeed="8" VibratoDepth="1"
				Note Time="21" Volume="10"
				Note Time="22" Value="E3" Duration="2" Instrument="blank" Volume="10" VibratoSpeed="0" VibratoDepth="0"
				Note Time="24" Value="G3" Duration="4" Instrument="blank"
				Note Time="26" VibratoSpeed="9" VibratoDepth="2"
				Note Time="27" Volume="4"
				Note Time="28" Value="A3" Duration="3" Instrument="blank" Volume="10"
				Note Time="31" Value="A4" Duration="1" Instrument="blank" SlideTarget="C4" Volume="5"
				Note Time="32" Value="D3" Duration="2" Instrument="blank" Volume="10"
				Note Time="33" CutDelay="4"
				Note Time="34" Value="D3" Duration="2" Instrument="blank" Volume="10"
				Note Time="35" CutDelay="4"
				Note Time="38" Value="F3" Duration="2" Instrument="blank" Volume="10"
				Note Time="39" CutDelay="4"
				Note Time="40" Value="F3" Duration="2" Instrument="blank" Volume="10"
				Note Time="41" CutDelay="4"
				Note Time="44" Value="G3" Duration="2" Instrument="blank" Volume="10"
				Note Time="45" CutDelay="4"
				Note Time="46" Value="G3" Duration="2" Instrument="blank" Volume="10"
				Note Time="47" CutDelay="4"
				Note Time="50" Value="A3" Duration="2" Instrument="blank" Volume="10"
				Note Time="51" CutDelay="4"
				Note Time="52" Value="A3" Duration="2" Instrument="blank" Volume="10"
				Note Time="53" CutDelay="4"
				Note Time="56" Value="C4" Duration="4" Instrument="blank"
				Note Time="60" Value="C#4" Duration="4" Instrument="blank"
			Pattern Name="03" Color="ffffb2"
				Note Time="0" Value="D1" Duration="6" Instrument="polargeist bass" Volume="10" VibratoSpeed="0" VibratoDepth="0"
				Note Time="6" Value="A1" Duration="1" Instrument="quiet bass"
				Note Time="7" Value="D1" Duration="1" Instrument="quiet bass"
				Note Time="13" Value="D6" Duration="2" Instrument="echo" Volume="5"
				Note Time="15" Value="A5" Duration="4" Instrument="echo"
				Note Time="19" Value="G5" Duration="4" Instrument="echo"
				Note Time="23" Value="A5" Duration="4" Instrument="echo"
				Note Time="27" Value="E5" Duration="4" Instrument="echo"
				Note Time="31" Value="D5" Duration="4" Instrument="echo"
				Note Time="35" Value="A4" Duration="16" Instrument="echo"
				Note Time="51" Value="G4" Duration="2" Instrument="echo"
				Note Time="53" Value="D5" Duration="4" Instrument="echo"
				Note Time="57" Value="G4" Duration="2" Instrument="echo"
				Note Time="59" Value="D5" Duration="4" Instrument="echo"
				Note Time="63" Value="G4" Duration="4" Instrument="echo"
			Pattern Name="04" Color="62e2d6"
				Note Time="3" Value="D5" Duration="6" Instrument="echo" Volume="5"
				Note Time="9" Value="A5" Duration="4" Instrument="echo"
				Note Time="13" Value="C6" Duration="2" Instrument="echo"
				Note Time="15" Value="A5" Duration="4" Instrument="echo"
				Note Time="19" Value="G5" Duration="4" Instrument="echo"
				Note Time="23" Value="A5" Duration="4" Instrument="echo"
				Note Time="27" Value="C6" Duration="4" Instrument="echo"
				Note Time="31" Value="D6" Duration="4" Instrument="echo"
				Note Time="35" Value="A6" Duration="6" Instrument="echo"
				Note Time="41" Value="C6" Duration="4" Instrument="echo"
				Note Time="45" Value="D6" Duration="4" Instrument="echo"
				Note Time="49" Value="A6" Duration="1" Instrument="echo"
				Note Time="50" Value="D5" Duration="2" Instrument="blank string" Volume="12" DutyCycle="1"
				Note Time="52" Value="A4" Duration="2" Instrument="blank string"
				Note Time="56" Value="C7" Duration="1" Instrument="blank" SlideTarget="E4" Volume="6" DutyCycle="2"
				Note Time="57" Value="C7" Duration="1" Instrument="blank" SlideTarget="E4"
				Note Time="58" Value="C7" Duration="1" Instrument="blank" SlideTarget="E4"
				Note Time="59" Value="C7" Duration="1" Instrument="blank" SlideTarget="E4"
				Note Time="60" Value="C7" Duration="4" Instrument="blank" SlideTarget="G#2"
			Pattern Name="05" Color="7b8df1"
				Note Time="0" Volume="15"
				Note Time="4" Value="D4" Duration="4" Instrument="blank string" DutyCycle="3"
				Note Time="6" Volume="8"
				Note Time="8" Value="D4" Duration="2" Instrument="blank string" Volume="15"
				Note Time="10" Value="C4" Duration="4" Instrument="blank string" Volume="15"
				Note Time="12" Volume="8"
				Note Time="14" Value="C4" Duration="4" Instrument="blank string" Volume="15"
				Note Time="16" Volume="8"
				Note Time="18" Value="C4" Duration="4" Instrument="blank string" Volume="15"
				Note Time="20" Volume="8"
				Note Time="22" Value="C4" Duration="4" Instrument="blank string" Volume="15"
				Note Time="24" Volume="8"
				Note Time="26" Value="B3" Duration="4" Instrument="blank string" Volume="15"
				Note Time="28" Volume="8"
				Note Time="30" Value="B3" Duration="4" Instrument="blank string" Volume="15"
				Note Time="32" Volume="8"
				Note Time="34" Value="G5" Duration="2" Instrument="echo" Volume="15"
				Note Time="36" Value="G5" Duration="2" Instrument="echo"
				Note Time="38" Value="D5" Duration="2" Instrument="echo"
				Note Time="40" Value="D5" Duration="2" Instrument="echo"
				Note Time="42" Value="G4" Duration="2" Instrument="echo"
				Note Time="44" Value="G4" Duration="2" Instrument="echo"
				Note Time="46" Value="F4" Duration="2" Instrument="echo"
				Note Time="48" Value="F4" Duration="2" Instrument="echo"
				Note Time="50" Value="G4" Duration="2" Instrument="echo"
				Note Time="52" Value="G4" Duration="2" Instrument="echo"
				Note Time="54" Value="G4" Duration="2" Instrument="echo" Volume="7"
				Note Time="56" Value="G4" Duration="2" Instrument="echo" Volume="3"
				Note Time="58" Value="G4" Duration="2" Instrument="echo" Volume="1"
				Note Time="60" Volume="15"
			Pattern Name="06" Color="ff7571"
				Note Time="4" Value="D4" Duration="4" Instrument="blank string" DutyCycle="3"
				Note Time="6" Volume="8"
				Note Time="8" Value="D4" Duration="2" Instrument="blank string" Volume="15"
				Note Time="10" Value="C4" Duration="4" Instrument="blank string" Volume="15"
				Note Time="12" Volume="8"
				Note Time="14" Value="C4" Duration="4" Instrument="blank string" Volume="15"
				Note Time="16" Volume="8"
				Note Time="18" Value="C4" Duration="4" Instrument="blank string" Volume="15"
				Note Time="20" Volume="8"
				Note Time="22" Value="C4" Duration="4" Instrument="blank string" Volume="15"
				Note Time="24" Volume="8"
				Note Time="26" Value="B3" Duration="4" Instrument="blank string" Volume="15"
				Note Time="28" Volume="8"
				Note Time="30" Value="B3" Duration="4" Instrument="blank string" Volume="15"
				Note Time="32" Volume="8"
				Note Time="34" Value="G5" Duration="2" Instrument="echo" Volume="15"
				Note Time="36" Value="G5" Duration="2" Instrument="echo"
				Note Time="38" Value="D5" Duration="2" Instrument="echo"
				Note Time="40" Value="D5" Duration="2" Instrument="echo"
				Note Time="42" Value="G4" Duration="2" Instrument="echo"
				Note Time="44" Value="G4" Duration="2" Instrument="echo"
				Note Time="46" Value="F5" Duration="2" Instrument="echo"
				Note Time="48" Value="F5" Duration="2" Instrument="echo"
				Note Time="50" Value="G5" Duration="2" Instrument="echo"
				Note Time="52" Value="G5" Duration="2" Instrument="echo"
				Note Time="54" Value="G5" Duration="2" Instrument="echo" Volume="7"
				Note Time="56" Value="G5" Duration="2" Instrument="echo" Volume="3"
				Note Time="58" Value="G5" Duration="2" Instrument="echo" Volume="1"
				Note Time="60" Volume="8"
			Pattern Name="07" Color="ffef3c"
				Note Time="0" Value="D4" Duration="1" Instrument="echo" Volume="15" DutyCycle="2" CutDelay="3"
				Note Time="2" Value="D5" Duration="1" Instrument="echo" CutDelay="2"
				Note Time="4" Value="D4" Duration="1" Instrument="echo" CutDelay="3"
				Note Time="5" Value="A1" Duration="1" Instrument="blank" Volume="7"
				Note Time="6" Value="D5" Duration="1" Instrument="echo" Volume="15" CutDelay="2"
				Note Time="8" Value="D4" Duration="1" Instrument="echo" CutDelay="3"
				Note Time="10" Value="D5" Duration="1" Instrument="echo" CutDelay="2"
				Note Time="12" Value="D4" Duration="1" Instrument="echo" CutDelay="3"
				Note Time="13" Value="C1" Duration="1" Instrument="blank" Volume="7"
				Note Time="14" Value="D5" Duration="1" Instrument="echo" Volume="15" CutDelay="2"
				Note Time="16" Value="D4" Duration="1" Instrument="echo" CutDelay="3"
				Note Time="18" Value="C5" Duration="1" Instrument="echo" CutDelay="2"
				Note Time="20" Value="C4" Duration="1" Instrument="echo" CutDelay="3"
				Note Time="22" Value="C5" Duration="1" Instrument="echo" CutDelay="2"
				Note Time="24" Value="A3" Duration="1" Instrument="echo" CutDelay="3"
				Note Time="26" Value="C5" Duration="1" Instrument="echo" CutDelay="2"
				Note Time="28" Value="D3" Duration="1" Instrument="echo" CutDelay="3"
				Note Time="30" Value="C5" Duration="1" Instrument="echo" CutDelay="2"
				Note Time="32" Value="B3" Duration="1" Instrument="echo" CutDelay="3"
				Note Time="34" Value="B4" Duration="1" Instrument="echo" CutDelay="2"
				Note Time="36" Value="B3" Duration="1" Instrument="echo" CutDelay="3"
				Note Time="38" Value="B4" Duration="1" Instrument="echo" CutDelay="2"
				Note Time="40" Value="B3" Duration="1" Instrument="echo" CutDelay="3"
				Note Time="42" Value="B4" Duration="1" Instrument="echo" CutDelay="2"
				Note Time="44" Value="C4" Duration="1" Instrument="echo" CutDelay="3"
				Note Time="46" Value="C#4" Duration="1" Instrument="echo" CutDelay="3"
				Note Time="48" Value="D4" Duration="1" Instrument="echo" CutDelay="3"
				Note Time="50" Value="B4" Duration="1" Instrument="echo" CutDelay="2"
				Note Time="52" Value="D4" Duration="1" Instrument="echo" CutDelay="3"
				Note Time="54" Value="B4" Duration="1" Instrument="echo" CutDelay="2"
				Note Time="56" Value="D4" Duration="1" Instrument="echo" CutDelay="3"
				Note Time="58" Value="B4" Duration="1" Instrument="echo" CutDelay="2"
				Note Time="60" Value="D4" Duration="1" Instrument="echo" CutDelay="3"
				Note Time="62" Value="B4" Duration="1" Instrument="echo" CutDelay="2"
			Pattern Name="08" Color="74ca78"
				Note Time="0" Value="D4" Duration="1" Instrument="echo" Volume="15" CutDelay="3"
				Note Time="2" Value="D5" Duration="1" Instrument="echo" CutDelay="2"
				Note Time="4" Value="D4" Duration="1" Instrument="echo" CutDelay="3"
				Note Time="5" Value="A1" Duration="1" Instrument="blank" Volume="7"
				Note Time="6" Value="D5" Duration="1" Instrument="echo" Volume="15" CutDelay="2"
				Note Time="8" Value="D4" Duration="1" Instrument="echo" CutDelay="3"
				Note Time="10" Value="D5" Duration="1" Instrument="echo" CutDelay="2"
				Note Time="12" Value="D4" Duration="1" Instrument="echo" CutDelay="3"
				Note Time="13" Value="C1" Duration="1" Instrument="blank" Volume="7"
				Note Time="14" Value="D5" Duration="1" Instrument="echo" Volume="15" CutDelay="2"
				Note Time="16" Value="D4" Duration="1" Instrument="echo" CutDelay="3"
				Note Time="18" Value="C5" Duration="1" Instrument="echo" CutDelay="2"
				Note Time="20" Value="C4" Duration="1" Instrument="echo" CutDelay="3"
				Note Time="22" Value="C5" Duration="1" Instrument="echo" CutDelay="2"
				Note Time="24" Value="A3" Duration="1" Instrument="echo" CutDelay="3"
				Note Time="26" Value="C5" Duration="1" Instrument="echo" CutDelay="2"
				Note Time="28" Value="D3" Duration="1" Instrument="echo" CutDelay="3"
				Note Time="30" Value="C5" Duration="1" Instrument="echo" CutDelay="2"
				Note Time="34" Value="G5" Duration="1" Instrument="echo" Volume="15"
				Note Time="35" Value="G1" Duration="1" Instrument="blank" Volume="6"
				Note Time="36" Value="G5" Duration="1" Instrument="echo" Volume="15"
				Note Time="37" Value="B1" Duration="1" Instrument="blank" Volume="6"
				Note Time="38" Value="D5" Duration="2" Instrument="echo" Volume="15"
				Note Time="40" Value="D5" Duration="2" Instrument="echo" Volume="15"
				Note Time="42" Value="G4" Duration="1" Instrument="echo" Volume="15"
				Note Time="43" Value="G1" Duration="1" Instrument="blank" Volume="6"
				Note Time="44" Value="G4" Duration="1" Instrument="echo" Volume="15"
				Note Time="45" Value="D2" Duration="1" Instrument="blank" Volume="6"
				Note Time="46" Value="F5" Duration="2" Instrument="echo" Volume="15"
				Note Time="48" Value="F5" Duration="1" Instrument="echo" Volume="15"
				Note Time="49" Value="D2" Duration="1" Instrument="blank" Volume="6"
				Note Time="50" Value="G5" Duration="2" Instrument="echo" Volume="15"
				Note Time="52" Value="G5" Duration="1" Instrument="echo" Volume="15"
				Note Time="53" Value="G1" Duration="1" Instrument="blank" Volume="6"
				Note Time="54" Value="F5" Duration="2" Instrument="echo" Volume="15"
				Note Time="56" Value="F5" Duration="2" Instrument="echo" Volume="15"
				Note Time="58" Value="G5" Duration="1" Instrument="echo" Volume="15"
				Note Time="59" Value="F1" Duration="1" Instrument="blank" Volume="6"
				Note Time="60" Value="G5" Duration="1" Instrument="echo" Volume="15"
				Note Time="61" Value="G1" Duration="1" Instrument="blank" Volume="6"
			Pattern Name="0E" Color="51a1fc"
				Note Time="3" Value="D3" Duration="6" Instrument="echo" Volume="3"
				Note Time="9" Value="A3" Duration="2" Instrument="echo"
				Note Time="11" Value="C4" Duration="4" Instrument="echo"
				Note Time="15" Value="D4" Duration="2" Instrument="echo"
				Note Time="17" Value="A2" Duration="4" Instrument="echo"
				Note Time="21" Value="A2" Duration="4" Instrument="echo"
				Note Time="25" Value="E3" Duration="2" Instrument="echo"
				Note Time="27" Value="G3" Duration="4" Instrument="echo"
				Note Time="31" Value="A3" Duration="4" Instrument="echo"
				Note Time="35" Value="D3" Duration="4" Instrument="echo"
				Note Time="39" Value="D3" Duration="2" Instrument="echo"
				Note Time="41" Value="A3" Duration="2" Instrument="echo"
				Note Time="43" Value="C4" Duration="4" Instrument="echo"
				Note Time="47" Value="D4" Duration="2" Instrument="echo"
				Note Time="49" Value="G3" Duration="4" Instrument="echo"
				Note Time="53" Value="G3" Duration="4" Instrument="echo"
				Note Time="57" Value="D4" Duration="2" Instrument="echo"
				Note Time="59" Value="F4" Duration="4" Instrument="echo"
				Note Time="63" Value="G4" Duration="4" Instrument="echo"
			Pattern Name="09" Color="ff9ece"
				Note Time="0" Value="D3" Duration="4" Instrument="blank" Arpeggio="Arp CC" Volume="10" DutyCycle="2"
				Note Time="3" Volume="4"
				Note Time="4" Value="D3" Duration="2" Instrument="blank" Arpeggio="Arp CC" Volume="10"
				Note Time="6" Value="A3" Duration="2" Instrument="blank" Arpeggio="Arp CC"
				Note Time="8" Value="C4" Duration="4" Instrument="blank" Arpeggio="Arp CC"
				Note Time="9" VibratoSpeed="7" VibratoDepth="2"
				Note Time="11" Volume="4"
				Note Time="12" Value="D4" Duration="2" Instrument="blank" Arpeggio="Arp CC" Volume="10" VibratoSpeed="0" VibratoDepth="0"
				Note Time="14" Value="A2" Duration="4" Instrument="blank" Arpeggio="Arp CC"
				Note Time="17" Volume="4"
				Note Time="18" Value="A2" Duration="4" Instrument="blank" Arpeggio="Arp CC" Volume="10"
				Note Time="20" VibratoSpeed="8" VibratoDepth="1"
				Note Time="21" Volume="4"
				Note Time="22" Value="E3" Duration="2" Instrument="blank" Arpeggio="Arp CC" Volume="10" VibratoSpeed="0" VibratoDepth="0"
				Note Time="24" Value="G3" Duration="4" Instrument="blank" Arpeggio="Arp CC"
				Note Time="26" VibratoSpeed="9" VibratoDepth="2"
				Note Time="27" Volume="4"
				Note Time="28" Value="A3" Duration="3" Instrument="blank" Arpeggio="Arp CC" Volume="10"
				Note Time="31" Value="A4" Duration="1" Instrument="blank" SlideTarget="F#3" Volume="5"
				Note Time="32" Value="D3" Duration="4" Instrument="blank" Arpeggio="Arp CC" Volume="10" DutyCycle="2"
				Note Time="35" Volume="4"
				Note Time="36" Value="D3" Duration="2" Instrument="blank" Arpeggio="Arp CC" Volume="10"
				Note Time="38" Value="A3" Duration="2" Instrument="blank" Arpeggio="Arp CC"
				Note Time="40" Value="C4" Duration="4" Instrument="blank" Arpeggio="Arp CC"
				Note Time="41" VibratoSpeed="7" VibratoDepth="2"
				Note Time="43" Volume="4"
				Note Time="44" Value="D4" Duration="2" Instrument="blank" Arpeggio="Arp CC" Volume="10" VibratoSpeed="0" VibratoDepth="0"
				Note Time="46" Value="G3" Duration="4" Instrument="blank" Arpeggio="Arp CC"
				Note Time="49" Volume="4"
				Note Time="50" Value="G3" Duration="4" Instrument="blank" Arpeggio="Arp CC" Volume="10"
				Note Time="52" VibratoSpeed="8" VibratoDepth="1"
				Note Time="53" Volume="4"
				Note Time="54" Value="D4" Duration="2" Instrument="blank" Arpeggio="Arp CC" Volume="10" VibratoSpeed="0" VibratoDepth="0"
				Note Time="56" Value="F4" Duration="4" Instrument="blank" Arpeggio="Arp CC"
				Note Time="58" VibratoSpeed="9" VibratoDepth="2"
				Note Time="59" Volume="4"
				Note Time="60" Value="G4" Duration="3" Instrument="blank" Arpeggio="Arp CC" Volume="10"
				Note Time="63" Value="G5" Duration="1" Instrument="blank" SlideTarget="F4" Attack="False" Volume="4"
			Pattern Name="02" Color="fff389"
				Note Time="0" Value="D3" Duration="4" Instrument="blank" Arpeggio="Arp CC" Volume="10" DutyCycle="2"
				Note Time="3" Volume="4"
				Note Time="4" Value="D3" Duration="2" Instrument="blank" Arpeggio="Arp CC" Volume="10"
				Note Time="6" Value="A3" Duration="2" Instrument="blank" Arpeggio="Arp CC"
				Note Time="8" Value="C4" Duration="4" Instrument="blank" Arpeggio="Arp CC"
				Note Time="9" VibratoSpeed="7" VibratoDepth="3"
				Note Time="11" Volume="4"
				Note Time="12" Value="D4" Duration="2" Instrument="blank" Arpeggio="Arp CC" Volume="10" VibratoSpeed="0" VibratoDepth="0"
				Note Time="14" Value="A2" Duration="4" Instrument="blank" Arpeggio="Arp CC"
				Note Time="17" Volume="4"
				Note Time="18" Value="A2" Duration="4" Instrument="blank" Arpeggio="Arp CC" Volume="10"
				Note Time="20" VibratoSpeed="8" VibratoDepth="1"
				Note Time="21" Volume="4"
				Note Time="22" Value="E3" Duration="2" Instrument="blank" Arpeggio="Arp CC" Volume="10" VibratoSpeed="0" VibratoDepth="0"
				Note Time="24" Value="G3" Duration="4" Instrument="blank" Arpeggio="Arp CC"
				Note Time="26" VibratoSpeed="9" VibratoDepth="3"
				Note Time="27" Volume="4"
				Note Time="28" Value="A3" Duration="2" Instrument="blank" Arpeggio="Arp CC" Volume="10"
				Note Time="30" Value="A4" Duration="1" Instrument="blank" Arpeggio="Arp CC" Volume="10"
				Note Time="31" Value="A5" Duration="1" Instrument="blank" SlideTarget="B3" Attack="False"
				Note Time="32" Value="D3" Duration="2" Instrument="blank" Arpeggio="Arp CC" Volume="10"
				Note Time="33" CutDelay="4"
				Note Time="34" Value="D3" Duration="2" Instrument="blank" Arpeggio="Arp CC" Volume="10"
				Note Time="35" CutDelay="4"
				Note Time="37" Volume="4"
				Note Time="38" Value="F3" Duration="2" Instrument="blank" Arpeggio="Arp CC" Volume="10"
				Note Time="39" CutDelay="4"
				Note Time="40" Value="F3" Duration="2" Instrument="blank" Arpeggio="Arp CC" Volume="10"
				Note Time="41" CutDelay="4"
				Note Time="43" Volume="4"
				Note Time="44" Value="G3" Duration="2" Instrument="blank" Arpeggio="Arp CC" Volume="10"
				Note Time="45" CutDelay="4"
				Note Time="46" Value="G3" Duration="2" Instrument="blank" Arpeggio="Arp CC" Volume="10"
				Note Time="47" CutDelay="4"
				Note Time="49" Volume="4"
				Note Time="50" Value="A3" Duration="2" Instrument="blank" Arpeggio="Arp CC" Volume="10"
				Note Time="51" CutDelay="4"
				Note Time="52" Value="A3" Duration="2" Instrument="blank" Arpeggio="Arp CC" Volume="10"
				Note Time="53" CutDelay="4"
				Note Time="55" Volume="4"
				Note Time="56" Value="C4" Duration="4" Instrument="blank" Arpeggio="Arp CC" Volume="10"
				Note Time="59" Volume="4"
				Note Time="60" Value="C#4" Duration="4" Instrument="blank" Arpeggio="Arp CC" Volume="10"
			PatternInstance Time="0" Pattern="0A"
			PatternInstance Time="1" Pattern="0B"
			PatternInstance Time="2" Pattern="0C"
			PatternInstance Time="3" Pattern="0D"
			PatternInstance Time="4" Pattern="01"
			PatternInstance Time="5" Pattern="0F"
			PatternInstance Time="6" Pattern="03"
			PatternInstance Time="7" Pattern="04"
			PatternInstance Time="8" Pattern="05"
			PatternInstance Time="9" Pattern="06"
			PatternInstance Time="10" Pattern="07"
			PatternInstance Time="11" Pattern="08"
			PatternInstance Time="12" Pattern="0E"
			PatternInstance Time="13" Pattern="0E"
			PatternInstance Time="14" Pattern="09"
			PatternInstance Time="15" Pattern="02"
			PatternInstance Time="16" Pattern="03"
		Channel Type="Triangle"
			Pattern Name="09" Color="fffd43"
				Note Time="0" Value="E3" Duration="4" Instrument="triangle drums"
				Note Time="14" Value="F2" Duration="2" Instrument="tight triangle kick"
				Note Time="16" Value="F2" Duration="3" Instrument="tight triangle kick"
				Note Time="19" Value="F2" Duration="3" Instrument="tight triangle kick"
				Note Time="22" Value="F2" Duration="8" Instrument="tight triangle kick"
				Note Time="30" Value="F2" Duration="2" Instrument="tight triangle kick"
				Note Time="32" Value="F2" Duration="14" Instrument="tight triangle kick"
				Note Time="46" Value="F2" Duration="2" Instrument="tight triangle kick"
				Note Time="48" Value="F2" Duration="3" Instrument="tight triangle kick"
				Note Time="51" Value="F2" Duration="3" Instrument="tight triangle kick"
				Note Time="54" Value="F2" Duration="10" Instrument="tight triangle kick"
			Pattern Name="0A" Color="7fdc83"
				Note Time="0" Value="E3" Duration="2" Instrument="triangle drums"
				Note Time="2" Value="D4" Duration="1" Instrument="blank"
				Note Time="4" Value="A3" Duration="1" Instrument="blank"
				Note Time="6" Value="D3" Duration="1" Instrument="blank"
				Note Time="8" Value="C4" Duration="1" Instrument="blank"
				Note Time="10" Value="D3" Duration="1" Instrument="blank"
				Note Time="12" Value="C4" Duration="2" Instrument="blank"
				Note Time="14" Value="F2" Duration="2" Instrument="tight triangle kick"
				Note Time="16" Value="F2" Duration="3" Instrument="tight triangle kick"
				Note Time="19" Value="F2" Duration="3" Instrument="tight triangle kick"
				Note Time="22" Value="F2" Duration="8" Instrument="tight triangle kick"
				Note Time="30" Value="F2" Duration="2" Instrument="tight triangle kick"
				Note Time="32" Value="F2" Duration="14" Instrument="tight triangle kick"
				Note Time="46" Value="F2" Duration="2" Instrument="tight triangle kick"
				Note Time="48" Value="F2" Duration="3" Instrument="tight triangle kick"
				Note Time="51" Value="F2" Duration="3" Instrument="tight triangle kick"
				Note Time="54" Value="F2" Duration="10" Instrument="tight triangle kick"
			Pattern Name="0B" Color="ff8d5a"
				Note Time="0" Value="E3" Duration="4" Instrument="triangle drums"
				Note Time="4" Value="C1" Duration="1" Instrument="tight triangle kick" CutDelay="2"
				Note Time="6" Value="C1" Duration="1" Instrument="tight triangle kick" CutDelay="2"
				Note Time="8" Value="C1" Duration="1" Instrument="tight triangle kick" CutDelay="2"
				Note Time="10" Value="C1" Duration="1" Instrument="tight triangle kick" CutDelay="2"
				Note Time="12" Value="C1" Duration="1" Instrument="tight triangle kick" CutDelay="2"
				Note Time="14" Value="C1" Duration="1" Instrument="tight triangle kick" CutDelay="4"
				Note Time="16" Value="E3" Duration="1" Instrument="triangle drums" CutDelay="5"
				Note Time="19" Value="C1" Duration="1" Instrument="tight triangle kick" CutDelay="4"
				Note Time="22" Value="C1" Duration="1" Instrument="tight triangle kick" CutDelay="2"
				Note Time="24" Value="C1" Duration="1" Instrument="tight triangle kick" CutDelay="2"
				Note Time="26" Value="C1" Duration="1" Instrument="tight triangle kick" CutDelay="2"
				Note Time="28" Value="C1" Duration="1" Instrument="tight triangle kick" CutDelay="2"
				Note Time="30" Value="E3" Duration="1" Instrument="triangle drums" CutDelay="6"
				Note Time="32" Value="E3" Duration="1" Instrument="triangle drums" CutDelay="8"
				Note Time="36" Value="E3" Duration="1" Instrument="triangle drums" CutDelay="8"
				Note Time="40" Value="E3" Duration="1" Instrument="triangle drums" CutDelay="8"
				Note Time="44" Value="E3" Duration="1" Instrument="triangle drums" CutDelay="8"
				Note Time="48" Value="E3" Duration="1" Instrument="triangle drums" CutDelay="8"
			Pattern Name="01" Color="ebf067"
				Note Time="0" Value="E3" Duration="1" Instrument="triangle drums" CutDelay="8"
				Note Time="2" Value="D4" Duration="2" Instrument="blank" Volume="12"
				Note Time="4" Value="A3" Duration="2" Instrument="triangle drums"
				Note Time="6" Value="D4" Duration="2" Instrument="blank"
				Note Time="8" Value="A4" Duration="2" Instrument="blank"
				Note Time="10" Value="E3" Duration="1" Instrument="triangle drums" CutDelay="8"
				Note Time="12" Value="A3" Duration="2" Instrument="triangle drums"
				Note Time="14" Value="D5" Duration="2" Instrument="blank"
				Note Time="16" Value="E3" Duration="1" Instrument="triangle drums" CutDelay="8"
				Note Time="20" Value="A3" Duration="2" Instrument="triangle drums"
				Note Time="22" Value="E3" Duration="1" Instrument="triangle drums" CutDelay="8"
				Note Time="24" Value="E4" Duration="2" Instrument="blank"
				Note Time="26" Value="E3" Duration="1" Instrument="triangle drums" CutDelay="8"
				Note Time="28" Value="A3" Duration="2" Instrument="triangle drums"
				Note Time="30" Value="A4" Duration="2" Instrument="blank"
				Note Time="32" Value="E3" Duration="1" Instrument="triangle drums" CutDelay="8"
				Note Time="34" Value="D4" Duration="2" Instrument="blank" Volume="12"
				Note Time="36" Value="A3" Duration="2" Instrument="triangle drums"
				Note Time="38" Value="D4" Duration="2" Instrument="blank"
				Note Time="40" Value="A4" Duration="2" Instrument="blank"
				Note Time="42" Value="E3" Duration="1" Instrument="triangle drums" CutDelay="8"
				Note Time="44" Value="A3" Duration="2" Instrument="triangle drums"
				Note Time="46" Value="D5" Duration="2" Instrument="blank"
				Note Time="48" Value="G4" Duration="2" Instrument="blank"
				Note Time="50" Value="E3" Duration="1" Instrument="triangle drums" CutDelay="8"
				Note Time="52" Value="A3" Duration="2" Instrument="triangle drums"
				Note Time="54" Value="E3" Duration="1" Instrument="triangle drums" CutDelay="8"
				Note Time="56" Value="D5" Duration="2" Instrument="blank"
				Note Time="58" Value="E3" Duration="1" Instrument="triangle drums" CutDelay="8"
				Note Time="59" Value="E3" Duration="1" Instrument="triangle drums" CutDelay="8"
				Note Time="60" Value="A3" Duration="2" Instrument="triangle drums"
				Note Time="62" Value="G5" Duration="2" Instrument="blank"
			Pattern Name="02" Color="3cbfcb"
				Note Time="0" Value="E3" Duration="1" Instrument="triangle drums" CutDelay="8"
				Note Time="2" Value="D4" Duration="2" Instrument="blank"
				Note Time="4" Value="A3" Duration="2" Instrument="triangle drums"
				Note Time="6" Value="D4" Duration="2" Instrument="blank"
				Note Time="8" Value="A4" Duration="2" Instrument="blank"
				Note Time="10" Value="E3" Duration="1" Instrument="triangle drums" CutDelay="8"
				Note Time="12" Value="A3" Duration="2" Instrument="triangle drums"
				Note Time="14" Value="D5" Duration="2" Instrument="blank"
				Note Time="16" Value="E3" Duration="1" Instrument="triangle drums" CutDelay="8"
				Note Time="20" Value="A3" Duration="2" Instrument="triangle drums"
				Note Time="22" Value="E3" Duration="1" Instrument="triangle drums" CutDelay="8"
				Note Time="24" Value="E4" Duration="2" Instrument="blank"
				Note Time="26" Value="E3" Duration="1" Instrument="triangle drums" CutDelay="8"
				Note Time="28" Value="A3" Duration="2" Instrument="triangle drums"
				Note Time="30" Value="A4" Duration="2" Instrument="blank"
				Note Time="32" Value="A3" Duration="2" Instrument="triangle drums"
				Note Time="34" Value="E3" Duration="1" Instrument="triangle drums" CutDelay="8"
				Note Time="35" CutDelay="4"
				Note Time="36" Value="D4" Duration="1" Instrument="blank"
				Note Time="37" Value="A3" Duration="1" Instrument="triangle drums"
				Note Time="38" Value="A3" Duration="2" Instrument="triangle drums"
				Note Time="40" Value="E3" Duration="1" Instrument="triangle drums" CutDelay="8"
				Note Time="41" CutDelay="4"
				Note Time="42" Value="F4" Duration="1" Instrument="blank"
				Note Time="43" Value="A3" Duration="1" Instrument="triangle drums"
				Note Time="44" Value="A3" Duration="2" Instrument="triangle drums"
				Note Time="46" Value="E3" Duration="1" Instrument="triangle drums" CutDelay="8"
				Note Time="47" CutDelay="4"
				Note Time="48" Value="G4" Duration="1" Instrument="blank"
				Note Time="49" Value="A3" Duration="1" Instrument="triangle drums"
				Note Time="50" Value="A3" Duration="2" Instrument="triangle drums"
				Note Time="52" Value="E3" Duration="1" Instrument="triangle drums" CutDelay="8"
				Note Time="53" CutDelay="4"
				Note Time="54" Value="A4" Duration="2" Instrument="blank"
				Note Time="55" CutDelay="4"
				Note Time="56" Value="A3" Duration="2" Instrument="triangle drums"
				Note Time="58" Value="E3" Duration="1" Instrument="triangle drums" CutDelay="8"
				Note Time="60" Value="A3" Duration="1" Instrument="triangle drums"
				Note Time="61" Value="A3" Duration="1" Instrument="triangle drums"
				Note Time="62" Value="A3" Duration="1" Instrument="triangle drums"
				Note Time="63" Value="A3" Duration="1" Instrument="triangle drums"
			Pattern Name="0D" Color="d1b1ff"
				Note Time="0" Value="F2" Duration="1" Instrument="tight triangle kick"
				Note Time="1" Value="D5" Duration="5" Instrument="blank"
				Note Time="6" Value="D5" Duration="2" Instrument="blank" SlideTarget="C#4" Attack="False"
				Note Time="14" Value="F2" Duration="2" Instrument="tight triangle kick"
				Note Time="16" Value="F2" Duration="3" Instrument="tight triangle kick"
				Note Time="19" Value="F2" Duration="3" Instrument="tight triangle kick"
				Note Time="22" Value="F2" Duration="8" Instrument="tight triangle kick"
				Note Time="30" Value="F2" Duration="2" Instrument="tight triangle kick"
				Note Time="32" Value="F2" Duration="14" Instrument="tight triangle kick"
				Note Time="46" Value="F2" Duration="2" Instrument="tight triangle kick"
				Note Time="48" Value="F2" Duration="3" Instrument="tight triangle kick"
				Note Time="51" Value="F2" Duration="3" Instrument="tight triangle kick"
				Note Time="54" Value="F2" Duration="10" Instrument="tight triangle kick"
			Pattern Name="0E" Color="ddc4bb"
				Note Time="0" Value="F2" Duration="14" Instrument="tight triangle kick"
				Note Time="14" Value="F2" Duration="2" Instrument="tight triangle kick"
				Note Time="16" Value="F2" Duration="3" Instrument="tight triangle kick"
				Note Time="19" Value="F2" Duration="3" Instrument="tight triangle kick"
				Note Time="22" Value="F2" Duration="8" Instrument="tight triangle kick"
				Note Time="30" Value="F2" Duration="2" Instrument="tight triangle kick"
				Note Time="32" Value="F2" Duration="14" Instrument="tight triangle kick"
				Note Time="46" Value="F2" Duration="2" Instrument="tight triangle kick"
				Note Time="48" Value="F2" Duration="3" Instrument="tight triangle kick"
				Note Time="51" Value="F2" Duration="3" Instrument="tight triangle kick"
				Note Time="54" Value="F2" Duration="10" Instrument="tight triangle kick"
			Pattern Name="03" Color="ffff94"
				Note Time="0" Value="E3" Duration="4" Instrument="triangle drums" CutDelay="8"
				Note Time="4" Value="A3" Duration="5" Instrument="triangle drums"
				Note Time="10" Value="E3" Duration="2" Instrument="triangle drums" CutDelay="8"
				Note Time="12" Value="A3" Duration="4" Instrument="triangle drums"
				Note Time="16" Value="E3" Duration="4" Instrument="triangle drums" CutDelay="8"
				Note Time="20" Value="A3" Duration="2" Instrument="triangle drums"
				Note Time="22" Value="E3" Duration="4" Instrument="triangle drums" CutDelay="8"
				Note Time="26" Value="E3" Duration="2" Instrument="triangle drums" CutDelay="8"
				Note Time="28" Value="A3" Duration="4" Instrument="triangle drums"
				Note Time="32" Value="E3" Duration="4" Instrument="triangle drums" CutDelay="8"
				Note Time="36" Value="A3" Duration="5" Instrument="triangle drums"
				Note Time="42" Value="E3" Duration="2" Instrument="triangle drums" CutDelay="8"
				Note Time="44" Value="A3" Duration="5" Instrument="triangle drums"
				Note Time="50" Value="E3" Duration="2" Instrument="triangle drums" CutDelay="8"
				Note Time="52" Value="A3" Duration="2" Instrument="triangle drums"
				Note Time="54" Value="E3" Duration="4" Instrument="triangle drums" CutDelay="8"
				Note Time="58" Value="E3" Duration="1" Instrument="triangle drums"
				Note Time="59" Value="E3" Duration="1" Instrument="triangle drums"
				Note Time="60" Value="A3" Duration="4" Instrument="triangle drums"
			Pattern Name="06" Color="3cd2c4"
				Note Time="0" Value="E3" Duration="4" Instrument="triangle drums" CutDelay="8"
				Note Time="4" Value="A3" Duration="4" Instrument="triangle drums"
				Note Time="8" Value="E3" Duration="2" Instrument="triangle drums"
				Note Time="10" Value="E3" Duration="2" Instrument="triangle drums" CutDelay="8"
				Note Time="12" Value="A3" Duration="4" Instrument="triangle drums"
				Note Time="16" Value="E3" Duration="4" Instrument="triangle drums" CutDelay="8"
				Note Time="20" Value="A3" Duration="2" Instrument="triangle drums"
				Note Time="22" Value="E3" Duration="2" Instrument="triangle drums" CutDelay="8"
				Note Time="24" Value="E3" Duration="2" Instrument="triangle drums"
				Note Time="26" Value="E3" Duration="2" Instrument="triangle drums" CutDelay="8"
				Note Time="28" Value="A3" Duration="4" Instrument="triangle drums"
				Note Time="32" Value="E3" Duration="4" Instrument="triangle drums" CutDelay="8"
				Note Time="36" Value="A3" Duration="4" Instrument="triangle drums"
				Note Time="40" Value="E3" Duration="2" Instrument="triangle drums"
				Note Time="42" Value="E3" Duration="2" Instrument="triangle drums" CutDelay="8"
				Note Time="44" Value="A3" Duration="4" Instrument="triangle drums"
				Note Time="48" Value="D5" Duration="2" Instrument="triangle pluck 3"
				Note Time="50" Value="E3" Duration="2" Instrument="triangle drums" CutDelay="8"
				Note Time="52" Value="A3" Duration="2" Instrument="triangle drums" CutDelay="3"
				Note Time="54" Value="E3" Duration="2" Instrument="triangle drums" CutDelay="8"
				Note Time="56" Value="D5" Duration="2" Instrument="triangle pluck 3"
				Note Time="58" Value="E3" Duration="1" Instrument="triangle drums"
				Note Time="59" Value="E3" Duration="1" Instrument="triangle drums"
				Note Time="60" Value="A3" Duration="2" Instrument="triangle drums" CutDelay="3"
				Note Time="62" Value="D6" Duration="2" Instrument="triangle pluck 2"
			Pattern Name="07" Color="7585e7"
				Note Time="0" Value="E3" Duration="2" Instrument="triangle drums" CutDelay="8"
				Note Time="2" Value="D6" Duration="2" Instrument="triangle pluck 2"
				Note Time="4" Value="A3" Duration="4" Instrument="triangle drums"
				Note Time="8" Value="D5" Duration="2" Instrument="triangle pluck 3"
				Note Time="10" Value="E3" Duration="2" Instrument="triangle drums"
				Note Time="12" Value="A3" Duration="4" Instrument="triangle drums"
				Note Time="16" Value="E3" Duration="2" Instrument="triangle drums"
				Note Time="18" Value="C6" Duration="2" Instrument="triangle pluck 2"
				Note Time="20" Value="A3" Duration="4" Instrument="triangle drums"
				Note Time="24" Value="A4" Duration="2" Instrument="triangle pluck 3"
				Note Time="26" Value="E3" Duration="2" Instrument="triangle drums"
				Note Time="28" Value="A3" Duration="4" Instrument="triangle drums"
				Note Time="32" Value="E3" Duration="2" Instrument="triangle drums"
				Note Time="34" Value="B5" Duration="2" Instrument="triangle pluck 2"
				Note Time="36" Value="A3" Duration="4" Instrument="triangle drums"
				Note Time="40" Value="B4" Duration="2" Instrument="triangle pluck 3"
				Note Time="42" Value="E3" Duration="2" Instrument="triangle drums"
				Note Time="44" Value="A3" Duration="4" Instrument="triangle drums"
				Note Time="48" Value="D5" Duration="2" Instrument="triangle pluck 3"
				Note Time="50" Value="E3" Duration="2" Instrument="triangle drums"
				Note Time="52" Value="A3" Duration="4" Instrument="triangle drums"
				Note Time="56" Value="D5" Duration="2" Instrument="triangle pluck 3"
				Note Time="58" Value="E3" Duration="1" Instrument="triangle drums"
				Note Time="59" Value="E3" Duration="1" Instrument="triangle drums"
				Note Time="60" Value="A3" Duration="2" Instrument="triangle drums" CutDelay="3"
				Note Time="62" Value="B5" Duration="2" Instrument="triangle pluck 2"
			Pattern Name="04" Color="ff6b6b"
				Note Time="0" Value="E3" Duration="1" Instrument="triangle drums" CutDelay="8"
				Note Time="4" Value="A3" Duration="4" Instrument="triangle drums"
				Note Time="10" Value="E3" Duration="1" Instrument="triangle drums" CutDelay="8"
				Note Time="12" Value="A3" Duration="4" Instrument="triangle drums"
				Note Time="16" Value="E3" Duration="1" Instrument="triangle drums" CutDelay="8"
				Note Time="20" Value="A3" Duration="2" Instrument="triangle drums"
				Note Time="22" Value="E3" Duration="1" Instrument="triangle drums" CutDelay="8"
				Note Time="26" Value="E3" Duration="1" Instrument="triangle drums" CutDelay="8"
				Note Time="28" Value="A3" Duration="4" Instrument="triangle drums"
				Note Time="32" Value="E3" Duration="1" Instrument="triangle drums" CutDelay="8"
				Note Time="36" Value="A3" Duration="4" Instrument="triangle drums"
				Note Time="42" Value="E3" Duration="1" Instrument="triangle drums" CutDelay="8"
				Note Time="44" Value="A3" Duration="4" Instrument="triangle drums"
				Note Time="50" Value="E3" Duration="1" Instrument="triangle drums" CutDelay="8"
				Note Time="52" Value="A3" Duration="2" Instrument="triangle drums"
				Note Time="54" Value="E3" Duration="1" Instrument="triangle drums" CutDelay="8"
				Note Time="58" Value="E3" Duration="1" Instrument="triangle drums" CutDelay="8"
				Note Time="59" Value="E3" Duration="1" Instrument="triangle drums" CutDelay="8"
				Note Time="60" Value="A3" Duration="2" Instrument="triangle drums"
				Note Time="62" Value="G6" Duration="2" Instrument="blank"
			Pattern Name="05" Color="ffdc3c"
				Note Time="0" Value="E3" Duration="1" Instrument="triangle drums" CutDelay="8"
				Note Time="4" Value="A3" Duration="4" Instrument="triangle drums"
				Note Time="10" Value="E3" Duration="1" Instrument="triangle drums" CutDelay="8"
				Note Time="12" Value="A3" Duration="4" Instrument="triangle drums"
				Note Time="16" Value="E3" Duration="1" Instrument="triangle drums" CutDelay="8"
				Note Time="20" Value="A3" Duration="2" Instrument="triangle drums"
				Note Time="22" Value="E3" Duration="1" Instrument="triangle drums" CutDelay="8"
				Note Time="26" Value="E3" Duration="1" Instrument="triangle drums" CutDelay="8"
				Note Time="28" Value="A3" Duration="4" Instrument="triangle drums"
				Note Time="32" Value="A3" Duration="2" Instrument="triangle drums"
				Note Time="34" Value="E3" Duration="1" Instrument="triangle drums" CutDelay="8"
				Note Time="35" CutDelay="4"
				Note Time="36" Value="D4" Duration="1" Instrument="blank"
				Note Time="37" Value="A3" Duration="1" Instrument="triangle drums"
				Note Time="38" Value="A3" Duration="2" Instrument="triangle drums"
				Note Time="40" Value="E3" Duration="1" Instrument="triangle drums" CutDelay="8"
				Note Time="41" CutDelay="4"
				Note Time="42" Value="F4" Duration="1" Instrument="blank"
				Note Time="43" Value="A3" Duration="1" Instrument="triangle drums"
				Note Time="44" Value="A3" Duration="2" Instrument="triangle drums"
				Note Time="46" Value="E3" Duration="1" Instrument="triangle drums" CutDelay="8"
				Note Time="47" CutDelay="4"
				Note Time="48" Value="G4" Duration="1" Instrument="blank"
				Note Time="49" Value="A3" Duration="1" Instrument="triangle drums"
				Note Time="50" Value="A3" Duration="2" Instrument="triangle drums"
				Note Time="52" Value="E3" Duration="1" Instrument="triangle drums" CutDelay="8"
				Note Time="53" CutDelay="4"
				Note Time="54" Value="A4" Duration="2" Instrument="blank"
				Note Time="55" CutDelay="4"
				Note Time="56" Value="A3" Duration="2" Instrument="triangle drums"
				Note Time="58" Value="E3" Duration="1" Instrument="triangle drums" CutDelay="8"
				Note Time="60" Value="A3" Duration="1" Instrument="triangle drums"
				Note Time="61" Value="A3" Duration="1" Instrument="triangle drums"
				Note Time="62" Value="A3" Duration="1" Instrument="triangle drums"
				Note Time="63" Value="A3" Duration="1" Instrument="triangle drums"
			Pattern Name="0C" Color="6ab96e"
				Note Time="0" Value="C4" Duration="2" Instrument="triangle drums"
			PatternInstance Time="1" Pattern="09"
			PatternInstance Time="2" Pattern="0A"
			PatternInstance Time="3" Pattern="0B"
			PatternInstance Time="4" Pattern="01"
			PatternInstance Time="5" Pattern="02"
			PatternInstance Time="6" Pattern="0D"
			PatternInstance Time="7" Pattern="0E"
			PatternInstance Time="8" Pattern="03"
			PatternInstance Time="9" Pattern="06"
			PatternInstance Time="10" Pattern="07"
			PatternInstance Time="11" Pattern="07"
			PatternInstance Time="12" Pattern="0E"
			PatternInstance Time="13" Pattern="0B"
			PatternInstance Time="14" Pattern="04"
			PatternInstance Time="15" Pattern="05"
			PatternInstance Time="16" Pattern="0C"
		Channel Type="Noise"
			Pattern Name="05" Color="ff7cb6"
				Note Time="0" Value="F#3" Duration="4" Instrument="cymbal" Volume="15"
				Note Time="4" Value="G#3" Duration="2" Instrument="rel hats" Volume="15" VolumeSlideTarget="0"
				Note Time="6" Value="A#3" Duration="2" Instrument="rel hats" Volume="15" VolumeSlideTarget="0"
				Note Time="8" Value="G#3" Duration="2" Instrument="rel hats" Volume="15" VolumeSlideTarget="0"
				Note Time="10" Value="A#3" Duration="2" Instrument="rel hats" Volume="15" VolumeSlideTarget="0"
				Note Time="12" Value="G#3" Duration="2" Instrument="rel hats" Volume="15" VolumeSlideTarget="0"
				Note Time="14" Value="A#3" Duration="2" Instrument="rel hats" Volume="15" VolumeSlideTarget="0"
				Note Time="16" Value="G2" Duration="2" Instrument="kick" Volume="15" VolumeSlideTarget="0"
				Note Time="18" Value="A#3" Duration="2" Instrument="rel hats" Volume="15" VolumeSlideTarget="0"
				Note Time="20" Value="G#3" Duration="2" Instrument="rel hats" Volume="15" VolumeSlideTarget="0"
				Note Time="22" Value="A#3" Duration="2" Instrument="rel hats" Volume="15" VolumeSlideTarget="0"
				Note Time="24" Value="G#3" Duration="2" Instrument="rel hats" Volume="15" VolumeSlideTarget="0"
				Note Time="26" Value="A#3" Duration="2" Instrument="rel hats" Volume="15" VolumeSlideTarget="0"
				Note Time="28" Value="G#3" Duration="2" Instrument="rel hats" Volume="15" VolumeSlideTarget="0"
				Note Time="30" Value="A#3" Duration="2" Instrument="rel hats" Volume="15" VolumeSlideTarget="0"
				Note Time="32" Value="G2" Duration="2" Instrument="kick" Volume="15" VolumeSlideTarget="0"
				Note Time="34" Value="A#3" Duration="2" Instrument="rel hats" Volume="15" VolumeSlideTarget="0"
				Note Time="36" Value="G#3" Duration="2" Instrument="rel hats" Volume="15" VolumeSlideTarget="0"
				Note Time="38" Value="A#3" Duration="2" Instrument="rel hats" Volume="15" VolumeSlideTarget="0"
				Note Time="40" Value="G#3" Duration="2" Instrument="rel hats" Volume="15" VolumeSlideTarget="0"
				Note Time="42" Value="A#3" Duration="2" Instrument="rel hats" Volume="15" VolumeSlideTarget="0"
				Note Time="44" Value="G#3" Duration="2" Instrument="rel hats" Volume="15" VolumeSlideTarget="0"
				Note Time="46" Value="A#3" Duration="2" Instrument="rel hats" Volume="15" VolumeSlideTarget="0"
				Note Time="48" Value="G2" Duration="2" Instrument="kick" Volume="15" VolumeSlideTarget="0"
				Note Time="50" Value="A#3" Duration="2" Instrument="rel hats" Volume="15" VolumeSlideTarget="0"
				Note Time="52" Value="G#3" Duration="2" Instrument="rel hats" Volume="15" VolumeSlideTarget="0"
				Note Time="54" Value="A#3" Duration="2" Instrument="rel hats" Volume="15" VolumeSlideTarget="0"
				Note Time="56" Value="G#3" Duration="2" Instrument="rel hats" Volume="15" VolumeSlideTarget="0"
				Note Time="58" Value="A#3" Duration="2" Instrument="rel hats" Volume="15" VolumeSlideTarget="0"
				Note Time="60" Value="G#3" Duration="4" Instrument="blank" Volume="0" VolumeSlideTarget="11"
			Pattern Name="07" Color="ffe362"
				Note Time="0" Value="F#3" Duration="4" Instrument="cymbal" Volume="15"
				Note Time="4" Value="G#3" Duration="2" Instrument="rel hats" Volume="15" VolumeSlideTarget="0"
				Note Time="6" Value="A#3" Duration="2" Instrument="rel hats" Volume="15" VolumeSlideTarget="0"
				Note Time="8" Value="G#3" Duration="2" Instrument="rel hats" Volume="15" VolumeSlideTarget="0"
				Note Time="10" Value="A#3" Duration="2" Instrument="rel hats" Volume="15" VolumeSlideTarget="0"
				Note Time="12" Value="G#3" Duration="2" Instrument="rel hats" Volume="15" VolumeSlideTarget="0"
				Note Time="14" Value="A#3" Duration="2" Instrument="rel hats" Volume="15" VolumeSlideTarget="0"
				Note Time="16" Value="G2" Duration="2" Instrument="kick" Volume="15" VolumeSlideTarget="0"
				Note Time="18" Value="A#3" Duration="2" Instrument="rel hats" Volume="15" VolumeSlideTarget="0"
				Note Time="20" Value="G#3" Duration="2" Instrument="rel hats" Volume="15" VolumeSlideTarget="0"
				Note Time="22" Value="A#3" Duration="2" Instrument="rel hats" Volume="15" VolumeSlideTarget="0"
				Note Time="24" Value="G#3" Duration="2" Instrument="rel hats" Volume="15" VolumeSlideTarget="0"
				Note Time="26" Value="A#3" Duration="2" Instrument="rel hats" Volume="15" VolumeSlideTarget="0"
				Note Time="28" Value="G#3" Duration="2" Instrument="rel hats" Volume="15" VolumeSlideTarget="0"
				Note Time="30" Value="A#3" Duration="2" Instrument="rel hats" Volume="15" VolumeSlideTarget="0"
				Note Time="32" Value="G2" Duration="2" Instrument="kick" Volume="15" VolumeSlideTarget="0"
				Note Time="34" Value="A#3" Duration="2" Instrument="rel hats" Volume="15" VolumeSlideTarget="0"
				Note Time="36" Value="G#3" Duration="2" Instrument="rel hats" Volume="15" VolumeSlideTarget="0"
				Note Time="38" Value="A#3" Duration="2" Instrument="rel hats" Volume="15" VolumeSlideTarget="0"
				Note Time="40" Value="G#3" Duration="2" Instrument="rel hats" Volume="15" VolumeSlideTarget="0"
				Note Time="42" Value="A#3" Duration="2" Instrument="rel hats" Volume="15" VolumeSlideTarget="0"
				Note Time="44" Value="G#3" Duration="2" Instrument="rel hats" Volume="15" VolumeSlideTarget="0"
				Note Time="46" Value="A#3" Duration="2" Instrument="rel hats" Volume="15" VolumeSlideTarget="0"
				Note Time="48" Value="G2" Duration="12" Instrument="kick" Volume="15" VolumeSlideTarget="0"
				Note Time="50" Volume="0"
				Note Time="60" Value="G#3" Duration="4" Instrument="blank" Volume="1" VolumeSlideTarget="12"
			Pattern Name="01" Color="c7ff86"
				Note Time="0" Value="G3" Duration="4" Instrument="cymbal" Volume="15"
				Note Time="4" Value="G2" Duration="2" Instrument="snare"
				Note Time="6" Value="F#3" Duration="2" Instrument="hat"
				Note Time="8" Value="G#3" Duration="2" Instrument="hat"
				Note Time="10" Value="G2" Duration="2" Instrument="kick"
				Note Time="12" Value="G2" Duration="2" Instrument="snare"
				Note Time="14" Value="F#3" Duration="1" Instrument="hat"
				Note Time="15" Value="F#3" Duration="1" Instrument="hat"
				Note Time="16" Value="G2" Duration="2" Instrument="kick"
				Note Time="18" Value="F#3" Duration="2" Instrument="hat"
				Note Time="20" Value="G2" Duration="2" Instrument="snare"
				Note Time="22" Value="G2" Duration="2" Instrument="kick"
				Note Time="24" Value="F#3" Duration="2" Instrument="hat"
				Note Time="26" Value="G2" Duration="2" Instrument="kick"
				Note Time="28" Value="G2" Duration="2" Instrument="snare"
				Note Time="30" Value="F#3" Duration="1" Instrument="hat"
				Note Time="31" Value="F#3" Duration="1" Instrument="hat"
				Note Time="32" Value="G2" Duration="2" Instrument="kick"
				Note Time="34" Value="F#3" Duration="2" Instrument="hat"
				Note Time="36" Value="G2" Duration="2" Instrument="snare"
				Note Time="38" Value="F#3" Duration="2" Instrument="hat"
				Note Time="40" Value="F#3" Duration="2" Instrument="hat"
				Note Time="42" Value="G2" Duration="2" Instrument="kick"
				Note Time="44" Value="G2" Duration="2" Instrument="snare"
				Note Time="46" Value="F#3" Duration="1" Instrument="hat"
				Note Time="47" Value="G#3" Duration="1" Instrument="hat"
				Note Time="48" Value="F#3" Duration="2" Instrument="hat"
				Note Time="50" Value="G2" Duration="2" Instrument="kick"
				Note Time="52" Value="G2" Duration="2" Instrument="snare"
				Note Time="54" Value="G2" Duration="2" Instrument="kick"
				Note Time="56" Value="F#3" Duration="2" Instrument="hat"
				Note Time="58" Value="G2" Duration="1" Instrument="kick"
				Note Time="59" Value="G2" Duration="1" Instrument="kick"
				Note Time="60" Value="G2" Duration="2" Instrument="snare"
				Note Time="62" Value="F#3" Duration="1" Instrument="hat"
				Note Time="63" Value="G#3" Duration="1" Instrument="hat"
			Pattern Name="02" Color="3fd7ff"
				Note Time="0" Value="G3" Duration="4" Instrument="cymbal"
				Note Time="4" Value="G2" Duration="2" Instrument="snare"
				Note Time="6" Value="F#3" Duration="2" Instrument="hat"
				Note Time="8" Value="G#3" Duration="2" Instrument="hat"
				Note Time="10" Value="G2" Duration="2" Instrument="kick"
				Note Time="12" Value="G2" Duration="2" Instrument="snare"
				Note Time="14" Value="F#3" Duration="1" Instrument="hat"
				Note Time="15" Value="F#3" Duration="1" Instrument="hat"
				Note Time="16" Value="G2" Duration="2" Instrument="kick"
				Note Time="18" Value="F#3" Duration="2" Instrument="hat"
				Note Time="20" Value="G2" Duration="2" Instrument="snare"
				Note Time="22" Value="G2" Duration="2" Instrument="kick"
				Note Time="24" Value="F#3" Duration="2" Instrument="hat"
				Note Time="26" Value="G2" Duration="2" Instrument="kick"
				Note Time="28" Value="G2" Duration="2" Instrument="snare"
				Note Time="30" Value="F#3" Duration="1" Instrument="hat"
				Note Time="31" Value="F#3" Duration="1" Instrument="hat"
				Note Time="32" Value="G2" Duration="2" Instrument="snare"
				Note Time="34" Value="G2" Duration="3" Instrument="kick"
				Note Time="37" Value="G2" Duration="1" Instrument="snare"
				Note Time="38" Value="G2" Duration="2" Instrument="snare"
				Note Time="40" Value="G2" Duration="3" Instrument="kick"
				Note Time="43" Value="G2" Duration="1" Instrument="snare"
				Note Time="44" Value="G2" Duration="2" Instrument="snare"
				Note Time="46" Value="G2" Duration="3" Instrument="kick"
				Note Time="49" Value="G2" Duration="1" Instrument="snare"
				Note Time="50" Value="G2" Duration="2" Instrument="snare"
				Note Time="52" Value="G2" Duration="4" Instrument="kick"
				Note Time="56" Value="G2" Duration="2" Instrument="snare"
				Note Time="58" Value="G2" Duration="2" Instrument="kick"
				Note Time="60" Value="G2" Duration="1" Instrument="snare"
				Note Time="61" Value="G2" Duration="1" Instrument="snare"
				Note Time="62" Value="G2" Duration="1" Instrument="snare"
				Note Time="63" Value="G2" Duration="1" Instrument="snare"
			Pattern Name="06" Color="b75bde"
				Note Time="0" Value="F3" Duration="4" Instrument="cymbal" Volume="15"
				Note Time="4" Value="F#3" Duration="2" Instrument="rel hats"
				Note Time="6" Value="G#3" Duration="2" Instrument="rel hats"
				Note Time="8" Value="F#3" Duration="2" Instrument="rel hats"
				Note Time="10" Value="G#3" Duration="2" Instrument="rel hats"
				Note Time="12" Value="F#3" Duration="2" Instrument="rel hats"
				Note Time="14" Value="G#3" Duration="2" Instrument="rel hats"
				Note Time="16" Value="G2" Duration="2" Instrument="kick"
				Note Time="18" Value="G#3" Duration="2" Instrument="rel hats"
				Note Time="20" Value="F#3" Duration="2" Instrument="rel hats"
				Note Time="22" Value="G#3" Duration="2" Instrument="rel hats"
				Note Time="24" Value="F#3" Duration="2" Instrument="rel hats"
				Note Time="26" Value="G#3" Duration="2" Instrument="rel hats"
				Note Time="28" Value="F#3" Duration="2" Instrument="rel hats"
				Note Time="30" Value="G2" Duration="2" Instrument="kick"
				Note Time="32" Value="G2" Duration="2" Instrument="kick"
				Note Time="34" Value="G#3" Duration="2" Instrument="rel hats"
				Note Time="36" Value="F#3" Duration="2" Instrument="rel hats"
				Note Time="38" Value="G#3" Duration="2" Instrument="rel hats"
				Note Time="40" Value="F#3" Duration="2" Instrument="rel hats"
				Note Time="42" Value="G#3" Duration="2" Instrument="rel hats"
				Note Time="44" Value="F#3" Duration="2" Instrument="rel hats"
				Note Time="46" Value="G#3" Duration="2" Instrument="rel hats"
				Note Time="48" Value="G2" Duration="2" Instrument="kick"
				Note Time="50" Value="G#3" Duration="2" Instrument="rel hats"
				Note Time="52" Value="F#3" Duration="2" Instrument="rel hats"
				Note Time="54" Value="G#3" Duration="2" Instrument="rel hats"
				Note Time="56" Value="F#3" Duration="2" Instrument="rel hats"
				Note Time="58" Value="G#3" Duration="2" Instrument="rel hats"
				Note Time="60" Value="G3" Duration="4" Instrument="blank" Volume="1" VolumeSlideTarget="15"
				Note Time="63" Volume="15"
			Pattern Name="03" Color="ebf067"
				Note Time="0" Value="G3" Duration="4" Instrument="cymbal" Volume="15"
				Note Time="4" Value="G2" Duration="2" Instrument="snare"
				Note Time="6" Value="F#3" Duration="2" Instrument="hat"
				Note Time="8" Value="G#3" Duration="2" Instrument="hat"
				Note Time="10" Value="G2" Duration="2" Instrument="kick"
				Note Time="12" Value="G2" Duration="2" Instrument="snare"
				Note Time="14" Value="F#3" Duration="1" Instrument="hat"
				Note Time="15" Value="F#3" Duration="1" Instrument="hat"
				Note Time="16" Value="G2" Duration="2" Instrument="kick"
				Note Time="18" Value="F#3" Duration="2" Instrument="hat"
				Note Time="20" Value="G2" Duration="2" Instrument="snare"
				Note Time="22" Value="G2" Duration="2" Instrument="kick"
				Note Time="24" Value="F#3" Duration="2" Instrument="hat"
				Note Time="26" Value="G2" Duration="2" Instrument="kick"
				Note Time="28" Value="G2" Duration="2" Instrument="snare"
				Note Time="30" Value="F#3" Duration="1" Instrument="hat"
				Note Time="31" Value="F#3" Duration="1" Instrument="hat"
				Note Time="32" Value="G2" Duration="2" Instrument="kick"
				Note Time="34" Value="F#3" Duration="2" Instrument="hat"
				Note Time="36" Value="G2" Duration="2" Instrument="snare"
				Note Time="38" Value="F#3" Duration="2" Instrument="hat"
				Note Time="40" Value="F#3" Duration="2" Instrument="hat"
				Note Time="42" Value="G2" Duration="2" Instrument="kick"
				Note Time="44" Value="G2" Duration="2" Instrument="snare"
				Note Time="46" Value="F#3" Duration="1" Instrument="hat"
				Note Time="47" Value="G#3" Duration="1" Instrument="hat"
				Note Time="48" Value="F#3" Duration="2" Instrument="hat"
				Note Time="50" Value="G2" Duration="2" Instrument="kick"
				Note Time="52" Value="G2" Duration="2" Instrument="snare"
				Note Time="54" Value="G2" Duration="2" Instrument="kick"
				Note Time="56" Value="F#3" Duration="2" Instrument="hat"
				Note Time="58" Value="G2" Duration="1" Instrument="kick"
				Note Time="59" Value="G2" Duration="1" Instrument="kick"
				Note Time="60" Value="G2" Duration="2" Instrument="snare"
				Note Time="62" Value="F#3" Duration="1" Instrument="hat"
				Note Time="63" Value="G#3" Duration="1" Instrument="hat"
			Pattern Name="0A" Color="dad960"
				Note Time="0" Value="G3" Duration="10" Instrument="cymbal"
			PatternInstance Time="1" Pattern="05"
			PatternInstance Time="2" Pattern="05"
			PatternInstance Time="3" Pattern="07"
			PatternInstance Time="4" Pattern="01"
			PatternInstance Time="5" Pattern="02"
			PatternInstance Time="6" Pattern="06"
			PatternInstance Time="7" Pattern="06"
			PatternInstance Time="8" Pattern="01"
			PatternInstance Time="9" Pattern="01"
			PatternInstance Time="10" Pattern="01"
			PatternInstance Time="11" Pattern="01"
			PatternInstance Time="12" Pattern="06"
			PatternInstance Time="13" Pattern="07"
			PatternInstance Time="14" Pattern="03"
			PatternInstance Time="15" Pattern="02"
			PatternInstance Time="16" Pattern="0A"
		Channel Type="DPCM"
			Pattern Name="01" Color="ba93fe"
				Note Time="0" Value="D3" Duration="2" Instrument="DMC: drums + bass"
				Note Time="2" Value="D3" Duration="2" Instrument="DMC: drums + bass"
				Note Time="4" Value="D3" Duration="2" Instrument="DMC: drums + bass"
				Note Time="6" Value="D3" Duration="2" Instrument="DMC: drums + bass"
				Note Time="8" Value="D3" Duration="2" Instrument="DMC: drums + bass"
				Note Time="10" Value="D3" Duration="2" Instrument="DMC: drums + bass"
				Note Time="12" Value="D3" Duration="2" Instrument="DMC: drums + bass"
				Note Time="14" Value="D3" Duration="2" Instrument="DMC: drums + bass"
				Note Time="16" Value="A3" Duration="2" Instrument="DMC: drums + bass"
				Note Time="18" Value="A3" Duration="2" Instrument="DMC: drums + bass"
				Note Time="20" Value="A3" Duration="2" Instrument="DMC: drums + bass"
				Note Time="22" Value="A3" Duration="2" Instrument="DMC: drums + bass"
				Note Time="24" Value="A3" Duration="2" Instrument="DMC: drums + bass"
				Note Time="26" Value="A3" Duration="2" Instrument="DMC: drums + bass"
				Note Time="28" Value="A3" Duration="2" Instrument="DMC: drums + bass"
				Note Time="30" Value="A3" Duration="2" Instrument="DMC: drums + bass"
				Note Time="32" Value="D3" Duration="2" Instrument="DMC: drums + bass"
				Note Time="34" Value="D3" Duration="2" Instrument="DMC: drums + bass"
				Note Time="36" Value="D3" Duration="2" Instrument="DMC: drums + bass"
				Note Time="38" Value="D3" Duration="2" Instrument="DMC: drums + bass"
				Note Time="40" Value="D3" Duration="2" Instrument="DMC: drums + bass"
				Note Time="42" Value="D3" Duration="2" Instrument="DMC: drums + bass"
				Note Time="44" Value="D3" Duration="2" Instrument="DMC: drums + bass"
				Note Time="46" Value="D3" Duration="2" Instrument="DMC: drums + bass"
				Note Time="48" Value="G3" Duration="2" Instrument="DMC: drums + bass"
				Note Time="50" Value="G3" Duration="2" Instrument="DMC: drums + bass"
				Note Time="52" Value="G3" Duration="2" Instrument="DMC: drums + bass"
				Note Time="54" Value="G3" Duration="2" Instrument="DMC: drums + bass"
				Note Time="56" Value="F3" Duration="2" Instrument="DMC: drums + bass"
				Note Time="58" Value="F3" Duration="2" Instrument="DMC: drums + bass"
				Note Time="60" Value="F3" Duration="2" Instrument="DMC: drums + bass"
				Note Time="62" Value="F3" Duration="2" Instrument="DMC: drums + bass"
			Pattern Name="08" Color="c9aa9f"
				Note Time="0" Value="D3" Duration="2" Instrument="DMC: drums + bass"
				Note Time="2" Value="D3" Duration="2" Instrument="DMC: drums + bass"
				Note Time="4" Value="D3" Duration="2" Instrument="DMC: drums + bass"
				Note Time="6" Value="D3" Duration="2" Instrument="DMC: drums + bass"
				Note Time="8" Value="D3" Duration="2" Instrument="DMC: drums + bass"
				Note Time="10" Value="D3" Duration="2" Instrument="DMC: drums + bass"
				Note Time="12" Value="D3" Duration="2" Instrument="DMC: drums + bass"
				Note Time="14" Value="D3" Duration="2" Instrument="DMC: drums + bass"
				Note Time="16" Value="A3" Duration="2" Instrument="DMC: drums + bass"
				Note Time="18" Value="A3" Duration="2" Instrument="DMC: drums + bass"
				Note Time="20" Value="A3" Duration="2" Instrument="DMC: drums + bass"
				Note Time="22" Value="A3" Duration="2" Instrument="DMC: drums + bass"
				Note Time="24" Value="A3" Duration="2" Instrument="DMC: drums + bass"
				Note Time="26" Value="A3" Duration="2" Instrument="DMC: drums + bass"
				Note Time="28" Value="A3" Duration="2" Instrument="DMC: drums + bass"
				Note Time="30" Value="A3" Duration="2" Instrument="DMC: drums + bass"
				Note Time="32" Value="D3" Duration="2" Instrument="DMC: drums + bass"
				Note Time="34" Value="D3" Duration="2" Instrument="DMC: drums + bass"
				Note Time="36" Value="D3" Duration="2" Instrument="DMC: drums + bass"
				Note Time="38" Value="D3" Duration="2" Instrument="DMC: drums + bass"
				Note Time="40" Value="D3" Duration="2" Instrument="DMC: drums + bass"
				Note Time="42" Value="D3" Duration="2" Instrument="DMC: drums + bass"
				Note Time="44" Value="D3" Duration="2" Instrument="DMC: drums + bass"
				Note Time="46" Value="D3" Duration="2" Instrument="DMC: drums + bass"
				Note Time="48" Value="G3" Duration="2" Instrument="DMC: drums + bass"
				Note Time="50" Value="G3" Duration="2" Instrument="DMC: drums + bass"
				Note Time="52" Value="G3" Duration="2" Instrument="DMC: drums + bass"
				Note Time="54" Value="G3" Duration="2" Instrument="DMC: drums + bass"
				Note Time="56" Value="G3" Duration="2" Instrument="DMC: drums + bass"
				Note Time="58" Value="G3" Duration="2" Instrument="DMC: drums + bass"
				Note Time="60" Value="G3" Duration="2" Instrument="DMC: drums + bass"
				Note Time="62" Value="G3" Duration="2" Instrument="DMC: drums + bass"
			Pattern Name="02" Color="ffff77"
				Note Time="0" Value="D3" Duration="2" Instrument="DMC: drums + bass"
				Note Time="2" Value="D3" Duration="2" Instrument="DMC: drums + bass"
				Note Time="4" Value="D3" Duration="2" Instrument="DMC: drums + bass"
				Note Time="6" Value="D3" Duration="2" Instrument="DMC: drums + bass"
				Note Time="8" Value="D3" Duration="2" Instrument="DMC: drums + bass"
				Note Time="10" Value="D3" Duration="2" Instrument="DMC: drums + bass"
				Note Time="12" Value="D3" Duration="2" Instrument="DMC: drums + bass"
				Note Time="14" Value="D3" Duration="2" Instrument="DMC: drums + bass"
				Note Time="16" Value="A3" Duration="2" Instrument="DMC: drums + bass"
				Note Time="18" Value="A3" Duration="2" Instrument="DMC: drums + bass"
				Note Time="20" Value="A3" Duration="2" Instrument="DMC: drums + bass"
				Note Time="22" Value="A3" Duration="2" Instrument="DMC: drums + bass"
				Note Time="24" Value="A3" Duration="2" Instrument="DMC: drums + bass"
				Note Time="26" Value="A3" Duration="2" Instrument="DMC: drums + bass"
				Note Time="28" Value="A3" Duration="2" Instrument="DMC: drums + bass"
				Note Time="30" Value="A3" Duration="2" Instrument="DMC: drums + bass"
				Note Time="32" Value="D3" Duration="2" Instrument="DMC: drums + bass"
				Note Time="34" Value="D3" Duration="2" Instrument="DMC: drums + bass"
				Note Time="36" Value="D3" Duration="2" Instrument="DMC: drums + bass"
				Note Time="38" Value="D3" Duration="2" Instrument="DMC: drums + bass"
				Note Time="40" Value="D3" Duration="2" Instrument="DMC: drums + bass"
				Note Time="42" Value="D3" Duration="2" Instrument="DMC: drums + bass"
				Note Time="44" Value="D3" Duration="2" Instrument="DMC: drums + bass"
				Note Time="46" Value="D3" Duration="18" Instrument="DMC: drums + bass"
			Pattern Name="03" Color="3cc5b7"
				Note Time="0" Value="D3" Duration="6" Instrument="DMC: drums + bass"
				Note Time="6" Value="A3" Duration="2" Instrument="DMC: drums + bass"
				Note Time="8" Value="C4" Duration="4" Instrument="DMC: drums + bass"
				Note Time="12" Value="D4" Duration="2" Instrument="DMC: drums + bass"
				Note Time="14" Value="A2" Duration="4" Instrument="DMC: drums + bass"
				Note Time="18" Value="A2" Duration="4" Instrument="DMC: drums + bass"
				Note Time="22" Value="E3" Duration="2" Instrument="DMC: drums + bass"
				Note Time="24" Value="G3" Duration="4" Instrument="DMC: drums + bass"
				Note Time="28" Value="A3" Duration="4" Instrument="DMC: drums + bass"
				Note Time="32" Value="D3" Duration="6" Instrument="DMC: drums + bass"
				Note Time="38" Value="A3" Duration="2" Instrument="DMC: drums + bass"
				Note Time="40" Value="C4" Duration="4" Instrument="DMC: drums + bass"
				Note Time="44" Value="D4" Duration="2" Instrument="DMC: drums + bass"
				Note Time="46" Value="G3" Duration="4" Instrument="DMC: drums + bass"
				Note Time="50" Value="G3" Duration="4" Instrument="DMC: drums + bass"
				Note Time="54" Value="D4" Duration="2" Instrument="DMC: drums + bass"
				Note Time="56" Value="F4" Duration="4" Instrument="DMC: drums + bass"
				Note Time="60" Value="G4" Duration="4" Instrument="DMC: drums + bass"
			Pattern Name="04" Color="6c7bdb"
				Note Time="0" Value="D3" Duration="6" Instrument="DMC: drums + bass"
				Note Time="6" Value="A3" Duration="2" Instrument="DMC: drums + bass"
				Note Time="8" Value="C4" Duration="4" Instrument="DMC: drums + bass"
				Note Time="12" Value="D4" Duration="2" Instrument="DMC: drums + bass"
				Note Time="14" Value="A2" Duration="4" Instrument="DMC: drums + bass"
				Note Time="18" Value="A2" Duration="4" Instrument="DMC: drums + bass"
				Note Time="22" Value="E3" Duration="2" Instrument="DMC: drums + bass"
				Note Time="24" Value="G3" Duration="4" Instrument="DMC: drums + bass"
				Note Time="28" Value="A3" Duration="4" Instrument="DMC: drums + bass"
				Note Time="32" Value="D3" Duration="2" Instrument="DMC: drums + bass"
				Note Time="34" Value="D3" Duration="4" Instrument="DMC: drums + bass"
				Note Time="38" Value="F3" Duration="2" Instrument="DMC: drums + bass"
				Note Time="40" Value="F3" Duration="4" Instrument="DMC: drums + bass"
				Note Time="44" Value="G3" Duration="2" Instrument="DMC: drums + bass"
				Note Time="46" Value="G3" Duration="4" Instrument="DMC: drums + bass"
				Note Time="50" Value="A3" Duration="2" Instrument="DMC: drums + bass"
				Note Time="52" Value="A3" Duration="4" Instrument="DMC: drums + bass"
				Note Time="56" Value="C4" Duration="4" Instrument="DMC: drums + bass"
				Note Time="60" Value="C#4" Duration="4" Instrument="DMC: drums + bass"
			Pattern Name="05" Color="ff6464"
				Note Time="0" Value="D3" Duration="6" Instrument="DMC: drums + bass"
				Note Time="6" Value="A3" Duration="2" Instrument="DMC: drums + bass"
				Note Time="14" Value="A2" Duration="8" Instrument="DMC: drums + bass"
				Note Time="22" Value="E3" Duration="2" Instrument="DMC: drums + bass"
				Note Time="32" Value="D3" Duration="6" Instrument="DMC: drums + bass"
				Note Time="38" Value="A3" Duration="2" Instrument="DMC: drums + bass"
				Note Time="46" Value="G3" Duration="8" Instrument="DMC: drums + bass"
				Note Time="54" Value="D4" Duration="2" Instrument="DMC: drums + bass"
			Pattern Name="06" Color="ffcb3c"
				Note Time="0" Value="D3" Duration="6" Instrument="DMC: drums + bass"
				Note Time="6" Value="A3" Duration="2" Instrument="DMC: drums + bass"
				Note Time="14" Value="A2" Duration="8" Instrument="DMC: drums + bass"
				Note Time="22" Value="E3" Duration="2" Instrument="DMC: drums + bass"
				Note Time="32" Value="D3" Duration="6" Instrument="DMC: drums + bass"
				Note Time="38" Value="A3" Duration="2" Instrument="DMC: drums + bass"
				Note Time="46" Value="D3" Duration="8" Instrument="DMC: drums + bass"
				Note Time="54" Value="D4" Duration="2" Instrument="DMC: drums + bass"
				Note Time="58" Value="C4" Duration="2" Instrument="DMC: drums + bass"
				Note Time="60" Value="D4" Duration="2" Instrument="DMC: drums + bass"
				Note Time="62" Value="C4" Duration="2" Instrument="DMC: drums + bass"
			Pattern Name="07" Color="bdffc0"
				Note Time="0" Value="D3" Duration="4" Instrument="DMC: drums + bass"
				Note Time="4" Value="A3" Duration="2" Instrument="DMC: drums + bass"
				Note Time="10" Value="D3" Duration="2" Instrument="DMC: drums + bass"
				Note Time="12" Value="C4" Duration="2" Instrument="DMC: drums + bass"
				Note Time="16" Value="D3" Duration="4" Instrument="DMC: drums + bass"
				Note Time="20" Value="C4" Duration="2" Instrument="DMC: drums + bass"
				Note Time="26" Value="D3" Duration="2" Instrument="DMC: drums + bass"
				Note Time="28" Value="B3" Duration="2" Instrument="DMC: drums + bass"
				Note Time="32" Value="G3" Duration="4" Instrument="DMC: drums + bass"
				Note Time="36" Value="B3" Duration="2" Instrument="DMC: drums + bass"
				Note Time="42" Value="G3" Duration="2" Instrument="DMC: drums + bass"
				Note Time="44" Value="D4" Duration="2" Instrument="DMC: drums + bass"
				Note Time="48" Value="D3" Duration="4" Instrument="DMC: drums + bass"
				Note Time="52" Value="G3" Duration="2" Instrument="DMC: drums + bass"
				Note Time="58" Value="D3" Duration="2" Instrument="DMC: drums + bass"
				Note Time="60" Value="B3" Duration="2" Instrument="DMC: drums + bass"
			Pattern Name="0B" Color="7ee1ff"
				Note Time="0" Value="D3" Duration="4" Instrument="DMC: drums + bass"
				Note Time="4" Value="A3" Duration="2" Instrument="DMC: drums + bass"
				Note Time="10" Value="D3" Duration="2" Instrument="DMC: drums + bass"
				Note Time="12" Value="C4" Duration="2" Instrument="DMC: drums + bass"
				Note Time="16" Value="D3" Duration="4" Instrument="DMC: drums + bass"
				Note Time="20" Value="C4" Duration="2" Instrument="DMC: drums + bass"
				Note Time="26" Value="D3" Duration="2" Instrument="DMC: drums + bass"
				Note Time="28" Value="B3" Duration="2" Instrument="DMC: drums + bass"
				Note Time="32" Value="G3" Duration="4" Instrument="DMC: drums + bass"
				Note Time="36" Value="B3" Duration="2" Instrument="DMC: drums + bass"
				Note Time="42" Value="G3" Duration="2" Instrument="DMC: drums + bass"
				Note Time="44" Value="D4" Duration="2" Instrument="DMC: drums + bass"
				Note Time="48" Value="D4" Duration="4" Instrument="DMC: drums + bass"
				Note Time="52" Value="G3" Duration="2" Instrument="DMC: drums + bass"
				Note Time="58" Value="F3" Duration="2" Instrument="DMC: drums + bass"
				Note Time="60" Value="G3" Duration="2" Instrument="DMC: drums + bass"
			Pattern Name="0C" Color="ff5a9f"
				Note Time="0" Value="D3" Duration="4" Instrument="DMC: drums + bass"
				Note Time="4" Value="A3" Duration="2" Instrument="DMC: drums + bass"
				Note Time="10" Value="D3" Duration="2" Instrument="DMC: drums + bass"
				Note Time="12" Value="C4" Duration="2" Instrument="DMC: drums + bass"
				Note Time="16" Value="D3" Duration="4" Instrument="DMC: drums + bass"
				Note Time="20" Value="C4" Duration="2" Instrument="DMC: drums + bass"
				Note Time="26" Value="D3" Duration="2" Instrument="DMC: drums + bass"
				Note Time="28" Value="B3" Duration="2" Instrument="DMC: drums + bass"
				Note Time="32" Value="G3" Duration="4" Instrument="DMC: drums + bass"
				Note Time="36" Value="B3" Duration="2" Instrument="DMC: drums + bass"
				Note Time="42" Value="G3" Duration="2" Instrument="DMC: drums + bass"
				Note Time="44" Value="B3" Duration="2" Instrument="DMC: drums + bass"
				Note Time="46" Value="C#4" Duration="2" Instrument="DMC: drums + bass"
				Note Time="48" Value="D4" Duration="4" Instrument="DMC: drums + bass"
				Note Time="52" Value="G3" Duration="2" Instrument="DMC: drums + bass"
			Pattern Name="0A" Color="88eb8c"
				Note Time="0" Value="D3" Duration="6" Instrument="DMC: drums + bass"
				Note Time="6" Value="A3" Duration="2" Instrument="DMC: drums + bass"
				Note Time="8" Value="C4" Duration="4" Instrument="DMC: drums + bass"
				Note Time="12" Value="D4" Duration="2" Instrument="DMC: drums + bass"
				Note Time="14" Value="A2" Duration="4" Instrument="DMC: drums + bass"
				Note Time="18" Value="A2" Duration="4" Instrument="DMC: drums + bass"
				Note Time="22" Value="E3" Duration="2" Instrument="DMC: drums + bass"
				Note Time="24" Value="G3" Duration="4" Instrument="DMC: drums + bass"
				Note Time="28" Value="A3" Duration="4" Instrument="DMC: drums + bass"
				Note Time="32" Value="D3" Duration="6" Instrument="DMC: drums + bass"
				Note Time="38" Value="A3" Duration="2" Instrument="DMC: drums + bass"
				Note Time="40" Value="C4" Duration="4" Instrument="DMC: drums + bass"
				Note Time="44" Value="D4" Duration="2" Instrument="DMC: drums + bass"
				Note Time="46" Value="G3" Duration="4" Instrument="DMC: drums + bass"
				Note Time="50" Value="G3" Duration="4" Instrument="DMC: drums + bass"
				Note Time="54" Value="D4" Duration="2" Instrument="DMC: drums + bass"
				Note Time="56" Value="F4" Duration="4" Instrument="DMC: drums + bass"
				Note Time="60" Value="G4" Duration="4" Instrument="DMC: drums + bass"
			Pattern Name="09" Color="3ec4ff"
				Note Time="0" Value="D4" Duration="13" Instrument="DMC: drums + bass"
			PatternInstance Time="1" Pattern="01"
			PatternInstance Time="2" Pattern="08"
			PatternInstance Time="3" Pattern="02"
			PatternInstance Time="4" Pattern="03"
			PatternInstance Time="5" Pattern="04"
			PatternInstance Time="6" Pattern="05"
			PatternInstance Time="7" Pattern="06"
			PatternInstance Time="8" Pattern="07"
			PatternInstance Time="9" Pattern="0B"
			PatternInstance Time="10" Pattern="0C"
			PatternInstance Time="11" Pattern="0B"
			PatternInstance Time="12" Pattern="08"
			PatternInstance Time="13" Pattern="02"
			PatternInstance Time="14" Pattern="0A"
			PatternInstance Time="15" Pattern="04"
			PatternInstance Time="16" Pattern="09"
	Song Name="Dry Out" Color="ff6b6b" Folder="Official music used in the game" Length="14" LoopPoint="-1" PatternLength="64" BeatLength="4" FamiTrackerTempo="145" FamiTrackerSpeed="6"
		PatternCustomSettings Time="4" Length="16"
		PatternCustomSettings Time="13" Length="4"
		Channel Type="Square1"
			Pattern Name="00" Color="ff8655"
				Note Time="0" Value="F2" Duration="1" Instrument="echo" Volume="15" DutyCycle="2"
				Note Time="1" Value="F2" Duration="1" Instrument="echo"
				Note Time="2" Value="F3" Duration="1" Instrument="echo"
				Note Time="3" Value="F3" Duration="1" Instrument="echo"
				Note Time="4" Value="D#3" Duration="1" Instrument="echo"
				Note Time="5" Value="D#3" Duration="1" Instrument="echo"
				Note Time="6" Value="C3" Duration="1" Instrument="echo"
				Note Time="7" Value="C3" Duration="3" Instrument="echo"
				Note Time="10" Value="G#2" Duration="1" Instrument="echo"
				Note Time="11" Value="G#2" Duration="1" Instrument="echo"
				Note Time="12" Value="G2" Duration="1" Instrument="echo"
				Note Time="13" Value="G2" Duration="1" Instrument="echo"
				Note Time="14" Value="D#2" Duration="1" Instrument="echo"
				Note Time="15" Value="D#2" Duration="1" Instrument="echo"
				Note Time="16" Value="F2" Duration="1" Instrument="echo"
				Note Time="17" Value="F2" Duration="2" Instrument="echo"
				Note Time="19" Value="D#3" Duration="1" Instrument="echo"
				Note Time="20" Value="D#3" Duration="2" Instrument="echo"
				Note Time="22" Value="C3" Duration="1" Instrument="echo"
				Note Time="23" Value="C3" Duration="3" Instrument="echo"
				Note Time="26" Value="C2" Duration="1" Instrument="echo"
				Note Time="27" Value="C2" Duration="1" Instrument="echo"
				Note Time="28" Value="D#2" Duration="1" Instrument="echo"
				Note Time="29" Value="D#2" Duration="1" Instrument="echo"
				Note Time="30" Value="G2" Duration="1" Instrument="echo"
				Note Time="31" Value="G2" Duration="1" Instrument="echo"
				Note Time="32" Value="F2" Duration="1" Instrument="echo"
				Note Time="33" Value="F2" Duration="1" Instrument="echo"
				Note Time="34" Value="D#3" Duration="1" Instrument="echo"
				Note Time="35" Value="D#3" Duration="1" Instrument="echo"
				Note Time="36" Value="F3" Duration="1" Instrument="echo"
				Note Time="37" Value="F3" Duration="1" Instrument="echo"
				Note Time="38" Value="C3" Duration="1" Instrument="echo"
				Note Time="39" Value="C3" Duration="3" Instrument="echo"
				Note Time="42" Value="G2" Duration="1" Instrument="echo"
				Note Time="43" Value="G2" Duration="1" Instrument="echo"
				Note Time="44" Value="G#2" Duration="1" Instrument="echo"
				Note Time="45" Value="G#2" Duration="1" Instrument="echo"
				Note Time="46" Value="A#2" Duration="1" Instrument="echo"
				Note Time="47" Value="A#2" Duration="1" Instrument="echo"
				Note Time="48" Value="D#3" Duration="1" Instrument="echo"
				Note Time="49" Value="D#3" Duration="2" Instrument="echo"
				Note Time="51" Value="F3" Duration="1" Instrument="echo"
				Note Time="52" Value="F3" Duration="2" Instrument="echo"
				Note Time="54" Value="C3" Duration="1" Instrument="echo"
				Note Time="55" Value="C3" Duration="3" Instrument="echo"
				Note Time="58" Value="F3" Duration="1" Instrument="echo"
				Note Time="59" Value="F3" Duration="1" Instrument="echo"
				Note Time="60" Value="G#2" Duration="1" Instrument="echo"
				Note Time="61" Value="G#2" Duration="1" Instrument="echo"
				Note Time="62" Value="G2" Duration="1" Instrument="echo"
				Note Time="63" Value="G2" Duration="1" Instrument="echo"
			Pattern Name="01" Color="dad960"
				Note Time="0" Value="F2" Duration="1" Instrument="echo"
				Note Time="1" Value="F2" Duration="15" Instrument="echo"
			Pattern Name="3" Color="ffffb2"
				Note Time="3" Value="F2" Duration="1" Instrument="blank" SlideTarget="F1" Volume="3"
				Note Time="4" Value="F1" Duration="3" Instrument="blank" Attack="False"
				Note Time="5" Attack="False" Volume="1"
				Note Time="7" Value="F1" Duration="1" Instrument="blank" SlideTarget="F1" Volume="3"
				Note Time="8" Value="F1" Duration="3" Instrument="blank" Attack="False"
				Note Time="9" Attack="False" Volume="1"
				Note Time="11" Value="F1" Duration="1" Instrument="blank" SlideTarget="F1" Volume="3"
				Note Time="12" Value="F1" Duration="1" Instrument="blank" Attack="False"
				Note Time="13" Value="F1" Duration="1" Instrument="blank" SlideTarget="F2" Volume="3"
				Note Time="14" Value="F2" Duration="3" Instrument="blank" Attack="False"
				Note Time="15" Attack="False" Volume="1"
				Note Time="17" Value="F2" Duration="1" Instrument="blank" SlideTarget="F2" Volume="3"
				Note Time="18" Value="F2" Duration="1" Instrument="blank" Attack="False"
				Note Time="19" Value="F2" Duration="2" Instrument="blank" SlideTarget="D#1" Volume="3"
				Note Time="21" Value="D#1" Duration="2" Instrument="blank" Attack="False" Volume="1"
				Note Time="23" Value="D#1" Duration="1" Instrument="blank" SlideTarget="D#1" Volume="3"
				Note Time="24" Value="D#1" Duration="3" Instrument="blank" Attack="False"
				Note Time="25" Attack="False" Volume="1"
				Note Time="27" Value="D#1" Duration="1" Instrument="blank" SlideTarget="D#1" Volume="3"
				Note Time="28" Value="D#1" Duration="1" Instrument="blank" Attack="False"
				Note Time="29" Value="D#1" Duration="1" Instrument="blank" SlideTarget="D#2" Volume="3"
				Note Time="30" Value="D#2" Duration="3" Instrument="blank" Attack="False"
				Note Time="31" Attack="False" Volume="1"
				Note Time="33" Value="D#2" Duration="1" Instrument="blank" SlideTarget="D#2" Volume="3"
				Note Time="34" Value="D#2" Duration="1" Instrument="blank" Attack="False"
				Note Time="35" Value="D#2" Duration="2" Instrument="blank" SlideTarget="C1" Volume="3"
				Note Time="37" Value="C1" Duration="2" Instrument="blank" Attack="False" Volume="1"
				Note Time="39" Value="C1" Duration="1" Instrument="blank" SlideTarget="C1" Volume="3"
				Note Time="40" Value="C1" Duration="3" Instrument="blank" Attack="False"
				Note Time="41" Attack="False" Volume="1"
				Note Time="43" Value="C1" Duration="1" Instrument="blank" SlideTarget="C1" Volume="3"
				Note Time="44" Value="C1" Duration="1" Instrument="blank" Attack="False"
				Note Time="45" Value="C1" Duration="2" Instrument="blank" SlideTarget="C2" Volume="3"
				Note Time="47" Value="C2" Duration="2" Instrument="blank" Attack="False" Volume="1"
				Note Time="49" Value="C2" Duration="1" Instrument="blank" SlideTarget="C2" Volume="3"
				Note Time="50" Value="C2" Duration="1" Instrument="blank" Attack="False"
				Note Time="51" Value="C2" Duration="1" Instrument="blank" SlideTarget="D#1" Volume="3"
				Note Time="52" Value="D#1" Duration="3" Instrument="blank" Attack="False"
				Note Time="53" Attack="False" Volume="1"
				Note Time="55" Value="D#1" Duration="1" Instrument="blank" SlideTarget="D#1" Volume="3"
				Note Time="56" Value="D#1" Duration="3" Instrument="blank" Attack="False"
				Note Time="57" Attack="False" Volume="1"
				Note Time="59" Value="D#1" Duration="1" Instrument="blank" SlideTarget="G#1" Volume="3"
				Note Time="60" Value="G#1" Duration="3" Instrument="blank" Attack="False"
				Note Time="61" Attack="False" Volume="1"
				Note Time="63" Value="G#1" Duration="1" Instrument="blank" SlideTarget="G1" Volume="3"
			Pattern Name="02" Color="89ffff"
				Note Time="0" Value="G1" Duration="3" Instrument="blank" Attack="False"
				Note Time="3" Value="G1" Duration="1" Instrument="blank" SlideTarget="F1" Volume="3"
				Note Time="4" Value="F1" Duration="3" Instrument="blank" Attack="False"
				Note Time="5" Attack="False" Volume="1"
				Note Time="7" Value="F1" Duration="1" Instrument="blank" SlideTarget="F1" Volume="3"
				Note Time="8" Value="F1" Duration="3" Instrument="blank" Attack="False"
				Note Time="9" Attack="False" Volume="1"
				Note Time="11" Value="F1" Duration="1" Instrument="blank" SlideTarget="F1" Volume="3"
				Note Time="12" Value="F1" Duration="1" Instrument="blank" Attack="False"
				Note Time="13" Value="F1" Duration="1" Instrument="blank" SlideTarget="F2" Volume="3"
				Note Time="14" Value="F2" Duration="3" Instrument="blank" Attack="False"
				Note Time="15" Attack="False" Volume="1"
				Note Time="17" Value="F2" Duration="1" Instrument="blank" SlideTarget="F2" Volume="3"
				Note Time="18" Value="F2" Duration="1" Instrument="blank" Attack="False"
				Note Time="19" Value="F2" Duration="2" Instrument="blank" SlideTarget="D#1" Volume="3"
				Note Time="21" Value="D#1" Duration="2" Instrument="blank" Attack="False" Volume="1"
				Note Time="23" Value="D#1" Duration="1" Instrument="blank" SlideTarget="D#1" Volume="3"
				Note Time="24" Value="D#1" Duration="3" Instrument="blank" Attack="False"
				Note Time="25" Attack="False" Volume="1"
				Note Time="27" Value="D#1" Duration="1" Instrument="blank" SlideTarget="D#1" Volume="3"
				Note Time="28" Value="D#1" Duration="1" Instrument="blank" Attack="False"
				Note Time="29" Value="D#1" Duration="1" Instrument="blank" SlideTarget="D#2" Volume="3"
				Note Time="30" Value="D#2" Duration="3" Instrument="blank" Attack="False"
				Note Time="31" Attack="False" Volume="1"
				Note Time="33" Value="D#2" Duration="1" Instrument="blank" SlideTarget="D#2" Volume="3"
				Note Time="34" Value="D#2" Duration="1" Instrument="blank" Attack="False"
				Note Time="35" Value="D#2" Duration="2" Instrument="blank" SlideTarget="C1" Volume="3"
				Note Time="37" Value="C1" Duration="2" Instrument="blank" Attack="False" Volume="1"
				Note Time="39" Value="C1" Duration="1" Instrument="blank" SlideTarget="C1" Volume="3"
				Note Time="40" Value="C1" Duration="3" Instrument="blank" Attack="False"
				Note Time="41" Attack="False" Volume="1"
				Note Time="43" Value="C1" Duration="1" Instrument="blank" SlideTarget="C1" Volume="3"
				Note Time="44" Value="C1" Duration="1" Instrument="blank" Attack="False"
				Note Time="45" Value="C1" Duration="2" Instrument="blank" SlideTarget="C2" Volume="3"
				Note Time="47" Value="C2" Duration="2" Instrument="blank" Attack="False" Volume="1"
				Note Time="49" Value="C2" Duration="1" Instrument="blank" SlideTarget="C2" Volume="3"
				Note Time="50" Value="C2" Duration="1" Instrument="blank" Attack="False"
				Note Time="51" Value="C2" Duration="1" Instrument="blank" SlideTarget="D#1" Volume="3"
				Note Time="52" Value="D#1" Duration="3" Instrument="blank" Attack="False"
				Note Time="53" Attack="False" Volume="1"
				Note Time="55" Value="D#1" Duration="1" Instrument="blank" SlideTarget="D#1" Volume="3"
				Note Time="56" Value="D#1" Duration="3" Instrument="blank" Attack="False"
				Note Time="57" Attack="False" Volume="1"
				Note Time="59" Value="D#1" Duration="1" Instrument="blank" SlideTarget="G#1" Volume="3"
				Note Time="60" Value="G#1" Duration="3" Instrument="blank" Attack="False"
				Note Time="61" Attack="False" Volume="1"
				Note Time="63" Value="G#1" Duration="1" Instrument="blank" SlideTarget="G1" Volume="3"
			Pattern Name="05" Color="ba93fe"
				Note Time="0" Value="F2" Duration="1" Instrument="echo" Volume="15"
				Note Time="1" Value="F2" Duration="1" Instrument="echo" Volume="15"
				Note Time="2" Value="F3" Duration="1" Instrument="echo" Volume="15"
				Note Time="3" Value="F3" Duration="1" Instrument="echo" Volume="15"
				Note Time="4" Value="D#3" Duration="1" Instrument="echo" Volume="15"
				Note Time="5" Value="D#3" Duration="1" Instrument="echo" Volume="15"
				Note Time="6" Value="C3" Duration="1" Instrument="echo" Volume="15"
				Note Time="7" Value="C3" Duration="1" Instrument="echo" Volume="15"
				Note Time="8" Value="F1" Duration="3" Instrument="blank" Volume="3"
				Note Time="9" Volume="1"
				Note Time="11" Value="F1" Duration="2" Instrument="blank" Volume="3"
				Note Time="13" Value="F2" Duration="3" Instrument="blank" Volume="3"
				Note Time="15" Volume="1"
				Note Time="16" Value="F2" Duration="1" Instrument="echo" Volume="15"
				Note Time="17" Value="F2" Duration="1" Instrument="echo" Volume="15"
				Note Time="18" Value="F2" Duration="1" Instrument="blank" Volume="3"
				Note Time="19" Value="D#3" Duration="1" Instrument="echo" Volume="15"
				Note Time="20" Value="D#3" Duration="2" Instrument="echo" Volume="15"
				Note Time="21" Volume="1"
				Note Time="22" Value="C3" Duration="1" Instrument="echo" Volume="15"
				Note Time="23" Value="C3" Duration="1" Instrument="echo" Volume="15"
				Note Time="24" Value="D#1" Duration="3" Instrument="blank" Volume="3"
				Note Time="25" Volume="1"
				Note Time="27" Value="D#1" Duration="2" Instrument="blank" Volume="3"
				Note Time="29" Value="D#2" Duration="3" Instrument="blank" Volume="3"
				Note Time="31" Volume="1"
				Note Time="32" Value="F2" Duration="1" Instrument="echo" Volume="15"
				Note Time="33" Value="F2" Duration="1" Instrument="echo" Volume="15"
				Note Time="34" Value="D#3" Duration="1" Instrument="echo" Volume="15"
				Note Time="35" Value="D#3" Duration="1" Instrument="echo" Volume="15"
				Note Time="36" Value="F3" Duration="1" Instrument="echo" Volume="15"
				Note Time="37" Value="F3" Duration="1" Instrument="echo" Volume="15"
				Note Time="38" Value="C3" Duration="1" Instrument="echo" Volume="15"
				Note Time="39" Value="C3" Duration="1" Instrument="echo" Volume="15"
				Note Time="40" Value="C1" Duration="3" Instrument="blank" Volume="3"
				Note Time="41" Volume="1"
				Note Time="43" Value="C1" Duration="2" Instrument="blank" Volume="3"
				Note Time="45" Value="C2" Duration="3" Instrument="blank" Volume="3"
				Note Time="47" Volume="1"
				Note Time="48" Value="D#3" Duration="1" Instrument="echo" Volume="15"
				Note Time="49" Value="D#3" Duration="1" Instrument="echo" Volume="15"
				Note Time="50" Value="C2" Duration="1" Instrument="blank" Volume="3"
				Note Time="51" Value="F3" Duration="1" Instrument="echo" Volume="15"
				Note Time="52" Value="F3" Duration="2" Instrument="echo" Volume="15"
				Note Time="53" Volume="1"
				Note Time="54" Value="C3" Duration="1" Instrument="echo" Volume="15"
				Note Time="55" Value="C3" Duration="1" Instrument="echo" Volume="15"
				Note Time="56" Value="D#1" Duration="3" Instrument="blank" Volume="3"
				Note Time="57" Volume="1"
				Note Time="59" Value="G#1" Duration="4" Instrument="blank" Volume="3"
				Note Time="61" Volume="1"
				Note Time="63" Value="G1" Duration="1" Instrument="blank" Volume="3"
			Pattern Name="03" Color="c9aa9f"
				Note Time="0" Value="F2" Duration="8" Instrument="blank" Volume="7" DutyCycle="0"
				Note Time="2" DutyCycle="1"
				Note Time="4" DutyCycle="2"
				Note Time="6" DutyCycle="1"
				Note Time="8" Value="G#2" Duration="2" Instrument="blank" DutyCycle="0"
				Note Time="10" Value="G2" Duration="2" Instrument="blank" DutyCycle="1"
				Note Time="12" Value="D#2" Duration="2" Instrument="blank instant decay" DutyCycle="2"
				Note Time="14" Value="G2" Duration="2" Instrument="blank" DutyCycle="1"
				Note Time="16" Value="F2" Duration="6" Instrument="blank" DutyCycle="0"
				Note Time="18" DutyCycle="1"
				Note Time="20" DutyCycle="2"
				Note Time="22" Value="C3" Duration="4" Instrument="blank" DutyCycle="1"
				Note Time="24" DutyCycle="0"
				Note Time="26" Value="C2" Duration="2" Instrument="blank" DutyCycle="1"
				Note Time="28" Value="D#2" Duration="2" Instrument="blank instant decay" DutyCycle="2"
				Note Time="30" Value="G2" Duration="2" Instrument="blank" DutyCycle="1"
				Note Time="32" Value="F2" Duration="6" Instrument="blank" DutyCycle="0"
				Note Time="34" DutyCycle="1"
				Note Time="36" DutyCycle="2"
				Note Time="38" Value="C2" Duration="2" Instrument="blank" DutyCycle="1"
				Note Time="40" Value="D#2" Duration="2" Instrument="blank" DutyCycle="0"
				Note Time="42" Value="F2" Duration="2" Instrument="blank" DutyCycle="1"
				Note Time="44" Value="G#2" Duration="2" Instrument="blank instant decay" DutyCycle="2"
				Note Time="46" Value="A#2" Duration="2" Instrument="blank" DutyCycle="1"
				Note Time="48" Value="F2" Duration="6" Instrument="blank" DutyCycle="0"
				Note Time="50" DutyCycle="1"
				Note Time="52" DutyCycle="2"
				Note Time="54" Value="C3" Duration="2" Instrument="blank" DutyCycle="1"
				Note Time="56" Value="F3" Duration="4" Instrument="blank" DutyCycle="0"
				Note Time="58" DutyCycle="1"
				Note Time="60" Value="G#2" Duration="2" Instrument="blank instant decay" DutyCycle="2"
				Note Time="62" Value="G2" Duration="2" Instrument="blank" DutyCycle="1"
			Pattern Name="04" Color="ffff77"
				Note Time="0" Value="F2" Duration="1" Instrument="echo" Volume="15" DutyCycle="2"
				Note Time="1" Value="F2" Duration="1" Instrument="echo"
				Note Time="2" Value="F3" Duration="1" Instrument="echo"
				Note Time="3" Value="F3" Duration="1" Instrument="echo"
				Note Time="4" Value="D#3" Duration="1" Instrument="echo"
				Note Time="5" Value="D#3" Duration="1" Instrument="echo"
				Note Time="6" Value="C3" Duration="1" Instrument="echo"
				Note Time="7" Value="C3" Duration="4" Instrument="echo"
				Note Time="11" Value="G#3" Duration="2" Instrument="echo" Volume="7"
				Note Time="13" Value="G3" Duration="2" Instrument="echo"
				Note Time="15" Value="D#3" Duration="1" Instrument="echo"
				Note Time="16" Value="F2" Duration="1" Instrument="echo" Volume="15"
				Note Time="17" Value="F2" Duration="2" Instrument="echo"
				Note Time="19" Value="D#3" Duration="1" Instrument="echo"
				Note Time="20" Value="D#3" Duration="2" Instrument="echo"
				Note Time="22" Value="C3" Duration="1" Instrument="echo"
				Note Time="23" Value="C3" Duration="2" Instrument="echo"
				Note Time="25" Value="C4" Duration="4" Instrument="echo" Volume="7"
				Note Time="29" Value="C3" Duration="2" Instrument="echo"
				Note Time="31" Value="D#3" Duration="1" Instrument="echo"
				Note Time="32" Value="F2" Duration="1" Instrument="echo" Volume="15"
				Note Time="33" Value="F2" Duration="1" Instrument="echo"
				Note Time="34" Value="D#3" Duration="1" Instrument="echo"
				Note Time="35" Value="D#3" Duration="1" Instrument="echo"
				Note Time="36" Value="F3" Duration="1" Instrument="echo"
				Note Time="37" Value="F3" Duration="1" Instrument="echo"
				Note Time="38" Value="C3" Duration="1" Instrument="echo"
				Note Time="39" Value="C3" Duration="2" Instrument="echo"
				Note Time="41" Value="C3" Duration="2" Instrument="echo" Volume="7"
				Note Time="43" Value="D#3" Duration="2" Instrument="echo"
				Note Time="45" Value="F3" Duration="2" Instrument="echo"
				Note Time="47" Value="G#3" Duration="1" Instrument="echo"
				Note Time="48" Value="D#3" Duration="1" Instrument="echo" Volume="15"
				Note Time="49" Value="D#3" Duration="2" Instrument="echo"
				Note Time="51" Value="F3" Duration="1" Instrument="echo"
				Note Time="52" Value="F3" Duration="2" Instrument="echo"
				Note Time="54" Value="C3" Duration="1" Instrument="echo"
				Note Time="55" Value="C3" Duration="2" Instrument="echo"
				Note Time="57" Value="C4" Duration="2" Instrument="echo" Volume="7"
				Note Time="59" Value="F4" Duration="4" Instrument="echo"
				Note Time="63" Value="G#3" Duration="5" Instrument="echo"
			PatternInstance Time="0" Pattern="00"
			PatternInstance Time="1" Pattern="00"
			PatternInstance Time="2" Pattern="00"
			PatternInstance Time="3" Pattern="00"
			PatternInstance Time="4" Pattern="01"
			PatternInstance Time="5" Pattern="3"
			PatternInstance Time="6" Pattern="02"
			PatternInstance Time="7" Pattern="05"
			PatternInstance Time="8" Pattern="05"
			PatternInstance Time="9" Pattern="03"
			PatternInstance Time="10" Pattern="03"
			PatternInstance Time="11" Pattern="04"
			PatternInstance Time="12" Pattern="04"
		Channel Type="Square2"
			Pattern Name="00" Color="6c7bdb"
				Note Time="0" Value="F1" Duration="16" Instrument="quiet bass" Volume="12"
				Note Time="16" Value="D#1" Duration="16" Instrument="quiet bass"
				Note Time="32" Value="C1" Duration="16" Instrument="quiet bass"
				Note Time="48" Value="D#1" Duration="16" Instrument="quiet bass"
			Pattern Name="01" Color="ff6464"
				Note Time="0" Value="F1" Duration="8" Instrument="quiet bass"
			Pattern Name="02" Color="ffcb3c"
				Note Time="0" Value="F1" Duration="4" Instrument="blank" Volume="8"
				Note Time="2" Attack="False" Volume="3"
				Note Time="4" Value="F1" Duration="1" Instrument="blank" SlideTarget="F1" Volume="8"
				Note Time="5" Value="F1" Duration="3" Instrument="blank" Attack="False"
				Note Time="6" Attack="False" Volume="3"
				Note Time="8" Value="F1" Duration="1" Instrument="blank" SlideTarget="F1" Volume="8"
				Note Time="9" Value="F1" Duration="1" Instrument="blank" Attack="False"
				Note Time="10" Value="F1" Duration="1" Instrument="blank" SlideTarget="F2" Volume="8"
				Note Time="11" Value="F2" Duration="3" Instrument="blank" Attack="False"
				Note Time="12" Attack="False" Volume="3"
				Note Time="14" Value="F2" Duration="1" Instrument="blank" SlideTarget="F2" Volume="8"
				Note Time="15" Value="F2" Duration="1" Instrument="blank" Attack="False"
				Note Time="16" Value="F2" Duration="2" Instrument="blank" SlideTarget="D#1" Volume="8"
				Note Time="18" Value="D#1" Duration="2" Instrument="blank" Attack="False" Volume="3"
				Note Time="20" Value="D#1" Duration="1" Instrument="blank" SlideTarget="D#1" Volume="8"
				Note Time="21" Value="D#1" Duration="3" Instrument="blank" Attack="False"
				Note Time="22" Attack="False" Volume="3"
				Note Time="24" Value="D#1" Duration="1" Instrument="blank" SlideTarget="D#1" Volume="8"
				Note Time="25" Value="D#1" Duration="1" Instrument="blank" Attack="False"
				Note Time="26" Value="D#1" Duration="1" Instrument="blank" SlideTarget="D#2" Volume="8"
				Note Time="27" Value="D#2" Duration="3" Instrument="blank" Attack="False"
				Note Time="28" Attack="False" Volume="3"
				Note Time="30" Value="D#2" Duration="1" Instrument="blank" SlideTarget="D#2" Volume="8"
				Note Time="31" Value="D#2" Duration="1" Instrument="blank" Attack="False"
				Note Time="32" Value="D#2" Duration="2" Instrument="blank" SlideTarget="C1" Volume="8"
				Note Time="34" Value="C1" Duration="2" Instrument="blank" Attack="False" Volume="3"
				Note Time="36" Value="C1" Duration="1" Instrument="blank" SlideTarget="C1" Volume="8"
				Note Time="37" Value="C1" Duration="3" Instrument="blank" Attack="False"
				Note Time="38" Attack="False" Volume="3"
				Note Time="40" Value="C1" Duration="1" Instrument="blank" SlideTarget="C1" Volume="8"
				Note Time="41" Value="C1" Duration="1" Instrument="blank" Attack="False"
				Note Time="42" Value="C1" Duration="2" Instrument="blank" SlideTarget="C2" Volume="8"
				Note Time="44" Value="C2" Duration="2" Instrument="blank" Attack="False" Volume="3"
				Note Time="46" Value="C2" Duration="1" Instrument="blank" SlideTarget="C2" Volume="8"
				Note Time="47" Value="C2" Duration="1" Instrument="blank" Attack="False"
				Note Time="48" Value="C2" Duration="1" Instrument="blank" SlideTarget="D#1" Volume="8"
				Note Time="49" Value="D#1" Duration="3" Instrument="blank" Attack="False"
				Note Time="50" Attack="False" Volume="3"
				Note Time="52" Value="D#1" Duration="1" Instrument="blank" SlideTarget="D#1" Volume="8"
				Note Time="53" Value="D#1" Duration="3" Instrument="blank" Attack="False"
				Note Time="54" Attack="False" Volume="3"
				Note Time="56" Value="D#1" Duration="1" Instrument="blank" SlideTarget="G#1" Volume="8"
				Note Time="57" Value="G#1" Duration="3" Instrument="blank" Attack="False"
				Note Time="58" Attack="False" Volume="3"
				Note Time="60" Value="G#1" Duration="1" Instrument="blank" SlideTarget="G1" Volume="8"
				Note Time="61" Value="G1" Duration="1" Instrument="blank" Attack="False"
				Note Time="62" Value="G1" Duration="1" Instrument="blank" SlideTarget="D#1" Volume="8"
				Note Time="63" Value="D#1" Duration="1" Instrument="blank" Attack="False"
			Pattern Name="02B" Color="fe5497"
				Note Time="0" Value="D#1" Duration="1" Instrument="blank" SlideTarget="F1" Volume="8"
				Note Time="1" Value="F1" Duration="3" Instrument="blank" Attack="False"
				Note Time="2" Attack="False" Volume="3"
				Note Time="4" Value="F1" Duration="1" Instrument="blank" SlideTarget="F1" Volume="8"
				Note Time="5" Value="F1" Duration="3" Instrument="blank" Attack="False"
				Note Time="6" Attack="False" Volume="3"
				Note Time="8" Value="F1" Duration="1" Instrument="blank" SlideTarget="F1" Volume="8"
				Note Time="9" Value="F1" Duration="1" Instrument="blank" Attack="False"
				Note Time="10" Value="F1" Duration="1" Instrument="blank" SlideTarget="F2" Volume="8"
				Note Time="11" Value="F2" Duration="3" Instrument="blank" Attack="False"
				Note Time="12" Attack="False" Volume="3"
				Note Time="14" Value="F2" Duration="1" Instrument="blank" SlideTarget="F2" Volume="8"
				Note Time="15" Value="F2" Duration="1" Instrument="blank" Attack="False"
				Note Time="16" Value="F2" Duration="2" Instrument="blank" SlideTarget="D#1" Volume="8"
				Note Time="18" Value="D#1" Duration="2" Instrument="blank" Attack="False" Volume="3"
				Note Time="20" Value="D#1" Duration="1" Instrument="blank" SlideTarget="D#1" Volume="8"
				Note Time="21" Value="D#1" Duration="3" Instrument="blank" Attack="False"
				Note Time="22" Attack="False" Volume="3"
				Note Time="24" Value="D#1" Duration="1" Instrument="blank" SlideTarget="D#1" Volume="8"
				Note Time="25" Value="D#1" Duration="1" Instrument="blank" Attack="False"
				Note Time="26" Value="D#1" Duration="1" Instrument="blank" SlideTarget="D#2" Volume="8"
				Note Time="27" Value="D#2" Duration="3" Instrument="blank" Attack="False"
				Note Time="28" Attack="False" Volume="3"
				Note Time="30" Value="D#2" Duration="1" Instrument="blank" SlideTarget="D#2" Volume="8"
				Note Time="31" Value="D#2" Duration="1" Instrument="blank" Attack="False"
				Note Time="32" Value="D#2" Duration="2" Instrument="blank" SlideTarget="C1" Volume="8"
				Note Time="34" Value="C1" Duration="2" Instrument="blank" Attack="False" Volume="3"
				Note Time="36" Value="C1" Duration="1" Instrument="blank" SlideTarget="C1" Volume="8"
				Note Time="37" Value="C1" Duration="3" Instrument="blank" Attack="False"
				Note Time="38" Attack="False" Volume="3"
				Note Time="40" Value="C1" Duration="1" Instrument="blank" SlideTarget="C1" Volume="8"
				Note Time="41" Value="C1" Duration="1" Instrument="blank" Attack="False"
				Note Time="42" Value="C1" Duration="2" Instrument="blank" SlideTarget="C2" Volume="8"
				Note Time="44" Value="C2" Duration="2" Instrument="blank" Attack="False" Volume="3"
				Note Time="46" Value="C2" Duration="1" Instrument="blank" SlideTarget="C2" Volume="8"
				Note Time="47" Value="C2" Duration="1" Instrument="blank" Attack="False"
				Note Time="48" Value="C2" Duration="1" Instrument="blank" SlideTarget="D#1" Volume="8"
				Note Time="49" Value="D#1" Duration="3" Instrument="blank" Attack="False"
				Note Time="50" Attack="False" Volume="3"
				Note Time="52" Value="D#1" Duration="1" Instrument="blank" SlideTarget="D#1" Volume="8"
				Note Time="53" Value="D#1" Duration="3" Instrument="blank" Attack="False"
				Note Time="54" Attack="False" Volume="3"
				Note Time="56" Value="D#1" Duration="1" Instrument="blank" SlideTarget="G#1" Volume="8"
				Note Time="57" Value="G#1" Duration="3" Instrument="blank" Attack="False"
				Note Time="58" Attack="False" Volume="3"
				Note Time="60" Value="G#1" Duration="1" Instrument="blank" SlideTarget="G1" Volume="8"
				Note Time="61" Value="G1" Duration="1" Instrument="blank" Attack="False"
				Note Time="62" Value="G1" Duration="1" Instrument="blank" SlideTarget="D#1" Volume="8"
				Note Time="63" Value="D#1" Duration="1" Instrument="blank" Attack="False"
			Pattern Name="03" Color="bdffc0"
				Note Time="0" Value="F3" Duration="8" Instrument="echo" Volume="15" DutyCycle="2"
				Note Time="8" Value="G#3" Duration="2" Instrument="echo"
				Note Time="10" Value="G3" Duration="2" Instrument="echo"
				Note Time="12" Value="D#3" Duration="2" Instrument="echo"
				Note Time="14" Value="G3" Duration="2" Instrument="echo"
				Note Time="16" Value="F3" Duration="6" Instrument="echo"
				Note Time="22" Value="C4" Duration="4" Instrument="echo"
				Note Time="26" Value="C3" Duration="2" Instrument="echo"
				Note Time="28" Value="D#3" Duration="2" Instrument="echo"
				Note Time="30" Value="G3" Duration="2" Instrument="echo"
				Note Time="32" Value="F3" Duration="6" Instrument="echo"
				Note Time="38" Value="C3" Duration="2" Instrument="echo"
				Note Time="40" Value="D#3" Duration="2" Instrument="echo"
				Note Time="42" Value="F3" Duration="2" Instrument="echo"
				Note Time="44" Value="G#3" Duration="2" Instrument="echo"
				Note Time="46" Value="A#3" Duration="2" Instrument="echo"
				Note Time="48" Value="F3" Duration="6" Instrument="echo"
				Note Time="54" Value="C4" Duration="2" Instrument="echo"
				Note Time="56" Value="F4" Duration="4" Instrument="echo"
				Note Time="60" Value="G#3" Duration="2" Instrument="echo"
				Note Time="62" Value="G3" Duration="2" Instrument="echo"
			Pattern Name="04" Color="7ee1ff"
				Note Time="0" Value="F3" Duration="4" Instrument="echo"
			PatternInstance Time="0" Pattern="00"
			PatternInstance Time="1" Pattern="00"
			PatternInstance Time="2" Pattern="00"
			PatternInstance Time="3" Pattern="00"
			PatternInstance Time="4" Pattern="01"
			PatternInstance Time="5" Pattern="02"
			PatternInstance Time="6" Pattern="02B"
			PatternInstance Time="7" Pattern="02B"
			PatternInstance Time="8" Pattern="02B"
			PatternInstance Time="9" Pattern="02B"
			PatternInstance Time="10" Pattern="02B"
			PatternInstance Time="11" Pattern="03"
			PatternInstance Time="12" Pattern="03"
			PatternInstance Time="13" Pattern="04"
		Channel Type="Triangle"
		Channel Type="Noise"
			Pattern Name="02" Color="3ec4ff"
				Note Time="0" Value="G2" Duration="2" Instrument="kick"
				Note Time="2" Value="F#3" Duration="1" Instrument="rel hats"
				Note Time="3" Value="G#3" Duration="1" Instrument="hat"
				Note Time="4" Value="G2" Duration="2" Instrument="kick"
				Note Time="6" Value="F#3" Duration="2" Instrument="hat"
				Note Time="8" Value="G2" Duration="2" Instrument="kick"
				Note Time="10" Value="F#3" Duration="1" Instrument="rel hats"
				Note Time="11" Value="G#3" Duration="1" Instrument="hat"
				Note Time="12" Value="G2" Duration="2" Instrument="kick"
				Note Time="14" Value="F#3" Duration="2" Instrument="hat"
				Note Time="16" Value="G2" Duration="2" Instrument="kick"
				Note Time="18" Value="F#3" Duration="1" Instrument="rel hats"
				Note Time="19" Value="G#3" Duration="1" Instrument="hat"
				Note Time="20" Value="G2" Duration="2" Instrument="kick"
				Note Time="22" Value="F#3" Duration="2" Instrument="hat"
				Note Time="24" Value="G2" Duration="2" Instrument="kick"
				Note Time="26" Value="F#3" Duration="1" Instrument="rel hats"
				Note Time="27" Value="G#3" Duration="1" Instrument="hat"
				Note Time="28" Value="G2" Duration="2" Instrument="kick"
				Note Time="30" Value="F#3" Duration="2" Instrument="hat"
				Note Time="32" Value="G2" Duration="2" Instrument="kick"
				Note Time="34" Value="F#3" Duration="1" Instrument="rel hats"
				Note Time="35" Value="G#3" Duration="1" Instrument="hat"
				Note Time="36" Value="G2" Duration="2" Instrument="kick"
				Note Time="38" Value="F#3" Duration="2" Instrument="hat"
				Note Time="40" Value="G2" Duration="2" Instrument="kick"
				Note Time="42" Value="F#3" Duration="1" Instrument="rel hats"
				Note Time="43" Value="G#3" Duration="1" Instrument="hat"
				Note Time="44" Value="G2" Duration="2" Instrument="kick"
				Note Time="46" Value="F#3" Duration="2" Instrument="hat"
				Note Time="48" Value="G2" Duration="2" Instrument="kick"
				Note Time="50" Value="F#3" Duration="1" Instrument="rel hats"
				Note Time="51" Value="G#3" Duration="1" Instrument="hat"
				Note Time="52" Value="G2" Duration="2" Instrument="kick"
				Note Time="54" Value="F#3" Duration="2" Instrument="hat"
				Note Time="56" Value="G2" Duration="2" Instrument="kick"
				Note Time="58" Value="F#3" Duration="1" Instrument="rel hats"
				Note Time="59" Value="G#3" Duration="1" Instrument="hat"
				Note Time="60" Value="G2" Duration="2" Instrument="kick"
				Note Time="62" Value="F#3" Duration="2" Instrument="hat"
			Pattern Name="03" Color="a657d6"
				Note Time="0" Value="G2" Duration="2" Instrument="kick"
				Note Time="2" Value="G2" Duration="2" Instrument="kick"
				Note Time="4" Value="G2" Duration="2" Instrument="kick"
				Note Time="6" Value="G2" Duration="2" Instrument="kick"
				Note Time="8" Value="G2" Duration="2" Instrument="kick"
				Note Time="10" Value="G2" Duration="2" Instrument="kick"
				Note Time="12" Value="G2" Duration="2" Instrument="kick"
				Note Time="14" Value="G2" Duration="2" Instrument="kick"
				Note Time="16" Value="G2" Duration="2" Instrument="kick"
				Note Time="18" Value="G2" Duration="2" Instrument="kick"
				Note Time="20" Value="G2" Duration="2" Instrument="kick"
				Note Time="22" Value="G2" Duration="2" Instrument="kick"
				Note Time="24" Value="G2" Duration="2" Instrument="kick"
				Note Time="26" Value="G2" Duration="2" Instrument="kick"
				Note Time="28" Value="G2" Duration="2" Instrument="kick"
				Note Time="30" Value="G2" Duration="2" Instrument="kick"
				Note Time="32" Value="G2" Duration="2" Instrument="kick"
				Note Time="34" Value="G2" Duration="2" Instrument="kick"
				Note Time="36" Value="G2" Duration="2" Instrument="kick"
				Note Time="38" Value="G2" Duration="2" Instrument="kick"
				Note Time="40" Value="G2" Duration="2" Instrument="kick"
				Note Time="42" Value="G2" Duration="2" Instrument="kick"
				Note Time="44" Value="G2" Duration="2" Instrument="kick"
				Note Time="46" Value="G2" Duration="2" Instrument="kick"
				Note Time="48" Value="G2" Duration="2" Instrument="kick"
				Note Time="50" Value="G2" Duration="2" Instrument="kick"
				Note Time="52" Value="G2" Duration="2" Instrument="kick"
				Note Time="54" Value="G2" Duration="2" Instrument="kick"
				Note Time="56" Value="G2" Duration="2" Instrument="kick"
				Note Time="58" Value="G2" Duration="2" Instrument="kick"
				Note Time="60" Value="G2" Duration="2" Instrument="kick"
				Note Time="62" Value="G2" Duration="10" Instrument="kick"
			Pattern Name="04" Color="ff7f51"
				Note Time="8" Value="G3" Duration="8" Instrument="DMC: drums + bass" Volume="1"
				Note Time="10" Volume="2"
				Note Time="11" Volume="3"
				Note Time="12" Volume="4"
				Note Time="13" Volume="6"
				Note Time="14" Volume="8"
				Note Time="15" Volume="12"
			Pattern Name="05" Color="ffffb1"
				Note Time="0" Value="G2" Duration="6" Instrument="kick" Volume="15"
				Note Time="6" Value="G2" Duration="2" Instrument="kick"
				Note Time="8" Value="G2" Duration="8" Instrument="snare"
				Note Time="16" Value="G2" Duration="3" Instrument="kick"
				Note Time="19" Value="G2" Duration="3" Instrument="kick"
				Note Time="22" Value="G2" Duration="2" Instrument="kick"
				Note Time="24" Value="G2" Duration="8" Instrument="snare"
				Note Time="32" Value="G2" Duration="6" Instrument="kick"
				Note Time="38" Value="G2" Duration="2" Instrument="kick"
				Note Time="40" Value="G2" Duration="8" Instrument="snare"
				Note Time="48" Value="G2" Duration="3" Instrument="kick"
				Note Time="51" Value="G2" Duration="3" Instrument="kick"
				Note Time="54" Value="G2" Duration="2" Instrument="kick"
				Note Time="56" Value="G2" Duration="8" Instrument="snare"
			Pattern Name="06" Color="62ffff"
				Note Time="0" Value="G2" Duration="6" Instrument="kick" Volume="15"
				Note Time="6" Value="G2" Duration="2" Instrument="kick"
				Note Time="8" Value="G2" Duration="8" Instrument="snare"
				Note Time="16" Value="G2" Duration="3" Instrument="kick"
				Note Time="19" Value="G2" Duration="3" Instrument="kick"
				Note Time="22" Value="G2" Duration="10" Instrument="snare"
				Note Time="32" Value="G2" Duration="6" Instrument="kick"
				Note Time="38" Value="G2" Duration="2" Instrument="kick"
				Note Time="40" Value="G2" Duration="8" Instrument="snare"
				Note Time="48" Value="G2" Duration="3" Instrument="kick"
				Note Time="51" Value="G2" Duration="3" Instrument="kick"
				Note Time="54" Value="G2" Duration="14" Instrument="snare"
			PatternInstance Time="2" Pattern="02"
			PatternInstance Time="3" Pattern="03"
			PatternInstance Time="4" Pattern="04"
			PatternInstance Time="5" Pattern="05"
			PatternInstance Time="6" Pattern="05"
			PatternInstance Time="7" Pattern="05"
			PatternInstance Time="8" Pattern="05"
			PatternInstance Time="9" Pattern="05"
			PatternInstance Time="10" Pattern="05"
			PatternInstance Time="11" Pattern="06"
			PatternInstance Time="12" Pattern="06"
		Channel Type="DPCM"
			Pattern Name="02" Color="b59184"
				Note Time="0" Value="E5" Duration="4" Instrument="DMC: drums + bass"
				Note Time="4" Value="E5" Duration="4" Instrument="DMC: drums + bass"
				Note Time="8" Value="E5" Duration="4" Instrument="DMC: drums + bass"
				Note Time="12" Value="E5" Duration="4" Instrument="DMC: drums + bass"
				Note Time="16" Value="E5" Duration="4" Instrument="DMC: drums + bass"
				Note Time="20" Value="E5" Duration="4" Instrument="DMC: drums + bass"
				Note Time="24" Value="E5" Duration="4" Instrument="DMC: drums + bass"
				Note Time="28" Value="E5" Duration="4" Instrument="DMC: drums + bass"
				Note Time="32" Value="E5" Duration="4" Instrument="DMC: drums + bass"
				Note Time="36" Value="E5" Duration="4" Instrument="DMC: drums + bass"
				Note Time="40" Value="E5" Duration="4" Instrument="DMC: drums + bass"
				Note Time="44" Value="E5" Duration="4" Instrument="DMC: drums + bass"
				Note Time="48" Value="E5" Duration="4" Instrument="DMC: drums + bass"
				Note Time="52" Value="E5" Duration="4" Instrument="DMC: drums + bass"
				Note Time="56" Value="E5" Duration="4" Instrument="DMC: drums + bass"
				Note Time="60" Value="E5" Duration="4" Instrument="DMC: drums + bass"
			Pattern Name="03" Color="ffff71"
				Note Time="0" Value="E5" Duration="2" Instrument="DMC: drums + bass"
				Note Time="2" Value="E5" Duration="2" Instrument="DMC: drums + bass"
				Note Time="4" Value="E5" Duration="2" Instrument="DMC: drums + bass"
				Note Time="6" Value="E5" Duration="2" Instrument="DMC: drums + bass"
				Note Time="8" Value="E5" Duration="2" Instrument="DMC: drums + bass"
				Note Time="10" Value="E5" Duration="2" Instrument="DMC: drums + bass"
				Note Time="12" Value="E5" Duration="2" Instrument="DMC: drums + bass"
				Note Time="14" Value="E5" Duration="2" Instrument="DMC: drums + bass"
				Note Time="16" Value="E5" Duration="2" Instrument="DMC: drums + bass"
				Note Time="18" Value="E5" Duration="2" Instrument="DMC: drums + bass"
				Note Time="20" Value="E5" Duration="2" Instrument="DMC: drums + bass"
				Note Time="22" Value="E5" Duration="2" Instrument="DMC: drums + bass"
				Note Time="24" Value="E5" Duration="2" Instrument="DMC: drums + bass"
				Note Time="26" Value="E5" Duration="2" Instrument="DMC: drums + bass"
				Note Time="28" Value="E5" Duration="2" Instrument="DMC: drums + bass"
				Note Time="30" Value="E5" Duration="2" Instrument="DMC: drums + bass"
				Note Time="32" Value="E5" Duration="2" Instrument="DMC: drums + bass"
				Note Time="34" Value="E5" Duration="2" Instrument="DMC: drums + bass"
				Note Time="36" Value="E5" Duration="2" Instrument="DMC: drums + bass"
				Note Time="38" Value="E5" Duration="2" Instrument="DMC: drums + bass"
				Note Time="40" Value="E5" Duration="2" Instrument="DMC: drums + bass"
				Note Time="42" Value="E5" Duration="2" Instrument="DMC: drums + bass"
				Note Time="44" Value="E5" Duration="2" Instrument="DMC: drums + bass"
				Note Time="46" Value="E5" Duration="2" Instrument="DMC: drums + bass"
				Note Time="48" Value="E5" Duration="2" Instrument="DMC: drums + bass"
				Note Time="50" Value="E5" Duration="2" Instrument="DMC: drums + bass"
				Note Time="52" Value="E5" Duration="2" Instrument="DMC: drums + bass"
				Note Time="54" Value="E5" Duration="2" Instrument="DMC: drums + bass"
				Note Time="56" Value="E5" Duration="2" Instrument="DMC: drums + bass"
				Note Time="58" Value="E5" Duration="2" Instrument="DMC: drums + bass"
				Note Time="60" Value="E5" Duration="2" Instrument="DMC: drums + bass"
				Note Time="62" Value="E5" Duration="18" Instrument="DMC: drums + bass"
			Pattern Name="05" Color="3cb5a7"
				Note Time="0" Value="E5" Duration="6" Instrument="DMC: drums + bass"
				Note Time="6" Value="E5" Duration="2" Instrument="DMC: drums + bass"
				Note Time="8" Value="F5" Duration="8" Instrument="DMC: drums + bass"
				Note Time="16" Value="E5" Duration="3" Instrument="DMC: drums + bass"
				Note Time="19" Value="E5" Duration="3" Instrument="DMC: drums + bass"
				Note Time="22" Value="E5" Duration="2" Instrument="DMC: drums + bass"
				Note Time="24" Value="F5" Duration="8" Instrument="DMC: drums + bass"
				Note Time="32" Value="E5" Duration="6" Instrument="DMC: drums + bass"
				Note Time="38" Value="E5" Duration="2" Instrument="DMC: drums + bass"
				Note Time="40" Value="F5" Duration="8" Instrument="DMC: drums + bass"
				Note Time="48" Value="E5" Duration="3" Instrument="DMC: drums + bass"
				Note Time="51" Value="E5" Duration="3" Instrument="DMC: drums + bass"
				Note Time="54" Value="E5" Duration="2" Instrument="DMC: drums + bass"
				Note Time="56" Value="F5" Duration="8" Instrument="DMC: drums + bass"
			Pattern Name="06" Color="6471cf"
				Note Time="0" Value="E5" Duration="6" Instrument="DMC: drums + bass"
				Note Time="6" Value="E5" Duration="2" Instrument="DMC: drums + bass"
				Note Time="8" Value="F5" Duration="8" Instrument="DMC: drums + bass"
				Note Time="16" Value="E5" Duration="3" Instrument="DMC: drums + bass"
				Note Time="19" Value="E5" Duration="3" Instrument="DMC: drums + bass"
				Note Time="22" Value="F5" Duration="10" Instrument="DMC: drums + bass"
				Note Time="32" Value="E5" Duration="6" Instrument="DMC: drums + bass"
				Note Time="38" Value="E5" Duration="2" Instrument="DMC: drums + bass"
				Note Time="40" Value="F5" Duration="8" Instrument="DMC: drums + bass"
				Note Time="48" Value="E5" Duration="3" Instrument="DMC: drums + bass"
				Note Time="51" Value="E5" Duration="3" Instrument="DMC: drums + bass"
				Note Time="54" Value="F5" Duration="14" Instrument="DMC: drums + bass"
			PatternInstance Time="2" Pattern="02"
			PatternInstance Time="3" Pattern="03"
			PatternInstance Time="5" Pattern="05"
			PatternInstance Time="6" Pattern="05"
			PatternInstance Time="7" Pattern="05"
			PatternInstance Time="8" Pattern="05"
			PatternInstance Time="9" Pattern="05"
			PatternInstance Time="10" Pattern="05"
			PatternInstance Time="11" Pattern="06"
			PatternInstance Time="12" Pattern="06"
	Song Name="Base after Base" Color="d1b1ff" Folder="Official music used in the game" Length="13" LoopPoint="-1" PatternLength="64" BeatLength="4" FamiTrackerTempo="141" FamiTrackerSpeed="6"
		PatternCustomSettings Time="4" Length="32"
		PatternCustomSettings Time="12" Length="64"
		Channel Type="Square1"
			Pattern Name="01" Color="ffa83c"
				Note Time="0" Value="D3" Duration="4" Release="2" Instrument="blank" Volume="8" DutyCycle="1"
				Note Time="4" Value="D3" Duration="2" Instrument="blank"
				Note Time="6" Value="C3" Duration="2" Instrument="blank"
				Note Time="8" Value="D3" Duration="1" Instrument="blank" CutDelay="4"
				Note Time="9" Value="D3" Duration="1" Instrument="blank" CutDelay="4"
				Note Time="10" Value="F3" Duration="2" Instrument="blank"
				Note Time="12" Value="E3" Duration="2" Instrument="blank"
				Note Time="14" Value="G3" Duration="2" Instrument="blank"
				Note Time="16" Value="A3" Duration="3" Release="2" Instrument="blank"
				Note Time="19" Value="A3" Duration="1" Instrument="blank" CutDelay="4"
				Note Time="20" Value="A3" Duration="2" Release="1" Instrument="blank"
				Note Time="22" Value="G3" Duration="2" Instrument="blank"
				Note Time="24" Value="A3" Duration="2" Instrument="blank"
				Note Time="26" Value="C4" Duration="2" Instrument="blank"
				Note Time="28" Value="B3" Duration="2" Instrument="blank"
				Note Time="30" Value="G3" Duration="2" Instrument="blank"
				Note Time="32" Value="A3" Duration="4" Release="2" Instrument="blank"
				Note Time="36" Value="A3" Duration="2" Instrument="blank"
				Note Time="38" Value="G3" Duration="2" Instrument="blank"
				Note Time="40" Value="A3" Duration="1" Instrument="blank" CutDelay="4"
				Note Time="41" Value="A3" Duration="1" Instrument="blank"
				Note Time="42" Value="B3" Duration="2" Instrument="blank"
				Note Time="44" Value="C4" Duration="2" Instrument="blank"
				Note Time="46" Value="B3" Duration="2" Instrument="blank"
				Note Time="48" Value="G3" Duration="2" Instrument="blank"
				Note Time="50" Value="A3" Duration="1" Instrument="blank" CutDelay="4"
				Note Time="51" Value="A3" Duration="1" Instrument="blank" CutDelay="4"
				Note Time="52" Value="A3" Duration="2" Release="1" Instrument="blank"
				Note Time="54" Value="G3" Duration="2" Instrument="blank"
				Note Time="56" Value="A3" Duration="1" Instrument="blank" CutDelay="4"
				Note Time="57" Value="A3" Duration="1" Instrument="blank" CutDelay="4"
				Note Time="58" Value="G3" Duration="2" Instrument="blank"
				Note Time="60" Value="A3" Duration="2" Instrument="blank"
				Note Time="62" Value="B3" Duration="2" Instrument="blank"
			Pattern Name="02" Color="eaffbd"
				Note Time="0" Value="D3" Duration="4" Release="2" Instrument="blank" Volume="8" DutyCycle="0"
				Note Time="4" Value="D3" Duration="2" Instrument="blank"
				Note Time="6" Value="C3" Duration="2" Instrument="blank"
				Note Time="8" Value="D3" Duration="1" Instrument="blank" CutDelay="4"
				Note Time="9" Value="D3" Duration="1" Instrument="blank" CutDelay="4"
				Note Time="10" Value="F3" Duration="2" Instrument="blank"
				Note Time="12" Value="E3" Duration="2" Instrument="blank"
				Note Time="14" Value="G3" Duration="2" Instrument="blank"
				Note Time="16" Value="A3" Duration="3" Release="2" Instrument="blank"
				Note Time="19" Value="A3" Duration="1" Instrument="blank" CutDelay="4"
				Note Time="20" Value="A3" Duration="2" Release="1" Instrument="blank"
				Note Time="22" Value="G3" Duration="2" Instrument="blank"
				Note Time="24" Value="A3" Duration="2" Instrument="blank"
				Note Time="26" Value="C4" Duration="2" Instrument="blank"
				Note Time="28" Value="B3" Duration="2" Instrument="blank"
				Note Time="30" Value="G3" Duration="2" Instrument="blank"
				Note Time="32" Value="A3" Duration="4" Release="2" Instrument="blank"
				Note Time="36" Value="A3" Duration="2" Instrument="blank"
				Note Time="38" Value="G3" Duration="2" Instrument="blank"
				Note Time="40" Value="A3" Duration="1" Instrument="blank" CutDelay="4"
				Note Time="41" Value="A3" Duration="1" Instrument="blank"
				Note Time="42" Value="B3" Duration="2" Instrument="blank"
				Note Time="44" Value="C4" Duration="2" Instrument="blank"
				Note Time="46" Value="B3" Duration="2" Instrument="blank"
				Note Time="48" Value="G3" Duration="2" Instrument="blank"
				Note Time="50" Value="A3" Duration="1" Instrument="blank" CutDelay="4"
				Note Time="51" Value="A3" Duration="1" Instrument="blank" CutDelay="4"
				Note Time="52" Value="A3" Duration="2" Release="1" Instrument="blank"
				Note Time="54" Value="G3" Duration="2" Instrument="blank"
				Note Time="56" Value="A3" Duration="1" Instrument="blank" CutDelay="4"
				Note Time="57" Value="A3" Duration="1" Instrument="blank" CutDelay="4"
				Note Time="58" Value="G3" Duration="2" Instrument="blank"
				Note Time="60" Value="A3" Duration="2" Instrument="blank"
				Note Time="62" Value="B3" Duration="2" Instrument="blank"
			Pattern Name="03" Color="65f2ff"
				Note Time="0" Value="D3" Duration="4" Instrument="blank" Volume="8" DutyCycle="0"
				Note Time="2" Volume="3"
				Note Time="4" Value="D3" Duration="2" Instrument="blank" Volume="8"
				Note Time="6" Value="C3" Duration="2" Instrument="blank"
				Note Time="8" Value="D3" Duration="1" Instrument="blank" CutDelay="4"
				Note Time="9" Value="D3" Duration="1" Instrument="blank" CutDelay="4"
				Note Time="10" Value="F3" Duration="2" Instrument="blank"
				Note Time="12" Value="E3" Duration="2" Instrument="blank"
				Note Time="14" Value="G3" Duration="2" Instrument="blank"
				Note Time="16" Value="A3" Duration="3" Instrument="blank"
				Note Time="18" Volume="3"
				Note Time="19" Value="A3" Duration="1" Instrument="blank" Volume="8" CutDelay="4"
				Note Time="20" Value="A3" Duration="2" Instrument="blank"
				Note Time="21" Volume="3"
				Note Time="22" Value="G3" Duration="2" Instrument="blank" Volume="8"
				Note Time="24" Value="A3" Duration="2" Instrument="blank"
				Note Time="26" Value="C4" Duration="2" Instrument="blank"
				Note Time="28" Value="B3" Duration="2" Instrument="blank"
				Note Time="30" Value="G3" Duration="2" Instrument="blank"
				Note Time="32" Value="A3" Duration="4" Instrument="blank"
				Note Time="34" Volume="4"
				Note Time="36" Value="A3" Duration="2" Instrument="blank" Volume="8"
				Note Time="38" Value="G3" Duration="2" Instrument="blank"
				Note Time="40" Value="A3" Duration="1" Instrument="blank" CutDelay="4"
				Note Time="41" Value="A3" Duration="1" Instrument="blank"
				Note Time="42" Value="B3" Duration="2" Instrument="blank"
				Note Time="44" Value="C4" Duration="2" Instrument="blank"
				Note Time="46" Value="B3" Duration="2" Instrument="blank"
				Note Time="48" Value="G3" Duration="2" Instrument="blank"
				Note Time="50" Value="A3" Duration="1" Instrument="blank" CutDelay="4"
				Note Time="51" Value="A3" Duration="1" Instrument="blank" CutDelay="4"
				Note Time="52" Value="A3" Duration="2" Instrument="blank"
				Note Time="53" Volume="4"
				Note Time="54" Value="G3" Duration="2" Instrument="blank" Volume="8"
				Note Time="56" Value="A3" Duration="1" Instrument="blank" CutDelay="4"
				Note Time="57" Value="G3" Duration="1" Instrument="blank" CutDelay="4"
				Note Time="58" Value="A3" Duration="1" Instrument="blank" CutDelay="4"
				Note Time="59" Value="G3" Duration="1" Instrument="blank" CutDelay="4"
				Note Time="60" Value="A3" Duration="2" Instrument="blank"
				Note Time="62" Value="B3" Duration="34" Instrument="blank"
			Pattern Name="04" Color="d863ec"
				Note Time="0" Volume="8"
				Note Time="2" Volume="7"
				Note Time="5" Volume="6"
				Note Time="9" Volume="5"
				Note Time="14" Volume="4"
				Note Time="20" Volume="2"
				Note Time="26" Volume="1"
			Pattern Name="05" Color="ff935e"
				Note Time="0" Value="D3" Duration="3" Release="2" Instrument="blank" Volume="8" DutyCycle="0"
				Note Time="3" Value="D3" Duration="1" Instrument="blank" CutDelay="4"
				Note Time="4" Value="D3" Duration="2" Instrument="blank"
				Note Time="6" Value="C3" Duration="2" Instrument="blank"
				Note Time="8" Value="D3" Duration="2" Instrument="blank"
				Note Time="10" Value="F3" Duration="2" Instrument="blank"
				Note Time="12" Value="E3" Duration="2" Instrument="blank"
				Note Time="14" Value="G3" Duration="2" Instrument="blank"
				Note Time="16" Value="C4" Duration="1" Instrument="blank" CutDelay="4"
				Note Time="17" Value="C4" Duration="1" Instrument="blank" CutDelay="4"
				Note Time="18" Value="C4" Duration="1" Instrument="blank" CutDelay="4"
				Note Time="19" Value="C4" Duration="1" Instrument="blank" CutDelay="4"
				Note Time="20" Value="B3" Duration="2" Instrument="blank"
				Note Time="22" Value="G3" Duration="2" Instrument="blank"
				Note Time="24" Value="C4" Duration="2" Release="1" Instrument="blank"
				Note Time="26" Value="C4" Duration="1" Instrument="blank" CutDelay="4"
				Note Time="27" Value="C4" Duration="1" Instrument="blank" CutDelay="4"
				Note Time="28" Value="B3" Duration="2" Instrument="blank"
				Note Time="30" Value="G3" Duration="2" Instrument="blank"
				Note Time="32" Value="A3" Duration="4" Release="2" Instrument="blank"
				Note Time="36" Value="A3" Duration="2" Instrument="blank"
				Note Time="38" Value="G3" Duration="2" Instrument="blank"
				Note Time="40" Value="A3" Duration="2" Instrument="blank"
				Note Time="42" Value="B3" Duration="1" Instrument="blank" CutDelay="4"
				Note Time="43" Value="B3" Duration="1" Instrument="blank" CutDelay="4"
				Note Time="44" Value="C4" Duration="2" Instrument="blank"
				Note Time="46" Value="B3" Duration="2" Instrument="blank"
				Note Time="48" Value="G3" Duration="2" Instrument="blank"
				Note Time="50" Value="A3" Duration="1" Instrument="blank" CutDelay="4"
				Note Time="51" Value="A3" Duration="1" Instrument="blank" CutDelay="4"
				Note Time="52" Value="A3" Duration="2" Release="1" Instrument="blank"
				Note Time="54" Value="G3" Duration="2" Instrument="blank"
				Note Time="56" Value="A3" Duration="1" Instrument="blank" CutDelay="4"
				Note Time="57" Value="G3" Duration="1" Instrument="blank" CutDelay="4"
				Note Time="58" Value="A3" Duration="1" Instrument="blank" CutDelay="4"
				Note Time="59" Value="G3" Duration="1" Instrument="blank" CutDelay="4"
				Note Time="60" Value="A3" Duration="1" Instrument="blank" CutDelay="4"
				Note Time="61" Value="G3" Duration="1" Instrument="blank" CutDelay="4"
				Note Time="62" Value="B3" Duration="2" Instrument="blank"
			Pattern Name="06" Color="fcff6f"
				Note Time="0" Value="D2" Duration="4" Release="3" Instrument="blank" Volume="8" DutyCycle="1"
				Note Time="4" Value="D2" Duration="2" Release="1" Instrument="blank"
				Note Time="6" Value="D2" Duration="4" Release="3" Instrument="blank"
				Note Time="10" Value="D2" Duration="2" Release="1" Instrument="blank"
				Note Time="12" Value="D2" Duration="2" Release="1" Instrument="blank"
				Note Time="14" Value="G2" Duration="2" Instrument="blank"
				Note Time="16" Value="A2" Duration="4" Release="3" Instrument="blank"
				Note Time="20" Value="A2" Duration="2" Release="1" Instrument="blank"
				Note Time="22" Value="A2" Duration="4" Release="3" Instrument="blank"
				Note Time="26" Value="G2" Duration="2" Release="1" Instrument="blank"
				Note Time="28" Value="C3" Duration="2" Release="1" Instrument="blank"
				Note Time="30" Value="B2" Duration="2" Instrument="blank"
				Note Time="32" Value="A2" Duration="4" Release="3" Instrument="blank"
				Note Time="36" Value="A2" Duration="2" Release="1" Instrument="blank"
				Note Time="38" Value="A2" Duration="4" Release="3" Instrument="blank"
				Note Time="42" Value="A2" Duration="2" Release="1" Instrument="blank"
				Note Time="44" Value="A2" Duration="2" Release="1" Instrument="blank"
				Note Time="46" Value="C3" Duration="2" Release="1" Instrument="blank"
				Note Time="48" Value="G2" Duration="4" Release="3" Instrument="blank"
				Note Time="52" Value="G2" Duration="2" Release="1" Instrument="blank"
				Note Time="54" Value="G2" Duration="4" Release="3" Instrument="blank"
				Note Time="58" Value="G2" Duration="2" Release="1" Instrument="blank"
				Note Time="60" Value="B2" Duration="4" Release="3" Instrument="blank"
			Pattern Name="07" Color="3cd3e3"
				Note Time="0" Value="D2" Duration="4" Release="2" Instrument="blank" Volume="8" DutyCycle="1"
				Note Time="4" Value="D2" Duration="2" Release="1" Instrument="blank"
				Note Time="6" Value="D2" Duration="4" Release="2" Instrument="blank"
				Note Time="10" Value="D2" Duration="2" Release="1" Instrument="blank"
				Note Time="12" Value="D2" Duration="2" Release="1" Instrument="blank"
				Note Time="14" Value="G2" Duration="2" Instrument="blank"
				Note Time="16" Value="A2" Duration="4" Release="2" Instrument="blank"
				Note Time="20" Value="A2" Duration="2" Release="1" Instrument="blank"
				Note Time="22" Value="A2" Duration="4" Release="2" Instrument="blank"
				Note Time="26" Value="G2" Duration="2" Release="1" Instrument="blank"
				Note Time="28" Value="C3" Duration="2" Release="1" Instrument="blank"
				Note Time="30" Value="B2" Duration="2" Instrument="blank"
				Note Time="32" Value="A2" Duration="4" Release="2" Instrument="blank"
				Note Time="36" Value="A2" Duration="2" Release="1" Instrument="blank"
				Note Time="38" Value="A2" Duration="4" Release="2" Instrument="blank"
				Note Time="42" Value="A2" Duration="2" Release="1" Instrument="blank"
				Note Time="44" Value="A2" Duration="2" Release="1" Instrument="blank"
				Note Time="46" Value="C3" Duration="2" Release="1" Instrument="blank"
				Note Time="48" Value="G2" Duration="16" Instrument="blank"
				Note Time="49" Volume="8"
				Note Time="50" Volume="7"
				Note Time="51" Volume="6"
				Note Time="52" Volume="5"
				Note Time="53" Volume="4"
				Note Time="54" Volume="3"
				Note Time="55" Volume="2"
				Note Time="56" Volume="1"
				Note Time="57" Volume="0"
			PatternInstance Time="0" Pattern="01"
			PatternInstance Time="1" Pattern="01"
			PatternInstance Time="2" Pattern="02"
			PatternInstance Time="3" Pattern="03"
			PatternInstance Time="4" Pattern="04"
			PatternInstance Time="5" Pattern="02"
			PatternInstance Time="6" Pattern="05"
			PatternInstance Time="7" Pattern="02"
			PatternInstance Time="8" Pattern="02"
			PatternInstance Time="9" Pattern="02"
			PatternInstance Time="10" Pattern="05"
			PatternInstance Time="11" Pattern="06"
			PatternInstance Time="12" Pattern="07"
		Channel Type="Square2"
			Pattern Name="01" Color="8163dc"
				Note Time="0" Value="D2" Duration="16" Instrument="blank string" Volume="13" DutyCycle="1"
				Note Time="1" Volume="10"
				Note Time="2" Volume="7"
				Note Time="4" Volume="13"
				Note Time="5" Volume="10"
				Note Time="6" Volume="7"
				Note Time="8" Volume="13"
				Note Time="9" Volume="10"
				Note Time="10" Volume="7"
				Note Time="12" Volume="13"
				Note Time="13" Volume="10"
				Note Time="14" Volume="7"
				Note Time="16" Value="A1" Duration="16" Instrument="blank string" Volume="13"
				Note Time="17" Volume="10"
				Note Time="18" Volume="7"
				Note Time="20" Volume="13"
				Note Time="21" Volume="10"
				Note Time="22" Volume="7"
				Note Time="24" Volume="13"
				Note Time="25" Volume="10"
				Note Time="26" Volume="7"
				Note Time="28" Volume="13"
				Note Time="29" Volume="10"
				Note Time="30" Volume="7"
				Note Time="32" Value="A2" Duration="16" Instrument="blank string" Volume="13"
				Note Time="33" Volume="10"
				Note Time="34" Volume="7"
				Note Time="36" Volume="13"
				Note Time="37" Volume="10"
				Note Time="38" Volume="7"
				Note Time="40" Volume="13"
				Note Time="41" Volume="10"
				Note Time="42" Volume="7"
				Note Time="44" Volume="13"
				Note Time="45" Volume="10"
				Note Time="46" Volume="7"
				Note Time="48" Value="G2" Duration="16" Instrument="blank string" Volume="13"
				Note Time="49" Volume="10"
				Note Time="50" Volume="7"
				Note Time="52" Volume="13"
				Note Time="53" Volume="10"
				Note Time="54" Volume="7"
				Note Time="56" Volume="13"
				Note Time="57" Volume="10"
				Note Time="58" Volume="7"
				Note Time="60" Volume="13"
				Note Time="61" Volume="10"
				Note Time="62" Volume="7"
			Pattern Name="02" Color="8a706a"
				Note Time="0" Value="D2" Duration="16" Instrument="shift string lite" Volume="13" DutyCycle="1"
				Note Time="1" Volume="10"
				Note Time="2" Volume="9"
				Note Time="4" Volume="13"
				Note Time="5" Volume="10"
				Note Time="6" Volume="9"
				Note Time="8" Volume="13"
				Note Time="9" Volume="10"
				Note Time="10" Volume="9"
				Note Time="12" Volume="13"
				Note Time="13" Volume="10"
				Note Time="14" Volume="9"
				Note Time="16" Value="A1" Duration="16" Instrument="shift string lite" Volume="13"
				Note Time="17" Volume="10"
				Note Time="18" Volume="9"
				Note Time="20" Volume="13"
				Note Time="21" Volume="10"
				Note Time="22" Volume="9"
				Note Time="24" Volume="13"
				Note Time="25" Volume="10"
				Note Time="26" Volume="9"
				Note Time="28" Volume="13"
				Note Time="29" Volume="10"
				Note Time="30" Volume="9"
				Note Time="32" Value="A2" Duration="16" Instrument="shift string lite" Volume="13"
				Note Time="33" Volume="10"
				Note Time="34" Volume="9"
				Note Time="36" Volume="13"
				Note Time="37" Volume="10"
				Note Time="38" Volume="9"
				Note Time="40" Volume="13"
				Note Time="41" Volume="10"
				Note Time="42" Volume="9"
				Note Time="44" Volume="13"
				Note Time="45" Volume="10"
				Note Time="46" Volume="9"
				Note Time="48" Value="G2" Duration="16" Instrument="shift string lite" Volume="13"
				Note Time="49" Volume="10"
				Note Time="50" Volume="9"
				Note Time="52" Volume="13"
				Note Time="53" Volume="10"
				Note Time="54" Volume="9"
				Note Time="56" Volume="13"
				Note Time="57" Volume="10"
				Note Time="58" Volume="9"
				Note Time="60" Volume="13"
				Note Time="61" Volume="10"
				Note Time="62" Volume="9"
			Pattern Name="03" Color="ffffb2"
				Note Time="0" Value="D2" Duration="16" Instrument="shift string lite" Arpeggio="Arp CC" Volume="15"
				Note Time="1" Volume="13"
				Note Time="4" Volume="15"
				Note Time="5" Volume="13"
				Note Time="8" Volume="15"
				Note Time="9" Volume="13"
				Note Time="12" Volume="15"
				Note Time="13" Volume="13"
				Note Time="16" Value="A1" Duration="16" Instrument="shift string lite" Arpeggio="Arp CC" Volume="15"
				Note Time="17" Volume="13"
				Note Time="20" Volume="15"
				Note Time="21" Volume="13"
				Note Time="24" Volume="15"
				Note Time="25" Volume="13"
				Note Time="28" Volume="15"
				Note Time="29" Volume="13"
				Note Time="32" Value="A2" Duration="16" Instrument="shift string lite" Arpeggio="Arp CC" Volume="15"
				Note Time="33" Volume="13"
				Note Time="36" Volume="15"
				Note Time="37" Volume="13"
				Note Time="40" Volume="15"
				Note Time="41" Volume="13"
				Note Time="44" Volume="15"
				Note Time="45" Volume="13"
				Note Time="48" Value="G2" Duration="16" Instrument="shift string lite" Arpeggio="Arp CC" Volume="15"
				Note Time="49" Volume="13"
				Note Time="52" Volume="15"
				Note Time="53" Volume="13"
				Note Time="56" Volume="15"
				Note Time="57" Volume="13"
				Note Time="60" Volume="15"
				Note Time="61" Volume="13"
			Pattern Name="04" Color="62e2d6"
				Note Time="0" Value="G2" Duration="160" Instrument="shift string lite" Arpeggio="Arp CC" Volume="15"
				Note Time="1" Volume="13"
				Note Time="4" Volume="15"
				Note Time="5" Volume="13"
				Note Time="8" Volume="15"
				Note Time="9" Volume="13"
				Note Time="12" Volume="15"
				Note Time="13" Volume="13"
				Note Time="16" Volume="15"
				Note Time="17" Volume="14"
				Note Time="18" Volume="13"
				Note Time="19" Volume="12"
				Note Time="20" Volume="11"
				Note Time="21" Volume="10"
				Note Time="22" Volume="9"
				Note Time="23" Volume="8"
				Note Time="24" Volume="7"
				Note Time="25" Volume="6"
				Note Time="26" Volume="5"
				Note Time="27" Volume="4"
				Note Time="28" Volume="3"
				Note Time="29" Volume="2"
				Note Time="30" Volume="1"
				Note Time="31" Volume="0"
			Pattern Name="00" Color="7585e7"
				Note Time="1" Value="D3" Duration="4" Release="2" Instrument="blank" Volume="3" DutyCycle="3"
				Note Time="5" Value="D3" Duration="2" Instrument="blank"
				Note Time="7" Value="C3" Duration="2" Instrument="blank"
				Note Time="9" Value="D3" Duration="1" Instrument="blank" CutDelay="4"
				Note Time="10" Value="D3" Duration="1" Instrument="blank" CutDelay="4"
				Note Time="11" Value="F3" Duration="2" Instrument="blank"
				Note Time="13" Value="E3" Duration="2" Instrument="blank"
				Note Time="15" Value="G3" Duration="2" Instrument="blank"
				Note Time="17" Value="A3" Duration="3" Release="2" Instrument="blank"
				Note Time="20" Value="A3" Duration="1" Instrument="blank" CutDelay="4"
				Note Time="21" Value="A3" Duration="2" Release="1" Instrument="blank"
				Note Time="23" Value="G3" Duration="2" Instrument="blank"
				Note Time="25" Value="A3" Duration="2" Instrument="blank"
				Note Time="27" Value="C4" Duration="2" Instrument="blank"
				Note Time="29" Value="B3" Duration="2" Instrument="blank"
				Note Time="31" Value="G3" Duration="2" Instrument="blank"
				Note Time="33" Value="A3" Duration="4" Release="2" Instrument="blank"
				Note Time="37" Value="A3" Duration="2" Instrument="blank"
				Note Time="39" Value="G3" Duration="2" Instrument="blank"
				Note Time="41" Value="A3" Duration="1" Instrument="blank" CutDelay="4"
				Note Time="42" Value="A3" Duration="1" Instrument="blank"
				Note Time="43" Value="B3" Duration="2" Instrument="blank"
				Note Time="45" Value="C4" Duration="2" Instrument="blank"
				Note Time="47" Value="B3" Duration="2" Instrument="blank"
				Note Time="49" Value="G3" Duration="2" Instrument="blank"
				Note Time="51" Value="A3" Duration="1" Instrument="blank" CutDelay="4"
				Note Time="52" Value="A3" Duration="1" Instrument="blank" CutDelay="4"
				Note Time="53" Value="A3" Duration="2" Release="1" Instrument="blank"
				Note Time="55" Value="G3" Duration="2" Instrument="blank"
				Note Time="57" Value="A3" Duration="1" Instrument="blank" CutDelay="4"
				Note Time="58" Value="A3" Duration="1" Instrument="blank" CutDelay="4"
				Note Time="59" Value="G3" Duration="2" Instrument="blank"
				Note Time="61" Value="A3" Duration="4" Instrument="blank"
			Pattern Name="09" Color="ff7571"
				Note Time="0" Value="D3" Duration="16" Instrument="blank string" Arpeggio="Arp CC" Volume="4"
				Note Time="1" Volume="6"
				Note Time="2" Volume="8"
				Note Time="12" Volume="7"
				Note Time="13" Volume="6"
				Note Time="14" Volume="5"
				Note Time="15" Volume="4"
				Note Time="16" Value="A3" Duration="16" Instrument="blank string" Arpeggio="Arp CC" Volume="4"
				Note Time="17" Volume="6"
				Note Time="18" Volume="8"
				Note Time="28" Volume="7"
				Note Time="29" Volume="6"
				Note Time="30" Volume="5"
				Note Time="31" Volume="4"
				Note Time="32" Value="A3" Duration="16" Instrument="blank string" Arpeggio="Arp CC" Volume="4"
				Note Time="33" Volume="6"
				Note Time="34" Volume="8"
				Note Time="44" Volume="7"
				Note Time="45" Volume="6"
				Note Time="46" Volume="5"
				Note Time="47" Volume="4"
				Note Time="48" Value="G3" Duration="16" Instrument="blank string" Arpeggio="Arp CC" Volume="4"
				Note Time="49" Volume="6"
				Note Time="50" Volume="8"
				Note Time="60" Volume="7"
				Note Time="61" Volume="6"
				Note Time="62" Volume="5"
				Note Time="63" Volume="4"
			Pattern Name="08" Color="ffef3c"
				Note Time="0" Value="D3" Duration="4" Release="2" Instrument="blank" Arpeggio="Arp CC" Volume="6" FinePitch="1" DutyCycle="0"
				Note Time="4" Value="D3" Duration="2" Instrument="blank" Arpeggio="Arp CC"
				Note Time="6" Value="C3" Duration="2" Instrument="blank" Arpeggio="Arp CC"
				Note Time="8" Value="D3" Duration="1" Instrument="blank" Arpeggio="Arp CC" CutDelay="4"
				Note Time="9" Value="D3" Duration="1" Instrument="blank" Arpeggio="Arp CC" CutDelay="4"
				Note Time="10" Value="F3" Duration="2" Instrument="blank" Arpeggio="Arp CC"
				Note Time="12" Value="E3" Duration="2" Instrument="blank" Arpeggio="Arp CC"
				Note Time="14" Value="G3" Duration="2" Instrument="blank" Arpeggio="Arp CC"
				Note Time="16" Value="A3" Duration="3" Release="2" Instrument="blank" Arpeggio="Arp CC"
				Note Time="19" Value="A3" Duration="1" Instrument="blank" Arpeggio="Arp CC" CutDelay="4"
				Note Time="20" Value="A3" Duration="2" Release="1" Instrument="blank" Arpeggio="Arp CC"
				Note Time="22" Value="G3" Duration="2" Instrument="blank" Arpeggio="Arp CC"
				Note Time="24" Value="A3" Duration="2" Instrument="blank" Arpeggio="Arp CC"
				Note Time="26" Value="C4" Duration="2" Instrument="blank" Arpeggio="Arp CC"
				Note Time="28" Value="B3" Duration="2" Instrument="blank" Arpeggio="Arp CC"
				Note Time="30" Value="G3" Duration="2" Instrument="blank" Arpeggio="Arp CC"
				Note Time="32" Value="A3" Duration="4" Release="2" Instrument="blank" Arpeggio="Arp CC"
				Note Time="36" Value="A3" Duration="2" Instrument="blank" Arpeggio="Arp CC"
				Note Time="38" Value="G3" Duration="2" Instrument="blank" Arpeggio="Arp CC"
				Note Time="40" Value="A3" Duration="1" Instrument="blank" Arpeggio="Arp CC" CutDelay="4"
				Note Time="41" Value="A3" Duration="1" Instrument="blank" Arpeggio="Arp CC"
				Note Time="42" Value="B3" Duration="2" Instrument="blank" Arpeggio="Arp CC"
				Note Time="44" Value="C4" Duration="2" Instrument="blank" Arpeggio="Arp CC"
				Note Time="46" Value="B3" Duration="2" Instrument="blank" Arpeggio="Arp CC"
				Note Time="48" Value="G3" Duration="2" Instrument="blank" Arpeggio="Arp CC"
				Note Time="50" Value="A3" Duration="1" Instrument="blank" Arpeggio="Arp CC" CutDelay="4"
				Note Time="51" Value="A3" Duration="1" Instrument="blank" Arpeggio="Arp CC" CutDelay="4"
				Note Time="52" Value="A3" Duration="2" Release="1" Instrument="blank" Arpeggio="Arp CC"
				Note Time="54" Value="G3" Duration="2" Instrument="blank" Arpeggio="Arp CC"
				Note Time="56" Value="A3" Duration="1" Instrument="blank" Arpeggio="Arp CC" CutDelay="4"
				Note Time="57" Value="A3" Duration="1" Instrument="blank" Arpeggio="Arp CC" CutDelay="4"
				Note Time="58" Value="G3" Duration="2" Instrument="blank" Arpeggio="Arp CC"
				Note Time="60" Value="A3" Duration="2" Instrument="blank" Arpeggio="Arp CC"
				Note Time="62" Value="B3" Duration="2" Instrument="blank" Arpeggio="Arp CC"
			Pattern Name="05" Color="74ca78"
				Note Time="0" Value="D3" Duration="3" Release="2" Instrument="blank" Arpeggio="Arp CC" Volume="6" DutyCycle="0"
				Note Time="3" Value="D3" Duration="1" Instrument="blank" Arpeggio="Arp CC" CutDelay="4"
				Note Time="4" Value="D3" Duration="2" Instrument="blank" Arpeggio="Arp CC"
				Note Time="6" Value="C3" Duration="2" Instrument="blank" Arpeggio="Arp CC"
				Note Time="8" Value="D3" Duration="2" Instrument="blank" Arpeggio="Arp CC"
				Note Time="10" Value="F3" Duration="2" Instrument="blank" Arpeggio="Arp CC"
				Note Time="12" Value="E3" Duration="2" Instrument="blank" Arpeggio="Arp CC"
				Note Time="14" Value="G3" Duration="2" Instrument="blank" Arpeggio="Arp CC"
				Note Time="16" Value="C4" Duration="1" Instrument="blank" Arpeggio="Arp CC" CutDelay="4"
				Note Time="17" Value="C4" Duration="1" Instrument="blank" Arpeggio="Arp CC" CutDelay="4"
				Note Time="18" Value="C4" Duration="1" Instrument="blank" Arpeggio="Arp CC" CutDelay="4"
				Note Time="19" Value="C4" Duration="1" Instrument="blank" Arpeggio="Arp CC" CutDelay="4"
				Note Time="20" Value="B3" Duration="2" Instrument="blank" Arpeggio="Arp CC"
				Note Time="22" Value="G3" Duration="2" Instrument="blank" Arpeggio="Arp CC"
				Note Time="24" Value="C4" Duration="2" Release="1" Instrument="blank" Arpeggio="Arp CC"
				Note Time="26" Value="C4" Duration="1" Instrument="blank" Arpeggio="Arp CC" CutDelay="4"
				Note Time="27" Value="C4" Duration="1" Instrument="blank" Arpeggio="Arp CC" CutDelay="4"
				Note Time="28" Value="B3" Duration="2" Instrument="blank" Arpeggio="Arp CC"
				Note Time="30" Value="G3" Duration="2" Instrument="blank" Arpeggio="Arp CC"
				Note Time="32" Value="A3" Duration="4" Release="2" Instrument="blank" Arpeggio="Arp CC"
				Note Time="36" Value="A3" Duration="2" Instrument="blank" Arpeggio="Arp CC"
				Note Time="38" Value="G3" Duration="2" Instrument="blank" Arpeggio="Arp CC"
				Note Time="40" Value="A3" Duration="2" Instrument="blank" Arpeggio="Arp CC"
				Note Time="42" Value="B3" Duration="1" Instrument="blank" Arpeggio="Arp CC" CutDelay="4"
				Note Time="43" Value="B3" Duration="1" Instrument="blank" Arpeggio="Arp CC" CutDelay="4"
				Note Time="44" Value="C4" Duration="2" Instrument="blank" Arpeggio="Arp CC"
				Note Time="46" Value="B3" Duration="2" Instrument="blank" Arpeggio="Arp CC"
				Note Time="48" Value="G3" Duration="2" Instrument="blank" Arpeggio="Arp CC"
				Note Time="50" Value="A3" Duration="1" Instrument="blank" Arpeggio="Arp CC" CutDelay="4"
				Note Time="51" Value="A3" Duration="1" Instrument="blank" Arpeggio="Arp CC" CutDelay="4"
				Note Time="52" Value="A3" Duration="2" Release="1" Instrument="blank" Arpeggio="Arp CC"
				Note Time="54" Value="G3" Duration="2" Instrument="blank" Arpeggio="Arp CC"
				Note Time="56" Value="A3" Duration="1" Instrument="blank" Arpeggio="Arp CC" CutDelay="4"
				Note Time="57" Value="G3" Duration="1" Instrument="blank" Arpeggio="Arp CC" CutDelay="4"
				Note Time="58" Value="A3" Duration="1" Instrument="blank" Arpeggio="Arp CC" CutDelay="4"
				Note Time="59" Value="G3" Duration="1" Instrument="blank" Arpeggio="Arp CC" CutDelay="4"
				Note Time="60" Value="A3" Duration="1" Instrument="blank" Arpeggio="Arp CC" CutDelay="4"
				Note Time="61" Value="G3" Duration="1" Instrument="blank" Arpeggio="Arp CC" CutDelay="4"
				Note Time="62" Value="B3" Duration="2" Instrument="blank" Arpeggio="Arp CC"
			Pattern Name="06" Color="51a1fc"
				Note Time="0" Value="D3" Duration="4" Release="3" Instrument="blank" Arpeggio="Arp CC" Volume="4" DutyCycle="3"
				Note Time="1" FinePitch="1"
				Note Time="4" Value="D3" Duration="2" Release="1" Instrument="blank" Arpeggio="Arp CC"
				Note Time="6" Value="D3" Duration="4" Release="3" Instrument="blank" Arpeggio="Arp CC"
				Note Time="10" Value="D3" Duration="2" Release="1" Instrument="blank" Arpeggio="Arp CC"
				Note Time="12" Value="D3" Duration="2" Release="1" Instrument="blank" Arpeggio="Arp CC"
				Note Time="14" Value="G3" Duration="2" Instrument="blank" Arpeggio="Arp CC"
				Note Time="16" Value="A3" Duration="4" Release="3" Instrument="blank" Arpeggio="Arp CC" Volume="5"
				Note Time="20" Value="A3" Duration="2" Release="1" Instrument="blank" Arpeggio="Arp CC"
				Note Time="22" Value="A3" Duration="4" Release="3" Instrument="blank" Arpeggio="Arp CC"
				Note Time="26" Value="G3" Duration="2" Release="1" Instrument="blank" Arpeggio="Arp CC"
				Note Time="28" Value="C4" Duration="2" Release="1" Instrument="blank" Arpeggio="Arp CC"
				Note Time="30" Value="B3" Duration="2" Instrument="blank" Arpeggio="Arp CC"
				Note Time="32" Value="A3" Duration="4" Release="3" Instrument="blank" Arpeggio="Arp CC" Volume="6"
				Note Time="36" Value="A3" Duration="2" Release="1" Instrument="blank" Arpeggio="Arp CC"
				Note Time="38" Value="A3" Duration="4" Release="3" Instrument="blank" Arpeggio="Arp CC"
				Note Time="42" Value="A3" Duration="2" Release="1" Instrument="blank" Arpeggio="Arp CC"
				Note Time="44" Value="A3" Duration="2" Release="1" Instrument="blank" Arpeggio="Arp CC"
				Note Time="46" Value="C4" Duration="2" Release="1" Instrument="blank" Arpeggio="Arp CC"
				Note Time="48" Value="G3" Duration="4" Release="3" Instrument="blank" Arpeggio="Arp CC" Volume="7"
				Note Time="52" Value="G3" Duration="2" Release="1" Instrument="blank" Arpeggio="Arp CC"
				Note Time="54" Value="G3" Duration="4" Release="3" Instrument="blank" Arpeggio="Arp CC"
				Note Time="58" Value="G3" Duration="2" Release="1" Instrument="blank" Arpeggio="Arp CC"
				Note Time="60" Value="B3" Duration="4" Release="3" Instrument="blank" Arpeggio="Arp CC"
			Pattern Name="07" Color="ff9ece"
				Note Time="0" Value="D3" Duration="4" Release="2" Instrument="blank" Volume="8" DutyCycle="0"
				Note Time="1" FinePitch="1"
				Note Time="4" Value="D3" Duration="2" Release="1" Instrument="blank"
				Note Time="6" Value="D3" Duration="4" Release="2" Instrument="blank"
				Note Time="10" Value="D3" Duration="2" Release="1" Instrument="blank"
				Note Time="12" Value="D3" Duration="2" Release="1" Instrument="blank"
				Note Time="14" Value="G3" Duration="2" Instrument="blank"
				Note Time="16" Value="A3" Duration="4" Release="2" Instrument="blank" Volume="9"
				Note Time="20" Value="A3" Duration="2" Release="1" Instrument="blank"
				Note Time="22" Value="A3" Duration="4" Release="2" Instrument="blank"
				Note Time="26" Value="G3" Duration="2" Release="1" Instrument="blank"
				Note Time="28" Value="C4" Duration="2" Release="1" Instrument="blank"
				Note Time="30" Value="B3" Duration="2" Instrument="blank"
				Note Time="32" Value="A3" Duration="4" Release="2" Instrument="blank" Volume="10"
				Note Time="36" Value="A3" Duration="2" Release="1" Instrument="blank"
				Note Time="38" Value="A3" Duration="4" Release="2" Instrument="blank"
				Note Time="42" Value="A3" Duration="2" Release="1" Instrument="blank"
				Note Time="44" Value="A3" Duration="2" Release="1" Instrument="blank"
				Note Time="46" Value="C4" Duration="2" Release="1" Instrument="blank"
				Note Time="48" Value="G3" Duration="16" Instrument="blank"
				Note Time="49" Volume="9"
				Note Time="50" Volume="8"
				Note Time="51" Volume="7"
				Note Time="52" Volume="6"
				Note Time="53" Volume="5"
				Note Time="54" Volume="4"
				Note Time="55" Volume="3"
				Note Time="56" Volume="2"
				Note Time="57" Volume="1"
				Note Time="58" Volume="0"
			PatternInstance Time="0" Pattern="01"
			PatternInstance Time="1" Pattern="02"
			PatternInstance Time="2" Pattern="03"
			PatternInstance Time="3" Pattern="03"
			PatternInstance Time="4" Pattern="04"
			PatternInstance Time="5" Pattern="00"
			PatternInstance Time="6" Pattern="00"
			PatternInstance Time="7" Pattern="09"
			PatternInstance Time="8" Pattern="09"
			PatternInstance Time="9" Pattern="08"
			PatternInstance Time="10" Pattern="05"
			PatternInstance Time="11" Pattern="06"
			PatternInstance Time="12" Pattern="07"
		Channel Type="Triangle"
			Pattern Name="00" Color="fff389"
				Note Time="0" Value="D4" Duration="24" Instrument="DMC: drums + bass" SlideTarget="A0"
				Note Time="60" Value="A4" Duration="4" Instrument="triangle drums"
			Pattern Name="01" Color="d8ffa1"
				Note Time="0" Value="A4" Duration="4" Instrument="triangle drums"
			Pattern Name="02" Color="3fe5ff"
				Note Time="16" Value="G3" Duration="16" Instrument="blank" SlideTarget="D2"
			Pattern Name="08" Color="ca60e6"
				Note Time="0" Value="D2" Duration="2" Instrument="blank"
				Note Time="4" Value="G4" Duration="2" Instrument="triangle drums"
				Note Time="8" Value="D2" Duration="2" Instrument="blank"
				Note Time="12" Value="G4" Duration="2" Instrument="triangle drums"
				Note Time="16" Value="A2" Duration="2" Instrument="blank"
				Note Time="20" Value="G4" Duration="2" Instrument="triangle drums"
				Note Time="24" Value="A2" Duration="2" Instrument="blank"
				Note Time="28" Value="G4" Duration="2" Instrument="triangle drums"
				Note Time="32" Value="A2" Duration="2" Instrument="blank"
				Note Time="36" Value="G4" Duration="2" Instrument="triangle drums"
				Note Time="40" Value="A2" Duration="2" Instrument="blank"
				Note Time="44" Value="G4" Duration="2" Instrument="triangle drums"
				Note Time="48" Value="G2" Duration="2" Instrument="blank"
				Note Time="52" Value="G4" Duration="2" Instrument="triangle drums"
				Note Time="56" Value="G2" Duration="2" Instrument="blank"
				Note Time="60" Value="G4" Duration="2" Instrument="triangle drums"
			Pattern Name="09" Color="d1b1ff"
				Note Time="0" Value="D2" Duration="2" Instrument="blank"
				Note Time="4" Value="G4" Duration="2" Instrument="triangle drums"
				Note Time="8" Value="D2" Duration="2" Instrument="blank"
				Note Time="12" Value="G4" Duration="2" Instrument="triangle drums"
				Note Time="16" Value="A2" Duration="2" Instrument="blank"
				Note Time="20" Value="G4" Duration="2" Instrument="triangle drums"
				Note Time="24" Value="A2" Duration="2" Instrument="blank"
				Note Time="28" Value="G4" Duration="2" Instrument="triangle drums"
				Note Time="32" Value="A2" Duration="2" Instrument="blank"
				Note Time="36" Value="G4" Duration="2" Instrument="triangle drums"
				Note Time="40" Value="A2" Duration="2" Instrument="blank"
				Note Time="44" Value="G4" Duration="2" Instrument="triangle drums"
				Note Time="48" Value="G2" Duration="2" Instrument="blank"
				Note Time="52" Value="G4" Duration="2" Instrument="triangle drums"
				Note Time="56" Value="G4" Duration="1" Instrument="triangle drums" CutDelay="5"
				Note Time="57" Value="G4" Duration="1" Instrument="triangle drums" CutDelay="5"
				Note Time="58" Value="G2" Duration="1" Instrument="blank"
				Note Time="59" Value="G4" Duration="1" Instrument="triangle drums" CutDelay="5"
				Note Time="60" Value="G4" Duration="1" Instrument="triangle drums" CutDelay="5"
				Note Time="61" Value="G4" Duration="1" Instrument="triangle drums" CutDelay="5"
				Note Time="62" Value="G2" Duration="1" Instrument="blank"
				Note Time="63" Value="G4" Duration="1" Instrument="triangle drums" CutDelay="5"
			Pattern Name="06" Color="ff8d5a"
				Note Time="0" Value="D3" Duration="32" Instrument="blank" SlideTarget="E1"
			PatternInstance Time="0" Pattern="00"
			PatternInstance Time="1" Pattern="01"
			PatternInstance Time="2" Pattern="01"
			PatternInstance Time="3" Pattern="01"
			PatternInstance Time="4" Pattern="02"
			PatternInstance Time="5" Pattern="08"
			PatternInstance Time="6" Pattern="08"
			PatternInstance Time="7" Pattern="08"
			PatternInstance Time="8" Pattern="09"
			PatternInstance Time="9" Pattern="08"
			PatternInstance Time="10" Pattern="09"
			PatternInstance Time="11" Pattern="06"
		Channel Type="Noise"
			Pattern Name="00" Color="3cbfcb"
				Note Time="0" Value="F#3" Duration="56" Release="8" Instrument="cymbal" Volume="15"
				Note Time="56" Value="F#3" Duration="4" Instrument="blank string" Volume="0"
				Note Time="57" Volume="5"
				Note Time="58" Volume="8"
				Note Time="59" Volume="11"
				Note Time="60" Value="F#3" Duration="3" Instrument="cymbal"
				Note Time="61" Volume="10"
				Note Time="62" Volume="12"
				Note Time="63" Value="F#3" Duration="1" Instrument="blank string" Volume="15"
			Pattern Name="01" Color="d1b1ff"
				Note Time="0" Value="F#3" Duration="60" Release="8" Instrument="cymbal"
				Note Time="60" Value="F#3" Duration="4" Instrument="blank string" Volume="0"
				Note Time="61" Volume="5"
				Note Time="62" Volume="8"
				Note Time="63" Volume="11"
			Pattern Name="02" Color="ddc4bb"
				Note Time="0" Value="F#3" Duration="4" Instrument="cymbal" Volume="15"
				Note Time="4" Value="F3" Duration="4" Instrument="clap"
				Note Time="8" Value="F3" Duration="4" Instrument="clap"
				Note Time="12" Value="F3" Duration="2" Instrument="clap"
				Note Time="14" Value="F3" Duration="2" Instrument="clap"
				Note Time="16" Value="F3" Duration="4" Instrument="clap"
				Note Time="20" Value="F3" Duration="2" Instrument="clap"
				Note Time="22" Value="F3" Duration="2" Instrument="clap"
				Note Time="24" Value="F3" Duration="4" Instrument="lots of clap"
				Note Time="28" Value="F3" Duration="2" Instrument="clap"
				Note Time="30" Value="F3" Duration="2" Instrument="clap"
				Note Time="32" Value="F#3" Duration="4" Instrument="cymbal"
				Note Time="36" Value="F3" Duration="4" Instrument="clap"
				Note Time="40" Value="F#3" Duration="4" Instrument="cymbal"
				Note Time="44" Value="F#3" Duration="2" Instrument="cymbal"
				Note Time="46" Value="F3" Duration="2" Instrument="clap"
				Note Time="48" Value="F#3" Duration="4" Instrument="cymbal"
				Note Time="52" Value="F3" Duration="4" Instrument="clap"
				Note Time="56" Value="F3" Duration="4" Instrument="clap"
				Note Time="60" Value="F3" Duration="2" Instrument="clap"
				Note Time="62" Value="F3" Duration="1" Instrument="clap"
				Note Time="63" Value="F3" Duration="1" Instrument="clap"
			Pattern Name="03" Color="ffff94"
				Note Time="0" Value="F#3" Duration="4" Instrument="cymbal" Volume="15"
				Note Time="4" Value="F3" Duration="4" Instrument="clap"
				Note Time="8" Value="F3" Duration="4" Instrument="clap"
				Note Time="12" Value="F3" Duration="2" Instrument="clap"
				Note Time="14" Value="F#3" Duration="2" Instrument="cymbal"
				Note Time="16" Value="F#3" Duration="4" Instrument="cymbal"
				Note Time="20" Value="F3" Duration="2" Instrument="clap"
				Note Time="22" Value="F3" Duration="2" Instrument="clap"
				Note Time="24" Value="F3" Duration="4" Instrument="lots of clap"
				Note Time="28" Value="F3" Duration="2" Instrument="clap"
				Note Time="30" Value="F3" Duration="2" Instrument="clap"
				Note Time="32" Value="F#3" Duration="4" Instrument="cymbal"
				Note Time="36" Value="F3" Duration="4" Instrument="clap"
				Note Time="40" Value="F#3" Duration="4" Instrument="cymbal"
				Note Time="44" Value="F#3" Duration="2" Instrument="cymbal"
				Note Time="46" Value="F#3" Duration="2" Instrument="cymbal"
				Note Time="48" Value="F#3" Duration="4" Instrument="cymbal"
				Note Time="52" Value="F#3" Duration="4" Instrument="cymbal"
				Note Time="56" Value="F#3" Duration="4" Instrument="cymbal"
				Note Time="60" Value="F#3" Duration="2" Instrument="cymbal"
				Note Time="62" Value="F3" Duration="1" Instrument="clap"
				Note Time="63" Value="F3" Duration="21" Instrument="clap"
			Pattern Name="04" Color="3cd2c4"
				Note Time="20" Value="F#3" Duration="12" Instrument="blank" Volume="0"
				Note Time="22" Volume="2"
				Note Time="24" Volume="4"
				Note Time="26" Volume="6"
				Note Time="28" Volume="8"
				Note Time="29" Volume="10"
				Note Time="30" Volume="12"
				Note Time="31" Volume="14"
			Pattern Name="05" Color="7585e7"
				Note Time="0" Value="F#3" Duration="4" Instrument="cymbal" Volume="15"
				Note Time="4" Value="G2" Duration="2" Instrument="snare"
				Note Time="6" Value="A#3" Duration="2" Instrument="rel hats"
				Note Time="8" Value="G2" Duration="2" Instrument="kick"
				Note Time="10" Value="A#3" Duration="2" Instrument="rel hats"
				Note Time="12" Value="G2" Duration="2" Instrument="snare"
				Note Time="14" Value="A#3" Duration="2" Instrument="rel hats"
				Note Time="16" Value="G2" Duration="2" Instrument="kick"
				Note Time="18" Value="A#3" Duration="2" Instrument="rel hats"
				Note Time="20" Value="G2" Duration="2" Instrument="snare"
				Note Time="22" Value="A#3" Duration="2" Instrument="rel hats"
				Note Time="24" Value="G2" Duration="2" Instrument="kick"
				Note Time="26" Value="A#3" Duration="2" Instrument="rel hats"
				Note Time="28" Value="G2" Duration="2" Instrument="snare"
				Note Time="30" Value="A#3" Duration="2" Instrument="rel hats"
				Note Time="32" Value="G2" Duration="2" Instrument="kick"
				Note Time="34" Value="A#3" Duration="2" Instrument="rel hats"
				Note Time="36" Value="G2" Duration="2" Instrument="snare"
				Note Time="38" Value="A#3" Duration="2" Instrument="rel hats"
				Note Time="40" Value="G2" Duration="2" Instrument="kick"
				Note Time="42" Value="A#3" Duration="2" Instrument="rel hats"
				Note Time="44" Value="G2" Duration="2" Instrument="snare"
				Note Time="46" Value="A#3" Duration="2" Instrument="rel hats"
				Note Time="48" Value="G2" Duration="2" Instrument="kick"
				Note Time="50" Value="A#3" Duration="2" Instrument="rel hats"
				Note Time="52" Value="G2" Duration="2" Instrument="snare"
				Note Time="54" Value="A#3" Duration="2" Instrument="rel hats"
				Note Time="56" Value="G2" Duration="2" Instrument="kick"
				Note Time="58" Value="A#3" Duration="2" Instrument="rel hats"
				Note Time="60" Value="G2" Duration="2" Instrument="snare"
				Note Time="62" Value="A#3" Duration="2" Instrument="rel hats"
			Pattern Name="06" Color="ff6b6b"
				Note Time="0" Value="G2" Duration="2" Instrument="kick"
				Note Time="2" Value="A#3" Duration="2" Instrument="rel hats"
				Note Time="4" Value="G2" Duration="2" Instrument="snare"
				Note Time="6" Value="A#3" Duration="2" Instrument="rel hats"
				Note Time="8" Value="G2" Duration="2" Instrument="kick"
				Note Time="10" Value="A#3" Duration="2" Instrument="rel hats"
				Note Time="12" Value="G2" Duration="2" Instrument="snare"
				Note Time="14" Value="A#3" Duration="2" Instrument="rel hats"
				Note Time="16" Value="G2" Duration="2" Instrument="kick"
				Note Time="18" Value="A#3" Duration="2" Instrument="rel hats"
				Note Time="20" Value="G2" Duration="2" Instrument="snare"
				Note Time="22" Value="A#3" Duration="2" Instrument="rel hats"
				Note Time="24" Value="G2" Duration="2" Instrument="kick"
				Note Time="26" Value="A#3" Duration="2" Instrument="rel hats"
				Note Time="28" Value="G2" Duration="2" Instrument="snare"
				Note Time="30" Value="A#3" Duration="2" Instrument="rel hats"
				Note Time="32" Value="G2" Duration="2" Instrument="kick"
				Note Time="34" Value="A#3" Duration="2" Instrument="rel hats"
				Note Time="36" Value="G2" Duration="2" Instrument="snare"
				Note Time="38" Value="A#3" Duration="2" Instrument="rel hats"
				Note Time="40" Value="G2" Duration="2" Instrument="kick"
				Note Time="42" Value="A#3" Duration="2" Instrument="rel hats"
				Note Time="44" Value="G2" Duration="2" Instrument="snare"
				Note Time="46" Value="A#3" Duration="2" Instrument="rel hats"
				Note Time="48" Value="G2" Duration="2" Instrument="kick"
				Note Time="50" Value="A#3" Duration="2" Instrument="rel hats"
				Note Time="52" Value="G2" Duration="2" Instrument="snare"
				Note Time="54" Value="A#3" Duration="2" Instrument="rel hats"
				Note Time="56" Value="G2" Duration="2" Instrument="kick"
				Note Time="58" Value="A#3" Duration="2" Instrument="rel hats"
				Note Time="60" Value="G2" Duration="2" Instrument="snare"
				Note Time="62" Value="A#3" Duration="2" Instrument="rel hats"
			Pattern Name="07" Color="ffdc3c"
				Note Time="0" Value="G2" Duration="2" Instrument="kick"
				Note Time="2" Value="A#3" Duration="2" Instrument="rel hats"
				Note Time="4" Value="G2" Duration="2" Instrument="snare"
				Note Time="6" Value="A#3" Duration="2" Instrument="rel hats"
				Note Time="8" Value="G2" Duration="2" Instrument="kick"
				Note Time="10" Value="A#3" Duration="2" Instrument="rel hats"
				Note Time="12" Value="G2" Duration="2" Instrument="snare"
				Note Time="14" Value="A#3" Duration="2" Instrument="rel hats"
				Note Time="16" Value="G2" Duration="2" Instrument="kick"
				Note Time="18" Value="A#3" Duration="2" Instrument="rel hats"
				Note Time="20" Value="G2" Duration="2" Instrument="snare"
				Note Time="22" Value="A#3" Duration="2" Instrument="rel hats"
				Note Time="24" Value="G2" Duration="2" Instrument="kick"
				Note Time="26" Value="A#3" Duration="2" Instrument="rel hats"
				Note Time="28" Value="G2" Duration="2" Instrument="snare"
				Note Time="30" Value="A#3" Duration="2" Instrument="rel hats"
				Note Time="32" Value="G2" Duration="2" Instrument="kick"
				Note Time="34" Value="A#3" Duration="2" Instrument="rel hats"
				Note Time="36" Value="G2" Duration="2" Instrument="snare"
				Note Time="38" Value="A#3" Duration="2" Instrument="rel hats"
				Note Time="40" Value="G2" Duration="2" Instrument="kick"
				Note Time="42" Value="A#3" Duration="2" Instrument="rel hats"
				Note Time="44" Value="G2" Duration="2" Instrument="snare"
				Note Time="46" Value="A#3" Duration="2" Instrument="rel hats"
				Note Time="48" Value="G2" Duration="2" Instrument="kick"
				Note Time="50" Value="A#3" Duration="2" Instrument="rel hats"
				Note Time="52" Value="G2" Duration="2" Instrument="snare"
				Note Time="54" Value="A#3" Duration="2" Instrument="rel hats"
				Note Time="56" Value="A#3" Duration="1" Instrument="snare"
				Note Time="57" Value="A#3" Duration="1" Instrument="snare"
				Note Time="58" Value="A#3" Duration="1" Instrument="snare"
				Note Time="59" Value="A#3" Duration="1" Instrument="snare"
				Note Time="60" Value="A#3" Duration="1" Instrument="snare"
				Note Time="61" Value="A#3" Duration="1" Instrument="snare"
				Note Time="62" Value="A#3" Duration="1" Instrument="snare"
				Note Time="63" Value="A#3" Duration="1" Instrument="snare"
			Pattern Name="08" Color="6ab96e"
				Note Time="0" Value="F#3" Duration="4" Instrument="cymbal" Volume="15"
				Note Time="4" Value="F3" Duration="4" Instrument="clap"
				Note Time="8" Value="F3" Duration="4" Instrument="clap"
				Note Time="12" Value="F3" Duration="2" Instrument="clap"
				Note Time="14" Value="F#3" Duration="2" Instrument="cymbal"
				Note Time="16" Value="F#3" Duration="4" Instrument="cymbal"
				Note Time="20" Value="F3" Duration="2" Instrument="clap"
				Note Time="22" Value="F3" Duration="2" Instrument="clap"
				Note Time="24" Value="F3" Duration="4" Instrument="lots of clap"
				Note Time="28" Value="F3" Duration="2" Instrument="clap"
				Note Time="30" Value="F3" Duration="2" Instrument="clap"
				Note Time="32" Value="F#3" Duration="4" Instrument="cymbal"
				Note Time="36" Value="F3" Duration="4" Instrument="clap"
				Note Time="40" Value="F#3" Duration="4" Instrument="cymbal"
				Note Time="44" Value="F#3" Duration="2" Instrument="cymbal"
				Note Time="46" Value="F#3" Duration="2" Instrument="cymbal"
				Note Time="48" Value="F#3" Duration="16" Instrument="cymbal" Volume="14"
				Note Time="54" Volume="8"
				Note Time="55" Volume="7"
				Note Time="56" Volume="6"
				Note Time="57" Volume="5"
				Note Time="58" Volume="4"
				Note Time="59" Volume="3"
				Note Time="60" Volume="2"
				Note Time="61" Volume="1"
				Note Time="62" Volume="0"
			PatternInstance Time="0" Pattern="00"
			PatternInstance Time="1" Pattern="01"
			PatternInstance Time="2" Pattern="02"
			PatternInstance Time="3" Pattern="03"
			PatternInstance Time="4" Pattern="04"
			PatternInstance Time="5" Pattern="05"
			PatternInstance Time="6" Pattern="06"
			PatternInstance Time="7" Pattern="05"
			PatternInstance Time="8" Pattern="07"
			PatternInstance Time="9" Pattern="05"
			PatternInstance Time="10" Pattern="07"
			PatternInstance Time="11" Pattern="03"
			PatternInstance Time="12" Pattern="08"
		Channel Type="DPCM"
			Pattern Name="00" Color="a0f1ff"
				Note Time="0" Value="E5" Duration="64" Instrument="DMC: drums + bass"
			Pattern Name="01" Color="ff7cb6"
				Note Time="0" Value="E5" Duration="64" Instrument="DMC: drums + bass"
			Pattern Name="02" Color="ffe362"
				Note Time="0" Value="E5" Duration="32" Instrument="DMC: drums + bass"
				Note Time="32" Value="E5" Duration="8" Instrument="DMC: drums + bass"
				Note Time="40" Value="E5" Duration="4" Instrument="DMC: drums + bass"
				Note Time="44" Value="E5" Duration="4" Instrument="DMC: drums + bass"
				Note Time="48" Value="E5" Duration="16" Instrument="DMC: drums + bass"
			Pattern Name="03" Color="c7ff86"
				Note Time="0" Value="E5" Duration="14" Instrument="DMC: drums + bass"
				Note Time="14" Value="E5" Duration="2" Instrument="DMC: drums + bass"
				Note Time="16" Value="E5" Duration="16" Instrument="DMC: drums + bass"
				Note Time="32" Value="E5" Duration="8" Instrument="DMC: drums + bass"
				Note Time="40" Value="E5" Duration="4" Instrument="DMC: drums + bass"
				Note Time="44" Value="E5" Duration="2" Instrument="DMC: drums + bass"
				Note Time="46" Value="E5" Duration="2" Instrument="DMC: drums + bass"
				Note Time="48" Value="E5" Duration="4" Instrument="DMC: drums + bass"
				Note Time="52" Value="E5" Duration="4" Instrument="DMC: drums + bass"
				Note Time="56" Value="E5" Duration="2" Instrument="DMC: drums + bass"
				Note Time="58" Value="E5" Duration="2" Instrument="DMC: drums + bass"
				Note Time="60" Value="E5" Duration="1" Instrument="DMC: drums + bass"
				Note Time="61" Value="E5" Duration="1" Instrument="DMC: drums + bass"
				Note Time="62" Value="E5" Duration="1" Instrument="DMC: drums + bass"
				Note Time="63" Value="E5" Duration="1" Instrument="DMC: drums + bass"
			Pattern Name="04" Color="3fd7ff"
				Note Time="0" Value="E5" Duration="1" Instrument="DMC: drums + bass"
				Note Time="1" Value="E5" Duration="1" Instrument="DMC: drums + bass"
				Note Time="2" Value="E5" Duration="1" Instrument="DMC: drums + bass"
				Note Time="3" Value="E5" Duration="1" Instrument="DMC: drums + bass"
				Note Time="4" Value="E5" Duration="1" Instrument="DMC: drums + bass"
				Note Time="5" Value="E5" Duration="1" Instrument="DMC: drums + bass"
				Note Time="6" Value="E5" Duration="1" Instrument="DMC: drums + bass"
				Note Time="7" Value="E5" Duration="1" Instrument="DMC: drums + bass"
				Note Time="8" Value="E5" Duration="1" Instrument="DMC: drums + bass"
				Note Time="9" Value="E5" Duration="1" Instrument="DMC: drums + bass"
				Note Time="10" Value="E5" Duration="1" Instrument="DMC: drums + bass"
				Note Time="11" Value="E5" Duration="1" Instrument="DMC: drums + bass"
				Note Time="12" Value="E5" Duration="1" Instrument="DMC: drums + bass"
				Note Time="13" Value="E5" Duration="1" Instrument="DMC: drums + bass"
				Note Time="14" Value="E5" Duration="1" Instrument="DMC: drums + bass"
				Note Time="15" Value="E5" Duration="1" Instrument="DMC: drums + bass"
				Note Time="16" Value="E5" Duration="16" Instrument="DMC: drums + bass"
			Pattern Name="05" Color="b75bde"
				Note Time="0" Value="E5" Duration="2" Instrument="DMC: drums + bass"
				Note Time="2" Value="D4" Duration="2" Instrument="DMC: drums + bass"
				Note Time="4" Value="F5" Duration="2" Instrument="DMC: drums + bass"
				Note Time="6" Value="D4" Duration="2" Instrument="DMC: drums + bass"
				Note Time="8" Value="E5" Duration="2" Instrument="DMC: drums + bass"
				Note Time="10" Value="D4" Duration="2" Instrument="DMC: drums + bass"
				Note Time="12" Value="F5" Duration="2" Instrument="DMC: drums + bass"
				Note Time="14" Value="D4" Duration="2" Instrument="DMC: drums + bass"
				Note Time="16" Value="E5" Duration="2" Instrument="DMC: drums + bass"
				Note Time="18" Value="A4" Duration="2" Instrument="DMC: drums + bass"
				Note Time="20" Value="F5" Duration="2" Instrument="DMC: drums + bass"
				Note Time="22" Value="A4" Duration="2" Instrument="DMC: drums + bass"
				Note Time="24" Value="E5" Duration="2" Instrument="DMC: drums + bass"
				Note Time="26" Value="A4" Duration="2" Instrument="DMC: drums + bass"
				Note Time="28" Value="F5" Duration="2" Instrument="DMC: drums + bass"
				Note Time="30" Value="A4" Duration="2" Instrument="DMC: drums + bass"
				Note Time="32" Value="E5" Duration="2" Instrument="DMC: drums + bass"
				Note Time="34" Value="A4" Duration="2" Instrument="DMC: drums + bass"
				Note Time="36" Value="F5" Duration="2" Instrument="DMC: drums + bass"
				Note Time="38" Value="A4" Duration="2" Instrument="DMC: drums + bass"
				Note Time="40" Value="E5" Duration="2" Instrument="DMC: drums + bass"
				Note Time="42" Value="A4" Duration="2" Instrument="DMC: drums + bass"
				Note Time="44" Value="F5" Duration="2" Instrument="DMC: drums + bass"
				Note Time="46" Value="A4" Duration="2" Instrument="DMC: drums + bass"
				Note Time="48" Value="E5" Duration="2" Instrument="DMC: drums + bass"
				Note Time="50" Value="G4" Duration="2" Instrument="DMC: drums + bass"
				Note Time="52" Value="F5" Duration="2" Instrument="DMC: drums + bass"
				Note Time="54" Value="G4" Duration="2" Instrument="DMC: drums + bass"
				Note Time="56" Value="E5" Duration="2" Instrument="DMC: drums + bass"
				Note Time="58" Value="G4" Duration="2" Instrument="DMC: drums + bass"
				Note Time="60" Value="F5" Duration="2" Instrument="DMC: drums + bass"
				Note Time="62" Value="G4" Duration="2" Instrument="DMC: drums + bass"
			Pattern Name="06" Color="ff8655"
				Note Time="0" Value="E5" Duration="2" Instrument="DMC: drums + bass"
				Note Time="2" Value="D4" Duration="2" Instrument="DMC: drums + bass"
				Note Time="4" Value="F5" Duration="2" Instrument="DMC: drums + bass"
				Note Time="6" Value="D4" Duration="2" Instrument="DMC: drums + bass"
				Note Time="8" Value="E5" Duration="2" Instrument="DMC: drums + bass"
				Note Time="10" Value="D4" Duration="2" Instrument="DMC: drums + bass"
				Note Time="12" Value="F5" Duration="2" Instrument="DMC: drums + bass"
				Note Time="14" Value="D4" Duration="2" Instrument="DMC: drums + bass"
				Note Time="16" Value="E5" Duration="2" Instrument="DMC: drums + bass"
				Note Time="18" Value="A4" Duration="2" Instrument="DMC: drums + bass"
				Note Time="20" Value="F5" Duration="2" Instrument="DMC: drums + bass"
				Note Time="22" Value="A4" Duration="2" Instrument="DMC: drums + bass"
				Note Time="24" Value="E5" Duration="2" Instrument="DMC: drums + bass"
				Note Time="26" Value="A4" Duration="2" Instrument="DMC: drums + bass"
				Note Time="28" Value="F5" Duration="2" Instrument="DMC: drums + bass"
				Note Time="30" Value="A4" Duration="2" Instrument="DMC: drums + bass"
				Note Time="32" Value="E5" Duration="2" Instrument="DMC: drums + bass"
				Note Time="34" Value="A4" Duration="2" Instrument="DMC: drums + bass"
				Note Time="36" Value="F5" Duration="2" Instrument="DMC: drums + bass"
				Note Time="38" Value="A4" Duration="2" Instrument="DMC: drums + bass"
				Note Time="40" Value="E5" Duration="2" Instrument="DMC: drums + bass"
				Note Time="42" Value="A4" Duration="2" Instrument="DMC: drums + bass"
				Note Time="44" Value="F5" Duration="2" Instrument="DMC: drums + bass"
				Note Time="46" Value="A4" Duration="2" Instrument="DMC: drums + bass"
				Note Time="48" Value="E5" Duration="2" Instrument="DMC: drums + bass"
				Note Time="50" Value="G4" Duration="2" Instrument="DMC: drums + bass"
				Note Time="52" Value="F5" Duration="2" Instrument="DMC: drums + bass"
				Note Time="54" Value="G4" Duration="2" Instrument="DMC: drums + bass"
				Note Time="56" Value="E5" Duration="2" Instrument="DMC: drums + bass"
				Note Time="58" Value="G4" Duration="2" Instrument="DMC: drums + bass"
				Note Time="60" Value="F5" Duration="2" Instrument="DMC: drums + bass"
				Note Time="62" Value="G4" Duration="4" Instrument="DMC: drums + bass"
			Pattern Name="09" Color="ffff77"
				Note Time="0" Value="E5" Duration="2" Instrument="DMC: drums + bass"
				Note Time="2" Value="D4" Duration="2" Instrument="DMC: drums + bass"
				Note Time="4" Value="F5" Duration="2" Instrument="DMC: drums + bass"
				Note Time="6" Value="D4" Duration="2" Instrument="DMC: drums + bass"
				Note Time="8" Value="E5" Duration="2" Instrument="DMC: drums + bass"
				Note Time="10" Value="D4" Duration="2" Instrument="DMC: drums + bass"
				Note Time="12" Value="F5" Duration="2" Instrument="DMC: drums + bass"
				Note Time="14" Value="D4" Duration="2" Instrument="DMC: drums + bass"
				Note Time="16" Value="E5" Duration="2" Instrument="DMC: drums + bass"
				Note Time="18" Value="A4" Duration="2" Instrument="DMC: drums + bass"
				Note Time="20" Value="F5" Duration="2" Instrument="DMC: drums + bass"
				Note Time="22" Value="A4" Duration="2" Instrument="DMC: drums + bass"
				Note Time="24" Value="E5" Duration="2" Instrument="DMC: drums + bass"
				Note Time="26" Value="A4" Duration="2" Instrument="DMC: drums + bass"
				Note Time="28" Value="F5" Duration="2" Instrument="DMC: drums + bass"
				Note Time="30" Value="A4" Duration="2" Instrument="DMC: drums + bass"
				Note Time="32" Value="E5" Duration="2" Instrument="DMC: drums + bass"
				Note Time="34" Value="A4" Duration="2" Instrument="DMC: drums + bass"
				Note Time="36" Value="F5" Duration="2" Instrument="DMC: drums + bass"
				Note Time="38" Value="A4" Duration="2" Instrument="DMC: drums + bass"
				Note Time="40" Value="E5" Duration="2" Instrument="DMC: drums + bass"
				Note Time="42" Value="A4" Duration="2" Instrument="DMC: drums + bass"
				Note Time="44" Value="F5" Duration="2" Instrument="DMC: drums + bass"
				Note Time="46" Value="A4" Duration="2" Instrument="DMC: drums + bass"
				Note Time="48" Value="E5" Duration="2" Instrument="DMC: drums + bass"
				Note Time="50" Value="G4" Duration="2" Instrument="DMC: drums + bass"
				Note Time="52" Value="F5" Duration="2" Instrument="DMC: drums + bass"
				Note Time="54" Value="G4" Duration="2" Instrument="DMC: drums + bass"
				Note Time="56" Value="F5" Duration="1" Instrument="DMC: drums + bass"
				Note Time="57" Value="F5" Duration="1" Instrument="DMC: drums + bass"
				Note Time="58" Value="F5" Duration="1" Instrument="DMC: drums + bass"
				Note Time="59" Value="F5" Duration="1" Instrument="DMC: drums + bass"
				Note Time="60" Value="F5" Duration="1" Instrument="DMC: drums + bass"
				Note Time="61" Value="F5" Duration="1" Instrument="DMC: drums + bass"
				Note Time="62" Value="F5" Duration="1" Instrument="DMC: drums + bass"
				Note Time="63" Value="F5" Duration="3" Instrument="DMC: drums + bass"
			Pattern Name="07" Color="dad960"
				Note Time="2" Value="D4" Duration="4" Instrument="DMC: drums + bass" CutDelay="15"
				Note Time="6" Value="D4" Duration="4" Instrument="DMC: drums + bass" CutDelay="15"
				Note Time="10" Value="D4" Duration="4" Instrument="DMC: drums + bass" CutDelay="15"
				Note Time="14" Value="D4" Duration="2" Instrument="DMC: drums + bass" CutDelay="15"
				Note Time="18" Value="A4" Duration="4" Instrument="DMC: drums + bass"
				Note Time="22" Value="A4" Duration="4" Instrument="DMC: drums + bass"
				Note Time="26" Value="A4" Duration="4" Instrument="DMC: drums + bass"
				Note Time="30" Value="A4" Duration="4" Instrument="DMC: drums + bass"
				Note Time="34" Value="A4" Duration="4" Instrument="DMC: drums + bass"
				Note Time="38" Value="A4" Duration="4" Instrument="DMC: drums + bass"
				Note Time="42" Value="A4" Duration="4" Instrument="DMC: drums + bass"
				Note Time="46" Value="A4" Duration="2" Instrument="DMC: drums + bass"
				Note Time="50" Value="G4" Duration="4" Instrument="DMC: drums + bass"
				Note Time="54" Value="G4" Duration="4" Instrument="DMC: drums + bass"
				Note Time="58" Value="G4" Duration="4" Instrument="DMC: drums + bass"
				Note Time="62" Value="G4" Duration="4" Instrument="DMC: drums + bass"
			Pattern Name="08" Color="89ffff"
				Note Time="2" Value="D4" Duration="4" Instrument="DMC: drums + bass" CutDelay="15"
				Note Time="6" Value="D4" Duration="4" Instrument="DMC: drums + bass" CutDelay="15"
				Note Time="10" Value="D4" Duration="4" Instrument="DMC: drums + bass" CutDelay="15"
				Note Time="14" Value="D4" Duration="2" Instrument="DMC: drums + bass" CutDelay="15"
				Note Time="18" Value="A4" Duration="4" Instrument="DMC: drums + bass"
				Note Time="22" Value="A4" Duration="4" Instrument="DMC: drums + bass"
				Note Time="26" Value="A4" Duration="4" Instrument="DMC: drums + bass"
				Note Time="30" Value="A4" Duration="4" Instrument="DMC: drums + bass"
				Note Time="34" Value="A4" Duration="4" Instrument="DMC: drums + bass"
				Note Time="38" Value="A4" Duration="4" Instrument="DMC: drums + bass"
				Note Time="42" Value="A4" Duration="4" Instrument="DMC: drums + bass"
				Note Time="46" Value="A4" Duration="2" Instrument="DMC: drums + bass"
				Note Time="48" Value="G4" Duration="16" Instrument="DMC: drums + bass"
			PatternInstance Time="0" Pattern="00"
			PatternInstance Time="1" Pattern="01"
			PatternInstance Time="2" Pattern="02"
			PatternInstance Time="3" Pattern="03"
			PatternInstance Time="4" Pattern="04"
			PatternInstance Time="5" Pattern="05"
			PatternInstance Time="6" Pattern="06"
			PatternInstance Time="7" Pattern="05"
			PatternInstance Time="8" Pattern="09"
			PatternInstance Time="9" Pattern="05"
			PatternInstance Time="10" Pattern="09"
			PatternInstance Time="11" Pattern="07"
			PatternInstance Time="12" Pattern="08"
	Song Name="Can't Let Go" Color="fe5497" Folder="Official music used in the game" Length="16" LoopPoint="-1" PatternLength="64" BeatLength="4" FamiTrackerTempo="170" FamiTrackerSpeed="6"
		PatternCustomSettings Time="4" Length="16"
		PatternCustomSettings Time="15" Length="4"
		Channel Type="Square1"
			Pattern Name="01" Color="ffac7f"
				Note Time="0" Value="E4" Duration="4" Instrument="echo" Volume="15" FinePitch="0" DutyCycle="2"
				Note Time="4" Value="E4" Duration="4" Instrument="echo"
				Note Time="8" Value="G4" Duration="4" Instrument="echo"
				Note Time="12" Value="G4" Duration="4" Instrument="echo"
				Note Time="16" Value="G4" Duration="2" Instrument="echo"
				Note Time="18" Value="D4" Duration="4" Instrument="echo"
				Note Time="22" Value="D4" Duration="4" Instrument="echo"
				Note Time="26" Value="C4" Duration="2" Instrument="echo"
				Note Time="28" Value="A3" Duration="2" Instrument="echo"
				Note Time="30" Value="C4" Duration="2" Instrument="echo"
				Note Time="32" Value="C4" Duration="4" Instrument="echo"
				Note Time="36" Value="C4" Duration="4" Instrument="echo"
				Note Time="40" Value="E4" Duration="4" Instrument="echo"
				Note Time="44" Value="E4" Duration="2" Instrument="echo"
				Note Time="46" Value="E4" Duration="2" Instrument="echo"
				Note Time="48" Value="A3" Duration="2" Instrument="echo"
				Note Time="50" Value="D4" Duration="4" Instrument="echo"
				Note Time="54" Value="D4" Duration="4" Instrument="echo"
				Note Time="58" Value="C4" Duration="2" Instrument="echo"
				Note Time="60" Value="G4" Duration="2" Instrument="echo"
				Note Time="62" Value="F#4" Duration="2" Instrument="echo"
			Pattern Name="02" Color="ffff75"
				Note Time="0" Value="E4" Duration="4" Instrument="echo"
				Note Time="4" Value="E4" Duration="4" Instrument="echo"
				Note Time="8" Value="G4" Duration="4" Instrument="echo"
				Note Time="12" Value="G4" Duration="4" Instrument="echo"
				Note Time="16" Value="G4" Duration="2" Instrument="echo"
				Note Time="18" Value="D4" Duration="4" Instrument="echo"
				Note Time="22" Value="D4" Duration="4" Instrument="echo"
				Note Time="26" Value="C4" Duration="2" Instrument="echo"
				Note Time="28" Value="A3" Duration="2" Instrument="echo"
				Note Time="30" Value="C4" Duration="2" Instrument="echo"
				Note Time="32" Value="C4" Duration="4" Instrument="echo"
				Note Time="36" Value="C4" Duration="4" Instrument="echo"
				Note Time="40" Value="E4" Duration="4" Instrument="echo"
				Note Time="44" Value="E4" Duration="2" Instrument="echo"
				Note Time="46" Value="E4" Duration="2" Instrument="echo"
				Note Time="48" Value="A3" Duration="2" Instrument="echo"
				Note Time="50" Value="D4" Duration="4" Instrument="echo"
				Note Time="54" Value="D4" Duration="4" Instrument="echo"
				Note Time="58" Value="A4" Duration="2" Instrument="echo"
				Note Time="60" Value="G4" Duration="2" Instrument="echo"
				Note Time="62" Value="F#4" Duration="2" Instrument="echo"
			Pattern Name="03" Color="3ce8fd"
				Note Time="0" Value="E4" Duration="19" Instrument="echo"
			Pattern Name="04" Color="8d69e4"
				Note Time="0" DutyCycle="1"
				Note Time="3" Value="E2" Duration="4" Instrument="blank" Volume="4" FinePitch="1"
				Note Time="7" Value="E2" Duration="4" Instrument="blank"
				Note Time="11" Value="E2" Duration="4" Instrument="blank"
				Note Time="15" Value="G2" Duration="4" Instrument="blank"
				Note Time="19" Value="D2" Duration="4" Instrument="blank"
				Note Time="25" Value="D2" Duration="4" Instrument="blank"
				Note Time="31" Value="A2" Duration="4" Instrument="blank"
				Note Time="35" Value="C2" Duration="4" Instrument="blank"
				Note Time="39" Value="C2" Duration="4" Instrument="blank"
				Note Time="43" Value="C2" Duration="4" Instrument="blank"
				Note Time="47" Value="C2" Duration="4" Instrument="blank"
				Note Time="51" Value="D2" Duration="4" Instrument="blank"
				Note Time="57" Value="D2" Duration="4" Instrument="blank"
				Note Time="63" Value="G2" Duration="4" Instrument="blank"
			Pattern Name="05" Color="997c73"
				Note Time="3" Value="E2" Duration="4" Instrument="blank" Volume="4"
				Note Time="7" Value="E2" Duration="4" Instrument="blank"
				Note Time="11" Value="E2" Duration="4" Instrument="blank"
				Note Time="15" Value="G2" Duration="4" Instrument="blank"
				Note Time="19" Value="D2" Duration="4" Instrument="blank"
				Note Time="25" Value="D2" Duration="4" Instrument="blank"
				Note Time="31" Value="A2" Duration="4" Instrument="blank"
				Note Time="35" Value="C2" Duration="4" Instrument="blank"
				Note Time="39" Value="C2" Duration="4" Instrument="blank"
				Note Time="43" Value="C2" Duration="4" Instrument="blank"
				Note Time="47" Value="C2" Duration="4" Instrument="blank"
				Note Time="51" Value="D2" Duration="4" Instrument="blank"
				Note Time="57" Value="D3" Duration="4" Instrument="blank"
				Note Time="63" Value="G2" Duration="1" Instrument="blank"
			Pattern Name="06" Color="ffe461"
				Note Time="0" Value="E4" Duration="4" Instrument="echo" Volume="15"
				Note Time="4" Value="E4" Duration="4" Instrument="echo"
				Note Time="8" Value="G4" Duration="4" Instrument="echo"
				Note Time="12" Value="G4" Duration="2" Instrument="echo"
				Note Time="14" Value="G4" Duration="2" Instrument="echo"
				Note Time="16" Value="G4" Duration="2" Instrument="echo"
				Note Time="18" Value="D4" Duration="4" Instrument="echo"
				Note Time="22" Value="D4" Duration="4" Instrument="echo"
				Note Time="26" Value="C4" Duration="2" Instrument="echo"
				Note Time="28" Value="A3" Duration="2" Instrument="echo"
				Note Time="30" Value="C4" Duration="2" Instrument="echo"
				Note Time="32" Value="C4" Duration="4" Instrument="echo"
				Note Time="36" Value="C4" Duration="4" Instrument="echo"
				Note Time="40" Value="E4" Duration="4" Instrument="echo"
				Note Time="44" Value="E4" Duration="2" Instrument="echo"
				Note Time="46" Value="E4" Duration="2" Instrument="echo"
				Note Time="48" Value="A3" Duration="2" Instrument="echo"
				Note Time="50" Value="D4" Duration="4" Instrument="echo"
				Note Time="54" Value="D4" Duration="4" Instrument="echo"
				Note Time="58" Value="A4" Duration="2" Instrument="echo"
				Note Time="60" Value="G4" Duration="2" Instrument="echo"
				Note Time="62" Value="F#4" Duration="2" Instrument="echo"
			PatternInstance Time="0" Pattern="01"
			PatternInstance Time="1" Pattern="02"
			PatternInstance Time="2" Pattern="01"
			PatternInstance Time="3" Pattern="02"
			PatternInstance Time="4" Pattern="03"
			PatternInstance Time="5" Pattern="04"
			PatternInstance Time="6" Pattern="04"
			PatternInstance Time="7" Pattern="04"
			PatternInstance Time="8" Pattern="05"
			PatternInstance Time="9" Pattern="01"
			PatternInstance Time="10" Pattern="06"
			PatternInstance Time="11" Pattern="01"
			PatternInstance Time="12" Pattern="06"
			PatternInstance Time="13" Pattern="01"
			PatternInstance Time="14" Pattern="06"
			PatternInstance Time="15" Pattern="01"
		Channel Type="Square2"
			Pattern Name="01" Color="89f2e8"
				Note Time="0" Value="E1" Duration="12" Instrument="quiet bass" Volume="15"
				Note Time="12" Value="G1" Duration="4" Instrument="quiet bass"
				Note Time="16" Value="D1" Duration="6" Instrument="quiet bass"
				Note Time="22" Value="D1" Duration="10" Instrument="quiet bass"
				Note Time="32" Value="C1" Duration="16" Instrument="quiet bass"
				Note Time="48" Value="D1" Duration="6" Instrument="quiet bass"
				Note Time="54" Value="D1" Duration="10" Instrument="quiet bass"
			Pattern Name="03" Color="98a7fc"
				Note Time="0" Value="E1" Duration="4" Instrument="quiet bass"
			Pattern Name="04" Color="ff7f72"
				Note Time="0" Value="E2" Duration="4" Instrument="blank" Volume="10"
				Note Time="3" Volume="7"
				Note Time="4" Value="E2" Duration="1" Instrument="blank" SlideTarget="E2" Volume="10"
				Note Time="5" Value="E2" Duration="3" Instrument="blank" Attack="False"
				Note Time="7" Volume="7"
				Note Time="8" Value="E2" Duration="1" Instrument="blank" SlideTarget="E2" Volume="10"
				Note Time="9" Value="E2" Duration="3" Instrument="blank" Attack="False"
				Note Time="11" Volume="7"
				Note Time="12" Value="E2" Duration="1" Instrument="blank" SlideTarget="G2" Volume="10"
				Note Time="13" Value="G2" Duration="3" Instrument="blank" Attack="False"
				Note Time="15" Volume="7"
				Note Time="16" Value="G2" Duration="1" Instrument="blank" SlideTarget="D2" Volume="10"
				Note Time="17" Value="D2" Duration="3" Instrument="blank" Attack="False"
				Note Time="22" Value="D2" Duration="4" Instrument="blank"
				Note Time="27" Value="D2" Duration="1" Instrument="blank" Volume="0"
				Note Time="28" Value="D2" Duration="1" Instrument="blank" SlideTarget="A2" Volume="10"
				Note Time="29" Value="A2" Duration="3" Instrument="blank" Attack="False"
				Note Time="31" Volume="7"
				Note Time="32" Value="A2" Duration="1" Instrument="blank" SlideTarget="C2" Volume="10"
				Note Time="33" Value="C2" Duration="3" Instrument="blank" Attack="False"
				Note Time="35" Volume="7"
				Note Time="36" Value="C2" Duration="1" Instrument="blank" SlideTarget="C2" Volume="10"
				Note Time="37" Value="C2" Duration="3" Instrument="blank" Attack="False"
				Note Time="39" Volume="7"
				Note Time="40" Value="C2" Duration="1" Instrument="blank" SlideTarget="C2" Volume="10"
				Note Time="41" Value="C2" Duration="3" Instrument="blank" Attack="False"
				Note Time="43" Volume="7"
				Note Time="44" Value="C2" Duration="1" Instrument="blank" SlideTarget="C2" Volume="10"
				Note Time="45" Value="C2" Duration="3" Instrument="blank" Attack="False"
				Note Time="47" Volume="7"
				Note Time="48" Value="C2" Duration="1" Instrument="blank" SlideTarget="D2" Volume="10"
				Note Time="49" Value="D2" Duration="3" Instrument="blank" Attack="False"
				Note Time="54" Value="D2" Duration="4" Instrument="blank"
				Note Time="59" Value="D2" Duration="1" Instrument="blank" Volume="0"
				Note Time="60" Value="D2" Duration="1" Instrument="blank" SlideTarget="G2" Volume="10"
				Note Time="61" Value="G2" Duration="3" Instrument="blank" Attack="False"
				Note Time="63" Volume="7"
			Pattern Name="04B" Color="a4db74"
				Note Time="0" Value="G2" Duration="1" Instrument="blank" SlideTarget="E2" Volume="10"
				Note Time="1" Value="E2" Duration="3" Instrument="blank" Attack="False"
				Note Time="3" Volume="7"
				Note Time="4" Value="E2" Duration="1" Instrument="blank" SlideTarget="E2" Volume="10"
				Note Time="5" Value="E2" Duration="3" Instrument="blank" Attack="False"
				Note Time="7" Volume="7"
				Note Time="8" Value="E2" Duration="1" Instrument="blank" SlideTarget="E2" Volume="10"
				Note Time="9" Value="E2" Duration="3" Instrument="blank" Attack="False"
				Note Time="11" Volume="7"
				Note Time="12" Value="E2" Duration="1" Instrument="blank" SlideTarget="G2" Volume="10"
				Note Time="13" Value="G2" Duration="3" Instrument="blank" Attack="False"
				Note Time="15" Volume="7"
				Note Time="16" Value="G2" Duration="1" Instrument="blank" SlideTarget="D2" Volume="10"
				Note Time="17" Value="D2" Duration="3" Instrument="blank" Attack="False"
				Note Time="22" Value="D2" Duration="4" Instrument="blank"
				Note Time="27" Value="D2" Duration="1" Instrument="blank" Volume="0"
				Note Time="28" Value="D2" Duration="1" Instrument="blank" SlideTarget="A2" Volume="10"
				Note Time="29" Value="A2" Duration="3" Instrument="blank" Attack="False"
				Note Time="31" Volume="7"
				Note Time="32" Value="A2" Duration="1" Instrument="blank" SlideTarget="C2" Volume="10"
				Note Time="33" Value="C2" Duration="3" Instrument="blank" Attack="False"
				Note Time="35" Volume="7"
				Note Time="36" Value="C2" Duration="1" Instrument="blank" SlideTarget="C2" Volume="10"
				Note Time="37" Value="C2" Duration="3" Instrument="blank" Attack="False"
				Note Time="39" Volume="7"
				Note Time="40" Value="C2" Duration="1" Instrument="blank" SlideTarget="C2" Volume="10"
				Note Time="41" Value="C2" Duration="3" Instrument="blank" Attack="False"
				Note Time="43" Volume="7"
				Note Time="44" Value="C2" Duration="1" Instrument="blank" SlideTarget="C2" Volume="10"
				Note Time="45" Value="C2" Duration="3" Instrument="blank" Attack="False"
				Note Time="47" Volume="7"
				Note Time="48" Value="C2" Duration="1" Instrument="blank" SlideTarget="D2" Volume="10"
				Note Time="49" Value="D2" Duration="3" Instrument="blank" Attack="False"
				Note Time="54" Value="D2" Duration="4" Instrument="blank"
				Note Time="59" Value="D2" Duration="1" Instrument="blank" Volume="0"
				Note Time="60" Value="D2" Duration="1" Instrument="blank" SlideTarget="G2" Volume="10"
				Note Time="61" Value="G2" Duration="3" Instrument="blank" Attack="False"
				Note Time="63" Volume="7"
			Pattern Name="05" Color="fffd43"
				Note Time="0" Value="G2" Duration="1" Instrument="blank" SlideTarget="E2" Volume="10"
				Note Time="1" Value="E2" Duration="3" Instrument="blank" Attack="False"
				Note Time="3" Volume="7"
				Note Time="4" Value="E2" Duration="1" Instrument="blank" SlideTarget="E2" Volume="10"
				Note Time="5" Value="E2" Duration="3" Instrument="blank" Attack="False"
				Note Time="7" Volume="7"
				Note Time="8" Value="E2" Duration="1" Instrument="blank" SlideTarget="E2" Volume="10"
				Note Time="9" Value="E2" Duration="3" Instrument="blank" Attack="False"
				Note Time="11" Volume="7"
				Note Time="12" Value="E2" Duration="1" Instrument="blank" SlideTarget="G2" Volume="10"
				Note Time="13" Value="G2" Duration="3" Instrument="blank" Attack="False"
				Note Time="15" Volume="7"
				Note Time="16" Value="G2" Duration="1" Instrument="blank" SlideTarget="D2" Volume="10"
				Note Time="17" Value="D2" Duration="3" Instrument="blank" Attack="False"
				Note Time="22" Value="D2" Duration="4" Instrument="blank"
				Note Time="27" Value="D2" Duration="1" Instrument="blank" Volume="0"
				Note Time="28" Value="D2" Duration="1" Instrument="blank" SlideTarget="A2" Volume="10"
				Note Time="29" Value="A2" Duration="3" Instrument="blank" Attack="False"
				Note Time="31" Volume="7"
				Note Time="32" Value="A2" Duration="1" Instrument="blank" SlideTarget="C2" Volume="10"
				Note Time="33" Value="C2" Duration="3" Instrument="blank" Attack="False"
				Note Time="35" Volume="7"
				Note Time="36" Value="C2" Duration="1" Instrument="blank" SlideTarget="C2" Volume="10"
				Note Time="37" Value="C2" Duration="3" Instrument="blank" Attack="False"
				Note Time="39" Volume="7"
				Note Time="40" Value="C2" Duration="1" Instrument="blank" SlideTarget="C2" Volume="10"
				Note Time="41" Value="C2" Duration="3" Instrument="blank" Attack="False"
				Note Time="43" Volume="7"
				Note Time="44" Value="C2" Duration="1" Instrument="blank" SlideTarget="C2" Volume="10"
				Note Time="45" Value="C2" Duration="3" Instrument="blank" Attack="False"
				Note Time="47" Volume="7"
				Note Time="48" Value="C2" Duration="1" Instrument="blank" SlideTarget="D2" Volume="10"
				Note Time="49" Value="D2" Duration="3" Instrument="blank" Attack="False"
				Note Time="53" Value="D2" Duration="1" Instrument="blank" Volume="0"
				Note Time="54" Value="D2" Duration="1" Instrument="blank" SlideTarget="D3" Volume="10"
				Note Time="55" Value="D3" Duration="3" Instrument="blank" Attack="False"
				Note Time="59" Value="D3" Duration="1" Instrument="blank" Volume="0"
				Note Time="60" Value="D3" Duration="1" Instrument="blank" SlideTarget="G2" Volume="10"
				Note Time="61" Value="G2" Duration="3" Instrument="blank" Attack="False"
				Note Time="63" Volume="7"
			PatternInstance Time="0" Pattern="01"
			PatternInstance Time="1" Pattern="01"
			PatternInstance Time="2" Pattern="01"
			PatternInstance Time="3" Pattern="01"
			PatternInstance Time="4" Pattern="03"
			PatternInstance Time="5" Pattern="04"
			PatternInstance Time="6" Pattern="04B"
			PatternInstance Time="7" Pattern="04B"
			PatternInstance Time="8" Pattern="05"
			PatternInstance Time="9" Pattern="04B"
			PatternInstance Time="10" Pattern="04B"
			PatternInstance Time="11" Pattern="04B"
			PatternInstance Time="12" Pattern="04B"
			PatternInstance Time="13" Pattern="01"
			PatternInstance Time="14" Pattern="01"
			PatternInstance Time="15" Pattern="01"
		Channel Type="Triangle"
			Pattern Name="01" Color="7fdc83"
				Note Time="0" Value="E2" Duration="12" Instrument="DMC: drums + bass"
				Note Time="12" Value="G2" Duration="4" Instrument="DMC: drums + bass"
				Note Time="16" Value="D2" Duration="6" Instrument="DMC: drums + bass"
				Note Time="22" Value="D2" Duration="10" Instrument="DMC: drums + bass"
				Note Time="32" Value="C2" Duration="16" Instrument="DMC: drums + bass"
				Note Time="48" Value="D2" Duration="6" Instrument="DMC: drums + bass"
				Note Time="54" Value="D2" Duration="10" Instrument="DMC: drums + bass"
			Pattern Name="02" Color="e95093"
				Note Time="0" Value="E2" Duration="4" Instrument="DMC: drums + bass"
			PatternInstance Time="0" Pattern="01"
			PatternInstance Time="1" Pattern="01"
			PatternInstance Time="2" Pattern="01"
			PatternInstance Time="3" Pattern="01"
			PatternInstance Time="5" Pattern="01"
			PatternInstance Time="6" Pattern="01"
			PatternInstance Time="7" Pattern="01"
			PatternInstance Time="8" Pattern="01"
			PatternInstance Time="9" Pattern="01"
			PatternInstance Time="10" Pattern="01"
			PatternInstance Time="11" Pattern="01"
			PatternInstance Time="12" Pattern="01"
			PatternInstance Time="13" Pattern="01"
			PatternInstance Time="14" Pattern="01"
			PatternInstance Time="15" Pattern="02"
		Channel Type="Noise"
			Pattern Name="01" Color="eaffbd"
				Note Time="0" Value="G2" Duration="2" Instrument="kick"
				Note Time="2" Value="F#3" Duration="2" Instrument="hat"
				Note Time="4" Value="G2" Duration="2" Instrument="snare"
				Note Time="6" Value="F#3" Duration="2" Instrument="hat"
				Note Time="8" Value="G2" Duration="2" Instrument="kick"
				Note Time="10" Value="F#3" Duration="2" Instrument="hat"
				Note Time="12" Value="G2" Duration="2" Instrument="snare"
				Note Time="14" Value="F#3" Duration="2" Instrument="hat"
				Note Time="16" Value="G2" Duration="2" Instrument="kick"
				Note Time="18" Value="F#3" Duration="2" Instrument="hat"
				Note Time="20" Value="G2" Duration="2" Instrument="snare"
				Note Time="22" Value="F#3" Duration="2" Instrument="hat"
				Note Time="24" Value="G2" Duration="2" Instrument="kick"
				Note Time="26" Value="F#3" Duration="2" Instrument="hat"
				Note Time="28" Value="G2" Duration="2" Instrument="snare"
				Note Time="30" Value="F#3" Duration="2" Instrument="hat"
				Note Time="32" Value="G2" Duration="2" Instrument="kick"
				Note Time="34" Value="F#3" Duration="2" Instrument="hat"
				Note Time="36" Value="G2" Duration="2" Instrument="snare"
				Note Time="38" Value="F#3" Duration="2" Instrument="hat"
				Note Time="40" Value="G2" Duration="2" Instrument="kick"
				Note Time="42" Value="F#3" Duration="2" Instrument="hat"
				Note Time="44" Value="G2" Duration="2" Instrument="snare"
				Note Time="46" Value="F#3" Duration="2" Instrument="hat"
				Note Time="48" Value="G2" Duration="2" Instrument="kick"
				Note Time="50" Value="F#3" Duration="2" Instrument="hat"
				Note Time="52" Value="G2" Duration="2" Instrument="snare"
				Note Time="54" Value="F#3" Duration="2" Instrument="hat"
				Note Time="56" Value="G2" Duration="2" Instrument="kick"
				Note Time="58" Value="F#3" Duration="2" Instrument="hat"
				Note Time="60" Value="G2" Duration="2" Instrument="snare"
				Note Time="62" Value="F#3" Duration="2" Instrument="hat"
			Pattern Name="02" Color="65f2ff"
				Note Time="0" Value="G2" Duration="2" Instrument="snare"
				Note Time="2" Value="G2" Duration="2" Instrument="kick"
				Note Time="4" Value="G2" Duration="2" Instrument="kick"
				Note Time="6" Value="G2" Duration="2" Instrument="snare"
				Note Time="8" Value="G2" Duration="2" Instrument="kick"
				Note Time="10" Value="G2" Duration="2" Instrument="kick"
				Note Time="12" Value="G2" Duration="1" Instrument="snare"
				Note Time="13" Value="G2" Duration="1" Instrument="snare"
				Note Time="14" Value="G2" Duration="1" Instrument="snare"
				Note Time="15" Value="G2" Duration="1" Instrument="snare"
			Pattern Name="03" Color="d863ec"
				Note Time="0" Value="G2" Duration="2" Instrument="kick"
				Note Time="2" Value="F#3" Duration="2" Instrument="hat"
				Note Time="4" Value="G2" Duration="2" Instrument="snare"
				Note Time="6" Value="F#3" Duration="2" Instrument="hat"
				Note Time="8" Value="G2" Duration="2" Instrument="kick"
				Note Time="10" Value="F#3" Duration="2" Instrument="hat"
				Note Time="12" Value="G2" Duration="2" Instrument="snare"
				Note Time="14" Value="F#3" Duration="2" Instrument="hat"
				Note Time="16" Value="G2" Duration="2" Instrument="kick"
				Note Time="18" Value="F#3" Duration="2" Instrument="hat"
				Note Time="20" Value="G2" Duration="2" Instrument="snare"
				Note Time="22" Value="F#3" Duration="2" Instrument="hat"
				Note Time="24" Value="G2" Duration="2" Instrument="kick"
				Note Time="26" Value="F#3" Duration="2" Instrument="hat"
				Note Time="28" Value="G2" Duration="2" Instrument="snare"
				Note Time="30" Value="F#3" Duration="2" Instrument="hat"
				Note Time="32" Value="G2" Duration="2" Instrument="kick"
				Note Time="34" Value="F#3" Duration="2" Instrument="hat"
				Note Time="36" Value="G2" Duration="2" Instrument="snare"
				Note Time="38" Value="F#3" Duration="2" Instrument="hat"
				Note Time="40" Value="G2" Duration="2" Instrument="kick"
				Note Time="42" Value="F#3" Duration="2" Instrument="hat"
				Note Time="44" Value="G2" Duration="2" Instrument="snare"
				Note Time="46" Value="F#3" Duration="2" Instrument="hat"
				Note Time="48" Value="G2" Duration="2" Instrument="kick"
				Note Time="50" Value="F#3" Duration="2" Instrument="hat"
				Note Time="52" Value="G2" Duration="2" Instrument="snare"
				Note Time="54" Value="F#3" Duration="2" Instrument="hat"
				Note Time="56" Value="G2" Duration="2" Instrument="kick"
				Note Time="58" Value="F#3" Duration="2" Instrument="hat"
				Note Time="60" Value="G2" Duration="1" Instrument="snare"
				Note Time="61" Value="G#2" Duration="1" Instrument="snare"
				Note Time="62" Value="G#2" Duration="1" Instrument="snare"
				Note Time="63" Value="A2" Duration="1" Instrument="snare"
			PatternInstance Time="2" Pattern="01"
			PatternInstance Time="3" Pattern="01"
			PatternInstance Time="4" Pattern="02"
			PatternInstance Time="5" Pattern="01"
			PatternInstance Time="6" Pattern="01"
			PatternInstance Time="7" Pattern="01"
			PatternInstance Time="8" Pattern="03"
			PatternInstance Time="9" Pattern="01"
			PatternInstance Time="10" Pattern="01"
			PatternInstance Time="11" Pattern="01"
			PatternInstance Time="12" Pattern="01"
		Channel Type="DPCM"
			Pattern Name="01" Color="fcff6f"
				Note Time="0" Value="E5" Duration="2" Instrument="DMC: drums + bass"
				Note Time="2" Value="E4" Duration="2" Instrument="DMC: drums + bass"
				Note Time="4" Value="F5" Duration="2" Instrument="DMC: drums + bass"
				Note Time="6" Value="E4" Duration="2" Instrument="DMC: drums + bass"
				Note Time="8" Value="E5" Duration="2" Instrument="DMC: drums + bass"
				Note Time="10" Value="E4" Duration="2" Instrument="DMC: drums + bass"
				Note Time="12" Value="F5" Duration="2" Instrument="DMC: drums + bass"
				Note Time="14" Value="G4" Duration="2" Instrument="DMC: drums + bass"
				Note Time="16" Value="E5" Duration="2" Instrument="DMC: drums + bass"
				Note Time="18" Value="D4" Duration="2" Instrument="DMC: drums + bass"
				Note Time="20" Value="F5" Duration="2" Instrument="DMC: drums + bass"
				Note Time="22" Value="D4" Duration="2" Instrument="DMC: drums + bass"
				Note Time="24" Value="E5" Duration="2" Instrument="DMC: drums + bass"
				Note Time="26" Value="D4" Duration="2" Instrument="DMC: drums + bass"
				Note Time="28" Value="F5" Duration="2" Instrument="DMC: drums + bass"
				Note Time="30" Value="D4" Duration="2" Instrument="DMC: drums + bass"
				Note Time="32" Value="E5" Duration="2" Instrument="DMC: drums + bass"
				Note Time="34" Value="C4" Duration="2" Instrument="DMC: drums + bass"
				Note Time="36" Value="F5" Duration="2" Instrument="DMC: drums + bass"
				Note Time="38" Value="C4" Duration="2" Instrument="DMC: drums + bass"
				Note Time="40" Value="E5" Duration="2" Instrument="DMC: drums + bass"
				Note Time="42" Value="C4" Duration="2" Instrument="DMC: drums + bass"
				Note Time="44" Value="F5" Duration="2" Instrument="DMC: drums + bass"
				Note Time="46" Value="C4" Duration="2" Instrument="DMC: drums + bass"
				Note Time="48" Value="E5" Duration="2" Instrument="DMC: drums + bass"
				Note Time="50" Value="D4" Duration="2" Instrument="DMC: drums + bass"
				Note Time="52" Value="F5" Duration="2" Instrument="DMC: drums + bass"
				Note Time="54" Value="D4" Duration="2" Instrument="DMC: drums + bass"
				Note Time="56" Value="E5" Duration="2" Instrument="DMC: drums + bass"
				Note Time="58" Value="D4" Duration="2" Instrument="DMC: drums + bass"
				Note Time="60" Value="F5" Duration="2" Instrument="DMC: drums + bass"
				Note Time="62" Value="D4" Duration="2" Instrument="DMC: drums + bass"
			Pattern Name="02" Color="3cd3e3"
				Note Time="0" Value="F5" Duration="2" Instrument="DMC: drums + bass"
				Note Time="2" Value="E5" Duration="2" Instrument="DMC: drums + bass"
				Note Time="4" Value="E5" Duration="2" Instrument="DMC: drums + bass"
				Note Time="6" Value="F5" Duration="2" Instrument="DMC: drums + bass"
				Note Time="8" Value="E5" Duration="2" Instrument="DMC: drums + bass"
				Note Time="10" Value="E5" Duration="2" Instrument="DMC: drums + bass"
				Note Time="12" Value="F5" Duration="1" Instrument="DMC: drums + bass"
				Note Time="13" Value="F5" Duration="1" Instrument="DMC: drums + bass"
				Note Time="14" Value="F5" Duration="1" Instrument="DMC: drums + bass"
				Note Time="15" Value="F5" Duration="1" Instrument="DMC: drums + bass"
			Pattern Name="03" Color="8163dc"
				Note Time="0" Value="E5" Duration="2" Instrument="DMC: drums + bass"
				Note Time="2" Value="E4" Duration="2" Instrument="DMC: drums + bass"
				Note Time="4" Value="F5" Duration="2" Instrument="DMC: drums + bass"
				Note Time="6" Value="E4" Duration="2" Instrument="DMC: drums + bass"
				Note Time="8" Value="E5" Duration="2" Instrument="DMC: drums + bass"
				Note Time="10" Value="E4" Duration="2" Instrument="DMC: drums + bass"
				Note Time="12" Value="F5" Duration="2" Instrument="DMC: drums + bass"
				Note Time="14" Value="G4" Duration="2" Instrument="DMC: drums + bass"
				Note Time="16" Value="E5" Duration="2" Instrument="DMC: drums + bass"
				Note Time="18" Value="D4" Duration="2" Instrument="DMC: drums + bass"
				Note Time="20" Value="F5" Duration="2" Instrument="DMC: drums + bass"
				Note Time="22" Value="D4" Duration="2" Instrument="DMC: drums + bass"
				Note Time="24" Value="E5" Duration="2" Instrument="DMC: drums + bass"
				Note Time="26" Value="D4" Duration="2" Instrument="DMC: drums + bass"
				Note Time="28" Value="F5" Duration="2" Instrument="DMC: drums + bass"
				Note Time="30" Value="D4" Duration="2" Instrument="DMC: drums + bass"
				Note Time="32" Value="E5" Duration="2" Instrument="DMC: drums + bass"
				Note Time="34" Value="C4" Duration="2" Instrument="DMC: drums + bass"
				Note Time="36" Value="F5" Duration="2" Instrument="DMC: drums + bass"
				Note Time="38" Value="C4" Duration="2" Instrument="DMC: drums + bass"
				Note Time="40" Value="E5" Duration="2" Instrument="DMC: drums + bass"
				Note Time="42" Value="C4" Duration="2" Instrument="DMC: drums + bass"
				Note Time="44" Value="F5" Duration="2" Instrument="DMC: drums + bass"
				Note Time="46" Value="C4" Duration="2" Instrument="DMC: drums + bass"
				Note Time="48" Value="E5" Duration="2" Instrument="DMC: drums + bass"
				Note Time="50" Value="D4" Duration="2" Instrument="DMC: drums + bass"
				Note Time="52" Value="F5" Duration="2" Instrument="DMC: drums + bass"
				Note Time="54" Value="D4" Duration="2" Instrument="DMC: drums + bass"
				Note Time="56" Value="E5" Duration="2" Instrument="DMC: drums + bass"
				Note Time="58" Value="D4" Duration="2" Instrument="DMC: drums + bass"
				Note Time="60" Value="F5" Duration="1" Instrument="DMC: drums + bass"
				Note Time="61" Value="F5" Duration="1" Instrument="DMC: drums + bass"
				Note Time="62" Value="F5" Duration="1" Instrument="DMC: drums + bass"
				Note Time="63" Value="F5" Duration="1" Instrument="DMC: drums + bass"
			PatternInstance Time="2" Pattern="01"
			PatternInstance Time="3" Pattern="01"
			PatternInstance Time="4" Pattern="02"
			PatternInstance Time="5" Pattern="01"
			PatternInstance Time="6" Pattern="01"
			PatternInstance Time="7" Pattern="01"
			PatternInstance Time="8" Pattern="03"
			PatternInstance Time="9" Pattern="01"
			PatternInstance Time="10" Pattern="01"
			PatternInstance Time="11" Pattern="01"
			PatternInstance Time="12" Pattern="01"
	Song Name="Jumper" Color="3ec4ff" Folder="Official music used in the game" Length="17" LoopPoint="-1" PatternLength="48" BeatLength="4" FamiTrackerTempo="179" FamiTrackerSpeed="8"
		PatternCustomSettings Time="16" Length="8"
		Channel Type="Square1"
			Pattern Name="00" Color="bdffc0"
				Note Time="0" Value="F4" Duration="3" Instrument="Instrument 2" Volume="15" DutyCycle="1"
				Note Time="3" Value="F4" Duration="2" Instrument="Instrument 1"
				Note Time="5" Value="F4" Duration="1" Instrument="Instrument 1"
				Note Time="6" Value="C#4" Duration="2" Instrument="Instrument 1"
				Note Time="8" Value="G#4" Duration="1" Instrument="Instrument 1"
				Note Time="9" Value="C#4" Duration="2" Instrument="Instrument 1"
				Note Time="11" Value="C#5" Duration="1" Instrument="Instrument 1"
				Note Time="12" Value="F#4" Duration="2" Instrument="Instrument 1"
				Note Time="14" Value="G#4" Duration="1" Instrument="Instrument 1"
				Note Time="15" Value="F4" Duration="2" Instrument="Instrument 1"
				Note Time="17" Value="G#4" Duration="3" Instrument="Instrument 1"
				Note Time="20" Value="F4" Duration="1" Instrument="Instrument 1"
				Note Time="21" Value="G#4" Duration="2" Instrument="Instrument 1"
				Note Time="23" Value="C#4" Duration="1" Instrument="Instrument 1"
				Note Time="24" Value="F4" Duration="3" Instrument="Instrument 1"
				Note Time="27" Value="F4" Duration="2" Instrument="Instrument 1"
				Note Time="29" Value="F4" Duration="1" Instrument="Instrument 1"
				Note Time="30" Value="C#4" Duration="2" Instrument="Instrument 1"
				Note Time="32" Value="G#4" Duration="1" Instrument="Instrument 1"
				Note Time="33" Value="C#5" Duration="2" Instrument="Instrument 1"
				Note Time="35" Value="G#4" Duration="1" Instrument="Instrument 1"
				Note Time="36" Value="F#4" Duration="2" Instrument="Instrument 1"
				Note Time="38" Value="F4" Duration="1" Instrument="Instrument 1"
				Note Time="39" Value="D#4" Duration="3" Instrument="Instrument 1"
				Note Time="42" Value="C#4" Duration="5" Instrument="Instrument 1"
				Note Time="47" Value="C#4" Duration="1" Instrument="Instrument 1" DutyCycle="2"
			Pattern Name="01" Color="7ee1ff"
				Note Time="0" Value="F4" Duration="3" Instrument="Instrument 1" DutyCycle="2"
				Note Time="3" Value="F4" Duration="2" Instrument="Instrument 1"
				Note Time="5" Value="F4" Duration="1" Instrument="Instrument 1"
				Note Time="6" Value="C#4" Duration="2" Instrument="Instrument 1"
				Note Time="8" Value="G#4" Duration="1" Instrument="Instrument 1"
				Note Time="9" Value="C#4" Duration="2" Instrument="Instrument 1"
				Note Time="11" Value="C#5" Duration="1" Instrument="Instrument 1"
				Note Time="12" Value="F#4" Duration="2" Instrument="Instrument 1"
				Note Time="14" Value="G#4" Duration="1" Instrument="Instrument 1"
				Note Time="15" Value="F4" Duration="2" Instrument="Instrument 1"
				Note Time="17" Value="G#4" Duration="3" Instrument="Instrument 1"
				Note Time="20" Value="F4" Duration="1" Instrument="Instrument 1"
				Note Time="21" Value="G#4" Duration="2" Instrument="Instrument 1"
				Note Time="23" Value="C#4" Duration="1" Instrument="Instrument 1"
				Note Time="24" Value="F4" Duration="3" Instrument="Instrument 1"
				Note Time="27" Value="F4" Duration="2" Instrument="Instrument 1"
				Note Time="29" Value="F4" Duration="1" Instrument="Instrument 1"
				Note Time="30" Value="C#4" Duration="2" Instrument="Instrument 1"
				Note Time="32" Value="G#4" Duration="1" Instrument="Instrument 1"
				Note Time="33" Value="C#5" Duration="2" Instrument="Instrument 1"
				Note Time="35" Value="D#5" Duration="1" Instrument="Instrument 1"
				Note Time="36" Value="F5" Duration="2" Instrument="Instrument 1"
				Note Time="38" Value="F#5" Duration="1" Instrument="Instrument 1"
				Note Time="39" Value="F5" Duration="2" Instrument="Instrument 1"
				Note Time="41" Value="C#5" Duration="1" Instrument="Instrument 1"
				Note Time="42" Value="D#5" Duration="2" Instrument="Instrument 1"
				Note Time="44" Value="C#5" Duration="1" Instrument="Instrument 1"
				Note Time="45" Value="D#5" Duration="2" Instrument="Instrument 1"
				Note Time="47" Value="F5" Duration="1" Instrument="Instrument 1"
			Pattern Name="0D" Color="ff5a9f"
				Note Time="0" Value="C#5" Duration="3" Release="2" Instrument="blank" Volume="4"
				Note Time="3" Value="F5" Duration="2" Instrument="Instrument 1" Volume="15"
				Note Time="5" Value="F5" Duration="1" Instrument="Instrument 1"
				Note Time="6" Value="F#5" Duration="2" Instrument="Instrument 1"
				Note Time="8" Value="F#5" Duration="1" Instrument="Instrument 1"
				Note Time="9" Value="F5" Duration="2" Instrument="Instrument 1"
				Note Time="11" Value="F5" Duration="1" Instrument="Instrument 1"
				Note Time="12" Value="C#5" Duration="2" Instrument="Instrument 1"
				Note Time="14" Value="C#5" Duration="1" Instrument="Instrument 1"
				Note Time="15" Value="F5" Duration="2" Instrument="Instrument 1"
				Note Time="17" Value="F5" Duration="1" Instrument="Instrument 1"
				Note Time="18" Value="F#5" Duration="2" Instrument="Instrument 1"
				Note Time="20" Value="F#5" Duration="1" Instrument="Instrument 1"
				Note Time="21" Value="G#5" Duration="2" Instrument="Instrument 1"
				Note Time="23" Value="G#5" Duration="1" Instrument="Instrument 1"
				Note Time="24" Value="C#5" Duration="2" Instrument="Instrument 1"
				Note Time="26" Value="C#5" Duration="1" Instrument="Instrument 1"
				Note Time="27" Value="F5" Duration="2" Instrument="Instrument 1"
				Note Time="29" Value="F5" Duration="1" Instrument="Instrument 1"
				Note Time="30" Value="F#5" Duration="2" Instrument="Instrument 1"
				Note Time="32" Value="F#5" Duration="1" Instrument="Instrument 1"
				Note Time="33" Value="F5" Duration="2" Instrument="Instrument 1"
				Note Time="35" Value="F5" Duration="1" Instrument="Instrument 1"
				Note Time="36" Value="C#5" Duration="2" Instrument="Instrument 1"
				Note Time="38" Value="C#5" Duration="1" Instrument="Instrument 1"
				Note Time="39" Value="F5" Duration="2" Instrument="Instrument 1"
				Note Time="41" Value="F5" Duration="1" Instrument="Instrument 1"
				Note Time="42" Value="F#5" Duration="2" Instrument="Instrument 1"
				Note Time="44" Value="F#5" Duration="1" Instrument="Instrument 1"
				Note Time="45" Value="B4" Duration="2" Instrument="Instrument 1"
				Note Time="47" Value="C5" Duration="1" Instrument="Instrument 1"
			Pattern Name="02" Color="ffd43c"
				Note Time="0" Value="C#5" Duration="2" Instrument="Instrument 1"
				Note Time="2" Value="C#5" Duration="1" Instrument="Instrument 1"
				Note Time="3" Value="F5" Duration="2" Instrument="Instrument 1"
				Note Time="5" Value="F5" Duration="1" Instrument="Instrument 1"
				Note Time="6" Value="F#5" Duration="2" Instrument="Instrument 1"
				Note Time="8" Value="F#5" Duration="1" Instrument="Instrument 1"
				Note Time="9" Value="F5" Duration="2" Instrument="Instrument 1"
				Note Time="11" Value="F5" Duration="1" Instrument="Instrument 1"
				Note Time="12" Value="C#5" Duration="2" Instrument="Instrument 1"
				Note Time="14" Value="C#5" Duration="1" Instrument="Instrument 1"
				Note Time="15" Value="F5" Duration="2" Instrument="Instrument 1"
				Note Time="17" Value="F5" Duration="1" Instrument="Instrument 1"
				Note Time="18" Value="F#5" Duration="2" Instrument="Instrument 1"
				Note Time="20" Value="F#5" Duration="1" Instrument="Instrument 1"
				Note Time="21" Value="G#5" Duration="2" Instrument="Instrument 1"
				Note Time="23" Value="G#5" Duration="1" Instrument="Instrument 1"
				Note Time="24" Value="C#5" Duration="2" Instrument="Instrument 1"
				Note Time="26" Value="C#5" Duration="1" Instrument="Instrument 1"
				Note Time="27" Value="F5" Duration="2" Instrument="Instrument 1"
				Note Time="29" Value="F5" Duration="1" Instrument="Instrument 1"
				Note Time="30" Value="F#5" Duration="2" Instrument="Instrument 1"
				Note Time="32" Value="F#5" Duration="1" Instrument="Instrument 1"
				Note Time="33" Value="F5" Duration="2" Instrument="Instrument 1"
				Note Time="35" Value="F5" Duration="1" Instrument="Instrument 1"
				Note Time="36" Value="C#5" Duration="2" Instrument="Instrument 1"
				Note Time="38" Value="C#5" Duration="1" Instrument="Instrument 1"
				Note Time="39" Value="F5" Duration="2" Instrument="Instrument 1"
				Note Time="41" Value="F5" Duration="1" Instrument="Instrument 1"
				Note Time="42" Value="F#5" Duration="2" Instrument="Instrument 1"
				Note Time="44" Value="F#5" Duration="1" Instrument="Instrument 1"
				Note Time="45" Value="B4" Duration="2" Instrument="Instrument 1"
				Note Time="47" Value="C5" Duration="1" Instrument="Instrument 1"
			Pattern Name="04" Color="b8ef7e"
				Note Time="0" Value="C#5" Duration="2" Instrument="Instrument 1"
				Note Time="2" Value="C#5" Duration="1" Instrument="Instrument 1"
				Note Time="3" Value="F5" Duration="2" Instrument="Instrument 1"
				Note Time="5" Value="F5" Duration="1" Instrument="Instrument 1"
				Note Time="6" Value="F#5" Duration="2" Instrument="Instrument 1"
				Note Time="8" Value="F#5" Duration="1" Instrument="Instrument 1"
				Note Time="9" Value="F5" Duration="2" Instrument="Instrument 1"
				Note Time="11" Value="F5" Duration="1" Instrument="Instrument 1"
				Note Time="12" Value="C#5" Duration="2" Instrument="Instrument 1"
				Note Time="14" Value="C#5" Duration="1" Instrument="Instrument 1"
				Note Time="15" Value="F5" Duration="2" Instrument="Instrument 1"
				Note Time="17" Value="F5" Duration="1" Instrument="Instrument 1"
				Note Time="18" Value="F#5" Duration="2" Instrument="Instrument 1"
				Note Time="20" Value="F#5" Duration="1" Instrument="Instrument 1"
				Note Time="21" Value="G#5" Duration="2" Instrument="Instrument 1"
				Note Time="23" Value="G#5" Duration="1" Instrument="Instrument 1"
				Note Time="24" Value="C#5" Duration="2" Instrument="Instrument 1"
				Note Time="26" Value="C#5" Duration="1" Instrument="Instrument 1"
				Note Time="27" Value="F5" Duration="2" Instrument="Instrument 1"
				Note Time="29" Value="F5" Duration="1" Instrument="Instrument 1"
				Note Time="30" Value="F#5" Duration="2" Instrument="Instrument 1"
				Note Time="32" Value="F#5" Duration="1" Instrument="Instrument 1"
				Note Time="33" Value="F5" Duration="2" Instrument="Instrument 1"
				Note Time="35" Value="F5" Duration="1" Instrument="Instrument 1"
				Note Time="36" Value="C#5" Duration="2" Instrument="Instrument 1"
				Note Time="38" Value="C#5" Duration="1" Instrument="Instrument 1"
				Note Time="39" Value="F5" Duration="2" Instrument="Instrument 1"
				Note Time="41" Value="F5" Duration="1" Instrument="Instrument 1"
				Note Time="42" Value="F#5" Duration="2" Instrument="Instrument 1"
				Note Time="44" Value="F#5" Duration="1" Instrument="Instrument 1"
				Note Time="45" Value="G#5" Duration="2" Instrument="Instrument 1"
				Note Time="47" Value="G#5" Duration="1" Instrument="Instrument 1"
			Pattern Name="03" Color="3ec4ff"
				Note Time="0" Value="C#6" Duration="2" Instrument="Instrument 1"
				Note Time="2" Value="C#6" Duration="1" Instrument="Instrument 1"
				Note Time="3" Value="B5" Duration="2" Instrument="Instrument 1"
				Note Time="5" Value="B5" Duration="1" Instrument="Instrument 1"
				Note Time="6" Value="A#5" Duration="2" Instrument="Instrument 1"
				Note Time="8" Value="A#5" Duration="1" Instrument="Instrument 1"
				Note Time="9" Value="G#5" Duration="2" Instrument="Instrument 1"
				Note Time="11" Value="G#5" Duration="1" Instrument="Instrument 1"
				Note Time="12" Value="F#5" Duration="2" Instrument="Instrument 1"
				Note Time="14" Value="F5" Duration="1" Instrument="Instrument 1"
				Note Time="15" Value="F#5" Duration="2" Instrument="Instrument 1"
				Note Time="17" Value="F5" Duration="1" Instrument="Instrument 1"
				Note Time="18" Value="F#5" Duration="2" Instrument="Instrument 1"
				Note Time="20" Value="F5" Duration="1" Instrument="Instrument 1"
				Note Time="21" Value="D#5" Duration="2" Instrument="Instrument 1"
				Note Time="23" Value="G#4" Duration="1" Instrument="Instrument 1"
				Note Time="24" Value="C#5" Duration="2" Instrument="Instrument 1"
				Note Time="26" Value="C#5" Duration="1" Instrument="Instrument 1"
				Note Time="27" Value="F5" Duration="2" Instrument="Instrument 1"
				Note Time="29" Value="F5" Duration="1" Instrument="Instrument 1"
				Note Time="30" Value="F#5" Duration="2" Instrument="Instrument 1"
				Note Time="32" Value="F#5" Duration="1" Instrument="Instrument 1"
				Note Time="33" Value="G#5" Duration="2" Instrument="Instrument 1"
				Note Time="35" Value="G#5" Duration="1" Instrument="Instrument 1"
				Note Time="36" Value="F#5" Duration="2" Instrument="Instrument 1"
				Note Time="38" Value="F5" Duration="1" Instrument="Instrument 1"
				Note Time="39" Value="F#5" Duration="2" Instrument="Instrument 1"
				Note Time="41" Value="F5" Duration="1" Instrument="Instrument 1"
				Note Time="42" Value="F#5" Duration="2" Instrument="Instrument 1"
				Note Time="44" Value="F5" Duration="1" Instrument="Instrument 1"
				Note Time="45" Value="D#5" Duration="2" Instrument="Instrument 1"
				Note Time="47" Value="C#5" Duration="3" Instrument="Instrument 1"
			Pattern Name="05" Color="a657d6"
				Note Time="0" Volume="13" DutyCycle="1"
				Note Time="1" Volume="5"
				Note Time="2" Value="F4" Duration="1" Instrument="Instrument 1" Volume="15"
				Note Time="3" Value="F#4" Duration="2" Instrument="Instrument 1"
				Note Time="5" Value="F4" Duration="1" Instrument="Instrument 1"
				Note Time="6" Value="F#4" Duration="2" Instrument="Instrument 1"
				Note Time="8" Value="G#4" Duration="3" Instrument="Instrument 1"
				Note Time="11" Value="C#5" Duration="1" Instrument="Instrument 1"
				Note Time="12" Value="G#4" Duration="2" Instrument="Instrument 1"
				Note Time="14" Value="F#4" Duration="1" Instrument="Instrument 1"
				Note Time="15" Value="F4" Duration="3" Instrument="Instrument 1"
				Note Time="18" Value="F#4" Duration="2" Instrument="Instrument 1"
				Note Time="20" Value="F4" Duration="1" Instrument="Instrument 1"
				Note Time="21" Value="C#4" Duration="2" Instrument="Instrument 1"
				Note Time="23" Value="F4" Duration="1" Instrument="Instrument 1"
				Note Time="24" Value="C#4" Duration="2" Instrument="Instrument 1"
				Note Time="26" Value="F4" Duration="1" Instrument="Instrument 1"
				Note Time="27" Value="F#4" Duration="2" Instrument="Instrument 1"
				Note Time="29" Value="F4" Duration="1" Instrument="Instrument 1"
				Note Time="30" Value="F#4" Duration="2" Instrument="Instrument 1"
				Note Time="32" Value="G#4" Duration="3" Instrument="Instrument 1"
				Note Time="35" Value="C#5" Duration="1" Instrument="Instrument 1"
				Note Time="36" Value="G#4" Duration="2" Instrument="Instrument 1"
				Note Time="38" Value="F#4" Duration="1" Instrument="Instrument 1"
				Note Time="39" Value="F4" Duration="2" Instrument="Instrument 1"
				Note Time="41" Value="G#4" Duration="1" Instrument="Instrument 1"
				Note Time="42" Value="F#4" Duration="2" Instrument="Instrument 1"
				Note Time="44" Value="F4" Duration="1" Instrument="Instrument 1"
				Note Time="45" Value="F#4" Duration="2" Instrument="Instrument 1"
				Note Time="47" Value="G#4" Duration="1" Instrument="Instrument 1"
			Pattern Name="06" Color="ff7f51"
				Note Time="0" Value="C#4" Duration="2" Instrument="Instrument 1"
				Note Time="2" Value="F4" Duration="1" Instrument="Instrument 1"
				Note Time="3" Value="F#4" Duration="2" Instrument="Instrument 1"
				Note Time="5" Value="F4" Duration="1" Instrument="Instrument 1"
				Note Time="6" Value="F#4" Duration="2" Instrument="Instrument 1"
				Note Time="8" Value="G#4" Duration="3" Instrument="Instrument 1"
				Note Time="11" Value="C#5" Duration="1" Instrument="Instrument 1"
				Note Time="12" Value="G#4" Duration="2" Instrument="Instrument 1"
				Note Time="14" Value="F#4" Duration="1" Instrument="Instrument 1"
				Note Time="15" Value="F4" Duration="3" Instrument="Instrument 1"
				Note Time="18" Value="F#4" Duration="2" Instrument="Instrument 1"
				Note Time="20" Value="F4" Duration="1" Instrument="Instrument 1"
				Note Time="21" Value="C#4" Duration="2" Instrument="Instrument 1"
				Note Time="23" Value="F4" Duration="1" Instrument="Instrument 1"
				Note Time="24" Value="C#4" Duration="2" Instrument="Instrument 1"
				Note Time="26" Value="F4" Duration="1" Instrument="Instrument 1"
				Note Time="27" Value="F#4" Duration="2" Instrument="Instrument 1"
				Note Time="29" Value="F4" Duration="1" Instrument="Instrument 1"
				Note Time="30" Value="F#4" Duration="2" Instrument="Instrument 1"
				Note Time="32" Value="G#4" Duration="3" Instrument="Instrument 1"
				Note Time="35" Value="C#5" Duration="1" Instrument="Instrument 1"
				Note Time="36" Value="G#4" Duration="2" Instrument="Instrument 1"
				Note Time="38" Value="F#4" Duration="1" Instrument="Instrument 1"
				Note Time="39" Value="F4" Duration="3" Instrument="Instrument 1"
				Note Time="42" Value="F#4" Duration="2" Instrument="Instrument 1"
				Note Time="44" Value="F4" Duration="1" Instrument="Instrument 1"
				Note Time="45" Value="F#4" Duration="2" Instrument="Instrument 1"
				Note Time="47" Value="G#4" Duration="1" Instrument="Instrument 1"
			Pattern Name="07" Color="ffffb1"
				Note Time="0" Value="C#4" Duration="2" Instrument="Instrument 1"
				Note Time="2" Value="F4" Duration="1" Instrument="Instrument 1"
				Note Time="3" Value="F#4" Duration="2" Instrument="Instrument 1"
				Note Time="5" Value="F4" Duration="1" Instrument="Instrument 1"
				Note Time="6" Value="F#4" Duration="2" Instrument="Instrument 1"
				Note Time="8" Value="G#4" Duration="3" Instrument="Instrument 1"
				Note Time="11" Value="C#5" Duration="1" Instrument="Instrument 1"
				Note Time="12" Value="G#4" Duration="2" Instrument="Instrument 1"
				Note Time="14" Value="F#4" Duration="1" Instrument="Instrument 1"
				Note Time="15" Value="F4" Duration="3" Instrument="Instrument 1"
				Note Time="18" Value="F#4" Duration="2" Instrument="Instrument 1"
				Note Time="20" Value="F4" Duration="1" Instrument="Instrument 1"
				Note Time="21" Value="C#4" Duration="2" Instrument="Instrument 1"
				Note Time="23" Value="F4" Duration="1" Instrument="Instrument 1"
				Note Time="24" Value="C#4" Duration="2" Instrument="Instrument 1"
				Note Time="26" Value="F4" Duration="1" Instrument="Instrument 1"
				Note Time="27" Value="F#4" Duration="2" Instrument="Instrument 1"
				Note Time="29" Value="F4" Duration="1" Instrument="Instrument 1"
				Note Time="30" Value="F#4" Duration="2" Instrument="Instrument 1"
				Note Time="32" Value="G#4" Duration="3" Instrument="Instrument 1"
				Note Time="35" Value="C#5" Duration="1" Instrument="Instrument 1"
				Note Time="36" Value="F5" Duration="2" Instrument="Instrument 1"
				Note Time="38" Value="F#5" Duration="1" Instrument="Instrument 1"
				Note Time="39" Value="F5" Duration="2" Instrument="Instrument 1"
				Note Time="41" Value="C#5" Duration="1" Instrument="Instrument 1"
				Note Time="42" Value="D#5" Duration="2" Instrument="Instrument 1"
				Note Time="44" Value="C#5" Duration="1" Instrument="Instrument 1"
				Note Time="45" Value="D#5" Duration="2" Instrument="Instrument 1"
				Note Time="47" Value="F5" Duration="1" Instrument="Instrument 1"
			Pattern Name="08" Color="62ffff"
				Note Time="0" Value="C#5" Duration="1" Instrument="echo"
				Note Time="2" Value="C#3" Duration="1" Instrument="octave arp"
				Note Time="6" Value="C#3" Duration="1" Instrument="octave arp"
				Note Time="8" Value="C#3" Duration="1" Instrument="octave arp"
				Note Time="11" Value="C#3" Duration="1" Instrument="octave arp"
				Note Time="12" Value="F3" Duration="1" Instrument="octave arp"
				Note Time="15" Value="F3" Duration="1" Instrument="octave arp"
				Note Time="17" Value="F#3" Duration="1" Instrument="octave arp"
				Note Time="18" Value="F3" Duration="1" Instrument="octave arp"
				Note Time="20" Value="F3" Duration="1" Instrument="octave arp"
				Note Time="23" Value="F3" Duration="1" Instrument="octave arp"
				Note Time="24" Value="F#3" Duration="1" Instrument="octave arp"
				Note Time="27" Value="F#3" Duration="1" Instrument="octave arp"
				Note Time="29" Value="G#3" Duration="1" Instrument="octave arp"
				Note Time="32" Value="F#3" Duration="1" Instrument="octave arp"
				Note Time="35" Value="F#3" Duration="1" Instrument="octave arp"
				Note Time="36" Value="G#3" Duration="1" Instrument="octave arp"
				Note Time="39" Value="G#3" Duration="1" Instrument="octave arp"
				Note Time="41" Value="C#4" Duration="1" Instrument="octave arp"
				Note Time="42" Value="C4" Duration="1" Instrument="octave arp"
				Note Time="44" Value="G#3" Duration="1" Instrument="octave arp"
				Note Time="47" Value="G#3" Duration="1" Instrument="octave arp"
			Pattern Name="09" Color="a376f3"
				Note Time="0" Value="C#2" Duration="1" Instrument="echo"
				Note Time="2" Value="C#3" Duration="1" Instrument="octave arp"
				Note Time="6" Value="C#3" Duration="1" Instrument="octave arp"
				Note Time="8" Value="C#3" Duration="1" Instrument="octave arp"
				Note Time="11" Value="C#3" Duration="1" Instrument="octave arp"
				Note Time="12" Value="F3" Duration="1" Instrument="octave arp"
				Note Time="15" Value="F3" Duration="1" Instrument="octave arp"
				Note Time="17" Value="F#3" Duration="1" Instrument="octave arp"
				Note Time="18" Value="F3" Duration="1" Instrument="octave arp"
				Note Time="20" Value="F3" Duration="1" Instrument="octave arp"
				Note Time="23" Value="F3" Duration="1" Instrument="octave arp"
				Note Time="24" Value="F#3" Duration="1" Instrument="octave arp"
				Note Time="27" Value="F#3" Duration="1" Instrument="octave arp"
				Note Time="29" Value="G#3" Duration="1" Instrument="octave arp"
				Note Time="32" Value="F#3" Duration="1" Instrument="octave arp"
				Note Time="35" Value="F#3" Duration="1" Instrument="octave arp"
				Note Time="36" Value="G#3" Duration="1" Instrument="octave arp"
				Note Time="39" Value="G#3" Duration="1" Instrument="octave arp"
				Note Time="41" Value="C4" Duration="1" Instrument="octave arp"
				Note Time="44" Value="G#3" Duration="1" Instrument="octave arp"
				Note Time="47" Value="G#3" Duration="1" Instrument="octave arp"
			Pattern Name="0A" Color="b59184"
				Note Time="0" Value="C#5" Duration="5" Instrument="Instrument 1"
				Note Time="5" Value="F#4" Duration="3" Instrument="Instrument 1"
				Note Time="8" Value="G#4" Duration="2" Instrument="Instrument 1"
				Note Time="12" Value="C#5" Duration="3" Instrument="Instrument 1"
				Note Time="15" Value="F#5" Duration="3" Instrument="Instrument 1"
				Note Time="18" Value="F5" Duration="2" Instrument="Instrument 1"
				Note Time="20" Value="F#4" Duration="1" Instrument="Instrument 1"
				Note Time="21" Value="D#5" Duration="3" Instrument="Instrument 1"
				Note Time="24" Value="C#5" Duration="5" Instrument="Instrument 1"
				Note Time="29" Value="F#4" Duration="3" Instrument="Instrument 1"
				Note Time="32" Value="G#4" Duration="2" Instrument="Instrument 1"
				Note Time="36" Value="C#5" Duration="3" Instrument="Instrument 1"
				Note Time="39" Value="F#5" Duration="3" Instrument="Instrument 1"
				Note Time="42" Value="F5" Duration="2" Instrument="Instrument 1"
				Note Time="44" Value="F#5" Duration="1" Instrument="Instrument 1"
				Note Time="45" Value="G#5" Duration="3" Instrument="Instrument 1"
			Pattern Name="0B" Color="ffff71"
				Note Time="0" Value="C#4" Duration="3" Instrument="02 but tri" DutyCycle="0"
				Note Time="3" Value="F#4" Duration="3" Instrument="02 but tri"
				Note Time="6" Value="F4" Duration="3" Instrument="02 but tri"
				Note Time="9" Value="D#4" Duration="3" Instrument="02 but tri"
				Note Time="12" Value="C#4" Duration="3" Instrument="02 but tri"
				Note Time="15" Value="F#4" Duration="3" Instrument="02 but tri"
				Note Time="18" Value="F4" Duration="3" Instrument="02 but tri"
				Note Time="21" Value="D#4" Duration="3" Instrument="02 but tri"
				Note Time="24" Value="C#4" Duration="3" Instrument="02 but tri"
				Note Time="27" Value="F#4" Duration="3" Instrument="02 but tri"
				Note Time="30" Value="F4" Duration="3" Instrument="02 but tri"
				Note Time="33" Value="D#4" Duration="3" Instrument="02 but tri"
				Note Time="36" Value="G#4" Duration="3" Instrument="02 but tri"
				Note Time="39" Value="F#4" Duration="3" Instrument="02 but tri"
				Note Time="42" Value="F4" Duration="3" Instrument="02 but tri"
				Note Time="45" Value="C4" Duration="3" Instrument="02 but tri"
			Pattern Name="0C" Color="3cb5a7"
				Note Time="0" Value="C#4" Duration="3" Instrument="Instrument 2"
			PatternInstance Time="0" Pattern="00"
			PatternInstance Time="1" Pattern="01"
			PatternInstance Time="2" Pattern="0D"
			PatternInstance Time="3" Pattern="02"
			PatternInstance Time="4" Pattern="04"
			PatternInstance Time="5" Pattern="03"
			PatternInstance Time="6" Pattern="05"
			PatternInstance Time="7" Pattern="06"
			PatternInstance Time="8" Pattern="06"
			PatternInstance Time="9" Pattern="07"
			PatternInstance Time="10" Pattern="08"
			PatternInstance Time="11" Pattern="09"
			PatternInstance Time="12" Pattern="0A"
			PatternInstance Time="13" Pattern="0A"
			PatternInstance Time="14" Pattern="0B"
			PatternInstance Time="15" Pattern="0B"
			PatternInstance Time="16" Pattern="0C"
		Channel Type="Square2"
			Pattern Name="00" Color="6471cf"
				Note Time="0" Value="C#2" Duration="1" Instrument="blank instant decay" Volume="8" DutyCycle="2"
				Note Time="1" Value="G#2" Duration="1" Instrument="blank instant decay" Volume="4"
				Note Time="2" Value="C#3" Duration="1" Instrument="blank instant decay" Volume="8"
				Note Time="3" Value="C#2" Duration="1" Instrument="blank instant decay" Volume="8"
				Note Time="4" Value="G#2" Duration="1" Instrument="blank instant decay" Volume="4"
				Note Time="5" Value="C#3" Duration="1" Instrument="blank instant decay" Volume="8"
				Note Time="6" Value="C#2" Duration="1" Instrument="blank instant decay" Volume="8"
				Note Time="7" Value="G#2" Duration="1" Instrument="blank instant decay" Volume="4"
				Note Time="8" Value="C#3" Duration="1" Instrument="blank instant decay" Volume="8"
				Note Time="9" Value="C#2" Duration="1" Instrument="blank instant decay" Volume="8"
				Note Time="10" Value="G#2" Duration="1" Instrument="blank instant decay" Volume="4"
				Note Time="11" Value="C#3" Duration="1" Instrument="blank instant decay" Volume="8"
				Note Time="12" Value="F2" Duration="1" Instrument="blank instant decay" Volume="8"
				Note Time="13" Value="G#2" Duration="1" Instrument="blank instant decay" Volume="4"
				Note Time="14" Value="F3" Duration="1" Instrument="blank instant decay" Volume="8"
				Note Time="15" Value="F2" Duration="1" Instrument="blank instant decay" Volume="8"
				Note Time="16" Value="G#2" Duration="1" Instrument="blank instant decay" Volume="4"
				Note Time="17" Value="F3" Duration="1" Instrument="blank instant decay" Volume="8"
				Note Time="18" Value="F2" Duration="1" Instrument="blank instant decay" Volume="8"
				Note Time="19" Value="G#2" Duration="1" Instrument="blank instant decay" Volume="4"
				Note Time="20" Value="F3" Duration="1" Instrument="blank instant decay" Volume="8"
				Note Time="21" Value="F2" Duration="1" Instrument="blank instant decay" Volume="8"
				Note Time="22" Value="G#2" Duration="1" Instrument="blank instant decay" Volume="4"
				Note Time="23" Value="F3" Duration="1" Instrument="blank instant decay" Volume="8"
				Note Time="24" Value="F#2" Duration="1" Instrument="blank instant decay" Volume="8"
				Note Time="25" Value="A#2" Duration="1" Instrument="blank instant decay" Volume="4"
				Note Time="26" Value="F#3" Duration="1" Instrument="blank instant decay" Volume="8"
				Note Time="27" Value="F#2" Duration="1" Instrument="blank instant decay" Volume="8"
				Note Time="28" Value="A#2" Duration="1" Instrument="blank instant decay" Volume="4"
				Note Time="29" Value="F#3" Duration="1" Instrument="blank instant decay" Volume="8"
				Note Time="30" Value="F#2" Duration="1" Instrument="blank instant decay" Volume="8"
				Note Time="31" Value="A#2" Duration="1" Instrument="blank instant decay" Volume="4"
				Note Time="32" Value="F#3" Duration="1" Instrument="blank instant decay" Volume="8"
				Note Time="33" Value="F#2" Duration="1" Instrument="blank instant decay" Volume="8"
				Note Time="34" Value="A#2" Duration="1" Instrument="blank instant decay" Volume="4"
				Note Time="35" Value="F#3" Duration="1" Instrument="blank instant decay" Volume="8"
				Note Time="36" Value="G#2" Duration="1" Instrument="blank instant decay" Volume="8"
				Note Time="37" Value="C3" Duration="1" Instrument="blank instant decay" Volume="4"
				Note Time="38" Value="G#3" Duration="1" Instrument="blank instant decay" Volume="8"
				Note Time="39" Value="G#2" Duration="1" Instrument="blank instant decay" Volume="8"
				Note Time="40" Value="C3" Duration="1" Instrument="blank instant decay" Volume="4"
				Note Time="41" Value="G#3" Duration="1" Instrument="blank instant decay" Volume="8"
				Note Time="42" Value="G#2" Duration="1" Instrument="blank instant decay" Volume="8"
				Note Time="43" Value="C3" Duration="1" Instrument="blank instant decay" Volume="4"
				Note Time="44" Value="G#3" Duration="1" Instrument="blank instant decay" Volume="8"
				Note Time="45" Value="G#2" Duration="1" Instrument="blank instant decay" Volume="8"
				Note Time="46" Value="C3" Duration="1" Instrument="blank instant decay" Volume="4"
				Note Time="47" Value="G#3" Duration="1" Instrument="blank instant decay" Volume="8"
			Pattern Name="01" Color="ffafaf"
				Note Time="0" Value="C#2" Duration="1" Instrument="blank instant decay" Volume="8"
				Note Time="1" Value="G#2" Duration="1" Instrument="blank instant decay" Volume="4"
				Note Time="2" Value="C#3" Duration="1" Instrument="blank instant decay" Volume="8"
				Note Time="3" Value="C#2" Duration="1" Instrument="blank instant decay" Volume="8"
				Note Time="4" Value="G#2" Duration="1" Instrument="blank instant decay" Volume="4"
				Note Time="5" Value="C#3" Duration="1" Instrument="blank instant decay" Volume="8"
				Note Time="6" Value="C#2" Duration="1" Instrument="blank instant decay" Volume="8"
				Note Time="7" Value="G#2" Duration="1" Instrument="blank instant decay" Volume="4"
				Note Time="8" Value="C#3" Duration="1" Instrument="blank instant decay" Volume="8"
				Note Time="9" Value="C#2" Duration="1" Instrument="blank instant decay" Volume="8"
				Note Time="10" Value="G#2" Duration="1" Instrument="blank instant decay" Volume="4"
				Note Time="11" Value="C#3" Duration="1" Instrument="blank instant decay" Volume="8"
				Note Time="12" Value="F2" Duration="1" Instrument="blank instant decay" Volume="8"
				Note Time="13" Value="C#3" Duration="1" Instrument="blank instant decay" Volume="4"
				Note Time="14" Value="F3" Duration="1" Instrument="blank instant decay" Volume="8"
				Note Time="15" Value="F2" Duration="1" Instrument="blank instant decay" Volume="8"
				Note Time="16" Value="C#3" Duration="1" Instrument="blank instant decay" Volume="4"
				Note Time="17" Value="F3" Duration="1" Instrument="blank instant decay" Volume="8"
				Note Time="18" Value="F2" Duration="1" Instrument="blank instant decay" Volume="8"
				Note Time="19" Value="C#3" Duration="1" Instrument="blank instant decay" Volume="4"
				Note Time="20" Value="F3" Duration="1" Instrument="blank instant decay" Volume="8"
				Note Time="21" Value="F2" Duration="1" Instrument="blank instant decay" Volume="8"
				Note Time="22" Value="C#3" Duration="1" Instrument="blank instant decay" Volume="4"
				Note Time="23" Value="F3" Duration="1" Instrument="blank instant decay" Volume="8"
				Note Time="24" Value="C#4" Duration="3" Release="2" Instrument="shift string" Volume="10"
				Note Time="27" Value="F#4" Duration="3" Release="2" Instrument="shift string"
				Note Time="30" Value="F4" Duration="3" Release="2" Instrument="shift string"
				Note Time="33" Value="D#4" Duration="3" Release="2" Instrument="shift string"
				Note Time="36" Value="G#4" Duration="3" Release="2" Instrument="shift string"
				Note Time="39" Value="F#4" Duration="3" Release="2" Instrument="shift string"
				Note Time="42" Value="F4" Duration="3" Release="2" Instrument="shift string"
				Note Time="45" Value="C4" Duration="3" Release="2" Instrument="shift string"
			Pattern Name="02" Color="ffff8b"
				Note Time="0" Value="C#4" Duration="8" Release="2" Instrument="shift string"
			PatternInstance Time="0" Pattern="00"
			PatternInstance Time="1" Pattern="00"
			PatternInstance Time="2" Pattern="00"
			PatternInstance Time="3" Pattern="00"
			PatternInstance Time="4" Pattern="00"
			PatternInstance Time="5" Pattern="00"
			PatternInstance Time="6" Pattern="00"
			PatternInstance Time="7" Pattern="00"
			PatternInstance Time="8" Pattern="00"
			PatternInstance Time="9" Pattern="00"
			PatternInstance Time="10" Pattern="00"
			PatternInstance Time="11" Pattern="00"
			PatternInstance Time="12" Pattern="00"
			PatternInstance Time="13" Pattern="00"
			PatternInstance Time="14" Pattern="00"
			PatternInstance Time="15" Pattern="01"
			PatternInstance Time="16" Pattern="02"
		Channel Type="Triangle"
			Pattern Name="04" Color="ff579c"
				Note Time="2" Value="C#3" Duration="1" Instrument="DMC: drums + bass"
				Note Time="5" Value="C#3" Duration="1" Instrument="DMC: drums + bass"
				Note Time="8" Value="C#3" Duration="1" Instrument="DMC: drums + bass"
				Note Time="11" Value="C#3" Duration="1" Instrument="DMC: drums + bass"
				Note Time="14" Value="F3" Duration="1" Instrument="DMC: drums + bass"
				Note Time="17" Value="F3" Duration="1" Instrument="DMC: drums + bass"
				Note Time="20" Value="F3" Duration="1" Instrument="DMC: drums + bass"
				Note Time="23" Value="F3" Duration="1" Instrument="DMC: drums + bass"
				Note Time="26" Value="F#3" Duration="1" Instrument="DMC: drums + bass"
				Note Time="29" Value="F#3" Duration="1" Instrument="DMC: drums + bass"
				Note Time="32" Value="F#3" Duration="1" Instrument="DMC: drums + bass"
				Note Time="35" Value="F#3" Duration="1" Instrument="DMC: drums + bass"
				Note Time="38" Value="G#3" Duration="1" Instrument="DMC: drums + bass"
				Note Time="41" Value="G#3" Duration="1" Instrument="DMC: drums + bass"
				Note Time="44" Value="G#3" Duration="1" Instrument="DMC: drums + bass"
				Note Time="47" Value="G#3" Duration="1" Instrument="DMC: drums + bass"
			Pattern Name="06" Color="ffc83c"
				Note Time="0" Value="C#3" Duration="2" Instrument="DMC: drums + bass"
				Note Time="11" Value="C#3" Duration="1" Instrument="DMC: drums + bass"
				Note Time="12" Value="F3" Duration="2" Instrument="DMC: drums + bass"
				Note Time="23" Value="F3" Duration="1" Instrument="DMC: drums + bass"
				Note Time="24" Value="F#3" Duration="2" Instrument="DMC: drums + bass"
				Note Time="35" Value="F#3" Duration="1" Instrument="DMC: drums + bass"
				Note Time="36" Value="G#3" Duration="2" Instrument="DMC: drums + bass"
			Pattern Name="09" Color="a4db74"
				Note Time="0" Value="C#2" Duration="3" Instrument="DMC: drums + bass"
			PatternInstance Time="6" Pattern="04"
			PatternInstance Time="7" Pattern="04"
			PatternInstance Time="8" Pattern="04"
			PatternInstance Time="9" Pattern="04"
			PatternInstance Time="10" Pattern="06"
			PatternInstance Time="11" Pattern="06"
			PatternInstance Time="12" Pattern="06"
			PatternInstance Time="13" Pattern="06"
			PatternInstance Time="14" Pattern="06"
			PatternInstance Time="15" Pattern="06"
			PatternInstance Time="16" Pattern="09"
		Channel Type="Noise"
			Pattern Name="00" Color="3eb3f9"
				Note Time="0" Value="F#3" Duration="96" Instrument="sample" Volume="12"
				Note Time="1" Volume="10"
				Note Time="3" Volume="4"
				Note Time="4" Volume="1"
				Note Time="5" Volume="0"
			Pattern Name="02" Color="ffc6a1"
				Note Time="0" Value="F#3" Duration="3" Instrument="sample" Volume="12"
				Note Time="1" Volume="10"
				Note Time="3" Value="A3" Duration="2" Instrument="hat" Volume="15"
				Note Time="5" Value="A3" Duration="1" Instrument="hat"
				Note Time="6" Value="A3" Duration="2" Instrument="hat"
				Note Time="8" Value="A3" Duration="1" Instrument="hat"
				Note Time="9" Value="A3" Duration="2" Instrument="hat"
				Note Time="11" Value="A3" Duration="1" Instrument="hat"
				Note Time="12" Value="A3" Duration="3" Instrument="rel hats"
				Note Time="15" Value="A3" Duration="2" Instrument="hat"
				Note Time="17" Value="A3" Duration="1" Instrument="hat"
				Note Time="18" Value="A3" Duration="2" Instrument="hat"
				Note Time="20" Value="A3" Duration="1" Instrument="hat"
				Note Time="21" Value="A3" Duration="2" Instrument="hat"
				Note Time="23" Value="A3" Duration="1" Instrument="hat"
				Note Time="24" Value="A3" Duration="3" Instrument="rel hats"
				Note Time="27" Value="A3" Duration="2" Instrument="hat"
				Note Time="29" Value="A3" Duration="1" Instrument="hat"
				Note Time="30" Value="A3" Duration="2" Instrument="hat"
				Note Time="32" Value="A3" Duration="1" Instrument="hat"
				Note Time="33" Value="A3" Duration="2" Instrument="hat"
				Note Time="35" Value="A3" Duration="1" Instrument="hat"
				Note Time="36" Value="A3" Duration="3" Instrument="rel hats"
				Note Time="39" Value="A3" Duration="2" Instrument="hat"
				Note Time="41" Value="A3" Duration="1" Instrument="hat"
				Note Time="42" Value="A3" Duration="2" Instrument="hat"
				Note Time="44" Value="A3" Duration="1" Instrument="hat"
				Note Time="45" Value="A3" Duration="2" Instrument="hat"
				Note Time="47" Value="A3" Duration="1" Instrument="hat"
			Pattern Name="03" Color="ffff93"
				Note Time="0" Value="A3" Duration="2" Instrument="rel hats"
				Note Time="2" Value="A3" Duration="1" Instrument="hat"
				Note Time="3" Value="A3" Duration="2" Instrument="hat"
				Note Time="5" Value="A3" Duration="1" Instrument="hat"
				Note Time="6" Value="A3" Duration="2" Instrument="hat"
				Note Time="8" Value="A3" Duration="1" Instrument="hat"
				Note Time="9" Value="A3" Duration="2" Instrument="hat"
				Note Time="11" Value="A3" Duration="1" Instrument="hat"
				Note Time="12" Value="A3" Duration="3" Instrument="rel hats"
				Note Time="15" Value="A3" Duration="2" Instrument="hat"
				Note Time="17" Value="A3" Duration="1" Instrument="hat"
				Note Time="18" Value="A3" Duration="2" Instrument="hat"
				Note Time="20" Value="A3" Duration="1" Instrument="hat"
				Note Time="21" Value="A3" Duration="2" Instrument="hat"
				Note Time="23" Value="A3" Duration="1" Instrument="hat"
				Note Time="24" Value="A3" Duration="3" Instrument="rel hats"
				Note Time="27" Value="A3" Duration="2" Instrument="hat"
				Note Time="29" Value="A3" Duration="1" Instrument="hat"
				Note Time="30" Value="A3" Duration="2" Instrument="hat"
				Note Time="32" Value="A3" Duration="1" Instrument="hat"
				Note Time="33" Value="A3" Duration="2" Instrument="hat"
				Note Time="35" Value="A3" Duration="1" Instrument="hat"
				Note Time="36" Value="A3" Duration="3" Instrument="rel hats"
				Note Time="39" Value="A3" Duration="2" Instrument="hat"
				Note Time="41" Value="A3" Duration="1" Instrument="hat"
				Note Time="42" Value="A3" Duration="2" Instrument="hat"
				Note Time="44" Value="A3" Duration="1" Instrument="hat"
				Note Time="45" Value="A2" Duration="2" Instrument="snare"
				Note Time="47" Value="A3" Duration="1" Instrument="hat"
			Pattern Name="04" Color="3cf8ff"
				Note Time="0" Value="F#3" Duration="3" Instrument="sample" Volume="12"
				Note Time="1" Volume="10"
				Note Time="3" Value="G2" Duration="2" Instrument="snare" Volume="15"
				Note Time="5" Value="A3" Duration="1" Instrument="hat"
				Note Time="6" Value="A3" Duration="2" Instrument="hat"
				Note Time="8" Value="A3" Duration="1" Instrument="hat"
				Note Time="9" Value="G2" Duration="2" Instrument="snare"
				Note Time="11" Value="A3" Duration="1" Instrument="hat"
				Note Time="12" Value="A3" Duration="2" Instrument="rel hats"
				Note Time="14" Value="A3" Duration="1" Instrument="hat"
				Note Time="15" Value="G2" Duration="2" Instrument="snare"
				Note Time="17" Value="A3" Duration="1" Instrument="hat"
				Note Time="18" Value="A3" Duration="2" Instrument="hat"
				Note Time="20" Value="A3" Duration="1" Instrument="hat"
				Note Time="21" Value="G2" Duration="2" Instrument="snare"
				Note Time="23" Value="A3" Duration="1" Instrument="hat"
				Note Time="24" Value="A3" Duration="2" Instrument="rel hats"
				Note Time="26" Value="A3" Duration="1" Instrument="hat"
				Note Time="27" Value="G2" Duration="2" Instrument="snare"
				Note Time="29" Value="A3" Duration="1" Instrument="hat"
				Note Time="30" Value="A3" Duration="2" Instrument="hat"
				Note Time="32" Value="A3" Duration="1" Instrument="hat"
				Note Time="33" Value="G2" Duration="2" Instrument="snare"
				Note Time="35" Value="A3" Duration="1" Instrument="hat"
				Note Time="36" Value="A3" Duration="2" Instrument="rel hats"
				Note Time="38" Value="A3" Duration="1" Instrument="hat"
				Note Time="39" Value="G2" Duration="2" Instrument="snare"
				Note Time="41" Value="A3" Duration="1" Instrument="hat"
				Note Time="42" Value="A3" Duration="2" Instrument="hat"
				Note Time="44" Value="A3" Duration="1" Instrument="hat"
				Note Time="45" Value="G2" Duration="2" Instrument="snare"
				Note Time="47" Value="A3" Duration="1" Instrument="hat"
			Pattern Name="05" Color="9a71ed"
				Note Time="0" Value="A3" Duration="2" Instrument="rel hats"
				Note Time="2" Value="A3" Duration="1" Instrument="hat"
				Note Time="3" Value="G2" Duration="2" Instrument="snare"
				Note Time="5" Value="A3" Duration="1" Instrument="hat"
				Note Time="6" Value="A3" Duration="2" Instrument="hat"
				Note Time="8" Value="A3" Duration="1" Instrument="hat"
				Note Time="9" Value="G2" Duration="2" Instrument="snare"
				Note Time="11" Value="A3" Duration="1" Instrument="hat"
				Note Time="12" Value="A3" Duration="2" Instrument="rel hats"
				Note Time="14" Value="A3" Duration="1" Instrument="hat"
				Note Time="15" Value="G2" Duration="2" Instrument="snare"
				Note Time="17" Value="A3" Duration="1" Instrument="hat"
				Note Time="18" Value="A3" Duration="2" Instrument="hat"
				Note Time="20" Value="A3" Duration="1" Instrument="hat"
				Note Time="21" Value="G2" Duration="2" Instrument="snare"
				Note Time="23" Value="A3" Duration="1" Instrument="hat"
				Note Time="24" Value="A3" Duration="2" Instrument="rel hats"
				Note Time="26" Value="A3" Duration="1" Instrument="hat"
				Note Time="27" Value="G2" Duration="2" Instrument="snare"
				Note Time="29" Value="A3" Duration="1" Instrument="hat"
				Note Time="30" Value="A3" Duration="2" Instrument="hat"
				Note Time="32" Value="A3" Duration="1" Instrument="hat"
				Note Time="33" Value="G2" Duration="2" Instrument="snare"
				Note Time="35" Value="A3" Duration="1" Instrument="hat"
				Note Time="36" Value="A3" Duration="2" Instrument="rel hats"
				Note Time="38" Value="A3" Duration="1" Instrument="hat"
				Note Time="39" Value="G2" Duration="2" Instrument="snare"
				Note Time="41" Value="A3" Duration="1" Instrument="hat"
				Note Time="42" Value="A3" Duration="2" Instrument="hat"
				Note Time="44" Value="A3" Duration="1" Instrument="hat"
				Note Time="45" Value="G2" Duration="2" Instrument="snare"
				Note Time="47" Value="A3" Duration="1" Instrument="hat"
			Pattern Name="06" Color="a9887d"
				Note Time="0" Value="A3" Duration="2" Instrument="rel hats"
				Note Time="2" Value="A3" Duration="1" Instrument="hat"
				Note Time="3" Value="G2" Duration="2" Instrument="snare"
				Note Time="5" Value="A3" Duration="1" Instrument="hat"
				Note Time="6" Value="A3" Duration="2" Instrument="hat"
				Note Time="8" Value="A3" Duration="1" Instrument="hat"
				Note Time="9" Value="G2" Duration="2" Instrument="snare"
				Note Time="11" Value="A3" Duration="1" Instrument="hat"
				Note Time="12" Value="A3" Duration="2" Instrument="rel hats"
				Note Time="14" Value="A3" Duration="1" Instrument="hat"
				Note Time="15" Value="G2" Duration="2" Instrument="snare"
				Note Time="17" Value="A3" Duration="1" Instrument="hat"
				Note Time="18" Value="A3" Duration="2" Instrument="hat"
				Note Time="20" Value="A3" Duration="1" Instrument="hat"
				Note Time="21" Value="G2" Duration="2" Instrument="snare"
				Note Time="23" Value="A3" Duration="1" Instrument="hat"
				Note Time="24" Value="A3" Duration="2" Instrument="hat" Volume="8"
				Note Time="26" Value="A3" Duration="1" Instrument="hat"
				Note Time="27" Value="A3" Duration="2" Instrument="hat" Volume="10"
				Note Time="29" Value="A3" Duration="1" Instrument="hat"
				Note Time="30" Value="A3" Duration="2" Instrument="hat" Volume="11"
				Note Time="32" Value="A3" Duration="1" Instrument="hat"
				Note Time="33" Value="A3" Duration="2" Instrument="hat"
				Note Time="35" Value="A3" Duration="1" Instrument="hat"
				Note Time="36" Value="A3" Duration="2" Instrument="hat" Volume="12"
				Note Time="38" Value="A3" Duration="1" Instrument="hat"
				Note Time="39" Value="A3" Duration="2" Instrument="hat" Volume="15"
				Note Time="41" Value="A3" Duration="1" Instrument="hat"
				Note Time="42" Value="A3" Duration="2" Instrument="hat"
				Note Time="44" Value="A3" Duration="1" Instrument="hat"
				Note Time="45" Value="G2" Duration="3" Instrument="snare"
			PatternInstance Time="0" Pattern="00"
			PatternInstance Time="2" Pattern="02"
			PatternInstance Time="3" Pattern="03"
			PatternInstance Time="4" Pattern="04"
			PatternInstance Time="5" Pattern="05"
			PatternInstance Time="6" Pattern="04"
			PatternInstance Time="7" Pattern="05"
			PatternInstance Time="8" Pattern="04"
			PatternInstance Time="9" Pattern="05"
			PatternInstance Time="10" Pattern="04"
			PatternInstance Time="11" Pattern="05"
			PatternInstance Time="12" Pattern="04"
			PatternInstance Time="13" Pattern="05"
			PatternInstance Time="14" Pattern="04"
			PatternInstance Time="15" Pattern="06"
			PatternInstance Time="16" Pattern="00"
		Channel Type="DPCM"
			Pattern Name="00" Color="fffc69"
				Note Time="0" Value="E5" Duration="96" Instrument="DMC: drums + bass"
			Pattern Name="02" Color="b5c2ff"
				Note Time="41" Value="E5" Duration="1" Instrument="DMC: drums + bass"
				Note Time="42" Value="E5" Duration="3" Instrument="DMC: drums + bass"
				Note Time="45" Value="F5" Duration="3" Instrument="DMC: drums + bass"
			Pattern Name="03" Color="ff8f8c"
				Note Time="0" Value="E5" Duration="3" Instrument="DMC: drums + bass"
				Note Time="3" Value="F5" Duration="2" Instrument="DMC: drums + bass"
				Note Time="5" Value="E5" Duration="3" Instrument="DMC: drums + bass"
				Note Time="8" Value="E5" Duration="1" Instrument="DMC: drums + bass"
				Note Time="9" Value="F5" Duration="3" Instrument="DMC: drums + bass"
				Note Time="12" Value="E5" Duration="3" Instrument="DMC: drums + bass"
				Note Time="15" Value="F5" Duration="2" Instrument="DMC: drums + bass"
				Note Time="17" Value="E5" Duration="3" Instrument="DMC: drums + bass"
				Note Time="20" Value="E5" Duration="1" Instrument="DMC: drums + bass"
				Note Time="21" Value="F5" Duration="3" Instrument="DMC: drums + bass"
				Note Time="24" Value="E5" Duration="3" Instrument="DMC: drums + bass"
				Note Time="27" Value="F5" Duration="2" Instrument="DMC: drums + bass"
				Note Time="29" Value="E5" Duration="3" Instrument="DMC: drums + bass"
				Note Time="32" Value="E5" Duration="1" Instrument="DMC: drums + bass"
				Note Time="33" Value="F5" Duration="3" Instrument="DMC: drums + bass"
				Note Time="36" Value="E5" Duration="3" Instrument="DMC: drums + bass"
				Note Time="39" Value="F5" Duration="2" Instrument="DMC: drums + bass"
				Note Time="41" Value="E5" Duration="3" Instrument="DMC: drums + bass"
				Note Time="44" Value="E5" Duration="1" Instrument="DMC: drums + bass"
				Note Time="45" Value="F5" Duration="3" Instrument="DMC: drums + bass"
			Pattern Name="04" Color="ffff64"
				Note Time="0" Value="E5" Duration="3" Instrument="DMC: drums + bass"
				Note Time="3" Value="F5" Duration="2" Instrument="DMC: drums + bass"
				Note Time="5" Value="E5" Duration="3" Instrument="DMC: drums + bass"
				Note Time="8" Value="E5" Duration="1" Instrument="DMC: drums + bass"
				Note Time="9" Value="F5" Duration="3" Instrument="DMC: drums + bass"
				Note Time="12" Value="E5" Duration="3" Instrument="DMC: drums + bass"
				Note Time="15" Value="F5" Duration="2" Instrument="DMC: drums + bass"
				Note Time="17" Value="E5" Duration="3" Instrument="DMC: drums + bass"
				Note Time="20" Value="E5" Duration="1" Instrument="DMC: drums + bass"
				Note Time="21" Value="F5" Duration="24" Instrument="DMC: drums + bass"
				Note Time="45" Value="F5" Duration="3" Instrument="DMC: drums + bass"
			Pattern Name="05" Color="88eb8c"
				Note Time="0" Value="E5" Duration="8" Instrument="DMC: drums + bass"
			PatternInstance Time="0" Pattern="00"
			PatternInstance Time="2" Pattern="00"
			PatternInstance Time="3" Pattern="02"
			PatternInstance Time="4" Pattern="03"
			PatternInstance Time="5" Pattern="03"
			PatternInstance Time="6" Pattern="03"
			PatternInstance Time="7" Pattern="03"
			PatternInstance Time="8" Pattern="03"
			PatternInstance Time="9" Pattern="03"
			PatternInstance Time="10" Pattern="03"
			PatternInstance Time="11" Pattern="03"
			PatternInstance Time="12" Pattern="03"
			PatternInstance Time="13" Pattern="03"
			PatternInstance Time="14" Pattern="03"
			PatternInstance Time="15" Pattern="04"
			PatternInstance Time="16" Pattern="05"
	Song Name="Time Machine" Color="ffff75" Folder="Official music used in the game" Length="30" LoopPoint="-1" PatternLength="32" BeatLength="4" FamiTrackerTempo="143" FamiTrackerSpeed="6"
		PatternCustomSettings Time="0" Length="16"
		PatternCustomSettings Time="29" Length="8"
		Channel Type="Square1"
			Pattern Name="00" Color="ffffb1"
				Note Time="0" Value="F5" Duration="8" Instrument="blank" SlideTarget="F3" Volume="3"
				Note Time="8" Value="F3" Duration="7" Instrument="blank" SlideTarget="D5"
				Note Time="15" Value="D5" Duration="1" Instrument="blank" Attack="False" Volume="2"
			Pattern Name="01" Color="62ffff"
				Note Time="0" Value="G3" Duration="16" Release="8" Instrument="blank slower string" Volume="15" DutyCycle="2"
				Note Time="16" Value="A3" Duration="4" Instrument="blank slower string"
				Note Time="20" Value="F3" Duration="4" Instrument="blank slower string"
				Note Time="24" Value="F4" Duration="8" Release="6" Instrument="blank slower string"
			Pattern Name="02" Color="a376f3"
				Note Time="0" Value="G3" Duration="16" Release="8" Instrument="blank slower string"
				Note Time="16" Value="A3" Duration="4" Instrument="blank slower string"
				Note Time="20" Value="F3" Duration="4" Instrument="blank slower string"
				Note Time="24" Value="C4" Duration="8" Release="6" Instrument="blank slower string"
			Pattern Name="03" Color="b59184"
				Note Time="0" Value="G3" Duration="16" Release="8" Instrument="blank slower string"
				Note Time="16" Value="F4" Duration="6" Instrument="blank slower string"
				Note Time="22" Value="D4" Duration="8" Release="2" Instrument="blank slower string"
				Note Time="30" Value="F4" Duration="1" Instrument="echo"
				Note Time="31" Value="G4" Duration="1" Instrument="echo"
			Pattern Name="04" Color="ffff71"
				Note Time="0" Value="G3" Duration="16" Release="8" Instrument="blank slower string"
				Note Time="16" Value="A3" Duration="8" Release="4" Instrument="blank slower string"
				Note Time="24" Value="G3" Duration="8" Release="6" Instrument="blank slower string"
			Pattern Name="05" Color="3cb5a7"
				Note Time="0" Value="G3" Duration="8" Instrument="blank slower string"
				Note Time="8" Value="D4" Duration="8" Instrument="blank slower string"
				Note Time="16" Value="A3" Duration="2" Instrument="blank slower string" Volume="15"
				Note Time="18" Value="G3" Duration="2" Instrument="blank slower string" Volume="8"
				Note Time="20" Value="F3" Duration="2" Instrument="blank slower string" Volume="15"
				Note Time="22" Value="A3" Duration="2" Instrument="blank slower string" Volume="8"
				Note Time="24" Value="C4" Duration="8" Release="6" Instrument="blank slower string" Volume="15"
			Pattern Name="06" Color="6471cf"
				Note Time="0" Value="G3" Duration="8" Instrument="blank slower string"
				Note Time="8" Value="D4" Duration="8" Instrument="blank slower string"
				Note Time="16" Value="G4" Duration="6" Release="3" Instrument="blank slower string"
				Note Time="22" Value="E4" Duration="6" Release="2" Instrument="blank slower string"
				Note Time="28" Value="C4" Duration="4" Instrument="blank slower string"
			Pattern Name="07" Color="ffafaf"
				Note Time="0" Value="G3" Duration="8" Instrument="blank slower string"
				Note Time="8" Value="D4" Duration="8" Instrument="blank slower string"
				Note Time="16" Value="A3" Duration="4" Instrument="blank slower string"
				Note Time="20" Value="F3" Duration="4" Instrument="blank slower string"
				Note Time="24" Value="G3" Duration="4" Instrument="blank slower string"
				Note Time="28" Value="G3" Duration="1" Instrument="echo" Volume="15"
				Note Time="29" Value="A#3" Duration="1" Instrument="echo"
				Note Time="30" Value="D4" Duration="1" Instrument="echo"
				Note Time="31" Value="F4" Duration="1" Instrument="echo"
			Pattern Name="08" Color="ffff8b"
				Note Time="0" Value="G4" Duration="2" Instrument="echo" Volume="15"
				Note Time="2" Value="G3" Duration="2" Instrument="echo" DutyCycle="0"
				Note Time="4" Value="G3" Duration="1" Instrument="echo" DutyCycle="1"
				Note Time="5" Value="G3" Duration="1" Instrument="echo" DutyCycle="0"
				Note Time="6" Value="G3" Duration="1" Instrument="echo"
				Note Time="7" Value="G3" Duration="3" Instrument="echo" DutyCycle="1"
				Note Time="10" Value="G4" Duration="2" Instrument="echo"
				Note Time="12" Value="G3" Duration="1" Instrument="echo"
				Note Time="13" Value="G3" Duration="1" Instrument="echo" DutyCycle="0"
				Note Time="14" Value="G3" Duration="1" Instrument="echo"
				Note Time="15" Value="G3" Duration="1" Instrument="echo" DutyCycle="1"
				Note Time="16" Value="G4" Duration="2" Instrument="echo"
				Note Time="18" Value="G3" Duration="1" Instrument="echo" DutyCycle="0"
				Note Time="19" Value="G3" Duration="1" Instrument="echo"
				Note Time="20" Value="F3" Duration="1" Instrument="echo"
				Note Time="21" Value="G3" Duration="1" Instrument="echo" DutyCycle="1"
				Note Time="22" Value="C4" Duration="2" Instrument="echo"
				Note Time="24" Value="D5" Duration="1" Instrument="echo" DutyCycle="0"
				Note Time="25" Value="A#4" Duration="1" Instrument="echo"
				Note Time="26" Value="G4" Duration="1" Instrument="echo"
				Note Time="27" Value="F4" Duration="1" Instrument="echo" DutyCycle="1"
				Note Time="28" Value="D4" Duration="1" Instrument="echo"
				Note Time="29" Value="G3" Duration="1" Instrument="echo" DutyCycle="0"
				Note Time="30" Value="D4" Duration="1" Instrument="echo"
				Note Time="31" Value="F4" Duration="1" Instrument="echo"
			Pattern Name="09" Color="a2f7a6"
				Note Time="0" Value="G4" Duration="2" Instrument="echo"
				Note Time="2" Value="G3" Duration="2" Instrument="echo" DutyCycle="1"
				Note Time="4" Value="G3" Duration="1" Instrument="echo"
				Note Time="5" Value="G3" Duration="1" Instrument="echo" DutyCycle="0"
				Note Time="6" Value="G3" Duration="1" Instrument="echo"
				Note Time="7" Value="G3" Duration="3" Instrument="echo" DutyCycle="1"
				Note Time="10" Value="G4" Duration="2" Instrument="echo"
				Note Time="12" Value="G3" Duration="1" Instrument="echo" DutyCycle="0"
				Note Time="13" Value="G3" Duration="1" Instrument="echo"
				Note Time="14" Value="G3" Duration="1" Instrument="echo"
				Note Time="15" Value="G3" Duration="1" Instrument="echo"
				Note Time="16" Value="G4" Duration="2" Instrument="echo" DutyCycle="1"
				Note Time="18" Value="G3" Duration="1" Instrument="echo"
				Note Time="19" Value="G3" Duration="1" Instrument="echo" DutyCycle="0"
				Note Time="20" Value="F3" Duration="1" Instrument="echo"
				Note Time="21" Value="G3" Duration="1" Instrument="echo"
				Note Time="22" Value="G3" Duration="2" Instrument="echo" DutyCycle="1"
				Note Time="24" Value="C5" Duration="1" Instrument="echo"
				Note Time="25" Value="D5" Duration="1" Instrument="echo"
				Note Time="26" Value="A#4" Duration="1" Instrument="echo"
				Note Time="27" Value="G4" Duration="1" Instrument="echo"
				Note Time="28" Value="F4" Duration="1" Instrument="echo" DutyCycle="0"
				Note Time="29" Value="G4" Duration="1" Instrument="echo"
				Note Time="30" Value="A#4" Duration="2" Instrument="echo"
			Pattern Name="0A" Color="5dd2ff"
				Note Time="0" Value="G3" Duration="2" Instrument="echo"
				Note Time="2" Value="G3" Duration="2" Instrument="echo" DutyCycle="1"
				Note Time="4" Value="G3" Duration="1" Instrument="echo" DutyCycle="0"
				Note Time="5" Value="G3" Duration="1" Instrument="echo"
				Note Time="6" Value="G3" Duration="1" Instrument="echo"
				Note Time="7" Value="G3" Duration="3" Instrument="echo" DutyCycle="1"
				Note Time="10" Value="G4" Duration="2" Instrument="echo"
				Note Time="12" Value="G3" Duration="1" Instrument="echo"
				Note Time="13" Value="G3" Duration="1" Instrument="echo" DutyCycle="0"
				Note Time="14" Value="G3" Duration="1" Instrument="echo"
				Note Time="15" Value="G3" Duration="1" Instrument="echo"
				Note Time="16" Value="G4" Duration="2" Instrument="echo" DutyCycle="1"
				Note Time="18" Value="G3" Duration="1" Instrument="echo"
				Note Time="19" Value="G3" Duration="1" Instrument="echo"
				Note Time="20" Value="G3" Duration="1" Instrument="echo"
				Note Time="21" Value="G3" Duration="1" Instrument="echo"
				Note Time="22" Value="G3" Duration="2" Instrument="echo"
				Note Time="24" Value="C5" Duration="1" Instrument="echo"
				Note Time="25" Value="A#4" Duration="1" Instrument="echo" DutyCycle="0"
				Note Time="26" Value="G4" Duration="2" Instrument="echo"
				Note Time="28" Value="F4" Duration="1" Instrument="echo"
				Note Time="29" Value="G4" Duration="1" Instrument="echo"
				Note Time="30" Value="D4" Duration="1" Instrument="echo"
				Note Time="31" Value="F4" Duration="1" Instrument="echo"
			Pattern Name="0B" Color="ff579c"
				Note Time="0" Value="C4" Duration="4" Instrument="echo" DutyCycle="1"
				Note Time="4" Value="A#3" Duration="4" Instrument="echo"
				Note Time="8" Value="C4" Duration="1" Instrument="echo" DutyCycle="0"
				Note Time="9" Value="C4" Duration="2" Instrument="echo"
				Note Time="11" Value="A#3" Duration="1" Instrument="echo"
				Note Time="12" Value="D4" Duration="1" Instrument="echo"
				Note Time="13" Value="D4" Duration="1" Instrument="echo"
				Note Time="14" Value="D4" Duration="1" Instrument="echo" DutyCycle="1"
				Note Time="15" Value="D4" Duration="1" Instrument="echo"
				Note Time="16" Value="F4" Duration="6" Instrument="echo"
				Note Time="22" Value="D4" Duration="1" Instrument="echo"
				Note Time="23" Value="A#3" Duration="1" Instrument="echo" DutyCycle="0"
				Note Time="24" Value="A#4" Duration="3" Instrument="echo"
				Note Time="27" Value="F4" Duration="5" Instrument="echo"
			Pattern Name="0C" Color="ffc83c"
				Note Time="0" Value="G4" Duration="4" Instrument="echo" Volume="15" DutyCycle="0"
				Note Time="4" Value="F4" Duration="4" Instrument="echo" DutyCycle="1"
				Note Time="8" Value="G4" Duration="4" Instrument="echo"
				Note Time="9" DutyCycle="0"
				Note Time="12" Value="F4" Duration="2" Instrument="echo"
				Note Time="14" Value="G4" Duration="4" Instrument="echo"
				Note Time="18" Value="G4" Duration="2" Instrument="echo"
				Note Time="20" Value="F4" Duration="4" Instrument="echo" DutyCycle="1"
				Note Time="24" Value="A#4" Duration="2" Instrument="echo"
				Note Time="26" Value="G4" Duration="2" Instrument="echo"
				Note Time="28" Value="G3" Duration="1" Instrument="echo" Volume="15" DutyCycle="2"
				Note Time="29" Value="G3" Duration="1" Instrument="echo" SlideTarget="A#3"
				Note Time="30" Value="A#3" Duration="1" Instrument="echo" SlideTarget="D4"
				Note Time="31" Value="D4" Duration="1" Instrument="echo" SlideTarget="F4"
			Pattern Name="0D" Color="a4db74"
				Note Time="0" Value="F4" Duration="1" Instrument="echo" SlideTarget="G4" DutyCycle="0"
				Note Time="1" Value="G4" Duration="3" Instrument="echo" Attack="False"
				Note Time="4" Value="F4" Duration="4" Instrument="echo"
				Note Time="6" DutyCycle="1"
				Note Time="8" Value="G4" Duration="4" Instrument="echo"
				Note Time="12" Value="F4" Duration="2" Instrument="echo"
				Note Time="14" Value="G4" Duration="4" Instrument="echo"
				Note Time="18" Value="G4" Duration="2" Instrument="echo"
				Note Time="20" Value="A#4" Duration="2" Instrument="echo" DutyCycle="0"
				Note Time="22" Value="A4" Duration="2" Instrument="echo"
				Note Time="24" Value="C5" Duration="1" Instrument="echo"
				Note Time="25" Value="A#4" Duration="1" Instrument="echo"
				Note Time="26" Value="G4" Duration="2" Instrument="echo"
				Note Time="28" Value="F4" Duration="1" Instrument="echo" DutyCycle="1"
				Note Time="29" Value="G4" Duration="1" Instrument="echo"
				Note Time="30" Value="D4" Duration="1" Instrument="echo"
				Note Time="31" Value="F4" Duration="1" Instrument="echo"
			Pattern Name="0E" Color="3eb3f9"
				Note Time="0" Value="G4" Duration="4" Instrument="echo" DutyCycle="1"
				Note Time="4" Value="C4" Duration="1" Instrument="echo" DutyCycle="0"
				Note Time="5" Value="C4" Duration="3" Instrument="echo"
				Note Time="8" Value="A#3" Duration="2" Instrument="echo" DutyCycle="1"
				Note Time="10" Value="A#3" Duration="2" Instrument="echo"
				Note Time="12" Value="C4" Duration="2" Instrument="echo" DutyCycle="0"
				Note Time="14" Value="C5" Duration="2" Instrument="echo"
				Note Time="16" Value="G4" Duration="2" Instrument="echo" DutyCycle="1"
				Note Time="18" Value="G3" Duration="2" Instrument="echo"
				Note Time="20" Value="F3" Duration="2" Instrument="echo" DutyCycle="0"
				Note Time="22" Value="F3" Duration="1" Instrument="echo"
				Note Time="23" Value="F3" Duration="1" Instrument="echo"
				Note Time="24" Value="G3" Duration="2" Instrument="echo" DutyCycle="1"
				Note Time="26" Value="G3" Duration="2" Instrument="echo"
				Note Time="28" Value="A#3" Duration="2" Instrument="echo" DutyCycle="0"
				Note Time="30" Value="D4" Duration="1" Instrument="echo"
				Note Time="31" Value="F4" Duration="1" Instrument="echo"
			Pattern Name="0F" Color="f6a4ff"
				Note Time="0" Value="G4" Duration="2" Instrument="echo" Volume="15"
				Note Time="2" Value="G3" Duration="2" Instrument="echo" DutyCycle="0"
				Note Time="4" Value="G3" Duration="1" Instrument="echo"
				Note Time="5" Value="G3" Duration="1" Instrument="echo"
				Note Time="6" Value="G3" Duration="1" Instrument="echo"
				Note Time="7" Value="G3" Duration="3" Instrument="echo"
				Note Time="10" Value="G4" Duration="2" Instrument="echo"
				Note Time="12" Value="G3" Duration="1" Instrument="echo"
				Note Time="13" Value="G3" Duration="1" Instrument="echo"
				Note Time="14" Value="G3" Duration="1" Instrument="echo"
				Note Time="15" Value="G3" Duration="1" Instrument="echo"
				Note Time="16" Value="G4" Duration="2" Instrument="echo"
				Note Time="18" Value="G3" Duration="1" Instrument="echo"
				Note Time="19" Value="G3" Duration="1" Instrument="echo"
				Note Time="20" Value="F3" Duration="1" Instrument="echo"
				Note Time="21" Value="G3" Duration="1" Instrument="echo"
				Note Time="22" Value="A#3" Duration="2" Instrument="echo"
				Note Time="24" Value="C5" Duration="1" Instrument="echo"
				Note Time="25" Value="D5" Duration="1" Instrument="echo"
				Note Time="26" Value="A#4" Duration="1" Instrument="echo"
				Note Time="27" Value="G4" Duration="1" Instrument="echo"
				Note Time="28" Value="G3" Duration="1" Instrument="echo" Volume="15" DutyCycle="2"
				Note Time="29" Value="G3" Duration="1" Instrument="echo" SlideTarget="A#3"
				Note Time="30" Value="A#3" Duration="1" Instrument="echo" SlideTarget="D4"
				Note Time="31" Value="D4" Duration="1" Instrument="echo" SlideTarget="F4"
			Pattern Name="10" Color="ffc6a1"
				Note Time="0" Value="F4" Duration="1" Instrument="echo" SlideTarget="G5" Volume="15" DutyCycle="1"
				Note Time="1" Value="G5" Duration="1" Instrument="echo" Attack="False" FinePitch="0"
				Note Time="2" Value="G5" Duration="1" Instrument="blank string" SlideTarget="G3" Volume="4" DutyCycle="2"
				Note Time="3" Value="G3" Duration="1" Instrument="blank string" Attack="False"
				Note Time="4" Value="G3" Duration="1" Instrument="echo" Volume="15" DutyCycle="0"
				Note Time="5" Value="G3" Duration="1" Instrument="echo"
				Note Time="6" Value="G3" Duration="1" Instrument="echo"
				Note Time="7" Value="G3" Duration="3" Instrument="echo"
				Note Time="10" Value="G4" Duration="2" Instrument="echo"
				Note Time="12" Value="G3" Duration="1" Instrument="echo"
				Note Time="13" Value="G3" Duration="1" Instrument="echo"
				Note Time="14" Value="G3" Duration="1" Instrument="echo"
				Note Time="15" Value="G3" Duration="1" Instrument="echo"
				Note Time="16" Value="G4" Duration="2" Instrument="echo"
				Note Time="18" Value="G3" Duration="1" Instrument="echo"
				Note Time="19" Value="G3" Duration="1" Instrument="echo"
				Note Time="20" Value="F3" Duration="1" Instrument="echo"
				Note Time="21" Value="G3" Duration="1" Instrument="echo"
				Note Time="22" Value="A#3" Duration="2" Instrument="echo"
				Note Time="24" Value="C5" Duration="1" Instrument="echo"
				Note Time="25" Value="D5" Duration="1" Instrument="echo"
				Note Time="26" Value="A#4" Duration="1" Instrument="echo"
				Note Time="27" Value="G4" Duration="1" Instrument="echo"
				Note Time="28" Value="F4" Duration="1" Instrument="echo"
				Note Time="29" Value="G4" Duration="1" Instrument="echo"
				Note Time="30" Value="A#4" Duration="2" Instrument="echo"
			Pattern Name="11" Color="ffff93"
				Note Time="0" Value="G4" Duration="2" Release="1" Instrument="shift string" Volume="15" DutyCycle="1"
				Note Time="1" Volume="10"
				Note Time="2" Value="D4" Duration="2" Release="1" Instrument="shift string" Volume="15"
				Note Time="3" Volume="10"
				Note Time="4" Value="G3" Duration="2" Release="1" Instrument="shift string"
				Note Time="6" Value="G4" Duration="2" Release="1" Instrument="shift string" Volume="15"
				Note Time="7" Volume="10"
				Note Time="8" Value="F4" Duration="2" Release="1" Instrument="shift string" Volume="15"
				Note Time="9" Volume="10"
				Note Time="10" Value="D4" Duration="2" Release="1" Instrument="shift string" Volume="15"
				Note Time="11" Volume="10"
				Note Time="12" Value="A#3" Duration="2" Release="1" Instrument="shift string"
				Note Time="14" Value="F4" Duration="2" Release="1" Instrument="shift string" Volume="15"
				Note Time="15" Volume="10"
				Note Time="16" Value="E4" Duration="2" Release="1" Instrument="shift string" Volume="15"
				Note Time="17" Volume="10"
				Note Time="18" Value="C4" Duration="2" Release="1" Instrument="shift string" Volume="15"
				Note Time="19" Volume="10"
				Note Time="20" Value="G3" Duration="2" Release="1" Instrument="shift string"
				Note Time="22" Value="F4" Duration="2" Release="1" Instrument="shift string" Volume="15"
				Note Time="23" Volume="10"
				Note Time="24" Value="E4" Duration="2" Release="1" Instrument="shift string" Volume="15"
				Note Time="25" Volume="10"
				Note Time="26" Value="C4" Duration="2" Release="1" Instrument="shift string" Volume="15"
				Note Time="27" Volume="10"
				Note Time="28" Value="D4" Duration="2" Release="1" Instrument="shift string" Volume="15"
				Note Time="29" Volume="10"
				Note Time="30" Value="A#3" Duration="2" Release="1" Instrument="shift string"
			Pattern Name="12" Color="3cf8ff"
				Note Time="0" Value="G4" Duration="2" Release="1" Instrument="shift string" Volume="15"
				Note Time="1" Volume="10"
				Note Time="2" Value="D4" Duration="2" Release="1" Instrument="shift string" Volume="15"
				Note Time="3" Volume="10"
				Note Time="4" Value="G3" Duration="2" Release="1" Instrument="shift string"
				Note Time="6" Value="G4" Duration="2" Release="1" Instrument="shift string" Volume="15"
				Note Time="7" Volume="10"
				Note Time="8" Value="F4" Duration="2" Release="1" Instrument="shift string" Volume="15"
				Note Time="9" Volume="10"
				Note Time="10" Value="D4" Duration="2" Release="1" Instrument="shift string" Volume="15"
				Note Time="11" Volume="10"
				Note Time="12" Value="A#3" Duration="2" Release="1" Instrument="shift string"
				Note Time="14" Value="F4" Duration="2" Release="1" Instrument="shift string" Volume="15"
				Note Time="15" Volume="10"
				Note Time="16" Value="E4" Duration="2" Release="1" Instrument="shift string" Volume="15"
				Note Time="17" Volume="10"
				Note Time="18" Value="C4" Duration="2" Release="1" Instrument="shift string" Volume="15"
				Note Time="19" Volume="10"
				Note Time="20" Value="G3" Duration="2" Release="1" Instrument="shift string"
				Note Time="22" Value="E4" Duration="2" Release="1" Instrument="shift string" Volume="15"
				Note Time="23" Volume="10"
				Note Time="24" Value="D4" Duration="2" Release="1" Instrument="shift string" Volume="15"
				Note Time="25" Volume="10"
				Note Time="26" Value="C4" Duration="2" Release="1" Instrument="shift string" Volume="15"
				Note Time="27" Volume="10"
				Note Time="28" Value="E4" Duration="2" Release="1" Instrument="shift string" Volume="15"
				Note Time="29" Volume="10"
				Note Time="30" Value="F4" Duration="2" Release="1" Instrument="shift string" Volume="15"
				Note Time="31" Volume="10"
			Pattern Name="13" Color="9a71ed"
				Note Time="0" Value="G4" Duration="2" Release="1" Instrument="shift string" Volume="15"
				Note Time="1" Volume="10"
				Note Time="2" Value="D4" Duration="2" Release="1" Instrument="shift string" Volume="15"
				Note Time="3" Volume="10"
				Note Time="4" Value="G3" Duration="2" Release="1" Instrument="shift string"
				Note Time="6" Value="G4" Duration="2" Release="1" Instrument="shift string" Volume="15"
				Note Time="7" Volume="10"
				Note Time="8" Value="F4" Duration="2" Release="1" Instrument="shift string" Volume="15"
				Note Time="9" Volume="10"
				Note Time="10" Value="D4" Duration="2" Release="1" Instrument="shift string" Volume="15"
				Note Time="11" Volume="10"
				Note Time="12" Value="A#3" Duration="2" Release="1" Instrument="shift string"
				Note Time="14" Value="F4" Duration="2" Release="1" Instrument="shift string" Volume="15"
				Note Time="15" Volume="10"
				Note Time="16" Value="E4" Duration="2" Release="1" Instrument="shift string" Volume="15"
				Note Time="17" Volume="10"
				Note Time="18" Value="C4" Duration="2" Release="1" Instrument="shift string" Volume="15"
				Note Time="19" Volume="10"
				Note Time="20" Value="G3" Duration="2" Release="1" Instrument="shift string"
				Note Time="22" Value="F4" Duration="2" Release="1" Instrument="shift string" Volume="15"
				Note Time="23" Volume="10"
				Note Time="24" Value="A#4" Duration="2" Release="1" Instrument="shift string" Volume="15"
				Note Time="25" Volume="10"
				Note Time="26" Value="C5" Duration="2" Release="1" Instrument="shift string" Volume="15"
				Note Time="27" Volume="10"
				Note Time="28" Value="G4" Duration="3" Release="1" Instrument="shift string" Volume="15"
				Note Time="29" Volume="10"
				Note Time="30" Volume="8"
				Note Time="31" Value="G4" Duration="1" Instrument="shift string" Volume="8"
			Pattern Name="14" Color="a9887d"
				Note Time="0" Value="G4" Duration="2" Release="1" Instrument="shift string" Volume="15"
				Note Time="1" Volume="10"
				Note Time="2" Value="D4" Duration="2" Release="1" Instrument="shift string" Volume="15"
				Note Time="3" Volume="10"
				Note Time="4" Value="G3" Duration="2" Release="1" Instrument="shift string"
				Note Time="6" Value="G4" Duration="2" Release="1" Instrument="shift string" Volume="15"
				Note Time="7" Volume="10"
				Note Time="8" Value="F4" Duration="2" Release="1" Instrument="shift string" Volume="15"
				Note Time="9" Volume="10"
				Note Time="10" Value="D4" Duration="2" Release="1" Instrument="shift string" Volume="15"
				Note Time="11" Volume="10"
				Note Time="12" Value="A#3" Duration="2" Release="1" Instrument="shift string"
				Note Time="14" Value="F4" Duration="2" Release="1" Instrument="shift string" Volume="15"
				Note Time="15" Volume="10"
				Note Time="16" Value="E4" Duration="2" Release="1" Instrument="shift string" Volume="15"
				Note Time="17" Volume="10"
				Note Time="18" Value="C4" Duration="2" Release="1" Instrument="shift string" Volume="15"
				Note Time="19" Volume="10"
				Note Time="20" Value="E4" Duration="2" Release="1" Instrument="shift string" Volume="15"
				Note Time="21" Volume="10"
				Note Time="22" Value="F4" Duration="2" Release="1" Instrument="shift string" Volume="15"
				Note Time="23" Volume="10"
				Note Time="24" Value="G4" Duration="3" Release="1" Instrument="shift string" Volume="15"
				Note Time="25" Volume="10"
				Note Time="27" Value="E4" Duration="1" Instrument="echo" Volume="8"
				Note Time="28" Value="G3" Duration="1" Instrument="echo" Volume="15" DutyCycle="2"
				Note Time="29" Value="G3" Duration="1" Instrument="echo" SlideTarget="A#3"
				Note Time="30" Value="A#3" Duration="1" Instrument="echo" SlideTarget="D4"
				Note Time="31" Value="D4" Duration="1" Instrument="echo" SlideTarget="F4"
			Pattern Name="15" Color="fffc69"
				Note Time="0" Value="F4" Duration="1" Instrument="echo" SlideTarget="G4" Volume="15"
				Note Time="1" Value="G4" Duration="7" Instrument="echo" Attack="False"
			PatternInstance Time="0" Pattern="00"
			PatternInstance Time="1" Pattern="01"
			PatternInstance Time="2" Pattern="02"
			PatternInstance Time="3" Pattern="03"
			PatternInstance Time="4" Pattern="04"
			PatternInstance Time="5" Pattern="01"
			PatternInstance Time="6" Pattern="05"
			PatternInstance Time="7" Pattern="06"
			PatternInstance Time="8" Pattern="07"
			PatternInstance Time="9" Pattern="08"
			PatternInstance Time="10" Pattern="09"
			PatternInstance Time="11" Pattern="0A"
			PatternInstance Time="12" Pattern="0B"
			PatternInstance Time="13" Pattern="09"
			PatternInstance Time="14" Pattern="0C"
			PatternInstance Time="15" Pattern="0D"
			PatternInstance Time="16" Pattern="0E"
			PatternInstance Time="17" Pattern="0F"
			PatternInstance Time="18" Pattern="10"
			PatternInstance Time="19" Pattern="0A"
			PatternInstance Time="20" Pattern="0B"
			PatternInstance Time="21" Pattern="09"
			PatternInstance Time="22" Pattern="0C"
			PatternInstance Time="23" Pattern="0D"
			PatternInstance Time="24" Pattern="0E"
			PatternInstance Time="25" Pattern="11"
			PatternInstance Time="26" Pattern="12"
			PatternInstance Time="27" Pattern="13"
			PatternInstance Time="28" Pattern="14"
			PatternInstance Time="29" Pattern="15"
		Channel Type="Square2"
			Pattern Name="00" Color="3ca598"
				Note Time="0" Value="G5" Duration="8" Instrument="blank" SlideTarget="F#3" Volume="3"
				Note Time="8" Value="F#3" Duration="7" Instrument="blank" SlideTarget="D5"
				Note Time="15" Value="D5" Duration="13" Instrument="blank" Attack="False" Volume="2"
			Pattern Name="01" Color="b5c2ff"
				Note Time="4" Volume="1"
				Note Time="8" Value="D4" Duration="10" Release="8" Instrument="blank slower string" Volume="15" DutyCycle="2"
				Note Time="18" Value="G3" Duration="4" Release="2" Instrument="blank slower string" Volume="8"
				Note Time="22" Value="A3" Duration="18" Release="2" Instrument="blank slower string"
			Pattern Name="03" Color="ff8f8c"
				Note Time="8" Value="D4" Duration="11" Release="8" Instrument="blank slower string" Volume="15" DutyCycle="2"
				Note Time="19" Value="E4" Duration="5" Release="4" Instrument="blank slower string"
				Note Time="24" Value="C4" Duration="8" Instrument="blank slower string"
			Pattern Name="04" Color="ffff64"
				Note Time="0" Value="C4" Duration="2" Instrument="echo"
				Note Time="2" Value="C5" Duration="2" Instrument="echo"
				Note Time="4" Value="C5" Duration="2" Instrument="echo"
				Note Time="6" Value="C5" Duration="2" Instrument="echo"
				Note Time="8" Value="D4" Duration="12" Release="8" Instrument="blank string" Volume="15" DutyCycle="2"
				Note Time="20" Value="F3" Duration="8" Release="2" Instrument="blank slower string"
				Note Time="28" Value="F5" Duration="1" Instrument="echo" DutyCycle="1"
				Note Time="29" Value="F5" Duration="1" Instrument="echo"
				Note Time="30" Value="F5" Duration="1" Instrument="echo"
				Note Time="31" Value="F5" Duration="3" Instrument="echo"
			Pattern Name="02" Color="88eb8c"
				Note Time="2" Value="F5" Duration="2" Instrument="echo"
				Note Time="4" Value="G4" Duration="3" Instrument="echo"
				Note Time="7" Value="F5" Duration="1" Instrument="echo"
				Note Time="8" Value="D4" Duration="10" Release="8" Instrument="blank slower string" Volume="15" DutyCycle="2"
				Note Time="18" Value="G3" Duration="4" Release="2" Instrument="blank slower string" Volume="8"
				Note Time="22" Value="A3" Duration="6" Release="2" Instrument="blank slower string"
				Note Time="28" Value="D4" Duration="1" Instrument="blank" Volume="5"
				Note Time="29" Value="D4" Duration="3" Instrument="blank" SlideTarget="E4"
				Note Time="31" DutyCycle="2"
			Pattern Name="05" Color="5ac4ff"
				Note Time="0" Value="G4" Duration="4" Instrument="blank" Volume="5"
				Note Time="2" DutyCycle="1"
				Note Time="3" Volume="2"
				Note Time="4" Value="F4" Duration="4" Instrument="blank" Volume="5"
				Note Time="6" DutyCycle="2"
				Note Time="7" Volume="2"
				Note Time="8" Value="G4" Duration="4" Instrument="blank" Volume="5"
				Note Time="11" Volume="2" DutyCycle="1"
				Note Time="12" Value="F4" Duration="2" Instrument="blank" Volume="5" DutyCycle="2"
				Note Time="13" Volume="2"
				Note Time="14" Value="F4" Duration="1" Instrument="blank" SlideTarget="G4" Volume="5"
				Note Time="15" Value="G4" Duration="3" Instrument="blank" Attack="False"
				Note Time="16" DutyCycle="1"
				Note Time="17" Volume="2"
				Note Time="18" Value="G4" Duration="1" Instrument="blank" SlideTarget="G4" Volume="5"
				Note Time="19" Value="G4" Duration="1" Instrument="blank" Attack="False" Volume="2"
				Note Time="20" Value="G4" Duration="1" Instrument="blank" SlideTarget="F4" Volume="5"
				Note Time="21" Value="F4" Duration="3" Instrument="blank" Attack="False"
				Note Time="22" DutyCycle="2"
				Note Time="23" Volume="2"
				Note Time="24" Value="F4" Duration="2" Instrument="blank" SlideTarget="G2" Volume="3"
				Note Time="25" Attack="False"
			Pattern Name="06" Color="fe5497"
				Note Time="3" DutyCycle="1"
				Note Time="4" Value="C4" Duration="4" Instrument="shift string lite" Volume="11"
				Note Time="6" DutyCycle="2"
				Note Time="7" Volume="2"
				Note Time="8" Value="D4" Duration="4" Instrument="shift string lite" Volume="11" DutyCycle="2"
				Note Time="10" Volume="2" DutyCycle="1"
				Note Time="11" Volume="1"
				Note Time="16" DutyCycle="2"
				Note Time="19" Value="F4" Duration="5" Release="3" Instrument="blank slower string" Volume="15"
				Note Time="24" Value="D4" Duration="6" Release="4" Instrument="blank slower string"
				Note Time="30" Value="F4" Duration="1" Instrument="echo"
				Note Time="31" Value="G4" Duration="1" Instrument="echo"
			Pattern Name="07" Color="ffb83c"
				Note Time="0" Value="C4" Duration="4" Instrument="blank" Volume="3" DutyCycle="1"
				Note Time="1" Volume="5"
				Note Time="2" Volume="6" DutyCycle="2"
				Note Time="3" Volume="5"
				Note Time="4" Value="C4" Duration="4" Instrument="blank" Volume="6" DutyCycle="1"
				Note Time="5" Volume="6"
				Note Time="7" Volume="5" DutyCycle="2"
				Note Time="8" Value="A#3" Duration="2" Instrument="blank" Volume="8"
				Note Time="9" Volume="3" DutyCycle="1"
				Note Time="10" Value="A#3" Duration="2" Instrument="blank" Volume="8"
				Note Time="11" Volume="2"
				Note Time="12" Value="A#3" Duration="2" Instrument="blank" Volume="5"
				Note Time="13" Volume="6"
				Note Time="14" Value="A#3" Duration="2" Instrument="blank" SlideTarget="A#3" Attack="False" Volume="5"
				Note Time="15" Volume="3"
				Note Time="16" Value="A#3" Duration="2" Instrument="blank" SlideTarget="A6" Attack="False"
				Note Time="18" Value="A6" Duration="2" Instrument="blank" SlideTarget="A#3" Attack="False"
				Note Time="20" Value="A#3" Duration="1" Instrument="blank" SlideTarget="F#4" Attack="False"
				Note Time="21" Value="F#4" Duration="1" Instrument="blank" SlideTarget="A#3" Attack="False"
				Note Time="22" Value="A#3" Duration="1" Instrument="blank" SlideTarget="F3" Attack="False"
				Note Time="23" Value="F3" Duration="1" Instrument="blank" SlideTarget="G#4" Attack="False"
				Note Time="24" Value="G#4" Duration="1" Instrument="blank" SlideTarget="B7" Attack="False"
				Note Time="25" Value="B7" Duration="1" Instrument="blank" SlideTarget="F#3" Attack="False"
				Note Time="26" Value="F#3" Duration="1" Instrument="blank" SlideTarget="B7" Attack="False"
				Note Time="27" Value="B7" Duration="1" Instrument="blank" SlideTarget="F#3" Attack="False"
				Note Time="28" Value="G4" Duration="1" Instrument="echo" Volume="15"
				Note Time="29" Value="A#4" Duration="1" Instrument="echo"
				Note Time="30" Value="D5" Duration="1" Instrument="echo"
				Note Time="31" Value="F5" Duration="1" Instrument="echo"
			Pattern Name="08" Color="91c76b"
				Note Time="0" Value="G5" Duration="1" Instrument="echo"
				Note Time="1" Value="G3" Duration="7" Instrument="blank slower string" Volume="15" DutyCycle="2"
				Note Time="8" Value="D4" Duration="8" Instrument="blank slower string"
				Note Time="16" Value="A3" Duration="2" Instrument="blank slower string"
				Note Time="18" Value="G3" Duration="2" Instrument="blank slower string" Volume="8"
				Note Time="20" Value="F3" Duration="2" Instrument="blank slower string" Volume="15"
				Note Time="22" Value="A3" Duration="2" Instrument="blank slower string" Volume="8"
				Note Time="24" Value="F4" Duration="8" Release="6" Instrument="blank slower string" Volume="15"
			Pattern Name="09" Color="8bffff"
				Note Time="0" Value="G3" Duration="8" Instrument="blank slower string"
				Note Time="8" Value="D4" Duration="8" Instrument="blank slower string"
				Note Time="16" Value="A3" Duration="2" Instrument="blank slower string"
				Note Time="18" Value="G3" Duration="2" Instrument="blank slower string" Volume="8"
				Note Time="20" Value="F3" Duration="2" Instrument="blank slower string" Volume="15"
				Note Time="22" Value="A3" Duration="2" Instrument="blank slower string" Volume="8"
				Note Time="24" Value="C4" Duration="8" Release="6" Instrument="blank slower string" Volume="15"
			Pattern Name="0A" Color="e783f8"
				Note Time="0" Value="G3" Duration="8" Instrument="blank slower string"
				Note Time="8" Value="D4" Duration="8" Instrument="blank slower string"
				Note Time="16" Value="F4" Duration="3" Instrument="blank slower string"
				Note Time="19" Value="E4" Duration="3" Instrument="blank slower string"
				Note Time="22" Value="D4" Duration="2" Instrument="blank slower string"
				Note Time="24" Value="C4" Duration="8" Instrument="blank slower string"
			Pattern Name="0B" Color="ffac7f"
				Note Time="0" Value="G3" Duration="8" Instrument="blank slower string" Volume="15"
				Note Time="8" Value="D4" Duration="8" Instrument="blank slower string"
				Note Time="16" Value="A3" Duration="4" Instrument="blank slower string"
				Note Time="20" Value="F3" Duration="4" Instrument="blank slower string"
				Note Time="24" Value="G3" Duration="8" Release="5" Instrument="blank slower string"
			Pattern Name="15" Color="ffff75"
				Note Time="0" Value="G3" Duration="8" Instrument="blank slower string"
				Note Time="8" Value="D4" Duration="8" Instrument="blank slower string"
				Note Time="16" Value="G4" Duration="3" Instrument="blank slower string"
				Note Time="19" Value="F4" Duration="3" Instrument="blank string" Volume="8"
				Note Time="21" Volume="12"
				Note Time="22" Value="E4" Duration="2" Instrument="blank string"
				Note Time="24" Value="D4" Duration="4" Instrument="blank slower string"
				Note Time="28" Value="C4" Duration="4" Instrument="blank slower string"
			Pattern Name="0C" Color="3ce8fd"
				Note Time="0" Value="G3" Duration="4" Release="2" Instrument="blank slower string" Volume="15" FinePitch="0" DutyCycle="0"
				Note Time="2" Volume="4"
				Note Time="4" Value="A#3" Duration="4" Release="2" Instrument="blank slower string" Volume="15"
				Note Time="6" Volume="4"
				Note Time="8" Value="C4" Duration="4" Release="2" Instrument="blank slower string" Volume="15"
				Note Time="10" Volume="4"
				Note Time="12" Value="D4" Duration="4" Release="2" Instrument="blank slower string" Volume="15"
				Note Time="14" Volume="4"
				Note Time="16" Value="G4" Duration="4" Release="2" Instrument="blank slower string" Volume="15"
				Note Time="18" Volume="4"
				Note Time="20" Value="F4" Duration="4" Release="2" Instrument="blank slower string" Volume="15"
				Note Time="22" Volume="4"
				Note Time="24" Value="E4" Duration="4" Release="2" Instrument="blank slower string" Volume="15"
				Note Time="26" Volume="4"
				Note Time="28" Value="D4" Duration="4" Release="2" Instrument="blank slower string" Volume="15"
				Note Time="30" Volume="4"
			Pattern Name="0D" Color="8d69e4"
				Note Time="0" Value="G3" Duration="4" Release="2" Instrument="blank slower string" Volume="15" FinePitch="0" DutyCycle="0"
				Note Time="2" Volume="4"
				Note Time="4" Value="A#3" Duration="4" Release="2" Instrument="blank slower string" Volume="15"
				Note Time="6" Volume="4"
				Note Time="8" Value="C4" Duration="4" Release="2" Instrument="blank slower string" Volume="15"
				Note Time="10" Volume="4"
				Note Time="12" Value="D4" Duration="4" Release="2" Instrument="blank slower string" Volume="15"
				Note Time="14" Volume="4"
				Note Time="16" Value="G3" Duration="4" Release="2" Instrument="blank slower string" Volume="15"
				Note Time="20" Value="F3" Duration="4" Release="2" Instrument="blank slower string"
				Note Time="24" Value="G3" Duration="8" Release="2" Instrument="blank slower string"
				Note Time="28" Volume="4"
			Pattern Name="13" Color="997c73"
				Note Time="0" Value="G3" Duration="4" Release="2" Instrument="blank slower string" Volume="15" FinePitch="0" DutyCycle="0"
				Note Time="2" Volume="4"
				Note Time="4" Value="A#3" Duration="4" Release="2" Instrument="blank slower string" Volume="15"
				Note Time="6" Volume="4"
				Note Time="8" Value="C4" Duration="4" Release="2" Instrument="blank slower string" Volume="15"
				Note Time="10" Volume="4"
				Note Time="12" Value="D4" Duration="2" Instrument="blank slower string" Volume="15"
				Note Time="14" Value="E4" Duration="1" Instrument="blank slower string" Volume="4"
				Note Time="15" Value="F4" Duration="1" Instrument="blank slower string"
				Note Time="16" Value="G4" Duration="4" Release="2" Instrument="blank slower string" Volume="15"
				Note Time="18" Volume="4"
				Note Time="20" Value="F4" Duration="4" Release="2" Instrument="blank slower string" Volume="15"
				Note Time="22" Volume="4"
				Note Time="24" Value="E4" Duration="4" Release="2" Instrument="blank slower string" Volume="15"
				Note Time="26" Volume="4"
				Note Time="28" Value="D4" Duration="4" Release="2" Instrument="blank slower string" Volume="15"
				Note Time="30" Volume="4"
			Pattern Name="14" Color="ffe461"
				Note Time="0" Value="G3" Duration="4" Release="2" Instrument="blank slower string" Volume="15" FinePitch="0" DutyCycle="0"
				Note Time="2" Volume="4"
				Note Time="4" Value="A#3" Duration="4" Release="2" Instrument="blank slower string" Volume="15"
				Note Time="6" Volume="4"
				Note Time="8" Value="C4" Duration="4" Release="2" Instrument="blank slower string" Volume="15"
				Note Time="10" Volume="4"
				Note Time="12" Value="D4" Duration="4" Release="2" Instrument="blank slower string" Volume="15"
				Note Time="16" Value="G3" Duration="4" Release="2" Instrument="blank slower string"
				Note Time="20" Value="F3" Duration="4" Release="2" Instrument="blank slower string"
				Note Time="24" Value="G3" Duration="4" Release="2" Instrument="blank slower string"
				Note Time="28" Value="A#3" Duration="4" Release="2" Instrument="blank slower string"
				Note Time="30" Volume="4"
			Pattern Name="0E" Color="89f2e8"
				Note Time="0" Value="G5" Duration="2" Instrument="echo" Volume="15" DutyCycle="2"
				Note Time="2" Value="D5" Duration="1" Instrument="echo" Volume="15"
				Note Time="3" Value="G5" Duration="1" Instrument="echo" Volume="5"
				Note Time="4" Value="G4" Duration="1" Instrument="echo" Volume="15"
				Note Time="5" Value="D5" Duration="1" Instrument="echo" Volume="5"
				Note Time="6" Value="G5" Duration="1" Instrument="echo" Volume="15"
				Note Time="7" Value="G4" Duration="1" Instrument="echo" Volume="5"
				Note Time="8" Value="F5" Duration="1" Instrument="echo" Volume="15"
				Note Time="9" Value="G5" Duration="1" Instrument="echo" Volume="5"
				Note Time="10" Value="D5" Duration="1" Instrument="echo" Volume="15"
				Note Time="11" Value="F5" Duration="1" Instrument="echo" Volume="5"
				Note Time="12" Value="A#4" Duration="1" Instrument="echo" Volume="15"
				Note Time="13" Value="D5" Duration="1" Instrument="echo" Volume="5"
				Note Time="14" Value="F5" Duration="1" Instrument="echo" Volume="15"
				Note Time="15" Value="A#4" Duration="1" Instrument="echo" Volume="5"
				Note Time="16" Value="E5" Duration="1" Instrument="echo" Volume="15"
				Note Time="17" Value="F5" Duration="1" Instrument="echo" Volume="5"
				Note Time="18" Value="C5" Duration="1" Instrument="echo" Volume="15"
				Note Time="19" Value="E5" Duration="1" Instrument="echo" Volume="5"
				Note Time="20" Value="G4" Duration="1" Instrument="echo" Volume="15"
				Note Time="21" Value="C5" Duration="1" Instrument="echo" Volume="5"
				Note Time="22" Value="F5" Duration="1" Instrument="echo" Volume="15"
				Note Time="23" Value="G4" Duration="1" Instrument="echo" Volume="5"
				Note Time="24" Value="E5" Duration="1" Instrument="echo" Volume="15"
				Note Time="25" Value="F5" Duration="1" Instrument="echo" Volume="5"
				Note Time="26" Value="C5" Duration="1" Instrument="echo" Volume="15"
				Note Time="27" Value="E5" Duration="1" Instrument="echo" Volume="5"
				Note Time="28" Value="D5" Duration="1" Instrument="echo" Volume="15"
				Note Time="29" Value="C5" Duration="1" Instrument="echo" Volume="5"
				Note Time="30" Value="A#4" Duration="1" Instrument="echo" Volume="15"
				Note Time="31" Value="D5" Duration="1" Instrument="echo" Volume="5"
			Pattern Name="0F" Color="98a7fc"
				Note Time="0" Value="G5" Duration="1" Instrument="echo" Volume="15"
				Note Time="1" Value="A#4" Duration="1" Instrument="echo" Volume="5"
				Note Time="2" Value="D5" Duration="1" Instrument="echo" Volume="15"
				Note Time="3" Value="G5" Duration="1" Instrument="echo" Volume="5"
				Note Time="4" Value="G4" Duration="1" Instrument="echo" Volume="15"
				Note Time="5" Value="D5" Duration="1" Instrument="echo" Volume="5"
				Note Time="6" Value="G5" Duration="1" Instrument="echo" Volume="15"
				Note Time="7" Value="G4" Duration="1" Instrument="echo" Volume="5"
				Note Time="8" Value="F5" Duration="1" Instrument="echo" Volume="15"
				Note Time="9" Value="G5" Duration="1" Instrument="echo" Volume="5"
				Note Time="10" Value="D5" Duration="1" Instrument="echo" Volume="15"
				Note Time="11" Value="F5" Duration="1" Instrument="echo" Volume="5"
				Note Time="12" Value="A#4" Duration="1" Instrument="echo" Volume="15"
				Note Time="13" Value="D5" Duration="1" Instrument="echo" Volume="5"
				Note Time="14" Value="F5" Duration="1" Instrument="echo" Volume="15"
				Note Time="15" Value="A#4" Duration="1" Instrument="echo" Volume="5"
				Note Time="16" Value="E5" Duration="1" Instrument="echo" Volume="15"
				Note Time="17" Value="F5" Duration="1" Instrument="echo" Volume="5"
				Note Time="18" Value="C5" Duration="1" Instrument="echo" Volume="15"
				Note Time="19" Value="E5" Duration="1" Instrument="echo" Volume="5"
				Note Time="20" Value="G4" Duration="1" Instrument="echo" Volume="15"
				Note Time="21" Value="C5" Duration="1" Instrument="echo" Volume="5"
				Note Time="22" Value="E5" Duration="1" Instrument="echo" Volume="15"
				Note Time="23" Value="G4" Duration="1" Instrument="echo" Volume="5"
				Note Time="24" Value="D5" Duration="1" Instrument="echo" Volume="15"
				Note Time="25" Value="E5" Duration="1" Instrument="echo" Volume="5"
				Note Time="26" Value="C5" Duration="1" Instrument="echo" Volume="15"
				Note Time="27" Value="D5" Duration="1" Instrument="echo" Volume="5"
				Note Time="28" Value="E5" Duration="1" Instrument="echo" Volume="15"
				Note Time="29" Value="C5" Duration="1" Instrument="echo" Volume="5"
				Note Time="30" Value="F5" Duration="1" Instrument="echo" Volume="15"
				Note Time="31" Value="E5" Duration="1" Instrument="echo" Volume="5"
			Pattern Name="10" Color="ff7f72"
				Note Time="0" Value="G5" Duration="2" Instrument="echo" Volume="15"
				Note Time="2" Value="D5" Duration="1" Instrument="echo" Volume="15"
				Note Time="3" Value="G5" Duration="1" Instrument="echo" Volume="5"
				Note Time="4" Value="G4" Duration="1" Instrument="echo" Volume="15"
				Note Time="5" Value="D5" Duration="1" Instrument="echo" Volume="5"
				Note Time="6" Value="G5" Duration="1" Instrument="echo" Volume="15"
				Note Time="7" Value="G4" Duration="1" Instrument="echo" Volume="5"
				Note Time="8" Value="F5" Duration="1" Instrument="echo" Volume="15"
				Note Time="9" Value="G5" Duration="1" Instrument="echo" Volume="5"
				Note Time="10" Value="D5" Duration="1" Instrument="echo" Volume="15"
				Note Time="11" Value="F5" Duration="1" Instrument="echo" Volume="5"
				Note Time="12" Value="A#4" Duration="1" Instrument="echo" Volume="15"
				Note Time="13" Value="D5" Duration="1" Instrument="echo" Volume="5"
				Note Time="14" Value="F5" Duration="1" Instrument="echo" Volume="15"
				Note Time="15" Value="A#4" Duration="1" Instrument="echo" Volume="5"
				Note Time="16" Value="E5" Duration="1" Instrument="echo" Volume="15"
				Note Time="17" Value="F5" Duration="1" Instrument="echo" Volume="5"
				Note Time="18" Value="C5" Duration="1" Instrument="echo" Volume="15"
				Note Time="19" Value="E5" Duration="1" Instrument="echo" Volume="5"
				Note Time="20" Value="G4" Duration="1" Instrument="echo" Volume="15"
				Note Time="21" Value="C5" Duration="1" Instrument="echo" Volume="5"
				Note Time="22" Value="F5" Duration="1" Instrument="echo" Volume="15"
				Note Time="23" Value="G4" Duration="1" Instrument="echo" Volume="5"
				Note Time="24" Value="A#5" Duration="1" Instrument="echo" Volume="15"
				Note Time="25" Value="F5" Duration="1" Instrument="echo" Volume="5"
				Note Time="26" Value="C6" Duration="1" Instrument="echo" Volume="15"
				Note Time="27" Value="A#5" Duration="1" Instrument="echo" Volume="5"
				Note Time="28" Value="G5" Duration="1" Instrument="echo" Volume="15"
				Note Time="29" Value="C6" Duration="2" Instrument="echo" Volume="5"
				Note Time="31" Value="G5" Duration="1" Instrument="echo" Volume="5"
			Pattern Name="11" Color="fffd43"
				Note Time="0" Value="G5" Duration="2" Instrument="echo" Volume="15"
				Note Time="2" Value="D5" Duration="1" Instrument="echo" Volume="15"
				Note Time="3" Value="G5" Duration="1" Instrument="echo" Volume="5"
				Note Time="4" Value="G4" Duration="1" Instrument="echo" Volume="15"
				Note Time="5" Value="D5" Duration="1" Instrument="echo" Volume="5"
				Note Time="6" Value="G5" Duration="1" Instrument="echo" Volume="15"
				Note Time="7" Value="G4" Duration="1" Instrument="echo" Volume="5"
				Note Time="8" Value="F5" Duration="1" Instrument="echo" Volume="15"
				Note Time="9" Value="G5" Duration="1" Instrument="echo" Volume="5"
				Note Time="10" Value="D5" Duration="1" Instrument="echo" Volume="15"
				Note Time="11" Value="F5" Duration="1" Instrument="echo" Volume="5"
				Note Time="12" Value="A#4" Duration="1" Instrument="echo" Volume="15"
				Note Time="13" Value="D5" Duration="1" Instrument="echo" Volume="5"
				Note Time="14" Value="F5" Duration="1" Instrument="echo" Volume="15"
				Note Time="15" Value="A#4" Duration="1" Instrument="echo" Volume="5"
				Note Time="16" Value="E5" Duration="1" Instrument="echo" Volume="15"
				Note Time="17" Value="F5" Duration="1" Instrument="echo" Volume="5"
				Note Time="18" Value="C5" Duration="1" Instrument="echo" Volume="15"
				Note Time="19" Value="E5" Duration="1" Instrument="echo" Volume="5"
				Note Time="20" Value="E5" Duration="1" Instrument="echo" Volume="15"
				Note Time="21" Value="C5" Duration="1" Instrument="echo" Volume="5"
				Note Time="22" Value="F5" Duration="1" Instrument="echo" Volume="15"
				Note Time="23" Value="E5" Duration="1" Instrument="echo" Volume="5"
				Note Time="24" Value="G5" Duration="1" Instrument="echo" Volume="15"
				Note Time="25" Value="F5" Duration="2" Instrument="echo" Volume="5"
				Note Time="27" Value="G5" Duration="1" Instrument="echo" Volume="5"
				Note Time="28" Value="G4" Duration="1" Instrument="echo" Volume="15" DutyCycle="1"
				Note Time="29" Value="A#4" Duration="1" Instrument="echo"
				Note Time="30" Value="D5" Duration="1" Instrument="echo"
				Note Time="31" Value="F5" Duration="1" Instrument="echo"
			Pattern Name="12" Color="7fdc83"
				Note Time="0" Value="G5" Duration="8" Instrument="echo"
				Note Time="1" DutyCycle="2"
			PatternInstance Time="0" Pattern="00"
			PatternInstance Time="1" Pattern="01"
			PatternInstance Time="2" Pattern="01"
			PatternInstance Time="3" Pattern="03"
			PatternInstance Time="4" Pattern="04"
			PatternInstance Time="5" Pattern="02"
			PatternInstance Time="6" Pattern="05"
			PatternInstance Time="7" Pattern="06"
			PatternInstance Time="8" Pattern="07"
			PatternInstance Time="9" Pattern="08"
			PatternInstance Time="10" Pattern="09"
			PatternInstance Time="11" Pattern="0A"
			PatternInstance Time="12" Pattern="0B"
			PatternInstance Time="13" Pattern="08"
			PatternInstance Time="14" Pattern="09"
			PatternInstance Time="15" Pattern="15"
			PatternInstance Time="16" Pattern="0B"
			PatternInstance Time="17" Pattern="0C"
			PatternInstance Time="18" Pattern="0D"
			PatternInstance Time="19" Pattern="13"
			PatternInstance Time="20" Pattern="14"
			PatternInstance Time="21" Pattern="0C"
			PatternInstance Time="22" Pattern="0D"
			PatternInstance Time="23" Pattern="13"
			PatternInstance Time="24" Pattern="14"
			PatternInstance Time="25" Pattern="0E"
			PatternInstance Time="26" Pattern="0F"
			PatternInstance Time="27" Pattern="10"
			PatternInstance Time="28" Pattern="11"
			PatternInstance Time="29" Pattern="12"
		Channel Type="Triangle"
			Pattern Name="00" Color="e95093"
				Note Time="0" Value="G2" Duration="1" Instrument="blank"
				Note Time="3" Value="G2" Duration="2" Instrument="blank"
				Note Time="6" Value="G2" Duration="1" Instrument="blank"
				Note Time="8" Value="A#2" Duration="2" Instrument="blank"
				Note Time="11" Value="A#2" Duration="1" Instrument="blank"
				Note Time="14" Value="A#2" Duration="1" Instrument="blank"
				Note Time="16" Value="C3" Duration="2" Instrument="blank"
				Note Time="19" Value="C3" Duration="2" Instrument="blank"
				Note Time="22" Value="C3" Duration="1" Instrument="blank"
				Note Time="24" Value="D3" Duration="2" Instrument="blank"
				Note Time="27" Value="D3" Duration="2" Instrument="blank"
				Note Time="30" Value="D3" Duration="2" Instrument="blank"
			Pattern Name="01" Color="ffa83c"
				Note Time="0" Value="G2" Duration="1" Instrument="blank"
				Note Time="3" Value="G2" Duration="2" Instrument="blank"
				Note Time="6" Value="G2" Duration="1" Instrument="blank"
				Note Time="8" Value="A#2" Duration="2" Instrument="blank"
				Note Time="11" Value="A#2" Duration="1" Instrument="blank"
				Note Time="14" Value="A#2" Duration="1" Instrument="blank"
				Note Time="16" Value="C3" Duration="2" Instrument="blank"
				Note Time="19" Value="C3" Duration="2" Instrument="blank"
				Note Time="22" Value="C3" Duration="1" Instrument="blank"
				Note Time="24" Value="D3" Duration="2" Instrument="blank"
				Note Time="27" Value="D3" Duration="2" Instrument="blank"
				Note Time="30" Value="F3" Duration="1" Instrument="blank"
				Note Time="31" Value="G3" Duration="1" Instrument="blank"
			Pattern Name="03" Color="eaffbd"
				Note Time="0" Value="C3" Duration="1" Instrument="blank"
				Note Time="3" Value="C3" Duration="2" Instrument="blank"
				Note Time="6" Value="C3" Duration="1" Instrument="blank"
				Note Time="8" Value="A#2" Duration="2" Instrument="blank"
				Note Time="11" Value="A#2" Duration="2" Instrument="blank"
				Note Time="14" Value="A#2" Duration="1" Instrument="blank"
				Note Time="16" Value="G2" Duration="2" Instrument="blank"
				Note Time="19" Value="G2" Duration="2" Instrument="blank"
				Note Time="22" Value="G2" Duration="1" Instrument="blank"
				Note Time="24" Value="G2" Duration="2" Instrument="blank"
				Note Time="27" Value="G2" Duration="2" Instrument="blank"
				Note Time="30" Value="G2" Duration="1" Instrument="blank"
			Pattern Name="04" Color="65f2ff"
				Note Time="0" Value="C1" Duration="3" Instrument="tight triangle kick"
				Note Time="3" Value="G2" Duration="1" Instrument="blank"
				Note Time="4" Value="C1" Duration="2" Instrument="tight triangle snare"
				Note Time="6" Value="C1" Duration="2" Instrument="tight triangle kick"
				Note Time="8" Value="A#2" Duration="2" Instrument="blank"
				Note Time="10" Value="C1" Duration="1" Instrument="tight triangle kick"
				Note Time="11" Value="A#2" Duration="1" Instrument="blank"
				Note Time="12" Value="C1" Duration="2" Instrument="tight triangle snare"
				Note Time="14" Value="A#2" Duration="1" Instrument="blank"
				Note Time="16" Value="C1" Duration="1" Instrument="tight triangle kick"
				Note Time="17" Value="C3" Duration="1" Instrument="blank"
				Note Time="19" Value="C3" Duration="1" Instrument="blank"
				Note Time="20" Value="C1" Duration="2" Instrument="tight triangle snare"
				Note Time="22" Value="C1" Duration="2" Instrument="tight triangle kick"
				Note Time="24" Value="D3" Duration="2" Instrument="blank"
				Note Time="26" Value="C1" Duration="1" Instrument="tight triangle kick"
				Note Time="27" Value="D3" Duration="1" Instrument="blank"
				Note Time="28" Value="C1" Duration="2" Instrument="tight triangle snare"
				Note Time="30" Value="C1" Duration="1" Instrument="tight triangle kick"
				Note Time="31" Value="D2" Duration="1" Instrument="blank"
			Pattern Name="05" Color="d863ec"
				Note Time="0" Value="C1" Duration="3" Instrument="tight triangle kick"
				Note Time="3" Value="G2" Duration="1" Instrument="blank"
				Note Time="4" Value="C1" Duration="2" Instrument="tight triangle snare"
				Note Time="6" Value="C1" Duration="2" Instrument="tight triangle kick"
				Note Time="8" Value="A#2" Duration="2" Instrument="blank"
				Note Time="10" Value="C1" Duration="1" Instrument="tight triangle kick"
				Note Time="11" Value="A#2" Duration="1" Instrument="blank"
				Note Time="12" Value="C1" Duration="2" Instrument="tight triangle snare"
				Note Time="14" Value="A#2" Duration="1" Instrument="blank"
				Note Time="16" Value="C1" Duration="1" Instrument="tight triangle kick"
				Note Time="17" Value="C3" Duration="1" Instrument="blank"
				Note Time="19" Value="C3" Duration="1" Instrument="blank"
				Note Time="20" Value="C1" Duration="2" Instrument="tight triangle snare"
				Note Time="22" Value="C1" Duration="2" Instrument="tight triangle kick"
				Note Time="24" Value="D3" Duration="2" Instrument="blank"
				Note Time="26" Value="C1" Duration="1" Instrument="tight triangle kick"
				Note Time="27" Value="D3" Duration="1" Instrument="blank"
				Note Time="28" Value="C1" Duration="2" Instrument="tight triangle snare"
				Note Time="30" Value="C1" Duration="1" Instrument="tight triangle kick"
				Note Time="31" Value="G3" Duration="1" Instrument="blank"
			Pattern Name="06" Color="ff935e"
				Note Time="0" Value="C1" Duration="3" Instrument="tight triangle kick"
				Note Time="3" Value="C3" Duration="1" Instrument="blank"
				Note Time="4" Value="C1" Duration="2" Instrument="tight triangle snare"
				Note Time="6" Value="C1" Duration="2" Instrument="tight triangle kick"
				Note Time="8" Value="A#2" Duration="2" Instrument="blank"
				Note Time="11" Value="A#2" Duration="1" Instrument="blank"
				Note Time="12" Value="C1" Duration="2" Instrument="tight triangle snare"
				Note Time="14" Value="A#2" Duration="1" Instrument="blank"
				Note Time="16" Value="C1" Duration="1" Instrument="tight triangle kick"
				Note Time="17" Value="G2" Duration="1" Instrument="blank"
				Note Time="19" Value="G2" Duration="1" Instrument="blank"
				Note Time="20" Value="C1" Duration="2" Instrument="tight triangle snare"
				Note Time="22" Value="C1" Duration="2" Instrument="tight triangle kick"
				Note Time="24" Value="G2" Duration="2" Instrument="blank"
				Note Time="27" Value="G2" Duration="1" Instrument="blank"
				Note Time="28" Value="C1" Duration="2" Instrument="tight triangle snare"
				Note Time="30" Value="C1" Duration="1" Instrument="tight triangle kick"
				Note Time="31" Value="G2" Duration="1" Instrument="blank"
			Pattern Name="07" Color="fcff6f"
				Note Time="0" Value="C1" Duration="3" Instrument="tight triangle kick"
				Note Time="3" Value="C3" Duration="1" Instrument="blank"
				Note Time="4" Value="C1" Duration="2" Instrument="tight triangle snare"
				Note Time="6" Value="C1" Duration="2" Instrument="tight triangle kick"
				Note Time="8" Value="A#2" Duration="2" Instrument="blank"
				Note Time="11" Value="A#2" Duration="1" Instrument="blank"
				Note Time="12" Value="C1" Duration="2" Instrument="tight triangle snare"
				Note Time="14" Value="A#2" Duration="1" Instrument="blank"
				Note Time="16" Value="C1" Duration="1" Instrument="tight triangle kick"
				Note Time="17" Value="G2" Duration="1" Instrument="blank"
				Note Time="19" Value="G2" Duration="2" Instrument="blank"
				Note Time="22" Value="C1" Duration="2" Instrument="tight triangle kick"
				Note Time="24" Value="G2" Duration="2" Instrument="blank"
				Note Time="27" Value="G2" Duration="2" Instrument="blank"
				Note Time="30" Value="C1" Duration="2" Instrument="tight triangle kick"
			Pattern Name="08" Color="3cd3e3"
				Note Time="0" Value="F4" Duration="24" Instrument="DMC: drums + bass" SlideTarget="A0"
			Pattern Name="0C" Color="8163dc"
				Note Time="28" Value="G4" Duration="1" Instrument="triangle pluck"
				Note Time="29" Value="G4" Duration="1" Instrument="triangle pluck"
				Note Time="30" Value="G4" Duration="1" Instrument="triangle pluck"
				Note Time="31" Value="G4" Duration="3" Instrument="triangle pluck"
			Pattern Name="10" Color="8a706a"
				Note Time="2" Value="G2" Duration="1" Instrument="triangle pluck 2"
				Note Time="3" Value="G2" Duration="1" Instrument="triangle pluck 2"
				Note Time="4" Value="G2" Duration="1" Instrument="triangle pluck 2"
				Note Time="5" Value="G2" Duration="5" Instrument="triangle pluck 2"
				Note Time="10" Value="G2" Duration="2" Instrument="triangle pluck 2"
				Note Time="12" Value="G2" Duration="2" Instrument="triangle pluck 2"
				Note Time="14" Value="G2" Duration="1" Instrument="triangle pluck 2"
				Note Time="15" Value="G2" Duration="3" Instrument="triangle pluck 2"
				Note Time="18" Value="G2" Duration="1" Instrument="triangle pluck 2"
				Note Time="19" Value="G2" Duration="1" Instrument="triangle pluck 2"
				Note Time="20" Value="G2" Duration="1" Instrument="triangle pluck 2"
				Note Time="21" Value="G2" Duration="5" Instrument="triangle pluck 2"
				Note Time="26" Value="G2" Duration="2" Instrument="triangle pluck 2"
				Note Time="28" Value="G2" Duration="2" Instrument="triangle pluck 2"
				Note Time="30" Value="G2" Duration="1" Instrument="triangle pluck 2"
				Note Time="31" Value="G2" Duration="1" Instrument="triangle pluck 2"
			Pattern Name="0D" Color="ffffb2"
				Note Time="0" Value="F4" Duration="16" Instrument="DMC: drums + bass" SlideTarget="C1"
				Note Time="16" Value="C1" Duration="3" Instrument="DMC: drums + bass" SlideTarget="B0" Attack="False"
				Note Time="22" Value="G5" Duration="1" Instrument="triangle pluck 4" SlideTarget="A4"
				Note Time="23" Value="G5" Duration="1" Instrument="triangle pluck 4" SlideTarget="A4"
				Note Time="26" Value="G5" Duration="1" Instrument="triangle pluck 4" SlideTarget="A4"
				Note Time="27" Value="G5" Duration="1" Instrument="triangle pluck 4" SlideTarget="A4"
				Note Time="30" Value="G5" Duration="1" Instrument="triangle pluck 4" SlideTarget="A4"
				Note Time="31" Value="G5" Duration="1" Instrument="triangle pluck 4" SlideTarget="A4"
			Pattern Name="0E" Color="62e2d6"
				Note Time="2" Value="G5" Duration="1" Instrument="triangle pluck 4" SlideTarget="A4"
				Note Time="3" Value="G5" Duration="1" Instrument="triangle pluck 4" SlideTarget="A4"
				Note Time="6" Value="G5" Duration="1" Instrument="triangle pluck 4" SlideTarget="A4"
				Note Time="7" Value="G5" Duration="1" Instrument="triangle pluck 4" SlideTarget="A4"
				Note Time="10" Value="G5" Duration="1" Instrument="triangle pluck 4" SlideTarget="A4"
				Note Time="11" Value="G5" Duration="1" Instrument="triangle pluck 4" SlideTarget="A4"
				Note Time="14" Value="G5" Duration="1" Instrument="triangle pluck 4" SlideTarget="A4"
				Note Time="15" Value="G5" Duration="1" Instrument="triangle pluck 4" SlideTarget="A4"
			Pattern Name="0F" Color="ff7571"
				Note Time="16" Value="G3" Duration="8" Instrument="blank" SlideTarget="B0"
				Note Time="24" Value="B0" Duration="7" Instrument="blank" SlideTarget="C#2"
				Note Time="31" Value="C#2" Duration="1" Instrument="blank" Attack="False"
			Pattern Name="09" Color="ffef3c"
				Note Time="0" Value="C1" Duration="3" Instrument="tight triangle kick"
				Note Time="3" Value="G1" Duration="1" Instrument="blank"
				Note Time="4" Value="C1" Duration="2" Instrument="tight triangle snare"
				Note Time="6" Value="G1" Duration="1" Instrument="blank"
				Note Time="8" Value="C1" Duration="1" Instrument="tight triangle kick"
				Note Time="9" Value="A#1" Duration="1" Instrument="blank"
				Note Time="11" Value="A#1" Duration="1" Instrument="blank"
				Note Time="12" Value="C1" Duration="2" Instrument="tight triangle snare"
				Note Time="14" Value="A#1" Duration="1" Instrument="blank"
				Note Time="16" Value="C1" Duration="1" Instrument="tight triangle kick"
				Note Time="17" Value="C2" Duration="1" Instrument="blank"
				Note Time="19" Value="C2" Duration="1" Instrument="blank"
				Note Time="20" Value="C1" Duration="2" Instrument="tight triangle snare"
				Note Time="22" Value="C2" Duration="1" Instrument="blank"
				Note Time="24" Value="C1" Duration="1" Instrument="tight triangle kick"
				Note Time="25" Value="D2" Duration="1" Instrument="blank"
				Note Time="27" Value="D2" Duration="1" Instrument="blank"
				Note Time="28" Value="C1" Duration="2" Instrument="tight triangle snare"
				Note Time="30" Value="D2" Duration="2" Instrument="blank"
			Pattern Name="0B" Color="74ca78"
				Note Time="0" Value="C2" Duration="1" Instrument="blank"
				Note Time="3" Value="C2" Duration="1" Instrument="blank"
				Note Time="4" Value="C1" Duration="2" Instrument="tight triangle snare"
				Note Time="6" Value="C2" Duration="1" Instrument="blank"
				Note Time="8" Value="A#1" Duration="2" Instrument="blank"
				Note Time="11" Value="A#1" Duration="1" Instrument="blank"
				Note Time="12" Value="C1" Duration="2" Instrument="tight triangle snare"
				Note Time="14" Value="A#1" Duration="1" Instrument="blank"
				Note Time="16" Value="A1" Duration="2" Instrument="blank"
				Note Time="19" Value="A1" Duration="1" Instrument="blank"
				Note Time="20" Value="C1" Duration="2" Instrument="tight triangle snare"
				Note Time="22" Value="A1" Duration="1" Instrument="blank"
				Note Time="24" Value="G1" Duration="2" Instrument="blank"
				Note Time="27" Value="G1" Duration="1" Instrument="blank"
				Note Time="28" Value="C1" Duration="2" Instrument="tight triangle snare"
				Note Time="30" Value="G1" Duration="2" Instrument="blank"
			Pattern Name="0A" Color="51a1fc"
				Note Time="0" Value="C1" Duration="1" Instrument="tight triangle kick"
			PatternInstance Time="1" Pattern="00"
			PatternInstance Time="2" Pattern="00"
			PatternInstance Time="3" Pattern="01"
			PatternInstance Time="4" Pattern="03"
			PatternInstance Time="5" Pattern="00"
			PatternInstance Time="6" Pattern="00"
			PatternInstance Time="7" Pattern="01"
			PatternInstance Time="8" Pattern="03"
			PatternInstance Time="9" Pattern="04"
			PatternInstance Time="10" Pattern="04"
			PatternInstance Time="11" Pattern="05"
			PatternInstance Time="12" Pattern="06"
			PatternInstance Time="13" Pattern="04"
			PatternInstance Time="14" Pattern="04"
			PatternInstance Time="15" Pattern="05"
			PatternInstance Time="16" Pattern="07"
			PatternInstance Time="17" Pattern="08"
			PatternInstance Time="18" Pattern="0C"
			PatternInstance Time="19" Pattern="10"
			PatternInstance Time="20" Pattern="0D"
			PatternInstance Time="21" Pattern="0E"
			PatternInstance Time="24" Pattern="0F"
			PatternInstance Time="25" Pattern="09"
			PatternInstance Time="26" Pattern="09"
			PatternInstance Time="27" Pattern="09"
			PatternInstance Time="28" Pattern="0B"
			PatternInstance Time="29" Pattern="0A"
		Channel Type="Noise"
			Pattern Name="01" Color="ff9ece"
				Note Time="0" Value="F#3" Duration="1" Instrument="DMC: drums + bass" Volume="6"
				Note Time="1" Value="F3" Duration="1" Instrument="DMC: drums + bass"
				Note Time="2" Value="E3" Duration="1" Instrument="DMC: drums + bass"
				Note Time="3" Value="D#3" Duration="1" Instrument="DMC: drums + bass"
				Note Time="4" Value="D3" Duration="1" Instrument="DMC: drums + bass"
				Note Time="5" Value="C#3" Duration="4" Instrument="DMC: drums + bass"
				Note Time="9" Value="D3" Duration="1" Instrument="DMC: drums + bass"
				Note Time="10" Value="D#3" Duration="1" Instrument="DMC: drums + bass"
				Note Time="11" Value="E3" Duration="1" Instrument="DMC: drums + bass"
				Note Time="12" Value="F3" Duration="1" Instrument="DMC: drums + bass"
				Note Time="13" Value="F#3" Duration="3" Instrument="DMC: drums + bass"
			Pattern Name="0C" Color="fff389"
				Note Time="0" Value="G3" Duration="2" Instrument="hat" Volume="15"
				Note Time="2" Value="E3" Duration="2" Instrument="hat"
				Note Time="4" Value="G3" Duration="1" Instrument="hat"
				Note Time="5" Value="F#3" Duration="1" Instrument="hat"
				Note Time="6" Value="E3" Duration="4" Instrument="hat"
				Note Time="10" Value="E3" Duration="1" Instrument="hat"
				Note Time="11" Value="A#3" Duration="1" Instrument="hat"
				Note Time="12" Value="G3" Duration="1" Instrument="hat"
				Note Time="13" Value="F#3" Duration="1" Instrument="hat"
				Note Time="14" Value="E3" Duration="4" Instrument="hat"
				Note Time="18" Value="E3" Duration="2" Instrument="hat"
				Note Time="20" Value="E3" Duration="1" Instrument="Instrument 1"
				Note Time="21" Value="F#3" Duration="1" Instrument="hat"
				Note Time="22" Value="E3" Duration="4" Instrument="hat"
				Note Time="26" Value="E3" Duration="1" Instrument="hat"
				Note Time="27" Value="D#3" Duration="1" Instrument="hat"
				Note Time="28" Value="C#3" Duration="2" Instrument="hat"
				Note Time="30" Value="E3" Duration="4" Instrument="hat"
			Pattern Name="02" Color="d8ffa1"
				Note Time="2" Value="E3" Duration="2" Instrument="hat" Volume="15"
				Note Time="4" Value="G3" Duration="1" Instrument="hat"
				Note Time="5" Value="F#3" Duration="1" Instrument="hat"
				Note Time="6" Value="E3" Duration="4" Instrument="hat"
				Note Time="10" Value="E3" Duration="1" Instrument="hat"
				Note Time="11" Value="A#3" Duration="1" Instrument="hat"
				Note Time="12" Value="G3" Duration="1" Instrument="hat"
				Note Time="13" Value="F#3" Duration="1" Instrument="hat"
				Note Time="14" Value="E3" Duration="4" Instrument="hat"
				Note Time="18" Value="E3" Duration="2" Instrument="hat"
				Note Time="20" Value="E3" Duration="1" Instrument="Instrument 1"
				Note Time="21" Value="F#3" Duration="1" Instrument="hat"
				Note Time="22" Value="E3" Duration="4" Instrument="hat"
				Note Time="26" Value="E3" Duration="1" Instrument="blank" Volume="5" DutyCycle="1"
				Note Time="27" Value="D#3" Duration="1" Instrument="hat" Volume="15"
				Note Time="28" Value="C#3" Duration="2" Instrument="hat" DutyCycle="0"
				Note Time="30" Value="E3" Duration="2" Instrument="hat"
			Pattern Name="04" Color="3fe5ff"
				Note Time="0" Value="A3" Duration="2" Instrument="blank"
				Note Time="2" Value="E3" Duration="2" Instrument="hat"
				Note Time="4" Value="G3" Duration="1" Instrument="hat"
				Note Time="5" Value="F#3" Duration="1" Instrument="hat"
				Note Time="6" Value="E3" Duration="4" Instrument="hat"
				Note Time="10" Value="E3" Duration="1" Instrument="hat"
				Note Time="11" Value="A#3" Duration="2" Instrument="hat"
				Note Time="13" Value="F#3" Duration="1" Instrument="hat"
				Note Time="14" Value="E3" Duration="2" Instrument="hat"
				Note Time="16" Value="G3" Duration="11" Instrument="cymbal"
				Note Time="27" Value="A3" Duration="5" Instrument="blank" Volume="4"
				Note Time="29" Volume="7"
				Note Time="30" Volume="8"
				Note Time="31" Volume="15"
			Pattern Name="05" Color="ca60e6"
				Note Time="0" Value="G3" Duration="4" Instrument="cymbal"
				Note Time="4" Value="G2" Duration="1" Instrument="snare"
				Note Time="5" Value="F#3" Duration="1" Instrument="hat"
				Note Time="6" Value="A3" Duration="1" Instrument="rel hats"
				Note Time="7" Value="F3" Duration="1" Instrument="hat"
				Note Time="8" Value="G2" Duration="1" Instrument="kick"
				Note Time="9" Value="F#3" Duration="1" Instrument="hat"
				Note Time="10" Value="A3" Duration="1" Instrument="rel hats"
				Note Time="11" Value="F3" Duration="1" Instrument="hat"
				Note Time="12" Value="G2" Duration="1" Instrument="snare"
				Note Time="13" Value="F#3" Duration="1" Instrument="hat"
				Note Time="14" Value="A3" Duration="1" Instrument="rel hats"
				Note Time="15" Value="F3" Duration="1" Instrument="hat"
				Note Time="16" Value="G2" Duration="1" Instrument="kick"
				Note Time="17" Value="F#3" Duration="1" Instrument="hat"
				Note Time="18" Value="A3" Duration="1" Instrument="rel hats"
				Note Time="19" Value="F3" Duration="1" Instrument="hat"
				Note Time="20" Value="G2" Duration="1" Instrument="snare"
				Note Time="21" Value="F#3" Duration="1" Instrument="hat"
				Note Time="22" Value="A3" Duration="1" Instrument="rel hats"
				Note Time="23" Value="F3" Duration="1" Instrument="hat"
				Note Time="24" Value="G2" Duration="1" Instrument="kick"
				Note Time="25" Value="F#3" Duration="1" Instrument="hat"
				Note Time="26" Value="A3" Duration="1" Instrument="rel hats"
				Note Time="27" Value="F3" Duration="1" Instrument="hat"
				Note Time="28" Value="G2" Duration="1" Instrument="snare"
				Note Time="29" Value="F#3" Duration="1" Instrument="hat"
				Note Time="30" Value="A3" Duration="1" Instrument="rel hats"
				Note Time="31" Value="F3" Duration="1" Instrument="hat"
			Pattern Name="06" Color="ff8d5a"
				Note Time="0" Value="G3" Duration="5" Instrument="cymbal"
				Note Time="5" Value="F#3" Duration="1" Instrument="hat"
				Note Time="6" Value="A3" Duration="1" Instrument="rel hats"
				Note Time="7" Value="F3" Duration="2" Instrument="hat"
				Note Time="9" Value="F#3" Duration="1" Instrument="hat"
				Note Time="10" Value="A3" Duration="1" Instrument="rel hats"
				Note Time="11" Value="F3" Duration="2" Instrument="hat"
				Note Time="13" Value="F#3" Duration="1" Instrument="hat"
				Note Time="14" Value="A3" Duration="1" Instrument="rel hats"
				Note Time="15" Value="F3" Duration="2" Instrument="hat"
				Note Time="17" Value="F#3" Duration="1" Instrument="hat"
				Note Time="18" Value="A3" Duration="1" Instrument="rel hats"
				Note Time="19" Value="F3" Duration="2" Instrument="hat"
				Note Time="21" Value="F#3" Duration="1" Instrument="hat"
				Note Time="22" Value="A3" Duration="1" Instrument="rel hats"
				Note Time="23" Value="F3" Duration="2" Instrument="hat"
				Note Time="25" Value="F#3" Duration="1" Instrument="hat"
				Note Time="26" Value="A3" Duration="1" Instrument="rel hats"
				Note Time="27" Value="F3" Duration="2" Instrument="hat"
				Note Time="29" Value="F#3" Duration="1" Instrument="hat"
				Note Time="30" Value="A3" Duration="1" Instrument="rel hats"
				Note Time="31" Value="F3" Duration="2" Instrument="hat"
			Pattern Name="07" Color="ebf067"
				Note Time="1" Value="F#3" Duration="1" Instrument="hat"
				Note Time="2" Value="A3" Duration="1" Instrument="rel hats"
				Note Time="3" Value="F3" Duration="2" Instrument="hat"
				Note Time="5" Value="F#3" Duration="1" Instrument="hat"
				Note Time="6" Value="A3" Duration="1" Instrument="rel hats"
				Note Time="7" Value="F3" Duration="2" Instrument="hat"
				Note Time="9" Value="F#3" Duration="1" Instrument="hat"
				Note Time="10" Value="A3" Duration="1" Instrument="rel hats"
				Note Time="11" Value="F3" Duration="2" Instrument="hat"
				Note Time="13" Value="F#3" Duration="1" Instrument="hat"
				Note Time="14" Value="A3" Duration="1" Instrument="rel hats"
				Note Time="15" Value="F3" Duration="2" Instrument="hat"
				Note Time="17" Value="F#3" Duration="1" Instrument="hat"
				Note Time="18" Value="A3" Duration="1" Instrument="rel hats"
				Note Time="19" Value="F3" Duration="2" Instrument="hat"
				Note Time="21" Value="F#3" Duration="1" Instrument="hat"
				Note Time="22" Value="A3" Duration="1" Instrument="rel hats"
				Note Time="23" Value="F3" Duration="2" Instrument="hat"
				Note Time="25" Value="F#3" Duration="1" Instrument="hat"
				Note Time="26" Value="A3" Duration="1" Instrument="rel hats"
				Note Time="27" Value="F3" Duration="2" Instrument="hat"
				Note Time="29" Value="F#3" Duration="1" Instrument="hat"
				Note Time="30" Value="A3" Duration="1" Instrument="rel hats"
				Note Time="31" Value="F3" Duration="2" Instrument="hat"
			Pattern Name="0D" Color="3cbfcb"
				Note Time="0" Value="G3" Duration="4" Instrument="cymbal"
				Note Time="4" Value="G2" Duration="1" Instrument="kick"
				Note Time="5" Value="F#3" Duration="1" Instrument="hat"
				Note Time="6" Value="A3" Duration="1" Instrument="rel hats"
				Note Time="7" Value="F3" Duration="1" Instrument="hat"
				Note Time="8" Value="G2" Duration="1" Instrument="kick"
				Note Time="9" Value="F#3" Duration="1" Instrument="hat"
				Note Time="10" Value="A3" Duration="1" Instrument="rel hats"
				Note Time="11" Value="F3" Duration="1" Instrument="hat"
				Note Time="12" Value="G2" Duration="1" Instrument="kick"
				Note Time="13" Value="F#3" Duration="1" Instrument="hat"
				Note Time="14" Value="A3" Duration="1" Instrument="rel hats"
				Note Time="15" Value="F3" Duration="1" Instrument="hat"
				Note Time="16" Value="G2" Duration="1" Instrument="kick"
				Note Time="17" Value="F#3" Duration="1" Instrument="hat"
				Note Time="18" Value="A3" Duration="1" Instrument="rel hats"
				Note Time="19" Value="F3" Duration="1" Instrument="hat"
				Note Time="20" Value="G2" Duration="1" Instrument="kick"
				Note Time="21" Value="F#3" Duration="1" Instrument="hat"
				Note Time="22" Value="A3" Duration="1" Instrument="rel hats"
				Note Time="23" Value="F3" Duration="1" Instrument="hat"
				Note Time="24" Value="G2" Duration="1" Instrument="kick"
				Note Time="25" Value="F#3" Duration="1" Instrument="hat"
				Note Time="26" Value="A3" Duration="1" Instrument="rel hats"
				Note Time="27" Value="F3" Duration="1" Instrument="hat"
				Note Time="28" Value="G2" Duration="1" Instrument="kick"
				Note Time="29" Value="F#3" Duration="1" Instrument="hat"
				Note Time="30" Value="A3" Duration="1" Instrument="rel hats"
				Note Time="31" Value="F3" Duration="1" Instrument="hat"
			Pattern Name="0E" Color="d1b1ff"
				Note Time="0" Value="G2" Duration="1" Instrument="kick"
				Note Time="1" Value="F#3" Duration="1" Instrument="hat"
				Note Time="2" Value="A3" Duration="1" Instrument="rel hats"
				Note Time="3" Value="F3" Duration="1" Instrument="hat"
				Note Time="4" Value="G2" Duration="1" Instrument="kick"
				Note Time="5" Value="F#3" Duration="1" Instrument="hat"
				Note Time="6" Value="A3" Duration="1" Instrument="rel hats"
				Note Time="7" Value="F3" Duration="1" Instrument="hat"
				Note Time="8" Value="G2" Duration="1" Instrument="kick"
				Note Time="9" Value="F#3" Duration="1" Instrument="hat"
				Note Time="10" Value="A3" Duration="1" Instrument="rel hats"
				Note Time="11" Value="F3" Duration="1" Instrument="hat"
				Note Time="12" Value="G2" Duration="1" Instrument="kick"
				Note Time="13" Value="F#3" Duration="1" Instrument="hat"
				Note Time="14" Value="A3" Duration="1" Instrument="rel hats"
				Note Time="15" Value="F3" Duration="1" Instrument="hat"
				Note Time="16" Value="G2" Duration="1" Instrument="kick"
				Note Time="17" Value="F#3" Duration="1" Instrument="hat"
				Note Time="18" Value="A3" Duration="1" Instrument="rel hats"
				Note Time="19" Value="F3" Duration="1" Instrument="hat"
				Note Time="20" Value="G2" Duration="1" Instrument="kick"
				Note Time="21" Value="F#3" Duration="1" Instrument="hat"
				Note Time="22" Value="A3" Duration="1" Instrument="rel hats"
				Note Time="23" Value="F3" Duration="1" Instrument="hat"
				Note Time="24" Value="G2" Duration="1" Instrument="kick"
				Note Time="25" Value="F#3" Duration="1" Instrument="hat"
				Note Time="26" Value="A3" Duration="1" Instrument="rel hats"
				Note Time="27" Value="F3" Duration="1" Instrument="hat"
				Note Time="28" Value="G2" Duration="1" Instrument="kick"
				Note Time="29" Value="F#3" Duration="1" Instrument="hat"
				Note Time="30" Value="A3" Duration="1" Instrument="rel hats"
				Note Time="31" Value="F3" Duration="1" Instrument="hat"
			Pattern Name="09" Color="ddc4bb"
				Note Time="0" Value="G2" Duration="1" Instrument="kick"
				Note Time="1" Value="F#3" Duration="1" Instrument="hat"
				Note Time="2" Value="A3" Duration="1" Instrument="rel hats"
				Note Time="3" Value="F3" Duration="1" Instrument="hat"
				Note Time="4" Value="G2" Duration="1" Instrument="kick"
				Note Time="5" Value="F#3" Duration="1" Instrument="hat"
				Note Time="6" Value="A3" Duration="1" Instrument="rel hats"
				Note Time="7" Value="F3" Duration="1" Instrument="hat"
				Note Time="8" Value="G2" Duration="1" Instrument="kick"
				Note Time="9" Value="F#3" Duration="1" Instrument="hat"
				Note Time="10" Value="A3" Duration="1" Instrument="rel hats"
				Note Time="11" Value="F3" Duration="1" Instrument="hat"
				Note Time="12" Value="G2" Duration="1" Instrument="kick"
				Note Time="13" Value="F#3" Duration="1" Instrument="hat"
				Note Time="14" Value="A3" Duration="1" Instrument="rel hats"
				Note Time="15" Value="F3" Duration="3" Instrument="hat"
				Note Time="18" Value="F#3" Duration="14" Instrument="DMC: drums + bass" Volume="1"
				Note Time="19" Volume="2"
				Note Time="20" Volume="3"
				Note Time="21" Volume="4"
				Note Time="22" Volume="5"
				Note Time="23" Volume="6"
				Note Time="24" Volume="7"
				Note Time="25" Volume="8"
				Note Time="26" Volume="9"
				Note Time="27" Volume="10"
				Note Time="28" Volume="11"
				Note Time="29" Volume="12"
				Note Time="30" Volume="13"
				Note Time="31" Volume="14"
			Pattern Name="08" Color="ffff94"
				Note Time="0" Value="G3" Duration="4" Instrument="cymbal"
				Note Time="4" Value="G2" Duration="1" Instrument="snare"
				Note Time="5" Value="F#3" Duration="1" Instrument="hat"
				Note Time="6" Value="A3" Duration="2" Instrument="rel hats"
				Note Time="8" Value="G2" Duration="1" Instrument="kick"
				Note Time="9" Value="F#3" Duration="1" Instrument="hat"
				Note Time="10" Value="A3" Duration="2" Instrument="rel hats"
				Note Time="12" Value="G2" Duration="1" Instrument="snare"
				Note Time="13" Value="F#3" Duration="1" Instrument="hat"
				Note Time="14" Value="A3" Duration="2" Instrument="rel hats"
				Note Time="16" Value="G2" Duration="1" Instrument="kick"
				Note Time="17" Value="F#3" Duration="1" Instrument="hat"
				Note Time="18" Value="A3" Duration="2" Instrument="rel hats"
				Note Time="20" Value="G2" Duration="1" Instrument="snare"
				Note Time="21" Value="F#3" Duration="1" Instrument="hat"
				Note Time="22" Value="A3" Duration="2" Instrument="rel hats"
				Note Time="24" Value="G2" Duration="1" Instrument="kick"
				Note Time="25" Value="F#3" Duration="1" Instrument="hat"
				Note Time="26" Value="A3" Duration="2" Instrument="rel hats"
				Note Time="28" Value="G2" Duration="1" Instrument="snare"
				Note Time="29" Value="F#3" Duration="1" Instrument="hat"
				Note Time="30" Value="A3" Duration="2" Instrument="rel hats"
			Pattern Name="0B" Color="3cd2c4"
				Note Time="0" Value="G3" Duration="5" Instrument="cymbal"
				Note Time="5" Value="F#3" Duration="1" Instrument="hat"
				Note Time="6" Value="A3" Duration="3" Instrument="rel hats"
				Note Time="9" Value="F#3" Duration="1" Instrument="hat"
				Note Time="10" Value="A3" Duration="3" Instrument="rel hats"
				Note Time="13" Value="F#3" Duration="1" Instrument="hat"
				Note Time="14" Value="A3" Duration="2" Instrument="rel hats"
				Note Time="16" Value="G3" Duration="4" Instrument="blank" Volume="8"
				Note Time="17" Volume="10"
				Note Time="20" Value="F#3" Duration="4" Instrument="blank" Volume="8"
				Note Time="24" Value="F3" Duration="4" Instrument="blank" Volume="8"
				Note Time="28" Value="E3" Duration="1" Instrument="blank" Volume="7"
				Note Time="29" Value="D#3" Duration="1" Instrument="blank" Volume="6"
				Note Time="30" Value="D3" Duration="1" Instrument="blank" Volume="5"
				Note Time="31" Value="C3" Duration="1" Instrument="blank" Volume="4"
			Pattern Name="0A" Color="7585e7"
				Note Time="0" Value="G3" Duration="5" Instrument="cymbal" Volume="15"
			PatternInstance Time="0" Pattern="01"
			PatternInstance Time="1" Pattern="0C"
			PatternInstance Time="2" Pattern="0C"
			PatternInstance Time="3" Pattern="02"
			PatternInstance Time="4" Pattern="0C"
			PatternInstance Time="5" Pattern="02"
			PatternInstance Time="6" Pattern="0C"
			PatternInstance Time="7" Pattern="02"
			PatternInstance Time="8" Pattern="04"
			PatternInstance Time="9" Pattern="05"
			PatternInstance Time="10" Pattern="05"
			PatternInstance Time="11" Pattern="05"
			PatternInstance Time="12" Pattern="05"
			PatternInstance Time="13" Pattern="05"
			PatternInstance Time="14" Pattern="05"
			PatternInstance Time="15" Pattern="05"
			PatternInstance Time="16" Pattern="05"
			PatternInstance Time="17" Pattern="06"
			PatternInstance Time="18" Pattern="07"
			PatternInstance Time="19" Pattern="07"
			PatternInstance Time="20" Pattern="07"
			PatternInstance Time="21" Pattern="0D"
			PatternInstance Time="22" Pattern="0E"
			PatternInstance Time="23" Pattern="0E"
			PatternInstance Time="24" Pattern="09"
			PatternInstance Time="25" Pattern="08"
			PatternInstance Time="26" Pattern="08"
			PatternInstance Time="27" Pattern="08"
			PatternInstance Time="28" Pattern="0B"
			PatternInstance Time="29" Pattern="0A"
		Channel Type="DPCM"
			Pattern Name="08" Color="ffdc3c"
				Note Time="16" Value="C4" Duration="2" Instrument="DMC: drums + bass"
				Note Time="22" Value="C4" Duration="1" Instrument="DMC: drums + bass" CutDelay="5"
				Note Time="23" Value="C4" Duration="1" Instrument="DMC: drums + bass" CutDelay="5"
				Note Time="24" Value="D4" Duration="2" Instrument="DMC: drums + bass"
				Note Time="25" CutDelay="5"
				Note Time="26" Value="C4" Duration="1" Instrument="DMC: drums + bass" CutDelay="5"
				Note Time="27" Value="D4" Duration="2" Instrument="DMC: drums + bass"
				Note Time="30" Value="D4" Duration="2" Instrument="DMC: drums + bass"
			Pattern Name="0F" Color="6ab96e"
				Note Time="0" Value="G3" Duration="2" Instrument="DMC: drums + bass"
				Note Time="16" Value="C4" Duration="2" Instrument="DMC: drums + bass"
				Note Time="22" Value="C4" Duration="1" Instrument="DMC: drums + bass" CutDelay="5"
				Note Time="23" Value="C4" Duration="1" Instrument="DMC: drums + bass" CutDelay="5"
				Note Time="24" Value="D4" Duration="1" Instrument="DMC: drums + bass"
				Note Time="26" Value="D4" Duration="1" Instrument="DMC: drums + bass"
				Note Time="28" Value="D4" Duration="1" Instrument="DMC: drums + bass"
				Note Time="30" Value="D4" Duration="1" Instrument="DMC: drums + bass"
			Pattern Name="10" Color="a0f1ff"
				Note Time="0" Value="G3" Duration="2" Instrument="DMC: drums + bass"
				Note Time="3" Value="G3" Duration="2" Instrument="DMC: drums + bass"
				Note Time="16" Value="C4" Duration="2" Instrument="DMC: drums + bass"
				Note Time="22" Value="C4" Duration="1" Instrument="DMC: drums + bass" CutDelay="5"
				Note Time="23" Value="C4" Duration="1" Instrument="DMC: drums + bass" CutDelay="5"
				Note Time="24" Value="D4" Duration="2" Instrument="DMC: drums + bass"
				Note Time="25" CutDelay="5"
				Note Time="26" Value="C4" Duration="1" Instrument="DMC: drums + bass" CutDelay="5"
				Note Time="27" Value="D4" Duration="3" Instrument="DMC: drums + bass"
				Note Time="30" Value="F4" Duration="1" Instrument="DMC: drums + bass" CutDelay="5"
				Note Time="31" Value="G4" Duration="1" Instrument="DMC: drums + bass"
			Pattern Name="11" Color="ff7cb6"
				Note Time="0" Value="C4" Duration="2" Instrument="DMC: drums + bass"
				Note Time="3" Value="C4" Duration="2" Instrument="DMC: drums + bass"
				Note Time="7" Value="C4" Duration="1" Instrument="DMC: drums + bass"
				Note Time="8" Value="A#3" Duration="2" Instrument="DMC: drums + bass"
				Note Time="9" CutDelay="5"
				Note Time="10" Value="A#3" Duration="2" Instrument="DMC: drums + bass"
				Note Time="14" Value="A#3" Duration="2" Instrument="DMC: drums + bass"
				Note Time="15" CutDelay="5"
				Note Time="16" Value="G3" Duration="2" Instrument="DMC: drums + bass"
				Note Time="19" Value="G3" Duration="2" Instrument="DMC: drums + bass"
				Note Time="22" Value="G3" Duration="2" Instrument="DMC: drums + bass"
			Pattern Name="01" Color="ffe362"
				Note Time="0" Value="E5" Duration="6" Instrument="DMC: drums + bass"
				Note Time="6" Value="E5" Duration="4" Instrument="DMC: drums + bass"
				Note Time="10" Value="E5" Duration="6" Instrument="DMC: drums + bass"
				Note Time="16" Value="E5" Duration="1" Instrument="DMC: drums + bass"
				Note Time="17" Value="C4" Duration="1" Instrument="DMC: drums + bass"
				Note Time="23" Value="E5" Duration="1" Instrument="DMC: drums + bass"
				Note Time="24" Value="D4" Duration="2" Instrument="DMC: drums + bass"
				Note Time="25" CutDelay="5"
				Note Time="26" Value="C4" Duration="1" Instrument="DMC: drums + bass" CutDelay="5"
				Note Time="27" Value="D4" Duration="2" Instrument="DMC: drums + bass"
				Note Time="30" Value="D4" Duration="2" Instrument="DMC: drums + bass"
			Pattern Name="12" Color="c7ff86"
				Note Time="0" Value="E5" Duration="6" Instrument="DMC: drums + bass"
				Note Time="6" Value="E5" Duration="4" Instrument="DMC: drums + bass"
				Note Time="10" Value="E5" Duration="6" Instrument="DMC: drums + bass"
				Note Time="16" Value="E5" Duration="1" Instrument="DMC: drums + bass"
				Note Time="17" Value="C4" Duration="1" Instrument="DMC: drums + bass"
				Note Time="22" Value="C4" Duration="1" Instrument="DMC: drums + bass"
				Note Time="23" Value="E5" Duration="1" Instrument="DMC: drums + bass"
				Note Time="24" Value="D4" Duration="1" Instrument="DMC: drums + bass"
				Note Time="26" Value="D4" Duration="1" Instrument="DMC: drums + bass"
				Note Time="28" Value="D4" Duration="1" Instrument="DMC: drums + bass"
				Note Time="30" Value="D4" Duration="2" Instrument="DMC: drums + bass"
			Pattern Name="13" Color="3fd7ff"
				Note Time="0" Value="E5" Duration="6" Instrument="DMC: drums + bass"
				Note Time="6" Value="E5" Duration="4" Instrument="DMC: drums + bass"
				Note Time="10" Value="E5" Duration="6" Instrument="DMC: drums + bass"
				Note Time="16" Value="E5" Duration="1" Instrument="DMC: drums + bass"
				Note Time="17" Value="C4" Duration="1" Instrument="DMC: drums + bass"
				Note Time="23" Value="E5" Duration="1" Instrument="DMC: drums + bass"
				Note Time="24" Value="D4" Duration="2" Instrument="DMC: drums + bass"
				Note Time="25" CutDelay="5"
				Note Time="26" Value="C4" Duration="1" Instrument="DMC: drums + bass" CutDelay="5"
				Note Time="27" Value="D4" Duration="2" Instrument="DMC: drums + bass"
				Note Time="30" Value="F4" Duration="1" Instrument="DMC: drums + bass" CutDelay="5"
				Note Time="31" Value="G4" Duration="1" Instrument="DMC: drums + bass"
			Pattern Name="02" Color="b75bde"
				Note Time="0" Value="E5" Duration="6" Instrument="DMC: drums + bass"
				Note Time="6" Value="E5" Duration="10" Instrument="DMC: drums + bass"
				Note Time="16" Value="F5" Duration="6" Instrument="DMC: drums + bass"
				Note Time="22" Value="F5" Duration="2" Instrument="DMC: drums + bass"
				Note Time="24" Value="E5" Duration="1" Instrument="DMC: drums + bass"
				Note Time="25" Value="F5" Duration="2" Instrument="DMC: drums + bass"
				Note Time="27" Value="E5" Duration="3" Instrument="DMC: drums + bass"
				Note Time="30" Value="E5" Duration="2" Instrument="DMC: drums + bass"
			Pattern Name="03" Color="ff8655"
				Note Time="0" Value="E5" Duration="1" Instrument="DMC: drums + bass"
				Note Time="1" Value="G3" Duration="2" Instrument="DMC: drums + bass"
				Note Time="3" Value="G3" Duration="1" Instrument="DMC: drums + bass"
				Note Time="4" Value="F5" Duration="2" Instrument="DMC: drums + bass"
				Note Time="6" Value="E5" Duration="1" Instrument="DMC: drums + bass"
				Note Time="7" Value="G3" Duration="1" Instrument="DMC: drums + bass"
				Note Time="8" Value="A#3" Duration="2" Instrument="DMC: drums + bass"
				Note Time="10" Value="E5" Duration="1" Instrument="DMC: drums + bass"
				Note Time="11" Value="A#3" Duration="1" Instrument="DMC: drums + bass"
				Note Time="12" Value="F5" Duration="2" Instrument="DMC: drums + bass"
				Note Time="14" Value="A#3" Duration="2" Instrument="DMC: drums + bass"
				Note Time="16" Value="E5" Duration="1" Instrument="DMC: drums + bass"
				Note Time="17" Value="C4" Duration="2" Instrument="DMC: drums + bass"
				Note Time="19" Value="C4" Duration="1" Instrument="DMC: drums + bass"
				Note Time="20" Value="F5" Duration="1" Instrument="DMC: drums + bass"
				Note Time="21" Value="C4" Duration="1" Instrument="DMC: drums + bass"
				Note Time="22" Value="E5" Duration="2" Instrument="DMC: drums + bass"
				Note Time="24" Value="D4" Duration="2" Instrument="DMC: drums + bass"
				Note Time="26" Value="E5" Duration="1" Instrument="DMC: drums + bass"
				Note Time="27" Value="D4" Duration="1" Instrument="DMC: drums + bass"
				Note Time="28" Value="F5" Duration="2" Instrument="DMC: drums + bass"
				Note Time="30" Value="E5" Duration="1" Instrument="DMC: drums + bass"
				Note Time="31" Value="D4" Duration="1" Instrument="DMC: drums + bass"
			Pattern Name="04" Color="dad960"
				Note Time="0" Value="E5" Duration="1" Instrument="DMC: drums + bass"
				Note Time="1" Value="G3" Duration="1" Instrument="DMC: drums + bass"
				Note Time="3" Value="G3" Duration="1" Instrument="DMC: drums + bass"
				Note Time="4" Value="F5" Duration="2" Instrument="DMC: drums + bass"
				Note Time="6" Value="E5" Duration="1" Instrument="DMC: drums + bass"
				Note Time="7" Value="G3" Duration="1" Instrument="DMC: drums + bass"
				Note Time="8" Value="A#3" Duration="2" Instrument="DMC: drums + bass"
				Note Time="10" Value="E5" Duration="1" Instrument="DMC: drums + bass"
				Note Time="11" Value="A#3" Duration="1" Instrument="DMC: drums + bass"
				Note Time="12" Value="F5" Duration="2" Instrument="DMC: drums + bass"
				Note Time="14" Value="A#3" Duration="1" Instrument="DMC: drums + bass"
				Note Time="16" Value="E5" Duration="1" Instrument="DMC: drums + bass"
				Note Time="17" Value="C4" Duration="1" Instrument="DMC: drums + bass"
				Note Time="19" Value="C4" Duration="1" Instrument="DMC: drums + bass"
				Note Time="20" Value="F5" Duration="2" Instrument="DMC: drums + bass"
				Note Time="22" Value="E5" Duration="1" Instrument="DMC: drums + bass"
				Note Time="23" Value="C4" Duration="1" Instrument="DMC: drums + bass"
				Note Time="24" Value="D4" Duration="2" Instrument="DMC: drums + bass"
				Note Time="26" Value="E5" Duration="1" Instrument="DMC: drums + bass"
				Note Time="27" Value="D4" Duration="1" Instrument="DMC: drums + bass"
				Note Time="28" Value="F5" Duration="2" Instrument="DMC: drums + bass"
				Note Time="30" Value="E5" Duration="1" Instrument="DMC: drums + bass"
				Note Time="31" Value="G4" Duration="1" Instrument="DMC: drums + bass"
			Pattern Name="05" Color="89ffff"
				Note Time="0" Value="E5" Duration="1" Instrument="DMC: drums + bass"
				Note Time="1" Value="C4" Duration="1" Instrument="DMC: drums + bass"
				Note Time="3" Value="C4" Duration="1" Instrument="DMC: drums + bass"
				Note Time="4" Value="F5" Duration="2" Instrument="DMC: drums + bass"
				Note Time="6" Value="E5" Duration="1" Instrument="DMC: drums + bass"
				Note Time="7" Value="C4" Duration="1" Instrument="DMC: drums + bass"
				Note Time="8" Value="A#3" Duration="2" Instrument="DMC: drums + bass"
				Note Time="11" Value="A#3" Duration="1" Instrument="DMC: drums + bass"
				Note Time="12" Value="F5" Duration="2" Instrument="DMC: drums + bass"
				Note Time="14" Value="A#3" Duration="1" Instrument="DMC: drums + bass"
				Note Time="16" Value="E5" Duration="1" Instrument="DMC: drums + bass"
				Note Time="17" Value="G3" Duration="1" Instrument="DMC: drums + bass"
				Note Time="19" Value="G3" Duration="1" Instrument="DMC: drums + bass"
				Note Time="20" Value="F5" Duration="2" Instrument="DMC: drums + bass"
				Note Time="22" Value="E5" Duration="1" Instrument="DMC: drums + bass"
				Note Time="23" Value="G3" Duration="1" Instrument="DMC: drums + bass"
				Note Time="24" Value="G3" Duration="2" Instrument="DMC: drums + bass"
				Note Time="27" Value="G3" Duration="1" Instrument="DMC: drums + bass"
				Note Time="28" Value="F5" Duration="2" Instrument="DMC: drums + bass"
				Note Time="30" Value="E5" Duration="1" Instrument="DMC: drums + bass"
				Note Time="31" Value="G3" Duration="1" Instrument="DMC: drums + bass"
			Pattern Name="06" Color="ba93fe"
				Note Time="0" Value="E5" Duration="1" Instrument="DMC: drums + bass"
				Note Time="1" Value="C4" Duration="1" Instrument="DMC: drums + bass"
				Note Time="3" Value="C4" Duration="1" Instrument="DMC: drums + bass"
				Note Time="4" Value="F5" Duration="2" Instrument="DMC: drums + bass"
				Note Time="6" Value="E5" Duration="1" Instrument="DMC: drums + bass"
				Note Time="7" Value="C4" Duration="1" Instrument="DMC: drums + bass"
				Note Time="8" Value="A#3" Duration="2" Instrument="DMC: drums + bass"
				Note Time="11" Value="A#3" Duration="1" Instrument="DMC: drums + bass"
				Note Time="12" Value="F5" Duration="2" Instrument="DMC: drums + bass"
				Note Time="14" Value="A#3" Duration="1" Instrument="DMC: drums + bass"
				Note Time="16" Value="E5" Duration="1" Instrument="DMC: drums + bass"
				Note Time="17" Value="G3" Duration="1" Instrument="DMC: drums + bass"
				Note Time="19" Value="G3" Duration="2" Instrument="DMC: drums + bass"
				Note Time="22" Value="E5" Duration="1" Instrument="DMC: drums + bass"
				Note Time="23" Value="G3" Duration="1" Instrument="DMC: drums + bass"
				Note Time="24" Value="G3" Duration="2" Instrument="DMC: drums + bass"
				Note Time="27" Value="G3" Duration="2" Instrument="DMC: drums + bass"
				Note Time="30" Value="E5" Duration="1" Instrument="DMC: drums + bass"
				Note Time="31" Value="G3" Duration="1" Instrument="DMC: drums + bass"
			Pattern Name="07" Color="c9aa9f"
				Note Time="0" Value="E5" Duration="32" Instrument="DMC: drums + bass"
			Pattern Name="0D" Color="ffff77"
				Note Time="22" Value="F5" Duration="4" Instrument="DMC: drums + bass"
				Note Time="26" Value="F5" Duration="3" Instrument="DMC: drums + bass"
				Note Time="29" Value="E5" Duration="1" Instrument="DMC: drums + bass"
				Note Time="30" Value="F5" Duration="1" Instrument="DMC: drums + bass"
				Note Time="31" Value="F5" Duration="1" Instrument="DMC: drums + bass"
			Pattern Name="0A" Color="3cc5b7"
				Note Time="0" Value="E5" Duration="4" Instrument="DMC: drums + bass"
				Note Time="4" Value="E5" Duration="4" Instrument="DMC: drums + bass"
				Note Time="6" DeltaCounter="63"
				Note Time="8" Value="E5" Duration="4" Instrument="DMC: drums + bass"
				Note Time="10" DeltaCounter="95"
				Note Time="12" Value="E5" Duration="4" Instrument="DMC: drums + bass"
				Note Time="14" DeltaCounter="127"
				Note Time="16" Value="E5" Duration="4" Instrument="DMC: drums + bass"
				Note Time="20" Value="E5" Duration="4" Instrument="DMC: drums + bass"
				Note Time="24" Value="E5" Duration="4" Instrument="DMC: drums + bass"
				Note Time="28" Value="E5" Duration="4" Instrument="DMC: drums + bass"
			Pattern Name="0E" Color="6c7bdb"
				Note Time="0" Value="E5" Duration="4" Instrument="DMC: drums + bass"
				Note Time="4" Value="E5" Duration="4" Instrument="DMC: drums + bass"
				Note Time="8" Value="E5" Duration="4" Instrument="DMC: drums + bass"
				Note Time="12" Value="E5" Duration="4" Instrument="DMC: drums + bass"
				Note Time="16" Value="F5" Duration="4" Instrument="DMC: drums + bass"
				Note Time="20" Value="F#5" Duration="2" Instrument="DMC: drums + bass"
				Note Time="22" Value="G5" Duration="2" Instrument="DMC: drums + bass"
				Note Time="24" Value="G#5" Duration="2" Instrument="DMC: drums + bass"
				Note Time="26" Value="A5" Duration="6" Instrument="DMC: drums + bass"
			Pattern Name="09" Color="ff6464"
				Note Time="0" Value="E5" Duration="1" Instrument="DMC: drums + bass"
				Note Time="1" Value="G3" Duration="1" Instrument="DMC: drums + bass"
				Note Time="3" Value="G3" Duration="1" Instrument="DMC: drums + bass"
				Note Time="4" Value="F5" Duration="2" Instrument="DMC: drums + bass"
				Note Time="6" Value="G3" Duration="2" Instrument="DMC: drums + bass"
				Note Time="8" Value="E5" Duration="1" Instrument="DMC: drums + bass"
				Note Time="9" Value="A#3" Duration="1" Instrument="DMC: drums + bass"
				Note Time="11" Value="A#3" Duration="1" Instrument="DMC: drums + bass"
				Note Time="12" Value="F5" Duration="2" Instrument="DMC: drums + bass"
				Note Time="14" Value="A#3" Duration="2" Instrument="DMC: drums + bass"
				Note Time="16" Value="E5" Duration="1" Instrument="DMC: drums + bass"
				Note Time="17" Value="C4" Duration="1" Instrument="DMC: drums + bass"
				Note Time="19" Value="C4" Duration="1" Instrument="DMC: drums + bass"
				Note Time="20" Value="F5" Duration="2" Instrument="DMC: drums + bass"
				Note Time="22" Value="C4" Duration="2" Instrument="DMC: drums + bass"
				Note Time="24" Value="E5" Duration="1" Instrument="DMC: drums + bass"
				Note Time="25" Value="D4" Duration="1" Instrument="DMC: drums + bass"
				Note Time="27" Value="D4" Duration="1" Instrument="DMC: drums + bass"
				Note Time="28" Value="F5" Duration="2" Instrument="DMC: drums + bass"
				Note Time="30" Value="D4" Duration="2" Instrument="DMC: drums + bass"
			Pattern Name="0B" Color="ffcb3c"
				Note Time="0" Value="E5" Duration="1" Instrument="DMC: drums + bass"
				Note Time="1" Value="C4" Duration="1" Instrument="DMC: drums + bass"
				Note Time="3" Value="C4" Duration="1" Instrument="DMC: drums + bass"
				Note Time="4" Value="F5" Duration="2" Instrument="DMC: drums + bass"
				Note Time="6" Value="C4" Duration="2" Instrument="DMC: drums + bass"
				Note Time="8" Value="E5" Duration="1" Instrument="DMC: drums + bass"
				Note Time="9" Value="A#3" Duration="1" Instrument="DMC: drums + bass"
				Note Time="11" Value="A#3" Duration="1" Instrument="DMC: drums + bass"
				Note Time="12" Value="F5" Duration="2" Instrument="DMC: drums + bass"
				Note Time="14" Value="A#3" Duration="2" Instrument="DMC: drums + bass"
				Note Time="16" Value="E5" Duration="1" Instrument="DMC: drums + bass"
				Note Time="17" Value="A3" Duration="1" Instrument="DMC: drums + bass"
				Note Time="19" Value="A3" Duration="1" Instrument="DMC: drums + bass"
				Note Time="20" Value="F5" Duration="2" Instrument="DMC: drums + bass"
				Note Time="22" Value="A3" Duration="2" Instrument="DMC: drums + bass"
				Note Time="24" Value="E5" Duration="1" Instrument="DMC: drums + bass"
				Note Time="25" Value="G3" Duration="1" Instrument="DMC: drums + bass"
				Note Time="27" Value="G3" Duration="1" Instrument="DMC: drums + bass"
				Note Time="28" Value="F5" Duration="2" Instrument="DMC: drums + bass"
				Note Time="30" Value="G3" Duration="2" Instrument="DMC: drums + bass"
			Pattern Name="0C" Color="bdffc0"
				Note Time="0" Value="E5" Duration="8" Instrument="DMC: drums + bass"
			PatternInstance Time="1" Pattern="08"
			PatternInstance Time="2" Pattern="0F"
			PatternInstance Time="3" Pattern="10"
			PatternInstance Time="4" Pattern="11"
			PatternInstance Time="5" Pattern="01"
			PatternInstance Time="6" Pattern="12"
			PatternInstance Time="7" Pattern="13"
			PatternInstance Time="8" Pattern="02"
			PatternInstance Time="9" Pattern="03"
			PatternInstance Time="10" Pattern="03"
			PatternInstance Time="11" Pattern="04"
			PatternInstance Time="12" Pattern="05"
			PatternInstance Time="13" Pattern="03"
			PatternInstance Time="14" Pattern="03"
			PatternInstance Time="15" Pattern="04"
			PatternInstance Time="16" Pattern="06"
			PatternInstance Time="17" Pattern="07"
			PatternInstance Time="20" Pattern="0D"
			PatternInstance Time="21" Pattern="0A"
			PatternInstance Time="22" Pattern="0A"
			PatternInstance Time="23" Pattern="0A"
			PatternInstance Time="24" Pattern="0E"
			PatternInstance Time="25" Pattern="09"
			PatternInstance Time="26" Pattern="09"
			PatternInstance Time="27" Pattern="09"
			PatternInstance Time="28" Pattern="0B"
			PatternInstance Time="29" Pattern="0C"
	Song Name="Cycles" Color="3ca598" Folder="Official music used in the game" Length="14" LoopPoint="-1" PatternLength="64" BeatLength="4" FamiTrackerTempo="140" FamiTrackerSpeed="6"
		PatternCustomSettings Time="4" Length="16"
		PatternCustomSettings Time="9" Length="16"
		PatternCustomSettings Time="13" Length="64"
		Channel Type="Square1"
			Pattern Name="00" Color="ffff93"
				Note Time="0" Value="G3" Duration="2" Instrument="blank" Volume="6" DutyCycle="0"
				Note Time="2" Value="F#3" Duration="2" Instrument="blank" Volume="2"
				Note Time="4" Value="G3" Duration="2" Instrument="blank" Volume="6"
				Note Time="6" Value="B2" Duration="2" Instrument="blank"
				Note Time="8" Value="G3" Duration="2" Instrument="blank" Volume="2"
				Note Time="10" Value="B2" Duration="2" Instrument="blank" Volume="6"
				Note Time="12" Value="B2" Duration="2" Instrument="blank" Volume="2"
				Note Time="14" Value="B2" Duration="2" Instrument="blank" Volume="6"
				Note Time="16" Value="D3" Duration="2" Instrument="blank"
				Note Time="18" Value="B2" Duration="2" Instrument="blank" Volume="2"
				Note Time="20" Value="D3" Duration="2" Instrument="blank" Volume="6"
				Note Time="22" Value="D3" Duration="2" Instrument="blank"
				Note Time="24" Value="D3" Duration="2" Instrument="blank" Volume="2"
				Note Time="26" Value="G3" Duration="2" Instrument="blank" Volume="6"
				Note Time="28" Value="D3" Duration="2" Instrument="blank" Volume="2"
				Note Time="30" Value="F#3" Duration="2" Instrument="blank" Volume="6"
				Note Time="32" Value="E3" Duration="2" Instrument="blank"
				Note Time="34" Value="F#3" Duration="2" Instrument="blank" Volume="2"
				Note Time="36" Value="E3" Duration="2" Instrument="blank" Volume="6"
				Note Time="38" Value="D3" Duration="2" Instrument="blank"
				Note Time="40" Value="E3" Duration="2" Instrument="blank" Volume="2"
				Note Time="42" Value="D3" Duration="2" Instrument="blank" Volume="6"
				Note Time="44" Value="D3" Duration="2" Instrument="blank" Volume="2"
				Note Time="46" Value="B2" Duration="2" Instrument="blank" Volume="6"
				Note Time="48" Value="C3" Duration="2" Instrument="blank"
				Note Time="50" Value="B2" Duration="2" Instrument="blank"
				Note Time="52" Value="C3" Duration="2" Instrument="blank"
				Note Time="54" Value="F#3" Duration="2" Instrument="blank"
				Note Time="56" Value="C3" Duration="2" Instrument="blank" Volume="2"
				Note Time="58" Value="F#3" Duration="2" Instrument="blank" Volume="6"
				Note Time="60" Value="F#3" Duration="2" Instrument="blank" Volume="2"
				Note Time="62" Value="F#3" Duration="2" Instrument="blank" Volume="6"
			Pattern Name="01" Color="3cf8ff"
				Note Time="0" Value="G3" Duration="2" Instrument="blank" Arpeggio="Arp 0C" Volume="6"
				Note Time="2" Value="F#3" Duration="2" Instrument="blank" Arpeggio="Arp 0C" Volume="2"
				Note Time="4" Value="G3" Duration="2" Instrument="blank" Arpeggio="Arp 0C" Volume="6"
				Note Time="6" Value="B2" Duration="2" Instrument="blank" Arpeggio="Arp 0C"
				Note Time="8" Value="G3" Duration="2" Instrument="blank" Arpeggio="Arp 0C" Volume="2"
				Note Time="10" Value="B2" Duration="2" Instrument="blank" Arpeggio="Arp 0C" Volume="6"
				Note Time="12" Value="B2" Duration="2" Instrument="blank" Arpeggio="Arp 0C" Volume="2"
				Note Time="14" Value="B2" Duration="2" Instrument="blank" Arpeggio="Arp 0C" Volume="6"
				Note Time="16" Value="D3" Duration="2" Instrument="blank" Arpeggio="Arp 0C"
				Note Time="18" Value="B2" Duration="2" Instrument="blank" Arpeggio="Arp 0C" Volume="2"
				Note Time="20" Value="D3" Duration="2" Instrument="blank" Arpeggio="Arp 0C" Volume="6"
				Note Time="22" Value="D3" Duration="2" Instrument="blank" Arpeggio="Arp 0C"
				Note Time="24" Value="D3" Duration="2" Instrument="blank" Arpeggio="Arp 0C" Volume="2"
				Note Time="26" Value="G3" Duration="2" Instrument="blank" Arpeggio="Arp 0C" Volume="6"
				Note Time="28" Value="D3" Duration="2" Instrument="blank" Arpeggio="Arp 0C" Volume="2"
				Note Time="30" Value="F#3" Duration="2" Instrument="blank" Arpeggio="Arp 0C" Volume="6"
				Note Time="32" Value="E3" Duration="2" Instrument="blank" Arpeggio="Arp 0C"
				Note Time="34" Value="F#3" Duration="2" Instrument="blank" Arpeggio="Arp 0C" Volume="2"
				Note Time="36" Value="E3" Duration="2" Instrument="blank" Arpeggio="Arp 0C" Volume="6"
				Note Time="38" Value="D3" Duration="2" Instrument="blank" Arpeggio="Arp 0C"
				Note Time="40" Value="E3" Duration="2" Instrument="blank" Arpeggio="Arp 0C" Volume="2"
				Note Time="42" Value="D3" Duration="2" Instrument="blank" Arpeggio="Arp 0C" Volume="6"
				Note Time="44" Value="D3" Duration="2" Instrument="blank" Arpeggio="Arp 0C" Volume="2"
				Note Time="46" Value="B2" Duration="2" Instrument="blank" Arpeggio="Arp 0C" Volume="6"
				Note Time="48" Value="C3" Duration="2" Instrument="blank" Arpeggio="Arp 0C"
				Note Time="50" Value="B2" Duration="2" Instrument="blank" Arpeggio="Arp 0C"
				Note Time="52" Value="C3" Duration="2" Instrument="blank" Arpeggio="Arp 0C"
				Note Time="54" Value="F#3" Duration="2" Instrument="blank" Arpeggio="Arp 0C"
				Note Time="56" Value="C3" Duration="2" Instrument="blank" Arpeggio="Arp 0C" Volume="2"
				Note Time="58" Value="F#3" Duration="2" Instrument="blank" Arpeggio="Arp 0C" Volume="6"
				Note Time="60" Value="F#3" Duration="2" Instrument="blank" Arpeggio="Arp 0C" Volume="2"
				Note Time="62" Value="F#3" Duration="2" Instrument="blank" Arpeggio="Arp 0C" Volume="6"
			Pattern Name="02" Color="9a71ed"
				Note Time="0" Value="F#3" Duration="16" Instrument="blank" Arpeggio="Arp 0C" Volume="2"
				Note Time="2" Volume="5"
				Note Time="4" Volume="2"
				Note Time="6" Volume="5"
				Note Time="8" Volume="1"
				Note Time="10" Volume="4"
				Note Time="12" Volume="1"
				Note Time="14" Volume="4"
			Pattern Name="03" Color="a9887d"
				Note Time="0" Value="E3" Duration="4" Instrument="blank" Arpeggio="Arp 0C" Volume="6"
				Note Time="3" Volume="4"
				Note Time="4" Value="D3" Duration="2" Instrument="blank" Arpeggio="Arp 0C" Volume="6"
				Note Time="6" Value="B2" Duration="2" Instrument="blank" Arpeggio="Arp 0C"
				Note Time="7" Volume="4"
				Note Time="8" Value="E3" Duration="4" Instrument="blank" Arpeggio="Arp 0C" Volume="6"
				Note Time="11" Volume="4"
				Note Time="12" Value="D3" Duration="2" Instrument="blank" Arpeggio="Arp 0C" Volume="6"
				Note Time="14" Value="B2" Duration="2" Instrument="blank" Arpeggio="Arp 0C"
				Note Time="15" Volume="4"
				Note Time="16" Value="B2" Duration="4" Instrument="blank" Arpeggio="Arp 0C" Volume="6"
				Note Time="19" Volume="4"
				Note Time="20" Value="G2" Duration="2" Instrument="blank" Arpeggio="Arp 0C" Volume="6"
				Note Time="22" Value="E2" Duration="2" Instrument="blank" Arpeggio="Arp 0C"
				Note Time="23" Volume="4"
				Note Time="24" Value="B2" Duration="4" Instrument="blank" Arpeggio="Arp 0C" Volume="6"
				Note Time="27" Volume="4"
				Note Time="28" Value="G2" Duration="2" Instrument="blank" Arpeggio="Arp 0C" Volume="6"
				Note Time="30" Value="E2" Duration="2" Instrument="blank" Arpeggio="Arp 0C"
				Note Time="31" Volume="4"
				Note Time="32" Value="E3" Duration="4" Instrument="blank" Arpeggio="Arp 0C" Volume="6"
				Note Time="35" Volume="4"
				Note Time="36" Value="D3" Duration="2" Instrument="blank" Arpeggio="Arp 0C" Volume="6"
				Note Time="38" Value="B2" Duration="2" Instrument="blank" Arpeggio="Arp 0C"
				Note Time="39" Volume="4"
				Note Time="40" Value="G2" Duration="2" Instrument="blank" Arpeggio="Arp 0C" Volume="6"
				Note Time="42" Value="B2" Duration="2" Instrument="blank" Arpeggio="Arp 0C"
				Note Time="43" Volume="4"
				Note Time="44" Value="C3" Duration="2" Instrument="blank" Arpeggio="Arp 0C" Volume="6"
				Note Time="46" Value="G2" Duration="2" Instrument="blank" Arpeggio="Arp 0C"
				Note Time="47" Volume="4"
				Note Time="48" Value="D3" Duration="8" Instrument="blank" Arpeggio="Arp 0C" Volume="6"
				Note Time="51" Volume="4"
				Note Time="52" Volume="6"
				Note Time="55" Volume="4"
				Note Time="56" Value="E3" Duration="4" Instrument="blank" Arpeggio="Arp 0C" Volume="6"
				Note Time="59" Volume="4"
				Note Time="60" Value="D3" Duration="4" Instrument="blank" Arpeggio="Arp 0C" Volume="6"
				Note Time="63" Volume="4"
			Pattern Name="04" Color="fffc69"
				Note Time="0" Value="E3" Duration="4" Instrument="blank" Arpeggio="Arp 0C" Volume="6"
				Note Time="3" Volume="4"
				Note Time="4" Value="D3" Duration="2" Instrument="blank" Arpeggio="Arp 0C" Volume="6"
				Note Time="6" Value="G3" Duration="2" Instrument="DMC: drums + bass" Arpeggio="Arp 0C"
				Note Time="7" Volume="4"
				Note Time="8" Value="E3" Duration="4" Instrument="blank" Arpeggio="Arp 0C" Volume="6"
				Note Time="11" Volume="4"
				Note Time="12" Value="D3" Duration="2" Instrument="blank" Arpeggio="Arp 0C" Volume="6"
				Note Time="14" Value="B2" Duration="2" Instrument="blank" Arpeggio="Arp 0C"
				Note Time="15" Volume="4"
				Note Time="16" Value="B2" Duration="4" Instrument="blank" Arpeggio="Arp 0C" Volume="6"
				Note Time="19" Volume="4"
				Note Time="20" Value="G2" Duration="2" Instrument="blank" Arpeggio="Arp 0C" Volume="6"
				Note Time="22" Value="E2" Duration="2" Instrument="blank" Arpeggio="Arp 0C"
				Note Time="23" Volume="4"
				Note Time="24" Value="B2" Duration="4" Instrument="blank" Arpeggio="Arp 0C" Volume="6"
				Note Time="27" Volume="4"
				Note Time="28" Value="G2" Duration="2" Instrument="blank" Arpeggio="Arp 0C" Volume="6"
				Note Time="30" Value="E2" Duration="2" Instrument="blank" Arpeggio="Arp 0C"
				Note Time="31" Volume="4"
				Note Time="32" Value="E3" Duration="4" Instrument="blank" Arpeggio="Arp 0C" Volume="6"
				Note Time="35" Volume="4"
				Note Time="36" Value="D3" Duration="2" Instrument="blank" Arpeggio="Arp 0C" Volume="6"
				Note Time="38" Value="B2" Duration="2" Instrument="blank" Arpeggio="Arp 0C"
				Note Time="39" Volume="4"
				Note Time="40" Value="G2" Duration="2" Instrument="blank" Arpeggio="Arp 0C" Volume="6"
				Note Time="42" Value="B2" Duration="2" Instrument="blank" Arpeggio="Arp 0C"
				Note Time="43" Volume="4"
				Note Time="44" Value="C3" Duration="2" Instrument="blank" Arpeggio="Arp 0C" Volume="6"
				Note Time="46" Value="G2" Duration="2" Instrument="blank" Arpeggio="Arp 0C"
				Note Time="47" Volume="4"
				Note Time="48" Value="D3" Duration="8" Instrument="blank" Arpeggio="Arp 0C" Volume="6"
				Note Time="51" Volume="4"
				Note Time="52" Volume="6"
				Note Time="55" Volume="4"
				Note Time="56" Value="E3" Duration="4" Instrument="blank" Arpeggio="Arp 0C" Volume="6"
				Note Time="59" Volume="4"
				Note Time="60" Value="D3" Duration="4" Instrument="blank" Arpeggio="Arp 0C" Volume="6"
				Note Time="63" Volume="4"
			Pattern Name="06" Color="3ca598"
				Note Time="0" Value="E3" Duration="4" Instrument="blank" Arpeggio="Arp 0C" Volume="6"
				Note Time="3" Volume="4"
				Note Time="4" Value="D3" Duration="2" Instrument="blank" Arpeggio="Arp 0C" Volume="6"
				Note Time="6" Value="B2" Duration="2" Instrument="blank" Arpeggio="Arp 0C"
				Note Time="7" Volume="4"
				Note Time="8" Value="E3" Duration="4" Instrument="blank" Arpeggio="Arp 0C" Volume="6"
				Note Time="11" Volume="4"
				Note Time="12" Value="D3" Duration="2" Instrument="blank" Arpeggio="Arp 0C" Volume="5"
				Note Time="14" Value="B2" Duration="2" Instrument="blank" Arpeggio="Arp 0C"
				Note Time="15" Volume="3"
				Note Time="16" Value="B2" Duration="4" Instrument="blank" Arpeggio="Arp 0C" Volume="5"
				Note Time="19" Volume="3"
				Note Time="20" Value="G2" Duration="2" Instrument="blank" Arpeggio="Arp 0C" Volume="5"
				Note Time="22" Value="E2" Duration="2" Instrument="blank" Arpeggio="Arp 0C"
				Note Time="23" Volume="3"
				Note Time="24" Value="B2" Duration="4" Instrument="blank" Arpeggio="Arp 0C" Volume="4"
				Note Time="27" Volume="3"
				Note Time="28" Value="G2" Duration="2" Instrument="blank" Arpeggio="Arp 0C" Volume="4"
				Note Time="30" Value="E2" Duration="2" Instrument="blank" Arpeggio="Arp 0C"
				Note Time="31" Volume="3"
				Note Time="32" Value="E3" Duration="4" Instrument="blank" Arpeggio="Arp 0C" Volume="4"
				Note Time="35" Volume="2"
				Note Time="36" Value="D3" Duration="2" Instrument="blank" Arpeggio="Arp 0C" Volume="3"
				Note Time="38" Value="B2" Duration="2" Instrument="blank" Arpeggio="Arp 0C"
				Note Time="39" Volume="2"
				Note Time="40" Value="G2" Duration="2" Instrument="blank" Arpeggio="Arp 0C" Volume="3"
				Note Time="42" Value="B2" Duration="2" Instrument="blank" Arpeggio="Arp 0C"
				Note Time="43" Volume="1"
				Note Time="44" Value="C3" Duration="2" Instrument="blank" Arpeggio="Arp 0C" Volume="2"
				Note Time="46" Value="G2" Duration="2" Instrument="blank" Arpeggio="Arp 0C"
				Note Time="47" Volume="1"
				Note Time="48" Value="D3" Duration="8" Instrument="blank" Arpeggio="Arp 0C" Volume="2"
				Note Time="51" Volume="1"
				Note Time="52" Volume="2"
				Note Time="55" Volume="0"
				Note Time="56" Value="E3" Duration="4" Instrument="blank" Arpeggio="Arp 0C" Volume="1"
				Note Time="59" Volume="0"
				Note Time="60" Value="D3" Duration="4" Instrument="blank" Arpeggio="Arp 0C" Volume="1"
				Note Time="63" Volume="0"
			PatternInstance Time="0" Pattern="00"
			PatternInstance Time="1" Pattern="00"
			PatternInstance Time="2" Pattern="01"
			PatternInstance Time="3" Pattern="01"
			PatternInstance Time="4" Pattern="02"
			PatternInstance Time="5" Pattern="01"
			PatternInstance Time="6" Pattern="01"
			PatternInstance Time="7" Pattern="01"
			PatternInstance Time="8" Pattern="01"
			PatternInstance Time="9" Pattern="02"
			PatternInstance Time="10" Pattern="03"
			PatternInstance Time="11" Pattern="04"
			PatternInstance Time="12" Pattern="03"
			PatternInstance Time="13" Pattern="06"
		Channel Type="Square2"
			Pattern Name="00" Color="b5c2ff"
				Note Time="0" Value="E2" Duration="16" Instrument="blank" Volume="3" FinePitch="-1"
				Note Time="16" Value="B1" Duration="16" Instrument="blank"
				Note Time="32" Value="C2" Duration="16" Instrument="blank"
				Note Time="48" Value="D2" Duration="16" Instrument="blank"
			Pattern Name="01" Color="ff8f8c"
				Note Time="0" Value="E1" Duration="4" Instrument="blank" Volume="5" FinePitch="-1"
				Note Time="4" Value="E1" Duration="4" Instrument="blank"
				Note Time="8" Value="E1" Duration="4" Instrument="blank"
				Note Time="12" Value="E1" Duration="4" Instrument="blank"
				Note Time="16" Value="B0" Duration="4" Instrument="blank"
				Note Time="20" Value="B0" Duration="4" Instrument="blank"
				Note Time="24" Value="B0" Duration="4" Instrument="blank"
				Note Time="28" Value="B0" Duration="4" Instrument="blank"
				Note Time="32" Value="C1" Duration="4" Instrument="blank"
				Note Time="36" Value="C1" Duration="4" Instrument="blank"
				Note Time="40" Value="C1" Duration="4" Instrument="blank"
				Note Time="44" Value="C1" Duration="4" Instrument="blank"
				Note Time="48" Value="C1" Duration="4" Instrument="blank"
				Note Time="52" Value="C1" Duration="4" Instrument="blank"
				Note Time="56" Value="D1" Duration="4" Instrument="blank"
				Note Time="60" Value="D1" Duration="4" Instrument="blank"
			Pattern Name="02" Color="ffff64"
				Note Time="0" Value="D1" Duration="4" Instrument="blank"
				Note Time="4" Value="D1" Duration="4" Instrument="blank"
				Note Time="8" Value="D1" Duration="4" Instrument="blank" Volume="4"
				Note Time="12" Value="D1" Duration="4" Instrument="blank"
			Pattern Name="03" Color="88eb8c"
				Note Time="0" Value="E1" Duration="4" Instrument="blank" Volume="5" FinePitch="-1"
				Note Time="4" Value="E3" Duration="2" Instrument="blank" Arpeggio="Arp C0"
				Note Time="6" Value="E1" Duration="2" Instrument="blank"
				Note Time="8" Value="E1" Duration="4" Instrument="blank"
				Note Time="12" Value="E3" Duration="2" Instrument="blank" Arpeggio="Arp C0"
				Note Time="14" Value="E1" Duration="2" Instrument="blank"
				Note Time="16" Value="B0" Duration="4" Instrument="blank"
				Note Time="20" Value="B2" Duration="2" Instrument="blank" Arpeggio="Arp C0"
				Note Time="22" Value="B0" Duration="2" Instrument="blank"
				Note Time="24" Value="B0" Duration="4" Instrument="blank"
				Note Time="28" Value="B2" Duration="2" Instrument="blank" Arpeggio="Arp C0"
				Note Time="30" Value="B0" Duration="2" Instrument="blank"
				Note Time="32" Value="C1" Duration="4" Instrument="blank"
				Note Time="36" Value="C3" Duration="2" Instrument="blank" Arpeggio="Arp C0"
				Note Time="38" Value="C1" Duration="2" Instrument="blank"
				Note Time="40" Value="C1" Duration="4" Instrument="blank"
				Note Time="44" Value="C3" Duration="2" Instrument="blank" Arpeggio="Arp C0"
				Note Time="46" Value="C1" Duration="2" Instrument="blank"
				Note Time="48" Value="C1" Duration="4" Instrument="blank"
				Note Time="52" Value="C3" Duration="2" Instrument="blank" Arpeggio="Arp C0"
				Note Time="54" Value="C1" Duration="2" Instrument="blank"
				Note Time="56" Value="D1" Duration="4" Instrument="blank"
				Note Time="60" Value="D3" Duration="2" Instrument="blank" Arpeggio="Arp C0"
				Note Time="62" Value="D1" Duration="2" Instrument="blank"
			Pattern Name="04" Color="5ac4ff"
				Note Time="0" Value="E1" Duration="4" Instrument="blank" Volume="5" FinePitch="-1"
				Note Time="4" Value="E3" Duration="2" Instrument="blank" Arpeggio="Arp C0"
				Note Time="6" Value="E1" Duration="2" Instrument="blank"
				Note Time="8" Value="E1" Duration="4" Instrument="blank"
				Note Time="12" Value="E3" Duration="2" Instrument="blank" Arpeggio="Arp C0" Volume="4"
				Note Time="14" Value="E1" Duration="2" Instrument="blank"
				Note Time="16" Value="B0" Duration="4" Instrument="blank"
				Note Time="20" Value="B2" Duration="2" Instrument="blank" Arpeggio="Arp C0"
				Note Time="22" Value="B0" Duration="2" Instrument="blank"
				Note Time="24" Value="B0" Duration="4" Instrument="blank" Volume="3"
				Note Time="28" Value="B2" Duration="2" Instrument="blank" Arpeggio="Arp C0"
				Note Time="30" Value="B0" Duration="2" Instrument="blank"
				Note Time="32" Value="C1" Duration="4" Instrument="blank"
				Note Time="36" Value="C3" Duration="2" Instrument="blank" Arpeggio="Arp C0" Volume="2"
				Note Time="38" Value="C1" Duration="2" Instrument="blank"
				Note Time="40" Value="C1" Duration="4" Instrument="blank"
				Note Time="44" Value="C3" Duration="2" Instrument="blank" Arpeggio="Arp C0"
				Note Time="46" Value="C1" Duration="2" Instrument="blank"
				Note Time="48" Value="C1" Duration="4" Instrument="blank"
				Note Time="52" Value="C3" Duration="2" Instrument="blank" Arpeggio="Arp C0" Volume="1"
				Note Time="54" Value="C1" Duration="2" Instrument="blank"
				Note Time="56" Value="D1" Duration="4" Instrument="blank"
				Note Time="60" Value="D3" Duration="2" Instrument="blank" Arpeggio="Arp C0"
				Note Time="62" Value="D1" Duration="2" Instrument="blank"
			PatternInstance Time="0" Pattern="00"
			PatternInstance Time="1" Pattern="00"
			PatternInstance Time="2" Pattern="01"
			PatternInstance Time="3" Pattern="01"
			PatternInstance Time="4" Pattern="02"
			PatternInstance Time="5" Pattern="01"
			PatternInstance Time="6" Pattern="01"
			PatternInstance Time="7" Pattern="03"
			PatternInstance Time="8" Pattern="03"
			PatternInstance Time="9" Pattern="02"
			PatternInstance Time="10" Pattern="03"
			PatternInstance Time="11" Pattern="03"
			PatternInstance Time="12" Pattern="03"
			PatternInstance Time="13" Pattern="04"
		Channel Type="Triangle"
			Pattern Name="00" Color="fe5497"
				Note Time="0" Value="E2" Duration="16" Instrument="DMC: drums + bass"
				Note Time="16" Value="B1" Duration="16" Instrument="DMC: drums + bass"
				Note Time="32" Value="C2" Duration="24" Instrument="DMC: drums + bass"
				Note Time="56" Value="D2" Duration="8" Instrument="DMC: drums + bass"
			Pattern Name="01" Color="ffb83c"
				Note Time="0" Value="E1" Duration="16" Instrument="DMC: drums + bass"
				Note Time="16" Value="B0" Duration="16" Instrument="DMC: drums + bass"
				Note Time="32" Value="C1" Duration="24" Instrument="DMC: drums + bass"
				Note Time="56" Value="D1" Duration="8" Instrument="sample"
			Pattern Name="03" Color="91c76b"
				Note Time="0" Value="D3" Duration="1" Instrument="triangle drums"
				Note Time="1" Value="D2" Duration="2" Instrument="blank" SlideTarget="G1"
				Note Time="3" Value="G1" Duration="9" Instrument="blank" SlideTarget="A#0" Attack="False"
			Pattern Name="04" Color="8bffff"
				Note Time="0" Value="E2" Duration="16" Instrument="DMC: drums + bass"
				Note Time="16" Value="B1" Duration="16" Instrument="DMC: drums + bass"
				Note Time="32" Value="C2" Duration="24" Instrument="DMC: drums + bass"
				Note Time="56" Value="D2" Duration="8" Instrument="DMC: drums + bass"
			PatternInstance Time="0" Pattern="00"
			PatternInstance Time="1" Pattern="00"
			PatternInstance Time="2" Pattern="01"
			PatternInstance Time="3" Pattern="01"
			PatternInstance Time="4" Pattern="03"
			PatternInstance Time="5" Pattern="04"
			PatternInstance Time="6" Pattern="04"
			PatternInstance Time="7" Pattern="04"
			PatternInstance Time="8" Pattern="04"
			PatternInstance Time="9" Pattern="03"
			PatternInstance Time="10" Pattern="04"
			PatternInstance Time="11" Pattern="04"
			PatternInstance Time="12" Pattern="04"
			PatternInstance Time="13" Pattern="04"
		Channel Type="Noise"
			Pattern Name="01" Color="ffac7f"
				Note Time="32" Value="G3" Duration="32" Instrument="DMC: drums + bass" Volume="1"
				Note Time="44" Volume="2"
				Note Time="51" Volume="3"
				Note Time="56" Volume="4"
				Note Time="58" Volume="5"
				Note Time="59" Volume="6"
				Note Time="60" Volume="7"
				Note Time="61" Volume="8"
				Note Time="62" Volume="9"
				Note Time="63" Volume="10"
			Pattern Name="02" Color="ffff75"
				Note Time="0" Value="F#3" Duration="4" Instrument="DMC: drums + bass"
				Note Time="1" Volume="9"
				Note Time="2" Volume="8"
				Note Time="3" Volume="7"
				Note Time="4" Value="F3" Duration="4" Instrument="DMC: drums + bass" Volume="6"
				Note Time="6" Volume="5"
				Note Time="8" Value="E3" Duration="4" Instrument="DMC: drums + bass" Volume="4"
				Note Time="12" Value="D#3" Duration="4" Instrument="DMC: drums + bass" Volume="3"
				Note Time="16" Value="D#3" Duration="4" Instrument="DMC: drums + bass" Volume="2"
				Note Time="20" Value="D#3" Duration="1" Instrument="Instrument 2" Volume="7"
				Note Time="21" Value="D#3" Duration="1" Instrument="Instrument 2" Volume="5"
				Note Time="22" Value="D#3" Duration="1" Instrument="Instrument 2"
				Note Time="23" Value="D#3" Duration="1" Instrument="Instrument 2"
				Note Time="24" Value="D#3" Duration="1" Instrument="Instrument 2" Volume="7"
				Note Time="25" Value="D#3" Duration="1" Instrument="Instrument 2" Volume="5"
				Note Time="26" Value="D#3" Duration="1" Instrument="Instrument 2"
				Note Time="27" Value="D#3" Duration="1" Instrument="Instrument 2"
				Note Time="28" Value="D#3" Duration="1" Instrument="Instrument 2" Volume="7"
				Note Time="29" Value="D#3" Duration="1" Instrument="Instrument 2" Volume="5"
				Note Time="30" Value="D#3" Duration="1" Instrument="Instrument 2"
				Note Time="31" Value="D#3" Duration="1" Instrument="Instrument 2"
				Note Time="32" Value="D#3" Duration="1" Instrument="Instrument 2" Volume="7"
				Note Time="33" Value="D#3" Duration="1" Instrument="Instrument 2" Volume="5"
				Note Time="34" Value="D#3" Duration="1" Instrument="Instrument 2"
				Note Time="35" Value="D#3" Duration="1" Instrument="Instrument 2"
				Note Time="36" Value="D#3" Duration="1" Instrument="Instrument 2" Volume="7"
				Note Time="37" Value="D#3" Duration="1" Instrument="Instrument 2" Volume="5"
				Note Time="38" Value="D#3" Duration="1" Instrument="Instrument 2"
				Note Time="39" Value="D#3" Duration="1" Instrument="Instrument 2"
				Note Time="40" Value="D#3" Duration="1" Instrument="Instrument 2" Volume="7"
				Note Time="41" Value="D#3" Duration="1" Instrument="Instrument 2" Volume="5"
				Note Time="42" Value="D#3" Duration="1" Instrument="Instrument 2"
				Note Time="43" Value="D#3" Duration="1" Instrument="Instrument 2"
				Note Time="44" Value="D#3" Duration="1" Instrument="Instrument 2" Volume="7"
				Note Time="45" Value="D#3" Duration="1" Instrument="Instrument 2" Volume="5"
				Note Time="46" Value="D#3" Duration="1" Instrument="Instrument 2"
				Note Time="47" Value="D#3" Duration="1" Instrument="Instrument 2"
				Note Time="48" Value="D#3" Duration="1" Instrument="Instrument 2" Volume="7"
				Note Time="49" Value="D#3" Duration="1" Instrument="Instrument 2" Volume="5"
				Note Time="50" Value="D#3" Duration="1" Instrument="Instrument 2"
				Note Time="51" Value="D#3" Duration="1" Instrument="Instrument 2"
				Note Time="52" Value="D#3" Duration="1" Instrument="Instrument 2" Volume="7"
				Note Time="53" Value="D#3" Duration="1" Instrument="Instrument 2" Volume="5"
				Note Time="54" Value="D#3" Duration="1" Instrument="Instrument 2"
				Note Time="55" Value="D#3" Duration="1" Instrument="Instrument 2"
				Note Time="56" Value="D#3" Duration="1" Instrument="Instrument 2" Volume="7"
				Note Time="57" Value="D#3" Duration="1" Instrument="Instrument 2" Volume="5"
				Note Time="58" Value="D#3" Duration="1" Instrument="Instrument 2"
				Note Time="59" Value="D#3" Duration="1" Instrument="Instrument 2"
				Note Time="60" Value="D#3" Duration="1" Instrument="Instrument 2" Volume="7"
				Note Time="61" Value="D#3" Duration="1" Instrument="Instrument 2" Volume="5"
				Note Time="62" Value="D#3" Duration="1" Instrument="Instrument 2"
				Note Time="63" Value="D#3" Duration="1" Instrument="Instrument 2"
			Pattern Name="03" Color="3ce8fd"
				Note Time="0" Value="D#3" Duration="1" Instrument="Instrument 2" Volume="8"
				Note Time="1" Value="D#3" Duration="1" Instrument="Instrument 2" Volume="6"
				Note Time="2" Value="D#3" Duration="1" Instrument="Instrument 2"
				Note Time="3" Value="D#3" Duration="1" Instrument="Instrument 2"
				Note Time="4" Value="D#3" Duration="1" Instrument="Instrument 2" Volume="8"
				Note Time="5" Value="D#3" Duration="1" Instrument="Instrument 2" Volume="6"
				Note Time="6" Value="D#3" Duration="1" Instrument="Instrument 2"
				Note Time="7" Value="D#3" Duration="1" Instrument="Instrument 2"
				Note Time="8" Value="D#3" Duration="1" Instrument="Instrument 2" Volume="9"
				Note Time="9" Value="D#3" Duration="1" Instrument="Instrument 2" Volume="7"
				Note Time="10" Value="D#3" Duration="1" Instrument="Instrument 2"
				Note Time="11" Value="D#3" Duration="1" Instrument="Instrument 2"
				Note Time="12" Value="D#3" Duration="1" Instrument="Instrument 2" Volume="9"
				Note Time="13" Value="D#3" Duration="1" Instrument="Instrument 2" Volume="7"
				Note Time="14" Value="D#3" Duration="1" Instrument="Instrument 2"
				Note Time="15" Value="D#3" Duration="1" Instrument="Instrument 2"
				Note Time="16" Value="E3" Duration="1" Instrument="Instrument 2" Volume="10"
				Note Time="17" Value="E3" Duration="1" Instrument="Instrument 2" Volume="8"
				Note Time="18" Value="E3" Duration="1" Instrument="Instrument 2"
				Note Time="19" Value="E3" Duration="1" Instrument="Instrument 2"
				Note Time="20" Value="E3" Duration="1" Instrument="Instrument 2" Volume="10"
				Note Time="21" Value="E3" Duration="1" Instrument="Instrument 2" Volume="8"
				Note Time="22" Value="E3" Duration="1" Instrument="Instrument 2"
				Note Time="23" Value="E3" Duration="1" Instrument="Instrument 2"
				Note Time="24" Value="E3" Duration="1" Instrument="Instrument 2" Volume="10"
				Note Time="25" Value="E3" Duration="1" Instrument="Instrument 2" Volume="8"
				Note Time="26" Value="E3" Duration="1" Instrument="Instrument 2"
				Note Time="27" Value="E3" Duration="1" Instrument="Instrument 2"
				Note Time="28" Value="E3" Duration="1" Instrument="Instrument 2" Volume="10"
				Note Time="29" Value="E3" Duration="1" Instrument="Instrument 2" Volume="8"
				Note Time="30" Value="E3" Duration="1" Instrument="Instrument 2"
				Note Time="31" Value="E3" Duration="1" Instrument="Instrument 2"
				Note Time="32" Value="E3" Duration="1" Instrument="Instrument 2" Volume="11"
				Note Time="33" Value="E3" Duration="1" Instrument="Instrument 2" Volume="9"
				Note Time="34" Value="E3" Duration="1" Instrument="Instrument 2"
				Note Time="35" Value="E3" Duration="1" Instrument="Instrument 2"
				Note Time="36" Value="F3" Duration="1" Instrument="Instrument 2" Volume="11"
				Note Time="37" Value="F3" Duration="1" Instrument="Instrument 2" Volume="9"
				Note Time="38" Value="F3" Duration="1" Instrument="Instrument 2"
				Note Time="39" Value="F3" Duration="1" Instrument="Instrument 2"
				Note Time="40" Value="F3" Duration="1" Instrument="Instrument 2" Volume="12"
				Note Time="41" Value="F3" Duration="1" Instrument="Instrument 2" Volume="10"
				Note Time="42" Value="F3" Duration="1" Instrument="Instrument 2"
				Note Time="43" Value="F3" Duration="1" Instrument="Instrument 2"
				Note Time="44" Value="F3" Duration="1" Instrument="Instrument 2" Volume="12"
				Note Time="45" Value="F3" Duration="1" Instrument="Instrument 2" Volume="10"
				Note Time="46" Value="F3" Duration="1" Instrument="Instrument 2"
				Note Time="47" Value="F3" Duration="1" Instrument="Instrument 2"
				Note Time="48" Value="F#3" Duration="1" Instrument="Instrument 2" Volume="13"
				Note Time="49" Value="F#3" Duration="1" Instrument="Instrument 2" Volume="11"
				Note Time="50" Value="F#3" Duration="1" Instrument="Instrument 2"
				Note Time="51" Value="F#3" Duration="1" Instrument="Instrument 2"
				Note Time="52" Value="F#3" Duration="1" Instrument="Instrument 2" Volume="13"
				Note Time="53" Value="F#3" Duration="1" Instrument="Instrument 2" Volume="11"
				Note Time="54" Value="F#3" Duration="1" Instrument="Instrument 2"
				Note Time="55" Value="F#3" Duration="1" Instrument="Instrument 2"
				Note Time="56" Value="G3" Duration="1" Instrument="Instrument 2" Volume="14"
				Note Time="57" Value="G3" Duration="1" Instrument="Instrument 2" Volume="12"
				Note Time="58" Value="G3" Duration="1" Instrument="Instrument 2"
				Note Time="59" Value="G3" Duration="1" Instrument="Instrument 2"
				Note Time="60" Value="G3" Duration="1" Instrument="Instrument 2" Volume="15"
				Note Time="61" Value="G3" Duration="1" Instrument="Instrument 2" Volume="13"
				Note Time="62" Value="G3" Duration="1" Instrument="Instrument 2" Volume="14"
				Note Time="63" Value="G3" Duration="1" Instrument="Instrument 2"
			Pattern Name="04" Color="8d69e4"
				Note Time="0" Value="G3" Duration="1" Instrument="rel hats" Volume="15"
				Note Time="1" Value="F#3" Duration="5" Instrument="DMC: drums + bass" Volume="3"
				Note Time="5" Volume="2"
				Note Time="6" Value="G#2" Duration="2" Instrument="snare" Volume="7"
				Note Time="8" Value="G#2" Duration="1" Instrument="snare"
				Note Time="9" Value="G#2" Duration="2" Instrument="snare"
				Note Time="10" Volume="9"
				Note Time="11" Value="G#2" Duration="1" Instrument="snare"
				Note Time="12" Value="F#3" Duration="1" Instrument="kick"
				Note Time="13" Value="G#2" Duration="1" Instrument="snare" Volume="10"
				Note Time="14" Value="G#2" Duration="1" Instrument="snare"
				Note Time="15" Value="G#2" Duration="1" Instrument="snare"
			Pattern Name="08" Color="997c73"
				Note Time="0" Value="G3" Duration="1" Instrument="rel hats" Volume="15"
				Note Time="1" Value="F#3" Duration="3" Instrument="DMC: drums + bass" Volume="5"
				Note Time="4" Value="F3" Duration="4" Instrument="DMC: drums + bass" Volume="6"
				Note Time="8" Value="E3" Duration="2" Instrument="DMC: drums + bass" Volume="4"
				Note Time="10" Value="G3" Duration="1" Instrument="rel hats" Volume="15"
				Note Time="11" Value="G3" Duration="1" Instrument="rel hats" Volume="11"
				Note Time="12" Value="D#3" Duration="2" Instrument="DMC: drums + bass" Volume="3"
				Note Time="14" Value="G3" Duration="1" Instrument="rel hats" Volume="15"
				Note Time="15" Value="G3" Duration="1" Instrument="rel hats" Volume="11"
				Note Time="16" Value="D#3" Duration="2" Instrument="DMC: drums + bass" Volume="2"
				Note Time="18" Value="G3" Duration="1" Instrument="rel hats" Volume="15"
				Note Time="19" Value="G3" Duration="1" Instrument="rel hats" Volume="11"
				Note Time="20" Value="G2" Duration="2" Instrument="kick" Volume="8"
				Note Time="22" Value="G3" Duration="1" Instrument="rel hats" Volume="15"
				Note Time="23" Value="G3" Duration="1" Instrument="rel hats" Volume="11"
				Note Time="24" Value="G2" Duration="2" Instrument="kick" Volume="12"
				Note Time="26" Value="G3" Duration="1" Instrument="rel hats" Volume="15"
				Note Time="27" Value="G3" Duration="1" Instrument="rel hats" Volume="11"
				Note Time="28" Value="G2" Duration="2" Instrument="kick" Volume="14"
				Note Time="30" Value="G3" Duration="1" Instrument="rel hats" Volume="15"
				Note Time="31" Value="G3" Duration="1" Instrument="rel hats" Volume="11"
				Note Time="32" Value="G2" Duration="2" Instrument="kick" Volume="15"
				Note Time="34" Value="G3" Duration="1" Instrument="rel hats"
				Note Time="35" Value="G3" Duration="1" Instrument="rel hats" Volume="11"
				Note Time="36" Value="G2" Duration="2" Instrument="kick" Volume="15"
				Note Time="38" Value="G3" Duration="1" Instrument="rel hats"
				Note Time="39" Value="G3" Duration="1" Instrument="rel hats" Volume="11"
				Note Time="40" Value="G2" Duration="2" Instrument="kick" Volume="15"
				Note Time="42" Value="G3" Duration="1" Instrument="rel hats"
				Note Time="43" Value="G3" Duration="1" Instrument="rel hats" Volume="11"
				Note Time="44" Value="G2" Duration="2" Instrument="kick" Volume="15"
				Note Time="46" Value="G3" Duration="1" Instrument="rel hats"
				Note Time="47" Value="G3" Duration="1" Instrument="rel hats" Volume="11"
				Note Time="48" Value="G2" Duration="2" Instrument="kick" Volume="15"
				Note Time="50" Value="G3" Duration="1" Instrument="rel hats"
				Note Time="51" Value="G3" Duration="1" Instrument="rel hats" Volume="11"
				Note Time="52" Value="G2" Duration="2" Instrument="kick" Volume="15"
				Note Time="54" Value="G3" Duration="1" Instrument="rel hats"
				Note Time="55" Value="G3" Duration="1" Instrument="rel hats" Volume="11"
				Note Time="56" Value="G2" Duration="2" Instrument="kick" Volume="15"
				Note Time="58" Value="G3" Duration="1" Instrument="rel hats"
				Note Time="59" Value="G3" Duration="1" Instrument="rel hats" Volume="11"
				Note Time="60" Value="G2" Duration="2" Instrument="kick" Volume="15"
				Note Time="62" Value="G3" Duration="1" Instrument="rel hats"
				Note Time="63" Value="G3" Duration="1" Instrument="rel hats" Volume="11"
			Pattern Name="09" Color="ffe461"
				Note Time="0" Value="G2" Duration="2" Instrument="kick" Volume="15"
				Note Time="2" Value="G3" Duration="1" Instrument="rel hats"
				Note Time="3" Value="G3" Duration="1" Instrument="rel hats" Volume="11"
				Note Time="4" Value="G2" Duration="2" Instrument="kick" Volume="15"
				Note Time="6" Value="G3" Duration="1" Instrument="rel hats"
				Note Time="7" Value="G3" Duration="1" Instrument="rel hats" Volume="11"
				Note Time="8" Value="G2" Duration="2" Instrument="kick" Volume="15"
				Note Time="10" Value="G3" Duration="1" Instrument="rel hats"
				Note Time="11" Value="G3" Duration="1" Instrument="rel hats" Volume="11"
				Note Time="12" Value="G2" Duration="2" Instrument="kick" Volume="15"
				Note Time="14" Value="G3" Duration="1" Instrument="rel hats"
				Note Time="15" Value="G3" Duration="1" Instrument="rel hats" Volume="11"
				Note Time="16" Value="G2" Duration="2" Instrument="kick" Volume="15"
				Note Time="18" Value="G3" Duration="1" Instrument="rel hats"
				Note Time="19" Value="G3" Duration="1" Instrument="rel hats" Volume="11"
				Note Time="20" Value="G2" Duration="2" Instrument="kick" Volume="15"
				Note Time="22" Value="G3" Duration="1" Instrument="rel hats"
				Note Time="23" Value="G3" Duration="1" Instrument="rel hats" Volume="11"
				Note Time="24" Value="G2" Duration="2" Instrument="kick" Volume="15"
				Note Time="26" Value="G3" Duration="1" Instrument="rel hats"
				Note Time="27" Value="G3" Duration="1" Instrument="rel hats" Volume="11"
				Note Time="28" Value="G2" Duration="2" Instrument="kick" Volume="15"
				Note Time="30" Value="G3" Duration="1" Instrument="rel hats"
				Note Time="31" Value="G3" Duration="1" Instrument="rel hats" Volume="11"
				Note Time="32" Value="G2" Duration="2" Instrument="kick" Volume="15"
				Note Time="34" Value="G3" Duration="1" Instrument="rel hats"
				Note Time="35" Value="G3" Duration="1" Instrument="rel hats" Volume="11"
				Note Time="36" Value="G2" Duration="2" Instrument="kick" Volume="15"
				Note Time="38" Value="G3" Duration="1" Instrument="rel hats"
				Note Time="39" Value="G3" Duration="1" Instrument="rel hats" Volume="11"
				Note Time="40" Value="G2" Duration="2" Instrument="kick" Volume="15"
				Note Time="42" Value="G3" Duration="1" Instrument="rel hats"
				Note Time="43" Value="G3" Duration="1" Instrument="rel hats" Volume="11"
				Note Time="44" Value="G2" Duration="2" Instrument="kick" Volume="15"
				Note Time="46" Value="G3" Duration="1" Instrument="rel hats"
				Note Time="47" Value="G3" Duration="1" Instrument="rel hats" Volume="11"
				Note Time="48" Value="G2" Duration="2" Instrument="kick" Volume="15"
				Note Time="50" Value="G3" Duration="1" Instrument="rel hats"
				Note Time="51" Value="G3" Duration="1" Instrument="rel hats" Volume="11"
				Note Time="52" Value="G2" Duration="2" Instrument="kick" Volume="15"
				Note Time="54" Value="G3" Duration="1" Instrument="rel hats"
				Note Time="55" Value="G3" Duration="1" Instrument="rel hats" Volume="11"
				Note Time="56" Value="G2" Duration="2" Instrument="kick" Volume="15"
				Note Time="58" Value="G3" Duration="1" Instrument="rel hats"
				Note Time="59" Value="G3" Duration="1" Instrument="rel hats" Volume="11"
				Note Time="60" Value="G2" Duration="2" Instrument="kick" Volume="15"
				Note Time="62" Value="G3" Duration="1" Instrument="rel hats"
				Note Time="63" Value="G3" Duration="1" Instrument="rel hats" Volume="11"
			Pattern Name="05" Color="89f2e8"
				Note Time="0" Value="G3" Duration="1" Instrument="rel hats" Volume="15"
				Note Time="1" Value="F#3" Duration="3" Instrument="DMC: drums + bass" Volume="5"
				Note Time="4" Value="F3" Duration="4" Instrument="DMC: drums + bass" Volume="6"
				Note Time="8" Value="E3" Duration="2" Instrument="DMC: drums + bass" Volume="4"
				Note Time="10" Value="G3" Duration="1" Instrument="rel hats" Volume="15"
				Note Time="11" Value="G3" Duration="1" Instrument="rel hats" Volume="11"
				Note Time="12" Value="D#3" Duration="2" Instrument="DMC: drums + bass" Volume="3"
				Note Time="14" Value="G3" Duration="1" Instrument="rel hats" Volume="15"
				Note Time="15" Value="G3" Duration="1" Instrument="rel hats" Volume="11"
				Note Time="16" Value="D#3" Duration="2" Instrument="DMC: drums + bass" Volume="2"
				Note Time="18" Value="G3" Duration="1" Instrument="rel hats" Volume="15"
				Note Time="19" Value="G3" Duration="1" Instrument="rel hats" Volume="11"
				Note Time="20" Value="G2" Duration="2" Instrument="snare" Volume="8"
				Note Time="22" Value="G3" Duration="1" Instrument="rel hats" Volume="15"
				Note Time="23" Value="G3" Duration="1" Instrument="rel hats" Volume="11"
				Note Time="24" Value="G2" Duration="2" Instrument="kick" Volume="12"
				Note Time="26" Value="G3" Duration="1" Instrument="rel hats" Volume="15"
				Note Time="27" Value="G3" Duration="1" Instrument="rel hats" Volume="11"
				Note Time="28" Value="G2" Duration="2" Instrument="snare" Volume="14"
				Note Time="30" Value="G3" Duration="1" Instrument="rel hats" Volume="15"
				Note Time="31" Value="G3" Duration="1" Instrument="rel hats" Volume="11"
				Note Time="32" Value="G2" Duration="2" Instrument="kick" Volume="15"
				Note Time="34" Value="G3" Duration="1" Instrument="rel hats"
				Note Time="35" Value="G3" Duration="1" Instrument="rel hats" Volume="11"
				Note Time="36" Value="G2" Duration="2" Instrument="snare" Volume="15"
				Note Time="38" Value="G3" Duration="1" Instrument="rel hats"
				Note Time="39" Value="G3" Duration="1" Instrument="rel hats" Volume="11"
				Note Time="40" Value="G2" Duration="2" Instrument="kick" Volume="15"
				Note Time="42" Value="G3" Duration="1" Instrument="rel hats"
				Note Time="43" Value="G3" Duration="1" Instrument="rel hats" Volume="11"
				Note Time="44" Value="G2" Duration="2" Instrument="snare" Volume="15"
				Note Time="46" Value="G3" Duration="1" Instrument="rel hats"
				Note Time="47" Value="G3" Duration="1" Instrument="rel hats" Volume="11"
				Note Time="48" Value="G2" Duration="2" Instrument="kick" Volume="15"
				Note Time="50" Value="G3" Duration="1" Instrument="rel hats"
				Note Time="51" Value="G3" Duration="1" Instrument="rel hats" Volume="11"
				Note Time="52" Value="G2" Duration="2" Instrument="snare" Volume="15"
				Note Time="54" Value="G3" Duration="1" Instrument="rel hats"
				Note Time="55" Value="G3" Duration="1" Instrument="rel hats" Volume="11"
				Note Time="56" Value="G2" Duration="2" Instrument="kick" Volume="15"
				Note Time="58" Value="G3" Duration="1" Instrument="rel hats"
				Note Time="59" Value="G3" Duration="1" Instrument="rel hats" Volume="11"
				Note Time="60" Value="G2" Duration="2" Instrument="snare" Volume="15"
				Note Time="62" Value="G3" Duration="1" Instrument="rel hats"
				Note Time="63" Value="G3" Duration="1" Instrument="rel hats" Volume="11"
			Pattern Name="06" Color="98a7fc"
				Note Time="0" Value="G2" Duration="2" Instrument="kick" Volume="15"
				Note Time="2" Value="G3" Duration="1" Instrument="rel hats"
				Note Time="3" Value="G3" Duration="1" Instrument="rel hats" Volume="11"
				Note Time="4" Value="G2" Duration="2" Instrument="snare" Volume="15"
				Note Time="6" Value="G3" Duration="1" Instrument="rel hats"
				Note Time="7" Value="G3" Duration="1" Instrument="rel hats" Volume="11"
				Note Time="8" Value="G2" Duration="2" Instrument="kick" Volume="15"
				Note Time="10" Value="G3" Duration="1" Instrument="rel hats"
				Note Time="11" Value="G3" Duration="1" Instrument="rel hats" Volume="11"
				Note Time="12" Value="G2" Duration="2" Instrument="snare" Volume="15"
				Note Time="14" Value="G3" Duration="1" Instrument="rel hats"
				Note Time="15" Value="G3" Duration="1" Instrument="rel hats" Volume="11"
				Note Time="16" Value="G2" Duration="2" Instrument="kick" Volume="15"
				Note Time="18" Value="G3" Duration="1" Instrument="rel hats"
				Note Time="19" Value="G3" Duration="1" Instrument="rel hats" Volume="11"
				Note Time="20" Value="G2" Duration="2" Instrument="snare" Volume="15"
				Note Time="22" Value="G3" Duration="1" Instrument="rel hats"
				Note Time="23" Value="G3" Duration="1" Instrument="rel hats" Volume="11"
				Note Time="24" Value="G2" Duration="2" Instrument="kick" Volume="15"
				Note Time="26" Value="G3" Duration="1" Instrument="rel hats"
				Note Time="27" Value="G3" Duration="1" Instrument="rel hats" Volume="11"
				Note Time="28" Value="G2" Duration="2" Instrument="snare" Volume="15"
				Note Time="30" Value="G3" Duration="1" Instrument="rel hats"
				Note Time="31" Value="G3" Duration="1" Instrument="rel hats" Volume="11"
				Note Time="32" Value="G2" Duration="2" Instrument="kick" Volume="15"
				Note Time="34" Value="G3" Duration="1" Instrument="rel hats"
				Note Time="35" Value="G3" Duration="1" Instrument="rel hats" Volume="11"
				Note Time="36" Value="G2" Duration="2" Instrument="snare" Volume="15"
				Note Time="38" Value="G3" Duration="1" Instrument="rel hats"
				Note Time="39" Value="G3" Duration="1" Instrument="rel hats" Volume="11"
				Note Time="40" Value="G2" Duration="2" Instrument="kick" Volume="15"
				Note Time="42" Value="G3" Duration="1" Instrument="rel hats"
				Note Time="43" Value="G3" Duration="1" Instrument="rel hats" Volume="11"
				Note Time="44" Value="G2" Duration="2" Instrument="snare" Volume="15"
				Note Time="46" Value="G3" Duration="1" Instrument="rel hats"
				Note Time="47" Value="G3" Duration="1" Instrument="rel hats" Volume="11"
				Note Time="48" Value="G2" Duration="2" Instrument="kick" Volume="15"
				Note Time="50" Value="G3" Duration="1" Instrument="rel hats"
				Note Time="51" Value="G3" Duration="1" Instrument="rel hats" Volume="11"
				Note Time="52" Value="G2" Duration="2" Instrument="snare" Volume="15"
				Note Time="54" Value="G3" Duration="1" Instrument="rel hats"
				Note Time="55" Value="G3" Duration="1" Instrument="rel hats" Volume="11"
				Note Time="56" Value="G2" Duration="2" Instrument="kick" Volume="15"
				Note Time="58" Value="G3" Duration="1" Instrument="rel hats"
				Note Time="59" Value="G3" Duration="1" Instrument="rel hats" Volume="11"
				Note Time="60" Value="G2" Duration="2" Instrument="snare" Volume="15"
				Note Time="62" Value="G3" Duration="1" Instrument="rel hats"
				Note Time="63" Value="G3" Duration="1" Instrument="rel hats" Volume="11"
			Pattern Name="07" Color="ff7f72"
				Note Time="0" Value="G3" Duration="1" Instrument="rel hats" Volume="15"
				Note Time="1" Value="F#3" Duration="15" Instrument="DMC: drums + bass" Volume="3"
				Note Time="5" Volume="2"
				Note Time="11" Volume="1"
				Note Time="16" Value="G3" Duration="8" Instrument="DMC: drums + bass"
			PatternInstance Time="1" Pattern="01"
			PatternInstance Time="2" Pattern="02"
			PatternInstance Time="3" Pattern="03"
			PatternInstance Time="4" Pattern="04"
			PatternInstance Time="5" Pattern="08"
			PatternInstance Time="6" Pattern="09"
			PatternInstance Time="7" Pattern="05"
			PatternInstance Time="8" Pattern="06"
			PatternInstance Time="9" Pattern="04"
			PatternInstance Time="10" Pattern="05"
			PatternInstance Time="11" Pattern="06"
			PatternInstance Time="12" Pattern="05"
			PatternInstance Time="13" Pattern="07"
		Channel Type="DPCM"
			Pattern Name="01" Color="7fdc83"
				Note Time="0" Value="E5" Duration="64" Instrument="DMC: drums + bass"
			Pattern Name="02" Color="55b2ff"
				Note Time="0" Value="F5" Duration="4" Instrument="DMC: drums + bass"
				Note Time="4" Value="F5" Duration="4" Instrument="DMC: drums + bass"
				Note Time="8" Value="F5" Duration="4" Instrument="DMC: drums + bass"
				Note Time="12" Value="F5" Duration="4" Instrument="DMC: drums + bass"
				Note Time="16" Value="F5" Duration="4" Instrument="DMC: drums + bass"
				Note Time="20" Value="F5" Duration="4" Instrument="DMC: drums + bass"
				Note Time="24" Value="F5" Duration="4" Instrument="DMC: drums + bass"
				Note Time="28" Value="F5" Duration="4" Instrument="DMC: drums + bass"
				Note Time="32" Value="F5" Duration="2" Instrument="DMC: drums + bass"
				Note Time="34" Value="F5" Duration="2" Instrument="DMC: drums + bass"
				Note Time="36" Value="F5" Duration="2" Instrument="DMC: drums + bass"
				Note Time="38" Value="F5" Duration="2" Instrument="DMC: drums + bass"
				Note Time="40" Value="F5" Duration="2" Instrument="DMC: drums + bass"
				Note Time="42" Value="F5" Duration="2" Instrument="DMC: drums + bass"
				Note Time="44" Value="F5" Duration="2" Instrument="DMC: drums + bass"
				Note Time="46" Value="F5" Duration="2" Instrument="DMC: drums + bass"
				Note Time="48" Value="F5" Duration="1" Instrument="DMC: drums + bass"
				Note Time="49" Value="F5" Duration="1" Instrument="DMC: drums + bass"
				Note Time="50" Value="F5" Duration="1" Instrument="DMC: drums + bass"
				Note Time="51" Value="F5" Duration="1" Instrument="DMC: drums + bass"
				Note Time="52" Value="F5" Duration="1" Instrument="DMC: drums + bass"
				Note Time="53" Value="F5" Duration="1" Instrument="DMC: drums + bass"
				Note Time="54" Value="F5" Duration="1" Instrument="DMC: drums + bass"
				Note Time="55" Value="F5" Duration="1" Instrument="DMC: drums + bass"
				Note Time="56" Value="F5" Duration="1" Instrument="DMC: drums + bass"
				Note Time="57" Value="F5" Duration="1" Instrument="DMC: drums + bass"
				Note Time="58" Value="F5" Duration="1" Instrument="DMC: drums + bass"
				Note Time="59" Value="F5" Duration="1" Instrument="DMC: drums + bass"
				Note Time="60" Value="F5" Duration="1" Instrument="DMC: drums + bass"
				Note Time="61" Value="F5" Duration="1" Instrument="DMC: drums + bass"
				Note Time="62" Value="F5" Duration="1" Instrument="DMC: drums + bass"
				Note Time="63" Value="F5" Duration="1" Instrument="DMC: drums + bass"
			Pattern Name="03" Color="e95093"
				Note Time="0" Value="E5" Duration="6" Instrument="DMC: drums + bass"
				Note Time="6" Value="F5" Duration="2" Instrument="DMC: drums + bass"
				Note Time="8" Value="F5" Duration="1" Instrument="DMC: drums + bass"
				Note Time="9" Value="F5" Duration="2" Instrument="DMC: drums + bass"
				Note Time="11" Value="F5" Duration="1" Instrument="DMC: drums + bass"
				Note Time="12" Value="E5" Duration="1" Instrument="DMC: drums + bass"
				Note Time="13" Value="F5" Duration="1" Instrument="DMC: drums + bass"
				Note Time="14" Value="F5" Duration="1" Instrument="DMC: drums + bass"
				Note Time="15" Value="F5" Duration="1" Instrument="DMC: drums + bass"
			Pattern Name="04" Color="ffa83c"
				Note Time="0" Value="E5" Duration="2" Instrument="DMC: drums + bass"
				Note Time="2" Value="E4" Duration="2" Instrument="DMC: drums + bass"
				Note Time="4" Value="E5" Duration="2" Instrument="DMC: drums + bass"
				Note Time="6" Value="E4" Duration="2" Instrument="DMC: drums + bass"
				Note Time="8" Value="E5" Duration="2" Instrument="DMC: drums + bass"
				Note Time="10" Value="E4" Duration="2" Instrument="DMC: drums + bass"
				Note Time="12" Value="E5" Duration="2" Instrument="DMC: drums + bass"
				Note Time="14" Value="E4" Duration="2" Instrument="DMC: drums + bass"
				Note Time="16" Value="E5" Duration="2" Instrument="DMC: drums + bass"
				Note Time="18" Value="B3" Duration="2" Instrument="DMC: drums + bass"
				Note Time="20" Value="E5" Duration="2" Instrument="DMC: drums + bass"
				Note Time="22" Value="B3" Duration="2" Instrument="DMC: drums + bass"
				Note Time="24" Value="E5" Duration="2" Instrument="DMC: drums + bass"
				Note Time="26" Value="B3" Duration="2" Instrument="DMC: drums + bass"
				Note Time="28" Value="E5" Duration="2" Instrument="DMC: drums + bass"
				Note Time="30" Value="B3" Duration="2" Instrument="DMC: drums + bass"
				Note Time="32" Value="E5" Duration="2" Instrument="DMC: drums + bass"
				Note Time="34" Value="C4" Duration="2" Instrument="DMC: drums + bass"
				Note Time="36" Value="E5" Duration="2" Instrument="DMC: drums + bass"
				Note Time="38" Value="C4" Duration="2" Instrument="DMC: drums + bass"
				Note Time="40" Value="E5" Duration="2" Instrument="DMC: drums + bass"
				Note Time="42" Value="C4" Duration="2" Instrument="DMC: drums + bass"
				Note Time="44" Value="E5" Duration="2" Instrument="DMC: drums + bass"
				Note Time="46" Value="C4" Duration="2" Instrument="DMC: drums + bass"
				Note Time="48" Value="E5" Duration="2" Instrument="DMC: drums + bass"
				Note Time="50" Value="C4" Duration="2" Instrument="DMC: drums + bass"
				Note Time="52" Value="E5" Duration="2" Instrument="DMC: drums + bass"
				Note Time="54" Value="C4" Duration="2" Instrument="DMC: drums + bass"
				Note Time="56" Value="E5" Duration="2" Instrument="DMC: drums + bass"
				Note Time="58" Value="D4" Duration="2" Instrument="DMC: drums + bass"
				Note Time="60" Value="E5" Duration="2" Instrument="DMC: drums + bass"
				Note Time="62" Value="D4" Duration="2" Instrument="DMC: drums + bass"
			Pattern Name="05" Color="eaffbd"
				Note Time="0" Value="E5" Duration="2" Instrument="DMC: drums + bass"
				Note Time="2" Value="E4" Duration="2" Instrument="DMC: drums + bass"
				Note Time="4" Value="F5" Duration="2" Instrument="DMC: drums + bass"
				Note Time="6" Value="E4" Duration="2" Instrument="DMC: drums + bass"
				Note Time="8" Value="E5" Duration="2" Instrument="DMC: drums + bass"
				Note Time="10" Value="E4" Duration="2" Instrument="DMC: drums + bass"
				Note Time="12" Value="F5" Duration="2" Instrument="DMC: drums + bass"
				Note Time="14" Value="E4" Duration="2" Instrument="DMC: drums + bass"
				Note Time="16" Value="E5" Duration="2" Instrument="DMC: drums + bass"
				Note Time="18" Value="B3" Duration="2" Instrument="DMC: drums + bass"
				Note Time="20" Value="F5" Duration="2" Instrument="DMC: drums + bass"
				Note Time="22" Value="B3" Duration="2" Instrument="DMC: drums + bass"
				Note Time="24" Value="E5" Duration="2" Instrument="DMC: drums + bass"
				Note Time="26" Value="B3" Duration="2" Instrument="DMC: drums + bass"
				Note Time="28" Value="F5" Duration="2" Instrument="DMC: drums + bass"
				Note Time="30" Value="B3" Duration="2" Instrument="DMC: drums + bass"
				Note Time="32" Value="E5" Duration="2" Instrument="DMC: drums + bass"
				Note Time="34" Value="C4" Duration="2" Instrument="DMC: drums + bass"
				Note Time="36" Value="F5" Duration="2" Instrument="DMC: drums + bass"
				Note Time="38" Value="C4" Duration="2" Instrument="DMC: drums + bass"
				Note Time="40" Value="E5" Duration="2" Instrument="DMC: drums + bass"
				Note Time="42" Value="C4" Duration="2" Instrument="DMC: drums + bass"
				Note Time="44" Value="F5" Duration="2" Instrument="DMC: drums + bass"
				Note Time="46" Value="C4" Duration="2" Instrument="DMC: drums + bass"
				Note Time="48" Value="E5" Duration="2" Instrument="DMC: drums + bass"
				Note Time="50" Value="C4" Duration="2" Instrument="DMC: drums + bass"
				Note Time="52" Value="F5" Duration="2" Instrument="DMC: drums + bass"
				Note Time="54" Value="C4" Duration="2" Instrument="DMC: drums + bass"
				Note Time="56" Value="E5" Duration="2" Instrument="DMC: drums + bass"
				Note Time="58" Value="D4" Duration="2" Instrument="DMC: drums + bass"
				Note Time="60" Value="F5" Duration="2" Instrument="DMC: drums + bass"
				Note Time="62" Value="D4" Duration="2" Instrument="DMC: drums + bass"
			Pattern Name="06" Color="65f2ff"
				Note Time="0" Value="E5" Duration="1" Instrument="DMC: drums + bass"
				Note Time="1" Value="E3" Duration="63" Instrument="DMC: drums + bass"
			PatternInstance Time="2" Pattern="01"
			PatternInstance Time="3" Pattern="02"
			PatternInstance Time="4" Pattern="03"
			PatternInstance Time="5" Pattern="04"
			PatternInstance Time="6" Pattern="04"
			PatternInstance Time="7" Pattern="05"
			PatternInstance Time="8" Pattern="05"
			PatternInstance Time="9" Pattern="03"
			PatternInstance Time="10" Pattern="05"
			PatternInstance Time="11" Pattern="05"
			PatternInstance Time="12" Pattern="05"
			PatternInstance Time="13" Pattern="06"
	Song Name="xStep" Color="a9887d" Folder="Official music used in the game" Length="12" LoopPoint="-1" PatternLength="64" BeatLength="4" FamiTrackerTempo="130" FamiTrackerSpeed="6"
		PatternCustomSettings Time="11" Length="8"
		Channel Type="Square1"
			Pattern Name="00" Color="bdffc0"
				Note Time="0" Value="A2" Duration="2" Instrument="shift string lite" FinePitch="-1"
				Note Time="3" Value="A2" Duration="2" Instrument="shift string lite"
				Note Time="6" Value="A2" Duration="2" Instrument="shift string lite" CutDelay="11"
				Note Time="8" Value="A2" Duration="2" Instrument="shift string lite" CutDelay="11"
				Note Time="10" Value="A2" Duration="2" Instrument="shift string lite" CutDelay="11"
				Note Time="12" Value="F2" Duration="2" Instrument="shift string lite"
				Note Time="14" Value="E2" Duration="2" Instrument="shift string lite"
				Note Time="16" Value="D2" Duration="2" Instrument="shift string lite"
				Note Time="19" Value="D2" Duration="2" Instrument="shift string lite"
				Note Time="22" Value="D2" Duration="2" Instrument="shift string lite"
				Note Time="25" Value="D2" Duration="3" Instrument="shift string lite"
				Note Time="28" Value="E2" Duration="2" Instrument="shift string lite"
				Note Time="30" Value="E2" Duration="1" Instrument="shift string lite" SlideTarget="D3"
				Note Time="31" Value="D3" Duration="1" Instrument="shift string lite" Attack="False"
				Note Time="32" Value="B2" Duration="2" Instrument="shift string lite"
				Note Time="35" Value="B2" Duration="2" Instrument="shift string lite"
				Note Time="38" Value="B2" Duration="2" Instrument="shift string lite"
				Note Time="40" Value="A2" Duration="2" Instrument="shift string lite"
				Note Time="42" Value="B2" Duration="2" Instrument="shift string lite"
				Note Time="44" Value="B2" Duration="1" Instrument="shift string lite" SlideTarget="E3"
				Note Time="45" Value="E3" Duration="1" Instrument="shift string lite" Attack="False"
				Note Time="46" Value="C3" Duration="2" Instrument="shift string lite"
				Note Time="48" Value="A2" Duration="2" Instrument="shift string lite"
				Note Time="51" Value="A2" Duration="2" Instrument="shift string lite"
				Note Time="54" Value="A2" Duration="2" Instrument="shift string lite"
				Note Time="56" Value="B2" Duration="2" Instrument="shift string lite"
				Note Time="59" Value="G2" Duration="2" Instrument="shift string lite"
				Note Time="62" Value="G2" Duration="2" Instrument="shift string lite" CutDelay="10"
			Pattern Name="02" Color="7ee1ff"
				Note Time="0" Value="A2" Duration="2" Instrument="shift string lite" FinePitch="-1"
				Note Time="3" Value="A2" Duration="2" Instrument="shift string lite"
				Note Time="6" Value="A2" Duration="2" Instrument="shift string lite" CutDelay="11"
				Note Time="8" Value="A2" Duration="2" Instrument="shift string lite"
				Note Time="11" Value="A2" Duration="2" Instrument="shift string lite"
				Note Time="14" Value="A2" Duration="2" Instrument="shift string lite" CutDelay="11"
				Note Time="16" Value="A2" Duration="2" Instrument="shift string lite"
				Note Time="19" Value="A2" Duration="2" Instrument="shift string lite"
				Note Time="22" Value="A2" Duration="2" Instrument="shift string lite" CutDelay="11"
				Note Time="24" Value="A2" Duration="2" Instrument="shift string lite"
				Note Time="27" Value="A2" Duration="2" Instrument="shift string lite"
				Note Time="30" Value="A2" Duration="2" Instrument="shift string lite" CutDelay="11"
				Note Time="32" Value="A2" Duration="2" Instrument="shift string lite" CutDelay="11"
				Note Time="34" Value="A2" Duration="2" Instrument="shift string lite" CutDelay="11"
				Note Time="36" Value="A2" Duration="2" Instrument="shift string lite" CutDelay="11"
				Note Time="38" Value="A2" Duration="2" Instrument="shift string lite" CutDelay="11"
				Note Time="40" Value="A2" Duration="2" Instrument="shift string lite" CutDelay="11"
				Note Time="42" Value="A2" Duration="2" Instrument="shift string lite" CutDelay="11"
				Note Time="44" Value="A2" Duration="2" Instrument="shift string lite" CutDelay="11"
				Note Time="46" Value="A2" Duration="2" Instrument="shift string lite" CutDelay="11"
				Note Time="48" Value="A2" Duration="2" Instrument="shift string lite" CutDelay="11"
				Note Time="50" Value="A2" Duration="2" Instrument="shift string lite" CutDelay="11"
				Note Time="52" Value="A2" Duration="2" Instrument="shift string lite" CutDelay="11"
				Note Time="54" Value="A2" Duration="2" Instrument="shift string lite" CutDelay="11"
				Note Time="56" Value="A2" Duration="1" Instrument="shift string lite" CutDelay="5"
				Note Time="57" Value="A2" Duration="1" Instrument="shift string lite" CutDelay="5"
				Note Time="58" Value="A2" Duration="1" Instrument="shift string lite" CutDelay="5"
				Note Time="59" Value="A2" Duration="1" Instrument="shift string lite" CutDelay="5"
				Note Time="60" Value="A2" Duration="1" Instrument="shift string lite" CutDelay="5"
				Note Time="61" Value="A2" Duration="1" Instrument="shift string lite" CutDelay="5"
				Note Time="62" Value="A2" Duration="1" Instrument="shift string lite" CutDelay="5"
				Note Time="63" Value="A2" Duration="1" Instrument="shift string lite" CutDelay="5"
			Pattern Name="04" Color="ff5a9f"
				Note Time="0" Value="A1" Duration="1" Instrument="xstep wub" Volume="7"
				Note Time="1" Value="A1" Duration="1" Instrument="xstep wub" Volume="15"
				Note Time="2" Value="A1" Duration="1" Instrument="xstep wub"
				Note Time="3" Value="A1" Duration="1" Instrument="xstep wub"
				Note Time="4" Value="F1" Duration="1" Instrument="xstep wub" Volume="7"
				Note Time="5" Value="F1" Duration="1" Instrument="xstep wub" Volume="15"
				Note Time="6" Value="F1" Duration="1" Instrument="xstep wub"
				Note Time="7" Value="F1" Duration="1" Instrument="xstep wub"
				Note Time="8" Value="E1" Duration="1" Instrument="xstep wub" Volume="7"
				Note Time="9" Value="E1" Duration="1" Instrument="xstep wub" Volume="15"
				Note Time="10" Value="E1" Duration="1" Instrument="xstep wub"
				Note Time="11" Value="E1" Duration="3" Instrument="xstep wub"
				Note Time="13" Volume="15"
				Note Time="14" Value="E1" Duration="1" Instrument="xstep wub"
				Note Time="15" Value="E1" Duration="1" Instrument="xstep wub"
				Note Time="16" Value="F1" Duration="1" Instrument="xstep wub" Volume="7"
				Note Time="17" Value="F1" Duration="1" Instrument="xstep wub" Volume="15"
				Note Time="18" Value="F1" Duration="1" Instrument="xstep wub"
				Note Time="19" Value="F1" Duration="1" Instrument="xstep wub"
				Note Time="20" Value="F1" Duration="1" Instrument="xstep wub" Volume="7"
				Note Time="21" Value="F1" Duration="1" Instrument="xstep wub" Volume="15"
				Note Time="22" Value="F1" Duration="1" Instrument="xstep wub"
				Note Time="23" Value="F1" Duration="1" Instrument="xstep wub"
				Note Time="24" Value="A1" Duration="1" Instrument="xstep wub" Volume="7"
				Note Time="25" Value="A1" Duration="1" Instrument="xstep wub" Volume="15"
				Note Time="26" Value="A1" Duration="1" Instrument="xstep wub"
				Note Time="27" Value="A1" Duration="1" Instrument="xstep wub"
				Note Time="28" Value="A1" Duration="1" Instrument="xstep wub" SlideTarget="A1" Volume="7"
				Note Time="29" Value="A1" Duration="1" Instrument="xstep wub" SlideTarget="A#1" Volume="15"
				Note Time="30" Value="A#1" Duration="1" Instrument="xstep wub" SlideTarget="B1"
				Note Time="31" Value="B1" Duration="1" Instrument="xstep wub" SlideTarget="C2"
				Note Time="32" Value="A1" Duration="1" Instrument="xstep wub" Volume="7"
				Note Time="33" Value="A1" Duration="1" Instrument="xstep wub" Volume="15"
				Note Time="34" Value="A1" Duration="1" Instrument="xstep wub"
				Note Time="35" Value="A1" Duration="1" Instrument="xstep wub"
				Note Time="36" Value="F1" Duration="1" Instrument="xstep wub" Volume="7"
				Note Time="37" Value="F1" Duration="1" Instrument="xstep wub" Volume="15"
				Note Time="38" Value="F1" Duration="1" Instrument="xstep wub"
				Note Time="39" Value="F1" Duration="1" Instrument="xstep wub"
				Note Time="40" Value="E1" Duration="1" Instrument="xstep wub" Volume="7"
				Note Time="41" Value="E1" Duration="1" Instrument="xstep wub" Volume="15"
				Note Time="42" Value="E1" Duration="1" Instrument="xstep wub"
				Note Time="43" Value="E1" Duration="3" Instrument="xstep wub"
				Note Time="45" Volume="15"
				Note Time="46" Value="E1" Duration="1" Instrument="xstep wub"
				Note Time="47" Value="E1" Duration="1" Instrument="xstep wub"
				Note Time="48" Value="A1" Duration="1" Instrument="xstep wub" Volume="7"
				Note Time="49" Value="A1" Duration="1" Instrument="xstep wub" Volume="15"
				Note Time="50" Value="A1" Duration="1" Instrument="xstep wub"
				Note Time="51" Value="A1" Duration="1" Instrument="xstep wub"
				Note Time="52" Value="A1" Duration="1" Instrument="xstep wub" Volume="7"
				Note Time="53" Value="A1" Duration="1" Instrument="xstep wub" Volume="15"
				Note Time="54" Value="A1" Duration="1" Instrument="xstep wub"
				Note Time="55" Value="A1" Duration="1" Instrument="xstep wub"
				Note Time="56" Value="B1" Duration="1" Instrument="xstep wub" Volume="7"
				Note Time="57" Value="B1" Duration="1" Instrument="xstep wub" Volume="15"
				Note Time="58" Value="B1" Duration="1" Instrument="xstep wub"
				Note Time="59" Value="B1" Duration="1" Instrument="xstep wub"
				Note Time="60" Value="G1" Duration="1" Instrument="xstep wub" Volume="7"
				Note Time="61" Value="G1" Duration="1" Instrument="xstep wub" Volume="15"
				Note Time="62" Value="G1" Duration="1" Instrument="xstep wub"
				Note Time="63" Value="G1" Duration="1" Instrument="xstep wub"
			Pattern Name="03" Color="ffd43c"
				Note Time="0" Value="A1" Duration="4" Instrument="blank" Volume="6" DutyCycle="1"
				Note Time="4" Value="F1" Duration="4" Instrument="blank"
				Note Time="8" Value="E1" Duration="4" Instrument="blank"
				Note Time="16" Value="F1" Duration="3" Instrument="blank"
				Note Time="20" Value="F1" Duration="3" Instrument="blank"
				Note Time="24" Value="A1" Duration="4" Instrument="blank"
				Note Time="32" Value="A1" Duration="4" Instrument="blank" DutyCycle="1"
				Note Time="36" Value="F1" Duration="4" Instrument="blank"
				Note Time="40" Value="E1" Duration="4" Instrument="blank"
				Note Time="48" Value="A1" Duration="3" Instrument="blank"
				Note Time="52" Value="A1" Duration="3" Instrument="blank"
				Note Time="56" Value="B1" Duration="4" Instrument="blank"
				Note Time="60" Value="G1" Duration="4" Instrument="blank"
			PatternInstance Time="0" Pattern="00"
			PatternInstance Time="1" Pattern="00"
			PatternInstance Time="2" Pattern="00"
			PatternInstance Time="3" Pattern="02"
			PatternInstance Time="4" Pattern="04"
			PatternInstance Time="5" Pattern="04"
			PatternInstance Time="6" Pattern="04"
			PatternInstance Time="7" Pattern="04"
			PatternInstance Time="8" Pattern="04"
			PatternInstance Time="9" Pattern="04"
			PatternInstance Time="10" Pattern="03"
		Channel Type="Square2"
			Pattern Name="00" Color="3ec4ff"
				Note Time="2" Value="A2" Duration="2" Instrument="shift string lite" Volume="7" FinePitch="4"
				Note Time="5" Value="A2" Duration="2" Instrument="shift string lite"
				Note Time="8" Value="A2" Duration="2" Instrument="shift string lite" CutDelay="11"
				Note Time="10" Value="A2" Duration="2" Instrument="shift string lite" CutDelay="11"
				Note Time="12" Value="A2" Duration="2" Instrument="shift string lite" CutDelay="11"
				Note Time="14" Value="F2" Duration="2" Instrument="shift string lite"
				Note Time="16" Value="E2" Duration="2" Instrument="shift string lite"
				Note Time="18" Value="D2" Duration="2" Instrument="shift string lite"
				Note Time="21" Value="D2" Duration="2" Instrument="shift string lite"
				Note Time="24" Value="D2" Duration="2" Instrument="shift string lite"
				Note Time="27" Value="D2" Duration="3" Instrument="shift string lite"
				Note Time="30" Value="E2" Duration="2" Instrument="shift string lite"
				Note Time="32" Value="D3" Duration="2" Instrument="shift string lite"
				Note Time="34" Value="B2" Duration="2" Instrument="shift string lite"
				Note Time="37" Value="B2" Duration="2" Instrument="shift string lite"
				Note Time="40" Value="B2" Duration="2" Instrument="shift string lite"
				Note Time="42" Value="A2" Duration="2" Instrument="shift string lite"
				Note Time="44" Value="B2" Duration="2" Instrument="shift string lite"
				Note Time="46" Value="E3" Duration="2" Instrument="shift string lite"
				Note Time="48" Value="C3" Duration="2" Instrument="shift string lite"
				Note Time="50" Value="A2" Duration="2" Instrument="shift string lite"
				Note Time="53" Value="A2" Duration="2" Instrument="shift string lite"
				Note Time="56" Value="A2" Duration="2" Instrument="shift string lite"
				Note Time="58" Value="B2" Duration="2" Instrument="shift string lite"
				Note Time="61" Value="G2" Duration="5" Instrument="shift string lite"
			Pattern Name="01" Color="a657d6"
				Note Time="0" Volume="7"
				Note Time="2" Value="A2" Duration="2" Instrument="shift string lite" FinePitch="4"
				Note Time="5" Value="A2" Duration="2" Instrument="shift string lite"
				Note Time="8" Value="A2" Duration="2" Instrument="shift string lite" CutDelay="11"
				Note Time="10" Value="A2" Duration="2" Instrument="shift string lite"
				Note Time="13" Value="A2" Duration="2" Instrument="shift string lite"
				Note Time="16" Value="A2" Duration="2" Instrument="shift string lite" CutDelay="11"
				Note Time="18" Value="A2" Duration="2" Instrument="shift string lite"
				Note Time="21" Value="A2" Duration="2" Instrument="shift string lite"
				Note Time="24" Value="A2" Duration="2" Instrument="shift string lite" CutDelay="11"
				Note Time="26" Value="A2" Duration="2" Instrument="shift string lite"
				Note Time="29" Value="A2" Duration="2" Instrument="shift string lite"
				Note Time="32" Value="A2" Duration="2" Instrument="shift string lite" CutDelay="11"
				Note Time="34" Value="A2" Duration="2" Instrument="shift string lite" CutDelay="11"
				Note Time="36" Value="A2" Duration="2" Instrument="shift string lite" CutDelay="11"
				Note Time="38" Value="A2" Duration="2" Instrument="shift string lite" CutDelay="11"
				Note Time="40" Value="A2" Duration="2" Instrument="shift string lite" CutDelay="11"
				Note Time="42" Value="A2" Duration="2" Instrument="shift string lite" CutDelay="11"
				Note Time="44" Value="A2" Duration="2" Instrument="shift string lite" CutDelay="11"
				Note Time="46" Value="A2" Duration="2" Instrument="shift string lite" CutDelay="11"
				Note Time="48" Value="A2" Duration="2" Instrument="shift string lite" CutDelay="11"
				Note Time="50" Value="A2" Duration="2" Instrument="shift string lite" CutDelay="11"
				Note Time="52" Value="A2" Duration="2" Instrument="shift string lite" CutDelay="11"
				Note Time="54" Value="A2" Duration="2" Instrument="shift string lite" CutDelay="11"
				Note Time="56" Value="A2" Duration="2" Instrument="shift string lite" CutDelay="11"
				Note Time="58" Value="A2" Duration="1" Instrument="shift string lite" CutDelay="5"
				Note Time="59" Value="A2" Duration="1" Instrument="shift string lite" CutDelay="5"
				Note Time="60" Value="A2" Duration="1" Instrument="shift string lite" CutDelay="5"
				Note Time="61" Value="A2" Duration="1" Instrument="shift string lite" CutDelay="5"
				Note Time="62" Value="A2" Duration="1" Instrument="shift string lite" CutDelay="5"
				Note Time="63" Value="A2" Duration="13" Instrument="shift string lite" CutDelay="5"
			Pattern Name="04" Color="ff7f51"
				Note Time="12" Value="C4" Duration="1" Instrument="blank" SlideTarget="C5" Volume="4"
				Note Time="13" Value="C5" Duration="2" Instrument="blank" SlideTarget="D2" Attack="False"
				Note Time="28" Value="C4" Duration="1" Instrument="blank" SlideTarget="C5" Volume="4"
				Note Time="29" Value="C5" Duration="2" Instrument="blank" SlideTarget="D2" Attack="False"
				Note Time="44" Value="C4" Duration="1" Instrument="blank" SlideTarget="C5" Volume="4"
				Note Time="45" Value="C5" Duration="2" Instrument="blank" SlideTarget="D2" Attack="False"
				Note Time="60" Value="C4" Duration="1" Instrument="blank" SlideTarget="C5" Volume="4"
				Note Time="61" Value="C5" Duration="2" Instrument="blank" SlideTarget="D2" Attack="False"
			Pattern Name="05" Color="ffffb1"
				Note Time="0" Value="A3" Duration="12" Instrument="octave arp" Volume="6" FinePitch="0"
				Note Time="12" Value="C4" Duration="1" Instrument="blank" SlideTarget="C5" Volume="4"
				Note Time="13" Value="C5" Duration="2" Instrument="blank" SlideTarget="D2" Attack="False"
				Note Time="16" Value="F3" Duration="8" Instrument="octave arp" Volume="6"
				Note Time="24" Value="A3" Duration="4" Instrument="octave arp" Volume="6"
				Note Time="28" Value="C4" Duration="1" Instrument="blank" SlideTarget="C5" Volume="4"
				Note Time="29" Value="C5" Duration="1" Instrument="blank" SlideTarget="C3" Attack="False"
				Note Time="30" Value="C4" Duration="2" Instrument="octave arp" Volume="6"
				Note Time="32" Value="A3" Duration="8" Instrument="octave arp"
				Note Time="40" Value="E3" Duration="3" Instrument="octave arp"
				Note Time="43" Value="F1" Duration="1" Instrument="octave arp" Attack="False"
				Note Time="44" Value="C4" Duration="1" Instrument="blank" SlideTarget="C5" Volume="4"
				Note Time="45" Value="C5" Duration="2" Instrument="blank" SlideTarget="D2" Attack="False"
				Note Time="48" Value="A3" Duration="8" Instrument="octave arp" Volume="6"
				Note Time="56" Value="B3" Duration="4" Instrument="octave arp" Volume="6"
				Note Time="60" Value="C4" Duration="1" Instrument="blank" SlideTarget="C5" Volume="4"
				Note Time="61" Value="C5" Duration="2" Instrument="blank" SlideTarget="D2" Attack="False"
			Pattern Name="02" Color="62ffff"
				Note Time="0" Value="A3" Duration="4" Instrument="shift string" Volume="15"
				Note Time="4" Value="A3" Duration="1" Instrument="shift string" SlideTarget="F3"
				Note Time="5" Value="F3" Duration="3" Instrument="shift string" Attack="False"
				Note Time="8" Value="F3" Duration="1" Instrument="shift string" SlideTarget="E3"
				Note Time="9" Value="E3" Duration="5" Instrument="shift string" Attack="False"
				Note Time="13" Volume="8"
				Note Time="14" Value="E3" Duration="1" Instrument="shift string" SlideTarget="E3" Volume="15"
				Note Time="15" Value="E3" Duration="1" Instrument="shift string" Attack="False"
				Note Time="16" Value="E3" Duration="1" Instrument="shift string" SlideTarget="F3"
				Note Time="17" Value="F3" Duration="7" Instrument="shift string" Attack="False"
				Note Time="24" Value="F3" Duration="1" Instrument="shift string" SlideTarget="A3"
				Note Time="25" Value="A3" Duration="5" Instrument="shift string" Attack="False"
				Note Time="30" Value="A3" Duration="1" Instrument="blank" SlideTarget="D4" Volume="6" DutyCycle="1"
				Note Time="31" Value="D4" Duration="1" Instrument="blank" Attack="False"
				Note Time="32" Value="D4" Duration="1" Instrument="shift string" SlideTarget="A3" Volume="15"
				Note Time="33" Value="A3" Duration="3" Instrument="shift string" Attack="False"
				Note Time="36" Value="A3" Duration="1" Instrument="shift string" SlideTarget="F3"
				Note Time="37" Value="F3" Duration="3" Instrument="shift string" Attack="False"
				Note Time="40" Value="F3" Duration="1" Instrument="shift string" SlideTarget="E3"
				Note Time="41" Value="E3" Duration="5" Instrument="shift string" Attack="False"
				Note Time="45" Volume="8"
				Note Time="46" Value="E3" Duration="1" Instrument="shift string" SlideTarget="E3" Volume="15"
				Note Time="47" Value="E3" Duration="1" Instrument="shift string" Attack="False"
				Note Time="48" Value="E3" Duration="1" Instrument="shift string" SlideTarget="A3"
				Note Time="49" Value="A3" Duration="7" Instrument="shift string" Attack="False"
				Note Time="56" Value="A3" Duration="1" Instrument="shift string" SlideTarget="B3"
				Note Time="57" Value="B3" Duration="3" Instrument="shift string" Attack="False"
				Note Time="60" Value="B3" Duration="1" Instrument="shift string" SlideTarget="G3"
				Note Time="61" Value="G3" Duration="3" Instrument="shift string" Attack="False"
			Pattern Name="02B" Color="ffc6a1"
				Note Time="0" Value="G3" Duration="1" Instrument="shift string" SlideTarget="A3" Volume="15"
				Note Time="1" Value="A3" Duration="4" Instrument="shift string" Attack="False"
				Note Time="4" Value="A3" Duration="1" Instrument="shift string" SlideTarget="F3"
				Note Time="5" Value="F3" Duration="3" Instrument="shift string" Attack="False"
				Note Time="8" Value="F3" Duration="1" Instrument="shift string" SlideTarget="E3"
				Note Time="9" Value="E3" Duration="5" Instrument="shift string" Attack="False"
				Note Time="13" Volume="8"
				Note Time="14" Value="E3" Duration="1" Instrument="shift string" SlideTarget="E3" Volume="15"
				Note Time="15" Value="E3" Duration="1" Instrument="shift string" Attack="False"
				Note Time="16" Value="E3" Duration="1" Instrument="shift string" SlideTarget="F3"
				Note Time="17" Value="F3" Duration="7" Instrument="shift string" Attack="False"
				Note Time="24" Value="F3" Duration="1" Instrument="shift string" SlideTarget="A3"
				Note Time="25" Value="A3" Duration="5" Instrument="shift string" Attack="False"
				Note Time="30" Value="A3" Duration="1" Instrument="blank" SlideTarget="D4" Volume="6" DutyCycle="1"
				Note Time="31" Value="D4" Duration="1" Instrument="blank" Attack="False"
				Note Time="32" Value="D4" Duration="1" Instrument="shift string" SlideTarget="A3" Volume="15"
				Note Time="33" Value="A3" Duration="3" Instrument="shift string" Attack="False"
				Note Time="36" Value="A3" Duration="1" Instrument="shift string" SlideTarget="F3"
				Note Time="37" Value="F3" Duration="3" Instrument="shift string" Attack="False"
				Note Time="40" Value="F3" Duration="1" Instrument="shift string" SlideTarget="E3"
				Note Time="41" Value="E3" Duration="5" Instrument="shift string" Attack="False"
				Note Time="45" Volume="8"
				Note Time="46" Value="E3" Duration="1" Instrument="shift string" SlideTarget="E3" Volume="15"
				Note Time="47" Value="E3" Duration="1" Instrument="shift string" Attack="False"
				Note Time="48" Value="E3" Duration="1" Instrument="shift string" SlideTarget="A3"
				Note Time="49" Value="A3" Duration="7" Instrument="shift string" Attack="False"
				Note Time="56" Value="A3" Duration="1" Instrument="shift string" SlideTarget="B3"
				Note Time="57" Value="B3" Duration="3" Instrument="shift string" Attack="False"
				Note Time="60" Value="B3" Duration="1" Instrument="shift string" SlideTarget="G3"
				Note Time="61" Value="G3" Duration="3" Instrument="shift string" Attack="False"
			Pattern Name="03" Color="a376f3"
				Note Time="0" Value="G3" Duration="1" Instrument="shift string" SlideTarget="A3" Volume="15"
				Note Time="1" Value="A3" Duration="1" Instrument="shift string" Attack="False"
				Note Time="2" Value="A3" Duration="1" Instrument="shift string" SlideTarget="A3" Volume="15"
				Note Time="3" Value="A3" Duration="1" Instrument="shift string" Attack="False"
				Note Time="4" Value="A3" Duration="1" Instrument="shift string" SlideTarget="F3"
				Note Time="5" Value="F3" Duration="1" Instrument="shift string" Attack="False"
				Note Time="6" Value="F3" Duration="1" Instrument="shift string" SlideTarget="F3"
				Note Time="7" Value="F3" Duration="1" Instrument="shift string" SlideTarget="F3"
				Note Time="8" Value="F3" Duration="1" Instrument="shift string" SlideTarget="E3"
				Note Time="9" Value="E3" Duration="5" Instrument="shift string" Attack="False"
				Note Time="13" Volume="8"
				Note Time="14" Value="E3" Duration="1" Instrument="shift string" SlideTarget="E3" Volume="15"
				Note Time="15" Value="E3" Duration="1" Instrument="shift string" Attack="False"
				Note Time="16" Value="E3" Duration="1" Instrument="shift string" SlideTarget="F3"
				Note Time="17" Value="F3" Duration="7" Instrument="shift string" Attack="False"
				Note Time="24" Value="F3" Duration="1" Instrument="shift string" SlideTarget="A3"
				Note Time="25" Value="A3" Duration="5" Instrument="shift string" Attack="False"
				Note Time="30" Value="A3" Duration="1" Instrument="blank" SlideTarget="D4" Volume="6" DutyCycle="1"
				Note Time="31" Value="D4" Duration="1" Instrument="blank" Attack="False"
				Note Time="32" Value="D4" Duration="1" Instrument="shift string" SlideTarget="A3" Volume="15"
				Note Time="33" Value="A3" Duration="3" Instrument="shift string" Attack="False"
				Note Time="36" Value="A3" Duration="1" Instrument="shift string" SlideTarget="F3"
				Note Time="37" Value="F3" Duration="3" Instrument="shift string" Attack="False"
				Note Time="40" Value="F3" Duration="1" Instrument="shift string" SlideTarget="E3"
				Note Time="41" Value="E3" Duration="5" Instrument="shift string" Attack="False"
				Note Time="45" Volume="8"
				Note Time="46" Value="E3" Duration="1" Instrument="shift string" SlideTarget="E3" Volume="15"
				Note Time="47" Value="E3" Duration="1" Instrument="shift string" Attack="False"
				Note Time="48" Value="E3" Duration="1" Instrument="shift string" SlideTarget="A3"
				Note Time="49" Value="A3" Duration="7" Instrument="shift string" Attack="False"
				Note Time="56" Value="A3" Duration="1" Instrument="shift string" SlideTarget="B3"
				Note Time="57" Value="B3" Duration="3" Instrument="shift string" Attack="False"
				Note Time="60" Value="B3" Duration="1" Instrument="shift string" SlideTarget="G3"
				Note Time="61" Value="G3" Duration="3" Instrument="shift string" Attack="False"
			PatternInstance Time="0" Pattern="00"
			PatternInstance Time="1" Pattern="00"
			PatternInstance Time="2" Pattern="00"
			PatternInstance Time="3" Pattern="01"
			PatternInstance Time="4" Pattern="04"
			PatternInstance Time="5" Pattern="04"
			PatternInstance Time="6" Pattern="05"
			PatternInstance Time="7" Pattern="05"
			PatternInstance Time="8" Pattern="02"
			PatternInstance Time="9" Pattern="02B"
			PatternInstance Time="10" Pattern="03"
		Channel Type="Triangle"
			Pattern Name="00" Color="ffff71"
				Note Time="0" Value="A2" Duration="16" Instrument="blank"
				Note Time="16" Value="D2" Duration="16" Instrument="blank"
				Note Time="32" Value="B2" Duration="16" Instrument="blank"
				Note Time="48" Value="A2" Duration="16" Instrument="blank"
			Pattern Name="03" Color="ffafaf"
				Note Time="0" Value="C1" Duration="1" Instrument="tight triangle kick"
			Pattern Name="04" Color="ffff8b"
				Note Time="0" Value="E3" Duration="4" Instrument="blank"
				Note Time="4" Value="C3" Duration="4" Instrument="blank"
				Note Time="8" Value="B2" Duration="4" Instrument="blank"
				Note Time="12" Value="B2" Duration="1" Instrument="blank"
				Note Time="14" Value="B2" Duration="2" Instrument="blank"
				Note Time="16" Value="C3" Duration="4" Instrument="blank"
				Note Time="20" Value="C3" Duration="4" Instrument="blank"
				Note Time="24" Value="E3" Duration="4" Instrument="blank"
				Note Time="28" Value="E3" Duration="1" Instrument="blank" SlideTarget="E3"
				Note Time="29" Value="E3" Duration="1" Instrument="blank" SlideTarget="F3"
				Note Time="30" Value="F3" Duration="1" Instrument="blank" SlideTarget="F#3"
				Note Time="31" Value="F#3" Duration="1" Instrument="blank" SlideTarget="G3"
				Note Time="32" Value="E3" Duration="4" Instrument="blank"
				Note Time="36" Value="C3" Duration="4" Instrument="blank"
				Note Time="40" Value="B2" Duration="4" Instrument="blank"
				Note Time="44" Value="B2" Duration="1" Instrument="blank"
				Note Time="46" Value="B2" Duration="2" Instrument="blank"
				Note Time="48" Value="E3" Duration="4" Instrument="blank"
				Note Time="52" Value="E3" Duration="4" Instrument="blank"
				Note Time="56" Value="F#3" Duration="4" Instrument="blank"
				Note Time="60" Value="D3" Duration="4" Instrument="blank"
			Pattern Name="06" Color="5dd2ff"
				Note Time="0" Value="C1" Duration="1" Instrument="tight triangle kick"
				Note Time="1" Value="A2" Duration="3" Instrument="blank"
				Note Time="4" Value="C1" Duration="1" Instrument="tight triangle snare"
				Note Time="5" Value="F2" Duration="3" Instrument="blank"
				Note Time="8" Value="C1" Duration="1" Instrument="tight triangle kick"
				Note Time="9" Value="E2" Duration="3" Instrument="blank"
				Note Time="12" Value="C1" Duration="1" Instrument="tight triangle snare"
				Note Time="13" Value="E2" Duration="1" Instrument="blank"
				Note Time="16" Value="C1" Duration="1" Instrument="tight triangle kick"
				Note Time="17" Value="F2" Duration="3" Instrument="blank"
				Note Time="20" Value="C1" Duration="1" Instrument="tight triangle snare"
				Note Time="21" Value="F2" Duration="3" Instrument="blank"
				Note Time="24" Value="C1" Duration="1" Instrument="tight triangle kick"
				Note Time="25" Value="A2" Duration="3" Instrument="blank"
				Note Time="28" Value="C1" Duration="1" Instrument="tight triangle snare"
				Note Time="29" Value="A2" Duration="1" Instrument="blank"
				Note Time="32" Value="C1" Duration="1" Instrument="tight triangle kick"
				Note Time="33" Value="A2" Duration="3" Instrument="blank"
				Note Time="36" Value="C1" Duration="1" Instrument="tight triangle snare"
				Note Time="37" Value="F2" Duration="3" Instrument="blank"
				Note Time="40" Value="C1" Duration="1" Instrument="tight triangle kick"
				Note Time="41" Value="E2" Duration="1" Instrument="blank"
				Note Time="44" Value="C1" Duration="1" Instrument="tight triangle snare"
				Note Time="45" Value="E2" Duration="1" Instrument="blank"
				Note Time="48" Value="C1" Duration="1" Instrument="tight triangle kick"
				Note Time="49" Value="A2" Duration="3" Instrument="blank"
				Note Time="52" Value="C1" Duration="1" Instrument="tight triangle snare"
				Note Time="53" Value="A2" Duration="3" Instrument="blank"
				Note Time="56" Value="B2" Duration="4" Instrument="blank"
				Note Time="60" Value="G2" Duration="4" Instrument="blank"
			PatternInstance Time="0" Pattern="00"
			PatternInstance Time="1" Pattern="00"
			PatternInstance Time="2" Pattern="00"
			PatternInstance Time="3" Pattern="03"
			PatternInstance Time="4" Pattern="04"
			PatternInstance Time="5" Pattern="04"
			PatternInstance Time="6" Pattern="04"
			PatternInstance Time="7" Pattern="04"
			PatternInstance Time="8" Pattern="04"
			PatternInstance Time="9" Pattern="04"
			PatternInstance Time="10" Pattern="06"
		Channel Type="Noise"
			Pattern Name="00" Color="ffc83c"
				Note Time="0" Value="G#3" Duration="19" Instrument="cymbal"
				Note Time="8" Volume="8"
			Pattern Name="01" Color="a4db74"
				Note Time="0" Value="A3" Duration="2" Instrument="cymbal" Volume="9"
				Note Time="2" Value="G#3" Duration="4" Instrument="hat"
				Note Time="6" Value="G#3" Duration="4" Instrument="hat"
				Note Time="10" Value="G#3" Duration="4" Instrument="hat"
				Note Time="14" Value="G#3" Duration="4" Instrument="hat"
				Note Time="18" Value="G#3" Duration="4" Instrument="hat"
				Note Time="22" Value="G#3" Duration="4" Instrument="hat"
				Note Time="26" Value="G#3" Duration="4" Instrument="hat"
				Note Time="30" Value="G#3" Duration="4" Instrument="hat"
				Note Time="34" Value="G#3" Duration="4" Instrument="hat"
				Note Time="38" Value="G#3" Duration="4" Instrument="hat"
				Note Time="42" Value="G#3" Duration="4" Instrument="hat"
				Note Time="46" Value="G#3" Duration="4" Instrument="hat"
				Note Time="50" Value="G#3" Duration="4" Instrument="hat"
				Note Time="54" Value="G#3" Duration="4" Instrument="hat"
				Note Time="58" Value="G#3" Duration="4" Instrument="hat"
				Note Time="62" Value="G#3" Duration="2" Instrument="hat"
			Pattern Name="02" Color="3eb3f9"
				Note Time="0" Value="A3" Duration="8" Instrument="cymbal" Volume="15"
				Note Time="8" Value="A3" Duration="56" Instrument="blank" Volume="2"
				Note Time="16" Volume="1"
				Note Time="32" Volume="2"
				Note Time="40" Volume="3"
				Note Time="44" Volume="4"
				Note Time="47" Volume="5"
				Note Time="50" Volume="6"
				Note Time="52" Volume="7"
				Note Time="54" Volume="8"
				Note Time="55" Volume="9"
				Note Time="56" Volume="10"
				Note Time="58" Volume="11"
				Note Time="59" Volume="12"
				Note Time="60" Volume="13"
				Note Time="62" Volume="14"
				Note Time="63" Volume="15"
			Pattern Name="04" Color="f6a4ff"
				Note Time="0" Value="G3" Duration="2" Instrument="cymbal" Volume="15"
				Note Time="2" Value="F#3" Duration="2" Instrument="hat"
				Note Time="4" Value="G3" Duration="2" Instrument="clap"
				Note Time="6" Value="F#3" Duration="2" Instrument="hat"
				Note Time="8" Value="G3" Duration="2" Instrument="tight noise kick layer"
				Note Time="10" Value="F#3" Duration="1" Instrument="hat"
				Note Time="11" Value="F#3" Duration="1" Instrument="hat"
				Note Time="12" Value="G3" Duration="2" Instrument="clap"
				Note Time="14" Value="F#3" Duration="2" Instrument="hat"
				Note Time="16" Value="G3" Duration="2" Instrument="tight noise kick layer"
				Note Time="18" Value="F#3" Duration="1" Instrument="hat"
				Note Time="19" Value="F#3" Duration="1" Instrument="hat"
				Note Time="20" Value="G3" Duration="2" Instrument="clap"
				Note Time="22" Value="F#3" Duration="2" Instrument="hat"
				Note Time="24" Value="G3" Duration="2" Instrument="tight noise kick layer"
				Note Time="26" Value="F#3" Duration="1" Instrument="hat"
				Note Time="27" Value="F#3" Duration="1" Instrument="hat"
				Note Time="28" Value="G3" Duration="2" Instrument="clap"
				Note Time="30" Value="F#3" Duration="2" Instrument="hat"
				Note Time="32" Value="G3" Duration="2" Instrument="tight noise kick layer"
				Note Time="34" Value="F#3" Duration="1" Instrument="hat"
				Note Time="35" Value="F#3" Duration="1" Instrument="hat"
				Note Time="36" Value="G3" Duration="2" Instrument="clap"
				Note Time="38" Value="F#3" Duration="2" Instrument="hat"
				Note Time="40" Value="G3" Duration="2" Instrument="tight noise kick layer"
				Note Time="42" Value="F#3" Duration="1" Instrument="hat"
				Note Time="43" Value="F#3" Duration="1" Instrument="hat"
				Note Time="44" Value="G3" Duration="2" Instrument="clap"
				Note Time="46" Value="F#3" Duration="2" Instrument="hat"
				Note Time="48" Value="G3" Duration="2" Instrument="tight noise kick layer"
				Note Time="50" Value="F#3" Duration="2" Instrument="hat"
				Note Time="52" Value="G3" Duration="2" Instrument="clap"
				Note Time="54" Value="F#3" Duration="1" Instrument="hat"
				Note Time="55" Value="F#3" Duration="1" Instrument="hat"
				Note Time="56" Value="G3" Duration="2" Instrument="tight noise kick layer"
				Note Time="58" Value="F#3" Duration="2" Instrument="hat"
				Note Time="60" Value="G3" Duration="2" Instrument="clap"
				Note Time="62" Value="F#3" Duration="1" Instrument="hat"
				Note Time="63" Value="F#3" Duration="1" Instrument="hat"
			Pattern Name="05" Color="ffc6a1"
				Note Time="0" Value="G3" Duration="2" Instrument="cymbal" Volume="15"
				Note Time="2" Value="F#3" Duration="2" Instrument="hat"
				Note Time="4" Value="G3" Duration="2" Instrument="clap"
				Note Time="6" Value="F#3" Duration="2" Instrument="hat"
				Note Time="8" Value="G3" Duration="2" Instrument="tight noise kick layer"
				Note Time="10" Value="F#3" Duration="1" Instrument="hat"
				Note Time="11" Value="F#3" Duration="1" Instrument="hat"
				Note Time="12" Value="G3" Duration="2" Instrument="clap"
				Note Time="14" Value="F#3" Duration="2" Instrument="hat"
				Note Time="16" Value="G3" Duration="2" Instrument="tight noise kick layer"
				Note Time="18" Value="F#3" Duration="1" Instrument="hat"
				Note Time="19" Value="F#3" Duration="1" Instrument="hat"
				Note Time="20" Value="G3" Duration="2" Instrument="clap"
				Note Time="22" Value="F#3" Duration="2" Instrument="hat"
				Note Time="24" Value="G3" Duration="2" Instrument="tight noise kick layer"
				Note Time="26" Value="F#3" Duration="1" Instrument="hat"
				Note Time="27" Value="F#3" Duration="1" Instrument="hat"
				Note Time="28" Value="G3" Duration="2" Instrument="clap"
				Note Time="30" Value="F#3" Duration="2" Instrument="hat"
				Note Time="32" Value="G3" Duration="2" Instrument="tight noise kick layer"
				Note Time="34" Value="F#3" Duration="1" Instrument="hat"
				Note Time="35" Value="F#3" Duration="1" Instrument="hat"
				Note Time="36" Value="G3" Duration="2" Instrument="clap"
				Note Time="38" Value="F#3" Duration="2" Instrument="hat"
				Note Time="40" Value="G3" Duration="2" Instrument="tight noise kick layer"
				Note Time="42" Value="F#3" Duration="1" Instrument="hat"
				Note Time="43" Value="F#3" Duration="1" Instrument="hat"
				Note Time="44" Value="G3" Duration="2" Instrument="clap"
				Note Time="46" Value="F#3" Duration="2" Instrument="hat"
				Note Time="48" Value="G3" Duration="2" Instrument="tight noise kick layer"
				Note Time="50" Value="F#3" Duration="2" Instrument="hat"
				Note Time="52" Value="G3" Duration="2" Instrument="clap"
				Note Time="54" Value="F#3" Duration="1" Instrument="hat"
				Note Time="55" Value="F#3" Duration="3" Instrument="hat"
				Note Time="58" Value="F#3" Duration="4" Instrument="hat"
				Note Time="62" Value="F#3" Duration="1" Instrument="hat"
				Note Time="63" Value="F#3" Duration="1" Instrument="hat"
			Pattern Name="07" Color="3cf8ff"
				Note Time="0" Value="G3" Duration="8" Instrument="cymbal" Volume="15"
			PatternInstance Time="0" Pattern="00"
			PatternInstance Time="1" Pattern="01"
			PatternInstance Time="2" Pattern="02"
			PatternInstance Time="3" Pattern="02"
			PatternInstance Time="4" Pattern="04"
			PatternInstance Time="5" Pattern="04"
			PatternInstance Time="6" Pattern="04"
			PatternInstance Time="7" Pattern="05"
			PatternInstance Time="8" Pattern="04"
			PatternInstance Time="9" Pattern="05"
			PatternInstance Time="10" Pattern="05"
			PatternInstance Time="11" Pattern="07"
		Channel Type="DPCM"
			Pattern Name="00" Color="3ec4ff"
				Note Time="0" Value="Stop" DeltaCounter="0"
			Pattern Name="01" Color="a9887d"
				Note Time="0" Value="E5" Duration="4" Instrument="DMC: drums + bass"
				Note Time="4" Value="E5" Duration="4" Instrument="DMC: drums + bass"
				Note Time="8" Value="E5" Duration="4" Instrument="DMC: drums + bass"
				Note Time="12" Value="E5" Duration="4" Instrument="DMC: drums + bass"
				Note Time="16" Value="E5" Duration="4" Instrument="DMC: drums + bass"
				Note Time="20" Value="E5" Duration="4" Instrument="DMC: drums + bass"
				Note Time="24" Value="E5" Duration="4" Instrument="DMC: drums + bass"
				Note Time="28" Value="E5" Duration="4" Instrument="DMC: drums + bass"
				Note Time="32" Value="E5" Duration="4" Instrument="DMC: drums + bass"
				Note Time="36" Value="E5" Duration="4" Instrument="DMC: drums + bass"
				Note Time="40" Value="E5" Duration="4" Instrument="DMC: drums + bass"
				Note Time="44" Value="E5" Duration="4" Instrument="DMC: drums + bass"
				Note Time="48" Value="E5" Duration="4" Instrument="DMC: drums + bass"
				Note Time="52" Value="E5" Duration="4" Instrument="DMC: drums + bass"
				Note Time="56" Value="E5" Duration="4" Instrument="DMC: drums + bass"
				Note Time="60" Value="E5" Duration="2" Instrument="DMC: drums + bass"
				Note Time="62" Value="E5" Duration="2" Instrument="DMC: drums + bass"
			Pattern Name="02" Color="fffc69"
				Note Time="0" Value="E5" Duration="2" Instrument="DMC: drums + bass"
				Note Time="2" Value="E5" Duration="2" Instrument="DMC: drums + bass"
				Note Time="4" Value="E5" Duration="2" Instrument="DMC: drums + bass"
				Note Time="6" Value="E5" Duration="2" Instrument="DMC: drums + bass"
				Note Time="8" Value="E5" Duration="2" Instrument="DMC: drums + bass"
				Note Time="10" Value="E5" Duration="2" Instrument="DMC: drums + bass"
				Note Time="12" Value="E5" Duration="2" Instrument="DMC: drums + bass"
				Note Time="14" Value="E5" Duration="2" Instrument="DMC: drums + bass"
				Note Time="16" Value="E5" Duration="2" Instrument="DMC: drums + bass"
				Note Time="18" Value="E5" Duration="2" Instrument="DMC: drums + bass"
				Note Time="20" Value="E5" Duration="2" Instrument="DMC: drums + bass"
				Note Time="22" Value="E5" Duration="2" Instrument="DMC: drums + bass"
				Note Time="24" Value="E5" Duration="2" Instrument="DMC: drums + bass"
				Note Time="26" Value="E5" Duration="2" Instrument="DMC: drums + bass"
				Note Time="28" Value="E5" Duration="2" Instrument="DMC: drums + bass"
				Note Time="30" Value="E5" Duration="2" Instrument="DMC: drums + bass"
				Note Time="32" Value="E5" Duration="2" Instrument="DMC: drums + bass"
				Note Time="34" Value="E5" Duration="2" Instrument="DMC: drums + bass"
				Note Time="36" Value="E5" Duration="2" Instrument="DMC: drums + bass"
				Note Time="38" Value="E5" Duration="2" Instrument="DMC: drums + bass"
				Note Time="40" Value="E5" Duration="2" Instrument="DMC: drums + bass"
				Note Time="42" Value="E5" Duration="2" Instrument="DMC: drums + bass"
				Note Time="44" Value="E5" Duration="2" Instrument="DMC: drums + bass"
				Note Time="46" Value="E5" Duration="2" Instrument="DMC: drums + bass"
				Note Time="48" Value="E5" Duration="1" Instrument="DMC: drums + bass"
				Note Time="49" Value="E5" Duration="1" Instrument="DMC: drums + bass"
				Note Time="50" Value="E5" Duration="1" Instrument="DMC: drums + bass"
				Note Time="51" Value="E5" Duration="1" Instrument="DMC: drums + bass"
				Note Time="52" Value="E5" Duration="1" Instrument="DMC: drums + bass"
				Note Time="53" Value="E5" Duration="1" Instrument="DMC: drums + bass"
				Note Time="54" Value="E5" Duration="1" Instrument="DMC: drums + bass"
				Note Time="55" Value="E5" Duration="1" Instrument="DMC: drums + bass"
				Note Time="56" Value="E5" Duration="1" Instrument="DMC: drums + bass"
				Note Time="57" Value="E5" Duration="1" Instrument="DMC: drums + bass"
				Note Time="58" Value="E5" Duration="1" Instrument="DMC: drums + bass"
				Note Time="59" Value="E5" Duration="1" Instrument="DMC: drums + bass"
				Note Time="60" Value="E5" Duration="1" Instrument="DMC: drums + bass"
				Note Time="61" Value="E5" Duration="1" Instrument="DMC: drums + bass"
				Note Time="62" Value="E5" Duration="1" Instrument="DMC: drums + bass"
				Note Time="63" Value="E5" Duration="1" Instrument="DMC: drums + bass"
			Pattern Name="03" Color="3ca598"
				Note Time="0" Value="E5" Duration="64" Instrument="DMC: drums + bass"
			Pattern Name="04" Color="b5c2ff"
				Note Time="0" Value="E5" Duration="1" Instrument="DMC: drums + bass"
				Note Time="1" Value="A3" Duration="1" Instrument="DMC: drums + bass"
				Note Time="2" Value="A3" Duration="1" Instrument="DMC: drums + bass"
				Note Time="3" Value="A3" Duration="1" Instrument="DMC: drums + bass"
				Note Time="4" Value="F5" Duration="1" Instrument="DMC: drums + bass"
				Note Time="5" Value="F3" Duration="1" Instrument="DMC: drums + bass"
				Note Time="6" Value="F3" Duration="1" Instrument="DMC: drums + bass"
				Note Time="7" Value="F3" Duration="1" Instrument="DMC: drums + bass"
				Note Time="8" Value="E5" Duration="1" Instrument="DMC: drums + bass"
				Note Time="9" Value="E3" Duration="1" Instrument="DMC: drums + bass"
				Note Time="10" Value="E3" Duration="1" Instrument="DMC: drums + bass"
				Note Time="11" Value="E3" Duration="1" Instrument="DMC: drums + bass"
				Note Time="12" Value="F5" Duration="2" Instrument="DMC: drums + bass"
				Note Time="14" Value="E3" Duration="1" Instrument="DMC: drums + bass"
				Note Time="15" Value="E3" Duration="1" Instrument="DMC: drums + bass"
				Note Time="16" Value="E5" Duration="1" Instrument="DMC: drums + bass"
				Note Time="17" Value="F3" Duration="1" Instrument="DMC: drums + bass"
				Note Time="18" Value="F3" Duration="1" Instrument="DMC: drums + bass"
				Note Time="19" Value="F3" Duration="1" Instrument="DMC: drums + bass"
				Note Time="20" Value="F5" Duration="1" Instrument="DMC: drums + bass"
				Note Time="21" Value="F3" Duration="1" Instrument="DMC: drums + bass"
				Note Time="22" Value="F3" Duration="1" Instrument="DMC: drums + bass"
				Note Time="23" Value="F3" Duration="1" Instrument="DMC: drums + bass"
				Note Time="24" Value="E5" Duration="1" Instrument="DMC: drums + bass"
				Note Time="25" Value="A3" Duration="1" Instrument="DMC: drums + bass"
				Note Time="26" Value="A3" Duration="1" Instrument="DMC: drums + bass"
				Note Time="27" Value="A3" Duration="1" Instrument="DMC: drums + bass"
				Note Time="28" Value="F5" Duration="1" Instrument="DMC: drums + bass"
				Note Time="29" Value="A3" Duration="1" Instrument="DMC: drums + bass"
				Note Time="30" Value="A3" Duration="1" Instrument="DMC: drums + bass"
				Note Time="31" Value="A3" Duration="1" Instrument="DMC: drums + bass"
				Note Time="32" Value="E5" Duration="1" Instrument="DMC: drums + bass"
				Note Time="33" Value="A3" Duration="1" Instrument="DMC: drums + bass"
				Note Time="34" Value="A3" Duration="1" Instrument="DMC: drums + bass"
				Note Time="35" Value="A3" Duration="1" Instrument="DMC: drums + bass"
				Note Time="36" Value="F5" Duration="1" Instrument="DMC: drums + bass"
				Note Time="37" Value="F3" Duration="1" Instrument="DMC: drums + bass"
				Note Time="38" Value="F3" Duration="1" Instrument="DMC: drums + bass"
				Note Time="39" Value="F3" Duration="1" Instrument="DMC: drums + bass"
				Note Time="40" Value="E5" Duration="1" Instrument="DMC: drums + bass"
				Note Time="41" Value="E3" Duration="1" Instrument="DMC: drums + bass"
				Note Time="42" Value="E3" Duration="1" Instrument="DMC: drums + bass"
				Note Time="43" Value="E3" Duration="1" Instrument="DMC: drums + bass"
				Note Time="44" Value="F5" Duration="2" Instrument="DMC: drums + bass"
				Note Time="46" Value="E3" Duration="1" Instrument="DMC: drums + bass"
				Note Time="47" Value="E3" Duration="1" Instrument="DMC: drums + bass"
				Note Time="48" Value="E5" Duration="1" Instrument="DMC: drums + bass"
				Note Time="49" Value="A3" Duration="1" Instrument="DMC: drums + bass"
				Note Time="50" Value="A3" Duration="1" Instrument="DMC: drums + bass"
				Note Time="51" Value="A3" Duration="1" Instrument="DMC: drums + bass"
				Note Time="52" Value="F5" Duration="1" Instrument="DMC: drums + bass"
				Note Time="53" Value="A3" Duration="1" Instrument="DMC: drums + bass"
				Note Time="54" Value="A3" Duration="1" Instrument="DMC: drums + bass"
				Note Time="55" Value="A3" Duration="1" Instrument="DMC: drums + bass"
				Note Time="56" Value="E5" Duration="1" Instrument="DMC: drums + bass"
				Note Time="57" Value="B3" Duration="1" Instrument="DMC: drums + bass"
				Note Time="58" Value="B3" Duration="1" Instrument="DMC: drums + bass"
				Note Time="59" Value="B3" Duration="1" Instrument="DMC: drums + bass"
				Note Time="60" Value="F5" Duration="1" Instrument="DMC: drums + bass"
				Note Time="61" Value="G3" Duration="1" Instrument="DMC: drums + bass"
				Note Time="62" Value="G3" Duration="1" Instrument="DMC: drums + bass"
				Note Time="63" Value="G3" Duration="1" Instrument="DMC: drums + bass"
			Pattern Name="05" Color="ff8f8c"
				Note Time="0" Value="E5" Duration="1" Instrument="DMC: drums + bass"
				Note Time="1" Value="A3" Duration="1" Instrument="DMC: drums + bass"
				Note Time="2" Value="A3" Duration="1" Instrument="DMC: drums + bass"
				Note Time="3" Value="A3" Duration="1" Instrument="DMC: drums + bass"
				Note Time="4" Value="F5" Duration="1" Instrument="DMC: drums + bass"
				Note Time="5" Value="F3" Duration="1" Instrument="DMC: drums + bass"
				Note Time="6" Value="F3" Duration="1" Instrument="DMC: drums + bass"
				Note Time="7" Value="F3" Duration="1" Instrument="DMC: drums + bass"
				Note Time="8" Value="E5" Duration="1" Instrument="DMC: drums + bass"
				Note Time="9" Value="E3" Duration="1" Instrument="DMC: drums + bass"
				Note Time="10" Value="E3" Duration="1" Instrument="DMC: drums + bass"
				Note Time="11" Value="E3" Duration="1" Instrument="DMC: drums + bass"
				Note Time="12" Value="F5" Duration="2" Instrument="DMC: drums + bass"
				Note Time="14" Value="E3" Duration="1" Instrument="DMC: drums + bass"
				Note Time="15" Value="E3" Duration="1" Instrument="DMC: drums + bass"
				Note Time="16" Value="E5" Duration="1" Instrument="DMC: drums + bass"
				Note Time="17" Value="F3" Duration="1" Instrument="DMC: drums + bass"
				Note Time="18" Value="F3" Duration="1" Instrument="DMC: drums + bass"
				Note Time="19" Value="F3" Duration="1" Instrument="DMC: drums + bass"
				Note Time="20" Value="F5" Duration="1" Instrument="DMC: drums + bass"
				Note Time="21" Value="F3" Duration="1" Instrument="DMC: drums + bass"
				Note Time="22" Value="F3" Duration="1" Instrument="DMC: drums + bass"
				Note Time="23" Value="F3" Duration="1" Instrument="DMC: drums + bass"
				Note Time="24" Value="E5" Duration="1" Instrument="DMC: drums + bass"
				Note Time="25" Value="A3" Duration="1" Instrument="DMC: drums + bass"
				Note Time="26" Value="A3" Duration="1" Instrument="DMC: drums + bass"
				Note Time="27" Value="A3" Duration="1" Instrument="DMC: drums + bass"
				Note Time="28" Value="F5" Duration="1" Instrument="DMC: drums + bass"
				Note Time="29" Value="A3" Duration="1" Instrument="DMC: drums + bass"
				Note Time="30" Value="A3" Duration="1" Instrument="DMC: drums + bass"
				Note Time="31" Value="A3" Duration="1" Instrument="DMC: drums + bass"
				Note Time="32" Value="E5" Duration="1" Instrument="DMC: drums + bass"
				Note Time="33" Value="A3" Duration="1" Instrument="DMC: drums + bass"
				Note Time="34" Value="A3" Duration="1" Instrument="DMC: drums + bass"
				Note Time="35" Value="A3" Duration="1" Instrument="DMC: drums + bass"
				Note Time="36" Value="F5" Duration="1" Instrument="DMC: drums + bass"
				Note Time="37" Value="F3" Duration="1" Instrument="DMC: drums + bass"
				Note Time="38" Value="F3" Duration="1" Instrument="DMC: drums + bass"
				Note Time="39" Value="F3" Duration="1" Instrument="DMC: drums + bass"
				Note Time="40" Value="E5" Duration="1" Instrument="DMC: drums + bass"
				Note Time="41" Value="E3" Duration="1" Instrument="DMC: drums + bass"
				Note Time="42" Value="E3" Duration="1" Instrument="DMC: drums + bass"
				Note Time="43" Value="E3" Duration="1" Instrument="DMC: drums + bass"
				Note Time="44" Value="F5" Duration="2" Instrument="DMC: drums + bass"
				Note Time="46" Value="E3" Duration="1" Instrument="DMC: drums + bass"
				Note Time="47" Value="E3" Duration="1" Instrument="DMC: drums + bass"
				Note Time="48" Value="E5" Duration="1" Instrument="DMC: drums + bass"
				Note Time="49" Value="A3" Duration="1" Instrument="DMC: drums + bass"
				Note Time="50" Value="A3" Duration="1" Instrument="DMC: drums + bass"
				Note Time="51" Value="A3" Duration="1" Instrument="DMC: drums + bass"
				Note Time="52" Value="F5" Duration="1" Instrument="DMC: drums + bass"
				Note Time="53" Value="A3" Duration="1" Instrument="DMC: drums + bass"
				Note Time="54" Value="A3" Duration="1" Instrument="DMC: drums + bass"
				Note Time="55" Value="A3" Duration="1" Instrument="DMC: drums + bass"
				Note Time="56" Value="B3" Duration="1" Instrument="DMC: drums + bass"
				Note Time="57" Value="B3" Duration="1" Instrument="DMC: drums + bass"
				Note Time="58" Value="B3" Duration="1" Instrument="DMC: drums + bass"
				Note Time="59" Value="B3" Duration="1" Instrument="DMC: drums + bass"
				Note Time="60" Value="G3" Duration="1" Instrument="DMC: drums + bass"
				Note Time="61" Value="G3" Duration="1" Instrument="DMC: drums + bass"
				Note Time="62" Value="G3" Duration="1" Instrument="DMC: drums + bass"
				Note Time="63" Value="G3" Duration="1" Instrument="DMC: drums + bass"
			PatternInstance Time="0" Pattern="00"
			PatternInstance Time="1" Pattern="01"
			PatternInstance Time="2" Pattern="02"
			PatternInstance Time="3" Pattern="03"
			PatternInstance Time="4" Pattern="04"
			PatternInstance Time="5" Pattern="04"
			PatternInstance Time="6" Pattern="04"
			PatternInstance Time="7" Pattern="05"
			PatternInstance Time="8" Pattern="04"
			PatternInstance Time="9" Pattern="05"
	Song Name="Blast Processing" Color="ffe362" Folder="Unused" Length="6" LoopPoint="0" PatternLength="64" BeatLength="4" FamiTrackerTempo="135" FamiTrackerSpeed="6"
		Channel Type="Square1"
			Pattern Name="01" Color="ffff75"
				Note Time="0" Value="F#1" Duration="10" Instrument="Instrument 2"
				Note Time="10" Value="F#1" Duration="6" Instrument="Instrument 2"
				Note Time="16" Value="F#1" Duration="10" Instrument="Instrument 2"
				Note Time="26" Value="F#1" Duration="6" Instrument="Instrument 2"
				Note Time="32" Value="D1" Duration="3" Instrument="Instrument 2"
				Note Time="35" Value="D1" Duration="3" Instrument="Instrument 2"
				Note Time="38" Value="D1" Duration="6" Instrument="Instrument 2"
				Note Time="44" Value="D1" Duration="4" Instrument="Instrument 2"
				Note Time="48" Value="E1" Duration="3" Instrument="Instrument 2"
				Note Time="51" Value="E1" Duration="3" Instrument="Instrument 2"
				Note Time="54" Value="E1" Duration="6" Instrument="Instrument 2"
				Note Time="60" Value="E1" Duration="4" Instrument="Instrument 2"
			Pattern Name="02" Color="3ce8fd"
				Note Time="0" Value="F#1" Duration="10" Instrument="Instrument 2"
				Note Time="10" Value="F#1" Duration="6" Instrument="Instrument 2"
				Note Time="16" Value="F#1" Duration="10" Instrument="quiet bass"
				Note Time="26" Value="F#1" Duration="6" Instrument="quiet bass"
				Note Time="32" Value="D1" Duration="3" Instrument="quiet bass"
				Note Time="35" Value="D1" Duration="3" Instrument="quiet bass"
				Note Time="38" Value="D1" Duration="6" Instrument="quiet bass"
				Note Time="44" Value="D1" Duration="4" Instrument="quiet bass"
				Note Time="48" Value="E1" Duration="3" Instrument="quiet bass"
				Note Time="51" Value="E1" Duration="3" Instrument="quiet bass"
				Note Time="54" Value="E1" Duration="4" Instrument="quiet bass"
				Note Time="58" Value="A1" Duration="2" Instrument="Instrument 2"
				Note Time="60" Value="G#1" Duration="2" Instrument="Instrument 2"
				Note Time="62" Value="E1" Duration="2" Instrument="Instrument 2"
			Pattern Name="03" Color="8d69e4"
				Note Time="0" Value="F#2" Duration="6" Release="2" Instrument="blank string" Volume="8"
				Note Time="6" Value="F#1" Duration="10" Release="2" Instrument="blank string"
				Note Time="16" Value="F#1" Duration="6" Release="2" Instrument="blank string"
				Note Time="22" Value="F#1" Duration="10" Release="2" Instrument="blank string"
				Note Time="32" Value="A2" Duration="6" Release="2" Instrument="blank string"
				Note Time="38" Value="A2" Duration="10" Release="2" Instrument="blank string"
				Note Time="48" Value="B2" Duration="6" Release="2" Instrument="blank string"
				Note Time="54" Value="B2" Duration="6" Release="2" Instrument="blank string"
				Note Time="60" Value="D3" Duration="4" Release="2" Instrument="blank string"
			Pattern Name="04" Color="997c73"
				Note Time="0" Value="C#3" Duration="6" Release="2" Instrument="blank string"
				Note Time="6" Value="F#1" Duration="10" Release="2" Instrument="blank string"
				Note Time="16" Value="F#1" Duration="6" Release="2" Instrument="blank string"
				Note Time="22" Value="F#1" Duration="10" Release="2" Instrument="blank string"
				Note Time="32" Value="A2" Duration="6" Release="2" Instrument="blank string"
				Note Time="38" Value="A2" Duration="10" Release="2" Instrument="blank string"
				Note Time="48" Value="B2" Duration="6" Release="2" Instrument="blank string"
				Note Time="54" Value="B2" Duration="6" Release="2" Instrument="blank string"
				Note Time="60" Value="E3" Duration="4" Release="2" Instrument="blank string"
			Pattern Name="05" Color="ffe461"
				Note Time="0" Value="F#3" Duration="2" Release="1" Instrument="blank string"
				Note Time="2" Value="F#2" Duration="2" Instrument="Instrument 2" Volume="10" DutyCycle="2"
				Note Time="4" Value="F#2" Duration="1" Instrument="Instrument 2"
				Note Time="5" Value="F#2" Duration="2" Instrument="Instrument 2"
				Note Time="7" Value="F#2" Duration="2" Instrument="Instrument 2"
				Note Time="9" Value="F#2" Duration="1" Instrument="Instrument 2"
				Note Time="10" Value="F#2" Duration="2" Instrument="Instrument 2"
				Note Time="12" Value="F#2" Duration="4" Instrument="Instrument 2"
				Note Time="16" Value="F#2" Duration="2" Instrument="Instrument 2"
				Note Time="18" Value="F#2" Duration="2" Instrument="Instrument 2"
				Note Time="20" Value="F#2" Duration="1" Instrument="Instrument 2"
				Note Time="21" Value="F#2" Duration="2" Instrument="Instrument 2"
				Note Time="23" Value="F#2" Duration="2" Instrument="Instrument 2"
				Note Time="25" Value="F#2" Duration="1" Instrument="Instrument 2"
				Note Time="26" Value="F#2" Duration="2" Instrument="Instrument 2"
				Note Time="28" Value="F#2" Duration="4" Instrument="Instrument 2"
				Note Time="32" Value="D2" Duration="2" Instrument="Instrument 2"
				Note Time="34" Value="D2" Duration="2" Instrument="Instrument 2"
				Note Time="36" Value="D2" Duration="1" Instrument="Instrument 2"
				Note Time="37" Value="D2" Duration="2" Instrument="Instrument 2"
				Note Time="39" Value="D2" Duration="2" Instrument="Instrument 2"
				Note Time="41" Value="D2" Duration="1" Instrument="Instrument 2"
				Note Time="42" Value="D2" Duration="2" Instrument="Instrument 2"
				Note Time="44" Value="D2" Duration="4" Instrument="Instrument 2"
				Note Time="48" Value="E2" Duration="2" Instrument="Instrument 2"
				Note Time="50" Value="E2" Duration="2" Instrument="Instrument 2"
				Note Time="52" Value="E2" Duration="1" Instrument="Instrument 2"
				Note Time="53" Value="E2" Duration="2" Instrument="Instrument 2"
				Note Time="55" Value="E2" Duration="2" Instrument="Instrument 2"
				Note Time="57" Value="E2" Duration="1" Instrument="Instrument 2"
				Note Time="58" Value="E2" Duration="2" Instrument="Instrument 2"
				Note Time="60" Value="A2" Duration="1" Instrument="Instrument 2"
				Note Time="61" Value="G#2" Duration="1" Instrument="Instrument 2"
				Note Time="62" Value="F#2" Duration="1" Instrument="Instrument 2"
				Note Time="63" Value="E2" Duration="1" Instrument="Instrument 2"
			PatternInstance Time="0" Pattern="01"
			PatternInstance Time="1" Pattern="02"
			PatternInstance Time="2" Pattern="03"
			PatternInstance Time="3" Pattern="04"
			PatternInstance Time="4" Pattern="05"
			PatternInstance Time="5" Pattern="05"
		Channel Type="Square2"
			Pattern Name="01" Color="89f2e8"
				Note Time="0" Value="F#1" Duration="4" Instrument="hex guitar 1" Volume="6"
				Note Time="10" Value="F#1" Duration="2" Instrument="hex guitar 1"
				Note Time="16" Value="F#1" Duration="3" Instrument="hex guitar 1"
				Note Time="26" Value="F#1" Duration="2" Instrument="hex guitar 1"
				Note Time="32" Value="D1" Duration="3" Instrument="hex guitar 1"
				Note Time="35" Value="D1" Duration="3" Instrument="hex guitar 1"
				Note Time="38" Value="D1" Duration="2" Instrument="hex guitar 1"
				Note Time="44" Value="D1" Duration="4" Instrument="hex guitar 1"
				Note Time="48" Value="E1" Duration="3" Instrument="hex guitar 1"
				Note Time="51" Value="E1" Duration="3" Instrument="hex guitar 1"
				Note Time="54" Value="E1" Duration="2" Instrument="hex guitar 1"
				Note Time="60" Value="E1" Duration="4" Instrument="hex guitar 1"
			Pattern Name="02" Color="98a7fc"
				Note Time="0" Value="F#1" Duration="4" Instrument="hex guitar 1" Volume="6"
				Note Time="10" Value="F#1" Duration="2" Instrument="hex guitar 1"
				Note Time="16" Value="F#1" Duration="3" Instrument="hex guitar 1"
				Note Time="26" Value="F#1" Duration="2" Instrument="hex guitar 1"
				Note Time="32" Value="D1" Duration="3" Instrument="hex guitar 1"
				Note Time="35" Value="D1" Duration="3" Instrument="hex guitar 1"
				Note Time="38" Value="D1" Duration="2" Instrument="hex guitar 1"
				Note Time="44" Value="D1" Duration="4" Instrument="hex guitar 1"
				Note Time="48" Value="E1" Duration="3" Instrument="hex guitar 1"
				Note Time="51" Value="E1" Duration="3" Instrument="hex guitar 1"
				Note Time="54" Value="E1" Duration="2" Instrument="hex guitar 1"
				Note Time="58" Value="A1" Duration="2" Instrument="hex guitar 1"
				Note Time="60" Value="G#1" Duration="2" Instrument="hex guitar 1"
				Note Time="62" Value="E1" Duration="2" Instrument="hex guitar 1"
			Pattern Name="03" Color="ff7f72"
				Note Time="0" Value="A3" Duration="1" Instrument="blank"
				Note Time="1" Value="A2" Duration="1" Instrument="blank"
				Note Time="3" Value="F#3" Duration="1" Instrument="blank"
				Note Time="4" Value="F#2" Duration="1" Instrument="blank"
				Note Time="6" Value="F#2" Duration="2" Instrument="blank"
				Note Time="7" CutDelay="3"
				Note Time="8" Value="F#2" Duration="1" Instrument="blank"
				Note Time="10" Value="F#2" Duration="1" Instrument="blank"
				Note Time="12" Value="F#2" Duration="2" Instrument="blank"
				Note Time="16" Value="F#3" Duration="1" Instrument="blank"
				Note Time="17" Value="F#2" Duration="1" Instrument="blank"
				Note Time="19" Value="F#3" Duration="3" Instrument="blank"
				Note Time="20" CutDelay="3"
				Note Time="22" Value="F#2" Duration="2" Instrument="blank"
				Note Time="23" CutDelay="3"
				Note Time="24" Value="F#2" Duration="1" Instrument="blank"
				Note Time="26" Value="F#2" Duration="1" Instrument="blank"
				Note Time="28" Value="F#2" Duration="2" Instrument="blank"
				Note Time="32" Value="A3" Duration="1" Instrument="blank"
				Note Time="33" Value="F#2" Duration="1" Instrument="blank"
				Note Time="35" Value="F#3" Duration="1" Instrument="blank"
				Note Time="36" Value="D2" Duration="1" Instrument="blank"
				Note Time="38" Value="D2" Duration="2" Instrument="blank"
				Note Time="39" CutDelay="3"
				Note Time="40" Value="D2" Duration="1" Instrument="blank"
				Note Time="42" Value="D2" Duration="1" Instrument="blank"
				Note Time="44" Value="D2" Duration="2" Instrument="blank"
				Note Time="47" Value="D2" Duration="1" Instrument="blank"
				Note Time="48" Value="E2" Duration="2" Instrument="blank"
				Note Time="51" Value="E2" Duration="1" Instrument="blank"
				Note Time="54" Value="E2" Duration="2" Instrument="blank"
				Note Time="55" CutDelay="3"
				Note Time="56" Value="E2" Duration="1" Instrument="blank"
				Note Time="58" Value="E2" Duration="1" Instrument="blank"
				Note Time="60" Value="E2" Duration="2" Instrument="blank"
			Pattern Name="04" Color="fffd43"
				Note Time="0" Value="A3" Duration="1" Instrument="blank"
				Note Time="1" Value="F#3" Duration="1" Instrument="blank"
				Note Time="2" Value="E3" Duration="1" Instrument="blank"
				Note Time="3" Value="F#3" Duration="1" Instrument="blank"
				Note Time="4" Value="F#2" Duration="1" Instrument="blank"
				Note Time="5" Value="F#3" Duration="1" Instrument="blank"
				Note Time="6" Value="F#2" Duration="1" Instrument="blank"
				Note Time="7" Value="F#2" Duration="1" Instrument="blank" CutDelay="3"
				Note Time="8" Value="F#2" Duration="1" Instrument="blank"
				Note Time="10" Value="F#2" Duration="1" Instrument="blank"
				Note Time="12" Value="F#2" Duration="2" Instrument="blank"
				Note Time="16" Value="F#3" Duration="1" Instrument="blank"
				Note Time="17" Value="F#2" Duration="1" Instrument="blank"
				Note Time="19" Value="F#3" Duration="1" Instrument="blank"
				Note Time="21" Value="A2" Duration="1" Instrument="blank"
				Note Time="22" Value="F#2" Duration="1" Instrument="blank"
				Note Time="23" Value="E2" Duration="1" Instrument="blank"
				Note Time="24" Value="F#2" Duration="1" Instrument="blank"
				Note Time="26" Value="F#2" Duration="1" Instrument="blank"
				Note Time="28" Value="F#2" Duration="2" Instrument="blank"
				Note Time="32" Value="A3" Duration="1" Instrument="blank"
				Note Time="33" Value="F#3" Duration="1" Instrument="blank"
				Note Time="34" Value="E3" Duration="1" Instrument="blank"
				Note Time="35" Value="F#3" Duration="1" Instrument="blank"
				Note Time="36" Value="F#2" Duration="1" Instrument="blank"
				Note Time="37" Value="F#3" Duration="1" Instrument="blank"
				Note Time="38" Value="D2" Duration="1" Instrument="blank"
				Note Time="39" Value="D2" Duration="1" Instrument="blank" CutDelay="3"
				Note Time="40" Value="D2" Duration="1" Instrument="blank"
				Note Time="42" Value="D2" Duration="1" Instrument="blank"
				Note Time="44" Value="D2" Duration="2" Instrument="blank"
				Note Time="45" CutDelay="3"
				Note Time="46" Value="E2" Duration="1" Instrument="blank"
				Note Time="47" Value="D2" Duration="1" Instrument="blank"
				Note Time="48" Value="E2" Duration="2" Instrument="blank"
				Note Time="51" Value="E2" Duration="1" Instrument="blank"
				Note Time="53" Value="E3" Duration="1" Instrument="blank"
				Note Time="54" Value="E2" Duration="1" Instrument="blank"
				Note Time="55" Value="E3" Duration="1" Instrument="blank" CutDelay="3"
				Note Time="56" Value="E3" Duration="1" Instrument="blank"
				Note Time="57" Value="F#3" Duration="1" Instrument="blank"
				Note Time="58" Value="E2" Duration="1" Instrument="blank"
				Note Time="59" Value="A3" Duration="1" Instrument="blank"
				Note Time="60" Value="E2" Duration="1" Instrument="blank"
				Note Time="61" Value="A3" Duration="1" Instrument="blank"
				Note Time="62" Value="G#3" Duration="1" Instrument="blank"
				Note Time="63" Value="E3" Duration="1" Instrument="blank"
			Pattern Name="05" Color="7fdc83"
				Note Time="0" Value="F#2" Duration="4" Instrument="sample" Volume="15" DutyCycle="0"
				Note Time="4" Value="F#2" Duration="1" Instrument="sample"
				Note Time="5" Value="F#3" Duration="1" Instrument="sample"
				Note Time="6" Value="F#2" Duration="1" Instrument="sample"
				Note Time="7" Value="A2" Duration="1" Instrument="sample"
				Note Time="8" Value="C#3" Duration="3" Instrument="sample"
				Note Time="11" Value="E3" Duration="3" Instrument="sample"
				Note Time="14" Value="C#3" Duration="2" Instrument="sample"
				Note Time="16" Value="F#2" Duration="4" Instrument="sample"
				Note Time="20" Value="F#2" Duration="1" Instrument="sample"
				Note Time="21" Value="F#3" Duration="1" Instrument="sample"
				Note Time="22" Value="F#2" Duration="1" Instrument="sample"
				Note Time="23" Value="G#2" Duration="1" Instrument="sample"
				Note Time="24" Value="A2" Duration="3" Instrument="sample"
				Note Time="27" Value="C#3" Duration="1" Instrument="sample"
				Note Time="28" Value="A2" Duration="2" Instrument="sample"
				Note Time="30" Value="F#2" Duration="2" Instrument="sample"
				Note Time="32" Value="F#2" Duration="4" Instrument="sample"
				Note Time="36" Value="F#2" Duration="1" Instrument="sample"
				Note Time="37" Value="F#3" Duration="1" Instrument="sample"
				Note Time="38" Value="F#2" Duration="1" Instrument="sample"
				Note Time="39" Value="A2" Duration="1" Instrument="sample"
				Note Time="40" Value="C#3" Duration="3" Instrument="sample"
				Note Time="43" Value="E3" Duration="3" Instrument="sample"
				Note Time="46" Value="C#3" Duration="2" Instrument="sample"
				Note Time="48" Value="F#2" Duration="4" Instrument="sample"
				Note Time="52" Value="F#2" Duration="1" Instrument="sample"
				Note Time="53" Value="F#3" Duration="1" Instrument="sample"
				Note Time="54" Value="F#2" Duration="1" Instrument="sample"
				Note Time="55" Value="G#2" Duration="1" Instrument="sample"
				Note Time="56" Value="A2" Duration="3" Instrument="sample"
				Note Time="59" Value="C#3" Duration="1" Instrument="sample"
				Note Time="60" Value="A2" Duration="2" Instrument="sample"
				Note Time="62" Value="F#2" Duration="2" Instrument="sample"
			PatternInstance Time="0" Pattern="01"
			PatternInstance Time="1" Pattern="02"
			PatternInstance Time="2" Pattern="03"
			PatternInstance Time="3" Pattern="04"
			PatternInstance Time="4" Pattern="05"
			PatternInstance Time="5" Pattern="05"
		Channel Type="Triangle"
			Pattern Name="01" Color="e95093"
				Note Time="0" Value="F#2" Duration="10" Instrument="Instrument 2"
				Note Time="10" Value="F#2" Duration="6" Instrument="Instrument 2"
				Note Time="16" Value="F#2" Duration="10" Instrument="Instrument 2"
				Note Time="26" Value="F#2" Duration="6" Instrument="Instrument 2"
				Note Time="32" Value="D2" Duration="3" Instrument="Instrument 2"
				Note Time="35" Value="D2" Duration="3" Instrument="Instrument 2"
				Note Time="38" Value="D2" Duration="6" Instrument="Instrument 2"
				Note Time="44" Value="D2" Duration="4" Instrument="Instrument 2"
				Note Time="48" Value="E2" Duration="3" Instrument="Instrument 2"
				Note Time="51" Value="E2" Duration="3" Instrument="Instrument 2"
				Note Time="54" Value="E2" Duration="6" Instrument="Instrument 2"
				Note Time="60" Value="E2" Duration="4" Instrument="Instrument 2"
			Pattern Name="02" Color="ffa83c"
				Note Time="0" Value="F#2" Duration="10" Instrument="Instrument 2"
				Note Time="10" Value="F#2" Duration="6" Instrument="Instrument 2"
				Note Time="16" Value="F#2" Duration="10" Instrument="Instrument 2"
				Note Time="26" Value="F#2" Duration="6" Instrument="Instrument 2"
				Note Time="32" Value="D2" Duration="3" Instrument="Instrument 2"
				Note Time="35" Value="D2" Duration="3" Instrument="Instrument 2"
				Note Time="38" Value="D2" Duration="6" Instrument="Instrument 2"
				Note Time="44" Value="D2" Duration="4" Instrument="Instrument 2"
				Note Time="48" Value="E2" Duration="3" Instrument="Instrument 2"
				Note Time="51" Value="E2" Duration="3" Instrument="Instrument 2"
				Note Time="54" Value="E2" Duration="4" Instrument="Instrument 2"
				Note Time="58" Value="A2" Duration="2" Instrument="Instrument 2"
				Note Time="60" Value="G#2" Duration="2" Instrument="Instrument 2"
				Note Time="62" Value="E2" Duration="130" Instrument="Instrument 2"
			PatternInstance Time="2" Pattern="01"
			PatternInstance Time="3" Pattern="02"
		Channel Type="Noise"
			Pattern Name="00" Color="65f2ff"
				Note Time="0" Value="G3" Duration="2" Instrument="hat" Volume="15"
				Note Time="2" Value="G3" Duration="2" Instrument="hat"
				Note Time="4" Value="G3" Duration="2" Instrument="hat"
				Note Time="6" Value="G3" Duration="2" Instrument="hat"
				Note Time="8" Value="G3" Duration="2" Instrument="hat"
				Note Time="10" Value="G3" Duration="2" Instrument="hat"
				Note Time="12" Value="G3" Duration="2" Instrument="hat"
				Note Time="14" Value="G3" Duration="2" Instrument="hat"
				Note Time="16" Value="G3" Duration="2" Instrument="hat"
				Note Time="18" Value="G3" Duration="2" Instrument="hat"
				Note Time="20" Value="G3" Duration="2" Instrument="hat"
				Note Time="22" Value="G3" Duration="2" Instrument="hat"
				Note Time="24" Value="G3" Duration="2" Instrument="hat"
				Note Time="26" Value="G3" Duration="2" Instrument="hat"
				Note Time="28" Value="G3" Duration="2" Instrument="hat"
				Note Time="30" Value="G3" Duration="2" Instrument="hat"
				Note Time="32" Value="G3" Duration="2" Instrument="hat"
				Note Time="34" Value="G3" Duration="2" Instrument="hat"
				Note Time="36" Value="G3" Duration="2" Instrument="hat"
				Note Time="38" Value="G3" Duration="2" Instrument="hat"
				Note Time="40" Value="G3" Duration="2" Instrument="hat"
				Note Time="42" Value="G3" Duration="2" Instrument="hat"
				Note Time="44" Value="G3" Duration="2" Instrument="hat"
				Note Time="46" Value="G3" Duration="2" Instrument="hat"
				Note Time="48" Value="G3" Duration="2" Instrument="hat"
				Note Time="50" Value="G3" Duration="2" Instrument="hat"
				Note Time="52" Value="G3" Duration="2" Instrument="hat"
				Note Time="54" Value="G3" Duration="1" Instrument="hat"
				Note Time="55" Value="F3" Duration="1" Instrument="clap" Volume="8"
				Note Time="56" Value="G3" Duration="1" Instrument="hat" Volume="15"
				Note Time="57" Value="F3" Duration="1" Instrument="clap" Volume="8"
				Note Time="58" Value="G3" Duration="2" Instrument="hat" Volume="15"
				Note Time="60" Value="G3" Duration="2" Instrument="hat"
				Note Time="62" Value="G3" Duration="2" Instrument="hat"
			Pattern Name="01" Color="d863ec"
				Note Time="0" Value="G#3" Duration="3" Instrument="cymbal"
				Note Time="3" Value="F#3" Duration="1" Instrument="hat"
				Note Time="4" Value="G3" Duration="3" Instrument="rel hats"
				Note Time="7" Value="F#3" Duration="1" Instrument="hat"
				Note Time="8" Value="F#3" Duration="3" Instrument="rel hats"
				Note Time="11" Value="F#3" Duration="3" Instrument="rel hats"
				Note Time="14" Value="F#3" Duration="2" Instrument="rel hats"
				Note Time="16" Value="G3" Duration="3" Instrument="rel hats"
				Note Time="19" Value="F#3" Duration="1" Instrument="hat"
				Note Time="20" Value="G3" Duration="3" Instrument="rel hats"
				Note Time="23" Value="F#3" Duration="1" Instrument="hat"
				Note Time="24" Value="F#3" Duration="3" Instrument="rel hats"
				Note Time="27" Value="F#3" Duration="3" Instrument="rel hats"
				Note Time="30" Value="F#3" Duration="2" Instrument="rel hats"
				Note Time="32" Value="G3" Duration="3" Instrument="rel hats"
				Note Time="35" Value="F#3" Duration="1" Instrument="hat"
				Note Time="36" Value="G3" Duration="3" Instrument="rel hats"
				Note Time="39" Value="F#3" Duration="1" Instrument="hat"
				Note Time="40" Value="F#3" Duration="3" Instrument="rel hats"
				Note Time="43" Value="F#3" Duration="3" Instrument="rel hats"
				Note Time="46" Value="F#3" Duration="2" Instrument="rel hats"
				Note Time="48" Value="G3" Duration="3" Instrument="rel hats"
				Note Time="51" Value="F#3" Duration="1" Instrument="hat"
				Note Time="52" Value="G3" Duration="3" Instrument="rel hats"
				Note Time="55" Value="F#3" Duration="1" Instrument="hat"
				Note Time="56" Value="F#3" Duration="3" Instrument="rel hats"
				Note Time="59" Value="F#3" Duration="3" Instrument="rel hats"
				Note Time="62" Value="F#3" Duration="2" Instrument="rel hats"
			PatternInstance Time="0" Pattern="00"
			PatternInstance Time="1" Pattern="00"
			PatternInstance Time="2" Pattern="00"
			PatternInstance Time="3" Pattern="00"
			PatternInstance Time="4" Pattern="01"
			PatternInstance Time="5" Pattern="01"
		Channel Type="DPCM"
			Pattern Name="00" Color="ff935e"
				Note Time="0" Value="E5" Duration="4" Instrument="DMC: drums + bass"
				Note Time="4" Value="F5" Duration="6" Instrument="DMC: drums + bass"
				Note Time="10" Value="E5" Duration="2" Instrument="DMC: drums + bass"
				Note Time="12" Value="F5" Duration="4" Instrument="DMC: drums + bass"
				Note Time="16" Value="E5" Duration="4" Instrument="DMC: drums + bass"
				Note Time="20" Value="F5" Duration="6" Instrument="DMC: drums + bass"
				Note Time="26" Value="E5" Duration="2" Instrument="DMC: drums + bass"
				Note Time="28" Value="F5" Duration="2" Instrument="DMC: drums + bass"
				Note Time="30" Value="E5" Duration="1" Instrument="DMC: drums + bass"
				Note Time="31" Value="F5" Duration="1" Instrument="DMC: drums + bass"
				Note Time="32" Value="E5" Duration="4" Instrument="DMC: drums + bass"
				Note Time="36" Value="F5" Duration="6" Instrument="DMC: drums + bass"
				Note Time="42" Value="E5" Duration="2" Instrument="DMC: drums + bass"
				Note Time="44" Value="F5" Duration="4" Instrument="DMC: drums + bass"
				Note Time="48" Value="E5" Duration="4" Instrument="DMC: drums + bass"
				Note Time="52" Value="F5" Duration="2" Instrument="DMC: drums + bass"
				Note Time="54" Value="E5" Duration="4" Instrument="DMC: drums + bass"
				Note Time="58" Value="E5" Duration="2" Instrument="DMC: drums + bass"
				Note Time="60" Value="F5" Duration="2" Instrument="DMC: drums + bass"
				Note Time="62" Value="E5" Duration="1" Instrument="DMC: drums + bass"
				Note Time="63" Value="F5" Duration="1" Instrument="DMC: drums + bass"
			Pattern Name="02" Color="fcff6f"
				Note Time="0" Value="E5" Duration="1" Instrument="DMC: drums + bass"
				Note Time="1" Value="F#3" Duration="1" Instrument="DMC: drums + bass"
				Note Time="2" Value="E5" Duration="1" Instrument="DMC: drums + bass"
				Note Time="3" Value="F#3" Duration="1" Instrument="DMC: drums + bass"
				Note Time="4" Value="F5" Duration="1" Instrument="DMC: drums + bass"
				Note Time="5" Value="F#3" Duration="2" Instrument="DMC: drums + bass"
				Note Time="7" Value="E5" Duration="1" Instrument="DMC: drums + bass"
				Note Time="8" Value="F#3" Duration="2" Instrument="DMC: drums + bass"
				Note Time="10" Value="E5" Duration="1" Instrument="DMC: drums + bass"
				Note Time="11" Value="F#3" Duration="1" Instrument="DMC: drums + bass"
				Note Time="12" Value="F5" Duration="4" Instrument="DMC: drums + bass"
				Note Time="16" Value="E5" Duration="1" Instrument="DMC: drums + bass"
				Note Time="17" Value="F#3" Duration="1" Instrument="DMC: drums + bass"
				Note Time="18" Value="E5" Duration="1" Instrument="DMC: drums + bass"
				Note Time="19" Value="F#3" Duration="1" Instrument="DMC: drums + bass"
				Note Time="20" Value="F5" Duration="1" Instrument="DMC: drums + bass"
				Note Time="21" Value="F#3" Duration="2" Instrument="DMC: drums + bass"
				Note Time="23" Value="E5" Duration="1" Instrument="DMC: drums + bass"
				Note Time="24" Value="F#3" Duration="2" Instrument="DMC: drums + bass"
				Note Time="26" Value="E5" Duration="1" Instrument="DMC: drums + bass"
				Note Time="27" Value="F#3" Duration="1" Instrument="DMC: drums + bass"
				Note Time="28" Value="F5" Duration="2" Instrument="DMC: drums + bass"
				Note Time="30" Value="E5" Duration="1" Instrument="DMC: drums + bass"
				Note Time="31" Value="F5" Duration="1" Instrument="DMC: drums + bass"
				Note Time="32" Value="E5" Duration="1" Instrument="DMC: drums + bass"
				Note Time="33" Value="D3" Duration="1" Instrument="DMC: drums + bass"
				Note Time="34" Value="E5" Duration="1" Instrument="DMC: drums + bass"
				Note Time="35" Value="D3" Duration="1" Instrument="DMC: drums + bass"
				Note Time="36" Value="F5" Duration="1" Instrument="DMC: drums + bass"
				Note Time="37" Value="D3" Duration="2" Instrument="DMC: drums + bass"
				Note Time="39" Value="E5" Duration="1" Instrument="DMC: drums + bass"
				Note Time="40" Value="D3" Duration="2" Instrument="DMC: drums + bass"
				Note Time="42" Value="E5" Duration="1" Instrument="DMC: drums + bass"
				Note Time="43" Value="D3" Duration="1" Instrument="DMC: drums + bass"
				Note Time="44" Value="F5" Duration="4" Instrument="DMC: drums + bass"
				Note Time="48" Value="E5" Duration="1" Instrument="DMC: drums + bass"
				Note Time="49" Value="E3" Duration="1" Instrument="DMC: drums + bass"
				Note Time="50" Value="E5" Duration="1" Instrument="DMC: drums + bass"
				Note Time="51" Value="E3" Duration="1" Instrument="DMC: drums + bass"
				Note Time="52" Value="F5" Duration="1" Instrument="DMC: drums + bass"
				Note Time="53" Value="E3" Duration="2" Instrument="DMC: drums + bass"
				Note Time="55" Value="E5" Duration="1" Instrument="DMC: drums + bass"
				Note Time="56" Value="E3" Duration="2" Instrument="DMC: drums + bass"
				Note Time="58" Value="E5" Duration="1" Instrument="DMC: drums + bass"
				Note Time="59" Value="E3" Duration="1" Instrument="DMC: drums + bass"
				Note Time="60" Value="F5" Duration="1" Instrument="DMC: drums + bass"
				Note Time="61" Value="G#3" Duration="1" Instrument="DMC: drums + bass"
				Note Time="62" Value="F#3" Duration="1" Instrument="DMC: drums + bass"
				Note Time="63" Value="E3" Duration="1" Instrument="DMC: drums + bass"
			PatternInstance Time="0" Pattern="00"
			PatternInstance Time="1" Pattern="00"
			PatternInstance Time="2" Pattern="00"
			PatternInstance Time="3" Pattern="00"
			PatternInstance Time="4" Pattern="02"
			PatternInstance Time="5" Pattern="02"
	Song Name="Clutterfunk" Color="ff7f51" Folder="Official music used in the game" Length="22" LoopPoint="-1" PatternLength="64" BeatLength="4" FamiTrackerTempo="140" FamiTrackerSpeed="6"
		PatternCustomSettings Time="0" Length="4"
		PatternCustomSettings Time="8" Length="24"
		PatternCustomSettings Time="21" Length="44"
		Channel Type="Square1"
			Pattern Name="00" Color="ffff94"
				Note Time="0" Value="G2" Duration="1" Instrument="clutterfunk sax" Volume="10" DutyCycle="1"
				Note Time="2" Value="F#2" Duration="1" Instrument="clutterfunk sax" FinePitch="0"
			Pattern Name="01" Color="3cd2c4"
				Note Time="0" Value="B1" Duration="4" Release="1" Instrument="clutterfunk sax" Volume="8" DutyCycle="1"
				Note Time="4" Value="F#2" Duration="4" Release="1" Instrument="clutterfunk sax"
				Note Time="8" Value="F2" Duration="4" Release="1" Instrument="clutterfunk sax"
				Note Time="12" Value="F#2" Duration="4" Release="1" Instrument="clutterfunk sax"
				Note Time="16" Value="B1" Duration="4" Release="1" Instrument="clutterfunk sax"
				Note Time="20" Value="G4" Duration="2" Instrument="Instrument 2" SlideTarget="D5" Volume="12"
				Note Time="22" Value="D5" Duration="10" Instrument="Instrument 2" Attack="False"
				Note Time="32" Value="B1" Duration="4" Release="1" Instrument="clutterfunk sax" Volume="8"
				Note Time="36" Value="F#2" Duration="4" Release="1" Instrument="clutterfunk sax"
				Note Time="40" Value="F2" Duration="4" Release="1" Instrument="clutterfunk sax"
				Note Time="44" Value="F#2" Duration="4" Release="1" Instrument="clutterfunk sax"
				Note Time="48" Value="G2" Duration="3" Release="1" Instrument="clutterfunk sax"
				Note Time="51" Value="F2" Duration="1" Instrument="clutterfunk sax"
				Note Time="52" Value="F#2" Duration="2" Release="1" Instrument="clutterfunk sax"
				Note Time="54" Value="G2" Duration="2" Release="1" Instrument="clutterfunk sax"
				Note Time="56" Value="F#2" Duration="4" Release="1" Instrument="clutterfunk sax"
				Note Time="59" DutyCycle="1"
				Note Time="60" Value="F#2" Duration="4" Release="1" Instrument="clutterfunk sax" Volume="4"
			Pattern Name="02" Color="7585e7"
				Note Time="0" Value="B1" Duration="4" Release="1" Instrument="clutterfunk sax" Volume="8"
				Note Time="4" Value="F#2" Duration="4" Release="1" Instrument="clutterfunk sax"
				Note Time="8" Value="F2" Duration="4" Release="1" Instrument="clutterfunk sax"
				Note Time="12" Value="F#2" Duration="4" Release="1" Instrument="clutterfunk sax"
				Note Time="16" Value="B1" Duration="4" Release="1" Instrument="clutterfunk sax"
				Note Time="20" Value="G4" Duration="2" Instrument="Instrument 2" SlideTarget="D5" Volume="12"
				Note Time="22" Value="D5" Duration="10" Instrument="Instrument 2" Attack="False"
				Note Time="32" Value="B1" Duration="4" Release="1" Instrument="clutterfunk sax" Volume="8"
				Note Time="36" Value="F#2" Duration="4" Release="1" Instrument="clutterfunk sax"
				Note Time="40" Value="F2" Duration="4" Release="1" Instrument="clutterfunk sax"
				Note Time="44" Value="F#2" Duration="4" Release="1" Instrument="clutterfunk sax"
				Note Time="48" Value="G2" Duration="3" Release="1" Instrument="clutterfunk sax"
				Note Time="51" Value="F#2" Duration="1" Instrument="clutterfunk sax" CutDelay="4"
				Note Time="52" Value="D2" Duration="2" Release="1" Instrument="clutterfunk sax"
				Note Time="54" Value="C#2" Duration="2" Release="1" Instrument="clutterfunk sax"
				Note Time="56" Value="B1" Duration="8" Release="1" Instrument="clutterfunk sax"
			Pattern Name="03" Color="ff6b6b"
				Note Time="0" Value="B1" Duration="8" Release="1" Instrument="clutterfunk sax" Volume="8"
				Note Time="8" Value="B1" Duration="6" Release="1" Instrument="clutterfunk sax" Volume="6"
				Note Time="14" Value="B2" Duration="2" Instrument="triangle pluck"
				Note Time="16" Value="B1" Duration="3" Release="1" Instrument="clutterfunk sax" Volume="4"
				Note Time="19" Value="B2" Duration="4" Instrument="triangle pluck"
				Note Time="23" Value="B2" Duration="1" Instrument="triangle pluck"
				Note Time="24" Value="B1" Duration="2" Release="1" Instrument="clutterfunk sax" Volume="2"
				Note Time="26" Value="B4" Duration="2" Instrument="triangle pluck 4" Volume="3"
				Note Time="28" Value="B5" Duration="2" Instrument="triangle pluck 4"
				Note Time="30" Value="B4" Duration="2" Instrument="triangle pluck 4"
				Note Time="32" Value="B5" Duration="8" Instrument="triangle pluck 4"
				Note Time="40" Value="B4" Duration="8" Instrument="triangle pluck 4"
				Note Time="48" Value="C#1" Duration="8" Instrument="clutterfunk sax" SlideTarget="D#1" Volume="5"
				Note Time="56" Value="D#1" Duration="8" Instrument="clutterfunk sax" SlideTarget="G2" Attack="False"
			Pattern Name="04" Color="ffdc3c"
				Note Time="0" Value="B0" Duration="2" Instrument="DMC: drums + bass" Volume="9" DutyCycle="1"
				Note Time="1" FinePitch="5"
				Note Time="2" Value="B0" Duration="1" Instrument="DMC: drums + bass" SlideTarget="B1" DutyCycle="0"
				Note Time="3" Value="B1" Duration="1" Instrument="DMC: drums + bass" Attack="False"
				Note Time="4" Value="B0" Duration="1" Instrument="triangle pluck 4"
				Note Time="5" Value="B0" Duration="1" Instrument="triangle pluck 4"
				Note Time="6" Value="B0" Duration="1" Instrument="triangle pluck 4"
				Note Time="7" Value="B0" Duration="1" Instrument="triangle pluck 4"
				Note Time="8" Value="B0" Duration="3" Instrument="DMC: drums + bass" DutyCycle="0"
				Note Time="9" DutyCycle="1"
				Note Time="10" Volume="3"
				Note Time="11" Value="B0" Duration="3" Instrument="DMC: drums + bass" Volume="9" DutyCycle="0"
				Note Time="12" DutyCycle="1"
				Note Time="13" Volume="3"
				Note Time="14" Value="B0" Duration="2" Instrument="DMC: drums + bass" Volume="9" DutyCycle="1"
				Note Time="15" Volume="5"
				Note Time="16" Value="B0" Duration="1" Instrument="DMC: drums + bass" Volume="9"
				Note Time="17" Value="B0" Duration="3" Instrument="DMC: drums + bass" SlideTarget="A#1"
				Note Time="20" Value="B0" Duration="3" Instrument="DMC: drums + bass" Volume="9"
				Note Time="22" Volume="3"
				Note Time="23" Value="B0" Duration="1" Instrument="DMC: drums + bass" Volume="9"
				Note Time="24" Value="B0" Duration="1" Instrument="DMC: drums + bass" SlideTarget="B1"
				Note Time="25" Value="B1" Duration="2" Instrument="DMC: drums + bass" Attack="False"
				Note Time="26" Volume="3"
				Note Time="27" Value="B0" Duration="1" Instrument="triangle pluck 4" Volume="9"
				Note Time="28" Value="B0" Duration="1" Instrument="triangle pluck 4"
				Note Time="29" Value="B0" Duration="1" Instrument="triangle pluck 4"
				Note Time="30" Value="B0" Duration="1" Instrument="DMC: drums + bass" SlideTarget="D1" DutyCycle="0"
				Note Time="31" Value="D1" Duration="1" Instrument="DMC: drums + bass" Attack="False" DutyCycle="1"
				Note Time="32" Value="B1" Duration="3" Instrument="DMC: drums + bass"
				Note Time="35" Value="B1" Duration="1" Instrument="DMC: drums + bass" SlideTarget="B0"
				Note Time="36" Value="B0" Duration="2" Instrument="DMC: drums + bass" Attack="False"
				Note Time="37" Volume="3"
				Note Time="38" Value="B0" Duration="1" Instrument="triangle pluck 4" Volume="9"
				Note Time="39" Value="B0" Duration="1" Instrument="triangle pluck 4"
				Note Time="40" Value="B0" Duration="3" Instrument="DMC: drums + bass" DutyCycle="0"
				Note Time="41" DutyCycle="1"
				Note Time="42" Volume="3"
				Note Time="43" Value="B0" Duration="3" Instrument="DMC: drums + bass" Volume="9" DutyCycle="0"
				Note Time="44" DutyCycle="1"
				Note Time="45" Volume="3"
				Note Time="46" Value="B0" Duration="2" Instrument="DMC: drums + bass" Volume="9"
				Note Time="47" Volume="3"
				Note Time="48" Value="B0" Duration="2" Instrument="DMC: drums + bass" Volume="9" DutyCycle="0"
				Note Time="49" DutyCycle="1"
				Note Time="50" Value="B0" Duration="3" Release="2" Instrument="blank" SlideTarget="F#1"
				Note Time="53" Value="A#0" Duration="1" Instrument="DMC: drums + bass" DutyCycle="1"
				Note Time="54" Value="A#0" Duration="2" Instrument="blank" SlideTarget="B1"
				Note Time="56" Value="B1" Duration="6" Instrument="blank" Attack="False" VibratoSpeed="8" VibratoDepth="8"
				Note Time="62" Value="B1" Duration="2" Instrument="blank" SlideTarget="A#1" Attack="False" VibratoSpeed="0" VibratoDepth="0"
			Pattern Name="05" Color="6ab96e"
				Note Time="0" Value="B0" Duration="4" Instrument="DMC: drums + bass" Volume="9" DutyCycle="0"
				Note Time="1" DutyCycle="1"
				Note Time="2" Volume="3"
				Note Time="3" Value="B0" Duration="1" Instrument="DMC: drums + bass" SlideTarget="B0" Volume="9" DutyCycle="0"
				Note Time="4" Value="B0" Duration="2" Instrument="DMC: drums + bass" Attack="False" DutyCycle="1"
				Note Time="5" Volume="3"
				Note Time="6" Value="B0" Duration="1" Instrument="triangle pluck 4" SlideTarget="B0" Volume="9" DutyCycle="0"
				Note Time="7" Value="B0" Duration="1" Instrument="triangle pluck 4" SlideTarget="B0"
				Note Time="8" Value="B0" Duration="1" Instrument="DMC: drums + bass" SlideTarget="B0"
				Note Time="9" Value="B0" Duration="3" Instrument="DMC: drums + bass" SlideTarget="B1" DutyCycle="1"
				Note Time="12" Value="B1" Duration="2" Instrument="DMC: drums + bass" Attack="False"
				Note Time="13" Volume="3"
				Note Time="14" Value="B0" Duration="2" Instrument="DMC: drums + bass" Volume="9" DutyCycle="0"
				Note Time="15" Volume="3" DutyCycle="1"
				Note Time="16" Value="B0" Duration="2" Instrument="DMC: drums + bass" Volume="9" DutyCycle="0"
				Note Time="17" Volume="3"
				Note Time="18" Value="C#1" Duration="7" Instrument="DMC: drums + bass" Volume="9" DutyCycle="0"
				Note Time="19" Volume="3" DutyCycle="1"
				Note Time="20" Volume="1"
				Note Time="22" Value="C#1" Duration="5" Instrument="DMC: drums + bass" SlideTarget="C#1" Volume="9" DutyCycle="0"
				Note Time="23" Volume="3" DutyCycle="1"
				Note Time="24" Volume="1"
				Note Time="26" Value="C#1" Duration="2" Instrument="DMC: drums + bass" SlideTarget="C#1" Volume="9" DutyCycle="0"
				Note Time="27" Volume="3" DutyCycle="1"
				Note Time="28" Value="C#1" Duration="1" Instrument="DMC: drums + bass" SlideTarget="D1" Volume="9" DutyCycle="0"
				Note Time="29" Value="D1" Duration="3" Instrument="DMC: drums + bass" Attack="False" DutyCycle="1"
				Note Time="30" VibratoSpeed="8" VibratoDepth="8"
				Note Time="32" Value="B1" Duration="3" Instrument="DMC: drums + bass" VibratoSpeed="0" VibratoDepth="0"
				Note Time="35" Value="B1" Duration="1" Instrument="DMC: drums + bass" SlideTarget="B0"
				Note Time="36" Value="B0" Duration="2" Instrument="DMC: drums + bass" Attack="False"
				Note Time="37" Volume="3"
				Note Time="38" Value="B0" Duration="1" Instrument="triangle pluck 4" Volume="9"
				Note Time="39" Value="B0" Duration="1" Instrument="triangle pluck 4"
				Note Time="40" Value="B0" Duration="3" Instrument="DMC: drums + bass" DutyCycle="0"
				Note Time="41" DutyCycle="1"
				Note Time="42" Volume="3"
				Note Time="43" Value="B0" Duration="3" Instrument="DMC: drums + bass" Volume="9" DutyCycle="0"
				Note Time="44" DutyCycle="1"
				Note Time="45" Volume="3"
				Note Time="46" Value="B0" Duration="2" Instrument="DMC: drums + bass" Volume="9"
				Note Time="47" Volume="3"
				Note Time="48" Value="B0" Duration="2" Instrument="DMC: drums + bass" Volume="9" DutyCycle="0"
				Note Time="49" DutyCycle="1"
				Note Time="50" Value="B0" Duration="3" Release="2" Instrument="blank" SlideTarget="F#1"
				Note Time="53" Value="A#0" Duration="1" Instrument="DMC: drums + bass" DutyCycle="1"
				Note Time="54" Value="A#0" Duration="2" Instrument="blank" SlideTarget="B1"
				Note Time="56" Value="B1" Duration="6" Instrument="blank" Attack="False" VibratoSpeed="8" VibratoDepth="8"
				Note Time="62" Value="B1" Duration="2" Instrument="blank" SlideTarget="A#1" Attack="False" VibratoSpeed="0" VibratoDepth="0"
			Pattern Name="06" Color="a0f1ff"
				Note Time="0" Value="B2" Duration="1" Instrument="DMC: drums + bass" Arpeggio="Arp 37" Volume="1" FinePitch="0"
				Note Time="1" Value="B2" Duration="3" Instrument="DMC: drums + bass" Attack="False"
				Note Time="4" Value="B2" Duration="1" Instrument="DMC: drums + bass" Arpeggio="Arp 37" SlideTarget="B2" Volume="1" VolumeSlideTarget="3"
				Note Time="5" Value="B2" Duration="1" Instrument="DMC: drums + bass" Attack="False" Volume="3" VolumeSlideTarget="0"
				Note Time="6" Value="B2" Duration="1" Instrument="DMC: drums + bass" Arpeggio="Arp 37" SlideTarget="B2" Volume="1"
				Note Time="7" Value="B2" Duration="13" Instrument="DMC: drums + bass" Attack="False"
				Note Time="20" Value="B2" Duration="1" Instrument="DMC: drums + bass" Arpeggio="Arp 37" SlideTarget="B2" Volume="1" VolumeSlideTarget="3"
				Note Time="21" Value="B2" Duration="1" Instrument="DMC: drums + bass" Attack="False" Volume="3" VolumeSlideTarget="0"
				Note Time="22" Value="B2" Duration="1" Instrument="DMC: drums + bass" Arpeggio="Arp 37" SlideTarget="B2" Volume="1" VolumeSlideTarget="2"
				Note Time="23" Value="B2" Duration="1" Instrument="DMC: drums + bass" Attack="False" Volume="2" VolumeSlideTarget="0"
			Pattern Name="07" Color="ff7cb6"
				Note Time="0" Value="B1" Duration="4" Instrument="quiet bass" Volume="15" DutyCycle="1"
				Note Time="1" Attack="False"
				Note Time="2" Attack="False"
				Note Time="4" Value="B1" Duration="1" Instrument="quiet bass"
				Note Time="5" Attack="False"
				Note Time="6" Value="B1" Duration="1" Instrument="quiet bass"
				Note Time="7" Attack="False"
				Note Time="8" Value="B1" Duration="4" Instrument="quiet bass"
				Note Time="9" Attack="False"
				Note Time="12" Value="B1" Duration="1" Instrument="quiet bass"
				Note Time="13" Attack="False"
				Note Time="14" Value="B1" Duration="1" Instrument="quiet bass"
				Note Time="15" Attack="False"
				Note Time="16" Value="B0" Duration="1" Instrument="quiet bass"
				Note Time="18" Value="B1" Duration="1" Instrument="quiet bass"
				Note Time="20" Value="B0" Duration="1" Instrument="quiet bass"
				Note Time="22" Value="B1" Duration="1" Instrument="quiet bass"
				Note Time="24" Value="B2" Duration="1" Instrument="quiet bass"
				Note Time="25" Attack="False"
				Note Time="26" Value="B0" Duration="1" Instrument="quiet bass"
				Note Time="28" Value="B1" Duration="1" Instrument="quiet bass"
				Note Time="29" Attack="False"
				Note Time="30" Value="B0" Duration="1" Instrument="quiet bass"
				Note Time="32" Value="B0" Duration="4" Instrument="quiet bass"
				Note Time="33" Attack="False"
				Note Time="34" Attack="False"
				Note Time="36" Value="B0" Duration="1" Instrument="quiet bass"
				Note Time="37" Attack="False"
				Note Time="38" Value="B0" Duration="1" Instrument="quiet bass"
				Note Time="39" Attack="False"
				Note Time="40" Value="B1" Duration="4" Instrument="quiet bass"
				Note Time="42" Attack="False"
				Note Time="44" Value="B1" Duration="1" Instrument="quiet bass"
				Note Time="45" Attack="False"
				Note Time="46" Value="B1" Duration="1" Instrument="quiet bass"
				Note Time="47" Attack="False"
				Note Time="48" Value="B0" Duration="1" Instrument="quiet bass"
				Note Time="50" Value="B1" Duration="1" Instrument="quiet bass"
				Note Time="52" Value="B1" Duration="1" Instrument="quiet bass"
				Note Time="53" Attack="False"
				Note Time="54" Value="B2" Duration="1" Instrument="quiet bass"
				Note Time="55" Attack="False"
				Note Time="56" Value="B0" Duration="1" Instrument="quiet bass"
				Note Time="58" Value="B1" Duration="1" Instrument="quiet bass"
				Note Time="59" Attack="False"
				Note Time="60" Value="B0" Duration="1" Instrument="quiet bass"
				Note Time="62" Value="B1" Duration="1" Instrument="quiet bass"
			Pattern Name="08" Color="ffe362"
				Note Time="0" Value="B1" Duration="4" Instrument="quiet bass" Volume="15" DutyCycle="1"
				Note Time="1" Attack="False"
				Note Time="4" Value="B1" Duration="1" Instrument="quiet bass"
				Note Time="5" Attack="False"
				Note Time="6" Value="B1" Duration="1" Instrument="quiet bass"
				Note Time="7" Attack="False"
				Note Time="8" Value="B1" Duration="4" Instrument="quiet bass"
				Note Time="9" Attack="False"
				Note Time="12" Value="B1" Duration="1" Instrument="quiet bass"
				Note Time="13" Attack="False"
				Note Time="14" Value="B1" Duration="1" Instrument="quiet bass"
				Note Time="15" Attack="False"
				Note Time="16" Value="B0" Duration="1" Instrument="quiet bass"
				Note Time="18" Value="B1" Duration="1" Instrument="quiet bass"
				Note Time="20" Value="B1" Duration="1" Instrument="quiet bass"
				Note Time="21" Attack="False"
				Note Time="22" Value="B0" Duration="1" Instrument="quiet bass"
				Note Time="24" Value="B2" Duration="1" Instrument="quiet bass"
				Note Time="26" Value="B0" Duration="1" Instrument="quiet bass"
				Note Time="28" Value="B1" Duration="1" Instrument="quiet bass"
				Note Time="30" Value="B0" Duration="1" Instrument="quiet bass"
				Note Time="32" Value="B0" Duration="4" Instrument="quiet bass"
				Note Time="33" Attack="False"
				Note Time="34" Attack="False"
				Note Time="36" Value="B0" Duration="1" Instrument="quiet bass"
				Note Time="37" Attack="False"
				Note Time="38" Value="B0" Duration="1" Instrument="quiet bass"
				Note Time="39" Attack="False"
				Note Time="40" Value="B1" Duration="4" Instrument="quiet bass"
				Note Time="42" Attack="False"
				Note Time="44" Value="B1" Duration="1" Instrument="quiet bass"
				Note Time="45" Attack="False"
				Note Time="46" Value="B1" Duration="1" Instrument="quiet bass"
				Note Time="47" Attack="False"
				Note Time="48" Value="C#1" Duration="2" Instrument="quiet bass"
				Note Time="49" Attack="False"
				Note Time="51" Attack="False"
				Note Time="52" Value="C#2" Duration="2" Instrument="quiet bass"
				Note Time="53" Attack="False"
				Note Time="56" Value="C1" Duration="2" Instrument="quiet bass"
				Note Time="58" Attack="False"
				Note Time="60" Value="C2" Duration="2" Instrument="quiet bass"
				Note Time="62" Attack="False"
			Pattern Name="09" Color="c7ff86"
				Note Time="0" Value="B3" Duration="4" Instrument="DMC: drums + bass" Volume="2" VolumeSlideTarget="2"
				Note Time="1" Volume="2" VolumeSlideTarget="0"
				Note Time="3" Attack="False" Volume="0"
				Note Time="4" Value="B3" Duration="4" Instrument="DMC: drums + bass" Volume="2" VolumeSlideTarget="2"
				Note Time="5" Attack="False" Volume="2" VolumeSlideTarget="0"
				Note Time="7" Volume="0"
				Note Time="8" Value="B3" Duration="4" Instrument="DMC: drums + bass" Volume="1" VolumeSlideTarget="2"
				Note Time="9" Attack="False" Volume="2" VolumeSlideTarget="0"
				Note Time="12" Value="B3" Duration="4" Instrument="DMC: drums + bass" Volume="1" VolumeSlideTarget="2"
				Note Time="13" Attack="False" Volume="2" VolumeSlideTarget="0"
				Note Time="16" Value="B3" Duration="4" Instrument="DMC: drums + bass" Volume="1" VolumeSlideTarget="2"
				Note Time="17" Attack="False" Volume="2" VolumeSlideTarget="0"
				Note Time="18" Volume="0"
				Note Time="20" Value="B3" Duration="4" Instrument="DMC: drums + bass" Volume="1" VolumeSlideTarget="2"
				Note Time="21" Attack="False" Volume="2" VolumeSlideTarget="0"
				Note Time="22" Volume="0"
				Note Time="24" Value="B2" Duration="2" Instrument="quiet bass" Volume="15" DutyCycle="2"
				Note Time="25" Attack="False" Volume="5"
				Note Time="26" Value="B0" Duration="2" Instrument="quiet bass" Volume="15" DutyCycle="0"
				Note Time="27" Volume="5"
				Note Time="28" Value="B1" Duration="2" Instrument="quiet bass" Volume="15" DutyCycle="1"
				Note Time="29" Attack="False" Volume="5"
				Note Time="30" Value="B0" Duration="2" Instrument="quiet bass" Volume="15" DutyCycle="0"
				Note Time="31" Volume="5"
				Note Time="32" Value="B0" Duration="4" Instrument="quiet bass" Volume="15"
				Note Time="34" Attack="False"
				Note Time="36" Value="B0" Duration="2" Instrument="quiet bass"
				Note Time="37" Attack="False" Volume="5"
				Note Time="38" Value="B0" Duration="2" Instrument="quiet bass" Volume="15"
				Note Time="39" Attack="False" Volume="5"
				Note Time="40" Value="B1" Duration="4" Instrument="quiet bass" Volume="15" DutyCycle="1"
				Note Time="44" Value="B1" Duration="2" Instrument="quiet bass"
				Note Time="45" Attack="False" Volume="5"
				Note Time="46" Value="B1" Duration="2" Instrument="quiet bass" Volume="15"
				Note Time="47" Attack="False" Volume="5"
				Note Time="48" Value="B0" Duration="2" Instrument="quiet bass" Volume="15" DutyCycle="0"
				Note Time="49" Volume="5"
				Note Time="50" Value="B1" Duration="2" Instrument="quiet bass" Volume="15" DutyCycle="1"
				Note Time="51" Volume="5"
				Note Time="52" Value="B1" Duration="2" Instrument="quiet bass" Volume="15"
				Note Time="53" Attack="False" Volume="5"
				Note Time="54" Value="B2" Duration="2" Instrument="quiet bass" Volume="15" DutyCycle="2"
				Note Time="55" Volume="5"
				Note Time="56" Value="B0" Duration="2" Instrument="quiet bass" Volume="15" DutyCycle="0"
				Note Time="57" Volume="5"
				Note Time="58" Value="B1" Duration="2" Instrument="quiet bass" Volume="15" DutyCycle="1"
				Note Time="59" Attack="False" Volume="5"
				Note Time="60" Value="B0" Duration="2" Instrument="quiet bass" Volume="15" DutyCycle="0"
				Note Time="61" Volume="5"
				Note Time="62" Value="B1" Duration="2" Instrument="quiet bass" Volume="15" DutyCycle="1"
				Note Time="63" Volume="5"
			Pattern Name="0A" Color="3fd7ff"
				Note Time="0" Value="B1" Duration="4" Instrument="quiet bass" Volume="15" DutyCycle="1"
				Note Time="1" Attack="False"
				Note Time="4" Value="B1" Duration="2" Instrument="quiet bass"
				Note Time="5" Attack="False" Volume="5"
				Note Time="6" Value="B1" Duration="2" Instrument="quiet bass" Volume="15"
				Note Time="7" Attack="False" Volume="5"
				Note Time="8" Value="B1" Duration="4" Instrument="quiet bass" Volume="15"
				Note Time="9" Attack="False"
				Note Time="12" Value="B1" Duration="2" Instrument="quiet bass"
				Note Time="13" Attack="False" Volume="5"
				Note Time="14" Value="B1" Duration="2" Instrument="quiet bass" Volume="15"
				Note Time="15" Attack="False" Volume="5"
				Note Time="16" Value="B0" Duration="2" Instrument="quiet bass" Volume="15" DutyCycle="0"
				Note Time="17" Volume="5"
				Note Time="18" Value="B1" Duration="2" Instrument="quiet bass" Volume="15" DutyCycle="1"
				Note Time="19" Volume="5"
				Note Time="20" Value="B1" Duration="2" Instrument="quiet bass" Volume="15"
				Note Time="21" Attack="False" Volume="5"
				Note Time="22" Value="B0" Duration="2" Instrument="quiet bass" Volume="15" DutyCycle="0"
				Note Time="23" Volume="5"
				Note Time="24" Value="B2" Duration="2" Instrument="quiet bass" Volume="15" DutyCycle="2"
				Note Time="25" Volume="5"
				Note Time="26" Value="B0" Duration="2" Instrument="quiet bass" Volume="15" DutyCycle="0"
				Note Time="27" Volume="5"
				Note Time="28" Value="B1" Duration="2" Instrument="quiet bass" Volume="15" DutyCycle="1"
				Note Time="29" Volume="5"
				Note Time="30" Value="B0" Duration="2" Instrument="quiet bass" Volume="15" DutyCycle="0"
				Note Time="31" Volume="5"
				Note Time="32" Value="B0" Duration="4" Instrument="quiet bass" Volume="15"
				Note Time="34" Attack="False"
				Note Time="36" Value="B0" Duration="2" Instrument="quiet bass"
				Note Time="37" Attack="False" Volume="5"
				Note Time="38" Value="B0" Duration="2" Instrument="quiet bass" Volume="15"
				Note Time="39" Attack="False" Volume="5"
				Note Time="40" Value="B1" Duration="4" Instrument="quiet bass" Volume="15" DutyCycle="1"
				Note Time="44" Value="B1" Duration="2" Instrument="quiet bass"
				Note Time="45" Attack="False" Volume="5"
				Note Time="46" Value="B1" Duration="2" Instrument="quiet bass" Volume="15"
				Note Time="47" Attack="False" Volume="5"
				Note Time="48" Value="B2" Duration="16" Instrument="DMC: drums + bass" Volume="0"
				Note Time="49" Volume="1"
				Note Time="50" Attack="False" Volume="2"
				Note Time="51" Volume="4"
				Note Time="52" Volume="5"
				Note Time="53" Volume="6"
				Note Time="58" Volume="3"
				Note Time="60" Volume="2"
				Note Time="62" Volume="1"
				Note Time="63" Volume="0"
			Pattern Name="0B" Color="b75bde"
				Note Time="0" Value="B1" Duration="4" Instrument="quiet bass" Volume="15" DutyCycle="1"
				Note Time="2" Attack="False"
				Note Time="4" Value="B1" Duration="2" Instrument="quiet bass"
				Note Time="5" Attack="False" Volume="5"
				Note Time="6" Value="B1" Duration="2" Instrument="quiet bass" Volume="15"
				Note Time="7" Attack="False" Volume="5"
				Note Time="8" Value="B1" Duration="4" Instrument="quiet bass" Volume="15"
				Note Time="9" Attack="False"
				Note Time="12" Value="B1" Duration="2" Instrument="quiet bass"
				Note Time="13" Attack="False" Volume="5"
				Note Time="14" Value="B1" Duration="2" Instrument="quiet bass" Volume="15"
				Note Time="15" Attack="False" Volume="5"
				Note Time="16" Value="B0" Duration="2" Instrument="quiet bass" Volume="15" DutyCycle="0"
				Note Time="17" Volume="5"
				Note Time="18" Value="B1" Duration="2" Instrument="quiet bass" Volume="15" DutyCycle="1"
				Note Time="19" Volume="5"
				Note Time="20" Value="B1" Duration="2" Instrument="quiet bass" Volume="15"
				Note Time="21" Attack="False" Volume="5"
				Note Time="22" Value="B0" Duration="2" Instrument="quiet bass" Volume="15" DutyCycle="0"
				Note Time="23" Volume="5"
				Note Time="24" Value="B2" Duration="2" Instrument="quiet bass" Volume="15" DutyCycle="2"
				Note Time="25" Volume="5"
				Note Time="26" Value="B0" Duration="2" Instrument="quiet bass" Volume="15" DutyCycle="0"
				Note Time="27" Volume="5"
				Note Time="28" Value="B1" Duration="2" Instrument="quiet bass" Volume="15" DutyCycle="1"
				Note Time="29" Volume="5"
				Note Time="30" Value="B0" Duration="2" Instrument="quiet bass" Volume="15" DutyCycle="0"
				Note Time="31" Volume="5"
				Note Time="32" Value="B2" Duration="12" Instrument="DMC: drums + bass" Arpeggio="Arp 7A" Volume="3" DutyCycle="1"
				Note Time="33" Volume="5"
				Note Time="34" Volume="6"
				Note Time="35" Volume="8" DutyCycle="0"
				Note Time="36" Attack="False" Volume="2"
				Note Time="38" Volume="5" DutyCycle="1"
				Note Time="40" Volume="6"
				Note Time="41" Volume="5"
				Note Time="42" Volume="2"
				Note Time="43" Volume="1"
				Note Time="48" Value="C#3" Duration="8" Instrument="DMC: drums + bass" Arpeggio="Arp 7A" Volume="6" DutyCycle="0"
				Note Time="49" Volume="7"
				Note Time="50" Volume="8"
				Note Time="51" Volume="6"
				Note Time="52" Volume="4"
				Note Time="56" Value="B2" Duration="7" Instrument="DMC: drums + bass" Arpeggio="Arp 7A" Volume="6"
				Note Time="57" Attack="False" Volume="7"
				Note Time="58" Volume="8"
				Note Time="59" Volume="6"
				Note Time="60" Volume="4"
				Note Time="63" Value="B2" Duration="1" Instrument="DMC: drums + bass" Attack="False"
			Pattern Name="0D" Color="dad960"
				Note Time="0" Value="D2" Duration="4" Instrument="quiet bass" Volume="15" DutyCycle="1"
				Note Time="1" Attack="False"
				Note Time="4" Value="D2" Duration="1" Instrument="quiet bass"
				Note Time="5" Attack="False"
				Note Time="6" Value="D2" Duration="1" Instrument="quiet bass"
				Note Time="7" Attack="False"
				Note Time="8" Value="D2" Duration="4" Instrument="quiet bass"
				Note Time="9" Attack="False"
				Note Time="12" Value="D2" Duration="1" Instrument="quiet bass"
				Note Time="13" Attack="False"
				Note Time="14" Value="D2" Duration="1" Instrument="quiet bass"
				Note Time="15" Attack="False"
				Note Time="16" Value="D1" Duration="1" Instrument="quiet bass"
				Note Time="18" Value="D2" Duration="1" Instrument="quiet bass"
				Note Time="20" Value="D2" Duration="1" Instrument="quiet bass"
				Note Time="21" Attack="False"
				Note Time="22" Value="D1" Duration="1" Instrument="quiet bass"
				Note Time="24" Value="D3" Duration="1" Instrument="quiet bass"
				Note Time="26" Value="D1" Duration="1" Instrument="quiet bass"
				Note Time="28" Value="D2" Duration="1" Instrument="quiet bass"
				Note Time="30" Value="D1" Duration="1" Instrument="quiet bass"
				Note Time="32" Value="E1" Duration="4" Instrument="quiet bass"
				Note Time="33" Attack="False"
				Note Time="36" Value="E1" Duration="1" Instrument="quiet bass"
				Note Time="37" Attack="False"
				Note Time="38" Value="E1" Duration="1" Instrument="quiet bass"
				Note Time="39" Attack="False"
				Note Time="40" Value="E2" Duration="4" Instrument="quiet bass"
				Note Time="43" Attack="False"
				Note Time="44" Value="E2" Duration="1" Instrument="quiet bass"
				Note Time="45" Attack="False"
				Note Time="46" Value="E2" Duration="1" Instrument="quiet bass"
				Note Time="47" Attack="False"
				Note Time="48" Value="E1" Duration="1" Instrument="quiet bass"
				Note Time="50" Value="E3" Duration="1" Instrument="quiet bass"
				Note Time="52" Value="E2" Duration="1" Instrument="quiet bass"
				Note Time="53" Attack="False"
				Note Time="54" Value="E1" Duration="1" Instrument="quiet bass"
				Note Time="56" Value="E2" Duration="1" Instrument="quiet bass"
				Note Time="58" Value="E2" Duration="1" Instrument="quiet bass"
				Note Time="59" Attack="False"
				Note Time="60" Value="E1" Duration="1" Instrument="quiet bass"
				Note Time="62" Value="E2" Duration="1" Instrument="quiet bass"
				Note Time="63" Volume="5"
			Pattern Name="0E" Color="89ffff"
				Note Time="0" Value="B1" Duration="4" Instrument="quiet bass" Volume="15" DutyCycle="1"
				Note Time="1" Attack="False"
				Note Time="4" Value="B1" Duration="1" Instrument="quiet bass"
				Note Time="5" Attack="False"
				Note Time="6" Value="B1" Duration="1" Instrument="quiet bass"
				Note Time="7" Attack="False"
				Note Time="8" Value="B1" Duration="4" Instrument="quiet bass"
				Note Time="9" Attack="False"
				Note Time="12" Value="B1" Duration="1" Instrument="quiet bass"
				Note Time="13" Attack="False"
				Note Time="14" Value="B1" Duration="1" Instrument="quiet bass"
				Note Time="15" Attack="False"
				Note Time="16" Value="B0" Duration="1" Instrument="quiet bass"
				Note Time="18" Value="B1" Duration="1" Instrument="quiet bass"
				Note Time="20" Value="B1" Duration="1" Instrument="quiet bass"
				Note Time="21" Attack="False"
				Note Time="22" Value="B0" Duration="1" Instrument="quiet bass"
				Note Time="24" Value="B2" Duration="1" Instrument="quiet bass"
				Note Time="26" Value="B0" Duration="1" Instrument="quiet bass"
				Note Time="28" Value="B1" Duration="1" Instrument="quiet bass"
				Note Time="30" Value="B0" Duration="1" Instrument="quiet bass"
				Note Time="32" Value="D5" Duration="1" Instrument="blank instant decay" SlideTarget="C5" Volume="6" DutyCycle="3"
				Note Time="33" Value="C5" Duration="3" Instrument="blank instant decay" Attack="False"
				Note Time="36" Value="D5" Duration="2" Instrument="blank instant decay" SlideTarget="A#4" Volume="6"
				Note Time="38" Value="D5" Duration="1" Instrument="blank instant decay" SlideTarget="C5"
				Note Time="39" Value="C5" Duration="1" Instrument="blank instant decay" Attack="False"
				Note Time="40" Value="B1" Duration="2" Instrument="quiet bass" Volume="15" DutyCycle="1"
				Note Time="42" Value="D5" Duration="1" Instrument="blank instant decay" SlideTarget="C5" Volume="6" DutyCycle="3"
				Note Time="43" Value="C5" Duration="1" Instrument="blank instant decay" Attack="False"
				Note Time="44" Value="B1" Duration="2" Instrument="quiet bass" DutyCycle="0"
				Note Time="45" Volume="5"
				Note Time="46" Value="B1" Duration="2" Instrument="quiet bass" Volume="15" DutyCycle="1"
				Note Time="47" Attack="False" Volume="5"
				Note Time="48" Value="D5" Duration="2" Instrument="blank instant decay" SlideTarget="A#4" Volume="6" DutyCycle="3"
				Note Time="50" Value="B4" Duration="1" Instrument="blank instant decay" SlideTarget="C5"
				Note Time="51" Value="C5" Duration="1" Instrument="blank instant decay" SlideTarget="A4" Attack="False"
				Note Time="52" Value="B1" Duration="1" Instrument="quiet bass" Volume="15" DutyCycle="1"
				Note Time="54" Value="B0" Duration="1" Instrument="quiet bass"
				Note Time="56" Value="B1" Duration="1" Instrument="quiet bass"
				Note Time="57" Attack="False"
				Note Time="58" Value="B1" Duration="1" Instrument="quiet bass"
				Note Time="59" Attack="False"
				Note Time="60" Value="B0" Duration="1" Instrument="quiet bass"
				Note Time="62" Value="B1" Duration="1" Instrument="quiet bass"
			Pattern Name="10" Color="c9aa9f"
				Note Time="0" Value="B2" Duration="6" Instrument="quiet bass" Volume="15" FinePitch="0"
				Note Time="1" Attack="False"
				Note Time="2" Volume="5"
				Note Time="4" Volume="3"
				Note Time="8" Value="B1" Duration="8" Instrument="blank" Volume="5" DutyCycle="2"
				Note Time="9" Volume="4" DutyCycle="1"
				Note Time="10" Volume="3"
				Note Time="11" Volume="4"
				Note Time="12" Volume="5" DutyCycle="0"
				Note Time="16" Value="E3" Duration="1" Instrument="blank" Volume="0" VolumeSlideTarget="12"
				Note Time="17" Value="E3" Duration="15" Instrument="blank" SlideTarget="F#4" Attack="False"
				Note Time="20" Attack="False"
				Note Time="26" Attack="False"
				Note Time="32" Value="B4" Duration="12" Instrument="blank" Volume="8" VolumeSlideTarget="8"
				Note Time="33" Attack="False" Volume="8" VolumeSlideTarget="0"
				Note Time="37" Volume="0"
			PatternInstance Time="0" Pattern="00"
			PatternInstance Time="1" Pattern="01"
			PatternInstance Time="2" Pattern="02"
			PatternInstance Time="3" Pattern="01"
			PatternInstance Time="4" Pattern="02"
			PatternInstance Time="5" Pattern="03"
			PatternInstance Time="6" Pattern="04"
			PatternInstance Time="7" Pattern="05"
			PatternInstance Time="8" Pattern="06"
			PatternInstance Time="9" Pattern="07"
			PatternInstance Time="10" Pattern="08"
			PatternInstance Time="11" Pattern="07"
			PatternInstance Time="12" Pattern="08"
			PatternInstance Time="13" Pattern="09"
			PatternInstance Time="14" Pattern="0A"
			PatternInstance Time="15" Pattern="09"
			PatternInstance Time="16" Pattern="0B"
			PatternInstance Time="17" Pattern="07"
			PatternInstance Time="18" Pattern="0D"
			PatternInstance Time="19" Pattern="0E"
			PatternInstance Time="20" Pattern="0D"
			PatternInstance Time="21" Pattern="10"
		Channel Type="Square2"
			Pattern Name="00" Color="ffff77"
				Note Time="0" Volume="0" DutyCycle="1"
				Note Time="3" Value="G2" Duration="45" Instrument="clutterfunk sax" Volume="3" FinePitch="0" CutDelay="4"
				Note Time="48" Value="A0" Duration="6" Instrument="DMC: drums + bass" SlideTarget="C2" Volume="0" VolumeSlideTarget="15"
				Note Time="54" Volume="15"
			Pattern Name="01" Color="3cc5b7"
				Note Time="1" Value="F#2" Duration="2" Instrument="clutterfunk sax" CutDelay="5"
				Note Time="3" Value="B1" Duration="1" Instrument="clutterfunk sax"
				Note Time="4" Value="B3" Duration="2" Instrument="rel hats" Volume="10"
				Note Time="6" Value="B3" Duration="1" Instrument="rel hats"
				Note Time="7" Value="F#2" Duration="1" Instrument="clutterfunk sax" Volume="3"
				Note Time="8" Value="B3" Duration="2" Instrument="rel hats" Volume="7"
				Note Time="10" Value="B3" Duration="1" Instrument="rel hats"
				Note Time="11" Value="F2" Duration="1" Instrument="clutterfunk sax" Volume="3"
				Note Time="12" Value="B3" Duration="2" Instrument="rel hats" Volume="4"
				Note Time="14" Value="B3" Duration="1" Instrument="rel hats"
				Note Time="15" Value="F#2" Duration="1" Instrument="clutterfunk sax" Volume="3"
				Note Time="16" Value="B3" Duration="3" Instrument="rel hats" Volume="1"
				Note Time="19" Value="B1" Duration="1" Instrument="clutterfunk sax" Volume="3"
				Note Time="20" Value="E3" Duration="2" Instrument="Instrument 1" SlideTarget="F#3" Volume="12"
				Note Time="22" Value="F#3" Duration="13" Instrument="Instrument 1" Attack="False"
				Note Time="35" Value="B1" Duration="1" Instrument="clutterfunk sax" Volume="3"
				Note Time="36" Value="C4" Duration="1" Instrument="Instrument 2" SlideTarget="D5" Volume="8"
				Note Time="39" Value="F#2" Duration="4" Release="1" Instrument="clutterfunk sax" Volume="3"
				Note Time="43" Value="F2" Duration="1" Instrument="clutterfunk sax"
				Note Time="44" Value="C4" Duration="1" Instrument="Instrument 2" SlideTarget="D5" Volume="8"
				Note Time="47" Value="F#2" Duration="4" Release="1" Instrument="clutterfunk sax" Volume="3"
				Note Time="51" Value="G2" Duration="1" Instrument="clutterfunk sax"
				Note Time="52" Value="C4" Duration="1" Instrument="Instrument 2" SlideTarget="D5" Volume="8"
				Note Time="54" Value="F2" Duration="1" Instrument="blank instant decay" Volume="3"
				Note Time="55" Value="F#2" Duration="2" Release="1" Instrument="clutterfunk sax"
				Note Time="57" Value="G2" Duration="2" Release="1" Instrument="blank instant decay"
				Note Time="59" Value="F#2" Duration="1" Instrument="blank instant decay"
				Note Time="60" Value="D#3" Duration="7" Release="2" Instrument="clutterfunk sax" Arpeggio="Arp 39" Volume="10"
				Note Time="61" Volume="4"
			Pattern Name="02" Color="6c7bdb"
				Note Time="0" DutyCycle="1"
				Note Time="3" Value="B1" Duration="1" Instrument="clutterfunk sax" Volume="3"
				Note Time="4" Value="C4" Duration="1" Instrument="Instrument 2" SlideTarget="D5" Volume="8"
				Note Time="7" Value="F#2" Duration="4" Release="1" Instrument="clutterfunk sax" Volume="3"
				Note Time="11" Value="F2" Duration="1" Instrument="clutterfunk sax"
				Note Time="12" Value="C4" Duration="1" Instrument="Instrument 2" SlideTarget="D5" Volume="8"
				Note Time="15" Value="F#2" Duration="4" Release="1" Instrument="clutterfunk sax" Volume="3"
				Note Time="19" Value="B1" Duration="1" Instrument="clutterfunk sax"
				Note Time="20" Value="E3" Duration="2" Instrument="Instrument 1" SlideTarget="F#3" Volume="12"
				Note Time="22" Value="F#3" Duration="13" Instrument="Instrument 1" Attack="False"
				Note Time="35" Value="B1" Duration="1" Instrument="clutterfunk sax" Volume="3"
				Note Time="36" Value="C4" Duration="1" Instrument="Instrument 2" SlideTarget="D5" Volume="8"
				Note Time="39" Value="F#2" Duration="4" Release="1" Instrument="clutterfunk sax" Volume="3"
				Note Time="43" Value="F2" Duration="1" Instrument="clutterfunk sax"
				Note Time="44" Value="C4" Duration="1" Instrument="Instrument 2" SlideTarget="D5" Volume="8"
				Note Time="47" Value="F#2" Duration="4" Release="1" Instrument="clutterfunk sax" Volume="3"
				Note Time="51" Value="G2" Duration="1" Instrument="clutterfunk sax"
				Note Time="52" Value="A3" Duration="1" Instrument="Instrument 2" SlideTarget="G#4" Volume="8"
				Note Time="54" Value="F#2" Duration="1" Instrument="clutterfunk sax" Volume="3"
				Note Time="55" Value="D2" Duration="2" Release="1" Instrument="clutterfunk sax"
				Note Time="57" Value="C#2" Duration="2" Release="1" Instrument="clutterfunk sax"
				Note Time="59" Value="B1" Duration="6" Release="1" Instrument="clutterfunk sax"
			Pattern Name="03" Color="ff6464"
				Note Time="0" DutyCycle="1"
				Note Time="3" Value="B1" Duration="1" Instrument="clutterfunk sax" Volume="3"
				Note Time="4" Value="C4" Duration="1" Instrument="Instrument 2" SlideTarget="D5" Volume="8"
				Note Time="7" Value="F#2" Duration="4" Release="1" Instrument="clutterfunk sax" Volume="3"
				Note Time="11" Value="F2" Duration="1" Instrument="clutterfunk sax"
				Note Time="12" Value="C4" Duration="1" Instrument="Instrument 2" SlideTarget="D5" Volume="8"
				Note Time="15" Value="F#2" Duration="4" Release="1" Instrument="clutterfunk sax" Volume="3"
				Note Time="19" Value="B1" Duration="1" Instrument="clutterfunk sax"
				Note Time="20" Value="E3" Duration="2" Instrument="Instrument 1" SlideTarget="F#3" Volume="12"
				Note Time="22" Value="F#3" Duration="6" Instrument="Instrument 1" Attack="False"
				Note Time="28" Value="B3" Duration="2" Instrument="rel hats" Volume="10"
				Note Time="30" Value="B3" Duration="2" Instrument="rel hats" Volume="7"
				Note Time="32" Value="B3" Duration="2" Instrument="rel hats" Volume="4"
				Note Time="34" Value="B3" Duration="1" Instrument="rel hats" Volume="1"
				Note Time="35" Value="B1" Duration="1" Instrument="clutterfunk sax" Volume="3"
				Note Time="36" Value="C4" Duration="1" Instrument="Instrument 2" SlideTarget="D5" Volume="8"
				Note Time="39" Value="F#2" Duration="4" Release="1" Instrument="clutterfunk sax" Volume="3"
				Note Time="43" Value="F2" Duration="1" Instrument="clutterfunk sax"
				Note Time="44" Value="C4" Duration="1" Instrument="Instrument 2" SlideTarget="D5" Volume="8"
				Note Time="47" Value="F#2" Duration="4" Release="1" Instrument="clutterfunk sax" Volume="3"
				Note Time="51" Value="G2" Duration="1" Instrument="clutterfunk sax"
				Note Time="52" Value="A3" Duration="1" Instrument="Instrument 2" SlideTarget="G#4" Volume="8"
				Note Time="54" Value="F#2" Duration="1" Instrument="clutterfunk sax" Volume="3"
				Note Time="55" Value="D2" Duration="2" Release="1" Instrument="clutterfunk sax"
				Note Time="57" Value="C#2" Duration="2" Release="1" Instrument="clutterfunk sax"
				Note Time="59" Value="B1" Duration="21" Release="1" Instrument="clutterfunk sax"
			Pattern Name="04" Color="ffcb3c"
				Note Time="16" Value="B1" Duration="1" Instrument="triangle pluck" Volume="8"
				Note Time="17" Value="B1" Duration="1" Instrument="triangle pluck"
				Note Time="18" Value="B1" Duration="1" Instrument="triangle pluck"
				Note Time="19" Value="B1" Duration="2" Instrument="triangle pluck"
				Note Time="21" Value="B1" Duration="1" Instrument="triangle pluck"
				Note Time="22" Value="B1" Duration="2" Instrument="triangle pluck"
				Note Time="24" Value="B1" Duration="2" Instrument="triangle pluck"
				Note Time="25" Volume="8"
				Note Time="26" Value="B0" Duration="2" Instrument="octave arp"
				Note Time="28" Value="B1" Duration="2" Instrument="octave arp"
				Note Time="30" Value="B0" Duration="2" Instrument="octave arp"
				Note Time="32" Value="B1" Duration="4" Instrument="octave arp"
				Note Time="33" Volume="1"
				Note Time="36" Volume="7"
				Note Time="39" Value="B1" Duration="1" Instrument="triangle pluck"
				Note Time="40" Value="B1" Duration="4" Instrument="triangle pluck"
				Note Time="44" Value="B1" Duration="2" Instrument="triangle pluck"
				Note Time="46" Value="B1" Duration="2" Instrument="triangle pluck"
				Note Time="48" Value="C#1" Duration="8" Instrument="DMC: drums + bass" SlideTarget="D#1" Volume="5" DutyCycle="0"
				Note Time="56" Value="D#1" Duration="8" Instrument="DMC: drums + bass" SlideTarget="G2" Attack="False"
			Pattern Name="05" Color="bdffc0"
				Note Time="0" Value="B1" Duration="2" Instrument="DMC: drums + bass" Volume="4" DutyCycle="2"
				Note Time="1" FinePitch="-3"
				Note Time="2" Value="B1" Duration="1" Instrument="DMC: drums + bass" SlideTarget="B2" DutyCycle="1"
				Note Time="3" Value="B2" Duration="1" Instrument="DMC: drums + bass" Attack="False"
				Note Time="4" Value="B1" Duration="1" Instrument="triangle pluck 4"
				Note Time="5" Value="B1" Duration="1" Instrument="triangle pluck 4"
				Note Time="6" Value="B1" Duration="1" Instrument="triangle pluck 4"
				Note Time="7" Value="B1" Duration="1" Instrument="triangle pluck 4"
				Note Time="8" Value="B1" Duration="3" Instrument="DMC: drums + bass" DutyCycle="1"
				Note Time="9" DutyCycle="2"
				Note Time="10" Volume="1"
				Note Time="11" Value="B1" Duration="3" Instrument="DMC: drums + bass" Volume="4" DutyCycle="1"
				Note Time="12" DutyCycle="2"
				Note Time="13" Volume="1"
				Note Time="14" Value="B1" Duration="2" Instrument="DMC: drums + bass" Volume="4" DutyCycle="0"
				Note Time="15" Volume="2"
				Note Time="16" Value="B1" Duration="1" Instrument="DMC: drums + bass" Volume="4"
				Note Time="17" Value="B1" Duration="1" Instrument="DMC: drums + bass" SlideTarget="A#2"
				Note Time="18" Value="A#2" Duration="2" Instrument="DMC: drums + bass" Attack="False"
				Note Time="20" Value="B1" Duration="3" Instrument="DMC: drums + bass" Volume="4"
				Note Time="22" Volume="1"
				Note Time="23" Value="B1" Duration="1" Instrument="DMC: drums + bass" Volume="4"
				Note Time="24" Value="B1" Duration="1" Instrument="DMC: drums + bass" SlideTarget="B2"
				Note Time="25" Value="B2" Duration="2" Instrument="DMC: drums + bass" Attack="False"
				Note Time="26" Volume="1"
				Note Time="27" Value="B1" Duration="1" Instrument="triangle pluck 4" Volume="4"
				Note Time="28" Value="B1" Duration="1" Instrument="triangle pluck 4"
				Note Time="29" Value="B1" Duration="1" Instrument="triangle pluck 4"
				Note Time="30" Value="B1" Duration="1" Instrument="DMC: drums + bass" SlideTarget="D2" DutyCycle="1"
				Note Time="31" Value="D2" Duration="1" Instrument="DMC: drums + bass" Attack="False" DutyCycle="2"
				Note Time="32" Value="B2" Duration="3" Instrument="DMC: drums + bass"
				Note Time="35" Value="B2" Duration="1" Instrument="DMC: drums + bass" SlideTarget="B1"
				Note Time="36" Value="B1" Duration="2" Instrument="DMC: drums + bass" Attack="False"
				Note Time="37" Volume="1"
				Note Time="38" Value="B1" Duration="1" Instrument="triangle pluck 4" Volume="4"
				Note Time="39" Value="B1" Duration="1" Instrument="triangle pluck 4"
				Note Time="40" Value="B1" Duration="3" Instrument="DMC: drums + bass" DutyCycle="1"
				Note Time="41" DutyCycle="2"
				Note Time="42" Volume="1"
				Note Time="43" Value="B1" Duration="3" Instrument="DMC: drums + bass" Volume="4" DutyCycle="1"
				Note Time="44" DutyCycle="2"
				Note Time="45" Volume="1"
				Note Time="46" Value="B1" Duration="2" Instrument="DMC: drums + bass" Volume="4"
				Note Time="47" Volume="1"
				Note Time="48" Value="B1" Duration="2" Instrument="DMC: drums + bass" Volume="4" DutyCycle="1"
				Note Time="49" DutyCycle="2"
				Note Time="50" Value="B1" Duration="3" Release="2" Instrument="blank" SlideTarget="B2"
				Note Time="53" Value="A#1" Duration="1" Instrument="DMC: drums + bass" DutyCycle="0"
				Note Time="54" Value="A#1" Duration="1" Instrument="blank" SlideTarget="B2"
				Note Time="55" Value="B2" Duration="7" Instrument="blank" Attack="False"
				Note Time="56" VibratoSpeed="8" VibratoDepth="8"
				Note Time="62" Value="B2" Duration="2" Instrument="blank" SlideTarget="G#2" Attack="False" VibratoSpeed="0" VibratoDepth="0"
			Pattern Name="06" Color="7ee1ff"
				Note Time="0" Value="B1" Duration="5" Instrument="DMC: drums + bass" Volume="4" DutyCycle="1"
				Note Time="1" DutyCycle="2"
				Note Time="2" Volume="1"
				Note Time="3" Value="B1" Duration="7" Instrument="DMC: drums + bass" Volume="4" DutyCycle="1"
				Note Time="4" DutyCycle="2"
				Note Time="5" Volume="1"
				Note Time="6" Value="B1" Duration="1" Instrument="triangle pluck 4" SlideTarget="B1" Volume="4" DutyCycle="1"
				Note Time="7" Value="B1" Duration="1" Instrument="triangle pluck 4" SlideTarget="B1"
				Note Time="8" Value="B1" Duration="1" Instrument="DMC: drums + bass" SlideTarget="B1"
				Note Time="9" Value="B1" Duration="3" Instrument="DMC: drums + bass" SlideTarget="B2" DutyCycle="2"
				Note Time="12" Value="B2" Duration="2" Instrument="DMC: drums + bass" Attack="False"
				Note Time="13" Volume="1"
				Note Time="14" Value="B1" Duration="2" Instrument="DMC: drums + bass" Volume="4" DutyCycle="1"
				Note Time="15" Volume="1" DutyCycle="2"
				Note Time="16" Value="B1" Duration="3" Instrument="DMC: drums + bass" Volume="4" DutyCycle="0"
				Note Time="17" Volume="1"
				Note Time="18" Value="C#2" Duration="8" Instrument="DMC: drums + bass" Volume="4" DutyCycle="1"
				Note Time="19" Volume="1" DutyCycle="0"
				Note Time="22" Value="C#2" Duration="9" Instrument="DMC: drums + bass" Volume="4" DutyCycle="0"
				Note Time="23" Volume="1" DutyCycle="2"
				Note Time="26" Value="C#2" Duration="2" Instrument="DMC: drums + bass" SlideTarget="C#2" Volume="4" DutyCycle="1"
				Note Time="27" Volume="1" DutyCycle="2"
				Note Time="28" Value="C#2" Duration="1" Instrument="DMC: drums + bass" SlideTarget="D2" Volume="4" DutyCycle="0"
				Note Time="29" Value="D2" Duration="3" Instrument="DMC: drums + bass" Attack="False" DutyCycle="2"
				Note Time="30" VibratoSpeed="8" VibratoDepth="8"
				Note Time="32" Value="B2" Duration="3" Instrument="DMC: drums + bass" VibratoSpeed="0" VibratoDepth="0"
				Note Time="35" Value="B2" Duration="1" Instrument="DMC: drums + bass" SlideTarget="B1"
				Note Time="36" Value="B1" Duration="2" Instrument="DMC: drums + bass" Attack="False"
				Note Time="37" Volume="1"
				Note Time="38" Value="B1" Duration="1" Instrument="triangle pluck 4" Volume="4"
				Note Time="39" Value="B1" Duration="1" Instrument="triangle pluck 4"
				Note Time="40" Value="B1" Duration="3" Instrument="DMC: drums + bass" DutyCycle="1"
				Note Time="41" DutyCycle="2"
				Note Time="42" Volume="1"
				Note Time="43" Value="B1" Duration="3" Instrument="DMC: drums + bass" Volume="4" DutyCycle="1"
				Note Time="44" DutyCycle="2"
				Note Time="45" Volume="1"
				Note Time="46" Value="B1" Duration="2" Instrument="DMC: drums + bass" Volume="4"
				Note Time="47" Volume="1"
				Note Time="48" Value="B1" Duration="2" Instrument="DMC: drums + bass" Volume="4" DutyCycle="1"
				Note Time="49" DutyCycle="2"
				Note Time="50" Value="B1" Duration="3" Release="2" Instrument="blank" SlideTarget="B2"
				Note Time="53" Value="A#1" Duration="1" Instrument="DMC: drums + bass" DutyCycle="0"
				Note Time="54" Value="A#1" Duration="1" Instrument="blank" SlideTarget="B2"
				Note Time="55" Value="B2" Duration="7" Instrument="blank" Attack="False"
				Note Time="56" VibratoSpeed="8" VibratoDepth="8"
				Note Time="62" Value="B2" Duration="2" Instrument="blank" SlideTarget="G#2" Attack="False" VibratoSpeed="0" VibratoDepth="0"
			Pattern Name="07" Color="ff5a9f"
				Note Time="0" FinePitch="0"
				Note Time="4" Value="B3" Duration="16" Instrument="DMC: drums + bass" Volume="1" VolumeSlideTarget="3"
				Note Time="5" Volume="3" VolumeSlideTarget="0"
				Note Time="6" Volume="0"
				Note Time="20" Value="B3" Duration="1" Instrument="DMC: drums + bass" SlideTarget="B3" Volume="1" VolumeSlideTarget="3"
				Note Time="21" Value="B3" Duration="1" Instrument="DMC: drums + bass" Attack="False" Volume="3" VolumeSlideTarget="0"
				Note Time="22" Value="B3" Duration="1" Instrument="DMC: drums + bass" SlideTarget="B3" Volume="1" VolumeSlideTarget="2"
				Note Time="23" Value="B3" Duration="1" Instrument="DMC: drums + bass" Attack="False" Volume="2" VolumeSlideTarget="0"
			Pattern Name="08" Color="ffd43c"
				Note Time="0" Value="B3" Duration="1" Instrument="DMC: drums + bass" SlideTarget="B3" Volume="2" VolumeSlideTarget="2"
				Note Time="1" Value="B3" Duration="3" Instrument="DMC: drums + bass" Attack="False" Volume="2" VolumeSlideTarget="0"
				Note Time="3" Volume="0"
				Note Time="4" Value="B3" Duration="1" Instrument="DMC: drums + bass" SlideTarget="B3" Volume="2" VolumeSlideTarget="2"
				Note Time="5" Value="B3" Duration="3" Instrument="DMC: drums + bass" Attack="False" Volume="2" VolumeSlideTarget="0"
				Note Time="7" Volume="0"
				Note Time="8" Value="B3" Duration="1" Instrument="DMC: drums + bass" SlideTarget="B3" Volume="1" VolumeSlideTarget="2"
				Note Time="9" Value="B3" Duration="3" Instrument="DMC: drums + bass" Attack="False" Volume="2" VolumeSlideTarget="0"
				Note Time="12" Value="B3" Duration="1" Instrument="DMC: drums + bass" SlideTarget="B3" Volume="1" VolumeSlideTarget="2"
				Note Time="13" Value="B3" Duration="3" Instrument="DMC: drums + bass" Attack="False" Volume="2" VolumeSlideTarget="0"
				Note Time="16" Value="B3" Duration="1" Instrument="DMC: drums + bass" SlideTarget="B3" Volume="1" VolumeSlideTarget="2"
				Note Time="17" Value="B3" Duration="3" Instrument="DMC: drums + bass" Attack="False" Volume="2" VolumeSlideTarget="0"
				Note Time="18" Volume="0"
				Note Time="20" Value="B3" Duration="1" Instrument="DMC: drums + bass" SlideTarget="B3" Volume="1" VolumeSlideTarget="2"
				Note Time="21" Value="B3" Duration="3" Instrument="DMC: drums + bass" Attack="False" Volume="2" VolumeSlideTarget="0"
				Note Time="22" Volume="0"
				Note Time="24" Value="B2" Duration="2" Instrument="quiet bass" Volume="5" VolumeSlideTarget="0" FinePitch="-3" DutyCycle="2"
				Note Time="25" Attack="False" Volume="2" VolumeSlideTarget="0"
				Note Time="26" Value="B0" Duration="2" Instrument="quiet bass" Volume="5" VolumeSlideTarget="3" DutyCycle="0"
				Note Time="27" Volume="2" VolumeSlideTarget="0"
				Note Time="28" Value="B1" Duration="2" Instrument="quiet bass" Volume="5" VolumeSlideTarget="3" DutyCycle="1"
				Note Time="29" Attack="False" Volume="2" VolumeSlideTarget="0"
				Note Time="30" Value="B0" Duration="2" Instrument="quiet bass" Volume="5" VolumeSlideTarget="3" DutyCycle="0"
				Note Time="31" Volume="2" VolumeSlideTarget="0"
				Note Time="32" Value="B0" Duration="4" Instrument="quiet bass" Volume="5" VolumeSlideTarget="0"
				Note Time="34" Attack="False"
				Note Time="35" Volume="0"
				Note Time="36" Value="B0" Duration="2" Instrument="quiet bass"
				Note Time="37" Attack="False" Volume="2" VolumeSlideTarget="0"
				Note Time="38" Value="B0" Duration="2" Instrument="quiet bass" Volume="5" VolumeSlideTarget="3"
				Note Time="39" Attack="False" Volume="2" VolumeSlideTarget="0"
				Note Time="40" Value="B1" Duration="4" Instrument="quiet bass" Volume="5" VolumeSlideTarget="0" DutyCycle="1"
				Note Time="43" Volume="0"
				Note Time="44" Value="B1" Duration="2" Instrument="quiet bass"
				Note Time="45" Attack="False" Volume="2" VolumeSlideTarget="0"
				Note Time="46" Value="B1" Duration="2" Instrument="quiet bass" Volume="5" VolumeSlideTarget="3"
				Note Time="47" Attack="False" Volume="2" VolumeSlideTarget="0"
				Note Time="48" Value="B0" Duration="2" Instrument="quiet bass" Volume="5" VolumeSlideTarget="3" DutyCycle="0"
				Note Time="49" Volume="2" VolumeSlideTarget="0"
				Note Time="50" Value="B1" Duration="2" Instrument="quiet bass" Volume="5" VolumeSlideTarget="3" DutyCycle="1"
				Note Time="51" Volume="2" VolumeSlideTarget="0"
				Note Time="52" Value="B1" Duration="2" Instrument="quiet bass" Volume="5" VolumeSlideTarget="3"
				Note Time="53" Attack="False" Volume="2" VolumeSlideTarget="0"
				Note Time="54" Value="B2" Duration="2" Instrument="quiet bass" Volume="5" VolumeSlideTarget="3" DutyCycle="2"
				Note Time="55" Volume="2" VolumeSlideTarget="0"
				Note Time="56" Value="B0" Duration="2" Instrument="quiet bass" Volume="5" VolumeSlideTarget="3" DutyCycle="0"
				Note Time="57" Volume="2" VolumeSlideTarget="0"
				Note Time="58" Value="B1" Duration="2" Instrument="quiet bass" Volume="5" VolumeSlideTarget="3" DutyCycle="1"
				Note Time="59" Attack="False" Volume="2" VolumeSlideTarget="0"
				Note Time="60" Value="B0" Duration="2" Instrument="quiet bass" Volume="5" VolumeSlideTarget="3" DutyCycle="0"
				Note Time="61" Volume="2" VolumeSlideTarget="0"
				Note Time="62" Value="B1" Duration="2" Instrument="quiet bass" Volume="5" VolumeSlideTarget="3" DutyCycle="1"
				Note Time="63" Volume="2" VolumeSlideTarget="0"
			Pattern Name="09" Color="b8ef7e"
				Note Time="32" Value="A0" Duration="6" Instrument="DMC: drums + bass" Volume="0" VolumeSlideTarget="15"
				Note Time="37" Attack="False"
				Note Time="42" Volume="15"
				Note Time="56" Value="A0" Duration="4" Instrument="DMC: drums + bass" Volume="0" VolumeSlideTarget="13" DutyCycle="0"
				Note Time="57" DutyCycle="1"
				Note Time="58" DutyCycle="2"
				Note Time="59" DutyCycle="1"
			Pattern Name="0A" Color="3ec4ff"
				Note Time="0" Value="A0" Duration="2" Instrument="DMC: drums + bass" Volume="10" DutyCycle="0"
				Note Time="1" DutyCycle="1"
				Note Time="32" Value="B0" Duration="2" Instrument="DMC: drums + bass" Volume="5" DutyCycle="0"
				Note Time="34" Value="B0" Duration="7" Instrument="DMC: drums + bass" SlideTarget="C#2" DutyCycle="1"
				Note Time="36" DutyCycle="2"
				Note Time="38" DutyCycle="1"
				Note Time="40" DutyCycle="0"
				Note Time="41" Value="C#2" Duration="1" Instrument="DMC: drums + bass" Attack="False"
				Note Time="56" Value="B3" Duration="4" Instrument="DMC: drums + bass" Volume="1" VolumeSlideTarget="2" DutyCycle="1"
				Note Time="57" Volume="2" VolumeSlideTarget="0"
				Note Time="60" Value="B3" Duration="1" Instrument="DMC: drums + bass" SlideTarget="B3" Volume="2" VolumeSlideTarget="2"
				Note Time="61" Value="B3" Duration="3" Instrument="DMC: drums + bass" Attack="False" Volume="2" VolumeSlideTarget="0"
				Note Time="63" Volume="0"
			Pattern Name="0D" Color="a657d6"
				Note Time="0" Value="B3" Duration="1" Instrument="DMC: drums + bass" SlideTarget="B3" Volume="6" DutyCycle="2"
				Note Time="1" Attack="False"
				Note Time="2" Value="B3" Duration="2" Instrument="DMC: drums + bass"
				Note Time="3" Volume="2"
				Note Time="4" Value="B3" Duration="1" Instrument="DMC: drums + bass" SlideTarget="B3" Volume="6"
				Note Time="5" Value="B3" Duration="1" Instrument="DMC: drums + bass" Attack="False" Volume="2"
				Note Time="6" Value="B3" Duration="1" Instrument="DMC: drums + bass" SlideTarget="B3" Volume="6"
				Note Time="7" Value="B3" Duration="1" Instrument="DMC: drums + bass" Attack="False" Volume="2"
				Note Time="8" Value="B4" Duration="1" Instrument="DMC: drums + bass" Volume="6"
				Note Time="9" Value="B3" Duration="2" Instrument="DMC: drums + bass" Volume="2"
				Note Time="10" Volume="6"
				Note Time="11" Value="B4" Duration="2" Instrument="DMC: drums + bass" Volume="2"
				Note Time="12" Volume="6"
				Note Time="13" Value="B3" Duration="1" Instrument="DMC: drums + bass" Volume="2"
				Note Time="14" Value="B2" Duration="4" Instrument="DMC: drums + bass" Volume="6"
				Note Time="17" Volume="2"
				Note Time="18" Value="B2" Duration="2" Instrument="DMC: drums + bass" Volume="6"
				Note Time="19" Volume="2"
				Note Time="20" Value="B2" Duration="4" Instrument="DMC: drums + bass" Volume="6"
				Note Time="21" Volume="2"
				Note Time="22" Volume="1"
				Note Time="24" Value="B2" Duration="8" Instrument="DMC: drums + bass" Volume="6"
				Note Time="28" Volume="2"
				Note Time="29" Volume="1"
				Note Time="32" Value="B3" Duration="2" Instrument="DMC: drums + bass" Volume="6"
				Note Time="33" Volume="0"
				Note Time="34" Value="B2" Duration="1" Instrument="DMC: drums + bass" Volume="6"
				Note Time="35" Value="B3" Duration="1" Instrument="DMC: drums + bass" Volume="2"
				Note Time="36" Value="B2" Duration="2" Instrument="DMC: drums + bass" Volume="1"
				Note Time="38" Value="B2" Duration="4" Instrument="DMC: drums + bass" Volume="6"
				Note Time="39" Volume="2"
				Note Time="40" Volume="1"
				Note Time="42" Value="B3" Duration="2" Instrument="DMC: drums + bass" Volume="6"
				Note Time="43" Volume="2"
				Note Time="44" Value="B3" Duration="2" Instrument="DMC: drums + bass" SlideTarget="A4" Volume="6"
				Note Time="45" Volume="2"
				Note Time="46" Value="A4" Duration="2" Instrument="DMC: drums + bass" Attack="False" Volume="1"
				Note Time="48" Value="A4" Duration="1" Instrument="DMC: drums + bass" SlideTarget="F#4" Volume="6"
				Note Time="49" Value="F#4" Duration="15" Instrument="DMC: drums + bass" Attack="False" Volume="2"
				Note Time="50" Volume="1"
				Note Time="52" Volume="0"
				Note Time="56" Volume="4"
				Note Time="57" Volume="2"
				Note Time="58" Volume="1"
				Note Time="59" Volume="0"
			Pattern Name="0C" Color="ff7f51"
				Note Time="0" Value="B3" Duration="1" Instrument="DMC: drums + bass" Volume="6" DutyCycle="2"
				Note Time="1" Attack="False"
				Note Time="2" Value="B3" Duration="2" Instrument="DMC: drums + bass"
				Note Time="3" Volume="2"
				Note Time="4" Value="B3" Duration="1" Instrument="DMC: drums + bass" SlideTarget="B3" Volume="6"
				Note Time="5" Value="B3" Duration="1" Instrument="DMC: drums + bass" Attack="False" Volume="2"
				Note Time="6" Value="B3" Duration="1" Instrument="DMC: drums + bass" SlideTarget="B3" Volume="6"
				Note Time="7" Value="B3" Duration="1" Instrument="DMC: drums + bass" Attack="False" Volume="2"
				Note Time="8" Value="B4" Duration="1" Instrument="DMC: drums + bass" Volume="6"
				Note Time="9" Value="B3" Duration="2" Instrument="DMC: drums + bass" Volume="2"
				Note Time="10" Volume="6"
				Note Time="11" Value="B4" Duration="2" Instrument="DMC: drums + bass" Volume="2"
				Note Time="12" Volume="6"
				Note Time="13" Value="B3" Duration="1" Instrument="DMC: drums + bass" Volume="2"
				Note Time="14" Value="B2" Duration="2" Instrument="DMC: drums + bass" Volume="6"
				Note Time="16" Value="B2" Duration="2" Instrument="DMC: drums + bass" SlideTarget="B5" Volume="4"
				Note Time="17" Volume="1"
				Note Time="18" Value="B5" Duration="1" Instrument="DMC: drums + bass" SlideTarget="B5" Volume="4"
				Note Time="19" Value="B5" Duration="1" Instrument="DMC: drums + bass" Attack="False" Volume="1"
				Note Time="20" Value="B2" Duration="1" Instrument="DMC: drums + bass" Volume="6"
				Note Time="21" Value="B3" Duration="1" Instrument="DMC: drums + bass" Volume="2"
				Note Time="22" Value="B3" Duration="1" Instrument="DMC: drums + bass" Volume="6"
				Note Time="23" Value="B2" Duration="1" Instrument="DMC: drums + bass" Volume="2"
				Note Time="24" Value="B2" Duration="8" Instrument="DMC: drums + bass" Volume="6"
				Note Time="28" Volume="2"
				Note Time="29" Volume="1"
				Note Time="32" Value="B3" Duration="2" Instrument="DMC: drums + bass" Volume="6"
				Note Time="33" Volume="0"
				Note Time="34" Value="B2" Duration="1" Instrument="DMC: drums + bass" Volume="6"
				Note Time="35" Value="B3" Duration="1" Instrument="DMC: drums + bass" Volume="2"
				Note Time="36" Value="B2" Duration="2" Instrument="DMC: drums + bass" Volume="1"
				Note Time="38" Value="B2" Duration="4" Instrument="DMC: drums + bass" Volume="6"
				Note Time="39" Volume="2"
				Note Time="40" Volume="1"
				Note Time="42" Value="B3" Duration="2" Instrument="DMC: drums + bass" Volume="6"
				Note Time="43" Volume="2"
				Note Time="44" Value="B3" Duration="2" Instrument="DMC: drums + bass" SlideTarget="A4" Volume="6"
				Note Time="45" Volume="2"
				Note Time="46" Value="A4" Duration="2" Instrument="DMC: drums + bass" Attack="False" Volume="1"
				Note Time="48" Value="F#4" Duration="16" Instrument="DMC: drums + bass" Volume="6"
				Note Time="49" Volume="2"
				Note Time="50" Volume="1"
				Note Time="52" Volume="0"
				Note Time="56" Volume="4"
				Note Time="57" Volume="2"
				Note Time="58" Volume="1"
				Note Time="59" Volume="0"
			Pattern Name="0B" Color="ffffb1"
				Note Time="0" Value="B3" Duration="1" Instrument="DMC: drums + bass" Volume="6" DutyCycle="2"
				Note Time="2" Value="B3" Duration="2" Instrument="DMC: drums + bass"
				Note Time="3" Volume="2"
				Note Time="4" Value="B3" Duration="2" Instrument="DMC: drums + bass" Volume="6"
				Note Time="5" Volume="2"
				Note Time="6" Value="B3" Duration="2" Instrument="DMC: drums + bass" Volume="6"
				Note Time="7" Volume="2"
				Note Time="8" Value="B4" Duration="1" Instrument="DMC: drums + bass" Volume="6"
				Note Time="9" Value="B3" Duration="2" Instrument="DMC: drums + bass" Volume="2"
				Note Time="10" Volume="6"
				Note Time="11" Value="B4" Duration="2" Instrument="DMC: drums + bass" Volume="2"
				Note Time="12" Volume="6"
				Note Time="13" Value="B3" Duration="1" Instrument="DMC: drums + bass" Volume="2"
				Note Time="14" Value="B2" Duration="4" Instrument="DMC: drums + bass" Volume="6"
				Note Time="17" Volume="2"
				Note Time="18" Value="B2" Duration="2" Instrument="DMC: drums + bass" Volume="6"
				Note Time="19" Volume="2"
				Note Time="20" Value="B2" Duration="4" Instrument="DMC: drums + bass" Volume="6"
				Note Time="21" Volume="2"
				Note Time="22" Volume="1"
				Note Time="24" Value="B2" Duration="8" Instrument="DMC: drums + bass" Volume="6"
				Note Time="28" Volume="2"
				Note Time="29" Volume="1"
				Note Time="32" Value="B3" Duration="2" Instrument="DMC: drums + bass" Volume="6"
				Note Time="33" Volume="0"
				Note Time="34" Value="B2" Duration="1" Instrument="DMC: drums + bass" Volume="6"
				Note Time="35" Value="B3" Duration="1" Instrument="DMC: drums + bass" Volume="2"
				Note Time="36" Value="B2" Duration="2" Instrument="DMC: drums + bass" Volume="1"
				Note Time="38" Value="B2" Duration="4" Instrument="DMC: drums + bass" Volume="6"
				Note Time="39" Volume="2"
				Note Time="40" Volume="1"
				Note Time="42" Value="B3" Duration="2" Instrument="DMC: drums + bass" Volume="6"
				Note Time="43" Volume="2"
				Note Time="44" Value="A4" Duration="2" Instrument="DMC: drums + bass" SlideTarget="A4" Volume="6"
				Note Time="45" Volume="2"
				Note Time="46" Value="A4" Duration="2" Instrument="DMC: drums + bass" SlideTarget="G#4" Attack="False" Volume="1"
				Note Time="48" Value="F#4" Duration="8" Instrument="DMC: drums + bass" Volume="6"
				Note Time="49" Volume="2"
				Note Time="50" Volume="1"
				Note Time="52" Volume="0"
				Note Time="56" Value="F7" Duration="4" Instrument="DMC: drums + bass" SlideTarget="C#3" Volume="4"
				Note Time="58" Volume="1"
				Note Time="60" Value="D#6" Duration="4" Instrument="DMC: drums + bass" SlideTarget="C3" Volume="4"
				Note Time="62" Volume="1"
			Pattern Name="0E" Color="62ffff"
				Note Time="0" Value="B3" Duration="6" Instrument="octave arp [ no duty ]" Volume="13" DutyCycle="2"
				Note Time="1" DutyCycle="1"
				Note Time="2" Volume="2"
				Note Time="4" Volume="1"
				Note Time="12" Value="A3" Duration="4" Instrument="octave arp [ no duty ]" Volume="13" DutyCycle="2"
				Note Time="14" Volume="2"
				Note Time="16" Value="B3" Duration="4" Instrument="octave arp [ no duty ]" Volume="13"
				Note Time="18" Volume="2"
				Note Time="20" Value="A3" Duration="4" Instrument="octave arp [ no duty ]" Volume="13"
				Note Time="22" Volume="2"
				Note Time="24" Value="B3" Duration="4" Instrument="octave arp [ no duty ]" Volume="13"
				Note Time="26" Volume="2"
				Note Time="28" Value="A3" Duration="2" Instrument="octave arp [ no duty ]" Volume="13"
				Note Time="29" Volume="2"
				Note Time="30" Value="D4" Duration="6" Instrument="octave arp [ no duty ]" Volume="13"
				Note Time="34" Volume="2"
				Note Time="36" Value="B3" Duration="4" Instrument="octave arp [ no duty ]" Volume="13" DutyCycle="2"
				Note Time="37" DutyCycle="1"
				Note Time="38" Volume="2"
				Note Time="40" Value="A3" Duration="2" Instrument="octave arp [ no duty ]" Volume="13" DutyCycle="2"
				Note Time="41" Volume="2" DutyCycle="1"
				Note Time="42" Value="B3" Duration="4" Instrument="octave arp [ no duty ]" Volume="13" DutyCycle="2"
				Note Time="43" DutyCycle="1"
				Note Time="44" Volume="2"
				Note Time="46" Value="D4" Duration="6" Instrument="octave arp [ no duty ]" Volume="13" DutyCycle="2"
				Note Time="47" DutyCycle="1"
				Note Time="50" Volume="2"
				Note Time="52" Value="B3" Duration="4" Instrument="octave arp [ no duty ]" Volume="13" DutyCycle="2"
				Note Time="53" DutyCycle="1"
				Note Time="54" Volume="2"
				Note Time="56" Value="A3" Duration="2" Instrument="octave arp [ no duty ]" Volume="13" DutyCycle="2"
				Note Time="57" Volume="2" DutyCycle="1"
				Note Time="58" Value="B3" Duration="6" Instrument="octave arp [ no duty ]" Volume="13" DutyCycle="2"
				Note Time="59" DutyCycle="1"
				Note Time="60" Volume="2"
			Pattern Name="0F" Color="a376f3"
				Note Time="0" Value="B3" Duration="6" Instrument="octave arp [ no duty ]" Volume="13" DutyCycle="2"
				Note Time="1" DutyCycle="1"
				Note Time="2" Volume="2"
				Note Time="4" Volume="1"
				Note Time="12" Value="A3" Duration="2" Instrument="octave arp [ no duty ]" Volume="13" DutyCycle="2"
				Note Time="13" Volume="2" DutyCycle="1"
				Note Time="14" Value="A3" Duration="2" Instrument="octave arp [ no duty ]" Volume="13" DutyCycle="2"
				Note Time="15" Volume="2" DutyCycle="1"
				Note Time="16" Value="B3" Duration="4" Instrument="octave arp [ no duty ]" Volume="13" DutyCycle="2"
				Note Time="17" DutyCycle="1"
				Note Time="18" Volume="2"
				Note Time="20" Value="A3" Duration="4" Instrument="octave arp [ no duty ]" Volume="13" DutyCycle="2"
				Note Time="21" DutyCycle="1"
				Note Time="22" Volume="2"
				Note Time="24" Value="B3" Duration="4" Instrument="octave arp [ no duty ]" Volume="13" DutyCycle="2"
				Note Time="25" DutyCycle="1"
				Note Time="26" Volume="2"
				Note Time="28" Value="A3" Duration="2" Instrument="octave arp [ no duty ]" Volume="13" DutyCycle="2"
				Note Time="29" Volume="2" DutyCycle="1"
				Note Time="30" Value="D4" Duration="6" Instrument="octave arp [ no duty ]" Volume="13" DutyCycle="2"
				Note Time="31" DutyCycle="1"
				Note Time="34" Volume="2"
				Note Time="36" Value="B3" Duration="4" Instrument="octave arp [ no duty ]" Volume="13" DutyCycle="1"
				Note Time="37" DutyCycle="0"
				Note Time="38" Volume="2"
				Note Time="40" Value="A3" Duration="2" Instrument="octave arp [ no duty ]" Volume="13" DutyCycle="1"
				Note Time="41" Volume="2" DutyCycle="0"
				Note Time="42" Value="B3" Duration="4" Instrument="octave arp [ no duty ]" Volume="13" DutyCycle="1"
				Note Time="43" DutyCycle="0"
				Note Time="44" Volume="2"
				Note Time="46" Value="D4" Duration="6" Instrument="octave arp [ no duty ]" Volume="13" DutyCycle="1"
				Note Time="47" DutyCycle="0"
				Note Time="50" Volume="2"
				Note Time="52" Value="B3" Duration="4" Instrument="octave arp [ no duty ]" Volume="13" DutyCycle="1"
				Note Time="53" DutyCycle="0"
				Note Time="54" Volume="2"
				Note Time="56" Value="A3" Duration="2" Instrument="octave arp [ no duty ]" Volume="13" DutyCycle="1"
				Note Time="57" Volume="2" DutyCycle="0"
				Note Time="58" Value="B3" Duration="6" Instrument="octave arp [ no duty ]" Volume="13" DutyCycle="1"
				Note Time="59" DutyCycle="0"
				Note Time="60" Volume="2"
			Pattern Name="10" Color="b59184"
				Note Time="0" Value="B3" Duration="6" Instrument="octave arp [ no duty ]" Volume="13" DutyCycle="2"
				Note Time="1" DutyCycle="1"
				Note Time="2" Volume="2"
				Note Time="4" Volume="1"
				Note Time="12" Value="A3" Duration="4" Instrument="octave arp [ no duty ]" Volume="13" DutyCycle="2"
				Note Time="14" Volume="2"
				Note Time="16" Value="B3" Duration="4" Instrument="octave arp [ no duty ]" Volume="13"
				Note Time="18" Volume="2"
				Note Time="20" Value="A3" Duration="4" Instrument="octave arp [ no duty ]" Volume="13"
				Note Time="22" Volume="2"
				Note Time="24" Value="B3" Duration="4" Instrument="octave arp [ no duty ]" Volume="13"
				Note Time="26" Volume="2"
				Note Time="28" Value="A3" Duration="2" Instrument="octave arp [ no duty ]" Volume="13"
				Note Time="29" Volume="2"
				Note Time="30" Value="D4" Duration="6" Instrument="octave arp [ no duty ]" Volume="13"
				Note Time="34" Volume="2"
				Note Time="36" Value="B3" Duration="4" Instrument="octave arp [ no duty ]" Volume="13" DutyCycle="2"
				Note Time="37" DutyCycle="1"
				Note Time="38" Volume="2"
				Note Time="40" Value="A3" Duration="2" Instrument="octave arp [ no duty ]" Volume="13" DutyCycle="2"
				Note Time="41" Volume="2" DutyCycle="1"
				Note Time="42" Value="B4" Duration="4" Instrument="octave arp [ no duty ]" Volume="13" DutyCycle="2"
				Note Time="43" DutyCycle="1"
				Note Time="44" Volume="2"
				Note Time="46" Value="D4" Duration="2" Instrument="octave arp [ no duty ]" Volume="13" DutyCycle="2"
				Note Time="47" DutyCycle="1"
				Note Time="48" Value="B4" Duration="4" Instrument="octave arp [ no duty ]"
				Note Time="50" Volume="2"
				Note Time="52" Value="B3" Duration="4" Instrument="octave arp [ no duty ]" Volume="13" DutyCycle="2"
				Note Time="53" DutyCycle="1"
				Note Time="54" Volume="2"
				Note Time="56" Value="B4" Duration="2" Instrument="octave arp [ no duty ]" Volume="13" DutyCycle="2"
				Note Time="57" Volume="2" DutyCycle="1"
				Note Time="58" Value="B3" Duration="6" Instrument="octave arp [ no duty ]" Volume="13" DutyCycle="2"
				Note Time="59" DutyCycle="1"
				Note Time="60" Volume="2"
			Pattern Name="11" Color="ffff71"
				Note Time="0" Value="B3" Duration="6" Instrument="octave arp [ no duty ]" Volume="13" DutyCycle="2"
				Note Time="1" DutyCycle="1"
				Note Time="2" Volume="2"
				Note Time="4" Volume="1"
				Note Time="12" Value="A3" Duration="2" Instrument="octave arp [ no duty ]" Volume="13" DutyCycle="2"
				Note Time="13" Volume="2" DutyCycle="1"
				Note Time="14" Value="A3" Duration="2" Instrument="octave arp [ no duty ]" Volume="13" DutyCycle="2"
				Note Time="15" Volume="2" DutyCycle="1"
				Note Time="16" Value="B3" Duration="4" Instrument="octave arp [ no duty ]" Volume="13" DutyCycle="2"
				Note Time="17" DutyCycle="1"
				Note Time="18" Volume="2"
				Note Time="20" Value="A3" Duration="4" Instrument="octave arp [ no duty ]" Volume="13" DutyCycle="2"
				Note Time="21" DutyCycle="1"
				Note Time="22" Volume="2"
				Note Time="24" Value="B3" Duration="4" Instrument="octave arp [ no duty ]" Volume="13" DutyCycle="2"
				Note Time="25" DutyCycle="1"
				Note Time="26" Volume="2"
				Note Time="28" Value="A3" Duration="2" Instrument="octave arp [ no duty ]" Volume="13" DutyCycle="2"
				Note Time="29" Volume="2" DutyCycle="1"
				Note Time="30" Value="D4" Duration="6" Instrument="octave arp [ no duty ]" Volume="13" DutyCycle="2"
				Note Time="31" DutyCycle="1"
				Note Time="34" Volume="2"
				Note Time="36" Value="B3" Duration="4" Instrument="octave arp [ no duty ]" Volume="13" DutyCycle="1"
				Note Time="37" DutyCycle="0"
				Note Time="38" Volume="2"
				Note Time="40" Value="A3" Duration="2" Instrument="octave arp [ no duty ]" Volume="13" DutyCycle="1"
				Note Time="41" Volume="2" DutyCycle="0"
				Note Time="42" Value="B3" Duration="4" Instrument="octave arp [ no duty ]" Volume="13" DutyCycle="1"
				Note Time="43" DutyCycle="0"
				Note Time="44" Volume="2"
				Note Time="46" Value="D4" Duration="4" Instrument="octave arp [ no duty ]" Volume="13" DutyCycle="1"
				Note Time="47" DutyCycle="0"
				Note Time="50" Value="D4" Duration="2" Instrument="octave arp [ no duty ]" DutyCycle="2"
				Note Time="52" Value="B3" Duration="4" Instrument="octave arp [ no duty ]" DutyCycle="1"
				Note Time="53" DutyCycle="0"
				Note Time="54" Volume="2"
				Note Time="56" Value="A3" Duration="2" Instrument="octave arp [ no duty ]" Volume="13" DutyCycle="1"
				Note Time="57" Volume="2" DutyCycle="0"
				Note Time="58" Value="B3" Duration="6" Instrument="octave arp [ no duty ]" Volume="13" DutyCycle="1"
				Note Time="59" DutyCycle="0"
				Note Time="60" Volume="2"
			Pattern Name="12" Color="3cb5a7"
				Note Time="0" Value="B4" Duration="2" Instrument="octave arp" Volume="13" Speed="6"
				Note Time="1" Volume="2"
				Note Time="2" Value="A#4" Duration="2" Instrument="octave arp" Volume="13"
				Note Time="3" Volume="2"
				Note Time="4" Value="A4" Duration="2" Instrument="octave arp" Volume="13"
				Note Time="5" Volume="2"
				Note Time="6" Value="G#4" Duration="2" Instrument="octave arp" Volume="13"
				Note Time="7" Volume="2"
				Note Time="8" Value="G4" Duration="2" Instrument="octave arp" Volume="13"
				Note Time="9" Volume="2"
				Note Time="10" Value="F#4" Duration="2" Instrument="octave arp" Volume="13"
				Note Time="11" Volume="2"
				Note Time="12" Value="F4" Duration="2" Instrument="octave arp" Volume="13"
				Note Time="13" Volume="2"
				Note Time="14" Value="E4" Duration="2" Instrument="octave arp" Volume="13"
				Note Time="15" Volume="2"
				Note Time="16" Value="B2" Duration="1" Instrument="blank" Volume="5" DutyCycle="2"
				Note Time="17" Value="B2" Duration="15" Instrument="blank" SlideTarget="G#3" Attack="False"
				Note Time="18" Attack="False"
				Note Time="21" Attack="False"
				Note Time="27" Attack="False"
				Note Time="32" Value="B3" Duration="12" Instrument="blank" Volume="6"
				Note Time="33" Volume="6" VolumeSlideTarget="0"
				Note Time="41" Volume="0"
			PatternInstance Time="0" Pattern="00"
			PatternInstance Time="1" Pattern="01"
			PatternInstance Time="2" Pattern="02"
			PatternInstance Time="3" Pattern="01"
			PatternInstance Time="4" Pattern="03"
			PatternInstance Time="5" Pattern="04"
			PatternInstance Time="6" Pattern="05"
			PatternInstance Time="7" Pattern="06"
			PatternInstance Time="8" Pattern="07"
			PatternInstance Time="9" Pattern="08"
			PatternInstance Time="10" Pattern="00"
			PatternInstance Time="11" Pattern="09"
			PatternInstance Time="12" Pattern="0A"
			PatternInstance Time="13" Pattern="0D"
			PatternInstance Time="14" Pattern="0C"
			PatternInstance Time="15" Pattern="0B"
			PatternInstance Time="16" Pattern="0C"
			PatternInstance Time="17" Pattern="0E"
			PatternInstance Time="18" Pattern="0F"
			PatternInstance Time="19" Pattern="10"
			PatternInstance Time="20" Pattern="11"
			PatternInstance Time="21" Pattern="12"
		Channel Type="Triangle"
			Pattern Name="01" Color="ffafaf"
				Note Time="48" Value="C3" Duration="1" Instrument="triangle drums"
				Note Time="51" Value="C3" Duration="1" Instrument="triangle drums"
				Note Time="58" Value="C3" Duration="1" Instrument="triangle drums"
				Note Time="61" Value="C3" Duration="1" Instrument="triangle drums"
			Pattern Name="02" Color="ffff8b"
				Note Time="0" Value="C3" Duration="1" Instrument="triangle drums"
				Note Time="3" Value="C3" Duration="1" Instrument="triangle drums"
				Note Time="4" Value="C5" Duration="1" Instrument="triangle drums"
				Note Time="6" Value="C3" Duration="1" Instrument="triangle drums"
				Note Time="12" Value="C5" Duration="1" Instrument="triangle drums"
				Note Time="14" Value="C3" Duration="1" Instrument="triangle drums"
				Note Time="16" Value="C3" Duration="1" Instrument="triangle drums"
				Note Time="19" Value="C3" Duration="1" Instrument="triangle drums"
				Note Time="20" Value="C5" Duration="1" Instrument="triangle drums"
				Note Time="22" Value="C3" Duration="1" Instrument="triangle drums"
				Note Time="28" Value="C5" Duration="1" Instrument="triangle drums"
				Note Time="32" Value="C3" Duration="1" Instrument="triangle drums"
				Note Time="35" Value="C3" Duration="1" Instrument="triangle drums"
				Note Time="36" Value="C5" Duration="1" Instrument="triangle drums"
				Note Time="38" Value="C3" Duration="1" Instrument="triangle drums"
				Note Time="44" Value="C5" Duration="1" Instrument="triangle drums"
				Note Time="46" Value="C3" Duration="1" Instrument="triangle drums"
				Note Time="48" Value="C3" Duration="1" Instrument="triangle drums"
				Note Time="51" Value="C3" Duration="1" Instrument="triangle drums"
				Note Time="52" Value="C5" Duration="1" Instrument="triangle drums"
				Note Time="54" Value="C3" Duration="1" Instrument="triangle drums"
				Note Time="59" Value="C3" Duration="1" Instrument="triangle drums"
				Note Time="60" Value="C5" Duration="1" Instrument="triangle drums"
				Note Time="62" Value="C3" Duration="1" Instrument="triangle drums"
			Pattern Name="03" Color="a2f7a6"
				Note Time="0" Value="C3" Duration="1" Instrument="triangle drums"
				Note Time="16" Value="B0" Duration="1" Instrument="triangle pluck"
				Note Time="17" Value="B0" Duration="1" Instrument="triangle pluck"
				Note Time="18" Value="B0" Duration="1" Instrument="triangle pluck"
				Note Time="19" Value="B0" Duration="2" Instrument="triangle pluck 4"
				Note Time="21" Value="B0" Duration="1" Instrument="triangle pluck"
				Note Time="22" Value="B0" Duration="2" Instrument="triangle pluck 4"
				Note Time="24" Value="B0" Duration="2" Instrument="triangle pluck 4"
				Note Time="26" Value="B0" Duration="2" Instrument="DMC: drums + bass"
				Note Time="28" Value="B1" Duration="2" Instrument="DMC: drums + bass"
				Note Time="30" Value="B0" Duration="2" Instrument="DMC: drums + bass"
				Note Time="32" Value="B1" Duration="1" Instrument="DMC: drums + bass"
				Note Time="40" Value="F1" Duration="4" Instrument="DMC: drums + bass" SlideTarget="F#1"
				Note Time="44" Value="F#1" Duration="3" Instrument="DMC: drums + bass" SlideTarget="C2" Attack="False"
				Note Time="47" Value="C2" Duration="1" Instrument="DMC: drums + bass" SlideTarget="B0" Attack="False"
				Note Time="48" Value="C#1" Duration="8" Instrument="DMC: drums + bass" SlideTarget="D#1"
				Note Time="56" Value="D#1" Duration="8" Instrument="DMC: drums + bass" SlideTarget="G2" Attack="False"
			Pattern Name="04" Color="ff5a9f"
				Note Time="0" Value="C3" Duration="1" Instrument="triangle drums"
				Note Time="1" Value="B0" Duration="1" Instrument="DMC: drums + bass"
				Note Time="2" Value="B1" Duration="2" Instrument="DMC: drums + bass"
				Note Time="4" Value="B0" Duration="1" Instrument="triangle pluck"
				Note Time="5" Value="B0" Duration="1" Instrument="triangle pluck"
				Note Time="6" Value="B0" Duration="1" Instrument="triangle pluck"
				Note Time="7" Value="B0" Duration="1" Instrument="triangle pluck"
				Note Time="8" Value="C5" Duration="1" Instrument="triangle drums"
				Note Time="9" Value="B0" Duration="1" Instrument="DMC: drums + bass"
				Note Time="11" Value="B0" Duration="2" Instrument="DMC: drums + bass"
				Note Time="14" Value="B0" Duration="1" Instrument="DMC: drums + bass"
				Note Time="16" Value="C3" Duration="2" Instrument="triangle drums"
				Note Time="18" Value="B1" Duration="1" Instrument="DMC: drums + bass"
				Note Time="19" Value="C3" Duration="1" Instrument="triangle drums"
				Note Time="20" Value="B0" Duration="2" Instrument="DMC: drums + bass"
				Note Time="22" Value="C3" Duration="1" Instrument="triangle drums"
				Note Time="23" Value="B0" Duration="1" Instrument="DMC: drums + bass"
				Note Time="24" Value="C5" Duration="1" Instrument="triangle drums"
				Note Time="25" Value="B1" Duration="1" Instrument="DMC: drums + bass"
				Note Time="27" Value="B0" Duration="1" Instrument="triangle pluck"
				Note Time="28" Value="B0" Duration="1" Instrument="triangle pluck"
				Note Time="29" Value="B0" Duration="1" Instrument="triangle pluck"
				Note Time="30" Value="B0" Duration="1" Instrument="DMC: drums + bass" SlideTarget="D1"
				Note Time="31" Value="D1" Duration="1" Instrument="DMC: drums + bass" Attack="False"
				Note Time="32" Value="C3" Duration="1" Instrument="triangle drums"
				Note Time="33" Value="B1" Duration="2" Instrument="DMC: drums + bass"
				Note Time="35" Value="B1" Duration="1" Instrument="DMC: drums + bass" SlideTarget="B0"
				Note Time="36" Value="B0" Duration="1" Instrument="DMC: drums + bass" Attack="False"
				Note Time="38" Value="B0" Duration="1" Instrument="triangle pluck"
				Note Time="39" Value="B0" Duration="1" Instrument="triangle pluck"
				Note Time="40" Value="C5" Duration="1" Instrument="triangle drums"
				Note Time="41" Value="B0" Duration="1" Instrument="DMC: drums + bass"
				Note Time="43" Value="B0" Duration="2" Instrument="DMC: drums + bass"
				Note Time="46" Value="B0" Duration="1" Instrument="DMC: drums + bass"
				Note Time="48" Value="C3" Duration="1" Instrument="triangle drums"
				Note Time="49" Value="B0" Duration="1" Instrument="DMC: drums + bass"
				Note Time="50" Value="B0" Duration="1" Instrument="DMC: drums + bass" SlideTarget="F1"
				Note Time="51" Value="C3" Duration="1" Instrument="triangle drums"
				Note Time="52" Value="B1" Duration="2" Instrument="DMC: drums + bass"
				Note Time="54" Value="C3" Duration="1" Instrument="triangle drums"
				Note Time="55" Value="B1" Duration="1" Instrument="DMC: drums + bass"
				Note Time="56" Value="C5" Duration="1" Instrument="triangle drums"
				Note Time="57" Value="B1" Duration="5" Instrument="DMC: drums + bass" VibratoSpeed="8" VibratoDepth="8"
				Note Time="61" VibratoSpeed="0" VibratoDepth="0"
				Note Time="62" Value="B1" Duration="2" Instrument="DMC: drums + bass" SlideTarget="G#1" Attack="False"
			Pattern Name="05" Color="ffd43c"
				Note Time="0" Value="C3" Duration="1" Instrument="triangle drums"
				Note Time="1" Value="B0" Duration="1" Instrument="DMC: drums + bass"
				Note Time="3" Value="B0" Duration="2" Instrument="DMC: drums + bass"
				Note Time="6" Value="B0" Duration="1" Instrument="triangle pluck"
				Note Time="7" Value="B0" Duration="1" Instrument="triangle pluck"
				Note Time="8" Value="C5" Duration="2" Instrument="triangle drums"
				Note Time="10" Value="B1" Duration="3" Instrument="DMC: drums + bass"
				Note Time="14" Value="B0" Duration="1" Instrument="DMC: drums + bass"
				Note Time="16" Value="C3" Duration="1" Instrument="triangle drums"
				Note Time="18" Value="C#1" Duration="1" Instrument="DMC: drums + bass"
				Note Time="19" Value="C3" Duration="1" Instrument="triangle drums"
				Note Time="22" Value="C3" Duration="1" Instrument="triangle drums"
				Note Time="23" Value="C#1" Duration="1" Instrument="DMC: drums + bass"
				Note Time="24" Value="C5" Duration="2" Instrument="triangle drums"
				Note Time="26" Value="C#1" Duration="1" Instrument="DMC: drums + bass"
				Note Time="28" Value="D1" Duration="4" Instrument="DMC: drums + bass"
				Note Time="30" VibratoSpeed="8" VibratoDepth="8"
				Note Time="32" Value="C3" Duration="1" Instrument="triangle drums" VibratoSpeed="0" VibratoDepth="0"
				Note Time="33" Value="B1" Duration="2" Instrument="DMC: drums + bass"
				Note Time="35" Value="B1" Duration="1" Instrument="DMC: drums + bass" SlideTarget="B0"
				Note Time="36" Value="B0" Duration="1" Instrument="DMC: drums + bass" Attack="False"
				Note Time="38" Value="B0" Duration="1" Instrument="triangle pluck"
				Note Time="39" Value="B0" Duration="1" Instrument="triangle pluck"
				Note Time="40" Value="C5" Duration="1" Instrument="triangle drums"
				Note Time="41" Value="B0" Duration="1" Instrument="DMC: drums + bass"
				Note Time="43" Value="B0" Duration="2" Instrument="DMC: drums + bass"
				Note Time="46" Value="B0" Duration="1" Instrument="DMC: drums + bass"
				Note Time="48" Value="C3" Duration="1" Instrument="triangle drums"
				Note Time="49" Value="B0" Duration="1" Instrument="DMC: drums + bass"
				Note Time="50" Value="B0" Duration="1" Instrument="DMC: drums + bass" SlideTarget="F1"
				Note Time="51" Value="C3" Duration="1" Instrument="triangle drums"
				Note Time="52" Value="B1" Duration="2" Instrument="DMC: drums + bass"
				Note Time="54" Value="C3" Duration="1" Instrument="triangle drums"
				Note Time="55" Value="B1" Duration="1" Instrument="DMC: drums + bass"
				Note Time="56" Value="C5" Duration="1" Instrument="triangle drums"
				Note Time="57" Value="B1" Duration="5" Instrument="DMC: drums + bass" VibratoSpeed="8" VibratoDepth="8"
				Note Time="61" VibratoSpeed="0" VibratoDepth="0"
				Note Time="62" Value="B1" Duration="2" Instrument="DMC: drums + bass" SlideTarget="G#1" Attack="False"
			Pattern Name="07" Color="a4db74"
				Note Time="0" Value="C3" Duration="2" Instrument="triangle drums"
				Note Time="6" Value="C3" Duration="2" Instrument="triangle drums"
				Note Time="8" Value="C5" Duration="1" Instrument="triangle drums"
				Note Time="12" Value="C3" Duration="2" Instrument="triangle drums"
				Note Time="20" Value="C3" Duration="2" Instrument="triangle drums"
				Note Time="24" Value="C5" Duration="1" Instrument="triangle drums"
				Note Time="32" Value="C3" Duration="2" Instrument="triangle drums"
				Note Time="38" Value="C3" Duration="2" Instrument="triangle drums"
				Note Time="40" Value="C5" Duration="1" Instrument="triangle drums"
				Note Time="44" Value="C3" Duration="2" Instrument="triangle drums"
				Note Time="52" Value="C3" Duration="2" Instrument="triangle drums"
				Note Time="56" Value="C5" Duration="1" Instrument="triangle drums"
				Note Time="58" Value="C3" Duration="2" Instrument="triangle drums"
			Pattern Name="08" Color="3eb3f9"
				Note Time="0" Value="C3" Duration="2" Instrument="triangle drums"
				Note Time="6" Value="C3" Duration="2" Instrument="triangle drums"
				Note Time="8" Value="C5" Duration="2" Instrument="triangle drums"
				Note Time="12" Value="C3" Duration="2" Instrument="triangle drums"
				Note Time="20" Value="C3" Duration="2" Instrument="triangle drums"
				Note Time="24" Value="C5" Duration="1" Instrument="triangle drums"
				Note Time="32" Value="C3" Duration="2" Instrument="triangle drums"
				Note Time="38" Value="C3" Duration="2" Instrument="triangle drums"
				Note Time="40" Value="C5" Duration="1" Instrument="triangle drums"
				Note Time="44" Value="C3" Duration="2" Instrument="triangle drums"
				Note Time="48" Value="C3" Duration="2" Instrument="triangle drums"
				Note Time="52" Value="C5" Duration="1" Instrument="triangle drums"
				Note Time="56" Value="C3" Duration="2" Instrument="triangle drums"
				Note Time="60" Value="C5" Duration="1" Instrument="triangle drums"
			Pattern Name="09" Color="f6a4ff"
				Note Time="0" Value="C3" Duration="2" Instrument="triangle drums"
				Note Time="6" Value="C3" Duration="2" Instrument="triangle drums"
				Note Time="8" Value="C5" Duration="1" Instrument="triangle drums"
				Note Time="12" Value="C3" Duration="2" Instrument="triangle drums"
				Note Time="20" Value="C3" Duration="2" Instrument="triangle drums"
				Note Time="24" Value="C5" Duration="1" Instrument="triangle drums"
				Note Time="32" Value="C3" Duration="2" Instrument="triangle drums"
				Note Time="38" Value="C3" Duration="2" Instrument="triangle drums"
				Note Time="40" Value="C5" Duration="1" Instrument="triangle drums"
				Note Time="44" Value="C3" Duration="2" Instrument="triangle drums"
				Note Time="48" Value="C3" Duration="2" Instrument="triangle drums"
				Note Time="52" Value="C5" Duration="1" Instrument="triangle drums"
			Pattern Name="0A" Color="ffc6a1"
				Note Time="0" Value="C3" Duration="2" Instrument="triangle drums"
				Note Time="6" Value="C3" Duration="2" Instrument="triangle drums"
				Note Time="8" Value="C5" Duration="1" Instrument="triangle drums"
				Note Time="12" Value="C3" Duration="2" Instrument="triangle drums"
				Note Time="20" Value="C3" Duration="2" Instrument="triangle drums"
				Note Time="24" Value="C5" Duration="1" Instrument="triangle drums"
				Note Time="32" Value="C3" Duration="2" Instrument="triangle drums"
				Note Time="38" Value="C3" Duration="2" Instrument="triangle drums"
				Note Time="40" Value="C5" Duration="1" Instrument="triangle drums"
				Note Time="44" Value="C3" Duration="2" Instrument="triangle drums"
				Note Time="48" Value="C3" Duration="2" Instrument="triangle drums"
				Note Time="52" Value="C5" Duration="1" Instrument="triangle drums"
				Note Time="56" Value="C3" Duration="2" Instrument="triangle drums"
				Note Time="60" Value="C5" Duration="1" Instrument="triangle drums"
			Pattern Name="0B" Color="ffff93"
				Note Time="16" Value="B1" Duration="16" Instrument="blank" SlideTarget="A2"
				Note Time="32" Value="B1" Duration="12" Instrument="blank"
				Note Time="33" CutDelay="4"
			PatternInstance Time="2" Pattern="01"
			PatternInstance Time="3" Pattern="02"
			PatternInstance Time="4" Pattern="02"
			PatternInstance Time="5" Pattern="03"
			PatternInstance Time="6" Pattern="04"
			PatternInstance Time="7" Pattern="05"
			PatternInstance Time="9" Pattern="07"
			PatternInstance Time="10" Pattern="08"
			PatternInstance Time="11" Pattern="07"
			PatternInstance Time="12" Pattern="08"
			PatternInstance Time="13" Pattern="07"
			PatternInstance Time="14" Pattern="08"
			PatternInstance Time="15" Pattern="07"
			PatternInstance Time="16" Pattern="09"
			PatternInstance Time="17" Pattern="08"
			PatternInstance Time="18" Pattern="08"
			PatternInstance Time="19" Pattern="08"
			PatternInstance Time="20" Pattern="0A"
			PatternInstance Time="21" Pattern="0B"
		Channel Type="Noise"
			Pattern Name="00" Color="3cf8ff"
				Note Time="0" Value="E3" Duration="1" Instrument="clutterfunk sax" Volume="2" DutyCycle="0"
				Note Time="1" Value="F3" Duration="1" Instrument="clutterfunk sax" Volume="4"
				Note Time="2" Value="F#3" Duration="1" Instrument="clutterfunk sax" Volume="6"
				Note Time="3" Value="F#3" Duration="1" Instrument="Instrument 2" Volume="10"
			Pattern Name="01" Color="9a71ed"
				Note Time="0" Value="G#3" Duration="2" Instrument="cymbal" Volume="15"
				Note Time="2" Value="E3" Duration="2" Instrument="hat"
				Note Time="4" Value="G3" Duration="1" Instrument="hat"
				Note Time="5" Value="F#3" Duration="1" Instrument="hat"
				Note Time="6" Value="E3" Duration="4" Instrument="hat"
				Note Time="10" Value="E3" Duration="1" Instrument="hat"
				Note Time="11" Value="A#3" Duration="1" Instrument="hat"
				Note Time="12" Value="G3" Duration="1" Instrument="hat"
				Note Time="13" Value="F#3" Duration="1" Instrument="hat"
				Note Time="14" Value="E3" Duration="4" Instrument="hat"
				Note Time="18" Value="E3" Duration="2" Instrument="hat"
				Note Time="20" Value="E3" Duration="1" Instrument="Instrument 1"
				Note Time="21" Value="F#3" Duration="1" Instrument="hat"
				Note Time="22" Value="E3" Duration="4" Instrument="hat"
				Note Time="26" Value="E3" Duration="1" Instrument="hat"
				Note Time="27" Value="D#3" Duration="1" Instrument="hat"
				Note Time="28" Value="C#3" Duration="2" Instrument="hat"
				Note Time="30" Value="E3" Duration="4" Instrument="hat"
				Note Time="34" Value="E3" Duration="2" Instrument="hat"
				Note Time="36" Value="G3" Duration="1" Instrument="hat"
				Note Time="37" Value="F#3" Duration="1" Instrument="hat"
				Note Time="38" Value="E3" Duration="4" Instrument="hat"
				Note Time="42" Value="E3" Duration="1" Instrument="hat"
				Note Time="43" Value="A#3" Duration="1" Instrument="hat"
				Note Time="44" Value="G3" Duration="1" Instrument="hat"
				Note Time="45" Value="F#3" Duration="1" Instrument="hat"
				Note Time="46" Value="E3" Duration="4" Instrument="hat"
				Note Time="50" Value="E3" Duration="2" Instrument="hat"
				Note Time="52" Value="G3" Duration="1" Instrument="hat"
				Note Time="53" Value="F#3" Duration="1" Instrument="hat"
				Note Time="54" Value="E3" Duration="4" Instrument="hat"
				Note Time="58" Value="E3" Duration="1" Instrument="hat"
				Note Time="59" Value="D#3" Duration="1" Instrument="hat"
				Note Time="60" Value="C#3" Duration="2" Instrument="hat"
				Note Time="62" Value="E3" Duration="2" Instrument="hat"
			Pattern Name="02" Color="a9887d"
				Note Time="0" Value="C#3" Duration="2" Instrument="hat"
				Note Time="2" Value="E3" Duration="2" Instrument="hat"
				Note Time="4" Value="G3" Duration="1" Instrument="hat"
				Note Time="5" Value="F#3" Duration="1" Instrument="hat"
				Note Time="6" Value="E3" Duration="4" Instrument="hat"
				Note Time="10" Value="E3" Duration="1" Instrument="hat"
				Note Time="11" Value="A#3" Duration="1" Instrument="hat"
				Note Time="12" Value="G3" Duration="1" Instrument="hat"
				Note Time="13" Value="F#3" Duration="1" Instrument="hat"
				Note Time="14" Value="E3" Duration="4" Instrument="hat"
				Note Time="18" Value="E3" Duration="2" Instrument="hat"
				Note Time="20" Value="E3" Duration="1" Instrument="Instrument 1" Volume="13"
				Note Time="21" Value="F#3" Duration="1" Instrument="hat" Volume="15"
				Note Time="22" Value="E3" Duration="4" Instrument="hat"
				Note Time="26" Value="E3" Duration="1" Instrument="hat"
				Note Time="27" Value="D#3" Duration="1" Instrument="hat"
				Note Time="28" Value="E3" Duration="2" Instrument="rel hats"
				Note Time="30" Value="E3" Duration="4" Instrument="hat"
				Note Time="34" Value="E3" Duration="2" Instrument="hat"
				Note Time="36" Value="G3" Duration="1" Instrument="hat"
				Note Time="37" Value="F#3" Duration="1" Instrument="hat"
				Note Time="38" Value="E3" Duration="4" Instrument="hat"
				Note Time="42" Value="E3" Duration="1" Instrument="hat"
				Note Time="43" Value="A#3" Duration="1" Instrument="hat"
				Note Time="44" Value="G3" Duration="1" Instrument="hat"
				Note Time="45" Value="F#3" Duration="1" Instrument="hat"
				Note Time="46" Value="E3" Duration="2" Instrument="hat"
				Note Time="48" Value="B2" Duration="1" Instrument="kick" Volume="15"
				Note Time="49" Value="D3" Duration="1" Instrument="clutterfunk sax" Volume="6"
				Note Time="50" Value="C#3" Duration="1" Instrument="clutterfunk sax"
				Note Time="51" Value="B2" Duration="1" Instrument="kick" Volume="15"
				Note Time="52" Value="B2" Duration="1" Instrument="clutterfunk sax" Volume="4"
				Note Time="53" Value="A#2" Duration="1" Instrument="clutterfunk sax" Volume="3"
				Note Time="54" Value="A2" Duration="3" Instrument="clutterfunk sax" Volume="2"
				Note Time="55" Volume="1"
				Note Time="56" Volume="2"
				Note Time="57" Value="E3" Duration="1" Instrument="clutterfunk sax" Volume="3"
				Note Time="58" Value="B2" Duration="1" Instrument="kick" Volume="15"
				Note Time="59" Value="F#3" Duration="1" Instrument="clutterfunk sax" Volume="5"
				Note Time="60" Value="G3" Duration="1" Instrument="clutterfunk sax" Volume="6"
				Note Time="61" Value="B2" Duration="1" Instrument="kick" Volume="15"
				Note Time="62" Value="A3" Duration="1" Instrument="clutterfunk sax" Volume="8"
				Note Time="63" Value="A#3" Duration="1" Instrument="clutterfunk sax" Volume="9"
			Pattern Name="03" Color="fffc69"
				Note Time="0" Value="G#3" Duration="2" Instrument="cymbal" Volume="15"
				Note Time="2" Value="E3" Duration="1" Instrument="hat"
				Note Time="3" Value="B2" Duration="1" Instrument="kick"
				Note Time="4" Value="A3" Duration="1" Instrument="snare"
				Note Time="5" Value="F#3" Duration="1" Instrument="hat"
				Note Time="6" Value="B2" Duration="4" Instrument="kick"
				Note Time="10" Value="E3" Duration="1" Instrument="hat"
				Note Time="11" Value="A#3" Duration="1" Instrument="hat"
				Note Time="12" Value="A3" Duration="1" Instrument="snare"
				Note Time="13" Value="F#3" Duration="1" Instrument="hat"
				Note Time="14" Value="B2" Duration="2" Instrument="kick"
				Note Time="16" Value="B2" Duration="2" Instrument="kick"
				Note Time="18" Value="E3" Duration="1" Instrument="hat"
				Note Time="19" Value="B2" Duration="1" Instrument="kick"
				Note Time="20" Value="A3" Duration="1" Instrument="snare"
				Note Time="21" Value="F#3" Duration="1" Instrument="hat"
				Note Time="22" Value="B2" Duration="4" Instrument="kick"
				Note Time="26" Value="E3" Duration="1" Instrument="hat"
				Note Time="27" Value="D#3" Duration="1" Instrument="hat"
				Note Time="28" Value="A3" Duration="2" Instrument="snare"
				Note Time="30" Value="E3" Duration="2" Instrument="hat"
				Note Time="32" Value="B2" Duration="2" Instrument="kick"
				Note Time="34" Value="E3" Duration="1" Instrument="hat"
				Note Time="35" Value="B2" Duration="1" Instrument="kick"
				Note Time="36" Value="A3" Duration="1" Instrument="snare"
				Note Time="37" Value="F#3" Duration="1" Instrument="hat"
				Note Time="38" Value="B2" Duration="4" Instrument="kick"
				Note Time="42" Value="E3" Duration="1" Instrument="hat"
				Note Time="43" Value="A#3" Duration="1" Instrument="hat"
				Note Time="44" Value="A3" Duration="1" Instrument="snare"
				Note Time="45" Value="F#3" Duration="1" Instrument="hat"
				Note Time="46" Value="B2" Duration="2" Instrument="kick"
				Note Time="48" Value="B2" Duration="2" Instrument="kick"
				Note Time="50" Value="E3" Duration="1" Instrument="hat"
				Note Time="51" Value="B2" Duration="1" Instrument="kick"
				Note Time="52" Value="A3" Duration="1" Instrument="snare"
				Note Time="53" Value="F#3" Duration="1" Instrument="hat"
				Note Time="54" Value="B2" Duration="4" Instrument="kick"
				Note Time="58" Value="E3" Duration="1" Instrument="hat"
				Note Time="59" Value="B2" Duration="1" Instrument="kick"
				Note Time="60" Value="A3" Duration="2" Instrument="snare"
				Note Time="62" Value="B2" Duration="2" Instrument="kick"
			Pattern Name="04" Color="3ca598"
				Note Time="0" Value="B2" Duration="2" Instrument="kick" Volume="15"
				Note Time="2" Value="E3" Duration="1" Instrument="hat"
				Note Time="3" Value="B2" Duration="1" Instrument="kick"
				Note Time="4" Value="A3" Duration="1" Instrument="snare"
				Note Time="5" Value="F#3" Duration="1" Instrument="hat"
				Note Time="6" Value="B2" Duration="4" Instrument="kick"
				Note Time="10" Value="E3" Duration="1" Instrument="hat"
				Note Time="11" Value="A#3" Duration="1" Instrument="hat"
				Note Time="12" Value="A3" Duration="1" Instrument="snare"
				Note Time="13" Value="F#3" Duration="1" Instrument="hat"
				Note Time="14" Value="B2" Duration="2" Instrument="kick"
				Note Time="16" Value="B2" Duration="2" Instrument="kick"
				Note Time="18" Value="E3" Duration="1" Instrument="hat"
				Note Time="19" Value="B2" Duration="1" Instrument="kick"
				Note Time="20" Value="A3" Duration="1" Instrument="snare"
				Note Time="21" Value="F#3" Duration="1" Instrument="hat"
				Note Time="22" Value="B2" Duration="4" Instrument="kick"
				Note Time="26" Value="E3" Duration="1" Instrument="hat"
				Note Time="27" Value="D#3" Duration="1" Instrument="hat"
				Note Time="28" Value="A3" Duration="2" Instrument="snare"
				Note Time="30" Value="E3" Duration="2" Instrument="hat"
				Note Time="32" Value="B2" Duration="2" Instrument="kick"
				Note Time="34" Value="E3" Duration="1" Instrument="hat"
				Note Time="35" Value="B2" Duration="1" Instrument="kick"
				Note Time="36" Value="A3" Duration="1" Instrument="snare"
				Note Time="37" Value="F#3" Duration="1" Instrument="hat"
				Note Time="38" Value="B2" Duration="4" Instrument="kick"
				Note Time="42" Value="E3" Duration="1" Instrument="hat"
				Note Time="43" Value="A#3" Duration="1" Instrument="hat"
				Note Time="44" Value="A3" Duration="1" Instrument="snare"
				Note Time="45" Value="F#3" Duration="1" Instrument="hat"
				Note Time="46" Value="B2" Duration="2" Instrument="kick"
				Note Time="48" Value="B2" Duration="2" Instrument="kick"
				Note Time="50" Value="E3" Duration="1" Instrument="hat"
				Note Time="51" Value="B2" Duration="1" Instrument="kick"
				Note Time="52" Value="A3" Duration="1" Instrument="snare"
				Note Time="53" Value="F#3" Duration="1" Instrument="hat"
				Note Time="54" Value="B2" Duration="4" Instrument="kick"
				Note Time="58" Value="E3" Duration="1" Instrument="hat"
				Note Time="59" Value="B2" Duration="1" Instrument="kick"
				Note Time="60" Value="A3" Duration="2" Instrument="snare"
				Note Time="62" Value="B2" Duration="2" Instrument="kick"
			Pattern Name="05" Color="b5c2ff"
				Note Time="0" Value="B2" Duration="2" Instrument="kick"
				Note Time="2" Value="G3" Duration="4" Instrument="hat"
				Note Time="6" Value="G3" Duration="4" Instrument="hat"
				Note Time="10" Value="G3" Duration="4" Instrument="hat"
				Note Time="14" Value="G3" Duration="2" Instrument="hat"
				Note Time="16" Value="A#3" Duration="1" Instrument="rel hats"
				Note Time="17" Value="A#3" Duration="1" Instrument="rel hats"
				Note Time="18" Value="G3" Duration="1" Instrument="hat"
				Note Time="19" Value="A#3" Duration="1" Instrument="rel hats"
				Note Time="20" Value="G3" Duration="1" Instrument="hat"
				Note Time="21" Value="G3" Duration="1" Instrument="triangle pluck"
				Note Time="22" Value="G3" Duration="1" Instrument="hat"
				Note Time="23" Value="G3" Duration="3" Instrument="hat"
				Note Time="26" Value="G3" Duration="4" Instrument="hat"
				Note Time="30" Value="G3" Duration="4" Instrument="hat"
				Note Time="34" Value="G3" Duration="4" Instrument="hat"
				Note Time="38" Value="G3" Duration="1" Instrument="hat" Volume="15"
				Note Time="39" Value="G3" Duration="1" Instrument="hat" Volume="7"
				Note Time="40" Value="F3" Duration="1" Instrument="rel hats" Volume="11"
				Note Time="41" Value="F3" Duration="1" Instrument="rel hats"
				Note Time="42" Value="A3" Duration="1" Instrument="hat" Volume="15"
				Note Time="43" Value="F3" Duration="3" Instrument="rel hats" Volume="11"
				Note Time="46" Value="A3" Duration="2" Instrument="hat"
				Note Time="48" Value="G2" Duration="1" Instrument="clutterfunk sax" Volume="1"
				Note Time="49" Value="G#2" Duration="1" Instrument="clutterfunk sax"
				Note Time="50" Value="A3" Duration="1" Instrument="hat" Volume="15"
				Note Time="51" Value="A#2" Duration="1" Instrument="clutterfunk sax" Volume="2"
				Note Time="52" Value="B2" Duration="1" Instrument="clutterfunk sax" Volume="3"
				Note Time="53" Value="A3" Duration="1" Instrument="hat" Volume="15"
				Note Time="54" Value="C#3" Duration="1" Instrument="clutterfunk sax" Volume="4"
				Note Time="55" Value="D3" Duration="1" Instrument="clutterfunk sax"
				Note Time="56" Value="D#3" Duration="1" Instrument="clutterfunk sax" Volume="5"
				Note Time="57" Value="E3" Duration="1" Instrument="clutterfunk sax"
				Note Time="58" Value="F3" Duration="1" Instrument="rel hats" Volume="15"
				Note Time="59" Value="F#3" Duration="1" Instrument="clutterfunk sax" Volume="6"
				Note Time="60" Value="G3" Duration="1" Instrument="clutterfunk sax" Volume="7"
				Note Time="61" Value="F3" Duration="1" Instrument="rel hats" Volume="15"
				Note Time="62" Value="A3" Duration="1" Instrument="clutterfunk sax" Volume="8"
				Note Time="63" Value="A#3" Duration="1" Instrument="clutterfunk sax" Volume="9"
			Pattern Name="06" Color="ff8f8c"
				Note Time="0" Value="A3" Duration="2" Instrument="cymbal" Volume="15"
				Note Time="2" Value="G#3" Duration="3" Instrument="hat"
				Note Time="5" Value="G#3" Duration="3" Instrument="hat"
				Note Time="8" Value="F3" Duration="2" Instrument="rel hats"
				Note Time="10" Value="G#3" Duration="4" Instrument="hat"
				Note Time="14" Value="G#3" Duration="2" Instrument="hat"
				Note Time="16" Value="G#2" Duration="2" Instrument="kick"
				Note Time="18" Value="G#3" Duration="1" Instrument="hat"
				Note Time="19" Value="G#2" Duration="3" Instrument="kick"
				Note Time="22" Value="G#2" Duration="2" Instrument="kick"
				Note Time="24" Value="F3" Duration="2" Instrument="rel hats"
				Note Time="26" Value="G#3" Duration="4" Instrument="hat"
				Note Time="30" Value="G#3" Duration="2" Instrument="hat"
				Note Time="32" Value="G#2" Duration="2" Instrument="kick" Volume="15"
				Note Time="34" Value="G#3" Duration="3" Instrument="hat"
				Note Time="37" Value="G#3" Duration="3" Instrument="hat"
				Note Time="40" Value="F3" Duration="2" Instrument="rel hats"
				Note Time="42" Value="G#3" Duration="4" Instrument="hat"
				Note Time="46" Value="G#3" Duration="2" Instrument="hat"
				Note Time="48" Value="G#2" Duration="2" Instrument="kick"
				Note Time="50" Value="G#3" Duration="1" Instrument="hat"
				Note Time="51" Value="G#2" Duration="3" Instrument="kick"
				Note Time="54" Value="G#2" Duration="2" Instrument="kick"
				Note Time="56" Value="F3" Duration="2" Instrument="rel hats"
				Note Time="58" Value="G#3" Duration="4" Instrument="hat"
				Note Time="62" Value="G#3" Duration="2" Instrument="hat"
			Pattern Name="07" Color="ffff64"
				Note Time="0" Value="G#2" Duration="2" Instrument="kick" Volume="15"
				Note Time="2" Value="G#3" Duration="3" Instrument="hat"
				Note Time="5" Value="G#3" Duration="3" Instrument="hat"
				Note Time="8" Value="F3" Duration="2" Instrument="rel hats"
				Note Time="10" Value="G#3" Duration="4" Instrument="hat"
				Note Time="14" Value="G#3" Duration="2" Instrument="hat"
				Note Time="16" Value="G#2" Duration="2" Instrument="kick"
				Note Time="18" Value="G#3" Duration="1" Instrument="hat"
				Note Time="19" Value="G#2" Duration="3" Instrument="kick"
				Note Time="22" Value="G#2" Duration="2" Instrument="kick"
				Note Time="24" Value="F3" Duration="2" Instrument="rel hats"
				Note Time="26" Value="G#3" Duration="4" Instrument="hat"
				Note Time="30" Value="G#3" Duration="2" Instrument="hat"
				Note Time="32" Value="G#2" Duration="2" Instrument="kick" Volume="15"
				Note Time="34" Value="G#3" Duration="3" Instrument="hat"
				Note Time="37" Value="G#3" Duration="3" Instrument="hat"
				Note Time="40" Value="F3" Duration="2" Instrument="rel hats"
				Note Time="42" Value="G#3" Duration="4" Instrument="hat"
				Note Time="46" Value="G#3" Duration="2" Instrument="hat"
				Note Time="48" Value="G#2" Duration="2" Instrument="kick"
				Note Time="50" Value="G#3" Duration="1" Instrument="hat"
				Note Time="51" Value="G#2" Duration="3" Instrument="kick"
				Note Time="54" Value="G#2" Duration="2" Instrument="kick"
				Note Time="56" Value="F3" Duration="2" Instrument="rel hats"
				Note Time="58" Value="G#3" Duration="4" Instrument="hat"
				Note Time="62" Value="G#3" Duration="2" Instrument="hat"
			Pattern Name="08" Color="88eb8c"
				Note Time="0" Value="B2" Duration="4" Instrument="DMC: drums + bass" Volume="5" VolumeSlideTarget="1"
				Note Time="2" Volume="1" VolumeSlideTarget="0"
				Note Time="4" Value="C3" Duration="4" Instrument="DMC: drums + bass" Volume="5" VolumeSlideTarget="1"
				Note Time="6" Volume="1" VolumeSlideTarget="0"
				Note Time="8" Value="C#3" Duration="4" Instrument="DMC: drums + bass" Volume="5" VolumeSlideTarget="1"
				Note Time="10" Volume="1" VolumeSlideTarget="0"
				Note Time="12" Value="D3" Duration="4" Instrument="DMC: drums + bass" Volume="5" VolumeSlideTarget="1"
				Note Time="14" Volume="1" VolumeSlideTarget="0"
				Note Time="16" Value="D#3" Duration="4" Instrument="DMC: drums + bass" Volume="5" VolumeSlideTarget="1"
				Note Time="18" Volume="1" VolumeSlideTarget="0"
				Note Time="19" Volume="0" VolumeSlideTarget="0"
				Note Time="20" Value="E3" Duration="1" Instrument="DMC: drums + bass" Volume="0" VolumeSlideTarget="3"
				Note Time="21" Value="F3" Duration="1" Instrument="DMC: drums + bass"
				Note Time="22" Value="F#3" Duration="1" Instrument="DMC: drums + bass" Volume="3" VolumeSlideTarget="9"
				Note Time="23" Value="G3" Duration="1" Instrument="DMC: drums + bass"
			Pattern Name="09" Color="5ac4ff"
				Note Time="0" Value="G#3" Duration="4" Instrument="cymbal" Volume="10" VolumeSlideTarget="11" Speed="3"
				Note Time="1" Volume="11"
				Note Time="2" Volume="9"
				Note Time="3" Volume="8"
				Note Time="4" Value="A#3" Duration="2" Instrument="hat" Volume="15"
				Note Time="6" Value="G2" Duration="2" Instrument="kick"
				Note Time="8" Value="G2" Duration="2" Instrument="snare"
				Note Time="10" Value="A#3" Duration="2" Instrument="hat"
				Note Time="12" Value="G2" Duration="2" Instrument="kick"
				Note Time="14" Value="A#3" Duration="2" Instrument="hat"
				Note Time="16" Value="A#3" Duration="2" Instrument="hat"
				Note Time="18" Value="A#3" Duration="2" Instrument="hat"
				Note Time="20" Value="G2" Duration="2" Instrument="kick"
				Note Time="22" Value="A#3" Duration="2" Instrument="hat"
				Note Time="24" Value="G2" Duration="2" Instrument="snare"
				Note Time="26" Value="A#3" Duration="2" Instrument="hat"
				Note Time="28" Value="A#3" Duration="2" Instrument="hat"
				Note Time="30" Value="A#3" Duration="2" Instrument="hat"
				Note Time="32" Value="G2" Duration="2" Instrument="kick"
				Note Time="34" Value="A#3" Duration="2" Instrument="hat"
				Note Time="36" Value="A#3" Duration="2" Instrument="hat"
				Note Time="38" Value="A#3" Duration="2" Instrument="hat"
				Note Time="40" Value="G2" Duration="2" Instrument="snare"
				Note Time="42" Value="A#3" Duration="2" Instrument="hat"
				Note Time="44" Value="G2" Duration="2" Instrument="kick"
				Note Time="46" Value="A#3" Duration="2" Instrument="hat"
				Note Time="48" Value="A#3" Duration="2" Instrument="hat"
				Note Time="50" Value="A#3" Duration="2" Instrument="hat"
				Note Time="52" Value="G2" Duration="2" Instrument="kick"
				Note Time="54" Value="A#3" Duration="2" Instrument="hat"
				Note Time="56" Value="G2" Duration="2" Instrument="snare"
				Note Time="58" Value="G2" Duration="2" Instrument="kick"
				Note Time="60" Value="A#3" Duration="2" Instrument="hat"
				Note Time="62" Value="A#3" Duration="2" Instrument="hat"
			Pattern Name="0A" Color="fe5497"
				Note Time="0" Value="G2" Duration="2" Instrument="kick" Volume="15"
				Note Time="2" Value="A#3" Duration="2" Instrument="hat"
				Note Time="4" Value="A#3" Duration="2" Instrument="hat"
				Note Time="6" Value="G2" Duration="2" Instrument="kick"
				Note Time="8" Value="G2" Duration="2" Instrument="snare"
				Note Time="10" Value="A#3" Duration="2" Instrument="hat"
				Note Time="12" Value="G2" Duration="2" Instrument="kick"
				Note Time="14" Value="A#3" Duration="2" Instrument="hat"
				Note Time="16" Value="A#3" Duration="2" Instrument="hat"
				Note Time="18" Value="A#3" Duration="2" Instrument="hat"
				Note Time="20" Value="G2" Duration="2" Instrument="kick"
				Note Time="22" Value="A#3" Duration="2" Instrument="hat"
				Note Time="24" Value="G2" Duration="2" Instrument="snare"
				Note Time="26" Value="A#3" Duration="2" Instrument="hat"
				Note Time="28" Value="A#3" Duration="2" Instrument="hat"
				Note Time="30" Value="A#3" Duration="2" Instrument="hat"
				Note Time="32" Value="G2" Duration="2" Instrument="kick"
				Note Time="34" Value="A#3" Duration="2" Instrument="hat"
				Note Time="36" Value="A#3" Duration="2" Instrument="hat"
				Note Time="38" Value="G2" Duration="2" Instrument="kick"
				Note Time="40" Value="G2" Duration="2" Instrument="snare"
				Note Time="42" Value="A#3" Duration="2" Instrument="hat"
				Note Time="44" Value="G2" Duration="2" Instrument="kick"
				Note Time="46" Value="A#3" Duration="2" Instrument="hat"
				Note Time="48" Value="G2" Duration="2" Instrument="kick"
				Note Time="50" Value="A#3" Duration="2" Instrument="hat"
				Note Time="52" Value="G2" Duration="2" Instrument="snare"
				Note Time="54" Value="A#3" Duration="2" Instrument="hat"
				Note Time="56" Value="G2" Duration="2" Instrument="kick"
				Note Time="58" Value="A#3" Duration="2" Instrument="hat"
				Note Time="60" Value="G2" Duration="2" Instrument="snare"
				Note Time="62" Value="A#3" Duration="2" Instrument="hat"
			Pattern Name="0B" Color="ffb83c"
				Note Time="0" Value="G2" Duration="2" Instrument="kick"
				Note Time="2" Value="A#3" Duration="2" Instrument="hat"
				Note Time="4" Value="A#3" Duration="2" Instrument="hat"
				Note Time="6" Value="G2" Duration="2" Instrument="kick"
				Note Time="8" Value="G2" Duration="2" Instrument="snare"
				Note Time="10" Value="A#3" Duration="2" Instrument="hat"
				Note Time="12" Value="G2" Duration="2" Instrument="kick"
				Note Time="14" Value="A#3" Duration="2" Instrument="hat"
				Note Time="16" Value="A#3" Duration="2" Instrument="hat"
				Note Time="18" Value="A#3" Duration="2" Instrument="hat"
				Note Time="20" Value="G2" Duration="2" Instrument="kick"
				Note Time="22" Value="A#3" Duration="2" Instrument="hat"
				Note Time="24" Value="G2" Duration="2" Instrument="snare"
				Note Time="26" Value="A#3" Duration="2" Instrument="hat"
				Note Time="28" Value="A#3" Duration="2" Instrument="hat"
				Note Time="30" Value="A#3" Duration="2" Instrument="hat"
				Note Time="32" Value="G2" Duration="2" Instrument="kick"
				Note Time="34" Value="A#3" Duration="2" Instrument="hat"
				Note Time="36" Value="A#3" Duration="2" Instrument="hat"
				Note Time="38" Value="G2" Duration="2" Instrument="kick"
				Note Time="40" Value="G2" Duration="2" Instrument="snare"
				Note Time="42" Value="A#3" Duration="2" Instrument="hat"
				Note Time="44" Value="G2" Duration="2" Instrument="kick"
				Note Time="46" Value="A#3" Duration="2" Instrument="hat"
				Note Time="48" Value="A#3" Duration="2" Instrument="hat"
				Note Time="50" Value="A#3" Duration="2" Instrument="hat"
				Note Time="52" Value="G2" Duration="2" Instrument="kick"
				Note Time="54" Value="A#3" Duration="2" Instrument="hat"
				Note Time="56" Value="G2" Duration="2" Instrument="snare"
				Note Time="58" Value="G2" Duration="2" Instrument="kick"
				Note Time="60" Value="A#3" Duration="2" Instrument="hat"
				Note Time="62" Value="A#3" Duration="2" Instrument="hat"
			Pattern Name="0C" Color="91c76b"
				Note Time="0" Value="G2" Duration="2" Instrument="kick" Volume="15"
				Note Time="2" Value="A#3" Duration="2" Instrument="hat"
				Note Time="4" Value="A#3" Duration="2" Instrument="hat"
				Note Time="6" Value="G2" Duration="2" Instrument="kick"
				Note Time="8" Value="G2" Duration="2" Instrument="snare"
				Note Time="10" Value="A#3" Duration="2" Instrument="hat"
				Note Time="12" Value="G2" Duration="2" Instrument="kick"
				Note Time="14" Value="A#3" Duration="2" Instrument="hat"
				Note Time="16" Value="A#3" Duration="2" Instrument="hat"
				Note Time="18" Value="A#3" Duration="2" Instrument="hat"
				Note Time="20" Value="G2" Duration="2" Instrument="kick"
				Note Time="22" Value="A#3" Duration="2" Instrument="hat"
				Note Time="24" Value="G2" Duration="2" Instrument="snare"
				Note Time="26" Value="A#3" Duration="2" Instrument="hat"
				Note Time="28" Value="A#3" Duration="2" Instrument="hat"
				Note Time="30" Value="A#3" Duration="2" Instrument="hat"
				Note Time="32" Value="G2" Duration="2" Instrument="kick"
				Note Time="34" Value="A#3" Duration="2" Instrument="hat"
				Note Time="36" Value="A#3" Duration="2" Instrument="hat"
				Note Time="38" Value="G2" Duration="2" Instrument="kick"
				Note Time="40" Value="G2" Duration="2" Instrument="snare"
				Note Time="42" Value="A#3" Duration="2" Instrument="hat"
				Note Time="44" Value="G2" Duration="2" Instrument="kick"
				Note Time="46" Value="A#3" Duration="2" Instrument="hat"
				Note Time="48" Value="G2" Duration="1" Instrument="kick" Volume="10"
				Note Time="49" Value="G#3" Duration="3" Instrument="DMC: drums + bass" Volume="1"
				Note Time="50" Volume="2"
				Note Time="51" Volume="3"
				Note Time="52" Value="G2" Duration="1" Instrument="snare" Volume="15"
				Note Time="53" Value="G#3" Duration="11" Instrument="DMC: drums + bass" Volume="5"
				Note Time="54" Volume="6"
				Note Time="55" Volume="7"
				Note Time="56" Volume="8"
				Note Time="57" Volume="9"
				Note Time="58" Volume="10"
				Note Time="59" Volume="11"
				Note Time="60" Volume="12"
				Note Time="61" Volume="13"
				Note Time="62" Volume="14"
				Note Time="63" Volume="15"
			Pattern Name="0E" Color="8bffff"
				Note Time="0" Value="G2" Duration="2" Instrument="kick" Volume="15"
				Note Time="2" Value="A#3" Duration="2" Instrument="hat"
				Note Time="4" Value="A#3" Duration="2" Instrument="hat"
				Note Time="6" Value="G2" Duration="2" Instrument="kick"
				Note Time="8" Value="G2" Duration="2" Instrument="snare"
				Note Time="10" Value="A#3" Duration="2" Instrument="hat"
				Note Time="12" Value="G2" Duration="2" Instrument="kick"
				Note Time="14" Value="A#3" Duration="2" Instrument="hat"
				Note Time="16" Value="A#3" Duration="2" Instrument="hat"
				Note Time="18" Value="A#3" Duration="2" Instrument="hat"
				Note Time="20" Value="G2" Duration="2" Instrument="kick"
				Note Time="22" Value="A#3" Duration="2" Instrument="hat"
				Note Time="24" Value="G2" Duration="2" Instrument="snare"
				Note Time="26" Value="A#3" Duration="2" Instrument="hat"
				Note Time="28" Value="G2" Duration="2" Instrument="kick"
				Note Time="30" Value="A#3" Duration="2" Instrument="hat"
				Note Time="32" Value="G2" Duration="2" Instrument="kick"
				Note Time="34" Value="A#3" Duration="2" Instrument="hat"
				Note Time="36" Value="A#3" Duration="2" Instrument="hat"
				Note Time="38" Value="G2" Duration="2" Instrument="kick"
				Note Time="40" Value="G2" Duration="2" Instrument="snare"
				Note Time="42" Value="A#3" Duration="2" Instrument="hat"
				Note Time="44" Value="G2" Duration="2" Instrument="kick"
				Note Time="46" Value="A#3" Duration="2" Instrument="hat"
				Note Time="48" Value="G2" Duration="2" Instrument="kick"
				Note Time="50" Value="A#3" Duration="2" Instrument="hat"
				Note Time="52" Value="G2" Duration="2" Instrument="snare"
				Note Time="54" Value="A#3" Duration="2" Instrument="hat"
				Note Time="56" Value="G2" Duration="2" Instrument="kick"
				Note Time="58" Value="A#3" Duration="2" Instrument="hat"
				Note Time="60" Value="G2" Duration="2" Instrument="snare"
				Note Time="62" Value="G#3" Duration="2" Instrument="blank"
			Pattern Name="0F" Color="e783f8"
				Note Time="0" Value="E3" Duration="4" Instrument="cymbal" Volume="13"
				Note Time="4" Value="A#3" Duration="2" Instrument="blank"
				Note Time="6" Value="D3" Duration="1" Instrument="blank" Volume="6" DutyCycle="1"
				Note Time="10" Value="A#3" Duration="2" Instrument="snare"
				Note Time="11" DutyCycle="0"
				Note Time="12" Value="A#3" Duration="1" Instrument="hat" Volume="12"
				Note Time="13" Value="A#3" Duration="1" Instrument="hat" Volume="12"
				Note Time="14" Value="D3" Duration="1" Instrument="blank" Volume="6" DutyCycle="1"
				Note Time="15" Value="A#3" Duration="1" Instrument="hat" Volume="12" DutyCycle="0"
				Note Time="16" Value="F#3" Duration="16" Instrument="blank" Volume="0" VolumeSlideTarget="15"
				Note Time="32" Value="D#3" Duration="12" Release="4" Instrument="cymbal"
				Note Time="35" Volume="15"
			PatternInstance Time="0" Pattern="00"
			PatternInstance Time="1" Pattern="01"
			PatternInstance Time="2" Pattern="02"
			PatternInstance Time="3" Pattern="03"
			PatternInstance Time="4" Pattern="04"
			PatternInstance Time="5" Pattern="05"
			PatternInstance Time="6" Pattern="06"
			PatternInstance Time="7" Pattern="07"
			PatternInstance Time="8" Pattern="08"
			PatternInstance Time="9" Pattern="09"
			PatternInstance Time="10" Pattern="0A"
			PatternInstance Time="11" Pattern="0B"
			PatternInstance Time="12" Pattern="0A"
			PatternInstance Time="13" Pattern="09"
			PatternInstance Time="14" Pattern="0A"
			PatternInstance Time="15" Pattern="0B"
			PatternInstance Time="16" Pattern="0C"
			PatternInstance Time="17" Pattern="0A"
			PatternInstance Time="18" Pattern="0A"
			PatternInstance Time="19" Pattern="0A"
			PatternInstance Time="20" Pattern="0E"
			PatternInstance Time="21" Pattern="0F"
		Channel Type="DPCM"
			Pattern Name="01" Color="ffff75"
				Note Time="0" Value="B3" Duration="2" Instrument="DMC: drums + bass"
				Note Time="4" Value="B3" Duration="2" Instrument="DMC: drums + bass"
				Note Time="7" Value="B3" Duration="2" Instrument="DMC: drums + bass"
				Note Time="10" Value="B3" Duration="2" Instrument="DMC: drums + bass"
				Note Time="14" Value="B3" Duration="2" Instrument="DMC: drums + bass"
				Note Time="16" Value="G3" Duration="2" Instrument="DMC: drums + bass"
				Note Time="20" Value="G3" Duration="2" Instrument="DMC: drums + bass"
				Note Time="23" Value="F#3" Duration="2" Instrument="DMC: drums + bass"
				Note Time="26" Value="F#3" Duration="2" Instrument="DMC: drums + bass"
				Note Time="30" Value="F#3" Duration="2" Instrument="DMC: drums + bass"
				Note Time="32" Value="B3" Duration="2" Instrument="DMC: drums + bass"
				Note Time="36" Value="B3" Duration="2" Instrument="DMC: drums + bass"
				Note Time="39" Value="B3" Duration="2" Instrument="DMC: drums + bass"
				Note Time="42" Value="B3" Duration="2" Instrument="DMC: drums + bass"
				Note Time="46" Value="B3" Duration="2" Instrument="DMC: drums + bass"
				Note Time="48" Value="G3" Duration="2" Instrument="DMC: drums + bass"
				Note Time="52" Value="G3" Duration="2" Instrument="DMC: drums + bass"
				Note Time="55" Value="C4" Duration="2" Instrument="DMC: drums + bass"
				Note Time="58" Value="C4" Duration="2" Instrument="DMC: drums + bass"
				Note Time="62" Value="A#3" Duration="2" Instrument="DMC: drums + bass"
			Pattern Name="02" Color="3ce8fd"
				Note Time="0" Value="B3" Duration="2" Instrument="DMC: drums + bass"
				Note Time="4" Value="B3" Duration="2" Instrument="DMC: drums + bass"
				Note Time="7" Value="B3" Duration="2" Instrument="DMC: drums + bass"
				Note Time="10" Value="B3" Duration="2" Instrument="DMC: drums + bass"
				Note Time="14" Value="B3" Duration="2" Instrument="DMC: drums + bass"
				Note Time="16" Value="G3" Duration="2" Instrument="DMC: drums + bass"
				Note Time="20" Value="G3" Duration="2" Instrument="DMC: drums + bass"
				Note Time="23" Value="F#3" Duration="2" Instrument="DMC: drums + bass"
				Note Time="26" Value="F#3" Duration="2" Instrument="DMC: drums + bass"
				Note Time="30" Value="F#3" Duration="2" Instrument="DMC: drums + bass"
				Note Time="32" Value="B3" Duration="2" Instrument="DMC: drums + bass"
				Note Time="36" Value="B3" Duration="2" Instrument="DMC: drums + bass"
				Note Time="39" Value="B3" Duration="2" Instrument="DMC: drums + bass"
				Note Time="42" Value="B3" Duration="2" Instrument="DMC: drums + bass"
				Note Time="46" Value="B3" Duration="2" Instrument="DMC: drums + bass"
				Note Time="48" Value="G3" Duration="2" Instrument="DMC: drums + bass"
				Note Time="52" Value="G3" Duration="2" Instrument="DMC: drums + bass"
				Note Time="55" Value="B2" Duration="2" Instrument="DMC: drums + bass"
				Note Time="58" Value="B2" Duration="2" Instrument="DMC: drums + bass"
				Note Time="61" Value="B2" Duration="2" Instrument="DMC: drums + bass"
			Pattern Name="03" Color="8d69e4"
				Note Time="0" Value="B3" Duration="2" Instrument="DMC: drums + bass"
				Note Time="26" Value="B2" Duration="2" Instrument="DMC: drums + bass"
				Note Time="28" Value="B3" Duration="2" Instrument="DMC: drums + bass"
				Note Time="30" Value="B2" Duration="2" Instrument="DMC: drums + bass"
				Note Time="32" Value="B3" Duration="2" Instrument="DMC: drums + bass"
				Note Time="38" Value="E5" Duration="1" Instrument="DMC: drums + bass"
				Note Time="39" Value="E5" Duration="1" Instrument="DMC: drums + bass"
				Note Time="40" Value="F5" Duration="1" Instrument="DMC: drums + bass"
				Note Time="41" Value="F5" Duration="1" Instrument="DMC: drums + bass"
				Note Time="42" Value="E5" Duration="1" Instrument="DMC: drums + bass"
				Note Time="43" Value="F5" Duration="1" Instrument="DMC: drums + bass"
				Note Time="47" Value="E5" Duration="1" Instrument="DMC: drums + bass"
				Note Time="48" Value="B2" Duration="2" Instrument="DMC: drums + bass"
				Note Time="50" Value="E5" Duration="1" Instrument="DMC: drums + bass"
				Note Time="51" Value="B2" Duration="1" Instrument="DMC: drums + bass"
				Note Time="52" Value="B2" Duration="1" Instrument="DMC: drums + bass"
				Note Time="53" Value="E5" Duration="1" Instrument="DMC: drums + bass"
				Note Time="54" Value="B2" Duration="2" Instrument="DMC: drums + bass"
				Note Time="56" Value="B2" Duration="1" Instrument="DMC: drums + bass"
				Note Time="57" Value="B2" Duration="1" Instrument="DMC: drums + bass"
				Note Time="58" Value="F5" Duration="1" Instrument="DMC: drums + bass"
				Note Time="59" Value="B2" Duration="1" Instrument="DMC: drums + bass"
				Note Time="60" Value="B3" Duration="1" Instrument="DMC: drums + bass"
				Note Time="61" Value="F5" Duration="1" Instrument="DMC: drums + bass"
				Note Time="62" Value="B3" Duration="1" Instrument="DMC: drums + bass"
				Note Time="63" Value="B3" Duration="1" Instrument="DMC: drums + bass"
			Pattern Name="04" Color="997c73"
				Note Time="0" Value="E5" Duration="8" Instrument="DMC: drums + bass"
				Note Time="8" Value="F5" Duration="8" Instrument="DMC: drums + bass"
				Note Time="16" Value="E5" Duration="3" Instrument="DMC: drums + bass"
				Note Time="19" Value="E5" Duration="3" Instrument="DMC: drums + bass"
				Note Time="22" Value="E5" Duration="2" Instrument="DMC: drums + bass"
				Note Time="24" Value="F5" Duration="8" Instrument="DMC: drums + bass"
				Note Time="32" Value="E5" Duration="8" Instrument="DMC: drums + bass"
				Note Time="40" Value="F5" Duration="8" Instrument="DMC: drums + bass"
				Note Time="48" Value="E5" Duration="3" Instrument="DMC: drums + bass"
				Note Time="51" Value="E5" Duration="3" Instrument="DMC: drums + bass"
				Note Time="54" Value="E5" Duration="2" Instrument="DMC: drums + bass"
				Note Time="56" Value="F5" Duration="8" Instrument="DMC: drums + bass"
			Pattern Name="05" Color="ffe461"
				Note Time="0" Value="E5" Duration="3" Instrument="DMC: drums + bass"
				Note Time="3" Value="E5" Duration="1" Instrument="DMC: drums + bass"
				Note Time="4" Value="F5" Duration="2" Instrument="DMC: drums + bass"
				Note Time="6" Value="E5" Duration="4" Instrument="DMC: drums + bass"
				Note Time="10" Value="E5" Duration="2" Instrument="DMC: drums + bass"
				Note Time="12" Value="F5" Duration="4" Instrument="DMC: drums + bass"
				Note Time="16" Value="E5" Duration="3" Instrument="DMC: drums + bass"
				Note Time="19" Value="E5" Duration="1" Instrument="DMC: drums + bass"
				Note Time="20" Value="F5" Duration="2" Instrument="DMC: drums + bass"
				Note Time="22" Value="E5" Duration="2" Instrument="DMC: drums + bass"
			Pattern Name="06" Color="89f2e8"
				Note Time="0" Value="B3" Duration="4" Instrument="DMC: drums + bass"
				Note Time="4" Value="B3" Duration="1" Instrument="DMC: drums + bass"
				Note Time="6" Value="B3" Duration="1" Instrument="DMC: drums + bass"
				Note Time="8" Value="B3" Duration="4" Instrument="DMC: drums + bass"
				Note Time="12" Value="B3" Duration="1" Instrument="DMC: drums + bass"
				Note Time="14" Value="B3" Duration="1" Instrument="DMC: drums + bass"
				Note Time="16" Value="B2" Duration="2" Instrument="DMC: drums + bass"
				Note Time="18" Value="B3" Duration="1" Instrument="DMC: drums + bass"
				Note Time="20" Value="B3" Duration="2" Instrument="DMC: drums + bass"
				Note Time="22" Value="B2" Duration="1" Instrument="DMC: drums + bass"
				Note Time="24" Value="B4" Duration="2" Instrument="DMC: drums + bass"
				Note Time="26" Value="B2" Duration="1" Instrument="DMC: drums + bass"
				Note Time="28" Value="B3" Duration="2" Instrument="DMC: drums + bass"
				Note Time="30" Value="B2" Duration="1" Instrument="DMC: drums + bass"
				Note Time="32" Value="B2" Duration="4" Instrument="DMC: drums + bass"
				Note Time="36" Value="B2" Duration="1" Instrument="DMC: drums + bass"
				Note Time="38" Value="B2" Duration="1" Instrument="DMC: drums + bass"
				Note Time="40" Value="B3" Duration="4" Instrument="DMC: drums + bass"
				Note Time="44" Value="B3" Duration="1" Instrument="DMC: drums + bass"
				Note Time="46" Value="B3" Duration="1" Instrument="DMC: drums + bass"
				Note Time="48" Value="B2" Duration="2" Instrument="DMC: drums + bass"
				Note Time="50" Value="B3" Duration="1" Instrument="DMC: drums + bass"
				Note Time="52" Value="B3" Duration="2" Instrument="DMC: drums + bass"
				Note Time="54" Value="B4" Duration="1" Instrument="DMC: drums + bass"
				Note Time="56" Value="B2" Duration="2" Instrument="DMC: drums + bass"
				Note Time="58" Value="B3" Duration="1" Instrument="DMC: drums + bass"
				Note Time="60" Value="B2" Duration="2" Instrument="DMC: drums + bass"
				Note Time="62" Value="B3" Duration="1" Instrument="DMC: drums + bass"
			Pattern Name="07" Color="98a7fc"
				Note Time="0" Value="B3" Duration="4" Instrument="DMC: drums + bass"
				Note Time="4" Value="B3" Duration="1" Instrument="DMC: drums + bass"
				Note Time="6" Value="B3" Duration="1" Instrument="DMC: drums + bass"
				Note Time="8" Value="B3" Duration="4" Instrument="DMC: drums + bass"
				Note Time="12" Value="B3" Duration="1" Instrument="DMC: drums + bass"
				Note Time="14" Value="B3" Duration="1" Instrument="DMC: drums + bass"
				Note Time="16" Value="B2" Duration="2" Instrument="DMC: drums + bass"
				Note Time="18" Value="B3" Duration="1" Instrument="DMC: drums + bass"
				Note Time="20" Value="B3" Duration="2" Instrument="DMC: drums + bass"
				Note Time="22" Value="B2" Duration="1" Instrument="DMC: drums + bass"
				Note Time="24" Value="B4" Duration="2" Instrument="DMC: drums + bass"
				Note Time="26" Value="B2" Duration="1" Instrument="DMC: drums + bass"
				Note Time="28" Value="B3" Duration="2" Instrument="DMC: drums + bass"
				Note Time="30" Value="B2" Duration="1" Instrument="DMC: drums + bass"
				Note Time="32" Value="B2" Duration="4" Instrument="DMC: drums + bass"
				Note Time="36" Value="B2" Duration="1" Instrument="DMC: drums + bass"
				Note Time="38" Value="B2" Duration="1" Instrument="DMC: drums + bass"
				Note Time="40" Value="B3" Duration="4" Instrument="DMC: drums + bass"
				Note Time="44" Value="B3" Duration="1" Instrument="DMC: drums + bass"
				Note Time="46" Value="B3" Duration="1" Instrument="DMC: drums + bass"
				Note Time="48" Value="C#3" Duration="4" Instrument="DMC: drums + bass"
				Note Time="52" Value="C#4" Duration="4" Instrument="DMC: drums + bass"
				Note Time="56" Value="C3" Duration="4" Instrument="DMC: drums + bass"
				Note Time="60" Value="C4" Duration="4" Instrument="DMC: drums + bass"
			Pattern Name="08" Color="ff7f72"
				Note Time="0" Value="B3" Duration="4" Instrument="DMC: drums + bass"
				Note Time="4" Value="B3" Duration="1" Instrument="DMC: drums + bass"
				Note Time="6" Value="B3" Duration="1" Instrument="DMC: drums + bass"
				Note Time="8" Value="B3" Duration="4" Instrument="DMC: drums + bass"
				Note Time="12" Value="B3" Duration="1" Instrument="DMC: drums + bass"
				Note Time="14" Value="B3" Duration="1" Instrument="DMC: drums + bass"
				Note Time="16" Value="B2" Duration="2" Instrument="DMC: drums + bass"
				Note Time="18" Value="B3" Duration="1" Instrument="DMC: drums + bass"
				Note Time="20" Value="B3" Duration="2" Instrument="DMC: drums + bass"
				Note Time="22" Value="B2" Duration="1" Instrument="DMC: drums + bass"
				Note Time="24" Value="B4" Duration="2" Instrument="DMC: drums + bass"
				Note Time="26" Value="B2" Duration="1" Instrument="DMC: drums + bass"
				Note Time="28" Value="B3" Duration="2" Instrument="DMC: drums + bass"
				Note Time="30" Value="B2" Duration="1" Instrument="DMC: drums + bass"
				Note Time="32" Value="B2" Duration="4" Instrument="DMC: drums + bass"
				Note Time="36" Value="B2" Duration="1" Instrument="DMC: drums + bass"
				Note Time="38" Value="B2" Duration="1" Instrument="DMC: drums + bass"
				Note Time="40" Value="B3" Duration="4" Instrument="DMC: drums + bass"
				Note Time="44" Value="B3" Duration="1" Instrument="DMC: drums + bass"
				Note Time="46" Value="B3" Duration="1" Instrument="DMC: drums + bass"
				Note Time="48" Value="B2" Duration="2" Instrument="DMC: drums + bass"
				Note Time="50" Value="B4" Duration="1" Instrument="DMC: drums + bass"
				Note Time="52" Value="B3" Duration="2" Instrument="DMC: drums + bass"
				Note Time="54" Value="B2" Duration="1" Instrument="DMC: drums + bass"
				Note Time="56" Value="B3" Duration="2" Instrument="DMC: drums + bass"
				Note Time="58" Value="B3" Duration="1" Instrument="DMC: drums + bass"
				Note Time="60" Value="B2" Duration="2" Instrument="DMC: drums + bass"
				Note Time="62" Value="B3" Duration="1" Instrument="DMC: drums + bass"
			Pattern Name="09" Color="fffd43"
				Note Time="0" Value="D4" Duration="4" Instrument="DMC: drums + bass"
				Note Time="4" Value="D4" Duration="1" Instrument="DMC: drums + bass"
				Note Time="6" Value="D4" Duration="1" Instrument="DMC: drums + bass"
				Note Time="8" Value="D4" Duration="4" Instrument="DMC: drums + bass"
				Note Time="12" Value="D4" Duration="1" Instrument="DMC: drums + bass"
				Note Time="14" Value="D4" Duration="1" Instrument="DMC: drums + bass"
				Note Time="16" Value="D3" Duration="2" Instrument="DMC: drums + bass"
				Note Time="18" Value="D4" Duration="1" Instrument="DMC: drums + bass"
				Note Time="20" Value="D4" Duration="2" Instrument="DMC: drums + bass"
				Note Time="22" Value="D3" Duration="1" Instrument="DMC: drums + bass"
				Note Time="24" Value="D5" Duration="2" Instrument="DMC: drums + bass"
				Note Time="26" Value="D3" Duration="1" Instrument="DMC: drums + bass"
				Note Time="28" Value="D4" Duration="2" Instrument="DMC: drums + bass"
				Note Time="30" Value="D3" Duration="1" Instrument="DMC: drums + bass"
				Note Time="32" Value="E3" Duration="4" Instrument="DMC: drums + bass"
				Note Time="36" Value="E3" Duration="1" Instrument="DMC: drums + bass"
				Note Time="38" Value="E3" Duration="1" Instrument="DMC: drums + bass"
				Note Time="40" Value="E4" Duration="4" Instrument="DMC: drums + bass"
				Note Time="44" Value="E4" Duration="1" Instrument="DMC: drums + bass"
				Note Time="46" Value="E4" Duration="1" Instrument="DMC: drums + bass"
				Note Time="48" Value="E3" Duration="2" Instrument="DMC: drums + bass"
				Note Time="50" Value="E4" Duration="1" Instrument="DMC: drums + bass"
				Note Time="52" Value="E4" Duration="2" Instrument="DMC: drums + bass"
				Note Time="54" Value="E3" Duration="1" Instrument="DMC: drums + bass"
				Note Time="56" Value="E4" Duration="2" Instrument="DMC: drums + bass"
				Note Time="58" Value="E4" Duration="1" Instrument="DMC: drums + bass"
				Note Time="60" Value="E3" Duration="2" Instrument="DMC: drums + bass"
				Note Time="62" Value="E4" Duration="1" Instrument="DMC: drums + bass"
			PatternInstance Time="1" Pattern="01"
			PatternInstance Time="2" Pattern="02"
			PatternInstance Time="3" Pattern="01"
			PatternInstance Time="4" Pattern="02"
			PatternInstance Time="5" Pattern="03"
			PatternInstance Time="6" Pattern="04"
			PatternInstance Time="7" Pattern="04"
			PatternInstance Time="8" Pattern="05"
			PatternInstance Time="9" Pattern="06"
			PatternInstance Time="10" Pattern="07"
			PatternInstance Time="11" Pattern="06"
			PatternInstance Time="12" Pattern="07"
			PatternInstance Time="13" Pattern="06"
			PatternInstance Time="14" Pattern="07"
			PatternInstance Time="15" Pattern="06"
			PatternInstance Time="16" Pattern="07"
			PatternInstance Time="17" Pattern="08"
			PatternInstance Time="18" Pattern="09"
			PatternInstance Time="19" Pattern="08"
			PatternInstance Time="20" Pattern="09"
	Song Name="Theory of Everything" Color="ffa83c" Folder="Official music used in the game" Length="24" LoopPoint="-1" PatternLength="24" BeatLength="4" FamiTrackerTempo="130" FamiTrackerSpeed="8"
		PatternCustomSettings Time="14" Length="12"
		PatternCustomSettings Time="23" Length="24"
		Channel Type="Square1"
			Pattern Name="01" Color="ffff93"
				Note Time="0" Value="C#4" Duration="3" Instrument="echo"
				Note Time="3" Value="C#4" Duration="2" Instrument="echo"
				Note Time="5" Value="C#4" Duration="1" Instrument="echo"
				Note Time="6" Value="E4" Duration="2" Instrument="echo"
				Note Time="8" Value="C#4" Duration="2" Instrument="echo"
				Note Time="10" Value="C#4" Duration="1" Instrument="echo"
				Note Time="11" Value="D#4" Duration="1" Instrument="echo"
				Note Time="12" Value="E4" Duration="3" Instrument="echo"
				Note Time="15" Value="C#4" Duration="2" Instrument="echo"
				Note Time="17" Value="C#4" Duration="1" Instrument="echo"
				Note Time="18" Value="D#4" Duration="2" Instrument="echo"
				Note Time="20" Value="C#4" Duration="2" Instrument="echo"
				Note Time="22" Value="C#4" Duration="1" Instrument="echo"
				Note Time="23" Value="B3" Duration="1" Instrument="echo"
			Pattern Name="02" Color="3cf8ff"
				Note Time="0" Value="C#4" Duration="3" Instrument="echo"
				Note Time="3" Value="C#4" Duration="2" Instrument="echo"
				Note Time="5" Value="C#4" Duration="1" Instrument="echo"
				Note Time="6" Value="E4" Duration="2" Instrument="echo"
				Note Time="8" Value="C#4" Duration="2" Instrument="echo"
				Note Time="10" Value="C#4" Duration="1" Instrument="echo"
				Note Time="11" Value="D#4" Duration="1" Instrument="echo"
				Note Time="12" Value="B3" Duration="3" Instrument="echo"
				Note Time="15" Value="C#4" Duration="2" Instrument="echo"
				Note Time="17" Value="C#4" Duration="1" Instrument="echo"
				Note Time="18" Value="F#4" Duration="2" Instrument="echo"
				Note Time="20" Value="E4" Duration="2" Instrument="echo"
				Note Time="22" Value="C#4" Duration="1" Instrument="echo"
				Note Time="23" Value="D#4" Duration="1" Instrument="echo"
			Pattern Name="03" Color="9a71ed"
				Note Time="0" FinePitch="0"
				Note Time="3" Value="C#2" Duration="1" Instrument="echo"
				Note Time="4" Value="C#3" Duration="1" Instrument="echo"
				Note Time="5" Value="C#4" Duration="3" Instrument="echo"
				Note Time="8" Value="C#3" Duration="2" Instrument="echo"
				Note Time="10" Value="G#4" Duration="1" Instrument="echo"
				Note Time="11" Value="C#5" Duration="4" Instrument="echo"
				Note Time="15" Value="C#2" Duration="1" Instrument="echo"
				Note Time="16" Value="C#3" Duration="1" Instrument="echo"
				Note Time="17" Value="C#4" Duration="3" Instrument="echo"
				Note Time="20" Value="G#3" Duration="1" Instrument="Instrument 1"
				Note Time="21" Value="C#4" Duration="10" Instrument="blank" Volume="4" DutyCycle="1"
				Note Time="22" Volume="5"
				Note Time="23" Volume="4"
			Pattern Name="04" Color="a9887d"
				Note Time="0" Volume="3"
				Note Time="1" Volume="2"
				Note Time="2" Volume="1"
				Note Time="3" Volume="0"
				Note Time="4" Value="Stop" Volume="15"
				Note Time="7" Value="C#4" Duration="1" Instrument="echo" Volume="15"
				Note Time="8" Value="G#4" Duration="4" Instrument="echo"
				Note Time="12" Value="C#2" Duration="1" Instrument="echo"
				Note Time="13" Value="C#3" Duration="1" Instrument="echo"
				Note Time="14" Value="C#4" Duration="1" Instrument="echo"
				Note Time="15" Value="C#3" Duration="1" Instrument="echo"
				Note Time="16" Value="G#4" Duration="1" Instrument="echo"
				Note Time="17" Value="C#5" Duration="1" Instrument="echo"
				Note Time="18" Value="G#4" Duration="2" Instrument="02 but tri"
				Note Time="20" Value="E4" Duration="1" Instrument="02 but tri"
				Note Time="21" Value="C#5" Duration="3" Instrument="sample" FinePitch="1"
			Pattern Name="05" Color="fffc69"
				Note Time="0" Volume="3"
				Note Time="1" Volume="2"
				Note Time="2" Volume="1"
				Note Time="3" Volume="0"
				Note Time="7" Value="C#4" Duration="1" Instrument="echo" Volume="15"
				Note Time="8" Value="G#4" Duration="4" Instrument="echo"
				Note Time="12" Value="C#2" Duration="1" Instrument="echo"
				Note Time="13" Value="C#3" Duration="1" Instrument="echo"
				Note Time="14" Value="C#4" Duration="1" Instrument="echo"
				Note Time="15" Value="C#3" Duration="1" Instrument="echo"
				Note Time="16" Value="G#4" Duration="1" Instrument="echo"
				Note Time="17" Value="C#5" Duration="1" Instrument="echo"
				Note Time="18" Value="G#4" Duration="2" Instrument="02 but tri"
				Note Time="20" Value="E4" Duration="1" Instrument="02 but tri"
				Note Time="21" Value="C#4" Duration="3" Instrument="sample" FinePitch="-2"
				Note Time="23" DutyCycle="0"
			Pattern Name="06" Color="3ca598"
				Note Time="0" Value="C#4" Duration="2" Instrument="echo" Volume="15" FinePitch="0"
				Note Time="2" Value="C#4" Duration="1" Instrument="echo" Volume="9"
				Note Time="3" Value="C#4" Duration="2" Instrument="echo" Volume="15"
				Note Time="5" Value="C#4" Duration="1" Instrument="echo" Volume="15"
				Note Time="6" Value="E4" Duration="1" Instrument="echo" Volume="15"
				Note Time="7" Value="C#4" Duration="1" Instrument="echo" Volume="9"
				Note Time="8" Value="C#4" Duration="2" Instrument="echo" Volume="15"
				Note Time="10" Value="C#4" Duration="1" Instrument="echo" Volume="15"
				Note Time="11" Value="D#4" Duration="1" Instrument="echo" Volume="15"
				Note Time="12" Value="E4" Duration="1" Instrument="echo" Volume="15"
				Note Time="13" Value="D#4" Duration="1" Instrument="echo" Volume="9"
				Note Time="14" Value="E4" Duration="1" Instrument="echo" Volume="9"
				Note Time="15" Value="C#4" Duration="2" Instrument="echo" Volume="15"
				Note Time="17" Value="C#4" Duration="1" Instrument="echo" Volume="15"
				Note Time="18" Value="D#4" Duration="1" Instrument="echo" Volume="15"
				Note Time="19" Value="C#4" Duration="1" Instrument="echo" Volume="9"
				Note Time="20" Value="C#4" Duration="2" Instrument="echo" Volume="15"
				Note Time="22" Value="C#4" Duration="1" Instrument="echo" Volume="15"
				Note Time="23" Value="B3" Duration="1" Instrument="echo" Volume="15"
			Pattern Name="07" Color="b5c2ff"
				Note Time="0" Value="C#4" Duration="2" Instrument="echo" Volume="15"
				Note Time="2" Value="C#4" Duration="1" Instrument="echo" Volume="9"
				Note Time="3" Value="C#4" Duration="2" Instrument="echo" Volume="15"
				Note Time="5" Value="C#4" Duration="1" Instrument="echo" Volume="15"
				Note Time="6" Value="E4" Duration="1" Instrument="echo" Volume="15"
				Note Time="7" Value="C#4" Duration="1" Instrument="echo" Volume="9"
				Note Time="8" Value="C#4" Duration="2" Instrument="echo" Volume="15"
				Note Time="10" Value="C#4" Duration="1" Instrument="echo" Volume="15"
				Note Time="11" Value="D#4" Duration="1" Instrument="echo" Volume="15"
				Note Time="12" Value="B3" Duration="1" Instrument="echo" Volume="15"
				Note Time="13" Value="D#4" Duration="1" Instrument="echo" Volume="9"
				Note Time="14" Value="B3" Duration="1" Instrument="echo" Volume="9"
				Note Time="15" Value="C#4" Duration="2" Instrument="echo" Volume="15"
				Note Time="17" Value="C#4" Duration="1" Instrument="echo" Volume="15"
				Note Time="18" Value="F#4" Duration="1" Instrument="echo" Volume="15"
				Note Time="19" Value="C#4" Duration="1" Instrument="echo" Volume="9"
				Note Time="20" Value="E4" Duration="2" Instrument="echo" Volume="15"
				Note Time="22" Value="C#4" Duration="1" Instrument="echo" Volume="15"
				Note Time="23" Value="D#4" Duration="1" Instrument="echo" Volume="15"
			Pattern Name="08" Color="ffff64"
				Note Time="0" Value="C#3" Duration="2" Instrument="shift string" Volume="15" FinePitch="0"
				Note Time="1" Volume="4"
				Note Time="2" Value="C#3" Duration="1" Instrument="shift string" Volume="15" CutDelay="4"
				Note Time="3" Value="C#3" Duration="2" Instrument="shift string"
				Note Time="4" Volume="4"
				Note Time="5" Value="E3" Duration="1" Instrument="shift string" Volume="15" CutDelay="4"
				Note Time="6" Value="C#3" Duration="1" Instrument="shift string"
				Note Time="7" Value="C#4" Duration="1" Instrument="shift string"
				Note Time="8" Value="C#3" Duration="1" Instrument="shift string"
				Note Time="9" Value="G#3" Duration="2" Instrument="shift string"
				Note Time="10" Volume="8"
				Note Time="11" Value="C#3" Duration="1" Instrument="shift string" Volume="15"
				Note Time="12" Value="E3" Duration="3" Instrument="shift string"
				Note Time="15" Value="C#3" Duration="5" Instrument="shift string"
				Note Time="18" Volume="8"
				Note Time="20" Value="C#3" Duration="1" Instrument="shift string" Volume="15"
				Note Time="21" Value="F#3" Duration="1" Instrument="shift string"
				Note Time="22" Value="C#3" Duration="1" Instrument="shift string"
				Note Time="23" Value="E3" Duration="1" Instrument="shift string"
			Pattern Name="09" Color="88eb8c"
				Note Time="0" Value="C#3" Duration="2" Instrument="shift string"
				Note Time="1" Volume="4"
				Note Time="2" Value="C#3" Duration="1" Instrument="shift string" Volume="15" CutDelay="4"
				Note Time="3" Value="C#3" Duration="2" Instrument="shift string"
				Note Time="4" Volume="4"
				Note Time="5" Value="E3" Duration="1" Instrument="shift string" Volume="15" CutDelay="4"
				Note Time="6" Value="C#3" Duration="1" Instrument="shift string"
				Note Time="7" Value="C#4" Duration="1" Instrument="shift string"
				Note Time="8" Value="C#3" Duration="1" Instrument="shift string"
				Note Time="9" Value="G#3" Duration="2" Instrument="shift string"
				Note Time="10" Volume="8"
				Note Time="11" Value="C#3" Duration="1" Instrument="shift string" Volume="15"
				Note Time="12" Value="E3" Duration="3" Instrument="shift string"
				Note Time="15" Value="C#3" Duration="5" Instrument="shift string"
				Note Time="18" Volume="8"
				Note Time="20" Value="C#3" Duration="1" Instrument="shift string" Volume="15"
				Note Time="21" Value="C#4" Duration="3" Instrument="shift string"
				Note Time="23" Volume="8"
			Pattern Name="0C" Color="5ac4ff"
				Note Time="0" Value="C#4" Duration="2" Instrument="shift string" Volume="15"
				Note Time="1" Volume="4"
				Note Time="2" Value="C#3" Duration="1" Instrument="shift string" Volume="15" CutDelay="4"
				Note Time="3" Value="C#3" Duration="2" Instrument="shift string"
				Note Time="4" Volume="4"
				Note Time="5" Value="E3" Duration="1" Instrument="shift string" Volume="15" CutDelay="4"
				Note Time="6" Value="C#3" Duration="1" Instrument="shift string"
				Note Time="7" Value="C#4" Duration="1" Instrument="shift string"
				Note Time="8" Value="C#3" Duration="1" Instrument="shift string"
				Note Time="9" Value="G#3" Duration="2" Instrument="shift string"
				Note Time="10" Volume="8"
				Note Time="11" Value="C#3" Duration="1" Instrument="shift string" Volume="15"
				Note Time="12" Value="E3" Duration="3" Instrument="shift string"
				Note Time="15" Value="C#3" Duration="5" Instrument="shift string"
				Note Time="18" Volume="8"
				Note Time="20" Value="C#3" Duration="1" Instrument="shift string" Volume="15"
				Note Time="21" Value="F#3" Duration="1" Instrument="shift string"
				Note Time="22" Value="C#3" Duration="1" Instrument="shift string"
				Note Time="23" Value="E3" Duration="1" Instrument="shift string"
			Pattern Name="0A" Color="fe5497"
				Note Time="0" Value="C#3" Duration="2" Instrument="shift string"
				Note Time="1" Volume="4"
				Note Time="2" Value="C#3" Duration="1" Instrument="shift string" Volume="15" CutDelay="4"
				Note Time="3" Value="C#3" Duration="2" Instrument="shift string"
				Note Time="4" Volume="4"
				Note Time="5" Value="E3" Duration="1" Instrument="shift string" Volume="15" CutDelay="4"
				Note Time="6" Value="C#3" Duration="1" Instrument="shift string"
				Note Time="7" Value="C#4" Duration="1" Instrument="shift string"
				Note Time="8" Value="C#3" Duration="1" Instrument="shift string"
				Note Time="9" Value="G#3" Duration="2" Instrument="shift string"
				Note Time="10" Volume="8"
				Note Time="11" Value="C#3" Duration="1" Instrument="shift string" Volume="15"
				Note Time="12" Value="A3" Duration="2" Instrument="shift string"
				Note Time="14" Value="A3" Duration="1" Instrument="shift string"
				Note Time="15" Value="G#3" Duration="1" Instrument="shift string"
				Note Time="16" Value="E3" Duration="1" Instrument="shift string"
				Note Time="17" Value="C#3" Duration="1" Instrument="shift string" FinePitch="-2"
				Note Time="18" Value="C#1" Duration="6" Instrument="blank" Volume="7" DutyCycle="2"
				Note Time="20" DutyCycle="1"
				Note Time="21" DutyCycle="0"
			Pattern Name="0B" Color="ffb83c"
				Note Time="0" Value="C#3" Duration="2" Instrument="shift string"
				Note Time="1" Volume="4"
				Note Time="2" Value="C#3" Duration="1" Instrument="shift string" Volume="15" CutDelay="4"
				Note Time="3" Value="C#3" Duration="2" Instrument="shift string"
				Note Time="4" Volume="4"
				Note Time="5" Value="E3" Duration="1" Instrument="shift string" Volume="15" CutDelay="4"
				Note Time="6" Value="C#3" Duration="1" Instrument="shift string"
				Note Time="7" Value="C#4" Duration="1" Instrument="shift string"
				Note Time="8" Value="C#3" Duration="1" Instrument="shift string"
				Note Time="9" Value="G#3" Duration="2" Instrument="shift string"
				Note Time="10" Volume="8"
				Note Time="11" Value="C#3" Duration="1" Instrument="shift string" Volume="15"
				Note Time="12" Value="A3" Duration="2" Instrument="shift string"
				Note Time="14" Value="A3" Duration="1" Instrument="shift string"
				Note Time="15" Value="G#3" Duration="1" Instrument="shift string"
				Note Time="16" Value="E3" Duration="1" Instrument="shift string"
				Note Time="17" Value="C#3" Duration="1" Instrument="shift string"
				Note Time="18" Value="E3" Duration="1" Instrument="shift string"
				Note Time="19" Value="C#3" Duration="1" Instrument="shift string"
				Note Time="20" Value="B2" Duration="1" Instrument="shift string"
				Note Time="21" Value="C#4" Duration="3" Instrument="shift string"
			PatternInstance Time="0" Pattern="01"
			PatternInstance Time="1" Pattern="02"
			PatternInstance Time="2" Pattern="01"
			PatternInstance Time="3" Pattern="02"
			PatternInstance Time="4" Pattern="01"
			PatternInstance Time="5" Pattern="02"
			PatternInstance Time="6" Pattern="03"
			PatternInstance Time="7" Pattern="04"
			PatternInstance Time="8" Pattern="03"
			PatternInstance Time="9" Pattern="05"
			PatternInstance Time="10" Pattern="06"
			PatternInstance Time="11" Pattern="07"
			PatternInstance Time="12" Pattern="06"
			PatternInstance Time="13" Pattern="07"
			PatternInstance Time="15" Pattern="08"
			PatternInstance Time="16" Pattern="09"
			PatternInstance Time="17" Pattern="0C"
			PatternInstance Time="18" Pattern="0A"
			PatternInstance Time="19" Pattern="08"
			PatternInstance Time="20" Pattern="09"
			PatternInstance Time="21" Pattern="0C"
			PatternInstance Time="22" Pattern="0B"
		Channel Type="Square2"
			Pattern Name="06" Color="91c76b"
				Note Time="0" FinePitch="-1"
				Note Time="2" Value="C#4" Duration="3" Instrument="echo" Volume="5" DutyCycle="1"
				Note Time="5" Value="C#4" Duration="2" Instrument="echo"
				Note Time="7" Value="C#4" Duration="1" Instrument="echo"
				Note Time="8" Value="E4" Duration="2" Instrument="echo"
				Note Time="10" Value="C#4" Duration="2" Instrument="echo"
				Note Time="12" Value="C#4" Duration="1" Instrument="echo"
				Note Time="13" Value="D#4" Duration="1" Instrument="echo"
				Note Time="14" Value="E4" Duration="3" Instrument="echo"
				Note Time="17" Value="C#4" Duration="2" Instrument="echo"
				Note Time="19" Value="C#4" Duration="1" Instrument="echo"
				Note Time="20" Value="D#4" Duration="2" Instrument="echo"
				Note Time="22" Value="C#4" Duration="4" Instrument="echo"
			Pattern Name="07" Color="8bffff"
				Note Time="2" Value="C#4" Duration="3" Instrument="echo"
				Note Time="5" Value="C#4" Duration="2" Instrument="echo"
				Note Time="7" Value="C#4" Duration="1" Instrument="echo"
				Note Time="8" Value="E4" Duration="2" Instrument="echo"
				Note Time="10" Value="C#4" Duration="2" Instrument="echo"
				Note Time="12" Value="C#4" Duration="1" Instrument="echo"
				Note Time="13" Value="D#4" Duration="1" Instrument="echo"
				Note Time="14" Value="B3" Duration="3" Instrument="echo"
				Note Time="17" Value="C#4" Duration="2" Instrument="echo"
				Note Time="19" Value="C#4" Duration="1" Instrument="echo"
				Note Time="20" Value="F#4" Duration="2" Instrument="echo"
				Note Time="22" Value="E4" Duration="2" Instrument="echo"
			Pattern Name="01" Color="e783f8"
				Note Time="0" Value="C#4" Duration="2" Instrument="Instrument 2" Volume="15"
				Note Time="2" Value="C#4" Duration="1" Instrument="Instrument 2" Volume="5"
				Note Time="3" Value="C#4" Duration="2" Instrument="Instrument 2" Volume="15"
				Note Time="5" Value="C#4" Duration="1" Instrument="Instrument 2" Volume="15"
				Note Time="6" Value="E4" Duration="1" Instrument="Instrument 2" Volume="15"
				Note Time="7" Value="C#4" Duration="1" Instrument="Instrument 2" Volume="5"
				Note Time="8" Value="C#4" Duration="2" Instrument="Instrument 2" Volume="15"
				Note Time="10" Value="C#4" Duration="1" Instrument="Instrument 2" Volume="15"
				Note Time="11" Value="D#4" Duration="1" Instrument="Instrument 2" Volume="15"
				Note Time="12" Value="C#4" Duration="1" Instrument="Instrument 2" Volume="15"
				Note Time="13" Value="D#4" Duration="1" Instrument="Instrument 2" Volume="5"
				Note Time="14" Value="C#4" Duration="1" Instrument="Instrument 2" Volume="5"
				Note Time="15" Value="C#4" Duration="2" Instrument="Instrument 2" Volume="15"
				Note Time="17" Value="C#4" Duration="1" Instrument="Instrument 2" Volume="15"
				Note Time="18" Value="D#4" Duration="1" Instrument="Instrument 2" Volume="15"
				Note Time="19" Value="D#4" Duration="1" Instrument="Instrument 2" Volume="15"
				Note Time="20" Value="C#4" Duration="1" Instrument="Instrument 2" Volume="15"
				Note Time="21" Value="D#4" Duration="1" Instrument="Instrument 2" Volume="5"
				Note Time="22" Value="C#4" Duration="1" Instrument="Instrument 2" Volume="15"
				Note Time="23" Value="B3" Duration="1" Instrument="Instrument 2" Volume="15"
			Pattern Name="02" Color="ffac7f"
				Note Time="0" Value="C#4" Duration="2" Instrument="Instrument 2" Volume="15"
				Note Time="2" Value="C#4" Duration="1" Instrument="Instrument 2" Volume="5"
				Note Time="3" Value="C#4" Duration="2" Instrument="Instrument 2" Volume="15"
				Note Time="5" Value="C#4" Duration="1" Instrument="Instrument 2" Volume="15"
				Note Time="6" Value="E4" Duration="1" Instrument="Instrument 2" Volume="15"
				Note Time="7" Value="D#4" Duration="1" Instrument="Instrument 2" Volume="15"
				Note Time="8" Value="C#4" Duration="1" Instrument="Instrument 2" Volume="15"
				Note Time="9" Value="D#4" Duration="1" Instrument="Instrument 2" Volume="5"
				Note Time="10" Value="C#4" Duration="1" Instrument="Instrument 2" Volume="15"
				Note Time="11" Value="D#4" Duration="1" Instrument="Instrument 2" Volume="15"
				Note Time="12" Value="C#4" Duration="1" Instrument="Instrument 2" Volume="15"
				Note Time="13" Value="D#4" Duration="1" Instrument="Instrument 2" Volume="5"
				Note Time="14" Value="C#4" Duration="1" Instrument="Instrument 2" Volume="5"
				Note Time="15" Value="C#4" Duration="2" Instrument="Instrument 2" Volume="15"
				Note Time="17" Value="C#4" Duration="1" Instrument="Instrument 2" Volume="15"
				Note Time="18" Value="F#4" Duration="1" Instrument="Instrument 2" Volume="15"
				Note Time="19" Value="C#4" Duration="1" Instrument="Instrument 2" Volume="5"
				Note Time="20" Value="E4" Duration="1" Instrument="Instrument 2" Volume="15"
				Note Time="21" Value="B3" Duration="1" Instrument="Instrument 2" Volume="15"
				Note Time="22" Value="C#4" Duration="1" Instrument="Instrument 2" Volume="15"
				Note Time="23" Value="D#4" Duration="1" Instrument="Instrument 2" Volume="15"
			Pattern Name="03" Color="ffff75"
				Note Time="0" Volume="15" FinePitch="0"
				Note Time="3" Value="C#3" Duration="1" Instrument="echo" DutyCycle="2"
				Note Time="4" Value="C#4" Duration="1" Instrument="echo"
				Note Time="5" Value="C#5" Duration="3" Instrument="echo"
				Note Time="8" Value="C#4" Duration="2" Instrument="echo"
				Note Time="10" Value="G#5" Duration="1" Instrument="echo"
				Note Time="11" Value="C#6" Duration="4" Instrument="echo"
				Note Time="15" Value="C#3" Duration="1" Instrument="echo"
				Note Time="16" Value="C#4" Duration="1" Instrument="echo"
				Note Time="17" Value="C#5" Duration="3" Instrument="echo"
				Note Time="20" Value="C#4" Duration="1" Instrument="Instrument 1"
				Note Time="21" Value="E4" Duration="7" Instrument="blank" Volume="4" DutyCycle="2"
				Note Time="22" Volume="5"
				Note Time="23" Volume="4"
			Pattern Name="04" Color="3ce8fd"
				Note Time="0" Volume="3"
				Note Time="1" Volume="2"
				Note Time="2" Volume="1"
				Note Time="3" Volume="0"
				Note Time="4" Value="C#4" Duration="1" Instrument="echo" Volume="15"
				Note Time="5" Value="C#5" Duration="2" Instrument="echo"
				Note Time="7" Value="C#5" Duration="1" Instrument="echo"
				Note Time="8" Value="G#5" Duration="4" Instrument="echo"
				Note Time="12" Value="C#3" Duration="1" Instrument="echo"
				Note Time="13" Value="C#4" Duration="1" Instrument="echo"
				Note Time="14" Value="C#5" Duration="1" Instrument="echo"
				Note Time="15" Value="C#4" Duration="1" Instrument="echo"
				Note Time="16" Value="G#5" Duration="1" Instrument="echo"
				Note Time="17" Value="C#6" Duration="1" Instrument="echo"
				Note Time="18" Value="G#4" Duration="2" Instrument="02 but tri"
				Note Time="20" Value="E4" Duration="1" Instrument="02 but tri"
				Note Time="21" Value="C#5" Duration="3" Instrument="sample"
			Pattern Name="05" Color="8d69e4"
				Note Time="0" Volume="3"
				Note Time="1" Volume="2"
				Note Time="2" Volume="1"
				Note Time="3" Volume="0"
				Note Time="4" Value="C#4" Duration="1" Instrument="echo" Volume="15" DutyCycle="2"
				Note Time="5" Value="C#5" Duration="2" Instrument="echo"
				Note Time="7" Value="C#5" Duration="1" Instrument="echo"
				Note Time="8" Value="G#5" Duration="4" Instrument="echo"
				Note Time="12" Value="C#3" Duration="1" Instrument="echo"
				Note Time="13" Value="C#4" Duration="1" Instrument="echo"
				Note Time="14" Value="C#5" Duration="1" Instrument="echo"
				Note Time="15" Value="C#4" Duration="1" Instrument="echo"
				Note Time="16" Value="G#5" Duration="1" Instrument="echo"
				Note Time="17" Value="C#6" Duration="1" Instrument="echo"
				Note Time="18" Value="G#4" Duration="2" Instrument="02 but tri"
				Note Time="20" Value="E4" Duration="1" Instrument="02 but tri"
				Note Time="21" Value="C#4" Duration="3" Instrument="sample"
			Pattern Name="0B" Color="ffe461"
				Note Time="0" Volume="3"
				Note Time="1" Volume="2"
				Note Time="2" Volume="1"
				Note Time="3" Value="C#3" Duration="1" Instrument="echo" Volume="15"
				Note Time="4" Value="C#4" Duration="1" Instrument="echo"
				Note Time="5" Value="C#5" Duration="3" Instrument="echo"
				Note Time="8" Value="A3" Duration="2" Instrument="echo"
				Note Time="10" Value="E5" Duration="1" Instrument="echo"
				Note Time="11" Value="A5" Duration="4" Instrument="echo"
				Note Time="15" Value="B2" Duration="1" Instrument="echo"
				Note Time="16" Value="B3" Duration="1" Instrument="echo"
				Note Time="17" Value="B4" Duration="3" Instrument="echo"
				Note Time="20" Value="B3" Duration="2" Instrument="echo"
				Note Time="22" Value="F#5" Duration="1" Instrument="echo"
				Note Time="23" Value="B5" Duration="1" Instrument="echo"
			Pattern Name="08" Color="89f2e8"
				Note Time="0" Volume="3"
				Note Time="1" Volume="2"
				Note Time="2" Volume="1"
				Note Time="4" Value="C#4" Duration="1" Instrument="echo" Volume="15"
				Note Time="5" Value="C#5" Duration="2" Instrument="echo"
				Note Time="7" Value="C#5" Duration="1" Instrument="echo"
				Note Time="8" Value="G#5" Duration="4" Instrument="echo"
				Note Time="12" Value="C#3" Duration="1" Instrument="echo"
				Note Time="13" Value="C#4" Duration="1" Instrument="echo"
				Note Time="14" Value="C#5" Duration="1" Instrument="echo"
				Note Time="15" Value="C#4" Duration="1" Instrument="echo"
				Note Time="16" Value="G#5" Duration="1" Instrument="echo"
				Note Time="17" Value="C#6" Duration="1" Instrument="echo"
				Note Time="18" Value="C#2" Duration="6" Instrument="blank" Volume="7" DutyCycle="2"
				Note Time="19" FinePitch="2"
				Note Time="20" DutyCycle="1"
				Note Time="21" DutyCycle="0"
			Pattern Name="0A" Color="98a7fc"
				Note Time="0" Value="C#4" Duration="2" Instrument="echo" DutyCycle="1"
				Note Time="2" Value="C#4" Duration="2" Instrument="echo" Volume="8"
				Note Time="4" Value="C#4" Duration="4" Instrument="echo" Volume="4"
				Note Time="8" Value="C#4" Duration="1" Instrument="echo" Volume="15" VolumeSlideTarget="3"
				Note Time="9" Value="E4" Duration="2" Instrument="echo"
				Note Time="11" Value="B3" Duration="1" Instrument="echo"
				Note Time="12" Value="C#4" Duration="2" Instrument="echo"
				Note Time="14" Value="C#4" Duration="1" Instrument="echo"
				Note Time="15" Value="B3" Duration="2" Instrument="echo"
				Note Time="17" Value="B3" Duration="1" Instrument="echo"
				Note Time="18" Value="E4" Duration="2" Instrument="echo"
				Note Time="20" Value="E4" Duration="1" Instrument="echo"
				Note Time="21" Value="C#4" Duration="2" Instrument="echo"
				Note Time="23" Value="C#4" Duration="1" Instrument="echo"
			PatternInstance Time="0" Pattern="06"
			PatternInstance Time="1" Pattern="07"
			PatternInstance Time="2" Pattern="01"
			PatternInstance Time="3" Pattern="02"
			PatternInstance Time="4" Pattern="01"
			PatternInstance Time="5" Pattern="02"
			PatternInstance Time="6" Pattern="03"
			PatternInstance Time="7" Pattern="04"
			PatternInstance Time="8" Pattern="03"
			PatternInstance Time="9" Pattern="05"
			PatternInstance Time="10" Pattern="03"
			PatternInstance Time="11" Pattern="05"
			PatternInstance Time="12" Pattern="03"
			PatternInstance Time="13" Pattern="05"
			PatternInstance Time="15" Pattern="03"
			PatternInstance Time="16" Pattern="0B"
			PatternInstance Time="17" Pattern="03"
			PatternInstance Time="18" Pattern="08"
			PatternInstance Time="19" Pattern="03"
			PatternInstance Time="20" Pattern="0B"
			PatternInstance Time="21" Pattern="03"
			PatternInstance Time="22" Pattern="0B"
			PatternInstance Time="23" Pattern="0A"
		Channel Type="Triangle"
			Pattern Name="02" Color="fffd43"
				Note Time="0" Value="C#3" Duration="24" Instrument="blank"
			Pattern Name="01" Color="7fdc83"
				Note Time="1" Value="G#3" Duration="1" Instrument="blank" CutDelay="6"
				Note Time="2" Value="G#3" Duration="1" Instrument="blank" CutDelay="6"
				Note Time="4" Value="G#3" Duration="1" Instrument="blank" CutDelay="6"
				Note Time="5" Value="G#3" Duration="1" Instrument="blank" CutDelay="6"
				Note Time="7" Value="G#3" Duration="1" Instrument="blank" CutDelay="6"
				Note Time="8" Value="G#3" Duration="1" Instrument="blank" CutDelay="6"
				Note Time="10" Value="G#3" Duration="1" Instrument="blank" CutDelay="6"
				Note Time="13" Value="G#3" Duration="1" Instrument="blank" CutDelay="6"
				Note Time="14" Value="G#3" Duration="1" Instrument="blank" CutDelay="6"
				Note Time="16" Value="G#3" Duration="1" Instrument="blank" CutDelay="6"
				Note Time="17" Value="G#3" Duration="1" Instrument="blank" CutDelay="6"
				Note Time="19" Value="G#3" Duration="1" Instrument="blank" CutDelay="6"
				Note Time="20" Value="G#3" Duration="1" Instrument="blank" CutDelay="6"
				Note Time="22" Value="G#3" Duration="1" Instrument="blank" CutDelay="6"
			Pattern Name="03" Color="55b2ff"
				Note Time="1" Value="E3" Duration="1" Instrument="blank" CutDelay="6"
				Note Time="2" Value="E3" Duration="1" Instrument="blank" CutDelay="6"
				Note Time="4" Value="E3" Duration="1" Instrument="blank" CutDelay="6"
				Note Time="5" Value="E3" Duration="1" Instrument="blank" CutDelay="6"
				Note Time="7" Value="E3" Duration="1" Instrument="blank" CutDelay="6"
				Note Time="8" Value="E3" Duration="1" Instrument="blank" CutDelay="6"
				Note Time="10" Value="E3" Duration="1" Instrument="blank"
				Note Time="13" Value="F#3" Duration="1" Instrument="blank" CutDelay="6"
				Note Time="14" Value="F#3" Duration="1" Instrument="blank" CutDelay="6"
				Note Time="16" Value="F#3" Duration="1" Instrument="blank" CutDelay="6"
				Note Time="17" Value="F#3" Duration="1" Instrument="blank" CutDelay="6"
				Note Time="19" Value="F#3" Duration="1" Instrument="blank" CutDelay="6"
				Note Time="20" Value="F#3" Duration="1" Instrument="blank" CutDelay="6"
			Pattern Name="05" Color="e95093"
				Note Time="0" Volume="15"
				Note Time="1" Value="G#3" Duration="1" Instrument="blank" CutDelay="6"
				Note Time="2" Value="G#3" Duration="1" Instrument="blank" CutDelay="6"
				Note Time="4" Value="G#3" Duration="1" Instrument="blank" CutDelay="6"
				Note Time="5" Value="G#3" Duration="1" Instrument="blank" CutDelay="6"
				Note Time="7" Value="G#3" Duration="1" Instrument="blank" CutDelay="6"
				Note Time="8" Value="G#3" Duration="1" Instrument="blank" CutDelay="6"
				Note Time="10" Value="G#3" Duration="1" Instrument="blank" CutDelay="6"
				Note Time="13" Value="G#3" Duration="1" Instrument="blank" CutDelay="6"
				Note Time="14" Value="G#3" Duration="1" Instrument="blank" CutDelay="6"
				Note Time="16" Value="G#3" Duration="1" Instrument="blank" CutDelay="6"
				Note Time="17" Value="G#3" Duration="1" Instrument="blank" CutDelay="6"
				Note Time="19" Value="G#3" Duration="1" Instrument="blank" CutDelay="6"
				Note Time="20" Value="G#3" Duration="1" Instrument="blank" CutDelay="6"
				Note Time="22" Value="G#3" Duration="1" Instrument="blank" CutDelay="6"
			Pattern Name="06" Color="ffa83c"
				Note Time="1" Value="E3" Duration="1" Instrument="blank" CutDelay="6"
				Note Time="2" Value="E3" Duration="1" Instrument="blank" CutDelay="6"
				Note Time="4" Value="E3" Duration="1" Instrument="blank" CutDelay="6"
				Note Time="5" Value="E3" Duration="1" Instrument="blank" CutDelay="6"
				Note Time="7" Value="E3" Duration="1" Instrument="blank" CutDelay="6"
				Note Time="8" Value="E3" Duration="1" Instrument="blank" CutDelay="6"
				Note Time="10" Value="E3" Duration="1" Instrument="blank" CutDelay="6"
				Note Time="13" Value="F#3" Duration="1" Instrument="blank" CutDelay="6"
				Note Time="14" Value="F#3" Duration="1" Instrument="blank" CutDelay="6"
				Note Time="16" Value="F#3" Duration="1" Instrument="blank" CutDelay="6"
				Note Time="17" Value="F#3" Duration="1" Instrument="blank" CutDelay="6"
				Note Time="19" Value="F#3" Duration="1" Instrument="blank" CutDelay="6"
				Note Time="20" Value="F#3" Duration="1" Instrument="blank" CutDelay="6"
				Note Time="22" Value="F#3" Duration="1" Instrument="blank" CutDelay="6"
				Note Time="23" Value="F#3" Duration="1" Instrument="blank" CutDelay="6"
			Pattern Name="07" Color="eaffbd"
				Note Time="1" Value="E3" Duration="1" Instrument="blank" CutDelay="6"
				Note Time="2" Value="E3" Duration="1" Instrument="blank" CutDelay="6"
				Note Time="4" Value="E3" Duration="1" Instrument="blank" CutDelay="6"
				Note Time="5" Value="E3" Duration="1" Instrument="blank" CutDelay="6"
				Note Time="7" Value="E3" Duration="1" Instrument="blank" CutDelay="6"
				Note Time="8" Value="E3" Duration="1" Instrument="blank" CutDelay="6"
				Note Time="10" Value="E3" Duration="1" Instrument="blank" CutDelay="6"
				Note Time="13" Value="F#3" Duration="1" Instrument="blank" CutDelay="6"
				Note Time="14" Value="F#3" Duration="1" Instrument="blank" CutDelay="6"
				Note Time="16" Value="F#3" Duration="1" Instrument="blank" CutDelay="6"
				Note Time="17" Value="F#3" Duration="1" Instrument="blank" CutDelay="6"
				Note Time="18" Value="G#3" Duration="6" Instrument="blank"
				Note Time="19" Attack="False"
				Note Time="20" Attack="False"
			Pattern Name="08" Color="65f2ff"
				Note Time="0" Value="A1" Duration="1" Instrument="blank" CutDelay="5"
				Note Time="1" Value="A1" Duration="1" Instrument="blank" CutDelay="5"
				Note Time="2" Value="A1" Duration="1" Instrument="blank" CutDelay="5"
				Note Time="3" Value="A1" Duration="1" Instrument="blank" CutDelay="5"
				Note Time="4" Value="A1" Duration="1" Instrument="blank" CutDelay="5"
				Note Time="5" Value="A1" Duration="1" Instrument="blank" CutDelay="5"
				Note Time="6" Value="A1" Duration="1" Instrument="blank" CutDelay="5"
				Note Time="7" Value="A1" Duration="1" Instrument="blank" CutDelay="5"
				Note Time="8" Value="A1" Duration="1" Instrument="blank" CutDelay="5"
				Note Time="9" Value="A1" Duration="1" Instrument="blank" CutDelay="5"
				Note Time="10" Value="A1" Duration="1" Instrument="blank" CutDelay="5"
				Note Time="11" Value="A1" Duration="1" Instrument="blank" CutDelay="5"
				Note Time="12" Value="B1" Duration="1" Instrument="blank" CutDelay="5"
				Note Time="13" Value="B1" Duration="1" Instrument="blank" CutDelay="5"
				Note Time="14" Value="B1" Duration="1" Instrument="blank" CutDelay="5"
				Note Time="15" Value="B1" Duration="1" Instrument="blank" CutDelay="5"
				Note Time="16" Value="B1" Duration="1" Instrument="blank" CutDelay="5"
				Note Time="17" Value="B1" Duration="1" Instrument="blank" CutDelay="5"
				Note Time="18" Value="B1" Duration="1" Instrument="blank" CutDelay="5"
				Note Time="19" Value="B1" Duration="1" Instrument="blank" CutDelay="5"
				Note Time="20" Value="B1" Duration="1" Instrument="blank" CutDelay="5"
				Note Time="21" Value="B1" Duration="1" Instrument="blank" CutDelay="5"
				Note Time="22" Value="B1" Duration="1" Instrument="blank" CutDelay="5"
				Note Time="23" Value="B1" Duration="1" Instrument="blank" CutDelay="5"
			PatternInstance Time="4" Pattern="02"
			PatternInstance Time="5" Pattern="02"
			PatternInstance Time="6" Pattern="01"
			PatternInstance Time="7" Pattern="01"
			PatternInstance Time="8" Pattern="01"
			PatternInstance Time="9" Pattern="01"
			PatternInstance Time="10" Pattern="01"
			PatternInstance Time="11" Pattern="01"
			PatternInstance Time="12" Pattern="01"
			PatternInstance Time="13" Pattern="03"
			PatternInstance Time="15" Pattern="05"
			PatternInstance Time="16" Pattern="06"
			PatternInstance Time="17" Pattern="05"
			PatternInstance Time="18" Pattern="07"
			PatternInstance Time="19" Pattern="05"
			PatternInstance Time="20" Pattern="06"
			PatternInstance Time="21" Pattern="05"
			PatternInstance Time="22" Pattern="08"
		Channel Type="Noise"
			Pattern Name="01" Color="ff935e"
				Note Time="12" Value="F#3" Duration="12" Instrument="DMC: drums + bass" Volume="1"
				Note Time="15" Volume="2"
				Note Time="17" Volume="3"
				Note Time="18" Volume="4"
				Note Time="19" Volume="5"
				Note Time="20" Volume="7"
				Note Time="21" Volume="9"
				Note Time="22" Volume="11"
				Note Time="23" Volume="15"
			Pattern Name="02" Color="fcff6f"
				Note Time="0" Value="G2" Duration="1" Instrument="kick"
				Note Time="1" Value="F#3" Duration="1" Instrument="rel hats"
				Note Time="2" Value="F#3" Duration="1" Instrument="rel hats"
				Note Time="3" Value="G2" Duration="1" Instrument="snare"
				Note Time="4" Value="F#3" Duration="1" Instrument="rel hats"
				Note Time="5" Value="F#3" Duration="1" Instrument="rel hats"
				Note Time="6" Value="G2" Duration="1" Instrument="kick"
				Note Time="7" Value="F#3" Duration="1" Instrument="rel hats"
				Note Time="8" Value="F#3" Duration="1" Instrument="rel hats"
				Note Time="9" Value="G2" Duration="1" Instrument="snare"
				Note Time="10" Value="F#3" Duration="1" Instrument="rel hats"
				Note Time="11" Value="F#3" Duration="1" Instrument="rel hats"
				Note Time="12" Value="G2" Duration="1" Instrument="kick"
				Note Time="13" Value="F#3" Duration="1" Instrument="rel hats"
				Note Time="14" Value="F#3" Duration="1" Instrument="rel hats"
				Note Time="15" Value="G2" Duration="1" Instrument="snare"
				Note Time="16" Value="F#3" Duration="1" Instrument="rel hats"
				Note Time="17" Value="F#3" Duration="1" Instrument="rel hats"
				Note Time="18" Value="G2" Duration="1" Instrument="kick"
				Note Time="19" Value="F#3" Duration="1" Instrument="rel hats"
				Note Time="20" Value="F#3" Duration="1" Instrument="rel hats"
				Note Time="21" Value="G2" Duration="1" Instrument="snare"
				Note Time="22" Value="F#3" Duration="1" Instrument="rel hats"
				Note Time="23" Value="F#3" Duration="1" Instrument="rel hats"
			Pattern Name="03" Color="3cd3e3"
				Note Time="0" Value="D#3" Duration="3" Instrument="blank" Volume="1"
				Note Time="1" Volume="2"
				Note Time="2" Volume="3"
				Note Time="3" Value="E3" Duration="3" Instrument="blank" Volume="1"
				Note Time="4" Volume="2"
				Note Time="5" Volume="4"
				Note Time="6" Value="F#3" Duration="3" Instrument="blank" Volume="2"
				Note Time="7" Volume="5"
				Note Time="8" Volume="6"
				Note Time="9" Value="G#3" Duration="3" Instrument="blank" Volume="4"
				Note Time="10" Volume="7"
				Note Time="11" Volume="8"
			Pattern Name="04" Color="8163dc"
				Note Time="0" Value="G2" Duration="1" Instrument="kick" Volume="15"
				Note Time="1" Value="F#3" Duration="1" Instrument="rel hats"
				Note Time="2" Value="F#3" Duration="1" Instrument="rel hats"
				Note Time="3" Value="G2" Duration="1" Instrument="snare"
				Note Time="4" Value="F#3" Duration="1" Instrument="rel hats"
				Note Time="5" Value="F#3" Duration="1" Instrument="rel hats"
				Note Time="6" Value="G2" Duration="1" Instrument="kick"
				Note Time="7" Value="F#3" Duration="1" Instrument="rel hats"
				Note Time="8" Value="F#3" Duration="1" Instrument="rel hats"
				Note Time="9" Value="G2" Duration="1" Instrument="snare"
				Note Time="10" Value="F#3" Duration="1" Instrument="rel hats"
				Note Time="11" Value="F#3" Duration="1" Instrument="rel hats"
				Note Time="12" Value="G2" Duration="1" Instrument="kick"
				Note Time="13" Value="F#3" Duration="1" Instrument="rel hats"
				Note Time="14" Value="F#3" Duration="1" Instrument="rel hats"
				Note Time="15" Value="G2" Duration="1" Instrument="snare"
				Note Time="16" Value="F#3" Duration="1" Instrument="rel hats"
				Note Time="17" Value="F#3" Duration="1" Instrument="rel hats"
				Note Time="18" Value="G2" Duration="1" Instrument="kick"
				Note Time="19" Value="F#3" Duration="1" Instrument="rel hats"
				Note Time="20" Value="F#3" Duration="1" Instrument="rel hats"
				Note Time="21" Value="G2" Duration="1" Instrument="snare"
				Note Time="22" Value="F#3" Duration="1" Instrument="rel hats"
				Note Time="23" Value="F#3" Duration="1" Instrument="rel hats"
			Pattern Name="05" Color="8a706a"
				Note Time="0" Value="G2" Duration="1" Instrument="kick"
				Note Time="1" Value="F#3" Duration="1" Instrument="rel hats"
				Note Time="2" Value="F#3" Duration="1" Instrument="rel hats"
				Note Time="3" Value="G2" Duration="1" Instrument="snare"
				Note Time="4" Value="F#3" Duration="1" Instrument="rel hats"
				Note Time="5" Value="F#3" Duration="1" Instrument="rel hats"
				Note Time="6" Value="G2" Duration="1" Instrument="kick"
				Note Time="7" Value="F#3" Duration="1" Instrument="rel hats"
				Note Time="8" Value="F#3" Duration="1" Instrument="rel hats"
				Note Time="9" Value="G2" Duration="1" Instrument="snare"
				Note Time="10" Value="F#3" Duration="1" Instrument="rel hats"
				Note Time="11" Value="F#3" Duration="1" Instrument="rel hats"
				Note Time="12" Value="G2" Duration="1" Instrument="kick"
				Note Time="13" Value="F#3" Duration="1" Instrument="rel hats"
				Note Time="14" Value="F#3" Duration="1" Instrument="rel hats"
				Note Time="15" Value="G2" Duration="1" Instrument="snare"
				Note Time="16" Value="F#3" Duration="1" Instrument="rel hats"
				Note Time="17" Value="F#3" Duration="1" Instrument="rel hats"
			Pattern Name="06" Color="ffffb2"
				Note Time="0" Value="G2" Duration="21" Instrument="kick"
				Note Time="21" Value="A#3" Duration="3" Instrument="blank" Volume="1"
				Note Time="22" Volume="4"
				Note Time="23" Volume="8"
			Pattern Name="07" Color="62e2d6"
				Note Time="0" Value="A3" Duration="1" Instrument="blank" Volume="10"
				Note Time="1" Value="A3" Duration="1" Instrument="blank"
				Note Time="2" Value="G#3" Duration="1" Instrument="blank" Volume="6"
				Note Time="3" Value="G#3" Duration="1" Instrument="blank"
				Note Time="4" Value="G3" Duration="1" Instrument="blank" Volume="4"
				Note Time="5" Value="G3" Duration="1" Instrument="blank"
				Note Time="6" Value="G3" Duration="1" Instrument="blank"
				Note Time="7" Value="F#3" Duration="17" Instrument="blank" Volume="3"
				Note Time="9" Volume="3"
				Note Time="10" Volume="2"
				Note Time="13" Volume="1"
				Note Time="16" Volume="0"
			PatternInstance Time="5" Pattern="01"
			PatternInstance Time="6" Pattern="02"
			PatternInstance Time="7" Pattern="02"
			PatternInstance Time="8" Pattern="02"
			PatternInstance Time="9" Pattern="02"
			PatternInstance Time="10" Pattern="02"
			PatternInstance Time="11" Pattern="02"
			PatternInstance Time="12" Pattern="02"
			PatternInstance Time="13" Pattern="02"
			PatternInstance Time="14" Pattern="03"
			PatternInstance Time="15" Pattern="04"
			PatternInstance Time="16" Pattern="02"
			PatternInstance Time="17" Pattern="04"
			PatternInstance Time="18" Pattern="05"
			PatternInstance Time="19" Pattern="04"
			PatternInstance Time="20" Pattern="02"
			PatternInstance Time="21" Pattern="04"
			PatternInstance Time="22" Pattern="06"
			PatternInstance Time="23" Pattern="07"
		Channel Type="DPCM"
			Pattern Name="01" Color="ff7571"
				Note Time="0" Value="C#4" Duration="1" Instrument="DMC: drums + bass"
				Note Time="1" Value="C#4" Duration="1" Instrument="DMC: drums + bass"
				Note Time="2" Value="C#4" Duration="1" Instrument="DMC: drums + bass"
				Note Time="3" Value="C#4" Duration="1" Instrument="DMC: drums + bass"
				Note Time="4" Value="C#4" Duration="1" Instrument="DMC: drums + bass"
				Note Time="5" Value="C#4" Duration="1" Instrument="DMC: drums + bass"
				Note Time="6" Value="C#4" Duration="1" Instrument="DMC: drums + bass"
				Note Time="7" Value="C#4" Duration="1" Instrument="DMC: drums + bass"
				Note Time="8" Value="C#4" Duration="1" Instrument="DMC: drums + bass"
				Note Time="9" Value="C#4" Duration="1" Instrument="DMC: drums + bass"
				Note Time="10" Value="C#4" Duration="1" Instrument="DMC: drums + bass"
				Note Time="11" Value="C#4" Duration="1" Instrument="DMC: drums + bass"
				Note Time="12" Value="C#4" Duration="1" Instrument="DMC: drums + bass"
				Note Time="13" Value="C#4" Duration="1" Instrument="DMC: drums + bass"
				Note Time="14" Value="C#4" Duration="1" Instrument="DMC: drums + bass"
				Note Time="15" Value="C#4" Duration="1" Instrument="DMC: drums + bass"
				Note Time="16" Value="C#4" Duration="1" Instrument="DMC: drums + bass"
				Note Time="17" Value="C#4" Duration="1" Instrument="DMC: drums + bass"
				Note Time="18" Value="C#4" Duration="1" Instrument="DMC: drums + bass"
				Note Time="19" Value="C#4" Duration="1" Instrument="DMC: drums + bass"
				Note Time="20" Value="C#4" Duration="1" Instrument="DMC: drums + bass"
				Note Time="21" Value="C#4" Duration="1" Instrument="DMC: drums + bass"
				Note Time="22" Value="C#4" Duration="1" Instrument="DMC: drums + bass"
				Note Time="23" Value="C#4" Duration="1" Instrument="DMC: drums + bass"
			Pattern Name="02" Color="ffef3c"
				Note Time="0" Value="E5" Duration="1" Instrument="DMC: drums + bass"
				Note Time="1" Value="C#4" Duration="1" Instrument="DMC: drums + bass"
				Note Time="2" Value="C#4" Duration="1" Instrument="DMC: drums + bass"
				Note Time="3" Value="F5" Duration="1" Instrument="DMC: drums + bass"
				Note Time="4" Value="C#4" Duration="1" Instrument="DMC: drums + bass"
				Note Time="5" Value="C#4" Duration="1" Instrument="DMC: drums + bass"
				Note Time="6" Value="E5" Duration="1" Instrument="DMC: drums + bass"
				Note Time="7" Value="C#4" Duration="1" Instrument="DMC: drums + bass"
				Note Time="8" Value="C#4" Duration="1" Instrument="DMC: drums + bass"
				Note Time="9" Value="F5" Duration="1" Instrument="DMC: drums + bass"
				Note Time="10" Value="C#4" Duration="1" Instrument="DMC: drums + bass"
				Note Time="12" Value="E5" Duration="1" Instrument="DMC: drums + bass"
				Note Time="13" Value="C#4" Duration="1" Instrument="DMC: drums + bass"
				Note Time="14" Value="C#4" Duration="1" Instrument="DMC: drums + bass"
				Note Time="15" Value="F5" Duration="1" Instrument="DMC: drums + bass"
				Note Time="16" Value="C#4" Duration="1" Instrument="DMC: drums + bass"
				Note Time="17" Value="C#4" Duration="1" Instrument="DMC: drums + bass"
				Note Time="18" Value="E5" Duration="1" Instrument="DMC: drums + bass"
				Note Time="19" Value="C#4" Duration="1" Instrument="DMC: drums + bass"
				Note Time="20" Value="C#4" Duration="1" Instrument="DMC: drums + bass"
				Note Time="21" Value="F5" Duration="1" Instrument="DMC: drums + bass"
				Note Time="22" Value="C#4" Duration="1" Instrument="DMC: drums + bass"
			Pattern Name="03" Color="74ca78"
				Note Time="0" Value="E5" Duration="1" Instrument="DMC: drums + bass"
				Note Time="1" Value="A3" Duration="1" Instrument="DMC: drums + bass"
				Note Time="2" Value="A3" Duration="1" Instrument="DMC: drums + bass"
				Note Time="3" Value="F5" Duration="1" Instrument="DMC: drums + bass"
				Note Time="4" Value="A3" Duration="1" Instrument="DMC: drums + bass"
				Note Time="5" Value="A3" Duration="1" Instrument="DMC: drums + bass"
				Note Time="6" Value="E5" Duration="1" Instrument="DMC: drums + bass"
				Note Time="7" Value="A3" Duration="1" Instrument="DMC: drums + bass"
				Note Time="8" Value="A3" Duration="1" Instrument="DMC: drums + bass"
				Note Time="9" Value="F5" Duration="1" Instrument="DMC: drums + bass"
				Note Time="10" Value="A3" Duration="1" Instrument="DMC: drums + bass"
				Note Time="12" Value="E5" Duration="1" Instrument="DMC: drums + bass"
				Note Time="13" Value="B3" Duration="1" Instrument="DMC: drums + bass"
				Note Time="14" Value="B3" Duration="1" Instrument="DMC: drums + bass"
				Note Time="15" Value="F5" Duration="1" Instrument="DMC: drums + bass"
				Note Time="16" Value="B3" Duration="1" Instrument="DMC: drums + bass"
				Note Time="17" Value="B3" Duration="1" Instrument="DMC: drums + bass"
				Note Time="18" Value="E5" Duration="1" Instrument="DMC: drums + bass"
				Note Time="19" Value="B3" Duration="1" Instrument="DMC: drums + bass"
				Note Time="20" Value="B3" Duration="1" Instrument="DMC: drums + bass"
				Note Time="21" Value="F5" Duration="3" Instrument="DMC: drums + bass"
			Pattern Name="04" Color="51a1fc"
				Note Time="0" Value="E5" Duration="1" Instrument="DMC: drums + bass"
				Note Time="1" Value="C#4" Duration="1" Instrument="DMC: drums + bass"
				Note Time="2" Value="C#4" Duration="1" Instrument="DMC: drums + bass"
				Note Time="3" Value="F5" Duration="1" Instrument="DMC: drums + bass"
				Note Time="4" Value="C#4" Duration="1" Instrument="DMC: drums + bass"
				Note Time="5" Value="C#4" Duration="1" Instrument="DMC: drums + bass"
				Note Time="6" Value="E5" Duration="1" Instrument="DMC: drums + bass"
				Note Time="7" Value="C#4" Duration="1" Instrument="DMC: drums + bass"
				Note Time="8" Value="C#4" Duration="1" Instrument="DMC: drums + bass"
				Note Time="9" Value="F5" Duration="1" Instrument="DMC: drums + bass"
				Note Time="10" Value="C#4" Duration="1" Instrument="DMC: drums + bass"
				Note Time="12" Value="E5" Duration="1" Instrument="DMC: drums + bass"
				Note Time="13" Value="C#4" Duration="1" Instrument="DMC: drums + bass"
				Note Time="14" Value="C#4" Duration="1" Instrument="DMC: drums + bass"
				Note Time="15" Value="F5" Duration="1" Instrument="DMC: drums + bass"
				Note Time="16" Value="C#4" Duration="1" Instrument="DMC: drums + bass"
				Note Time="17" Value="C#4" Duration="1" Instrument="DMC: drums + bass"
				Note Time="18" Value="E5" Duration="1" Instrument="DMC: drums + bass"
				Note Time="19" Value="C#4" Duration="1" Instrument="DMC: drums + bass"
				Note Time="20" Value="C#4" Duration="1" Instrument="DMC: drums + bass"
				Note Time="21" Value="F5" Duration="1" Instrument="DMC: drums + bass"
				Note Time="22" Value="C#4" Duration="1" Instrument="DMC: drums + bass"
			Pattern Name="05" Color="ff9ece"
				Note Time="0" Value="E5" Duration="1" Instrument="DMC: drums + bass"
				Note Time="1" Value="A3" Duration="1" Instrument="DMC: drums + bass"
				Note Time="2" Value="A3" Duration="1" Instrument="DMC: drums + bass"
				Note Time="3" Value="F5" Duration="1" Instrument="DMC: drums + bass"
				Note Time="4" Value="A3" Duration="1" Instrument="DMC: drums + bass"
				Note Time="5" Value="A3" Duration="1" Instrument="DMC: drums + bass"
				Note Time="6" Value="E5" Duration="1" Instrument="DMC: drums + bass"
				Note Time="7" Value="A3" Duration="1" Instrument="DMC: drums + bass"
				Note Time="8" Value="A3" Duration="1" Instrument="DMC: drums + bass"
				Note Time="9" Value="F5" Duration="1" Instrument="DMC: drums + bass"
				Note Time="10" Value="A3" Duration="1" Instrument="DMC: drums + bass"
				Note Time="12" Value="E5" Duration="1" Instrument="DMC: drums + bass"
				Note Time="13" Value="B3" Duration="1" Instrument="DMC: drums + bass"
				Note Time="14" Value="B3" Duration="1" Instrument="DMC: drums + bass"
				Note Time="15" Value="F5" Duration="1" Instrument="DMC: drums + bass"
				Note Time="16" Value="B3" Duration="1" Instrument="DMC: drums + bass"
				Note Time="17" Value="B3" Duration="1" Instrument="DMC: drums + bass"
				Note Time="18" Value="E5" Duration="1" Instrument="DMC: drums + bass"
				Note Time="19" Value="B3" Duration="1" Instrument="DMC: drums + bass"
				Note Time="20" Value="B3" Duration="1" Instrument="DMC: drums + bass"
				Note Time="21" Value="F5" Duration="1" Instrument="DMC: drums + bass"
				Note Time="22" Value="B3" Duration="1" Instrument="DMC: drums + bass"
				Note Time="23" Value="B3" Duration="1" Instrument="DMC: drums + bass"
			Pattern Name="06" Color="fff389"
				Note Time="0" Value="E5" Duration="1" Instrument="DMC: drums + bass"
				Note Time="1" Value="A3" Duration="1" Instrument="DMC: drums + bass"
				Note Time="2" Value="A3" Duration="1" Instrument="DMC: drums + bass"
				Note Time="3" Value="F5" Duration="1" Instrument="DMC: drums + bass"
				Note Time="4" Value="A3" Duration="1" Instrument="DMC: drums + bass"
				Note Time="5" Value="A3" Duration="1" Instrument="DMC: drums + bass"
				Note Time="6" Value="E5" Duration="1" Instrument="DMC: drums + bass"
				Note Time="7" Value="A3" Duration="1" Instrument="DMC: drums + bass"
				Note Time="8" Value="A3" Duration="1" Instrument="DMC: drums + bass"
				Note Time="9" Value="F5" Duration="1" Instrument="DMC: drums + bass"
				Note Time="10" Value="A3" Duration="1" Instrument="DMC: drums + bass"
				Note Time="12" Value="E5" Duration="1" Instrument="DMC: drums + bass"
				Note Time="13" Value="B3" Duration="1" Instrument="DMC: drums + bass"
				Note Time="14" Value="B3" Duration="1" Instrument="DMC: drums + bass"
				Note Time="15" Value="F5" Duration="1" Instrument="DMC: drums + bass"
				Note Time="16" Value="B3" Duration="1" Instrument="DMC: drums + bass"
				Note Time="17" Value="B3" Duration="1" Instrument="DMC: drums + bass"
			Pattern Name="07" Color="d8ffa1"
				Note Time="0" Value="E5" Duration="1" Instrument="DMC: drums + bass"
				Note Time="1" Value="A3" Duration="1" Instrument="DMC: drums + bass"
				Note Time="2" Value="A3" Duration="1" Instrument="DMC: drums + bass"
				Note Time="4" Value="A3" Duration="1" Instrument="DMC: drums + bass"
				Note Time="5" Value="A3" Duration="1" Instrument="DMC: drums + bass"
				Note Time="7" Value="A3" Duration="1" Instrument="DMC: drums + bass"
				Note Time="8" Value="A3" Duration="1" Instrument="DMC: drums + bass"
				Note Time="10" Value="A3" Duration="1" Instrument="DMC: drums + bass"
				Note Time="13" Value="B3" Duration="1" Instrument="DMC: drums + bass"
				Note Time="14" Value="B3" Duration="1" Instrument="DMC: drums + bass"
				Note Time="16" Value="B3" Duration="1" Instrument="DMC: drums + bass"
				Note Time="17" Value="B3" Duration="1" Instrument="DMC: drums + bass"
				Note Time="19" Value="B3" Duration="1" Instrument="DMC: drums + bass"
				Note Time="20" Value="B3" Duration="1" Instrument="DMC: drums + bass"
				Note Time="22" Value="B3" Duration="1" Instrument="DMC: drums + bass"
				Note Time="23" Value="B3" Duration="1" Instrument="DMC: drums + bass"
			Pattern Name="08" Color="3fe5ff"
				Note Time="0" Value="E5" Duration="24" Instrument="DMC: drums + bass"
			PatternInstance Time="4" Pattern="01"
			PatternInstance Time="5" Pattern="01"
			PatternInstance Time="6" Pattern="02"
			PatternInstance Time="7" Pattern="02"
			PatternInstance Time="8" Pattern="02"
			PatternInstance Time="9" Pattern="02"
			PatternInstance Time="10" Pattern="02"
			PatternInstance Time="11" Pattern="02"
			PatternInstance Time="12" Pattern="02"
			PatternInstance Time="13" Pattern="03"
			PatternInstance Time="15" Pattern="04"
			PatternInstance Time="16" Pattern="05"
			PatternInstance Time="17" Pattern="04"
			PatternInstance Time="18" Pattern="06"
			PatternInstance Time="19" Pattern="04"
			PatternInstance Time="20" Pattern="05"
			PatternInstance Time="21" Pattern="04"
			PatternInstance Time="22" Pattern="07"
			PatternInstance Time="23" Pattern="08"
	Song Name="Electroman Adventures" Color="7fdc83" Folder="Official music used in the game" Length="32" LoopPoint="-1" PatternLength="64" BeatLength="4" FamiTrackerTempo="170" FamiTrackerSpeed="3"
		PatternCustomSettings Time="31" Length="16"
		Channel Type="Square1"
			Pattern Name="01" Color="eaffbd"
				Note Time="0" Value="G#3" Duration="8" Instrument="electroman lead" Volume="7"
				Note Time="8" Value="G#3" Duration="4" Instrument="electroman lead" SlideTarget="G#2" Attack="False"
				Note Time="12" Value="G#2" Duration="4" Instrument="electroman lead" Attack="False"
				Note Time="16" Value="D#2" Duration="4" Instrument="DMC: drums + bass" DutyCycle="2"
				Note Time="24" Value="D#2" Duration="3" Instrument="DMC: drums + bass"
				Note Time="28" Value="D#2" Duration="4" Instrument="DMC: drums + bass"
				Note Time="40" Value="B1" Duration="4" Instrument="DMC: drums + bass"
				Note Time="48" Value="D#2" Duration="4" Instrument="DMC: drums + bass"
				Note Time="56" Value="D#2" Duration="4" Instrument="DMC: drums + bass"
			Pattern Name="02" Color="65f2ff"
				Note Time="0" Value="D#2" Duration="4" Instrument="DMC: drums + bass"
				Note Time="8" Value="D#2" Duration="4" Instrument="DMC: drums + bass"
				Note Time="16" Value="D#2" Duration="4" Instrument="DMC: drums + bass"
				Note Time="24" Value="D#2" Duration="3" Instrument="DMC: drums + bass"
				Note Time="28" Value="D#2" Duration="4" Instrument="DMC: drums + bass"
				Note Time="36" Value="G#1" Duration="4" Instrument="DMC: drums + bass"
				Note Time="40" Value="D#2" Duration="4" Instrument="DMC: drums + bass"
				Note Time="48" Value="D#2" Duration="4" Instrument="DMC: drums + bass"
				Note Time="56" Value="E2" Duration="4" Instrument="DMC: drums + bass"
			Pattern Name="03" Color="d863ec"
				Note Time="0" Value="D#2" Duration="4" Instrument="DMC: drums + bass"
				Note Time="8" Value="D#2" Duration="4" Instrument="DMC: drums + bass"
				Note Time="16" Value="D#2" Duration="4" Instrument="DMC: drums + bass"
				Note Time="24" Value="D#2" Duration="3" Instrument="DMC: drums + bass"
				Note Time="28" Value="D#2" Duration="4" Instrument="DMC: drums + bass"
				Note Time="36" Value="G#2" Duration="4" Instrument="DMC: drums + bass"
				Note Time="40" Value="B1" Duration="4" Instrument="DMC: drums + bass"
				Note Time="48" Value="F#2" Duration="4" Instrument="DMC: drums + bass"
				Note Time="56" Value="F#2" Duration="4" Instrument="DMC: drums + bass"
			Pattern Name="04" Color="ff935e"
				Note Time="0" Value="G#3" Duration="8" Instrument="electroman lead" DutyCycle="0"
				Note Time="8" Value="G#3" Duration="3" Instrument="electroman lead" SlideTarget="A#2" Attack="False"
				Note Time="12" Value="G#3" Duration="2" Instrument="blank"
				Note Time="16" Value="B3" Duration="4" Instrument="blank"
				Note Time="20" Value="G#3" Duration="4" Instrument="blank"
				Note Time="24" Value="F#3" Duration="2" Instrument="blank"
				Note Time="28" Value="G#3" Duration="4" Instrument="blank"
				Note Time="40" Value="A#3" Duration="1" Instrument="blank"
				Note Time="41" Value="B3" Duration="3" Instrument="blank"
				Note Time="48" Value="F#3" Duration="4" Instrument="blank"
				Note Time="56" Value="B3" Duration="4" Instrument="blank"
			Pattern Name="05" Color="fcff6f"
				Note Time="0" Value="G#3" Duration="4" Instrument="blank"
				Note Time="12" Value="G#3" Duration="2" Instrument="blank"
				Note Time="16" Value="B3" Duration="4" Instrument="blank"
				Note Time="20" Value="G#3" Duration="4" Instrument="blank"
				Note Time="24" Value="F#3" Duration="2" Instrument="blank"
				Note Time="28" Value="G#3" Duration="4" Instrument="blank"
				Note Time="36" Value="G#3" Duration="2" Instrument="blank"
				Note Time="40" Value="B3" Duration="2" Instrument="blank"
				Note Time="44" Value="G#3" Duration="2" Instrument="blank"
				Note Time="48" Value="D#3" Duration="2" Instrument="blank"
				Note Time="52" Value="A3" Duration="4" Instrument="blank"
				Note Time="60" Value="F#3" Duration="4" Instrument="blank"
			Pattern Name="06" Color="3cd3e3"
				Note Time="0" Value="G#3" Duration="4" Instrument="blank"
				Note Time="12" Value="G#3" Duration="2" Instrument="blank"
				Note Time="16" Value="B3" Duration="4" Instrument="blank"
				Note Time="20" Value="G#3" Duration="4" Instrument="blank"
				Note Time="24" Value="F#3" Duration="2" Instrument="blank"
				Note Time="28" Value="G#3" Duration="4" Instrument="blank"
				Note Time="40" Value="D#3" Duration="2" Instrument="blank"
				Note Time="44" Value="D#3" Duration="2" Instrument="blank"
				Note Time="48" Value="D#3" Duration="2" Instrument="blank"
				Note Time="52" Value="F#3" Duration="2" Instrument="blank"
				Note Time="56" Value="F#3" Duration="2" Instrument="blank"
				Note Time="60" Value="F#3" Duration="2" Instrument="blank"
			Pattern Name="07" Color="8163dc"
				Note Time="0" Value="G#3" Duration="4" Instrument="DMC: drums + bass"
				Note Time="12" Value="G#3" Duration="2" Instrument="DMC: drums + bass"
				Note Time="16" Value="B3" Duration="4" Instrument="DMC: drums + bass"
				Note Time="20" Value="G#3" Duration="4" Instrument="DMC: drums + bass"
				Note Time="24" Value="F#3" Duration="2" Instrument="DMC: drums + bass"
				Note Time="28" Value="G#3" Duration="4" Instrument="DMC: drums + bass"
				Note Time="36" Value="G#3" Duration="2" Instrument="DMC: drums + bass"
				Note Time="40" Value="B3" Duration="2" Instrument="DMC: drums + bass"
				Note Time="44" Value="G#3" Duration="2" Instrument="DMC: drums + bass"
				Note Time="48" Value="B3" Duration="2" Instrument="DMC: drums + bass"
				Note Time="52" Value="C#4" Duration="2" Instrument="DMC: drums + bass"
				Note Time="56" Value="G#3" Duration="2" Instrument="DMC: drums + bass"
				Note Time="60" Value="F#3" Duration="2" Instrument="DMC: drums + bass"
			Pattern Name="08" Color="8a706a"
				Note Time="0" Value="D#3" Duration="2" Instrument="electroman lead"
				Note Time="4" Value="D#3" Duration="2" Instrument="electroman lead"
				Note Time="8" Value="A#3" Duration="4" Instrument="electroman lead"
				Note Time="12" Value="B3" Duration="4" Instrument="electroman lead"
				Note Time="16" Value="B3" Duration="4" Instrument="electroman lead"
				Note Time="20" Value="A#3" Duration="4" Instrument="electroman lead"
				Note Time="24" Value="G#3" Duration="4" Instrument="electroman lead"
				Note Time="28" Value="D#3" Duration="4" Instrument="electroman lead"
				Note Time="36" Value="D#3" Duration="4" Instrument="electroman lead"
				Note Time="40" Value="B3" Duration="4" Instrument="electroman lead"
				Note Time="44" Value="G#3" Duration="4" Instrument="electroman lead"
				Note Time="48" Value="A3" Duration="6" Instrument="electroman lead" SlideTarget="A#3"
				Note Time="54" Value="A#3" Duration="6" Instrument="electroman lead" Attack="False"
				Note Time="60" Value="G#3" Duration="2" Instrument="electroman lead"
				Note Time="62" Value="A#3" Duration="2" Instrument="electroman lead"
			Pattern Name="09" Color="ffffb2"
				Note Time="0" Value="B3" Duration="4" Instrument="electroman lead"
				Note Time="4" Value="G#3" Duration="2" Instrument="electroman lead"
				Note Time="6" Value="A#3" Duration="2" Instrument="electroman lead"
				Note Time="8" Value="B3" Duration="4" Instrument="electroman lead"
				Note Time="12" Value="G#3" Duration="2" Instrument="electroman lead"
				Note Time="14" Value="A#3" Duration="2" Instrument="electroman lead"
				Note Time="16" Value="C#4" Duration="4" Instrument="electroman lead"
				Note Time="20" Value="A#3" Duration="2" Instrument="electroman lead"
				Note Time="22" Value="B3" Duration="2" Instrument="electroman lead"
				Note Time="24" Value="C#4" Duration="4" Instrument="electroman lead"
				Note Time="28" Value="B3" Duration="2" Instrument="electroman lead"
				Note Time="30" Value="C#4" Duration="2" Instrument="electroman lead"
				Note Time="32" Value="D#4" Duration="4" Instrument="electroman lead"
				Note Time="36" Value="B3" Duration="2" Instrument="electroman lead"
				Note Time="38" Value="A#3" Duration="2" Instrument="electroman lead"
				Note Time="40" Value="B3" Duration="2" Instrument="electroman lead"
				Note Time="44" Value="B3" Duration="2" Instrument="electroman lead"
				Note Time="46" Value="G#3" Duration="2" Instrument="electroman lead"
				Note Time="48" Value="A#3" Duration="4" Instrument="electroman lead"
				Note Time="52" Value="B3" Duration="2" Instrument="electroman lead"
				Note Time="54" Value="A#3" Duration="2" Instrument="electroman lead"
				Note Time="56" Value="B3" Duration="2" Instrument="electroman lead"
				Note Time="60" Value="A#3" Duration="4" Instrument="electroman lead"
			Pattern Name="0A" Color="62e2d6"
				Note Time="0" Value="G#3" Duration="6" Instrument="electroman lead"
				Note Time="8" Value="A#3" Duration="4" Instrument="electroman lead"
				Note Time="12" Value="B3" Duration="4" Instrument="electroman lead"
				Note Time="16" Value="B3" Duration="4" Instrument="electroman lead"
				Note Time="20" Value="A#3" Duration="4" Instrument="electroman lead"
				Note Time="24" Value="G#3" Duration="4" Instrument="electroman lead"
				Note Time="28" Value="E3" Duration="8" Instrument="electroman lead"
				Note Time="40" Value="A#3" Duration="4" Instrument="electroman lead"
				Note Time="44" Value="B3" Duration="4" Instrument="electroman lead"
				Note Time="48" Value="B3" Duration="4" Instrument="electroman lead"
				Note Time="52" Value="A#3" Duration="4" Instrument="electroman lead"
				Note Time="56" Value="G#3" Duration="4" Instrument="electroman lead"
				Note Time="60" Value="F#3" Duration="8" Instrument="electroman lead"
			Pattern Name="0B" Color="7b8df1"
				Note Time="8" Value="A#3" Duration="4" Instrument="electroman lead"
				Note Time="12" Value="B3" Duration="4" Instrument="electroman lead"
				Note Time="16" Value="B3" Duration="4" Instrument="electroman lead"
				Note Time="20" Value="A#3" Duration="4" Instrument="electroman lead"
				Note Time="24" Value="G#3" Duration="4" Instrument="electroman lead"
				Note Time="28" Value="C#4" Duration="8" Instrument="electroman lead"
				Note Time="36" Value="B3" Duration="4" Instrument="electroman lead"
				Note Time="40" Value="A#3" Duration="4" Instrument="electroman lead"
				Note Time="44" Value="B3" Duration="8" Instrument="electroman lead"
				Note Time="52" Value="A#3" Duration="4" Instrument="electroman lead"
				Note Time="56" Value="F#3" Duration="4" Instrument="electroman lead"
				Note Time="60" Value="G#3" Duration="8" Instrument="electroman lead"
			Pattern Name="0C" Color="ff7571"
				Note Time="8" Value="A#3" Duration="4" Instrument="electroman lead"
				Note Time="12" Value="B3" Duration="4" Instrument="electroman lead"
				Note Time="16" Value="B3" Duration="4" Instrument="electroman lead"
				Note Time="20" Value="A#3" Duration="4" Instrument="electroman lead"
				Note Time="24" Value="G#3" Duration="4" Instrument="electroman lead"
				Note Time="28" Value="E3" Duration="8" Instrument="electroman lead"
				Note Time="40" Value="A#3" Duration="4" Instrument="electroman lead"
				Note Time="44" Value="B3" Duration="4" Instrument="electroman lead"
				Note Time="48" Value="B3" Duration="4" Instrument="electroman lead"
				Note Time="52" Value="A#3" Duration="4" Instrument="electroman lead"
				Note Time="56" Value="G#3" Duration="4" Instrument="electroman lead"
				Note Time="60" Value="F#3" Duration="8" Instrument="electroman lead"
			Pattern Name="0D" Color="ffef3c"
				Note Time="8" Value="A#3" Duration="4" Instrument="electroman lead"
				Note Time="12" Value="B3" Duration="4" Instrument="electroman lead"
				Note Time="16" Value="B3" Duration="4" Instrument="electroman lead"
				Note Time="20" Value="A#3" Duration="4" Instrument="electroman lead"
				Note Time="24" Value="G#3" Duration="4" Instrument="electroman lead"
				Note Time="28" Value="C#4" Duration="8" Instrument="electroman lead"
				Note Time="36" Value="B3" Duration="4" Instrument="electroman lead"
				Note Time="40" Value="A#3" Duration="4" Instrument="electroman lead"
				Note Time="44" Value="B3" Duration="8" Instrument="electroman lead"
				Note Time="52" Value="A#3" Duration="4" Instrument="electroman lead"
				Note Time="56" Value="F#3" Duration="8" Instrument="electroman lead"
			Pattern Name="0E" Color="74ca78"
				Note Time="0" Value="G#3" Duration="4" Instrument="sample" Volume="15" DutyCycle="1"
				Note Time="4" Value="D#4" Duration="2" Instrument="echo"
				Note Time="8" Value="A#3" Duration="4" Instrument="sample"
				Note Time="12" Value="D#4" Duration="2" Instrument="echo"
				Note Time="16" Value="B3" Duration="4" Instrument="sample"
				Note Time="20" Value="D#4" Duration="2" Instrument="echo"
				Note Time="24" Value="G#3" Duration="4" Instrument="sample"
				Note Time="28" Value="E3" Duration="8" Instrument="sample"
				Note Time="36" Value="B3" Duration="2" Instrument="echo"
				Note Time="40" Value="E4" Duration="2" Instrument="echo"
				Note Time="44" Value="B3" Duration="2" Instrument="echo"
				Note Time="52" Value="B3" Duration="2" Instrument="echo"
				Note Time="56" Value="E4" Duration="2" Instrument="echo"
				Note Time="60" Value="B3" Duration="2" Instrument="echo"
			Pattern Name="0F" Color="51a1fc"
				Note Time="0" Value="B4" Duration="4" Instrument="sample"
				Note Time="4" Value="F#4" Duration="2" Instrument="echo"
				Note Time="8" Value="A#4" Duration="4" Instrument="sample"
				Note Time="12" Value="F#4" Duration="2" Instrument="echo"
				Note Time="16" Value="C#5" Duration="4" Instrument="sample"
				Note Time="20" Value="F#4" Duration="2" Instrument="echo"
				Note Time="24" Value="B4" Duration="4" Instrument="sample"
				Note Time="28" Value="F#4" Duration="2" Instrument="echo"
				Note Time="32" Value="F#3" Duration="4" Instrument="sample"
				Note Time="36" Value="C#4" Duration="2" Instrument="echo"
				Note Time="40" Value="F#4" Duration="4" Instrument="sample"
				Note Time="44" Value="C#4" Duration="2" Instrument="echo"
				Note Time="48" Value="G#3" Duration="4" Instrument="sample"
				Note Time="52" Value="C#4" Duration="2" Instrument="echo"
				Note Time="56" Value="F#4" Duration="4" Instrument="sample"
				Note Time="60" Value="D#4" Duration="2" Instrument="echo"
			Pattern Name="10" Color="ff9ece"
				Note Time="0" Value="B3" Duration="4" Instrument="sample"
				Note Time="4" Value="F#4" Duration="2" Instrument="echo"
				Note Time="8" Value="A#4" Duration="4" Instrument="sample"
				Note Time="12" Value="F#4" Duration="2" Instrument="echo"
				Note Time="16" Value="D#5" Duration="4" Instrument="sample"
				Note Time="20" Value="F#4" Duration="2" Instrument="echo"
				Note Time="24" Value="B4" Duration="4" Instrument="sample"
				Note Time="28" Value="F#4" Duration="2" Instrument="echo"
				Note Time="32" Value="B4" Duration="8" Release="3" Instrument="sample" Arpeggio="Arp 55"
				Note Time="40" Value="B4" Duration="8" Release="3" Instrument="sample" Arpeggio="Arp 44"
				Note Time="48" Value="F#4" Duration="8" Release="3" Instrument="sample" Arpeggio="Arp 55"
				Note Time="56" Value="F#2" Duration="4" Instrument="hex guitar 1" Volume="10" DutyCycle="3"
				Note Time="60" Value="F#2" Duration="4" Instrument="hex guitar 1" SlideTarget="F#2" Attack="False"
			Pattern Name="11" Color="fff389"
				Note Time="0" Value="G#2" Duration="4" Instrument="hex guitar 1"
				Note Time="4" Value="B2" Duration="2" Instrument="hex guitar 1"
				Note Time="8" Value="A#2" Duration="4" Instrument="hex guitar 1"
				Note Time="12" Value="A#2" Duration="2" Instrument="hex guitar 1"
				Note Time="16" Value="B2" Duration="4" Instrument="hex guitar 1"
				Note Time="20" Value="G#2" Duration="2" Instrument="hex guitar 1"
				Note Time="24" Value="G#2" Duration="4" Instrument="hex guitar 1"
				Note Time="28" Value="D3" Duration="3" Instrument="hex guitar 1" SlideTarget="D#3"
				Note Time="31" Value="D#3" Duration="5" Instrument="hex guitar 1" Attack="False"
				Note Time="36" Value="D#3" Duration="4" Instrument="hex guitar 1" SlideTarget="D#3" Attack="False"
				Note Time="40" Value="B2" Duration="4" Instrument="hex guitar 1"
				Note Time="44" Value="C#3" Duration="4" Instrument="hex guitar 1"
				Note Time="48" Value="D#3" Duration="4" Instrument="hex guitar 1"
				Note Time="52" Value="B2" Duration="4" Instrument="hex guitar 1"
				Note Time="56" Value="C#3" Duration="4" Instrument="hex guitar 1"
				Note Time="60" Value="B2" Duration="4" Instrument="hex guitar 1"
			Pattern Name="12" Color="d8ffa1"
				Note Time="0" Value="G#3" Duration="4" Instrument="hex guitar 1"
				Note Time="4" Value="D#3" Duration="4" Instrument="hex guitar 1"
				Note Time="8" Value="C#3" Duration="4" Instrument="hex guitar 1"
				Note Time="12" Value="G#3" Duration="4" Instrument="hex guitar 1"
				Note Time="16" Value="D#3" Duration="4" Instrument="hex guitar 1"
				Note Time="20" Value="C#3" Duration="4" Instrument="hex guitar 1"
				Note Time="24" Value="D#3" Duration="4" Instrument="hex guitar 1"
				Note Time="28" Value="G3" Duration="2" Instrument="hex guitar 1" SlideTarget="G#3"
				Note Time="30" Value="G#3" Duration="6" Instrument="hex guitar 1" Attack="False"
				Note Time="32" VibratoSpeed="5" VibratoDepth="2"
				Note Time="36" Value="G#3" Duration="4" Instrument="hex guitar 1" SlideTarget="G#3" Attack="False"
				Note Time="40" Value="G#3" Duration="4" Instrument="hex guitar 1" VibratoSpeed="0" VibratoDepth="0"
				Note Time="44" Value="F#3" Duration="4" Instrument="hex guitar 1"
				Note Time="48" Value="B3" Duration="4" Instrument="hex guitar 1"
				Note Time="52" Value="A#3" Duration="4" Instrument="hex guitar 1"
				Note Time="56" Value="G#3" Duration="4" Instrument="hex guitar 1"
				Note Time="60" Value="F#3" Duration="4" Instrument="hex guitar 1"
			Pattern Name="13" Color="3fe5ff"
				Note Time="0" Value="G#3" Duration="4" Instrument="hex guitar 1"
				Note Time="4" Value="G#3" Duration="4" Instrument="hex guitar 1"
				Note Time="8" Value="A#3" Duration="4" Instrument="hex guitar 1"
				Note Time="12" Value="A#3" Duration="4" Instrument="hex guitar 1"
				Note Time="16" Value="A#3" Duration="1" Instrument="hex guitar 1" SlideTarget="B3"
				Note Time="17" Value="B3" Duration="3" Instrument="hex guitar 1" Attack="False"
				Note Time="20" Value="B3" Duration="4" Instrument="hex guitar 1" SlideTarget="B3" Attack="False"
				Note Time="24" Value="G#3" Duration="4" Instrument="hex guitar 1"
				Note Time="28" Value="C#4" Duration="8" Instrument="hex guitar 1"
				Note Time="32" VibratoSpeed="5" VibratoDepth="2"
				Note Time="36" Value="B3" Duration="4" Instrument="hex guitar 1" VibratoSpeed="0" VibratoDepth="0"
				Note Time="40" Value="A#3" Duration="4" Instrument="hex guitar 1"
				Note Time="44" Value="B3" Duration="4" Instrument="hex guitar 1"
				Note Time="48" Value="C#4" Duration="4" Instrument="hex guitar 1"
				Note Time="52" Value="B3" Duration="4" Instrument="hex guitar 1"
				Note Time="56" Value="C#4" Duration="4" Instrument="hex guitar 1"
				Note Time="60" Value="D#4" Duration="4" Instrument="hex guitar 1"
			Pattern Name="14" Color="ca60e6"
				Note Time="0" Value="G#4" Duration="12" Instrument="hex guitar 1"
				Note Time="8" VibratoSpeed="4" VibratoDepth="2"
				Note Time="12" Value="G#4" Duration="1" Instrument="hex guitar 1" SlideTarget="F#4" Attack="False" VibratoSpeed="0" VibratoDepth="0"
				Note Time="13" Value="F#4" Duration="3" Instrument="hex guitar 1" Attack="False"
				Note Time="16" Value="F#4" Duration="1" Instrument="hex guitar 1" SlideTarget="G#4" Attack="False"
				Note Time="17" Value="G#4" Duration="11" Instrument="hex guitar 1" Attack="False"
				Note Time="20" VibratoSpeed="5" VibratoDepth="1"
				Note Time="28" Value="G#4" Duration="1" Instrument="hex guitar 1" SlideTarget="F#4" Attack="False" VibratoSpeed="0" VibratoDepth="0"
				Note Time="29" Value="F#4" Duration="3" Instrument="hex guitar 1" Attack="False"
				Note Time="32" Value="F#4" Duration="1" Instrument="hex guitar 1" SlideTarget="G#4" Attack="False"
				Note Time="33" Value="G#4" Duration="3" Instrument="hex guitar 1" Attack="False"
				Note Time="36" Value="G#4" Duration="1" Instrument="hex guitar 1" SlideTarget="F#4" Attack="False"
				Note Time="37" Value="F#4" Duration="3" Instrument="hex guitar 1" Attack="False"
				Note Time="40" Value="F#4" Duration="1" Instrument="hex guitar 1" SlideTarget="G#4" Attack="False"
				Note Time="41" Value="G#4" Duration="3" Instrument="hex guitar 1" Attack="False"
				Note Time="44" Value="G#4" Duration="1" Instrument="hex guitar 1" SlideTarget="F#4" Attack="False"
				Note Time="45" Value="F#4" Duration="3" Instrument="hex guitar 1" Attack="False"
				Note Time="48" Value="F#4" Duration="1" Instrument="hex guitar 1" SlideTarget="G#4" Attack="False"
				Note Time="49" Value="G#4" Duration="27" Instrument="hex guitar 1" Attack="False"
			Pattern Name="15" Color="ff8d5a"
				Note Time="0" DutyCycle="2"
				Note Time="1" Volume="13"
				Note Time="2" Volume="12"
				Note Time="3" Volume="11"
				Note Time="4" Volume="10"
				Note Time="5" Volume="9"
				Note Time="6" Volume="8"
				Note Time="7" Volume="7"
				Note Time="8" Volume="6"
				Note Time="9" Volume="5"
				Note Time="10" Volume="4"
				Note Time="11" Volume="3"
				Note Time="12" Value="G#3" Duration="4" Instrument="blank" Volume="13"
				Note Time="32" Value="G#3" Duration="4" Instrument="blank"
				Note Time="44" Value="G#3" Duration="4" Instrument="blank"
				Note Time="56" Value="F#3" Duration="4" Instrument="blank"
			Pattern Name="16" Color="ebf067"
				Note Time="0" Value="G#3" Duration="8" Instrument="blank"
				Note Time="4" Volume="9"
				Note Time="5" Volume="6"
				Note Time="6" Volume="3"
				Note Time="7" Volume="0"
			PatternInstance Time="0" Pattern="01"
			PatternInstance Time="1" Pattern="02"
			PatternInstance Time="2" Pattern="03"
			PatternInstance Time="3" Pattern="02"
			PatternInstance Time="4" Pattern="04"
			PatternInstance Time="5" Pattern="05"
			PatternInstance Time="6" Pattern="06"
			PatternInstance Time="7" Pattern="07"
			PatternInstance Time="8" Pattern="08"
			PatternInstance Time="9" Pattern="09"
			PatternInstance Time="10" Pattern="0A"
			PatternInstance Time="11" Pattern="0B"
			PatternInstance Time="12" Pattern="0C"
			PatternInstance Time="13" Pattern="0D"
			PatternInstance Time="14" Pattern="0A"
			PatternInstance Time="15" Pattern="0B"
			PatternInstance Time="16" Pattern="0A"
			PatternInstance Time="17" Pattern="0D"
			PatternInstance Time="18" Pattern="0A"
			PatternInstance Time="19" Pattern="0B"
			PatternInstance Time="20" Pattern="0A"
			PatternInstance Time="21" Pattern="0D"
			PatternInstance Time="22" Pattern="0E"
			PatternInstance Time="23" Pattern="0F"
			PatternInstance Time="24" Pattern="0E"
			PatternInstance Time="25" Pattern="10"
			PatternInstance Time="26" Pattern="11"
			PatternInstance Time="27" Pattern="12"
			PatternInstance Time="28" Pattern="13"
			PatternInstance Time="29" Pattern="14"
			PatternInstance Time="30" Pattern="15"
			PatternInstance Time="31" Pattern="16"
		Channel Type="Square2"
			Pattern Name="01" Color="3cbfcb"
				Note Time="0" Value="G#2" Duration="4" Instrument="DMC: drums + bass" Volume="7" DutyCycle="2"
				Note Time="8" Value="G#2" Duration="4" Instrument="DMC: drums + bass"
				Note Time="16" Value="B2" Duration="4" Instrument="DMC: drums + bass"
				Note Time="24" Value="B2" Duration="4" Instrument="DMC: drums + bass"
				Note Time="28" Value="G#2" Duration="4" Instrument="DMC: drums + bass"
				Note Time="36" Value="G#2" Duration="4" Instrument="DMC: drums + bass"
				Note Time="40" Value="D#2" Duration="4" Instrument="DMC: drums + bass"
				Note Time="48" Value="F#2" Duration="4" Instrument="DMC: drums + bass"
				Note Time="56" Value="F#2" Duration="4" Instrument="DMC: drums + bass"
			Pattern Name="02" Color="d1b1ff"
				Note Time="0" Value="G#2" Duration="4" Instrument="DMC: drums + bass"
				Note Time="8" Value="G#2" Duration="4" Instrument="DMC: drums + bass"
				Note Time="16" Value="B2" Duration="4" Instrument="DMC: drums + bass"
				Note Time="24" Value="B2" Duration="4" Instrument="DMC: drums + bass"
				Note Time="28" Value="G#2" Duration="4" Instrument="DMC: drums + bass"
				Note Time="40" Value="G#2" Duration="4" Instrument="DMC: drums + bass"
				Note Time="48" Value="F#2" Duration="4" Instrument="DMC: drums + bass"
				Note Time="56" Value="G2" Duration="4" Instrument="DMC: drums + bass"
			Pattern Name="03" Color="ddc4bb"
				Note Time="0" Value="G#2" Duration="4" Instrument="DMC: drums + bass"
				Note Time="8" Value="G#2" Duration="4" Instrument="DMC: drums + bass"
				Note Time="16" Value="B2" Duration="4" Instrument="DMC: drums + bass"
				Note Time="24" Value="B2" Duration="4" Instrument="DMC: drums + bass"
				Note Time="28" Value="G#2" Duration="4" Instrument="DMC: drums + bass"
				Note Time="40" Value="D#2" Duration="4" Instrument="DMC: drums + bass"
				Note Time="48" Value="A#2" Duration="4" Instrument="DMC: drums + bass"
				Note Time="56" Value="A#2" Duration="4" Instrument="DMC: drums + bass"
			Pattern Name="04" Color="ffff94"
				Note Time="0" Value="G#2" Duration="4" Instrument="DMC: drums + bass"
				Note Time="8" Value="G#2" Duration="4" Instrument="DMC: drums + bass"
				Note Time="16" Value="B2" Duration="4" Instrument="DMC: drums + bass"
				Note Time="24" Value="B2" Duration="4" Instrument="DMC: drums + bass"
				Note Time="28" Value="G#2" Duration="4" Instrument="DMC: drums + bass"
				Note Time="36" Value="G#2" Duration="4" Instrument="DMC: drums + bass"
				Note Time="40" Value="D#2" Duration="4" Instrument="DMC: drums + bass"
				Note Time="48" Value="F#2" Duration="4" Instrument="DMC: drums + bass"
				Note Time="56" Value="F#2" Duration="4" Instrument="DMC: drums + bass"
			Pattern Name="05" Color="7585e7"
				Note Time="28" Value="G#3" Duration="8" Instrument="electroman lead"
				Note Time="60" Value="D#3" Duration="8" Instrument="electroman lead"
			Pattern Name="06" Color="ff6b6b"
				Note Time="28" Value="F#3" Duration="8" Instrument="electroman lead"
			Pattern Name="08" Color="ffdc3c"
				Note Time="0" Value="D#3" Duration="4" Instrument="blank"
				Note Time="8" Value="D#3" Duration="4" Instrument="blank"
				Note Time="16" Value="D#3" Duration="4" Instrument="blank"
				Note Time="24" Value="D#3" Duration="4" Instrument="blank"
				Note Time="28" Value="G#3" Duration="8" Instrument="electroman lead"
				Note Time="40" Value="E3" Duration="4" Instrument="blank"
				Note Time="48" Value="E3" Duration="4" Instrument="blank"
				Note Time="56" Value="E3" Duration="4" Instrument="blank"
				Note Time="60" Value="D#3" Duration="4" Instrument="electroman lead"
			Pattern Name="09" Color="6ab96e"
				Note Time="0" Value="F#3" Duration="4" Instrument="blank"
				Note Time="8" Value="F#3" Duration="4" Instrument="blank"
				Note Time="16" Value="F#3" Duration="4" Instrument="blank"
				Note Time="24" Value="F#3" Duration="3" Instrument="blank"
				Note Time="28" Value="F#3" Duration="8" Instrument="electroman lead"
				Note Time="40" Value="F#3" Duration="4" Instrument="blank"
				Note Time="48" Value="G#3" Duration="4" Instrument="blank"
				Note Time="56" Value="F#3" Duration="4" Instrument="blank"
			Pattern Name="0A" Color="a0f1ff"
				Note Time="0" Value="D#3" Duration="4" Instrument="blank"
				Note Time="8" Value="D#3" Duration="4" Instrument="blank"
				Note Time="16" Value="D#3" Duration="4" Instrument="blank"
				Note Time="24" Value="D#3" Duration="4" Instrument="blank"
				Note Time="28" Value="E3" Duration="8" Instrument="blank"
				Note Time="40" Value="E3" Duration="4" Instrument="blank"
				Note Time="48" Value="E3" Duration="4" Instrument="blank"
				Note Time="56" Value="E3" Duration="4" Instrument="blank"
			Pattern Name="0B" Color="ff7cb6"
				Note Time="0" Value="B3" Duration="4" Instrument="blank"
				Note Time="8" Value="A#3" Duration="4" Instrument="blank"
				Note Time="16" Value="B3" Duration="4" Instrument="blank"
				Note Time="20" Value="A#3" Duration="4" Instrument="blank"
				Note Time="24" Value="F#3" Duration="4" Instrument="blank"
				Note Time="28" Value="C#4" Duration="8" Instrument="blank"
				Note Time="40" Value="A#3" Duration="4" Instrument="blank"
				Note Time="48" Value="B3" Duration="4" Instrument="blank"
				Note Time="56" Value="A#3" Duration="4" Instrument="blank"
			Pattern Name="0F" Color="ffe362"
				Note Time="0" Value="D#3" Duration="4" Instrument="blank"
				Note Time="4" Value="D#4" Duration="4" Instrument="echo"
				Note Time="8" Value="D#3" Duration="4" Instrument="blank"
				Note Time="12" Value="D#4" Duration="4" Instrument="echo"
				Note Time="16" Value="D#3" Duration="4" Instrument="blank"
				Note Time="20" Value="D#4" Duration="4" Instrument="echo"
				Note Time="24" Value="D#3" Duration="4" Instrument="blank"
				Note Time="28" Value="E3" Duration="8" Instrument="blank"
				Note Time="36" Value="B3" Duration="4" Instrument="echo"
				Note Time="40" Value="E3" Duration="4" Instrument="blank"
				Note Time="44" Value="B3" Duration="4" Instrument="echo"
				Note Time="48" Value="E3" Duration="4" Instrument="blank"
				Note Time="52" Value="B3" Duration="4" Instrument="echo"
				Note Time="56" Value="E3" Duration="4" Instrument="blank"
				Note Time="60" Value="B3" Duration="4" Instrument="echo"
			Pattern Name="10" Color="c7ff86"
				Note Time="0" Value="B3" Duration="4" Instrument="blank"
				Note Time="4" Value="F#4" Duration="4" Instrument="echo"
				Note Time="8" Value="A#3" Duration="4" Instrument="blank"
				Note Time="12" Value="F#4" Duration="4" Instrument="echo"
				Note Time="16" Value="B3" Duration="4" Instrument="blank"
				Note Time="20" Value="A#3" Duration="4" Instrument="blank"
				Note Time="24" Value="F#3" Duration="4" Instrument="blank"
				Note Time="28" Value="C#4" Duration="8" Instrument="blank"
				Note Time="36" Value="F#4" Duration="4" Instrument="echo"
				Note Time="40" Value="A#3" Duration="4" Instrument="blank"
				Note Time="44" Value="F#4" Duration="4" Instrument="echo"
				Note Time="48" Value="B3" Duration="4" Instrument="blank"
				Note Time="52" Value="F#4" Duration="4" Instrument="echo"
				Note Time="56" Value="A#3" Duration="4" Instrument="blank"
				Note Time="60" Value="D#4" Duration="4" Instrument="echo"
			Pattern Name="0C" Color="3fd7ff"
				Note Time="0" Value="B3" Duration="4" Instrument="blank"
				Note Time="8" Value="A#3" Duration="4" Instrument="blank"
				Note Time="16" Value="B3" Duration="4" Instrument="blank"
				Note Time="20" Value="A#3" Duration="4" Instrument="blank"
				Note Time="24" Value="F#3" Duration="4" Instrument="blank"
				Note Time="28" Value="C#4" Duration="8" Instrument="blank"
				Note Time="40" Value="A#3" Duration="4" Instrument="blank"
				Note Time="48" Value="B3" Duration="4" Instrument="blank"
				Note Time="56" Value="A#3" Duration="4" Instrument="blank"
			Pattern Name="0E" Color="b75bde"
				Note Time="0" Value="D#3" Duration="8" Instrument="blank"
				Note Time="4" Volume="9"
				Note Time="5" Volume="6"
				Note Time="6" Volume="3"
				Note Time="7" Volume="0"
			PatternInstance Time="0" Pattern="01"
			PatternInstance Time="1" Pattern="02"
			PatternInstance Time="2" Pattern="03"
			PatternInstance Time="3" Pattern="02"
			PatternInstance Time="4" Pattern="01"
			PatternInstance Time="5" Pattern="02"
			PatternInstance Time="6" Pattern="04"
			PatternInstance Time="7" Pattern="02"
			PatternInstance Time="10" Pattern="05"
			PatternInstance Time="11" Pattern="06"
			PatternInstance Time="12" Pattern="05"
			PatternInstance Time="13" Pattern="06"
			PatternInstance Time="14" Pattern="08"
			PatternInstance Time="15" Pattern="09"
			PatternInstance Time="16" Pattern="08"
			PatternInstance Time="17" Pattern="09"
			PatternInstance Time="18" Pattern="08"
			PatternInstance Time="19" Pattern="09"
			PatternInstance Time="20" Pattern="08"
			PatternInstance Time="21" Pattern="09"
			PatternInstance Time="22" Pattern="0A"
			PatternInstance Time="23" Pattern="0B"
			PatternInstance Time="24" Pattern="0A"
			PatternInstance Time="25" Pattern="0B"
			PatternInstance Time="26" Pattern="0F"
			PatternInstance Time="27" Pattern="10"
			PatternInstance Time="28" Pattern="0F"
			PatternInstance Time="29" Pattern="0C"
			PatternInstance Time="30" Pattern="10"
			PatternInstance Time="31" Pattern="0E"
		Channel Type="Triangle"
			Pattern Name="01" Color="dad960"
				Note Time="0" Value="D#3" Duration="4" Instrument="DMC: drums + bass"
				Note Time="8" Value="D#3" Duration="4" Instrument="DMC: drums + bass"
				Note Time="16" Value="D#3" Duration="4" Instrument="DMC: drums + bass"
				Note Time="24" Value="D#3" Duration="3" Instrument="DMC: drums + bass"
				Note Time="28" Value="D#3" Duration="4" Instrument="DMC: drums + bass"
				Note Time="40" Value="B2" Duration="4" Instrument="DMC: drums + bass"
				Note Time="48" Value="D#3" Duration="4" Instrument="DMC: drums + bass"
				Note Time="56" Value="D#3" Duration="4" Instrument="DMC: drums + bass"
			Pattern Name="02" Color="89ffff"
				Note Time="0" Value="G#3" Duration="4" Instrument="DMC: drums + bass"
				Note Time="8" Value="G#3" Duration="4" Instrument="DMC: drums + bass"
				Note Time="16" Value="G#3" Duration="4" Instrument="DMC: drums + bass"
				Note Time="24" Value="G#4" Duration="4" Instrument="DMC: drums + bass"
				Note Time="28" Value="B3" Duration="8" Instrument="DMC: drums + bass"
				Note Time="40" Value="B3" Duration="4" Instrument="DMC: drums + bass"
				Note Time="48" Value="B3" Duration="4" Instrument="DMC: drums + bass"
				Note Time="56" Value="B3" Duration="4" Instrument="DMC: drums + bass"
			Pattern Name="03" Color="ba93fe"
				Note Time="0" Value="B4" Duration="4" Instrument="DMC: drums + bass"
				Note Time="8" Value="A#4" Duration="4" Instrument="DMC: drums + bass"
				Note Time="16" Value="B4" Duration="4" Instrument="DMC: drums + bass"
				Note Time="20" Value="A#4" Duration="4" Instrument="DMC: drums + bass"
				Note Time="24" Value="F#4" Duration="3" Instrument="DMC: drums + bass"
				Note Time="28" Value="C#5" Duration="8" Instrument="DMC: drums + bass"
				Note Time="40" Value="A#4" Duration="4" Instrument="DMC: drums + bass"
				Note Time="48" Value="B4" Duration="4" Instrument="DMC: drums + bass"
				Note Time="56" Value="A#4" Duration="4" Instrument="DMC: drums + bass"
			Pattern Name="04" Color="c9aa9f"
				Note Time="0" Value="B3" Duration="4" Instrument="blank"
				Note Time="8" Value="A#3" Duration="4" Instrument="blank"
				Note Time="16" Value="B3" Duration="4" Instrument="blank"
				Note Time="20" Value="A#3" Duration="4" Instrument="blank"
				Note Time="24" Value="F#3" Duration="4" Instrument="blank"
				Note Time="28" Value="C#4" Duration="8" Instrument="blank"
				Note Time="40" Value="A#3" Duration="4" Instrument="blank"
				Note Time="48" Value="B3" Duration="4" Instrument="blank"
				Note Time="56" Value="A#3" Duration="4" Instrument="blank"
			Pattern Name="05" Color="ffff77"
				Note Time="0" Value="B3" Duration="4" Instrument="blank"
				Note Time="8" Value="A#3" Duration="4" Instrument="blank"
				Note Time="16" Value="B3" Duration="4" Instrument="blank"
				Note Time="20" Value="A#3" Duration="4" Instrument="blank"
				Note Time="24" Value="F#3" Duration="4" Instrument="blank"
				Note Time="28" Value="C#4" Duration="8" Instrument="blank"
				Note Time="40" Value="F#3" Duration="4" Instrument="blank"
				Note Time="48" Value="G#3" Duration="4" Instrument="blank"
				Note Time="56" Value="F#3" Duration="4" Instrument="blank"
			Pattern Name="07" Color="3cc5b7"
				Note Time="0" Value="G#2" Duration="3" Instrument="blank"
				Note Time="4" Value="G#2" Duration="2" Instrument="blank"
				Note Time="8" Value="G#2" Duration="3" Instrument="blank"
				Note Time="12" Value="G#2" Duration="2" Instrument="blank"
				Note Time="17" Value="G#2" Duration="3" Instrument="blank"
				Note Time="21" Value="G#2" Duration="2" Instrument="blank"
				Note Time="24" Value="G#2" Duration="3" Instrument="blank"
				Note Time="28" Value="G#2" Duration="2" Instrument="blank"
				Note Time="32" Value="G#2" Duration="3" Instrument="blank"
				Note Time="36" Value="G#2" Duration="2" Instrument="blank"
				Note Time="40" Value="G#2" Duration="3" Instrument="blank"
				Note Time="44" Value="G#2" Duration="2" Instrument="blank"
				Note Time="48" Value="G#2" Duration="3" Instrument="blank"
				Note Time="52" Value="G#2" Duration="2" Instrument="blank"
				Note Time="56" Value="G#2" Duration="3" Instrument="blank"
				Note Time="60" Value="G#2" Duration="2" Instrument="blank"
			Pattern Name="08" Color="6c7bdb"
				Note Time="0" Value="G#2" Duration="8" Instrument="blank"
			PatternInstance Time="4" Pattern="01"
			PatternInstance Time="5" Pattern="01"
			PatternInstance Time="6" Pattern="01"
			PatternInstance Time="7" Pattern="01"
			PatternInstance Time="14" Pattern="02"
			PatternInstance Time="15" Pattern="03"
			PatternInstance Time="16" Pattern="02"
			PatternInstance Time="17" Pattern="03"
			PatternInstance Time="18" Pattern="02"
			PatternInstance Time="19" Pattern="03"
			PatternInstance Time="20" Pattern="02"
			PatternInstance Time="21" Pattern="03"
			PatternInstance Time="22" Pattern="02"
			PatternInstance Time="23" Pattern="04"
			PatternInstance Time="24" Pattern="02"
			PatternInstance Time="25" Pattern="05"
			PatternInstance Time="26" Pattern="02"
			PatternInstance Time="27" Pattern="05"
			PatternInstance Time="28" Pattern="02"
			PatternInstance Time="29" Pattern="05"
			PatternInstance Time="30" Pattern="07"
			PatternInstance Time="31" Pattern="08"
		Channel Type="Noise"
			Pattern Name="01" Color="ff6464"
				Note Time="0" Value="G2" Duration="4" Instrument="kick"
				Note Time="4" Value="G#3" Duration="4" Instrument="rel hats"
				Note Time="8" Value="E3" Duration="4" Instrument="hat"
				Note Time="12" Value="G#3" Duration="4" Instrument="rel hats"
				Note Time="16" Value="G2" Duration="4" Instrument="kick"
				Note Time="20" Value="G#3" Duration="4" Instrument="rel hats"
				Note Time="24" Value="E3" Duration="4" Instrument="hat"
				Note Time="28" Value="G#3" Duration="4" Instrument="rel hats"
				Note Time="32" Value="G2" Duration="4" Instrument="kick"
				Note Time="36" Value="G#3" Duration="4" Instrument="rel hats"
				Note Time="40" Value="E3" Duration="4" Instrument="hat"
				Note Time="44" Value="G#3" Duration="4" Instrument="rel hats"
				Note Time="48" Value="G2" Duration="4" Instrument="kick"
				Note Time="52" Value="G#3" Duration="4" Instrument="rel hats"
				Note Time="56" Value="E3" Duration="4" Instrument="hat"
				Note Time="60" Value="G#3" Duration="4" Instrument="rel hats"
			Pattern Name="03" Color="ffcb3c"
				Note Time="0" Value="G2" Duration="4" Instrument="kick"
				Note Time="4" Value="G#3" Duration="4" Instrument="rel hats"
				Note Time="8" Value="E3" Duration="4" Instrument="hat"
				Note Time="12" Value="G#3" Duration="4" Instrument="rel hats"
				Note Time="16" Value="E3" Duration="4" Instrument="hat"
				Note Time="20" Value="G#3" Duration="4" Instrument="rel hats"
				Note Time="24" Value="E3" Duration="4" Instrument="hat"
				Note Time="28" Value="G#3" Duration="4" Instrument="rel hats"
				Note Time="32" Value="G3" Duration="8" Instrument="cymbal"
				Note Time="40" Value="G2" Duration="4" Instrument="snare" Volume="12"
				Note Time="44" Value="G#3" Duration="4" Instrument="hat"
				Note Time="48" Value="G#3" Duration="4" Instrument="hat"
				Note Time="52" Value="G#3" Duration="4" Instrument="hat"
				Note Time="56" Value="G2" Duration="4" Instrument="snare"
				Note Time="60" Value="G#3" Duration="4" Instrument="hat"
			Pattern Name="02" Color="bdffc0"
				Note Time="0" Value="G2" Duration="4" Instrument="kick" Volume="15"
				Note Time="4" Value="G#3" Duration="4" Instrument="rel hats"
				Note Time="8" Value="F#3" Duration="4" Instrument="snare"
				Note Time="12" Value="G#3" Duration="4" Instrument="rel hats"
				Note Time="16" Value="G2" Duration="4" Instrument="kick"
				Note Time="20" Value="G#3" Duration="4" Instrument="rel hats"
				Note Time="24" Value="F#3" Duration="4" Instrument="snare"
				Note Time="28" Value="G#3" Duration="4" Instrument="rel hats"
				Note Time="32" Value="G2" Duration="4" Instrument="kick"
				Note Time="36" Value="G#3" Duration="4" Instrument="rel hats"
				Note Time="40" Value="F#3" Duration="4" Instrument="snare"
				Note Time="44" Value="G#3" Duration="4" Instrument="rel hats"
				Note Time="48" Value="G2" Duration="4" Instrument="kick"
				Note Time="52" Value="G#3" Duration="4" Instrument="rel hats"
				Note Time="56" Value="F#3" Duration="4" Instrument="snare"
				Note Time="60" Value="G#3" Duration="4" Instrument="rel hats"
			Pattern Name="04" Color="7ee1ff"
				Note Time="0" Value="G2" Duration="4" Instrument="kick"
				Note Time="4" Value="G#3" Duration="4" Instrument="rel hats"
				Note Time="8" Value="F#3" Duration="4" Instrument="snare"
				Note Time="12" Value="G#3" Duration="4" Instrument="rel hats"
				Note Time="16" Value="G2" Duration="4" Instrument="kick"
				Note Time="20" Value="G#3" Duration="4" Instrument="rel hats"
				Note Time="24" Value="F#3" Duration="4" Instrument="snare"
				Note Time="28" Value="G#3" Duration="4" Instrument="rel hats"
				Note Time="32" Value="C3" Duration="8" Instrument="cymbal"
				Note Time="40" Value="F3" Duration="4" Instrument="hat"
				Note Time="44" Value="F3" Duration="4" Instrument="hat"
				Note Time="48" Value="F3" Duration="4" Instrument="hat"
				Note Time="52" Value="F3" Duration="4" Instrument="hat"
				Note Time="56" Value="F3" Duration="4" Instrument="hat"
				Note Time="60" Value="F3" Duration="4" Instrument="hat"
			Pattern Name="05" Color="ff5a9f"
				Note Time="0" Value="F#3" Duration="8" Instrument="blank"
				Note Time="1" Volume="7"
				Note Time="2" Volume="6"
				Note Time="3" Volume="5"
				Note Time="4" Volume="4"
				Note Time="5" Volume="3"
				Note Time="6" Volume="2"
				Note Time="7" Volume="1"
				Note Time="8" Value="A#3" Duration="4" Instrument="hat" Volume="15"
				Note Time="12" Value="G3" Duration="4" Instrument="cymbal"
				Note Time="16" Value="B2" Duration="8" Instrument="kick"
				Note Time="24" Value="A#3" Duration="8" Instrument="hat"
				Note Time="32" Value="G3" Duration="8" Instrument="cymbal"
				Note Time="40" Value="A#3" Duration="4" Instrument="hat"
				Note Time="44" Value="G3" Duration="4" Instrument="cymbal"
				Note Time="48" Value="B2" Duration="32" Instrument="kick"
			PatternInstance Time="0" Pattern="01"
			PatternInstance Time="1" Pattern="01"
			PatternInstance Time="2" Pattern="01"
			PatternInstance Time="3" Pattern="01"
			PatternInstance Time="4" Pattern="01"
			PatternInstance Time="5" Pattern="01"
			PatternInstance Time="6" Pattern="01"
			PatternInstance Time="7" Pattern="01"
			PatternInstance Time="8" Pattern="01"
			PatternInstance Time="9" Pattern="01"
			PatternInstance Time="10" Pattern="01"
			PatternInstance Time="11" Pattern="01"
			PatternInstance Time="12" Pattern="01"
			PatternInstance Time="13" Pattern="03"
			PatternInstance Time="14" Pattern="02"
			PatternInstance Time="15" Pattern="02"
			PatternInstance Time="16" Pattern="02"
			PatternInstance Time="17" Pattern="02"
			PatternInstance Time="18" Pattern="02"
			PatternInstance Time="19" Pattern="02"
			PatternInstance Time="20" Pattern="02"
			PatternInstance Time="21" Pattern="02"
			PatternInstance Time="22" Pattern="02"
			PatternInstance Time="23" Pattern="02"
			PatternInstance Time="24" Pattern="02"
			PatternInstance Time="25" Pattern="02"
			PatternInstance Time="26" Pattern="02"
			PatternInstance Time="27" Pattern="02"
			PatternInstance Time="28" Pattern="02"
			PatternInstance Time="29" Pattern="04"
			PatternInstance Time="30" Pattern="05"
		Channel Type="DPCM"
			Pattern Name="01" Color="b8ef7e"
				Note Time="0" Value="E5" Duration="4" Instrument="DMC: drums + bass"
				Note Time="4" Value="G#3" Duration="2" Instrument="DMC: drums + bass"
				Note Time="8" Value="F5" Duration="4" Instrument="DMC: drums + bass"
				Note Time="12" Value="G#3" Duration="2" Instrument="DMC: drums + bass"
				Note Time="16" Value="E5" Duration="4" Instrument="DMC: drums + bass"
				Note Time="20" Value="B3" Duration="2" Instrument="DMC: drums + bass"
				Note Time="24" Value="F5" Duration="4" Instrument="DMC: drums + bass"
				Note Time="28" Value="G#3" Duration="2" Instrument="DMC: drums + bass"
				Note Time="32" Value="E5" Duration="4" Instrument="DMC: drums + bass"
				Note Time="36" Value="G#3" Duration="2" Instrument="DMC: drums + bass"
				Note Time="40" Value="F5" Duration="4" Instrument="DMC: drums + bass"
				Note Time="44" Value="D#3" Duration="2" Instrument="DMC: drums + bass"
				Note Time="48" Value="E5" Duration="4" Instrument="DMC: drums + bass"
				Note Time="52" Value="F#3" Duration="2" Instrument="DMC: drums + bass"
				Note Time="56" Value="F5" Duration="4" Instrument="DMC: drums + bass"
				Note Time="60" Value="F#3" Duration="2" Instrument="DMC: drums + bass"
			Pattern Name="02" Color="3ec4ff"
				Note Time="0" Value="E5" Duration="4" Instrument="DMC: drums + bass"
				Note Time="4" Value="G#3" Duration="2" Instrument="DMC: drums + bass"
				Note Time="8" Value="F5" Duration="4" Instrument="DMC: drums + bass"
				Note Time="12" Value="G#3" Duration="2" Instrument="DMC: drums + bass"
				Note Time="16" Value="E5" Duration="4" Instrument="DMC: drums + bass"
				Note Time="20" Value="B3" Duration="2" Instrument="DMC: drums + bass"
				Note Time="24" Value="F5" Duration="4" Instrument="DMC: drums + bass"
				Note Time="28" Value="G#3" Duration="2" Instrument="DMC: drums + bass"
				Note Time="32" Value="E5" Duration="4" Instrument="DMC: drums + bass"
				Note Time="36" Value="G#3" Duration="2" Instrument="DMC: drums + bass"
				Note Time="40" Value="F5" Duration="4" Instrument="DMC: drums + bass"
				Note Time="44" Value="D#3" Duration="2" Instrument="DMC: drums + bass"
				Note Time="48" Value="E5" Duration="4" Instrument="DMC: drums + bass"
				Note Time="52" Value="F#3" Duration="2" Instrument="DMC: drums + bass"
				Note Time="56" Value="F5" Duration="4" Instrument="DMC: drums + bass"
				Note Time="60" Value="G3" Duration="2" Instrument="DMC: drums + bass"
			Pattern Name="03" Color="a657d6"
				Note Time="0" Value="E5" Duration="4" Instrument="DMC: drums + bass"
				Note Time="4" Value="G#3" Duration="2" Instrument="DMC: drums + bass"
				Note Time="5" CutDelay="1"
				Note Time="6" Value="G#3" Duration="2" Instrument="DMC: drums + bass"
				Note Time="7" CutDelay="1"
				Note Time="8" Value="F5" Duration="4" Instrument="DMC: drums + bass"
				Note Time="12" Value="G#3" Duration="2" Instrument="DMC: drums + bass"
				Note Time="13" CutDelay="1"
				Note Time="14" Value="G#3" Duration="2" Instrument="DMC: drums + bass"
				Note Time="15" CutDelay="1"
				Note Time="16" Value="E5" Duration="4" Instrument="DMC: drums + bass"
				Note Time="20" Value="G#3" Duration="2" Instrument="DMC: drums + bass"
				Note Time="21" CutDelay="1"
				Note Time="22" Value="G#3" Duration="2" Instrument="DMC: drums + bass"
				Note Time="23" CutDelay="1"
				Note Time="24" Value="F5" Duration="4" Instrument="DMC: drums + bass"
				Note Time="28" Value="G#3" Duration="2" Instrument="DMC: drums + bass"
				Note Time="29" CutDelay="1"
				Note Time="30" Value="G#3" Duration="2" Instrument="DMC: drums + bass"
				Note Time="31" CutDelay="1"
				Note Time="32" Value="E5" Duration="4" Instrument="DMC: drums + bass"
				Note Time="36" Value="B3" Duration="2" Instrument="DMC: drums + bass"
				Note Time="37" CutDelay="1"
				Note Time="38" Value="B3" Duration="2" Instrument="DMC: drums + bass"
				Note Time="39" CutDelay="1"
				Note Time="40" Value="F5" Duration="4" Instrument="DMC: drums + bass"
				Note Time="44" Value="B3" Duration="2" Instrument="DMC: drums + bass"
				Note Time="45" CutDelay="1"
				Note Time="46" Value="B3" Duration="2" Instrument="DMC: drums + bass"
				Note Time="47" CutDelay="1"
				Note Time="48" Value="E5" Duration="4" Instrument="DMC: drums + bass"
				Note Time="52" Value="B3" Duration="2" Instrument="DMC: drums + bass"
				Note Time="53" CutDelay="1"
				Note Time="54" Value="B3" Duration="2" Instrument="DMC: drums + bass"
				Note Time="55" CutDelay="1"
				Note Time="56" Value="F5" Duration="4" Instrument="DMC: drums + bass"
				Note Time="60" Value="B3" Duration="2" Instrument="DMC: drums + bass"
				Note Time="61" CutDelay="1"
				Note Time="62" Value="B3" Duration="2" Instrument="DMC: drums + bass"
				Note Time="63" CutDelay="1"
			Pattern Name="04" Color="ff7f51"
				Note Time="0" Value="E5" Duration="4" Instrument="DMC: drums + bass"
				Note Time="4" Value="C#4" Duration="2" Instrument="DMC: drums + bass"
				Note Time="5" CutDelay="1"
				Note Time="6" Value="C#4" Duration="2" Instrument="DMC: drums + bass"
				Note Time="7" CutDelay="1"
				Note Time="8" Value="F5" Duration="4" Instrument="DMC: drums + bass"
				Note Time="12" Value="C#4" Duration="2" Instrument="DMC: drums + bass"
				Note Time="13" CutDelay="1"
				Note Time="14" Value="C#4" Duration="2" Instrument="DMC: drums + bass"
				Note Time="15" CutDelay="1"
				Note Time="16" Value="E5" Duration="4" Instrument="DMC: drums + bass"
				Note Time="20" Value="C#4" Duration="2" Instrument="DMC: drums + bass"
				Note Time="21" CutDelay="1"
				Note Time="22" Value="C#4" Duration="2" Instrument="DMC: drums + bass"
				Note Time="23" CutDelay="1"
				Note Time="24" Value="F5" Duration="4" Instrument="DMC: drums + bass"
				Note Time="28" Value="C#4" Duration="2" Instrument="DMC: drums + bass"
				Note Time="29" CutDelay="1"
				Note Time="30" Value="C#4" Duration="2" Instrument="DMC: drums + bass"
				Note Time="31" CutDelay="1"
				Note Time="32" Value="E5" Duration="4" Instrument="DMC: drums + bass"
				Note Time="36" Value="D#4" Duration="2" Instrument="DMC: drums + bass"
				Note Time="37" CutDelay="1"
				Note Time="38" Value="D#4" Duration="2" Instrument="DMC: drums + bass"
				Note Time="39" CutDelay="1"
				Note Time="40" Value="F5" Duration="4" Instrument="DMC: drums + bass"
				Note Time="44" Value="D#4" Duration="2" Instrument="DMC: drums + bass"
				Note Time="45" CutDelay="1"
				Note Time="46" Value="D#4" Duration="2" Instrument="DMC: drums + bass"
				Note Time="47" CutDelay="1"
				Note Time="48" Value="E5" Duration="4" Instrument="DMC: drums + bass"
				Note Time="52" Value="D#4" Duration="2" Instrument="DMC: drums + bass"
				Note Time="53" CutDelay="1"
				Note Time="54" Value="D#4" Duration="2" Instrument="DMC: drums + bass"
				Note Time="55" CutDelay="1"
				Note Time="56" Value="F5" Duration="4" Instrument="DMC: drums + bass"
				Note Time="60" Value="D#4" Duration="2" Instrument="DMC: drums + bass"
				Note Time="61" CutDelay="1"
				Note Time="62" Value="D#4" Duration="2" Instrument="DMC: drums + bass"
				Note Time="63" CutDelay="1"
			Pattern Name="05" Color="ffffb1"
				Note Time="0" Value="E5" Duration="4" Instrument="DMC: drums + bass"
				Note Time="4" Value="G#3" Duration="2" Instrument="DMC: drums + bass"
				Note Time="5" CutDelay="1"
				Note Time="6" Value="G#3" Duration="2" Instrument="DMC: drums + bass"
				Note Time="7" CutDelay="1"
				Note Time="8" Value="F5" Duration="4" Instrument="DMC: drums + bass"
				Note Time="12" Value="G#3" Duration="2" Instrument="DMC: drums + bass"
				Note Time="13" CutDelay="1"
				Note Time="14" Value="G#3" Duration="2" Instrument="DMC: drums + bass"
				Note Time="15" CutDelay="1"
				Note Time="16" Value="E5" Duration="4" Instrument="DMC: drums + bass"
				Note Time="20" Value="G#3" Duration="2" Instrument="DMC: drums + bass"
				Note Time="21" CutDelay="1"
				Note Time="22" Value="G#3" Duration="2" Instrument="DMC: drums + bass"
				Note Time="23" CutDelay="1"
				Note Time="24" Value="F5" Duration="4" Instrument="DMC: drums + bass"
				Note Time="28" Value="G#3" Duration="2" Instrument="DMC: drums + bass"
				Note Time="29" CutDelay="1"
				Note Time="30" Value="G#3" Duration="2" Instrument="DMC: drums + bass"
				Note Time="31" CutDelay="1"
				Note Time="32" Value="E5" Duration="4" Instrument="DMC: drums + bass"
				Note Time="36" Value="E4" Duration="2" Instrument="DMC: drums + bass"
				Note Time="37" CutDelay="1"
				Note Time="38" Value="E4" Duration="2" Instrument="DMC: drums + bass"
				Note Time="39" CutDelay="1"
				Note Time="40" Value="F5" Duration="4" Instrument="DMC: drums + bass"
				Note Time="44" Value="E4" Duration="2" Instrument="DMC: drums + bass"
				Note Time="45" CutDelay="1"
				Note Time="46" Value="E4" Duration="2" Instrument="DMC: drums + bass"
				Note Time="47" CutDelay="1"
				Note Time="48" Value="E5" Duration="4" Instrument="DMC: drums + bass"
				Note Time="52" Value="E4" Duration="2" Instrument="DMC: drums + bass"
				Note Time="53" CutDelay="1"
				Note Time="54" Value="E4" Duration="2" Instrument="DMC: drums + bass"
				Note Time="55" CutDelay="1"
				Note Time="56" Value="F5" Duration="4" Instrument="DMC: drums + bass"
				Note Time="60" Value="E4" Duration="2" Instrument="DMC: drums + bass"
				Note Time="61" CutDelay="1"
				Note Time="62" Value="E4" Duration="2" Instrument="DMC: drums + bass"
				Note Time="63" CutDelay="1"
			Pattern Name="06" Color="62ffff"
				Note Time="0" Value="E5" Duration="4" Instrument="DMC: drums + bass"
				Note Time="4" Value="B3" Duration="2" Instrument="DMC: drums + bass"
				Note Time="5" CutDelay="1"
				Note Time="6" Value="B3" Duration="2" Instrument="DMC: drums + bass"
				Note Time="7" CutDelay="1"
				Note Time="8" Value="F5" Duration="4" Instrument="DMC: drums + bass"
				Note Time="12" Value="B3" Duration="2" Instrument="DMC: drums + bass"
				Note Time="13" CutDelay="1"
				Note Time="14" Value="B3" Duration="2" Instrument="DMC: drums + bass"
				Note Time="15" CutDelay="1"
				Note Time="16" Value="E5" Duration="4" Instrument="DMC: drums + bass"
				Note Time="20" Value="B3" Duration="2" Instrument="DMC: drums + bass"
				Note Time="21" CutDelay="1"
				Note Time="22" Value="B3" Duration="2" Instrument="DMC: drums + bass"
				Note Time="23" CutDelay="1"
				Note Time="24" Value="F5" Duration="4" Instrument="DMC: drums + bass"
				Note Time="28" Value="B3" Duration="2" Instrument="DMC: drums + bass"
				Note Time="29" CutDelay="1"
				Note Time="30" Value="B3" Duration="2" Instrument="DMC: drums + bass"
				Note Time="31" CutDelay="1"
				Note Time="32" Value="E5" Duration="4" Instrument="DMC: drums + bass"
				Note Time="36" Value="F#4" Duration="2" Instrument="DMC: drums + bass"
				Note Time="37" CutDelay="1"
				Note Time="38" Value="F#4" Duration="2" Instrument="DMC: drums + bass"
				Note Time="39" CutDelay="1"
				Note Time="40" Value="F5" Duration="4" Instrument="DMC: drums + bass"
				Note Time="44" Value="F#4" Duration="2" Instrument="DMC: drums + bass"
				Note Time="45" CutDelay="1"
				Note Time="46" Value="F#4" Duration="2" Instrument="DMC: drums + bass"
				Note Time="47" CutDelay="1"
				Note Time="48" Value="E5" Duration="4" Instrument="DMC: drums + bass"
				Note Time="52" Value="C#4" Duration="2" Instrument="DMC: drums + bass"
				Note Time="53" CutDelay="1"
				Note Time="54" Value="C#4" Duration="2" Instrument="DMC: drums + bass"
				Note Time="55" CutDelay="1"
				Note Time="56" Value="F5" Duration="4" Instrument="DMC: drums + bass"
				Note Time="60" Value="C#4" Duration="2" Instrument="DMC: drums + bass"
				Note Time="61" CutDelay="1"
				Note Time="62" Value="C#4" Duration="2" Instrument="DMC: drums + bass"
				Note Time="63" CutDelay="1"
			Pattern Name="09" Color="a376f3"
				Note Time="0" Value="E5" Duration="4" Instrument="DMC: drums + bass"
				Note Time="4" Value="B3" Duration="2" Instrument="DMC: drums + bass"
				Note Time="5" CutDelay="1"
				Note Time="6" Value="B3" Duration="2" Instrument="DMC: drums + bass"
				Note Time="7" CutDelay="1"
				Note Time="8" Value="F5" Duration="4" Instrument="DMC: drums + bass"
				Note Time="12" Value="B3" Duration="2" Instrument="DMC: drums + bass"
				Note Time="13" CutDelay="1"
				Note Time="14" Value="B3" Duration="2" Instrument="DMC: drums + bass"
				Note Time="15" CutDelay="1"
				Note Time="16" Value="E5" Duration="4" Instrument="DMC: drums + bass"
				Note Time="20" Value="B3" Duration="2" Instrument="DMC: drums + bass"
				Note Time="21" CutDelay="1"
				Note Time="22" Value="B3" Duration="2" Instrument="DMC: drums + bass"
				Note Time="23" CutDelay="1"
				Note Time="24" Value="F5" Duration="4" Instrument="DMC: drums + bass"
				Note Time="28" Value="B3" Duration="2" Instrument="DMC: drums + bass"
				Note Time="29" CutDelay="1"
				Note Time="30" Value="B3" Duration="2" Instrument="DMC: drums + bass"
				Note Time="31" CutDelay="1"
				Note Time="32" Value="E5" Duration="4" Instrument="DMC: drums + bass"
				Note Time="36" Value="F#4" Duration="2" Instrument="DMC: drums + bass"
				Note Time="37" CutDelay="1"
				Note Time="38" Value="F#4" Duration="6" Instrument="DMC: drums + bass"
				Note Time="39" CutDelay="1"
				Note Time="44" Value="F#4" Duration="2" Instrument="DMC: drums + bass"
				Note Time="45" CutDelay="1"
				Note Time="46" Value="F#4" Duration="6" Instrument="DMC: drums + bass"
				Note Time="47" CutDelay="1"
				Note Time="52" Value="C#4" Duration="2" Instrument="DMC: drums + bass"
				Note Time="53" CutDelay="1"
				Note Time="54" Value="C#4" Duration="6" Instrument="DMC: drums + bass"
				Note Time="55" CutDelay="1"
				Note Time="60" Value="C#4" Duration="2" Instrument="DMC: drums + bass"
				Note Time="61" CutDelay="1"
				Note Time="62" Value="C#4" Duration="2" Instrument="DMC: drums + bass"
				Note Time="63" CutDelay="1"
			Pattern Name="08" Color="b59184"
				Note Time="0" Value="E5" Duration="4" Instrument="DMC: drums + bass"
				Note Time="4" Value="B3" Duration="2" Instrument="DMC: drums + bass"
				Note Time="5" CutDelay="1"
				Note Time="6" Value="B3" Duration="2" Instrument="DMC: drums + bass"
				Note Time="7" CutDelay="1"
				Note Time="8" Value="F5" Duration="4" Instrument="DMC: drums + bass"
				Note Time="12" Value="B3" Duration="2" Instrument="DMC: drums + bass"
				Note Time="13" CutDelay="1"
				Note Time="14" Value="B3" Duration="2" Instrument="DMC: drums + bass"
				Note Time="15" CutDelay="1"
				Note Time="16" Value="E5" Duration="4" Instrument="DMC: drums + bass"
				Note Time="20" Value="B3" Duration="2" Instrument="DMC: drums + bass"
				Note Time="21" CutDelay="1"
				Note Time="22" Value="B3" Duration="2" Instrument="DMC: drums + bass"
				Note Time="23" CutDelay="1"
				Note Time="24" Value="F5" Duration="4" Instrument="DMC: drums + bass"
				Note Time="28" Value="B3" Duration="2" Instrument="DMC: drums + bass"
				Note Time="29" CutDelay="1"
				Note Time="30" Value="B3" Duration="2" Instrument="DMC: drums + bass"
				Note Time="31" CutDelay="1"
				Note Time="32" Value="E5" Duration="4" Instrument="DMC: drums + bass"
				Note Time="36" Value="F#4" Duration="2" Instrument="DMC: drums + bass"
				Note Time="37" CutDelay="1"
				Note Time="38" Value="F#4" Duration="6" Instrument="DMC: drums + bass"
				Note Time="39" CutDelay="1"
				Note Time="44" Value="F#4" Duration="2" Instrument="DMC: drums + bass"
				Note Time="45" CutDelay="1"
				Note Time="46" Value="F#4" Duration="6" Instrument="DMC: drums + bass"
				Note Time="47" CutDelay="1"
				Note Time="52" Value="C#4" Duration="2" Instrument="DMC: drums + bass"
				Note Time="53" CutDelay="1"
				Note Time="54" Value="C#4" Duration="6" Instrument="DMC: drums + bass"
				Note Time="55" CutDelay="1"
				Note Time="60" Value="C#4" Duration="2" Instrument="DMC: drums + bass"
				Note Time="61" CutDelay="1"
				Note Time="62" Value="C#4" Duration="2" Instrument="DMC: drums + bass"
				Note Time="63" CutDelay="1"
			Pattern Name="0A" Color="ffff71"
				Note Time="0" Value="G#3" Duration="80" Instrument="DMC: drums + bass"
			PatternInstance Time="0" Pattern="01"
			PatternInstance Time="1" Pattern="02"
			PatternInstance Time="2" Pattern="01"
			PatternInstance Time="3" Pattern="02"
			PatternInstance Time="4" Pattern="01"
			PatternInstance Time="5" Pattern="02"
			PatternInstance Time="6" Pattern="01"
			PatternInstance Time="7" Pattern="02"
			PatternInstance Time="8" Pattern="03"
			PatternInstance Time="9" Pattern="04"
			PatternInstance Time="10" Pattern="05"
			PatternInstance Time="11" Pattern="06"
			PatternInstance Time="12" Pattern="05"
			PatternInstance Time="13" Pattern="09"
			PatternInstance Time="14" Pattern="05"
			PatternInstance Time="15" Pattern="06"
			PatternInstance Time="16" Pattern="05"
			PatternInstance Time="17" Pattern="06"
			PatternInstance Time="18" Pattern="05"
			PatternInstance Time="19" Pattern="06"
			PatternInstance Time="20" Pattern="05"
			PatternInstance Time="21" Pattern="06"
			PatternInstance Time="22" Pattern="05"
			PatternInstance Time="23" Pattern="06"
			PatternInstance Time="24" Pattern="05"
			PatternInstance Time="25" Pattern="06"
			PatternInstance Time="26" Pattern="05"
			PatternInstance Time="27" Pattern="06"
			PatternInstance Time="28" Pattern="05"
			PatternInstance Time="29" Pattern="08"
			PatternInstance Time="30" Pattern="0A"
	Song Name="Clubstep" Color="ffef3c" Folder="Official music used in the game" Length="47" LoopPoint="-1" PatternLength="16" BeatLength="4" FamiTrackerTempo="128" FamiTrackerSpeed="6"
		PatternCustomSettings Time="46" Length="16"
		Channel Type="Square1"
			Pattern Name="01" Color="ffc6a1"
				Note Time="0" Value="E3" Duration="2" Release="1" Instrument="shift string" Volume="10"
				Note Time="2" Value="G3" Duration="2" Release="1" Instrument="shift string"
				Note Time="4" Value="E3" Duration="2" Release="1" Instrument="shift string"
				Note Time="6" Value="E3" Duration="1" Instrument="shift string"
				Note Time="7" Value="E3" Duration="2" Release="1" Instrument="shift string"
				Note Time="9" Value="E3" Duration="2" Release="1" Instrument="shift string"
				Note Time="11" Value="B2" Duration="2" Release="1" Instrument="shift string"
				Note Time="13" Value="E3" Duration="1" Instrument="shift string"
				Note Time="14" Value="C4" Duration="1" Instrument="shift string"
				Note Time="15" Value="A3" Duration="1" Instrument="shift string"
			Pattern Name="02" Color="ffff93"
				Note Time="0" Value="E4" Duration="1" Instrument="shift string"
				Note Time="1" Value="B3" Duration="1" Instrument="shift string"
				Note Time="2" Value="G3" Duration="2" Release="1" Instrument="shift string"
				Note Time="4" Value="E3" Duration="2" Release="1" Instrument="shift string"
				Note Time="6" Value="E3" Duration="1" Instrument="shift string"
				Note Time="7" Value="E3" Duration="2" Release="1" Instrument="shift string"
				Note Time="9" Value="E3" Duration="2" Release="1" Instrument="shift string"
				Note Time="11" Value="B2" Duration="2" Release="1" Instrument="shift string"
				Note Time="13" Value="E3" Duration="1" Instrument="shift string"
				Note Time="14" Value="C4" Duration="1" Instrument="shift string"
				Note Time="15" Value="A3" Duration="1" Instrument="shift string"
			Pattern Name="03" Color="3cf8ff"
				Note Time="0" Value="E3" Duration="2" Release="1" Instrument="shift string" Volume="10"
				Note Time="2" Value="G3" Duration="1" Instrument="shift string" Volume="8"
				Note Time="3" Value="E4" Duration="1" Instrument="sample" Volume="4"
				Note Time="4" Value="E3" Duration="1" Instrument="shift string" Volume="6"
				Note Time="5" Value="G4" Duration="1" Instrument="sample" Volume="4"
				Note Time="6" Value="E3" Duration="1" Instrument="shift string" Volume="4"
				Note Time="7" Value="E4" Duration="2" Instrument="sample" Volume="3"
				Note Time="9" Value="E3" Duration="2" Release="1" Instrument="shift string" Volume="1"
				Note Time="11" Value="B2" Duration="2" Release="1" Instrument="shift string" Volume="3"
				Note Time="13" Value="E3" Duration="1" Instrument="shift string" Volume="5"
				Note Time="14" Value="C4" Duration="1" Instrument="shift string" Volume="3"
				Note Time="15" Value="A3" Duration="1" Instrument="shift string" Volume="2"
			Pattern Name="09" Color="9a71ed"
				Note Time="0" Value="E3" Duration="49" Instrument="shift string" Volume="3"
				Note Time="2" Volume="2"
				Note Time="4" Volume="1"
				Note Time="6" Volume="0"
			Pattern Name="04" Color="3ca598"
				Note Time="1" Value="C4" Duration="1" Instrument="shift string" Volume="6"
				Note Time="2" Value="A3" Duration="1" Instrument="shift string"
				Note Time="3" Value="C4" Duration="1" Instrument="shift string" Volume="5"
				Note Time="4" Value="A3" Duration="1" Instrument="shift string"
				Note Time="5" Value="C4" Duration="1" Instrument="shift string" Volume="4"
				Note Time="6" Value="A3" Duration="1" Instrument="shift string"
				Note Time="7" Value="C4" Duration="1" Instrument="shift string" Volume="3"
				Note Time="8" Value="A3" Duration="1" Instrument="shift string"
				Note Time="9" Value="C4" Duration="1" Instrument="shift string" Volume="2"
				Note Time="10" Value="A3" Duration="1" Instrument="shift string"
				Note Time="11" Value="C4" Duration="1" Instrument="shift string" Volume="1"
				Note Time="12" Value="A3" Duration="1" Instrument="shift string"
				Note Time="13" Value="C4" Duration="1" Instrument="shift string" Volume="1"
				Note Time="14" Value="A3" Duration="1" Instrument="shift string"
			Pattern Name="05" Color="b5c2ff"
				Note Time="0" Value="E2" Duration="1" Instrument="shift string"
				Note Time="1" Value="B3" Duration="1" Instrument="shift string"
				Note Time="2" Value="G3" Duration="2" Release="1" Instrument="shift string"
				Note Time="4" Value="E3" Duration="2" Release="1" Instrument="shift string"
				Note Time="6" Value="E3" Duration="1" Instrument="shift string"
				Note Time="7" Value="E3" Duration="2" Release="1" Instrument="shift string"
				Note Time="9" Value="E3" Duration="2" Release="1" Instrument="shift string"
				Note Time="11" Value="B2" Duration="2" Release="1" Instrument="shift string"
				Note Time="13" Value="E3" Duration="1" Instrument="shift string"
				Note Time="14" Value="C4" Duration="1" Instrument="shift string"
				Note Time="15" Value="A3" Duration="1" Instrument="shift string"
			Pattern Name="06" Color="ff8f8c"
				Note Time="0" Value="E3" Duration="2" Release="1" Instrument="shift string" Volume="10"
				Note Time="2" Value="G3" Duration="2" Release="1" Instrument="shift string"
				Note Time="4" Value="E3" Duration="2" Release="1" Instrument="shift string"
				Note Time="6" Value="E3" Duration="1" Instrument="shift string"
				Note Time="7" Value="C4" Duration="2" Release="1" Instrument="shift string"
				Note Time="9" Value="B3" Duration="2" Release="1" Instrument="shift string"
				Note Time="11" Value="G4" Duration="1" Instrument="blank instant decay" Volume="6" DutyCycle="2"
				Note Time="12" Value="G4" Duration="1" Instrument="blank instant decay"
				Note Time="13" Value="G4" Duration="1" Instrument="blank instant decay"
				Note Time="14" Value="G4" Duration="1" Instrument="blank instant decay"
				Note Time="15" Value="F#4" Duration="1" Instrument="blank instant decay"
			Pattern Name="07" Color="ffff64"
				Note Time="0" Value="B3" Duration="1" Instrument="sample" Volume="15"
				Note Time="1" Value="B3" Duration="1" Instrument="sample" Volume="15"
				Note Time="2" Value="B3" Duration="2" Instrument="sample" Volume="15"
				Note Time="3" Volume="12"
				Note Time="4" Value="B3" Duration="2" Instrument="sample" Volume="15"
				Note Time="5" Volume="12"
				Note Time="6" Value="B3" Duration="1" Instrument="sample" Volume="15"
				Note Time="7" Value="B3" Duration="2" Instrument="sample"
				Note Time="8" Volume="12"
				Note Time="9" Value="B3" Duration="2" Instrument="sample" Volume="15"
				Note Time="10" Volume="12"
				Note Time="11" Value="B3" Duration="2" Instrument="sample" Volume="15"
				Note Time="12" Volume="12"
				Note Time="13" Value="B3" Duration="1" Instrument="sample" Volume="15"
				Note Time="14" Value="B3" Duration="1" Instrument="sample"
				Note Time="15" Value="B3" Duration="1" Instrument="sample"
			Pattern Name="08" Color="88eb8c"
				Note Time="2" Value="B3" Duration="2" Instrument="sample" Volume="15"
				Note Time="3" Volume="12"
				Note Time="4" Value="B3" Duration="2" Instrument="sample" Volume="15"
				Note Time="5" Volume="12"
				Note Time="6" Value="B3" Duration="1" Instrument="sample" Volume="15"
				Note Time="7" Value="B3" Duration="2" Instrument="sample"
				Note Time="8" Volume="12"
				Note Time="9" Value="B3" Duration="2" Instrument="sample" Volume="15"
				Note Time="10" Volume="12"
				Note Time="11" Value="D4" Duration="2" Instrument="sample" Volume="15"
				Note Time="12" Volume="12"
				Note Time="13" Value="D4" Duration="1" Instrument="sample" Volume="15"
				Note Time="14" Value="D4" Duration="1" Instrument="sample"
				Note Time="15" Value="D4" Duration="1" Instrument="sample"
			Pattern Name="0A" Color="5ac4ff"
				Note Time="2" Value="B3" Duration="2" Instrument="sample" Volume="15"
				Note Time="3" Volume="12"
				Note Time="4" Value="B3" Duration="2" Instrument="sample" Volume="15"
				Note Time="5" Volume="12"
				Note Time="6" Value="B3" Duration="1" Instrument="sample" Volume="15"
				Note Time="7" Value="B3" Duration="2" Instrument="sample"
				Note Time="8" Volume="12"
				Note Time="9" Value="B3" Duration="2" Instrument="sample" Volume="15"
				Note Time="10" Volume="12"
				Note Time="11" Value="D4" Duration="2" Instrument="sample" Volume="15"
				Note Time="12" Volume="12"
				Note Time="13" Value="D4" Duration="1" Instrument="sample" Volume="15"
				Note Time="14" Value="D4" Duration="1" Instrument="sample"
				Note Time="15" Value="C4" Duration="1" Instrument="sample"
			Pattern Name="0B" Color="fe5497"
				Note Time="0" Value="E3" Duration="13" Instrument="shift string"
				Note Time="2" Volume="7"
				Note Time="4" Volume="8"
				Note Time="6" Volume="9"
				Note Time="8" Volume="10"
				Note Time="13" Value="B2" Duration="3" Instrument="shift string"
			Pattern Name="0C" Color="ffb83c"
				Note Time="0" Value="C4" Duration="1" Instrument="shift string"
				Note Time="1" Value="G3" Duration="7" Instrument="shift string"
				Note Time="8" Value="G3" Duration="1" Instrument="sample" Volume="5"
				Note Time="9" Value="D4" Duration="2" Instrument="sample" Volume="15"
				Note Time="11" Value="G3" Duration="2" Instrument="sample"
				Note Time="13" Value="E3" Duration="1" Instrument="sample"
				Note Time="14" Value="C4" Duration="2" Instrument="sample"
			Pattern Name="0D" Color="91c76b"
				Note Time="0" Value="E3" Duration="4" Release="3" Instrument="shift string"
				Note Time="4" Value="E3" Duration="2" Release="1" Instrument="shift string"
				Note Time="6" Value="E3" Duration="1" Instrument="shift string"
				Note Time="7" Value="E3" Duration="2" Release="1" Instrument="shift string"
				Note Time="9" Value="E3" Duration="2" Release="1" Instrument="shift string"
				Note Time="11" Value="B2" Duration="2" Release="1" Instrument="shift string"
				Note Time="13" Value="E3" Duration="1" Instrument="shift string"
				Note Time="14" Value="C4" Duration="1" Instrument="shift string"
				Note Time="15" Value="A3" Duration="1" Instrument="shift string"
			Pattern Name="0E" Color="8bffff"
				Note Time="0" Value="G3" Duration="4" Release="3" Instrument="shift string"
				Note Time="4" Value="E3" Duration="2" Release="1" Instrument="shift string"
				Note Time="6" Value="E3" Duration="1" Instrument="shift string"
				Note Time="7" Value="E3" Duration="2" Release="1" Instrument="shift string"
				Note Time="9" Value="D4" Duration="2" Release="1" Instrument="shift string"
				Note Time="11" Value="G3" Duration="2" Release="1" Instrument="shift string"
				Note Time="13" Value="E3" Duration="1" Instrument="shift string"
				Note Time="14" Value="C4" Duration="1" Instrument="shift string"
				Note Time="15" Value="A3" Duration="1" Instrument="shift string"
			Pattern Name="0F" Color="e783f8"
				Note Time="0" Value="G3" Duration="3" Instrument="shift string"
				Note Time="3" Value="C3" Duration="1" Instrument="shift string"
				Note Time="4" Value="E3" Duration="2" Release="1" Instrument="shift string"
				Note Time="6" Value="E3" Duration="1" Instrument="shift string"
				Note Time="7" Value="E3" Duration="2" Release="1" Instrument="shift string"
				Note Time="9" Value="E3" Duration="1" Instrument="shift string"
				Note Time="10" Value="E3" Duration="1" Instrument="shift string"
				Note Time="11" Value="C3" Duration="2" Release="1" Instrument="shift string"
				Note Time="13" Value="E3" Duration="1" Instrument="shift string"
				Note Time="14" Value="C4" Duration="1" Instrument="shift string"
				Note Time="15" Value="A3" Duration="1" Instrument="shift string"
			Pattern Name="10" Color="ffac7f"
				Note Time="0" Value="G3" Duration="6" Release="5" Instrument="shift string"
				Note Time="6" Value="E3" Duration="1" Instrument="shift string"
				Note Time="7" Value="C4" Duration="2" Release="1" Instrument="shift string"
				Note Time="9" Value="E3" Duration="2" Release="1" Instrument="shift string"
				Note Time="11" Value="B3" Duration="2" Release="1" Instrument="shift string"
				Note Time="13" Value="E3" Duration="1" Instrument="shift string"
				Note Time="14" Value="C4" Duration="1" Instrument="shift string"
				Note Time="15" Value="A3" Duration="1" Instrument="shift string"
			Pattern Name="11" Color="ffff75"
				Note Time="0" Value="A3" Duration="2" Release="1" Instrument="shift string"
				Note Time="2" Value="B3" Duration="2" Release="1" Instrument="shift string"
				Note Time="4" Value="E3" Duration="2" Release="1" Instrument="shift string"
				Note Time="6" Value="E3" Duration="1" Instrument="shift string"
				Note Time="7" Value="E3" Duration="2" Release="1" Instrument="shift string"
				Note Time="9" Value="E3" Duration="2" Release="1" Instrument="shift string"
				Note Time="11" Value="D4" Duration="2" Release="1" Instrument="shift string"
				Note Time="13" Value="E3" Duration="1" Instrument="shift string"
				Note Time="14" Value="C4" Duration="1" Instrument="shift string"
				Note Time="15" Value="A3" Duration="1" Instrument="shift string"
			Pattern Name="12" Color="3ce8fd"
				Note Time="0" Value="G3" Duration="2" Release="1" Instrument="shift string"
				Note Time="2" Value="C4" Duration="2" Release="1" Instrument="shift string"
				Note Time="4" Value="D4" Duration="2" Release="1" Instrument="shift string"
				Note Time="6" Value="E4" Duration="1" Instrument="shift string"
				Note Time="7" Value="D4" Duration="2" Release="1" Instrument="shift string"
				Note Time="9" Value="C4" Duration="2" Release="1" Instrument="shift string"
				Note Time="11" Value="G3" Duration="2" Release="1" Instrument="shift string"
				Note Time="13" Value="E3" Duration="1" Instrument="shift string"
				Note Time="14" Value="C4" Duration="1" Instrument="shift string"
				Note Time="15" Value="A3" Duration="1" Instrument="shift string"
			Pattern Name="13" Color="8d69e4"
				Note Time="0" Value="G3" Duration="1" Instrument="shift string"
				Note Time="1" Value="G3" Duration="2" Release="1" Instrument="shift string" NoteDelay="3"
				Note Time="3" Value="G3" Duration="1" Instrument="shift string"
				Note Time="4" Value="G3" Duration="2" Release="1" Instrument="shift string" NoteDelay="3"
				Note Time="6" Value="G3" Duration="1" Instrument="shift string"
				Note Time="7" Value="G3" Duration="2" Release="1" Instrument="shift string" NoteDelay="3"
				Note Time="9" Value="E3" Duration="2" Release="1" Instrument="shift string"
				Note Time="11" Value="B3" Duration="2" Release="1" Instrument="shift string"
				Note Time="13" Value="E3" Duration="1" Instrument="shift string"
				Note Time="14" Value="C4" Duration="1" Instrument="shift string"
				Note Time="15" Value="A3" Duration="2" Release="1" Instrument="shift string"
			Pattern Name="14" Color="997c73"
				Note Time="0" Value="E3" Duration="2" Release="1" Instrument="shift string"
				Note Time="2" Value="G3" Duration="2" Release="1" Instrument="shift string"
				Note Time="4" Value="E3" Duration="2" Release="1" Instrument="shift string"
				Note Time="6" Value="E3" Duration="1" Instrument="shift string"
				Note Time="7" Value="E3" Duration="2" Release="1" Instrument="shift string"
				Note Time="9" Value="E3" Duration="2" Release="1" Instrument="shift string"
				Note Time="11" Value="B2" Duration="2" Release="1" Instrument="shift string"
				Note Time="13" Value="E3" Duration="1" Instrument="shift string"
				Note Time="14" Value="C4" Duration="1" Instrument="shift string"
				Note Time="15" Value="A3" Duration="1" Instrument="shift string"
			Pattern Name="15" Color="ffe461"
				Note Time="0" Value="G3" Duration="2" Release="1" Instrument="shift string"
				Note Time="2" Value="E3" Duration="2" Release="1" Instrument="shift string"
				Note Time="4" Value="G3" Duration="2" Release="1" Instrument="shift string"
				Note Time="6" Value="E3" Duration="1" Instrument="shift string"
				Note Time="7" Value="E3" Duration="2" Release="1" Instrument="shift string"
				Note Time="9" Value="D4" Duration="2" Release="1" Instrument="shift string"
				Note Time="11" Value="G3" Duration="2" Release="1" Instrument="shift string"
				Note Time="13" Value="E3" Duration="1" Instrument="shift string"
				Note Time="14" Value="C4" Duration="1" Instrument="shift string"
				Note Time="15" Value="A3" Duration="1" Instrument="shift string"
			Pattern Name="16" Color="89f2e8"
				Note Time="0" Value="G3" Duration="2" Release="1" Instrument="shift string"
				Note Time="2" Value="C3" Duration="2" Release="1" Instrument="shift string"
				Note Time="4" Value="E3" Duration="2" Release="1" Instrument="shift string"
				Note Time="6" Value="E3" Duration="1" Instrument="shift string"
				Note Time="7" Value="E3" Duration="2" Release="1" Instrument="shift string"
				Note Time="9" Value="E3" Duration="1" Instrument="shift string"
				Note Time="10" Value="E3" Duration="1" Instrument="shift string"
				Note Time="11" Value="C3" Duration="2" Release="1" Instrument="shift string"
				Note Time="13" Value="E3" Duration="1" Instrument="shift string"
				Note Time="14" Value="C4" Duration="1" Instrument="shift string"
				Note Time="15" Value="A3" Duration="1" Instrument="shift string"
			Pattern Name="17" Color="98a7fc"
				Note Time="1" Value="E3" Duration="1" Instrument="shift string" Volume="3"
				Note Time="2" Value="C4" Duration="1" Instrument="shift string" Volume="9"
				Note Time="3" Value="A3" Duration="2" Release="1" Instrument="shift string" Volume="8"
				Note Time="5" Value="E3" Duration="1" Instrument="shift string" Volume="2" NoteDelay="2"
				Note Time="6" Value="C4" Duration="1" Instrument="shift string" Volume="6" NoteDelay="2"
				Note Time="7" Value="A3" Duration="2" Release="1" Instrument="shift string" Volume="5" NoteDelay="2"
				Note Time="9" Value="E3" Duration="1" Instrument="shift string" Volume="1" NoteDelay="4"
				Note Time="10" Value="C4" Duration="1" Instrument="shift string" Volume="3" NoteDelay="4"
				Note Time="11" Value="A3" Duration="5" Release="1" Instrument="shift string" Volume="2" NoteDelay="4"
				Note Time="12" Volume="0"
			PatternInstance Time="0" Pattern="01"
			PatternInstance Time="1" Pattern="02"
			PatternInstance Time="2" Pattern="01"
			PatternInstance Time="3" Pattern="01"
			PatternInstance Time="4" Pattern="01"
			PatternInstance Time="5" Pattern="01"
			PatternInstance Time="6" Pattern="03"
			PatternInstance Time="7" Pattern="09"
			PatternInstance Time="10" Pattern="04"
			PatternInstance Time="12" Pattern="01"
			PatternInstance Time="13" Pattern="05"
			PatternInstance Time="14" Pattern="01"
			PatternInstance Time="15" Pattern="06"
			PatternInstance Time="16" Pattern="01"
			PatternInstance Time="17" Pattern="05"
			PatternInstance Time="18" Pattern="01"
			PatternInstance Time="19" Pattern="06"
			PatternInstance Time="20" Pattern="07"
			PatternInstance Time="21" Pattern="08"
			PatternInstance Time="22" Pattern="07"
			PatternInstance Time="23" Pattern="0A"
			PatternInstance Time="24" Pattern="07"
			PatternInstance Time="25" Pattern="08"
			PatternInstance Time="26" Pattern="07"
			PatternInstance Time="27" Pattern="06"
			PatternInstance Time="28" Pattern="0B"
			PatternInstance Time="29" Pattern="0C"
			PatternInstance Time="30" Pattern="0D"
			PatternInstance Time="31" Pattern="0E"
			PatternInstance Time="32" Pattern="0F"
			PatternInstance Time="33" Pattern="10"
			PatternInstance Time="34" Pattern="11"
			PatternInstance Time="35" Pattern="12"
			PatternInstance Time="36" Pattern="0F"
			PatternInstance Time="37" Pattern="13"
			PatternInstance Time="38" Pattern="14"
			PatternInstance Time="39" Pattern="15"
			PatternInstance Time="40" Pattern="16"
			PatternInstance Time="41" Pattern="10"
			PatternInstance Time="42" Pattern="11"
			PatternInstance Time="43" Pattern="12"
			PatternInstance Time="44" Pattern="16"
			PatternInstance Time="45" Pattern="13"
			PatternInstance Time="46" Pattern="17"
		Channel Type="Square2"
			Pattern Name="18" Color="ff7f72"
				Note Time="0" Value="E4" Duration="2" Instrument="sample" Volume="4" CutDelay="1"
				Note Time="2" Value="G4" Duration="2" Instrument="sample" CutDelay="1"
				Note Time="4" Value="E4" Duration="2" Instrument="sample" CutDelay="1"
				Note Time="6" Value="E4" Duration="1" Instrument="sample" CutDelay="1"
				Note Time="7" Value="E4" Duration="2" Instrument="sample" CutDelay="1"
				Note Time="9" Value="E4" Duration="2" Instrument="sample" CutDelay="1"
				Note Time="11" Value="B3" Duration="2" Instrument="sample" CutDelay="1"
				Note Time="13" Value="E4" Duration="1" Instrument="sample" CutDelay="1"
				Note Time="14" Value="C5" Duration="1" Instrument="sample" CutDelay="1"
				Note Time="15" Value="A4" Duration="1" Instrument="sample" CutDelay="1"
			Pattern Name="19" Color="fffd43"
				Note Time="0" Value="E5" Duration="1" Instrument="sample" Volume="4" CutDelay="1"
				Note Time="1" Value="B4" Duration="1" Instrument="sample" CutDelay="1"
				Note Time="2" Value="G4" Duration="2" Instrument="sample" CutDelay="1"
				Note Time="4" Value="E4" Duration="2" Instrument="sample" CutDelay="1"
				Note Time="6" Value="E4" Duration="1" Instrument="sample" CutDelay="1"
				Note Time="7" Value="E4" Duration="2" Instrument="sample" CutDelay="1"
				Note Time="9" Value="E4" Duration="2" Instrument="sample" CutDelay="1"
				Note Time="11" Value="B3" Duration="2" Instrument="sample" CutDelay="1"
				Note Time="13" Value="E4" Duration="1" Instrument="sample" CutDelay="1"
				Note Time="14" Value="C5" Duration="1" Instrument="sample" CutDelay="1"
				Note Time="15" Value="A4" Duration="1" Instrument="sample" CutDelay="1"
			Pattern Name="02" Color="7fdc83"
				Note Time="0" Value="E4" Duration="2" Instrument="sample" Volume="4" CutDelay="1"
				Note Time="2" Value="G4" Duration="1" Instrument="sample" CutDelay="1"
				Note Time="3" Value="E3" Duration="2" Release="1" Instrument="shift string" Volume="6"
				Note Time="5" Value="G3" Duration="2" Release="1" Instrument="shift string" Volume="7"
				Note Time="7" Value="E3" Duration="2" Release="1" Instrument="shift string" Volume="8"
				Note Time="9" Value="E3" Duration="3" Release="1" Instrument="shift string" Volume="9"
				Note Time="12" Value="E3" Duration="2" Release="1" Instrument="shift string" Volume="5"
				Note Time="14" Value="B2" Duration="2" Release="1" Instrument="shift string"
			Pattern Name="01" Color="55b2ff"
				Note Time="0" Value="E3" Duration="1" Instrument="shift string" Volume="7"
				Note Time="1" Value="C4" Duration="1" Instrument="shift string"
				Note Time="2" Value="A3" Duration="1" Instrument="shift string"
				Note Time="3" Value="E3" Duration="2" Release="1" Instrument="shift string" Volume="10"
				Note Time="5" Value="G3" Duration="2" Release="1" Instrument="shift string" Volume="9"
				Note Time="7" Value="E3" Duration="2" Release="1" Instrument="shift string" Volume="8"
				Note Time="9" Value="E3" Duration="1" Instrument="shift string" Volume="9"
				Note Time="10" Value="E3" Duration="2" Release="1" Instrument="shift string"
				Note Time="12" Value="E3" Duration="2" Release="1" Instrument="shift string" Volume="10"
				Note Time="14" Value="B2" Duration="2" Release="1" Instrument="shift string" Volume="9"
			Pattern Name="03" Color="e95093"
				Note Time="0" Value="E3" Duration="1" Instrument="shift string" Volume="7"
				Note Time="1" Value="C4" Duration="1" Instrument="shift string" Volume="6"
				Note Time="2" Value="A3" Duration="1" Instrument="shift string" Volume="5"
				Note Time="3" Value="C4" Duration="1" Instrument="shift string" Volume="4"
				Note Time="4" Value="A3" Duration="1" Instrument="shift string" Volume="3"
				Note Time="5" Value="C4" Duration="1" Instrument="shift string" Volume="2"
				Note Time="6" Value="A3" Duration="1" Instrument="shift string" Volume="1"
				Note Time="7" Value="C4" Duration="1" Instrument="shift string"
				Note Time="8" Value="A3" Duration="1" Instrument="shift string"
			Pattern Name="04" Color="ffa83c"
				Note Time="7" Value="E1" Duration="5" Instrument="blank" DutyCycle="0"
				Note Time="8" Volume="2"
				Note Time="9" Volume="6"
				Note Time="10" Volume="5"
				Note Time="11" Volume="4"
				Note Time="12" Value="E1" Duration="4" Instrument="electroman lead" Volume="8"
				Note Time="15" Volume="7"
			Pattern Name="05" Color="eaffbd"
				Note Time="0" Value="E4" Duration="2" Instrument="sample" Volume="9" DutyCycle="2"
				Note Time="1" Volume="6"
				Note Time="2" Value="G4" Duration="2" Instrument="sample" Volume="9"
				Note Time="3" Volume="6"
				Note Time="4" Value="E4" Duration="2" Instrument="sample" Volume="9"
				Note Time="5" Volume="6"
				Note Time="6" Value="E4" Duration="1" Instrument="sample" Volume="9"
				Note Time="7" Value="E4" Duration="2" Instrument="sample"
				Note Time="8" Volume="6"
				Note Time="9" Value="E4" Duration="2" Instrument="sample" Volume="9"
				Note Time="10" Volume="6"
				Note Time="11" Value="B3" Duration="2" Instrument="sample" Volume="9"
				Note Time="12" Volume="6"
				Note Time="13" Value="E4" Duration="1" Instrument="sample" Volume="9"
				Note Time="14" Value="C5" Duration="1" Instrument="sample"
				Note Time="15" Value="A4" Duration="1" Instrument="sample"
			Pattern Name="06" Color="65f2ff"
				Note Time="0" Value="E3" Duration="1" Instrument="sample" Volume="9"
				Note Time="1" Value="B4" Duration="1" Instrument="sample"
				Note Time="2" Value="G4" Duration="2" Instrument="sample"
				Note Time="3" Volume="6"
				Note Time="4" Value="E4" Duration="2" Instrument="sample" Volume="9"
				Note Time="5" Volume="6"
				Note Time="6" Value="E4" Duration="1" Instrument="sample" Volume="9"
				Note Time="7" Value="E4" Duration="2" Instrument="sample"
				Note Time="8" Volume="6"
				Note Time="9" Value="E4" Duration="2" Instrument="sample" Volume="9"
				Note Time="10" Volume="6"
				Note Time="11" Value="B3" Duration="2" Instrument="sample" Volume="9"
				Note Time="12" Volume="6"
				Note Time="13" Value="E4" Duration="1" Instrument="sample" Volume="9"
				Note Time="14" Value="C5" Duration="1" Instrument="sample"
				Note Time="15" Value="A4" Duration="1" Instrument="sample"
			Pattern Name="07" Color="d863ec"
				Note Time="0" Value="E4" Duration="2" Instrument="sample" Volume="9"
				Note Time="1" Volume="6"
				Note Time="2" Value="G4" Duration="2" Instrument="sample" Volume="9"
				Note Time="3" Volume="6"
				Note Time="4" Value="E4" Duration="2" Instrument="sample" Volume="9"
				Note Time="5" Volume="6"
				Note Time="6" Value="E4" Duration="1" Instrument="sample" Volume="9"
				Note Time="7" Value="C5" Duration="2" Instrument="sample"
				Note Time="8" Volume="6"
				Note Time="9" Value="B4" Duration="2" Instrument="sample" Volume="9"
				Note Time="10" Volume="6"
				Note Time="11" Value="E5" Duration="2" Instrument="sample" Volume="9"
				Note Time="12" Volume="6"
				Note Time="13" Value="D5" Duration="1" Instrument="sample" Volume="9"
				Note Time="14" Value="G5" Duration="1" Instrument="sample"
				Note Time="15" Value="F#5" Duration="1" Instrument="sample"
			Pattern Name="08" Color="ff935e"
				Note Time="0" Value="E3" Duration="2" Instrument="sample" Volume="11"
				Note Time="1" Volume="8"
				Note Time="2" Value="G3" Duration="2" Instrument="sample" Volume="11"
				Note Time="3" Volume="8"
				Note Time="4" Value="E3" Duration="2" Instrument="sample" Volume="11"
				Note Time="5" Volume="8"
				Note Time="6" Value="E3" Duration="1" Instrument="sample" Volume="11"
				Note Time="7" Value="E3" Duration="2" Instrument="sample"
				Note Time="8" Volume="8"
				Note Time="9" Value="E3" Duration="2" Instrument="sample" Volume="11"
				Note Time="10" Volume="8"
				Note Time="11" Value="B2" Duration="2" Instrument="sample" Volume="11"
				Note Time="12" Volume="8"
				Note Time="13" Value="E3" Duration="1" Instrument="sample" Volume="11"
				Note Time="14" Value="C4" Duration="1" Instrument="sample"
				Note Time="15" Value="A3" Duration="1" Instrument="sample"
			Pattern Name="09" Color="fcff6f"
				Note Time="0" Value="B3" Duration="1" Instrument="sample" Volume="15"
				Note Time="1" Value="G3" Duration="1" Instrument="sample"
				Note Time="2" Value="E3" Duration="2" Instrument="sample"
				Note Time="3" Volume="8"
				Note Time="4" Value="E3" Duration="2" Instrument="sample" Volume="11"
				Note Time="5" Volume="8"
				Note Time="6" Value="E3" Duration="1" Instrument="sample" Volume="11"
				Note Time="7" Value="E3" Duration="2" Instrument="sample"
				Note Time="8" Volume="8"
				Note Time="9" Value="E3" Duration="2" Instrument="sample" Volume="11"
				Note Time="10" Volume="8"
				Note Time="11" Value="B2" Duration="2" Instrument="sample" Volume="11"
				Note Time="12" Volume="8"
				Note Time="13" Value="E3" Duration="1" Instrument="sample" Volume="11"
				Note Time="14" Value="C4" Duration="1" Instrument="sample"
				Note Time="15" Value="A3" Duration="1" Instrument="sample"
			Pattern Name="0A" Color="3cd3e3"
				Note Time="0" Value="E3" Duration="2" Instrument="DMC: drums + bass" Volume="10" DutyCycle="0"
				Note Time="1" CutDelay="3"
				Note Time="2" Value="G3" Duration="2" Instrument="DMC: drums + bass"
				Note Time="3" CutDelay="3"
				Note Time="4" Value="E3" Duration="2" Instrument="DMC: drums + bass"
				Note Time="5" CutDelay="3"
				Note Time="6" Value="E3" Duration="1" Instrument="DMC: drums + bass" CutDelay="3"
				Note Time="7" Value="C4" Duration="2" Instrument="DMC: drums + bass"
				Note Time="8" CutDelay="3"
				Note Time="9" Value="B3" Duration="2" Instrument="DMC: drums + bass"
				Note Time="10" CutDelay="3"
				Note Time="11" Value="E4" Duration="2" Instrument="DMC: drums + bass"
				Note Time="12" CutDelay="3"
				Note Time="13" Value="D4" Duration="1" Instrument="DMC: drums + bass" CutDelay="3"
				Note Time="14" Value="G4" Duration="1" Instrument="DMC: drums + bass" CutDelay="3"
				Note Time="15" Value="F#4" Duration="3" Instrument="DMC: drums + bass" CutDelay="3"
			Pattern Name="0B" Color="8163dc"
				Note Time="2" Value="F#4" Duration="3" Instrument="DMC: drums + bass" Volume="3" CutDelay="3"
				Note Time="5" Value="F#4" Duration="3" Instrument="DMC: drums + bass" Volume="2" CutDelay="3"
				Note Time="8" Value="F#4" Duration="2" Instrument="DMC: drums + bass" Volume="1" CutDelay="3"
				Note Time="10" Value="B2" Duration="4" Instrument="shift string" Volume="3"
				Note Time="14" Value="C4" Duration="3" Instrument="shift string"
			Pattern Name="0C" Color="8a706a"
				Note Time="1" Value="G3" Duration="5" Instrument="shift string"
				Note Time="6" Value="E3" Duration="3" Instrument="shift string"
				Note Time="9" Value="D4" Duration="2" Instrument="shift string" Volume="10" VibratoSpeed="12" VibratoDepth="2"
				Note Time="11" Value="G3" Duration="2" Instrument="shift string"
				Note Time="13" Value="E3" Duration="1" Instrument="shift string"
				Note Time="14" Value="C4" Duration="2" Instrument="shift string"
			Pattern Name="0D" Color="ffffb2"
				Note Time="0" Value="E4" Duration="4" Instrument="sample" Volume="13" VibratoSpeed="0" VibratoDepth="0"
				Note Time="1" Volume="11"
				Note Time="2" Volume="9"
				Note Time="3" Volume="7"
				Note Time="4" Value="E4" Duration="2" Instrument="sample" Volume="13"
				Note Time="5" Volume="10"
				Note Time="6" Value="E4" Duration="1" Instrument="sample" Volume="13"
				Note Time="7" Value="E4" Duration="2" Instrument="sample"
				Note Time="8" Volume="10"
				Note Time="9" Value="E4" Duration="2" Instrument="sample" Volume="13"
				Note Time="10" Volume="10"
				Note Time="11" Value="B3" Duration="2" Instrument="sample" Volume="13"
				Note Time="12" Volume="10"
				Note Time="13" Value="E4" Duration="1" Instrument="sample" Volume="13"
				Note Time="14" Value="C5" Duration="1" Instrument="sample"
				Note Time="15" Value="A4" Duration="1" Instrument="sample"
			Pattern Name="0E" Color="62e2d6"
				Note Time="0" Value="G4" Duration="4" Instrument="sample" Volume="13"
				Note Time="1" Volume="11"
				Note Time="2" Volume="9"
				Note Time="3" Volume="7"
				Note Time="4" Value="E4" Duration="2" Instrument="sample" Volume="13"
				Note Time="5" Volume="10"
				Note Time="6" Value="E4" Duration="1" Instrument="sample" Volume="13"
				Note Time="7" Value="E4" Duration="2" Instrument="sample"
				Note Time="8" Volume="10"
				Note Time="9" Value="D5" Duration="2" Instrument="sample" Volume="13"
				Note Time="10" Volume="10"
				Note Time="11" Value="G4" Duration="2" Instrument="sample" Volume="13"
				Note Time="12" Volume="10"
				Note Time="13" Value="E4" Duration="1" Instrument="sample" Volume="13"
				Note Time="14" Value="C5" Duration="1" Instrument="sample"
				Note Time="15" Value="A4" Duration="1" Instrument="sample"
			Pattern Name="0F" Color="7b8df1"
				Note Time="0" Value="G4" Duration="3" Instrument="sample" Volume="13"
				Note Time="1" Volume="11"
				Note Time="2" Volume="9"
				Note Time="3" Value="C3" Duration="1" Instrument="sample"
				Note Time="4" Value="E4" Duration="2" Instrument="sample" Volume="13"
				Note Time="5" Volume="10"
				Note Time="6" Value="E4" Duration="1" Instrument="sample" Volume="13"
				Note Time="7" Value="E4" Duration="2" Instrument="sample"
				Note Time="8" Volume="10"
				Note Time="9" Value="E4" Duration="1" Instrument="sample" Volume="13"
				Note Time="10" Value="E4" Duration="1" Instrument="sample"
				Note Time="11" Value="C4" Duration="2" Instrument="sample"
				Note Time="12" Volume="10"
				Note Time="13" Value="E4" Duration="1" Instrument="sample" Volume="13"
				Note Time="14" Value="C5" Duration="1" Instrument="sample"
				Note Time="15" Value="A4" Duration="1" Instrument="sample"
			Pattern Name="10" Color="ff7571"
				Note Time="0" Value="G4" Duration="6" Instrument="sample" Volume="13"
				Note Time="1" Volume="11"
				Note Time="2" Volume="9"
				Note Time="3" Volume="7"
				Note Time="4" Volume="5"
				Note Time="5" Volume="3"
				Note Time="6" Value="E4" Duration="1" Instrument="sample" Volume="13"
				Note Time="7" Value="C5" Duration="2" Instrument="sample"
				Note Time="8" Volume="10"
				Note Time="9" Value="E4" Duration="2" Instrument="sample" Volume="13"
				Note Time="10" Volume="10"
				Note Time="11" Value="B4" Duration="2" Instrument="sample" Volume="13"
				Note Time="12" Volume="10"
				Note Time="13" Value="E4" Duration="1" Instrument="sample" Volume="13"
				Note Time="14" Value="C5" Duration="1" Instrument="sample"
				Note Time="15" Value="A4" Duration="1" Instrument="sample" CutDelay="4"
			Pattern Name="11" Color="ffef3c"
				Note Time="0" Value="A4" Duration="2" Instrument="sample" Volume="13"
				Note Time="1" Volume="10"
				Note Time="2" Value="B4" Duration="2" Instrument="sample" Volume="13"
				Note Time="3" Volume="10"
				Note Time="4" Value="E4" Duration="2" Instrument="sample" Volume="13"
				Note Time="5" Volume="10"
				Note Time="6" Value="E4" Duration="1" Instrument="sample" Volume="13"
				Note Time="7" Value="E4" Duration="2" Instrument="sample"
				Note Time="8" Volume="10"
				Note Time="9" Value="E4" Duration="2" Instrument="sample" Volume="13"
				Note Time="10" Volume="10"
				Note Time="11" Value="D5" Duration="2" Instrument="sample" Volume="13"
				Note Time="12" Volume="10"
				Note Time="13" Value="E4" Duration="1" Instrument="sample" Volume="13"
				Note Time="14" Value="C5" Duration="1" Instrument="sample"
				Note Time="15" Value="A4" Duration="1" Instrument="sample"
			Pattern Name="12" Color="74ca78"
				Note Time="0" Value="G4" Duration="2" Instrument="sample" Volume="13"
				Note Time="1" Volume="10"
				Note Time="2" Value="C5" Duration="2" Instrument="sample" Volume="13"
				Note Time="3" Volume="10"
				Note Time="4" Value="D5" Duration="2" Instrument="sample" Volume="13"
				Note Time="5" Volume="10"
				Note Time="6" Value="E5" Duration="1" Instrument="sample" Volume="13" CutDelay="3"
				Note Time="7" Value="D5" Duration="2" Instrument="sample"
				Note Time="8" Volume="10"
				Note Time="9" Value="C5" Duration="2" Instrument="sample" Volume="13"
				Note Time="10" Volume="10"
				Note Time="11" Value="G4" Duration="2" Instrument="sample" Volume="13"
				Note Time="12" Volume="10"
				Note Time="13" Value="E4" Duration="1" Instrument="sample" Volume="13"
				Note Time="14" Value="C5" Duration="1" Instrument="sample"
				Note Time="15" Value="A4" Duration="1" Instrument="sample"
			Pattern Name="13" Color="51a1fc"
				Note Time="0" Value="G4" Duration="1" Instrument="sample" Volume="13"
				Note Time="1" Value="G4" Duration="2" Instrument="sample" NoteDelay="3"
				Note Time="2" Volume="10" CutDelay="3"
				Note Time="3" Value="G4" Duration="1" Instrument="sample" Volume="13"
				Note Time="4" Value="G4" Duration="2" Instrument="sample" NoteDelay="3"
				Note Time="5" Volume="10" CutDelay="3"
				Note Time="6" Value="G4" Duration="1" Instrument="sample" Volume="13"
				Note Time="7" Value="G4" Duration="2" Instrument="sample" NoteDelay="3"
				Note Time="8" CutDelay="3"
				Note Time="9" Value="E4" Duration="2" Instrument="sample" Volume="13"
				Note Time="10" Volume="10"
				Note Time="11" Value="B4" Duration="2" Instrument="sample" Volume="13"
				Note Time="12" Volume="10"
				Note Time="13" Value="E4" Duration="1" Instrument="sample" Volume="13"
				Note Time="14" Value="C5" Duration="1" Instrument="sample"
				Note Time="15" Value="A4" Duration="2" Instrument="sample"
			Pattern Name="14" Color="ff9ece"
				Note Time="0" Value="E4" Duration="2" Instrument="sample" Volume="13" VibratoSpeed="0" VibratoDepth="0"
				Note Time="1" Volume="10"
				Note Time="2" Value="G4" Duration="2" Instrument="sample" Volume="13"
				Note Time="3" Volume="10"
				Note Time="4" Value="E4" Duration="2" Instrument="sample" Volume="13"
				Note Time="5" Volume="10"
				Note Time="6" Value="E4" Duration="1" Instrument="sample" Volume="13"
				Note Time="7" Value="E4" Duration="2" Instrument="sample"
				Note Time="8" Volume="10"
				Note Time="9" Value="E4" Duration="2" Instrument="sample" Volume="13"
				Note Time="10" Volume="10"
				Note Time="11" Value="B3" Duration="2" Instrument="sample" Volume="13"
				Note Time="12" Volume="10"
				Note Time="13" Value="E4" Duration="1" Instrument="sample" Volume="13"
				Note Time="14" Value="C5" Duration="1" Instrument="sample"
				Note Time="15" Value="A4" Duration="1" Instrument="sample"
			Pattern Name="15" Color="fff389"
				Note Time="0" Value="G4" Duration="2" Instrument="sample" Volume="13"
				Note Time="1" Volume="10"
				Note Time="2" Value="E4" Duration="2" Instrument="sample" Volume="13"
				Note Time="3" Volume="10"
				Note Time="4" Value="G4" Duration="2" Instrument="sample" Volume="13"
				Note Time="5" Volume="10"
				Note Time="6" Value="E4" Duration="1" Instrument="sample" Volume="13"
				Note Time="7" Value="E4" Duration="2" Instrument="sample"
				Note Time="8" Volume="10"
				Note Time="9" Value="D5" Duration="2" Instrument="sample" Volume="13"
				Note Time="10" Volume="10"
				Note Time="11" Value="G4" Duration="2" Instrument="sample" Volume="13"
				Note Time="12" Volume="10"
				Note Time="13" Value="E4" Duration="1" Instrument="sample" Volume="13"
				Note Time="14" Value="C5" Duration="1" Instrument="sample"
				Note Time="15" Value="A4" Duration="1" Instrument="sample"
			Pattern Name="16" Color="d8ffa1"
				Note Time="0" Value="G4" Duration="2" Instrument="sample" Volume="13"
				Note Time="1" Volume="10"
				Note Time="2" Value="C4" Duration="2" Instrument="sample" Volume="13"
				Note Time="3" Volume="10"
				Note Time="4" Value="E4" Duration="2" Instrument="sample" Volume="13"
				Note Time="5" Volume="10"
				Note Time="6" Value="E4" Duration="1" Instrument="sample" Volume="13"
				Note Time="7" Value="E4" Duration="2" Instrument="sample"
				Note Time="8" Volume="10"
				Note Time="9" Value="E4" Duration="1" Instrument="sample" Volume="13"
				Note Time="10" Value="E4" Duration="1" Instrument="sample"
				Note Time="11" Value="C4" Duration="2" Instrument="sample"
				Note Time="12" Volume="10"
				Note Time="13" Value="E4" Duration="1" Instrument="sample" Volume="13"
				Note Time="14" Value="C5" Duration="1" Instrument="sample"
				Note Time="15" Value="A4" Duration="1" Instrument="sample"
			Pattern Name="17" Color="3fe5ff"
				Note Time="1" Value="E4" Duration="1" Instrument="sample" Volume="3"
				Note Time="2" Value="C5" Duration="1" Instrument="sample" Volume="9"
				Note Time="3" Value="A4" Duration="2" Instrument="sample" Volume="8"
				Note Time="4" Volume="7"
				Note Time="5" Value="E4" Duration="1" Instrument="sample" Volume="2" NoteDelay="2"
				Note Time="6" Value="C5" Duration="1" Instrument="sample" Volume="6" NoteDelay="2"
				Note Time="7" Value="A4" Duration="2" Instrument="sample" Volume="5" NoteDelay="2"
				Note Time="8" Volume="4"
				Note Time="9" Value="E4" Duration="1" Instrument="sample" Volume="1" NoteDelay="4"
				Note Time="10" Value="C5" Duration="1" Instrument="sample" Volume="3" NoteDelay="4"
				Note Time="11" Value="A4" Duration="5" Instrument="sample" Volume="2" NoteDelay="4"
				Note Time="12" Volume="0"
			PatternInstance Time="0" Pattern="18"
			PatternInstance Time="1" Pattern="19"
			PatternInstance Time="2" Pattern="18"
			PatternInstance Time="3" Pattern="18"
			PatternInstance Time="4" Pattern="18"
			PatternInstance Time="5" Pattern="18"
			PatternInstance Time="6" Pattern="02"
			PatternInstance Time="7" Pattern="01"
			PatternInstance Time="8" Pattern="01"
			PatternInstance Time="9" Pattern="01"
			PatternInstance Time="10" Pattern="03"
			PatternInstance Time="11" Pattern="04"
			PatternInstance Time="12" Pattern="05"
			PatternInstance Time="13" Pattern="06"
			PatternInstance Time="14" Pattern="05"
			PatternInstance Time="15" Pattern="07"
			PatternInstance Time="16" Pattern="05"
			PatternInstance Time="17" Pattern="06"
			PatternInstance Time="18" Pattern="05"
			PatternInstance Time="19" Pattern="07"
			PatternInstance Time="20" Pattern="08"
			PatternInstance Time="21" Pattern="09"
			PatternInstance Time="22" Pattern="08"
			PatternInstance Time="23" Pattern="09"
			PatternInstance Time="24" Pattern="08"
			PatternInstance Time="25" Pattern="09"
			PatternInstance Time="26" Pattern="08"
			PatternInstance Time="27" Pattern="0A"
			PatternInstance Time="28" Pattern="0B"
			PatternInstance Time="29" Pattern="0C"
			PatternInstance Time="30" Pattern="0D"
			PatternInstance Time="31" Pattern="0E"
			PatternInstance Time="32" Pattern="0F"
			PatternInstance Time="33" Pattern="10"
			PatternInstance Time="34" Pattern="11"
			PatternInstance Time="35" Pattern="12"
			PatternInstance Time="36" Pattern="0F"
			PatternInstance Time="37" Pattern="13"
			PatternInstance Time="38" Pattern="14"
			PatternInstance Time="39" Pattern="15"
			PatternInstance Time="40" Pattern="16"
			PatternInstance Time="41" Pattern="10"
			PatternInstance Time="42" Pattern="11"
			PatternInstance Time="43" Pattern="12"
			PatternInstance Time="44" Pattern="16"
			PatternInstance Time="45" Pattern="13"
			PatternInstance Time="46" Pattern="17"
		Channel Type="Triangle"
			Pattern Name="00" Color="ca60e6"
			Pattern Name="01" Color="ff8d5a"
				Note Time="0" Value="E2" Duration="4" Instrument="blank"
				Note Time="6" Value="E2" Duration="1" Instrument="blank" CutDelay="3"
				Note Time="7" Value="E2" Duration="1" Instrument="blank" CutDelay="3"
				Note Time="8" Value="E2" Duration="3" Instrument="blank"
				Note Time="10" CutDelay="3"
				Note Time="11" Value="E2" Duration="3" Instrument="blank"
				Note Time="13" CutDelay="3"
				Note Time="14" Value="E2" Duration="26" Instrument="blank"
				Note Time="15" CutDelay="3"
			Pattern Name="09" Color="3cbfcb"
				Note Time="8" Value="E1" Duration="8" Instrument="blank"
			Pattern Name="02" Color="d1b1ff"
				Note Time="0" Value="C2" Duration="4" Instrument="sample"
				Note Time="6" Value="C2" Duration="1" Instrument="sample" CutDelay="3"
				Note Time="7" Value="C2" Duration="1" Instrument="sample" CutDelay="3"
				Note Time="8" Value="C2" Duration="3" Instrument="sample"
				Note Time="10" CutDelay="3"
				Note Time="11" Value="C2" Duration="3" Instrument="sample"
				Note Time="13" CutDelay="3"
				Note Time="14" Value="C2" Duration="2" Instrument="sample"
				Note Time="15" CutDelay="3"
			Pattern Name="03" Color="ddc4bb"
				Note Time="0" Value="Stop"
				Note Time="8" Value="E2" Duration="3" Instrument="DMC: drums + bass"
				Note Time="10" CutDelay="3"
				Note Time="11" Value="E2" Duration="3" Instrument="DMC: drums + bass"
				Note Time="13" CutDelay="3"
				Note Time="14" Value="D2" Duration="2" Instrument="DMC: drums + bass"
				Note Time="15" CutDelay="3"
			Pattern Name="04" Color="ffff94"
				Note Time="8" Value="E2" Duration="3" Instrument="blank"
				Note Time="10" CutDelay="3"
				Note Time="11" Value="E2" Duration="3" Instrument="blank"
				Note Time="13" CutDelay="3"
				Note Time="14" Value="F2" Duration="2" Instrument="blank"
				Note Time="15" CutDelay="3"
			Pattern Name="06" Color="3cd2c4"
				Note Time="0" Value="E2" Duration="8" Instrument="sample"
				Note Time="7" CutDelay="3"
				Note Time="8" Value="E2" Duration="2" Instrument="blank"
				Note Time="9" CutDelay="3"
				Note Time="10" Value="E2" Duration="3" Instrument="blank"
				Note Time="12" CutDelay="3"
				Note Time="13" Value="E2" Duration="3" Instrument="sample"
				Note Time="14" CutDelay="3"
			Pattern Name="07" Color="7585e7"
				Note Time="0" Value="C2" Duration="8" Instrument="blank"
				Note Time="7" CutDelay="3"
				Note Time="8" Value="C2" Duration="2" Instrument="blank"
				Note Time="9" CutDelay="3"
				Note Time="10" Value="C2" Duration="3" Instrument="blank"
				Note Time="12" CutDelay="3"
				Note Time="13" Value="C2" Duration="3" Instrument="blank"
				Note Time="14" CutDelay="3"
			Pattern Name="08" Color="ff6b6b"
				Note Time="0" Value="A2" Duration="8" Instrument="DMC: drums + bass"
				Note Time="7" CutDelay="3"
				Note Time="8" Value="A2" Duration="2" Instrument="DMC: drums + bass"
				Note Time="9" CutDelay="3"
				Note Time="10" Value="A2" Duration="3" Instrument="DMC: drums + bass"
				Note Time="12" CutDelay="3"
				Note Time="13" Value="A2" Duration="3" Instrument="DMC: drums + bass"
				Note Time="14" CutDelay="3"
			PatternInstance Time="0" Pattern="00"
			PatternInstance Time="1" Pattern="00"
			PatternInstance Time="2" Pattern="00"
			PatternInstance Time="3" Pattern="00"
			PatternInstance Time="4" Pattern="00"
			PatternInstance Time="5" Pattern="00"
			PatternInstance Time="6" Pattern="01"
			PatternInstance Time="7" Pattern="01"
			PatternInstance Time="8" Pattern="01"
			PatternInstance Time="9" Pattern="01"
			PatternInstance Time="11" Pattern="09"
			PatternInstance Time="12" Pattern="01"
			PatternInstance Time="13" Pattern="01"
			PatternInstance Time="14" Pattern="01"
			PatternInstance Time="15" Pattern="01"
			PatternInstance Time="16" Pattern="01"
			PatternInstance Time="17" Pattern="01"
			PatternInstance Time="18" Pattern="01"
			PatternInstance Time="19" Pattern="02"
			PatternInstance Time="20" Pattern="01"
			PatternInstance Time="21" Pattern="01"
			PatternInstance Time="22" Pattern="01"
			PatternInstance Time="23" Pattern="03"
			PatternInstance Time="24" Pattern="01"
			PatternInstance Time="25" Pattern="01"
			PatternInstance Time="26" Pattern="01"
			PatternInstance Time="27" Pattern="02"
			PatternInstance Time="28" Pattern="00"
			PatternInstance Time="29" Pattern="04"
			PatternInstance Time="30" Pattern="06"
			PatternInstance Time="31" Pattern="06"
			PatternInstance Time="32" Pattern="07"
			PatternInstance Time="33" Pattern="07"
			PatternInstance Time="34" Pattern="08"
			PatternInstance Time="35" Pattern="08"
			PatternInstance Time="36" Pattern="07"
			PatternInstance Time="37" Pattern="07"
			PatternInstance Time="38" Pattern="06"
			PatternInstance Time="39" Pattern="06"
			PatternInstance Time="40" Pattern="07"
			PatternInstance Time="41" Pattern="07"
			PatternInstance Time="42" Pattern="08"
			PatternInstance Time="43" Pattern="08"
			PatternInstance Time="44" Pattern="07"
			PatternInstance Time="45" Pattern="07"
			PatternInstance Time="46" Pattern="00"
		Channel Type="Noise"
			Pattern Name="00" Color="ffdc3c"
			Pattern Name="02" Color="6ab96e"
				Note Time="0" Value="F#3" Duration="4" Instrument="hat" Volume="13"
				Note Time="4" Value="F#3" Duration="4" Instrument="hat"
				Note Time="8" Value="F#3" Duration="4" Instrument="hat"
				Note Time="12" Value="F#3" Duration="4" Instrument="hat"
			Pattern Name="01" Color="a0f1ff"
				Note Time="0" Value="F#3" Duration="4" Instrument="hat" Volume="13"
				Note Time="4" Value="F#3" Duration="4" Instrument="hat" Volume="11"
				Note Time="8" Value="F#3" Duration="4" Instrument="hat" Volume="9"
				Note Time="12" Value="F#3" Duration="4" Instrument="hat" Volume="7"
			Pattern Name="03" Color="ff7cb6"
				Note Time="0" Value="F#3" Duration="4" Instrument="hat" Volume="5"
				Note Time="4" Value="F#3" Duration="4" Instrument="hat" Volume="3"
				Note Time="8" Value="F#3" Duration="8" Instrument="hat" Volume="1"
			Pattern Name="05" Color="ffe362"
				Note Time="0" Value="G#2" Duration="1" Instrument="rel hats"
				Note Time="1" Value="A2" Duration="1" Instrument="rel hats"
				Note Time="2" Value="A#2" Duration="1" Instrument="rel hats"
				Note Time="3" Value="B2" Duration="2" Instrument="rel hats"
				Note Time="5" Value="C3" Duration="2" Instrument="rel hats"
				Note Time="7" Value="C#3" Duration="2" Instrument="rel hats"
				Note Time="9" Value="D3" Duration="1" Instrument="rel hats"
				Note Time="10" Value="D#3" Duration="2" Instrument="rel hats"
				Note Time="12" Value="E3" Duration="2" Instrument="rel hats"
				Note Time="14" Value="F3" Duration="2" Instrument="rel hats"
			Pattern Name="06" Color="c7ff86"
				Note Time="0" Value="A#3" Duration="12" Instrument="blank" Volume="2"
				Note Time="4" Volume="1"
				Note Time="12" Value="A#2" Duration="2" Instrument="rel hats" Volume="1"
				Note Time="14" Value="B2" Duration="2" Instrument="rel hats"
			Pattern Name="07" Color="3fd7ff"
				Note Time="0" Value="C3" Duration="2" Instrument="rel hats" Volume="2"
				Note Time="1" Volume="1"
				Note Time="2" Value="C#3" Duration="2" Instrument="rel hats" Volume="2"
				Note Time="3" Volume="1"
				Note Time="4" Value="D3" Duration="2" Instrument="rel hats" Volume="3"
				Note Time="5" Volume="1"
				Note Time="6" Value="D#3" Duration="2" Instrument="rel hats" Volume="3"
				Note Time="7" Volume="1"
				Note Time="8" Value="E3" Duration="2" Instrument="rel hats" Volume="3"
				Note Time="9" Volume="1"
				Note Time="10" Value="F3" Duration="2" Instrument="rel hats" Volume="3"
				Note Time="11" Volume="1"
				Note Time="12" Value="F#3" Duration="2" Instrument="rel hats" Volume="3"
				Note Time="13" Volume="1"
				Note Time="14" Value="G3" Duration="2" Instrument="rel hats" Volume="3"
				Note Time="15" Volume="1"
			Pattern Name="08" Color="b75bde"
				Note Time="0" Value="G2" Duration="2" Instrument="kick" Volume="15"
				Note Time="2" Value="G3" Duration="2" Instrument="rel hats"
				Note Time="4" Value="G2" Duration="2" Instrument="snare"
				Note Time="6" Value="G3" Duration="2" Instrument="rel hats"
				Note Time="8" Value="G2" Duration="2" Instrument="kick"
				Note Time="10" Value="A3" Duration="1" Instrument="hat"
				Note Time="11" Value="A3" Duration="1" Instrument="hat"
				Note Time="12" Value="G2" Duration="2" Instrument="snare"
				Note Time="14" Value="G3" Duration="2" Instrument="rel hats"
			Pattern Name="09" Color="ff8655"
				Note Time="0" Value="G2" Duration="2" Instrument="kick" Volume="15"
				Note Time="2" Value="G3" Duration="2" Instrument="rel hats"
				Note Time="4" Value="G2" Duration="2" Instrument="snare"
				Note Time="6" Value="G3" Duration="2" Instrument="rel hats"
				Note Time="8" Value="G2" Duration="2" Instrument="kick"
				Note Time="10" Value="A3" Duration="1" Instrument="hat"
				Note Time="11" Value="A3" Duration="5" Instrument="hat"
			Pattern Name="0B" Color="dad960"
				Note Time="0" Value="G#3" Duration="1" Instrument="rel hats" Volume="15"
				Note Time="1" Value="G#3" Duration="1" Instrument="rel hats"
				Note Time="2" Value="G#3" Duration="2" Instrument="rel hats"
				Note Time="4" Value="G2" Duration="2" Instrument="snare"
				Note Time="6" Value="G3" Duration="2" Instrument="rel hats"
				Note Time="8" Value="G2" Duration="2" Instrument="kick"
				Note Time="10" Value="G3" Duration="2" Instrument="rel hats"
				Note Time="12" Value="G2" Duration="2" Instrument="snare"
				Note Time="14" Value="G3" Duration="2" Instrument="rel hats"
			Pattern Name="0A" Color="89ffff"
				Note Time="0" Value="A3" Duration="4" Instrument="cymbal"
				Note Time="4" Value="A#3" Duration="2" Instrument="blank instant decay" Volume="3"
				Note Time="6" Value="A#3" Duration="2" Instrument="blank instant decay" Volume="2"
				Note Time="8" Value="A#3" Duration="2" Instrument="blank instant decay" Volume="3"
				Note Time="10" Value="A#3" Duration="3" Instrument="blank instant decay" Volume="2"
				Note Time="13" Value="A#3" Duration="7" Instrument="blank" Volume="1"
				Note Time="14" Volume="2"
				Note Time="15" Volume="3"
			Pattern Name="0C" Color="ba93fe"
				Note Time="0" Volume="4"
				Note Time="1" Volume="3"
				Note Time="2" Volume="2"
				Note Time="4" Value="G#3" Duration="2" Instrument="blank" Volume="1"
				Note Time="5" Volume="2"
				Note Time="6" Value="A#3" Duration="10" Instrument="blank" Volume="1"
				Note Time="7" Volume="2"
				Note Time="8" Volume="3"
				Note Time="9" Volume="4"
				Note Time="10" Volume="5"
				Note Time="11" Volume="6"
				Note Time="12" Volume="7"
				Note Time="13" Volume="8"
				Note Time="14" Volume="9"
				Note Time="15" Volume="10"
			Pattern Name="0D" Color="c9aa9f"
				Note Time="0" Value="G#3" Duration="2" Instrument="rel hats"
				Note Time="2" Value="G#3" Duration="2" Instrument="rel hats"
				Note Time="4" Value="G2" Duration="2" Instrument="snare"
				Note Time="6" Value="G#3" Duration="2" Instrument="rel hats"
				Note Time="8" Value="G2" Duration="2" Instrument="kick"
				Note Time="10" Value="F#3" Duration="1" Instrument="hat"
				Note Time="11" Value="F#3" Duration="5" Instrument="hat"
			PatternInstance Time="0" Pattern="00"
			PatternInstance Time="1" Pattern="00"
			PatternInstance Time="2" Pattern="02"
			PatternInstance Time="3" Pattern="02"
			PatternInstance Time="4" Pattern="02"
			PatternInstance Time="5" Pattern="02"
			PatternInstance Time="6" Pattern="01"
			PatternInstance Time="7" Pattern="03"
			PatternInstance Time="8" Pattern="00"
			PatternInstance Time="9" Pattern="05"
			PatternInstance Time="10" Pattern="06"
			PatternInstance Time="11" Pattern="07"
			PatternInstance Time="12" Pattern="08"
			PatternInstance Time="13" Pattern="08"
			PatternInstance Time="14" Pattern="08"
			PatternInstance Time="15" Pattern="08"
			PatternInstance Time="16" Pattern="08"
			PatternInstance Time="17" Pattern="08"
			PatternInstance Time="18" Pattern="08"
			PatternInstance Time="19" Pattern="09"
			PatternInstance Time="20" Pattern="0B"
			PatternInstance Time="21" Pattern="0B"
			PatternInstance Time="22" Pattern="0B"
			PatternInstance Time="23" Pattern="0B"
			PatternInstance Time="24" Pattern="0B"
			PatternInstance Time="25" Pattern="0B"
			PatternInstance Time="26" Pattern="0B"
			PatternInstance Time="27" Pattern="00"
			PatternInstance Time="28" Pattern="0A"
			PatternInstance Time="29" Pattern="0C"
			PatternInstance Time="30" Pattern="0B"
			PatternInstance Time="31" Pattern="0B"
			PatternInstance Time="32" Pattern="0B"
			PatternInstance Time="33" Pattern="0B"
			PatternInstance Time="34" Pattern="0B"
			PatternInstance Time="35" Pattern="0B"
			PatternInstance Time="36" Pattern="0B"
			PatternInstance Time="37" Pattern="0B"
			PatternInstance Time="38" Pattern="0B"
			PatternInstance Time="39" Pattern="0B"
			PatternInstance Time="40" Pattern="0B"
			PatternInstance Time="41" Pattern="0D"
			PatternInstance Time="42" Pattern="0B"
			PatternInstance Time="43" Pattern="0B"
			PatternInstance Time="44" Pattern="0B"
			PatternInstance Time="45" Pattern="0B"
			PatternInstance Time="46" Pattern="00"
		Channel Type="DPCM"
			Pattern Name="00" Color="ffff77"
				Note Time="0" Value="E3" Duration="6" Instrument="DMC: drums + bass"
				Note Time="6" Value="E3" Duration="5" Instrument="DMC: drums + bass"
				Note Time="11" Value="E3" Duration="3" Instrument="DMC: drums + bass"
				Note Time="14" Value="E3" Duration="2" Instrument="DMC: drums + bass"
			Pattern Name="01" Color="3cc5b7"
				Note Time="0" Value="E3" Duration="6" Instrument="DMC: drums + bass"
				Note Time="6" Value="E3" Duration="5" Instrument="DMC: drums + bass"
				Note Time="11" Value="B3" Duration="3" Instrument="DMC: drums + bass"
				Note Time="14" Value="G3" Duration="2" Instrument="DMC: drums + bass"
			Pattern Name="02" Color="6c7bdb"
				Note Time="0" Value="E3" Duration="6" Instrument="DMC: drums + bass"
				Note Time="6" Value="E3" Duration="5" Instrument="DMC: drums + bass"
				Note Time="11" Value="F#3" Duration="3" Instrument="DMC: drums + bass"
				Note Time="14" Value="E3" Duration="2" Instrument="DMC: drums + bass"
			Pattern Name="03" Color="ff6464"
				Note Time="0" Value="E3" Duration="80" Instrument="DMC: drums + bass"
			Pattern Name="05" Color="bdffc0"
				Note Time="0" Value="E5" Duration="1" Instrument="DMC: drums + bass"
				Note Time="1" Value="E3" Duration="3" Instrument="DMC: drums + bass"
				Note Time="4" Value="F5" Duration="2" Instrument="DMC: drums + bass"
				Note Time="6" Value="E3" Duration="1" Instrument="DMC: drums + bass"
				Note Time="7" Value="E3" Duration="1" Instrument="DMC: drums + bass"
				Note Time="8" Value="E5" Duration="1" Instrument="DMC: drums + bass"
				Note Time="9" Value="E3" Duration="2" Instrument="DMC: drums + bass"
				Note Time="11" Value="E3" Duration="1" Instrument="DMC: drums + bass"
				Note Time="12" Value="F5" Duration="2" Instrument="DMC: drums + bass"
				Note Time="14" Value="E3" Duration="2" Instrument="DMC: drums + bass"
			Pattern Name="06" Color="7ee1ff"
				Note Time="0" Value="E5" Duration="1" Instrument="DMC: drums + bass"
				Note Time="1" Value="C3" Duration="3" Instrument="DMC: drums + bass"
				Note Time="4" Value="F5" Duration="2" Instrument="DMC: drums + bass"
				Note Time="6" Value="C3" Duration="1" Instrument="DMC: drums + bass"
				Note Time="7" Value="C3" Duration="1" Instrument="DMC: drums + bass"
				Note Time="8" Value="E5" Duration="1" Instrument="DMC: drums + bass"
				Note Time="9" Value="C3" Duration="2" Instrument="DMC: drums + bass"
				Note Time="11" Value="C3" Duration="3" Instrument="DMC: drums + bass"
				Note Time="14" Value="C3" Duration="2" Instrument="DMC: drums + bass"
			Pattern Name="07" Color="ff5a9f"
				Note Time="0" Value="E5" Duration="4" Instrument="DMC: drums + bass"
				Note Time="4" Value="F5" Duration="4" Instrument="DMC: drums + bass"
				Note Time="8" Value="E5" Duration="3" Instrument="DMC: drums + bass"
				Note Time="11" Value="E3" Duration="1" Instrument="DMC: drums + bass"
				Note Time="12" Value="F5" Duration="2" Instrument="DMC: drums + bass"
				Note Time="14" Value="D4" Duration="2" Instrument="DMC: drums + bass"
			Pattern Name="08" Color="ffd43c"
				Note Time="0" Value="C3" Duration="6" Instrument="DMC: drums + bass"
				Note Time="6" Value="C3" Duration="5" Instrument="DMC: drums + bass"
				Note Time="11" Value="C3" Duration="3" Instrument="DMC: drums + bass"
				Note Time="14" Value="C3" Duration="26" Instrument="DMC: drums + bass"
			Pattern Name="09" Color="b8ef7e"
				Note Time="8" Value="E3" Duration="3" Instrument="DMC: drums + bass"
				Note Time="11" Value="E3" Duration="3" Instrument="DMC: drums + bass"
				Note Time="14" Value="F3" Duration="2" Instrument="DMC: drums + bass"
			Pattern Name="0A" Color="3ec4ff"
				Note Time="0" Value="E5" Duration="1" Instrument="DMC: drums + bass"
				Note Time="1" Value="E3" Duration="3" Instrument="DMC: drums + bass"
				Note Time="4" Value="F5" Duration="4" Instrument="DMC: drums + bass"
				Note Time="8" Value="E5" Duration="1" Instrument="DMC: drums + bass"
				Note Time="9" Value="E3" Duration="1" Instrument="DMC: drums + bass"
				Note Time="10" Value="E3" Duration="2" Instrument="DMC: drums + bass"
				Note Time="12" Value="F5" Duration="1" Instrument="DMC: drums + bass"
				Note Time="13" Value="E3" Duration="3" Instrument="DMC: drums + bass"
			Pattern Name="0B" Color="a657d6"
				Note Time="0" Value="E5" Duration="1" Instrument="DMC: drums + bass"
				Note Time="1" Value="C3" Duration="3" Instrument="DMC: drums + bass"
				Note Time="4" Value="F5" Duration="4" Instrument="DMC: drums + bass"
				Note Time="8" Value="E5" Duration="1" Instrument="DMC: drums + bass"
				Note Time="9" Value="C3" Duration="1" Instrument="DMC: drums + bass"
				Note Time="10" Value="C3" Duration="2" Instrument="DMC: drums + bass"
				Note Time="12" Value="F5" Duration="1" Instrument="DMC: drums + bass"
				Note Time="13" Value="C3" Duration="3" Instrument="DMC: drums + bass"
			Pattern Name="0C" Color="ff7f51"
				Note Time="0" Value="E5" Duration="1" Instrument="DMC: drums + bass"
				Note Time="1" Value="A3" Duration="3" Instrument="DMC: drums + bass"
				Note Time="4" Value="F5" Duration="4" Instrument="DMC: drums + bass"
				Note Time="8" Value="E5" Duration="1" Instrument="DMC: drums + bass"
				Note Time="9" Value="A3" Duration="1" Instrument="DMC: drums + bass"
				Note Time="10" Value="A3" Duration="2" Instrument="DMC: drums + bass"
				Note Time="12" Value="F5" Duration="1" Instrument="DMC: drums + bass"
				Note Time="13" Value="A3" Duration="3" Instrument="DMC: drums + bass"
			Pattern Name="0D" Color="ffffb1"
			PatternInstance Time="0" Pattern="00"
			PatternInstance Time="1" Pattern="00"
			PatternInstance Time="2" Pattern="00"
			PatternInstance Time="3" Pattern="01"
			PatternInstance Time="4" Pattern="00"
			PatternInstance Time="5" Pattern="02"
			PatternInstance Time="6" Pattern="00"
			PatternInstance Time="7" Pattern="03"
			PatternInstance Time="12" Pattern="05"
			PatternInstance Time="13" Pattern="05"
			PatternInstance Time="14" Pattern="05"
			PatternInstance Time="15" Pattern="05"
			PatternInstance Time="16" Pattern="05"
			PatternInstance Time="17" Pattern="05"
			PatternInstance Time="18" Pattern="05"
			PatternInstance Time="19" Pattern="06"
			PatternInstance Time="20" Pattern="05"
			PatternInstance Time="21" Pattern="05"
			PatternInstance Time="22" Pattern="05"
			PatternInstance Time="23" Pattern="07"
			PatternInstance Time="24" Pattern="05"
			PatternInstance Time="25" Pattern="05"
			PatternInstance Time="26" Pattern="05"
			PatternInstance Time="27" Pattern="08"
			PatternInstance Time="29" Pattern="09"
			PatternInstance Time="30" Pattern="0A"
			PatternInstance Time="31" Pattern="0A"
			PatternInstance Time="32" Pattern="0B"
			PatternInstance Time="33" Pattern="0B"
			PatternInstance Time="34" Pattern="0C"
			PatternInstance Time="35" Pattern="0C"
			PatternInstance Time="36" Pattern="0B"
			PatternInstance Time="37" Pattern="0B"
			PatternInstance Time="38" Pattern="0A"
			PatternInstance Time="39" Pattern="0A"
			PatternInstance Time="40" Pattern="0B"
			PatternInstance Time="41" Pattern="06"
			PatternInstance Time="42" Pattern="0C"
			PatternInstance Time="43" Pattern="0C"
			PatternInstance Time="44" Pattern="0B"
			PatternInstance Time="45" Pattern="0B"
			PatternInstance Time="46" Pattern="0D"
	Song Name="Hexagon Force" Color="7b8df1" Folder="Official music used in the game" Length="16" LoopPoint="-1" PatternLength="64" BeatLength="4" FamiTrackerTempo="163" FamiTrackerSpeed="6"
		PatternCustomSettings Time="15" Length="16"
		Channel Type="Square1"
			Pattern Name="00" Color="f6a4ff"
				Note Time="0" Value="G3" Duration="32" Instrument="blank string" Volume="1"
				Note Time="1" Volume="2"
				Note Time="2" Volume="6"
				Note Time="32" Value="D#3" Duration="16" Instrument="blank string" Volume="1"
				Note Time="33" Volume="5"
				Note Time="34" Volume="8"
				Note Time="48" Value="F3" Duration="16" Instrument="blank string" Volume="9"
				Note Time="49" Volume="10"
				Note Time="50" Volume="11"
				Note Time="51" Volume="12"
				Note Time="52" Volume="13"
				Note Time="53" Volume="14"
				Note Time="54" Volume="15"
			Pattern Name="01" Color="ffc6a1"
				Note Time="0" Value="G3" Duration="32" Instrument="blank string" Volume="15"
				Note Time="32" Value="D#3" Duration="16" Instrument="blank string"
				Note Time="48" Value="F3" Duration="10" Instrument="blank string"
				Note Time="55" Volume="8"
				Note Time="56" Volume="1"
				Note Time="57" Volume="1"
				Note Time="58" Value="D3" Duration="2" Instrument="blank" Volume="3" DutyCycle="0"
				Note Time="59" Volume="3" VolumeSlideTarget="7"
				Note Time="60" Value="F3" Duration="2" Instrument="blank"
				Note Time="61" Volume="7"
				Note Time="62" Value="G3" Duration="2" Instrument="blank"
			Pattern Name="02" Color="ffff93"
				Note Time="0" Value="A#3" Duration="4" Instrument="blank" Volume="8"
				Note Time="4" Value="A3" Duration="4" Instrument="blank"
				Note Time="5" Volume="2"
				Note Time="6" Volume="1"
				Note Time="8" Value="G3" Duration="2" Instrument="blank" Volume="8"
				Note Time="10" Value="F3" Duration="2" Instrument="blank"
				Note Time="11" Volume="2"
				Note Time="12" Value="D3" Duration="2" Instrument="blank" Volume="4"
				Note Time="13" Volume="2"
				Note Time="14" Value="G3" Duration="10" Instrument="blank" Volume="8"
				Note Time="20" Volume="2"
				Note Time="23" Volume="1"
				Note Time="24" Value="D4" Duration="8" Instrument="blank" Volume="8"
				Note Time="30" Volume="2"
				Note Time="32" Value="A#3" Duration="4" Instrument="blank" Volume="8"
				Note Time="36" Value="A3" Duration="4" Instrument="blank"
				Note Time="37" Volume="2"
				Note Time="38" Volume="1"
				Note Time="39" Volume="2"
				Note Time="40" Value="G3" Duration="2" Instrument="blank" Volume="8"
				Note Time="42" Value="F3" Duration="2" Instrument="blank"
				Note Time="43" Volume="2"
				Note Time="44" Value="D3" Duration="2" Instrument="blank" Volume="4"
				Note Time="45" Volume="2"
				Note Time="46" Value="G3" Duration="4" Instrument="blank" Volume="8"
				Note Time="50" Value="D4" Duration="2" Instrument="blank"
				Note Time="52" Value="G3" Duration="2" Instrument="blank"
				Note Time="54" Value="C4" Duration="4" Instrument="blank"
				Note Time="55" Volume="2"
				Note Time="57" Volume="1"
				Note Time="58" Value="A#3" Duration="2" Instrument="blank" Volume="8"
				Note Time="59" Volume="2"
				Note Time="60" Value="A3" Duration="4" Instrument="blank" Volume="8"
				Note Time="63" Volume="2"
			Pattern Name="04" Color="3cf8ff"
				Note Time="0" Value="A#3" Duration="4" Instrument="blank" Volume="8"
				Note Time="3" Volume="2"
				Note Time="4" Value="A3" Duration="2" Instrument="blank" Volume="8"
				Note Time="5" Volume="2"
				Note Time="6" Value="A#3" Duration="4" Instrument="blank" Volume="8"
				Note Time="8" Volume="2"
				Note Time="10" Value="D4" Duration="4" Instrument="blank" Volume="8"
				Note Time="12" Volume="2"
				Note Time="14" Value="G3" Duration="6" Instrument="blank" Volume="8"
				Note Time="18" Volume="2"
				Note Time="20" Value="A3" Duration="2" Instrument="blank" Volume="8"
				Note Time="21" Volume="2"
				Note Time="22" Value="A#3" Duration="2" Instrument="blank" Volume="8"
				Note Time="24" Value="A3" Duration="2" Instrument="blank" Volume="8"
				Note Time="26" Value="F3" Duration="2" Instrument="blank" Volume="8"
				Note Time="27" Volume="2"
				Note Time="28" Value="A3" Duration="4" Instrument="blank" Volume="8"
				Note Time="31" Volume="2"
				Note Time="32" Value="A#3" Duration="4" Instrument="blank" Volume="8"
				Note Time="36" Value="A3" Duration="4" Instrument="blank" Volume="8"
				Note Time="39" Volume="2"
				Note Time="40" Value="G3" Duration="2" Instrument="blank" Volume="8"
				Note Time="41" Volume="2"
				Note Time="42" Value="F3" Duration="4" Instrument="blank" Volume="8"
				Note Time="43" Volume="2"
				Note Time="45" Volume="1"
				Note Time="46" Value="G3" Duration="4" Instrument="blank" Volume="8"
				Note Time="49" Volume="2"
				Note Time="50" Value="A3" Duration="2" Instrument="blank" Volume="8"
				Note Time="52" Value="A#3" Duration="2" Instrument="blank"
				Note Time="54" Value="C4" Duration="2" Instrument="blank"
				Note Time="56" Value="D4" Duration="2" Instrument="blank"
				Note Time="58" Value="F4" Duration="2" Instrument="blank"
				Note Time="60" Value="G4" Duration="2" Instrument="blank"
				Note Time="62" Value="A#4" Duration="2" Instrument="blank"
			Pattern Name="05" Color="9a71ed"
				Note Time="0" Value="G3" Duration="11" Instrument="blank" Volume="8"
				Note Time="4" Volume="8" VolumeSlideTarget="3"
				Note Time="11" Value="A#2" Duration="2" Instrument="blank string" Volume="7" VolumeSlideTarget="3" DutyCycle="0"
				Note Time="13" Value="C3" Duration="4" Instrument="blank string"
				Note Time="16" Volume="2" VolumeSlideTarget="1"
				Note Time="17" Value="D3" Duration="14" Instrument="blank string" Volume="7" VolumeSlideTarget="4"
				Note Time="21" Volume="4" VolumeSlideTarget="0"
				Note Time="27" Volume="0"
				Note Time="31" Value="G3" Duration="4" Instrument="blank string" Volume="7"
				Note Time="35" Value="F3" Duration="2" Instrument="blank string"
				Note Time="37" Value="D3" Duration="2" Instrument="blank string"
				Note Time="39" Value="C3" Duration="4" Instrument="blank string"
				Note Time="43" Value="D3" Duration="4" Instrument="blank string"
				Note Time="47" Value="A#2" Duration="2" Instrument="blank string"
				Note Time="49" Value="A2" Duration="4" Instrument="blank string"
				Note Time="53" Value="A#2" Duration="2" Instrument="blank string"
				Note Time="55" Value="A2" Duration="4" Instrument="blank string"
				Note Time="59" Value="A#2" Duration="8" Instrument="blank string"
			Pattern Name="06" Color="a9887d"
				Note Time="3" Value="G2" Duration="4" Instrument="blank string" Volume="7"
				Note Time="6" Volume="4"
				Note Time="7" Value="G2" Duration="4" Instrument="blank string" Volume="7"
				Note Time="11" Value="A#2" Duration="2" Instrument="blank string"
				Note Time="13" Value="C3" Duration="4" Instrument="blank string"
				Note Time="16" Volume="7"
				Note Time="17" Value="D3" Duration="14" Instrument="blank string" Volume="4"
				Note Time="21" Volume="4" VolumeSlideTarget="0"
				Note Time="27" Volume="0"
				Note Time="31" Value="G3" Duration="4" Instrument="blank string" Volume="7"
				Note Time="35" Value="A#3" Duration="2" Instrument="blank string"
				Note Time="37" Value="A3" Duration="2" Instrument="blank string"
				Note Time="39" Value="G3" Duration="4" Instrument="blank string"
				Note Time="42" Volume="4"
				Note Time="43" Value="F3" Duration="4" Instrument="blank string" Volume="7"
				Note Time="47" Value="D3" Duration="2" Instrument="blank string"
				Note Time="49" Value="C3" Duration="4" Instrument="blank string"
				Note Time="52" Volume="4"
				Note Time="53" Value="D3" Duration="2" Instrument="blank string" Volume="7"
				Note Time="55" Value="A#2" Duration="4" Instrument="blank string"
				Note Time="58" Volume="4"
				Note Time="59" Value="A2" Duration="4" Instrument="blank string" Volume="7"
				Note Time="63" Value="F2" Duration="4" Instrument="blank string" Volume="7"
			Pattern Name="07" Color="fffc69"
				Note Time="3" Value="G2" Duration="4" Instrument="loud blank string" Volume="6"
				Note Time="6" Volume="4"
				Note Time="7" Value="G2" Duration="4" Instrument="loud blank string" Volume="6"
				Note Time="11" Value="A#2" Duration="2" Instrument="loud blank string"
				Note Time="13" Value="C3" Duration="4" Instrument="loud blank string"
				Note Time="16" Volume="7"
				Note Time="17" Value="D3" Duration="14" Instrument="loud blank string"
				Note Time="21" Volume="7" VolumeSlideTarget="0"
				Note Time="31" Value="G3" Duration="4" Instrument="loud blank string" Volume="7"
				Note Time="35" Value="F3" Duration="2" Instrument="loud blank string"
				Note Time="37" Value="D3" Duration="2" Instrument="loud blank string"
				Note Time="39" Value="C3" Duration="4" Instrument="loud blank string"
				Note Time="43" Value="D3" Duration="4" Instrument="loud blank string"
				Note Time="47" Value="A#2" Duration="2" Instrument="loud blank string"
				Note Time="49" Value="A2" Duration="4" Instrument="loud blank string"
				Note Time="53" Value="A#2" Duration="2" Instrument="loud blank string"
				Note Time="55" Value="A2" Duration="4" Instrument="loud blank string"
				Note Time="59" Value="A#2" Duration="8" Instrument="loud blank string"
			Pattern Name="08" Color="3ca598"
				Note Time="3" Value="G2" Duration="4" Instrument="loud blank string" Volume="7"
				Note Time="6" Volume="4"
				Note Time="7" Value="G2" Duration="4" Instrument="loud blank string" Volume="7"
				Note Time="11" Value="A#2" Duration="2" Instrument="loud blank string"
				Note Time="13" Value="C3" Duration="4" Instrument="loud blank string"
				Note Time="16" Volume="7"
				Note Time="17" Value="D3" Duration="14" Instrument="loud blank string" Volume="4"
				Note Time="21" Volume="4" VolumeSlideTarget="0"
				Note Time="27" Volume="0"
				Note Time="31" Value="G3" Duration="4" Instrument="loud blank string" Volume="7"
				Note Time="35" Value="A#3" Duration="2" Instrument="loud blank string"
				Note Time="37" Value="A3" Duration="2" Instrument="loud blank string"
				Note Time="39" Value="G3" Duration="4" Instrument="loud blank string"
				Note Time="42" Volume="4"
				Note Time="43" Value="F3" Duration="4" Instrument="loud blank string" Volume="7"
				Note Time="47" Value="D3" Duration="2" Instrument="loud blank string"
				Note Time="49" Value="C3" Duration="3" Instrument="loud blank string"
				Note Time="52" Value="C4" Duration="4" Instrument="blank" Volume="4" DutyCycle="2"
				Note Time="53" Volume="4" VolumeSlideTarget="10"
				Note Time="54" VibratoSpeed="8" VibratoDepth="2"
				Note Time="55" VibratoSpeed="0" VibratoDepth="0"
				Note Time="56" Value="D4" Duration="4" Instrument="blank" Volume="6" VolumeSlideTarget="14"
				Note Time="58" VibratoSpeed="8" VibratoDepth="3"
				Note Time="60" Value="F4" Duration="4" Instrument="blank" Volume="8" VolumeSlideTarget="15"
				Note Time="61" VibratoSpeed="0" VibratoDepth="0"
				Note Time="62" VibratoSpeed="8" VibratoDepth="4"
				Note Time="63" VibratoSpeed="0" VibratoDepth="0"
			Pattern Name="09" Color="b5c2ff"
				Note Time="0" Value="G3" Duration="2" Instrument="hex guitar 1" Volume="10"
				Note Time="1" FinePitch="-1"
				Note Time="2" Value="G2" Duration="2" Instrument="hex guitar 1"
				Note Time="4" Value="G3" Duration="2" Instrument="hex guitar 1"
				Note Time="6" Value="G2" Duration="2" Instrument="hex guitar 1"
				Note Time="8" Value="F3" Duration="2" Instrument="hex guitar 1"
				Note Time="10" Value="G3" Duration="2" Instrument="hex guitar 1"
				Note Time="12" Value="D4" Duration="2" Instrument="hex guitar 1"
				Note Time="14" Value="E4" Duration="4" Instrument="hex guitar 1"
				Note Time="16" VibratoSpeed="8" VibratoDepth="2"
				Note Time="18" Value="G4" Duration="2" Instrument="hex guitar 1" VibratoSpeed="0" VibratoDepth="0"
				Note Time="20" Value="G3" Duration="2" Instrument="hex guitar 1"
				Note Time="22" Value="F4" Duration="4" Instrument="hex guitar 1"
				Note Time="24" VibratoSpeed="8" VibratoDepth="4"
				Note Time="26" Value="D4" Duration="2" Instrument="hex guitar 1" VibratoSpeed="0" VibratoDepth="0"
				Note Time="28" Value="F4" Duration="4" Instrument="hex guitar 1" VibratoSpeed="0" VibratoDepth="0"
				Note Time="32" Value="G4" Duration="8" Instrument="hex guitar 1"
				Note Time="34" VibratoSpeed="9" VibratoDepth="5"
				Note Time="40" Value="D4" Duration="2" Instrument="hex guitar 1" VibratoSpeed="0" VibratoDepth="0"
				Note Time="42" Value="F4" Duration="2" Instrument="hex guitar 1"
				Note Time="44" Value="G4" Duration="2" Instrument="hex guitar 1"
				Note Time="46" Value="A4" Duration="2" Instrument="hex guitar 1"
				Note Time="48" Value="A#4" Duration="2" Instrument="hex guitar 1" FinePitch="-1"
				Note Time="50" Value="A4" Duration="2" Instrument="hex guitar 1"
				Note Time="52" Value="A#4" Duration="2" Instrument="hex guitar 1"
				Note Time="54" Value="C5" Duration="4" Instrument="hex guitar 1"
				Note Time="58" Value="D4" Duration="2" Instrument="hex guitar 1"
				Note Time="60" Value="A4" Duration="4" Instrument="hex guitar 1"
			Pattern Name="0A" Color="ff8f8c"
				Note Time="0" Value="G4" Duration="4" Instrument="hex guitar 1"
				Note Time="4" Value="G4" Duration="4" Instrument="hex guitar 1"
				Note Time="8" Value="G4" Duration="2" Instrument="hex guitar 1"
				Note Time="10" Value="A4" Duration="2" Instrument="hex guitar 1"
				Note Time="12" Value="A#4" Duration="2" Instrument="hex guitar 1"
				Note Time="14" Value="C5" Duration="4" Instrument="hex guitar 1"
				Note Time="16" VibratoSpeed="8" VibratoDepth="2"
				Note Time="18" Value="A#4" Duration="2" Instrument="hex guitar 1" VibratoSpeed="0" VibratoDepth="0"
				Note Time="20" Value="A4" Duration="2" Instrument="hex guitar 1"
				Note Time="22" Value="A#4" Duration="4" Instrument="hex guitar 1"
				Note Time="24" VibratoSpeed="8" VibratoDepth="4"
				Note Time="26" Value="A4" Duration="2" Instrument="hex guitar 1" VibratoSpeed="0" VibratoDepth="0"
				Note Time="28" Value="F4" Duration="4" Instrument="hex guitar 1" VibratoSpeed="0" VibratoDepth="0"
				Note Time="32" Value="G4" Duration="10" Instrument="hex guitar 1"
				Note Time="34" VibratoSpeed="9" VibratoDepth="5"
				Note Time="42" Value="D4" Duration="2" Instrument="hex guitar 1" VibratoSpeed="0" VibratoDepth="0"
				Note Time="44" Value="F4" Duration="2" Instrument="hex guitar 1"
				Note Time="46" Value="D4" Duration="2" Instrument="hex guitar 1"
				Note Time="48" Value="G3" Duration="2" Instrument="hex guitar 1"
				Note Time="50" Value="F3" Duration="2" Instrument="hex guitar 1"
				Note Time="52" Value="D3" Duration="2" Instrument="hex guitar 1"
				Note Time="54" Value="E3" Duration="4" Instrument="hex guitar 1"
				Note Time="58" Value="D3" Duration="2" Instrument="hex guitar 1"
				Note Time="60" Value="A#2" Duration="4" Instrument="hex guitar 1"
			Pattern Name="0B" Color="ffff64"
				Note Time="0" Value="G3" Duration="2" Instrument="blank string" Volume="15" DutyCycle="1"
				Note Time="2" Value="D3" Duration="2" Instrument="blank string"
				Note Time="4" Value="G3" Duration="2" Instrument="blank string"
				Note Time="6" Value="F3" Duration="4" Instrument="blank string"
				Note Time="10" Value="D3" Duration="2" Instrument="blank string"
				Note Time="12" Value="F3" Duration="2" Instrument="blank string"
				Note Time="14" Value="E3" Duration="4" Instrument="blank string"
				Note Time="18" Value="D3" Duration="2" Instrument="blank string"
				Note Time="20" Value="E3" Duration="2" Instrument="blank string"
				Note Time="22" Value="F3" Duration="4" Instrument="blank string"
				Note Time="26" Value="D3" Duration="2" Instrument="blank string"
				Note Time="28" Value="E3" Duration="2" Instrument="blank string"
				Note Time="30" Value="F3" Duration="2" Instrument="blank string"
				Note Time="32" Value="G3" Duration="2" Instrument="blank string"
				Note Time="34" Value="D3" Duration="2" Instrument="blank string"
				Note Time="36" Value="G3" Duration="2" Instrument="blank string"
				Note Time="38" Value="F3" Duration="4" Instrument="blank string"
				Note Time="42" Value="F3" Duration="4" Instrument="blank string"
				Note Time="46" Value="G3" Duration="12" Instrument="blank string"
				Note Time="58" Value="G3" Duration="2" Instrument="blank string" SlideTarget="B2" Attack="False"
				Note Time="60" Value="E3" Duration="1" Instrument="blank" Volume="8"
				Note Time="61" Value="F3" Duration="1" Instrument="blank"
				Note Time="62" Value="D3" Duration="1" Instrument="blank"
				Note Time="63" Value="A#2" Duration="1" Instrument="blank"
			Pattern Name="0C" Color="88eb8c"
				Note Time="0" Value="G3" Duration="2" Instrument="blank"
				Note Time="2" Value="A3" Duration="2" Instrument="blank"
				Note Time="4" Value="A#3" Duration="2" Instrument="blank"
				Note Time="6" Value="A3" Duration="2" Instrument="blank"
				Note Time="8" Value="A#3" Duration="2" Instrument="blank"
				Note Time="10" Value="C4" Duration="2" Instrument="blank"
				Note Time="12" Value="A#3" Duration="2" Instrument="blank"
				Note Time="14" Value="C4" Duration="2" Instrument="blank"
				Note Time="16" Value="D4" Duration="2" Instrument="blank"
				Note Time="18" Value="C4" Duration="2" Instrument="blank"
				Note Time="20" Value="D4" Duration="2" Instrument="blank"
				Note Time="22" Value="F4" Duration="2" Instrument="blank"
				Note Time="24" Value="G4" Duration="6" Instrument="blank"
				Note Time="30" Value="G4" Duration="2" Instrument="blank" SlideTarget="F#3" Attack="False"
				Note Time="32" Value="A#3" Duration="1" Instrument="blank"
				Note Time="34" Value="A#3" Duration="2" Instrument="blank"
				Note Time="36" Value="G3" Duration="2" Instrument="blank"
				Note Time="38" Value="C4" Duration="4" Instrument="blank"
				Note Time="40" Volume="1"
				Note Time="42" Value="C4" Duration="4" Instrument="blank" Volume="8"
				Note Time="44" Volume="1"
				Note Time="46" Value="F3" Duration="4" Instrument="blank" Volume="8"
				Note Time="48" Volume="2"
				Note Time="50" Value="F3" Duration="4" Instrument="blank" Volume="8"
				Note Time="52" Volume="3"
				Note Time="54" Value="F3" Duration="2" Instrument="blank" Volume="8"
				Note Time="56" Value="G3" Duration="8" Instrument="blank" Volume="8"
				Note Time="62" Volume="4"
			Pattern Name="0D" Color="5ac4ff"
				Note Time="2" FinePitch="-2"
				Note Time="3" Value="G2" Duration="4" Instrument="blank string" Volume="7" DutyCycle="0"
				Note Time="6" Volume="2"
				Note Time="7" Value="G2" Duration="4" Instrument="blank string" Volume="7"
				Note Time="11" Value="A#2" Duration="2" Instrument="blank string"
				Note Time="13" Value="C3" Duration="4" Instrument="blank string"
				Note Time="16" Volume="2"
				Note Time="17" Value="D3" Duration="14" Instrument="blank string" Volume="7"
				Note Time="21" Volume="7" VolumeSlideTarget="0"
				Note Time="31" Value="G3" Duration="4" Instrument="blank string" Volume="7"
				Note Time="35" Value="F3" Duration="2" Instrument="blank string"
				Note Time="37" Value="D3" Duration="2" Instrument="blank string"
				Note Time="39" Value="C3" Duration="4" Instrument="blank string"
				Note Time="43" Value="D3" Duration="4" Instrument="blank string"
				Note Time="47" Value="A#2" Duration="2" Instrument="blank string"
				Note Time="49" Value="A2" Duration="4" Instrument="blank string"
				Note Time="53" Value="A#2" Duration="2" Instrument="blank string"
				Note Time="55" Value="A2" Duration="4" Instrument="blank string"
				Note Time="59" Value="A#2" Duration="8" Instrument="blank string"
			Pattern Name="0E" Color="fe5497"
				Note Time="2" FinePitch="-2"
				Note Time="3" Value="G2" Duration="4" Instrument="blank string" Volume="7" DutyCycle="0"
				Note Time="6" Volume="2"
				Note Time="7" Value="G2" Duration="4" Instrument="blank string" Volume="7"
				Note Time="11" Value="A#2" Duration="2" Instrument="blank string"
				Note Time="13" Value="C3" Duration="4" Instrument="blank string"
				Note Time="16" Volume="2"
				Note Time="17" Value="D3" Duration="14" Instrument="blank string" Volume="7"
				Note Time="21" Volume="7" VolumeSlideTarget="0"
				Note Time="31" Value="G3" Duration="4" Instrument="blank string" Volume="7"
				Note Time="35" Value="A#3" Duration="2" Instrument="blank string"
				Note Time="37" Value="A3" Duration="2" Instrument="blank string"
				Note Time="39" Value="G3" Duration="4" Instrument="blank string"
				Note Time="43" Value="F3" Duration="4" Instrument="blank string"
				Note Time="47" Value="D3" Duration="2" Instrument="blank string"
				Note Time="49" Value="C3" Duration="3" Instrument="blank string"
				Note Time="52" Value="C3" Duration="4" Instrument="blank string" Volume="12" DutyCycle="0"
				Note Time="56" Value="D3" Duration="4" Instrument="blank string"
				Note Time="60" Value="F3" Duration="4" Instrument="blank string"
			Pattern Name="0F" Color="ffb83c"
				Note Time="0" Value="G4" Duration="16" Instrument="blank string"
				Note Time="1" Volume="12" VolumeSlideTarget="1"
			PatternInstance Time="0" Pattern="00"
			PatternInstance Time="1" Pattern="01"
			PatternInstance Time="2" Pattern="02"
			PatternInstance Time="3" Pattern="02"
			PatternInstance Time="4" Pattern="04"
			PatternInstance Time="5" Pattern="05"
			PatternInstance Time="6" Pattern="06"
			PatternInstance Time="7" Pattern="07"
			PatternInstance Time="8" Pattern="08"
			PatternInstance Time="9" Pattern="09"
			PatternInstance Time="10" Pattern="0A"
			PatternInstance Time="11" Pattern="0B"
			PatternInstance Time="12" Pattern="0C"
			PatternInstance Time="13" Pattern="0D"
			PatternInstance Time="14" Pattern="0E"
			PatternInstance Time="15" Pattern="0F"
		Channel Type="Square2"
			Pattern Name="00" Color="91c76b"
				Note Time="4" Value="D3" Duration="2" Instrument="echo"
				Note Time="6" Value="D3" Duration="4" Instrument="echo"
				Note Time="10" Value="G3" Duration="2" Instrument="echo"
				Note Time="12" Value="D3" Duration="2" Instrument="echo"
				Note Time="14" Value="D3" Duration="2" Instrument="echo"
				Note Time="16" Value="G3" Duration="4" Instrument="echo"
				Note Time="20" Value="D3" Duration="6" Instrument="echo"
				Note Time="26" Value="G3" Duration="2" Instrument="echo"
				Note Time="28" Value="F3" Duration="2" Instrument="echo"
				Note Time="30" Value="G3" Duration="4" Instrument="echo"
				Note Time="34" Value="G3" Duration="2" Instrument="echo"
				Note Time="36" Value="F3" Duration="2" Instrument="echo"
				Note Time="38" Value="G3" Duration="4" Instrument="echo"
				Note Time="42" Value="G3" Duration="2" Instrument="echo"
				Note Time="44" Value="F3" Duration="2" Instrument="echo"
				Note Time="46" Value="G3" Duration="4" Instrument="echo"
				Note Time="50" Value="G3" Duration="2" Instrument="echo"
				Note Time="52" Value="F3" Duration="2" Instrument="echo"
				Note Time="54" Value="G3" Duration="4" Instrument="echo"
				Note Time="58" Value="G3" Duration="2" Instrument="echo"
				Note Time="60" Value="F3" Duration="2" Instrument="echo"
				Note Time="62" Value="G3" Duration="4" Instrument="echo"
			Pattern Name="01" Color="8bffff"
				Note Time="2" Value="G3" Duration="2" Instrument="echo" Arpeggio="Arp 0C"
				Note Time="4" Value="F3" Duration="2" Instrument="echo" Arpeggio="Arp 0C"
				Note Time="6" Value="G3" Duration="4" Instrument="echo" Arpeggio="Arp 0C"
				Note Time="10" Value="G3" Duration="2" Instrument="echo" Arpeggio="Arp 0C"
				Note Time="12" Value="F3" Duration="2" Instrument="echo" Arpeggio="Arp 0C"
				Note Time="14" Value="G3" Duration="4" Instrument="echo" Arpeggio="Arp 0C"
				Note Time="18" Value="G3" Duration="2" Instrument="echo" Arpeggio="Arp 0C"
				Note Time="20" Value="F3" Duration="2" Instrument="echo" Arpeggio="Arp 0C"
				Note Time="22" Value="G3" Duration="4" Instrument="echo" Arpeggio="Arp 0C"
				Note Time="26" Value="G3" Duration="2" Instrument="echo" Arpeggio="Arp 0C"
				Note Time="28" Value="F3" Duration="2" Instrument="echo" Arpeggio="Arp 0C"
				Note Time="30" Value="G3" Duration="4" Instrument="echo" Arpeggio="Arp 0C"
				Note Time="34" Value="G3" Duration="2" Instrument="echo" Arpeggio="Arp 0C"
				Note Time="36" Value="F3" Duration="2" Instrument="echo" Arpeggio="Arp 0C"
				Note Time="38" Value="G3" Duration="4" Instrument="echo" Arpeggio="Arp 0C"
				Note Time="42" Value="G3" Duration="2" Instrument="echo" Arpeggio="Arp 0C"
				Note Time="44" Value="F3" Duration="2" Instrument="echo" Arpeggio="Arp 0C"
				Note Time="46" Value="G3" Duration="4" Instrument="echo" Arpeggio="Arp 0C"
				Note Time="50" Value="G3" Duration="2" Instrument="echo" Arpeggio="Arp 0C"
				Note Time="52" Value="F3" Duration="2" Instrument="echo" Arpeggio="Arp 0C"
				Note Time="54" Value="G3" Duration="4" Instrument="echo" Arpeggio="Arp 0C"
				Note Time="58" Value="G3" Duration="2" Instrument="echo" Arpeggio="Arp 0C"
				Note Time="60" Value="F3" Duration="2" Instrument="echo" Arpeggio="Arp 0C"
				Note Time="62" Value="G3" Duration="4" Instrument="echo" Arpeggio="Arp 0C"
			Pattern Name="02" Color="e783f8"
				Note Time="2" Value="G3" Duration="2" Instrument="echo" Arpeggio="Arp 0C"
				Note Time="4" Value="F3" Duration="2" Instrument="echo" Arpeggio="Arp 0C"
				Note Time="6" Value="G3" Duration="4" Instrument="echo" Arpeggio="Arp 0C"
				Note Time="10" Value="G3" Duration="2" Instrument="echo" Arpeggio="Arp 0C"
				Note Time="12" Value="F3" Duration="2" Instrument="echo" Arpeggio="Arp 0C"
				Note Time="14" Value="A#3" Duration="4" Instrument="echo" Arpeggio="Arp 0C"
				Note Time="18" Value="G3" Duration="2" Instrument="echo" Arpeggio="Arp 0C"
				Note Time="20" Value="F3" Duration="2" Instrument="echo" Arpeggio="Arp 0C"
				Note Time="22" Value="G3" Duration="4" Instrument="echo" Arpeggio="Arp 0C"
				Note Time="26" Value="G3" Duration="2" Instrument="echo" Arpeggio="Arp 0C"
				Note Time="28" Value="F3" Duration="2" Instrument="echo" Arpeggio="Arp 0C"
				Note Time="30" Value="G3" Duration="4" Instrument="echo" Arpeggio="Arp 0C"
				Note Time="34" Value="G3" Duration="2" Instrument="octave jumping echo"
				Note Time="36" Value="F3" Duration="2" Instrument="octave jumping echo"
				Note Time="38" Value="G3" Duration="4" Instrument="octave jumping echo"
				Note Time="42" Value="G3" Duration="2" Instrument="octave jumping echo"
				Note Time="44" Value="F3" Duration="2" Instrument="octave jumping echo"
				Note Time="46" Value="G3" Duration="4" Instrument="octave jumping echo"
				Note Time="50" Value="G4" Duration="2" Instrument="octave jumping echo"
				Note Time="52" Value="F4" Duration="2" Instrument="octave jumping echo"
				Note Time="54" Value="G4" Duration="4" Instrument="octave jumping echo"
				Note Time="58" Value="G4" Duration="2" Instrument="octave jumping echo"
				Note Time="60" Value="F4" Duration="2" Instrument="octave jumping echo"
				Note Time="62" Value="G4" Duration="2" Instrument="octave jumping echo"
			Pattern Name="03" Color="ffac7f"
				Note Time="0" Value="G2" Duration="4" Release="2" Instrument="blank string" Volume="15" DutyCycle="1"
				Note Time="3" Volume="5"
				Note Time="4" Value="G2" Duration="4" Release="2" Instrument="blank string" Volume="15"
				Note Time="8" Value="A#2" Duration="2" Release="1" Instrument="blank string"
				Note Time="10" Value="C3" Duration="4" Release="2" Instrument="blank string"
				Note Time="13" Volume="7"
				Note Time="14" Value="C3" Duration="1" Instrument="blank string" SlideTarget="D3" Volume="15"
				Note Time="15" Value="D3" Duration="13" Release="9" Instrument="blank string" Attack="False"
				Note Time="18" Volume="15" VolumeSlideTarget="8"
				Note Time="28" Value="G3" Duration="4" Release="2" Instrument="blank string" Volume="15"
				Note Time="32" Value="F3" Duration="2" Release="1" Instrument="blank string"
				Note Time="34" Value="D3" Duration="2" Release="1" Instrument="blank string"
				Note Time="36" Value="C3" Duration="4" Release="1" Instrument="blank string"
				Note Time="40" Value="D3" Duration="4" Release="1" Instrument="blank string"
				Note Time="44" Value="A#2" Duration="2" Release="1" Instrument="blank string"
				Note Time="46" Value="A2" Duration="4" Release="1" Instrument="blank string"
				Note Time="50" Value="A#2" Duration="2" Release="1" Instrument="blank string"
				Note Time="52" Value="A2" Duration="4" Release="2" Instrument="blank string"
				Note Time="56" Value="A#2" Duration="4" Release="2" Instrument="blank string"
				Note Time="60" Value="C3" Duration="4" Release="2" Instrument="blank string"
			Pattern Name="04" Color="ffff75"
				Note Time="0" Value="G2" Duration="4" Release="2" Instrument="blank string" Volume="15"
				Note Time="3" Volume="5"
				Note Time="4" Value="G2" Duration="4" Release="2" Instrument="blank string" Volume="15"
				Note Time="8" Value="A#2" Duration="2" Release="1" Instrument="blank string"
				Note Time="10" Value="C3" Duration="4" Release="1" Instrument="blank string"
				Note Time="13" Volume="7"
				Note Time="14" Value="D3" Duration="14" Release="10" Instrument="blank string" Volume="15"
				Note Time="18" Volume="15" VolumeSlideTarget="8"
				Note Time="28" Value="G3" Duration="4" Release="2" Instrument="blank string" Volume="15"
				Note Time="32" Value="A#3" Duration="2" Release="1" Instrument="blank string"
				Note Time="34" Value="A3" Duration="2" Release="1" Instrument="blank string"
				Note Time="36" Value="G3" Duration="4" Release="2" Instrument="blank string"
				Note Time="39" Volume="7"
				Note Time="40" Value="F3" Duration="4" Release="1" Instrument="blank string" Volume="15"
				Note Time="44" Value="D3" Duration="2" Release="1" Instrument="blank string"
				Note Time="46" Value="C3" Duration="4" Release="2" Instrument="blank string"
				Note Time="49" Volume="7"
				Note Time="50" Value="D3" Duration="2" Release="1" Instrument="blank string" Volume="15"
				Note Time="52" Value="A#2" Duration="4" Release="2" Instrument="blank string"
				Note Time="55" Volume="7"
				Note Time="56" Value="A2" Duration="4" Release="2" Instrument="blank string" Volume="15"
				Note Time="60" Value="F2" Duration="4" Release="2" Instrument="blank string" Volume="15"
				Note Time="63" DutyCycle="0"
			Pattern Name="05" Color="3ce8fd"
				Note Time="0" Value="G2" Duration="4" Instrument="loud blank string" Arpeggio="Arp 0C" Volume="12"
				Note Time="3" Volume="5"
				Note Time="4" Value="G2" Duration="4" Instrument="loud blank string" Arpeggio="Arp 0C" Volume="12"
				Note Time="8" Value="A#2" Duration="2" Instrument="loud blank string" Arpeggio="Arp 0C"
				Note Time="10" Value="C3" Duration="4" Instrument="loud blank string" Arpeggio="Arp 0C"
				Note Time="13" Volume="7"
				Note Time="14" Value="D3" Duration="14" Instrument="loud blank string" Arpeggio="Arp 0C" Volume="12"
				Note Time="18" Volume="12" VolumeSlideTarget="5"
				Note Time="28" Value="G3" Duration="4" Instrument="loud blank string" Arpeggio="Arp 0C" Volume="12"
				Note Time="32" Value="F3" Duration="2" Instrument="loud blank string" Arpeggio="Arp 0C"
				Note Time="34" Value="D3" Duration="2" Instrument="loud blank string" Arpeggio="Arp 0C"
				Note Time="36" Value="C3" Duration="4" Instrument="loud blank string" Arpeggio="Arp 0C"
				Note Time="40" Value="D3" Duration="4" Instrument="loud blank string" Arpeggio="Arp 0C"
				Note Time="44" Value="A#2" Duration="2" Instrument="loud blank string" Arpeggio="Arp 0C"
				Note Time="46" Value="A2" Duration="4" Instrument="loud blank string" Arpeggio="Arp 0C"
				Note Time="50" Value="A#2" Duration="2" Instrument="loud blank string" Arpeggio="Arp 0C"
				Note Time="52" Value="A2" Duration="4" Instrument="loud blank string" Arpeggio="Arp 0C"
				Note Time="56" Value="A#2" Duration="4" Instrument="loud blank string" Arpeggio="Arp 0C"
				Note Time="60" Value="C3" Duration="4" Instrument="loud blank string" Arpeggio="Arp 0C"
			Pattern Name="06" Color="8d69e4"
				Note Time="0" Value="G2" Duration="4" Instrument="loud blank string" Arpeggio="Arp 0C" Volume="12"
				Note Time="3" Volume="5"
				Note Time="4" Value="G2" Duration="4" Instrument="loud blank string" Arpeggio="Arp 0C" Volume="12"
				Note Time="8" Value="A#2" Duration="2" Instrument="loud blank string" Arpeggio="Arp 0C"
				Note Time="10" Value="C3" Duration="4" Instrument="loud blank string" Arpeggio="Arp 0C"
				Note Time="13" Volume="7"
				Note Time="14" Value="D3" Duration="14" Instrument="loud blank string" Arpeggio="Arp 0C" Volume="12"
				Note Time="18" Volume="12" VolumeSlideTarget="5"
				Note Time="28" Value="G3" Duration="4" Instrument="loud blank string" Arpeggio="Arp 0C" Volume="12"
				Note Time="32" Value="A#3" Duration="2" Instrument="loud blank string" Arpeggio="Arp 0C"
				Note Time="34" Value="A3" Duration="2" Instrument="loud blank string" Arpeggio="Arp 0C"
				Note Time="36" Value="G3" Duration="4" Instrument="loud blank string" Arpeggio="Arp 0C"
				Note Time="39" Volume="7"
				Note Time="40" Value="F3" Duration="4" Instrument="loud blank string" Arpeggio="Arp 0C" Volume="12"
				Note Time="44" Value="D3" Duration="2" Instrument="loud blank string" Arpeggio="Arp 0C"
				Note Time="46" Value="C3" Duration="4" Instrument="loud blank string" Arpeggio="Arp 0C"
				Note Time="49" Volume="7"
				Note Time="50" Value="D3" Duration="2" Instrument="loud blank string" Arpeggio="Arp 0C" Volume="12"
				Note Time="52" Value="A#2" Duration="4" Instrument="loud blank string" Arpeggio="Arp 0C"
				Note Time="55" Volume="7"
				Note Time="56" Value="A2" Duration="4" Instrument="loud blank string" Arpeggio="Arp 0C" Volume="12"
				Note Time="60" Value="F2" Duration="4" Instrument="loud blank string" Arpeggio="Arp 0C" Volume="15"
			Pattern Name="07" Color="997c73"
				Note Time="0" Value="G3" Duration="2" Instrument="hex guitar 2" Volume="8"
				Note Time="1" FinePitch="1"
				Note Time="2" Value="G2" Duration="2" Instrument="hex guitar 2"
				Note Time="4" Value="G3" Duration="2" Instrument="hex guitar 2"
				Note Time="6" Value="A#2" Duration="2" Instrument="hex guitar 2"
				Note Time="8" Value="D3" Duration="2" Instrument="hex guitar 2"
				Note Time="10" Value="F3" Duration="2" Instrument="hex guitar 2"
				Note Time="12" Value="A#3" Duration="2" Instrument="hex guitar 2"
				Note Time="14" Value="C4" Duration="4" Instrument="hex guitar 2"
				Note Time="16" VibratoSpeed="8" VibratoDepth="2"
				Note Time="18" Value="D4" Duration="2" Instrument="hex guitar 2" VibratoSpeed="0" VibratoDepth="0"
				Note Time="20" Value="G3" Duration="2" Instrument="hex guitar 2"
				Note Time="22" Value="D4" Duration="4" Instrument="hex guitar 2"
				Note Time="24" VibratoSpeed="8" VibratoDepth="4"
				Note Time="26" Value="D4" Duration="2" Instrument="hex guitar 2" VibratoSpeed="0" VibratoDepth="0"
				Note Time="28" Value="F4" Duration="4" Instrument="hex guitar 2" VibratoSpeed="0" VibratoDepth="0"
				Note Time="32" Value="D4" Duration="8" Instrument="hex guitar 2"
				Note Time="34" VibratoSpeed="9" VibratoDepth="5"
				Note Time="40" Value="D4" Duration="2" Instrument="hex guitar 2" VibratoSpeed="0" VibratoDepth="0"
				Note Time="42" Value="F4" Duration="2" Instrument="hex guitar 2"
				Note Time="44" Value="G4" Duration="2" Instrument="hex guitar 2"
				Note Time="46" Value="F4" Duration="2" Instrument="hex guitar 2"
				Note Time="48" Value="G4" Duration="2" Instrument="hex guitar 2"
				Note Time="50" Value="F4" Duration="2" Instrument="hex guitar 2"
				Note Time="52" Value="G4" Duration="2" Instrument="hex guitar 2"
				Note Time="54" Value="A4" Duration="4" Instrument="hex guitar 2"
				Note Time="58" Value="D4" Duration="2" Instrument="hex guitar 2"
				Note Time="60" Value="F4" Duration="4" Instrument="hex guitar 2"
			Pattern Name="08" Color="ffe461"
				Note Time="0" Value="G4" Duration="2" Instrument="hex guitar 2"
				Note Time="2" Value="G3" Duration="2" Instrument="hex guitar 2"
				Note Time="4" Value="G4" Duration="2" Instrument="hex guitar 2"
				Note Time="6" Value="A#3" Duration="2" Instrument="hex guitar 2"
				Note Time="8" Value="D4" Duration="2" Instrument="hex guitar 2"
				Note Time="10" Value="F4" Duration="2" Instrument="hex guitar 2"
				Note Time="12" Value="G4" Duration="2" Instrument="hex guitar 2"
				Note Time="14" Value="A4" Duration="4" Instrument="hex guitar 2"
				Note Time="16" VibratoSpeed="8" VibratoDepth="2"
				Note Time="18" Value="G4" Duration="2" Instrument="hex guitar 2" VibratoSpeed="0" VibratoDepth="0"
				Note Time="20" Value="F4" Duration="2" Instrument="hex guitar 2"
				Note Time="22" Value="G4" Duration="4" Instrument="hex guitar 2"
				Note Time="24" VibratoSpeed="8" VibratoDepth="4"
				Note Time="26" Value="F4" Duration="2" Instrument="hex guitar 2" VibratoSpeed="0" VibratoDepth="0"
				Note Time="28" Value="D4" Duration="4" Instrument="hex guitar 2" VibratoSpeed="0" VibratoDepth="0"
				Note Time="32" Value="D4" Duration="10" Instrument="hex guitar 2"
				Note Time="34" VibratoSpeed="9" VibratoDepth="5"
				Note Time="42" Value="D3" Duration="2" Instrument="hex guitar 2" VibratoSpeed="0" VibratoDepth="0"
				Note Time="43" FinePitch="1"
				Note Time="44" Value="F3" Duration="2" Instrument="hex guitar 2"
				Note Time="46" Value="D3" Duration="2" Instrument="hex guitar 2"
				Note Time="48" Value="G2" Duration="2" Instrument="hex guitar 2"
				Note Time="50" Value="F2" Duration="2" Instrument="hex guitar 2"
				Note Time="52" Value="D2" Duration="2" Instrument="hex guitar 2"
				Note Time="54" Value="E2" Duration="4" Instrument="hex guitar 2"
				Note Time="58" Value="D2" Duration="2" Instrument="hex guitar 2"
				Note Time="60" Value="A#1" Duration="4" Instrument="hex guitar 2"
				Note Time="63" DutyCycle="0"
			Pattern Name="09" Color="89f2e8"
				Note Time="0" Value="G4" Duration="2" Instrument="blank string" Arpeggio="Arp CC" Volume="15"
				Note Time="2" Value="D4" Duration="2" Instrument="blank string" Arpeggio="Arp CC"
				Note Time="4" Value="G4" Duration="2" Instrument="blank string" Arpeggio="Arp CC"
				Note Time="6" Value="F4" Duration="4" Instrument="blank string" Arpeggio="Arp 4C"
				Note Time="10" Value="D4" Duration="2" Instrument="blank string" Arpeggio="Arp CC"
				Note Time="12" Value="F4" Duration="2" Instrument="blank string" Arpeggio="Arp CC"
				Note Time="14" Value="E4" Duration="4" Instrument="blank string" Arpeggio="Arp 3C"
				Note Time="18" Value="D4" Duration="2" Instrument="blank string" Arpeggio="Arp CC"
				Note Time="20" Value="E4" Duration="2" Instrument="blank string" Arpeggio="Arp CC"
				Note Time="22" Value="F4" Duration="4" Instrument="blank string" Arpeggio="Arp 4C"
				Note Time="26" Value="D4" Duration="2" Instrument="blank string" Arpeggio="Arp CC"
				Note Time="28" Value="E4" Duration="2" Instrument="blank string" Arpeggio="Arp CC"
				Note Time="30" Value="F4" Duration="2" Instrument="blank string" Arpeggio="Arp CC"
				Note Time="32" Value="G4" Duration="2" Instrument="blank string" Arpeggio="Arp CC"
				Note Time="34" Value="D4" Duration="2" Instrument="blank string" Arpeggio="Arp CC"
				Note Time="36" Value="G4" Duration="2" Instrument="blank string" Arpeggio="Arp CC"
				Note Time="38" Value="F4" Duration="4" Instrument="blank string" Arpeggio="Arp 4C"
				Note Time="42" Value="F4" Duration="4" Instrument="blank string" Arpeggio="Arp 4C"
				Note Time="46" Value="G4" Duration="12" Instrument="blank string" Arpeggio="Arp 7C"
				Note Time="58" Value="G4" Duration="2" Instrument="blank string" Arpeggio="Arp 7C" SlideTarget="F#3" Attack="False"
				Note Time="60" Value="E3" Duration="1" Instrument="blank" Arpeggio="Arp 7C" Volume="8"
				Note Time="61" Value="F3" Duration="1" Instrument="blank" Arpeggio="Arp 7C"
				Note Time="62" Value="D3" Duration="1" Instrument="blank" Arpeggio="Arp 7C"
				Note Time="63" Value="A#2" Duration="1" Instrument="blank" Arpeggio="Arp 7C"
			Pattern Name="0A" Color="98a7fc"
				Note Time="0" Value="G2" Duration="2" Instrument="blank" Arpeggio="Arp 7C"
				Note Time="2" Value="A2" Duration="2" Instrument="blank" Arpeggio="Arp 7C"
				Note Time="4" Value="A#2" Duration="2" Instrument="blank" Arpeggio="Arp 7C"
				Note Time="6" Value="A2" Duration="2" Instrument="blank" Arpeggio="Arp 7C"
				Note Time="8" Value="A#2" Duration="2" Instrument="blank" Arpeggio="Arp 7C"
				Note Time="10" Value="C3" Duration="2" Instrument="blank" Arpeggio="Arp 7C"
				Note Time="12" Value="A#2" Duration="2" Instrument="blank" Arpeggio="Arp 7C"
				Note Time="14" Value="C3" Duration="2" Instrument="blank" Arpeggio="Arp 7C"
				Note Time="16" Value="D3" Duration="2" Instrument="blank" Arpeggio="Arp 7C"
				Note Time="18" Value="C3" Duration="2" Instrument="blank" Arpeggio="Arp 7C"
				Note Time="20" Value="D3" Duration="2" Instrument="blank" Arpeggio="Arp 7C"
				Note Time="22" Value="F3" Duration="2" Instrument="blank" Arpeggio="Arp 7C"
				Note Time="24" Value="G3" Duration="6" Instrument="blank" Arpeggio="Arp 7C"
				Note Time="30" Value="G3" Duration="2" Instrument="blank" Arpeggio="Arp 7C" SlideTarget="B2" Attack="False"
				Note Time="32" Value="A#2" Duration="1" Instrument="blank" Arpeggio="Arp 7C" SlideTarget="G2"
				Note Time="34" Value="A#2" Duration="2" Instrument="blank" Arpeggio="Arp 7C" SlideTarget="F2"
				Note Time="36" Value="G2" Duration="2" Instrument="blank" Arpeggio="Arp 7C" SlideTarget="D#2"
				Note Time="38" Value="C3" Duration="4" Instrument="blank" Arpeggio="Arp 7C" SlideTarget="D2"
				Note Time="40" Volume="1"
				Note Time="42" Value="C3" Duration="4" Instrument="blank" Arpeggio="Arp 7C" SlideTarget="D2" Volume="8"
				Note Time="44" Volume="1"
				Note Time="46" Value="F2" Duration="4" Instrument="blank" Arpeggio="Arp 7C" SlideTarget="A#1" Volume="8"
				Note Time="48" Volume="2"
				Note Time="50" Value="F2" Duration="4" Instrument="blank" Arpeggio="Arp 7C" SlideTarget="A#1" Volume="8"
				Note Time="52" Volume="3"
				Note Time="54" Value="F2" Duration="2" Instrument="blank" Arpeggio="Arp 7C" SlideTarget="C#2" Volume="8"
				Note Time="56" Value="G2" Duration="8" Instrument="blank" Arpeggio="Arp 7C" SlideTarget="F#1" Volume="8"
				Note Time="62" Volume="4"
			Pattern Name="0B" Color="ff7f72"
				Note Time="0" Value="G2" Duration="4" Instrument="blank string" SlideTarget="B1" Volume="15"
				Note Time="3" Volume="5"
				Note Time="4" Value="G2" Duration="4" Instrument="blank string" SlideTarget="B1" Volume="15"
				Note Time="8" Value="A#2" Duration="2" Instrument="blank string" SlideTarget="F2"
				Note Time="10" Value="C3" Duration="4" Instrument="blank string" SlideTarget="D2"
				Note Time="13" Volume="7"
				Note Time="14" Value="D3" Duration="14" Instrument="blank string" SlideTarget="D1" Volume="15"
				Note Time="18" Volume="15" VolumeSlideTarget="8"
				Note Time="28" Value="G3" Duration="4" Instrument="blank string" SlideTarget="F#2" Volume="15"
				Note Time="32" Value="F3" Duration="2" Instrument="blank string" SlideTarget="A#2"
				Note Time="34" Value="D3" Duration="2" Instrument="blank string" SlideTarget="G#2"
				Note Time="36" Value="C3" Duration="4" Instrument="blank string" SlideTarget="D2"
				Note Time="40" Value="D3" Duration="4" Instrument="blank string" SlideTarget="D#2"
				Note Time="44" Value="A#2" Duration="2" Instrument="blank string" SlideTarget="F2"
				Note Time="46" Value="A2" Duration="4" Instrument="blank string" SlideTarget="C2"
				Note Time="50" Value="A#2" Duration="2" Instrument="blank string" SlideTarget="F2"
				Note Time="52" Value="A2" Duration="4" Instrument="blank string" SlideTarget="C2"
				Note Time="56" Value="A#2" Duration="4" Instrument="blank string" SlideTarget="C#2"
				Note Time="60" Value="C3" Duration="4" Instrument="blank string" SlideTarget="D2"
			Pattern Name="0C" Color="fffd43"
				Note Time="0" Value="G2" Duration="4" Instrument="blank string" SlideTarget="B1" Volume="15"
				Note Time="3" Volume="5"
				Note Time="4" Value="G2" Duration="4" Instrument="blank string" SlideTarget="B1" Volume="15"
				Note Time="8" Value="A#2" Duration="2" Instrument="blank string" SlideTarget="F2"
				Note Time="10" Value="C3" Duration="4" Instrument="blank string" SlideTarget="D2"
				Note Time="13" Volume="7"
				Note Time="14" Value="D3" Duration="14" Instrument="blank string" SlideTarget="D1" Volume="15"
				Note Time="18" Volume="15" VolumeSlideTarget="8"
				Note Time="28" Value="G3" Duration="4" Instrument="blank string" SlideTarget="F#2" Volume="15"
				Note Time="32" Value="A#3" Duration="2" Instrument="blank string" SlideTarget="C#3"
				Note Time="34" Value="A3" Duration="2" Instrument="blank string" SlideTarget="C3"
				Note Time="36" Value="G3" Duration="4" Instrument="blank string" SlideTarget="F#2"
				Note Time="40" Value="F3" Duration="4" Instrument="blank string" SlideTarget="F2"
				Note Time="44" Value="D3" Duration="2" Instrument="blank string" SlideTarget="G#2"
				Note Time="46" Value="C3" Duration="4" Instrument="blank string" SlideTarget="D2"
				Note Time="50" Value="D3" Duration="2" Instrument="blank string" SlideTarget="G#2"
				Note Time="52" Value="C4" Duration="4" Instrument="blank string" SlideTarget="G#2" DutyCycle="1"
				Note Time="56" Value="D4" Duration="4" Instrument="blank string" SlideTarget="G#2"
				Note Time="60" Value="F4" Duration="4" Instrument="blank string" SlideTarget="A2"
			Pattern Name="0D" Color="7fdc83"
				Note Time="0" Value="G3" Duration="16" Instrument="blank string" SlideTarget="C#1"
				Note Time="1" Volume="15" VolumeSlideTarget="0"
				Note Time="12" Volume="0"
			PatternInstance Time="0" Pattern="00"
			PatternInstance Time="1" Pattern="01"
			PatternInstance Time="2" Pattern="01"
			PatternInstance Time="3" Pattern="01"
			PatternInstance Time="4" Pattern="02"
			PatternInstance Time="5" Pattern="03"
			PatternInstance Time="6" Pattern="04"
			PatternInstance Time="7" Pattern="05"
			PatternInstance Time="8" Pattern="06"
			PatternInstance Time="9" Pattern="07"
			PatternInstance Time="10" Pattern="08"
			PatternInstance Time="11" Pattern="09"
			PatternInstance Time="12" Pattern="0A"
			PatternInstance Time="13" Pattern="0B"
			PatternInstance Time="14" Pattern="0C"
			PatternInstance Time="15" Pattern="0D"
		Channel Type="Triangle"
			Pattern Name="00" Color="55b2ff"
				Note Time="0" Value="C4" Duration="4" Instrument="triangle drums" SlideTarget="G#2"
				Note Time="32" Value="D#3" Duration="2" Instrument="DMC: drums + bass"
				Note Time="36" Value="D#3" Duration="3" Instrument="DMC: drums + bass"
				Note Time="42" Value="D#3" Duration="1" Instrument="DMC: drums + bass"
				Note Time="44" Value="D#3" Duration="2" Instrument="DMC: drums + bass"
				Note Time="46" Value="F3" Duration="2" Instrument="DMC: drums + bass"
				Note Time="50" Value="F3" Duration="1" Instrument="DMC: drums + bass"
				Note Time="52" Value="F3" Duration="3" Instrument="DMC: drums + bass"
				Note Time="58" Value="G3" Duration="2" Instrument="DMC: drums + bass"
				Note Time="60" Value="F3" Duration="2" Instrument="DMC: drums + bass"
				Note Time="62" Value="G3" Duration="1" Instrument="DMC: drums + bass"
			Pattern Name="01" Color="e95093"
				Note Time="0" Value="G3" Duration="2" Instrument="DMC: drums + bass"
				Note Time="4" Value="G3" Duration="3" Instrument="DMC: drums + bass"
				Note Time="10" Value="G3" Duration="2" Instrument="DMC: drums + bass"
				Note Time="12" Value="F3" Duration="2" Instrument="DMC: drums + bass"
				Note Time="14" Value="G3" Duration="2" Instrument="DMC: drums + bass"
				Note Time="18" Value="G3" Duration="1" Instrument="DMC: drums + bass"
				Note Time="20" Value="G3" Duration="3" Instrument="DMC: drums + bass"
				Note Time="26" Value="G3" Duration="2" Instrument="DMC: drums + bass"
				Note Time="30" Value="G3" Duration="2" Instrument="DMC: drums + bass"
				Note Time="32" Value="D#3" Duration="2" Instrument="blank"
				Note Time="36" Value="D#3" Duration="2" Instrument="blank"
				Note Time="42" Value="D#3" Duration="2" Instrument="blank"
				Note Time="46" Value="F3" Duration="2" Instrument="blank"
				Note Time="50" Value="F3" Duration="1" Instrument="blank"
				Note Time="52" Value="F3" Duration="3" Instrument="blank"
				Note Time="55" Value="F3" Duration="1" Instrument="blank" SlideTarget="F3" Attack="False"
			Pattern Name="02" Color="ffa83c"
				Note Time="0" Value="C1" Duration="1" Instrument="tight triangle kick" CutDelay="3"
				Note Time="1" Value="G2" Duration="2" Instrument="blank"
				Note Time="4" Value="G2" Duration="1" Instrument="blank"
				Note Time="10" Value="G2" Duration="1" Instrument="blank"
				Note Time="12" Value="F2" Duration="1" Instrument="blank"
				Note Time="14" Value="G2" Duration="2" Instrument="blank"
				Note Time="16" Value="C1" Duration="2" Instrument="tight triangle kick" CutDelay="3"
				Note Time="18" Value="G2" Duration="1" Instrument="blank"
				Note Time="20" Value="G2" Duration="7" Instrument="blank"
				Note Time="28" Value="G2" Duration="2" Instrument="blank"
				Note Time="32" Value="C1" Duration="1" Instrument="tight triangle kick" CutDelay="3"
				Note Time="33" Value="D#2" Duration="2" Instrument="blank"
				Note Time="36" Value="D#2" Duration="3" Instrument="blank"
				Note Time="42" Value="D#2" Duration="1" Instrument="blank"
				Note Time="44" Value="D#2" Duration="1" Instrument="blank"
				Note Time="46" Value="D#2" Duration="1" Instrument="blank"
				Note Time="48" Value="C1" Duration="2" Instrument="tight triangle kick" CutDelay="3"
				Note Time="50" Value="F2" Duration="1" Instrument="blank"
				Note Time="52" Value="F2" Duration="4" Instrument="blank"
				Note Time="58" Value="F2" Duration="1" Instrument="blank"
				Note Time="60" Value="F2" Duration="1" Instrument="blank"
			Pattern Name="03" Color="eaffbd"
				Note Time="0" Value="G2" Duration="4" Instrument="blank"
				Note Time="4" Value="G4" Duration="2" Instrument="tom" CutDelay="10"
				Note Time="6" Value="A#2" Duration="4" Instrument="blank"
				Note Time="10" Value="G4" Duration="2" Instrument="tom" CutDelay="10"
				Note Time="12" Value="A#2" Duration="2" Instrument="blank"
				Note Time="14" Value="D#2" Duration="2" Instrument="blank"
				Note Time="16" Value="D#2" Duration="4" Instrument="blank"
				Note Time="20" Value="G5" Duration="2" Instrument="tom" CutDelay="7"
				Note Time="22" Value="C5" Duration="2" Instrument="tom" CutDelay="8"
				Note Time="24" Value="G4" Duration="2" Instrument="tom" CutDelay="9"
				Note Time="26" Value="D4" Duration="2" Instrument="tom" CutDelay="10"
				Note Time="28" Value="C1" Duration="1" Instrument="tight triangle kick" CutDelay="4"
				Note Time="29" Value="F2" Duration="3" Instrument="blank"
				Note Time="32" Value="C1" Duration="1" Instrument="tight triangle kick" CutDelay="4"
				Note Time="33" Value="D#2" Duration="3" Instrument="blank"
				Note Time="36" Value="C1" Duration="1" Instrument="tight triangle snare" CutDelay="4"
				Note Time="37" Value="D#2" Duration="1" Instrument="blank"
				Note Time="38" Value="C1" Duration="1" Instrument="tight triangle kick" CutDelay="4"
				Note Time="39" Value="D#2" Duration="3" Instrument="blank"
				Note Time="42" Value="C1" Duration="1" Instrument="tight triangle snare" CutDelay="4"
				Note Time="43" Value="D#2" Duration="1" Instrument="blank"
				Note Time="44" Value="C1" Duration="1" Instrument="tight triangle kick" CutDelay="4"
				Note Time="45" Value="D#2" Duration="2" Instrument="blank"
				Note Time="47" Value="D#2" Duration="1" Instrument="blank"
				Note Time="48" Value="C1" Duration="2" Instrument="tight triangle kick" CutDelay="4"
				Note Time="50" Value="F2" Duration="2" Instrument="blank"
				Note Time="52" Value="C1" Duration="1" Instrument="tight triangle snare" CutDelay="4"
				Note Time="53" Value="F2" Duration="1" Instrument="blank"
				Note Time="54" Value="C1" Duration="1" Instrument="tight triangle kick" CutDelay="4"
				Note Time="55" Value="F2" Duration="3" Instrument="blank"
				Note Time="58" Value="C1" Duration="1" Instrument="tight triangle snare" CutDelay="4"
				Note Time="59" Value="F5" Duration="1" Instrument="tom"
				Note Time="60" Value="C1" Duration="1" Instrument="tight triangle kick" CutDelay="4"
				Note Time="61" Value="C5" Duration="1" Instrument="tom"
				Note Time="62" Value="A4" Duration="1" Instrument="tom"
				Note Time="63" Value="D4" Duration="1" Instrument="tom"
			Pattern Name="05" Color="65f2ff"
				Note Time="0" Value="C1" Duration="1" Instrument="tight triangle kick"
				Note Time="1" Value="G2" Duration="1" Instrument="blank"
				Note Time="2" Value="G2" Duration="2" Instrument="blank"
				Note Time="4" Value="C1" Duration="1" Instrument="tight triangle snare"
				Note Time="5" Value="G2" Duration="7" Instrument="blank"
				Note Time="12" Value="C1" Duration="1" Instrument="tight triangle snare"
				Note Time="13" Value="G2" Duration="1" Instrument="blank"
				Note Time="14" Value="G2" Duration="2" Instrument="blank"
				Note Time="18" Value="G2" Duration="2" Instrument="blank"
				Note Time="20" Value="C1" Duration="1" Instrument="tight triangle snare"
				Note Time="21" Value="G2" Duration="7" Instrument="blank"
				Note Time="28" Value="C1" Duration="1" Instrument="tight triangle snare"
				Note Time="29" Value="G2" Duration="1" Instrument="blank"
				Note Time="30" Value="G2" Duration="2" Instrument="blank"
				Note Time="34" Value="D#2" Duration="2" Instrument="blank"
				Note Time="36" Value="C1" Duration="1" Instrument="tight triangle snare"
				Note Time="37" Value="D#2" Duration="7" Instrument="blank"
				Note Time="44" Value="C1" Duration="1" Instrument="tight triangle snare"
				Note Time="45" Value="D#2" Duration="1" Instrument="blank"
				Note Time="46" Value="D#2" Duration="2" Instrument="blank"
				Note Time="50" Value="F2" Duration="2" Instrument="blank"
				Note Time="52" Value="C1" Duration="1" Instrument="tight triangle snare"
				Note Time="53" Value="F2" Duration="5" Instrument="blank"
				Note Time="58" Value="C1" Duration="1" Instrument="tight triangle snare"
				Note Time="59" Value="F2" Duration="3" Instrument="blank"
				Note Time="62" Value="C1" Duration="1" Instrument="tight triangle snare" CutDelay="1"
				Note Time="63" Value="F2" Duration="1" Instrument="blank"
			Pattern Name="04" Color="d863ec"
				Note Time="1" Value="G2" Duration="1" Instrument="blank"
				Note Time="2" Value="G2" Duration="2" Instrument="blank"
				Note Time="4" Value="D1" Duration="1" Instrument="tight triangle snare"
				Note Time="5" Value="G2" Duration="1" Instrument="blank"
				Note Time="6" Value="G3" Duration="2" Instrument="tom" CutDelay="8"
				Note Time="8" Value="D3" Duration="2" Instrument="tom" CutDelay="8"
				Note Time="10" Value="A2" Duration="2" Instrument="tom" CutDelay="8"
				Note Time="12" Value="D1" Duration="2" Instrument="tight triangle snare" CutDelay="4"
				Note Time="14" Value="G2" Duration="2" Instrument="blank"
				Note Time="18" Value="G2" Duration="2" Instrument="blank"
				Note Time="20" Value="D1" Duration="1" Instrument="tight triangle snare" CutDelay="4"
				Note Time="21" Value="G2" Duration="1" Instrument="blank"
				Note Time="22" Value="G3" Duration="2" Instrument="tom" CutDelay="8"
				Note Time="24" Value="D3" Duration="2" Instrument="tom" CutDelay="8"
				Note Time="26" Value="A2" Duration="2" Instrument="tom" CutDelay="8"
				Note Time="28" Value="D1" Duration="2" Instrument="tight triangle snare" CutDelay="4"
				Note Time="30" Value="G2" Duration="2" Instrument="blank"
				Note Time="34" Value="D#2" Duration="2" Instrument="blank"
				Note Time="36" Value="D1" Duration="1" Instrument="tight triangle snare" CutDelay="4"
				Note Time="37" Value="D#2" Duration="1" Instrument="blank"
				Note Time="38" Value="G3" Duration="2" Instrument="tom" CutDelay="8"
				Note Time="40" Value="D3" Duration="2" Instrument="tom" CutDelay="8"
				Note Time="42" Value="A2" Duration="2" Instrument="tom" CutDelay="8"
				Note Time="44" Value="D1" Duration="2" Instrument="tight triangle snare" CutDelay="4"
				Note Time="46" Value="D#2" Duration="2" Instrument="blank"
				Note Time="50" Value="F2" Duration="2" Instrument="blank"
				Note Time="52" Value="D1" Duration="1" Instrument="tight triangle snare" CutDelay="4"
				Note Time="53" Value="F2" Duration="1" Instrument="blank"
				Note Time="54" Value="G3" Duration="2" Instrument="tom" CutDelay="8"
				Note Time="56" Value="D3" Duration="2" Instrument="tom" CutDelay="8"
				Note Time="58" Value="D1" Duration="2" Instrument="tight triangle snare" CutDelay="4"
				Note Time="60" Value="F2" Duration="2" Instrument="blank"
				Note Time="62" Value="D1" Duration="2" Instrument="tight triangle snare" CutDelay="4"
			Pattern Name="06" Color="ff935e"
				Note Time="0" Value="C1" Duration="1" Instrument="tight triangle kick" CutDelay="4"
				Note Time="1" Value="G2" Duration="3" Instrument="blank"
				Note Time="4" Value="D1" Duration="1" Instrument="tight triangle snare" CutDelay="4"
				Note Time="5" Value="G2" Duration="1" Instrument="blank"
				Note Time="6" Value="C1" Duration="1" Instrument="tight triangle kick" CutDelay="4"
				Note Time="7" Value="G2" Duration="3" Instrument="blank"
				Note Time="10" Value="C1" Duration="1" Instrument="tight triangle kick" CutDelay="4"
				Note Time="11" Value="G2" Duration="1" Instrument="blank"
				Note Time="12" Value="D1" Duration="1" Instrument="tight triangle snare" CutDelay="4"
				Note Time="13" Value="G2" Duration="1" Instrument="blank"
				Note Time="14" Value="A#2" Duration="2" Instrument="blank"
				Note Time="16" Value="C1" Duration="1" Instrument="tight triangle kick" CutDelay="4"
				Note Time="17" Value="A#2" Duration="3" Instrument="blank"
				Note Time="20" Value="D1" Duration="1" Instrument="tight triangle snare" CutDelay="4"
				Note Time="21" Value="A#2" Duration="1" Instrument="blank"
				Note Time="22" Value="C1" Duration="1" Instrument="tight triangle kick" CutDelay="4"
				Note Time="23" Value="A2" Duration="3" Instrument="blank"
				Note Time="26" Value="C1" Duration="1" Instrument="tight triangle kick" CutDelay="4"
				Note Time="27" Value="A2" Duration="1" Instrument="blank"
				Note Time="28" Value="D1" Duration="1" Instrument="tight triangle snare" CutDelay="4"
				Note Time="29" Value="A2" Duration="3" Instrument="blank"
				Note Time="32" Value="C1" Duration="1" Instrument="tight triangle kick" CutDelay="4"
				Note Time="33" Value="G2" Duration="3" Instrument="blank"
				Note Time="36" Value="D1" Duration="1" Instrument="tight triangle snare" CutDelay="4"
				Note Time="37" Value="G2" Duration="1" Instrument="blank"
				Note Time="38" Value="C1" Duration="1" Instrument="tight triangle kick" CutDelay="4"
				Note Time="39" Value="G2" Duration="3" Instrument="blank"
				Note Time="42" Value="C1" Duration="1" Instrument="tight triangle kick" CutDelay="4"
				Note Time="43" Value="G2" Duration="1" Instrument="blank"
				Note Time="44" Value="D1" Duration="1" Instrument="tight triangle snare" CutDelay="4"
				Note Time="45" Value="G2" Duration="1" Instrument="blank"
				Note Time="46" Value="C3" Duration="2" Instrument="blank"
				Note Time="48" Value="C1" Duration="1" Instrument="tight triangle kick" CutDelay="4"
				Note Time="49" Value="C3" Duration="3" Instrument="blank"
				Note Time="52" Value="D1" Duration="1" Instrument="tight triangle snare" CutDelay="4"
				Note Time="53" Value="C3" Duration="1" Instrument="blank"
				Note Time="54" Value="C1" Duration="1" Instrument="tight triangle kick" CutDelay="4"
				Note Time="55" Value="A#2" Duration="3" Instrument="blank"
				Note Time="58" Value="C1" Duration="1" Instrument="tight triangle kick" CutDelay="4"
				Note Time="59" Value="A#2" Duration="1" Instrument="blank"
				Note Time="60" Value="D1" Duration="1" Instrument="tight triangle snare" CutDelay="4"
				Note Time="61" Value="A#2" Duration="3" Instrument="blank"
			Pattern Name="07" Color="fcff6f"
				Note Time="0" Value="C1" Duration="1" Instrument="tight triangle kick" CutDelay="4"
				Note Time="1" Value="G2" Duration="3" Instrument="blank"
				Note Time="4" Value="D1" Duration="1" Instrument="tight triangle snare" CutDelay="4"
				Note Time="5" Value="G2" Duration="1" Instrument="blank"
				Note Time="6" Value="C1" Duration="1" Instrument="tight triangle kick" CutDelay="4"
				Note Time="7" Value="G2" Duration="3" Instrument="blank"
				Note Time="10" Value="C1" Duration="1" Instrument="tight triangle kick" CutDelay="4"
				Note Time="11" Value="G2" Duration="1" Instrument="blank"
				Note Time="12" Value="D1" Duration="1" Instrument="tight triangle snare" CutDelay="4"
				Note Time="13" Value="G2" Duration="1" Instrument="blank"
				Note Time="14" Value="A#2" Duration="2" Instrument="blank"
				Note Time="16" Value="C1" Duration="1" Instrument="tight triangle kick" CutDelay="4"
				Note Time="17" Value="A#2" Duration="3" Instrument="blank"
				Note Time="20" Value="D1" Duration="1" Instrument="tight triangle snare" CutDelay="4"
				Note Time="21" Value="A#2" Duration="1" Instrument="blank"
				Note Time="22" Value="C1" Duration="1" Instrument="tight triangle kick" CutDelay="4"
				Note Time="23" Value="A2" Duration="3" Instrument="blank"
				Note Time="26" Value="C1" Duration="1" Instrument="tight triangle kick" CutDelay="4"
				Note Time="27" Value="A2" Duration="1" Instrument="blank"
				Note Time="28" Value="D1" Duration="1" Instrument="tight triangle snare" CutDelay="4"
				Note Time="29" Value="A2" Duration="3" Instrument="blank"
				Note Time="32" Value="C1" Duration="1" Instrument="tight triangle kick" CutDelay="4"
				Note Time="33" Value="G2" Duration="3" Instrument="blank"
				Note Time="36" Value="D1" Duration="1" Instrument="tight triangle snare" CutDelay="4"
				Note Time="37" Value="G2" Duration="1" Instrument="blank"
				Note Time="38" Value="C1" Duration="1" Instrument="tight triangle kick" CutDelay="4"
				Note Time="39" Value="G2" Duration="3" Instrument="blank"
				Note Time="42" Value="C1" Duration="1" Instrument="tight triangle kick" CutDelay="4"
				Note Time="43" Value="G2" Duration="1" Instrument="blank"
				Note Time="44" Value="D1" Duration="1" Instrument="tight triangle snare" CutDelay="4"
				Note Time="45" Value="G2" Duration="1" Instrument="blank"
				Note Time="46" Value="D3" Duration="2" Instrument="blank"
				Note Time="48" Value="C1" Duration="1" Instrument="tight triangle kick" CutDelay="4"
				Note Time="49" Value="G3" Duration="1" Instrument="blank"
				Note Time="50" Value="F3" Duration="2" Instrument="blank"
				Note Time="52" Value="D1" Duration="1" Instrument="tight triangle snare" CutDelay="4"
				Note Time="53" Value="D3" Duration="1" Instrument="blank"
				Note Time="54" Value="C1" Duration="1" Instrument="tight triangle kick" CutDelay="4"
				Note Time="55" Value="E3" Duration="3" Instrument="blank"
				Note Time="58" Value="C1" Duration="1" Instrument="tight triangle kick" CutDelay="4"
				Note Time="59" Value="D3" Duration="1" Instrument="blank"
				Note Time="60" Value="D1" Duration="1" Instrument="tight triangle snare" CutDelay="4"
				Note Time="61" Value="A#2" Duration="3" Instrument="blank"
			Pattern Name="08" Color="3cd3e3"
				Note Time="0" Value="C1" Duration="1" Instrument="tight triangle kick" CutDelay="4"
				Note Time="1" Value="G2" Duration="3" Instrument="blank"
				Note Time="4" Value="D1" Duration="1" Instrument="tight triangle snare" CutDelay="4"
				Note Time="5" Value="G2" Duration="1" Instrument="blank"
				Note Time="6" Value="C1" Duration="1" Instrument="tight triangle kick" CutDelay="4"
				Note Time="7" Value="A#2" Duration="3" Instrument="blank"
				Note Time="10" Value="C1" Duration="1" Instrument="tight triangle kick" CutDelay="4"
				Note Time="11" Value="A#2" Duration="1" Instrument="blank"
				Note Time="12" Value="D1" Duration="1" Instrument="tight triangle snare" CutDelay="4"
				Note Time="13" Value="A#2" Duration="1" Instrument="blank"
				Note Time="14" Value="C3" Duration="2" Instrument="blank"
				Note Time="16" Value="C1" Duration="1" Instrument="tight triangle kick" CutDelay="4"
				Note Time="17" Value="C3" Duration="3" Instrument="blank"
				Note Time="20" Value="D1" Duration="1" Instrument="tight triangle snare" CutDelay="4"
				Note Time="21" Value="C3" Duration="1" Instrument="blank"
				Note Time="22" Value="C1" Duration="1" Instrument="tight triangle kick" CutDelay="4"
				Note Time="23" Value="A#2" Duration="3" Instrument="blank"
				Note Time="26" Value="C1" Duration="1" Instrument="tight triangle kick" CutDelay="4"
				Note Time="27" Value="A#2" Duration="1" Instrument="blank"
				Note Time="28" Value="D1" Duration="1" Instrument="tight triangle snare" CutDelay="4"
				Note Time="29" Value="A#2" Duration="3" Instrument="blank"
				Note Time="32" Value="C1" Duration="1" Instrument="tight triangle kick" CutDelay="4"
				Note Time="33" Value="G2" Duration="3" Instrument="blank"
				Note Time="36" Value="D1" Duration="1" Instrument="tight triangle snare" CutDelay="4"
				Note Time="37" Value="G2" Duration="1" Instrument="blank"
				Note Time="38" Value="C1" Duration="1" Instrument="tight triangle kick" CutDelay="4"
				Note Time="39" Value="A#2" Duration="3" Instrument="blank"
				Note Time="42" Value="C1" Duration="1" Instrument="tight triangle kick" CutDelay="4"
				Note Time="43" Value="A#2" Duration="1" Instrument="blank"
				Note Time="44" Value="D1" Duration="1" Instrument="tight triangle snare" CutDelay="4"
				Note Time="45" Value="A#2" Duration="1" Instrument="blank"
				Note Time="46" Value="C3" Duration="2" Instrument="blank"
				Note Time="48" Value="C1" Duration="1" Instrument="tight triangle kick" CutDelay="4"
				Note Time="49" Value="C3" Duration="3" Instrument="blank"
				Note Time="52" Value="D1" Duration="1" Instrument="tight triangle snare" CutDelay="4"
				Note Time="53" Value="C3" Duration="1" Instrument="blank"
				Note Time="54" Value="C1" Duration="1" Instrument="tight triangle kick" CutDelay="4"
				Note Time="55" Value="C3" Duration="3" Instrument="blank"
				Note Time="58" Value="C1" Duration="1" Instrument="tight triangle kick" CutDelay="4"
				Note Time="59" Value="C3" Duration="1" Instrument="blank"
				Note Time="60" Value="D1" Duration="1" Instrument="tight triangle snare" CutDelay="4"
				Note Time="61" Value="C3" Duration="3" Instrument="blank"
			Pattern Name="09" Color="8163dc"
				Note Time="0" Value="C1" Duration="1" Instrument="tight triangle kick" CutDelay="4"
				Note Time="1" Value="D#2" Duration="3" Instrument="blank"
				Note Time="4" Value="C1" Duration="1" Instrument="tight triangle snare" CutDelay="4"
				Note Time="5" Value="D#2" Duration="1" Instrument="blank"
				Note Time="6" Value="C1" Duration="1" Instrument="tight triangle kick" CutDelay="4"
				Note Time="7" Value="D#2" Duration="3" Instrument="blank"
				Note Time="10" Value="C1" Duration="1" Instrument="tight triangle snare" CutDelay="4"
				Note Time="11" Value="D#2" Duration="1" Instrument="blank"
				Note Time="12" Value="C1" Duration="1" Instrument="tight triangle kick" CutDelay="4"
				Note Time="13" Value="D#2" Duration="3" Instrument="blank"
				Note Time="16" Value="C1" Duration="1" Instrument="tight triangle snare" CutDelay="4"
				Note Time="17" Value="D#2" Duration="1" Instrument="blank"
				Note Time="18" Value="C1" Duration="1" Instrument="tight triangle kick" CutDelay="4"
				Note Time="19" Value="D#2" Duration="3" Instrument="blank"
				Note Time="22" Value="C1" Duration="1" Instrument="tight triangle snare" CutDelay="4"
				Note Time="23" Value="D#2" Duration="1" Instrument="blank"
				Note Time="24" Value="C1" Duration="1" Instrument="tight triangle kick" CutDelay="4"
				Note Time="25" Value="D#2" Duration="3" Instrument="blank"
				Note Time="28" Value="C1" Duration="1" Instrument="tight triangle snare" CutDelay="4"
				Note Time="29" Value="D#2" Duration="3" Instrument="blank"
				Note Time="32" Value="C1" Duration="1" Instrument="tight triangle kick" CutDelay="4"
				Note Time="33" Value="G2" Duration="3" Instrument="blank"
				Note Time="36" Value="D1" Duration="1" Instrument="tight triangle snare" CutDelay="4"
				Note Time="37" Value="G2" Duration="1" Instrument="blank"
				Note Time="38" Value="C1" Duration="1" Instrument="tight triangle kick" CutDelay="4"
				Note Time="39" Value="A#2" Duration="3" Instrument="blank"
				Note Time="42" Value="C1" Duration="1" Instrument="tight triangle kick" CutDelay="4"
				Note Time="43" Value="A#2" Duration="1" Instrument="blank"
				Note Time="44" Value="D1" Duration="1" Instrument="tight triangle snare" CutDelay="4"
				Note Time="45" Value="A#2" Duration="1" Instrument="blank"
				Note Time="46" Value="C3" Duration="2" Instrument="blank"
				Note Time="48" Value="C1" Duration="1" Instrument="tight triangle kick" CutDelay="4"
				Note Time="49" Value="C3" Duration="3" Instrument="blank"
				Note Time="52" Value="D1" Duration="1" Instrument="tight triangle snare" CutDelay="4"
				Note Time="53" Value="C3" Duration="1" Instrument="blank"
				Note Time="54" Value="C1" Duration="1" Instrument="tight triangle kick" CutDelay="4"
				Note Time="55" Value="C3" Duration="1" Instrument="blank"
				Note Time="56" Value="G4" Duration="1" Instrument="tom"
				Note Time="57" Value="G2" Duration="1" Instrument="blank"
				Note Time="58" Value="D4" Duration="1" Instrument="tom"
				Note Time="59" Value="G2" Duration="1" Instrument="blank"
				Note Time="60" Value="A3" Duration="1" Instrument="tom"
				Note Time="61" Value="G2" Duration="1" Instrument="blank"
				Note Time="62" Value="E3" Duration="1" Instrument="tom"
				Note Time="63" Value="E2" Duration="1" Instrument="tom"
			Pattern Name="0B" Color="8a706a"
				Note Time="0" Value="C1" Duration="1" Instrument="tight triangle kick"
			Pattern Name="0C" Color="ffffb2"
				Note Time="0" Value="C1" Duration="1" Instrument="tight triangle kick"
				Note Time="52" Value="C1" Duration="2" Instrument="tight triangle snare"
				Note Time="54" Value="C1" Duration="1" Instrument="tight triangle snare"
				Note Time="55" Value="C1" Duration="1" Instrument="tight triangle snare"
				Note Time="56" Value="C1" Duration="2" Instrument="tight triangle snare"
				Note Time="58" Value="C1" Duration="2" Instrument="tight triangle snare"
				Note Time="60" Value="C1" Duration="2" Instrument="tight triangle snare"
				Note Time="62" Value="C1" Duration="2" Instrument="tight triangle snare"
			PatternInstance Time="0" Pattern="00"
			PatternInstance Time="1" Pattern="01"
			PatternInstance Time="2" Pattern="02"
			PatternInstance Time="3" Pattern="02"
			PatternInstance Time="4" Pattern="03"
			PatternInstance Time="5" Pattern="05"
			PatternInstance Time="6" Pattern="05"
			PatternInstance Time="7" Pattern="04"
			PatternInstance Time="8" Pattern="04"
			PatternInstance Time="9" Pattern="06"
			PatternInstance Time="10" Pattern="07"
			PatternInstance Time="11" Pattern="08"
			PatternInstance Time="12" Pattern="09"
			PatternInstance Time="13" Pattern="0B"
			PatternInstance Time="14" Pattern="0C"
			PatternInstance Time="15" Pattern="0B"
		Channel Type="Noise"
			Pattern Name="00" Color="62e2d6"
				Note Time="0" Value="E3" Duration="4" Instrument="cymbal" Volume="6" VolumeSlideTarget="0"
				Note Time="3" Volume="0"
				Note Time="4" Value="E3" Duration="2" Instrument="clap" Volume="8" VolumeSlideTarget="2"
				Note Time="6" Value="A3" Duration="6" Instrument="hat" Volume="4" VolumeSlideTarget="0"
				Note Time="8" Volume="0"
				Note Time="12" Value="E3" Duration="2" Instrument="clap" Volume="8" VolumeSlideTarget="2"
				Note Time="14" Value="A3" Duration="6" Instrument="hat" Volume="4" VolumeSlideTarget="0"
				Note Time="16" Volume="0"
				Note Time="20" Value="E3" Duration="6" Instrument="clap" Volume="9" VolumeSlideTarget="0"
				Note Time="24" Volume="0"
				Note Time="26" Value="A3" Duration="2" Instrument="hat" Volume="4" VolumeSlideTarget="0"
				Note Time="28" Value="E3" Duration="2" Instrument="clap" Volume="9" VolumeSlideTarget="3"
				Note Time="30" Value="A3" Duration="6" Instrument="hat" Volume="4" VolumeSlideTarget="0"
				Note Time="32" Volume="0"
				Note Time="36" Value="E3" Duration="2" Instrument="clap" Volume="10" VolumeSlideTarget="4"
				Note Time="38" Value="G#3" Duration="6" Instrument="hat" Volume="4" VolumeSlideTarget="0"
				Note Time="40" Volume="0"
				Note Time="44" Value="E3" Duration="2" Instrument="clap" Volume="10" VolumeSlideTarget="4"
				Note Time="46" Value="G#3" Duration="6" Instrument="hat" Volume="4" VolumeSlideTarget="0"
				Note Time="48" Volume="0"
				Note Time="52" Value="E3" Duration="2" Instrument="clap" Volume="11" VolumeSlideTarget="5"
				Note Time="54" Value="G#3" Duration="4" Instrument="hat" Volume="1" VolumeSlideTarget="0"
				Note Time="55" Volume="0"
				Note Time="58" Value="G#3" Duration="2" Instrument="hat" Volume="4" VolumeSlideTarget="0"
				Note Time="60" Value="E3" Duration="2" Instrument="clap" Volume="11" VolumeSlideTarget="5"
				Note Time="62" Value="G#3" Duration="6" Instrument="hat" Volume="10" VolumeSlideTarget="0"
			Pattern Name="01" Color="7b8df1"
				Note Time="2" Volume="0"
				Note Time="4" Value="E3" Duration="2" Instrument="clap" Volume="12" VolumeSlideTarget="6"
				Note Time="6" Value="A3" Duration="6" Instrument="hat" Volume="6" VolumeSlideTarget="0"
				Note Time="9" Volume="0"
				Note Time="12" Value="E3" Duration="2" Instrument="clap" Volume="12" VolumeSlideTarget="6"
				Note Time="14" Value="A3" Duration="6" Instrument="hat" Volume="6" VolumeSlideTarget="0"
				Note Time="17" Volume="0"
				Note Time="20" Value="E3" Duration="6" Instrument="clap" Volume="12" VolumeSlideTarget="0"
				Note Time="25" Volume="0"
				Note Time="26" Value="A3" Duration="2" Instrument="hat" Volume="7" VolumeSlideTarget="1"
				Note Time="28" Value="E3" Duration="2" Instrument="clap" Volume="12" VolumeSlideTarget="6"
				Note Time="30" Value="A3" Duration="6" Instrument="hat" Volume="7" VolumeSlideTarget="0"
				Note Time="33" Volume="0"
				Note Time="36" Value="E3" Duration="2" Instrument="clap" Volume="12" VolumeSlideTarget="6"
				Note Time="38" Value="A3" Duration="6" Instrument="hat" Volume="8" VolumeSlideTarget="0"
				Note Time="41" Volume="0"
				Note Time="44" Value="E3" Duration="2" Instrument="clap" Volume="12" VolumeSlideTarget="6"
				Note Time="46" Value="A3" Duration="6" Instrument="hat" Volume="8" VolumeSlideTarget="0"
				Note Time="49" Volume="0"
				Note Time="52" Value="E3" Duration="6" Instrument="clap" Volume="12" VolumeSlideTarget="0"
				Note Time="57" Volume="0"
				Note Time="58" Value="A3" Duration="2" Instrument="hat" Volume="8" VolumeSlideTarget="2"
				Note Time="60" Value="E3" Duration="2" Instrument="clap" Volume="12" VolumeSlideTarget="6"
				Note Time="62" Value="G#3" Duration="2" Instrument="blank" Volume="1" VolumeSlideTarget="10"
			Pattern Name="02" Color="ff7571"
				Note Time="0" Value="G3" Duration="4" Instrument="cymbal" Volume="12"
				Note Time="4" Value="E3" Duration="2" Instrument="clap" Volume="13"
				Note Time="6" Value="A3" Duration="6" Instrument="hat" Volume="8"
				Note Time="12" Value="E3" Duration="2" Instrument="clap" Volume="13"
				Note Time="14" Value="A3" Duration="6" Instrument="hat" Volume="8"
				Note Time="20" Value="E3" Duration="6" Instrument="clap" Volume="13"
				Note Time="26" Value="A3" Duration="2" Instrument="hat" Volume="8"
				Note Time="28" Value="E3" Duration="2" Instrument="clap" Volume="13"
				Note Time="30" Value="A3" Duration="6" Instrument="hat" Volume="8"
				Note Time="36" Value="E3" Duration="2" Instrument="clap" Volume="13"
				Note Time="38" Value="A3" Duration="6" Instrument="hat" Volume="8"
				Note Time="44" Value="E3" Duration="2" Instrument="clap" Volume="13"
				Note Time="46" Value="A3" Duration="6" Instrument="hat" Volume="8"
				Note Time="52" Value="E3" Duration="6" Instrument="clap" Volume="13"
				Note Time="58" Value="A3" Duration="2" Instrument="hat" Volume="8"
				Note Time="60" Value="E3" Duration="2" Instrument="clap" Volume="13"
				Note Time="62" Value="G#3" Duration="2" Instrument="blank" Volume="1" VolumeSlideTarget="10"
			Pattern Name="03" Color="ffef3c"
				Note Time="0" Value="G3" Duration="4" Instrument="cymbal" Volume="15"
				Note Time="4" Value="E3" Duration="2" Instrument="clap" Volume="13"
				Note Time="6" Value="G3" Duration="4" Instrument="cymbal" Volume="15"
				Note Time="10" Value="F3" Duration="2" Instrument="hat" Volume="15"
				Note Time="12" Value="E3" Duration="2" Instrument="clap" Volume="13"
				Note Time="14" Value="A3" Duration="6" Instrument="hat" Volume="8"
				Note Time="20" Value="E3" Duration="6" Instrument="clap" Volume="13"
				Note Time="26" Value="A3" Duration="2" Instrument="hat" Volume="8"
				Note Time="28" Value="G3" Duration="4" Instrument="cymbal" Volume="15"
				Note Time="32" Value="G3" Duration="4" Instrument="cymbal" Volume="15"
				Note Time="36" Value="G#3" Duration="2" Instrument="snare" Volume="15"
				Note Time="38" Value="A3" Duration="4" Instrument="hat" Volume="8"
				Note Time="42" Value="G#3" Duration="4" Instrument="snare" Volume="15"
				Note Time="46" Value="A3" Duration="6" Instrument="hat" Volume="8"
				Note Time="52" Value="G#3" Duration="4" Instrument="snare" Volume="15"
				Note Time="56" Value="G#3" Duration="2" Instrument="blank" Volume="1" VolumeSlideTarget="3"
				Note Time="58" Value="G#3" Duration="2" Instrument="snare" Volume="15"
				Note Time="60" Value="A#2" Duration="1" Instrument="snare" Volume="15"
				Note Time="61" Value="A#2" Duration="1" Instrument="snare"
				Note Time="62" Value="F3" Duration="1" Instrument="blank" Volume="10" VolumeSlideTarget="1"
				Note Time="63" Value="G3" Duration="1" Instrument="blank" Volume="15" VolumeSlideTarget="6"
			Pattern Name="04" Color="74ca78"
				Note Time="0" Value="F#3" Duration="4" Instrument="cymbal" Volume="15"
				Note Time="4" Value="A#3" Duration="2" Instrument="snare"
				Note Time="6" Value="A3" Duration="2" Instrument="kick"
				Note Time="8" Value="G#3" Duration="2" Instrument="kick"
				Note Time="10" Value="G3" Duration="2" Instrument="kick"
				Note Time="12" Value="A#3" Duration="2" Instrument="snare"
				Note Time="14" Value="F#3" Duration="2" Instrument="hat"
				Note Time="16" Value="G#3" Duration="2" Instrument="kick" Volume="15"
				Note Time="18" Value="F#3" Duration="2" Instrument="hat"
				Note Time="20" Value="A#3" Duration="2" Instrument="snare"
				Note Time="22" Value="A3" Duration="2" Instrument="kick"
				Note Time="24" Value="G#3" Duration="2" Instrument="kick"
				Note Time="26" Value="G3" Duration="2" Instrument="kick"
				Note Time="28" Value="A#3" Duration="2" Instrument="snare"
				Note Time="30" Value="F#3" Duration="2" Instrument="hat"
				Note Time="32" Value="G#3" Duration="2" Instrument="kick" Volume="15"
				Note Time="34" Value="F#3" Duration="2" Instrument="hat"
				Note Time="36" Value="A#3" Duration="2" Instrument="snare"
				Note Time="38" Value="A3" Duration="2" Instrument="kick"
				Note Time="40" Value="G#3" Duration="2" Instrument="kick"
				Note Time="42" Value="G3" Duration="2" Instrument="kick"
				Note Time="44" Value="A#3" Duration="2" Instrument="snare"
				Note Time="46" Value="F#3" Duration="2" Instrument="hat"
				Note Time="48" Value="G#3" Duration="2" Instrument="kick" Volume="15"
				Note Time="50" Value="F#3" Duration="2" Instrument="hat"
				Note Time="52" Value="A#3" Duration="2" Instrument="snare"
				Note Time="54" Value="A3" Duration="2" Instrument="kick"
				Note Time="56" Value="G#3" Duration="2" Instrument="kick"
				Note Time="58" Value="A#3" Duration="2" Instrument="snare"
				Note Time="60" Value="F#3" Duration="2" Instrument="hat"
				Note Time="62" Value="A#3" Duration="2" Instrument="snare"
			Pattern Name="05" Color="51a1fc"
				Note Time="0" Value="F#3" Duration="4" Instrument="cymbal" Volume="15"
				Note Time="4" Value="A#3" Duration="2" Instrument="snare"
				Note Time="6" Value="A3" Duration="2" Instrument="kick"
				Note Time="8" Value="G#3" Duration="2" Instrument="kick"
				Note Time="10" Value="G3" Duration="2" Instrument="kick"
				Note Time="12" Value="A#3" Duration="2" Instrument="snare"
				Note Time="14" Value="F#3" Duration="2" Instrument="hat"
				Note Time="16" Value="G#3" Duration="2" Instrument="kick"
				Note Time="18" Value="F#3" Duration="2" Instrument="hat"
				Note Time="20" Value="A#3" Duration="2" Instrument="snare"
				Note Time="22" Value="A3" Duration="2" Instrument="kick"
				Note Time="24" Value="G#3" Duration="2" Instrument="kick"
				Note Time="26" Value="G3" Duration="2" Instrument="kick"
				Note Time="28" Value="A#3" Duration="2" Instrument="snare"
				Note Time="30" Value="F#3" Duration="2" Instrument="hat"
				Note Time="32" Value="G#3" Duration="2" Instrument="kick"
				Note Time="34" Value="F#3" Duration="2" Instrument="hat"
				Note Time="36" Value="A#3" Duration="2" Instrument="snare"
				Note Time="38" Value="A3" Duration="2" Instrument="kick"
				Note Time="40" Value="G#3" Duration="2" Instrument="kick"
				Note Time="42" Value="G3" Duration="2" Instrument="kick"
				Note Time="44" Value="A#3" Duration="2" Instrument="snare"
				Note Time="46" Value="F#3" Duration="2" Instrument="hat"
				Note Time="48" Value="G#3" Duration="2" Instrument="kick"
				Note Time="50" Value="F#3" Duration="2" Instrument="hat"
				Note Time="52" Value="A#3" Duration="2" Instrument="snare"
				Note Time="54" Value="A3" Duration="2" Instrument="kick"
				Note Time="56" Value="G#3" Duration="2" Instrument="kick"
				Note Time="58" Value="G3" Duration="2" Instrument="kick"
				Note Time="60" Value="A#3" Duration="1" Instrument="snare"
				Note Time="61" Value="G#3" Duration="3" Instrument="blank" Volume="1" VolumeSlideTarget="13"
			Pattern Name="06" Color="ff9ece"
				Note Time="0" Value="F#3" Duration="4" Instrument="cymbal" Volume="15"
				Note Time="4" Value="A#3" Duration="2" Instrument="snare"
				Note Time="6" Value="A3" Duration="2" Instrument="kick"
				Note Time="8" Value="G#3" Duration="2" Instrument="kick"
				Note Time="10" Value="G3" Duration="2" Instrument="kick"
				Note Time="12" Value="A#3" Duration="2" Instrument="snare"
				Note Time="14" Value="F#3" Duration="2" Instrument="hat"
				Note Time="16" Value="G#3" Duration="2" Instrument="kick"
				Note Time="18" Value="F#3" Duration="2" Instrument="hat"
				Note Time="20" Value="A#3" Duration="2" Instrument="snare"
				Note Time="22" Value="A3" Duration="2" Instrument="kick"
				Note Time="24" Value="G#3" Duration="2" Instrument="kick"
				Note Time="26" Value="G3" Duration="2" Instrument="kick"
				Note Time="28" Value="A#3" Duration="2" Instrument="snare"
				Note Time="30" Value="F#3" Duration="2" Instrument="hat"
				Note Time="32" Value="G#3" Duration="2" Instrument="kick"
				Note Time="34" Value="F#3" Duration="2" Instrument="hat"
				Note Time="36" Value="A#3" Duration="2" Instrument="snare"
				Note Time="38" Value="A3" Duration="2" Instrument="kick"
				Note Time="40" Value="G#3" Duration="2" Instrument="kick"
				Note Time="42" Value="G3" Duration="2" Instrument="kick"
				Note Time="44" Value="A#3" Duration="2" Instrument="snare"
				Note Time="46" Value="F#3" Duration="2" Instrument="hat"
				Note Time="48" Value="G#3" Duration="2" Instrument="kick"
				Note Time="50" Value="F#3" Duration="2" Instrument="hat"
				Note Time="52" Value="A#3" Duration="2" Instrument="snare"
				Note Time="54" Value="A3" Duration="2" Instrument="kick"
				Note Time="56" Value="G#3" Duration="2" Instrument="kick"
				Note Time="58" Value="G3" Duration="2" Instrument="kick"
				Note Time="60" Value="A#3" Duration="1" Instrument="snare"
				Note Time="61" Value="G#3" Duration="3" Instrument="blank" Volume="1" VolumeSlideTarget="13"
			Pattern Name="07" Color="fff389"
				Note Time="0" Value="F#3" Duration="4" Instrument="cymbal" Volume="15"
				Note Time="4" Value="A#3" Duration="2" Instrument="snare"
				Note Time="6" Value="A3" Duration="2" Instrument="kick"
				Note Time="8" Value="G#3" Duration="2" Instrument="kick"
				Note Time="10" Value="G3" Duration="2" Instrument="kick"
				Note Time="12" Value="A#3" Duration="2" Instrument="snare"
				Note Time="14" Value="F#3" Duration="2" Instrument="hat"
				Note Time="16" Value="G#3" Duration="2" Instrument="kick"
				Note Time="18" Value="F#3" Duration="2" Instrument="hat"
				Note Time="20" Value="A#3" Duration="2" Instrument="snare"
				Note Time="22" Value="A3" Duration="2" Instrument="kick"
				Note Time="24" Value="G#3" Duration="2" Instrument="kick"
				Note Time="26" Value="G3" Duration="2" Instrument="kick"
				Note Time="28" Value="A#3" Duration="2" Instrument="snare"
				Note Time="30" Value="F#3" Duration="2" Instrument="hat"
				Note Time="32" Value="G#3" Duration="2" Instrument="kick"
				Note Time="34" Value="F#3" Duration="2" Instrument="hat"
				Note Time="36" Value="A#3" Duration="2" Instrument="snare"
				Note Time="38" Value="A3" Duration="2" Instrument="kick"
				Note Time="40" Value="G#3" Duration="2" Instrument="kick"
				Note Time="42" Value="G3" Duration="2" Instrument="kick"
				Note Time="44" Value="A#3" Duration="2" Instrument="snare"
				Note Time="46" Value="F#3" Duration="2" Instrument="hat"
				Note Time="48" Value="G#3" Duration="2" Instrument="kick"
				Note Time="50" Value="F#3" Duration="2" Instrument="hat"
				Note Time="52" Value="A#3" Duration="2" Instrument="snare"
				Note Time="54" Value="A3" Duration="2" Instrument="kick"
				Note Time="56" Value="G#3" Duration="2" Instrument="kick"
				Note Time="58" Value="G3" Duration="2" Instrument="kick"
				Note Time="60" Value="A#3" Duration="1" Instrument="snare"
				Note Time="61" Value="G#3" Duration="3" Instrument="blank" Volume="1" VolumeSlideTarget="13"
			Pattern Name="08" Color="d8ffa1"
				Note Time="0" Value="G3" Duration="4" Instrument="cymbal" Volume="15"
				Note Time="4" Value="G#3" Duration="2" Instrument="snare" Volume="15"
				Note Time="6" Value="G3" Duration="4" Instrument="cymbal" Volume="15"
				Note Time="10" Value="G#3" Duration="2" Instrument="snare" Volume="15"
				Note Time="12" Value="G3" Duration="4" Instrument="cymbal" Volume="15"
				Note Time="16" Value="G#3" Duration="2" Instrument="snare" Volume="15"
				Note Time="18" Value="G3" Duration="4" Instrument="cymbal" Volume="15"
				Note Time="22" Value="G#3" Duration="2" Instrument="snare" Volume="15"
				Note Time="24" Value="G3" Duration="4" Instrument="cymbal" Volume="15"
				Note Time="28" Value="G#3" Duration="4" Instrument="snare" Volume="15"
				Note Time="32" Value="G#3" Duration="3" Instrument="kick"
				Note Time="35" Value="G#3" Duration="1" Instrument="kick"
				Note Time="36" Value="A#3" Duration="2" Instrument="snare"
				Note Time="38" Value="A3" Duration="2" Instrument="kick"
				Note Time="40" Value="G#3" Duration="2" Instrument="kick"
				Note Time="42" Value="G#3" Duration="2" Instrument="kick"
				Note Time="44" Value="A#3" Duration="2" Instrument="snare"
				Note Time="46" Value="G#3" Duration="2" Instrument="kick"
				Note Time="48" Value="G#3" Duration="2" Instrument="kick"
				Note Time="50" Value="F#3" Duration="1" Instrument="hat"
				Note Time="51" Value="G#3" Duration="1" Instrument="kick"
				Note Time="52" Value="A#3" Duration="2" Instrument="snare"
				Note Time="54" Value="A3" Duration="2" Instrument="kick"
				Note Time="56" Value="G#3" Duration="2" Instrument="kick"
				Note Time="58" Value="G#3" Duration="2" Instrument="kick"
				Note Time="60" Value="G#3" Duration="4" Instrument="blank" Volume="1" VolumeSlideTarget="15"
			Pattern Name="0A" Color="3fe5ff"
				Note Time="0" Value="F#3" Duration="116" Instrument="cymbal" Volume="15" VolumeSlideTarget="0"
				Note Time="22" Volume="0"
			Pattern Name="09" Color="ca60e6"
				Note Time="52" Value="G2" Duration="2" Instrument="kick" Volume="12"
				Note Time="54" Value="G2" Duration="1" Instrument="kick"
				Note Time="55" Value="G2" Duration="1" Instrument="kick"
				Note Time="56" Value="G2" Duration="2" Instrument="kick"
				Note Time="58" Value="G2" Duration="2" Instrument="kick"
				Note Time="60" Value="G2" Duration="2" Instrument="kick"
				Note Time="62" Value="G2" Duration="1" Instrument="kick"
				Note Time="63" Value="G#3" Duration="1" Instrument="blank" Volume="1" VolumeSlideTarget="12"
			PatternInstance Time="0" Pattern="00"
			PatternInstance Time="1" Pattern="01"
			PatternInstance Time="2" Pattern="02"
			PatternInstance Time="3" Pattern="02"
			PatternInstance Time="4" Pattern="03"
			PatternInstance Time="5" Pattern="04"
			PatternInstance Time="6" Pattern="04"
			PatternInstance Time="7" Pattern="04"
			PatternInstance Time="8" Pattern="04"
			PatternInstance Time="9" Pattern="05"
			PatternInstance Time="10" Pattern="06"
			PatternInstance Time="11" Pattern="07"
			PatternInstance Time="12" Pattern="08"
			PatternInstance Time="13" Pattern="0A"
			PatternInstance Time="14" Pattern="09"
			PatternInstance Time="15" Pattern="0A"
		Channel Type="DPCM"
			Pattern Name="01" Color="ebf067"
				Note Time="32" Value="D#4" Duration="4" Instrument="DMC: drums + bass"
				Note Time="36" Value="D#4" Duration="6" Instrument="DMC: drums + bass"
				Note Time="42" Value="D#4" Duration="4" Instrument="DMC: drums + bass"
				Note Time="46" Value="F4" Duration="4" Instrument="DMC: drums + bass"
				Note Time="50" Value="F4" Duration="2" Instrument="DMC: drums + bass"
				Note Time="52" Value="F4" Duration="12" Instrument="DMC: drums + bass"
			Pattern Name="02" Color="3cbfcb"
				Note Time="0" Value="G3" Duration="4" Instrument="DMC: drums + bass"
				Note Time="4" Value="G3" Duration="6" Instrument="DMC: drums + bass"
				Note Time="10" Value="G3" Duration="2" Instrument="DMC: drums + bass"
				Note Time="12" Value="F3" Duration="2" Instrument="DMC: drums + bass"
				Note Time="14" Value="G3" Duration="4" Instrument="DMC: drums + bass"
				Note Time="18" Value="G3" Duration="2" Instrument="DMC: drums + bass"
				Note Time="20" Value="G3" Duration="8" Instrument="DMC: drums + bass"
				Note Time="28" Value="G3" Duration="4" Instrument="DMC: drums + bass"
				Note Time="32" Value="D#3" Duration="4" Instrument="DMC: drums + bass"
				Note Time="36" Value="D#3" Duration="6" Instrument="DMC: drums + bass"
				Note Time="42" Value="D#3" Duration="2" Instrument="DMC: drums + bass"
				Note Time="44" Value="D#3" Duration="2" Instrument="DMC: drums + bass"
				Note Time="46" Value="D#3" Duration="4" Instrument="DMC: drums + bass"
				Note Time="50" Value="F3" Duration="2" Instrument="DMC: drums + bass"
				Note Time="52" Value="F3" Duration="6" Instrument="DMC: drums + bass"
				Note Time="58" Value="F3" Duration="2" Instrument="DMC: drums + bass"
				Note Time="60" Value="F3" Duration="4" Instrument="DMC: drums + bass"
			Pattern Name="03" Color="d1b1ff"
				Note Time="0" Value="G3" Duration="4" Instrument="DMC: drums + bass"
				Note Time="4" Value="G3" Duration="2" Instrument="DMC: drums + bass"
				Note Time="6" Value="A#3" Duration="4" Instrument="DMC: drums + bass"
				Note Time="10" Value="A#3" Duration="4" Instrument="DMC: drums + bass"
				Note Time="14" Value="D#3" Duration="2" Instrument="DMC: drums + bass"
				Note Time="16" Value="D#3" Duration="4" Instrument="DMC: drums + bass"
				Note Time="20" Value="D#3" Duration="2" Instrument="DMC: drums + bass"
				Note Time="22" Value="D#3" Duration="2" Instrument="DMC: drums + bass"
				Note Time="24" Value="F3" Duration="2" Instrument="DMC: drums + bass"
				Note Time="26" Value="F3" Duration="2" Instrument="DMC: drums + bass"
				Note Time="28" Value="F3" Duration="4" Instrument="DMC: drums + bass"
				Note Time="32" Value="D#3" Duration="4" Instrument="DMC: drums + bass"
				Note Time="36" Value="D#3" Duration="6" Instrument="DMC: drums + bass"
				Note Time="42" Value="D#3" Duration="2" Instrument="DMC: drums + bass"
				Note Time="44" Value="D#3" Duration="2" Instrument="DMC: drums + bass"
				Note Time="46" Value="D#3" Duration="4" Instrument="DMC: drums + bass"
				Note Time="50" Value="F3" Duration="2" Instrument="DMC: drums + bass"
				Note Time="52" Value="F3" Duration="6" Instrument="DMC: drums + bass"
				Note Time="58" Value="F3" Duration="2" Instrument="DMC: drums + bass"
				Note Time="60" Value="F3" Duration="2" Instrument="DMC: drums + bass"
				Note Time="62" Value="F3" Duration="2" Instrument="DMC: drums + bass"
			Pattern Name="04" Color="ddc4bb"
				Note Time="0" Value="E5" Duration="2" Instrument="DMC: drums + bass"
				Note Time="2" Value="G3" Duration="2" Instrument="DMC: drums + bass"
				Note Time="4" Value="F5" Duration="2" Instrument="DMC: drums + bass"
				Note Time="6" Value="G3" Duration="4" Instrument="DMC: drums + bass"
				Note Time="10" Value="G3" Duration="2" Instrument="DMC: drums + bass"
				Note Time="12" Value="F5" Duration="2" Instrument="DMC: drums + bass"
				Note Time="14" Value="G3" Duration="2" Instrument="DMC: drums + bass"
				Note Time="16" Value="E5" Duration="2" Instrument="DMC: drums + bass"
				Note Time="18" Value="G3" Duration="2" Instrument="DMC: drums + bass"
				Note Time="20" Value="F5" Duration="2" Instrument="DMC: drums + bass"
				Note Time="22" Value="G3" Duration="4" Instrument="DMC: drums + bass"
				Note Time="26" Value="G3" Duration="2" Instrument="DMC: drums + bass"
				Note Time="28" Value="F5" Duration="2" Instrument="DMC: drums + bass"
				Note Time="30" Value="G3" Duration="2" Instrument="DMC: drums + bass"
				Note Time="32" Value="E5" Duration="2" Instrument="DMC: drums + bass"
				Note Time="34" Value="D#3" Duration="2" Instrument="DMC: drums + bass"
				Note Time="36" Value="F5" Duration="2" Instrument="DMC: drums + bass"
				Note Time="38" Value="D#3" Duration="4" Instrument="DMC: drums + bass"
				Note Time="42" Value="D#3" Duration="2" Instrument="DMC: drums + bass"
				Note Time="44" Value="F5" Duration="2" Instrument="DMC: drums + bass"
				Note Time="46" Value="D#3" Duration="2" Instrument="DMC: drums + bass"
				Note Time="48" Value="E5" Duration="2" Instrument="DMC: drums + bass"
				Note Time="50" Value="F3" Duration="2" Instrument="DMC: drums + bass"
				Note Time="52" Value="F5" Duration="2" Instrument="DMC: drums + bass"
				Note Time="54" Value="F3" Duration="4" Instrument="DMC: drums + bass"
				Note Time="58" Value="F5" Duration="2" Instrument="DMC: drums + bass"
				Note Time="60" Value="F3" Duration="2" Instrument="DMC: drums + bass"
				Note Time="62" Value="F5" Duration="2" Instrument="DMC: drums + bass"
			Pattern Name="05" Color="ffff94"
				Note Time="0" Value="E5" Duration="2" Instrument="DMC: drums + bass"
				Note Time="2" Value="G3" Duration="2" Instrument="DMC: drums + bass"
				Note Time="4" Value="F5" Duration="2" Instrument="DMC: drums + bass"
				Note Time="6" Value="E5" Duration="2" Instrument="DMC: drums + bass"
				Note Time="8" Value="G3" Duration="2" Instrument="DMC: drums + bass"
				Note Time="10" Value="E5" Duration="2" Instrument="DMC: drums + bass"
				Note Time="12" Value="F5" Duration="2" Instrument="DMC: drums + bass"
				Note Time="14" Value="A#3" Duration="2" Instrument="DMC: drums + bass"
				Note Time="16" Value="E5" Duration="2" Instrument="DMC: drums + bass"
				Note Time="18" Value="A#3" Duration="2" Instrument="DMC: drums + bass"
				Note Time="20" Value="F5" Duration="2" Instrument="DMC: drums + bass"
				Note Time="22" Value="E5" Duration="2" Instrument="DMC: drums + bass"
				Note Time="24" Value="A3" Duration="2" Instrument="DMC: drums + bass"
				Note Time="26" Value="E5" Duration="2" Instrument="DMC: drums + bass"
				Note Time="28" Value="F5" Duration="2" Instrument="DMC: drums + bass"
				Note Time="30" Value="A3" Duration="2" Instrument="DMC: drums + bass"
				Note Time="32" Value="E5" Duration="2" Instrument="DMC: drums + bass"
				Note Time="34" Value="G3" Duration="2" Instrument="DMC: drums + bass"
				Note Time="36" Value="F5" Duration="2" Instrument="DMC: drums + bass"
				Note Time="38" Value="E5" Duration="2" Instrument="DMC: drums + bass"
				Note Time="40" Value="G3" Duration="2" Instrument="DMC: drums + bass"
				Note Time="42" Value="E5" Duration="2" Instrument="DMC: drums + bass"
				Note Time="44" Value="F5" Duration="2" Instrument="DMC: drums + bass"
				Note Time="46" Value="C4" Duration="2" Instrument="DMC: drums + bass"
				Note Time="48" Value="E5" Duration="2" Instrument="DMC: drums + bass"
				Note Time="50" Value="C4" Duration="2" Instrument="DMC: drums + bass"
				Note Time="52" Value="F5" Duration="2" Instrument="DMC: drums + bass"
				Note Time="54" Value="E5" Duration="2" Instrument="DMC: drums + bass"
				Note Time="56" Value="A#3" Duration="2" Instrument="DMC: drums + bass"
				Note Time="58" Value="E5" Duration="2" Instrument="DMC: drums + bass"
				Note Time="60" Value="F5" Duration="2" Instrument="DMC: drums + bass"
				Note Time="62" Value="A#3" Duration="2" Instrument="DMC: drums + bass"
			Pattern Name="06" Color="3cd2c4"
				Note Time="0" Value="E5" Duration="2" Instrument="DMC: drums + bass"
				Note Time="2" Value="G3" Duration="2" Instrument="DMC: drums + bass"
				Note Time="4" Value="F5" Duration="2" Instrument="DMC: drums + bass"
				Note Time="6" Value="E5" Duration="2" Instrument="DMC: drums + bass"
				Note Time="8" Value="G3" Duration="2" Instrument="DMC: drums + bass"
				Note Time="10" Value="E5" Duration="2" Instrument="DMC: drums + bass"
				Note Time="12" Value="F5" Duration="2" Instrument="DMC: drums + bass"
				Note Time="14" Value="A#3" Duration="2" Instrument="DMC: drums + bass"
				Note Time="16" Value="E5" Duration="2" Instrument="DMC: drums + bass"
				Note Time="18" Value="A#3" Duration="2" Instrument="DMC: drums + bass"
				Note Time="20" Value="F5" Duration="2" Instrument="DMC: drums + bass"
				Note Time="22" Value="E5" Duration="2" Instrument="DMC: drums + bass"
				Note Time="24" Value="A3" Duration="2" Instrument="DMC: drums + bass"
				Note Time="26" Value="E5" Duration="2" Instrument="DMC: drums + bass"
				Note Time="28" Value="F5" Duration="2" Instrument="DMC: drums + bass"
				Note Time="30" Value="A3" Duration="2" Instrument="DMC: drums + bass"
				Note Time="32" Value="E5" Duration="2" Instrument="DMC: drums + bass"
				Note Time="34" Value="G3" Duration="2" Instrument="DMC: drums + bass"
				Note Time="36" Value="F5" Duration="2" Instrument="DMC: drums + bass"
				Note Time="38" Value="E5" Duration="2" Instrument="DMC: drums + bass"
				Note Time="40" Value="G3" Duration="2" Instrument="DMC: drums + bass"
				Note Time="42" Value="E5" Duration="2" Instrument="DMC: drums + bass"
				Note Time="44" Value="F5" Duration="2" Instrument="DMC: drums + bass"
				Note Time="46" Value="D4" Duration="2" Instrument="DMC: drums + bass"
				Note Time="48" Value="E5" Duration="2" Instrument="DMC: drums + bass"
				Note Time="50" Value="F3" Duration="2" Instrument="DMC: drums + bass"
				Note Time="52" Value="F5" Duration="2" Instrument="DMC: drums + bass"
				Note Time="54" Value="E3" Duration="4" Instrument="DMC: drums + bass"
				Note Time="58" Value="D3" Duration="2" Instrument="DMC: drums + bass"
				Note Time="60" Value="F5" Duration="2" Instrument="DMC: drums + bass"
				Note Time="62" Value="A#2" Duration="2" Instrument="DMC: drums + bass"
			Pattern Name="07" Color="7585e7"
				Note Time="0" Value="E5" Duration="2" Instrument="DMC: drums + bass"
				Note Time="2" Value="G3" Duration="2" Instrument="DMC: drums + bass"
				Note Time="4" Value="F5" Duration="2" Instrument="DMC: drums + bass"
				Note Time="6" Value="E5" Duration="2" Instrument="DMC: drums + bass"
				Note Time="8" Value="A#3" Duration="2" Instrument="DMC: drums + bass"
				Note Time="10" Value="E5" Duration="2" Instrument="DMC: drums + bass"
				Note Time="12" Value="F5" Duration="2" Instrument="DMC: drums + bass"
				Note Time="14" Value="C4" Duration="2" Instrument="DMC: drums + bass"
				Note Time="16" Value="E5" Duration="2" Instrument="DMC: drums + bass"
				Note Time="18" Value="C4" Duration="2" Instrument="DMC: drums + bass"
				Note Time="20" Value="F5" Duration="2" Instrument="DMC: drums + bass"
				Note Time="22" Value="E5" Duration="2" Instrument="DMC: drums + bass"
				Note Time="24" Value="A#3" Duration="2" Instrument="DMC: drums + bass"
				Note Time="26" Value="E5" Duration="2" Instrument="DMC: drums + bass"
				Note Time="28" Value="F5" Duration="2" Instrument="DMC: drums + bass"
				Note Time="30" Value="A#3" Duration="2" Instrument="DMC: drums + bass"
				Note Time="32" Value="E5" Duration="2" Instrument="DMC: drums + bass"
				Note Time="34" Value="G3" Duration="2" Instrument="DMC: drums + bass"
				Note Time="36" Value="F5" Duration="2" Instrument="DMC: drums + bass"
				Note Time="38" Value="E5" Duration="2" Instrument="DMC: drums + bass"
				Note Time="40" Value="A#3" Duration="2" Instrument="DMC: drums + bass"
				Note Time="42" Value="E5" Duration="2" Instrument="DMC: drums + bass"
				Note Time="44" Value="F5" Duration="2" Instrument="DMC: drums + bass"
				Note Time="46" Value="C4" Duration="2" Instrument="DMC: drums + bass"
				Note Time="48" Value="E5" Duration="2" Instrument="DMC: drums + bass"
				Note Time="50" Value="C4" Duration="2" Instrument="DMC: drums + bass"
				Note Time="52" Value="F5" Duration="2" Instrument="DMC: drums + bass"
				Note Time="54" Value="C4" Duration="4" Instrument="DMC: drums + bass"
				Note Time="58" Value="C4" Duration="2" Instrument="DMC: drums + bass"
				Note Time="60" Value="F5" Duration="2" Instrument="DMC: drums + bass"
				Note Time="62" Value="C4" Duration="2" Instrument="DMC: drums + bass"
			Pattern Name="08" Color="ff6b6b"
				Note Time="0" Value="E5" Duration="2" Instrument="DMC: drums + bass"
				Note Time="2" Value="D#3" Duration="2" Instrument="DMC: drums + bass"
				Note Time="4" Value="F5" Duration="2" Instrument="DMC: drums + bass"
				Note Time="6" Value="E5" Duration="2" Instrument="DMC: drums + bass"
				Note Time="8" Value="D#3" Duration="2" Instrument="DMC: drums + bass"
				Note Time="10" Value="F5" Duration="2" Instrument="DMC: drums + bass"
				Note Time="12" Value="E5" Duration="2" Instrument="DMC: drums + bass"
				Note Time="14" Value="D#3" Duration="2" Instrument="DMC: drums + bass"
				Note Time="16" Value="F5" Duration="2" Instrument="DMC: drums + bass"
				Note Time="18" Value="E5" Duration="2" Instrument="DMC: drums + bass"
				Note Time="20" Value="D#3" Duration="2" Instrument="DMC: drums + bass"
				Note Time="22" Value="F5" Duration="2" Instrument="DMC: drums + bass"
				Note Time="24" Value="E5" Duration="2" Instrument="DMC: drums + bass"
				Note Time="26" Value="D#3" Duration="2" Instrument="DMC: drums + bass"
				Note Time="28" Value="F5" Duration="2" Instrument="DMC: drums + bass"
				Note Time="30" Value="D#3" Duration="2" Instrument="DMC: drums + bass"
				Note Time="32" Value="E5" Duration="2" Instrument="DMC: drums + bass"
				Note Time="34" Value="G3" Duration="1" Instrument="DMC: drums + bass"
				Note Time="35" Value="E5" Duration="1" Instrument="DMC: drums + bass"
				Note Time="36" Value="F5" Duration="2" Instrument="DMC: drums + bass"
				Note Time="38" Value="E5" Duration="2" Instrument="DMC: drums + bass"
				Note Time="40" Value="A#3" Duration="2" Instrument="DMC: drums + bass"
				Note Time="42" Value="E5" Duration="2" Instrument="DMC: drums + bass"
				Note Time="44" Value="F5" Duration="2" Instrument="DMC: drums + bass"
				Note Time="46" Value="E5" Duration="2" Instrument="DMC: drums + bass"
				Note Time="48" Value="E5" Duration="2" Instrument="DMC: drums + bass"
				Note Time="50" Value="C4" Duration="1" Instrument="DMC: drums + bass"
				Note Time="51" Value="E5" Duration="1" Instrument="DMC: drums + bass"
				Note Time="52" Value="F5" Duration="2" Instrument="DMC: drums + bass"
				Note Time="54" Value="C4" Duration="2" Instrument="DMC: drums + bass"
				Note Time="56" Value="E5" Duration="2" Instrument="DMC: drums + bass"
				Note Time="58" Value="E5" Duration="2" Instrument="DMC: drums + bass"
				Note Time="60" Value="E5" Duration="2" Instrument="DMC: drums + bass"
				Note Time="62" Value="E5" Duration="1" Instrument="DMC: drums + bass"
				Note Time="63" Value="E5" Duration="1" Instrument="DMC: drums + bass"
			Pattern Name="09" Color="ffdc3c"
				Note Time="0" Value="G3" Duration="4" Instrument="DMC: drums + bass"
				Note Time="4" Value="G3" Duration="6" Instrument="DMC: drums + bass"
				Note Time="10" Value="G3" Duration="2" Instrument="DMC: drums + bass"
				Note Time="12" Value="F3" Duration="2" Instrument="DMC: drums + bass"
				Note Time="14" Value="G3" Duration="4" Instrument="DMC: drums + bass"
				Note Time="18" Value="G3" Duration="2" Instrument="DMC: drums + bass"
				Note Time="20" Value="G3" Duration="8" Instrument="DMC: drums + bass"
				Note Time="28" Value="G3" Duration="4" Instrument="DMC: drums + bass"
				Note Time="32" Value="D#3" Duration="4" Instrument="DMC: drums + bass"
				Note Time="36" Value="D#3" Duration="6" Instrument="DMC: drums + bass"
				Note Time="42" Value="D#3" Duration="2" Instrument="DMC: drums + bass"
				Note Time="44" Value="D#3" Duration="2" Instrument="DMC: drums + bass"
				Note Time="46" Value="D#3" Duration="4" Instrument="DMC: drums + bass"
				Note Time="50" Value="F3" Duration="2" Instrument="DMC: drums + bass"
				Note Time="52" Value="F3" Duration="6" Instrument="DMC: drums + bass"
				Note Time="58" Value="F3" Duration="2" Instrument="DMC: drums + bass"
				Note Time="60" Value="F3" Duration="4" Instrument="DMC: drums + bass"
			Pattern Name="0A" Color="6ab96e"
				Note Time="0" Value="F5" Duration="16" Instrument="DMC: drums + bass"
			PatternInstance Time="1" Pattern="01"
			PatternInstance Time="2" Pattern="02"
			PatternInstance Time="3" Pattern="02"
			PatternInstance Time="4" Pattern="03"
			PatternInstance Time="5" Pattern="04"
			PatternInstance Time="6" Pattern="04"
			PatternInstance Time="7" Pattern="04"
			PatternInstance Time="8" Pattern="04"
			PatternInstance Time="9" Pattern="05"
			PatternInstance Time="10" Pattern="06"
			PatternInstance Time="11" Pattern="07"
			PatternInstance Time="12" Pattern="08"
			PatternInstance Time="13" Pattern="02"
			PatternInstance Time="14" Pattern="09"
			PatternInstance Time="15" Pattern="0A"
	Song Name="TOE 2" Color="7585e7" Folder="Official music used in the game" Length="50" LoopPoint="49" PatternLength="24" BeatLength="4" FamiTrackerTempo="132" FamiTrackerSpeed="4"
		PatternCustomSettings Time="49" Length="4"
		Channel Type="Square1"
			Pattern Name="00" Color="a657d6"
				Note Time="0" Value="C#4" Duration="3" Instrument="echo" Volume="15" DutyCycle="0"
				Note Time="3" Value="C#4" Duration="1" Instrument="echo" Volume="7"
				Note Time="4" Value="F#4" Duration="3" Instrument="echo" Volume="15"
				Note Time="7" Value="F#4" Duration="3" Instrument="echo" Volume="7"
				Note Time="10" Value="F#3" Duration="2" Instrument="echo" Volume="15"
				Note Time="12" Value="F#3" Duration="1" Instrument="echo" Volume="15"
				Note Time="13" Value="F#3" Duration="1" Instrument="echo" Volume="7"
				Note Time="14" Value="F#4" Duration="1" Instrument="echo" Volume="15"
				Note Time="15" Value="F#3" Duration="1" Instrument="echo" Volume="7"
				Note Time="16" Value="A4" Duration="1" Instrument="echo" Volume="15"
				Note Time="17" Value="F#4" Duration="1" Instrument="echo" Volume="7"
				Note Time="18" Value="F#3" Duration="1" Instrument="echo" Volume="15"
				Note Time="19" Value="A4" Duration="1" Instrument="echo" Volume="7"
				Note Time="20" Value="E3" Duration="1" Instrument="echo" Volume="15"
				Note Time="21" Value="F#3" Duration="1" Instrument="echo" Volume="7"
				Note Time="22" Value="F#4" Duration="1" Instrument="echo" Volume="15"
				Note Time="23" Value="E3" Duration="1" Instrument="echo" Volume="7"
			Pattern Name="01" Color="ff7f51"
				Note Time="0" Value="F#1" Duration="3" Instrument="blank" Volume="3" DutyCycle="0"
				Note Time="1" Volume="7" FinePitch="-5"
				Note Time="4" Value="F#1" Duration="3" Instrument="blank"
				Note Time="6" Volume="3"
				Note Time="7" Volume="7"
				Note Time="8" Value="F#2" Duration="2" Instrument="blank"
				Note Time="10" Value="A2" Duration="1" Instrument="blank"
				Note Time="22" Value="A2" Duration="2" Instrument="blank" FinePitch="-1"
			Pattern Name="03" Color="ffffb1"
				Note Time="0" Value="C#4" Duration="4" Instrument="blank" Volume="3"
				Note Time="1" Volume="7"
				Note Time="4" Value="A3" Duration="4" Instrument="blank"
				Note Time="6" Volume="3"
				Note Time="7" Volume="7"
				Note Time="9" Value="F#1" Duration="1" Instrument="blank" CutDelay="3"
				Note Time="10" Value="F#1" Duration="1" Instrument="blank" CutDelay="2"
				Note Time="11" Value="F#1" Duration="1" Instrument="blank" CutDelay="1"
				Note Time="12" Value="F#1" Duration="1" Instrument="blank" Volume="3" CutDelay="2"
				Note Time="13" Volume="3"
				Note Time="14" Value="F#1" Duration="2" Instrument="blank" Volume="7" DutyCycle="2"
				Note Time="15" Volume="3"
				Note Time="16" Value="F#1" Duration="2" Instrument="blank" Volume="7" DutyCycle="1"
				Note Time="17" Volume="3"
				Note Time="18" Value="A1" Duration="2" Instrument="blank" Volume="7" DutyCycle="0"
				Note Time="19" CutDelay="1"
				Note Time="20" Value="A1" Duration="2" Instrument="blank" DutyCycle="2"
				Note Time="21" CutDelay="2"
				Note Time="22" Value="A2" Duration="2" Instrument="blank" DutyCycle="0"
				Note Time="23" CutDelay="2"
			Pattern Name="06" Color="62ffff"
				Note Time="0" Value="F#2" Duration="2" Instrument="blank" Volume="3" DutyCycle="0"
				Note Time="1" Volume="7" CutDelay="2"
				Note Time="2" Value="F#2" Duration="2" Instrument="blank" DutyCycle="1"
				Note Time="3" Volume="5" CutDelay="2"
				Note Time="4" Value="F#2" Duration="4" Instrument="blank" Volume="7" DutyCycle="2"
				Note Time="6" Volume="3"
				Note Time="8" Value="F#2" Duration="2" Instrument="blank" Volume="7" DutyCycle="1"
				Note Time="10" Value="A2" Duration="2" Instrument="blank" DutyCycle="2"
				Note Time="21" DutyCycle="0"
				Note Time="22" Value="A2" Duration="2" Instrument="blank" FinePitch="-1"
			Pattern Name="07" Color="a376f3"
				Note Time="0" Value="A2" Duration="4" Instrument="blank" Volume="3" VolumeSlideTarget="1"
				Note Time="1" Volume="7" VolumeSlideTarget="3"
				Note Time="4" Value="A2" Duration="4" Instrument="blank" Volume="7" VolumeSlideTarget="2"
				Note Time="8" Value="A2" Duration="4" Instrument="blank" Volume="6" VolumeSlideTarget="1"
				Note Time="12" Value="A2" Duration="6" Instrument="blank" Volume="4"
				Note Time="13" Volume="10"
				Note Time="18" Value="B2" Duration="6" Instrument="blank" Arpeggio="Arp 0C" Volume="4"
				Note Time="19" Volume="10"
			Pattern Name="08" Color="b59184"
				Note Time="13" FinePitch="-2"
				Note Time="14" Value="F#2" Duration="2" Instrument="blank" Volume="6" DutyCycle="2"
				Note Time="16" Value="F#2" Duration="2" Instrument="blank" DutyCycle="1"
				Note Time="18" Value="A2" Duration="2" Instrument="blank" DutyCycle="2"
				Note Time="20" Value="A2" Duration="2" Instrument="blank" DutyCycle="0"
				Note Time="22" Value="A2" Duration="2" Instrument="blank" Volume="10" FinePitch="-1"
			Pattern Name="09" Color="ffff71"
				Note Time="0" Value="F#3" Duration="2" Instrument="blank" Volume="8" FinePitch="1"
				Note Time="1" CutDelay="3"
				Note Time="2" Value="A3" Duration="2" Instrument="blank"
				Note Time="3" CutDelay="3"
				Note Time="4" Value="F#4" Duration="2" Instrument="blank"
				Note Time="5" CutDelay="3"
				Note Time="6" Value="B4" Duration="2" Instrument="blank"
				Note Time="7" CutDelay="3"
				Note Time="8" Value="F#4" Duration="2" Instrument="blank"
				Note Time="9" CutDelay="3"
				Note Time="10" Value="A4" Duration="2" Instrument="blank"
				Note Time="11" CutDelay="3"
				Note Time="12" Value="E5" Duration="2" Instrument="blank"
				Note Time="13" CutDelay="3"
				Note Time="14" Value="G#4" Duration="2" Instrument="blank"
				Note Time="15" CutDelay="3"
				Note Time="16" Value="F#4" Duration="2" Instrument="blank" Volume="5"
				Note Time="17" Volume="8" CutDelay="3"
				Note Time="18" Value="F#5" Duration="2" Instrument="blank" Volume="5"
				Note Time="19" Volume="8" CutDelay="3"
				Note Time="20" Value="A4" Duration="2" Instrument="blank"
				Note Time="21" CutDelay="3"
				Note Time="22" Value="F#4" Duration="2" Instrument="blank" Volume="5"
				Note Time="23" Volume="8" CutDelay="3"
			Pattern Name="0A" Color="3cb5a7"
				Note Time="0" Value="F#2" Duration="2" Instrument="xstep wub" Volume="5" DutyCycle="0"
				Note Time="1" Volume="10" CutDelay="2"
				Note Time="2" Value="F#2" Duration="2" Instrument="xstep wub" DutyCycle="1"
				Note Time="3" CutDelay="2"
				Note Time="4" Value="F#2" Duration="2" Instrument="xstep wub" DutyCycle="0"
				Note Time="5" CutDelay="2"
				Note Time="6" Value="A2" Duration="2" Instrument="xstep wub" DutyCycle="0"
				Note Time="7" CutDelay="2"
				Note Time="10" Value="A2" Duration="2" Instrument="xstep wub" DutyCycle="2"
				Note Time="11" CutDelay="2"
				Note Time="21" DutyCycle="0"
				Note Time="22" Value="A2" Duration="2" Instrument="blank" FinePitch="-1"
			Pattern Name="0B" Color="6471cf"
				Note Time="0" Value="F#2" Duration="2" Instrument="xstep wub" Volume="5" DutyCycle="0"
				Note Time="1" Volume="10" CutDelay="2"
				Note Time="2" Value="F#2" Duration="2" Instrument="xstep wub" DutyCycle="1"
				Note Time="3" CutDelay="2"
				Note Time="4" Value="F#2" Duration="2" Instrument="xstep wub" DutyCycle="0"
				Note Time="5" CutDelay="2"
				Note Time="6" Value="A2" Duration="2" Instrument="xstep wub" DutyCycle="0"
				Note Time="7" CutDelay="2"
				Note Time="10" Value="A2" Duration="2" Instrument="xstep wub" DutyCycle="2"
				Note Time="11" CutDelay="2"
				Note Time="12" Value="F#3" Duration="2" Instrument="xstep wub" Volume="5" DutyCycle="0"
				Note Time="13" Volume="10" CutDelay="2"
				Note Time="14" Value="F#3" Duration="2" Instrument="xstep wub" DutyCycle="1"
				Note Time="15" CutDelay="2"
				Note Time="16" Value="F#3" Duration="2" Instrument="xstep wub" DutyCycle="0"
				Note Time="17" CutDelay="2"
				Note Time="18" Value="A3" Duration="2" Instrument="xstep wub" DutyCycle="0"
				Note Time="19" CutDelay="2"
				Note Time="22" Value="A3" Duration="2" Instrument="xstep wub" DutyCycle="2"
				Note Time="23" CutDelay="2"
			Pattern Name="0C" Color="ffafaf"
				Note Time="0" Value="F#2" Duration="7" Instrument="blank" Volume="5" DutyCycle="2"
				Note Time="1" Volume="9" FinePitch="6"
				Note Time="7" Value="F#2" Duration="9" Instrument="blank" SlideTarget="F#1"
				Note Time="10" FinePitch="2"
				Note Time="12" Volume="5"
				Note Time="13" Volume="9"
				Note Time="14" FinePitch="1"
				Note Time="16" Value="F#1" Duration="9" Instrument="blank" Attack="False"
			Pattern Name="0D" Color="ffff8b"
				Note Time="0" Value="F#4" Duration="4" Instrument="echo" Volume="15" DutyCycle="0"
				Note Time="4" Value="F#4" Duration="2" Instrument="echo" Volume="5"
				Note Time="6" Value="A4" Duration="4" Instrument="echo" Volume="15"
				Note Time="10" Value="A4" Duration="2" Instrument="echo" Volume="5"
				Note Time="12" Value="F#4" Duration="4" Instrument="echo" Volume="15"
				Note Time="16" Value="F#4" Duration="2" Instrument="echo" Volume="5"
				Note Time="18" Value="C#4" Duration="4" Instrument="echo" Volume="15"
				Note Time="22" Value="C#4" Duration="2" Instrument="echo" Volume="5"
			Pattern Name="0E" Color="a2f7a6"
				Note Time="0" Value="F#4" Duration="4" Instrument="echo" Volume="15"
				Note Time="4" Value="C#4" Duration="2" Instrument="echo"
				Note Time="6" Value="E4" Duration="6" Instrument="echo"
				Note Time="12" Value="F#4" Duration="4" Instrument="echo"
				Note Time="16" Value="B3" Duration="2" Instrument="echo"
				Note Time="18" Value="C#4" Duration="6" Instrument="echo"
			Pattern Name="0F" Color="5dd2ff"
				Note Time="0" Value="F#4" Duration="4" Instrument="echo" Volume="15" DutyCycle="0"
				Note Time="4" Value="F#4" Duration="2" Instrument="echo" Volume="5"
				Note Time="6" Value="C#4" Duration="4" Instrument="echo" Volume="15"
				Note Time="10" Value="C#4" Duration="2" Instrument="echo" Volume="5"
				Note Time="12" Value="F#4" Duration="4" Instrument="echo" Volume="15"
				Note Time="16" Value="F#4" Duration="2" Instrument="echo" Volume="5"
				Note Time="18" Value="C#4" Duration="4" Instrument="echo" Volume="15"
				Note Time="22" Value="C#4" Duration="2" Instrument="echo" Volume="5"
			Pattern Name="10" Color="ff579c"
				Note Time="0" Value="F#4" Duration="4" Instrument="echo" Volume="15" DutyCycle="0"
				Note Time="4" Value="F#4" Duration="2" Instrument="echo" Volume="5"
				Note Time="6" Value="C#4" Duration="4" Instrument="echo" Volume="15"
				Note Time="10" Value="C#4" Duration="2" Instrument="echo" Volume="5"
				Note Time="12" Value="F#4" Duration="2" Instrument="echo" Volume="15"
				Note Time="14" Value="E4" Duration="2" Instrument="echo"
				Note Time="16" Value="B3" Duration="2" Instrument="echo"
				Note Time="18" Value="A4" Duration="4" Instrument="echo"
				Note Time="22" Value="A4" Duration="2" Instrument="echo" Volume="5"
			Pattern Name="11" Color="ffc83c"
				Note Time="0" Value="C#4" Duration="4" Instrument="echo" Volume="8"
				Note Time="4" Value="C#4" Duration="2" Instrument="echo" Volume="3"
				Note Time="6" Value="C#4" Duration="4" Instrument="echo" Volume="4"
				Note Time="10" Value="C#4" Duration="2" Instrument="echo" Volume="2"
				Note Time="12" Value="C#4" Duration="4" Instrument="echo" Volume="2"
				Note Time="16" Value="C#4" Duration="2" Instrument="echo" Volume="1"
				Note Time="18" Value="C#4" Duration="6" Instrument="echo" Volume="1"
			Pattern Name="12" Color="a4db74"
				Note Time="0" Value="F#3" Duration="2" Instrument="blank" Volume="4" DutyCycle="1"
				Note Time="1" VibratoSpeed="0" VibratoDepth="0"
				Note Time="2" Value="F#3" Duration="10" Instrument="blank" SlideTarget="A#2"
				Note Time="12" Value="F#5" Duration="4" Instrument="echo" Volume="15"
				Note Time="16" Value="F#5" Duration="2" Instrument="echo" Volume="8"
				Note Time="18" Value="E5" Duration="4" Instrument="echo" Volume="15"
				Note Time="22" Value="E5" Duration="2" Instrument="echo" Volume="8"
			Pattern Name="13" Color="3eb3f9"
				Note Time="0" Value="F#5" Duration="4" Instrument="echo" Volume="15"
				Note Time="4" Value="F#5" Duration="2" Instrument="echo" Volume="8"
				Note Time="6" Value="C#5" Duration="4" Instrument="echo" Arpeggio="Arp 33" Volume="15"
				Note Time="10" Value="C#5" Duration="2" Instrument="echo" Arpeggio="Arp 33" Volume="8"
				Note Time="12" Value="F#5" Duration="4" Instrument="echo" Volume="15"
				Note Time="16" Value="F#5" Duration="2" Instrument="echo" Volume="8"
				Note Time="18" Value="F#4" Duration="4" Instrument="echo" Arpeggio="Arp 33" Volume="15"
				Note Time="22" Value="F#4" Duration="5" Instrument="echo" Arpeggio="Arp 33" Volume="8"
			Pattern Name="14" Color="f6a4ff"
				Note Time="3" Value="F#4" Duration="1" Instrument="echo" Attack="False"
				Note Time="4" Value="D4" Duration="8" Instrument="blank" Volume="8" DutyCycle="2"
				Note Time="5" VibratoSpeed="12" VibratoDepth="2"
				Note Time="8" Volume="4"
				Note Time="12" Value="F#4" Duration="6" Instrument="blank" Volume="8"
				Note Time="16" Volume="4"
				Note Time="18" Value="D4" Duration="6" Instrument="blank" Volume="8"
				Note Time="22" Volume="4"
			Pattern Name="15" Color="ffc6a1"
				Note Time="0" Value="D3" Duration="4" Instrument="blank" Volume="8"
				Note Time="4" Value="A3" Duration="6" Instrument="blank" Volume="8"
				Note Time="8" Volume="4"
				Note Time="10" Value="D3" Duration="2" Instrument="blank" Volume="8"
				Note Time="12" Value="A4" Duration="4" Instrument="blank"
				Note Time="16" Value="D4" Duration="2" Instrument="blank"
				Note Time="18" Value="D5" Duration="4" Instrument="blank"
				Note Time="22" Value="A4" Duration="2" Instrument="blank"
			Pattern Name="16" Color="ffff93"
				Note Time="0" Value="F#5" Duration="4" Instrument="echo" Volume="15"
				Note Time="4" Value="F#5" Duration="2" Instrument="echo" Volume="8"
				Note Time="6" Value="C#5" Duration="4" Instrument="echo" Arpeggio="Arp 33" Volume="15"
				Note Time="10" Value="C#5" Duration="2" Instrument="echo" Arpeggio="Arp 33" Volume="8"
				Note Time="12" Value="C#4" Duration="12" Instrument="blank string" Arpeggio="Arp 53" Volume="15"
			Pattern Name="17" Color="3cf8ff"
				Note Time="0" Value="E2" Duration="2" Instrument="DMC: drums + bass" Arpeggio="Arp 53" Volume="4"
				Note Time="1" Volume="8"
				Note Time="2" Value="E2" Duration="10" Instrument="DMC: drums + bass" Arpeggio="Arp 53" SlideTarget="F#3"
				Note Time="12" Value="C#4" Duration="24" Instrument="blank string" Arpeggio="Arp 53" Volume="4"
				Note Time="13" Volume="15"
			Pattern Name="18" Color="9a71ed"
				Note Time="0" Volume="8"
				Note Time="4" Volume="4"
				Note Time="8" Volume="2"
				Note Time="11" Volume="0" VibratoSpeed="0" VibratoDepth="0"
				Note Time="12" Value="F#3" Duration="36" Instrument="blank string" Arpeggio="Arp 53" Volume="4"
				Note Time="13" Volume="15"
			Pattern Name="19" Color="a9887d"
				Note Time="0" Volume="8"
				Note Time="4" Volume="6"
				Note Time="8" Volume="4"
				Note Time="12" Volume="2"
				Note Time="16" Volume="1"
				Note Time="20" Volume="0" FinePitch="0"
				Note Time="22" VibratoSpeed="0" VibratoDepth="0"
				Note Time="23" DutyCycle="0"
			Pattern Name="1A" Color="fffc69"
				Note Time="0" Value="F#3" Duration="4" Instrument="echo" Arpeggio="Arp 07" Volume="15"
				Note Time="4" Value="C#4" Duration="2" Instrument="echo"
				Note Time="6" Value="F#4" Duration="4" Instrument="echo"
				Note Time="10" Value="C#4" Duration="2" Instrument="echo" Arpeggio="Arp 05"
				Note Time="12" Value="F#4" Duration="4" Instrument="echo"
				Note Time="16" Value="A4" Duration="2" Instrument="echo"
				Note Time="18" Value="C#4" Duration="2" Instrument="echo" Arpeggio="Arp 05"
				Note Time="20" Value="E4" Duration="2" Instrument="echo"
				Note Time="22" Value="F#4" Duration="2" Instrument="echo"
			Pattern Name="1B" Color="3ca598"
				Note Time="0" Value="C#4" Duration="2" Instrument="echo" Arpeggio="Arp 05" Volume="10"
				Note Time="2" Value="E4" Duration="2" Instrument="echo"
				Note Time="4" Value="F#4" Duration="2" Instrument="echo"
				Note Time="6" Value="C#4" Duration="2" Instrument="echo" Arpeggio="Arp 05" Volume="7"
				Note Time="8" Value="E4" Duration="2" Instrument="echo"
				Note Time="10" Value="F#4" Duration="2" Instrument="echo"
				Note Time="12" Value="C#4" Duration="2" Instrument="echo" Arpeggio="Arp 05" Volume="4"
				Note Time="14" Value="E4" Duration="2" Instrument="echo"
				Note Time="16" Value="F#4" Duration="2" Instrument="echo"
				Note Time="18" Value="C#4" Duration="2" Instrument="echo" Arpeggio="Arp 05" Volume="2"
				Note Time="20" Value="E4" Duration="2" Instrument="echo"
				Note Time="22" Value="F#4" Duration="2" Instrument="echo"
			Pattern Name="1C" Color="b5c2ff"
				Note Time="0" Value="F#4" Duration="24" Instrument="blank" Volume="1"
			PatternInstance Time="0" Pattern="00"
			PatternInstance Time="1" Pattern="00"
			PatternInstance Time="2" Pattern="00"
			PatternInstance Time="3" Pattern="00"
			PatternInstance Time="4" Pattern="00"
			PatternInstance Time="5" Pattern="00"
			PatternInstance Time="6" Pattern="01"
			PatternInstance Time="7" Pattern="03"
			PatternInstance Time="8" Pattern="06"
			PatternInstance Time="9" Pattern="07"
			PatternInstance Time="10" Pattern="08"
			PatternInstance Time="11" Pattern="03"
			PatternInstance Time="12" Pattern="06"
			PatternInstance Time="13" Pattern="09"
			PatternInstance Time="14" Pattern="0A"
			PatternInstance Time="15" Pattern="03"
			PatternInstance Time="16" Pattern="0B"
			PatternInstance Time="17" Pattern="0C"
			PatternInstance Time="18" Pattern="0D"
			PatternInstance Time="19" Pattern="0E"
			PatternInstance Time="20" Pattern="0F"
			PatternInstance Time="21" Pattern="10"
			PatternInstance Time="22" Pattern="0D"
			PatternInstance Time="23" Pattern="0E"
			PatternInstance Time="24" Pattern="0F"
			PatternInstance Time="25" Pattern="11"
			PatternInstance Time="26" Pattern="12"
			PatternInstance Time="27" Pattern="13"
			PatternInstance Time="28" Pattern="14"
			PatternInstance Time="29" Pattern="15"
			PatternInstance Time="30" Pattern="12"
			PatternInstance Time="31" Pattern="16"
			PatternInstance Time="32" Pattern="17"
			PatternInstance Time="33" Pattern="18"
			PatternInstance Time="34" Pattern="19"
			PatternInstance Time="35" Pattern="1A"
			PatternInstance Time="36" Pattern="1A"
			PatternInstance Time="37" Pattern="1A"
			PatternInstance Time="38" Pattern="1B"
			PatternInstance Time="39" Pattern="1C"
			PatternInstance Time="40" Pattern="1C"
			PatternInstance Time="41" Pattern="01"
			PatternInstance Time="42" Pattern="03"
			PatternInstance Time="43" Pattern="06"
			PatternInstance Time="44" Pattern="07"
			PatternInstance Time="45" Pattern="08"
			PatternInstance Time="46" Pattern="03"
			PatternInstance Time="47" Pattern="0B"
			PatternInstance Time="48" Pattern="0C"
		Channel Type="Square2"
			Pattern Name="00" Color="ffff64"
				Note Time="2" Value="C#4" Duration="4" Instrument="echo" Volume="7" DutyCycle="1"
				Note Time="6" Value="F#4" Duration="6" Instrument="echo" Volume="7"
				Note Time="12" Value="F#3" Duration="2" Instrument="echo" Volume="7"
				Note Time="14" Value="F#3" Duration="2" Instrument="echo" Volume="7"
				Note Time="16" Value="F#4" Duration="2" Instrument="echo" Volume="7"
				Note Time="18" Value="A4" Duration="2" Instrument="echo" Volume="7"
				Note Time="20" Value="F#3" Duration="2" Instrument="echo" Volume="7"
				Note Time="22" Value="E3" Duration="2" Instrument="echo" Volume="7"
			Pattern Name="04" Color="88eb8c"
				Note Time="0" Value="A0" Duration="1" Instrument="blank" Volume="6" DutyCycle="2"
				Note Time="1" Value="A0" Duration="4" Instrument="blank" SlideTarget="F#1"
				Note Time="2" Volume="6" VolumeSlideTarget="12"
				Note Time="6" Value="F#1" Duration="1" Instrument="blank" DutyCycle="1"
				Note Time="8" Value="F#1" Duration="1" Instrument="blank" Volume="12" VolumeSlideTarget="7"
				Note Time="10" Value="F#1" Duration="1" Instrument="blank"
				Note Time="12" Value="F#3" Duration="2" Instrument="echo" Volume="7" VolumeSlideTarget="4" DutyCycle="0"
				Note Time="14" Value="F#3" Duration="2" Instrument="echo" Volume="7" VolumeSlideTarget="4"
				Note Time="16" Value="F#4" Duration="2" Instrument="echo" Volume="7" VolumeSlideTarget="4"
				Note Time="18" Value="A4" Duration="2" Instrument="echo" Volume="7" VolumeSlideTarget="4"
				Note Time="20" Value="F#3" Duration="2" Instrument="echo" Volume="7" VolumeSlideTarget="4"
				Note Time="22" Value="E3" Duration="4" Instrument="echo" Volume="7" VolumeSlideTarget="2"
			Pattern Name="01" Color="5ac4ff"
				Note Time="0" Value="F#4" Duration="2" Instrument="echo" Volume="7" VolumeSlideTarget="4"
				Note Time="2" Value="A2" Duration="2" Instrument="blank" Volume="7" VolumeSlideTarget="4" DutyCycle="2"
				Note Time="4" Value="A2" Duration="1" Instrument="blank" SlideTarget="G2" Volume="4" VolumeSlideTarget="6"
				Note Time="6" Value="F#2" Duration="1" Instrument="blank" Volume="7" VolumeSlideTarget="11"
				Note Time="8" Value="F#2" Duration="1" Instrument="blank" DutyCycle="1"
				Note Time="10" Value="F#2" Duration="1" Instrument="blank" Volume="11" VolumeSlideTarget="8"
				Note Time="12" Value="F#3" Duration="2" Instrument="echo" Volume="7" VolumeSlideTarget="4"
				Note Time="14" Value="F#3" Duration="2" Instrument="echo" Volume="7" VolumeSlideTarget="4"
				Note Time="16" Value="F#4" Duration="2" Instrument="echo" Volume="7" VolumeSlideTarget="4"
				Note Time="18" Value="A4" Duration="2" Instrument="echo" Volume="7" VolumeSlideTarget="4"
				Note Time="20" Value="F#3" Duration="2" Instrument="echo" Volume="7" VolumeSlideTarget="4"
				Note Time="22" Value="E3" Duration="4" Instrument="echo" Volume="7" VolumeSlideTarget="2"
			Pattern Name="02" Color="fe5497"
				Note Time="2" Value="A2" Duration="2" Instrument="blank" Volume="7" VolumeSlideTarget="4" DutyCycle="2"
				Note Time="4" Value="A2" Duration="1" Instrument="blank" SlideTarget="G2" Volume="4" VolumeSlideTarget="6"
				Note Time="6" Value="F#2" Duration="1" Instrument="blank" Volume="7" VolumeSlideTarget="11"
				Note Time="8" Value="F#2" Duration="1" Instrument="blank" DutyCycle="1"
				Note Time="10" Value="F#2" Duration="1" Instrument="blank" Volume="11" VolumeSlideTarget="8"
				Note Time="11" DutyCycle="2"
				Note Time="12" Value="F#3" Duration="2" Instrument="blank" Volume="8" VolumeSlideTarget="15"
				Note Time="13" CutDelay="1"
				Note Time="14" Value="F#2" Duration="2" Instrument="blank"
				Note Time="15" CutDelay="2"
				Note Time="16" Value="F#2" Duration="2" Instrument="blank" DutyCycle="1"
				Note Time="17" CutDelay="3"
				Note Time="18" Value="A2" Duration="2" Instrument="blank" DutyCycle="2"
				Note Time="19" Volume="15" CutDelay="4"
				Note Time="20" Value="A2" Duration="2" Instrument="blank" DutyCycle="0"
				Note Time="21" CutDelay="5"
			Pattern Name="05" Color="ffb83c"
				Note Time="0" Value="F#2" Duration="1" Instrument="blank" DutyCycle="1"
				Note Time="2" Value="F#2" Duration="2" Instrument="blank" Volume="15" VolumeSlideTarget="12"
				Note Time="4" Value="F#2" Duration="1" Instrument="blank" SlideTarget="F#2" Volume="12" VolumeSlideTarget="14"
				Note Time="6" Value="F#2" Duration="1" Instrument="blank" Volume="7" VolumeSlideTarget="11"
				Note Time="8" Value="F#2" Duration="1" Instrument="blank" DutyCycle="1"
				Note Time="10" Value="F#2" Duration="1" Instrument="blank" Volume="11" VolumeSlideTarget="8"
				Note Time="11" DutyCycle="2"
				Note Time="12" Value="F#3" Duration="2" Instrument="blank" Volume="8" VolumeSlideTarget="15"
				Note Time="13" CutDelay="1"
				Note Time="14" Value="F#2" Duration="2" Instrument="blank"
				Note Time="15" CutDelay="2"
				Note Time="16" Value="F#2" Duration="2" Instrument="blank" DutyCycle="1"
				Note Time="17" CutDelay="3"
				Note Time="18" Value="A2" Duration="2" Instrument="blank" DutyCycle="2"
				Note Time="19" Volume="15" CutDelay="4"
				Note Time="20" Value="A2" Duration="2" Instrument="blank" DutyCycle="0"
				Note Time="21" CutDelay="5"
				Note Time="22" Value="A3" Duration="2" Instrument="blank" DutyCycle="0"
				Note Time="23" CutDelay="5"
			Pattern Name="03" Color="91c76b"
				Note Time="0" Value="F#1" Duration="3" Instrument="blank" Volume="3" VolumeSlideTarget="4" DutyCycle="1"
				Note Time="1" Volume="7" VolumeSlideTarget="12" FinePitch="6"
				Note Time="4" Value="F#1" Duration="3" Instrument="blank"
				Note Time="6" Volume="3" VolumeSlideTarget="4"
				Note Time="7" Volume="7" VolumeSlideTarget="12"
				Note Time="8" Value="F#2" Duration="2" Instrument="blank"
				Note Time="10" Value="F#2" Duration="1" Instrument="blank" SlideTarget="A2"
				Note Time="12" Value="F#1" Duration="1" Instrument="xstep wub" Volume="7" VolumeSlideTarget="8"
				Note Time="13" Volume="15"
				Note Time="14" Value="F#1" Duration="1" Instrument="xstep wub"
				Note Time="16" Value="F#1" Duration="1" Instrument="xstep wub"
				Note Time="18" Value="F#1" Duration="1" Instrument="xstep wub" Volume="7" VolumeSlideTarget="8"
				Note Time="19" Volume="15"
				Note Time="20" Value="F#1" Duration="1" Instrument="xstep wub"
				Note Time="22" Value="A3" Duration="2" Instrument="blank" FinePitch="0"
			Pattern Name="06" Color="8bffff"
				Note Time="0" Value="A3" Duration="1" Instrument="blank" SlideTarget="C#4" Volume="3" VolumeSlideTarget="4"
				Note Time="1" Value="C#4" Duration="3" Instrument="blank" Attack="False" Volume="7" VolumeSlideTarget="12"
				Note Time="4" Value="C#4" Duration="1" Instrument="blank" SlideTarget="A3"
				Note Time="5" Value="A3" Duration="3" Instrument="blank" Attack="False"
				Note Time="6" Volume="3" VolumeSlideTarget="4"
				Note Time="7" Volume="7" VolumeSlideTarget="12"
				Note Time="9" Value="F#1" Duration="1" Instrument="hex guitar 2" CutDelay="1"
				Note Time="10" Value="F#1" Duration="1" Instrument="hex guitar 2" CutDelay="1"
				Note Time="11" Value="F#1" Duration="1" Instrument="hex guitar 2" CutDelay="1"
				Note Time="12" Value="F#1" Duration="1" Instrument="hex guitar 2" Volume="3" VolumeSlideTarget="4" CutDelay="2"
				Note Time="13" Volume="7" VolumeSlideTarget="12"
				Note Time="14" Value="F#1" Duration="1" Instrument="hex guitar 2" CutDelay="2"
				Note Time="16" Value="F#1" Duration="1" Instrument="hex guitar 2" CutDelay="3"
				Note Time="18" Value="A1" Duration="1" Instrument="hex guitar 2" Volume="3" VolumeSlideTarget="4" CutDelay="4"
				Note Time="19" Volume="7" VolumeSlideTarget="12"
				Note Time="20" Value="A1" Duration="1" Instrument="hex guitar 2" CutDelay="5"
				Note Time="22" Value="A2" Duration="1" Instrument="hex guitar 2" CutDelay="3"
			Pattern Name="07" Color="e783f8"
				Note Time="0" Value="F#1" Duration="2" Instrument="blank" Volume="3" VolumeSlideTarget="4" DutyCycle="1"
				Note Time="1" Volume="7" VolumeSlideTarget="9" FinePitch="-6"
				Note Time="2" Value="F#1" Duration="2" Instrument="blank" DutyCycle="2"
				Note Time="3" Volume="5" VolumeSlideTarget="6"
				Note Time="4" Value="F#1" Duration="4" Instrument="blank" Volume="7" VolumeSlideTarget="9" DutyCycle="3"
				Note Time="6" Volume="3" VolumeSlideTarget="5"
				Note Time="8" Value="F#1" Duration="2" Instrument="blank" Volume="7" VolumeSlideTarget="11" DutyCycle="1"
				Note Time="10" Value="A1" Duration="2" Instrument="blank" DutyCycle="2"
				Note Time="11" FinePitch="0"
				Note Time="12" Value="F#1" Duration="1" Instrument="stepdown" SlideTarget="G1" Volume="3" VolumeSlideTarget="4"
				Note Time="13" Volume="7" VolumeSlideTarget="15"
				Note Time="14" Value="F#1" Duration="1" Instrument="stepdown" SlideTarget="G1"
				Note Time="16" Value="F#1" Duration="1" Instrument="stepdown" SlideTarget="G1"
				Note Time="18" Value="A1" Duration="1" Instrument="stepdown" SlideTarget="A#1"
				Note Time="20" Value="A1" Duration="1" Instrument="stepdown"
				Note Time="21" Volume="15" DutyCycle="1"
				Note Time="22" Value="A3" Duration="2" Instrument="blank" FinePitch="0"
			Pattern Name="08" Color="ffac7f"
				Note Time="0" Value="A3" Duration="4" Instrument="blank" Volume="3" VolumeSlideTarget="1"
				Note Time="1" Volume="7" VolumeSlideTarget="3"
				Note Time="4" Value="A3" Duration="4" Instrument="blank" Volume="7" VolumeSlideTarget="2"
				Note Time="8" Value="A3" Duration="4" Instrument="blank" Volume="6" VolumeSlideTarget="1"
				Note Time="12" Value="A3" Duration="6" Instrument="blank" Volume="4"
				Note Time="13" Volume="10"
				Note Time="18" Value="B3" Duration="6" Instrument="blank" Volume="4"
				Note Time="19" Volume="10"
			Pattern Name="09" Color="ffff75"
				Note Time="0" Value="F#1" Duration="1" Instrument="stepdown" SlideTarget="G1" Volume="3"
				Note Time="1" Volume="7"
				Note Time="2" Value="F#1" Duration="1" Instrument="stepdown" SlideTarget="G1"
				Note Time="4" Value="F#1" Duration="1" Instrument="stepdown" SlideTarget="G1"
				Note Time="6" Value="A1" Duration="1" Instrument="stepdown" SlideTarget="A#1"
				Note Time="8" Value="A2" Duration="1" Instrument="stepdown" SlideTarget="C#3"
				Note Time="10" Value="A2" Duration="1" Instrument="stepdown" SlideTarget="C#3"
				Note Time="14" Value="F#2" Duration="2" Instrument="blank" Volume="6" DutyCycle="2"
				Note Time="16" Value="F#2" Duration="2" Instrument="blank" DutyCycle="1"
				Note Time="18" Value="A2" Duration="2" Instrument="blank" DutyCycle="2"
				Note Time="20" Value="A2" Duration="2" Instrument="blank" DutyCycle="0"
				Note Time="22" Value="A3" Duration="2" Instrument="blank" Volume="10" FinePitch="0"
			Pattern Name="0A" Color="3ce8fd"
				Note Time="0" Value="F#2" Duration="2" Instrument="blank" Volume="10" FinePitch="-1"
				Note Time="2" Value="A2" Duration="2" Instrument="blank"
				Note Time="4" Value="F#3" Duration="2" Instrument="blank"
				Note Time="6" Value="B3" Duration="2" Instrument="blank"
				Note Time="8" Value="F#3" Duration="2" Instrument="blank"
				Note Time="10" Value="A3" Duration="2" Instrument="blank"
				Note Time="12" Value="E4" Duration="2" Instrument="blank"
				Note Time="14" Value="G#3" Duration="2" Instrument="blank"
				Note Time="16" Value="F#3" Duration="2" Instrument="blank" Volume="5"
				Note Time="17" Volume="10"
				Note Time="18" Value="F#4" Duration="2" Instrument="blank" Volume="5"
				Note Time="19" Volume="10"
				Note Time="20" Value="A3" Duration="2" Instrument="blank"
				Note Time="22" Value="F#3" Duration="2" Instrument="blank" Volume="5"
				Note Time="23" Volume="10"
			Pattern Name="0B" Color="8d69e4"
				Note Time="0" Value="F#1" Duration="2" Instrument="stepdown" Volume="5" DutyCycle="1"
				Note Time="1" Volume="10" CutDelay="2"
				Note Time="2" Value="F#1" Duration="2" Instrument="stepdown" DutyCycle="2"
				Note Time="3" CutDelay="2"
				Note Time="4" Value="F#1" Duration="2" Instrument="stepdown" DutyCycle="3"
				Note Time="5" CutDelay="2"
				Note Time="6" Value="A1" Duration="2" Instrument="stepdown" DutyCycle="0"
				Note Time="7" CutDelay="2"
				Note Time="10" Value="A1" Duration="2" Instrument="stepdown" DutyCycle="2"
				Note Time="11" CutDelay="2"
				Note Time="21" DutyCycle="1"
				Note Time="22" Value="A3" Duration="2" Instrument="blank" FinePitch="0"
			Pattern Name="0C" Color="997c73"
				Note Time="0" Value="C#3" Duration="4" Instrument="blank" Arpeggio="Arp 8C" Volume="3"
				Note Time="1" Volume="7"
				Note Time="4" Value="C#3" Duration="6" Release="4" Instrument="blank" Arpeggio="Arp 8C"
				Note Time="6" Volume="3"
				Note Time="7" Volume="7"
				Note Time="10" Value="C#3" Duration="6" Release="4" Instrument="blank" Arpeggio="Arp 8C"
				Note Time="12" Volume="3"
				Note Time="13" Volume="7"
				Note Time="16" Value="C#3" Duration="6" Release="4" Instrument="blank" Arpeggio="Arp 8C"
				Note Time="18" Volume="3"
				Note Time="19" Volume="7"
				Note Time="22" Value="C#3" Duration="1" Instrument="blank" Arpeggio="Arp 8C"
				Note Time="23" Value="C#3" Duration="1" Instrument="blank" Attack="False"
			Pattern Name="0D" Color="ffe461"
				Note Time="0" Value="F#1" Duration="2" Instrument="stepdown" Volume="5" DutyCycle="1"
				Note Time="1" Volume="10" CutDelay="2"
				Note Time="2" Value="F#1" Duration="2" Instrument="stepdown" DutyCycle="2"
				Note Time="3" CutDelay="2"
				Note Time="4" Value="F#1" Duration="2" Instrument="stepdown" DutyCycle="3"
				Note Time="5" CutDelay="2"
				Note Time="6" Value="A1" Duration="2" Instrument="stepdown" DutyCycle="0"
				Note Time="7" CutDelay="2"
				Note Time="10" Value="A1" Duration="2" Instrument="stepdown" DutyCycle="2"
				Note Time="11" CutDelay="2"
				Note Time="12" Value="F#2" Duration="2" Instrument="stepdown" Volume="5" DutyCycle="1"
				Note Time="13" Volume="10" CutDelay="2"
				Note Time="14" Value="F#2" Duration="2" Instrument="stepdown" DutyCycle="2"
				Note Time="15" CutDelay="2"
				Note Time="16" Value="F#2" Duration="2" Instrument="stepdown" DutyCycle="3"
				Note Time="17" CutDelay="2"
				Note Time="18" Value="A2" Duration="2" Instrument="stepdown" DutyCycle="0"
				Note Time="19" CutDelay="2"
				Note Time="22" Value="A2" Duration="2" Instrument="stepdown" DutyCycle="2"
				Note Time="23" CutDelay="2"
			Pattern Name="0E" Color="89f2e8"
				Note Time="0" Value="F#2" Duration="7" Instrument="blank" Volume="5" DutyCycle="2"
				Note Time="1" Volume="9" FinePitch="-4"
				Note Time="4" FinePitch="-3"
				Note Time="7" Value="F#2" Duration="9" Instrument="blank" SlideTarget="F#1"
				Note Time="10" FinePitch="-2"
				Note Time="12" Volume="5"
				Note Time="13" Volume="9"
				Note Time="14" FinePitch="-1"
				Note Time="16" Value="F#1" Duration="10" Instrument="blank" Attack="False"
			Pattern Name="0F" Color="98a7fc"
				Note Time="0" DutyCycle="1"
				Note Time="2" Value="F#4" Duration="7" Instrument="echo" Volume="8"
				Note Time="9" Value="A4" Duration="5" Instrument="echo"
				Note Time="14" Value="F#4" Duration="4" Instrument="echo"
				Note Time="18" Value="F#3" Duration="8" Instrument="echo" Volume="15"
			Pattern Name="10" Color="ff7f72"
				Note Time="2" Value="F#4" Duration="4" Instrument="echo" Volume="8"
				Note Time="6" Value="C#4" Duration="4" Instrument="echo" Volume="15"
				Note Time="10" Value="C#4" Duration="4" Instrument="echo" Volume="8"
				Note Time="14" Value="F#4" Duration="4" Instrument="echo"
				Note Time="18" Value="A3" Duration="8" Instrument="echo" Volume="15"
			Pattern Name="11" Color="fffd43"
				Note Time="0" DutyCycle="1"
				Note Time="2" Value="F#4" Duration="7" Instrument="echo" Volume="8"
				Note Time="9" Value="C#4" Duration="5" Instrument="echo"
				Note Time="14" Value="F#4" Duration="4" Instrument="echo"
				Note Time="18" Value="F#3" Duration="4" Instrument="echo" Arpeggio="Arp 03" Volume="15"
				Note Time="22" Value="F#3" Duration="4" Instrument="echo" Attack="False"
			Pattern Name="12" Color="7fdc83"
				Note Time="0" DutyCycle="1"
				Note Time="2" Value="F#4" Duration="4" Instrument="echo" Volume="8"
				Note Time="6" Value="F#3" Duration="4" Instrument="echo" Arpeggio="Arp 03" Volume="15"
				Note Time="10" Value="F#3" Duration="2" Instrument="echo" Attack="False"
				Note Time="12" Value="C#4" Duration="2" Instrument="echo" Volume="8"
				Note Time="14" Value="F#4" Duration="2" Instrument="echo"
				Note Time="16" Value="E4" Duration="2" Instrument="echo"
				Note Time="18" Value="F#3" Duration="4" Instrument="echo" Arpeggio="Arp 03" Volume="15"
				Note Time="22" Value="F#3" Duration="4" Instrument="echo" Attack="False"
			Pattern Name="13" Color="55b2ff"
				Note Time="0" Value="F#3" Duration="4" Instrument="echo" Arpeggio="Arp 03" Volume="8"
				Note Time="4" Value="F#3" Duration="2" Instrument="echo" Attack="False"
				Note Time="6" Value="F#3" Duration="4" Instrument="echo" Arpeggio="Arp 03" Volume="4"
				Note Time="10" Value="F#3" Duration="2" Instrument="echo" Attack="False"
				Note Time="12" Value="F#3" Duration="4" Instrument="echo" Arpeggio="Arp 03" Volume="2"
				Note Time="16" Value="F#3" Duration="2" Instrument="echo" Attack="False"
				Note Time="18" Value="F#3" Duration="4" Instrument="echo" Arpeggio="Arp 03" Volume="1"
				Note Time="22" Value="F#3" Duration="2" Instrument="echo" Attack="False"
			Pattern Name="14" Color="e95093"
				Note Time="0" Value="F#2" Duration="2" Instrument="blank" Volume="4" DutyCycle="2"
				Note Time="1" Volume="8"
				Note Time="2" Value="F#2" Duration="9" Instrument="blank" SlideTarget="F#1"
				Note Time="11" Value="F#1" Duration="2" Instrument="blank" Attack="False"
				Note Time="12" Volume="4"
				Note Time="13" Volume="8"
				Note Time="14" Value="F#1" Duration="1" Instrument="blank"
				Note Time="16" Value="F#1" Duration="1" Instrument="blank"
				Note Time="18" Value="A1" Duration="1" Instrument="blank" DutyCycle="1"
				Note Time="20" Value="A1" Duration="1" Instrument="blank"
				Note Time="22" Value="A1" Duration="1" Instrument="blank" DutyCycle="0"
			Pattern Name="15" Color="ffa83c"
				Note Time="0" Value="A1" Duration="11" Instrument="blank" Volume="4" DutyCycle="2"
				Note Time="1" Volume="8"
				Note Time="12" Value="E1" Duration="3" Instrument="blank" Volume="4"
				Note Time="13" Volume="8" DutyCycle="1"
				Note Time="14" DutyCycle="2"
				Note Time="16" Value="E1" Duration="3" Instrument="blank"
				Note Time="17" DutyCycle="1"
				Note Time="18" DutyCycle="2"
				Note Time="20" Value="E1" Duration="3" Instrument="blank"
				Note Time="21" DutyCycle="1"
				Note Time="22" DutyCycle="2"
			Pattern Name="16" Color="eaffbd"
				Note Time="0" Value="D2" Duration="24" Instrument="blank" Volume="0" FinePitch="-1"
				Note Time="1" Volume="0" VolumeSlideTarget="12"
				Note Time="2" VibratoSpeed="12" VibratoDepth="2"
				Note Time="12" Volume="0" VolumeSlideTarget="13"
			Pattern Name="17" Color="65f2ff"
				Note Time="0" Value="D2" Duration="2" Instrument="blank" SlideTarget="F#2" Volume="4" VolumeSlideTarget="5" DutyCycle="1"
				Note Time="1" Volume="8" VolumeSlideTarget="15" CutDelay="2"
				Note Time="2" Value="F#2" Duration="2" Instrument="blank" SlideTarget="A2"
				Note Time="3" CutDelay="2"
				Note Time="4" Value="A2" Duration="1" Instrument="blank" SlideTarget="A2" DutyCycle="0"
				Note Time="5" Value="A2" Duration="1" Instrument="blank" Attack="False" CutDelay="2"
				Note Time="6" Value="A2" Duration="1" Instrument="blank" SlideTarget="A2" DutyCycle="1"
				Note Time="7" Value="A2" Duration="1" Instrument="blank" Attack="False" CutDelay="2"
				Note Time="8" Value="A2" Duration="1" Instrument="blank" SlideTarget="A2" Volume="15"
				Note Time="9" Value="A2" Duration="1" Instrument="blank" Attack="False" CutDelay="2"
				Note Time="10" Value="A2" Duration="1" Instrument="blank" SlideTarget="A2" DutyCycle="0"
				Note Time="11" Value="A2" Duration="1" Instrument="blank" Attack="False" CutDelay="2"
				Note Time="12" Value="A2" Duration="3" Instrument="blank" SlideTarget="E2" Volume="4" VolumeSlideTarget="5" DutyCycle="1"
				Note Time="13" Volume="8" VolumeSlideTarget="15"
				Note Time="15" Value="E2" Duration="1" Instrument="blank" Attack="False" CutDelay="2"
				Note Time="16" Value="E2" Duration="1" Instrument="blank" SlideTarget="E2" DutyCycle="0"
				Note Time="17" Value="E2" Duration="3" Instrument="blank" Attack="False"
				Note Time="19" CutDelay="2"
				Note Time="20" Value="E2" Duration="1" Instrument="blank" SlideTarget="E2" Volume="15"
				Note Time="21" Value="E2" Duration="3" Instrument="blank" Attack="False"
				Note Time="23" CutDelay="2"
			Pattern Name="18" Color="d863ec"
				Note Time="0" Value="E2" Duration="2" Instrument="DMC: drums + bass" SlideTarget="C#2" Volume="4" VolumeSlideTarget="5"
				Note Time="1" Volume="8" VolumeSlideTarget="15"
				Note Time="2" Value="C#2" Duration="3" Instrument="DMC: drums + bass" SlideTarget="F#2"
				Note Time="5" Value="F#2" Duration="7" Instrument="DMC: drums + bass" Attack="False"
				Note Time="8" Volume="15"
				Note Time="12" Value="F#4" Duration="24" Instrument="blank string" Volume="4" VolumeSlideTarget="5"
				Note Time="13" Volume="15"
			Pattern Name="19" Color="ff935e"
				Note Time="0" Volume="8" VolumeSlideTarget="12"
				Note Time="4" Volume="4" VolumeSlideTarget="8"
				Note Time="8" Volume="2" VolumeSlideTarget="6"
				Note Time="12" Value="C#4" Duration="36" Instrument="blank string" Volume="4" VolumeSlideTarget="5"
				Note Time="13" Volume="15"
			Pattern Name="1A" Color="fcff6f"
				Note Time="0" Volume="8" VolumeSlideTarget="12"
				Note Time="4" Volume="6" VolumeSlideTarget="10"
				Note Time="8" Volume="4" VolumeSlideTarget="8"
				Note Time="12" Volume="2" VolumeSlideTarget="6"
				Note Time="16" Volume="1" VolumeSlideTarget="5"
				Note Time="20" Volume="0" VolumeSlideTarget="4" FinePitch="0"
				Note Time="22" VibratoSpeed="0" VibratoDepth="0"
				Note Time="23" DutyCycle="0"
			Pattern Name="1B" Color="3cd3e3"
				Note Time="0" Value="C#4" Duration="2" Instrument="echo" Volume="15"
				Note Time="2" Value="F#3" Duration="4" Instrument="echo" Arpeggio="Arp 07" Volume="4"
				Note Time="6" Value="C#4" Duration="2" Instrument="echo"
				Note Time="8" Value="F#4" Duration="2" Instrument="echo"
				Note Time="10" Value="F#4" Duration="2" Instrument="echo" Volume="15"
				Note Time="12" Value="C#4" Duration="2" Instrument="echo" Arpeggio="Arp 05" Volume="8"
				Note Time="14" Value="F#4" Duration="4" Instrument="echo"
				Note Time="18" Value="F#4" Duration="2" Instrument="echo" Volume="15"
				Note Time="20" Value="C#4" Duration="2" Instrument="echo" Arpeggio="Arp 05" Volume="8"
				Note Time="22" Value="E4" Duration="2" Instrument="echo"
			Pattern Name="1C" Color="8163dc"
				Note Time="0" Value="F#4" Duration="2" Instrument="echo" Volume="10"
				Note Time="2" Value="C#4" Duration="2" Instrument="echo" Arpeggio="Arp 05" Volume="5"
				Note Time="4" Value="E4" Duration="2" Instrument="echo"
				Note Time="6" Value="F#4" Duration="2" Instrument="echo" Volume="7"
				Note Time="8" Value="C#4" Duration="2" Instrument="echo" Arpeggio="Arp 05" Volume="4"
				Note Time="10" Value="E4" Duration="2" Instrument="echo"
				Note Time="12" Value="F#4" Duration="2" Instrument="echo" Volume="4"
				Note Time="14" Value="C#4" Duration="2" Instrument="echo" Arpeggio="Arp 05" Volume="2"
				Note Time="16" Value="E4" Duration="2" Instrument="echo"
				Note Time="18" Value="F#4" Duration="2" Instrument="echo" Volume="2"
				Note Time="20" Value="C#4" Duration="2" Instrument="echo" Arpeggio="Arp 05" Volume="1"
				Note Time="22" Value="E4" Duration="4" Instrument="echo"
			PatternInstance Time="0" Pattern="00"
			PatternInstance Time="1" Pattern="04"
			PatternInstance Time="2" Pattern="00"
			PatternInstance Time="3" Pattern="01"
			PatternInstance Time="4" Pattern="02"
			PatternInstance Time="5" Pattern="05"
			PatternInstance Time="6" Pattern="03"
			PatternInstance Time="7" Pattern="06"
			PatternInstance Time="8" Pattern="07"
			PatternInstance Time="9" Pattern="08"
			PatternInstance Time="10" Pattern="09"
			PatternInstance Time="11" Pattern="06"
			PatternInstance Time="12" Pattern="07"
			PatternInstance Time="13" Pattern="0A"
			PatternInstance Time="14" Pattern="0B"
			PatternInstance Time="15" Pattern="0C"
			PatternInstance Time="16" Pattern="0D"
			PatternInstance Time="17" Pattern="0E"
			PatternInstance Time="18" Pattern="0F"
			PatternInstance Time="19" Pattern="10"
			PatternInstance Time="20" Pattern="11"
			PatternInstance Time="21" Pattern="12"
			PatternInstance Time="22" Pattern="0F"
			PatternInstance Time="23" Pattern="10"
			PatternInstance Time="24" Pattern="11"
			PatternInstance Time="25" Pattern="13"
			PatternInstance Time="26" Pattern="14"
			PatternInstance Time="27" Pattern="15"
			PatternInstance Time="28" Pattern="16"
			PatternInstance Time="29" Pattern="16"
			PatternInstance Time="30" Pattern="14"
			PatternInstance Time="31" Pattern="17"
			PatternInstance Time="32" Pattern="18"
			PatternInstance Time="33" Pattern="19"
			PatternInstance Time="34" Pattern="1A"
			PatternInstance Time="35" Pattern="1B"
			PatternInstance Time="36" Pattern="1B"
			PatternInstance Time="37" Pattern="1B"
			PatternInstance Time="38" Pattern="1C"
			PatternInstance Time="39" Pattern="02"
			PatternInstance Time="40" Pattern="05"
			PatternInstance Time="41" Pattern="03"
			PatternInstance Time="42" Pattern="06"
			PatternInstance Time="43" Pattern="07"
			PatternInstance Time="44" Pattern="08"
			PatternInstance Time="45" Pattern="09"
			PatternInstance Time="46" Pattern="06"
			PatternInstance Time="47" Pattern="0D"
			PatternInstance Time="48" Pattern="0E"
		Channel Type="Triangle"
			Pattern Name="04" Color="62e2d6"
				Note Time="0" Value="F#2" Duration="1" Instrument="blank"
				Note Time="1" Value="F#2" Duration="4" Instrument="blank" SlideTarget="F#3"
				Note Time="6" Value="F#3" Duration="1" Instrument="blank"
				Note Time="8" Value="F#3" Duration="1" Instrument="blank"
				Note Time="10" Value="F#3" Duration="1" Instrument="blank"
			Pattern Name="01" Color="7b8df1"
				Note Time="2" Value="A2" Duration="2" Instrument="blank"
				Note Time="4" Value="A2" Duration="1" Instrument="blank" SlideTarget="G2"
				Note Time="6" Value="F#2" Duration="1" Instrument="blank"
				Note Time="8" Value="F#2" Duration="1" Instrument="blank"
				Note Time="10" Value="F#2" Duration="1" Instrument="blank"
			Pattern Name="02" Color="ff7571"
				Note Time="2" Value="A2" Duration="2" Instrument="blank"
				Note Time="4" Value="A2" Duration="1" Instrument="blank" SlideTarget="G2"
				Note Time="6" Value="F#2" Duration="1" Instrument="blank"
				Note Time="8" Value="F#2" Duration="1" Instrument="blank"
				Note Time="10" Value="F#2" Duration="1" Instrument="blank"
				Note Time="12" Value="F#2" Duration="2" Instrument="blank"
				Note Time="13" CutDelay="1"
				Note Time="14" Value="F#1" Duration="1" Instrument="blank" CutDelay="4"
				Note Time="16" Value="F#1" Duration="1" Instrument="blank" CutDelay="3"
				Note Time="18" Value="A1" Duration="1" Instrument="blank" CutDelay="6"
				Note Time="20" Value="A1" Duration="1" Instrument="blank" CutDelay="4"
			Pattern Name="05" Color="ffef3c"
				Note Time="0" Value="F#2" Duration="1" Instrument="blank"
				Note Time="2" Value="F#2" Duration="2" Instrument="blank"
				Note Time="4" Value="F#2" Duration="1" Instrument="blank"
				Note Time="6" Value="F#2" Duration="1" Instrument="blank"
				Note Time="8" Value="F#2" Duration="1" Instrument="blank"
				Note Time="10" Value="F#2" Duration="1" Instrument="blank"
				Note Time="12" Value="C4" Duration="1" Instrument="tom" CutDelay="4"
				Note Time="13" Value="F#3" Duration="1" Instrument="blank" CutDelay="2"
				Note Time="14" Value="E4" Duration="1" Instrument="tom" CutDelay="4"
				Note Time="15" Value="F#2" Duration="1" Instrument="blank" CutDelay="2"
				Note Time="16" Value="F4" Duration="1" Instrument="tom" CutDelay="4"
				Note Time="17" Value="F#2" Duration="1" Instrument="blank" CutDelay="2"
				Note Time="18" Value="G4" Duration="1" Instrument="tom" CutDelay="4"
				Note Time="19" Value="A2" Duration="1" Instrument="blank" CutDelay="2"
				Note Time="20" Value="A4" Duration="1" Instrument="tom" CutDelay="4"
				Note Time="21" Value="A2" Duration="1" Instrument="blank" CutDelay="2"
				Note Time="22" Value="B4" Duration="1" Instrument="tom" CutDelay="4"
				Note Time="23" Value="A3" Duration="1" Instrument="blank" CutDelay="2"
			Pattern Name="03" Color="74ca78"
				Note Time="0" Value="C1" Duration="1" Instrument="tight triangle kick"
				Note Time="1" Value="F#1" Duration="1" Instrument="blank"
				Note Time="4" Value="F#1" Duration="2" Instrument="blank"
				Note Time="6" Value="C1" Duration="1" Instrument="tight triangle kick"
				Note Time="7" Value="F#1" Duration="1" Instrument="blank"
				Note Time="8" Value="F#2" Duration="2" Instrument="blank"
				Note Time="10" Value="A2" Duration="2" Instrument="blank"
				Note Time="12" Value="C1" Duration="1" Instrument="tight triangle kick"
				Note Time="14" Value="F#2" Duration="1" Instrument="blank"
				Note Time="16" Value="F#2" Duration="1" Instrument="blank"
				Note Time="18" Value="C1" Duration="1" Instrument="tight triangle kick"
				Note Time="20" Value="F#2" Duration="1" Instrument="blank"
				Note Time="22" Value="A2" Duration="2" Instrument="blank" FinePitch="1"
			Pattern Name="06" Color="51a1fc"
				Note Time="0" Value="C1" Duration="1" Instrument="tight triangle kick"
				Note Time="1" Value="C#2" Duration="3" Instrument="blank"
				Note Time="4" Value="A1" Duration="2" Instrument="blank"
				Note Time="6" Value="C1" Duration="3" Instrument="tight triangle kick"
				Note Time="9" Value="F#2" Duration="1" Instrument="blank" CutDelay="3"
				Note Time="10" Value="F#2" Duration="1" Instrument="blank" CutDelay="3"
				Note Time="11" Value="F#2" Duration="1" Instrument="blank" CutDelay="3"
				Note Time="12" Value="C1" Duration="1" Instrument="tight triangle kick"
				Note Time="13" Value="F#2" Duration="1" Instrument="blank" CutDelay="2"
				Note Time="14" Value="F#2" Duration="1" Instrument="blank"
				Note Time="16" Value="F#2" Duration="1" Instrument="blank"
				Note Time="18" Value="C1" Duration="1" Instrument="tight triangle kick"
				Note Time="19" Value="A1" Duration="1" Instrument="blank" CutDelay="2"
				Note Time="20" Value="A1" Duration="1" Instrument="blank"
				Note Time="22" Value="A2" Duration="1" Instrument="blank"
			Pattern Name="07" Color="ff9ece"
				Note Time="0" Value="C1" Duration="1" Instrument="tight triangle kick"
				Note Time="1" Value="F#2" Duration="1" Instrument="blank"
				Note Time="2" Value="F#1" Duration="2" Instrument="blank"
				Note Time="4" Value="F#2" Duration="2" Instrument="blank"
				Note Time="6" Value="C1" Duration="1" Instrument="tight triangle kick"
				Note Time="7" Value="F#2" Duration="1" Instrument="blank"
				Note Time="8" Value="F#1" Duration="2" Instrument="blank"
				Note Time="10" Value="A1" Duration="2" Instrument="blank"
				Note Time="12" Value="C1" Duration="2" Instrument="tight triangle kick"
				Note Time="14" Value="F#1" Duration="2" Instrument="stepdown"
				Note Time="16" Value="F#1" Duration="2" Instrument="stepdown"
				Note Time="18" Value="C1" Duration="2" Instrument="tight triangle kick"
				Note Time="20" Value="A1" Duration="2" Instrument="stepdown"
				Note Time="22" Value="A2" Duration="2" Instrument="blank" FinePitch="1"
			Pattern Name="08" Color="fff389"
				Note Time="0" Value="C1" Duration="1" Instrument="tight triangle kick"
				Note Time="1" Value="F#2" Duration="1" Instrument="blank" CutDelay="2"
				Note Time="2" Value="F#2" Duration="1" Instrument="blank"
				Note Time="4" Value="F#2" Duration="1" Instrument="stepdown"
				Note Time="6" Value="C1" Duration="1" Instrument="tight triangle kick"
				Note Time="7" Value="F#2" Duration="1" Instrument="blank" CutDelay="2"
				Note Time="8" Value="F#2" Duration="1" Instrument="blank"
				Note Time="10" Value="F#2" Duration="1" Instrument="blank"
				Note Time="12" Value="C1" Duration="1" Instrument="tight triangle kick"
				Note Time="13" Value="F#2" Duration="1" Instrument="blank" CutDelay="2"
				Note Time="14" Value="F#2" Duration="1" Instrument="blank"
				Note Time="16" Value="F#2" Duration="1" Instrument="blank"
				Note Time="18" Value="C1" Duration="1" Instrument="tight triangle kick"
				Note Time="19" Value="F#2" Duration="1" Instrument="blank" CutDelay="2"
				Note Time="20" Value="F#2" Duration="1" Instrument="blank"
				Note Time="22" Value="F#2" Duration="1" Instrument="blank"
			Pattern Name="09" Color="d8ffa1"
				Note Time="0" Value="C1" Duration="2" Instrument="tight triangle kick"
				Note Time="2" Value="F#1" Duration="2" Instrument="stepdown"
				Note Time="4" Value="F#1" Duration="2" Instrument="stepdown"
				Note Time="6" Value="C1" Duration="2" Instrument="tight triangle kick"
				Note Time="8" Value="A1" Duration="2" Instrument="stepdown"
				Note Time="10" Value="A1" Duration="2" Instrument="stepdown"
				Note Time="12" Value="C1" Duration="2" Instrument="tight triangle kick"
				Note Time="14" Value="F#1" Duration="2" Instrument="stepdown"
				Note Time="16" Value="F#1" Duration="2" Instrument="stepdown"
				Note Time="18" Value="C1" Duration="2" Instrument="tight triangle kick"
				Note Time="20" Value="A1" Duration="2" Instrument="stepdown"
				Note Time="22" Value="A2" Duration="2" Instrument="blank" FinePitch="1"
			Pattern Name="0A" Color="3fe5ff"
				Note Time="0" Value="F#1" Duration="2" Instrument="blank"
				Note Time="1" CutDelay="2"
				Note Time="2" Value="F#1" Duration="2" Instrument="blank"
				Note Time="3" CutDelay="2"
				Note Time="4" Value="F#1" Duration="2" Instrument="blank"
				Note Time="5" CutDelay="2"
				Note Time="6" Value="F#1" Duration="2" Instrument="blank"
				Note Time="7" CutDelay="2"
				Note Time="8" Value="F#1" Duration="2" Instrument="blank"
				Note Time="9" CutDelay="2"
				Note Time="10" Value="F#1" Duration="2" Instrument="blank"
				Note Time="11" CutDelay="2"
				Note Time="12" Value="F#1" Duration="2" Instrument="blank"
				Note Time="13" CutDelay="2"
				Note Time="14" Value="F#1" Duration="2" Instrument="blank"
				Note Time="15" CutDelay="2"
				Note Time="16" Value="C1" Duration="1" Instrument="tight triangle kick"
				Note Time="17" Value="F#1" Duration="1" Instrument="blank" CutDelay="2"
				Note Time="18" Value="C1" Duration="1" Instrument="tight triangle kick"
				Note Time="19" Value="F#1" Duration="1" Instrument="blank" CutDelay="2"
				Note Time="20" Value="F#1" Duration="1" Instrument="blank"
				Note Time="21" Value="F#1" Duration="1" Instrument="blank" CutDelay="2"
				Note Time="22" Value="C1" Duration="1" Instrument="tight triangle kick"
				Note Time="23" Value="F#1" Duration="1" Instrument="blank" CutDelay="2"
			Pattern Name="0B" Color="ca60e6"
				Note Time="0" Value="C1" Duration="2" Instrument="tight triangle kick"
				Note Time="2" Value="F#1" Duration="1" Instrument="blank"
				Note Time="4" Value="F#1" Duration="1" Instrument="blank"
				Note Time="6" Value="C1" Duration="1" Instrument="tight triangle kick"
				Note Time="7" Value="A1" Duration="2" Instrument="blank"
				Note Time="10" Value="A1" Duration="1" Instrument="blank"
				Note Time="12" Value="C1" Duration="2" Instrument="tight triangle kick"
				Note Time="14" Value="F#2" Duration="1" Instrument="blank"
				Note Time="16" Value="F#2" Duration="1" Instrument="blank"
				Note Time="18" Value="C1" Duration="1" Instrument="tight triangle kick"
				Note Time="20" Value="A2" Duration="1" Instrument="blank"
				Note Time="22" Value="A2" Duration="2" Instrument="blank" FinePitch="1"
			Pattern Name="0C" Color="ff8d5a"
				Note Time="0" Value="C1" Duration="2" Instrument="tight triangle kick"
				Note Time="2" Value="F#1" Duration="1" Instrument="blank"
				Note Time="4" Value="F#1" Duration="1" Instrument="blank"
				Note Time="6" Value="C1" Duration="1" Instrument="tight triangle kick"
				Note Time="7" Value="A1" Duration="2" Instrument="blank"
				Note Time="10" Value="A1" Duration="1" Instrument="blank"
				Note Time="12" Value="C1" Duration="2" Instrument="tight triangle kick"
				Note Time="14" Value="F#2" Duration="1" Instrument="blank"
				Note Time="16" Value="F#2" Duration="1" Instrument="blank"
				Note Time="18" Value="C1" Duration="1" Instrument="tight triangle kick"
				Note Time="19" Value="A2" Duration="2" Instrument="blank"
				Note Time="22" Value="A2" Duration="1" Instrument="blank"
			Pattern Name="0D" Color="ebf067"
				Note Time="0" Value="F#2" Duration="9" Instrument="blank"
				Note Time="9" Value="F#2" Duration="9" Instrument="blank" SlideTarget="F#1"
				Note Time="18" Value="F#1" Duration="7" Instrument="blank" Attack="False"
			Pattern Name="0E" Color="3cbfcb"
				Note Time="0" Value="Stop"
				Note Time="12" Value="C1" Duration="2" Instrument="tight triangle snare"
				Note Time="14" Value="C1" Duration="1" Instrument="stepdown" SlideTarget="C#1"
				Note Time="16" Value="F#1" Duration="1" Instrument="stepdown"
			Pattern Name="0F" Color="d1b1ff"
				Note Time="12" Value="C1" Duration="1" Instrument="tight triangle snare"
				Note Time="13" Value="C1" Duration="3" Instrument="blank" SlideTarget="D#1"
				Note Time="16" Value="D#1" Duration="2" Instrument="blank" SlideTarget="E1"
				Note Time="18" Value="E1" Duration="2" Instrument="blank" Attack="False"
				Note Time="19" CutDelay="1"
				Note Time="20" Value="E1" Duration="1" Instrument="blank" SlideTarget="E1"
				Note Time="21" Value="E1" Duration="2" Instrument="blank" Attack="False"
				Note Time="22" CutDelay="1"
			Pattern Name="10" Color="ddc4bb"
				Note Time="0" Value="Stop"
				Note Time="12" Value="C1" Duration="2" Instrument="tight triangle snare"
			Pattern Name="11" Color="ffff94"
				Note Time="0" Value="C1" Duration="2" Instrument="blank" SlideTarget="D1"
				Note Time="2" Value="D1" Duration="8" Instrument="blank" SlideTarget="F#1"
				Note Time="10" Value="F#1" Duration="3" Instrument="blank" Attack="False"
				Note Time="14" Value="F#1" Duration="1" Instrument="blank"
				Note Time="16" Value="F#1" Duration="1" Instrument="blank"
				Note Time="18" Value="A1" Duration="1" Instrument="blank"
				Note Time="20" Value="A1" Duration="1" Instrument="blank"
				Note Time="22" Value="A1" Duration="1" Instrument="blank"
			Pattern Name="12" Color="3cd2c4"
				Note Time="0" Value="A1" Duration="11" Instrument="blank"
				Note Time="12" Value="E1" Duration="3" Instrument="blank"
				Note Time="16" Value="E1" Duration="3" Instrument="blank"
				Note Time="20" Value="E1" Duration="3" Instrument="blank"
			Pattern Name="13" Color="7585e7"
				Note Time="1" Value="D1" Duration="11" Instrument="blank"
				Note Time="13" Value="D1" Duration="11" Instrument="blank"
			Pattern Name="14" Color="ff6b6b"
				Note Time="0" Value="D1" Duration="2" Instrument="blank" SlideTarget="D#1"
				Note Time="1" CutDelay="2"
				Note Time="2" Value="D#1" Duration="2" Instrument="blank" SlideTarget="F1"
				Note Time="3" CutDelay="2"
				Note Time="4" Value="F1" Duration="2" Instrument="blank" SlideTarget="G1"
				Note Time="5" CutDelay="2"
				Note Time="6" Value="G1" Duration="2" Instrument="blank" SlideTarget="A1"
				Note Time="7" CutDelay="2"
				Note Time="8" Value="A1" Duration="2" Instrument="blank" SlideTarget="B1"
				Note Time="9" CutDelay="2"
				Note Time="10" Value="B1" Duration="2" Instrument="blank" SlideTarget="C#2"
				Note Time="11" CutDelay="2"
				Note Time="12" Value="C#2" Duration="4" Instrument="blank" SlideTarget="E2"
				Note Time="15" CutDelay="2"
				Note Time="16" Value="E2" Duration="1" Instrument="blank" SlideTarget="E2"
				Note Time="17" Value="E2" Duration="3" Instrument="blank" Attack="False"
				Note Time="19" CutDelay="2"
				Note Time="20" Value="E2" Duration="1" Instrument="blank" SlideTarget="E2"
				Note Time="21" Value="E2" Duration="3" Instrument="blank" Attack="False"
				Note Time="23" CutDelay="2"
			Pattern Name="15" Color="ffdc3c"
				Note Time="0" Value="E2" Duration="2" Instrument="DMC: drums + bass" SlideTarget="D#2"
				Note Time="2" Value="D#2" Duration="2" Instrument="DMC: drums + bass" SlideTarget="F#2"
				Note Time="4" Value="F#2" Duration="8" Instrument="DMC: drums + bass" Attack="False"
				Note Time="12" Value="F#2" Duration="12" Instrument="DMC: drums + bass"
			Pattern Name="16" Color="6ab96e"
				Note Time="12" Value="F#2" Duration="12" Instrument="DMC: drums + bass"
				Note Time="23" CutDelay="4"
			PatternInstance Time="1" Pattern="04"
			PatternInstance Time="3" Pattern="01"
			PatternInstance Time="4" Pattern="02"
			PatternInstance Time="5" Pattern="05"
			PatternInstance Time="6" Pattern="03"
			PatternInstance Time="7" Pattern="06"
			PatternInstance Time="8" Pattern="07"
			PatternInstance Time="9" Pattern="08"
			PatternInstance Time="10" Pattern="09"
			PatternInstance Time="11" Pattern="06"
			PatternInstance Time="12" Pattern="07"
			PatternInstance Time="13" Pattern="0A"
			PatternInstance Time="14" Pattern="0B"
			PatternInstance Time="15" Pattern="06"
			PatternInstance Time="16" Pattern="0C"
			PatternInstance Time="17" Pattern="0D"
			PatternInstance Time="18" Pattern="0E"
			PatternInstance Time="19" Pattern="0F"
			PatternInstance Time="20" Pattern="10"
			PatternInstance Time="21" Pattern="10"
			PatternInstance Time="22" Pattern="0E"
			PatternInstance Time="23" Pattern="0F"
			PatternInstance Time="24" Pattern="10"
			PatternInstance Time="26" Pattern="11"
			PatternInstance Time="27" Pattern="12"
			PatternInstance Time="28" Pattern="13"
			PatternInstance Time="29" Pattern="13"
			PatternInstance Time="30" Pattern="11"
			PatternInstance Time="31" Pattern="14"
			PatternInstance Time="32" Pattern="15"
			PatternInstance Time="33" Pattern="16"
			PatternInstance Time="39" Pattern="02"
			PatternInstance Time="40" Pattern="05"
			PatternInstance Time="41" Pattern="03"
			PatternInstance Time="42" Pattern="06"
			PatternInstance Time="43" Pattern="07"
			PatternInstance Time="44" Pattern="08"
			PatternInstance Time="45" Pattern="09"
			PatternInstance Time="46" Pattern="06"
			PatternInstance Time="47" Pattern="0C"
			PatternInstance Time="48" Pattern="0D"
		Channel Type="Noise"
			Pattern Name="05" Color="c7ff86"
				Note Time="0" Value="A3" Duration="4" Instrument="snare"
				Note Time="4" Value="A3" Duration="2" Instrument="snare"
				Note Time="6" Value="A3" Duration="4" Instrument="snare"
				Note Time="10" Value="A3" Duration="2" Instrument="snare"
				Note Time="12" Value="A3" Duration="2" Instrument="snare"
				Note Time="14" Value="A3" Duration="2" Instrument="snare"
				Note Time="16" Value="A3" Duration="2" Instrument="snare"
				Note Time="18" Value="A3" Duration="2" Instrument="snare"
				Note Time="20" Value="A3" Duration="2" Instrument="snare"
				Note Time="22" Value="A3" Duration="2" Instrument="snare"
			Pattern Name="03" Color="3fd7ff"
				Note Time="0" Value="G#3" Duration="6" Instrument="cymbal"
				Note Time="6" Value="F#3" Duration="6" Instrument="cymbal"
				Note Time="12" Value="G2" Duration="6" Instrument="kick"
				Note Time="18" Value="F#3" Duration="6" Instrument="cymbal"
			Pattern Name="04" Color="b75bde"
				Note Time="0" Value="G2" Duration="6" Instrument="kick"
				Note Time="6" Value="F#3" Duration="3" Instrument="cymbal"
				Note Time="9" Value="G#3" Duration="1" Instrument="hat" Volume="5"
				Note Time="10" Value="G#3" Duration="1" Instrument="hat" Volume="5"
				Note Time="11" Value="G#3" Duration="1" Instrument="hat" Volume="5"
				Note Time="12" Value="G2" Duration="6" Instrument="kick" Volume="15"
				Note Time="18" Value="F#3" Duration="6" Instrument="cymbal"
			Pattern Name="06" Color="ff8655"
				Note Time="0" Value="G2" Duration="6" Instrument="kick"
				Note Time="6" Value="F#3" Duration="6" Instrument="cymbal"
				Note Time="12" Value="G2" Duration="6" Instrument="kick" Volume="15"
				Note Time="18" Value="F#3" Duration="6" Instrument="cymbal"
			Pattern Name="07" Color="dad960"
				Note Time="0" Value="G2" Duration="6" Instrument="kick"
				Note Time="6" Value="F#3" Duration="6" Instrument="cymbal"
				Note Time="12" Value="G2" Duration="6" Instrument="kick"
				Note Time="18" Value="F#3" Duration="6" Instrument="cymbal"
			Pattern Name="08" Color="89ffff"
				Note Time="0" Value="G#3" Duration="16" Instrument="kick"
				Note Time="16" Value="G#3" Duration="2" Instrument="kick"
				Note Time="18" Value="G#3" Duration="4" Instrument="kick"
				Note Time="22" Value="G#3" Duration="2" Instrument="kick"
			Pattern Name="09" Color="ffff77"
				Note Time="0" Value="G2" Duration="12" Instrument="kick"
				Note Time="12" Value="F#3" Duration="7" Instrument="cymbal"
				Note Time="19" Value="A#3" Duration="5" Instrument="blank" Volume="3" VolumeSlideTarget="14"
			Pattern Name="0A" Color="3cc5b7"
				Note Time="0" Value="D3" Duration="12" Instrument="cymbal" Volume="15"
				Note Time="12" Value="F#3" Duration="6" Instrument="cymbal"
			Pattern Name="0B" Color="6c7bdb"
				Note Time="12" Value="F#3" Duration="6" Instrument="cymbal"
				Note Time="20" Value="G#3" Duration="3" Instrument="snare" Volume="4"
				Note Time="23" Volume="15"
			Pattern Name="0C" Color="ff6464"
				Note Time="12" Value="F#3" Duration="6" Instrument="cymbal"
			Pattern Name="0D" Color="ffcb3c"
				Note Time="4" Value="G3" Duration="2" Instrument="hat"
				Note Time="6" Value="G3" Duration="4" Instrument="hat"
				Note Time="10" Value="G3" Duration="2" Instrument="hat"
				Note Time="12" Value="F#3" Duration="6" Instrument="cymbal"
				Note Time="18" Value="G3" Duration="10" Instrument="hat"
			Pattern Name="0E" Color="bdffc0"
				Note Time="4" Value="G3" Duration="2" Instrument="hat"
				Note Time="6" Value="G3" Duration="4" Instrument="hat"
				Note Time="10" Value="G3" Duration="6" Instrument="hat"
				Note Time="16" Value="G3" Duration="2" Instrument="hat"
				Note Time="18" Value="G3" Duration="2" Instrument="hat"
				Note Time="20" Value="G3" Duration="2" Instrument="hat"
				Note Time="22" Value="G3" Duration="2" Instrument="hat"
			Pattern Name="0F" Color="7ee1ff"
				Note Time="0" Value="F#3" Duration="10" Instrument="cymbal"
				Note Time="10" Value="G#3" Duration="2" Instrument="hat"
				Note Time="12" Value="G3" Duration="4" Instrument="cymbal"
				Note Time="16" Value="G#3" Duration="2" Instrument="hat"
				Note Time="18" Value="G#3" Duration="2" Instrument="hat"
				Note Time="20" Value="G#3" Duration="2" Instrument="hat"
				Note Time="22" Value="G#3" Duration="2" Instrument="hat"
			Pattern Name="10" Color="ff5a9f"
				Note Time="0" Value="F#3" Duration="10" Instrument="cymbal"
				Note Time="10" Value="F#3" Duration="2" Instrument="hat"
				Note Time="12" Value="G3" Duration="6" Instrument="cymbal"
				Note Time="18" Value="F#3" Duration="2" Instrument="hat"
				Note Time="20" Value="F#3" Duration="2" Instrument="hat"
				Note Time="22" Value="F#3" Duration="2" Instrument="hat"
			Pattern Name="11" Color="ffd43c"
				Note Time="0" Value="F#3" Duration="10" Instrument="cymbal"
				Note Time="10" Value="F#3" Duration="2" Instrument="cymbal"
				Note Time="12" Value="G3" Duration="4" Instrument="cymbal"
				Note Time="16" Value="F#3" Duration="4" Instrument="hat"
				Note Time="20" Value="F#3" Duration="2" Instrument="hat"
				Note Time="22" Value="F#3" Duration="2" Instrument="cymbal"
				Note Time="23" CutDelay="31"
			Pattern Name="13" Color="3ec4ff"
				Note Time="0" Value="G#3" Duration="12" Instrument="kick"
				Note Time="12" Value="G3" Duration="12" Instrument="cymbal"
				Note Time="23" CutDelay="31"
			PatternInstance Time="5" Pattern="05"
			PatternInstance Time="6" Pattern="03"
			PatternInstance Time="7" Pattern="04"
			PatternInstance Time="8" Pattern="06"
			PatternInstance Time="9" Pattern="06"
			PatternInstance Time="10" Pattern="07"
			PatternInstance Time="11" Pattern="04"
			PatternInstance Time="12" Pattern="06"
			PatternInstance Time="13" Pattern="08"
			PatternInstance Time="14" Pattern="06"
			PatternInstance Time="15" Pattern="04"
			PatternInstance Time="16" Pattern="07"
			PatternInstance Time="17" Pattern="09"
			PatternInstance Time="18" Pattern="0A"
			PatternInstance Time="19" Pattern="0B"
			PatternInstance Time="20" Pattern="0C"
			PatternInstance Time="21" Pattern="0C"
			PatternInstance Time="22" Pattern="0D"
			PatternInstance Time="23" Pattern="0D"
			PatternInstance Time="24" Pattern="0D"
			PatternInstance Time="25" Pattern="0E"
			PatternInstance Time="26" Pattern="0F"
			PatternInstance Time="27" Pattern="0F"
			PatternInstance Time="28" Pattern="0F"
			PatternInstance Time="29" Pattern="0F"
			PatternInstance Time="30" Pattern="0F"
			PatternInstance Time="31" Pattern="0F"
			PatternInstance Time="32" Pattern="10"
			PatternInstance Time="33" Pattern="11"
			PatternInstance Time="40" Pattern="05"
			PatternInstance Time="41" Pattern="03"
			PatternInstance Time="42" Pattern="04"
			PatternInstance Time="43" Pattern="06"
			PatternInstance Time="44" Pattern="06"
			PatternInstance Time="45" Pattern="07"
			PatternInstance Time="46" Pattern="04"
			PatternInstance Time="47" Pattern="07"
			PatternInstance Time="48" Pattern="13"
		Channel Type="DPCM"
			Pattern Name="05" Color="ffffb1"
				Note Time="0" Value="F5" Duration="4" Instrument="DMC: drums + bass"
				Note Time="4" Value="F5" Duration="2" Instrument="DMC: drums + bass"
				Note Time="6" Value="F5" Duration="4" Instrument="DMC: drums + bass"
				Note Time="10" Value="F5" Duration="2" Instrument="DMC: drums + bass"
				Note Time="12" Value="F5" Duration="2" Instrument="DMC: drums + bass"
				Note Time="14" Value="F5" Duration="2" Instrument="DMC: drums + bass"
				Note Time="16" Value="F5" Duration="2" Instrument="DMC: drums + bass"
				Note Time="18" Value="F5" Duration="2" Instrument="DMC: drums + bass"
				Note Time="20" Value="F5" Duration="2" Instrument="DMC: drums + bass"
				Note Time="22" Value="F5" Duration="2" Instrument="DMC: drums + bass"
			Pattern Name="03" Color="62ffff"
				Note Time="0" Value="E5" Duration="6" Instrument="DMC: drums + bass"
				Note Time="6" Value="F5" Duration="6" Instrument="DMC: drums + bass"
				Note Time="12" Value="E5" Duration="2" Instrument="DMC: drums + bass"
				Note Time="14" Value="F#3" Duration="1" Instrument="DMC: drums + bass"
				Note Time="16" Value="F#3" Duration="1" Instrument="DMC: drums + bass"
				Note Time="18" Value="F5" Duration="1" Instrument="DMC: drums + bass"
				Note Time="20" Value="F#3" Duration="1" Instrument="DMC: drums + bass"
			Pattern Name="06" Color="a376f3"
				Note Time="0" Value="E5" Duration="1" Instrument="DMC: drums + bass"
				Note Time="1" Value="C#3" Duration="3" Instrument="DMC: drums + bass"
				Note Time="4" Value="A2" Duration="2" Instrument="DMC: drums + bass"
				Note Time="6" Value="F5" Duration="6" Instrument="DMC: drums + bass"
				Note Time="12" Value="E5" Duration="6" Instrument="DMC: drums + bass"
				Note Time="18" Value="F5" Duration="6" Instrument="DMC: drums + bass"
			Pattern Name="07" Color="b59184"
				Note Time="0" Value="E5" Duration="6" Instrument="DMC: drums + bass"
				Note Time="6" Value="F5" Duration="6" Instrument="DMC: drums + bass"
				Note Time="12" Value="E5" Duration="2" Instrument="DMC: drums + bass"
				Note Time="14" Value="F#3" Duration="2" Instrument="DMC: drums + bass"
				Note Time="16" Value="F#3" Duration="2" Instrument="DMC: drums + bass"
				Note Time="18" Value="F5" Duration="2" Instrument="DMC: drums + bass"
				Note Time="20" Value="A3" Duration="4" Instrument="DMC: drums + bass"
			Pattern Name="08" Color="ffff71"
				Note Time="0" Value="E5" Duration="2" Instrument="DMC: drums + bass"
				Note Time="2" Value="F#3" Duration="2" Instrument="DMC: drums + bass"
				Note Time="4" Value="F#3" Duration="2" Instrument="DMC: drums + bass"
				Note Time="6" Value="F5" Duration="2" Instrument="DMC: drums + bass"
				Note Time="8" Value="F#3" Duration="2" Instrument="DMC: drums + bass"
				Note Time="10" Value="F#3" Duration="2" Instrument="DMC: drums + bass"
				Note Time="12" Value="E5" Duration="2" Instrument="DMC: drums + bass"
				Note Time="14" Value="F#3" Duration="2" Instrument="DMC: drums + bass"
				Note Time="16" Value="F#3" Duration="2" Instrument="DMC: drums + bass"
				Note Time="18" Value="F5" Duration="2" Instrument="DMC: drums + bass"
				Note Time="20" Value="F#3" Duration="2" Instrument="DMC: drums + bass"
				Note Time="22" Value="F#3" Duration="2" Instrument="DMC: drums + bass"
			Pattern Name="09" Color="3cb5a7"
				Note Time="0" Value="E5" Duration="2" Instrument="DMC: drums + bass"
				Note Time="2" Value="F#3" Duration="2" Instrument="DMC: drums + bass"
				Note Time="4" Value="F#3" Duration="2" Instrument="DMC: drums + bass"
				Note Time="6" Value="F5" Duration="2" Instrument="DMC: drums + bass"
				Note Time="8" Value="A3" Duration="2" Instrument="DMC: drums + bass"
				Note Time="10" Value="A3" Duration="2" Instrument="DMC: drums + bass"
				Note Time="12" Value="E5" Duration="2" Instrument="DMC: drums + bass"
				Note Time="14" Value="F#3" Duration="2" Instrument="DMC: drums + bass"
				Note Time="16" Value="F#3" Duration="2" Instrument="DMC: drums + bass"
				Note Time="18" Value="F5" Duration="2" Instrument="DMC: drums + bass"
				Note Time="20" Value="A3" Duration="2" Instrument="DMC: drums + bass"
				Note Time="22" Value="A3" Duration="2" Instrument="DMC: drums + bass"
			Pattern Name="0A" Color="6471cf"
				Note Time="0" Value="E5" Duration="16" Instrument="DMC: drums + bass"
				Note Time="16" Value="E5" Duration="2" Instrument="DMC: drums + bass"
				Note Time="18" Value="E5" Duration="4" Instrument="DMC: drums + bass"
				Note Time="22" Value="E5" Duration="2" Instrument="DMC: drums + bass"
			Pattern Name="02" Color="ffff8b"
				Note Time="0" Value="E5" Duration="6" Instrument="DMC: drums + bass"
				Note Time="6" Value="F5" Duration="6" Instrument="DMC: drums + bass"
				Note Time="12" Value="E5" Duration="6" Instrument="DMC: drums + bass"
				Note Time="18" Value="F5" Duration="6" Instrument="DMC: drums + bass"
			Pattern Name="04" Color="a2f7a6"
				Note Time="0" Value="E5" Duration="12" Instrument="DMC: drums + bass"
				Note Time="12" Value="F5" Duration="12" Instrument="DMC: drums + bass"
			Pattern Name="0B" Color="5dd2ff"
				Note Time="0" Value="Stop"
				Note Time="12" Value="F5" Duration="2" Instrument="DMC: drums + bass"
				Note Time="14" Value="F#3" Duration="2" Instrument="DMC: drums + bass"
				Note Time="16" Value="F#3" Duration="3" Instrument="DMC: drums + bass"
			Pattern Name="0C" Color="ff579c"
				Note Time="12" Value="F5" Duration="4" Instrument="DMC: drums + bass"
				Note Time="16" Value="E3" Duration="4" Instrument="DMC: drums + bass"
				Note Time="20" Value="E3" Duration="4" Instrument="DMC: drums + bass"
			Pattern Name="0D" Color="ffc83c"
				Note Time="0" Value="Stop"
				Note Time="12" Value="F5" Duration="36" Instrument="DMC: drums + bass"
			Pattern Name="0E" Color="a4db74"
				Note Time="0" Value="E5" Duration="12" Instrument="DMC: drums + bass"
				Note Time="12" Value="F5" Duration="2" Instrument="DMC: drums + bass"
				Note Time="14" Value="F#3" Duration="2" Instrument="DMC: drums + bass"
				Note Time="16" Value="F#3" Duration="2" Instrument="DMC: drums + bass"
				Note Time="18" Value="A3" Duration="2" Instrument="DMC: drums + bass"
				Note Time="20" Value="A3" Duration="2" Instrument="DMC: drums + bass"
				Note Time="22" Value="A3" Duration="2" Instrument="DMC: drums + bass"
			Pattern Name="0F" Color="3eb3f9"
				Note Time="0" Value="E5" Duration="2" Instrument="DMC: drums + bass"
				Note Time="2" Value="A3" Duration="1" Instrument="DMC: drums + bass"
				Note Time="3" Value="A3" Duration="1" Instrument="DMC: drums + bass"
				Note Time="4" Value="A3" Duration="1" Instrument="DMC: drums + bass"
				Note Time="5" Value="A3" Duration="1" Instrument="DMC: drums + bass"
				Note Time="6" Value="A3" Duration="1" Instrument="DMC: drums + bass"
				Note Time="7" Value="A3" Duration="1" Instrument="DMC: drums + bass"
				Note Time="8" Value="A3" Duration="1" Instrument="DMC: drums + bass"
				Note Time="9" Value="A3" Duration="1" Instrument="DMC: drums + bass"
				Note Time="10" Value="A3" Duration="1" Instrument="DMC: drums + bass"
				Note Time="11" Value="A3" Duration="1" Instrument="DMC: drums + bass"
				Note Time="12" Value="F5" Duration="2" Instrument="DMC: drums + bass"
				Note Time="14" Value="E3" Duration="2" Instrument="DMC: drums + bass"
				Note Time="16" Value="E3" Duration="4" Instrument="DMC: drums + bass"
				Note Time="20" Value="E3" Duration="4" Instrument="DMC: drums + bass"
			Pattern Name="10" Color="f6a4ff"
				Note Time="0" Value="E5" Duration="2" Instrument="DMC: drums + bass"
				Note Time="2" Value="D3" Duration="2" Instrument="DMC: drums + bass"
				Note Time="4" Value="D3" Duration="2" Instrument="DMC: drums + bass"
				Note Time="6" Value="D3" Duration="2" Instrument="DMC: drums + bass"
				Note Time="8" Value="D3" Duration="2" Instrument="DMC: drums + bass"
				Note Time="10" Value="D3" Duration="2" Instrument="DMC: drums + bass"
				Note Time="12" Value="F5" Duration="2" Instrument="DMC: drums + bass"
				Note Time="14" Value="D3" Duration="2" Instrument="DMC: drums + bass"
				Note Time="16" Value="D3" Duration="2" Instrument="DMC: drums + bass"
				Note Time="18" Value="D3" Duration="2" Instrument="DMC: drums + bass"
				Note Time="20" Value="D3" Duration="2" Instrument="DMC: drums + bass"
				Note Time="22" Value="D3" Duration="2" Instrument="DMC: drums + bass"
			Pattern Name="11" Color="ffc6a1"
				Note Time="0" Value="E5" Duration="2" Instrument="DMC: drums + bass"
				Note Time="2" Value="A3" Duration="2" Instrument="DMC: drums + bass"
				Note Time="4" Value="A3" Duration="2" Instrument="DMC: drums + bass"
				Note Time="6" Value="A3" Duration="2" Instrument="DMC: drums + bass"
				Note Time="8" Value="A3" Duration="2" Instrument="DMC: drums + bass"
				Note Time="10" Value="A3" Duration="2" Instrument="DMC: drums + bass"
				Note Time="12" Value="F5" Duration="2" Instrument="DMC: drums + bass"
				Note Time="14" Value="E3" Duration="2" Instrument="DMC: drums + bass"
				Note Time="16" Value="E3" Duration="4" Instrument="DMC: drums + bass"
				Note Time="20" Value="E3" Duration="4" Instrument="DMC: drums + bass"
			Pattern Name="13" Color="3cf8ff"
				Note Time="0" Value="E5" Duration="10" Instrument="DMC: drums + bass"
				Note Time="10" Value="E5" Duration="2" Instrument="DMC: drums + bass"
				Note Time="12" Value="F5" Duration="10" Instrument="DMC: drums + bass"
				Note Time="22" Value="E5" Duration="146" Instrument="DMC: drums + bass"
			PatternInstance Time="5" Pattern="05"
			PatternInstance Time="6" Pattern="03"
			PatternInstance Time="7" Pattern="06"
			PatternInstance Time="8" Pattern="07"
			PatternInstance Time="9" Pattern="08"
			PatternInstance Time="10" Pattern="09"
			PatternInstance Time="11" Pattern="06"
			PatternInstance Time="12" Pattern="07"
			PatternInstance Time="13" Pattern="0A"
			PatternInstance Time="14" Pattern="07"
			PatternInstance Time="15" Pattern="06"
			PatternInstance Time="16" Pattern="02"
			PatternInstance Time="17" Pattern="04"
			PatternInstance Time="18" Pattern="0B"
			PatternInstance Time="19" Pattern="0C"
			PatternInstance Time="20" Pattern="0D"
			PatternInstance Time="21" Pattern="0D"
			PatternInstance Time="22" Pattern="0B"
			PatternInstance Time="23" Pattern="0C"
			PatternInstance Time="24" Pattern="0D"
			PatternInstance Time="26" Pattern="0E"
			PatternInstance Time="27" Pattern="0F"
			PatternInstance Time="28" Pattern="10"
			PatternInstance Time="29" Pattern="10"
			PatternInstance Time="30" Pattern="0E"
			PatternInstance Time="31" Pattern="11"
			PatternInstance Time="32" Pattern="04"
			PatternInstance Time="33" Pattern="13"
			PatternInstance Time="40" Pattern="05"
			PatternInstance Time="41" Pattern="03"
			PatternInstance Time="42" Pattern="06"
			PatternInstance Time="43" Pattern="07"
			PatternInstance Time="44" Pattern="08"
			PatternInstance Time="45" Pattern="09"
			PatternInstance Time="46" Pattern="06"
			PatternInstance Time="47" Pattern="02"
			PatternInstance Time="48" Pattern="04"
	Song Name="Scheming Weasel" Color="b59184" Folder="Official music used in the game" Length="5" LoopPoint="1" PatternLength="64" BeatLength="4" FamiTrackerTempo="164" FamiTrackerSpeed="6"
		Channel Type="Square1"
			Pattern Name="00" Color="62e2d6"
				Note Time="0" Volume="6" DutyCycle="1"
				Note Time="4" Value="G2" Duration="4" Release="1" Instrument="loud blank string"
				Note Time="8" Value="G2" Duration="4" Release="1" Instrument="loud blank string"
				Note Time="12" Value="G2" Duration="8" Release="1" Instrument="loud blank string"
				Note Time="20" Value="G2" Duration="4" Release="1" Instrument="loud blank string"
				Note Time="24" Value="G2" Duration="4" Release="1" Instrument="loud blank string"
				Note Time="28" Value="G2" Duration="8" Release="1" Instrument="loud blank string"
				Note Time="36" Value="G2" Duration="4" Release="1" Instrument="loud blank string"
				Note Time="40" Value="G2" Duration="4" Release="1" Instrument="loud blank string"
				Note Time="44" Value="G2" Duration="8" Release="1" Instrument="loud blank string"
				Note Time="52" Value="F#2" Duration="4" Instrument="loud blank string" Volume="5"
				Note Time="53" Volume="6"
				Note Time="54" Volume="7"
				Note Time="55" Volume="8"
				Note Time="56" Value="G2" Duration="8" Release="1" Instrument="loud blank string"
			Pattern Name="01" Color="7b8df1"
				Note Time="0" Value="C3" Duration="2" Instrument="blank string" Volume="12" DutyCycle="0"
				Note Time="2" Value="D3" Duration="2" Instrument="blank string" NoteDelay="4"
				Note Time="4" Value="D#3" Duration="1" Instrument="blank string"
				Note Time="6" Value="F3" Duration="2" Instrument="blank string" NoteDelay="4"
				Note Time="8" Value="G3" Duration="1" Instrument="blank string"
				Note Time="10" Value="G#3" Duration="2" Instrument="blank string" NoteDelay="4"
				Note Time="12" Value="G3" Duration="1" Instrument="blank string"
				Note Time="14" Value="F#3" Duration="2" Instrument="blank string" NoteDelay="4"
				Note Time="16" Value="G3" Duration="2" Instrument="blank string"
				Note Time="18" Value="G#3" Duration="2" Instrument="blank string" NoteDelay="4"
				Note Time="20" Value="G3" Duration="1" Instrument="blank string"
				Note Time="22" Value="F3" Duration="2" Instrument="blank string" NoteDelay="4"
				Note Time="24" Value="D#3" Duration="1" Instrument="blank string"
				Note Time="26" Value="D3" Duration="2" Instrument="blank string" NoteDelay="4"
				Note Time="28" Value="C3" Duration="2" Instrument="blank string"
				Note Time="30" Value="G2" Duration="2" Instrument="blank string" NoteDelay="4"
				Note Time="32" Value="G#2" Duration="2" Instrument="blank string"
				Note Time="44" Value="C3" Duration="2" Instrument="blank string"
				Note Time="46" Value="A#2" Duration="1" Instrument="blank string" NoteDelay="6"
				Note Time="47" Value="G#2" Duration="1" Instrument="blank string" NoteDelay="4"
				Note Time="48" Value="G2" Duration="2" Instrument="blank string"
			Pattern Name="02" Color="ff7571"
				Note Time="0" Value="F3" Duration="2" Instrument="blank string" DutyCycle="2"
				Note Time="2" Value="E3" Duration="2" Instrument="blank string" NoteDelay="4"
				Note Time="4" Value="F3" Duration="2" Instrument="blank string"
				Note Time="6" Value="G3" Duration="2" Instrument="blank string" NoteDelay="4"
				Note Time="8" Value="G#3" Duration="2" Instrument="blank string"
				Note Time="12" Value="F5" Duration="4" Instrument="sample" Arpeggio="Arp 37" Volume="10"
				Note Time="13" Volume="8"
				Note Time="14" Volume="6"
				Note Time="15" Volume="4"
				Note Time="16" Value="F5" Duration="4" Instrument="sample" Arpeggio="Arp 37" Volume="10"
				Note Time="17" Volume="8"
				Note Time="18" Volume="6"
				Note Time="19" Volume="4"
				Note Time="20" Value="F5" Duration="4" Instrument="sample" Arpeggio="Arp 38" Volume="10"
				Note Time="21" Volume="8"
				Note Time="22" Volume="6"
				Note Time="23" Volume="4"
				Note Time="24" Value="F5" Duration="8" Instrument="sample" Arpeggio="Arp 37" Volume="10"
				Note Time="25" Volume="8"
				Note Time="26" Volume="6"
				Note Time="27" Volume="4"
				Note Time="28" Volume="2"
				Note Time="29" Volume="1"
				Note Time="32" Value="F3" Duration="2" Instrument="blank string" Volume="15"
				Note Time="34" Value="E3" Duration="2" Instrument="blank string" NoteDelay="4"
				Note Time="36" Value="F3" Duration="2" Instrument="blank string"
				Note Time="38" Value="G3" Duration="2" Instrument="blank string" NoteDelay="4"
				Note Time="40" Value="G#3" Duration="2" Instrument="blank string"
				Note Time="44" Value="C4" Duration="2" Instrument="blank string"
				Note Time="48" Value="G3" Duration="8" Instrument="blank string"
				Note Time="56" Value="G#3" Duration="2" Instrument="blank string"
			Pattern Name="03" Color="ffef3c"
				Note Time="0" Value="F3" Duration="2" Instrument="blank string" DutyCycle="2"
				Note Time="2" Value="E3" Duration="2" Instrument="blank string" NoteDelay="4"
				Note Time="4" Value="F3" Duration="2" Instrument="blank string"
				Note Time="6" Value="G3" Duration="2" Instrument="blank string" NoteDelay="4"
				Note Time="8" Value="G#3" Duration="2" Instrument="blank string"
				Note Time="12" Value="F5" Duration="4" Instrument="sample" Arpeggio="Arp 37" Volume="10"
				Note Time="13" Volume="8"
				Note Time="14" Volume="6"
				Note Time="15" Volume="4"
				Note Time="16" Value="F5" Duration="4" Instrument="sample" Arpeggio="Arp 37" Volume="10"
				Note Time="17" Volume="8"
				Note Time="18" Volume="6"
				Note Time="19" Volume="4"
				Note Time="20" Value="F5" Duration="4" Instrument="sample" Arpeggio="Arp 38" Volume="10"
				Note Time="21" Volume="8"
				Note Time="22" Volume="6"
				Note Time="23" Volume="4"
				Note Time="24" Value="F5" Duration="8" Instrument="sample" Arpeggio="Arp 37" Volume="10"
				Note Time="25" Volume="8"
				Note Time="26" Volume="6"
				Note Time="27" Volume="4"
				Note Time="28" Volume="2"
				Note Time="29" Volume="1"
				Note Time="32" Value="F3" Duration="2" Instrument="blank string" Volume="15"
				Note Time="34" Value="E3" Duration="2" Instrument="blank string" NoteDelay="4"
				Note Time="36" Value="F3" Duration="2" Instrument="blank string"
				Note Time="38" Value="G3" Duration="2" Instrument="blank string" NoteDelay="4"
				Note Time="40" Value="G#3" Duration="2" Instrument="blank string"
				Note Time="44" Value="F3" Duration="2" Instrument="blank string"
				Note Time="48" Value="G3" Duration="8" Instrument="blank string"
				Note Time="56" Value="D3" Duration="2" Instrument="blank string"
			PatternInstance Time="0" Pattern="00"
			PatternInstance Time="1" Pattern="01"
			PatternInstance Time="2" Pattern="01"
			PatternInstance Time="3" Pattern="02"
			PatternInstance Time="4" Pattern="03"
		Channel Type="Square2"
			Pattern Name="00" Color="74ca78"
				Note Time="0" Volume="6" DutyCycle="1"
				Note Time="4" Value="D#2" Duration="4" Release="1" Instrument="loud blank string"
				Note Time="8" Value="D#2" Duration="4" Release="1" Instrument="loud blank string"
				Note Time="12" Value="D#2" Duration="8" Release="1" Instrument="loud blank string"
				Note Time="20" Value="D#2" Duration="4" Release="1" Instrument="loud blank string"
				Note Time="24" Value="D#2" Duration="4" Release="1" Instrument="loud blank string"
				Note Time="28" Value="D#2" Duration="8" Release="1" Instrument="loud blank string"
				Note Time="36" Value="D#2" Duration="4" Release="1" Instrument="loud blank string"
				Note Time="40" Value="D#2" Duration="4" Release="1" Instrument="loud blank string"
				Note Time="44" Value="D#2" Duration="8" Release="1" Instrument="loud blank string"
				Note Time="52" Value="D#2" Duration="4" Instrument="loud blank string" Volume="5"
				Note Time="53" Volume="6"
				Note Time="54" Volume="7"
				Note Time="55" Volume="8"
				Note Time="56" Value="D#2" Duration="12" Release="1" Instrument="loud blank string"
			Pattern Name="01" Color="51a1fc"
				Note Time="0" Volume="8"
				Note Time="4" Value="D#2" Duration="4" Release="1" Instrument="loud blank string" Arpeggio="Arp 44"
				Note Time="8" Value="D#2" Duration="4" Release="1" Instrument="loud blank string" Arpeggio="Arp 44"
				Note Time="12" Value="D#2" Duration="8" Release="1" Instrument="loud blank string" Arpeggio="Arp 44"
				Note Time="20" Value="D#2" Duration="4" Release="1" Instrument="loud blank string" Arpeggio="Arp 44"
				Note Time="24" Value="D#2" Duration="4" Release="1" Instrument="loud blank string" Arpeggio="Arp 44"
				Note Time="28" Value="D#2" Duration="8" Release="1" Instrument="loud blank string" Arpeggio="Arp 44"
				Note Time="36" Value="F2" Duration="4" Release="1" Instrument="loud blank string" Arpeggio="Arp 33"
				Note Time="40" Value="F2" Duration="4" Release="1" Instrument="loud blank string" Arpeggio="Arp 33"
				Note Time="44" Value="F2" Duration="8" Release="1" Instrument="loud blank string" Arpeggio="Arp 33"
				Note Time="52" Value="D#2" Duration="4" Release="1" Instrument="loud blank string" Arpeggio="Arp 44"
				Note Time="56" Value="D#2" Duration="4" Release="1" Instrument="loud blank string" Arpeggio="Arp 44"
				Note Time="60" Value="D#2" Duration="8" Release="1" Instrument="loud blank string" Arpeggio="Arp 44"
			Pattern Name="02" Color="ff9ece"
				Note Time="0" Volume="8"
				Note Time="4" Value="D#2" Duration="4" Release="1" Instrument="loud blank string" Arpeggio="Arp 44"
				Note Time="8" Value="D#2" Duration="4" Release="1" Instrument="loud blank string" Arpeggio="Arp 44"
				Note Time="12" Value="D#2" Duration="8" Release="1" Instrument="loud blank string" Arpeggio="Arp 44"
				Note Time="20" Value="D#2" Duration="4" Release="1" Instrument="loud blank string" Arpeggio="Arp 44"
				Note Time="24" Value="D#2" Duration="4" Release="1" Instrument="loud blank string" Arpeggio="Arp 44"
				Note Time="28" Value="D#2" Duration="8" Release="1" Instrument="loud blank string" Arpeggio="Arp 44"
				Note Time="36" Value="F2" Duration="4" Release="1" Instrument="loud blank string" Arpeggio="Arp 33"
				Note Time="40" Value="F2" Duration="4" Release="1" Instrument="loud blank string" Arpeggio="Arp 33"
				Note Time="44" Value="F2" Duration="8" Release="1" Instrument="loud blank string" Arpeggio="Arp 33"
				Note Time="52" Value="D#2" Duration="4" Release="1" Instrument="loud blank string" Arpeggio="Arp 44"
				Note Time="56" Value="D#2" Duration="12" Release="1" Instrument="loud blank string" Arpeggio="Arp 44"
			Pattern Name="03" Color="fff389"
				Note Time="0" Volume="8"
				Note Time="4" Value="F2" Duration="4" Release="1" Instrument="loud blank string" Arpeggio="Arp 33"
				Note Time="8" Value="F2" Duration="4" Release="1" Instrument="loud blank string" Arpeggio="Arp 33"
				Note Time="12" Value="F2" Duration="8" Release="1" Instrument="loud blank string" Arpeggio="Arp 33"
				Note Time="20" Value="F2" Duration="4" Release="1" Instrument="loud blank string" Arpeggio="Arp 33"
				Note Time="24" Value="F2" Duration="4" Release="1" Instrument="loud blank string" Arpeggio="Arp 33"
				Note Time="28" Value="F2" Duration="8" Release="1" Instrument="loud blank string" Arpeggio="Arp 33"
				Note Time="36" Value="F2" Duration="4" Release="1" Instrument="loud blank string" Arpeggio="Arp 33"
				Note Time="40" Value="F2" Duration="4" Release="1" Instrument="loud blank string" Arpeggio="Arp 33"
				Note Time="44" Value="F2" Duration="8" Release="1" Instrument="loud blank string" Arpeggio="Arp 33"
				Note Time="52" Value="F2" Duration="4" Release="1" Instrument="loud blank string" Arpeggio="Arp 33"
				Note Time="56" Value="F2" Duration="4" Release="1" Instrument="loud blank string" Arpeggio="Arp 33"
				Note Time="60" Value="F2" Duration="8" Release="1" Instrument="loud blank string" Arpeggio="Arp 33"
			Pattern Name="04" Color="d8ffa1"
				Note Time="0" Volume="8"
				Note Time="4" Value="F2" Duration="4" Release="1" Instrument="loud blank string" Arpeggio="Arp 33"
				Note Time="8" Value="F2" Duration="4" Release="1" Instrument="loud blank string" Arpeggio="Arp 33"
				Note Time="12" Value="F2" Duration="8" Release="1" Instrument="loud blank string" Arpeggio="Arp 33"
				Note Time="20" Value="F2" Duration="4" Release="1" Instrument="loud blank string" Arpeggio="Arp 33"
				Note Time="24" Value="F2" Duration="4" Release="1" Instrument="loud blank string" Arpeggio="Arp 33"
				Note Time="28" Value="F2" Duration="8" Release="1" Instrument="loud blank string" Arpeggio="Arp 33"
				Note Time="36" Value="F2" Duration="4" Release="1" Instrument="loud blank string" Arpeggio="Arp 33"
				Note Time="40" Value="F2" Duration="4" Release="1" Instrument="loud blank string" Arpeggio="Arp 33"
				Note Time="44" Value="F2" Duration="8" Release="1" Instrument="loud blank string" Arpeggio="Arp 11"
				Note Time="52" Value="D2" Duration="4" Release="1" Instrument="loud blank string" Arpeggio="Arp 06"
				Note Time="56" Value="D2" Duration="4" Release="1" Instrument="loud blank string" Arpeggio="Arp 06"
				Note Time="60" Value="D2" Duration="4" Release="1" Instrument="loud blank string" Arpeggio="Arp 06"
			PatternInstance Time="0" Pattern="00"
			PatternInstance Time="1" Pattern="01"
			PatternInstance Time="2" Pattern="02"
			PatternInstance Time="3" Pattern="03"
			PatternInstance Time="4" Pattern="04"
		Channel Type="Triangle"
		Channel Type="Noise"
		Channel Type="DPCM"
			Pattern Name="00" Color="d1b1ff"
				Note Time="0" Value="C3" Duration="6" Instrument="DMC: drums + bass"
				Note Time="12" Value="G2" Duration="4" Instrument="DMC: drums + bass"
				Note Time="16" Value="C3" Duration="6" Instrument="DMC: drums + bass"
				Note Time="28" Value="G2" Duration="4" Instrument="DMC: drums + bass"
				Note Time="32" Value="C3" Duration="6" Instrument="DMC: drums + bass"
				Note Time="44" Value="G2" Duration="4" Instrument="DMC: drums + bass"
				Note Time="48" Value="C3" Duration="6" Instrument="DMC: drums + bass"
			Pattern Name="01" Color="ddc4bb"
				Note Time="0" Value="C3" Duration="6" Instrument="DMC: drums + bass"
				Note Time="12" Value="G2" Duration="4" Instrument="DMC: drums + bass"
				Note Time="16" Value="C3" Duration="6" Instrument="DMC: drums + bass"
				Note Time="28" Value="G2" Duration="4" Instrument="DMC: drums + bass"
				Note Time="32" Value="F3" Duration="6" Instrument="DMC: drums + bass"
				Note Time="44" Value="G3" Duration="4" Instrument="DMC: drums + bass"
				Note Time="48" Value="C3" Duration="6" Instrument="DMC: drums + bass"
			Pattern Name="02" Color="ffff94"
				Note Time="0" Value="F3" Duration="6" Instrument="DMC: drums + bass"
				Note Time="12" Value="C3" Duration="4" Instrument="DMC: drums + bass"
				Note Time="16" Value="F3" Duration="6" Instrument="DMC: drums + bass"
				Note Time="28" Value="C3" Duration="4" Instrument="DMC: drums + bass"
				Note Time="32" Value="F3" Duration="6" Instrument="DMC: drums + bass"
				Note Time="44" Value="C3" Duration="4" Instrument="DMC: drums + bass"
				Note Time="48" Value="F3" Duration="6" Instrument="DMC: drums + bass"
			Pattern Name="03" Color="3cd2c4"
				Note Time="0" Value="F3" Duration="6" Instrument="DMC: drums + bass"
				Note Time="12" Value="C3" Duration="4" Instrument="DMC: drums + bass"
				Note Time="16" Value="F3" Duration="6" Instrument="DMC: drums + bass"
				Note Time="28" Value="C3" Duration="4" Instrument="DMC: drums + bass"
				Note Time="32" Value="F3" Duration="6" Instrument="DMC: drums + bass"
				Note Time="44" Value="D3" Duration="4" Instrument="DMC: drums + bass"
				Note Time="48" Value="G3" Duration="6" Instrument="DMC: drums + bass"
			PatternInstance Time="0" Pattern="00"
			PatternInstance Time="1" Pattern="01"
			PatternInstance Time="2" Pattern="01"
			PatternInstance Time="3" Pattern="02"
			PatternInstance Time="4" Pattern="03"
	Song Name="Practice" Color="ffac7f" Folder="Official music used in the game" Length="129" LoopPoint="0" PatternLength="32" BeatLength="4" FamiTrackerTempo="214" FamiTrackerSpeed="5"
		PatternCustomSettings Time="128" Length="16"
		Channel Type="Square1"
			Pattern Name="00" Color="8a706a"
				Note Time="0" Value="A#3" Duration="8" Instrument="echo" DutyCycle="2"
				Note Time="8" Value="F4" Duration="4" Instrument="echo"
				Note Time="12" Value="D#4" Duration="2" Instrument="echo"
				Note Time="14" Value="F4" Duration="4" Instrument="echo"
				Note Time="18" Value="C#4" Duration="2" Instrument="echo"
				Note Time="20" Value="F4" Duration="4" Instrument="echo"
				Note Time="24" Value="C4" Duration="4" Instrument="echo"
				Note Time="28" Value="C#4" Duration="4" Instrument="echo"
			Pattern Name="02" Color="ffffb2"
				Note Time="0" Value="G#3" Duration="8" Instrument="echo"
				Note Time="8" Value="F4" Duration="4" Instrument="echo"
				Note Time="12" Value="D#4" Duration="2" Instrument="echo"
				Note Time="14" Value="F4" Duration="4" Instrument="echo"
				Note Time="18" Value="C#4" Duration="2" Instrument="echo"
				Note Time="20" Value="F4" Duration="4" Instrument="echo"
				Note Time="24" Value="C4" Duration="4" Instrument="echo"
				Note Time="28" Value="C#4" Duration="4" Instrument="echo"
			Pattern Name="03" Color="62e2d6"
				Note Time="0" Value="F#3" Duration="8" Instrument="echo"
				Note Time="8" Value="D#4" Duration="4" Instrument="echo"
				Note Time="12" Value="C#4" Duration="2" Instrument="echo"
				Note Time="14" Value="D#4" Duration="4" Instrument="echo"
				Note Time="18" Value="C#4" Duration="2" Instrument="echo"
				Note Time="20" Value="D#4" Duration="4" Instrument="echo"
				Note Time="24" Value="C4" Duration="4" Instrument="echo"
				Note Time="28" Value="C#4" Duration="4" Instrument="echo"
			Pattern Name="04" Color="7b8df1"
				Note Time="0" Value="A#3" Duration="8" Instrument="echo"
				Note Time="8" Value="A#4" Duration="4" Instrument="echo"
				Note Time="12" Value="G#4" Duration="2" Instrument="echo"
				Note Time="14" Value="A#4" Duration="4" Instrument="echo"
				Note Time="18" Value="F4" Duration="2" Instrument="echo"
				Note Time="20" Value="A#4" Duration="4" Instrument="echo"
				Note Time="24" Value="D#4" Duration="4" Instrument="echo"
				Note Time="28" Value="F4" Duration="4" Instrument="echo"
			Pattern Name="05" Color="ff7571"
				Note Time="0" Value="A#3" Duration="8" Instrument="echo"
				Note Time="8" Value="C#5" Duration="4" Instrument="echo"
				Note Time="12" Value="C5" Duration="2" Instrument="echo"
				Note Time="14" Value="C#5" Duration="4" Instrument="echo"
				Note Time="18" Value="A#4" Duration="2" Instrument="echo"
				Note Time="20" Value="C#5" Duration="4" Instrument="echo"
				Note Time="24" Value="G#4" Duration="4" Instrument="echo"
				Note Time="28" Value="A#4" Duration="4" Instrument="echo"
			Pattern Name="06" Color="ffef3c"
				Note Time="0" Value="C#4" Duration="8" Instrument="echo"
				Note Time="8" Value="C#5" Duration="4" Instrument="echo"
				Note Time="12" Value="C5" Duration="2" Instrument="echo"
				Note Time="14" Value="C#5" Duration="4" Instrument="echo"
				Note Time="18" Value="C#4" Duration="2" Instrument="echo"
				Note Time="20" Value="C#5" Duration="4" Instrument="echo"
				Note Time="24" Value="C4" Duration="4" Instrument="echo"
				Note Time="28" Value="G#3" Duration="4" Instrument="echo"
			Pattern Name="07" Color="74ca78"
				Note Time="0" Value="F#3" Duration="8" Instrument="echo"
				Note Time="8" Value="F#4" Duration="4" Instrument="echo"
				Note Time="12" Value="F4" Duration="2" Instrument="echo"
				Note Time="14" Value="F#4" Duration="4" Instrument="echo"
				Note Time="18" Value="F4" Duration="2" Instrument="echo"
				Note Time="20" Value="F#4" Duration="4" Instrument="echo"
				Note Time="24" Value="D#4" Duration="4" Instrument="echo"
				Note Time="28" Value="F4" Duration="4" Instrument="echo"
			Pattern Name="09" Color="51a1fc"
				Note Time="0" Value="F#3" Duration="8" Instrument="echo"
				Note Time="8" Value="F#4" Duration="4" Instrument="echo"
				Note Time="12" Value="F4" Duration="2" Instrument="echo"
				Note Time="14" Value="F#4" Duration="4" Instrument="echo"
				Note Time="18" Value="C#4" Duration="2" Instrument="echo"
				Note Time="20" Value="F#4" Duration="4" Instrument="echo"
				Note Time="24" Value="C4" Duration="4" Instrument="echo"
				Note Time="28" Value="C#4" Duration="4" Instrument="echo"
			Pattern Name="0A" Color="ff9ece"
				Note Time="0" Value="G#3" Duration="8" Instrument="echo"
				Note Time="8" Value="D#4" Duration="4" Instrument="echo"
				Note Time="12" Value="C#4" Duration="2" Instrument="echo"
				Note Time="14" Value="D#4" Duration="4" Instrument="echo"
				Note Time="18" Value="C#4" Duration="2" Instrument="echo"
				Note Time="20" Value="D#4" Duration="4" Instrument="echo"
				Note Time="24" Value="A#3" Duration="4" Instrument="echo"
				Note Time="28" Value="C4" Duration="4" Instrument="echo"
			Pattern Name="0B" Color="fff389"
				Note Time="0" Value="F3" Duration="8" Instrument="echo"
				Note Time="8" Value="D#4" Duration="4" Instrument="echo"
				Note Time="12" Value="C#4" Duration="2" Instrument="echo"
				Note Time="14" Value="D#4" Duration="4" Instrument="echo"
				Note Time="18" Value="C#4" Duration="2" Instrument="echo"
				Note Time="20" Value="D#4" Duration="4" Instrument="echo"
				Note Time="24" Value="C4" Duration="4" Instrument="echo"
				Note Time="28" Value="C#4" Duration="4" Instrument="echo"
			Pattern Name="0D" Color="d8ffa1"
				Note Time="0" Value="F#3" Duration="8" Instrument="echo"
				Note Time="8" Value="C#5" Duration="4" Instrument="echo"
				Note Time="12" Value="C5" Duration="2" Instrument="echo"
				Note Time="14" Value="C#5" Duration="4" Instrument="echo"
				Note Time="18" Value="A#4" Duration="2" Instrument="echo"
				Note Time="20" Value="C#5" Duration="4" Instrument="echo"
				Note Time="24" Value="G#4" Duration="4" Instrument="echo"
				Note Time="28" Value="A#4" Duration="4" Instrument="echo"
			Pattern Name="0E" Color="3fe5ff"
				Note Time="0" Value="G#3" Duration="8" Instrument="echo"
				Note Time="8" Value="C5" Duration="4" Instrument="echo"
				Note Time="12" Value="A#4" Duration="2" Instrument="echo"
				Note Time="14" Value="C5" Duration="4" Instrument="echo"
				Note Time="18" Value="G#4" Duration="2" Instrument="echo"
				Note Time="20" Value="C5" Duration="4" Instrument="echo"
				Note Time="24" Value="C#4" Duration="4" Instrument="echo"
				Note Time="28" Value="D#4" Duration="4" Instrument="echo"
			Pattern Name="0F" Color="ca60e6"
				Note Time="0" Value="F4" Duration="8" Instrument="echo"
				Note Time="8" Value="F4" Duration="4" Instrument="echo"
				Note Time="12" Value="F4" Duration="2" Instrument="echo"
				Note Time="14" Value="A4" Duration="4" Instrument="echo"
				Note Time="18" Value="F4" Duration="2" Instrument="echo"
				Note Time="20" Value="A4" Duration="4" Instrument="echo"
				Note Time="24" Value="D#4" Duration="4" Instrument="echo"
				Note Time="28" Value="F4" Duration="4" Instrument="echo"
			Pattern Name="10" Color="ff8d5a"
				Note Time="0" Value="F#1" Duration="2" Instrument="echo"
				Note Time="2" Value="C#2" Duration="2" Instrument="echo"
				Note Time="4" Value="C#3" Duration="2" Instrument="echo"
				Note Time="6" Value="A#2" Duration="12" Instrument="echo"
				Note Time="18" Value="G#2" Duration="2" Instrument="echo"
				Note Time="20" Value="C3" Duration="2" Instrument="echo"
				Note Time="22" Value="D#3" Duration="12" Instrument="echo"
			Pattern Name="11" Color="ebf067"
				Note Time="2" Value="A#2" Duration="2" Instrument="echo"
				Note Time="4" Value="F3" Duration="4" Instrument="echo"
				Note Time="8" Value="A#3" Duration="2" Instrument="echo"
				Note Time="10" Value="F3" Duration="4" Instrument="echo"
				Note Time="14" Value="F3" Duration="20" Instrument="echo"
			Pattern Name="12" Color="3cbfcb"
				Note Time="2" Value="F#2" Duration="2" Instrument="echo"
				Note Time="4" Value="C#3" Duration="2" Instrument="echo"
				Note Time="6" Value="A#3" Duration="10" Instrument="echo"
				Note Time="16" Value="G#4" Duration="2" Instrument="Instrument 1"
				Note Time="18" Value="G#2" Duration="2" Instrument="echo"
				Note Time="20" Value="C3" Duration="2" Instrument="echo"
				Note Time="22" Value="D#3" Duration="6" Instrument="echo"
				Note Time="28" Value="C5" Duration="4" Instrument="Instrument 1"
			Pattern Name="13" Color="d1b1ff"
				Note Time="0" Value="C5" Duration="2" Instrument="Instrument 1"
				Note Time="2" Value="A#2" Duration="2" Instrument="echo"
				Note Time="4" Value="F3" Duration="2" Instrument="echo"
				Note Time="6" Value="D#5" Duration="2" Instrument="Instrument 1"
				Note Time="8" Value="A#3" Duration="4" Instrument="echo"
				Note Time="12" Value="D5" Duration="22" Instrument="Instrument 1"
			Pattern Name="14" Color="ddc4bb"
				Note Time="2" Value="F#2" Duration="2" Instrument="echo"
				Note Time="4" Value="C#3" Duration="2" Instrument="echo"
				Note Time="6" Value="A#3" Duration="10" Instrument="echo"
				Note Time="16" Value="G#4" Duration="2" Instrument="Instrument 1"
				Note Time="18" Value="G#2" Duration="2" Instrument="echo"
				Note Time="20" Value="C3" Duration="2" Instrument="echo"
				Note Time="22" Value="D#3" Duration="6" Instrument="echo"
				Note Time="28" Value="G#4" Duration="8" Instrument="Instrument 1"
			Pattern Name="15" Color="ffff94"
				Note Time="4" Value="A4" Duration="12" Instrument="Instrument 1"
				Note Time="16" Value="B3" Duration="2" Instrument="echo"
				Note Time="18" Value="B2" Duration="2" Instrument="echo"
				Note Time="20" Value="D#3" Duration="2" Instrument="echo"
				Note Time="22" Value="F#3" Duration="6" Instrument="echo"
				Note Time="28" Value="B3" Duration="6" Instrument="Instrument 1"
			Pattern Name="16" Color="3cd2c4"
				Note Time="2" Value="E2" Duration="2" Instrument="echo"
				Note Time="4" Value="B2" Duration="2" Instrument="echo"
				Note Time="6" Value="G#3" Duration="10" Instrument="echo"
				Note Time="16" Value="F#3" Duration="2" Instrument="Instrument 1"
				Note Time="18" Value="F#2" Duration="2" Instrument="echo"
				Note Time="20" Value="A#2" Duration="2" Instrument="echo"
				Note Time="22" Value="C#3" Duration="6" Instrument="echo"
				Note Time="28" Value="F#4" Duration="4" Instrument="Instrument 1"
			Pattern Name="17" Color="7585e7"
				Note Time="0" Value="F#4" Duration="2" Instrument="Instrument 1"
				Note Time="2" Value="G#2" Duration="2" Instrument="echo"
				Note Time="4" Value="D#3" Duration="2" Instrument="echo"
				Note Time="6" Value="G#4" Duration="2" Instrument="Instrument 1"
				Note Time="8" Value="G#3" Duration="2" Instrument="echo"
				Note Time="10" Value="D#3" Duration="2" Instrument="echo"
				Note Time="12" Value="C4" Duration="2" Instrument="Instrument 1"
				Note Time="14" Value="D#3" Duration="20" Instrument="echo"
			Pattern Name="18" Color="ff6b6b"
				Note Time="2" Value="E2" Duration="2" Instrument="echo"
				Note Time="4" Value="B2" Duration="2" Instrument="echo"
				Note Time="6" Value="G#3" Duration="10" Instrument="echo"
				Note Time="16" Value="F#3" Duration="2" Instrument="Instrument 1"
				Note Time="18" Value="F#2" Duration="2" Instrument="echo"
				Note Time="20" Value="A#2" Duration="2" Instrument="echo"
				Note Time="22" Value="C#3" Duration="6" Instrument="echo"
				Note Time="28" Value="F#3" Duration="4" Instrument="Instrument 1"
			Pattern Name="19" Color="ffdc3c"
				Note Time="0" Value="G2" Duration="2" Instrument="echo"
				Note Time="2" Value="G3" Duration="2" Instrument="echo"
				Note Time="4" Value="D4" Duration="12" Instrument="echo"
				Note Time="16" Value="A3" Duration="2" Instrument="echo"
				Note Time="18" Value="A2" Duration="2" Instrument="echo"
				Note Time="20" Value="C#3" Duration="2" Instrument="echo"
				Note Time="22" Value="E3" Duration="6" Instrument="echo"
				Note Time="28" Value="A3" Duration="4" Instrument="Instrument 1"
			Pattern Name="1A" Color="6ab96e"
				Note Time="0" Value="F#4" Duration="2" Instrument="echo"
				Note Time="2" Value="D3" Duration="2" Instrument="echo"
				Note Time="4" Value="A3" Duration="2" Instrument="echo"
				Note Time="6" Value="F#4" Duration="4" Instrument="echo"
				Note Time="10" Value="G3" Duration="2" Instrument="echo"
				Note Time="12" Value="A3" Duration="2" Instrument="echo"
				Note Time="14" Value="A#3" Duration="2" Instrument="echo"
				Note Time="16" Value="E4" Duration="2" Instrument="echo"
				Note Time="18" Value="E3" Duration="2" Instrument="echo"
				Note Time="20" Value="G#3" Duration="2" Instrument="echo"
				Note Time="22" Value="B3" Duration="6" Instrument="echo"
				Note Time="28" Value="G#4" Duration="4" Instrument="echo"
			Pattern Name="1B" Color="a0f1ff"
				Note Time="0" Value="G#4" Duration="2" Instrument="echo"
				Note Time="2" Value="F#2" Duration="2" Instrument="echo"
				Note Time="4" Value="C#3" Duration="2" Instrument="echo"
				Note Time="6" Value="B4" Duration="2" Instrument="echo"
				Note Time="8" Value="F#3" Duration="2" Instrument="echo"
				Note Time="10" Value="C#3" Duration="2" Instrument="echo"
				Note Time="12" Value="A#4" Duration="2" Instrument="echo"
				Note Time="14" Value="C#3" Duration="4" Instrument="echo"
				Note Time="18" Value="F#3" Duration="2" Instrument="Instrument 1"
				Note Time="20" Value="G#3" Duration="2" Instrument="Instrument 1"
				Note Time="22" Value="A#3" Duration="2" Instrument="Instrument 1"
				Note Time="24" Value="C#4" Duration="2" Instrument="Instrument 1"
				Note Time="26" Value="E4" Duration="2" Instrument="Instrument 1"
				Note Time="28" Value="F#4" Duration="2" Instrument="Instrument 1"
				Note Time="30" Value="A4" Duration="2" Instrument="Instrument 1"
			Pattern Name="1C" Color="ff7cb6"
				Note Time="0" Value="F#4" Duration="2" Instrument="echo"
				Note Time="2" Value="D3" Duration="2" Instrument="echo"
				Note Time="4" Value="A3" Duration="2" Instrument="echo"
				Note Time="6" Value="F#4" Duration="4" Instrument="echo"
				Note Time="10" Value="F#3" Duration="2" Instrument="echo"
				Note Time="12" Value="G#3" Duration="2" Instrument="echo"
				Note Time="14" Value="A3" Duration="2" Instrument="echo"
				Note Time="16" Value="E4" Duration="2" Instrument="echo"
				Note Time="18" Value="E3" Duration="2" Instrument="echo"
				Note Time="20" Value="G#3" Duration="2" Instrument="echo"
				Note Time="22" Value="B3" Duration="6" Instrument="echo"
				Note Time="28" Value="E4" Duration="4" Instrument="echo"
			Pattern Name="1E" Color="ffe362"
				Note Time="0" Value="F2" Duration="2" Instrument="echo"
				Note Time="2" Value="F3" Duration="2" Instrument="echo"
				Note Time="4" Value="C4" Duration="2" Instrument="echo"
				Note Time="6" Value="F4" Duration="2" Instrument="Instrument 2"
				Note Time="8" Value="A4" Duration="2" Instrument="echo"
				Note Time="10" Value="A3" Duration="2" Instrument="echo"
				Note Time="12" Value="B3" Duration="2" Instrument="echo"
				Note Time="14" Value="C4" Duration="2" Instrument="echo"
				Note Time="16" Value="G4" Duration="2" Instrument="echo"
				Note Time="18" Value="C4" Duration="2" Instrument="echo"
				Note Time="20" Value="F4" Duration="2" Instrument="echo"
				Note Time="22" Value="G4" Duration="2" Instrument="echo"
				Note Time="24" Value="G4" Duration="4" Instrument="echo"
				Note Time="28" Value="G4" Duration="4" Instrument="echo"
			Pattern Name="1F" Color="c7ff86"
				Note Time="0" Value="E4" Duration="2" Instrument="echo"
				Note Time="2" Value="C3" Duration="2" Instrument="echo"
				Note Time="4" Value="G3" Duration="2" Instrument="echo"
				Note Time="6" Value="E4" Duration="4" Instrument="echo"
				Note Time="10" Value="E3" Duration="2" Instrument="echo"
				Note Time="12" Value="F#3" Duration="2" Instrument="echo"
				Note Time="14" Value="G3" Duration="2" Instrument="echo"
				Note Time="16" Value="D4" Duration="2" Instrument="echo"
				Note Time="18" Value="D3" Duration="2" Instrument="echo"
				Note Time="20" Value="F#3" Duration="2" Instrument="echo"
				Note Time="22" Value="A3" Duration="6" Instrument="echo"
				Note Time="28" Value="F#4" Duration="4" Instrument="echo"
			Pattern Name="20" Color="3fd7ff"
				Note Time="0" Value="F#4" Duration="2" Instrument="echo"
				Note Time="2" Value="E3" Duration="2" Instrument="echo"
				Note Time="4" Value="B3" Duration="2" Instrument="echo"
				Note Time="6" Value="A4" Duration="2" Instrument="echo"
				Note Time="8" Value="E4" Duration="2" Instrument="echo"
				Note Time="10" Value="B3" Duration="2" Instrument="echo"
				Note Time="12" Value="G#4" Duration="2" Instrument="echo"
				Note Time="14" Value="B3" Duration="4" Instrument="echo"
				Note Time="18" Value="E3" Duration="2" Instrument="Instrument 1"
				Note Time="20" Value="F#3" Duration="2" Instrument="Instrument 1"
				Note Time="22" Value="G#3" Duration="2" Instrument="Instrument 1"
				Note Time="24" Value="B3" Duration="2" Instrument="Instrument 1"
				Note Time="26" Value="D4" Duration="2" Instrument="Instrument 1"
				Note Time="28" Value="E4" Duration="2" Instrument="Instrument 1"
				Note Time="30" Value="G4" Duration="2" Instrument="Instrument 1"
			Pattern Name="21" Color="b75bde"
				Note Time="0" Value="E4" Duration="2" Instrument="echo"
				Note Time="2" Value="C3" Duration="2" Instrument="echo"
				Note Time="4" Value="G3" Duration="2" Instrument="echo"
				Note Time="6" Value="E4" Duration="4" Instrument="echo"
				Note Time="10" Value="E3" Duration="2" Instrument="echo"
				Note Time="12" Value="F#3" Duration="2" Instrument="echo"
				Note Time="14" Value="G3" Duration="2" Instrument="echo"
				Note Time="16" Value="D4" Duration="2" Instrument="echo"
				Note Time="18" Value="D3" Duration="2" Instrument="echo"
				Note Time="20" Value="F#3" Duration="2" Instrument="echo"
				Note Time="22" Value="A3" Duration="6" Instrument="echo"
				Note Time="28" Value="D4" Duration="36" Instrument="echo"
			Pattern Name="22" Color="dad960"
				Note Time="0" Value="G2" Duration="2" Instrument="echo"
				Note Time="2" Value="G3" Duration="2" Instrument="echo"
				Note Time="4" Value="D4" Duration="12" Instrument="echo"
				Note Time="16" Value="A3" Duration="2" Instrument="echo"
				Note Time="18" Value="A2" Duration="2" Instrument="echo"
				Note Time="20" Value="C#3" Duration="2" Instrument="echo"
				Note Time="22" Value="E3" Duration="18" Instrument="echo"
			PatternInstance Time="0" Pattern="00"
			PatternInstance Time="1" Pattern="00"
			PatternInstance Time="2" Pattern="02"
			PatternInstance Time="3" Pattern="03"
			PatternInstance Time="4" Pattern="04"
			PatternInstance Time="5" Pattern="05"
			PatternInstance Time="6" Pattern="06"
			PatternInstance Time="7" Pattern="07"
			PatternInstance Time="8" Pattern="00"
			PatternInstance Time="9" Pattern="00"
			PatternInstance Time="10" Pattern="02"
			PatternInstance Time="11" Pattern="03"
			PatternInstance Time="12" Pattern="04"
			PatternInstance Time="13" Pattern="05"
			PatternInstance Time="14" Pattern="06"
			PatternInstance Time="15" Pattern="07"
			PatternInstance Time="16" Pattern="00"
			PatternInstance Time="17" Pattern="09"
			PatternInstance Time="18" Pattern="0A"
			PatternInstance Time="19" Pattern="0B"
			PatternInstance Time="20" Pattern="04"
			PatternInstance Time="21" Pattern="0D"
			PatternInstance Time="22" Pattern="0E"
			PatternInstance Time="23" Pattern="0F"
			PatternInstance Time="24" Pattern="00"
			PatternInstance Time="25" Pattern="09"
			PatternInstance Time="26" Pattern="0A"
			PatternInstance Time="27" Pattern="0B"
			PatternInstance Time="28" Pattern="04"
			PatternInstance Time="29" Pattern="0D"
			PatternInstance Time="30" Pattern="0E"
			PatternInstance Time="31" Pattern="0F"
			PatternInstance Time="32" Pattern="00"
			PatternInstance Time="33" Pattern="09"
			PatternInstance Time="34" Pattern="0A"
			PatternInstance Time="35" Pattern="0B"
			PatternInstance Time="36" Pattern="04"
			PatternInstance Time="37" Pattern="0D"
			PatternInstance Time="38" Pattern="0E"
			PatternInstance Time="39" Pattern="0F"
			PatternInstance Time="40" Pattern="00"
			PatternInstance Time="41" Pattern="09"
			PatternInstance Time="42" Pattern="0A"
			PatternInstance Time="43" Pattern="0B"
			PatternInstance Time="44" Pattern="04"
			PatternInstance Time="45" Pattern="0D"
			PatternInstance Time="46" Pattern="0E"
			PatternInstance Time="47" Pattern="0F"
			PatternInstance Time="48" Pattern="10"
			PatternInstance Time="49" Pattern="11"
			PatternInstance Time="50" Pattern="12"
			PatternInstance Time="51" Pattern="13"
			PatternInstance Time="52" Pattern="12"
			PatternInstance Time="53" Pattern="13"
			PatternInstance Time="54" Pattern="14"
			PatternInstance Time="55" Pattern="15"
			PatternInstance Time="56" Pattern="16"
			PatternInstance Time="57" Pattern="17"
			PatternInstance Time="58" Pattern="16"
			PatternInstance Time="59" Pattern="17"
			PatternInstance Time="60" Pattern="16"
			PatternInstance Time="61" Pattern="17"
			PatternInstance Time="62" Pattern="18"
			PatternInstance Time="63" Pattern="19"
			PatternInstance Time="64" Pattern="1A"
			PatternInstance Time="65" Pattern="1B"
			PatternInstance Time="66" Pattern="1A"
			PatternInstance Time="67" Pattern="1B"
			PatternInstance Time="68" Pattern="1A"
			PatternInstance Time="69" Pattern="1B"
			PatternInstance Time="70" Pattern="1C"
			PatternInstance Time="71" Pattern="1E"
			PatternInstance Time="72" Pattern="1F"
			PatternInstance Time="73" Pattern="20"
			PatternInstance Time="74" Pattern="1F"
			PatternInstance Time="75" Pattern="20"
			PatternInstance Time="76" Pattern="1F"
			PatternInstance Time="77" Pattern="20"
			PatternInstance Time="78" Pattern="21"
			PatternInstance Time="80" Pattern="00"
			PatternInstance Time="81" Pattern="09"
			PatternInstance Time="82" Pattern="0A"
			PatternInstance Time="83" Pattern="0B"
			PatternInstance Time="84" Pattern="04"
			PatternInstance Time="85" Pattern="0D"
			PatternInstance Time="86" Pattern="0E"
			PatternInstance Time="87" Pattern="0F"
			PatternInstance Time="88" Pattern="00"
			PatternInstance Time="89" Pattern="09"
			PatternInstance Time="90" Pattern="0A"
			PatternInstance Time="91" Pattern="0B"
			PatternInstance Time="92" Pattern="04"
			PatternInstance Time="93" Pattern="0D"
			PatternInstance Time="94" Pattern="0E"
			PatternInstance Time="95" Pattern="0F"
			PatternInstance Time="96" Pattern="00"
			PatternInstance Time="97" Pattern="09"
			PatternInstance Time="98" Pattern="0A"
			PatternInstance Time="99" Pattern="0B"
			PatternInstance Time="100" Pattern="04"
			PatternInstance Time="101" Pattern="0D"
			PatternInstance Time="102" Pattern="0E"
			PatternInstance Time="103" Pattern="0F"
			PatternInstance Time="104" Pattern="00"
			PatternInstance Time="105" Pattern="09"
			PatternInstance Time="106" Pattern="0A"
			PatternInstance Time="107" Pattern="0B"
			PatternInstance Time="108" Pattern="04"
			PatternInstance Time="109" Pattern="0D"
			PatternInstance Time="110" Pattern="0E"
			PatternInstance Time="111" Pattern="0F"
			PatternInstance Time="112" Pattern="10"
			PatternInstance Time="113" Pattern="11"
			PatternInstance Time="114" Pattern="12"
			PatternInstance Time="115" Pattern="13"
			PatternInstance Time="116" Pattern="12"
			PatternInstance Time="117" Pattern="13"
			PatternInstance Time="118" Pattern="14"
			PatternInstance Time="119" Pattern="15"
			PatternInstance Time="120" Pattern="16"
			PatternInstance Time="121" Pattern="17"
			PatternInstance Time="122" Pattern="16"
			PatternInstance Time="123" Pattern="17"
			PatternInstance Time="124" Pattern="16"
			PatternInstance Time="125" Pattern="17"
			PatternInstance Time="126" Pattern="18"
			PatternInstance Time="127" Pattern="22"
		Channel Type="Square2"
			Pattern Name="00" Color="89ffff"
				Note Time="0" DutyCycle="2"
				Note Time="8" Value="A#3" Duration="4" Instrument="echo"
				Note Time="12" Value="G#3" Duration="2" Instrument="echo"
				Note Time="14" Value="A#3" Duration="4" Instrument="echo"
				Note Time="18" Value="F3" Duration="6" Instrument="echo"
				Note Time="24" Value="D#3" Duration="4" Instrument="echo"
				Note Time="28" Value="F3" Duration="12" Instrument="echo"
			Pattern Name="01" Color="ba93fe"
				Note Time="8" Value="C#4" Duration="4" Instrument="echo"
				Note Time="12" Value="C4" Duration="28" Instrument="echo"
			Pattern Name="03" Color="c9aa9f"
				Note Time="4" Value="C4" Duration="12" Instrument="echo"
				Note Time="16" Value="F3" Duration="24" Instrument="echo"
			Pattern Name="04" Color="ffff77"
				Note Time="8" Value="C#4" Duration="4" Instrument="echo"
				Note Time="12" Value="C4" Duration="2" Instrument="echo"
				Note Time="14" Value="C4" Duration="6" Instrument="echo"
				Note Time="20" Value="C#4" Duration="16" Instrument="echo"
			Pattern Name="05" Color="3cc5b7"
				Note Time="4" Value="D#4" Duration="4" Instrument="echo"
				Note Time="8" Value="F4" Duration="4" Instrument="echo"
				Note Time="12" Value="A#3" Duration="4" Instrument="echo"
				Note Time="16" Value="D#4" Duration="4" Instrument="echo"
				Note Time="20" Value="F4" Duration="26" Instrument="echo"
			Pattern Name="06" Color="6c7bdb"
				Note Time="14" Value="G#4" Duration="26" Instrument="echo"
			Pattern Name="07" Color="ff6464"
				Note Time="8" Value="G#3" Duration="4" Instrument="echo"
				Note Time="12" Value="F#3" Duration="4" Instrument="echo"
				Note Time="16" Value="F3" Duration="40" Instrument="echo"
			Pattern Name="08" Color="ffcb3c"
				Note Time="24" Value="D#3" Duration="4" Instrument="echo"
				Note Time="28" Value="F3" Duration="12" Instrument="echo"
			Pattern Name="0B" Color="bdffc0"
				Note Time="8" Value="F#3" Duration="4" Instrument="echo"
				Note Time="12" Value="F3" Duration="2" Instrument="echo"
				Note Time="14" Value="F#3" Duration="4" Instrument="echo"
				Note Time="18" Value="F3" Duration="2" Instrument="echo"
				Note Time="20" Value="F#3" Duration="4" Instrument="echo"
				Note Time="24" Value="D#3" Duration="4" Instrument="echo"
				Note Time="28" Value="F3" Duration="4" Instrument="echo"
			Pattern Name="0C" Color="7ee1ff"
				Note Time="0" Value="F3" Duration="8" Instrument="echo"
				Note Time="8" Value="C#4" Duration="4" Instrument="echo"
				Note Time="12" Value="C4" Duration="2" Instrument="echo"
				Note Time="14" Value="C#4" Duration="4" Instrument="echo"
				Note Time="18" Value="A#3" Duration="6" Instrument="echo"
				Note Time="24" Value="A#3" Duration="4" Instrument="echo"
				Note Time="28" Value="A#3" Duration="12" Instrument="echo"
			Pattern Name="0D" Color="ff5a9f"
				Note Time="8" Value="F4" Duration="4" Instrument="echo"
				Note Time="12" Value="D#4" Duration="2" Instrument="echo"
				Note Time="14" Value="F4" Duration="4" Instrument="echo"
				Note Time="18" Value="D#4" Duration="6" Instrument="echo"
				Note Time="24" Value="C4" Duration="4" Instrument="echo"
				Note Time="28" Value="C#4" Duration="18" Instrument="echo"
			Pattern Name="0E" Color="ffd43c"
				Note Time="14" Value="G#4" Duration="6" Instrument="echo"
				Note Time="20" Value="G#4" Duration="4" Instrument="echo"
				Note Time="24" Value="G#3" Duration="4" Instrument="echo"
				Note Time="28" Value="D#3" Duration="22" Instrument="echo"
			Pattern Name="0F" Color="b8ef7e"
				Note Time="18" Value="C4" Duration="6" Instrument="echo"
				Note Time="24" Value="C4" Duration="4" Instrument="echo"
				Note Time="28" Value="C4" Duration="4" Instrument="echo"
			Pattern Name="10" Color="3ec4ff"
				Note Time="24" Value="D#3" Duration="4" Instrument="echo"
				Note Time="28" Value="F3" Duration="28" Instrument="echo"
			Pattern Name="11" Color="a657d6"
				Note Time="24" Value="F#3" Duration="4" Instrument="echo"
				Note Time="28" Value="F#3" Duration="28" Instrument="echo"
			Pattern Name="13" Color="ff7f51"
				Note Time="0" Value="F2" Duration="8" Instrument="echo"
				Note Time="8" Value="F#3" Duration="4" Instrument="echo"
				Note Time="12" Value="F3" Duration="2" Instrument="echo"
				Note Time="14" Value="F#3" Duration="4" Instrument="echo"
				Note Time="18" Value="F3" Duration="2" Instrument="echo"
				Note Time="20" Value="F#3" Duration="4" Instrument="echo"
				Note Time="24" Value="D#3" Duration="4" Instrument="echo"
				Note Time="28" Value="F3" Duration="4" Instrument="echo"
			Pattern Name="15" Color="ffffb1"
				Note Time="0" Value="C#3" Duration="8" Instrument="echo"
				Note Time="8" Value="F4" Duration="4" Instrument="echo"
				Note Time="12" Value="D#4" Duration="2" Instrument="echo"
				Note Time="14" Value="F4" Duration="4" Instrument="echo"
				Note Time="18" Value="D#4" Duration="6" Instrument="echo"
				Note Time="24" Value="C4" Duration="4" Instrument="echo"
				Note Time="28" Value="C#4" Duration="28" Instrument="echo"
			Pattern Name="16" Color="62ffff"
				Note Time="24" Value="C#4" Duration="4" Instrument="echo"
				Note Time="28" Value="D#4" Duration="12" Instrument="echo"
			Pattern Name="17" Color="a376f3"
				Note Time="8" Value="A#3" Duration="4" Instrument="echo"
				Note Time="12" Value="C4" Duration="2" Instrument="echo"
				Note Time="14" Value="F4" Duration="4" Instrument="echo"
				Note Time="18" Value="C4" Duration="2" Instrument="echo"
				Note Time="20" Value="F4" Duration="4" Instrument="echo"
				Note Time="24" Value="C4" Duration="4" Instrument="echo"
				Note Time="28" Value="C#4" Duration="4" Instrument="echo"
			Pattern Name="18" Color="b59184"
				Note Time="0" Value="A#4" Duration="16" Instrument="Instrument 1"
				Note Time="16" Value="F4" Duration="4" Instrument="Instrument 1"
				Note Time="20" Value="F4" Duration="4" Instrument="Instrument 1"
				Note Time="24" Value="D#4" Duration="2" Instrument="Instrument 1"
				Note Time="26" Value="D#4" Duration="2" Instrument="Instrument 1"
				Note Time="28" Value="G#4" Duration="2" Instrument="Instrument 1"
				Note Time="30" Value="A#4" Duration="4" Instrument="Instrument 1"
			Pattern Name="19" Color="ffff71"
				Note Time="2" Value="G#4" Duration="2" Instrument="Instrument 1"
				Note Time="4" Value="A#4" Duration="4" Instrument="Instrument 1"
				Note Time="8" Value="G#4" Duration="2" Instrument="Instrument 1"
				Note Time="10" Value="A#4" Duration="8" Instrument="Instrument 1"
				Note Time="18" Value="F4" Duration="2" Instrument="Instrument 1"
				Note Time="20" Value="F#4" Duration="4" Instrument="Instrument 1"
				Note Time="24" Value="F4" Duration="2" Instrument="Instrument 1"
				Note Time="26" Value="F#4" Duration="6" Instrument="Instrument 1"
			Pattern Name="1A" Color="3cb5a7"
				Note Time="0" Value="C4" Duration="8" Instrument="Instrument 1"
				Note Time="8" Value="C#4" Duration="4" Instrument="Instrument 1"
				Note Time="12" Value="D#4" Duration="2" Instrument="Instrument 1"
				Note Time="14" Value="G#4" Duration="6" Instrument="Instrument 1"
				Note Time="20" Value="G#4" Duration="6" Instrument="Instrument 1"
				Note Time="26" Value="G#4" Duration="6" Instrument="Instrument 1"
			Pattern Name="1B" Color="6471cf"
				Note Time="0" Value="C5" Duration="2" Instrument="Instrument 1"
				Note Time="2" Value="C5" Duration="2" Instrument="Instrument 1"
				Note Time="4" Value="C3" Duration="2" Instrument="Instrument 1"
				Note Time="6" Value="F4" Duration="2" Instrument="Instrument 1"
				Note Time="8" Value="G#4" Duration="4" Instrument="Instrument 1"
				Note Time="12" Value="D#4" Duration="2" Instrument="Instrument 1"
				Note Time="14" Value="G#4" Duration="2" Instrument="Instrument 1"
				Note Time="16" Value="F2" Duration="2" Instrument="Instrument 1"
				Note Time="18" Value="C#5" Duration="2" Instrument="Instrument 1"
				Note Time="20" Value="D#5" Duration="4" Instrument="Instrument 1"
				Note Time="24" Value="C#5" Duration="2" Instrument="Instrument 1"
				Note Time="26" Value="D#5" Duration="2" Instrument="Instrument 1"
				Note Time="28" Value="F4" Duration="4" Instrument="Instrument 1"
			Pattern Name="1C" Color="ffafaf"
				Note Time="2" Value="G#4" Duration="2" Instrument="Instrument 1"
				Note Time="4" Value="A#4" Duration="4" Instrument="Instrument 1"
				Note Time="8" Value="G#4" Duration="2" Instrument="Instrument 1"
				Note Time="10" Value="A#4" Duration="2" Instrument="Instrument 1"
				Note Time="12" Value="C#5" Duration="2" Instrument="Instrument 1"
				Note Time="14" Value="C#5" Duration="2" Instrument="Instrument 1"
				Note Time="16" Value="C#5" Duration="2" Instrument="Instrument 1"
				Note Time="18" Value="C#5" Duration="2" Instrument="Instrument 1"
				Note Time="20" Value="C#5" Duration="2" Instrument="Instrument 1"
				Note Time="22" Value="C#5" Duration="2" Instrument="Instrument 1"
				Note Time="24" Value="G#4" Duration="2" Instrument="Instrument 1"
				Note Time="26" Value="G#4" Duration="2" Instrument="Instrument 1"
				Note Time="28" Value="A#4" Duration="2" Instrument="Instrument 1"
				Note Time="30" Value="A#4" Duration="2" Instrument="Instrument 1"
			Pattern Name="1D" Color="ffff8b"
				Note Time="0" Value="A#4" Duration="2" Instrument="Instrument 1"
				Note Time="2" Value="A#4" Duration="2" Instrument="Instrument 1"
				Note Time="4" Value="G#3" Duration="2" Instrument="Instrument 1"
				Note Time="6" Value="G#3" Duration="2" Instrument="Instrument 1"
				Note Time="8" Value="G#4" Duration="2" Instrument="Instrument 1"
				Note Time="10" Value="G#3" Duration="2" Instrument="Instrument 1"
				Note Time="12" Value="D#4" Duration="2" Instrument="Instrument 1"
				Note Time="14" Value="G#4" Duration="2" Instrument="Instrument 1"
				Note Time="16" Value="G#3" Duration="2" Instrument="Instrument 1"
				Note Time="18" Value="D#4" Duration="2" Instrument="Instrument 1"
				Note Time="20" Value="G#4" Duration="2" Instrument="Instrument 1"
				Note Time="22" Value="G#3" Duration="2" Instrument="Instrument 1"
				Note Time="24" Value="G#4" Duration="2" Instrument="Instrument 1"
				Note Time="26" Value="G#4" Duration="2" Instrument="Instrument 1"
				Note Time="28" Value="D#4" Duration="2" Instrument="Instrument 1"
				Note Time="30" Value="G#4" Duration="4" Instrument="Instrument 1"
			Pattern Name="1E" Color="a2f7a6"
				Note Time="2" Value="F4" Duration="2" Instrument="Instrument 1"
				Note Time="4" Value="F4" Duration="2" Instrument="Instrument 1"
				Note Time="6" Value="F4" Duration="2" Instrument="Instrument 1"
				Note Time="8" Value="F4" Duration="2" Instrument="Instrument 1"
				Note Time="10" Value="F4" Duration="6" Instrument="Instrument 1"
				Note Time="16" Value="F4" Duration="2" Instrument="Instrument 1"
				Note Time="18" Value="F4" Duration="2" Instrument="Instrument 1"
				Note Time="20" Value="F4" Duration="2" Instrument="Instrument 1"
				Note Time="22" Value="F4" Duration="2" Instrument="Instrument 1"
				Note Time="24" Value="F4" Duration="1" Instrument="Instrument 1"
				Note Time="25" Value="F4" Duration="1" Instrument="Instrument 1"
				Note Time="26" Value="F4" Duration="1" Instrument="Instrument 1"
				Note Time="27" Value="F4" Duration="1" Instrument="Instrument 1"
				Note Time="28" Value="F4" Duration="1" Instrument="Instrument 1"
				Note Time="29" Value="F4" Duration="1" Instrument="Instrument 1"
				Note Time="30" Value="F4" Duration="1" Instrument="Instrument 1"
				Note Time="31" Value="F4" Duration="1" Instrument="Instrument 1"
			Pattern Name="1F" Color="5dd2ff"
				Note Time="0" Value="A#3" Duration="1" Instrument="Instrument 1"
				Note Time="1" Value="A#3" Duration="1" Instrument="Instrument 1"
				Note Time="2" Value="A#3" Duration="1" Instrument="Instrument 1"
				Note Time="3" Value="A#3" Duration="1" Instrument="Instrument 1"
				Note Time="4" Value="A#3" Duration="1" Instrument="Instrument 1"
				Note Time="5" Value="A#3" Duration="1" Instrument="Instrument 1"
				Note Time="6" Value="A#3" Duration="1" Instrument="Instrument 1"
				Note Time="7" Value="A#3" Duration="9" Instrument="Instrument 1"
				Note Time="16" Value="F4" Duration="1" Instrument="Instrument 1"
				Note Time="17" Value="F4" Duration="1" Instrument="Instrument 1"
				Note Time="18" Value="F4" Duration="1" Instrument="Instrument 1"
				Note Time="19" Value="F4" Duration="1" Instrument="Instrument 1"
				Note Time="20" Value="F4" Duration="1" Instrument="Instrument 1"
				Note Time="21" Value="F4" Duration="1" Instrument="Instrument 1"
				Note Time="22" Value="F4" Duration="1" Instrument="Instrument 1"
				Note Time="23" Value="F4" Duration="1" Instrument="Instrument 1"
				Note Time="24" Value="D#4" Duration="1" Instrument="Instrument 1"
				Note Time="25" Value="D#4" Duration="1" Instrument="Instrument 1"
				Note Time="26" Value="D#4" Duration="1" Instrument="Instrument 1"
				Note Time="27" Value="D#4" Duration="1" Instrument="Instrument 1"
				Note Time="28" Value="G#4" Duration="1" Instrument="Instrument 1"
				Note Time="29" Value="D#4" Duration="1" Instrument="Instrument 1"
				Note Time="30" Value="A#4" Duration="1" Instrument="Instrument 1"
				Note Time="31" Value="D#4" Duration="3" Instrument="Instrument 1"
			Pattern Name="21" Color="ff579c"
				Note Time="0" Value="C4" Duration="1" Instrument="Instrument 1"
				Note Time="1" Value="C4" Duration="1" Instrument="Instrument 1"
				Note Time="2" Value="C4" Duration="1" Instrument="Instrument 1"
				Note Time="3" Value="C4" Duration="1" Instrument="Instrument 1"
				Note Time="4" Value="G#3" Duration="2" Instrument="Instrument 1"
				Note Time="6" Value="G#3" Duration="2" Instrument="Instrument 1"
				Note Time="8" Value="C#4" Duration="1" Instrument="Instrument 1"
				Note Time="9" Value="C#4" Duration="1" Instrument="Instrument 1"
				Note Time="10" Value="C#4" Duration="1" Instrument="Instrument 1"
				Note Time="11" Value="C#4" Duration="1" Instrument="Instrument 1"
				Note Time="12" Value="D#4" Duration="1" Instrument="Instrument 1"
				Note Time="13" Value="D#4" Duration="1" Instrument="Instrument 1"
				Note Time="14" Value="D#4" Duration="1" Instrument="Instrument 1"
				Note Time="15" Value="D#4" Duration="1" Instrument="Instrument 1"
				Note Time="16" Value="D#4" Duration="1" Instrument="Instrument 1"
				Note Time="17" Value="D#4" Duration="1" Instrument="Instrument 1"
				Note Time="18" Value="D#4" Duration="1" Instrument="Instrument 1"
				Note Time="19" Value="D#4" Duration="1" Instrument="Instrument 1"
				Note Time="20" Value="G#4" Duration="6" Instrument="Instrument 1"
				Note Time="26" Value="G#4" Duration="6" Instrument="Instrument 1"
			Pattern Name="22" Color="ffc83c"
				Note Time="0" Value="C5" Duration="2" Instrument="Instrument 1"
				Note Time="2" Value="C5" Duration="2" Instrument="Instrument 1"
				Note Time="4" Value="C3" Duration="2" Instrument="Instrument 1"
				Note Time="6" Value="F4" Duration="2" Instrument="Instrument 1"
				Note Time="8" Value="G#4" Duration="4" Instrument="Instrument 1"
				Note Time="12" Value="D#4" Duration="2" Instrument="Instrument 1"
				Note Time="14" Value="G#4" Duration="2" Instrument="Instrument 1"
				Note Time="16" Value="C#3" Duration="2" Instrument="Instrument 1"
				Note Time="18" Value="C#5" Duration="6" Instrument="Instrument 1"
				Note Time="24" Value="C#5" Duration="4" Instrument="Instrument 1"
				Note Time="28" Value="F4" Duration="1" Instrument="Instrument 1"
				Note Time="29" Value="F4" Duration="1" Instrument="Instrument 1"
				Note Time="30" Value="F4" Duration="2" Instrument="Instrument 1"
			Pattern Name="23" Color="a4db74"
				Note Time="0" Value="C#4" Duration="1" Instrument="Instrument 1"
				Note Time="1" Value="C#4" Duration="1" Instrument="Instrument 1"
				Note Time="2" Value="C#4" Duration="1" Instrument="Instrument 1"
				Note Time="3" Value="C#4" Duration="1" Instrument="Instrument 1"
				Note Time="4" Value="C#4" Duration="1" Instrument="Instrument 1"
				Note Time="5" Value="C#4" Duration="1" Instrument="Instrument 1"
				Note Time="6" Value="C#4" Duration="1" Instrument="Instrument 1"
				Note Time="7" Value="C#4" Duration="1" Instrument="Instrument 1"
				Note Time="8" Value="F5" Duration="4" Instrument="Instrument 1"
				Note Time="12" Value="F5" Duration="2" Instrument="Instrument 1"
				Note Time="14" Value="F5" Duration="2" Instrument="Instrument 1"
				Note Time="16" Value="A#3" Duration="2" Instrument="Instrument 1"
				Note Time="18" Value="A#3" Duration="2" Instrument="Instrument 1"
				Note Time="20" Value="A#3" Duration="2" Instrument="Instrument 1"
				Note Time="22" Value="A#3" Duration="2" Instrument="Instrument 1"
				Note Time="24" Value="A#3" Duration="2" Instrument="Instrument 1"
				Note Time="26" Value="A#3" Duration="2" Instrument="Instrument 1"
				Note Time="28" Value="G#4" Duration="2" Instrument="Instrument 1"
				Note Time="30" Value="A#4" Duration="4" Instrument="Instrument 1"
			Pattern Name="25" Color="3eb3f9"
				Note Time="0" Value="A#4" Duration="2" Instrument="Instrument 1"
				Note Time="2" Value="A#4" Duration="2" Instrument="Instrument 1"
				Note Time="4" Value="G#3" Duration="2" Instrument="Instrument 1"
				Note Time="6" Value="G#3" Duration="2" Instrument="Instrument 1"
				Note Time="8" Value="G#4" Duration="2" Instrument="Instrument 1"
				Note Time="10" Value="G#3" Duration="2" Instrument="Instrument 1"
				Note Time="12" Value="D#4" Duration="2" Instrument="Instrument 1"
				Note Time="14" Value="G#4" Duration="2" Instrument="Instrument 1"
				Note Time="16" Value="G#3" Duration="2" Instrument="Instrument 1"
				Note Time="18" Value="D#4" Duration="2" Instrument="Instrument 1"
				Note Time="20" Value="G#4" Duration="2" Instrument="Instrument 1"
				Note Time="22" Value="G#3" Duration="2" Instrument="Instrument 1"
				Note Time="24" Value="G#4" Duration="2" Instrument="Instrument 1"
				Note Time="26" Value="G#4" Duration="2" Instrument="Instrument 1"
				Note Time="28" Value="G#3" Duration="2" Instrument="Instrument 1"
				Note Time="30" Value="G#4" Duration="4" Instrument="Instrument 1"
			Pattern Name="27" Color="f6a4ff"
				Note Time="0" Value="C5" Duration="1" Instrument="Instrument 1"
				Note Time="1" Value="C#5" Duration="3" Instrument="Instrument 1"
				Note Time="4" Value="A#4" Duration="12" Instrument="Instrument 1"
				Note Time="16" Value="A#4" Duration="4" Instrument="Instrument 1"
				Note Time="20" Value="C4" Duration="1" Instrument="Instrument 1"
				Note Time="21" Value="C4" Duration="1" Instrument="Instrument 1"
				Note Time="22" Value="C4" Duration="1" Instrument="Instrument 1"
				Note Time="23" Value="C4" Duration="1" Instrument="Instrument 1"
				Note Time="24" Value="C4" Duration="1" Instrument="Instrument 1"
				Note Time="25" Value="C4" Duration="1" Instrument="Instrument 1"
				Note Time="26" Value="C4" Duration="6" Instrument="Instrument 1"
			Pattern Name="28" Color="ffc6a1"
				Note Time="0" Value="D4" Duration="1" Instrument="Instrument 1"
				Note Time="1" Value="D4" Duration="1" Instrument="Instrument 1"
				Note Time="2" Value="D4" Duration="1" Instrument="Instrument 1"
				Note Time="3" Value="D4" Duration="1" Instrument="Instrument 1"
				Note Time="4" Value="D4" Duration="1" Instrument="Instrument 1"
				Note Time="5" Value="D4" Duration="1" Instrument="Instrument 1"
				Note Time="6" Value="D4" Duration="1" Instrument="Instrument 1"
				Note Time="7" Value="D4" Duration="1" Instrument="Instrument 1"
				Note Time="8" Value="D5" Duration="1" Instrument="Instrument 1"
				Note Time="9" Value="D5" Duration="1" Instrument="Instrument 1"
				Note Time="10" Value="D5" Duration="1" Instrument="Instrument 1"
				Note Time="11" Value="D5" Duration="1" Instrument="Instrument 1"
				Note Time="12" Value="D5" Duration="6" Instrument="Instrument 1"
				Note Time="18" Value="A#3" Duration="2" Instrument="Instrument 1"
				Note Time="20" Value="C4" Duration="2" Instrument="Instrument 1"
				Note Time="22" Value="D4" Duration="2" Instrument="Instrument 1"
				Note Time="24" Value="F4" Duration="2" Instrument="Instrument 1"
				Note Time="26" Value="G#4" Duration="2" Instrument="Instrument 1"
				Note Time="28" Value="A#4" Duration="2" Instrument="Instrument 1"
				Note Time="30" Value="C#5" Duration="2" Instrument="Instrument 1"
			Pattern Name="29" Color="ffff93"
				Note Time="0" Value="A#4" Duration="10" Instrument="Instrument 1"
				Note Time="10" Value="A#3" Duration="2" Instrument="Instrument 1"
				Note Time="12" Value="C4" Duration="2" Instrument="Instrument 1"
				Note Time="14" Value="C#4" Duration="2" Instrument="Instrument 1"
				Note Time="16" Value="G#3" Duration="12" Instrument="Instrument 1"
				Note Time="28" Value="G#4" Duration="4" Instrument="Instrument 1"
			Pattern Name="2A" Color="3cf8ff"
				Note Time="0" Value="G#4" Duration="6" Instrument="Instrument 1"
				Note Time="6" Value="A#4" Duration="6" Instrument="Instrument 1"
				Note Time="12" Value="D4" Duration="6" Instrument="Instrument 1"
				Note Time="18" Value="A#3" Duration="2" Instrument="Instrument 1"
				Note Time="20" Value="C4" Duration="2" Instrument="Instrument 1"
				Note Time="22" Value="D4" Duration="2" Instrument="Instrument 1"
				Note Time="24" Value="F4" Duration="2" Instrument="Instrument 1"
				Note Time="26" Value="G#4" Duration="2" Instrument="Instrument 1"
				Note Time="28" Value="A#4" Duration="2" Instrument="Instrument 1"
				Note Time="30" Value="C#5" Duration="2" Instrument="Instrument 1"
			Pattern Name="2C" Color="9a71ed"
				Note Time="0" Value="D#4" Duration="2" Instrument="Instrument 1"
				Note Time="2" Value="E4" Duration="2" Instrument="Instrument 1"
				Note Time="4" Value="E4" Duration="2" Instrument="Instrument 1"
				Note Time="6" Value="C#4" Duration="2" Instrument="Instrument 1"
				Note Time="8" Value="C#5" Duration="2" Instrument="Instrument 1"
				Note Time="10" Value="C#4" Duration="2" Instrument="Instrument 1"
				Note Time="12" Value="D#4" Duration="2" Instrument="Instrument 1"
				Note Time="14" Value="E4" Duration="2" Instrument="Instrument 1"
				Note Time="16" Value="B4" Duration="12" Instrument="Instrument 1"
				Note Time="28" Value="B4" Duration="4" Instrument="Instrument 1"
			Pattern Name="2D" Color="a9887d"
				Note Time="0" Value="G#4" Duration="10" Instrument="Instrument 1"
				Note Time="10" Value="G#3" Duration="2" Instrument="Instrument 1"
				Note Time="12" Value="A#3" Duration="2" Instrument="Instrument 1"
				Note Time="14" Value="B3" Duration="2" Instrument="Instrument 1"
				Note Time="16" Value="F#4" Duration="12" Instrument="Instrument 1"
				Note Time="28" Value="A#4" Duration="4" Instrument="Instrument 1"
			Pattern Name="2E" Color="fffc69"
				Note Time="0" Value="A#4" Duration="6" Instrument="Instrument 1"
				Note Time="6" Value="C#5" Duration="6" Instrument="Instrument 1"
				Note Time="12" Value="C5" Duration="6" Instrument="Instrument 1"
				Note Time="18" Value="G#3" Duration="2" Instrument="Instrument 1"
				Note Time="20" Value="A#3" Duration="2" Instrument="Instrument 1"
				Note Time="22" Value="C4" Duration="2" Instrument="Instrument 1"
				Note Time="24" Value="D#4" Duration="2" Instrument="Instrument 1"
				Note Time="26" Value="F#4" Duration="2" Instrument="Instrument 1"
				Note Time="28" Value="G#4" Duration="2" Instrument="Instrument 1"
				Note Time="30" Value="B4" Duration="2" Instrument="Instrument 1"
			Pattern Name="2F" Color="3ca598"
				Note Time="0" Value="G#4" Duration="10" Instrument="Instrument 1"
				Note Time="10" Value="G#3" Duration="2" Instrument="Instrument 1"
				Note Time="12" Value="A#3" Duration="2" Instrument="Instrument 1"
				Note Time="14" Value="B3" Duration="2" Instrument="Instrument 1"
				Note Time="16" Value="F#4" Duration="12" Instrument="Instrument 1"
				Note Time="28" Value="F#4" Duration="4" Instrument="Instrument 1"
			Pattern Name="30" Color="b5c2ff"
				Note Time="0" Value="C#4" Duration="2" Instrument="Instrument 1"
				Note Time="2" Value="D4" Duration="2" Instrument="Instrument 1"
				Note Time="4" Value="G4" Duration="2" Instrument="Instrument 1"
				Note Time="6" Value="B3" Duration="4" Instrument="Instrument 1"
				Note Time="10" Value="B3" Duration="2" Instrument="Instrument 1"
				Note Time="12" Value="C#4" Duration="2" Instrument="Instrument 1"
				Note Time="14" Value="D4" Duration="2" Instrument="Instrument 1"
				Note Time="16" Value="A4" Duration="12" Instrument="Instrument 1"
				Note Time="28" Value="A4" Duration="4" Instrument="Instrument 1"
			Pattern Name="31" Color="ff8f8c"
				Note Time="0" Value="F#4" Duration="4" Instrument="Instrument 2"
				Note Time="6" Value="E4" Duration="1" Instrument="Instrument 2"
				Note Time="7" Value="F#4" Duration="3" Instrument="Instrument 2"
				Note Time="12" Value="F#5" Duration="4" Instrument="Instrument 2"
				Note Time="16" Value="G#4" Duration="1" Instrument="Instrument 2"
				Note Time="17" Value="G#4" Duration="1" Instrument="Instrument 2"
				Note Time="18" Value="G#4" Duration="1" Instrument="Instrument 2"
				Note Time="19" Value="G#4" Duration="1" Instrument="Instrument 2"
				Note Time="20" Value="G#4" Duration="1" Instrument="Instrument 2"
				Note Time="21" Value="G#4" Duration="1" Instrument="Instrument 2"
				Note Time="22" Value="G#4" Duration="1" Instrument="Instrument 2"
				Note Time="23" Value="G#4" Duration="1" Instrument="Instrument 2"
				Note Time="24" Value="G#4" Duration="1" Instrument="Instrument 2"
				Note Time="25" Value="G#4" Duration="1" Instrument="Instrument 2"
				Note Time="26" Value="G#4" Duration="1" Instrument="Instrument 2"
				Note Time="27" Value="G#4" Duration="1" Instrument="Instrument 2"
				Note Time="28" Value="E4" Duration="2" Instrument="echo"
				Note Time="30" Value="F#4" Duration="2" Instrument="Instrument 2"
			Pattern Name="32" Color="ffff64"
				Note Time="0" Value="F#4" Duration="2" Instrument="Instrument 2"
				Note Time="2" Value="E4" Duration="2" Instrument="Instrument 2"
				Note Time="4" Value="F#4" Duration="2" Instrument="Instrument 2"
				Note Time="6" Value="F#4" Duration="2" Instrument="echo"
				Note Time="8" Value="F#4" Duration="4" Instrument="Instrument 2"
				Note Time="12" Value="F#4" Duration="6" Instrument="Instrument 2"
				Note Time="18" Value="F#4" Duration="2" Instrument="Instrument 2"
				Note Time="20" Value="F#4" Duration="2" Instrument="Instrument 2"
				Note Time="22" Value="F#4" Duration="2" Instrument="Instrument 2"
				Note Time="24" Value="F#4" Duration="2" Instrument="Instrument 2"
				Note Time="26" Value="F#4" Duration="2" Instrument="Instrument 2"
				Note Time="28" Value="F#4" Duration="2" Instrument="Instrument 2"
				Note Time="30" Value="F#4" Duration="2" Instrument="Instrument 2"
			Pattern Name="33" Color="88eb8c"
				Note Time="0" Value="F4" Duration="1" Instrument="Instrument 2"
				Note Time="1" Value="F#4" Duration="5" Instrument="Instrument 2"
				Note Time="6" Value="F#4" Duration="6" Instrument="Instrument 2"
				Note Time="12" Value="D4" Duration="2" Instrument="Instrument 2"
				Note Time="14" Value="E4" Duration="4" Instrument="Instrument 2"
				Note Time="18" Value="D4" Duration="2" Instrument="Instrument 2"
				Note Time="20" Value="E4" Duration="6" Instrument="Instrument 2"
				Note Time="26" Value="E5" Duration="2" Instrument="Instrument 2"
				Note Time="28" Value="E4" Duration="4" Instrument="Instrument 2"
			Pattern Name="34" Color="5ac4ff"
				Note Time="0" Value="F#4" Duration="6" Instrument="Instrument 2"
				Note Time="6" Value="F#4" Duration="6" Instrument="Instrument 2"
				Note Time="12" Value="C#5" Duration="6" Instrument="Instrument 2"
				Note Time="18" Value="E3" Duration="2" Instrument="Instrument 2"
				Note Time="20" Value="E3" Duration="2" Instrument="Instrument 2"
				Note Time="22" Value="E3" Duration="2" Instrument="Instrument 2"
				Note Time="24" Value="F#3" Duration="2" Instrument="Instrument 2"
				Note Time="26" Value="G#3" Duration="2" Instrument="Instrument 2"
				Note Time="28" Value="E4" Duration="2" Instrument="Instrument 2"
				Note Time="30" Value="F#4" Duration="4" Instrument="Instrument 2"
			Pattern Name="35" Color="fe5497"
				Note Time="2" Value="E4" Duration="2" Instrument="Instrument 2"
				Note Time="4" Value="F#4" Duration="14" Instrument="Instrument 2"
				Note Time="18" Value="A#3" Duration="2" Instrument="Instrument 2"
				Note Time="20" Value="A#3" Duration="2" Instrument="Instrument 2"
				Note Time="22" Value="A#3" Duration="2" Instrument="Instrument 2"
				Note Time="24" Value="A#3" Duration="2" Instrument="Instrument 2"
				Note Time="26" Value="A#3" Duration="2" Instrument="Instrument 2"
				Note Time="28" Value="A#3" Duration="2" Instrument="Instrument 2"
				Note Time="30" Value="A#3" Duration="2" Instrument="Instrument 2"
			Pattern Name="36" Color="ffb83c"
				Note Time="0" Value="G#4" Duration="1" Instrument="Instrument 2"
				Note Time="1" Value="A4" Duration="1" Instrument="Instrument 2"
				Note Time="2" Value="A4" Duration="2" Instrument="Instrument 2"
				Note Time="4" Value="A4" Duration="2" Instrument="Instrument 2"
				Note Time="6" Value="A4" Duration="6" Instrument="Instrument 2"
				Note Time="12" Value="D4" Duration="2" Instrument="Instrument 2"
				Note Time="14" Value="E4" Duration="4" Instrument="Instrument 2"
				Note Time="18" Value="D4" Duration="2" Instrument="Instrument 2"
				Note Time="20" Value="E4" Duration="6" Instrument="Instrument 2"
				Note Time="26" Value="B4" Duration="2" Instrument="Instrument 2"
				Note Time="28" Value="B4" Duration="4" Instrument="Instrument 2"
			Pattern Name="37" Color="91c76b"
				Note Time="0" Value="C5" Duration="4" Instrument="Instrument 2"
				Note Time="4" Value="F4" Duration="2" Instrument="echo"
				Note Time="6" Value="A4" Duration="4" Instrument="Instrument 2"
				Note Time="10" Value="C4" Duration="2" Instrument="Instrument 2"
				Note Time="12" Value="F4" Duration="2" Instrument="Instrument 2"
				Note Time="14" Value="G4" Duration="4" Instrument="Instrument 2"
				Note Time="18" Value="F4" Duration="2" Instrument="Instrument 2"
				Note Time="20" Value="G4" Duration="2" Instrument="Instrument 2"
				Note Time="22" Value="C4" Duration="2" Instrument="Instrument 2"
				Note Time="24" Value="G2" Duration="4" Instrument="echo"
				Note Time="28" Value="D4" Duration="4" Instrument="Instrument 2"
			Pattern Name="38" Color="8bffff"
				Note Time="0" Value="E4" Duration="6" Instrument="Instrument 2"
				Note Time="6" Value="D4" Duration="1" Instrument="Instrument 2"
				Note Time="7" Value="E4" Duration="5" Instrument="Instrument 2"
				Note Time="12" Value="E5" Duration="4" Instrument="Instrument 2"
				Note Time="16" Value="F#4" Duration="1" Instrument="Instrument 2"
				Note Time="17" Value="F#4" Duration="1" Instrument="Instrument 2"
				Note Time="18" Value="F#4" Duration="1" Instrument="Instrument 2"
				Note Time="19" Value="F#4" Duration="1" Instrument="Instrument 2"
				Note Time="20" Value="F#4" Duration="1" Instrument="Instrument 2"
				Note Time="21" Value="F#4" Duration="1" Instrument="Instrument 2"
				Note Time="22" Value="F#4" Duration="1" Instrument="Instrument 2"
				Note Time="23" Value="F#4" Duration="1" Instrument="Instrument 2"
				Note Time="24" Value="F#4" Duration="1" Instrument="Instrument 2"
				Note Time="25" Value="F#4" Duration="1" Instrument="Instrument 2"
				Note Time="26" Value="F#4" Duration="1" Instrument="Instrument 2"
				Note Time="27" Value="F#4" Duration="1" Instrument="Instrument 2"
				Note Time="28" Value="D4" Duration="2" Instrument="Instrument 2"
				Note Time="30" Value="E4" Duration="4" Instrument="Instrument 2"
			Pattern Name="39" Color="e783f8"
				Note Time="2" Value="D4" Duration="2" Instrument="Instrument 2"
				Note Time="4" Value="E4" Duration="28" Instrument="Instrument 2"
			Pattern Name="3A" Color="ffac7f"
				Note Time="0" Value="D#4" Duration="1" Instrument="Instrument 2"
				Note Time="1" Value="E4" Duration="5" Instrument="Instrument 2"
				Note Time="6" Value="E4" Duration="6" Instrument="Instrument 2"
				Note Time="12" Value="C4" Duration="2" Instrument="Instrument 2"
				Note Time="14" Value="D4" Duration="4" Instrument="Instrument 2"
				Note Time="18" Value="C4" Duration="2" Instrument="Instrument 2"
				Note Time="20" Value="D4" Duration="6" Instrument="Instrument 2"
				Note Time="26" Value="D5" Duration="2" Instrument="Instrument 2"
				Note Time="28" Value="D4" Duration="4" Instrument="Instrument 2"
			Pattern Name="3B" Color="ffff75"
				Note Time="0" Value="D#4" Duration="1" Instrument="Instrument 2"
				Note Time="1" Value="E4" Duration="5" Instrument="Instrument 2"
				Note Time="6" Value="E4" Duration="6" Instrument="Instrument 2"
				Note Time="12" Value="E4" Duration="6" Instrument="Instrument 2"
				Note Time="18" Value="E4" Duration="2" Instrument="Instrument 2"
				Note Time="20" Value="E4" Duration="2" Instrument="Instrument 2"
				Note Time="22" Value="E4" Duration="2" Instrument="Instrument 2"
				Note Time="24" Value="E4" Duration="2" Instrument="Instrument 2"
				Note Time="26" Value="E4" Duration="2" Instrument="Instrument 2"
				Note Time="28" Value="E4" Duration="2" Instrument="Instrument 2"
				Note Time="30" Value="E4" Duration="8" Instrument="Instrument 2"
			Pattern Name="3C" Color="3ce8fd"
				Note Time="6" Value="E4" Duration="6" Instrument="Instrument 2"
				Note Time="12" Value="B4" Duration="6" Instrument="Instrument 2"
				Note Time="18" Value="D3" Duration="2" Instrument="Instrument 2"
				Note Time="20" Value="D3" Duration="2" Instrument="Instrument 2"
				Note Time="22" Value="D3" Duration="2" Instrument="Instrument 2"
				Note Time="24" Value="E3" Duration="2" Instrument="Instrument 2"
				Note Time="26" Value="F#3" Duration="2" Instrument="Instrument 2"
				Note Time="28" Value="D4" Duration="2" Instrument="Instrument 2"
				Note Time="30" Value="E4" Duration="4" Instrument="Instrument 2"
			Pattern Name="3D" Color="8d69e4"
				Note Time="2" Value="D4" Duration="2" Instrument="Instrument 2"
				Note Time="4" Value="E4" Duration="14" Instrument="Instrument 2"
				Note Time="18" Value="A3" Duration="2" Instrument="Instrument 2"
				Note Time="20" Value="A3" Duration="2" Instrument="Instrument 2"
				Note Time="22" Value="A3" Duration="2" Instrument="Instrument 2"
				Note Time="24" Value="A3" Duration="2" Instrument="Instrument 2"
				Note Time="26" Value="A3" Duration="2" Instrument="Instrument 2"
				Note Time="28" Value="A3" Duration="2" Instrument="Instrument 2"
				Note Time="30" Value="A3" Duration="2" Instrument="Instrument 2"
			Pattern Name="3E" Color="997c73"
				Note Time="0" Value="F#4" Duration="1" Instrument="Instrument 2"
				Note Time="1" Value="G4" Duration="1" Instrument="Instrument 2"
				Note Time="2" Value="G4" Duration="2" Instrument="Instrument 2"
				Note Time="4" Value="G4" Duration="8" Instrument="Instrument 2"
				Note Time="12" Value="C4" Duration="2" Instrument="Instrument 2"
				Note Time="14" Value="D4" Duration="4" Instrument="Instrument 2"
				Note Time="18" Value="C4" Duration="2" Instrument="Instrument 2"
				Note Time="20" Value="D4" Duration="6" Instrument="Instrument 2"
				Note Time="26" Value="A4" Duration="6" Instrument="Instrument 2"
			Pattern Name="3F" Color="ffe461"
				Note Time="0" Value="A#4" Duration="6" Instrument="Instrument 2"
				Note Time="6" Value="G4" Duration="4" Instrument="Instrument 2"
				Note Time="10" Value="A#3" Duration="2" Instrument="Instrument 2"
				Note Time="12" Value="D#4" Duration="2" Instrument="Instrument 2"
				Note Time="14" Value="F4" Duration="4" Instrument="Instrument 2"
				Note Time="18" Value="D#4" Duration="2" Instrument="Instrument 2"
				Note Time="20" Value="F4" Duration="2" Instrument="Instrument 2"
				Note Time="22" Value="A#3" Duration="6" Instrument="Instrument 2"
				Note Time="28" Value="C4" Duration="4" Instrument="Instrument 2"
			Pattern Name="40" Color="89f2e8"
				Note Time="0" Value="C#4" Duration="2" Instrument="Instrument 1"
				Note Time="2" Value="D4" Duration="2" Instrument="Instrument 1"
				Note Time="4" Value="G4" Duration="2" Instrument="Instrument 1"
				Note Time="6" Value="B3" Duration="4" Instrument="Instrument 1"
				Note Time="10" Value="B3" Duration="2" Instrument="Instrument 1"
				Note Time="12" Value="C#4" Duration="2" Instrument="Instrument 1"
				Note Time="14" Value="D4" Duration="2" Instrument="Instrument 1"
				Note Time="16" Value="A4" Duration="8" Instrument="Instrument 1"
				Note Time="24" Value="A4" Duration="1" Instrument="Instrument 1"
				Note Time="25" Value="A4" Duration="1" Instrument="Instrument 1"
				Note Time="26" Value="A4" Duration="1" Instrument="Instrument 1"
				Note Time="27" Value="A4" Duration="1" Instrument="Instrument 1"
				Note Time="28" Value="A4" Duration="4" Instrument="Instrument 1"
			Pattern Name="41" Color="98a7fc"
				Note Time="0" Value="D4" Duration="1" Instrument="Instrument 1"
				Note Time="1" Value="D4" Duration="1" Instrument="Instrument 1"
				Note Time="2" Value="D4" Duration="1" Instrument="Instrument 1"
				Note Time="3" Value="D4" Duration="1" Instrument="Instrument 1"
				Note Time="4" Value="D4" Duration="1" Instrument="Instrument 1"
				Note Time="5" Value="D4" Duration="1" Instrument="Instrument 1"
				Note Time="6" Value="D4" Duration="1" Instrument="Instrument 1"
				Note Time="7" Value="D4" Duration="9" Instrument="Instrument 1"
			PatternInstance Time="0" Pattern="00"
			PatternInstance Time="1" Pattern="01"
			PatternInstance Time="2" Pattern="00"
			PatternInstance Time="3" Pattern="03"
			PatternInstance Time="4" Pattern="04"
			PatternInstance Time="5" Pattern="05"
			PatternInstance Time="6" Pattern="06"
			PatternInstance Time="7" Pattern="07"
			PatternInstance Time="8" Pattern="08"
			PatternInstance Time="9" Pattern="00"
			PatternInstance Time="10" Pattern="00"
			PatternInstance Time="11" Pattern="0B"
			PatternInstance Time="12" Pattern="0C"
			PatternInstance Time="13" Pattern="0D"
			PatternInstance Time="14" Pattern="0E"
			PatternInstance Time="15" Pattern="0F"
			PatternInstance Time="16" Pattern="10"
			PatternInstance Time="17" Pattern="11"
			PatternInstance Time="18" Pattern="08"
			PatternInstance Time="19" Pattern="13"
			PatternInstance Time="20" Pattern="0C"
			PatternInstance Time="21" Pattern="15"
			PatternInstance Time="22" Pattern="16"
			PatternInstance Time="23" Pattern="17"
			PatternInstance Time="24" Pattern="10"
			PatternInstance Time="25" Pattern="11"
			PatternInstance Time="26" Pattern="08"
			PatternInstance Time="27" Pattern="13"
			PatternInstance Time="28" Pattern="0C"
			PatternInstance Time="29" Pattern="15"
			PatternInstance Time="30" Pattern="16"
			PatternInstance Time="31" Pattern="17"
			PatternInstance Time="32" Pattern="18"
			PatternInstance Time="33" Pattern="19"
			PatternInstance Time="34" Pattern="1A"
			PatternInstance Time="35" Pattern="1B"
			PatternInstance Time="36" Pattern="18"
			PatternInstance Time="37" Pattern="1C"
			PatternInstance Time="38" Pattern="1D"
			PatternInstance Time="39" Pattern="1E"
			PatternInstance Time="40" Pattern="1F"
			PatternInstance Time="41" Pattern="19"
			PatternInstance Time="42" Pattern="21"
			PatternInstance Time="43" Pattern="22"
			PatternInstance Time="44" Pattern="23"
			PatternInstance Time="45" Pattern="1C"
			PatternInstance Time="46" Pattern="25"
			PatternInstance Time="47" Pattern="1E"
			PatternInstance Time="48" Pattern="27"
			PatternInstance Time="49" Pattern="28"
			PatternInstance Time="50" Pattern="29"
			PatternInstance Time="51" Pattern="2A"
			PatternInstance Time="52" Pattern="29"
			PatternInstance Time="53" Pattern="2A"
			PatternInstance Time="54" Pattern="29"
			PatternInstance Time="55" Pattern="2C"
			PatternInstance Time="56" Pattern="2D"
			PatternInstance Time="57" Pattern="2E"
			PatternInstance Time="58" Pattern="2D"
			PatternInstance Time="59" Pattern="2E"
			PatternInstance Time="60" Pattern="2D"
			PatternInstance Time="61" Pattern="2E"
			PatternInstance Time="62" Pattern="2F"
			PatternInstance Time="63" Pattern="30"
			PatternInstance Time="64" Pattern="31"
			PatternInstance Time="65" Pattern="32"
			PatternInstance Time="66" Pattern="33"
			PatternInstance Time="67" Pattern="32"
			PatternInstance Time="68" Pattern="34"
			PatternInstance Time="69" Pattern="35"
			PatternInstance Time="70" Pattern="36"
			PatternInstance Time="71" Pattern="37"
			PatternInstance Time="72" Pattern="38"
			PatternInstance Time="73" Pattern="39"
			PatternInstance Time="74" Pattern="3A"
			PatternInstance Time="75" Pattern="3B"
			PatternInstance Time="76" Pattern="3C"
			PatternInstance Time="77" Pattern="3D"
			PatternInstance Time="78" Pattern="3E"
			PatternInstance Time="79" Pattern="3F"
			PatternInstance Time="80" Pattern="10"
			PatternInstance Time="81" Pattern="11"
			PatternInstance Time="82" Pattern="08"
			PatternInstance Time="83" Pattern="13"
			PatternInstance Time="84" Pattern="0C"
			PatternInstance Time="85" Pattern="15"
			PatternInstance Time="86" Pattern="16"
			PatternInstance Time="87" Pattern="17"
			PatternInstance Time="88" Pattern="10"
			PatternInstance Time="89" Pattern="11"
			PatternInstance Time="90" Pattern="08"
			PatternInstance Time="91" Pattern="13"
			PatternInstance Time="92" Pattern="0C"
			PatternInstance Time="93" Pattern="15"
			PatternInstance Time="94" Pattern="16"
			PatternInstance Time="95" Pattern="17"
			PatternInstance Time="96" Pattern="18"
			PatternInstance Time="97" Pattern="19"
			PatternInstance Time="98" Pattern="1A"
			PatternInstance Time="99" Pattern="1B"
			PatternInstance Time="100" Pattern="18"
			PatternInstance Time="101" Pattern="1C"
			PatternInstance Time="102" Pattern="1D"
			PatternInstance Time="103" Pattern="1E"
			PatternInstance Time="104" Pattern="1F"
			PatternInstance Time="105" Pattern="19"
			PatternInstance Time="106" Pattern="21"
			PatternInstance Time="107" Pattern="22"
			PatternInstance Time="108" Pattern="23"
			PatternInstance Time="109" Pattern="1C"
			PatternInstance Time="110" Pattern="25"
			PatternInstance Time="111" Pattern="1E"
			PatternInstance Time="112" Pattern="27"
			PatternInstance Time="113" Pattern="28"
			PatternInstance Time="114" Pattern="29"
			PatternInstance Time="115" Pattern="2A"
			PatternInstance Time="116" Pattern="29"
			PatternInstance Time="117" Pattern="2A"
			PatternInstance Time="118" Pattern="29"
			PatternInstance Time="119" Pattern="2C"
			PatternInstance Time="120" Pattern="2D"
			PatternInstance Time="121" Pattern="2E"
			PatternInstance Time="122" Pattern="2D"
			PatternInstance Time="123" Pattern="2E"
			PatternInstance Time="124" Pattern="2D"
			PatternInstance Time="125" Pattern="2E"
			PatternInstance Time="126" Pattern="2F"
			PatternInstance Time="127" Pattern="40"
			PatternInstance Time="128" Pattern="41"
		Channel Type="Triangle"
			Pattern Name="01" Color="fffd43"
				Note Time="0" Value="A#4" Duration="1" Instrument="sample"
				Note Time="2" Value="A#4" Duration="1" Instrument="sample"
				Note Time="4" Value="C5" Duration="2" Instrument="sample"
				Note Time="8" Value="C5" Duration="1" Instrument="sample"
				Note Time="9" Value="C#5" Duration="3" Instrument="sample"
				Note Time="14" Value="C5" Duration="1" Instrument="sample"
				Note Time="15" Value="C#5" Duration="3" Instrument="sample"
				Note Time="20" Value="F4" Duration="1" Instrument="sample"
				Note Time="22" Value="F4" Duration="1" Instrument="sample"
				Note Time="24" Value="C5" Duration="1" Instrument="sample"
				Note Time="25" Value="C#5" Duration="2" Instrument="sample"
				Note Time="28" Value="C#5" Duration="1" Instrument="sample"
				Note Time="30" Value="C#5" Duration="1" Instrument="sample"
			Pattern Name="02" Color="7fdc83"
				Note Time="0" Value="A#4" Duration="1" Instrument="sample"
				Note Time="1" Value="C5" Duration="3" Instrument="sample"
				Note Time="6" Value="A#4" Duration="2" Instrument="sample"
				Note Time="10" Value="F#4" Duration="2" Instrument="sample"
				Note Time="14" Value="F4" Duration="1" Instrument="sample"
				Note Time="16" Value="F#4" Duration="4" Instrument="sample"
			Pattern Name="03" Color="55b2ff"
				Note Time="4" Value="A#4" Duration="4" Instrument="sample"
				Note Time="8" Value="A#4" Duration="1" Instrument="sample"
				Note Time="9" Value="C5" Duration="3" Instrument="sample"
				Note Time="14" Value="A#4" Duration="1" Instrument="sample"
				Note Time="15" Value="C5" Duration="3" Instrument="sample"
				Note Time="20" Value="D#4" Duration="1" Instrument="sample"
				Note Time="22" Value="D#4" Duration="1" Instrument="sample"
				Note Time="24" Value="G4" Duration="1" Instrument="sample"
				Note Time="25" Value="A#4" Duration="1" Instrument="sample"
				Note Time="28" Value="C5" Duration="1" Instrument="sample"
				Note Time="30" Value="C5" Duration="1" Instrument="sample"
			Pattern Name="04" Color="e95093"
				Note Time="0" Value="A4" Duration="1" Instrument="sample"
				Note Time="1" Value="A#4" Duration="3" Instrument="sample"
				Note Time="6" Value="A4" Duration="2" Instrument="sample"
				Note Time="10" Value="F4" Duration="2" Instrument="sample"
				Note Time="14" Value="D#4" Duration="1" Instrument="sample"
				Note Time="16" Value="F4" Duration="2" Instrument="sample"
				Note Time="20" Value="F4" Duration="1" Instrument="sample"
				Note Time="22" Value="F4" Duration="1" Instrument="sample"
				Note Time="24" Value="A#4" Duration="2" Instrument="sample"
				Note Time="28" Value="C5" Duration="1" Instrument="sample"
				Note Time="30" Value="C#5" Duration="2" Instrument="sample"
			Pattern Name="05" Color="ffa83c"
				Note Time="4" Value="D#5" Duration="2" Instrument="sample"
				Note Time="8" Value="D#5" Duration="1" Instrument="sample"
				Note Time="9" Value="F5" Duration="3" Instrument="sample"
				Note Time="14" Value="D#5" Duration="1" Instrument="sample"
				Note Time="15" Value="F5" Duration="3" Instrument="sample"
				Note Time="20" Value="A#4" Duration="1" Instrument="sample"
				Note Time="22" Value="A#4" Duration="1" Instrument="sample"
				Note Time="24" Value="D#5" Duration="1" Instrument="sample"
				Note Time="25" Value="F5" Duration="2" Instrument="sample"
				Note Time="28" Value="G#5" Duration="1" Instrument="sample"
				Note Time="30" Value="G#5" Duration="1" Instrument="sample"
			Pattern Name="06" Color="eaffbd"
				Note Time="0" Value="F#5" Duration="1" Instrument="sample"
				Note Time="1" Value="G#5" Duration="3" Instrument="sample"
				Note Time="6" Value="F#5" Duration="2" Instrument="sample"
				Note Time="14" Value="F5" Duration="2" Instrument="sample"
				Note Time="16" Value="F#5" Duration="2" Instrument="sample"
			Pattern Name="07" Color="65f2ff"
				Note Time="0" Value="C#5" Duration="1" Instrument="sample"
				Note Time="2" Value="C5" Duration="1" Instrument="sample"
				Note Time="4" Value="C#5" Duration="2" Instrument="sample"
				Note Time="8" Value="D#5" Duration="2" Instrument="sample"
				Note Time="12" Value="G#4" Duration="2" Instrument="sample"
				Note Time="16" Value="D5" Duration="1" Instrument="sample"
				Note Time="17" Value="D#5" Duration="2" Instrument="sample"
				Note Time="20" Value="G#4" Duration="1" Instrument="sample"
				Note Time="22" Value="G#4" Duration="1" Instrument="sample"
				Note Time="24" Value="C5" Duration="1" Instrument="sample"
				Note Time="25" Value="D#5" Duration="2" Instrument="sample"
				Note Time="28" Value="F#5" Duration="1" Instrument="sample"
				Note Time="30" Value="F#5" Duration="1" Instrument="sample"
			Pattern Name="08" Color="d863ec"
				Note Time="0" Value="D#5" Duration="1" Instrument="sample"
				Note Time="1" Value="F#5" Duration="3" Instrument="sample"
				Note Time="6" Value="F5" Duration="2" Instrument="sample"
				Note Time="14" Value="D#5" Duration="2" Instrument="sample"
				Note Time="20" Value="A4" Duration="1" Instrument="sample"
				Note Time="22" Value="A4" Duration="1" Instrument="sample"
				Note Time="24" Value="C5" Duration="1" Instrument="sample"
				Note Time="25" Value="C#5" Duration="2" Instrument="sample"
				Note Time="28" Value="C5" Duration="1" Instrument="sample"
				Note Time="30" Value="A#4" Duration="1" Instrument="sample"
			Pattern Name="09" Color="ff935e"
				Note Time="4" Value="C6" Duration="2" Instrument="sample"
				Note Time="8" Value="C6" Duration="1" Instrument="sample"
				Note Time="9" Value="C#6" Duration="3" Instrument="sample"
				Note Time="14" Value="C6" Duration="1" Instrument="sample"
				Note Time="15" Value="C#6" Duration="3" Instrument="sample"
				Note Time="20" Value="F5" Duration="1" Instrument="sample"
				Note Time="22" Value="F5" Duration="1" Instrument="sample"
				Note Time="24" Value="C6" Duration="1" Instrument="sample"
				Note Time="25" Value="C#6" Duration="2" Instrument="sample"
				Note Time="28" Value="C#6" Duration="1" Instrument="sample"
				Note Time="30" Value="C#6" Duration="1" Instrument="sample"
			Pattern Name="0A" Color="fcff6f"
				Note Time="0" Value="A#5" Duration="1" Instrument="sample"
				Note Time="1" Value="C6" Duration="3" Instrument="sample"
				Note Time="6" Value="A#5" Duration="2" Instrument="sample"
				Note Time="10" Value="F#5" Duration="2" Instrument="sample"
				Note Time="14" Value="F5" Duration="1" Instrument="sample"
				Note Time="16" Value="F#5" Duration="4" Instrument="sample"
			Pattern Name="0B" Color="3cd3e3"
				Note Time="4" Value="A#5" Duration="4" Instrument="sample"
				Note Time="8" Value="A#5" Duration="1" Instrument="sample"
				Note Time="9" Value="C6" Duration="3" Instrument="sample"
				Note Time="14" Value="A#5" Duration="1" Instrument="sample"
				Note Time="15" Value="C6" Duration="3" Instrument="sample"
				Note Time="20" Value="D#5" Duration="1" Instrument="sample"
				Note Time="22" Value="D#5" Duration="1" Instrument="sample"
				Note Time="24" Value="G5" Duration="1" Instrument="sample"
				Note Time="25" Value="A#5" Duration="1" Instrument="sample"
				Note Time="28" Value="C6" Duration="1" Instrument="sample"
				Note Time="30" Value="C6" Duration="1" Instrument="sample"
			Pattern Name="0C" Color="8163dc"
				Note Time="0" Value="A5" Duration="1" Instrument="sample"
				Note Time="1" Value="A#5" Duration="3" Instrument="sample"
				Note Time="6" Value="A5" Duration="2" Instrument="sample"
				Note Time="10" Value="F5" Duration="2" Instrument="sample"
				Note Time="14" Value="D#5" Duration="1" Instrument="sample"
				Note Time="16" Value="F5" Duration="2" Instrument="sample"
				Note Time="20" Value="F5" Duration="1" Instrument="sample"
				Note Time="22" Value="F5" Duration="1" Instrument="sample"
				Note Time="24" Value="A#5" Duration="2" Instrument="sample"
				Note Time="28" Value="C6" Duration="1" Instrument="sample"
				Note Time="30" Value="C#6" Duration="2" Instrument="sample"
			Pattern Name="0D" Color="8a706a"
				Note Time="4" Value="D#6" Duration="2" Instrument="sample"
				Note Time="8" Value="D#6" Duration="1" Instrument="sample"
				Note Time="9" Value="F6" Duration="3" Instrument="sample"
				Note Time="14" Value="D#6" Duration="1" Instrument="sample"
				Note Time="15" Value="F6" Duration="3" Instrument="sample"
				Note Time="20" Value="A#5" Duration="1" Instrument="sample"
				Note Time="22" Value="A#5" Duration="1" Instrument="sample"
				Note Time="24" Value="D#6" Duration="1" Instrument="sample"
				Note Time="25" Value="F6" Duration="2" Instrument="sample"
				Note Time="28" Value="G#6" Duration="1" Instrument="sample"
				Note Time="30" Value="G#6" Duration="1" Instrument="sample"
			Pattern Name="0E" Color="ffffb2"
				Note Time="0" Value="F#6" Duration="1" Instrument="sample"
				Note Time="1" Value="G#6" Duration="3" Instrument="sample"
				Note Time="6" Value="F#6" Duration="2" Instrument="sample"
				Note Time="14" Value="F6" Duration="2" Instrument="sample"
				Note Time="16" Value="F#6" Duration="2" Instrument="sample"
			Pattern Name="0F" Color="62e2d6"
				Note Time="0" Value="C#6" Duration="1" Instrument="sample"
				Note Time="2" Value="C6" Duration="1" Instrument="sample"
				Note Time="4" Value="C#6" Duration="2" Instrument="sample"
				Note Time="8" Value="D#6" Duration="2" Instrument="sample"
				Note Time="12" Value="G#5" Duration="2" Instrument="sample"
				Note Time="16" Value="D6" Duration="1" Instrument="sample"
				Note Time="17" Value="D#6" Duration="2" Instrument="sample"
				Note Time="20" Value="G#5" Duration="1" Instrument="sample"
				Note Time="22" Value="G#5" Duration="1" Instrument="sample"
				Note Time="24" Value="C6" Duration="1" Instrument="sample"
				Note Time="25" Value="D#6" Duration="2" Instrument="sample"
				Note Time="28" Value="F#6" Duration="1" Instrument="sample"
				Note Time="30" Value="F#6" Duration="1" Instrument="sample"
			Pattern Name="10" Color="7b8df1"
				Note Time="0" Value="D#6" Duration="1" Instrument="sample"
				Note Time="1" Value="F#6" Duration="3" Instrument="sample"
				Note Time="6" Value="F6" Duration="2" Instrument="sample"
				Note Time="14" Value="D#6" Duration="2" Instrument="sample"
				Note Time="20" Value="A5" Duration="1" Instrument="sample"
				Note Time="22" Value="A5" Duration="1" Instrument="sample"
				Note Time="24" Value="C6" Duration="1" Instrument="sample"
				Note Time="25" Value="C#6" Duration="2" Instrument="sample"
				Note Time="28" Value="C6" Duration="1" Instrument="sample"
				Note Time="30" Value="A#5" Duration="1" Instrument="sample"
			Pattern Name="11" Color="ff7571"
				Note Time="0" Value="A#3" Duration="8" Instrument="echo"
				Note Time="8" Value="F4" Duration="4" Instrument="echo"
				Note Time="12" Value="D#4" Duration="2" Instrument="echo"
				Note Time="14" Value="F4" Duration="4" Instrument="echo"
				Note Time="18" Value="C#4" Duration="2" Instrument="echo"
				Note Time="20" Value="F4" Duration="4" Instrument="echo"
				Note Time="24" Value="C4" Duration="4" Instrument="echo"
				Note Time="28" Value="C#4" Duration="4" Instrument="echo"
			Pattern Name="12" Color="ffef3c"
				Note Time="0" Value="F#3" Duration="8" Instrument="echo"
				Note Time="8" Value="F#4" Duration="4" Instrument="echo"
				Note Time="12" Value="F4" Duration="2" Instrument="echo"
				Note Time="14" Value="F#4" Duration="4" Instrument="echo"
				Note Time="18" Value="C#4" Duration="2" Instrument="echo"
				Note Time="20" Value="F#4" Duration="4" Instrument="echo"
				Note Time="24" Value="C4" Duration="4" Instrument="echo"
				Note Time="28" Value="C#4" Duration="4" Instrument="echo"
			Pattern Name="13" Color="74ca78"
				Note Time="0" Value="G#3" Duration="8" Instrument="echo"
				Note Time="8" Value="D#4" Duration="4" Instrument="echo"
				Note Time="12" Value="C#4" Duration="2" Instrument="echo"
				Note Time="14" Value="D#4" Duration="4" Instrument="echo"
				Note Time="18" Value="C#4" Duration="2" Instrument="echo"
				Note Time="20" Value="D#4" Duration="4" Instrument="echo"
				Note Time="24" Value="A#3" Duration="4" Instrument="echo"
				Note Time="28" Value="C4" Duration="4" Instrument="echo"
			Pattern Name="14" Color="51a1fc"
				Note Time="0" Value="F3" Duration="8" Instrument="echo"
				Note Time="8" Value="D#4" Duration="4" Instrument="echo"
				Note Time="12" Value="C#4" Duration="2" Instrument="echo"
				Note Time="14" Value="D#4" Duration="4" Instrument="echo"
				Note Time="18" Value="C#4" Duration="2" Instrument="echo"
				Note Time="20" Value="D#4" Duration="4" Instrument="echo"
				Note Time="24" Value="C4" Duration="4" Instrument="echo"
				Note Time="28" Value="C#4" Duration="4" Instrument="echo"
			Pattern Name="15" Color="ff9ece"
				Note Time="0" Value="A#3" Duration="8" Instrument="echo"
				Note Time="8" Value="A#4" Duration="4" Instrument="echo"
				Note Time="12" Value="G#4" Duration="2" Instrument="echo"
				Note Time="14" Value="A#4" Duration="4" Instrument="echo"
				Note Time="18" Value="F4" Duration="2" Instrument="echo"
				Note Time="20" Value="A#4" Duration="4" Instrument="echo"
				Note Time="24" Value="D#4" Duration="4" Instrument="echo"
				Note Time="28" Value="F4" Duration="4" Instrument="echo"
			Pattern Name="16" Color="fff389"
				Note Time="0" Value="F#3" Duration="8" Instrument="echo"
				Note Time="8" Value="C#5" Duration="4" Instrument="echo"
				Note Time="12" Value="C5" Duration="2" Instrument="echo"
				Note Time="14" Value="C#5" Duration="4" Instrument="echo"
				Note Time="18" Value="A#4" Duration="2" Instrument="echo"
				Note Time="20" Value="C#5" Duration="4" Instrument="echo"
				Note Time="24" Value="G#4" Duration="4" Instrument="echo"
				Note Time="28" Value="A#4" Duration="4" Instrument="echo"
			Pattern Name="17" Color="d8ffa1"
				Note Time="0" Value="G#3" Duration="8" Instrument="echo"
				Note Time="8" Value="C5" Duration="4" Instrument="echo"
				Note Time="12" Value="A#4" Duration="2" Instrument="echo"
				Note Time="14" Value="C5" Duration="4" Instrument="echo"
				Note Time="18" Value="G#4" Duration="2" Instrument="echo"
				Note Time="20" Value="C5" Duration="4" Instrument="echo"
				Note Time="24" Value="C#4" Duration="4" Instrument="echo"
				Note Time="28" Value="D#4" Duration="4" Instrument="echo"
			Pattern Name="18" Color="3fe5ff"
				Note Time="0" Value="F4" Duration="8" Instrument="echo"
				Note Time="8" Value="F4" Duration="4" Instrument="echo"
				Note Time="12" Value="F4" Duration="2" Instrument="echo"
				Note Time="14" Value="A4" Duration="4" Instrument="echo"
				Note Time="18" Value="F4" Duration="2" Instrument="echo"
				Note Time="20" Value="A4" Duration="4" Instrument="echo"
				Note Time="24" Value="D#4" Duration="4" Instrument="echo"
				Note Time="28" Value="F4" Duration="38" Instrument="echo"
			Pattern Name="1A" Color="ff8d5a"
				Note Time="2" Value="A#2" Duration="2" Instrument="triangle pluck 4"
				Note Time="4" Value="F3" Duration="4" Instrument="triangle pluck 4"
				Note Time="8" Value="A#3" Duration="2" Instrument="triangle pluck 4"
				Note Time="10" Value="F3" Duration="6" Instrument="triangle pluck 4"
				Note Time="16" Value="F3" Duration="18" Instrument="triangle pluck 4"
			Pattern Name="1B" Color="ebf067"
				Note Time="2" Value="F#2" Duration="2" Instrument="triangle pluck 4"
				Note Time="4" Value="C#3" Duration="2" Instrument="triangle pluck 4"
				Note Time="6" Value="F#3" Duration="12" Instrument="triangle pluck 4"
				Note Time="18" Value="G#2" Duration="2" Instrument="triangle pluck 4"
				Note Time="20" Value="C3" Duration="2" Instrument="triangle pluck 4"
				Note Time="22" Value="D#3" Duration="6" Instrument="triangle pluck 4"
				Note Time="28" Value="G#4" Duration="4" Instrument="triangle pluck 4"
			Pattern Name="1C" Color="3cbfcb"
				Note Time="0" Value="G#4" Duration="2" Instrument="triangle pluck 4"
				Note Time="2" Value="A#2" Duration="2" Instrument="triangle pluck 4"
				Note Time="4" Value="F3" Duration="2" Instrument="triangle pluck 4"
				Note Time="6" Value="A#4" Duration="2" Instrument="triangle pluck 4"
				Note Time="8" Value="A#3" Duration="26" Instrument="triangle pluck 4"
			Pattern Name="1D" Color="d1b1ff"
				Note Time="2" Value="F#2" Duration="2" Instrument="triangle pluck 4"
				Note Time="4" Value="C#3" Duration="2" Instrument="triangle pluck 4"
				Note Time="6" Value="F#3" Duration="12" Instrument="triangle pluck 4"
				Note Time="18" Value="G#2" Duration="2" Instrument="triangle pluck 4"
				Note Time="20" Value="C3" Duration="2" Instrument="triangle pluck 4"
				Note Time="22" Value="D#3" Duration="10" Instrument="triangle pluck 4"
			Pattern Name="1E" Color="ddc4bb"
				Note Time="0" Value="A2" Duration="2" Instrument="triangle pluck 4"
				Note Time="2" Value="A3" Duration="2" Instrument="triangle pluck 4"
				Note Time="4" Value="E4" Duration="12" Instrument="triangle pluck 4"
				Note Time="16" Value="B3" Duration="2" Instrument="triangle pluck 4"
				Note Time="18" Value="B2" Duration="2" Instrument="triangle pluck 4"
				Note Time="20" Value="D#3" Duration="2" Instrument="triangle pluck 4"
				Note Time="22" Value="F#3" Duration="12" Instrument="triangle pluck 4"
			Pattern Name="1F" Color="ffff94"
				Note Time="2" Value="E2" Duration="2" Instrument="triangle pluck 4"
				Note Time="4" Value="B2" Duration="2" Instrument="triangle pluck 4"
				Note Time="6" Value="G#3" Duration="12" Instrument="triangle pluck 4"
				Note Time="18" Value="F#2" Duration="2" Instrument="triangle pluck 4"
				Note Time="20" Value="A#2" Duration="2" Instrument="triangle pluck 4"
				Note Time="22" Value="C#3" Duration="26" Instrument="triangle pluck 4"
			Pattern Name="20" Color="3cd2c4"
				Note Time="2" Value="G#2" Duration="2" Instrument="triangle pluck 4"
				Note Time="4" Value="D#3" Duration="4" Instrument="triangle pluck 4"
				Note Time="8" Value="G#3" Duration="2" Instrument="triangle pluck 4"
				Note Time="10" Value="D#3" Duration="6" Instrument="triangle pluck 4"
				Note Time="16" Value="D#3" Duration="18" Instrument="triangle pluck 4"
			Pattern Name="22" Color="7585e7"
				Note Time="16" Value="A3" Duration="2" Instrument="triangle pluck 4"
				Note Time="18" Value="A2" Duration="2" Instrument="triangle pluck 4"
				Note Time="20" Value="C#3" Duration="2" Instrument="triangle pluck 4"
				Note Time="22" Value="E3" Duration="18" Instrument="triangle pluck 4"
			Pattern Name="23" Color="ff6b6b"
				Note Time="2" Value="D3" Duration="2" Instrument="triangle pluck 4"
				Note Time="4" Value="A3" Duration="2" Instrument="triangle pluck 4"
				Note Time="6" Value="F#4" Duration="10" Instrument="triangle pluck 4"
				Note Time="16" Value="E4" Duration="2" Instrument="triangle pluck 4"
				Note Time="18" Value="E3" Duration="2" Instrument="triangle pluck 4"
				Note Time="20" Value="G#3" Duration="2" Instrument="triangle pluck 4"
				Note Time="22" Value="B3" Duration="6" Instrument="triangle pluck 4"
				Note Time="28" Value="E4" Duration="4" Instrument="triangle pluck 4"
			Pattern Name="24" Color="ffdc3c"
				Note Time="0" Value="E4" Duration="2" Instrument="triangle pluck 4"
				Note Time="2" Value="F#2" Duration="2" Instrument="triangle pluck 4"
				Note Time="4" Value="C#3" Duration="2" Instrument="triangle pluck 4"
				Note Time="6" Value="F#4" Duration="2" Instrument="triangle pluck 4"
				Note Time="8" Value="F#3" Duration="2" Instrument="triangle pluck 4"
				Note Time="10" Value="C#3" Duration="6" Instrument="triangle pluck 4"
				Note Time="16" Value="C#3" Duration="32" Instrument="triangle pluck 4"
			Pattern Name="25" Color="6ab96e"
				Note Time="16" Value="E4" Duration="12" Instrument="triangle pluck 4"
				Note Time="28" Value="E4" Duration="8" Instrument="triangle pluck 4"
			Pattern Name="26" Color="a0f1ff"
				Note Time="4" Value="F4" Duration="2" Instrument="triangle pluck 4"
				Note Time="6" Value="A#3" Duration="18" Instrument="triangle pluck 4"
				Note Time="24" Value="G4" Duration="4" Instrument="triangle pluck 4"
				Note Time="28" Value="G4" Duration="6" Instrument="triangle pluck 4"
			Pattern Name="27" Color="ff7cb6"
				Note Time="2" Value="C3" Duration="2" Instrument="triangle pluck 4"
				Note Time="4" Value="G3" Duration="2" Instrument="triangle pluck 4"
				Note Time="6" Value="C4" Duration="10" Instrument="triangle pluck 4"
				Note Time="16" Value="D4" Duration="12" Instrument="triangle pluck 4"
				Note Time="28" Value="D4" Duration="36" Instrument="triangle pluck 4"
			Pattern Name="28" Color="ffe362"
				Note Time="0" Value="D5" Duration="2" Instrument="triangle pluck 4"
				Note Time="2" Value="E3" Duration="2" Instrument="triangle pluck 4"
				Note Time="4" Value="B3" Duration="2" Instrument="triangle pluck 4"
				Note Time="6" Value="E5" Duration="2" Instrument="triangle pluck 4"
				Note Time="8" Value="E4" Duration="2" Instrument="triangle pluck 4"
				Note Time="10" Value="B3" Duration="2" Instrument="triangle pluck 4"
				Note Time="12" Value="G#4" Duration="4" Instrument="triangle pluck 4"
				Note Time="16" Value="B3" Duration="18" Instrument="triangle pluck 4"
			PatternInstance Time="16" Pattern="01"
			PatternInstance Time="17" Pattern="02"
			PatternInstance Time="18" Pattern="03"
			PatternInstance Time="19" Pattern="04"
			PatternInstance Time="20" Pattern="05"
			PatternInstance Time="21" Pattern="06"
			PatternInstance Time="22" Pattern="07"
			PatternInstance Time="23" Pattern="08"
			PatternInstance Time="24" Pattern="09"
			PatternInstance Time="25" Pattern="0A"
			PatternInstance Time="26" Pattern="0B"
			PatternInstance Time="27" Pattern="0C"
			PatternInstance Time="28" Pattern="0D"
			PatternInstance Time="29" Pattern="0E"
			PatternInstance Time="30" Pattern="0F"
			PatternInstance Time="31" Pattern="10"
			PatternInstance Time="32" Pattern="11"
			PatternInstance Time="33" Pattern="12"
			PatternInstance Time="34" Pattern="13"
			PatternInstance Time="35" Pattern="14"
			PatternInstance Time="36" Pattern="15"
			PatternInstance Time="37" Pattern="16"
			PatternInstance Time="38" Pattern="17"
			PatternInstance Time="39" Pattern="18"
			PatternInstance Time="40" Pattern="11"
			PatternInstance Time="41" Pattern="12"
			PatternInstance Time="42" Pattern="13"
			PatternInstance Time="43" Pattern="14"
			PatternInstance Time="44" Pattern="15"
			PatternInstance Time="45" Pattern="16"
			PatternInstance Time="46" Pattern="17"
			PatternInstance Time="47" Pattern="18"
			PatternInstance Time="49" Pattern="1A"
			PatternInstance Time="50" Pattern="1B"
			PatternInstance Time="51" Pattern="1C"
			PatternInstance Time="52" Pattern="1B"
			PatternInstance Time="53" Pattern="1C"
			PatternInstance Time="54" Pattern="1D"
			PatternInstance Time="55" Pattern="1E"
			PatternInstance Time="56" Pattern="1F"
			PatternInstance Time="57" Pattern="20"
			PatternInstance Time="58" Pattern="1F"
			PatternInstance Time="59" Pattern="20"
			PatternInstance Time="60" Pattern="1F"
			PatternInstance Time="61" Pattern="20"
			PatternInstance Time="62" Pattern="1F"
			PatternInstance Time="63" Pattern="22"
			PatternInstance Time="64" Pattern="23"
			PatternInstance Time="65" Pattern="24"
			PatternInstance Time="66" Pattern="23"
			PatternInstance Time="67" Pattern="24"
			PatternInstance Time="68" Pattern="23"
			PatternInstance Time="69" Pattern="24"
			PatternInstance Time="70" Pattern="25"
			PatternInstance Time="71" Pattern="26"
			PatternInstance Time="72" Pattern="27"
			PatternInstance Time="73" Pattern="28"
			PatternInstance Time="74" Pattern="27"
			PatternInstance Time="75" Pattern="28"
			PatternInstance Time="76" Pattern="27"
			PatternInstance Time="77" Pattern="28"
			PatternInstance Time="78" Pattern="27"
			PatternInstance Time="80" Pattern="01"
			PatternInstance Time="81" Pattern="02"
			PatternInstance Time="82" Pattern="03"
			PatternInstance Time="83" Pattern="04"
			PatternInstance Time="84" Pattern="05"
			PatternInstance Time="85" Pattern="06"
			PatternInstance Time="86" Pattern="07"
			PatternInstance Time="87" Pattern="08"
			PatternInstance Time="88" Pattern="09"
			PatternInstance Time="89" Pattern="0A"
			PatternInstance Time="90" Pattern="0B"
			PatternInstance Time="91" Pattern="0C"
			PatternInstance Time="92" Pattern="0D"
			PatternInstance Time="93" Pattern="0E"
			PatternInstance Time="94" Pattern="0F"
			PatternInstance Time="95" Pattern="10"
			PatternInstance Time="96" Pattern="11"
			PatternInstance Time="97" Pattern="12"
			PatternInstance Time="98" Pattern="13"
			PatternInstance Time="99" Pattern="14"
			PatternInstance Time="100" Pattern="15"
			PatternInstance Time="101" Pattern="16"
			PatternInstance Time="102" Pattern="17"
			PatternInstance Time="103" Pattern="18"
			PatternInstance Time="104" Pattern="11"
			PatternInstance Time="105" Pattern="12"
			PatternInstance Time="106" Pattern="13"
			PatternInstance Time="107" Pattern="14"
			PatternInstance Time="108" Pattern="15"
			PatternInstance Time="109" Pattern="16"
			PatternInstance Time="110" Pattern="17"
			PatternInstance Time="111" Pattern="18"
			PatternInstance Time="113" Pattern="1A"
			PatternInstance Time="114" Pattern="1B"
			PatternInstance Time="115" Pattern="1C"
			PatternInstance Time="116" Pattern="1B"
			PatternInstance Time="117" Pattern="1C"
			PatternInstance Time="118" Pattern="1D"
			PatternInstance Time="119" Pattern="1E"
			PatternInstance Time="120" Pattern="1F"
			PatternInstance Time="121" Pattern="20"
			PatternInstance Time="122" Pattern="1F"
			PatternInstance Time="123" Pattern="20"
			PatternInstance Time="124" Pattern="1F"
			PatternInstance Time="125" Pattern="20"
			PatternInstance Time="126" Pattern="1F"
			PatternInstance Time="127" Pattern="22"
		Channel Type="Noise"
			Pattern Name="01" Color="3fd7ff"
				Note Time="0" Value="G2" Duration="8" Instrument="kick"
				Note Time="8" Value="G2" Duration="8" Instrument="kick"
				Note Time="16" Value="G2" Duration="8" Instrument="kick"
				Note Time="24" Value="G2" Duration="8" Instrument="kick"
			Pattern Name="02" Color="b75bde"
				Note Time="0" Value="G2" Duration="16" Instrument="kick"
				Note Time="16" Value="G2" Duration="8" Instrument="kick"
				Note Time="24" Value="G2" Duration="4" Instrument="snare"
				Note Time="28" Value="G2" Duration="2" Instrument="snare"
				Note Time="30" Value="G2" Duration="2" Instrument="snare"
			Pattern Name="03" Color="ff8655"
				Note Time="0" Value="G2" Duration="2" Instrument="kick"
				Note Time="2" Value="A3" Duration="2" Instrument="hat"
				Note Time="4" Value="F#3" Duration="2" Instrument="rel hats"
				Note Time="6" Value="A3" Duration="2" Instrument="hat"
				Note Time="8" Value="G2" Duration="2" Instrument="snare"
				Note Time="10" Value="A3" Duration="2" Instrument="hat"
				Note Time="12" Value="F#3" Duration="2" Instrument="rel hats"
				Note Time="14" Value="A3" Duration="2" Instrument="hat"
				Note Time="16" Value="G2" Duration="2" Instrument="kick"
				Note Time="18" Value="A3" Duration="2" Instrument="hat"
				Note Time="20" Value="F#3" Duration="2" Instrument="rel hats"
				Note Time="22" Value="A3" Duration="2" Instrument="hat"
				Note Time="24" Value="G2" Duration="2" Instrument="snare"
				Note Time="26" Value="A3" Duration="2" Instrument="hat"
				Note Time="28" Value="F#3" Duration="2" Instrument="rel hats"
				Note Time="30" Value="A3" Duration="2" Instrument="hat"
			Pattern Name="04" Color="dad960"
				Note Time="0" Value="G2" Duration="8" Instrument="kick"
				Note Time="8" Value="G2" Duration="8" Instrument="kick"
				Note Time="16" Value="G2" Duration="8" Instrument="kick"
				Note Time="24" Value="G2" Duration="400" Instrument="kick"
			Pattern Name="05" Color="89ffff"
				Note Time="0" Value="G2" Duration="8" Instrument="kick"
				Note Time="8" Value="G2" Duration="8" Instrument="kick"
				Note Time="16" Value="G2" Duration="8" Instrument="kick"
				Note Time="24" Value="G2" Duration="4" Instrument="snare"
				Note Time="28" Value="G2" Duration="4" Instrument="snare"
			PatternInstance Time="0" Pattern="01"
			PatternInstance Time="1" Pattern="01"
			PatternInstance Time="2" Pattern="01"
			PatternInstance Time="3" Pattern="01"
			PatternInstance Time="4" Pattern="01"
			PatternInstance Time="5" Pattern="01"
			PatternInstance Time="6" Pattern="01"
			PatternInstance Time="7" Pattern="01"
			PatternInstance Time="8" Pattern="01"
			PatternInstance Time="9" Pattern="01"
			PatternInstance Time="10" Pattern="01"
			PatternInstance Time="11" Pattern="01"
			PatternInstance Time="12" Pattern="01"
			PatternInstance Time="13" Pattern="01"
			PatternInstance Time="14" Pattern="01"
			PatternInstance Time="15" Pattern="02"
			PatternInstance Time="16" Pattern="03"
			PatternInstance Time="17" Pattern="03"
			PatternInstance Time="18" Pattern="03"
			PatternInstance Time="19" Pattern="03"
			PatternInstance Time="20" Pattern="03"
			PatternInstance Time="21" Pattern="03"
			PatternInstance Time="22" Pattern="03"
			PatternInstance Time="23" Pattern="03"
			PatternInstance Time="24" Pattern="03"
			PatternInstance Time="25" Pattern="03"
			PatternInstance Time="26" Pattern="03"
			PatternInstance Time="27" Pattern="03"
			PatternInstance Time="28" Pattern="03"
			PatternInstance Time="29" Pattern="03"
			PatternInstance Time="30" Pattern="03"
			PatternInstance Time="31" Pattern="02"
			PatternInstance Time="32" Pattern="03"
			PatternInstance Time="33" Pattern="03"
			PatternInstance Time="34" Pattern="03"
			PatternInstance Time="35" Pattern="03"
			PatternInstance Time="36" Pattern="03"
			PatternInstance Time="37" Pattern="03"
			PatternInstance Time="38" Pattern="03"
			PatternInstance Time="39" Pattern="03"
			PatternInstance Time="40" Pattern="03"
			PatternInstance Time="41" Pattern="03"
			PatternInstance Time="42" Pattern="03"
			PatternInstance Time="43" Pattern="03"
			PatternInstance Time="44" Pattern="03"
			PatternInstance Time="45" Pattern="03"
			PatternInstance Time="46" Pattern="03"
			PatternInstance Time="47" Pattern="02"
			PatternInstance Time="48" Pattern="04"
			PatternInstance Time="49" Pattern="04"
			PatternInstance Time="50" Pattern="04"
			PatternInstance Time="51" Pattern="04"
			PatternInstance Time="52" Pattern="04"
			PatternInstance Time="53" Pattern="04"
			PatternInstance Time="54" Pattern="04"
			PatternInstance Time="55" Pattern="04"
			PatternInstance Time="56" Pattern="04"
			PatternInstance Time="57" Pattern="04"
			PatternInstance Time="58" Pattern="04"
			PatternInstance Time="59" Pattern="04"
			PatternInstance Time="60" Pattern="04"
			PatternInstance Time="61" Pattern="04"
			PatternInstance Time="62" Pattern="04"
			PatternInstance Time="63" Pattern="05"
			PatternInstance Time="64" Pattern="03"
			PatternInstance Time="65" Pattern="03"
			PatternInstance Time="66" Pattern="03"
			PatternInstance Time="67" Pattern="03"
			PatternInstance Time="68" Pattern="03"
			PatternInstance Time="69" Pattern="03"
			PatternInstance Time="70" Pattern="03"
			PatternInstance Time="71" Pattern="03"
			PatternInstance Time="72" Pattern="03"
			PatternInstance Time="73" Pattern="03"
			PatternInstance Time="74" Pattern="03"
			PatternInstance Time="75" Pattern="03"
			PatternInstance Time="76" Pattern="03"
			PatternInstance Time="77" Pattern="03"
			PatternInstance Time="78" Pattern="03"
			PatternInstance Time="79" Pattern="02"
			PatternInstance Time="80" Pattern="03"
			PatternInstance Time="81" Pattern="03"
			PatternInstance Time="82" Pattern="03"
			PatternInstance Time="83" Pattern="03"
			PatternInstance Time="84" Pattern="03"
			PatternInstance Time="85" Pattern="03"
			PatternInstance Time="86" Pattern="03"
			PatternInstance Time="87" Pattern="03"
			PatternInstance Time="88" Pattern="03"
			PatternInstance Time="89" Pattern="03"
			PatternInstance Time="90" Pattern="03"
			PatternInstance Time="91" Pattern="03"
			PatternInstance Time="92" Pattern="03"
			PatternInstance Time="93" Pattern="03"
			PatternInstance Time="94" Pattern="03"
			PatternInstance Time="95" Pattern="02"
			PatternInstance Time="96" Pattern="03"
			PatternInstance Time="97" Pattern="03"
			PatternInstance Time="98" Pattern="03"
			PatternInstance Time="99" Pattern="03"
			PatternInstance Time="100" Pattern="03"
			PatternInstance Time="101" Pattern="03"
			PatternInstance Time="102" Pattern="03"
			PatternInstance Time="103" Pattern="03"
			PatternInstance Time="104" Pattern="03"
			PatternInstance Time="105" Pattern="03"
			PatternInstance Time="106" Pattern="03"
			PatternInstance Time="107" Pattern="03"
			PatternInstance Time="108" Pattern="03"
			PatternInstance Time="109" Pattern="03"
			PatternInstance Time="110" Pattern="03"
			PatternInstance Time="111" Pattern="02"
			PatternInstance Time="112" Pattern="04"
			PatternInstance Time="113" Pattern="04"
			PatternInstance Time="114" Pattern="04"
			PatternInstance Time="115" Pattern="04"
		Channel Type="DPCM"
			Pattern Name="01" Color="ffff77"
				Note Time="0" Value="E5" Duration="8" Instrument="DMC: drums + bass"
				Note Time="8" Value="E5" Duration="8" Instrument="DMC: drums + bass"
				Note Time="16" Value="E5" Duration="8" Instrument="DMC: drums + bass"
				Note Time="24" Value="E5" Duration="8" Instrument="DMC: drums + bass"
			Pattern Name="04" Color="3cc5b7"
				Note Time="0" Value="E5" Duration="2" Instrument="DMC: drums + bass"
				Note Time="2" Value="A#3" Duration="2" Instrument="DMC: drums + bass"
				Note Time="4" Value="A#3" Duration="2" Instrument="DMC: drums + bass"
				Note Time="6" Value="A#3" Duration="2" Instrument="DMC: drums + bass"
				Note Time="8" Value="E5" Duration="2" Instrument="DMC: drums + bass"
				Note Time="10" Value="A#3" Duration="2" Instrument="DMC: drums + bass"
				Note Time="12" Value="A#3" Duration="2" Instrument="DMC: drums + bass"
				Note Time="14" Value="A#3" Duration="2" Instrument="DMC: drums + bass"
				Note Time="16" Value="E5" Duration="2" Instrument="DMC: drums + bass"
				Note Time="18" Value="A#3" Duration="2" Instrument="DMC: drums + bass"
				Note Time="20" Value="A#3" Duration="2" Instrument="DMC: drums + bass"
				Note Time="22" Value="A#3" Duration="2" Instrument="DMC: drums + bass"
				Note Time="24" Value="E5" Duration="2" Instrument="DMC: drums + bass"
				Note Time="26" Value="A#3" Duration="2" Instrument="DMC: drums + bass"
				Note Time="28" Value="A#3" Duration="2" Instrument="DMC: drums + bass"
				Note Time="30" Value="A#3" Duration="2" Instrument="DMC: drums + bass"
			Pattern Name="02" Color="6c7bdb"
				Note Time="0" Value="E5" Duration="2" Instrument="DMC: drums + bass"
				Note Time="2" Value="C#4" Duration="2" Instrument="DMC: drums + bass"
				Note Time="4" Value="C#4" Duration="2" Instrument="DMC: drums + bass"
				Note Time="6" Value="C#4" Duration="2" Instrument="DMC: drums + bass"
				Note Time="8" Value="E5" Duration="2" Instrument="DMC: drums + bass"
				Note Time="10" Value="C#4" Duration="2" Instrument="DMC: drums + bass"
				Note Time="12" Value="C#4" Duration="2" Instrument="DMC: drums + bass"
				Note Time="14" Value="C#4" Duration="2" Instrument="DMC: drums + bass"
				Note Time="16" Value="E5" Duration="2" Instrument="DMC: drums + bass"
				Note Time="18" Value="C#4" Duration="2" Instrument="DMC: drums + bass"
				Note Time="20" Value="C#4" Duration="2" Instrument="DMC: drums + bass"
				Note Time="22" Value="C#4" Duration="2" Instrument="DMC: drums + bass"
				Note Time="24" Value="E5" Duration="2" Instrument="DMC: drums + bass"
				Note Time="26" Value="C#4" Duration="2" Instrument="DMC: drums + bass"
				Note Time="28" Value="C#4" Duration="2" Instrument="DMC: drums + bass"
				Note Time="30" Value="C#4" Duration="2" Instrument="DMC: drums + bass"
			Pattern Name="03" Color="ff6464"
				Note Time="0" Value="E5" Duration="2" Instrument="DMC: drums + bass"
				Note Time="2" Value="F#3" Duration="2" Instrument="DMC: drums + bass"
				Note Time="4" Value="F#3" Duration="2" Instrument="DMC: drums + bass"
				Note Time="6" Value="F#3" Duration="2" Instrument="DMC: drums + bass"
				Note Time="8" Value="E5" Duration="2" Instrument="DMC: drums + bass"
				Note Time="10" Value="F#3" Duration="2" Instrument="DMC: drums + bass"
				Note Time="12" Value="F#3" Duration="2" Instrument="DMC: drums + bass"
				Note Time="14" Value="F#3" Duration="2" Instrument="DMC: drums + bass"
				Note Time="16" Value="E5" Duration="2" Instrument="DMC: drums + bass"
				Note Time="18" Value="F3" Duration="2" Instrument="DMC: drums + bass"
				Note Time="20" Value="F3" Duration="2" Instrument="DMC: drums + bass"
				Note Time="22" Value="F3" Duration="2" Instrument="DMC: drums + bass"
				Note Time="24" Value="E5" Duration="2" Instrument="DMC: drums + bass"
				Note Time="26" Value="F3" Duration="2" Instrument="DMC: drums + bass"
				Note Time="28" Value="F3" Duration="2" Instrument="DMC: drums + bass"
				Note Time="30" Value="F3" Duration="2" Instrument="DMC: drums + bass"
			Pattern Name="05" Color="ffcb3c"
				Note Time="0" Value="E5" Duration="2" Instrument="DMC: drums + bass"
				Note Time="2" Value="G#3" Duration="2" Instrument="DMC: drums + bass"
				Note Time="4" Value="G#3" Duration="2" Instrument="DMC: drums + bass"
				Note Time="6" Value="G#3" Duration="2" Instrument="DMC: drums + bass"
				Note Time="8" Value="E5" Duration="2" Instrument="DMC: drums + bass"
				Note Time="10" Value="G#3" Duration="2" Instrument="DMC: drums + bass"
				Note Time="12" Value="G#3" Duration="2" Instrument="DMC: drums + bass"
				Note Time="14" Value="G#3" Duration="2" Instrument="DMC: drums + bass"
				Note Time="16" Value="E5" Duration="2" Instrument="DMC: drums + bass"
				Note Time="18" Value="G#3" Duration="2" Instrument="DMC: drums + bass"
				Note Time="20" Value="G#3" Duration="2" Instrument="DMC: drums + bass"
				Note Time="22" Value="G#3" Duration="2" Instrument="DMC: drums + bass"
				Note Time="24" Value="E5" Duration="2" Instrument="DMC: drums + bass"
				Note Time="26" Value="G#3" Duration="2" Instrument="DMC: drums + bass"
				Note Time="28" Value="G#3" Duration="2" Instrument="DMC: drums + bass"
				Note Time="30" Value="G#3" Duration="2" Instrument="DMC: drums + bass"
			Pattern Name="06" Color="bdffc0"
				Note Time="0" Value="E5" Duration="16" Instrument="DMC: drums + bass"
				Note Time="16" Value="E5" Duration="2" Instrument="DMC: drums + bass"
				Note Time="18" Value="F3" Duration="2" Instrument="DMC: drums + bass"
				Note Time="20" Value="F3" Duration="2" Instrument="DMC: drums + bass"
				Note Time="22" Value="F3" Duration="2" Instrument="DMC: drums + bass"
				Note Time="24" Value="F5" Duration="2" Instrument="DMC: drums + bass"
				Note Time="26" Value="F3" Duration="2" Instrument="DMC: drums + bass"
				Note Time="28" Value="F5" Duration="2" Instrument="DMC: drums + bass"
				Note Time="30" Value="F5" Duration="2" Instrument="DMC: drums + bass"
			Pattern Name="07" Color="7ee1ff"
				Note Time="0" Value="E5" Duration="2" Instrument="DMC: drums + bass"
				Note Time="2" Value="A#3" Duration="2" Instrument="DMC: drums + bass"
				Note Time="4" Value="A#3" Duration="2" Instrument="DMC: drums + bass"
				Note Time="6" Value="A#3" Duration="2" Instrument="DMC: drums + bass"
				Note Time="8" Value="F5" Duration="2" Instrument="DMC: drums + bass"
				Note Time="10" Value="A#3" Duration="2" Instrument="DMC: drums + bass"
				Note Time="12" Value="A#3" Duration="2" Instrument="DMC: drums + bass"
				Note Time="14" Value="A#3" Duration="2" Instrument="DMC: drums + bass"
				Note Time="16" Value="E5" Duration="2" Instrument="DMC: drums + bass"
				Note Time="18" Value="A#3" Duration="2" Instrument="DMC: drums + bass"
				Note Time="20" Value="A#3" Duration="2" Instrument="DMC: drums + bass"
				Note Time="22" Value="A#3" Duration="2" Instrument="DMC: drums + bass"
				Note Time="24" Value="F5" Duration="2" Instrument="DMC: drums + bass"
				Note Time="26" Value="A#3" Duration="2" Instrument="DMC: drums + bass"
				Note Time="28" Value="A#3" Duration="2" Instrument="DMC: drums + bass"
				Note Time="30" Value="A#3" Duration="2" Instrument="DMC: drums + bass"
			Pattern Name="08" Color="ff5a9f"
				Note Time="0" Value="E5" Duration="2" Instrument="DMC: drums + bass"
				Note Time="2" Value="F#3" Duration="2" Instrument="DMC: drums + bass"
				Note Time="4" Value="F#3" Duration="2" Instrument="DMC: drums + bass"
				Note Time="6" Value="F#3" Duration="2" Instrument="DMC: drums + bass"
				Note Time="8" Value="F5" Duration="2" Instrument="DMC: drums + bass"
				Note Time="10" Value="F#3" Duration="2" Instrument="DMC: drums + bass"
				Note Time="12" Value="F#3" Duration="2" Instrument="DMC: drums + bass"
				Note Time="14" Value="F#3" Duration="2" Instrument="DMC: drums + bass"
				Note Time="16" Value="E5" Duration="2" Instrument="DMC: drums + bass"
				Note Time="18" Value="F#3" Duration="2" Instrument="DMC: drums + bass"
				Note Time="20" Value="F#3" Duration="2" Instrument="DMC: drums + bass"
				Note Time="22" Value="F#3" Duration="2" Instrument="DMC: drums + bass"
				Note Time="24" Value="F5" Duration="2" Instrument="DMC: drums + bass"
				Note Time="26" Value="F#3" Duration="2" Instrument="DMC: drums + bass"
				Note Time="28" Value="F#3" Duration="2" Instrument="DMC: drums + bass"
				Note Time="30" Value="F#3" Duration="2" Instrument="DMC: drums + bass"
			Pattern Name="09" Color="ffd43c"
				Note Time="0" Value="E5" Duration="2" Instrument="DMC: drums + bass"
				Note Time="2" Value="G#3" Duration="2" Instrument="DMC: drums + bass"
				Note Time="4" Value="G#3" Duration="2" Instrument="DMC: drums + bass"
				Note Time="6" Value="G#3" Duration="2" Instrument="DMC: drums + bass"
				Note Time="8" Value="F5" Duration="2" Instrument="DMC: drums + bass"
				Note Time="10" Value="G#3" Duration="2" Instrument="DMC: drums + bass"
				Note Time="12" Value="G#3" Duration="2" Instrument="DMC: drums + bass"
				Note Time="14" Value="G#3" Duration="2" Instrument="DMC: drums + bass"
				Note Time="16" Value="E5" Duration="2" Instrument="DMC: drums + bass"
				Note Time="18" Value="G#3" Duration="2" Instrument="DMC: drums + bass"
				Note Time="20" Value="G#3" Duration="2" Instrument="DMC: drums + bass"
				Note Time="22" Value="G#3" Duration="2" Instrument="DMC: drums + bass"
				Note Time="24" Value="F5" Duration="2" Instrument="DMC: drums + bass"
				Note Time="26" Value="G#3" Duration="2" Instrument="DMC: drums + bass"
				Note Time="28" Value="G#3" Duration="2" Instrument="DMC: drums + bass"
				Note Time="30" Value="G#3" Duration="2" Instrument="DMC: drums + bass"
			Pattern Name="0A" Color="b8ef7e"
				Note Time="0" Value="E5" Duration="2" Instrument="DMC: drums + bass"
				Note Time="2" Value="F3" Duration="2" Instrument="DMC: drums + bass"
				Note Time="4" Value="F3" Duration="2" Instrument="DMC: drums + bass"
				Note Time="6" Value="F3" Duration="2" Instrument="DMC: drums + bass"
				Note Time="8" Value="F5" Duration="2" Instrument="DMC: drums + bass"
				Note Time="10" Value="F3" Duration="2" Instrument="DMC: drums + bass"
				Note Time="12" Value="F3" Duration="2" Instrument="DMC: drums + bass"
				Note Time="14" Value="F3" Duration="2" Instrument="DMC: drums + bass"
				Note Time="16" Value="E5" Duration="2" Instrument="DMC: drums + bass"
				Note Time="18" Value="F3" Duration="2" Instrument="DMC: drums + bass"
				Note Time="20" Value="F3" Duration="2" Instrument="DMC: drums + bass"
				Note Time="22" Value="F3" Duration="2" Instrument="DMC: drums + bass"
				Note Time="24" Value="F5" Duration="2" Instrument="DMC: drums + bass"
				Note Time="26" Value="F3" Duration="2" Instrument="DMC: drums + bass"
				Note Time="28" Value="F3" Duration="2" Instrument="DMC: drums + bass"
				Note Time="30" Value="F3" Duration="2" Instrument="DMC: drums + bass"
			Pattern Name="0B" Color="3ec4ff"
				Note Time="0" Value="E5" Duration="2" Instrument="DMC: drums + bass"
				Note Time="2" Value="F#3" Duration="2" Instrument="DMC: drums + bass"
				Note Time="4" Value="F#3" Duration="2" Instrument="DMC: drums + bass"
				Note Time="6" Value="F#3" Duration="2" Instrument="DMC: drums + bass"
				Note Time="8" Value="E5" Duration="2" Instrument="DMC: drums + bass"
				Note Time="10" Value="F#3" Duration="2" Instrument="DMC: drums + bass"
				Note Time="12" Value="F#3" Duration="2" Instrument="DMC: drums + bass"
				Note Time="14" Value="F#3" Duration="2" Instrument="DMC: drums + bass"
				Note Time="16" Value="E5" Duration="2" Instrument="DMC: drums + bass"
				Note Time="18" Value="G#3" Duration="2" Instrument="DMC: drums + bass"
				Note Time="20" Value="G#3" Duration="2" Instrument="DMC: drums + bass"
				Note Time="22" Value="G#3" Duration="2" Instrument="DMC: drums + bass"
				Note Time="24" Value="E5" Duration="2" Instrument="DMC: drums + bass"
				Note Time="26" Value="G#3" Duration="2" Instrument="DMC: drums + bass"
				Note Time="28" Value="G#3" Duration="2" Instrument="DMC: drums + bass"
				Note Time="30" Value="G#3" Duration="2" Instrument="DMC: drums + bass"
			Pattern Name="0D" Color="a657d6"
				Note Time="0" Value="E5" Duration="2" Instrument="DMC: drums + bass"
				Note Time="2" Value="E3" Duration="2" Instrument="DMC: drums + bass"
				Note Time="4" Value="E3" Duration="2" Instrument="DMC: drums + bass"
				Note Time="6" Value="E3" Duration="2" Instrument="DMC: drums + bass"
				Note Time="8" Value="E5" Duration="2" Instrument="DMC: drums + bass"
				Note Time="10" Value="E3" Duration="2" Instrument="DMC: drums + bass"
				Note Time="12" Value="E3" Duration="2" Instrument="DMC: drums + bass"
				Note Time="14" Value="E3" Duration="2" Instrument="DMC: drums + bass"
				Note Time="16" Value="E5" Duration="2" Instrument="DMC: drums + bass"
				Note Time="18" Value="F#3" Duration="2" Instrument="DMC: drums + bass"
				Note Time="20" Value="F#3" Duration="2" Instrument="DMC: drums + bass"
				Note Time="22" Value="F#3" Duration="2" Instrument="DMC: drums + bass"
				Note Time="24" Value="E5" Duration="2" Instrument="DMC: drums + bass"
				Note Time="26" Value="F#3" Duration="2" Instrument="DMC: drums + bass"
				Note Time="28" Value="F#3" Duration="2" Instrument="DMC: drums + bass"
				Note Time="30" Value="F#3" Duration="2" Instrument="DMC: drums + bass"
			Pattern Name="0F" Color="ff7f51"
				Note Time="0" Value="E5" Duration="2" Instrument="DMC: drums + bass"
				Note Time="2" Value="G3" Duration="2" Instrument="DMC: drums + bass"
				Note Time="4" Value="G3" Duration="2" Instrument="DMC: drums + bass"
				Note Time="6" Value="G3" Duration="2" Instrument="DMC: drums + bass"
				Note Time="8" Value="E5" Duration="2" Instrument="DMC: drums + bass"
				Note Time="10" Value="G3" Duration="2" Instrument="DMC: drums + bass"
				Note Time="12" Value="G3" Duration="2" Instrument="DMC: drums + bass"
				Note Time="14" Value="G3" Duration="2" Instrument="DMC: drums + bass"
				Note Time="16" Value="E5" Duration="2" Instrument="DMC: drums + bass"
				Note Time="18" Value="A3" Duration="2" Instrument="DMC: drums + bass"
				Note Time="20" Value="A3" Duration="2" Instrument="DMC: drums + bass"
				Note Time="22" Value="A3" Duration="2" Instrument="DMC: drums + bass"
				Note Time="24" Value="F5" Duration="2" Instrument="DMC: drums + bass"
				Note Time="26" Value="A3" Duration="2" Instrument="DMC: drums + bass"
				Note Time="28" Value="F5" Duration="2" Instrument="DMC: drums + bass"
				Note Time="30" Value="A3" Duration="10" Instrument="DMC: drums + bass"
			Pattern Name="10" Color="ffffb1"
				Note Time="0" Value="E5" Duration="2" Instrument="DMC: drums + bass"
				Note Time="2" Value="D3" Duration="2" Instrument="DMC: drums + bass"
				Note Time="4" Value="D3" Duration="2" Instrument="DMC: drums + bass"
				Note Time="6" Value="D3" Duration="2" Instrument="DMC: drums + bass"
				Note Time="8" Value="F5" Duration="2" Instrument="DMC: drums + bass"
				Note Time="10" Value="D3" Duration="2" Instrument="DMC: drums + bass"
				Note Time="12" Value="D3" Duration="2" Instrument="DMC: drums + bass"
				Note Time="14" Value="D3" Duration="2" Instrument="DMC: drums + bass"
				Note Time="16" Value="E5" Duration="2" Instrument="DMC: drums + bass"
				Note Time="18" Value="E3" Duration="2" Instrument="DMC: drums + bass"
				Note Time="20" Value="E3" Duration="2" Instrument="DMC: drums + bass"
				Note Time="22" Value="E3" Duration="2" Instrument="DMC: drums + bass"
				Note Time="24" Value="F5" Duration="2" Instrument="DMC: drums + bass"
				Note Time="26" Value="E3" Duration="2" Instrument="DMC: drums + bass"
				Note Time="28" Value="E3" Duration="2" Instrument="DMC: drums + bass"
				Note Time="30" Value="E3" Duration="2" Instrument="DMC: drums + bass"
			Pattern Name="12" Color="62ffff"
				Note Time="0" Value="E5" Duration="2" Instrument="DMC: drums + bass"
				Note Time="2" Value="F3" Duration="2" Instrument="DMC: drums + bass"
				Note Time="4" Value="F3" Duration="2" Instrument="DMC: drums + bass"
				Note Time="6" Value="F3" Duration="2" Instrument="DMC: drums + bass"
				Note Time="8" Value="F5" Duration="2" Instrument="DMC: drums + bass"
				Note Time="10" Value="F3" Duration="2" Instrument="DMC: drums + bass"
				Note Time="12" Value="F3" Duration="2" Instrument="DMC: drums + bass"
				Note Time="14" Value="F3" Duration="2" Instrument="DMC: drums + bass"
				Note Time="16" Value="E5" Duration="2" Instrument="DMC: drums + bass"
				Note Time="18" Value="G3" Duration="2" Instrument="DMC: drums + bass"
				Note Time="20" Value="G3" Duration="2" Instrument="DMC: drums + bass"
				Note Time="22" Value="G3" Duration="2" Instrument="DMC: drums + bass"
				Note Time="24" Value="F5" Duration="2" Instrument="DMC: drums + bass"
				Note Time="26" Value="G3" Duration="2" Instrument="DMC: drums + bass"
				Note Time="28" Value="G3" Duration="2" Instrument="DMC: drums + bass"
				Note Time="30" Value="G3" Duration="2" Instrument="DMC: drums + bass"
			Pattern Name="13" Color="a376f3"
				Note Time="0" Value="E5" Duration="2" Instrument="DMC: drums + bass"
				Note Time="2" Value="C3" Duration="2" Instrument="DMC: drums + bass"
				Note Time="4" Value="C3" Duration="2" Instrument="DMC: drums + bass"
				Note Time="6" Value="C3" Duration="2" Instrument="DMC: drums + bass"
				Note Time="8" Value="F5" Duration="2" Instrument="DMC: drums + bass"
				Note Time="10" Value="C3" Duration="2" Instrument="DMC: drums + bass"
				Note Time="12" Value="C3" Duration="2" Instrument="DMC: drums + bass"
				Note Time="14" Value="C3" Duration="2" Instrument="DMC: drums + bass"
				Note Time="16" Value="E5" Duration="2" Instrument="DMC: drums + bass"
				Note Time="18" Value="D3" Duration="2" Instrument="DMC: drums + bass"
				Note Time="20" Value="D3" Duration="2" Instrument="DMC: drums + bass"
				Note Time="22" Value="D3" Duration="2" Instrument="DMC: drums + bass"
				Note Time="24" Value="F5" Duration="2" Instrument="DMC: drums + bass"
				Note Time="26" Value="D3" Duration="2" Instrument="DMC: drums + bass"
				Note Time="28" Value="D3" Duration="2" Instrument="DMC: drums + bass"
				Note Time="30" Value="D3" Duration="2" Instrument="DMC: drums + bass"
			Pattern Name="14" Color="b59184"
				Note Time="0" Value="E5" Duration="2" Instrument="DMC: drums + bass"
				Note Time="2" Value="E3" Duration="2" Instrument="DMC: drums + bass"
				Note Time="4" Value="E3" Duration="2" Instrument="DMC: drums + bass"
				Note Time="6" Value="E3" Duration="2" Instrument="DMC: drums + bass"
				Note Time="8" Value="F5" Duration="2" Instrument="DMC: drums + bass"
				Note Time="10" Value="E3" Duration="2" Instrument="DMC: drums + bass"
				Note Time="12" Value="E3" Duration="2" Instrument="DMC: drums + bass"
				Note Time="14" Value="E3" Duration="2" Instrument="DMC: drums + bass"
				Note Time="16" Value="E5" Duration="2" Instrument="DMC: drums + bass"
				Note Time="18" Value="E3" Duration="2" Instrument="DMC: drums + bass"
				Note Time="20" Value="E3" Duration="2" Instrument="DMC: drums + bass"
				Note Time="22" Value="E3" Duration="2" Instrument="DMC: drums + bass"
				Note Time="24" Value="F5" Duration="2" Instrument="DMC: drums + bass"
				Note Time="26" Value="E3" Duration="2" Instrument="DMC: drums + bass"
				Note Time="28" Value="E3" Duration="2" Instrument="DMC: drums + bass"
				Note Time="30" Value="E3" Duration="2" Instrument="DMC: drums + bass"
			Pattern Name="15" Color="ffff71"
				Note Time="0" Value="E5" Duration="2" Instrument="DMC: drums + bass"
				Note Time="2" Value="D#3" Duration="2" Instrument="DMC: drums + bass"
				Note Time="4" Value="D#3" Duration="2" Instrument="DMC: drums + bass"
				Note Time="6" Value="D#3" Duration="2" Instrument="DMC: drums + bass"
				Note Time="10" Value="D#3" Duration="2" Instrument="DMC: drums + bass"
				Note Time="12" Value="D#3" Duration="2" Instrument="DMC: drums + bass"
				Note Time="14" Value="D#3" Duration="2" Instrument="DMC: drums + bass"
				Note Time="16" Value="E5" Duration="2" Instrument="DMC: drums + bass"
				Note Time="18" Value="F3" Duration="2" Instrument="DMC: drums + bass"
				Note Time="20" Value="F3" Duration="2" Instrument="DMC: drums + bass"
				Note Time="22" Value="F3" Duration="2" Instrument="DMC: drums + bass"
				Note Time="24" Value="F5" Duration="2" Instrument="DMC: drums + bass"
				Note Time="26" Value="F3" Duration="2" Instrument="DMC: drums + bass"
				Note Time="28" Value="F5" Duration="2" Instrument="DMC: drums + bass"
				Note Time="30" Value="F5" Duration="2" Instrument="DMC: drums + bass"
			PatternInstance Time="2" Pattern="01"
			PatternInstance Time="3" Pattern="01"
			PatternInstance Time="4" Pattern="04"
			PatternInstance Time="5" Pattern="04"
			PatternInstance Time="6" Pattern="02"
			PatternInstance Time="7" Pattern="03"
			PatternInstance Time="8" Pattern="04"
			PatternInstance Time="9" Pattern="04"
			PatternInstance Time="10" Pattern="05"
			PatternInstance Time="11" Pattern="03"
			PatternInstance Time="12" Pattern="04"
			PatternInstance Time="13" Pattern="04"
			PatternInstance Time="14" Pattern="02"
			PatternInstance Time="15" Pattern="06"
			PatternInstance Time="16" Pattern="07"
			PatternInstance Time="17" Pattern="08"
			PatternInstance Time="18" Pattern="09"
			PatternInstance Time="19" Pattern="0A"
			PatternInstance Time="20" Pattern="07"
			PatternInstance Time="21" Pattern="08"
			PatternInstance Time="22" Pattern="09"
			PatternInstance Time="23" Pattern="0A"
			PatternInstance Time="24" Pattern="07"
			PatternInstance Time="25" Pattern="08"
			PatternInstance Time="26" Pattern="09"
			PatternInstance Time="27" Pattern="0A"
			PatternInstance Time="28" Pattern="07"
			PatternInstance Time="29" Pattern="08"
			PatternInstance Time="30" Pattern="09"
			PatternInstance Time="31" Pattern="06"
			PatternInstance Time="32" Pattern="07"
			PatternInstance Time="33" Pattern="08"
			PatternInstance Time="34" Pattern="09"
			PatternInstance Time="35" Pattern="0A"
			PatternInstance Time="36" Pattern="07"
			PatternInstance Time="37" Pattern="08"
			PatternInstance Time="38" Pattern="09"
			PatternInstance Time="39" Pattern="0A"
			PatternInstance Time="40" Pattern="07"
			PatternInstance Time="41" Pattern="08"
			PatternInstance Time="42" Pattern="09"
			PatternInstance Time="43" Pattern="0A"
			PatternInstance Time="44" Pattern="07"
			PatternInstance Time="45" Pattern="08"
			PatternInstance Time="46" Pattern="09"
			PatternInstance Time="47" Pattern="06"
			PatternInstance Time="48" Pattern="0B"
			PatternInstance Time="49" Pattern="04"
			PatternInstance Time="50" Pattern="0B"
			PatternInstance Time="51" Pattern="04"
			PatternInstance Time="52" Pattern="0B"
			PatternInstance Time="53" Pattern="04"
			PatternInstance Time="54" Pattern="0B"
			PatternInstance Time="55" Pattern="0D"
			PatternInstance Time="56" Pattern="0D"
			PatternInstance Time="57" Pattern="05"
			PatternInstance Time="58" Pattern="0D"
			PatternInstance Time="59" Pattern="05"
			PatternInstance Time="60" Pattern="0D"
			PatternInstance Time="61" Pattern="05"
			PatternInstance Time="62" Pattern="0D"
			PatternInstance Time="63" Pattern="0F"
			PatternInstance Time="64" Pattern="10"
			PatternInstance Time="65" Pattern="08"
			PatternInstance Time="66" Pattern="10"
			PatternInstance Time="67" Pattern="08"
			PatternInstance Time="68" Pattern="10"
			PatternInstance Time="69" Pattern="08"
			PatternInstance Time="70" Pattern="10"
			PatternInstance Time="71" Pattern="12"
			PatternInstance Time="72" Pattern="13"
			PatternInstance Time="73" Pattern="14"
			PatternInstance Time="74" Pattern="13"
			PatternInstance Time="75" Pattern="14"
			PatternInstance Time="76" Pattern="13"
			PatternInstance Time="77" Pattern="14"
			PatternInstance Time="78" Pattern="13"
			PatternInstance Time="79" Pattern="15"
			PatternInstance Time="80" Pattern="07"
			PatternInstance Time="81" Pattern="08"
			PatternInstance Time="82" Pattern="09"
			PatternInstance Time="83" Pattern="0A"
			PatternInstance Time="84" Pattern="07"
			PatternInstance Time="85" Pattern="08"
			PatternInstance Time="86" Pattern="09"
			PatternInstance Time="87" Pattern="0A"
			PatternInstance Time="88" Pattern="07"
			PatternInstance Time="89" Pattern="08"
			PatternInstance Time="90" Pattern="09"
			PatternInstance Time="91" Pattern="0A"
			PatternInstance Time="92" Pattern="07"
			PatternInstance Time="93" Pattern="08"
			PatternInstance Time="94" Pattern="09"
			PatternInstance Time="95" Pattern="06"
			PatternInstance Time="96" Pattern="07"
			PatternInstance Time="97" Pattern="08"
			PatternInstance Time="98" Pattern="09"
			PatternInstance Time="99" Pattern="0A"
			PatternInstance Time="100" Pattern="07"
			PatternInstance Time="101" Pattern="08"
			PatternInstance Time="102" Pattern="09"
			PatternInstance Time="103" Pattern="0A"
			PatternInstance Time="104" Pattern="07"
			PatternInstance Time="105" Pattern="08"
			PatternInstance Time="106" Pattern="09"
			PatternInstance Time="107" Pattern="0A"
			PatternInstance Time="108" Pattern="07"
			PatternInstance Time="109" Pattern="08"
			PatternInstance Time="110" Pattern="09"
			PatternInstance Time="111" Pattern="06"
			PatternInstance Time="112" Pattern="0B"
			PatternInstance Time="113" Pattern="04"
			PatternInstance Time="114" Pattern="0B"
			PatternInstance Time="115" Pattern="04"
			PatternInstance Time="116" Pattern="0B"
			PatternInstance Time="117" Pattern="04"
			PatternInstance Time="118" Pattern="0B"
			PatternInstance Time="119" Pattern="0D"
			PatternInstance Time="120" Pattern="0D"
			PatternInstance Time="121" Pattern="05"
			PatternInstance Time="122" Pattern="0D"
			PatternInstance Time="123" Pattern="05"
			PatternInstance Time="124" Pattern="0D"
			PatternInstance Time="125" Pattern="05"
			PatternInstance Time="126" Pattern="0D"
			PatternInstance Time="127" Pattern="0F"
	Song Name="Menu Theme" Color="a0f1ff" Folder="Official music used in the game" Length="4" LoopPoint="0" PatternLength="64" BeatLength="4" FamiTrackerTempo="128" FamiTrackerSpeed="6"
		Channel Type="Square1"
			Pattern Name="01" Color="d8ffa1"
				Note Time="0" Value="C2" Duration="1" Instrument="menu acc" Volume="9" VibratoSpeed="0" VibratoDepth="0" DutyCycle="2" NoteDelay="2"
				Note Time="1" Value="C2" Duration="1" Instrument="menu acc" NoteDelay="2"
				Note Time="2" Value="C3" Duration="1" Instrument="menu acc" NoteDelay="2"
				Note Time="3" Value="C2" Duration="1" Instrument="menu acc" NoteDelay="2"
				Note Time="4" Value="C2" Duration="2" Instrument="menu acc" NoteDelay="2"
				Note Time="6" Value="C3" Duration="1" Instrument="menu acc" NoteDelay="2"
				Note Time="7" Value="C4" Duration="2" Instrument="menu acc" NoteDelay="2"
				Note Time="9" Value="C3" Duration="1" Instrument="menu acc" Volume="4" NoteDelay="2"
				Note Time="10" Value="C4" Duration="2" Instrument="menu acc" NoteDelay="2"
				Note Time="12" Value="C3" Duration="1" Instrument="menu acc" Volume="2" NoteDelay="2"
				Note Time="13" Value="C4" Duration="2" Instrument="menu acc" NoteDelay="2"
				Note Time="15" Value="C3" Duration="1" Instrument="menu acc" Volume="1" NoteDelay="2"
				Note Time="16" Value="G2" Duration="1" Instrument="menu acc" Volume="9" NoteDelay="2"
				Note Time="17" Value="G2" Duration="1" Instrument="menu acc" NoteDelay="2"
				Note Time="18" Value="G3" Duration="1" Instrument="menu acc" NoteDelay="2"
				Note Time="19" Value="G2" Duration="1" Instrument="menu acc" NoteDelay="2"
				Note Time="20" Value="G2" Duration="2" Instrument="menu acc" NoteDelay="2"
				Note Time="22" Value="G3" Duration="1" Instrument="menu acc" NoteDelay="2"
				Note Time="23" Value="G4" Duration="2" Instrument="menu acc" NoteDelay="2"
				Note Time="25" Value="G3" Duration="1" Instrument="menu acc" Volume="4" NoteDelay="2"
				Note Time="26" Value="G4" Duration="2" Instrument="menu acc" NoteDelay="2"
				Note Time="28" Value="G3" Duration="1" Instrument="menu acc" Volume="2" NoteDelay="2"
				Note Time="29" Value="G4" Duration="2" Instrument="menu acc" NoteDelay="2"
				Note Time="31" Value="G3" Duration="1" Instrument="menu acc" Volume="1" NoteDelay="2"
				Note Time="32" Value="F2" Duration="1" Instrument="menu acc" Volume="9" NoteDelay="2"
				Note Time="33" Value="F2" Duration="1" Instrument="menu acc" NoteDelay="2"
				Note Time="34" Value="F3" Duration="1" Instrument="menu acc" NoteDelay="2"
				Note Time="35" Value="F2" Duration="1" Instrument="menu acc" NoteDelay="2"
				Note Time="36" Value="F2" Duration="2" Instrument="menu acc" NoteDelay="2"
				Note Time="38" Value="F3" Duration="1" Instrument="menu acc" NoteDelay="2"
				Note Time="39" Value="F4" Duration="2" Instrument="menu acc" NoteDelay="2"
				Note Time="41" Value="F2" Duration="1" Instrument="menu acc" NoteDelay="2"
				Note Time="42" Value="F3" Duration="1" Instrument="menu acc" NoteDelay="2"
				Note Time="43" Value="F2" Duration="1" Instrument="menu acc" NoteDelay="2"
				Note Time="44" Value="F3" Duration="1" Instrument="menu acc" Volume="2" NoteDelay="2"
				Note Time="45" Value="F4" Duration="2" Instrument="menu acc" NoteDelay="2"
				Note Time="48" Value="D#2" Duration="1" Instrument="menu acc" Volume="9" NoteDelay="2"
				Note Time="49" Value="D#2" Duration="1" Instrument="menu acc" NoteDelay="2"
				Note Time="50" Value="D#3" Duration="1" Instrument="menu acc" NoteDelay="2"
				Note Time="51" Value="D#2" Duration="1" Instrument="menu acc" NoteDelay="2"
				Note Time="52" Value="D#2" Duration="2" Instrument="menu acc" NoteDelay="2"
				Note Time="54" Value="D#3" Duration="1" Instrument="menu acc" NoteDelay="2"
				Note Time="55" Value="D#4" Duration="2" Instrument="menu acc" NoteDelay="2"
				Note Time="56" NoteDelay="2"
				Note Time="57" Value="D2" Duration="1" Instrument="menu acc" NoteDelay="2"
				Note Time="58" Value="D3" Duration="1" Instrument="menu acc" NoteDelay="2"
				Note Time="59" Value="D2" Duration="3" Instrument="menu acc" NoteDelay="2"
				Note Time="62" Value="D3" Duration="2" Instrument="menu acc" NoteDelay="2"
			Pattern Name="02" Color="3fe5ff"
				Note Time="0" Value="C2" Duration="1" Instrument="menu acc" Volume="9" DutyCycle="2" NoteDelay="2"
				Note Time="1" Value="C2" Duration="1" Instrument="menu acc" NoteDelay="2"
				Note Time="2" Value="C3" Duration="1" Instrument="menu acc" NoteDelay="2"
				Note Time="3" Value="C2" Duration="1" Instrument="menu acc" NoteDelay="2"
				Note Time="4" Value="C2" Duration="2" Instrument="menu acc" NoteDelay="2"
				Note Time="6" Value="C3" Duration="1" Instrument="menu acc" NoteDelay="2"
				Note Time="7" Value="C4" Duration="2" Instrument="menu acc" NoteDelay="2"
				Note Time="9" Value="C3" Duration="1" Instrument="menu acc" Volume="4" NoteDelay="2"
				Note Time="10" Value="C4" Duration="2" Instrument="menu acc" NoteDelay="2"
				Note Time="12" Value="C3" Duration="1" Instrument="menu acc" Volume="2" NoteDelay="2"
				Note Time="13" Value="C4" Duration="2" Instrument="menu acc" NoteDelay="2"
				Note Time="15" Value="C3" Duration="1" Instrument="menu acc" Volume="1" NoteDelay="2"
				Note Time="16" Value="G2" Duration="1" Instrument="menu acc" Volume="9" NoteDelay="2"
				Note Time="17" Value="G2" Duration="1" Instrument="menu acc" NoteDelay="2"
				Note Time="18" Value="G3" Duration="1" Instrument="menu acc" NoteDelay="2"
				Note Time="19" Value="G2" Duration="1" Instrument="menu acc" NoteDelay="2"
				Note Time="20" Value="G2" Duration="2" Instrument="menu acc" NoteDelay="2"
				Note Time="22" Value="G3" Duration="1" Instrument="menu acc" NoteDelay="2"
				Note Time="23" Value="G4" Duration="2" Instrument="menu acc" NoteDelay="2"
				Note Time="25" Value="G3" Duration="1" Instrument="menu acc" Volume="4" NoteDelay="2"
				Note Time="26" Value="G4" Duration="2" Instrument="menu acc" NoteDelay="2"
				Note Time="28" Value="G3" Duration="1" Instrument="menu acc" Volume="2" NoteDelay="2"
				Note Time="29" Value="G4" Duration="2" Instrument="menu acc" NoteDelay="2"
				Note Time="31" Value="G3" Duration="1" Instrument="menu acc" Volume="1" NoteDelay="2"
				Note Time="32" Value="D#2" Duration="1" Instrument="menu acc" Volume="9" NoteDelay="2"
				Note Time="33" Value="D#2" Duration="1" Instrument="menu acc" NoteDelay="2"
				Note Time="34" Value="D#3" Duration="1" Instrument="menu acc" NoteDelay="2"
				Note Time="35" Value="D#2" Duration="1" Instrument="menu acc" NoteDelay="2"
				Note Time="36" Value="D#2" Duration="2" Instrument="menu acc" NoteDelay="2"
				Note Time="38" Value="D#3" Duration="1" Instrument="menu acc" NoteDelay="2"
				Note Time="39" Value="D#4" Duration="2" Instrument="menu acc" NoteDelay="2"
				Note Time="41" Value="D#2" Duration="1" Instrument="menu acc" NoteDelay="2"
				Note Time="42" Value="D#3" Duration="1" Instrument="menu acc" NoteDelay="2"
				Note Time="43" Value="D#2" Duration="1" Instrument="menu acc" NoteDelay="2"
				Note Time="44" Value="D#3" Duration="1" Instrument="menu acc" Volume="2" NoteDelay="2"
				Note Time="45" Value="D#4" Duration="2" Instrument="menu acc" NoteDelay="2"
				Note Time="48" Value="D2" Duration="16" Release="14" Instrument="blank string" Volume="9" VibratoSpeed="5" VibratoDepth="5" DutyCycle="2"
			PatternInstance Time="0" Pattern="01"
			PatternInstance Time="1" Pattern="01"
			PatternInstance Time="2" Pattern="01"
			PatternInstance Time="3" Pattern="02"
		Channel Type="Square2"
			Pattern Name="01" Color="ca60e6"
				Note Time="0" Value="C2" Duration="16" Release="13" Instrument="shift string" Volume="10" VibratoSpeed="7" VibratoDepth="7" DutyCycle="1"
				Note Time="16" Value="G2" Duration="16" Release="13" Instrument="shift string"
				Note Time="32" Value="F2" Duration="16" Release="13" Instrument="shift string"
				Note Time="48" Value="D#2" Duration="8" Release="7" Instrument="shift string"
				Note Time="56" Value="D2" Duration="8" Release="7" Instrument="shift string"
			Pattern Name="02" Color="ff8d5a"
				Note Time="0" Value="C2" Duration="16" Release="14" Instrument="shift string" Volume="10" VibratoSpeed="7" VibratoDepth="7" DutyCycle="1"
				Note Time="16" Value="G2" Duration="16" Release="14" Instrument="shift string"
				Note Time="32" Value="D#2" Duration="16" Release="14" Instrument="shift string"
				Note Time="48" Value="D2" Duration="16" Release="14" Instrument="blank string" VibratoSpeed="1" VibratoDepth="2" DutyCycle="3"
			PatternInstance Time="0" Pattern="01"
			PatternInstance Time="1" Pattern="01"
			PatternInstance Time="2" Pattern="01"
			PatternInstance Time="3" Pattern="02"
		Channel Type="Triangle"
			Pattern Name="01" Color="ebf067"
				Note Time="0" Value="C3" Duration="1" Instrument="triangle pluck 3"
				Note Time="1" Value="C3" Duration="1" Instrument="triangle pluck 3"
				Note Time="2" Value="C4" Duration="1" Instrument="triangle pluck 3"
				Note Time="3" Value="C3" Duration="1" Instrument="triangle pluck 3"
				Note Time="4" Value="C3" Duration="1" Instrument="triangle pluck 3"
				Note Time="6" Value="C4" Duration="1" Instrument="triangle pluck 3"
				Note Time="7" Value="C5" Duration="1" Instrument="triangle pluck 3"
				Note Time="16" Value="G3" Duration="1" Instrument="triangle pluck 3"
				Note Time="17" Value="G3" Duration="1" Instrument="triangle pluck 3"
				Note Time="18" Value="G4" Duration="1" Instrument="triangle pluck 3"
				Note Time="19" Value="G3" Duration="1" Instrument="triangle pluck 3"
				Note Time="20" Value="G3" Duration="1" Instrument="triangle pluck 3"
				Note Time="22" Value="G4" Duration="1" Instrument="triangle pluck 3"
				Note Time="23" Value="G5" Duration="1" Instrument="triangle pluck 3"
				Note Time="32" Value="F3" Duration="1" Instrument="triangle pluck 3"
				Note Time="33" Value="F3" Duration="1" Instrument="triangle pluck 3"
				Note Time="34" Value="F4" Duration="1" Instrument="triangle pluck 3"
				Note Time="35" Value="F3" Duration="1" Instrument="triangle pluck 3"
				Note Time="36" Value="F3" Duration="1" Instrument="triangle pluck 3"
				Note Time="38" Value="F4" Duration="1" Instrument="triangle pluck 3"
				Note Time="39" Value="F5" Duration="1" Instrument="triangle pluck 3"
				Note Time="41" Value="F3" Duration="1" Instrument="triangle pluck 3"
				Note Time="42" Value="F4" Duration="1" Instrument="triangle pluck 3"
				Note Time="43" Value="F3" Duration="1" Instrument="triangle pluck 3"
				Note Time="48" Value="D#3" Duration="1" Instrument="triangle pluck 3"
				Note Time="49" Value="D#3" Duration="1" Instrument="triangle pluck 3"
				Note Time="50" Value="D#4" Duration="1" Instrument="triangle pluck 3"
				Note Time="51" Value="D#3" Duration="1" Instrument="triangle pluck 3"
				Note Time="52" Value="D#3" Duration="1" Instrument="triangle pluck 3"
				Note Time="54" Value="D#4" Duration="1" Instrument="triangle pluck 3"
				Note Time="55" Value="D#5" Duration="1" Instrument="triangle pluck 3"
				Note Time="57" Value="D3" Duration="1" Instrument="triangle pluck 3"
				Note Time="58" Value="D4" Duration="1" Instrument="triangle pluck 3"
				Note Time="59" Value="D3" Duration="1" Instrument="triangle pluck 3"
				Note Time="62" Value="D4" Duration="1" Instrument="triangle pluck 3"
			Pattern Name="02" Color="3cbfcb"
				Note Time="0" Value="C3" Duration="1" Instrument="triangle pluck 3"
				Note Time="1" Value="C3" Duration="1" Instrument="triangle pluck 3"
				Note Time="2" Value="C4" Duration="1" Instrument="triangle pluck 3"
				Note Time="3" Value="C3" Duration="1" Instrument="triangle pluck 3"
				Note Time="4" Value="C3" Duration="1" Instrument="triangle pluck 3"
				Note Time="6" Value="C4" Duration="1" Instrument="triangle pluck 3"
				Note Time="7" Value="C5" Duration="1" Instrument="triangle pluck 3"
				Note Time="16" Value="G3" Duration="1" Instrument="triangle pluck 3"
				Note Time="17" Value="G3" Duration="1" Instrument="triangle pluck 3"
				Note Time="18" Value="G4" Duration="1" Instrument="triangle pluck 3"
				Note Time="19" Value="G3" Duration="1" Instrument="triangle pluck 3"
				Note Time="20" Value="G3" Duration="1" Instrument="triangle pluck 3"
				Note Time="22" Value="G4" Duration="1" Instrument="triangle pluck 3"
				Note Time="23" Value="G5" Duration="1" Instrument="triangle pluck 3"
				Note Time="32" Value="D#3" Duration="1" Instrument="triangle pluck 3"
				Note Time="33" Value="D#3" Duration="1" Instrument="triangle pluck 3"
				Note Time="34" Value="D#4" Duration="1" Instrument="triangle pluck 3"
				Note Time="35" Value="D#3" Duration="1" Instrument="triangle pluck 3"
				Note Time="36" Value="D#3" Duration="1" Instrument="triangle pluck 3"
				Note Time="38" Value="D#4" Duration="1" Instrument="triangle pluck 3"
				Note Time="39" Value="D#5" Duration="1" Instrument="triangle pluck 3"
				Note Time="41" Value="D#3" Duration="1" Instrument="triangle pluck 3"
				Note Time="42" Value="D#4" Duration="1" Instrument="triangle pluck 3"
				Note Time="43" Value="D#3" Duration="1" Instrument="triangle pluck 3"
			PatternInstance Time="0" Pattern="01"
			PatternInstance Time="1" Pattern="01"
			PatternInstance Time="2" Pattern="01"
			PatternInstance Time="3" Pattern="02"
		Channel Type="Noise"
			Pattern Name="01" Color="d1b1ff"
				Note Time="0" Value="G3" Duration="2" Instrument="hat" Volume="12"
				Note Time="2" Value="G#3" Duration="2" Instrument="hat"
				Note Time="4" Value="F3" Duration="1" Instrument="hat" Volume="10"
				Note Time="5" Value="G#3" Duration="1" Instrument="hat" Volume="12"
				Note Time="6" Value="A#3" Duration="1" Instrument="hat" Volume="10"
				Note Time="7" Value="G#3" Duration="2" Instrument="hat" Volume="10"
				Note Time="9" Value="G#3" Duration="2" Instrument="hat" Volume="12"
				Note Time="11" Value="F#3" Duration="1" Instrument="hat" Volume="10"
				Note Time="12" Value="G#3" Duration="2" Instrument="hat" Volume="12"
				Note Time="14" Value="G#3" Duration="1" Instrument="hat" Volume="8"
				Note Time="15" Value="G#3" Duration="1" Instrument="hat" Volume="10"
				Note Time="16" Value="A#3" Duration="2" Instrument="hat"
				Note Time="18" Value="G#3" Duration="2" Instrument="hat" Volume="12"
				Note Time="20" Value="F3" Duration="1" Instrument="hat" Volume="10"
				Note Time="21" Value="G#3" Duration="1" Instrument="hat" Volume="12"
				Note Time="22" Value="D#3" Duration="1" Instrument="hat" Volume="10"
				Note Time="23" Value="F3" Duration="2" Instrument="hat" Volume="10"
				Note Time="25" Value="E3" Duration="2" Instrument="hat" Volume="12"
				Note Time="27" Value="F#3" Duration="1" Instrument="hat" Volume="10"
				Note Time="28" Value="G#3" Duration="2" Instrument="hat" Volume="10"
				Note Time="30" Value="F3" Duration="1" Instrument="hat" Volume="12"
				Note Time="31" Value="A#3" Duration="1" Instrument="hat" Volume="8"
				Note Time="32" Value="G3" Duration="2" Instrument="hat" Volume="12"
				Note Time="34" Value="G#3" Duration="2" Instrument="hat"
				Note Time="36" Value="F3" Duration="1" Instrument="hat" Volume="10"
				Note Time="37" Value="G#3" Duration="1" Instrument="hat" Volume="12"
				Note Time="38" Value="A#3" Duration="1" Instrument="hat" Volume="10"
				Note Time="39" Value="G#3" Duration="2" Instrument="hat" Volume="10"
				Note Time="41" Value="G#3" Duration="2" Instrument="hat" Volume="12"
				Note Time="43" Value="F#3" Duration="1" Instrument="hat" Volume="10"
				Note Time="44" Value="G#3" Duration="2" Instrument="hat" Volume="12"
				Note Time="46" Value="G#3" Duration="1" Instrument="hat" Volume="8"
				Note Time="47" Value="G#3" Duration="1" Instrument="hat" Volume="10"
				Note Time="48" Value="A#3" Duration="2" Instrument="hat"
				Note Time="50" Value="G#3" Duration="2" Instrument="hat" Volume="12"
				Note Time="52" Value="F3" Duration="1" Instrument="hat" Volume="10"
				Note Time="53" Value="G#3" Duration="1" Instrument="hat" Volume="12"
				Note Time="54" Value="D#3" Duration="1" Instrument="hat" Volume="10"
				Note Time="55" Value="F3" Duration="2" Instrument="hat" Volume="10"
				Note Time="57" Value="E3" Duration="2" Instrument="hat" Volume="12"
				Note Time="59" Value="F#3" Duration="1" Instrument="hat" Volume="10"
				Note Time="60" Value="G#3" Duration="2" Instrument="hat" Volume="10"
				Note Time="62" Value="F3" Duration="1" Instrument="hat" Volume="12"
				Note Time="63" Value="A#3" Duration="1" Instrument="hat" Volume="8"
			Pattern Name="02" Color="ddc4bb"
				Note Time="0" Value="G3" Duration="2" Instrument="hat" Volume="12"
				Note Time="2" Value="G#3" Duration="2" Instrument="hat"
				Note Time="4" Value="F3" Duration="1" Instrument="hat" Volume="10"
				Note Time="5" Value="G#3" Duration="1" Instrument="hat" Volume="12"
				Note Time="6" Value="A#3" Duration="1" Instrument="hat" Volume="10"
				Note Time="7" Value="G#3" Duration="2" Instrument="hat" Volume="10"
				Note Time="9" Value="G#3" Duration="2" Instrument="hat" Volume="12"
				Note Time="11" Value="F#3" Duration="1" Instrument="hat" Volume="10"
				Note Time="12" Value="G#3" Duration="2" Instrument="hat" Volume="12"
				Note Time="14" Value="G#3" Duration="1" Instrument="hat" Volume="8"
				Note Time="15" Value="G#3" Duration="1" Instrument="hat" Volume="10"
				Note Time="16" Value="A#3" Duration="2" Instrument="hat"
				Note Time="18" Value="G#3" Duration="2" Instrument="hat" Volume="12"
				Note Time="20" Value="F3" Duration="1" Instrument="hat" Volume="10"
				Note Time="21" Value="G#3" Duration="1" Instrument="hat" Volume="12"
				Note Time="22" Value="D#3" Duration="1" Instrument="hat" Volume="10"
				Note Time="23" Value="F3" Duration="2" Instrument="hat" Volume="10"
				Note Time="25" Value="E3" Duration="2" Instrument="hat" Volume="12"
				Note Time="27" Value="F#3" Duration="1" Instrument="hat" Volume="10"
				Note Time="28" Value="G#3" Duration="2" Instrument="hat" Volume="10"
				Note Time="30" Value="F3" Duration="1" Instrument="hat" Volume="12"
				Note Time="31" Value="A#3" Duration="1" Instrument="hat" Volume="8"
				Note Time="32" Value="G3" Duration="2" Instrument="hat" Volume="12"
				Note Time="34" Value="G#3" Duration="2" Instrument="hat"
				Note Time="36" Value="F3" Duration="1" Instrument="hat" Volume="10"
				Note Time="37" Value="G#3" Duration="1" Instrument="hat" Volume="12"
				Note Time="38" Value="A#3" Duration="1" Instrument="hat" Volume="10"
				Note Time="39" Value="G#3" Duration="2" Instrument="hat" Volume="10"
				Note Time="41" Value="G#3" Duration="2" Instrument="hat" Volume="12"
				Note Time="43" Value="F#3" Duration="1" Instrument="hat" Volume="10"
				Note Time="44" Value="G#3" Duration="2" Instrument="hat" Volume="12"
				Note Time="46" Value="G#3" Duration="1" Instrument="hat" Volume="8"
				Note Time="47" Value="G#3" Duration="1" Instrument="hat" Volume="10"
				Note Time="48" Value="A#3" Duration="2" Instrument="hat"
				Note Time="50" Value="G#3" Duration="2" Instrument="hat" Volume="12"
				Note Time="52" Value="A#3" Duration="6" Instrument="hat" Volume="10"
				Note Time="58" Value="A#3" Duration="6" Instrument="rel hats" Volume="8"
			PatternInstance Time="0" Pattern="01"
			PatternInstance Time="1" Pattern="01"
			PatternInstance Time="2" Pattern="01"
			PatternInstance Time="3" Pattern="02"
		Channel Type="DPCM"
			Pattern Name="01" Color="ffff94"
				Note Time="0" Value="E5" Duration="4" Instrument="DMC: drums + bass" DeltaCounter="65"
				Note Time="4" Value="F5" Duration="2" Instrument="DMC: drums + bass"
				Note Time="6" Value="E5" Duration="3" Instrument="DMC: drums + bass"
				Note Time="9" Value="E5" Duration="1" Instrument="DMC: drums + bass"
				Note Time="10" Value="E5" Duration="2" Instrument="DMC: drums + bass"
				Note Time="12" Value="F5" Duration="4" Instrument="DMC: drums + bass"
				Note Time="16" Value="E5" Duration="2" Instrument="DMC: drums + bass"
				Note Time="18" Value="E5" Duration="2" Instrument="DMC: drums + bass"
				Note Time="20" Value="F5" Duration="2" Instrument="DMC: drums + bass"
				Note Time="22" Value="E5" Duration="1" Instrument="DMC: drums + bass"
				Note Time="23" Value="F5" Duration="2" Instrument="DMC: drums + bass"
				Note Time="25" Value="E5" Duration="1" Instrument="DMC: drums + bass"
				Note Time="26" Value="E5" Duration="2" Instrument="DMC: drums + bass"
				Note Time="28" Value="F5" Duration="1" Instrument="DMC: drums + bass"
				Note Time="29" Value="F5" Duration="1" Instrument="DMC: drums + bass"
				Note Time="30" Value="F5" Duration="1" Instrument="DMC: drums + bass"
				Note Time="31" Value="F5" Duration="1" Instrument="DMC: drums + bass"
				Note Time="32" Value="E5" Duration="4" Instrument="DMC: drums + bass"
				Note Time="36" Value="F5" Duration="2" Instrument="DMC: drums + bass"
				Note Time="38" Value="E5" Duration="3" Instrument="DMC: drums + bass"
				Note Time="41" Value="E5" Duration="1" Instrument="DMC: drums + bass"
				Note Time="42" Value="E5" Duration="2" Instrument="DMC: drums + bass"
				Note Time="44" Value="F5" Duration="4" Instrument="DMC: drums + bass"
				Note Time="48" Value="E5" Duration="2" Instrument="DMC: drums + bass"
				Note Time="50" Value="E5" Duration="2" Instrument="DMC: drums + bass"
				Note Time="52" Value="F5" Duration="2" Instrument="DMC: drums + bass"
				Note Time="54" Value="E5" Duration="1" Instrument="DMC: drums + bass"
				Note Time="55" Value="F5" Duration="2" Instrument="DMC: drums + bass"
				Note Time="57" Value="E5" Duration="1" Instrument="DMC: drums + bass"
				Note Time="58" Value="E5" Duration="2" Instrument="DMC: drums + bass"
				Note Time="60" Value="F5" Duration="1" Instrument="DMC: drums + bass"
				Note Time="61" Value="F5" Duration="1" Instrument="DMC: drums + bass"
				Note Time="62" Value="F5" Duration="1" Instrument="DMC: drums + bass"
				Note Time="63" Value="F5" Duration="1" Instrument="DMC: drums + bass"
			Pattern Name="02" Color="3cd2c4"
				Note Time="0" Value="E5" Duration="4" Instrument="DMC: drums + bass" DeltaCounter="65"
				Note Time="4" Value="F5" Duration="2" Instrument="DMC: drums + bass"
				Note Time="6" Value="E5" Duration="3" Instrument="DMC: drums + bass"
				Note Time="9" Value="E5" Duration="1" Instrument="DMC: drums + bass"
				Note Time="10" Value="E5" Duration="2" Instrument="DMC: drums + bass"
				Note Time="12" Value="F5" Duration="4" Instrument="DMC: drums + bass"
				Note Time="16" Value="E5" Duration="2" Instrument="DMC: drums + bass"
				Note Time="18" Value="E5" Duration="2" Instrument="DMC: drums + bass"
				Note Time="20" Value="F5" Duration="2" Instrument="DMC: drums + bass"
				Note Time="22" Value="E5" Duration="1" Instrument="DMC: drums + bass"
				Note Time="23" Value="F5" Duration="2" Instrument="DMC: drums + bass"
				Note Time="25" Value="E5" Duration="1" Instrument="DMC: drums + bass"
				Note Time="26" Value="E5" Duration="2" Instrument="DMC: drums + bass"
				Note Time="28" Value="F5" Duration="1" Instrument="DMC: drums + bass"
				Note Time="29" Value="F5" Duration="1" Instrument="DMC: drums + bass"
				Note Time="30" Value="F5" Duration="1" Instrument="DMC: drums + bass"
				Note Time="31" Value="F5" Duration="1" Instrument="DMC: drums + bass"
				Note Time="32" Value="E5" Duration="4" Instrument="DMC: drums + bass"
				Note Time="36" Value="F5" Duration="3" Instrument="DMC: drums + bass"
				Note Time="39" Value="E5" Duration="2" Instrument="DMC: drums + bass"
				Note Time="41" Value="E5" Duration="1" Instrument="DMC: drums + bass"
				Note Time="42" Value="E5" Duration="2" Instrument="DMC: drums + bass"
				Note Time="44" Value="F5" Duration="4" Instrument="DMC: drums + bass"
				Note Time="48" Value="E5" Duration="2" Instrument="DMC: drums + bass"
				Note Time="50" Value="E5" Duration="4" Instrument="DMC: drums + bass"
				Note Time="54" Value="E5" Duration="4" Instrument="DMC: drums + bass"
				Note Time="58" Value="E5" Duration="2" Instrument="DMC: drums + bass"
				Note Time="60" Value="E5" Duration="4" Instrument="DMC: drums + bass"
			PatternInstance Time="0" Pattern="01"
			PatternInstance Time="1" Pattern="01"
			PatternInstance Time="2" Pattern="01"
			PatternInstance Time="3" Pattern="02"
	Song Name="The Challenge" Color="5dd2ff" Folder="Official music used in the game" Length="20" LoopPoint="-1" PatternLength="16" BeatLength="4" FamiTrackerTempo="165" FamiTrackerSpeed="6"
		Channel Type="Square1"
			Pattern Name="1" Color="ff579c"
				Note Time="0" Value="F#3" Duration="1" Instrument="endgame lead" Volume="7" DutyCycle="0"
				Note Time="2" Value="F#3" Duration="1" Instrument="endgame lead"
				Note Time="4" Value="G3" Duration="1" Instrument="endgame lead"
				Note Time="6" Value="F#3" Duration="1" Instrument="endgame lead"
				Note Time="8" Value="G3" Duration="1" Instrument="endgame lead"
				Note Time="10" Value="F#3" Duration="1" Instrument="endgame lead"
				Note Time="12" Value="A3" Duration="1" Instrument="endgame lead"
				Note Time="14" Value="B3" Duration="1" Instrument="endgame lead"
			Pattern Name="2" Color="3cf8ff"
				Note Time="0" Value="F#3" Duration="1" Instrument="endgame lead" DutyCycle="3"
				Note Time="2" Value="F#3" Duration="1" Instrument="endgame lead"
				Note Time="4" Value="G3" Duration="1" Instrument="endgame lead"
				Note Time="6" Value="F#3" Duration="1" Instrument="endgame lead"
				Note Time="8" Value="B3" Duration="1" Instrument="endgame lead"
				Note Time="10" Value="G3" Duration="1" Instrument="endgame lead"
				Note Time="12" Value="F#3" Duration="1" Instrument="endgame lead"
				Note Time="14" Value="G3" Duration="1" Instrument="endgame lead"
			Pattern Name="3" Color="9a71ed"
				Note Time="0" Value="F#3" Duration="1" Instrument="endgame lead" DutyCycle="2"
				Note Time="2" Value="F#3" Duration="1" Instrument="endgame lead"
				Note Time="4" Value="C#4" Duration="1" Instrument="endgame lead"
				Note Time="6" Value="D4" Duration="1" Instrument="endgame lead"
				Note Time="8" Value="F#4" Duration="1" Instrument="endgame lead"
				Note Time="10" Value="D4" Duration="1" Instrument="endgame lead"
				Note Time="12" Value="C#4" Duration="1" Instrument="endgame lead"
				Note Time="14" Value="G3" Duration="1" Instrument="endgame lead"
			Pattern Name="4" Color="ffff64"
				Note Time="0" Value="F#3" Duration="1" Instrument="endgame lead" DutyCycle="1"
				Note Time="2" Value="F#3" Duration="1" Instrument="endgame lead"
				Note Time="4" Value="C#4" Duration="1" Instrument="endgame lead"
				Note Time="6" Value="D4" Duration="1" Instrument="endgame lead"
				Note Time="8" Value="F#4" Duration="1" Instrument="endgame lead"
				Note Time="10" Value="D4" Duration="1" Instrument="endgame lead"
				Note Time="12" Value="D4" Duration="1" Instrument="endgame lead"
				Note Time="14" Value="F#4" Duration="1" Instrument="endgame lead"
			Pattern Name="5" Color="8d69e4"
				Note Time="0" Value="F#3" Duration="1" Instrument="Instrument 3" DutyCycle="2"
				Note Time="2" Value="F#3" Duration="1" Instrument="Instrument 3"
				Note Time="3" Value="F#3" Duration="1" Instrument="Instrument 3"
				Note Time="4" Value="G3" Duration="1" Instrument="Instrument 3"
				Note Time="6" Value="F#3" Duration="1" Instrument="Instrument 3"
				Note Time="8" Value="G3" Duration="1" Instrument="Instrument 3"
				Note Time="10" Value="F#3" Duration="1" Instrument="Instrument 3"
				Note Time="12" Value="A2" Duration="2" Instrument="Instrument 3"
			Pattern Name="7" Color="ffe461"
				Note Time="0" Value="F#3" Duration="1" Instrument="Instrument 3" DutyCycle="2"
				Note Time="2" Value="F#3" Duration="1" Instrument="Instrument 3"
				Note Time="4" Value="C#4" Duration="1" Instrument="Instrument 3"
				Note Time="6" Value="D4" Duration="1" Instrument="Instrument 3"
				Note Time="8" Value="D4" Duration="1" Instrument="Instrument 3"
				Note Time="10" Value="C#4" Duration="1" Instrument="Instrument 3"
				Note Time="12" Value="D4" Duration="1" Instrument="Instrument 3"
				Note Time="14" Value="C#4" Duration="1" Instrument="Instrument 3"
			Pattern Name="8" Color="98a7fc"
				Note Time="0" Value="F#3" Duration="1" Instrument="Instrument 3" DutyCycle="1"
				Note Time="2" Value="F#3" Duration="1" Instrument="Instrument 3"
				Note Time="4" Value="C#4" Duration="1" Instrument="Instrument 3"
				Note Time="6" Value="D4" Duration="1" Instrument="Instrument 3"
				Note Time="8" Value="F#4" Duration="1" Instrument="Instrument 3"
				Note Time="10" Value="D4" Duration="1" Instrument="Instrument 3"
				Note Time="12" Value="D4" Duration="1" Instrument="Instrument 3"
				Note Time="14" Value="D4" Duration="1" Instrument="Instrument 3"
				Note Time="15" Value="D4" Duration="1" Instrument="Instrument 3"
			PatternInstance Time="0" Pattern="1"
			PatternInstance Time="1" Pattern="1"
			PatternInstance Time="2" Pattern="2"
			PatternInstance Time="3" Pattern="3"
			PatternInstance Time="4" Pattern="1"
			PatternInstance Time="5" Pattern="1"
			PatternInstance Time="6" Pattern="2"
			PatternInstance Time="7" Pattern="4"
			PatternInstance Time="8" Pattern="1"
			PatternInstance Time="9" Pattern="5"
			PatternInstance Time="10" Pattern="2"
			PatternInstance Time="11" Pattern="7"
			PatternInstance Time="12" Pattern="1"
			PatternInstance Time="13" Pattern="5"
			PatternInstance Time="14" Pattern="2"
			PatternInstance Time="15" Pattern="8"
			PatternInstance Time="16" Pattern="1"
			PatternInstance Time="17" Pattern="5"
			PatternInstance Time="18" Pattern="2"
			PatternInstance Time="19" Pattern="8"
		Channel Type="Square2"
			Pattern Name="1" Color="5dd2ff"
				Note Time="0" Value="F#3" Duration="1" Instrument="hex guitar 2" Volume="7" FinePitch="-2" DutyCycle="3"
				Note Time="2" Value="F#3" Duration="1" Instrument="hex guitar 2"
				Note Time="4" Value="G3" Duration="1" Instrument="hex guitar 2"
				Note Time="6" Value="F#3" Duration="1" Instrument="hex guitar 2"
				Note Time="8" Value="G3" Duration="1" Instrument="hex guitar 2"
				Note Time="10" Value="F#3" Duration="1" Instrument="hex guitar 2"
				Note Time="12" Value="A3" Duration="1" Instrument="hex guitar 2"
				Note Time="14" Value="B3" Duration="1" Instrument="hex guitar 2"
			Pattern Name="2" Color="ffc83c"
				Note Time="0" Value="F#3" Duration="1" Instrument="hex guitar 2" DutyCycle="2"
				Note Time="2" Value="F#3" Duration="1" Instrument="hex guitar 2"
				Note Time="4" Value="G3" Duration="1" Instrument="hex guitar 2"
				Note Time="6" Value="F#3" Duration="1" Instrument="hex guitar 2"
				Note Time="8" Value="B3" Duration="1" Instrument="hex guitar 2"
				Note Time="10" Value="G3" Duration="1" Instrument="hex guitar 2"
				Note Time="12" Value="F#3" Duration="1" Instrument="hex guitar 2"
				Note Time="14" Value="G3" Duration="1" Instrument="hex guitar 2"
			Pattern Name="3" Color="a4db74"
				Note Time="0" Value="F#3" Duration="1" Instrument="hex guitar 2" DutyCycle="1"
				Note Time="2" Value="F#3" Duration="1" Instrument="hex guitar 2"
				Note Time="4" Value="C#4" Duration="1" Instrument="hex guitar 2"
				Note Time="6" Value="D4" Duration="1" Instrument="hex guitar 2"
				Note Time="8" Value="F#4" Duration="1" Instrument="hex guitar 2"
				Note Time="10" Value="D4" Duration="1" Instrument="hex guitar 2"
				Note Time="12" Value="C#4" Duration="1" Instrument="hex guitar 2"
				Note Time="14" Value="G3" Duration="1" Instrument="hex guitar 2"
			Pattern Name="4" Color="ffff93"
				Note Time="0" Value="F#3" Duration="1" Instrument="hex guitar 2" DutyCycle="0"
				Note Time="2" Value="F#3" Duration="1" Instrument="hex guitar 2"
				Note Time="4" Value="C#4" Duration="1" Instrument="hex guitar 2"
				Note Time="6" Value="D4" Duration="1" Instrument="hex guitar 2"
				Note Time="8" Value="F#4" Duration="1" Instrument="hex guitar 2"
				Note Time="10" Value="D4" Duration="1" Instrument="hex guitar 2"
				Note Time="12" Value="D4" Duration="1" Instrument="hex guitar 2"
				Note Time="14" Value="F#4" Duration="1" Instrument="hex guitar 2"
			Pattern Name="5" Color="65f2ff"
				Note Time="0" Value="F#3" Duration="1" Instrument="hex guitar 2" DutyCycle="1"
				Note Time="2" Value="F#3" Duration="1" Instrument="hex guitar 2"
				Note Time="3" Value="F#3" Duration="1" Instrument="hex guitar 2"
				Note Time="4" Value="G3" Duration="1" Instrument="hex guitar 2"
				Note Time="6" Value="F#3" Duration="1" Instrument="hex guitar 2"
				Note Time="8" Value="G3" Duration="1" Instrument="hex guitar 2"
				Note Time="10" Value="F#3" Duration="1" Instrument="hex guitar 2"
				Note Time="12" Value="A2" Duration="2" Instrument="hex guitar 2"
			Pattern Name="7" Color="74ca78"
				Note Time="0" Value="F#3" Duration="1" Instrument="hex guitar 2" DutyCycle="0"
				Note Time="2" Value="F#3" Duration="1" Instrument="hex guitar 2"
				Note Time="4" Value="C#4" Duration="1" Instrument="hex guitar 2"
				Note Time="6" Value="D4" Duration="1" Instrument="hex guitar 2"
				Note Time="8" Value="D4" Duration="1" Instrument="hex guitar 2"
				Note Time="10" Value="C#4" Duration="1" Instrument="hex guitar 2"
				Note Time="12" Value="D4" Duration="1" Instrument="hex guitar 2"
				Note Time="14" Value="C#4" Duration="1" Instrument="hex guitar 2"
			Pattern Name="6" Color="62e2d6"
				Note Time="0" Value="F#3" Duration="1" Instrument="hex guitar 2" DutyCycle="0"
				Note Time="2" Value="F#3" Duration="1" Instrument="hex guitar 2"
				Note Time="4" Value="C#4" Duration="1" Instrument="hex guitar 2"
				Note Time="6" Value="D4" Duration="1" Instrument="hex guitar 2"
				Note Time="8" Value="F#4" Duration="1" Instrument="hex guitar 2"
				Note Time="10" Value="D4" Duration="1" Instrument="hex guitar 2"
				Note Time="12" Value="D4" Duration="1" Instrument="hex guitar 2"
				Note Time="14" Value="D4" Duration="1" Instrument="hex guitar 2"
				Note Time="15" Value="D4" Duration="1" Instrument="hex guitar 2"
			PatternInstance Time="0" Pattern="1"
			PatternInstance Time="1" Pattern="1"
			PatternInstance Time="2" Pattern="2"
			PatternInstance Time="3" Pattern="3"
			PatternInstance Time="4" Pattern="1"
			PatternInstance Time="5" Pattern="1"
			PatternInstance Time="6" Pattern="2"
			PatternInstance Time="7" Pattern="4"
			PatternInstance Time="8" Pattern="1"
			PatternInstance Time="9" Pattern="5"
			PatternInstance Time="10" Pattern="2"
			PatternInstance Time="11" Pattern="7"
			PatternInstance Time="12" Pattern="1"
			PatternInstance Time="13" Pattern="5"
			PatternInstance Time="14" Pattern="2"
			PatternInstance Time="15" Pattern="6"
			PatternInstance Time="16" Pattern="1"
			PatternInstance Time="17" Pattern="5"
			PatternInstance Time="18" Pattern="2"
			PatternInstance Time="19" Pattern="6"
		Channel Type="Triangle"
			Pattern Name="Pattern 2" Color="7ee1ff"
				Note Time="0" Value="C4" Duration="2" Instrument="triangle drums"
				Note Time="8" Value="C4" Duration="2" Instrument="triangle drums"
			PatternInstance Time="0" Pattern="Pattern 2"
			PatternInstance Time="1" Pattern="Pattern 2"
			PatternInstance Time="2" Pattern="Pattern 2"
			PatternInstance Time="3" Pattern="Pattern 2"
			PatternInstance Time="4" Pattern="Pattern 2"
			PatternInstance Time="5" Pattern="Pattern 2"
			PatternInstance Time="6" Pattern="Pattern 2"
			PatternInstance Time="7" Pattern="Pattern 2"
			PatternInstance Time="8" Pattern="Pattern 2"
			PatternInstance Time="9" Pattern="Pattern 2"
			PatternInstance Time="10" Pattern="Pattern 2"
			PatternInstance Time="11" Pattern="Pattern 2"
			PatternInstance Time="12" Pattern="Pattern 2"
			PatternInstance Time="13" Pattern="Pattern 2"
			PatternInstance Time="14" Pattern="Pattern 2"
			PatternInstance Time="15" Pattern="Pattern 2"
			PatternInstance Time="16" Pattern="Pattern 2"
			PatternInstance Time="17" Pattern="Pattern 2"
			PatternInstance Time="18" Pattern="Pattern 2"
			PatternInstance Time="19" Pattern="Pattern 2"
		Channel Type="Noise"
			Pattern Name="Pattern 1" Color="5dd2ff"
				Note Time="0" Value="D#4" Duration="4" Instrument="kick"
				Note Time="2" Value="A#4" Duration="2" Instrument="rel hats"
				Note Time="4" Value="A#4" Duration="2" Instrument="snare"
				Note Time="6" Value="A#4" Duration="2" Instrument="hat"
				Note Time="8" Value="A#4" Duration="2" Instrument="rel hats"
				Note Time="10" Value="A#4" Duration="2" Instrument="hat"
				Note Time="12" Value="A#4" Duration="2" Instrument="snare"
				Note Time="14" Value="A#4" Duration="2" Instrument="hat"
			Pattern Name="Pattern 3" Color="a0f1ff"
				Note Time="0" Value="G3" Duration="2" Instrument="cymbal"
				Note Time="2" Value="A#4" Duration="2" Instrument="hat"
				Note Time="4" Value="G#4" Duration="2" Instrument="cymbal" CutDelay="10"
				Note Time="8" Value="A#4" Duration="2" Instrument="hat"
				Note Time="10" Value="D#4" Duration="2" Instrument="kick"
				Note Time="12" Value="G#4" Duration="2" Instrument="cymbal" CutDelay="10"
				Note Time="14" Value="A#4" Duration="2" Instrument="hat"
			Pattern Name="Pattern 4" Color="ff7cb6"
				Note Time="0" Value="D#4" Duration="2" Instrument="kick"
				Note Time="2" Value="A#4" Duration="2" Instrument="hat"
				Note Time="4" Value="G#4" Duration="2" Instrument="cymbal" CutDelay="10"
				Note Time="6" Value="D#4" Duration="2" Instrument="kick"
				Note Time="8" Value="A#4" Duration="2" Instrument="hat"
				Note Time="10" Value="D#4" Duration="2" Instrument="kick"
				Note Time="12" Value="G#4" Duration="2" Instrument="cymbal" CutDelay="10"
			Pattern Name="Pattern 2" Color="ff9ece"
				Note Time="0" Value="D#4" Duration="2" Instrument="kick"
				Note Time="2" Value="A#4" Duration="2" Instrument="hat"
				Note Time="4" Value="G#4" Duration="2" Instrument="cymbal" CutDelay="10"
				Note Time="6" Value="D#4" Duration="2" Instrument="kick"
				Note Time="8" Value="A#4" Duration="2" Instrument="hat"
				Note Time="10" Value="D#4" Duration="2" Instrument="kick"
				Note Time="12" Value="G#4" Duration="2" Instrument="cymbal" CutDelay="10"
				Note Time="14" Value="A#4" Duration="2" Instrument="hat"
			PatternInstance Time="0" Pattern="Pattern 1"
			PatternInstance Time="1" Pattern="Pattern 1"
			PatternInstance Time="2" Pattern="Pattern 1"
			PatternInstance Time="3" Pattern="Pattern 1"
			PatternInstance Time="4" Pattern="Pattern 1"
			PatternInstance Time="5" Pattern="Pattern 1"
			PatternInstance Time="6" Pattern="Pattern 1"
			PatternInstance Time="7" Pattern="Pattern 1"
			PatternInstance Time="8" Pattern="Pattern 3"
			PatternInstance Time="9" Pattern="Pattern 4"
			PatternInstance Time="10" Pattern="Pattern 2"
			PatternInstance Time="11" Pattern="Pattern 2"
			PatternInstance Time="12" Pattern="Pattern 2"
			PatternInstance Time="13" Pattern="Pattern 4"
			PatternInstance Time="14" Pattern="Pattern 2"
			PatternInstance Time="15" Pattern="Pattern 2"
			PatternInstance Time="16" Pattern="Pattern 2"
			PatternInstance Time="17" Pattern="Pattern 4"
			PatternInstance Time="18" Pattern="Pattern 2"
			PatternInstance Time="19" Pattern="Pattern 2"
		Channel Type="DPCM"
			Pattern Name="1" Color="f6a4ff"
				Note Time="0" Value="E5" Duration="4" Instrument="DMC: drums + bass"
				Note Time="4" Value="F5" Duration="4" Instrument="DMC: drums + bass"
				Note Time="8" Value="E5" Duration="4" Instrument="DMC: drums + bass"
				Note Time="12" Value="F5" Duration="4" Instrument="DMC: drums + bass"
			Pattern Name="2" Color="8bffff"
				Note Time="0" Value="E4" Duration="4" Instrument="DMC: drums + bass"
				Note Time="4" Value="F5" Duration="4" Instrument="DMC: drums + bass"
				Note Time="6" Value="E4" Duration="2" Instrument="DMC: drums + bass"
				Note Time="8" Value="E5" Duration="4" Instrument="DMC: drums + bass"
				Note Time="12" Value="F5" Duration="4" Instrument="DMC: drums + bass"
			Pattern Name="Pattern 1" Color="ffe362"
				Note Time="0" Value="B3" Duration="4" Instrument="DMC: drums + bass"
				Note Time="4" Value="F5" Duration="2" Instrument="DMC: drums + bass"
				Note Time="6" Value="B3" Duration="2" Instrument="DMC: drums + bass"
				Note Time="8" Value="E5" Duration="4" Instrument="DMC: drums + bass"
				Note Time="12" Value="F5" Duration="1" Instrument="DMC: drums + bass"
			Pattern Name="4" Color="ffac7f"
				Note Time="0" Value="D4" Duration="4" Instrument="DMC: drums + bass"
				Note Time="4" Value="F5" Duration="2" Instrument="DMC: drums + bass"
				Note Time="6" Value="D4" Duration="2" Instrument="DMC: drums + bass"
				Note Time="8" Value="E5" Duration="4" Instrument="DMC: drums + bass"
				Note Time="12" Value="F5" Duration="4" Instrument="DMC: drums + bass"
			Pattern Name="3" Color="e783f8"
				Note Time="0" Value="B3" Duration="4" Instrument="DMC: drums + bass"
				Note Time="4" Value="F5" Duration="2" Instrument="DMC: drums + bass"
				Note Time="6" Value="B3" Duration="2" Instrument="DMC: drums + bass"
				Note Time="8" Value="E5" Duration="4" Instrument="DMC: drums + bass"
				Note Time="12" Value="F5" Duration="1" Instrument="DMC: drums + bass"
				Note Time="13" Value="F5" Duration="1" Instrument="DMC: drums + bass"
				Note Time="14" Value="F5" Duration="1" Instrument="DMC: drums + bass"
				Note Time="15" Value="F5" Duration="1" Instrument="DMC: drums + bass"
			PatternInstance Time="0" Pattern="1"
			PatternInstance Time="1" Pattern="1"
			PatternInstance Time="2" Pattern="1"
			PatternInstance Time="3" Pattern="1"
			PatternInstance Time="4" Pattern="1"
			PatternInstance Time="5" Pattern="1"
			PatternInstance Time="6" Pattern="1"
			PatternInstance Time="7" Pattern="1"
			PatternInstance Time="8" Pattern="2"
			PatternInstance Time="9" Pattern="Pattern 1"
			PatternInstance Time="10" Pattern="4"
			PatternInstance Time="11" Pattern="Pattern 1"
			PatternInstance Time="12" Pattern="2"
			PatternInstance Time="13" Pattern="Pattern 1"
			PatternInstance Time="14" Pattern="4"
			PatternInstance Time="15" Pattern="Pattern 1"
			PatternInstance Time="16" Pattern="2"
			PatternInstance Time="17" Pattern="Pattern 1"
			PatternInstance Time="18" Pattern="4"
			PatternInstance Time="19" Pattern="3"
	Song Name="dpcm" Color="ff8d5a" Folder="DPCM ALIGNER" Length="1" LoopPoint="0" PatternLength="12" BeatLength="1" FamiTrackerTempo="150" FamiTrackerSpeed="1"
		Channel Type="Square1"
		Channel Type="Square2"
		Channel Type="Triangle"
		Channel Type="Noise"
		Channel Type="DPCM"
			Pattern Name="alexmush-1" Color="ebf067"
				Note Time="0" Value="F5" Duration="1" Instrument="DMC: drums + bass"
				Note Time="1" Value="E5" Duration="1" Instrument="DMC: drums + bass"
				Note Time="2" Value="D5" Duration="1" Instrument="DMC: drums + bass"
				Note Time="3" Value="C#5" Duration="1" Instrument="DMC: drums + bass"
				Note Time="4" Value="C5" Duration="1" Instrument="DMC: drums + bass"
				Note Time="5" Value="B4" Duration="1" Instrument="DMC: drums + bass"
				Note Time="6" Value="A#4" Duration="1" Instrument="DMC: drums + bass"
				Note Time="7" Value="F#5" Duration="1" Instrument="DMC: drums + bass"
				Note Time="8" Value="G5" Duration="1" Instrument="DMC: drums + bass"
				Note Time="9" Value="G#5" Duration="1" Instrument="DMC: drums + bass"
				Note Time="10" Value="A5" Duration="1" Instrument="DMC: drums + bass"
			PatternInstance Time="0" Pattern="alexmush-1"
	Song Name="Deadlocked" Color="ffcb3c" Folder="Unused" Length="15" LoopPoint="0" PatternLength="48" BeatLength="4" FamiTrackerTempo="135" FamiTrackerSpeed="8"
		Channel Type="Square1"
			Pattern Name="01" Color="ffc6a1"
				Note Time="0" Value="F1" Duration="1" Instrument="Instrument 1"
				Note Time="1" Value="F1" Duration="1" Instrument="Instrument 1"
				Note Time="2" Value="F1" Duration="1" Instrument="Instrument 1"
				Note Time="3" Value="F1" Duration="1" Instrument="Instrument 1"
				Note Time="4" Value="F1" Duration="1" Instrument="Instrument 1"
				Note Time="5" Value="F1" Duration="1" Instrument="Instrument 1"
				Note Time="6" Value="F1" Duration="1" Instrument="Instrument 1"
				Note Time="7" Value="F1" Duration="1" Instrument="Instrument 1"
				Note Time="8" Value="F1" Duration="1" Instrument="Instrument 1"
				Note Time="9" Value="F2" Duration="1" Instrument="Instrument 1"
				Note Time="10" Value="G#2" Duration="1" Instrument="Instrument 1"
				Note Time="11" Value="A#2" Duration="1" Instrument="Instrument 1"
				Note Time="12" Value="F1" Duration="1" Instrument="Instrument 1"
				Note Time="13" Value="F1" Duration="1" Instrument="Instrument 1"
				Note Time="14" Value="F1" Duration="1" Instrument="Instrument 1"
				Note Time="15" Value="F1" Duration="1" Instrument="Instrument 1"
				Note Time="16" Value="F1" Duration="1" Instrument="Instrument 1"
				Note Time="17" Value="F1" Duration="1" Instrument="Instrument 1"
				Note Time="18" Value="F1" Duration="1" Instrument="Instrument 1"
				Note Time="19" Value="F1" Duration="1" Instrument="Instrument 1"
				Note Time="20" Value="F1" Duration="1" Instrument="Instrument 1"
				Note Time="21" Value="G#2" Duration="1" Instrument="Instrument 1"
				Note Time="22" Value="A#2" Duration="1" Instrument="Instrument 1"
				Note Time="23" Value="F2" Duration="1" Instrument="Instrument 1"
				Note Time="24" Value="F1" Duration="1" Instrument="Instrument 1"
				Note Time="25" Value="F1" Duration="1" Instrument="Instrument 1"
				Note Time="26" Value="F1" Duration="1" Instrument="Instrument 1"
				Note Time="27" Value="F1" Duration="1" Instrument="Instrument 1"
				Note Time="28" Value="F1" Duration="1" Instrument="Instrument 1"
				Note Time="29" Value="F1" Duration="1" Instrument="Instrument 1"
				Note Time="30" Value="F1" Duration="1" Instrument="Instrument 1"
				Note Time="31" Value="F1" Duration="1" Instrument="Instrument 1"
				Note Time="32" Value="F1" Duration="1" Instrument="Instrument 1"
				Note Time="33" Value="F2" Duration="1" Instrument="Instrument 1"
				Note Time="34" Value="G#2" Duration="1" Instrument="Instrument 1"
				Note Time="35" Value="A#2" Duration="1" Instrument="Instrument 1"
				Note Time="36" Value="F2" Duration="1" Instrument="Instrument 1"
				Note Time="37" Value="F2" Duration="1" Instrument="Instrument 1"
				Note Time="38" Value="D#2" Duration="1" Instrument="Instrument 1"
				Note Time="39" Value="D#2" Duration="1" Instrument="Instrument 1"
				Note Time="40" Value="C2" Duration="1" Instrument="Instrument 1"
				Note Time="41" Value="C2" Duration="1" Instrument="Instrument 1"
				Note Time="42" Value="A#1" Duration="1" Instrument="Instrument 1"
				Note Time="43" Value="G#1" Duration="1" Instrument="Instrument 1"
				Note Time="44" Value="G#1" Duration="1" Instrument="Instrument 1"
				Note Time="45" Value="G1" Duration="1" Instrument="Instrument 1"
				Note Time="46" Value="G#1" Duration="1" Instrument="Instrument 1"
				Note Time="47" Value="A#1" Duration="1" Instrument="Instrument 1"
			Pattern Name="02" Color="ffff93"
				Note Time="0" Value="F1" Duration="1" Instrument="Instrument 2"
				Note Time="1" Value="F1" Duration="1" Instrument="Instrument 2"
				Note Time="2" Value="F1" Duration="1" Instrument="Instrument 2"
				Note Time="3" Value="F1" Duration="1" Instrument="Instrument 2"
				Note Time="4" Value="F1" Duration="1" Instrument="Instrument 2"
				Note Time="5" Value="F1" Duration="1" Instrument="Instrument 2"
				Note Time="6" Value="F1" Duration="1" Instrument="Instrument 2"
				Note Time="7" Value="F1" Duration="1" Instrument="Instrument 2"
				Note Time="8" Value="F1" Duration="1" Instrument="Instrument 2"
				Note Time="9" Value="F1" Duration="1" Instrument="Instrument 2"
				Note Time="10" Value="F1" Duration="2" Instrument="Instrument 2"
				Note Time="12" Value="F1" Duration="1" Instrument="Instrument 2"
				Note Time="13" Value="F1" Duration="1" Instrument="Instrument 2"
				Note Time="14" Value="F1" Duration="1" Instrument="Instrument 2"
				Note Time="15" Value="F1" Duration="1" Instrument="Instrument 2"
				Note Time="16" Value="F1" Duration="1" Instrument="Instrument 2"
				Note Time="17" Value="F1" Duration="1" Instrument="Instrument 2"
				Note Time="18" Value="F1" Duration="1" Instrument="Instrument 2"
				Note Time="19" Value="F1" Duration="1" Instrument="Instrument 2"
				Note Time="20" Value="F1" Duration="1" Instrument="Instrument 2"
				Note Time="21" Value="F1" Duration="1" Instrument="Instrument 2"
				Note Time="22" Value="F1" Duration="2" Instrument="Instrument 2"
				Note Time="24" Value="C#2" Duration="1" Instrument="Instrument 2"
				Note Time="25" Value="C#2" Duration="1" Instrument="Instrument 2"
				Note Time="26" Value="C#2" Duration="1" Instrument="Instrument 2"
				Note Time="27" Value="C#2" Duration="1" Instrument="Instrument 2"
				Note Time="28" Value="C#2" Duration="1" Instrument="Instrument 2"
				Note Time="29" Value="C#2" Duration="1" Instrument="Instrument 2"
				Note Time="30" Value="C#2" Duration="1" Instrument="Instrument 2"
				Note Time="31" Value="C#2" Duration="1" Instrument="Instrument 2"
				Note Time="32" Value="C#2" Duration="1" Instrument="Instrument 2"
				Note Time="33" Value="C#2" Duration="1" Instrument="Instrument 2"
				Note Time="34" Value="C#2" Duration="2" Instrument="Instrument 2"
				Note Time="36" Value="D#2" Duration="1" Instrument="Instrument 2"
				Note Time="37" Value="D#2" Duration="1" Instrument="Instrument 2"
				Note Time="38" Value="D#2" Duration="1" Instrument="Instrument 2"
				Note Time="39" Value="D#2" Duration="1" Instrument="Instrument 2"
				Note Time="40" Value="D#2" Duration="1" Instrument="Instrument 2"
				Note Time="41" Value="D#2" Duration="1" Instrument="Instrument 2"
				Note Time="42" Value="D#2" Duration="1" Instrument="Instrument 2"
				Note Time="43" Value="D#2" Duration="1" Instrument="Instrument 2"
				Note Time="44" Value="D#2" Duration="1" Instrument="Instrument 2"
				Note Time="45" Value="D#2" Duration="1" Instrument="Instrument 2"
				Note Time="46" Value="D#2" Duration="4" Instrument="Instrument 2"
			Pattern Name="05" Color="3cf8ff"
				Note Time="2" Value="F3" Duration="1" Instrument="echo" Volume="3" FinePitch="1"
				Note Time="3" Value="F3" Duration="1" Instrument="echo"
				Note Time="4" Value="F3" Duration="1" Instrument="echo"
				Note Time="5" Value="F3" Duration="1" Instrument="echo"
				Note Time="6" Value="F3" Duration="1" Instrument="echo"
				Note Time="7" Value="F4" Duration="1" Instrument="echo"
				Note Time="8" Value="F3" Duration="1" Instrument="echo"
				Note Time="9" Value="F3" Duration="1" Instrument="echo"
				Note Time="10" Value="D#4" Duration="1" Instrument="echo"
				Note Time="11" Value="F3" Duration="1" Instrument="echo"
				Note Time="12" Value="A#3" Duration="1" Instrument="echo"
				Note Time="13" Value="C4" Duration="1" Instrument="echo"
				Note Time="14" Value="F3" Duration="1" Instrument="echo"
				Note Time="15" Value="F3" Duration="1" Instrument="echo"
				Note Time="16" Value="F3" Duration="1" Instrument="echo"
				Note Time="17" Value="F3" Duration="1" Instrument="echo"
				Note Time="18" Value="A#4" Duration="1" Instrument="echo"
				Note Time="19" Value="F4" Duration="1" Instrument="echo"
				Note Time="20" Value="G4" Duration="1" Instrument="echo"
				Note Time="21" Value="G#4" Duration="1" Instrument="echo"
				Note Time="22" Value="D#4" Duration="1" Instrument="echo"
				Note Time="23" Value="G4" Duration="1" Instrument="echo"
				Note Time="24" Value="A#3" Duration="1" Instrument="echo"
				Note Time="25" Value="C4" Duration="1" Instrument="echo"
				Note Time="26" Value="F3" Duration="1" Instrument="echo"
				Note Time="27" Value="F3" Duration="1" Instrument="echo"
				Note Time="28" Value="F3" Duration="1" Instrument="echo"
				Note Time="29" Value="F3" Duration="1" Instrument="echo"
				Note Time="30" Value="F3" Duration="1" Instrument="echo"
				Note Time="31" Value="F4" Duration="1" Instrument="echo"
				Note Time="32" Value="F3" Duration="1" Instrument="echo"
				Note Time="33" Value="F3" Duration="1" Instrument="echo"
				Note Time="34" Value="D#4" Duration="1" Instrument="echo"
				Note Time="35" Value="F3" Duration="1" Instrument="echo"
				Note Time="36" Value="A#3" Duration="1" Instrument="echo"
				Note Time="37" Value="C4" Duration="1" Instrument="echo"
				Note Time="38" Value="F3" Duration="1" Instrument="echo"
				Note Time="39" Value="F3" Duration="1" Instrument="echo"
				Note Time="40" Value="F3" Duration="1" Instrument="echo"
				Note Time="41" Value="F3" Duration="1" Instrument="echo"
				Note Time="42" Value="A#4" Duration="1" Instrument="echo"
				Note Time="43" Value="F4" Duration="1" Instrument="echo"
				Note Time="44" Value="G4" Duration="1" Instrument="echo"
				Note Time="45" Value="G#4" Duration="1" Instrument="echo"
				Note Time="46" Value="D#4" Duration="1" Instrument="echo"
				Note Time="47" Value="G4" Duration="1" Instrument="echo"
			Pattern Name="03" Color="9a71ed"
				Note Time="0" Value="F1" Duration="2" Instrument="Instrument 1" Volume="15"
				Note Time="2" Value="F1" Duration="1" Instrument="Instrument 1"
				Note Time="3" Value="F1" Duration="2" Instrument="Instrument 1"
				Note Time="5" Value="F1" Duration="1" Instrument="Instrument 1"
				Note Time="6" Value="F1" Duration="2" Instrument="Instrument 1"
				Note Time="8" Value="G#2" Duration="1" Instrument="Instrument 1"
				Note Time="9" Value="A#2" Duration="1" Instrument="Instrument 1"
				Note Time="10" Value="A#2" Duration="1" Instrument="Instrument 1"
				Note Time="11" Value="F2" Duration="1" Instrument="Instrument 1"
				Note Time="12" Value="F1" Duration="2" Instrument="Instrument 1"
				Note Time="14" Value="F1" Duration="1" Instrument="Instrument 1"
				Note Time="15" Value="F1" Duration="2" Instrument="Instrument 1"
				Note Time="17" Value="F1" Duration="1" Instrument="Instrument 1"
				Note Time="18" Value="F1" Duration="2" Instrument="Instrument 1"
				Note Time="20" Value="G#1" Duration="1" Instrument="Instrument 1"
				Note Time="21" Value="A#1" Duration="1" Instrument="Instrument 1"
				Note Time="22" Value="A#1" Duration="1" Instrument="Instrument 1"
				Note Time="23" Value="F1" Duration="1" Instrument="Instrument 1"
				Note Time="24" Value="F1" Duration="2" Instrument="Instrument 1"
				Note Time="26" Value="F1" Duration="1" Instrument="Instrument 1"
				Note Time="27" Value="F1" Duration="2" Instrument="Instrument 1"
				Note Time="29" Value="F1" Duration="1" Instrument="Instrument 1"
				Note Time="30" Value="F1" Duration="2" Instrument="Instrument 1"
				Note Time="32" Value="G#2" Duration="1" Instrument="Instrument 1"
				Note Time="33" Value="A#2" Duration="1" Instrument="Instrument 1"
				Note Time="34" Value="A#2" Duration="1" Instrument="Instrument 1"
				Note Time="35" Value="F2" Duration="1" Instrument="Instrument 1"
				Note Time="36" Value="F1" Duration="2" Instrument="Instrument 1"
				Note Time="38" Value="F1" Duration="1" Instrument="Instrument 1"
				Note Time="39" Value="F1" Duration="2" Instrument="Instrument 1"
				Note Time="41" Value="F1" Duration="1" Instrument="Instrument 1"
				Note Time="42" Value="F1" Duration="2" Instrument="Instrument 1"
				Note Time="44" Value="G#2" Duration="1" Instrument="Instrument 1"
				Note Time="45" Value="A#2" Duration="1" Instrument="Instrument 1"
				Note Time="46" Value="A#2" Duration="1" Instrument="Instrument 1"
				Note Time="47" Value="F2" Duration="1" Instrument="Instrument 1"
			Pattern Name="04" Color="a9887d"
				Note Time="0" Value="F1" Duration="2" Instrument="Instrument 1"
				Note Time="2" Value="F1" Duration="1" Instrument="Instrument 1"
				Note Time="3" Value="F1" Duration="2" Instrument="Instrument 1"
				Note Time="5" Value="F1" Duration="1" Instrument="Instrument 1"
				Note Time="6" Value="F1" Duration="2" Instrument="Instrument 1"
				Note Time="8" Value="G#2" Duration="1" Instrument="Instrument 1"
				Note Time="9" Value="A#2" Duration="1" Instrument="Instrument 1"
				Note Time="10" Value="A#2" Duration="1" Instrument="Instrument 1"
				Note Time="11" Value="F2" Duration="1" Instrument="Instrument 1"
				Note Time="12" Value="F1" Duration="2" Instrument="Instrument 1"
				Note Time="14" Value="F1" Duration="1" Instrument="Instrument 1"
				Note Time="15" Value="F1" Duration="2" Instrument="Instrument 1"
				Note Time="17" Value="F1" Duration="1" Instrument="Instrument 1"
				Note Time="18" Value="F1" Duration="2" Instrument="Instrument 1"
				Note Time="20" Value="G#1" Duration="1" Instrument="Instrument 1"
				Note Time="21" Value="A#1" Duration="1" Instrument="Instrument 1"
				Note Time="22" Value="A#1" Duration="1" Instrument="Instrument 1"
				Note Time="23" Value="F1" Duration="1" Instrument="Instrument 1"
				Note Time="24" Value="C#1" Duration="2" Instrument="Instrument 1"
				Note Time="26" Value="C#1" Duration="1" Instrument="Instrument 1"
				Note Time="27" Value="C#1" Duration="2" Instrument="Instrument 1"
				Note Time="29" Value="C#1" Duration="1" Instrument="Instrument 1"
				Note Time="30" Value="C#1" Duration="2" Instrument="Instrument 1"
				Note Time="32" Value="G#2" Duration="1" Instrument="Instrument 1"
				Note Time="33" Value="A#2" Duration="1" Instrument="Instrument 1"
				Note Time="34" Value="A#2" Duration="1" Instrument="Instrument 1"
				Note Time="35" Value="F2" Duration="1" Instrument="Instrument 1"
				Note Time="36" Value="D#1" Duration="2" Instrument="Instrument 1"
				Note Time="38" Value="D#1" Duration="1" Instrument="Instrument 1"
				Note Time="39" Value="D#1" Duration="2" Instrument="Instrument 1"
				Note Time="41" Value="D#1" Duration="1" Instrument="Instrument 1"
				Note Time="42" Value="D#1" Duration="2" Instrument="Instrument 1"
				Note Time="44" Value="G#2" Duration="1" Instrument="Instrument 1"
				Note Time="45" Value="A#2" Duration="1" Instrument="Instrument 1"
				Note Time="46" Value="A#1" Duration="1" Instrument="Instrument 1"
				Note Time="47" Value="F2" Duration="1" Instrument="Instrument 1"
			Pattern Name="00" Color="f6a4ff"
				Note Time="0" Value="Stop"
			PatternInstance Time="2" Pattern="01"
			PatternInstance Time="3" Pattern="01"
			PatternInstance Time="4" Pattern="02"
			PatternInstance Time="5" Pattern="02"
			PatternInstance Time="6" Pattern="05"
			PatternInstance Time="7" Pattern="03"
			PatternInstance Time="8" Pattern="04"
			PatternInstance Time="9" Pattern="04"
			PatternInstance Time="10" Pattern="01"
			PatternInstance Time="11" Pattern="02"
			PatternInstance Time="12" Pattern="02"
			PatternInstance Time="13" Pattern="00"
		Channel Type="Square2"
			Pattern Name="01" Color="fffc69"
				Note Time="0" Value="F2" Duration="2" Instrument="octave arp"
				Note Time="19" Value="G#2" Duration="1" Instrument="octave arp"
				Note Time="21" Value="G#3" Duration="1" Instrument="octave arp"
				Note Time="22" Value="A#3" Duration="1" Instrument="octave arp"
				Note Time="23" Value="F3" Duration="1" Instrument="octave arp"
				Note Time="24" Value="F2" Duration="2" Instrument="octave arp"
				Note Time="43" Value="F2" Duration="2" Instrument="octave arp"
			Pattern Name="02" Color="3ca598"
				Note Time="0" Value="F2" Duration="1" Instrument="02 but tri"
				Note Time="1" Value="F2" Duration="1" Instrument="02 but tri"
				Note Time="2" Value="F3" Duration="1" Instrument="02 but tri"
				Note Time="3" Value="A#3" Duration="1" Instrument="02 but tri"
				Note Time="4" Value="G#3" Duration="1" Instrument="02 but tri"
				Note Time="5" Value="F2" Duration="1" Instrument="02 but tri"
				Note Time="6" Value="F3" Duration="1" Instrument="02 but tri"
				Note Time="7" Value="G3" Duration="1" Instrument="02 but tri"
				Note Time="8" Value="F2" Duration="1" Instrument="02 but tri"
				Note Time="9" Value="F3" Duration="1" Instrument="02 but tri"
				Note Time="10" Value="F4" Duration="1" Instrument="02 but tri"
				Note Time="11" Value="F3" Duration="1" Instrument="02 but tri"
				Note Time="12" Value="F2" Duration="1" Instrument="02 but tri"
				Note Time="13" Value="F2" Duration="1" Instrument="02 but tri"
				Note Time="14" Value="F3" Duration="1" Instrument="02 but tri"
				Note Time="15" Value="A#3" Duration="1" Instrument="02 but tri"
				Note Time="16" Value="G#3" Duration="1" Instrument="02 but tri"
				Note Time="17" Value="F2" Duration="1" Instrument="02 but tri"
				Note Time="18" Value="F3" Duration="1" Instrument="02 but tri"
				Note Time="19" Value="G3" Duration="1" Instrument="02 but tri"
				Note Time="20" Value="F2" Duration="1" Instrument="02 but tri"
				Note Time="21" Value="F3" Duration="1" Instrument="02 but tri"
				Note Time="22" Value="D#3" Duration="1" Instrument="02 but tri"
				Note Time="23" Value="A#2" Duration="1" Instrument="02 but tri"
				Note Time="24" Value="F2" Duration="1" Instrument="02 but tri"
				Note Time="25" Value="F2" Duration="1" Instrument="02 but tri"
				Note Time="26" Value="F3" Duration="1" Instrument="02 but tri"
				Note Time="27" Value="A#3" Duration="1" Instrument="02 but tri"
				Note Time="28" Value="G#3" Duration="1" Instrument="02 but tri"
				Note Time="29" Value="F2" Duration="1" Instrument="02 but tri"
				Note Time="30" Value="F3" Duration="1" Instrument="02 but tri"
				Note Time="31" Value="G3" Duration="1" Instrument="02 but tri"
				Note Time="32" Value="F2" Duration="1" Instrument="02 but tri"
				Note Time="33" Value="F3" Duration="1" Instrument="02 but tri"
				Note Time="34" Value="D#3" Duration="1" Instrument="02 but tri"
				Note Time="35" Value="A#2" Duration="1" Instrument="02 but tri"
				Note Time="36" Value="A#2" Duration="1" Instrument="02 but tri"
				Note Time="37" Value="A#2" Duration="1" Instrument="02 but tri"
				Note Time="38" Value="A#2" Duration="1" Instrument="02 but tri"
				Note Time="39" Value="D#4" Duration="1" Instrument="02 but tri"
				Note Time="40" Value="A#3" Duration="1" Instrument="02 but tri"
				Note Time="41" Value="A#2" Duration="1" Instrument="02 but tri"
				Note Time="42" Value="A#2" Duration="1" Instrument="02 but tri"
				Note Time="43" Value="F4" Duration="1" Instrument="02 but tri"
				Note Time="44" Value="A#2" Duration="1" Instrument="02 but tri"
				Note Time="45" Value="A#3" Duration="1" Instrument="02 but tri"
				Note Time="46" Value="G#3" Duration="1" Instrument="02 but tri"
				Note Time="47" Value="G3" Duration="1" Instrument="02 but tri"
			Pattern Name="03" Color="b5c2ff"
				Note Time="0" Value="F3" Duration="1" Instrument="echo"
				Note Time="1" Value="F3" Duration="1" Instrument="echo"
				Note Time="2" Value="F3" Duration="1" Instrument="echo"
				Note Time="3" Value="F3" Duration="1" Instrument="echo"
				Note Time="4" Value="F3" Duration="1" Instrument="echo"
				Note Time="5" Value="F4" Duration="1" Instrument="echo"
				Note Time="6" Value="F3" Duration="1" Instrument="echo"
				Note Time="7" Value="F3" Duration="1" Instrument="echo"
				Note Time="8" Value="D#4" Duration="1" Instrument="echo"
				Note Time="9" Value="F3" Duration="1" Instrument="echo"
				Note Time="10" Value="A#3" Duration="1" Instrument="echo"
				Note Time="11" Value="C4" Duration="1" Instrument="echo"
				Note Time="12" Value="F3" Duration="1" Instrument="echo"
				Note Time="13" Value="F3" Duration="1" Instrument="echo"
				Note Time="14" Value="F3" Duration="1" Instrument="echo"
				Note Time="15" Value="F3" Duration="1" Instrument="echo"
				Note Time="16" Value="A#4" Duration="1" Instrument="echo"
				Note Time="17" Value="F4" Duration="1" Instrument="echo"
				Note Time="18" Value="G4" Duration="1" Instrument="echo"
				Note Time="19" Value="G#4" Duration="1" Instrument="echo"
				Note Time="20" Value="D#4" Duration="1" Instrument="echo"
				Note Time="21" Value="G4" Duration="1" Instrument="echo"
				Note Time="22" Value="A#3" Duration="1" Instrument="echo"
				Note Time="23" Value="C4" Duration="1" Instrument="echo"
				Note Time="24" Value="F3" Duration="1" Instrument="echo"
				Note Time="25" Value="F3" Duration="1" Instrument="echo"
				Note Time="26" Value="F3" Duration="1" Instrument="echo"
				Note Time="27" Value="F3" Duration="1" Instrument="echo"
				Note Time="28" Value="F3" Duration="1" Instrument="echo"
				Note Time="29" Value="F4" Duration="1" Instrument="echo"
				Note Time="30" Value="F3" Duration="1" Instrument="echo"
				Note Time="31" Value="F3" Duration="1" Instrument="echo"
				Note Time="32" Value="D#4" Duration="1" Instrument="echo"
				Note Time="33" Value="F3" Duration="1" Instrument="echo"
				Note Time="34" Value="A#3" Duration="1" Instrument="echo"
				Note Time="35" Value="C4" Duration="1" Instrument="echo"
				Note Time="36" Value="F3" Duration="1" Instrument="echo"
				Note Time="37" Value="F3" Duration="1" Instrument="echo"
				Note Time="38" Value="F3" Duration="1" Instrument="echo"
				Note Time="39" Value="F3" Duration="1" Instrument="echo"
				Note Time="40" Value="A#4" Duration="1" Instrument="echo"
				Note Time="41" Value="F4" Duration="1" Instrument="echo"
				Note Time="42" Value="G4" Duration="1" Instrument="echo"
				Note Time="43" Value="G#4" Duration="1" Instrument="echo"
				Note Time="44" Value="D#4" Duration="1" Instrument="echo"
				Note Time="45" Value="G4" Duration="1" Instrument="echo"
				Note Time="46" Value="A#3" Duration="1" Instrument="echo"
				Note Time="47" Value="C4" Duration="1" Instrument="echo"
			Pattern Name="04" Color="ff8f8c"
				Note Time="0" Value="F4" Duration="1" Instrument="02 but tri"
				Note Time="1" Value="C4" Duration="1" Instrument="02 but tri"
				Note Time="2" Value="F3" Duration="1" Instrument="02 but tri"
				Note Time="3" Value="F4" Duration="1" Instrument="02 but tri"
				Note Time="4" Value="C4" Duration="1" Instrument="02 but tri"
				Note Time="5" Value="F3" Duration="1" Instrument="02 but tri"
				Note Time="6" Value="G#4" Duration="1" Instrument="02 but tri"
				Note Time="7" Value="C4" Duration="1" Instrument="02 but tri"
				Note Time="8" Value="F3" Duration="1" Instrument="02 but tri"
				Note Time="9" Value="G4" Duration="1" Instrument="02 but tri"
				Note Time="10" Value="C4" Duration="1" Instrument="02 but tri"
				Note Time="11" Value="F3" Duration="1" Instrument="02 but tri"
				Note Time="12" Value="F4" Duration="1" Instrument="02 but tri"
				Note Time="13" Value="C4" Duration="1" Instrument="02 but tri"
				Note Time="14" Value="F3" Duration="1" Instrument="02 but tri"
				Note Time="15" Value="F4" Duration="1" Instrument="02 but tri"
				Note Time="16" Value="C4" Duration="1" Instrument="02 but tri"
				Note Time="17" Value="F3" Duration="1" Instrument="02 but tri"
				Note Time="18" Value="G#4" Duration="1" Instrument="02 but tri"
				Note Time="19" Value="C4" Duration="1" Instrument="02 but tri"
				Note Time="20" Value="F3" Duration="1" Instrument="02 but tri"
				Note Time="21" Value="G4" Duration="1" Instrument="02 but tri"
				Note Time="22" Value="C4" Duration="1" Instrument="02 but tri"
				Note Time="23" Value="F3" Duration="1" Instrument="02 but tri"
				Note Time="24" Value="F4" Duration="1" Instrument="02 but tri"
				Note Time="25" Value="C4" Duration="1" Instrument="02 but tri"
				Note Time="26" Value="C#3" Duration="1" Instrument="02 but tri"
				Note Time="27" Value="F4" Duration="1" Instrument="02 but tri"
				Note Time="28" Value="C4" Duration="1" Instrument="02 but tri"
				Note Time="29" Value="C#3" Duration="1" Instrument="02 but tri"
				Note Time="30" Value="G#4" Duration="1" Instrument="02 but tri"
				Note Time="31" Value="C4" Duration="1" Instrument="02 but tri"
				Note Time="32" Value="C#3" Duration="1" Instrument="02 but tri"
				Note Time="33" Value="G4" Duration="1" Instrument="02 but tri"
				Note Time="34" Value="C4" Duration="1" Instrument="02 but tri"
				Note Time="35" Value="C#3" Duration="1" Instrument="02 but tri"
				Note Time="36" Value="F4" Duration="1" Instrument="02 but tri"
				Note Time="37" Value="A#3" Duration="1" Instrument="02 but tri"
				Note Time="38" Value="D#3" Duration="1" Instrument="02 but tri"
				Note Time="39" Value="F4" Duration="1" Instrument="02 but tri"
				Note Time="40" Value="A#3" Duration="1" Instrument="02 but tri"
				Note Time="41" Value="D#3" Duration="1" Instrument="02 but tri"
				Note Time="42" Value="G#4" Duration="1" Instrument="02 but tri"
				Note Time="43" Value="A#3" Duration="1" Instrument="02 but tri"
				Note Time="44" Value="D#3" Duration="1" Instrument="02 but tri"
				Note Time="45" Value="G4" Duration="1" Instrument="02 but tri"
				Note Time="46" Value="A#3" Duration="1" Instrument="02 but tri"
				Note Time="47" Value="D#3" Duration="1" Instrument="02 but tri"
			PatternInstance Time="0" Pattern="01"
			PatternInstance Time="1" Pattern="01"
			PatternInstance Time="2" Pattern="01"
			PatternInstance Time="3" Pattern="01"
			PatternInstance Time="4" Pattern="02"
			PatternInstance Time="5" Pattern="02"
			PatternInstance Time="6" Pattern="03"
			PatternInstance Time="7" Pattern="03"
			PatternInstance Time="8" Pattern="04"
			PatternInstance Time="9" Pattern="04"
			PatternInstance Time="10" Pattern="01"
			PatternInstance Time="11" Pattern="02"
			PatternInstance Time="12" Pattern="02"
			PatternInstance Time="13" Pattern="04"
		Channel Type="Triangle"
			Pattern Name="01" Color="5ac4ff"
				Note Time="30" Value="D3" Duration="3" Instrument="triangle drums"
				Note Time="33" Value="A3" Duration="3" Instrument="triangle drums"
				Note Time="36" Value="D3" Duration="3" Instrument="triangle drums"
				Note Time="39" Value="B3" Duration="3" Instrument="triangle drums"
				Note Time="42" Value="D3" Duration="3" Instrument="triangle drums"
				Note Time="45" Value="C4" Duration="3" Instrument="triangle drums"
			Pattern Name="04" Color="fe5497"
				Note Time="0" Value="D3" Duration="1" Instrument="triangle drums"
				Note Time="3" Value="C4" Duration="1" Instrument="triangle drums"
				Note Time="6" Value="D3" Duration="1" Instrument="triangle drums"
				Note Time="9" Value="C4" Duration="1" Instrument="triangle drums"
				Note Time="12" Value="D3" Duration="1" Instrument="triangle drums"
				Note Time="15" Value="C4" Duration="1" Instrument="triangle drums"
				Note Time="18" Value="D3" Duration="1" Instrument="triangle drums"
				Note Time="21" Value="C4" Duration="1" Instrument="triangle drums"
				Note Time="24" Value="D3" Duration="1" Instrument="triangle drums"
				Note Time="27" Value="C4" Duration="1" Instrument="triangle drums"
				Note Time="30" Value="D3" Duration="1" Instrument="triangle drums"
				Note Time="33" Value="C4" Duration="1" Instrument="triangle drums"
				Note Time="36" Value="D3" Duration="1" Instrument="triangle drums"
				Note Time="39" Value="C4" Duration="1" Instrument="triangle drums"
				Note Time="42" Value="D3" Duration="1" Instrument="triangle drums"
				Note Time="45" Value="C4" Duration="1" Instrument="triangle drums"
			Pattern Name="03" Color="ffb83c"
				Note Time="0" Value="D3" Duration="1" Instrument="triangle drums"
				Note Time="3" Value="D3" Duration="1" Instrument="triangle drums"
				Note Time="6" Value="D3" Duration="1" Instrument="triangle drums"
				Note Time="9" Value="D3" Duration="1" Instrument="triangle drums"
				Note Time="12" Value="D3" Duration="1" Instrument="triangle drums"
				Note Time="15" Value="D3" Duration="1" Instrument="triangle drums"
				Note Time="18" Value="D3" Duration="1" Instrument="triangle drums"
				Note Time="21" Value="D3" Duration="1" Instrument="triangle drums"
				Note Time="24" Value="D3" Duration="1" Instrument="triangle drums"
				Note Time="27" Value="D3" Duration="1" Instrument="triangle drums"
				Note Time="30" Value="D3" Duration="1" Instrument="triangle drums"
				Note Time="33" Value="D3" Duration="1" Instrument="triangle drums"
				Note Time="36" Value="D3" Duration="1" Instrument="triangle drums"
				Note Time="39" Value="D3" Duration="1" Instrument="triangle drums"
				Note Time="42" Value="D3" Duration="1" Instrument="triangle drums"
				Note Time="45" Value="D3" Duration="1" Instrument="triangle drums"
			Pattern Name="00" Color="88eb8c"
				Note Time="0" Value="Stop"
			PatternInstance Time="1" Pattern="01"
			PatternInstance Time="2" Pattern="04"
			PatternInstance Time="3" Pattern="04"
			PatternInstance Time="4" Pattern="04"
			PatternInstance Time="5" Pattern="04"
			PatternInstance Time="6" Pattern="03"
			PatternInstance Time="7" Pattern="04"
			PatternInstance Time="8" Pattern="04"
			PatternInstance Time="9" Pattern="04"
			PatternInstance Time="10" Pattern="04"
			PatternInstance Time="11" Pattern="04"
			PatternInstance Time="12" Pattern="04"
			PatternInstance Time="13" Pattern="00"
		Channel Type="Noise"
			Pattern Name="01" Color="8bffff"
				Note Time="0" Value="G2" Duration="3" Instrument="kick" Volume="1"
				Note Time="3" Value="G2" Duration="3" Instrument="snare" Volume="2"
				Note Time="6" Value="G2" Duration="3" Instrument="kick" Volume="3"
				Note Time="9" Value="G2" Duration="3" Instrument="snare" Volume="4"
				Note Time="12" Value="G2" Duration="3" Instrument="kick" Volume="5"
				Note Time="15" Value="G2" Duration="3" Instrument="snare" Volume="6"
				Note Time="18" Value="G2" Duration="3" Instrument="kick" Volume="7"
				Note Time="21" Value="G2" Duration="3" Instrument="snare" Volume="8"
				Note Time="24" Value="G2" Duration="3" Instrument="kick" Volume="9"
				Note Time="27" Value="G2" Duration="3" Instrument="snare" Volume="10"
				Note Time="30" Value="G2" Duration="3" Instrument="kick" Volume="11"
				Note Time="33" Value="G2" Duration="3" Instrument="snare" Volume="12"
				Note Time="36" Value="G2" Duration="3" Instrument="kick" Volume="13"
				Note Time="39" Value="G2" Duration="3" Instrument="snare" Volume="14"
				Note Time="42" Value="G2" Duration="3" Instrument="kick" Volume="15"
				Note Time="45" Value="G2" Duration="3" Instrument="snare" Volume="15"
			Pattern Name="04" Color="e783f8"
				Note Time="0" Value="G2" Duration="2" Instrument="kick"
				Note Time="2" Value="A#3" Duration="1" Instrument="rel hats"
				Note Time="3" Value="G2" Duration="2" Instrument="snare"
				Note Time="5" Value="A#3" Duration="1" Instrument="rel hats"
				Note Time="6" Value="G2" Duration="2" Instrument="kick"
				Note Time="8" Value="A#3" Duration="1" Instrument="rel hats"
				Note Time="9" Value="G2" Duration="2" Instrument="snare"
				Note Time="11" Value="A#3" Duration="1" Instrument="rel hats"
				Note Time="12" Value="G2" Duration="2" Instrument="kick"
				Note Time="14" Value="A#3" Duration="1" Instrument="rel hats"
				Note Time="15" Value="G2" Duration="2" Instrument="snare"
				Note Time="17" Value="A#3" Duration="1" Instrument="rel hats"
				Note Time="18" Value="G2" Duration="2" Instrument="kick"
				Note Time="20" Value="A#3" Duration="1" Instrument="rel hats"
				Note Time="21" Value="G2" Duration="2" Instrument="snare"
				Note Time="23" Value="A#3" Duration="1" Instrument="rel hats"
				Note Time="24" Value="G2" Duration="2" Instrument="kick"
				Note Time="26" Value="A#3" Duration="1" Instrument="rel hats"
				Note Time="27" Value="G2" Duration="2" Instrument="snare"
				Note Time="29" Value="A#3" Duration="1" Instrument="rel hats"
				Note Time="30" Value="G2" Duration="2" Instrument="kick"
				Note Time="32" Value="A#3" Duration="1" Instrument="rel hats"
				Note Time="33" Value="G2" Duration="2" Instrument="snare"
				Note Time="35" Value="A#3" Duration="1" Instrument="rel hats"
				Note Time="36" Value="G2" Duration="2" Instrument="kick"
				Note Time="38" Value="A#3" Duration="1" Instrument="rel hats"
				Note Time="39" Value="G2" Duration="2" Instrument="snare"
				Note Time="41" Value="A#3" Duration="1" Instrument="rel hats"
				Note Time="42" Value="G2" Duration="2" Instrument="kick"
				Note Time="44" Value="A#3" Duration="1" Instrument="rel hats"
				Note Time="45" Value="G2" Duration="2" Instrument="snare"
				Note Time="47" Value="A#3" Duration="1" Instrument="rel hats"
			Pattern Name="03" Color="ffac7f"
				Note Time="0" Value="G2" Duration="3" Instrument="kick"
				Note Time="3" Value="G2" Duration="3" Instrument="kick"
				Note Time="6" Value="G2" Duration="3" Instrument="kick"
				Note Time="9" Value="G2" Duration="3" Instrument="kick"
				Note Time="12" Value="G2" Duration="3" Instrument="kick"
				Note Time="15" Value="G2" Duration="3" Instrument="kick"
				Note Time="18" Value="G2" Duration="3" Instrument="kick"
				Note Time="21" Value="G2" Duration="3" Instrument="kick"
				Note Time="24" Value="G2" Duration="3" Instrument="kick"
				Note Time="27" Value="G2" Duration="3" Instrument="kick"
				Note Time="30" Value="G2" Duration="3" Instrument="kick"
				Note Time="33" Value="G2" Duration="3" Instrument="kick"
				Note Time="36" Value="G2" Duration="3" Instrument="kick"
				Note Time="39" Value="G2" Duration="3" Instrument="kick"
				Note Time="42" Value="G2" Duration="3" Instrument="kick"
				Note Time="45" Value="G2" Duration="3" Instrument="kick"
			Pattern Name="00" Color="91c76b"
				Note Time="0" Value="Stop"
			PatternInstance Time="1" Pattern="01"
			PatternInstance Time="2" Pattern="04"
			PatternInstance Time="3" Pattern="04"
			PatternInstance Time="4" Pattern="04"
			PatternInstance Time="5" Pattern="04"
			PatternInstance Time="6" Pattern="03"
			PatternInstance Time="7" Pattern="04"
			PatternInstance Time="8" Pattern="04"
			PatternInstance Time="9" Pattern="04"
			PatternInstance Time="10" Pattern="04"
			PatternInstance Time="11" Pattern="04"
			PatternInstance Time="12" Pattern="04"
			PatternInstance Time="13" Pattern="00"
		Channel Type="DPCM"
			Pattern Name="01" Color="ffff75"
				Note Time="0" Value="F3" Duration="1" Instrument="DMC: drums + bass"
				Note Time="1" Value="F3" Duration="1" Instrument="DMC: drums + bass" CutDelay="6"
				Note Time="2" Value="F3" Duration="1" Instrument="DMC: drums + bass" CutDelay="6"
				Note Time="3" Value="F3" Duration="1" Instrument="DMC: drums + bass"
				Note Time="4" Value="F3" Duration="1" Instrument="DMC: drums + bass" CutDelay="6"
				Note Time="5" Value="F3" Duration="1" Instrument="DMC: drums + bass" CutDelay="6"
				Note Time="6" Value="F3" Duration="1" Instrument="DMC: drums + bass"
				Note Time="7" Value="F3" Duration="1" Instrument="DMC: drums + bass" CutDelay="6"
				Note Time="8" Value="F3" Duration="1" Instrument="DMC: drums + bass" CutDelay="6"
				Note Time="9" Value="F4" Duration="1" Instrument="DMC: drums + bass"
				Note Time="10" Value="G#4" Duration="1" Instrument="DMC: drums + bass" CutDelay="6"
				Note Time="11" Value="A#4" Duration="1" Instrument="DMC: drums + bass" CutDelay="6"
				Note Time="12" Value="F3" Duration="1" Instrument="DMC: drums + bass"
				Note Time="13" Value="F3" Duration="1" Instrument="DMC: drums + bass" CutDelay="6"
				Note Time="14" Value="F3" Duration="1" Instrument="DMC: drums + bass" CutDelay="6"
				Note Time="15" Value="F3" Duration="1" Instrument="DMC: drums + bass"
				Note Time="16" Value="F3" Duration="1" Instrument="DMC: drums + bass" CutDelay="6"
				Note Time="17" Value="F3" Duration="1" Instrument="DMC: drums + bass" CutDelay="6"
				Note Time="18" Value="F3" Duration="1" Instrument="DMC: drums + bass"
				Note Time="19" Value="F3" Duration="1" Instrument="DMC: drums + bass" CutDelay="6"
				Note Time="20" Value="F3" Duration="1" Instrument="DMC: drums + bass" CutDelay="6"
				Note Time="21" Value="G#4" Duration="1" Instrument="DMC: drums + bass"
				Note Time="22" Value="A#4" Duration="1" Instrument="DMC: drums + bass" CutDelay="6"
				Note Time="23" Value="F4" Duration="1" Instrument="DMC: drums + bass" CutDelay="6"
				Note Time="24" Value="F3" Duration="1" Instrument="DMC: drums + bass"
				Note Time="25" Value="F3" Duration="1" Instrument="DMC: drums + bass" CutDelay="6"
				Note Time="26" Value="F3" Duration="1" Instrument="DMC: drums + bass" CutDelay="6"
				Note Time="27" Value="F3" Duration="1" Instrument="DMC: drums + bass"
				Note Time="28" Value="F3" Duration="1" Instrument="DMC: drums + bass" CutDelay="6"
				Note Time="29" Value="F3" Duration="1" Instrument="DMC: drums + bass" CutDelay="6"
				Note Time="30" Value="F3" Duration="1" Instrument="DMC: drums + bass"
				Note Time="31" Value="F3" Duration="1" Instrument="DMC: drums + bass" CutDelay="6"
				Note Time="32" Value="F3" Duration="1" Instrument="DMC: drums + bass" CutDelay="6"
				Note Time="33" Value="F4" Duration="1" Instrument="DMC: drums + bass"
				Note Time="34" Value="G#4" Duration="1" Instrument="DMC: drums + bass" CutDelay="6"
				Note Time="35" Value="A#4" Duration="1" Instrument="DMC: drums + bass" CutDelay="6"
				Note Time="36" Value="F4" Duration="1" Instrument="DMC: drums + bass"
				Note Time="37" Value="F4" Duration="1" Instrument="DMC: drums + bass" CutDelay="6"
				Note Time="38" Value="D#4" Duration="1" Instrument="DMC: drums + bass" CutDelay="6"
				Note Time="39" Value="D#4" Duration="1" Instrument="DMC: drums + bass"
				Note Time="40" Value="C4" Duration="1" Instrument="DMC: drums + bass" CutDelay="6"
				Note Time="41" Value="C4" Duration="1" Instrument="DMC: drums + bass" CutDelay="6"
				Note Time="42" Value="A#3" Duration="1" Instrument="DMC: drums + bass"
				Note Time="43" Value="G#3" Duration="1" Instrument="DMC: drums + bass" CutDelay="6"
				Note Time="44" Value="G#3" Duration="1" Instrument="DMC: drums + bass" CutDelay="6"
				Note Time="45" Value="G3" Duration="1" Instrument="DMC: drums + bass"
				Note Time="46" Value="G#3" Duration="1" Instrument="DMC: drums + bass" CutDelay="6"
				Note Time="47" Value="A#3" Duration="1" Instrument="DMC: drums + bass" CutDelay="6"
			Pattern Name="02" Color="3ce8fd"
				Note Time="0" Value="F3" Duration="1" Instrument="DMC: drums + bass"
				Note Time="1" Value="F3" Duration="1" Instrument="DMC: drums + bass" CutDelay="6"
				Note Time="2" Value="F3" Duration="1" Instrument="DMC: drums + bass" CutDelay="6"
				Note Time="3" Value="F3" Duration="1" Instrument="DMC: drums + bass"
				Note Time="4" Value="F3" Duration="1" Instrument="DMC: drums + bass" CutDelay="6"
				Note Time="5" Value="F3" Duration="1" Instrument="DMC: drums + bass" CutDelay="6"
				Note Time="6" Value="F3" Duration="1" Instrument="DMC: drums + bass"
				Note Time="7" Value="F3" Duration="1" Instrument="DMC: drums + bass" CutDelay="6"
				Note Time="8" Value="F3" Duration="4" Instrument="DMC: drums + bass" CutDelay="6"
				Note Time="12" Value="F3" Duration="1" Instrument="DMC: drums + bass"
				Note Time="13" Value="F3" Duration="1" Instrument="DMC: drums + bass" CutDelay="6"
				Note Time="14" Value="F3" Duration="1" Instrument="DMC: drums + bass" CutDelay="6"
				Note Time="15" Value="F3" Duration="1" Instrument="DMC: drums + bass"
				Note Time="16" Value="F3" Duration="1" Instrument="DMC: drums + bass" CutDelay="6"
				Note Time="17" Value="F3" Duration="1" Instrument="DMC: drums + bass" CutDelay="6"
				Note Time="18" Value="F3" Duration="1" Instrument="DMC: drums + bass"
				Note Time="19" Value="F3" Duration="1" Instrument="DMC: drums + bass" CutDelay="6"
				Note Time="20" Value="F3" Duration="4" Instrument="DMC: drums + bass" CutDelay="6"
				Note Time="24" Value="C#4" Duration="1" Instrument="DMC: drums + bass"
				Note Time="25" Value="C#4" Duration="1" Instrument="DMC: drums + bass" CutDelay="6"
				Note Time="26" Value="C#4" Duration="1" Instrument="DMC: drums + bass" CutDelay="6"
				Note Time="27" Value="C#4" Duration="1" Instrument="DMC: drums + bass"
				Note Time="28" Value="C#4" Duration="1" Instrument="DMC: drums + bass" CutDelay="6"
				Note Time="29" Value="C#4" Duration="1" Instrument="DMC: drums + bass" CutDelay="6"
				Note Time="30" Value="C#4" Duration="1" Instrument="DMC: drums + bass"
				Note Time="31" Value="C#4" Duration="1" Instrument="DMC: drums + bass" CutDelay="6"
				Note Time="32" Value="C#4" Duration="4" Instrument="DMC: drums + bass" CutDelay="6"
				Note Time="36" Value="D#4" Duration="1" Instrument="DMC: drums + bass"
				Note Time="37" Value="D#4" Duration="1" Instrument="DMC: drums + bass" CutDelay="6"
				Note Time="38" Value="D#4" Duration="1" Instrument="DMC: drums + bass" CutDelay="6"
				Note Time="39" Value="D#4" Duration="1" Instrument="DMC: drums + bass"
				Note Time="40" Value="D#4" Duration="1" Instrument="DMC: drums + bass" CutDelay="6"
				Note Time="41" Value="D#4" Duration="1" Instrument="DMC: drums + bass" CutDelay="6"
				Note Time="42" Value="D#4" Duration="1" Instrument="DMC: drums + bass"
				Note Time="43" Value="D#4" Duration="1" Instrument="DMC: drums + bass" CutDelay="6"
				Note Time="44" Value="D#4" Duration="4" Instrument="DMC: drums + bass" CutDelay="6"
			Pattern Name="03" Color="997c73"
				Note Time="0" Value="F3" Duration="2" Instrument="DMC: drums + bass"
				Note Time="2" Value="F3" Duration="1" Instrument="DMC: drums + bass"
				Note Time="3" Value="F3" Duration="2" Instrument="DMC: drums + bass"
				Note Time="5" Value="F3" Duration="1" Instrument="DMC: drums + bass"
				Note Time="6" Value="F3" Duration="2" Instrument="DMC: drums + bass"
				Note Time="8" Value="G#4" Duration="1" Instrument="DMC: drums + bass"
				Note Time="9" Value="A#4" Duration="1" Instrument="DMC: drums + bass"
				Note Time="10" Value="A#4" Duration="1" Instrument="DMC: drums + bass"
				Note Time="11" Value="F4" Duration="1" Instrument="DMC: drums + bass"
				Note Time="12" Value="F3" Duration="2" Instrument="DMC: drums + bass"
				Note Time="14" Value="F3" Duration="1" Instrument="DMC: drums + bass"
				Note Time="15" Value="F3" Duration="2" Instrument="DMC: drums + bass"
				Note Time="17" Value="F3" Duration="1" Instrument="DMC: drums + bass"
				Note Time="18" Value="F3" Duration="2" Instrument="DMC: drums + bass"
				Note Time="20" Value="G#3" Duration="1" Instrument="DMC: drums + bass"
				Note Time="21" Value="A#3" Duration="1" Instrument="DMC: drums + bass"
				Note Time="22" Value="A#3" Duration="1" Instrument="DMC: drums + bass"
				Note Time="23" Value="F3" Duration="1" Instrument="DMC: drums + bass"
				Note Time="24" Value="F3" Duration="2" Instrument="DMC: drums + bass"
				Note Time="26" Value="F3" Duration="1" Instrument="DMC: drums + bass"
				Note Time="27" Value="F3" Duration="2" Instrument="DMC: drums + bass"
				Note Time="29" Value="F3" Duration="1" Instrument="DMC: drums + bass"
				Note Time="30" Value="F3" Duration="2" Instrument="DMC: drums + bass"
				Note Time="32" Value="G#4" Duration="1" Instrument="DMC: drums + bass"
				Note Time="33" Value="A#4" Duration="1" Instrument="DMC: drums + bass"
				Note Time="34" Value="A#4" Duration="1" Instrument="DMC: drums + bass"
				Note Time="35" Value="F4" Duration="1" Instrument="DMC: drums + bass"
				Note Time="36" Value="F3" Duration="2" Instrument="DMC: drums + bass"
				Note Time="38" Value="F3" Duration="1" Instrument="DMC: drums + bass"
				Note Time="39" Value="F3" Duration="2" Instrument="DMC: drums + bass"
				Note Time="41" Value="F3" Duration="1" Instrument="DMC: drums + bass"
				Note Time="42" Value="F3" Duration="2" Instrument="DMC: drums + bass"
				Note Time="44" Value="G#4" Duration="1" Instrument="DMC: drums + bass"
				Note Time="45" Value="A#4" Duration="1" Instrument="DMC: drums + bass"
				Note Time="46" Value="A#4" Duration="1" Instrument="DMC: drums + bass"
				Note Time="47" Value="F4" Duration="1" Instrument="DMC: drums + bass"
			Pattern Name="04" Color="ffe461"
				Note Time="0" Value="F3" Duration="2" Instrument="DMC: drums + bass"
				Note Time="2" Value="F3" Duration="1" Instrument="DMC: drums + bass"
				Note Time="3" Value="F3" Duration="2" Instrument="DMC: drums + bass"
				Note Time="5" Value="F3" Duration="1" Instrument="DMC: drums + bass"
				Note Time="6" Value="F3" Duration="2" Instrument="DMC: drums + bass"
				Note Time="8" Value="G#4" Duration="1" Instrument="DMC: drums + bass"
				Note Time="9" Value="A#4" Duration="1" Instrument="DMC: drums + bass"
				Note Time="10" Value="A#4" Duration="1" Instrument="DMC: drums + bass"
				Note Time="11" Value="F4" Duration="1" Instrument="DMC: drums + bass"
				Note Time="12" Value="F3" Duration="2" Instrument="DMC: drums + bass"
				Note Time="14" Value="F3" Duration="1" Instrument="DMC: drums + bass"
				Note Time="15" Value="F3" Duration="2" Instrument="DMC: drums + bass"
				Note Time="17" Value="F3" Duration="1" Instrument="DMC: drums + bass"
				Note Time="18" Value="F3" Duration="2" Instrument="DMC: drums + bass"
				Note Time="20" Value="G#3" Duration="1" Instrument="DMC: drums + bass"
				Note Time="21" Value="A#3" Duration="1" Instrument="DMC: drums + bass"
				Note Time="22" Value="A#3" Duration="1" Instrument="DMC: drums + bass"
				Note Time="23" Value="F3" Duration="1" Instrument="DMC: drums + bass"
				Note Time="24" Value="C#3" Duration="2" Instrument="DMC: drums + bass"
				Note Time="26" Value="C#3" Duration="1" Instrument="DMC: drums + bass"
				Note Time="27" Value="C#3" Duration="2" Instrument="DMC: drums + bass"
				Note Time="29" Value="C#3" Duration="1" Instrument="DMC: drums + bass"
				Note Time="30" Value="C#3" Duration="2" Instrument="DMC: drums + bass"
				Note Time="32" Value="G#4" Duration="1" Instrument="DMC: drums + bass"
				Note Time="33" Value="A#4" Duration="1" Instrument="DMC: drums + bass"
				Note Time="34" Value="A#4" Duration="1" Instrument="DMC: drums + bass"
				Note Time="35" Value="F4" Duration="1" Instrument="DMC: drums + bass"
				Note Time="36" Value="D#3" Duration="2" Instrument="DMC: drums + bass"
				Note Time="38" Value="D#3" Duration="1" Instrument="DMC: drums + bass"
				Note Time="39" Value="D#3" Duration="2" Instrument="DMC: drums + bass"
				Note Time="41" Value="D#3" Duration="1" Instrument="DMC: drums + bass"
				Note Time="42" Value="D#3" Duration="2" Instrument="DMC: drums + bass"
				Note Time="44" Value="G#4" Duration="1" Instrument="DMC: drums + bass"
				Note Time="45" Value="A#4" Duration="1" Instrument="DMC: drums + bass"
				Note Time="46" Value="A#3" Duration="1" Instrument="DMC: drums + bass"
				Note Time="47" Value="F4" Duration="1" Instrument="DMC: drums + bass"
			PatternInstance Time="0" Pattern="01"
			PatternInstance Time="1" Pattern="01"
			PatternInstance Time="2" Pattern="01"
			PatternInstance Time="3" Pattern="01"
			PatternInstance Time="4" Pattern="02"
			PatternInstance Time="5" Pattern="02"
			PatternInstance Time="7" Pattern="03"
			PatternInstance Time="8" Pattern="04"
			PatternInstance Time="9" Pattern="04"
			PatternInstance Time="10" Pattern="01"
			PatternInstance Time="11" Pattern="02"
			PatternInstance Time="12" Pattern="02"
	Song Name="custom_chaozfantasy" Color="3ec4ff" Folder="Custom" Length="32" LoopPoint="0" PatternLength="32" BeatLength="4" FamiTrackerTempo="162" FamiTrackerSpeed="6"
		Channel Type="Square1"
			Pattern Name="00" Color="b75bde"
				Note Time="0" Value="Stop"
			Pattern Name="01" Color="ff8655"
				Note Time="0" Value="G1" Duration="32" Instrument="DMC: drums + bass" Volume="1" DutyCycle="1"
			Pattern Name="02" Color="dad960"
				Note Time="0" Value="A1" Duration="32" Instrument="DMC: drums + bass" Volume="2"
			Pattern Name="03" Color="89ffff"
				Note Time="0" Value="B1" Duration="32" Instrument="DMC: drums + bass" Volume="3"
			Pattern Name="04" Color="ba93fe"
				Note Time="0" Value="G1" Duration="32" Instrument="DMC: drums + bass"
			Pattern Name="20" Color="c9aa9f"
				Note Time="0" Value="A1" Duration="32" Instrument="DMC: drums + bass"
			Pattern Name="05" Color="ffff77"
				Note Time="0" Value="B2" Duration="2" Instrument="Instrument 2" Volume="15" DutyCycle="0"
				Note Time="2" Value="F#3" Duration="2" Instrument="Instrument 2"
				Note Time="4" Value="D4" Duration="2" Instrument="Instrument 2"
				Note Time="6" Value="B2" Duration="2" Instrument="Instrument 2"
				Note Time="8" Value="F#3" Duration="2" Instrument="Instrument 2"
				Note Time="10" Value="D4" Duration="2" Instrument="Instrument 2"
				Note Time="12" Value="B2" Duration="2" Instrument="Instrument 2"
				Note Time="14" Value="F#3" Duration="2" Instrument="Instrument 2"
				Note Time="16" Value="E4" Duration="2" Instrument="Instrument 2"
				Note Time="18" Value="B2" Duration="2" Instrument="Instrument 2"
				Note Time="20" Value="F#3" Duration="2" Instrument="Instrument 2"
				Note Time="22" Value="E4" Duration="2" Instrument="Instrument 2"
				Note Time="24" Value="B2" Duration="2" Instrument="Instrument 2"
				Note Time="26" Value="F#3" Duration="2" Instrument="Instrument 2"
				Note Time="28" Value="E4" Duration="2" Instrument="Instrument 2"
				Note Time="30" Value="F#4" Duration="2" Instrument="Instrument 2"
			Pattern Name="06" Color="3cc5b7"
				Note Time="0" Value="G2" Duration="2" Instrument="Instrument 2"
				Note Time="2" Value="D3" Duration="2" Instrument="Instrument 2"
				Note Time="4" Value="B3" Duration="2" Instrument="Instrument 2"
				Note Time="6" Value="G2" Duration="2" Instrument="Instrument 2"
				Note Time="8" Value="D3" Duration="2" Instrument="Instrument 2"
				Note Time="10" Value="B3" Duration="2" Instrument="Instrument 2"
				Note Time="12" Value="G2" Duration="2" Instrument="Instrument 2"
				Note Time="14" Value="D3" Duration="2" Instrument="Instrument 2"
				Note Time="16" Value="D4" Duration="2" Instrument="Instrument 2"
				Note Time="18" Value="G2" Duration="2" Instrument="Instrument 2"
				Note Time="20" Value="D3" Duration="2" Instrument="Instrument 2"
				Note Time="22" Value="D4" Duration="2" Instrument="Instrument 2"
				Note Time="24" Value="G2" Duration="2" Instrument="Instrument 2"
				Note Time="26" Value="D3" Duration="2" Instrument="Instrument 2"
				Note Time="28" Value="E4" Duration="2" Instrument="Instrument 2"
				Note Time="30" Value="D4" Duration="2" Instrument="Instrument 2"
			Pattern Name="07" Color="6c7bdb"
				Note Time="0" Value="A2" Duration="2" Instrument="Instrument 2"
				Note Time="2" Value="E3" Duration="2" Instrument="Instrument 2"
				Note Time="4" Value="C#4" Duration="2" Instrument="Instrument 2"
				Note Time="6" Value="A2" Duration="2" Instrument="Instrument 2"
				Note Time="8" Value="E3" Duration="2" Instrument="Instrument 2"
				Note Time="10" Value="C#4" Duration="2" Instrument="Instrument 2"
				Note Time="12" Value="A2" Duration="2" Instrument="Instrument 2"
				Note Time="14" Value="E3" Duration="2" Instrument="Instrument 2"
				Note Time="16" Value="C#4" Duration="2" Instrument="Instrument 2"
				Note Time="18" Value="A2" Duration="2" Instrument="Instrument 2"
				Note Time="20" Value="E3" Duration="2" Instrument="Instrument 2"
				Note Time="22" Value="C#4" Duration="2" Instrument="Instrument 2"
				Note Time="24" Value="A2" Duration="2" Instrument="Instrument 2"
				Note Time="26" Value="E3" Duration="2" Instrument="Instrument 2"
				Note Time="28" Value="D4" Duration="2" Instrument="Instrument 2"
				Note Time="30" Value="C#4" Duration="2" Instrument="Instrument 2"
			Pattern Name="08" Color="ff6464"
				Note Time="0" Value="B2" Duration="2" Instrument="Instrument 2"
				Note Time="2" Value="F#3" Duration="2" Instrument="Instrument 2"
				Note Time="4" Value="B3" Duration="2" Instrument="Instrument 2"
				Note Time="6" Value="B2" Duration="2" Instrument="Instrument 2"
				Note Time="8" Value="F#3" Duration="2" Instrument="Instrument 2"
				Note Time="10" Value="B3" Duration="2" Instrument="Instrument 2"
				Note Time="12" Value="B2" Duration="2" Instrument="Instrument 2"
				Note Time="14" Value="F#3" Duration="2" Instrument="Instrument 2"
				Note Time="16" Value="C#4" Duration="2" Instrument="Instrument 2"
				Note Time="18" Value="B2" Duration="2" Instrument="Instrument 2"
				Note Time="20" Value="F#3" Duration="2" Instrument="Instrument 2"
				Note Time="22" Value="C#4" Duration="2" Instrument="Instrument 2"
				Note Time="24" Value="B2" Duration="2" Instrument="Instrument 2"
				Note Time="26" Value="F#3" Duration="2" Instrument="Instrument 2"
				Note Time="28" Value="C#4" Duration="2" Instrument="Instrument 2"
				Note Time="30" Value="D4" Duration="2" Instrument="Instrument 2"
			Pattern Name="09" Color="ffcb3c"
				Note Time="0" Value="B2" Duration="14" Instrument="sample"
				Note Time="14" Value="E3" Duration="1" Instrument="sample"
				Note Time="15" Value="F#3" Duration="1" Instrument="sample"
				Note Time="16" Value="G3" Duration="6" Instrument="sample"
				Note Time="22" Value="F#3" Duration="6" Instrument="sample"
				Note Time="28" Value="D3" Duration="4" Instrument="sample"
			Pattern Name="0A" Color="bdffc0"
				Note Time="0" Value="B3" Duration="14" Instrument="sample"
				Note Time="14" Value="B3" Duration="1" Instrument="sample"
				Note Time="15" Value="C#4" Duration="1" Instrument="sample"
				Note Time="16" Value="D4" Duration="6" Instrument="sample"
				Note Time="22" Value="C#4" Duration="6" Instrument="sample"
				Note Time="28" Value="A3" Duration="4" Instrument="sample"
			Pattern Name="0B" Color="7ee1ff"
				Note Time="0" Value="E4" Duration="6" Instrument="sample"
				Note Time="6" Value="D4" Duration="6" Instrument="sample"
				Note Time="12" Value="C#4" Duration="16" Instrument="sample"
				Note Time="28" Value="A3" Duration="4" Instrument="sample"
			Pattern Name="0C" Color="ff5a9f"
				Note Time="0" Value="B3" Duration="24" Instrument="sample"
			Pattern Name="0D" Color="ffd43c"
				Note Time="0" Value="B0" Duration="2" Instrument="blank string" Volume="10"
				Note Time="2" Value="F#1" Duration="1" Instrument="blank string" Volume="10"
				Note Time="3" Value="B0" Duration="1" Instrument="blank string" Volume="3"
				Note Time="4" Value="D2" Duration="1" Instrument="blank string" Volume="10"
				Note Time="5" Value="F#1" Duration="1" Instrument="blank string" Volume="3"
				Note Time="6" Value="B0" Duration="1" Instrument="blank string" Volume="10"
				Note Time="7" Value="D2" Duration="1" Instrument="blank string" Volume="3"
				Note Time="8" Value="F#1" Duration="1" Instrument="blank string" Volume="10"
				Note Time="9" Value="B0" Duration="1" Instrument="blank string" Volume="3"
				Note Time="10" Value="D2" Duration="1" Instrument="blank string" Volume="10"
				Note Time="11" Value="F#1" Duration="1" Instrument="blank string" Volume="3"
				Note Time="12" Value="B0" Duration="1" Instrument="blank string" Volume="10"
				Note Time="13" Value="D2" Duration="1" Instrument="blank string" Volume="3"
				Note Time="14" Value="F#1" Duration="1" Instrument="blank string" Volume="10"
				Note Time="15" Value="B0" Duration="1" Instrument="blank string" Volume="3"
				Note Time="16" Value="E2" Duration="1" Instrument="blank string" Volume="10"
				Note Time="17" Value="F#1" Duration="1" Instrument="blank string" Volume="3"
				Note Time="18" Value="B0" Duration="1" Instrument="blank string" Volume="10"
				Note Time="19" Value="E2" Duration="1" Instrument="blank string" Volume="3"
				Note Time="20" Value="F#1" Duration="1" Instrument="blank string" Volume="10"
				Note Time="21" Value="B0" Duration="1" Instrument="blank string" Volume="3"
				Note Time="22" Value="E2" Duration="1" Instrument="blank string" Volume="10"
				Note Time="23" Value="F#1" Duration="1" Instrument="blank string" Volume="3"
				Note Time="24" Value="B0" Duration="1" Instrument="blank string" Volume="10"
				Note Time="25" Value="E2" Duration="1" Instrument="blank string" Volume="3"
				Note Time="26" Value="F#1" Duration="1" Instrument="blank string" Volume="10"
				Note Time="27" Value="B0" Duration="1" Instrument="blank string" Volume="3"
				Note Time="28" Value="E2" Duration="1" Instrument="blank string" Volume="10"
				Note Time="29" Value="F#1" Duration="1" Instrument="blank string" Volume="3"
				Note Time="30" Value="F#2" Duration="1" Instrument="blank string" Volume="10"
				Note Time="31" Value="E2" Duration="1" Instrument="blank string" Volume="3"
			Pattern Name="0E" Color="b8ef7e"
				Note Time="0" Value="G0" Duration="1" Instrument="blank string" Volume="10"
				Note Time="1" Value="F#2" Duration="1" Instrument="blank string" Volume="3"
				Note Time="2" Value="D1" Duration="1" Instrument="blank string" Volume="10"
				Note Time="3" Value="G0" Duration="1" Instrument="blank string" Volume="3"
				Note Time="4" Value="B1" Duration="1" Instrument="blank string" Volume="10"
				Note Time="5" Value="D1" Duration="1" Instrument="blank string" Volume="3"
				Note Time="6" Value="G0" Duration="1" Instrument="blank string" Volume="10"
				Note Time="7" Value="B1" Duration="1" Instrument="blank string" Volume="3"
				Note Time="8" Value="D1" Duration="1" Instrument="blank string" Volume="10"
				Note Time="9" Value="G0" Duration="1" Instrument="blank string" Volume="3"
				Note Time="10" Value="B1" Duration="1" Instrument="blank string" Volume="10"
				Note Time="11" Value="D1" Duration="1" Instrument="blank string" Volume="3"
				Note Time="12" Value="G0" Duration="1" Instrument="blank string" Volume="10"
				Note Time="13" Value="B1" Duration="1" Instrument="blank string" Volume="3"
				Note Time="14" Value="D1" Duration="1" Instrument="blank string" Volume="10"
				Note Time="15" Value="G0" Duration="1" Instrument="blank string" Volume="3"
				Note Time="16" Value="D2" Duration="1" Instrument="blank string" Volume="10"
				Note Time="17" Value="D1" Duration="1" Instrument="blank string" Volume="3"
				Note Time="18" Value="G0" Duration="1" Instrument="blank string" Volume="10"
				Note Time="19" Value="D2" Duration="1" Instrument="blank string" Volume="3"
				Note Time="20" Value="D1" Duration="1" Instrument="blank string" Volume="10"
				Note Time="21" Value="G0" Duration="1" Instrument="blank string" Volume="3"
				Note Time="22" Value="D2" Duration="1" Instrument="blank string" Volume="10"
				Note Time="23" Value="D1" Duration="1" Instrument="blank string" Volume="3"
				Note Time="24" Value="G0" Duration="1" Instrument="blank string" Volume="10"
				Note Time="25" Value="D2" Duration="1" Instrument="blank string" Volume="3"
				Note Time="26" Value="D1" Duration="1" Instrument="blank string" Volume="10"
				Note Time="27" Value="G0" Duration="1" Instrument="blank string" Volume="3"
				Note Time="28" Value="E2" Duration="1" Instrument="blank string" Volume="10"
				Note Time="29" Value="D1" Duration="1" Instrument="blank string" Volume="3"
				Note Time="30" Value="D2" Duration="1" Instrument="blank string" Volume="10"
				Note Time="31" Value="E2" Duration="1" Instrument="blank string" Volume="3"
			Pattern Name="0F" Color="3ec4ff"
				Note Time="0" Value="A0" Duration="1" Instrument="blank string" Volume="10"
				Note Time="1" Value="D2" Duration="1" Instrument="blank string" Volume="3"
				Note Time="2" Value="E1" Duration="1" Instrument="blank string" Volume="10"
				Note Time="3" Value="A0" Duration="1" Instrument="blank string" Volume="3"
				Note Time="4" Value="C#2" Duration="1" Instrument="blank string" Volume="10"
				Note Time="5" Value="E1" Duration="1" Instrument="blank string" Volume="3"
				Note Time="6" Value="A0" Duration="1" Instrument="blank string" Volume="10"
				Note Time="7" Value="C#2" Duration="1" Instrument="blank string" Volume="3"
				Note Time="8" Value="E1" Duration="1" Instrument="blank string" Volume="10"
				Note Time="9" Value="A0" Duration="1" Instrument="blank string" Volume="3"
				Note Time="10" Value="C#2" Duration="1" Instrument="blank string" Volume="10"
				Note Time="11" Value="E1" Duration="1" Instrument="blank string" Volume="3"
				Note Time="12" Value="A0" Duration="1" Instrument="blank string" Volume="10"
				Note Time="13" Value="C#2" Duration="1" Instrument="blank string" Volume="3"
				Note Time="14" Value="E1" Duration="1" Instrument="blank string" Volume="10"
				Note Time="15" Value="A0" Duration="1" Instrument="blank string" Volume="3"
				Note Time="16" Value="C#2" Duration="1" Instrument="blank string" Volume="10"
				Note Time="17" Value="E1" Duration="1" Instrument="blank string" Volume="3"
				Note Time="18" Value="A0" Duration="1" Instrument="blank string" Volume="10"
				Note Time="19" Value="C#2" Duration="1" Instrument="blank string" Volume="3"
				Note Time="20" Value="E1" Duration="1" Instrument="blank string" Volume="10"
				Note Time="21" Value="A0" Duration="1" Instrument="blank string" Volume="3"
				Note Time="22" Value="C#2" Duration="1" Instrument="blank string" Volume="10"
				Note Time="23" Value="E1" Duration="1" Instrument="blank string" Volume="3"
				Note Time="24" Value="A0" Duration="1" Instrument="blank string" Volume="10"
				Note Time="25" Value="C#2" Duration="1" Instrument="blank string" Volume="3"
				Note Time="26" Value="E1" Duration="1" Instrument="blank string" Volume="10"
				Note Time="27" Value="A0" Duration="1" Instrument="blank string" Volume="3"
				Note Time="28" Value="D2" Duration="1" Instrument="blank string" Volume="10"
				Note Time="29" Value="E1" Duration="1" Instrument="blank string" Volume="3"
				Note Time="30" Value="C#2" Duration="1" Instrument="blank string" Volume="10"
				Note Time="31" Value="D2" Duration="1" Instrument="blank string" Volume="3"
			Pattern Name="10" Color="a657d6"
				Note Time="0" Value="B0" Duration="1" Instrument="blank string" Volume="10"
				Note Time="1" Value="C#2" Duration="1" Instrument="blank string" Volume="3"
				Note Time="2" Value="F#1" Duration="1" Instrument="blank string" Volume="10"
				Note Time="3" Value="B0" Duration="1" Instrument="blank string" Volume="3"
				Note Time="4" Value="B1" Duration="1" Instrument="blank string" Volume="10"
				Note Time="5" Value="F#1" Duration="1" Instrument="blank string" Volume="3"
				Note Time="6" Value="B0" Duration="1" Instrument="blank string" Volume="10"
				Note Time="7" Value="B1" Duration="1" Instrument="blank string" Volume="3"
				Note Time="8" Value="F#1" Duration="1" Instrument="blank string" Volume="10"
				Note Time="9" Value="B0" Duration="1" Instrument="blank string" Volume="3"
				Note Time="10" Value="B1" Duration="1" Instrument="blank string" Volume="10"
				Note Time="11" Value="F#1" Duration="1" Instrument="blank string" Volume="3"
				Note Time="12" Value="B0" Duration="1" Instrument="blank string" Volume="10"
				Note Time="13" Value="B1" Duration="1" Instrument="blank string" Volume="3"
				Note Time="14" Value="F#1" Duration="1" Instrument="blank string" Volume="10"
				Note Time="15" Value="B0" Duration="1" Instrument="blank string" Volume="3"
				Note Time="16" Value="C#2" Duration="1" Instrument="blank string" Volume="10"
				Note Time="17" Value="F#1" Duration="1" Instrument="blank string" Volume="3"
				Note Time="18" Value="B0" Duration="1" Instrument="blank string" Volume="10"
				Note Time="19" Value="C#2" Duration="1" Instrument="blank string" Volume="3"
				Note Time="20" Value="F#1" Duration="1" Instrument="blank string" Volume="10"
				Note Time="21" Value="B0" Duration="1" Instrument="blank string" Volume="3"
				Note Time="22" Value="C#2" Duration="1" Instrument="blank string" Volume="10"
				Note Time="23" Value="F#1" Duration="1" Instrument="blank string" Volume="3"
				Note Time="24" Value="B0" Duration="1" Instrument="blank string" Volume="10"
				Note Time="25" Value="C#2" Duration="1" Instrument="blank string" Volume="3"
				Note Time="26" Value="F#1" Duration="1" Instrument="blank string" Volume="10"
				Note Time="27" Value="B0" Duration="1" Instrument="blank string" Volume="3"
				Note Time="28" Value="C#2" Duration="1" Instrument="blank string" Volume="10"
				Note Time="29" Value="F#1" Duration="1" Instrument="blank string" Volume="3"
				Note Time="30" Value="D2" Duration="1" Instrument="blank string" Volume="10"
				Note Time="31" Value="C#2" Duration="1" Instrument="blank string" Volume="3"
			PatternInstance Time="0" Pattern="00"
			PatternInstance Time="1" Pattern="01"
			PatternInstance Time="2" Pattern="02"
			PatternInstance Time="3" Pattern="03"
			PatternInstance Time="4" Pattern="03"
			PatternInstance Time="5" Pattern="04"
			PatternInstance Time="6" Pattern="20"
			PatternInstance Time="7" Pattern="03"
			PatternInstance Time="8" Pattern="05"
			PatternInstance Time="9" Pattern="06"
			PatternInstance Time="10" Pattern="07"
			PatternInstance Time="11" Pattern="08"
			PatternInstance Time="12" Pattern="05"
			PatternInstance Time="13" Pattern="06"
			PatternInstance Time="14" Pattern="07"
			PatternInstance Time="15" Pattern="04"
			PatternInstance Time="16" Pattern="09"
			PatternInstance Time="17" Pattern="0A"
			PatternInstance Time="18" Pattern="0B"
			PatternInstance Time="19" Pattern="0C"
			PatternInstance Time="20" Pattern="09"
			PatternInstance Time="21" Pattern="0A"
			PatternInstance Time="22" Pattern="0B"
			PatternInstance Time="23" Pattern="0C"
			PatternInstance Time="24" Pattern="0D"
			PatternInstance Time="25" Pattern="0E"
			PatternInstance Time="26" Pattern="0F"
			PatternInstance Time="27" Pattern="10"
			PatternInstance Time="28" Pattern="0D"
			PatternInstance Time="29" Pattern="0E"
			PatternInstance Time="30" Pattern="0F"
			PatternInstance Time="31" Pattern="10"
		Channel Type="Square2"
			Pattern Name="01" Color="ff7f51"
				Note Time="0" Value="B1" Duration="2" Instrument="echo" Volume="15" DutyCycle="2"
				Note Time="2" Value="F#2" Duration="1" Instrument="echo" Volume="15"
				Note Time="3" Value="B1" Duration="1" Instrument="blank instant decay" Volume="3"
				Note Time="4" Value="D3" Duration="1" Instrument="echo" Volume="15"
				Note Time="5" Value="F#2" Duration="1" Instrument="blank instant decay" Volume="3"
				Note Time="6" Value="B1" Duration="1" Instrument="echo" Volume="15"
				Note Time="7" Value="D3" Duration="1" Instrument="blank instant decay" Volume="3"
				Note Time="8" Value="F#2" Duration="1" Instrument="echo" Volume="15"
				Note Time="9" Value="B1" Duration="1" Instrument="blank instant decay" Volume="3"
				Note Time="10" Value="D3" Duration="1" Instrument="echo" Volume="15"
				Note Time="11" Value="F#2" Duration="1" Instrument="blank instant decay" Volume="3"
				Note Time="12" Value="B1" Duration="1" Instrument="echo" Volume="15"
				Note Time="13" Value="D3" Duration="1" Instrument="blank instant decay" Volume="3"
				Note Time="14" Value="F#2" Duration="1" Instrument="echo" Volume="15"
				Note Time="15" Value="B1" Duration="1" Instrument="blank instant decay" Volume="3"
				Note Time="16" Value="E3" Duration="1" Instrument="echo" Volume="15"
				Note Time="17" Value="F#2" Duration="1" Instrument="blank instant decay" Volume="3"
				Note Time="18" Value="B1" Duration="1" Instrument="echo" Volume="15"
				Note Time="19" Value="E3" Duration="1" Instrument="blank instant decay" Volume="3"
				Note Time="20" Value="F#2" Duration="1" Instrument="echo" Volume="15"
				Note Time="21" Value="B1" Duration="1" Instrument="blank instant decay" Volume="3"
				Note Time="22" Value="E3" Duration="1" Instrument="echo" Volume="15"
				Note Time="23" Value="F#2" Duration="1" Instrument="blank instant decay" Volume="3"
				Note Time="24" Value="B1" Duration="1" Instrument="echo" Volume="15"
				Note Time="25" Value="E3" Duration="1" Instrument="blank instant decay" Volume="3"
				Note Time="26" Value="F#2" Duration="1" Instrument="echo" Volume="15"
				Note Time="27" Value="B1" Duration="1" Instrument="blank instant decay" Volume="3"
				Note Time="28" Value="E3" Duration="1" Instrument="echo" Volume="15"
				Note Time="29" Value="F#2" Duration="1" Instrument="blank instant decay" Volume="3"
				Note Time="30" Value="F#3" Duration="1" Instrument="echo" Volume="15"
				Note Time="31" Value="E3" Duration="1" Instrument="blank instant decay" Volume="3"
			Pattern Name="02" Color="ffffb1"
				Note Time="0" Value="G1" Duration="1" Instrument="echo" Volume="15"
				Note Time="1" Value="F#3" Duration="1" Instrument="blank instant decay" Volume="3"
				Note Time="2" Value="D2" Duration="1" Instrument="echo" Volume="15"
				Note Time="3" Value="G1" Duration="1" Instrument="blank instant decay" Volume="3"
				Note Time="4" Value="B2" Duration="1" Instrument="echo" Volume="15"
				Note Time="5" Value="D2" Duration="1" Instrument="blank instant decay" Volume="3"
				Note Time="6" Value="G1" Duration="1" Instrument="echo" Volume="15"
				Note Time="7" Value="B2" Duration="1" Instrument="blank instant decay" Volume="3"
				Note Time="8" Value="D2" Duration="1" Instrument="echo" Volume="15"
				Note Time="9" Value="G1" Duration="1" Instrument="blank instant decay" Volume="3"
				Note Time="10" Value="B2" Duration="1" Instrument="echo" Volume="15"
				Note Time="11" Value="D2" Duration="1" Instrument="blank instant decay" Volume="3"
				Note Time="12" Value="G1" Duration="1" Instrument="echo" Volume="15"
				Note Time="13" Value="B2" Duration="1" Instrument="blank instant decay" Volume="3"
				Note Time="14" Value="D2" Duration="1" Instrument="echo" Volume="15"
				Note Time="15" Value="G1" Duration="1" Instrument="blank instant decay" Volume="3"
				Note Time="16" Value="D3" Duration="1" Instrument="echo" Volume="15"
				Note Time="17" Value="D2" Duration="1" Instrument="blank instant decay" Volume="3"
				Note Time="18" Value="G1" Duration="1" Instrument="echo" Volume="15"
				Note Time="19" Value="D3" Duration="1" Instrument="blank instant decay" Volume="3"
				Note Time="20" Value="D2" Duration="1" Instrument="echo" Volume="15"
				Note Time="21" Value="G1" Duration="1" Instrument="blank instant decay" Volume="3"
				Note Time="22" Value="D3" Duration="1" Instrument="echo" Volume="15"
				Note Time="23" Value="D2" Duration="1" Instrument="blank instant decay" Volume="3"
				Note Time="24" Value="G1" Duration="1" Instrument="echo" Volume="15"
				Note Time="25" Value="D3" Duration="1" Instrument="blank instant decay" Volume="3"
				Note Time="26" Value="D2" Duration="1" Instrument="echo" Volume="15"
				Note Time="27" Value="G1" Duration="1" Instrument="blank instant decay" Volume="3"
				Note Time="28" Value="E3" Duration="1" Instrument="echo" Volume="15"
				Note Time="29" Value="D2" Duration="1" Instrument="blank instant decay" Volume="3"
				Note Time="30" Value="D3" Duration="1" Instrument="echo" Volume="15"
				Note Time="31" Value="E3" Duration="1" Instrument="blank instant decay" Volume="3"
			Pattern Name="03" Color="62ffff"
				Note Time="0" Value="A1" Duration="1" Instrument="echo" Volume="15"
				Note Time="1" Value="D3" Duration="1" Instrument="blank instant decay" Volume="3"
				Note Time="2" Value="E2" Duration="1" Instrument="echo" Volume="15"
				Note Time="3" Value="A1" Duration="1" Instrument="blank instant decay" Volume="3"
				Note Time="4" Value="C#3" Duration="1" Instrument="echo" Volume="15"
				Note Time="5" Value="E2" Duration="1" Instrument="blank instant decay" Volume="3"
				Note Time="6" Value="A1" Duration="1" Instrument="echo" Volume="15"
				Note Time="7" Value="C#3" Duration="1" Instrument="blank instant decay" Volume="3"
				Note Time="8" Value="E2" Duration="1" Instrument="echo" Volume="15"
				Note Time="9" Value="A1" Duration="1" Instrument="blank instant decay" Volume="3"
				Note Time="10" Value="C#3" Duration="1" Instrument="echo" Volume="15"
				Note Time="11" Value="E2" Duration="1" Instrument="blank instant decay" Volume="3"
				Note Time="12" Value="A1" Duration="1" Instrument="echo" Volume="15"
				Note Time="13" Value="C#3" Duration="1" Instrument="blank instant decay" Volume="3"
				Note Time="14" Value="E2" Duration="1" Instrument="echo" Volume="15"
				Note Time="15" Value="A1" Duration="1" Instrument="blank instant decay" Volume="3"
				Note Time="16" Value="C#3" Duration="1" Instrument="echo" Volume="15"
				Note Time="17" Value="E2" Duration="1" Instrument="blank instant decay" Volume="3"
				Note Time="18" Value="A1" Duration="1" Instrument="echo" Volume="15"
				Note Time="19" Value="C#3" Duration="1" Instrument="blank instant decay" Volume="3"
				Note Time="20" Value="E2" Duration="1" Instrument="echo" Volume="15"
				Note Time="21" Value="A1" Duration="1" Instrument="blank instant decay" Volume="3"
				Note Time="22" Value="C#3" Duration="1" Instrument="echo" Volume="15"
				Note Time="23" Value="E2" Duration="1" Instrument="blank instant decay" Volume="3"
				Note Time="24" Value="A1" Duration="1" Instrument="echo" Volume="15"
				Note Time="25" Value="C#3" Duration="1" Instrument="blank instant decay" Volume="3"
				Note Time="26" Value="E2" Duration="1" Instrument="echo" Volume="15"
				Note Time="27" Value="A1" Duration="1" Instrument="blank instant decay" Volume="3"
				Note Time="28" Value="D3" Duration="1" Instrument="echo" Volume="15"
				Note Time="29" Value="E2" Duration="1" Instrument="blank instant decay" Volume="3"
				Note Time="30" Value="C#3" Duration="1" Instrument="echo" Volume="15"
				Note Time="31" Value="D3" Duration="1" Instrument="blank instant decay" Volume="3"
			Pattern Name="04" Color="a376f3"
				Note Time="0" Value="B1" Duration="1" Instrument="echo" Volume="15"
				Note Time="1" Value="C#3" Duration="1" Instrument="blank instant decay" Volume="3"
				Note Time="2" Value="F#2" Duration="1" Instrument="echo" Volume="15"
				Note Time="3" Value="B1" Duration="1" Instrument="blank instant decay" Volume="3"
				Note Time="4" Value="B2" Duration="1" Instrument="echo" Volume="15"
				Note Time="5" Value="F#2" Duration="1" Instrument="blank instant decay" Volume="3"
				Note Time="6" Value="B1" Duration="1" Instrument="echo" Volume="15"
				Note Time="7" Value="B2" Duration="1" Instrument="blank instant decay" Volume="3"
				Note Time="8" Value="F#2" Duration="1" Instrument="echo" Volume="15"
				Note Time="9" Value="B1" Duration="1" Instrument="blank instant decay" Volume="3"
				Note Time="10" Value="B2" Duration="1" Instrument="echo" Volume="15"
				Note Time="11" Value="F#2" Duration="1" Instrument="blank instant decay" Volume="3"
				Note Time="12" Value="B1" Duration="1" Instrument="echo" Volume="15"
				Note Time="13" Value="B2" Duration="1" Instrument="blank instant decay" Volume="3"
				Note Time="14" Value="F#2" Duration="1" Instrument="echo" Volume="15"
				Note Time="15" Value="B1" Duration="1" Instrument="blank instant decay" Volume="3"
				Note Time="16" Value="C#3" Duration="1" Instrument="echo" Volume="15"
				Note Time="17" Value="F#2" Duration="1" Instrument="blank instant decay" Volume="3"
				Note Time="18" Value="B1" Duration="1" Instrument="echo" Volume="15"
				Note Time="19" Value="C#3" Duration="1" Instrument="blank instant decay" Volume="3"
				Note Time="20" Value="F#2" Duration="1" Instrument="echo" Volume="15"
				Note Time="21" Value="B1" Duration="1" Instrument="blank instant decay" Volume="3"
				Note Time="22" Value="C#3" Duration="1" Instrument="echo" Volume="15"
				Note Time="23" Value="F#2" Duration="1" Instrument="blank instant decay" Volume="3"
				Note Time="24" Value="B1" Duration="1" Instrument="echo" Volume="15"
				Note Time="25" Value="C#3" Duration="1" Instrument="blank instant decay" Volume="3"
				Note Time="26" Value="F#2" Duration="1" Instrument="echo" Volume="15"
				Note Time="27" Value="B1" Duration="1" Instrument="blank instant decay" Volume="3"
				Note Time="28" Value="C#3" Duration="1" Instrument="echo" Volume="15"
				Note Time="29" Value="F#2" Duration="1" Instrument="blank instant decay" Volume="3"
				Note Time="30" Value="D3" Duration="1" Instrument="echo" Volume="15"
				Note Time="31" Value="C#3" Duration="1" Instrument="blank instant decay" Volume="3"
			PatternInstance Time="0" Pattern="01"
			PatternInstance Time="1" Pattern="02"
			PatternInstance Time="2" Pattern="03"
			PatternInstance Time="3" Pattern="04"
			PatternInstance Time="4" Pattern="01"
			PatternInstance Time="5" Pattern="02"
			PatternInstance Time="6" Pattern="03"
			PatternInstance Time="7" Pattern="04"
			PatternInstance Time="8" Pattern="01"
			PatternInstance Time="9" Pattern="02"
			PatternInstance Time="10" Pattern="03"
			PatternInstance Time="11" Pattern="04"
			PatternInstance Time="12" Pattern="01"
			PatternInstance Time="13" Pattern="02"
			PatternInstance Time="14" Pattern="03"
			PatternInstance Time="15" Pattern="04"
			PatternInstance Time="16" Pattern="01"
			PatternInstance Time="17" Pattern="02"
			PatternInstance Time="18" Pattern="03"
			PatternInstance Time="19" Pattern="04"
			PatternInstance Time="20" Pattern="01"
			PatternInstance Time="21" Pattern="02"
			PatternInstance Time="22" Pattern="03"
			PatternInstance Time="23" Pattern="04"
			PatternInstance Time="24" Pattern="01"
			PatternInstance Time="25" Pattern="02"
			PatternInstance Time="26" Pattern="03"
			PatternInstance Time="27" Pattern="04"
			PatternInstance Time="28" Pattern="01"
			PatternInstance Time="29" Pattern="02"
			PatternInstance Time="30" Pattern="03"
			PatternInstance Time="31" Pattern="04"
		Channel Type="Triangle"
			Pattern Name="00" Color="b59184"
				Note Time="0" Value="Stop"
			Pattern Name="01" Color="ffff71"
				Note Time="0" Value="B2" Duration="32" Instrument="DMC: drums + bass" VibratoSpeed="0" VibratoDepth="0"
				Note Time="4" VibratoSpeed="6" VibratoDepth="3"
			Pattern Name="02" Color="3cb5a7"
				Note Time="0" Value="G2" Duration="32" Instrument="DMC: drums + bass" VibratoSpeed="0" VibratoDepth="0"
				Note Time="4" VibratoSpeed="6" VibratoDepth="3"
			Pattern Name="03" Color="6471cf"
				Note Time="0" Value="A2" Duration="32" Instrument="DMC: drums + bass" VibratoSpeed="0" VibratoDepth="0"
				Note Time="4" VibratoSpeed="6" VibratoDepth="3"
			PatternInstance Time="0" Pattern="00"
			PatternInstance Time="4" Pattern="01"
			PatternInstance Time="5" Pattern="02"
			PatternInstance Time="6" Pattern="03"
			PatternInstance Time="7" Pattern="01"
			PatternInstance Time="8" Pattern="01"
			PatternInstance Time="9" Pattern="02"
			PatternInstance Time="10" Pattern="03"
			PatternInstance Time="11" Pattern="01"
			PatternInstance Time="12" Pattern="01"
			PatternInstance Time="13" Pattern="02"
			PatternInstance Time="14" Pattern="03"
			PatternInstance Time="15" Pattern="01"
			PatternInstance Time="16" Pattern="00"
			PatternInstance Time="24" Pattern="01"
			PatternInstance Time="25" Pattern="02"
			PatternInstance Time="26" Pattern="03"
			PatternInstance Time="27" Pattern="01"
			PatternInstance Time="28" Pattern="01"
			PatternInstance Time="29" Pattern="02"
			PatternInstance Time="30" Pattern="03"
			PatternInstance Time="31" Pattern="01"
		Channel Type="Noise"
			Pattern Name="00" Color="ffff8b"
				Note Time="0" Value="Stop"
			Pattern Name="01" Color="a2f7a6"
				Note Time="16" Value="G3" Duration="3" Instrument="rel hats"
				Note Time="19" Value="F3" Duration="3" Instrument="rel hats"
				Note Time="22" Value="G3" Duration="4" Instrument="rel hats"
				Note Time="26" Value="G2" Duration="2" Instrument="kick"
				Note Time="28" Value="G#2" Duration="1" Instrument="snare"
				Note Time="29" Value="G#2" Duration="1" Instrument="snare"
				Note Time="30" Value="G#2" Duration="1" Instrument="snare"
				Note Time="31" Value="G#2" Duration="1" Instrument="snare"
			Pattern Name="04" Color="5dd2ff"
				Note Time="0" Value="G2" Duration="1" Instrument="kick"
				Note Time="1" Value="A#3" Duration="1" Instrument="hat"
				Note Time="2" Value="G#3" Duration="1" Instrument="hat"
				Note Time="3" Value="A#3" Duration="1" Instrument="hat"
				Note Time="4" Value="G2" Duration="1" Instrument="snare"
				Note Time="5" Value="A#3" Duration="1" Instrument="hat"
				Note Time="6" Value="G#3" Duration="1" Instrument="hat"
				Note Time="7" Value="A#3" Duration="1" Instrument="hat"
				Note Time="8" Value="G#3" Duration="1" Instrument="hat"
				Note Time="9" Value="A#3" Duration="1" Instrument="hat"
				Note Time="10" Value="G2" Duration="1" Instrument="kick"
				Note Time="11" Value="A#3" Duration="1" Instrument="hat"
				Note Time="12" Value="G2" Duration="1" Instrument="snare"
				Note Time="13" Value="A#3" Duration="1" Instrument="hat"
				Note Time="14" Value="G#3" Duration="1" Instrument="hat"
				Note Time="15" Value="A#3" Duration="1" Instrument="hat"
				Note Time="16" Value="G2" Duration="1" Instrument="kick"
				Note Time="17" Value="A#3" Duration="1" Instrument="hat"
				Note Time="18" Value="G#3" Duration="1" Instrument="hat"
				Note Time="19" Value="A#3" Duration="1" Instrument="hat"
				Note Time="20" Value="G2" Duration="1" Instrument="snare"
				Note Time="21" Value="A#3" Duration="1" Instrument="hat"
				Note Time="22" Value="G#3" Duration="1" Instrument="hat"
				Note Time="23" Value="A#3" Duration="1" Instrument="hat"
				Note Time="24" Value="G#3" Duration="1" Instrument="hat"
				Note Time="25" Value="A#3" Duration="1" Instrument="hat"
				Note Time="26" Value="G2" Duration="1" Instrument="kick"
				Note Time="27" Value="A#3" Duration="1" Instrument="hat"
				Note Time="28" Value="G2" Duration="1" Instrument="snare"
				Note Time="29" Value="A#3" Duration="1" Instrument="hat"
				Note Time="30" Value="G#3" Duration="1" Instrument="hat"
				Note Time="31" Value="A#3" Duration="1" Instrument="hat"
			Pattern Name="05" Color="ff579c"
				Note Time="0" Value="G2" Duration="1" Instrument="kick"
				Note Time="1" Value="A#3" Duration="1" Instrument="hat"
				Note Time="2" Value="G#3" Duration="1" Instrument="hat"
				Note Time="3" Value="A#3" Duration="1" Instrument="hat"
				Note Time="4" Value="G2" Duration="1" Instrument="snare"
				Note Time="5" Value="A#3" Duration="1" Instrument="hat"
				Note Time="6" Value="G#3" Duration="1" Instrument="hat"
				Note Time="7" Value="A#3" Duration="1" Instrument="hat"
				Note Time="8" Value="G#3" Duration="1" Instrument="hat"
				Note Time="9" Value="A#3" Duration="1" Instrument="hat"
				Note Time="10" Value="G2" Duration="1" Instrument="kick"
				Note Time="11" Value="A#3" Duration="1" Instrument="hat"
				Note Time="12" Value="G2" Duration="1" Instrument="snare"
				Note Time="13" Value="A#3" Duration="1" Instrument="hat"
				Note Time="14" Value="G#3" Duration="1" Instrument="hat"
				Note Time="15" Value="A#3" Duration="1" Instrument="hat"
				Note Time="16" Value="G2" Duration="1" Instrument="kick"
				Note Time="17" Value="A#3" Duration="1" Instrument="hat"
				Note Time="18" Value="G#3" Duration="1" Instrument="hat"
				Note Time="19" Value="A#3" Duration="1" Instrument="hat"
				Note Time="20" Value="G2" Duration="1" Instrument="snare"
				Note Time="21" Value="A#3" Duration="1" Instrument="hat"
				Note Time="22" Value="G2" Duration="1" Instrument="kick"
				Note Time="23" Value="A#3" Duration="1" Instrument="hat"
				Note Time="24" Value="G#3" Duration="1" Instrument="hat"
				Note Time="25" Value="A#3" Duration="1" Instrument="hat"
				Note Time="26" Value="G2" Duration="1" Instrument="kick"
				Note Time="27" Value="A#3" Duration="1" Instrument="hat"
				Note Time="28" Value="G2" Duration="1" Instrument="snare"
				Note Time="29" Value="A#3" Duration="1" Instrument="hat"
				Note Time="30" Value="G#3" Duration="1" Instrument="hat"
				Note Time="31" Value="A#3" Duration="1" Instrument="hat"
			Pattern Name="06" Color="ffc83c"
				Note Time="0" Value="G2" Duration="1" Instrument="kick"
				Note Time="1" Value="A#3" Duration="1" Instrument="hat"
				Note Time="2" Value="G#3" Duration="1" Instrument="hat"
				Note Time="3" Value="A#3" Duration="1" Instrument="hat"
				Note Time="4" Value="G2" Duration="1" Instrument="snare"
				Note Time="5" Value="A#3" Duration="1" Instrument="hat"
				Note Time="6" Value="G#3" Duration="1" Instrument="hat"
				Note Time="7" Value="A#3" Duration="1" Instrument="hat"
				Note Time="8" Value="G#3" Duration="1" Instrument="hat"
				Note Time="9" Value="A#3" Duration="1" Instrument="hat"
				Note Time="10" Value="G2" Duration="1" Instrument="kick"
				Note Time="11" Value="A#3" Duration="1" Instrument="hat"
				Note Time="12" Value="G2" Duration="1" Instrument="snare"
				Note Time="13" Value="A#3" Duration="1" Instrument="hat"
				Note Time="14" Value="G#3" Duration="1" Instrument="hat"
				Note Time="15" Value="A#3" Duration="1" Instrument="hat"
				Note Time="16" Value="G2" Duration="1" Instrument="kick"
				Note Time="17" Value="A#3" Duration="1" Instrument="hat"
				Note Time="18" Value="G#3" Duration="1" Instrument="hat"
				Note Time="19" Value="G2" Duration="1" Instrument="kick"
				Note Time="20" Value="G#3" Duration="1" Instrument="hat"
				Note Time="21" Value="A#3" Duration="1" Instrument="hat"
				Note Time="22" Value="G2" Duration="1" Instrument="kick"
				Note Time="23" Value="A#3" Duration="1" Instrument="hat"
				Note Time="24" Value="G#3" Duration="1" Instrument="hat"
				Note Time="25" Value="A#3" Duration="1" Instrument="hat"
				Note Time="26" Value="G2" Duration="1" Instrument="kick"
				Note Time="27" Value="A#3" Duration="1" Instrument="hat"
				Note Time="28" Value="G2" Duration="1" Instrument="snare"
				Note Time="29" Value="A#3" Duration="1" Instrument="hat"
				Note Time="30" Value="G#3" Duration="1" Instrument="hat"
				Note Time="31" Value="A#3" Duration="1" Instrument="hat"
			PatternInstance Time="0" Pattern="00"
			PatternInstance Time="7" Pattern="01"
			PatternInstance Time="8" Pattern="04"
			PatternInstance Time="9" Pattern="05"
			PatternInstance Time="10" Pattern="04"
			PatternInstance Time="11" Pattern="06"
			PatternInstance Time="12" Pattern="04"
			PatternInstance Time="13" Pattern="05"
			PatternInstance Time="14" Pattern="04"
			PatternInstance Time="15" Pattern="06"
			PatternInstance Time="16" Pattern="00"
			PatternInstance Time="20" Pattern="04"
			PatternInstance Time="21" Pattern="05"
			PatternInstance Time="22" Pattern="04"
			PatternInstance Time="23" Pattern="06"
			PatternInstance Time="24" Pattern="00"
			PatternInstance Time="25" Pattern="05"
			PatternInstance Time="26" Pattern="04"
			PatternInstance Time="27" Pattern="06"
			PatternInstance Time="28" Pattern="04"
			PatternInstance Time="29" Pattern="05"
			PatternInstance Time="30" Pattern="04"
			PatternInstance Time="31" Pattern="06"
		Channel Type="DPCM"
			Pattern Name="00" Color="a4db74"
				Note Time="0" Value="Stop"
			Pattern Name="01" Color="3eb3f9"
				Note Time="30" Value="E5" Duration="2" Instrument="DMC: drums + bass"
			Pattern Name="02" Color="f6a4ff"
				Note Time="0" Value="E5" Duration="30" Instrument="DMC: drums + bass"
				Note Time="30" Value="E5" Duration="2" Instrument="DMC: drums + bass"
			Pattern Name="03" Color="ffc6a1"
				Note Time="0" Value="E5" Duration="16" Instrument="DMC: drums + bass"
				Note Time="16" Value="F5" Duration="3" Instrument="DMC: drums + bass"
				Note Time="19" Value="F5" Duration="3" Instrument="DMC: drums + bass"
				Note Time="22" Value="F5" Duration="4" Instrument="DMC: drums + bass"
				Note Time="26" Value="E5" Duration="2" Instrument="DMC: drums + bass"
				Note Time="28" Value="F5" Duration="1" Instrument="DMC: drums + bass"
				Note Time="29" Value="F5" Duration="1" Instrument="DMC: drums + bass"
				Note Time="30" Value="F5" Duration="1" Instrument="DMC: drums + bass"
				Note Time="31" Value="F5" Duration="1" Instrument="DMC: drums + bass"
			Pattern Name="04" Color="ffff93"
				Note Time="0" Value="E5" Duration="4" Instrument="DMC: drums + bass"
				Note Time="4" Value="F5" Duration="6" Instrument="DMC: drums + bass"
				Note Time="10" Value="E5" Duration="2" Instrument="DMC: drums + bass"
				Note Time="12" Value="F5" Duration="4" Instrument="DMC: drums + bass"
				Note Time="16" Value="E5" Duration="4" Instrument="DMC: drums + bass"
				Note Time="20" Value="F5" Duration="6" Instrument="DMC: drums + bass"
				Note Time="26" Value="E5" Duration="2" Instrument="DMC: drums + bass"
				Note Time="28" Value="F5" Duration="4" Instrument="DMC: drums + bass"
			Pattern Name="05" Color="3cf8ff"
				Note Time="0" Value="E5" Duration="4" Instrument="DMC: drums + bass"
				Note Time="4" Value="F5" Duration="6" Instrument="DMC: drums + bass"
				Note Time="10" Value="E5" Duration="2" Instrument="DMC: drums + bass"
				Note Time="12" Value="F5" Duration="4" Instrument="DMC: drums + bass"
				Note Time="16" Value="E5" Duration="4" Instrument="DMC: drums + bass"
				Note Time="20" Value="F5" Duration="2" Instrument="DMC: drums + bass"
				Note Time="22" Value="E5" Duration="4" Instrument="DMC: drums + bass"
				Note Time="26" Value="E5" Duration="2" Instrument="DMC: drums + bass"
				Note Time="28" Value="F5" Duration="4" Instrument="DMC: drums + bass"
			Pattern Name="06" Color="9a71ed"
				Note Time="0" Value="E5" Duration="4" Instrument="DMC: drums + bass"
				Note Time="4" Value="F5" Duration="6" Instrument="DMC: drums + bass"
				Note Time="10" Value="E5" Duration="2" Instrument="DMC: drums + bass"
				Note Time="12" Value="F5" Duration="4" Instrument="DMC: drums + bass"
				Note Time="16" Value="E5" Duration="3" Instrument="DMC: drums + bass"
				Note Time="19" Value="E5" Duration="3" Instrument="DMC: drums + bass"
				Note Time="22" Value="E5" Duration="4" Instrument="DMC: drums + bass"
				Note Time="26" Value="E5" Duration="2" Instrument="DMC: drums + bass"
				Note Time="28" Value="F5" Duration="4" Instrument="DMC: drums + bass"
			PatternInstance Time="0" Pattern="00"
			PatternInstance Time="3" Pattern="01"
			PatternInstance Time="4" Pattern="02"
			PatternInstance Time="5" Pattern="02"
			PatternInstance Time="6" Pattern="02"
			PatternInstance Time="7" Pattern="03"
			PatternInstance Time="8" Pattern="04"
			PatternInstance Time="9" Pattern="05"
			PatternInstance Time="10" Pattern="04"
			PatternInstance Time="11" Pattern="06"
			PatternInstance Time="12" Pattern="04"
			PatternInstance Time="13" Pattern="05"
			PatternInstance Time="14" Pattern="04"
			PatternInstance Time="15" Pattern="06"
			PatternInstance Time="16" Pattern="00"
			PatternInstance Time="20" Pattern="04"
			PatternInstance Time="21" Pattern="05"
			PatternInstance Time="22" Pattern="04"
			PatternInstance Time="23" Pattern="06"
			PatternInstance Time="24" Pattern="00"
			PatternInstance Time="25" Pattern="05"
			PatternInstance Time="26" Pattern="04"
			PatternInstance Time="27" Pattern="06"
			PatternInstance Time="28" Pattern="04"
			PatternInstance Time="29" Pattern="05"
			PatternInstance Time="30" Pattern="04"
			PatternInstance Time="31" Pattern="06"
	Song Name="custom_everyend" Color="a657d6" Folder="Custom" Length="19" LoopPoint="0" PatternLength="64" BeatLength="4" FamiTrackerTempo="150" FamiTrackerSpeed="3"
		PatternCustomSettings Time="10" Length="32"
		Channel Type="Square1"
			Pattern Name="01" Color="a4db74"
				Note Time="0" Value="A1" Duration="1" Instrument="blank" Volume="10" DutyCycle="0"
				Note Time="2" Value="A1" Duration="1" Instrument="blank"
				Note Time="4" Value="A1" Duration="1" Instrument="blank"
				Note Time="6" Value="A1" Duration="1" Instrument="blank"
				Note Time="8" Value="A1" Duration="1" Instrument="blank" DutyCycle="1"
				Note Time="10" Value="A1" Duration="1" Instrument="blank"
				Note Time="12" Value="A1" Duration="1" Instrument="blank"
				Note Time="14" Value="A1" Duration="1" Instrument="blank"
				Note Time="16" Value="A1" Duration="2" Instrument="blank" DutyCycle="2"
				Note Time="20" Value="A1" Duration="1" Instrument="blank"
				Note Time="22" Value="A1" Duration="1" Instrument="blank"
				Note Time="24" Value="A1" Duration="2" Instrument="blank" DutyCycle="1"
				Note Time="28" Value="A1" Duration="2" Instrument="blank"
				Note Time="32" Value="A1" Duration="1" Instrument="blank" DutyCycle="0"
				Note Time="34" Value="A1" Duration="1" Instrument="blank"
				Note Time="36" Value="A1" Duration="2" Instrument="blank"
				Note Time="40" Value="A1" Duration="2" Instrument="blank" DutyCycle="1"
				Note Time="44" Value="A1" Duration="2" Instrument="blank"
				Note Time="48" Value="A1" Duration="2" Instrument="blank" DutyCycle="2"
				Note Time="52" Value="A1" Duration="2" Instrument="blank"
				Note Time="56" Value="A1" Duration="1" Instrument="blank" DutyCycle="1"
				Note Time="58" Value="A1" Duration="1" Instrument="blank"
				Note Time="60" Value="E1" Duration="2" Instrument="blank"
				Note Time="62" Value="C2" Duration="2" Instrument="blank"
			Pattern Name="02" Color="3eb3f9"
				Note Time="0" Value="A1" Duration="2" Instrument="blank" DutyCycle="0"
				Note Time="4" Value="A1" Duration="2" Instrument="blank"
				Note Time="8" Value="A1" Duration="1" Instrument="blank" DutyCycle="1"
				Note Time="10" Value="A1" Duration="1" Instrument="blank"
				Note Time="12" Value="A1" Duration="2" Instrument="blank"
				Note Time="16" Value="A1" Duration="2" Instrument="blank" DutyCycle="2"
				Note Time="20" Value="A1" Duration="1" Instrument="blank"
				Note Time="22" Value="A1" Duration="1" Instrument="blank"
				Note Time="24" Value="A1" Duration="1" Instrument="blank" DutyCycle="1"
				Note Time="26" Value="A1" Duration="1" Instrument="blank"
				Note Time="28" Value="E1" Duration="2" Instrument="blank"
				Note Time="30" Value="C2" Duration="2" Instrument="blank"
				Note Time="32" Value="A1" Duration="2" Instrument="blank" DutyCycle="0"
				Note Time="36" Value="A1" Duration="2" Instrument="blank"
				Note Time="40" Value="A1" Duration="1" Instrument="blank" DutyCycle="1"
				Note Time="42" Value="A1" Duration="1" Instrument="blank"
				Note Time="44" Value="E1" Duration="2" Instrument="blank"
				Note Time="46" Value="C2" Duration="2" Instrument="blank"
				Note Time="48" Value="A1" Duration="2" Instrument="blank" DutyCycle="2"
				Note Time="52" Value="A1" Duration="1" Instrument="blank"
				Note Time="54" Value="C2" Duration="1" Instrument="blank"
				Note Time="56" Value="E2" Duration="4" Instrument="blank" DutyCycle="1"
				Note Time="60" Value="E1" Duration="4" Instrument="blank"
			Pattern Name="03" Color="f6a4ff"
				Note Time="0" Value="A1" Duration="16" Instrument="blank" DutyCycle="0"
				Note Time="16" Value="A2" Duration="16" Instrument="blank"
				Note Time="24" VibratoSpeed="12" VibratoDepth="15"
				Note Time="31" VibratoSpeed="0" VibratoDepth="0"
			Pattern Name="04" Color="ffc6a1"
				Note Time="0" Value="A1" Duration="1" Instrument="blank" DutyCycle="0"
				Note Time="2" Value="A1" Duration="2" Instrument="blank"
				Note Time="6" Value="A1" Duration="2" Instrument="blank"
				Note Time="10" Value="A1" Duration="2" Instrument="blank"
				Note Time="14" Value="A1" Duration="2" Instrument="blank"
				Note Time="18" Value="A1" Duration="2" Instrument="blank"
				Note Time="22" Value="C2" Duration="1" Instrument="blank"
				Note Time="24" Value="E2" Duration="4" Instrument="blank"
				Note Time="28" Value="E1" Duration="4" Instrument="blank"
				Note Time="32" Value="A1" Duration="1" Instrument="blank" DutyCycle="1"
				Note Time="34" Value="A1" Duration="2" Instrument="blank"
				Note Time="38" Value="A1" Duration="2" Instrument="blank"
				Note Time="42" Value="A1" Duration="2" Instrument="blank"
				Note Time="46" Value="A1" Duration="2" Instrument="blank"
				Note Time="50" Value="A1" Duration="2" Instrument="blank"
				Note Time="54" Value="C2" Duration="1" Instrument="blank"
				Note Time="56" Value="E2" Duration="4" Instrument="blank"
				Note Time="60" Value="E1" Duration="4" Instrument="blank"
			Pattern Name="05" Color="ffff93"
				Note Time="0" Value="A1" Duration="1" Instrument="blank" DutyCycle="0"
				Note Time="2" Value="A1" Duration="2" Instrument="blank"
				Note Time="6" Value="A1" Duration="2" Instrument="blank"
				Note Time="10" Value="A1" Duration="2" Instrument="blank"
				Note Time="14" Value="A1" Duration="2" Instrument="blank"
				Note Time="18" Value="A1" Duration="2" Instrument="blank"
				Note Time="22" Value="C2" Duration="1" Instrument="blank"
				Note Time="24" Value="E2" Duration="4" Instrument="blank"
				Note Time="28" Value="E1" Duration="4" Instrument="blank"
				Note Time="32" Value="A1" Duration="1" Instrument="blank" DutyCycle="1"
				Note Time="34" Value="A1" Duration="2" Instrument="blank"
				Note Time="38" Value="A1" Duration="2" Instrument="blank"
				Note Time="42" Value="A1" Duration="2" Instrument="blank"
				Note Time="46" Value="A1" Duration="2" Instrument="blank"
				Note Time="50" Value="A1" Duration="2" Instrument="blank"
				Note Time="54" Value="C2" Duration="1" Instrument="blank"
				Note Time="56" Value="F2" Duration="4" Instrument="blank"
				Note Time="60" Value="E2" Duration="4" Instrument="blank"
			Pattern Name="06" Color="3cf8ff"
				Note Time="0" Value="C2" Duration="4" Instrument="blank" DutyCycle="0"
				Note Time="4" Value="F1" Duration="2" Instrument="blank"
				Note Time="8" Value="F1" Duration="1" Instrument="blank"
				Note Time="10" Value="C2" Duration="2" Instrument="blank"
				Note Time="14" Value="F1" Duration="2" Instrument="blank"
				Note Time="18" Value="C2" Duration="2" Instrument="blank"
				Note Time="22" Value="C2" Duration="1" Instrument="blank"
				Note Time="24" Value="E2" Duration="4" Instrument="blank"
				Note Time="28" Value="C2" Duration="4" Instrument="blank"
				Note Time="32" Value="F1" Duration="1" Instrument="blank" DutyCycle="1"
				Note Time="34" Value="C2" Duration="2" Instrument="blank"
				Note Time="38" Value="F1" Duration="2" Instrument="blank"
				Note Time="42" Value="C2" Duration="2" Instrument="blank"
				Note Time="46" Value="F1" Duration="2" Instrument="blank"
				Note Time="50" Value="C2" Duration="2" Instrument="blank"
				Note Time="54" Value="F1" Duration="2" Instrument="blank"
				Note Time="56" Value="E2" Duration="4" Instrument="blank"
				Note Time="60" Value="C2" Duration="4" Instrument="blank"
			Pattern Name="07" Color="9a71ed"
				Note Time="0" Value="C2" Duration="4" Instrument="blank" DutyCycle="0"
				Note Time="4" Value="F1" Duration="2" Instrument="blank"
				Note Time="8" Value="F1" Duration="1" Instrument="blank"
				Note Time="10" Value="C2" Duration="2" Instrument="blank"
				Note Time="14" Value="F1" Duration="2" Instrument="blank"
				Note Time="18" Value="C2" Duration="2" Instrument="blank"
				Note Time="22" Value="C2" Duration="1" Instrument="blank"
				Note Time="24" Value="E2" Duration="4" Instrument="blank"
				Note Time="28" Value="C2" Duration="4" Instrument="blank"
				Note Time="32" Value="F1" Duration="1" Instrument="blank" DutyCycle="1"
				Note Time="34" Value="F1" Duration="2" Instrument="blank"
				Note Time="38" Value="F1" Duration="2" Instrument="blank"
				Note Time="42" Value="C2" Duration="2" Instrument="blank"
				Note Time="46" Value="F1" Duration="2" Instrument="blank"
				Note Time="50" Value="F1" Duration="2" Instrument="blank"
				Note Time="54" Value="C2" Duration="2" Instrument="blank"
				Note Time="56" Value="E2" Duration="4" Instrument="blank"
				Note Time="60" Value="A2" Duration="4" Instrument="blank"
			PatternInstance Time="0" Pattern="01"
			PatternInstance Time="1" Pattern="02"
			PatternInstance Time="2" Pattern="01"
			PatternInstance Time="3" Pattern="02"
			PatternInstance Time="4" Pattern="01"
			PatternInstance Time="5" Pattern="02"
			PatternInstance Time="6" Pattern="01"
			PatternInstance Time="7" Pattern="02"
			PatternInstance Time="8" Pattern="01"
			PatternInstance Time="9" Pattern="02"
			PatternInstance Time="10" Pattern="03"
			PatternInstance Time="11" Pattern="04"
			PatternInstance Time="12" Pattern="05"
			PatternInstance Time="13" Pattern="06"
			PatternInstance Time="14" Pattern="07"
			PatternInstance Time="15" Pattern="04"
			PatternInstance Time="16" Pattern="05"
			PatternInstance Time="17" Pattern="06"
			PatternInstance Time="18" Pattern="07"
		Channel Type="Square2"
			Pattern Name="01" Color="a9887d"
				Note Time="0" FinePitch="2"
				Note Time="3" Value="A1" Duration="2" Instrument="blank" Volume="3" DutyCycle="2"
				Note Time="5" Value="A1" Duration="2" Instrument="blank"
				Note Time="7" Value="A1" Duration="2" Instrument="blank"
				Note Time="9" Value="A1" Duration="2" Instrument="blank"
				Note Time="11" Value="A1" Duration="2" Instrument="blank" DutyCycle="1"
				Note Time="13" Value="A1" Duration="2" Instrument="blank"
				Note Time="15" Value="A1" Duration="2" Instrument="blank"
				Note Time="17" Value="A1" Duration="2" Instrument="blank"
				Note Time="19" Value="A1" Duration="4" Instrument="blank" DutyCycle="0"
				Note Time="23" Value="A1" Duration="2" Instrument="blank"
				Note Time="25" Value="A1" Duration="2" Instrument="blank"
				Note Time="27" Value="A1" Duration="4" Instrument="blank" DutyCycle="1"
				Note Time="31" Value="A1" Duration="4" Instrument="blank"
				Note Time="35" Value="A1" Duration="2" Instrument="blank" DutyCycle="2"
				Note Time="37" Value="A1" Duration="2" Instrument="blank"
				Note Time="39" Value="A1" Duration="4" Instrument="blank"
				Note Time="43" Value="A1" Duration="4" Instrument="blank" DutyCycle="1"
				Note Time="47" Value="A1" Duration="4" Instrument="blank"
				Note Time="51" Value="A1" Duration="4" Instrument="blank" DutyCycle="0"
				Note Time="55" Value="A1" Duration="4" Instrument="blank"
				Note Time="59" Value="A1" Duration="2" Instrument="blank" DutyCycle="1"
				Note Time="61" Value="A1" Duration="2" Instrument="blank"
				Note Time="63" Value="E1" Duration="2" Instrument="blank"
			Pattern Name="02" Color="fffc69"
				Note Time="1" Value="C2" Duration="2" Instrument="blank"
				Note Time="3" Value="A1" Duration="4" Instrument="blank" DutyCycle="2"
				Note Time="7" Value="A1" Duration="4" Instrument="blank"
				Note Time="11" Value="A1" Duration="2" Instrument="blank" DutyCycle="1"
				Note Time="13" Value="A1" Duration="2" Instrument="blank"
				Note Time="15" Value="A1" Duration="4" Instrument="blank"
				Note Time="19" Value="A1" Duration="4" Instrument="blank" DutyCycle="0"
				Note Time="23" Value="A1" Duration="2" Instrument="blank"
				Note Time="25" Value="A1" Duration="2" Instrument="blank"
				Note Time="27" Value="A1" Duration="2" Instrument="blank" DutyCycle="1"
				Note Time="29" Value="A1" Duration="2" Instrument="blank"
				Note Time="31" Value="E1" Duration="2" Instrument="blank"
				Note Time="33" Value="C2" Duration="2" Instrument="blank"
				Note Time="35" Value="A1" Duration="4" Instrument="blank" DutyCycle="2"
				Note Time="39" Value="A1" Duration="4" Instrument="blank"
				Note Time="43" Value="A1" Duration="2" Instrument="blank" DutyCycle="1"
				Note Time="45" Value="A1" Duration="2" Instrument="blank"
				Note Time="47" Value="E1" Duration="2" Instrument="blank"
				Note Time="49" Value="C2" Duration="2" Instrument="blank"
				Note Time="51" Value="A1" Duration="4" Instrument="blank" DutyCycle="0"
				Note Time="55" Value="A1" Duration="2" Instrument="blank"
				Note Time="57" Value="C2" Duration="2" Instrument="blank"
				Note Time="59" Value="E2" Duration="4" Instrument="blank" DutyCycle="1"
				Note Time="63" Value="E1" Duration="4" Instrument="blank"
			Pattern Name="03" Color="3ca598"
				Note Time="3" Value="A1" Duration="16" Instrument="blank" Volume="3" DutyCycle="0"
				Note Time="19" Value="A2" Duration="16" Instrument="blank"
			Pattern Name="04" Color="b5c2ff"
				Note Time="0" Volume="3"
				Note Time="3" Value="A1" Duration="2" Instrument="blank"
				Note Time="5" Value="A1" Duration="4" Instrument="blank"
				Note Time="9" Value="A1" Duration="4" Instrument="blank"
				Note Time="13" Value="A1" Duration="4" Instrument="blank"
				Note Time="17" Value="A1" Duration="4" Instrument="blank"
				Note Time="21" Value="A1" Duration="4" Instrument="blank"
				Note Time="25" Value="C2" Duration="2" Instrument="blank"
				Note Time="27" Value="E2" Duration="4" Instrument="blank"
				Note Time="31" Value="E1" Duration="4" Instrument="blank"
				Note Time="35" Value="A1" Duration="2" Instrument="blank"
				Note Time="37" Value="A1" Duration="4" Instrument="blank"
				Note Time="41" Value="A1" Duration="4" Instrument="blank"
				Note Time="45" Value="A1" Duration="4" Instrument="blank"
				Note Time="49" Value="A1" Duration="4" Instrument="blank"
				Note Time="53" Value="A1" Duration="4" Instrument="blank"
				Note Time="57" Value="C2" Duration="2" Instrument="blank"
				Note Time="59" Value="E2" Duration="4" Instrument="blank"
				Note Time="63" Value="E1" Duration="4" Instrument="blank"
			Pattern Name="05" Color="ff8f8c"
				Note Time="3" Value="A1" Duration="2" Instrument="blank"
				Note Time="5" Value="A1" Duration="4" Instrument="blank"
				Note Time="9" Value="A1" Duration="4" Instrument="blank"
				Note Time="13" Value="A1" Duration="4" Instrument="blank"
				Note Time="17" Value="A1" Duration="4" Instrument="blank"
				Note Time="21" Value="A1" Duration="4" Instrument="blank"
				Note Time="25" Value="C2" Duration="2" Instrument="blank"
				Note Time="27" Value="E2" Duration="4" Instrument="blank"
				Note Time="31" Value="E1" Duration="4" Instrument="blank"
				Note Time="35" Value="A1" Duration="2" Instrument="blank"
				Note Time="37" Value="A1" Duration="4" Instrument="blank"
				Note Time="41" Value="A1" Duration="4" Instrument="blank"
				Note Time="45" Value="A1" Duration="4" Instrument="blank"
				Note Time="49" Value="A1" Duration="4" Instrument="blank"
				Note Time="53" Value="A1" Duration="4" Instrument="blank"
				Note Time="57" Value="C2" Duration="2" Instrument="blank"
				Note Time="59" Value="F2" Duration="4" Instrument="blank"
				Note Time="63" Value="E2" Duration="4" Instrument="blank"
			Pattern Name="06" Color="ffff64"
				Note Time="3" Value="C2" Duration="4" Instrument="blank"
				Note Time="7" Value="F1" Duration="4" Instrument="blank"
				Note Time="11" Value="F1" Duration="2" Instrument="blank"
				Note Time="13" Value="C2" Duration="4" Instrument="blank"
				Note Time="17" Value="F1" Duration="4" Instrument="blank"
				Note Time="21" Value="C2" Duration="4" Instrument="blank"
				Note Time="25" Value="C2" Duration="2" Instrument="blank"
				Note Time="27" Value="E2" Duration="4" Instrument="blank"
				Note Time="31" Value="C2" Duration="4" Instrument="blank"
				Note Time="35" Value="F1" Duration="2" Instrument="blank"
				Note Time="37" Value="C2" Duration="4" Instrument="blank"
				Note Time="41" Value="F1" Duration="4" Instrument="blank"
				Note Time="45" Value="C2" Duration="4" Instrument="blank"
				Note Time="49" Value="F1" Duration="4" Instrument="blank"
				Note Time="53" Value="C2" Duration="4" Instrument="blank"
				Note Time="57" Value="F1" Duration="2" Instrument="blank"
				Note Time="59" Value="E2" Duration="4" Instrument="blank"
				Note Time="63" Value="C2" Duration="4" Instrument="blank"
			Pattern Name="07" Color="88eb8c"
				Note Time="3" Value="C2" Duration="4" Instrument="blank"
				Note Time="7" Value="F1" Duration="4" Instrument="blank"
				Note Time="11" Value="F1" Duration="2" Instrument="blank"
				Note Time="13" Value="C2" Duration="4" Instrument="blank"
				Note Time="17" Value="F1" Duration="4" Instrument="blank"
				Note Time="21" Value="C2" Duration="4" Instrument="blank"
				Note Time="25" Value="C2" Duration="2" Instrument="blank"
				Note Time="27" Value="E2" Duration="4" Instrument="blank"
				Note Time="31" Value="C2" Duration="4" Instrument="blank"
				Note Time="35" Value="F1" Duration="2" Instrument="blank"
				Note Time="37" Value="F1" Duration="4" Instrument="blank"
				Note Time="41" Value="F1" Duration="4" Instrument="blank"
				Note Time="45" Value="C2" Duration="4" Instrument="blank"
				Note Time="49" Value="F1" Duration="4" Instrument="blank"
				Note Time="53" Value="C2" Duration="4" Instrument="blank"
				Note Time="57" Value="A1" Duration="2" Instrument="blank"
				Note Time="59" Value="E2" Duration="4" Instrument="blank"
				Note Time="63" Value="A2" Duration="4" Instrument="blank"
			PatternInstance Time="0" Pattern="01"
			PatternInstance Time="1" Pattern="02"
			PatternInstance Time="2" Pattern="01"
			PatternInstance Time="3" Pattern="02"
			PatternInstance Time="4" Pattern="01"
			PatternInstance Time="5" Pattern="02"
			PatternInstance Time="6" Pattern="01"
			PatternInstance Time="7" Pattern="02"
			PatternInstance Time="8" Pattern="01"
			PatternInstance Time="9" Pattern="02"
			PatternInstance Time="10" Pattern="03"
			PatternInstance Time="11" Pattern="04"
			PatternInstance Time="12" Pattern="05"
			PatternInstance Time="13" Pattern="06"
			PatternInstance Time="14" Pattern="07"
			PatternInstance Time="15" Pattern="04"
			PatternInstance Time="16" Pattern="05"
			PatternInstance Time="17" Pattern="06"
			PatternInstance Time="18" Pattern="07"
		Channel Type="Triangle"
			Pattern Name="00" Color="5ac4ff"
				Note Time="0" Value="Stop"
			Pattern Name="01" Color="fe5497"
				Note Time="4" Value="A3" Duration="4" Instrument="DMC: drums + bass"
				Note Time="12" Value="A3" Duration="4" Instrument="DMC: drums + bass"
				Note Time="20" Value="A3" Duration="4" Instrument="DMC: drums + bass"
				Note Time="28" Value="A3" Duration="4" Instrument="DMC: drums + bass"
				Note Time="36" Value="A3" Duration="4" Instrument="DMC: drums + bass"
				Note Time="44" Value="A3" Duration="4" Instrument="DMC: drums + bass"
				Note Time="52" Value="A3" Duration="4" Instrument="DMC: drums + bass"
				Note Time="60" Value="A3" Duration="4" Instrument="DMC: drums + bass"
			Pattern Name="02" Color="ffb83c"
				Note Time="4" Value="F3" Duration="4" Instrument="DMC: drums + bass"
				Note Time="12" Value="F3" Duration="4" Instrument="DMC: drums + bass"
				Note Time="20" Value="F3" Duration="4" Instrument="DMC: drums + bass"
				Note Time="28" Value="F3" Duration="4" Instrument="DMC: drums + bass"
				Note Time="36" Value="F3" Duration="4" Instrument="DMC: drums + bass"
				Note Time="44" Value="F3" Duration="4" Instrument="DMC: drums + bass"
				Note Time="52" Value="F3" Duration="4" Instrument="DMC: drums + bass"
				Note Time="60" Value="F3" Duration="4" Instrument="DMC: drums + bass"
			PatternInstance Time="0" Pattern="00"
			PatternInstance Time="2" Pattern="01"
			PatternInstance Time="3" Pattern="01"
			PatternInstance Time="4" Pattern="01"
			PatternInstance Time="5" Pattern="01"
			PatternInstance Time="6" Pattern="01"
			PatternInstance Time="7" Pattern="01"
			PatternInstance Time="8" Pattern="01"
			PatternInstance Time="9" Pattern="01"
			PatternInstance Time="10" Pattern="00"
			PatternInstance Time="11" Pattern="01"
			PatternInstance Time="12" Pattern="01"
			PatternInstance Time="13" Pattern="02"
			PatternInstance Time="14" Pattern="02"
			PatternInstance Time="15" Pattern="01"
			PatternInstance Time="16" Pattern="01"
			PatternInstance Time="17" Pattern="02"
			PatternInstance Time="18" Pattern="02"
		Channel Type="Noise"
			Pattern Name="00" Color="91c76b"
				Note Time="0" Value="Stop"
			Pattern Name="01" Color="8bffff"
				Note Time="0" Value="G2" Duration="8" Instrument="kick"
				Note Time="8" Value="G2" Duration="8" Instrument="kick"
				Note Time="16" Value="G2" Duration="8" Instrument="kick"
				Note Time="24" Value="G2" Duration="8" Instrument="kick"
				Note Time="32" Value="G2" Duration="8" Instrument="kick"
				Note Time="40" Value="G2" Duration="8" Instrument="kick"
				Note Time="48" Value="G2" Duration="8" Instrument="kick"
				Note Time="56" Value="G2" Duration="8" Instrument="kick"
			Pattern Name="02" Color="e783f8"
				Note Time="0" Value="G2" Duration="4" Instrument="kick"
				Note Time="4" Value="F#3" Duration="4" Instrument="rel hats"
				Note Time="8" Value="G#2" Duration="4" Instrument="snare"
				Note Time="12" Value="F#3" Duration="4" Instrument="rel hats"
				Note Time="16" Value="G2" Duration="4" Instrument="kick"
				Note Time="20" Value="F#3" Duration="4" Instrument="rel hats"
				Note Time="24" Value="G#2" Duration="4" Instrument="snare"
				Note Time="28" Value="F#3" Duration="4" Instrument="rel hats"
				Note Time="32" Value="G2" Duration="4" Instrument="kick"
				Note Time="36" Value="F#3" Duration="4" Instrument="rel hats"
				Note Time="40" Value="G#2" Duration="4" Instrument="snare"
				Note Time="44" Value="F#3" Duration="4" Instrument="rel hats"
				Note Time="48" Value="G2" Duration="4" Instrument="kick"
				Note Time="52" Value="F#3" Duration="4" Instrument="rel hats"
				Note Time="56" Value="G#2" Duration="4" Instrument="snare"
				Note Time="60" Value="F#3" Duration="4" Instrument="rel hats"
			Pattern Name="03" Color="ffac7f"
				Note Time="0" Value="G2" Duration="2" Instrument="kick"
				Note Time="2" Value="G3" Duration="2" Instrument="hat"
				Note Time="4" Value="F#3" Duration="2" Instrument="rel hats"
				Note Time="6" Value="G3" Duration="2" Instrument="hat"
				Note Time="8" Value="G#2" Duration="2" Instrument="snare"
				Note Time="10" Value="G3" Duration="2" Instrument="hat"
				Note Time="12" Value="F#3" Duration="2" Instrument="rel hats"
				Note Time="14" Value="G3" Duration="2" Instrument="hat"
				Note Time="16" Value="G2" Duration="2" Instrument="kick"
				Note Time="18" Value="G3" Duration="2" Instrument="hat"
				Note Time="20" Value="F#3" Duration="2" Instrument="rel hats"
				Note Time="22" Value="G3" Duration="2" Instrument="hat"
				Note Time="24" Value="G#2" Duration="2" Instrument="snare"
				Note Time="26" Value="G3" Duration="2" Instrument="hat"
				Note Time="28" Value="F#3" Duration="2" Instrument="rel hats"
				Note Time="30" Value="G3" Duration="2" Instrument="hat"
				Note Time="32" Value="G2" Duration="2" Instrument="kick"
				Note Time="34" Value="G3" Duration="2" Instrument="hat"
				Note Time="36" Value="F#3" Duration="2" Instrument="rel hats"
				Note Time="38" Value="G3" Duration="2" Instrument="hat"
				Note Time="40" Value="G#2" Duration="2" Instrument="snare"
				Note Time="42" Value="G3" Duration="2" Instrument="hat"
				Note Time="44" Value="F#3" Duration="2" Instrument="rel hats"
				Note Time="46" Value="G3" Duration="2" Instrument="hat"
				Note Time="48" Value="G2" Duration="2" Instrument="kick"
				Note Time="50" Value="G3" Duration="2" Instrument="hat"
				Note Time="52" Value="F#3" Duration="2" Instrument="rel hats"
				Note Time="54" Value="G3" Duration="2" Instrument="hat"
				Note Time="56" Value="G#2" Duration="2" Instrument="snare"
				Note Time="58" Value="G3" Duration="2" Instrument="hat"
				Note Time="60" Value="F#3" Duration="2" Instrument="rel hats"
				Note Time="62" Value="G3" Duration="2" Instrument="hat"
			Pattern Name="04" Color="ffff75"
				Note Time="16" Value="C#3" Duration="16" Instrument="blank" Volume="1"
				Note Time="18" Volume="2"
				Note Time="20" Volume="3"
				Note Time="22" Volume="4"
				Note Time="24" Volume="5"
				Note Time="26" Volume="6"
				Note Time="27" Volume="7"
				Note Time="28" Volume="8"
				Note Time="29" Volume="10"
				Note Time="30" Volume="12"
				Note Time="31" Volume="15"
			PatternInstance Time="0" Pattern="00"
			PatternInstance Time="2" Pattern="01"
			PatternInstance Time="3" Pattern="01"
			PatternInstance Time="4" Pattern="02"
			PatternInstance Time="5" Pattern="02"
			PatternInstance Time="6" Pattern="02"
			PatternInstance Time="7" Pattern="02"
			PatternInstance Time="8" Pattern="03"
			PatternInstance Time="9" Pattern="03"
			PatternInstance Time="10" Pattern="04"
			PatternInstance Time="11" Pattern="03"
			PatternInstance Time="12" Pattern="03"
			PatternInstance Time="13" Pattern="03"
			PatternInstance Time="14" Pattern="03"
			PatternInstance Time="15" Pattern="03"
			PatternInstance Time="16" Pattern="03"
			PatternInstance Time="17" Pattern="03"
			PatternInstance Time="18" Pattern="03"
		Channel Type="DPCM"
			Pattern Name="00" Color="3ce8fd"
				Note Time="0" Value="Stop"
			Pattern Name="01" Color="8d69e4"
				Note Time="0" Value="E5" Duration="8" Instrument="DMC: drums + bass"
				Note Time="8" Value="E5" Duration="8" Instrument="DMC: drums + bass"
				Note Time="16" Value="E5" Duration="8" Instrument="DMC: drums + bass"
				Note Time="24" Value="E5" Duration="8" Instrument="DMC: drums + bass"
				Note Time="32" Value="E5" Duration="8" Instrument="DMC: drums + bass"
				Note Time="40" Value="E5" Duration="8" Instrument="DMC: drums + bass"
				Note Time="48" Value="E5" Duration="8" Instrument="DMC: drums + bass"
				Note Time="56" Value="E5" Duration="8" Instrument="DMC: drums + bass"
			Pattern Name="02" Color="997c73"
				Note Time="0" Value="E5" Duration="8" Instrument="DMC: drums + bass"
				Note Time="8" Value="F5" Duration="8" Instrument="DMC: drums + bass"
				Note Time="16" Value="E5" Duration="8" Instrument="DMC: drums + bass"
				Note Time="24" Value="F5" Duration="8" Instrument="DMC: drums + bass"
				Note Time="32" Value="E5" Duration="8" Instrument="DMC: drums + bass"
				Note Time="40" Value="F5" Duration="8" Instrument="DMC: drums + bass"
				Note Time="48" Value="E5" Duration="8" Instrument="DMC: drums + bass"
				Note Time="56" Value="F5" Duration="8" Instrument="DMC: drums + bass"
			Pattern Name="04" Color="ffe461"
				Note Time="0" Value="E5" Duration="4" Instrument="DMC: drums + bass"
				Note Time="4" Value="A3" Duration="4" Instrument="DMC: drums + bass"
				Note Time="8" Value="F5" Duration="4" Instrument="DMC: drums + bass"
				Note Time="12" Value="A3" Duration="4" Instrument="DMC: drums + bass"
				Note Time="16" Value="E5" Duration="4" Instrument="DMC: drums + bass"
				Note Time="20" Value="A3" Duration="4" Instrument="DMC: drums + bass"
				Note Time="24" Value="F5" Duration="4" Instrument="DMC: drums + bass"
				Note Time="28" Value="A3" Duration="4" Instrument="DMC: drums + bass"
				Note Time="32" Value="E5" Duration="4" Instrument="DMC: drums + bass"
				Note Time="36" Value="A3" Duration="4" Instrument="DMC: drums + bass"
				Note Time="40" Value="F5" Duration="4" Instrument="DMC: drums + bass"
				Note Time="44" Value="A3" Duration="4" Instrument="DMC: drums + bass"
				Note Time="48" Value="E5" Duration="4" Instrument="DMC: drums + bass"
				Note Time="52" Value="A3" Duration="4" Instrument="DMC: drums + bass"
				Note Time="56" Value="F5" Duration="4" Instrument="DMC: drums + bass"
				Note Time="60" Value="A3" Duration="4" Instrument="DMC: drums + bass"
			Pattern Name="03" Color="89f2e8"
				Note Time="0" Value="E5" Duration="4" Instrument="DMC: drums + bass"
				Note Time="4" Value="A3" Duration="4" Instrument="DMC: drums + bass"
				Note Time="8" Value="F5" Duration="4" Instrument="DMC: drums + bass"
				Note Time="12" Value="A3" Duration="4" Instrument="DMC: drums + bass"
				Note Time="16" Value="E5" Duration="4" Instrument="DMC: drums + bass"
				Note Time="20" Value="A3" Duration="4" Instrument="DMC: drums + bass"
				Note Time="24" Value="F5" Duration="4" Instrument="DMC: drums + bass"
				Note Time="28" Value="A3" Duration="4" Instrument="DMC: drums + bass"
				Note Time="32" Value="F5" Duration="1" Instrument="DMC: drums + bass"
				Note Time="33" Value="F5" Duration="1" Instrument="DMC: drums + bass"
				Note Time="34" Value="F5" Duration="1" Instrument="DMC: drums + bass"
				Note Time="35" Value="F5" Duration="1" Instrument="DMC: drums + bass"
				Note Time="36" Value="F5" Duration="1" Instrument="DMC: drums + bass"
				Note Time="37" Value="F5" Duration="1" Instrument="DMC: drums + bass"
				Note Time="38" Value="F5" Duration="1" Instrument="DMC: drums + bass"
				Note Time="39" Value="F5" Duration="1" Instrument="DMC: drums + bass"
				Note Time="40" Value="F5" Duration="1" Instrument="DMC: drums + bass"
				Note Time="41" Value="F5" Duration="1" Instrument="DMC: drums + bass"
				Note Time="42" Value="F5" Duration="1" Instrument="DMC: drums + bass"
				Note Time="43" Value="F5" Duration="1" Instrument="DMC: drums + bass"
				Note Time="44" Value="F5" Duration="1" Instrument="DMC: drums + bass"
				Note Time="45" Value="F5" Duration="1" Instrument="DMC: drums + bass"
				Note Time="46" Value="F5" Duration="1" Instrument="DMC: drums + bass"
				Note Time="47" Value="F5" Duration="1" Instrument="DMC: drums + bass"
				Note Time="48" Value="F5" Duration="1" Instrument="DMC: drums + bass"
				Note Time="49" Value="F5" Duration="1" Instrument="DMC: drums + bass"
				Note Time="50" Value="F5" Duration="1" Instrument="DMC: drums + bass"
				Note Time="51" Value="F5" Duration="1" Instrument="DMC: drums + bass"
				Note Time="52" Value="F5" Duration="1" Instrument="DMC: drums + bass"
				Note Time="53" Value="F5" Duration="1" Instrument="DMC: drums + bass"
				Note Time="54" Value="F5" Duration="1" Instrument="DMC: drums + bass"
				Note Time="55" Value="F5" Duration="1" Instrument="DMC: drums + bass"
				Note Time="56" Value="F5" Duration="1" Instrument="DMC: drums + bass"
				Note Time="57" Value="F5" Duration="1" Instrument="DMC: drums + bass"
				Note Time="58" Value="F5" Duration="1" Instrument="DMC: drums + bass"
				Note Time="59" Value="F5" Duration="1" Instrument="DMC: drums + bass"
				Note Time="60" Value="F5" Duration="1" Instrument="DMC: drums + bass"
				Note Time="61" Value="F5" Duration="1" Instrument="DMC: drums + bass"
				Note Time="62" Value="F5" Duration="1" Instrument="DMC: drums + bass"
				Note Time="63" Value="F5" Duration="1" Instrument="DMC: drums + bass"
			Pattern Name="05" Color="98a7fc"
				Note Time="0" Value="E5" Duration="4" Instrument="DMC: drums + bass"
				Note Time="4" Value="F3" Duration="4" Instrument="DMC: drums + bass"
				Note Time="8" Value="F5" Duration="4" Instrument="DMC: drums + bass"
				Note Time="12" Value="F3" Duration="4" Instrument="DMC: drums + bass"
				Note Time="16" Value="E5" Duration="4" Instrument="DMC: drums + bass"
				Note Time="20" Value="F3" Duration="4" Instrument="DMC: drums + bass"
				Note Time="24" Value="F5" Duration="4" Instrument="DMC: drums + bass"
				Note Time="28" Value="F3" Duration="4" Instrument="DMC: drums + bass"
				Note Time="32" Value="E5" Duration="4" Instrument="DMC: drums + bass"
				Note Time="36" Value="F3" Duration="4" Instrument="DMC: drums + bass"
				Note Time="40" Value="F5" Duration="4" Instrument="DMC: drums + bass"
				Note Time="44" Value="F3" Duration="4" Instrument="DMC: drums + bass"
				Note Time="48" Value="E5" Duration="4" Instrument="DMC: drums + bass"
				Note Time="52" Value="F3" Duration="4" Instrument="DMC: drums + bass"
				Note Time="56" Value="F5" Duration="4" Instrument="DMC: drums + bass"
				Note Time="60" Value="F3" Duration="4" Instrument="DMC: drums + bass"
			Pattern Name="06" Color="ff7f72"
				Note Time="0" Value="E5" Duration="4" Instrument="DMC: drums + bass"
				Note Time="4" Value="F3" Duration="4" Instrument="DMC: drums + bass"
				Note Time="8" Value="F5" Duration="4" Instrument="DMC: drums + bass"
				Note Time="12" Value="F3" Duration="4" Instrument="DMC: drums + bass"
				Note Time="16" Value="E5" Duration="4" Instrument="DMC: drums + bass"
				Note Time="20" Value="F3" Duration="4" Instrument="DMC: drums + bass"
				Note Time="24" Value="F5" Duration="4" Instrument="DMC: drums + bass"
				Note Time="28" Value="F3" Duration="4" Instrument="DMC: drums + bass"
				Note Time="32" Value="E5" Duration="4" Instrument="DMC: drums + bass"
				Note Time="36" Value="F3" Duration="4" Instrument="DMC: drums + bass"
				Note Time="40" Value="F5" Duration="4" Instrument="DMC: drums + bass"
				Note Time="44" Value="F3" Duration="4" Instrument="DMC: drums + bass"
				Note Time="48" Value="F5" Duration="1" Instrument="DMC: drums + bass"
				Note Time="49" Value="F5" Duration="1" Instrument="DMC: drums + bass"
				Note Time="50" Value="F5" Duration="1" Instrument="DMC: drums + bass"
				Note Time="51" Value="F5" Duration="1" Instrument="DMC: drums + bass"
				Note Time="52" Value="F5" Duration="1" Instrument="DMC: drums + bass"
				Note Time="53" Value="F5" Duration="1" Instrument="DMC: drums + bass"
				Note Time="54" Value="F5" Duration="1" Instrument="DMC: drums + bass"
				Note Time="55" Value="F5" Duration="1" Instrument="DMC: drums + bass"
				Note Time="56" Value="F5" Duration="1" Instrument="DMC: drums + bass"
				Note Time="57" Value="F5" Duration="1" Instrument="DMC: drums + bass"
				Note Time="58" Value="F5" Duration="1" Instrument="DMC: drums + bass"
				Note Time="59" Value="F5" Duration="1" Instrument="DMC: drums + bass"
				Note Time="60" Value="F5" Duration="1" Instrument="DMC: drums + bass"
				Note Time="61" Value="F5" Duration="1" Instrument="DMC: drums + bass"
				Note Time="62" Value="F5" Duration="1" Instrument="DMC: drums + bass"
				Note Time="63" Value="F5" Duration="1" Instrument="DMC: drums + bass"
			PatternInstance Time="0" Pattern="00"
			PatternInstance Time="2" Pattern="01"
			PatternInstance Time="3" Pattern="01"
			PatternInstance Time="4" Pattern="02"
			PatternInstance Time="5" Pattern="02"
			PatternInstance Time="6" Pattern="04"
			PatternInstance Time="7" Pattern="04"
			PatternInstance Time="8" Pattern="04"
			PatternInstance Time="9" Pattern="03"
			PatternInstance Time="10" Pattern="00"
			PatternInstance Time="11" Pattern="04"
			PatternInstance Time="12" Pattern="04"
			PatternInstance Time="13" Pattern="05"
			PatternInstance Time="14" Pattern="06"
			PatternInstance Time="15" Pattern="04"
			PatternInstance Time="16" Pattern="04"
			PatternInstance Time="17" Pattern="05"
			PatternInstance Time="18" Pattern="06"
	Song Name="custom_ultimatedestruction" Color="65f2ff" Folder="Custom" Length="38" LoopPoint="-1" PatternLength="32" BeatLength="4" FamiTrackerTempo="140" FamiTrackerSpeed="3"
		PatternCustomSettings Time="37" Length="1"
		Channel Type="Square1"
			Pattern Name="01" Color="91c76b"
				Note Time="0" Value="D#2" Duration="2" Instrument="blank instant decay" Volume="9"
				Note Time="2" Value="F#2" Duration="2" Instrument="blank instant decay"
				Note Time="4" Value="G#2" Duration="2" Instrument="blank instant decay"
				Note Time="6" Value="B2" Duration="6" Instrument="blank instant decay"
				Note Time="12" Value="B2" Duration="4" Instrument="blank instant decay"
				Note Time="16" Value="A#2" Duration="2" Instrument="blank instant decay"
				Note Time="18" Value="A#2" Duration="2" Instrument="blank instant decay"
				Note Time="20" Value="A#2" Duration="2" Instrument="blank instant decay"
				Note Time="22" Value="A#2" Duration="6" Instrument="blank instant decay"
				Note Time="28" Value="A#2" Duration="4" Instrument="blank instant decay"
			Pattern Name="02" Color="8bffff"
				Note Time="0" Value="D#2" Duration="2" Instrument="blank instant decay"
				Note Time="2" Value="F#2" Duration="2" Instrument="blank instant decay"
				Note Time="4" Value="G#2" Duration="2" Instrument="blank instant decay"
				Note Time="6" Value="B2" Duration="6" Instrument="blank instant decay"
				Note Time="12" Value="A#2" Duration="4" Instrument="blank instant decay"
				Note Time="16" Value="A#2" Duration="6" Instrument="blank instant decay"
				Note Time="22" Value="A#2" Duration="2" Instrument="blank instant decay"
				Note Time="24" Value="A#2" Duration="4" Instrument="blank instant decay"
				Note Time="28" Value="E3" Duration="2" Instrument="blank instant decay"
				Note Time="30" Value="E3" Duration="2" Instrument="blank instant decay"
			Pattern Name="03" Color="e783f8"
				Note Time="0" Value="E3" Duration="6" Instrument="blank instant decay"
				Note Time="6" Value="D#3" Duration="6" Instrument="blank instant decay"
				Note Time="12" Value="D#3" Duration="4" Instrument="blank instant decay"
				Note Time="16" Value="D#3" Duration="6" Instrument="blank instant decay"
				Note Time="22" Value="G#2" Duration="6" Instrument="blank instant decay"
				Note Time="28" Value="G#2" Duration="4" Instrument="blank instant decay"
			Pattern Name="04" Color="ffac7f"
				Note Time="0" Value="F#2" Duration="6" Instrument="blank instant decay"
				Note Time="6" Value="F#2" Duration="6" Instrument="blank instant decay"
				Note Time="12" Value="G#2" Duration="4" Instrument="blank instant decay"
				Note Time="16" Value="A#2" Duration="4" Instrument="blank instant decay"
				Note Time="20" Value="B2" Duration="4" Instrument="blank instant decay"
				Note Time="24" Value="A#2" Duration="4" Instrument="blank instant decay"
				Note Time="28" Value="B2" Duration="4" Instrument="blank instant decay"
			Pattern Name="05" Color="3ce8fd"
				Note Time="0" Value="D#3" Duration="6" Instrument="blank instant decay"
				Note Time="6" Value="D#3" Duration="6" Instrument="blank instant decay"
				Note Time="12" Value="A#2" Duration="4" Instrument="blank instant decay"
				Note Time="16" Value="B2" Duration="6" Instrument="blank instant decay"
				Note Time="22" Value="B2" Duration="6" Instrument="blank instant decay"
				Note Time="28" Value="F#3" Duration="4" Instrument="blank instant decay"
			Pattern Name="06" Color="8d69e4"
				Note Time="0" Value="D#3" Duration="6" Instrument="blank instant decay"
				Note Time="6" Value="D#3" Duration="6" Instrument="blank instant decay"
				Note Time="12" Value="A#2" Duration="4" Instrument="blank instant decay"
				Note Time="16" Value="B2" Duration="6" Instrument="blank instant decay"
				Note Time="22" Value="B2" Duration="6" Instrument="blank instant decay"
				Note Time="28" Value="D#3" Duration="2" Instrument="blank instant decay"
				Note Time="30" Value="F#3" Duration="2" Instrument="blank instant decay"
			Pattern Name="07" Color="997c73"
				Note Time="0" Value="G#3" Duration="6" Instrument="blank instant decay"
				Note Time="6" Value="G#3" Duration="6" Instrument="blank instant decay"
				Note Time="12" Value="F#3" Duration="4" Instrument="blank instant decay"
				Note Time="16" Value="B2" Duration="6" Instrument="blank instant decay"
				Note Time="22" Value="B2" Duration="6" Instrument="blank instant decay"
				Note Time="28" Value="A#2" Duration="2" Instrument="blank instant decay"
				Note Time="30" Value="B2" Duration="2" Instrument="blank instant decay"
			Pattern Name="08" Color="ffe461"
				Note Time="0" Value="G#3" Duration="6" Instrument="blank instant decay"
				Note Time="6" Value="G#3" Duration="6" Instrument="blank instant decay"
				Note Time="12" Value="F#3" Duration="4" Instrument="blank instant decay"
				Note Time="16" Value="B2" Duration="6" Instrument="blank instant decay"
				Note Time="22" Value="B2" Duration="6" Instrument="blank instant decay"
				Note Time="28" Value="B2" Duration="2" Instrument="blank instant decay"
				Note Time="30" Value="D#3" Duration="2" Instrument="blank instant decay"
			Pattern Name="09" Color="89f2e8"
				Note Time="0" Value="E3" Duration="6" Instrument="blank instant decay"
				Note Time="6" Value="E3" Duration="6" Instrument="blank instant decay"
				Note Time="12" Value="D#3" Duration="4" Instrument="blank instant decay"
				Note Time="16" Value="G#2" Duration="6" Instrument="blank instant decay"
				Note Time="22" Value="G#2" Duration="6" Instrument="blank instant decay"
				Note Time="28" Value="D#3" Duration="4" Instrument="blank instant decay"
			Pattern Name="0A" Color="98a7fc"
				Note Time="0" Value="E3" Duration="6" Instrument="blank instant decay"
				Note Time="6" Value="E3" Duration="6" Instrument="blank instant decay"
				Note Time="12" Value="D#3" Duration="4" Instrument="blank instant decay"
				Note Time="16" Value="G#3" Duration="6" Instrument="blank instant decay"
				Note Time="22" Value="G#3" Duration="6" Instrument="blank instant decay"
				Note Time="28" Value="D#3" Duration="4" Instrument="blank instant decay"
			Pattern Name="0B" Color="ff7f72"
				Note Time="0" Value="G#2" Duration="6" Instrument="blank instant decay"
				Note Time="6" Value="G#2" Duration="6" Instrument="blank instant decay"
				Note Time="12" Value="F#2" Duration="4" Instrument="blank instant decay"
				Note Time="16" Value="G#2" Duration="6" Instrument="blank instant decay"
				Note Time="22" Value="G#2" Duration="6" Instrument="blank instant decay"
				Note Time="28" Value="F#2" Duration="4" Instrument="blank instant decay"
			Pattern Name="0C" Color="fffd43"
				Note Time="0" Value="A#2" Duration="6" Instrument="blank instant decay"
				Note Time="6" Value="A#2" Duration="6" Instrument="blank instant decay"
				Note Time="12" Value="G#2" Duration="4" Instrument="blank instant decay"
				Note Time="16" Value="A#2" Duration="4" Instrument="blank instant decay"
				Note Time="20" Value="B3" Duration="2" Instrument="blank instant decay"
				Note Time="22" Value="A#3" Duration="4" Instrument="blank instant decay"
				Note Time="26" Value="G#3" Duration="2" Instrument="blank instant decay"
				Note Time="28" Value="G3" Duration="4" Instrument="blank instant decay"
				Note Time="31" DutyCycle="3"
			PatternInstance Time="0" Pattern="01"
			PatternInstance Time="1" Pattern="02"
			PatternInstance Time="2" Pattern="03"
			PatternInstance Time="3" Pattern="04"
			PatternInstance Time="4" Pattern="01"
			PatternInstance Time="5" Pattern="02"
			PatternInstance Time="6" Pattern="03"
			PatternInstance Time="7" Pattern="04"
			PatternInstance Time="8" Pattern="01"
			PatternInstance Time="9" Pattern="02"
			PatternInstance Time="10" Pattern="03"
			PatternInstance Time="11" Pattern="04"
			PatternInstance Time="12" Pattern="01"
			PatternInstance Time="13" Pattern="02"
			PatternInstance Time="14" Pattern="03"
			PatternInstance Time="15" Pattern="04"
			PatternInstance Time="16" Pattern="01"
			PatternInstance Time="17" Pattern="02"
			PatternInstance Time="18" Pattern="03"
			PatternInstance Time="19" Pattern="04"
			PatternInstance Time="21" Pattern="05"
			PatternInstance Time="22" Pattern="06"
			PatternInstance Time="23" Pattern="07"
			PatternInstance Time="24" Pattern="08"
			PatternInstance Time="25" Pattern="09"
			PatternInstance Time="26" Pattern="0A"
			PatternInstance Time="27" Pattern="0B"
			PatternInstance Time="28" Pattern="0C"
			PatternInstance Time="29" Pattern="05"
			PatternInstance Time="30" Pattern="06"
			PatternInstance Time="31" Pattern="07"
			PatternInstance Time="32" Pattern="08"
			PatternInstance Time="33" Pattern="09"
			PatternInstance Time="34" Pattern="0A"
			PatternInstance Time="35" Pattern="0B"
			PatternInstance Time="36" Pattern="0C"
		Channel Type="Square2"
			Pattern Name="01" Color="55b2ff"
				Note Time="0" Value="E1" Duration="2" Instrument="quiet bass" DutyCycle="3"
				Note Time="2" Value="E1" Duration="2" Instrument="quiet bass"
				Note Time="4" Value="E1" Duration="2" Instrument="quiet bass"
				Note Time="6" Value="E1" Duration="2" Instrument="quiet bass"
				Note Time="8" Value="E1" Duration="2" Instrument="quiet bass"
				Note Time="10" Value="E1" Duration="2" Instrument="quiet bass"
				Note Time="12" Value="E1" Duration="2" Instrument="quiet bass"
				Note Time="14" Value="E1" Duration="2" Instrument="quiet bass"
				Note Time="16" Value="E1" Duration="2" Instrument="quiet bass"
				Note Time="18" Value="E1" Duration="2" Instrument="quiet bass"
				Note Time="20" Value="E1" Duration="2" Instrument="quiet bass"
				Note Time="22" Value="E1" Duration="2" Instrument="quiet bass"
				Note Time="24" Value="E1" Duration="2" Instrument="quiet bass"
				Note Time="26" Value="E1" Duration="2" Instrument="quiet bass"
				Note Time="28" Value="E1" Duration="2" Instrument="quiet bass"
				Note Time="30" Value="E1" Duration="2" Instrument="quiet bass"
			Pattern Name="02" Color="e95093"
				Note Time="0" Value="F#1" Duration="2" Instrument="quiet bass"
				Note Time="2" Value="F#1" Duration="2" Instrument="quiet bass"
				Note Time="4" Value="F#1" Duration="2" Instrument="quiet bass"
				Note Time="6" Value="F#1" Duration="2" Instrument="quiet bass"
				Note Time="8" Value="F#1" Duration="2" Instrument="quiet bass"
				Note Time="10" Value="F#1" Duration="2" Instrument="quiet bass"
				Note Time="12" Value="F#1" Duration="2" Instrument="quiet bass"
				Note Time="14" Value="F#1" Duration="2" Instrument="quiet bass"
				Note Time="16" Value="F#1" Duration="2" Instrument="quiet bass"
				Note Time="18" Value="F#1" Duration="2" Instrument="quiet bass"
				Note Time="20" Value="F#1" Duration="2" Instrument="quiet bass"
				Note Time="22" Value="F#1" Duration="2" Instrument="quiet bass"
				Note Time="24" Value="F#1" Duration="2" Instrument="quiet bass"
				Note Time="26" Value="F#1" Duration="2" Instrument="quiet bass"
				Note Time="28" Value="F#1" Duration="2" Instrument="quiet bass"
				Note Time="30" Value="F#1" Duration="2" Instrument="quiet bass"
			Pattern Name="03" Color="ffa83c"
				Note Time="0" Value="G#1" Duration="2" Instrument="quiet bass"
				Note Time="2" Value="G#1" Duration="2" Instrument="quiet bass"
				Note Time="4" Value="G#1" Duration="2" Instrument="quiet bass"
				Note Time="6" Value="G#1" Duration="2" Instrument="quiet bass"
				Note Time="8" Value="G#1" Duration="2" Instrument="quiet bass"
				Note Time="10" Value="G#1" Duration="2" Instrument="quiet bass"
				Note Time="12" Value="G#1" Duration="2" Instrument="quiet bass"
				Note Time="14" Value="G#1" Duration="2" Instrument="quiet bass"
				Note Time="16" Value="G#1" Duration="2" Instrument="quiet bass"
				Note Time="18" Value="G#1" Duration="2" Instrument="quiet bass"
				Note Time="20" Value="G#1" Duration="2" Instrument="quiet bass"
				Note Time="22" Value="G#1" Duration="2" Instrument="quiet bass"
				Note Time="24" Value="G#1" Duration="2" Instrument="quiet bass"
				Note Time="26" Value="G#1" Duration="2" Instrument="quiet bass"
				Note Time="28" Value="G#1" Duration="2" Instrument="quiet bass"
				Note Time="30" Value="G#1" Duration="2" Instrument="quiet bass"
			Pattern Name="05" Color="65f2ff"
				Note Time="0" Value="E1" Duration="2" Instrument="quiet bass"
				Note Time="2" Value="E1" Duration="2" Instrument="quiet bass"
				Note Time="4" Value="E1" Duration="2" Instrument="quiet bass"
				Note Time="6" Value="E1" Duration="2" Instrument="quiet bass"
				Note Time="8" Value="E1" Duration="2" Instrument="quiet bass"
				Note Time="10" Value="E1" Duration="2" Instrument="quiet bass"
				Note Time="12" Value="E1" Duration="2" Instrument="quiet bass"
				Note Time="14" Value="E1" Duration="2" Instrument="quiet bass"
				Note Time="16" Value="E1" Duration="2" Instrument="quiet bass"
				Note Time="18" Value="E1" Duration="2" Instrument="quiet bass"
				Note Time="20" Value="E1" Duration="2" Instrument="quiet bass"
				Note Time="22" Value="E1" Duration="2" Instrument="quiet bass"
				Note Time="24" Value="E1" Duration="2" Instrument="quiet bass"
				Note Time="26" Value="E1" Duration="2" Instrument="quiet bass"
				Note Time="28" Value="E1" Duration="2" Instrument="quiet bass"
				Note Time="30" Value="E1" Duration="2" Instrument="quiet bass"
			Pattern Name="06" Color="d863ec"
				Note Time="0" Value="C#1" Duration="2" Instrument="quiet bass"
				Note Time="2" Value="C#1" Duration="2" Instrument="quiet bass"
				Note Time="4" Value="C#1" Duration="2" Instrument="quiet bass"
				Note Time="6" Value="C#1" Duration="2" Instrument="quiet bass"
				Note Time="8" Value="C#1" Duration="2" Instrument="quiet bass"
				Note Time="10" Value="C#1" Duration="2" Instrument="quiet bass"
				Note Time="12" Value="C#1" Duration="2" Instrument="quiet bass"
				Note Time="14" Value="C#1" Duration="2" Instrument="quiet bass"
				Note Time="16" Value="C#1" Duration="2" Instrument="quiet bass"
				Note Time="18" Value="C#1" Duration="2" Instrument="quiet bass"
				Note Time="20" Value="C#1" Duration="2" Instrument="quiet bass"
				Note Time="22" Value="C#1" Duration="2" Instrument="quiet bass"
				Note Time="24" Value="C#1" Duration="2" Instrument="quiet bass"
				Note Time="26" Value="C#1" Duration="2" Instrument="quiet bass"
				Note Time="28" Value="C#1" Duration="2" Instrument="quiet bass"
				Note Time="30" Value="C#1" Duration="2" Instrument="quiet bass"
			Pattern Name="07" Color="ff935e"
				Note Time="0" Value="D#1" Duration="2" Instrument="quiet bass"
				Note Time="2" Value="D#1" Duration="2" Instrument="quiet bass"
				Note Time="4" Value="D#1" Duration="2" Instrument="quiet bass"
				Note Time="6" Value="D#1" Duration="2" Instrument="quiet bass"
				Note Time="8" Value="D#1" Duration="2" Instrument="quiet bass"
				Note Time="10" Value="D#1" Duration="2" Instrument="quiet bass"
				Note Time="12" Value="D#1" Duration="2" Instrument="quiet bass"
				Note Time="14" Value="D#1" Duration="2" Instrument="quiet bass"
				Note Time="16" Value="D#1" Duration="2" Instrument="quiet bass"
				Note Time="18" Value="D#1" Duration="2" Instrument="quiet bass"
				Note Time="20" Value="D#1" Duration="2" Instrument="quiet bass"
				Note Time="22" Value="D#1" Duration="2" Instrument="quiet bass"
				Note Time="24" Value="D#1" Duration="2" Instrument="quiet bass"
				Note Time="26" Value="D#1" Duration="2" Instrument="quiet bass"
				Note Time="28" Value="D#1" Duration="2" Instrument="quiet bass"
				Note Time="30" Value="D#1" Duration="2" Instrument="quiet bass"
			PatternInstance Time="4" Pattern="01"
			PatternInstance Time="5" Pattern="02"
			PatternInstance Time="6" Pattern="03"
			PatternInstance Time="7" Pattern="03"
			PatternInstance Time="8" Pattern="01"
			PatternInstance Time="9" Pattern="02"
			PatternInstance Time="10" Pattern="03"
			PatternInstance Time="11" Pattern="03"
			PatternInstance Time="12" Pattern="01"
			PatternInstance Time="13" Pattern="02"
			PatternInstance Time="14" Pattern="03"
			PatternInstance Time="15" Pattern="03"
			PatternInstance Time="16" Pattern="01"
			PatternInstance Time="17" Pattern="02"
			PatternInstance Time="18" Pattern="03"
			PatternInstance Time="19" Pattern="03"
			PatternInstance Time="21" Pattern="03"
			PatternInstance Time="22" Pattern="03"
			PatternInstance Time="23" Pattern="05"
			PatternInstance Time="24" Pattern="05"
			PatternInstance Time="25" Pattern="06"
			PatternInstance Time="26" Pattern="06"
			PatternInstance Time="27" Pattern="05"
			PatternInstance Time="28" Pattern="07"
			PatternInstance Time="29" Pattern="03"
			PatternInstance Time="30" Pattern="03"
			PatternInstance Time="31" Pattern="05"
			PatternInstance Time="32" Pattern="05"
			PatternInstance Time="33" Pattern="06"
			PatternInstance Time="34" Pattern="06"
			PatternInstance Time="35" Pattern="05"
			PatternInstance Time="36" Pattern="07"
		Channel Type="Triangle"
		Channel Type="Noise"
			Pattern Name="03" Color="62e2d6"
				Note Time="0" Value="G2" Duration="2" Instrument="kick"
				Note Time="2" Value="A3" Duration="2" Instrument="hat"
				Note Time="4" Value="G3" Duration="2" Instrument="hat"
				Note Time="6" Value="A3" Duration="2" Instrument="hat"
				Note Time="8" Value="G2" Duration="2" Instrument="snare"
				Note Time="10" Value="A3" Duration="2" Instrument="hat"
				Note Time="12" Value="G3" Duration="2" Instrument="hat"
				Note Time="14" Value="A3" Duration="2" Instrument="hat"
				Note Time="16" Value="G2" Duration="2" Instrument="kick"
				Note Time="18" Value="A3" Duration="2" Instrument="hat"
				Note Time="20" Value="G3" Duration="2" Instrument="hat"
				Note Time="22" Value="A3" Duration="2" Instrument="hat"
				Note Time="24" Value="G2" Duration="2" Instrument="snare"
				Note Time="26" Value="A3" Duration="2" Instrument="hat"
				Note Time="28" Value="G3" Duration="2" Instrument="hat"
				Note Time="30" Value="A3" Duration="2" Instrument="hat"
			Pattern Name="04" Color="7b8df1"
				Note Time="0" Value="G2" Duration="2" Instrument="kick"
				Note Time="2" Value="A3" Duration="2" Instrument="hat"
				Note Time="4" Value="G3" Duration="2" Instrument="hat"
				Note Time="6" Value="A3" Duration="2" Instrument="hat"
				Note Time="8" Value="G2" Duration="2" Instrument="snare"
				Note Time="10" Value="A3" Duration="2" Instrument="hat"
				Note Time="12" Value="G3" Duration="2" Instrument="hat"
				Note Time="14" Value="A3" Duration="2" Instrument="hat"
				Note Time="16" Value="G2" Duration="2" Instrument="kick"
				Note Time="18" Value="A3" Duration="2" Instrument="hat"
				Note Time="20" Value="G2" Duration="2" Instrument="snare"
				Note Time="22" Value="A3" Duration="2" Instrument="hat"
				Note Time="24" Value="G2" Duration="2" Instrument="snare"
				Note Time="26" Value="A3" Duration="2" Instrument="hat"
				Note Time="28" Value="G2" Duration="2" Instrument="snare"
				Note Time="30" Value="G2" Duration="2" Instrument="snare"
			PatternInstance Time="21" Pattern="03"
			PatternInstance Time="22" Pattern="04"
			PatternInstance Time="23" Pattern="03"
			PatternInstance Time="24" Pattern="04"
			PatternInstance Time="25" Pattern="03"
			PatternInstance Time="26" Pattern="04"
			PatternInstance Time="27" Pattern="03"
			PatternInstance Time="28" Pattern="04"
			PatternInstance Time="29" Pattern="03"
			PatternInstance Time="30" Pattern="04"
			PatternInstance Time="31" Pattern="03"
			PatternInstance Time="32" Pattern="04"
			PatternInstance Time="33" Pattern="03"
			PatternInstance Time="34" Pattern="04"
			PatternInstance Time="35" Pattern="03"
			PatternInstance Time="36" Pattern="04"
		Channel Type="DPCM"
			Pattern Name="01" Color="ffef3c"
				Note Time="0" Value="E3" Duration="2" Instrument="DMC: drums + bass"
				Note Time="2" Value="E3" Duration="2" Instrument="DMC: drums + bass"
				Note Time="4" Value="E3" Duration="2" Instrument="DMC: drums + bass"
				Note Time="6" Value="E3" Duration="2" Instrument="DMC: drums + bass"
				Note Time="8" Value="E3" Duration="2" Instrument="DMC: drums + bass"
				Note Time="10" Value="E3" Duration="2" Instrument="DMC: drums + bass"
				Note Time="12" Value="E3" Duration="2" Instrument="DMC: drums + bass"
				Note Time="14" Value="E3" Duration="2" Instrument="DMC: drums + bass"
				Note Time="16" Value="E3" Duration="2" Instrument="DMC: drums + bass"
				Note Time="18" Value="E3" Duration="2" Instrument="DMC: drums + bass"
				Note Time="20" Value="E3" Duration="2" Instrument="DMC: drums + bass"
				Note Time="22" Value="E3" Duration="2" Instrument="DMC: drums + bass"
				Note Time="24" Value="E3" Duration="2" Instrument="DMC: drums + bass"
				Note Time="26" Value="E3" Duration="2" Instrument="DMC: drums + bass"
				Note Time="28" Value="E3" Duration="2" Instrument="DMC: drums + bass"
				Note Time="30" Value="E3" Duration="2" Instrument="DMC: drums + bass"
			Pattern Name="02" Color="74ca78"
				Note Time="0" Value="F#3" Duration="2" Instrument="DMC: drums + bass"
				Note Time="2" Value="F#3" Duration="2" Instrument="DMC: drums + bass"
				Note Time="4" Value="F#3" Duration="2" Instrument="DMC: drums + bass"
				Note Time="6" Value="F#3" Duration="2" Instrument="DMC: drums + bass"
				Note Time="8" Value="F#3" Duration="2" Instrument="DMC: drums + bass"
				Note Time="10" Value="F#3" Duration="2" Instrument="DMC: drums + bass"
				Note Time="12" Value="F#3" Duration="2" Instrument="DMC: drums + bass"
				Note Time="14" Value="F#3" Duration="2" Instrument="DMC: drums + bass"
				Note Time="16" Value="F#3" Duration="2" Instrument="DMC: drums + bass"
				Note Time="18" Value="F#3" Duration="2" Instrument="DMC: drums + bass"
				Note Time="20" Value="F#3" Duration="2" Instrument="DMC: drums + bass"
				Note Time="22" Value="F#3" Duration="2" Instrument="DMC: drums + bass"
				Note Time="24" Value="F#3" Duration="2" Instrument="DMC: drums + bass"
				Note Time="26" Value="F#3" Duration="2" Instrument="DMC: drums + bass"
				Note Time="28" Value="F#3" Duration="2" Instrument="DMC: drums + bass"
				Note Time="30" Value="F#3" Duration="2" Instrument="DMC: drums + bass"
			Pattern Name="03" Color="51a1fc"
				Note Time="0" Value="G#3" Duration="2" Instrument="DMC: drums + bass"
				Note Time="2" Value="G#3" Duration="2" Instrument="DMC: drums + bass"
				Note Time="4" Value="G#3" Duration="2" Instrument="DMC: drums + bass"
				Note Time="6" Value="G#3" Duration="2" Instrument="DMC: drums + bass"
				Note Time="8" Value="G#3" Duration="2" Instrument="DMC: drums + bass"
				Note Time="10" Value="G#3" Duration="2" Instrument="DMC: drums + bass"
				Note Time="12" Value="G#3" Duration="2" Instrument="DMC: drums + bass"
				Note Time="14" Value="G#3" Duration="2" Instrument="DMC: drums + bass"
				Note Time="16" Value="G#3" Duration="2" Instrument="DMC: drums + bass"
				Note Time="18" Value="G#3" Duration="2" Instrument="DMC: drums + bass"
				Note Time="20" Value="G#3" Duration="2" Instrument="DMC: drums + bass"
				Note Time="22" Value="G#3" Duration="2" Instrument="DMC: drums + bass"
				Note Time="24" Value="G#3" Duration="2" Instrument="DMC: drums + bass"
				Note Time="26" Value="G#3" Duration="2" Instrument="DMC: drums + bass"
				Note Time="28" Value="G#3" Duration="2" Instrument="DMC: drums + bass"
				Note Time="30" Value="G#3" Duration="2" Instrument="DMC: drums + bass"
			Pattern Name="04" Color="ff9ece"
				Note Time="0" Value="E5" Duration="1" Instrument="DMC: drums + bass"
				Note Time="1" Value="E3" Duration="1" Instrument="DMC: drums + bass"
				Note Time="2" Value="E3" Duration="2" Instrument="DMC: drums + bass"
				Note Time="4" Value="E3" Duration="2" Instrument="DMC: drums + bass"
				Note Time="6" Value="E3" Duration="2" Instrument="DMC: drums + bass"
				Note Time="8" Value="E5" Duration="1" Instrument="DMC: drums + bass"
				Note Time="9" Value="E3" Duration="1" Instrument="DMC: drums + bass"
				Note Time="10" Value="E3" Duration="2" Instrument="DMC: drums + bass"
				Note Time="12" Value="E3" Duration="2" Instrument="DMC: drums + bass"
				Note Time="14" Value="E3" Duration="2" Instrument="DMC: drums + bass"
				Note Time="16" Value="E5" Duration="1" Instrument="DMC: drums + bass"
				Note Time="17" Value="E3" Duration="1" Instrument="DMC: drums + bass"
				Note Time="18" Value="E3" Duration="2" Instrument="DMC: drums + bass"
				Note Time="20" Value="E3" Duration="2" Instrument="DMC: drums + bass"
				Note Time="22" Value="E3" Duration="2" Instrument="DMC: drums + bass"
				Note Time="24" Value="E5" Duration="1" Instrument="DMC: drums + bass"
				Note Time="25" Value="E3" Duration="1" Instrument="DMC: drums + bass"
				Note Time="26" Value="E3" Duration="2" Instrument="DMC: drums + bass"
				Note Time="28" Value="E3" Duration="2" Instrument="DMC: drums + bass"
				Note Time="30" Value="E3" Duration="2" Instrument="DMC: drums + bass"
			Pattern Name="05" Color="fff389"
				Note Time="0" Value="E5" Duration="1" Instrument="DMC: drums + bass"
				Note Time="1" Value="F#3" Duration="1" Instrument="DMC: drums + bass"
				Note Time="2" Value="F#3" Duration="2" Instrument="DMC: drums + bass"
				Note Time="4" Value="F#3" Duration="2" Instrument="DMC: drums + bass"
				Note Time="6" Value="F#3" Duration="2" Instrument="DMC: drums + bass"
				Note Time="8" Value="E5" Duration="1" Instrument="DMC: drums + bass"
				Note Time="9" Value="F#3" Duration="1" Instrument="DMC: drums + bass"
				Note Time="10" Value="F#3" Duration="2" Instrument="DMC: drums + bass"
				Note Time="12" Value="F#3" Duration="2" Instrument="DMC: drums + bass"
				Note Time="14" Value="F#3" Duration="2" Instrument="DMC: drums + bass"
				Note Time="16" Value="E5" Duration="1" Instrument="DMC: drums + bass"
				Note Time="17" Value="F#3" Duration="1" Instrument="DMC: drums + bass"
				Note Time="18" Value="F#3" Duration="2" Instrument="DMC: drums + bass"
				Note Time="20" Value="F#3" Duration="2" Instrument="DMC: drums + bass"
				Note Time="22" Value="F#3" Duration="2" Instrument="DMC: drums + bass"
				Note Time="24" Value="E5" Duration="1" Instrument="DMC: drums + bass"
				Note Time="25" Value="F#3" Duration="1" Instrument="DMC: drums + bass"
				Note Time="26" Value="F#3" Duration="2" Instrument="DMC: drums + bass"
				Note Time="28" Value="F#3" Duration="2" Instrument="DMC: drums + bass"
				Note Time="30" Value="F#3" Duration="2" Instrument="DMC: drums + bass"
			Pattern Name="06" Color="d8ffa1"
				Note Time="0" Value="E5" Duration="1" Instrument="DMC: drums + bass"
				Note Time="1" Value="G#3" Duration="1" Instrument="DMC: drums + bass"
				Note Time="2" Value="G#3" Duration="2" Instrument="DMC: drums + bass"
				Note Time="4" Value="G#3" Duration="2" Instrument="DMC: drums + bass"
				Note Time="6" Value="G#3" Duration="2" Instrument="DMC: drums + bass"
				Note Time="8" Value="E5" Duration="1" Instrument="DMC: drums + bass"
				Note Time="9" Value="G#3" Duration="1" Instrument="DMC: drums + bass"
				Note Time="10" Value="G#3" Duration="2" Instrument="DMC: drums + bass"
				Note Time="12" Value="G#3" Duration="2" Instrument="DMC: drums + bass"
				Note Time="14" Value="G#3" Duration="2" Instrument="DMC: drums + bass"
				Note Time="16" Value="E5" Duration="1" Instrument="DMC: drums + bass"
				Note Time="17" Value="G#3" Duration="1" Instrument="DMC: drums + bass"
				Note Time="18" Value="G#3" Duration="2" Instrument="DMC: drums + bass"
				Note Time="20" Value="G#3" Duration="2" Instrument="DMC: drums + bass"
				Note Time="22" Value="G#3" Duration="2" Instrument="DMC: drums + bass"
				Note Time="24" Value="E5" Duration="1" Instrument="DMC: drums + bass"
				Note Time="25" Value="G#3" Duration="1" Instrument="DMC: drums + bass"
				Note Time="26" Value="G#3" Duration="2" Instrument="DMC: drums + bass"
				Note Time="28" Value="G#3" Duration="2" Instrument="DMC: drums + bass"
				Note Time="30" Value="G#3" Duration="2" Instrument="DMC: drums + bass"
			Pattern Name="07" Color="3fe5ff"
				Note Time="0" Value="E5" Duration="1" Instrument="DMC: drums + bass"
				Note Time="1" Value="G#3" Duration="1" Instrument="DMC: drums + bass"
				Note Time="2" Value="E5" Duration="1" Instrument="DMC: drums + bass"
				Note Time="3" Value="G#3" Duration="1" Instrument="DMC: drums + bass"
				Note Time="4" Value="E5" Duration="1" Instrument="DMC: drums + bass"
				Note Time="5" Value="G#3" Duration="1" Instrument="DMC: drums + bass"
				Note Time="6" Value="E5" Duration="1" Instrument="DMC: drums + bass"
				Note Time="7" Value="E5" Duration="1" Instrument="DMC: drums + bass"
				Note Time="8" Value="E5" Duration="1" Instrument="DMC: drums + bass"
				Note Time="9" Value="G#3" Duration="1" Instrument="DMC: drums + bass"
				Note Time="10" Value="E5" Duration="1" Instrument="DMC: drums + bass"
				Note Time="11" Value="G#3" Duration="1" Instrument="DMC: drums + bass"
				Note Time="12" Value="E5" Duration="1" Instrument="DMC: drums + bass"
				Note Time="13" Value="G#3" Duration="1" Instrument="DMC: drums + bass"
				Note Time="14" Value="E5" Duration="1" Instrument="DMC: drums + bass"
				Note Time="15" Value="E5" Duration="1" Instrument="DMC: drums + bass"
				Note Time="16" Value="E5" Duration="1" Instrument="DMC: drums + bass"
				Note Time="17" Value="G#3" Duration="1" Instrument="DMC: drums + bass"
				Note Time="18" Value="E5" Duration="1" Instrument="DMC: drums + bass"
				Note Time="19" Value="G#3" Duration="1" Instrument="DMC: drums + bass"
				Note Time="20" Value="E5" Duration="1" Instrument="DMC: drums + bass"
				Note Time="21" Value="G#3" Duration="1" Instrument="DMC: drums + bass"
				Note Time="22" Value="E5" Duration="1" Instrument="DMC: drums + bass"
				Note Time="23" Value="E5" Duration="1" Instrument="DMC: drums + bass"
				Note Time="24" Value="E5" Duration="1" Instrument="DMC: drums + bass"
				Note Time="25" Value="G#3" Duration="1" Instrument="DMC: drums + bass"
				Note Time="26" Value="E5" Duration="1" Instrument="DMC: drums + bass"
				Note Time="27" Value="G#3" Duration="1" Instrument="DMC: drums + bass"
				Note Time="28" Value="E5" Duration="1" Instrument="DMC: drums + bass"
				Note Time="29" Value="G#3" Duration="1" Instrument="DMC: drums + bass"
				Note Time="30" Value="E5" Duration="1" Instrument="DMC: drums + bass"
				Note Time="31" Value="E5" Duration="1" Instrument="DMC: drums + bass"
			Pattern Name="08" Color="ca60e6"
				Note Time="0" Value="G5" Duration="1" Instrument="DMC: drums + bass"
				Note Time="1" Value="G5" Duration="1" Instrument="DMC: drums + bass"
				Note Time="2" Value="G5" Duration="1" Instrument="DMC: drums + bass"
				Note Time="3" Value="G5" Duration="1" Instrument="DMC: drums + bass"
				Note Time="4" Value="G5" Duration="1" Instrument="DMC: drums + bass"
				Note Time="5" Value="G5" Duration="1" Instrument="DMC: drums + bass"
				Note Time="6" Value="G5" Duration="1" Instrument="DMC: drums + bass"
				Note Time="7" Value="G5" Duration="1" Instrument="DMC: drums + bass"
				Note Time="8" Value="G5" Duration="1" Instrument="DMC: drums + bass"
				Note Time="9" Value="G5" Duration="1" Instrument="DMC: drums + bass"
				Note Time="10" Value="G5" Duration="1" Instrument="DMC: drums + bass"
				Note Time="11" Value="G5" Duration="1" Instrument="DMC: drums + bass"
				Note Time="12" Value="G5" Duration="1" Instrument="DMC: drums + bass"
				Note Time="13" Value="G5" Duration="1" Instrument="DMC: drums + bass"
				Note Time="14" Value="G5" Duration="1" Instrument="DMC: drums + bass"
				Note Time="15" Value="G5" Duration="1" Instrument="DMC: drums + bass"
				Note Time="16" Value="G5" Duration="1" Instrument="DMC: drums + bass"
				Note Time="17" Value="G5" Duration="1" Instrument="DMC: drums + bass"
				Note Time="18" Value="G5" Duration="1" Instrument="DMC: drums + bass"
				Note Time="19" Value="G5" Duration="1" Instrument="DMC: drums + bass"
				Note Time="20" Value="G5" Duration="1" Instrument="DMC: drums + bass"
				Note Time="21" Value="G5" Duration="1" Instrument="DMC: drums + bass"
				Note Time="22" Value="G5" Duration="1" Instrument="DMC: drums + bass"
				Note Time="23" Value="G5" Duration="1" Instrument="DMC: drums + bass"
				Note Time="24" Value="G5" Duration="1" Instrument="DMC: drums + bass"
				Note Time="25" Value="G5" Duration="1" Instrument="DMC: drums + bass"
				Note Time="26" Value="G5" Duration="1" Instrument="DMC: drums + bass"
				Note Time="27" Value="G5" Duration="1" Instrument="DMC: drums + bass"
				Note Time="28" Value="G5" Duration="1" Instrument="DMC: drums + bass"
				Note Time="29" Value="G5" Duration="1" Instrument="DMC: drums + bass"
				Note Time="30" Value="G5" Duration="1" Instrument="DMC: drums + bass"
				Note Time="31" Value="G5" Duration="1" Instrument="DMC: drums + bass"
			Pattern Name="09" Color="ff8d5a"
				Note Time="0" Value="E5" Duration="2" Instrument="DMC: drums + bass"
				Note Time="2" Value="G#3" Duration="2" Instrument="DMC: drums + bass"
				Note Time="4" Value="G#3" Duration="2" Instrument="DMC: drums + bass"
				Note Time="6" Value="G#3" Duration="2" Instrument="DMC: drums + bass"
				Note Time="8" Value="F5" Duration="2" Instrument="DMC: drums + bass"
				Note Time="10" Value="G#3" Duration="2" Instrument="DMC: drums + bass"
				Note Time="12" Value="G#3" Duration="2" Instrument="DMC: drums + bass"
				Note Time="14" Value="G#3" Duration="2" Instrument="DMC: drums + bass"
				Note Time="16" Value="E5" Duration="2" Instrument="DMC: drums + bass"
				Note Time="18" Value="G#3" Duration="2" Instrument="DMC: drums + bass"
				Note Time="20" Value="G#3" Duration="2" Instrument="DMC: drums + bass"
				Note Time="22" Value="G#3" Duration="2" Instrument="DMC: drums + bass"
				Note Time="24" Value="F5" Duration="2" Instrument="DMC: drums + bass"
				Note Time="26" Value="G#3" Duration="2" Instrument="DMC: drums + bass"
				Note Time="28" Value="G#3" Duration="2" Instrument="DMC: drums + bass"
				Note Time="30" Value="G#3" Duration="2" Instrument="DMC: drums + bass"
			Pattern Name="0A" Color="ebf067"
				Note Time="0" Value="E5" Duration="2" Instrument="DMC: drums + bass"
				Note Time="2" Value="G#3" Duration="2" Instrument="DMC: drums + bass"
				Note Time="4" Value="G#3" Duration="2" Instrument="DMC: drums + bass"
				Note Time="6" Value="G#3" Duration="2" Instrument="DMC: drums + bass"
				Note Time="8" Value="F5" Duration="2" Instrument="DMC: drums + bass"
				Note Time="10" Value="G#3" Duration="2" Instrument="DMC: drums + bass"
				Note Time="12" Value="G#3" Duration="2" Instrument="DMC: drums + bass"
				Note Time="14" Value="G#3" Duration="2" Instrument="DMC: drums + bass"
				Note Time="16" Value="E5" Duration="2" Instrument="DMC: drums + bass"
				Note Time="18" Value="G#3" Duration="2" Instrument="DMC: drums + bass"
				Note Time="20" Value="F5" Duration="2" Instrument="DMC: drums + bass"
				Note Time="22" Value="G#3" Duration="2" Instrument="DMC: drums + bass"
				Note Time="24" Value="F5" Duration="2" Instrument="DMC: drums + bass"
				Note Time="26" Value="G#3" Duration="2" Instrument="DMC: drums + bass"
				Note Time="28" Value="F5" Duration="2" Instrument="DMC: drums + bass"
				Note Time="30" Value="F5" Duration="2" Instrument="DMC: drums + bass"
			Pattern Name="0B" Color="3cbfcb"
				Note Time="0" Value="E5" Duration="2" Instrument="DMC: drums + bass"
				Note Time="2" Value="E3" Duration="2" Instrument="DMC: drums + bass"
				Note Time="4" Value="E3" Duration="2" Instrument="DMC: drums + bass"
				Note Time="6" Value="E3" Duration="2" Instrument="DMC: drums + bass"
				Note Time="8" Value="F5" Duration="2" Instrument="DMC: drums + bass"
				Note Time="10" Value="E3" Duration="2" Instrument="DMC: drums + bass"
				Note Time="12" Value="E3" Duration="2" Instrument="DMC: drums + bass"
				Note Time="14" Value="E3" Duration="2" Instrument="DMC: drums + bass"
				Note Time="16" Value="E5" Duration="2" Instrument="DMC: drums + bass"
				Note Time="18" Value="E3" Duration="2" Instrument="DMC: drums + bass"
				Note Time="20" Value="E3" Duration="2" Instrument="DMC: drums + bass"
				Note Time="22" Value="E3" Duration="2" Instrument="DMC: drums + bass"
				Note Time="24" Value="F5" Duration="2" Instrument="DMC: drums + bass"
				Note Time="26" Value="E3" Duration="2" Instrument="DMC: drums + bass"
				Note Time="28" Value="E3" Duration="2" Instrument="DMC: drums + bass"
				Note Time="30" Value="E3" Duration="2" Instrument="DMC: drums + bass"
			Pattern Name="0C" Color="d1b1ff"
				Note Time="0" Value="E5" Duration="2" Instrument="DMC: drums + bass"
				Note Time="2" Value="E3" Duration="2" Instrument="DMC: drums + bass"
				Note Time="4" Value="E3" Duration="2" Instrument="DMC: drums + bass"
				Note Time="6" Value="E3" Duration="2" Instrument="DMC: drums + bass"
				Note Time="8" Value="F5" Duration="2" Instrument="DMC: drums + bass"
				Note Time="10" Value="E3" Duration="2" Instrument="DMC: drums + bass"
				Note Time="12" Value="E3" Duration="2" Instrument="DMC: drums + bass"
				Note Time="14" Value="E3" Duration="2" Instrument="DMC: drums + bass"
				Note Time="16" Value="E5" Duration="2" Instrument="DMC: drums + bass"
				Note Time="18" Value="E3" Duration="2" Instrument="DMC: drums + bass"
				Note Time="20" Value="F5" Duration="2" Instrument="DMC: drums + bass"
				Note Time="22" Value="E3" Duration="2" Instrument="DMC: drums + bass"
				Note Time="24" Value="F5" Duration="2" Instrument="DMC: drums + bass"
				Note Time="26" Value="E3" Duration="2" Instrument="DMC: drums + bass"
				Note Time="28" Value="F5" Duration="2" Instrument="DMC: drums + bass"
				Note Time="30" Value="F5" Duration="2" Instrument="DMC: drums + bass"
			Pattern Name="0D" Color="ddc4bb"
				Note Time="0" Value="E5" Duration="2" Instrument="DMC: drums + bass"
				Note Time="2" Value="C#3" Duration="2" Instrument="DMC: drums + bass"
				Note Time="4" Value="C#3" Duration="2" Instrument="DMC: drums + bass"
				Note Time="6" Value="C#3" Duration="2" Instrument="DMC: drums + bass"
				Note Time="8" Value="F5" Duration="2" Instrument="DMC: drums + bass"
				Note Time="10" Value="C#3" Duration="2" Instrument="DMC: drums + bass"
				Note Time="12" Value="C#3" Duration="2" Instrument="DMC: drums + bass"
				Note Time="14" Value="C#3" Duration="2" Instrument="DMC: drums + bass"
				Note Time="16" Value="E5" Duration="2" Instrument="DMC: drums + bass"
				Note Time="18" Value="C#3" Duration="2" Instrument="DMC: drums + bass"
				Note Time="20" Value="C#3" Duration="2" Instrument="DMC: drums + bass"
				Note Time="22" Value="C#3" Duration="2" Instrument="DMC: drums + bass"
				Note Time="24" Value="F5" Duration="2" Instrument="DMC: drums + bass"
				Note Time="26" Value="C#3" Duration="2" Instrument="DMC: drums + bass"
				Note Time="28" Value="C#3" Duration="2" Instrument="DMC: drums + bass"
				Note Time="30" Value="C#3" Duration="2" Instrument="DMC: drums + bass"
			Pattern Name="0E" Color="ffff94"
				Note Time="0" Value="E5" Duration="2" Instrument="DMC: drums + bass"
				Note Time="2" Value="C#3" Duration="2" Instrument="DMC: drums + bass"
				Note Time="4" Value="C#3" Duration="2" Instrument="DMC: drums + bass"
				Note Time="6" Value="C#3" Duration="2" Instrument="DMC: drums + bass"
				Note Time="8" Value="F5" Duration="2" Instrument="DMC: drums + bass"
				Note Time="10" Value="C#3" Duration="2" Instrument="DMC: drums + bass"
				Note Time="12" Value="C#3" Duration="2" Instrument="DMC: drums + bass"
				Note Time="14" Value="C#3" Duration="2" Instrument="DMC: drums + bass"
				Note Time="16" Value="E5" Duration="2" Instrument="DMC: drums + bass"
				Note Time="18" Value="C#3" Duration="2" Instrument="DMC: drums + bass"
				Note Time="20" Value="F5" Duration="2" Instrument="DMC: drums + bass"
				Note Time="22" Value="C#3" Duration="2" Instrument="DMC: drums + bass"
				Note Time="24" Value="F5" Duration="2" Instrument="DMC: drums + bass"
				Note Time="26" Value="C#3" Duration="2" Instrument="DMC: drums + bass"
				Note Time="28" Value="F5" Duration="2" Instrument="DMC: drums + bass"
				Note Time="30" Value="F5" Duration="2" Instrument="DMC: drums + bass"
			Pattern Name="0F" Color="3cd2c4"
				Note Time="0" Value="E5" Duration="2" Instrument="DMC: drums + bass"
				Note Time="2" Value="D#3" Duration="2" Instrument="DMC: drums + bass"
				Note Time="4" Value="D#3" Duration="2" Instrument="DMC: drums + bass"
				Note Time="6" Value="D#3" Duration="2" Instrument="DMC: drums + bass"
				Note Time="8" Value="F5" Duration="2" Instrument="DMC: drums + bass"
				Note Time="10" Value="D#3" Duration="2" Instrument="DMC: drums + bass"
				Note Time="12" Value="D#3" Duration="2" Instrument="DMC: drums + bass"
				Note Time="14" Value="D#3" Duration="2" Instrument="DMC: drums + bass"
				Note Time="16" Value="E5" Duration="2" Instrument="DMC: drums + bass"
				Note Time="18" Value="D#3" Duration="2" Instrument="DMC: drums + bass"
				Note Time="20" Value="F5" Duration="2" Instrument="DMC: drums + bass"
				Note Time="22" Value="D#3" Duration="2" Instrument="DMC: drums + bass"
				Note Time="24" Value="F5" Duration="2" Instrument="DMC: drums + bass"
				Note Time="26" Value="D#3" Duration="2" Instrument="DMC: drums + bass"
				Note Time="28" Value="F5" Duration="2" Instrument="DMC: drums + bass"
				Note Time="30" Value="F5" Duration="3" Instrument="DMC: drums + bass"
			PatternInstance Time="8" Pattern="01"
			PatternInstance Time="9" Pattern="02"
			PatternInstance Time="10" Pattern="03"
			PatternInstance Time="11" Pattern="03"
			PatternInstance Time="12" Pattern="04"
			PatternInstance Time="13" Pattern="05"
			PatternInstance Time="14" Pattern="06"
			PatternInstance Time="15" Pattern="06"
			PatternInstance Time="16" Pattern="04"
			PatternInstance Time="17" Pattern="05"
			PatternInstance Time="18" Pattern="07"
			PatternInstance Time="19" Pattern="08"
			PatternInstance Time="21" Pattern="09"
			PatternInstance Time="22" Pattern="0A"
			PatternInstance Time="23" Pattern="0B"
			PatternInstance Time="24" Pattern="0C"
			PatternInstance Time="25" Pattern="0D"
			PatternInstance Time="26" Pattern="0E"
			PatternInstance Time="27" Pattern="0B"
			PatternInstance Time="28" Pattern="0F"
			PatternInstance Time="29" Pattern="09"
			PatternInstance Time="30" Pattern="0A"
			PatternInstance Time="31" Pattern="0B"
			PatternInstance Time="32" Pattern="0C"
			PatternInstance Time="33" Pattern="0D"
			PatternInstance Time="34" Pattern="0E"
			PatternInstance Time="35" Pattern="0B"
			PatternInstance Time="36" Pattern="0F"
	Song Name="Dash" Color="dad960" Folder="Unused" Length="17" LoopPoint="0" PatternLength="64" BeatLength="4" FamiTrackerTempo="129" FamiTrackerSpeed="3"
		PatternCustomSettings Time="0" Length="16"
		Channel Type="Square1"
			Pattern Name="00" Color="a0f1ff"
				Note Time="0" Value="Stop" FinePitch="0"
			Pattern Name="01" Color="ff7cb6"
				Note Time="0" Value="F3" Duration="6" Instrument="blank string" Volume="7"
				Note Time="6" Value="F3" Duration="2" Instrument="blank string" SlideTarget="A2" Attack="False"
				Note Time="16" Value="G#3" Duration="4" Instrument="blank string"
				Note Time="22" Value="G3" Duration="4" Instrument="blank string"
				Note Time="28" Value="D#3" Duration="4" Instrument="blank string"
				Note Time="32" Value="F3" Duration="4" Instrument="blank string"
				Note Time="36" Value="F3" Duration="2" Instrument="triangle drums" Volume="15" DutyCycle="2"
				Note Time="40" Value="F3" Duration="2" Instrument="triangle drums"
				Note Time="44" Value="F3" Duration="1" Instrument="triangle drums"
				Note Time="45" Value="F3" Duration="1" Instrument="triangle drums"
				Note Time="46" Value="F3" Duration="2" Instrument="triangle drums"
				Note Time="50" Value="F3" Duration="2" Instrument="triangle drums"
				Note Time="54" Value="F3" Duration="2" Instrument="triangle drums"
				Note Time="56" Value="C4" Duration="2" Instrument="cymbal" SlideTarget="D#4" Volume="9"
				Note Time="60" Value="C4" Duration="2" Instrument="cymbal" SlideTarget="D#4"
			Pattern Name="02" Color="ffe362"
				Note Time="0" Value="F3" Duration="6" Instrument="blank string" Volume="7"
				Note Time="6" Value="F3" Duration="2" Instrument="blank string" SlideTarget="A2" Attack="False"
				Note Time="16" Value="G#3" Duration="4" Instrument="blank string"
				Note Time="22" Value="A#3" Duration="4" Instrument="blank string"
				Note Time="28" Value="C4" Duration="4" Instrument="blank string"
				Note Time="36" Value="F4" Duration="2" Instrument="Instrument 2" Volume="15"
				Note Time="38" Value="D#4" Duration="2" Instrument="Instrument 2"
				Note Time="42" Value="F4" Duration="2" Instrument="Instrument 2"
				Note Time="44" Value="F4" Duration="2" Instrument="Instrument 2"
				Note Time="46" Value="D#4" Duration="2" Instrument="Instrument 2"
				Note Time="48" Value="D#4" Duration="1" Instrument="blank string" Volume="7"
				Note Time="49" Value="D#4" Duration="1" Instrument="blank"
				Note Time="50" Value="D#4" Duration="1" Instrument="blank string"
				Note Time="51" Value="D#4" Duration="1" Instrument="blank"
				Note Time="52" Value="D#4" Duration="1" Instrument="blank string"
				Note Time="53" Value="D#4" Duration="1" Instrument="blank"
				Note Time="54" Value="C4" Duration="2" Instrument="blank string"
				Note Time="56" Value="A#3" Duration="2" Instrument="Instrument 2" Volume="15"
				Note Time="58" Value="C4" Duration="2" Instrument="Instrument 2"
				Note Time="60" Value="D#4" Duration="2" Instrument="Instrument 2"
				Note Time="62" Value="F4" Duration="2" Instrument="Instrument 2"
			Pattern Name="03" Color="c7ff86"
				Note Time="0" Value="F3" Duration="6" Instrument="blank string" Volume="7"
				Note Time="6" Value="F3" Duration="2" Instrument="blank string" SlideTarget="A2" Attack="False"
				Note Time="16" Value="G#3" Duration="4" Instrument="blank string"
				Note Time="22" Value="G3" Duration="4" Instrument="blank string"
				Note Time="28" Value="D#3" Duration="4" Instrument="blank string"
				Note Time="32" Value="F3" Duration="4" Instrument="blank string"
				Note Time="36" Value="A#3" Duration="2" Instrument="cymbal" SlideTarget="E4"
				Note Time="40" Value="A#3" Duration="2" Instrument="cymbal" SlideTarget="E4"
				Note Time="46" Value="A#3" Duration="2" Instrument="cymbal" SlideTarget="E4"
				Note Time="50" Value="A#3" Duration="2" Instrument="cymbal" SlideTarget="E4"
				Note Time="56" Value="A#3" Duration="2" Instrument="cymbal" SlideTarget="E4"
				Note Time="60" Value="A#3" Duration="2" Instrument="cymbal" SlideTarget="E4"
				Note Time="63" DutyCycle="0"
			Pattern Name="04" Color="3fd7ff"
				Note Time="0" Value="A#1" Duration="2" Instrument="shift string" Volume="10"
				Note Time="2" Value="A#1" Duration="2" Instrument="shift string"
				Note Time="4" Value="F2" Duration="2" Instrument="shift string"
				Note Time="6" Value="A#1" Duration="2" Instrument="shift string"
				Note Time="8" Value="A#1" Duration="2" Instrument="shift string"
				Note Time="10" Value="A#1" Duration="2" Instrument="shift string"
				Note Time="12" Value="F2" Duration="2" Instrument="shift string"
				Note Time="14" Value="A#1" Duration="2" Instrument="shift string"
				Note Time="16" Value="D#2" Duration="2" Instrument="shift string"
				Note Time="18" Value="C2" Duration="2" Instrument="shift string"
				Note Time="20" Value="C2" Duration="2" Instrument="shift string"
				Note Time="22" Value="D#2" Duration="2" Instrument="shift string"
				Note Time="24" Value="C2" Duration="2" Instrument="shift string"
				Note Time="26" Value="C2" Duration="2" Instrument="shift string"
				Note Time="28" Value="D#2" Duration="2" Instrument="shift string"
				Note Time="30" Value="C2" Duration="2" Instrument="shift string"
				Note Time="34" Value="G#2" Duration="2" Instrument="shift string"
				Note Time="36" Value="A#2" Duration="2" Instrument="shift string"
				Note Time="38" Value="C3" Duration="2" Instrument="shift string"
			Pattern Name="05" Color="b75bde"
				Note Time="0" Value="F3" Duration="16" Instrument="02 but tri" Volume="15" DutyCycle="2"
				Note Time="16" Value="G#3" Duration="6" Instrument="02 but tri"
				Note Time="22" Value="G3" Duration="6" Instrument="02 but tri"
				Note Time="28" Value="D#3" Duration="4" Instrument="02 but tri"
				Note Time="32" Value="F3" Duration="4" Instrument="02 but tri"
				Note Time="36" Value="F3" Duration="4" Instrument="echo" Volume="15"
				Note Time="40" Value="F3" Duration="4" Instrument="echo"
				Note Time="44" Value="F3" Duration="1" Instrument="echo"
				Note Time="45" Value="F3" Duration="1" Instrument="echo"
				Note Time="46" Value="F3" Duration="4" Instrument="echo"
				Note Time="50" Value="F3" Duration="2" Instrument="echo"
				Note Time="52" Value="F3" Duration="4" Instrument="echo"
				Note Time="56" Value="G3" Duration="4" Instrument="echo"
				Note Time="60" Value="D#3" Duration="4" Instrument="02 but tri" Volume="15"
			Pattern Name="06" Color="ff8655"
				Note Time="0" Value="F3" Duration="16" Instrument="02 but tri" Volume="15"
				Note Time="16" Value="G#3" Duration="6" Instrument="02 but tri"
				Note Time="22" Value="A#3" Duration="6" Instrument="02 but tri"
				Note Time="28" Value="C4" Duration="4" Instrument="02 but tri"
				Note Time="32" Value="G#4" Duration="2" Instrument="octave arp"
				Note Time="34" Value="G4" Duration="2" Instrument="octave arp"
				Note Time="36" Value="F4" Duration="2" Instrument="octave arp"
				Note Time="38" Value="D#4" Duration="2" Instrument="octave arp"
				Note Time="40" Value="F4" Duration="6" Instrument="octave arp"
				Note Time="46" Value="D#4" Duration="8" Instrument="octave arp"
				Note Time="54" Value="C4" Duration="2" Instrument="octave arp"
				Note Time="56" Value="A#3" Duration="2" Instrument="octave arp"
				Note Time="58" Value="C4" Duration="2" Instrument="octave arp"
				Note Time="60" Value="D#4" Duration="2" Instrument="octave arp"
				Note Time="62" Value="F4" Duration="2" Instrument="octave arp"
			Pattern Name="07" Color="dad960"
				Note Time="0" Value="F3" Duration="16" Instrument="02 but tri" Volume="15"
				Note Time="16" Value="G#3" Duration="6" Instrument="02 but tri"
				Note Time="22" Value="G3" Duration="6" Instrument="02 but tri"
				Note Time="28" Value="G#3" Duration="4" Instrument="02 but tri"
				Note Time="32" Value="F3" Duration="4" Instrument="02 but tri"
				Note Time="36" Value="E6" Duration="3" Instrument="blank string" SlideTarget="C#6" Volume="5"
				Note Time="40" Value="E6" Duration="3" Instrument="blank string" SlideTarget="C#6"
				Note Time="44" Value="E6" Duration="2" Instrument="blank string" SlideTarget="D6"
				Note Time="46" Value="E6" Duration="3" Instrument="blank string" SlideTarget="C#6"
				Note Time="50" Value="E6" Duration="2" Instrument="blank string" SlideTarget="D6"
				Note Time="52" Value="E6" Duration="3" Instrument="blank string" SlideTarget="C#6"
				Note Time="55" Value="C#6" Duration="1" Instrument="blank string" Attack="False"
				Note Time="56" Value="C4" Duration="1" Instrument="Instrument 1" Arpeggio="Arp 0C" Volume="15"
				Note Time="57" Value="D#4" Duration="1" Instrument="Instrument 1" Arpeggio="Arp 0C"
				Note Time="58" Value="A#4" Duration="1" Instrument="Instrument 1" Arpeggio="Arp 0C"
				Note Time="59" Value="D#5" Duration="1" Instrument="Instrument 1" Arpeggio="Arp 0C"
				Note Time="60" Value="A#3" Duration="1" Instrument="Instrument 1" Arpeggio="Arp 0C"
				Note Time="61" Value="D#4" Duration="1" Instrument="Instrument 1" Arpeggio="Arp 0C"
				Note Time="62" Value="G3" Duration="1" Instrument="Instrument 1" Arpeggio="Arp 0C"
				Note Time="63" Value="A#3" Duration="1" Instrument="Instrument 1" Arpeggio="Arp 0C"
			Pattern Name="08" Color="89ffff"
				Note Time="0" Value="F3" Duration="16" Instrument="02 but tri" Volume="15"
				Note Time="16" Value="G#3" Duration="6" Instrument="02 but tri"
				Note Time="22" Value="A#3" Duration="6" Instrument="02 but tri"
				Note Time="28" Value="C4" Duration="4" Instrument="02 but tri"
				Note Time="32" Value="A#3" Duration="6" Instrument="echo"
				Note Time="38" Value="G3" Duration="6" Instrument="echo"
				Note Time="44" Value="A#3" Duration="2" Instrument="echo"
				Note Time="46" Value="C4" Duration="2" Instrument="echo"
				Note Time="48" Value="D#4" Duration="4" Instrument="echo"
				Note Time="52" Value="C4" Duration="2" Instrument="echo"
				Note Time="54" Value="D#4" Duration="6" Instrument="echo"
				Note Time="60" Value="C4" Duration="2" Instrument="echo"
				Note Time="62" Value="F5" Duration="2" Instrument="echo"
			Pattern Name="09" Color="ba93fe"
				Note Time="0" Value="F3" Duration="8" Instrument="echo" Volume="15" DutyCycle="0"
				Note Time="8" Value="F3" Duration="2" Instrument="sample"
				Note Time="10" Value="D#3" Duration="2" Instrument="sample"
				Note Time="12" Value="C3" Duration="2" Instrument="sample"
				Note Time="14" Value="D#3" Duration="2" Instrument="sample"
				Note Time="16" Value="D#3" Duration="1" Instrument="sample"
				Note Time="17" Value="F3" Duration="3" Instrument="sample"
				Note Time="20" Value="D#3" Duration="12" Instrument="sample"
				Note Time="32" Value="C3" Duration="4" Instrument="sample"
				Note Time="36" Value="A#2" Duration="2" Instrument="sample"
				Note Time="38" Value="G#2" Duration="4" Instrument="sample"
				Note Time="42" Value="A#2" Duration="4" Instrument="sample"
				Note Time="46" Value="A#2" Duration="1" Instrument="sample"
				Note Time="47" Value="C3" Duration="9" Instrument="sample"
				Note Time="56" Value="A#2" Duration="2" Instrument="sample"
				Note Time="58" Value="G#2" Duration="2" Instrument="sample"
				Note Time="60" Value="F2" Duration="2" Instrument="sample"
				Note Time="62" Value="D#2" Duration="2" Instrument="sample"
			Pattern Name="0A" Color="c9aa9f"
				Note Time="0" Value="F2" Duration="8" Instrument="sample"
				Note Time="8" Value="F2" Duration="4" Instrument="sample"
				Note Time="12" Value="G#2" Duration="2" Instrument="sample"
				Note Time="14" Value="A#2" Duration="6" Instrument="sample"
				Note Time="20" Value="C3" Duration="6" Instrument="sample"
				Note Time="26" Value="C3" Duration="2" Instrument="sample"
				Note Time="28" Value="D#3" Duration="2" Instrument="sample"
				Note Time="30" Value="C3" Duration="2" Instrument="sample"
				Note Time="32" Value="G#2" Duration="2" Instrument="octave arp"
				Note Time="36" Value="G#2" Duration="2" Instrument="octave arp"
				Note Time="38" Value="A#2" Duration="2" Instrument="octave arp"
				Note Time="42" Value="C3" Duration="2" Instrument="octave arp"
				Note Time="44" Value="D#3" Duration="2" Instrument="octave arp"
				Note Time="48" Value="F3" Duration="2" Instrument="octave arp"
				Note Time="52" Value="G#3" Duration="2" Instrument="octave arp"
				Note Time="54" Value="A#3" Duration="2" Instrument="octave arp"
				Note Time="58" Value="C4" Duration="2" Instrument="octave arp"
				Note Time="60" Value="D#4" Duration="4" Instrument="octave arp"
			Pattern Name="0B" Color="ffff77"
				Note Time="0" Value="F3" Duration="8" Instrument="echo"
				Note Time="8" Value="F3" Duration="2" Instrument="sample"
				Note Time="10" Value="D#3" Duration="2" Instrument="sample"
				Note Time="12" Value="C3" Duration="2" Instrument="sample"
				Note Time="14" Value="D#3" Duration="2" Instrument="sample"
				Note Time="16" Value="D#3" Duration="1" Instrument="sample" Arpeggio="Arp 70"
				Note Time="17" Value="F3" Duration="3" Instrument="sample" Arpeggio="Arp 70"
				Note Time="20" Value="D#3" Duration="6" Instrument="sample" Arpeggio="Arp 70"
				Note Time="26" Value="D#4" Duration="2" Instrument="sample"
				Note Time="28" Value="C4" Duration="2" Instrument="sample"
				Note Time="30" Value="A#3" Duration="2" Instrument="sample"
				Note Time="32" Value="A#3" Duration="1" Instrument="sample"
				Note Time="33" Value="B3" Duration="1" Instrument="sample"
				Note Time="34" Value="A#3" Duration="1" Instrument="sample"
				Note Time="35" Value="B3" Duration="1" Instrument="sample"
				Note Time="36" Value="A#3" Duration="2" Instrument="sample"
				Note Time="38" Value="B3" Duration="2" Instrument="sample"
				Note Time="40" Value="A#3" Duration="2" Instrument="sample"
				Note Time="42" Value="C4" Duration="2" Instrument="sample"
				Note Time="46" Value="B3" Duration="1" Instrument="sample"
				Note Time="47" Value="C4" Duration="17" Instrument="sample"
				Note Time="52" VibratoSpeed="6" VibratoDepth="3"
				Note Time="63" VibratoSpeed="0" VibratoDepth="0"
			Pattern Name="0C" Color="3cc5b7"
				Note Time="0" Value="A#2" Duration="10" Release="4" Instrument="shift string lite"
				Note Time="10" Value="C3" Duration="6" Release="3" Instrument="shift string lite"
				Note Time="16" Value="A#2" Duration="4" Release="3" Instrument="shift string lite"
				Note Time="20" Value="G#2" Duration="4" Release="3" Instrument="shift string lite"
				Note Time="24" Value="A#2" Duration="4" Release="3" Instrument="shift string lite"
				Note Time="28" Value="C3" Duration="4" Release="3" Instrument="shift string lite"
				Note Time="32" Value="F2" Duration="2" Release="1" Instrument="shift string lite"
				Note Time="34" Value="G#2" Duration="2" Release="1" Instrument="shift string lite"
				Note Time="36" Value="C#3" Duration="2" Release="1" Instrument="shift string lite"
				Note Time="38" Value="F3" Duration="2" Release="1" Instrument="shift string lite"
				Note Time="40" Value="C#3" Duration="2" Release="1" Instrument="shift string lite"
				Note Time="42" Value="F3" Duration="2" Release="1" Instrument="shift string lite"
				Note Time="44" Value="G#3" Duration="2" Release="1" Instrument="shift string lite"
				Note Time="46" Value="C#4" Duration="2" Release="1" Instrument="shift string lite"
				Note Time="48" Value="G2" Duration="2" Release="1" Instrument="shift string lite"
				Note Time="50" Value="A#2" Duration="2" Release="1" Instrument="shift string lite"
				Note Time="52" Value="D#3" Duration="2" Release="1" Instrument="shift string lite"
				Note Time="54" Value="G3" Duration="2" Release="1" Instrument="shift string lite"
				Note Time="56" Value="D#3" Duration="2" Release="1" Instrument="shift string lite"
				Note Time="58" Value="G3" Duration="2" Release="1" Instrument="shift string lite"
				Note Time="60" Value="A#3" Duration="2" Release="1" Instrument="shift string lite"
				Note Time="62" Value="D#4" Duration="2" Release="1" Instrument="shift string lite"
			Pattern Name="0D" Color="6c7bdb"
				Note Time="0" Value="F1" Duration="4" Release="2" Instrument="shift string lite" Volume="7" FinePitch="-2"
				Note Time="4" Value="F2" Duration="2" Instrument="shift string lite"
				Note Time="6" Value="F1" Duration="2" Instrument="shift string lite"
				Note Time="8" Value="D#2" Duration="4" Release="2" Instrument="shift string lite"
				Note Time="12" Value="F2" Duration="2" Instrument="shift string lite"
				Note Time="14" Value="F1" Duration="2" Instrument="shift string lite"
				Note Time="16" Value="F1" Duration="2" Instrument="shift string lite"
				Note Time="18" Value="F1" Duration="2" Instrument="shift string lite"
				Note Time="20" Value="F1" Duration="2" Instrument="shift string lite"
				Note Time="22" Value="F1" Duration="2" Instrument="shift string lite"
				Note Time="24" Value="F1" Duration="2" Instrument="shift string lite"
				Note Time="26" Value="F1" Duration="2" Instrument="shift string lite"
				Note Time="28" Value="F1" Duration="2" Instrument="shift string lite"
				Note Time="30" Value="F1" Duration="2" Instrument="shift string lite"
				Note Time="32" Value="F1" Duration="4" Release="2" Instrument="shift string lite" Volume="8"
				Note Time="36" Value="F2" Duration="2" Instrument="shift string lite" Volume="9"
				Note Time="38" Value="F1" Duration="2" Instrument="shift string lite"
				Note Time="40" Value="D#2" Duration="4" Release="2" Instrument="shift string lite" Volume="10"
				Note Time="44" Value="F2" Duration="2" Instrument="shift string lite" Volume="11"
				Note Time="46" Value="F1" Duration="2" Instrument="shift string lite"
				Note Time="48" Value="F1" Duration="2" Instrument="shift string lite" Volume="12"
				Note Time="50" Value="F1" Duration="2" Instrument="shift string lite"
				Note Time="52" Value="F1" Duration="2" Instrument="shift string lite" Volume="13"
				Note Time="54" Value="F1" Duration="2" Instrument="shift string lite" Volume="14"
				Note Time="56" Value="F1" Duration="1" Instrument="shift string lite" Volume="15"
				Note Time="57" Value="F1" Duration="1" Instrument="shift string lite"
				Note Time="58" Value="F1" Duration="1" Instrument="shift string lite"
				Note Time="59" Value="F1" Duration="1" Instrument="shift string lite"
				Note Time="60" Value="F1" Duration="1" Instrument="shift string lite"
				Note Time="61" Value="F1" Duration="1" Instrument="shift string lite"
				Note Time="62" Value="F1" Duration="1" Instrument="shift string lite"
				Note Time="63" Value="F1" Duration="1" Instrument="shift string lite"
			Pattern Name="0E" Color="ff6464"
				Note Time="0" Value="F1" Duration="2" Instrument="shift string lite"
				Note Time="2" Value="F1" Duration="2" Instrument="shift string lite"
				Note Time="4" Value="F2" Duration="2" Instrument="shift string lite"
				Note Time="6" Value="F1" Duration="2" Instrument="shift string lite"
				Note Time="8" Value="D#2" Duration="4" Release="2" Instrument="shift string lite"
				Note Time="12" Value="F2" Duration="2" Instrument="shift string lite"
				Note Time="14" Value="F1" Duration="2" Instrument="shift string lite"
				Note Time="16" Value="F1" Duration="2" Instrument="shift string lite"
				Note Time="18" Value="F1" Duration="2" Instrument="shift string lite"
				Note Time="20" Value="F1" Duration="2" Instrument="shift string lite"
				Note Time="22" Value="F1" Duration="2" Instrument="shift string lite"
				Note Time="24" Value="F1" Duration="2" Instrument="shift string lite"
				Note Time="26" Value="F1" Duration="2" Instrument="shift string lite"
				Note Time="28" Value="F1" Duration="2" Instrument="shift string lite"
				Note Time="30" Value="F1" Duration="2" Instrument="shift string lite"
				Note Time="32" Value="F1" Duration="4" Instrument="shift string lite"
				Note Time="36" Value="F2" Duration="2" Instrument="shift string lite"
				Note Time="38" Value="F1" Duration="2" Instrument="shift string lite"
				Note Time="40" Value="D#2" Duration="4" Instrument="shift string lite"
				Note Time="44" Value="F2" Duration="2" Instrument="shift string lite"
				Note Time="46" Value="F1" Duration="2" Instrument="shift string lite"
				Note Time="48" Value="F1" Duration="2" Instrument="shift string lite"
				Note Time="50" Value="F1" Duration="2" Instrument="shift string lite"
				Note Time="52" Value="F1" Duration="2" Instrument="shift string lite"
				Note Time="54" Value="F1" Duration="2" Instrument="shift string lite"
				Note Time="56" Value="F1" Duration="2" Instrument="shift string lite"
				Note Time="58" Value="F1" Duration="2" Instrument="shift string lite"
				Note Time="60" Value="F1" Duration="2" Instrument="shift string lite"
				Note Time="62" Value="F1" Duration="2" Instrument="shift string lite"
			Pattern Name="0F" Color="ffcb3c"
				Note Time="0" Value="F1" Duration="4" Release="2" Instrument="shift string lite" FinePitch="0"
				Note Time="4" Value="F1" Duration="4" Release="2" Instrument="shift string lite"
				Note Time="8" Value="F1" Duration="4" Release="2" Instrument="shift string lite"
				Note Time="12" Value="F1" Duration="4" Release="2" Instrument="shift string lite"
				Note Time="16" Value="F1" Duration="4" Release="2" Instrument="shift string lite"
				Note Time="20" Value="F1" Duration="4" Release="2" Instrument="shift string lite"
				Note Time="24" Value="F1" Duration="4" Release="2" Instrument="shift string lite"
				Note Time="28" Value="F1" Duration="4" Release="2" Instrument="shift string lite"
				Note Time="32" Value="F1" Duration="4" Release="2" Instrument="shift string lite"
				Note Time="36" Value="F1" Duration="4" Release="2" Instrument="shift string lite"
				Note Time="40" Value="F1" Duration="4" Release="2" Instrument="shift string lite"
				Note Time="44" Value="F1" Duration="4" Release="2" Instrument="shift string lite"
				Note Time="48" Value="F1" Duration="4" Release="2" Instrument="shift string lite"
				Note Time="52" Value="F1" Duration="4" Release="2" Instrument="shift string lite"
				Note Time="56" Value="F1" Duration="4" Release="2" Instrument="shift string lite"
				Note Time="60" Value="F1" Duration="4" Release="2" Instrument="shift string lite"
			Pattern Name="10" Color="bdffc0"
				Note Time="0" Value="F1" Duration="2" Instrument="shift string lite" FinePitch="0"
				Note Time="2" Value="F1" Duration="2" Instrument="shift string lite"
				Note Time="4" Value="F1" Duration="2" Instrument="shift string lite"
				Note Time="6" Value="F1" Duration="2" Instrument="shift string lite"
				Note Time="8" Value="F1" Duration="2" Instrument="shift string lite"
				Note Time="10" Value="F1" Duration="2" Instrument="shift string lite"
				Note Time="12" Value="F1" Duration="2" Instrument="shift string lite"
				Note Time="14" Value="F1" Duration="2" Instrument="shift string lite"
				Note Time="16" Value="F1" Duration="2" Instrument="shift string lite"
				Note Time="18" Value="F1" Duration="2" Instrument="shift string lite"
				Note Time="20" Value="F1" Duration="2" Instrument="shift string lite"
				Note Time="22" Value="F1" Duration="2" Instrument="shift string lite"
				Note Time="24" Value="F1" Duration="2" Instrument="shift string lite"
				Note Time="26" Value="F1" Duration="2" Instrument="shift string lite"
				Note Time="28" Value="F1" Duration="2" Instrument="shift string lite"
				Note Time="30" Value="F1" Duration="2" Instrument="shift string lite"
				Note Time="32" Value="F1" Duration="2" Instrument="shift string lite"
				Note Time="34" Value="F1" Duration="2" Instrument="shift string lite"
				Note Time="36" Value="F1" Duration="2" Instrument="shift string lite"
				Note Time="38" Value="F1" Duration="2" Instrument="shift string lite"
				Note Time="40" Value="F1" Duration="2" Instrument="shift string lite"
				Note Time="42" Value="F1" Duration="22" Release="2" Instrument="shift string lite"
			PatternInstance Time="0" Pattern="00"
			PatternInstance Time="1" Pattern="01"
			PatternInstance Time="2" Pattern="02"
			PatternInstance Time="3" Pattern="03"
			PatternInstance Time="4" Pattern="04"
			PatternInstance Time="5" Pattern="05"
			PatternInstance Time="6" Pattern="06"
			PatternInstance Time="7" Pattern="07"
			PatternInstance Time="8" Pattern="08"
			PatternInstance Time="9" Pattern="09"
			PatternInstance Time="10" Pattern="0A"
			PatternInstance Time="11" Pattern="0B"
			PatternInstance Time="12" Pattern="0C"
			PatternInstance Time="13" Pattern="0D"
			PatternInstance Time="14" Pattern="0E"
			PatternInstance Time="15" Pattern="0F"
			PatternInstance Time="16" Pattern="10"
		Channel Type="Square2"
			Pattern Name="00" Color="7ee1ff"
				Note Time="0" Value="Stop" FinePitch="0"
			Pattern Name="01" Color="ff5a9f"
				Note Time="0" Value="C3" Duration="6" Instrument="blank string" Volume="7"
				Note Time="6" Value="C3" Duration="2" Instrument="blank string" SlideTarget="F2" Attack="False"
				Note Time="16" Value="F3" Duration="4" Instrument="blank string"
				Note Time="22" Value="D#3" Duration="4" Instrument="blank string"
				Note Time="32" Value="C3" Duration="4" Instrument="blank string"
				Note Time="36" Value="C3" Duration="2" Instrument="triangle drums" Volume="15" DutyCycle="2"
				Note Time="40" Value="C3" Duration="2" Instrument="triangle drums"
				Note Time="44" Value="C3" Duration="1" Instrument="triangle drums"
				Note Time="45" Value="C3" Duration="1" Instrument="triangle drums"
				Note Time="46" Value="C3" Duration="2" Instrument="triangle drums"
				Note Time="50" Value="C3" Duration="2" Instrument="triangle drums"
				Note Time="54" Value="C3" Duration="2" Instrument="triangle drums"
				Note Time="57" Value="C4" Duration="2" Instrument="cymbal" SlideTarget="D#4" Volume="4"
				Note Time="61" Value="C4" Duration="2" Instrument="cymbal" SlideTarget="D#4"
			Pattern Name="02" Color="ffd43c"
				Note Time="0" Value="C3" Duration="6" Instrument="blank string" Volume="7"
				Note Time="6" Value="C3" Duration="2" Instrument="blank string" SlideTarget="F2" Attack="False"
				Note Time="16" Value="C3" Duration="4" Instrument="blank string"
				Note Time="22" Value="C3" Duration="4" Instrument="blank string"
				Note Time="28" Value="D#3" Duration="4" Instrument="blank string"
				Note Time="36" Value="F3" Duration="2" Instrument="Instrument 2" Volume="15"
				Note Time="38" Value="D#3" Duration="2" Instrument="Instrument 2"
				Note Time="42" Value="F3" Duration="2" Instrument="Instrument 2"
				Note Time="44" Value="F3" Duration="2" Instrument="Instrument 2"
				Note Time="46" Value="D#3" Duration="2" Instrument="Instrument 2"
				Note Time="48" Value="D#3" Duration="2" Instrument="Instrument 2"
				Note Time="50" Value="D#3" Duration="4" Instrument="Instrument 2"
				Note Time="54" Value="C3" Duration="2" Instrument="Instrument 2"
				Note Time="56" Value="A#2" Duration="2" Instrument="Instrument 2"
				Note Time="58" Value="C3" Duration="2" Instrument="Instrument 2"
				Note Time="60" Value="D#3" Duration="2" Instrument="Instrument 2"
				Note Time="62" Value="F3" Duration="2" Instrument="Instrument 2"
			Pattern Name="03" Color="b8ef7e"
				Note Time="0" Value="C3" Duration="6" Instrument="blank string" Volume="7"
				Note Time="6" Value="C3" Duration="2" Instrument="blank string" SlideTarget="F2" Attack="False"
				Note Time="16" Value="F3" Duration="4" Instrument="blank string"
				Note Time="22" Value="D#3" Duration="4" Instrument="blank string"
				Note Time="32" Value="C3" Duration="4" Instrument="blank string"
				Note Time="37" Value="A#3" Duration="2" Instrument="cymbal" SlideTarget="D#4" Volume="5"
				Note Time="41" Value="A#3" Duration="2" Instrument="cymbal" SlideTarget="D#4"
				Note Time="47" Value="A#3" Duration="2" Instrument="cymbal" SlideTarget="D#4"
				Note Time="51" Value="A#3" Duration="2" Instrument="cymbal" SlideTarget="D#4"
				Note Time="56" Value="A#5" Duration="2" Instrument="cymbal" SlideTarget="A4" Volume="7"
				Note Time="60" Value="A#5" Duration="2" Instrument="cymbal" SlideTarget="A4"
				Note Time="63" DutyCycle="0"
			Pattern Name="04" Color="3ec4ff"
				Note Time="0" Value="A#0" Duration="2" Instrument="shift string" Volume="10"
				Note Time="2" Value="A#0" Duration="2" Instrument="shift string"
				Note Time="4" Value="F1" Duration="2" Instrument="shift string"
				Note Time="6" Value="A#0" Duration="2" Instrument="shift string"
				Note Time="8" Value="A#0" Duration="2" Instrument="shift string"
				Note Time="10" Value="A#0" Duration="2" Instrument="shift string"
				Note Time="12" Value="F1" Duration="2" Instrument="shift string"
				Note Time="14" Value="A#0" Duration="2" Instrument="shift string"
				Note Time="16" Value="D#1" Duration="2" Instrument="shift string"
				Note Time="18" Value="C1" Duration="2" Instrument="shift string"
				Note Time="20" Value="C1" Duration="2" Instrument="shift string"
				Note Time="22" Value="D#1" Duration="2" Instrument="shift string"
				Note Time="24" Value="C1" Duration="2" Instrument="shift string"
				Note Time="26" Value="C1" Duration="2" Instrument="shift string"
				Note Time="28" Value="D#1" Duration="2" Instrument="shift string"
				Note Time="30" Value="C1" Duration="2" Instrument="shift string"
				Note Time="34" Value="G#1" Duration="2" Instrument="shift string"
				Note Time="36" Value="A#1" Duration="2" Instrument="shift string"
				Note Time="38" Value="C2" Duration="2" Instrument="shift string"
			Pattern Name="05" Color="a657d6"
				Note Time="0" Value="C3" Duration="16" Instrument="02 but tri" Volume="15" DutyCycle="2"
				Note Time="16" Value="F3" Duration="2" Instrument="02 but tri"
				Note Time="18" Value="F3" Duration="2" Instrument="02 but tri"
				Note Time="20" Value="F3" Duration="2" Instrument="02 but tri"
				Note Time="22" Value="F3" Duration="6" Instrument="02 but tri"
				Note Time="28" Value="C3" Duration="4" Instrument="02 but tri"
				Note Time="32" Value="D#3" Duration="4" Instrument="02 but tri"
				Note Time="36" Value="C3" Duration="4" Instrument="echo" Volume="15"
				Note Time="40" Value="C3" Duration="4" Instrument="echo"
				Note Time="44" Value="C3" Duration="1" Instrument="echo"
				Note Time="45" Value="C3" Duration="1" Instrument="echo"
				Note Time="46" Value="C3" Duration="4" Instrument="echo"
				Note Time="50" Value="C3" Duration="2" Instrument="echo"
				Note Time="52" Value="C3" Duration="4" Instrument="echo"
				Note Time="56" Value="D3" Duration="4" Instrument="echo"
				Note Time="60" Value="A#2" Duration="4" Instrument="02 but tri" Volume="15"
			Pattern Name="06" Color="ff7f51"
				Note Time="0" Value="C3" Duration="16" Instrument="02 but tri" Volume="15"
				Note Time="16" Value="C3" Duration="6" Instrument="02 but tri"
				Note Time="22" Value="D#3" Duration="6" Instrument="02 but tri"
				Note Time="28" Value="F3" Duration="4" Instrument="02 but tri"
				Note Time="32" Value="F2" Duration="8" Instrument="sample" Arpeggio="Arp 38" Volume="15"
				Note Time="40" Value="F2" Duration="6" Instrument="sample" Arpeggio="Arp 38"
				Note Time="46" Value="G2" Duration="10" Instrument="sample" Arpeggio="Arp 38"
				Note Time="56" Value="G2" Duration="7" Instrument="sample" Arpeggio="Arp 38"
				Note Time="63" Value="G2" Duration="1" Instrument="sample" Attack="False"
			Pattern Name="07" Color="ffffb1"
				Note Time="0" Value="C3" Duration="16" Instrument="02 but tri" Volume="15"
				Note Time="16" Value="F3" Duration="2" Instrument="02 but tri"
				Note Time="18" Value="F3" Duration="2" Instrument="02 but tri"
				Note Time="20" Value="F3" Duration="2" Instrument="02 but tri"
				Note Time="22" Value="F3" Duration="6" Instrument="02 but tri"
				Note Time="28" Value="F3" Duration="4" Instrument="02 but tri"
				Note Time="32" Value="C3" Duration="5" Instrument="02 but tri"
				Note Time="37" Value="E6" Duration="3" Instrument="blank string" SlideTarget="C#6" Volume="3"
				Note Time="41" Value="E6" Duration="3" Instrument="blank string" SlideTarget="C#6"
				Note Time="45" Value="E6" Duration="2" Instrument="blank string" SlideTarget="D6"
				Note Time="47" Value="E6" Duration="3" Instrument="blank string" SlideTarget="C#6"
				Note Time="51" Value="E6" Duration="2" Instrument="blank string" SlideTarget="D6"
				Note Time="53" Value="E6" Duration="3" Instrument="blank string" SlideTarget="C#6"
				Note Time="56" Value="G#3" Duration="1" Instrument="Instrument 2" Volume="15"
				Note Time="57" Value="G#2" Duration="1" Instrument="Instrument 2" Arpeggio="Arp 70"
				Note Time="58" Value="G#3" Duration="2" Instrument="Instrument 2"
				Note Time="60" Value="G3" Duration="1" Instrument="Instrument 2"
				Note Time="61" Value="G2" Duration="1" Instrument="Instrument 2" Arpeggio="Arp 70"
				Note Time="62" Value="G3" Duration="2" Instrument="Instrument 2"
			Pattern Name="08" Color="62ffff"
				Note Time="0" Value="C3" Duration="16" Instrument="02 but tri" Volume="15"
				Note Time="16" Value="C3" Duration="6" Instrument="02 but tri"
				Note Time="22" Value="D#3" Duration="6" Instrument="02 but tri"
				Note Time="28" Value="F3" Duration="4" Instrument="02 but tri"
				Note Time="32" Value="C#3" Duration="6" Instrument="sample" Arpeggio="Arp 40"
				Note Time="38" Value="C#3" Duration="6" Instrument="sample" Arpeggio="Arp 40"
				Note Time="44" Value="C#3" Duration="4" Instrument="sample" Arpeggio="Arp 40"
				Note Time="48" Value="D#3" Duration="6" Instrument="sample" Arpeggio="Arp 40"
				Note Time="54" Value="D#3" Duration="6" Instrument="sample" Arpeggio="Arp 40"
				Note Time="60" Value="D#3" Duration="3" Instrument="sample" Arpeggio="Arp 40"
				Note Time="63" Value="D#3" Duration="1" Instrument="sample" Attack="False"
			Pattern Name="09" Color="a376f3"
				Note Time="0" Value="C3" Duration="16" Instrument="echo" Volume="15"
				Note Time="16" Value="C3" Duration="2" Instrument="echo" Arpeggio="Arp 58"
				Note Time="18" Value="C3" Duration="2" Instrument="echo" Arpeggio="Arp 58"
				Note Time="20" Value="C3" Duration="2" Instrument="echo" Arpeggio="Arp 58"
				Note Time="22" Value="C3" Duration="2" Instrument="echo" Arpeggio="Arp 58"
				Note Time="24" Value="C3" Duration="2" Instrument="echo" Arpeggio="Arp 58"
				Note Time="26" Value="C3" Duration="2" Instrument="echo" Arpeggio="Arp 70"
				Note Time="28" Value="A#2" Duration="4" Instrument="echo" Arpeggio="Arp 50"
				Note Time="32" Value="C3" Duration="4" Instrument="echo"
				Note Time="36" Value="C3" Duration="2" Instrument="echo"
				Note Time="38" Value="C3" Duration="4" Instrument="echo"
				Note Time="42" Value="C3" Duration="4" Instrument="echo"
				Note Time="46" Value="C3" Duration="50" Instrument="echo"
			Pattern Name="0A" Color="b59184"
				Note Time="32" Value="G#2" Duration="6" Instrument="sample" Arpeggio="Arp 59"
				Note Time="38" Value="G#2" Duration="6" Instrument="sample" Arpeggio="Arp 59"
				Note Time="44" Value="G#2" Duration="4" Instrument="sample" Arpeggio="Arp 59"
				Note Time="48" Value="A#2" Duration="6" Instrument="sample" Arpeggio="Arp 59"
				Note Time="54" Value="A#2" Duration="6" Instrument="sample" Arpeggio="Arp 59"
				Note Time="60" Value="A#2" Duration="4" Instrument="sample" Arpeggio="Arp 5A"
			Pattern Name="0B" Color="ffff71"
				Note Time="0" Value="C3" Duration="8" Instrument="echo"
				Note Time="8" Value="C4" Duration="2" Instrument="sample"
				Note Time="10" Value="A#3" Duration="2" Instrument="sample"
				Note Time="12" Value="G#3" Duration="2" Instrument="sample"
				Note Time="14" Value="A#3" Duration="2" Instrument="sample"
				Note Time="16" Value="C3" Duration="4" Instrument="sample" Arpeggio="Arp 50"
				Note Time="20" Value="C3" Duration="6" Instrument="sample" Arpeggio="Arp 50"
				Note Time="26" Value="C3" Duration="2" Instrument="sample"
				Note Time="28" Value="C3" Duration="2" Instrument="sample"
				Note Time="30" Value="C3" Duration="2" Instrument="sample"
				Note Time="32" Value="C3" Duration="2" Instrument="sample" Arpeggio="Arp 50"
				Note Time="34" Value="C3" Duration="2" Instrument="sample" Arpeggio="Arp 50"
				Note Time="36" Value="C3" Duration="2" Instrument="sample" Arpeggio="Arp 50"
				Note Time="38" Value="D#3" Duration="2" Instrument="sample"
				Note Time="40" Value="F3" Duration="2" Instrument="sample"
				Note Time="42" Value="G#3" Duration="4" Instrument="sample"
				Note Time="46" Value="G#2" Duration="6" Instrument="sample" Arpeggio="Arp 49"
				Note Time="52" Value="G#2" Duration="4" Instrument="sample" Arpeggio="Arp 49"
				Note Time="56" Value="G#2" Duration="4" Instrument="sample" Arpeggio="Arp 49"
				Note Time="60" Value="G#2" Duration="4" Instrument="sample" Arpeggio="Arp 49"
			Pattern Name="0C" Color="3cb5a7"
				Note Time="0" Value="F2" Duration="10" Release="4" Instrument="shift string lite"
				Note Time="10" Value="G2" Duration="6" Release="3" Instrument="shift string lite"
				Note Time="16" Value="F2" Duration="4" Release="3" Instrument="shift string lite"
				Note Time="20" Value="D#2" Duration="4" Release="3" Instrument="shift string lite"
				Note Time="24" Value="F2" Duration="4" Release="3" Instrument="shift string lite"
				Note Time="28" Value="G2" Duration="4" Release="3" Instrument="shift string lite"
				Note Time="32" Value="G#2" Duration="16" Instrument="sample" Arpeggio="Arp 59"
				Note Time="48" Value="G2" Duration="15" Instrument="sample" Arpeggio="Arp 8C"
				Note Time="63" Value="G2" Duration="49" Instrument="sample" Attack="False"
			Pattern Name="0D" Color="6471cf"
				Note Time="0" Volume="0" FinePitch="2"
				Note Time="48" Value="F1" Duration="2" Instrument="blank instant decay" Volume="1"
				Note Time="50" Value="F1" Duration="2" Instrument="blank" Volume="2"
				Note Time="52" Value="F1" Duration="2" Instrument="blank string" Volume="3"
				Note Time="53" Volume="4"
				Note Time="54" Value="F1" Duration="2" Instrument="blank" Volume="5"
				Note Time="55" Volume="6"
				Note Time="56" Value="F1" Duration="2" Instrument="blank instant decay" Volume="8"
				Note Time="57" Volume="10"
				Note Time="58" Value="F1" Duration="2" Instrument="blank" Volume="12"
				Note Time="59" Volume="11"
				Note Time="60" Value="F1" Duration="2" Instrument="blank string" Volume="10"
				Note Time="61" Volume="9"
				Note Time="62" Value="F1" Duration="2" Instrument="blank" Volume="8"
			Pattern Name="0E" Color="ffafaf"
				Note Time="0" Value="F1" Duration="2" Instrument="blank instant decay" Volume="7"
				Note Time="2" Value="F1" Duration="2" Instrument="blank" Volume="6"
				Note Time="4" Value="F1" Duration="2" Instrument="blank string" Volume="5"
				Note Time="6" Value="F1" Duration="2" Instrument="blank" Volume="4"
				Note Time="8" Value="F1" Duration="2" Instrument="blank instant decay" Volume="3"
				Note Time="10" Value="F1" Duration="2" Instrument="blank" Volume="2"
				Note Time="12" Value="F2" Duration="2" Instrument="shift string lite" Volume="1"
				Note Time="14" Value="F1" Duration="2" Instrument="shift string lite"
				Note Time="16" Value="F1" Duration="2" Instrument="shift string lite" Volume="2"
				Note Time="18" Value="F1" Duration="2" Instrument="shift string lite"
				Note Time="20" Value="F1" Duration="2" Instrument="shift string lite" Volume="3"
				Note Time="22" Value="F1" Duration="2" Instrument="shift string lite"
				Note Time="24" Value="F1" Duration="2" Instrument="shift string lite" Volume="4"
				Note Time="26" Value="F1" Duration="2" Instrument="shift string lite"
				Note Time="28" Value="F1" Duration="2" Instrument="shift string lite" Volume="5"
				Note Time="30" Value="F1" Duration="2" Instrument="shift string lite"
				Note Time="32" Value="F1" Duration="4" Instrument="shift string lite" Volume="6"
				Note Time="36" Value="F2" Duration="2" Instrument="shift string lite" Volume="7"
				Note Time="38" Value="F1" Duration="2" Instrument="shift string lite"
				Note Time="40" Value="D#2" Duration="4" Instrument="shift string lite" Volume="8"
				Note Time="44" Value="F2" Duration="2" Instrument="shift string lite" Volume="9"
				Note Time="46" Value="F1" Duration="2" Instrument="shift string lite"
				Note Time="48" Value="F1" Duration="2" Instrument="shift string lite" Volume="10"
				Note Time="50" Value="F1" Duration="2" Instrument="shift string lite"
				Note Time="52" Value="F1" Duration="2" Instrument="shift string lite" Volume="11"
				Note Time="54" Value="F1" Duration="2" Instrument="shift string lite"
				Note Time="56" Value="F1" Duration="2" Instrument="shift string lite" Volume="12"
				Note Time="58" Value="F1" Duration="2" Instrument="shift string lite"
				Note Time="60" Value="F1" Duration="2" Instrument="shift string lite" Volume="13"
				Note Time="62" Value="F1" Duration="2" Instrument="shift string lite"
			PatternInstance Time="0" Pattern="00"
			PatternInstance Time="1" Pattern="01"
			PatternInstance Time="2" Pattern="02"
			PatternInstance Time="3" Pattern="03"
			PatternInstance Time="4" Pattern="04"
			PatternInstance Time="5" Pattern="05"
			PatternInstance Time="6" Pattern="06"
			PatternInstance Time="7" Pattern="07"
			PatternInstance Time="8" Pattern="08"
			PatternInstance Time="9" Pattern="09"
			PatternInstance Time="10" Pattern="0A"
			PatternInstance Time="11" Pattern="0B"
			PatternInstance Time="12" Pattern="0C"
			PatternInstance Time="13" Pattern="0D"
			PatternInstance Time="14" Pattern="0E"
			PatternInstance Time="15" Pattern="00"
		Channel Type="Triangle"
			Pattern Name="00" Color="a2f7a6"
				Note Time="0" Value="Stop" FinePitch="0"
			Pattern Name="01" Color="5dd2ff"
				Note Time="0" Value="F4" Duration="2" Instrument="triangle pluck 4"
				Note Time="2" Value="C5" Duration="2" Instrument="triangle pluck 4"
				Note Time="4" Value="D#5" Duration="2" Instrument="triangle pluck 4"
				Note Time="6" Value="F5" Duration="2" Instrument="triangle pluck 4"
				Note Time="8" Value="F4" Duration="2" Instrument="triangle pluck 4"
				Note Time="10" Value="C5" Duration="2" Instrument="triangle pluck 4"
				Note Time="12" Value="D#5" Duration="2" Instrument="triangle pluck 4"
				Note Time="14" Value="F5" Duration="2" Instrument="triangle pluck 4"
				Note Time="16" Value="F4" Duration="2" Instrument="triangle pluck 4"
				Note Time="18" Value="C5" Duration="2" Instrument="triangle pluck 4"
				Note Time="20" Value="D#5" Duration="2" Instrument="triangle pluck 4"
				Note Time="22" Value="F5" Duration="2" Instrument="triangle pluck 4"
				Note Time="24" Value="F4" Duration="2" Instrument="triangle pluck 4"
				Note Time="26" Value="C5" Duration="2" Instrument="triangle pluck 4"
				Note Time="28" Value="D#5" Duration="2" Instrument="triangle pluck 4"
				Note Time="30" Value="F5" Duration="2" Instrument="triangle pluck 4"
				Note Time="32" Value="F2" Duration="4" Instrument="clutterfunk sax"
				Note Time="40" Value="F3" Duration="2" Instrument="clutterfunk sax"
				Note Time="46" Value="F3" Duration="2" Instrument="clutterfunk sax"
				Note Time="50" Value="F3" Duration="2" Instrument="clutterfunk sax"
				Note Time="56" Value="F3" Duration="2" Instrument="clutterfunk sax"
				Note Time="60" Value="F3" Duration="2" Instrument="clutterfunk sax"
			Pattern Name="02" Color="ff579c"
				Note Time="0" Value="F4" Duration="2" Instrument="triangle pluck 4"
				Note Time="2" Value="C5" Duration="2" Instrument="triangle pluck 4"
				Note Time="4" Value="D#5" Duration="2" Instrument="triangle pluck 4"
				Note Time="6" Value="F5" Duration="2" Instrument="triangle pluck 4"
				Note Time="8" Value="F4" Duration="2" Instrument="triangle pluck 4"
				Note Time="10" Value="C5" Duration="2" Instrument="triangle pluck 4"
				Note Time="12" Value="D#5" Duration="2" Instrument="triangle pluck 4"
				Note Time="14" Value="F5" Duration="2" Instrument="triangle pluck 4"
				Note Time="16" Value="F4" Duration="2" Instrument="triangle pluck 4"
				Note Time="18" Value="C5" Duration="2" Instrument="triangle pluck 4"
				Note Time="20" Value="D#5" Duration="2" Instrument="triangle pluck 4"
				Note Time="22" Value="F5" Duration="2" Instrument="triangle pluck 4"
				Note Time="24" Value="F4" Duration="2" Instrument="triangle pluck 4"
				Note Time="26" Value="C5" Duration="2" Instrument="triangle pluck 4"
				Note Time="28" Value="D#5" Duration="2" Instrument="triangle pluck 4"
				Note Time="30" Value="F5" Duration="2" Instrument="triangle pluck 4"
				Note Time="32" Value="C#2" Duration="6" Instrument="clutterfunk sax"
				Note Time="38" Value="C#2" Duration="4" Instrument="clutterfunk sax"
				Note Time="42" Value="C#2" Duration="2" Instrument="clutterfunk sax"
				Note Time="44" Value="C#2" Duration="2" Instrument="clutterfunk sax"
				Note Time="46" Value="C#2" Duration="2" Instrument="clutterfunk sax"
				Note Time="48" Value="D#2" Duration="2" Instrument="clutterfunk sax"
				Note Time="50" Value="D#2" Duration="4" Instrument="clutterfunk sax"
				Note Time="54" Value="D#2" Duration="2" Instrument="clutterfunk sax"
				Note Time="56" Value="D#2" Duration="4" Instrument="clutterfunk sax"
				Note Time="60" Value="D#2" Duration="4" Instrument="clutterfunk sax"
			Pattern Name="04" Color="ffc83c"
				Note Time="0" Value="A#2" Duration="2" Instrument="clutterfunk sax"
				Note Time="2" Value="A#2" Duration="2" Instrument="clutterfunk sax"
				Note Time="4" Value="F3" Duration="2" Instrument="clutterfunk sax"
				Note Time="6" Value="A#2" Duration="2" Instrument="clutterfunk sax"
				Note Time="8" Value="A#2" Duration="2" Instrument="clutterfunk sax"
				Note Time="10" Value="A#2" Duration="2" Instrument="clutterfunk sax"
				Note Time="12" Value="F3" Duration="2" Instrument="clutterfunk sax"
				Note Time="14" Value="A#2" Duration="2" Instrument="clutterfunk sax"
				Note Time="16" Value="D#3" Duration="2" Instrument="clutterfunk sax"
				Note Time="18" Value="C3" Duration="2" Instrument="clutterfunk sax"
				Note Time="20" Value="C3" Duration="2" Instrument="clutterfunk sax"
				Note Time="22" Value="D#3" Duration="2" Instrument="clutterfunk sax"
				Note Time="24" Value="C3" Duration="2" Instrument="clutterfunk sax"
				Note Time="26" Value="C3" Duration="2" Instrument="clutterfunk sax"
				Note Time="28" Value="D#3" Duration="2" Instrument="clutterfunk sax"
				Note Time="30" Value="C3" Duration="2" Instrument="clutterfunk sax"
				Note Time="34" Value="G#3" Duration="2" Instrument="clutterfunk sax"
				Note Time="36" Value="A#3" Duration="2" Instrument="clutterfunk sax"
				Note Time="38" Value="C4" Duration="2" Instrument="clutterfunk sax"
			Pattern Name="05" Color="a4db74"
				Note Time="0" Value="C3" Duration="12" Instrument="02 but tri"
				Note Time="12" Value="C3" Duration="4" Instrument="02 but tri"
				Note Time="16" Value="C3" Duration="4" Instrument="02 but tri"
				Note Time="20" Value="C3" Duration="2" Instrument="02 but tri"
				Note Time="22" Value="C3" Duration="6" Instrument="02 but tri"
				Note Time="28" Value="A#2" Duration="4" Instrument="02 but tri"
				Note Time="32" Value="C3" Duration="4" Instrument="02 but tri"
				Note Time="36" Value="F3" Duration="4" Instrument="triangle pluck 4"
				Note Time="40" Value="F3" Duration="4" Instrument="triangle pluck 4"
				Note Time="44" Value="F3" Duration="1" Instrument="triangle pluck 4"
				Note Time="45" Value="F3" Duration="1" Instrument="triangle pluck 4"
				Note Time="46" Value="F3" Duration="4" Instrument="triangle pluck 4"
				Note Time="50" Value="F3" Duration="2" Instrument="triangle pluck 4"
				Note Time="52" Value="F3" Duration="4" Instrument="triangle pluck 4"
				Note Time="56" Value="G3" Duration="8" Instrument="triangle pluck 4"
			Pattern Name="06" Color="3eb3f9"
				Note Time="0" Value="C3" Duration="8" Instrument="02 but tri"
				Note Time="8" Value="C3" Duration="8" Instrument="02 but tri"
				Note Time="16" Value="G#3" Duration="6" Instrument="02 but tri"
				Note Time="22" Value="A#3" Duration="6" Instrument="02 but tri"
				Note Time="28" Value="C4" Duration="4" Instrument="02 but tri"
				Note Time="32" Value="C#3" Duration="14" Instrument="DMC: drums + bass"
				Note Time="46" Value="D#3" Duration="18" Instrument="DMC: drums + bass"
			Pattern Name="07" Color="f6a4ff"
				Note Time="0" Value="C3" Duration="12" Instrument="02 but tri"
				Note Time="12" Value="C3" Duration="4" Instrument="02 but tri"
				Note Time="16" Value="C3" Duration="4" Instrument="02 but tri"
				Note Time="20" Value="C3" Duration="2" Instrument="02 but tri"
				Note Time="22" Value="C3" Duration="6" Instrument="02 but tri"
				Note Time="28" Value="A#2" Duration="4" Instrument="02 but tri"
				Note Time="32" Value="C3" Duration="4" Instrument="02 but tri"
				Note Time="36" Value="C3" Duration="4" Instrument="02 but tri"
				Note Time="40" Value="C3" Duration="4" Instrument="02 but tri"
				Note Time="44" Value="C3" Duration="1" Instrument="02 but tri"
				Note Time="45" Value="C3" Duration="1" Instrument="02 but tri"
				Note Time="46" Value="C3" Duration="4" Instrument="02 but tri"
				Note Time="50" Value="C3" Duration="2" Instrument="02 but tri"
				Note Time="52" Value="C3" Duration="4" Instrument="02 but tri"
				Note Time="56" Value="D3" Duration="72" Instrument="02 but tri"
			Pattern Name="09" Color="ffff93"
				Note Time="0" Value="F4" Duration="2" Instrument="triangle pluck 4"
				Note Time="2" Value="C5" Duration="2" Instrument="triangle pluck 4"
				Note Time="4" Value="D#5" Duration="2" Instrument="triangle pluck 4"
				Note Time="6" Value="F5" Duration="2" Instrument="triangle pluck 4"
				Note Time="8" Value="F4" Duration="2" Instrument="triangle pluck 4"
				Note Time="10" Value="C5" Duration="2" Instrument="triangle pluck 4"
				Note Time="12" Value="D#5" Duration="2" Instrument="triangle pluck 4"
				Note Time="14" Value="F5" Duration="2" Instrument="triangle pluck 4"
				Note Time="16" Value="F4" Duration="2" Instrument="triangle pluck 4"
				Note Time="18" Value="C5" Duration="2" Instrument="triangle pluck 4"
				Note Time="20" Value="D#5" Duration="2" Instrument="triangle pluck 4"
				Note Time="22" Value="F5" Duration="2" Instrument="triangle pluck 4"
				Note Time="24" Value="F4" Duration="2" Instrument="triangle pluck 4"
				Note Time="26" Value="C5" Duration="2" Instrument="triangle pluck 4"
				Note Time="28" Value="D#5" Duration="2" Instrument="triangle pluck 4"
				Note Time="30" Value="F5" Duration="2" Instrument="triangle pluck 4"
				Note Time="32" Value="F4" Duration="2" Instrument="triangle pluck 4"
				Note Time="34" Value="C5" Duration="2" Instrument="triangle pluck 4"
				Note Time="36" Value="D#5" Duration="2" Instrument="triangle pluck 4"
				Note Time="38" Value="F5" Duration="2" Instrument="triangle pluck 4"
				Note Time="40" Value="F4" Duration="2" Instrument="triangle pluck 4"
				Note Time="42" Value="C5" Duration="2" Instrument="triangle pluck 4"
				Note Time="44" Value="D#5" Duration="2" Instrument="triangle pluck 4"
				Note Time="46" Value="F5" Duration="2" Instrument="triangle pluck 4"
				Note Time="48" Value="F4" Duration="2" Instrument="triangle pluck 4"
				Note Time="50" Value="C5" Duration="2" Instrument="triangle pluck 4"
				Note Time="52" Value="D#5" Duration="2" Instrument="triangle pluck 4"
				Note Time="54" Value="F5" Duration="2" Instrument="triangle pluck 4"
				Note Time="56" Value="F4" Duration="2" Instrument="triangle pluck 4"
				Note Time="58" Value="C5" Duration="2" Instrument="triangle pluck 4"
				Note Time="60" Value="D#5" Duration="2" Instrument="triangle pluck 4"
				Note Time="62" Value="F5" Duration="2" Instrument="triangle pluck 4"
			Pattern Name="0A" Color="3cf8ff"
				Note Time="0" Value="F4" Duration="2" Instrument="triangle pluck 4"
				Note Time="2" Value="C5" Duration="2" Instrument="triangle pluck 4"
				Note Time="4" Value="D#5" Duration="2" Instrument="triangle pluck 4"
				Note Time="6" Value="F5" Duration="2" Instrument="triangle pluck 4"
				Note Time="8" Value="F4" Duration="2" Instrument="triangle pluck 4"
				Note Time="10" Value="C5" Duration="2" Instrument="triangle pluck 4"
				Note Time="12" Value="D#5" Duration="2" Instrument="triangle pluck 4"
				Note Time="14" Value="F5" Duration="2" Instrument="triangle pluck 4"
				Note Time="16" Value="F4" Duration="2" Instrument="triangle pluck 4"
				Note Time="18" Value="C5" Duration="2" Instrument="triangle pluck 4"
				Note Time="20" Value="D#5" Duration="2" Instrument="triangle pluck 4"
				Note Time="22" Value="F5" Duration="2" Instrument="triangle pluck 4"
				Note Time="24" Value="F4" Duration="2" Instrument="triangle pluck 4"
				Note Time="26" Value="C5" Duration="2" Instrument="triangle pluck 4"
				Note Time="28" Value="D#5" Duration="2" Instrument="triangle pluck 4"
				Note Time="30" Value="F5" Duration="2" Instrument="triangle pluck 4"
				Note Time="32" Value="C#4" Duration="2" Instrument="triangle pluck 4"
				Note Time="34" Value="F4" Duration="2" Instrument="triangle pluck 4"
				Note Time="36" Value="G#4" Duration="2" Instrument="triangle pluck 4"
				Note Time="38" Value="C#5" Duration="2" Instrument="triangle pluck 4"
				Note Time="40" Value="C#4" Duration="2" Instrument="triangle pluck 4"
				Note Time="42" Value="F4" Duration="2" Instrument="triangle pluck 4"
				Note Time="44" Value="G#4" Duration="2" Instrument="triangle pluck 4"
				Note Time="46" Value="C#5" Duration="2" Instrument="triangle pluck 4"
				Note Time="48" Value="G#5" Duration="2" Instrument="triangle pluck 4"
				Note Time="50" Value="G5" Duration="2" Instrument="triangle pluck 4"
				Note Time="52" Value="F5" Duration="2" Instrument="triangle pluck 4"
				Note Time="54" Value="D#5" Duration="2" Instrument="triangle pluck 4"
				Note Time="56" Value="C5" Duration="2" Instrument="triangle pluck 4"
				Note Time="58" Value="D#5" Duration="6" Instrument="triangle pluck 4"
			Pattern Name="0B" Color="9a71ed"
				Note Time="0" Value="F4" Duration="2" Instrument="triangle pluck 4"
				Note Time="2" Value="C5" Duration="2" Instrument="triangle pluck 4"
				Note Time="4" Value="D#5" Duration="2" Instrument="triangle pluck 4"
				Note Time="6" Value="F5" Duration="2" Instrument="triangle pluck 4"
				Note Time="8" Value="F4" Duration="2" Instrument="triangle pluck 4"
				Note Time="10" Value="C5" Duration="2" Instrument="triangle pluck 4"
				Note Time="12" Value="D#5" Duration="2" Instrument="triangle pluck 4"
				Note Time="14" Value="F5" Duration="2" Instrument="triangle pluck 4"
				Note Time="16" Value="F4" Duration="2" Instrument="triangle pluck 4"
				Note Time="18" Value="C5" Duration="2" Instrument="triangle pluck 4"
				Note Time="20" Value="D#5" Duration="2" Instrument="triangle pluck 4"
				Note Time="22" Value="F5" Duration="2" Instrument="triangle pluck 4"
				Note Time="24" Value="F4" Duration="2" Instrument="triangle pluck 4"
				Note Time="26" Value="C5" Duration="2" Instrument="triangle pluck 4"
				Note Time="28" Value="D#5" Duration="2" Instrument="triangle pluck 4"
				Note Time="30" Value="F5" Duration="2" Instrument="triangle pluck 4"
				Note Time="32" Value="F4" Duration="2" Instrument="triangle pluck 4"
				Note Time="34" Value="C5" Duration="2" Instrument="triangle pluck 4"
				Note Time="36" Value="D#5" Duration="2" Instrument="triangle pluck 4"
				Note Time="38" Value="F5" Duration="2" Instrument="triangle pluck 4"
				Note Time="40" Value="F4" Duration="2" Instrument="triangle pluck 4"
				Note Time="42" Value="C5" Duration="2" Instrument="triangle pluck 4"
				Note Time="44" Value="D#5" Duration="2" Instrument="triangle pluck 4"
				Note Time="46" Value="F5" Duration="2" Instrument="triangle pluck 4"
				Note Time="48" Value="F4" Duration="2" Instrument="triangle pluck 4"
				Note Time="50" Value="C5" Duration="2" Instrument="triangle pluck 4"
				Note Time="52" Value="G4" Duration="2" Instrument="DMC: drums + bass" SlideTarget="A#5"
				Note Time="54" Value="C6" Duration="2" Instrument="DMC: drums + bass" SlideTarget="G#4"
				Note Time="56" Value="G4" Duration="2" Instrument="DMC: drums + bass" SlideTarget="A#5"
				Note Time="58" Value="C6" Duration="2" Instrument="DMC: drums + bass" SlideTarget="G#4"
				Note Time="60" Value="G4" Duration="2" Instrument="DMC: drums + bass" SlideTarget="A#5"
				Note Time="62" Value="C6" Duration="2" Instrument="DMC: drums + bass" SlideTarget="G#4"
			Pattern Name="0C" Color="a9887d"
				Note Time="0" Value="F4" Duration="2" Instrument="triangle pluck 4"
				Note Time="2" Value="C5" Duration="2" Instrument="triangle pluck 4"
				Note Time="4" Value="D#5" Duration="2" Instrument="triangle pluck 4"
				Note Time="6" Value="F5" Duration="2" Instrument="triangle pluck 4"
				Note Time="8" Value="F4" Duration="2" Instrument="triangle pluck 4"
				Note Time="10" Value="C5" Duration="2" Instrument="triangle pluck 4"
				Note Time="12" Value="D#5" Duration="2" Instrument="triangle pluck 4"
				Note Time="14" Value="F5" Duration="2" Instrument="triangle pluck 4"
				Note Time="16" Value="F4" Duration="2" Instrument="triangle pluck 4"
				Note Time="18" Value="C5" Duration="2" Instrument="triangle pluck 4"
				Note Time="20" Value="D#5" Duration="2" Instrument="triangle pluck 4"
				Note Time="22" Value="F5" Duration="2" Instrument="triangle pluck 4"
				Note Time="24" Value="F4" Duration="2" Instrument="triangle pluck 4"
				Note Time="26" Value="C5" Duration="2" Instrument="triangle pluck 4"
				Note Time="28" Value="D#5" Duration="2" Instrument="triangle pluck 4"
				Note Time="30" Value="F5" Duration="2" Instrument="triangle pluck 4"
				Note Time="32" Value="F3" Duration="2" Instrument="triangle pluck 4"
				Note Time="34" Value="G#3" Duration="2" Instrument="triangle pluck 4"
				Note Time="36" Value="C#4" Duration="2" Instrument="triangle pluck 4"
				Note Time="38" Value="F4" Duration="2" Instrument="triangle pluck 4"
				Note Time="40" Value="C#4" Duration="2" Instrument="triangle pluck 4"
				Note Time="42" Value="F4" Duration="2" Instrument="triangle pluck 4"
				Note Time="44" Value="G#4" Duration="2" Instrument="triangle pluck 4"
				Note Time="46" Value="C#5" Duration="2" Instrument="triangle pluck 4"
				Note Time="48" Value="G3" Duration="2" Instrument="triangle pluck 4"
				Note Time="50" Value="A#3" Duration="2" Instrument="triangle pluck 4"
				Note Time="52" Value="D#4" Duration="2" Instrument="triangle pluck 4"
				Note Time="54" Value="G4" Duration="2" Instrument="triangle pluck 4"
				Note Time="56" Value="D#4" Duration="2" Instrument="triangle pluck 4"
				Note Time="58" Value="G4" Duration="2" Instrument="triangle pluck 4"
				Note Time="60" Value="A#4" Duration="2" Instrument="triangle pluck 4"
				Note Time="62" Value="D#5" Duration="2" Instrument="triangle pluck 4"
			Pattern Name="0D" Color="fffc69"
				Note Time="0" Value="C5" Duration="4" Instrument="triangle pluck 4" FinePitch="-1"
				Note Time="4" Value="C5" Duration="4" Instrument="triangle pluck 4"
				Note Time="8" Value="C5" Duration="4" Instrument="triangle pluck 4"
				Note Time="12" Value="C5" Duration="4" Instrument="triangle pluck 4"
				Note Time="16" Value="C5" Duration="4" Instrument="triangle pluck 4"
				Note Time="20" Value="C5" Duration="4" Instrument="triangle pluck 4"
				Note Time="24" Value="C5" Duration="4" Instrument="triangle pluck 4"
				Note Time="28" Value="C5" Duration="4" Instrument="triangle pluck 4"
				Note Time="32" Value="C5" Duration="4" Instrument="triangle pluck 4"
				Note Time="36" Value="C5" Duration="4" Instrument="triangle pluck 4"
				Note Time="40" Value="C5" Duration="4" Instrument="triangle pluck 4"
				Note Time="44" Value="C5" Duration="4" Instrument="triangle pluck 4"
				Note Time="48" Value="C5" Duration="4" Instrument="triangle pluck 4"
				Note Time="52" Value="C5" Duration="4" Instrument="triangle pluck 4"
				Note Time="56" Value="C5" Duration="4" Instrument="triangle pluck 4"
				Note Time="60" Value="C5" Duration="4" Instrument="triangle pluck 4"
			Pattern Name="0E" Color="3ca598"
				Note Time="0" Value="C5" Duration="2" Instrument="triangle pluck 4"
				Note Time="2" Value="C5" Duration="2" Instrument="triangle pluck 4"
				Note Time="4" Value="C5" Duration="2" Instrument="triangle pluck 4"
				Note Time="6" Value="C5" Duration="2" Instrument="triangle pluck 4"
				Note Time="8" Value="C5" Duration="2" Instrument="triangle pluck 4"
				Note Time="10" Value="C5" Duration="2" Instrument="triangle pluck 4"
				Note Time="12" Value="C5" Duration="2" Instrument="triangle pluck 4"
				Note Time="14" Value="C5" Duration="2" Instrument="triangle pluck 4"
				Note Time="16" Value="C5" Duration="2" Instrument="triangle pluck 4"
				Note Time="18" Value="C5" Duration="2" Instrument="triangle pluck 4"
				Note Time="20" Value="C5" Duration="2" Instrument="triangle pluck 4"
				Note Time="22" Value="C5" Duration="2" Instrument="triangle pluck 4"
				Note Time="24" Value="C5" Duration="2" Instrument="triangle pluck 4"
				Note Time="26" Value="C5" Duration="2" Instrument="triangle pluck 4"
				Note Time="28" Value="C5" Duration="2" Instrument="triangle pluck 4"
				Note Time="30" Value="C5" Duration="2" Instrument="triangle pluck 4"
				Note Time="32" Value="C5" Duration="2" Instrument="triangle pluck 4"
				Note Time="34" Value="C5" Duration="2" Instrument="triangle pluck 4"
				Note Time="36" Value="C5" Duration="2" Instrument="triangle pluck 4"
				Note Time="38" Value="C5" Duration="2" Instrument="triangle pluck 4"
				Note Time="40" Value="C5" Duration="2" Instrument="triangle pluck 4"
				Note Time="42" Value="C5" Duration="22" Instrument="triangle pluck 4"
			PatternInstance Time="0" Pattern="00"
			PatternInstance Time="1" Pattern="01"
			PatternInstance Time="2" Pattern="02"
			PatternInstance Time="3" Pattern="01"
			PatternInstance Time="4" Pattern="04"
			PatternInstance Time="5" Pattern="05"
			PatternInstance Time="6" Pattern="06"
			PatternInstance Time="7" Pattern="07"
			PatternInstance Time="9" Pattern="09"
			PatternInstance Time="10" Pattern="0A"
			PatternInstance Time="11" Pattern="0B"
			PatternInstance Time="12" Pattern="0C"
			PatternInstance Time="13" Pattern="00"
			PatternInstance Time="15" Pattern="0D"
			PatternInstance Time="16" Pattern="0E"
		Channel Type="Noise"
			Pattern Name="01" Color="b5c2ff"
				Note Time="0" Value="G2" Duration="2" Instrument="DMC: drums + bass"
				Note Time="2" Value="G#2" Duration="3" Instrument="DMC: drums + bass"
				Note Time="5" Value="A2" Duration="2" Instrument="DMC: drums + bass"
				Note Time="7" Value="A#2" Duration="2" Instrument="DMC: drums + bass"
				Note Time="9" Value="B2" Duration="2" Instrument="DMC: drums + bass"
				Note Time="11" Value="C3" Duration="1" Instrument="DMC: drums + bass"
				Note Time="12" Value="C#3" Duration="1" Instrument="DMC: drums + bass"
				Note Time="13" Value="D3" Duration="1" Instrument="DMC: drums + bass"
				Note Time="14" Value="D#3" Duration="1" Instrument="DMC: drums + bass"
				Note Time="15" Value="E3" Duration="1" Instrument="DMC: drums + bass"
			Pattern Name="02" Color="ff8f8c"
				Note Time="0" Value="G2" Duration="6" Instrument="kick"
				Note Time="6" Value="G2" Duration="2" Instrument="kick"
				Note Time="8" Value="C3" Duration="4" Instrument="shift string"
				Note Time="12" Value="G2" Duration="4" Instrument="kick"
				Note Time="16" Value="G2" Duration="6" Instrument="kick"
				Note Time="22" Value="G2" Duration="2" Instrument="kick"
				Note Time="24" Value="C3" Duration="4" Instrument="shift string"
				Note Time="28" Value="G2" Duration="4" Instrument="kick"
				Note Time="32" Value="G2" Duration="4" Instrument="kick"
				Note Time="36" Value="A2" Duration="2" Instrument="kick"
				Note Time="40" Value="A2" Duration="2" Instrument="kick"
				Note Time="44" Value="G2" Duration="2" Instrument="kick"
				Note Time="46" Value="A2" Duration="2" Instrument="kick"
				Note Time="50" Value="A2" Duration="2" Instrument="kick"
				Note Time="54" Value="G2" Duration="2" Instrument="kick"
				Note Time="56" Value="G#2" Duration="1" Instrument="blank" SlideTarget="B2"
				Note Time="57" Value="B2" Duration="1" Instrument="blank" Attack="False"
				Note Time="58" Value="B2" Duration="2" Instrument="blank" SlideTarget="F#3" Attack="False"
				Note Time="60" Value="G#2" Duration="1" Instrument="blank" SlideTarget="B2"
				Note Time="61" Value="B2" Duration="1" Instrument="blank" Attack="False"
				Note Time="62" Value="B2" Duration="2" Instrument="blank" SlideTarget="F#3" Attack="False"
			Pattern Name="03" Color="ffff64"
				Note Time="0" Value="G2" Duration="6" Instrument="kick"
				Note Time="6" Value="G2" Duration="2" Instrument="kick"
				Note Time="8" Value="C3" Duration="4" Instrument="shift string"
				Note Time="12" Value="G2" Duration="4" Instrument="kick"
				Note Time="16" Value="G2" Duration="6" Instrument="kick"
				Note Time="22" Value="G2" Duration="2" Instrument="kick"
				Note Time="24" Value="C3" Duration="4" Instrument="shift string"
				Note Time="28" Value="G2" Duration="4" Instrument="kick"
				Note Time="32" Value="G2" Duration="6" Instrument="kick"
				Note Time="38" Value="G2" Duration="2" Instrument="kick"
				Note Time="40" Value="C3" Duration="4" Instrument="shift string"
				Note Time="44" Value="G2" Duration="4" Instrument="kick"
				Note Time="48" Value="G2" Duration="2" Instrument="kick"
				Note Time="50" Value="G2" Duration="4" Instrument="kick"
				Note Time="54" Value="G2" Duration="2" Instrument="kick"
				Note Time="56" Value="C3" Duration="4" Instrument="shift string"
				Note Time="60" Value="C3" Duration="4" Instrument="shift string"
			Pattern Name="04" Color="88eb8c"
				Note Time="0" Value="C3" Duration="1" Instrument="shift string"
				Note Time="2" Value="C3" Duration="1" Instrument="shift string"
				Note Time="4" Value="C3" Duration="1" Instrument="shift string"
				Note Time="6" Value="C3" Duration="1" Instrument="shift string"
				Note Time="8" Value="C3" Duration="4" Instrument="shift string"
				Note Time="12" Value="G2" Duration="4" Instrument="kick"
				Note Time="16" Value="G2" Duration="6" Instrument="kick"
				Note Time="22" Value="G2" Duration="2" Instrument="kick"
				Note Time="24" Value="C3" Duration="4" Instrument="shift string"
				Note Time="28" Value="G2" Duration="4" Instrument="kick"
				Note Time="32" Value="G2" Duration="4" Instrument="kick"
				Note Time="36" Value="A2" Duration="2" Instrument="kick"
				Note Time="40" Value="A2" Duration="2" Instrument="kick"
				Note Time="44" Value="G2" Duration="2" Instrument="kick"
				Note Time="46" Value="A2" Duration="2" Instrument="kick"
				Note Time="50" Value="A2" Duration="2" Instrument="kick"
				Note Time="54" Value="G2" Duration="2" Instrument="kick"
				Note Time="56" Value="G2" Duration="1" Instrument="blank" SlideTarget="A#2"
				Note Time="57" Value="A#2" Duration="1" Instrument="blank" Attack="False"
				Note Time="58" Value="A#2" Duration="2" Instrument="blank" SlideTarget="F3" Attack="False"
				Note Time="60" Value="G2" Duration="1" Instrument="blank" SlideTarget="A#2"
				Note Time="61" Value="A#2" Duration="1" Instrument="blank" Attack="False"
				Note Time="62" Value="A#2" Duration="2" Instrument="blank" SlideTarget="F3" Attack="False"
			Pattern Name="05" Color="5ac4ff"
				Note Time="0" Value="G2" Duration="8" Instrument="kick"
				Note Time="8" Value="G2" Duration="8" Instrument="kick"
				Note Time="16" Value="G2" Duration="8" Instrument="kick"
				Note Time="24" Value="G2" Duration="8" Instrument="kick"
				Note Time="32" Value="G2" Duration="8" Instrument="kick"
				Note Time="40" Value="G2" Duration="24" Instrument="kick"
			Pattern Name="06" Color="fe5497"
				Note Time="0" Value="E3" Duration="4" Instrument="shift string"
				Note Time="4" Value="F#3" Duration="2" Instrument="rel hats"
				Note Time="6" Value="G#3" Duration="2" Instrument="hat"
				Note Time="8" Value="G2" Duration="2" Instrument="snare"
				Note Time="10" Value="G#3" Duration="2" Instrument="hat"
				Note Time="12" Value="F#3" Duration="2" Instrument="rel hats"
				Note Time="14" Value="G#3" Duration="2" Instrument="hat"
				Note Time="16" Value="G2" Duration="2" Instrument="kick"
				Note Time="18" Value="G#3" Duration="2" Instrument="hat"
				Note Time="20" Value="F#3" Duration="2" Instrument="rel hats"
				Note Time="22" Value="G#3" Duration="2" Instrument="hat"
				Note Time="24" Value="G2" Duration="2" Instrument="snare"
				Note Time="26" Value="G#3" Duration="2" Instrument="hat"
				Note Time="28" Value="F#3" Duration="2" Instrument="rel hats"
				Note Time="30" Value="G#3" Duration="2" Instrument="hat"
				Note Time="32" Value="G2" Duration="2" Instrument="kick"
				Note Time="34" Value="G#3" Duration="2" Instrument="hat"
				Note Time="36" Value="F#3" Duration="2" Instrument="rel hats"
				Note Time="38" Value="G#3" Duration="2" Instrument="hat"
				Note Time="40" Value="G2" Duration="2" Instrument="snare"
				Note Time="42" Value="G#3" Duration="2" Instrument="hat"
				Note Time="44" Value="F#3" Duration="2" Instrument="rel hats"
				Note Time="46" Value="G#3" Duration="2" Instrument="hat"
				Note Time="48" Value="G2" Duration="2" Instrument="kick"
				Note Time="50" Value="G#3" Duration="2" Instrument="hat"
				Note Time="52" Value="F#3" Duration="2" Instrument="rel hats"
				Note Time="54" Value="G#3" Duration="2" Instrument="hat"
				Note Time="56" Value="G2" Duration="2" Instrument="snare"
				Note Time="58" Value="G#3" Duration="2" Instrument="hat"
				Note Time="60" Value="F#3" Duration="2" Instrument="rel hats"
				Note Time="62" Value="G#3" Duration="422" Instrument="hat"
			Pattern Name="07" Color="ffb83c"
				Note Time="0" Value="G2" Duration="2" Instrument="kick"
				Note Time="2" Value="G#3" Duration="2" Instrument="hat"
				Note Time="4" Value="F#3" Duration="2" Instrument="rel hats"
				Note Time="6" Value="G#3" Duration="2" Instrument="hat"
				Note Time="8" Value="G2" Duration="2" Instrument="snare"
				Note Time="10" Value="G#3" Duration="2" Instrument="hat"
				Note Time="12" Value="F#3" Duration="2" Instrument="rel hats"
				Note Time="14" Value="G#3" Duration="2" Instrument="hat"
				Note Time="16" Value="G2" Duration="2" Instrument="kick"
				Note Time="18" Value="G#3" Duration="2" Instrument="hat"
				Note Time="20" Value="F#3" Duration="2" Instrument="rel hats"
				Note Time="22" Value="G#3" Duration="2" Instrument="hat"
				Note Time="24" Value="G2" Duration="2" Instrument="snare"
				Note Time="26" Value="G#3" Duration="2" Instrument="hat"
				Note Time="28" Value="F#3" Duration="2" Instrument="rel hats"
				Note Time="30" Value="G#3" Duration="2" Instrument="hat"
				Note Time="32" Value="G2" Duration="2" Instrument="kick"
				Note Time="34" Value="G#3" Duration="2" Instrument="hat"
				Note Time="36" Value="F#3" Duration="2" Instrument="rel hats"
				Note Time="38" Value="G#3" Duration="2" Instrument="hat"
				Note Time="40" Value="G2" Duration="2" Instrument="snare"
				Note Time="42" Value="G#3" Duration="2" Instrument="hat"
				Note Time="44" Value="F#3" Duration="2" Instrument="rel hats"
				Note Time="46" Value="G2" Duration="2" Instrument="kick"
				Note Time="48" Value="F#3" Duration="2" Instrument="rel hats"
				Note Time="50" Value="G2" Duration="2" Instrument="snare"
				Note Time="52" Value="F#3" Duration="2" Instrument="rel hats"
				Note Time="54" Value="G#3" Duration="2" Instrument="hat"
				Note Time="56" Value="G2" Duration="2" Instrument="snare"
				Note Time="58" Value="G#3" Duration="2" Instrument="hat"
				Note Time="60" Value="F#3" Duration="2" Instrument="rel hats"
				Note Time="62" Value="G#3" Duration="2" Instrument="hat"
			Pattern Name="0C" Color="8bffff"
				Note Time="36" Value="B2" Duration="1" Instrument="DMC: drums + bass" Volume="2"
				Note Time="40" Value="B2" Duration="1" Instrument="DMC: drums + bass" Volume="4"
				Note Time="44" Value="B2" Duration="1" Instrument="DMC: drums + bass" Volume="8"
				Note Time="46" Value="B2" Duration="1" Instrument="DMC: drums + bass" Volume="10"
				Note Time="50" Value="C3" Duration="1" Instrument="DMC: drums + bass" Volume="15"
				Note Time="51" Value="B2" Duration="1" Instrument="DMC: drums + bass"
				Note Time="56" Value="G3" Duration="1" Instrument="DMC: drums + bass"
				Note Time="57" Value="F#3" Duration="1" Instrument="DMC: drums + bass"
				Note Time="58" Value="F3" Duration="1" Instrument="DMC: drums + bass"
				Note Time="59" Value="E3" Duration="1" Instrument="DMC: drums + bass"
				Note Time="60" Value="D#3" Duration="1" Instrument="DMC: drums + bass"
				Note Time="61" Value="D3" Duration="1" Instrument="DMC: drums + bass"
				Note Time="62" Value="C#3" Duration="1" Instrument="DMC: drums + bass"
				Note Time="63" Value="C3" Duration="1" Instrument="DMC: drums + bass"
			Pattern Name="0D" Color="e783f8"
				Note Time="0" Value="G2" Duration="4" Instrument="kick"
				Note Time="4" Value="G2" Duration="4" Instrument="kick"
				Note Time="8" Value="G2" Duration="4" Instrument="kick"
				Note Time="12" Value="G2" Duration="4" Instrument="kick"
				Note Time="16" Value="G2" Duration="4" Instrument="kick"
				Note Time="20" Value="G2" Duration="4" Instrument="kick"
				Note Time="24" Value="G2" Duration="4" Instrument="kick"
				Note Time="28" Value="G2" Duration="4" Instrument="kick"
				Note Time="32" Value="G2" Duration="4" Instrument="kick"
				Note Time="36" Value="G2" Duration="4" Instrument="kick"
				Note Time="40" Value="G2" Duration="4" Instrument="kick"
				Note Time="44" Value="G2" Duration="4" Instrument="kick"
				Note Time="48" Value="G2" Duration="4" Instrument="kick"
				Note Time="52" Value="G2" Duration="4" Instrument="kick"
				Note Time="56" Value="G2" Duration="4" Instrument="kick"
				Note Time="60" Value="G2" Duration="4" Instrument="kick"
			Pattern Name="0E" Color="ffac7f"
				Note Time="0" Value="G2" Duration="2" Instrument="kick"
				Note Time="2" Value="G2" Duration="2" Instrument="kick"
				Note Time="4" Value="G2" Duration="2" Instrument="kick"
				Note Time="6" Value="G2" Duration="2" Instrument="kick"
				Note Time="8" Value="G2" Duration="2" Instrument="kick"
				Note Time="10" Value="G2" Duration="2" Instrument="kick"
				Note Time="12" Value="G2" Duration="2" Instrument="kick"
				Note Time="14" Value="G2" Duration="2" Instrument="kick"
				Note Time="16" Value="G2" Duration="2" Instrument="kick"
				Note Time="18" Value="G2" Duration="2" Instrument="kick"
				Note Time="20" Value="G2" Duration="2" Instrument="kick"
				Note Time="22" Value="G2" Duration="2" Instrument="kick"
				Note Time="24" Value="G2" Duration="2" Instrument="kick"
				Note Time="26" Value="G2" Duration="2" Instrument="kick"
				Note Time="28" Value="G2" Duration="2" Instrument="kick"
				Note Time="30" Value="G2" Duration="2" Instrument="kick"
				Note Time="32" Value="G2" Duration="2" Instrument="kick"
				Note Time="34" Value="G2" Duration="2" Instrument="kick"
				Note Time="36" Value="G2" Duration="2" Instrument="kick"
				Note Time="38" Value="G2" Duration="2" Instrument="kick"
				Note Time="40" Value="G2" Duration="2" Instrument="kick"
				Note Time="42" Value="G2" Duration="22" Instrument="kick"
			PatternInstance Time="0" Pattern="01"
			PatternInstance Time="1" Pattern="02"
			PatternInstance Time="2" Pattern="03"
			PatternInstance Time="3" Pattern="04"
			PatternInstance Time="4" Pattern="05"
			PatternInstance Time="5" Pattern="06"
			PatternInstance Time="6" Pattern="07"
			PatternInstance Time="7" Pattern="06"
			PatternInstance Time="14" Pattern="0C"
			PatternInstance Time="15" Pattern="0D"
			PatternInstance Time="16" Pattern="0E"
		Channel Type="DPCM"
			Pattern Name="00" Color="ffff75"
				Note Time="0" Value="Stop"
			Pattern Name="01" Color="3ce8fd"
				Note Time="0" Value="F4" Duration="6" Instrument="DMC: drums + bass"
				Note Time="6" Value="F4" Duration="2" Instrument="DMC: drums + bass"
				Note Time="8" Value="F3" Duration="4" Instrument="DMC: drums + bass"
				Note Time="12" Value="D#3" Duration="4" Instrument="DMC: drums + bass"
				Note Time="16" Value="F3" Duration="8" Instrument="DMC: drums + bass"
				Note Time="24" Value="F4" Duration="4" Instrument="DMC: drums + bass"
				Note Time="28" Value="D#3" Duration="4" Instrument="DMC: drums + bass"
				Note Time="32" Value="F3" Duration="8" Instrument="DMC: drums + bass"
				Note Time="40" Value="F4" Duration="2" Instrument="DMC: drums + bass"
				Note Time="46" Value="F4" Duration="2" Instrument="DMC: drums + bass"
				Note Time="50" Value="F4" Duration="2" Instrument="DMC: drums + bass"
				Note Time="56" Value="F4" Duration="2" Instrument="DMC: drums + bass"
				Note Time="60" Value="F4" Duration="2" Instrument="DMC: drums + bass"
			Pattern Name="02" Color="8d69e4"
				Note Time="0" Value="F4" Duration="6" Instrument="DMC: drums + bass"
				Note Time="6" Value="F4" Duration="2" Instrument="DMC: drums + bass"
				Note Time="8" Value="F3" Duration="4" Instrument="DMC: drums + bass"
				Note Time="12" Value="D#3" Duration="4" Instrument="DMC: drums + bass"
				Note Time="16" Value="F3" Duration="6" Instrument="DMC: drums + bass"
				Note Time="22" Value="F3" Duration="6" Instrument="DMC: drums + bass"
				Note Time="28" Value="D#3" Duration="4" Instrument="DMC: drums + bass"
				Note Time="32" Value="C#3" Duration="6" Instrument="DMC: drums + bass"
				Note Time="38" Value="C#3" Duration="4" Instrument="DMC: drums + bass"
				Note Time="42" Value="C#3" Duration="2" Instrument="DMC: drums + bass"
				Note Time="44" Value="C#3" Duration="2" Instrument="DMC: drums + bass"
				Note Time="46" Value="C#3" Duration="2" Instrument="DMC: drums + bass"
				Note Time="48" Value="D#3" Duration="2" Instrument="DMC: drums + bass"
				Note Time="50" Value="D#3" Duration="4" Instrument="DMC: drums + bass"
				Note Time="54" Value="D#3" Duration="2" Instrument="DMC: drums + bass"
				Note Time="56" Value="D#3" Duration="4" Instrument="DMC: drums + bass"
				Note Time="60" Value="D#3" Duration="4" Instrument="DMC: drums + bass"
			Pattern Name="03" Color="997c73"
				Note Time="0" Value="E5" Duration="1" Instrument="DMC: drums + bass"
				Note Time="1" Value="A#3" Duration="7" Instrument="DMC: drums + bass"
				Note Time="8" Value="E5" Duration="1" Instrument="DMC: drums + bass"
				Note Time="9" Value="A#3" Duration="7" Instrument="DMC: drums + bass"
				Note Time="16" Value="E5" Duration="1" Instrument="DMC: drums + bass"
				Note Time="17" Value="C4" Duration="7" Instrument="DMC: drums + bass"
				Note Time="24" Value="E5" Duration="1" Instrument="DMC: drums + bass"
				Note Time="25" Value="C4" Duration="7" Instrument="DMC: drums + bass"
				Note Time="32" Value="E5" Duration="8" Instrument="DMC: drums + bass"
				Note Time="40" Value="E5" Duration="3" Instrument="DMC: drums + bass"
				Note Time="43" Value="G#5" Duration="13" Instrument="DMC: drums + bass"
				Note Time="56" Value="A5" Duration="8" Instrument="DMC: drums + bass"
			Pattern Name="04" Color="ffe461"
				Note Time="0" Value="E5" Duration="1" Instrument="DMC: drums + bass"
				Note Time="1" Value="F3" Duration="7" Instrument="DMC: drums + bass"
				Note Time="8" Value="G5" Duration="4" Instrument="DMC: drums + bass"
				Note Time="12" Value="F3" Duration="4" Instrument="DMC: drums + bass"
				Note Time="16" Value="E5" Duration="1" Instrument="DMC: drums + bass"
				Note Time="17" Value="F3" Duration="1" Instrument="DMC: drums + bass"
				Note Time="18" Value="F3" Duration="2" Instrument="DMC: drums + bass"
				Note Time="20" Value="F3" Duration="2" Instrument="DMC: drums + bass"
				Note Time="22" Value="F3" Duration="2" Instrument="DMC: drums + bass"
				Note Time="24" Value="G5" Duration="4" Instrument="DMC: drums + bass"
				Note Time="28" Value="D#3" Duration="4" Instrument="DMC: drums + bass"
				Note Time="32" Value="E5" Duration="1" Instrument="DMC: drums + bass"
				Note Time="33" Value="F3" Duration="3" Instrument="DMC: drums + bass"
				Note Time="36" Value="F3" Duration="4" Instrument="DMC: drums + bass"
				Note Time="40" Value="G5" Duration="1" Instrument="DMC: drums + bass"
				Note Time="41" Value="F3" Duration="3" Instrument="DMC: drums + bass"
				Note Time="44" Value="F3" Duration="1" Instrument="DMC: drums + bass"
				Note Time="45" Value="F3" Duration="1" Instrument="DMC: drums + bass"
				Note Time="46" Value="F3" Duration="2" Instrument="DMC: drums + bass"
				Note Time="48" Value="E5" Duration="2" Instrument="DMC: drums + bass"
				Note Time="50" Value="F3" Duration="2" Instrument="DMC: drums + bass"
				Note Time="52" Value="F3" Duration="4" Instrument="DMC: drums + bass"
				Note Time="56" Value="G5" Duration="1" Instrument="DMC: drums + bass"
				Note Time="57" Value="G3" Duration="71" Instrument="DMC: drums + bass"
			Pattern Name="05" Color="89f2e8"
				Note Time="0" Value="E5" Duration="1" Instrument="DMC: drums + bass"
				Note Time="1" Value="F3" Duration="7" Instrument="DMC: drums + bass"
				Note Time="8" Value="G5" Duration="1" Instrument="DMC: drums + bass"
				Note Time="9" Value="F3" Duration="7" Instrument="DMC: drums + bass"
				Note Time="16" Value="E5" Duration="1" Instrument="DMC: drums + bass"
				Note Time="17" Value="F3" Duration="1" Instrument="DMC: drums + bass"
				Note Time="18" Value="F3" Duration="2" Instrument="DMC: drums + bass"
				Note Time="20" Value="F3" Duration="2" Instrument="DMC: drums + bass"
				Note Time="22" Value="F3" Duration="2" Instrument="DMC: drums + bass"
				Note Time="24" Value="G5" Duration="1" Instrument="DMC: drums + bass"
				Note Time="25" Value="F3" Duration="3" Instrument="DMC: drums + bass"
				Note Time="28" Value="D#3" Duration="4" Instrument="DMC: drums + bass"
				Note Time="32" Value="E5" Duration="1" Instrument="DMC: drums + bass"
				Note Time="33" Value="C#3" Duration="7" Instrument="DMC: drums + bass"
				Note Time="40" Value="G5" Duration="1" Instrument="DMC: drums + bass"
				Note Time="41" Value="C#3" Duration="5" Instrument="DMC: drums + bass"
				Note Time="46" Value="E5" Duration="1" Instrument="DMC: drums + bass"
				Note Time="47" Value="C#3" Duration="2" Instrument="DMC: drums + bass"
				Note Time="49" Value="D#3" Duration="1" Instrument="DMC: drums + bass"
				Note Time="50" Value="G5" Duration="1" Instrument="DMC: drums + bass"
				Note Time="51" Value="D#3" Duration="5" Instrument="DMC: drums + bass"
				Note Time="56" Value="G5" Duration="1" Instrument="DMC: drums + bass"
				Note Time="57" Value="D#3" Duration="7" Instrument="DMC: drums + bass"
			Pattern Name="07" Color="ff7f72"
				Note Time="0" Value="E5" Duration="1" Instrument="DMC: drums + bass"
				Note Time="1" Value="F3" Duration="95" Instrument="DMC: drums + bass"
			Pattern Name="08" Color="fffd43"
				Note Time="32" Value="C#3" Duration="4" Instrument="DMC: drums + bass"
				Note Time="36" Value="C#3" Duration="2" Instrument="DMC: drums + bass"
				Note Time="38" Value="C#3" Duration="4" Instrument="DMC: drums + bass"
				Note Time="42" Value="C#3" Duration="2" Instrument="DMC: drums + bass"
				Note Time="44" Value="C#3" Duration="4" Instrument="DMC: drums + bass"
				Note Time="48" Value="D#3" Duration="4" Instrument="DMC: drums + bass"
				Note Time="52" Value="D#3" Duration="2" Instrument="DMC: drums + bass"
				Note Time="54" Value="D#3" Duration="6" Instrument="DMC: drums + bass"
				Note Time="60" Value="D#3" Duration="4" Instrument="DMC: drums + bass"
			Pattern Name="0B" Color="7fdc83"
				Note Time="0" Value="D#5" Duration="8" Instrument="DMC: drums + bass"
				Note Time="8" Value="E5" Duration="4" Instrument="DMC: drums + bass"
				Note Time="12" Value="E5" Duration="4" Instrument="DMC: drums + bass"
				Note Time="16" Value="E5" Duration="4" Instrument="DMC: drums + bass"
				Note Time="20" Value="E5" Duration="4" Instrument="DMC: drums + bass"
				Note Time="24" Value="E5" Duration="4" Instrument="DMC: drums + bass"
				Note Time="28" Value="E5" Duration="4" Instrument="DMC: drums + bass"
				Note Time="32" Value="A#5" Duration="8" Instrument="DMC: drums + bass"
				Note Time="40" Value="G5" Duration="4" Instrument="DMC: drums + bass"
				Note Time="44" Value="G5" Duration="4" Instrument="DMC: drums + bass"
				Note Time="48" Value="G5" Duration="4" Instrument="DMC: drums + bass"
				Note Time="52" Value="G5" Duration="4" Instrument="DMC: drums + bass"
				Note Time="56" Value="G5" Duration="4" Instrument="DMC: drums + bass"
				Note Time="60" Value="G5" Duration="4" Instrument="DMC: drums + bass"
			Pattern Name="0C" Color="55b2ff"
				Note Time="0" Value="B5" Duration="8" Instrument="DMC: drums + bass"
				Note Time="8" Value="G5" Duration="2" Instrument="DMC: drums + bass"
				Note Time="10" Value="G5" Duration="2" Instrument="DMC: drums + bass"
				Note Time="12" Value="G5" Duration="2" Instrument="DMC: drums + bass"
				Note Time="14" Value="G5" Duration="2" Instrument="DMC: drums + bass"
				Note Time="16" Value="G5" Duration="2" Instrument="DMC: drums + bass"
				Note Time="18" Value="G5" Duration="2" Instrument="DMC: drums + bass"
				Note Time="20" Value="G5" Duration="2" Instrument="DMC: drums + bass"
				Note Time="22" Value="G5" Duration="2" Instrument="DMC: drums + bass"
				Note Time="24" Value="G5" Duration="2" Instrument="DMC: drums + bass"
				Note Time="26" Value="G5" Duration="2" Instrument="DMC: drums + bass"
				Note Time="28" Value="G5" Duration="2" Instrument="DMC: drums + bass"
				Note Time="30" Value="G5" Duration="2" Instrument="DMC: drums + bass"
				Note Time="32" Value="G5" Duration="2" Instrument="DMC: drums + bass"
				Note Time="34" Value="G5" Duration="2" Instrument="DMC: drums + bass"
				Note Time="36" Value="G5" Duration="2" Instrument="DMC: drums + bass"
				Note Time="38" Value="G5" Duration="2" Instrument="DMC: drums + bass"
				Note Time="40" Value="G5" Duration="2" Instrument="DMC: drums + bass"
				Note Time="42" Value="G5" Duration="1" Instrument="DMC: drums + bass"
				Note Time="43" Value="G#5" Duration="13" Instrument="DMC: drums + bass"
				Note Time="56" Value="A5" Duration="8" Instrument="DMC: drums + bass"
			PatternInstance Time="0" Pattern="00"
			PatternInstance Time="1" Pattern="01"
			PatternInstance Time="2" Pattern="02"
			PatternInstance Time="3" Pattern="01"
			PatternInstance Time="4" Pattern="03"
			PatternInstance Time="5" Pattern="04"
			PatternInstance Time="6" Pattern="05"
			PatternInstance Time="7" Pattern="04"
			PatternInstance Time="9" Pattern="07"
			PatternInstance Time="10" Pattern="08"
			PatternInstance Time="11" Pattern="07"
			PatternInstance Time="12" Pattern="08"
			PatternInstance Time="13" Pattern="00"
			PatternInstance Time="15" Pattern="0B"
			PatternInstance Time="16" Pattern="0C"
	Song Name="Electrodynamix" Color="fcff6f" Folder="Unused" Length="1" LoopPoint="0" PatternLength="128" BeatLength="4" FamiTrackerTempo="127" FamiTrackerSpeed="3"
		Channel Type="Square1"
			Pattern Name="00" Color="ffe362"
				Note Time="0" Value="A1" Duration="1" Instrument="blank" Volume="7"
				Note Time="1" Value="A1" Duration="2" Instrument="blank string"
				Note Time="4" Value="A1" Duration="1" Instrument="blank"
				Note Time="5" Value="A1" Duration="3" Instrument="blank string"
				Note Time="12" Value="A1" Duration="1" Instrument="blank"
				Note Time="14" Value="A1" Duration="1" Instrument="blank"
				Note Time="16" Value="A1" Duration="1" Instrument="blank"
				Note Time="17" Value="A1" Duration="2" Instrument="blank string"
				Note Time="20" Value="A1" Duration="1" Instrument="blank"
				Note Time="21" Value="A1" Duration="3" Instrument="blank string"
				Note Time="32" Value="A1" Duration="1" Instrument="blank"
				Note Time="33" Value="A1" Duration="2" Instrument="blank string"
				Note Time="36" Value="A1" Duration="1" Instrument="blank"
				Note Time="37" Value="A1" Duration="3" Instrument="blank string"
				Note Time="44" Value="A1" Duration="1" Instrument="blank"
				Note Time="46" Value="A1" Duration="1" Instrument="blank"
				Note Time="48" Value="A1" Duration="1" Instrument="blank"
				Note Time="49" Value="A1" Duration="3" Instrument="blank string"
				Note Time="56" Value="A1" Duration="1" Instrument="blank"
				Note Time="57" Value="A1" Duration="1" Instrument="blank string"
				Note Time="58" Value="A1" Duration="1" Instrument="blank"
				Note Time="59" Value="A1" Duration="2" Instrument="blank string"
				Note Time="61" Value="A1" Duration="1" Instrument="blank"
				Note Time="62" Value="A1" Duration="2" Instrument="blank string"
				Note Time="64" Value="A1" Duration="1" Instrument="blank"
				Note Time="65" Value="A1" Duration="2" Instrument="blank string"
				Note Time="68" Value="A1" Duration="1" Instrument="blank"
				Note Time="69" Value="A1" Duration="3" Instrument="blank string"
				Note Time="76" Value="A1" Duration="1" Instrument="blank"
				Note Time="78" Value="A1" Duration="1" Instrument="blank"
				Note Time="80" Value="A1" Duration="1" Instrument="blank"
				Note Time="81" Value="A1" Duration="3" Instrument="blank string"
				Note Time="84" Value="A1" Duration="1" Instrument="blank"
				Note Time="85" Value="A1" Duration="3" Instrument="blank string"
			PatternInstance Time="0" Pattern="00"
		Channel Type="Square2"
		Channel Type="Triangle"
		Channel Type="Noise"
			Pattern Name="00" Color="b75bde"
				Note Time="100" Value="F#3" Duration="2" Instrument="DMC: drums + bass"
				Note Time="104" Value="F#3" Duration="1" Instrument="triangle pluck"
				Note Time="106" Value="F#3" Duration="1" Instrument="triangle pluck"
				Note Time="108" Value="F#3" Duration="1" Instrument="triangle pluck"
				Note Time="110" Value="F#3" Duration="1" Instrument="triangle pluck"
				Note Time="112" Value="F#3" Duration="1" Instrument="triangle pluck"
				Note Time="114" Value="F#3" Duration="1" Instrument="triangle pluck"
				Note Time="116" Value="F#3" Duration="2" Instrument="DMC: drums + bass"
				Note Time="120" Value="F#3" Duration="2" Instrument="DMC: drums + bass"
			PatternInstance Time="0" Pattern="00"
		Channel Type="DPCM"
			Pattern Name="00" Color="ff8655"
				Note Time="0" Value="E5" Duration="8" Instrument="DMC: drums + bass"
				Note Time="8" Value="F#5" Duration="8" Instrument="DMC: drums + bass"
				Note Time="16" Value="E5" Duration="8" Instrument="DMC: drums + bass"
				Note Time="24" Value="F#5" Duration="8" Instrument="DMC: drums + bass"
				Note Time="32" Value="E5" Duration="8" Instrument="DMC: drums + bass"
				Note Time="40" Value="F#5" Duration="8" Instrument="DMC: drums + bass"
				Note Time="48" Value="E5" Duration="8" Instrument="DMC: drums + bass"
				Note Time="56" Value="F#5" Duration="8" Instrument="DMC: drums + bass"
				Note Time="64" Value="E5" Duration="8" Instrument="DMC: drums + bass"
				Note Time="72" Value="F#5" Duration="8" Instrument="DMC: drums + bass"
				Note Time="80" Value="E5" Duration="8" Instrument="DMC: drums + bass"
				Note Time="88" Value="F#5" Duration="40" Instrument="DMC: drums + bass"
			PatternInstance Time="0" Pattern="00"
	Song Name="Fingerdash" Color="ffc6a1" Folder="Unused" Length="2" LoopPoint="0" PatternLength="64" BeatLength="4" FamiTrackerTempo="112" FamiTrackerSpeed="3"
		Channel Type="Square1"
			Pattern Name="02" Color="98a7fc"
				Note Time="52" Value="B6" Duration="1" Instrument="DMC: drums + bass" SlideTarget="A2"
				Note Time="53" Value="G5" Duration="1" Instrument="DMC: drums + bass" SlideTarget="G2"
				Note Time="54" Value="D5" Duration="1" Instrument="DMC: drums + bass" SlideTarget="G2"
				Note Time="55" Value="A4" Duration="1" Instrument="DMC: drums + bass" SlideTarget="F#2"
				Note Time="57" Value="F4" Duration="1" Instrument="DMC: drums + bass" SlideTarget="F2"
				Note Time="59" Value="E4" Duration="4" Instrument="DMC: drums + bass" SlideTarget="A0"
			PatternInstance Time="1" Pattern="02"
		Channel Type="Square2"
		Channel Type="Triangle"
		Channel Type="Noise"
		Channel Type="DPCM"
			Pattern Name="01" Color="55b2ff"
				Note Time="0" Value="E3" Duration="4" Instrument="DMC: drums + bass"
				Note Time="4" Value="E4" Duration="2" Instrument="DMC: drums + bass"
				Note Time="6" Value="E3" Duration="2" Instrument="DMC: drums + bass"
				Note Time="8" Value="D4" Duration="2" Instrument="DMC: drums + bass"
				Note Time="10" Value="E4" Duration="2" Instrument="DMC: drums + bass"
				Note Time="12" Value="E3" Duration="2" Instrument="DMC: drums + bass"
				Note Time="14" Value="B3" Duration="2" Instrument="DMC: drums + bass"
				Note Time="16" Value="D4" Duration="2" Instrument="DMC: drums + bass"
				Note Time="18" Value="D3" Duration="2" Instrument="DMC: drums + bass"
				Note Time="20" Value="B3" Duration="2" Instrument="DMC: drums + bass"
				Note Time="22" Value="D4" Duration="2" Instrument="DMC: drums + bass"
				Note Time="24" Value="E3" Duration="2" Instrument="DMC: drums + bass"
				Note Time="26" Value="E3" Duration="2" Instrument="DMC: drums + bass"
				Note Time="28" Value="D4" Duration="2" Instrument="DMC: drums + bass"
				Note Time="30" Value="E4" Duration="2" Instrument="DMC: drums + bass"
				Note Time="32" Value="C3" Duration="2" Instrument="DMC: drums + bass"
				Note Time="34" Value="E4" Duration="2" Instrument="DMC: drums + bass"
				Note Time="36" Value="G3" Duration="2" Instrument="DMC: drums + bass"
				Note Time="38" Value="C3" Duration="2" Instrument="DMC: drums + bass"
				Note Time="40" Value="G3" Duration="2" Instrument="DMC: drums + bass"
				Note Time="42" Value="C4" Duration="2" Instrument="DMC: drums + bass"
				Note Time="44" Value="C3" Duration="2" Instrument="DMC: drums + bass"
				Note Time="46" Value="G3" Duration="2" Instrument="DMC: drums + bass"
				Note Time="48" Value="D4" Duration="2" Instrument="DMC: drums + bass"
				Note Time="50" Value="D3" Duration="2" Instrument="DMC: drums + bass"
				Note Time="52" Value="A3" Duration="2" Instrument="DMC: drums + bass"
				Note Time="54" Value="D4" Duration="2" Instrument="DMC: drums + bass"
				Note Time="56" Value="D3" Duration="2" Instrument="DMC: drums + bass"
				Note Time="58" Value="A3" Duration="2" Instrument="DMC: drums + bass"
				Note Time="60" Value="D4" Duration="2" Instrument="DMC: drums + bass"
				Note Time="62" Value="E4" Duration="2" Instrument="DMC: drums + bass"
			Pattern Name="02" Color="e95093"
				Note Time="0" Value="E3" Duration="4" Instrument="DMC: drums + bass"
				Note Time="4" Value="E4" Duration="2" Instrument="DMC: drums + bass"
				Note Time="6" Value="E3" Duration="2" Instrument="DMC: drums + bass"
				Note Time="8" Value="D4" Duration="2" Instrument="DMC: drums + bass"
				Note Time="10" Value="E4" Duration="2" Instrument="DMC: drums + bass"
				Note Time="12" Value="E3" Duration="2" Instrument="DMC: drums + bass"
				Note Time="14" Value="B3" Duration="2" Instrument="DMC: drums + bass"
				Note Time="16" Value="E4" Duration="2" Instrument="DMC: drums + bass"
				Note Time="18" Value="E3" Duration="2" Instrument="DMC: drums + bass"
				Note Time="20" Value="B3" Duration="2" Instrument="DMC: drums + bass"
				Note Time="22" Value="E4" Duration="2" Instrument="DMC: drums + bass"
				Note Time="24" Value="E3" Duration="2" Instrument="DMC: drums + bass"
				Note Time="26" Value="E3" Duration="2" Instrument="DMC: drums + bass"
				Note Time="28" Value="D4" Duration="2" Instrument="DMC: drums + bass"
				Note Time="30" Value="E4" Duration="2" Instrument="DMC: drums + bass"
				Note Time="32" Value="C3" Duration="2" Instrument="DMC: drums + bass"
				Note Time="34" Value="C4" Duration="2" Instrument="DMC: drums + bass"
				Note Time="36" Value="G3" Duration="2" Instrument="DMC: drums + bass"
				Note Time="38" Value="C3" Duration="2" Instrument="DMC: drums + bass"
				Note Time="40" Value="G3" Duration="2" Instrument="DMC: drums + bass"
				Note Time="42" Value="C4" Duration="2" Instrument="DMC: drums + bass"
				Note Time="44" Value="C3" Duration="2" Instrument="DMC: drums + bass"
				Note Time="46" Value="C4" Duration="2" Instrument="DMC: drums + bass"
				Note Time="48" Value="B3" Duration="16" Instrument="DMC: drums + bass"
			PatternInstance Time="0" Pattern="01"
			PatternInstance Time="1" Pattern="02"
	Song Name="Geometrical Dominator" Color="8bffff" Folder="Unused" Length="31" LoopPoint="-1" PatternLength="32" BeatLength="4" FamiTrackerTempo="148" FamiTrackerSpeed="6"
		PatternCustomSettings Time="0" Length="24"
		PatternCustomSettings Time="1" Length="28"
		PatternCustomSettings Time="30" Length="32"
		Channel Type="Square1"
			Pattern Name="01" Color="62ffff"
				Note Time="0" DutyCycle="0"
				Note Time="2" Value="G#1" Duration="2" Instrument="blank instant decay" Volume="1"
				Note Time="4" Value="G#1" Duration="1" Instrument="blank instant decay" Volume="2" DutyCycle="1"
				Note Time="5" Value="G#1" Duration="1" Instrument="blank instant decay" DutyCycle="0"
				Note Time="6" Value="G#1" Duration="1" Instrument="blank instant decay" Volume="3"
				Note Time="7" Value="G#1" Duration="3" Instrument="blank" DutyCycle="1"
				Note Time="8" Volume="4"
				Note Time="10" Value="G#1" Duration="2" Instrument="blank instant decay" Volume="5" DutyCycle="0"
				Note Time="12" Value="G#1" Duration="1" Instrument="blank instant decay" Volume="6"
				Note Time="13" Value="G#1" Duration="1" Instrument="blank instant decay"
				Note Time="14" Value="G#1" Duration="2" Instrument="blank instant decay" Volume="7" DutyCycle="1"
				Note Time="16" Value="G#1" Duration="2" Instrument="blank instant decay" Volume="8" DutyCycle="0"
				Note Time="18" Value="G#1" Duration="2" Instrument="blank instant decay" Volume="9"
				Note Time="20" Value="G#1" Duration="1" Instrument="blank instant decay" Volume="10" DutyCycle="1"
				Note Time="21" Value="G#1" Duration="1" Instrument="blank instant decay" DutyCycle="0"
				Note Time="22" Value="G#1" Duration="1" Instrument="blank instant decay" Volume="11"
				Note Time="23" Value="G#1" Duration="3" Instrument="blank" DutyCycle="1"
			Pattern Name="00" Color="a376f3"
				Note Time="0" Value="G#3" Duration="2" Instrument="blank" Volume="5"
				Note Time="2" Value="G#1" Duration="2" Instrument="blank instant decay" Volume="13"
				Note Time="4" Value="G#1" Duration="1" Instrument="blank instant decay" DutyCycle="1"
				Note Time="5" Value="G#1" Duration="1" Instrument="blank instant decay" DutyCycle="0"
				Note Time="6" Value="G#1" Duration="1" Instrument="blank instant decay"
				Note Time="7" Value="G#1" Duration="3" Instrument="blank" DutyCycle="1"
				Note Time="10" Value="G#1" Duration="2" Instrument="blank instant decay" DutyCycle="0"
				Note Time="12" Value="G#1" Duration="1" Instrument="blank instant decay"
				Note Time="13" Value="G#1" Duration="1" Instrument="blank instant decay"
				Note Time="14" Value="G#1" Duration="2" Instrument="blank instant decay" DutyCycle="1"
				Note Time="16" Value="G#1" Duration="2" Instrument="blank instant decay" DutyCycle="0"
				Note Time="18" Value="G#1" Duration="2" Instrument="blank instant decay"
				Note Time="20" Value="G#1" Duration="1" Instrument="blank instant decay" DutyCycle="1"
				Note Time="21" Value="G#1" Duration="1" Instrument="blank instant decay" DutyCycle="0"
				Note Time="22" Value="G#1" Duration="1" Instrument="blank instant decay"
				Note Time="23" Value="G#1" Duration="3" Instrument="blank" DutyCycle="1"
				Note Time="24" Value="G#4" Duration="2" Instrument="blank" Volume="9" DutyCycle="0"
				Note Time="25" Volume="7"
				Note Time="26" Value="G#1" Duration="2" Instrument="blank instant decay" Volume="13"
			Pattern Name="02" Color="b59184"
				Note Time="0" Value="G#2" Duration="3" Instrument="blank" Volume="11" DutyCycle="0"
				Note Time="2" Volume="9"
				Note Time="3" Value="G#2" Duration="4" Instrument="blank" SlideTarget="F#2" Attack="False" Volume="7"
				Note Time="4" Volume="3"
				Note Time="5" Volume="0"
				Note Time="7" Value="F#2" Duration="11" Instrument="blank" Attack="False"
				Note Time="18" Value="G#3" Duration="2" Instrument="DMC: drums + bass" Volume="11" CutDelay="6"
				Note Time="20" Value="G#3" Duration="2" Instrument="DMC: drums + bass" CutDelay="6"
				Note Time="22" Value="G#3" Duration="2" Instrument="DMC: drums + bass" CutDelay="6"
				Note Time="24" Value="A#3" Duration="1" Instrument="DMC: drums + bass"
				Note Time="27" Value="A#3" Duration="1" Instrument="DMC: drums + bass"
				Note Time="30" Value="C4" Duration="1" Instrument="DMC: drums + bass"
			Pattern Name="03" Color="ffff71"
				Note Time="0" Value="G#3" Duration="3" Instrument="DMC: drums + bass"
				Note Time="1" Volume="9"
				Note Time="2" Volume="7"
				Note Time="3" Value="G#3" Duration="1" Instrument="DMC: drums + bass" SlideTarget="G#3" Attack="False" Volume="4"
				Note Time="4" Value="G#3" Duration="4" Instrument="DMC: drums + bass" Volume="11"
				Note Time="5" Volume="9"
				Note Time="6" Volume="7"
				Note Time="7" Volume="4"
				Note Time="10" Value="C4" Duration="8" Instrument="DMC: drums + bass" Volume="11"
				Note Time="11" Volume="7"
				Note Time="12" Volume="4"
				Note Time="13" Volume="0"
				Note Time="16" DutyCycle="2"
				Note Time="18" Value="G#2" Duration="1" Instrument="DMC: drums + bass" Volume="11"
				Note Time="21" Value="G#2" Duration="1" Instrument="DMC: drums + bass"
				Note Time="24" Value="B2" Duration="2" Instrument="DMC: drums + bass" CutDelay="4"
				Note Time="26" Value="C#3" Duration="1" Instrument="DMC: drums + bass"
				Note Time="28" Value="E2" Duration="1" Instrument="DMC: drums + bass"
				Note Time="30" Value="B2" Duration="1" Instrument="DMC: drums + bass"
			Pattern Name="04" Color="3cb5a7"
				Note Time="0" Value="G#3" Duration="3" Instrument="DMC: drums + bass"
				Note Time="1" Volume="9"
				Note Time="2" Volume="7"
				Note Time="3" Value="G#3" Duration="1" Instrument="DMC: drums + bass" SlideTarget="G#3" Attack="False" Volume="4"
				Note Time="4" Value="G#3" Duration="4" Instrument="DMC: drums + bass" Volume="11"
				Note Time="5" Volume="9"
				Note Time="6" Volume="7"
				Note Time="7" Volume="4"
				Note Time="10" Value="C4" Duration="4" Instrument="DMC: drums + bass" Volume="11"
				Note Time="11" Volume="8"
				Note Time="12" Volume="3"
				Note Time="13" Volume="1"
				Note Time="14" Value="D#4" Duration="2" Instrument="blank" Volume="9"
				Note Time="15" Volume="3"
				Note Time="16" Value="E2" Duration="1" Instrument="blank" Volume="11" DutyCycle="2"
				Note Time="19" Value="E2" Duration="1" Instrument="blank"
				Note Time="22" Value="E2" Duration="1" Instrument="blank"
				Note Time="24" Value="F#2" Duration="1" Instrument="blank"
				Note Time="28" Value="F#2" Duration="1" Instrument="blank"
			Pattern Name="05" Color="6471cf"
				Note Time="0" Value="G#2" Duration="1" Instrument="DMC: drums + bass" Volume="6"
				Note Time="1" Value="D#3" Duration="1" Instrument="DMC: drums + bass"
				Note Time="2" Value="G#3" Duration="1" Instrument="DMC: drums + bass" Volume="5"
				Note Time="3" Value="G#2" Duration="1" Instrument="DMC: drums + bass"
				Note Time="4" Value="D#3" Duration="1" Instrument="DMC: drums + bass" Volume="4"
				Note Time="5" Value="G#3" Duration="1" Instrument="DMC: drums + bass"
				Note Time="6" Value="G#2" Duration="1" Instrument="DMC: drums + bass" Volume="3"
				Note Time="7" Value="D#3" Duration="1" Instrument="DMC: drums + bass"
				Note Time="8" Value="G#3" Duration="1" Instrument="DMC: drums + bass" Volume="2"
				Note Time="9" Value="G#2" Duration="1" Instrument="DMC: drums + bass"
				Note Time="10" Value="D#3" Duration="1" Instrument="DMC: drums + bass" Volume="1"
				Note Time="11" Value="G#3" Duration="1" Instrument="DMC: drums + bass"
			Pattern Name="06" Color="ffafaf"
				Note Time="0" Value="G#2" Duration="1" Instrument="blank" Volume="3"
				Note Time="2" Value="G#2" Duration="1" Instrument="blank"
				Note Time="4" Value="B2" Duration="1" Instrument="blank"
				Note Time="5" Value="A#2" Duration="1" Instrument="blank"
				Note Time="6" Value="G#2" Duration="1" Instrument="blank"
				Note Time="8" Value="A#2" Duration="1" Instrument="blank"
				Note Time="9" Value="B2" Duration="1" Instrument="blank"
				Note Time="11" Value="A#2" Duration="1" Instrument="blank"
				Note Time="14" Value="B2" Duration="1" Instrument="blank"
				Note Time="18" Value="G#4" Duration="3" Instrument="blank string" Volume="10"
				Note Time="19" Volume="9"
				Note Time="20" Volume="8"
				Note Time="21" Value="G#4" Duration="3" Instrument="blank string" SlideTarget="G#5" Attack="False" Volume="10" DutyCycle="1"
				Note Time="22" Volume="9"
				Note Time="23" Volume="8"
				Note Time="24" Value="G#4" Duration="2" Instrument="blank string" Volume="11"
				Note Time="25" Volume="10" DutyCycle="0"
				Note Time="26" Value="G#5" Duration="1" Instrument="blank string" Volume="12"
				Note Time="27" Value="G#4" Duration="3" Instrument="blank string" SlideTarget="F#4" Volume="11"
				Note Time="28" Volume="10"
				Note Time="29" Volume="9"
				Note Time="30" Value="F#4" Duration="2" Instrument="blank string" Attack="False" Volume="8"
				Note Time="31" Volume="7"
			Pattern Name="07" Color="ffff8b"
				Note Time="0" Volume="10"
				Note Time="2" Value="G#2" Duration="3" Instrument="loud blank string"
				Note Time="12" Value="G#2" Duration="3" Instrument="loud blank string"
				Note Time="20" Value="G#2" Duration="4" Instrument="loud blank string"
				Note Time="28" Value="A#2" Duration="1" Instrument="loud blank string"
				Note Time="29" Value="A#2" Duration="2" Instrument="loud blank string" SlideTarget="B2" Attack="False"
				Note Time="31" Value="B2" Duration="1" Instrument="loud blank string" Attack="False"
			Pattern Name="08" Color="a2f7a6"
				Note Time="0" Value="G#4" Duration="2" Instrument="blank" Volume="5"
				Note Time="1" Volume="3"
				Note Time="2" Value="G#2" Duration="3" Instrument="loud blank string" Volume="10"
				Note Time="12" Value="G#2" Duration="3" Instrument="loud blank string"
				Note Time="16" Value="G#4" Duration="4" Instrument="blank" Volume="5"
				Note Time="17" Volume="3"
				Note Time="18" Volume="0"
				Note Time="20" Value="G#2" Duration="4" Instrument="loud blank string" Volume="10"
				Note Time="25" Value="G#3" Duration="5" Instrument="blank" Volume="0" FinePitch="-1" DutyCycle="1"
				Note Time="26" Volume="1"
				Note Time="27" Volume="3"
				Note Time="28" Volume="11"
				Note Time="29" Volume="9"
				Note Time="30" Value="A#3" Duration="2" Instrument="blank" Volume="11"
				Note Time="31" Volume="9"
			Pattern Name="09" Color="5dd2ff"
				Note Time="0" Value="B3" Duration="2" Instrument="blank" Volume="11"
				Note Time="1" Volume="9"
				Note Time="2" Value="A#3" Duration="2" Instrument="blank" Volume="11"
				Note Time="3" Volume="9"
				Note Time="4" Value="G#3" Duration="20" Instrument="blank" Volume="11"
				Note Time="8" Volume="9"
				Note Time="10" Volume="7"
				Note Time="12" Volume="5"
				Note Time="14" Volume="3"
				Note Time="16" Volume="2"
				Note Time="24" Value="G#5" Duration="1" Instrument="blank" Volume="3" FinePitch="0"
				Note Time="25" Value="G#5" Duration="1" Instrument="blank" SlideTarget="G5" Attack="False" Volume="2"
			Pattern Name="0A" Color="ff579c"
				Note Time="0" Value="G#1" Duration="1" Instrument="blank" Volume="10"
				Note Time="1" Value="G#2" Duration="1" Instrument="blank" DutyCycle="1"
				Note Time="2" Value="D#2" Duration="1" Instrument="blank" DutyCycle="0"
				Note Time="3" Value="G#1" Duration="1" Instrument="blank" DutyCycle="2"
				Note Time="4" Value="G#2" Duration="3" Instrument="blank" DutyCycle="1"
				Note Time="5" Volume="8"
				Note Time="6" Volume="6"
				Note Time="16" Value="G#3" Duration="3" Instrument="blank" Volume="13" DutyCycle="1"
				Note Time="17" Volume="10"
				Note Time="18" Volume="7"
				Note Time="19" Value="D#3" Duration="3" Instrument="blank" Volume="13"
				Note Time="20" Volume="10"
				Note Time="21" Volume="7"
				Note Time="22" Value="G#3" Duration="2" Instrument="blank" Volume="13"
				Note Time="23" Volume="10"
				Note Time="24" Value="B3" Duration="4" Instrument="blank" Volume="13"
				Note Time="25" Volume="11"
				Note Time="26" Volume="9"
				Note Time="27" Volume="7"
				Note Time="28" Value="F#3" Duration="4" Instrument="blank" Volume="13"
				Note Time="29" Volume="11"
				Note Time="30" Volume="9"
				Note Time="31" Volume="7"
			Pattern Name="0B" Color="ffc83c"
				Note Time="0" Value="G#4" Duration="3" Instrument="Instrument 3" Volume="11" DutyCycle="1"
				Note Time="3" Value="D#3" Duration="3" Instrument="blank" Volume="6"
				Note Time="4" Volume="4"
				Note Time="5" Volume="2"
				Note Time="6" Value="G#3" Duration="2" Instrument="blank" Volume="6"
				Note Time="7" Volume="4"
				Note Time="8" Value="F#3" Duration="3" Instrument="blank" Volume="6"
				Note Time="9" Volume="4"
				Note Time="10" Volume="2"
				Note Time="11" Value="D#3" Duration="3" Instrument="blank" Volume="6"
				Note Time="12" Volume="4"
				Note Time="13" Volume="2"
				Note Time="14" Value="F#3" Duration="2" Instrument="blank" Volume="6"
				Note Time="15" Volume="4"
				Note Time="16" Value="F3" Duration="3" Instrument="blank" Volume="6"
				Note Time="17" Volume="4"
				Note Time="18" Volume="2"
				Note Time="19" Value="C#3" Duration="3" Instrument="blank" Volume="6"
				Note Time="20" Volume="4"
				Note Time="21" Volume="2"
				Note Time="22" Value="F#3" Duration="2" Instrument="blank" Volume="6"
				Note Time="23" Volume="4"
				Note Time="24" Value="F3" Duration="2" Instrument="blank" Volume="6"
				Note Time="25" Volume="4"
				Note Time="26" Value="C#3" Duration="2" Instrument="blank" Volume="6"
				Note Time="27" Volume="4"
				Note Time="28" Value="D#3" Duration="2" Instrument="blank" Volume="6"
				Note Time="29" Volume="4"
				Note Time="30" Value="G#2" Duration="2" Instrument="blank" Volume="6"
				Note Time="31" Volume="4"
			Pattern Name="0C" Color="a4db74"
				Note Time="0" Value="G#3" Duration="3" Instrument="blank" Volume="6"
				Note Time="1" Volume="4"
				Note Time="2" Volume="2"
				Note Time="3" Value="D#3" Duration="3" Instrument="blank" Volume="6"
				Note Time="4" Volume="4"
				Note Time="5" Volume="2"
				Note Time="6" Value="G#3" Duration="2" Instrument="blank" Volume="6"
				Note Time="7" Volume="4"
				Note Time="8" Value="F#3" Duration="3" Instrument="blank" Volume="6"
				Note Time="9" Volume="4"
				Note Time="10" Volume="2"
				Note Time="11" Value="D#3" Duration="3" Instrument="blank" Volume="6"
				Note Time="12" Volume="4"
				Note Time="13" Volume="2"
				Note Time="14" Value="F#3" Duration="2" Instrument="blank" Volume="6"
				Note Time="15" Volume="4"
				Note Time="16" Value="F3" Duration="3" Instrument="blank" Volume="6"
				Note Time="17" Volume="4"
				Note Time="18" Volume="2"
				Note Time="19" Value="C#3" Duration="3" Instrument="blank" Volume="6"
				Note Time="20" Volume="4"
				Note Time="21" Volume="2"
				Note Time="22" Value="F#3" Duration="2" Instrument="blank" Volume="6"
				Note Time="23" Volume="4"
				Note Time="24" Value="F3" Duration="2" Instrument="blank" Volume="6"
				Note Time="25" Volume="4"
				Note Time="26" Value="C#3" Duration="2" Instrument="blank" Volume="6"
				Note Time="27" Volume="4"
				Note Time="28" Value="D#3" Duration="2" Instrument="blank" Volume="6"
				Note Time="29" Volume="4"
				Note Time="30" Value="G#2" Duration="18" Instrument="blank" Volume="6"
				Note Time="31" Volume="4"
			Pattern Name="10" Color="3eb3f9"
				Note Time="16" Value="G#3" Duration="6" Instrument="Instrument 3" Volume="11"
				Note Time="24" Value="B3" Duration="4" Instrument="Instrument 3"
				Note Time="28" Value="F#3" Duration="4" Instrument="Instrument 3"
			Pattern Name="11" Color="f6a4ff"
				Note Time="0" Value="G#1" Duration="1" Instrument="blank" Volume="9"
				Note Time="1" Value="G#2" Duration="1" Instrument="blank" DutyCycle="1"
				Note Time="2" Value="D#2" Duration="1" Instrument="blank" DutyCycle="0"
				Note Time="3" Value="G#1" Duration="1" Instrument="blank" DutyCycle="2"
				Note Time="4" Value="G#2" Duration="2" Instrument="blank" DutyCycle="1"
				Note Time="5" Volume="6"
				Note Time="8" Value="G#1" Duration="2" Instrument="blank" Volume="9"
				Note Time="9" Volume="6"
				Note Time="12" Value="G#1" Duration="2" Instrument="blank" Volume="9"
				Note Time="13" Volume="6"
				Note Time="16" Value="G#1" Duration="2" Instrument="blank" Volume="9"
				Note Time="17" Volume="6"
				Note Time="20" Value="G#1" Duration="2" Instrument="blank" Volume="9"
				Note Time="21" Volume="6"
				Note Time="24" Value="G#1" Duration="2" Instrument="blank" Volume="9"
				Note Time="25" Volume="6"
				Note Time="28" Value="G#1" Duration="2" Instrument="blank" Volume="9"
				Note Time="29" Volume="6"
			Pattern Name="12" Color="ffc6a1"
				Note Time="0" Value="B1" Duration="1" Instrument="blank" Volume="9"
				Note Time="1" Value="B2" Duration="1" Instrument="blank" DutyCycle="1"
				Note Time="2" Value="F#2" Duration="1" Instrument="blank" DutyCycle="0"
				Note Time="3" Value="B1" Duration="1" Instrument="blank" DutyCycle="2"
				Note Time="4" Value="B2" Duration="2" Instrument="blank" DutyCycle="1"
				Note Time="5" Volume="6"
				Note Time="8" Value="B1" Duration="2" Instrument="blank" Volume="9"
				Note Time="9" Volume="6"
				Note Time="12" Value="B1" Duration="2" Instrument="blank" Volume="9"
				Note Time="13" Volume="6"
				Note Time="16" Value="C#2" Duration="2" Instrument="blank" Volume="9"
				Note Time="17" Volume="6"
				Note Time="20" Value="C#2" Duration="2" Instrument="blank" Volume="9"
				Note Time="21" Volume="6"
				Note Time="24" Value="C#2" Duration="2" Instrument="blank" Volume="9"
				Note Time="25" Volume="6"
				Note Time="28" Value="C#2" Duration="2" Instrument="blank" Volume="9"
				Note Time="29" Volume="6"
			Pattern Name="13" Color="ffff93"
				Note Time="0" Value="G#1" Duration="1" Instrument="blank" Volume="9"
				Note Time="1" Value="G#2" Duration="1" Instrument="blank" DutyCycle="1"
				Note Time="2" Value="D#2" Duration="1" Instrument="blank" DutyCycle="0"
				Note Time="3" Value="G#1" Duration="1" Instrument="blank" DutyCycle="2"
				Note Time="4" Value="G#2" Duration="2" Instrument="blank" DutyCycle="1"
				Note Time="5" Volume="6"
				Note Time="8" Value="G#1" Duration="2" Instrument="blank" Volume="9"
				Note Time="9" Volume="6"
				Note Time="12" Value="G#1" Duration="2" Instrument="blank" Volume="9"
				Note Time="13" Volume="6"
			Pattern Name="14" Color="3cf8ff"
				Note Time="0" Value="G#2" Duration="3" Instrument="sample" Volume="15"
				Note Time="3" Value="D#2" Duration="3" Instrument="sample"
				Note Time="6" Value="G#2" Duration="2" Instrument="sample"
				Note Time="8" Value="F#2" Duration="3" Instrument="sample"
				Note Time="11" Value="D#2" Duration="3" Instrument="sample"
				Note Time="14" Value="F#2" Duration="2" Instrument="sample"
				Note Time="16" Value="F2" Duration="3" Instrument="sample"
				Note Time="19" Value="C#2" Duration="3" Instrument="sample"
				Note Time="22" Value="F#2" Duration="2" Instrument="sample"
				Note Time="24" Value="F2" Duration="2" Instrument="sample"
				Note Time="26" Value="C#2" Duration="2" Instrument="sample"
				Note Time="28" Value="D#2" Duration="2" Instrument="sample"
				Note Time="30" Value="G#1" Duration="18" Instrument="sample"
			Pattern Name="16" Color="9a71ed"
				Note Time="0" Value="G#2" Duration="3" Instrument="sample" Volume="15"
				Note Time="3" Value="D#2" Duration="3" Instrument="sample"
				Note Time="6" Value="G#2" Duration="2" Instrument="sample"
				Note Time="8" Value="F#2" Duration="3" Instrument="sample"
				Note Time="11" Value="D#2" Duration="3" Instrument="sample"
				Note Time="14" Value="F#2" Duration="2" Instrument="sample"
				Note Time="16" Value="G#4" Duration="4" Instrument="Instrument 3" Volume="4"
				Note Time="20" Value="G#4" Duration="4" Instrument="Instrument 3" Volume="8"
				Note Time="24" Value="G#4" Duration="4" Instrument="Instrument 3" Volume="12"
				Note Time="28" Value="G#4" Duration="4" Instrument="Instrument 3" Volume="15"
			Pattern Name="18" Color="a9887d"
				Note Time="0" Value="G#4" Duration="2" Instrument="Instrument 3"
				Note Time="2" Value="G#3" Duration="4" Instrument="blank" Volume="6" DutyCycle="2"
				Note Time="3" Volume="4"
				Note Time="4" Volume="2"
				Note Time="5" Volume="0"
				Note Time="6" Value="G#3" Duration="4" Instrument="blank" Volume="6" DutyCycle="2"
				Note Time="7" Volume="4"
				Note Time="8" Volume="2"
				Note Time="9" Volume="0"
				Note Time="10" Value="G#3" Duration="8" Instrument="blank" Volume="6" DutyCycle="2"
				Note Time="11" Volume="4"
				Note Time="12" Volume="2"
				Note Time="13" Volume="0"
				Note Time="18" Value="G#3" Duration="4" Instrument="blank" Volume="6" DutyCycle="2"
				Note Time="19" Volume="4"
				Note Time="20" Volume="2"
				Note Time="21" Volume="0"
				Note Time="22" Value="G#3" Duration="2" Instrument="blank" Volume="6" DutyCycle="2"
				Note Time="23" Volume="4"
				Note Time="24" Value="G#5" Duration="1" Instrument="blank" Volume="3" DutyCycle="1"
				Note Time="25" Value="G#5" Duration="1" Instrument="blank" SlideTarget="G5" Attack="False" Volume="2"
				Note Time="26" Value="G#3" Duration="6" Instrument="blank" Volume="6" DutyCycle="2"
				Note Time="27" Volume="4"
				Note Time="28" Volume="2"
				Note Time="29" Volume="0"
			Pattern Name="17" Color="fffc69"
				Note Time="2" Value="G#1" Duration="18" Instrument="blank" Volume="1"
				Note Time="3" Volume="2"
				Note Time="4" Volume="3"
				Note Time="5" Volume="4"
				Note Time="6" Volume="5"
				Note Time="7" Volume="6"
				Note Time="8" Volume="7"
				Note Time="9" Volume="8"
				Note Time="10" Volume="9"
				Note Time="11" Volume="10"
				Note Time="12" Volume="11"
				Note Time="13" Volume="12"
				Note Time="14" Volume="13"
			PatternInstance Time="0" Pattern="01"
			PatternInstance Time="1" Pattern="00"
			PatternInstance Time="2" Pattern="02"
			PatternInstance Time="3" Pattern="03"
			PatternInstance Time="4" Pattern="02"
			PatternInstance Time="5" Pattern="04"
			PatternInstance Time="6" Pattern="05"
			PatternInstance Time="7" Pattern="06"
			PatternInstance Time="8" Pattern="07"
			PatternInstance Time="9" Pattern="08"
			PatternInstance Time="10" Pattern="09"
			PatternInstance Time="11" Pattern="0A"
			PatternInstance Time="12" Pattern="0B"
			PatternInstance Time="13" Pattern="0B"
			PatternInstance Time="14" Pattern="0C"
			PatternInstance Time="15" Pattern="0C"
			PatternInstance Time="16" Pattern="0C"
			PatternInstance Time="17" Pattern="0C"
			PatternInstance Time="18" Pattern="0C"
			PatternInstance Time="19" Pattern="10"
			PatternInstance Time="20" Pattern="11"
			PatternInstance Time="21" Pattern="11"
			PatternInstance Time="22" Pattern="12"
			PatternInstance Time="23" Pattern="13"
			PatternInstance Time="24" Pattern="14"
			PatternInstance Time="25" Pattern="14"
			PatternInstance Time="26" Pattern="14"
			PatternInstance Time="27" Pattern="16"
			PatternInstance Time="28" Pattern="18"
			PatternInstance Time="29" Pattern="0A"
			PatternInstance Time="30" Pattern="17"
		Channel Type="Square2"
			Pattern Name="00" Color="3ca598"
				Note Time="0" DutyCycle="0"
				Note Time="20" Value="G#4" Duration="4" Instrument="blank" Volume="1"
				Note Time="22" Volume="2"
				Note Time="23" Volume="3"
			Pattern Name="01" Color="b5c2ff"
				Note Time="0" Value="G#4" Duration="28" Instrument="blank" Volume="6"
				Note Time="1" Volume="5"
				Note Time="2" Volume="4"
				Note Time="3" Volume="3"
				Note Time="4" Volume="2"
				Note Time="5" Volume="1"
				Note Time="6" Volume="0"
				Note Time="24" Value="G#3" Duration="4" Instrument="blank" Volume="11"
				Note Time="25" Volume="9"
			Pattern Name="02" Color="ff8f8c"
				Note Time="0" Value="G#3" Duration="3" Instrument="blank" Volume="11" DutyCycle="0"
				Note Time="2" Volume="9"
				Note Time="3" Value="G#3" Duration="4" Instrument="blank" SlideTarget="D#3" Attack="False" Volume="7"
				Note Time="4" Volume="3"
				Note Time="5" Volume="0"
				Note Time="7" Value="D#3" Duration="11" Instrument="blank" Attack="False"
				Note Time="18" Value="E3" Duration="2" Instrument="DMC: drums + bass" Volume="11" CutDelay="6"
				Note Time="20" Value="E3" Duration="2" Instrument="DMC: drums + bass" CutDelay="6"
				Note Time="22" Value="E3" Duration="2" Instrument="DMC: drums + bass" CutDelay="6"
				Note Time="24" Value="F#3" Duration="1" Instrument="DMC: drums + bass"
				Note Time="27" Value="F#3" Duration="1" Instrument="DMC: drums + bass"
				Note Time="30" Value="G#3" Duration="1" Instrument="DMC: drums + bass"
			Pattern Name="03" Color="ffff64"
				Note Time="0" Value="D#3" Duration="4" Instrument="DMC: drums + bass" DutyCycle="1"
				Note Time="1" Volume="9"
				Note Time="2" Volume="7"
				Note Time="3" Volume="4"
				Note Time="4" Value="D#3" Duration="4" Instrument="DMC: drums + bass" Volume="11" DutyCycle="0"
				Note Time="5" Volume="9"
				Note Time="6" Volume="7"
				Note Time="7" Volume="4"
				Note Time="10" Value="G#3" Duration="8" Instrument="DMC: drums + bass" Volume="11"
				Note Time="11" Volume="7"
				Note Time="12" Volume="4"
				Note Time="13" Volume="0"
				Note Time="18" Value="G#2" Duration="1" Instrument="DMC: drums + bass" Volume="5" DutyCycle="1"
				Note Time="21" Value="G#2" Duration="1" Instrument="DMC: drums + bass"
				Note Time="24" Value="B2" Duration="2" Instrument="DMC: drums + bass" CutDelay="4"
				Note Time="26" Value="C#3" Duration="1" Instrument="DMC: drums + bass"
				Note Time="28" Value="E2" Duration="1" Instrument="DMC: drums + bass"
				Note Time="30" Value="B2" Duration="1" Instrument="DMC: drums + bass"
			Pattern Name="04" Color="88eb8c"
				Note Time="0" Value="D#3" Duration="4" Instrument="DMC: drums + bass" DutyCycle="1"
				Note Time="1" Volume="9"
				Note Time="2" Volume="7"
				Note Time="3" Volume="4"
				Note Time="4" Value="D#3" Duration="4" Instrument="DMC: drums + bass" Volume="11" DutyCycle="0"
				Note Time="5" Volume="9"
				Note Time="6" Volume="7"
				Note Time="7" Volume="4"
				Note Time="10" Value="G#3" Duration="4" Instrument="DMC: drums + bass" Volume="11"
				Note Time="11" Volume="8"
				Note Time="12" Volume="3"
				Note Time="13" Volume="1"
				Note Time="14" Value="F#3" Duration="2" Instrument="blank" Volume="9"
				Note Time="15" Volume="3"
				Note Time="16" Value="E2" Duration="1" Instrument="blank" Volume="5" DutyCycle="1"
				Note Time="19" Value="E2" Duration="1" Instrument="blank"
				Note Time="22" Value="E2" Duration="1" Instrument="blank"
				Note Time="24" Value="F#2" Duration="1" Instrument="blank"
				Note Time="28" Value="F#2" Duration="1" Instrument="blank"
			Pattern Name="05" Color="5ac4ff"
				Note Time="2" Value="G#1" Duration="1" Instrument="blank"
				Note Time="8" Value="G#1" Duration="1" Instrument="blank"
				Note Time="10" Value="G3" Duration="1" Instrument="blank" SlideTarget="G#3" Volume="3" DutyCycle="1"
				Note Time="11" Value="G#3" Duration="3" Instrument="blank" Attack="False" Volume="5" DutyCycle="0"
				Note Time="12" Volume="4"
				Note Time="13" Volume="3"
				Note Time="14" Value="G#1" Duration="1" Instrument="blank" Volume="7" DutyCycle="1"
				Note Time="18" Value="E1" Duration="1" Instrument="blank"
				Note Time="24" Value="E1" Duration="1" Instrument="blank"
				Note Time="30" Value="F#1" Duration="1" Instrument="blank"
			Pattern Name="06" Color="fe5497"
				Note Time="2" Value="G#1" Duration="1" Instrument="blank"
				Note Time="8" Value="G#1" Duration="1" Instrument="blank"
				Note Time="14" Value="B1" Duration="1" Instrument="blank"
				Note Time="18" Value="E1" Duration="1" Instrument="blank"
				Note Time="24" Value="E1" Duration="1" Instrument="blank"
				Note Time="30" Value="F#1" Duration="1" Instrument="blank"
			Pattern Name="07" Color="ffb83c"
				Note Time="2" Value="G#1" Duration="1" Instrument="blank"
				Note Time="8" Value="G#1" Duration="1" Instrument="blank"
				Note Time="14" Value="G#1" Duration="1" Instrument="blank"
				Note Time="18" Value="E1" Duration="1" Instrument="blank"
				Note Time="24" Value="E1" Duration="1" Instrument="blank"
				Note Time="30" Value="F#1" Duration="1" Instrument="blank"
			Pattern Name="08" Color="91c76b"
				Note Time="2" Value="G#1" Duration="1" Instrument="blank"
				Note Time="8" Value="G#1" Duration="1" Instrument="blank"
				Note Time="14" Value="B1" Duration="1" Instrument="blank"
				Note Time="18" Value="E1" Duration="1" Instrument="blank"
				Note Time="24" Value="E1" Duration="1" Instrument="blank"
				Note Time="25" Value="G#2" Duration="5" Instrument="blank" Volume="0" DutyCycle="1"
				Note Time="26" Volume="1"
				Note Time="27" Volume="3"
				Note Time="28" Volume="11"
				Note Time="29" Volume="9"
				Note Time="30" Value="A#2" Duration="2" Instrument="blank" Volume="11"
				Note Time="31" Volume="9"
			Pattern Name="09" Color="8bffff"
				Note Time="0" Value="B2" Duration="2" Instrument="blank" Volume="11"
				Note Time="1" Volume="9"
				Note Time="2" Value="A#2" Duration="2" Instrument="blank" Volume="11"
				Note Time="3" Volume="9"
				Note Time="4" Value="G#2" Duration="24" Instrument="blank" Volume="11"
				Note Time="8" Volume="9"
				Note Time="10" Volume="7"
				Note Time="12" Volume="5"
				Note Time="14" Volume="3"
				Note Time="16" Volume="2"
				Note Time="28" Value="F#3" Duration="3" Instrument="blank string" SlideTarget="G3" Volume="9"
				Note Time="29" Volume="11"
				Note Time="31" Value="G3" Duration="1" Instrument="blank string" Attack="False"
			Pattern Name="0A" Color="e783f8"
				Note Time="2" Value="G#3" Duration="2" Instrument="blank" Volume="3"
				Note Time="3" Volume="1"
				Note Time="8" Value="G#4" Duration="2" Instrument="blank" Volume="3" DutyCycle="2"
				Note Time="9" Volume="1"
				Note Time="11" Value="G#3" Duration="1" Instrument="blank instant decay" Volume="3"
				Note Time="12" Value="G#3" Duration="10" Instrument="blank" Volume="4"
				Note Time="13" Volume="3"
				Note Time="14" Volume="2"
				Note Time="15" Volume="1"
				Note Time="22" Value="G#4" Duration="2" Instrument="Instrument 3" Volume="6"
				Note Time="24" Value="B4" Duration="4" Instrument="Instrument 3" Volume="10"
				Note Time="28" Value="F#4" Duration="4" Instrument="Instrument 3" Volume="15"
			Pattern Name="0B" Color="ffac7f"
				Note Time="0" Value="G#1" Duration="1" Instrument="blank" Volume="10"
				Note Time="1" Value="G#2" Duration="1" Instrument="blank" DutyCycle="1"
				Note Time="2" Value="D#2" Duration="1" Instrument="blank" DutyCycle="0"
				Note Time="3" Value="G#1" Duration="1" Instrument="blank" DutyCycle="2"
				Note Time="4" Value="G#2" Duration="2" Instrument="blank" DutyCycle="1"
				Note Time="5" Volume="8"
				Note Time="8" Value="G#4" Duration="2" Instrument="blank" DutyCycle="0"
				Note Time="9" Volume="4"
				Note Time="18" Value="G#4" Duration="2" Instrument="Instrument 3" Volume="11"
				Note Time="20" Value="G#4" Duration="2" Instrument="Instrument 3"
				Note Time="22" Value="G#4" Duration="2" Instrument="Instrument 3"
				Note Time="24" Value="B4" Duration="2" Instrument="Instrument 3"
				Note Time="26" Value="G#4" Duration="2" Instrument="Instrument 3"
				Note Time="28" Value="F#4" Duration="4" Instrument="Instrument 3"
			Pattern Name="0C" Color="ffff75"
				Note Time="0" Value="G#1" Duration="1" Instrument="blank" Volume="9"
				Note Time="1" Value="G#2" Duration="1" Instrument="blank" DutyCycle="1"
				Note Time="2" Value="D#2" Duration="1" Instrument="blank" DutyCycle="0"
				Note Time="3" Value="G#1" Duration="1" Instrument="blank" DutyCycle="2"
				Note Time="4" Value="G#2" Duration="2" Instrument="blank" DutyCycle="1"
				Note Time="5" Volume="6"
				Note Time="8" Value="G#4" Duration="2" Instrument="blank" DutyCycle="0"
				Note Time="9" Volume="4"
				Note Time="18" Value="G#3" Duration="2" Instrument="blank" Volume="11"
				Note Time="19" Volume="9" DutyCycle="1"
				Note Time="20" Value="G#3" Duration="2" Instrument="blank" Volume="11" DutyCycle="0"
				Note Time="21" Volume="9" DutyCycle="1"
				Note Time="22" Value="G#3" Duration="2" Instrument="blank" Volume="11" DutyCycle="0"
				Note Time="23" Volume="9" DutyCycle="1"
				Note Time="24" Value="B3" Duration="2" Instrument="blank" Volume="11" DutyCycle="0"
				Note Time="25" Volume="9" DutyCycle="1"
				Note Time="26" Value="G#3" Duration="2" Instrument="blank" Volume="11" DutyCycle="0"
				Note Time="27" Volume="9" DutyCycle="1"
				Note Time="28" Value="F#3" Duration="4" Instrument="blank" Volume="11" DutyCycle="0"
				Note Time="29" Volume="9"
				Note Time="30" Volume="6"
				Note Time="31" Volume="3" DutyCycle="1"
			Pattern Name="0D" Color="3ce8fd"
				Note Time="0" Value="B3" Duration="10" Instrument="loud blank string" Volume="15"
				Note Time="2" Volume="14"
				Note Time="3" Volume="13"
				Note Time="4" Volume="12"
				Note Time="5" Volume="10"
				Note Time="6" Volume="8"
				Note Time="7" Volume="6"
				Note Time="8" Volume="4"
				Note Time="9" Volume="2"
				Note Time="10" Value="B3" Duration="2" Instrument="loud blank string" Volume="15"
				Note Time="11" Volume="14"
				Note Time="12" Value="A#3" Duration="2" Instrument="loud blank string" Volume="15"
				Note Time="13" Volume="14"
				Note Time="14" Value="F#3" Duration="12" Instrument="loud blank string" Volume="15"
				Note Time="17" Volume="14"
				Note Time="18" Volume="13"
				Note Time="19" Volume="12"
				Note Time="20" Volume="10"
				Note Time="21" Volume="8"
				Note Time="22" Volume="6"
				Note Time="23" Volume="4"
				Note Time="24" Volume="2"
				Note Time="26" Value="D#3" Duration="2" Instrument="loud blank string" Volume="15"
				Note Time="28" Value="A#3" Duration="2" Instrument="loud blank string" Volume="15"
				Note Time="30" Value="G#3" Duration="26" Instrument="loud blank string" Volume="15"
				Note Time="31" Volume="14"
			Pattern Name="0E" Color="8d69e4"
				Note Time="4" Volume="13"
				Note Time="8" Volume="12"
				Note Time="10" Volume="11"
				Note Time="12" Volume="10"
				Note Time="14" Volume="9"
				Note Time="16" Volume="8"
				Note Time="17" Volume="7"
				Note Time="18" Volume="6"
				Note Time="19" Volume="5"
				Note Time="20" Volume="4"
				Note Time="21" Volume="3"
				Note Time="22" Volume="2"
				Note Time="23" Volume="1"
				Note Time="24" Value="B3" Duration="2" Instrument="blank" Volume="11" DutyCycle="0"
				Note Time="25" Volume="9"
				Note Time="26" Value="C#4" Duration="2" Instrument="blank" Volume="11"
				Note Time="27" Volume="9"
				Note Time="28" Value="D#4" Duration="4" Instrument="blank" Volume="11"
				Note Time="29" Volume="9"
				Note Time="30" Volume="7"
				Note Time="31" Volume="5"
			Pattern Name="0F" Color="997c73"
				Note Time="0" Value="G#3" Duration="4" Instrument="blank" Volume="11"
				Note Time="1" Volume="9"
				Note Time="2" Volume="7"
				Note Time="3" Volume="5"
				Note Time="4" Value="G#4" Duration="10" Instrument="blank" Volume="11"
				Note Time="8" Volume="9"
				Note Time="10" Volume="7"
				Note Time="12" Volume="5"
				Note Time="14" Value="A#4" Duration="2" Instrument="blank" Volume="11"
				Note Time="15" Volume="9"
				Note Time="16" Value="B4" Duration="2" Instrument="blank" Volume="11"
				Note Time="17" Volume="9"
				Note Time="18" Value="A#4" Duration="2" Instrument="blank" Volume="11"
				Note Time="19" Volume="9"
				Note Time="20" Value="G#4" Duration="4" Instrument="blank" Volume="11"
				Note Time="21" Volume="9"
				Note Time="22" Volume="7"
				Note Time="23" Volume="5"
				Note Time="24" Value="D#4" Duration="4" Instrument="blank" Volume="11"
				Note Time="26" Volume="9"
				Note Time="28" Value="F#3" Duration="4" Instrument="blank" Volume="11"
				Note Time="29" Volume="9"
				Note Time="30" Volume="7"
				Note Time="31" Volume="5"
			Pattern Name="10" Color="ffe461"
				Note Time="0" Value="G#3" Duration="4" Instrument="blank" Volume="11"
				Note Time="1" Volume="9"
				Note Time="2" Volume="7"
				Note Time="3" Volume="5"
				Note Time="4" Value="D#4" Duration="18" Instrument="blank" Volume="11"
				Note Time="8" Volume="9"
				Note Time="12" Volume="7"
				Note Time="16" Volume="5"
				Note Time="18" Volume="3"
				Note Time="20" Volume="1"
				Note Time="22" Value="F4" Duration="2" Instrument="blank" Volume="11"
				Note Time="23" Volume="9"
				Note Time="24" Value="C#4" Duration="4" Instrument="blank" Volume="11"
				Note Time="25" Volume="9"
				Note Time="26" Volume="7"
				Note Time="27" Volume="5"
				Note Time="28" Value="F#3" Duration="4" Instrument="blank" Volume="11"
				Note Time="29" Volume="9"
				Note Time="30" Volume="7"
				Note Time="31" Volume="5"
			Pattern Name="11" Color="89f2e8"
				Note Time="4" Volume="13"
				Note Time="8" Volume="12"
				Note Time="10" Volume="11"
				Note Time="12" Volume="10"
				Note Time="14" Volume="9"
				Note Time="16" Value="G#4" Duration="6" Instrument="Instrument 3" Volume="11"
				Note Time="24" Value="B4" Duration="4" Instrument="Instrument 3"
				Note Time="28" Value="F#4" Duration="4" Instrument="Instrument 3"
			Pattern Name="12" Color="98a7fc"
				Note Time="0" Value="G#3" Duration="1" Instrument="echo" Volume="15" DutyCycle="2"
				Note Time="1" Value="G#4" Duration="1" Instrument="echo"
				Note Time="2" Value="G#3" Duration="2" Instrument="echo"
				Note Time="4" Value="G#4" Duration="2" Instrument="echo"
				Note Time="6" Value="F#4" Duration="2" Instrument="echo"
				Note Time="8" Value="G#4" Duration="2" Instrument="echo"
				Note Time="10" Value="D#4" Duration="2" Instrument="echo"
				Note Time="12" Value="G#4" Duration="4" Instrument="echo"
				Note Time="16" Value="G#3" Duration="1" Instrument="echo"
				Note Time="17" Value="B4" Duration="2" Instrument="echo"
				Note Time="19" Value="B4" Duration="1" Instrument="echo"
				Note Time="20" Value="G#4" Duration="2" Instrument="echo"
				Note Time="22" Value="F#4" Duration="2" Instrument="echo"
				Note Time="24" Value="G#4" Duration="2" Instrument="echo"
				Note Time="26" Value="F#4" Duration="2" Instrument="echo"
				Note Time="28" Value="G#4" Duration="4" Instrument="echo"
			Pattern Name="13" Color="ff7f72"
				Note Time="0" Value="G#3" Duration="1" Instrument="echo"
				Note Time="1" Value="G#4" Duration="1" Instrument="echo"
				Note Time="2" Value="G#3" Duration="2" Instrument="echo"
				Note Time="4" Value="G#4" Duration="2" Instrument="echo"
				Note Time="6" Value="F#4" Duration="2" Instrument="echo"
				Note Time="8" Value="G#4" Duration="2" Instrument="echo"
				Note Time="10" Value="D#4" Duration="2" Instrument="echo"
				Note Time="12" Value="G#4" Duration="4" Instrument="echo"
				Note Time="16" Value="G#3" Duration="1" Instrument="echo"
				Note Time="17" Value="B4" Duration="2" Instrument="echo"
				Note Time="19" Value="B4" Duration="1" Instrument="echo"
				Note Time="20" Value="G#4" Duration="2" Instrument="echo"
				Note Time="22" Value="F#4" Duration="2" Instrument="echo"
				Note Time="24" Value="G#4" Duration="2" Instrument="echo"
				Note Time="26" Value="B4" Duration="2" Instrument="echo"
				Note Time="28" Value="G#4" Duration="2" Instrument="echo"
				Note Time="30" Value="F#4" Duration="2" Instrument="echo"
			Pattern Name="14" Color="fffd43"
				Note Time="0" Value="G#3" Duration="1" Instrument="echo"
				Note Time="1" Value="G#4" Duration="1" Instrument="echo"
				Note Time="2" Value="G#3" Duration="2" Instrument="echo"
				Note Time="4" Value="G#4" Duration="2" Instrument="echo"
				Note Time="6" Value="F#4" Duration="2" Instrument="echo"
				Note Time="8" Value="G#4" Duration="2" Instrument="echo"
				Note Time="10" Value="D#4" Duration="2" Instrument="echo"
				Note Time="12" Value="G#4" Duration="4" Instrument="echo"
				Note Time="16" Value="B4" Duration="1" Instrument="echo"
				Note Time="17" Value="B4" Duration="1" Instrument="echo"
				Note Time="18" Value="C#5" Duration="2" Instrument="echo"
				Note Time="20" Value="D5" Duration="1" Instrument="echo" SlideTarget="D#5"
				Note Time="21" Value="D#5" Duration="1" Instrument="echo" Attack="False"
				Note Time="22" Value="F#4" Duration="2" Instrument="echo"
				Note Time="24" Value="G#4" Duration="2" Instrument="echo"
				Note Time="26" Value="F#4" Duration="2" Instrument="echo"
				Note Time="28" Value="G#4" Duration="4" Instrument="echo"
			Pattern Name="15" Color="7fdc83"
				Note Time="0" Value="G#4" Duration="2" Instrument="DMC: drums + bass" Volume="10"
				Note Time="2" Value="G#4" Duration="2" Instrument="DMC: drums + bass" SlideTarget="F#3" Attack="False"
				Note Time="4" DutyCycle="2"
				Note Time="16" Value="G#1" Duration="2" Instrument="hex guitar 2" Volume="10"
				Note Time="18" Value="G#1" Duration="1" Instrument="hex guitar 2" CutDelay="3"
				Note Time="19" Value="G#1" Duration="1" Instrument="hex guitar 2" CutDelay="3"
				Note Time="20" Value="G#1" Duration="1" Instrument="hex guitar 2" CutDelay="3"
				Note Time="21" Value="G#1" Duration="2" Instrument="hex guitar 2"
				Note Time="23" Value="G#1" Duration="1" Instrument="hex guitar 2" CutDelay="3"
				Note Time="24" Value="G#1" Duration="2" Instrument="hex guitar 2"
				Note Time="26" Value="G#1" Duration="1" Instrument="hex guitar 2" CutDelay="3"
				Note Time="27" Value="G#1" Duration="2" Instrument="hex guitar 2"
				Note Time="29" Value="G#1" Duration="1" Instrument="hex guitar 2" CutDelay="3"
				Note Time="30" Value="G#1" Duration="2" Instrument="hex guitar 2"
			Pattern Name="16" Color="55b2ff"
				Note Time="0" Value="G#1" Duration="1" Instrument="blank" Volume="9"
				Note Time="1" Value="G#2" Duration="1" Instrument="blank" DutyCycle="1"
				Note Time="2" Value="D#2" Duration="1" Instrument="blank" DutyCycle="0"
				Note Time="3" Value="G#1" Duration="1" Instrument="blank" DutyCycle="2"
				Note Time="4" Value="G#2" Duration="2" Instrument="blank" DutyCycle="1"
				Note Time="5" Volume="6"
				Note Time="16" Value="G#1" Duration="2" Instrument="hex guitar 2" Volume="10"
				Note Time="18" Value="G#1" Duration="2" Instrument="hex guitar 2"
				Note Time="20" Value="G#1" Duration="1" Instrument="hex guitar 2" CutDelay="3"
				Note Time="21" Value="G#1" Duration="2" Instrument="hex guitar 2"
				Note Time="23" Value="G#1" Duration="1" Instrument="hex guitar 2" CutDelay="3"
				Note Time="24" Value="G#1" Duration="2" Instrument="hex guitar 2"
				Note Time="26" Value="G#1" Duration="1" Instrument="hex guitar 2" CutDelay="3"
				Note Time="27" Value="G#1" Duration="3" Instrument="hex guitar 2"
				Note Time="30" Value="G#1" Duration="2" Instrument="hex guitar 2"
			Pattern Name="17" Color="e95093"
				Note Time="0" Value="B1" Duration="1" Instrument="blank" Volume="9"
				Note Time="1" Value="B2" Duration="1" Instrument="blank" DutyCycle="1"
				Note Time="2" Value="F#2" Duration="1" Instrument="blank" DutyCycle="0"
				Note Time="3" Value="B1" Duration="1" Instrument="blank" DutyCycle="2"
				Note Time="4" Value="B2" Duration="2" Instrument="blank" DutyCycle="1"
				Note Time="5" Volume="6"
				Note Time="16" Value="G#1" Duration="2" Instrument="hex guitar 2" Volume="10"
				Note Time="18" Value="G#1" Duration="1" Instrument="hex guitar 2" CutDelay="3"
				Note Time="19" Value="G#1" Duration="1" Instrument="hex guitar 2" CutDelay="3"
				Note Time="20" Value="G#1" Duration="1" Instrument="hex guitar 2" CutDelay="3"
				Note Time="21" Value="G#1" Duration="2" Instrument="hex guitar 2"
				Note Time="23" Value="G#1" Duration="1" Instrument="hex guitar 2" CutDelay="3"
				Note Time="24" Value="G#2" Duration="1" Instrument="hex guitar 2" CutDelay="3"
				Note Time="25" Value="G#2" Duration="1" Instrument="hex guitar 2" CutDelay="3"
				Note Time="26" Value="G#1" Duration="1" Instrument="hex guitar 2" CutDelay="3"
				Note Time="27" Value="G#1" Duration="2" Instrument="hex guitar 2"
				Note Time="29" Value="G#1" Duration="1" Instrument="hex guitar 2" CutDelay="3"
				Note Time="30" Value="G#1" Duration="2" Instrument="hex guitar 2"
			Pattern Name="19" Color="ffa83c"
				Note Time="0" Value="G#2" Duration="2" Instrument="blank" Volume="9" FinePitch="-2" DutyCycle="1"
				Note Time="1" Volume="7"
				Note Time="2" Value="G#1" Duration="2" Instrument="blank" Volume="12"
				Note Time="3" Volume="10"
				Note Time="4" Value="D#3" Duration="1" Instrument="blank" Volume="8"
				Note Time="5" Value="G#2" Duration="2" Instrument="blank" Volume="12" DutyCycle="0"
				Note Time="6" Volume="10"
				Note Time="7" Value="G#2" Duration="3" Instrument="blank" Volume="12"
				Note Time="8" Volume="10"
				Note Time="9" Volume="8"
				Note Time="10" Value="G#1" Duration="5" Instrument="blank" Volume="12" DutyCycle="1"
				Note Time="12" Volume="10"
				Note Time="13" Volume="8"
				Note Time="14" Volume="6"
				Note Time="16" FinePitch="0"
				Note Time="28" Value="F#3" Duration="3" Instrument="blank string" SlideTarget="G3" Volume="13"
				Note Time="29" Volume="15"
				Note Time="31" Value="G3" Duration="1" Instrument="blank string" Attack="False"
			Pattern Name="18" Color="eaffbd"
				Note Time="0" Value="G#4" Duration="32" Instrument="Instrument 3"
				Note Time="4" Volume="15"
				Note Time="5" Volume="14"
				Note Time="6" Volume="13"
				Note Time="7" Volume="12"
				Note Time="8" Volume="11"
				Note Time="9" Volume="10"
				Note Time="10" Volume="9"
				Note Time="11" Volume="8"
				Note Time="12" Volume="7"
				Note Time="13" Volume="6"
				Note Time="14" Volume="5"
				Note Time="15" Volume="4"
				Note Time="16" Volume="3"
				Note Time="17" Volume="2"
				Note Time="18" Volume="1"
				Note Time="19" Volume="0"
			PatternInstance Time="0" Pattern="00"
			PatternInstance Time="1" Pattern="01"
			PatternInstance Time="2" Pattern="02"
			PatternInstance Time="3" Pattern="03"
			PatternInstance Time="4" Pattern="02"
			PatternInstance Time="5" Pattern="04"
			PatternInstance Time="6" Pattern="05"
			PatternInstance Time="7" Pattern="06"
			PatternInstance Time="8" Pattern="07"
			PatternInstance Time="9" Pattern="08"
			PatternInstance Time="10" Pattern="09"
			PatternInstance Time="11" Pattern="0A"
			PatternInstance Time="12" Pattern="0B"
			PatternInstance Time="13" Pattern="0C"
			PatternInstance Time="14" Pattern="0D"
			PatternInstance Time="15" Pattern="0E"
			PatternInstance Time="16" Pattern="0F"
			PatternInstance Time="17" Pattern="10"
			PatternInstance Time="18" Pattern="0D"
			PatternInstance Time="19" Pattern="11"
			PatternInstance Time="20" Pattern="12"
			PatternInstance Time="21" Pattern="13"
			PatternInstance Time="22" Pattern="14"
			PatternInstance Time="23" Pattern="13"
			PatternInstance Time="24" Pattern="15"
			PatternInstance Time="25" Pattern="16"
			PatternInstance Time="26" Pattern="17"
			PatternInstance Time="27" Pattern="16"
			PatternInstance Time="28" Pattern="19"
			PatternInstance Time="29" Pattern="0A"
			PatternInstance Time="30" Pattern="18"
		Channel Type="Triangle"
			Pattern Name="00" Color="65f2ff"
				Note Time="2" Value="C1" Duration="2" Instrument="blank instant decay"
				Note Time="4" Value="C#1" Duration="1" Instrument="blank instant decay"
				Note Time="5" Value="D1" Duration="1" Instrument="blank instant decay"
				Note Time="6" Value="D#1" Duration="1" Instrument="blank instant decay"
				Note Time="7" Value="E1" Duration="3" Instrument="blank instant decay"
				Note Time="10" Value="F#1" Duration="2" Instrument="blank instant decay"
				Note Time="12" Value="G#1" Duration="1" Instrument="blank instant decay"
				Note Time="13" Value="A1" Duration="1" Instrument="blank instant decay"
				Note Time="14" Value="A#1" Duration="2" Instrument="blank instant decay"
				Note Time="16" Value="C2" Duration="2" Instrument="blank instant decay"
				Note Time="18" Value="D2" Duration="2" Instrument="blank instant decay"
				Note Time="20" Value="D#2" Duration="1" Instrument="blank instant decay"
				Note Time="21" Value="E2" Duration="1" Instrument="blank instant decay"
				Note Time="22" Value="F2" Duration="1" Instrument="blank instant decay"
				Note Time="23" Value="F#2" Duration="3" Instrument="blank instant decay"
			Pattern Name="02" Color="d863ec"
			Pattern Name="01" Color="ff935e"
				Note Time="0" Value="G#1" Duration="2" Instrument="blank"
				Note Time="3" Value="G#2" Duration="2" Instrument="blank" CutDelay="8"
				Note Time="5" Value="G#1" Duration="1" Instrument="blank"
				Note Time="6" Value="G#2" Duration="2" Instrument="blank"
				Note Time="8" Value="B1" Duration="2" Instrument="blank"
				Note Time="11" Value="B2" Duration="2" Instrument="blank"
				Note Time="14" Value="B2" Duration="2" Instrument="blank"
				Note Time="16" Value="E1" Duration="2" Instrument="DMC: drums + bass"
				Note Time="19" Value="E2" Duration="2" Instrument="DMC: drums + bass" CutDelay="8"
				Note Time="21" Value="E1" Duration="1" Instrument="DMC: drums + bass"
				Note Time="22" Value="E2" Duration="2" Instrument="DMC: drums + bass"
				Note Time="24" Value="F#1" Duration="2" Instrument="DMC: drums + bass"
				Note Time="27" Value="F#2" Duration="2" Instrument="DMC: drums + bass"
				Note Time="30" Value="F#2" Duration="2" Instrument="DMC: drums + bass"
			Pattern Name="03" Color="fcff6f"
				Note Time="0" Value="G#1" Duration="2" Instrument="blank"
				Note Time="3" Value="G#2" Duration="2" Instrument="blank" CutDelay="8"
				Note Time="5" Value="G#1" Duration="1" Instrument="blank"
				Note Time="6" Value="G#2" Duration="2" Instrument="blank"
				Note Time="8" Value="B1" Duration="2" Instrument="blank"
				Note Time="11" Value="B2" Duration="2" Instrument="blank"
				Note Time="14" Value="B2" Duration="2" Instrument="blank"
				Note Time="16" Value="C#3" Duration="1" Instrument="DMC: drums + bass"
				Note Time="19" Value="E2" Duration="2" Instrument="DMC: drums + bass" CutDelay="8"
				Note Time="21" Value="E1" Duration="1" Instrument="DMC: drums + bass"
				Note Time="22" Value="E2" Duration="2" Instrument="DMC: drums + bass"
				Note Time="24" Value="F#1" Duration="2" Instrument="DMC: drums + bass"
				Note Time="27" Value="F#2" Duration="2" Instrument="DMC: drums + bass"
				Note Time="30" Value="F#2" Duration="2" Instrument="DMC: drums + bass"
			Pattern Name="04" Color="3cd3e3"
				Note Time="2" Value="G#2" Duration="2" Instrument="blank"
				Note Time="5" Value="G#2" Duration="2" Instrument="blank"
				Note Time="8" Value="G#2" Duration="2" Instrument="blank"
				Note Time="12" Value="G#2" Duration="2" Instrument="blank"
				Note Time="18" Value="E2" Duration="2" Instrument="blank"
				Note Time="21" Value="E2" Duration="2" Instrument="blank"
				Note Time="24" Value="F#2" Duration="2" Instrument="blank"
				Note Time="28" Value="F#2" Duration="2" Instrument="blank"
			Pattern Name="05" Color="8163dc"
				Note Time="2" Value="G#2" Duration="2" Instrument="blank"
				Note Time="5" Value="G#2" Duration="2" Instrument="blank"
				Note Time="8" Value="B2" Duration="3" Instrument="blank"
				Note Time="18" Value="E2" Duration="2" Instrument="blank"
				Note Time="21" Value="E2" Duration="2" Instrument="blank"
				Note Time="24" Value="F#2" Duration="2" Instrument="blank"
				Note Time="28" Value="F#2" Duration="2" Instrument="blank"
			Pattern Name="06" Color="8a706a"
				Note Time="0" Value="B3" Duration="2" Instrument="sample"
				Note Time="2" Value="A#3" Duration="2" Instrument="sample"
				Note Time="4" Value="G#3" Duration="20" Instrument="sample"
			Pattern Name="07" Color="ffffb2"
				Note Time="0" Value="G#1" Duration="1" Instrument="blank"
				Note Time="1" Value="G#2" Duration="1" Instrument="blank"
				Note Time="2" Value="D#2" Duration="1" Instrument="blank"
				Note Time="3" Value="G#1" Duration="1" Instrument="blank"
				Note Time="4" Value="G#2" Duration="1" Instrument="blank"
				Note Time="16" Value="G#4" Duration="3" Instrument="blank"
				Note Time="19" Value="D#4" Duration="3" Instrument="blank"
				Note Time="22" Value="G#4" Duration="2" Instrument="blank"
				Note Time="24" Value="B4" Duration="4" Instrument="blank"
				Note Time="28" Value="F#4" Duration="4" Instrument="blank"
			Pattern Name="08" Color="62e2d6"
				Note Time="0" Value="G#3" Duration="2" Instrument="DMC: drums + bass" SlideTarget="C3"
				Note Time="2" Value="G#2" Duration="1" Instrument="blank"
				Note Time="3" Value="D#4" Duration="3" Instrument="blank"
				Note Time="6" Value="G#4" Duration="2" Instrument="blank"
				Note Time="8" Value="F#4" Duration="2" Instrument="blank"
				Note Time="10" Value="G#2" Duration="1" Instrument="blank"
				Note Time="11" Value="D#4" Duration="3" Instrument="sample"
				Note Time="14" Value="F#4" Duration="2" Instrument="blank"
				Note Time="16" Value="F3" Duration="2" Instrument="DMC: drums + bass" SlideTarget="A#2"
				Note Time="18" Value="G#2" Duration="1" Instrument="blank"
				Note Time="19" Value="C#4" Duration="3" Instrument="blank"
				Note Time="22" Value="F#4" Duration="2" Instrument="blank"
				Note Time="24" Value="F4" Duration="2" Instrument="blank"
				Note Time="26" Value="C#4" Duration="2" Instrument="blank"
				Note Time="28" Value="F#3" Duration="2" Instrument="DMC: drums + bass" SlideTarget="A#2"
				Note Time="30" Value="F#6" Duration="2" Instrument="DMC: drums + bass" SlideTarget="C4"
			Pattern Name="09" Color="7b8df1"
				Note Time="0" Value="G#3" Duration="2" Instrument="DMC: drums + bass" SlideTarget="C3"
				Note Time="2" Value="G#2" Duration="1" Instrument="blank"
				Note Time="3" Value="D#4" Duration="3" Instrument="blank"
				Note Time="6" Value="G#4" Duration="2" Instrument="blank"
				Note Time="8" Value="F#4" Duration="2" Instrument="blank"
				Note Time="10" Value="G#2" Duration="1" Instrument="blank"
				Note Time="11" Value="D#4" Duration="3" Instrument="sample"
				Note Time="14" Value="F#4" Duration="2" Instrument="blank"
				Note Time="16" Value="F3" Duration="2" Instrument="DMC: drums + bass" SlideTarget="A#2"
				Note Time="18" Value="G#2" Duration="1" Instrument="blank"
				Note Time="19" Value="C#4" Duration="3" Instrument="blank"
				Note Time="22" Value="F#4" Duration="2" Instrument="blank"
				Note Time="24" Value="F4" Duration="2" Instrument="blank"
				Note Time="26" Value="C#4" Duration="2" Instrument="blank"
				Note Time="28" Value="F#3" Duration="4" Instrument="blank"
			Pattern Name="0A" Color="ff7571"
				Note Time="0" Value="D#3" Duration="7" Instrument="blank"
				Note Time="10" Value="C#3" Duration="2" Instrument="blank"
				Note Time="12" Value="D#3" Duration="2" Instrument="blank"
				Note Time="14" Value="F#3" Duration="9" Instrument="blank"
				Note Time="26" Value="D#3" Duration="2" Instrument="blank"
				Note Time="28" Value="F#3" Duration="2" Instrument="blank"
				Note Time="30" Value="G#3" Duration="26" Instrument="blank"
			Pattern Name="0C" Color="74ca78"
				Note Time="0" Value="G#3" Duration="2" Instrument="DMC: drums + bass" SlideTarget="C3"
				Note Time="2" Value="G#2" Duration="1" Instrument="blank"
				Note Time="3" Value="D#4" Duration="1" Instrument="blank"
				Note Time="4" Value="D#3" Duration="2" Instrument="blank"
				Note Time="6" Value="G#4" Duration="2" Instrument="blank"
				Note Time="8" Value="F#4" Duration="2" Instrument="blank"
				Note Time="10" Value="G#2" Duration="1" Instrument="blank"
				Note Time="11" Value="D#4" Duration="3" Instrument="sample"
				Note Time="14" Value="F#4" Duration="2" Instrument="blank"
				Note Time="16" Value="F3" Duration="2" Instrument="DMC: drums + bass" SlideTarget="A#2"
				Note Time="18" Value="G#2" Duration="1" Instrument="blank"
				Note Time="19" Value="C#4" Duration="3" Instrument="blank"
				Note Time="22" Value="F#4" Duration="2" Instrument="blank"
				Note Time="24" Value="F4" Duration="2" Instrument="blank"
				Note Time="26" Value="C#4" Duration="2" Instrument="blank"
				Note Time="28" Value="F#4" Duration="4" Instrument="blank" SlideTarget="A2"
			Pattern Name="0D" Color="51a1fc"
				Note Time="0" Value="G#3" Duration="4" Instrument="DMC: drums + bass" SlideTarget="F#2"
				Note Time="4" Value="D#4" Duration="18" Instrument="blank"
				Note Time="22" Value="F4" Duration="2" Instrument="blank"
				Note Time="24" Value="C#4" Duration="4" Instrument="blank"
				Note Time="28" Value="F#3" Duration="4" Instrument="blank"
			Pattern Name="0E" Color="ff9ece"
				Note Time="16" Value="G#4" Duration="16" Instrument="Instrument 3" SlideTarget="D1"
			Pattern Name="0F" Color="fff389"
				Note Time="0" Value="G#3" Duration="3" Instrument="blank instant decay"
				Note Time="3" Value="D#3" Duration="3" Instrument="blank instant decay"
				Note Time="6" Value="G#3" Duration="2" Instrument="blank instant decay"
				Note Time="8" Value="F#3" Duration="3" Instrument="blank instant decay"
				Note Time="11" Value="D#3" Duration="3" Instrument="blank instant decay"
				Note Time="14" Value="F#3" Duration="2" Instrument="blank instant decay"
				Note Time="16" Value="F3" Duration="3" Instrument="blank instant decay"
				Note Time="19" Value="C#3" Duration="3" Instrument="blank instant decay"
				Note Time="22" Value="F#3" Duration="2" Instrument="blank instant decay"
				Note Time="24" Value="F3" Duration="2" Instrument="blank instant decay"
				Note Time="26" Value="C#3" Duration="2" Instrument="blank instant decay"
				Note Time="28" Value="D#3" Duration="2" Instrument="blank instant decay"
				Note Time="30" Value="G#2" Duration="2" Instrument="blank instant decay"
			Pattern Name="10" Color="3fe5ff"
				Note Time="0" Value="G#4" Duration="20" Instrument="blank"
			PatternInstance Time="0" Pattern="00"
			PatternInstance Time="1" Pattern="02"
			PatternInstance Time="2" Pattern="01"
			PatternInstance Time="3" Pattern="03"
			PatternInstance Time="4" Pattern="01"
			PatternInstance Time="5" Pattern="03"
			PatternInstance Time="6" Pattern="04"
			PatternInstance Time="7" Pattern="05"
			PatternInstance Time="8" Pattern="04"
			PatternInstance Time="9" Pattern="05"
			PatternInstance Time="10" Pattern="06"
			PatternInstance Time="11" Pattern="07"
			PatternInstance Time="12" Pattern="08"
			PatternInstance Time="13" Pattern="09"
			PatternInstance Time="14" Pattern="0A"
			PatternInstance Time="16" Pattern="0C"
			PatternInstance Time="17" Pattern="0D"
			PatternInstance Time="18" Pattern="0A"
			PatternInstance Time="19" Pattern="0E"
			PatternInstance Time="20" Pattern="0F"
			PatternInstance Time="21" Pattern="0F"
			PatternInstance Time="22" Pattern="0F"
			PatternInstance Time="23" Pattern="0F"
			PatternInstance Time="29" Pattern="07"
			PatternInstance Time="30" Pattern="10"
		Channel Type="Noise"
			Pattern Name="00" Color="ca60e6"
				Note Time="0" Value="G#2" Duration="2" Instrument="hat" Volume="15"
				Note Time="2" Value="G#2" Duration="2" Instrument="hat"
				Note Time="4" Value="G#2" Duration="2" Instrument="hat"
				Note Time="6" Value="G#2" Duration="2" Instrument="hat"
				Note Time="8" Value="G#2" Duration="2" Instrument="hat"
				Note Time="10" Value="G#2" Duration="2" Instrument="hat"
				Note Time="12" Value="G#2" Duration="2" Instrument="hat"
				Note Time="14" Value="G#2" Duration="2" Instrument="hat"
				Note Time="16" Value="G#2" Duration="2" Instrument="hat"
				Note Time="18" Value="G#2" Duration="2" Instrument="hat"
				Note Time="20" Value="G#2" Duration="2" Instrument="hat"
				Note Time="22" Value="G#2" Duration="2" Instrument="hat"
				Note Time="24" Value="G#2" Duration="2" Instrument="hat"
				Note Time="26" Value="G#2" Duration="2" Instrument="hat"
				Note Time="28" Value="G#2" Duration="2" Instrument="hat"
				Note Time="30" Value="G#2" Duration="2" Instrument="hat"
			Pattern Name="03" Color="ff8d5a"
				Note Time="0" Value="G#2" Duration="2" Instrument="hat"
				Note Time="2" Value="G#2" Duration="2" Instrument="hat"
				Note Time="4" Value="G#2" Duration="2" Instrument="hat"
				Note Time="6" Value="G#2" Duration="2" Instrument="hat"
				Note Time="8" Value="G#2" Duration="2" Instrument="hat"
				Note Time="10" Value="G#2" Duration="2" Instrument="hat"
				Note Time="12" Value="G#2" Duration="2" Instrument="hat"
				Note Time="14" Value="G#2" Duration="2" Instrument="hat"
				Note Time="16" Value="G#2" Duration="2" Instrument="hat"
				Note Time="18" Value="G#2" Duration="2" Instrument="hat"
				Note Time="20" Value="G#2" Duration="2" Instrument="hat"
				Note Time="22" Value="G#2" Duration="2" Instrument="hat"
				Note Time="24" Value="G#2" Duration="2" Instrument="hat"
				Note Time="26" Value="G#2" Duration="1" Instrument="hat"
				Note Time="27" Value="A#3" Duration="5" Instrument="blank" Volume="2"
				Note Time="28" Volume="4"
				Note Time="29" Volume="6"
				Note Time="30" Volume="8"
				Note Time="31" Volume="10"
			Pattern Name="01" Color="ebf067"
				Note Time="0" Value="G#3" Duration="2" Instrument="hat"
				Note Time="2" Value="A#2" Duration="4" Instrument="snare"
				Note Time="6" Value="A#2" Duration="1" Instrument="snare"
				Note Time="7" Value="G#3" Duration="1" Instrument="hat"
				Note Time="8" Value="G#3" Duration="2" Instrument="hat"
				Note Time="10" Value="A#2" Duration="4" Instrument="snare"
				Note Time="14" Value="A#2" Duration="1" Instrument="snare"
				Note Time="15" Value="A#2" Duration="1" Instrument="snare"
				Note Time="16" Value="G#3" Duration="2" Instrument="hat"
				Note Time="18" Value="A#2" Duration="4" Instrument="snare"
				Note Time="22" Value="A#2" Duration="1" Instrument="snare"
				Note Time="23" Value="G#3" Duration="1" Instrument="hat"
				Note Time="24" Value="G#3" Duration="2" Instrument="hat"
				Note Time="26" Value="A#2" Duration="4" Instrument="snare"
				Note Time="30" Value="A#2" Duration="1" Instrument="snare"
				Note Time="31" Value="A#2" Duration="1" Instrument="snare"
			Pattern Name="04" Color="3cbfcb"
				Note Time="0" Value="C3" Duration="2" Instrument="kick" Volume="15"
				Note Time="2" Value="A#2" Duration="2" Instrument="kick"
				Note Time="4" Value="G3" Duration="2" Instrument="snare"
				Note Time="6" Value="G3" Duration="2" Instrument="hat"
				Note Time="8" Value="G3" Duration="2" Instrument="hat"
				Note Time="10" Value="G3" Duration="2" Instrument="hat"
				Note Time="12" Value="G3" Duration="2" Instrument="snare"
				Note Time="14" Value="G3" Duration="1" Instrument="hat"
				Note Time="15" Value="G3" Duration="1" Instrument="snare"
				Note Time="16" Value="G3" Duration="1" Instrument="hat"
				Note Time="17" Value="F3" Duration="1" Instrument="hat"
				Note Time="18" Value="E3" Duration="2" Instrument="hat"
				Note Time="20" Value="G3" Duration="2" Instrument="hat"
				Note Time="22" Value="B2" Duration="2" Instrument="hat"
				Note Time="24" Value="G3" Duration="2" Instrument="hat"
				Note Time="26" Value="G3" Duration="2" Instrument="hat"
				Note Time="28" Value="F#3" Duration="2" Instrument="snare"
				Note Time="30" Value="G3" Duration="1" Instrument="hat"
				Note Time="31" Value="F#3" Duration="1" Instrument="snare"
			Pattern Name="05" Color="d1b1ff"
				Note Time="0" Value="C3" Duration="2" Instrument="kick" Volume="15"
				Note Time="2" Value="A#2" Duration="2" Instrument="kick"
				Note Time="4" Value="G3" Duration="2" Instrument="snare"
				Note Time="6" Value="G3" Duration="1" Instrument="hat"
				Note Time="7" Value="F#3" Duration="1" Instrument="snare"
				Note Time="8" Value="A#2" Duration="2" Instrument="kick" Volume="15"
				Note Time="10" Value="A#2" Duration="2" Instrument="kick"
				Note Time="12" Value="G3" Duration="2" Instrument="snare"
				Note Time="14" Value="G3" Duration="10" Instrument="hat"
				Note Time="24" Value="G#3" Duration="8" Instrument="DMC: drums + bass" Volume="0"
				Note Time="25" Volume="2"
				Note Time="26" Volume="4"
				Note Time="27" Volume="6"
				Note Time="28" Volume="8"
				Note Time="29" Volume="10"
				Note Time="30" Volume="12"
				Note Time="31" Volume="14"
			Pattern Name="07" Color="ddc4bb"
				Note Time="0" Value="E3" Duration="6" Instrument="cymbal" Volume="15"
				Note Time="6" Value="A#2" Duration="1" Instrument="snare"
				Note Time="7" Value="G#3" Duration="1" Instrument="hat"
				Note Time="8" Value="G#3" Duration="2" Instrument="hat"
				Note Time="10" Value="A#2" Duration="4" Instrument="snare"
				Note Time="14" Value="A#2" Duration="1" Instrument="snare"
				Note Time="15" Value="A#2" Duration="1" Instrument="snare"
				Note Time="16" Value="G#3" Duration="2" Instrument="hat"
				Note Time="18" Value="A#2" Duration="4" Instrument="snare"
				Note Time="22" Value="A#2" Duration="1" Instrument="snare"
				Note Time="23" Value="G#3" Duration="1" Instrument="hat"
				Note Time="24" Value="G#3" Duration="2" Instrument="hat"
				Note Time="26" Value="A#2" Duration="2" Instrument="snare"
				Note Time="28" Value="A3" Duration="4" Instrument="blank" Volume="2"
				Note Time="29" Volume="4"
				Note Time="30" Volume="6"
				Note Time="31" Volume="8"
			Pattern Name="08" Color="ffff94"
				Note Time="0" Value="G#3" Duration="2" Instrument="hat"
				Note Time="2" Value="A#2" Duration="4" Instrument="snare"
				Note Time="6" Value="A#2" Duration="1" Instrument="snare"
				Note Time="7" Value="G#3" Duration="1" Instrument="hat"
				Note Time="8" Value="G#3" Duration="2" Instrument="hat"
				Note Time="10" Value="A#2" Duration="4" Instrument="snare"
				Note Time="14" Value="A#2" Duration="1" Instrument="snare"
				Note Time="15" Value="A#2" Duration="1" Instrument="snare"
				Note Time="16" Value="D3" Duration="16" Instrument="cymbal"
			Pattern Name="09" Color="3cd2c4"
				Note Time="0" Value="F3" Duration="1" Instrument="snare" Volume="15"
				Note Time="1" Value="G2" Duration="1" Instrument="snare"
				Note Time="2" Value="F3" Duration="2" Instrument="snare"
				Note Time="4" Value="F3" Duration="2" Instrument="snare" Volume="13"
				Note Time="6" Value="F3" Duration="1" Instrument="snare" Volume="11"
				Note Time="7" Value="F3" Duration="2" Instrument="snare" Volume="9"
				Note Time="9" Value="F3" Duration="1" Instrument="snare"
				Note Time="10" Value="F3" Duration="2" Instrument="snare"
				Note Time="12" Value="A#2" Duration="2" Instrument="snare"
				Note Time="14" Value="A#2" Duration="1" Instrument="snare"
				Note Time="15" Value="A#2" Duration="1" Instrument="snare"
				Note Time="16" Value="G#3" Duration="2" Instrument="hat"
				Note Time="18" Value="A#2" Duration="4" Instrument="snare"
				Note Time="22" Value="A#2" Duration="1" Instrument="snare"
				Note Time="23" Value="G#3" Duration="1" Instrument="hat"
				Note Time="24" Value="G#3" Duration="2" Instrument="hat"
				Note Time="26" Value="A#2" Duration="4" Instrument="snare"
				Note Time="30" Value="A#2" Duration="1" Instrument="snare"
				Note Time="31" Value="A#2" Duration="1" Instrument="snare"
			Pattern Name="0A" Color="7585e7"
				Note Time="0" Value="D3" Duration="20" Instrument="cymbal"
			PatternInstance Time="0" Pattern="00"
			PatternInstance Time="1" Pattern="00"
			PatternInstance Time="2" Pattern="00"
			PatternInstance Time="3" Pattern="00"
			PatternInstance Time="4" Pattern="00"
			PatternInstance Time="5" Pattern="03"
			PatternInstance Time="6" Pattern="01"
			PatternInstance Time="7" Pattern="01"
			PatternInstance Time="8" Pattern="01"
			PatternInstance Time="9" Pattern="01"
			PatternInstance Time="10" Pattern="04"
			PatternInstance Time="11" Pattern="05"
			PatternInstance Time="12" Pattern="01"
			PatternInstance Time="13" Pattern="01"
			PatternInstance Time="14" Pattern="01"
			PatternInstance Time="15" Pattern="01"
			PatternInstance Time="16" Pattern="07"
			PatternInstance Time="17" Pattern="07"
			PatternInstance Time="18" Pattern="01"
			PatternInstance Time="19" Pattern="08"
			PatternInstance Time="20" Pattern="01"
			PatternInstance Time="21" Pattern="01"
			PatternInstance Time="22" Pattern="01"
			PatternInstance Time="23" Pattern="01"
			PatternInstance Time="24" Pattern="09"
			PatternInstance Time="25" Pattern="09"
			PatternInstance Time="26" Pattern="09"
			PatternInstance Time="27" Pattern="09"
			PatternInstance Time="28" Pattern="04"
			PatternInstance Time="29" Pattern="05"
			PatternInstance Time="30" Pattern="0A"
		Channel Type="DPCM"
			Pattern Name="00" Color="ff6b6b"
				Note Time="0" Value="E5" Duration="4" Instrument="DMC: drums + bass"
				Note Time="4" Value="E5" Duration="4" Instrument="DMC: drums + bass"
				Note Time="8" Value="E5" Duration="4" Instrument="DMC: drums + bass"
				Note Time="12" Value="E5" Duration="4" Instrument="DMC: drums + bass"
				Note Time="16" Value="E5" Duration="4" Instrument="DMC: drums + bass"
				Note Time="20" Value="E5" Duration="4" Instrument="DMC: drums + bass"
				Note Time="24" Value="E5" Duration="4" Instrument="DMC: drums + bass"
			Pattern Name="01" Color="ffdc3c"
				Note Time="0" Value="E5" Duration="3" Instrument="DMC: drums + bass"
				Note Time="3" Value="G#4" Duration="1" Instrument="DMC: drums + bass"
				Note Time="4" Value="F5" Duration="2" Instrument="DMC: drums + bass"
				Note Time="6" Value="G#4" Duration="2" Instrument="DMC: drums + bass"
				Note Time="8" Value="E5" Duration="3" Instrument="DMC: drums + bass"
				Note Time="11" Value="B4" Duration="1" Instrument="DMC: drums + bass"
				Note Time="12" Value="F5" Duration="2" Instrument="DMC: drums + bass"
				Note Time="14" Value="B4" Duration="2" Instrument="DMC: drums + bass"
				Note Time="16" Value="E5" Duration="3" Instrument="DMC: drums + bass"
				Note Time="19" Value="E4" Duration="1" Instrument="DMC: drums + bass"
				Note Time="20" Value="F5" Duration="2" Instrument="DMC: drums + bass"
				Note Time="22" Value="E4" Duration="2" Instrument="DMC: drums + bass"
				Note Time="24" Value="E5" Duration="3" Instrument="DMC: drums + bass"
				Note Time="27" Value="F#4" Duration="1" Instrument="DMC: drums + bass"
				Note Time="28" Value="F5" Duration="2" Instrument="DMC: drums + bass"
				Note Time="30" Value="F#4" Duration="2" Instrument="DMC: drums + bass"
			Pattern Name="02" Color="6ab96e"
				Note Time="2" Value="G#3" Duration="2" Instrument="DMC: drums + bass"
				Note Time="4" Value="F5" Duration="1" Instrument="DMC: drums + bass"
				Note Time="5" Value="G#3" Duration="3" Instrument="DMC: drums + bass"
				Note Time="8" Value="G#3" Duration="4" Instrument="DMC: drums + bass"
				Note Time="12" Value="F5" Duration="6" Instrument="DMC: drums + bass"
				Note Time="18" Value="E3" Duration="2" Instrument="DMC: drums + bass"
				Note Time="20" Value="F5" Duration="1" Instrument="DMC: drums + bass"
				Note Time="21" Value="E3" Duration="3" Instrument="DMC: drums + bass"
				Note Time="24" Value="F#3" Duration="4" Instrument="DMC: drums + bass"
				Note Time="28" Value="F5" Duration="4" Instrument="DMC: drums + bass"
			Pattern Name="03" Color="a0f1ff"
				Note Time="2" Value="G#3" Duration="2" Instrument="DMC: drums + bass"
				Note Time="4" Value="F5" Duration="1" Instrument="DMC: drums + bass"
				Note Time="5" Value="G#3" Duration="3" Instrument="DMC: drums + bass"
				Note Time="8" Value="B3" Duration="4" Instrument="DMC: drums + bass"
				Note Time="12" Value="F5" Duration="6" Instrument="DMC: drums + bass"
				Note Time="18" Value="E3" Duration="2" Instrument="DMC: drums + bass"
				Note Time="20" Value="F5" Duration="1" Instrument="DMC: drums + bass"
				Note Time="21" Value="E3" Duration="3" Instrument="DMC: drums + bass"
				Note Time="24" Value="F#3" Duration="4" Instrument="DMC: drums + bass"
				Note Time="28" Value="F5" Duration="4" Instrument="DMC: drums + bass"
			Pattern Name="04" Color="ff7cb6"
				Note Time="0" Value="E5" Duration="2" Instrument="DMC: drums + bass"
				Note Time="2" Value="G#3" Duration="1" Instrument="DMC: drums + bass"
				Note Time="3" Value="E5" Duration="1" Instrument="DMC: drums + bass"
				Note Time="4" Value="F5" Duration="1" Instrument="DMC: drums + bass"
				Note Time="5" Value="G#3" Duration="1" Instrument="DMC: drums + bass"
				Note Time="6" Value="E5" Duration="2" Instrument="DMC: drums + bass"
				Note Time="8" Value="G#3" Duration="3" Instrument="DMC: drums + bass"
				Note Time="11" Value="E5" Duration="1" Instrument="DMC: drums + bass"
				Note Time="12" Value="F5" Duration="2" Instrument="DMC: drums + bass"
				Note Time="14" Value="E5" Duration="2" Instrument="DMC: drums + bass"
				Note Time="16" Value="E5" Duration="2" Instrument="DMC: drums + bass"
				Note Time="18" Value="E3" Duration="1" Instrument="DMC: drums + bass"
				Note Time="19" Value="E5" Duration="1" Instrument="DMC: drums + bass"
				Note Time="20" Value="F5" Duration="1" Instrument="DMC: drums + bass"
				Note Time="21" Value="E3" Duration="1" Instrument="DMC: drums + bass"
				Note Time="22" Value="E5" Duration="2" Instrument="DMC: drums + bass"
				Note Time="24" Value="F#3" Duration="4" Instrument="DMC: drums + bass"
				Note Time="28" Value="F5" Duration="4" Instrument="DMC: drums + bass"
			Pattern Name="05" Color="ffe362"
				Note Time="0" Value="E5" Duration="2" Instrument="DMC: drums + bass"
				Note Time="2" Value="G#3" Duration="1" Instrument="DMC: drums + bass"
				Note Time="3" Value="E5" Duration="1" Instrument="DMC: drums + bass"
				Note Time="4" Value="F5" Duration="1" Instrument="DMC: drums + bass"
				Note Time="5" Value="G#3" Duration="1" Instrument="DMC: drums + bass"
				Note Time="6" Value="E5" Duration="2" Instrument="DMC: drums + bass"
				Note Time="8" Value="B3" Duration="4" Instrument="DMC: drums + bass"
				Note Time="12" Value="F5" Duration="2" Instrument="DMC: drums + bass"
				Note Time="14" Value="E3" Duration="1" Instrument="DMC: drums + bass"
				Note Time="15" Value="E5" Duration="1" Instrument="DMC: drums + bass"
				Note Time="16" Value="E5" Duration="2" Instrument="DMC: drums + bass"
				Note Time="18" Value="E3" Duration="1" Instrument="DMC: drums + bass"
				Note Time="19" Value="E5" Duration="3" Instrument="DMC: drums + bass"
				Note Time="22" Value="E5" Duration="2" Instrument="DMC: drums + bass"
				Note Time="24" Value="F#3" Duration="2" Instrument="DMC: drums + bass"
				Note Time="26" Value="E5" Duration="1" Instrument="DMC: drums + bass"
				Note Time="27" Value="E5" Duration="1" Instrument="DMC: drums + bass"
				Note Time="28" Value="E5" Duration="2" Instrument="DMC: drums + bass"
				Note Time="30" Value="E5" Duration="2" Instrument="DMC: drums + bass"
			Pattern Name="06" Color="c7ff86"
				Note Time="0" Value="E5" Duration="2" Instrument="DMC: drums + bass"
				Note Time="2" Value="E5" Duration="4" Instrument="DMC: drums + bass"
				Note Time="6" Value="E5" Duration="2" Instrument="DMC: drums + bass"
				Note Time="8" Value="E5" Duration="2" Instrument="DMC: drums + bass"
				Note Time="10" Value="E5" Duration="4" Instrument="DMC: drums + bass"
				Note Time="14" Value="E5" Duration="2" Instrument="DMC: drums + bass"
				Note Time="16" Value="E5" Duration="3" Instrument="DMC: drums + bass"
				Note Time="19" Value="E5" Duration="3" Instrument="DMC: drums + bass"
				Note Time="22" Value="E5" Duration="2" Instrument="DMC: drums + bass"
				Note Time="24" Value="E5" Duration="2" Instrument="DMC: drums + bass"
				Note Time="26" Value="E5" Duration="4" Instrument="DMC: drums + bass"
				Note Time="30" Value="E5" Duration="2" Instrument="DMC: drums + bass"
			Pattern Name="07" Color="3fd7ff"
				Note Time="0" Value="E5" Duration="3" Instrument="DMC: drums + bass"
				Note Time="3" Value="E5" Duration="3" Instrument="DMC: drums + bass"
				Note Time="6" Value="E5" Duration="2" Instrument="DMC: drums + bass"
				Note Time="8" Value="E5" Duration="3" Instrument="DMC: drums + bass"
				Note Time="11" Value="E5" Duration="5" Instrument="DMC: drums + bass"
				Note Time="16" Value="E5" Duration="2" Instrument="DMC: drums + bass"
				Note Time="18" Value="E5" Duration="2" Instrument="DMC: drums + bass"
				Note Time="20" Value="E5" Duration="2" Instrument="DMC: drums + bass"
				Note Time="22" Value="G#3" Duration="2" Instrument="DMC: orchestra hits"
				Note Time="24" Value="B3" Duration="3" Instrument="DMC: orchestra hits"
				Note Time="27" Value="E5" Duration="1" Instrument="DMC: drums + bass"
				Note Time="28" Value="F#3" Duration="36" Instrument="DMC: orchestra hits"
			Pattern Name="08" Color="b75bde"
				Note Time="0" Value="G#4" Duration="2" Instrument="DMC: orchestra hits"
				Note Time="2" Value="G#3" Duration="1" Instrument="DMC: drums + bass"
				Note Time="3" Value="E5" Duration="1" Instrument="DMC: drums + bass"
				Note Time="4" Value="F5" Duration="2" Instrument="DMC: drums + bass"
				Note Time="6" Value="E5" Duration="2" Instrument="DMC: drums + bass"
				Note Time="8" Value="E5" Duration="2" Instrument="DMC: drums + bass"
				Note Time="10" Value="G#3" Duration="2" Instrument="DMC: drums + bass"
				Note Time="12" Value="F5" Duration="2" Instrument="DMC: drums + bass"
				Note Time="14" Value="E5" Duration="2" Instrument="DMC: drums + bass"
				Note Time="16" Value="E5" Duration="2" Instrument="DMC: drums + bass"
				Note Time="18" Value="G#3" Duration="1" Instrument="DMC: drums + bass"
				Note Time="19" Value="E5" Duration="1" Instrument="DMC: drums + bass"
				Note Time="20" Value="F5" Duration="2" Instrument="DMC: drums + bass"
				Note Time="22" Value="E5" Duration="2" Instrument="DMC: drums + bass"
				Note Time="24" Value="E5" Duration="2" Instrument="DMC: drums + bass"
				Note Time="26" Value="G#3" Duration="1" Instrument="DMC: drums + bass"
				Note Time="27" Value="E5" Duration="1" Instrument="DMC: drums + bass"
				Note Time="28" Value="F5" Duration="2" Instrument="DMC: drums + bass"
				Note Time="30" Value="E5" Duration="2" Instrument="DMC: drums + bass"
			Pattern Name="09" Color="ff8655"
				Note Time="0" Value="B3" Duration="2" Instrument="DMC: orchestra hits"
				Note Time="2" Value="B3" Duration="1" Instrument="DMC: drums + bass"
				Note Time="3" Value="E5" Duration="1" Instrument="DMC: drums + bass"
				Note Time="4" Value="F5" Duration="2" Instrument="DMC: drums + bass"
				Note Time="6" Value="E5" Duration="2" Instrument="DMC: drums + bass"
				Note Time="8" Value="E5" Duration="2" Instrument="DMC: drums + bass"
				Note Time="10" Value="B3" Duration="2" Instrument="DMC: drums + bass"
				Note Time="12" Value="F5" Duration="2" Instrument="DMC: drums + bass"
				Note Time="14" Value="E5" Duration="2" Instrument="DMC: drums + bass"
				Note Time="16" Value="E5" Duration="2" Instrument="DMC: drums + bass"
				Note Time="18" Value="C#4" Duration="1" Instrument="DMC: drums + bass"
				Note Time="19" Value="E5" Duration="1" Instrument="DMC: drums + bass"
				Note Time="20" Value="F5" Duration="2" Instrument="DMC: drums + bass"
				Note Time="22" Value="E5" Duration="2" Instrument="DMC: drums + bass"
				Note Time="24" Value="E5" Duration="2" Instrument="DMC: drums + bass"
				Note Time="26" Value="C#4" Duration="1" Instrument="DMC: drums + bass"
				Note Time="27" Value="E5" Duration="1" Instrument="DMC: drums + bass"
				Note Time="28" Value="F5" Duration="2" Instrument="DMC: drums + bass"
				Note Time="30" Value="E5" Duration="2" Instrument="DMC: drums + bass"
			Pattern Name="0A" Color="dad960"
				Note Time="0" Value="E5" Duration="2" Instrument="DMC: drums + bass"
				Note Time="2" Value="G#3" Duration="1" Instrument="DMC: drums + bass"
				Note Time="3" Value="E5" Duration="1" Instrument="DMC: drums + bass"
				Note Time="4" Value="F5" Duration="2" Instrument="DMC: drums + bass"
				Note Time="6" Value="E5" Duration="2" Instrument="DMC: drums + bass"
				Note Time="8" Value="E5" Duration="2" Instrument="DMC: drums + bass"
				Note Time="10" Value="G#3" Duration="2" Instrument="DMC: drums + bass"
				Note Time="12" Value="F5" Duration="2" Instrument="DMC: drums + bass"
				Note Time="14" Value="E5" Duration="2" Instrument="DMC: drums + bass"
				Note Time="16" Value="E5" Duration="2" Instrument="DMC: drums + bass"
				Note Time="18" Value="G#3" Duration="1" Instrument="DMC: drums + bass"
				Note Time="19" Value="E5" Duration="1" Instrument="DMC: drums + bass"
				Note Time="20" Value="F5" Duration="2" Instrument="DMC: drums + bass"
				Note Time="22" Value="E5" Duration="2" Instrument="DMC: drums + bass"
				Note Time="24" Value="E5" Duration="2" Instrument="DMC: drums + bass"
				Note Time="26" Value="G#3" Duration="1" Instrument="DMC: drums + bass"
				Note Time="27" Value="E5" Duration="1" Instrument="DMC: drums + bass"
				Note Time="28" Value="F#3" Duration="2" Instrument="DMC: drums + bass"
				Note Time="30" Value="E5" Duration="2" Instrument="DMC: drums + bass"
			Pattern Name="0B" Color="89ffff"
				Note Time="0" Value="E5" Duration="2" Instrument="DMC: drums + bass"
				Note Time="2" Value="E5" Duration="2" Instrument="DMC: drums + bass"
				Note Time="4" Value="F5" Duration="2" Instrument="DMC: drums + bass"
				Note Time="6" Value="E5" Duration="2" Instrument="DMC: drums + bass"
				Note Time="8" Value="E5" Duration="2" Instrument="DMC: drums + bass"
				Note Time="10" Value="E5" Duration="2" Instrument="DMC: drums + bass"
				Note Time="12" Value="F5" Duration="2" Instrument="DMC: drums + bass"
				Note Time="14" Value="E5" Duration="2" Instrument="DMC: drums + bass"
				Note Time="16" Value="G#3" Duration="4" Instrument="DMC: orchestra hits"
				Note Time="20" Value="G#3" Duration="2" Instrument="DMC: orchestra hits"
				Note Time="22" Value="E5" Duration="1" Instrument="DMC: drums + bass"
				Note Time="23" Value="E5" Duration="1" Instrument="DMC: drums + bass"
				Note Time="24" Value="B3" Duration="2" Instrument="DMC: orchestra hits"
				Note Time="26" Value="E5" Duration="1" Instrument="DMC: drums + bass"
				Note Time="27" Value="E5" Duration="1" Instrument="DMC: drums + bass"
				Note Time="28" Value="F#3" Duration="2" Instrument="DMC: orchestra hits"
				Note Time="30" Value="E5" Duration="2" Instrument="DMC: drums + bass"
			Pattern Name="0D" Color="ba93fe"
				Note Time="0" Value="E5" Duration="2" Instrument="DMC: drums + bass"
				Note Time="2" Value="G#3" Duration="1" Instrument="DMC: drums + bass"
				Note Time="3" Value="E5" Duration="1" Instrument="DMC: drums + bass"
				Note Time="4" Value="F5" Duration="2" Instrument="DMC: drums + bass"
				Note Time="6" Value="E5" Duration="2" Instrument="DMC: drums + bass"
				Note Time="8" Value="E5" Duration="2" Instrument="DMC: drums + bass"
				Note Time="10" Value="G#3" Duration="2" Instrument="DMC: drums + bass"
				Note Time="12" Value="F5" Duration="2" Instrument="DMC: drums + bass"
				Note Time="14" Value="E5" Duration="2" Instrument="DMC: drums + bass"
				Note Time="16" Value="E5" Duration="2" Instrument="DMC: drums + bass"
				Note Time="18" Value="F5" Duration="1" Instrument="DMC: drums + bass"
				Note Time="19" Value="E5" Duration="2" Instrument="DMC: drums + bass"
				Note Time="21" Value="F5" Duration="1" Instrument="DMC: drums + bass"
				Note Time="22" Value="E5" Duration="2" Instrument="DMC: drums + bass"
				Note Time="24" Value="F5" Duration="1" Instrument="DMC: drums + bass"
				Note Time="25" Value="E5" Duration="2" Instrument="DMC: drums + bass"
				Note Time="27" Value="F5" Duration="1" Instrument="DMC: drums + bass"
				Note Time="28" Value="E5" Duration="2" Instrument="DMC: drums + bass"
				Note Time="30" Value="E5" Duration="2" Instrument="DMC: drums + bass"
			Pattern Name="0C" Color="c9aa9f"
				Note Time="0" Value="E5" Duration="1" Instrument="DMC: drums + bass"
				Note Time="1" Value="E5" Duration="1" Instrument="DMC: drums + bass"
				Note Time="2" Value="E5" Duration="1" Instrument="DMC: drums + bass"
				Note Time="3" Value="E5" Duration="1" Instrument="DMC: drums + bass"
				Note Time="4" Value="F5" Duration="2" Instrument="DMC: drums + bass"
				Note Time="6" Value="E5" Duration="2" Instrument="DMC: drums + bass"
				Note Time="8" Value="E5" Duration="2" Instrument="DMC: drums + bass"
				Note Time="10" Value="G#3" Duration="2" Instrument="DMC: drums + bass"
				Note Time="12" Value="F5" Duration="2" Instrument="DMC: drums + bass"
				Note Time="14" Value="E5" Duration="2" Instrument="DMC: drums + bass"
				Note Time="16" Value="E5" Duration="2" Instrument="DMC: drums + bass"
				Note Time="18" Value="G#3" Duration="1" Instrument="DMC: drums + bass"
				Note Time="19" Value="E5" Duration="1" Instrument="DMC: drums + bass"
				Note Time="20" Value="F5" Duration="2" Instrument="DMC: drums + bass"
				Note Time="22" Value="E5" Duration="2" Instrument="DMC: drums + bass"
				Note Time="24" Value="E5" Duration="2" Instrument="DMC: drums + bass"
				Note Time="26" Value="G#3" Duration="1" Instrument="DMC: drums + bass"
				Note Time="27" Value="E5" Duration="1" Instrument="DMC: drums + bass"
				Note Time="28" Value="F5" Duration="2" Instrument="DMC: drums + bass"
				Note Time="30" Value="E5" Duration="2" Instrument="DMC: drums + bass"
			Pattern Name="0F" Color="ffff77"
				Note Time="0" Value="G#4" Duration="2" Instrument="DMC: orchestra hits"
				Note Time="2" Value="G#3" Duration="1" Instrument="DMC: drums + bass"
				Note Time="3" Value="E5" Duration="1" Instrument="DMC: drums + bass"
				Note Time="4" Value="F5" Duration="2" Instrument="DMC: drums + bass"
				Note Time="6" Value="E5" Duration="2" Instrument="DMC: drums + bass"
				Note Time="8" Value="E5" Duration="2" Instrument="DMC: drums + bass"
				Note Time="10" Value="G#3" Duration="2" Instrument="DMC: drums + bass"
				Note Time="12" Value="F5" Duration="2" Instrument="DMC: drums + bass"
				Note Time="14" Value="E5" Duration="2" Instrument="DMC: drums + bass"
				Note Time="16" Value="G#4" Duration="2" Instrument="DMC: orchestra hits"
				Note Time="18" Value="G#3" Duration="1" Instrument="DMC: drums + bass"
				Note Time="19" Value="E5" Duration="1" Instrument="DMC: drums + bass"
				Note Time="20" Value="G#4" Duration="2" Instrument="DMC: orchestra hits"
				Note Time="22" Value="E5" Duration="2" Instrument="DMC: drums + bass"
				Note Time="24" Value="G#4" Duration="2" Instrument="DMC: orchestra hits"
				Note Time="26" Value="G#3" Duration="1" Instrument="DMC: drums + bass"
				Note Time="27" Value="E5" Duration="1" Instrument="DMC: drums + bass"
				Note Time="28" Value="G#4" Duration="2" Instrument="DMC: orchestra hits"
				Note Time="30" Value="E5" Duration="2" Instrument="DMC: drums + bass"
			PatternInstance Time="0" Pattern="00"
			PatternInstance Time="1" Pattern="00"
			PatternInstance Time="2" Pattern="01"
			PatternInstance Time="3" Pattern="01"
			PatternInstance Time="4" Pattern="01"
			PatternInstance Time="5" Pattern="01"
			PatternInstance Time="6" Pattern="02"
			PatternInstance Time="7" Pattern="03"
			PatternInstance Time="8" Pattern="04"
			PatternInstance Time="9" Pattern="05"
			PatternInstance Time="10" Pattern="06"
			PatternInstance Time="11" Pattern="07"
			PatternInstance Time="12" Pattern="08"
			PatternInstance Time="13" Pattern="08"
			PatternInstance Time="14" Pattern="09"
			PatternInstance Time="15" Pattern="08"
			PatternInstance Time="16" Pattern="0A"
			PatternInstance Time="17" Pattern="0A"
			PatternInstance Time="18" Pattern="09"
			PatternInstance Time="19" Pattern="0B"
			PatternInstance Time="20" Pattern="08"
			PatternInstance Time="21" Pattern="08"
			PatternInstance Time="22" Pattern="09"
			PatternInstance Time="23" Pattern="0D"
			PatternInstance Time="24" Pattern="0C"
			PatternInstance Time="25" Pattern="08"
			PatternInstance Time="26" Pattern="09"
			PatternInstance Time="27" Pattern="0F"
			PatternInstance Time="28" Pattern="06"
			PatternInstance Time="29" Pattern="07"
	Song Name="gnite" Color="3ce8fd" Folder="Unused" Length="1" LoopPoint="0" PatternLength="48" BeatLength="4" FamiTrackerTempo="144" FamiTrackerSpeed="16"
		Channel Type="Square1"
			Pattern Name="00" Color="ffff71"
				Note Time="0" Value="B3" Duration="5" Instrument="jaezu lead" Volume="10" DutyCycle="1"
				Note Time="5" Value="D4" Duration="1" Instrument="jaezu lead"
				Note Time="6" Value="F#4" Duration="4" Instrument="jaezu lead"
				Note Time="10" Value="E4" Duration="1" Instrument="jaezu lead"
				Note Time="11" Value="F#4" Duration="1" Instrument="jaezu lead"
				Note Time="12" Value="G4" Duration="4" Instrument="jaezu lead"
				Note Time="16" Value="E4" Duration="1" Instrument="jaezu lead"
				Note Time="17" Value="F#4" Duration="1" Instrument="jaezu lead"
				Note Time="18" Value="D4" Duration="3" Instrument="jaezu lead"
				Note Time="21" Value="G3" Duration="3" Instrument="jaezu lead"
				Note Time="24" Value="B3" Duration="5" Instrument="jaezu lead"
				Note Time="29" Value="C#4" Duration="1" Instrument="jaezu lead"
				Note Time="30" Value="G4" Duration="4" Instrument="jaezu lead"
				Note Time="34" Value="G4" Duration="1" Instrument="jaezu lead"
				Note Time="35" Value="A4" Duration="1" Instrument="jaezu lead"
				Note Time="36" Value="G4" Duration="12" Release="10" Instrument="jaezu lead"
			PatternInstance Time="0" Pattern="00"
		Channel Type="Square2"
			Pattern Name="00" Color="3cb5a7"
				Note Time="0" Value="E2" Duration="1" Instrument="echo" DutyCycle="2"
				Note Time="1" Value="B2" Duration="1" Instrument="echo"
				Note Time="2" Value="F#3" Duration="1" Instrument="echo"
				Note Time="3" Value="G3" Duration="1" Instrument="echo"
				Note Time="4" Value="B3" Duration="1" Instrument="echo"
				Note Time="5" Value="D4" Duration="1" Instrument="echo"
				Note Time="6" Value="A1" Duration="1" Instrument="echo"
				Note Time="7" Value="G2" Duration="1" Instrument="echo"
				Note Time="8" Value="B2" Duration="1" Instrument="echo"
				Note Time="9" Value="C#3" Duration="1" Instrument="echo"
				Note Time="10" Value="G3" Duration="1" Instrument="echo"
				Note Time="11" Value="B3" Duration="1" Instrument="echo"
				Note Time="12" Value="D2" Duration="1" Instrument="echo"
				Note Time="13" Value="A2" Duration="1" Instrument="echo"
				Note Time="14" Value="E3" Duration="1" Instrument="echo"
				Note Time="15" Value="C2" Duration="1" Instrument="echo"
				Note Time="16" Value="A2" Duration="1" Instrument="echo"
				Note Time="17" Value="E3" Duration="1" Instrument="echo"
				Note Time="18" Value="B1" Duration="1" Instrument="echo"
				Note Time="19" Value="F#2" Duration="1" Instrument="echo"
				Note Time="20" Value="D3" Duration="1" Instrument="echo"
				Note Time="21" Value="E2" Duration="1" Instrument="echo"
				Note Time="22" Value="B2" Duration="1" Instrument="echo"
				Note Time="23" Value="E3" Duration="1" Instrument="echo"
				Note Time="24" Value="A1" Duration="1" Instrument="echo"
				Note Time="25" Value="G2" Duration="1" Instrument="echo"
				Note Time="26" Value="B2" Duration="1" Instrument="echo"
				Note Time="27" Value="C#3" Duration="1" Instrument="echo"
				Note Time="28" Value="G3" Duration="1" Instrument="echo"
				Note Time="29" Value="B3" Duration="1" Instrument="echo"
				Note Time="30" Value="D2" Duration="1" Instrument="echo"
				Note Time="31" Value="A2" Duration="1" Instrument="echo"
				Note Time="32" Value="E3" Duration="1" Instrument="echo"
				Note Time="33" Value="G3" Duration="1" Instrument="echo"
				Note Time="34" Value="C4" Duration="1" Instrument="echo"
				Note Time="35" Value="E4" Duration="1" Instrument="echo"
				Note Time="36" Value="C2" Duration="1" Instrument="echo"
				Note Time="37" Value="G2" Duration="1" Instrument="echo"
				Note Time="38" Value="E3" Duration="1" Instrument="echo"
				Note Time="39" Value="B1" Duration="1" Instrument="echo"
				Note Time="40" Value="G2" Duration="1" Instrument="echo"
				Note Time="41" Value="D3" Duration="1" Instrument="echo"
				Note Time="42" Value="A1" Duration="1" Instrument="echo"
				Note Time="43" Value="G2" Duration="1" Instrument="echo"
				Note Time="44" Value="C3" Duration="1" Instrument="echo"
				Note Time="45" Value="D2" Duration="1" Instrument="echo"
				Note Time="46" Value="A2" Duration="1" Instrument="echo"
				Note Time="47" Value="D3" Duration="1" Instrument="echo"
			PatternInstance Time="0" Pattern="00"
		Channel Type="Triangle"
			Pattern Name="00" Color="6471cf"
				Note Time="0" Value="E3" Duration="6" Instrument="DMC: drums + bass"
				Note Time="6" Value="A2" Duration="6" Instrument="DMC: drums + bass"
				Note Time="12" Value="D3" Duration="3" Instrument="DMC: drums + bass"
				Note Time="15" Value="C3" Duration="3" Instrument="DMC: drums + bass"
				Note Time="18" Value="B2" Duration="3" Instrument="DMC: drums + bass"
				Note Time="21" Value="E3" Duration="3" Instrument="DMC: drums + bass"
				Note Time="24" Value="A2" Duration="6" Instrument="DMC: drums + bass"
				Note Time="30" Value="D3" Duration="6" Instrument="DMC: drums + bass"
				Note Time="36" Value="C3" Duration="3" Instrument="DMC: drums + bass"
				Note Time="39" Value="B2" Duration="3" Instrument="DMC: drums + bass"
				Note Time="42" Value="A2" Duration="3" Instrument="DMC: drums + bass"
				Note Time="45" Value="D3" Duration="3" Instrument="DMC: drums + bass"
			PatternInstance Time="0" Pattern="00"
		Channel Type="Noise"
		Channel Type="DPCM"
	Song Name="Menu Theme (2.2)" Color="3ec4ff" Folder="Shitposts" Length="4" LoopPoint="0" PatternLength="64" BeatLength="4" FamiTrackerTempo="129" FamiTrackerSpeed="6"
		Channel Type="Square1"
			Pattern Name="01" Color="ffc6a1"
				Note Time="3" Value="C5" Duration="16" Instrument="echo"
				Note Time="19" Value="C5" Duration="16" Instrument="echo"
				Note Time="35" Value="C5" Duration="16" Instrument="echo"
				Note Time="51" Value="C5" Duration="16" Instrument="echo"
			Pattern Name="02" Color="ffff93"
				Note Time="3" Value="C5" Duration="16" Instrument="echo"
				Note Time="19" Value="C5" Duration="16" Instrument="echo"
				Note Time="35" Value="C5" Duration="29" Instrument="echo"
			PatternInstance Time="0" Pattern="01"
			PatternInstance Time="1" Pattern="01"
			PatternInstance Time="2" Pattern="01"
			PatternInstance Time="3" Pattern="02"
		Channel Type="Square2"
			Pattern Name="01" Color="3cf8ff"
				Note Time="0" Value="C2" Duration="16" Instrument="octave arp"
				Note Time="16" Value="A#1" Duration="16" Instrument="octave arp"
				Note Time="32" Value="A1" Duration="16" Instrument="octave arp"
				Note Time="48" Value="G#1" Duration="7" Instrument="octave arp"
				Note Time="55" Value="A#1" Duration="9" Instrument="octave arp"
			PatternInstance Time="0" Pattern="01"
			PatternInstance Time="1" Pattern="01"
			PatternInstance Time="2" Pattern="01"
			PatternInstance Time="3" Pattern="01"
		Channel Type="Triangle"
			Pattern Name="01" Color="9a71ed"
				Note Time="0" Value="C4" Duration="1" Instrument="triangle pluck 4"
				Note Time="1" Value="C4" Duration="1" Instrument="triangle pluck 4"
				Note Time="2" Value="C5" Duration="1" Instrument="triangle pluck 4"
				Note Time="3" Value="C5" Duration="1" Instrument="triangle pluck"
				Note Time="4" Value="G4" Duration="1" Instrument="triangle pluck 4"
				Note Time="5" Value="G4" Duration="2" Instrument="triangle pluck"
				Note Time="7" Value="F#4" Duration="1" Instrument="triangle pluck 4"
				Note Time="8" Value="F#4" Duration="1" Instrument="triangle pluck"
				Note Time="9" Value="F4" Duration="1" Instrument="triangle pluck 4"
				Note Time="10" Value="F4" Duration="1" Instrument="triangle pluck"
				Note Time="11" Value="D#4" Duration="1" Instrument="triangle pluck 4"
				Note Time="12" Value="D#4" Duration="1" Instrument="triangle pluck"
				Note Time="13" Value="C4" Duration="1" Instrument="triangle pluck 4"
				Note Time="14" Value="D#4" Duration="1" Instrument="triangle pluck 4"
				Note Time="15" Value="F4" Duration="1" Instrument="triangle pluck 4"
				Note Time="16" Value="A#3" Duration="1" Instrument="triangle pluck 4"
				Note Time="17" Value="A#3" Duration="1" Instrument="triangle pluck 4"
				Note Time="18" Value="C5" Duration="1" Instrument="triangle pluck 4"
				Note Time="19" Value="C5" Duration="1" Instrument="triangle pluck"
				Note Time="20" Value="G4" Duration="1" Instrument="triangle pluck 4"
				Note Time="21" Value="G4" Duration="2" Instrument="triangle pluck"
				Note Time="23" Value="F#4" Duration="1" Instrument="triangle pluck 4"
				Note Time="24" Value="F#4" Duration="1" Instrument="triangle pluck"
				Note Time="25" Value="F4" Duration="1" Instrument="triangle pluck 4"
				Note Time="26" Value="F4" Duration="1" Instrument="triangle pluck"
				Note Time="27" Value="D#4" Duration="1" Instrument="triangle pluck 4"
				Note Time="28" Value="D#4" Duration="1" Instrument="triangle pluck"
				Note Time="29" Value="C4" Duration="1" Instrument="triangle pluck 4"
				Note Time="30" Value="D#4" Duration="1" Instrument="triangle pluck 4"
				Note Time="31" Value="F4" Duration="1" Instrument="triangle pluck 4"
				Note Time="32" Value="A3" Duration="1" Instrument="triangle pluck 4"
				Note Time="33" Value="A3" Duration="1" Instrument="triangle pluck 4"
				Note Time="34" Value="C5" Duration="1" Instrument="triangle pluck 4"
				Note Time="35" Value="C5" Duration="1" Instrument="triangle pluck"
				Note Time="36" Value="G4" Duration="1" Instrument="triangle pluck 4"
				Note Time="37" Value="G4" Duration="2" Instrument="triangle pluck"
				Note Time="39" Value="F#4" Duration="1" Instrument="triangle pluck 4"
				Note Time="40" Value="F#4" Duration="1" Instrument="triangle pluck"
				Note Time="41" Value="F4" Duration="1" Instrument="triangle pluck 4"
				Note Time="42" Value="F4" Duration="1" Instrument="triangle pluck"
				Note Time="43" Value="D#4" Duration="1" Instrument="triangle pluck 4"
				Note Time="44" Value="D#4" Duration="1" Instrument="triangle pluck"
				Note Time="45" Value="C4" Duration="1" Instrument="triangle pluck 4"
				Note Time="46" Value="D#4" Duration="1" Instrument="triangle pluck 4"
				Note Time="47" Value="F4" Duration="1" Instrument="triangle pluck 4"
				Note Time="48" Value="G#3" Duration="1" Instrument="triangle pluck 4"
				Note Time="49" Value="G#3" Duration="1" Instrument="triangle pluck 4"
				Note Time="50" Value="C5" Duration="1" Instrument="triangle pluck 4"
				Note Time="51" Value="C5" Duration="1" Instrument="triangle pluck"
				Note Time="52" Value="G4" Duration="1" Instrument="triangle pluck 4"
				Note Time="53" Value="G4" Duration="2" Instrument="triangle pluck"
				Note Time="55" Value="F#4" Duration="1" Instrument="triangle pluck 4"
				Note Time="56" Value="F#4" Duration="1" Instrument="triangle pluck"
				Note Time="57" Value="F4" Duration="1" Instrument="triangle pluck 4"
				Note Time="58" Value="F4" Duration="1" Instrument="triangle pluck"
				Note Time="59" Value="D#4" Duration="1" Instrument="triangle pluck 4"
				Note Time="60" Value="D#4" Duration="1" Instrument="triangle pluck"
				Note Time="61" Value="C4" Duration="1" Instrument="triangle pluck 4"
				Note Time="62" Value="D#4" Duration="1" Instrument="triangle pluck 4"
				Note Time="63" Value="F4" Duration="1" Instrument="triangle pluck 4"
			Pattern Name="02" Color="a9887d"
				Note Time="0" Value="C4" Duration="1" Instrument="triangle pluck 4"
				Note Time="1" Value="C4" Duration="1" Instrument="triangle pluck 4"
				Note Time="2" Value="C5" Duration="1" Instrument="triangle pluck 4"
				Note Time="3" Value="C5" Duration="1" Instrument="triangle pluck"
				Note Time="4" Value="G4" Duration="1" Instrument="triangle pluck 4"
				Note Time="5" Value="G4" Duration="2" Instrument="triangle pluck"
				Note Time="7" Value="F#4" Duration="1" Instrument="triangle pluck 4"
				Note Time="8" Value="F#4" Duration="1" Instrument="triangle pluck"
				Note Time="9" Value="F4" Duration="1" Instrument="triangle pluck 4"
				Note Time="10" Value="F4" Duration="1" Instrument="triangle pluck"
				Note Time="11" Value="D#4" Duration="1" Instrument="triangle pluck 4"
				Note Time="12" Value="D#4" Duration="1" Instrument="triangle pluck"
				Note Time="13" Value="C4" Duration="1" Instrument="triangle pluck 4"
				Note Time="14" Value="D#4" Duration="1" Instrument="triangle pluck 4"
				Note Time="15" Value="F4" Duration="1" Instrument="triangle pluck 4"
				Note Time="16" Value="A#3" Duration="1" Instrument="triangle pluck 4"
				Note Time="17" Value="A#3" Duration="1" Instrument="triangle pluck 4"
				Note Time="18" Value="C5" Duration="1" Instrument="triangle pluck 4"
				Note Time="19" Value="C5" Duration="1" Instrument="triangle pluck"
				Note Time="20" Value="G4" Duration="1" Instrument="triangle pluck 4"
				Note Time="21" Value="G4" Duration="2" Instrument="triangle pluck"
				Note Time="23" Value="F#4" Duration="1" Instrument="triangle pluck 4"
				Note Time="24" Value="F#4" Duration="1" Instrument="triangle pluck"
				Note Time="25" Value="F4" Duration="1" Instrument="triangle pluck 4"
				Note Time="26" Value="F4" Duration="1" Instrument="triangle pluck"
				Note Time="27" Value="D#4" Duration="1" Instrument="triangle pluck 4"
				Note Time="28" Value="D#4" Duration="1" Instrument="triangle pluck"
				Note Time="29" Value="C4" Duration="1" Instrument="triangle pluck 4"
				Note Time="30" Value="D#4" Duration="1" Instrument="triangle pluck 4"
				Note Time="31" Value="F4" Duration="1" Instrument="triangle pluck 4"
				Note Time="32" Value="A3" Duration="1" Instrument="triangle pluck 4"
				Note Time="33" Value="A3" Duration="1" Instrument="triangle pluck 4"
				Note Time="34" Value="C5" Duration="1" Instrument="triangle pluck 4"
				Note Time="35" Value="C5" Duration="1" Instrument="triangle pluck"
				Note Time="36" Value="G4" Duration="1" Instrument="triangle pluck 4"
				Note Time="37" Value="G4" Duration="2" Instrument="triangle pluck"
				Note Time="39" Value="F#4" Duration="1" Instrument="triangle pluck 4"
				Note Time="40" Value="F#4" Duration="1" Instrument="triangle pluck"
				Note Time="41" Value="F4" Duration="1" Instrument="triangle pluck 4"
				Note Time="42" Value="F4" Duration="1" Instrument="triangle pluck"
				Note Time="43" Value="D#4" Duration="1" Instrument="triangle pluck 4"
				Note Time="44" Value="D#4" Duration="1" Instrument="triangle pluck"
				Note Time="45" Value="C4" Duration="1" Instrument="triangle pluck 4"
				Note Time="46" Value="D#4" Duration="1" Instrument="triangle pluck 4"
				Note Time="47" Value="F4" Duration="17" Instrument="triangle pluck 4"
			PatternInstance Time="0" Pattern="01"
			PatternInstance Time="1" Pattern="01"
			PatternInstance Time="2" Pattern="01"
			PatternInstance Time="3" Pattern="02"
		Channel Type="Noise"
			Pattern Name="01" Color="fffc69"
				Note Time="0" Value="G2" Duration="1" Instrument="kick"
				Note Time="1" Value="A#3" Duration="1" Instrument="hat"
				Note Time="2" Value="G#3" Duration="1" Instrument="hat"
				Note Time="3" Value="A#3" Duration="1" Instrument="hat"
				Note Time="4" Value="G2" Duration="1" Instrument="snare"
				Note Time="5" Value="A#3" Duration="1" Instrument="hat"
				Note Time="6" Value="G#3" Duration="1" Instrument="hat"
				Note Time="7" Value="G2" Duration="1" Instrument="kick"
				Note Time="8" Value="F#3" Duration="1" Instrument="hat"
				Note Time="9" Value="G2" Duration="1" Instrument="kick"
				Note Time="10" Value="G2" Duration="1" Instrument="kick"
				Note Time="11" Value="A#3" Duration="1" Instrument="hat"
				Note Time="12" Value="G2" Duration="1" Instrument="snare"
				Note Time="13" Value="A#3" Duration="1" Instrument="hat"
				Note Time="14" Value="G#3" Duration="1" Instrument="hat"
				Note Time="15" Value="A#3" Duration="1" Instrument="hat"
				Note Time="16" Value="G2" Duration="1" Instrument="kick"
				Note Time="17" Value="A#3" Duration="1" Instrument="hat"
				Note Time="18" Value="G2" Duration="1" Instrument="kick"
				Note Time="19" Value="A#3" Duration="1" Instrument="hat"
				Note Time="20" Value="G2" Duration="1" Instrument="snare"
				Note Time="21" Value="A#3" Duration="1" Instrument="hat"
				Note Time="22" Value="G2" Duration="1" Instrument="kick"
				Note Time="23" Value="G2" Duration="1" Instrument="snare"
				Note Time="24" Value="F#3" Duration="1" Instrument="hat"
				Note Time="25" Value="G2" Duration="1" Instrument="kick"
				Note Time="26" Value="G2" Duration="1" Instrument="kick"
				Note Time="27" Value="A#3" Duration="1" Instrument="hat"
				Note Time="28" Value="G2" Duration="1" Instrument="snare"
				Note Time="29" Value="A2" Duration="1" Instrument="snare"
				Note Time="30" Value="A2" Duration="1" Instrument="snare"
				Note Time="31" Value="A2" Duration="1" Instrument="snare"
				Note Time="32" Value="G2" Duration="1" Instrument="kick"
				Note Time="33" Value="A#3" Duration="1" Instrument="hat"
				Note Time="34" Value="G#3" Duration="1" Instrument="hat"
				Note Time="35" Value="A#3" Duration="1" Instrument="hat"
				Note Time="36" Value="G2" Duration="1" Instrument="snare"
				Note Time="37" Value="A#3" Duration="1" Instrument="hat"
				Note Time="38" Value="G#3" Duration="1" Instrument="hat"
				Note Time="39" Value="G2" Duration="1" Instrument="kick"
				Note Time="40" Value="F#3" Duration="1" Instrument="hat"
				Note Time="41" Value="G2" Duration="1" Instrument="kick"
				Note Time="42" Value="G2" Duration="1" Instrument="kick"
				Note Time="43" Value="A#3" Duration="1" Instrument="hat"
				Note Time="44" Value="G2" Duration="1" Instrument="snare"
				Note Time="45" Value="A#3" Duration="1" Instrument="hat"
				Note Time="46" Value="G#3" Duration="1" Instrument="hat"
				Note Time="47" Value="A#3" Duration="1" Instrument="hat"
				Note Time="48" Value="G2" Duration="1" Instrument="kick"
				Note Time="49" Value="A#3" Duration="1" Instrument="hat"
				Note Time="50" Value="G2" Duration="1" Instrument="kick"
				Note Time="51" Value="A#3" Duration="1" Instrument="hat"
				Note Time="52" Value="G2" Duration="1" Instrument="snare"
				Note Time="53" Value="A#3" Duration="1" Instrument="hat"
				Note Time="54" Value="G2" Duration="1" Instrument="kick"
				Note Time="55" Value="G2" Duration="1" Instrument="snare"
				Note Time="56" Value="F#3" Duration="1" Instrument="hat"
				Note Time="57" Value="G2" Duration="1" Instrument="kick"
				Note Time="58" Value="G2" Duration="1" Instrument="kick"
				Note Time="59" Value="A#3" Duration="1" Instrument="hat"
				Note Time="60" Value="G2" Duration="1" Instrument="snare"
				Note Time="61" Value="A2" Duration="1" Instrument="snare"
				Note Time="62" Value="A2" Duration="1" Instrument="snare"
				Note Time="63" Value="A2" Duration="1" Instrument="snare"
			Pattern Name="02" Color="3ca598"
				Note Time="0" Value="G2" Duration="1" Instrument="kick"
				Note Time="1" Value="A#3" Duration="1" Instrument="hat"
				Note Time="2" Value="G#3" Duration="1" Instrument="hat"
				Note Time="3" Value="A#3" Duration="1" Instrument="hat"
				Note Time="4" Value="G2" Duration="1" Instrument="snare"
				Note Time="5" Value="A#3" Duration="1" Instrument="hat"
				Note Time="6" Value="G#3" Duration="1" Instrument="hat"
				Note Time="7" Value="G2" Duration="1" Instrument="kick"
				Note Time="8" Value="F#3" Duration="1" Instrument="hat"
				Note Time="9" Value="G2" Duration="1" Instrument="kick"
				Note Time="10" Value="G2" Duration="1" Instrument="kick"
				Note Time="11" Value="A#3" Duration="1" Instrument="hat"
				Note Time="12" Value="G2" Duration="1" Instrument="snare"
				Note Time="13" Value="A#3" Duration="1" Instrument="hat"
				Note Time="14" Value="G#3" Duration="1" Instrument="hat"
				Note Time="15" Value="A#3" Duration="1" Instrument="hat"
				Note Time="16" Value="G2" Duration="1" Instrument="kick"
				Note Time="17" Value="A#3" Duration="1" Instrument="hat"
				Note Time="18" Value="G2" Duration="1" Instrument="kick"
				Note Time="19" Value="A#3" Duration="1" Instrument="hat"
				Note Time="20" Value="G2" Duration="1" Instrument="snare"
				Note Time="21" Value="A#3" Duration="1" Instrument="hat"
				Note Time="22" Value="G2" Duration="1" Instrument="kick"
				Note Time="23" Value="G2" Duration="1" Instrument="snare"
				Note Time="24" Value="F#3" Duration="1" Instrument="hat"
				Note Time="25" Value="G2" Duration="1" Instrument="kick"
				Note Time="26" Value="G2" Duration="1" Instrument="kick"
				Note Time="27" Value="A#3" Duration="1" Instrument="hat"
				Note Time="28" Value="G2" Duration="1" Instrument="snare"
				Note Time="29" Value="A2" Duration="1" Instrument="snare"
				Note Time="30" Value="A2" Duration="1" Instrument="snare"
				Note Time="31" Value="A2" Duration="1" Instrument="snare"
				Note Time="32" Value="G2" Duration="1" Instrument="kick"
				Note Time="33" Value="A#3" Duration="1" Instrument="hat"
				Note Time="34" Value="G#3" Duration="1" Instrument="hat"
				Note Time="35" Value="A#3" Duration="1" Instrument="hat"
				Note Time="36" Value="G2" Duration="1" Instrument="snare"
				Note Time="37" Value="A#3" Duration="1" Instrument="hat"
				Note Time="38" Value="G#3" Duration="1" Instrument="hat"
				Note Time="39" Value="G2" Duration="1" Instrument="kick"
				Note Time="40" Value="F#3" Duration="1" Instrument="hat"
				Note Time="41" Value="G2" Duration="1" Instrument="kick"
				Note Time="42" Value="G2" Duration="1" Instrument="kick"
				Note Time="43" Value="A#3" Duration="1" Instrument="hat"
				Note Time="44" Value="G2" Duration="1" Instrument="snare"
				Note Time="45" Value="A#3" Duration="1" Instrument="hat"
				Note Time="46" Value="G#3" Duration="1" Instrument="hat"
				Note Time="47" Value="A#3" Duration="1" Instrument="hat"
				Note Time="48" Value="G2" Duration="2" Instrument="kick"
				Note Time="50" Value="G2" Duration="4" Instrument="kick"
				Note Time="54" Value="G2" Duration="2" Instrument="kick"
				Note Time="56" Value="G2" Duration="4" Instrument="kick"
				Note Time="60" Value="G3" Duration="2" Instrument="rel hats"
				Note Time="62" Value="G3" Duration="2" Instrument="rel hats"
			PatternInstance Time="0" Pattern="01"
			PatternInstance Time="1" Pattern="01"
			PatternInstance Time="2" Pattern="01"
			PatternInstance Time="3" Pattern="02"
		Channel Type="DPCM"
			Pattern Name="01" Color="b5c2ff"
				Note Time="0" Value="E5" Duration="4" Instrument="DMC: drums + bass"
				Note Time="4" Value="F5" Duration="3" Instrument="DMC: drums + bass"
				Note Time="7" Value="E5" Duration="2" Instrument="DMC: drums + bass"
				Note Time="9" Value="E5" Duration="1" Instrument="DMC: drums + bass"
				Note Time="10" Value="E5" Duration="2" Instrument="DMC: drums + bass"
				Note Time="12" Value="F5" Duration="4" Instrument="DMC: drums + bass"
				Note Time="16" Value="E5" Duration="2" Instrument="DMC: drums + bass"
				Note Time="18" Value="E5" Duration="2" Instrument="DMC: drums + bass"
				Note Time="20" Value="F5" Duration="2" Instrument="DMC: drums + bass"
				Note Time="22" Value="E5" Duration="1" Instrument="DMC: drums + bass"
				Note Time="23" Value="F5" Duration="2" Instrument="DMC: drums + bass"
				Note Time="25" Value="E5" Duration="1" Instrument="DMC: drums + bass"
				Note Time="26" Value="E5" Duration="2" Instrument="DMC: drums + bass"
				Note Time="28" Value="F5" Duration="1" Instrument="DMC: drums + bass"
				Note Time="29" Value="F5" Duration="1" Instrument="DMC: drums + bass"
				Note Time="30" Value="F5" Duration="1" Instrument="DMC: drums + bass"
				Note Time="31" Value="F5" Duration="1" Instrument="DMC: drums + bass"
				Note Time="32" Value="E5" Duration="4" Instrument="DMC: drums + bass"
				Note Time="36" Value="F5" Duration="3" Instrument="DMC: drums + bass"
				Note Time="39" Value="E5" Duration="2" Instrument="DMC: drums + bass"
				Note Time="41" Value="E5" Duration="1" Instrument="DMC: drums + bass"
				Note Time="42" Value="E5" Duration="2" Instrument="DMC: drums + bass"
				Note Time="44" Value="F5" Duration="4" Instrument="DMC: drums + bass"
				Note Time="48" Value="E5" Duration="2" Instrument="DMC: drums + bass"
				Note Time="50" Value="E5" Duration="2" Instrument="DMC: drums + bass"
				Note Time="52" Value="F5" Duration="2" Instrument="DMC: drums + bass"
				Note Time="54" Value="E5" Duration="1" Instrument="DMC: drums + bass"
				Note Time="55" Value="F5" Duration="2" Instrument="DMC: drums + bass"
				Note Time="57" Value="E5" Duration="1" Instrument="DMC: drums + bass"
				Note Time="58" Value="E5" Duration="2" Instrument="DMC: drums + bass"
				Note Time="60" Value="F5" Duration="1" Instrument="DMC: drums + bass"
				Note Time="61" Value="F5" Duration="1" Instrument="DMC: drums + bass"
				Note Time="62" Value="F5" Duration="1" Instrument="DMC: drums + bass"
				Note Time="63" Value="F5" Duration="1" Instrument="DMC: drums + bass"
			Pattern Name="02" Color="ff8f8c"
				Note Time="0" Value="E5" Duration="4" Instrument="DMC: drums + bass"
				Note Time="4" Value="F5" Duration="3" Instrument="DMC: drums + bass"
				Note Time="7" Value="E5" Duration="2" Instrument="DMC: drums + bass"
				Note Time="9" Value="E5" Duration="1" Instrument="DMC: drums + bass"
				Note Time="10" Value="E5" Duration="2" Instrument="DMC: drums + bass"
				Note Time="12" Value="F5" Duration="4" Instrument="DMC: drums + bass"
				Note Time="16" Value="E5" Duration="2" Instrument="DMC: drums + bass"
				Note Time="18" Value="E5" Duration="2" Instrument="DMC: drums + bass"
				Note Time="20" Value="F5" Duration="2" Instrument="DMC: drums + bass"
				Note Time="22" Value="E5" Duration="1" Instrument="DMC: drums + bass"
				Note Time="23" Value="F5" Duration="2" Instrument="DMC: drums + bass"
				Note Time="25" Value="E5" Duration="1" Instrument="DMC: drums + bass"
				Note Time="26" Value="E5" Duration="2" Instrument="DMC: drums + bass"
				Note Time="28" Value="F5" Duration="1" Instrument="DMC: drums + bass"
				Note Time="29" Value="F5" Duration="1" Instrument="DMC: drums + bass"
				Note Time="30" Value="F5" Duration="1" Instrument="DMC: drums + bass"
				Note Time="31" Value="F5" Duration="1" Instrument="DMC: drums + bass"
				Note Time="32" Value="E5" Duration="4" Instrument="DMC: drums + bass"
				Note Time="36" Value="F5" Duration="3" Instrument="DMC: drums + bass"
				Note Time="39" Value="E5" Duration="2" Instrument="DMC: drums + bass"
				Note Time="41" Value="E5" Duration="1" Instrument="DMC: drums + bass"
				Note Time="42" Value="E5" Duration="2" Instrument="DMC: drums + bass"
				Note Time="44" Value="F5" Duration="4" Instrument="DMC: drums + bass"
				Note Time="48" Value="E5" Duration="2" Instrument="DMC: drums + bass"
				Note Time="50" Value="E5" Duration="4" Instrument="DMC: drums + bass"
				Note Time="54" Value="E5" Duration="2" Instrument="DMC: drums + bass"
				Note Time="56" Value="E5" Duration="4" Instrument="DMC: drums + bass"
				Note Time="60" Value="E5" Duration="2" Instrument="DMC: drums + bass"
				Note Time="62" Value="E5" Duration="2" Instrument="DMC: drums + bass"
			PatternInstance Time="0" Pattern="01"
			PatternInstance Time="1" Pattern="01"
			PatternInstance Time="2" Pattern="01"
			PatternInstance Time="3" Pattern="02"
	Song Name="custom_jetpack_joyride_theme" Color="3ca598" Folder="Shitposts" Length="5" LoopPoint="0" PatternLength="24" BeatLength="4" FamiTrackerTempo="123" FamiTrackerSpeed="4"
		Channel Type="Square1"
			Pattern Name="01" Color="a376f3"
				Note Time="3" Value="C2" Duration="5" Instrument="blank string" DutyCycle="3"
				Note Time="8" Value="C2" Duration="1" Instrument="blank string"
				Note Time="9" Value="D#2" Duration="2" Instrument="blank string"
				Note Time="11" Value="C2" Duration="1" Instrument="blank string"
				Note Time="12" Value="F2" Duration="3" Instrument="blank string"
				Note Time="15" Value="D#2" Duration="3" Instrument="blank string"
				Note Time="18" Value="F2" Duration="1" Instrument="blank string"
				Note Time="19" Value="F#2" Duration="1" Instrument="blank string"
				Note Time="20" Value="F2" Duration="1" Instrument="blank string"
				Note Time="21" Value="D#2" Duration="6" Instrument="blank string"
			Pattern Name="02" Color="b59184"
				Note Time="3" Value="D2" Duration="2" Instrument="blank string"
				Note Time="5" Value="D#2" Duration="1" Instrument="blank string"
				Note Time="6" Value="D#1" Duration="3" Instrument="blank string"
				Note Time="9" Value="D#2" Duration="3" Instrument="blank string"
				Note Time="12" Value="A#1" Duration="3" Instrument="blank string"
				Note Time="15" Value="A#1" Duration="3" Instrument="blank string"
				Note Time="18" Value="D2" Duration="1" Instrument="blank string"
				Note Time="19" Value="D#2" Duration="1" Instrument="blank string"
				Note Time="20" Value="F2" Duration="1" Instrument="blank string"
				Note Time="21" Value="A#1" Duration="3" Instrument="blank string"
			Pattern Name="03" Color="ffff71"
				Note Time="0" Value="G#1" Duration="3" Instrument="blank string"
				Note Time="3" Value="G#2" Duration="2" Instrument="blank string"
				Note Time="5" Value="G#1" Duration="3" Instrument="blank string"
				Note Time="8" Value="C2" Duration="1" Instrument="blank string"
				Note Time="9" Value="D#2" Duration="2" Instrument="blank string"
				Note Time="11" Value="C2" Duration="1" Instrument="blank string"
				Note Time="12" Value="F2" Duration="3" Instrument="blank string"
				Note Time="15" Value="D#2" Duration="3" Instrument="blank string"
				Note Time="18" Value="F2" Duration="1" Instrument="blank string"
				Note Time="19" Value="F#2" Duration="1" Instrument="blank string"
				Note Time="20" Value="F2" Duration="1" Instrument="blank string"
				Note Time="21" Value="D#2" Duration="3" Instrument="blank string"
			Pattern Name="04" Color="3cb5a7"
				Note Time="0" Value="C2" Duration="5" Instrument="quiet bass"
				Note Time="5" Value="A3" Duration="4" Release="2" Instrument="blank string" DutyCycle="2"
				Note Time="9" Value="G#3" Duration="5" Release="2" Instrument="blank string" DutyCycle="2"
				Note Time="14" Value="G3" Duration="4" Release="2" Instrument="blank string" DutyCycle="2"
				Note Time="18" Value="F3" Duration="2" Instrument="blank string" DutyCycle="2"
				Note Time="20" Value="D#3" Duration="4" Release="2" Instrument="blank string" DutyCycle="2"
			PatternInstance Time="0" Pattern="01"
			PatternInstance Time="1" Pattern="02"
			PatternInstance Time="2" Pattern="03"
			PatternInstance Time="3" Pattern="04"
		Channel Type="Square2"
			Pattern Name="04" Color="5dd2ff"
				Note Time="5" Value="E3" Duration="4" Release="2" Instrument="blank string" DutyCycle="2"
				Note Time="9" Value="D#3" Duration="5" Release="2" Instrument="blank string" DutyCycle="2"
				Note Time="14" Value="D#3" Duration="4" Release="2" Instrument="blank string" DutyCycle="2"
				Note Time="18" Value="C3" Duration="2" Instrument="blank string" DutyCycle="2"
				Note Time="20" Value="B2" Duration="4" Release="2" Instrument="blank string" DutyCycle="2"
			PatternInstance Time="3" Pattern="04"
		Channel Type="Triangle"
			Pattern Name="04" Color="f6a4ff"
				Note Time="5" Value="C4" Duration="3" Instrument="sample"
				Note Time="9" Value="D4" Duration="3" Instrument="sample"
				Note Time="14" Value="A3" Duration="3" Instrument="sample"
				Note Time="18" Value="F#3" Duration="2" Instrument="sample"
				Note Time="20" Value="F3" Duration="4" Instrument="sample"
			PatternInstance Time="3" Pattern="04"
		Channel Type="Noise"
			Pattern Name="01" Color="ffff93"
				Note Time="0" Value="G2" Duration="6" Instrument="kick"
				Note Time="6" Value="G2" Duration="6" Instrument="snare"
				Note Time="12" Value="G2" Duration="6" Instrument="kick"
				Note Time="18" Value="G2" Duration="6" Instrument="snare"
			PatternInstance Time="0" Pattern="01"
			PatternInstance Time="1" Pattern="01"
			PatternInstance Time="2" Pattern="01"
			PatternInstance Time="3" Pattern="01"
		Channel Type="DPCM"
			Pattern Name="01" Color="9a71ed"
				Note Time="0" Value="C3" Duration="3" Instrument="DMC: drums + bass"
				Note Time="3" Value="C4" Duration="3" Instrument="DMC: drums + bass"
				Note Time="6" Value="C3" Duration="3" Instrument="DMC: drums + bass"
				Note Time="9" Value="C4" Duration="3" Instrument="DMC: drums + bass"
				Note Time="12" Value="C3" Duration="3" Instrument="DMC: drums + bass"
				Note Time="15" Value="C4" Duration="3" Instrument="DMC: drums + bass"
				Note Time="18" Value="C3" Duration="3" Instrument="DMC: drums + bass"
				Note Time="21" Value="C4" Duration="3" Instrument="DMC: drums + bass"
			Pattern Name="02" Color="a9887d"
				Note Time="0" Value="D#3" Duration="3" Instrument="DMC: drums + bass"
				Note Time="3" Value="D#4" Duration="3" Instrument="DMC: drums + bass"
				Note Time="6" Value="D#3" Duration="3" Instrument="DMC: drums + bass"
				Note Time="9" Value="D#4" Duration="2" Instrument="DMC: drums + bass"
				Note Time="11" Value="D#4" Duration="1" Instrument="DMC: drums + bass"
				Note Time="12" Value="A#2" Duration="3" Instrument="DMC: drums + bass"
				Note Time="15" Value="A#3" Duration="1" Instrument="DMC: drums + bass"
				Note Time="16" Value="A#2" Duration="2" Instrument="DMC: drums + bass"
				Note Time="18" Value="A#2" Duration="3" Instrument="DMC: drums + bass"
				Note Time="21" Value="A#3" Duration="3" Instrument="DMC: drums + bass"
			Pattern Name="03" Color="fffc69"
				Note Time="0" Value="G#3" Duration="3" Instrument="DMC: drums + bass"
				Note Time="3" Value="G#4" Duration="3" Instrument="DMC: drums + bass"
				Note Time="6" Value="G#3" Duration="3" Instrument="DMC: drums + bass"
				Note Time="9" Value="G#4" Duration="3" Instrument="DMC: drums + bass"
				Note Time="12" Value="G#3" Duration="3" Instrument="DMC: drums + bass"
				Note Time="15" Value="G#4" Duration="3" Instrument="DMC: drums + bass"
				Note Time="18" Value="G#3" Duration="3" Instrument="DMC: drums + bass"
				Note Time="21" Value="G#4" Duration="3" Instrument="DMC: drums + bass"
			Pattern Name="04" Color="3ca598"
				Note Time="0" Value="C3" Duration="2" Instrument="DMC: drums + bass"
				Note Time="2" Value="G3" Duration="1" Instrument="DMC: drums + bass"
				Note Time="3" Value="C4" Duration="2" Instrument="DMC: drums + bass"
				Note Time="5" Value="C3" Duration="3" Instrument="DMC: drums + bass"
				Note Time="8" Value="G3" Duration="1" Instrument="DMC: drums + bass"
				Note Time="9" Value="C4" Duration="3" Instrument="DMC: drums + bass"
				Note Time="12" Value="C3" Duration="2" Instrument="DMC: drums + bass"
				Note Time="14" Value="C4" Duration="3" Instrument="DMC: drums + bass"
				Note Time="17" Value="C3" Duration="1" Instrument="DMC: drums + bass"
				Note Time="18" Value="G#3" Duration="2" Instrument="DMC: drums + bass"
				Note Time="20" Value="G3" Duration="16" Instrument="DMC: drums + bass"
			Pattern Name="05" Color="b5c2ff"
				Note Time="12" Value="A#3" Duration="3" Instrument="DMC: orchestra hits"
				Note Time="15" Value="A#3" Duration="3" Instrument="DMC: orchestra hits"
				Note Time="18" Value="A#3" Duration="2" Instrument="DMC: orchestra hits"
				Note Time="20" Value="B3" Duration="4" Instrument="DMC: orchestra hits"
			PatternInstance Time="0" Pattern="01"
			PatternInstance Time="1" Pattern="02"
			PatternInstance Time="2" Pattern="03"
			PatternInstance Time="3" Pattern="04"
			PatternInstance Time="4" Pattern="05"
	Song Name="twitter." Color="fe5497" Folder="Shitposts" Length="1" LoopPoint="0" PatternLength="64" BeatLength="4" FamiTrackerTempo="150" FamiTrackerSpeed="11"
		Channel Type="Square1"
		Channel Type="Square2"
			Pattern Name="00" Color="7fdc83"
				Note Time="0" Value="B3" Duration="1" Instrument="blank instant decay" DutyCycle="2"
				Note Time="1" Value="F#4" Duration="1" Instrument="blank instant decay"
				Note Time="2" Value="B4" Duration="1" Instrument="blank instant decay"
				Note Time="3" Value="A#4" Duration="1" Instrument="blank instant decay"
				Note Time="5" Value="F#4" Duration="1" Instrument="blank instant decay"
			PatternInstance Time="0" Pattern="00"
		Channel Type="Triangle"
		Channel Type="Noise"
		Channel Type="DPCM"
	Song Name="Practice ZEN" Color="65f2ff" Folder="Unused" Length="1" LoopPoint="0" PatternLength="64" BeatLength="4" FamiTrackerTempo="128" FamiTrackerSpeed="6"
		Channel Type="Square1"
			Pattern Name="00" Color="89f2e8"
				Note Time="0" Value="A#3" Duration="4" Instrument="echo" Volume="15" DutyCycle="2"
				Note Time="4" Value="F4" Duration="2" Instrument="echo"
				Note Time="6" Value="D#4" Duration="1" Instrument="echo"
				Note Time="7" Value="F4" Duration="2" Instrument="echo"
				Note Time="9" Value="C#4" Duration="3" Instrument="echo"
				Note Time="12" Value="C4" Duration="2" Instrument="echo"
				Note Time="14" Value="C#4" Duration="2" Instrument="echo"
				Note Time="16" Value="A#3" Duration="4" Instrument="echo"
				Note Time="20" Value="F4" Duration="2" Instrument="echo"
				Note Time="22" Value="D#4" Duration="1" Instrument="echo"
				Note Time="23" Value="F4" Duration="2" Instrument="echo"
				Note Time="25" Value="C#4" Duration="3" Instrument="echo"
				Note Time="28" Value="C4" Duration="2" Instrument="echo"
				Note Time="30" Value="C#4" Duration="2" Instrument="echo"
				Note Time="32" Value="G#3" Duration="4" Instrument="echo"
				Note Time="36" Value="F4" Duration="2" Instrument="echo"
				Note Time="38" Value="D#4" Duration="1" Instrument="echo"
				Note Time="39" Value="F4" Duration="2" Instrument="echo"
				Note Time="41" Value="C#4" Duration="3" Instrument="echo"
				Note Time="44" Value="C4" Duration="2" Instrument="echo"
				Note Time="46" Value="C#4" Duration="2" Instrument="echo"
				Note Time="48" Value="F#3" Duration="4" Instrument="echo"
				Note Time="52" Value="D#4" Duration="2" Instrument="echo"
				Note Time="54" Value="C#4" Duration="1" Instrument="echo"
				Note Time="55" Value="D#4" Duration="1" Instrument="echo"
				Note Time="56" Value="F3" Duration="1" Instrument="echo" Volume="10"
				Note Time="57" Value="C#4" Duration="3" Instrument="echo" Volume="15"
				Note Time="60" Value="C4" Duration="2" Instrument="echo"
				Note Time="62" Value="C#4" Duration="2" Instrument="echo"
			PatternInstance Time="0" Pattern="00"
		Channel Type="Square2"
			Pattern Name="00" Color="98a7fc"
				Note Time="0" Volume="15" FinePitch="0" DutyCycle="2"
				Note Time="4" Value="A#3" Duration="2" Instrument="echo"
				Note Time="6" Value="G#3" Duration="1" Instrument="echo"
				Note Time="7" Value="A#3" Duration="2" Instrument="echo"
				Note Time="9" Value="F3" Duration="3" Instrument="echo"
				Note Time="12" Value="D#3" Duration="2" Instrument="echo"
				Note Time="14" Value="F3" Duration="6" Instrument="echo"
				Note Time="20" Value="C#4" Duration="2" Instrument="echo"
				Note Time="22" Value="C4" Duration="1" Instrument="echo"
				Note Time="23" Value="C#4" Duration="2" Instrument="echo"
				Note Time="25" Value="A#3" Duration="3" Instrument="echo"
				Note Time="28" Value="G#3" Duration="2" Instrument="echo"
				Note Time="30" Value="A#3" Duration="6" Instrument="echo"
				Note Time="36" Value="C#4" Duration="2" Instrument="echo"
				Note Time="38" Value="C4" Duration="1" Instrument="echo"
				Note Time="39" Value="C#4" Duration="2" Instrument="echo"
				Note Time="41" Value="C#3" Duration="3" Instrument="echo" Volume="10"
				Note Time="44" Value="C3" Duration="2" Instrument="echo"
				Note Time="46" Value="G#2" Duration="6" Instrument="echo" Volume="15"
				Note Time="52" Value="F#3" Duration="2" Instrument="echo"
				Note Time="54" Value="F3" Duration="1" Instrument="echo"
				Note Time="55" Value="F#3" Duration="2" Instrument="echo"
				Note Time="57" Value="F3" Duration="3" Instrument="echo"
				Note Time="60" Value="D#3" Duration="2" Instrument="echo"
				Note Time="62" Value="F3" Duration="2" Instrument="echo"
			PatternInstance Time="0" Pattern="00"
		Channel Type="Triangle"
		Channel Type="Noise"
			Pattern Name="00" Color="fffd43"
				Note Time="0" Value="F#3" Duration="2" Instrument="kick" Volume="15"
				Note Time="2" Value="F#3" Duration="1" Instrument="rel hats" Volume="5"
				Note Time="3" Value="F#3" Duration="1" Instrument="blank instant decay"
				Note Time="4" Value="F#3" Duration="2" Instrument="kick" Volume="15"
				Note Time="6" Value="F#3" Duration="1" Instrument="rel hats" Volume="5"
				Note Time="7" Value="F#3" Duration="1" Instrument="blank instant decay"
				Note Time="8" Value="F#3" Duration="2" Instrument="kick" Volume="15"
				Note Time="10" Value="F#3" Duration="1" Instrument="rel hats" Volume="5"
				Note Time="11" Value="F#3" Duration="1" Instrument="blank instant decay"
				Note Time="12" Value="F#3" Duration="2" Instrument="kick" Volume="15"
				Note Time="14" Value="F#3" Duration="1" Instrument="rel hats" Volume="5"
				Note Time="15" Value="F#3" Duration="1" Instrument="blank instant decay"
				Note Time="16" Value="F#3" Duration="2" Instrument="kick" Volume="15"
				Note Time="18" Value="F#3" Duration="1" Instrument="rel hats" Volume="5"
				Note Time="19" Value="F#3" Duration="1" Instrument="blank instant decay"
				Note Time="20" Value="F#3" Duration="2" Instrument="kick" Volume="15"
				Note Time="22" Value="F#3" Duration="1" Instrument="rel hats" Volume="5"
				Note Time="23" Value="F#3" Duration="1" Instrument="blank instant decay"
				Note Time="24" Value="F#3" Duration="2" Instrument="kick" Volume="15"
				Note Time="26" Value="F#3" Duration="1" Instrument="rel hats" Volume="5"
				Note Time="27" Value="F#3" Duration="1" Instrument="blank instant decay"
				Note Time="28" Value="F#3" Duration="2" Instrument="kick" Volume="15"
				Note Time="30" Value="F#3" Duration="1" Instrument="rel hats" Volume="5"
				Note Time="31" Value="F#3" Duration="1" Instrument="blank instant decay"
				Note Time="32" Value="F#3" Duration="2" Instrument="kick" Volume="15"
				Note Time="34" Value="F#3" Duration="1" Instrument="rel hats" Volume="5"
				Note Time="35" Value="F#3" Duration="1" Instrument="blank instant decay"
				Note Time="36" Value="F#3" Duration="2" Instrument="kick" Volume="15"
				Note Time="38" Value="F#3" Duration="1" Instrument="rel hats" Volume="5"
				Note Time="39" Value="F#3" Duration="1" Instrument="blank instant decay"
				Note Time="40" Value="F#3" Duration="2" Instrument="kick" Volume="15"
				Note Time="42" Value="F#3" Duration="1" Instrument="rel hats" Volume="5"
				Note Time="43" Value="F#3" Duration="1" Instrument="blank instant decay"
				Note Time="44" Value="F#3" Duration="2" Instrument="kick" Volume="15"
				Note Time="46" Value="F#3" Duration="1" Instrument="rel hats" Volume="5"
				Note Time="47" Value="F#3" Duration="1" Instrument="blank instant decay"
				Note Time="48" Value="F#3" Duration="2" Instrument="kick" Volume="15"
				Note Time="50" Value="F#3" Duration="1" Instrument="rel hats" Volume="5"
				Note Time="51" Value="F#3" Duration="1" Instrument="blank instant decay"
				Note Time="52" Value="F#3" Duration="2" Instrument="kick" Volume="15"
				Note Time="54" Value="F#3" Duration="1" Instrument="rel hats" Volume="5"
				Note Time="55" Value="F#3" Duration="1" Instrument="blank instant decay"
				Note Time="56" Value="F#3" Duration="2" Instrument="kick" Volume="15"
				Note Time="58" Value="F#3" Duration="1" Instrument="rel hats" Volume="5"
				Note Time="59" Value="F#3" Duration="1" Instrument="blank instant decay"
				Note Time="60" Value="F#3" Duration="2" Instrument="kick" Volume="15"
				Note Time="62" Value="F#3" Duration="1" Instrument="rel hats" Volume="5"
				Note Time="63" Value="F#3" Duration="1" Instrument="blank instant decay"
			PatternInstance Time="0" Pattern="00"
		Channel Type="DPCM"
			Pattern Name="00" Color="7fdc83"
				Note Time="0" Value="E5" Duration="1" Instrument="DMC: drums + bass"
				Note Time="1" Value="A#3" Duration="1" Instrument="DMC: drums + bass"
				Note Time="2" Value="A#3" Duration="1" Instrument="DMC: drums + bass"
				Note Time="3" Value="A#3" Duration="1" Instrument="DMC: drums + bass"
				Note Time="4" Value="E5" Duration="1" Instrument="DMC: drums + bass"
				Note Time="5" Value="A#3" Duration="1" Instrument="DMC: drums + bass"
				Note Time="6" Value="A#3" Duration="1" Instrument="DMC: drums + bass"
				Note Time="7" Value="A#3" Duration="1" Instrument="DMC: drums + bass"
				Note Time="8" Value="E5" Duration="1" Instrument="DMC: drums + bass"
				Note Time="9" Value="A#3" Duration="1" Instrument="DMC: drums + bass"
				Note Time="10" Value="A#3" Duration="1" Instrument="DMC: drums + bass"
				Note Time="11" Value="A#3" Duration="1" Instrument="DMC: drums + bass"
				Note Time="12" Value="E5" Duration="1" Instrument="DMC: drums + bass"
				Note Time="13" Value="A#3" Duration="1" Instrument="DMC: drums + bass"
				Note Time="14" Value="A#3" Duration="1" Instrument="DMC: drums + bass"
				Note Time="15" Value="A#3" Duration="1" Instrument="DMC: drums + bass"
				Note Time="16" Value="E5" Duration="1" Instrument="DMC: drums + bass"
				Note Time="17" Value="A#3" Duration="1" Instrument="DMC: drums + bass"
				Note Time="18" Value="A#3" Duration="1" Instrument="DMC: drums + bass"
				Note Time="19" Value="A#3" Duration="1" Instrument="DMC: drums + bass"
				Note Time="20" Value="E5" Duration="1" Instrument="DMC: drums + bass"
				Note Time="21" Value="A#3" Duration="1" Instrument="DMC: drums + bass"
				Note Time="22" Value="A#3" Duration="1" Instrument="DMC: drums + bass"
				Note Time="23" Value="A#3" Duration="1" Instrument="DMC: drums + bass"
				Note Time="24" Value="E5" Duration="1" Instrument="DMC: drums + bass"
				Note Time="25" Value="A#3" Duration="1" Instrument="DMC: drums + bass"
				Note Time="26" Value="A#3" Duration="1" Instrument="DMC: drums + bass"
				Note Time="27" Value="A#3" Duration="1" Instrument="DMC: drums + bass"
				Note Time="28" Value="E5" Duration="1" Instrument="DMC: drums + bass"
				Note Time="29" Value="A#3" Duration="1" Instrument="DMC: drums + bass"
				Note Time="30" Value="A#3" Duration="1" Instrument="DMC: drums + bass"
				Note Time="31" Value="A#3" Duration="1" Instrument="DMC: drums + bass"
				Note Time="32" Value="E5" Duration="1" Instrument="DMC: drums + bass"
				Note Time="33" Value="G#3" Duration="1" Instrument="DMC: drums + bass"
				Note Time="34" Value="G#3" Duration="1" Instrument="DMC: drums + bass"
				Note Time="35" Value="G#3" Duration="1" Instrument="DMC: drums + bass"
				Note Time="36" Value="E5" Duration="1" Instrument="DMC: drums + bass"
				Note Time="37" Value="G#3" Duration="1" Instrument="DMC: drums + bass"
				Note Time="38" Value="G#3" Duration="1" Instrument="DMC: drums + bass"
				Note Time="39" Value="G#3" Duration="1" Instrument="DMC: drums + bass"
				Note Time="40" Value="E5" Duration="1" Instrument="DMC: drums + bass"
				Note Time="41" Value="G#3" Duration="1" Instrument="DMC: drums + bass"
				Note Time="42" Value="G#3" Duration="1" Instrument="DMC: drums + bass"
				Note Time="43" Value="G#3" Duration="1" Instrument="DMC: drums + bass"
				Note Time="44" Value="E5" Duration="1" Instrument="DMC: drums + bass"
				Note Time="45" Value="G#3" Duration="1" Instrument="DMC: drums + bass"
				Note Time="46" Value="G#3" Duration="1" Instrument="DMC: drums + bass"
				Note Time="47" Value="G#3" Duration="1" Instrument="DMC: drums + bass"
				Note Time="48" Value="E5" Duration="1" Instrument="DMC: drums + bass"
				Note Time="49" Value="F#3" Duration="1" Instrument="DMC: drums + bass"
				Note Time="50" Value="F#3" Duration="1" Instrument="DMC: drums + bass"
				Note Time="51" Value="F#3" Duration="1" Instrument="DMC: drums + bass"
				Note Time="52" Value="E5" Duration="1" Instrument="DMC: drums + bass"
				Note Time="53" Value="F#3" Duration="1" Instrument="DMC: drums + bass"
				Note Time="54" Value="F#3" Duration="1" Instrument="DMC: drums + bass"
				Note Time="55" Value="F#3" Duration="1" Instrument="DMC: drums + bass"
				Note Time="56" Value="E5" Duration="1" Instrument="DMC: drums + bass"
				Note Time="57" Value="F3" Duration="1" Instrument="DMC: drums + bass"
				Note Time="58" Value="F3" Duration="1" Instrument="DMC: drums + bass"
				Note Time="59" Value="F3" Duration="1" Instrument="DMC: drums + bass"
				Note Time="60" Value="E5" Duration="1" Instrument="DMC: drums + bass"
				Note Time="61" Value="F3" Duration="1" Instrument="DMC: drums + bass"
				Note Time="62" Value="F3" Duration="1" Instrument="DMC: drums + bass"
				Note Time="63" Value="F3" Duration="1" Instrument="DMC: drums + bass"
			PatternInstance Time="0" Pattern="00"
	Song Name="Song 2" Color="ff935e" Folder="Custom" Length="16" LoopPoint="0" PatternLength="32" BeatLength="4" FamiTrackerTempo="134" FamiTrackerSpeed="4"
		Channel Type="Square1"
			Pattern Name="Pattern 1" Color="98a7fc"
				Note Time="0" Value="G3" Duration="3" Instrument="blank instant decay" Arpeggio="Arp 37" Volume="15"
				Note Time="2" Value="G3" Duration="3" Instrument="blank instant decay" Arpeggio="Arp 37"
				Note Time="4" Value="G3" Duration="3" Instrument="blank instant decay" Arpeggio="Arp 37"
				Note Time="6" Value="G3" Duration="3" Instrument="blank instant decay" Arpeggio="Arp 37"
				Note Time="8" Value="G3" Duration="3" Instrument="blank instant decay" Arpeggio="Arp 37"
				Note Time="10" Value="G3" Duration="3" Instrument="blank instant decay" Arpeggio="Arp 37"
				Note Time="12" Value="G3" Duration="3" Instrument="blank instant decay" Arpeggio="Arp 37"
				Note Time="14" Value="G3" Duration="3" Instrument="blank instant decay" Arpeggio="Arp 37"
				Note Time="16" Value="G3" Duration="3" Instrument="blank instant decay" Arpeggio="Arp 37"
				Note Time="18" Value="G3" Duration="3" Instrument="blank instant decay" Arpeggio="Arp 37"
				Note Time="20" Value="G3" Duration="3" Instrument="blank instant decay" Arpeggio="Arp 37"
				Note Time="22" Value="G3" Duration="3" Instrument="blank instant decay" Arpeggio="Arp 37"
				Note Time="24" Value="G3" Duration="3" Instrument="blank instant decay" Arpeggio="Arp 37"
				Note Time="26" Value="G3" Duration="3" Instrument="blank instant decay" Arpeggio="Arp 37"
				Note Time="28" Value="F3" Duration="2" Instrument="blank instant decay" Arpeggio="Arp 47"
				Note Time="30" Value="F3" Duration="2" Instrument="blank instant decay" Arpeggio="Arp 47"
			Pattern Name="Pattern 2" Color="ff935e"
				Note Time="0" Value="G3" Duration="2" Instrument="blank instant decay" Arpeggio="Arp 37"
				Note Time="2" Value="G3" Duration="2" Instrument="blank instant decay" Arpeggio="Arp 37"
				Note Time="4" Value="G3" Duration="2" Instrument="blank instant decay" Arpeggio="Arp 37"
				Note Time="6" Value="G3" Duration="2" Instrument="blank instant decay" Arpeggio="Arp 37"
				Note Time="8" Value="G3" Duration="2" Instrument="blank instant decay" Arpeggio="Arp 37"
				Note Time="10" Value="G3" Duration="2" Instrument="blank instant decay" Arpeggio="Arp 37"
				Note Time="12" Value="G3" Duration="2" Instrument="blank instant decay" Arpeggio="Arp 37"
				Note Time="14" Value="G3" Duration="2" Instrument="blank instant decay" Arpeggio="Arp 37"
				Note Time="16" Value="F3" Duration="2" Instrument="blank instant decay" Arpeggio="Arp 47"
				Note Time="18" Value="F3" Duration="2" Instrument="blank instant decay" Arpeggio="Arp 47"
				Note Time="20" Value="F3" Duration="2" Instrument="blank instant decay" Arpeggio="Arp 47"
				Note Time="22" Value="F3" Duration="2" Instrument="blank instant decay" Arpeggio="Arp 47"
				Note Time="24" Value="F3" Duration="2" Instrument="blank instant decay" Arpeggio="Arp 47"
				Note Time="26" Value="F3" Duration="2" Instrument="blank instant decay" Arpeggio="Arp 47"
				Note Time="28" Value="F3" Duration="2" Instrument="blank instant decay" Arpeggio="Arp 47"
				Note Time="30" Value="F3" Duration="2" Instrument="blank instant decay" Arpeggio="Arp 47"
			Pattern Name="Pattern 3" Color="fcff6f"
				Note Time="0" Value="D#3" Duration="2" Instrument="blank instant decay" Arpeggio="Arp 47"
				Note Time="2" Value="D#3" Duration="2" Instrument="blank instant decay" Arpeggio="Arp 47"
				Note Time="4" Value="D#3" Duration="2" Instrument="blank instant decay" Arpeggio="Arp 47"
				Note Time="6" Value="D#3" Duration="2" Instrument="blank instant decay" Arpeggio="Arp 47"
				Note Time="8" Value="D#3" Duration="2" Instrument="blank instant decay" Arpeggio="Arp 47"
				Note Time="10" Value="D#3" Duration="2" Instrument="blank instant decay" Arpeggio="Arp 47"
				Note Time="12" Value="D#3" Duration="2" Instrument="blank instant decay" Arpeggio="Arp 47"
				Note Time="14" Value="D#3" Duration="2" Instrument="blank instant decay" Arpeggio="Arp 47"
				Note Time="16" Value="D#3" Duration="2" Instrument="blank instant decay" Arpeggio="Arp 47"
				Note Time="18" Value="D#3" Duration="2" Instrument="blank instant decay" Arpeggio="Arp 47"
				Note Time="20" Value="D#3" Duration="2" Instrument="blank instant decay" Arpeggio="Arp 47"
				Note Time="22" Value="D#3" Duration="2" Instrument="blank instant decay" Arpeggio="Arp 47"
				Note Time="24" Value="D#3" Duration="2" Instrument="blank instant decay" Arpeggio="Arp 47"
				Note Time="26" Value="D#3" Duration="2" Instrument="blank instant decay" Arpeggio="Arp 47"
				Note Time="28" Value="D#3" Duration="2" Instrument="blank instant decay" Arpeggio="Arp 47"
				Note Time="30" Value="D#3" Duration="2" Instrument="blank instant decay" Arpeggio="Arp 47"
			Pattern Name="Pattern 4" Color="5dd2ff"
				Note Time="0" Value="D#3" Duration="2" Instrument="blank instant decay" Arpeggio="Arp 47"
				Note Time="2" Value="D#3" Duration="2" Instrument="blank instant decay" Arpeggio="Arp 47"
				Note Time="4" Value="D#3" Duration="2" Instrument="blank instant decay" Arpeggio="Arp 47"
				Note Time="6" Value="D#3" Duration="2" Instrument="blank instant decay" Arpeggio="Arp 47"
				Note Time="8" Value="D#3" Duration="2" Instrument="blank instant decay" Arpeggio="Arp 47"
				Note Time="10" Value="D#3" Duration="2" Instrument="blank instant decay" Arpeggio="Arp 47"
				Note Time="12" Value="D#3" Duration="2" Instrument="blank instant decay" Arpeggio="Arp 47"
				Note Time="14" Value="D#3" Duration="2" Instrument="blank instant decay" Arpeggio="Arp 47"
				Note Time="16" Value="F3" Duration="2" Instrument="blank instant decay" Arpeggio="Arp 47"
				Note Time="18" Value="F3" Duration="2" Instrument="blank instant decay" Arpeggio="Arp 47"
				Note Time="20" Value="F3" Duration="2" Instrument="blank instant decay" Arpeggio="Arp 47"
				Note Time="22" Value="F3" Duration="2" Instrument="blank instant decay" Arpeggio="Arp 47"
				Note Time="24" Value="F3" Duration="2" Instrument="blank instant decay" Arpeggio="Arp 47"
				Note Time="26" Value="F3" Duration="2" Instrument="blank instant decay" Arpeggio="Arp 47"
				Note Time="28" Value="F3" Duration="2" Instrument="blank instant decay" Arpeggio="Arp 47"
				Note Time="30" Value="F3" Duration="2" Instrument="blank instant decay" Arpeggio="Arp 47"
			Pattern Name="Pattern 5" Color="8bffff"
				Note Time="0" Value="C4" Duration="1" Instrument="blank"
				Note Time="1" Value="D4" Duration="3" Instrument="blank"
				Note Time="4" Value="C4" Duration="2" Instrument="blank"
				Note Time="6" Value="A#3" Duration="6" Instrument="blank"
				Note Time="10" Value="C3" Duration="2" Instrument="blank"
				Note Time="12" Value="G3" Duration="2" Instrument="blank"
				Note Time="14" Value="A3" Duration="5" Instrument="blank"
				Note Time="18" Value="C3" Duration="2" Instrument="blank"
				Note Time="20" Value="A3" Duration="2" Instrument="blank"
				Note Time="22" Value="G3" Duration="5" Instrument="blank"
				Note Time="26" Value="C3" Duration="2" Instrument="blank"
				Note Time="28" Value="F3" Duration="2" Instrument="blank"
				Note Time="30" Value="G3" Duration="14" Instrument="blank"
			Pattern Name="Pattern 6" Color="e783f8"
				Note Time="12" Value="G3" Duration="1" Instrument="blank"
				Note Time="13" Value="C4" Duration="2" Instrument="blank"
				Note Time="15" Value="D4" Duration="14" Instrument="blank"
				Note Time="29" Value="G3" Duration="3" Instrument="blank"
			PatternInstance Time="0" Pattern="Pattern 1"
			PatternInstance Time="1" Pattern="Pattern 1"
			PatternInstance Time="2" Pattern="Pattern 1"
			PatternInstance Time="3" Pattern="Pattern 1"
			PatternInstance Time="4" Pattern="Pattern 2"
			PatternInstance Time="5" Pattern="Pattern 3"
			PatternInstance Time="6" Pattern="Pattern 4"
			PatternInstance Time="7" Pattern="Pattern 3"
			PatternInstance Time="8" Pattern="Pattern 5"
			PatternInstance Time="9" Pattern="Pattern 6"
			PatternInstance Time="10" Pattern="Pattern 5"
			PatternInstance Time="11" Pattern="Pattern 6"
		Channel Type="Square2"
			Pattern Name="Pattern 3" Color="fe5497"
				Note Time="0" Value="G3" Duration="1" Instrument="endgame lead" Volume="10"
				Note Time="1" Value="A#3" Duration="1" Instrument="endgame lead"
				Note Time="2" Value="G3" Duration="1" Instrument="endgame lead"
				Note Time="3" Value="D4" Duration="1" Instrument="endgame lead"
				Note Time="4" Value="G4" Duration="1" Instrument="endgame lead"
				Note Time="5" Value="A#4" Duration="1" Instrument="endgame lead"
				Note Time="6" Value="G4" Duration="1" Instrument="endgame lead"
				Note Time="7" Value="D5" Duration="1" Instrument="endgame lead"
				Note Time="8" Value="G4" Duration="1" Instrument="endgame lead"
				Note Time="9" Value="D5" Duration="1" Instrument="endgame lead"
				Note Time="10" Value="D5" Duration="1" Instrument="endgame lead"
				Note Time="11" Value="G5" Duration="1" Instrument="endgame lead"
				Note Time="12" Value="G5" Duration="1" Instrument="endgame lead"
				Note Time="13" Value="A#5" Duration="1" Instrument="endgame lead"
				Note Time="14" Value="D6" Duration="1" Instrument="endgame lead"
				Note Time="15" Value="D6" Duration="1" Instrument="endgame lead"
				Note Time="16" Value="F3" Duration="1" Instrument="endgame lead" Volume="10"
				Note Time="17" Value="A3" Duration="1" Instrument="endgame lead"
				Note Time="18" Value="F3" Duration="1" Instrument="endgame lead"
				Note Time="19" Value="C4" Duration="1" Instrument="endgame lead"
				Note Time="20" Value="F4" Duration="1" Instrument="endgame lead"
				Note Time="21" Value="A4" Duration="1" Instrument="endgame lead"
				Note Time="22" Value="F4" Duration="1" Instrument="endgame lead"
				Note Time="23" Value="C5" Duration="1" Instrument="endgame lead"
				Note Time="24" Value="F4" Duration="1" Instrument="endgame lead"
				Note Time="25" Value="C5" Duration="1" Instrument="endgame lead"
				Note Time="26" Value="C5" Duration="1" Instrument="endgame lead"
				Note Time="27" Value="F5" Duration="1" Instrument="endgame lead"
				Note Time="28" Value="F5" Duration="1" Instrument="endgame lead"
				Note Time="29" Value="A5" Duration="1" Instrument="endgame lead"
				Note Time="30" Value="C6" Duration="1" Instrument="endgame lead"
				Note Time="31" Value="C6" Duration="1" Instrument="endgame lead"
			Pattern Name="Pattern 2" Color="ffff93"
				Note Time="0" Value="D#3" Duration="1" Instrument="endgame lead" Volume="10"
				Note Time="1" Value="G3" Duration="1" Instrument="endgame lead"
				Note Time="2" Value="D#3" Duration="1" Instrument="endgame lead"
				Note Time="3" Value="A#3" Duration="1" Instrument="endgame lead"
				Note Time="4" Value="D#4" Duration="1" Instrument="endgame lead"
				Note Time="5" Value="G4" Duration="1" Instrument="endgame lead"
				Note Time="6" Value="D#4" Duration="1" Instrument="endgame lead"
				Note Time="7" Value="A#4" Duration="1" Instrument="endgame lead"
				Note Time="8" Value="D#4" Duration="1" Instrument="endgame lead"
				Note Time="9" Value="A#4" Duration="1" Instrument="endgame lead"
				Note Time="10" Value="A#4" Duration="1" Instrument="endgame lead"
				Note Time="11" Value="D#5" Duration="1" Instrument="endgame lead"
				Note Time="12" Value="D#5" Duration="1" Instrument="endgame lead"
				Note Time="13" Value="G5" Duration="1" Instrument="endgame lead"
				Note Time="14" Value="A#5" Duration="1" Instrument="endgame lead"
				Note Time="15" Value="A#5" Duration="1" Instrument="endgame lead"
				Note Time="16" Value="D#4" Duration="1" Instrument="endgame lead" Volume="10"
				Note Time="17" Value="G4" Duration="1" Instrument="endgame lead"
				Note Time="18" Value="D#4" Duration="1" Instrument="endgame lead"
				Note Time="19" Value="A#4" Duration="1" Instrument="endgame lead"
				Note Time="20" Value="D#5" Duration="1" Instrument="endgame lead"
				Note Time="21" Value="G5" Duration="1" Instrument="endgame lead"
				Note Time="22" Value="D#5" Duration="1" Instrument="endgame lead"
				Note Time="23" Value="A#5" Duration="1" Instrument="endgame lead"
				Note Time="24" Value="D#5" Duration="1" Instrument="endgame lead"
				Note Time="25" Value="A#5" Duration="1" Instrument="endgame lead"
				Note Time="26" Value="A#5" Duration="1" Instrument="endgame lead"
				Note Time="27" Value="D#6" Duration="1" Instrument="endgame lead"
				Note Time="28" Value="D#6" Duration="1" Instrument="endgame lead"
				Note Time="29" Value="G6" Duration="1" Instrument="endgame lead"
				Note Time="30" Value="A#6" Duration="1" Instrument="endgame lead"
				Note Time="31" Value="A#6" Duration="1" Instrument="endgame lead"
			Pattern Name="Pattern 1" Color="3cd3e3"
				Note Time="0" Value="G3" Duration="1" Instrument="endgame lead" Volume="10"
				Note Time="1" Value="A#3" Duration="1" Instrument="endgame lead"
				Note Time="2" Value="G3" Duration="1" Instrument="endgame lead"
				Note Time="3" Value="D4" Duration="1" Instrument="endgame lead"
				Note Time="4" Value="G4" Duration="1" Instrument="endgame lead"
				Note Time="5" Value="A#4" Duration="1" Instrument="endgame lead"
				Note Time="6" Value="G4" Duration="1" Instrument="endgame lead"
				Note Time="7" Value="D5" Duration="1" Instrument="endgame lead"
				Note Time="8" Value="G4" Duration="1" Instrument="endgame lead"
				Note Time="9" Value="D5" Duration="1" Instrument="endgame lead"
				Note Time="10" Value="D5" Duration="1" Instrument="endgame lead"
				Note Time="11" Value="G5" Duration="1" Instrument="endgame lead"
				Note Time="12" Value="G5" Duration="1" Instrument="endgame lead"
				Note Time="13" Value="A#5" Duration="1" Instrument="endgame lead"
				Note Time="14" Value="D6" Duration="1" Instrument="endgame lead"
				Note Time="15" Value="D6" Duration="1" Instrument="endgame lead"
				Note Time="16" Value="F3" Duration="1" Instrument="endgame lead" Volume="10"
				Note Time="17" Value="A3" Duration="1" Instrument="endgame lead"
				Note Time="18" Value="F3" Duration="1" Instrument="endgame lead"
				Note Time="19" Value="C4" Duration="1" Instrument="endgame lead"
				Note Time="20" Value="F4" Duration="1" Instrument="endgame lead"
				Note Time="21" Value="A4" Duration="1" Instrument="endgame lead"
				Note Time="22" Value="F4" Duration="1" Instrument="endgame lead"
				Note Time="23" Value="C5" Duration="1" Instrument="endgame lead"
				Note Time="24" Value="F4" Duration="1" Instrument="endgame lead"
				Note Time="25" Value="C5" Duration="1" Instrument="endgame lead"
				Note Time="26" Value="C5" Duration="1" Instrument="endgame lead"
				Note Time="27" Value="F5" Duration="1" Instrument="endgame lead"
				Note Time="28" Value="F5" Duration="1" Instrument="endgame lead"
				Note Time="29" Value="A5" Duration="1" Instrument="endgame lead"
				Note Time="30" Value="C6" Duration="1" Instrument="endgame lead"
				Note Time="31" Value="C6" Duration="1" Instrument="endgame lead"
			Pattern Name="Pattern 5" Color="8d69e4"
				Note Time="0" Value="C4" Duration="2" Instrument="blank" FinePitch="-2"
				Note Time="1" Value="D4" Duration="4" Instrument="blank"
				Note Time="4" Value="C4" Duration="3" Instrument="blank"
				Note Time="6" Value="A#3" Duration="5" Instrument="blank"
				Note Time="10" Value="C3" Duration="3" Instrument="blank"
				Note Time="12" Value="G3" Duration="3" Instrument="blank"
				Note Time="14" Value="A3" Duration="4" Instrument="blank"
				Note Time="18" Value="C3" Duration="2" Instrument="blank"
				Note Time="20" Value="A3" Duration="3" Instrument="blank"
				Note Time="22" Value="G3" Duration="5" Instrument="blank"
				Note Time="26" Value="C3" Duration="3" Instrument="blank"
				Note Time="28" Value="F3" Duration="3" Instrument="blank"
				Note Time="30" Value="G3" Duration="14" Instrument="blank"
			Pattern Name="Pattern 6" Color="ffe461"
				Note Time="12" Value="G3" Duration="2" Instrument="blank"
				Note Time="13" Value="C4" Duration="3" Instrument="blank"
				Note Time="15" Value="D4" Duration="14" Instrument="blank"
				Note Time="29" Value="G3" Duration="3" Instrument="blank"
			PatternInstance Time="4" Pattern="Pattern 3"
			PatternInstance Time="5" Pattern="Pattern 2"
			PatternInstance Time="6" Pattern="Pattern 1"
			PatternInstance Time="7" Pattern="Pattern 2"
			PatternInstance Time="8" Pattern="Pattern 5"
			PatternInstance Time="9" Pattern="Pattern 6"
			PatternInstance Time="10" Pattern="Pattern 5"
			PatternInstance Time="11" Pattern="Pattern 6"
		Channel Type="Triangle"
			Pattern Name="Pattern 2" Color="ffc83c"
				Note Time="0" Value="G3" Duration="2" Instrument="DMC: drums + bass"
				Note Time="2" Value="G3" Duration="2" Instrument="DMC: drums + bass"
				Note Time="4" Value="G3" Duration="2" Instrument="DMC: drums + bass"
				Note Time="6" Value="G3" Duration="2" Instrument="DMC: drums + bass"
				Note Time="8" Value="G3" Duration="2" Instrument="DMC: drums + bass"
				Note Time="10" Value="G3" Duration="2" Instrument="DMC: drums + bass"
				Note Time="12" Value="G3" Duration="2" Instrument="DMC: drums + bass"
				Note Time="14" Value="G3" Duration="2" Instrument="DMC: drums + bass"
				Note Time="16" Value="F3" Duration="2" Instrument="DMC: drums + bass"
				Note Time="18" Value="F3" Duration="2" Instrument="DMC: drums + bass"
				Note Time="20" Value="F3" Duration="2" Instrument="DMC: drums + bass"
				Note Time="22" Value="F3" Duration="2" Instrument="DMC: drums + bass"
				Note Time="24" Value="F3" Duration="2" Instrument="DMC: drums + bass"
				Note Time="26" Value="F3" Duration="2" Instrument="DMC: drums + bass"
				Note Time="28" Value="F3" Duration="2" Instrument="DMC: drums + bass"
				Note Time="30" Value="F3" Duration="2" Instrument="DMC: drums + bass"
			Pattern Name="Pattern 3" Color="3eb3f9"
				Note Time="0" Value="D#3" Duration="2" Instrument="DMC: drums + bass"
				Note Time="2" Value="D#3" Duration="2" Instrument="DMC: drums + bass"
				Note Time="4" Value="D#3" Duration="2" Instrument="DMC: drums + bass"
				Note Time="6" Value="D#3" Duration="2" Instrument="DMC: drums + bass"
				Note Time="8" Value="D#3" Duration="2" Instrument="DMC: drums + bass"
				Note Time="10" Value="D#3" Duration="2" Instrument="DMC: drums + bass"
				Note Time="12" Value="D#3" Duration="2" Instrument="DMC: drums + bass"
				Note Time="14" Value="D#3" Duration="2" Instrument="DMC: drums + bass"
				Note Time="16" Value="D#3" Duration="2" Instrument="DMC: drums + bass"
				Note Time="18" Value="D#3" Duration="2" Instrument="DMC: drums + bass"
				Note Time="20" Value="D#3" Duration="2" Instrument="DMC: drums + bass"
				Note Time="22" Value="D#3" Duration="2" Instrument="DMC: drums + bass"
				Note Time="24" Value="D#3" Duration="2" Instrument="DMC: drums + bass"
				Note Time="26" Value="D#3" Duration="2" Instrument="DMC: drums + bass"
				Note Time="28" Value="D#3" Duration="2" Instrument="DMC: drums + bass"
				Note Time="30" Value="D#3" Duration="2" Instrument="DMC: drums + bass"
			Pattern Name="Pattern 4" Color="ffc6a1"
				Note Time="0" Value="D#3" Duration="2" Instrument="DMC: drums + bass"
				Note Time="2" Value="D#3" Duration="2" Instrument="DMC: drums + bass"
				Note Time="4" Value="D#3" Duration="2" Instrument="DMC: drums + bass"
				Note Time="6" Value="D#3" Duration="2" Instrument="DMC: drums + bass"
				Note Time="8" Value="D#3" Duration="2" Instrument="DMC: drums + bass"
				Note Time="10" Value="D#3" Duration="2" Instrument="DMC: drums + bass"
				Note Time="12" Value="D#3" Duration="2" Instrument="DMC: drums + bass"
				Note Time="14" Value="D#3" Duration="2" Instrument="DMC: drums + bass"
				Note Time="16" Value="F3" Duration="2" Instrument="DMC: drums + bass"
				Note Time="18" Value="F3" Duration="2" Instrument="DMC: drums + bass"
				Note Time="20" Value="F3" Duration="2" Instrument="DMC: drums + bass"
				Note Time="22" Value="F3" Duration="2" Instrument="DMC: drums + bass"
				Note Time="24" Value="F3" Duration="2" Instrument="DMC: drums + bass"
				Note Time="26" Value="F3" Duration="2" Instrument="DMC: drums + bass"
				Note Time="28" Value="F3" Duration="2" Instrument="DMC: drums + bass"
				Note Time="30" Value="F3" Duration="2" Instrument="DMC: drums + bass"
			Pattern Name="Pattern 5" Color="3cf8ff"
				Note Time="0" Value="D#3" Duration="2" Instrument="DMC: drums + bass"
				Note Time="2" Value="D#3" Duration="2" Instrument="DMC: drums + bass"
				Note Time="4" Value="D#3" Duration="2" Instrument="DMC: drums + bass"
				Note Time="6" Value="D#3" Duration="2" Instrument="DMC: drums + bass"
				Note Time="8" Value="D#3" Duration="2" Instrument="DMC: drums + bass"
				Note Time="10" Value="D#3" Duration="2" Instrument="DMC: drums + bass"
				Note Time="12" Value="D#3" Duration="2" Instrument="DMC: drums + bass"
				Note Time="14" Value="D#3" Duration="2" Instrument="DMC: drums + bass"
				Note Time="16" Value="D#3" Duration="2" Instrument="DMC: drums + bass"
				Note Time="18" Value="D#3" Duration="2" Instrument="DMC: drums + bass"
				Note Time="20" Value="D#3" Duration="2" Instrument="DMC: drums + bass"
				Note Time="22" Value="D#3" Duration="2" Instrument="DMC: drums + bass"
				Note Time="24" Value="D#3" Duration="2" Instrument="DMC: drums + bass"
				Note Time="26" Value="D#3" Duration="2" Instrument="DMC: drums + bass"
				Note Time="28" Value="D#3" Duration="2" Instrument="DMC: drums + bass"
				Note Time="30" Value="D#3" Duration="2" Instrument="DMC: drums + bass"
			PatternInstance Time="8" Pattern="Pattern 2"
			PatternInstance Time="9" Pattern="Pattern 3"
			PatternInstance Time="10" Pattern="Pattern 4"
			PatternInstance Time="11" Pattern="Pattern 5"
		Channel Type="Noise"
			Pattern Name="Pattern 1" Color="fffc69"
				Note Time="0" Value="D2" Duration="2" Instrument="rel hats" Volume="3"
				Note Time="2" Value="D2" Duration="2" Instrument="rel hats" Volume="4"
				Note Time="4" Value="D2" Duration="2" Instrument="rel hats"
				Note Time="6" Value="D2" Duration="2" Instrument="rel hats" Volume="6"
				Note Time="8" Value="D2" Duration="2" Instrument="rel hats"
				Note Time="10" Value="D2" Duration="2" Instrument="rel hats" Volume="7"
				Note Time="12" Value="D2" Duration="2" Instrument="rel hats"
				Note Time="14" Value="D2" Duration="2" Instrument="rel hats" Volume="9"
				Note Time="16" Value="D2" Duration="2" Instrument="rel hats"
				Note Time="18" Value="D2" Duration="2" Instrument="rel hats" Volume="10"
				Note Time="20" Value="D2" Duration="2" Instrument="rel hats"
				Note Time="22" Value="D2" Duration="2" Instrument="rel hats" Volume="11"
				Note Time="24" Value="D2" Duration="2" Instrument="rel hats" Volume="13"
				Note Time="26" Value="D2" Duration="2" Instrument="rel hats"
				Note Time="28" Value="D2" Duration="2" Instrument="rel hats" Volume="15"
				Note Time="30" Value="D2" Duration="2" Instrument="rel hats"
			Pattern Name="Pattern 2" Color="3ca598"
				Note Time="0" Value="D2" Duration="12" Instrument="cymbal"
			PatternInstance Time="3" Pattern="Pattern 1"
			PatternInstance Time="4" Pattern="Pattern 2"
			PatternInstance Time="7" Pattern="Pattern 1"
			PatternInstance Time="8" Pattern="Pattern 2"
		Channel Type="DPCM"
			Pattern Name="Pattern 1" Color="3ce8fd"
				Note Time="0" Value="G3" Duration="2" Instrument="DMC: drums + bass"
				Note Time="2" Value="G3" Duration="2" Instrument="DMC: drums + bass"
				Note Time="4" Value="G3" Duration="2" Instrument="DMC: drums + bass"
				Note Time="6" Value="G3" Duration="2" Instrument="DMC: drums + bass"
				Note Time="8" Value="G3" Duration="2" Instrument="DMC: drums + bass"
				Note Time="10" Value="G3" Duration="2" Instrument="DMC: drums + bass"
				Note Time="12" Value="G3" Duration="2" Instrument="DMC: drums + bass"
				Note Time="14" Value="G3" Duration="2" Instrument="DMC: drums + bass"
				Note Time="16" Value="G3" Duration="2" Instrument="DMC: drums + bass"
				Note Time="18" Value="G3" Duration="2" Instrument="DMC: drums + bass"
				Note Time="20" Value="G3" Duration="2" Instrument="DMC: drums + bass"
				Note Time="22" Value="G3" Duration="2" Instrument="DMC: drums + bass"
				Note Time="24" Value="G3" Duration="2" Instrument="DMC: drums + bass"
				Note Time="26" Value="G3" Duration="2" Instrument="DMC: drums + bass"
				Note Time="28" Value="F3" Duration="2" Instrument="DMC: drums + bass"
				Note Time="30" Value="F3" Duration="2" Instrument="DMC: drums + bass"
			Pattern Name="Pattern 2" Color="ffc83c"
				Note Time="0" Value="G3" Duration="2" Instrument="DMC: drums + bass"
				Note Time="2" Value="G3" Duration="2" Instrument="DMC: drums + bass"
				Note Time="4" Value="G3" Duration="2" Instrument="DMC: drums + bass"
				Note Time="6" Value="G3" Duration="2" Instrument="DMC: drums + bass"
				Note Time="8" Value="G3" Duration="2" Instrument="DMC: drums + bass"
				Note Time="10" Value="G3" Duration="2" Instrument="DMC: drums + bass"
				Note Time="12" Value="G3" Duration="2" Instrument="DMC: drums + bass"
				Note Time="14" Value="G3" Duration="2" Instrument="DMC: drums + bass"
				Note Time="16" Value="F3" Duration="2" Instrument="DMC: drums + bass"
				Note Time="18" Value="F3" Duration="2" Instrument="DMC: drums + bass"
				Note Time="20" Value="F3" Duration="2" Instrument="DMC: drums + bass"
				Note Time="22" Value="F3" Duration="2" Instrument="DMC: drums + bass"
				Note Time="24" Value="F3" Duration="2" Instrument="DMC: drums + bass"
				Note Time="26" Value="F3" Duration="2" Instrument="DMC: drums + bass"
				Note Time="28" Value="F3" Duration="2" Instrument="DMC: drums + bass"
				Note Time="30" Value="F3" Duration="2" Instrument="DMC: drums + bass"
			Pattern Name="Pattern 3" Color="a4db74"
				Note Time="0" Value="D#3" Duration="2" Instrument="DMC: drums + bass"
				Note Time="2" Value="D#3" Duration="2" Instrument="DMC: drums + bass"
				Note Time="4" Value="D#3" Duration="2" Instrument="DMC: drums + bass"
				Note Time="6" Value="D#3" Duration="2" Instrument="DMC: drums + bass"
				Note Time="8" Value="D#3" Duration="2" Instrument="DMC: drums + bass"
				Note Time="10" Value="D#3" Duration="2" Instrument="DMC: drums + bass"
				Note Time="12" Value="D#3" Duration="2" Instrument="DMC: drums + bass"
				Note Time="14" Value="D#3" Duration="2" Instrument="DMC: drums + bass"
				Note Time="16" Value="D#3" Duration="2" Instrument="DMC: drums + bass"
				Note Time="18" Value="D#3" Duration="2" Instrument="DMC: drums + bass"
				Note Time="20" Value="D#3" Duration="2" Instrument="DMC: drums + bass"
				Note Time="22" Value="D#3" Duration="2" Instrument="DMC: drums + bass"
				Note Time="24" Value="D#3" Duration="2" Instrument="DMC: drums + bass"
				Note Time="26" Value="D#3" Duration="2" Instrument="DMC: drums + bass"
				Note Time="28" Value="D#3" Duration="2" Instrument="DMC: drums + bass"
				Note Time="30" Value="D#3" Duration="2" Instrument="DMC: drums + bass"
			Pattern Name="Pattern 4" Color="3eb3f9"
				Note Time="0" Value="D#3" Duration="2" Instrument="DMC: drums + bass"
				Note Time="2" Value="D#3" Duration="2" Instrument="DMC: drums + bass"
				Note Time="4" Value="D#3" Duration="2" Instrument="DMC: drums + bass"
				Note Time="6" Value="D#3" Duration="2" Instrument="DMC: drums + bass"
				Note Time="8" Value="D#3" Duration="2" Instrument="DMC: drums + bass"
				Note Time="10" Value="D#3" Duration="2" Instrument="DMC: drums + bass"
				Note Time="12" Value="D#3" Duration="2" Instrument="DMC: drums + bass"
				Note Time="14" Value="D#3" Duration="2" Instrument="DMC: drums + bass"
				Note Time="16" Value="F3" Duration="2" Instrument="DMC: drums + bass"
				Note Time="18" Value="F3" Duration="2" Instrument="DMC: drums + bass"
				Note Time="20" Value="F3" Duration="2" Instrument="DMC: drums + bass"
				Note Time="22" Value="F3" Duration="2" Instrument="DMC: drums + bass"
				Note Time="24" Value="F3" Duration="2" Instrument="DMC: drums + bass"
				Note Time="26" Value="F3" Duration="2" Instrument="DMC: drums + bass"
				Note Time="28" Value="F3" Duration="2" Instrument="DMC: drums + bass"
				Note Time="30" Value="F3" Duration="2" Instrument="DMC: drums + bass"
			PatternInstance Time="0" Pattern="Pattern 1"
			PatternInstance Time="1" Pattern="Pattern 1"
			PatternInstance Time="2" Pattern="Pattern 1"
			PatternInstance Time="3" Pattern="Pattern 1"
			PatternInstance Time="4" Pattern="Pattern 2"
			PatternInstance Time="5" Pattern="Pattern 3"
			PatternInstance Time="6" Pattern="Pattern 4"
			PatternInstance Time="7" Pattern="Pattern 3"
			PatternInstance Time="8" Pattern="Pattern 2"
			PatternInstance Time="9" Pattern="Pattern 3"
			PatternInstance Time="10" Pattern="Pattern 4"
			PatternInstance Time="11" Pattern="Pattern 3"
	Song Name="infernoplex Extended" Color="ff7f51" Folder="Custom music used in the game" Length="84" LoopPoint="-1" PatternLength="64" BeatLength="4" FamiTrackerTempo="175" FamiTrackerSpeed="3"
		PatternCustomSettings Time="0" Length="32"
		PatternCustomSettings Time="22" Length="32"
		PatternCustomSettings Time="51" Length="64"
		PatternCustomSettings Time="83" Length="16"
		Channel Type="Square1"
			Pattern Name="00" Color="3ca598"
			Pattern Name="01" Color="b5c2ff"
				Note Time="0" Value="C2" Duration="2" Instrument="blank" Volume="10" DutyCycle="0"
				Note Time="4" Value="C2" Duration="2" Instrument="blank"
				Note Time="8" Value="C2" Duration="4" Instrument="blank"
				Note Time="12" Value="G1" Duration="4" Instrument="blank"
				Note Time="16" Value="C2" Duration="4" Instrument="blank"
				Note Time="20" Value="G1" Duration="4" Instrument="blank"
				Note Time="24" Value="C2" Duration="4" Instrument="blank"
				Note Time="28" Value="G1" Duration="4" Instrument="blank"
				Note Time="32" Value="G#1" Duration="2" Instrument="blank"
				Note Time="36" Value="D#2" Duration="2" Instrument="blank"
				Note Time="40" Value="D#2" Duration="4" Instrument="blank"
				Note Time="44" Value="D2" Duration="4" Instrument="blank"
				Note Time="48" Value="G2" Duration="4" Instrument="blank"
				Note Time="52" Value="G#2" Duration="4" Instrument="blank"
				Note Time="56" Value="G2" Duration="4" Instrument="blank"
				Note Time="60" Value="D#2" Duration="4" Instrument="blank"
			Pattern Name="02" Color="ff8f8c"
				Note Time="0" Value="C3" Duration="2" Instrument="blank instant decay" Volume="13" DutyCycle="0"
				Note Time="2" Value="G3" Duration="2" Instrument="sample"
				Note Time="4" Value="C4" Duration="2" Instrument="sample"
				Note Time="6" Value="D4" Duration="2" Instrument="sample"
				Note Time="8" Value="D#4" Duration="2" Instrument="sample"
				Note Time="10" Value="D4" Duration="2" Instrument="sample"
				Note Time="12" Value="C4" Duration="2" Instrument="sample"
				Note Time="14" Value="G3" Duration="2" Instrument="sample"
				Note Time="16" Value="G#3" Duration="2" Instrument="sample"
				Note Time="18" Value="C4" Duration="2" Instrument="sample"
				Note Time="20" Value="G#4" Duration="2" Instrument="sample"
				Note Time="22" Value="G4" Duration="2" Instrument="sample"
				Note Time="24" Value="D#4" Duration="2" Instrument="sample"
				Note Time="26" Value="C4" Duration="2" Instrument="sample"
				Note Time="28" Value="D4" Duration="2" Instrument="sample"
				Note Time="30" Value="A#3" Duration="2" Instrument="sample"
				Note Time="32" Value="G#3" Duration="2" Instrument="sample"
				Note Time="34" Value="G3" Duration="2" Instrument="sample"
				Note Time="36" Value="A#3" Duration="2" Instrument="sample"
				Note Time="38" Value="F3" Duration="2" Instrument="sample"
				Note Time="40" Value="C4" Duration="2" Instrument="sample"
				Note Time="42" Value="D#4" Duration="2" Instrument="sample"
				Note Time="44" Value="D4" Duration="2" Instrument="sample"
				Note Time="46" Value="A#3" Duration="2" Instrument="sample"
				Note Time="48" Value="G3" Duration="2" Instrument="sample"
				Note Time="50" Value="F3" Duration="2" Instrument="sample"
				Note Time="52" Value="A#3" Duration="2" Instrument="sample"
				Note Time="54" Value="F3" Duration="2" Instrument="sample"
				Note Time="56" Value="G#4" Duration="2" Instrument="sample"
				Note Time="58" Value="G4" Duration="2" Instrument="sample"
				Note Time="60" Value="D#4" Duration="2" Instrument="sample"
				Note Time="62" Value="C4" Duration="2" Instrument="sample"
			Pattern Name="03" Color="ffff64"
				Note Time="0" Value="C3" Duration="2" Instrument="sample"
				Note Time="2" Value="D#3" Duration="2" Instrument="sample"
				Note Time="4" Value="G3" Duration="2" Instrument="sample"
				Note Time="6" Value="C4" Duration="2" Instrument="sample"
				Note Time="8" Value="D#3" Duration="2" Instrument="sample"
				Note Time="10" Value="G3" Duration="2" Instrument="sample"
				Note Time="12" Value="C4" Duration="2" Instrument="sample"
				Note Time="14" Value="D4" Duration="2" Instrument="sample"
				Note Time="16" Value="C4" Duration="2" Instrument="sample"
				Note Time="18" Value="D4" Duration="2" Instrument="sample"
				Note Time="20" Value="D#4" Duration="2" Instrument="sample"
				Note Time="22" Value="G4" Duration="2" Instrument="sample"
				Note Time="24" Value="D#4" Duration="2" Instrument="sample"
				Note Time="26" Value="C5" Duration="2" Instrument="sample"
				Note Time="28" Value="G4" Duration="2" Instrument="sample"
				Note Time="30" Value="D#5" Duration="2" Instrument="sample"
				Note Time="32" Value="C5" Duration="2" Instrument="sample"
				Note Time="34" Value="C6" Duration="2" Instrument="sample"
				Note Time="36" Value="C5" Duration="2" Instrument="sample"
				Note Time="38" Value="A#4" Duration="2" Instrument="sample"
				Note Time="40" Value="C5" Duration="2" Instrument="sample"
				Note Time="42" Value="G#5" Duration="2" Instrument="sample"
				Note Time="44" Value="G5" Duration="2" Instrument="sample"
				Note Time="46" Value="D#5" Duration="2" Instrument="sample"
				Note Time="48" Value="C5" Duration="2" Instrument="sample"
				Note Time="50" Value="A#4" Duration="2" Instrument="sample"
				Note Time="52" Value="F4" Duration="2" Instrument="sample"
				Note Time="54" Value="D#4" Duration="2" Instrument="sample"
				Note Time="56" Value="C4" Duration="2" Instrument="sample"
				Note Time="58" Value="F4" Duration="2" Instrument="sample"
				Note Time="60" Value="D#4" Duration="2" Instrument="sample"
				Note Time="62" Value="D4" Duration="2" Instrument="sample"
			Pattern Name="04" Color="88eb8c"
				Note Time="0" Value="C4" Duration="2" Instrument="sample"
				Note Time="2" Value="G3" Duration="2" Instrument="sample"
				Note Time="4" Value="C4" Duration="2" Instrument="sample"
				Note Time="6" Value="D#4" Duration="2" Instrument="sample"
				Note Time="8" Value="D4" Duration="2" Instrument="sample"
				Note Time="10" Value="G3" Duration="2" Instrument="sample"
				Note Time="12" Value="D4" Duration="2" Instrument="sample"
				Note Time="14" Value="F4" Duration="2" Instrument="sample"
				Note Time="16" Value="D#4" Duration="2" Instrument="sample"
				Note Time="18" Value="G3" Duration="2" Instrument="sample"
				Note Time="20" Value="D#4" Duration="2" Instrument="sample"
				Note Time="22" Value="G4" Duration="2" Instrument="sample"
				Note Time="24" Value="F4" Duration="2" Instrument="sample"
				Note Time="26" Value="D4" Duration="2" Instrument="sample"
				Note Time="28" Value="G#4" Duration="2" Instrument="sample"
				Note Time="30" Value="G4" Duration="2" Instrument="sample"
				Note Time="32" Value="A#4" Duration="2" Instrument="sample"
				Note Time="34" Value="G#4" Duration="2" Instrument="sample"
				Note Time="36" Value="G4" Duration="2" Instrument="sample"
				Note Time="38" Value="F4" Duration="2" Instrument="sample"
				Note Time="40" Value="G#4" Duration="2" Instrument="sample"
				Note Time="42" Value="C3" Duration="2" Instrument="sample"
				Note Time="44" Value="D#3" Duration="2" Instrument="sample"
				Note Time="46" Value="G3" Duration="2" Instrument="sample"
				Note Time="48" Value="D#3" Duration="2" Instrument="sample"
				Note Time="50" Value="G3" Duration="2" Instrument="sample"
				Note Time="52" Value="C4" Duration="2" Instrument="sample"
				Note Time="54" Value="G4" Duration="2" Instrument="sample"
				Note Time="56" Value="D#4" Duration="2" Instrument="sample"
				Note Time="58" Value="G4" Duration="2" Instrument="sample"
				Note Time="60" Value="C5" Duration="2" Instrument="sample"
				Note Time="62" Value="D#5" Duration="2" Instrument="sample"
			Pattern Name="05" Color="5ac4ff"
				Note Time="0" Value="G5" Duration="2" Instrument="sample"
				Note Time="2" Value="C6" Duration="2" Instrument="sample"
				Note Time="4" Value="G5" Duration="2" Instrument="sample"
				Note Time="6" Value="G#5" Duration="2" Instrument="sample"
				Note Time="8" Value="C6" Duration="2" Instrument="sample"
				Note Time="10" Value="C5" Duration="2" Instrument="sample"
				Note Time="12" Value="C6" Duration="2" Instrument="sample"
				Note Time="14" Value="G#5" Duration="2" Instrument="sample"
				Note Time="16" Value="G5" Duration="2" Instrument="sample"
				Note Time="18" Value="D#5" Duration="2" Instrument="sample"
				Note Time="20" Value="C5" Duration="2" Instrument="sample"
				Note Time="22" Value="D#5" Duration="2" Instrument="sample"
				Note Time="24" Value="G3" Duration="2" Instrument="blank" Volume="7" DutyCycle="1"
				Note Time="26" Value="D#4" Duration="2" Instrument="blank"
				Note Time="28" Value="D4" Duration="2" Instrument="blank"
				Note Time="30" Value="C4" Duration="2" Instrument="blank"
				Note Time="32" Value="D#4" Duration="2" Instrument="blank"
				Note Time="34" Value="D4" Duration="2" Instrument="blank"
				Note Time="36" Value="G#3" Duration="2" Instrument="blank"
				Note Time="38" Value="G3" Duration="2" Instrument="blank"
				Note Time="40" Value="D4" Duration="2" Instrument="blank"
				Note Time="42" Value="C4" Duration="2" Instrument="blank"
				Note Time="44" Value="G#3" Duration="2" Instrument="blank"
				Note Time="46" Value="G3" Duration="2" Instrument="blank"
				Note Time="48" Value="D#3" Duration="2" Instrument="blank"
				Note Time="50" Value="D3" Duration="2" Instrument="blank"
				Note Time="52" Value="F3" Duration="2" Instrument="blank"
				Note Time="54" Value="D3" Duration="2" Instrument="blank"
				Note Time="56" Value="D#3" Duration="2" Instrument="blank"
				Note Time="58" Value="D3" Duration="2" Instrument="blank"
				Note Time="60" Value="F3" Duration="2" Instrument="blank"
				Note Time="62" Value="D3" Duration="2" Instrument="blank"
			Pattern Name="07" Color="fe5497"
				Note Time="0" Value="C3" Duration="2" Instrument="blank instant decay" Volume="10"
				Note Time="2" Value="C3" Duration="2" Instrument="blank instant decay"
				Note Time="4" Value="C3" Duration="2" Instrument="blank instant decay" Volume="11"
				Note Time="6" Value="C3" Duration="2" Instrument="blank instant decay"
				Note Time="7" Volume="12"
				Note Time="8" Value="C3" Duration="2" Instrument="blank instant decay"
				Note Time="10" Value="C3" Duration="2" Instrument="blank instant decay"
				Note Time="12" Value="C3" Duration="2" Instrument="blank instant decay" Volume="13"
				Note Time="14" Value="C3" Duration="2" Instrument="blank instant decay"
				Note Time="16" Value="C2" Duration="2" Instrument="blank" DutyCycle="1"
				Note Time="18" Value="D#2" Duration="2" Instrument="blank"
				Note Time="20" Value="G2" Duration="2" Instrument="blank"
				Note Time="22" Value="C3" Duration="2" Instrument="blank"
				Note Time="24" Value="D#3" Duration="2" Instrument="blank"
				Note Time="26" Value="G3" Duration="2" Instrument="blank"
				Note Time="28" Value="C4" Duration="2" Instrument="blank" DutyCycle="2"
				Note Time="30" Value="D#4" Duration="2" Instrument="blank"
			Pattern Name="08" Color="ffb83c"
				Note Time="0" Value="G4" Duration="4" Instrument="blank" SlideTarget="G#4" Volume="10"
				Note Time="4" Value="G#4" Duration="28" Instrument="blank" Attack="False"
				Note Time="32" Value="G4" Duration="16" Instrument="blank"
				Note Time="48" Value="D#4" Duration="16" Instrument="blank"
			Pattern Name="09" Color="91c76b"
				Note Time="0" Value="C#4" Duration="32" Instrument="blank"
				Note Time="8" Volume="14"
				Note Time="16" Volume="13"
				Note Time="24" Volume="12"
				Note Time="32" Value="C4" Duration="32" Instrument="blank" Volume="11"
				Note Time="36" Volume="10"
				Note Time="40" Volume="9"
				Note Time="44" Volume="8"
				Note Time="48" Volume="7"
				Note Time="52" Volume="6"
				Note Time="56" Volume="5"
				Note Time="60" Volume="4"
				Note Time="61" Volume="3"
				Note Time="62" Volume="2"
				Note Time="63" Volume="1"
			Pattern Name="0A" Color="8bffff"
				Note Time="0" Value="F4" Duration="2" Instrument="blank instant decay" Volume="5" DutyCycle="2"
				Note Time="2" Value="C4" Duration="2" Instrument="blank instant decay"
				Note Time="4" Value="G#3" Duration="2" Instrument="blank instant decay"
				Note Time="6" Value="F3" Duration="2" Instrument="blank instant decay"
				Note Time="8" Value="C#4" Duration="2" Instrument="blank instant decay"
				Note Time="10" Value="C4" Duration="2" Instrument="blank instant decay"
				Note Time="12" Value="G#3" Duration="2" Instrument="blank instant decay"
				Note Time="14" Value="F3" Duration="2" Instrument="blank instant decay"
				Note Time="16" Value="F4" Duration="2" Instrument="blank instant decay"
				Note Time="18" Value="C4" Duration="2" Instrument="blank instant decay"
				Note Time="20" Value="G#3" Duration="2" Instrument="blank instant decay"
				Note Time="22" Value="F3" Duration="2" Instrument="blank instant decay"
				Note Time="24" Value="C3" Duration="2" Instrument="blank instant decay"
				Note Time="26" Value="F3" Duration="2" Instrument="blank instant decay"
				Note Time="28" Value="G#3" Duration="2" Instrument="blank instant decay"
				Note Time="30" Value="C4" Duration="2" Instrument="blank instant decay"
				Note Time="32" Value="A#3" Duration="2" Instrument="blank instant decay"
				Note Time="34" Value="G3" Duration="2" Instrument="blank instant decay"
				Note Time="36" Value="D#3" Duration="2" Instrument="blank instant decay"
				Note Time="38" Value="A#2" Duration="2" Instrument="blank instant decay"
				Note Time="40" Value="A#3" Duration="2" Instrument="blank instant decay"
				Note Time="42" Value="G3" Duration="2" Instrument="blank instant decay"
				Note Time="44" Value="D#3" Duration="2" Instrument="blank instant decay"
				Note Time="46" Value="A#2" Duration="2" Instrument="blank instant decay"
				Note Time="48" Value="D#4" Duration="2" Instrument="blank instant decay"
				Note Time="50" Value="A#3" Duration="2" Instrument="blank instant decay"
				Note Time="52" Value="G3" Duration="2" Instrument="blank instant decay"
				Note Time="54" Value="D#3" Duration="2" Instrument="blank instant decay"
				Note Time="56" Value="A#2" Duration="2" Instrument="blank instant decay"
				Note Time="58" Value="D#3" Duration="2" Instrument="blank instant decay"
				Note Time="60" Value="G3" Duration="2" Instrument="blank instant decay"
				Note Time="62" Value="A#3" Duration="2" Instrument="blank instant decay"
			Pattern Name="0B" Color="e783f8"
				Note Time="0" Value="G#3" Duration="2" Instrument="blank instant decay"
				Note Time="2" Value="F3" Duration="2" Instrument="blank instant decay"
				Note Time="4" Value="C#3" Duration="2" Instrument="blank instant decay"
				Note Time="6" Value="G#2" Duration="2" Instrument="blank instant decay"
				Note Time="8" Value="C#3" Duration="2" Instrument="blank instant decay"
				Note Time="10" Value="F3" Duration="2" Instrument="blank instant decay"
				Note Time="12" Value="C#3" Duration="2" Instrument="blank instant decay"
				Note Time="14" Value="G#2" Duration="2" Instrument="blank instant decay"
				Note Time="16" Value="C#4" Duration="2" Instrument="blank instant decay"
				Note Time="18" Value="G#3" Duration="2" Instrument="blank instant decay"
				Note Time="20" Value="F3" Duration="2" Instrument="blank instant decay"
				Note Time="22" Value="G#2" Duration="2" Instrument="blank instant decay"
				Note Time="24" Value="C#3" Duration="2" Instrument="blank instant decay"
				Note Time="26" Value="F3" Duration="2" Instrument="blank instant decay"
				Note Time="28" Value="G#3" Duration="2" Instrument="blank instant decay"
				Note Time="30" Value="C#4" Duration="2" Instrument="blank instant decay"
				Note Time="32" Value="C4" Duration="2" Instrument="blank instant decay"
				Note Time="34" Value="D#4" Duration="2" Instrument="blank instant decay"
				Note Time="36" Value="G3" Duration="2" Instrument="blank instant decay"
				Note Time="38" Value="C4" Duration="2" Instrument="blank instant decay"
				Note Time="40" Value="D#4" Duration="2" Instrument="blank instant decay"
				Note Time="42" Value="G3" Duration="2" Instrument="blank instant decay"
				Note Time="44" Value="C4" Duration="2" Instrument="blank instant decay"
				Note Time="46" Value="D#4" Duration="2" Instrument="blank instant decay"
				Note Time="48" Value="E4" Duration="2" Instrument="blank instant decay"
				Note Time="50" Value="C4" Duration="2" Instrument="blank instant decay"
				Note Time="52" Value="G#3" Duration="2" Instrument="blank instant decay"
				Note Time="54" Value="E3" Duration="2" Instrument="blank instant decay"
				Note Time="56" Value="C3" Duration="2" Instrument="blank instant decay"
				Note Time="58" Value="G3" Duration="2" Instrument="blank instant decay"
				Note Time="60" Value="C4" Duration="2" Instrument="blank instant decay"
				Note Time="62" Value="E4" Duration="2" Instrument="blank instant decay"
			Pattern Name="0C" Color="ffac7f"
				Note Time="0" Value="F4" Duration="12" Instrument="blank string" Volume="13" DutyCycle="0"
				Note Time="12" Value="C4" Duration="4" Instrument="blank string"
				Note Time="16" Value="G#4" Duration="8" Instrument="blank string"
				Note Time="24" Value="G4" Duration="4" Instrument="blank string"
				Note Time="28" Value="F4" Duration="4" Instrument="blank string"
				Note Time="32" Value="D#4" Duration="8" Instrument="blank string"
				Note Time="40" Value="A#3" Duration="4" Instrument="blank string"
				Note Time="44" Value="D#4" Duration="4" Instrument="blank string"
				Note Time="48" Value="A#3" Duration="16" Release="8" Instrument="blank string"
			Pattern Name="0D" Color="ffff75"
				Note Time="0" Value="G#3" Duration="4" Instrument="blank string"
				Note Time="4" Value="C#4" Duration="4" Instrument="blank string"
				Note Time="8" Value="G3" Duration="4" Instrument="blank string"
				Note Time="12" Value="G#3" Duration="4" Instrument="blank string"
				Note Time="16" Value="C#4" Duration="4" Instrument="blank string"
				Note Time="20" Value="G#3" Duration="4" Instrument="blank string"
				Note Time="24" Value="G3" Duration="4" Instrument="blank string"
				Note Time="28" Value="F3" Duration="4" Instrument="blank string"
				Note Time="32" Value="E3" Duration="4" Instrument="blank string"
				Note Time="36" Value="C4" Duration="4" Instrument="blank string"
				Note Time="40" Value="C3" Duration="4" Instrument="blank string"
				Note Time="44" Value="E3" Duration="4" Instrument="blank string"
				Note Time="48" Value="A#3" Duration="4" Instrument="blank string"
				Note Time="52" Value="G3" Duration="4" Instrument="blank string"
				Note Time="56" Value="G#3" Duration="8" Instrument="blank string"
			Pattern Name="0E" Color="3ce8fd"
				Note Time="0" Value="F4" Duration="12" Instrument="blank string"
				Note Time="12" Value="G4" Duration="4" Instrument="blank string"
				Note Time="16" Value="G#4" Duration="8" Instrument="blank string"
				Note Time="24" Value="G4" Duration="4" Instrument="blank string"
				Note Time="28" Value="G#4" Duration="4" Instrument="blank string"
				Note Time="32" Value="A#4" Duration="12" Instrument="blank string"
				Note Time="44" Value="G4" Duration="4" Instrument="blank string"
				Note Time="48" Value="D#4" Duration="4" Instrument="blank string"
				Note Time="52" Value="G4" Duration="4" Instrument="blank string"
				Note Time="56" Value="C#5" Duration="4" Instrument="blank string"
				Note Time="60" Value="C5" Duration="4" Instrument="blank string"
			Pattern Name="0F" Color="8d69e4"
				Note Time="0" Value="G#4" Duration="4" Instrument="blank string"
				Note Time="4" Value="F4" Duration="4" Instrument="blank string"
				Note Time="8" Value="G4" Duration="4" Instrument="blank string"
				Note Time="12" Value="D#4" Duration="4" Instrument="blank string"
				Note Time="16" Value="F4" Duration="4" Instrument="blank string"
				Note Time="20" Value="C#4" Duration="4" Instrument="blank string"
				Note Time="24" Value="D#4" Duration="4" Instrument="blank string"
				Note Time="28" Value="C4" Duration="4" Instrument="blank string"
				Note Time="32" Value="C4" Duration="12" Instrument="blank string" SlideTarget="D#3" Attack="False"
				Note Time="44" Value="D#3" Duration="10" Instrument="blank string" SlideTarget="D#4" Attack="False"
				Note Time="54" Value="D#4" Duration="10" Instrument="blank string" Attack="False"
			Pattern Name="10" Color="997c73"
				Note Time="0" Value="C3" Duration="12" Instrument="blank" DutyCycle="0"
				Note Time="12" Value="F3" Duration="8" Instrument="blank"
				Note Time="20" Value="G#3" Duration="4" Instrument="blank"
				Note Time="24" Value="G3" Duration="4" Instrument="blank"
				Note Time="28" Value="G#3" Duration="4" Instrument="blank"
				Note Time="32" Value="G3" Duration="12" Instrument="blank"
				Note Time="44" Value="G#3" Duration="8" Instrument="blank"
				Note Time="52" Value="A#3" Duration="4" Instrument="blank"
				Note Time="56" Value="G#3" Duration="4" Instrument="blank"
				Note Time="60" Value="G3" Duration="4" Instrument="blank"
			Pattern Name="11" Color="ffe461"
				Note Time="0" Value="F3" Duration="12" Instrument="blank"
				Note Time="12" Value="C3" Duration="2" Instrument="blank"
				Note Time="14" Value="G#3" Duration="2" Instrument="blank"
				Note Time="16" Value="D#4" Duration="2" Instrument="blank"
				Note Time="18" Value="C4" Duration="2" Instrument="blank"
				Note Time="20" Value="G#3" Duration="2" Instrument="blank"
				Note Time="22" Value="F3" Duration="2" Instrument="blank"
				Note Time="24" Value="G#3" Duration="2" Instrument="blank"
				Note Time="26" Value="C4" Duration="2" Instrument="blank"
				Note Time="28" Value="D#4" Duration="2" Instrument="blank"
				Note Time="30" Value="G#4" Duration="2" Instrument="blank"
				Note Time="32" Value="C#5" Duration="2" Instrument="blank"
				Note Time="34" Value="C5" Duration="2" Instrument="blank"
				Note Time="36" Value="G#4" Duration="2" Instrument="blank"
				Note Time="38" Value="F4" Duration="2" Instrument="blank"
				Note Time="40" Value="C4" Duration="2" Instrument="blank"
				Note Time="42" Value="G#3" Duration="2" Instrument="blank"
				Note Time="44" Value="C4" Duration="2" Instrument="blank"
				Note Time="46" Value="E4" Duration="2" Instrument="blank"
				Note Time="48" Value="C4" Duration="2" Instrument="blank"
				Note Time="50" Value="C4" Duration="4" Instrument="blank" SlideTarget="E4" Attack="False"
				Note Time="54" Value="E4" Duration="2" Instrument="blank" Attack="False"
				Note Time="56" Value="C4" Duration="2" Instrument="blank"
				Note Time="58" Value="G#3" Duration="2" Instrument="blank"
				Note Time="60" Value="E3" Duration="2" Instrument="blank"
				Note Time="62" Value="C3" Duration="2" Instrument="blank"
			Pattern Name="12" Color="89f2e8"
				Note Time="4" Value="G#3" Duration="8" Instrument="blank"
				Note Time="12" Value="A#3" Duration="8" Instrument="blank"
				Note Time="20" Value="C4" Duration="8" Instrument="blank"
				Note Time="28" Value="D#4" Duration="4" Instrument="blank"
				Note Time="32" Value="A#3" Duration="12" Instrument="blank"
				Note Time="44" Value="C4" Duration="8" Instrument="blank"
				Note Time="52" Value="C#4" Duration="8" Instrument="blank"
				Note Time="60" Value="F4" Duration="4" Instrument="blank"
			Pattern Name="13" Color="98a7fc"
				Note Time="0" Value="G#4" Duration="2" Instrument="blank"
				Note Time="2" Value="F4" Duration="2" Instrument="blank"
				Note Time="4" Value="C#4" Duration="2" Instrument="blank"
				Note Time="6" Value="G#3" Duration="2" Instrument="blank"
				Note Time="8" Value="F3" Duration="2" Instrument="blank"
				Note Time="10" Value="G#3" Duration="2" Instrument="blank"
				Note Time="12" Value="C#4" Duration="2" Instrument="blank"
				Note Time="14" Value="D#4" Duration="2" Instrument="blank"
				Note Time="16" Value="F4" Duration="2" Instrument="blank"
				Note Time="18" Value="C4" Duration="2" Instrument="blank"
				Note Time="20" Value="G4" Duration="2" Instrument="blank"
				Note Time="22" Value="C4" Duration="2" Instrument="blank"
				Note Time="24" Value="G#4" Duration="2" Instrument="blank"
				Note Time="26" Value="F4" Duration="2" Instrument="blank"
				Note Time="28" Value="C4" Duration="2" Instrument="blank"
				Note Time="30" Value="G4" Duration="2" Instrument="blank"
				Note Time="32" Value="G4" Duration="2" Instrument="blank"
				Note Time="34" Value="G4" Duration="2" Instrument="blank" SlideTarget="G4" Attack="False"
				Note Time="36" Value="G4" Duration="7" Instrument="blank" SlideTarget="G#4" Attack="False"
				Note Time="43" Value="G#4" Duration="1" Instrument="blank" Attack="False"
				Note Time="44" Value="G4" Duration="2" Instrument="blank"
				Note Time="46" Value="F4" Duration="2" Instrument="blank"
				Note Time="48" Value="G#4" Duration="4" Instrument="blank"
				Note Time="52" Value="C5" Duration="4" Instrument="blank"
				Note Time="56" Value="G4" Duration="4" Instrument="blank"
				Note Time="60" Value="G#4" Duration="4" Instrument="blank"
			Pattern Name="14" Color="ff7f72"
				Note Time="0" Value="F4" Duration="12" Instrument="blank"
				Note Time="12" Value="C4" Duration="8" Instrument="blank"
				Note Time="20" Value="G4" Duration="8" Instrument="blank"
				Note Time="28" Value="G#4" Duration="4" Instrument="blank"
				Note Time="32" Value="G4" Duration="12" Instrument="blank"
				Note Time="44" Value="C4" Duration="8" Instrument="blank"
				Note Time="52" Value="G4" Duration="8" Instrument="blank"
				Note Time="60" Value="A#4" Duration="4" Instrument="blank"
			Pattern Name="15" Color="fffd43"
				Note Time="0" Value="G#4" Duration="8" Instrument="blank"
				Note Time="8" Value="F4" Duration="8" Instrument="blank"
				Note Time="16" Value="G#4" Duration="8" Instrument="blank"
				Note Time="24" Value="A#4" Duration="8" Instrument="blank"
				Note Time="32" Value="G4" Duration="8" Instrument="blank"
				Note Time="40" Value="F4" Duration="8" Instrument="blank"
				Note Time="48" Value="E4" Duration="8" Instrument="blank"
				Note Time="56" Value="G4" Duration="4" Instrument="blank" SlideTarget="G#4"
				Note Time="60" Value="G#4" Duration="24" Instrument="blank" Attack="False"
			Pattern Name="3" Color="ffcb3c"
				Note Time="0" Value="C#3" Duration="2" Instrument="blank instant decay" Volume="13" DutyCycle="0"
				Note Time="2" Value="G#3" Duration="2" Instrument="sample"
				Note Time="4" Value="C#4" Duration="2" Instrument="sample"
				Note Time="6" Value="D#4" Duration="2" Instrument="sample"
				Note Time="8" Value="E4" Duration="2" Instrument="sample"
				Note Time="10" Value="D#4" Duration="2" Instrument="sample"
				Note Time="12" Value="C#4" Duration="2" Instrument="sample"
				Note Time="14" Value="G#3" Duration="2" Instrument="sample"
				Note Time="16" Value="A3" Duration="2" Instrument="sample"
				Note Time="18" Value="C#4" Duration="2" Instrument="sample"
				Note Time="20" Value="A4" Duration="2" Instrument="sample"
				Note Time="22" Value="G#4" Duration="2" Instrument="sample"
				Note Time="24" Value="E4" Duration="2" Instrument="sample"
				Note Time="26" Value="C#4" Duration="2" Instrument="sample"
				Note Time="28" Value="D#4" Duration="2" Instrument="sample"
				Note Time="30" Value="B3" Duration="2" Instrument="sample"
				Note Time="32" Value="A3" Duration="2" Instrument="sample"
				Note Time="34" Value="G#3" Duration="2" Instrument="sample"
				Note Time="36" Value="B3" Duration="2" Instrument="sample"
				Note Time="38" Value="F#3" Duration="2" Instrument="sample"
				Note Time="40" Value="C#4" Duration="2" Instrument="sample"
				Note Time="42" Value="E4" Duration="2" Instrument="sample"
				Note Time="44" Value="D#4" Duration="2" Instrument="sample"
				Note Time="46" Value="B3" Duration="2" Instrument="sample"
				Note Time="48" Value="G#3" Duration="2" Instrument="sample"
				Note Time="50" Value="F#3" Duration="2" Instrument="sample"
				Note Time="52" Value="B3" Duration="2" Instrument="sample"
				Note Time="54" Value="F#3" Duration="2" Instrument="sample"
				Note Time="56" Value="A4" Duration="2" Instrument="sample"
				Note Time="58" Value="G#4" Duration="2" Instrument="sample"
				Note Time="60" Value="E4" Duration="2" Instrument="sample"
				Note Time="62" Value="C#4" Duration="2" Instrument="sample"
			Pattern Name="4" Color="7ee1ff"
				Note Time="0" Value="C#3" Duration="2" Instrument="sample"
				Note Time="2" Value="E3" Duration="2" Instrument="sample"
				Note Time="4" Value="G#3" Duration="2" Instrument="sample"
				Note Time="6" Value="C#4" Duration="2" Instrument="sample"
				Note Time="8" Value="E3" Duration="2" Instrument="sample"
				Note Time="10" Value="G#3" Duration="2" Instrument="sample"
				Note Time="12" Value="C#4" Duration="2" Instrument="sample"
				Note Time="14" Value="D#4" Duration="2" Instrument="sample"
				Note Time="16" Value="C#4" Duration="2" Instrument="sample"
				Note Time="18" Value="D#4" Duration="2" Instrument="sample"
				Note Time="20" Value="E4" Duration="2" Instrument="sample"
				Note Time="22" Value="G#4" Duration="2" Instrument="sample"
				Note Time="24" Value="E4" Duration="2" Instrument="sample"
				Note Time="26" Value="C#5" Duration="2" Instrument="sample"
				Note Time="28" Value="G#4" Duration="2" Instrument="sample"
				Note Time="30" Value="E5" Duration="2" Instrument="sample"
				Note Time="32" Value="C#5" Duration="2" Instrument="sample"
				Note Time="34" Value="C#6" Duration="2" Instrument="sample"
				Note Time="36" Value="C#5" Duration="2" Instrument="sample"
				Note Time="38" Value="B4" Duration="2" Instrument="sample"
				Note Time="40" Value="C#5" Duration="2" Instrument="sample"
				Note Time="42" Value="A5" Duration="2" Instrument="sample"
				Note Time="44" Value="G#5" Duration="2" Instrument="sample"
				Note Time="46" Value="E5" Duration="2" Instrument="sample"
				Note Time="48" Value="C#5" Duration="2" Instrument="sample"
				Note Time="50" Value="B4" Duration="2" Instrument="sample"
				Note Time="52" Value="F#4" Duration="2" Instrument="sample"
				Note Time="54" Value="E4" Duration="2" Instrument="sample"
				Note Time="56" Value="C#4" Duration="2" Instrument="sample"
				Note Time="58" Value="F#4" Duration="2" Instrument="sample"
				Note Time="60" Value="E4" Duration="2" Instrument="sample"
				Note Time="62" Value="D#4" Duration="2" Instrument="sample"
			Pattern Name="5" Color="ffd43c"
				Note Time="0" Value="C#4" Duration="2" Instrument="sample"
				Note Time="2" Value="G#3" Duration="2" Instrument="sample"
				Note Time="4" Value="C#4" Duration="2" Instrument="sample"
				Note Time="6" Value="E4" Duration="2" Instrument="sample"
				Note Time="8" Value="D#4" Duration="2" Instrument="sample"
				Note Time="10" Value="G#3" Duration="2" Instrument="sample"
				Note Time="12" Value="D#4" Duration="2" Instrument="sample"
				Note Time="14" Value="F#4" Duration="2" Instrument="sample"
				Note Time="16" Value="E4" Duration="2" Instrument="sample"
				Note Time="18" Value="G#3" Duration="2" Instrument="sample"
				Note Time="20" Value="E4" Duration="2" Instrument="sample"
				Note Time="22" Value="G#4" Duration="2" Instrument="sample"
				Note Time="24" Value="F#4" Duration="2" Instrument="sample"
				Note Time="26" Value="D#4" Duration="2" Instrument="sample"
				Note Time="28" Value="A4" Duration="2" Instrument="sample"
				Note Time="30" Value="G#4" Duration="2" Instrument="sample"
				Note Time="32" Value="B4" Duration="2" Instrument="sample"
				Note Time="34" Value="A4" Duration="2" Instrument="sample"
				Note Time="36" Value="G#4" Duration="2" Instrument="sample"
				Note Time="38" Value="F#4" Duration="2" Instrument="sample"
				Note Time="40" Value="A4" Duration="2" Instrument="sample"
				Note Time="42" Value="C#3" Duration="2" Instrument="sample"
				Note Time="44" Value="E3" Duration="2" Instrument="sample"
				Note Time="46" Value="G#3" Duration="2" Instrument="sample"
				Note Time="48" Value="E3" Duration="2" Instrument="sample"
				Note Time="50" Value="G#3" Duration="2" Instrument="sample"
				Note Time="52" Value="C#4" Duration="2" Instrument="sample"
				Note Time="54" Value="G#4" Duration="2" Instrument="sample"
				Note Time="56" Value="E4" Duration="2" Instrument="sample"
				Note Time="58" Value="G#4" Duration="2" Instrument="sample"
				Note Time="60" Value="C#5" Duration="2" Instrument="sample"
				Note Time="62" Value="E5" Duration="2" Instrument="sample"
			Pattern Name="16" Color="5ac4ff"
				Note Time="0" Value="G#5" Duration="2" Instrument="sample"
				Note Time="2" Value="C#6" Duration="2" Instrument="sample"
				Note Time="4" Value="G#5" Duration="2" Instrument="sample"
				Note Time="6" Value="A5" Duration="2" Instrument="sample"
				Note Time="8" Value="C#6" Duration="2" Instrument="sample"
				Note Time="10" Value="C#5" Duration="2" Instrument="sample"
				Note Time="12" Value="C#6" Duration="2" Instrument="sample"
				Note Time="14" Value="A5" Duration="2" Instrument="sample"
				Note Time="16" Value="G#5" Duration="2" Instrument="sample"
				Note Time="18" Value="E5" Duration="2" Instrument="sample"
				Note Time="20" Value="C#5" Duration="2" Instrument="sample"
				Note Time="22" Value="E5" Duration="2" Instrument="sample"
				Note Time="24" Value="G#3" Duration="2" Instrument="blank" Volume="7" DutyCycle="1"
				Note Time="26" Value="E4" Duration="2" Instrument="blank"
				Note Time="28" Value="D#4" Duration="2" Instrument="blank"
				Note Time="30" Value="C#4" Duration="2" Instrument="blank"
				Note Time="32" Value="E4" Duration="2" Instrument="blank"
				Note Time="34" Value="D#4" Duration="2" Instrument="blank"
				Note Time="36" Value="A3" Duration="2" Instrument="blank"
				Note Time="38" Value="G#3" Duration="2" Instrument="blank"
				Note Time="40" Value="F#4" Duration="2" Instrument="blank"
				Note Time="42" Value="C#4" Duration="2" Instrument="blank"
				Note Time="44" Value="A3" Duration="2" Instrument="blank"
				Note Time="46" Value="G#3" Duration="2" Instrument="blank"
				Note Time="48" Value="G#4" Duration="2" Instrument="blank"
				Note Time="50" Value="E4" Duration="2" Instrument="blank"
				Note Time="52" Value="D#4" Duration="2" Instrument="blank"
				Note Time="54" Value="B3" Duration="2" Instrument="blank"
				Note Time="56" Value="G#3" Duration="2" Instrument="blank"
				Note Time="58" Value="F#3" Duration="2" Instrument="blank"
				Note Time="60" Value="E3" Duration="2" Instrument="blank"
				Note Time="62" Value="D#3" Duration="2" Instrument="blank"
			Pattern Name="2" Color="a657d6"
				Note Time="32" Value="F5" Duration="3" Instrument="blank"
				Note Time="35" Value="F5" Duration="9" Instrument="blank" SlideTarget="E5"
				Note Time="44" Value="E5" Duration="9" Instrument="blank" SlideTarget="D#5"
				Note Time="53" Value="D#5" Duration="8" Instrument="blank" SlideTarget="D5"
				Note Time="61" Value="D5" Duration="9" Instrument="blank" SlideTarget="C#5"
			Pattern Name="Pattern 1" Color="ff7f51"
				Note Time="0" Value="C#5" Duration="64" Instrument="blank"
			Pattern Name="6" Color="3ec4ff"
				Note Time="0" Value="A3" Duration="4" Instrument="blank" Volume="7" DutyCycle="1"
				Note Time="4" Value="C4" Duration="4" Instrument="blank"
				Note Time="8" Value="A3" Duration="4" Instrument="blank" Volume="7" DutyCycle="1"
				Note Time="12" Value="C4" Duration="4" Instrument="blank"
				Note Time="16" Value="A3" Duration="4" Instrument="blank" Volume="7" DutyCycle="1"
				Note Time="20" Value="C4" Duration="4" Instrument="blank"
				Note Time="24" Value="A3" Duration="4" Instrument="blank" Volume="7" DutyCycle="1"
				Note Time="28" Value="C4" Duration="4" Instrument="blank"
				Note Time="32" Value="A3" Duration="4" Instrument="blank" Volume="7" DutyCycle="1"
				Note Time="36" Value="C4" Duration="4" Instrument="blank"
				Note Time="40" Value="A3" Duration="4" Instrument="blank" Volume="7" DutyCycle="1"
				Note Time="44" Value="C4" Duration="4" Instrument="blank"
				Note Time="48" Value="A3" Duration="4" Instrument="blank" Volume="7" DutyCycle="1"
				Note Time="52" Value="C4" Duration="4" Instrument="blank"
				Note Time="56" Value="A3" Duration="4" Instrument="blank" Volume="7" DutyCycle="1"
				Note Time="60" Value="C4" Duration="4" Instrument="blank"
			Pattern Name="7" Color="ba93fe"
				Note Time="0" Value="G3" Duration="4" Instrument="blank" Volume="7" DutyCycle="1"
				Note Time="4" Value="C4" Duration="4" Instrument="blank"
				Note Time="8" Value="G3" Duration="4" Instrument="blank" Volume="7" DutyCycle="1"
				Note Time="12" Value="C4" Duration="4" Instrument="blank"
				Note Time="16" Value="G3" Duration="4" Instrument="blank" Volume="7" DutyCycle="1"
				Note Time="20" Value="C4" Duration="4" Instrument="blank"
				Note Time="24" Value="G3" Duration="4" Instrument="blank" Volume="7" DutyCycle="1"
				Note Time="28" Value="C4" Duration="4" Instrument="blank"
				Note Time="32" Value="C5" Duration="4" Instrument="blank" Volume="7" DutyCycle="1"
				Note Time="36" Value="A#4" Duration="4" Instrument="blank"
				Note Time="40" Value="A4" Duration="4" Instrument="blank" Volume="7" DutyCycle="1"
				Note Time="44" Value="A#4" Duration="4" Instrument="blank"
				Note Time="48" Value="A4" Duration="4" Instrument="blank" Volume="7" DutyCycle="1"
				Note Time="52" Value="G4" Duration="4" Instrument="blank"
			Pattern Name="26" Color="89f2e8"
				Note Time="32" Value="C4" Duration="4" Instrument="blank" Attack="False"
				Note Time="36" Value="A#3" Duration="4" Instrument="blank" Attack="False"
				Note Time="40" Value="A3" Duration="4" Instrument="blank" Attack="False"
				Note Time="44" Value="A#3" Duration="4" Instrument="blank" Attack="False"
				Note Time="47" Volume="10"
				Note Time="48" Value="A3" Duration="4" Instrument="blank" Attack="False"
				Note Time="51" Volume="10"
				Note Time="52" Value="G3" Duration="4" Instrument="blank" Attack="False"
				Note Time="56" Value="D3" Duration="4" Instrument="blank" Attack="False"
				Note Time="60" Value="E3" Duration="4" Instrument="blank" Attack="False"
			Pattern Name="22" Color="ff7f72"
				Note Time="0" Value="F3" Duration="28" Instrument="blank" Attack="False" Volume="10"
				Note Time="28" Value="E3" Duration="4" Instrument="blank" Attack="False"
				Note Time="30" Value="D3" Duration="2" Instrument="blank" Attack="False"
				Note Time="32" Value="A2" Duration="20" Instrument="blank" Attack="False" Volume="10"
				Note Time="52" Value="F2" Duration="4" Instrument="blank" Attack="False"
				Note Time="56" Value="A2" Duration="4" Instrument="blank" Attack="False"
				Note Time="60" Value="A#2" Duration="4" Instrument="blank" Attack="False"
			Pattern Name="23" Color="7fdc83"
				Note Time="0" Value="A2" Duration="12" Instrument="blank" Attack="False" Volume="10"
				Note Time="12" Value="F3" Duration="4" Instrument="blank" Attack="False" Volume="10"
				Note Time="15" Volume="10"
				Note Time="16" Value="C4" Duration="4" Instrument="blank" Attack="False"
				Note Time="19" Volume="10"
				Note Time="20" Value="F2" Duration="4" Instrument="blank" Attack="False"
				Note Time="22" Volume="10"
				Note Time="24" Value="A2" Duration="4" Instrument="blank" Attack="False"
				Note Time="26" Volume="10"
				Note Time="28" Value="A#2" Duration="4" Instrument="blank" Attack="False"
				Note Time="32" Value="A2" Duration="8" Instrument="blank" Attack="False" Volume="10"
				Note Time="40" Value="F2" Duration="4" Instrument="blank" Attack="False"
				Note Time="44" Value="F3" Duration="4" Instrument="blank" Attack="False" Volume="10"
				Note Time="47" Volume="10"
				Note Time="48" Value="C4" Duration="4" Instrument="blank" Attack="False"
				Note Time="51" Volume="10"
				Note Time="52" Value="A2" Duration="4" Instrument="blank" Attack="False"
				Note Time="56" Value="F2" Duration="4" Instrument="blank" Attack="False"
				Note Time="60" Value="C3" Duration="4" Instrument="blank" Attack="False"
			Pattern Name="24" Color="e95093"
				Note Time="0" Value="F2" Duration="12" Instrument="blank" Attack="False" Volume="10"
				Note Time="12" Value="F3" Duration="12" Instrument="blank" Attack="False" Volume="10"
				Note Time="15" Volume="10"
				Note Time="19" Volume="10"
				Note Time="22" Volume="10"
				Note Time="24" Value="C3" Duration="8" Instrument="blank" Attack="False"
				Note Time="26" Volume="10"
				Note Time="32" Value="G3" Duration="4" Instrument="blank" Attack="False"
				Note Time="36" Value="A3" Duration="4" Instrument="blank" Attack="False"
				Note Time="40" Value="F3" Duration="8" Instrument="blank" Attack="False"
				Note Time="44" Volume="10"
				Note Time="47" Volume="10"
				Note Time="48" Value="C3" Duration="8" Instrument="blank" Attack="False"
				Note Time="51" Volume="10"
				Note Time="56" Value="A3" Duration="8" Instrument="blank" Attack="False"
			Pattern Name="25" Color="eaffbd"
				Note Time="0" Value="G3" Duration="16" Instrument="blank" Attack="False" Volume="10"
				Note Time="16" Value="E3" Duration="16" Instrument="blank" Attack="False" Volume="10"
				Note Time="19" Volume="10"
				Note Time="22" Volume="10"
				Note Time="32" Value="F3" Duration="16" Instrument="blank" Attack="False" Volume="10"
				Note Time="35" Volume="10"
				Note Time="48" Value="E3" Duration="4" Instrument="blank" Attack="False" Volume="10"
				Note Time="51" Volume="10"
				Note Time="52" Value="F3" Duration="4" Instrument="blank" Attack="False" Volume="10"
				Note Time="56" Value="E3" Duration="4" Instrument="blank" Attack="False" Volume="10"
				Note Time="60" Value="C3" Duration="4" Instrument="blank" Attack="False" Volume="10"
			Pattern Name="27" Color="fff389"
				Note Time="0" Value="D3" Duration="64" Instrument="blank" Attack="False" Volume="10"
			Pattern Name="28" Color="3fd7ff"
				Note Time="0" Volume="10"
				Note Time="48" Value="A3" Duration="4" Instrument="blank" Attack="False"
				Note Time="52" Value="A#3" Duration="4" Instrument="blank" Attack="False"
				Note Time="56" Value="A3" Duration="4" Instrument="blank" Attack="False"
				Note Time="60" Value="F3" Duration="4" Instrument="blank" Attack="False"
			Pattern Name="8" Color="ff5a9f"
				Note Time="0" Value="D2" Duration="2" Instrument="blank" Volume="10" DutyCycle="0"
				Note Time="4" Value="D2" Duration="2" Instrument="blank"
				Note Time="8" Value="D2" Duration="4" Instrument="blank"
				Note Time="12" Value="A1" Duration="4" Instrument="blank"
				Note Time="16" Value="D2" Duration="4" Instrument="blank"
				Note Time="20" Value="A1" Duration="4" Instrument="blank"
				Note Time="24" Value="D2" Duration="4" Instrument="blank"
				Note Time="28" Value="A1" Duration="4" Instrument="blank"
				Note Time="32" Value="A#1" Duration="2" Instrument="blank"
				Note Time="36" Value="F2" Duration="2" Instrument="blank"
				Note Time="40" Value="F2" Duration="4" Instrument="blank"
				Note Time="44" Value="E2" Duration="4" Instrument="blank"
				Note Time="48" Value="A2" Duration="4" Instrument="blank"
				Note Time="52" Value="A#2" Duration="4" Instrument="blank"
				Note Time="56" Value="A2" Duration="4" Instrument="blank"
				Note Time="60" Value="F2" Duration="4" Instrument="blank"
			Pattern Name="29" Color="8bffff"
				Note Time="0" Value="D2" Duration="8" Instrument="blank" Volume="10" DutyCycle="0"
			PatternInstance Time="0" Pattern="00"
			PatternInstance Time="1" Pattern="01"
			PatternInstance Time="2" Pattern="01"
			PatternInstance Time="3" Pattern="01"
			PatternInstance Time="4" Pattern="01"
			PatternInstance Time="5" Pattern="02"
			PatternInstance Time="6" Pattern="03"
			PatternInstance Time="7" Pattern="04"
			PatternInstance Time="8" Pattern="05"
			PatternInstance Time="9" Pattern="01"
			PatternInstance Time="10" Pattern="01"
			PatternInstance Time="11" Pattern="01"
			PatternInstance Time="12" Pattern="01"
			PatternInstance Time="13" Pattern="01"
			PatternInstance Time="14" Pattern="01"
			PatternInstance Time="15" Pattern="01"
			PatternInstance Time="16" Pattern="01"
			PatternInstance Time="17" Pattern="02"
			PatternInstance Time="18" Pattern="03"
			PatternInstance Time="19" Pattern="04"
			PatternInstance Time="20" Pattern="05"
			PatternInstance Time="21" Pattern="01"
			PatternInstance Time="22" Pattern="07"
			PatternInstance Time="23" Pattern="08"
			PatternInstance Time="24" Pattern="09"
			PatternInstance Time="25" Pattern="0A"
			PatternInstance Time="26" Pattern="0B"
			PatternInstance Time="27" Pattern="0C"
			PatternInstance Time="28" Pattern="0D"
			PatternInstance Time="29" Pattern="0E"
			PatternInstance Time="30" Pattern="0F"
			PatternInstance Time="31" Pattern="10"
			PatternInstance Time="32" Pattern="11"
			PatternInstance Time="33" Pattern="12"
			PatternInstance Time="34" Pattern="13"
			PatternInstance Time="35" Pattern="14"
			PatternInstance Time="36" Pattern="15"
			PatternInstance Time="37" Pattern="14"
			PatternInstance Time="38" Pattern="15"
			PatternInstance Time="39" Pattern="01"
			PatternInstance Time="40" Pattern="01"
			PatternInstance Time="41" Pattern="01"
			PatternInstance Time="42" Pattern="01"
			PatternInstance Time="43" Pattern="3"
			PatternInstance Time="44" Pattern="4"
			PatternInstance Time="45" Pattern="5"
			PatternInstance Time="46" Pattern="16"
			PatternInstance Time="54" Pattern="2"
			PatternInstance Time="55" Pattern="Pattern 1"
			PatternInstance Time="61" Pattern="6"
			PatternInstance Time="62" Pattern="7"
			PatternInstance Time="66" Pattern="26"
			PatternInstance Time="67" Pattern="22"
			PatternInstance Time="68" Pattern="23"
			PatternInstance Time="69" Pattern="24"
			PatternInstance Time="70" Pattern="25"
			PatternInstance Time="71" Pattern="27"
			PatternInstance Time="74" Pattern="28"
			PatternInstance Time="75" Pattern="8"
			PatternInstance Time="76" Pattern="8"
			PatternInstance Time="77" Pattern="8"
			PatternInstance Time="78" Pattern="8"
			PatternInstance Time="79" Pattern="8"
			PatternInstance Time="80" Pattern="8"
			PatternInstance Time="81" Pattern="8"
			PatternInstance Time="82" Pattern="8"
			PatternInstance Time="83" Pattern="29"
		Channel Type="Square2"
			Pattern Name="00" Color="55b2ff"
			Pattern Name="01" Color="e95093"
				Note Time="0" Volume="2" DutyCycle="0"
				Note Time="4" Value="C2" Duration="12" Instrument="blank"
				Note Time="16" Value="G1" Duration="4" Instrument="blank"
				Note Time="20" Value="C2" Duration="4" Instrument="blank"
				Note Time="24" Value="G1" Duration="4" Instrument="blank"
				Note Time="28" Value="C2" Duration="4" Instrument="blank"
				Note Time="32" Value="G1" Duration="4" Instrument="blank"
				Note Time="36" Value="G#1" Duration="4" Instrument="blank"
				Note Time="40" Value="D#2" Duration="8" Instrument="blank"
				Note Time="48" Value="D2" Duration="4" Instrument="blank"
				Note Time="52" Value="G2" Duration="4" Instrument="blank"
				Note Time="56" Value="G#2" Duration="4" Instrument="blank"
				Note Time="60" Value="G2" Duration="4" Instrument="blank"
			Pattern Name="02" Color="ffa83c"
				Note Time="0" Value="D#2" Duration="4" Instrument="blank" Volume="2"
				Note Time="4" Value="C2" Duration="12" Instrument="blank"
				Note Time="16" Value="G1" Duration="4" Instrument="blank"
				Note Time="20" Value="C2" Duration="4" Instrument="blank"
				Note Time="24" Value="G1" Duration="4" Instrument="blank"
				Note Time="28" Value="C2" Duration="4" Instrument="blank"
				Note Time="32" Value="G1" Duration="4" Instrument="blank"
				Note Time="36" Value="G#1" Duration="4" Instrument="blank"
				Note Time="40" Value="D#2" Duration="8" Instrument="blank"
				Note Time="48" Value="D2" Duration="4" Instrument="blank"
				Note Time="52" Value="G2" Duration="4" Instrument="blank"
				Note Time="56" Value="G#2" Duration="4" Instrument="blank"
				Note Time="60" Value="G2" Duration="4" Instrument="blank"
			Pattern Name="03" Color="eaffbd"
				Note Time="0" Value="C3" Duration="8" Release="1" Instrument="loud blank string" Arpeggio="Arp 77" Volume="15" DutyCycle="0"
				Note Time="8" Value="C3" Duration="8" Release="1" Instrument="loud blank string" Arpeggio="Arp 77"
				Note Time="16" Value="C3" Duration="4" Release="1" Instrument="loud blank string" Arpeggio="Arp 77"
				Note Time="20" Value="G2" Duration="4" Release="1" Instrument="loud blank string"
				Note Time="24" Value="C3" Duration="8" Release="1" Instrument="loud blank string" Arpeggio="Arp 77"
				Note Time="32" Value="C3" Duration="8" Release="1" Instrument="loud blank string" Arpeggio="Arp 77"
				Note Time="40" Value="C3" Duration="8" Release="1" Instrument="loud blank string" Arpeggio="Arp 77"
				Note Time="48" Value="C3" Duration="4" Release="1" Instrument="loud blank string" Arpeggio="Arp 77"
				Note Time="52" Value="D#3" Duration="4" Release="1" Instrument="loud blank string" Arpeggio="Arp 55"
				Note Time="56" Value="C3" Duration="4" Release="1" Instrument="loud blank string" Arpeggio="Arp 77"
				Note Time="60" Value="D#3" Duration="4" Release="1" Instrument="loud blank string" Arpeggio="Arp 55"
			Pattern Name="04" Color="65f2ff"
				Note Time="0" Value="C3" Duration="8" Release="1" Instrument="loud blank string" Arpeggio="Arp 77" Volume="15"
				Note Time="8" Value="C3" Duration="8" Release="1" Instrument="loud blank string" Arpeggio="Arp 77"
				Note Time="16" Value="C3" Duration="4" Release="1" Instrument="loud blank string" Arpeggio="Arp 77"
				Note Time="20" Value="G2" Duration="4" Release="1" Instrument="loud blank string"
				Note Time="24" Value="C3" Duration="8" Release="1" Instrument="loud blank string" Arpeggio="Arp 77"
				Note Time="32" Value="C3" Duration="2" Instrument="blank instant decay" Volume="8"
				Note Time="34" Value="C3" Duration="2" Instrument="blank instant decay"
				Note Time="36" Value="C3" Duration="2" Instrument="blank instant decay" Volume="9"
				Note Time="38" Value="C3" Duration="2" Instrument="blank instant decay"
				Note Time="40" Value="C3" Duration="2" Instrument="blank instant decay" Volume="10"
				Note Time="42" Value="C3" Duration="2" Instrument="blank instant decay"
				Note Time="44" Value="C3" Duration="2" Instrument="blank instant decay" Volume="11"
				Note Time="46" Value="C3" Duration="2" Instrument="blank instant decay"
				Note Time="48" Value="C3" Duration="4" Release="2" Instrument="blank" Volume="12"
				Note Time="52" Value="C3" Duration="4" Release="2" Instrument="blank" Volume="13"
				Note Time="56" Value="C3" Duration="2" Instrument="blank instant decay" Volume="14"
				Note Time="58" Value="C3" Duration="2" Instrument="blank instant decay"
				Note Time="60" Value="C3" Duration="2" Instrument="blank instant decay" Volume="15"
				Note Time="62" Value="C3" Duration="2" Instrument="blank instant decay"
			Pattern Name="05" Color="d863ec"
				Note Time="0" Value="C3" Duration="12" Release="2" Instrument="loud blank string" Volume="13" VibratoSpeed="8" VibratoDepth="2" DutyCycle="1"
				Note Time="12" Value="C3" Duration="8" Release="2" Instrument="loud blank string"
				Note Time="20" Value="D#3" Duration="12" Release="2" Instrument="loud blank string"
				Note Time="32" Value="D3" Duration="12" Release="2" Instrument="loud blank string"
				Note Time="44" Value="F3" Duration="8" Release="2" Instrument="loud blank string"
				Note Time="52" Value="G#3" Duration="4" Instrument="loud blank string"
				Note Time="56" Value="G3" Duration="4" Instrument="loud blank string"
				Note Time="60" Value="D#3" Duration="4" Instrument="loud blank string"
			Pattern Name="06" Color="ff935e"
				Note Time="0" Value="C3" Duration="8" Release="1" Instrument="loud blank string" Arpeggio="Arp 77" Volume="15" VibratoSpeed="0" VibratoDepth="0" DutyCycle="0"
				Note Time="8" Value="C3" Duration="8" Release="1" Instrument="loud blank string" Arpeggio="Arp 77"
				Note Time="16" Value="C3" Duration="4" Release="1" Instrument="loud blank string" Arpeggio="Arp 77"
				Note Time="20" Value="G2" Duration="4" Release="1" Instrument="loud blank string"
				Note Time="24" Value="C3" Duration="40" Release="1" Instrument="loud blank string" Arpeggio="Arp 77"
			Pattern Name="07" Color="fcff6f"
				Note Time="0" Value="C3" Duration="64" Instrument="blank instant decay" Arpeggio="Arp 77"
			Pattern Name="08" Color="3cd3e3"
				Note Time="56" Value="C3" Duration="4" Instrument="blank" Volume="10" DutyCycle="2"
				Note Time="60" Value="C3" Duration="4" Instrument="blank" SlideTarget="C5" Attack="False"
			Pattern Name="09" Color="8163dc"
				Note Time="0" Value="C5" Duration="28" Instrument="blank" Volume="10" DutyCycle="2"
				Note Time="28" Value="G4" Duration="2" Instrument="blank"
				Note Time="30" Value="G#4" Duration="2" Instrument="blank"
				Note Time="32" Value="C5" Duration="12" Instrument="blank"
				Note Time="44" Value="G4" Duration="2" Instrument="blank"
				Note Time="46" Value="G#4" Duration="2" Instrument="blank"
				Note Time="48" Value="C5" Duration="4" Instrument="blank"
				Note Time="52" Value="C5" Duration="2" Instrument="blank" SlideTarget="D5" Attack="False"
				Note Time="54" Value="D#5" Duration="2" Instrument="blank"
				Note Time="56" Value="D#5" Duration="4" Instrument="blank" SlideTarget="D5" Attack="False"
				Note Time="60" Value="A#4" Duration="2" Instrument="blank"
				Note Time="62" Value="C5" Duration="2" Instrument="blank"
			Pattern Name="0A" Color="8a706a"
				Note Time="0" Value="C4" Duration="2" Instrument="blank"
				Note Time="2" Value="G4" Duration="2" Instrument="blank"
				Note Time="4" Value="C5" Duration="2" Instrument="blank"
				Note Time="6" Value="G4" Duration="2" Instrument="blank"
				Note Time="8" Value="D#5" Duration="2" Instrument="blank"
				Note Time="10" Value="D5" Duration="2" Instrument="blank"
				Note Time="12" Value="C5" Duration="2" Instrument="blank"
				Note Time="14" Value="G4" Duration="2" Instrument="blank"
				Note Time="16" Value="D#4" Duration="2" Instrument="blank"
				Note Time="18" Value="C4" Duration="2" Instrument="blank"
				Note Time="20" Value="G3" Duration="2" Instrument="blank"
				Note Time="22" Value="G#3" Duration="2" Instrument="blank"
				Note Time="24" Value="G3" Duration="2" Instrument="blank"
				Note Time="26" Value="D#4" Duration="2" Instrument="blank"
				Note Time="28" Value="G#4" Duration="2" Instrument="blank"
				Note Time="30" Value="G4" Duration="2" Instrument="blank"
				Note Time="32" Value="C3" Duration="2" Instrument="blank" DutyCycle="1"
				Note Time="34" Value="D#3" Duration="2" Instrument="blank"
				Note Time="36" Value="G#3" Duration="2" Instrument="blank"
				Note Time="38" Value="G3" Duration="2" Instrument="blank"
				Note Time="40" Value="F3" Duration="2" Instrument="blank"
				Note Time="42" Value="D#3" Duration="2" Instrument="blank"
				Note Time="44" Value="D3" Duration="2" Instrument="blank"
				Note Time="46" Value="D#3" Duration="2" Instrument="blank"
				Note Time="48" Value="C3" Duration="4" Instrument="blank"
				Note Time="52" Value="C3" Duration="5" Instrument="blank" SlideTarget="D4" Attack="False" DutyCycle="2"
				Note Time="57" Value="D4" Duration="3" Instrument="blank" Attack="False"
				Note Time="60" Value="C4" Duration="2" Instrument="blank"
				Note Time="62" Value="D4" Duration="2" Instrument="blank"
			Pattern Name="0B" Color="ffffb2"
				Note Time="0" Value="D4" Duration="4" Instrument="blank"
				Note Time="2" DutyCycle="1"
				Note Time="4" Value="D4" Duration="4" Instrument="blank" SlideTarget="D#4" Attack="False"
				Note Time="8" Value="D#4" Duration="84" Instrument="blank" Attack="False"
				Note Time="48" Volume="10"
				Note Time="56" Volume="9"
				Note Time="60" Volume="8"
			Pattern Name="0C" Color="62e2d6"
				Note Time="0" Volume="7"
				Note Time="4" Volume="6"
				Note Time="8" Volume="5"
				Note Time="12" Volume="4"
				Note Time="16" Volume="3"
				Note Time="20" Volume="2"
				Note Time="24" Volume="1"
				Note Time="28" Volume="0"
			Pattern Name="0D" Color="7b8df1"
				Note Time="0" Value="C3" Duration="8" Release="1" Instrument="loud blank string" Arpeggio="Arp 77"
				Note Time="8" Value="C3" Duration="8" Release="1" Instrument="loud blank string" Arpeggio="Arp 77"
				Note Time="16" Value="C3" Duration="4" Release="1" Instrument="loud blank string" Arpeggio="Arp 77"
				Note Time="20" Value="D#3" Duration="4" Release="1" Instrument="loud blank string" Arpeggio="Arp 55"
				Note Time="24" Value="C3" Duration="4" Release="1" Instrument="loud blank string" Arpeggio="Arp 77"
				Note Time="28" Value="D#3" Duration="4" Release="1" Instrument="loud blank string" Arpeggio="Arp 55"
			Pattern Name="0E" Color="ff7571"
				Note Time="0" Value="C3" Duration="12" Instrument="infernoplex_piano" VibratoSpeed="0" VibratoDepth="0" DutyCycle="1"
				Note Time="12" Value="F3" Duration="8" Instrument="infernoplex_piano"
				Note Time="20" Value="G#3" Duration="4" Instrument="infernoplex_piano"
				Note Time="24" Value="G3" Duration="4" Instrument="infernoplex_piano"
				Note Time="28" Value="G#3" Duration="4" Instrument="infernoplex_piano"
				Note Time="32" Value="G3" Duration="12" Instrument="infernoplex_piano"
				Note Time="44" Value="G#3" Duration="8" Instrument="infernoplex_piano"
				Note Time="52" Value="A#3" Duration="4" Instrument="infernoplex_piano"
				Note Time="56" Value="G#3" Duration="4" Instrument="infernoplex_piano"
				Note Time="60" Value="G3" Duration="4" Instrument="infernoplex_piano"
			Pattern Name="0F" Color="ffef3c"
				Note Time="0" Value="F3" Duration="32" Instrument="infernoplex_piano"
				Note Time="32" Value="F3" Duration="12" Instrument="infernoplex_piano"
				Note Time="44" Value="G#3" Duration="4" Instrument="infernoplex_piano"
				Note Time="48" Value="G3" Duration="4" Instrument="infernoplex_piano"
				Note Time="52" Value="C3" Duration="4" Instrument="infernoplex_piano"
				Note Time="56" Value="E3" Duration="4" Instrument="infernoplex_piano"
				Note Time="60" Value="G3" Duration="4" Instrument="infernoplex_piano"
			Pattern Name="10" Color="74ca78"
				Note Time="0" Value="F3" Duration="12" Instrument="infernoplex_piano"
				Note Time="12" Value="G3" Duration="8" Instrument="infernoplex_piano"
				Note Time="20" Value="G#3" Duration="8" Instrument="infernoplex_piano"
				Note Time="28" Value="C4" Duration="4" Instrument="infernoplex_piano"
				Note Time="32" Value="A#3" Duration="12" Instrument="infernoplex_piano"
				Note Time="44" Value="G3" Duration="8" Instrument="infernoplex_piano"
				Note Time="52" Value="G3" Duration="8" Instrument="infernoplex_piano"
				Note Time="60" Value="A#3" Duration="4" Instrument="infernoplex_piano"
			Pattern Name="11" Color="51a1fc"
				Note Time="0" Value="G#3" Duration="20" Instrument="infernoplex_piano"
				Note Time="20" Value="C#4" Duration="4" Instrument="infernoplex_piano"
				Note Time="24" Value="C4" Duration="4" Instrument="infernoplex_piano"
				Note Time="28" Value="G#3" Duration="4" Instrument="infernoplex_piano"
				Note Time="32" Value="C4" Duration="4" Instrument="infernoplex_piano"
				Note Time="36" Value="C#4" Duration="4" Instrument="infernoplex_piano"
				Note Time="40" Value="C4" Duration="4" Instrument="infernoplex_piano"
				Note Time="44" Value="A#3" Duration="4" Instrument="infernoplex_piano"
				Note Time="48" Value="G#3" Duration="8" Instrument="infernoplex_piano"
				Note Time="56" Value="G3" Duration="8" Instrument="infernoplex_piano"
			Pattern Name="12" Color="ff9ece"
				Note Time="0" Value="F3" Duration="32" Instrument="infernoplex_piano"
				Note Time="32" Value="D#3" Duration="32" Instrument="infernoplex_piano"
			Pattern Name="13" Color="fff389"
				Note Time="0" Value="C#3" Duration="32" Instrument="infernoplex_piano"
				Note Time="32" Value="E3" Duration="32" Instrument="infernoplex_piano"
			Pattern Name="7" Color="ff7f51"
				Note Time="0" Value="C#3" Duration="12" Release="2" Instrument="loud blank string" Volume="13" VibratoSpeed="8" VibratoDepth="2"
				Note Time="12" Value="C#3" Duration="8" Release="2" Instrument="loud blank string"
				Note Time="20" Value="E3" Duration="12" Release="2" Instrument="loud blank string"
				Note Time="32" Value="D#3" Duration="12" Release="2" Instrument="loud blank string"
				Note Time="44" Value="F#3" Duration="8" Release="2" Instrument="loud blank string"
				Note Time="52" Value="A3" Duration="4" Instrument="loud blank string"
				Note Time="56" Value="G#3" Duration="4" Instrument="loud blank string"
				Note Time="60" Value="E3" Duration="4" Instrument="loud blank string"
			Pattern Name="2" Color="3cd3e3"
				Note Time="0" Value="C2" Duration="4" Instrument="blank" Volume="10" DutyCycle="0"
				Note Time="4" Value="D#2" Duration="4" Instrument="blank"
				Note Time="8" Value="D2" Duration="4" Instrument="blank"
				Note Time="12" Value="F2" Duration="4" Instrument="blank"
				Note Time="16" Value="D#2" Duration="4" Instrument="blank"
				Note Time="20" Value="G2" Duration="4" Instrument="blank"
				Note Time="24" Value="F2" Duration="4" Instrument="blank"
				Note Time="28" Value="D2" Duration="4" Instrument="blank"
				Note Time="32" Value="C2" Duration="4" Instrument="blank"
				Note Time="36" Value="D#2" Duration="4" Instrument="blank"
				Note Time="40" Value="D2" Duration="4" Instrument="blank"
				Note Time="44" Value="F2" Duration="4" Instrument="blank"
				Note Time="48" Value="D#2" Duration="4" Instrument="blank"
				Note Time="52" Value="G2" Duration="4" Instrument="blank"
				Note Time="56" Value="F2" Duration="4" Instrument="blank"
				Note Time="60" Value="D2" Duration="4" Instrument="blank"
			Pattern Name="9" Color="8a706a"
				Note Time="0" Value="D#2" Duration="4" Instrument="blank" Volume="10" DutyCycle="0"
				Note Time="4" Value="G2" Duration="4" Instrument="blank"
				Note Time="8" Value="F2" Duration="4" Instrument="blank"
				Note Time="12" Value="G#2" Duration="4" Instrument="blank"
				Note Time="16" Value="G2" Duration="4" Instrument="blank"
				Note Time="20" Value="C3" Duration="4" Instrument="blank"
				Note Time="24" Value="D#3" Duration="4" Instrument="blank"
				Note Time="28" Value="C3" Duration="4" Instrument="blank"
				Note Time="32" Value="D#2" Duration="4" Instrument="blank" Volume="10" DutyCycle="0"
				Note Time="36" Value="G2" Duration="4" Instrument="blank"
				Note Time="40" Value="F2" Duration="4" Instrument="blank"
				Note Time="44" Value="G#2" Duration="4" Instrument="blank"
				Note Time="48" Value="G2" Duration="4" Instrument="blank"
				Note Time="52" Value="C3" Duration="4" Instrument="blank"
				Note Time="56" Value="D#3" Duration="4" Instrument="blank"
				Note Time="60" Value="C3" Duration="4" Instrument="blank"
			Pattern Name="8" Color="62e2d6"
				Note Time="0" Value="D#2" Duration="4" Instrument="blank" Volume="10" DutyCycle="0"
				Note Time="4" Value="G2" Duration="4" Instrument="blank"
				Note Time="8" Value="F2" Duration="4" Instrument="blank"
				Note Time="12" Value="G#2" Duration="4" Instrument="blank"
				Note Time="16" Value="G2" Duration="4" Instrument="blank"
				Note Time="20" Value="C3" Duration="4" Instrument="blank"
				Note Time="24" Value="D#3" Duration="4" Instrument="blank"
				Note Time="28" Value="C3" Duration="4" Instrument="blank"
				Note Time="32" Value="D#2" Duration="4" Instrument="blank" Volume="10" DutyCycle="0"
				Note Time="36" Value="G2" Duration="4" Instrument="blank"
				Note Time="40" Value="F2" Duration="4" Instrument="blank"
				Note Time="44" Value="G#2" Duration="4" Instrument="blank"
				Note Time="48" Value="G2" Duration="4" Instrument="blank"
				Note Time="52" Value="C3" Duration="4" Instrument="blank"
				Note Time="56" Value="D#3" Duration="4" Instrument="blank"
				Note Time="60" Value="D3" Duration="4" Instrument="blank"
			Pattern Name="14" Color="ff7571"
				Note Time="0" Value="C3" Duration="2" Instrument="blank" Attack="False" Volume="10" DutyCycle="0"
				Note Time="4" Value="C3" Duration="2" Instrument="blank" Attack="False" Volume="10" DutyCycle="0"
				Note Time="6" Value="D#3" Duration="2" Instrument="blank"
				Note Time="8" Value="D3" Duration="2" Instrument="blank"
				Note Time="12" Value="D3" Duration="2" Instrument="blank"
				Note Time="14" Value="F3" Duration="2" Instrument="blank" Attack="False" Volume="10" DutyCycle="0"
				Note Time="16" Value="D#3" Duration="2" Instrument="blank"
				Note Time="20" Value="D#3" Duration="2" Instrument="blank" Attack="False" Volume="10" DutyCycle="0"
				Note Time="22" Value="G3" Duration="2" Instrument="blank"
				Note Time="24" Value="F3" Duration="2" Instrument="blank"
				Note Time="26" Value="D3" Duration="2" Instrument="blank" Attack="False" Volume="10" DutyCycle="0"
				Note Time="28" Value="D#3" Duration="2" Instrument="blank"
				Note Time="30" Value="A#2" Duration="2" Instrument="blank" Attack="False" Volume="10" DutyCycle="0"
				Note Time="32" Value="C3" Duration="2" Instrument="blank" Attack="False" Volume="10" DutyCycle="0"
				Note Time="36" Value="C3" Duration="2" Instrument="blank" Attack="False" Volume="10" DutyCycle="0"
				Note Time="38" Value="D#3" Duration="2" Instrument="blank"
				Note Time="40" Value="D3" Duration="2" Instrument="blank"
				Note Time="44" Value="D3" Duration="2" Instrument="blank"
				Note Time="46" Value="F3" Duration="2" Instrument="blank" Attack="False" Volume="10" DutyCycle="0"
				Note Time="48" Value="D#3" Duration="2" Instrument="blank"
				Note Time="52" Value="D#3" Duration="2" Instrument="blank" Attack="False" Volume="10" DutyCycle="0"
				Note Time="54" Value="G3" Duration="2" Instrument="blank"
				Note Time="56" Value="F3" Duration="2" Instrument="blank"
				Note Time="58" Value="D3" Duration="2" Instrument="blank" Attack="False" Volume="10" DutyCycle="0"
				Note Time="60" Value="D#3" Duration="2" Instrument="blank"
				Note Time="62" Value="A#2" Duration="2" Instrument="blank" Attack="False" Volume="10" DutyCycle="0"
			Pattern Name="15" Color="fff389"
				Note Time="0" Value="D#3" Duration="2" Instrument="blank" Attack="False" Volume="10"
				Note Time="4" Value="D#3" Duration="2" Instrument="blank" Attack="False" Volume="10"
				Note Time="6" Value="G3" Duration="2" Instrument="blank"
				Note Time="8" Value="F3" Duration="2" Instrument="blank"
				Note Time="12" Value="F3" Duration="2" Instrument="blank"
				Note Time="14" Value="G#3" Duration="2" Instrument="blank" Attack="False" Volume="10"
				Note Time="16" Value="G3" Duration="2" Instrument="blank"
				Note Time="20" Value="G3" Duration="2" Instrument="blank" Attack="False" Volume="10"
				Note Time="22" Value="A#3" Duration="2" Instrument="blank"
				Note Time="24" Value="G#3" Duration="2" Instrument="blank"
				Note Time="26" Value="C4" Duration="2" Instrument="blank" Attack="False" Volume="10"
				Note Time="28" Value="D#4" Duration="3" Instrument="blank"
				Note Time="30" Value="C4" Duration="2" Instrument="blank" Attack="False" Volume="10"
				Note Time="32" Value="D#3" Duration="2" Instrument="blank" Attack="False" Volume="10"
				Note Time="36" Value="D#3" Duration="2" Instrument="blank" Attack="False" Volume="10"
				Note Time="38" Value="G3" Duration="2" Instrument="blank"
				Note Time="40" Value="F3" Duration="2" Instrument="blank"
				Note Time="44" Value="F3" Duration="2" Instrument="blank"
				Note Time="46" Value="G#3" Duration="2" Instrument="blank" Attack="False" Volume="10"
				Note Time="48" Value="G3" Duration="2" Instrument="blank"
				Note Time="52" Value="G3" Duration="2" Instrument="blank" Attack="False" Volume="10"
				Note Time="54" Value="A#3" Duration="2" Instrument="blank"
				Note Time="56" Value="G#3" Duration="2" Instrument="blank"
				Note Time="58" Value="C4" Duration="2" Instrument="blank" Attack="False" Volume="10"
				Note Time="60" Value="D#4" Duration="3" Instrument="blank"
				Note Time="62" Value="C4" Duration="2" Instrument="blank" Attack="False" Volume="10"
			Pattern Name="16" Color="d1b1ff"
				Note Time="0" Value="C#3" Duration="2" Instrument="blank" Attack="False" Volume="10"
				Note Time="4" Value="C#3" Duration="2" Instrument="blank" Attack="False" Volume="10"
				Note Time="6" Value="E3" Duration="2" Instrument="blank"
				Note Time="8" Value="D#3" Duration="2" Instrument="blank"
				Note Time="12" Value="D#3" Duration="2" Instrument="blank"
				Note Time="14" Value="F#3" Duration="2" Instrument="blank" Attack="False" Volume="10"
				Note Time="16" Value="E3" Duration="2" Instrument="blank"
				Note Time="20" Value="E3" Duration="2" Instrument="blank" Attack="False" Volume="10"
				Note Time="22" Value="G#3" Duration="2" Instrument="blank"
				Note Time="24" Value="F#3" Duration="2" Instrument="blank"
				Note Time="26" Value="D#3" Duration="2" Instrument="blank" Attack="False" Volume="10"
				Note Time="28" Value="E3" Duration="2" Instrument="blank"
				Note Time="30" Value="B2" Duration="2" Instrument="blank" Attack="False" Volume="10"
				Note Time="32" Value="C#3" Duration="2" Instrument="blank" Attack="False" Volume="10"
				Note Time="36" Value="C#3" Duration="2" Instrument="blank" Attack="False" Volume="10"
				Note Time="38" Value="E3" Duration="2" Instrument="blank"
				Note Time="40" Value="D#3" Duration="2" Instrument="blank"
				Note Time="44" Value="D#3" Duration="2" Instrument="blank"
				Note Time="46" Value="F#3" Duration="2" Instrument="blank" Attack="False" Volume="10"
				Note Time="48" Value="E3" Duration="2" Instrument="blank"
				Note Time="52" Value="E3" Duration="2" Instrument="blank" Attack="False" Volume="10"
				Note Time="54" Value="G#3" Duration="2" Instrument="blank"
				Note Time="56" Value="F#3" Duration="2" Instrument="blank"
				Note Time="58" Value="D#3" Duration="2" Instrument="blank" Attack="False" Volume="10"
				Note Time="60" Value="E3" Duration="2" Instrument="blank"
				Note Time="62" Value="B2" Duration="2" Instrument="blank" Attack="False" Volume="10"
			Pattern Name="17" Color="ffff94"
				Note Time="0" Value="E3" Duration="2" Instrument="blank" Attack="False" Volume="10"
				Note Time="4" Value="E3" Duration="2" Instrument="blank" Attack="False" Volume="10"
				Note Time="6" Value="G#3" Duration="2" Instrument="blank"
				Note Time="8" Value="F#3" Duration="2" Instrument="blank"
				Note Time="12" Value="F#3" Duration="2" Instrument="blank"
				Note Time="14" Value="A3" Duration="2" Instrument="blank" Attack="False" Volume="10"
				Note Time="16" Value="G#3" Duration="2" Instrument="blank"
				Note Time="20" Value="G#3" Duration="2" Instrument="blank" Attack="False" Volume="10"
				Note Time="22" Value="B3" Duration="2" Instrument="blank"
				Note Time="24" Value="A3" Duration="2" Instrument="blank"
				Note Time="26" Value="C#4" Duration="2" Instrument="blank" Attack="False" Volume="10"
				Note Time="28" Value="E4" Duration="3" Instrument="blank"
				Note Time="30" Value="C#4" Duration="2" Instrument="blank" Attack="False" Volume="10"
				Note Time="32" Value="E3" Duration="2" Instrument="blank" Attack="False" Volume="10"
				Note Time="36" Value="E3" Duration="2" Instrument="blank" Attack="False" Volume="10"
				Note Time="38" Value="G#3" Duration="2" Instrument="blank"
				Note Time="40" Value="F#3" Duration="2" Instrument="blank"
				Note Time="44" Value="F#3" Duration="2" Instrument="blank"
				Note Time="46" Value="A3" Duration="2" Instrument="blank" Attack="False" Volume="10"
				Note Time="48" Value="G#3" Duration="2" Instrument="blank"
				Note Time="52" Value="G#3" Duration="2" Instrument="blank" Attack="False" Volume="10"
				Note Time="54" Value="B3" Duration="2" Instrument="blank"
				Note Time="56" Value="A3" Duration="2" Instrument="blank"
				Note Time="58" Value="C#4" Duration="2" Instrument="blank" Attack="False" Volume="10"
				Note Time="60" Value="E4" Duration="3" Instrument="blank"
				Note Time="62" Value="C#4" Duration="2" Instrument="blank" Attack="False" Volume="10"
			Pattern Name="18" Color="fcff6f"
				Note Time="0" Value="D3" Duration="2" Instrument="blank" Attack="False" Volume="10"
				Note Time="4" Value="D3" Duration="2" Instrument="blank" Attack="False" Volume="10"
				Note Time="6" Value="F3" Duration="2" Instrument="blank"
				Note Time="8" Value="E3" Duration="2" Instrument="blank"
				Note Time="12" Value="E3" Duration="2" Instrument="blank"
				Note Time="14" Value="G3" Duration="2" Instrument="blank" Attack="False" Volume="10"
				Note Time="16" Value="F3" Duration="2" Instrument="blank"
				Note Time="20" Value="F3" Duration="2" Instrument="blank" Attack="False" Volume="10"
				Note Time="22" Value="A3" Duration="2" Instrument="blank"
				Note Time="24" Value="G3" Duration="2" Instrument="blank"
				Note Time="26" Value="E3" Duration="2" Instrument="blank" Attack="False" Volume="10"
				Note Time="28" Value="F3" Duration="2" Instrument="blank"
				Note Time="30" Value="C3" Duration="2" Instrument="blank" Attack="False" Volume="10"
				Note Time="32" Value="D3" Duration="2" Instrument="blank" Attack="False" Volume="10"
				Note Time="36" Value="D3" Duration="2" Instrument="blank" Attack="False" Volume="10"
				Note Time="38" Value="F3" Duration="2" Instrument="blank"
				Note Time="40" Value="E3" Duration="2" Instrument="blank"
				Note Time="44" Value="E3" Duration="2" Instrument="blank"
				Note Time="46" Value="G3" Duration="2" Instrument="blank" Attack="False" Volume="10"
				Note Time="48" Value="F3" Duration="2" Instrument="blank"
				Note Time="52" Value="F3" Duration="2" Instrument="blank" Attack="False" Volume="10"
				Note Time="54" Value="A3" Duration="2" Instrument="blank"
				Note Time="56" Value="G3" Duration="2" Instrument="blank"
				Note Time="58" Value="E3" Duration="2" Instrument="blank" Attack="False" Volume="10"
				Note Time="60" Value="F3" Duration="2" Instrument="blank"
				Note Time="62" Value="C3" Duration="2" Instrument="blank" Attack="False" Volume="10"
			Pattern Name="19" Color="ffffb2"
				Note Time="0" Value="F3" Duration="2" Instrument="blank" Attack="False" Volume="10"
				Note Time="4" Value="F3" Duration="2" Instrument="blank" Attack="False" Volume="10"
				Note Time="6" Value="A3" Duration="2" Instrument="blank"
				Note Time="8" Value="G3" Duration="2" Instrument="blank"
				Note Time="12" Value="G3" Duration="2" Instrument="blank"
				Note Time="14" Value="A#3" Duration="2" Instrument="blank" Attack="False" Volume="10"
				Note Time="16" Value="A3" Duration="2" Instrument="blank"
				Note Time="20" Value="A3" Duration="2" Instrument="blank" Attack="False" Volume="10"
				Note Time="22" Value="C4" Duration="2" Instrument="blank"
				Note Time="24" Value="A#3" Duration="2" Instrument="blank"
				Note Time="26" Value="D4" Duration="2" Instrument="blank" Attack="False" Volume="10"
				Note Time="28" Value="F4" Duration="3" Instrument="blank"
				Note Time="30" Value="D4" Duration="2" Instrument="blank" Attack="False" Volume="10"
				Note Time="32" Value="F3" Duration="2" Instrument="blank" Attack="False" Volume="10"
				Note Time="36" Value="F3" Duration="2" Instrument="blank" Attack="False" Volume="10"
				Note Time="38" Value="A3" Duration="2" Instrument="blank"
				Note Time="40" Value="G3" Duration="2" Instrument="blank"
				Note Time="44" Value="G3" Duration="2" Instrument="blank"
				Note Time="46" Value="A#3" Duration="2" Instrument="blank" Attack="False" Volume="10"
				Note Time="48" Value="A3" Duration="2" Instrument="blank"
				Note Time="52" Value="A3" Duration="2" Instrument="blank" Attack="False" Volume="10"
				Note Time="54" Value="C4" Duration="2" Instrument="blank"
				Note Time="56" Value="A#3" Duration="2" Instrument="blank"
				Note Time="58" Value="D4" Duration="2" Instrument="blank" Attack="False" Volume="10"
				Note Time="60" Value="F4" Duration="3" Instrument="blank"
				Note Time="62" Value="D4" Duration="2" Instrument="blank" Attack="False" Volume="10"
			Pattern Name="20" Color="ffef3c"
				Note Time="0" Value="F4" Duration="4" Instrument="blank" Attack="False" Volume="10"
				Note Time="8" Value="F3" Duration="4" Instrument="blank" Attack="False" Volume="10"
				Note Time="12" Value="A4" Duration="4" Instrument="blank" Attack="False" Volume="10"
				Note Time="16" Value="F4" Duration="4" Instrument="blank" Attack="False" Volume="10"
				Note Time="24" Value="F3" Duration="4" Instrument="blank" Attack="False" Volume="10"
				Note Time="27" Volume="10"
				Note Time="30" Value="A4" Duration="2" Instrument="blank" Attack="False"
				Note Time="32" Value="F4" Duration="4" Instrument="blank" Attack="False" Volume="10"
				Note Time="40" Value="F3" Duration="4" Instrument="blank" Attack="False" Volume="10"
				Note Time="44" Value="A4" Duration="4" Instrument="blank" Attack="False" Volume="10"
				Note Time="48" Value="F4" Duration="4" Instrument="blank" Attack="False" Volume="10"
				Note Time="56" Value="F3" Duration="4" Instrument="blank" Attack="False" Volume="10"
				Note Time="62" Value="A4" Duration="2" Instrument="blank" Attack="False" Volume="10"
			Pattern Name="21" Color="6c7bdb"
				Note Time="0" Value="G4" Duration="4" Instrument="blank" Attack="False" Volume="10"
				Note Time="4" Value="E4" Duration="4" Instrument="blank" Attack="False"
				Note Time="12" Value="G4" Duration="4" Instrument="blank" Attack="False" Volume="10"
				Note Time="16" Value="E4" Duration="4" Instrument="blank" Attack="False"
				Note Time="24" Value="G4" Duration="4" Instrument="blank" Attack="False" Volume="10"
				Note Time="28" Value="E4" Duration="4" Instrument="blank" Attack="False"
				Note Time="32" Value="C5" Duration="4" Instrument="blank" Attack="False" Volume="10"
				Note Time="36" Value="A#4" Duration="4" Instrument="blank" Attack="False"
				Note Time="40" Value="A4" Duration="4" Instrument="blank" Attack="False"
				Note Time="44" Value="A#4" Duration="4" Instrument="blank" Attack="False"
				Note Time="48" Value="A4" Duration="4" Instrument="blank" Attack="False"
				Note Time="52" Value="G4" Duration="4" Instrument="blank" Attack="False"
				Note Time="56" Value="D4" Duration="4" Instrument="blank" Attack="False"
				Note Time="60" Value="E4" Duration="4" Instrument="blank" Attack="False"
			Pattern Name="22" Color="3ec4ff"
				Note Time="0" Value="F4" Duration="28" Instrument="blank" Attack="False" Volume="10"
				Note Time="28" Value="E4" Duration="4" Instrument="blank" Attack="False"
				Note Time="30" Value="D4" Duration="2" Instrument="blank" Attack="False"
				Note Time="32" Value="A3" Duration="20" Instrument="blank" Attack="False" Volume="10"
				Note Time="52" Value="F3" Duration="4" Instrument="blank" Attack="False"
				Note Time="56" Value="A3" Duration="4" Instrument="blank" Attack="False"
				Note Time="60" Value="A#3" Duration="4" Instrument="blank" Attack="False"
			Pattern Name="23" Color="3cb5a7"
				Note Time="0" Value="A3" Duration="12" Instrument="blank" Attack="False" Volume="10"
				Note Time="12" Value="F4" Duration="4" Instrument="blank" Attack="False" Volume="10"
				Note Time="15" Volume="10"
				Note Time="16" Value="C5" Duration="4" Instrument="blank" Attack="False"
				Note Time="19" Volume="10"
				Note Time="20" Value="F3" Duration="4" Instrument="blank" Attack="False"
				Note Time="22" Volume="10"
				Note Time="24" Value="A3" Duration="4" Instrument="blank" Attack="False"
				Note Time="26" Volume="10"
				Note Time="28" Value="A#3" Duration="4" Instrument="blank" Attack="False"
				Note Time="32" Value="A3" Duration="8" Instrument="blank" Attack="False" Volume="10"
				Note Time="40" Value="F3" Duration="4" Instrument="blank" Attack="False"
				Note Time="44" Value="F4" Duration="4" Instrument="blank" Attack="False" Volume="10"
				Note Time="47" Volume="10"
				Note Time="48" Value="C5" Duration="4" Instrument="blank" Attack="False"
				Note Time="51" Volume="10"
				Note Time="52" Value="A3" Duration="4" Instrument="blank" Attack="False"
				Note Time="56" Value="F3" Duration="4" Instrument="blank" Attack="False"
				Note Time="60" Value="C4" Duration="4" Instrument="blank" Attack="False"
			Pattern Name="24" Color="9a71ed"
				Note Time="0" Value="F3" Duration="12" Instrument="blank" Attack="False" Volume="10"
				Note Time="12" Value="F4" Duration="12" Instrument="blank" Attack="False" Volume="10"
				Note Time="15" Volume="10"
				Note Time="19" Volume="10"
				Note Time="22" Volume="10"
				Note Time="24" Value="C4" Duration="8" Instrument="blank" Attack="False"
				Note Time="26" Volume="10"
				Note Time="32" Value="G4" Duration="4" Instrument="blank" Attack="False"
				Note Time="36" Value="A4" Duration="4" Instrument="blank" Attack="False"
				Note Time="40" Value="F4" Duration="8" Instrument="blank" Attack="False"
				Note Time="44" Volume="10"
				Note Time="47" Volume="10"
				Note Time="48" Value="C4" Duration="8" Instrument="blank" Attack="False"
				Note Time="51" Volume="10"
				Note Time="56" Value="A4" Duration="8" Instrument="blank" Attack="False"
			Pattern Name="25" Color="b5c2ff"
				Note Time="0" Value="G4" Duration="16" Instrument="blank" Attack="False" Volume="10"
				Note Time="16" Value="E4" Duration="8" Instrument="blank" Attack="False" Volume="10"
				Note Time="19" Volume="10"
				Note Time="22" Volume="10"
				Note Time="24" Value="C5" Duration="2" Instrument="blank" Attack="False"
				Note Time="26" Value="G4" Duration="2" Instrument="blank" Attack="False"
				Note Time="28" Value="C4" Duration="2" Instrument="blank" Attack="False"
				Note Time="30" Value="G3" Duration="2" Instrument="blank" Attack="False"
				Note Time="32" Value="C4" Duration="4" Instrument="blank" Attack="False"
				Note Time="36" Value="A#3" Duration="4" Instrument="blank" Attack="False"
				Note Time="40" Value="A3" Duration="4" Instrument="blank" Attack="False"
				Note Time="44" Value="A#3" Duration="4" Instrument="blank" Attack="False"
				Note Time="47" Volume="10"
				Note Time="48" Value="A3" Duration="4" Instrument="blank" Attack="False"
				Note Time="51" Volume="10"
				Note Time="52" Value="G3" Duration="4" Instrument="blank" Attack="False"
			Pattern Name="3" Color="ddc4bb"
				Note Time="0" Value="D2" Duration="2" Instrument="blank" Volume="10" DutyCycle="0"
				Note Time="4" Value="D2" Duration="2" Instrument="blank"
				Note Time="8" Value="D2" Duration="4" Instrument="blank"
				Note Time="12" Value="A1" Duration="4" Instrument="blank"
				Note Time="16" Value="D2" Duration="4" Instrument="blank"
				Note Time="20" Value="A1" Duration="4" Instrument="blank"
				Note Time="24" Value="D2" Duration="4" Instrument="blank"
				Note Time="28" Value="A1" Duration="4" Instrument="blank"
				Note Time="32" Value="A#1" Duration="2" Instrument="blank"
				Note Time="36" Value="F2" Duration="2" Instrument="blank"
				Note Time="40" Value="F2" Duration="4" Instrument="blank"
				Note Time="44" Value="E2" Duration="4" Instrument="blank"
				Note Time="48" Value="A2" Duration="4" Instrument="blank"
				Note Time="52" Value="A#2" Duration="4" Instrument="blank"
				Note Time="56" Value="A2" Duration="4" Instrument="blank"
				Note Time="60" Value="F2" Duration="4" Instrument="blank"
			Pattern Name="5" Color="b8ef7e"
				Note Time="0" Volume="2"
				Note Time="4" Value="D2" Duration="12" Instrument="blank"
				Note Time="16" Value="A1" Duration="4" Instrument="blank"
				Note Time="20" Value="D2" Duration="4" Instrument="blank"
				Note Time="24" Value="A1" Duration="4" Instrument="blank"
				Note Time="28" Value="D2" Duration="4" Instrument="blank"
				Note Time="32" Value="A1" Duration="4" Instrument="blank"
				Note Time="36" Value="A#1" Duration="4" Instrument="blank"
				Note Time="40" Value="F2" Duration="8" Instrument="blank"
				Note Time="48" Value="E2" Duration="4" Instrument="blank"
				Note Time="52" Value="A2" Duration="4" Instrument="blank"
				Note Time="56" Value="A#2" Duration="4" Instrument="blank"
				Note Time="60" Value="A2" Duration="4" Instrument="blank"
			Pattern Name="6" Color="a657d6"
				Note Time="0" Value="F2" Duration="4" Instrument="blank" Volume="2"
				Note Time="4" Value="D2" Duration="12" Instrument="blank"
				Note Time="16" Value="A1" Duration="4" Instrument="blank"
				Note Time="20" Value="D2" Duration="4" Instrument="blank"
				Note Time="24" Value="A1" Duration="4" Instrument="blank"
				Note Time="28" Value="D2" Duration="4" Instrument="blank"
				Note Time="32" Value="A1" Duration="4" Instrument="blank"
				Note Time="36" Value="A#1" Duration="4" Instrument="blank"
				Note Time="40" Value="F2" Duration="8" Instrument="blank"
				Note Time="48" Value="E2" Duration="4" Instrument="blank"
				Note Time="52" Value="A2" Duration="4" Instrument="blank"
				Note Time="56" Value="A#2" Duration="4" Instrument="blank"
				Note Time="60" Value="A2" Duration="4" Instrument="blank"
			Pattern Name="26" Color="3cf8ff"
				Note Time="0" Value="D3" Duration="8" Release="1" Instrument="loud blank string" Arpeggio="Arp 77" Volume="15" DutyCycle="0"
				Note Time="8" Value="D3" Duration="8" Release="1" Instrument="loud blank string" Arpeggio="Arp 77"
				Note Time="16" Value="D3" Duration="8" Release="1" Instrument="loud blank string" Arpeggio="Arp 77"
				Note Time="24" Value="D3" Duration="8" Release="1" Instrument="loud blank string" Arpeggio="Arp 77"
			Pattern Name="27" Color="b5c2ff"
				Note Time="0" Value="D3" Duration="8" Release="1" Instrument="loud blank string" Arpeggio="Arp 77" Volume="15" DutyCycle="0"
				Note Time="8" Value="D3" Duration="8" Release="1" Instrument="loud blank string" Arpeggio="Arp 77"
				Note Time="16" Value="D3" Duration="8" Release="1" Instrument="loud blank string" Arpeggio="Arp 77"
				Note Time="24" Value="D3" Duration="8" Release="1" Instrument="loud blank string" Arpeggio="Arp 77"
				Note Time="32" Value="D3" Duration="8" Release="1" Instrument="loud blank string" Arpeggio="Arp 77"
				Note Time="40" Value="D3" Duration="8" Release="1" Instrument="loud blank string" Arpeggio="Arp 77"
				Note Time="48" Value="D3" Duration="4" Release="1" Instrument="loud blank string" Arpeggio="Arp 77"
				Note Time="52" Value="D#3" Duration="4" Release="1" Instrument="loud blank string" Arpeggio="Arp 77"
				Note Time="56" Value="D3" Duration="4" Release="1" Instrument="loud blank string" Arpeggio="Arp 77"
				Note Time="60" Value="D#3" Duration="4" Release="1" Instrument="loud blank string" Arpeggio="Arp 77"
			Pattern Name="28" Color="5ac4ff"
				Note Time="0" Value="D4" Duration="8" Release="1" Instrument="loud blank string" Arpeggio="Arp 77" Volume="15" DutyCycle="0"
				Note Time="8" Value="D4" Duration="8" Release="1" Instrument="loud blank string" Arpeggio="Arp 77"
				Note Time="16" Value="D4" Duration="8" Release="1" Instrument="loud blank string" Arpeggio="Arp 77"
				Note Time="24" Value="D4" Duration="8" Release="1" Instrument="loud blank string" Arpeggio="Arp 77"
				Note Time="48" Value="D2" Duration="2" Instrument="blank"
				Note Time="50" Value="F2" Duration="2" Instrument="blank"
				Note Time="52" Value="A2" Duration="2" Instrument="blank"
				Note Time="54" Value="D3" Duration="2" Instrument="blank"
				Note Time="56" Value="A2" Duration="2" Instrument="blank"
				Note Time="58" Value="F3" Duration="2" Instrument="blank"
				Note Time="60" Value="A3" Duration="2" Instrument="blank"
				Note Time="62" Value="F4" Duration="2" Instrument="blank"
			Pattern Name="29" Color="3ce8fd"
				Note Time="0" Value="D4" Duration="9" Release="6" Instrument="blank"
			PatternInstance Time="0" Pattern="00"
			PatternInstance Time="1" Pattern="01"
			PatternInstance Time="2" Pattern="02"
			PatternInstance Time="3" Pattern="03"
			PatternInstance Time="4" Pattern="04"
			PatternInstance Time="5" Pattern="05"
			PatternInstance Time="6" Pattern="05"
			PatternInstance Time="7" Pattern="05"
			PatternInstance Time="8" Pattern="05"
			PatternInstance Time="9" Pattern="06"
			PatternInstance Time="10" Pattern="06"
			PatternInstance Time="11" Pattern="06"
			PatternInstance Time="12" Pattern="04"
			PatternInstance Time="13" Pattern="07"
			PatternInstance Time="14" Pattern="08"
			PatternInstance Time="15" Pattern="09"
			PatternInstance Time="16" Pattern="0A"
			PatternInstance Time="17" Pattern="0B"
			PatternInstance Time="18" Pattern="0C"
			PatternInstance Time="19" Pattern="05"
			PatternInstance Time="20" Pattern="05"
			PatternInstance Time="21" Pattern="03"
			PatternInstance Time="22" Pattern="0D"
			PatternInstance Time="23" Pattern="0E"
			PatternInstance Time="24" Pattern="0F"
			PatternInstance Time="25" Pattern="10"
			PatternInstance Time="26" Pattern="11"
			PatternInstance Time="27" Pattern="0E"
			PatternInstance Time="28" Pattern="0F"
			PatternInstance Time="29" Pattern="10"
			PatternInstance Time="30" Pattern="11"
			PatternInstance Time="31" Pattern="0E"
			PatternInstance Time="32" Pattern="0F"
			PatternInstance Time="33" Pattern="10"
			PatternInstance Time="34" Pattern="11"
			PatternInstance Time="35" Pattern="12"
			PatternInstance Time="36" Pattern="13"
			PatternInstance Time="37" Pattern="12"
			PatternInstance Time="38" Pattern="13"
			PatternInstance Time="39" Pattern="01"
			PatternInstance Time="40" Pattern="02"
			PatternInstance Time="41" Pattern="03"
			PatternInstance Time="42" Pattern="04"
			PatternInstance Time="43" Pattern="7"
			PatternInstance Time="44" Pattern="7"
			PatternInstance Time="45" Pattern="7"
			PatternInstance Time="46" Pattern="7"
			PatternInstance Time="47" Pattern="2"
			PatternInstance Time="48" Pattern="9"
			PatternInstance Time="49" Pattern="2"
			PatternInstance Time="50" Pattern="8"
			PatternInstance Time="51" Pattern="14"
			PatternInstance Time="52" Pattern="15"
			PatternInstance Time="53" Pattern="14"
			PatternInstance Time="54" Pattern="15"
			PatternInstance Time="55" Pattern="16"
			PatternInstance Time="56" Pattern="17"
			PatternInstance Time="57" Pattern="16"
			PatternInstance Time="58" Pattern="17"
			PatternInstance Time="59" Pattern="18"
			PatternInstance Time="60" Pattern="19"
			PatternInstance Time="61" Pattern="20"
			PatternInstance Time="62" Pattern="21"
			PatternInstance Time="63" Pattern="22"
			PatternInstance Time="64" Pattern="23"
			PatternInstance Time="65" Pattern="24"
			PatternInstance Time="66" Pattern="25"
			PatternInstance Time="71" Pattern="3"
			PatternInstance Time="72" Pattern="3"
			PatternInstance Time="73" Pattern="3"
			PatternInstance Time="74" Pattern="3"
			PatternInstance Time="75" Pattern="5"
			PatternInstance Time="76" Pattern="6"
			PatternInstance Time="77" Pattern="5"
			PatternInstance Time="78" Pattern="6"
			PatternInstance Time="79" Pattern="26"
			PatternInstance Time="80" Pattern="26"
			PatternInstance Time="81" Pattern="27"
			PatternInstance Time="82" Pattern="28"
			PatternInstance Time="83" Pattern="29"
		Channel Type="Triangle"
			Pattern Name="00" Color="3fe5ff"
			Pattern Name="01" Color="ca60e6"
				Note Time="0" Value="C2" Duration="2" Instrument="blank"
				Note Time="4" Value="C2" Duration="2" Instrument="blank"
				Note Time="8" Value="C2" Duration="4" Instrument="blank"
				Note Time="12" Value="G1" Duration="4" Instrument="blank"
				Note Time="16" Value="C2" Duration="4" Instrument="blank"
				Note Time="20" Value="G1" Duration="4" Instrument="blank"
				Note Time="24" Value="C2" Duration="4" Instrument="blank"
				Note Time="28" Value="G1" Duration="4" Instrument="blank"
				Note Time="32" Value="G#1" Duration="2" Instrument="blank"
				Note Time="36" Value="D#2" Duration="2" Instrument="blank"
				Note Time="40" Value="D#2" Duration="4" Instrument="blank"
				Note Time="44" Value="D2" Duration="4" Instrument="blank"
				Note Time="48" Value="G2" Duration="4" Instrument="blank"
				Note Time="52" Value="G#2" Duration="4" Instrument="blank"
				Note Time="56" Value="G2" Duration="4" Instrument="blank"
				Note Time="60" Value="D#2" Duration="4" Instrument="blank"
			Pattern Name="02" Color="ff8d5a"
				Note Time="0" Value="C2" Duration="2" Instrument="blank"
				Note Time="4" Value="C2" Duration="2" Instrument="blank"
				Note Time="8" Value="C2" Duration="4" Instrument="blank"
				Note Time="12" Value="G1" Duration="4" Instrument="blank"
				Note Time="16" Value="C2" Duration="4" Instrument="blank"
				Note Time="20" Value="G1" Duration="4" Instrument="blank"
				Note Time="24" Value="C2" Duration="4" Instrument="blank"
				Note Time="28" Value="G1" Duration="4" Instrument="blank"
				Note Time="32" Value="G#1" Duration="2" Instrument="blank"
				Note Time="36" Value="D#2" Duration="2" Instrument="blank"
				Note Time="40" Value="D#2" Duration="4" Instrument="blank"
				Note Time="44" Value="D3" Duration="4" Instrument="blank"
				Note Time="48" Value="G3" Duration="4" Instrument="blank"
				Note Time="52" Value="G#3" Duration="4" Instrument="blank"
				Note Time="56" Value="G3" Duration="4" Instrument="blank"
				Note Time="60" Value="D#3" Duration="4" Instrument="blank"
			Pattern Name="03" Color="ebf067"
				Note Time="0" Value="C3" Duration="2" Instrument="blank"
				Note Time="4" Value="C3" Duration="2" Instrument="blank"
				Note Time="8" Value="C3" Duration="4" Instrument="blank"
				Note Time="12" Value="G2" Duration="4" Instrument="blank"
				Note Time="16" Value="C3" Duration="4" Instrument="blank"
				Note Time="20" Value="G2" Duration="4" Instrument="blank"
				Note Time="24" Value="C3" Duration="4" Instrument="blank"
				Note Time="28" Value="G2" Duration="4" Instrument="blank"
				Note Time="32" Value="G#2" Duration="2" Instrument="blank"
				Note Time="36" Value="D#3" Duration="2" Instrument="blank"
				Note Time="40" Value="D#3" Duration="4" Instrument="blank"
				Note Time="44" Value="D3" Duration="4" Instrument="blank"
				Note Time="48" Value="G3" Duration="4" Instrument="blank"
				Note Time="52" Value="G#3" Duration="4" Instrument="blank"
				Note Time="56" Value="G3" Duration="4" Instrument="blank"
				Note Time="60" Value="D#3" Duration="4" Instrument="blank"
			Pattern Name="04" Color="3cbfcb"
				Note Time="0" Value="C2" Duration="32" Instrument="sample"
				Note Time="32" Value="G#1" Duration="32" Instrument="sample"
			Pattern Name="05" Color="d1b1ff"
				Note Time="0" Value="A4" Duration="32" Instrument="triangle drums"
			Pattern Name="06" Color="ddc4bb"
				Note Time="0" Value="F3" Duration="32" Instrument="blank"
				Note Time="32" Value="D#3" Duration="32" Instrument="blank"
			Pattern Name="07" Color="ffff94"
				Note Time="0" Value="C#3" Duration="32" Instrument="blank"
				Note Time="32" Value="C3" Duration="12" Instrument="blank"
				Note Time="44" Value="G#4" Duration="4" Instrument="blank"
				Note Time="48" Value="G4" Duration="4" Instrument="blank"
				Note Time="52" Value="C4" Duration="4" Instrument="blank"
				Note Time="56" Value="E4" Duration="4" Instrument="blank"
				Note Time="60" Value="G4" Duration="4" Instrument="blank"
			Pattern Name="08" Color="3cd2c4"
				Note Time="0" Value="C#3" Duration="32" Instrument="blank"
				Note Time="32" Value="C5" Duration="4" Instrument="blank"
				Note Time="36" Value="C#5" Duration="4" Instrument="blank"
				Note Time="40" Value="C5" Duration="4" Instrument="blank"
				Note Time="44" Value="A#4" Duration="4" Instrument="blank"
				Note Time="48" Value="G#4" Duration="8" Instrument="blank"
				Note Time="56" Value="G4" Duration="8" Instrument="blank"
			Pattern Name="09" Color="7585e7"
				Note Time="0" Value="F4" Duration="2" Instrument="triangle pluck 4"
				Note Time="2" Value="C4" Duration="2" Instrument="triangle pluck 4"
				Note Time="4" Value="G#3" Duration="2" Instrument="triangle pluck 4"
				Note Time="6" Value="F3" Duration="2" Instrument="triangle pluck 4"
				Note Time="8" Value="C#4" Duration="2" Instrument="triangle pluck 4"
				Note Time="10" Value="C4" Duration="2" Instrument="triangle pluck 4"
				Note Time="12" Value="G#3" Duration="2" Instrument="triangle pluck 4"
				Note Time="14" Value="F3" Duration="2" Instrument="triangle pluck 4"
				Note Time="16" Value="F4" Duration="2" Instrument="triangle pluck 4"
				Note Time="18" Value="C4" Duration="2" Instrument="triangle pluck 4"
				Note Time="20" Value="G#3" Duration="2" Instrument="triangle pluck 4"
				Note Time="22" Value="F3" Duration="2" Instrument="triangle pluck 4"
				Note Time="24" Value="C3" Duration="2" Instrument="triangle pluck 4"
				Note Time="26" Value="F3" Duration="2" Instrument="triangle pluck 4"
				Note Time="28" Value="G#3" Duration="2" Instrument="triangle pluck 4"
				Note Time="30" Value="C4" Duration="2" Instrument="triangle pluck 4"
				Note Time="32" Value="A#3" Duration="2" Instrument="triangle pluck 4"
				Note Time="34" Value="G3" Duration="2" Instrument="triangle pluck 4"
				Note Time="36" Value="D#3" Duration="2" Instrument="triangle pluck 4"
				Note Time="38" Value="A#2" Duration="2" Instrument="triangle pluck 4"
				Note Time="40" Value="A#3" Duration="2" Instrument="triangle pluck 4"
				Note Time="42" Value="G3" Duration="2" Instrument="triangle pluck 4"
				Note Time="44" Value="D#3" Duration="2" Instrument="triangle pluck 4"
				Note Time="46" Value="A#2" Duration="2" Instrument="triangle pluck 4"
				Note Time="48" Value="D#4" Duration="2" Instrument="triangle pluck 4"
				Note Time="50" Value="A#3" Duration="2" Instrument="triangle pluck 4"
				Note Time="52" Value="G3" Duration="2" Instrument="triangle pluck 4"
				Note Time="54" Value="D#3" Duration="2" Instrument="triangle pluck 4"
				Note Time="56" Value="A#2" Duration="2" Instrument="triangle pluck 4"
				Note Time="58" Value="D#3" Duration="2" Instrument="triangle pluck 4"
				Note Time="60" Value="G3" Duration="2" Instrument="triangle pluck 4"
				Note Time="62" Value="A#3" Duration="2" Instrument="triangle pluck 4"
			Pattern Name="0A" Color="ff6b6b"
				Note Time="0" Value="G#3" Duration="2" Instrument="triangle pluck 4"
				Note Time="2" Value="F3" Duration="2" Instrument="triangle pluck 4"
				Note Time="4" Value="C#3" Duration="2" Instrument="triangle pluck 4"
				Note Time="6" Value="G#2" Duration="2" Instrument="triangle pluck 4"
				Note Time="8" Value="C#3" Duration="2" Instrument="triangle pluck 4"
				Note Time="10" Value="F3" Duration="2" Instrument="triangle pluck 4"
				Note Time="12" Value="C#3" Duration="2" Instrument="triangle pluck 4"
				Note Time="14" Value="G#2" Duration="2" Instrument="triangle pluck 4"
				Note Time="16" Value="C#4" Duration="2" Instrument="triangle pluck 4"
				Note Time="18" Value="G#3" Duration="2" Instrument="triangle pluck 4"
				Note Time="20" Value="F3" Duration="2" Instrument="triangle pluck 4"
				Note Time="22" Value="G#2" Duration="2" Instrument="triangle pluck 4"
				Note Time="24" Value="C#3" Duration="2" Instrument="triangle pluck 4"
				Note Time="26" Value="F3" Duration="2" Instrument="triangle pluck 4"
				Note Time="28" Value="G#3" Duration="2" Instrument="triangle pluck 4"
				Note Time="30" Value="C#4" Duration="2" Instrument="triangle pluck 4"
				Note Time="32" Value="C4" Duration="2" Instrument="triangle pluck 4"
				Note Time="34" Value="D#4" Duration="2" Instrument="triangle pluck 4"
				Note Time="36" Value="G3" Duration="2" Instrument="triangle pluck 4"
				Note Time="38" Value="C4" Duration="2" Instrument="triangle pluck 4"
				Note Time="40" Value="D#4" Duration="2" Instrument="triangle pluck 4"
				Note Time="42" Value="G3" Duration="2" Instrument="triangle pluck 4"
				Note Time="44" Value="C4" Duration="2" Instrument="triangle pluck 4"
				Note Time="46" Value="D#4" Duration="2" Instrument="triangle pluck 4"
				Note Time="48" Value="E4" Duration="2" Instrument="triangle pluck 4"
				Note Time="50" Value="C4" Duration="2" Instrument="triangle pluck 4"
				Note Time="52" Value="G#3" Duration="2" Instrument="triangle pluck 4"
				Note Time="54" Value="E3" Duration="2" Instrument="triangle pluck 4"
				Note Time="56" Value="C3" Duration="2" Instrument="triangle pluck 4"
				Note Time="58" Value="G3" Duration="2" Instrument="triangle pluck 4"
				Note Time="60" Value="C4" Duration="2" Instrument="triangle pluck 4"
				Note Time="62" Value="E4" Duration="2" Instrument="triangle pluck 4"
			Pattern Name="0B" Color="ffdc3c"
				Note Time="0" Value="G#5" Duration="12" Instrument="blank"
				Note Time="12" Value="F5" Duration="8" Instrument="blank"
				Note Time="20" Value="A#5" Duration="8" Instrument="blank"
				Note Time="28" Value="C6" Duration="4" Instrument="blank"
				Note Time="32" Value="A#5" Duration="12" Instrument="blank"
				Note Time="44" Value="G5" Duration="8" Instrument="blank"
				Note Time="52" Value="C6" Duration="1" Instrument="blank" SlideTarget="C6"
				Note Time="53" Value="C6" Duration="2" Instrument="blank" SlideTarget="C#6" Attack="False"
				Note Time="55" Value="C#6" Duration="5" Instrument="blank" Attack="False"
				Note Time="60" Value="C6" Duration="4" Instrument="blank"
			Pattern Name="0C" Color="6ab96e"
				Note Time="0" Value="G#5" Duration="8" Instrument="blank"
				Note Time="8" Value="F5" Duration="8" Instrument="blank"
				Note Time="16" Value="C5" Duration="8" Instrument="blank"
				Note Time="24" Value="C#5" Duration="8" Instrument="blank"
				Note Time="32" Value="E5" Duration="16" Instrument="blank"
				Note Time="40" VibratoSpeed="8" VibratoDepth="2"
				Note Time="48" Value="C5" Duration="8" Instrument="blank"
				Note Time="56" Value="C6" Duration="1" Instrument="blank"
				Note Time="57" Value="C6" Duration="2" Instrument="blank" SlideTarget="C#6" Attack="False"
				Note Time="59" Value="C#6" Duration="4" Instrument="blank" Attack="False"
				Note Time="63" Value="C#6" Duration="2" Instrument="blank" SlideTarget="C6" Attack="False"
			Pattern Name="2" Color="a4db74"
				Note Time="0" Value="C6" Duration="4" Release="2" Instrument="blank"
				Note Time="4" Value="C2" Duration="2" Instrument="blank"
				Note Time="8" Value="C2" Duration="4" Instrument="blank"
				Note Time="12" Value="G1" Duration="4" Instrument="blank"
				Note Time="16" Value="C2" Duration="4" Instrument="blank"
				Note Time="20" Value="G1" Duration="4" Instrument="blank"
				Note Time="24" Value="C2" Duration="4" Instrument="blank"
				Note Time="28" Value="G1" Duration="4" Instrument="blank"
				Note Time="32" Value="G#1" Duration="2" Instrument="blank"
				Note Time="36" Value="D#2" Duration="2" Instrument="blank"
				Note Time="40" Value="D#2" Duration="4" Instrument="blank"
				Note Time="44" Value="D2" Duration="4" Instrument="blank"
				Note Time="48" Value="G2" Duration="4" Instrument="blank"
				Note Time="52" Value="G#2" Duration="4" Instrument="blank"
				Note Time="56" Value="G2" Duration="4" Instrument="blank"
				Note Time="60" Value="D#2" Duration="4" Instrument="blank"
			Pattern Name="4" Color="62ffff"
				Note Time="0" Value="C#3" Duration="2" Instrument="blank"
				Note Time="4" Value="C#3" Duration="2" Instrument="blank"
				Note Time="8" Value="C#3" Duration="4" Instrument="blank"
				Note Time="12" Value="G#2" Duration="4" Instrument="blank"
				Note Time="16" Value="C#3" Duration="4" Instrument="blank"
				Note Time="20" Value="G#2" Duration="4" Instrument="blank"
				Note Time="24" Value="C#3" Duration="4" Instrument="blank"
				Note Time="28" Value="G#2" Duration="4" Instrument="blank"
				Note Time="32" Value="A2" Duration="2" Instrument="blank"
				Note Time="36" Value="E3" Duration="2" Instrument="blank"
				Note Time="40" Value="E3" Duration="4" Instrument="blank"
				Note Time="44" Value="D#3" Duration="4" Instrument="blank"
				Note Time="48" Value="G#3" Duration="4" Instrument="blank"
				Note Time="52" Value="A3" Duration="4" Instrument="blank"
				Note Time="56" Value="G#3" Duration="4" Instrument="blank"
				Note Time="60" Value="E3" Duration="4" Instrument="blank"
			Pattern Name="8" Color="3ca598"
				Note Time="0" Value="C3" Duration="32" Instrument="sample"
				Note Time="32" Value="C3" Duration="32" Instrument="sample"
			Pattern Name="9" Color="ffac7f"
				Note Time="0" Value="G#2" Duration="32" Instrument="sample"
				Note Time="32" Value="G#2" Duration="32" Instrument="sample"
			Pattern Name="15" Color="b59184"
				Note Time="0" Value="C#4" Duration="4" Instrument="sample"
				Note Time="4" Value="G#3" Duration="4" Instrument="sample"
				Note Time="8" Value="C#4" Duration="4" Instrument="sample"
				Note Time="12" Value="G#3" Duration="4" Instrument="sample"
				Note Time="16" Value="C#4" Duration="4" Instrument="sample"
				Note Time="20" Value="G#3" Duration="4" Instrument="sample"
				Note Time="24" Value="C#4" Duration="4" Instrument="sample"
				Note Time="28" Value="G#3" Duration="4" Instrument="sample"
				Note Time="32" Value="C#4" Duration="4" Instrument="sample"
				Note Time="36" Value="G#3" Duration="4" Instrument="sample"
				Note Time="40" Value="C#4" Duration="4" Instrument="sample"
				Note Time="44" Value="G#3" Duration="4" Instrument="sample"
				Note Time="48" Value="C#4" Duration="4" Instrument="sample"
				Note Time="52" Value="G#3" Duration="4" Instrument="sample"
				Note Time="56" Value="C#4" Duration="4" Instrument="sample"
				Note Time="60" Value="D#4" Duration="4" Instrument="sample"
			Pattern Name="16" Color="ffafaf"
				Note Time="0" Value="E4" Duration="4" Instrument="sample"
				Note Time="4" Value="A3" Duration="4" Instrument="sample"
				Note Time="8" Value="E4" Duration="4" Instrument="sample"
				Note Time="13" Value="A3" Duration="4" Instrument="sample"
				Note Time="16" Value="E4" Duration="4" Instrument="sample"
				Note Time="20" Value="A3" Duration="4" Instrument="sample"
				Note Time="24" Value="E4" Duration="4" Instrument="sample"
				Note Time="28" Value="A3" Duration="4" Instrument="sample"
				Note Time="32" Value="E4" Duration="4" Instrument="sample"
				Note Time="36" Value="A3" Duration="4" Instrument="sample"
				Note Time="40" Value="E4" Duration="4" Instrument="sample"
				Note Time="44" Value="A3" Duration="4" Instrument="sample"
				Note Time="48" Value="E4" Duration="4" Instrument="sample"
				Note Time="52" Value="F#4" Duration="4" Instrument="sample"
				Note Time="56" Value="D#4" Duration="4" Instrument="sample"
				Note Time="60" Value="E4" Duration="4" Instrument="sample"
			Pattern Name="17" Color="3cbfcb"
				Note Time="0" Value="D4" Duration="4" Instrument="sample"
				Note Time="4" Value="A3" Duration="4" Instrument="sample"
				Note Time="8" Value="D4" Duration="4" Instrument="sample"
				Note Time="12" Value="A3" Duration="4" Instrument="sample"
				Note Time="16" Value="D4" Duration="4" Instrument="sample"
				Note Time="20" Value="A3" Duration="4" Instrument="sample"
				Note Time="24" Value="D4" Duration="4" Instrument="sample"
				Note Time="28" Value="A3" Duration="4" Instrument="sample"
				Note Time="32" Value="D4" Duration="4" Instrument="sample"
				Note Time="36" Value="A3" Duration="4" Instrument="sample"
				Note Time="40" Value="D4" Duration="4" Instrument="sample"
				Note Time="44" Value="A3" Duration="4" Instrument="sample"
				Note Time="48" Value="D4" Duration="4" Instrument="sample"
				Note Time="52" Value="A3" Duration="4" Instrument="sample"
				Note Time="56" Value="D4" Duration="4" Instrument="sample"
				Note Time="60" Value="E4" Duration="4" Instrument="sample"
			Pattern Name="18" Color="ddc4bb"
				Note Time="0" Value="F4" Duration="4" Instrument="sample"
				Note Time="4" Value="A#3" Duration="4" Instrument="sample"
				Note Time="8" Value="F4" Duration="4" Instrument="sample"
				Note Time="13" Value="A#3" Duration="4" Instrument="sample"
				Note Time="16" Value="F4" Duration="4" Instrument="sample"
				Note Time="20" Value="A#3" Duration="4" Instrument="sample"
				Note Time="24" Value="F4" Duration="4" Instrument="sample"
				Note Time="28" Value="A#3" Duration="4" Instrument="sample"
				Note Time="32" Value="F4" Duration="4" Instrument="sample"
				Note Time="36" Value="A#3" Duration="4" Instrument="sample"
				Note Time="40" Value="F4" Duration="4" Instrument="sample"
				Note Time="44" Value="A#3" Duration="4" Instrument="sample"
				Note Time="48" Value="F4" Duration="4" Instrument="sample"
				Note Time="52" Value="G4" Duration="4" Instrument="sample"
				Note Time="56" Value="E4" Duration="4" Instrument="sample"
				Note Time="60" Value="F4" Duration="4" Instrument="sample"
			Pattern Name="22" Color="7ee1ff"
				Note Time="0" Value="A4" Duration="4" Instrument="sample"
				Note Time="4" Value="F4" Duration="4" Instrument="sample"
				Note Time="8" Value="A4" Duration="4" Instrument="sample"
				Note Time="12" Value="F4" Duration="4" Instrument="sample"
				Note Time="16" Value="A4" Duration="4" Instrument="sample"
				Note Time="20" Value="F4" Duration="4" Instrument="sample"
				Note Time="24" Value="A4" Duration="4" Instrument="sample"
				Note Time="28" Value="F4" Duration="4" Instrument="sample"
				Note Time="32" Value="A4" Duration="4" Instrument="sample"
				Note Time="36" Value="F4" Duration="4" Instrument="sample"
				Note Time="40" Value="A4" Duration="4" Instrument="sample"
				Note Time="44" Value="F4" Duration="4" Instrument="sample"
				Note Time="48" Value="A4" Duration="4" Instrument="sample"
				Note Time="52" Value="F4" Duration="4" Instrument="sample"
				Note Time="56" Value="A4" Duration="4" Instrument="sample"
				Note Time="60" Value="F4" Duration="4" Instrument="sample"
			Pattern Name="19" Color="ff6b6b"
				Note Time="0" Value="G4" Duration="4" Instrument="sample"
				Note Time="4" Value="E4" Duration="4" Instrument="sample"
				Note Time="8" Value="G4" Duration="4" Instrument="sample"
				Note Time="12" Value="E4" Duration="4" Instrument="sample"
				Note Time="16" Value="G4" Duration="4" Instrument="sample"
				Note Time="20" Value="E4" Duration="4" Instrument="sample"
				Note Time="24" Value="G4" Duration="4" Instrument="sample"
				Note Time="28" Value="E4" Duration="4" Instrument="sample"
				Note Time="32" Value="G4" Duration="4" Instrument="sample"
				Note Time="36" Value="E4" Duration="4" Instrument="sample"
				Note Time="40" Value="G4" Duration="4" Instrument="sample"
				Note Time="44" Value="E4" Duration="4" Instrument="sample"
				Note Time="48" Value="G4" Duration="4" Instrument="sample"
				Note Time="52" Value="E4" Duration="4" Instrument="sample"
				Note Time="56" Value="G4" Duration="4" Instrument="sample"
				Note Time="60" Value="E4" Duration="4" Instrument="sample"
			Pattern Name="20" Color="62ffff"
				Note Time="0" Value="D4" Duration="4" Instrument="sample"
				Note Time="4" Value="A3" Duration="4" Instrument="sample"
				Note Time="8" Value="D4" Duration="4" Instrument="sample"
				Note Time="12" Value="A3" Duration="4" Instrument="sample"
				Note Time="16" Value="D4" Duration="4" Instrument="sample"
				Note Time="20" Value="A3" Duration="4" Instrument="sample"
				Note Time="24" Value="D4" Duration="4" Instrument="sample"
				Note Time="28" Value="A3" Duration="4" Instrument="sample"
				Note Time="32" Value="D4" Duration="4" Instrument="sample"
				Note Time="36" Value="A3" Duration="4" Instrument="sample"
				Note Time="40" Value="D4" Duration="4" Instrument="sample"
				Note Time="44" Value="A3" Duration="4" Instrument="sample"
				Note Time="48" Value="D4" Duration="4" Instrument="sample"
				Note Time="52" Value="A3" Duration="4" Instrument="sample"
				Note Time="56" Value="D4" Duration="4" Instrument="sample"
				Note Time="60" Value="E4" Duration="4" Instrument="sample"
			Pattern Name="21" Color="a2f7a6"
				Note Time="0" Value="F4" Duration="4" Instrument="sample"
				Note Time="4" Value="A#3" Duration="4" Instrument="sample"
				Note Time="8" Value="F4" Duration="4" Instrument="sample"
				Note Time="12" Value="A#3" Duration="4" Instrument="sample"
				Note Time="16" Value="F4" Duration="4" Instrument="sample"
				Note Time="20" Value="A#3" Duration="4" Instrument="sample"
				Note Time="24" Value="F4" Duration="4" Instrument="sample"
				Note Time="28" Value="A#3" Duration="4" Instrument="sample"
				Note Time="32" Value="F4" Duration="4" Instrument="sample"
				Note Time="36" Value="A#3" Duration="4" Instrument="sample"
				Note Time="40" Value="F4" Duration="4" Instrument="sample"
				Note Time="44" Value="A#3" Duration="4" Instrument="sample"
				Note Time="48" Value="F4" Duration="4" Instrument="sample"
				Note Time="52" Value="G4" Duration="4" Instrument="sample"
				Note Time="56" Value="E4" Duration="4" Instrument="sample"
				Note Time="60" Value="F4" Duration="4" Instrument="sample"
			Pattern Name="23" Color="a4db74"
				Note Time="0" Value="A4" Duration="4" Instrument="sample"
				Note Time="4" Value="C5" Duration="4" Instrument="sample"
				Note Time="8" Value="A4" Duration="4" Instrument="sample"
				Note Time="12" Value="C5" Duration="4" Instrument="sample"
				Note Time="16" Value="A4" Duration="4" Instrument="sample"
				Note Time="20" Value="C5" Duration="4" Instrument="sample"
				Note Time="24" Value="A4" Duration="4" Instrument="sample"
				Note Time="28" Value="C5" Duration="4" Instrument="sample"
				Note Time="32" Value="A4" Duration="4" Instrument="sample"
				Note Time="36" Value="F4" Duration="4" Instrument="sample"
				Note Time="40" Value="A4" Duration="4" Instrument="sample"
				Note Time="44" Value="F4" Duration="4" Instrument="sample"
				Note Time="48" Value="A4" Duration="4" Instrument="sample"
				Note Time="52" Value="F4" Duration="4" Instrument="sample"
				Note Time="56" Value="A4" Duration="4" Instrument="sample"
				Note Time="60" Value="F4" Duration="4" Instrument="sample"
			Pattern Name="24" Color="8bffff"
				Note Time="0" Value="G4" Duration="4" Instrument="sample"
				Note Time="4" Value="C4" Duration="4" Instrument="sample"
				Note Time="8" Value="G4" Duration="4" Instrument="sample"
				Note Time="12" Value="C4" Duration="4" Instrument="sample"
				Note Time="16" Value="G4" Duration="4" Instrument="sample"
				Note Time="20" Value="C4" Duration="4" Instrument="sample"
				Note Time="24" Value="G4" Duration="4" Instrument="sample"
				Note Time="28" Value="C4" Duration="4" Instrument="sample"
				Note Time="32" Value="G4" Duration="4" Instrument="sample"
				Note Time="36" Value="C4" Duration="4" Instrument="sample"
				Note Time="40" Value="G4" Duration="4" Instrument="sample"
				Note Time="44" Value="C4" Duration="4" Instrument="sample"
				Note Time="48" Value="G4" Duration="4" Instrument="sample"
				Note Time="52" Value="C4" Duration="4" Instrument="sample"
				Note Time="56" Value="G4" Duration="4" Instrument="sample"
				Note Time="60" Value="C4" Duration="4" Instrument="sample"
			Pattern Name="5" Color="ffffb1"
				Note Time="0" Value="D2" Duration="2" Instrument="blank"
				Note Time="4" Value="D2" Duration="2" Instrument="blank"
				Note Time="8" Value="D2" Duration="4" Instrument="blank"
				Note Time="12" Value="A1" Duration="4" Instrument="blank"
				Note Time="16" Value="D2" Duration="4" Instrument="blank"
				Note Time="20" Value="A1" Duration="4" Instrument="blank"
				Note Time="24" Value="D2" Duration="4" Instrument="blank"
				Note Time="28" Value="A1" Duration="4" Instrument="blank"
				Note Time="32" Value="A#1" Duration="2" Instrument="blank"
				Note Time="36" Value="F2" Duration="2" Instrument="blank"
				Note Time="40" Value="F2" Duration="4" Instrument="blank"
				Note Time="44" Value="E2" Duration="4" Instrument="blank"
				Note Time="48" Value="A2" Duration="4" Instrument="blank"
				Note Time="52" Value="A#2" Duration="4" Instrument="blank"
				Note Time="56" Value="A2" Duration="4" Instrument="blank"
				Note Time="60" Value="F2" Duration="4" Instrument="blank"
			PatternInstance Time="0" Pattern="00"
			PatternInstance Time="1" Pattern="01"
			PatternInstance Time="2" Pattern="01"
			PatternInstance Time="3" Pattern="01"
			PatternInstance Time="4" Pattern="02"
			PatternInstance Time="5" Pattern="03"
			PatternInstance Time="6" Pattern="03"
			PatternInstance Time="7" Pattern="03"
			PatternInstance Time="8" Pattern="03"
			PatternInstance Time="9" Pattern="04"
			PatternInstance Time="10" Pattern="04"
			PatternInstance Time="11" Pattern="04"
			PatternInstance Time="12" Pattern="04"
			PatternInstance Time="13" Pattern="01"
			PatternInstance Time="14" Pattern="01"
			PatternInstance Time="15" Pattern="01"
			PatternInstance Time="16" Pattern="01"
			PatternInstance Time="17" Pattern="03"
			PatternInstance Time="18" Pattern="03"
			PatternInstance Time="19" Pattern="03"
			PatternInstance Time="20" Pattern="03"
			PatternInstance Time="21" Pattern="01"
			PatternInstance Time="22" Pattern="05"
			PatternInstance Time="23" Pattern="06"
			PatternInstance Time="24" Pattern="07"
			PatternInstance Time="25" Pattern="06"
			PatternInstance Time="26" Pattern="08"
			PatternInstance Time="27" Pattern="06"
			PatternInstance Time="28" Pattern="07"
			PatternInstance Time="29" Pattern="06"
			PatternInstance Time="30" Pattern="08"
			PatternInstance Time="31" Pattern="09"
			PatternInstance Time="32" Pattern="0A"
			PatternInstance Time="33" Pattern="09"
			PatternInstance Time="34" Pattern="0A"
			PatternInstance Time="35" Pattern="00"
			PatternInstance Time="36" Pattern="00"
			PatternInstance Time="37" Pattern="0B"
			PatternInstance Time="38" Pattern="0C"
			PatternInstance Time="39" Pattern="2"
			PatternInstance Time="40" Pattern="01"
			PatternInstance Time="41" Pattern="01"
			PatternInstance Time="42" Pattern="02"
			PatternInstance Time="43" Pattern="4"
			PatternInstance Time="44" Pattern="4"
			PatternInstance Time="45" Pattern="4"
			PatternInstance Time="46" Pattern="4"
			PatternInstance Time="47" Pattern="8"
			PatternInstance Time="48" Pattern="9"
			PatternInstance Time="49" Pattern="8"
			PatternInstance Time="50" Pattern="9"
			PatternInstance Time="51" Pattern="8"
			PatternInstance Time="52" Pattern="9"
			PatternInstance Time="53" Pattern="8"
			PatternInstance Time="54" Pattern="9"
			PatternInstance Time="55" Pattern="15"
			PatternInstance Time="56" Pattern="16"
			PatternInstance Time="57" Pattern="15"
			PatternInstance Time="58" Pattern="16"
			PatternInstance Time="59" Pattern="17"
			PatternInstance Time="60" Pattern="18"
			PatternInstance Time="61" Pattern="22"
			PatternInstance Time="62" Pattern="19"
			PatternInstance Time="63" Pattern="20"
			PatternInstance Time="64" Pattern="21"
			PatternInstance Time="65" Pattern="23"
			PatternInstance Time="66" Pattern="24"
			PatternInstance Time="67" Pattern="20"
			PatternInstance Time="68" Pattern="21"
			PatternInstance Time="69" Pattern="23"
			PatternInstance Time="70" Pattern="24"
			PatternInstance Time="75" Pattern="5"
			PatternInstance Time="76" Pattern="5"
			PatternInstance Time="77" Pattern="5"
			PatternInstance Time="78" Pattern="5"
			PatternInstance Time="79" Pattern="5"
			PatternInstance Time="80" Pattern="5"
			PatternInstance Time="81" Pattern="5"
			PatternInstance Time="82" Pattern="5"
		Channel Type="Noise"
			Pattern Name="00" Color="ff7cb6"
				Note Time="0" Value="F3" Duration="16" Instrument="blank" Volume="0"
				Note Time="6" Volume="1"
				Note Time="8" Volume="2"
				Note Time="10" Volume="3"
				Note Time="12" Volume="4"
				Note Time="14" Volume="5"
				Note Time="16" Value="F#3" Duration="8" Instrument="blank" Volume="6"
				Note Time="18" Volume="7"
				Note Time="20" Volume="8"
				Note Time="22" Volume="9"
				Note Time="24" Value="G3" Duration="8" Instrument="blank" Volume="10"
				Note Time="25" Volume="11"
				Note Time="26" Volume="12"
				Note Time="27" Volume="13"
				Note Time="29" Volume="15"
			Pattern Name="01" Color="ffe362"
				Note Time="0" Value="G#3" Duration="12" Instrument="cymbal"
				Note Time="12" Value="G3" Duration="4" Instrument="rel hats"
				Note Time="16" Value="G#2" Duration="4" Instrument="hat"
				Note Time="20" Value="G3" Duration="4" Instrument="rel hats"
				Note Time="24" Value="G#2" Duration="4" Instrument="hat"
				Note Time="28" Value="G3" Duration="4" Instrument="rel hats"
				Note Time="32" Value="G#2" Duration="4" Instrument="hat"
				Note Time="36" Value="G3" Duration="4" Instrument="rel hats"
				Note Time="40" Value="G#2" Duration="4" Instrument="hat"
				Note Time="44" Value="G3" Duration="4" Instrument="rel hats"
				Note Time="48" Value="G#2" Duration="4" Instrument="hat"
				Note Time="52" Value="G3" Duration="4" Instrument="rel hats"
				Note Time="56" Value="G#2" Duration="4" Instrument="hat"
				Note Time="60" Value="G3" Duration="4" Instrument="rel hats"
			Pattern Name="02" Color="c7ff86"
				Note Time="0" Value="G#2" Duration="4" Instrument="hat"
				Note Time="4" Value="G3" Duration="4" Instrument="rel hats"
				Note Time="8" Value="G#2" Duration="4" Instrument="hat"
				Note Time="12" Value="G3" Duration="4" Instrument="rel hats"
				Note Time="16" Value="G#2" Duration="4" Instrument="hat"
				Note Time="20" Value="G3" Duration="4" Instrument="rel hats"
				Note Time="24" Value="G#2" Duration="4" Instrument="hat"
				Note Time="28" Value="G3" Duration="4" Instrument="rel hats"
				Note Time="32" Value="G#2" Duration="4" Instrument="hat"
				Note Time="36" Value="G3" Duration="4" Instrument="rel hats"
				Note Time="40" Value="G#2" Duration="4" Instrument="hat"
				Note Time="44" Value="G3" Duration="4" Instrument="rel hats"
				Note Time="48" Value="G#2" Duration="4" Instrument="hat"
				Note Time="52" Value="G3" Duration="4" Instrument="rel hats"
				Note Time="56" Value="G#2" Duration="4" Instrument="hat"
				Note Time="60" Value="G3" Duration="4" Instrument="rel hats"
			Pattern Name="03" Color="3fd7ff"
				Note Time="0" Value="G#3" Duration="4" Instrument="cymbal"
				Note Time="4" Value="G#3" Duration="4" Instrument="rel hats"
				Note Time="8" Value="F#3" Duration="4" Instrument="clap"
				Note Time="12" Value="G#3" Duration="4" Instrument="rel hats"
				Note Time="16" Value="G#2" Duration="4" Instrument="hat"
				Note Time="20" Value="G#3" Duration="4" Instrument="rel hats"
				Note Time="24" Value="F#3" Duration="4" Instrument="clap"
				Note Time="28" Value="G#3" Duration="4" Instrument="rel hats"
				Note Time="32" Value="G#2" Duration="4" Instrument="hat"
				Note Time="36" Value="G#3" Duration="4" Instrument="rel hats"
				Note Time="40" Value="F#3" Duration="4" Instrument="clap"
				Note Time="44" Value="G#3" Duration="4" Instrument="rel hats"
				Note Time="48" Value="G#2" Duration="4" Instrument="hat"
				Note Time="52" Value="G#3" Duration="4" Instrument="rel hats"
				Note Time="56" Value="F#3" Duration="4" Instrument="clap"
				Note Time="60" Value="G#3" Duration="2" Instrument="rel hats"
				Note Time="62" Value="F#3" Duration="6" Instrument="clap"
			Pattern Name="04" Color="b75bde"
				Note Time="4" Value="G#3" Duration="4" Instrument="rel hats"
				Note Time="8" Value="F#3" Duration="4" Instrument="clap"
				Note Time="12" Value="G#3" Duration="4" Instrument="rel hats"
				Note Time="16" Value="G#2" Duration="4" Instrument="hat"
				Note Time="20" Value="G#3" Duration="4" Instrument="rel hats"
				Note Time="24" Value="F#3" Duration="4" Instrument="clap"
				Note Time="28" Value="G#3" Duration="4" Instrument="rel hats"
				Note Time="32" Value="G3" Duration="8" Instrument="cymbal"
				Note Time="40" Value="G3" Duration="8" Instrument="cymbal"
				Note Time="48" Value="G3" Duration="8" Instrument="cymbal"
				Note Time="56" Value="G3" Duration="8" Instrument="cymbal"
			Pattern Name="05" Color="ff8655"
				Note Time="4" Value="G#3" Duration="4" Instrument="rel hats"
				Note Time="8" Value="F#3" Duration="4" Instrument="clap"
				Note Time="12" Value="G#3" Duration="4" Instrument="rel hats"
				Note Time="16" Value="G#2" Duration="4" Instrument="hat"
				Note Time="20" Value="G#3" Duration="4" Instrument="rel hats"
				Note Time="24" Value="F#3" Duration="4" Instrument="clap"
				Note Time="28" Value="G#3" Duration="4" Instrument="rel hats"
				Note Time="32" Value="G#2" Duration="4" Instrument="hat"
				Note Time="36" Value="G#3" Duration="4" Instrument="rel hats"
				Note Time="40" Value="F#3" Duration="4" Instrument="clap"
				Note Time="44" Value="G#3" Duration="4" Instrument="rel hats"
				Note Time="48" Value="G#2" Duration="4" Instrument="hat"
				Note Time="52" Value="G#3" Duration="4" Instrument="rel hats"
				Note Time="56" Value="F#3" Duration="4" Instrument="clap"
				Note Time="60" Value="G#3" Duration="2" Instrument="rel hats"
				Note Time="62" Value="F#3" Duration="2" Instrument="clap"
			Pattern Name="06" Color="dad960"
				Note Time="4" Value="G#3" Duration="4" Instrument="rel hats"
				Note Time="8" Value="F#3" Duration="4" Instrument="clap"
				Note Time="12" Value="G#3" Duration="4" Instrument="rel hats"
				Note Time="16" Value="G#2" Duration="4" Instrument="hat"
				Note Time="20" Value="G#3" Duration="4" Instrument="rel hats"
				Note Time="24" Value="F#3" Duration="4" Instrument="clap"
				Note Time="28" Value="G#3" Duration="4" Instrument="rel hats"
				Note Time="32" Value="G3" Duration="8" Instrument="cymbal"
				Note Time="40" Value="G3" Duration="8" Instrument="cymbal"
				Note Time="48" Value="G3" Duration="8" Instrument="cymbal"
				Note Time="56" Value="G3" Duration="8" Instrument="cymbal"
			Pattern Name="07" Color="89ffff"
				Note Time="0" Value="F#3" Duration="27" Instrument="cymbal"
				Note Time="12" Volume="14"
				Note Time="13" Volume="13"
				Note Time="14" Volume="12"
				Note Time="15" Volume="11"
				Note Time="16" Volume="10"
				Note Time="17" Volume="9"
				Note Time="18" Volume="8"
				Note Time="19" Volume="7"
				Note Time="20" Volume="6"
				Note Time="21" Volume="5"
				Note Time="22" Volume="4"
				Note Time="23" Volume="3"
				Note Time="24" Volume="2"
				Note Time="25" Volume="1"
				Note Time="26" Volume="0"
				Note Time="27" Volume="15"
			Pattern Name="08" Color="ba93fe"
				Note Time="32" Value="F3" Duration="16" Instrument="blank" Volume="0"
				Note Time="36" Volume="1"
				Note Time="40" Volume="2"
				Note Time="44" Volume="3"
				Note Time="48" Value="F#3" Duration="8" Instrument="blank" Volume="4"
				Note Time="52" Volume="5"
				Note Time="56" Value="G3" Duration="8" Instrument="blank" Volume="6"
				Note Time="58" Volume="7"
				Note Time="60" Volume="10"
				Note Time="62" Volume="11"
			Pattern Name="09" Color="c9aa9f"
				Note Time="0" Value="G#3" Duration="4" Instrument="cymbal" Volume="15"
				Note Time="4" Value="G3" Duration="8" Instrument="rel hats"
				Note Time="12" Value="G3" Duration="8" Instrument="rel hats"
				Note Time="20" Value="G3" Duration="8" Instrument="rel hats"
				Note Time="28" Value="G3" Duration="8" Instrument="rel hats"
				Note Time="36" Value="G3" Duration="8" Instrument="rel hats"
				Note Time="44" Value="G3" Duration="8" Instrument="rel hats"
				Note Time="52" Value="G3" Duration="8" Instrument="rel hats"
				Note Time="60" Value="G3" Duration="8" Instrument="rel hats"
			Pattern Name="0A" Color="ffff77"
				Note Time="4" Value="G3" Duration="8" Instrument="rel hats"
				Note Time="12" Value="G3" Duration="8" Instrument="rel hats"
				Note Time="20" Value="G3" Duration="8" Instrument="rel hats"
				Note Time="28" Value="G3" Duration="8" Instrument="rel hats"
				Note Time="36" Value="G3" Duration="8" Instrument="rel hats"
				Note Time="44" Value="G3" Duration="8" Instrument="rel hats"
				Note Time="52" Value="G3" Duration="8" Instrument="rel hats"
				Note Time="60" Value="G3" Duration="4" Instrument="rel hats"
			Pattern Name="0B" Color="3cc5b7"
				Note Time="0" Value="G#3" Duration="4" Instrument="cymbal"
				Note Time="4" Value="A3" Duration="2" Instrument="rel hats"
				Note Time="6" Value="A3" Duration="2" Instrument="rel hats"
				Note Time="10" Value="A3" Duration="2" Instrument="hat"
				Note Time="12" Value="A3" Duration="2" Instrument="rel hats"
				Note Time="14" Value="A3" Duration="4" Instrument="rel hats"
				Note Time="18" Value="A3" Duration="2" Instrument="hat"
				Note Time="20" Value="A3" Duration="2" Instrument="rel hats"
				Note Time="22" Value="A3" Duration="2" Instrument="rel hats"
				Note Time="26" Value="A3" Duration="2" Instrument="hat"
				Note Time="28" Value="A3" Duration="2" Instrument="rel hats"
				Note Time="30" Value="A3" Duration="4" Instrument="rel hats"
				Note Time="34" Value="A3" Duration="2" Instrument="hat"
				Note Time="36" Value="A3" Duration="2" Instrument="rel hats"
				Note Time="38" Value="A3" Duration="2" Instrument="rel hats"
				Note Time="42" Value="A3" Duration="2" Instrument="hat"
				Note Time="44" Value="A3" Duration="2" Instrument="rel hats"
				Note Time="46" Value="A3" Duration="4" Instrument="rel hats"
				Note Time="50" Value="A3" Duration="2" Instrument="hat"
				Note Time="52" Value="A3" Duration="2" Instrument="rel hats"
				Note Time="54" Value="A3" Duration="2" Instrument="rel hats"
				Note Time="58" Value="A3" Duration="2" Instrument="hat"
				Note Time="60" Value="A3" Duration="2" Instrument="rel hats"
				Note Time="62" Value="A3" Duration="4" Instrument="rel hats"
			Pattern Name="0C" Color="6c7bdb"
				Note Time="2" Value="A3" Duration="2" Instrument="hat"
				Note Time="4" Value="A3" Duration="2" Instrument="rel hats"
				Note Time="6" Value="A3" Duration="2" Instrument="rel hats"
				Note Time="10" Value="A3" Duration="2" Instrument="hat"
				Note Time="12" Value="A3" Duration="2" Instrument="rel hats"
				Note Time="14" Value="A3" Duration="4" Instrument="rel hats"
				Note Time="18" Value="A3" Duration="2" Instrument="hat"
				Note Time="20" Value="A3" Duration="2" Instrument="rel hats"
				Note Time="22" Value="A3" Duration="2" Instrument="rel hats"
				Note Time="26" Value="A3" Duration="2" Instrument="hat"
				Note Time="28" Value="A3" Duration="2" Instrument="rel hats"
				Note Time="30" Value="A3" Duration="4" Instrument="rel hats"
				Note Time="34" Value="A3" Duration="2" Instrument="hat"
				Note Time="36" Value="A3" Duration="2" Instrument="rel hats"
				Note Time="38" Value="A3" Duration="2" Instrument="rel hats"
				Note Time="42" Value="A3" Duration="2" Instrument="hat"
				Note Time="44" Value="A3" Duration="2" Instrument="rel hats"
				Note Time="46" Value="A3" Duration="4" Instrument="rel hats"
				Note Time="50" Value="A3" Duration="2" Instrument="hat"
				Note Time="52" Value="A3" Duration="2" Instrument="rel hats"
				Note Time="54" Value="A3" Duration="2" Instrument="rel hats"
				Note Time="58" Value="A3" Duration="2" Instrument="hat"
				Note Time="60" Value="A3" Duration="2" Instrument="rel hats"
				Note Time="62" Value="A3" Duration="2" Instrument="rel hats"
			Pattern Name="0D" Color="ff6464"
				Note Time="2" Value="A3" Duration="2" Instrument="hat"
				Note Time="4" Value="A3" Duration="2" Instrument="rel hats"
				Note Time="6" Value="A3" Duration="2" Instrument="rel hats"
				Note Time="10" Value="A3" Duration="2" Instrument="hat"
				Note Time="12" Value="A3" Duration="2" Instrument="rel hats"
				Note Time="14" Value="A3" Duration="4" Instrument="rel hats"
				Note Time="18" Value="A3" Duration="2" Instrument="hat"
				Note Time="20" Value="A3" Duration="2" Instrument="rel hats"
				Note Time="22" Value="A3" Duration="2" Instrument="rel hats"
				Note Time="26" Value="A3" Duration="2" Instrument="hat"
				Note Time="28" Value="A3" Duration="2" Instrument="rel hats"
				Note Time="30" Value="A3" Duration="2" Instrument="rel hats"
				Note Time="32" Value="G#3" Duration="4" Instrument="cymbal"
				Note Time="36" Value="A3" Duration="2" Instrument="rel hats"
				Note Time="38" Value="A3" Duration="2" Instrument="rel hats"
				Note Time="40" Value="G#3" Duration="4" Instrument="cymbal"
				Note Time="44" Value="A3" Duration="2" Instrument="rel hats"
				Note Time="46" Value="A3" Duration="2" Instrument="rel hats"
				Note Time="48" Value="G#3" Duration="4" Instrument="cymbal"
				Note Time="52" Value="A3" Duration="2" Instrument="rel hats"
				Note Time="54" Value="A3" Duration="2" Instrument="rel hats"
				Note Time="56" Value="G#3" Duration="4" Instrument="cymbal"
				Note Time="60" Value="A3" Duration="2" Instrument="rel hats"
				Note Time="62" Value="A3" Duration="2" Instrument="rel hats"
			Pattern Name="0E" Color="ffcb3c"
				Note Time="0" Value="G3" Duration="4" Instrument="hat"
				Note Time="4" Value="A3" Duration="4" Instrument="rel hats"
				Note Time="8" Value="A3" Duration="4" Instrument="rel hats"
				Note Time="12" Value="G3" Duration="4" Instrument="hat"
				Note Time="16" Value="G3" Duration="4" Instrument="hat"
				Note Time="20" Value="A3" Duration="4" Instrument="rel hats"
				Note Time="24" Value="A3" Duration="4" Instrument="rel hats"
				Note Time="28" Value="G3" Duration="4" Instrument="hat"
				Note Time="32" Value="G3" Duration="4" Instrument="hat"
				Note Time="36" Value="A3" Duration="4" Instrument="rel hats"
				Note Time="40" Value="A3" Duration="4" Instrument="rel hats"
				Note Time="44" Value="G3" Duration="4" Instrument="hat"
				Note Time="48" Value="G3" Duration="4" Instrument="hat"
				Note Time="52" Value="A3" Duration="4" Instrument="rel hats"
				Note Time="56" Value="A3" Duration="4" Instrument="rel hats"
				Note Time="60" Value="G3" Duration="4" Instrument="hat"
			Pattern Name="0F" Color="bdffc0"
				Note Time="0" Value="F3" Duration="16" Instrument="blank" Volume="5"
				Note Time="4" Volume="6"
				Note Time="8" Volume="7"
				Note Time="12" Volume="8"
				Note Time="16" Value="F#3" Duration="8" Instrument="blank" Volume="9"
				Note Time="20" Volume="10"
				Note Time="24" Value="G3" Duration="8" Instrument="blank" Volume="11"
				Note Time="26" Volume="12"
				Note Time="28" Volume="13"
				Note Time="30" Volume="14"
				Note Time="31" Volume="15"
			Pattern Name="10" Color="7ee1ff"
			Pattern Name="11" Color="ff5a9f"
				Note Time="0" Value="G#3" Duration="4" Instrument="cymbal"
				Note Time="4" Value="F#3" Duration="8" Instrument="rel hats"
				Note Time="12" Value="F#3" Duration="8" Instrument="rel hats"
				Note Time="20" Value="F#3" Duration="8" Instrument="rel hats"
				Note Time="28" Value="F#3" Duration="8" Instrument="rel hats"
				Note Time="36" Value="F#3" Duration="8" Instrument="rel hats"
				Note Time="44" Value="F#3" Duration="8" Instrument="rel hats"
				Note Time="52" Value="F#3" Duration="8" Instrument="rel hats"
				Note Time="60" Value="F#3" Duration="8" Instrument="rel hats"
			Pattern Name="12" Color="ffd43c"
				Note Time="4" Value="F#3" Duration="8" Instrument="rel hats"
				Note Time="12" Value="F#3" Duration="8" Instrument="rel hats"
				Note Time="20" Value="F#3" Duration="8" Instrument="rel hats"
				Note Time="28" Value="F#3" Duration="8" Instrument="rel hats"
				Note Time="36" Value="F#3" Duration="8" Instrument="rel hats"
				Note Time="44" Value="F#3" Duration="8" Instrument="rel hats"
				Note Time="52" Value="F#3" Duration="8" Instrument="rel hats"
				Note Time="60" Value="F#3" Duration="4" Instrument="rel hats"
			Pattern Name="13" Color="b8ef7e"
				Note Time="4" Value="F#3" Duration="8" Instrument="rel hats"
				Note Time="12" Value="F#3" Duration="8" Instrument="rel hats"
				Note Time="20" Value="F#3" Duration="8" Instrument="rel hats"
				Note Time="28" Value="F#3" Duration="4" Instrument="rel hats"
				Note Time="32" Value="F3" Duration="16" Instrument="blank" Volume="0"
				Note Time="36" Volume="1"
				Note Time="40" Volume="2"
				Note Time="44" Volume="3"
				Note Time="48" Value="F#3" Duration="2" Instrument="nc_click" Volume="7"
				Note Time="50" Value="F#3" Duration="2" Instrument="nc_click"
				Note Time="52" Value="F#3" Duration="2" Instrument="nc_click"
				Note Time="54" Value="F#3" Duration="2" Instrument="nc_click"
				Note Time="56" Value="F#3" Duration="2" Instrument="nc_click"
				Note Time="58" Value="F#3" Duration="2" Instrument="nc_click"
				Note Time="60" Value="F#3" Duration="2" Instrument="nc_click"
				Note Time="62" Value="F#3" Duration="2" Instrument="nc_click"
			Pattern Name="5" Color="b59184"
				Note Time="0" Value="A3" Duration="4" Instrument="cymbal"
				Note Time="4" Value="A3" Duration="4" Instrument="rel hats"
				Note Time="8" Value="G3" Duration="4" Instrument="clap"
				Note Time="12" Value="A3" Duration="4" Instrument="rel hats"
				Note Time="16" Value="A2" Duration="4" Instrument="hat"
				Note Time="20" Value="A3" Duration="4" Instrument="rel hats"
				Note Time="24" Value="G3" Duration="4" Instrument="clap"
				Note Time="28" Value="A3" Duration="4" Instrument="rel hats"
				Note Time="32" Value="A2" Duration="4" Instrument="hat"
				Note Time="36" Value="A3" Duration="4" Instrument="rel hats"
				Note Time="40" Value="G3" Duration="4" Instrument="clap"
				Note Time="44" Value="A3" Duration="4" Instrument="rel hats"
				Note Time="48" Value="A2" Duration="4" Instrument="hat"
				Note Time="52" Value="A3" Duration="4" Instrument="rel hats"
				Note Time="56" Value="G3" Duration="4" Instrument="clap"
				Note Time="60" Value="A3" Duration="2" Instrument="rel hats"
				Note Time="62" Value="G3" Duration="6" Instrument="clap"
			Pattern Name="6" Color="3cb5a7"
				Note Time="4" Value="A3" Duration="4" Instrument="rel hats"
				Note Time="8" Value="G3" Duration="4" Instrument="clap"
				Note Time="12" Value="A3" Duration="4" Instrument="rel hats"
				Note Time="16" Value="A2" Duration="4" Instrument="hat"
				Note Time="20" Value="A3" Duration="4" Instrument="rel hats"
				Note Time="24" Value="G3" Duration="4" Instrument="clap"
				Note Time="28" Value="A3" Duration="4" Instrument="rel hats"
				Note Time="32" Value="A2" Duration="4" Instrument="hat"
				Note Time="36" Value="A3" Duration="4" Instrument="rel hats"
				Note Time="40" Value="G3" Duration="4" Instrument="clap"
				Note Time="44" Value="A3" Duration="4" Instrument="rel hats"
				Note Time="48" Value="A2" Duration="4" Instrument="hat"
				Note Time="52" Value="A3" Duration="4" Instrument="rel hats"
				Note Time="56" Value="G3" Duration="4" Instrument="clap"
				Note Time="60" Value="A3" Duration="2" Instrument="rel hats"
				Note Time="62" Value="G3" Duration="2" Instrument="clap"
			Pattern Name="7" Color="ffafaf"
				Note Time="4" Value="A3" Duration="4" Instrument="rel hats"
				Note Time="8" Value="G3" Duration="4" Instrument="clap"
				Note Time="12" Value="A3" Duration="4" Instrument="rel hats"
				Note Time="16" Value="A2" Duration="4" Instrument="hat"
				Note Time="20" Value="A3" Duration="4" Instrument="rel hats"
				Note Time="24" Value="G3" Duration="4" Instrument="clap"
				Note Time="28" Value="A3" Duration="4" Instrument="rel hats"
				Note Time="32" Value="G#3" Duration="8" Instrument="cymbal"
				Note Time="40" Value="G#3" Duration="8" Instrument="cymbal"
				Note Time="48" Value="G#3" Duration="8" Instrument="cymbal"
				Note Time="56" Value="G#3" Duration="8" Instrument="cymbal"
			Pattern Name="4" Color="6ab96e"
				Note Time="0" Value="G#3" Duration="4" Instrument="cymbal"
				Note Time="8" Value="G#2" Duration="4" Instrument="hat"
				Note Time="12" Value="G#3" Duration="4" Instrument="rel hats"
				Note Time="16" Value="F#3" Duration="4" Instrument="clap"
				Note Time="20" Value="G#2" Duration="4" Instrument="hat"
				Note Time="28" Value="G#3" Duration="4" Instrument="rel hats"
				Note Time="32" Value="G#3" Duration="4" Instrument="rel hats"
				Note Time="40" Value="G#2" Duration="4" Instrument="hat"
				Note Time="44" Value="G#3" Duration="4" Instrument="rel hats"
				Note Time="48" Value="F#3" Duration="4" Instrument="clap"
				Note Time="52" Value="G#2" Duration="4" Instrument="hat"
				Note Time="60" Value="G#3" Duration="4" Instrument="rel hats"
			Pattern Name="8" Color="3fd7ff"
				Note Time="0" Value="G#3" Duration="4" Instrument="rel hats"
				Note Time="8" Value="G#2" Duration="4" Instrument="hat"
				Note Time="12" Value="G#3" Duration="4" Instrument="rel hats"
				Note Time="16" Value="F#3" Duration="4" Instrument="clap"
				Note Time="20" Value="G#2" Duration="4" Instrument="hat"
				Note Time="28" Value="G#3" Duration="4" Instrument="rel hats"
				Note Time="32" Value="G#3" Duration="4" Instrument="rel hats"
				Note Time="40" Value="G#2" Duration="4" Instrument="hat"
				Note Time="44" Value="G#3" Duration="4" Instrument="rel hats"
				Note Time="48" Value="F#3" Duration="4" Instrument="clap"
				Note Time="52" Value="G#2" Duration="4" Instrument="hat"
				Note Time="56" Value="F#3" Duration="2" Instrument="clap"
				Note Time="58" Value="F#3" Duration="2" Instrument="clap"
				Note Time="60" Value="F#3" Duration="2" Instrument="clap"
				Note Time="62" Value="F#3" Duration="2" Instrument="clap"
			Pattern Name="14" Color="ba93fe"
				Note Time="0" Value="G#3" Duration="4" Instrument="rel hats"
				Note Time="8" Value="G#2" Duration="4" Instrument="hat"
				Note Time="12" Value="G#3" Duration="4" Instrument="rel hats"
				Note Time="16" Value="F#3" Duration="4" Instrument="clap"
				Note Time="20" Value="G#2" Duration="4" Instrument="hat"
				Note Time="28" Value="G#3" Duration="4" Instrument="rel hats"
				Note Time="32" Value="F#3" Duration="4" Instrument="clap"
				Note Time="40" Value="F#3" Duration="4" Instrument="clap"
				Note Time="48" Value="F#3" Duration="4" Instrument="clap"
				Note Time="56" Value="F#3" Duration="4" Instrument="clap"
			Pattern Name="16" Color="fffc69"
				Note Time="0" Value="B2" Duration="8" Instrument="hat"
				Note Time="8" Value="B2" Duration="8" Instrument="clap"
				Note Time="16" Value="B2" Duration="8" Instrument="hat"
				Note Time="24" Value="B2" Duration="8" Instrument="clap"
				Note Time="32" Value="B2" Duration="8" Instrument="hat"
				Note Time="40" Value="B2" Duration="8" Instrument="clap"
				Note Time="48" Value="B2" Duration="8" Instrument="hat"
				Note Time="56" Value="B2" Duration="8" Instrument="clap"
			Pattern Name="17" Color="88eb8c"
				Note Time="0" Value="B2" Duration="8" Instrument="hat"
				Note Time="8" Value="B2" Duration="8" Instrument="clap"
				Note Time="16" Value="B2" Duration="8" Instrument="hat"
				Note Time="24" Value="B2" Duration="8" Instrument="clap"
				Note Time="32" Value="B2" Duration="8" Instrument="hat"
				Note Time="40" Value="B2" Duration="8" Instrument="clap"
				Note Time="48" Value="B2" Duration="4" Instrument="hat"
				Note Time="52" Value="B2" Duration="4" Instrument="hat"
				Note Time="56" Value="B2" Duration="4" Instrument="clap"
				Note Time="60" Value="B2" Duration="4" Instrument="clap"
			Pattern Name="19" Color="ffff93"
				Note Time="0" Value="F#3" Duration="27" Instrument="cymbal"
				Note Time="8" Value="B2" Duration="8" Instrument="clap"
				Note Time="16" Value="B2" Duration="8" Instrument="hat"
				Note Time="24" Value="B2" Duration="8" Instrument="clap"
				Note Time="32" Value="B2" Duration="8" Instrument="hat"
				Note Time="40" Value="B2" Duration="8" Instrument="clap"
				Note Time="48" Value="B2" Duration="8" Instrument="hat"
				Note Time="56" Value="B2" Duration="8" Instrument="clap"
			Pattern Name="9" Color="3ce8fd"
				Note Time="32" Value="F#3" Duration="8" Instrument="cymbal"
				Note Time="40" Value="F#3" Duration="8" Instrument="cymbal"
				Note Time="48" Value="F#3" Duration="8" Instrument="cymbal"
				Note Time="56" Value="F#3" Duration="8" Instrument="cymbal"
			Pattern Name="15" Color="a0f1ff"
				Note Time="48" Value="G#3" Duration="2" Instrument="cymbal"
				Note Time="50" Value="G#3" Duration="2" Instrument="cymbal"
				Note Time="52" Value="G#3" Duration="2" Instrument="cymbal"
				Note Time="54" Value="G#3" Duration="2" Instrument="cymbal"
				Note Time="56" Value="G#3" Duration="2" Instrument="cymbal"
				Note Time="58" Value="G#3" Duration="2" Instrument="cymbal"
				Note Time="60" Value="G#3" Duration="2" Instrument="cymbal"
				Note Time="62" Value="G#3" Duration="2" Instrument="cymbal"
			Pattern Name="3" Color="a376f3"
				Note Time="0" Value="G#3" Duration="12" Instrument="cymbal"
				Note Time="12" Value="G3" Duration="4" Instrument="rel hats"
				Note Time="16" Value="G#2" Duration="4" Instrument="hat"
				Note Time="20" Value="G3" Duration="4" Instrument="rel hats"
				Note Time="24" Value="G#2" Duration="4" Instrument="hat"
				Note Time="28" Value="G3" Duration="4" Instrument="rel hats"
				Note Time="32" Value="G#2" Duration="4" Instrument="hat"
				Note Time="36" Value="G3" Duration="4" Instrument="rel hats"
				Note Time="40" Value="G#2" Duration="4" Instrument="hat"
				Note Time="44" Value="G3" Duration="4" Instrument="rel hats"
				Note Time="48" Value="G#2" Duration="4" Instrument="hat"
				Note Time="52" Value="G3" Duration="4" Instrument="rel hats"
				Note Time="56" Value="G#2" Duration="4" Instrument="hat"
				Note Time="60" Value="G3" Duration="4" Instrument="rel hats"
			Pattern Name="18" Color="ffff71"
				Note Time="0" Value="G#2" Duration="4" Instrument="hat"
				Note Time="4" Value="G3" Duration="4" Instrument="rel hats"
				Note Time="8" Value="G#2" Duration="4" Instrument="hat"
				Note Time="12" Value="G3" Duration="4" Instrument="rel hats"
				Note Time="16" Value="G#2" Duration="4" Instrument="hat"
				Note Time="20" Value="G3" Duration="4" Instrument="rel hats"
				Note Time="24" Value="G#2" Duration="4" Instrument="hat"
				Note Time="28" Value="G3" Duration="4" Instrument="rel hats"
				Note Time="32" Value="G#2" Duration="4" Instrument="hat"
				Note Time="36" Value="G3" Duration="4" Instrument="rel hats"
				Note Time="40" Value="G#2" Duration="4" Instrument="hat"
				Note Time="44" Value="G3" Duration="4" Instrument="rel hats"
				Note Time="48" Value="G#2" Duration="4" Instrument="hat"
				Note Time="52" Value="G3" Duration="4" Instrument="rel hats"
				Note Time="56" Value="G#2" Duration="4" Instrument="hat"
				Note Time="60" Value="G3" Duration="4" Instrument="rel hats"
			PatternInstance Time="0" Pattern="00"
			PatternInstance Time="1" Pattern="01"
			PatternInstance Time="2" Pattern="02"
			PatternInstance Time="3" Pattern="03"
			PatternInstance Time="4" Pattern="04"
			PatternInstance Time="5" Pattern="03"
			PatternInstance Time="6" Pattern="05"
			PatternInstance Time="7" Pattern="03"
			PatternInstance Time="8" Pattern="06"
			PatternInstance Time="9" Pattern="07"
			PatternInstance Time="10" Pattern="08"
			PatternInstance Time="11" Pattern="09"
			PatternInstance Time="12" Pattern="0A"
			PatternInstance Time="13" Pattern="0B"
			PatternInstance Time="14" Pattern="0C"
			PatternInstance Time="15" Pattern="0B"
			PatternInstance Time="16" Pattern="0C"
			PatternInstance Time="17" Pattern="0B"
			PatternInstance Time="18" Pattern="0C"
			PatternInstance Time="19" Pattern="0B"
			PatternInstance Time="20" Pattern="0D"
			PatternInstance Time="21" Pattern="0E"
			PatternInstance Time="22" Pattern="0F"
			PatternInstance Time="23" Pattern="07"
			PatternInstance Time="24" Pattern="10"
			PatternInstance Time="25" Pattern="10"
			PatternInstance Time="26" Pattern="10"
			PatternInstance Time="27" Pattern="11"
			PatternInstance Time="28" Pattern="12"
			PatternInstance Time="29" Pattern="11"
			PatternInstance Time="30" Pattern="13"
			PatternInstance Time="31" Pattern="11"
			PatternInstance Time="32" Pattern="11"
			PatternInstance Time="33" Pattern="11"
			PatternInstance Time="34" Pattern="11"
			PatternInstance Time="35" Pattern="07"
			PatternInstance Time="36" Pattern="10"
			PatternInstance Time="37" Pattern="07"
			PatternInstance Time="38" Pattern="10"
			PatternInstance Time="39" Pattern="01"
			PatternInstance Time="40" Pattern="02"
			PatternInstance Time="41" Pattern="03"
			PatternInstance Time="42" Pattern="04"
			PatternInstance Time="43" Pattern="5"
			PatternInstance Time="44" Pattern="6"
			PatternInstance Time="45" Pattern="5"
			PatternInstance Time="46" Pattern="7"
			PatternInstance Time="47" Pattern="07"
			PatternInstance Time="51" Pattern="4"
			PatternInstance Time="52" Pattern="8"
			PatternInstance Time="53" Pattern="4"
			PatternInstance Time="54" Pattern="14"
			PatternInstance Time="55" Pattern="16"
			PatternInstance Time="56" Pattern="17"
			PatternInstance Time="57" Pattern="16"
			PatternInstance Time="58" Pattern="17"
			PatternInstance Time="59" Pattern="19"
			PatternInstance Time="60" Pattern="17"
			PatternInstance Time="61" Pattern="16"
			PatternInstance Time="62" Pattern="16"
			PatternInstance Time="63" Pattern="07"
			PatternInstance Time="65" Pattern="07"
			PatternInstance Time="66" Pattern="9"
			PatternInstance Time="67" Pattern="07"
			PatternInstance Time="69" Pattern="07"
			PatternInstance Time="70" Pattern="9"
			PatternInstance Time="71" Pattern="07"
			PatternInstance Time="74" Pattern="15"
			PatternInstance Time="75" Pattern="3"
			PatternInstance Time="76" Pattern="18"
			PatternInstance Time="77" Pattern="3"
			PatternInstance Time="78" Pattern="18"
			PatternInstance Time="79" Pattern="03"
			PatternInstance Time="80" Pattern="03"
			PatternInstance Time="81" Pattern="03"
			PatternInstance Time="82" Pattern="04"
			PatternInstance Time="83" Pattern="07"
		Channel Type="DPCM"
			Pattern Name="01" Color="a657d6"
				Note Time="8" Value="F5" Duration="16" Instrument="DMC: drums + bass"
				Note Time="24" Value="F5" Duration="16" Instrument="DMC: drums + bass"
				Note Time="40" Value="F5" Duration="16" Instrument="DMC: drums + bass"
				Note Time="56" Value="F5" Duration="6" Instrument="DMC: drums + bass"
				Note Time="62" Value="F5" Duration="10" Instrument="DMC: drums + bass"
			Pattern Name="02" Color="ff7f51"
				Note Time="8" Value="F5" Duration="16" Instrument="DMC: drums + bass"
				Note Time="24" Value="F5" Duration="16" Instrument="DMC: drums + bass"
				Note Time="40" Value="F5" Duration="16" Instrument="DMC: drums + bass"
				Note Time="56" Value="E5" Duration="2" Instrument="DMC: drums + bass"
				Note Time="58" Value="E5" Duration="2" Instrument="DMC: drums + bass"
				Note Time="60" Value="E5" Duration="2" Instrument="DMC: drums + bass"
				Note Time="62" Value="E5" Duration="2" Instrument="DMC: drums + bass"
			Pattern Name="03" Color="ffffb1"
				Note Time="0" Value="E5" Duration="4" Instrument="DMC: drums + bass"
				Note Time="4" Value="E5" Duration="4" Instrument="DMC: drums + bass"
				Note Time="8" Value="F5" Duration="12" Instrument="DMC: drums + bass"
				Note Time="20" Value="E5" Duration="4" Instrument="DMC: drums + bass"
				Note Time="24" Value="F5" Duration="8" Instrument="DMC: drums + bass"
				Note Time="32" Value="E5" Duration="4" Instrument="DMC: drums + bass"
				Note Time="36" Value="E5" Duration="4" Instrument="DMC: drums + bass"
				Note Time="40" Value="F5" Duration="12" Instrument="DMC: drums + bass"
				Note Time="52" Value="E5" Duration="4" Instrument="DMC: drums + bass"
				Note Time="56" Value="F5" Duration="4" Instrument="DMC: drums + bass"
				Note Time="60" Value="E5" Duration="2" Instrument="DMC: drums + bass"
				Note Time="62" Value="F5" Duration="2" Instrument="DMC: drums + bass"
			Pattern Name="04" Color="62ffff"
				Note Time="0" Value="E5" Duration="4" Instrument="DMC: drums + bass"
				Note Time="4" Value="E5" Duration="4" Instrument="DMC: drums + bass"
				Note Time="8" Value="F5" Duration="12" Instrument="DMC: drums + bass"
				Note Time="20" Value="E5" Duration="4" Instrument="DMC: drums + bass"
				Note Time="24" Value="F5" Duration="8" Instrument="DMC: drums + bass"
				Note Time="32" Value="E5" Duration="4" Instrument="DMC: drums + bass"
				Note Time="36" Value="E5" Duration="4" Instrument="DMC: drums + bass"
				Note Time="40" Value="F5" Duration="12" Instrument="DMC: drums + bass"
				Note Time="52" Value="E5" Duration="4" Instrument="DMC: drums + bass"
				Note Time="56" Value="F5" Duration="2" Instrument="DMC: drums + bass"
				Note Time="58" Value="F5" Duration="2" Instrument="DMC: drums + bass"
				Note Time="60" Value="F5" Duration="2" Instrument="DMC: drums + bass"
				Note Time="62" Value="F5" Duration="122" Instrument="DMC: drums + bass"
			Pattern Name="05" Color="a376f3"
				Note Time="56" Value="E5" Duration="2" Instrument="DMC: drums + bass"
				Note Time="58" Value="E5" Duration="2" Instrument="DMC: drums + bass"
				Note Time="60" Value="F5" Duration="2" Instrument="DMC: drums + bass"
				Note Time="62" Value="E5" Duration="2" Instrument="DMC: drums + bass"
			Pattern Name="06" Color="b59184"
				Note Time="0" Value="E5" Duration="4" Instrument="DMC: drums + bass"
				Note Time="4" Value="E5" Duration="4" Instrument="DMC: drums + bass"
				Note Time="8" Value="F5" Duration="12" Instrument="DMC: drums + bass"
				Note Time="20" Value="E5" Duration="4" Instrument="DMC: drums + bass"
				Note Time="24" Value="F5" Duration="8" Instrument="DMC: drums + bass"
				Note Time="32" Value="E5" Duration="4" Instrument="DMC: drums + bass"
				Note Time="36" Value="E5" Duration="4" Instrument="DMC: drums + bass"
				Note Time="40" Value="F5" Duration="4" Instrument="DMC: drums + bass"
				Note Time="44" Value="E5" Duration="2" Instrument="DMC: drums + bass"
				Note Time="46" Value="F5" Duration="4" Instrument="DMC: drums + bass"
				Note Time="50" Value="F5" Duration="4" Instrument="DMC: drums + bass"
				Note Time="54" Value="E5" Duration="2" Instrument="DMC: drums + bass"
				Note Time="56" Value="F5" Duration="2" Instrument="DMC: drums + bass"
				Note Time="58" Value="E5" Duration="2" Instrument="DMC: drums + bass"
				Note Time="60" Value="E5" Duration="2" Instrument="DMC: drums + bass"
				Note Time="62" Value="F5" Duration="2" Instrument="DMC: drums + bass"
			Pattern Name="07" Color="ffff71"
				Note Time="0" Value="E5" Duration="4" Instrument="DMC: drums + bass"
				Note Time="4" Value="E5" Duration="4" Instrument="DMC: drums + bass"
				Note Time="8" Value="F5" Duration="12" Instrument="DMC: drums + bass"
				Note Time="20" Value="E5" Duration="4" Instrument="DMC: drums + bass"
				Note Time="24" Value="F5" Duration="8" Instrument="DMC: drums + bass"
				Note Time="32" Value="E5" Duration="4" Instrument="DMC: drums + bass"
				Note Time="36" Value="E5" Duration="4" Instrument="DMC: drums + bass"
				Note Time="40" Value="F5" Duration="4" Instrument="DMC: drums + bass"
				Note Time="44" Value="E5" Duration="2" Instrument="DMC: drums + bass"
				Note Time="46" Value="F5" Duration="4" Instrument="DMC: drums + bass"
				Note Time="50" Value="F5" Duration="4" Instrument="DMC: drums + bass"
				Note Time="54" Value="E5" Duration="2" Instrument="DMC: drums + bass"
				Note Time="56" Value="F5" Duration="2" Instrument="DMC: drums + bass"
				Note Time="58" Value="E5" Duration="2" Instrument="DMC: drums + bass"
				Note Time="60" Value="E5" Duration="2" Instrument="DMC: drums + bass"
				Note Time="62" Value="F5" Duration="2" Instrument="DMC: drums + bass"
			Pattern Name="08" Color="3cb5a7"
				Note Time="0" Value="E5" Duration="12" Instrument="DMC: drums + bass"
				Note Time="12" Value="E5" Duration="4" Instrument="DMC: drums + bass"
				Note Time="16" Value="F5" Duration="4" Instrument="DMC: drums + bass"
				Note Time="20" Value="E5" Duration="8" Instrument="DMC: drums + bass"
				Note Time="28" Value="E5" Duration="4" Instrument="DMC: drums + bass"
				Note Time="32" Value="E5" Duration="12" Instrument="DMC: drums + bass"
				Note Time="44" Value="E5" Duration="4" Instrument="DMC: drums + bass"
				Note Time="48" Value="F5" Duration="4" Instrument="DMC: drums + bass"
				Note Time="52" Value="E5" Duration="8" Instrument="DMC: drums + bass"
				Note Time="60" Value="F5" Duration="4" Instrument="DMC: drums + bass"
			Pattern Name="09" Color="6471cf"
				Note Time="0" Value="E5" Duration="12" Instrument="DMC: drums + bass"
				Note Time="12" Value="E5" Duration="8" Instrument="DMC: drums + bass"
				Note Time="20" Value="E5" Duration="8" Instrument="DMC: drums + bass"
				Note Time="28" Value="E5" Duration="4" Instrument="DMC: drums + bass"
			Pattern Name="10" Color="ffafaf"
				Note Time="0" Value="E5" Duration="4" Instrument="DMC: drums + bass"
				Note Time="4" Value="F3" Duration="4" Instrument="DMC: drums + bass"
				Note Time="8" Value="E5" Duration="4" Instrument="DMC: drums + bass"
				Note Time="12" Value="F3" Duration="4" Instrument="DMC: drums + bass"
				Note Time="16" Value="E5" Duration="4" Instrument="DMC: drums + bass"
				Note Time="20" Value="F3" Duration="4" Instrument="DMC: drums + bass"
				Note Time="24" Value="E5" Duration="4" Instrument="DMC: drums + bass"
				Note Time="28" Value="F3" Duration="4" Instrument="DMC: drums + bass"
				Note Time="32" Value="E5" Duration="4" Instrument="DMC: drums + bass"
				Note Time="36" Value="D#3" Duration="4" Instrument="DMC: drums + bass"
				Note Time="40" Value="E5" Duration="4" Instrument="DMC: drums + bass"
				Note Time="44" Value="D#3" Duration="4" Instrument="DMC: drums + bass"
				Note Time="48" Value="E5" Duration="4" Instrument="DMC: drums + bass"
				Note Time="52" Value="D#3" Duration="4" Instrument="DMC: drums + bass"
				Note Time="56" Value="E5" Duration="4" Instrument="DMC: drums + bass"
				Note Time="60" Value="D#3" Duration="4" Instrument="DMC: drums + bass"
			Pattern Name="11" Color="ffff8b"
				Note Time="0" Value="E5" Duration="4" Instrument="DMC: drums + bass"
				Note Time="4" Value="C#3" Duration="4" Instrument="DMC: drums + bass"
				Note Time="8" Value="E5" Duration="4" Instrument="DMC: drums + bass"
				Note Time="12" Value="C#3" Duration="4" Instrument="DMC: drums + bass"
				Note Time="16" Value="E5" Duration="4" Instrument="DMC: drums + bass"
				Note Time="20" Value="C#3" Duration="4" Instrument="DMC: drums + bass"
				Note Time="24" Value="E5" Duration="4" Instrument="DMC: drums + bass"
				Note Time="28" Value="C#3" Duration="4" Instrument="DMC: drums + bass"
				Note Time="32" Value="E5" Duration="4" Instrument="DMC: drums + bass"
				Note Time="36" Value="C4" Duration="4" Instrument="DMC: drums + bass"
				Note Time="40" Value="E5" Duration="4" Instrument="DMC: drums + bass"
				Note Time="44" Value="C4" Duration="4" Instrument="DMC: drums + bass"
				Note Time="48" Value="E5" Duration="4" Instrument="DMC: drums + bass"
				Note Time="52" Value="C4" Duration="4" Instrument="DMC: drums + bass"
				Note Time="56" Value="E5" Duration="4" Instrument="DMC: drums + bass"
				Note Time="60" Value="C4" Duration="4" Instrument="DMC: drums + bass"
			Pattern Name="12" Color="a2f7a6"
				Note Time="0" Value="E5" Duration="4" Instrument="DMC: drums + bass"
				Note Time="4" Value="F3" Duration="4" Instrument="DMC: drums + bass"
				Note Time="8" Value="F5" Duration="4" Instrument="DMC: drums + bass"
				Note Time="12" Value="F3" Duration="4" Instrument="DMC: drums + bass"
				Note Time="16" Value="E5" Duration="4" Instrument="DMC: drums + bass"
				Note Time="20" Value="F3" Duration="4" Instrument="DMC: drums + bass"
				Note Time="24" Value="F5" Duration="4" Instrument="DMC: drums + bass"
				Note Time="28" Value="F3" Duration="4" Instrument="DMC: drums + bass"
				Note Time="32" Value="E5" Duration="4" Instrument="DMC: drums + bass"
				Note Time="36" Value="D#3" Duration="4" Instrument="DMC: drums + bass"
				Note Time="40" Value="F5" Duration="4" Instrument="DMC: drums + bass"
				Note Time="44" Value="D#3" Duration="4" Instrument="DMC: drums + bass"
				Note Time="48" Value="E5" Duration="4" Instrument="DMC: drums + bass"
				Note Time="52" Value="D#3" Duration="4" Instrument="DMC: drums + bass"
				Note Time="56" Value="F5" Duration="4" Instrument="DMC: drums + bass"
				Note Time="60" Value="D#3" Duration="4" Instrument="DMC: drums + bass"
			Pattern Name="13" Color="5dd2ff"
				Note Time="0" Value="E5" Duration="4" Instrument="DMC: drums + bass"
				Note Time="4" Value="C#3" Duration="4" Instrument="DMC: drums + bass"
				Note Time="8" Value="F5" Duration="4" Instrument="DMC: drums + bass"
				Note Time="12" Value="C#3" Duration="4" Instrument="DMC: drums + bass"
				Note Time="16" Value="E5" Duration="4" Instrument="DMC: drums + bass"
				Note Time="20" Value="C#3" Duration="4" Instrument="DMC: drums + bass"
				Note Time="24" Value="F5" Duration="4" Instrument="DMC: drums + bass"
				Note Time="28" Value="C#3" Duration="4" Instrument="DMC: drums + bass"
				Note Time="32" Value="E5" Duration="4" Instrument="DMC: drums + bass"
				Note Time="36" Value="C4" Duration="4" Instrument="DMC: drums + bass"
				Note Time="40" Value="F5" Duration="4" Instrument="DMC: drums + bass"
				Note Time="44" Value="C4" Duration="4" Instrument="DMC: drums + bass"
				Note Time="48" Value="E5" Duration="4" Instrument="DMC: drums + bass"
				Note Time="52" Value="C4" Duration="4" Instrument="DMC: drums + bass"
				Note Time="56" Value="F5" Duration="4" Instrument="DMC: drums + bass"
				Note Time="60" Value="C4" Duration="4" Instrument="DMC: drums + bass"
			Pattern Name="14" Color="ff579c"
				Note Time="0" Value="E5" Duration="4" Instrument="DMC: drums + bass"
				Note Time="4" Value="C#3" Duration="4" Instrument="DMC: drums + bass"
				Note Time="8" Value="F5" Duration="4" Instrument="DMC: drums + bass"
				Note Time="12" Value="C#3" Duration="4" Instrument="DMC: drums + bass"
				Note Time="16" Value="E5" Duration="4" Instrument="DMC: drums + bass"
				Note Time="20" Value="C#3" Duration="4" Instrument="DMC: drums + bass"
				Note Time="24" Value="F5" Duration="4" Instrument="DMC: drums + bass"
				Note Time="28" Value="C#3" Duration="4" Instrument="DMC: drums + bass"
				Note Time="32" Value="E5" Duration="4" Instrument="DMC: drums + bass"
				Note Time="36" Value="C4" Duration="4" Instrument="DMC: drums + bass"
				Note Time="40" Value="F5" Duration="4" Instrument="DMC: drums + bass"
				Note Time="44" Value="C4" Duration="4" Instrument="DMC: drums + bass"
				Note Time="52" Value="C4" Duration="4" Instrument="DMC: drums + bass"
				Note Time="60" Value="C4" Duration="4" Instrument="DMC: drums + bass"
			Pattern Name="15" Color="ffc83c"
				Note Time="0" Value="E5" Duration="276" Instrument="DMC: drums + bass"
			Pattern Name="16" Color="8bffff"
				Note Time="0" Value="E5" Duration="4" Instrument="DMC: drums + bass"
				Note Time="4" Value="E5" Duration="4" Instrument="DMC: drums + bass"
				Note Time="12" Value="E5" Duration="4" Instrument="DMC: drums + bass"
				Note Time="16" Value="F5" Duration="8" Instrument="DMC: drums + bass"
				Note Time="20" Value="E5" Duration="4" Instrument="DMC: drums + bass"
				Note Time="28" Value="E5" Duration="4" Instrument="DMC: drums + bass"
				Note Time="32" Value="E5" Duration="4" Instrument="DMC: drums + bass"
				Note Time="36" Value="E5" Duration="4" Instrument="DMC: drums + bass"
				Note Time="44" Value="E5" Duration="4" Instrument="DMC: drums + bass"
				Note Time="48" Value="F5" Duration="8" Instrument="DMC: drums + bass"
				Note Time="52" Value="E5" Duration="4" Instrument="DMC: drums + bass"
				Note Time="60" Value="E5" Duration="4" Instrument="DMC: drums + bass"
			Pattern Name="18" Color="8d69e4"
				Note Time="0" Value="E5" Duration="4" Instrument="DMC: drums + bass"
				Note Time="4" Value="E5" Duration="4" Instrument="DMC: drums + bass"
				Note Time="12" Value="E5" Duration="4" Instrument="DMC: drums + bass"
				Note Time="16" Value="F5" Duration="8" Instrument="DMC: drums + bass"
				Note Time="20" Value="E5" Duration="4" Instrument="DMC: drums + bass"
				Note Time="28" Value="E5" Duration="4" Instrument="DMC: drums + bass"
				Note Time="32" Value="E5" Duration="4" Instrument="DMC: drums + bass"
				Note Time="36" Value="E5" Duration="4" Instrument="DMC: drums + bass"
				Note Time="44" Value="E5" Duration="4" Instrument="DMC: drums + bass"
				Note Time="48" Value="F5" Duration="8" Instrument="DMC: drums + bass"
				Note Time="52" Value="E5" Duration="4" Instrument="DMC: drums + bass"
				Note Time="56" Value="F5" Duration="2" Instrument="DMC: drums + bass"
				Note Time="58" Value="F5" Duration="2" Instrument="DMC: drums + bass"
				Note Time="60" Value="F5" Duration="2" Instrument="DMC: drums + bass"
				Note Time="62" Value="F5" Duration="2" Instrument="DMC: drums + bass"
			Pattern Name="19" Color="98a7fc"
				Note Time="0" Value="F5" Duration="8" Instrument="DMC: drums + bass"
				Note Time="8" Value="F5" Duration="8" Instrument="DMC: drums + bass"
				Note Time="16" Value="F5" Duration="8" Instrument="DMC: drums + bass"
				Note Time="24" Value="F5" Duration="8" Instrument="DMC: drums + bass"
				Note Time="32" Value="F5" Duration="8" Instrument="DMC: drums + bass"
				Note Time="40" Value="F5" Duration="8" Instrument="DMC: drums + bass"
				Note Time="48" Value="F5" Duration="8" Instrument="DMC: drums + bass"
				Note Time="56" Value="F5" Duration="8" Instrument="DMC: drums + bass"
			Pattern Name="20" Color="eaffbd"
				Note Time="0" Value="F5" Duration="8" Instrument="DMC: drums + bass"
				Note Time="8" Value="F5" Duration="8" Instrument="DMC: drums + bass"
				Note Time="16" Value="F5" Duration="8" Instrument="DMC: drums + bass"
				Note Time="24" Value="F5" Duration="8" Instrument="DMC: drums + bass"
				Note Time="32" Value="F5" Duration="8" Instrument="DMC: drums + bass"
				Note Time="40" Value="F5" Duration="8" Instrument="DMC: drums + bass"
				Note Time="48" Value="F5" Duration="4" Instrument="DMC: drums + bass"
				Note Time="52" Value="F5" Duration="4" Instrument="DMC: drums + bass"
				Note Time="56" Value="F5" Duration="4" Instrument="DMC: drums + bass"
				Note Time="60" Value="F5" Duration="4" Instrument="DMC: drums + bass"
			Pattern Name="21" Color="fcff6f"
				Note Time="0" Value="E5" Duration="8" Instrument="DMC: drums + bass"
				Note Time="8" Value="E5" Duration="8" Instrument="DMC: drums + bass"
				Note Time="16" Value="E5" Duration="8" Instrument="DMC: drums + bass"
				Note Time="24" Value="E5" Duration="8" Instrument="DMC: drums + bass"
				Note Time="32" Value="E5" Duration="8" Instrument="DMC: drums + bass"
				Note Time="40" Value="E5" Duration="8" Instrument="DMC: drums + bass"
				Note Time="48" Value="E5" Duration="8" Instrument="DMC: drums + bass"
				Note Time="56" Value="E5" Duration="8" Instrument="DMC: drums + bass"
			Pattern Name="22" Color="ffffb2"
				Note Time="0" Value="E5" Duration="8" Instrument="DMC: drums + bass"
				Note Time="8" Value="E5" Duration="8" Instrument="DMC: drums + bass"
				Note Time="16" Value="E5" Duration="8" Instrument="DMC: drums + bass"
				Note Time="24" Value="E5" Duration="8" Instrument="DMC: drums + bass"
				Note Time="32" Value="E5" Duration="8" Instrument="DMC: drums + bass"
				Note Time="40" Value="E5" Duration="8" Instrument="DMC: drums + bass"
				Note Time="48" Value="E5" Duration="8" Instrument="DMC: drums + bass"
				Note Time="56" Value="E5" Duration="4" Instrument="DMC: drums + bass"
				Note Time="60" Value="E5" Duration="4" Instrument="DMC: drums + bass"
			Pattern Name="23" Color="5dd2ff"
				Note Time="0" Value="E5" Duration="8" Instrument="DMC: drums + bass"
				Note Time="8" Value="F5" Duration="4" Instrument="DMC: drums + bass"
				Note Time="12" Value="E5" Duration="8" Instrument="DMC: drums + bass"
				Note Time="20" Value="E5" Duration="4" Instrument="DMC: drums + bass"
				Note Time="24" Value="F5" Duration="4" Instrument="DMC: drums + bass"
				Note Time="28" Value="E5" Duration="4" Instrument="DMC: drums + bass"
				Note Time="32" Value="E5" Duration="8" Instrument="DMC: drums + bass"
				Note Time="40" Value="F5" Duration="4" Instrument="DMC: drums + bass"
				Note Time="44" Value="E5" Duration="2" Instrument="DMC: drums + bass"
				Note Time="46" Value="F5" Duration="4" Instrument="DMC: drums + bass"
				Note Time="50" Value="E5" Duration="2" Instrument="DMC: drums + bass"
				Note Time="52" Value="F5" Duration="4" Instrument="DMC: drums + bass"
				Note Time="56" Value="E5" Duration="2" Instrument="DMC: drums + bass"
				Note Time="58" Value="F5" Duration="2" Instrument="DMC: drums + bass"
				Note Time="60" Value="E5" Duration="2" Instrument="DMC: drums + bass"
				Note Time="62" Value="F5" Duration="2" Instrument="DMC: drums + bass"
			Pattern Name="24" Color="3eb3f9"
				Note Time="0" Value="E5" Duration="8" Instrument="DMC: drums + bass"
				Note Time="8" Value="F5" Duration="4" Instrument="DMC: drums + bass"
				Note Time="12" Value="E5" Duration="8" Instrument="DMC: drums + bass"
				Note Time="20" Value="E5" Duration="4" Instrument="DMC: drums + bass"
				Note Time="24" Value="F5" Duration="4" Instrument="DMC: drums + bass"
				Note Time="28" Value="E5" Duration="4" Instrument="DMC: drums + bass"
				Note Time="32" Value="E5" Duration="8" Instrument="DMC: drums + bass"
				Note Time="40" Value="F5" Duration="4" Instrument="DMC: drums + bass"
				Note Time="44" Value="E5" Duration="8" Instrument="DMC: drums + bass"
				Note Time="52" Value="E5" Duration="4" Instrument="DMC: drums + bass"
				Note Time="56" Value="E5" Duration="4" Instrument="DMC: drums + bass"
				Note Time="60" Value="E5" Duration="4" Instrument="DMC: drums + bass"
			PatternInstance Time="3" Pattern="01"
			PatternInstance Time="4" Pattern="02"
			PatternInstance Time="5" Pattern="03"
			PatternInstance Time="6" Pattern="03"
			PatternInstance Time="7" Pattern="03"
			PatternInstance Time="8" Pattern="04"
			PatternInstance Time="10" Pattern="05"
			PatternInstance Time="11" Pattern="06"
			PatternInstance Time="12" Pattern="07"
			PatternInstance Time="13" Pattern="03"
			PatternInstance Time="14" Pattern="03"
			PatternInstance Time="15" Pattern="03"
			PatternInstance Time="16" Pattern="03"
			PatternInstance Time="17" Pattern="03"
			PatternInstance Time="18" Pattern="03"
			PatternInstance Time="19" Pattern="03"
			PatternInstance Time="20" Pattern="04"
			PatternInstance Time="21" Pattern="08"
			PatternInstance Time="22" Pattern="09"
			PatternInstance Time="23" Pattern="10"
			PatternInstance Time="24" Pattern="11"
			PatternInstance Time="25" Pattern="10"
			PatternInstance Time="26" Pattern="11"
			PatternInstance Time="27" Pattern="12"
			PatternInstance Time="28" Pattern="13"
			PatternInstance Time="29" Pattern="12"
			PatternInstance Time="30" Pattern="14"
			PatternInstance Time="31" Pattern="12"
			PatternInstance Time="32" Pattern="13"
			PatternInstance Time="33" Pattern="12"
			PatternInstance Time="34" Pattern="13"
			PatternInstance Time="35" Pattern="15"
			PatternInstance Time="41" Pattern="01"
			PatternInstance Time="42" Pattern="02"
			PatternInstance Time="43" Pattern="03"
			PatternInstance Time="44" Pattern="03"
			PatternInstance Time="45" Pattern="03"
			PatternInstance Time="46" Pattern="04"
			PatternInstance Time="51" Pattern="16"
			PatternInstance Time="52" Pattern="18"
			PatternInstance Time="53" Pattern="16"
			PatternInstance Time="54" Pattern="18"
			PatternInstance Time="55" Pattern="19"
			PatternInstance Time="56" Pattern="20"
			PatternInstance Time="57" Pattern="19"
			PatternInstance Time="58" Pattern="20"
			PatternInstance Time="59" Pattern="19"
			PatternInstance Time="60" Pattern="20"
			PatternInstance Time="61" Pattern="19"
			PatternInstance Time="62" Pattern="19"
			PatternInstance Time="67" Pattern="21"
			PatternInstance Time="68" Pattern="22"
			PatternInstance Time="69" Pattern="21"
			PatternInstance Time="70" Pattern="21"
			PatternInstance Time="77" Pattern="23"
			PatternInstance Time="78" Pattern="24"
			PatternInstance Time="79" Pattern="23"
			PatternInstance Time="80" Pattern="24"
			PatternInstance Time="81" Pattern="23"
			PatternInstance Time="82" Pattern="24"
	Song Name="Problematic" Color="ff579c" Folder="Custom music used in the game" Length="33" LoopPoint="-1" PatternLength="16" BeatLength="4" FamiTrackerTempo="128" FamiTrackerSpeed="6"
		PatternCustomSettings Time="32" Length="4"
		Channel Type="Square1"
			Pattern Name="Pattern 1" Color="a4db74"
				Note Time="0" Value="G3" Duration="16" Instrument="blank" Arpeggio="Arp CE" Volume="4"
			Pattern Name="Pattern 2" Color="ffff93"
				Note Time="0" Value="B3" Duration="16" Instrument="blank" Arpeggio="Arp CF"
			Pattern Name="Pattern 3" Color="9a71ed"
				Note Time="0" Value="G#3" Duration="16" Instrument="blank" Arpeggio="Arp D0"
			Pattern Name="Pattern 4" Color="ffe461"
				Note Time="0" Value="C2" Duration="3" Instrument="blank" Arpeggio="Arp 0C" Volume="6" DutyCycle="0"
				Note Time="4" Value="C2" Duration="3" Instrument="blank" Arpeggio="Arp 0C"
				Note Time="8" Value="G2" Duration="1" Instrument="electroman lead"
				Note Time="9" Value="C3" Duration="1" Instrument="electroman lead" Volume="9"
				Note Time="11" Value="D#3" Duration="1" Instrument="electroman lead"
				Note Time="13" Value="G2" Duration="1" Instrument="electroman lead"
				Note Time="14" Value="C3" Duration="1" Instrument="electroman lead"
				Note Time="15" Value="D#2" Duration="1" Instrument="electroman lead"
			Pattern Name="Pattern 9" Color="ffff64"
				Note Time="0" Value="C2" Duration="1" Instrument="blank" Volume="5"
				Note Time="2" Value="C2" Duration="1" Instrument="blank" Volume="5"
				Note Time="3" Value="C2" Duration="1" Instrument="blank" Volume="5"
				Note Time="5" Value="C2" Duration="1" Instrument="blank" Volume="5"
				Note Time="6" Value="C2" Duration="1" Instrument="blank" Volume="5"
				Note Time="8" Value="D3" Duration="4" Instrument="blank" SlideTarget="G2" Volume="11"
				Note Time="12" Value="G2" Duration="3" Instrument="blank" Arpeggio="Arp CE"
			Pattern Name="Pattern 6" Color="8163dc"
				Note Time="0" Value="C2" Duration="3" Instrument="blank" Arpeggio="Arp 0C" Volume="4"
				Note Time="4" Value="C2" Duration="3" Instrument="blank" Arpeggio="Arp 0C"
				Note Time="8" Value="G2" Duration="1" Instrument="electroman lead"
				Note Time="9" Value="C3" Duration="1" Instrument="electroman lead" Volume="9"
				Note Time="11" Value="D#3" Duration="1" Instrument="electroman lead"
				Note Time="13" Value="G2" Duration="1" Instrument="electroman lead"
				Note Time="14" Value="B2" Duration="1" Instrument="electroman lead"
				Note Time="15" Value="G2" Duration="1" Instrument="electroman lead"
			Pattern Name="Pattern 7" Color="ffffb2"
				Note Time="0" Value="C3" Duration="7" Instrument="blank" Arpeggio="Arp CF" Volume="9"
				Note Time="8" Value="B2" Duration="7" Instrument="blank" Arpeggio="Arp CF"
			Pattern Name="Pattern 8" Color="ff5a9f"
				Note Time="0" Value="C2" Duration="1" Instrument="blank" Volume="5"
				Note Time="2" Value="C2" Duration="1" Instrument="blank" Volume="5"
				Note Time="3" Value="C2" Duration="1" Instrument="blank" Volume="5"
				Note Time="5" Value="C2" Duration="1" Instrument="blank" Volume="5"
				Note Time="6" Value="C2" Duration="1" Instrument="blank" Volume="5"
				Note Time="8" Value="G4" Duration="1" Instrument="blank" Volume="5"
				Note Time="9" Value="G4" Duration="3" Instrument="blank" SlideTarget="C4"
				Note Time="12" Value="G4" Duration="3" Instrument="blank"
				Note Time="13" Value="G4" Duration="3" Instrument="blank" SlideTarget="C4"
			Pattern Name="Pattern 5" Color="fffd43"
				Note Time="0" Value="C2" Duration="1" Instrument="blank" Volume="5"
				Note Time="2" Value="C2" Duration="1" Instrument="blank" Volume="5"
				Note Time="3" Value="C2" Duration="1" Instrument="blank" Volume="5"
				Note Time="5" Value="C2" Duration="1" Instrument="blank" Volume="5"
				Note Time="6" Value="C2" Duration="1" Instrument="blank" Volume="5"
				Note Time="8" Value="D3" Duration="4" Instrument="blank" SlideTarget="G2" Volume="11"
				Note Time="12" Value="G2" Duration="3" Instrument="blank" Arpeggio="Arp CE"
			PatternInstance Time="0" Pattern="Pattern 1"
			PatternInstance Time="1" Pattern="Pattern 2"
			PatternInstance Time="2" Pattern="Pattern 3"
			PatternInstance Time="3" Pattern="Pattern 1"
			PatternInstance Time="4" Pattern="Pattern 1"
			PatternInstance Time="5" Pattern="Pattern 2"
			PatternInstance Time="6" Pattern="Pattern 3"
			PatternInstance Time="7" Pattern="Pattern 1"
			PatternInstance Time="8" Pattern="Pattern 4"
			PatternInstance Time="9" Pattern="Pattern 9"
			PatternInstance Time="10" Pattern="Pattern 6"
			PatternInstance Time="11" Pattern="Pattern 7"
			PatternInstance Time="12" Pattern="Pattern 4"
			PatternInstance Time="13" Pattern="Pattern 8"
			PatternInstance Time="14" Pattern="Pattern 6"
			PatternInstance Time="15" Pattern="Pattern 7"
			PatternInstance Time="16" Pattern="Pattern 4"
			PatternInstance Time="17" Pattern="Pattern 5"
			PatternInstance Time="18" Pattern="Pattern 6"
			PatternInstance Time="19" Pattern="Pattern 7"
			PatternInstance Time="20" Pattern="Pattern 4"
			PatternInstance Time="21" Pattern="Pattern 8"
			PatternInstance Time="22" Pattern="Pattern 6"
			PatternInstance Time="23" Pattern="Pattern 7"
		Channel Type="Square2"
			Pattern Name="Pattern 1" Color="3eb3f9"
				Note Time="0" Value="G3" Duration="2" Instrument="blank instant decay" Arpeggio="Arp 0C" Volume="15"
				Note Time="2" Value="G3" Duration="1" Instrument="echo" Volume="12"
				Note Time="4" Value="G3" Duration="2" Instrument="blank instant decay" Arpeggio="Arp 0C" Volume="15"
				Note Time="6" Value="G3" Duration="1" Instrument="echo" Volume="12"
				Note Time="8" Value="C4" Duration="2" Instrument="blank instant decay" Arpeggio="Arp 0C" Volume="15"
				Note Time="10" Value="C4" Duration="1" Instrument="echo" Volume="12"
				Note Time="12" Value="B3" Duration="2" Instrument="blank instant decay" Arpeggio="Arp 0C" Volume="15"
				Note Time="14" Value="B3" Duration="1" Instrument="echo" Volume="12"
			Pattern Name="Pattern 2" Color="f6a4ff"
				Note Time="0" Value="G3" Duration="2" Instrument="blank instant decay" Arpeggio="Arp 0C" Volume="15"
				Note Time="2" Value="G3" Duration="1" Instrument="echo" Volume="12"
				Note Time="4" Value="G3" Duration="2" Instrument="blank instant decay" Arpeggio="Arp 0C" Volume="15"
				Note Time="6" Value="G3" Duration="1" Instrument="echo" Volume="12"
				Note Time="8" Value="B3" Duration="2" Instrument="blank instant decay" Arpeggio="Arp 0C" Volume="15"
				Note Time="10" Value="B3" Duration="1" Instrument="echo" Volume="12"
				Note Time="12" Value="G#3" Duration="2" Instrument="blank instant decay" Arpeggio="Arp 0C" Volume="15"
				Note Time="14" Value="G#3" Duration="1" Instrument="echo" Volume="12"
			Pattern Name="Pattern 3" Color="5ac4ff"
				Note Time="0" Value="D4" Duration="2" Instrument="blank instant decay" Arpeggio="Arp 0C" Volume="15"
				Note Time="2" Value="D4" Duration="1" Instrument="echo" Volume="12"
				Note Time="4" Value="C4" Duration="2" Instrument="blank instant decay" Arpeggio="Arp 0C" Volume="15"
				Note Time="6" Value="C4" Duration="1" Instrument="echo" Volume="12"
				Note Time="8" Value="B3" Duration="2" Instrument="blank instant decay" Arpeggio="Arp 0C" Volume="15"
				Note Time="10" Value="B3" Duration="1" Instrument="echo" Volume="12"
				Note Time="12" Value="G#3" Duration="2" Instrument="blank instant decay" Arpeggio="Arp 0C" Volume="15"
				Note Time="14" Value="G#3" Duration="1" Instrument="echo" Volume="12"
			Pattern Name="Pattern 4" Color="89f2e8"
				Note Time="0" Value="D#3" Duration="3" Instrument="blank" Arpeggio="Arp D0" Volume="12" FinePitch="0" DutyCycle="0"
				Note Time="4" Value="D#3" Duration="3" Instrument="blank" Arpeggio="Arp D0"
				Note Time="8" Value="G2" Duration="1" Instrument="blank instant decay" DutyCycle="2"
				Note Time="9" Value="C3" Duration="1" Instrument="blank instant decay" Volume="15" FinePitch="1"
				Note Time="11" Value="D#3" Duration="1" Instrument="blank instant decay"
				Note Time="13" Value="G2" Duration="1" Instrument="blank instant decay"
				Note Time="14" Value="C3" Duration="1" Instrument="blank instant decay"
				Note Time="15" Value="D#3" Duration="1" Instrument="blank instant decay"
			Pattern Name="Pattern 5" Color="7fdc83"
				Note Time="0" Value="C2" Duration="1" Instrument="blank" Volume="5"
				Note Time="2" Value="C2" Duration="1" Instrument="blank" Volume="5"
				Note Time="3" Value="C2" Duration="1" Instrument="blank" Volume="5"
				Note Time="5" Value="C2" Duration="1" Instrument="blank" Volume="5"
				Note Time="6" Value="C2" Duration="1" Instrument="blank" Volume="5"
				Note Time="12" Value="D4" Duration="4" Instrument="blank" SlideTarget="G3" Volume="9" FinePitch="2" DutyCycle="1"
			Pattern Name="Pattern 6" Color="8a706a"
				Note Time="0" Value="D#3" Duration="3" Instrument="blank" Arpeggio="Arp D0" Volume="12" FinePitch="0" DutyCycle="0"
				Note Time="4" Value="D#3" Duration="3" Instrument="blank" Arpeggio="Arp D0"
				Note Time="8" Value="G2" Duration="1" Instrument="blank instant decay" DutyCycle="2"
				Note Time="9" Value="C3" Duration="1" Instrument="blank instant decay" Volume="15" FinePitch="1"
				Note Time="11" Value="D#3" Duration="1" Instrument="blank instant decay"
				Note Time="13" Value="G2" Duration="1" Instrument="blank instant decay"
				Note Time="14" Value="B2" Duration="1" Instrument="blank instant decay"
				Note Time="15" Value="G2" Duration="1" Instrument="blank instant decay"
			Pattern Name="Pattern 7" Color="7b8df1"
				Note Time="0" Value="G#1" Duration="8" Instrument="blank" Volume="9" FinePitch="0" DutyCycle="3"
				Note Time="8" Value="G1" Duration="8" Instrument="blank"
			Pattern Name="Pattern 11" Color="ffd43c"
				Note Time="0" Value="C2" Duration="1" Instrument="blank" Volume="5"
				Note Time="2" Value="C2" Duration="1" Instrument="blank" Volume="5"
				Note Time="3" Value="C2" Duration="1" Instrument="blank" Volume="5"
				Note Time="5" Value="C2" Duration="1" Instrument="blank" Volume="5"
				Note Time="6" Value="C2" Duration="1" Instrument="blank" Volume="5"
				Note Time="12" Value="G5" Duration="4" Instrument="blank" SlideTarget="C5" Volume="9" FinePitch="2" DutyCycle="1"
			Pattern Name="Pattern 8" Color="d8ffa1"
				Note Time="0" Value="C3" Duration="2" Instrument="blank instant decay" Arpeggio="Arp 0C" Volume="15"
				Note Time="1" Value="C3" Duration="1" Instrument="echo" Arpeggio="Arp 0C" Volume="12"
				Note Time="2" Value="B2" Duration="2" Instrument="blank instant decay" Arpeggio="Arp 0C" Volume="15"
				Note Time="3" Value="B2" Duration="1" Instrument="echo" Arpeggio="Arp 0C" Volume="12"
				Note Time="4" Value="D#3" Duration="2" Instrument="blank instant decay" Arpeggio="Arp 0C" Volume="15"
				Note Time="5" Value="D#3" Duration="1" Instrument="echo" Arpeggio="Arp 0C" Volume="12"
				Note Time="6" Value="B2" Duration="2" Instrument="blank instant decay" Arpeggio="Arp 0C" Volume="15"
				Note Time="7" Value="B2" Duration="1" Instrument="echo" Arpeggio="Arp 0C" Volume="12"
				Note Time="8" Value="D3" Duration="2" Instrument="blank instant decay" Arpeggio="Arp 0C" Volume="15"
				Note Time="9" Value="D3" Duration="1" Instrument="echo" Arpeggio="Arp 0C" Volume="12"
				Note Time="10" Value="C3" Duration="2" Instrument="blank instant decay" Arpeggio="Arp 0C" Volume="15"
				Note Time="11" Value="C3" Duration="1" Instrument="echo" Arpeggio="Arp 0C" Volume="12"
				Note Time="12" Value="G#2" Duration="2" Instrument="blank instant decay" Arpeggio="Arp 0C" Volume="15"
				Note Time="13" Value="G#2" Duration="1" Instrument="echo" Arpeggio="Arp 0C" Volume="12"
				Note Time="14" Value="G2" Duration="2" Instrument="blank instant decay" Arpeggio="Arp 0C" Volume="15"
				Note Time="15" Value="G2" Duration="1" Instrument="echo" Arpeggio="Arp 0C" Volume="12"
			Pattern Name="Pattern 9" Color="3fe5ff"
				Note Time="0" Value="B2" Duration="2" Instrument="blank instant decay" Arpeggio="Arp 0C" Volume="15"
				Note Time="1" Value="B2" Duration="1" Instrument="echo" Arpeggio="Arp 0C" Volume="12"
				Note Time="2" Value="G2" Duration="2" Instrument="blank instant decay" Arpeggio="Arp 0C" Volume="15"
				Note Time="3" Value="G2" Duration="1" Instrument="echo" Arpeggio="Arp 0C" Volume="12"
				Note Time="4" Value="C3" Duration="2" Instrument="blank instant decay" Arpeggio="Arp 0C" Volume="15"
				Note Time="5" Value="C3" Duration="1" Instrument="echo" Arpeggio="Arp 0C" Volume="12"
				Note Time="6" Value="G2" Duration="2" Instrument="blank instant decay" Arpeggio="Arp 0C" Volume="15"
				Note Time="7" Value="G2" Duration="1" Instrument="echo" Arpeggio="Arp 0C" Volume="12"
				Note Time="8" Value="D3" Duration="2" Instrument="blank instant decay" Arpeggio="Arp 0C" Volume="15"
				Note Time="9" Value="D3" Duration="1" Instrument="echo" Arpeggio="Arp 0C" Volume="12"
				Note Time="10" Value="G2" Duration="2" Instrument="blank instant decay" Arpeggio="Arp 0C" Volume="15"
				Note Time="11" Value="G2" Duration="1" Instrument="echo" Arpeggio="Arp 0C" Volume="12"
				Note Time="12" Value="D#3" Duration="2" Instrument="blank instant decay" Arpeggio="Arp 0C" Volume="15"
				Note Time="13" Value="D#3" Duration="1" Instrument="echo" Arpeggio="Arp 0C" Volume="12"
				Note Time="14" Value="B2" Duration="2" Instrument="blank instant decay" Arpeggio="Arp 0C" Volume="15"
				Note Time="15" Value="B2" Duration="1" Instrument="echo" Arpeggio="Arp 0C" Volume="12"
			Pattern Name="Pattern 10" Color="ffff94"
				Note Time="0" Value="B2" Duration="2" Instrument="blank instant decay" Arpeggio="Arp 0C" Volume="15"
				Note Time="1" Value="B2" Duration="1" Instrument="echo" Arpeggio="Arp 0C" Volume="12"
				Note Time="2" Value="G2" Duration="2" Instrument="blank instant decay" Arpeggio="Arp 0C" Volume="15"
				Note Time="3" Value="G2" Duration="1" Instrument="echo" Arpeggio="Arp 0C" Volume="12"
				Note Time="4" Value="C3" Duration="2" Instrument="blank instant decay" Arpeggio="Arp 0C" Volume="15"
				Note Time="5" Value="C3" Duration="1" Instrument="echo" Arpeggio="Arp 0C" Volume="12"
				Note Time="6" Value="G2" Duration="2" Instrument="blank instant decay" Arpeggio="Arp 0C" Volume="15"
				Note Time="7" Value="G2" Duration="1" Instrument="echo" Arpeggio="Arp 0C" Volume="12"
				Note Time="8" Value="D3" Duration="2" Instrument="blank instant decay" Arpeggio="Arp 0C" Volume="15"
				Note Time="9" Value="D3" Duration="1" Instrument="echo" Arpeggio="Arp 0C" Volume="12"
				Note Time="10" Value="G2" Duration="2" Instrument="blank instant decay" Arpeggio="Arp 0C" Volume="15"
				Note Time="11" Value="G2" Duration="1" Instrument="echo" Arpeggio="Arp 0C" Volume="12"
				Note Time="12" Value="D#3" Duration="2" Instrument="blank instant decay" Arpeggio="Arp 0C" Volume="15"
				Note Time="13" Value="D#3" Duration="1" Instrument="echo" Arpeggio="Arp 0C" Volume="12"
				Note Time="14" Value="B2" Duration="2" Instrument="blank instant decay" Arpeggio="Arp 0C" Volume="15"
				Note Time="15" Value="B2" Duration="1" Instrument="echo" Arpeggio="Arp 0C" Volume="12"
			PatternInstance Time="0" Pattern="Pattern 1"
			PatternInstance Time="1" Pattern="Pattern 2"
			PatternInstance Time="2" Pattern="Pattern 1"
			PatternInstance Time="3" Pattern="Pattern 3"
			PatternInstance Time="4" Pattern="Pattern 1"
			PatternInstance Time="5" Pattern="Pattern 2"
			PatternInstance Time="6" Pattern="Pattern 1"
			PatternInstance Time="7" Pattern="Pattern 3"
			PatternInstance Time="8" Pattern="Pattern 4"
			PatternInstance Time="9" Pattern="Pattern 5"
			PatternInstance Time="10" Pattern="Pattern 6"
			PatternInstance Time="11" Pattern="Pattern 7"
			PatternInstance Time="12" Pattern="Pattern 4"
			PatternInstance Time="13" Pattern="Pattern 11"
			PatternInstance Time="14" Pattern="Pattern 6"
			PatternInstance Time="15" Pattern="Pattern 7"
			PatternInstance Time="16" Pattern="Pattern 4"
			PatternInstance Time="17" Pattern="Pattern 5"
			PatternInstance Time="18" Pattern="Pattern 6"
			PatternInstance Time="19" Pattern="Pattern 7"
			PatternInstance Time="20" Pattern="Pattern 4"
			PatternInstance Time="21" Pattern="Pattern 11"
			PatternInstance Time="22" Pattern="Pattern 6"
			PatternInstance Time="23" Pattern="Pattern 7"
			PatternInstance Time="24" Pattern="Pattern 8"
			PatternInstance Time="25" Pattern="Pattern 9"
			PatternInstance Time="26" Pattern="Pattern 8"
			PatternInstance Time="27" Pattern="Pattern 10"
			PatternInstance Time="28" Pattern="Pattern 8"
			PatternInstance Time="29" Pattern="Pattern 9"
			PatternInstance Time="30" Pattern="Pattern 8"
			PatternInstance Time="31" Pattern="Pattern 9"
		Channel Type="Triangle"
			Pattern Name="Pattern 10" Color="fffc69"
				Note Time="0" Value="D#3" Duration="16" Instrument="blank"
			Pattern Name="Pattern 2" Color="ff8f8c"
				Note Time="0" Value="B2" Duration="16" Instrument="blank"
			Pattern Name="Pattern 3" Color="ffff64"
				Note Time="0" Value="G#2" Duration="16" Instrument="blank"
			Pattern Name="Pattern 1" Color="b5c2ff"
				Note Time="0" Value="G2" Duration="16" Instrument="blank"
			Pattern Name="Pattern 4" Color="e95093"
				Note Time="0" Value="C3" Duration="1" Instrument="endgame lead"
				Note Time="2" Value="C3" Duration="1" Instrument="endgame lead"
				Note Time="4" Value="C3" Duration="1" Instrument="endgame lead"
				Note Time="6" Value="C3" Duration="1" Instrument="endgame lead"
				Note Time="8" Value="C3" Duration="1" Instrument="endgame lead"
				Note Time="10" Value="C3" Duration="1" Instrument="endgame lead"
				Note Time="12" Value="C3" Duration="1" Instrument="endgame lead"
				Note Time="14" Value="C3" Duration="1" Instrument="endgame lead"
			Pattern Name="Pattern 5" Color="ffa83c"
				Note Time="0" Value="G2" Duration="1" Instrument="endgame lead"
				Note Time="2" Value="G2" Duration="1" Instrument="endgame lead"
				Note Time="4" Value="G2" Duration="1" Instrument="endgame lead"
				Note Time="6" Value="G2" Duration="1" Instrument="endgame lead"
				Note Time="8" Value="G2" Duration="1" Instrument="endgame lead"
				Note Time="10" Value="G2" Duration="1" Instrument="endgame lead"
				Note Time="12" Value="G2" Duration="1" Instrument="endgame lead"
				Note Time="14" Value="G2" Duration="1" Instrument="endgame lead"
			Pattern Name="Pattern 6" Color="a0f1ff"
				Note Time="0" Value="C3" Duration="4" Instrument="DMC: drums + bass"
				Note Time="4" Value="C4" Duration="1" Instrument="DMC: drums + bass"
				Note Time="8" Value="A#2" Duration="4" Instrument="DMC: drums + bass"
				Note Time="12" Value="A#3" Duration="1" Instrument="DMC: drums + bass"
			Pattern Name="Pattern 7" Color="ffe362"
				Note Time="0" Value="G2" Duration="4" Instrument="DMC: drums + bass"
				Note Time="4" Value="G3" Duration="1" Instrument="DMC: drums + bass"
				Note Time="8" Value="B2" Duration="4" Instrument="DMC: drums + bass"
				Note Time="12" Value="D4" Duration="1" Instrument="DMC: drums + bass"
			Pattern Name="Pattern 8" Color="3fd7ff"
				Note Time="0" Value="C3" Duration="8" Instrument="DMC: drums + bass"
				Note Time="8" Value="A#2" Duration="8" Instrument="DMC: drums + bass"
			Pattern Name="Pattern 9" Color="ff8655"
				Note Time="0" Value="G2" Duration="8" Instrument="DMC: drums + bass"
				Note Time="8" Value="B2" Duration="8" Instrument="DMC: drums + bass"
			PatternInstance Time="0" Pattern="Pattern 10"
			PatternInstance Time="1" Pattern="Pattern 2"
			PatternInstance Time="2" Pattern="Pattern 3"
			PatternInstance Time="3" Pattern="Pattern 1"
			PatternInstance Time="4" Pattern="Pattern 10"
			PatternInstance Time="5" Pattern="Pattern 2"
			PatternInstance Time="6" Pattern="Pattern 3"
			PatternInstance Time="7" Pattern="Pattern 1"
			PatternInstance Time="8" Pattern="Pattern 4"
			PatternInstance Time="9" Pattern="Pattern 5"
			PatternInstance Time="10" Pattern="Pattern 4"
			PatternInstance Time="11" Pattern="Pattern 5"
			PatternInstance Time="12" Pattern="Pattern 4"
			PatternInstance Time="13" Pattern="Pattern 5"
			PatternInstance Time="14" Pattern="Pattern 4"
			PatternInstance Time="15" Pattern="Pattern 5"
			PatternInstance Time="16" Pattern="Pattern 4"
			PatternInstance Time="17" Pattern="Pattern 5"
			PatternInstance Time="18" Pattern="Pattern 4"
			PatternInstance Time="19" Pattern="Pattern 5"
			PatternInstance Time="20" Pattern="Pattern 4"
			PatternInstance Time="21" Pattern="Pattern 5"
			PatternInstance Time="22" Pattern="Pattern 4"
			PatternInstance Time="23" Pattern="Pattern 5"
			PatternInstance Time="24" Pattern="Pattern 6"
			PatternInstance Time="25" Pattern="Pattern 7"
			PatternInstance Time="26" Pattern="Pattern 6"
			PatternInstance Time="27" Pattern="Pattern 7"
			PatternInstance Time="28" Pattern="Pattern 6"
			PatternInstance Time="29" Pattern="Pattern 7"
			PatternInstance Time="30" Pattern="Pattern 8"
			PatternInstance Time="31" Pattern="Pattern 9"
		Channel Type="Noise"
			Pattern Name="Pattern 1" Color="fffc69"
				Note Time="0" Value="G#3" Duration="8" Instrument="cymbal"
			Pattern Name="Pattern 2" Color="8d69e4"
				Note Time="0" Value="C#3" Duration="2" Instrument="kick"
				Note Time="2" Value="C#3" Duration="2" Instrument="kick"
				Note Time="4" Value="C#3" Duration="2" Instrument="kick"
				Note Time="6" Value="C#3" Duration="2" Instrument="kick"
				Note Time="8" Value="C#3" Duration="2" Instrument="kick"
				Note Time="10" Value="C#3" Duration="2" Instrument="kick"
				Note Time="12" Value="C#3" Duration="2" Instrument="kick"
				Note Time="14" Value="C#3" Duration="2" Instrument="kick"
			Pattern Name="Pattern 3" Color="997c73"
				Note Time="0" Value="C#3" Duration="1" Instrument="kick"
				Note Time="1" Value="C#3" Duration="1" Instrument="kick"
				Note Time="2" Value="C#3" Duration="1" Instrument="kick"
				Note Time="3" Value="C#3" Duration="1" Instrument="kick"
				Note Time="4" Value="C#3" Duration="1" Instrument="kick"
				Note Time="5" Value="C#3" Duration="1" Instrument="kick"
				Note Time="6" Value="C#3" Duration="1" Instrument="kick"
				Note Time="7" Value="C#3" Duration="3" Instrument="kick"
				Note Time="8" Value="G#3" Duration="1" Instrument="snare"
				Note Time="9" Value="A3" Duration="1" Instrument="snare"
				Note Time="10" Value="G#3" Duration="1" Instrument="snare"
				Note Time="11" Value="A3" Duration="2" Instrument="snare"
				Note Time="12" Value="G#3" Duration="1" Instrument="snare"
				Note Time="13" Value="A3" Duration="1" Instrument="snare"
				Note Time="14" Value="G#3" Duration="1" Instrument="snare"
				Note Time="15" Value="A3" Duration="1" Instrument="snare"
			Pattern Name="Pattern 6" Color="ff9ece"
				Note Time="0" Value="E3" Duration="2" Instrument="cymbal"
				Note Time="2" Value="A3" Duration="2" Instrument="hat"
				Note Time="3" Value="A3" Duration="1" Instrument="hat"
				Note Time="4" Value="G#3" Duration="1" Instrument="snare"
				Note Time="6" Value="A3" Duration="1" Instrument="hat"
				Note Time="7" Value="A3" Duration="1" Instrument="hat"
				Note Time="8" Value="C3" Duration="1" Instrument="kick"
				Note Time="10" Value="A3" Duration="1" Instrument="hat"
				Note Time="11" Value="A3" Duration="1" Instrument="hat"
				Note Time="12" Value="G#3" Duration="1" Instrument="snare"
				Note Time="13" Value="A3" Duration="1" Instrument="hat"
				Note Time="14" Value="A3" Duration="1" Instrument="hat"
				Note Time="15" Value="A3" Duration="1" Instrument="hat"
			Pattern Name="Pattern 5" Color="51a1fc"
				Note Time="0" Value="C3" Duration="1" Instrument="kick"
				Note Time="2" Value="A3" Duration="2" Instrument="hat"
				Note Time="3" Value="A3" Duration="1" Instrument="hat"
				Note Time="4" Value="G#3" Duration="1" Instrument="snare"
				Note Time="6" Value="A3" Duration="1" Instrument="hat"
				Note Time="7" Value="A3" Duration="1" Instrument="hat"
				Note Time="8" Value="C3" Duration="1" Instrument="kick"
				Note Time="10" Value="A3" Duration="1" Instrument="hat"
				Note Time="11" Value="A3" Duration="1" Instrument="hat"
				Note Time="12" Value="G#3" Duration="1" Instrument="snare"
				Note Time="13" Value="A3" Duration="1" Instrument="hat"
				Note Time="14" Value="F#3" Duration="2" Instrument="cymbal"
			Pattern Name="Pattern 4" Color="ebf067"
				Note Time="0" Value="F3" Duration="12" Instrument="cymbal"
			Pattern Name="Pattern 7" Color="a657d6"
				Note Time="14" Value="A3" Duration="2" Instrument="cymbal"
			PatternInstance Time="0" Pattern="Pattern 1"
			PatternInstance Time="6" Pattern="Pattern 2"
			PatternInstance Time="7" Pattern="Pattern 3"
			PatternInstance Time="8" Pattern="Pattern 6"
			PatternInstance Time="9" Pattern="Pattern 5"
			PatternInstance Time="10" Pattern="Pattern 6"
			PatternInstance Time="11" Pattern="Pattern 5"
			PatternInstance Time="12" Pattern="Pattern 6"
			PatternInstance Time="13" Pattern="Pattern 5"
			PatternInstance Time="14" Pattern="Pattern 6"
			PatternInstance Time="15" Pattern="Pattern 5"
			PatternInstance Time="16" Pattern="Pattern 6"
			PatternInstance Time="17" Pattern="Pattern 5"
			PatternInstance Time="18" Pattern="Pattern 6"
			PatternInstance Time="19" Pattern="Pattern 5"
			PatternInstance Time="20" Pattern="Pattern 6"
			PatternInstance Time="21" Pattern="Pattern 5"
			PatternInstance Time="22" Pattern="Pattern 6"
			PatternInstance Time="23" Pattern="Pattern 5"
			PatternInstance Time="24" Pattern="Pattern 4"
			PatternInstance Time="27" Pattern="Pattern 7"
			PatternInstance Time="28" Pattern="Pattern 1"
			PatternInstance Time="32" Pattern="Pattern 1"
		Channel Type="DPCM"
			Pattern Name="Pattern 2" Color="e783f8"
				Note Time="0" Value="E5" Duration="4" Instrument="DMC: drums + bass"
				Note Time="2" Value="E5" Duration="2" Instrument="DMC: drums + bass"
				Note Time="4" Value="E5" Duration="4" Instrument="DMC: drums + bass"
				Note Time="6" Value="E5" Duration="2" Instrument="DMC: drums + bass"
				Note Time="8" Value="E5" Duration="4" Instrument="DMC: drums + bass"
				Note Time="10" Value="E5" Duration="2" Instrument="DMC: drums + bass"
				Note Time="12" Value="E5" Duration="4" Instrument="DMC: drums + bass"
				Note Time="14" Value="E5" Duration="2" Instrument="DMC: drums + bass"
			Pattern Name="Pattern 3" Color="ffac7f"
				Note Time="0" Value="E5" Duration="2" Instrument="DMC: drums + bass"
				Note Time="1" Value="E5" Duration="1" Instrument="DMC: drums + bass"
				Note Time="2" Value="E5" Duration="1" Instrument="DMC: drums + bass"
				Note Time="3" Value="E5" Duration="1" Instrument="DMC: drums + bass"
				Note Time="4" Value="E5" Duration="1" Instrument="DMC: drums + bass"
				Note Time="5" Value="E5" Duration="1" Instrument="DMC: drums + bass"
				Note Time="6" Value="E5" Duration="1" Instrument="DMC: drums + bass"
				Note Time="7" Value="E5" Duration="1" Instrument="DMC: drums + bass"
				Note Time="8" Value="E5" Duration="1" Instrument="DMC: drums + bass"
				Note Time="9" Value="E5" Duration="1" Instrument="DMC: drums + bass"
				Note Time="10" Value="E5" Duration="1" Instrument="DMC: drums + bass"
				Note Time="11" Value="E5" Duration="1" Instrument="DMC: drums + bass"
				Note Time="12" Value="E5" Duration="1" Instrument="DMC: drums + bass"
				Note Time="13" Value="E5" Duration="1" Instrument="DMC: drums + bass"
				Note Time="14" Value="E5" Duration="1" Instrument="DMC: drums + bass"
				Note Time="15" Value="E5" Duration="1" Instrument="DMC: drums + bass"
			Pattern Name="Pattern 1" Color="98a7fc"
				Note Time="0" Value="E5" Duration="2" Instrument="DMC: drums + bass"
				Note Time="2" Value="C4" Duration="2" Instrument="DMC: drums + bass"
				Note Time="4" Value="F5" Duration="2" Instrument="DMC: drums + bass"
				Note Time="6" Value="C4" Duration="2" Instrument="DMC: drums + bass"
				Note Time="8" Value="E5" Duration="2" Instrument="DMC: drums + bass"
				Note Time="10" Value="C4" Duration="2" Instrument="DMC: drums + bass"
				Note Time="12" Value="F5" Duration="2" Instrument="DMC: drums + bass"
				Note Time="14" Value="C4" Duration="2" Instrument="DMC: drums + bass"
			Pattern Name="Pattern 4" Color="eaffbd"
				Note Time="0" Value="E5" Duration="2" Instrument="DMC: drums + bass"
				Note Time="2" Value="G3" Duration="2" Instrument="DMC: drums + bass"
				Note Time="4" Value="F5" Duration="2" Instrument="DMC: drums + bass"
				Note Time="6" Value="G3" Duration="2" Instrument="DMC: drums + bass"
				Note Time="8" Value="E5" Duration="2" Instrument="DMC: drums + bass"
				Note Time="10" Value="G3" Duration="2" Instrument="DMC: drums + bass"
				Note Time="12" Value="F5" Duration="2" Instrument="DMC: drums + bass"
				Note Time="14" Value="G3" Duration="2" Instrument="DMC: drums + bass"
			Pattern Name="Pattern 9" Color="ff6464"
				Note Time="0" Value="C4" Duration="4" Instrument="DMC: drums + bass"
				Note Time="4" Value="C5" Duration="1" Instrument="DMC: drums + bass"
				Note Time="8" Value="A#3" Duration="4" Instrument="DMC: drums + bass"
				Note Time="12" Value="A#4" Duration="1" Instrument="DMC: drums + bass"
			Pattern Name="Pattern 6" Color="3cbfcb"
				Note Time="0" Value="G3" Duration="4" Instrument="DMC: drums + bass"
				Note Time="4" Value="G4" Duration="1" Instrument="DMC: drums + bass"
				Note Time="8" Value="B3" Duration="4" Instrument="DMC: drums + bass"
				Note Time="12" Value="D5" Duration="1" Instrument="DMC: drums + bass"
			Pattern Name="Pattern 7" Color="7585e7"
				Note Time="0" Value="C4" Duration="8" Instrument="DMC: drums + bass"
				Note Time="8" Value="A#3" Duration="8" Instrument="DMC: drums + bass"
			Pattern Name="Pattern 8" Color="ff6b6b"
				Note Time="0" Value="G3" Duration="8" Instrument="DMC: drums + bass"
				Note Time="8" Value="B3" Duration="8" Instrument="DMC: drums + bass"
			PatternInstance Time="6" Pattern="Pattern 2"
			PatternInstance Time="7" Pattern="Pattern 3"
			PatternInstance Time="8" Pattern="Pattern 1"
			PatternInstance Time="9" Pattern="Pattern 4"
			PatternInstance Time="10" Pattern="Pattern 1"
			PatternInstance Time="11" Pattern="Pattern 4"
			PatternInstance Time="12" Pattern="Pattern 1"
			PatternInstance Time="13" Pattern="Pattern 4"
			PatternInstance Time="14" Pattern="Pattern 1"
			PatternInstance Time="15" Pattern="Pattern 4"
			PatternInstance Time="16" Pattern="Pattern 1"
			PatternInstance Time="17" Pattern="Pattern 4"
			PatternInstance Time="18" Pattern="Pattern 1"
			PatternInstance Time="19" Pattern="Pattern 4"
			PatternInstance Time="20" Pattern="Pattern 1"
			PatternInstance Time="21" Pattern="Pattern 4"
			PatternInstance Time="22" Pattern="Pattern 1"
			PatternInstance Time="23" Pattern="Pattern 4"
			PatternInstance Time="24" Pattern="Pattern 9"
			PatternInstance Time="25" Pattern="Pattern 6"
			PatternInstance Time="26" Pattern="Pattern 9"
			PatternInstance Time="27" Pattern="Pattern 6"
			PatternInstance Time="28" Pattern="Pattern 9"
			PatternInstance Time="29" Pattern="Pattern 6"
			PatternInstance Time="30" Pattern="Pattern 7"
			PatternInstance Time="31" Pattern="Pattern 8"
